<svg width="1116" height="1116" viewBox="0 0 1116 1116" fill="none" xmlns="http://www.w3.org/2000/svg">
<path d="M549.194 613.923C548.913 612.708 548.74 611.471 548.677 610.225C548.582 609.826 548.516 609.421 548.479 609.013C548.518 607.559 548.704 606.114 549.035 604.698C549.105 604.104 549.105 603.503 549.035 602.909C549.035 602.153 548.737 601.338 549.373 600.603C549.572 600.364 550.725 600.603 551.878 600.841C553.031 601.08 554.224 601.497 554.284 601.835C554.632 603.057 554.632 604.352 554.284 605.573C553.986 606.388 554.423 607.104 554.562 607.859C554.701 608.615 554.841 609.49 555.039 610.285C555.16 610.757 555.326 611.217 555.536 611.657C555.757 612.31 556.165 612.884 556.709 613.307C556.955 613.387 557.22 613.387 557.465 613.307C557.723 613.307 558.022 613.068 558.181 613.108H558.439C558.718 613.108 558.698 613.705 558.598 615.414V616.568C558.641 617.087 558.553 617.609 558.341 618.085C558.129 618.561 557.8 618.976 557.385 619.291C556.333 619.76 555.153 619.861 554.036 619.58C552.919 619.299 551.928 618.651 551.222 617.741C550.714 617.188 550.267 616.581 549.89 615.931C549.57 615.292 549.304 614.627 549.095 613.943L549.194 613.923Z" fill="#231F20"/>
<path d="M455.829 344.807C455.273 348.585 454.915 352.462 454.656 356.338C454.656 357.77 454.656 359.182 454.656 360.613C454.418 365.623 454.12 370.693 454.12 375.763C454.132 378.01 454.285 380.254 454.577 382.483C455.162 385.313 455.323 388.214 455.054 391.091C454.716 392.92 447.917 391.091 447.618 387.811C447.035 381.858 447.081 375.86 447.757 369.918C448.175 366.339 447.757 362.621 447.897 358.943C448.016 354.967 448.354 350.871 448.752 346.835C449.03 344.35 449.328 341.865 449.726 339.38C450.263 335.622 451.137 331.904 451.893 328.226C452.509 325.343 452.827 322.441 453.523 319.558C453.682 318.941 453.762 318.285 453.961 317.57C454.736 315.283 455.471 314.727 457.34 314.985C457.778 314.985 458.215 314.985 458.633 315.164C459.317 315.376 459.895 315.843 460.246 316.468C460.597 317.093 460.696 317.829 460.521 318.524C459.885 323.494 458.672 328.306 457.738 333.316C457.062 337.034 456.366 340.791 456.008 344.648L455.829 344.807Z" fill="#231F20"/>
<path d="M547.525 325.521C537.067 313.751 519.929 308.284 504.501 308.522C499.71 308.522 499.69 316.057 504.501 315.978C518.08 315.759 533.031 320.411 542.276 330.789C545.477 334.388 550.726 329.099 547.545 325.521H547.525Z" fill="#231F20"/>
<path d="M811.808 449.106C810.456 427.057 802.981 414.432 786.956 399.7C774.63 388.328 760.594 375.842 758.884 358.287C757.234 341.149 762.86 323.276 763.834 306.297C770.594 181.66 663.453 187.505 635.817 210.11C593.967 141.479 490.166 164.959 454.24 183.688C431.615 195.497 409.467 218.6 398.094 242.318C387.579 264.351 382.903 288.716 384.515 313.076C385.668 335.344 392.368 357.094 391.414 379.421C390.42 402.563 376.563 416.142 362.864 432.843C328.609 474.594 385.33 573.604 517.165 539.944C517.165 539.944 528.596 567.341 547.623 569.468C558.737 570.701 570.705 552.45 574.304 535.55C598.778 535.55 634.664 570.82 634.664 570.82C674.361 577.954 715.301 570.873 750.295 550.819C786.559 530.421 814.433 492.03 811.808 449.106ZM651.305 400.973C645.519 399.879 620.886 487.894 569.572 500.38C543.726 506.643 516.151 501.99 496.309 484.097C476.01 465.766 462.51 440.239 456.268 413.697C454.16 404.651 450.303 382.98 450.303 382.96C413.502 378.765 397.16 321.148 433.046 307.311C444.975 304.15 450.76 314.269 460.661 316.933C462.431 317.411 464.161 317.947 465.89 318.405C540.605 338.286 595.537 294.925 610.787 289.656C630.887 285.68 644.187 356.597 647.329 350.434C656.832 331.725 675.063 323.216 689.199 331.825C724.35 353.257 686.893 407.673 651.305 400.973Z" fill="#231F20"/>
<path d="M357.92 495.707C353.095 486.806 350.094 477.033 349.093 466.958C348.097 456.646 350.172 446.271 355.057 437.136C356.332 434.849 357.788 432.668 359.412 430.615C360.942 428.626 362.473 426.897 364.024 425.087C367.086 421.449 370.128 417.851 372.951 414.192C378.721 407.259 383.047 399.242 385.675 390.613C386.801 386.314 387.409 381.895 387.484 377.451C387.593 372.847 387.433 368.24 387.007 363.654C386.192 354.389 384.601 345.084 383.17 335.621C381.603 326.067 380.725 316.413 380.546 306.733C380.41 296.936 381.222 287.148 382.971 277.507C385.481 263.457 390.092 249.864 396.65 237.187C403.366 224.603 411.983 213.129 422.197 203.17C431.11 194.278 441.27 186.73 452.357 180.764C463.556 175.217 475.331 170.917 487.468 167.94C499.486 164.838 511.743 162.75 524.11 161.697C530.293 161.141 536.516 160.982 542.739 161.002C548.968 161.102 555.186 161.54 561.368 162.314C567.572 163.086 573.712 164.309 579.738 165.972C585.802 167.607 591.714 169.755 597.413 172.394C603.121 175.062 608.572 178.25 613.696 181.917L617.414 184.84L619.263 186.311L620.992 187.921L624.452 191.142L627.653 194.621L629.263 196.371L630.714 198.22L633.637 201.957C634.512 203.17 635.625 204.88 635.744 205.119L636.301 205.954C636.401 205.954 636.46 206.331 636.599 206.272L636.997 205.993L637.792 205.417L639.343 204.482C640.715 203.608 642.186 202.991 643.617 202.256C646.501 200.927 649.47 199.791 652.505 198.856C664.573 195.249 677.222 194.001 689.762 195.178C700.936 196.162 711.813 199.301 721.792 204.423C729.311 208.261 736.09 213.404 741.812 219.612L744.655 222.714L747.299 226.074C753.947 235.058 758.856 245.206 761.773 255.995C764.644 266.619 766.258 277.542 766.585 288.541C766.724 292.041 766.883 295.56 766.704 299.059C766.525 302.558 766.704 306.037 766.326 309.596C765.73 316.654 764.557 323.513 763.523 330.372C762.374 337.075 761.709 343.852 761.535 350.651C761.442 353.938 761.655 357.226 762.171 360.473C762.751 363.637 763.726 366.716 765.074 369.638C768.055 375.561 771.954 380.976 776.625 385.682C781.277 390.633 786.406 395.126 791.496 399.997C796.657 404.904 801.179 410.441 804.956 416.479C808.736 422.645 811.357 429.45 812.69 436.559C813.321 439.721 813.634 442.938 813.624 446.162C813.624 448.15 813.326 449.084 812.968 448.985C812.193 448.786 811.278 444.532 809.091 437.633C807.783 433.584 806.12 429.659 804.121 425.903C801.5 421.159 798.301 416.758 794.598 412.801C792.609 410.614 790.363 408.387 787.898 406.2C785.432 404.013 782.867 401.766 780.104 399.341C774.038 394.239 768.545 388.493 763.722 382.203C761.446 379.09 759.481 375.76 757.857 372.262C756.218 368.65 755.081 364.83 754.477 360.91C753.944 357.138 753.751 353.325 753.9 349.518C754 345.8 754.298 342.122 754.735 338.504C755.61 331.306 756.902 324.308 757.896 317.469C758.393 314.029 758.791 310.63 759.03 307.27C759.268 303.91 759.248 300.411 759.368 296.971C759.487 293.532 759.228 290.092 759.169 286.653C759.169 284.943 758.99 283.233 758.831 281.523L758.354 276.414C757.976 273.014 757.32 269.674 756.823 266.314L755.65 261.363C755.304 259.703 754.866 258.064 754.338 256.453L752.807 251.621C752.31 250.011 751.574 248.5 750.958 246.929C749.682 243.836 748.236 240.816 746.624 237.883C743.29 232.135 739.234 226.836 734.555 222.117C724.869 212.85 712.795 206.461 699.683 203.667C686.417 200.757 672.668 200.852 659.443 203.946C657.833 204.403 656.183 204.781 654.572 205.278C652.962 205.775 651.371 206.252 649.84 206.928C648.297 207.514 646.784 208.177 645.307 208.916C644.572 209.294 643.816 209.612 643.14 210.049L642.106 210.666L641.45 211.043C641.074 211.264 640.709 211.502 640.357 211.759L636.381 214.602L635.387 215.298L634.889 215.656C634.79 215.775 634.73 215.656 634.691 215.656L634.512 215.397L633.16 213.409L628.786 206.769C627.812 205.397 626.798 204.085 625.704 202.793C625.167 202.117 624.67 201.421 624.114 200.804L622.404 198.936C620.139 196.406 617.729 194.009 615.187 191.758C612.597 189.552 609.889 187.488 607.075 185.575C601.405 181.719 595.315 178.517 588.923 176.032C573.19 170.157 556.488 167.311 539.697 167.642C522.53 167.765 505.446 170.029 488.84 174.382C480.508 176.523 472.336 179.247 464.386 182.533C456.509 185.764 449.063 189.958 442.218 195.019C428.405 205.158 416.577 217.754 407.326 232.177C402.317 240.075 398.228 248.52 395.139 257.347C391.991 266.177 389.778 275.313 388.538 284.605C387.295 293.921 386.916 303.332 387.405 312.717C388.035 322.174 389.164 331.591 390.785 340.929C392.455 350.479 393.57 360.118 394.125 369.797C394.364 374.738 394.218 379.69 393.687 384.609C393.014 389.615 391.677 394.509 389.711 399.162C385.874 408.486 379.77 416.439 373.667 423.855C370.605 427.573 367.444 431.191 364.501 434.849C361.736 438.397 359.542 442.354 358 446.579C356.222 451.894 355.394 457.48 355.555 463.081C355.619 465.898 355.871 468.708 356.31 471.491C356.806 474.279 357.47 477.034 358.298 479.742C359.146 482.445 360.141 485.1 361.28 487.694C362.476 490.279 363.803 492.801 365.257 495.249C368.166 500.192 371.584 504.816 375.456 509.047C383.358 517.567 392.674 524.656 402.992 530.002C413.268 535.341 424.244 539.209 435.597 541.494C448.992 544.129 462.671 545.024 476.295 544.158L481.404 543.859C483.114 543.72 484.804 543.482 486.494 543.303C489.894 542.905 493.293 542.587 496.653 541.931C500.013 541.275 503.393 540.877 506.714 540.082L511.724 538.949L514.805 538.253C516.018 537.994 517.271 537.656 518.444 537.458L519.676 540.241L520.312 541.593L520.869 542.706C521.485 543.899 522.122 545.072 522.857 546.225C524.196 548.532 525.663 550.762 527.251 552.906C530.308 557.164 534.09 560.852 538.424 563.801C539.478 564.516 540.651 565.013 541.745 565.65C542.838 566.286 544.091 566.584 545.303 566.842L547.113 567.22C547.411 567.22 547.729 567.359 548.007 567.379H548.823C549.094 567.399 549.366 567.399 549.638 567.379L550.473 567.22L551.288 567.061L552.103 566.743C554.387 565.804 556.457 564.41 558.187 562.648C560.043 560.834 561.708 558.835 563.157 556.683C566.13 552.311 568.51 547.565 570.235 542.567C570.712 541.315 571.07 540.042 571.448 538.79C571.706 537.895 571.945 536.921 572.183 536.006L572.541 534.595L572.74 533.899C572.74 533.7 572.74 533.322 573.098 533.442L575.981 533.561L578.764 533.859H579.44L579.957 533.959L581.031 534.177C581.726 534.296 582.422 534.475 583.118 534.654C588.532 536.141 593.745 538.277 598.646 541.016C603.49 543.661 608.171 546.596 612.662 549.804C616.857 552.786 620.933 555.928 624.849 559.168C626.838 560.779 628.826 562.429 630.635 564.099L633.458 566.624L635.725 568.751L639.204 569.328C640.556 569.586 641.928 569.725 643.299 569.904C646.023 570.322 648.787 570.521 651.53 570.779C657.018 571.137 662.525 571.336 668.012 571.157C689.941 570.579 711.549 565.744 731.633 556.922C741.643 552.596 751.188 547.267 760.123 541.016C769.645 534.247 778.166 526.168 785.432 517.019C791.191 509.868 796.095 502.068 800.045 493.778C802.666 488.118 804.82 482.253 806.487 476.243C807.163 473.817 807.819 471.65 808.157 469.642C808.495 467.634 809.012 465.864 809.369 464.234C809.847 460.974 810.542 458.27 810.98 455.963C811.417 453.657 811.735 450.914 812.133 449.621C812.531 448.329 812.809 448.826 813.167 450.456C813.326 451.271 813.505 452.444 813.684 453.876C813.927 455.641 814.034 457.422 814.002 459.204C813.99 472.069 811.217 484.781 805.87 496.482C802.442 504.014 798.252 511.176 793.365 517.854C783.374 531.336 770.921 542.805 756.664 551.653C749.494 556.061 742.027 559.967 734.317 563.343C726.558 566.685 718.588 569.514 710.459 571.813C702.22 574.036 693.836 575.683 685.369 576.743C676.845 577.824 668.251 578.25 659.662 578.016C655.367 577.897 651.053 577.618 646.759 577.181C644.592 577.002 642.444 576.644 640.297 576.386C639.224 576.246 638.15 576.028 637.096 575.869L632.563 575.073L630.396 573.085L629.223 571.992L626.758 569.765C625.167 568.353 623.557 566.942 621.907 565.57C618.62 562.8 615.26 560.149 611.827 557.618C605.103 552.503 597.867 548.099 590.236 544.476C586.601 542.759 582.768 541.497 578.824 540.718C577.531 540.48 578.088 540.599 577.949 540.579L577.69 541.434C577.352 542.567 577.014 543.72 576.597 544.814C575.053 549.3 573.055 553.617 570.633 557.697C568.136 561.979 564.975 565.838 561.268 569.129C559.051 571.044 556.496 572.528 553.733 573.503C552.966 573.751 552.182 573.944 551.387 574.079C550.97 574.079 550.572 574.238 550.155 574.278H548.882C547.367 574.276 545.858 574.089 544.389 573.721C539.115 572.433 534.24 569.866 530.194 566.246C526.409 562.902 523.068 559.087 520.253 554.894C518.841 552.906 517.569 550.758 516.277 548.631C515.72 547.577 515.044 546.365 514.587 545.45H514.388L513.036 545.748L507.608 546.981C503.99 547.776 500.312 548.293 496.673 548.969C489.325 550.132 481.918 550.889 474.486 551.236C459.494 552.039 444.465 550.701 429.852 547.259C415.082 543.861 401.072 537.746 388.538 529.227C375.834 520.653 365.325 509.212 357.861 495.826L357.92 495.707Z" fill="#231F20"/>
<path d="M521.024 326.973C518.271 327.297 515.504 327.483 512.733 327.529C509.95 327.529 507.186 327.847 504.423 327.748L496.112 327.39C494.721 327.291 493.329 327.39 491.957 327.152L487.842 326.615L479.591 325.521C476.867 325.044 474.183 324.348 471.479 323.772C468.775 323.195 466.032 322.619 463.527 321.784L459.55 320.65C458.775 320.412 457.999 320.173 457.244 319.895C456.488 319.617 455.793 319.298 455.097 318.96C449.59 316.217 445.534 312.578 441.438 311.167C439.493 310.456 437.396 310.265 435.354 310.61C434.857 310.71 434.162 310.829 434.062 310.869L432.492 311.545C431.402 312.03 430.345 312.588 429.33 313.215C425.272 315.658 421.975 319.183 419.807 323.394C417.673 327.723 416.565 332.485 416.566 337.311C416.631 344.609 418.476 351.781 421.941 358.204C425.406 364.627 430.385 370.108 436.448 374.171C437.442 374.748 438.436 375.344 439.43 375.861C440.424 376.378 441.418 376.895 442.552 377.253C443.608 377.679 444.69 378.038 445.792 378.327L447.442 378.764C447.638 378.819 447.837 378.859 448.039 378.883L448.774 379.003L450.226 379.241L451.876 379.977L452.293 380.156H452.492C452.592 380.156 451.697 381.03 452.095 380.653L452.592 381.249C453.394 382.174 453.906 383.315 454.063 384.53L454.978 389.56L456.648 398.844C457.821 405.047 458.894 411.191 460.465 417.135C463.571 429.094 468.194 440.606 474.223 451.391C486.311 472.624 504.204 492.327 528.4 497.834C540.074 500.686 552.227 500.985 564.027 498.709C566.946 498.174 569.828 497.457 572.656 496.562C575.452 495.638 578.171 494.495 580.788 493.142C586.031 490.383 590.907 486.977 595.301 483.003C606.713 472.823 615.62 459.92 623.414 446.52C627.39 439.8 630.909 432.901 634.408 425.903C637.907 418.905 641.148 411.847 644.965 404.789C645.835 403.029 647.006 401.434 648.424 400.077C648.984 399.578 649.673 399.247 650.413 399.123C651.248 399.123 651.586 399.381 651.427 399.5C651.267 399.62 650.711 399.799 650.432 400.216C650.123 400.651 649.887 401.135 649.737 401.648C649.359 402.781 648.941 404.371 648.365 406.379C644.7 419.905 639.483 432.961 632.817 445.287C624.865 459.503 615.819 473.38 603.771 485.05C597.718 491.046 590.769 496.063 583.173 499.922C579.279 501.831 575.194 503.324 570.986 504.375C566.888 505.362 562.731 506.086 558.54 506.542C541.685 508.724 524.563 505.816 509.373 498.192C505.608 496.197 502.017 493.889 498.637 491.293C496.927 490.061 495.377 488.569 493.746 487.217C492.116 485.866 490.724 484.335 489.273 482.844C483.483 476.87 478.283 470.352 473.746 463.38C465.899 451.233 459.821 438.032 455.693 424.173C453.669 417.216 452.023 410.154 450.763 403.019L448.774 392.442L447.78 387.174L447.601 386.14C447.601 385.742 447.224 385.822 446.965 385.762H446.488C446.329 385.762 446.21 385.762 445.772 385.603L443.585 385.027C442.138 384.621 440.711 384.144 439.311 383.595C436.517 382.445 433.852 381.006 431.358 379.301C426.476 375.937 422.273 371.68 418.972 366.756C415.697 361.986 413.238 356.705 411.695 351.129C410.093 345.533 409.533 339.69 410.045 333.891C410.55 327.954 412.525 322.235 415.791 317.251C419.17 312.292 423.847 308.358 429.31 305.878L431.299 305.004L431.915 304.725C432.156 304.651 432.402 304.592 432.651 304.546L433.824 304.308C435.397 304.022 437 303.935 438.595 304.049C441.71 304.33 444.728 305.279 447.442 306.833C452.572 309.696 456.588 313.155 461.121 314.388C466.31 316.018 471.539 317.012 476.748 318.205C478.06 318.483 479.352 318.861 480.724 319.02L484.7 319.537L492.653 320.571C505.778 321.606 518.982 321.005 531.959 318.781C544.976 316.411 557.683 312.569 569.833 307.33C579.087 303.376 588.131 298.95 596.931 294.069C599.198 292.896 601.365 291.663 603.691 290.49C604.884 289.933 605.938 289.297 607.21 288.78L609.079 288.005L610.153 287.548L611.485 287.369C614.571 287.215 617.602 288.23 619.974 290.212C622.108 291.921 623.983 293.93 625.541 296.176C628.495 300.463 631.019 305.032 633.076 309.815C635.163 314.507 637.052 319.279 638.722 324.05C640.392 328.822 642.042 333.653 643.653 338.405L644.866 341.943L645.601 343.932C645.84 344.613 646.126 345.278 646.456 345.92C646.546 346.072 646.646 346.218 646.754 346.357C646.874 346.496 647.072 346.635 647.212 346.476C647.351 346.317 647.569 345.86 647.748 345.542C647.927 345.224 648.245 344.608 648.504 344.19L649.379 342.838C649.379 342.699 649.856 342.202 650.134 341.844L651.029 340.691C651.608 339.895 652.239 339.138 652.918 338.424C653.594 337.709 654.23 336.933 654.906 336.277C657.736 333.444 661.005 331.087 664.588 329.299C668.225 327.456 672.207 326.393 676.278 326.177C680.399 326.002 684.499 326.856 688.207 328.663C690.019 329.568 691.754 330.618 693.396 331.804C695.018 332.99 696.528 334.321 697.909 335.78C700.758 338.76 702.929 342.32 704.271 346.218C706.699 354.053 706.319 362.49 703.198 370.076C701.963 373.447 700.363 376.674 698.426 379.698C696.542 382.75 694.35 385.601 691.885 388.208C682.601 397.989 673.753 401.449 667.709 402.821C663.53 403.942 659.109 403.776 655.025 402.343C653.813 401.919 652.652 401.358 651.566 400.673C651.029 400.236 651.287 399.938 652.222 399.739C653.156 399.54 654.727 399.54 656.894 399.262C663.455 398.597 669.785 396.477 675.423 393.059C683.671 388.026 690.372 380.816 694.788 372.223C696.918 368.014 698.265 363.454 698.764 358.763C699.232 354.285 698.455 349.765 696.518 345.701C694.357 341.718 691.181 338.378 687.313 336.019L686.597 335.542L685.861 335.184L684.43 334.428L682.919 333.891L682.163 333.613L681.388 333.454C679.301 332.943 677.14 332.809 675.006 333.056C670.493 333.667 666.232 335.495 662.679 338.345C661.72 339.035 660.815 339.799 659.976 340.631C659.091 341.443 658.254 342.306 657.471 343.216C656.65 344.134 655.88 345.097 655.164 346.099L654.866 346.457L654.727 346.655L654.448 347.113L653.395 348.882L651.248 352.441C650.691 353.534 650.273 353.435 649.816 353.773L648.444 354.568L647.053 355.363C646.515 355.476 645.96 355.476 645.422 355.363C644.336 355.094 643.362 354.488 642.639 353.634C641.608 352.373 640.795 350.948 640.233 349.419C639.537 347.749 638.901 345.94 638.245 344.17L637.311 341.446L635.482 336.058C633.056 328.881 630.571 321.784 627.648 314.964C625.7 310.213 623.324 305.648 620.551 301.326C619.316 299.396 617.832 297.638 616.137 296.097C615.045 294.972 613.567 294.304 612.002 294.228C612.002 294.228 611.584 294.228 611.723 294.228H611.465L609.854 294.904C608.82 295.321 607.568 296.037 606.435 296.594C604.109 297.767 601.703 299.119 599.317 300.371C594.506 302.956 589.635 305.56 584.645 307.966C574.657 312.892 564.3 317.034 553.669 320.352C551.045 321.267 548.301 321.823 545.597 322.579L541.621 323.652L537.506 324.487C534.742 324.985 532.018 325.601 529.255 326.038L520.905 327.032L521.024 326.973Z" fill="#231F20"/>
<path d="M288.704 809.597C301.295 782.705 315.868 756.788 332.304 732.059C338.269 723.052 344.134 713.986 350.416 705.219C372.576 674.325 396.341 644.614 421.612 616.209C432.805 603.664 444.138 590.94 456.047 579.21C463.601 571.595 471.196 563.921 479.368 556.783C483.423 553.162 487.677 549.77 492.112 546.624C496.514 543.417 501.168 540.571 506.029 538.115C512.212 535.212 511.774 536.584 507.5 540.441C503.225 544.298 495.81 551.415 486.724 559.408C478.552 566.406 470.818 573.981 463.104 581.695L451.593 593.306C447.835 597.183 444.138 601.258 440.44 605.235C425.707 621.339 411.432 637.94 397.277 654.779C380.417 674.979 364.194 697.107 349.024 719.315C332.142 743.599 316.867 768.962 303.297 795.242C295.022 811.375 287.926 828.086 282.064 845.244C277.59 858.222 274.263 871.567 272.123 885.126L271.387 890.216C271.263 891.025 271.197 891.843 271.188 892.661C271.129 893.462 271.129 894.266 271.188 895.067C271.256 898.234 271.931 901.359 273.177 904.272C274.556 907.118 276.474 909.67 278.823 911.787C281.249 913.9 283.994 915.618 286.954 916.877C291.633 918.817 296.624 919.895 301.687 920.058C304.22 920.173 306.759 920.1 309.281 919.839C311.846 919.561 314.411 919.283 316.936 918.806C322.007 917.973 327.001 916.723 331.867 915.068C336.731 913.461 341.458 911.467 346.002 909.103C347.991 908.129 349.979 906.916 351.967 905.843C353.955 904.769 355.804 903.517 357.673 902.204C364.691 897.493 368.985 893.914 372.226 891.647C374.409 889.908 376.878 888.563 379.523 887.671C380.394 887.342 381.292 887.09 382.207 886.916C383.34 886.916 382.823 888.268 380.914 890.892C377.885 894.796 374.416 898.338 370.576 901.449C363.002 907.838 354.636 913.224 345.684 917.473C341.088 919.596 336.351 921.403 331.509 922.881C326.612 924.346 321.615 925.456 316.558 926.201C314.013 926.659 311.468 926.798 308.904 927.096L304.927 927.275C303.595 927.275 302.243 927.275 300.951 927.176C295.452 926.878 290.039 925.683 284.927 923.637C279.556 921.49 274.782 918.08 271.009 913.696C266.589 908.124 264.173 901.226 264.15 894.113L264.309 890.912C264.488 888.924 264.826 887.075 265.085 885.146L265.9 879.5C266.158 877.512 266.636 875.762 266.993 873.893C268.425 866.418 270.393 859.082 272.52 851.825C276.922 837.386 282.302 823.264 288.625 809.557L288.704 809.597Z" fill="#231F20"/>
<path d="M806.664 825.363C800.242 812.042 793.204 798.901 786.464 785.481C779.724 772.061 772.547 759.297 764.952 746.572C759.366 737.308 753.381 728.242 747.516 719.136C742.32 711.077 737.052 703.085 731.71 695.159C726.342 687.206 721.034 679.254 715.507 671.46C704.466 655.86 692.776 640.737 680.436 626.091C674.969 619.609 669.342 613.207 663.596 606.965C657.851 600.722 652.065 594.499 646.001 588.753C638.168 581.357 629.897 574.299 621.845 566.884C617.73 563.126 614.092 559.05 610.374 555.173C606.812 551.217 602.81 547.682 598.445 544.636C595.641 542.946 594.349 542.35 594.468 542.052C596.076 541.96 597.679 542.289 599.121 543.006C602.947 544.505 606.595 546.425 609.996 548.732C612.237 550.277 614.388 551.95 616.438 553.742L619.758 556.605L623.058 559.706C631.011 567.003 639.798 574.021 647.91 581.695C652.006 585.513 656.081 589.529 659.839 593.624C663.596 597.72 667.453 601.756 671.211 605.891C686.233 622.498 700.368 639.885 713.559 657.981C721.511 668.836 729.305 680.109 737.118 691.382C744.932 702.654 752.785 714.046 760.201 725.598C768.332 738.302 776.106 751.265 783.422 764.506C787.08 771.106 790.56 777.866 793.959 784.566L804.258 804.607C813.07 821.023 820.769 838.014 827.301 855.463C828.553 858.784 829.567 862.183 830.641 865.563C831.714 868.943 832.629 872.383 833.345 875.882C835.038 882.814 836.194 889.866 836.804 896.976C837.608 904.253 836.932 911.618 834.816 918.627C832.487 925.871 827.519 931.974 820.899 935.725C815.843 938.423 810.273 940.022 804.556 940.417C799.041 940.905 793.489 940.805 787.995 940.119C776.883 938.772 766.248 934.813 756.96 928.568C752.881 925.874 749.037 922.841 745.468 919.502C740.692 915.145 736.662 910.033 733.539 904.372C731.989 901.863 731.055 899.021 730.816 896.081C730.741 895.142 730.741 894.198 730.816 893.258C731.054 892.185 732.327 893.079 734.355 895.485C736.383 897.89 739.464 901.728 743.639 906.3C749.674 913.259 756.79 919.2 764.714 923.895C768.667 926.176 772.819 928.093 777.12 929.621C781.463 931.049 785.939 932.035 790.48 932.564C795.1 933.094 799.761 933.18 804.397 932.822C808.746 932.518 812.993 931.371 816.903 929.442C818.731 928.524 820.407 927.33 821.873 925.904C823.367 924.493 824.664 922.888 825.73 921.132C827.881 917.364 829.177 913.17 829.527 908.845C830.101 901.835 829.726 894.78 828.414 887.87C827.167 880.674 825.474 873.563 823.344 866.577C818.823 852.466 813.199 838.732 806.524 825.502L806.664 825.363Z" fill="#231F20"/>
<path d="M493.053 622.91C490.815 623.947 488.426 624.618 485.975 624.898C483.328 625.215 480.643 624.929 478.122 624.063C475.424 623.094 473.096 621.308 471.462 618.953C470.033 616.785 469.128 614.314 468.817 611.736C468.316 608.442 468.316 605.09 468.817 601.796C470.948 591.167 474.774 580.95 480.15 571.536C482.456 567.42 484.802 563.305 487.367 559.368C489.043 556.835 490.862 554.399 492.814 552.072C494.78 549.587 497.186 547.484 499.912 545.869C501.9 544.915 501.9 546.247 501.423 548.056C500.701 550.572 499.529 552.936 497.964 555.034C494.487 559.659 491.382 564.552 488.679 569.667C485.915 574.816 483.112 580.005 480.547 585.354C477.553 591.8 475.767 598.741 475.279 605.832C475.15 607.63 475.223 609.437 475.498 611.219C475.768 612.769 476.372 614.241 477.267 615.534C478.327 616.677 479.67 617.521 481.161 617.978C482.652 618.435 484.237 618.491 485.756 618.138C490.275 617.005 494.463 614.826 497.984 611.776C503.804 606.986 509.266 601.776 514.326 596.189C518.302 591.875 522.02 587.322 526.255 583.127C527.174 582.162 528.143 581.246 529.158 580.383C533.134 577.182 534.943 576.804 536.772 577.938C537.205 578.165 537.611 578.438 537.985 578.753C539.059 579.886 537.985 581.715 535.579 583.922C528.442 590.602 521.464 598.893 513.71 606.845C510.807 609.828 507.745 612.81 504.465 615.554C501.057 618.519 497.29 621.044 493.252 623.069L493.053 622.91Z" fill="#231F20"/>
<path d="M608.898 615.254C611.712 617.133 614.678 618.776 617.765 620.165C618.487 620.498 619.231 620.784 619.991 621.02C620.697 621.282 621.421 621.488 622.158 621.636C622.914 621.855 623.53 621.795 624.147 621.934C624.719 621.959 625.293 621.919 625.856 621.815C627.308 621.497 628.143 620.602 628.998 618.833C630.529 615.91 630.25 611.437 629.316 607.222C628.276 602.839 626.804 598.571 624.922 594.478C623.21 590.769 621.257 587.176 619.077 583.722C616.293 579.289 613.112 575.074 610.667 570.382C609.892 568.91 611.045 568.394 612.874 568.811C615.37 569.495 617.558 571.01 619.077 573.105C622.342 577.561 625.336 582.208 628.043 587.023C630.875 591.925 633.086 597.161 634.624 602.61C635.6 606.089 636.265 609.649 636.612 613.246C636.992 617.402 635.871 621.556 633.451 624.956C631.781 626.945 629.479 628.299 626.93 628.794C624.705 629.145 622.431 629.037 620.25 628.475C616.428 627.488 612.767 625.961 609.375 623.942C605.373 621.628 601.515 619.071 597.824 616.288C592.237 612.153 587.008 607.64 581.759 603.286C577.684 599.886 573.489 596.764 569.453 593.345C568.558 592.609 567.643 591.933 566.769 591.158C563.568 588.255 562.932 586.963 563.588 584.955C563.695 584.49 563.848 584.037 564.045 583.603C564.761 582.271 566.868 582.629 569.413 584.458C576.988 589.925 584.284 596.287 591.799 602.351C597.26 606.918 602.99 611.154 608.957 615.036L608.898 615.254Z" fill="#231F20"/>
<path d="M563.509 612.73C563.485 614.734 563.066 616.713 562.277 618.555C561.78 619.615 561.108 620.583 560.289 621.418C559.851 621.866 559.356 622.253 558.817 622.571L558.002 623.068L557.147 623.446L556.71 623.625C555.15 624.231 553.419 624.231 551.859 623.625C550.413 622.949 549.196 621.864 548.36 620.504C547.758 619.499 547.284 618.424 546.948 617.303C546.367 615.359 545.994 613.36 545.835 611.338L545.298 606.169C544.843 603.866 545.079 601.48 545.974 599.31C546.451 598.455 547.564 599.31 548.698 600.065C549.831 600.821 551.024 601.735 551.064 602.749C551.183 606.447 551.72 610.444 552.097 614.161C552.221 615.157 552.575 616.11 553.131 616.945C553.246 617.124 553.398 617.277 553.576 617.393C553.754 617.51 553.955 617.587 554.165 617.621C554.349 617.661 554.538 617.661 554.722 617.621C555.477 617.621 556.471 616.428 556.71 614.579C556.925 613.07 556.864 611.534 556.531 610.046C556.113 607.643 555.169 605.362 553.768 603.366C553.241 602.694 552.559 602.162 551.779 601.815C551.645 601.741 551.495 601.701 551.342 601.696C551.293 601.671 551.238 601.658 551.183 601.658C551.128 601.658 551.073 601.671 551.024 601.696C551.021 601.636 551.021 601.576 551.024 601.517V601.238C551.032 601.186 551.032 601.132 551.024 601.079C551.024 601.079 551.024 601.258 551.024 601.278C551.111 601.509 551.254 601.714 551.441 601.875C551.262 602.054 550.487 602.392 548.757 601.875C548.34 601.775 547.922 601.735 547.545 601.636C547.231 601.568 546.934 601.438 546.671 601.254C546.408 601.07 546.184 600.835 546.014 600.562C545.818 600.214 545.703 599.825 545.679 599.425C545.655 599.026 545.722 598.626 545.875 598.256C546.012 597.863 546.199 597.488 546.431 597.143L546.809 596.566C546.991 596.364 547.184 596.172 547.386 595.99C548.283 595.101 549.466 594.559 550.726 594.459C551.889 594.351 553.061 594.521 554.145 594.956C554.957 595.272 555.719 595.7 556.412 596.228C558.459 597.842 560.083 599.93 561.144 602.312C562.677 605.524 563.492 609.032 563.529 612.591L563.509 612.73Z" fill="#231F20"/>
<path d="M566.374 650.624C565.726 652.166 564.717 653.53 563.432 654.6C562.047 655.726 560.421 656.516 558.68 656.906C557.442 657.334 556.126 657.49 554.823 657.364C553.767 657.197 552.761 656.799 551.878 656.197C550.994 655.596 550.255 654.806 549.713 653.884C548.572 651.977 547.847 649.849 547.586 647.642C547.447 646.548 547.308 645.475 547.228 644.341C547.148 643.13 547.148 641.914 547.228 640.703C547.228 639.888 547.367 639.073 547.487 638.218C547.578 637.422 547.717 636.631 547.904 635.852C548.179 634.585 548.759 633.404 549.594 632.412C550.23 631.737 551.125 632.691 552 633.725C552.874 634.759 553.829 635.892 553.71 636.866V637.363C553.644 637.419 553.59 637.486 553.55 637.562C553.174 638.396 552.951 639.292 552.894 640.206C552.75 640.89 552.879 641.603 553.252 642.194C553.57 642.572 553.988 642.592 554.465 642.81C554.972 643.109 555.561 643.239 556.147 643.182C556.733 643.125 557.286 642.883 557.726 642.492C558.161 641.926 558.36 641.214 558.282 640.504C558.17 639.048 557.615 637.66 556.692 636.528C556.277 636.073 555.768 635.713 555.201 635.474C554.895 635.312 554.567 635.198 554.226 635.136C554.087 635.136 554.028 635.136 553.928 635.136C553.829 635.136 553.928 635.355 553.928 635.037C553.91 634.865 553.91 634.692 553.928 634.52C553.936 634.401 553.936 634.281 553.928 634.162C553.971 634.27 554.039 634.365 554.127 634.44C554.127 634.54 554.246 634.54 554.366 634.639C554.483 634.775 554.616 634.895 554.763 634.997C554.763 634.997 554.763 634.997 554.644 634.997C554.497 635.078 554.334 635.126 554.167 635.136C553.579 635.301 552.966 635.362 552.358 635.315C551.96 635.315 551.562 635.315 551.185 635.315C550.881 635.322 550.58 635.26 550.304 635.132C550.028 635.005 549.785 634.816 549.594 634.58C549.383 634.3 549.228 633.983 549.137 633.645C549.038 633.166 549.038 632.672 549.137 632.194C549.265 631.718 549.445 631.258 549.674 630.822C549.998 630.282 550.4 629.793 550.866 629.371C551.465 628.915 552.138 628.565 552.855 628.337C553.502 628.163 554.174 628.096 554.843 628.138C556.676 628.301 558.423 628.991 559.873 630.126C561.351 631.338 562.638 632.765 563.69 634.361C564.68 635.849 565.5 637.442 566.135 639.113C567.758 642.779 567.908 646.93 566.553 650.703L566.374 650.624Z" fill="#231F20"/>
<path d="M699.179 741.541C698.841 734.98 698.444 728.419 697.748 722.018C697.609 720.407 697.33 718.896 697.131 717.326L696.694 715.178C696.694 714.781 696.694 714.92 696.694 714.801C696.694 714.681 696.694 714.681 696.694 714.642L696.555 714.522L696.157 714.343C695.547 714.078 694.923 713.846 694.288 713.648C692.844 713.222 691.377 712.877 689.895 712.614C683.548 711.541 677.14 710.877 670.709 710.626C664.188 710.307 657.627 710.208 651.046 710.188C641.463 710.188 631.86 710.546 622.258 710.804C588.459 711.799 554.482 713.767 520.604 716.093C505.573 717.167 490.483 718.499 475.592 719.91C456.446 721.54 437.3 723.887 418.055 724.423C416.95 724.515 415.84 724.515 414.735 724.423C414.059 724.304 413.562 724.105 413.661 723.886C414.843 723 416.198 722.37 417.637 722.038C420.103 721.222 423.602 720.228 427.896 719.194C430.024 718.678 432.35 718.141 434.835 717.683C437.32 717.226 439.944 716.888 442.787 716.57L472.073 713.429C481.855 712.455 491.656 711.679 501.458 710.904C521.074 709.353 540.77 708.094 560.546 707.126C584.224 706.073 608.818 704.343 633.113 703.826C646.453 703.548 659.814 703.488 673.254 704.184C680.066 704.446 686.846 705.243 693.533 706.57C695.33 706.955 697.087 707.508 698.782 708.22C699.159 708.419 699.815 708.677 700.352 709.015L701.982 710.089C702.052 710.128 702.111 710.182 702.156 710.247C702.201 710.313 702.23 710.388 702.241 710.466L702.42 710.924L702.738 711.838C702.978 712.389 703.165 712.962 703.295 713.548L703.851 716.192L704.209 718.737C704.468 720.447 704.587 722.117 704.786 723.807C705.581 732.058 705.979 740.249 706.337 748.46C706.694 756.671 706.973 764.862 707.211 773.053C707.927 797.885 708.225 822.757 708.802 847.43C709.259 866.576 710.054 885.344 710.79 904.232C710.969 908.387 711.168 912.462 711.347 916.657C711.645 924.411 711.764 929.521 711.565 933.119C711.58 935.642 711.142 938.147 710.273 940.515C710.051 941.298 709.786 942.068 709.478 942.822C709.04 943.657 708.325 942.523 707.49 939.68C706.434 935.422 705.768 931.077 705.502 926.698C703.096 892.899 702.539 857.112 701.664 821.326C701.028 794.764 700.591 768.023 699.179 741.541Z" fill="#231F20"/>
<path d="M504.899 955.804C491.837 955.963 478.755 955.903 465.673 955.406C452.47 955.075 439.31 953.746 426.307 951.43C421.326 950.547 416.485 949.002 411.913 946.837C411.297 946.46 410.82 946.281 409.925 945.644C409.03 945.008 408.215 944.432 407.48 943.756C407.48 942.722 407.301 941.768 407.261 940.654L407.142 938.785L406.744 931.668C405.193 898.148 404.756 864.667 404.06 831.207C403.722 816.355 403.384 801.384 403.066 786.692C402.788 777.228 402.523 767.758 402.271 758.281C402.151 753.53 402.132 748.798 402.092 744.066C402.092 741.7 402.092 739.334 402.092 736.968V729.891C402.092 724.105 402.489 724.701 403.881 729.652C404.497 732.117 405.293 735.616 406.088 739.931C406.903 744.814 407.447 749.739 407.718 754.683C409.269 793.352 409.706 831.962 410.184 870.93C410.323 882.58 410.681 894.45 411.198 906.379C411.476 912.343 411.774 918.307 412.052 924.272L412.569 933.219L412.828 937.692L412.947 939.919C412.947 940.316 412.947 940.495 412.947 940.714L413.265 940.972C413.436 941.092 413.615 941.199 413.802 941.29C414.436 941.682 415.101 942.022 415.79 942.304C416.471 942.625 417.168 942.91 417.878 943.159C418.593 943.438 419.309 943.696 420.065 943.915C423.095 944.844 426.184 945.575 429.31 946.102C435.681 947.207 442.104 947.99 448.555 948.448C461.537 949.462 474.6 949.74 487.682 949.78C503.786 949.78 519.91 949.402 535.994 948.766C560.388 947.792 584.902 946.4 609.078 944.591C627.866 943.179 646.256 941.271 664.746 939.581L676.973 938.467C692.282 937.294 697.312 937.473 700.672 939.282C701.43 939.585 702.146 939.986 702.799 940.475C703.356 941.171 702.322 941.469 699.618 942.066C695.456 942.853 691.255 943.417 687.033 943.756C653.951 947.175 618.899 950.297 583.65 952.484C557.466 954.134 531.103 955.347 504.74 955.824L504.899 955.804Z" fill="#231F20"/>
<path d="M408.855 939.56C408.855 939.56 371.08 939.858 368.198 944.331C361.259 955.167 433.667 957.234 470.488 954.272C470.488 954.312 415.555 947.075 408.855 939.56Z" fill="#231F20"/>
<path d="M566.074 766.433C562.098 766.732 558.28 766.91 554.384 766.831C552.952 766.831 551.541 766.95 550.089 766.831C548.638 766.712 547.524 766.573 546.212 766.374C544.749 766.161 543.315 765.78 541.938 765.24C540.317 764.543 538.974 763.326 538.121 761.781C537.395 760.48 536.91 759.059 536.689 757.586C536.362 755.301 536.216 752.995 536.252 750.687C536.193 747.975 536.406 745.265 536.888 742.595C537.047 741.82 538.2 741.78 539.393 742.476C540.076 742.873 540.655 743.426 541.083 744.089C541.512 744.753 541.777 745.508 541.858 746.293C541.858 749.136 541.958 751.781 542.077 754.246C542.16 755.316 542.319 756.379 542.554 757.427C542.722 758.152 543.048 758.831 543.508 759.415L543.707 759.674L543.886 759.773C543.886 759.773 543.886 759.773 544.085 759.892L544.542 760.012C545.242 760.165 545.954 760.258 546.67 760.29C548.24 760.29 549.89 760.29 551.541 760.29C555.159 760.171 558.877 760.071 562.575 759.733C564.841 759.534 567.108 759.276 569.315 758.898C570.348 758.68 571.422 758.501 572.416 758.222C573.244 758.057 574.046 757.783 574.802 757.407C575.46 756.912 575.936 756.213 576.154 755.419C576.327 753.177 575.829 750.935 574.722 748.977C574.504 748.48 574.225 748.003 574.007 747.486C573.813 747.138 573.69 746.755 573.646 746.359C573.601 745.963 573.636 745.562 573.748 745.18C574.049 744.468 574.591 743.883 575.279 743.53C575.657 743.291 575.995 743.013 576.353 742.834C577.041 742.524 577.816 742.466 578.543 742.67C579.269 742.873 579.902 743.325 580.329 743.947C581.993 746.319 583.095 749.039 583.55 751.9C583.83 753.763 583.728 755.664 583.252 757.487C582.633 759.722 581.325 761.705 579.514 763.153C579.443 763.223 579.363 763.284 579.275 763.332C578.897 763.61 578.48 763.829 578.082 764.067C577.728 764.28 577.356 764.46 576.969 764.604C576.373 764.823 575.716 765.061 575.18 765.201C574.126 765.499 573.072 765.757 572.078 765.936C570.09 766.334 568.102 766.572 566.114 766.831L566.074 766.433Z" fill="#231F20"/>
<path d="M359.345 806.355C357.357 807.826 355.25 809.317 353.202 810.848C352.466 811.405 351.83 812.101 351.075 812.638C348.391 814.626 345.647 816.435 342.804 818.165C341.571 818.98 340.378 819.855 339.205 820.729C337.795 822.001 336.155 822.993 334.374 823.652C333.797 823.811 333.281 822.817 333.102 821.664C332.957 821.1 332.951 820.509 333.082 819.942C333.214 819.374 333.479 818.847 333.857 818.403C336.667 816.062 339.643 813.929 342.764 812.021C344.677 810.768 346.468 809.337 348.112 807.747L354.077 802.955L357.814 800.013C359.683 798.502 361.651 797.11 363.481 795.559C364.892 794.347 366.105 792.895 367.457 791.583C367.737 791.273 368.043 790.987 368.371 790.728C369.624 789.794 370.26 789.893 371.433 791.146C371.692 791.424 371.97 791.702 372.209 792.001C372.594 792.427 372.825 792.97 372.864 793.543C372.904 794.117 372.75 794.687 372.427 795.162C370.408 797.745 368.031 800.027 365.369 801.941L359.405 806.494L359.345 806.355Z" fill="#231F20"/>
<path d="M757.988 822.261C755.901 819.816 753.714 817.41 751.388 815.164C750.553 814.309 749.559 813.692 748.704 812.857C745.722 809.935 742.58 807.151 739.34 804.428C737.908 803.215 736.298 802.241 734.787 801.187C732.685 799.987 730.69 798.611 728.822 797.071C728.266 796.535 728.822 795.7 729.916 795.083C730.505 794.722 731.163 794.488 731.847 794.396C732.532 794.303 733.228 794.355 733.892 794.546C738.748 796.106 743.177 798.766 746.835 802.32C749.022 804.467 751.746 806.078 754.131 808.066C756.517 810.054 759.221 812.619 761.627 815.044C763.118 816.515 764.549 818.046 765.961 819.597C768.128 821.903 770.116 824.389 772.303 826.655C773.993 828.424 775.882 829.975 777.611 831.725C778.005 832.082 778.364 832.475 778.685 832.898C778.937 833.17 779.132 833.49 779.259 833.838C779.385 834.187 779.441 834.557 779.423 834.928C779.404 835.298 779.312 835.661 779.151 835.996C778.99 836.33 778.764 836.628 778.486 836.874C778.276 837.164 778.05 837.443 777.81 837.709C777.29 838.117 776.658 838.358 775.998 838.401C775.338 838.443 774.681 838.285 774.112 837.948C770.374 835.738 767.055 832.884 764.311 829.518C762.144 827.152 759.996 824.746 757.73 822.44L757.988 822.261Z" fill="#231F20"/>
<path d="M454.244 378.226C451.866 371.17 451.238 363.641 452.416 356.288C453.594 348.935 456.541 341.979 461.003 336.018C464.16 331.648 468.072 327.878 472.554 324.884C480.608 319.777 490.146 317.529 499.633 318.502C504.246 318.912 508.781 319.948 513.113 321.584C515.258 322.379 517.361 323.281 519.415 324.288C521.463 325.327 523.454 326.475 525.38 327.727C528.836 330.012 531.921 332.815 534.525 336.038C537.074 339.269 539.143 342.852 540.668 346.674C544.67 356.463 544.62 367.44 540.529 377.192C539.237 380.155 538.541 379.34 538.283 376.536C538.283 375.821 538.283 375.005 538.124 374.071C537.965 373.137 537.945 372.083 537.905 371.029C537.865 369.975 537.766 368.763 537.786 367.55C537.806 366.337 537.666 365.065 537.786 363.752C537.851 354.525 534.509 345.599 528.402 338.682C526.889 337.009 525.232 335.473 523.451 334.089C522.556 333.393 521.582 332.797 520.648 332.101L517.546 330.332C513.345 328.057 508.868 326.333 504.226 325.202C498.579 323.812 492.679 323.819 487.036 325.222C481.393 326.625 476.177 329.382 471.839 333.254C466.946 337.506 463.161 342.884 460.81 348.925C458.458 354.965 457.61 361.487 458.339 367.928C459.147 374.997 461.819 381.724 466.081 387.422C470.343 393.119 476.042 397.582 482.595 400.354C488.256 402.747 494.342 403.971 500.488 403.953C505.151 403.917 509.756 402.908 514.007 400.99C518.178 399.03 521.963 396.337 525.181 393.038C526.59 391.582 527.918 390.049 529.157 388.445C533.809 382.481 534.863 380.294 537.11 379.499C537.557 379.252 538.022 379.04 538.501 378.862C539.774 378.405 539.933 382.342 536.851 387.809C532.159 396.423 524.699 403.204 515.677 407.054C510.931 408.975 505.867 409.993 500.746 410.056C495.721 410.086 490.716 409.417 485.875 408.068C478.556 406.017 471.839 402.232 466.292 397.034C460.754 391.831 456.571 385.354 454.104 378.167L454.244 378.226Z" fill="#231F20"/>
<path d="M642.257 354.111C645.733 360.813 647.547 368.252 647.545 375.802C647.409 383.276 645.436 390.602 641.8 397.134C639.259 401.851 635.984 406.132 632.098 409.819C625.214 416.189 616.761 420.615 607.604 422.642C598.45 424.715 588.873 423.787 580.286 419.998C576.514 418.345 572.977 416.199 569.769 413.616C566.578 410.977 563.809 407.867 561.558 404.391C558.634 400.002 556.476 395.148 555.176 390.037C553.832 384.843 553.956 379.378 555.534 374.251C556.707 371.09 557.522 372.004 558.099 374.748C558.437 376.14 558.874 377.989 559.49 380.056C560.107 382.124 560.584 384.43 561.22 386.935C562.929 396.053 567.818 404.267 575.018 410.117C582.53 415.901 591.903 418.731 601.361 418.07L603.508 417.891C604.224 417.891 604.939 417.652 605.655 417.533C607.093 417.284 608.514 416.946 609.91 416.519C612.737 415.629 615.463 414.442 618.041 412.98C623.245 410.046 627.851 406.162 631.62 401.528C633.704 399.025 635.492 396.29 636.949 393.377C641.412 384.639 642.372 374.527 639.633 365.105C639.035 363.187 638.318 361.308 637.485 359.479C637.106 358.56 636.66 357.67 636.153 356.815C635.679 355.95 635.155 355.113 634.583 354.31C632.289 351.052 629.419 348.242 626.113 346.019C621.034 342.539 615.262 340.199 609.194 339.16C603.155 338.038 596.938 338.351 591.042 340.075C586.534 341.386 582.303 343.508 578.557 346.337C574.922 349.185 571.749 352.579 569.153 356.397C568.616 357.252 568.059 358.087 567.522 358.922L566.091 361.626C562.572 368.386 561.697 370.692 559.152 371.567C558.623 371.835 558.071 372.055 557.502 372.223C556.667 372.382 556.23 371.587 556.19 369.956C556.216 367.563 556.716 365.198 557.661 362.998C558.079 361.904 558.476 360.811 558.954 359.717L560.564 356.556L561.399 354.946L562.373 353.435C563.049 352.421 563.685 351.447 564.361 350.393C567.365 346.393 570.965 342.879 575.038 339.975C583.558 334.068 593.788 331.133 604.144 331.625C611.804 332.014 619.278 334.12 626.014 337.788C632.943 341.486 638.643 347.124 642.416 354.011L642.257 354.111Z" fill="#231F20"/>
<path d="M518.839 418.906C520.186 412.679 522.261 406.634 525.022 400.893C525.937 398.905 526.652 396.777 527.567 394.75L532.537 384.113C534.227 380.594 535.897 377.075 537.468 373.536C538.88 370.375 540.072 367.134 541.146 363.893C542.381 359.696 543.841 355.568 545.52 351.527C546.077 350.275 546.971 350.672 547.687 352.064C548.673 354.051 548.987 356.305 548.582 358.486C548.145 360.75 547.534 362.977 546.753 365.146C546.037 367.313 545.261 369.48 544.426 371.607C542.756 375.862 540.907 380.037 538.84 384.113C536.355 388.984 534.366 394.292 532.199 399.362C529.642 404.784 527.482 410.386 525.738 416.122C524.704 419.389 524.379 422.839 524.784 426.242C524.915 427.257 525.415 428.189 526.189 428.859C526.962 429.53 527.955 429.893 528.979 429.88C531.552 429.891 534.09 429.277 536.374 428.091C540.071 426.211 543.43 423.732 546.315 420.755C546.971 420.138 547.548 419.462 548.164 418.766C548.918 417.879 549.787 417.096 550.749 416.44C551.451 416.089 552.256 416.004 553.015 416.202C553.424 416.236 553.83 416.302 554.228 416.4C555.481 416.719 555.6 418.786 553.93 421.212C551.402 424.711 548.279 427.739 544.705 430.158C540.912 432.898 536.571 434.784 531.981 435.685C529.825 436.092 527.605 435.983 525.499 435.367C524.252 434.963 523.096 434.315 522.1 433.462C521.104 432.609 520.286 431.568 519.694 430.397C518.74 428.475 518.243 426.359 518.243 424.214C518.199 422.416 518.332 420.618 518.64 418.846L518.839 418.906Z" fill="#231F20"/>
<path d="M558.735 369.875C554.083 364.547 546.051 362.36 539.788 366.297C536.269 368.523 539.51 374.11 543.049 371.883C547.025 369.418 551.359 371.227 554.182 374.448C557.006 377.669 561.479 372.997 558.735 369.875Z" fill="#231F20"/>
<path d="M576.018 326.793C587.271 318.841 605.581 317.867 618.306 322.579C622.819 324.229 624.747 317.032 620.294 315.382C605.9 310.073 585.004 311.266 572.26 320.352C568.403 323.115 572.121 329.597 576.038 326.793H576.018Z" fill="#231F20"/>
<path d="M501.178 365.819C509.667 366.694 519.31 366.973 527.163 370.631C530.921 372.36 534.201 366.794 530.424 365.044C521.437 360.869 510.9 360.372 501.178 359.358C497.043 358.94 497.063 365.322 501.178 365.819Z" fill="#231F20"/>
<path d="M515.257 365.561C514.648 365.575 514.053 365.75 513.532 366.067C513.012 366.385 512.585 366.835 512.295 367.371C509.571 372.5 508.318 383.852 516.529 384.23C524.74 384.608 530.307 364.985 515.257 365.561Z" fill="#231F20"/>
<path d="M576.17 375.622C582.89 376.377 590.465 376.934 596.688 379.857C600.445 381.606 603.726 376.039 599.948 374.27C592.592 370.831 584.162 370.055 576.091 369.16C571.955 368.703 571.995 375.125 576.091 375.622H576.17Z" fill="#231F20"/>
<path d="M582.791 374.786C581.559 374.786 580.982 374.408 580.405 375.501C577.701 380.631 575.912 393.057 584.064 393.395C592.215 393.733 597.841 374.289 582.791 374.786Z" fill="#231F20"/>
<path d="M548.359 460.813C548.566 461.844 548.566 462.905 548.359 463.935C548.271 464.389 548.144 464.834 547.982 465.267C547.831 465.737 547.631 466.19 547.385 466.619C547.024 467.446 546.48 468.18 545.795 468.766C545.406 469.023 544.993 469.243 544.562 469.422C544.12 469.553 543.668 469.646 543.21 469.7C542.417 469.727 541.628 469.57 540.904 469.243C539.79 468.701 538.873 467.825 538.28 466.738C537.778 465.869 537.429 464.921 537.246 463.935C537.061 463.303 537.066 462.63 537.261 462.001C537.455 461.372 537.83 460.814 538.339 460.396C538.677 460.157 539.572 460.972 540.486 461.768C541.086 462.349 541.754 462.856 542.475 463.279C542.614 463.279 542.634 463.279 542.614 463.279C542.592 463.497 542.539 463.712 542.455 463.915C542.455 463.915 542.256 464.531 542.355 464.849L542.236 464.73C542.144 464.604 542.029 464.496 541.898 464.412C541.719 464.412 542.037 464.273 542.117 463.915C542.24 463.601 542.326 463.274 542.375 462.941C542.418 462.704 542.418 462.462 542.375 462.225C542.375 462.225 542.276 461.986 542.117 461.947C542.049 461.902 541.969 461.879 541.888 461.879C541.807 461.879 541.727 461.902 541.659 461.947C541.659 461.947 541.659 462.086 541.659 462.046C541.61 461.977 541.55 461.916 541.48 461.867C541.302 461.768 541.48 461.867 541.878 461.867C542.142 461.824 542.402 461.758 542.653 461.668C542.653 461.668 542.654 461.788 542.296 462.026L540.983 463.179L540.327 463.796C539.99 464.118 539.581 464.357 539.134 464.492C538.657 464.631 537.842 464.79 537.484 464.492C537.103 464.287 536.776 463.993 536.53 463.637C536.2 463.231 535.969 462.755 535.854 462.245C535.664 461.606 535.616 460.934 535.712 460.275C535.808 459.616 536.047 458.986 536.411 458.428C536.737 457.861 537.169 457.362 537.683 456.956C538.115 456.566 538.613 456.256 539.154 456.042C540.34 455.518 541.65 455.342 542.932 455.536C544.214 455.729 545.414 456.284 546.391 457.135C547.491 458.089 548.269 459.36 548.618 460.774L548.359 460.813Z" fill="#231F20"/>
<path d="M484.856 773.889C480.144 776.494 475.432 779.118 470.76 781.842L465.69 784.864C462.688 786.574 459.606 788.244 456.684 789.973C453.761 791.703 450.719 793.572 447.856 795.421L440.103 800.391C436.784 802.61 433.205 804.413 429.446 805.759C428.253 806.137 428.134 805.342 428.75 804.208C429.714 802.668 431.038 801.386 432.607 800.471C439.307 796.494 445.888 792.081 452.926 787.985C457.161 785.54 461.396 782.836 465.63 780.291L479.687 772.04L488.395 767.03L501.636 759.555C505.036 757.566 508.256 755.578 511.577 753.59C512.312 753.153 513.028 752.695 513.763 752.278C516.567 750.747 517.621 750.568 518.734 751.244C519.003 751.374 519.256 751.534 519.489 751.721C520.145 752.338 519.33 753.57 517.402 754.882C511.656 758.739 505.473 762.437 499.131 766.056L484.955 774.008L484.856 773.889Z" fill="#231F20"/>
<g opacity="0.6">
<path d="M521.224 821.523C514.225 825.082 507.307 828.74 500.408 832.578C497.903 833.969 495.477 835.5 492.972 836.912C484.184 841.902 475.456 847.012 466.927 852.439C463.11 854.805 459.412 857.39 455.734 859.915C451.042 863.195 446.41 866.595 441.559 869.637C440.048 870.571 439.829 869.855 440.624 868.384C442 866.164 443.789 864.227 445.893 862.678C455.363 855.68 465.184 849.171 475.317 843.174C481.401 839.576 487.564 835.54 493.787 831.842C500.64 827.866 507.572 823.949 514.583 820.092C518.878 817.766 523.212 815.48 527.546 813.213C534.127 809.774 540.827 806.513 547.427 803.173C552.557 800.628 557.368 797.825 562.498 795.22C563.611 794.664 564.685 794.067 565.838 793.55C570.053 791.562 571.564 791.304 572.995 792.099C573.34 792.247 573.666 792.434 573.969 792.656C574.784 793.391 573.393 794.942 570.43 796.632C561.683 801.682 552.12 806.195 542.596 810.887C535.499 814.366 528.381 817.865 521.363 821.563L521.224 821.523Z" fill="#231F20"/>
</g>
<g opacity="0.6">
<path d="M587.048 854.726C578.857 859.22 570.685 863.733 562.574 868.345L553.746 873.495L538.02 882.342C532.712 885.244 527.383 888.028 522.115 890.871C517.423 893.376 512.751 896 508.198 898.724C502.412 902.223 496.806 906.001 491.179 909.719C489.43 910.872 489.191 910.096 490.106 908.367C491.732 905.706 493.899 903.416 496.468 901.647C502.213 897.67 508.178 893.893 514.222 890.394C520.266 886.895 526.449 883.694 532.592 880.453C539.929 876.477 547.205 871.685 554.581 867.331C562.693 862.54 570.904 857.888 579.095 853.235L594.245 844.706C601.879 840.372 609.613 836.137 617.168 831.803C623.133 828.443 628.68 824.884 634.425 821.465C635.698 820.709 636.91 819.934 638.203 819.198C642.994 816.474 644.724 815.938 646.414 816.594C646.813 816.696 647.2 816.843 647.567 817.031C648.541 817.727 646.99 819.576 643.591 821.823C633.65 828.443 622.795 834.944 611.78 841.088L587.107 854.846L587.048 854.726Z" fill="#231F20"/>
</g>
<path d="M592.967 898.168L580.82 903.655C579.348 904.331 577.937 905.146 576.466 905.822C571.277 908.188 566.087 910.554 560.958 913.039C558.672 914.133 556.465 915.385 554.298 916.638C551.586 918.39 548.764 919.964 545.848 921.35C543.999 922.165 544.377 917.891 547.518 915.783C553.116 912.179 558.986 909.015 565.074 906.319C568.772 904.749 572.35 902.661 576.028 900.852L588.156 895.067L595.611 891.508C599.369 889.699 603.166 887.929 606.805 885.981C609.608 884.43 612.252 882.68 614.996 881.11C615.612 880.792 616.209 880.434 616.845 880.116C619.191 878.982 620.066 878.863 621 879.36C621.217 879.459 621.423 879.579 621.617 879.718C622.173 880.155 621.517 881.209 620.026 882.482C615.493 886.369 610.474 889.651 605.095 892.243C601.119 894.351 597.096 896.339 593.027 898.208L592.967 898.168Z" fill="#231F20"/>
<path d="M401.078 864.487L401.257 833.83C401.257 830.112 401.078 826.394 401.098 822.656C401.098 809.534 401.396 796.413 401.316 783.311C401.316 777.485 401.038 771.64 400.779 765.875C400.561 762.197 400.362 758.479 400.163 754.781C399.992 751.057 400.138 747.326 400.6 743.627C401.018 741.281 401.435 741.639 402.589 743.428C403.225 744.363 403.98 745.715 404.855 747.405C405.703 749.225 406.272 751.161 406.545 753.15C406.923 756.948 407.141 760.745 407.36 764.543C407.579 768.34 407.758 772.157 407.778 775.955C407.877 783.569 407.778 791.184 407.539 798.858C407.221 808.004 407.718 817.507 407.798 826.871L407.917 857.707C407.917 864.049 407.917 870.372 408.076 876.694C408.215 886.277 408.295 895.9 408.732 905.383C409.11 912.759 409.925 919.976 410.621 927.253C410.8 928.863 410.959 930.414 411.118 932.024C411.595 937.989 411.277 939.977 409.309 941.349C408.935 941.704 408.529 942.024 408.096 942.303C406.843 942.959 405.114 940.613 404.477 936.219C402.527 922.738 401.464 909.143 401.296 895.522C400.998 885.223 400.958 874.885 400.859 864.566L401.078 864.487Z" fill="#231F20"/>
<path d="M573.155 750.429C572.658 750.17 573.155 749.534 574.388 748.441C574.966 747.971 575.647 747.644 576.376 747.486C576.907 747.652 577.42 747.871 577.907 748.142C578.127 748.37 578.308 748.632 578.443 748.918L578.881 749.693C579.02 750.031 579.139 750.409 579.259 750.807C579.418 751.241 579.512 751.696 579.537 752.158C579.596 752.64 579.596 753.128 579.537 753.61C579.461 754.452 579.253 755.277 578.921 756.055C578.082 757.936 576.602 759.458 574.745 760.35C572.108 761.52 569.277 762.194 566.395 762.338C565.822 762.391 565.243 762.344 564.685 762.199C562.846 761.745 560.952 761.551 559.059 761.622C558.73 761.555 558.387 761.62 558.105 761.801C556.023 762.038 553.915 761.828 551.922 761.185C550.43 760.33 548.919 759.614 547.448 758.68C547.249 758.56 546.951 758.58 546.872 758.163C546.653 757.228 546.136 757.188 545.659 756.93C544.946 756.565 544.306 756.073 543.77 755.479C543.488 755.022 543.325 754.503 543.293 753.968C543.293 753.471 544.227 752.655 544.367 752.596C544.844 752.437 545.023 751.84 545.341 751.423L545.699 750.985C546.942 750.563 548.229 750.283 549.536 750.15L550.291 750.309C550.729 750.309 551.345 750.488 551.981 750.588C552.943 750.73 553.912 750.809 554.884 750.826C555.182 750.826 555.441 751.065 555.699 751.224C555.957 751.383 559.775 751.224 559.914 751.224C560.709 751.403 561.524 751.224 562.28 751.92C562.419 752.079 562.578 752.039 562.737 752.039C564.067 752.075 565.394 752.181 566.713 752.357C567.382 752.351 568.048 752.278 568.702 752.139C568.801 752.139 568.92 752.139 569.039 752.139C569.176 752.176 569.32 752.176 569.457 752.139L571.207 751.721C571.684 751.582 571.922 751.403 571.863 751.343C571.803 751.284 571.863 751.343 572.022 751.343H572.221C572.419 751.343 572.638 751.125 572.558 751.005C572.479 750.886 572.797 750.807 572.976 750.568C573.155 750.329 573.254 750.488 573.155 750.429Z" fill="#231F20"/>
<path d="M220.435 906.836C216.041 906.657 211.648 906.498 207.254 906.398C205.643 906.398 204.053 906.577 202.443 906.517C196.776 906.358 191.11 906.08 185.444 905.961C182.919 905.961 180.394 905.961 177.909 906.199C174.704 906.657 171.451 906.657 168.246 906.199C166.258 905.762 168.783 899.579 172.362 899.34C178.848 898.863 185.36 898.863 191.846 899.34C195.827 899.434 199.81 899.295 203.775 898.923C208.188 898.784 212.622 898.724 217.055 898.664L225.247 898.565C229.382 898.565 233.537 898.565 237.653 898.346C240.854 898.147 243.975 897.63 247.176 897.352C247.872 897.352 248.548 897.153 249.263 897.153C251.908 897.153 252.723 897.75 253.24 899.877C253.374 900.354 253.48 900.839 253.558 901.328C253.609 902.15 253.355 902.961 252.845 903.607C252.335 904.252 251.605 904.687 250.794 904.828C245.187 906.377 239.394 907.153 233.577 907.134C229.203 907.253 224.789 907.134 220.376 907.134L220.435 906.836Z" fill="#231F20"/>
<path d="M874.202 899.977C877.979 900.235 881.757 900.474 885.574 900.673C886.946 900.673 888.338 900.673 889.729 900.673C894.64 900.971 899.571 901.706 904.481 902.283C906.649 902.522 908.855 902.681 911.042 902.82C913.899 902.812 916.734 903.317 919.412 904.311C920.247 904.669 919.81 906.001 918.836 907.234C918.388 907.888 917.798 908.432 917.109 908.825C916.42 909.218 915.651 909.448 914.86 909.5C909.531 909.162 904.104 909.043 898.537 908.247C895.115 908.015 891.683 907.982 888.258 908.148L876.846 907.929L869.768 907.77C866.19 907.77 862.591 907.492 859.032 907.552C856.249 907.552 853.485 908.029 850.642 908.128C850.02 908.178 849.395 908.178 848.774 908.128C847.894 908.095 847.055 907.75 846.408 907.154C845.963 906.456 845.71 905.654 845.672 904.828C845.672 904.41 845.553 904.013 845.553 903.635C845.568 902.964 845.838 902.325 846.308 901.846C846.785 901.153 847.488 900.647 848.296 900.414L850.066 899.977C850.657 899.808 851.263 899.695 851.875 899.639C853.068 899.5 854.261 899.44 855.474 899.36C857.899 899.241 860.384 899.241 862.869 899.36L874.162 899.778L874.202 899.977Z" fill="#231F20"/>
<path d="M512.849 610.523C510.464 612.889 508.018 615.215 505.434 617.461C504.479 618.276 503.604 619.151 502.591 619.907C499.045 622.73 494.937 624.764 490.542 625.871C488.58 626.274 486.581 626.467 484.578 626.448C482.002 626.45 479.466 625.807 477.202 624.579C476.506 624.201 476.904 623.565 477.759 623.088C478.784 622.528 479.959 622.306 481.118 622.452C485.485 623.075 489.939 622.497 494.002 620.782C496.617 619.56 499.026 617.936 501.139 615.97C503.644 613.982 506.03 611.616 508.356 609.27C509.801 607.812 511.232 606.341 512.651 604.856L519.132 598.077C520.782 596.287 522.273 594.399 523.943 592.629C524.301 592.232 524.659 591.834 525.057 591.456C526.508 590.084 527.244 589.925 528.277 590.562C528.518 590.693 528.75 590.839 528.973 590.999C529.649 591.576 529.49 592.649 528.595 593.723C525.931 596.944 522.929 600.065 519.907 603.326C517.601 605.731 515.295 608.177 513.008 610.602L512.849 610.523Z" fill="#231F20"/>
<path d="M599.293 614.956C602.744 617.674 606.342 620.203 610.069 622.53C611.421 623.365 612.852 624.041 614.224 624.777C616.597 626.101 619.129 627.116 621.759 627.799C622.933 628.165 624.172 628.282 625.394 628.142C626.616 628.001 627.796 627.607 628.857 626.984C630.618 625.556 631.746 623.492 631.998 621.238C632.256 618.151 632.109 615.043 631.561 611.993C631.421 610.999 632.177 610.92 633.131 611.596C634.434 612.62 635.29 614.109 635.517 615.751C636.223 619.542 635.62 623.461 633.807 626.865C632.767 628.782 631.105 630.29 629.095 631.139C627.205 631.901 625.145 632.142 623.131 631.835C618.808 631.14 614.63 629.736 610.764 627.68C606.708 625.5 602.833 623 599.174 620.204C596.907 618.534 594.7 616.785 592.513 615.035C589.213 612.391 586.012 609.588 582.791 606.904C580.266 604.816 577.682 602.927 575.157 600.939C574.6 600.482 574.043 600.084 573.487 599.607C571.498 597.877 571.061 597.082 571.498 595.849C571.561 595.571 571.647 595.298 571.757 595.034C572.174 594.219 573.447 594.418 575.037 595.531C579.769 598.832 584.342 602.728 588.954 606.546C592.394 609.389 595.853 612.252 599.432 614.896L599.293 614.956Z" fill="#231F20"/>
<path d="M764.232 694.839C761.284 699.646 758.776 704.71 756.737 709.968C755.839 712.373 755.232 714.876 754.928 717.424C754.624 719.35 754.989 721.321 755.961 723.011C756.857 724.628 758.303 725.869 760.037 726.51C761.934 726.526 763.775 725.863 765.226 724.641C766.962 723.368 768.295 721.622 769.063 719.611C769.915 717.39 770.235 715 769.998 712.632C769.903 710.946 769.462 709.298 768.703 707.79C767.944 706.281 766.882 704.945 765.584 703.865C762.697 701.747 759.223 700.58 755.643 700.525C748.466 700.452 741.351 701.867 734.748 704.68C731.304 706.011 727.95 707.565 724.708 709.332C721.463 711.097 718.347 713.091 715.383 715.297C703.137 724.134 691.885 734.274 681.823 745.536C677.409 750.49 673.568 755.925 670.372 761.74C668.838 764.584 667.612 767.583 666.713 770.686C665.862 773.669 665.592 776.787 665.918 779.872C666.404 783.72 668.128 787.307 670.829 790.091C673.467 792.915 677.043 794.682 680.889 795.061C684.987 795.484 689.123 795.323 693.176 794.584C697.371 794.007 701.606 793.113 705.94 792.496C708.663 792.099 709.916 792.298 709.916 792.675C709.916 793.053 708.624 793.669 706.516 794.664C704.409 795.658 701.407 796.87 697.629 798.202C693.177 799.894 688.473 800.828 683.712 800.966C678.489 801.135 673.353 799.599 669.079 796.592C668.017 795.798 667.032 794.906 666.137 793.928C665.215 793.007 664.389 791.994 663.672 790.906L662.578 789.276C662.28 788.699 662.002 788.083 661.703 787.486C661.112 786.289 660.658 785.028 660.351 783.729C659.174 778.714 659.401 773.473 661.008 768.579C662.428 764.025 664.433 759.675 666.972 755.636C671.881 747.923 677.643 740.786 684.15 734.363C690.532 727.992 697.298 722.016 704.409 716.47C708.683 713.169 712.938 709.889 717.63 706.748C722.366 703.707 727.363 701.092 732.561 698.934C737.827 696.665 743.358 695.068 749.023 694.182C755.082 693.073 761.336 693.88 766.916 696.489C768.45 697.344 769.873 698.386 771.151 699.59C772.469 700.86 773.588 702.321 774.471 703.924C776.171 707.015 777.079 710.478 777.115 714.004C777.236 717.53 776.492 721.032 774.948 724.204C774.547 725.014 774.081 725.792 773.557 726.53C773.052 727.3 772.465 728.013 771.807 728.657C771.164 729.324 770.465 729.936 769.719 730.486C769.018 730.998 768.288 731.469 767.533 731.898C765.912 732.876 764.127 733.55 762.264 733.886C760.155 734.215 757.996 733.91 756.061 733.011C754.354 732.15 752.828 730.969 751.568 729.532C750.992 728.902 750.454 728.238 749.957 727.544C749.378 726.746 748.892 725.886 748.506 724.979C747.257 721.618 746.974 717.975 747.691 714.462C748.251 711.308 749.144 708.222 750.355 705.256C753.289 698.327 756.835 691.674 760.952 685.375C764.928 679.112 769.024 672.85 773.477 666.925C786.964 648.816 802.91 632.676 820.855 618.971C827.804 613.725 835.202 609.101 842.963 605.153C850.73 601.143 858.927 598.028 867.397 595.869C871.244 594.896 875.182 594.33 879.147 594.179C884.823 593.758 890.472 595.294 895.152 598.533C896.236 599.274 897.151 600.237 897.836 601.357C898.521 602.478 898.962 603.731 899.128 605.034C899.243 605.858 899.243 606.695 899.128 607.519C898.77 608.513 897.597 607.897 895.768 606.585C893.133 604.661 890.127 603.307 886.941 602.608C880.618 601.256 873.342 602.469 866.304 604.457C859.095 606.639 852.095 609.46 845.388 612.887C831.695 620.104 819.113 629.257 808.031 640.065C799.53 648.114 791.604 656.751 784.312 665.911C777.024 675.123 770.381 684.829 764.431 694.958L764.232 694.839Z" fill="#231F20"/>
<path d="M359.283 662.034C359.682 666.33 359.762 670.649 359.522 674.957C359.409 679.652 358.255 684.263 356.142 688.457C354.745 691.054 352.425 693.033 349.641 694.004L348.527 694.342L347.255 694.481C346.831 694.511 346.406 694.511 345.983 694.481C345.565 694.481 345.128 694.341 344.71 694.242C343.153 693.865 341.716 693.098 340.535 692.015C338.699 690.249 337.256 688.115 336.3 685.753C335.414 683.647 334.748 681.455 334.312 679.212C333.972 677.54 333.759 675.846 333.676 674.142V672.671L333.875 671.418L334.272 668.933C334.404 668.091 334.624 667.264 334.928 666.468L335.744 664.042C336.121 663.267 336.539 662.491 336.956 661.736C337.325 660.951 337.793 660.216 338.348 659.549C340.172 657.065 342.499 654.995 345.178 653.474C347.858 651.953 350.828 651.015 353.895 650.722C359.899 650.148 365.903 651.812 370.755 655.394C371.913 656.3 373.009 657.283 374.035 658.336L375.467 659.986L376.183 660.821L376.759 661.736C378.284 664.1 379.582 666.603 380.636 669.211C382.572 674.29 384.043 679.533 385.03 684.878C386.661 694.255 387.327 703.775 387.018 713.289C386.804 719.362 386.173 725.414 385.129 731.401C384.029 737.417 382.151 743.265 379.543 748.797C377.833 752.236 377.236 751.282 377.554 748.022C377.872 744.761 378.707 739.135 379.881 732.574C382.003 720.855 382.512 708.902 381.392 697.045C380.825 691.156 379.801 685.32 378.33 679.589L377.077 675.375L375.546 671.279L373.737 667.303C373.041 666.11 372.365 664.977 371.57 663.863C369.611 661.265 367.011 659.219 364.024 657.926C361.038 656.633 357.767 656.137 354.532 656.487C351.306 656.872 348.27 658.214 345.815 660.34C343.359 662.466 341.596 665.279 340.754 668.416C340.634 668.853 340.436 669.251 340.356 669.708L340.118 671.08L339.879 672.452L339.72 673.148V673.724C339.75 675.545 340.004 677.354 340.475 679.112C340.907 680.921 341.54 682.675 342.364 684.341C343.003 685.789 344.01 687.044 345.287 687.979C345.733 688.257 346.252 688.396 346.778 688.377H347.175C347.332 688.346 347.485 688.3 347.633 688.238C347.945 688.149 348.246 688.022 348.527 687.86C349.829 687.023 350.826 685.789 351.37 684.341C352.716 680.757 353.39 676.956 353.359 673.128C353.478 668.156 353.193 663.182 352.504 658.257C351.862 653.307 350.893 648.405 349.601 643.584C347.675 636.469 343.926 629.98 338.726 624.756C336.138 622.336 332.966 620.63 329.521 619.806C326.049 619.041 322.447 619.102 319.003 619.985C313.548 621.45 308.461 624.044 304.072 627.599C299.585 631.11 295.504 635.111 291.905 639.528C290.314 641.516 288.883 643.505 287.412 645.493C284.688 649.31 283.117 651.954 281.745 653.664C280.859 655.021 279.622 656.113 278.167 656.825C277.632 657.131 277.065 657.377 276.477 657.561C274.906 657.919 275.344 653.584 278.863 647.123C284.279 637.165 291.779 628.491 300.852 621.695C305.721 618.028 311.249 615.328 317.135 613.742C323.558 611.98 330.4 612.579 336.42 615.432C340.743 617.624 344.499 620.789 347.394 624.677C350.112 628.308 352.332 632.286 353.995 636.506C355.634 640.633 356.847 644.916 357.613 649.29C358.428 653.505 359.065 657.74 359.462 662.034H359.283Z" fill="#231F20"/>
<path d="M106.056 723.091C114.537 731.301 121.891 740.601 127.926 750.746C130.59 755.12 137.489 751.124 134.805 746.77C128.416 736.03 120.642 726.177 111.683 717.464C107.945 713.985 102.299 719.592 106.056 723.091Z" fill="#231F20"/>
<path d="M125.203 733.729C128.582 731.462 131.167 728.082 134.686 726.074C139.14 723.549 135.143 716.69 130.71 719.215C127.111 721.203 124.626 724.603 121.226 726.869C120.336 727.422 119.692 728.295 119.425 729.308C119.159 730.321 119.291 731.398 119.795 732.317C120.06 732.768 120.411 733.162 120.828 733.477C121.245 733.792 121.72 734.021 122.226 734.152C122.732 734.283 123.259 734.313 123.776 734.241C124.294 734.168 124.792 733.994 125.242 733.729H125.203Z" fill="#231F20"/>
<path d="M119.859 710.067C127.315 719.869 135.764 728.974 142.882 738.975C145.844 743.09 152.823 739.134 149.741 734.999C142.544 725.058 134.194 715.892 126.718 706.091C123.676 702.115 116.777 706.091 119.859 710.067Z" fill="#231F20"/>
<path d="M142.602 702.553C146.459 709.452 151.052 715.874 154.233 723.15C156.221 727.822 163.14 723.786 161.112 719.174C157.931 711.897 153.338 705.476 149.461 698.577C146.956 694.103 140.097 698.119 142.602 702.553Z" fill="#231F20"/>
<path d="M135.501 704.045C141.624 700.466 148.841 699.233 155.124 695.993C159.677 693.627 155.661 686.768 151.147 689.114C144.865 692.374 137.668 693.587 131.524 697.186C127.111 699.77 131.107 706.649 135.501 704.045Z" fill="#231F20"/>
<path d="M178.28 705.815C172.952 697.107 170.148 687.445 167.981 677.524L164.144 682.554C169.114 682.295 174.502 688.041 178.28 690.805C181.023 692.793 183.906 689.99 184.244 687.365C185.119 680.884 185.278 674.243 187.962 668.18L180.666 667.185C184.821 677.126 188.797 687.067 192.594 697.127C194.364 701.899 202.058 699.831 200.269 695.02C196.531 684.96 192.555 674.979 188.34 665.078C187.207 662.374 182.634 660.605 181.083 664.124C177.763 671.619 177.345 679.313 176.272 687.325L182.236 683.886C176.988 680.069 171.063 674.204 164.084 674.561C163.47 674.56 162.863 674.701 162.313 674.974C161.762 675.246 161.282 675.643 160.91 676.132C160.538 676.621 160.285 677.19 160.17 677.794C160.055 678.398 160.081 679.02 160.247 679.611C162.231 690.224 165.988 700.427 171.361 709.791C174.025 714.146 180.904 710.149 178.22 705.815H178.28Z" fill="#231F20"/>
<path d="M198.564 656.11C201.348 663.565 198.226 674.977 204.926 680.743C208.505 683.844 213.038 682.731 216.716 680.445C221.487 677.122 226.49 674.145 231.687 671.538C236.359 669.45 232.323 662.591 227.71 664.659C223.516 666.439 219.518 668.651 215.782 671.259C213.575 672.89 210.354 676.508 209.081 672.532C207.093 666.567 208.386 659.927 206.179 654.002C204.529 649.29 196.834 651.278 198.564 656.11Z" fill="#231F20"/>
<g opacity="0.6">
<path d="M241.273 499.783C239.98 497.676 238.768 495.529 237.634 493.282C237.167 492.47 236.742 491.634 236.362 490.777C235.975 489.868 235.746 488.9 235.686 487.914C235.624 486.874 235.801 485.833 236.203 484.872C236.982 483.221 238.157 481.787 239.623 480.697C240.796 479.783 241.969 478.948 243.122 478.152C244.513 477.075 246.037 476.18 247.655 475.488C248.152 475.309 248.569 476.005 248.629 476.939C248.678 477.444 248.603 477.953 248.408 478.421C248.214 478.889 247.908 479.302 247.516 479.623C244.753 481.216 242.224 483.183 240 485.469C239.559 486.032 239.359 486.747 239.444 487.457C239.473 487.835 239.567 488.205 239.722 488.55C239.901 489.008 240.1 489.445 240.318 489.922C241.34 492.058 242.468 494.142 243.698 496.165C244.454 497.417 245.229 498.69 246.064 499.903C246.7 500.817 247.337 501.752 248.052 502.626C248.39 503.064 248.728 503.521 249.086 503.919L249.583 504.495L249.961 504.853C250.127 505.018 250.344 505.123 250.577 505.151C250.806 505.081 251.013 504.951 251.174 504.774C251.353 504.575 252.168 503.879 252.724 503.322L253.56 502.547C254.633 501.632 255.289 501.513 256.144 502.269C256.347 502.422 256.528 502.602 256.681 502.805C256.914 503.136 257.023 503.538 256.991 503.941C256.958 504.344 256.785 504.723 256.502 505.012C255.998 505.625 255.46 506.209 254.892 506.762C254.573 507.06 254.275 507.338 253.937 507.617L253.659 507.835L253.202 508.153C252.864 508.352 252.546 508.591 252.208 508.75C251.555 509.102 250.822 509.28 250.08 509.267C249.402 509.011 248.739 508.719 248.092 508.392L247.257 507.617C247.018 507.378 246.641 507.04 246.541 506.921L245.667 505.907C244.094 503.943 242.634 501.892 241.293 499.763L241.273 499.783Z" fill="#231F20"/>
</g>
<g opacity="0.6">
<path d="M264.65 472.108L268.149 478.311C268.586 479.066 269.123 479.742 269.541 480.498C270.316 481.83 271.012 483.201 271.748 484.474L272.821 486.462L274.471 489.305C274.61 489.583 274.869 489.862 274.829 490.1C273.451 490.914 272.123 491.811 270.853 492.784C269.561 493.858 268.328 495.071 267.075 495.945C266.718 496.184 266.042 495.747 265.723 494.852C265.547 494.353 265.505 493.816 265.603 493.296C265.701 492.776 265.934 492.29 266.28 491.89C267.076 491.111 267.912 490.374 268.785 489.683L269.441 489.186C269.58 489.086 269.441 489.186 269.541 489.186H269.7C269.7 489.186 269.7 489.186 269.7 489.027C269.7 488.868 269.7 489.027 269.7 488.868L269.441 488.39L268.944 487.416C267.97 485.428 266.539 483.778 265.405 481.929L261.668 475.766L259.341 471.988L258.467 470.557L258.029 469.841L257.751 469.384C257.609 469.098 257.443 468.826 257.254 468.569C257.015 468.449 256.657 468.688 256.359 468.748C256.061 468.807 255.127 469.284 254.371 469.662C253.616 470.04 252.94 470.477 252.264 470.895L251.429 471.471C250.395 472.127 250.037 471.869 248.983 471.054L248.327 470.616C248.151 470.481 248.009 470.306 247.913 470.106C247.816 469.905 247.767 469.686 247.77 469.463C247.755 469.162 247.803 468.861 247.913 468.58C248.023 468.299 248.191 468.044 248.407 467.833C249.715 466.638 251.213 465.671 252.84 464.97L254.013 464.473H254.311L254.828 464.314C255.186 464.215 255.524 464.115 255.922 464.036L258.149 463.519L258.705 463.399C258.884 463.399 258.964 463.638 259.103 463.737L259.819 464.592C260.551 465.475 261.216 466.412 261.807 467.396L262.761 468.946L264.63 472.028L264.65 472.108Z" fill="#231F20"/>
</g>
<g opacity="0.6">
<path d="M896.034 746.074C896.183 744.678 896.408 743.291 896.71 741.919C896.909 741.024 897.227 740.169 897.466 739.314L897.863 738.062C897.863 737.863 897.863 737.585 898.102 737.485L898.758 737.585C899.394 737.704 900.01 737.764 900.627 737.823C901.3 737.917 901.965 738.064 902.615 738.261L903.49 738.499L904.205 738.718L905.18 739.056L907.168 739.732L911.144 741.044C912.304 741.406 913.486 741.692 914.683 741.899C916.23 742.099 917.734 742.548 919.136 743.231C919.574 743.49 919.315 744.344 918.719 745.219C918.463 745.648 918.11 746.012 917.689 746.281C917.268 746.55 916.79 746.717 916.293 746.77C915.498 746.77 914.703 746.631 913.927 746.512C913.152 746.392 912.397 746.194 911.621 745.995C910.072 745.628 908.561 745.116 907.108 744.464C906.214 744.098 905.289 743.812 904.345 743.609L903.629 743.47L903.072 743.331L902.595 743.112L902.018 742.893C901.879 742.893 901.879 742.893 901.84 743.012L901.72 743.271C901.626 743.461 901.552 743.661 901.502 743.867L901.402 744.245C901.402 744.404 901.402 744.722 901.402 744.941C901.235 746.187 901.149 747.442 901.144 748.699C901.091 750.657 901.178 752.617 901.402 754.564C901.685 756.078 902.043 757.578 902.476 759.057C902.583 759.389 902.669 759.728 902.734 760.071C902.933 761.343 902.595 761.8 901.263 762.059C900.963 762.151 900.657 762.224 900.348 762.278C899.895 762.387 899.417 762.333 898.999 762.126C898.581 761.919 898.25 761.571 898.062 761.144C897.01 758.495 896.379 755.698 896.193 752.854C896.01 750.599 895.977 748.334 896.094 746.074H896.034Z" fill="#231F20"/>
</g>
<g opacity="0.6">
<path d="M944.897 769.852L945.096 771.383V771.761L945.196 772.417L945.454 773.788L945.693 775.14C945.693 775.578 945.693 775.956 945.693 776.353V777.546V778.123V778.262H945.534H945.215C944.02 778.585 942.805 778.831 941.577 778.997C941.014 779.027 940.45 779.027 939.887 778.997C939.378 779.034 938.866 779.034 938.356 778.997C937.661 778.997 936.965 778.819 936.368 778.699C934.996 778.461 933.664 778.182 932.392 777.884C931.12 777.586 930.026 777.447 928.833 777.248C927.219 777.168 925.657 776.645 924.32 775.737C923.883 775.379 924.479 774.405 925.254 773.51C926.03 772.616 926.944 771.761 927.68 771.92L931.756 772.715C933.128 773.053 934.519 773.431 935.931 773.868C936.768 774.124 937.64 774.245 938.515 774.226H939.589C939.793 774.255 940.001 774.255 940.205 774.226C940.305 774.226 940.205 773.948 940.205 773.769C940.205 773.59 940.205 773.391 940.205 773.192L940.007 772.178L939.35 768.46C938.993 766.591 938.694 764.683 938.197 762.854C937.739 761.45 937.194 760.075 936.567 758.738C936.425 758.452 936.312 758.152 936.229 757.844C936.142 757.624 936.109 757.386 936.133 757.151C936.157 756.915 936.238 756.689 936.368 756.492C936.68 756.117 937.085 755.829 937.541 755.657C937.78 755.657 938.018 755.418 938.237 755.338C938.679 755.218 939.145 755.223 939.584 755.353C940.023 755.483 940.417 755.733 940.722 756.074C942.245 758.387 943.305 760.973 943.844 763.689C944.301 765.677 944.599 767.665 944.977 769.772L944.897 769.852Z" fill="#231F20"/>
</g>
<g opacity="0.6">
<path d="M927.261 754.664L919.765 761.125C918.871 761.94 918.016 762.815 917.081 763.61C913.74 766.381 910.228 768.937 906.564 771.265C904.934 772.279 903.343 773.392 901.713 774.406C900.659 775.022 899.725 775.738 898.552 776.394C897.449 776.972 896.272 777.394 895.053 777.647C894.297 777.825 894.019 776.891 894.178 775.658C894.225 775.004 894.416 774.368 894.74 773.797C895.063 773.226 895.51 772.735 896.047 772.358C900.142 770.131 903.999 767.646 908.155 765.062C910.571 763.354 912.833 761.438 914.914 759.336L922.251 752.675L926.863 748.56C929.229 746.572 931.734 744.584 934.179 742.595C935.154 741.86 936.048 741.025 936.963 740.23L939.786 737.903C940.2 737.557 940.631 737.232 941.078 736.929C942.788 735.856 943.524 735.856 944.558 736.929C944.805 737.159 945.037 737.405 945.253 737.665C945.568 738.156 945.679 738.749 945.564 739.32C945.449 739.892 945.117 740.396 944.637 740.727C941.536 743.47 938.136 745.916 934.696 748.679C932.191 750.654 929.706 752.735 927.241 754.922L927.261 754.664Z" fill="#231F20"/>
</g>
<path d="M839.364 537.139C843.838 543.759 845.189 551.752 848.569 559.009C850.06 562.17 854.792 559.406 853.281 556.245C849.881 549.048 848.589 541.155 844.076 534.475C842.088 531.572 837.376 534.316 839.364 537.238V537.139Z" fill="#231F20"/>
<path d="M836.955 554.436C842.105 549.764 848.884 545.788 855.942 545.191C859.422 544.893 859.461 539.425 855.942 539.724C847.351 540.772 839.33 544.573 833.079 550.559C830.474 552.925 834.351 556.782 837.055 554.535L836.955 554.436Z" fill="#231F20"/>
<path d="M199.52 792.815C195.006 799.475 193.694 807.388 190.314 814.565C188.803 817.726 193.515 820.529 195.026 817.329C198.406 810.171 199.758 802.199 204.231 795.558C206.22 792.656 201.468 789.912 199.52 792.815Z" fill="#231F20"/>
<path d="M210.492 809C204.246 803.002 196.223 799.193 187.628 798.145C184.109 797.846 184.129 803.314 187.628 803.612C194.666 804.228 201.545 808.205 206.615 812.857C209.219 815.223 213.096 811.366 210.591 809H210.492Z" fill="#231F20"/>
<path d="M213.572 902.483C216.335 902.622 219.139 902.701 221.942 902.662C222.956 902.662 223.93 902.383 224.984 902.383C228.582 902.383 232.221 902.264 235.799 901.886C237.38 901.702 238.938 901.362 240.452 900.872C242.186 900.058 244.038 899.522 245.939 899.282C246.496 899.282 247.331 900.852 247.529 902.662C247.728 904.471 247.072 906.638 245.82 906.956C241.52 908.358 236.992 908.925 232.479 908.626C229.819 908.677 227.164 908.876 224.527 909.222C221.604 909.382 218.562 909.382 215.739 909.342C213.93 909.342 212.12 909.223 210.311 909.183C207.587 909.083 204.844 908.805 202.1 908.686C199.973 908.566 197.846 908.845 195.599 908.686C195.109 908.716 194.618 908.716 194.128 908.686C192.259 908.248 191.802 907.612 192.14 905.763C192.19 905.342 192.263 904.924 192.358 904.511C192.486 903.899 192.795 903.34 193.246 902.907C193.696 902.475 194.267 902.188 194.883 902.085C198.371 901.837 201.873 901.837 205.361 902.085L209.476 902.264H213.631L213.572 902.483Z" fill="#231F20"/>
<path d="M881.2 911.11C878.676 911.25 876.051 911.488 873.387 911.766C872.433 911.866 871.399 912.164 870.484 912.224C866.931 912.492 863.362 912.492 859.808 912.224C858.217 912.224 856.587 912.025 854.957 912.045C853.903 911.925 852.83 911.886 851.776 911.727C850.703 911.492 849.694 911.031 848.814 910.375C848.257 909.957 849.052 908.387 850.126 906.975C851.199 905.563 852.452 904.192 853.267 904.43C856.329 905.066 859.669 905.345 863.466 905.921C865.803 906.028 868.143 905.821 870.425 905.305L878.377 904.41C880.047 904.231 881.717 904.092 883.407 903.973C885.952 903.754 888.576 903.854 891.181 903.814C892.195 903.814 893.169 903.814 894.263 903.814C895.325 903.781 896.388 903.828 897.444 903.953C897.915 903.949 898.384 904.016 898.835 904.152C900.545 904.669 900.943 905.305 900.525 907.114C900.426 907.512 900.346 907.929 900.207 908.327C900.055 908.913 899.735 909.442 899.287 909.848C898.838 910.254 898.28 910.52 897.682 910.613C894.541 910.971 891.817 910.752 888.596 910.852C886.25 910.852 883.785 911.011 881.24 911.329L881.2 911.11Z" fill="#231F20"/>
</svg>
