<svg width="576" height="1200" viewBox="0 0 576 1200" fill="none" xmlns="http://www.w3.org/2000/svg">
<g clip-path="url(#clip0_2259_1295)">
<path d="M326.826 521.31C327.347 548.491 328.206 575.649 328.049 602.876C327.893 630.104 327.455 657.215 325.358 683.962C324.008 703.787 323.814 723.6 322.042 743.25C317.295 777.935 314.043 812.587 306.538 846.78C302.966 864.035 300.552 881.279 295.998 898.124L282.958 948.754C279.363 963.696 273.804 977.821 269.648 992.529C265.491 1007.24 261.756 1022.12 255.776 1036.07C248.127 1054.42 241.938 1073.22 233.728 1091.33C225.518 1109.45 214.339 1126 203.581 1142.72C196.806 1153.05 192.469 1148.45 191.485 1136.2C190.439 1118.29 193.409 1100.37 200.178 1083.76C212.123 1046.81 227.655 1011.52 237.859 974.017L246.546 946.07L253.574 917.761C258.384 898.721 264.514 880.067 268.342 860.617C278.318 813.373 284.445 765.396 286.665 717.157C288.224 690.514 290.461 663.825 290.618 636.597L290.9 596.433L290.026 556.28C289.784 523.296 286.633 490.579 284.159 457.816C281.209 432.91 278.398 408.062 274.992 383.46C271.585 358.857 267.419 334.102 261.127 310.105C252.116 273.332 240.741 237.177 227.073 201.863C224.08 194.039 220.911 186.635 218.117 178.728C207.207 150.012 205.815 140.717 210.673 130.247C211.294 127.941 212.217 125.727 213.418 123.663C217.331 118.225 228.084 127.968 240.638 148C276.784 209.762 295.907 282.349 309.246 354.991C318.727 409.171 324.949 463.869 327.877 518.788L326.826 521.31Z" fill="#231F20"/>
<path d="M142.907 133.565C145.107 122.502 148.328 111.67 152.53 101.206C157.499 87.8907 166.134 76.256 177.442 67.6376C181.197 65.465 185.087 63.5307 189.087 61.8464C193.199 60.6094 197.414 59.7362 201.681 59.2368C205.569 58.9393 209.479 59.1112 213.328 59.7488C216.908 59.9319 220.437 60.6956 223.775 62.01C226.957 62.8955 230.085 63.9658 233.143 65.2154L240.995 69.8098C246.115 72.356 251.056 75.247 255.784 78.4628C268.108 87.4244 280.584 96.1253 291.48 105.126C331.208 138.204 367.916 174.74 401.17 214.3C416.378 231.819 430.451 250.287 443.305 269.591C461.121 294.188 472.252 322.96 475.609 353.094C476.352 362.632 469.482 361.764 461.531 355.536C456.916 351.987 452.777 347.859 449.218 343.254C444.558 338.007 440.662 332.132 437.644 325.803C410.891 276.949 377.311 232.13 337.918 192.697C312.848 167.721 285.694 144.922 256.752 124.547C243.5 113.197 228.527 104.023 212.397 97.3692C210.002 96.5202 207.434 96.2849 204.929 96.6849C202.423 97.0848 200.06 98.1072 198.057 99.6582C192.825 104.859 189.039 111.33 187.069 118.439C179.967 140.498 175.62 163.357 174.126 186.496C170.501 222.715 168.785 259.876 166.545 296.731C166.044 325.922 163.124 355.014 157.815 383.71C156.348 390.404 154.381 396.977 151.93 403.375C149.699 408.637 146.801 413.59 143.307 418.113C141.038 421.581 138.099 424.563 134.661 426.884C132.441 428.664 129.761 429.781 126.929 430.106C124.098 430.431 121.229 429.951 118.653 428.722C116.433 427.841 114.358 426.628 112.502 425.123C111.167 423.723 110.216 422.004 109.742 420.131C109.268 418.258 109.286 416.297 109.796 414.436C110.901 409.393 112.537 404.482 114.679 399.786C118.61 389.658 121.363 379.11 122.884 368.348C124.976 356.967 126.097 344.843 127.371 332.458C129.242 307.642 130.371 281.692 131.599 255.275C132.523 214.516 136.118 173.87 142.362 133.596L142.907 133.565Z" fill="#231F20"/>
</g>
<defs>
<clipPath id="clip0_2259_1295">
<rect width="576" height="1200" fill="white"/>
</clipPath>
</defs>
</svg>
