<svg width="128" height="128" viewBox="0 0 128 128" fill="none" xmlns="http://www.w3.org/2000/svg">
<path d="M22.1601 68.32L20.7901 66.86L20.0801 66.1C19.8401 65.83 19.6301 65.56 19.4001 65.29L15.8301 60.98L17.0601 59.58C17.2701 59.34 17.4301 59.11 17.5801 58.88L17.8301 58.48C17.9801 58.24 18.1301 57.98 18.2701 57.71L18.4801 57.31L18.8301 56.56L22.7301 53.18L27.2701 49.11C32.6901 44.41 38.1401 39.75 43.5301 35.02C45.9201 32.92 48.2501 30.73 50.5301 28.55C53.4601 25.74 56.2601 22.79 59.5001 20.33C60.7401 19.79 60.7301 20.02 60.4801 21.3C60.2201 22.57 59.2901 24.46 57.6701 26.16C51.7201 31.97 45.5601 37.52 39.1201 42.87C35.2601 46.06 31.4901 49.64 27.6501 53.02L21.4101 58.46L21.0601 59.14C20.9001 59.45 20.7301 59.75 20.5401 60.06L20.2701 60.48L20.1401 60.66C20.0601 60.77 19.9701 60.87 19.8601 60.97C19.9301 61.09 20.0201 61.2 20.1201 61.33L20.5601 61.88L21.8801 63.55C22.1401 63.9 22.4001 64.16 22.7101 64.48L23.6101 65.42L25.4001 67.3L28.9901 71.05C32.6201 74.83 36.2201 78.67 39.8701 82.38C42.7001 85.27 45.6101 87.97 48.4601 90.79C49.0901 91.41 49.7201 92 50.3401 92.64C52.6301 95.04 53.1801 95.98 53.0001 97.13C52.9501 97.39 52.9101 97.66 52.8001 97.82C52.6001 98.09 52.1701 98.01 51.7201 97.82C51.1901 97.56 50.4501 96.98 49.5701 96.17C44.3501 91.34 39.0401 85.99 33.7801 80.57C29.9001 76.51 26.0001 72.44 22.1201 68.37L22.1701 68.31L22.1601 68.32Z" fill="#231F20"/>
<path d="M68.6898 19.63C67.9398 17.91 66.6998 17 65.5798 16.71C63.4898 16.16 61.3598 17.64 60.7798 18.48C60.7798 18.48 61.0998 15.17 64.1398 14C67.1798 12.83 71.1198 16.82 71.1198 16.82L72.4498 18.67L68.6898 19.63Z" fill="#231F20"/>
<path d="M20.3102 64.62C17.9502 64.08 16.6802 63.13 16.6802 61.3C16.6802 59.47 17.4002 57.88 19.7502 57.3C24.5402 56.13 24.7302 65.64 20.3002 64.62H20.3102Z" fill="#231F20"/>
<path d="M92.4199 38.71C91.5599 39.49 90.6899 40.27 89.8499 41.07C89.5399 41.36 89.2699 41.69 88.9599 41.98C87.8599 43 86.7599 44.01 85.6799 45.06C85.1999 45.52 84.7599 46.02 84.3299 46.52C83.7999 47.18 83.2199 47.8 82.4899 48.28C82.1899 48.36 82.1499 48.28 82.0799 47.91C82.0199 47.55 82.0499 47.03 82.3099 46.61C82.5299 46.23 82.8199 45.9 83.1099 45.58L83.9899 44.62C84.5899 43.99 85.2099 43.38 85.8699 42.81C86.6599 42.12 87.3299 41.26 88.0699 40.49L90.5499 37.98L92.0899 36.45C92.8599 35.67 93.6599 34.91 94.3899 34.11C94.9599 33.49 95.4299 32.79 95.9499 32.12C96.0599 31.97 96.1599 31.81 96.2799 31.67C96.7599 31.17 97.0599 31.17 97.5299 31.43C97.6399 31.49 97.7499 31.54 97.8399 31.61C98.1399 31.82 98.2199 32.3 97.9799 32.77C97.2299 34.12 96.0999 35.2 94.9899 36.31C94.1399 37.12 93.2899 37.93 92.4499 38.73L92.4199 38.7V38.71Z" fill="#231F20"/>
<path d="M53.26 102.99C51.1 101.16 54.25 97.81 55.95 97.81C55.95 97.81 51.61 95.4601 48.51 99.0501C45.41 102.64 47.33 102.99 47.33 102.99H53.26Z" fill="#231F20"/>
<path d="M41.5901 113.62C39.5201 113.37 40.5001 110.19 41.4101 108.77C43.9501 104.79 49.0201 104.23 49.9701 104.23C49.9701 104.23 40.7201 103.26 38.4501 104.76C36.1801 106.26 33.5801 109.27 32.7901 111.46C32.0001 113.65 33.3201 113.63 33.3201 113.63H41.6001L41.5901 113.62Z" fill="#231F20"/>
<path d="M79.5 47.09C74.62 48.17 69.54 43.03 68.13 36.46C66.38 28.33 70.31 19.27 74.91 16.71C74.91 16.71 64.46 20.72 63.58 29.59C63.06 34.83 65.03 42.32 66.02 44.65C67.01 46.98 71.5 54.3 71.5 54.3L75.07 51.81L79.5 47.1V47.09Z" fill="#231F20"/>
<path d="M61.0298 114.66L51.5298 114.75C50.3698 114.77 49.2198 114.85 48.0598 114.86L35.8198 114.89C34.0098 114.92 32.1898 114.95 30.3898 114.98L28.6598 115.02C28.0798 115.02 27.4998 115 26.9198 114.97L26.0498 114.92L25.1798 114.77C24.5998 114.67 24.0298 114.57 23.4498 114.47C22.7298 114.33 22.8298 114.29 23.4298 114.06C23.7298 113.94 24.1598 113.77 24.6798 113.54C24.9598 113.42 25.2398 113.31 25.5198 113.19C25.6698 113.12 25.8198 113.09 25.9798 113C26.1398 112.98 26.2998 112.95 26.4698 112.93C31.1598 112.31 35.8498 112.54 40.5998 112.69C43.4398 112.81 46.3898 112.62 49.2898 112.58L58.8698 112.49L64.7698 112.46C67.7498 112.45 70.7398 112.43 73.6998 112.42C75.9998 112.39 78.2498 112.26 80.5298 112.21C81.0298 112.2 81.5198 112.16 82.0298 112.17C82.9698 112.17 83.5798 112.23 84.0198 112.35C84.4498 112.5 84.6998 112.67 84.8898 112.91C84.9798 113.02 85.0998 113.12 85.1498 113.21C85.2398 113.37 85.0898 113.52 84.7398 113.67C84.3998 113.82 83.8598 114 83.1798 114.04C79.1298 114.35 74.8698 114.43 70.5898 114.52C67.4098 114.58 64.2098 114.65 61.0198 114.71V114.66H61.0298Z" fill="#231F20"/>
<path d="M98.6599 43.7299C98.1599 44.5799 97.5999 45.3799 96.9099 46.0799C96.5899 46.4399 96.1799 46.7499 95.8199 47.0799C95.4299 47.3699 95.0299 47.6499 94.6299 47.8999C94.0299 48.2399 93.4599 48.6399 92.8199 48.8699C91.6999 49.2799 90.5599 49.5599 89.4099 49.6899C88.2699 49.8499 87.1299 49.8799 86.0099 49.8299C85.0099 49.7999 84.0099 49.7299 83.0199 49.5999C82.3899 49.4799 81.7499 49.3799 81.1299 49.1599C80.5199 48.9299 79.9399 48.5399 79.5499 47.9399C79.2999 47.5899 79.3999 47.5499 79.8399 47.4299C80.0599 47.3599 80.3599 47.2599 80.6999 47.0899C81.0399 46.9499 81.3499 46.8899 81.6599 46.8899C83.7799 47.2299 85.9999 47.3999 88.2899 47.3099C89.6699 47.2599 91.0099 46.6799 92.1999 46.0699C93.5399 45.4199 94.6399 44.4899 95.4899 43.2599C95.9999 42.4999 96.4199 41.6599 96.6999 40.7599C97.1099 39.3899 97.3399 37.9099 97.2299 36.4499C97.1399 35.3099 96.7299 34.2399 96.3699 33.1999L96.0999 32.5199C95.9399 32.0999 95.9299 31.7899 96.0499 31.5299C96.1399 31.2699 96.3799 31.0599 96.6999 30.8299C96.8399 30.7299 96.9699 30.6099 97.0899 30.5399C97.4499 30.2999 98.2399 30.4399 98.7699 31.0899C100.07 33.0999 100.53 35.6499 100.33 38.1899C100.19 40.0799 99.6599 41.9999 98.7499 43.7599L98.6799 43.7299H98.6599Z" fill="#231F20"/>
<path d="M58.5198 18.09C58.6198 17.2 58.9598 16.31 59.3898 15.52C59.8698 14.76 60.4798 14.03 61.2398 13.51C61.7698 13.11 62.3298 12.75 62.9398 12.54C65.1498 11.9 67.2498 12.44 68.9798 13.37C69.7598 13.78 70.4698 14.34 71.1198 14.96C71.3198 15.18 71.4898 15.42 71.6598 15.66C71.8098 15.92 71.9298 16.2 72.0498 16.47C72.1898 17.07 72.1398 17.7 71.9698 18.24C71.8598 18.59 71.6398 18.5 71.2498 18.29C71.0598 18.18 70.8098 18.05 70.5498 17.93C70.2798 17.81 69.9498 17.74 69.7698 17.64C69.6198 17.55 69.4898 17.45 69.3698 17.37C69.2598 17.28 69.0698 17.23 68.9698 17.14C68.7298 16.96 68.4898 16.79 68.1998 16.63C67.6398 16.32 67.0498 15.9 66.3398 15.6C65.4698 15.23 64.5098 15.52 63.7798 15.79C63.3398 15.93 62.9898 16.2 62.6498 16.51C62.3298 16.86 62.0398 17.26 61.8798 17.73C61.6498 18.3 61.5698 18.98 61.6498 19.67C61.7598 20.71 62.1098 21.82 62.7598 22.74C63.2698 23.45 63.9898 23.96 64.6798 24.39L65.1498 24.65C65.6398 25.08 65.6998 25.33 65.5198 26.05C65.4798 26.21 65.4498 26.38 65.3998 26.53C65.2498 27.03 64.7398 27.31 64.0098 27.18C63.7598 27.11 63.4798 27.07 63.2498 26.95C63.0198 26.84 62.7898 26.71 62.5698 26.58C62.1298 26.3 61.6998 25.99 61.3298 25.62C60.5598 24.9 59.9298 24.03 59.4398 23.06C58.7098 21.63 58.2798 19.93 58.4598 18.09H58.5398H58.5198Z" fill="#231F20"/>
<path d="M23.4302 67.46C22.2102 67.69 21.0702 67.5 20.0902 67.2C19.6102 67.01 19.1602 66.88 18.6902 66.59C18.2302 66.32 17.7702 66.09 17.3702 65.7C16.7602 65.21 16.1902 64.61 15.8102 63.91C15.1302 62.65 15.0202 61.2 15.2502 59.92C15.5002 58.63 16.0702 57.41 16.9902 56.5C17.8202 55.72 18.7802 55.03 19.8902 54.72C20.2302 54.57 20.5902 54.57 20.9502 54.49C21.1302 54.46 21.3102 54.42 21.4902 54.42L22.0202 54.45C22.7502 54.42 23.4002 54.81 23.8802 55.39C23.9702 55.73 23.9902 55.91 23.9602 55.99C23.9202 56.08 23.8002 56.13 23.5402 56.43C23.0402 56.98 22.3402 57.71 21.9302 57.84C21.1302 57.8 20.5202 57.96 19.9702 58.3C19.4402 58.64 18.8802 59.14 18.4502 59.88C18.2902 60.09 18.2802 60.35 18.2002 60.6C18.2002 60.85 18.1802 61.11 18.2202 61.36C18.3002 61.6 18.3002 61.87 18.4502 62.07C18.5102 62.18 18.5602 62.29 18.6002 62.41C18.6602 62.52 18.7502 62.61 18.8102 62.71C19.0902 63.19 19.5702 63.54 20.1002 63.86C20.6602 64.16 21.3302 64.42 21.9202 64.45C22.6602 64.52 23.3202 64.3 23.8702 63.84C24.6902 63.12 25.1602 61.78 25.0302 60.5C24.9502 59.5 24.3802 58.68 23.7402 58.06C23.6002 57.92 23.4302 57.82 23.2902 57.69C22.7502 57.21 22.7802 57.04 23.1402 56.14C23.1902 55.95 23.2902 55.73 23.1702 55.55C23.0802 55.4 22.9502 55.26 23.2102 55.07C23.2702 55.03 23.3802 55 23.4502 54.99C23.4802 54.96 23.5302 54.94 23.5702 54.91C23.6602 54.86 23.8002 54.84 23.8802 54.8C24.3002 54.67 24.7002 54.76 25.1102 54.98C26.3002 55.65 27.2602 56.75 27.8102 58.13C28.3602 59.53 28.4302 61 28.1602 62.46C27.9402 63.54 27.4802 64.65 26.6702 65.6C25.8802 66.55 24.6902 67.29 23.4502 67.55L23.4302 67.47V67.46Z" fill="#231F20"/>
<path d="M45.76 104.62L43.75 104.81L43.85 104.66C43.85 104.66 43.87 104.6 43.89 104.58L43.94 104.42L44.04 104.11C44.12 103.89 44.14 103.75 44.25 103.48C44.5 102.89 44.73 102.38 44.96 101.89C45.38 100.91 46.12 99.88 47.15 98.94C47.58 98.54 48.04 98.13 48.52 97.77C48.75 97.61 49.04 97.37 49.21 97.27C49.38 97.16 49.55 97.06 49.73 96.96C50.99 96.32 52.34 95.79 53.89 95.71C55.35 95.64 56.8 95.94 58.1 96.5C59.25 97 60.32 97.64 61.24 98.41C61.85 98.89 62.38 99.46 62.83 100.07L63.15 100.54L63.37 101.08C63.44 101.26 63.5 101.45 63.55 101.63C63.6 101.82 63.56 102.06 63.57 102.26C63.54 102.8 63.5 102.73 62.99 102.59C62.42 102.48 61.38 102.39 60.83 101.95C60.61 101.73 60.36 101.53 60.13 101.33C59.88 101.15 59.65 100.95 59.43 100.76C58.98 100.37 58.51 100.03 58.02 99.75C57.05 99.17 56.01 98.81 54.84 98.66L54.31 98.62C54.15 98.63 53.98 98.64 53.81 98.67C53.47 98.72 53.11 98.81 52.76 98.94C52.41 99.07 52.06 99.23 51.71 99.42C51.54 99.52 51.36 99.6 51.2 99.71L50.78 99.96C50.47 100.13 50.17 100.32 49.84 100.62C49.68 100.77 49.52 100.93 49.38 101.12C49.31 101.21 49.24 101.33 49.19 101.42L49.45 101.44C49.52 101.44 49.52 101.47 49.64 101.44C49.99 101.51 50.51 101.53 51.05 101.56L53.63 101.66C54.54 101.7 55.45 101.73 56.36 101.73C57.77 101.73 59.15 101.57 60.54 101.49C60.85 101.47 61.15 101.43 61.45 101.42C62.59 101.4 62.95 101.6 63.18 102.35C63.23 102.52 63.3 102.69 63.33 102.86C63.43 103.44 62.95 103.9 62.11 104.06C59.61 104.52 57 104.54 54.39 104.51C53.42 104.49 52.45 104.48 51.48 104.46H50.3H48.85C48.39 104.44 47.84 104.5 47.3 104.55L45.66 104.7L45.77 104.62H45.76Z" fill="#231F20"/>
<path d="M39.4498 114.84L35.4698 114.73L34.9498 114.71L34.0298 114.67C33.4198 114.64 32.8198 114.58 32.2698 114.48L31.8798 114.38C31.7698 114.33 31.6798 114.27 31.5798 114.21C31.3898 114.09 31.2398 113.96 31.1598 113.77L31.0898 113.63L31.0498 113.55L31.0298 113.51V113.49L31.0198 113.48C30.9698 113.5 31.1198 113.42 30.9098 113.53C30.8698 113.43 30.8398 113.33 30.8098 113.24C30.7598 113.04 30.7498 112.81 30.7598 112.57C30.7798 112.07 30.9798 111.52 31.1698 110.97L31.4898 110.15C31.5998 109.87 31.7498 109.59 31.7998 109.46C32.1298 108.81 32.4798 108.17 32.8998 107.56C33.7298 106.35 34.7298 105.19 35.9998 104.3C36.9098 103.64 37.9798 103.15 39.1098 102.81L40.6398 102.47L42.1198 102.25C45.5898 101.84 48.9798 101.75 52.3898 101.71C55.7898 101.68 59.1898 101.74 62.5898 101.91C64.0998 101.99 65.6098 102.06 67.1398 102.19C67.8998 102.24 68.6798 102.35 69.4598 102.44C69.8698 102.52 70.2798 102.59 70.6898 102.7C71.0798 102.84 71.4998 102.95 71.8698 103.13C73.8398 103.97 75.4898 105.28 76.8698 106.77C77.5598 107.52 78.1798 108.32 78.7098 109.18C78.9698 109.61 79.2098 110.06 79.4298 110.52C79.6398 110.99 79.7498 111.5 79.8798 112C80.0298 112.63 79.9498 112.97 79.7898 112.99C79.6098 113.03 79.3398 112.8 78.8598 112.48C77.8698 111.85 76.2098 110.89 74.9298 109.41C73.7398 108.13 72.3898 107.03 70.9798 106.36C70.2698 106.01 69.5798 105.85 68.8198 105.68L67.4898 105.48L66.0998 105.33C62.3298 104.98 58.4398 104.81 54.5598 104.66C52.2298 104.59 49.8498 104.63 47.4798 104.8C45.1198 104.97 42.7098 105.2 40.5198 105.63C39.8798 105.74 39.4198 105.89 38.9098 106.09C38.4098 106.32 37.9298 106.6 37.4898 106.95C36.5898 107.63 35.7998 108.52 35.1398 109.53C34.9798 109.79 34.8198 110.04 34.6698 110.31C34.5998 110.44 34.5198 110.57 34.4498 110.71L34.3098 110.99C34.1898 111.23 34.0798 111.49 33.9898 111.76C33.8798 111.94 34.1198 111.96 34.2298 111.98C34.3598 112 34.4998 112.02 34.6398 112.03L35.0698 112.06L36.0398 112.11C39.2598 112.2 42.5198 112.17 45.7598 112.14C50.6898 112.08 55.6398 112.01 60.5298 111.95C64.3298 111.87 68.0598 111.64 71.8398 111.57C72.6698 111.55 73.4898 111.52 74.3298 111.53C77.4498 111.58 78.4598 111.87 79.0598 112.66C79.1998 112.84 79.3798 113.03 79.4498 113.21C79.6798 113.82 78.4198 114.14 76.1798 114.22C69.5298 114.48 62.4698 114.71 55.3598 114.84C50.0798 114.93 44.7798 114.93 39.4498 114.9V114.83V114.84Z" fill="#231F20"/>
<path d="M68.8099 53.78C66.9299 51.04 65.5299 48.13 64.3799 45.1C63.2599 42.07 62.4399 38.89 62.1499 35.62C61.9199 33.24 61.9399 30.79 62.4199 28.38C62.8699 26.27 63.6899 24.21 64.8399 22.36C65.3999 21.43 66.0799 20.57 66.7999 19.77C67.5299 18.98 68.3599 18.29 69.1499 17.57C72.5499 14.94 76.6599 13.47 80.7899 12.96C84.4599 12.52 88.2099 12.74 91.7699 13.61C92.3399 13.77 92.8999 13.94 93.4599 14.12L94.2999 14.39L95.1199 14.73C95.6599 14.96 96.2099 15.18 96.7499 15.43L98.3099 16.29C100.32 17.52 102.31 19 103.4 21.17C104.1 22.48 103.95 22.29 102.83 21.7C102.54 21.56 102.21 21.39 101.81 21.22C101.39 21.07 100.97 20.87 100.5 20.68C99.5899 20.26 98.5199 19.85 97.5199 19.2C95.6299 18.22 93.6499 17.39 91.5699 16.88C91.0699 16.7 90.5399 16.6 90.0199 16.48C89.4999 16.37 88.9799 16.22 88.4499 16.15C87.3899 16.02 86.3299 15.82 85.2499 15.82C80.9599 15.56 76.6099 16.45 72.8199 18.48C72.2799 18.83 71.7499 19.19 71.2099 19.55C70.6599 19.9 70.2299 20.4 69.7299 20.82C68.7399 21.68 67.9499 22.73 67.2699 23.85C65.8899 26.08 65.2199 28.71 64.9799 31.36C64.7399 34.29 65.1099 37.31 65.8399 40.25C66.5799 43.19 67.6799 46.06 69.0899 48.77C69.5199 49.6 69.9899 50.42 70.4799 51.22C70.7299 51.61 70.9799 52.01 71.2499 52.38L71.5199 52.76C71.5899 52.86 71.6599 52.95 71.7399 53.04C71.8099 53.13 71.8899 53.22 71.9699 53.31C71.9899 53.33 72.0099 53.36 72.0299 53.37C72.0599 53.37 72.0799 53.35 72.1099 53.34C72.1599 53.31 72.1999 53.27 72.2499 53.23C72.4299 53.08 72.5999 52.92 72.7799 52.75L73.7399 51.8L74.7399 50.77C78.7699 46.56 82.8099 42.29 86.7799 38.05C89.8699 34.75 92.7799 31.42 95.8999 28.19C96.5899 27.48 97.2499 26.77 97.9699 26.07C100.66 23.5 101.83 22.92 102.95 23.11C103.21 23.15 103.51 23.17 103.7 23.27C104.33 23.63 103.45 24.78 101.6 26.65C96.1199 32.25 90.4199 38.42 84.6199 44.51C82.6599 46.57 80.6899 48.64 78.7299 50.7L75.7399 53.8L74.9799 54.58L74.3399 55.21C74.0899 55.46 73.8399 55.69 73.5799 55.92C73.0699 56.33 72.5099 56.74 72.0399 56.49L71.8599 56.44H71.8099L71.7999 56.42C71.7999 56.37 71.7599 56.84 71.7799 56.64H71.7599L71.6699 56.6L71.3099 56.48C71.1899 56.44 71.0699 56.4 70.9499 56.36L70.5899 56.06C70.2099 55.67 69.8499 55.25 69.5099 54.81L69.2499 54.48C69.1599 54.37 69.0699 54.25 69.0399 54.21L68.7699 53.83L68.8199 53.78H68.8099Z" fill="#231F20"/>
<path d="M98.3398 63.48C98.4098 63.64 98.3198 63.8 98.1798 63.96C98.1398 64.01 97.9798 64.04 97.9398 64C97.8598 63.91 97.7798 63.82 97.7298 63.75C97.7298 63.69 97.1798 62.84 96.9498 62.56C96.7598 62.28 96.6598 61.98 96.5598 61.68L95.9398 59.88C95.8898 59.75 95.8798 59.61 95.8998 59.47C95.9498 58.99 95.8698 58.53 95.7198 58.08C95.6998 58.01 95.6898 57.93 95.5998 57.87C95.4498 57.77 95.1298 56.58 95.1498 56.41C95.1998 56 95.1998 55.59 95.2198 55.17C95.2198 55.11 95.1698 55.06 95.2598 54.99C95.4498 54.81 95.3698 54.7 95.3698 54.58C95.3598 54.41 95.3398 54.23 95.3698 54.04C95.3798 53.95 95.4798 53.82 95.5498 53.71C95.6198 53.61 95.9398 53.54 95.9898 53.55C96.1198 53.59 96.2398 53.48 96.3698 53.42C96.4098 53.4 96.4698 53.38 96.5098 53.37C96.5798 53.35 97.5598 54.15 97.5598 54.28C97.5598 54.29 97.7098 54.66 97.8698 55.06C98.0098 55.44 98.1598 55.85 98.1898 55.95C98.2298 56.04 98.1898 56.14 98.1798 56.24C98.1798 56.29 98.5598 57.47 98.5598 57.52C98.5698 57.78 98.6898 58.01 98.5298 58.29C98.4998 58.35 98.5198 58.39 98.5298 58.44C98.6198 58.86 98.6098 59.3 98.5698 59.73C98.5598 59.95 98.5898 60.17 98.5998 60.38C98.5998 60.42 98.5798 60.46 98.5698 60.5C98.5598 60.55 98.5398 60.6 98.5398 60.65C98.5798 61.16 98.5398 61.68 98.6198 62.18C98.6198 62.3 98.4498 62.9 98.4598 63.03C98.4598 63.11 98.3098 63.39 98.3498 63.45L98.3398 63.48Z" fill="#231F20"/>
<path d="M106.82 54.33C106.97 54.35 106.97 54.54 106.88 54.82C106.85 54.91 106.69 55.12 106.63 55.13C106.52 55.15 106.41 55.17 106.32 55.17C106.26 55.17 105.54 54.89 105.28 54.82C105.01 54.78 104.76 54.7 104.51 54.62C103.99 54.48 103.6 54.18 103.15 53.94C103.05 53.88 102.97 53.81 102.9 53.72C102.66 53.41 102.35 53.2 102 53.03C101.94 53 101.89 52.96 101.8 52.99C101.64 53.04 100.75 52.51 100.67 52.39C100.48 52.09 100.26 51.83 100.06 51.55C100.03 51.51 99.97 51.51 99.99 51.4C100.05 51.15 99.94 51.13 99.87 51.06C99.77 50.96 99.68 50.85 99.61 50.7C99.58 50.63 99.61 50.48 99.61 50.35C99.62 50.23 99.87 49.96 99.91 49.94C100.03 49.88 100.1 49.71 100.18 49.59C100.21 49.55 100.25 49.49 100.28 49.46C100.34 49.39 101.39 49.36 101.45 49.43C101.45 49.43 101.72 49.59 102 49.75C102.28 49.91 102.57 50.07 102.64 50.1C102.71 50.13 102.73 50.21 102.77 50.28C102.79 50.31 103.64 50.77 103.66 50.8C103.8 50.94 104 51.01 104.04 51.28C104.04 51.33 104.09 51.35 104.12 51.37C104.4 51.56 104.62 51.83 104.86 52.08C104.98 52.21 105.13 52.3 105.26 52.41C105.28 52.43 105.29 52.47 105.31 52.5C105.33 52.54 105.35 52.58 105.38 52.6C105.69 52.88 105.91 53.27 106.23 53.52C106.3 53.59 106.57 53.98 106.66 54.03C106.71 54.06 106.75 54.34 106.81 54.35L106.82 54.33Z" fill="#231F20"/>
<path d="M110.99 46.86C111.11 46.75 111.22 46.96 111.34 47.33C111.38 47.45 111.39 47.81 111.36 47.87C111.29 47.98 111.23 48.08 111.16 48.16C111.12 48.21 110.43 48.47 110.19 48.59C109.96 48.7 109.73 48.75 109.5 48.78C109.03 48.85 108.55 48.9 108.07 48.93C107.96 48.93 107.86 48.92 107.75 48.88C107.39 48.75 107.02 48.74 106.66 48.79C106.6 48.79 106.54 48.79 106.48 48.86C106.38 48.99 105.38 48.98 105.26 48.92C104.95 48.76 104.64 48.65 104.33 48.52C104.29 48.5 104.24 48.52 104.2 48.43C104.12 48.2 104.02 48.23 103.93 48.21C103.8 48.18 103.67 48.13 103.54 48.05C103.48 48.01 103.43 47.87 103.37 47.77C103.32 47.67 103.39 47.34 103.41 47.3C103.48 47.2 103.45 47.04 103.46 46.89C103.46 46.84 103.47 46.78 103.47 46.74C103.49 46.65 104.29 46.16 104.36 46.18C104.36 46.18 104.64 46.17 104.94 46.15C105.23 46.13 105.53 46.11 105.59 46.09C105.65 46.07 105.72 46.13 105.78 46.17C105.81 46.19 106.68 46.08 106.71 46.08C106.89 46.12 107.07 46.05 107.24 46.24C107.27 46.28 107.31 46.27 107.35 46.27C107.66 46.25 107.97 46.33 108.28 46.39C108.44 46.42 108.6 46.39 108.75 46.39C108.78 46.39 108.81 46.42 108.84 46.43C108.88 46.44 108.91 46.47 108.95 46.47C109.33 46.47 109.71 46.58 110.08 46.52C110.17 46.51 110.59 46.71 110.69 46.68C110.75 46.67 110.94 46.93 110.99 46.89V46.86Z" fill="#231F20"/>
</svg>
