<?xml version="1.0" encoding="UTF-8"?><svg id="Layer_1" xmlns="http://www.w3.org/2000/svg" width="128" height="128" viewBox="0 0 128 128"><defs><style>.cls-1{fill:#231f20;stroke-width:0px;}</style></defs><path class="cls-1" d="M89.95,102.88c.11-.51.2-1.03.27-1.58.07-.52.13-1.04.16-1.58.02-.39-.02-.78-.01-1.17.02-1.39-.04-2.8-.14-4.23-.02-.64-.08-1.27-.14-1.9-.08-.8-.17-1.62,0-2.45.04-.26.12-.23.27-.02.13.2.48.56.63,1.01.37,1.59.88,3.16.85,4.86.02,1.01.23,2.04.28,3.08.06,1.14,0,2.33-.12,3.45-.07.7-.19,1.41-.36,2.12-.25,1.08-.76,2.13-1.34,3.05-.45.72-.84,1.47-1.37,2.09-.11.14-.22.28-.34.42-.47.48-.71.52-1.15.3-.1-.05-.2-.09-.29-.16-.3-.2-.33-.61-.11-1.05.34-.64.64-1.31,1.03-1.86.37-.56.73-1.1,1-1.66.41-.8.67-1.71.82-2.74h.05Z"/><path class="cls-1" d="M59.99,58.22c-1-1.59-1.85-3.36-2.28-5.27-.14-.69-.3-1.39-.31-2.11-.04-1.26.18-2.49.45-3.64.28-1.17.67-2.31,1.17-3.4.44-.97.96-1.91,1.57-2.78.4-.55.86-1.07,1.38-1.52.48-.49,1.18-.73,1.78-1,.4-.15.33-.14.1.14-.11.14-.26.35-.41.64-.07.14-.15.29-.22.46-.03.09-.08.16-.11.25l-.17.2c-.41.48-.76,1-1.1,1.51-.35.51-.7,1.03-.98,1.58-.6,1.1-1.05,2.29-1.42,3.53-.45,1.5-.57,3.12-.35,4.62.21,1.68.9,3.28,1.79,4.79.56.93,1.19,1.83,1.86,2.71,1.01,1.34,2.09,2.67,3.06,4.12.74,1.12,1.52,2.32,1.78,3.83.05.33.11.66.09,1-.05,1.28-.51,1.58-1.07,1.62-.14,0-.28.03-.4,0-.43-.07-.58-.59-.64-1.23,0-.95-.22-1.81-.66-2.72-.42-.91-1.06-1.86-1.74-2.81-1.03-1.42-2.17-2.88-3.2-4.48l.04-.03Z"/><path class="cls-1" d="M96.04,23.49c-5.22-5.06-11.9-8.67-19.03-10.24-3.56-.78-7.23-1.05-10.85-.72-3.64.32-7.12,1.29-10.5,2.78-4.92,2.17-9.36,5.31-12.91,9.27-2.81,3.07-5.01,6.69-6.69,10.55-1.68,3.87-2.8,7.98-3.69,12.19-.48,2.12-.79,4.22-1.53,6.52-.44,1.29-1.12,2.19-1.74,3.14-.64.93-1.3,1.81-1.97,2.69-1.34,1.74-2.71,3.44-3.99,5.17-.64.86-1.28,1.73-1.87,2.59-.29.42-.6.86-.84,1.27l-.17.29c-.05.07-.06.11-.09.17-.06.11-.1.22-.12.34-.02.25.14.47.32.65.05.04.22.21.43.35.18.14.39.28.61.42.87.56,1.84,1.08,2.82,1.64.96.56,1.95,1.15,2.89,1.95.47.39.93.88,1.32,1.47.45.78.51,1.31.69,1.83.61,2.11,1.23,4.13,2,6.12,1.52,3.93,3.56,7.79,6.61,10.34.46.45,1.01.75,1.53,1.1.51.35,1.15.64,1.74.94,1.2.58,2.45,1.1,3.72,1.57,2.55.93,5.24,1.75,7.87,3,2.77,1.31,4.99,3.55,6.55,6.01.8,1.23,1.41,2.54,1.94,3.86.52,1.33,1,2.65,1.38,4,.45,1.69.55,2.44.41,2.44-.15,0-.58-.75-1.36-2.02-.79-1.26-1.86-3.07-3.34-4.99-1.44-1.93-3.19-4.03-5.5-5.43-1.46-.9-3.48-1.56-5.46-2.21-1.99-.68-4.09-1.4-6.16-2.31-1.03-.46-2.06-.95-3.06-1.51-.52-.31-1.05-.68-1.57-1.02-.53-.35-.95-.78-1.43-1.18-1.8-1.66-3.19-3.59-4.35-5.59-2.3-3.98-3.66-8.33-4.81-12.44l-.21-.68s0,0,0,0h0s0,0,0,0l.15-.08.33-.19c.22-.13.44-.26.66-.4l.16-.1c.37-.22-2.49,1.48-1.29.76h0s-.02-.03-.02-.03l-.03-.04-.06-.08c-.14-.22-.42-.49-.73-.75-.65-.54-1.5-1.06-2.4-1.57-.9-.52-1.86-1.03-2.88-1.69-.25-.15-.51-.34-.78-.55-.13-.1-.26-.19-.41-.32-.15-.14-.4-.34-.56-.52-.69-.74-1.07-1.67-1.16-2.64.08-.63.31-1.23.52-1.83.13-.33.27-.5.36-.67.1-.17.21-.37.31-.52.42-.64.84-1.24,1.29-1.81.89-1.13,1.8-2.21,2.7-3.28,1.79-2.14,3.54-4.32,5.08-6.5.43-.65.91-1.37,1.12-1.92.25-.65.46-1.46.65-2.26.36-1.68.72-3.37,1.09-5.06.76-3.43,1.66-6.9,2.98-10.26,2.55-6.73,6.82-13.02,12.57-17.47,3.12-2.49,6.64-4.4,10.29-5.91,3.67-1.51,7.64-2.42,11.6-2.63,7.96-.43,15.91,1.73,22.71,5.69,4.21,2.42,7.98,5.6,11.07,9.35,3.1,3.75,5.44,8.09,6.99,12.67,1.14,3.48,1.84,7.11,2.11,10.76.04.91.15,1.83.12,2.74l-.05,2.75-.25,2.73c-.08.91-.28,1.81-.41,2.71-.66,3.6-1.77,7.11-3.33,10.42l-1.28,2.42c-.44.8-.96,1.55-1.43,2.33-1.01,1.54-2.17,2.95-3.35,4.3-1.84,2.1-3.74,4.06-5.14,6.27-.7,1.1-1.27,2.26-1.66,3.47-.09.31-.19.61-.27.91l-.2.93c-.11.51-.08,1.17-.07,1.83.1,2.66.36,5.39.53,8.12.08,1.37.16,2.74.17,4.15,0,.7,0,1.41-.08,2.16-.02.19-.03.37-.07.58l-.05.3-.09.4c-.08.26-.16.52-.3.76-.06.12-.14.23-.24.32-.06.13-.19.19-.28.29l-.05.05-.88.64-.75.52c-.5.34-1.01.67-1.52,1-1.02.66-2.06,1.27-3.13,1.87-4.02,2.21-6.88,3.28-8.93,3.87-2.06.57-3.32.65-4.35.52-.47-.07-1.08-.1-1.36-.21-.96-.46,2.57-1.3,8.35-4.1,1.84-.89,3.64-1.87,5.42-2.95.89-.53,1.78-1.1,2.66-1.68.43-.3.87-.6,1.3-.9l.64-.46.32-.23.13-.11s.05-.06.06-.09v-.06s.03-.13.03-.13c.05-.35.07-.79.08-1.24.02-.9-.01-1.84-.05-2.8-.08-1.91-.22-3.86-.35-5.84-.06-1-.12-1.99-.18-2.99-.05-1.03-.11-2.01-.05-3.2.01-.26.07-.77.13-.99l.18-.83c.11-.56.32-1.09.48-1.63.39-1.06.86-2.1,1.43-3.06,1.13-1.93,2.52-3.59,3.88-5.11,1.37-1.54,2.71-2.97,3.88-4.48,2.3-3,4.13-6.47,5.39-10.09,2.42-6.87,2.77-14.49,1.22-21.65-1.54-7.16-5.02-13.95-10.34-18.97l.04-.07Z"/><path class="cls-1" d="M74.77,37.15c-2.09-.62-4.26-.59-6.36.09-2.09.67-4.04,1.91-5.64,3.5-1.18,1.17-2.07,2.58-2.85,4.01-1.28,2.58-1.86,5.54-1.18,8.33.51,2.83,2.65,5.21,4.8,7.49.48.5.99,1.02,1.46,1.64.45.62.9,1.34,1.06,2.23l.29,2.08.16.99c.03.16.06.32.12.46.02.02.06.02.09.03.2.04,1.32.22,2.16.33.88.12,1.77.23,2.65.31l.66.06.34.02c.22.08.26-.16.33-.32l.44-1.13c.18-.42.41-.83.64-1.23.65-.99.68-.78.76.25.03.51.17,1.25.11,2.09-.02.24,0,.35-.08.78-.07.36-.14.9-.4,1.2-.06.09-.14.13-.22.19l-.12.08-.06.04-.03.02h0s0,0,0,0c-.02-.02.12.21.06.11h-.02c-.19.08-.38.16-.59.22-.24,0-.48.01-.73.02-.26.01-.53-.01-.62-.01-1.11-.06-2.16-.17-3.22-.29l-1.59-.21-.4-.06c-.15-.02-.48-.07-.72-.12-.13-.03-.26-.04-.38-.08l-.33-.15c-.23-.1-.39-.22-.6-.34-.14-.26-.33-.47-.42-.78-.09-.3-.15-.63-.22-.94l-.18-1.07-.3-1.97c-.06-.63-.7-1.5-1.6-2.4-.94-.96-1.86-1.97-2.74-3.06-.87-1.1-1.71-2.31-2.32-3.67-.95-2.3-1.43-4.86-1.08-7.37.3-2.5,1.23-4.88,2.58-6.93,1.5-2.25,3.49-4.14,5.81-5.5,2.32-1.36,5.02-2.17,7.74-2.1,1.69,0,3.31.42,4.86.99,1.55.61,2.94,1.54,4.17,2.63,1.84,1.68,3.2,3.83,4.05,6.13.82,2.31,1.16,4.77,1.04,7.19-.02.95-.17,1.86-.32,2.81-.18.98-.55,1.88-.95,2.75-.87,1.71-2.02,3.22-3.32,4.56-.58.59-1.14,1.17-1.78,1.69-2.44,1.86-3.48,2.08-4.36,1.79-.21-.07-.45-.12-.59-.22-.49-.36.35-1.24,1.89-2.6,2.25-2.01,4.54-4.2,5.79-6.75.31-.63.53-1.27.67-1.89.11-.71.27-1.46.28-2.2.1-1.49,0-3-.34-4.45-.97-4.33-4.14-8.09-8.35-9.18v-.07Z"/><path class="cls-1" d="M65.33,72.19c-.32.47-.25,1.83-.14,2.18.13.42,7.92,1.21,8.17.8.27-.44.31-2.32.19-2.34-.6-.09-2.38.18-4.09,0-2.05-.2-4.01-.83-4.14-.64Z"/><path class="cls-1" d="M65.54,75.42c-.28.35-.14,1.47-.03,1.72.13.32,6.6,1.09,6.82.8.4-.52.48-1.93.37-1.95-.53-.08-2.07.08-3.55-.06-1.78-.18-3.5-.65-3.61-.51Z"/><path class="cls-1" d="M75.17,54.75c-1.2,1.04-2.95,1.53-4.47,1.31-.77-.09-1.48-.32-2.12-.61-.32-.12-.68-.35-1-.54-.3-.23-.62-.45-.87-.71-.78-.74-1.39-1.6-1.84-2.53-.38-.83-.65-1.72-.71-2.7-.03-.24,0-.5.01-.76,0-.13.03-.26.06-.4.04-.15.07-.34.12-.49.24-.63.68-1.13,1.24-1.45.57-.3,1.25-.34,1.84-.12.3.1.57.27.81.48.12.1.24.21.35.34.1.1.17.2.24.3.58.82.85,1.66,1.07,2.5.36,1.48.56,2.97.56,4.44-.02,1.87-.16,3.88-1.34,5.47-.41.47-.36.38-.46-.16-.17-.57-.42-1.51-.44-2.48.13-1.71,0-3.43-.2-5.1-.12-.83-.3-1.65-.55-2.37-.13-.35-.28-.69-.43-.95-.11-.17-.09-.15-.12-.21-.03-.05-.07-.09-.12-.12-.13-.08-.32-.04-.43.09-.06.07-.08.13-.11.25-.03.18-.07.39-.05.61.03.91.41,1.91.9,2.76.61.93,1.37,1.66,2.39,2.03,1.03.41,2.12.54,3.08.18,1.18-.42,2.17-1.53,2.62-2.83.18-.48.29-1,.29-1.44,0-.11-.01-.21-.03-.29l-.02-.09s0,0,0-.01h0s.05-.04.07-.05c.04-.02.08-.06.12-.1.03-.03.03-.03.05-.05v-.02s.01,0,.01,0h0s0,0,0,0c-.3.61-.08.17-.15.3h-.05s-.07,0-.11-.02c-.17.01-.6.29-.9.68-.32.39-.59.86-.82,1.35-.35.76-.59,1.6-.64,2.36-.05.83-.03,1.73-.04,2.61,0,.39.02.78,0,1.18-.02.74-.11,1.24-.28,1.58-.14.34-.36.52-.62.65-.11.06-.22.14-.3.17-.24.09-.62-.53-.78-1.58-.06-.8-.11-1.6-.17-2.41-.04-.84-.09-1.64-.02-2.62.1-1.04.34-1.94.69-2.86.37-.91.78-1.81,1.7-2.74.21-.18.36-.34.66-.51.14-.08.27-.16.42-.23.18-.07.36-.11.55-.15.37-.06.86-.07,1.24.05.21.07.38.12.6.23.16.09.31.2.45.32.13.12.21.22.3.35.19.26.24.42.34.65.05.16.1.36.12.51.05.31.05.57.04.81-.03.48-.12.89-.23,1.28-.47,1.54-1.31,2.83-2.51,3.9l-.04-.04Z"/><path class="cls-1" d="M75.13,30.87c.07-.69.15-1.37.24-2.05l-.05.39c.13-1,.28-1.99.41-2.99.05-.41.07-.75-.15-1.12-.18-.3-.52-.59-.87-.67-.37-.08-.79-.07-1.12.15-.29.19-.62.5-.67.87-.24,1.81-.53,3.61-.71,5.42-.03.35.19.79.42,1.03.25.25.66.44,1.03.42s.76-.14,1.03-.42c.27-.3.38-.62.42-1.03h0Z"/><path class="cls-1" d="M52.77,35.26c1.42,1.05,2.84,2.09,4.26,3.14.28.21.79.24,1.12.15s.7-.35.87-.67c.18-.34.27-.74.15-1.12s-.35-.63-.67-.87c-1.42-1.05-2.84-2.09-4.26-3.14-.28-.21-.79-.24-1.12-.15s-.7.35-.87.67c-.18.34-.27.74-.15,1.12s.35.63.67.87h0Z"/><path class="cls-1" d="M88.04,42.96c1.72-.52,3.42-1.11,5.09-1.79.36-.15.66-.31.87-.67.18-.31.26-.77.15-1.12s-.33-.69-.67-.87-.76-.29-1.12-.15c-1.66.68-3.36,1.27-5.09,1.79-.73.22-1.26,1.03-1.01,1.78s1.01,1.25,1.78,1.01h0Z"/><path class="cls-1" d="M89.77,55.67c1.74.44,3.5.81,5.28,1.08.36.06.69.06,1.02-.13.27-.16.54-.48.61-.79.14-.63-.19-1.52-.93-1.63-1.78-.27-3.54-.64-5.28-1.08-.67-.17-1.47.22-1.63.93s.21,1.45.93,1.63h0Z"/><path class="cls-1" d="M51.93,48.5c-.85-.06-1.71-.13-2.56-.22-.22-.02-.44-.05-.66-.08-.1-.01-.2-.02-.31-.04-.04,0-.44-.06-.23-.03s-.2-.03-.23-.03c-.1-.01-.2-.03-.31-.04-.24-.04-.47-.07-.71-.11-.36-.06-.69-.06-1.02.13-.27.16-.54.48-.61.79-.15.64.19,1.51.93,1.63,1.89.31,3.8.52,5.71.65.69.05,1.36-.64,1.32-1.32-.03-.76-.58-1.28-1.32-1.32h0Z"/></svg>