<svg width="128" height="128" viewBox="0 0 128 128" fill="none" xmlns="http://www.w3.org/2000/svg">
<path d="M77.7999 61.96C73.1399 64.04 69.0799 63.05 65.7399 60.01C64.6999 59.07 61.2099 58.89 59.2599 58.85C55.8499 58.78 60.9399 56.6 64.2699 57.21C64.7399 57.3 65.1699 57.42 65.5499 57.57L66.2199 57.6C66.2199 57.6 69.6599 60.32 71.2199 60.71C72.7899 61.09 77.7999 61.96 77.7999 61.96Z" fill="#231F20"/>
<path d="M30.0799 52.17C22.5299 40.08 33.6299 36.08 36.7199 37.61C36.7199 37.61 31.6999 35.37 28.4199 37.79C25.1399 40.21 24.9299 41.83 24.6499 43.5C24.3699 45.17 25.2899 47.77 25.6399 48.55C25.9899 49.33 30.0899 52.17 30.0899 52.17H30.0799Z" fill="#231F20"/>
<path d="M38.53 37.06C32.01 31.09 35.84 24.09 39.86 22.18C41.3 21.5 43.88 21.19 46.18 21.86C46.18 21.86 41.44 19.05 37.54 21.18C33.64 23.31 32.74 25.15 32.22 26.94C31.7 28.73 31.8 31.74 32.44 32.87C33.08 34 38.52 37.05 38.52 37.05L38.53 37.06Z" fill="#231F20"/>
<path d="M87.99 36.3C87.86 35.49 87.54 34.68 87.02 33.96C86.82 33.7 86.56 33.5 86.36 33.27C85.64 32.41 84.54 31.7 83.32 31.39C82.78 31.24 82.21 31.24 81.65 31.27C81.29 31.27 80.94 31.34 80.59 31.4C80.23 31.43 79.85 31.44 79.46 31.5C79.21 31.53 79.19 31.44 79.3 31.19C79.41 30.95 79.63 30.45 80.07 30.11C81.7 29.19 83.72 29.29 85.37 30.03C86.35 30.48 87.44 30.9 88.3 31.7C89.17 32.56 89.87 33.63 90.28 34.79C90.51 35.51 90.69 36.25 90.72 36.99C90.79 38.12 90.59 39.21 90.34 40.26C90.14 41.07 89.98 41.9 89.66 42.69C89.59 42.86 89.53 43.04 89.44 43.2C89.01 43.76 88.72 43.82 88.17 43.57C88.05 43.52 87.95 43.49 87.86 43.44C87.62 43.32 87.31 42.77 87.4 42.34C87.58 41.02 87.98 39.94 88.06 38.78C88.14 37.94 88.09 37.12 87.95 36.32L88.01 36.3H87.99Z" fill="#231F20"/>
<path d="M75.9402 21.02C77.1702 21.91 78.2102 23.04 78.9502 24.32C79.2302 24.78 79.5202 25.23 79.7102 25.72C80.3602 27.47 80.5602 29.33 80.2602 31.07C80.1602 31.84 80.0002 32.61 79.7902 33.34C79.5102 34.28 79.0102 35.17 78.3202 35.86C78.1102 36.08 78.0202 35.96 77.9702 35.64C77.9402 35.33 77.8702 34.81 77.9402 34.31C78.0102 33.87 78.0502 33.44 78.0702 33.01C78.1302 32.6 78.1802 32.18 78.1902 31.77C78.2402 30.94 78.1902 30.13 78.1902 29.29C78.1902 28.27 77.7302 27.29 77.2502 26.41C76.7302 25.42 76.0202 24.55 75.1202 23.86C74.5802 23.43 73.9702 23.06 73.3102 22.79C72.3302 22.36 71.2502 22.04 70.1702 22.07C69.3202 22.07 68.5502 22.43 67.8102 22.68C67.6402 22.73 67.4902 22.82 67.3302 22.88C67.0202 22.96 66.8102 23 66.6102 22.92C66.3802 22.79 66.2002 22.62 66.0002 22.39C65.9102 22.29 65.8102 22.19 65.7302 22.1C65.6102 21.94 65.5702 21.76 65.6102 21.5C65.6502 21.25 65.7402 20.87 66.0002 20.67C66.3702 20.35 66.7902 20.06 67.2402 19.83C67.6802 19.58 68.1702 19.4 68.6702 19.31C69.6702 19.1 70.7202 19.11 71.7402 19.26C72.5002 19.36 73.2402 19.58 73.9602 19.84C74.6702 20.14 75.3502 20.5 75.9902 20.93L75.9602 20.99L75.9402 21.02Z" fill="#231F20"/>
<path d="M56.72 12.53C58.73 12.65 60.71 13.17 62.47 14.16C63.09 14.57 63.77 14.86 64.3 15.39C64.81 15.8 65.23 16.32 65.63 16.83C66.05 17.33 66.35 17.92 66.63 18.49C67.15 19.67 67.43 20.92 67.5 22.16C67.56 23.26 67.48 24.36 67.26 25.42C66.98 26.76 66.5 28.16 65.35 29.03C64.98 29.28 64.93 29.17 64.86 28.71C64.75 28.22 64.64 27.48 64.79 26.83C65.62 24.62 65.66 22.29 64.95 20.1C64.51 18.76 63.46 17.71 62.29 16.91C60.98 16.03 59.42 15.42 57.78 15.2C57.28 15.16 56.77 15.1 56.26 15.1C55.76 15.14 55.23 15.1 54.74 15.22C53.21 15.43 51.7 15.98 50.51 16.94C50.25 17.09 50.08 17.34 49.88 17.55C49.69 17.77 49.47 17.96 49.33 18.22C49.04 18.73 48.7 19.17 48.52 19.73C48.43 19.96 48.33 20.18 48.2 20.4C48 20.82 47.89 21.11 47.68 21.28C47.45 21.44 47.21 21.51 46.93 21.55C46.8 21.57 46.67 21.6 46.56 21.61C46.37 21.61 46.23 21.5 46.12 21.26C46.01 21.02 45.88 20.64 45.94 20.21C46.12 17.58 48.15 15.01 50.69 13.74C52.59 12.78 54.7 12.42 56.74 12.47V12.54L56.72 12.53Z" fill="#231F20"/>
<path d="M85.2401 56.15C84.7801 56.28 84.3201 56.38 83.8601 56.48C83.7001 56.52 83.5501 56.61 83.3701 56.62C82.7601 56.68 82.1501 56.68 81.5501 56.7C81.2801 56.72 81.0301 56.73 80.7601 56.75C80.4201 56.78 80.0601 56.83 79.7101 56.54C79.6101 56.46 79.6501 56.26 79.7601 56.01C79.8701 55.77 80.0001 55.38 80.1401 55.27C80.3901 55.16 80.6601 55.02 80.9301 54.93C81.2101 54.9 81.5101 54.9 81.8301 54.93C82.2101 54.97 82.5501 54.76 82.9101 54.65C83.3101 54.55 83.7201 54.47 84.1201 54.35C84.3701 54.27 84.6201 54.21 84.8501 54.11C85.2101 53.97 85.5801 53.82 85.9001 53.61C86.1601 53.45 86.3301 53.19 86.5401 52.99C86.5801 52.94 86.6301 52.9 86.6901 52.87C86.9001 52.76 87.0601 52.83 87.3501 53.1L87.5501 53.28C87.7501 53.48 87.8401 53.76 87.7901 54.01C87.7201 54.41 87.5401 54.7 87.3301 54.97C87.1201 55.23 86.8901 55.48 86.5901 55.62C86.1701 55.86 85.7201 56.03 85.2701 56.2L85.2501 56.15H85.2401Z" fill="#231F20"/>
<path d="M60.9801 118.67C45.8701 120.86 24.9001 115.78 25.3001 111.89C25.6001 108.97 34.2201 107.44 35.5701 108.01L37.5301 113.22C37.5301 113.22 44.2801 118.01 55.1201 117.2C65.9601 116.39 60.9801 118.67 60.9801 118.67Z" fill="#231F20"/>
<path d="M87.16 13.81C87.04 14.48 86.6799 15.3 85.9999 15.83C85.3299 16.34 84.6199 16.48 83.9999 16.53C83.5399 16.56 83.1099 16.59 82.6799 16.52C81.9299 16.39 81.1599 16.12 80.4999 15.62C79.8399 15.11 79.3299 14.38 79.2499 13.52C79.1499 12.76 79.4099 12 79.8199 11.48C80.3299 10.79 80.9899 10.35 81.6799 10.08C81.8999 10 81.9899 10.19 81.9599 10.5C81.9299 10.8 81.8099 11.23 81.5699 11.52C81.1199 12.02 80.87 12.54 80.91 12.87C80.93 13.17 81.0799 13.49 81.3199 13.92C81.6499 14.41 82.4499 14.55 83.1999 14.58C83.6099 14.6 84.0099 14.57 84.3199 14.46C84.6399 14.34 84.83 14.23 84.98 13.95C85.18 13.59 85.25 13.08 85.16 12.62C85.03 11.91 84.5399 11.2 83.8599 11C83.3299 10.84 82.74 11.05 82.33 11.32C82.24 11.38 82.16 11.45 82.08 11.51C81.79 11.74 81.65 11.75 81.19 11.62L80.8799 11.54C80.5499 11.46 80.3699 11.04 80.6799 10.49C80.9099 10.1 81.2399 9.75 81.6299 9.5C82.0299 9.26 82.4799 9.11 82.9599 9.04C83.8999 8.89 85.04 9.22 85.8 9.89C86.95 10.88 87.4399 12.38 87.22 13.85H87.1699L87.16 13.81Z" fill="#231F20"/>
<path d="M104.74 18.83C104.65 19.29 104.4 19.88 103.9 20.26C103.42 20.62 102.92 20.71 102.5 20.73C102.19 20.75 101.9 20.77 101.61 20.72C101.11 20.62 100.59 20.43 100.14 20.08C99.6899 19.72 99.3499 19.22 99.3099 18.63C99.2499 18.11 99.4399 17.59 99.7099 17.24C100.06 16.78 100.48 16.5 100.95 16.35C101.1 16.31 101.17 16.47 101.18 16.7C101.18 16.93 101.15 17.25 101.01 17.44C100.75 17.77 100.65 18.09 100.7 18.21C100.74 18.31 100.8 18.44 100.89 18.7C101.03 18.99 101.52 19.07 101.96 19.08C102.2 19.1 102.44 19.08 102.6 19.03C102.77 18.97 102.85 18.94 102.95 18.8C103.07 18.61 103.13 18.32 103.08 18.04C103.02 17.62 102.73 17.19 102.34 17.08C102.03 16.99 101.69 17.15 101.47 17.32C101.43 17.36 101.38 17.4 101.34 17.43C101.18 17.55 101.08 17.52 100.72 17.39L100.47 17.31C100.2 17.23 100.03 16.93 100.23 16.53C100.8 15.33 102.65 15.06 103.79 16.06C104.6 16.76 104.94 17.8 104.78 18.83H104.74Z" fill="#231F20"/>
<path d="M99.3599 9.46C99.0399 9.83 98.8599 10.3 98.9899 10.75C99.1599 11.34 100.06 11.55 100.58 11.56C101.18 11.56 101.83 11.3 101.98 10.66C102.13 10.02 101.78 9.2 101.14 8.91C100.55 8.64 99.8099 8.95 99.3599 9.47V9.46Z" fill="#231F20"/>
<path d="M32.98 93.41C34.19 98.57 35.47 103.75 37.06 108.74C37.35 109.64 37.68 110.55 38.04 111.33C38.28 111.84 38.25 111.79 38.38 111.9L38.87 112.22C39.05 112.35 39.24 112.45 39.43 112.56C42.13 114.13 45.37 115.01 48.64 115.55C51.92 116.09 55.31 116.26 58.68 116.2C61.68 116.15 64.69 115.82 67.62 115.31C69.5 114.97 71.37 114.58 73.21 114.12L74.58 113.77L75.96 113.45C76.42 113.33 76.87 113.22 77.31 113.08C77.75 112.95 78.22 112.86 78.64 112.69C79.65 112.31 79.78 112.48 79.14 113.49C78.5 114.49 76.89 116.05 74.67 116.81C70.74 118.1 66.7 118.68 62.65 118.99C58.59 119.28 54.49 119.23 50.41 118.66C47.97 118.31 45.48 117.9 43.01 117.2C41.78 116.81 40.55 116.41 39.36 115.84C38.76 115.59 38.19 115.23 37.6 114.92L36.76 114.37C36.58 114.24 36.34 114.13 36.2 113.9C36.04 113.7 35.84 113.54 35.74 113.3C35.47 112.81 35.39 112.55 35.23 112.19L34.86 111.2C34.63 110.54 34.42 109.89 34.22 109.24C33.81 107.94 33.44 106.63 33.08 105.33C32.36 102.72 31.71 100.1 31.08 97.48C30.31 94.25 29.59 91.01 28.9 87.77C27.86 82.86 26.95 77.89 26.12 72.97C25.48 69.14 24.78 65.4 24.4 61.54C24.31 60.69 24.26 59.86 24.24 58.99C24.22 57.39 24.28 56.32 24.47 55.58C24.68 54.84 24.96 54.43 25.21 54.12C25.33 53.98 25.44 53.78 25.53 53.71C25.69 53.58 25.79 53.84 25.94 54.41C26.07 54.98 26.32 55.86 26.37 56.98C27.11 63.63 28.22 70.67 29.61 77.72C30.64 82.95 31.76 88.2 33.03 93.4L32.96 93.42L32.98 93.41Z" fill="#231F20"/>
<path d="M87.8699 77.41C87.4499 80.17 86.9899 82.93 86.5199 85.68C86.3499 86.68 86.2399 87.7 86.0499 88.7C85.3699 92.23 84.6599 95.75 83.7899 99.23C83.4299 100.79 83.0699 102.35 82.7099 103.89C82.4799 104.89 82.2099 105.88 81.8799 106.86C81.5499 107.84 81.1599 108.83 80.3999 109.67C79.8399 110.2 79.8399 109.92 79.8699 109.35C79.8699 109.04 79.8399 108.65 79.7899 108.16C79.7699 107.7 79.8299 107.18 79.9499 106.63C80.3799 104.65 80.8099 102.68 81.2499 100.7C81.6899 98.7 82.1099 96.69 82.6399 94.68C83.2599 92.27 83.5599 89.71 83.9799 87.21C84.4399 84.46 84.8799 81.7 85.2799 78.94C85.5299 77.24 85.7699 75.53 85.9799 73.83C86.2899 71.25 86.6099 68.65 86.7799 66.07C86.9099 64.07 86.8599 62.09 86.8699 60.11C86.8899 59.67 86.8699 59.25 86.8999 58.81C86.9999 57.19 87.1699 56.68 87.7899 56.34C87.9199 56.26 88.0299 56.16 88.1399 56.12C88.4399 55.97 88.9799 56.65 89.1099 57.87C89.2099 58.77 89.2999 59.69 89.3499 60.61C89.3699 61.53 89.3499 62.46 89.3299 63.39C89.2699 65.26 89.1299 67.15 88.9499 69.03C88.6899 71.83 88.3199 74.64 87.9499 77.43H87.8899L87.8699 77.41Z" fill="#231F20"/>
<path d="M36.8698 50.05C36.1898 49.55 35.6098 48.89 35.2498 48.12C35.1098 47.84 34.9598 47.6 34.8998 47.31C34.6998 46.3 34.7398 45.26 35.1198 44.36C35.2798 43.96 35.4498 43.57 35.6898 43.22C35.9798 42.77 36.3698 42.36 36.8598 42.17C37.0098 42.11 37.0798 42.25 37.0898 42.47C37.0898 42.68 37.0898 42.99 36.9798 43.2C36.5598 43.96 36.6198 44.7 36.4198 45.47C36.3198 45.95 36.5398 46.45 36.7198 46.9C36.8998 47.4 37.1598 47.84 37.5798 48.21C37.8398 48.43 38.1198 48.64 38.4498 48.78C38.9298 49 39.4798 49.14 40.0198 49.1C40.4398 49.08 40.8198 48.92 41.1598 48.74C41.2398 48.71 41.2998 48.64 41.3798 48.61C41.6598 48.48 41.8698 48.61 42.1198 48.81L42.2898 48.94C42.4498 49.08 42.4598 49.36 42.2898 49.74C41.9598 50.18 41.4798 50.52 40.9498 50.74C40.4198 50.96 39.8198 51.08 39.2498 50.98C38.3998 50.89 37.5798 50.57 36.8698 50.1L36.8898 50.06L36.8698 50.05Z" fill="#231F20"/>
<path d="M46.52 53.45C45.56 53.33 44.64 53.03 43.78 52.46C43.48 52.24 43.18 52.05 42.94 51.78C42.15 50.83 41.65 49.68 41.67 48.48C41.67 47.95 41.72 47.41 41.89 46.91C42.1 46.27 42.49 45.63 43.11 45.36C43.3 45.27 43.46 45.54 43.57 45.89C43.68 46.24 43.77 46.63 43.69 46.84C43.4 47.59 43.43 48.23 43.55 49.17C43.63 49.74 44.07 50.19 44.47 50.56C44.89 50.97 45.48 51.23 46.15 51.37C46.56 51.44 46.98 51.48 47.42 51.45C48.08 51.42 48.77 51.3 49.38 51.01C49.87 50.81 50.24 50.4 50.66 50.12C50.75 50.05 50.84 49.98 50.92 49.91C51.27 49.68 51.44 49.69 51.79 49.93C51.87 49.99 51.95 50.04 52.02 50.09C52.26 50.29 52.29 50.61 52.09 50.96C51.51 52.02 50.45 52.7 49.29 53.1C48.43 53.4 47.48 53.57 46.51 53.49V53.44L46.52 53.45Z" fill="#231F20"/>
<path d="M42.9001 79.89C43.1501 82.28 43.4901 84.67 43.8801 87.05C44.0401 87.92 44.2901 88.77 44.4301 89.63C44.9701 92.7 45.5901 95.76 46.2601 98.81C46.5701 100.16 46.9601 101.5 47.3901 102.81C47.6501 103.66 47.9801 104.48 48.1901 105.34C48.3001 105.77 48.4001 106.2 48.5001 106.64C48.6101 107.07 48.5601 107.55 48.5901 108.01C48.5901 108.59 48.3301 108.6 47.7601 108.29C47.4801 108.14 47.1001 107.91 46.6801 107.62C46.3001 107.32 45.9901 106.92 45.7701 106.45C45.3701 105.62 45.0601 104.76 44.7901 103.89C44.5001 103.03 44.2301 102.15 43.9801 101.27C43.4801 99.51 43.0201 97.73 42.7501 95.9C42.4101 93.71 41.7001 91.53 41.2501 89.32C40.7401 86.89 40.3301 84.44 39.9701 81.99C39.7401 80.48 39.5801 78.96 39.3801 77.44C39.1201 75.14 38.9701 72.82 38.7801 70.52C38.7201 69.63 38.6301 68.74 38.5101 67.86L38.3001 65.19C38.2701 64.8 38.2201 64.41 38.2801 64.01C38.3601 63.27 38.4501 62.79 38.6501 62.46C38.8801 62.14 39.2001 61.97 39.5501 61.84C39.7001 61.78 39.8401 61.7 39.9501 61.67C40.1401 61.62 40.3001 61.75 40.5901 62.03C40.9001 62.32 41.1301 62.73 41.2101 63.25C41.5401 64.78 41.6901 66.33 41.8201 67.9C42.0301 69.47 42.1001 71.06 42.2401 72.67C42.4101 75.05 42.6401 77.46 42.9601 79.86L42.8801 79.88L42.9001 79.89Z" fill="#231F20"/>
<path d="M61.6002 83.57L61.4802 89.92C61.4702 90.69 61.5402 91.46 61.5102 92.24C61.4102 94.96 61.3202 97.69 61.2202 100.41C61.1602 101.62 61.1802 102.83 61.2002 104.03C61.2002 104.8 61.3002 105.57 61.2102 106.34C61.1602 107.11 61.0902 107.89 60.7702 108.66C60.4402 109.14 60.4502 109.07 60.0302 108.66C59.8102 108.46 59.5702 108.17 59.2902 107.82C59.0402 107.47 58.8602 107.07 58.7802 106.63C58.6002 105.85 58.5702 105.07 58.5402 104.28C58.5102 103.5 58.4802 102.71 58.4702 101.93C58.4202 100.36 58.5502 98.79 58.7102 97.2C58.9002 95.31 58.7402 93.34 58.7602 91.4L58.8302 85.01L58.8802 81.08C58.8802 79.1 58.9102 77.1 58.8202 75.14C58.7502 73.61 58.5202 72.12 58.3602 70.62C58.3202 70.29 58.2602 69.97 58.2402 69.63C58.2402 69.01 58.2802 68.6 58.4102 68.3C58.5702 68 58.7602 67.83 59.0102 67.68C59.1302 67.61 59.2302 67.53 59.3402 67.48C59.5202 67.41 59.6802 67.5 59.8902 67.71C60.0902 67.93 60.3502 68.27 60.4602 68.72C60.7002 69.39 60.8102 70.07 60.9202 70.77C61.0302 71.46 61.1202 72.16 61.1902 72.87C61.3402 74.28 61.4302 75.71 61.5002 77.15C61.6002 79.28 61.6302 81.42 61.6802 83.56H61.6102L61.6002 83.57Z" fill="#231F20"/>
<path d="M72.59 90.47C72.96 88.29 73.26 86.1 73.49 83.89C73.57 83.08 73.56 82.27 73.64 81.47C73.9 78.63 74.12 75.77 74.25 72.91C74.28 71.64 74.25 70.36 74.17 69.1L74.08 67.89C74.06 67.48 74.07 67.08 74.06 66.67C74.06 66.26 74.04 65.86 74.12 65.45C74.2 65.04 74.29 64.63 74.42 64.21C74.59 63.69 74.78 63.75 75.21 64.15C75.43 64.35 75.75 64.64 76.05 64.99C76.2 65.17 76.38 65.36 76.49 65.57C76.59 65.78 76.67 66 76.71 66.24C76.88 67.07 77.01 67.91 77.02 68.75C77.07 69.59 77.08 70.43 77.08 71.28C77.08 72.97 77 74.66 76.81 76.35C76.54 78.37 76.61 80.48 76.44 82.56C76.26 84.83 75.97 87.1 75.65 89.36C75.44 90.75 75.23 92.14 74.98 93.52C74.65 95.62 74.13 97.69 73.73 99.76C73.4 101.36 73.23 102.97 72.87 104.55C72.79 104.9 72.74 105.25 72.64 105.59C72.47 106.24 72.21 106.62 72.02 106.89C71.82 107.15 71.56 107.26 71.27 107.33C71.14 107.36 71.02 107.41 70.93 107.43C70.67 107.49 70.29 106.81 70.32 105.83C70.42 102.91 71.04 100.02 71.48 97.06C71.79 94.86 72.24 92.68 72.53 90.47H72.6H72.59Z" fill="#231F20"/>
<path d="M86.4899 51.2C87.2599 50.79 87.9699 50.06 88.4099 49.15C88.5599 48.84 88.5899 48.5 88.6699 48.17C88.9699 46.99 88.6199 45.6 87.7299 44.53C87.3499 44.03 86.7899 43.71 86.2299 43.44C85.8799 43.23 85.4799 43.14 85.0899 42.97C84.8899 42.89 84.6999 42.79 84.4899 42.69C84.2799 42.61 84.0699 42.53 83.8499 42.44C83.5799 42.32 83.5999 42.2 83.8499 41.98C84.0999 41.78 84.5999 41.33 85.2499 41.21C87.5099 40.9 89.9099 42.58 90.6699 44.83C90.9199 45.49 91.0899 46.18 91.2299 46.88C91.3099 47.59 91.3699 48.32 91.1999 49.02C91.1399 49.41 90.9899 49.77 90.8699 50.14C90.7099 50.48 90.5699 50.82 90.3699 51.14C89.9999 51.79 89.5099 52.37 88.9699 52.89C88.2799 53.51 87.4699 53.98 86.6299 54.31C85.3299 54.79 83.9599 54.87 82.6799 54.77C81.6899 54.68 80.6699 54.69 79.7399 54.38C79.5299 54.32 79.3199 54.27 79.1199 54.19C78.3999 53.82 78.2899 53.46 78.3799 52.88C78.3999 52.75 78.4099 52.61 78.4499 52.49C78.5699 52.09 79.0099 51.86 79.5899 51.79C80.4199 51.77 81.1899 51.71 81.8999 51.78C82.6099 51.8 83.2799 51.78 83.8999 51.78C84.8399 51.78 85.6899 51.59 86.4399 51.14L86.4799 51.2H86.4899Z" fill="#231F20"/>
<path d="M42.83 61.83L44.21 62.12L45.61 62.35C46.54 62.52 47.48 62.6 48.43 62.7C49.12 62.78 49.82 62.73 50.51 62.78C52.96 62.93 55.43 62.92 57.9 62.82C59 62.8 60.1 62.64 61.18 62.52C61.87 62.42 62.57 62.34 63.27 62.27C63.62 62.24 63.97 62.18 64.33 62.19C64.69 62.21 65.04 62.23 65.41 62.25C65.86 62.29 65.81 62.33 65.48 62.57C65.25 62.74 65.01 62.93 64.79 63.09C64.65 63.19 64.49 63.33 64.32 63.43C64.15 63.51 63.96 63.59 63.76 63.65C63.06 63.84 62.35 64.04 61.64 64.2C60.92 64.34 60.2 64.44 59.48 64.55C58.03 64.75 56.57 64.89 55.09 64.82C53.33 64.79 51.49 64.93 49.68 64.87C48.69 64.87 47.69 64.74 46.7 64.67C45.71 64.56 44.72 64.43 43.74 64.28C42.53 64.05 41.33 63.81 40.14 63.48C38.33 63.03 36.59 62.33 34.87 61.63C34.21 61.33 33.56 61.03 32.9 60.75C32.24 60.47 31.62 60.09 31 59.72C30.72 59.56 30.44 59.42 30.2 59.2C29.73 58.82 29.46 58.53 29.33 58.26C29.22 57.96 29.22 57.73 29.27 57.49C29.29 57.38 29.3 57.26 29.33 57.18C29.39 57.03 29.55 56.99 29.82 56.99C30.09 56.99 30.48 57.02 30.83 57.22C33.01 58.27 35.11 59.45 37.47 60.28C38.34 60.58 39.22 60.88 40.12 61.14C41.03 61.36 41.93 61.64 42.86 61.78V61.84L42.83 61.83Z" fill="#231F20"/>
<path d="M32.5301 24.49C33.7001 22.8 35.2601 21.39 37.0701 20.47C37.4001 20.31 37.7301 20.14 38.0601 19.97C38.4001 19.83 38.7501 19.71 39.1001 19.6C41.5901 18.88 44.2901 19.03 46.6001 20.05C47.1301 20.23 47.6001 20.56 48.0901 20.82C48.5801 21.09 49.0001 21.48 49.4501 21.79C49.9201 22.33 50.4701 22.8 50.7901 23.45C50.9601 23.77 51.1401 24.07 51.2301 24.41C51.3101 24.75 51.3901 25.08 51.4801 25.43C51.5701 25.85 51.4301 25.82 51.0901 25.59C50.7301 25.36 50.2201 24.92 49.6201 24.52C47.9301 22.83 45.9201 21.87 43.5501 21.44C42.1301 21.18 40.5801 21.51 39.2301 22.09C37.7201 22.7 36.3301 23.65 35.2601 24.93L34.7601 25.52L34.3501 26.18L33.9401 26.84L33.6401 27.52C33.1201 28.93 33.0401 30.56 33.5301 32.03C33.9201 33.17 34.6501 34.15 35.5101 34.88C35.7001 35.04 35.8901 35.19 36.1001 35.33C36.4601 35.6 36.6601 35.83 36.7801 36.05C36.9101 36.25 36.9501 36.47 36.9401 36.75C36.9401 36.88 36.9501 37.01 36.9401 37.12C36.9201 37.31 36.7801 37.43 36.5201 37.49C36.2501 37.56 35.8701 37.54 35.4301 37.38C34.1401 36.88 33.0901 35.87 32.3001 34.7C31.5101 33.52 31.0001 32.12 30.8301 30.66C30.7101 29.57 30.8201 28.44 31.1101 27.37C31.2501 26.83 31.4701 26.32 31.7001 25.81L32.4801 24.46L32.5301 24.49Z" fill="#231F20"/>
<path d="M23.9299 44.76C23.8499 44.25 23.9299 43.71 23.9499 43.19C23.9999 42.67 24.1399 42.15 24.2499 41.65C24.5799 40.65 25.0299 39.72 25.6599 38.89C26.1099 38.27 26.6299 37.7 27.2299 37.26C28.2899 36.47 29.4899 35.96 30.7099 35.66C31.9299 35.37 33.1799 35.2 34.4199 35.34C35.5099 35.47 36.6099 35.66 37.6299 36.09C38.2799 36.37 38.8899 36.76 39.4199 37.24C39.9699 37.7 40.2699 38.4 40.5199 39.03C40.6699 39.43 40.6199 39.38 40.2899 39.19C40.1299 39.09 39.8899 38.97 39.6099 38.85C39.4599 38.79 39.2899 38.76 39.1199 38.71C39.0299 38.69 38.9599 38.66 38.8599 38.64L38.6599 38.51L37.8899 38.13C37.6199 38.03 37.3399 37.97 37.0899 37.86L36.2899 37.62L35.4599 37.47C34.8899 37.4 34.3199 37.37 33.7399 37.39C33.1599 37.39 32.5599 37.4 31.9699 37.48C30.5299 37.64 29.1699 38.44 28.1599 39.4C27.0299 40.41 26.2199 41.93 26.0899 43.52C25.9499 44.5 26.1299 45.52 26.4199 46.5C26.8999 47.98 27.7599 49.4 28.8699 50.54C29.7399 51.43 30.7699 52.11 31.7999 52.73C32.0199 52.88 32.2599 52.98 32.4999 53.11C33.3399 53.65 33.5799 53.9 33.6799 54.29C33.6999 54.38 33.7399 54.47 33.7499 54.54C33.7799 54.76 33.2999 54.83 32.4499 54.73C31.8399 54.6 31.2499 54.39 30.6799 54.12C30.0999 53.87 29.5199 53.57 28.9899 53.19C27.9499 52.41 26.9999 51.48 26.1799 50.42C24.9899 48.83 24.1299 46.89 23.9199 44.77H23.9699L23.9299 44.76Z" fill="#231F20"/>
<path d="M49.5498 58.8C48.4198 58.68 47.2798 58.57 46.1598 58.4C45.0298 58.26 43.8998 58.09 42.7798 57.89C41.9598 57.76 41.1298 57.69 40.3098 57.5C37.4298 56.93 34.5998 56.01 31.8698 54.92C31.2698 54.66 30.6498 54.44 30.0498 54.18C29.4498 53.9 28.8598 53.62 28.2698 53.34C26.7898 52.58 25.2398 51.72 24.3198 50.21C24.0198 49.77 24.1698 49.73 24.7098 49.77C25.0598 49.8 25.4298 49.83 25.7798 49.86C26.1898 49.92 26.5498 50.09 26.9498 50.29C27.3098 50.46 27.6798 50.61 28.0098 50.8C28.3498 50.99 28.6698 51.21 29.0298 51.37L31.1798 52.36C31.9298 52.64 32.6698 52.93 33.4198 53.24C34.1898 53.5 34.9598 53.76 35.7198 54.05C36.6398 54.38 37.6398 54.56 38.6198 54.79C39.6198 54.96 40.6198 55.13 41.6098 55.3L44.9098 55.79C46.0198 55.91 47.1298 56.06 48.2398 56.15C49.6098 56.27 50.9898 56.39 52.3698 56.44C54.4598 56.54 56.5598 56.61 58.6398 56.52C60.2498 56.45 61.8298 56.2 63.4198 55.99C63.7698 55.94 64.1098 55.87 64.4598 55.86C65.1198 55.83 65.5498 55.86 65.8598 55.98C66.0198 56.06 66.1398 56.15 66.2498 56.27C66.3598 56.4 66.4498 56.56 66.5298 56.7C66.5998 56.84 66.6998 56.95 66.7398 57.04C66.8198 57.21 66.7198 57.37 66.4998 57.67C66.2798 58 65.9098 58.19 65.4298 58.32C64.0098 58.77 62.5198 58.91 61.0098 59.04C59.4998 59.16 57.9598 59.18 56.4298 59.18C54.1398 59.15 51.8398 59.03 49.5498 58.85V58.79V58.8Z" fill="#231F20"/>
<path d="M78.86 61.56C77.97 62.08 77.11 62.32 76.27 62.42C75.43 62.55 74.61 62.54 73.8 62.48C73.21 62.44 72.63 62.39 72.06 62.25C70.06 61.72 68.24 60.68 66.83 59.25C66.52 58.93 66.24 58.59 65.94 58.27C65.64 57.95 65.45 57.54 65.2 57.18C64.9 56.71 64.68 56.19 64.5 55.67C64.33 55.14 64.29 54.57 64.2 54.05C64.16 53.72 64.2 53.75 64.4 53.98C64.59 54.21 65.04 54.59 65.42 55.05C65.6 55.25 65.82 55.42 65.96 55.62C66.12 55.81 66.24 56.03 66.43 56.2L66.94 56.73C67.03 56.81 67.11 56.9 67.17 57.01L67.42 57.27L67.9 57.8C68.06 57.97 68.26 58.12 68.43 58.28C68.77 58.63 69.18 58.88 69.56 59.19C70.54 59.86 71.78 60.14 72.97 60.29C74.28 60.46 75.66 60.42 76.84 60.01L77.34 59.78C77.51 59.7 77.61 59.59 77.76 59.51C78.03 59.27 78.32 58.97 78.52 58.66C79.19 57.73 79.42 56.5 79.13 55.32C78.92 54.4 78.35 53.59 77.77 52.84C77.64 52.67 77.48 52.53 77.38 52.35C76.97 51.69 76.99 51.37 77.44 50.8C77.53 50.68 77.59 50.56 77.67 50.47C77.8 50.32 77.97 50.27 78.28 50.24C78.6 50.2 78.88 50.32 79.16 50.54C80.04 51.17 80.61 52.11 81.08 53.14C81.53 54.18 81.8 55.41 81.7 56.71C81.64 57.67 81.36 58.66 80.85 59.5C80.61 59.92 80.31 60.31 80 60.65L79.51 61.15C79.33 61.32 79.08 61.48 78.87 61.64L78.83 61.59L78.86 61.56Z" fill="#231F20"/>
</svg>
