<svg width="128" height="128" viewBox="0 0 128 128" fill="none" xmlns="http://www.w3.org/2000/svg">
<path d="M77.65 97.3C77.65 97.3 86.93 89.08 89.52 83.9L86.58 85.38L75.54 95.98L77.66 97.31L77.65 97.3Z" fill="#231F20"/>
<path d="M63.97 42.86C57.18 41.63 54.27 37.25 54.27 37.25L56.02 36L64.58 41.56L63.96 42.87L63.97 42.86Z" fill="#231F20"/>
<path d="M84.1299 51.89C84.1299 51.89 79.9 49.34 77.16 52.88C75.24 55.37 76.7199 48.73 80.3399 49.38C83.9599 50.03 84.1399 51.88 84.1399 51.88L84.1299 51.89Z" fill="#231F20"/>
<path d="M85.3101 57.97C85.3101 57.97 87.6701 56.67 89.5301 58.68C91.3801 60.69 87.1201 55.81 87.1201 55.81L85.3101 57.98V57.97Z" fill="#231F20"/>
<path d="M58.4298 76.3C56.6398 77.2 54.2398 77.11 53.4398 77.18C52.9998 77.22 51.0798 80.29 49.0698 79.52L50.9798 74.32L53.7998 74.78L58.4298 76.3Z" fill="#231F20"/>
<path d="M61.0101 73.65C61.0101 73.65 61.7401 73.16 62.5001 70.82C62.7901 69.92 64.8701 70.09 66.2501 67.89C68.0401 65.05 60.3901 69.54 60.3901 69.54L61.0101 73.65Z" fill="#231F20"/>
<path d="M67.1302 66.94C68.4702 66.27 69.5002 62.81 69.5002 62.81C69.5002 62.81 71.9202 61.54 72.4802 59.33C72.9802 57.39 66.9502 60.34 66.9102 60.49C66.8702 60.64 67.3302 65.11 67.3302 65.11C67.3302 65.11 66.8702 67.07 67.1202 66.95L67.1302 66.94Z" fill="#231F20"/>
<path d="M38.62 69.91C39.8 71.32 41.22 72.65 42.74 73.86C43.3 74.31 43.91 74.67 44.5 75.12C45.5 75.91 46.4999 76.63 47.4199 77.1C47.8799 77.32 48.29 77.4 48.49 77.35C48.7 77.35 48.98 77 49.14 76.49C49.32 76.01 49.34 75.68 49.24 75.19C49.15 74.73 48.9199 74.27 48.6899 73.8C48.3899 73.19 47.9399 72.65 47.62 72.01C47.26 71.37 46.91 70.73 46.55 70.07C46.34 69.65 46.48 69.62 46.9 69.78C47.31 69.95 48.11 70.2 48.84 70.73C49.14 70.98 49.49 71.22 49.75 71.52C50.01 71.83 50.27 72.15 50.51 72.5C51.01 73.19 51.4 74.03 51.59 75.07C51.63 75.33 51.65 75.61 51.65 75.89C51.63 76.17 51.61 76.49 51.55 76.71L51.37 77.42C51.26 77.68 51.15 77.94 51.02 78.19C50.87 78.45 50.64 78.72 50.44 78.96C50.16 79.18 49.88 79.43 49.54 79.56C49.2 79.7 48.85 79.8 48.54 79.8C48.2 79.84 47.93 79.8 47.65 79.75C46.37 79.48 45.51 78.96 44.64 78.43C43.78 77.89 43.04 77.35 42.3 76.79C40.65 75.54 39.06 74.17 37.62 72.62C36.74 71.66 35.94 70.61 35.27 69.45C34.28 67.69 33.63 65.61 34.18 63.43C34.41 62.58 34.97 61.79 35.69 61.28C36.41 60.76 37.23 60.46 38.04 60.3C38.4 60.23 38.75 60.17 39.12 60.16C40.46 60.34 40.8 60.74 40.96 61.25C40.99 61.37 41.04 61.49 41.05 61.59C41.08 61.93 40.53 62.14 39.74 62.35C39.15 62.54 38.61 62.59 38.11 62.72C37.61 62.85 37.18 63.04 36.87 63.26C36.56 63.49 36.38 63.73 36.26 64.07C36.13 64.41 36.2 64.91 36.25 65.43C36.52 66.94 37.43 68.49 38.69 69.85L38.64 69.89L38.62 69.91Z" fill="#231F20"/>
<path d="M53.93 75.87C50.58 74.33 48.31 72 46.12 69.53C45.41 68.66 44.6 67.9 43.82 67.02C43.14 66.26 42.47 65.45 41.82 64.61C41.16 63.78 40.55 62.87 40.06 61.86C39.58 60.85 39.24 59.71 39.24 58.52C39.23 57.33 39.53 56.19 40.08 55.15C40.58 54.25 41.28 53.37 42.29 52.84C43.28 52.29 44.51 52.18 45.55 52.45C46.8 52.75 48.02 53.35 48.97 54.24C49.44 54.68 49.8 55.21 50.12 55.72C50.46 56.23 50.6 56.85 50.81 57.39C51.02 58.11 50.89 58.07 50.27 57.76C49.96 57.61 49.5 57.4 48.95 57.19C48.44 56.95 47.96 56.64 47.51 56.33C46.78 55.71 46.07 55.3 45.16 55.06C44.37 54.85 43.89 54.95 43.34 55.33C42.78 55.66 42.21 56.36 41.92 57.19C41.61 58.04 41.53 58.91 41.72 59.87C41.98 61.02 42.65 62.18 43.5 63.25C44.37 64.32 45.41 65.28 46.42 66.31C46.97 66.86 47.57 67.5 48.07 68.05C48.59 68.6 49.13 69.14 49.69 69.66C50.82 70.69 52 71.66 53.25 72.47C54.75 73.43 56.57 74.2 57.84 73.63C58.07 73.52 58.3 73.38 58.49 73.18C58.59 73.08 58.69 72.99 58.78 72.86C58.88 72.74 58.96 72.63 59 72.54C59.22 72.17 59.24 71.58 59.11 70.96C58.83 69.7 58.07 68.44 57.25 67.29C55.97 65.47 54.35 63.95 52.84 62.3C52.5 61.94 52.16 61.6 51.82 61.22C51.19 60.54 50.91 59.96 50.73 59.54C50.55 59.12 50.58 58.77 50.69 58.43C50.73 58.28 50.75 58.12 50.8 58.01C50.92 57.71 51.81 57.93 52.87 58.78C54.42 60.07 55.94 61.51 57.31 63.17C58.69 64.83 60.02 66.59 61.05 68.83C61.43 69.67 61.83 70.58 61.86 71.84C61.88 72.45 61.76 73.18 61.41 73.84C61.22 74.21 61.06 74.39 60.89 74.62C60.73 74.85 60.49 75.06 60.29 75.27C59.39 76.1 58.05 76.6 56.91 76.57C55.75 76.58 54.77 76.28 53.9 75.93L53.92 75.87H53.93Z" fill="#231F20"/>
<path d="M64.0201 66.68C64.9501 66.03 65.4601 64.92 65.3601 63.7C65.3201 62.44 64.5501 61.24 63.6101 59.81C62.9601 58.81 62.2101 57.87 61.5001 56.9C59.0101 53.5 56.2401 50.24 53.0201 47.54C52.6701 47.24 52.2901 46.96 51.9301 46.68L51.4501 46.39C51.2901 46.32 51.1301 46.29 50.9701 46.22C50.3401 46.08 49.7301 46.34 49.1901 46.85C48.5201 47.52 48.0201 48.51 47.7301 49.55C47.4101 50.61 47.4301 51.65 47.0701 52.82C46.9201 53.56 46.8001 53.54 46.2501 52.96C45.9701 52.67 45.5101 52.22 45.2101 51.59C44.9501 50.96 44.8601 50.17 45.0201 49.35C45.3201 47.91 45.8201 46.44 46.9801 45.2C47.5801 44.59 48.3301 44.02 49.3101 43.72C50.2901 43.45 51.4201 43.52 52.2701 43.92C52.7201 44.09 53.0501 44.35 53.4401 44.59L54.2101 45.21C54.7101 45.63 55.2101 46.05 55.6801 46.5C56.6301 47.38 57.5301 48.32 58.3701 49.29C60.4001 51.61 62.5401 53.95 64.3701 56.5C64.8701 57.2 65.3601 57.91 65.8301 58.63L66.5201 59.72C66.7501 60.08 66.9901 60.54 67.2001 60.95C67.5901 61.83 67.8701 62.79 67.9301 63.79C67.9701 64.8 67.7701 65.83 67.3101 66.75C66.7501 67.88 65.8401 68.81 64.7501 69.38C64.2001 69.66 63.6201 69.88 63.0201 69.98C62.7201 70.04 62.4201 70.08 62.1101 70.09C61.7801 70.14 61.3701 70.06 61.0101 69.98C60.4601 69.76 60.1001 69.52 59.7401 69.25C59.3901 68.99 59.0701 68.71 58.7701 68.43C58.1701 67.87 57.6001 67.29 57.0601 66.69C55.9701 65.52 54.9601 64.29 53.9301 63.13C53.5201 62.66 53.1701 62.32 52.6901 61.88C52.2401 61.45 51.8001 61.02 51.3701 60.58C50.5101 59.69 49.6801 58.79 48.9201 57.88C48.5801 57.49 48.2501 57.1 47.9101 56.7C47.3101 55.96 46.9201 55.46 46.7201 55.04C46.5501 54.59 46.5201 54.26 46.5901 53.89C46.6201 53.72 46.6301 53.54 46.6801 53.4C46.7701 53.17 47.0201 53.14 47.4201 53.25C47.8201 53.37 48.4001 53.62 48.9601 54.12C49.8201 54.84 50.6401 55.64 51.4201 56.43C52.1701 57.25 52.8801 58.04 53.6201 58.8C53.9901 59.18 54.3601 59.55 54.7401 59.92C55.0801 60.23 55.6401 60.79 56.0001 61.21C56.7801 62.08 57.5201 62.91 58.2301 63.76C59.2901 64.98 60.4101 66.26 61.4501 67.09L61.7701 67.31C61.8501 67.34 61.8401 67.37 61.8501 67.35C61.7501 67.37 62.1601 67.38 62.4101 67.31C62.9601 67.21 63.4901 66.98 63.9301 66.65L63.9701 66.7L64.0201 66.68Z" fill="#231F20"/>
<path d="M84.5002 55.45C84.7602 54.75 84.8302 54.12 84.7402 53.55C84.6802 53.35 84.5902 53.16 84.4702 52.97C84.3302 52.6 83.9702 52.24 83.5502 51.87C83.1302 51.5 82.6402 51.19 82.1502 50.86C81.7102 50.57 81.2302 50.35 80.7502 50.15C80.1402 49.89 79.5302 49.59 78.9402 49.24C78.7602 49.12 78.8202 48.98 79.0502 48.83C79.2802 48.68 79.6902 48.48 80.1202 48.49C80.4902 48.51 80.8702 48.53 81.2302 48.59C81.5902 48.67 81.9402 48.77 82.2902 48.88C82.9902 49.1 83.6602 49.42 84.2702 49.89C84.6402 50.16 85.0402 50.41 85.4602 50.7C85.8902 50.99 86.3102 51.41 86.6302 51.87C87.3602 52.94 87.4002 54.28 87.1802 55.33C87.0602 56 86.8202 56.6 86.5902 57.19C86.2202 58.07 85.7202 58.85 85.3002 59.65C84.9702 60.27 84.7702 60.96 84.4402 61.57C84.3602 61.7 84.3102 61.84 84.2202 61.97C84.0502 62.2 83.9102 62.33 83.7202 62.35C83.5002 62.35 83.2902 62.3 83.0302 62.18C82.9102 62.13 82.7902 62.09 82.6902 62.03C82.5102 61.94 82.4002 61.8 82.2902 61.6C82.1902 61.41 82.0902 61.14 82.1502 60.94C82.3102 59.61 82.9702 58.64 83.4802 57.61C83.8702 56.86 84.2502 56.13 84.4502 55.42H84.5102L84.5002 55.45Z" fill="#231F20"/>
<path d="M93.4001 60.68C93.5501 61.26 93.6501 61.83 93.7301 62.43C93.8101 63.03 93.8501 63.7 93.7901 64.37C93.7401 64.86 93.7301 65.36 93.5801 65.8C93.0301 67.36 92.2001 68.46 91.5201 69.66C91.2101 70.18 90.9601 70.74 90.7201 71.29C90.5701 71.64 90.4101 71.99 90.2301 72.33C90.1301 72.5 90.0601 72.67 89.9101 72.82C89.7601 72.96 89.5901 73.09 89.4201 73.23C89.2001 73.39 88.9801 73.25 88.7201 72.91C88.5901 72.74 88.4301 72.51 88.2901 72.25C88.2201 72.12 88.1401 71.98 88.1001 71.85C88.0801 71.73 88.0801 71.61 88.1001 71.5C88.2101 71.11 88.3101 70.72 88.4501 70.35C88.6101 69.99 88.7801 69.64 88.9601 69.29C89.3201 68.59 89.7301 67.92 90.1701 67.29C90.7001 66.53 90.9201 65.61 91.0701 64.89C91.2601 64.1 91.1701 63.21 90.9501 62.22C90.8201 61.62 90.6501 61.03 90.4301 60.47C90.0901 59.63 89.7001 58.78 89.0701 58.14C88.5901 57.63 87.9401 57.37 87.3801 57.05C87.2501 56.99 87.1101 56.94 86.9901 56.86C86.5101 56.62 86.4301 56.33 86.4601 55.83C86.4601 55.71 86.4601 55.6 86.4801 55.49C86.5301 55.14 86.8801 54.9 87.4601 54.87C88.2501 54.93 89.1601 55.08 89.8901 55.56C90.6301 56.01 91.2901 56.63 91.8301 57.31C92.2301 57.82 92.5801 58.36 92.8401 58.93C93.0801 59.51 93.3001 60.09 93.4601 60.67L93.4001 60.69V60.68Z" fill="#231F20"/>
<path d="M38.05 105.09C38.05 105.09 37.98 105.09 37.94 105.09C37.91 105.09 37.92 105.09 37.87 105.12C37.79 105.17 37.68 105.23 37.56 105.32C37.07 105.67 36.51 106.2 35.92 106.66C35.34 107.14 34.75 107.66 34.17 108.18C33.58 108.69 33.07 109.3 32.5 109.86C31.38 111 30.27 112.14 28.92 113.23C28.56 113.5 28.21 113.77 27.75 114.02C27.51 114.15 27.28 114.27 26.94 114.38C26.64 114.48 26.19 114.58 25.62 114.47C25.35 114.41 25 114.26 24.78 114.08C24.55 113.89 24.34 113.7 24.16 113.28C23.97 112.87 24.01 112.63 24 112.31C24.02 112.07 24.08 111.89 24.13 111.68C24.36 111.04 24.63 110.68 24.88 110.28C25.62 109.21 26.38 108.33 27.15 107.43C27.9 106.53 28.7 105.71 29.49 104.9C30.18 104.18 30.86 103.46 31.5 102.74C32.13 102.02 32.73 101.26 33.1 100.58L33.21 100.34L33.28 100.15C33.29 100.1 33.28 100.08 33.31 100.05C33.24 100.09 33.69 100.02 33.67 100.01C33.69 100.01 33.72 100 33.76 99.98C33.78 99.97 33.7 100.01 33.69 100.03C33.68 100.04 33.67 100.05 33.66 100.07V100.08C34.46 99.17 33.88 99.83 34.06 99.63V99.64C34.06 99.64 34.04 99.69 34.04 99.72C34.01 99.84 34.04 99.89 34.06 100.04C34.06 100.14 34.08 100.24 34.11 100.33L34.15 100.47C34.15 100.47 34.15 100.47 34.16 100.48C34.17 100.46 34.08 100.51 34.04 100.52C33.43 100.83 32.64 101.54 31.95 102.19C30.54 103.56 29.22 105.1 27.83 106.58L26.78 107.7L25.57 108.94C24.46 110.05 23.26 111 22.3 111.17C21.88 111.28 21.37 111.28 20.93 110.89C20.53 110.52 20.28 110.03 20.18 109.54C20 108.54 20.25 107.42 20.83 106.23C21.51 104.88 21.97 104.28 22.51 103.5C23.04 102.75 23.61 102.03 24.18 101.33L26.37 98.68L27.45 97.42C27.62 97.21 27.78 97.01 27.91 96.82C27.98 96.72 28.02 96.64 28.06 96.58C28.08 96.56 28.06 96.56 28.07 96.56C28.1 96.56 27.99 96.54 28.22 96.59L28.34 96.61H28.36C27.82 96.5 28.21 96.58 28.09 96.56C28.09 96.56 28.09 96.56 28.12 96.57C28.2 96.59 28.29 96.61 28.38 96.61C28.47 96.61 28.56 96.61 28.65 96.61C28.71 96.61 28.75 96.62 28.81 96.61C28.94 96.57 28.96 96.58 28.98 96.55C28.95 96.59 28.97 96.58 28.95 96.73C28.95 96.79 28.96 96.84 28.98 96.89C29 96.96 29.02 97.06 29.04 97.14C29.07 97.23 29.1 97.31 29.14 97.39C29.11 97.4 29 97.45 28.9 97.51C28.7 97.63 28.47 97.79 28.25 97.95L26.9 98.97L25.51 100.01C25.03 100.34 24.49 100.61 23.93 100.85C23.21 101.13 22.85 101.14 22.87 101.1C22.87 101.05 23.21 100.9 23.58 100.39C23.97 99.9 24.35 99.06 24.99 98.24C25.3 97.81 25.64 97.36 26.04 96.88C26.45 96.4 26.85 95.92 27.5 95.4C27.65 95.29 27.83 95.14 28.12 95.01C28.23 94.96 28.34 94.92 28.46 94.88C28.5 94.86 28.67 94.83 28.78 94.82C28.92 94.82 28.98 94.8 29.19 94.82C29.69 94.89 30.15 95.15 30.46 95.63C30.53 95.74 30.6 95.89 30.63 95.96L30.69 96.15C30.72 96.28 30.74 96.41 30.75 96.55C30.75 96.86 30.72 97.09 30.67 97.25C30.63 97.43 30.56 97.62 30.52 97.71C30.42 97.96 30.33 98.14 30.24 98.31C29.88 98.98 29.53 99.47 29.18 99.99C28.48 101 27.67 101.84 26.95 102.73L24.81 105.34L24.32 105.99L24.08 106.31L23.91 106.56C23.91 106.56 23.88 106.58 23.85 106.61C23.81 106.65 23.74 106.76 23.79 106.86C23.85 106.9 23.92 106.86 24.03 106.8L24.07 106.77H24.09C24.09 106.77 24.09 106.77 24.16 106.69L24.77 106.09L25.98 104.85L28.43 102.3C28.93 101.79 29.44 101.27 29.94 100.75C30.44 100.22 30.96 99.69 31.54 99.16C31.84 98.9 32.14 98.63 32.54 98.37C32.72 98.24 32.98 98.1 33.27 97.98C33.47 97.92 33.61 97.86 33.88 97.84C34.19 97.84 34.45 97.82 34.82 98.01C34.98 98.09 35.18 98.22 35.27 98.3C35.35 98.38 35.42 98.46 35.49 98.54C35.65 98.7 35.75 98.89 35.83 99.1C35.92 99.31 35.98 99.52 35.99 99.7C36.01 99.88 36.03 100.1 36 100.24C35.94 100.92 35.73 101.32 35.55 101.76C34.74 103.32 33.76 104.41 32.79 105.56C31.81 106.67 30.82 107.74 29.82 108.77C28.74 109.87 27.56 111.02 26.82 112.1C26.74 112.23 26.67 112.35 26.64 112.43C26.58 112.49 26.69 112.48 26.56 112.48C26.37 112.48 26.3 112.45 26.22 112.44C26.14 112.44 26.03 112.46 25.96 112.48C25.95 112.48 25.93 112.48 25.91 112.48H25.89V112.49C26.46 112.04 26.05 112.37 26.17 112.27H26.16C26.14 112.27 26.13 112.29 26.11 112.3C26.09 112.31 26.04 112.39 26.05 112.38C26.06 112.36 26.06 112.35 26.06 112.34C26.05 112.36 26.09 112.24 26.09 112.19C26.1 112.11 26.09 112.09 26.09 111.98C26.09 111.81 26.09 111.86 26.09 111.86C26.09 111.86 26.09 111.86 26.12 111.86C26.26 111.83 26.56 111.68 26.83 111.49C27.11 111.31 27.4 111.08 27.68 110.85C29.98 108.88 32.08 106.49 34.3 104.11C34.65 103.75 35.04 103.41 35.46 103.07C35.67 102.9 35.89 102.74 36.15 102.57C36.38 102.41 36.78 102.22 37.11 102.1C38.49 101.59 40.08 101.6 40.99 102.66C41.87 103.73 41.52 105.35 40.98 106.58C40.5 107.65 39.91 108.47 39.28 109.29C38.31 110.5 37.3 111.6 36.28 112.64C35.79 113.16 35.28 113.69 34.96 114.24C34.79 114.51 34.66 114.79 34.61 115.01C34.56 115.24 34.58 115.33 34.65 115.44C34.65 115.47 34.7 115.5 34.73 115.54L34.75 115.57C34.53 115.82 35.25 115.02 34.25 116.14V116.12C34.25 116.12 34.25 116.07 34.25 116.04C34.23 116.01 34.2 115.84 34.14 115.76L34.03 115.56L33.97 115.46C34.01 115.44 34.16 115.31 34.27 115.2C34.51 114.97 34.76 114.7 35 114.44L36.46 112.8C37.44 111.69 38.41 110.58 39.38 109.48C39.77 109.06 40.13 108.61 40.51 108.17L41.08 107.51L41.45 107.09L41.88 106.62C42.49 106.04 43.14 105.5 43.77 105.15C44.41 104.81 44.97 104.6 45.63 104.68C45.97 104.74 46.27 104.98 46.53 105.21C46.8 105.44 47.01 105.73 47.14 106.04C47.42 106.66 47.5 107.32 47.4 108.07C47.32 108.82 47 109.65 46.62 110.45L46.33 111.04L46.11 111.46L45.7 112.22C45.24 113.08 44.79 113.92 44.33 114.78C43.52 116.34 43.26 117.29 43.17 117.83C43.02 118.38 43.02 118.79 43.07 119.27C43.09 119.49 43.21 119.71 43.23 119.88C43.25 120.02 43.18 120.07 43.01 120.07C42.83 120.06 42.54 120 42.17 119.75C41.8 119.52 41.34 119.04 41.11 118.34C40.85 117.64 40.89 116.82 41.04 116.03C41.55 113.71 42.62 111.87 43.41 110.05L43.56 109.72L43.58 109.66C43.58 109.66 43.59 109.59 43.59 109.56C43.59 109.51 43.59 109.46 43.58 109.43C43.56 109.36 43.47 109.31 43.4 109.37C43.33 109.43 43.31 109.49 43.29 109.52C43.29 109.52 43.29 109.52 43.29 109.54L43.16 109.65L42.58 110.14C42.2 110.48 41.78 110.79 41.45 111.19C40.04 112.72 38.68 114.32 37.22 115.94C36.95 116.24 36.67 116.54 36.36 116.86C36.2 117.02 36.04 117.18 35.82 117.37C35.69 117.47 35.61 117.56 35.29 117.76C35.25 117.79 35.03 117.89 34.88 117.94C34.8 117.97 34.5 118.04 34.3 118.03C34.21 118.06 33.54 117.97 33.2 117.68C32.95 117.49 33.05 117.56 33.01 117.53L32.98 117.5L32.92 117.44L32.81 117.32C32.52 117.03 32.25 116.57 32.11 116.09C31.97 115.61 31.97 115.11 32.03 114.73C32.17 113.94 32.46 113.43 32.72 112.99C33.82 111.34 34.7 110.07 35.73 108.91C36.69 107.76 37.59 106.53 38.03 105.49L38.1 105.35L38.11 105.32C38.11 105.3 38.12 105.29 38.12 105.27C38.12 105.23 38.08 105.2 38.04 105.2L38.06 105.11L38.05 105.09Z" fill="#231F20"/>
<path d="M101.24 103.59C101.14 103.47 101 103.31 100.81 103.15C100.76 103.11 100.7 103.07 100.65 103.07C100.59 103.07 100.59 103.11 100.58 103.13C100.58 103.18 100.58 103.24 100.61 103.3C100.66 103.43 100.74 103.59 100.86 103.78L101.05 104.1C101.05 104.1 101.08 104.12 101.08 104.14L101.39 104.51C101.63 104.78 101.77 105 101.95 105.23C102.3 105.69 102.62 106.17 102.91 106.63C103.01 106.8 103.14 106.97 103.21 107.13L103.37 107.57C103.44 107.72 103.44 107.83 103.48 107.96C103.52 108.09 103.53 108.2 103.53 108.3C103.56 108.75 103.49 108.97 103.26 109.38L103.19 109.47V109.48C103.14 109.44 103.26 109.54 103.25 109.53L103.23 109.55L103.19 109.58L103.02 109.71C102.91 109.81 102.79 109.87 102.66 109.92C102.4 110.04 102.18 110.16 101.91 110.2C101.64 110.24 101.37 110.26 101.11 110.27C100.83 110.24 100.55 110.24 100.25 110.15C99.2001 109.92 98.0001 109.21 96.9001 108.4L96.5901 108.16L96.3501 107.96C96.1801 107.83 96.0301 107.69 95.8801 107.55L94.9701 106.72L93.2301 105.06L92.3701 104.26L91.6601 103.63C91.4401 103.45 91.1901 103.23 90.8701 103.14C90.7101 103.09 90.5301 103.16 90.4501 103.3C90.3701 103.44 90.3901 103.61 90.4201 103.76C90.4601 103.91 90.5301 104.07 90.6001 104.22L90.7201 104.45C90.7201 104.45 90.7601 104.53 90.7901 104.56L90.9301 104.79C91.3501 105.43 91.8301 106.05 92.3101 106.68L93.6201 108.36C93.8401 108.64 94.0501 108.94 94.2601 109.24C94.3501 109.36 94.5101 109.61 94.6501 109.83C94.8001 110.05 94.9201 110.28 95.0501 110.51C95.2701 110.96 95.4401 111.41 95.4801 111.84C95.5201 112.23 95.4401 112.76 95.0301 113C94.3101 113.53 93.3501 113.62 92.3501 113.26C92.0301 113.13 91.7101 113.04 91.4001 112.86C91.1101 112.71 90.9501 112.61 90.7301 112.47C90.3201 112.21 89.9301 111.93 89.5501 111.64C88.8001 111.06 88.1201 110.41 87.5001 109.67C86.8901 108.94 86.3601 108.17 85.8801 107.38C85.6401 106.98 85.4201 106.58 85.2001 106.18C85.0001 105.77 84.8401 105.33 84.7001 104.89C84.4301 103.74 84.3501 103.97 85.1201 104.61C85.9701 105.21 87.2801 106.46 88.6301 107.84C89.2201 108.47 89.8801 108.95 90.5401 109.51C90.8701 109.78 91.2001 110.03 91.5401 110.26C91.7101 110.37 91.8801 110.49 92.0401 110.58C92.1701 110.67 92.4701 110.82 92.3801 110.78C92.3801 110.79 92.4701 110.83 92.4401 110.74L90.9801 108.62C90.4601 107.86 89.9201 107.08 89.4101 106.25C89.3501 106.15 89.2901 106.04 89.2201 105.94L88.9801 105.58C88.7401 105.22 88.5301 104.84 88.3201 104.47C87.8801 103.71 87.7501 102.99 87.7401 102.38C87.7601 101.79 87.9501 101.24 88.4101 100.75C88.8801 100.27 89.5301 100.12 90.1101 100.16C91.4901 100.22 93.5401 101.99 94.1201 102.48C94.9801 103.21 95.8501 103.95 96.7201 104.7C97.1501 105.06 97.5801 105.4 98.0101 105.74C98.5601 106.18 98.5301 106.14 98.7201 106.28C99.0201 106.47 99.3701 106.68 99.7601 106.63C99.8601 106.62 100.01 106.57 99.9601 106.46C99.9401 106.37 99.8901 106.28 99.8401 106.19C99.7401 106.01 99.6301 105.84 99.5201 105.65C99.3401 105.38 99.5001 105.63 98.8001 104.48C98.2801 103.67 97.5801 102.86 96.9801 102.01C96.3801 101.17 95.9101 100.38 95.6501 99.78C95.5301 99.48 95.4401 99.22 95.3601 98.97L95.2001 98.3C95.1401 97.88 95.0701 97.52 95.2401 97.04C95.2901 96.93 95.3601 96.74 95.5101 96.66C95.6701 96.57 95.8201 96.55 95.9501 96.53C96.2101 96.51 96.4101 96.53 96.6401 96.6C97.7001 96.91 99.0601 97.7 100.82 99.22C101.67 99.89 102.56 100.72 103.4 101.51L104.25 102.27C104.41 102.41 104.49 102.49 104.58 102.56L104.82 102.75C105.06 102.92 105.32 103.12 105.62 103.19C105.92 103.19 106.25 103.02 106.34 102.72C106.42 102.42 106.31 102.1 106.19 101.82C106.13 101.68 106.05 101.54 105.97 101.4L105.84 101.19L105.61 100.84C104.44 98.95 102.41 97.7 100.91 95.68C100.62 95.29 100.34 94.87 100.12 94.38L99.9501 93.98L99.8501 93.51C99.7501 93.19 99.7701 92.88 99.7801 92.56C99.7501 92.23 99.9101 91.95 99.9701 91.63C100.08 91.34 100.26 91.08 100.41 90.8C100.81 90.36 101.19 89.77 101.85 89.74C102.45 89.66 103.07 89.84 103.66 90.12C103.96 90.24 104.25 90.46 104.53 90.6L105.13 91C105.89 91.56 106.56 92.17 107.23 92.78C107.81 93.31 108.4 93.8 108.89 94.41C110.8 96.6 111.33 97.17 111.8 97.37C111.86 97.38 111.93 97.36 112.01 97.34C112.07 97.3 112.12 97.26 112.17 97.23C112.25 97.19 112.27 97.21 112.25 97.35C112.24 97.47 112.11 97.78 111.69 97.91C111.28 98.04 110.85 97.94 110.4 97.79C109.95 97.64 109.47 97.42 108.97 97.16C108.22 96.76 107.5 96.33 106.78 95.92C106.07 95.5 105.45 94.97 104.8 94.52C104.17 94.04 103.48 93.65 102.93 93.22L102.75 93.09H102.72H102.67C102.64 93.09 102.62 93.09 102.6 93.12C102.57 93.17 102.58 93.22 102.59 93.24V93.26C102.59 93.26 102.6 93.24 102.65 93.35C102.67 93.46 102.71 93.59 102.78 93.72C102.83 93.85 102.89 93.99 102.99 94.14C103.65 95.31 104.74 96.55 105.93 97.86C106.15 98.08 106.43 98.4 106.64 98.64C106.85 98.89 107.06 99.15 107.27 99.43C107.53 99.76 108.46 101.11 108.81 102.14C109.14 103.22 109.13 104.15 108.64 104.94C108.5 105.12 108.35 105.3 108.18 105.49C108.03 105.68 107.78 105.76 107.59 105.91C107.16 106.12 106.71 106.39 106.25 106.37C105.37 106.47 104.36 105.99 103.34 105.36C103.08 105.2 102.88 105.05 102.64 104.89L102.38 104.71C102.31 104.66 102.24 104.62 102.18 104.56L101.42 103.93C101.32 103.83 101.33 103.82 101.26 103.74L101.21 103.59H101.24Z" fill="#231F20"/>
<path d="M104.88 91.06C103.98 90.22 103 89.44 102.05 88.59C101.7 88.28 101.31 88.04 100.96 87.71C99.73 86.6 98.53 85.39 97.44 84.09C96.93 83.54 96.48 82.93 96.02 82.34C95.76 81.94 95.42 81.59 95.23 81.14C95.04 80.69 94.89 80.22 94.76 79.76C94.69 79.46 94.88 79.41 95.24 79.49C95.59 79.57 96.19 79.73 96.6 80.05C96.76 80.21 97 80.32 97.14 80.49L97.58 80.99C97.85 81.33 98.19 81.62 98.48 81.96C99.02 82.65 99.59 83.34 100.18 84.06C100.87 84.92 101.86 85.56 102.74 86.3C103.73 87.1 104.71 87.93 105.67 88.81C106.26 89.35 106.85 89.9 107.42 90.47C107.86 90.9 108.29 91.33 108.69 91.79C109.11 92.23 109.52 92.68 109.91 93.14C110.54 93.83 111.17 94.51 111.77 95.24C111.88 95.41 112.01 95.57 112.11 95.75C112.49 96.42 112.52 96.69 112.29 97.03C112.24 97.11 112.19 97.19 112.14 97.25C111.95 97.45 111.57 97.33 111.14 96.98C110.5 96.45 109.88 95.92 109.3 95.34C109.02 95.05 108.71 94.78 108.41 94.5C108.11 94.22 107.86 93.9 107.55 93.63C106.68 92.78 105.81 91.92 104.85 91.13L104.88 91.09V91.06Z" fill="#231F20"/>
<path d="M97.4099 95.79C96.2299 97.02 95.0199 98.22 93.7399 99.36C93.2699 99.77 92.8699 100.25 92.3699 100.63C90.6699 102.03 88.7999 103.25 86.8499 104.27C86.4099 104.49 85.9899 104.75 85.5499 104.96C85.1099 105.18 84.6699 105.4 84.2299 105.62C83.1099 106.17 81.8799 106.62 80.5599 106.45C80.1599 106.42 80.1799 106.22 80.4099 105.82C80.5299 105.62 80.6899 105.36 80.8799 105.07C80.9799 104.93 81.0799 104.77 81.1999 104.65C81.3199 104.54 81.4599 104.46 81.5999 104.38L82.3499 103.93C82.5999 103.78 82.8699 103.71 83.1299 103.58C83.6399 103.31 84.1599 103.07 84.6799 102.82C85.1799 102.53 85.6899 102.25 86.2199 101.99C86.7299 101.69 87.2399 101.39 87.7699 101.11C88.3999 100.76 88.9799 100.31 89.5599 99.85L91.2199 98.37C92.4299 97.28 93.6299 96.15 94.7399 94.94C95.4499 94.21 96.1099 93.44 96.7799 92.67C97.7599 91.48 98.7499 90.28 99.5999 89.01C100.27 88.02 100.74 86.93 101.36 85.93C101.5 85.71 101.6 85.48 101.75 85.26C102.05 84.88 102.28 84.65 102.52 84.53C102.78 84.43 103.01 84.42 103.27 84.46C103.39 84.48 103.51 84.48 103.61 84.51C103.78 84.56 103.87 84.71 103.92 84.95C103.97 85.19 104.01 85.55 103.9 85.91C103.78 86.47 103.58 86.99 103.36 87.51C103.15 88.03 102.92 88.55 102.62 89.03C102.04 90 101.39 90.94 100.7 91.86C99.6899 93.23 98.5599 94.53 97.4299 95.83L97.3799 95.79H97.4099Z" fill="#231F20"/>
<path d="M83.4801 101.22C84.4501 102.42 85.3501 103.66 86.2401 104.9C86.5601 105.35 86.9401 105.76 87.2601 106.22C88.3601 107.85 89.4001 109.51 90.4301 111.17C90.9101 111.9 91.3801 112.62 91.8601 113.34C92.5101 114.24 93.0201 115.24 93.3001 116.38C93.3901 116.73 93.1301 116.8 92.7101 116.7C92.2901 116.59 91.6401 116.4 91.1501 115.97C90.9601 115.77 90.7301 115.6 90.5601 115.38L90.0501 114.73C89.7201 114.29 89.3501 113.88 89.0601 113.41C88.4701 112.48 87.9101 111.52 87.3701 110.53C86.7301 109.34 85.7901 108.31 84.9701 107.22C84.0801 106.01 83.1601 104.82 82.2301 103.65C81.6601 102.92 81.0701 102.21 80.4601 101.52C79.5401 100.48 78.5901 99.43 77.5401 98.56C77.1401 98.2 76.6901 97.93 76.2501 97.65L75.5801 97.25L74.9001 96.91C74.7001 96.81 74.4901 96.74 74.3301 96.58C73.6801 96.15 73.5901 95.73 73.5801 95.24C73.5801 95.12 73.5701 95 73.5801 94.9C73.6101 94.58 74.0501 94.42 74.8701 94.42C75.1501 94.46 75.4601 94.49 75.7201 94.56C75.9901 94.63 76.2201 94.77 76.4701 94.88C76.9801 95.11 77.4301 95.4 77.8701 95.7C78.7801 96.29 79.5601 97.01 80.3601 97.72C81.4901 98.81 82.5401 99.98 83.5501 101.16L83.5001 101.2L83.4801 101.22Z" fill="#231F20"/>
<path d="M62.91 99.46C66.83 98.47 70.54 96.74 73.99 94.58L75.84 93.32C76.45 92.89 77.02 92.4 77.62 91.96C81.82 88.78 85.61 84.99 89.06 80.92C89.8 79.99 90.52 79.05 91.24 78.1L92.3 76.69C92.61 76.24 92.89 75.76 93.12 75.27C93.72 74 94.03 72.59 94.07 71.2C94.13 69.81 94 68.43 93.61 66.99C93.33 66.11 93.4 66.16 94.08 66.71C94.41 67 94.88 67.43 95.42 68.06C95.88 68.71 96.25 69.6 96.4 70.61C96.54 72.4 96.19 74.19 95.52 75.82C95.18 76.64 94.76 77.43 94.24 78.17C93.77 78.83 93.27 79.42 92.78 80.05C90.85 82.56 88.7 84.91 86.43 87.15C85.02 88.45 83.69 89.86 82.2 91.14C80.78 92.49 79.21 93.7 77.66 94.89C74.15 97.39 70.33 99.51 66.23 100.9C63.73 101.8 61.1 102.34 58.55 102.81C57.59 102.99 56.62 103.18 55.89 103.49L55.4 103.81L54.89 104.26C54.55 104.56 54.23 104.93 53.9 105.27C52.61 106.7 51.44 108.26 50.33 109.85C48.61 112.32 47.15 114.92 45.74 117.53C45.44 118.11 45.15 118.68 44.84 119.26C43.67 121.39 43.2 121.98 42.45 122.23C42.29 122.29 42.13 122.4 42.02 122.43C41.71 122.59 41.52 121.36 42.22 119.62C43.25 117.06 44.65 114.64 46.12 112.22C47.63 109.82 49.23 107.44 51.04 105.13C51.72 104.27 52.43 103.44 53.28 102.61L53.97 101.99C54.27 101.78 54.6 101.55 54.92 101.37L55.89 101C56.19 100.91 56.46 100.85 56.75 100.78C58.96 100.29 60.91 99.98 62.88 99.39L62.9 99.45L62.91 99.46Z" fill="#231F20"/>
<path d="M78.7699 44.68C79.2599 45.26 79.6399 46.04 79.7899 46.82C79.9699 47.64 79.8499 48.31 79.7499 48.95C79.6599 49.41 79.5999 49.86 79.4499 50.28C78.8999 51.74 78.1399 52.99 77.3499 54.2C76.9999 54.74 76.6599 55.27 76.3199 55.81C76.0899 56.14 75.8899 56.51 75.6099 56.8C75.3099 57.09 74.9699 57.34 74.5999 57.56C74.3699 57.69 74.2399 57.52 74.1599 57.18C74.0899 56.85 73.9799 56.28 74.0899 55.84C74.1299 55.63 74.2099 55.46 74.3099 55.3L74.5799 54.8L75.1199 53.8C75.5299 53.17 75.9399 52.53 76.3599 51.88C76.8799 51.11 77.0899 50.17 77.2799 49.33C77.3899 48.87 77.4599 48.4 77.4499 47.99C77.4499 47.57 77.3599 47.25 77.1899 46.91C76.9799 46.5 76.5899 46.11 76.0999 45.79C75.3699 45.31 74.4699 44.93 73.5299 44.76C72.7999 44.61 72.0299 44.73 71.2899 44.7C71.1299 44.7 70.9599 44.72 70.7999 44.7C70.1999 44.61 70.0199 44.33 69.9199 43.74C69.8999 43.6 69.8599 43.47 69.8499 43.35C69.8099 42.95 70.0999 42.52 70.5999 42.29C72.0999 41.73 73.6999 41.93 75.3099 42.46C76.4899 42.87 77.7399 43.46 78.8099 44.64L78.7599 44.69L78.7699 44.68Z" fill="#231F20"/>
<path d="M25.02 95.54L29.34 91.26C29.86 90.74 30.32 90.16 30.84 89.64C31.75 88.72 32.67 87.8 33.54 86.87L34.18 86.17L34.74 85.47C35.11 84.96 35.47 84.43 35.8 83.9C36.39 82.95 36.85 81.92 37.22 80.9C37.45 80.24 37.61 79.57 37.73 78.9C37.89 78.24 38.11 77.59 38.32 76.88C38.45 76.43 38.55 76.45 38.9 76.82C39.08 77 39.31 77.28 39.59 77.65C39.82 78.02 40 78.49 40.05 78.99C39.94 80.72 39.41 82.32 38.71 83.78C38.34 84.5 37.91 85.18 37.46 85.84C37.24 86.17 37 86.49 36.76 86.8C36.5 87.12 36.21 87.47 35.93 87.75C34.6 89.11 33.43 90.6 32.15 91.96C30.74 93.45 29.3 94.92 27.86 96.37L25.2 99.05C23.87 100.42 22.51 101.76 21.26 103.18C20.29 104.28 19.46 105.47 18.58 106.62C18.39 106.88 18.18 107.1 17.96 107.33C17.53 107.74 17.23 107.99 16.95 108.11C16.65 108.21 16.4 108.21 16.13 108.15C16.01 108.12 15.87 108.11 15.77 108.08C15.6 108.02 15.54 107.85 15.54 107.57C15.54 107.29 15.6 106.88 15.81 106.48L16.26 105.56C16.41 105.25 16.57 104.94 16.78 104.68C17.17 104.13 17.58 103.59 18.01 103.06C18.87 102 19.78 100.97 20.72 99.96C22.1 98.45 23.55 96.99 24.96 95.51L25.01 95.55L25.02 95.54Z" fill="#231F20"/>
<path d="M61.4799 52.77C62.4299 53.86 63.3999 54.93 64.3999 55.96C65.3899 56.98 66.4399 58.01 67.4499 58.76C67.5899 58.86 67.7999 58.99 67.8199 59C67.8699 59.03 67.9199 59.04 67.9799 59.04H68.2399C68.3599 59.02 68.4699 58.99 68.5899 58.98C68.8099 58.94 69.0299 58.9 69.2099 58.83C69.8099 58.64 70.1499 58.34 70.3999 57.81C70.5099 57.54 70.5899 57.21 70.6099 56.87C70.6099 56.55 70.5999 56.21 70.5099 55.82C70.1599 54.25 69.2699 52.57 68.3599 50.97C67.5399 49.54 66.5799 48.15 65.6499 46.74C65.0499 45.83 64.4999 44.88 64.0299 43.83C63.7999 43.31 63.6499 42.73 63.5599 42.11C63.4599 41.5 63.5499 40.78 63.8899 40.16C64.1399 39.79 64.3599 39.73 64.4099 39.79C64.4899 39.85 64.4499 40.07 64.5799 40.37C64.6899 40.66 64.9599 40.98 65.3399 41.27C65.6799 41.57 66.0299 41.91 66.3599 42.35C66.8599 43.16 67.4499 44.01 68.0399 44.88L69.7199 47.64C70.8399 49.54 71.9899 51.49 72.7399 53.83C72.9599 54.53 73.1699 55.28 73.2499 56.13C73.3299 57.02 73.2199 57.87 72.8999 58.74C72.5699 59.61 71.9199 60.43 71.1099 60.92C70.2999 61.43 69.4299 61.63 68.6299 61.69C68.3699 61.72 68.1999 61.71 67.8199 61.72C67.5399 61.68 67.2499 61.65 66.9899 61.53C66.7199 61.45 66.4699 61.27 66.2999 61.18C65.9599 60.96 65.6499 60.72 65.3599 60.49C64.7799 60.02 64.2599 59.54 63.7399 59.05C62.7199 58.07 61.7499 57.06 60.7999 56.04C59.5499 54.68 58.3499 53.29 57.1699 51.89C56.2799 50.82 55.4099 49.73 54.5699 48.61C53.7399 47.46 52.8999 46.4 52.2199 44.97C52.1599 44.83 52.0999 44.64 52.0399 44.48L51.9499 44.06C51.8899 43.78 51.8099 43.51 51.7799 43.22L51.6599 42.37L51.6199 41.49C51.6099 40.32 51.8699 39.07 52.4899 37.97C52.7499 37.48 53.0699 37.04 53.4599 36.63C54.1999 35.89 54.8299 35.6 55.2899 35.49C55.7499 35.37 56.0899 35.5 56.3899 35.74C56.5299 35.85 56.6799 35.95 56.7599 36.07C57.0299 36.46 56.5499 37.08 55.7899 37.76C54.6499 38.84 54.1799 40.19 54.2599 41.72L54.2999 42.3L54.3999 42.9C54.4299 43.1 54.4999 43.3 54.5399 43.5L54.6099 43.8V43.84C54.4899 43.87 54.9099 43.77 54.3299 43.91H54.3499H54.3799H54.4499L54.5799 43.87C54.6799 43.85 54.6099 43.87 54.6399 43.87C54.6399 43.88 54.6399 43.89 54.6599 43.9C54.9199 44.42 55.4899 45.28 56.0299 46.01C57.6999 48.28 59.5899 50.55 61.5399 52.7L61.4899 52.75L61.4799 52.77Z" fill="#231F20"/>
<path d="M41.24 104.1C39.78 103.21 38.36 102.25 37.04 101.17C36.55 100.78 36.02 100.47 35.57 100.04C33.93 98.6 32.43 97.02 31.01 95.41C30.39 94.69 29.77 93.96 29.15 93.25C28.35 92.34 27.69 91.31 27.14 90.22C26.97 89.88 27.14 89.81 27.53 89.9C27.91 90 28.59 90.19 29.15 90.6C30.19 91.29 31.04 92.12 31.91 92.93C32.82 93.7 33.52 94.67 34.34 95.55C35.27 96.65 36.53 97.48 37.67 98.38C38.96 99.33 40.26 100.29 41.63 101.14C42.46 101.69 43.34 102.16 44.21 102.64C45.56 103.32 46.94 103.97 48.35 104.47C49.45 104.87 50.6 105.03 51.72 105.31C51.96 105.39 52.21 105.42 52.45 105.5C53.35 105.8 53.61 106.03 53.7 106.57C53.72 106.69 53.76 106.81 53.76 106.91C53.78 107.25 53.31 107.52 52.56 107.54C52.01 107.54 51.43 107.59 50.87 107.55C50.32 107.48 49.76 107.4 49.2 107.3C48.09 107.06 46.96 106.79 45.87 106.39C44.26 105.79 42.72 104.98 41.2 104.16L41.23 104.1H41.24Z" fill="#231F20"/>
<path d="M58.4201 27.01C60.2001 27.49 61.7401 28.16 63.2901 28.84C64.8201 29.52 66.3101 30.25 67.7901 30.96C68.8701 31.47 69.9801 31.95 70.9301 32.3C72.7901 33 74.8101 33.48 76.8801 34.03C78.9401 34.59 81.1001 35.2 83.0701 36.45C83.5101 36.73 83.9201 37.04 84.3201 37.37C84.7301 37.72 85.1001 38.12 85.4201 38.54C86.0701 39.38 86.5401 40.29 86.9201 41.2C87.4201 42.37 87.7801 43.57 88.0301 44.77C88.2801 45.97 88.4901 47.16 88.4201 48.37C88.2101 49.16 88.1101 49.09 87.4401 48.58C87.0901 48.33 86.7401 47.94 86.3501 47.46C86.0001 46.98 85.7201 46.4 85.5401 45.76C84.8801 43.53 84.2701 41.28 83.0601 39.9C81.8901 38.55 79.7601 37.66 77.5301 36.94C74.8101 36.04 71.6901 35.78 68.6501 34.49C65.5901 33.07 62.7101 31.55 59.7001 30.4C58.7801 30.06 57.8501 29.74 56.9701 29.59C56.7501 29.55 56.5401 29.53 56.3601 29.52C56.1801 29.51 56.0901 29.52 55.9601 29.56C55.9001 29.59 55.8401 29.61 55.7901 29.65C55.7601 29.68 55.7101 29.71 55.6201 29.77C55.5101 29.89 55.3601 30 55.2901 30.13C54.7001 30.85 55.1801 32.3 56.0601 33.38C56.9301 34.51 58.0601 35.43 59.3101 36.29C61.2201 37.61 63.3101 38.59 65.4201 39.19C65.8801 39.32 66.3501 39.4 66.8101 39.5C68.5201 39.83 69.0001 40.1 69.4101 40.88C69.5001 41.03 69.6301 41.17 69.6901 41.28C69.7901 41.47 69.6501 41.64 69.2701 41.95C69.0801 42.13 68.8301 42.24 68.5201 42.31C68.2101 42.4 67.8501 42.43 67.4601 42.43C65.0901 42.36 62.8301 41.47 60.7801 40.37C59.7501 39.81 58.7801 39.17 57.8301 38.5C56.9101 37.84 55.9201 37.09 55.0301 36.19C54.3701 35.52 53.7501 34.77 53.2301 33.86C52.7401 32.95 52.1901 31.86 52.3201 30.39C52.3801 29.66 52.6801 28.93 53.1001 28.33C53.3201 28.06 53.5501 27.77 53.8001 27.57L54.2901 27.19C54.4601 27.07 54.6501 27.01 54.8301 26.91C55.2001 26.75 55.6001 26.68 56.0101 26.65C56.4101 26.63 56.6601 26.65 56.9501 26.67C57.5001 26.73 57.9801 26.82 58.4401 26.94V27.01H58.4201Z" fill="#231F20"/>
<path d="M61.7901 17.89C61.7401 18.12 61.4301 18.18 61.0701 18.2C60.9601 18.2 60.7001 18.07 60.6801 17.99C60.6301 17.81 60.5901 17.63 60.5501 17.5C60.5401 17.41 60.5301 15.99 60.6101 15.55C60.6401 15.1 60.7401 14.68 60.8701 14.27C61.1701 13.46 61.5101 12.65 61.8601 11.85C61.9401 11.67 62.0501 11.51 62.1901 11.36C62.6701 10.86 62.9701 10.27 63.2301 9.64001C63.2701 9.54001 63.3401 9.44001 63.2901 9.29001C63.1601 9.01001 64.1801 7.48001 64.4001 7.35001C64.9301 7.00001 65.3401 6.57001 65.8701 6.23001C65.9401 6.18001 65.9701 6.09001 66.1201 6.11001C66.4701 6.14001 66.5401 5.98001 66.6801 5.85001C66.8501 5.67001 67.0601 5.52001 67.3501 5.42001C67.4801 5.37001 67.6801 5.36001 67.8401 5.33001C67.9901 5.30001 68.1701 5.50001 68.1801 5.56001C68.2001 5.70001 68.3601 5.71001 68.4601 5.77001C68.5001 5.79001 68.5401 5.82001 68.5701 5.84001C68.5901 5.86001 68.6001 6.30001 68.6501 6.78001C68.6201 7.21001 68.6101 7.66001 68.5801 7.72001C68.6001 7.79001 67.7801 9.62001 67.7301 9.85001C67.7001 9.97001 67.5801 10.03 67.4801 10.11C67.4601 10.13 67.3101 10.52 67.1701 10.9C66.9901 11.27 66.8301 11.64 66.8101 11.67C66.6001 11.92 66.5201 12.25 66.1101 12.39C66.0301 12.42 66.0101 12.48 65.9801 12.54C65.7201 13.04 65.3401 13.47 65.0001 13.93C64.8301 14.17 64.7101 14.43 64.5701 14.69C64.5401 14.74 64.4801 14.76 64.4401 14.8C64.3901 14.85 64.3301 14.89 64.3001 14.95C64.0101 15.57 63.4801 16.09 63.1901 16.73C63.1101 16.87 62.5001 17.43 62.3601 17.57C62.2901 17.65 61.8101 17.8 61.8001 17.9L61.7901 17.89Z" fill="#231F20"/>
<path d="M49.2602 20.43C49.4302 20.53 49.3202 20.76 49.0602 21.05C48.9802 21.14 48.6702 21.32 48.6002 21.31C48.4602 21.28 48.3302 21.25 48.2102 21.21C48.1402 21.18 47.4302 20.51 47.1602 20.3C46.9002 20.1 46.7002 19.86 46.5102 19.61C46.1302 19.11 45.7002 18.63 45.3402 18.12C45.2602 18 45.2102 17.88 45.1702 17.74C45.0502 17.26 44.8002 16.85 44.5002 16.47C44.4502 16.41 44.4202 16.33 44.3002 16.31C44.1002 16.28 43.3802 15.2 43.3602 15.02C43.2702 14.59 43.2502 14.12 43.1702 13.68C43.1702 13.62 43.1102 13.58 43.1702 13.47C43.3202 13.24 43.2402 13.14 43.2102 13C43.1602 12.82 43.1302 12.63 43.1602 12.41C43.1702 12.3 43.2402 12.16 43.2702 12.04C43.3002 11.93 43.5102 11.86 43.5502 11.87C43.6602 11.9 43.7202 11.79 43.8002 11.73C43.8302 11.71 43.8602 11.69 43.8902 11.68C43.9102 11.68 44.2302 11.79 44.5902 11.89C44.9002 12.02 45.2402 12.15 45.2602 12.2C45.2602 12.2 45.5402 12.49 45.8302 12.79C46.1502 13.07 46.3702 13.42 46.4402 13.48C46.5002 13.54 46.4902 13.66 46.5102 13.75C46.5102 13.79 47.2602 14.75 47.2802 14.79C47.3702 15.02 47.5702 15.2 47.5002 15.52C47.4902 15.58 47.5202 15.62 47.5502 15.66C47.7802 16.02 47.9202 16.43 48.0702 16.84C48.1402 17.05 48.2602 17.24 48.3502 17.44C48.3702 17.48 48.3502 17.53 48.3602 17.57C48.3602 17.62 48.3602 17.68 48.3902 17.73C48.6302 18.19 48.7702 18.71 49.0502 19.14C49.1102 19.24 49.1902 19.85 49.2802 19.96C49.3202 20.02 49.2102 20.38 49.2802 20.42L49.2602 20.43Z" fill="#231F20"/>
<path d="M46.7001 26.82C46.9301 26.71 47.0801 27.01 47.2001 27.52C47.2401 27.68 47.1901 28.17 47.1201 28.23C46.9901 28.36 46.8501 28.48 46.7101 28.57C46.6301 28.62 45.3801 28.85 44.9401 28.96C44.5201 29.06 44.1101 29.08 43.7001 29.08H42.4501C42.0401 29.06 41.6201 29.02 41.2101 28.98C41.0301 28.96 40.8501 28.91 40.6801 28.83C40.0901 28.55 39.4701 28.46 38.8401 28.43C38.7301 28.43 38.6301 28.39 38.5101 28.49C38.3101 28.65 36.6201 28.41 36.4201 28.28C36.1701 28.13 35.9101 28 35.6601 27.87C35.4101 27.72 35.1701 27.57 34.9101 27.41C34.8401 27.37 34.7501 27.39 34.7101 27.24C34.6101 26.9 34.4401 26.91 34.2801 26.85C34.0601 26.76 33.8401 26.65 33.6401 26.5C33.5401 26.42 33.4601 26.24 33.3801 26.08C33.3101 25.94 33.4501 25.54 33.5001 25.5C33.6301 25.39 33.5901 25.18 33.6201 25C33.6201 24.94 33.6401 24.86 33.6601 24.82C33.6901 24.73 35.1501 24.2 35.2901 24.21C35.2901 24.21 35.4301 24.21 35.6201 24.21C35.8101 24.21 36.0601 24.21 36.3201 24.21C36.8301 24.23 37.3601 24.29 37.4701 24.27C37.5901 24.27 37.6801 24.36 37.7901 24.43C37.8401 24.46 39.3701 24.52 39.4301 24.53C39.7301 24.63 40.0601 24.57 40.3301 24.89C40.3801 24.95 40.4501 24.95 40.5101 24.96C41.0501 25.01 41.5701 25.21 42.1001 25.36C42.3701 25.44 42.6501 25.44 42.9201 25.5C42.9701 25.51 43.0101 25.56 43.0601 25.59C43.1201 25.62 43.1801 25.67 43.2401 25.68C43.8901 25.79 44.5201 26.05 45.1801 26.07C45.3301 26.08 46.0201 26.47 46.2001 26.46C46.3001 26.46 46.5801 26.86 46.6801 26.81L46.7001 26.82Z" fill="#231F20"/>
</svg>
