<svg width="128" height="128" viewBox="0 0 128 128" fill="none" xmlns="http://www.w3.org/2000/svg">
<path d="M84.0899 116.7C83.8699 116.97 83.6699 117.13 83.4599 117.26C83.2299 117.41 83.1099 117.52 82.6299 117.62C82.0399 117.67 81.7499 117.49 81.4399 117.31C81.1399 117.12 80.8999 116.88 80.6699 116.58C80.2899 116.06 79.8999 115.46 79.5199 114.34C79.1299 113.27 78.8299 111.49 78.6499 109.91L78.5799 109.46C78.5799 109.29 78.4899 109.17 78.5099 109.16C78.5099 109.14 78.4899 109.11 78.4799 109.1C78.4799 109.1 78.4699 109.1 78.5299 109.06L78.7399 108.89C78.9899 108.64 79.0199 108.53 79.0199 108.54C79.0199 108.56 79.0199 108.55 79.0199 108.58C79.0199 108.63 79.0199 108.67 79.0199 108.71V108.74V108.75L79.1099 109.32H79.0899L79.0599 109.34C78.9699 109.36 78.9499 109.38 78.8999 109.44C78.8499 109.48 78.7799 109.58 78.6999 109.74C78.3999 110.32 78.2399 111.39 78.1899 112.43L78.1199 113.71C78.0999 114.18 78.0799 114.65 78.0199 115.09C77.9399 116 77.7199 116.75 77.4299 117.28C77.1399 117.82 76.8399 118.26 76.3799 118.62C76.1499 118.79 75.8699 118.95 75.5499 119.03C75.3899 119.08 75.2199 119.09 75.0599 119.11C74.8899 119.1 74.7199 119.07 74.5999 119.01C74.1299 118.79 73.8899 118.44 73.5699 117.98C73.2899 117.49 72.9499 116.9 72.7499 115.98L72.2099 113.69C72.1599 113.52 72.1299 113.28 72.0899 113.16L71.9999 112.82C71.9399 112.6 71.8699 112.37 71.7999 112.18C71.7199 111.96 71.6799 111.88 71.6199 111.78C71.5599 111.68 71.4899 111.59 71.4099 111.51C71.2399 111.33 70.9499 111.37 70.7999 111.54C70.6899 111.64 70.5999 111.75 70.5199 111.87L70.4599 111.96L70.3599 112.12C70.2899 112.22 70.2299 112.34 70.1799 112.46C69.9499 112.93 69.8299 113.46 69.7099 114.02C69.4599 115.14 69.5099 116.36 69.3199 117.62C69.1999 118.41 68.9999 118.31 68.5899 117.68C68.1599 117.04 67.4999 115.86 67.5099 114.22C67.5099 113.5 67.6299 112.73 67.8999 111.97C68.0299 111.59 68.1999 111.22 68.4199 110.83C68.4799 110.66 68.7199 110.39 68.9199 110.14C69.1099 109.87 69.3399 109.68 69.5699 109.47C70.0099 109.01 70.5499 108.84 71.0899 108.79C71.6499 108.72 72.2099 108.94 72.6599 109.25C72.8799 109.43 73.0799 109.64 73.2799 109.85C73.4499 110.1 73.6299 110.34 73.7699 110.62C74.0599 111.19 74.2099 111.44 74.3399 111.8C74.7099 112.74 74.5499 112.42 74.5799 112.56C74.5799 112.63 74.5799 112.72 74.5799 112.86C74.5899 112.99 74.5999 113.17 74.6699 113.37C74.7699 113.54 74.9399 113.57 75.0299 113.54C75.1599 113.51 75.2199 113.33 75.2599 113.13C75.2799 113.02 75.2899 112.91 75.3099 112.79L75.3499 112.29C75.4299 111.48 75.4999 110.62 75.7099 109.7C75.8299 109.24 75.9899 108.74 76.2799 108.24C76.5699 107.74 77.0499 107.22 77.6699 106.92C77.8999 106.82 78.1299 106.72 78.3599 106.68C78.4899 106.66 78.5699 106.63 78.7299 106.61C78.9199 106.6 79.1099 106.59 79.3199 106.63C79.7399 106.7 80.1099 106.94 80.3499 107.17C80.5799 107.4 80.7399 107.63 80.8399 107.83C80.8899 107.92 80.9699 108.05 80.9699 108.1C80.9699 108.13 81.0099 108.14 80.9999 108.17L81.0399 108.32C81.0599 108.42 81.0799 108.53 81.0999 108.65C81.1699 109.1 81.2099 109.61 81.3299 110.15C81.3899 110.41 81.4599 110.68 81.5899 110.94C81.6499 111.07 81.7299 111.19 81.8299 111.29C81.9599 111.4 82.0499 111.25 82.0899 111.17C82.3399 110.43 82.3499 109.48 82.5299 108.4C82.5799 108.18 82.6999 107.14 83.1799 106.19C83.3199 105.95 83.4899 105.64 83.9099 105.38C84.1099 105.25 84.3899 105.18 84.6599 105.17C84.8599 105.19 85.0499 105.2 85.2399 105.28C85.6399 105.41 85.9299 105.68 86.1199 105.93C86.2499 106.1 86.2099 106.07 86.2599 106.14C86.2899 106.19 86.3099 106.24 86.3299 106.3C86.6199 107.17 86.6099 108.17 86.7699 109C86.8299 109.32 86.8999 109.61 87.0899 109.78C87.1799 109.87 87.3399 109.9 87.4999 109.81C87.6399 109.67 87.6499 109.41 87.6899 109.21C87.8199 108.35 87.8099 107.57 87.7899 106.97C87.7799 106.7 87.7299 106.42 87.7199 106.23C87.6499 105.53 87.7799 105.51 88.2199 104.94C88.3199 104.8 88.3899 104.63 88.4699 104.53C88.6199 104.37 88.8499 104.37 89.2399 104.75C89.3499 104.87 89.4799 105 89.5699 105.18C89.6799 105.35 89.7699 105.56 89.8499 105.8C90.0099 106.26 90.2399 106.89 90.2999 107.54C90.4199 108.51 90.5499 109.61 90.5499 110.66C90.5099 111.64 90.3799 112.53 90.2199 113.32C90.0499 114.11 89.7999 114.69 89.5299 115.09C89.2499 115.5 88.9399 115.61 88.6299 115.82L88.3699 115.96C88.2799 116.01 88.1399 116.09 87.9399 116.07C87.5699 116.09 87.2599 116.07 87.0599 116.01C86.6499 115.91 86.4499 115.82 86.2199 115.69C85.9999 115.56 85.7799 115.42 85.4999 115.11C85.2299 114.79 84.8399 114.33 84.4999 113.07C84.4299 112.88 84.3899 112.55 84.3399 112.27C84.2799 112.02 84.2699 111.63 84.2399 111.28C84.1899 110.58 84.1899 109.84 84.1299 109.25L84.0299 108.38L83.9699 108L83.9399 107.81L83.8899 107.7V107.67C83.7499 107.75 84.0499 107.54 84.0199 107.56L84.0399 107.55L84.1099 107.5C84.5499 107.17 84.6599 106.98 84.6599 106.95C84.6699 106.91 84.6299 107.03 84.6499 107.1C84.6499 107.21 84.6499 106.19 84.6499 106.62C84.6499 106.62 84.6499 106.62 84.6499 106.61C84.6499 106.59 84.6799 106.7 84.6999 106.72C84.7199 106.72 84.7899 106.85 84.8699 106.92C84.9499 107 85.0199 107.03 85.1599 107.16C85.3999 107.36 85.8299 107.55 85.6899 107.52C85.6399 107.6 85.5299 107.93 85.4599 108.28C85.4399 108.4 85.4299 108.41 85.3899 108.62L85.2899 109.26C85.2399 109.7 85.1699 110.11 85.1599 110.57L85.0199 113.37C84.9799 114.33 84.8399 115.15 84.6599 115.7C84.4799 116.27 84.2599 116.62 84.0599 116.86L84.0199 116.72L84.0899 116.7Z" fill="#231F20"/>
<path d="M87.2201 57.06C87.2701 59.03 87.2401 61.01 87.1701 62.99C87.1501 63.71 87.1901 64.44 87.1301 65.16C86.9001 67.71 86.5401 70.27 85.7101 72.79C85.3001 73.89 84.9901 75.08 83.9801 76.13C83.6601 76.45 83.1501 76.81 82.6301 76.94C82.0901 77.06 81.5201 76.97 81.0201 76.71C80.5101 76.44 80.1001 75.98 79.9301 75.56C79.8501 75.36 79.7501 75.17 79.7001 74.97C79.6501 74.77 79.6701 74.54 79.6701 74.33C79.7201 73.79 79.8401 73.85 80.3601 74.01C80.6001 74.1 81.0801 74.14 81.3901 74.23C81.7401 74.33 82.0701 74.3 82.0001 74.27C82.0201 74.27 81.9801 74.27 82.0201 74.25C82.1401 74.08 82.4501 73.64 82.6901 73.12C83.1801 72.06 83.5601 70.75 83.9101 69.42C84.3301 67.8 84.2801 66.03 84.3301 64.3C84.3801 62.39 84.3801 60.47 84.3101 58.54C84.2601 57.35 84.2001 56.17 84.1101 54.98C83.9601 53.38 83.4801 51.57 82.6301 50.22C82.4601 49.97 82.2601 49.73 82.0901 49.58C81.9401 49.46 81.7801 49.38 81.6101 49.34C81.2701 49.25 80.9501 49.48 80.8001 49.7C80.7601 49.76 80.7201 49.82 80.6901 49.88C80.6401 49.98 80.5601 50.07 80.4901 50.15C80.0001 50.9 79.4001 50.98 78.7401 50.88C78.5801 50.86 78.4201 50.85 78.2901 50.82C78.0701 50.76 77.9301 50.59 77.8301 50.29C77.7301 49.99 77.6401 49.52 77.7901 49.05C77.9301 48.7 78.0701 48.35 78.3001 48C78.3501 47.91 78.4101 47.82 78.4701 47.74L78.7401 47.44C78.9201 47.24 79.1401 47.05 79.3801 46.88C80.3101 46.17 81.6301 45.97 82.7601 46.45C83.3201 46.68 83.8501 47.07 84.2801 47.51C84.6701 47.92 84.9201 48.25 85.1501 48.61C85.6101 49.32 85.9301 50.02 86.2001 50.72C86.6001 51.77 86.8801 52.81 87.0501 53.96C87.1401 54.61 87.1501 55.05 87.1901 55.56L87.2701 57.05H87.2001L87.2201 57.06Z" fill="#231F20"/>
<path d="M77.2402 64.87C77.4702 62 77.5802 59.03 77.4802 56.2C77.4402 55.15 77.2902 54.09 77.1902 53.1C77.0002 51.36 76.5902 49.7 75.6102 48.67C75.1202 48.14 74.5002 47.85 73.8602 47.74C73.2102 47.61 72.4402 47.86 71.6902 48.2C70.3602 48.88 69.1402 50.01 68.0802 51.22C66.6802 52.78 65.6402 54.65 63.9002 56.07C63.3202 56.49 63.2902 56.36 63.2702 55.66C63.1802 54.92 63.2302 53.67 63.8402 52.53C65.0502 50.6 66.4302 48.73 68.3002 47.08C69.2602 46.28 70.3602 45.55 71.7602 45.12C72.1202 45.03 72.5002 44.97 72.8702 44.91C73.2402 44.85 73.6602 44.91 74.0502 44.91C74.4402 44.91 74.8302 45.07 75.2102 45.17C75.6002 45.26 75.9302 45.47 76.2502 45.66C77.8402 46.56 78.8102 48.08 79.4102 49.53C80.0102 51 80.2802 52.47 80.4402 53.88C80.6102 55.4 80.6902 56.97 80.6702 58.49C80.6702 60.02 80.6202 61.53 80.5302 63.05C80.4302 64.92 80.2502 66.79 80.0102 68.65C79.8202 70.07 79.5602 71.48 79.1602 72.9C78.9702 73.61 78.7202 74.32 78.3902 75.02C78.2302 75.38 78.0402 75.72 77.7902 76.08C77.5102 76.5 77.1502 76.84 76.7502 77.11C76.6202 77.21 76.4702 77.27 76.3302 77.35C76.1702 77.43 75.9902 77.44 75.8202 77.5C75.6502 77.55 75.4702 77.6 75.2902 77.58C74.9302 77.6 74.5802 77.5 74.2402 77.39C73.9202 77.23 73.5902 77.07 73.3202 76.81C73.0302 76.59 72.7602 76.27 72.5802 76.05C71.8202 75.09 71.3402 74.08 71.0102 73.02C70.8602 72.53 70.7002 72.04 70.6102 71.53C70.3202 69.6 71.0202 68.94 71.5602 68.61C71.6902 68.53 71.8002 68.43 71.8902 68.39C72.0502 68.32 72.1702 68.48 72.4002 68.79C72.5202 68.94 72.6402 69.13 72.7902 69.36C72.9402 69.58 73.0202 69.83 73.1502 70.1C73.2002 70.25 73.2802 70.39 73.3402 70.54L73.4802 70.99C73.5902 71.28 73.6802 71.58 73.8102 71.86C74.0402 72.44 74.3202 72.98 74.5902 73.47C74.7302 73.72 74.8802 73.93 75.0202 74.13C75.0802 74.21 75.2002 74.33 75.2102 74.34C75.2302 74.36 75.2402 74.34 75.2502 74.35C75.2902 74.35 75.3102 74.32 75.3102 74.3V74.28L75.3702 74.19C75.5302 73.9 75.7002 73.52 75.8502 73.1C76.6402 70.72 76.9802 67.73 77.1702 64.86H77.2502L77.2402 64.87Z" fill="#231F20"/>
<path d="M63.9501 29.36C63.9301 27.45 63.8401 25.51 63.4301 23.83C63.3301 23.42 63.2001 23.03 63.0501 22.74C63.0201 22.66 62.9701 22.59 62.9501 22.55C62.9401 22.51 62.9201 22.51 62.9101 22.48C62.8801 22.44 62.8501 22.4 62.8001 22.38C62.7101 22.33 62.6001 22.32 62.5001 22.37C62.3901 22.42 62.3701 22.44 62.1201 22.82C61.5301 23.85 61.1501 25.23 60.7701 26.56C59.4401 31.34 58.6201 36.4 57.8901 41.42C57.5801 43.66 57.3601 45.92 57.1601 48.15C56.8801 51.02 56.8901 53.92 56.0201 56.74C55.7201 57.62 55.5601 57.48 55.1901 56.69C54.7901 55.89 54.1601 54.43 54.2001 52.76C54.3801 49.81 54.5901 46.86 54.9501 43.91C55.3301 40.97 55.8101 38.02 56.4101 35.09C57.1601 31.58 57.6201 27.88 58.7801 24.26C59.1301 23.26 59.4701 22.27 60.1401 21.24C60.2301 21.12 60.3201 20.96 60.4501 20.81L60.8901 20.4C61.0301 20.25 61.2101 20.17 61.3801 20.06C61.5501 19.95 61.7301 19.88 61.9301 19.83C62.7001 19.6 63.5401 19.73 64.1901 20.19C64.5101 20.41 64.7901 20.72 65.0201 21.03C65.2301 21.34 65.3601 21.59 65.4901 21.87C65.7401 22.41 65.9001 22.95 66.0301 23.47C66.2901 24.52 66.4301 25.56 66.5301 26.58C66.7701 29.11 66.7501 31.6 66.7001 34.08C66.6101 37.84 66.2301 41.59 65.9301 45.29C65.6901 48.17 65.5601 51 65.3001 53.85C65.2401 54.48 65.2101 55.1 65.1201 55.73C65.0001 56.91 64.7001 57.65 64.4701 58.17C64.3401 58.43 64.2101 58.62 64.0601 58.78C63.8901 58.93 63.7101 59.04 63.5301 59.13C63.3601 59.21 63.2001 59.33 63.0701 59.37C62.7001 59.49 62.2901 58.48 62.3101 56.78C62.4901 51.74 63.0501 46.44 63.4001 41.14C63.5401 39.17 63.6401 37.2 63.7501 35.23C63.8601 33.26 63.9201 31.3 63.8801 29.36H63.9501Z" fill="#231F20"/>
<path d="M49.2399 78.72C48.5399 77.29 47.8799 75.82 47.3699 74.25C47.0599 73.5 46.9399 72.63 46.7199 71.82C46.5999 71.42 46.5999 70.95 46.5499 70.52C46.5199 70.08 46.4599 69.63 46.4699 69.19C46.5099 67.48 46.8399 65.65 47.7699 64C48.6899 62.33 50.2399 61.07 51.8199 60.33C54.1599 59.22 56.5199 58.84 58.7699 58.54L61.6899 58.2C62.6499 58.09 63.4699 57.92 64.3599 57.65C66.0999 57.13 67.7899 56.3 69.4499 55.34C70.2799 54.86 71.0999 54.35 71.9299 53.82C72.7899 53.29 73.5699 52.76 74.6599 52.24C75.3599 51.93 76.1499 51.69 76.8699 51.99C77.1999 52.18 77.5699 52.28 77.8399 52.57L78.2699 52.94C78.3999 53.08 78.5199 53.26 78.6199 53.41C79.3899 54.61 79.3899 55.87 79.3099 56.96C79.0999 58.93 78.4299 60.69 77.4599 62.34C76.4099 64 75.0499 65.25 73.5699 66.35C71.6599 67.72 69.5099 68.74 67.2599 69.36C65.0199 69.99 62.6399 70.28 60.3499 69.84C59.6399 69.59 59.3599 69.44 59.3799 69.36C59.4099 69.27 59.7599 69.21 60.3499 68.96C60.9399 68.69 61.7499 68.45 62.6799 68.07C63.6099 67.73 64.6799 67.44 65.8199 67.1C67.8599 66.54 69.7799 65.62 71.4899 64.48C72.3499 63.91 73.1399 63.27 73.8299 62.54C74.1899 62.2 74.4999 61.79 74.7799 61.43C75.0499 61.09 75.2799 60.66 75.4999 60.23C75.9499 59.37 76.2299 58.4 76.3799 57.48C76.5299 56.57 76.4899 55.64 76.2499 55.21C76.2299 55.15 76.1999 55.1 76.1699 55.06C76.1499 55.03 76.1799 55.04 76.1699 55.01C76.1499 54.98 76.1299 54.94 76.0899 54.92C76.0199 54.85 75.9299 54.86 75.8199 54.89C75.0299 55.23 73.9899 55.88 73.0199 56.45C70.6299 57.86 68.0899 59.39 65.1899 60.31C64.4699 60.54 63.7199 60.74 62.9599 60.87C62.2199 61 61.5099 61.1 60.7999 61.19C59.3899 61.38 58.0199 61.55 56.6999 61.79C55.2599 62.06 53.8599 62.43 52.6899 63.06C51.5099 63.69 50.5999 64.59 50.0499 65.75C49.4799 66.89 49.3199 68.34 49.3399 69.71L49.4199 70.74C49.4199 71.08 49.5599 71.44 49.6299 71.79L49.8699 72.84L50.2299 73.89C51.4399 77.33 53.3299 80.63 55.3199 83.82C58.3699 88.67 61.7999 93.3 64.9699 98.14C67.5899 101.95 68.8299 106.46 69.3699 110.89C69.4799 111.87 69.5899 112.83 69.6399 113.82C69.7299 115.65 69.7199 116.85 69.5899 117.7C69.4299 118.55 69.1999 119.03 68.9199 119.42C68.7999 119.6 68.6899 119.83 68.5899 119.94C68.4199 120.12 68.2599 119.83 68.0199 119.18C67.7799 118.53 67.5199 117.51 67.4099 116.2C67.2099 114.26 66.9699 112.31 66.6399 110.39C66.3399 108.47 65.9199 106.58 65.3099 104.76C65.0099 103.86 64.6599 102.92 64.2499 102.11C63.8799 101.33 63.3399 100.48 62.8199 99.64C61.7399 97.96 60.5399 96.28 59.3499 94.58C57.5699 92.07 55.7799 89.52 54.0599 86.9C52.3299 84.28 50.6399 81.61 49.1899 78.74L49.2499 78.7L49.2399 78.72Z" fill="#231F20"/>
<path d="M85.6198 92.49C85.8098 90.8 86.2398 89.41 86.6098 87.97L87.7998 83.81C88.0798 82.8 88.2698 81.78 88.5198 80.78C89.4498 77.26 90.1598 73.69 90.2998 70.09C90.3198 69.29 90.3598 68.49 90.2698 67.7C90.1998 66.91 90.1598 66.11 89.9798 65.34L89.6798 63.86L89.3098 62.4C89.1198 61.4 88.7498 60.49 88.7898 59.35C88.7898 58.65 88.8698 58.69 89.4398 59.05C89.7098 59.23 90.2098 59.46 90.6398 59.82C90.8598 60 91.1098 60.2 91.3198 60.44C91.5198 60.68 91.6398 60.97 91.7598 61.26L92.3698 62.88C92.5698 63.42 92.6198 64 92.7398 64.55C92.9898 65.67 93.0598 66.81 93.1498 67.94C93.2098 68.51 93.1698 69.07 93.1698 69.64C93.1498 70.2 93.1798 70.77 93.0998 71.33C92.9698 72.45 92.8498 73.57 92.5998 74.66C92.0798 77.28 91.6998 79.99 91.0298 82.59C90.3198 85.44 89.3998 88.23 88.7798 90.96C88.3798 92.61 88.3298 94.24 88.4998 95.98C88.7598 98.58 89.3098 101.23 90.0898 103.77C90.6998 105.75 91.5098 107.62 92.2998 109.52C92.4698 109.94 92.6698 110.34 92.8298 110.76C93.3198 112.38 93.3398 112.95 92.8498 113.52C92.7498 113.64 92.6698 113.79 92.5898 113.87C92.3498 114.13 91.5398 113.69 90.9198 112.59C90.3998 111.79 89.9998 110.94 89.6098 110.06C89.2198 109.19 88.8398 108.29 88.4998 107.38C87.7998 105.55 87.1898 103.66 86.6798 101.7C86.2998 100.25 85.9798 98.77 85.7698 97.24C85.5598 95.71 85.4198 94.14 85.5398 92.48H85.6098L85.6198 92.49Z" fill="#231F20"/>
<path d="M34.7401 39.29L32.2501 34.96C32.0201 34.5 31.8401 34.01 31.7201 33.48C31.6101 32.99 31.5201 32.3 31.6301 31.57C31.7401 30.86 32.0901 30.22 32.5801 29.73C33.0701 29.24 33.7401 28.97 34.4301 28.91H35.1901C35.4401 28.96 35.6901 29.02 35.9401 29.07C36.2101 29.12 36.3201 29.19 36.5201 29.25C36.7001 29.31 36.8801 29.38 37.0101 29.46C37.5901 29.76 38.2301 30.03 38.7301 30.42C42.4401 33.05 44.9301 36.52 47.2801 39.99C48.3001 41.55 49.2901 43.13 50.2401 44.71C51.5001 46.71 52.5401 48.88 53.0901 51.22C53.2701 51.95 53.1001 51.9 52.6001 51.45C52.2901 51.17 51.9401 50.85 51.5801 50.53C51.3701 50.34 51.1501 50.13 50.9201 49.91C50.8101 49.8 50.7001 49.68 50.5701 49.57C50.4801 49.44 50.3901 49.31 50.2901 49.17C48.9401 47.24 47.7801 45.22 46.4501 43.29C45.1201 41.37 43.8401 39.42 42.4301 37.56C40.7501 35.36 38.5401 33.35 36.2001 32.19L35.7201 31.94L35.3001 31.78C35.1601 31.74 35.0201 31.7 34.8701 31.72C34.5601 31.74 34.3501 32.05 34.3501 32.35C34.3301 32.5 34.3501 32.8 34.4101 33.12C34.4601 33.43 34.5801 33.73 34.7101 34.03C35.0501 34.74 35.4201 35.45 35.8301 36.14C36.8201 37.86 37.8401 39.57 38.8801 41.27C40.4501 43.84 42.0201 46.45 43.6301 48.98C44.8801 50.95 46.2301 52.8 47.4901 54.76C47.7701 55.19 48.0501 55.61 48.3201 56.05C48.7501 56.91 48.9901 57.51 49.0701 57.97C49.1101 58.46 49.0401 58.78 48.9101 59.07C48.8501 59.2 48.8101 59.36 48.7501 59.44C48.6401 59.59 48.4401 59.52 48.1201 59.3C47.8001 59.08 47.3501 58.73 46.9401 58.17C46.6401 57.76 46.2701 57.38 45.9901 56.95C45.7001 56.52 45.4001 56.1 45.1101 55.67C44.5301 54.8 43.9401 53.92 43.3401 53.04C42.1601 51.26 40.9901 49.44 39.8201 47.6C38.0901 44.87 36.3801 42.11 34.6801 39.32L34.7301 39.28L34.7401 39.29Z" fill="#231F20"/>
<path d="M83.28 108.12C81.76 108.7 80.22 109.24 78.64 109.67C78.06 109.82 77.53 110.09 76.93 110.19C74.87 110.65 72.73 110.75 70.63 110.74C69.7 110.74 68.76 110.74 67.83 110.65C67.23 110.59 66.64 110.49 66.05 110.38C65.75 110.35 65.47 110.2 65.2 110.04C64.93 109.89 64.67 109.73 64.41 109.56C64.09 109.34 64.25 109.08 64.66 108.78C64.86 108.63 65.13 108.45 65.43 108.29C65.58 108.21 65.73 108.13 65.89 108.07C65.97 108.03 66.04 108.02 66.12 107.98C66.19 107.98 66.27 107.98 66.34 107.98C68.45 108.03 70.51 108.08 72.74 108.05C73.41 108.04 74.08 107.9 74.74 107.76C75.4 107.56 76.07 107.4 76.73 107.21C78.19 106.81 79.66 106.37 81.08 105.8C81.97 105.47 82.83 105.08 83.7 104.69L85.63 103.72C86.26 103.36 86.89 103.01 87.48 102.61C87.94 102.29 88.36 101.94 88.78 101.57C89.2 101.21 89.56 100.78 90.01 100.47C90.2 100.33 90.37 100.16 90.57 100.02C91.38 99.6 91.76 99.62 92.28 99.96C92.4 100.04 92.52 100.1 92.62 100.18C92.93 100.43 92.9 101 92.54 101.67C92.04 102.7 91.26 103.46 90.42 104.13C89.57 104.8 88.66 105.42 87.71 105.97C86.31 106.82 84.81 107.51 83.32 108.19L83.29 108.12H83.28Z" fill="#231F20"/>
<path d="M103.07 38.53C102.94 39.14 102.71 39.84 102.13 40.49C101.94 40.73 101.68 40.98 101.35 41.13C100.75 41.37 100.1 41.32 99.6198 41.08C99.1498 40.83 98.8098 40.47 98.5998 40.04C98.4998 39.86 98.4398 39.65 98.3698 39.46C98.3398 39.25 98.3098 39.04 98.3498 38.84C98.3898 38.31 98.7098 37.89 99.0998 37.69C99.2298 37.63 99.3498 37.79 99.4898 38.02C99.6298 38.25 99.7898 38.54 99.8498 38.67C99.8898 38.92 100.17 38.93 100.16 38.93C100.16 38.95 100.19 39.01 100.21 39.13C100.21 39.22 100.28 39.25 100.3 39.24C100.33 39.24 100.32 39.22 100.35 39.21C100.43 39.21 100.64 38.95 100.74 38.59C100.79 38.38 100.85 38.06 100.86 37.89C100.86 37.81 100.86 37.79 100.86 37.74C100.82 37.76 100.97 37.67 100.99 37.63C101.02 37.59 100.98 37.65 100.99 37.65C100.99 37.65 100.94 37.79 100.96 37.76C100.96 37.76 100.92 37.76 100.87 37.79C100.71 37.85 100.55 38.16 100.45 38.38C100.42 38.42 100.41 38.48 100.37 38.52C100.24 38.64 100.1 38.55 99.5798 38.18L99.2198 37.94C98.8198 37.67 98.5898 37.29 98.6798 36.95C98.7498 36.7 98.8498 36.47 98.9898 36.26C99.1498 36.07 99.3398 35.91 99.5598 35.77C99.7898 35.63 100.06 35.51 100.41 35.44C100.76 35.38 101.24 35.34 101.81 35.57C102.24 35.75 102.62 36.09 102.84 36.45C102.93 36.61 103.03 36.8 103.07 36.95C103.11 37.09 103.14 37.24 103.17 37.38C103.19 37.61 103.2 37.88 103.17 38.04L103.11 38.52H103.05L103.07 38.53Z" fill="#231F20"/>
<path d="M118.05 68.31C117.95 68.88 117.64 69.38 117.28 69.69C116.93 70.02 116.52 70.25 116.08 70.39C115.76 70.49 115.45 70.62 115.1 70.59C114.5 70.55 113.92 70.28 113.49 69.87C113.06 69.46 112.73 68.96 112.65 68.4V68.35C112.58 67.89 112.55 67.41 112.72 67.01C112.85 66.53 113.14 66.05 113.63 65.88C113.79 65.83 113.92 66.05 114.06 66.32C114.19 66.59 114.41 66.92 114.45 67.06C114.48 67.21 114.57 67.37 114.61 67.43C114.59 67.43 114.58 67.43 114.51 67.48C114.49 67.51 114.43 67.6 114.42 67.74C114.42 67.99 114.63 67.98 114.77 68.01C114.95 68.07 115.22 67.97 115.35 67.86C115.46 67.81 115.55 67.73 115.58 67.62C115.62 67.45 115.46 67.08 115.21 67.06C115.03 67.03 114.92 67.22 114.85 67.37C114.83 67.4 114.84 67.45 114.82 67.48C114.8 67.51 114.78 67.52 114.76 67.53C114.72 67.53 114.65 67.5 114.58 67.48C114.48 67.45 114.33 67.39 114.07 67.31L113.79 67.22C113.51 67.13 113.24 66.86 113.23 66.39C113.39 65.85 113.84 65.31 114.54 65.07C115.28 64.81 116.11 65.01 116.71 65.37C117.17 65.64 117.57 66.03 117.83 66.55C118.1 67.07 118.2 67.76 118.1 68.34H118.03L118.05 68.31Z" fill="#231F20"/>
<path d="M40.9801 103.46C40.9001 103.67 40.8101 103.88 40.7101 104.08L40.3501 104.63L39.6501 105.27C39.3801 105.42 39.1201 105.6 38.8201 105.68C38.6401 105.73 38.4701 105.81 38.2801 105.84C38.0901 105.86 37.9101 105.88 37.7201 105.87C37.0601 105.76 36.4301 105.49 35.9401 105.06C35.8101 104.97 35.7101 104.84 35.6001 104.73C35.5101 104.61 35.3501 104.52 35.3201 104.37C35.1901 104.13 35.0701 103.91 34.9801 103.66C34.8101 103.24 34.6601 102.8 34.6401 102.3C34.6601 102.13 34.6601 101.97 34.7101 101.81C34.7701 101.65 34.8301 101.48 34.9201 101.34C35.0301 101.21 35.1501 101.09 35.2801 100.99C35.4201 100.92 35.5701 100.87 35.7101 100.83C35.8901 100.79 35.9601 101.02 36.0301 101.32C36.0901 101.62 36.2401 101.99 36.3601 102.07C36.4401 102.15 36.5401 102.15 36.6301 102.17C36.6701 102.17 36.6901 102.19 36.7201 102.21L36.8101 102.28C36.8601 102.34 36.9401 102.42 36.9901 102.51C37.0301 102.55 37.0601 102.6 37.0901 102.65C37.1201 102.7 37.0801 102.74 37.0901 102.79C37.0901 103.06 37.3301 103.06 37.5001 103.09C37.6701 103.13 37.8801 103.09 38.0501 102.95L38.1601 102.85C38.2601 102.72 38.3401 102.54 38.3401 102.35C38.3601 102.1 38.2201 101.62 37.9201 101.38C37.8101 101.28 37.6601 101.24 37.5601 101.27C37.5001 101.27 37.4801 101.29 37.4801 101.32C37.5001 101.13 37.5301 101.11 37.5001 100.99C37.4901 100.95 37.5001 100.99 37.5001 100.97C37.5401 101.06 37.6001 101.1 37.6401 101.13C37.6601 101.13 37.6901 101.16 37.7301 101.2C37.7701 101.23 37.7101 101.2 37.6901 101.19C37.5801 101.13 37.3901 101.05 37.0801 100.93L36.6601 100.79C36.2001 100.65 35.8501 100.3 36.0601 99.73C36.1901 99.52 36.3101 99.28 36.5501 99.11C36.7901 98.93 37.0901 98.77 37.3701 98.72C37.5101 98.69 37.6701 98.66 37.8201 98.65C37.9401 98.65 38.0701 98.65 38.2001 98.66C38.4801 98.68 38.6801 98.74 38.8801 98.83C39.6601 99.17 40.1201 99.68 40.4901 100.23C40.6201 100.44 40.7501 100.65 40.8301 100.89C40.9401 101.14 41.0301 101.44 41.0801 101.73C41.2001 102.32 41.1601 102.91 41.0301 103.47L40.9601 103.45L40.9801 103.46Z" fill="#231F20"/>
<path d="M28.3501 18.32C28.4201 18.5 28.2201 18.62 27.8901 18.72C27.7801 18.75 27.4701 18.72 27.4301 18.66C27.3501 18.56 27.2701 18.45 27.2101 18.35C27.1801 18.29 27.0401 17.34 26.9601 17.01C26.8901 16.69 26.8701 16.38 26.8701 16.07L26.8301 14.18C26.8301 14.04 26.8701 13.9 26.9201 13.77C27.0901 13.31 27.1401 12.83 27.1301 12.35C27.1301 12.27 27.1501 12.19 27.0801 12.11C26.9701 11.97 27.0501 10.68 27.1201 10.52C27.3001 10.12 27.4001 9.70998 27.5801 9.30998C27.6101 9.24998 27.5901 9.18998 27.6901 9.13998C27.9201 9.02998 27.9101 8.89998 27.9501 8.77998C28.0101 8.60998 28.0401 8.42998 28.1801 8.25998C28.2401 8.17998 28.3701 8.09998 28.4601 8.01998C28.5501 7.94998 28.7601 8.01998 28.7901 8.03998C28.8601 8.12998 28.9801 8.06998 29.0701 8.06998C29.1001 8.06998 29.1501 8.06998 29.1701 8.06998C29.1801 8.06998 29.3801 8.34998 29.5201 8.63998C29.6501 8.91998 29.8001 9.21998 29.8001 9.27998C29.8701 9.30998 29.8501 10.82 29.8701 10.99C29.8801 11.08 29.8201 11.17 29.7801 11.25C29.7601 11.29 29.8101 12.5 29.7901 12.55C29.7401 12.79 29.7901 13.05 29.5801 13.28C29.5401 13.33 29.5401 13.38 29.5401 13.43C29.5201 13.86 29.4201 14.28 29.3101 14.69C29.2501 14.9 29.2401 15.12 29.2001 15.34C29.2001 15.38 29.1601 15.42 29.1401 15.45C29.1201 15.5 29.0901 15.54 29.0801 15.59C29.0101 16.1 28.8501 16.61 28.8301 17.12C28.8301 17.24 28.5701 17.79 28.5701 17.92C28.5701 18 28.3001 18.23 28.3301 18.3L28.3501 18.32Z" fill="#231F20"/>
<path d="M14.7 17.24C14.55 17.24 14.47 17.08 14.39 16.9C14.37 16.84 14.39 16.69 14.44 16.67C14.54 16.62 14.64 16.58 14.71 16.54C14.76 16.54 15.64 16.32 15.94 16.31C16.23 16.28 16.52 16.28 16.8 16.32C17.37 16.39 17.98 16.46 18.55 16.64C18.67 16.68 18.79 16.75 18.9 16.83C19.25 17.13 19.65 17.32 20.07 17.49C20.14 17.52 20.2 17.56 20.3 17.53C20.39 17.5 20.7 17.62 20.99 17.78C21.27 17.94 21.53 18.15 21.57 18.22C21.77 18.58 22.02 18.84 22.2 19.2C22.23 19.25 22.29 19.26 22.26 19.37C22.21 19.62 22.32 19.65 22.37 19.77C22.45 19.91 22.53 20.07 22.59 20.23C22.62 20.31 22.62 20.45 22.63 20.56C22.63 20.66 22.48 20.81 22.45 20.82C22.35 20.84 22.33 20.96 22.28 21.04C22.26 21.07 22.24 21.1 22.22 21.12C22.2 21.14 21.93 21.14 21.62 21.17C21.45 21.19 21.29 21.21 21.17 21.23C21.05 21.23 20.97 21.22 20.95 21.21C20.9 21.22 19.76 20.67 19.64 20.63C19.57 20.61 19.54 20.52 19.5 20.46C19.46 20.44 18.63 20.01 18.6 19.99C18.46 19.85 18.27 19.82 18.2 19.54C18.19 19.49 18.15 19.47 18.12 19.46C17.83 19.31 17.58 19.08 17.31 18.89C17.17 18.78 17.02 18.71 16.87 18.62C16.84 18.6 16.82 18.57 16.8 18.54C16.77 18.51 16.74 18.47 16.71 18.45C16.35 18.27 15.99 18.02 15.58 17.91C15.49 17.89 15.09 17.56 14.98 17.51C14.92 17.48 14.76 17.25 14.7 17.25V17.24Z" fill="#231F20"/>
<path d="M12.1301 29.5C11.9501 29.59 11.7701 29.42 11.6001 29.14C11.5501 29.05 11.5201 28.76 11.5701 28.71C11.6601 28.61 11.7501 28.5 11.8401 28.42C11.9001 28.38 12.8401 27.91 13.1401 27.68C13.4301 27.47 13.7601 27.38 14.0701 27.28L16.0201 26.62C16.1701 26.57 16.3201 26.55 16.4701 26.55C17.0101 26.55 17.5301 26.45 18.0401 26.27C18.1301 26.24 18.2201 26.24 18.2801 26.13C18.3801 25.94 19.8301 25.62 20.0401 25.66C20.6101 25.76 21.0501 25.84 21.5401 25.93C21.6101 25.95 21.6801 25.9 21.7501 26.01C21.9201 26.27 22.0601 26.23 22.2201 26.25C22.4301 26.28 22.6401 26.33 22.8501 26.42C22.9501 26.47 23.0601 26.6 23.1501 26.71C23.2401 26.81 23.1901 27.15 23.1501 27.19C23.0601 27.3 23.1301 27.46 23.1501 27.61C23.1501 27.66 23.1501 27.72 23.1501 27.76C23.1501 27.8 22.8701 28 22.6101 28.21C22.3401 28.42 22.0701 28.66 22.0101 28.67C22.0101 28.67 21.9001 28.69 21.7601 28.73C21.6101 28.77 21.4201 28.83 21.2201 28.88C20.8201 29.01 20.4001 29.11 20.3201 29.15C20.2301 29.19 20.1301 29.14 20.0301 29.11C19.9901 29.09 18.7701 29.49 18.7101 29.49C18.4401 29.5 18.2001 29.64 17.8901 29.47C17.8301 29.44 17.7801 29.46 17.7301 29.47C17.2801 29.57 16.8001 29.54 16.3201 29.55C16.0801 29.55 15.8401 29.61 15.6001 29.64C15.5601 29.64 15.5101 29.62 15.4601 29.62C15.4001 29.62 15.3401 29.59 15.2901 29.6C14.7201 29.69 14.1401 29.69 13.5701 29.79C13.4401 29.81 12.7601 29.63 12.6101 29.66C12.5201 29.66 12.2101 29.45 12.1401 29.49L12.1301 29.5Z" fill="#231F20"/>
</svg>
