<svg width="128" height="128" viewBox="0 0 128 128" fill="none" xmlns="http://www.w3.org/2000/svg">
<path d="M88.12 13.7601C88.1657 13.6078 88.2411 13.4661 88.342 13.3432C88.4429 13.2203 88.5672 13.1187 88.7077 13.0443C88.8482 12.9699 89.0021 12.9241 89.1604 12.9096C89.3187 12.8952 89.4784 12.9123 89.63 12.9601C92.79 13.9401 87.09 17.0801 88.12 13.7601Z" stroke="#231F20" stroke-miterlimit="10"/>
<path d="M119.72 34.48C119.767 34.3286 119.843 34.1879 119.944 34.0661C120.046 33.9444 120.17 33.8438 120.311 33.7704C120.451 33.6969 120.604 33.652 120.762 33.6382C120.92 33.6244 121.079 33.642 121.23 33.69C124.39 34.66 118.69 37.8 119.72 34.48Z" stroke="#231F20" stroke-miterlimit="10"/>
<path d="M59.0501 28.5601C59.1467 28.2559 59.3596 28.0021 59.6424 27.8542C59.9252 27.7062 60.2551 27.676 60.5601 27.7701C63.7201 28.7401 58.0001 31.8801 59.0501 28.5601Z" stroke="#231F20" stroke-miterlimit="10"/>
<path d="M27.2804 86.8801C27.2804 84.6734 27.2804 82.4568 27.2804 80.2301C27.2804 79.4201 27.1704 78.6101 27.1704 77.8001C27.1704 74.9401 27.1704 72.0734 27.1704 69.2001C27.1704 67.9301 27.1204 66.6501 27.0604 65.3901L26.9204 63.0001C26.9337 62.1825 27.0072 61.3669 27.1404 60.5601C27.2204 60.0501 27.6504 60.1201 28.1404 60.5601C28.7442 61.12 29.1422 61.8667 29.2704 62.6801C29.4404 65.9501 29.5304 69.2301 29.4104 72.5601C29.3204 74.5601 29.5504 76.5601 29.6204 78.6401L29.8004 85.3701C29.8004 86.7501 29.8004 88.1301 29.8004 89.5101C29.8004 91.6001 29.8004 93.7101 29.8004 95.7901L29.9504 100.59C29.9686 100.923 29.9686 101.257 29.9504 101.59C29.8404 102.91 29.6704 103.32 29.2004 103.59C29.1002 103.655 28.9968 103.715 28.8904 103.77C28.5404 103.88 28.2604 103.33 28.1004 102.37C27.6792 99.4579 27.4421 96.5221 27.3904 93.5801C27.3204 91.3601 27.2404 89.1301 27.1704 86.9001L27.2804 86.8801Z" fill="#231F20"/>
<path d="M45.1101 106.06C47.1701 106.76 49.2501 107.427 51.3501 108.06C52.1101 108.29 52.9001 108.43 53.6601 108.66C56.3601 109.49 59.0601 110.38 61.7701 111.25L65.4001 112.34C66.1801 112.6 66.9601 112.78 67.7301 113.12C68.1201 113.28 68.5001 113.44 68.8701 113.63C69.2187 113.859 69.5527 114.11 69.8701 114.38C70.3001 114.72 69.9601 115.04 69.3501 115.25C69.0093 115.36 68.657 115.431 68.3001 115.46C67.8935 115.512 67.4806 115.474 67.0901 115.35C64.1901 114.35 61.0101 113.66 57.9101 112.62C56.0501 111.99 54.0201 111.7 52.0701 111.18C49.9201 110.63 47.7801 110.03 45.6501 109.41L41.7101 108.21C39.7101 107.58 37.7601 106.88 35.8001 106.21C35.0401 105.94 34.2801 105.71 33.5001 105.49C32.7201 105.27 31.9701 104.98 31.2001 104.72C30.8578 104.618 30.5236 104.491 30.2001 104.34C29.0001 103.71 28.7701 103.23 28.9201 102.43C28.9484 102.244 28.9885 102.061 29.0401 101.88C29.2401 101.31 29.9601 101.11 30.8901 101.29C32.2001 101.65 33.5401 102.06 34.8901 102.52C36.2401 102.98 37.5701 103.43 38.9501 103.9C40.9501 104.62 43.0301 105.34 45.1201 105.99L45.1101 106.06Z" fill="#231F20"/>
<path d="M91.0003 109.14C96.4503 107.55 101.85 105.7 107.24 103.81C109.24 103.12 111.14 102.35 113.1 101.64L118.28 99.75L118.68 99.6C118.74 99.6 118.83 99.6 118.87 99.51C118.875 99.4401 118.875 99.3699 118.87 99.3V98.8L119.01 96.05L119.56 85.05C119.72 81.79 119.82 78.51 119.91 75.27C120.02 71.11 120.1 66.93 120.4 62.77C120.49 61.48 120.8 61.66 121.1 62.77C121.523 64.5825 121.728 66.439 121.71 68.3C121.71 76.81 121.61 85.3 121.17 93.87C121.11 95.16 121.05 96.45 121.01 97.75L121 100C120.979 100.249 120.925 100.495 120.84 100.73V100.91C120.84 100.91 120.58 100.74 120.7 100.82V100.88L120.46 101.14L120.34 101.28L120.15 101.36L119.78 101.52L119.22 101.76C116.78 102.76 114.32 103.76 111.87 104.68C106.47 106.747 101.017 108.677 95.5103 110.47C92.1103 111.55 88.7103 112.61 85.1603 113.37L83.9003 113.6C83.4071 113.679 82.9094 113.725 82.4103 113.74C81.8381 113.788 81.2638 113.677 80.7503 113.42C80.6281 113.359 80.5198 113.273 80.432 113.168C80.3443 113.063 80.279 112.941 80.2403 112.81C80.1696 112.542 80.126 112.267 80.1103 111.99V106.09C80.1103 104.23 80.1103 102.37 80.1103 100.52C80.1103 96.37 80.0303 92.29 80.1103 88.19C80.1103 87.28 80.1103 86.4 80.1703 85.48C80.4103 82.11 80.7003 81.05 81.1703 80.34C81.2667 80.1774 81.3771 80.0235 81.5003 79.88C81.8403 79.57 82.1203 80.97 82.2703 83.44C82.4103 85.28 82.4503 87.13 82.4903 89C82.5303 90.87 82.6103 92.77 82.6103 94.67C82.6103 98.47 82.6803 102.33 82.7203 106.2C82.7203 107.8 82.7203 109.4 82.7203 111.01C83.6292 110.91 84.531 110.753 85.4203 110.54C87.2803 110.13 89.1603 109.6 91.0303 109.04L91.0003 109.14Z" fill="#231F20"/>
<path d="M46.47 63.72C49.05 64.58 51.6434 65.3967 54.25 66.17C55.25 66.45 56.17 66.65 57.12 66.95C60.47 67.95 63.82 68.95 67.21 69.95C68.7 70.38 70.21 70.74 71.73 71.09L74.63 71.75C75.63 72 76.54 72.31 77.49 72.64C78.1 72.88 77.93 73.09 77.36 73.27C76.4669 73.5416 75.5307 73.6434 74.6 73.57C70.5575 73.0648 66.5616 72.2388 62.65 71.1C60.3 70.39 57.79 69.95 55.36 69.34C52.69 68.64 50.04 67.88 47.36 67.09L42.49 65.61C40.03 64.85 37.59 63.98 35.16 63.16C33.26 62.52 31.36 62.01 29.5 61.16C29.09 60.96 28.67 60.83 28.26 60.58C26.72 59.78 26.62 58.77 26.71 58.22C26.722 58.0874 26.7489 57.9566 26.79 57.83C26.87 57.66 27.08 57.64 27.41 57.67C27.8587 57.6877 28.3044 57.7514 28.74 57.86C30.24 58.39 31.89 58.93 33.58 59.42L38.69 61.12C41.27 61.94 43.84 62.86 46.46 63.65L46.47 63.72Z" fill="#231F20"/>
<path d="M116.59 57.6701C111.15 55.5201 105.59 53.5501 99.9903 51.6001L93.8603 49.5401L83.0803 45.8601L77.6803 44.0601L76.8403 43.7901C76.4903 43.6701 76.1203 43.5701 75.8403 43.4401L75.9403 41.4401C75.9403 40.5001 76.0203 39.5601 76.0403 38.6201C76.0648 35.278 75.8744 31.9378 75.4703 28.6201C74.856 24.3505 74.4721 20.051 74.3203 15.7401C74.3203 14.3901 74.7103 14.5501 75.1903 15.6601C75.9129 17.4434 76.3678 19.3237 76.5403 21.2401C77.0003 25.5801 77.6303 29.9401 77.8403 34.4101C77.9503 36.6401 77.9403 38.8801 77.8403 41.1101L77.7903 41.9401V42.0601C77.7903 42.1201 77.8403 42.1101 77.8703 42.1301H77.9603L78.3503 42.2601L81.5003 43.3201C86.5003 45.0501 91.7903 46.6401 96.9303 48.3201C102.58 50.2001 108.22 52.1301 113.84 54.1601C115.19 54.6501 116.53 55.1601 117.84 55.6801C118.792 55.9865 119.694 56.4276 120.52 56.9901C120.78 57.2301 121.09 57.5101 120.88 57.8401L120.17 58.7101C119.24 59.4001 118.09 60.0601 117.52 60.4001C112.596 63.0167 107.528 65.3537 102.34 67.4001C98.3403 69.0401 94.4903 70.6901 90.4903 72.1601C89.6103 72.4901 88.7503 72.8201 87.8403 73.1101C84.4603 74.1601 83.2303 74.2101 82.3403 73.5901C82.1458 73.4786 81.9702 73.3368 81.8203 73.1701C81.5503 72.6401 82.6903 72.1701 85.0603 71.3701C88.5603 70.1701 92.1803 68.7901 95.8203 67.3701C99.4603 65.9501 103.15 64.4701 106.82 62.9001C107.82 62.4701 108.82 62.0401 109.82 61.5801C110.82 61.1201 111.82 60.6801 112.76 60.2001C113.7 59.7201 114.68 59.2001 115.63 58.7401C116.12 58.5001 116.56 58.2201 117.02 57.9601H117.11L116.63 57.7701L116.59 57.6701Z" fill="#231F20"/>
<path d="M34.4702 57C33.3002 57.39 32.1302 57.78 30.9202 58.13L30.4602 58.26L29.8502 58.42C29.3321 58.5652 28.798 58.6458 28.2602 58.66C27.802 58.6733 27.3546 58.5206 27.0002 58.23C26.8202 58.09 26.8202 57.84 26.7402 57.64L26.5602 57C26.5602 55 26.6102 54.14 26.6402 53L26.7102 49C26.8602 44.41 26.9602 39.84 26.7102 35.27C26.6002 33.27 26.3802 31.21 26.1202 29.21C25.7602 26.64 25.2802 24.09 24.9302 21.52C24.8402 20.72 25.1902 20.75 25.6802 21.35C26.3992 22.3146 26.8914 23.4289 27.1202 24.61C27.6904 27.2526 28.1243 29.9228 28.4202 32.61C28.6919 35.2946 28.8187 37.9918 28.8002 40.69C28.8002 43.92 28.9102 47.27 28.8802 50.56L28.7902 55.9V56.15C28.7837 56.17 28.7821 56.1913 28.7857 56.2121C28.7892 56.2328 28.7978 56.2524 28.8105 56.2691C28.8233 56.2859 28.84 56.2992 28.8591 56.3081C28.8782 56.3169 28.8991 56.321 28.9202 56.32C29.0859 56.3442 29.2544 56.3442 29.4202 56.32C29.5002 56.32 29.9802 56.17 30.3602 56.06L31.5302 55.69C33.6202 55 35.7202 54.26 37.8202 53.54C41.0002 52.44 44.2402 51.41 47.4402 50.42C49.9302 49.64 52.3702 48.84 54.8902 48.24C55.4502 48.1 55.9902 47.96 56.5602 47.84C57.3085 47.6766 58.0775 47.6294 58.8402 47.7C59.226 47.7206 59.5977 47.8526 59.9102 48.08C60.0289 48.1593 60.1425 48.2462 60.2502 48.34C60.4902 48.63 59.6802 49.04 58.2502 49.59C56.0802 50.3 53.8502 50.9 51.6102 51.59C49.3702 52.28 47.0002 52.9 44.7102 53.64C41.3102 54.72 37.9102 55.88 34.4902 57.08L34.4702 57Z" fill="#231F20"/>
<path d="M37.6704 16.45C39.3404 16.14 41.0204 15.83 42.6704 15.45C43.2804 15.32 43.8704 15.13 44.4804 15.01L51.0004 13.79C52.0004 13.6 52.9104 13.35 53.8504 13.11C55.0507 12.7287 56.2934 12.497 57.5504 12.42C57.9504 12.42 57.9604 12.76 57.7104 13.2C57.3886 13.7443 56.8861 14.1583 56.2904 14.37C53.8755 15.1273 51.4136 15.7253 48.9204 16.16C47.4004 16.42 45.9204 16.94 44.3604 17.29C42.6804 17.68 40.9904 18.04 39.3004 18.4L36.1604 19C34.5804 19.32 32.9804 19.59 31.4204 19.94C30.1904 20.18 29.0204 20.54 27.7904 20.79C27.5343 20.8849 27.2698 20.9552 27.0004 21C26.0004 21 25.6204 20.87 25.3604 20.43C25.2962 20.3345 25.2394 20.2342 25.1904 20.13C25.0704 19.8 25.4504 19.45 26.1404 19.13C27.1663 18.6966 28.2311 18.3618 29.3204 18.13C30.4004 17.85 31.5104 17.61 32.6404 17.4L37.6404 16.4L37.6704 16.45Z" fill="#231F20"/>
<path d="M28.4602 93.5601C27.8402 93.7101 12.6702 92.5601 6.46018 99.1001C-0.349821 106.35 45.3102 112.91 67.4602 113.89L29.0002 102L28.4602 93.5601Z" fill="#231F20"/>
<path d="M100.57 42.42C99.6899 44.23 98.8399 46.07 98.0699 47.94C97.7699 48.62 97.5699 49.33 97.2999 50.02C96.2999 52.43 95.3799 54.88 94.5399 57.36C94.1799 58.46 93.8899 59.59 93.6399 60.7C93.3399 62.13 93.1099 63.64 92.7999 64.93C92.6999 65.32 92.2299 65.34 91.7999 64.93C91.5332 64.6685 91.3282 64.3508 91.1999 64C91.0591 63.5958 91.0146 63.1644 91.0699 62.74C91.5499 59.6583 92.3716 56.6397 93.5199 53.74C94.2199 52.02 94.7199 50.17 95.3799 48.39C96.1066 46.45 96.8966 44.5267 97.7499 42.62C98.2599 41.45 98.8299 40.3 99.3599 39.14L100.69 36.54C101.16 35.69 101.63 34.84 102.08 33.98C102.84 32.68 103.43 31.31 104.29 29.98C104.454 29.6826 104.642 29.3984 104.85 29.13C105.71 28.13 106.14 27.99 106.79 28.3C106.942 28.3612 107.09 28.4348 107.23 28.52C107.67 28.83 107.65 29.52 107.23 30.22C106.04 32.39 104.61 34.55 103.37 36.96C102.37 38.71 101.48 40.51 100.63 42.35L100.57 42.42Z" fill="#231F20"/>
<path d="M109.88 24.62C109.871 24.5704 109.847 24.5249 109.81 24.49H109.73C109.73 24.49 109.66 24.49 109.51 24.49C108.874 24.6522 108.257 24.8836 107.67 25.18C107.22 25.4 106.82 25.72 106.38 25.98C104.794 26.9976 103.293 28.1413 101.89 29.4C101.24 29.95 100.6 30.56 99.9903 31.15C99.2003 31.9 98.5303 32.68 97.7503 33.36C97.5103 33.57 97.1503 33.3 96.9503 32.79C96.8386 32.4952 96.8021 32.1772 96.844 31.8647C96.8859 31.5522 97.0049 31.2551 97.1903 31C97.9315 30.1344 98.7193 29.3099 99.5503 28.53C100.364 27.7385 101.237 27.0098 102.16 26.35C103.28 25.54 104.3 24.5 105.54 23.7C106.23 23.2591 106.956 22.8777 107.71 22.56C108.099 22.3899 108.5 22.2495 108.91 22.14C109.465 21.9761 110.055 21.9761 110.61 22.14C111.274 22.3901 111.817 22.8836 112.13 23.52C112.378 24.0422 112.53 24.6043 112.58 25.18C112.625 25.9227 112.625 26.6674 112.58 27.41C112.58 27.76 112.58 28.11 112.58 28.41C112.58 28.71 112.58 29.11 112.65 29.41C112.76 30.4331 112.988 31.4399 113.33 32.41C113.4 32.62 113.5 32.81 113.56 33.01C113.82 33.75 113.68 34.01 113.06 34.47C112.91 34.57 112.78 34.69 112.63 34.78C112.497 34.8505 112.35 34.8927 112.199 34.904C112.049 34.9153 111.898 34.8954 111.755 34.8457C111.612 34.796 111.482 34.7174 111.371 34.615C111.26 34.5125 111.171 34.3883 111.11 34.25C110.588 33.2734 110.249 32.2091 110.11 31.11C110.04 30.58 109.99 30.06 109.96 29.54V28.78C109.96 28.56 109.96 28.19 109.96 27.93C109.96 27.12 110.03 26.43 109.96 25.79C109.975 25.3872 109.921 24.9848 109.8 24.6L109.88 24.62Z" fill="#231F20"/>
<path d="M72.8002 53.0001C73.1702 54.2901 73.4902 55.5901 73.8002 56.8901C73.9102 57.3601 74.0702 57.8201 74.1702 58.3001C74.5102 59.9801 74.7402 61.6901 74.9302 63.3901C75.0102 64.1501 75.1302 64.9001 75.2402 65.6501C75.4436 66.6097 75.4875 67.5962 75.3702 68.5701C75.3202 68.8801 74.9002 68.8301 74.4802 68.5701C74.2482 68.4509 74.0449 68.2828 73.8844 68.0773C73.7238 67.8719 73.6098 67.6339 73.5502 67.3801C73.3302 65.5301 73.0002 63.6701 72.8202 61.7401C72.6422 60.5826 72.3679 59.442 72.0002 58.3301C71.6902 57.0701 71.3402 55.8101 71.0002 54.5601C70.7702 53.7901 70.5202 53.0301 70.2602 52.2701C69.8649 51.1176 69.411 49.9862 68.9002 48.8801C68.4626 48.0523 67.9716 47.254 67.4302 46.4901C67.3202 46.3201 67.2002 46.1501 67.1002 45.9701C66.7402 45.3001 66.7802 44.9701 67.2502 44.5801C67.3518 44.478 67.4586 44.3812 67.5702 44.2901C67.7741 44.1596 68.0208 44.1138 68.258 44.1623C68.4951 44.2109 68.704 44.35 68.8402 44.5501C69.4467 45.1981 69.9584 45.9287 70.3602 46.7201C70.7916 47.5133 71.1756 48.3314 71.5102 49.1701C72.0202 50.4201 72.4402 51.7101 72.8502 52.9901L72.8002 53.0001Z" fill="#231F20"/>
<path d="M63.7 38.8601C63.8534 38.1052 64.2215 37.4108 64.76 36.8601C64.9779 36.6745 65.229 36.5319 65.5 36.4401C65.7742 36.3595 66.0658 36.3595 66.34 36.4401C66.9363 36.6326 67.4619 36.9981 67.85 37.4901C68.1 37.7801 68.4 38.1301 68.59 38.3701C68.78 38.6101 68.89 38.7501 69.02 38.9401C69.91 40.3201 70.71 41.6901 71.63 42.9401C72.0365 43.533 72.4949 44.0885 73 44.6001C73.63 45.2101 74.31 45.7101 74.92 46.2901C75.1 46.4701 74.92 46.8201 74.49 47.0401C74.2539 47.18 73.9845 47.2538 73.71 47.2538C73.4356 47.2538 73.1661 47.18 72.93 47.0401C71.2996 45.8987 69.9547 44.3963 69 42.6501C68.3931 41.6882 67.7251 40.7663 67 39.8901L66.89 39.7301V39.6701L66.81 39.5501L66.62 39.2901C66.5464 39.2012 66.4543 39.1295 66.35 39.0801C66.23 39.0801 66.14 39.1301 66.07 39.2101C66.0188 39.2656 65.9781 39.3299 65.95 39.4001C65.8789 39.5605 65.8252 39.7281 65.79 39.9001C65.7371 40.2311 65.7037 40.5651 65.69 40.9001C65.69 41.4601 65.69 42.0701 65.56 42.7101C65.43 43.3501 65.43 43.8701 65.38 44.4601C65.3 45.3701 65.38 46.3101 65.21 47.2801C65.1914 47.4954 65.158 47.7093 65.11 47.9201C64.92 48.7301 64.57 48.9201 63.92 48.7601C63.77 48.7601 63.61 48.7601 63.47 48.6701C63.2463 48.5902 63.0534 48.442 62.9188 48.2463C62.7842 48.0506 62.7146 47.8175 62.72 47.5801C62.8 46.1501 62.96 44.6501 63.16 42.9701L63.28 42.1101L63.35 41.2301L63.43 40.2301L63.49 39.7001C63.49 39.4001 63.6 39.1001 63.64 38.8101L63.7 38.8601Z" fill="#231F20"/>
<path d="M46.9004 54.5501C45.4204 54.9201 43.9504 55.3201 42.4804 55.7301L40.8804 56.2001C38.9904 56.7201 37.0904 57.2001 35.2104 57.7901L32.7104 58.5701C31.6487 58.9727 30.5451 59.2545 29.4204 59.4101C29.0204 59.4101 29.1004 59.1901 29.3504 58.9301C29.6986 58.5551 30.1303 58.2673 30.6104 58.0901L33.7904 57.0001C34.8704 56.6401 35.9704 56.3301 37.0804 56.0001C38.4004 55.6501 39.7404 55.1401 41.0804 54.7301C42.4204 54.3201 44.0804 53.8601 45.5204 53.4401L48.2704 52.6901C49.6504 52.3101 51.0504 51.9701 52.4204 51.5701C53.4904 51.2601 54.5104 50.8801 55.5704 50.5701C55.8004 50.5001 56.0304 50.4201 56.2704 50.3601C57.1504 50.1701 57.4704 50.2901 57.7304 50.5101L57.8904 50.6701C58.0204 50.8501 57.7104 51.1301 57.1204 51.4701C56.2031 51.8758 55.2651 52.2329 54.3104 52.5401C53.3104 52.8301 52.3104 53.1001 51.3104 53.3801L46.8704 54.5701L46.9004 54.5501Z" fill="#231F20"/>
<path d="M100 67.89C101.74 67.36 103.48 66.82 105.21 66.23L107.08 65.53C109.29 64.76 111.49 63.95 113.63 63.01C114.578 62.597 115.503 62.133 116.4 61.62C117.53 60.95 118.62 60.21 119.67 59.51C120.01 59.3 120.19 59.51 120.13 60.01C120.075 60.304 119.973 60.5874 119.83 60.85C119.64 61.1729 119.38 61.4496 119.07 61.66C116.755 63.202 114.255 64.4484 111.63 65.37C110.07 65.93 108.51 66.66 106.94 67.27C105.21 67.92 103.46 68.54 101.71 69.13L98.4501 70.2L93.5302 71.78C92.2802 72.21 91.0701 72.72 89.8401 73.2C89.5601 73.3 89.3001 73.42 89.0201 73.51C88.0201 73.85 87.6202 73.81 87.2602 73.36C87.1655 73.2663 87.0817 73.1623 87.0102 73.05C86.8002 72.69 87.1302 72.24 87.8502 71.9C90.0818 70.9511 92.3694 70.1395 94.7001 69.47L100 67.85V67.89Z" fill="#231F20"/>
<path d="M37.5001 17.88C38.8201 17.64 40.1401 17.38 41.5001 17.1L42.9401 16.76L48.0301 15.76C48.7801 15.6 49.5301 15.4 50.2701 15.2C51.2082 14.9081 52.1678 14.6907 53.1401 14.55C53.4501 14.55 53.4601 14.75 53.2701 15.04C52.9946 15.4311 52.6026 15.725 52.1501 15.88C50.2369 16.4997 48.2863 16.9973 46.3101 17.37C45.1301 17.59 43.9301 17.97 42.7201 18.25C41.5101 18.53 40.0601 18.84 38.7201 19.12L36.2601 19.63L32.5301 20.37C31.5301 20.56 30.6401 20.83 29.6801 21.03C29.4741 21.0869 29.2632 21.1237 29.0501 21.14C28.2501 21.2 27.9801 21.14 27.7701 20.85C27.7234 20.7891 27.68 20.7257 27.6401 20.66C27.5401 20.46 27.8301 20.22 28.3801 20C29.2008 19.6793 30.0472 19.4284 30.9101 19.25C31.7768 19.03 32.6568 18.84 33.5501 18.68L37.5501 17.89L37.5001 17.88Z" fill="#231F20"/>
</svg>
