<svg width="128" height="128" viewBox="0 0 128 128" fill="none" xmlns="http://www.w3.org/2000/svg">
<path d="M24.5602 59.3201C23.9802 59.7701 23.3902 60.2201 22.8102 60.6701C22.6002 60.8301 22.4302 61.0401 22.2102 61.2101C21.4402 61.7801 20.6602 62.3401 19.9102 62.9301C19.5602 63.1701 19.2402 63.4601 18.9302 63.7401C18.7302 63.9201 18.5402 64.1101 18.3302 64.2801C18.1102 64.4401 17.8502 64.5601 17.5902 64.6801C17.4202 64.7501 17.3202 64.6101 17.2702 64.3501C17.2202 64.1001 17.1802 63.6701 17.3102 63.3701C17.9302 62.4501 18.5502 61.5301 19.5302 60.9601C20.0902 60.5901 20.5002 60.0301 21.0002 59.5601C21.5402 59.0501 22.1102 58.5601 22.6902 58.0801L23.7502 57.1901C24.2802 56.7301 24.8402 56.3101 25.3302 55.8201C25.7202 55.4401 26.0102 54.9701 26.3602 54.5501C26.4402 54.4601 26.5002 54.3501 26.5802 54.2601C26.8902 53.9301 27.1402 54.0201 27.5602 54.4001C27.6602 54.4901 27.7602 54.5701 27.8502 54.6701C28.1502 54.9801 28.2502 55.3901 28.1202 55.7201C27.6602 56.6101 26.9802 57.2701 26.2502 57.9301C25.7102 58.4201 25.1402 58.8801 24.5902 59.3701L24.5502 59.3301L24.5602 59.3201Z" fill="#231F20"/>
<path d="M57.9801 37.58C58.0001 38.09 45.2901 47.45 43.6601 52.57C43.1401 54.21 44.7801 55.21 45.6701 55.77C48.9301 57.82 38.1201 52.76 38.1201 52.76L49.5301 42.16L57.9801 37.58Z" fill="#231F20"/>
<path d="M43.8901 68.8501C43.7001 68.5701 33.6301 63.4901 31.5601 64.5301C30.6701 64.9801 33.2201 61.0601 33.2201 61.0601L43.8901 67.4101V68.8601V68.8501Z" fill="#231F20"/>
<path d="M29.2102 61.0601C23.9302 56.0301 24.9702 51.63 25.1602 51.3H27.8102C27.8102 51.3 26.8902 52.8701 27.8102 54.5801C28.7302 56.2801 31.0602 59.5601 31.0602 59.5601L29.2102 61.0601Z" fill="#231F20"/>
<path d="M7.71998 72.76C7.71998 72.76 9.71998 72.76 10.29 74.38C10.7 75.56 7.22998 75.65 7.22998 75.65L7.71998 72.75V72.76Z" fill="#231F20"/>
<path d="M41.7998 35.4001C41.7998 35.4001 38.5899 33.6501 34.9499 35.2501C32.5499 36.3101 41.1398 31.9301 43.1698 33.0301C45.2098 34.1301 41.7998 35.4001 41.7998 35.4001Z" fill="#231F20"/>
<path d="M53.0901 41.07C53.0901 41.07 56.5701 38.7 58.4501 38.95C60.1401 39.18 61.7201 40.32 62.6401 41.09C64.6001 42.74 57.9801 36.97 57.9801 36.97L53.0801 41.07H53.0901Z" fill="#231F20"/>
<path d="M93.4798 90.55C92.5698 92.12 91.5898 93.66 90.4898 95.11C90.0998 95.64 89.7198 96.19 89.2898 96.7C87.7498 98.47 86.0098 100.1 83.9698 101.35C83.0798 101.92 82.1098 102.38 81.0898 102.7C80.7698 102.81 80.4398 102.9 80.0898 102.96C79.7498 103.04 79.4098 103.08 79.0598 103.09C78.7198 103.14 78.3698 103.09 78.0298 103.02C77.6898 102.98 77.3598 102.84 77.0398 102.74C76.6398 102.59 76.7498 102.43 77.1298 102.23C77.3198 102.13 77.5698 102.03 77.8398 101.91C78.1198 101.78 78.4198 101.6 78.7398 101.58C79.8798 101.43 80.9498 100.99 81.9698 100.4C82.9998 99.83 84.0098 99.14 84.9998 98.36C86.1898 97.42 87.1398 96.13 88.0698 94.87C89.0898 93.48 90.0598 92.03 90.9298 90.52C91.4698 89.59 91.9798 88.64 92.4398 87.67C93.1398 86.2 93.8098 84.69 94.2798 83.14C94.6498 81.94 94.8198 80.71 94.9798 79.49C95.0098 79.22 95.0198 78.96 95.0598 78.69C95.1898 77.71 95.3498 77.43 96.0398 77.28C96.1898 77.25 96.3398 77.19 96.4798 77.18C96.9398 77.12 97.3798 77.61 97.3798 78.43C97.4198 80.86 96.7298 83.27 95.8498 85.58C95.1898 87.29 94.3798 88.95 93.5098 90.57L93.4598 90.55H93.4798Z" fill="#231F20"/>
<path d="M96.5702 116.93L79.4702 103.51C79.4702 103.51 87.3902 98.12 89.6402 95.06C91.8902 92 99.2302 80.71 99.2302 80.71C99.2302 80.71 100.66 79.58 101.39 79.98C102.12 80.38 115.83 86.62 117.69 87.25C119.55 87.88 114.29 89.18 113.53 94.83C112.78 100.48 112.78 105.37 109.77 107.44C106.76 109.51 104.38 111.12 103.78 115.99C103.45 118.67 100.22 118.95 98.5102 118.53C98.5102 118.53 97.0002 117.27 96.5702 116.93Z" fill="#231F20"/>
<path d="M63.0101 29.34C63.0101 27.8 61.4401 26.45 60.4301 25.7C58.9701 24.61 57.3801 24.48 56.3101 24.27L59.1601 22.09C59.1601 22.09 61.8101 21.72 63.3201 23.49C64.8301 25.26 65.7701 28.25 65.7701 28.25L63.0001 29.34H63.0101Z" fill="#231F20"/>
<path d="M82.8401 90.75C82.8001 94.08 79.1801 101.8 80.8501 102.55C84.2601 104.08 87.2501 95.64 87.2501 95.64L82.8501 90.76L82.8401 90.75Z" fill="#231F20"/>
<path d="M90.4299 74.7C87.2199 71.47 84.6799 67.97 82.0499 64.51C81.0999 63.24 80.0999 62.03 79.1699 60.76C75.8799 56.29 72.6299 51.81 69.0199 47.66C67.4199 45.82 65.6799 44.09 63.8599 42.55C63.2599 42.07 62.6699 41.58 62.0499 41.15C61.4499 40.69 60.8199 40.26 60.1999 39.84C59.5699 39.44 58.9199 39.07 58.2899 38.69C57.9799 38.47 57.6599 38.28 57.3299 38.12C56.9999 37.93 56.6799 37.73 56.3299 37.59C55.4699 37.17 55.5599 37.09 56.4699 36.89C56.9299 36.77 57.5999 36.67 58.4299 36.67C58.8299 36.69 59.2799 36.71 59.7399 36.8C60.1899 36.91 60.6099 37.11 61.0599 37.33C62.5999 38.13 64.0199 39.08 65.2699 40.19C66.5299 41.28 67.7399 42.43 68.8599 43.63C71.1299 46.02 73.1699 48.57 75.0999 51.19C77.4099 54.33 79.9599 57.45 82.3499 60.61C84.9799 64.07 87.5599 67.56 90.3899 70.77C91.2599 71.75 92.1699 72.7 93.1299 73.54C94.0499 74.37 95.1699 75.09 96.2699 75.84C99.6099 78.06 103.1 80.13 106.71 81.83C109.52 83.15 112.4 84.16 115.31 85.1C115.95 85.3 116.59 85.49 117.24 85.69C119.64 86.45 120.33 86.9 120.59 87.87C120.66 88.07 120.77 88.26 120.8 88.41C120.85 88.67 120.6 88.8 120.06 88.95C119.52 89.12 118.77 89.05 117.85 88.82C112.4 87.48 106.88 85.14 101.63 82.31C99.6799 81.25 97.7799 80.1 95.9099 78.9C94.9799 78.3 94.0599 77.67 93.1499 77.04C92.7099 76.75 92.1799 76.33 91.7199 75.97C91.2799 75.58 90.8199 75.2 90.4099 74.79L90.4499 74.74L90.4299 74.7Z" fill="#231F20"/>
<path d="M9.33982 76.81C8.83982 77 8.39982 76.98 7.94982 77.04C7.54982 77 7.15982 76.95 6.81982 76.83C6.72982 76.82 6.65982 76.74 6.57982 76.69L6.46982 76.61L6.40982 76.57L6.37982 76.55C6.36982 76.56 6.46982 76.46 6.42982 76.5H6.41982C6.28982 76.34 6.21982 76.22 6.13982 76.08C6.01982 75.78 6.00982 75.37 6.07982 74.92C6.11982 74.6 6.11982 74.28 6.20982 73.93C6.23982 73.76 6.28982 73.59 6.32982 73.42C6.36982 73.26 6.42982 73.04 6.45982 72.97C6.95982 71.59 7.54982 70.28 8.13982 68.97C8.40982 68.39 8.60982 67.78 8.84982 67.19C9.00982 66.81 9.14982 66.43 9.33982 66.06L9.48982 65.79L9.72982 65.56C9.89982 65.41 10.0698 65.27 10.2498 65.14C10.4898 64.98 10.6398 65.12 10.8298 65.47C10.9198 65.64 11.0398 65.87 11.1498 66.13C11.2098 66.26 11.2598 66.39 11.3098 66.53C11.3398 66.6 11.3498 66.66 11.3798 66.73C11.3798 66.78 11.3598 66.84 11.3398 66.89C10.8998 68.37 10.1898 69.78 9.41982 71.21C9.17982 71.64 9.01982 72.1 8.86982 72.57L8.66982 73.28L8.56982 73.63L8.52982 73.75C8.45982 73.93 8.37982 74.13 8.31982 74.38C8.25982 74.53 8.39982 74.58 8.48982 74.59C8.58982 74.61 8.69983 74.6 8.80982 74.59C8.94983 74.57 9.09982 74.54 9.25982 74.49C9.30982 74.49 9.48982 74.41 9.63982 74.35C9.78982 74.29 9.93982 74.23 10.0998 74.16C11.0198 73.76 11.9698 73.34 12.8698 72.85C13.5698 72.46 14.2098 71.96 14.9398 71.53C15.0998 71.44 15.2498 71.32 15.4298 71.24C15.7798 71.13 16.0098 71.08 16.2298 71.18C16.4498 71.32 16.5898 71.5 16.7098 71.75C16.7698 71.87 16.8298 71.97 16.8698 72.08C16.9298 72.27 16.9198 72.45 16.8598 72.67C16.7898 72.88 16.7298 73.16 16.5498 73.28C15.5698 74.12 14.2898 74.76 12.9498 75.42C12.4498 75.66 11.9298 75.89 11.3998 76.11L10.5798 76.43L10.3698 76.51C10.2998 76.53 10.2398 76.57 10.0998 76.6L9.34982 76.85V76.79L9.33982 76.81Z" fill="#231F20"/>
<path d="M29.1799 39.0901C28.1299 39.7501 27.0999 40.4301 26.0999 41.1501C25.0999 41.8601 24.1599 42.6201 23.1399 43.4301C22.4099 44.0101 21.7399 44.6401 21.0199 45.2101C19.7699 46.2101 18.4699 47.2101 17.5099 48.2601C17.3899 48.3801 17.2899 48.4801 17.2099 48.6401C17.1299 48.7801 17.1199 48.9801 17.2299 49.1001C17.3299 49.2301 17.4799 49.3501 17.6099 49.4401C17.8899 49.6101 18.2099 49.7801 18.5399 49.9001C19.7199 50.3901 21.0899 50.4601 22.3399 50.2501C22.7399 50.1501 23.1399 50.0701 23.5199 49.9101C23.9199 49.8101 24.2899 49.6201 24.6799 49.4901C25.0399 49.2901 25.4399 49.1501 25.7999 48.9101C25.9699 48.7901 26.1899 48.7201 26.3999 48.6501L27.0199 48.3601C27.5599 48.1301 27.6099 48.2401 27.4999 48.8401C27.4399 49.1301 27.3799 49.6001 27.1999 50.1101C26.9999 50.6001 26.6399 51.0701 26.1399 51.4401C25.7099 51.7901 25.2099 52.0501 24.7199 52.3201C24.2099 52.5601 23.6699 52.7201 23.1099 52.8401C22.0099 53.0801 20.8699 53.1301 19.7499 53.0001C18.6299 52.8501 17.5299 52.5501 16.4899 51.9601L16.0099 51.6601C15.8099 51.5401 15.6599 51.4001 15.4999 51.2601L15.0299 50.8401L14.6799 50.3501C14.2299 49.6901 14.2199 48.8101 14.5699 48.0901C14.6299 47.8701 14.8099 47.6701 14.9199 47.4501C15.0399 47.2401 15.1699 47.0401 15.3499 46.8501C15.6499 46.4801 15.8199 46.3301 16.0599 46.0801C16.5099 45.6301 16.9499 45.2101 17.3899 44.8101C18.2799 44.0001 19.1699 43.2201 20.0799 42.4901L23.0799 40.0901C24.1099 39.2801 25.1699 38.5301 26.2499 37.8001C27.5699 36.9101 28.9299 36.0601 30.2999 35.2501C31.3399 34.6301 32.4099 34.0601 33.4999 33.5201C34.6099 33.0001 35.6999 32.4501 37.0199 32.1601C38.9699 31.7401 40.9099 31.7101 42.7599 31.8301C43.1699 31.8601 43.5699 31.8501 43.9499 31.9401C44.3099 32.0101 44.5999 32.0701 44.8399 32.1501C45.0599 32.2301 45.2499 32.3901 45.3899 32.4901C45.6899 32.7101 45.8599 32.8801 46.0299 33.0701C46.1099 33.1501 46.2199 33.2201 46.2899 33.2801C46.5499 33.4501 45.8699 34.0401 44.6099 34.4401L43.3199 34.5601C42.8999 34.5901 42.4899 34.5601 42.0899 34.5501C41.2899 34.5301 40.5099 34.5101 39.7499 34.5401C38.9999 34.5701 38.2799 34.6501 37.6099 34.8001C36.9899 34.9301 36.3499 35.2001 35.6199 35.5301C33.4899 36.5401 31.3099 37.8201 29.2399 39.1901L29.1999 39.1401L29.1799 39.0901Z" fill="#231F20"/>
<path d="M31.8902 66.33C31.7802 66.95 31.8102 67.53 32.0402 68.04C32.1502 68.21 32.3202 68.36 32.3902 68.46C32.5502 68.69 32.9002 68.92 33.3102 69.07C33.7302 69.21 34.2102 69.32 34.7202 69.35C35.1702 69.37 35.6202 69.27 36.0402 69.12C36.3102 69.02 36.5602 68.88 36.8202 68.76C36.8902 68.73 36.9502 68.7 37.0102 68.67L37.2502 68.64C37.4202 68.63 37.5702 68.59 37.7502 68.57C37.9702 68.55 38.0902 68.7 38.1502 69.05C38.1902 69.37 38.2802 70.1 37.9602 70.47C37.3302 70.98 36.6102 71.38 35.8302 71.61C35.0502 71.82 34.2002 71.95 33.3602 71.68C32.8602 71.53 32.3602 71.41 31.8402 71.22C31.3202 71.02 30.7802 70.73 30.3502 70.28C29.5202 69.39 29.1102 68.19 29.0402 67.11C28.9802 66.43 29.0802 65.79 29.1702 65.17C29.3402 64.23 29.7102 63.38 30.0302 62.53C30.2902 61.87 30.4302 61.16 30.7502 60.48C30.8102 60.33 30.8702 60.17 30.9602 60.03C31.1202 59.76 31.3202 59.66 31.5402 59.67C31.7902 59.7 32.0302 59.82 32.3302 60.03C32.4702 60.12 32.6002 60.21 32.7202 60.3C32.9202 60.46 33.0502 60.66 33.1702 60.89C33.2802 61.12 33.4102 61.4 33.3702 61.57C33.2402 62.66 32.8202 63.5 32.4802 64.4C32.2302 65.06 32.0102 65.72 31.9602 66.34H31.8902V66.33Z" fill="#231F20"/>
<path d="M41.4502 41.45C42.6902 40.42 43.9202 39.37 45.1502 38.31C45.6002 37.93 46.0002 37.49 46.4602 37.11C48.0702 35.77 49.6902 34.43 51.3002 33.1C52.0002 32.49 52.7102 31.88 53.4102 31.27C54.3202 30.51 55.1502 29.63 56.3802 29.26C56.7502 29.14 56.7602 29.22 56.6802 29.61C56.6302 29.89 56.5702 30.18 56.5302 30.43C56.4502 30.75 56.2902 31.04 56.0802 31.31C55.7102 31.8 55.2702 32.19 54.8602 32.63C54.4302 33.05 54.0402 33.5 53.5802 33.88C52.6702 34.65 51.7302 35.41 50.7602 36.14C49.5902 37.01 48.5702 38.13 47.4702 39.13C46.2602 40.23 45.0202 41.3 43.7802 42.38L41.4702 44.34C40.2902 45.32 39.1102 46.31 37.9402 47.28C37.0302 48.04 36.2202 48.89 35.3202 49.67C35.1202 49.84 34.9502 50.03 34.7402 50.19C34.3502 50.48 34.0802 50.65 33.8202 50.68C33.5402 50.67 33.3202 50.57 33.0902 50.42C32.9802 50.35 32.8702 50.29 32.7902 50.22C32.6502 50.09 32.6202 49.91 32.6502 49.66C32.6902 49.41 32.7702 49.05 33.0302 48.83C34.4602 47.33 36.1002 45.98 37.7502 44.57C38.9702 43.53 40.2202 42.49 41.4402 41.41L41.4802 41.45H41.4502Z" fill="#231F20"/>
<path d="M47.89 42.85C50.99 40.13 54.07 37.4 57.1 34.63C58.61 33.24 60.11 31.84 61.56 30.42C62.27 29.71 63 28.97 63.55 28.29L63.65 28.15C63.65 28.15 63.68 28.1 63.69 28.07C63.69 28.04 63.69 28.03 63.69 28.01C63.69 27.96 63.73 27.88 63.7 27.81C63.68 27.52 63.63 27.2 63.45 26.87C63.05 25.95 62.13 25.07 61.16 24.44C60.67 24.12 60.13 23.88 59.63 23.72C59.13 23.54 58.64 23.57 58.56 23.61C58.51 23.69 58.44 23.75 58.37 23.8C50.25 30.47 42.14 37.41 34.18 44.39C30.66 47.51 27.17 50.7 23.79 53.92C19.44 58.05 15.27 62.37 10.64 66.2C9.04005 67.25 9.26005 67.13 9.97005 65.62C10.32 64.86 10.88 63.82 11.61 62.63C12.37 61.47 13.36 60.17 14.56 58.91C15.61 57.78 16.69 56.68 17.82 55.63L21.18 52.46C23.43 50.36 25.7 48.29 28 46.24C32.59 42.14 37.26 38.11 42.02 34.15C44.52 32.08 47.01 29.92 49.54 27.75C50.8 26.67 52.06 25.58 53.33 24.49L55.24 22.87L56.21 22.06L56.72 21.64C56.97 21.45 57.23 21.26 57.5 21.1C58.27 20.81 59 20.81 59.59 20.91C60.2 21 60.73 21.19 61.24 21.4C62.36 21.89 63.32 22.57 64.18 23.39C65.02 24.22 65.79 25.22 66.18 26.52C66.29 26.84 66.34 27.18 66.37 27.54C66.43 27.88 66.35 28.23 66.31 28.71C66.2 29.1 65.98 29.52 65.75 29.8C65.56 30.05 65.38 30.26 65.2 30.47C64.47 31.29 63.72 32.03 62.97 32.77C59.96 35.7 56.86 38.48 53.76 41.26C49.93 44.67 46.07 48.04 42.21 51.4C41.34 52.15 40.47 52.91 39.61 53.66C39.37 53.84 39.13 54.03 38.83 54.09C38.54 54.15 38.23 54.14 37.93 54.09C37.27 53.97 36.88 53.79 36.47 53.63C35.66 53.29 34.91 52.91 34.17 52.57C33.43 52.22 32.69 51.89 31.95 51.63C31.22 51.38 30.47 51.19 29.85 51.24C29.25 51.28 28.83 51.6 28.69 52.06C28.56 52.49 28.74 53.24 29.05 53.91C29.36 54.6 29.77 55.29 30.21 55.97L30.88 57.01L31.22 57.55L31.39 57.83C31.47 57.95 31.54 58.09 31.6 58.22C31.83 58.65 32.01 59.11 32.03 59.57C32.04 59.8 31.99 60.04 31.86 60.22C31.73 60.39 31.56 60.56 31.41 60.73C27.4 64.31 23.47 67.83 19.5 71.37L18.35 72.37C17.94 72.64 17.53 72.93 17.16 73.09C17.06 73.15 16.98 73.16 16.89 73.19C16.81 73.19 16.71 73.31 16.64 73.17C16.46 73.08 16.36 72.99 16.2 72.9C16.06 72.79 15.86 72.75 15.72 72.52C15.57 72.33 15.43 72.09 15.3 71.84C14.69 70.76 14.49 70.63 14.19 70.28C13.9 69.97 13.61 69.72 13.34 69.51C12.78 69.08 12.29 68.79 11.86 68.55C11 68.09 10.47 67.72 10.03 67.24C9.83005 67.02 9.54005 66.82 9.42005 66.63C9.21005 66.33 9.61005 66.07 10.6 65.98C11.57 65.9 13.21 66.13 14.97 67.33C15.42 67.64 15.83 67.99 16.22 68.38C16.41 68.58 16.6 68.78 16.77 68.99L17.02 69.31C17.08 69.39 17.07 69.37 17.1 69.4C17.17 69.48 17.23 69.55 17.28 69.62C17.29 69.64 17.3 69.65 17.32 69.66C17.34 69.66 17.36 69.62 17.38 69.61L17.48 69.49L17.57 69.38L17.61 69.33L17.63 69.31H17.64L17.7 69.24L18.75 68.31C19.45 67.69 20.16 67.07 20.87 66.44C23.58 64.05 26.32 61.63 29.09 59.19C29.09 59.19 29.09 59.18 29.09 59.17C29.09 59.17 29.14 59.25 29 59.02C28.54 58.31 28.09 57.59 27.63 56.88C27.16 56.1 26.67 55.28 26.3 54.22C26.12 53.69 25.96 53.09 25.97 52.33C25.97 51.56 26.25 50.64 26.8 50C27.4 49.25 28.32 48.76 29.14 48.62C29.96 48.47 30.67 48.54 31.29 48.65C32.52 48.89 33.52 49.3 34.47 49.72L37.13 50.95L37.72 51.2C37.88 51.27 38.16 51.35 38.09 51.33C38.09 51.33 38.1 51.33 38.11 51.33L42.89 47.16L47.86 42.78L47.91 42.82L47.89 42.85Z" fill="#231F20"/>
<path d="M38.4899 71.13C38.3999 71.43 38.3199 71.74 38.3399 72.02C38.3299 72.17 38.3599 72.3 38.3999 72.44C38.4199 72.51 38.4199 72.59 38.4499 72.65C38.4799 72.7 38.4999 72.75 38.5199 72.8C38.5399 72.9 38.6099 72.93 38.6599 72.97C38.6899 72.99 38.7099 73.02 38.7299 73.05C38.7699 73.06 38.7999 73.08 38.8299 73.1C39.0399 73.29 39.4999 73.4 40.0099 73.36C40.5199 73.35 41.0799 73.22 41.6299 73.05C42.1199 72.89 42.5799 72.64 43.0499 72.41C43.3499 72.25 43.6499 72.09 43.9399 71.93C44.2299 71.74 44.6299 71.74 44.9999 71.66C45.2399 71.64 45.2799 71.79 45.2399 72.09C45.2199 72.24 45.1999 72.44 45.1499 72.67C45.1299 72.78 45.0999 72.9 45.0599 73.01C45.0399 73.07 45.0199 73.12 44.9999 73.18C44.9699 73.22 44.9299 73.26 44.8899 73.29C44.3399 73.75 43.7899 74.28 43.0899 74.59C42.3999 74.91 41.6599 75.18 40.8299 75.28C40.3299 75.34 39.8199 75.41 39.2499 75.43C38.9599 75.42 38.6599 75.39 38.3599 75.34C38.0599 75.23 37.7299 75.17 37.4699 74.96C37.1599 74.75 36.8799 74.53 36.6899 74.24C36.5899 74.1 36.4699 73.96 36.3999 73.82L36.2099 73.39C35.9299 72.82 35.8799 72.19 35.8599 71.6C35.8799 70.87 36.0499 70.2 36.2599 69.57C36.5999 68.62 37.1399 67.8 37.6799 66.99C38.1099 66.38 38.4499 65.66 39.0699 65.07C39.2099 64.95 39.3399 64.8 39.4899 64.69C39.8099 64.5 40.0499 64.41 40.2799 64.49C40.5099 64.59 40.6799 64.79 40.8399 65.12C40.9099 65.27 40.9899 65.41 41.0399 65.56C41.1299 65.81 41.1399 66.06 41.1399 66.3C41.1399 66.55 41.1399 66.76 41.0499 66.9C40.6599 67.72 40.0199 68.43 39.4499 69.26C39.0399 69.87 38.6899 70.53 38.5299 71.15H38.4699L38.4899 71.13Z" fill="#231F20"/>
<path d="M86.17 108.11C86.74 108.61 87.32 109.1 87.93 109.56C88.52 110.04 89.15 110.49 89.78 110.92C90.23 111.25 90.75 111.48 91.21 111.81C92.81 113.01 94.49 114.14 96.18 115.33C96.93 115.86 97.69 116.4 98.41 116.99C98.65 117.17 98.86 117.4 99.08 117.61C99.29 117.83 99.54 118.01 99.69 118.3C99.85 118.57 100.01 118.84 100.15 119.11C100.25 119.41 100.34 119.71 100.42 120C100.51 120.37 100.36 120.35 100.03 120.18C99.5 119.89 99.02 119.62 98.65 119.41L97.41 118.49C96.93 118.22 96.52 117.92 96.01 117.66C95.06 117.1 94.09 116.5 93.11 115.85C91.95 115.06 90.56 114.51 89.31 113.77C88.63 113.35 87.96 112.89 87.29 112.44L85.33 111.01C84.56 110.38 83.75 109.79 83.02 109.12C81.85 108.17 80.82 107.05 79.72 106.05C78.92 105.21 77.96 104.55 77.16 103.72C76.98 103.54 76.79 103.38 76.62 103.19C76.04 102.44 76 102.08 76.38 101.53C76.46 101.41 76.54 101.27 76.63 101.17C76.93 100.82 77.53 100.83 78.12 101.2C79.01 101.73 79.7 102.44 80.51 103.07C80.9 103.4 81.27 103.73 81.64 104.08L82.8 105.07L84.49 106.58C85.05 107.09 85.62 107.59 86.22 108.06L86.18 108.12L86.17 108.11Z" fill="#231F20"/>
<path d="M50.6202 76.54C49.8302 75.25 49.1902 74.11 48.3802 73.14C47.5802 72.16 46.6002 71.31 45.5102 70.48C43.3302 68.84 40.8702 67.41 38.3802 65.99L35.6102 64.45C34.6702 63.93 33.6902 63.31 32.8202 62.63C31.0602 61.27 29.4802 59.7 28.1302 57.85C27.4602 56.92 26.8702 55.88 26.5202 54.63C26.3402 54.01 26.2502 53.31 26.3302 52.58C26.3302 52.22 26.4902 51.84 26.5902 51.48C26.7302 51.13 26.9502 50.81 27.1502 50.49C27.5702 50 28.1002 49.57 28.7102 49.38C29.0102 49.26 29.2902 49.21 29.5602 49.19C29.8502 49.14 30.0902 49.16 30.3502 49.16C31.3502 49.21 32.2102 49.44 33.0302 49.7C34.6502 50.24 36.1402 50.92 37.6102 51.61C40.6002 53.02 43.5702 54.42 46.5802 55.55C48.5102 56.28 50.4802 56.85 52.4402 57.35C54.4002 57.84 56.3602 58.28 58.3902 58.55C59.0302 58.73 59.3202 58.85 59.3102 58.94C59.3002 59.04 59.0002 59.14 58.4502 59.46C58.1802 59.66 57.8302 59.74 57.4302 59.9C57.0302 60.05 56.5702 60.17 56.0602 60.28C55.5502 60.4 54.9902 60.49 54.3902 60.53C53.8002 60.53 53.1802 60.52 52.5402 60.42C51.4102 60.28 50.3102 60.01 49.2402 59.68C48.1702 59.36 47.1202 59 46.0902 58.61C44.0302 57.83 42.0302 56.95 40.0802 56.03C38.1302 55.12 36.2102 54.17 34.3202 53.34C33.3802 52.93 32.4402 52.55 31.5402 52.29C30.6702 52.01 29.7802 51.99 29.6002 52.1C29.5302 52.11 29.4902 52.17 29.4202 52.2C29.2902 52.45 29.0902 52.66 29.1002 53.04C29.0502 53.39 29.1502 53.85 29.2902 54.31C29.6202 55.25 30.2502 56.23 30.9802 57.12C32.4902 58.88 34.3802 60.44 36.3802 61.66C38.8002 63.11 41.4102 64.47 43.9102 66.03C46.3902 67.6 48.9602 69.28 50.9102 71.78C52.1002 73.31 52.8902 74.93 53.8702 76.3C54.8402 77.69 56.0202 78.93 57.3202 80.08C59.2002 81.73 61.6302 82.8 64.1402 83.53C66.6602 84.26 69.3002 84.65 71.9502 84.91C76.3102 85.3 80.4302 87.17 83.7602 89.93C84.5002 90.54 85.2002 91.15 85.8702 91.84C87.0902 93.13 87.7602 94.1 88.1302 94.84C88.4402 95.62 88.4902 96.15 88.3802 96.66C88.3302 96.89 88.3102 97.17 88.2302 97.33C88.0902 97.61 87.7302 97.52 87.2002 97.15C86.6802 96.78 85.9202 96.17 85.1402 95.29C82.7402 92.72 79.9402 90.46 76.7502 89.1C75.1602 88.42 73.4802 87.97 71.7702 87.8C69.8202 87.6 67.8102 87.34 65.8002 86.93C62.8302 86.3 59.7902 85.35 57.0302 83.53C56.3602 83.09 55.6602 82.53 55.0902 82.01C54.5202 81.49 53.9502 80.95 53.4202 80.37C52.3402 79.23 51.3602 77.91 50.5602 76.62L50.6202 76.57V76.54Z" fill="#231F20"/>
<path d="M93.4501 93.25C92.0601 95.04 90.5701 96.76 88.9701 98.39C88.3801 98.98 87.8401 99.62 87.2101 100.17C86.0901 101.14 84.8901 102.05 83.5501 102.81C82.2301 103.56 80.6501 104.19 78.8801 103.99C78.1001 103.84 77.3501 103.59 76.7001 103C76.0701 102.41 75.7601 101.62 75.6301 100.91C75.3201 99.07 75.8101 97.41 76.5101 95.94C76.7001 95.5 76.7601 95.54 76.9101 96C77.0001 96.31 77.1001 96.64 77.2001 96.95C77.2601 97.16 77.3301 97.37 77.3901 97.56C77.4301 97.67 77.4401 97.77 77.4901 97.89L77.5101 98.21C77.5301 98.98 77.6501 99.72 77.8201 100.3C77.8701 100.6 77.9701 100.83 78.0601 101.02C78.1801 101.17 78.2501 101.3 78.3801 101.35C78.6701 101.52 79.1401 101.65 79.6801 101.59C80.2301 101.56 80.8801 101.33 81.5601 101.08C83.2001 100.43 84.6301 98.99 86.0101 97.65C87.5301 96.14 88.9601 94.5 90.3001 92.78C91.1201 91.72 91.9101 90.63 92.6501 89.51C93.7701 87.81 94.8501 86.06 95.7101 84.24C96.3801 82.82 96.8101 81.33 97.2001 79.87C97.2901 79.55 97.3301 79.22 97.4201 78.91C97.7001 77.72 98.0101 77.44 98.8101 77.31C98.9901 77.28 99.1701 77.23 99.3501 77.22C99.6401 77.21 99.8801 77.35 100.05 77.64C100.22 77.93 100.37 78.38 100.3 78.89C100.01 81.97 98.7501 84.85 97.2901 87.56C96.1601 89.56 94.8701 91.46 93.5201 93.3L93.4601 93.26L93.4501 93.25Z" fill="#231F20"/>
<path d="M63.9202 17.63C64.0102 17.79 63.8402 17.95 63.5502 18.09C63.4602 18.14 63.1702 18.15 63.1202 18.11C63.0302 18.02 62.9302 17.94 62.8602 17.85C62.8202 17.79 62.4702 16.91 62.3002 16.62C62.1502 16.34 62.0502 16.05 62.0002 15.75C61.8702 15.16 61.7202 14.57 61.5702 13.98C61.5402 13.85 61.5302 13.72 61.5402 13.58C61.5802 13.11 61.4902 12.66 61.3302 12.22C61.3002 12.15 61.3002 12.07 61.2002 12.01C61.0302 11.92 60.7202 10.71 60.7402 10.54C60.8102 10.12 60.8102 9.71004 60.8502 9.29004C60.8502 9.23004 60.8002 9.18004 60.9002 9.10004C61.1202 8.93004 61.0502 8.81004 61.0402 8.69004C61.0202 8.52004 61.0202 8.34004 61.0602 8.15004C61.0902 8.05004 61.2202 7.94004 61.3202 7.83004C61.4102 7.73004 61.8002 7.68004 61.8502 7.70004C61.9902 7.75004 62.1602 7.64004 62.3102 7.60004C62.3602 7.58004 62.4302 7.57004 62.4802 7.56004C62.6102 7.54004 63.4802 8.39004 63.4802 8.51004C63.4802 8.53004 63.9302 9.94004 63.9902 10.15C64.0302 10.23 63.9902 10.33 63.9602 10.43C63.9602 10.47 64.3002 11.64 64.2802 11.69C64.2802 11.94 64.3802 12.18 64.2102 12.46C64.1802 12.51 64.1902 12.56 64.2002 12.61C64.2702 13.03 64.2302 13.47 64.2102 13.91C64.2102 14.13 64.2402 14.35 64.2502 14.57C64.2502 14.61 64.2302 14.65 64.2202 14.69C64.2102 14.74 64.1902 14.79 64.1902 14.84C64.2302 15.36 64.1902 15.88 64.2402 16.39C64.2402 16.51 64.0702 17.09 64.0902 17.23C64.0902 17.31 63.8702 17.58 63.9102 17.64L63.9202 17.63Z" fill="#231F20"/>
<path d="M70.2702 21.11C70.2002 21.28 69.9702 21.16 69.6502 20.89C69.5502 20.8 69.3302 20.48 69.3402 20.41C69.3402 20.27 69.3502 20.13 69.3802 20.01C69.4002 19.95 69.9102 19.22 70.0902 18.97C70.2602 18.73 70.4702 18.55 70.6802 18.38L71.9902 17.33C72.0902 17.25 72.2002 17.2 72.3202 17.16C72.7502 17.03 73.1002 16.79 73.4102 16.49C73.4602 16.44 73.5302 16.41 73.5402 16.3C73.5502 16.12 74.4902 15.45 74.6502 15.42C75.0502 15.34 75.4102 15.21 75.7902 15.11C75.8402 15.1 75.8702 15.03 75.9702 15.09C76.2002 15.22 76.2702 15.13 76.3802 15.08C76.5302 15.01 76.6802 14.95 76.8602 14.93C76.9502 14.92 77.0902 14.99 77.2202 15.04C77.3402 15.08 77.5202 15.41 77.5202 15.46C77.5202 15.6 77.6802 15.71 77.7702 15.83C77.8002 15.87 77.8402 15.93 77.8602 15.96C77.9102 16.04 77.5102 17.07 77.4202 17.12C77.4202 17.12 77.1602 17.35 76.8802 17.59C76.6102 17.83 76.3302 18.08 76.2802 18.14C76.2302 18.2 76.1302 18.2 76.0402 18.22C76.0002 18.22 75.2202 18.98 75.1702 18.99C74.9702 19.08 74.8202 19.27 74.5202 19.22C74.4602 19.22 74.4302 19.24 74.3902 19.27C74.0802 19.5 73.7102 19.63 73.3602 19.79C73.1802 19.87 73.0302 20 72.8602 20.1C72.8302 20.12 72.7802 20.11 72.7502 20.12C72.7002 20.13 72.6502 20.13 72.6102 20.16C72.2302 20.42 71.7802 20.58 71.4302 20.89C71.3502 20.97 70.7902 21.04 70.7002 21.12C70.6502 21.16 70.2902 21.04 70.2602 21.11H70.2702Z" fill="#231F20"/>
<path d="M69.9202 26.89C69.7202 26.96 69.5602 26.74 69.4202 26.4C69.3702 26.29 69.3802 25.97 69.4402 25.92C69.5502 25.82 69.6602 25.72 69.7802 25.63C69.8502 25.54 70.9502 25.31 71.3302 25.21C71.7002 25.11 72.0602 25.08 72.4302 25.07C73.1702 25.05 73.9202 24.99 74.6602 25.02C74.8202 25.02 74.9902 25.05 75.1502 25.11C75.7002 25.3 76.2602 25.34 76.8302 25.34C76.9202 25.34 77.0202 25.36 77.1202 25.29C77.2802 25.16 78.8102 25.29 79.0002 25.38C79.4702 25.59 79.9402 25.75 80.4102 25.95C80.4802 25.98 80.5602 25.95 80.6002 26.07C80.7102 26.33 80.8602 26.31 81.0102 26.35C81.2102 26.4 81.4102 26.48 81.6102 26.59C81.7102 26.65 81.7802 26.8 81.8602 26.93C81.9302 27.05 81.8202 27.41 81.7802 27.44C81.6702 27.54 81.7102 27.73 81.6902 27.88C81.6902 27.93 81.6802 28 81.6602 28.04C81.6302 28.13 80.3702 28.55 80.2502 28.52C80.2402 28.52 79.8002 28.49 79.3402 28.46C78.8802 28.44 78.4102 28.42 78.3102 28.43C78.2102 28.43 78.1102 28.37 78.0202 28.32C77.9702 28.29 76.6002 28.29 76.5502 28.28C76.2702 28.22 75.9802 28.26 75.7202 28.03C75.6702 27.98 75.6102 27.99 75.5502 27.99C75.0602 27.97 74.5902 27.84 74.1102 27.74C73.8602 27.69 73.6102 27.69 73.3702 27.66C73.3302 27.66 73.2802 27.62 73.2402 27.6C73.1802 27.58 73.1302 27.55 73.0702 27.54C72.4802 27.49 71.9002 27.33 71.3102 27.35C71.1702 27.35 70.5302 27.11 70.3702 27.12C70.2802 27.13 70.0002 26.84 69.9202 26.86V26.89Z" fill="#231F20"/>
</svg>
