<svg width="128" height="128" viewBox="0 0 128 128" fill="none" xmlns="http://www.w3.org/2000/svg">
<path d="M70.7198 19.26C69.1298 16.65 69.7198 15.63 74.5998 12.47C79.4798 9.31003 74.5298 8.00003 74.5298 8.00003C68.8498 7.57003 65.1598 10.15 63.5298 12.34C61.8998 14.53 64.6698 18.92 64.6698 18.92L70.7198 19.26Z" fill="#221F1F"/>
<path d="M30.9299 49.4C27.7288 54.4792 25.7565 60.235 25.1699 66.21L24.9999 67.84C24.9999 68.38 24.9999 68.93 24.9999 69.48C24.9765 70.5679 25.0132 71.6562 25.1099 72.74C25.3648 76.6048 26.2287 80.405 27.6699 84C28.0599 84.88 28.3399 85.81 28.8099 86.66L30.1599 89.22C31.1445 90.8829 32.2508 92.4706 33.4699 93.97C34.5578 95.3007 35.7374 96.5538 36.9999 97.72C37.6299 98.3 38.3099 98.82 38.9999 99.38L39.9999 100.19C40.3399 100.45 40.6999 100.67 40.9999 100.91C44.612 103.398 48.5991 105.292 52.8099 106.52C54.0999 106.96 53.8599 107.24 52.6399 107.22C51.8104 107.193 50.9844 107.1 50.1699 106.94C49.0174 106.689 47.8945 106.317 46.8199 105.83C38.2522 102.022 31.3634 95.2255 27.4399 86.71C25.0611 81.5466 23.784 75.9443 23.6899 70.26C23.6899 69.48 23.6899 68.7 23.6899 67.92L23.9199 65.6C24.0792 64.0513 24.3397 62.5147 24.6999 61C24.8527 60.2339 25.0565 59.4789 25.3099 58.74L25.9999 56.51L26.8799 54.36C27.172 53.6314 27.5059 52.9202 27.8799 52.23L29.2199 49.69C29.7099 48.88 30.2199 48.09 30.7699 47.28C31.2745 46.4857 31.829 45.7242 32.4299 45C32.9961 44.2313 33.6072 43.4967 34.2599 42.8C38.1484 38.5031 42.8709 35.0428 48.1399 32.63C52.1822 30.8087 56.5029 29.6829 60.9199 29.3L62.3699 29.16C62.8599 29.16 63.3699 29.16 63.8299 29.16L66.1399 29.22C66.7699 29.3 67.2699 29.39 67.6899 29.47C68.2683 29.5651 68.8262 29.7579 69.3399 30.04C69.5053 30.1243 69.6598 30.2284 69.7999 30.35C70.0899 30.66 68.6099 30.7 66.0499 30.46C58.076 30.1712 50.2054 32.3352 43.4999 36.66C38.4276 39.9161 34.1549 44.2742 30.9999 49.41L30.9299 49.4Z" fill="#221F1F"/>
<path d="M70.8399 32.69C70.7399 32.5 70.9799 32.39 71.4299 32.32C71.6408 32.2995 71.8536 32.3303 72.0499 32.41C72.1509 32.507 72.2414 32.6142 72.3199 32.73C72.3199 32.79 72.4399 33.73 72.4899 34.07C72.5301 34.3787 72.5301 34.6913 72.4899 35C72.4199 35.63 72.3599 36.25 72.2899 36.87C72.2734 37.0113 72.2364 37.1495 72.1799 37.28C72.0083 37.7311 71.9137 38.2077 71.8999 38.69C71.8754 38.7682 71.8754 38.8519 71.8999 38.93C71.9421 39.4641 71.8948 40.0015 71.7599 40.52C71.5899 40.92 71.4599 41.32 71.3099 41.73C71.3099 41.78 71.3099 41.85 71.2199 41.89C71.1563 41.9254 71.1039 41.9779 71.0685 42.0415C71.0332 42.1051 71.0163 42.1773 71.0199 42.25C70.9842 42.4308 70.9236 42.6058 70.8399 42.77C70.8399 42.86 70.6899 42.93 70.5999 43.01C70.5099 43.09 70.2599 43.01 70.2399 43.01C70.2199 43.01 70.0299 43.01 69.9199 43.01H69.8099C69.6265 42.6259 69.4954 42.219 69.4199 41.8C69.4199 41.8 69.4199 40.27 69.4199 40.09C69.423 39.9978 69.4507 39.9081 69.4999 39.83C69.4999 39.83 69.4999 38.58 69.4999 38.53C69.4999 38.29 69.4999 38.03 69.6899 37.81C69.6899 37.81 69.6899 37.71 69.6899 37.66C69.7583 37.1994 69.8619 36.7448 69.9999 36.3C69.9999 36.09 69.9999 35.87 70.0799 35.65C70.0799 35.65 70.0799 35.58 70.0799 35.54C70.1041 35.4953 70.1242 35.4484 70.1399 35.4C70.1399 34.88 70.3199 34.4 70.2999 33.85C70.2999 33.73 70.5599 33.19 70.5499 33.05C70.5399 32.91 70.8799 32.76 70.8399 32.69Z" fill="#221F1F"/>
<path d="M104.12 73.64C104.3 73.53 104.41 73.77 104.48 74.22C104.497 74.4309 104.467 74.6428 104.39 74.84C104.297 74.9439 104.193 75.0378 104.08 75.12C104.02 75.12 103.08 75.25 102.77 75.3C102.468 75.3451 102.162 75.3451 101.86 75.3C101.26 75.23 100.65 75.18 100.04 75.12C99.9034 75.1021 99.7692 75.0686 99.6402 75.02C99.2004 74.847 98.7327 74.7555 98.2602 74.75C98.1853 74.7263 98.105 74.7263 98.0301 74.75C97.5104 74.794 96.987 74.7535 96.4802 74.63C96.0902 74.46 95.7002 74.33 95.3002 74.19C95.3002 74.19 95.1802 74.19 95.1402 74.1C95.1002 74.01 94.9102 73.93 94.7902 73.9C94.6146 73.8616 94.4437 73.8046 94.2801 73.73C94.1889 73.6654 94.1109 73.5839 94.0502 73.49C93.9802 73.41 94.0502 73.15 94.0502 73.13C94.0502 73.11 94.0502 72.92 94.0502 72.81C94.0448 72.7702 94.0448 72.7299 94.0502 72.69C94.4215 72.5095 94.8148 72.3784 95.2202 72.3C95.2202 72.3 96.7202 72.3 96.8902 72.3C96.9776 72.3045 97.063 72.3284 97.1402 72.37C97.1402 72.37 98.3602 72.37 98.4102 72.37C98.6502 72.37 98.9002 72.37 99.1202 72.56C99.1656 72.5753 99.2147 72.5753 99.2602 72.56C99.6754 72.5951 100.087 72.6654 100.49 72.77C100.7 72.77 100.92 72.77 101.13 72.83L101.24 72.88C101.286 72.8885 101.334 72.8885 101.38 72.88C101.88 72.9586 102.384 73.012 102.89 73.04C103 73.04 103.53 73.28 103.67 73.27C103.81 73.26 104 73.68 104.12 73.64Z" fill="#221F1F"/>
<path d="M27.1799 64.31C27.0099 64.41 26.9099 64.18 26.8399 63.73C26.825 63.5201 26.8522 63.3093 26.9199 63.11C27.0096 63.0062 27.1102 62.9124 27.2199 62.83C27.2799 62.83 28.1599 62.69 28.4599 62.64C28.7448 62.5951 29.035 62.5951 29.3199 62.64L31.0599 62.8C31.1908 62.8145 31.3188 62.8482 31.4399 62.9C31.853 63.0665 32.2945 63.1514 32.7399 63.15C32.8146 63.1745 32.8952 63.1745 32.9699 63.15C33.4621 63.1042 33.9585 63.1379 34.4399 63.25C34.8099 63.42 35.1799 63.54 35.5599 63.68C35.5599 63.68 35.6699 63.68 35.7099 63.77C35.7499 63.86 35.9299 63.94 36.0499 63.97C36.2154 64.0052 36.3764 64.0589 36.5299 64.13C36.6178 64.1953 36.6925 64.2768 36.7499 64.37C36.7736 64.4271 36.7857 64.4883 36.7857 64.55C36.7857 64.6118 36.7736 64.673 36.7499 64.73C36.6599 64.81 36.7499 64.94 36.7499 65.05C36.7499 65.16 36.7499 65.14 36.7499 65.16C36.402 65.3503 36.028 65.4884 35.6399 65.57C35.6399 65.57 34.2199 65.57 34.0599 65.57C33.9722 65.567 33.8865 65.543 33.8099 65.5C33.8099 65.5 32.6499 65.5 32.6099 65.5C32.3799 65.5 32.1499 65.5 31.9399 65.32C31.8943 65.3061 31.8455 65.3061 31.7999 65.32C31.4047 65.2883 31.0132 65.2214 30.6299 65.12C30.4299 65.12 30.2199 65.12 30.0199 65.06C30.0199 65.06 29.9499 65.06 29.9199 65.06C29.8768 65.0534 29.833 65.0534 29.7899 65.06C29.3166 64.9837 28.839 64.9369 28.3599 64.92C28.2399 64.92 27.7399 64.68 27.6099 64.69C27.4799 64.7 27.2499 64.27 27.1799 64.31Z" fill="#221F1F"/>
<path d="M60.14 108.46C60.25 108.63 60.01 108.73 59.56 108.79C59.3501 108.803 59.1396 108.776 58.94 108.71C58.839 108.621 58.7454 108.524 58.66 108.42C58.66 108.36 58.52 107.5 58.47 107.21C58.4306 106.931 58.4306 106.649 58.47 106.37C58.53 105.81 58.57 105.25 58.63 104.69C58.6492 104.567 58.6828 104.446 58.73 104.33C58.8953 103.927 58.9803 103.496 58.98 103.06C58.9968 103.026 59.0055 102.988 59.0055 102.95C59.0055 102.912 58.9968 102.874 58.98 102.84C58.938 102.361 58.9752 101.877 59.09 101.41C59.26 101.06 59.38 100.69 59.52 100.33C59.52 100.33 59.52 100.22 59.6 100.18C59.68 100.14 59.77 99.97 59.8 99.86C59.8336 99.6973 59.8873 99.5394 59.96 99.39C60.0282 99.3076 60.1093 99.2367 60.2 99.18C60.28 99.12 60.54 99.18 60.57 99.18C60.6 99.18 60.77 99.18 60.88 99.23H61C61.1817 99.5712 61.3194 99.9341 61.41 100.31C61.41 100.31 61.41 101.69 61.41 101.85C61.4065 101.931 61.3824 102.011 61.34 102.08C61.34 102.08 61.34 103.21 61.34 103.25C61.34 103.47 61.34 103.7 61.16 103.9C61.1447 103.945 61.1447 103.995 61.16 104.04C61.1317 104.422 61.0681 104.8 60.97 105.17C60.9401 105.366 60.9201 105.562 60.91 105.76C60.9135 105.793 60.9135 105.827 60.91 105.86C60.9043 105.903 60.9043 105.947 60.91 105.99C60.91 106.45 60.75 106.91 60.77 107.38C60.77 107.48 60.53 107.97 60.55 108.1C60.57 108.23 60.1 108.4 60.14 108.46Z" fill="#221F1F"/>
<path d="M104.85 71.09C104.86 70.9435 104.86 70.7965 104.85 70.65C104.85 69.89 104.75 69.11 104.71 68.35C104.256 60.2367 101.324 52.458 96.3093 46.0638C91.2947 39.6695 84.4392 34.9676 76.668 32.5926C68.8968 30.2177 60.5841 30.284 52.8518 32.7826C45.1194 35.2813 38.3398 40.0919 33.4279 46.5654C28.516 53.0388 25.7083 60.8633 25.3837 68.9828C25.0592 77.1024 27.2335 85.126 31.613 91.9708C35.9926 98.8156 42.3667 104.152 49.8749 107.26C57.3831 110.368 65.6641 111.097 73.6 109.35C78.4832 108.273 83.116 106.273 87.25 103.46C95.6048 97.8118 101.502 89.2012 103.75 79.37C103.91 78.67 104.15 77.96 104.26 77.26C104.26 77.12 104.32 76.97 104.34 76.81C104.57 75.23 104.2 73.9 103.53 73.81C102.86 73.72 102.14 74.91 101.94 76.39C101.94 76.52 101.94 76.66 101.94 76.8C101.896 77.5248 101.772 78.2425 101.57 78.94L101 81.22L100.24 83.39C99.7225 84.827 99.1146 86.2298 98.42 87.59C95.3076 93.6412 90.617 98.7383 84.8447 102.342C79.0725 105.945 72.4333 107.921 65.63 108.06C61.1082 108.105 56.6135 107.357 52.35 105.85C45.92 103.591 40.2309 99.6155 35.8997 94.3536C31.5685 89.0916 28.7605 82.7444 27.78 76C27.1341 71.5265 27.2763 66.9745 28.2 62.55C30.097 53.6341 35.195 45.7221 42.53 40.31C47.9838 36.2279 54.4466 33.7086 61.2243 33.0225C68.0019 32.3364 74.8385 33.5095 80.9997 36.4159C87.1609 39.3222 92.4141 43.852 96.195 49.5188C99.9759 55.1855 102.142 61.7752 102.46 68.58C102.532 69.2448 102.532 69.9153 102.46 70.58V71.01C102.4 72.5 102.91 73.76 103.58 73.83C104.25 73.9 104.79 72.69 104.85 71.09Z" fill="#232020"/>
<path d="M34.4901 32.09C31.5039 34.5299 28.8184 37.3161 26.4901 40.39C25.8801 41.14 25.3093 41.921 24.7801 42.73C24.2082 43.5111 23.6839 44.3259 23.2101 45.17C22.1989 46.8158 21.3034 48.53 20.5301 50.3C17.3203 57.378 15.9446 65.1503 16.5301 72.9C16.9215 78.5524 18.3095 84.0911 20.6301 89.26C22.702 93.8024 25.4276 98.017 28.7201 101.77C32.0928 105.468 36.0033 108.637 40.3201 111.17C44.6673 113.688 49.3607 115.555 54.2501 116.71C59.1663 117.829 64.2217 118.21 69.2501 117.84C78.1929 117.145 86.774 114.012 94.0601 108.78C96.3792 107.14 98.5327 105.278 100.49 103.22C102.471 101.186 104.255 98.9693 105.82 96.6C108.969 91.866 111.264 86.6166 112.6 81.09C113.38 77.66 113.94 78.17 113.95 81.32C113.871 83.492 113.536 85.647 112.95 87.74C112.121 90.7484 110.883 93.6286 109.27 96.3C102.767 106.868 92.5946 114.666 80.7001 118.2C74.8348 119.985 68.7017 120.726 62.5801 120.39C59.5288 120.189 56.4989 119.741 53.5201 119.05C50.549 118.321 47.6452 117.341 44.8401 116.12C38.0132 113.16 31.8817 108.803 26.8401 103.33C18.7736 94.3694 14.1947 82.809 13.9377 70.7552C13.6807 58.7013 17.7628 46.9563 25.4401 37.66C31.0206 30.7591 38.3127 25.4415 46.5892 22.2376C54.8657 19.0337 63.8375 18.0553 72.6101 19.4C80.1241 20.5375 87.283 23.3614 93.5501 27.66C95.9531 29.3119 98.2113 31.1652 100.3 33.2C101.3 34.27 102.36 35.26 103.3 36.4L104.69 38.07L105.97 39.83C109.347 44.5573 111.91 49.8167 113.55 55.39C114.283 57.8372 114.841 60.3335 115.22 62.86C115.72 66.2166 115.811 69.6216 115.49 73C115.417 73.9013 115.266 74.7946 115.04 75.67C114.901 76.27 114.689 76.851 114.41 77.4C114.23 77.836 114.016 78.2573 113.77 78.66C113.04 79.45 113.6 75.66 113.32 68.95C112.857 58.7504 109.419 48.9093 103.43 40.64C100.407 36.4468 96.6862 32.8039 92.4301 29.87C88.1632 26.8921 83.4325 24.6417 78.4301 23.21C70.9469 21.0724 63.0614 20.7535 55.4301 22.28C47.7804 23.8219 40.621 27.2025 34.5701 32.13L34.4901 32.09Z" fill="#221F1F"/>
<path d="M65.7399 72.59C65.4599 72.59 65.3599 72.33 65.3599 71.85C65.3855 71.6396 65.4724 71.4414 65.6099 71.28C65.7768 71.2281 65.9473 71.188 66.1199 71.16C66.2199 71.16 67.5499 71.49 68.0099 71.59C68.4499 71.6944 68.8786 71.8418 69.2899 72.03L71.8199 73.03C72.0102 73.1102 72.1912 73.2108 72.3599 73.33C72.9439 73.7161 73.5716 74.0317 74.2299 74.27C74.3332 74.3298 74.4505 74.3608 74.5699 74.36C75.3148 74.5915 76.0323 74.9034 76.7099 75.29C77.2099 75.67 77.7099 76 78.2299 76.37C78.3099 76.37 78.3999 76.45 78.4399 76.55C78.4799 76.65 78.7099 76.85 78.8699 76.96C79.1034 77.0997 79.3213 77.264 79.5199 77.45C79.6159 77.5676 79.6935 77.6991 79.7499 77.84C79.8099 77.96 79.5999 78.15 79.5599 78.15C79.5199 78.15 79.4199 78.32 79.3699 78.41C79.3544 78.4459 79.3342 78.4795 79.3099 78.51C78.7539 78.4366 78.2029 78.3298 77.6599 78.19L77.3199 78.04L76.6099 77.75L75.3899 77.29C75.2703 77.2406 75.159 77.1731 75.0599 77.09C75.0599 77.09 73.3699 76.48 73.3099 76.45C72.9646 76.3372 72.6451 76.157 72.3699 75.92C72.3166 75.8682 72.2513 75.8304 72.1799 75.81C71.6091 75.5738 71.0516 75.3068 70.5099 75.01C70.2199 74.87 69.9199 74.77 69.6299 74.64C69.5787 74.6135 69.5316 74.5798 69.4899 74.54C69.4325 74.4939 69.3684 74.4568 69.2999 74.43C68.6099 74.16 67.9499 73.78 67.2299 73.57C67.0599 73.52 66.3799 73.02 66.2299 72.97C66.0799 72.92 65.8499 72.59 65.7399 72.59Z" fill="#221F1F"/>
<path d="M66.5003 68.58C66.5803 68.84 66.3203 69.01 65.8603 69.13C65.6493 69.1559 65.4357 69.1138 65.2503 69.01C65.1566 68.8607 65.0763 68.7035 65.0103 68.54C65.0103 68.44 65.0103 67.03 65.0103 66.54C65.0167 66.0802 65.0636 65.6217 65.1503 65.17L65.6103 62.41C65.6459 62.2047 65.7029 62.0036 65.7803 61.81C66.0243 61.1376 66.192 60.4399 66.2803 59.73C66.3153 59.6126 66.3153 59.4875 66.2803 59.37C66.3405 58.5664 66.4881 57.7717 66.7203 57C66.9803 56.36 67.2103 55.82 67.4403 55.23C67.4403 55.15 67.4403 55.05 67.5803 54.99C67.7203 54.93 67.8102 54.65 67.8802 54.46C67.97 54.1952 68.0873 53.9404 68.2303 53.7C68.327 53.5734 68.4455 53.465 68.5803 53.38C68.6903 53.29 68.9102 53.47 68.9202 53.52C68.9302 53.57 69.1003 53.62 69.2103 53.66H69.3102C69.3417 54.2229 69.3417 54.7871 69.3102 55.35L69.2503 55.71C69.2503 55.92 69.1703 56.2 69.1203 56.49C69.0303 57.06 68.9503 57.68 68.9403 57.8C68.915 57.9322 68.8712 58.0601 68.8102 58.18C68.8102 58.18 68.5903 60 68.5803 60.07C68.5363 60.419 68.4314 60.7575 68.2702 61.07C68.2351 61.1384 68.2147 61.2133 68.2103 61.29C68.1303 61.91 67.9502 62.52 67.8102 63.14C67.7302 63.45 67.7003 63.78 67.6403 64.09C67.6247 64.1482 67.6047 64.205 67.5803 64.26C67.548 64.3267 67.5244 64.3973 67.5103 64.47C67.4003 65.23 67.1802 65.97 67.1302 66.73C67.1302 66.91 66.7903 67.73 66.7903 67.91C66.7903 68.09 66.4703 68.47 66.5003 68.58Z" fill="#221F1F"/>
<path d="M67.2702 72.1201C67.1002 72.4301 66.7602 71.8901 66.4602 72.1901C64.2902 74.3901 61.3802 69.3401 64.1402 68.1001C65.6502 67.4201 68.6402 69.7201 67.2702 72.1201Z" fill="#231F20"/>
<path d="M63.6802 74.47C63.0539 74.1651 62.4982 73.7328 62.0488 73.2007C61.5993 72.6686 61.266 72.0484 61.0702 71.38C60.9032 70.8946 60.8253 70.3831 60.8402 69.87C60.9241 68.9733 61.3082 68.1312 61.9302 67.48C62.4833 66.8953 63.1694 66.4527 63.9302 66.19C64.5925 65.9476 65.2954 65.8355 66.0002 65.86C66.5124 65.8926 67.0095 66.0469 67.4502 66.31C67.8902 66.5667 68.2156 66.9815 68.3602 67.47C68.4502 67.78 67.8302 67.99 67.2002 68.18L66.3602 68.46C66.1102 68.56 65.9802 68.62 65.9402 68.6C65.7191 68.4934 65.4755 68.4419 65.2302 68.45C64.7829 68.4829 64.3456 68.5981 63.9402 68.79C63.8116 68.8477 63.6959 68.9306 63.5998 69.0336C63.5036 69.1366 63.429 69.2578 63.3802 69.39C63.2847 69.6349 63.2438 69.8977 63.2602 70.16C63.284 70.502 63.3791 70.8352 63.5392 71.1383C63.6994 71.4413 63.9211 71.7076 64.1902 71.92C64.5216 72.2042 64.9349 72.3758 65.3702 72.41C65.7261 72.3864 66.0734 72.2909 66.3914 72.1294C66.7094 71.9678 66.9913 71.7435 67.2202 71.47C67.4044 71.276 67.5431 71.0434 67.6261 70.7892C67.7091 70.5349 67.7344 70.2653 67.7002 70C67.6782 69.9332 67.6479 69.8693 67.6102 69.81C67.5402 69.64 67.6102 69.54 68.1302 69.05L68.4402 68.7C68.5181 68.6091 68.6147 68.5361 68.7234 68.486C68.8322 68.436 68.9505 68.41 69.0702 68.41C69.2181 68.4236 69.3604 68.4737 69.4843 68.5557C69.6082 68.6377 69.7098 68.7491 69.7802 68.88C70.0732 69.3569 70.2161 69.9109 70.1902 70.47C70.1827 71.0001 70.0599 71.5222 69.8302 72C69.4232 72.8086 68.8133 73.4977 68.0602 74C67.4655 74.4294 66.7821 74.7199 66.0602 74.85C65.6461 74.9155 65.2243 74.9155 64.8102 74.85C64.4311 74.7919 64.0613 74.6843 63.7102 74.53L63.6802 74.47Z" fill="#221F1F"/>
<path d="M78.68 10.09C76.9085 9.41543 75.0351 9.04685 73.14 9C72.79 9 72.44 9 72.14 9C71.84 9 71.45 9.08 71.14 9.1C69.9444 9.20645 68.7677 9.46867 67.64 9.88C66.5628 10.2921 65.614 10.9822 64.89 11.88C64.2628 12.678 63.9466 13.6765 64 14.69C64.1668 16.0252 64.4615 17.3412 64.88 18.62C64.96 19.05 64.37 19.3 63.64 19.18C63.2347 19.1085 62.8514 18.9442 62.52 18.7C62.3357 18.5707 62.1707 18.4158 62.03 18.24C61.9054 18.0334 61.808 17.8115 61.74 17.58C61.1528 15.7817 61.2023 13.8361 61.88 12.07C62.6383 10.3271 64.0332 8.93927 65.78 8.19C67.6401 7.32676 69.6369 6.79542 71.68 6.62C73.8569 6.48216 76.0414 6.71548 78.14 7.31C79.4388 7.66389 80.6909 8.17077 81.87 8.82C83.7458 9.78334 85.2531 11.3363 86.16 13.24C86.8419 14.775 87.0272 16.4846 86.69 18.13C86.6 18.48 86.52 18.82 86.41 19.13C86.2904 19.5938 86.0406 20.0136 85.69 20.34C85.5724 20.4387 85.4337 20.5089 85.2845 20.5454C85.1354 20.5818 84.9799 20.5834 84.83 20.55C84.6711 20.5388 84.5137 20.512 84.36 20.47C83.87 20.29 83.72 19.65 83.95 18.89C84.2737 17.8287 84.3958 16.7162 84.31 15.61C84.1787 14.6034 83.7544 13.6575 83.09 12.89C81.8972 11.5927 80.3828 10.6336 78.7 10.11L78.68 10.09Z" fill="#221F1F"/>
<path d="M15.2501 80.1C15.6145 82.1314 16.1157 84.136 16.7501 86.1L16.96 86.84L17.2501 87.56L17.8201 89L18.38 90.43L18.6701 91.15L19.0201 91.84C19.8975 93.7054 20.8998 95.5095 22.0201 97.24C22.6001 98.09 23.0901 99 23.7401 99.81L25.6601 102.23L26.3601 103.11L27.1501 103.92L28.7401 105.53C29.7963 106.603 30.922 107.605 32.1101 108.53C40.4225 115.295 50.6761 119.233 61.3801 119.77C66.1057 119.999 70.8393 119.534 75.43 118.39C78.3674 117.655 81.235 116.664 84.0001 115.43L86.0001 114.43L87.0001 113.94L88.0001 113.39L90.0001 112.29L91.9101 111.07C93.4901 110.07 93.5001 110.48 92.3501 111.65C91.5633 112.463 90.6954 113.193 89.7601 113.83C89.1901 114.23 88.5501 114.66 87.8701 115.09C87.1901 115.52 86.4001 115.87 85.6001 116.27C74.0229 121.744 60.8001 122.624 48.6 118.73C41.1694 116.403 34.3414 112.47 28.6001 107.21L26.3601 104.92C26.0001 104.53 25.6001 104.17 25.2701 103.75L24.2701 102.5C23.6101 101.66 22.9301 100.84 22.2701 99.99L20.5401 97.3C20.2501 96.85 19.9601 96.41 19.6801 95.95L19.0001 94.54L17.5401 91.69L16.3601 88.69L15.7801 87.21L15.3301 85.68L14.7801 83.79C14.5802 83.164 14.4199 82.5261 14.3001 81.88L13.5701 78.02C13.2319 75.4241 13.0782 72.8076 13.1101 70.19C13.1205 68.2063 13.2608 66.2254 13.5301 64.26C13.6288 63.2848 13.7858 62.3164 14.0001 61.36L14.6101 58.45L15.5001 55.62C15.7718 54.669 16.1058 53.737 16.5001 52.83C17.2153 50.9938 18.0505 49.2066 19.0001 47.48C20.4061 44.79 22.0528 42.2329 23.9201 39.84C25.7481 37.4465 27.7825 35.2179 30.0001 33.18C31.0001 32.28 32.0001 31.44 33.0501 30.61C34.442 29.5236 35.9165 28.5473 37.4601 27.69C38.1479 27.2909 38.8934 27.0008 39.67 26.83C39.93 26.83 40.2401 26.71 40.4001 26.71C40.9601 26.76 39.2401 27.8 36.3101 29.82C31.8954 32.9362 27.9806 36.706 24.7001 41C23.8701 42.1 23.0601 43.22 22.3101 44.38C21.5601 45.54 20.93 46.77 20.2301 47.96C19.9001 48.57 19.5501 49.17 19.2301 49.78L18.4101 51.69C17.8173 52.9501 17.3128 54.2499 16.9001 55.58L16.0001 58.51C15.7401 59.51 15.5701 60.51 15.3501 61.51C14.9312 63.5389 14.6472 65.5934 14.5001 67.66C14.2422 71.8047 14.5178 75.9654 15.3201 80.04L15.2501 80.1Z" fill="#221F1F"/>
</svg>
