<svg width="128" height="128" viewBox="0 0 128 128" fill="none" xmlns="http://www.w3.org/2000/svg">
<path d="M65.0802 113.87C64.4802 106.02 65.7602 99.65 65.7102 99.64H55.6202C55.6202 99.64 55.1602 113.62 56.3502 114.11C57.5402 114.6 65.0702 113.87 65.0702 113.87H65.0802Z" fill="#231F20"/>
<path d="M91.8198 113.49C91.8198 113.49 97.0598 113.49 97.0598 101.21C97.0598 93.91 98.4998 104 98.4998 104L97.7798 113.49H91.8198Z" fill="#231F20"/>
<path d="M47.8799 93.67C47.8799 93.67 49.5999 88.14 47.5799 86.5C46.2499 85.42 37.7799 86.05 37.7799 86.05C37.7799 86.05 37.4299 83.65 38.8499 83.39C40.2699 83.13 51.4199 84.19 51.4199 84.19V93.67H47.8699H47.8799Z" fill="#231F20"/>
<path d="M75.9501 93.17C75.9501 93.17 74.1402 86.82 76.1602 85.18C77.4902 84.1 86.0502 85.55 86.0502 85.55C86.0502 85.55 86.4002 83.15 84.9802 82.89C83.5602 82.63 72.4102 83.69 72.4102 83.69V93.17H75.9602H75.9501Z" fill="#231F20"/>
<path d="M53.3699 56.41C53.3699 56.41 26.1399 73.01 26.8699 75.82C27.5999 78.63 49.0099 78.96 52.7399 78.81C56.4699 78.66 27.5599 79.74 27.5599 79.74L16.6699 77.81L29.4399 70.3L53.7599 54.59L53.3599 56.42L53.3699 56.41Z" fill="#231F20"/>
<path d="M25.5098 101.82L25.3098 97.19C25.2998 96.63 25.2098 96.06 25.2098 95.5C25.1998 93.5 25.2498 91.5 25.2898 89.5C25.2898 88.61 25.3298 87.72 25.3198 86.83C25.3198 86.26 25.2798 85.69 25.3698 85.12C25.3998 84.84 25.4598 84.55 25.5198 84.27C25.5598 83.99 25.7898 83.71 25.9098 83.43C26.1098 83.09 26.1598 83.14 26.4398 83.45C26.5798 83.6 26.7998 83.82 27.0798 84.09C27.3098 84.35 27.4498 84.64 27.5398 84.96C27.7098 85.53 27.7498 86.08 27.7898 86.65C27.8398 87.21 27.8798 87.78 27.9098 88.34C27.9698 88.9 27.9098 89.47 27.8698 90.04C27.8298 90.61 27.7798 91.19 27.7198 91.76C27.5698 93.14 27.7698 94.57 27.8098 95.98C27.8598 97.53 27.8398 99.09 27.8698 100.65L27.9198 103.53C27.9598 104.98 27.9698 106.45 28.0598 107.89C28.0998 109.01 28.2498 110.11 28.2998 111.22C28.3098 111.47 28.3398 111.7 28.3398 111.95C28.3298 112.87 28.2098 113.16 27.8098 113.36C27.7198 113.4 27.6298 113.46 27.5398 113.49C27.2398 113.58 26.9798 113.21 26.8398 112.55C26.4498 110.6 26.0198 108.56 25.8598 106.48C25.7098 104.94 25.6098 103.39 25.4798 101.84H25.5398L25.5098 101.82Z" fill="#231F20"/>
<path d="M96.78 101.95C96.88 100.33 96.93 98.7 96.94 97.06C96.95 96.46 96.89 95.87 96.9 95.26C96.95 93.14 96.95 91.01 96.89 88.87C96.86 87.92 96.74 86.98 96.7 86.04C96.64 84.83 96.44 83.63 96.74 82.39C96.82 82.01 96.97 82.05 97.26 82.34C97.41 82.49 97.6 82.7 97.8 82.95C98.03 83.2 98.21 83.51 98.27 83.85L98.67 85.66C98.8 86.27 98.94 86.87 98.97 87.49C99.08 88.72 99.15 89.96 99.14 91.21C99.13 92.71 99.39 94.25 99.49 95.78C99.59 97.47 99.56 99.16 99.52 100.85C99.5 101.89 99.42 102.94 99.38 103.98L99.19 106.35C99.09 107.14 99.03 107.92 98.96 108.71C98.83 109.92 98.82 111.14 98.6 112.34C98.56 112.6 98.52 112.86 98.44 113.12C98.29 113.6 98.17 113.91 97.99 114.11C97.78 114.3 97.58 114.38 97.33 114.43C97.21 114.45 97.1 114.49 97 114.49C96.83 114.49 96.71 114.38 96.58 114.17C96.46 113.96 96.31 113.64 96.31 113.28C96.28 112.74 96.26 112.21 96.2 111.66C96.15 111.12 96.2 110.59 96.2 110.05C96.16 108.97 96.31 107.91 96.39 106.82C96.54 105.22 96.66 103.59 96.71 101.96H96.78V101.95Z" fill="#231F20"/>
<path d="M110.11 112.85C110.71 112.96 111.32 113.05 111.94 113.1C112.17 113.12 112.39 113.06 112.62 113.1C113.43 113.24 114.27 113.36 115.1 113.42C115.47 113.45 115.84 113.44 116.2 113.42C116.67 113.42 117.14 113.51 117.61 113.66C117.76 113.71 117.73 113.81 117.61 113.96C117.49 114.1 117.27 114.36 117.02 114.48C116.79 114.58 116.57 114.7 116.34 114.78C116.11 114.83 115.89 114.87 115.66 114.9C115.2 114.97 114.74 115.01 114.26 114.99C113.69 114.96 113.11 115.16 112.52 115.22C111.87 115.25 111.21 115.24 110.55 115.22C110.14 115.2 109.74 115.17 109.33 115.15C108.71 115.09 108.1 115.04 107.49 114.98C107.02 114.94 106.53 115.04 106.06 115C105.96 114.98 105.85 114.99 105.75 114.96C105.56 114.92 105.45 114.82 105.39 114.65C105.33 114.5 105.31 114.32 105.32 114.1C105.32 114 105.32 113.9 105.32 113.81C105.35 113.52 105.56 113.23 105.88 112.97C106.31 112.78 106.74 112.58 107.13 112.56C107.53 112.51 107.93 112.45 108.32 112.53C108.9 112.61 109.49 112.73 110.09 112.79V112.85H110.11Z" fill="#231F20"/>
<path d="M50.5998 88.43L50.5798 86.86C50.5698 86.61 50.5598 86.35 50.5298 86.12C50.5098 85.87 50.4598 85.62 50.4798 85.64C50.4798 85.53 50.4498 85.42 50.2998 85.42L50.1798 85.4L49.7798 85.36L48.9598 85.28C48.1498 85.21 47.3398 85.22 46.5298 85.16C45.0998 85.06 43.6698 84.97 42.2498 84.93C41.5398 84.91 40.8298 84.91 40.1298 84.93C39.9498 84.93 39.7898 84.95 39.6198 84.96C39.4698 84.96 39.4298 84.98 39.3398 84.99C39.1898 85.01 38.9698 84.99 38.8698 85.12C38.8198 85.26 38.7998 85.41 38.7898 85.57C38.7698 85.81 38.7598 86.17 38.7498 86.47C38.7498 87.09 38.7398 87.72 38.7598 88.34C38.7898 89.14 38.8698 89.94 38.9398 90.72C39.0298 91.51 39.0498 92.29 38.9398 93.1C38.6698 93.65 38.5398 93.64 37.8698 93.32C37.5198 93.16 37.1998 92.89 36.8598 92.54C36.5198 92.19 36.2698 91.75 36.2298 91.25C36.0398 89.49 35.9298 87.76 36.1398 85.99L36.2298 85.26L36.3398 84.67L36.3898 84.38L36.4998 84.12L36.6098 83.87L36.7798 83.67L36.8698 83.57L36.9098 83.52L36.9298 83.49H36.9398V83.47C37.0298 83.54 36.8298 83.37 36.8498 83.39L37.0698 83.24C37.2198 83.15 37.3498 83.03 37.5198 82.96L38.1098 82.85C38.3098 82.82 38.4998 82.77 38.6898 82.75C38.8998 82.77 39.0898 82.76 39.2798 82.75C39.5098 82.74 39.7398 82.72 39.9598 82.72C40.3998 82.72 40.8398 82.72 41.2798 82.74C43.3498 82.82 45.4598 82.74 47.5398 82.83L49.2598 82.93L50.1198 83L50.6598 83.05C50.8798 83.08 51.0998 83.09 51.3098 83.13L51.8798 83.38L52.0198 83.45C52.0898 83.36 52.0398 83.43 52.0598 83.41L52.0698 83.43L52.0898 83.46L52.1398 83.52L52.3298 83.78C52.5598 84.13 52.7298 84.55 52.8298 84.99C52.9998 85.73 53.0198 86.26 53.0698 86.88C53.1298 88.34 53.0298 89.76 52.9398 91.17L52.8198 92.85C52.8198 93.04 52.8098 93.24 52.7798 93.42C52.7698 93.58 52.7198 93.75 52.5998 93.9C52.3698 94.18 52.0398 94.36 51.6798 94.48C51.3398 94.6 50.8998 94.69 50.6498 94.73C50.3698 94.78 50.0898 94.81 49.8198 94.84C49.2698 94.9 48.7298 94.93 48.1898 94.94C46.5198 94.98 44.8798 95.06 43.2098 94.97C42.8398 94.95 42.4798 94.95 42.1098 94.91C41.4298 94.83 40.9898 94.72 40.6998 94.54C40.5598 94.45 40.4498 94.35 40.3698 94.23C40.2998 94.07 40.2598 93.89 40.2198 93.73C40.1898 93.58 40.1298 93.45 40.1198 93.34C40.0498 93.09 40.7598 92.41 41.6698 92.57C43.0698 92.65 44.4798 92.74 45.9198 92.79C47.3398 92.8 48.8298 92.72 50.1098 92.49C50.4098 92.43 50.4098 92.42 50.3998 92.43C50.3998 92.41 50.3998 92.47 50.3998 92.39V92.17L50.4298 91.75C50.4798 90.63 50.5198 89.53 50.4998 88.45H50.5598L50.5998 88.43Z" fill="#231F20"/>
<path d="M70.84 87.6C70.87 86.92 70.92 86.25 71.06 85.53C71.13 85.16 71.19 84.84 71.33 84.41C71.49 83.81 71.77 83.35 72.08 82.88L72.3 82.68L72.36 82.63C72.32 82.57 72.42 82.7 72.41 82.69H72.43L72.46 82.67L72.59 82.61L73.13 82.37C73.49 82.26 73.95 82.29 74.3 82.25L75.77 82.23C76.6 82.23 77.42 82.16 78.24 82.18C79.58 82.22 80.92 82.28 82.26 82.38C82.93 82.43 83.6 82.49 84.29 82.57C84.63 82.61 84.96 82.65 85.33 82.71C85.83 82.75 86.36 82.86 86.81 83.02L87.19 83.25L87.28 83.31H87.29L87.23 83.36L87.25 83.39L87.28 83.44C87.32 83.5 87.35 83.57 87.39 83.63C87.58 84.02 87.61 84.54 87.66 84.98L87.73 85.97C87.78 86.62 87.78 87.27 87.79 87.92C87.79 88.75 87.81 89.58 87.75 90.42C87.71 91.26 87.53 92.1 87.11 92.89C86.64 93.34 86.54 93.21 86.04 92.69C85.78 92.43 85.56 92.09 85.33 91.71C85.23 91.52 85.11 91.32 85.05 91.11C85 90.91 84.98 90.69 84.99 90.47C85.05 89.35 85.07 88.2 85.06 87.06C85.04 86.49 85.09 85.92 85.09 85.36V85.16C85.09 85.16 85.09 85.14 85.1 85.14L85.12 85.1C85.12 85.1 85.14 85.03 85.15 84.98C85.08 85.03 85.1 84.96 85.06 84.95C85.05 84.92 85.05 84.93 84.99 84.91L84.68 84.85C84.25 84.79 83.82 84.71 83.37 84.66C81.44 84.4 79.37 84.54 77.35 84.56L75.19 84.61L74.27 84.64H74.03C73.95 84.64 73.88 84.66 73.85 84.74C73.8 84.8 73.77 84.88 73.73 84.95C73.69 85.04 73.69 85.05 73.63 85.25C73.55 85.58 73.49 85.93 73.44 86.3C73.28 87.58 73.22 88.95 73.25 90.3L73.28 91.61C73.29 91.72 73.26 91.84 73.32 91.93C73.38 92.02 73.48 92.08 73.57 92.13C73.67 92.18 73.77 92.22 73.88 92.26C74.02 92.31 74.22 92.36 74.4 92.41C75.13 92.59 75.91 92.7 76.69 92.77C78.27 92.92 79.84 92.81 81.42 92.69C81.77 92.67 82.11 92.62 82.46 92.6C83.76 92.56 84.17 92.61 84.47 93.37C84.54 93.51 84.62 93.62 84.66 93.72C84.79 93.94 84.27 94.79 83.3 94.82C81.86 95.02 80.37 95.08 78.85 95.04C77.32 95.02 75.78 94.99 74.12 94.69C73.88 94.64 73.63 94.59 73.38 94.52C73.28 94.49 73.03 94.43 72.84 94.35C72.64 94.28 72.44 94.19 72.25 94.1C71.5 93.72 70.95 93.01 70.93 92.16L70.84 90.84L70.79 89.77C70.77 89.05 70.75 88.33 70.77 87.6H70.83H70.84Z" fill="#231F20"/>
<path d="M66.2301 101.1C64.2601 100.73 62.0601 100.62 59.9001 100.61C59.1101 100.61 58.3201 100.69 57.5201 100.7H57.0101H56.8501H56.7101C56.6601 100.67 56.6101 100.7 56.6101 100.74C56.5801 100.82 56.5701 100.91 56.5501 101.01C56.5301 101.04 56.5301 101.44 56.5101 101.72L56.4601 102.62C56.4101 103.82 56.3801 105.03 56.3801 106.24C56.3801 107.49 56.4101 108.74 56.5001 109.97C56.5601 110.76 56.6301 111.55 56.6401 112.34C56.6401 112.74 56.6501 113.13 56.6401 113.53V114.12C56.6101 114.32 56.5401 114.52 56.5001 114.73C56.3601 115.24 56.2301 115.2 55.8101 114.83C55.3201 114.47 54.7001 113.73 54.5101 112.8C53.8501 109.53 53.8801 106.23 54.2001 102.91C54.2601 102.22 54.3101 101.53 54.3701 100.83C54.4401 100.31 54.4801 99.74 54.6701 99.31C54.7301 99.22 54.8201 99.15 54.9001 99.07C54.9201 99.05 54.9401 99.03 54.9701 99.01H54.9901V98.99C54.8201 98.81 54.9401 98.94 54.9001 98.9H54.9101L54.9501 98.88L55.1101 98.82L55.7601 98.58C57.1301 98.47 57.5501 98.45 58.3101 98.42C60.5401 98.35 62.7701 98.28 65.0501 98.44C65.7501 98.49 66.4601 98.57 67.1801 98.7C67.3601 98.73 67.6601 98.79 67.8901 98.85C68.1501 98.9 68.3701 98.99 68.5801 99.1C69.0601 99.26 69.2201 99.8 69.3501 100.25C69.4001 100.43 69.4401 100.62 69.4701 100.81L69.5401 101.24C69.5801 101.51 69.6101 101.78 69.6301 102.04C69.6801 102.57 69.7201 103.1 69.7401 103.63C69.7801 104.68 69.7801 105.73 69.7801 106.77C69.7801 108.39 69.8501 109.99 69.7301 111.62C69.7001 111.98 69.6901 112.34 69.6401 112.7C69.5801 113.04 69.5301 113.31 69.4501 113.54C69.3601 113.76 69.2201 113.93 69.1001 114.06C68.8601 114.32 68.5901 114.44 68.2701 114.49C68.1301 114.51 67.9801 114.56 67.8701 114.56C67.5001 114.56 67.2001 113.93 67.0501 113C67.1201 110.33 67.1601 107.49 67.0501 104.64C66.9901 103.59 67.0001 102.52 66.8901 101.55L66.8701 101.37C66.8701 101.3 66.8701 101.35 66.8701 101.33C66.8701 101.33 66.8701 101.29 66.8701 101.28C66.8701 101.28 66.8601 101.27 66.8401 101.26C66.8601 101.26 66.7001 101.23 66.5901 101.2C66.4701 101.17 66.3501 101.15 66.2301 101.13V101.07V101.1Z" fill="#231F20"/>
<path d="M19.5301 77.36C19.5301 77.36 19.6401 77.41 19.7101 77.44L19.8501 77.47L19.9301 77.49C19.9301 77.49 19.9201 77.49 20.0201 77.5L20.3601 77.53C22.1801 77.69 24.0101 77.85 25.8401 77.96C29.5101 78.19 33.1901 78.31 36.8701 78.32C39.5501 78.33 42.2501 78.19 44.9501 78.16C54.4701 78.01 64.0001 77.74 73.5401 77.53C77.7701 77.44 82.0301 77.3 86.2301 77.16C88.9301 77.09 91.6401 77 94.3701 77.04C95.0501 77.05 95.7301 77.05 96.4101 77.08L98.4501 77.24C99.8101 77.38 101.18 77.49 102.51 78C104.13 78.75 103.87 78.65 102.38 79C100.9 79.38 98.3101 79.89 95.2601 79.8C89.8301 79.61 84.3401 79.61 78.8401 79.7C73.3301 79.83 67.8201 79.95 62.2701 80.08C55.6301 80.18 48.7301 80.62 41.9301 80.79C38.1901 80.9 34.4201 80.92 30.6701 80.82C28.7901 80.77 26.9201 80.7 25.0401 80.59L22.2301 80.41L20.8201 80.3L19.2401 80.14C18.3601 80.04 17.5001 79.94 16.6801 79.81C16.2801 79.74 15.8801 79.67 15.5401 79.58C15.2001 79.49 14.9501 79.36 14.7101 79.25C14.4801 79.13 14.3001 79.01 14.1301 78.89C14.0501 78.82 13.9601 78.77 13.8901 78.66C13.9201 78.54 14.1001 78.46 14.2001 78.36L15.6201 77.23L16.3301 76.67L16.6901 76.39L16.8701 76.25C16.9501 76.2 17.0801 76.15 17.1701 76.1C17.6001 75.9 18.0301 75.71 18.3801 75.49L19.2701 74.98C20.2701 74.42 21.2601 73.83 22.2301 73.23C25.1801 71.39 28.1401 69.55 31.0901 67.72C34.0601 65.9 37.0001 64.06 39.9101 62.2C44.4401 59.31 48.7801 56.33 53.2501 53.44C54.2301 52.8 55.1901 52.16 56.1901 51.54C60.0101 49.38 61.3501 48.91 62.5201 49.06C62.7801 49.08 63.0801 49.04 63.2401 49.07C63.7301 49.1 62.5501 50.61 59.9201 52.42C58.9401 53.09 58.0001 53.84 56.9901 54.48C55.9901 55.14 54.9801 55.8 53.9701 56.46C51.9301 57.78 49.8801 59.11 47.8101 60.45C43.6601 63.12 39.4201 65.8 35.1401 68.46C31.9901 70.47 28.6801 72.26 25.4001 74.08C23.7601 75 22.0701 75.83 20.4701 76.82L19.9101 77.15H19.8401C19.8601 77.17 19.8901 77.21 19.8901 77.22H19.8601L19.7101 77.31L19.5201 77.35L19.5301 77.36Z" fill="#231F20"/>
<path d="M89.4901 68.46L83.0801 64.01C82.3001 63.47 81.4801 63 80.7101 62.44L72.6101 56.5C71.4101 55.63 70.1701 54.8 68.9301 54.01C68.1301 53.51 67.3401 52.97 66.5801 52.42C66.2001 52.14 65.8201 51.85 65.4501 51.55C65.0801 51.26 64.7901 50.85 64.4801 50.46C64.1601 49.89 64.3001 49.83 64.9801 49.72C65.3301 49.66 65.7801 49.63 66.3101 49.61C66.8101 49.63 67.3101 49.79 67.7901 50.06C69.4901 50.98 71.0501 52.1 72.6201 53.23C74.1801 54.36 75.7201 55.53 77.2401 56.75C79.0501 58.22 81.1401 59.44 83.0901 60.8L89.5201 65.3L93.5001 68.04C95.5201 69.4 97.5301 70.8 99.5801 72.08C101.19 73.04 102.78 73.99 104.38 74.94C104.73 75.15 105.08 75.34 105.43 75.57C106.65 76.51 106.95 76.93 106.99 77.49C107 77.61 107.04 77.74 107.03 77.83C107.03 78.11 106.29 78.1 105.22 77.69C102.07 76.45 99.0201 74.71 96.0601 72.8C93.8501 71.4 91.6701 69.94 89.4801 68.5L89.5101 68.44L89.4901 68.46Z" fill="#231F20"/>
<path d="M54.0501 39.84C59.5301 36.25 66.3601 36.01 71.7401 39.92C72.3801 40.38 73.3501 40.02 73.7201 39.4C74.1601 38.67 73.8301 37.87 73.2001 37.42C67.0501 32.94 58.8401 33.23 52.5801 37.34C51.0301 38.36 52.4801 40.87 54.0401 39.84H54.0501Z" fill="#231F20"/>
<path d="M40.2301 32.91C46.8701 28.52 54.5901 25.84 62.5801 25.68C70.5701 25.52 78.8801 28.19 85.5901 33.11C87.2801 34.35 88.9001 31.53 87.2301 30.3C76.1201 22.14 61.6501 20.34 48.7301 25C45.1601 26.29 41.7501 28 38.5901 30.09C36.8501 31.24 38.4801 34.05 40.2301 32.9V32.91Z" fill="#231F20"/>
<path d="M24.5599 26.7C42.1599 15.03 64.4799 10.94 84.6299 18.09C90.5899 20.21 96.1599 23.29 101.25 27.04C102.93 28.28 104.56 25.46 102.89 24.23C93.6699 17.42 82.8899 13.09 71.4999 11.71C60.1099 10.33 49.5899 11.86 39.3799 15.57C33.5799 17.68 28.0499 20.47 22.9099 23.88C21.1699 25.03 22.7999 27.85 24.5499 26.69L24.5599 26.7Z" fill="#231F20"/>
<path d="M63.3901 42.34H63.2301C62.9601 42.33 62.7001 42.39 62.4701 42.51C62.2301 42.59 62.0101 42.73 61.8301 42.92C61.6401 43.1 61.5001 43.31 61.4201 43.56C61.3001 43.8 61.2401 44.05 61.2501 44.32L61.3201 44.85C61.4101 45.18 61.5801 45.48 61.8301 45.72L62.2301 46.03C62.5401 46.21 62.8701 46.3 63.2301 46.3H63.3901C63.6601 46.31 63.9201 46.25 64.1501 46.13C64.3901 46.05 64.6101 45.91 64.7901 45.72C64.9801 45.54 65.1201 45.33 65.2001 45.08C65.3201 44.84 65.3801 44.59 65.3701 44.32L65.3001 43.79C65.2101 43.46 65.0401 43.16 64.7901 42.92L64.3901 42.61C64.0801 42.43 63.7501 42.34 63.3901 42.34Z" fill="#231F20"/>
<path d="M50.6201 65.45C50.2201 65.47 49.8201 65.47 49.4201 65.47C49.2701 65.47 49.1301 65.5 48.9901 65.49C48.4701 65.44 47.9601 65.34 47.4501 65.17C47.3401 65.12 47.2201 65.11 47.1101 65.05L46.7801 64.87C46.5201 64.69 46.2201 64.44 46.2101 64.07C46.2001 63.96 46.3101 63.95 46.4701 63.96C46.6301 63.96 46.8101 63.95 46.9301 63.95C47.1001 63.99 47.3101 63.95 47.5001 63.95C47.6901 64.02 47.8901 64.1 48.1301 64.19C48.4201 64.3 48.7301 64.23 49.0501 64.22C49.3901 64.22 49.7501 64.19 50.1001 64.15C50.3201 64.12 50.5401 64.09 50.7501 64.06C51.0801 64.01 51.4201 63.96 51.7301 63.84C51.9801 63.76 52.1701 63.56 52.4001 63.48C52.4501 63.46 52.4901 63.42 52.5501 63.41C52.7501 63.35 52.8401 63.39 52.9901 63.59L53.0901 63.72C53.1901 63.87 53.1801 64.05 53.0701 64.21C52.9001 64.43 52.7301 64.69 52.5001 64.82C52.2801 64.97 52.0301 65.07 51.7801 65.18C51.4101 65.31 51.0201 65.44 50.6201 65.49V65.46V65.45Z" fill="#231F20"/>
<path d="M44.8999 71C44.5699 70.99 44.2399 70.97 43.9199 70.96C43.7999 70.96 43.6799 70.98 43.5599 70.96C43.1399 70.93 42.7099 70.79 42.3099 70.64C42.1299 70.57 41.9499 70.53 41.7699 70.45C41.5399 70.37 41.3099 70.23 41.1699 70.01C41.0799 69.89 41.4399 69.82 41.6499 69.81C42.0299 69.86 42.4199 69.79 42.8399 69.85C43.0899 69.87 43.3499 69.85 43.6199 69.83C43.9099 69.83 44.2099 69.81 44.4999 69.79C44.6799 69.78 44.8699 69.76 45.0499 69.74C45.3299 69.7 45.6099 69.66 45.8699 69.59C46.0799 69.53 46.2599 69.4 46.4499 69.3C46.4899 69.28 46.5399 69.26 46.5799 69.26C46.7599 69.24 46.8399 69.32 46.9599 69.55L47.0399 69.71C47.1199 69.89 47.0999 70.07 46.9999 70.22C46.8599 70.46 46.6799 70.6 46.4899 70.71C46.2999 70.81 46.0999 70.93 45.8799 70.95C45.5599 71.01 45.2299 71.02 44.8999 71.04V71.01V71Z" fill="#231F20"/>
<path d="M60 72.67C59.6 72.7 59.19 72.72 58.78 72.67C58.63 72.67 58.49 72.69 58.34 72.67C57.82 72.6 57.29 72.47 56.78 72.31C56.55 72.24 56.3 72.18 56.07 72.06C55.79 71.9 55.38 71.62 55.44 71.16C55.44 71.03 55.62 71.06 55.83 71.08C56.04 71.11 56.24 71.04 56.33 71.01C56.36 71.01 56.48 70.99 56.53 70.99C56.62 70.99 56.73 70.96 56.8 71.01C57 71.07 57.22 71.14 57.47 71.23C57.77 71.34 58.1 71.26 58.42 71.25C58.78 71.23 59.14 71.23 59.5 71.23C59.72 71.23 59.95 71.21 60.18 71.18C60.52 71.14 60.86 71.08 61.19 71.01C61.44 70.93 61.66 70.79 61.88 70.68C61.93 70.65 61.98 70.64 62.03 70.62C62.22 70.57 62.32 70.62 62.48 70.79L62.58 70.91C62.68 71.04 62.68 71.21 62.57 71.39C62.24 71.93 61.72 72.23 61.22 72.47C60.82 72.59 60.42 72.65 60.01 72.71V72.67H60Z" fill="#231F20"/>
<path d="M24.1801 55.56C24.3801 56.59 23.7901 57.55 23.0901 58.1C22.8401 58.31 22.5701 58.51 22.2401 58.6C21.6701 58.75 20.9901 58.73 20.4001 58.41C19.8101 58.07 19.4501 57.56 19.3601 57.03C19.2901 56.55 19.3001 56.1 19.4901 55.66C19.5901 55.38 19.8401 55.11 20.1501 55C20.4601 54.88 20.7801 54.94 20.9901 55.07C21.1301 55.16 21.0601 55.28 20.9701 55.48C20.9201 55.58 20.8701 55.71 20.8501 55.84C20.8201 55.97 20.8901 56.16 20.8601 56.08C20.8401 56.06 20.9201 56.16 21.0501 56.21C21.1801 56.26 21.3001 56.27 21.3301 56.26C21.3501 56.26 21.3501 56.26 21.3301 56.26H21.3101L21.3001 56.27C21.1301 56.37 21.5301 56.13 21.4901 56.16C21.3201 56.24 21.2101 56.4 21.2101 56.4C21.2101 56.41 21.2101 56.4 21.2201 56.36V56.28C21.2201 56.28 21.2301 56.28 21.2401 56.26C21.2601 56.26 21.3001 56.22 21.3601 56.2C21.5201 56.17 21.7101 56.15 21.8401 55.95C21.9401 55.85 22.0001 55.71 21.9901 55.59C21.9901 55.4 21.7901 55.23 21.4901 55.36C21.2601 55.44 21.1401 55.69 21.0301 55.93C21.0001 55.98 20.9901 56.05 20.9601 56.1C20.8501 56.3 20.7201 56.31 20.3101 56.17L20.0301 56.08C19.7201 55.96 19.5301 55.73 19.5601 55.44C19.6101 55.03 19.7901 54.59 20.1701 54.19C20.5601 53.8 21.1001 53.51 21.8401 53.49C22.3801 53.49 23.0001 53.7 23.4501 54.09C23.9101 54.48 24.1701 55.02 24.2801 55.55H24.2201L24.1801 55.56Z" fill="#231F20"/>
<path d="M15.1701 64.1C14.7301 65.27 13.4601 66.05 12.3601 66.05C11.9901 66.05 11.5801 66.09 11.2701 65.97C11.0001 65.88 10.6701 65.77 10.3801 65.55C10.0901 65.35 9.87008 65.06 9.72008 64.76C9.37008 64.17 9.40008 63.43 9.54008 62.81C9.71008 62.24 9.88008 61.8 10.2301 61.44C10.4401 61.21 10.6901 61 11.0101 60.87C11.3301 60.75 11.7201 60.77 12.0201 60.92C12.2101 61.03 12.1001 61.22 11.9601 61.48C11.8001 61.73 11.7601 62.14 11.7801 62.3C11.7201 62.5 11.7801 62.79 11.7001 62.92C11.6501 62.96 11.5201 62.97 11.4201 63.18C11.3601 63.3 11.4101 63.41 11.4901 63.46C11.5301 63.5 11.7601 63.53 11.9001 63.58C12.2301 63.66 12.4301 63.66 12.6501 63.48C12.7801 63.36 12.8601 63.16 12.8501 62.97C12.8501 62.82 12.7901 62.72 12.7301 62.6C12.6301 62.47 12.4801 62.36 12.3101 62.33C12.1501 62.29 11.9801 62.39 11.8601 62.45C11.7801 62.49 11.7201 62.59 11.6801 62.67C11.6601 62.72 11.6501 62.78 11.6301 62.81C11.6001 62.87 11.5501 62.87 11.4401 62.81C11.3501 62.75 11.1001 62.65 10.8401 62.46C10.7201 62.38 10.6001 62.3 10.5001 62.22C10.3201 62.08 10.1901 61.92 10.0701 61.73C10.0201 61.63 9.94008 61.54 9.94008 61.4C9.97008 61.31 9.92008 61.11 9.97008 60.98C10.2201 60.29 10.8301 59.77 11.5701 59.59C12.5401 59.5 13.5901 59.77 14.3501 60.4C14.4701 60.5 14.5901 60.61 14.7101 60.73C14.8201 60.87 14.9201 61.03 15.0201 61.18C15.2301 61.49 15.3101 61.85 15.4001 62.18C15.5101 62.87 15.4201 63.53 15.2001 64.12L15.1401 64.1H15.1701Z" fill="#231F20"/>
<path d="M67.8 115.97L54.11 116.04C52.44 116.05 50.78 116.14 49.12 116.13C43.25 116.13 37.37 116.05 31.5 115.89C28.89 115.82 26.27 115.77 23.68 115.67C22.01 115.61 20.34 115.5 18.67 115.29C17.83 115.19 17 115.05 16.16 114.86C15.95 114.8 15.74 114.77 15.54 114.69L14.94 114.4C14.55 114.19 14.16 113.97 13.81 113.69C13.37 113.35 13.27 113.1 13.28 113.12C13.31 113.1 13.5 113.31 13.94 113.39C14.37 113.48 15.01 113.46 15.78 113.31C16.53 113.24 17.36 113.3 18.29 113.36C24.9 113.79 31.67 113.75 38.47 113.89C42.55 113.97 46.79 113.75 50.96 113.64L64.73 113.32C67.56 113.26 70.39 113.19 73.21 113.13C77.49 113.04 81.8 112.95 86.05 112.86C89.36 112.77 92.61 112.53 95.91 112.51C96.64 112.51 97.36 112.48 98.1 112.51C100.84 112.64 101.79 113.04 102.19 113.99C102.28 114.2 102.41 114.42 102.44 114.61C102.5 115.23 101.45 115.54 99.56 115.54C96.73 115.56 93.76 115.68 90.75 115.76C87.72 115.8 84.66 115.84 81.59 115.88C77.01 115.93 72.4 115.98 67.81 116.03V115.96L67.8 115.97Z" fill="#231F20"/>
</svg>
