<svg width="128" height="128" viewBox="0 0 128 128" fill="none" xmlns="http://www.w3.org/2000/svg">
<path d="M22.7498 51.09C22.1698 51.94 15.8698 62.14 18.0298 67.38C20.0798 72.36 28.0498 73.18 28.0498 73.18L13.8198 69.81C13.8198 69.81 15.0498 63.39 16.6098 60.48C18.1598 57.57 22.7598 51.09 22.7598 51.09H22.7498Z" fill="#231F20"/>
<path d="M19.67 72.0701C17.45 73.1801 16.01 74.9201 16.88 76.1601C17.28 76.7301 17.96 77.9201 17.5 78.2201C16.72 78.7301 14.81 80.6301 15.19 82.7001C15.81 86.1201 17.74 87.4601 20.43 88.1501C22.66 88.7301 17.42 90.1201 17.87 91.4001C18.47 93.1201 19.55 92.5501 20.43 93.5201C21.31 94.4901 19.15 96.9101 21.69 101.57C23.88 105.59 27.29 107.5 30.8 108.32C36.16 109.58 21.7 107.07 21.7 107.07C21.7 107.07 14.39 96.3301 14.51 93.7901C14.63 91.2501 12.17 85.6101 12.17 85.6101L11.75 77.7501L12.83 72.0601H19.68L19.67 72.0701Z" fill="#231F20"/>
<path d="M70.3298 94.4C71.6598 94.67 72.9798 94.97 74.3498 95.4L75.1398 95.65C75.3998 95.74 75.7798 95.91 75.9598 96.04C77.4398 97.04 78.7698 98.12 80.1198 99.2C80.7198 99.68 81.3398 100.12 81.9598 100.58C82.3598 100.87 82.7298 101.19 83.0998 101.54C83.4298 101.93 83.6898 102.38 83.9098 102.87C84.0398 103.18 83.8598 103.24 83.4798 103.24C83.1198 103.22 82.4698 103.26 81.9298 103.11C81.5198 102.89 81.1298 102.64 80.7298 102.39L79.5998 101.54C78.8398 100.97 78.0898 100.37 77.3398 99.74C76.8998 99.36 76.3998 99.04 75.8898 98.75L75.1198 98.33L74.7398 98.13C74.6198 98.07 74.5398 98.05 74.4398 97.99C73.4398 97.56 72.0898 97.25 70.8398 96.99C70.0498 96.83 69.2598 96.68 68.4598 96.56C67.2498 96.39 66.0198 96.19 64.8098 96.11C63.8598 96.04 62.9298 96.15 61.9898 96.15C61.7798 96.15 61.5798 96.18 61.3798 96.17C60.6198 96.15 60.3798 95.97 60.2198 95.46C60.1798 95.35 60.1298 95.24 60.1098 95.13C60.0298 94.78 60.3498 94.41 60.9398 94.25C62.6698 93.79 64.4998 93.76 66.3098 93.85C67.6598 93.93 68.9998 94.16 70.3498 94.37V94.43L70.3298 94.4Z" fill="#231F20"/>
<path d="M95.52 95.21L93 96.04C93 96.04 92.93 96.07 92.89 96.1C92.75 96.26 92.53 96.68 92.32 96.98C91.53 98.16 90.74 99.34 89.95 100.52C89.59 101.05 89.23 101.58 88.85 102.11C88.61 102.45 88.35 102.79 87.99 103.07C87.65 103.33 87.22 103.67 86.58 103.58C86.19 103.42 86.44 103.3 86.61 103.11C86.79 102.89 86.77 102.52 86.95 102.2C87.62 100.99 88.46 99.6 89.44 98.3C90.03 97.51 90.42 96.57 90.97 95.68C91.09 95.49 91.21 95.3 91.36 95.1C91.55 94.82 91.81 94.56 92.12 94.42C92.26 94.36 92.35 94.32 92.42 94.3L92.66 94.21L93.14 94.03L94.11 93.68L96.06 93C97.05 92.66 98.06 92.37 99.06 92.06C99.84 91.83 100.59 91.46 101.47 91.34C101.66 91.31 101.86 91.29 102.07 91.29C102.45 91.27 102.77 91.45 102.92 91.56C103.1 91.74 103.16 91.93 103.12 92.16C103.11 92.26 103.09 92.37 103.06 92.46C103 92.61 102.86 92.72 102.74 92.82C102.62 92.91 102.51 92.99 102.32 93.07C101.32 93.51 99.95 93.84 98.59 94.27C97.58 94.59 96.54 94.91 95.51 95.27L95.49 95.23L95.52 95.21Z" fill="#231F20"/>
<path d="M103.99 89.57C103.62 90.1 103.21 90.61 102.77 91.09C102.62 91.27 102.5 91.47 102.32 91.63C101.71 92.21 100.97 92.65 100.22 93C99.8902 93.17 99.5802 93.34 99.2502 93.51C99.0302 93.59 98.8202 93.69 98.5902 93.76C98.3502 93.79 98.1002 93.76 97.8602 93.7C97.7102 93.66 97.6802 93.4 97.7202 93.08C97.7602 92.76 97.8302 92.3 97.9702 92.12C98.5202 91.6 99.0902 91.37 99.8002 91.05C100.23 90.87 100.48 90.44 100.8 90.1C101.15 89.72 101.49 89.31 101.8 88.86C101.99 88.58 102.17 88.3 102.32 88C102.56 87.55 102.79 87.08 102.9 86.58C102.98 86.19 102.9 85.77 102.89 85.38C102.89 85.29 102.87 85.21 102.88 85.12C102.95 84.82 103.22 84.76 103.73 84.75H104.09C104.47 84.76 104.8 84.95 105 85.25C105.45 86.14 105.19 87.01 104.91 87.83C104.69 88.44 104.37 89.02 104.04 89.58L103.99 89.56V89.57Z" fill="#231F20"/>
<path d="M100.63 78.08C100.1 78.86 99.4102 79.56 98.6302 80.08C98.3602 80.29 98.0802 80.48 97.7802 80.64C97.2202 80.88 96.7002 81.0599 96.1302 81.1699C95.5702 81.2899 94.9402 81.34 94.3502 81.21C93.8302 81.11 93.3202 81 92.8802 80.8C92.3102 80.54 91.8302 80.22 91.4202 79.79C91.2902 79.65 91.4002 79.51 91.6302 79.37C91.8602 79.24 92.2502 79.08 92.5802 79.1C93.1602 79.17 93.6802 79.14 94.0602 79.21C94.4602 79.25 94.7802 79.21 95.2602 79.26C95.8402 79.28 96.4102 78.91 96.8902 78.62C97.4402 78.3 97.9402 77.8699 98.3502 77.3399C98.6102 77.0199 98.8102 76.64 99.0102 76.26C99.2802 75.67 99.5102 75.0199 99.5802 74.3399C99.6402 73.8099 99.5102 73.28 99.4402 72.76C99.4402 72.64 99.4002 72.5299 99.4102 72.4199C99.3902 71.9899 99.6602 71.84 100.14 71.72L100.4 71.64C100.52 71.61 100.64 71.64 100.85 71.72C101.07 71.79 101.23 71.92 101.34 72.1C101.47 72.36 101.57 72.63 101.67 72.9C101.72 73.18 101.77 73.4599 101.79 73.7399C101.83 74.3099 101.78 74.91 101.67 75.5C101.5 76.38 101.2 77.28 100.69 78.1L100.64 78.07L100.63 78.08Z" fill="#231F20"/>
<path d="M21.76 95.84C21.4 95.96 21.06 96.13 20.81 96.42C20.7 96.52 20.67 96.66 20.59 96.78C20.28 97.2 20.12 97.77 20.01 98.4C20.01 98.68 19.99 98.97 20.04 99.25C20.09 99.62 20.2 99.97 20.17 100.38C20.16 100.51 19.97 100.57 19.71 100.56C19.46 100.54 19.12 100.45 18.96 100.23C18.71 99.85 18.48 99.43 18.35 98.97C18.28 98.51 18.26 98 18.44 97.52C18.64 96.96 18.7 96.34 19.02 95.79C19.38 95.21 19.86 94.69 20.45 94.37C20.62 94.25 20.81 94.18 20.99 94.1C21.17 94.01 21.35 93.95 21.54 93.9C21.82 93.81 22.1 93.75 22.38 93.72C22.66 93.66 22.94 93.65 23.21 93.62C23.64 93.54 24.05 93.44 24.49 93.38C24.58 93.38 24.68 93.35 24.77 93.35C25.12 93.36 25.22 93.51 25.2 94.04C25.2 94.16 25.2 94.28 25.19 94.4C25.15 94.81 24.97 95.13 24.75 95.22C24.08 95.49 23.49 95.56 22.92 95.61C22.52 95.68 22.1 95.71 21.77 95.88L21.75 95.84H21.76Z" fill="#231F20"/>
<path d="M41.4501 50.63C44.0201 50.63 44.0301 46.63 41.4501 46.63C38.8701 46.63 38.8701 50.63 41.4501 50.63Z" fill="#231F20"/>
<path d="M80.87 47.25L80.75 47.13C78.81 45.19 75.81 48.2 77.74 50.14L77.86 50.26C79.8 52.2 82.8 49.19 80.87 47.25L80.75 47.13C78.81 45.19 75.81 48.2 77.74 50.14L77.86 50.26C79.8 52.2 82.8 49.19 80.87 47.25Z" fill="#231F20"/>
<path d="M69.94 59.73C72.35 59.73 72.36 55.98 69.94 55.98C67.52 55.98 67.52 59.73 69.94 59.73Z" fill="#231F20"/>
<path d="M32.69 65.5699C35.1 65.5699 35.11 61.8199 32.69 61.8199C30.27 61.8199 30.27 65.5699 32.69 65.5699Z" fill="#231F20"/>
<path d="M89.07 64.88C91.32 64.88 91.33 61.38 89.07 61.38C86.81 61.38 86.81 64.88 89.07 64.88Z" fill="#231F20"/>
<path d="M78.8202 111.62C72.4202 112.11 66.0302 112.37 59.6402 112.45C57.3102 112.48 54.9702 112.57 52.6402 112.53C48.5302 112.46 44.4102 112.29 40.3002 111.95C36.1902 111.59 32.0802 111.14 27.9902 110.18C26.1802 109.75 24.3602 109.22 22.6002 108.28C20.8002 107.31 19.4802 105.81 18.3602 104.32C17.6202 103.36 17.0002 102.33 16.3902 101.3C15.8302 100.24 15.3202 99.16 14.9002 98.04C14.4402 96.94 14.1102 95.78 13.8602 94.62C13.6102 93.45 13.4402 92.26 13.4102 91.06C13.4402 89.55 13.6602 89.79 14.1802 90.93C14.4602 91.5 14.8902 92.28 15.3802 93.19C15.6402 93.65 15.9102 94.13 16.2002 94.65C16.3502 94.9 16.4702 95.18 16.6502 95.44C16.7802 95.72 16.9102 96 17.0402 96.29C17.5202 97.31 18.0202 98.31 18.6002 99.27C19.1602 100.24 19.7002 101.2 20.3202 102.1C20.9302 103 21.6102 103.82 22.3302 104.55C23.0502 105.28 23.8002 105.75 24.7002 106.18C26.5902 107.01 28.8402 107.55 31.0802 108C33.3502 108.42 35.6602 108.75 38.0002 109.04C43.6002 109.7 49.5102 109.66 55.3002 109.64C61.6702 109.6 68.0602 109.39 74.4202 108.94C78.3302 108.66 82.2502 108.32 86.1202 107.78C87.5802 107.57 89.0502 107.35 90.4802 107.06C91.2002 106.93 91.9102 106.75 92.6102 106.58L93.6202 106.28C93.9002 106.15 94.2902 106.05 94.4802 105.92C94.5902 105.84 94.6802 105.84 94.8102 105.71L95.1902 105.36C95.4402 105.13 95.7002 104.9 95.9302 104.62C96.4102 104.11 96.8502 103.55 97.2802 102.97C98.1202 101.81 98.8802 100.57 99.5502 99.29C100.61 97.3 101.45 95.22 102.15 93.1C102.85 90.98 103.42 88.84 103.83 86.66C104.04 85.71 104.12 84.75 104.3 83.79C104.77 80.2 105.05 79.11 105.93 78.32C106.13 78.14 106.32 77.9 106.5 77.8C106.81 77.62 107.07 77.91 107.33 78.62C107.61 79.33 107.75 80.45 107.74 81.89C107.52 86.13 106.6 90.42 105.09 94.55C104.34 96.62 103.46 98.67 102.39 100.66C101.32 102.65 100.11 104.59 98.5202 106.41C98.2102 106.74 97.9502 107.09 97.5802 107.41L97.0602 107.89L96.8002 108.13C96.7302 108.2 96.5302 108.33 96.3902 108.42C95.7102 108.87 95.2902 108.98 94.8102 109.18C94.3402 109.35 93.9402 109.45 93.5002 109.58C91.8102 110.02 90.1902 110.3 88.5602 110.56C85.3102 111.06 82.0802 111.39 78.8602 111.69L78.8401 111.61L78.8202 111.62Z" fill="#231F20"/>
<path d="M75.1302 96.95H75.0802L74.8302 96.92L74.3102 96.89L73.2202 96.85L70.9902 96.8L66.4802 96.76H57.4302C55.2302 96.76 53.0202 96.83 50.8202 96.79C46.9302 96.73 43.0502 96.65 39.1602 96.52C35.2702 96.39 31.3802 96.24 27.5002 95.9C24.0502 95.59 20.5802 95.34 17.1502 94.55C16.6002 94.41 16.0502 94.25 15.4902 94.04C14.9602 93.81 14.3202 93.55 13.8602 92.94C13.1102 91.87 12.7902 90.8 12.4602 89.72C11.8602 87.55 11.4702 85.36 11.4302 83.1C11.4302 82.39 11.5802 82.06 11.6602 82.1C11.7602 82.14 11.8302 82.49 11.9902 83.05C12.3102 84.17 12.9602 86.19 13.7202 88.52C14.0602 89.54 14.4502 90.57 14.9302 91.4C14.9902 91.51 15.0502 91.59 15.1102 91.67C15.1702 91.75 15.2302 91.85 15.2802 91.87C15.3702 91.96 15.4602 92.03 15.6602 92.12C16.0202 92.29 16.5002 92.44 17.0002 92.56C19.0202 93.02 21.2402 93.19 23.4402 93.33C27.8502 93.59 32.3302 93.68 36.8202 93.94C42.2002 94.2 47.8102 94.01 53.3302 93.95C59.4002 93.93 65.4702 93.86 71.5702 93.89L73.9802 93.94C74.3902 93.96 74.7902 93.97 75.2202 94C75.4502 94.02 75.7902 94.05 76.0702 94.11C76.3602 94.19 76.6202 94.33 76.8502 94.51L78.1502 95.66L79.3602 96.7L81.8202 98.75L83.4602 100.06L84.2902 100.69C84.4602 100.82 84.6002 100.92 84.7602 101.03C84.9102 101.12 85.1002 101.3 85.2802 101.17C85.4502 101.07 85.5702 100.92 85.6902 100.77L85.8602 100.53L86.0802 100.19L86.6102 99.3C87.3102 98.09 87.9602 96.82 88.7802 95.58C88.9902 95.27 89.2102 94.96 89.4702 94.65C89.6102 94.49 89.7202 94.34 89.9302 94.18C90.1302 94.03 90.3502 93.84 90.5302 93.77C91.3002 93.35 92.0002 93.18 92.7202 92.97C94.9102 92.39 97.0502 92.02 99.0902 91.49C99.6002 91.36 100.09 91.22 100.56 91.06C100.79 90.98 100.99 90.89 101.2 90.8C101.37 90.7 101.47 90.65 101.55 90.56C101.6 90.52 101.61 90.49 101.69 90.39L101.92 90.09C102.07 89.89 102.2 89.68 102.35 89.48C102.62 89.07 102.87 88.64 103.1 88.2C103.5 87.43 103.8 86.63 104.07 85.8C104.57 84.26 104.73 83.19 104.99 82.46C105.27 81.72 105.56 81.28 105.96 80.92C106.14 80.75 106.32 80.53 106.49 80.43C106.78 80.26 107.04 80.53 107.27 81.22C107.49 81.9 107.7 83.01 107.48 84.42C107.2 86.5 106.51 88.61 105.38 90.52C105.1 91 104.79 91.46 104.47 91.91L103.91 92.63C103.76 92.8 103.55 92.93 103.38 93.09C103.21 93.26 103.02 93.38 102.81 93.48C102.43 93.69 102.15 93.79 101.86 93.9C101.55 94.02 101.3 94.09 101.02 94.17C100.48 94.33 99.9602 94.46 99.4502 94.58C97.4202 95.05 95.4102 95.38 93.6002 95.85C93.1602 95.97 92.7102 96.09 92.3702 96.23C92.1602 96.3 92.0802 96.36 91.9502 96.41C91.8402 96.43 91.9502 96.46 91.9002 96.41C91.7602 96.23 91.6002 96.06 91.4302 95.91L91.4002 95.88H91.3802C91.2502 95.74 92.4202 96.91 91.9202 96.42L91.9002 96.45L91.8702 96.49C91.4602 96.94 90.9202 97.8 90.4502 98.64L89.4002 100.52L88.8302 101.51L88.5202 102.02C88.3502 102.3 88.1202 102.61 87.9202 102.9C87.4902 103.47 86.9902 103.95 86.4202 104.22C86.1402 104.35 85.8302 104.46 85.5002 104.46C85.3402 104.5 85.2002 104.48 85.0402 104.46L84.5902 104.33C84.2902 104.23 83.9802 104.06 83.6702 103.93L82.7802 103.32C82.4302 103.07 82.3802 103.02 82.2002 102.89L81.7502 102.54C80.5702 101.62 79.4402 100.68 78.3102 99.74L76.6302 98.31L75.1502 97.02C75.1502 97.02 75.1302 97 75.1102 97V96.93L75.1302 96.95Z" fill="#231F20"/>
<path d="M45.08 89.09C50.91 89.21 56.76 89.19 62.6 89.05C64.73 89 66.86 88.84 68.99 88.77C76.5 88.5 84.02 88.14 91.47 87.33C93.12 87.15 94.77 86.92 96.4 86.64C98.02 86.34 99.66 86.06 101.13 85.58C101.58 85.44 102.07 85.22 102.25 85.08C102.46 84.89 102.77 84.48 103 84.07C103.48 83.23 103.91 82.3 104.29 81.35C104.67 80.4 104.98 79.41 105.27 78.43C105.56 77.45 105.78 76.44 105.81 75.47C105.84 75.16 105.84 74.95 105.84 74.81C105.85 74.66 105.88 74.58 105.93 74.57C105.98 74.56 106.05 74.61 106.16 74.74C106.28 74.86 106.41 75.07 106.55 75.35C106.83 75.91 107.06 76.79 107.16 77.84C107.28 78.9 107.22 80.13 106.89 81.4C106.59 82.52 106.26 83.64 105.73 84.74C105.47 85.29 105.15 85.85 104.75 86.42C104.48 86.73 104.34 86.99 103.81 87.38C103.4 87.66 103.07 87.82 102.76 87.96C101.52 88.49 100.44 88.74 99.32 89.02C98.22 89.3 97.11 89.44 96.01 89.61C91.61 90.24 87.22 90.57 82.81 90.77C77.54 91 72.08 91.49 66.69 91.7C60.77 91.92 54.84 92.02 48.92 91.99C45.27 91.97 41.62 91.9 37.98 91.78C32.46 91.57 26.91 91.23 21.42 90.44C19.28 90.09 17.17 89.8 15.01 88.89C14.47 88.65 13.91 88.36 13.37 87.81C13.07 87.5 12.95 87.28 12.77 87.03C12.59 86.78 12.47 86.53 12.32 86.28C11.77 85.26 11.37 84.2 11.07 83.12C10.8 82.17 10.58 81.22 10.49 80.21C10.17 76.46 11.31 75.03 12.29 74.75C12.54 74.68 12.8 74.59 12.98 74.62C13.29 74.67 13.32 75.05 13.25 75.57C13.19 76.11 13.11 76.92 13.1 78.03C13.12 79.68 13.48 81.43 14.07 83.05C14.36 83.86 14.72 84.65 15.15 85.3C15.25 85.47 15.37 85.6 15.47 85.76C15.58 85.86 15.51 85.81 15.65 85.9C15.8 86.02 16.15 86.19 16.49 86.34C17.97 86.93 19.87 87.29 21.73 87.58C23.61 87.86 25.55 88.07 27.49 88.24C33.28 88.73 39.17 88.95 45.06 89.02V89.09H45.08Z" fill="#231F20"/>
<path d="M45.0098 79.73C47.2198 80.9 49.4298 81.36 51.8898 80.86L52.7998 80.6799L53.7098 80.4C54.3198 80.24 54.9198 79.98 55.5198 79.73L56.4998 79.33C56.7298 79.24 56.9598 79.15 57.1898 79.08C57.4498 79.03 57.6998 78.98 57.9598 78.94C59.0398 78.81 60.1498 79.1299 60.9298 79.5999C62.0998 80.2699 62.8698 81.0999 63.5898 81.6999C63.9398 82.0099 64.2598 82.2399 64.4798 82.3399C64.6198 82.4099 64.5898 82.3899 64.7298 82.4199C64.8898 82.4199 65.0698 82.4699 65.2198 82.4499C65.7698 82.4499 66.2898 82.2499 66.8898 81.8399C67.4798 81.4299 68.0898 80.8399 68.7798 80.2099C69.4698 79.5799 70.2398 78.8899 71.2498 78.3899C72.2498 77.8699 73.4698 77.65 74.5598 77.76C76.7898 78 78.4298 79.0599 79.9898 79.7799C81.5498 80.5399 83.0098 81.0299 84.3898 80.5599C85.6798 80.1699 86.9498 79.0599 88.7698 78.5299C89.2298 78.3999 89.7098 78.33 90.1898 78.33C90.6798 78.33 91.2098 78.3999 91.6698 78.5699C92.6198 78.9199 93.1698 79.3 93.7698 79.4C95.3798 79.71 97.1098 78.8799 98.5298 77.6699C99.2498 77.0699 99.9098 76.37 100.52 75.62C100.82 75.24 101.13 74.8699 101.43 74.4899C101.74 74.1099 101.99 73.7 102.29 73.3C103.09 72.34 103.04 72.42 103.03 73.62C103.03 74.22 102.87 75.0399 102.57 76.0199C102.23 76.9699 101.64 78.0099 100.75 78.9599C99.9598 79.7999 99.0398 80.58 97.9398 81.19C96.8398 81.8 95.4898 82.16 94.0898 82.11C93.3898 82.08 92.6198 81.8899 92.0198 81.6299C91.3998 81.3699 91.0098 81.1599 90.7498 81.0899C90.4998 81.0199 90.2698 81 89.9298 81.05C89.6198 81.09 89.3098 81.1799 88.9398 81.3399C88.1998 81.6599 87.3498 82.2399 86.2498 82.7699C85.6998 83.0299 85.0698 83.28 84.3598 83.41C83.6598 83.53 82.9398 83.5499 82.2698 83.4499C80.9298 83.2699 79.8198 82.78 78.8298 82.3C77.8398 81.82 76.9598 81.3199 76.1098 80.9599C75.0998 80.5199 74.1298 80.32 73.2798 80.54C72.4298 80.72 71.5998 81.3799 70.7198 82.2499C69.8298 83.0799 68.8998 84.2099 67.3398 84.9299C66.9698 85.1199 66.5398 85.22 66.1198 85.33C65.6898 85.38 65.2498 85.46 64.8398 85.41C64.6198 85.39 64.4298 85.39 64.1998 85.36C63.9498 85.3 63.6498 85.2399 63.4398 85.1399C62.9798 84.9499 62.6198 84.71 62.3098 84.48C61.6298 83.97 61.1298 83.4599 60.6398 83.0299C60.1498 82.5999 59.6898 82.2499 59.2598 82.0699C58.8298 81.8899 58.4898 81.8399 58.0598 81.9599C57.7198 82.0599 56.9398 82.3999 56.2698 82.6799C54.9098 83.2699 53.4498 83.6799 51.9498 83.9599C50.4298 84.1699 48.8598 84.23 47.3198 83.9C45.4198 83.54 43.7198 82.63 42.2098 81.76C40.6898 80.88 39.3198 80.0599 37.9598 80.1299C36.8798 80.1399 35.7398 80.57 34.5798 81.08C33.4098 81.59 32.2198 82.23 30.8398 82.65C29.4798 83.09 27.8398 83.2199 26.3398 82.5899C24.8398 81.9199 23.9498 80.76 23.0598 79.94C22.2998 79.22 21.8398 78.9 20.9998 78.86C20.1898 78.8 19.2698 78.98 18.3098 79.19C17.3398 79.39 16.3398 79.6599 15.1298 79.6799C14.5298 79.6799 13.8698 79.64 13.1998 79.36C12.8598 79.26 12.5698 79.04 12.2298 78.83C11.9398 78.56 11.6298 78.2899 11.4398 77.9299C10.7298 76.6899 10.7098 75.6099 10.7598 74.5699C10.9498 72.6499 11.5198 71.53 12.0498 70.8C12.6098 70.08 13.1698 69.77 13.7698 69.8C14.0198 69.8 14.3498 69.85 14.4798 69.97C14.5998 70.07 14.6198 70.2299 14.6198 70.3899C14.6198 70.4699 14.6198 70.55 14.6098 70.62C14.5998 70.71 14.5798 70.8199 14.5498 70.9199C14.4398 71.3499 14.1998 72.1 13.9898 73.11C13.8298 73.85 13.7798 74.6399 13.8198 75.3199C13.8298 75.4899 13.8698 75.64 13.8798 75.8C13.9298 75.92 13.9498 76.0799 13.9998 76.1699C14.0798 76.3999 14.1398 76.35 14.1998 76.41C14.3798 76.5 14.8398 76.6099 15.5498 76.5299C16.2498 76.4599 17.1098 76.2599 18.0598 76.0699C19.0198 75.8899 20.0998 75.6799 21.4498 75.8099C21.7898 75.8499 22.1498 75.9299 22.4898 76.0199C22.8498 76.1599 23.2098 76.27 23.5498 76.47C24.3098 76.92 24.6798 77.2799 25.0798 77.6399C25.8598 78.3699 26.4698 79.0399 26.9798 79.4199C27.5098 79.7999 27.7998 79.9 28.3898 79.94C29.1898 79.98 30.2498 79.6399 31.4498 79.0899C32.6498 78.5499 33.9798 77.8299 35.6398 77.3499C36.4698 77.1099 37.3998 76.9699 38.3798 76.9899C39.3898 77.0499 40.3798 77.2899 41.1498 77.6399C42.7398 78.3199 43.8898 79.1199 45.0398 79.6799L45.0098 79.7499V79.73Z" fill="#231F20"/>
<path d="M20.6301 73.83C19.3801 73.64 18.1201 73.42 16.8201 73.08C16.1701 72.9 15.5101 72.71 14.8001 72.39C14.6101 72.31 14.4501 72.22 14.2201 72.1C13.9901 71.98 13.7501 71.79 13.5201 71.62C13.0801 71.26 12.7501 70.79 12.5101 70.29L12.3401 69.57C12.2801 69.35 12.3001 69.03 12.2801 68.82C12.2701 68.43 12.3201 68.14 12.3401 67.8C12.4201 67.17 12.5301 66.58 12.6701 66.01C12.9501 64.87 13.3001 63.79 13.7101 62.74C14.5301 60.64 15.5201 58.64 16.6601 56.73C18.9201 52.91 21.7401 49.43 24.9701 46.41C26.4701 44.97 28.1001 43.67 29.7601 42.43C31.4601 41.24 33.2001 40.09 35.0601 39.16C41.5701 35.77 48.8501 34.09 56.0701 33.82C63.2901 33.66 70.5301 34.47 77.4101 36.71C83.5101 38.68 89.2701 41.9 94.0201 46.19C97.0501 48.96 99.7301 52.17 101.74 55.78C102.21 56.7 102.63 57.65 103.07 58.58C103.5 59.52 103.77 60.52 104.12 61.49C104.49 62.45 104.65 63.48 104.88 64.48C104.99 64.98 105.09 65.49 105.15 66C105.18 66.52 105.25 67.02 105.24 67.54C105.24 70.11 105.11 69.73 104.24 67.74C103.99 67.25 103.8 66.64 103.49 65.98C103.12 65.33 102.82 64.58 102.47 63.77C102.17 62.95 101.65 62.13 101.24 61.22C100.85 60.3 100.3 59.4 99.7801 58.44C97.9801 55.02 95.6301 51.9 92.8401 49.2C90.0201 46.52 86.7601 44.35 83.3301 42.5L80.7001 41.2C79.8001 40.82 78.8701 40.48 77.9601 40.12C77.5001 39.95 77.0501 39.74 76.5801 39.6L75.1601 39.18C74.2101 38.91 73.2801 38.58 72.3101 38.36C70.3701 37.97 68.4401 37.46 66.4501 37.26C65.4601 37.14 64.4701 36.97 63.4801 36.88L60.4701 36.7C50.8801 36.09 40.7601 38.62 32.6601 44.09C28.2101 47.04 24.3201 50.84 21.2101 55.2C19.6601 57.38 18.2801 59.69 17.1701 62.12C16.6101 63.33 16.1401 64.58 15.7601 65.83C15.5701 66.45 15.4101 67.09 15.3201 67.7C15.2601 68.01 15.2401 68.3 15.2101 68.59C15.2001 68.75 15.2101 68.84 15.2101 68.89C15.2101 68.96 15.2301 69.04 15.2501 69.12C15.2501 69.14 15.2601 69.17 15.2801 69.19C15.3601 69.37 15.5201 69.47 15.7101 69.58C15.9801 69.74 16.3401 69.88 16.7001 70C17.4301 70.25 18.2301 70.44 19.0401 70.6C20.6601 70.92 22.3301 71.13 24.0101 71.31C27.3701 71.66 30.7601 71.84 34.1501 71.98C44.4301 72.36 54.8101 72.33 65.0401 72.1C73.0001 71.92 80.8001 71.48 88.6701 71.12C90.4001 71.04 92.1001 70.95 93.8501 70.87C100.33 70.64 102.42 70.82 103.83 71.64C104.15 71.83 104.57 72.02 104.75 72.21C105.35 72.85 102.75 73.33 98.0201 73.64C83.9801 74.55 69.1201 75.15 54.1701 75.26C48.6201 75.3 43.0501 75.26 37.4701 75.1C31.8801 74.92 26.3101 74.7 20.6301 73.92V73.84V73.83Z" fill="#231F20"/>
<path d="M92.7499 29.87C92.8399 30.07 92.7099 30.27 92.4799 30.47C92.4099 30.53 92.1599 30.57 92.1099 30.52C92.0099 30.41 91.9199 30.31 91.8299 30.2C91.7799 30.13 91.3199 28.99 91.1299 28.6C90.9499 28.22 90.7999 27.84 90.7199 27.44C90.5999 26.63 90.4799 25.82 90.3999 25.01C90.3799 24.83 90.3899 24.65 90.4199 24.47C90.5199 23.85 90.5099 23.23 90.4499 22.61C90.4499 22.51 90.4499 22.4 90.3699 22.3C90.2199 22.13 90.2199 20.43 90.2999 20.22C90.4999 19.69 90.5699 19.15 90.8299 18.63C90.8599 18.56 90.8399 18.47 90.9599 18.41C91.2199 18.28 91.2099 18.11 91.2499 17.95C91.3099 17.73 91.4799 17.52 91.6099 17.3C91.6799 17.2 91.8199 17.1 91.9299 17.01C92.0299 16.92 92.2299 17.01 92.2499 17.05C92.3099 17.16 92.4399 17.1 92.5299 17.1C92.5599 17.1 92.6099 17.1 92.6299 17.11C92.6599 17.11 92.7999 17.47 92.9999 17.83C93.2399 18.2 93.2899 18.56 93.3099 18.63C93.2899 18.64 93.3799 19.12 93.3499 19.61C93.3499 20.1 93.3499 20.61 93.3499 20.71C93.3599 20.82 93.2999 20.92 93.2499 21.03C93.2199 21.08 93.2999 22.54 93.2999 22.6C93.2499 22.9 93.3199 23.2 93.1199 23.51C93.0799 23.57 93.0899 23.63 93.0899 23.69C93.1099 24.21 93.0299 24.73 92.9899 25.26C92.9699 25.53 92.9999 25.8 93.0099 26.06C93.0099 26.11 92.9899 26.16 92.9799 26.21C92.9699 26.27 92.9499 26.33 92.9499 26.4C92.9799 26.72 92.9699 27.04 92.9799 27.35C92.9599 27.67 92.9399 27.99 92.9799 28.31C92.9799 28.46 92.8299 29.19 92.8699 29.36C92.8699 29.45 92.6999 29.8 92.7399 29.88L92.7499 29.87Z" fill="#231F20"/>
<path d="M97.9 32.07C97.88 32.23 97.66 32.25 97.37 32.21C97.28 32.2 97.06 32.07 97.04 32.01C97.01 31.9 96.98 31.78 96.96 31.67C96.96 31.61 97.09 30.71 97.1 30.38C97.11 30.06 97.18 29.77 97.26 29.49C97.5 28.97 97.73 28.43 97.99 27.91C98.05 27.8 98.12 27.69 98.24 27.62C98.62 27.35 98.87 26.99 99.07 26.6C99.1 26.54 99.16 26.48 99.13 26.37C99.07 26.18 99.75 25.21 99.9 25.13C100.28 24.94 100.57 24.68 100.95 24.5C101 24.47 101.02 24.41 101.14 24.44C101.42 24.52 101.46 24.41 101.56 24.33C101.69 24.23 101.83 24.14 102.01 24.07C102.1 24.04 102.25 24.07 102.39 24.07C102.51 24.08 102.75 24.33 102.76 24.38C102.8 24.51 102.96 24.57 103.08 24.66C103.12 24.69 103.17 24.73 103.2 24.76C103.25 24.82 103.22 25.95 103.18 26.04C103.2 26.09 102.54 27.21 102.49 27.35C102.46 27.43 102.37 27.45 102.29 27.49C102.25 27.51 101.79 28.45 101.76 28.47C101.61 28.62 101.56 28.85 101.25 28.89C101.19 28.89 101.17 28.94 101.15 28.98C100.97 29.3 100.68 29.55 100.39 29.8C100.25 29.93 100.15 30.1 100.03 30.24C100.01 30.27 99.96 30.28 99.93 30.3C99.89 30.32 99.84 30.34 99.82 30.38C99.58 30.76 99.17 31.03 98.91 31.4C98.84 31.48 98.35 31.76 98.29 31.87C98.25 31.92 97.92 31.99 97.92 32.06L97.9 32.07Z" fill="#231F20"/>
<path d="M102.09 36.8699C101.88 36.9899 101.64 36.8599 101.39 36.6399C101.31 36.5699 101.25 36.3099 101.3 36.2499C101.41 36.1299 101.51 36.0099 101.63 35.8999C101.7 35.8599 102.89 35.1199 103.31 34.9099C103.71 34.6899 104.13 34.5399 104.55 34.4099C105.41 34.1399 106.27 33.8599 107.14 33.6099C107.33 33.5599 107.53 33.5299 107.74 33.5299C108.44 33.5299 109.1 33.3799 109.77 33.2099C109.88 33.1799 110 33.1799 110.1 33.0599C110.26 32.8599 112.1 32.5399 112.35 32.5899C113.02 32.6899 113.58 32.7799 114.18 32.8699C114.27 32.8799 114.35 32.8399 114.44 32.9499C114.64 33.2199 114.82 33.1599 115 33.1699C115.26 33.1699 115.51 33.2099 115.77 33.2899C115.9 33.3299 116.03 33.4799 116.16 33.6099C116.28 33.7199 116.24 34.1499 116.2 34.1899C116.09 34.3299 116.2 34.5199 116.21 34.6999C116.21 34.7599 116.22 34.8399 116.22 34.8799C116.21 34.9899 114.84 35.7999 114.69 35.8099C114.67 35.8099 114.16 35.9099 113.61 36.0199C113.07 36.1399 112.5 36.2199 112.39 36.2599C112.27 36.2999 112.14 36.2399 112.02 36.2099C111.96 36.1899 110.35 36.5499 110.28 36.5499C109.94 36.5499 109.61 36.6899 109.24 36.4899C109.17 36.4499 109.1 36.4699 109.03 36.4799C108.45 36.5699 107.85 36.5399 107.25 36.5599C106.95 36.5599 106.65 36.6399 106.35 36.6699C106.3 36.6699 106.24 36.6499 106.18 36.6499C106.11 36.6499 106.04 36.6299 105.97 36.6399C105.27 36.7599 104.53 36.7699 103.84 36.9699C103.69 37.0299 102.85 36.9299 102.66 36.9699C102.55 36.9899 102.15 36.8199 102.06 36.8699H102.09Z" fill="#231F20"/>
</svg>
