<svg width="128" height="128" viewBox="0 0 128 128" fill="none" xmlns="http://www.w3.org/2000/svg">
<path d="M82.0001 29C82.6228 26.1109 84.0439 23.4545 86.1017 21.3331C88.1594 19.2117 90.7713 17.7104 93.6401 17L92.0001 16.26C91.7 18.2856 91.7 20.3444 92.0001 22.37C92.1101 23.44 95.0001 22.78 94.9001 21.6C94.6399 19.7208 94.6601 17.8133 94.9601 15.94C95.1201 15.09 93.7201 15.19 93.2901 15.3C86.5101 17.02 80.5201 22.3 79.1701 29.3C78.9401 30.51 81.8701 30.06 82.0801 28.98L82.0001 29Z" fill="#221F1F"/>
<path d="M18.5198 66C18.3032 63.776 18.2864 61.537 18.4698 59.31C18.677 57.0828 19.0921 54.8798 19.7098 52.73C20.9246 48.3987 23.0484 44.3761 25.9398 40.93C27.3986 39.1967 29.0798 37.6634 30.9398 36.37C31.8678 35.7165 32.8401 35.1284 33.8498 34.61C34.0998 34.49 34.3498 34.34 34.6098 34.23L35.4298 33.92C35.9798 33.72 36.5198 33.49 37.0698 33.32C41.5098 32.14 45.8898 32.14 50.1898 32.17C56.4698 32.28 62.6598 32.64 68.8198 32.62C72.5719 32.6289 76.3215 32.4219 80.0498 32L82.8198 31.64C83.7498 31.51 84.6498 31.29 85.5698 31.12L86.9398 30.86C87.3998 30.76 87.8398 30.62 88.2898 30.5L90.5998 29.87L91.1998 29.11C91.4798 28.75 91.7798 28.4 92.0798 28.05C92.6798 27.35 93.2998 26.67 93.9498 26.05C95.238 24.7275 96.6181 23.4978 98.0798 22.37C101.029 20.0068 104.509 18.3971 108.22 17.68C109.169 17.5318 110.129 17.4683 111.09 17.49C111.33 17.49 111.57 17.49 111.81 17.49L112.62 17.57L113.14 17.65L113.6 17.8L114.51 18.09C114.85 18.09 114.97 18.47 115.05 18.74C115.111 19.0527 115.131 19.3721 115.11 19.69C115.11 20.02 115 20.37 114.95 20.69L114.83 21.17L114.73 21.51C114.48 22.41 114.18 23.27 113.88 24.13C112.64 27.54 111.24 30.84 109.79 34.13L109.48 34.85L110.1 36C110.38 36.52 110.64 37 110.9 37.58C111.42 38.64 111.9 39.7 112.39 40.79C113.33 42.95 114.176 45.15 114.93 47.39C116.465 51.8602 117.426 56.5075 117.79 61.22C118.023 64.4134 117.814 67.6236 117.17 70.76C116.506 73.9423 115.244 76.9694 113.45 79.68C111.604 82.3516 109.278 84.6574 106.59 86.48C105.27 87.3889 103.887 88.201 102.45 88.91C101.73 89.26 100.99 89.54 100.26 89.91C99.5229 90.2182 98.7682 90.482 97.9998 90.7C94.2298 91.9 94.5998 91.05 97.4298 89.36C100.26 87.67 105.5 84.79 109.73 79.7C112.102 76.7604 113.722 73.2868 114.45 69.58C115.132 65.7781 115.19 61.8904 114.62 58.07C114.052 54.1673 113.093 50.3315 111.76 46.62C111.093 44.7533 110.36 42.9067 109.56 41.08C109.15 40.18 108.73 39.27 108.29 38.38L107.62 37.06L107.21 36.31L106.51 35L108.22 31.12C108.66 30.12 109.12 29.04 109.55 28C110.41 25.92 111.26 23.82 111.95 21.73L112.19 20.96L112.34 20.43C112.365 20.3349 112.365 20.235 112.34 20.14C112.248 20.1122 112.155 20.0921 112.06 20.08C111.92 20.08 111.58 20.01 111.35 20.01H110.59C108.489 20.0502 106.418 20.5127 104.5 21.37C102.089 22.4691 99.8568 23.9254 97.8798 25.69C96.8669 26.5779 95.9053 27.5228 94.9998 28.52C94.5298 29.02 94.0798 29.52 93.6398 30.06L92.9998 30.86L92.6598 31.31L92.1298 32.04L88.0798 33.17C86.8398 33.47 85.5898 33.68 84.3398 33.95C81.8398 34.38 79.3398 34.71 76.7798 34.89C71.7437 35.2279 66.6929 35.2913 61.6498 35.08C57.3498 34.95 53.0598 34.71 48.8098 34.68C44.5598 34.65 40.2698 34.81 36.5298 36.22C32.7274 37.802 29.4313 40.396 26.9998 43.72C24.5048 47.055 22.7398 50.8779 21.8198 54.94C20.6504 59.966 20.683 65.197 21.9149 70.2081C23.1468 75.2192 25.5433 79.8691 28.9098 83.78C29.6498 84.61 30.3898 85.45 31.2098 86.21C31.5978 86.6131 32.0084 86.9937 32.4398 87.35L34.0498 88.75L33.9898 89.63V90.36V91.53C33.9898 92.31 33.9898 93.1 33.9898 93.88C34.0391 95.4381 34.1895 96.9913 34.4398 98.53C34.6522 100.057 35.0311 101.556 35.5698 103C36.0838 104.355 36.9174 105.566 37.9998 106.53C39.0837 107.421 40.4716 107.855 41.8698 107.74C42.5617 107.676 43.2341 107.477 43.8485 107.152C44.4629 106.828 45.0071 106.385 45.4498 105.85C46.3734 104.699 47.02 103.351 47.3398 101.91C47.4298 101.54 47.5398 101.18 47.6098 100.81L47.7798 99.68C47.9116 98.8088 47.9918 97.9306 48.0198 97.05C48.0581 96.7402 48.1285 96.4352 48.2298 96.14C48.2298 96 48.4098 95.89 48.5398 95.84C48.6871 95.7755 48.8415 95.7285 48.9998 95.7C49.3304 95.648 49.6653 95.6279 49.9998 95.64L50.9998 95.7C55.2098 96.06 59.3098 96.48 63.4198 96.56C65.4698 96.56 67.5098 96.56 69.5398 96.46C70.5398 96.4 71.5398 96.32 72.5398 96.2L73.9998 96L74.7898 95.87L75.9998 95.67C76.176 95.6511 76.3536 95.6511 76.5298 95.67L76.9798 95.73C77.0604 95.7269 77.1405 95.7445 77.2123 95.7813C77.2841 95.8181 77.3452 95.8727 77.3898 95.94C77.4935 96.0615 77.5809 96.1959 77.6498 96.34C77.9038 97.0171 78.0554 97.7282 78.0998 98.45C78.2298 99.45 78.3598 100.37 78.5398 101.3C78.8211 103.097 79.4568 104.821 80.4098 106.37C80.9985 107.307 81.8918 108.014 82.9398 108.37C83.1931 108.456 83.4544 108.516 83.7198 108.55C83.8497 108.558 83.9799 108.558 84.1098 108.55C84.1997 108.557 84.2899 108.557 84.3798 108.55C84.9126 108.449 85.4257 108.263 85.8998 108C86.7697 107.576 87.5399 106.973 88.1598 106.23C88.4098 105.85 88.6898 105.52 88.8898 105.15C89.0898 104.78 89.2998 104.42 89.4398 104.06L89.8498 102.99C89.9604 102.662 90.0538 102.328 90.1298 101.99C90.2098 101.66 90.3198 101.36 90.3798 101.07L90.5298 100.21C90.7698 99.13 90.8298 98.21 90.9898 97.5C91.1498 96.79 91.2298 96.17 91.3998 95.63C91.5094 95.1384 91.6497 94.6541 91.8198 94.18C92.0698 93.68 92.3598 94.44 92.6398 96.3C93.0373 99.2369 92.7288 102.226 91.7398 105.02C90.8833 107.397 89.1322 109.345 86.8598 110.45C86.2646 110.729 85.6361 110.93 84.9898 111.05C84.6056 111.133 84.2121 111.163 83.8198 111.14C83.4839 111.114 83.15 111.067 82.8198 111C81.4733 110.719 80.2348 110.06 79.2498 109.1C77.5536 107.259 76.4251 104.967 75.9998 102.5C75.7398 101.36 75.5698 100.21 75.4298 99.1L75.3698 98.69V98.62V98.55C75.3698 98.48 75.2998 98.55 75.2498 98.55H75.1098L74.2298 98.68C73.6398 98.77 73.0498 98.84 72.4598 98.9C71.2798 99.02 70.0998 99.11 68.9198 99.16C66.5598 99.26 64.1998 99.24 61.8498 99.16C59.4998 99.08 57.1498 98.89 54.8498 98.68L51.3798 98.36H50.6498V98.51C50.6498 98.81 50.6498 99.12 50.5698 99.42L50.2898 101.28C50.1798 101.91 49.9898 102.53 49.8398 103.16C49.6898 103.79 49.3798 104.41 49.1598 105.03C48.5804 106.344 47.7322 107.523 46.6698 108.49C45.5193 109.51 44.0929 110.168 42.5698 110.38C41.9056 110.462 41.234 110.462 40.5698 110.38L40.0398 110.29L39.5998 110.18C39.2917 110.12 38.9903 110.029 38.6998 109.91C37.4884 109.453 36.3998 108.72 35.5198 107.77C33.9952 106.018 32.9208 103.921 32.3898 101.66C31.8434 99.5926 31.5084 97.4751 31.3898 95.34C31.3198 94.28 31.2898 93.23 31.2898 92.19C31.2898 91.66 31.2898 91.19 31.2898 90.61V89.94L30.6698 89.4C30.1998 89.02 29.7798 88.6 29.3498 88.18C28.4698 87.37 27.6798 86.47 26.8798 85.58C25.3297 83.7429 23.9506 81.768 22.7598 79.68C20.41 75.4603 18.9468 70.8052 18.4598 66H18.5198Z" fill="#221F1F"/>
<path d="M46.9397 106.94C46.9397 106.94 52.7897 106.94 54.0997 109.26C55.4097 111.58 37.9097 112.83 37.9097 108.62C37.9097 108.62 45.8197 109.19 46.9397 106.94Z" fill="#221F1F"/>
<path d="M89.7697 107.43C89.7697 107.43 95.4297 107.43 96.7697 109.75C98.1097 112.07 80.5797 113.32 80.5797 109.11C80.5497 109.11 88.6397 109.67 89.7697 107.43Z" fill="#221F1F"/>
<path d="M8.82986 61.45C8.74986 61.15 8.61986 60.94 8.62986 60.91C8.63986 60.88 8.62986 60.91 8.68986 60.79C8.7056 60.748 8.72571 60.7078 8.74986 60.67V60.56C8.76275 60.6471 8.79712 60.7296 8.84986 60.8C8.70844 60.8853 8.60475 61.0211 8.55986 61.18C8.43971 61.499 8.38858 61.8398 8.40986 62.18C8.46425 62.758 8.60586 63.3244 8.82986 63.86C9.01286 64.3401 9.2583 64.794 9.55986 65.21C9.82899 65.5638 10.1698 65.8569 10.5599 66.07C10.7229 66.1569 10.9022 66.2089 11.0864 66.2227C11.2707 66.2365 11.4557 66.2117 11.6299 66.15C12.0801 65.9516 12.4775 65.6502 12.7899 65.27C13.406 64.4673 13.7838 63.5074 13.8799 62.5C14.0004 61.2233 13.8678 59.9354 13.4899 58.71C13.3799 58.35 13.7899 58.07 14.4899 58.17C14.9194 58.271 15.3119 58.4904 15.623 58.8033C15.9341 59.1162 16.1513 59.51 16.2499 59.94C16.6386 61.7026 16.4492 63.5435 15.7099 65.19C15.3303 66.074 14.764 66.8654 14.0499 67.51C13.6456 67.8943 13.1654 68.1898 12.6401 68.3775C12.1149 68.5653 11.5561 68.641 10.9999 68.6C9.73695 68.4248 8.58867 67.7738 7.78986 66.78C7.08095 65.9389 6.56547 64.9523 6.27986 63.89C5.90894 62.6788 5.94406 61.3795 6.37986 60.19C6.64049 59.4527 7.17871 58.8463 7.87986 58.5C8.31118 58.3133 8.78968 58.2644 9.24986 58.36C9.66584 58.4728 10.0495 58.6817 10.3699 58.97C10.9455 59.5501 11.3443 60.2819 11.5199 61.08C11.7064 61.8085 11.7405 62.5677 11.6199 63.31C11.458 64.3592 11.1199 65.3735 10.6199 66.31C10.1625 67.2552 9.55461 68.1199 8.81986 68.87C8.13815 69.5659 7.21356 69.9708 6.23986 70C5.25668 69.9438 4.32353 69.5479 3.59986 68.88C3.30929 68.638 3.04454 68.3666 2.80986 68.07C1.99986 67 2.05986 66.46 2.54986 65.92C2.66225 65.7926 2.78249 65.6724 2.90986 65.56C3.34986 65.23 3.90986 65.48 4.49986 66.01C5.27986 66.82 6.36986 67.35 6.49986 67.12C6.66233 67.0203 6.81325 66.9029 6.94986 66.77C7.28881 66.4263 7.5813 66.0397 7.81986 65.62C8.25644 64.931 8.59312 64.1836 8.81986 63.4C8.90181 63.0719 8.95534 62.7373 8.97986 62.4C8.9903 62.2602 8.9903 62.1198 8.97986 61.98C8.95164 61.8182 8.91493 61.658 8.86986 61.5L8.82986 61.45Z" fill="#221F1F"/>
<path d="M108 51C108.045 51.305 108.045 51.6149 108 51.92C107.988 52.2237 107.944 52.5252 107.87 52.82C107.796 53.1085 107.695 53.3896 107.57 53.66L107.48 53.86L107.33 54.1L107.01 54.57C106.694 55.0116 106.246 55.3409 105.73 55.51C105.267 55.5924 104.791 55.5423 104.356 55.3653C103.92 55.1883 103.544 54.8918 103.27 54.51C102.811 53.8995 102.549 53.1633 102.52 52.4C102.487 51.7588 102.604 51.1186 102.86 50.53C103.012 50.17 103.24 49.8469 103.528 49.5829C103.816 49.3189 104.158 49.1201 104.53 49C104.77 48.94 104.94 49.4 105.05 49.9C105.177 50.2797 105.177 50.6903 105.05 51.07C104.816 51.303 104.653 51.5978 104.58 51.92C104.506 52.266 104.506 52.6239 104.58 52.97C104.581 53.0397 104.6 53.1078 104.636 53.1678C104.672 53.2277 104.722 53.2773 104.783 53.3116C104.843 53.346 104.912 53.3639 104.982 53.3636C105.051 53.3633 105.12 53.3448 105.18 53.31C105.249 53.2755 105.31 53.2279 105.36 53.17C105.436 53.0916 105.491 52.9953 105.52 52.89C105.594 52.742 105.644 52.5834 105.67 52.42C105.718 52.2645 105.741 52.1026 105.74 51.94C105.764 51.5206 105.674 51.1025 105.48 50.73C105.357 50.4451 105.169 50.1929 104.931 49.9933C104.693 49.7937 104.412 49.6522 104.11 49.58C103.906 49.5665 103.703 49.6043 103.518 49.6899C103.332 49.7755 103.172 49.9062 103.05 50.07C103.006 50.1535 102.956 50.2338 102.9 50.31C102.75 50.38 102.66 50.5 102.49 50.47C102.269 50.4152 102.055 50.3381 101.85 50.24L101.53 50.1C101.361 50.0123 101.23 49.8667 101.16 49.69C101.113 49.5759 101.088 49.4535 101.088 49.33C101.088 49.2065 101.113 49.0841 101.16 48.97C101.338 48.5546 101.612 48.1874 101.96 47.8987C102.308 47.6101 102.719 47.4083 103.16 47.31C103.642 47.2013 104.141 47.1904 104.627 47.278C105.113 47.3656 105.576 47.5499 105.99 47.82C106.525 48.1839 106.98 48.654 107.326 49.2011C107.671 49.7481 107.901 50.3605 108 51Z" fill="#221F1F"/>
<path d="M123.37 61.11C123.37 61.11 123.37 61.11 123.43 61C123.466 60.885 123.496 60.7681 123.52 60.65C123.58 60.41 123.64 60.17 123.68 59.91C123.78 59.4 123.85 58.91 123.9 58.34C123.95 57.77 123.9 57.57 123.9 57.19C123.9 56.81 123.9 56.45 123.96 56.34C123.96 56 123.87 55.68 123.8 55.4C123.753 55.1663 123.665 54.9428 123.54 54.74C123.427 54.5801 123.26 54.4664 123.07 54.42C122.548 54.3291 122.011 54.3703 121.51 54.54C120.8 54.74 120.19 55.1 119.51 55.32C119.32 55.38 119 55.05 118.89 54.54C118.823 54.2661 118.842 53.9784 118.944 53.7156C119.046 53.4528 119.226 53.2275 119.46 53.07C120.332 52.5759 121.308 52.295 122.31 52.25C122.935 52.214 123.56 52.3307 124.13 52.59C124.462 52.756 124.758 52.9873 125 53.27C125.207 53.5185 125.372 53.7988 125.49 54.1C125.73 54.75 125.86 55.27 126.03 55.79C126.105 56.1191 126.155 56.4534 126.18 56.79C126.18 57.07 126.18 57.33 126.24 57.6C126.247 58.7751 126.16 59.9488 125.98 61.11L125.86 61.71C125.803 61.9613 125.729 62.2086 125.64 62.45C125.568 62.6889 125.446 62.9097 125.283 63.0977C125.119 63.2857 124.917 63.4365 124.69 63.54C124.519 63.6214 124.342 63.6883 124.16 63.74C124.07 63.74 123.97 63.74 123.89 63.83L123.69 63.88C123.41 63.95 123.15 63.99 122.88 64.04C122.35 64.12 121.82 64.21 121.31 64.32C120.5 64.49 119.74 64.81 118.93 65.03C118.753 65.0939 118.573 65.1473 118.39 65.19C117.69 65.3 117.39 65.1 117.21 64.29C117.179 64.1113 117.179 63.9288 117.21 63.75V63.61L117.27 63.42L117.33 63.23V63.14C117.338 63.0804 117.338 63.0197 117.33 62.96C117.346 62.8528 117.39 62.7516 117.456 62.6659C117.523 62.5802 117.61 62.5128 117.71 62.47C119.008 61.9094 120.378 61.5292 121.78 61.34L122.55 61.2C122.68 61.2 122.78 61.14 122.91 61.13H123.07C123.081 61.1399 123.095 61.1453 123.11 61.1453C123.124 61.1453 123.139 61.1399 123.15 61.13L123.37 61.11Z" fill="#221F1F"/>
<path d="M55.7101 41C61.3124 42.0097 67.0474 42.0402 72.6601 41.09C74.2101 40.83 74.9101 38.72 72.9401 39.09C67.573 40.0036 62.0879 39.9765 56.7301 39.01C55.3501 38.76 53.7801 40.7 55.7301 41.01L55.7101 41Z" fill="#221F1F"/>
</svg>
