<svg width="128" height="128" viewBox="0 0 128 128" fill="none" xmlns="http://www.w3.org/2000/svg">
<path d="M66.0698 56.6C66.3998 52.72 65.7398 48.71 63.4898 45.73C62.6698 44.65 61.6098 43.8 60.4598 43.08C58.4498 41.77 56.0698 41.2 53.6098 41.43C51.1498 41.64 48.6998 42.59 46.4098 43.86C44.3598 44.97 42.5098 46.5 40.7998 48.11C40.2398 48.62 39.7198 49.17 39.1998 49.72C38.6598 50.25 38.1498 50.81 37.6398 51.38C37.1198 51.93 36.6098 52.5 36.0998 53.06C35.8498 53.35 35.5598 53.6 35.2798 53.87C34.9898 54.13 34.7498 54.42 34.4098 54.64C33.4698 55.12 33.5098 55.01 33.4898 53.98C33.4698 53.45 33.5698 52.78 33.7398 52C33.9598 51.26 34.3398 50.46 34.9198 49.74C36.9198 47.13 39.3198 44.81 42.0398 42.83C44.7498 40.86 47.8798 39.23 51.3798 38.62C53.4798 38.31 55.6698 38.18 57.8598 38.64C58.3998 38.74 58.9198 38.95 59.4498 39.1C59.7098 39.19 59.9798 39.26 60.2398 39.36L60.9798 39.73C61.4698 39.99 61.9698 40.22 62.4298 40.5C62.8798 40.82 63.3498 41.1 63.7498 41.47C65.6198 42.98 67.0298 45 67.9498 47.15C68.8598 49.32 69.2798 51.61 69.3898 53.88C69.4898 56.67 69.1398 59.43 68.4698 62.07C67.4798 66.09 65.7598 69.87 63.7898 73.4C62.2598 76.15 60.6898 78.83 58.8198 81.34C58.3998 81.89 58.0198 82.45 57.5798 82.98C57.1598 83.47 56.7998 83.86 56.4798 84.18C56.1598 84.49 55.8398 84.68 55.5598 84.83C55.0198 85.14 54.5498 85.15 54.0698 85.06C53.8498 85.02 53.6198 85.02 53.4598 84.96C52.9598 84.8 53.1498 83.54 54.1498 82.04C57.3098 77.73 60.4498 73.17 62.7598 68.19C64.4498 64.5 65.6998 60.58 65.9798 56.63H66.0598L66.0698 56.6Z" fill="#231F20"/>
<path d="M84.0201 80.6C85.7201 82.24 87.5001 83.79 89.3901 85.19C90.0801 85.7 90.8201 86.14 91.5301 86.61C94.0301 88.28 96.7101 89.72 99.5901 90.6C100.86 90.99 102.19 91.21 103.5 91.29C104.34 91.33 105.18 91.34 106.02 91.31C106.86 91.27 107.7 91.26 108.58 91.33C109.17 91.57 109.11 91.55 108.73 92.05C108.54 92.32 108.25 92.58 107.87 92.86C107.49 93.16 107.01 93.38 106.47 93.43C104.57 93.72 102.62 93.54 100.77 93.13C98.9101 92.72 97.1301 92.05 95.4601 91.2C93.4701 90.18 91.4001 89.18 89.5101 87.93C87.4401 86.55 85.5101 85.01 83.6701 83.38C82.5401 82.37 81.4501 81.33 80.3701 80.27C79.5601 79.47 78.7701 78.64 77.9801 77.82L77.2601 77.05L76.9201 76.71C76.8601 76.66 76.8001 76.6 76.7401 76.55C76.7101 76.53 76.6701 76.49 76.6401 76.51L76.6101 76.63C76.5601 76.87 76.5301 77.13 76.5001 77.36L76.4801 77.92V78.17C76.4801 78.24 76.4401 78.48 76.4301 78.62C76.3501 79.29 76.2401 79.97 76.0501 80.65C75.9401 81.04 75.8401 81.42 75.6801 81.8C75.1001 83.2 74.6901 83.52 74.1601 83.57C74.0401 83.58 73.9101 83.61 73.8101 83.6C73.4701 83.55 73.5101 82.91 73.8101 81.97C74.0801 81.09 74.2501 80.21 74.3201 79.3C74.3601 78.82 74.3701 78.43 74.3901 77.83C74.3901 77.33 74.4201 76.82 74.5001 76.32C74.5701 75.83 74.6101 75.29 74.7101 74.81C74.7901 74.59 74.8501 74.29 74.9601 74.13L75.3201 73.76C75.4401 73.7 75.5601 73.67 75.6801 73.62L75.7301 73.6H75.7501C75.7501 73.6 75.8001 73.76 75.7801 73.69H75.7901L75.9001 73.57C75.9701 73.53 76.0401 73.54 76.1101 73.52C76.3901 73.48 76.7301 73.52 77.1401 73.78C77.5501 74.06 77.9801 74.44 78.4101 74.86C79.4201 75.91 80.4401 76.97 81.4601 78.03C82.3001 78.88 83.1501 79.72 84.0201 80.53L83.9801 80.58L84.0201 80.6Z" fill="#231F20"/>
<path d="M35.5501 98.06C37.9301 96.56 40.1601 94.77 42.2601 92.83C43.0301 92.12 43.7201 91.33 44.4501 90.58C45.7401 89.26 46.9901 87.88 48.1801 86.45C48.7801 85.74 49.3601 85.01 49.9301 84.27L50.4001 83.64L51.0201 82.72C51.2301 82.42 51.4301 82.08 51.6401 81.8C51.8501 81.52 52.0701 81.34 52.2601 81.22L53.1201 80.94C53.3801 81.13 53.6701 81.45 53.8801 81.99C54.1201 82.56 54.3501 83.16 54.5601 83.78L55.0601 85.25C55.4001 86.27 55.6901 87.31 55.9701 88.33C56.2601 89.34 56.4801 90.41 56.5201 91.38C56.5201 91.46 56.5201 91.49 56.5201 91.54C56.5101 91.56 56.4801 91.59 56.5001 91.61C56.5201 91.66 56.5301 91.68 56.5001 91.73C56.4701 91.77 56.4101 91.86 56.3001 91.87C56.2001 91.89 56.0401 91.83 55.8801 91.74C55.5601 91.56 55.0701 91.28 54.6801 90.88C54.4801 90.68 54.2501 90.47 54.0801 90.22C53.9201 89.97 53.7801 89.69 53.6801 89.4L52.6401 86.48L52.3001 85.24C52.3001 85.24 52.3101 85.21 52.3101 85.18C52.3101 85.15 52.3101 85.05 52.3001 85.03C52.2801 85.02 52.2501 85.02 52.2101 85.03C52.1901 85.04 52.1601 85.06 52.1301 85.08C52.1101 85.1 52.1101 85.08 52.0501 85.16L51.7801 85.51C51.4201 85.97 51.0501 86.43 50.6701 86.88C48.9501 88.92 47.3001 91.15 45.4101 93.14C43.3401 95.32 41.0801 97.34 38.6201 99.11C37.1101 100.2 35.5201 101.19 33.8701 102.06C31.3601 103.38 28.6501 104.33 25.8701 104.88C23.7201 105.31 21.5301 105.58 19.3101 105.45C18.8201 105.42 18.3401 105.4 17.8501 105.33C16.0601 104.93 15.5701 104.5 15.4101 103.77C15.3701 103.6 15.3101 103.43 15.3101 103.28C15.3101 102.76 16.1001 102.59 17.3101 102.64C18.2001 102.67 19.0901 102.7 19.9901 102.74C20.8801 102.76 21.7701 102.74 22.6601 102.66C24.4401 102.52 26.2401 102.18 27.9901 101.63C30.6001 100.82 33.1301 99.59 35.5001 98.03L35.5401 98.08L35.5501 98.06Z" fill="#231F20"/>
<path d="M13.0702 100.44L13.6502 100.88L14.1902 101.2C14.5702 101.4 15.0102 101.59 15.4402 101.75C16.3302 102.06 17.2902 102.27 18.2602 102.4C20.2202 102.69 22.2602 102.44 24.2602 102.08L26.4302 101.47C27.1302 101.18 27.8302 100.9 28.5402 100.63C33.5302 98.63 37.9402 95.16 41.9602 91.38C43.6402 89.58 45.4002 87.82 46.8502 85.84L48.3002 83.97L49.0202 83.03L49.7002 82.06C50.1502 81.41 50.6302 80.78 51.1002 80.15L51.8302 79.21C52.0802 78.9 52.3902 78.64 52.6702 78.35C53.4002 77.65 53.5002 77.87 53.3802 78.8C53.3302 79.77 52.9202 81.38 51.9302 82.95C48.2402 88.38 44.0102 93.61 38.5802 97.64C37.7502 98.21 36.9902 98.89 36.1202 99.43C35.2602 100 34.4002 100.56 33.5302 101.13C32.6302 101.66 31.7002 102.13 30.7802 102.64C29.8602 103.14 28.8502 103.47 27.8902 103.88C27.3702 104.12 26.7902 104.24 26.2402 104.4L24.5602 104.85C23.4002 105.01 22.2702 105.29 21.0902 105.29C18.7602 105.42 16.3702 105.19 14.1202 104.34L13.0902 103.91L12.0802 103.34C11.5002 102.9 10.9002 102.51 10.3502 102.04C9.83022 101.53 9.24022 101.1 8.80022 100.5L8.09022 99.66C7.87022 99.36 7.69022 99.04 7.49022 98.73C6.31022 96.83 5.74022 94.58 5.69022 92.4C5.61022 90.2 6.07022 88.08 6.66022 86.07C7.61022 82.94 8.89021 80.01 10.4402 77.21C10.8002 76.6 11.1402 76.01 11.5302 75.42C12.9902 73.24 13.6802 72.71 14.5302 72.64C14.7302 72.63 14.9402 72.58 15.1002 72.6C15.6202 72.68 15.4002 73.82 14.5002 75.45C13.2502 77.92 11.8802 80.37 10.8102 82.94C9.73022 85.49 8.87022 88.15 8.66022 90.74C8.52022 92.66 8.77022 94.52 9.54022 96.14C10.2802 97.77 11.5302 99.21 13.1102 100.35L13.0702 100.41V100.44Z" fill="#231F20"/>
<path d="M118.17 89.34L116.85 90.48C116.38 90.84 115.85 91.23 115.32 91.5C114.8 91.81 114.26 92.06 113.71 92.28C113.17 92.54 112.6 92.67 112.04 92.85C109.79 93.47 107.47 93.58 105.23 93.36C104.42 93.26 103.62 93.11 102.81 92.99C102.01 92.85 101.25 92.59 100.48 92.37C99.7898 92.19 99.1498 91.9 98.5098 91.62C97.8698 91.34 97.2198 91.08 96.5898 90.78C95.3898 90.09 94.1298 89.48 92.9998 88.71C91.8798 87.92 90.6998 87.21 89.6398 86.35C88.5898 85.48 87.5198 84.64 86.4898 83.76C84.7498 82.1 82.8698 80.58 81.2398 78.85C79.0498 76.73 76.8598 74.57 75.2498 71.95C74.7798 71.1 75.0298 71.07 75.8998 71.37C76.8398 71.62 78.2498 72.31 79.4498 73.53C83.7198 77.87 88.1598 81.97 93.0398 85.51C93.7798 86.02 94.4998 86.6 95.3098 87.02C96.1198 87.44 96.9298 87.87 97.7398 88.29C98.5798 88.64 99.4398 88.95 100.29 89.29C101.15 89.59 102.03 89.78 102.89 90.04C104.81 90.42 106.77 90.72 108.68 90.48C110.59 90.29 112.47 89.72 114.07 88.74C115.94 87.43 117.68 85.57 118.59 83.43C120 80.15 119.59 76.21 118.05 72.83C116.89 70.17 115.13 67.84 113.29 65.61C112.86 65.13 112.45 64.66 112.04 64.16C110.52 62.31 110.1 61.65 110.28 60.77C110.31 60.57 110.32 60.35 110.38 60.2C110.58 59.68 111.61 60.09 113 61.31C113.53 61.75 114 62.25 114.5 62.73C114.99 63.23 115.51 63.7 115.95 64.25C116.4 64.8 116.85 65.35 117.3 65.91C117.75 66.47 118.14 67.09 118.56 67.69C120.16 70.13 121.54 72.88 122.19 75.99C122.67 78.28 122.71 80.81 122.01 83.2C121.32 85.6 119.9 87.71 118.22 89.38L118.16 89.33L118.17 89.34Z" fill="#231F20"/>
<path d="M55.0702 53.46C54.5302 51.4 54.2002 49.25 54.2102 47.06C54.2202 44.88 54.5402 42.64 55.4202 40.54C56.0402 39.02 56.8702 37.53 58.0202 36.33C60.0502 34.2 62.6702 32.83 65.4702 32.26C68.2602 31.7 71.0902 31.96 73.6802 32.7C75.9802 33.36 78.1802 34.27 80.2402 35.35C81.5602 36.05 82.8502 36.82 84.0502 37.71C85.2602 38.59 86.4102 39.55 87.2502 40.82C87.6302 41.77 87.5102 41.7 86.5102 41.68C86.0002 41.68 85.4002 41.56 84.6902 41.44C83.9902 41.29 83.3302 40.95 82.6402 40.55C80.2502 39.08 77.8402 37.69 75.3102 36.67C74.6802 36.43 74.0402 36.21 73.4002 36C72.7602 35.85 72.1102 35.6 71.4602 35.51L70.4902 35.31C70.1702 35.26 69.8402 35.24 69.5102 35.19C68.8502 35.08 68.2102 35.12 67.5502 35.1C65.9902 35.17 64.4202 35.62 63.0202 36.41C61.6402 37.28 60.3902 38.3 59.5102 39.62C57.4802 42.48 57.0702 46.4 57.7002 50.12C58.0902 52.43 58.7802 54.72 59.7602 56.9C61.2102 60.22 63.1702 63.37 65.4702 66.18C67.2702 68.37 69.3502 70.22 71.4902 72C71.9702 72.38 72.4402 72.76 72.9202 73.14C73.3602 73.5 73.7202 73.81 74.0102 74.09C74.2802 74.38 74.4802 74.65 74.6302 74.89C74.9302 75.36 74.9702 75.8 74.9102 76.29C74.8802 76.51 74.9002 76.73 74.8502 76.9C74.7502 77.4 73.5202 77.42 71.9702 76.52C67.5802 73.64 63.6002 69.61 60.4202 64.95C58.0602 61.49 56.1402 57.65 54.9702 53.49L55.0502 53.46H55.0702Z" fill="#231F20"/>
<path d="M20.5902 86.24C20.9402 85.03 24.6402 82.21 26.9902 79.95C27.0602 79.88 27.1702 79.85 27.2202 79.76C27.2802 79.65 27.2602 79.51 27.2402 79.39C27.0402 77.95 27.8502 76.44 29.1502 75.8C30.4502 75.16 32.1502 75.45 33.1602 76.49C34.1702 77.53 34.4302 79.23 33.7602 80.51C33.0902 81.79 31.7802 82.59 30.3502 82.37C29.2202 85.29 27.6802 89.95 26.6102 90.4C25.3702 90.93 20.1202 87.86 20.5802 86.24H20.5902Z" fill="#231F20"/>
<path d="M108.98 75.66C108.5 74.58 104.75 72.34 102.31 70.49C102.23 70.43 102.13 70.41 102.07 70.33C102 70.23 102 70.11 102 69.99C102 68.66 101.06 67.34 99.7902 66.88C98.5202 66.42 97.0002 66.84 96.2002 67.89C95.4002 68.94 95.3902 70.52 96.1602 71.64C96.9302 72.76 98.2402 73.37 99.5202 73.02C100.93 75.6 102.94 79.73 103.97 80.04C105.18 80.41 109.6 77.1 108.97 75.67L108.98 75.66Z" fill="#231F20"/>
<path d="M46.5702 95.98C46.6402 95.68 46.7002 95.38 46.7302 95.07C46.7402 94.96 46.7302 94.85 46.7302 94.73C46.7702 94.33 46.7802 93.93 46.7802 93.52C46.7802 93.34 46.7402 93.16 46.7102 92.99C46.6602 92.77 46.5802 92.55 46.5902 92.31C46.5902 92.16 47.1002 92.19 47.2402 92.44C47.4402 92.9 47.6102 93.38 47.5902 93.89C47.5702 94.19 47.6402 94.5 47.6502 94.81C47.6502 95.15 47.6302 95.48 47.6002 95.82C47.5802 96.03 47.5502 96.23 47.5202 96.43C47.4802 96.74 47.3902 97.04 47.3402 97.34C47.2902 97.57 47.3202 97.82 47.2502 98.05C47.2402 98.1 47.2302 98.15 47.2102 98.2C47.1302 98.38 47.0502 98.42 46.8502 98.4H46.7202C46.5702 98.36 46.4702 98.24 46.4402 98.1C46.3002 97.65 46.3502 97.25 46.3902 96.85C46.4002 96.55 46.5102 96.26 46.5502 95.96H46.5802L46.5702 95.98Z" fill="#231F20"/>
<path d="M39.4398 102.08C39.5098 101.83 39.5298 101.57 39.5698 101.31C39.5798 101.21 39.5598 101.12 39.5698 101.02C39.6098 100.67 39.6398 100.3 39.6198 99.94C39.6198 99.78 39.5898 99.62 39.5598 99.46C39.5198 99.26 39.4598 99.06 39.4898 98.84C39.4998 98.77 39.6198 98.74 39.7698 98.76C39.9198 98.78 40.0998 98.83 40.1698 98.94C40.4098 99.33 40.5998 99.74 40.5398 100.21C40.5198 100.48 40.6298 100.75 40.6498 101.03C40.6798 101.33 40.6498 101.65 40.6198 101.96C40.5898 102.15 40.5698 102.34 40.5298 102.53C40.4798 102.82 40.3798 103.1 40.2998 103.38C40.2398 103.6 40.2298 103.84 40.1198 104.06C40.0998 104.11 40.0898 104.16 40.0598 104.2C39.9498 104.36 39.8498 104.37 39.6098 104.25L39.4498 104.16C39.2798 104.05 39.1798 103.9 39.1698 103.77C39.1698 103.58 39.1298 103.4 39.1398 103.25C39.1598 103.1 39.1898 102.95 39.2198 102.8C39.2698 102.58 39.3498 102.35 39.3698 102.1H39.3998L39.4398 102.08Z" fill="#231F20"/>
<path d="M26.32 108.73C26.42 108.53 26.5 108.31 26.56 108.09C26.58 108.01 26.56 107.93 26.58 107.84C26.64 107.55 26.71 107.23 26.7 106.91C26.7 106.77 26.67 106.63 26.64 106.5C26.59 106.33 26.52 106.16 26.53 105.97C26.53 105.85 27.05 105.8 27.19 106C27.39 106.35 27.55 106.75 27.54 107.17C27.54 107.42 27.6 107.67 27.6 107.93C27.59 108.21 27.56 108.49 27.5 108.77C27.47 108.94 27.41 109.1 27.37 109.27C27.29 109.52 27.18 109.75 27.1 109.99C27.04 110.18 27.02 110.38 26.97 110.58C26.96 110.62 26.95 110.67 26.93 110.71C26.86 110.86 26.76 110.86 26.49 110.74L26.31 110.66C26.11 110.56 25.98 110.41 25.96 110.29C25.92 109.92 25.93 109.62 26.04 109.35C26.12 109.15 26.2 108.95 26.29 108.74H26.32V108.73Z" fill="#231F20"/>
<path d="M33.1398 106.7C33.2398 106.44 33.3198 106.16 33.3798 105.88C33.3998 105.78 33.4098 105.67 33.4398 105.57C33.5598 105.21 33.6498 104.83 33.7098 104.45C33.7398 104.28 33.7398 104.11 33.7398 103.94C33.7398 103.72 33.7198 103.5 33.7898 103.28C33.8298 103.14 34.3098 103.32 34.3598 103.57C34.4198 104.02 34.4698 104.48 34.3798 104.94C34.3198 105.22 34.3698 105.51 34.3398 105.8C34.2998 106.12 34.1898 106.43 34.0998 106.73C34.0298 106.92 33.9698 107.1 33.8998 107.29C33.7998 107.57 33.6698 107.84 33.5598 108.11C33.4898 108.29 33.4098 108.53 33.3298 108.74C33.3098 108.78 33.2998 108.83 33.2698 108.87C33.1798 109.03 33.0998 109.06 32.9198 109L32.7998 108.96C32.6698 108.91 32.5998 108.79 32.6098 108.65C32.6598 108.25 32.6698 107.83 32.8298 107.49C32.9198 107.22 33.0298 106.96 33.0998 106.69H33.1198L33.1398 106.7Z" fill="#231F20"/>
<path d="M82.3898 84.91C82.4298 84.66 82.4898 84.42 82.5498 84.19C82.5698 84.1 82.5698 84.02 82.5998 83.93C82.6998 83.63 82.8298 83.35 82.9798 83.08C83.0398 82.96 83.0898 82.83 83.1298 82.71C83.1798 82.55 83.2198 82.38 83.3698 82.26C83.4498 82.19 83.9598 82.57 83.9398 82.74C83.8798 83.04 83.8098 83.33 83.6498 83.61C83.5398 83.77 83.5498 83.97 83.5198 84.16C83.4798 84.36 83.4398 84.57 83.4098 84.78C83.3898 84.91 83.3798 85.04 83.3798 85.17C83.3798 85.37 83.3598 85.57 83.3998 85.76C83.4298 85.91 83.5198 86.04 83.5898 86.18C83.5998 86.21 83.6298 86.24 83.6398 86.27C83.6698 86.39 83.6098 86.44 83.3898 86.54L83.2398 86.6C83.0698 86.66 82.8998 86.66 82.8098 86.57C82.5298 86.33 82.4298 86 82.3698 85.66C82.3198 85.41 82.3598 85.16 82.3698 84.91H82.3998H82.3898Z" fill="#231F20"/>
<path d="M87.5002 91.1C87.5002 90.79 87.5002 90.48 87.5102 90.17C87.5102 90.06 87.5002 89.95 87.5102 89.84C87.5502 89.45 87.6202 89.07 87.7102 88.69C87.7502 88.52 87.7802 88.36 87.8102 88.19C87.8502 87.98 87.8902 87.77 88.0002 87.57C88.0602 87.45 88.3802 87.71 88.3902 87.94C88.3902 88.36 88.4002 88.76 88.2902 89.16C88.2302 89.4 88.2802 89.66 88.2902 89.91C88.2902 90.19 88.3102 90.46 88.3502 90.74C88.3702 90.91 88.3902 91.08 88.4302 91.25C88.4802 91.5 88.5402 91.76 88.6302 92C88.7102 92.19 88.8402 92.35 88.9502 92.51C88.9702 92.55 89.0102 92.58 89.0302 92.61C89.1102 92.75 89.0702 92.82 88.8602 92.97L88.7102 93.07C88.5402 93.17 88.3602 93.18 88.2502 93.09C87.9302 92.81 87.7002 92.43 87.6202 92.02C87.5502 91.71 87.5102 91.4 87.4902 91.09H87.5102L87.5002 91.1Z" fill="#231F20"/>
<path d="M95.31 95.41C95.32 95.1 95.35 94.79 95.4 94.49C95.41 94.38 95.4 94.27 95.43 94.16C95.52 93.78 95.64 93.41 95.79 93.06C95.85 92.9 95.91 92.75 95.96 92.59C96.03 92.39 96.09 92.18 96.26 92.03C96.35 91.93 96.77 92.33 96.74 92.54C96.65 92.92 96.62 93.28 96.44 93.64C96.34 93.86 96.36 94.1 96.35 94.34C96.33 94.6 96.32 94.86 96.33 95.12C96.33 95.28 96.34 95.44 96.37 95.6C96.41 95.84 96.45 96.09 96.53 96.31C96.61 96.48 96.75 96.63 96.84 96.78C96.86 96.82 96.89 96.84 96.91 96.88C96.97 97.02 96.93 97.09 96.73 97.24L96.6 97.34C96.45 97.45 96.27 97.47 96.14 97.39C95.95 97.27 95.77 97.13 95.64 96.95C95.53 96.77 95.45 96.57 95.38 96.36C95.29 96.05 95.28 95.73 95.27 95.41H95.3H95.31Z" fill="#231F20"/>
<path d="M104.85 98.25C104.79 98.02 104.76 97.78 104.73 97.55C104.72 97.47 104.67 97.39 104.67 97.31C104.65 97.01 104.66 96.7 104.67 96.41C104.67 96.28 104.65 96.16 104.62 96.03C104.58 95.87 104.5 95.71 104.61 95.54C104.67 95.44 105.63 95.52 105.67 95.66C105.74 95.93 105.76 96.2 105.7 96.51C105.66 96.7 105.77 96.86 105.81 97.03C105.86 97.22 105.9 97.41 105.96 97.6C105.99 97.72 106.02 97.84 106.07 97.95C106.14 98.12 106.2 98.3 106.31 98.45C106.41 98.56 106.53 98.64 106.63 98.74C106.65 98.76 106.68 98.78 106.7 98.8C106.76 98.9 106.72 98.97 106.54 99.16L106.41 99.29C106.27 99.43 106.1 99.49 105.97 99.47C105.78 99.43 105.61 99.37 105.45 99.29C105.29 99.21 105.23 99.06 105.13 98.92C105.01 98.71 104.92 98.48 104.84 98.26H104.87L104.85 98.25Z" fill="#231F20"/>
<path d="M24.7702 35.32C25.0502 35.25 25.1202 35.61 25.0402 36.24C25.0202 36.44 24.7902 36.98 24.6902 37.04C24.5102 37.14 24.3302 37.24 24.1702 37.29C24.0702 37.32 22.8002 37.11 22.3602 37.07C21.9302 37.03 21.5402 36.9 21.1502 36.76C20.3602 36.47 19.5602 36.22 18.7602 35.95C18.5802 35.89 18.4102 35.8 18.2502 35.7C17.7002 35.32 17.0902 35.11 16.4602 34.97C16.3602 34.95 16.2602 34.9 16.1302 34.95C15.9302 35.04 14.2602 34.54 14.0602 34.41C13.5702 34.09 13.0602 33.83 12.5502 33.55C12.4802 33.51 12.3902 33.52 12.3402 33.4C12.2402 33.12 12.0602 33.11 11.9002 33.05C11.6702 32.96 11.4502 32.87 11.2302 32.73C11.1202 32.66 11.0402 32.5 10.9602 32.36C10.8802 32.23 11.0202 31.89 11.0702 31.86C11.2002 31.77 11.1602 31.58 11.1902 31.43C11.1902 31.38 11.2102 31.31 11.2302 31.27C11.2602 31.18 12.7902 30.9 12.9402 30.95C12.9602 30.95 13.4802 31.04 14.0302 31.13C14.5802 31.22 15.1602 31.31 15.2802 31.33C15.4102 31.33 15.5102 31.43 15.6202 31.5C15.6902 31.51 17.3302 31.81 17.3902 31.82C17.7102 31.94 18.0702 31.96 18.3302 32.27C18.3802 32.33 18.4502 32.34 18.5202 32.36C19.1002 32.5 19.6302 32.77 20.1802 33.01C20.4602 33.13 20.7502 33.2 21.0402 33.3C21.0902 33.32 21.1302 33.37 21.1802 33.4C21.2402 33.44 21.2902 33.49 21.3602 33.51C22.0502 33.72 22.6702 34.08 23.3802 34.23C23.5402 34.26 24.1802 34.8 24.3702 34.83C24.4802 34.85 24.6502 35.35 24.7602 35.32H24.7702Z" fill="#231F20"/>
<path d="M24.2402 24.77C24.4602 24.79 24.2702 25.06 23.8202 25.48C23.6802 25.61 23.1802 25.94 23.0902 25.96C22.9102 25.99 22.7502 26.02 22.6102 26.02C22.5302 26.02 21.9002 25.61 21.6702 25.49C21.4502 25.37 21.2902 25.21 21.1502 25.03C20.8602 24.67 20.5502 24.33 20.2402 23.99C20.1702 23.91 20.1302 23.82 20.1002 23.71C20.0002 23.33 19.7702 23.05 19.4902 22.83C19.4402 22.79 19.4102 22.74 19.3102 22.76C19.1402 22.79 18.4702 22.12 18.4302 21.99C18.3302 21.65 18.1702 21.36 18.0302 21.05C18.0102 21.01 17.9502 21 17.9902 20.89C18.0802 20.64 17.9902 20.61 17.9202 20.53C17.8402 20.42 17.7602 20.31 17.7002 20.15C17.6702 20.08 17.7102 19.92 17.7302 19.79C17.7502 19.67 18.0102 19.41 18.0502 19.39C18.1702 19.34 18.2402 19.17 18.3402 19.05C18.3702 19.01 18.4102 18.96 18.4402 18.92C18.5002 18.85 19.5502 18.89 19.6202 18.96C19.6202 18.96 19.9002 19.13 20.1802 19.31C20.4602 19.49 20.7602 19.68 20.8302 19.71C20.9002 19.74 20.9102 19.83 20.9402 19.91C20.9602 19.94 21.8102 20.49 21.8402 20.52C21.9702 20.68 22.1802 20.77 22.1602 21.07C22.1602 21.13 22.1902 21.15 22.2302 21.18C22.5002 21.41 22.6702 21.73 22.8602 22.03C22.9602 22.18 23.1002 22.3 23.2102 22.44C23.2302 22.46 23.2302 22.51 23.2302 22.55C23.2402 22.59 23.2402 22.64 23.2702 22.67C23.5602 22.98 23.7302 23.39 24.0702 23.66C24.1502 23.72 24.2102 24.26 24.3002 24.32C24.3602 24.36 24.1402 24.76 24.2302 24.76L24.2402 24.77Z" fill="#231F20"/>
<path d="M35.4201 25.74C35.6001 25.94 35.2901 26.13 34.6901 26.31C34.5001 26.37 33.9101 26.38 33.8201 26.33C33.6501 26.22 33.4901 26.11 33.3801 25.99C33.3101 25.92 32.9901 24.77 32.8601 24.38C32.7301 24 32.7001 23.62 32.6801 23.24C32.6501 22.46 32.5901 21.69 32.5501 20.91C32.5501 20.74 32.5601 20.56 32.6101 20.39C32.7701 19.79 32.7601 19.2 32.6901 18.61C32.6801 18.51 32.6901 18.41 32.6001 18.32C32.4501 18.17 32.3801 16.56 32.4501 16.35C32.6101 15.83 32.6901 15.3 32.8101 14.78C32.8301 14.71 32.7901 14.63 32.8901 14.56C33.1301 14.39 33.0801 14.24 33.1001 14.08C33.1201 13.86 33.1501 13.63 33.2201 13.41C33.2601 13.3 33.3901 13.18 33.5001 13.07C33.6001 12.97 33.9701 13.01 34.0101 13.04C34.1301 13.14 34.3001 13.04 34.4501 13.04C34.5001 13.04 34.5701 13.03 34.6101 13.04C34.7001 13.04 35.4001 14.29 35.4001 14.43C35.4001 14.46 35.6901 16.32 35.7501 16.52C35.7801 16.63 35.7301 16.74 35.7001 16.85C35.6901 16.9 35.9701 18.38 35.9701 18.44C35.9601 18.75 36.0701 19.05 35.8601 19.37C35.8201 19.43 35.8301 19.49 35.8401 19.56C35.9001 20.09 35.8401 20.62 35.8201 21.15C35.8001 21.42 35.8501 21.69 35.8601 21.96C35.8601 22.01 35.8301 22.06 35.8201 22.11C35.8001 22.17 35.7801 22.24 35.7801 22.3C35.8401 22.94 35.7501 23.59 35.8801 24.22C35.9101 24.37 35.6701 25.08 35.7201 25.25C35.7501 25.34 35.3601 25.67 35.4301 25.75L35.4201 25.74Z" fill="#231F20"/>
<path d="M97.9101 30.49C98.1301 30.62 97.8701 30.86 97.3401 31.18C97.1701 31.28 96.6001 31.45 96.5101 31.43C96.3201 31.38 96.1401 31.32 96.0001 31.24C95.9101 31.2 95.3401 30.25 95.1301 29.92C94.9201 29.61 94.8101 29.27 94.7201 28.93C94.5301 28.23 94.3301 27.53 94.1601 26.83C94.1201 26.67 94.1101 26.51 94.1301 26.34C94.1901 25.76 94.0901 25.22 93.9301 24.69C93.9001 24.6 93.9001 24.51 93.8001 24.44C93.6201 24.33 93.3601 22.85 93.4001 22.65C93.5001 22.15 93.5301 21.66 93.6001 21.16C93.6001 21.09 93.5701 21.02 93.6601 20.95C93.8901 20.77 93.8201 20.63 93.8201 20.48C93.8201 20.27 93.8301 20.07 93.8901 19.85C93.9201 19.74 94.0501 19.63 94.1401 19.52C94.2301 19.42 94.6001 19.42 94.6501 19.45C94.7801 19.53 94.9401 19.43 95.0901 19.41C95.1401 19.41 95.2101 19.39 95.2501 19.39C95.3401 19.39 96.1301 20.44 96.1401 20.56C96.1401 20.57 96.2601 20.98 96.3801 21.41C96.5101 21.84 96.6501 22.28 96.6901 22.37C96.7301 22.46 96.6901 22.57 96.6801 22.67C96.6701 22.72 97.1301 23.97 97.1401 24.02C97.1701 24.29 97.3201 24.54 97.1601 24.85C97.1301 24.91 97.1601 24.96 97.1601 25.02C97.3001 25.47 97.3301 25.94 97.3801 26.41C97.4101 26.65 97.5001 26.87 97.5601 27.11C97.5701 27.15 97.5501 27.2 97.5401 27.25C97.5401 27.31 97.5201 27.37 97.5401 27.42C97.7101 27.96 97.7401 28.55 98.0101 29.06C98.0701 29.18 97.9901 29.86 98.0701 29.99C98.1101 30.06 97.8101 30.45 97.9001 30.5L97.9101 30.49Z" fill="#231F20"/>
<path d="M107.66 28.06C107.76 28.28 107.42 28.32 106.8 28.25C106.6 28.23 106.04 28.04 105.98 27.96C105.86 27.81 105.74 27.67 105.67 27.53C105.62 27.45 105.7 26.4 105.71 26.04C105.71 25.69 105.82 25.37 105.94 25.05C106.18 24.41 106.41 23.77 106.68 23.14C106.74 23 106.82 22.87 106.93 22.75C107.31 22.35 107.53 21.88 107.7 21.39C107.73 21.31 107.78 21.24 107.74 21.12C107.66 20.93 108.28 19.66 108.44 19.54C108.8 19.22 109.11 18.87 109.44 18.54C109.49 18.49 109.49 18.41 109.62 18.4C109.92 18.37 109.99 18.17 110.21 17.97C110.36 17.84 110.55 17.72 110.83 17.65C111.09 17.6 111.33 17.62 111.57 17.72C111.81 17.82 112 18.11 112.02 18.38C112.02 18.62 111.62 18.63 111.59 18.65C111.47 18.65 111.29 18.85 111.35 18.79C111.35 18.79 111.35 18.78 111.3 18.85C111.25 18.93 111.27 19.06 111.25 18.96V18.93L111.23 18.91L111.33 19.08C111.33 19.08 111.36 19.13 111.39 19.16C111.45 19.23 111.55 19.33 111.7 19.45C111.81 19.53 111.79 19.52 111.8 19.53C111.8 19.53 111.81 19.55 111.82 19.56C111.82 19.58 111.82 19.6 111.82 19.61C111.84 19.57 111.28 21.08 111.26 21.24C111.24 21.33 111.15 21.39 111.08 21.46C111.04 21.49 110.71 22.7 110.69 22.74C110.56 22.96 110.54 23.23 110.24 23.37C110.18 23.4 110.17 23.45 110.15 23.5C110.01 23.92 109.76 24.29 109.54 24.67C109.43 24.87 109.38 25.09 109.29 25.3C109.28 25.34 109.23 25.36 109.2 25.39C109.16 25.43 109.12 25.47 109.1 25.52C108.93 26.03 108.63 26.48 108.55 27.02C108.53 27.14 108.08 27.6 108.07 27.75C108.07 27.83 107.6 27.95 107.64 28.04L107.66 28.06Z" fill="#231F20"/>
<path d="M108.44 38.51C108.39 38.74 108.12 38.54 107.68 38.09C107.54 37.95 107.23 37.45 107.22 37.35C107.22 37.16 107.22 36.98 107.24 36.83C107.25 36.74 107.96 36 108.21 35.74C108.45 35.48 108.74 35.32 109.03 35.18C109.64 34.9 110.24 34.6 110.87 34.37C111.01 34.32 111.16 34.29 111.32 34.3C111.86 34.31 112.34 34.18 112.82 34C112.9 33.97 112.99 33.97 113.04 33.86C113.13 33.67 114.5 33.39 114.68 33.44C115.15 33.54 115.6 33.59 116.05 33.68C116.11 33.69 116.18 33.65 116.24 33.75C116.39 33.99 116.52 33.93 116.66 33.94C116.85 33.94 117.03 33.98 117.22 34.06C117.31 34.1 117.41 34.23 117.5 34.34C117.58 34.44 117.55 34.81 117.53 34.85C117.45 34.97 117.53 35.14 117.53 35.29C117.53 35.34 117.53 35.41 117.53 35.45C117.51 35.54 116.6 36.24 116.51 36.25C116.48 36.24 115.15 36.62 115.02 36.72C114.95 36.76 114.86 36.72 114.77 36.7C114.72 36.68 113.72 37.14 113.68 37.16C113.46 37.19 113.27 37.35 112.99 37.2C112.94 37.17 112.89 37.2 112.85 37.21C112.49 37.37 112.1 37.41 111.72 37.51C111.52 37.55 111.35 37.67 111.17 37.74C111.14 37.75 111.09 37.74 111.05 37.74C111 37.74 110.95 37.74 110.91 37.75C110.49 37.97 110.01 38.06 109.65 38.39C109.57 38.46 108.98 38.48 108.89 38.58C108.84 38.63 108.43 38.41 108.41 38.5L108.44 38.51Z" fill="#231F20"/>
<path d="M115.61 103.05C111.74 104.76 107.38 105.04 103.4 104.39C101.39 104.06 99.4702 103.5 97.6002 102.83C95.7502 102.11 93.9502 101.32 92.2302 100.39C89.7202 99.04 87.2802 97.59 85.0302 95.89C81.0702 92.89 77.4102 89.56 74.1602 85.83L72.9402 84.41L72.6402 84.04C72.5202 83.9 72.3502 83.68 72.2502 83.48C72.1202 83.28 72.0302 83.06 71.9302 82.85C71.8902 82.62 71.9002 82.38 71.9302 82.14C71.9702 81.58 72.0202 81.38 72.0702 81.05L72.2302 80.14L72.5702 78.33C72.8002 77.13 73.0502 75.94 73.3202 74.74C73.6002 73.54 73.8602 72.38 74.2702 71.11C74.3102 70.99 74.3502 70.88 74.4102 70.75C74.8202 69.98 75.2702 69.66 75.6802 69.27C76.1002 68.9 76.5302 68.57 76.9502 68.24C77.8002 67.59 78.6702 66.97 79.5302 66.36C81.2602 65.14 82.9902 63.95 84.7102 62.78C89.2502 59.7 93.7402 56.51 98.2602 53.53C99.7502 52.71 99.7202 52.96 98.9502 54.34C98.5702 55.03 97.9002 55.88 97.0402 56.83C96.1602 57.76 95.0402 58.72 93.7402 59.64C90.7502 61.74 87.7302 63.76 84.7302 65.79C83.2402 66.81 81.7302 67.82 80.2902 68.87C79.5702 69.4 78.8502 69.93 78.1802 70.47C77.8502 70.74 77.5102 71.01 77.2302 71.28C77.0702 71.42 76.9702 71.54 76.8402 71.66C76.7402 71.78 76.7402 71.78 76.7202 71.79C76.7202 71.83 76.6802 71.91 76.6602 71.97L76.5702 72.28C76.5102 72.48 76.4502 72.72 76.3902 72.94L76.0602 74.33L75.4502 77.18L74.8802 80.05L74.6202 81.48L74.5602 81.83L74.5302 82V82.05C74.5102 82.1 74.4702 82.17 74.5002 82.23C74.5202 82.28 74.5402 82.31 74.5802 82.37C74.6802 82.5 74.8102 82.67 74.9402 82.82C75.2002 83.13 75.4702 83.44 75.7502 83.75C76.3102 84.36 76.9002 84.95 77.5002 85.54C78.7102 86.71 79.9802 87.84 81.2602 88.96C83.8402 91.18 86.5902 93.21 89.4202 95.04C92.5202 97.05 95.7902 98.82 99.2402 99.99C102.67 101.18 106.31 101.74 109.82 101.25C111.99 100.97 114.06 100.21 115.96 99.13L116.68 98.73L117.35 98.25C117.78 97.92 118.29 97.64 118.66 97.28C119.47 96.61 120.18 95.8 120.76 94.9C122.57 92.19 123.23 88.74 123.09 85.37C122.96 81.98 122 78.62 120.59 75.52C118.34 70.68 114.95 66.57 111.14 62.94C110.31 62.13 109.42 61.41 108.55 60.63C106.9 59.21 105.79 58.32 105.09 57.56C104.76 57.16 104.5 56.84 104.32 56.52C104.15 56.19 104.05 55.88 103.95 55.6C103.87 55.34 103.72 55.06 103.68 54.9C103.62 54.62 103.99 54.68 104.85 54.89C105.73 55.06 106.9 55.66 108.24 56.64C112.24 59.53 116.03 63.05 119.17 67.27C120.74 69.38 122.14 71.65 123.29 74.09C124.45 76.52 125.35 79.12 125.86 81.85C126.61 85.87 126.55 90.27 124.81 94.32C123.95 96.33 122.68 98.24 120.97 99.73C120.55 100.13 120.12 100.43 119.7 100.74C119.27 101.05 118.85 101.36 118.41 101.66C117.48 102.17 116.6 102.77 115.6 103.16L115.56 103.09L115.61 103.05Z" fill="#231F20"/>
<path d="M16.6598 112.13L17.2798 112.33L17.9098 112.46C18.3298 112.54 18.7498 112.65 19.1798 112.72C20.0398 112.8 20.8998 112.94 21.7798 112.9C23.5298 112.94 25.2998 112.68 27.0498 112.25C30.5598 111.4 33.9298 109.76 37.1098 107.79C39.4298 106.33 41.5598 104.58 43.6898 102.82C47.4298 99.7 50.8998 96.17 54.0298 92.43C54.2198 92.19 54.4198 91.96 54.5898 91.72L55.0398 91.1C55.0998 91 55.1998 90.9 55.1598 90.78L55.1298 90.6L55.0398 90.22C54.7398 89.05 54.3898 87.85 54.0398 86.66C53.6798 85.47 53.3098 84.29 52.9298 83.11L52.3398 81.36C52.1398 80.8 51.9098 80.18 51.6998 79.74C51.6298 79.57 51.5598 79.54 51.3998 79.36C51.2198 79.21 51.0298 79.05 50.8198 78.9C50.4098 78.6 49.9498 78.3 49.4898 78.02C48.5698 77.45 47.6098 76.91 46.6398 76.39C44.6998 75.34 42.7298 74.36 40.7598 73.38C38.2298 72.12 35.6798 70.9 33.1498 69.61C30.6298 68.31 28.0898 67.01 25.7798 65.28C24.4398 64.03 24.7698 64.03 26.3298 64.33C27.8798 64.63 30.5498 65.36 33.4198 66.85C38.5398 69.45 43.7298 71.92 48.8798 74.73C50.1798 75.46 51.4398 76.13 52.7898 77.16C52.9598 77.3 53.1398 77.43 53.3398 77.64C53.5598 77.83 53.7998 78.17 53.9498 78.42C54.2198 78.92 54.3298 79.23 54.4898 79.61C54.7798 80.33 55.0198 81.02 55.2598 81.71C55.7498 83.1 56.1798 84.5 56.5998 85.9L57.2098 88.02L57.4998 89.1L57.6398 89.65L57.7098 89.95C57.7498 90.09 57.7798 90.26 57.7998 90.41C58.0498 91.17 57.6698 91.85 57.3098 92.49L56.8598 93.12L56.4498 93.67C55.9098 94.4 55.3598 95.12 54.7998 95.82C53.6698 97.23 52.4998 98.61 51.2698 99.95C48.7998 102.61 46.1698 105.17 43.2998 107.43C40.1498 109.91 36.7298 112.09 33.0098 113.75C31.1498 114.58 29.1998 115.22 27.1998 115.71C25.1798 116.13 23.1198 116.39 21.0298 116.33C18.4698 116.24 15.9198 115.69 13.5698 114.7C12.9898 114.43 12.3898 114.22 11.8398 113.9L10.1898 112.96C9.08978 112.27 8.06978 111.41 7.17978 110.46C4.50978 107.5 3.18978 103.62 2.92978 99.83C2.63978 96.01 3.31978 92.24 4.41978 88.7C6.18978 83.2 8.94978 78.18 12.3698 73.65C13.1098 72.64 13.8798 71.69 14.6898 70.72C16.2398 68.97 17.3498 67.91 18.2398 67.27C18.6998 66.97 19.0998 66.77 19.4498 66.64C19.8198 66.52 20.1498 66.47 20.4498 66.43C20.7198 66.4 21.0298 66.29 21.1998 66.29C21.4898 66.29 21.3498 66.66 20.9898 67.48C20.8298 67.91 20.5298 68.36 20.1598 68.88C19.8198 69.43 19.3298 69.97 18.7898 70.6C15.6198 74.3 12.6498 78.32 10.3398 82.7C8.02978 87.06 6.33978 91.85 6.12978 96.66C5.94978 100.2 6.63978 103.76 8.43978 106.54C9.32978 107.93 10.5098 109.08 11.8698 109.95C13.3998 110.81 14.9598 111.65 16.6498 112.06L16.6298 112.15L16.6598 112.13Z" fill="#231F20"/>
</svg>
