<svg width="128" height="128" viewBox="0 0 128 128" fill="none" xmlns="http://www.w3.org/2000/svg">
<path d="M84.3703 47.48C83.9899 47.2585 83.7077 46.9012 83.5803 46.48C83.5722 46.4512 83.5729 46.4207 83.5823 46.3924C83.5917 46.364 83.6094 46.3391 83.633 46.3209C83.6566 46.3026 83.6852 46.2918 83.715 46.2899C83.7448 46.2879 83.7745 46.2949 83.8003 46.31C84.0303 46.43 84.2702 46.54 84.5202 46.65C85.5488 47.1971 86.6402 47.6169 87.7702 47.9C88.5222 48.0675 89.2899 48.1547 90.0603 48.16C90.3094 48.1565 90.5575 48.1263 90.8003 48.07C90.9164 48.0519 91.0304 48.0217 91.1403 47.98C91.4155 47.8703 91.6772 47.7294 91.9203 47.56C92.0938 47.422 92.299 47.3297 92.5173 47.2912C92.7356 47.2528 92.9601 47.2696 93.1703 47.34C93.2564 47.3752 93.3372 47.4224 93.4103 47.48L93.5703 47.64L93.7103 47.89C93.7427 48.0052 93.7694 48.122 93.7903 48.24C93.7903 48.74 93.7903 49.24 93.7203 49.79L93.6303 50.66C93.5806 51.0599 93.5105 51.4571 93.4203 51.85C93.0903 53.28 92.8103 54.53 92.5203 55.85C92.448 56.0752 92.3945 56.306 92.3603 56.54C92.3278 56.7135 92.281 56.8841 92.2203 57.05C92.2203 57.19 92.1103 57.34 92.0303 57.52C91.981 57.6323 91.9207 57.7395 91.8503 57.84C91.8004 57.9271 91.7399 58.0077 91.6703 58.08C91.6173 58.134 91.5605 58.1842 91.5003 58.23C91.399 58.3022 91.2879 58.3595 91.1703 58.4L91.5202 58.19C91.4073 58.2949 91.2748 58.3764 91.1303 58.43C91.0366 58.4608 90.9389 58.4777 90.8402 58.48C90.6635 58.4891 90.4875 58.4511 90.3303 58.37C90.2553 58.341 90.1872 58.2967 90.1303 58.24L90.0003 58.14L89.9203 58C89.8627 57.9139 89.8188 57.8195 89.7903 57.72C89.7466 57.5764 89.7164 57.4291 89.7003 57.28C89.7003 57.07 89.7003 56.89 89.7003 56.72V55.78C89.7003 55.22 89.7003 54.78 89.7003 54.63C89.7367 54.1311 89.7031 53.6295 89.6003 53.14C89.5203 52.91 89.6003 52.94 89.4803 52.86C89.3603 52.78 89.3903 52.79 89.2203 52.86C89.1114 52.9143 88.9976 52.9579 88.8803 52.99C88.5615 53.0795 88.2741 53.2561 88.0503 53.5C87.6878 53.8528 87.3073 54.1865 86.9103 54.5C86.6981 54.6338 86.4777 54.7541 86.2503 54.86C86.0503 54.96 86.0303 54.8 86.0603 54.72C86.0903 54.64 85.9903 54.59 85.9303 54.57C85.8703 54.55 85.9303 54.57 85.8703 54.57C86.0922 54.0964 86.397 53.6663 86.7702 53.3C87.1426 52.8136 87.5687 52.3708 88.0403 51.98C88.2854 51.7859 88.563 51.6369 88.8603 51.54C89.247 51.3941 89.6735 51.3941 90.0603 51.54C90.5116 51.7295 90.8707 52.0886 91.0603 52.54C91.2978 53.1204 91.4429 53.7346 91.4903 54.36C91.5503 54.86 91.5603 55.22 91.5703 55.36C91.5904 55.6162 91.5904 55.8737 91.5703 56.13V56.65C91.5603 56.8065 91.5603 56.9635 91.5703 57.12C91.5703 57.21 91.5703 57.27 91.5703 57.31C91.5703 57.35 91.4103 57.31 91.2503 57.37L91.0003 57.3C90.9575 57.2898 90.913 57.2898 90.8703 57.3C90.7703 57.39 90.7803 57.37 90.7702 57.39C90.7682 57.3494 90.755 57.3101 90.7321 57.2766C90.7091 57.2431 90.6774 57.2165 90.6403 57.2L90.8103 57.29C90.793 57.2229 90.7544 57.1632 90.7003 57.12C90.6296 57.0277 90.5453 56.9468 90.4503 56.88C90.3895 56.8423 90.3326 56.7987 90.2803 56.75L90.3603 56.55C90.3603 56.38 90.4703 56.21 90.5103 56.04L90.6703 55.43C90.8703 54.79 90.9703 54.12 91.2403 53.43C91.2841 53.3029 91.3175 53.1725 91.3402 53.04C91.5502 51.91 91.8003 50.67 91.9503 49.63C91.9552 49.5935 91.9552 49.5565 91.9503 49.52C91.9503 49.52 91.9503 49.38 91.9503 49.43H91.8903C91.8257 49.4644 91.7589 49.4945 91.6903 49.52L91.0603 49.67C90.6493 49.7246 90.2345 49.7447 89.8203 49.73C89.0361 49.6714 88.2611 49.5237 87.5103 49.29C86.753 48.9914 86.0235 48.6266 85.3303 48.2C85.0603 48.13 84.5403 47.58 84.3703 47.48Z" fill="#231F20"/>
<path d="M91.84 41.5C91.2858 41.9522 90.58 42.176 89.8665 42.1258C89.153 42.0757 88.4855 41.7553 88 41.23C85.73 38.86 88.76 34.74 91.69 37.92C92.1761 38.3798 92.4638 39.011 92.4918 39.6796C92.5198 40.3481 92.286 41.0012 91.84 41.5Z" fill="#231F20"/>
<path d="M26.7201 85.2099C28.6942 77.6409 30.2136 69.9605 31.2701 62.2099C31.6501 59.3799 31.8901 56.5299 32.1601 53.6899C32.6201 48.6899 32.8801 43.6899 32.8601 38.5999C32.8721 33.5755 32.4707 28.5586 31.6601 23.5999C31.3045 21.4038 30.7489 19.2448 30.0001 17.1499C29.637 16.1354 29.1783 15.1577 28.6301 14.2299C28.1401 13.359 27.4557 12.6129 26.6301 12.0499C26.1408 11.7603 25.5734 11.6306 25.0068 11.679C24.4403 11.7274 23.9031 11.9515 23.4701 12.3199C22.4546 13.1427 21.6492 14.1949 21.1201 15.3899C20.5189 16.6315 20.0367 17.9273 19.6801 19.2599C19.2881 20.5987 18.9842 21.9616 18.7701 23.3399C18.5801 25.0299 18.2001 24.8699 17.8301 23.3399C17.366 20.6881 17.6642 17.959 18.6901 15.4699C19.2724 13.9262 20.1486 12.5101 21.2701 11.2999C21.9265 10.6147 22.7206 10.0762 23.6001 9.71994C24.5885 9.35004 25.6717 9.31838 26.6801 9.62994C27.6052 9.94307 28.4371 10.4828 29.1001 11.1999C29.6847 11.8036 30.195 12.4751 30.6201 13.1999C31.3909 14.5702 32.0144 16.0183 32.4801 17.5199C33.363 20.4114 33.9822 23.3768 34.3301 26.3799C34.7039 29.3568 34.9275 32.3506 35.0001 35.3499C35.2014 42.6176 34.9643 49.8908 34.2901 57.1299C33.4689 65.0821 32.1631 72.9768 30.3801 80.7699C29.2601 85.5599 28.0001 90.3199 26.5701 94.9999C25.4901 98.5599 24.3101 102.1 23.0201 105.59C22.3654 107.262 21.8894 108.998 21.6001 110.77C21.3396 112.432 21.6952 114.132 22.6001 115.55C23.2877 116.587 24.3412 117.326 25.5501 117.62C26.7896 117.905 28.0836 117.842 29.2901 117.44C31.7601 116.76 33.5801 114.71 34.9501 112.44C35.5358 111.407 36.0568 110.338 36.5101 109.24C37.3901 107.17 37.8701 105.73 38.3201 104.76C38.5906 104.037 39.0294 103.389 39.6001 102.87C39.7901 102.687 39.9977 102.522 40.2201 102.38C40.8101 102.1 40.7201 104.02 39.7401 107.38C39.0103 109.964 37.9196 112.431 36.5001 114.71C35.7123 115.952 34.7336 117.062 33.6001 118C32.3922 118.976 30.9915 119.684 29.4901 120.08C27.9253 120.48 26.2849 120.48 24.7201 120.08C23.8973 119.846 23.1174 119.481 22.4101 119C21.7067 118.495 21.0889 117.881 20.5801 117.18C19.6255 115.795 19.0781 114.17 19.0001 112.49C18.9626 110.971 19.1651 109.456 19.6001 108C20.1401 105.94 20.9101 104.06 21.5401 102.23C22.1701 100.4 22.8201 98.4999 23.4101 96.6199C24.6101 92.8599 25.6901 89.0499 26.6601 85.2199L26.7201 85.2099Z" fill="#231F20"/>
<path d="M90.9202 7.48C93.0037 7.28225 95.1024 7.30908 97.1802 7.56C99.3749 7.83784 101.482 8.59581 103.35 9.78C104.262 10.3925 105.107 11.0998 105.87 11.89C106.06 12.09 106.25 12.28 106.43 12.49L106.94 13.17L107.45 13.86C107.59 14.1 107.71 14.35 107.84 14.59C108.817 16.468 109.472 18.4959 109.78 20.59C110.257 23.5116 110.468 26.4704 110.41 29.43C110.245 34.5568 109.774 39.6692 109 44.74C108.29 49.74 107.43 54.74 106.55 59.74C105.76 64.16 105.02 68.62 104.35 73.02C103.91 75.84 103.53 78.68 103.21 81.51C103.05 82.92 102.92 84.34 102.82 85.74C102.684 87.1322 102.637 88.5318 102.68 89.93C102.85 91.6 102.47 91.54 101.79 90.07C100.922 87.5846 100.615 84.9381 100.89 82.32C101.39 76.4 102.31 70.61 103.31 64.83C104.31 59.05 105.31 53.29 106.31 47.5C107.515 40.4637 108.028 33.3263 107.84 26.19C107.64 22.36 107.14 18.39 105.31 15.29L104.53 14.24C104.23 13.9 103.9 13.57 103.53 13.24C102.866 12.6244 102.131 12.0906 101.34 11.65C99.725 10.7679 97.9367 10.2492 96.1002 10.13C93.7279 9.9869 91.3474 10.0673 88.9902 10.37L81.7102 11.16C74.3802 12 67.0002 12.7 59.5702 12.93C53.8628 13.1838 48.1442 12.9765 42.4702 12.31C41.2202 12.18 40.0002 11.93 38.7402 11.7C34.1002 10.7 32.7402 9.84 32.0502 8.85C31.878 8.63527 31.7273 8.40416 31.6002 8.16C31.5002 7.82 31.9302 7.7 32.7902 7.77C33.6502 7.84 34.8902 8.18 36.5302 8.48C46.1502 10.61 56.6802 10.58 67.2102 9.81C75.0702 9.23 82.8902 8.22 90.9102 7.41L90.9202 7.48Z" fill="#231F20"/>
<path d="M84.3899 98.66L73.5499 99.66C72.2399 99.79 70.9199 99.98 69.5499 100.1C64.8999 100.52 60.2199 100.85 55.5499 101.1C53.4699 101.1 51.3799 101.24 49.3199 101.26C47.9899 101.26 46.6599 101.26 45.3199 101.26C43.9799 101.26 42.6699 100.98 41.3199 100.79C40.4999 100.66 40.6199 100.55 41.3199 100.36C42.0199 100.17 43.3199 99.82 44.8199 99.59C50.1699 99.41 55.4699 98.9 60.8899 98.75C64.1199 98.62 67.4699 98.13 70.7699 97.75L81.6799 96.61L88.3999 95.93C91.7799 95.57 95.1899 95.24 98.5499 94.82C101.209 94.3455 103.921 94.2378 106.61 94.5C107.226 94.5809 107.835 94.7113 108.43 94.89C110.68 95.69 111.16 96.45 111.15 97.24C111.166 97.423 111.166 97.607 111.15 97.79C110.97 98.33 110.07 98.11 108.78 97.63C104.91 96.17 100.22 97.16 95.2599 97.63L84.3999 98.72L84.3899 98.66Z" fill="#231F20"/>
<path d="M89.2001 117.88C85.2001 118 81.2001 117.95 77.2801 118.03L72.9501 118.15C67.8601 118.21 62.7801 118.27 57.7201 118.64L54.3201 118.92L50.9301 119.1C48.0909 119.173 45.2605 119.447 42.4601 119.92C41.6201 120.1 41.5901 119.71 42.2201 119.12C43.2876 118.265 44.5794 117.737 45.9401 117.6C48.9401 117.21 51.9401 117.17 54.7701 116.99C57.6001 116.81 60.6801 116.53 63.6501 116.47C67.2101 116.4 70.9001 116.15 74.5301 116.04L86.5301 115.73C88.9701 115.66 91.4101 115.54 93.8301 115.31C95.6586 115.141 97.4776 114.881 99.2801 114.53L100.62 114.24C101.038 114.137 101.449 114.007 101.85 113.85C102.655 113.532 103.412 113.104 104.1 112.58C106.169 110.89 107.583 108.531 108.1 105.91C108.25 105.35 108.29 104.79 108.39 104.21C108.65 102.07 108.73 101.37 109.28 100.83C109.387 100.695 109.508 100.571 109.64 100.46C109.85 100.32 110.06 100.46 110.27 100.9C110.404 101.169 110.512 101.45 110.59 101.74C110.681 102.139 110.748 102.543 110.79 102.95C111.007 105.836 110.262 108.713 108.67 111.13C107.025 113.767 104.442 115.683 101.44 116.49C97.4291 117.361 93.3436 117.843 89.2401 117.93L89.2001 117.88Z" fill="#231F20"/>
<path d="M60.38 28.89C59 28.89 57.61 28.83 56.23 28.84L54.72 28.9C52.94 28.9 51.16 28.9 49.4 29.07C48.6188 29.126 47.841 29.2228 47.07 29.36C46.58 29.46 46.07 29.54 45.62 29.67C45.38 29.67 45.14 29.78 44.9 29.82C44.66 29.86 44.45 29.95 44.21 30C43.97 30.05 43.83 29.83 43.98 29.5C44.0931 29.2653 44.2523 29.0558 44.4482 28.884C44.6441 28.7122 44.8725 28.5816 45.12 28.5C47.1376 27.8538 49.2414 27.5167 51.36 27.5C52.62 27.5 53.91 27.3 55.19 27.22C56.47 27.14 57.99 27.11 59.39 27.07H61.98C63.29 27.07 64.6 27.07 65.9 27.01C66.9 27.01 67.9 26.81 68.9 26.76C69.12 26.76 69.33 26.76 69.55 26.76C70.37 26.76 70.6399 26.92 70.8099 27.35C70.8099 27.44 70.9 27.54 70.93 27.63C70.9421 27.7113 70.9317 27.7943 70.9 27.8701C70.8682 27.9459 70.8164 28.0116 70.75 28.06C70.5615 28.2376 70.3251 28.3558 70.07 28.4C69.1754 28.5917 68.2706 28.732 67.36 28.82C66.44 28.89 65.51 28.92 64.57 28.94L60.39 28.99L60.38 28.89Z" fill="#231F20"/>
<path d="M59.0798 49.28C57.8598 49.19 56.6398 49.08 55.4198 49.02C54.9798 49.02 54.5298 49.02 54.0898 49.02C52.5198 48.94 50.9498 48.86 49.3798 48.88C48.6849 48.8848 47.9907 48.9249 47.2998 49C46.4198 49.09 45.5498 49.23 44.6598 49.24C44.3798 49.24 44.3698 48.98 44.5598 48.69C44.824 48.3155 45.2147 48.0492 45.6598 47.94C47.4728 47.5297 49.3336 47.3715 51.1898 47.47C52.2998 47.53 53.4398 47.41 54.5698 47.41C55.6998 47.41 57.0598 47.41 58.2898 47.47L60.5798 47.57C61.7298 47.57 62.8898 47.69 64.0398 47.68C64.9198 47.68 65.7998 47.56 66.6798 47.54H67.2498C67.9698 47.54 68.1898 47.71 68.3498 48.15C68.3498 48.24 68.4298 48.34 68.4498 48.43C68.4612 48.5094 68.4525 48.5903 68.4245 48.6654C68.3966 48.7405 68.3503 48.8074 68.2898 48.86C68.1238 49.0282 67.9114 49.143 67.6798 49.19C66.8822 49.3626 66.0736 49.4795 65.2598 49.54C64.4398 49.54 63.6098 49.54 62.7798 49.54L59.0798 49.41V49.28Z" fill="#231F20"/>
<path d="M58.8101 38.13C57.8101 38.13 56.8101 38.05 55.8801 38.05C55.5301 38.05 55.1701 38.05 54.8201 38.05C53.5601 38.05 52.3101 38.05 51.0601 38.05C50.5048 38.0627 49.9506 38.1061 49.4001 38.18C48.7001 38.3036 47.9909 38.3672 47.2801 38.37C47.0601 38.37 47.0401 38.12 47.1901 37.83C47.274 37.6575 47.3929 37.5044 47.5392 37.3804C47.6856 37.2564 47.8562 37.1643 48.0401 37.11C49.4628 36.7178 50.9346 36.5326 52.4101 36.56C53.3001 36.56 54.2101 36.42 55.1101 36.37C56.0101 36.32 57.1101 36.29 58.1101 36.27H59.9301C60.8501 36.27 61.7801 36.27 62.6901 36.27C63.4001 36.27 64.1001 36.07 64.8001 36.02C64.9533 36.0096 65.1069 36.0096 65.2601 36.02C65.8401 36.02 66.0201 36.17 66.1501 36.6C66.1501 36.69 66.2201 36.79 66.2401 36.88C66.2519 36.9561 66.2473 37.0338 66.2266 37.108C66.2059 37.1821 66.1696 37.251 66.1201 37.31C66.0088 37.4755 65.8422 37.596 65.6501 37.65C65.0305 37.8508 64.3949 37.998 63.7501 38.09C63.1001 38.16 62.4401 38.19 61.7501 38.21H58.8101V38.13Z" fill="#231F20"/>
<path d="M55.7502 57.9L53.9302 57.78C53.7102 57.78 53.4902 57.78 53.2702 57.78C52.4802 57.78 51.7002 57.69 50.9202 57.68C50.5871 57.6612 50.2533 57.6612 49.9202 57.68C49.4884 57.7604 49.0489 57.7906 48.6102 57.77C48.4702 57.77 48.4502 57.54 48.5302 57.3C48.5672 57.1702 48.6333 57.0506 48.7234 56.9501C48.8135 56.8496 48.9252 56.7709 49.0502 56.72C49.9359 56.4448 50.8649 56.3363 51.7902 56.4C52.348 56.408 52.9057 56.3813 53.4602 56.32C54.0802 56.32 54.6902 56.32 55.3102 56.32H56.4402C57.0102 56.32 57.5902 56.32 58.1502 56.32C58.7102 56.32 59.0202 56.14 59.4502 56.09C59.5433 56.0804 59.6371 56.0804 59.7302 56.09C60.0902 56.04 60.2102 56.2 60.3102 56.56C60.3102 56.65 60.3102 56.72 60.3702 56.8C60.3921 56.9347 60.371 57.0728 60.31 57.1949C60.249 57.3169 60.1511 57.4167 60.0302 57.48C59.6551 57.662 59.2587 57.7964 58.8502 57.88C58.4462 57.9419 58.0387 57.9786 57.6302 57.99C57.0102 57.99 56.4002 57.99 55.7902 57.99L55.7502 57.9Z" fill="#231F20"/>
<path d="M91.2399 37C90.9714 36.7629 90.6459 36.5996 90.2953 36.526C89.9448 36.4523 89.5811 36.471 89.2399 36.58C88.9808 36.6756 88.7379 36.8105 88.5199 36.98C88.0927 37.277 87.7675 37.6985 87.5886 38.187C87.4096 38.6755 87.3856 39.2073 87.5199 39.71C87.6661 40.1653 87.9761 40.5502 88.3899 40.79C88.9502 41.051 89.5417 41.2392 90.1499 41.35C90.3399 41.41 90.3699 41.85 90.1499 42.28C90.0422 42.5215 89.8564 42.7198 89.6225 42.8431C89.3886 42.9664 89.12 43.0076 88.8599 42.96C87.8353 42.7198 86.9389 42.1021 86.3499 41.23C86.0706 40.7886 85.8856 40.2943 85.8065 39.778C85.7273 39.2618 85.7557 38.7347 85.8899 38.23C86.1594 37.0555 86.8771 36.0328 87.8899 35.38C88.4448 35.0489 89.073 34.8601 89.7185 34.8304C90.3641 34.8008 91.0069 34.9312 91.5899 35.21C92.2703 35.5601 92.836 36.098 93.2199 36.76C93.7773 37.744 93.9246 38.9081 93.6299 40C93.4257 40.8964 92.8898 41.6824 92.1299 42.2C91.9624 42.3155 91.7851 42.4159 91.5999 42.5C90.8799 42.76 90.5999 42.62 90.4399 42.18C90.4399 42.08 90.3599 41.98 90.3299 41.88C90.3108 41.7136 90.3451 41.5456 90.4278 41.4C90.5105 41.2544 90.6373 41.1388 90.7899 41.07C91.1998 40.8729 91.5421 40.5587 91.7735 40.1671C92.0049 39.7755 92.115 39.3241 92.0899 38.87C92.085 38.5146 92.0049 38.1642 91.855 37.8419C91.705 37.5196 91.4886 37.2327 91.2199 37H91.2399Z" fill="#231F20"/>
<path d="M92.3901 31.5899C91.2343 31.149 89.9853 31.0095 88.7607 31.1844C87.5361 31.3594 86.3762 31.843 85.3901 32.5899C84.666 33.1547 84.035 33.8296 83.5201 34.5899C82.5874 35.9443 82.0792 37.5457 82.0601 39.1899C82.0601 39.3999 82.0601 39.5999 82.0601 39.8099L82.1401 40.4199C82.3202 41.6511 82.8011 42.8189 83.5401 43.8199C84.4675 44.9973 85.746 45.8485 87.1901 46.2499C89.051 46.7213 90.9966 46.7487 92.8701 46.3299C93.4501 46.2299 93.6001 46.7599 93.2201 47.4299C92.9255 47.9015 92.5179 48.2921 92.0342 48.5663C91.5505 48.8404 91.006 48.9895 90.4501 48.9999C87.9849 49.1003 85.56 48.3519 83.5801 46.8799C82.5778 46.1057 81.7555 45.1231 81.1701 43.9999C80.8768 43.4552 80.6486 42.8779 80.4901 42.2799L80.2501 41.4099C80.2501 41.1099 80.1801 40.7999 80.1401 40.4999C79.9806 39.0527 80.1136 37.5882 80.531 36.1933C80.9485 34.7985 81.6418 33.5017 82.5701 32.3799C83.3943 31.4007 84.4075 30.5978 85.5492 30.0191C86.6908 29.4405 87.9375 29.0979 89.2145 29.0121C90.4915 28.9262 91.7728 29.0987 92.9817 29.5193C94.1905 29.9399 95.3021 30.5999 96.2501 31.4599C97.3193 32.4233 98.1845 33.5915 98.7942 34.8952C99.404 36.1989 99.746 37.6117 99.8001 39.0499C99.9107 41.3171 99.1606 43.5424 97.7001 45.2799C97.38 45.665 97.0251 46.0198 96.6401 46.3399C95.1301 47.4799 94.4301 47.4699 93.9001 47.1099C93.7704 47.0297 93.6497 46.9358 93.5401 46.8299C93.2401 46.4499 93.7701 45.9399 94.6401 45.2899C95.9472 44.3457 96.9117 43.0019 97.3879 41.4613C97.8642 39.9208 97.8263 38.2671 97.2801 36.7499C96.8909 35.5832 96.249 34.5167 95.4003 33.6265C94.5516 32.7363 93.5169 32.0443 92.3701 31.5999L92.3901 31.5899Z" fill="#231F20"/>
<path d="M88.2203 52.25C88.3658 52.1884 88.5222 52.1567 88.6803 52.1567C88.8383 52.1567 88.9947 52.1884 89.1403 52.25C89.3393 52.3923 89.5119 52.5683 89.6503 52.77C89.8139 53.0802 89.9126 53.4204 89.9403 53.77L90.1403 55.48C90.2203 56.28 90.3103 57.09 90.4503 57.82C90.4708 57.9875 90.5289 58.1481 90.6203 58.29C90.6203 58.34 90.7303 58.42 90.7803 58.37C90.875 58.2607 90.9495 58.1354 91.0003 58C91.0003 57.94 91.2303 57.27 91.3603 56.8C91.6303 55.8 91.8703 54.74 92.0803 53.69C92.2903 52.64 92.4803 51.61 92.6403 50.57C92.7851 49.2127 93.0631 47.8729 93.4703 46.57C93.6303 46.15 93.8903 46.3 94.1103 46.71C94.4028 47.2876 94.5308 47.9345 94.4803 48.58C94.1889 51.3552 93.6671 54.1014 92.9203 56.79C92.7403 57.44 92.5603 58.08 92.3703 58.73C92.3003 58.96 92.2103 59.19 92.1303 59.42C92.0497 59.6274 91.9528 59.828 91.8403 60.02C91.6584 60.3334 91.4212 60.6112 91.1403 60.84C90.9929 60.88 90.8376 60.88 90.6903 60.84C90.5421 60.8113 90.4 60.7571 90.2703 60.68C90.0096 60.5104 89.7935 60.2806 89.6403 60.01C89.4582 59.6971 89.3202 59.3606 89.2303 59.01C89.2303 58.82 89.1303 58.64 89.0903 58.45L89.0003 58C88.9203 57.51 88.8603 57 88.8103 56.57L88.6603 55.16C88.6464 54.932 88.6197 54.705 88.5803 54.48C88.5707 54.403 88.547 54.3284 88.5103 54.26C88.4203 54.14 88.3003 54.26 88.2303 54.32C88.1397 54.3958 88.0561 54.4795 87.9803 54.57L87.8603 54.7L87.6903 54.9L87.2403 55.49L86.0003 57.1C85.5572 57.7336 84.9972 58.2766 84.3503 58.7C84.152 58.8392 83.912 58.9062 83.6703 58.89C83.3503 58.8 83.3103 58.53 83.2403 58.33C83.0723 57.5287 83.0723 56.7013 83.2403 55.9L83.4003 54.7L83.5203 53.7L83.6003 52.85C83.7203 51.85 83.8203 51.56 84.2203 51.3C84.3003 51.24 84.3803 51.16 84.4603 51.11C84.6903 50.91 85.1603 51.43 85.2003 52.32C85.2506 52.9256 85.2506 53.5344 85.2003 54.14L85.1003 55.03L85.0503 55.47V55.57C85.0503 55.62 85.1203 55.57 85.1203 55.57L85.2103 55.46L85.6403 54.91L86.5403 53.79L86.9403 53.31C87.0803 53.13 87.2303 52.98 87.3803 52.81C87.6405 52.5341 87.9533 52.3131 88.3003 52.16L88.2203 52.25Z" fill="#231F20"/>
<path d="M79.16 97.71L70.67 98.54L67.57 98.88C63.93 99.22 60.27 99.49 56.57 99.68L51.7 99.89C50.7 99.89 49.62 99.97 48.58 99.97C47.54 99.97 46.5 99.85 45.47 99.77C44.83 99.71 44.91 99.64 45.47 99.51C46.03 99.38 47.02 99.13 48.2 98.96C52.4 98.74 56.58 98.34 60.82 98.17C63.36 98.04 65.99 97.69 68.57 97.41L77.12 96.48C78.88 96.3 80.61 96.12 82.34 95.83L90.23 94.5C92.23 94.15 94.23 93.76 96.31 93.5L97.66 93.35C99.36 93.22 99.91 93.35 100.27 93.76C100.358 93.8457 100.439 93.9394 100.51 94.04C100.67 94.36 99.99 94.64 98.79 94.77C95.23 95.18 91.49 95.77 87.7 96.44C84.89 96.91 82.04 97.44 79.14 97.73L79.16 97.71Z" fill="#231F20"/>
<path d="M31.0002 45.43C31.0002 41.04 30.8402 36.65 30.4702 32.2899C30.3302 30.6999 30.1002 29.12 29.9002 27.54C29.5798 24.7751 29.0414 22.04 28.2902 19.36C27.9419 18.0843 27.3989 16.87 26.6802 15.7599C26.3992 15.3269 25.985 14.997 25.5002 14.8199C25.0091 14.7723 24.5185 14.9155 24.1302 15.2199C23.2782 15.9476 22.6679 16.9172 22.3802 17.9999C22.0268 19.1625 21.7759 20.3537 21.6302 21.5599C21.5802 21.9499 21.5302 22.3399 21.4902 22.7299V23.2599V23.3799C21.4902 23.3799 21.5602 23.3799 21.6002 23.3799H22.6502C24.3032 23.3926 25.9497 23.5871 27.5602 23.9599C28.6302 24.2899 28.2502 24.7599 27.3502 25.0999C26.0007 25.595 24.5661 25.816 23.1302 25.7499L21.7702 25.7C21.3602 25.7 20.9402 25.7 20.5502 25.62C20.3659 25.6023 20.1846 25.562 20.0102 25.4999L19.8402 25.3499L19.7302 25.1499L19.6002 24.9999V24.95C19.2502 25.24 19.5002 25.0299 19.4202 25.0899V24.9699L19.3302 24.4799C19.2416 24.1535 19.1913 23.818 19.1802 23.4799L19.3002 22.3799L19.3902 21.7499C19.5964 20.0019 20.0162 18.2858 20.6402 16.6399C20.9934 15.7075 21.5231 14.8519 22.2002 14.1199C22.5948 13.7046 23.0626 13.3656 23.5802 13.1199C23.8469 12.9861 24.129 12.8853 24.4202 12.8199C24.8995 12.6961 25.4008 12.6831 25.886 12.7818C26.3711 12.8806 26.8274 13.0886 27.2202 13.3899C27.6505 13.7172 28.0282 14.1084 28.3402 14.5499C28.8381 15.3149 29.241 16.1376 29.5402 16.9999C30.2316 18.9575 30.7797 20.9628 31.1802 22.9999C31.6002 24.9999 31.9302 27.0599 32.1802 29.0899C32.6902 33.5499 32.9302 38.02 33.0302 42.49C33.0902 45.24 33.0302 48 33.0302 50.74C32.9602 54.91 32.7202 59.0799 32.4202 63.2099C32.1802 66.41 31.9702 69.5599 31.5102 72.7399C31.4102 73.4299 31.3202 74.1199 31.1802 74.82C30.6602 77.42 30.1802 78.2099 29.5202 78.5799C29.3685 78.6729 29.2077 78.75 29.0402 78.8099C28.5302 78.8999 28.5502 77.81 28.8702 75.98C29.7511 70.2545 30.3286 64.4864 30.6002 58.7C30.8302 54.2999 30.9502 49.8599 30.9002 45.4399L31.0002 45.43Z" fill="#231F20"/>
<path d="M24.1402 113.67C24.578 114.117 25.1055 114.467 25.688 114.697C26.2705 114.926 26.8949 115.029 27.5202 115C27.7572 115.002 27.9932 114.968 28.2202 114.9C28.4547 114.85 28.6853 114.783 28.9102 114.7C30.6507 114.085 32.1406 112.915 33.1502 111.37C33.6539 110.661 34.1051 109.915 34.5002 109.14C34.9784 108.099 35.5686 107.113 36.2602 106.2C36.4902 105.92 36.7202 106.12 36.8402 106.53C36.9987 107.079 36.9777 107.664 36.7802 108.2C36.3321 109.284 35.804 110.334 35.2002 111.34C34.5823 112.416 33.8146 113.4 32.9202 114.26C31.8228 115.438 30.4212 116.289 28.8702 116.72C27.4615 117.085 25.97 116.954 24.6462 116.35C23.3224 115.745 22.2469 114.704 21.6002 113.4C20.9206 111.972 20.6737 110.377 20.8902 108.81C20.9788 107.653 21.1934 106.51 21.5302 105.4C21.6002 105.16 21.6702 104.93 21.7502 104.69C22.1002 103.83 22.3602 103.61 22.6502 103.5L22.8402 103.43C23.0402 103.43 23.0702 103.82 23.0202 104.51C22.6391 106.415 22.498 108.36 22.6002 110.3C22.6862 110.936 22.8543 111.558 23.1002 112.15C23.3648 112.707 23.7273 113.211 24.1702 113.64L24.1402 113.67Z" fill="#231F20"/>
<path d="M61.4003 118.68C59.9003 118.68 58.4003 118.79 56.9003 118.89L55.2703 119.03C53.3403 119.16 51.4003 119.25 49.4803 119.42C48.6203 119.49 47.7703 119.62 46.9303 119.75C46.3903 119.84 45.8603 119.97 45.3103 120.03C44.7603 120.09 44.2203 120.11 43.6703 120.11C43.3203 120.11 43.3203 119.84 43.5603 119.51C43.888 119.05 44.3486 118.701 44.8803 118.51C47.0925 118.05 49.3415 117.789 51.6003 117.73C52.9603 117.73 54.3503 117.46 55.7303 117.35C57.1103 117.24 58.7303 117.13 60.2903 117.04L63.1003 117L67.3503 116.83C68.4503 116.83 69.5303 116.61 70.6303 116.6C70.8703 116.6 71.1203 116.6 71.3603 116.6C71.6003 116.6 71.7803 116.6 71.9403 116.67C72.0787 116.71 72.2102 116.771 72.3303 116.85C72.5039 116.946 72.6357 117.103 72.7003 117.29C72.7372 117.364 72.7673 117.441 72.7903 117.52C72.7903 117.74 72.4303 117.92 71.7903 118.06C69.8401 118.352 67.8721 118.509 65.9003 118.53L61.3803 118.74L61.4003 118.68Z" fill="#231F20"/>
<path d="M25.22 75.58C25.96 71.58 26.58 67.49 26.99 63.41C27.13 61.91 27.26 60.41 27.37 58.93C27.84 53.67 28.1 48.38 28.13 43.09C28.13 40.74 28.05 38.38 27.93 36.09C27.76 33.09 27.56 30.09 27.48 27.09C27.48 26.16 27.8 26.25 28.22 27.01C28.8305 28.2341 29.2134 29.559 29.35 30.92C29.52 32.46 29.65 33.99 29.77 35.53C29.89 37.07 29.89 38.62 29.93 40.16C29.97 41.7 29.93 43.25 29.93 44.8C29.93 46.35 29.81 47.9 29.76 49.46C29.62 51.31 29.57 53.21 29.48 55.11C29.39 57.01 29.29 58.93 29.09 60.82C28.67 64.98 28.14 69.14 27.39 73.25L26.7 77L25.85 80.76C25.47 82.67 24.92 84.54 24.41 86.42C24.14 87.36 23.93 88.31 23.62 89.23C23.31 90.15 23 91.1 22.73 92C22.29 93.44 21.87 94.86 21.33 96.25C20.79 97.64 20.33 99.04 19.8 100.43L19 102.23C17.9 104.42 17.46 105.08 17 105.43C16.9009 105.515 16.7974 105.595 16.69 105.67C16.43 105.79 16.69 104.81 17.28 103.14C19.17 98.22 20.95 93 22.45 87.66C22.94 85.66 23.51 83.66 23.95 81.66C24.39 79.66 24.86 77.66 25.19 75.58H25.22Z" fill="#231F20"/>
</svg>
