<svg width="128" height="128" viewBox="0 0 128 128" fill="none" xmlns="http://www.w3.org/2000/svg">
<path d="M73.7 44.6C73.65 44 73.59 43.4 73.54 42.8C73.52 42.58 73.42 42.38 73.4 42.17C73.32 41.39 73.17 40.63 72.98 39.87C72.9 39.53 72.75 39.22 72.6 38.91C72.44 38.5 72.28 38.08 72.18 37.61C72.15 37.46 72.24 37.42 72.42 37.44C72.6 37.46 72.94 37.5 73.2 37.66C73.42 37.81 73.62 37.97 73.83 38.13C74.02 38.3 74.14 38.52 74.29 38.71C74.57 39.12 74.79 39.56 74.87 40.06C74.99 40.64 75.31 41.17 75.5 41.73C75.7 42.35 75.85 42.98 75.95 43.62C76.01 44.01 76.08 44.4 76.14 44.79C76.24 45.38 76.29 45.97 76.45 46.54C76.53 46.99 76.78 47.4 76.85 47.84C76.86 47.94 76.89 48.03 76.89 48.13C76.89 48.32 76.84 48.45 76.71 48.56C76.6 48.67 76.46 48.74 76.28 48.81C76.2 48.84 76.12 48.88 76.05 48.9C75.82 48.97 75.52 48.87 75.17 48.66C74.98 48.48 74.81 48.31 74.65 48.14C74.48 47.97 74.4 47.77 74.29 47.59C74.19 47.4 74.09 47.21 74.02 47.02C73.97 46.82 73.94 46.62 73.9 46.42C73.8 45.82 73.75 45.22 73.65 44.62L73.71 44.6H73.7Z" fill="#231F20"/>
<path d="M46.1998 47.62C46.1998 47.62 47.7098 40.56 48.6298 39.93C49.9498 39.02 52.5998 38.18 56.8998 37.88C60.7298 37.61 65.3498 38.03 66.2598 37.73C68.8498 36.87 67.9098 36.18 67.9098 36.18C67.9098 36.18 51.8998 33.4 46.2998 37.4C42.7098 39.96 43.2098 47.63 43.2098 47.63H46.2098L46.1998 47.62Z" fill="#231F20"/>
<path d="M56.74 37.16C54.91 37.2 53.07 37.36 51.24 37.6C50.57 37.68 49.9299 37.88 49.2699 37.98C48.6899 38.08 48.1199 38.19 47.5599 38.31C47.3899 38.34 47.3399 38.33 47.2199 38.37C47.1399 38.42 47.0899 38.52 47.0199 38.64C46.5499 39.65 46.0599 40.79 45.6299 41.9C45.2399 42.89 44.9999 43.94 44.7199 44.95C44.38 46.26 44.2499 47.58 43.5699 48.83C43.3499 49.22 43.1299 49.16 42.7599 48.75C42.3799 48.34 41.7899 47.54 41.8199 46.69C42.0699 43.73 42.98 40.99 44.31 38.36L44.6199 37.76C44.7499 37.53 44.8899 37.14 45.0999 36.87C45.1999 36.72 45.2999 36.58 45.4099 36.44C45.5599 36.35 45.7199 36.27 45.8799 36.19C46.1999 36.07 46.5799 35.9 46.8499 35.83C47.7399 35.58 48.61 35.37 49.49 35.22C51.42 34.89 53.3499 34.7 55.2899 34.58C56.4799 34.51 57.6799 34.49 58.8699 34.48C60.6799 34.5 62.5 34.59 64.2899 34.76C64.99 34.8 65.6899 34.86 66.3899 34.92C67.0899 34.95 67.7899 35.04 68.4899 35.17C68.7999 35.22 69.1099 35.24 69.4199 35.32C70.5499 35.67 70.7699 36.17 70.7899 36.78C70.7899 36.92 70.8099 37.06 70.7899 37.18C70.7599 37.39 70.6099 37.53 70.3499 37.65C70.0899 37.77 69.7199 37.9 69.3199 37.88C67.0099 37.69 64.6799 37.33 62.2299 37.21C60.4199 37.09 58.5699 37.12 56.7299 37.21V37.14L56.74 37.16Z" fill="#231F20"/>
<path d="M26.0602 49.25C26.0602 49.25 25.6802 44.44 27.7302 43.29C29.7302 42.17 25.2602 41.75 24.6802 45.02C24.0902 48.29 24.6802 49.25 24.6802 49.25H26.0602Z" fill="#231F20"/>
<path d="M29.0699 43.97C28.8399 43.66 28.0399 43.54 27.4999 43.7C27.3999 43.74 27.2999 43.77 27.2099 43.84C27.1199 43.91 27.0399 43.98 26.9299 44.03C26.2399 44.52 25.6599 45.53 25.4199 46.63C25.2899 47.11 25.2799 47.63 25.2799 48.13C25.2399 48.78 25.3699 49.4 25.1899 50.09C25.1499 50.31 25.0099 50.32 24.7599 50.2C24.6299 50.14 24.4599 50.04 24.2799 49.9C24.0899 49.77 23.9299 49.59 23.8799 49.38C23.7699 49.01 23.6899 48.64 23.6299 48.26C23.5899 47.88 23.5999 47.5 23.6299 47.12C23.6899 46.36 23.8599 45.59 24.2099 44.86C24.6099 44.01 25.0099 43 25.9099 42.3C26.3899 41.92 26.9799 41.68 27.5699 41.56C27.8599 41.52 28.1499 41.51 28.4499 41.49C28.7499 41.51 29.0499 41.53 29.3499 41.6C30.0999 41.76 30.7799 42.26 31.2299 42.81C31.9299 43.68 32.1399 44.68 32.3599 45.59C32.5199 46.31 32.7499 47.01 32.8499 47.74C32.8699 47.9 32.9099 48.06 32.8999 48.23C32.8599 48.84 32.6299 49.03 31.9499 49.04C31.8199 49.04 31.6999 49.06 31.5999 49.06C31.3399 49.06 30.6899 48.74 30.5899 48.39C30.1499 47.31 30.0799 46.24 29.7799 45.35C29.5499 44.7 29.3299 44.25 29.0599 44.03L29.0899 43.98L29.0699 43.97Z" fill="#231F20"/>
<path d="M60.1801 115.72C62.7001 115.7 65.2301 115.62 67.7501 115.49C68.6701 115.45 69.5901 115.34 70.5001 115.29C73.7401 115.09 76.9801 114.85 80.2101 114.48C81.6401 114.33 83.0801 114.14 84.5001 113.93C85.4101 113.8 86.3101 113.61 87.2301 113.53C88.1401 113.42 89.0601 113.33 90.0001 113.35C90.5801 113.35 90.5001 113.33 90.0401 113.52C89.8101 113.62 89.4901 113.78 89.1001 114C88.7101 114.19 88.2401 114.37 87.7301 114.52C84.0601 115.45 80.3001 115.92 76.5001 116.15C74.2301 116.3 71.8701 116.57 69.5501 116.72C67.0001 116.89 64.4401 116.98 61.8801 117.05C60.3101 117.08 58.7301 117.11 57.1601 117.11C54.7801 117.13 52.3801 117.08 50.0201 117.07C48.1901 117.04 46.3801 117.02 44.5601 116.99C44.1601 116.99 43.7701 116.96 43.3701 116.93C41.8801 116.8 41.4101 116.69 41.1001 116.44C41.0301 116.38 40.9401 116.33 40.9001 116.27C40.7701 116.1 41.3801 115.97 42.4801 115.91C44.1001 115.81 45.7701 115.76 47.4501 115.74C49.1301 115.69 50.8401 115.69 52.5501 115.71C55.0901 115.71 57.6401 115.73 60.1801 115.67V115.7V115.72Z" fill="#231F20"/>
<path d="M69.5998 116.14C21.4198 119.48 1.07977 111.12 4.56977 105.97C6.38977 103.27 17.9398 101.44 18.8798 101.47C18.8798 101.47 17.7198 106.51 23.3698 109.73C29.0198 112.95 62.0098 116.07 65.7998 115.23C69.5898 114.39 69.5998 116.14 69.5998 116.14Z" fill="#231F20"/>
<path d="M34.3401 86.67C34.0001 85.01 33.8601 83.29 33.9301 81.62L33.9601 80.37L34.0901 79.12C34.1501 78.29 34.3201 77.46 34.4801 76.64C34.5701 76.04 34.7501 75.45 34.8901 74.86L35.1201 73.97L35.4401 73.11C35.7901 72.09 36.3001 71.14 36.7901 70.18C37.3701 69.27 37.9001 68.33 38.6001 67.52C39.2301 66.65 40.0101 65.91 40.7501 65.15C41.5701 64.47 42.3501 63.74 43.2501 63.17C44.7701 62.06 46.4701 61.23 48.1501 60.46C49.2701 60.06 50.3701 59.57 51.5501 59.37C52.1301 59.24 52.7101 59.09 53.3101 59.09L54.2001 59.05C54.5001 59.05 54.8001 59.09 55.1001 59.11C55.8501 59.2 55.7401 59.16 55.1701 59.49C54.6101 59.89 53.5901 60.53 52.4101 61.03C48.0701 62.34 44.0101 64.4 40.9401 67.74C39.0701 69.71 37.8601 72.35 37.1201 75.02C36.2901 77.96 36.0501 81.12 36.3501 84.17C36.5601 86.05 37.0001 87.92 37.7001 89.69C38.7201 92.39 40.3901 94.86 42.4501 96.86C44.0801 98.4 45.9801 99.55 47.9401 100.53C48.3901 100.73 48.8301 100.9 49.2601 101.13C50.9001 101.9 51.3401 102.37 51.5601 102.93C51.6101 103.06 51.6901 103.2 51.7001 103.31C51.7601 103.67 50.9401 103.69 49.5101 103.43C47.4601 102.88 45.4501 101.91 43.6001 100.63C41.7501 99.36 40.0101 97.8 38.6001 95.96C36.4801 93.24 35.0401 90.02 34.2901 86.67L34.3501 86.65L34.3401 86.67Z" fill="#231F20"/>
<path d="M66.81 85.04C67.87 83.27 64.2 78.3 60.73 81.34C56.84 84.74 61.16 89.85 64.16 88.93C64.16 88.93 57.13 93.7 53.13 88.38C49.13 83.06 50.8 78.81 52.52 76.73C54.24 74.65 56.71 72.9 59.35 73.52C61.99 74.14 64.44 72.67 66.68 77.28C68.92 81.89 68.37 82.84 67.79 84.83C67.21 86.82 66.8 85.04 66.8 85.04H66.81Z" fill="#231F20"/>
<path d="M96.8 61.38C88.34 64.22 84.14 56.36 84.14 56.36C84.14 56.36 82.15 60.62 83.96 61.58C83.96 61.58 86.47 62.7 89.96 62.9C93.45 63.1 96.8 61.38 96.8 61.38Z" fill="#231F20"/>
<path d="M20.0199 57.31C18.2299 62.14 17.5299 67.51 17.2399 72.83C16.9699 78.17 17.1799 83.57 17.7999 88.91C18.2499 92.8 19.0099 96.67 20.0399 100.38C20.4999 102.01 21.0099 103.64 21.6899 105.12L22.2199 106.2C22.4199 106.52 22.6099 106.87 22.8199 107.17C23.2499 107.79 23.6299 108.13 24.2299 108.49C25.5399 109.18 27.1999 109.69 28.8399 110.1C30.4899 110.52 32.1799 110.86 33.8899 111.15C40.7299 112.31 47.7099 112.89 54.6899 113.23C60.8899 113.51 67.1399 113.48 73.2799 113.16C81.1699 112.74 89.0399 111.74 96.6499 110.15C97.8599 109.99 98.4299 109.96 98.4399 110.08C98.4499 110.21 97.9399 110.52 97.0599 111.23C95.2999 112.63 91.5499 114.32 86.9299 115.01C78.7399 116.18 70.5499 116.48 62.3599 116.41C54.1699 116.31 45.9699 115.81 37.7799 114.65C35.3299 114.29 32.8599 113.9 30.3699 113.39C27.8699 112.85 25.3899 112.33 22.8099 111.06C22.4799 110.85 22.1399 110.65 21.8199 110.43C21.5199 110.16 21.1899 109.88 20.9399 109.59C20.7099 109.3 20.4599 109 20.2599 108.71L19.6999 107.81C19.0399 106.6 18.4899 105.38 18.0599 104.15C17.1699 101.69 16.5299 99.19 16.0299 96.69C14.9299 91.19 14.3799 85.64 14.2199 80.07C14.0799 74.5 14.3499 68.9 15.3699 63.37C15.9999 59.97 16.9399 56.59 18.5299 53.42C18.7099 53.02 18.9599 52.64 19.1799 52.25C19.3999 51.87 19.6199 51.48 19.8999 51.12L20.2899 50.57C20.4099 50.41 20.5899 50.1 20.8399 49.91C21.0799 49.71 21.3699 49.56 21.6499 49.44C21.9099 49.33 22.1199 49.27 22.3499 49.19C24.0999 48.68 25.7799 48.44 27.4799 48.18C37.7399 46.84 48.0599 46.45 58.2799 46.33C66.2199 46.28 74.0099 46.34 81.8699 47.04C83.5999 47.19 85.2999 47.35 87.0399 47.59C90.2599 48.05 92.3799 48.49 93.8199 48.98C95.2399 49.56 96.0199 50.03 96.6099 50.51C96.8799 50.74 97.2399 50.98 97.3799 51.14C97.6199 51.43 97.0799 51.48 95.8999 51.42C95.3099 51.39 94.5599 51.34 93.6599 51.29C92.7599 51.27 91.7499 51.05 90.5999 50.9C83.7799 49.9 76.6599 49.45 69.4399 49.23C62.2199 49.02 54.8699 49.07 47.5199 49.38C42.0699 49.62 36.5899 49.94 31.1899 50.59C29.8399 50.76 28.4999 50.94 27.1699 51.15C25.8599 51.37 24.5099 51.61 23.3699 51.95C23.1299 52.01 22.7399 52.17 22.7999 52.14C22.7999 52.14 22.7899 52.14 22.7799 52.15C22.7799 52.15 22.7799 52.15 22.7599 52.18L22.6799 52.3L22.1599 53.05C21.9899 53.31 21.8499 53.59 21.6899 53.85C21.0599 54.92 20.5599 56.1 20.0999 57.3H20.0299L20.0199 57.31Z" fill="#231F20"/>
<path d="M104.84 74.96C104.87 76.35 104.84 77.74 104.84 79.13L104.71 83.3C104.66 84.31 104.67 85.33 104.6 86.34C104.32 89.91 103.8 93.46 103.04 96.97C102.75 98.53 102.38 100.09 101.99 101.63C101.72 102.61 101.38 103.58 101.05 104.55C100.68 105.5 100.03 106.36 99.43 107.19C99.04 107.7 98.97 107.56 98.93 106.95C98.9 106.56 98.86 106.14 98.83 105.72C98.8 105.23 98.85 104.7 98.94 104.15C99.95 100.37 100.69 96.49 101.43 92.51C101.68 91.32 101.76 90.08 101.84 88.84C101.95 87.6 101.96 86.34 102.02 85.1C102.17 82.37 102.21 79.62 102.17 76.87C102.17 75.18 102.08 73.49 102.01 71.8C101.84 69.24 101.68 66.67 101.3 64.16C101.01 62.2 100.5 60.33 100.01 58.45C99.91 58.04 99.78 57.64 99.7 57.22C99.63 56.83 99.57 56.51 99.52 56.24C99.49 55.97 99.52 55.73 99.55 55.54C99.61 55.15 99.79 54.88 100.05 54.63C100.17 54.52 100.27 54.38 100.37 54.3C100.69 54.04 101.37 54.54 101.97 55.66C102.34 56.51 102.62 57.37 102.93 58.26C103.18 59.15 103.37 60.06 103.57 60.97C103.93 62.8 104.2 64.67 104.39 66.55C104.7 69.34 104.82 72.15 104.93 74.96H104.86H104.84Z" fill="#231F20"/>
<path d="M36.3801 75.44C37.2701 71.69 39.1001 68.06 41.8201 65.27C44.5301 62.46 47.9701 60.46 51.6101 59.31C54.2701 58.48 57.0501 57.94 59.8401 58.03C62.2901 58.09 64.7501 58.44 67.0801 59.23C68.2701 59.54 69.3701 60.12 70.5001 60.59C71.5901 61.16 72.6601 61.78 73.6501 62.51C75.6401 63.96 77.3601 65.75 78.7501 67.76C80.1301 69.77 81.1701 71.99 81.8901 74.29C83.1601 78.38 83.4801 82.77 82.7001 86.95C82.2101 89.63 81.3201 92.27 79.9001 94.63C79.5601 95.23 79.1501 95.79 78.7501 96.35C78.3001 96.88 77.8801 97.42 77.3801 97.89C76.9101 98.39 76.3801 98.83 75.8501 99.27C75.6001 99.5 75.2801 99.66 75.0001 99.85C74.7001 100.03 74.4401 100.24 74.1201 100.37C72.5701 101.09 72.7201 100.81 73.5601 99.64C74.3701 98.4 75.7101 96.35 77.1001 93.98C79.7101 89.82 80.6501 84.68 80.1501 79.76C79.6501 74.83 77.6301 69.99 74.0901 66.45C73.0301 65.4 71.8201 64.47 70.5101 63.69C69.8401 63.33 69.1701 62.96 68.4401 62.69C67.7301 62.39 67.0101 62.09 66.2501 61.91C63.2601 61.03 60.0801 60.79 56.9801 61.09C53.5701 61.43 50.2201 62.49 47.3101 64.31C44.4201 66.14 42.0401 68.75 40.5201 71.84C38.6801 75.63 37.9301 80.09 38.3301 84.35C38.6501 87.59 39.6401 90.78 41.4201 93.51C43.1501 96.27 45.7001 98.46 48.5101 100.1C52.8801 102.67 57.9901 103.66 62.8401 102.95C63.3801 102.91 63.8901 102.74 64.4201 102.65C64.9501 102.56 65.4601 102.39 65.9801 102.24C66.4601 102.1 66.9101 101.99 67.3001 101.83C67.7001 101.7 68.0701 101.59 68.4101 101.49C69.0801 101.28 69.6101 101.06 70.0701 100.94C70.5401 100.83 70.9001 100.71 71.2301 100.66C71.5601 100.62 71.8501 100.62 72.1201 100.63C72.3601 100.63 72.6601 100.6 72.8201 100.63C73.0801 100.67 72.8801 100.96 72.3301 101.57C71.8001 102.23 70.7501 102.94 69.2901 103.7C64.9101 105.83 59.5701 106.33 54.5701 105.18C52.0701 104.61 49.6401 103.63 47.4101 102.32C45.1801 101 43.1201 99.41 41.3301 97.43C38.6701 94.52 36.8601 90.84 36.1101 87.01C35.3401 83.17 35.4501 79.2 36.3201 75.45H36.3901L36.3801 75.44Z" fill="#231F20"/>
<path d="M49.8902 79.41C50.2302 77.83 51.0702 76.31 52.1902 75.15C53.3202 73.97 54.7202 73.13 56.2102 72.63C57.3002 72.27 58.4302 72 59.5802 72.01C61.6002 72.06 63.6602 72.76 65.2202 74.01C66.8002 75.25 67.9202 76.93 68.5502 78.74C69.1002 80.35 69.3502 82.1 69.0502 83.8C68.9102 84.34 68.8602 84.9 68.6102 85.41L68.2902 86.19C68.1702 86.44 68.0002 86.67 67.8502 86.91C67.6902 87.14 67.5502 87.39 67.3602 87.59L66.7302 88.14C66.3402 88.54 65.8202 88.76 65.2902 88.92C64.6002 89.08 64.6402 88.88 64.7802 88.19C64.8502 87.85 64.9102 87.36 65.0602 86.96C65.1602 86.5 65.2702 86.05 65.5102 85.69C67.1402 83.08 66.5502 79.33 64.3502 76.77C63.6602 76.06 62.8002 75.41 61.7902 75.17C60.8102 74.9 59.7402 74.81 58.6702 74.92C56.3502 75.13 54.0702 76.43 52.9702 78.53C52.3102 79.8 52.0502 81.41 52.1702 82.9C52.1802 83.48 52.3702 84.03 52.4902 84.59C52.7102 85.12 52.9002 85.67 53.2302 86.15C53.8302 87.13 54.6602 87.99 55.6902 88.52C57.2502 89.42 59.1102 89.46 60.7502 89.03C61.1102 88.91 61.4702 88.85 61.8202 88.67C63.1602 88.23 63.6502 88.15 64.2702 88.56C64.4002 88.63 64.5502 88.68 64.6402 88.74C64.7902 88.84 64.7602 89.02 64.6202 89.38C64.4802 89.75 64.1202 90.13 63.5902 90.52C61.9502 91.57 59.7802 91.99 57.6502 91.69C55.5002 91.37 53.4702 90.19 52.0402 88.51C50.9602 87.28 50.1602 85.78 49.8302 84.18C49.5002 82.59 49.5102 80.93 49.8502 79.38H49.9102L49.8902 79.41Z" fill="#231F20"/>
<path d="M92.5299 64.44C91.1699 64.44 89.8299 64.34 88.4999 64.19C88.0099 64.13 87.5199 64.14 87.0299 64.05C86.4099 63.93 85.7899 63.79 85.1699 63.6C84.8599 63.51 84.5399 63.41 84.2299 63.27C84.0999 63.22 83.8499 63.1 83.6399 63C83.4199 62.9 83.2499 62.76 83.0499 62.65L82.8699 62.47L82.7799 62.38C82.8299 62.29 82.7599 62.29 82.7499 62.24C82.6699 62.1 82.6199 61.94 82.5799 61.77C82.5199 61.44 82.5299 61.02 82.5299 60.74C82.5599 59.97 82.5799 59.21 82.6099 58.45C82.6199 57.96 82.6899 57.47 82.8099 56.97C82.8999 56.47 83.1899 55.98 83.5999 55.58C83.8699 55.33 84.0499 55.56 84.2799 55.93C84.4199 56.16 84.5699 56.38 84.6899 56.58C84.7599 56.69 84.8599 56.82 84.8999 56.94C84.9399 57.05 84.9599 57.16 84.9499 57.28C84.9199 57.64 84.9499 58.03 84.9199 58.41L84.8399 59.58C84.8199 59.96 84.7999 60.35 84.7799 60.74C84.7599 60.76 84.6599 60.88 84.6999 60.96C84.6999 61.01 84.7299 61.04 84.7499 61.09C84.7499 61.12 84.8699 61.17 84.9799 61.23C85.0899 61.28 85.2099 61.32 85.3299 61.36C85.5799 61.44 85.8399 61.49 86.0999 61.53C86.6399 61.61 87.1899 61.64 87.7499 61.7C88.9699 61.81 90.2299 61.87 91.4699 61.84C92.2399 61.83 93.0099 61.8 93.7499 61.7L94.5299 61.58C94.6899 61.56 94.8599 61.52 95.0199 61.47C95.1699 61.42 95.3799 61.33 95.3599 61.14C95.3599 60.97 95.3599 60.8 95.3399 60.63L95.2999 60.37L95.2299 60.05C95.1799 59.83 95.1199 59.62 95.0599 59.41C94.9599 58.99 94.8399 58.57 94.7299 58.17C94.6799 57.99 94.5999 57.83 94.5899 57.65C94.5499 57.31 94.5499 57.09 94.6299 56.9C94.7199 56.7 94.8799 56.54 95.0699 56.36L95.2799 56.14C95.3899 56.04 95.5299 56.04 95.7899 56.08C96.0699 56.12 96.3299 56.28 96.5499 56.54C97.2499 57.29 97.5999 58.2 97.9199 59.1C97.9699 59.33 97.9999 59.56 98.0399 59.8L98.0799 60.15L98.1199 60.63C98.1499 61.48 98.1999 62.36 97.6699 62.96C97.3499 63.45 96.8099 63.75 96.2199 63.97C95.9299 64.08 95.6099 64.15 95.2999 64.24L94.9299 64.31L94.6499 64.35C93.9199 64.45 93.2299 64.5 92.5399 64.54V64.47L92.5299 64.44Z" fill="#231F20"/>
<path d="M56.7899 66.04C56.7799 66.33 56.7699 66.63 56.7599 66.92C56.7599 67.03 56.7999 67.12 56.7999 67.23C56.7799 67.61 56.7499 68 56.7599 68.37C56.7599 68.54 56.8199 68.69 56.8699 68.85C56.9399 69.05 57.0699 69.23 56.9899 69.47C56.9399 69.62 55.7599 69.79 55.6399 69.57C55.4499 69.17 55.3299 68.75 55.3899 68.28C55.4199 68 55.2699 67.76 55.2199 67.49C55.1599 67.2 55.1299 66.9 55.1099 66.6C55.0999 66.42 55.0799 66.23 55.0699 66.05C55.0399 65.77 55.0299 65.5 54.9599 65.23C54.9199 65.02 54.7599 64.84 54.6899 64.64C54.6899 64.59 54.6699 64.55 54.6699 64.5C54.6899 64.32 54.8199 64.24 55.1399 64.15L55.3499 64.09C55.5699 64.03 55.8199 64.06 55.9999 64.16C56.1399 64.24 56.2599 64.32 56.3599 64.38C56.4299 64.46 56.4999 64.55 56.5499 64.63C56.6599 64.8 56.7499 64.98 56.7699 65.17C56.8199 65.45 56.8199 65.74 56.8499 66.03H56.8099L56.7899 66.04Z" fill="#231F20"/>
<path d="M47.6801 72.18C47.9001 72.35 48.1301 72.51 48.3501 72.68C48.4301 72.74 48.5301 72.75 48.6101 72.81C48.8901 73.04 49.1701 73.24 49.4301 73.5C49.5501 73.6 49.6801 73.67 49.8201 73.74C49.9901 73.82 50.1801 73.88 50.3001 74.08C50.3401 74.14 50.2401 74.32 50.1001 74.5C49.9601 74.67 49.7801 74.86 49.6601 74.85C49.2601 74.81 48.8601 74.78 48.5701 74.49C48.4001 74.3 48.1501 74.28 47.9301 74.18C47.7001 74.06 47.4701 73.94 47.2401 73.81C47.1001 73.74 46.9501 73.66 46.8101 73.59C46.5901 73.47 46.3801 73.34 46.1501 73.27C45.9701 73.22 45.7601 73.27 45.5801 73.24C45.5401 73.24 45.5001 73.24 45.4601 73.23C45.3201 73.18 45.3101 73.04 45.3901 72.7L45.4401 72.46C45.5101 72.2 45.6401 71.99 45.7901 71.91C46.0001 71.81 46.2201 71.72 46.4101 71.71C46.6001 71.71 46.7801 71.76 46.9501 71.81C47.2101 71.89 47.4601 72 47.6901 72.15V72.19L47.6801 72.18Z" fill="#231F20"/>
<path d="M45.6102 77.99C45.7702 78.1 45.9302 78.21 46.0902 78.3C46.1502 78.33 46.2202 78.33 46.2702 78.37C46.4702 78.51 46.6802 78.64 46.8702 78.8C46.9602 78.86 47.0502 78.89 47.1502 78.92C47.2702 78.95 47.4102 78.95 47.5002 79.09C47.5602 79.17 47.2602 79.85 47.1002 79.92C46.8202 79.97 46.5602 80.01 46.3402 79.83C46.2102 79.7 46.0402 79.74 45.8902 79.69C45.7302 79.64 45.5702 79.57 45.4002 79.5C45.3002 79.46 45.2002 79.41 45.1002 79.37C44.9502 79.31 44.8002 79.23 44.6402 79.21C44.5102 79.21 44.3802 79.27 44.2502 79.28C44.2202 79.28 44.2002 79.28 44.1702 79.28C44.0802 79.23 44.0602 79.12 44.0902 78.8L44.1102 78.59C44.1402 78.36 44.2102 78.16 44.3102 78.06C44.6002 77.72 44.8402 77.75 45.0802 77.79C45.2602 77.83 45.4302 77.88 45.6002 77.96V78L45.6102 77.99Z" fill="#231F20"/>
<path d="M88.6198 36.54L86.8598 31.27L81.7798 29.12V28.91L87.0398 27.1L88.7998 21.54C88.7998 21.54 88.8498 21.51 88.8598 21.54L90.5698 27.15L95.5298 29.09V29.3L90.7498 31.2L88.6198 36.54Z" fill="#231F20"/>
<path d="M106.64 27.96L104.66 22.04L98.9502 19.63V19.4L104.85 17.37L106.82 11.13C106.82 11.13 106.88 11.1 106.89 11.13L108.81 17.43L114.38 19.61V19.84L109.02 21.97L106.63 27.97L106.64 27.96Z" fill="#231F20"/>
<path d="M116.59 41.22L114.75 35.71L109.44 33.46V33.25L114.94 31.36L116.78 25.54C116.78 25.54 116.83 25.51 116.84 25.54L118.63 31.4L123.82 33.43V33.65L118.82 35.64L116.59 41.23V41.22Z" fill="#231F20"/>
</svg>
