<?xml version="1.0" encoding="UTF-8"?><svg id="Layer_1" xmlns="http://www.w3.org/2000/svg" width="128" height="128" viewBox="0 0 128 128"><defs><style>.cls-1{fill:#231f20;stroke-width:0px;}</style></defs><path class="cls-1" d="M83.58,38.22c-.62-1.18-1.24-2.37-1.91-3.53-.24-.42-.55-.81-.79-1.23-.86-1.49-1.61-3.07-2.49-4.56-.38-.67-.82-1.3-1.26-1.92-.27-.41-.6-.78-.83-1.21-.2-.46-.39-.93-.57-1.39-.1-.3.05-.36.4-.28.34.08.92.25,1.43.58.11.08.22.15.32.23l.24.29.47.58c.31.39.62.78.91,1.19.59.8,1.15,1.64,1.65,2.52.6,1.05,1.43,2,2.09,3.04.74,1.14,1.45,2.3,2.15,3.47l1.28,2.16c.64,1.09,1.24,2.23,1.91,3.3.27.41.55.82.85,1.21.31.38.6.79.83,1.22.11.19.24.36.33.56.34.75.24,1.08-.25,1.49-.11.09-.21.2-.33.27-.37.25-.92.15-1.35-.26-.61-.63-1.31-1.22-1.75-1.96-.49-.72-.95-1.47-1.41-2.24-.68-1.13-1.35-2.3-2-3.46l.06-.04Z"/><path class="cls-1" d="M98.95,61.67c-.17.3-.26.69-.31,1.09-.01.15.03.29.02.44.02.53.05,1.1.22,1.64.08.24.19.47.31.69.14.29.32.56.43.88.03.1-.07.17-.23.18-.16.01-.41-.01-.58-.15-.59-.49-.91-1.2-1.07-1.94-.09-.44-.24-.89-.27-1.36-.04-.51.02-1.05.17-1.55l.17-.46.24-.44c.27-.42.64-.78,1.03-1.05.3-.24.6-.45.94-.66.07-.03.14-.08.22-.11.29-.1.41-.03.54.32.03.08.06.16.08.24.07.28.01.54-.13.66-.45.33-.84.55-1.16.82-.25.19-.45.45-.6.76h-.03Z"/><path class="cls-1" d="M26.53,67.34c2.55.01,5.11.06,7.68.04l2.8-.09c3.3-.03,6.6-.06,9.9-.16,1.46-.06,2.93-.14,4.38-.23.93-.04,1.86-.18,2.8-.15.94.04,1.89.2,2.83.32.59.09.51.04.02.2-.24.08-.58.23-.99.44-.41.22-.89.46-1.42.63-3.77.76-7.59.87-11.45.87-2.31-.01-4.7.23-7.05.32-2.59.09-5.19.16-7.78.16l-4.8-.04c-2.42-.03-4.85-.13-7.27-.23-1.87-.09-3.73-.03-5.62-.4-.42-.09-.83-.13-1.25-.27-1.57-.47-2.07-1.06-2.01-1.68.01-.14.01-.27.06-.37.08-.16.3-.19.55-.17.14.01.29.03.46.04.17.03.37.07.62.11,1.43.3,3.11.2,4.74.33,1.66.1,3.36.15,5.08.2,2.55.06,5.12.11,7.7.09v.06Z"/><path class="cls-1" d="M13.38,76.83c.83,1.52,1.7,3.03,2.62,4.51.33.54.73,1.04,1.07,1.58,1.19,1.9,2.4,3.8,3.69,5.66.58.82,1.18,1.62,1.78,2.41.38.51.81.99,1.15,1.53.32.56.61,1.14.9,1.73.17.37.01.43-.39.32-.4-.12-1.14-.32-1.77-.76-.13-.1-.28-.2-.4-.31l-.34-.36-.66-.73c-.44-.49-.87-.98-1.29-1.49-.77-1.06-1.5-2.16-2.18-3.31-.81-1.37-1.87-2.63-2.78-3.97-.99-1.48-1.95-2.99-2.87-4.52-.57-.94-1.12-1.89-1.66-2.85-.84-1.44-1.58-2.94-2.38-4.39-.6-1.14-1.33-2.2-1.95-3.34-.14-.25-.27-.5-.36-.77-.16-.51-.23-.86-.18-1.14.07-.29.22-.49.45-.69.11-.09.2-.2.31-.26.18-.11.39-.1.64,0,.25.11.56.3.77.61l.51.68c.18.22.36.45.49.7.29.48.53.98.82,1.48.53,1.01,1.06,2.03,1.6,3.05.8,1.52,1.61,3.07,2.49,4.57l-.05.03Z"/><path class="cls-1" d="M9.41,61.12c.42-.61.89-1.2,1.37-1.77.19-.2.33-.43.52-.62.68-.68,1.4-1.29,2.11-1.9.31-.28.65-.51.96-.78.4-.33.82-.66,1.29-.91.15-.08.19,0,.17.18-.02.18-.07.5-.22.76-.28.46-.56.92-.86,1.35-.29.43-.72.73-1.11,1.08-.48.4-.82.95-1.2,1.45-.42.55-.86,1.08-1.27,1.65-.24.36-.49.71-.71,1.08-.34.56-.67,1.13-.92,1.73-.2.47-.27.98-.39,1.47-.02.11-.04.22-.08.32-.15.38-.32.46-.76.39-.1-.02-.2-.03-.3-.05-.32-.08-.53-.34-.53-.68-.06-1.02.37-1.92.78-2.84.33-.67.71-1.32,1.12-1.95l.04.02Z"/><path class="cls-1" d="M78.74,57.44c-.72,2.2-1.21,4.43-1.27,6.73-.01.84.04,1.67.1,2.51.14,2.95.82,5.92,2.12,8.64.55,1.22,1.28,2.36,2.05,3.43l.8,1,.86.95c.55.65,1.06,1.36,1.69,1.95.37.4.29.4-.16.22-.44-.18-1.3-.49-2.22-1.05-1.39-1.23-2.53-2.7-3.52-4.26-.99-1.56-1.75-3.28-2.25-5.07-.61-2.13-1.19-4.38-1.29-6.65-.1-2.5.2-5,.85-7.4.41-1.46.9-2.9,1.51-4.29.93-2.11,2.21-4.09,3.76-5.79,1.2-1.32,2.46-2.56,3.91-3.57.32-.22.62-.45.95-.66.61-.38,1.04-.58,1.4-.62.35-.06.58-.03.8.06.1.04.22.07.29.12.24.16-.13.67-.88,1.4-2.36,1.9-4.76,3.79-6.48,6.26-1.3,1.82-2.25,3.92-2.96,6.12h-.05Z"/><path class="cls-1" d="M76.21,59.03c-.52-.13-1.04-.25-1.56-.35-.19-.03-.38,0-.57-.05-.67-.17-1.36-.35-2.04-.45-.3-.06-.61-.06-.91-.06-.19,0-.38.04-.58.01-.2-.04-.39-.12-.59-.23-.12-.08-.12-.32-.04-.62.09-.3.25-.73.47-.89.79-.34,1.6-.44,2.42-.18.49.15.99.01,1.49.03.55.04,1.09.11,1.63.18.33.04.67.09,1,.13.51.05,1.01.15,1.52.13.39-.02.79-.14,1.18-.21.09-.01.17-.06.26-.01.31.16.39.45.41.92l.02.32c0,.34-.15.66-.41.97-.19.23-.37.36-.54.42-.18.08-.35.14-.53.18-.36.12-.7.05-1.06.04-.52-.05-1.04-.16-1.57-.23v-.06Z"/><path class="cls-1" d="M16.93,87.83c-2.49-3.54-4.93-7.13-7.24-10.82-1.15-1.85-2.28-3.72-3.32-5.7-.52-.99-1.01-2-1.44-3.13-.21-.57-.41-1.15-.52-1.95-.06-.42-.02-.97.08-1.37.1-.43.24-.76.39-1.08.44-.91.95-1.61,1.48-2.29.53-.67,1.07-1.3,1.63-1.89,1.12-1.2,2.29-2.3,3.5-3.36,4.27-3.69,8.78-6.97,13.36-10.14,4.59-3.16,9.27-6.15,14.04-9.02,4.23-2.54,8.51-5.05,12.81-7.4,2.77-1.49,5.54-3.01,8.44-4.3,1.44-.65,2.9-1.27,4.37-1.84.74-.28,1.48-.56,2.23-.82.75-.25,1.53-.44,2.29-.65,1.93-.46,1.78-.02.41,1.05-1.35,1.13-3.88,2.84-7.07,4.41-11.36,5.52-22.36,11.92-33.12,18.89-3.21,2.09-6.4,4.36-9.49,6.79-3.08,2.43-6.1,4.97-8.81,7.68-.74.75-1.45,1.51-2.08,2.3-.62.77-1.21,1.65-1.39,2.28-.19.25.16,1.33.54,2.22.4.93.88,1.87,1.39,2.8,2.05,3.72,4.44,7.34,6.87,10.9,3,4.39,6.12,8.71,9.33,12.96,1.84,2.43,3.68,4.86,5.57,7.25l1.43,1.78,1.29,1.56c.28.33.56.65.87.96.08.07.15.16.26.2.07-.06.08-.18.13-.27l.11-.3.06-.15.03-.07v-.04s.02-.02.02-.02h0s0-.01,0-.01h0s-.05-.09.05.08c-.1-.17-.03-.05-.05-.08h0s0,0,0,0h0s0,0,0,0h0s0-.04,0-.04l.02-.05.04-.1.07-.2.14-.41.47-1.34c.32-.93.64-1.86.97-2.79,2.03-5.91,3.88-11.74,5.75-17.64.41-1.3.81-2.57,1.22-3.88,1.61-4.83,2.31-6.29,3.5-7,.26-.16.55-.4.77-.47.74-.24.64,1.94-.46,5.49-1.47,4.88-3.14,9.83-4.83,14.85-.86,2.5-1.72,5.03-2.59,7.56-.44,1.26-.88,2.53-1.33,3.8l-.67,1.9-.54,1.54-.33.94-.17.47-.08.23-.04.12-.02.06v.03s-.02.01-.02.01c-.05-.08.11.2-.12-.18.23.38.06.11.12.19h0s0,0,0,0h0s0,0,0,0h0s-.02.04-.02.04l-.04.05-.07.1-.14.19-.29.38c-.1.11-.19.29-.29.35l-.28.13-.28.13c-.14.04-.27.05-.38.06-.23,0-.48-.01-.75-.1-.67-.2-1.44-.95-2.16-1.71-.36-.37-.75-.8-1.06-1.17l-.6-.69-2.11-2.53c-1.39-1.7-2.75-3.4-4.09-5.13-2.66-3.47-5.25-6.99-7.8-10.54l.06-.06Z"/><path class="cls-1" d="M44.74,66.04c5.15-.03,10.35-.13,15.39-.66.65-.08,1.29-.17,1.9-.29l.44-.1.13-.03.06-.02c.07-.02.16-.06.18-.15l.2-.39c.11-.2.19-.46.3-.69,1.2-2.91,2.08-6.16,2.93-9.35.84-3.21,1.59-6.46,2.31-9.71.63-2.89,1.15-5.82,1.68-8.71l.49-2.79.57-2.78c.37-1.86.86-3.69,1.47-5.5.58-1.09.42-.96.64.09.13.53.21,1.26.32,2.15.05.44.11.93.12,1.43,0,.5-.02,1.03-.07,1.57l-.3,2.89c-.1.96-.29,1.91-.43,2.87-.31,1.91-.62,3.82-1.02,5.72-.77,3.8-1.63,7.59-2.65,11.38-.57,2.19-1.15,4.42-1.73,6.66-.32,1.12-.61,2.25-.99,3.38-.17.56-.37,1.13-.6,1.7-.12.29-.2.56-.34.85l-.53,1.08c-.09.11-.17.23-.25.35-.12.08-.2.21-.33.28-.42.29-1.04.45-1.44.55-.36.09-.7.15-1.04.21-.68.12-1.35.2-2.01.29-1.33.16-2.65.28-3.96.38-2.63.2-5.26.33-7.89.42-3.24.11-6.47.16-9.7.15-4.9,0-9.82-.18-14.68-.4-3.78-.17-7.5-.26-11.27-.69-.83-.1-1.65-.18-2.49-.33-3.1-.58-4.07-1.19-4.4-2.23-.08-.23-.2-.47-.22-.67-.04-.64,1.27-.79,3.38-.44,3.17.47,6.51.72,9.91.94,3.4.21,6.87.36,10.35.45,5.18.15,10.39.15,15.59.07v.08Z"/><path class="cls-1" d="M55.25,99.85c2.24-1.3,4.47-2.64,6.66-4.04.8-.51,1.56-1.09,2.36-1.59,2.82-1.8,5.64-3.63,8.41-5.51,1.23-.84,2.43-1.74,3.6-2.63.75-.58,1.49-1.17,2.28-1.71.39-.27.78-.54,1.18-.8.39-.27.87-.43,1.3-.65.56-.24.6-.05.4.52-.1.29-.25.68-.44,1.13-.22.43-.54.83-.95,1.2-1.42,1.33-3,2.46-4.56,3.63-1.57,1.15-3.17,2.27-4.83,3.32-1.99,1.24-3.9,2.77-5.88,4.13-2.18,1.49-4.39,2.94-6.62,4.35-1.37.87-2.77,1.72-4.16,2.56-2.11,1.28-4.29,2.47-6.45,3.66-1.68.92-3.29,1.93-5.09,2.75-.41.17-.79.37-1.22.51-1.62.44-2.32.19-2.69-.56-.09-.17-.19-.34-.23-.52-.07-.29.05-.58.28-.82.22-.23.57-.47,1.02-.67,2.73-1.26,5.79-2.79,8.82-4.44,2.26-1.23,4.53-2.51,6.76-3.86l.04.06Z"/><path class="cls-1" d="M77.66,68.49c-1.34-7.25.93-14.99,5.76-20.37,1.72-2.01,3.78-3.79,6.1-5.08,4.13-2.22,8.86-3.21,13.46-2.78,2.31.17,4.57.77,6.7,1.63.52.24,1.08.42,1.58.71l1.51.84c.95.65,1.93,1.26,2.77,2.06,3.09,2.67,5.4,6.13,6.81,9.89.92,2.41,1.36,5.02,1.31,7.61-.01.65-.04,1.3-.13,1.94l-.14.96c-.06.32-.15.63-.22.94l-.23.94-.31.91c-.21.6-.4,1.21-.75,1.76-.92,1.34-.85,1.09-.92-.3-.06-.36.01-.74-.02-1.21-.02-.46-.03-.97-.02-1.5-.03-.55-.07-1.13-.07-1.73-.02-.3-.04-.61-.07-.93,0-.31.02-.63,0-.95-.03-1.15-.12-2.29-.35-3.41-.11-.56-.21-1.12-.39-1.66l-.2-.83-.26-.81c-.69-2.17-1.76-4.23-3.12-6.07-2.66-3.74-6.66-6.29-11.23-7.35-5.46-1.27-11.76.07-16.33,3.56-.61.5-1.27.95-1.81,1.53l-.85.83c-.26.3-.51.62-.76.93l-.76.93c-.26.31-.51.62-.7.97l-1.26,2.05c-1.47,2.85-2.29,6.03-2.35,9.24-.07,3.95.91,7.99,3.04,11.37,3.09,5.2,8.69,8.9,14.65,9.62,4.66.51,9.33-.87,13.23-3.21.87-.51,1.66-1.11,2.46-1.72.37-.28.71-.54,1.03-.78.3-.25.58-.48.83-.69.53-.39.89-.77,1.28-1.01.81-.44,1.3-.71,1.83-.83.24-.06.51-.18.68-.19.29-.02.26.33-.01,1.07-.26.74-.76,1.91-1.86,3.02-3.11,3.43-7.5,5.81-12.25,6.89-2.38.53-4.89.71-7.4.47-.63-.08-1.26-.13-1.88-.28-.63-.12-1.25-.25-1.84-.47-1.19-.4-2.41-.73-3.52-1.34-3.39-1.59-6.37-4.04-8.62-7.02-2.27-2.98-3.79-6.49-4.47-10.15l.08-.02Z"/><path class="cls-1" d="M90.58,55.68c1.6-2.37,4.13-3.87,6.76-4.78,2.64-1.01,5.82-.84,8.29.43,1.82.91,3.42,2.2,4.56,3.87.99,1.46,1.71,3.18,1.78,5.06.09,1.88-.67,3.82-2.1,5.12-.73.65-1.7,1.1-2.71,1.21-1.02.1-2.06-.16-2.88-.7-.85-.5-1.46-1.34-1.88-2.03-.43-.7-.81-1.41-1.17-2.11l-.68-1.31c-.07-.12-.13-.25-.2-.37-.02-.03-.04-.06-.06-.08-.03,0-.07.02-.1.02l-.2.07c-.18.07-.36.16-.52.27-.14.09-.27.19-.39.3-.13.1-.24.21-.34.34-.41.48-.69,1.06-.8,1.7-.13.68-.05,1.5.2,1.99.3.58.83,1.04,1.39,1.31.57.27,1.22.31,1.86.08.65-.21,1.23-.69,1.86-1.24.88-.65.78-.65.69.44-.09.52-.24,1.35-.95,2.11-.67.75-2,1.49-3.54,1.25-.66-.09-1.3-.33-1.86-.68-.56-.35-1.01-.83-1.41-1.33-.18-.29-.34-.48-.51-.86-.17-.36-.26-.67-.33-.98-.14-.62-.19-1.23-.14-1.83.07-1.21.51-2.45,1.31-3.43.41-.48.87-.91,1.37-1.24l.49-.31c.19-.11.39-.18.59-.26.4-.15.78-.33,1.19-.46l.54.02h.27s.13.01.13.01h.03s0,0,0,0h0c-.03.11.08-.25-.08.25h.02s.06.03.06.03c.27.1.62.18.92.42.45.67.92,1.71,1.04,1.94.4.81.79,1.61,1.2,2.35.44.78.75,1.27,1.24,1.58.47.33,1.04.44,1.6.36.67-.12,1.36-.59,1.78-1.35.5-.7.67-1.58.61-2.47,0-.45-.15-.9-.24-1.36-.19-.44-.32-.9-.59-1.31-.45-.86-1.12-1.61-1.83-2.28-.79-.74-1.73-1.3-2.7-1.75-.99-.38-2.03-.65-3.09-.67-1.05.02-2.11.18-3.12.61-1,.45-1.91,1.11-2.73,1.85-2.04,1.8-3.6,4.22-4.02,6.93-.16,1.02-.17,2.07.09,3.1l.4,1.55.65,1.44c.99,1.86,2.6,3.33,4.55,4.11,1.51.58,3.15.83,4.76.67,1.6-.18,3.17-.59,4.59-1.31.33-.13.6-.36.89-.53.28-.19.6-.34.86-.57,1.05-.75,1.61-1.36,2.14-1.69.24-.18.44-.33.66-.41.24-.07.48-.1.71-.13.22-.02.45-.09.62-.08.28,0,.33.29.25.91-.02.33-.17.67-.38,1.08-.23.38-.56.78-.94,1.23-.27.35-.61.62-.94.9-.34.27-.66.6-1.03.83-.74.47-1.48.98-2.32,1.3-1.62.77-3.42,1.17-5.26,1.27l-1.39.02-1.4-.17c-.47-.04-.93-.17-1.39-.3-.46-.15-.93-.22-1.37-.44-1.82-.69-3.42-1.93-4.73-3.39-.42-.59-.85-1.18-1.23-1.8l-.89-1.96c-.2-.67-.37-1.35-.55-2.03-.11-.33-.13-.7-.2-1.06-.06-.36-.14-.72-.15-1.08-.25-2.92.6-5.94,2.32-8.24l.07.04Z"/><path class="cls-1" d="M101.3,30.92c.12.2-.06.42-.35.63-.09.07-.4.11-.46.06-.12-.1-.23-.2-.33-.31-.06-.07-.6-1.15-.79-1.51-.19-.35-.33-.72-.45-1.08-.27-.74-.47-1.5-.69-2.27-.05-.17-.07-.34-.07-.52,0-.62-.14-1.21-.33-1.78-.03-.1-.04-.2-.15-.28-.17-.12-.59-1.72-.57-1.95.03-.61.05-1.11.07-1.65,0-.08-.04-.15.05-.24.22-.21.16-.36.17-.53,0-.23.02-.47.06-.71.02-.12.12-.25.19-.37.06-.11.34-.1.38-.08.11.09.22-.02.33-.05.04,0,.09-.02.12-.02.04,0,.25.29.5.59.25.3.52.6.54.67.05.02.64,1.81.71,2.01.05.1.01.23,0,.34,0,.05.49,1.49.49,1.55.04.31.19.6.05.95-.03.07,0,.13.02.19.14.52.18,1.07.24,1.61.03.28.12.54.17.81,0,.05,0,.1-.01.16,0,.07-.02.13,0,.19.11.65.11,1.32.27,1.96.03.15-.05.91-.02,1.08.02.1-.2.47-.15.54Z"/><path class="cls-1" d="M107.75,32.23c.03.19-.22.23-.64.25-.13,0-.49-.1-.52-.17-.06-.14-.13-.3-.16-.45-.03-.11.2-1.31.32-1.68.1-.37.26-.72.44-1.04.36-.66.73-1.3,1.11-1.93.08-.14.19-.26.32-.37.43-.38.76-.82,1.04-1.3.05-.08.11-.15.1-.27-.03-.21.84-1.43,1.01-1.54.42-.28.79-.6,1.19-.9.06-.04.07-.12.2-.1.29.04.34-.1.45-.21.14-.15.32-.27.51-.38.1-.05.27-.04.42-.05.14,0,.4.25.41.3.04.14.22.19.35.28.04.03.1.07.13.1.07.06-.1,1.44-.2,1.52,0,.01-.24.38-.49.77-.24.39-.49.79-.53.88-.04.09-.15.14-.24.19-.04.03-.73,1.21-.76,1.25-.2.2-.29.48-.63.57-.07.02-.09.07-.12.12-.27.4-.64.72-.97,1.07-.17.18-.3.39-.45.58-.03.03-.08.05-.11.08-.05.04-.1.06-.13.11-.33.47-.74.89-.98,1.4-.06.12-.56.53-.62.66-.03.07-.42.18-.41.26Z"/><path class="cls-1" d="M111.09,35.45c-.09.15-.28,0-.55-.28-.09-.09-.25-.41-.23-.48.03-.13.07-.26.13-.37.04-.08.77-.65,1.01-.87.23-.2.49-.35.75-.47.52-.27,1.06-.46,1.59-.65.12-.04.24-.06.37-.06.45.01.85-.12,1.24-.3.06-.03.13-.04.17-.14.07-.16,1.1-.55,1.24-.55.38.01.73-.04,1.08-.07.05,0,.08-.06.16.01.2.16.27.07.36.04.13-.05.28-.09.42-.1.07,0,.2.06.33.11.11.04.29.33.3.37,0,.13.15.22.25.33.03.04.07.09.09.12.02.03-.09.33-.26.62-.16.27-.36.55-.41.56-.03.04-1.32.77-1.45.84-.07.05-.17.03-.26.03-.04,0-1.05.53-1.09.53-.23.05-.42.19-.7.08-.05-.02-.1,0-.14.02-.36.14-.76.18-1.14.25-.2.03-.37.11-.56.17-.03,0-.08,0-.11,0-.05,0-.1-.01-.14,0-.44.12-.92.13-1.33.31-.09.04-.64-.02-.73.05-.05.03-.36-.15-.4-.08Z"/></svg>