<svg width="128" height="128" viewBox="0 0 128 128" fill="none" xmlns="http://www.w3.org/2000/svg">
<path d="M26 45.52C26.47 44.86 32.12 38.74 36.54 39.97C40.96 41.2 46.23 43.13 47.83 39.81C49.43 36.49 45.85 31.22 48.49 30.47C51.13 29.72 56.33 24.56 54.01 19.42C52.29 15.6 38.95 22.22 34.6 27.96C30.25 33.7 26.06 41.54 26.06 41.54L26 45.53V45.52Z" fill="#231F20"/>
<path d="M52.8898 48.65C50.9498 49.03 51.1998 51.93 49.4998 52.54C47.1498 53.39 51.5698 58.09 54.2998 56.78C57.0298 55.46 57.8798 55.92 59.9498 57.01C62.0198 58.1 64.9098 51.7 60.5098 51.7C53.9798 51.7 56.5298 47.94 52.8898 48.66V48.65Z" fill="#231F20"/>
<path d="M81.5901 24.21C83.3801 25.81 87.2601 32.96 84.1501 34.47C81.0401 35.98 78.0701 38.88 78.5001 41.6C78.9001 44.14 81.9201 46.39 86.9501 45.11C91.9801 43.83 89.4001 46.52 90.9001 49.91C91.6701 51.65 95.7001 53.49 97.2101 51.23C98.7201 48.97 94.7601 38.5 94.7601 38.5C94.7601 38.5 86.6201 26.29 85.1501 25.12C83.6801 23.95 81.5901 24.22 81.5901 24.22V24.21Z" fill="#231F20"/>
<path d="M103.52 97.5699C104.08 97.6599 108.7 98.8299 109.73 100.11C112.05 102.98 93.5698 109 93.5698 109L102.25 103.49L103.52 97.5799V97.5699Z" fill="#231F20"/>
<path d="M63.65 75.57C63.26 75.76 62.95 76.07 62.57 76.3C62.24 76.59 61.88 76.87 61.57 77.2C61.35 77.45 61.16 77.72 60.95 77.97C60.19 78.87 59.53 79.91 59 81.01C58.75 81.5 58.57 82.01 58.43 82.54C58.24 83.21 58.08 83.87 57.73 84.54C57.62 84.75 57.55 84.72 57.4 84.51C57.33 84.41 57.23 84.26 57.12 84.07C57 83.89 56.9 83.67 56.9 83.45C56.9 83.06 56.83 82.65 56.92 82.27C56.99 81.89 57.05 81.5 57.16 81.13C57.28 80.76 57.37 80.38 57.55 80.03C57.73 79.68 57.92 79.34 58.13 79C58.66 78.22 59.04 77.33 59.63 76.56C59.96 76.14 60.28 75.72 60.68 75.36C61.04 74.97 61.46 74.63 61.89 74.31C62.14 74.1 62.43 73.94 62.72 73.77C63.01 73.61 63.27 73.42 63.59 73.3C64.05 73.1 64.5 72.87 64.99 72.77L65.71 72.56C65.95 72.5 66.2 72.48 66.44 72.43C67.19 72.25 67.94 72.15 68.72 72.07C68.89 72.07 69.05 72.07 69.22 72.1C69.54 72.12 69.72 72.32 69.84 72.44C69.96 72.58 70.01 72.74 70.03 72.94C70.04 73.03 70.06 73.12 70.06 73.19C70.06 73.43 69.76 73.7 69.34 73.92C69.02 74.08 68.74 74.09 68.45 74.14C68.17 74.2 67.89 74.24 67.61 74.27C67.33 74.27 67.06 74.37 66.79 74.42C66.52 74.47 66.24 74.5 65.98 74.61C65.59 74.73 65.19 74.83 64.81 75.03C64.42 75.17 64.06 75.4 63.7 75.63L63.67 75.59L63.65 75.57Z" fill="#231F20"/>
<path d="M70.9698 74.02C71.8198 74.67 72.6098 75.38 73.2998 76.17C73.5398 76.47 73.8598 76.69 74.0698 77.02C74.8698 78.12 75.4398 79.36 75.8798 80.6C76.0998 81.15 76.2398 81.72 76.3898 82.28C76.4598 82.65 76.5498 83.02 76.5698 83.39C76.5598 83.77 76.4598 84.15 76.3898 84.52C76.3298 84.75 76.2098 84.71 75.9998 84.53C75.7998 84.35 75.4398 84.04 75.2498 83.69C75.0298 83.39 74.9998 83.07 74.8698 82.77C74.7398 82.47 74.5998 82.17 74.4898 81.87C74.3798 81.57 74.2598 81.27 74.1598 80.95C74.0398 80.64 73.8998 80.34 73.7898 80.02C73.6398 79.64 73.3898 79.31 73.1598 78.97L72.3398 78.03C71.7298 77.35 71.0998 76.67 70.3498 76.12C69.9198 75.75 69.4198 75.46 68.9398 75.15C68.1798 74.74 67.3898 74.34 66.5398 74.15C65.8798 73.99 65.2098 74.03 64.5698 73.99C64.4298 73.97 64.2798 74.01 64.1398 74.01C63.6098 73.99 63.4498 73.84 63.3298 73.31C63.2998 73.19 63.2698 73.07 63.2498 72.95C63.1898 72.56 63.4298 72.22 63.8898 72.1C64.5698 71.9 65.2898 71.88 66.0198 71.89C66.7298 72.01 67.4498 72.16 68.1298 72.44C69.1598 72.8 70.0898 73.37 70.9898 73.96L70.9598 74L70.9698 74.02Z" fill="#231F20"/>
<path d="M21.9198 64.27C21.2498 64.79 20.6398 65.43 20.0698 66.1C19.8598 66.34 19.6898 66.63 19.4798 66.87C18.7398 67.75 18.0398 68.71 17.4698 69.74C17.1998 70.19 16.9798 70.67 16.7598 71.14C16.6198 71.44 16.5198 71.76 16.3598 72.06C16.1898 72.35 16.0298 72.62 15.8298 72.95C15.7098 73.14 15.7198 73.11 15.6898 72.91C15.6798 72.72 15.5598 72.34 15.5298 71.91C15.6498 70.46 16.1098 69.07 16.9198 67.88C17.3898 67.16 17.7498 66.33 18.2398 65.59C18.7698 64.77 19.4498 64.05 20.1398 63.35C20.5998 62.95 21.0298 62.52 21.5398 62.17L22.0998 61.76L22.7098 61.41C23.0998 61.15 23.5598 61.01 23.9798 60.8C24.6598 60.54 25.3498 60.23 26.1298 60.13C26.2998 60.1 26.4698 60.06 26.6398 60.1C27.2698 60.19 27.4498 60.36 27.4698 60.86C27.4698 60.97 27.4898 61.08 27.4698 61.19C27.4398 61.54 27.1498 61.86 26.8098 61.96C26.6798 62 26.5498 62.03 26.4298 62.07C26.3098 62.11 26.1898 62.18 26.0698 62.2C25.8298 62.28 25.5998 62.28 25.3698 62.39C25.1398 62.49 24.8998 62.52 24.6698 62.63C24.4398 62.74 24.2098 62.83 23.9698 62.93C23.2998 63.32 22.5798 63.72 21.9598 64.31L21.9298 64.28L21.9198 64.27Z" fill="#231F20"/>
<path d="M102.97 62.58C103.53 63.13 104.03 63.74 104.51 64.34C104.69 64.56 104.89 64.76 105.05 64.99C105.59 65.84 106.03 66.73 106.43 67.62C106.6 68.02 106.82 68.39 106.96 68.8C107.17 69.31 107.34 69.83 107.39 70.38C107.41 70.55 107.26 70.58 107.04 70.51C106.83 70.44 106.5 70.29 106.31 70.05C106 69.61 105.61 69.23 105.37 68.78C105.14 68.32 104.89 67.87 104.68 67.39C104.42 66.81 103.94 66.36 103.54 65.87C103.11 65.32 102.64 64.8 102.14 64.29C101.82 63.99 101.51 63.68 101.17 63.42C100.66 63 100.12 62.6 99.5398 62.29C99.0798 62.05 98.5598 61.96 98.0798 61.8C97.9798 61.76 97.8698 61.74 97.7598 61.7C97.3698 61.57 97.3698 61.24 97.4398 60.84C97.4598 60.74 97.4698 60.65 97.4898 60.56C97.5598 60.29 97.8498 60.06 98.2398 59.99C99.3198 59.96 100.27 60.48 101.15 61.06C101.81 61.5 102.42 62.01 103 62.55L102.97 62.59V62.58Z" fill="#231F20"/>
<path d="M32.3301 80.31L36.3101 81.97C36.7901 82.18 37.2901 82.34 37.7701 82.56C39.4501 83.33 41.1401 84.1 42.8101 84.87C43.5501 85.23 44.3101 85.54 45.0601 85.86C45.5401 86.07 46.0301 86.24 46.5001 86.49C46.9601 86.75 47.4001 87.04 47.8401 87.35C48.1101 87.55 48.0601 87.56 47.7501 87.58C47.4501 87.58 46.8601 87.68 46.2501 87.6C44.1801 87.05 42.1901 86.33 40.2701 85.36C39.1201 84.79 37.8401 84.4 36.6201 83.92L32.6101 82.3L30.1301 81.33C28.8701 80.86 27.6201 80.37 26.3501 79.97C25.3701 79.65 24.3701 79.42 23.3901 79.15C23.1701 79.09 22.9601 79.05 22.7401 78.97C21.9501 78.68 21.7301 78.49 21.6601 78.1C21.6401 78.01 21.6201 77.92 21.6201 77.84C21.6201 77.57 22.0201 77.45 22.6501 77.5C23.6001 77.56 24.5201 77.77 25.4701 77.97C25.9401 78.08 26.4101 78.19 26.8801 78.32L28.2701 78.78C29.6401 79.25 31.0001 79.78 32.3501 80.29V80.33L32.3301 80.31Z" fill="#231F20"/>
<path d="M22.69 99.04C22.77 99.45 22.85 99.87 22.96 100.26C23.06 100.64 23.19 101.07 23.28 101.24C23.41 101.45 23.62 101.63 23.8 101.84C24.46 102.57 25.34 103.24 26.28 103.82C26.7 104.08 27.13 104.33 27.58 104.55C28.16 104.82 28.71 105.2 29.19 105.7C29.34 105.86 29.22 105.99 28.96 106.09C28.71 106.19 28.29 106.33 27.92 106.28C26.59 106.11 25.39 105.46 24.32 104.52C23.69 103.96 22.92 103.5 22.31 102.8C22.14 102.6 22 102.42 21.84 102.16C21.67 101.88 21.6 101.65 21.51 101.41C21.35 100.94 21.26 100.49 21.16 100.04C21.05 99.48 20.96 98.93 20.88 98.38C20.75 97.55 20.66 96.71 20.55 95.89C20.47 95.25 20.32 94.63 20.25 93.99C20.23 93.85 20.21 93.71 20.21 93.57C20.22 93.04 20.33 92.86 20.6 92.74C20.66 92.71 20.72 92.68 20.78 92.66C20.98 92.61 21.17 92.81 21.31 93.18C21.55 93.72 21.68 94.27 21.85 94.83C22 95.39 22.17 95.95 22.26 96.53C22.42 97.38 22.56 98.24 22.75 99.06H22.71L22.69 99.04Z" fill="#231F20"/>
<path d="M85.4199 66.05C83.6199 66.68 81.7999 67.25 79.9899 67.81L78.0099 68.45C75.6699 69.14 73.3099 69.8 70.8999 70.29C69.8299 70.51 68.7499 70.71 67.6699 70.85C66.2799 70.99 64.8599 71.05 63.4899 70.69C63.0699 70.59 63.1199 70.61 63.4899 70.55C63.6699 70.52 63.9299 70.47 64.2499 70.38C64.5599 70.27 64.9199 70.2 65.3099 70.16C65.9999 70.1 66.6699 69.97 67.3499 69.86C68.0299 69.78 68.7099 69.67 69.3899 69.55C70.7499 69.3 72.0999 68.99 73.4699 68.66C75.1099 68.27 76.7599 67.65 78.4199 67.14C80.2399 66.57 82.0599 66 83.8599 65.39C84.9599 65.01 86.0699 64.62 87.1599 64.19C88.8099 63.55 90.4499 62.86 92.0099 62.06C93.2299 61.44 94.3499 60.71 95.4699 59.97L96.1899 59.46C97.1299 58.89 97.4599 58.75 97.8299 58.85C97.9099 58.87 98.0099 58.88 98.0699 58.91C98.2799 59.02 98.0099 59.43 97.3899 59.99C95.4999 61.6 93.1799 62.83 90.8299 63.93C89.0699 64.74 87.2699 65.44 85.4599 66.09V66.06L85.4199 66.05Z" fill="#231F20"/>
<path d="M60.98 72.33C61.01 72.86 60.95 73.4 60.82 73.87C60.78 74.04 60.76 74.22 60.69 74.39C60.43 74.97 60.09 75.46 59.73 75.9C59.57 76.11 59.43 76.29 59.27 76.49C59.08 76.74 58.88 76.99 58.6 77.15C58.43 77.26 58.23 76.71 58.38 76.41C58.68 75.9 58.92 75.4 59.21 74.92C59.39 74.63 59.41 74.27 59.46 73.95C59.53 73.59 59.56 73.24 59.52 72.9C59.5 72.68 59.46 72.47 59.38 72.26C59.26 71.95 59.14 71.63 58.9 71.4C58.72 71.22 58.45 71.16 58.23 71.12C58.18 71.11 58.13 71.12 58.08 71.11C57.95 71 57.93 70.9 58.03 70.44L58.08 70.19C58.12 69.98 58.35 69.61 58.62 69.6C59.44 69.54 60.11 70.14 60.51 70.76C60.83 71.23 60.95 71.79 61.02 72.32H60.98V72.33Z" fill="#231F20"/>
<path d="M39.7601 109.22C44.9401 111.06 50.1801 112.76 55.4901 114.22C57.4301 114.76 59.3901 115.19 61.3301 115.66L62.7101 115.99L63.1701 116.1L63.3701 116.16C63.4601 116.16 63.6101 116.25 63.6701 116.19C63.6801 116.09 63.6801 115.98 63.6901 115.87C63.6901 115.73 63.7001 115.73 63.6901 115.24L63.6501 114.09L63.4701 109.47C63.3401 106.39 63.2901 103.3 63.2401 100.21C63.2001 97.05 63.0801 93.86 63.0601 90.72C63.0601 88.7 63.0601 86.67 63.1401 84.64L63.2101 83.12L63.3901 81.6C63.4901 80.59 63.7401 79.59 64.0501 78.6C64.4601 77.37 64.3501 77.53 64.5901 78.62C64.7001 79.16 65.0301 79.94 65.2601 80.85C65.3901 81.31 65.4701 81.8 65.5701 82.33C65.6201 82.59 65.6501 82.86 65.7101 83.14C65.7101 83.42 65.7301 83.7 65.7401 83.98C65.9901 92.13 66.0301 100.3 65.9701 108.59C65.9401 110.23 65.9701 111.89 66.0001 113.56L66.0301 114.82V115.45C66.0501 115.73 66.0601 116.1 66.0601 116.44C66.0601 116.79 66.0601 117.13 66.0301 117.45C66.0201 117.79 65.7801 117.92 65.6401 118.08L65.5301 118.19L65.5001 118.22H65.4801L65.4701 118.24C65.4301 118.2 65.7901 118.61 65.6401 118.44H65.5401L65.1501 118.51L64.3801 118.62L61.1301 117.95C60.2801 117.77 59.4301 117.58 58.5901 117.38C53.1301 116.09 47.7501 114.53 42.4201 112.8C39.1401 111.73 35.8901 110.59 32.6601 109.36C30.5101 108.54 28.3701 107.66 26.2601 106.7C25.2101 106.21 24.1601 105.71 23.1301 105.14C22.6201 104.85 22.1101 104.55 21.6101 104.21C21.3601 104.05 21.1101 103.85 20.8701 103.67L20.4601 103.31C20.3101 103.17 20.1901 103.01 20.0501 102.86C19.8101 102.5 19.8201 102.03 19.7601 101.61L19.7201 100.67C19.5701 96.64 19.3701 92.7 19.2801 88.72C19.2601 87.84 19.2201 86.98 19.2301 86.1C19.2301 85.28 19.2601 84.6 19.3001 84.03C19.3501 83.46 19.4501 83 19.5501 82.63C19.7301 81.88 20.0401 81.45 20.4201 81.12C20.5901 80.97 20.7401 80.77 20.8801 80.68C21.3001 80.39 21.8701 81.75 22.0201 84.13C22.1201 87.08 22.1801 90.1 22.2401 93.17C22.2701 94.7 22.2901 96.24 22.3201 97.79C22.3401 98.56 22.3501 99.34 22.3701 100.11L22.4101 101.26V101.49H22.4201C22.4201 101.49 22.3401 101.41 22.5701 101.61C22.7801 101.75 22.9501 101.89 23.1901 102.02C23.6301 102.3 24.1301 102.56 24.6301 102.84C26.9401 104.09 29.4901 105.18 32.0301 106.22C34.5901 107.25 37.1901 108.22 39.8001 109.13V109.19L39.7601 109.22Z" fill="#231F20"/>
<path d="M104.22 102.09V102.42C104.2 102.59 104.22 102.78 104.18 102.95C104.11 103.3 104.06 103.64 103.98 103.98C103.92 104.14 103.92 104.33 103.8 104.45L103.42 104.8C103.16 105.02 102.87 105.19 102.6 105.39L102.19 105.68C102.05 105.78 102 105.79 101.9 105.84L101.37 106.12L100.31 106.65C98.8998 107.35 97.4898 108.01 96.0798 108.66C95.0498 109.14 94.0498 109.68 93.0098 110.14C89.3398 111.74 85.6098 113.18 81.8598 114.55C80.1998 115.18 78.5298 115.81 76.8898 116.44C75.8098 116.8 74.7598 117.23 73.6598 117.54C73.1098 117.69 72.5698 117.87 71.9998 117.97C71.4198 118.04 70.8598 118.13 70.2698 118.15C69.5198 118.07 69.5798 117.83 70.0298 117.18C70.2498 116.84 70.5898 116.49 70.9998 116.11C71.4098 115.73 71.9098 115.38 72.5098 115.17C73.5598 114.8 74.6098 114.38 75.6598 113.97L78.8298 112.8C80.9498 112 83.0898 111.21 85.2498 110.44C87.8398 109.52 90.3798 108.19 92.9198 107C94.3198 106.35 95.7098 105.68 97.0998 105L99.1598 103.96L100.17 103.43L100.91 103.03C101.02 102.96 101.13 102.92 101.17 102.82C101.2 102.72 101.2 102.61 101.21 102.5V102.31L101.23 101.96L101.25 101.25V98.39C101.25 95.49 101.27 92.57 101.21 89.69C101.14 87.45 101.01 85.25 101.01 83.02C101.01 82.53 100.98 82.05 101.01 81.55C101.05 80.63 101.12 80.03 101.29 79.61C101.49 79.19 101.74 78.97 102.03 78.79C102.16 78.71 102.28 78.6 102.38 78.56C102.56 78.49 102.7 78.64 102.91 78.98C103.13 79.32 103.32 79.85 103.36 80.5C103.55 82.46 103.75 84.47 103.91 86.51C104.09 88.55 104.09 90.62 104.16 92.71C104.23 95.82 104.29 98.89 104.29 102.1H104.21L104.22 102.09Z" fill="#231F20"/>
<path d="M75.5898 20.48C69.6898 17.62 62.9498 16.7 56.4098 17.73C54.0098 18.06 51.6898 18.77 49.4198 19.56C45.4298 21.01 41.6098 23.05 38.3398 25.82C35.0798 28.58 32.2598 31.92 30.2698 35.73C28.4998 39.1 27.3398 42.85 26.8498 46.61C26.5098 49.02 26.5798 51.46 26.7198 53.89C26.9298 56.32 27.2598 58.75 27.7398 61.18C27.9098 62.74 27.7598 62.59 26.9098 61.46C26.4798 60.9 25.9698 60.05 25.4498 58.97C24.8998 57.9 24.4298 56.57 24.1898 55.08C23.9698 53.76 23.7998 52.41 23.7798 51.06C23.7798 49.71 23.8298 48.36 23.9898 47.02C24.2998 44.34 24.9098 41.7 25.8098 39.17C26.7098 36.63 27.8998 34.19 29.3498 31.91C30.8498 29.67 32.5198 27.54 34.4998 25.7C39.1498 21.29 44.9298 17.63 51.2698 15.91C54.7298 14.94 58.3098 14.46 61.9098 14.45C65.5098 14.45 69.0998 15.01 72.5098 16.12C76.7198 17.46 80.6298 19.6 84.0998 22.28C89.3298 26.38 93.4998 31.79 96.1698 37.8C98.2498 42.46 99.5198 47.45 99.5298 52.6C99.5298 53.17 99.5098 53.73 99.4998 54.29C99.4598 54.85 99.4098 55.41 99.3498 55.98C99.2398 57.04 99.0098 57.9 98.8698 58.62C98.6598 59.33 98.4598 59.89 98.2598 60.35C97.8698 61.26 97.3898 61.69 96.8798 61.97C96.6498 62.1 96.3998 62.29 96.1998 62.33C95.8698 62.41 95.7298 62.01 95.7298 61.25C95.7198 60.87 95.7998 60.41 95.8698 59.87C95.9298 59.32 96.0298 58.7 96.1698 58C97.5398 49.7 95.3498 40.65 90.3798 33.3C88.5298 30.58 86.3398 28.08 83.8598 25.91C81.3798 23.74 78.5798 21.93 75.5998 20.53L75.6198 20.46L75.5898 20.48Z" fill="#231F20"/>
<path d="M108.96 74.9C108.64 75.3 108.04 75.57 107.43 75.73C106.75 76 106.54 76.06 106.22 76.17L104.37 76.79L100.71 78.02C99.8298 78.33 98.9698 78.7 98.0798 79C94.9598 80.07 91.8598 81.18 88.8498 82.5C87.5098 83.08 86.2098 83.75 84.9498 84.46C84.1498 84.92 83.3598 85.4 82.5398 85.84L81.3298 86.51C80.9298 86.75 80.4598 86.86 80.0298 87.06C79.4698 87.27 79.4798 87.16 79.7198 86.64C79.8798 86.3 80.0598 85.93 80.2298 85.56C80.4698 85.15 80.8398 84.77 81.2698 84.42C82.7998 83.17 84.5498 82.29 86.2798 81.39C88.0198 80.52 89.7998 79.74 91.6298 79.07C93.8098 78.26 95.9898 77.21 98.1998 76.35C100.63 75.41 103.09 74.56 105.5 73.66L106.25 73.38C106.35 73.34 106.45 73.31 106.54 73.24C106.54 73.14 106.52 73.04 106.52 72.94L106.49 72.68C106.49 72.62 106.45 72.46 106.41 72.28C106.33 71.94 106.27 71.6 106.17 71.28C105.56 69.06 104.54 66.91 103.2 65C102.16 63.51 100.82 62.32 99.5298 61.11C99.2498 60.84 98.9398 60.62 98.6498 60.35C98.1098 59.87 97.7798 59.53 97.6198 59.18C97.4398 58.86 97.4298 58.56 97.4898 58.21C97.5198 58.05 97.5198 57.89 97.5598 57.76C97.6598 57.36 98.4898 57.3 99.5498 57.86C102.62 59.6 105.12 62.48 106.92 65.77C107.49 66.86 108.03 67.98 108.43 69.16C108.65 69.74 108.81 70.36 108.98 70.96L109.19 71.88C109.24 72.06 109.29 72.37 109.33 72.64L109.46 73.46L109.35 74.23L109.32 74.42V74.47V74.48L109.24 74.45V74.47L109.21 74.57C109.18 74.7 109.14 74.81 109.05 74.9L108.98 74.87L108.96 74.9Z" fill="#231F20"/>
<path d="M61.5499 72.38C61.9599 72 62.4399 71.66 62.9499 71.32C63.4899 71.01 64.0299 70.69 64.8199 70.51C66.3799 70.26 67.5299 70.68 68.5999 71.12L69.7099 71.66C70.0699 71.85 70.3999 72.07 70.7399 72.29C72.9999 73.96 74.7899 76.08 76.0899 78.45C76.6899 79.49 77.2099 80.58 77.6099 81.71C78.0799 83.15 78.5399 84.72 78.0299 86.25C77.9099 86.72 77.8099 86.64 77.5399 86.25C77.3599 86 77.1599 85.74 76.9799 85.5C76.7999 85.2 76.5799 84.87 76.4299 84.5C76.2699 83.84 76.0099 83.2 75.7799 82.57C75.4799 81.95 75.2199 81.33 74.8899 80.73C74.2799 79.51 73.5399 78.32 72.6799 77.2C71.6799 75.83 70.2299 74.74 68.7899 73.9C67.9999 73.47 67.1499 73.04 66.3599 72.94C65.9699 72.88 65.5699 72.87 65.3199 72.94C65.1599 73.01 64.9799 73.07 64.7999 73.16C64.6199 73.28 64.4299 73.36 64.2499 73.5C63.3499 74.14 62.4799 74.98 61.7099 75.89C60.5499 77.29 59.4899 78.83 58.6599 80.47C57.9999 81.74 57.6099 83.1 57.1799 84.43C57.0899 84.73 57.0299 85.03 56.9299 85.32C56.5899 86.42 56.3099 86.71 55.5999 86.75C55.4399 86.76 55.2699 86.79 55.1199 86.78C54.6099 86.75 54.3399 86.15 54.4699 85.25C54.8799 82.58 55.9999 79.94 57.4499 77.47C58.5599 75.64 59.8299 73.9 61.4899 72.34L61.5399 72.39L61.5499 72.38Z" fill="#231F20"/>
<path d="M17.1701 74.92L26.3201 77.74C27.4401 78.08 28.5701 78.36 29.6801 78.71C33.6001 79.96 37.5001 81.28 41.4001 82.6C43.1401 83.17 44.8801 83.74 46.6001 84.31C47.7001 84.69 48.8201 85.01 49.9101 85.46C50.9901 85.91 52.0301 86.47 53.0401 87.09C53.6301 87.57 53.5601 87.5 52.8801 87.57C52.5401 87.61 52.0701 87.63 51.5001 87.67C50.9301 87.72 50.2801 87.72 49.6201 87.59C49.3301 87.53 49.0301 87.49 48.7401 87.42L47.8901 87.18L46.1901 86.69C45.0601 86.36 43.9201 86.05 42.8101 85.64C40.5801 84.87 38.3401 84.07 36.1001 83.24C33.4201 82.24 30.5401 81.52 27.7401 80.68L18.5001 77.92L15.8701 77.13L15.1901 76.92C14.8601 76.82 14.5301 76.72 14.2201 76.6C13.5701 76.37 13.3201 75.88 13.3101 75.25L13.3801 74.56C13.4501 73.95 13.5201 73.67 13.5801 73.26C13.6401 72.87 13.7601 72.5 13.8401 72.12C14.0401 71.37 14.2601 70.61 14.5501 69.89C15.1001 68.44 15.7801 67.03 16.6101 65.73C17.8701 63.69 19.3701 61.79 21.2801 60.25C21.6901 59.9 22.1401 59.62 22.6001 59.33C24.3601 58.31 25.1401 58.47 25.7101 58.85C25.8401 58.94 26.0001 59.02 26.0901 59.12C26.3901 59.46 25.8101 60.1 24.7901 60.9C24.4001 61.17 24.0101 61.44 23.6501 61.76L23.1001 62.21L22.5801 62.7C21.8501 63.31 21.1901 64.01 20.5601 64.73C19.2901 66.18 18.2301 67.86 17.4101 69.66C17.0001 70.52 16.6901 71.43 16.4101 72.34C16.3001 72.8 16.1701 73.26 16.0801 73.73L15.9601 74.4C15.9501 74.45 15.9501 74.43 15.9401 74.45C15.9201 74.47 15.9401 74.49 15.9601 74.5C15.9601 74.5 15.9601 74.5 15.9801 74.51L16.3801 74.63L17.1801 74.87V74.93L17.1701 74.92Z" fill="#231F20"/>
<path d="M53.3002 68.56C55.3202 68.92 57.3402 69.26 59.3702 69.51C61.3802 69.76 63.5002 70.01 65.3702 70.01C66.7502 69.97 68.2102 69.67 69.6602 69.42C74.8102 68.48 79.9602 67.05 85.0102 65.42C87.2502 64.68 89.4702 63.85 91.6202 62.95C92.9902 62.36 94.3702 61.76 95.7402 61.17C96.4202 60.87 97.0902 60.56 97.7502 60.23C98.3902 59.9 99.1002 59.6 99.5702 59.23C99.7202 59.11 99.7902 59.14 99.8102 59.06C99.8402 59 99.8602 58.96 99.9102 58.96C99.9502 58.96 100.06 58.99 100.13 59.1C100.21 59.21 100.2 59.43 100.13 59.66C99.8302 60.62 98.7402 61.96 97.1802 62.85C94.4502 64.51 91.5402 65.67 88.6102 66.75C85.6802 67.83 82.6802 68.72 79.6402 69.5C75.9902 70.41 72.2702 71.59 68.4102 72.22C67.3402 72.38 66.2702 72.52 65.1202 72.53C63.9902 72.53 62.9402 72.44 61.8802 72.35C59.7602 72.17 57.6702 71.89 55.5802 71.59C53.0102 71.18 50.4502 70.74 47.9202 70.19C44.0702 69.37 40.2602 68.32 36.5402 67.12C33.6302 66.22 30.8102 65.21 28.0002 64C27.4002 63.7 26.7902 63.43 26.1902 63.11C25.0602 62.55 24.4002 62.01 23.9802 61.58C23.5702 61.14 23.4302 60.76 23.4302 60.31C23.4302 60.1 23.4002 59.88 23.4402 59.7C23.6002 59.1 24.7002 59.26 26.2102 60.07C30.8102 62.36 35.9402 64.21 41.2302 65.76C45.1702 66.87 49.2102 67.8 53.2802 68.49V68.56H53.3002Z" fill="#231F20"/>
<path d="M96.69 21.76C96.74 21.95 96.58 22.1 96.33 22.23C96.25 22.27 96.02 22.26 95.99 22.2C95.92 22.09 95.85 21.98 95.8 21.87C95.78 21.8 95.57 20.73 95.43 20.36C95.33 20 95.23 19.64 95.24 19.29V17.15C95.24 16.99 95.26 16.84 95.31 16.68C95.49 16.16 95.5099 15.62 95.5199 15.08C95.5199 14.99 95.54 14.9 95.47 14.8C95.34 14.64 95.47 13.17 95.57 12.99C95.8 12.55 95.97 12.09 96.18 11.65C96.22 11.59 96.2 11.51 96.32 11.47C96.61 11.38 96.6 11.23 96.66 11.09C96.73 10.9 96.83 10.71 96.96 10.53C97.02 10.44 97.2099 10.38 97.3399 10.31C97.4699 10.25 97.77 10.37 97.8 10.4C97.89 10.51 98.0599 10.48 98.1999 10.5C98.2499 10.5 98.3099 10.52 98.3399 10.53C98.3599 10.53 98.41 10.62 98.49 10.75C98.54 10.88 98.61 11.04 98.67 11.2C98.8 11.53 98.92 11.87 98.91 11.93C98.96 11.97 98.76 13.59 98.78 13.78C98.78 13.88 98.71 13.97 98.65 14.05C98.62 14.09 98.57 15.41 98.55 15.46C98.47 15.72 98.51 16 98.25 16.24C98.2 16.29 98.2 16.34 98.19 16.4C98.13 16.86 97.96 17.31 97.82 17.77C97.75 18 97.73 18.24 97.69 18.48C97.69 18.52 97.6499 18.56 97.6299 18.6C97.6099 18.65 97.57 18.7 97.56 18.76C97.49 19.32 97.31 19.88 97.21 20.44C97.19 20.57 96.8799 21.17 96.8799 21.33C96.8799 21.41 96.64 21.68 96.67 21.76H96.69Z" fill="#231F20"/>
<path d="M103.02 22.14C102.98 22.32 102.74 22.3 102.42 22.22C102.32 22.19 102.08 22.01 102.08 21.94C102.06 21.81 102.04 21.68 102.04 21.56C102.04 21.49 102.35 20.55 102.42 20.2C102.48 19.85 102.66 19.61 102.84 19.35C103.2 18.84 103.55 18.31 103.93 17.8C104.01 17.69 104.12 17.59 104.24 17.51C104.65 17.24 104.97 16.88 105.27 16.5C105.32 16.44 105.39 16.39 105.38 16.27C105.36 16.08 106.29 15.13 106.47 15.06C106.9 14.89 107.27 14.65 107.7 14.5C107.76 14.48 107.79 14.41 107.9 14.46C108.15 14.56 108.24 14.46 108.36 14.39C108.52 14.3 108.7 14.22 108.9 14.18C109 14.16 109.15 14.21 109.27 14.24C109.39 14.27 109.53 14.56 109.53 14.61C109.53 14.74 109.66 14.83 109.75 14.94C109.78 14.98 109.81 15.02 109.83 15.06C109.85 15.12 109.5 16.19 109.45 16.27C109.45 16.31 108.55 17.36 108.47 17.51C108.43 17.58 108.33 17.6 108.24 17.63C108.2 17.64 107.55 18.58 107.52 18.61C107.34 18.76 107.25 18.99 106.93 19.02C106.87 19.02 106.84 19.06 106.81 19.1C106.54 19.41 106.19 19.63 105.87 19.89C105.7 20.02 105.58 20.19 105.43 20.34C105.4 20.37 105.36 20.38 105.32 20.39C105.28 20.41 105.22 20.43 105.19 20.47C104.85 20.83 104.48 21.16 104.16 21.54C104.08 21.62 103.52 21.87 103.44 21.98C103.39 22.04 103.03 22.06 103.02 22.13V22.14Z" fill="#231F20"/>
<path d="M101.96 28.46C101.77 28.52 101.6 28.35 101.44 28.11C101.39 28.03 101.39 27.81 101.44 27.77C101.55 27.69 101.65 27.6 101.76 27.53C101.84 27.5 102.1 27.38 102.4 27.24C102.56 27.16 102.73 27.08 102.89 27C103.04 26.95 103.18 26.91 103.27 26.88C103.63 26.76 103.99 26.7 104.35 26.66L106.56 26.39C106.72 26.37 106.89 26.39 107.05 26.42C107.61 26.54 108.17 26.52 108.73 26.44C108.82 26.44 108.92 26.44 109.01 26.36C109.16 26.2 110.69 26.21 110.89 26.29C111.37 26.47 111.86 26.63 112.33 26.83C112.4 26.86 112.47 26.83 112.53 26.95C112.66 27.22 112.81 27.19 112.96 27.23C113.17 27.28 113.37 27.34 113.57 27.44C113.67 27.49 113.76 27.64 113.85 27.77C113.93 27.88 113.85 28.25 113.82 28.28C113.72 28.39 113.78 28.57 113.77 28.73C113.77 28.78 113.77 28.85 113.76 28.89C113.74 28.97 112.52 29.58 112.39 29.58C112.38 29.58 111.94 29.63 111.48 29.67C111.02 29.7 110.55 29.72 110.45 29.75C110.35 29.77 110.25 29.7 110.15 29.66C110.1 29.64 108.73 29.77 108.68 29.76C108.4 29.71 108.11 29.76 107.84 29.52C107.79 29.47 107.73 29.48 107.67 29.48C107.18 29.47 106.7 29.34 106.21 29.25C105.96 29.2 105.71 29.21 105.46 29.19C105.42 29.19 105.37 29.15 105.32 29.14C105.26 29.12 105.21 29.09 105.15 29.09C104.56 29.07 103.96 28.94 103.37 28.99C103.3 28.99 103.1 28.94 102.9 28.89C102.7 28.8 102.49 28.73 102.41 28.72C102.32 28.7 102.02 28.45 101.94 28.48L101.96 28.46Z" fill="#231F20"/>
</svg>
