<svg width="128" height="128" viewBox="0 0 128 128" fill="none" xmlns="http://www.w3.org/2000/svg">
<path d="M43.88 84.4C51.26 70.89 40.76 34.07 24.8 36.28C16.36 37.45 17.83 55.77 19.32 59.31C20.81 62.85 26.36 79.38 26.36 79.38C26.36 79.38 28.52 85.5 30.9 85.12C33.28 84.74 43.87 84.4 43.87 84.4H43.88Z" fill="#231F20"/>
<path d="M29.3398 94.57C29.3898 95.15 32.6598 106.61 39.5798 105.64C46.2898 104.7 46.1498 96.4 45.5698 94.01C44.9898 91.62 29.3398 94.57 29.3398 94.57Z" fill="#231F20"/>
<path d="M104.81 30.67C96.8999 25.82 76.3999 38.66 81.3499 64.97L82.1599 73.13L97.9099 74.53C97.9099 74.53 103.18 61.07 105 55.24C108.81 43.05 109.57 33.59 104.8 30.67H104.81Z" fill="#231F20"/>
<path d="M81.3702 80.91C80.7602 81.89 78.7402 92.82 85.4802 95.27C92.7702 97.92 96.4202 84.55 95.8802 84.43C95.3402 84.31 81.3702 80.92 81.3702 80.92V80.91Z" fill="#231F20"/>
<path d="M45.5101 45.54C44.8101 42.11 43.7301 38.74 41.8801 35.98C40.9601 34.61 39.8401 33.42 38.5201 32.54C37.2101 31.65 35.6901 31.11 34.0901 30.86C31.8901 30.54 29.6501 31.38 27.7201 32.76C26.0201 33.99 24.5501 35.66 23.4101 37.54C22.2401 39.41 21.3901 41.51 20.9001 43.66C19.8601 48 20.0601 52.71 20.7301 57.28C21.3501 61.35 22.4201 65.39 23.6901 69.3C25.3101 74.34 27.5301 79.17 29.2601 84.18C29.7601 85.74 29.5501 85.66 28.4401 84.64C27.3201 83.63 25.4801 81.56 24.2001 78.71C22.0201 73.63 20.2101 68.38 18.9301 62.95C18.2801 60.24 17.8501 57.46 17.5701 54.65C17.4401 53.24 17.4101 51.82 17.3701 50.4L17.4701 48.25L17.5201 47.18L17.6801 46.1C17.8301 45.24 17.8901 44.38 18.1101 43.52C18.3401 42.67 18.5701 41.81 18.8001 40.95C19.3601 39.27 20.0901 37.64 20.9901 36.09C22.8001 33.02 25.3801 30.16 28.9001 28.7C29.8501 28.28 30.8901 28.05 31.9401 27.9C32.9901 27.82 34.1001 27.84 35.0901 28.05C37.0901 28.4 39.0501 29.23 40.6801 30.45C43.9901 32.91 45.9301 36.54 47.1601 40.13C48.6801 44.6 49.2801 49.24 49.5701 53.83C49.9601 60.8 49.5001 67.78 48.6401 74.62C48.2901 77.28 47.9301 79.9 47.3401 82.55C47.2101 83.06 46.9501 84.31 46.4201 85.02C46.1801 85.47 45.6801 85.5 45.2201 85.56C44.9801 85.58 44.7401 85.62 44.4901 85.62H43.8101C42.5001 85.62 41.2101 85.63 39.9201 85.68C38.7801 85.72 37.6701 85.81 36.5401 85.89C32.3301 86.21 31.0901 86.4 30.0001 85.76C29.7501 85.63 29.4401 85.52 29.2701 85.38C28.6801 84.97 30.3101 83.74 33.5801 83.22C35.9801 82.81 38.4201 82.63 40.8701 82.54C41.9401 82.52 43.0201 82.5 44.1001 82.47C44.1601 82.47 44.1901 82.44 44.1901 82.37C44.1901 82.34 44.1901 82.35 44.2101 82.25L44.4101 81.43C45.4001 76.87 45.9701 71.95 46.3301 67.11C46.8101 59.9 46.8401 52.54 45.4101 45.57L45.4801 45.55L45.5101 45.54Z" fill="#231F20"/>
<path d="M47.9599 100.01C47.8799 101.58 47.6999 103.16 47.3299 104.76C46.9399 106.34 46.4099 107.99 45.2299 109.46C44.4099 110.53 43.0799 111.46 41.6599 111.69C39.3699 112.08 36.9299 111.35 35.2699 109.96C33.5699 108.59 32.4499 106.83 31.5599 105.06C30.7699 103.48 30.1199 101.84 29.5999 100.19C29.2699 99.13 28.9799 98.05 28.7899 96.95C28.6999 96.4 28.6599 95.84 28.6499 95.28C28.6199 94.72 28.6499 94.15 28.7799 93.59C28.9399 92.89 29.1699 93.01 29.5699 93.56C30.0199 94.12 30.6299 95.06 30.9599 96.19C31.3999 98.23 31.9999 100.25 32.8099 102.16C33.6199 104.06 34.6299 105.87 35.9699 107.28C36.7699 108.12 37.7699 108.73 38.8399 108.97C39.8799 109.21 41.1599 109.08 41.9399 108.69C42.8699 108.26 43.5799 107.19 44.0499 105.95C44.5199 104.7 44.7599 103.29 44.8899 101.87C45.0399 100.11 45.0299 98.31 44.8899 96.53L44.7099 94.83C44.6899 94.64 44.6599 94.45 44.6199 94.26C44.5899 94.18 44.5999 94.02 44.4799 94.05C44.3899 94.05 44.2899 94.05 44.1999 94.07L43.6199 94.13L42.7099 94.25C42.0099 94.34 41.3199 94.43 40.6199 94.52C38.4599 94.79 36.3199 95.16 34.0999 95.24C33.6099 95.26 33.1299 95.3 32.6299 95.27C30.7599 95.22 30.2099 94.61 29.9999 93.8C29.9499 93.61 29.8799 93.41 29.8699 93.23C29.8499 92.62 30.6299 92.28 31.8399 92.09C33.6199 92.01 35.4599 91.84 37.3499 91.64C39.2999 91.41 41.2799 91.18 43.2599 90.95L44.3599 90.83L44.9099 90.77C45.0799 90.78 45.2199 90.83 45.3799 90.86C45.6999 90.93 45.9899 91 46.2599 91.08C46.5899 91.1 46.7299 91.41 46.9099 91.61L47.1799 91.96C47.2799 92.08 47.3699 92.19 47.4099 92.38L47.5699 92.88L47.6699 93.43C47.7499 93.79 47.7799 94.17 47.8399 94.54L47.9099 95.27C48.0499 96.86 48.0999 98.43 48.0499 100.02H47.9699L47.9599 100.01Z" fill="#231F20"/>
<path d="M105.79 39.23C105.67 37.55 105.42 35.86 105 34.23C104.62 32.58 104.04 30.98 103.36 29.45C102.69 27.91 101.8 26.49 100.78 25.25C99.7599 24.01 98.5399 22.97 97.2099 22.42L96.4699 22.17C96.2199 22.09 95.9699 22.1 95.7199 22.05C95.5899 22.03 95.4699 22.01 95.3399 22L94.9099 22.02L94.0499 22.04C92.9199 22.18 91.7899 22.41 90.7399 22.88C86.9399 24.42 84.0399 28.03 82.2099 32.01C80.3299 36.02 79.4499 40.51 79.2199 45.02C79.0099 49.03 79.3999 53.1 80.0899 57.07C80.5199 59.63 81.0999 62.17 81.5899 64.76L81.9299 66.72C81.9899 67.39 82.0899 68.05 82.1199 68.73C82.2199 70.07 82.1999 71.49 81.7899 72.86C81.0299 74.55 80.9999 74.09 80.8499 72.72C80.7599 72.37 80.6499 71.96 80.5399 71.51C80.3399 71.05 80.2399 70.55 80.0699 70.01C79.8699 69.45 79.7199 68.88 79.5099 68.23C79.4099 67.91 79.3099 67.58 79.2099 67.25C79.1399 66.9 79.0599 66.55 78.9799 66.19C77.9499 61.05 76.6699 55.69 76.3799 50.17C76.2799 48.79 76.3099 47.4 76.3099 46.02C76.3899 44.63 76.4299 43.24 76.6399 41.85C76.9599 39.08 77.5799 36.32 78.5499 33.67C79.7399 30.52 81.2699 27.37 83.5999 24.68C84.7199 23.31 86.1199 22.13 87.6499 21.15C89.1799 20.16 90.9499 19.51 92.7599 19.22C93.2599 19.14 93.7599 19.06 94.2599 19.07C94.7699 19.07 95.2399 19 95.7899 19.09C96.8799 19.19 97.9199 19.49 98.8599 19.96C100.75 20.89 102.23 22.3 103.43 23.83C104.61 25.38 105.54 27.06 106.32 28.79C107.06 30.53 107.64 32.33 108.07 34.16C108.58 36.42 108.85 38.72 108.88 41.03C108.91 43.35 108.68 45.6 108.38 47.86C107.41 54.68 105.27 61.26 102.62 67.49C101.97 69 101.29 70.49 100.57 71.96C100.2 72.69 99.8299 73.42 99.4199 74.14L99.0999 74.68C98.9899 74.86 98.8999 75.02 98.7099 75.3C98.3599 75.8 97.9899 76.27 97.4999 76.58C97.3299 76.64 97.1599 76.62 96.9899 76.63C96.8199 76.64 96.6499 76.65 96.4599 76.62L95.9099 76.56L95.4099 76.47L93.9799 76.23C93.0299 76.07 92.0899 75.93 91.1399 75.8C90.0299 75.66 88.9499 75.55 87.8399 75.45C83.7199 75.07 82.4899 75.03 81.5399 74.23C81.3199 74.06 81.0399 73.9 80.8999 73.73C80.3999 73.22 82.1699 72.3 85.4199 72.33C87.4299 72.33 89.4399 72.48 91.4499 72.72C92.4499 72.85 93.4599 72.98 94.4699 73.14L95.9699 73.39L96.1299 73.42H96.1499H96.1799C96.1999 73.42 96.2199 73.42 96.2299 73.41C96.2499 73.38 96.2599 73.36 96.2599 73.33V73.31C96.2599 73.31 96.2599 73.31 96.2699 73.29L96.3299 73.19L96.5699 72.79C96.8899 72.24 97.2099 71.67 97.5199 71.08C98.1399 69.9 98.7199 68.68 99.2799 67.44C100.39 64.95 101.4 62.39 102.28 59.78C103.4 56.44 104.32 53.03 104.95 49.57C105.56 46.13 105.93 42.59 105.67 39.25H105.75L105.79 39.23Z" fill="#231F20"/>
<path d="M96.4099 92.11C95.8299 93.6 95.1199 95.07 94.2199 96.46C93.3099 97.85 92.1799 99.2 90.6399 100.2C89.5299 100.92 88.1799 101.46 86.8099 101.51C86.1999 101.54 85.6399 101.48 85.0299 101.37C84.4299 101.26 83.8299 101.05 83.2899 100.76C82.1799 100.2 81.3199 99.3 80.7199 98.36C79.5299 96.45 79.1099 94.41 78.8499 92.43C78.6299 90.67 78.5499 88.91 78.5699 87.17C78.5899 86.06 78.6299 84.94 78.7699 83.83C78.8499 83.28 78.9799 82.73 79.1299 82.18C79.2699 81.64 79.4599 81.1 79.7399 80.6C80.0999 79.97 80.2999 80.15 80.5599 80.8C80.8699 81.47 81.2299 82.56 81.2199 83.75C81.0399 85.85 80.9899 87.98 81.1499 90.06C81.2999 92.13 81.6399 94.2 82.3999 95.95C82.8499 96.99 83.5899 97.85 84.4799 98.24C84.9299 98.45 85.4099 98.55 85.9599 98.56C86.5099 98.59 87.0299 98.52 87.5299 98.39C89.7799 97.81 91.5699 95.38 92.6899 92.82C93.4099 91.22 93.9499 89.51 94.3399 87.77L94.5499 86.78L94.6699 86.17C94.6999 85.98 94.7299 85.79 94.7499 85.59C94.7499 85.5 94.7999 85.36 94.7099 85.32C94.6199 85.28 94.5299 85.27 94.4299 85.25L93.8599 85.15L93.0599 85.03C92.3599 84.93 91.6599 84.84 90.9599 84.74C88.7899 84.42 86.6199 84.23 84.4399 83.71C83.9599 83.6 83.4799 83.51 82.9999 83.35C82.0999 83.09 81.5499 82.74 81.2499 82.37C80.9399 81.99 80.8499 81.62 80.8699 81.16C80.8799 80.95 80.8699 80.73 80.9099 80.54C81.0799 79.91 81.9399 79.76 83.1599 79.88C84.8999 80.26 86.7199 80.58 88.6099 80.87C90.6399 81.18 92.6999 81.5 94.7599 81.81C95.1299 81.86 95.4799 81.94 95.8399 82.01C96.0099 82.05 96.2199 82.06 96.3599 82.13L96.7599 82.37L97.5099 82.82C97.5699 82.87 97.6399 82.9 97.6799 82.96L97.7599 83.17L97.9199 83.56C98.1899 84.06 98.2499 84.76 98.1399 85.51C98.1099 85.88 98.0299 86.25 97.9799 86.62L97.8199 87.48C97.4799 89.06 97.0399 90.6 96.4799 92.13L96.3999 92.11H96.4099Z" fill="#231F20"/>
<path d="M44.4198 24.54C44.5498 24.7 44.3398 24.9 43.9798 25.11C43.8598 25.18 43.4898 25.24 43.4198 25.2C43.2898 25.12 43.1598 25.03 43.0498 24.94C42.9898 24.89 42.4598 23.91 42.2398 23.58C42.0298 23.26 41.8998 22.92 41.7798 22.58C41.6098 21.88 41.4198 21.18 41.2798 20.48C41.2498 20.32 41.2398 20.16 41.2798 20C41.4398 19.44 41.4098 18.9 41.3198 18.36C41.3098 18.27 41.3198 18.18 41.2098 18.09C41.0198 17.95 40.9598 16.46 41.0498 16.27C41.2498 15.79 41.3898 15.32 41.5598 14.85C41.5798 14.78 41.5398 14.71 41.6798 14.65C41.9898 14.52 41.9398 14.37 41.9698 14.23C41.9998 14.03 42.0898 13.83 42.2198 13.64C42.2898 13.55 42.4498 13.46 42.7098 13.38C42.9198 13.31 43.1398 13.37 43.1998 13.4C43.3198 13.5 43.4998 13.44 43.6298 13.44C43.6798 13.44 43.7398 13.44 43.7798 13.44C44.1398 13.48 44.7798 14.61 44.7898 14.73C44.7898 14.74 44.8298 15.15 44.8798 15.57C44.9298 15.99 44.9998 16.43 45.0298 16.52C45.0598 16.61 44.9898 16.71 44.9398 16.8C44.9098 16.85 45.1698 18.1 45.1698 18.15C45.1398 18.41 45.2598 18.67 45.0098 18.94C44.9598 18.99 44.9798 19.05 44.9798 19.1C45.0598 19.55 44.9498 20 44.8798 20.47C44.8498 20.71 44.8798 20.93 44.8798 21.17C44.8798 21.21 44.8398 21.26 44.8298 21.3C44.8098 21.35 44.7798 21.41 44.7798 21.46C44.8298 22.01 44.6998 22.58 44.7798 23.13C44.7798 23.26 44.5798 23.91 44.6098 24.05C44.6198 24.13 44.3498 24.45 44.4098 24.52L44.4198 24.54Z" fill="#231F20"/>
<path d="M49.5199 28.1201C49.4499 28.3401 49.1599 28.3001 48.7599 28.1201C48.6299 28.0601 48.3599 27.7801 48.3599 27.7001C48.3599 27.5401 48.3599 27.3801 48.3899 27.2301C48.4099 27.1501 48.9999 26.1201 49.1799 25.7501C49.3499 25.3901 49.5799 25.0801 49.8299 24.7701C50.3499 24.1801 50.8699 23.5701 51.4399 22.9901C51.5699 22.8601 51.7099 22.7501 51.8799 22.6701C52.4599 22.3801 52.9299 21.9801 53.4099 21.5501C53.4899 21.4801 53.5899 21.4301 53.6199 21.2901C53.6499 21.0401 55.1799 20.1101 55.4399 20.1001C56.0399 20.0301 56.5899 19.8701 57.1899 19.8701C57.2699 19.8701 57.3399 19.8101 57.4499 19.9001C57.6999 20.1201 57.8399 20.0101 58.0199 20.0201C58.2599 20.0201 58.5099 20.0601 58.7599 20.1001C58.8799 20.1301 59.0299 20.2301 59.1499 20.3001C59.2699 20.3601 59.2799 20.6401 59.2599 20.6901C59.1899 20.8101 59.2999 20.9201 59.3399 21.0301C59.3499 21.0701 59.3699 21.1201 59.3699 21.1501C59.3699 21.1801 59.1299 21.4701 58.8999 21.7901C58.7799 21.9501 58.6799 22.1301 58.5899 22.2701C58.4999 22.3901 58.4199 22.4601 58.3899 22.4701C58.3499 22.4901 56.9499 23.3501 56.8199 23.4801C56.7499 23.5501 56.6299 23.5401 56.5299 23.5401C56.4699 23.5301 55.4699 24.3901 55.4399 24.4201C55.1899 24.5301 55.0199 24.7601 54.6499 24.7201C54.5799 24.7201 54.5399 24.7501 54.4899 24.7901C54.1199 25.0901 53.6699 25.3101 53.2399 25.5801C53.0199 25.7201 52.8399 25.9001 52.6399 26.0601C52.5999 26.0901 52.5499 26.1001 52.4999 26.1201C52.4399 26.1501 52.3799 26.1601 52.3399 26.2001C51.8899 26.6201 51.3399 26.9401 50.9199 27.4001C50.8199 27.5001 50.1399 27.8001 50.0399 27.9401C49.9799 28.0101 49.5399 28.0101 49.5099 28.1001L49.5199 28.1201Z" fill="#231F20"/>
<path d="M98.4499 114.11C98.5299 114.3 98.3199 114.46 97.9999 114.6C97.8899 114.65 97.5799 114.64 97.5299 114.58C97.4299 114.47 97.3399 114.37 97.2599 114.26C97.2199 114.19 96.8899 113.14 96.7199 112.8C96.5699 112.46 96.4699 112.14 96.4199 111.81C96.3099 111.15 96.0699 110.52 95.9499 109.92C95.9199 109.78 95.9099 109.65 95.9299 109.51C95.9999 109.02 95.8599 108.56 95.6399 108.15C95.6099 108.08 95.5899 108 95.4699 107.97C95.2899 107.9 94.7299 106.83 94.6799 106.67C94.6399 106.23 94.4999 105.83 94.3699 105.41C94.3499 105.35 94.2799 105.32 94.3399 105.21C94.4899 104.94 94.3699 104.86 94.3199 104.73C94.2299 104.56 94.1499 104.38 94.1099 104.17C94.0899 104.07 94.1499 103.89 94.1899 103.73C94.2199 103.59 94.5599 103.36 94.6099 103.35C94.7699 103.34 94.8699 103.15 94.9899 103.04C95.0299 103 95.0899 102.95 95.1199 102.92C95.1799 102.86 96.5899 103.31 96.6599 103.46C96.6999 103.46 97.8699 104.96 97.9899 105.16C98.0699 105.25 98.0599 105.38 98.0699 105.51C98.0699 105.54 98.2899 105.88 98.4799 106.23C98.6699 106.59 98.8599 106.96 98.8599 106.99C98.9199 107.31 99.1199 107.6 98.9599 107.97C98.9299 108.04 98.9599 108.1 98.9799 108.16C99.1399 108.68 99.1399 109.24 99.1399 109.77C99.1599 110.04 99.1699 110.31 99.1699 110.57C99.1699 110.62 99.1399 110.67 99.1299 110.72C99.1099 110.78 99.0799 110.84 99.0899 110.9C99.0899 111.52 98.9899 112.13 98.9799 112.72C98.9799 112.86 98.6999 113.51 98.7099 113.67C98.7099 113.76 98.4299 114.04 98.4699 114.12L98.4499 114.11Z" fill="#231F20"/>
<path d="M109.78 100.85C110.02 100.82 110.03 101.16 109.87 101.63C109.82 101.78 109.55 102.17 109.48 102.2C109.34 102.27 109.2 102.34 109.09 102.39C109.01 102.39 108.22 102.39 107.94 102.5C107.67 102.58 107.43 102.58 107.17 102.59C106.65 102.57 106.08 102.7 105.48 102.69C105.34 102.69 105.21 102.66 105.08 102.6C104.62 102.39 104.1 102.37 103.56 102.39C103.47 102.39 103.38 102.37 103.28 102.47C103.2 102.55 102.77 102.58 102.34 102.48C101.91 102.4 101.46 102.23 101.37 102.16C100.93 101.78 100.47 101.44 100.08 101.01C100.03 100.95 99.9301 100.94 99.9401 100.79C99.9701 100.45 99.8101 100.4 99.7001 100.27C99.5401 100.11 99.4101 99.91 99.3301 99.68C99.2901 99.56 99.3501 99.37 99.3901 99.21C99.4301 99.06 99.8001 98.83 99.8501 98.82C100.01 98.79 100.12 98.61 100.26 98.49C100.31 98.45 100.37 98.4 100.41 98.37C100.46 98.34 100.76 98.35 101.04 98.31C101.32 98.28 101.57 98.21 101.6 98.23C101.6 98.23 101.84 98.31 102.11 98.35C102.38 98.39 102.7 98.39 102.77 98.38C102.84 98.37 102.89 98.45 102.94 98.51C102.96 98.53 103.95 98.46 103.99 98.48C104.19 98.55 104.41 98.48 104.61 98.76C104.65 98.82 104.7 98.81 104.74 98.81C105.14 98.81 105.56 98.95 106 99.06C106.22 99.11 106.45 99.13 106.69 99.17C106.73 99.17 106.77 99.22 106.81 99.25C106.86 99.28 106.91 99.33 106.96 99.33C107.52 99.42 108.07 99.68 108.67 99.8C108.82 99.83 109.36 100.33 109.51 100.38C109.6 100.41 109.71 100.86 109.8 100.85H109.78Z" fill="#231F20"/>
</svg>
