<svg width="128" height="128" viewBox="0 0 128 128" fill="none" xmlns="http://www.w3.org/2000/svg">
<path d="M56.0002 45.1199C54.1214 43.3405 52.1161 41.6996 50.0002 40.2099C49.7569 40.0376 49.5031 39.8806 49.2402 39.7399C48.9002 39.5699 49.0302 39.5799 48.8802 39.5799L47.0002 39.6899L46.0002 39.7599L45.0602 39.9299L43.1702 40.2699C41.3561 40.7419 39.5782 41.3435 37.8502 42.0699L36.6902 42.5299L35.5602 43.0699C34.8102 43.4499 34.0502 43.7899 33.3102 44.1799C31.8702 45.0299 30.3902 45.8199 29.0102 46.7899C26.1805 48.6446 23.5051 50.7247 21.0102 53.0099L19.3602 54.5499C18.8202 55.0699 18.3102 55.6299 17.7902 56.1699C16.7302 57.2299 15.7902 58.3999 14.7902 59.5199C12.46 62.514 10.2935 65.6319 8.3002 68.8599C7.6502 69.8599 7.2002 69.4499 7.2002 68.2799C7.21939 67.5043 7.3542 66.7358 7.6002 65.9999C7.95006 65.0252 8.42037 64.098 9.0002 63.2399C11.2959 59.924 13.8972 56.8304 16.7702 53.9999C19.6314 51.1359 22.7476 48.5385 26.0802 46.2399C30.12 43.3281 34.52 40.9517 39.1702 39.1699C41.787 38.2633 44.5091 37.6953 47.2702 37.4799L48.2702 37.4099H48.8402C49.0702 37.4099 49.3702 37.2999 49.5902 37.4999L50.7002 37.9999C51.0202 38.1799 51.2802 38.3899 51.5702 38.5799C52.1602 38.9699 52.7102 39.3799 53.2402 39.8099C53.7702 40.2399 54.3202 40.6499 54.8302 41.0899C57.3802 43.2399 59.8302 45.5199 62.1502 47.8499C65.7202 51.3799 69.1502 55.0899 72.4302 58.8499C74.9802 61.7499 77.5302 64.5699 79.9402 67.5599C80.4702 68.2099 80.9402 68.8699 81.5002 69.5599C83.4102 72.0799 83.7902 73.0499 83.6802 73.9299C83.6694 74.1324 83.6393 74.3333 83.5902 74.5299C83.3602 75.0399 82.3102 74.1999 80.9202 72.4099C76.6702 67.1599 72.0902 61.6999 67.2202 56.4099C63.6002 52.5199 59.8902 48.6699 55.9402 45.1299L56.0002 45.1199Z" fill="#231F20"/>
<path d="M79.4 17.21C78.06 17.58 76.76 18.06 75.46 18.53C74.16 19 72.9 19.53 71.61 20.12C70.67 20.5 69.83 21.12 68.92 21.52C65.7196 23.0874 62.7238 25.042 60 27.34L59.09 28.11C58.8 28.37 58.55 28.67 58.27 28.96L56.68 30.7L55 33.16C54.5069 34.0206 53.9695 34.855 53.39 35.66C53.01 36.16 52.48 35.84 52.22 35.08C52.0614 34.5709 52.0098 34.0345 52.0683 33.5045C52.1268 32.9745 52.2942 32.4623 52.56 32C55.0086 28.344 58.2314 25.2714 62 23C63.08 22.27 64.22 21.6 65.35 20.9C66.48 20.2 67.65 19.55 68.81 18.9C69.97 18.25 71.45 17.69 72.81 17.08C74.17 16.47 75.52 16.08 76.87 15.54L79.42 14.75C80.26 14.47 81.12 14.24 81.98 14.03L83.98 13.54C84.64 13.38 85.3 13.27 85.98 13.14C86.66 13.01 87.3 12.86 87.98 12.75L89.98 12.45C90.98 12.26 92.03 12.14 93.05 12C93.56 11.94 94.05 11.85 94.59 11.8L96.15 11.7C96.61 11.7 97.06 11.63 97.52 11.62C99.25 11.72 99.8 11.94 100.07 12.62C100.146 12.7668 100.206 12.9209 100.25 13.08C100.34 13.58 99.62 13.93 98.44 13.98C94.8062 14.1666 91.1884 14.5909 87.61 15.25C86.26 15.55 84.89 15.77 83.55 16.16L81.55 16.68L79.55 17.3L79.4 17.21Z" fill="#231F20"/>
<path d="M110.88 40.71L107.74 35.18C107.35 34.51 106.93 33.85 106.56 33.18C105.27 30.77 104.02 28.33 102.9 25.81C102.41 24.7 101.9 23.58 101.45 22.44C100.737 20.9825 100.394 19.3718 100.45 17.75C100.45 17.23 100.83 17.35 101.18 17.75C101.624 18.2708 101.963 18.8716 102.18 19.52C103.23 22.4114 104.438 25.2424 105.8 28C106.57 29.72 107.63 31.38 108.59 33.05L111.82 38.55L113.82 41.92C114.82 43.62 115.82 45.35 116.91 47.02C117.73 48.32 118.63 49.54 119.44 50.84C119.62 51.14 119.8 51.41 119.96 51.71C120.58 52.82 120.5 53.33 120.25 53.71C120.194 53.808 120.131 53.9016 120.06 53.99C119.83 54.23 119.35 53.89 118.74 53.21C117.12 51.07 115.67 48.65 114.14 46.21C113.02 44.41 111.92 42.58 110.82 40.74L110.88 40.71Z" fill="#231F20"/>
<path d="M104.44 58.1699C102.363 58.8795 100.355 59.7765 98.4404 60.8499C97.7204 61.2299 97.0804 61.7299 96.4404 62.1399C94.0048 63.6584 91.7532 65.4537 89.7304 67.4899C88.8444 68.418 88.0414 69.4219 87.3304 70.4899C86.4304 71.8399 85.6904 73.2799 84.7304 74.5999C84.4204 75.0099 83.8904 74.6799 83.5704 74.0099C83.3742 73.6072 83.2789 73.1628 83.2928 72.7151C83.3068 72.2673 83.4295 71.8297 83.6504 71.4399C85.468 68.3639 87.8738 65.676 90.7304 63.5299C92.4204 62.2599 94.0904 60.8299 95.9304 59.6899C97.941 58.4455 100.06 57.3845 102.26 56.5199C103.616 55.9915 104.997 55.5342 106.4 55.1499C108.535 54.5888 110.718 54.2306 112.92 54.0799C114.642 53.9089 116.379 53.9525 118.09 54.2099C118.481 54.2559 118.866 54.3396 119.24 54.4599C120.66 54.9099 121 55.3799 120.93 56.0699C120.921 56.2278 120.901 56.3848 120.87 56.5399C120.69 57.0299 120.06 57.0599 119.21 56.8599C116.489 56.2643 113.678 56.1964 110.93 56.6599C108.759 56.9791 106.625 57.5151 104.56 58.2599L104.44 58.1699Z" fill="#231F20"/>
<path d="M105.06 59.7899C103.213 60.5596 101.433 61.4829 99.7401 62.5499C99.1201 62.9399 98.5301 63.3699 97.9301 63.7899C95.777 65.2441 93.7499 66.8765 91.8701 68.6699C91.0463 69.4752 90.2652 70.323 89.5301 71.2099C88.6043 72.3252 87.7588 73.5049 87.0001 74.7399C86.7801 75.1199 86.6001 75.0099 86.5601 74.5499C86.5397 73.8447 86.7275 73.1491 87.1001 72.5499C88.7497 69.9031 90.8636 67.5757 93.3401 65.6799C94.7901 64.5199 96.2501 63.2599 97.8201 62.1899C99.5385 60.9887 101.347 59.9222 103.23 58.9999C104.398 58.4514 105.597 57.9706 106.82 57.5599C108.676 56.9353 110.599 56.5358 112.55 56.3699C114.061 56.2083 115.587 56.2419 117.09 56.4699C117.428 56.5081 117.762 56.5716 118.09 56.6599C118.533 56.7525 118.954 56.929 119.33 57.1799C119.534 57.3094 119.678 57.5144 119.73 57.7499C119.76 57.8472 119.777 57.9481 119.78 58.0499C119.78 58.3599 119.22 58.4099 118.41 58.2099C117.171 57.9593 115.913 57.8088 114.65 57.7599C113.35 57.7496 112.052 57.8533 110.77 58.0699C108.82 58.4263 106.917 59.0068 105.1 59.7999L105.06 59.7899Z" fill="#231F20"/>
<path d="M103.7 63.7C102.92 64.03 102.13 64.32 101.37 64.7C100.595 65.0452 99.837 65.429 99.1 65.85C98.56 66.14 98.04 66.48 97.52 66.85C95.6337 67.9673 93.8382 69.2312 92.15 70.63C91.4073 71.2503 90.7058 71.9184 90.05 72.63C89.63 73.09 89.2 73.53 88.8 74C88.4029 74.4803 87.9789 74.9377 87.53 75.37C86.96 75.91 86.68 74.45 87.59 73.25C89.2673 71.2327 91.2236 69.465 93.4 68C94.06 67.58 94.71 67.11 95.4 66.63L97.4 65.3C98.16 64.87 98.93 64.42 99.71 64.01C100.49 63.6 101.28 63.21 102.1 62.88L103.6 62.25L105.13 61.69C105.9 61.4 106.71 61.22 107.49 60.97C108.27 60.72 109.1 60.59 109.9 60.44C111.151 60.1761 112.422 60.0222 113.7 59.98C113.99 59.98 114.27 59.98 114.56 59.98C115.64 60.11 115.94 60.41 116.06 60.78C116.099 60.859 116.126 60.9432 116.14 61.03C116.14 61.15 116.05 61.24 115.84 61.32C115.575 61.4317 115.287 61.4796 115 61.46C112.826 61.438 110.659 61.6934 108.55 62.22C107.73 62.39 106.93 62.68 106.12 62.89C105.31 63.1 104.51 63.43 103.73 63.78L103.7 63.7Z" fill="#231F20"/>
<path d="M30.4901 87.09C33.0635 89.09 35.5801 91.1367 38.0401 93.23C38.9401 94 39.8801 94.72 40.7501 95.52C42.3001 96.92 43.7501 98.39 45.2601 99.88C45.9901 100.62 46.6901 101.41 47.4101 102.17L48.4101 103.36L48.9001 103.92L49.1201 104.2L49.2901 104.42L49.6701 104.9C49.6701 104.9 49.7301 104.99 49.7701 105V104.85L49.8401 104.56C49.8901 104.36 49.9501 104.16 50.0101 103.98L50.1001 103.7L50.3601 103.11C50.8845 101.926 51.6313 100.853 52.5601 99.95C53.5179 99.0444 54.7033 98.4154 55.9901 98.13C56.8001 97.98 56.7801 98.63 56.4001 99.37C55.9423 100.244 55.3289 101.026 54.5901 101.68C53.665 102.487 52.9335 103.492 52.4501 104.62C52.4501 104.62 52.3501 104.86 52.2801 105.03C52.2101 105.2 52.1501 105.37 52.0901 105.56C51.9701 105.91 51.8701 106.29 51.7701 106.67L51.6101 107.24C51.5046 107.311 51.3943 107.374 51.2801 107.43L50.7101 107.5H50.3401H50.2501C50.2501 107.35 50.5201 108.85 50.3901 108.21H50.3201L50.0301 108.09L48.8801 107.6C48.3101 106.9 47.7801 106.21 47.1901 105.52L46.3101 104.52C45.7501 103.82 45.1401 103.16 44.5501 102.52C42.5637 100.387 40.4427 98.3824 38.2001 96.52C35.7801 94.41 33.2901 92.35 30.7501 90.37C29.1801 89.15 27.6101 87.94 25.9901 86.78C23.5701 85.01 21.0401 83.33 18.5701 81.6C16.6401 80.26 14.7001 79.02 12.8201 77.6C12.4101 77.3 11.9901 77.01 11.5901 76.68C10.1001 75.45 9.77012 74.87 9.92012 74.13C9.93442 73.9592 9.97142 73.791 10.0301 73.63C10.2501 73.15 11.0301 73.4 12.1701 74.2C15.4601 76.48 19.0001 79 22.5301 81.37C25.2001 83.14 27.9201 85.08 30.5301 87.03L30.4901 87.09Z" fill="#231F20"/>
<path d="M52.0503 103.9C52.4203 103.42 52.8003 102.9 53.1903 102.48C53.3303 102.31 53.4503 102.13 53.6003 101.96C54.1458 101.385 54.7415 100.859 55.3803 100.39C55.6703 100.19 55.9603 99.9701 56.2803 99.7801C56.4941 99.6376 56.7354 99.5416 56.9887 99.4986C57.242 99.4555 57.5015 99.4662 57.7503 99.5301C57.9103 99.5301 57.8203 99.8201 57.6903 100.06C57.5603 100.3 57.4403 100.54 57.2903 100.61C56.6188 100.913 55.9846 101.292 55.4003 101.74C55.0207 102.073 54.6848 102.453 54.4003 102.87C54.0303 103.3 53.6703 103.76 53.3303 104.23C53.1203 104.52 52.9203 104.82 52.7203 105.12C52.4188 105.572 52.1417 106.039 51.8903 106.52C51.7003 106.9 51.6003 107.31 51.4503 107.7C51.4248 107.785 51.3947 107.868 51.3603 107.95C51.2103 108.26 51.0903 108.33 50.7903 108.27H50.5903C50.479 108.237 50.3846 108.163 50.3268 108.062C50.2691 107.962 50.2524 107.843 50.2803 107.73C50.4067 106.93 50.6814 106.16 51.0903 105.46C51.3903 104.94 51.7303 104.46 52.0903 103.93L52.0503 103.9Z" fill="#231F20"/>
<path d="M34.5804 98.5499L28.8304 93.9999C28.1204 93.4699 27.3904 92.9999 26.6704 92.4599C25.4104 91.5399 24.1204 90.6499 22.8204 89.7799C21.5204 88.9099 20.2304 88.0199 18.8804 87.2299C17.6904 86.5099 16.4804 85.8099 15.2804 85.1299C13.7304 84.2699 12.1904 83.3699 10.7204 82.3699C10.2704 82.0499 10.4304 81.8999 10.9404 81.9399C11.7474 82.0203 12.5315 82.2545 13.2504 82.6299C14.8904 83.4399 16.4704 84.3499 18.0404 85.2699C19.6104 86.1899 21.1904 87.1199 22.6904 88.1799C24.4904 89.4299 26.4404 90.6399 28.2704 91.9499C30.2704 93.4099 32.1904 94.9499 34.1404 96.4499L37.7304 99.2599C39.5304 100.69 41.2904 102.19 43.0004 103.71C44.3304 104.9 45.6704 106.02 46.9004 107.29C47.1804 107.56 47.4504 107.83 47.7204 108.12C48.7204 109.22 48.8604 109.66 48.8304 110.12C48.8413 110.216 48.8413 110.314 48.8304 110.41C48.7404 110.66 48.2004 110.35 47.4304 109.64C45.1204 107.55 42.8004 105.31 40.3004 103.19C38.4404 101.61 36.5371 100.07 34.5904 98.5699L34.5804 98.5499Z" fill="#231F20"/>
<path d="M34.3604 100.39C32.5304 99.12 30.6904 97.86 28.8204 96.64C28.1504 96.19 27.4404 95.8 26.7504 95.35C24.3504 93.7833 21.9237 92.2533 19.4704 90.76C18.3804 90.1 17.2704 89.47 16.1704 88.84C14.7504 88.04 13.3104 87.29 11.9504 86.35C11.5304 86.05 11.7204 85.9 12.2004 85.92C12.9425 85.984 13.6638 86.1983 14.3204 86.55C15.7904 87.32 17.2604 88.1 18.7004 88.93C20.1404 89.76 21.5604 90.65 22.9704 91.57C24.6404 92.67 26.4704 93.68 28.2004 94.78C30.1104 96 32.0004 97.24 33.8604 98.52C35.0104 99.29 36.1304 100.12 37.2704 100.92C38.9704 102.15 40.6604 103.44 42.2704 104.76C42.9204 105.24 43.5204 105.76 44.1504 106.29L45.0904 107.07L45.9604 107.92L46.7304 108.68C47.5704 109.76 47.7304 110.2 47.6404 110.59C47.648 110.673 47.648 110.757 47.6404 110.84C47.5604 111.03 47.0104 110.75 46.4004 110.07C44.3198 108.036 42.1156 106.132 39.8004 104.37L37.1204 102.37L34.3704 100.43L34.3604 100.39Z" fill="#231F20"/>
<path d="M79.6102 30.44C80.674 30.006 81.7626 29.6354 82.8702 29.33C83.2602 29.2 83.6602 29.07 84.0702 28.97C85.494 28.6411 86.9368 28.4006 88.3902 28.25L90.3202 28C90.7302 28 91.1402 27.91 91.5502 27.88C91.9645 27.8701 92.3789 27.8901 92.7902 27.94C93.3002 28 92.6502 28.94 91.7902 29.08C90.1702 29.23 88.5802 29.42 86.9502 29.62C85.9601 29.7793 84.9862 30.027 84.0402 30.36C82.9815 30.6713 81.94 31.0384 80.9202 31.46C80.2902 31.72 79.6702 31.99 79.0602 32.3C78.135 32.7513 77.2457 33.2728 76.4002 33.86C75.7791 34.3434 75.1911 34.868 74.6402 35.43L74.2802 35.8C73.8202 36.24 73.6002 36.3 73.2202 36.1L72.9302 36C72.6602 35.82 72.6802 35.44 72.9902 35C73.9491 33.7842 75.1342 32.7655 76.4802 32C77.479 31.399 78.5181 30.8677 79.5902 30.41L79.6102 30.44Z" fill="#231F20"/>
<path d="M82.6804 39.27C83.4704 38.87 84.2904 38.52 85.1004 38.19C85.4004 38.07 85.6804 37.92 85.9904 37.81C87.0504 37.43 88.1404 37.11 89.2204 36.81C89.7004 36.68 90.2204 36.54 90.6504 36.39C91.2465 36.1647 91.874 36.0332 92.5104 36C92.9104 36 92.6104 37 91.9604 37.27C90.7704 37.64 89.5804 37.98 88.3504 38.27C87.6116 38.4888 86.8951 38.7768 86.2104 39.13C85.4404 39.47 84.6704 39.83 83.9204 40.23C83.4504 40.47 82.9904 40.72 82.5504 41C81.8547 41.398 81.1865 41.8423 80.5504 42.33C80.1021 42.7382 79.678 43.1723 79.2804 43.63L79.0004 44C78.6504 44.35 78.4704 44.38 78.1104 44.16L77.9004 44C77.8391 43.9491 77.7889 43.8864 77.7525 43.8155C77.7162 43.7447 77.6946 43.6672 77.689 43.5878C77.6834 43.5084 77.6939 43.4287 77.7199 43.3534C77.7459 43.2782 77.7869 43.209 77.8404 43.15C78.5121 42.1675 79.372 41.3279 80.3704 40.68C81.1084 40.1702 81.8728 39.6995 82.6604 39.27H82.6804Z" fill="#231F20"/>
<path d="M32.8201 59.55C33.9501 58.69 35.1101 57.85 36.3101 57.08C36.7501 56.8 37.1701 56.49 37.6201 56.23C38.4201 55.77 39.2401 55.36 40.0201 54.93C40.8001 54.5 41.6101 54.07 42.4401 53.66C43.2701 53.25 43.9001 52.94 44.6701 52.66C45.6633 52.1788 46.7805 52.0147 47.8701 52.19C48.2201 52.27 48.1001 52.55 47.8101 52.82C47.4757 53.1351 47.0659 53.3589 46.6201 53.47C44.7208 54.024 42.8971 54.8099 41.1901 55.81C40.0801 56.39 38.9901 57.11 37.9401 57.81C36.8901 58.51 35.6501 59.37 34.5401 60.22C33.8734 60.74 33.2068 61.28 32.5401 61.84C31.5401 62.68 30.5401 63.56 29.6601 64.49C28.9601 65.21 28.3401 65.99 27.6601 66.75C27.5201 66.91 27.3901 67.09 27.2401 67.25C26.6901 67.85 26.4401 67.98 26.0401 67.86C25.9517 67.8392 25.8648 67.8125 25.7801 67.78C25.5201 67.65 25.5701 67.25 25.9001 66.72C26.9249 65.131 28.1443 63.6764 29.5301 62.39C30.5301 61.39 31.6601 60.46 32.7801 59.56L32.8201 59.55Z" fill="#231F20"/>
<path d="M69.9404 82.8C69.9075 83.8739 70.0015 84.948 70.2204 86C70.2738 86.251 70.344 86.4983 70.4304 86.74C70.4978 86.975 70.5882 87.2027 70.7004 87.42C70.7969 87.6311 70.9142 87.8321 71.0504 88.02L71.1304 88.14L71.2004 88.21C71.2704 88.27 71.3404 88.36 71.4004 88.38C71.4604 88.4 71.5604 88.5 71.6204 88.49C71.6804 88.48 71.7104 88.49 71.8304 88.42C72.1826 88.1491 72.4754 87.8087 72.6904 87.42C73.2543 86.4594 73.7425 85.4564 74.1504 84.42C74.8104 82.86 75.3304 81.22 76.1504 79.6C76.4205 78.9984 76.7558 78.4283 77.1504 77.9C77.4004 77.4883 77.7837 77.1745 78.2367 77.0108C78.6897 76.8471 79.185 76.8433 79.6404 77C80.3551 77.3587 80.955 77.9104 81.3721 78.5926C81.7893 79.2749 82.0069 80.0603 82.0004 80.86C82.0556 82.157 81.9345 83.4555 81.6404 84.72C81.3804 85.95 81.0304 87.14 80.7104 88.3C80.6304 88.59 80.5604 88.86 80.5004 89.14C80.4404 89.42 80.3404 89.79 80.2404 90.08C80.0504 90.69 79.8304 91.27 79.6304 91.84C78.6052 94.2128 78.2025 96.808 78.4604 99.38C78.7162 100.977 79.2873 102.506 80.1404 103.88L80.8004 105C81.0299 105.404 81.2272 105.825 81.3904 106.26C81.6573 107.032 81.9713 107.787 82.3304 108.52C82.5604 108.91 82.6304 109.09 82.5204 109.21C82.4104 109.33 82.0804 109.31 81.6304 109.02C81.0772 108.612 80.6028 108.107 80.2304 107.53C80.0004 107.2 79.7804 106.84 79.5504 106.53C79.4404 106.35 79.3304 106.2 79.2204 106.05C79.1104 105.9 78.9804 105.73 78.8304 105.5C77.7136 103.94 76.9493 102.155 76.5904 100.27C76.272 98.3764 76.3366 96.4381 76.7804 94.57C77.2499 92.8557 77.8073 91.1668 78.4504 89.51C78.5104 89.31 78.5504 89.14 78.6004 88.95L78.7804 88.28L79.1504 87C79.4004 86.17 79.6404 85.34 79.8404 84.52C80.1321 83.4214 80.2601 82.2859 80.2204 81.15C80.1989 80.6485 80.08 80.156 79.8704 79.7C79.7752 79.5086 79.6465 79.3359 79.4904 79.19C79.4104 79.12 79.3604 79.02 79.2604 78.98L79.1104 78.89C79.0463 78.852 78.97 78.8401 78.8974 78.8569C78.8248 78.8736 78.7614 78.9177 78.7204 78.98C78.6234 79.0876 78.5333 79.2011 78.4504 79.32C78.3504 79.49 78.2404 79.65 78.1404 79.84C77.7337 80.6229 77.3698 81.4275 77.0504 82.25C76.265 84.5413 75.2603 86.7515 74.0504 88.85C73.6497 89.4942 73.0643 90.0029 72.3704 90.31C71.925 90.4737 71.4359 90.4737 70.9904 90.31C70.6104 90.1754 70.2677 89.9526 69.9904 89.66C69.084 88.6309 68.4998 87.3582 68.3104 86C67.8975 82.9977 68.0535 79.9445 68.7704 77C69.048 75.6437 69.4155 74.3074 69.8704 73C69.9904 72.68 70.1104 72.36 70.2404 72L70.5404 71.27C70.6104 71.1 70.6904 70.93 70.7504 70.75C70.8104 70.57 70.9304 70.34 70.7504 70.23C70.3104 69.92 69.7504 70.23 69.4404 70.56C69.3399 70.6494 69.2463 70.7463 69.1604 70.85C69.026 71.0001 68.8991 71.157 68.7804 71.32C68.5314 71.6375 68.3042 71.9716 68.1004 72.32C66.4911 75.1799 65.5637 78.3728 65.3904 81.65C65.3904 82.37 65.3904 83.06 65.3904 83.77C65.5604 86.38 65.7304 87.19 65.5704 87.87C65.547 88.0286 65.5136 88.1856 65.4704 88.34C65.3904 88.52 65.2004 88.34 64.8804 87.93C64.4204 87.2393 64.0822 86.4749 63.8804 85.67C63.2551 82.468 63.4617 79.1592 64.4804 76.06C64.9636 74.4532 65.6349 72.9092 66.4804 71.46C66.6971 71.084 66.9341 70.7201 67.1904 70.37C67.3304 70.19 67.4504 70.01 67.6004 69.84L67.8304 69.57C67.9494 69.4358 68.0763 69.309 68.2104 69.19C68.4783 68.9193 68.777 68.681 69.1004 68.48C69.3829 68.2873 69.6932 68.139 70.0204 68.04C70.5858 67.8533 71.1993 67.8746 71.7504 68.1C71.9704 68.21 72.1804 68.33 72.4004 68.46C72.6604 68.85 72.8804 69 72.9204 69.39C72.9791 69.848 72.917 70.3133 72.7404 70.74C72.5704 71.24 72.3204 71.84 72.1404 72.27L71.8304 73.05C71.4311 74.0676 71.0971 75.1097 70.8304 76.17C70.2896 78.2964 69.9878 80.4766 69.9304 82.67L69.9404 82.8Z" fill="#231F20"/>
<path d="M60.0902 78.32C60.045 76.65 60.1218 74.9788 60.3202 73.32C60.3751 72.6948 60.4686 72.0736 60.6002 71.46C60.7633 70.7721 60.9945 70.1021 61.2902 69.46C61.4424 69.1085 61.63 68.7734 61.8502 68.46C62.1004 68.0819 62.4073 67.7446 62.7602 67.46C62.8789 67.3707 63.0104 67.2999 63.1502 67.25C63.2824 67.1788 63.4301 67.141 63.5802 67.14C63.8782 67.1316 64.1736 67.1968 64.4402 67.33C64.7 67.4562 64.9366 67.6252 65.1402 67.83C65.3097 67.9892 65.4606 68.167 65.5902 68.36C66.1789 69.2092 66.5904 70.1683 66.8002 71.18C67.1407 72.4132 67.1199 73.7183 66.7402 74.94C66.6202 75.31 66.2902 75.18 65.9602 74.82C65.7731 74.6181 65.618 74.3888 65.5002 74.14C65.3348 73.8857 65.2383 73.5928 65.2202 73.29C65.195 72.2619 64.9885 71.2463 64.6102 70.29C64.4751 69.8619 64.2689 69.4596 64.0002 69.1C63.9202 69 63.9402 69.01 63.9202 68.99C63.9107 68.9623 63.8934 68.938 63.8702 68.92C63.8444 68.9051 63.8151 68.8972 63.7852 68.8972C63.7554 68.8972 63.7261 68.9051 63.7002 68.92C63.7002 68.92 63.5602 69.04 63.4602 69.13L63.1902 69.5C63.0257 69.7795 62.8884 70.0742 62.7802 70.38C62.5579 71.0322 62.3874 71.701 62.2702 72.38C62.0105 73.9598 61.8867 75.559 61.9002 77.16C61.9002 78.16 61.9002 79.16 62.0002 80.16C62.1028 81.6754 62.2864 83.1842 62.5502 84.68C62.7911 85.816 63.0949 86.9377 63.4602 88.04C63.5302 88.28 63.6302 88.52 63.6802 88.77C63.9102 89.69 63.8702 90.01 63.5202 90.32C63.4453 90.3956 63.3651 90.4658 63.2802 90.53C62.9902 90.71 62.6102 90.41 62.2802 89.75C61.4054 87.7059 60.8262 85.5475 60.5602 83.34C60.3171 81.6828 60.1636 80.0137 60.1002 78.34L60.0902 78.32Z" fill="#231F20"/>
<path d="M56.27 84.1601C55.95 83.0801 55.66 81.99 55.4 80.89C55.3 80.49 55.17 80.09 55.09 79.68C54.9512 78.9437 54.8643 78.1985 54.83 77.45C54.816 77.0424 54.8361 76.6343 54.89 76.2301C54.9765 75.7935 55.1426 75.3765 55.38 75C55.6034 74.592 55.9547 74.2687 56.38 74.08C56.6051 74.004 56.8438 73.9771 57.0802 74.0013C57.3165 74.0254 57.5449 74.1 57.75 74.22C58.1673 74.4568 58.5451 74.757 58.87 75.11C59.1599 75.3999 59.3969 75.7384 59.57 76.11C59.68 76.35 59.41 76.51 59.01 76.56C58.7941 76.5999 58.5725 76.5966 58.3579 76.5502C58.1434 76.5039 57.9401 76.4155 57.76 76.29C57.5356 76.0699 57.2874 75.8753 57.02 75.71C57.02 75.71 57.02 75.71 56.96 75.71C56.8734 75.8215 56.7997 75.9422 56.74 76.07C56.64 76.23 56.64 76.29 56.57 76.39C56.5 76.49 56.5 76.69 56.49 76.87C56.476 77.8218 56.611 78.77 56.89 79.68C57.13 80.74 57.41 81.8101 57.72 82.8701C57.92 83.5201 58.12 84.17 58.34 84.81C58.69 85.81 59.03 86.8101 59.45 87.6901C59.62 88.0701 59.8 88.37 60.01 88.78C60.2022 89.1852 60.3465 89.6114 60.44 90.0501L60.55 90.5501C60.6139 90.7278 60.6182 90.9215 60.5622 91.1019C60.5063 91.2823 60.3932 91.4396 60.24 91.5501L60.04 91.76C59.84 91.99 59.38 91.85 59.04 91.29C58.65 90.47 58.58 89.79 58.34 89.4C58.03 88.8 57.69 88.06 57.41 87.4C56.98 86.4 56.62 85.28 56.26 84.2L56.27 84.1601Z" fill="#231F20"/>
<path d="M56.3501 93.7899C57.9779 95.4094 59.6903 96.9415 61.4801 98.3799C62.1401 98.9299 62.8301 99.4399 63.4801 100.02C65.7708 102.039 67.8667 104.269 69.7401 106.68C70.5601 107.77 71.3701 108.87 72.0701 110.02C73.0405 111.479 73.7196 113.113 74.0701 114.83C74.1701 115.37 73.8201 115.38 73.3501 115.06C72.7134 114.6 72.1929 113.997 71.8301 113.3C70.3019 110.323 68.3851 107.562 66.1301 105.09C64.7145 103.535 63.1689 102.103 61.5101 100.81C59.7301 99.3099 57.8801 97.8099 56.1401 96.1799C55.0685 95.1649 54.0663 94.0791 53.1401 92.9299C52.4233 92.0517 51.7811 91.1151 51.2201 90.1299C50.9307 89.6229 50.6961 89.0866 50.5201 88.5299C50.2648 87.8601 50.2648 87.1198 50.5201 86.4499C50.6654 86.1911 50.8824 85.9798 51.1449 85.8414C51.4075 85.7031 51.7045 85.6435 52.0001 85.6699C52.2938 85.6707 52.5813 85.7539 52.8301 85.9099L53.2201 86.1499L53.5101 86.3699C54.2101 86.9299 54.8101 87.4899 55.4401 88.0499C55.7101 88.2899 55.9901 88.5099 56.2501 88.7599C57.2501 89.6399 57.3601 90.0399 57.4101 90.5099C57.4186 90.6164 57.4186 90.7234 57.4101 90.8299C57.4101 90.9899 57.2601 91.0599 56.9401 91.0299C56.5057 90.9762 56.0888 90.8259 55.7201 90.5899C55.0671 90.1554 54.4516 89.6671 53.8801 89.1299C53.3201 88.6299 52.7301 88.0599 52.2401 87.6699C52.1001 87.5499 52.1201 87.5799 52.1101 87.5799C52.1822 87.8691 52.2827 88.1505 52.4101 88.4199C53.4614 90.3679 54.8111 92.1393 56.4101 93.6699L56.3501 93.7899Z" fill="#231F20"/>
<path d="M46.06 59.69C46.46 59.39 46.86 59.11 47.28 58.83C47.43 58.74 47.56 58.61 47.72 58.52C48.2735 58.2016 48.8444 57.9145 49.43 57.66C49.7 57.55 49.95 57.42 50.21 57.31C50.5173 57.1364 50.8583 57.0307 51.21 57C51.43 57 51.38 57.8 51.06 58L50.19 58.48C49.88 58.61 49.57 58.75 49.24 58.87C48.8616 59.0549 48.5059 59.2831 48.18 59.55C47.8 59.82 47.4 60.08 47.03 60.37C46.66 60.66 46.56 60.73 46.34 60.92C46.12 61.11 45.66 61.5 45.34 61.82C45.02 62.14 44.92 62.37 44.68 62.61C44.6319 62.6714 44.5784 62.7283 44.52 62.78C44.3 62.97 44.18 62.98 43.97 62.84L43.83 62.75C43.7618 62.6858 43.7177 62.6001 43.705 62.5074C43.6922 62.4146 43.7117 62.3202 43.76 62.24C44.0137 61.638 44.3959 61.0987 44.88 60.66C45.23 60.32 45.61 60.01 45.99 59.66L46.06 59.69Z" fill="#231F20"/>
<path d="M70.5 59.7801C68.77 57.8601 67 56.0001 65.1901 54.1301L63.19 52.1301C60.8434 49.7701 58.44 47.4701 55.98 45.2301C54.88 44.2301 53.74 43.2901 52.6 42.3801C51.86 41.8001 51.1 41.2401 50.35 40.6901C49.6 40.1401 48.85 39.5401 48.12 39.1101C47.91 38.9901 47.88 38.9201 47.87 38.8101C47.86 38.7001 48.03 38.5701 48.34 38.5601C49.2484 38.5716 50.1327 38.8536 50.88 39.3701C54.0355 41.6727 57.0016 44.2242 59.75 47.0001C61.4 48.6501 63.2201 50.2601 64.9101 51.9401C66.7801 53.7801 68.6 55.6701 70.39 57.5901C71.49 58.7701 72.5767 59.9634 73.65 61.1701C75.28 62.9901 76.86 64.8701 78.42 66.7301C79.63 68.1401 80.86 69.5301 82 71.0001C82.26 71.3301 82.51 71.6401 82.76 72.0001C83.67 73.2501 83.76 73.7701 83.7 74.2201C83.7 74.3201 83.7 74.4501 83.63 74.5201C83.5 74.7801 82.96 74.3901 82.21 73.5201C80.07 71.0101 77.91 68.2901 75.64 65.6401C73.96 63.6401 72.24 61.7001 70.47 59.7801H70.5Z" fill="#231F20"/>
<path d="M26.69 86.1001C28.85 87.6801 31 89.3001 33.07 91.0001C33.83 91.6001 34.61 92.1801 35.37 92.8001C38.0366 94.9801 40.6066 97.2567 43.08 99.6301C44.17 100.69 45.31 101.72 46.37 102.8C47.7824 104.147 49.0771 105.612 50.24 107.18C50.6 107.68 50.32 107.79 49.77 107.59C48.9586 107.216 48.2359 106.674 47.65 106C44.98 103.16 42.16 100.46 39.26 97.7401C37.54 96.1201 35.58 94.6101 33.67 93.1001C31.5766 91.4401 29.4533 89.8201 27.3 88.2401C25.97 87.2401 24.64 86.3101 23.3 85.3901C21.23 83.9901 19.17 82.5301 17.16 81.0701C15.57 80.0001 14 78.8701 12.5 77.6801C12.17 77.4201 11.83 77.1801 11.5 76.8901C10.31 75.8901 10.06 75.3701 10.03 74.8901C10.02 74.7836 10.02 74.6765 10.03 74.5701C10.09 74.3001 10.69 74.5701 11.62 75.2501C14.32 77.2501 17.15 79.4101 20.09 81.4501C22.26 82.9801 24.5 84.4501 26.7 86.0501L26.69 86.1001Z" fill="#231F20"/>
<path d="M34.89 100.46C33.15 99.18 31.39 97.92 29.6 96.7C28.95 96.24 28.27 95.84 27.6 95.4C25.31 93.82 22.98 92.28 20.6 90.77C19.55 90.12 18.48 89.47 17.42 88.85C16.06 88.04 14.67 87.28 13.37 86.35C12.96 86.06 13.15 85.91 13.63 85.92C14.3535 85.9748 15.0565 86.1863 15.69 86.54C17.11 87.32 18.52 88.1 19.91 88.94C21.3 89.78 22.65 90.67 24 91.59C25.61 92.7 27.36 93.72 29 94.83C30.8333 96.05 32.64 97.3 34.42 98.58C35.53 99.36 36.59 100.19 37.68 100.99C39.32 102.23 40.92 103.52 42.48 104.83C43.11 105.31 43.68 105.83 44.29 106.36C44.9263 106.862 45.5246 107.41 46.08 108L46.81 108.75C47.62 109.81 47.81 110.23 47.67 110.62C47.67 110.71 47.67 110.81 47.61 110.87C47.55 110.93 46.98 110.79 46.39 110.12C44.3868 108.127 42.277 106.244 40.07 104.48L37.5 102.48L34.88 100.48L34.89 100.46Z" fill="#231F20"/>
<path d="M77.3103 109.81C76.6614 110.133 75.9935 110.417 75.3103 110.66C75.0603 110.75 74.8303 110.88 74.5803 110.95C73.6752 111.236 72.7292 111.371 71.7803 111.35C71.3138 111.353 70.8504 111.275 70.4103 111.12C70.077 110.997 69.7927 110.769 69.6003 110.47C69.5052 110.324 69.4403 110.16 69.4094 109.988C69.3785 109.816 69.3822 109.64 69.4203 109.47C69.4203 109.27 69.7703 109.33 70.1003 109.47C70.4303 109.61 70.7803 109.66 70.8303 109.68C70.8803 109.7 70.9103 109.68 70.9803 109.74C71.1007 109.777 71.2248 109.8 71.3503 109.81C71.7566 109.835 72.164 109.835 72.5703 109.81C73.1362 109.74 73.6868 109.578 74.2003 109.33C74.8003 109.1 75.4003 108.84 75.9803 108.55C76.3303 108.36 76.6903 108.17 76.9803 107.95C77.493 107.638 77.9636 107.262 78.3803 106.83C78.6577 106.498 78.8651 106.114 78.9903 105.7C78.9855 105.62 78.9855 105.54 78.9903 105.46C79.0603 105.21 79.1703 105.21 79.6803 105.2H80.0303C80.1219 105.191 80.2145 105.202 80.3012 105.233C80.388 105.263 80.4668 105.313 80.5319 105.378C80.5971 105.443 80.6468 105.522 80.6777 105.609C80.7086 105.696 80.7197 105.788 80.7103 105.88C80.6383 106.428 80.4547 106.956 80.171 107.431C79.8872 107.905 79.5092 108.317 79.0603 108.64C78.4836 109.102 77.8679 109.514 77.2203 109.87L77.3103 109.81Z" fill="#231F20"/>
<path d="M78.3303 111C78.3303 111 78.3303 111 78.3303 111.06C78.3303 111.12 78.3303 111.06 78.3303 111.14V111.46C78.3303 111.68 78.4003 111.87 78.4203 112.19C78.4346 112.323 78.4346 112.457 78.4203 112.59C78.4027 112.668 78.3793 112.745 78.3503 112.82C78.2537 113.037 78.0829 113.213 77.8684 113.315C77.654 113.418 77.4101 113.441 77.1803 113.38C77.0733 113.35 76.9719 113.303 76.8803 113.24C76.7128 113.107 76.5676 112.949 76.4503 112.77C76.2289 112.411 76.0858 112.009 76.0303 111.59C75.9703 111.28 75.9203 111 75.8503 110.76C75.8266 110.67 75.793 110.583 75.7503 110.5C75.7503 110.42 75.6403 110.44 75.7503 110.37C75.8603 110.3 75.8803 110.15 75.8903 110.22C75.8708 110.302 75.8708 110.388 75.8903 110.47V110.29V110.24C75.9609 110.293 76.0383 110.337 76.1203 110.37C76.1203 110.37 76.1203 110.37 76.1203 110.47C76.1002 110.643 76.1002 110.817 76.1203 110.99C76.1203 111.09 76.1203 111.18 76.1203 111.31L76.2303 111.88C76.3103 112.26 76.4003 112.64 76.4503 112.98C76.5435 113.466 76.4841 113.969 76.2803 114.42C76.2246 114.53 76.1376 114.62 76.0303 114.68C75.9172 114.73 75.7926 114.747 75.6703 114.73C75.4463 114.693 75.232 114.612 75.0403 114.49H74.9603C74.4797 114.162 74.0601 113.752 73.7203 113.28C73.5396 113.043 73.3459 112.816 73.1403 112.6L72.9703 112.45C73.0053 112.382 73.0353 112.312 73.0603 112.24C73.1203 112.11 73.0603 112.05 73.0603 112.1C73.1286 112.154 73.2067 112.195 73.2903 112.22C73.4503 112.22 73.3803 112.22 73.4003 112.22C73.3952 112.26 73.3952 112.3 73.4003 112.34C73.3863 112.446 73.3863 112.554 73.4003 112.66C73.449 112.883 73.5193 113.101 73.6103 113.31C73.8103 113.74 73.9903 114.21 74.2303 114.68C74.3703 114.97 74.1603 115.09 73.7603 115.02C73.4727 114.964 73.2008 114.845 72.9641 114.672C72.7273 114.5 72.5315 114.277 72.3903 114.02C72.1818 113.615 72.0367 113.18 71.9603 112.73C71.9136 112.439 71.9136 112.142 71.9603 111.85C72.0027 111.655 72.0919 111.473 72.2203 111.32C72.3427 111.17 72.506 111.059 72.6903 111C72.7898 110.985 72.8909 110.985 72.9903 111H73.2003C73.4565 111.044 73.6954 111.158 73.8903 111.33C73.9849 111.412 74.0751 111.499 74.1603 111.59C74.2503 111.67 74.2203 111.65 74.2303 111.67C74.2463 111.718 74.2664 111.765 74.2903 111.81C74.2903 111.81 74.3803 111.96 74.4703 112C74.4892 112.014 74.512 112.021 74.5353 112.021C74.5587 112.021 74.5815 112.014 74.6003 112C74.6232 111.932 74.6232 111.858 74.6003 111.79L74.5103 111.23C74.4233 110.778 74.4438 110.312 74.5703 109.87C74.6329 109.691 74.7318 109.526 74.8608 109.387C74.9899 109.247 75.1463 109.136 75.3203 109.06C75.4853 108.992 75.6621 108.958 75.8403 108.96C76.0379 108.958 76.2333 109.002 76.4103 109.09C76.771 109.29 77.0478 109.613 77.1903 110C77.2846 110.258 77.3615 110.522 77.4203 110.79L77.5703 111.49C77.5878 111.588 77.6112 111.685 77.6403 111.78C77.6358 111.827 77.6358 111.873 77.6403 111.92L77.7103 112.01L77.6503 112.07C77.6106 112.114 77.5739 112.161 77.5403 112.21C77.4703 112.33 77.4203 112.35 77.4003 112.41C77.403 112.443 77.403 112.477 77.4003 112.51C77.4003 112.42 76.6003 112.41 76.8203 112.39V112.25L76.7103 111.46C76.5815 110.819 76.5445 110.162 76.6003 109.51C76.6215 109.003 76.8237 108.521 77.1703 108.15C77.2497 108.088 77.3332 108.031 77.4203 107.98C77.5203 107.92 77.6203 107.87 77.6703 107.91L78.0403 108.05C78.2403 108.3 78.4503 108.54 78.6703 108.82L79.3103 109.73C79.4103 109.87 79.5403 110.05 79.6303 110.16C79.6991 110.253 79.7761 110.34 79.8603 110.42C79.9223 110.492 79.9928 110.556 80.0703 110.61H80.1203C80.1055 110.669 80.1055 110.731 80.1203 110.79C80.1252 110.764 80.1252 110.736 80.1203 110.71C80.0904 110.664 80.0437 110.632 79.9903 110.62C79.9883 110.597 79.9883 110.573 79.9903 110.55C80.0011 110.477 80.0011 110.403 79.9903 110.33C79.9488 110.134 79.878 109.945 79.7803 109.77C79.5703 109.37 79.2503 108.96 78.9603 108.46C78.8075 108.222 78.6833 107.967 78.5903 107.7C78.5158 107.415 78.5158 107.115 78.5903 106.83C78.6333 106.603 78.7535 106.398 78.9303 106.25C79.0214 106.16 79.1406 106.104 79.268 106.091C79.3953 106.079 79.5232 106.11 79.6303 106.18C79.7253 106.223 79.8131 106.28 79.8903 106.35C80.1003 106.54 79.8903 107.09 80.0503 107.12C80.2103 107.15 80.2503 107.52 80.5103 107.88C80.8205 108.305 81.0916 108.757 81.3203 109.23C81.4805 109.569 81.5722 109.936 81.5903 110.31C81.6025 110.557 81.572 110.804 81.5003 111.04C81.4556 111.173 81.4022 111.304 81.3403 111.43C81.196 111.659 80.9966 111.848 80.7603 111.98C80.4791 112.11 80.1632 112.145 79.8603 112.08L79.5403 111.97L79.3603 111.87C79.1799 111.755 79.0123 111.621 78.8603 111.47C78.7511 111.359 78.6477 111.242 78.5503 111.12L78.4803 111.04C78.4803 110.98 78.4203 110.98 78.4203 111.04L78.3303 111Z" fill="#231F20"/>
</svg>
