<?xml version="1.0" encoding="UTF-8"?><svg id="Layer_3" xmlns="http://www.w3.org/2000/svg" width="128" height="128" viewBox="0 0 128 128"><defs><style>.cls-1{fill:#231f20;}</style></defs><path class="cls-1" d="m32.52,33.78l.74-1.46c.12-.24.26-.49.4-.74.14-.26.28-.48.51-.83.47-.87,1.74-1.11,2.2-1.18.61-.09,1.17-.12,1.73-.14.82-.03,1.62-.08,2.41-.03,2.8.16,5.55.58,8.27,1.13,1.2.25,2.42.47,3.6.82.76.21,1.52.44,2.26.73.73.32,1.45.7,2.07,1.22.31.45.27.36-.21.4-.48.02-1.27.04-2.12-.1-1.46-.4-2.98-.6-4.47-.92-1.5-.32-3.03-.59-4.57-.86-1.85-.32-3.81-.31-5.7-.3-1.03,0-2.09.05-3.01.22-.11.02-.23.05-.3.07-.05,0-.1.03-.16.05-.11.06-.14.09-.25.28-.24.38-.47.87-.7,1.34-.55,1.17-1.08,2.37-1.59,3.58-.78,1.83-1.6,3.66-2.29,5.52-.54,1.44-.95,2.9-1.42,4.35-.11.32-.19.64-.31.95-.45,1.17-.74,1.49-1.35,1.54-.14.01-.28.04-.41.03-.43-.04-.58-.65-.38-1.55.55-2.7,1.51-5.41,2.51-8.12.37-1.01.77-2.01,1.17-3.01.41-1,.88-1.98,1.33-2.97l.05.02Z"/><path class="cls-1" d="m90.29,36.65c-.39-.75-.82-1.49-1.32-2.17-.18-.25-.41-.46-.59-.68l-.21-.26s-.06-.06-.1-.08c-.04-.02-.07-.03-.14-.04-.1,0-.21-.03-.34-.02-.5,0-1.05.09-1.6.21-.48.11-.96.29-1.43.46-.3.11-.6.24-.91.35-.15.06-.32.1-.5.09-.17,0-.35,0-.54,0-.24-.03-.19-.1-.06-.26.06-.08.15-.22.24-.37.06-.1.11-.18.15-.25.03-.04.06-.08.08-.13.04-.03.08-.05.11-.07,1.15-.6,2.34-1.26,3.8-1.49.23-.02.44-.07.7-.09l.43-.04c.17.02.35.03.51.07.32.06.67.27.84.43.18.15.35.3.49.46.65.69,1.22,1.42,1.75,2.18.33.46.63.95.92,1.44.44.74.81,1.53,1.19,2.31.3.6.7,1.16.98,1.8.06.14.15.27.2.42.16.56.04.78-.55.99-.13.05-.27.1-.41.14-.47.11-.9-.03-1.09-.33-.59-.89-1-1.84-1.49-2.83-.36-.73-.75-1.47-1.18-2.19l.04-.03Z"/><polygon class="cls-1" points="18.72 108.86 26.25 106.98 32.71 113.07 18.72 108.86"/><path class="cls-1" d="m99.92,113.83c.56-.56,3.13-4.89,3.13-4.89l9.29,1.58-12.42,3.32Z"/><path class="cls-1" d="m102.34,111.81c-.48.55-.99,1.05-1.5,1.53-.18.18-.32.39-.51.55-.68.58-1.37,1.11-2.07,1.62-.31.23-.56.51-.85.74-.17.15-.35.31-.52.46-.08.07-.17.13-.25.2-.04.03-.07.05-.11.08-.01,0-.04.04-.08-.07-.02-.05-.14.22-.43.12-.06-.05-.15-.17-.17-.25-.03-.11-.05-.21-.06-.3-.02-.21,0-.39.06-.54.25-.52.44-1.03.78-1.38.34-.36.69-.69,1.11-.96.51-.32.84-.83,1.23-1.26.44-.47.87-.93,1.27-1.43.25-.3.48-.61.68-.93.3-.49.6-.99.7-1.53.08-.42-.03-.84-.17-1.18-.02-.08-.09-.14-.11-.21-.02-.27.11-.37.72-.62l.4-.17c.45-.18.89-.12,1.15.23.37.51.45,1.14.42,1.73-.04.58-.19,1.15-.42,1.64-.32.75-.77,1.38-1.22,1.96l-.05-.03Z"/><path class="cls-1" d="m28.34,106.88c2.12-7.56,4.2-15.12,6.43-22.65.59-2.01-2.54-2.87-3.13-.86-2.22,7.53-4.31,15.09-6.43,22.65-.57,2.02,2.57,2.88,3.13.86h0Z"/><path class="cls-1" d="m104.62,106.38c-2.82-7.26-5.27-14.66-8.25-21.87-.34-.82-1.08-1.38-2-1.13-.77.2-1.47,1.19-1.13,2,2.98,7.21,5.43,14.6,8.25,21.87.75,1.93,3.89,1.09,3.13-.86h0Z"/><path class="cls-1" d="m52.98,53.4c.16-.08-7.34,29.01-18.92,25.24-7.81-2.54-3.6-20.31-2.76-23.57.08-.3,12.74,2.85,21.67-1.67Z"/><path class="cls-1" d="m75.13,58.77c-.17-.12,8.19,24.28,18.16,20.88,5.86-2,1.67-19.62,1.48-19.57-2.19.52-14.13,2.5-19.64-1.31Z"/><path class="cls-1" d="m57.15,42.96c0,.83-.48,1.51-.94,1.84-.17.13-.32.27-.5.35-.65.26-1.38.3-2.01-.03-.27-.15-.54-.36-.65-.64-.17-.32-.19-.8.11-1.07.1-.08.18.03.28.16.09.14.29.25.36.28.1.09.29.09.3.09.02,0,.1.04.24.08.19.05.37-.14.51-.28.16-.15.25-.29.27-.4.02-.08,0-.16-.01-.19,0-.03-.12-.15-.3-.08-.12.06-.22.28-.3.47-.02.04-.03.11-.06.14-.11.13-.25.01-.67-.58l-.28-.4c-.31-.47-.48-.9-.38-1.13.14-.34.43-.62.87-.8.44-.18,1.05-.17,1.6.02.42.14.86.43,1.17.85.32.43.44.9.45,1.32h-.05Z"/><path class="cls-1" d="m76.09,49.32c-.38.64-1.09,1.03-1.78,1.09-.11,0-.21.01-.32.02-.14,0-.29,0-.43-.04-.86-.25-1.44-1-1.43-1.8,0-.35.08-.67.26-.92.11-.16.25-.31.42-.4.19-.08.41-.07.58-.02.11.04.09.1.04.24-.05.12-.05.41.01.57,0,.17.15.31.17.32.02,0-.02,0-.05,0h-.04s0,0,0,0h0s0,0,0,0l.11-.03h0s0,0,0,0c-.01,0-.02.02-.04.08-.04.17.12.18.22.21h.03c.12.05.28.03.42-.06.09-.06.18-.15.22-.27.05-.2.07-.3-.09-.42-.12-.08-.32,0-.36.1-.01.01-.01.06-.01.06,0,.02-.01-.03-.01-.03,0,0,0-.01-.03-.06-.05-.08-.14-.2-.3-.39l-.23-.25c-.27-.26-.38-.62-.1-.88.4-.36.99-.46,1.48-.34.5.11.97.41,1.3.92.52.88.36,1.65.02,2.31l-.05-.02Z"/><path class="cls-1" d="m83.8,42.93c-.39.51-.84.78-1.31.97-.17.06-.34.2-.59.23-.44.08-1.05-.08-1.35-.37-.31-.3-.45-.63-.51-.96-.06-.3-.07-.55-.05-.79,0-.31.18-.57.47-.69.1-.04.28.09.5.26.21.17.52.37.61.44.06.06.2.11.21.11-.03,0-.16,0-.2,0h-.03s0,0,0,0l-.15.04h0s0,0,0,0h0s0,0,0,0h0s.02,0,.02,0l.04-.02s-.01,0-.05.05c-.04.05-.08.14-.08.17,0,0,0-.15-.11-.4-.05-.11-.03-.06-.02-.07,0,0,.02,0,.03,0h.07c.05-.02.1-.04.15-.06l.12-.06s0,0,.04,0c0,0,.02,0,.02,0h0s.25-.07.25-.07h0s0,0,0,0c-.04,0-.13.07-.16.12-.06.09.03-.02,0-.2,0-.04-.01-.06-.02-.09-.06-.09.05.03-.05-.06-.14-.11-.29-.22-.43-.32-.51-.31-.86-.78-.53-1.22.5-.61,1.29-.74,1.85-.6.58.14,1.11.5,1.46,1.15.28.54.29,1,.24,1.41-.06.41-.21.76-.38,1.04l-.06-.03Z"/><path class="cls-1" d="m65.43,29.67c-.12.37-.31.7-.56.99-.28.27-.58.49-.91.64-.22.1-.44.21-.69.24h-.06c-.95.06-1.77-.5-2.08-1.2-.16-.32-.22-.65-.2-.97,0-.39.16-.87.6-1.01.13-.04.24.14.37.36.11.22.37.47.44.53.06.11.15.18.2.19,0,.01-.03.03-.03.18.02.15.16.14.25.13h.05c.14,0,.31-.06.44-.21.08-.09.16-.21.16-.34l.13-.04.05-.02s.05-.03.01,0c-.02.02-.08.07-.11.12,0,0,0-.01-.02-.02-.06-.05-.19-.09-.3-.09-.19,0-.35.19-.43.33-.02.03-.03.08-.04.1-.06.08-.15-.04-.55-.5l-.28-.31c-.32-.35-.47-.74-.29-1.01.52-.78,1.63-.99,2.58-.62.18.07.39.16.64.36.24.18.52.52.65.87.14.4.12.52.12.73,0,.19-.03.39-.08.58h-.05Z"/><path class="cls-1" d="m72.41,26.75c-.21.48-.7.82-1.14.9-.16.03-.31.07-.47.05-.54-.05-1-.43-1.16-.87-.07-.19-.14-.37-.12-.56,0-.24.09-.48.27-.63.06-.05.09-.01.13.07.04.08.13.2.17.28.2.31.32.38.4.51.07.09.22.08.33.05.13-.02.21-.04.28-.13.04-.05.08-.12.09-.16.02-.04.01-.13-.15-.15-.12-.01-.29.09-.48.15-.04.01-.09.04-.13.05-.18.02-.25-.08-.25-.46v-.26c.03-.29.1-.52.19-.6.14-.12.3-.19.54-.22.23-.02.57-.01.97.23.28.17.52.48.62.84.09.35.05.67-.05.93h-.03Z"/><path class="cls-1" d="m72.27,15.15c.05.99-.61,1.57-1.27,1.73-.23.05-.44.1-.65.07-.71-.13-1.17-.61-1.42-1.08-.12-.21-.2-.43-.26-.65-.08-.27-.12-.6.06-.86.06-.08.26-.01.47.08.21.1.47.18.52.24.09.11.19.19.27.26.08.07.08.18.12.3.05.16.23.12.29.12h.04s0,0,0,0h0s0,0,0,0h0s0,0,0,0l.05.08h0s-.02-.03-.03-.05c-.02-.03-.02-.01.07,0,.05.01.11,0,.12,0-.05.02-.06.03-.1.05,0,0,0-.01,0-.02-.05-.08-.24-.23-.41-.2-.15.01-.26.18-.31.3-.01.03-.01.07-.02.09-.04.06-.11-.04-.47-.4l-.25-.25c-.29-.27-.44-.6-.3-.82.4-.67,1.29-.87,2.05-.62.29.1.55.23.82.46.26.22.57.62.64,1.16h-.04Z"/><path class="cls-1" d="m59.71,13.09c-.15.22-.36.49-.67.7-.31.21-.68.3-.99.3-.22,0-.44,0-.63-.07-.65-.28-1.03-.94-1.07-1.44-.03-.23-.06-.44-.06-.64-.02-.26.1-.51.29-.7.07-.06.18-.01.33.08.14.09.37.23.45.33.17.18.2.3.23.4.04.09.06.16.04.24-.03.1.15.06.18.05.02,0,.02.02.05.1,0,0,.05.06-.03-.02,0,0,.01,0,.03-.01.04-.03.12-.14.16-.27.08-.18.15-.36.09-.46-.02-.04-.07-.03-.11-.02-.04,0-.12.11-.06.01.01-.03.03-.06.03-.08.01-.06.01-.08.01-.09,0,0,0,0,0-.01,0-.04-.02-.17-.05-.28l-.09-.32c-.12-.35-.07-.72.29-.84.52-.16,1.03.04,1.39.37.18.16.34.41.43.62.09.22.14.44.16.64.03.3,0,.57-.06.8-.07.23-.16.4-.29.65l-.05-.02Z"/><path class="cls-1" d="m27.61,56.16c-.74,3.62-1.27,7.26-1.41,10.87-.02.45-.05.9-.05,1.35l.04,1.34c0,.9.1,1.77.2,2.64.03.44.11.87.2,1.28.09.42.16.85.27,1.26l.38,1.2c.12.4.33.74.49,1.12.54,1.04,1.19,2,2.08,2.69.87.71,1.9,1.23,3.1,1.67,1.01.36,2.02.63,3.06.68,1.03.05,2.06-.08,3.06-.38,2.02-.59,3.86-1.93,5.48-3.52,3.22-3.26,5.57-7.48,7.52-11.81,1.76-3.9,3.21-7.9,4.64-11.91,1.8-5.15,3.38-10.37,5.35-15.44.71-1.56.67-1.36.78.16.03.75.18,1.86.02,3.12-.12,1.27-.35,2.73-.77,4.26-.35,1.37-.76,2.71-1.21,4.04l-1.35,3.99c-.92,2.65-1.87,5.28-2.9,7.91-2.07,5.2-4.35,10.59-8.04,15.22-1.11,1.38-2.33,2.71-3.75,3.89-1.41,1.19-3.06,2.2-4.91,2.82-1.84.65-3.89.76-5.81.43-.49-.07-.95-.19-1.41-.33-.47-.12-.91-.28-1.34-.44-.87-.34-1.77-.74-2.59-1.3-1.83-1.2-3.25-3.01-4.05-4.94-.8-1.93-1.27-3.93-1.42-5.9-.39-3.95-.02-7.82.51-11.63.69-4.67,1.69-9.28,3.03-13.79.95-3.24,2.06-6.43,3.28-9.57.61-1.57,1.25-3.13,1.93-4.67.34-.77.69-1.54,1.06-2.3.2-.4.36-.73.61-1.18.28-.48.59-1.06,1.14-1.22.26-.04.51-.1.77-.12h.71c1.44.03,2.8.18,4.16.35,1.36.16,2.71.36,4.05.58,2.68.45,5.34,1.02,7.99,1.77,1.17.32,2.3.68,3.46,1.09,4.28,1.66,5.42,3.01,5.67,4.22.06.27.18.58.16.77-.03.33-.47.29-1.19.01-.18-.07-.38-.16-.6-.25-.24-.08-.49-.18-.77-.28-.28-.1-.55-.24-.86-.38-.32-.13-.65-.27-1-.43-3.31-1.44-7.02-2.4-10.76-3.26-1.88-.4-3.79-.77-5.71-1.06-.96-.15-1.92-.26-2.87-.31-.48-.04-.93-.04-1.39-.06-.12,0-.23,0-.32,0-.1,0-.23.01-.19,0-.01,0,0,0,0,0h0s0,0-.01.03l-.09.18c-.22.42-.44.88-.65,1.34-.42.93-.83,1.89-1.23,2.85-2.76,6.89-5.14,14.03-6.45,21.33h-.08Z"/><path class="cls-1" d="m23.74,108.38c-.78.17-1.55.29-2.3.4-.28.04-.54.13-.81.16-.97.09-1.93.14-2.88.17-.42.02-.82.11-1.22.2-.51.09-.98.22-1.51.08-.18-.03-.24-.08-.22-.32,0-.12.03-.31.11-.54.03-.1.07-.22.12-.31.06-.08.13-.15.21-.2.29-.19.53-.34.82-.47.28-.08.55-.14.83-.2.55-.1,1.09-.17,1.65-.15.67.03,1.31-.19,1.96-.3.71-.12,1.42-.24,2.11-.41.43-.09.84-.23,1.25-.35.3-.11.6-.24.9-.36.28-.14.55-.31.81-.49.17-.16.32-.35.45-.53.14-.19.18-.41.28-.59.04-.08.07-.17.08-.25.01-.04.02-.07.04-.1.03-.02.07-.03.11-.04.07-.02.15-.04.23-.05.16-.01.35,0,.58.05l.31.05c.32.07.55.33.65.84.08.39-.1.67-.24.95-.16.27-.32.59-.54.8-.21.22-.45.44-.69.64-.25.17-.5.32-.76.48-.76.43-1.56.68-2.33.91l-.02-.05Z"/><path class="cls-1" d="m35.3,115.21c-.08.19-.14.21-.23.27-.08.05-.16.09-.25.12-.19.07-.39.13-.72.13h-.51c-.19,0-.46-.04-.68-.07-.32-.09-.62-.16-.95-.27l-1.1-.41c-1.09-.45-2.11-.75-3.15-1.19l-3.56-1.39c-.99-.37-1.98-.72-2.99-1.04-.89-.28-1.81-.47-2.72-.64-1.17-.24-2.38-.19-3.47-.92-.34-.25-.26-.44.12-.8.38-.4,1.08-.97,1.79-.92,2.49.36,4.94.99,7.28,1.96.7.29,1.43.53,2.16.75l.82.25c.17.05.24.08.38.14.55.24,1.29.61,2.23.99.14.05.3.11.45.16.07.01.18.05.23,0,.03-.05,0-.09-.02-.12-.09-.14-.23-.27-.4-.42-.47-.43-1.05-.98-1.71-1.62l-.4-.37c-.22-.23-.44-.46-.66-.7-.43-.49-.85-1.03-1.17-1.68-.14-.29-.28-.59-.36-.93-.07-.65.06-1.11.28-1.37.19-.27.44-.37.73-.41.13-.02.26-.04.37-.03.38.04.58.54.95.97.25.32.4.61.62.94.22.32.49.66.79,1.01l.47.52c.33.34.72.77,1.15,1.16.84.79,1.83,1.6,2.86,2.43l.54.46.26.23.19.2.38.4.18.31c.18.39.16.64.22.87.04.23.03.39-.01.53-.02.07-.05.13-.08.2l-.06.12-.05.09-.02.03h0s.07.04-.07-.04h0s0,0,0,0h0s0,.03,0,.03l-.03.08-.06-.03Z"/><path class="cls-1" d="m100.79,60.82c.64,3.53,1.11,7.11,1.13,10.78,0,1.83-.11,3.69-.46,5.56-.36,1.86-.96,3.77-2.15,5.48-.86,1.23-2.06,2.33-3.46,3-.67.33-1.5.59-2.25.7-.38.04-.77.11-1.15.1l-1.12-.04c-2.6-.26-4.89-1.33-6.92-2.64-2.04-1.32-3.72-3.02-5.27-4.78-3.03-3.6-5.26-7.7-7.06-11.91-1.6-3.76-2.9-7.6-4.07-11.43-.38-1.23-.73-2.48-1.07-3.72-.31-1.26-.58-2.52-.82-3.8-.23-1.27-.43-2.55-.58-3.84-.08-.64-.14-1.28-.2-1.93-.04-.65-.03-1.3,0-1.94.12-1.63.16-1.41.73-.12.66,1.28,1.58,3.63,2.3,6.43.31,1.24.66,2.48,1.03,3.71l1.04,3.7c.73,2.45,1.5,4.93,2.38,7.35,1.69,4.82,3.79,9.49,6.66,13.67,1.73,2.47,3.88,4.73,6.41,6.37,1.28.77,2.62,1.48,4.03,1.8,1.39.35,2.84.43,4.03.07,1.37-.43,2.54-1.39,3.32-2.7.78-1.31,1.26-2.9,1.51-4.55.51-3.31.3-6.81-.13-10.25-.55-4.25-1.48-8.48-2.61-12.65-1.73-6.31-3.82-12.6-6.31-18.61l-.35-.82-.22-.48-.11-.23c-.05-.05-.06-.21-.15-.16-.17.06-.33.13-.49.2l-.5.22-.88.37-1.76.72c-2.35.95-4.72,1.84-7.16,2.61-1.07.34-2.13.67-3.24.94-2.06.5-3.47.68-4.47.67-.99.02-1.6-.22-2.07-.55-.22-.15-.49-.29-.61-.44-.4-.52,1.21-1.06,4.06-1.72,4.24-1.04,8.51-2.61,12.79-4.34l1.61-.66.89-.37c.27-.1.54-.23.8-.32l.79-.19c.27-.07.53-.14.75-.12.23,0,.47-.04.68,0,.19.12.33.26.51.4.18.13.35.29.52.49.32.41.52,1,.77,1.52l.44,1.01c.95,2.22,1.83,4.45,2.67,6.71,2.45,6.72,4.48,13.64,5.86,20.75l-.07.02Z"/><path class="cls-1" d="m115.07,110.96c-.19.37-.38.6-.81.94-.21.16-.5.35-.83.54-.22.1-.4.2-.65.3-.29.1-.55.2-.86.29-1.01.25-1.99.53-3.04.74-.92.19-1.76.39-2.56.58l-1.62.38c-.91.22-1.82.43-2.72.71-.79.25-1.56.57-2.31.92-.48.21-.93.5-1.43.69-.5.17-1.03.31-1.59.38-.35.04-.43-.21-.35-.67.09-.45.27-1.25.78-1.67.11-.09.22-.19.33-.28l.37-.2.74-.4c.5-.26,1.01-.49,1.53-.71,1.04-.44,2.11-.8,3.22-1.05.33-.08.67-.15,1-.25l.74-.22c.21-.06.4-.13.65-.18.56-.1,1.35-.2,2.28-.38.29-.07.64-.11.89-.3.14-.13-.01-.15-.06-.16-.07-.02-.15-.03-.23-.03-.51-.05-1.12-.14-1.98-.26-.32-.04-.69-.07-1-.09-.16-.01-.28,0-.45-.04-.04,0-.07,0-.12-.02l-.22-.08c-.15-.05-.3-.11-.45-.17-.26-.11-.54-.22-.79-.38-.93-.68-.94-1.25-.39-1.88.13-.15.25-.3.39-.43.5-.41,1.1-.46,1.55-.37.34.08.67.17,1,.25l.26.06.55.16c.43.11.94.23,1.49.29,1.1.15,2.41.24,3.81.34,1.51.06,2.22.41,2.42.71.24.43.28.67.35.87l.08.25.05.13.05.11.02.06h0s0,.01,0,.01c.14-.01.04,0,.07,0h0s0,0,0,0v.02s0,.04,0,.04c0,.05,0,.1,0,.14-.04.16-.07.26-.09.34h-.09Z"/></svg>