<svg width="128" height="128" viewBox="0 0 128 128" fill="none" xmlns="http://www.w3.org/2000/svg">
<path d="M89.2302 114.19L82.0002 115.27C81.1202 115.41 80.2502 115.59 79.3702 115.72C76.2569 116.153 73.1469 116.56 70.0402 116.94C68.6602 117.11 67.2802 117.33 65.9102 117.55C64.1647 117.903 62.3908 118.097 60.6102 118.13C60.0502 118.13 60.0902 117.83 60.5102 117.44C61.135 116.874 61.8969 116.481 62.7202 116.3C66.2702 115.71 69.8302 115.09 73.4602 114.74C75.6302 114.53 77.8602 114.07 80.0602 113.74L87.3202 112.58L91.7902 111.84C94.0402 111.45 96.3102 111.08 98.5302 110.62C100.26 110.26 101.92 109.78 103.61 109.34C103.98 109.24 104.34 109.13 104.72 109.04C106.12 108.75 106.61 108.84 107.01 109.27C107.102 109.348 107.188 109.432 107.27 109.52C107.46 109.74 106.99 110.32 105.99 110.69C102.892 111.683 99.7275 112.455 96.5202 113C94.1002 113.45 91.6702 113.85 89.2402 114.26L89.2302 114.19Z" fill="#231F20"/>
<path d="M77.2303 35.0002L71.5303 35.6502L69.4603 35.9302L62.1303 36.7702L58.8803 37.1602C57.4854 37.4129 56.0644 37.4902 54.6503 37.3902C54.1903 37.3302 54.3103 37.1702 54.6503 37.0102C55.213 36.7527 55.8145 36.5905 56.4303 36.5302L64.8903 35.6202C66.5903 35.4602 68.3503 35.1702 70.0903 34.9402L75.8203 34.2102L79.3503 33.7702L84.7103 33.1802L86.7703 32.9602L87.3303 32.9102H87.5303L87.7003 33.0002C87.7826 33.0517 87.8697 33.0952 87.9603 33.1302L88.8803 33.5402C89.1503 33.6602 89.4203 33.7802 89.7003 33.9202C90.7003 34.4002 90.9603 34.7902 91.0703 35.0702C91.0703 35.1302 91.1303 35.2102 91.1403 35.2602C91.1503 35.3102 90.7003 35.2602 89.9203 35.0702C89.3603 34.8402 88.7703 34.6502 88.1903 34.3902C87.9003 34.2702 87.6103 34.1402 87.3003 33.9802C87.2403 33.9802 87.3003 33.9802 87.2003 33.9802H86.7403C85.4903 34.0802 84.2103 34.2102 82.9303 34.3502L77.2303 35.0002Z" fill="#231F20"/>
<path d="M51.75 85L52.35 75.8L52.54 72.44L53.37 60.62L53.68 55.37C53.83 53.14 53.9 50.89 54.24 48.67C54.36 47.98 54.52 48.09 54.7 48.67C54.9764 49.6446 55.088 50.6586 55.03 51.67C54.89 56.24 54.5 60.78 54.03 65.36C53.77 68.1 53.64 70.97 53.44 73.78L52.82 83L52.41 88.7C52.21 91.58 52 94.47 51.8 97.33C51.68 99.55 51.55 101.73 51.42 103.93L51.34 105.38C51.19 107.18 51.09 107.75 50.84 108.12C50.796 108.209 50.7423 108.293 50.68 108.37C50.51 108.53 50.43 107.78 50.49 106.45C50.65 102.52 50.89 98.39 51.15 94.23C51.34 91.14 51.53 88.04 51.73 84.95L51.75 85Z" fill="#231F20"/>
<path d="M77.27 44.5701L72 45.3301L70.07 45.6301L63.23 46.5201C62.23 46.6501 61.23 46.8001 60.23 46.9501C58.9321 47.1732 57.6169 47.2803 56.3 47.2701C55.87 47.2701 55.96 47.0301 56.3 46.8001C56.801 46.4868 57.3639 46.2855 57.95 46.2101C60.55 45.8001 63.18 45.5001 65.84 45.2101C67.44 45.0501 69.07 44.7501 70.69 44.5101L76 43.7301L79.29 43.2301C80.94 42.9601 82.61 42.7101 84.29 42.4101C85.56 42.1801 86.8 41.8901 88.05 41.6201L88.87 41.4501C89.87 41.2601 90.25 41.2701 90.52 41.4501C90.58 41.5101 90.66 41.5601 90.7 41.6101C90.74 41.6601 90.44 42.0501 89.7 42.2601C87.48 42.8701 85.1 43.2601 82.7 43.6901L77.36 44.5501L77.27 44.5701Z" fill="#231F20"/>
<path d="M89.2701 52.1102C88.9261 51.9767 88.6204 51.7603 88.3801 51.4802C88.1844 51.2602 88.0195 51.0146 87.8901 50.7502C87.8901 50.7502 87.8901 50.6802 88.0101 50.5902C88.1504 50.463 88.3048 50.3523 88.4701 50.2602L88.6701 50.1702C88.7433 50.1767 88.8146 50.197 88.8801 50.2302C88.9501 50.2302 88.9901 50.3302 89.0501 50.3702C89.1101 50.4102 89.1301 50.4602 89.2101 50.4402C89.2901 50.4202 89.3401 50.5402 89.4701 50.4402C89.6001 50.3402 89.6201 50.4402 89.6901 50.3702C89.7612 50.3144 89.8429 50.2736 89.9301 50.2502C89.9301 50.2502 89.9301 50.1802 90.0001 50.1602C90.0701 50.1402 90.0701 50.1602 90.1101 50.1602C90.1492 50.1332 90.186 50.1031 90.2201 50.0702L90.4101 49.9402V49.8802C90.4101 49.8802 90.4801 49.8802 90.5101 49.8802C90.5503 49.8587 90.5846 49.8279 90.6101 49.7902C90.6101 49.6502 90.6101 49.6402 90.6101 49.6102C90.6684 49.5619 90.7219 49.5084 90.7701 49.4502C90.9385 49.3463 91.096 49.2257 91.2401 49.0902C91.3876 48.9628 91.5156 48.8146 91.6201 48.6502C91.6201 48.6502 91.7001 48.6502 91.5301 48.5702C91.5301 48.5702 91.8601 48.5702 91.6801 48.5702C91.6801 48.5702 91.7501 48.5102 91.6001 48.4402C91.4501 48.3702 91.6601 48.4402 91.7001 48.4402C91.7001 48.4402 91.6101 48.4402 91.7001 48.3802C91.7901 48.3202 91.7001 48.3202 91.7001 48.2902C91.6958 48.267 91.6958 48.2433 91.7001 48.2202C91.7001 48.2202 91.7001 48.1502 91.7001 48.1202H91.6401C91.6401 48.1202 91.5701 48.1202 91.5601 48.0502C91.5501 47.9802 91.5601 48.0502 91.6201 48.0502C91.6571 47.981 91.684 47.9069 91.7001 47.8302C91.7001 47.8302 91.7001 47.8302 91.7001 47.7502C91.7001 47.6702 91.7601 47.6102 91.7001 47.5802C91.6401 47.5502 91.7001 47.4702 91.7801 47.4002C91.8189 47.3203 91.8491 47.2365 91.8701 47.1502C92.1524 46.8437 92.4922 46.5956 92.8701 46.4202C93.0928 46.5468 93.3007 46.6977 93.4901 46.8702C93.6966 47.0732 93.8719 47.3057 94.0101 47.5602C94.0101 47.7602 94.0101 47.9602 94.0101 48.1502C94.0201 48.28 94.0201 48.4104 94.0101 48.5402C94.0101 48.6702 93.9501 48.8002 93.9501 48.9302C93.9501 49.0602 93.9501 49.1502 94.0001 49.2602C93.9952 49.2933 93.9952 49.327 94.0001 49.3602C93.8501 49.3602 93.8501 49.4502 93.8501 49.5302C93.8501 49.5302 93.9501 49.8902 93.7601 49.9602C93.7601 49.9602 93.7001 49.9602 93.7601 50.0602C93.8201 50.1602 93.7601 50.1202 93.7601 50.1202C93.7601 50.1202 93.7601 50.2902 93.6501 50.3502C93.5401 50.4102 93.5901 50.5002 93.5001 50.5402C93.4101 50.5802 93.5001 50.7102 93.3801 50.7702C93.2601 50.8302 93.0901 51.1702 93.0101 51.2602L92.8201 51.4202L92.3701 51.8102C92.1785 51.9694 91.9745 52.1132 91.7601 52.2402C91.3597 52.384 90.9352 52.4485 90.5101 52.4302C90.0792 52.4101 89.657 52.3012 89.2701 52.1102Z" fill="#231F20"/>
<path d="M64.1501 52.44C64.1501 52.44 64.2601 52.2 64.3501 51.96C64.3962 51.7888 64.4329 51.6152 64.4601 51.44C64.4601 51.44 64.5301 51.44 64.6501 51.36C64.8334 51.3099 65.0208 51.2764 65.2101 51.26C65.3101 51.26 65.4001 51.26 65.4101 51.26C65.472 51.3146 65.52 51.3832 65.5501 51.46C65.5759 51.5554 65.5959 51.6522 65.6101 51.75C65.6101 51.83 65.6101 51.91 65.6101 52C65.6101 52.09 65.6101 52.25 65.6901 52.39C65.7701 52.53 65.6901 52.65 65.7501 52.78C65.7755 52.9625 65.7755 53.1476 65.7501 53.33C65.7501 53.39 65.7501 53.46 65.7501 53.52C65.7501 53.58 65.6601 53.65 65.6301 53.72C65.6141 53.8193 65.5873 53.9165 65.5501 54.01C65.4901 54.15 65.4101 54.28 65.3401 54.42C65.2701 54.56 65.3401 54.52 65.2901 54.56C65.2401 54.6 65.1801 54.62 65.1401 54.66C65.1001 54.7 65.0301 54.79 64.9701 54.86C64.9858 54.9108 64.9834 54.9654 64.9634 55.0147C64.9433 55.0639 64.9068 55.1046 64.8601 55.13L64.5001 55.44C64.1571 55.6187 63.7899 55.7467 63.4101 55.82C63.0514 55.8637 62.6888 55.8637 62.3301 55.82C62.3301 55.82 62.2701 55.74 62.2501 55.91C62.2501 55.91 62.2501 55.84 62.2501 55.96C62.2501 55.96 62.1601 55.65 62.1001 55.82C62.0401 55.99 62.1001 55.82 62.0501 55.82C62.0001 55.82 61.9001 55.76 61.8001 55.91C61.7001 56.06 61.8001 55.84 61.7201 55.8C61.7201 55.8 61.6101 55.87 61.5801 55.8C61.5501 55.73 61.4501 55.8 61.3901 55.75C61.3302 55.7554 61.27 55.7554 61.2101 55.75C61.1334 55.7167 61.0527 55.6932 60.9701 55.68C60.9701 55.68 60.9001 55.68 60.8801 55.68C60.8601 55.68 60.7201 55.68 60.6501 55.68C60.5801 55.68 60.6501 55.61 60.5701 55.59C60.4259 55.4977 60.2919 55.3904 60.1701 55.27C60.1201 55.22 60.0501 55.2 60.0301 55.13C60.0017 55.0198 59.9386 54.9216 59.8501 54.85C59.7801 54.85 59.8501 54.67 59.7901 54.59C59.775 54.4906 59.775 54.3894 59.7901 54.29C59.7901 54.2 60.0301 54.02 60.2701 53.85L60.7901 53.48C60.9374 53.517 61.0883 53.5372 61.2401 53.54C61.3261 53.5247 61.4141 53.5247 61.5001 53.54H61.6301C61.6901 53.54 61.7401 53.65 61.8201 53.66C61.9001 53.67 61.9301 53.66 61.9801 53.66C62.0301 53.66 62.0801 53.72 62.1401 53.66C62.2001 53.6 62.2301 53.59 62.2701 53.56C62.2701 53.62 62.2701 53.67 62.3501 53.64C62.3501 53.64 62.4501 53.41 62.5101 53.52C62.5701 53.63 62.5101 53.52 62.5101 53.46C62.5101 53.4 62.5101 53.4 62.5101 53.46C62.5101 53.52 62.5701 53.41 62.6001 53.46C62.6301 53.51 62.6001 53.46 62.6901 53.46C62.7801 53.46 62.6901 53.4 62.7701 53.41C62.8501 53.42 62.9401 53.33 62.9601 53.31C62.9801 53.29 63.0201 53.31 63.0501 53.31C63.1137 53.2853 63.1716 53.2479 63.2201 53.2C63.2813 53.1475 63.3351 53.0869 63.3801 53.02C63.5272 52.9694 63.6681 52.9023 63.8001 52.82C63.9481 52.7262 64.0688 52.5951 64.1501 52.44Z" fill="#231F20"/>
<path d="M46.1702 114.81C44.3702 115.2 33.0002 112.7 28.3402 111.68C23.6802 110.66 13.8702 107.42 15.7602 102.6C17.6502 97.78 29.0002 97.52 29.0002 97.52L27.5602 104.91L46.1702 114.81Z" fill="#231F20"/>
<path d="M41.9104 114.24L40.0604 113.39L39.3704 113.1C38.5704 112.75 37.8004 112.31 37.0104 111.93C36.6604 111.76 36.3004 111.6 35.9504 111.45C35.4846 111.267 35.0361 111.043 34.6104 110.78C34.3404 110.62 34.8704 110.44 35.4004 110.62C36.4004 110.95 37.3004 111.27 38.2304 111.7C38.7804 111.95 39.3904 112.14 39.9604 112.38L41.8504 113.19L43.0204 113.69C43.6104 113.93 44.1804 114.22 44.7704 114.47C45.3604 114.72 45.6804 114.84 46.1204 115.06L46.4104 115.2C46.7704 115.4 46.8604 115.52 46.8704 115.67C46.8804 115.82 46.8704 115.74 46.8704 115.77C46.8704 115.8 46.6704 115.87 46.3904 115.77C45.5504 115.53 44.6404 115.36 43.7904 115.03C43.1404 114.83 42.5304 114.51 41.8904 114.25L41.9104 114.24Z" fill="#231F20"/>
<path d="M98.0504 111.94L93.0504 112.63L91.2504 112.91L84.8704 113.72C83.9304 113.84 82.9904 113.99 82.0604 114.16C80.8746 114.417 79.6712 114.584 78.4604 114.66C78.0804 114.66 78.1004 114.49 78.3804 114.22C78.8051 113.837 79.3164 113.563 79.8704 113.42C82.3004 112.95 84.7404 112.52 87.2304 112.29C88.7204 112.15 90.2304 111.85 91.7504 111.63L96.7504 110.89L99.8104 110.41C101.35 110.15 102.89 109.89 104.4 109.55C105.57 109.28 106.7 108.93 107.82 108.55L108.56 108.3C109.49 108.04 109.81 108.05 110.11 108.3C110.18 108.342 110.247 108.389 110.31 108.44C110.45 108.56 110.16 108.97 109.49 109.28C107.408 110.114 105.243 110.721 103.03 111.09C101.38 111.42 99.7104 111.69 98.0304 111.95L98.0504 111.94Z" fill="#231F20"/>
<path d="M33.0001 80.7401L35.6501 71.2401L36.5401 67.7501L39.9201 55.5301C40.4101 53.7201 40.8401 51.8801 41.2701 50.0701C41.5301 48.9001 41.8101 47.7301 42.1301 46.5701C42.4258 45.3884 42.8309 44.2367 43.3401 43.1301C43.7101 42.3701 43.9101 42.6801 44.0901 43.3901C44.3893 44.4609 44.444 45.5853 44.2501 46.6801C43.7901 49.0701 43.1701 51.4301 42.5301 53.7901C41.8901 56.1501 41.2201 58.5001 40.5301 60.8601C39.6601 63.6801 39.0001 66.6701 38.2301 69.5901L35.6401 79.1901L34.0201 85.0901C33.2001 88.0901 32.3701 91.0901 31.5601 94.0201C30.9401 96.3201 30.4701 98.6201 29.8601 100.91C29.7301 101.41 29.6301 101.91 29.4801 102.42C29.3158 103.098 29.0601 103.751 28.7201 104.36C28.5127 104.67 28.2112 104.905 27.8601 105.03C27.724 105.09 27.5836 105.14 27.4401 105.18C27.2401 105.18 27.1201 105 27.0601 104.61C26.9895 104.058 27.0268 103.498 27.1701 102.96C28.0701 98.8801 29.1701 94.6001 30.3701 90.3101L32.9901 80.7301L33.0001 80.7401Z" fill="#231F20"/>
<path d="M51.6702 87.8801L52.4202 77.3101L52.6302 73.4601L53.6902 59.8801C53.8602 57.8801 53.9302 55.8801 54.0502 53.8801C54.1302 52.5901 54.2102 51.3101 54.3002 50.0201C54.3002 49.3801 54.4102 48.7401 54.4902 48.0901C54.5533 47.4334 54.6772 46.784 54.8602 46.1501C55.1002 45.3201 55.4002 45.5501 55.7702 46.2701C56.3196 47.3314 56.5881 48.5157 56.5502 49.7101C56.4335 54.9646 56.0329 60.2089 55.3502 65.4201C54.9602 68.5701 54.8402 71.8601 54.5802 75.0801L53.7102 85.7201C53.5302 87.9001 53.3602 90.0901 53.1802 92.2701C52.9302 95.5701 52.6402 98.8901 52.4202 102.18C52.2702 104.73 52.1202 107.25 51.9802 109.77C51.9802 110.33 51.9202 110.88 51.8602 111.44C51.6602 113.51 51.3902 114.24 50.8602 114.58C50.7582 114.662 50.6475 114.732 50.5302 114.79C50.3602 114.85 50.2502 114.65 50.1902 114.26C50.1469 113.698 50.1469 113.133 50.1902 112.57C50.3902 108.09 50.6402 103.33 50.9302 98.5701C51.1602 95.0301 51.3902 91.4701 51.6202 87.9201L51.6702 87.8801Z" fill="#231F20"/>
<path d="M106 81.26L104.11 71.7C103.88 70.54 103.57 69.39 103.35 68.23L101 55.91C100.66 54.08 100.23 52.27 99.8602 50.47C99.6102 49.31 99.3302 48.16 99.1002 46.99C98.8444 45.8064 98.7038 44.6008 98.6802 43.39C98.6802 42.54 99.1602 42.74 99.7402 43.28C100.586 44.0202 101.186 45.0004 101.46 46.09C102 48.43 102.59 50.76 103.01 53.09C103.43 55.42 103.83 57.86 104.17 60.27C104.58 63.15 105.32 66.09 105.88 69.01L107.73 78.66L108.9 84.59C109.5 87.59 110.08 90.59 110.74 93.59C111.26 95.89 111.89 98.11 112.45 100.37C112.58 100.87 112.72 101.37 112.84 101.86C113.26 103.73 113.22 104.37 112.72 104.86C112.62 104.986 112.506 105.1 112.38 105.2C111.97 105.46 111.45 104.77 111.05 103.43C109.84 99.43 108.85 95.18 107.91 90.88L105.91 81.26H106Z" fill="#231F20"/>
<path d="M89.6401 113.12L80.8701 114.47L77.6701 115C73.9101 115.54 70.1401 116.06 66.3601 116.51C64.6801 116.71 63.0001 116.96 61.3601 117.19C59.2044 117.615 57.002 117.753 54.8101 117.6C54.0801 117.5 54.2901 117.22 54.8701 116.9C55.7107 116.416 56.6269 116.078 57.5801 115.9C61.8801 115.34 66.2001 114.63 70.5801 114.17C73.2101 113.89 75.9101 113.36 78.5801 112.93L87.3901 111.51L92.8001 110.59C95.5301 110.11 98.2801 109.64 100.97 109.07C103.06 108.64 105.09 108.07 107.13 107.54C107.58 107.43 108.02 107.29 108.47 107.18C110.16 106.81 110.73 106.85 111.22 107.26C111.33 107.35 111.46 107.42 111.53 107.49C111.6 107.56 111.17 108.32 109.95 108.76C106.191 109.951 102.356 110.886 98.4701 111.56C95.5401 112.12 92.5901 112.62 89.6501 113.12H89.6401Z" fill="#231F20"/>
<path d="M40.8003 113.12L37.1803 111.12C36.7403 110.87 36.2803 110.67 35.8403 110.42C34.2903 109.55 32.7903 108.59 31.2603 107.67C30.5903 107.26 29.8903 106.89 29.2003 106.51C28.3038 106.033 27.4621 105.46 26.6903 104.8C26.4503 104.58 26.6003 104.44 26.9503 104.39C27.4345 104.326 27.9271 104.388 28.3803 104.57C28.8403 104.77 29.3203 104.96 29.7803 105.18L31.1203 105.92C32.0003 106.43 32.8803 106.92 33.7503 107.51C34.7503 108.18 35.9503 108.73 37.0503 109.35L40.6803 111.35L42.9303 112.59C44.0703 113.2 45.2103 113.83 46.3503 114.42C47.2403 114.88 48.1503 115.24 49.0403 115.67L49.6103 115.98C50.3103 116.39 50.5003 116.59 50.6103 116.87C50.6143 116.93 50.6143 116.99 50.6103 117.05C50.6103 117.23 50.2503 117.21 49.6103 117.05L48.3003 116.68L47.0203 116.17C46.1703 115.82 45.3203 115.44 44.4703 115.05C43.2103 114.45 41.9903 113.77 40.7503 113.13L40.8003 113.12Z" fill="#231F20"/>
<path d="M78.0601 44.4301L69.6201 45.3301L66.5501 45.7001L61.1301 46.2401L58.4201 46.5301L57.0801 46.6901L56.4101 46.7701L55.6701 46.8901C55.3801 46.9601 55.0301 46.7601 54.8701 46.7301L54.2801 46.5101C53.8901 46.3601 53.5001 46.2001 53.1301 46.0301C52.3701 45.7001 51.6401 45.3401 50.9201 44.9601C49.0559 44.0255 47.296 42.8958 45.6701 41.5901C45.1701 41.1701 45.4001 41.0201 45.9901 41.1201C46.9042 41.3137 47.7818 41.6513 48.5901 42.1201C50.3795 43.1163 52.2336 43.9916 54.1401 44.7401C54.6001 44.9101 55.0701 45.0801 55.5301 45.2001H55.7801C56.1301 45.1301 56.3401 45.1201 56.6201 45.0801C57.6901 44.9401 58.7401 44.8501 59.8001 44.7501C62.3301 44.5401 64.9301 44.1001 67.5001 43.7501C70.3301 43.3901 73.1601 43.1101 75.9901 42.7501L81.2201 42.1701L89.1201 41.2501C91.1201 40.9901 93.1201 40.6301 95.1201 40.3201C95.5601 40.2501 95.9901 40.1701 96.4301 40.1301C98.0901 39.9501 98.6201 40.0001 99.0301 40.2801C99.1253 40.3394 99.2156 40.4063 99.3001 40.4801C99.5101 40.7001 98.8501 41.0501 97.6601 41.3601C94.1301 42.2801 90.3501 42.8301 86.5601 43.4201C83.7401 43.8001 80.9001 44.1101 78.0701 44.4201L78.0601 44.4301Z" fill="#231F20"/>
<path d="M81.1004 34.0001C78.4304 34.2301 75.7604 34.5101 73.1004 34.8101L70.1804 35.1801L59.8604 36.2901C58.3304 36.4601 56.8004 36.6601 55.2904 36.8701C54.2904 36.9901 53.3504 37.1501 52.3604 37.2401C51.3644 37.3674 50.3563 37.3674 49.3604 37.2401C48.6804 37.1201 48.8904 36.8401 49.4104 36.5201C49.6604 36.3801 50.0004 36.1901 50.4104 36.0001C50.8747 35.7995 51.3671 35.6713 51.8704 35.6201C55.7804 35.2201 59.7504 34.6801 63.7604 34.3501C66.1604 34.1401 68.6304 33.7101 71.0704 33.3501C73.7604 33.0101 76.4504 32.6801 79.1504 32.3501C80.8104 32.1601 82.4704 32.0001 84.1504 31.8401L86.0504 31.6901L87.0504 31.6401H87.5904H87.9304L88.2204 31.8101L89.8704 32.8901L91.4604 33.8901C93.1204 34.8901 94.8004 35.8901 96.4604 36.8201C96.8404 37.0301 97.1904 37.2401 97.5504 37.4801C98.9104 38.3101 99.1204 38.8901 99.2204 39.3501C99.2277 39.4533 99.2277 39.5569 99.2204 39.6601C99.2204 39.8101 99.0504 39.8301 98.7304 39.7901C98.2662 39.7371 97.8118 39.6193 97.3804 39.4401C95.7841 38.6937 94.2376 37.8453 92.7504 36.9001C91.2304 35.9801 89.7504 35.0001 88.1904 34.0101L87.7704 33.7301L87.5604 33.5901C87.4804 33.5401 87.4104 33.5001 87.4304 33.5001C87.4504 33.5001 87.5904 33.5001 87.1104 33.5001C86.4604 33.5001 85.8004 33.5601 85.1104 33.6201C83.7804 33.7101 82.4304 33.8501 81.1104 33.9801L81.1004 34.0001Z" fill="#231F20"/>
<path d="M79.8603 18.1602C78.6192 16.6714 76.9333 15.6199 75.0503 15.1602C74.1373 14.9939 73.1977 15.0488 72.3103 15.3202C71.3959 15.5855 70.5452 16.0347 69.8103 16.6402C68.688 17.5908 67.7374 18.7274 67.0003 20.0002C65.644 22.3918 64.6053 24.95 63.9103 27.6102C63.1882 30.3199 62.6766 33.0815 62.3803 35.8702C62.1223 38.3547 62.0188 40.8528 62.0703 43.3502C62.0703 44.9402 62.2103 46.5302 62.3403 48.1202C62.4703 49.7102 62.6603 51.2802 62.7403 52.8802C62.8003 53.8802 62.4903 53.8102 61.9603 53.0402C61.6103 52.5172 61.3059 51.9652 61.0503 51.3902C60.7256 50.59 60.5136 49.7486 60.4203 48.8902C59.6147 42.2095 59.9939 35.4391 61.5403 28.8902C62.5403 24.9902 63.6403 20.8202 66.2303 17.3102C67.6293 15.2712 69.7055 13.7938 72.0903 13.1402C73.3106 12.8553 74.58 12.8553 75.8003 13.1402C76.9965 13.4174 78.1252 13.9308 79.1203 14.6502C81.3928 16.4019 83.2618 18.6222 84.6003 21.1602C86.592 24.8913 88.072 28.8738 89.0003 33.0002C89.7826 36.1241 90.3242 39.3034 90.6203 42.5102C90.6803 43.2202 90.7303 43.9102 90.7503 44.6302C90.7503 47.2902 90.3803 48.1302 89.8903 48.6302C89.7908 48.7532 89.6839 48.87 89.5703 48.9802C89.2403 49.2002 88.9903 48.1202 88.8003 46.2402C88.4966 40.515 87.489 34.849 85.8003 29.3702C84.4503 25.3002 82.6503 21.2402 79.8603 18.2002V18.1602Z" fill="#231F20"/>
<path d="M67.5803 14.5201C66.9185 13.4986 66.0371 12.6377 65.0003 12.0001C64.5217 11.7026 63.9857 11.5097 63.4273 11.4339C62.8689 11.3581 62.3009 11.401 61.7603 11.5601C60.9049 11.7977 60.1036 12.1984 59.4003 12.7401C58.0763 13.7562 56.9824 15.041 56.1903 16.5101C55.3379 18.0337 54.6475 19.6425 54.1303 21.3101C53.6924 22.812 53.3583 24.3423 53.1303 25.8901C52.7703 27.8901 52.6403 29.8901 52.2403 31.8901C52.1403 32.5001 51.8703 32.4301 51.5503 31.8901C51.0379 31.0158 50.788 30.0125 50.8303 29.0001C50.9122 26.8667 51.2206 24.7482 51.7503 22.6801C52.2725 20.5787 53.0447 18.5476 54.0503 16.6301C54.6641 15.4371 55.3801 14.2995 56.1903 13.2301C57.0251 12.0943 58.0834 11.1414 59.3003 10.4301C59.9902 10.0496 60.731 9.77013 61.5003 9.60006C62.2998 9.40842 63.1299 9.3812 63.9403 9.52006C65.4877 9.85695 66.8883 10.6763 67.9403 11.8601C69.1606 13.2089 70.1505 14.7495 70.8703 16.4201C71.924 18.8756 72.7118 21.4368 73.2203 24.0601C73.671 26.0387 74.0049 28.0422 74.2203 30.0601C74.2203 30.5001 74.3003 30.9401 74.3303 31.3901C74.3303 33.0601 74.1703 33.6001 73.7603 33.9501C73.6703 34.0301 73.5903 34.1401 73.5303 34.1901C73.4703 34.2401 72.9303 33.6801 72.7403 32.4901C72.5903 31.6201 72.4403 30.7301 72.2903 29.8401C72.1403 28.9501 71.9503 28.0701 71.8203 27.1701C71.5203 25.3801 71.1603 23.5801 70.6803 21.8201C70.0565 19.2306 68.9982 16.7657 67.5503 14.5301L67.5803 14.5201Z" fill="#231F20"/>
<path d="M63.0003 56.0501C61.9804 56.2046 60.9399 55.965 60.0903 55.3802C59.7882 55.163 59.5188 54.9037 59.2903 54.6102C58.9581 54.1055 58.7334 53.5379 58.6301 52.9426C58.5269 52.3473 58.5474 51.7372 58.6903 51.1502C58.8 50.6509 58.9713 50.1672 59.2003 49.7101C59.472 49.1062 59.941 48.6125 60.5303 48.3102C60.7203 48.2302 60.8603 48.5301 60.9403 48.8901C61.0369 49.1968 61.0155 49.5285 60.8803 49.8201C60.2659 50.5155 59.9124 51.4028 59.8803 52.3302C59.9037 52.9323 60.1636 53.5009 60.6035 53.9127C61.0434 54.3246 61.6279 54.5464 62.2303 54.5301C62.6448 54.5461 63.0578 54.471 63.4403 54.3102C63.7183 54.1992 63.9649 54.0218 64.1584 53.7934C64.352 53.565 64.4865 53.2926 64.5503 53.0001C64.6024 52.5059 64.5266 52.0066 64.3303 51.5501L64.2003 51.2501C64.1647 51.1808 64.1435 51.105 64.1378 51.0273C64.1322 50.9496 64.1423 50.8715 64.1675 50.7978C64.1927 50.7241 64.2325 50.6562 64.2845 50.5982C64.3365 50.5401 64.3997 50.4932 64.4703 50.4601L64.7003 50.2902C64.7684 50.2483 64.8445 50.221 64.9237 50.2099C65.0029 50.1988 65.0835 50.2043 65.1606 50.2259C65.2376 50.2475 65.3093 50.2848 65.3712 50.3354C65.4331 50.386 65.4838 50.4489 65.5203 50.5202C65.892 51.0852 66.1048 51.7399 66.1365 52.4155C66.1682 53.0911 66.0175 53.7628 65.7003 54.3602C65.4168 54.8748 65.003 55.3059 64.5003 55.6102C64.0357 55.8803 63.5227 56.057 62.9903 56.1302L63.0003 56.0501Z" fill="#231F20"/>
<path d="M90.0503 51.0001C90.7017 50.9729 91.3266 50.7342 91.8303 50.3201C92.0021 50.1571 92.1472 49.9682 92.2603 49.7601C92.4841 49.4533 92.6159 49.0891 92.6403 48.7101C92.6724 48.2977 92.5669 47.8862 92.3403 47.5401C92.1317 47.181 91.8487 46.8708 91.5103 46.6301C91.3296 46.5063 91.1305 46.4118 90.9203 46.3501C90.7561 46.2788 90.5792 46.2414 90.4003 46.2401C90.2603 46.2401 90.0503 46.0101 90.0503 45.6201C90.0656 45.3495 90.184 45.0951 90.3812 44.9091C90.5783 44.7231 90.8392 44.6197 91.1103 44.6201C91.5589 44.6708 91.9928 44.8111 92.3862 45.0327C92.7796 45.2543 93.1245 45.5527 93.4003 45.9101C93.9369 46.5528 94.2618 47.3457 94.3303 48.1801C94.3686 48.6882 94.3061 49.1989 94.1465 49.6829C93.9869 50.1668 93.7333 50.6144 93.4003 51.0001C92.7263 51.7574 91.8304 52.2824 90.8403 52.5001C90.236 52.6496 89.6045 52.6496 89.0003 52.5001C88.1031 52.2238 87.345 51.6158 86.8803 50.8001C86.4965 50.203 86.2885 49.5099 86.2803 48.8001C86.2825 48.637 86.3094 48.4751 86.3603 48.3201C86.5603 47.7401 86.7903 47.6301 87.0903 47.6701H87.3003C87.5103 47.7501 87.5703 48.0101 87.5903 48.3201C87.6326 48.7337 87.7477 49.1366 87.9303 49.5101C88.1131 49.8424 88.331 50.1542 88.5803 50.4401C88.7635 50.6291 88.985 50.7768 89.2298 50.8734C89.4747 50.97 89.7374 51.0132 90.0003 51.0001H90.0503Z" fill="#231F20"/>
</svg>
