<svg width="128" height="128" viewBox="0 0 128 128" fill="none" xmlns="http://www.w3.org/2000/svg">
<path d="M25.6398 32.94C25.7098 34.05 25.8298 35.18 26.1498 36.26C26.2498 36.66 26.4098 37.04 26.5598 37.43C27.0298 38.81 27.6598 40.17 28.4898 41.41C28.8398 41.97 29.2898 42.47 29.6998 42.98C29.9798 43.3 30.2898 43.59 30.5398 43.94C30.7898 44.29 31.0298 44.66 31.2598 45.03C31.3998 45.27 31.3198 45.31 31.0398 45.28C30.7698 45.23 30.2398 45.17 29.7498 44.93C28.2298 43.86 27.1698 42.28 26.3798 40.61C25.8998 39.61 25.3598 38.6 24.9598 37.53C24.5698 36.35 24.2598 35.13 24.1398 33.89C24.0298 33.13 24.0498 32.36 24.0298 31.6C24.0698 30.45 24.2398 29.3 24.4598 28.19C24.5598 27.76 24.5898 27.32 24.7098 26.9L25.0598 25.64C25.1198 25.46 25.1798 25.28 25.2598 25.1C25.5498 24.44 25.7098 24.26 26.0198 24.23C26.0898 24.23 26.1598 24.2 26.2298 24.21C26.4398 24.23 26.4998 24.56 26.4198 25.07C26.2698 25.81 26.1898 26.58 26.0898 27.33C26.0098 28.08 25.8398 28.82 25.7998 29.58C25.7798 29.86 25.7398 30.14 25.7298 30.42C25.7298 30.7 25.7298 30.98 25.6998 31.26C25.6398 31.82 25.6998 32.38 25.6998 32.94H25.6598H25.6398Z" fill="#231F20"/>
<path d="M77.23 18.82C77.84 18.33 78.47 17.86 79.15 17.48C79.39 17.33 79.62 17.16 79.88 17.05C80.33 16.83 80.82 16.69 81.3 16.54C81.79 16.43 82.29 16.38 82.79 16.36C83.22 16.33 83.66 16.33 84.08 16.33C84.35 16.38 84.62 16.42 84.89 16.48C85.15 16.57 85.4 16.68 85.65 16.78C85.8 16.85 85.77 16.87 85.62 16.93C85.47 16.98 85.19 17.13 84.91 17.2C84.65 17.26 84.41 17.36 84.17 17.44C83.94 17.49 83.71 17.54 83.47 17.59C83.01 17.69 82.57 17.8 82.11 17.92C81.53 17.99 81.02 18.35 80.51 18.64C79.95 18.97 79.4 19.35 78.89 19.8C78.57 20.07 78.27 20.36 77.99 20.67C77.57 21.14 77.16 21.64 76.85 22.2C76.61 22.63 76.49 23.12 76.36 23.58C76.33 23.68 76.29 23.78 76.24 23.87C76.05 24.21 75.87 24.28 75.44 24.21C75.34 24.19 75.25 24.19 75.16 24.17C74.88 24.11 74.65 23.84 74.63 23.47C74.55 22.91 74.69 22.41 74.87 21.92C75.06 21.44 75.29 20.96 75.61 20.54C76.07 19.9 76.62 19.33 77.2 18.79L77.23 18.82Z" fill="#231F20"/>
<path d="M113.12 35.01C112.85 34.79 112.56 34.57 112.21 34.46C112.09 34.41 111.95 34.44 111.82 34.4C111.36 34.29 110.82 34.26 110.28 34.35C110.04 34.39 109.8 34.46 109.58 34.58C109.31 34.75 109 34.83 108.62 34.85C108.5 34.85 108.4 34.68 108.35 34.42C108.3 34.17 108.28 33.8 108.41 33.6C108.52 33.42 108.67 33.26 108.85 33.17C109.02 33.06 109.19 32.96 109.39 32.89C109.76 32.71 110.2 32.69 110.62 32.71C111.13 32.77 111.64 32.64 112.16 32.75C112.72 32.84 113.26 33.07 113.72 33.37C114.01 33.55 114.26 33.77 114.51 33.99C114.87 34.34 115.16 34.73 115.46 35.1C115.71 35.37 115.95 35.65 116.16 35.95C116.2 36.02 116.25 36.08 116.29 36.15C116.36 36.45 116.28 36.59 116.01 36.77C115.95 36.81 115.89 36.86 115.83 36.89C115.63 37 115.38 36.99 115.15 36.89C114.53 36.56 114.14 36.21 113.84 35.8C113.61 35.5 113.36 35.25 113.09 35.03L113.11 34.99L113.12 35.01Z" fill="#231F20"/>
<path d="M87.47 36.43C86.72 36.41 85.98 36.52 85.25 36.66C84.98 36.72 84.74 36.84 84.47 36.91C83.55 37.2 82.64 37.57 81.81 38.1C81.43 38.31 81.09 38.61 80.77 38.91C80.33 39.26 79.95 39.68 79.44 39.98C79.28 40.07 79.15 39.93 79.1 39.67C79.05 39.42 79.06 39.02 79.26 38.72C79.44 38.46 79.62 38.2 79.85 37.98C80.09 37.78 80.33 37.58 80.58 37.38C81.12 37.04 81.64 36.68 82.25 36.48C82.6 36.33 82.95 36.18 83.31 36.04C83.66 35.88 84.02 35.74 84.4 35.65C85.21 35.4 86.06 35.32 86.89 35.26C87.41 35.26 87.92 35.26 88.43 35.3C89.2 35.35 89.96 35.51 90.71 35.66C91.29 35.78 91.87 35.87 92.44 36.02C92.57 36.05 92.68 36.1 92.8 36.15C93.24 36.36 93.34 36.5 93.36 36.74C93.36 36.8 93.37 36.85 93.36 36.9C93.34 37.06 93.11 37.13 92.76 37.1C92.23 37.09 91.74 36.99 91.24 36.88C90.74 36.78 90.24 36.68 89.74 36.61C88.99 36.51 88.24 36.42 87.49 36.46V36.43H87.47Z" fill="#231F20"/>
<path d="M15.22 51.74C15.69 51.06 16.27 50.39 16.88 49.85C17.47 49.29 18.12 48.79 18.79 48.32C19.28 47.99 19.75 47.63 20.29 47.36C22.14 46.37 24.19 45.85 26.25 45.71C27.17 45.68 28.09 45.65 29 45.76C29.58 45.84 30.18 45.9 30.75 46.13C31.3 46.36 31.83 46.7 32.26 47.11C32.54 47.37 32.35 47.51 31.96 47.6C31.76 47.65 31.52 47.68 31.25 47.7C30.97 47.74 30.68 47.75 30.4 47.72C28.47 47.22 26.36 47.21 24.24 47.59C22.96 47.82 21.73 48.43 20.6 49.12C19.36 49.87 18.17 50.83 17.24 51.91C16.67 52.59 16.18 53.36 15.78 54.18C15.18 55.42 14.73 56.76 14.54 58.13C14.37 59.19 14.47 60.25 14.56 61.29C14.56 61.52 14.61 61.74 14.63 61.98C14.69 62.84 14.68 63.13 14.39 63.39C14.33 63.45 14.27 63.52 14.2 63.56C13.99 63.7 13.71 63.39 13.44 62.73C12.66 60.77 12.64 58.45 13.15 56.27C13.55 54.65 14.25 53.11 15.19 51.7L15.23 51.72L15.22 51.74Z" fill="#231F20"/>
<path d="M18.7799 68.88C20.3499 70.42 22.3399 71.55 24.5399 72.26C26.7399 72.98 29.1399 73.23 31.5599 73.28C33.3299 73.33 35.0999 73.11 36.8799 72.95C43.1799 72.3 49.4599 70.71 55.6999 69C58.4799 68.22 61.2699 67.43 64.0299 66.66C65.8099 66.17 67.6199 65.72 69.4799 65.4C70.4099 65.26 71.3599 65.12 72.3299 65.16C72.8199 65.22 73.3099 65.27 73.7899 65.35C74.0399 65.4 74.2699 65.51 74.5099 65.6C74.7399 65.69 74.9699 65.76 75.1899 65.91C76.2499 66.59 76.0499 66.41 75.0699 66.43C74.8299 66.42 74.5199 66.51 74.1899 66.62C74.1099 66.65 74.0199 66.66 73.9399 66.72C73.8599 66.72 73.7699 66.76 73.6799 66.78C73.4999 66.83 73.3099 66.91 73.1199 66.98C72.7299 67.11 72.3399 67.27 71.8999 67.42C71.4599 67.53 70.9999 67.6 70.5099 67.71C67.0099 68.33 63.4499 69.5 59.8799 70.55C56.2899 71.6 52.6399 72.59 48.9099 73.4C44.4599 74.38 39.8199 75.54 35.0899 75.94C32.4899 76.14 29.8499 76.13 27.2099 75.76C24.5899 75.39 21.9399 74.65 19.5699 73.28C16.6499 71.6 14.3399 68.96 12.8499 66.04C12.5799 65.48 12.2899 64.93 12.0399 64.35C11.8499 63.73 11.5899 63.13 11.4599 62.5C11.1899 61.24 11.0599 59.96 11.1199 58.69C11.2299 56.15 11.9299 53.67 13.1399 51.46C14.0399 49.71 15.3399 48.21 16.8099 46.9L17.9699 45.98C18.3799 45.7 18.8199 45.47 19.2399 45.21L19.8899 44.83C20.1099 44.72 20.3499 44.64 20.5699 44.54L21.9599 43.98C22.7999 43.73 23.6299 43.52 24.4999 43.33C26.1199 43.21 27.1999 43.12 27.9199 43.43C28.6399 43.72 29.0299 44.07 29.3099 44.56C29.4399 44.78 29.5999 44.99 29.6599 45.2C29.7599 45.54 29.4799 45.83 28.9399 46.09C28.6699 46.22 28.3299 46.34 27.9399 46.46C27.5499 46.6 27.0999 46.56 26.6099 46.69C23.6899 47.04 20.9699 48.08 18.8399 49.86C17.8299 50.8 16.8499 51.82 16.1899 53.09L15.9099 53.54L15.6999 54.03C15.5599 54.36 15.3999 54.68 15.2699 55.01C15.0699 55.7 14.7999 56.37 14.6999 57.08C14.2999 59.17 14.3799 61.37 15.1399 63.27C15.9999 65.39 17.2199 67.3 18.8199 68.82L18.7699 68.88H18.7799Z" fill="#231F20"/>
<path d="M25.02 23.33C27.12 20.14 30.14 17.66 33.62 16.22L35.57 15.54C36.23 15.36 36.9 15.23 37.56 15.1C42.34 14.43 47.26 15.82 50.94 18.71C52.58 19.98 54.08 21.46 55.18 23.21C56.61 25.38 57.85 27.9 57.56 30.58C57.46 31.4 57.43 31.28 56.95 30.71C56.72 30.42 56.26 30.05 55.94 29.58C55.76 29.35 55.53 29.11 55.34 28.86C55.24 28.73 55.15 28.6 55.04 28.47C54.97 28.33 54.9 28.18 54.85 28.02C53.92 25.87 52.53 24 50.91 22.4C49.33 20.76 47.4 19.44 45.24 18.53C42.63 17.39 39.54 17.47 36.74 18.14C33.66 18.86 30.84 20.71 28.72 23.14C28.36 23.49 28.13 23.94 27.82 24.33L27.38 24.94C27.24 25.15 27.14 25.38 27.02 25.59C26.8 26.03 26.54 26.47 26.34 26.92L25.84 28.33C24.93 31.2 24.92 34.42 26.02 37.27C26.22 37.82 26.52 38.34 26.77 38.87L27.17 39.65C27.32 39.9 27.51 40.13 27.68 40.37L28.71 41.78C29.07 42.23 29.51 42.64 29.9 43.07C30.26 43.44 30.61 43.8 30.97 44.17C31.69 44.81 32.12 45.27 32.33 45.71C32.52 46.16 32.51 46.56 32.36 47.04C32.29 47.26 32.25 47.5 32.16 47.69C32.01 48.01 31.69 48.13 31.24 48.06C30.79 47.99 30.19 47.75 29.58 47.25C29.13 46.88 28.64 46.55 28.24 46.11C27.83 45.68 27.42 45.24 27.02 44.78C26.17 43.92 25.53 42.84 24.86 41.78C24.5 41.27 24.25 40.68 24 40.09C23.75 39.5 23.48 38.92 23.26 38.32L22.77 36.43C22.57 35.81 22.51 35.16 22.43 34.5C21.95 30.63 22.88 26.57 24.96 23.32L25.02 23.35V23.33Z" fill="#231F20"/>
<path d="M93.49 34.78C93.97 35.08 94.45 35.39 94.88 35.77C95.31 36.14 95.67 36.55 96.07 36.94C96.47 37.31 96.77 37.8 97.11 38.23C97.46 38.66 97.71 39.15 97.98 39.63C98.4 40.31 98.7 41.06 98.97 41.8C99.3 43.16 99.53 44.55 99.35 45.9C99.34 46.58 99.16 47.23 99.06 47.89C98.87 48.53 98.75 49.18 98.49 49.78C98.12 50.88 97.59 51.92 97.02 52.92L96.39 53.84C96.17 54.14 95.87 54.38 95.61 54.65C95.07 55.17 94.36 55.52 93.63 55.7C93.18 55.82 93.22 55.71 93.42 55.33C93.52 55.14 93.65 54.87 93.77 54.56C93.83 54.39 93.87 54.2 93.94 54.03C94.02 53.87 94.11 53.73 94.21 53.59C95.58 51.5 96.51 49.13 96.82 46.6C97.01 45.08 96.61 43.5 96.02 42.12C95.38 40.58 94.29 39.22 92.95 38.14C92.13 37.49 91.19 36.97 90.17 36.65C88.64 36.14 86.92 36.01 85.3 36.33C84.03 36.57 82.91 37.24 81.8 37.84C81.55 37.95 81.33 38.13 81.07 38.25C80.84 38.37 80.63 38.44 80.46 38.51C80.28 38.57 80.1 38.56 79.95 38.55C79.64 38.53 79.4 38.43 79.14 38.25C79.02 38.17 78.89 38.11 78.8 38.03C78.5 37.78 78.64 37.19 79.17 36.36C80.98 34.3 83.92 33.2 86.95 33.09C89.21 33 91.53 33.59 93.54 34.71L93.51 34.78H93.49Z" fill="#231F20"/>
<path d="M105.42 67.95C103.75 70.59 101.23 72.54 98.46 73.59L96.94 74.13C96.44 74.31 95.9 74.39 95.38 74.5C91.67 75.19 87.97 74.55 84.57 73.5C83.82 73.23 83.04 73.05 82.32 72.74C81.58 72.45 80.85 72.16 80.12 71.88C79.22 71.44 78.29 71.04 77.4 70.57C76.97 70.31 76.56 70.01 76.15 69.72L75.54 69.27C75.35 69.11 75.2 68.87 75.03 68.68C74.65 68.13 74.73 68.16 75.38 68.11C75.69 68.11 76.21 67.96 76.67 68.05C77.14 68.11 77.66 68.23 78.16 68.47C79.07 68.83 79.91 69.3 80.78 69.73C81.66 70.13 82.56 70.47 83.44 70.86C84.35 71.16 85.25 71.5 86.17 71.77C87.1 71.98 88.02 72.31 88.98 72.42C91.25 72.83 93.69 72.59 95.89 71.92C98.32 71.22 100.51 69.82 102.12 67.91C103.07 66.72 103.86 65.34 104.2 63.86C104.42 62.74 104.51 61.59 104.24 60.49C103.97 59.39 103.44 58.36 102.7 57.49C101.51 56.17 99.86 55.33 98.21 54.98C97.84 54.92 97.48 54.85 97.12 54.83C96.45 54.73 96.04 54.74 95.72 54.53C95.42 54.42 95.21 54.13 94.99 53.75C94.89 53.58 94.76 53.43 94.69 53.28C94.57 53.03 94.64 52.78 94.93 52.45C95.22 52.1 95.76 51.89 96.45 51.81C98.53 51.65 100.62 52.29 102.43 53.44C104.22 54.59 105.81 56.31 106.62 58.48C107.27 60.06 107.39 61.85 107.14 63.48C107.05 64.32 106.77 65.08 106.53 65.85C106.4 66.23 106.2 66.58 106.04 66.94C105.86 67.29 105.72 67.67 105.48 67.99L105.42 67.96V67.95Z" fill="#231F20"/>
<path d="M82.2301 15.17C82.6801 15.12 83.1401 15.08 83.6101 15.07C83.8601 15.07 84.0801 15.07 84.3601 15.09C84.6501 15.11 84.8801 15.15 85.0901 15.2C85.9901 15.35 86.8501 15.63 87.6601 15.96C88.2501 16.22 88.8601 16.43 89.4001 16.78C90.3601 17.37 91.2301 18.08 91.9901 18.87C92.7701 19.65 93.4301 20.51 94.0101 21.43C94.5401 22.23 94.9901 23.07 95.4001 23.93C95.6601 24.48 95.8601 25.06 95.9701 25.66C96.0101 25.96 96.1001 26.25 96.0801 26.56C96.0401 26.86 96.0001 27.17 95.9601 27.49C95.8901 27.87 95.7801 27.83 95.4701 27.57C95.2601 27.4 95.0401 27.22 94.8401 27.06C94.7201 26.96 94.5801 26.85 94.4601 26.74C94.3601 26.62 94.2701 26.5 94.2001 26.36C93.6601 25.41 93.2701 24.47 92.7301 23.57C92.2001 22.68 91.6101 21.81 90.9201 20.99C90.1001 19.99 88.8901 19.33 87.7101 18.8C87.0601 18.52 86.3901 18.25 85.7001 18.08C85.3601 17.97 85.0101 17.92 84.6601 17.86C84.4701 17.82 84.3501 17.82 84.1901 17.81C84.0201 17.81 83.8601 17.81 83.6801 17.81C82.8201 17.86 81.9101 18.03 81.0501 18.31C79.7401 18.7 78.4401 19.28 77.3901 20.18C76.5501 20.86 75.9901 21.77 75.4501 22.64C75.3401 22.84 75.2501 23.05 75.1101 23.23C74.6201 23.93 74.3601 24.11 73.7901 24.05C73.6601 24.04 73.5301 24.05 73.4101 24.02C73.0101 23.94 72.8701 23.45 73.0301 22.7C73.2401 21.57 73.8301 20.54 74.5401 19.59C75.2501 18.62 76.1801 17.8 77.1801 17.1C77.9201 16.57 78.7401 16.16 79.5801 15.8C80.4301 15.48 81.3201 15.27 82.2301 15.11L82.2501 15.18L82.2301 15.17Z" fill="#231F20"/>
<path d="M105.88 17.02C107.37 18.13 108.47 19.6 109.24 21.15C109.49 21.72 109.83 22.26 110 22.87C110.65 24.97 110.8 27.14 110.54 29.23C110.42 30.16 110.29 31.08 110.07 31.98L109.85 32.85C109.77 33.14 109.62 33.4 109.5 33.67C109.37 33.94 109.26 34.21 109.08 34.46C108.93 34.72 108.65 34.91 108.45 35.12C108.16 35.37 108.14 35.3 108.06 34.92C108.02 34.73 107.96 34.46 107.87 34.14C107.82 33.84 107.84 33.55 107.88 33.24C108.07 32.17 108.37 31.16 108.54 30.11C108.66 29.06 108.79 27.99 108.77 26.9C108.77 25.59 108.32 24.28 107.79 23.1C107.21 21.78 106.37 20.59 105.29 19.69C104.95 19.42 104.62 19.14 104.23 18.94C103.84 18.7 103.51 18.53 103.13 18.45C101.99 18.14 100.61 18.41 99.4199 18.95C98.9599 19.17 98.5399 19.47 98.1599 19.81C97.7699 20.12 97.3899 20.45 97.0499 20.8C96.8899 20.95 96.7699 21.12 96.6199 21.28C96.3399 21.56 96.1699 21.76 95.9599 21.85C95.7299 21.93 95.5299 21.95 95.2799 21.94C95.1699 21.94 95.0599 21.94 94.9699 21.94C94.8099 21.92 94.7299 21.8 94.6599 21.56C94.5999 21.33 94.5299 20.94 94.6999 20.59C95.0999 19.48 95.7799 18.42 96.6699 17.53C97.6299 16.74 98.7599 16.13 100.05 15.79C101.01 15.58 102.05 15.51 103.11 15.72C103.64 15.83 104.17 15.99 104.68 16.24C105.17 16.48 105.51 16.74 105.92 16.99L105.89 17.04L105.88 17.02Z" fill="#231F20"/>
<path d="M116.87 36.49C116.98 36.84 117.03 37.19 117.1 37.56C117.15 38.02 117.16 38.37 117.12 38.72C117.05 39.43 116.9 40.08 116.7 40.72C116.56 41.19 116.44 41.66 116.24 42.1C115.48 43.64 114.36 44.96 113.04 45.92C112.74 46.12 112.45 46.34 112.16 46.55L111.22 47.06C110.82 47.26 110.4 47.43 109.98 47.6C109.78 47.7 109.54 47.71 109.31 47.71C109.09 47.71 108.86 47.71 108.62 47.72C108.33 47.72 108.36 47.65 108.51 47.4C108.62 47.22 108.73 47.03 108.82 46.88C108.89 46.75 108.96 46.64 109.02 46.54C109.05 46.48 109.09 46.44 109.13 46.36C109.18 46.33 109.23 46.3 109.27 46.26L110.25 45.55C110.55 45.29 110.84 45.03 111.15 44.81C111.76 44.36 112.36 43.91 112.92 43.36C113.6 42.71 113.95 41.77 114.24 40.88C114.41 40.39 114.52 39.87 114.6 39.36C114.67 38.85 114.71 38.3 114.67 37.9C114.59 37.28 114.4 36.67 114.09 36.11C113.64 35.26 112.96 34.49 112.11 34.01C111.45 33.62 110.7 33.49 109.97 33.43L109.49 33.41C108.89 33.33 108.69 33.15 108.51 32.74C108.47 32.64 108.42 32.55 108.39 32.46C108.29 32.16 108.55 31.85 109.12 31.6C109.97 31.32 110.92 31.34 111.86 31.52C112.8 31.72 113.75 32.11 114.5 32.78C115.65 33.73 116.48 35.04 116.92 36.44L116.86 36.46L116.87 36.49Z" fill="#231F20"/>
<path d="M51.1802 67.2C51.1402 67.34 50.9502 67.34 50.7202 67.28C50.6402 67.26 50.4802 67.12 50.4702 67.07C50.4602 66.97 50.4402 66.87 50.4302 66.78C50.4402 66.73 50.5802 66.05 50.5402 65.79C50.5402 65.56 50.5402 65.34 50.5802 65.13C50.6202 64.7 50.7602 64.3 50.8402 63.85C50.8602 63.75 50.9002 63.66 50.9702 63.57C51.1902 63.27 51.2802 62.92 51.3302 62.54C51.3302 62.48 51.3702 62.42 51.3102 62.33C51.1602 62.18 51.5902 61.21 51.7102 61.11C51.8602 60.97 51.9902 60.84 52.1102 60.72C52.2202 60.59 52.3702 60.46 52.5402 60.36C52.5902 60.33 52.5902 60.28 52.7002 60.28C52.9402 60.28 52.9602 60.19 53.0402 60.11C53.1502 60.01 53.2602 59.91 53.4002 59.83C53.4702 59.79 53.5902 59.78 53.6902 59.76C53.7802 59.74 53.9402 59.88 53.9502 59.91C53.9802 60 54.0902 60.01 54.1702 60.05C54.2002 60.06 54.2302 60.08 54.2502 60.1C54.2702 60.13 54.4502 61.07 54.4602 61.15C54.4402 61.15 54.4802 61.47 54.4102 61.73C54.3502 62 54.3002 62.29 54.3002 62.35C54.3002 62.42 54.2302 62.45 54.1802 62.5C54.1702 62.51 54.1402 62.73 54.1202 62.95C54.0902 63.17 54.0302 63.38 54.0202 63.4C53.9302 63.56 53.9302 63.75 53.6802 63.86C53.6302 63.88 53.6302 63.92 53.6202 63.96C53.5302 64.26 53.3402 64.55 53.1702 64.84C53.0802 64.99 53.0402 65.16 52.9602 65.32C52.9502 65.35 52.9102 65.37 52.8902 65.39C52.8602 65.42 52.8202 65.45 52.8102 65.49C52.6602 65.88 52.3002 66.19 52.0902 66.56C52.0402 66.65 51.6002 66.93 51.5402 67.02C51.5002 67.07 51.2202 67.12 51.2102 67.17L51.1802 67.2Z" fill="#231F20"/>
<path d="M65.9398 61.11C65.9298 61.22 65.7598 61.23 65.5598 61.21C65.4998 61.21 65.3498 61.13 65.3298 61.09C65.2898 61 65.2598 60.92 65.2398 60.86C65.2398 60.8 65.2198 60.64 65.1998 60.47C65.1698 60.27 65.1198 60.04 65.1398 59.94C65.1398 59.73 65.1598 59.55 65.2098 59.37C65.3098 59.01 65.3499 58.61 65.4799 58.27C65.5099 58.19 65.5598 58.13 65.6298 58.07C65.8698 57.87 65.9898 57.62 66.0698 57.34C66.0798 57.29 66.1098 57.26 66.0698 57.18C65.9998 57.06 66.2998 56.36 66.3998 56.29C66.6198 56.12 66.8098 55.94 67.0598 55.79C67.0898 55.77 67.0898 55.72 67.1798 55.73C67.3898 55.75 67.3998 55.67 67.4598 55.61C67.5298 55.53 67.6198 55.45 67.7198 55.39C67.7698 55.36 67.8899 55.36 67.9799 55.35C68.0699 55.34 68.2799 55.47 68.2999 55.5C68.3499 55.58 68.4798 55.6 68.5698 55.64C68.5998 55.66 68.6398 55.68 68.6698 55.69C68.7098 55.72 68.9298 56.5 68.9198 56.57C68.9198 56.57 68.8898 56.81 68.8598 57.06C68.7898 57.29 68.7198 57.53 68.7198 57.58C68.7198 57.64 68.6498 57.66 68.5998 57.7C68.5798 57.72 68.3998 58.42 68.3798 58.44C68.2898 58.56 68.2898 58.72 68.0698 58.78C68.0298 58.79 68.0198 58.82 68.0098 58.85C67.9198 59.09 67.7498 59.28 67.5898 59.49C67.4898 59.59 67.4398 59.7 67.3598 59.81C67.3498 59.83 67.3098 59.84 67.2898 59.85C67.2598 59.87 67.2198 59.88 67.2098 59.91C67.0498 60.17 66.7998 60.39 66.6798 60.67C66.6698 60.74 66.2799 60.92 66.2299 60.99C66.1999 61.02 65.9398 61.07 65.9398 61.11Z" fill="#231F20"/>
<path d="M63.2102 84.15C63.2102 84.26 63.0102 84.26 62.7802 84.23C62.7102 84.23 62.5302 84.13 62.5102 84.09C62.4602 84 62.4202 83.9 62.3902 83.84C62.3802 83.78 62.3502 83.62 62.3102 83.43C62.2602 83.22 62.1902 82.98 62.2002 82.88C62.1702 82.66 62.2002 82.47 62.2402 82.29C62.3302 81.92 62.3502 81.52 62.4702 81.17C62.5002 81.09 62.5602 81.03 62.6302 80.97C62.8902 80.78 63.0102 80.53 63.0902 80.25C63.1002 80.2 63.1402 80.17 63.0802 80.09C62.9902 79.96 63.2902 79.26 63.3902 79.2C63.6302 79.04 63.8302 78.87 64.1202 78.73C64.1602 78.71 64.1502 78.66 64.2602 78.68C64.5102 78.72 64.5102 78.64 64.5702 78.58C64.6502 78.5 64.7402 78.43 64.8602 78.37C64.9202 78.34 65.0502 78.35 65.1602 78.34C65.2602 78.34 65.5102 78.49 65.5302 78.52C65.5902 78.6 65.7402 78.63 65.8502 78.68C65.8902 78.7 65.9402 78.72 65.9702 78.74C66.0202 78.77 66.3302 79.6 66.3202 79.67C66.3202 79.67 66.3002 79.92 66.2902 80.18C66.2302 80.41 66.1702 80.66 66.1602 80.71C66.1602 80.77 66.0802 80.79 66.0302 80.82C66.0102 80.84 65.8502 81.55 65.8302 81.57C65.7402 81.69 65.7502 81.86 65.5002 81.9C65.4502 81.9 65.4502 81.94 65.4402 81.97C65.3502 82.21 65.1702 82.4 65.0002 82.6C64.9002 82.69 64.8402 82.81 64.7602 82.91C64.7502 82.93 64.7102 82.94 64.6802 82.95C64.6502 82.97 64.6102 82.98 64.5902 83C64.4202 83.26 64.1502 83.47 64.0302 83.75C64.0302 83.82 63.5802 83.98 63.5402 84.05C63.5102 84.08 63.2202 84.11 63.2202 84.15H63.2102Z" fill="#231F20"/>
<path d="M76.9501 84.17C76.9501 84.27 76.7501 84.25 76.5201 84.2C76.4401 84.19 76.2501 84.09 76.2301 84.05C76.1701 83.96 76.1201 83.88 76.0801 83.82C76.0601 83.77 76.0101 83.62 75.9601 83.45C75.8901 83.26 75.8001 83.04 75.8001 82.95C75.7501 82.76 75.7601 82.59 75.7901 82.43C75.8501 82.11 75.8301 81.75 75.9301 81.45C75.9601 81.38 76.0101 81.33 76.0801 81.29C76.3301 81.15 76.4401 80.93 76.4901 80.69C76.4901 80.65 76.5301 80.62 76.4601 80.54C76.3501 80.42 76.6001 79.82 76.7001 79.77C76.9301 79.65 77.1301 79.51 77.4101 79.42C77.4501 79.4 77.4401 79.36 77.5501 79.39C77.8101 79.44 77.8101 79.37 77.8601 79.33C77.9401 79.27 78.0201 79.21 78.1401 79.17C78.2001 79.15 78.3301 79.17 78.4401 79.17C78.5401 79.17 78.8201 79.33 78.8401 79.36C78.9101 79.44 79.0701 79.48 79.1901 79.53C79.2301 79.55 79.2801 79.58 79.3201 79.59C79.3701 79.62 79.7701 80.39 79.7701 80.45C79.7701 80.45 79.7701 80.67 79.7801 80.9C79.7401 81.1 79.7001 81.31 79.7001 81.36C79.7001 81.41 79.6301 81.42 79.5701 81.45C79.5501 81.46 79.4501 82.08 79.4301 82.1C79.3501 82.2 79.3701 82.35 79.1201 82.36C79.0701 82.36 79.0701 82.39 79.0601 82.41C78.9901 82.61 78.8201 82.77 78.6601 82.93C78.5601 83 78.5201 83.1 78.4401 83.19C78.4301 83.21 78.3901 83.21 78.3601 83.22C78.3301 83.23 78.2901 83.24 78.2701 83.26C78.1201 83.47 77.8601 83.64 77.7601 83.88C77.7601 83.95 77.3201 84.05 77.2801 84.11C77.2501 84.14 76.9501 84.13 76.9601 84.17H76.9501Z" fill="#231F20"/>
<path d="M51.08 96.02C51.07 96.13 50.9 96.14 50.7 96.12C50.64 96.12 50.49 96.04 50.47 96C50.43 95.91 50.4 95.83 50.38 95.77C50.38 95.71 50.36 95.55 50.34 95.38C50.31 95.18 50.26 94.95 50.28 94.85C50.28 94.64 50.3 94.46 50.35 94.28C50.45 93.92 50.49 93.52 50.62 93.18C50.65 93.1 50.7 93.04 50.77 92.98C51.01 92.78 51.13 92.53 51.21 92.25C51.22 92.2 51.25 92.17 51.21 92.09C51.14 91.97 51.44 91.27 51.54 91.2C51.76 91.03 51.95 90.85 52.2 90.7C52.23 90.68 52.23 90.63 52.32 90.64C52.53 90.66 52.54 90.58 52.6 90.52C52.67 90.44 52.76 90.36 52.86 90.3C52.91 90.27 53.03 90.27 53.12 90.26C53.21 90.25 53.42 90.38 53.44 90.41C53.49 90.49 53.62 90.51 53.71 90.55C53.74 90.57 53.78 90.59 53.81 90.6C53.85 90.63 54.07 91.41 54.06 91.48C54.06 91.48 54.03 91.72 54 91.97C53.93 92.2 53.86 92.44 53.86 92.49C53.86 92.55 53.79 92.57 53.74 92.61C53.72 92.63 53.54 93.33 53.52 93.35C53.43 93.47 53.43 93.63 53.21 93.69C53.17 93.7 53.16 93.73 53.15 93.76C53.06 94 52.89 94.19 52.73 94.4C52.63 94.5 52.58 94.61 52.5 94.72C52.49 94.74 52.45 94.75 52.43 94.76C52.4 94.78 52.36 94.79 52.35 94.82C52.19 95.08 51.94 95.3 51.82 95.58C51.81 95.65 51.42 95.83 51.37 95.9C51.34 95.93 51.08 95.98 51.08 96.02Z" fill="#231F20"/>
<path d="M51.19 111.65C51.19 111.76 50.97 111.75 50.71 111.71C50.63 111.7 50.42 111.59 50.4 111.55C50.34 111.45 50.29 111.35 50.25 111.29C50.24 111.26 50.2 111.08 50.14 110.87C50.08 110.65 49.98 110.4 49.98 110.3C49.94 110.08 49.95 109.88 49.98 109.7C50.06 109.33 50.06 108.91 50.17 108.56C50.2 108.48 50.26 108.42 50.34 108.37C50.62 108.19 50.74 107.94 50.81 107.66C50.82 107.61 50.86 107.58 50.79 107.49C50.68 107.35 50.97 106.64 51.08 106.59C51.22 106.52 51.33 106.44 51.45 106.36C51.57 106.28 51.73 106.22 51.87 106.15C51.91 106.13 51.9 106.08 52.02 106.11C52.3 106.16 52.3 106.08 52.36 106.03C52.44 105.95 52.54 105.88 52.67 105.83C52.73 105.8 52.88 105.82 53 105.82C53.11 105.82 53.4 105.99 53.43 106.02C53.51 106.11 53.67 106.15 53.8 106.21C53.84 106.23 53.9 106.26 53.94 106.27C54 106.3 54.39 107.17 54.39 107.25C54.39 107.25 54.39 107.5 54.39 107.77C54.34 108.01 54.28 108.25 54.28 108.31C54.28 108.37 54.2 108.39 54.14 108.42C54.11 108.43 53.98 109.16 53.96 109.18C53.86 109.3 53.89 109.47 53.61 109.5C53.56 109.5 53.55 109.54 53.54 109.57C53.46 109.81 53.26 110 53.08 110.19C52.97 110.28 52.92 110.4 52.83 110.5C52.81 110.52 52.77 110.52 52.74 110.54C52.71 110.56 52.66 110.57 52.64 110.59C52.46 110.84 52.18 111.05 52.06 111.33C52.06 111.41 51.57 111.54 51.53 111.61C51.49 111.64 51.17 111.65 51.18 111.7L51.19 111.65Z" fill="#231F20"/>
<path d="M82.35 64.94C82.37 65.07 82.16 65.04 81.85 64.88C81.75 64.83 81.49 64.63 81.46 64.58C81.41 64.49 81.36 64.39 81.33 64.32C81.31 64.28 81.4 63.77 81.4 63.58C81.4 63.4 81.46 63.25 81.52 63.1C81.65 62.8 81.76 62.48 81.88 62.18C81.91 62.11 81.96 62.06 82.03 62.02C82.27 61.87 82.4 61.66 82.49 61.42C82.5 61.38 82.54 61.35 82.49 61.28C82.42 61.17 82.74 60.58 82.82 60.53C83.06 60.41 83.24 60.27 83.43 60.13C83.46 60.11 83.45 60.07 83.54 60.09C83.75 60.12 83.76 60.05 83.82 60.01C83.89 59.95 83.98 59.89 84.07 59.84C84.12 59.82 84.21 59.81 84.29 59.79C84.36 59.77 84.54 59.86 84.56 59.88C84.61 59.94 84.71 59.94 84.79 59.97C84.82 59.97 84.85 59.99 84.87 60C84.9 60 85.17 60.8 85.18 60.87C85.2 60.9 85.0001 61.74 84.9801 61.83C84.9801 61.88 84.91 61.9 84.86 61.93C84.84 61.95 84.67 62.6 84.65 62.62C84.57 62.73 84.56 62.88 84.35 62.92C84.31 62.92 84.3 62.96 84.29 62.98C84.2 63.19 84.04 63.37 83.86 63.53C83.77 63.62 83.72 63.72 83.65 63.82C83.64 63.84 83.6 63.84 83.58 63.85C83.55 63.87 83.52 63.88 83.5 63.9C83.35 64.14 83.11 64.32 83 64.58C82.97 64.64 82.64 64.8 82.61 64.87C82.59 64.91 82.31 64.89 82.32 64.94H82.35Z" fill="#231F20"/>
<path d="M68.99 96.34C69.03 96.46 68.82 96.38 68.46 96.17C68.35 96.1 68.04 95.86 68 95.81C67.93 95.72 67.86 95.62 67.82 95.55C67.8 95.51 67.78 95.09 67.74 94.94C67.71 94.79 67.74 94.67 67.77 94.57C67.85 94.35 67.9 94.11 67.96 93.89C67.97 93.84 68.03 93.81 68.09 93.79C68.32 93.72 68.41 93.57 68.45 93.39C68.45 93.36 68.48 93.34 68.43 93.28C68.34 93.17 68.54 92.76 68.63 92.74C68.86 92.69 69.02 92.61 69.21 92.54C69.24 92.53 69.21 92.5 69.32 92.52C69.55 92.58 69.55 92.52 69.61 92.5C69.68 92.46 69.76 92.43 69.85 92.4C69.9 92.39 70.01 92.4 70.1 92.4C70.18 92.4 70.39 92.49 70.42 92.51C70.48 92.56 70.6 92.58 70.69 92.61C70.72 92.62 70.76 92.64 70.79 92.64C70.82 92.64 71.26 93.32 71.29 93.39C71.32 93.42 71.25 94.1 71.26 94.18C71.26 94.22 71.2 94.23 71.15 94.25C71.13 94.25 71.06 94.79 71.05 94.8C70.98 94.88 71 95.01 70.78 95C70.74 95 70.74 95.02 70.73 95.04C70.67 95.21 70.53 95.33 70.37 95.43C70.29 95.49 70.26 95.57 70.2 95.64C70.19 95.65 70.15 95.64 70.13 95.66C70.1 95.66 70.07 95.66 70.06 95.69C69.94 95.86 69.72 95.97 69.65 96.18C69.63 96.23 69.31 96.29 69.29 96.35C69.28 96.38 68.98 96.3 69 96.35L68.99 96.34Z" fill="#231F20"/>
<path d="M39.3401 103C39.3801 103.12 39.1701 103.04 38.8101 102.83C38.7001 102.76 38.3901 102.52 38.3501 102.47C38.2801 102.38 38.2101 102.28 38.1701 102.21C38.1501 102.17 38.1301 101.75 38.0901 101.6C38.0601 101.45 38.0901 101.33 38.1201 101.23C38.2001 101.01 38.2501 100.77 38.3101 100.55C38.3201 100.5 38.3801 100.47 38.4401 100.45C38.6701 100.38 38.7601 100.23 38.8001 100.05C38.8001 100.02 38.8301 100 38.7801 99.94C38.6901 99.83 38.8901 99.42 38.9801 99.4C39.2101 99.35 39.3701 99.27 39.5601 99.2C39.5901 99.19 39.5601 99.16 39.6701 99.18C39.9001 99.24 39.9001 99.18 39.9601 99.16C40.0301 99.12 40.1101 99.09 40.2001 99.06C40.2501 99.05 40.3601 99.06 40.4501 99.06C40.5301 99.06 40.7401 99.15 40.7701 99.17C40.8301 99.22 40.9501 99.24 41.0401 99.27C41.0701 99.28 41.1101 99.3 41.1401 99.3C41.1701 99.3 41.6101 99.98 41.6401 100.05C41.6701 100.08 41.6001 100.76 41.6101 100.84C41.6101 100.88 41.5501 100.89 41.5001 100.91C41.4801 100.91 41.4101 101.45 41.4001 101.46C41.3301 101.54 41.3501 101.67 41.1301 101.66C41.0901 101.66 41.0901 101.68 41.0801 101.7C41.0201 101.87 40.8801 101.99 40.7201 102.09C40.6401 102.15 40.6101 102.23 40.5501 102.3C40.5401 102.31 40.5001 102.3 40.4801 102.32C40.4501 102.32 40.4201 102.32 40.4101 102.35C40.2901 102.52 40.0701 102.63 40.0001 102.84C39.9801 102.89 39.6601 102.95 39.6401 103.01C39.6301 103.04 39.3301 102.96 39.3501 103.01L39.3401 103Z" fill="#231F20"/>
<path d="M42.1598 85.74C42.1598 85.88 41.9598 85.91 41.6898 85.91C41.5998 85.91 41.3798 85.82 41.3598 85.77C41.3098 85.68 41.2598 85.58 41.2198 85.48C41.2098 85.43 41.1498 84.64 41.0798 84.35C40.9998 84.06 41.0798 83.84 41.1498 83.61L41.5598 82.22C41.5898 82.12 41.6498 82.02 41.7198 81.94C41.9798 81.66 42.0998 81.31 42.2098 80.96C42.2298 80.9 42.2698 80.85 42.2098 80.76C42.1298 80.62 42.5398 79.71 42.6598 79.62C42.9398 79.4 43.1598 79.15 43.4098 78.92C43.4498 78.89 43.4398 78.83 43.5398 78.83C43.7798 78.84 43.7898 78.74 43.8498 78.66C43.9098 78.54 44.0598 78.46 44.2198 78.39C44.2998 78.35 44.4398 78.35 44.5498 78.34C44.6498 78.33 44.8698 78.47 44.8898 78.51C44.9398 78.6 45.0798 78.62 45.1798 78.67C45.2198 78.69 45.2598 78.71 45.2898 78.72C45.3198 78.74 45.3898 78.99 45.5098 79.28C45.5898 79.55 45.5998 79.79 45.5898 79.83C45.5898 79.83 45.5098 80.11 45.4198 80.4C45.3398 80.69 45.2498 80.99 45.2498 81.06C45.2498 81.13 45.1698 81.17 45.1098 81.21C45.0798 81.23 44.8798 82.12 44.8698 82.15C44.7798 82.31 44.7598 82.5 44.4998 82.59C44.4498 82.61 44.4398 82.64 44.4298 82.68C44.3098 82.97 44.0898 83.22 43.9098 83.49C43.8098 83.62 43.7598 83.78 43.6898 83.92C43.6798 83.95 43.6398 83.96 43.6098 83.98C43.5798 84.01 43.5398 84.03 43.5298 84.06C43.3598 84.4 43.1598 84.74 42.9898 85.08C42.9398 85.16 42.5198 85.45 42.4898 85.54C42.4598 85.59 42.1598 85.68 42.1698 85.73L42.1598 85.74Z" fill="#231F20"/>
<path d="M76.8201 27.31C76.5501 26.99 76.3001 26.65 76.0001 26.34C75.6901 26.05 75.4001 25.72 75.0701 25.44C74.7301 25.17 74.3901 24.87 74.0501 24.63C73.7001 24.43 73.3901 24.16 73.0001 24.01C72.4601 23.73 71.8501 23.62 71.2601 23.45C69.1401 22.91 66.7401 22.91 64.5301 23.63C63.5401 23.93 62.6401 24.46 61.8301 25.06C61.5901 25.28 61.3401 25.47 61.0901 25.67C60.8501 25.88 60.6401 26.12 60.4001 26.33C60.1501 26.54 60.0101 26.82 59.7401 27.03C59.4601 27.23 59.2701 27.5 59.0201 27.75C58.7101 28.06 58.6101 27.98 58.5301 27.53C58.4801 27.12 58.1801 26.07 58.7101 25.27C58.9301 24.93 59.1801 24.6 59.4301 24.27C59.6901 23.96 59.9701 23.66 60.2801 23.38C60.9201 22.88 61.6001 22.44 62.3301 22.09C63.7701 21.39 65.3201 20.98 66.8901 20.88C68.7501 20.76 70.7201 20.69 72.6101 21.26C73.6401 21.54 74.6201 22.06 75.5301 22.64L76.7501 23.59L77.8801 24.65C78.7401 25.6 79.5401 26.61 80.1101 27.77C81.0301 29.49 81.4001 31.47 81.4101 33.38C81.4101 34.87 81.2901 36.36 80.8401 37.81C80.7301 38.12 80.6401 38.44 80.4701 38.73C79.9001 39.84 79.3801 39.98 78.7801 39.87C78.6401 39.84 78.5001 39.83 78.3801 39.79C78.1801 39.71 78.0801 39.53 78.0201 39.26C77.9601 38.99 77.9501 38.62 78.0601 38.26L78.2501 37.42C78.2901 37.13 78.3301 36.86 78.4101 36.6C78.5301 36.06 78.6501 35.53 78.7101 34.99C78.8501 33.92 78.8701 32.83 78.7101 31.77C78.4501 30.2 77.8301 28.67 76.7801 27.35L76.8301 27.31H76.8201Z" fill="#231F20"/>
</svg>
