<svg width="128" height="128" viewBox="0 0 128 128" fill="none" xmlns="http://www.w3.org/2000/svg">
<path d="M75.0802 80.6C75.0802 80.6 66.6501 75.17 70.0901 65.95C74.2101 54.91 85.5302 57.48 85.5302 57.48C85.5302 57.48 83.8102 64.84 82.0502 68.3C80.2902 71.77 75.0901 80.6 75.0901 80.6H75.0802Z" fill="#231F20"/>
<path d="M69.18 79.24C67.47 77.31 66.21 74.88 65.67 72.32C65.09 69.76 65.3 67 66.26 64.55C66.99 62.78 67.99 61.1 69.35 59.76C71.72 57.39 74.84 55.86 78.1 55.36C81.35 54.85 84.77 55.36 87.66 56.88C90.2 58.26 92.41 60 94.33 62.05C95.56 63.37 96.64 64.84 97.44 66.47C97.84 67.28 98.2 68.12 98.44 68.99C98.65 69.87 98.81 70.76 98.89 71.65C98.97 72.76 98.76 72.62 98.24 71.81C97.99 71.4 97.61 70.84 97.14 70.21C96.9 69.89 96.65 69.55 96.4 69.21C96.18 68.84 95.93 68.47 95.7 68.07C93.98 65.28 91.81 62.78 89.1 60.88C87.74 59.9 86.38 59.13 84.9 58.58C83.42 58.03 81.84 57.73 80.23 57.69C76.33 57.61 72.33 59.74 69.94 62.89C68.62 64.62 67.78 66.73 67.66 68.92C67.55 71.1 68.05 73.38 69.17 75.32C70.53 77.73 72.65 79.74 75.09 81.18C78.93 83.31 83.01 85.24 86.96 87.31C90.04 88.91 93.05 90.61 95.81 92.73C96.42 93.19 97 93.66 97.59 94.16C98.65 95.11 99.32 95.77 99.7 96.33C100.07 96.89 100.2 97.3 100.23 97.7C100.24 97.88 100.29 98.09 100.28 98.22C100.25 98.63 99.09 98.17 97.5 96.92C96.32 95.99 95.1 95.09 93.84 94.23C92.61 93.34 91.34 92.49 90.03 91.69C87.41 90.07 84.59 88.66 81.71 87.22C79.57 86.16 77.41 85.07 75.27 83.93C73.04 82.8 70.85 81.23 69.13 79.27L69.17 79.23L69.18 79.24Z" fill="#231F20"/>
<path d="M118.83 52.14C121.1 55.78 121.57 60.06 120.73 63.98C120.41 65.4 120.02 66.76 119.44 68.07C117.37 72.68 114.06 76.25 111.22 79.98C109.93 81.63 108.83 83.4 107.81 85.18C106.48 87.47 105.55 89.92 104.4 92.34C104.04 93.1 103.99 92.98 103.97 92.23C103.96 91.77 103.95 91.23 103.93 90.67C103.87 90 104.02 89.27 104.27 88.51C105.15 85.83 106.36 83.22 107.95 80.9C109.5 78.55 111.23 76.38 112.93 74.24C115 71.7 116.64 68.78 117.67 65.76C118.2 64.07 118.57 62.4 118.55 60.67C118.55 58.95 118.23 57.22 117.58 55.64C116.82 53.69 115.46 51.94 113.7 51.07L113.2 50.83C113.03 50.76 112.85 50.73 112.67 50.68C112.32 50.55 111.95 50.53 111.58 50.5C110.84 50.45 110.08 50.59 109.28 50.79C107.71 51.2 106.25 51.97 105.03 53.03C103.1 54.67 101.88 56.93 100.93 59.26C100.72 59.77 100.56 60.3 100.36 60.82C99.6599 62.79 99.3499 63.41 98.7299 63.74C98.5899 63.82 98.4398 63.93 98.3098 63.96C97.8998 64.09 97.7099 63.13 97.9399 61.48C98.3399 59.06 99.1599 56.55 100.64 54.29C102.07 52.01 104.24 49.99 106.88 48.8C107.37 48.59 107.87 48.41 108.38 48.23C108.9 48.1 109.38 47.94 109.95 47.84C110.54 47.78 111.13 47.64 111.74 47.71L112.65 47.77C112.95 47.83 113.24 47.9 113.54 47.97C114.72 48.26 115.79 48.85 116.68 49.57C117.55 50.32 118.32 51.15 118.89 52.07L118.84 52.11L118.83 52.14Z" fill="#231F20"/>
<path d="M14.0198 83.45C11.3298 80.71 9.27984 77.29 8.07984 73.64C6.88984 69.99 6.50984 65.98 7.32984 62.17C7.85984 59.38 8.97984 56.71 10.5598 54.36C13.3998 50.25 17.6998 47.16 22.5198 45.91C27.3198 44.61 32.5698 45.15 36.9598 47.31C40.8198 49.24 44.2698 51.77 47.2698 54.75C49.1898 56.66 50.9198 58.79 52.2898 61.14C52.9698 62.32 53.6098 63.52 54.0898 64.79C54.5498 66.07 54.9498 67.36 55.2398 68.67C55.5798 70.31 55.3198 70.13 54.5598 68.92C54.1898 68.31 53.6098 67.48 52.9198 66.51C52.5698 66.03 52.1898 65.52 51.7898 64.97C51.4198 64.41 51.0398 63.83 50.6398 63.22C47.8098 58.93 44.2098 55.19 39.9298 52.34C38.8598 51.65 37.7498 50.95 36.6298 50.39C36.0798 50.11 35.5198 49.82 34.9498 49.61C34.3798 49.36 33.7998 49.16 33.2098 48.96C30.8698 48.16 28.3698 47.88 25.8698 48.07C24.3798 48.2 22.8898 48.54 21.4498 49.07C20.0198 49.62 18.6498 50.37 17.3898 51.28C14.8498 53.08 12.8098 55.58 11.4098 58.35C9.86984 61.41 9.24984 64.91 9.52984 68.36C9.86984 71.8 11.0098 75.23 12.9498 78.14C15.3098 81.76 18.7198 84.7 22.5698 86.75C28.5898 89.71 34.9898 92.27 41.1498 95.1C45.9498 97.3 50.6098 99.72 54.9298 102.74C55.8898 103.39 56.7898 104.08 57.7198 104.78C59.3998 106.14 60.4898 107.07 61.1398 107.83C61.7898 108.6 62.0798 109.15 62.2298 109.67C62.2998 109.91 62.4298 110.18 62.4398 110.34C62.5198 110.86 60.8598 110.11 58.3698 108.27C57.4398 107.6 56.5098 106.91 55.5398 106.26C54.5898 105.59 53.6198 104.96 52.6298 104.33C50.6898 103.04 48.6798 101.81 46.6098 100.68C42.4798 98.38 38.0498 96.44 33.5398 94.49C30.1898 93.04 26.8198 91.58 23.4798 90.03C19.9998 88.48 16.6998 86.26 13.9898 83.48L14.0298 83.43L14.0198 83.45Z" fill="#231F20"/>
<path d="M82.1601 42.69C83.9301 45.08 85.0601 47.81 85.6701 50.6C86.2801 53.39 86.3701 56.28 85.9501 59.08C85.6401 61.11 85.1901 63.08 84.5001 64.99C83.2801 68.34 81.5501 71.42 79.6801 74.32C77.8201 77.23 75.8101 80 73.9501 82.84C72.2701 85.34 70.8201 87.99 69.5201 90.65C67.8301 94.08 66.6601 97.7 65.3901 101.34C64.9801 102.48 64.9301 102.31 64.9201 101.26C64.9201 100.65 64.9101 99.91 64.9001 99.07C64.8401 98.14 65.0501 97.1 65.3401 96C66.4201 92.11 67.9801 88.33 70.0201 84.86C72.0201 81.37 74.3001 78.09 76.5201 74.84C79.2201 70.97 81.3901 66.61 82.6201 62.1C82.8701 60.85 83.2401 59.59 83.3301 58.34C83.3601 58.03 83.4201 57.71 83.4401 57.4L83.4601 56.45L83.4801 55.5L83.4101 54.55C83.2401 52.03 82.6101 49.53 81.5101 47.26C81.2101 46.54 80.7601 45.91 80.3701 45.24C80.1601 44.92 79.9101 44.63 79.6801 44.32C79.4601 44.01 79.2101 43.71 78.9401 43.45C77.9301 42.3 76.6501 41.46 75.3101 40.87L74.5301 40.56C74.2601 40.48 73.9901 40.45 73.7201 40.38C73.1801 40.22 72.6201 40.24 72.0601 40.23C70.9501 40.23 69.8301 40.52 68.6901 40.89C66.4401 41.65 64.3701 42.92 62.6801 44.57C60.0101 47.13 58.3701 50.51 57.1901 53.97C56.9201 54.74 56.7301 55.51 56.4901 56.29C55.6601 59.22 55.3501 60.15 54.6701 60.72C54.5201 60.85 54.3601 61.03 54.2201 61.1C53.9901 61.22 53.8401 60.95 53.7601 60.35C53.6801 59.75 53.6801 58.83 53.8201 57.65C54.2901 54.19 55.2801 50.6 57.2001 47.3C59.0501 43.99 61.9101 41.01 65.4801 39.15C66.1401 38.81 66.8301 38.53 67.5101 38.23C68.2301 38.01 68.8801 37.74 69.6601 37.56C70.4601 37.43 71.2401 37.19 72.0701 37.24H73.3001C73.7101 37.3 74.1101 37.38 74.5101 37.45C75.3401 37.55 76.0701 37.9 76.8401 38.17C77.5701 38.5 78.2701 38.91 78.9101 39.36C79.5101 39.86 80.1801 40.3 80.6801 40.88L81.4801 41.71C81.7301 41.99 81.9501 42.3 82.1801 42.6L82.1301 42.65L82.1601 42.69Z" fill="#231F20"/>
<path d="M37.2802 26.54C37.9402 27.44 38.0002 29.02 37.2402 29.58C36.4802 30.14 35.6302 29.84 34.9702 28.94C33.9902 27.61 34.5402 26.21 35.3002 25.65C36.0602 25.09 36.6202 25.63 37.2802 26.53V26.54Z" fill="#231F20"/>
<path d="M36.79 24.86C37.74 25.46 38.43 26.54 38.42 27.67C38.42 28.07 38.39 28.47 38.25 28.83C37.79 30.09 36.52 31.02 35.21 30.91C34.65 30.87 34.12 30.7 33.66 30.42C33.07 30.08 32.54 29.51 32.44 28.8C32.41 28.58 32.62 28.58 32.87 28.66C33.11 28.75 33.41 28.86 33.59 29.05C34.26 29.76 35.3 29.99 36.11 29.62C36.64 29.39 36.97 28.76 37.06 28.19C37.18 27.55 36.96 26.92 36.43 26.49C36.12 26.22 35.72 26.04 35.31 25.99C34.68 25.91 34.09 26.12 33.81 26.67C33.59 27.09 33.61 27.61 33.77 27.91C33.8 27.98 33.86 28.02 33.86 28.08C33.88 28.3 33.88 28.43 33.76 28.83L33.7 29.08C33.66 29.21 33.58 29.29 33.41 29.35C33.23 29.42 33 29.38 32.73 29.23C32.34 29 32.01 28.6 31.91 28.17C31.77 27.74 31.76 27.31 31.82 26.88C31.94 26.04 32.45 25.27 33.24 24.75C34.53 23.98 35.85 24.26 36.83 24.84L36.81 24.88L36.79 24.86Z" fill="#231F20"/>
<path d="M41.97 29.5C41.97 29.5 43.73 29.64 43.65 27.77C43.57 25.9 45.54 27.97 44.73 29.48C43.92 30.98 43.73 31.27 42.74 30.86C41.75 30.45 41.96 29.5 41.96 29.5H41.97Z" fill="#231F20"/>
<path d="M45.5599 30.15C45.1599 30.88 44.5299 31.33 43.8399 31.56C43.5799 31.63 43.3299 31.74 43.0499 31.74C42.5599 31.74 42.0499 31.59 41.6599 31.31C41.2699 31.03 40.9899 30.66 40.8199 30.28C40.6699 29.94 40.5399 29.59 40.4799 29.22C40.3899 28.76 40.3799 28.16 40.8199 27.79C40.9499 27.67 41.2799 27.97 41.5999 28.26C41.9199 28.56 42.2699 28.77 42.2699 28.82C42.2399 29.06 42.2599 29.46 42.3999 29.85C42.4999 30.1 42.7699 30.09 43.0299 30.06C43.3299 30.04 43.6699 29.88 43.8999 29.63C44.0399 29.48 44.1399 29.3 44.1599 29.1C44.2099 28.81 44.0999 28.44 43.8399 28.19C43.6299 27.99 43.3199 27.98 43.1099 27.97C43.0599 27.97 43.0099 27.97 42.9699 27.97C42.8899 27.97 42.8399 27.93 42.7899 27.81C42.7399 27.72 42.6999 27.59 42.6399 27.42L42.5599 27.19C42.4799 26.96 42.5599 26.66 42.8899 26.45C43.3699 26.28 43.9599 26.28 44.4199 26.54C44.8899 26.78 45.2899 27.16 45.5599 27.64C45.9799 28.34 46.0299 29.38 45.6299 30.14L45.5899 30.12L45.5599 30.15Z" fill="#231F20"/>
<path d="M78.28 20.86C78.28 20.86 80.87 21 80.16 18.6C79.63 16.81 81.17 17.89 81.37 19.07C81.57 20.25 81.68 20.37 80.75 21.23C79.82 22.09 79.35 22.27 78.27 20.86H78.28Z" fill="#231F20"/>
<path d="M82.3 20.1C82.17 20.92 81.63 21.55 81.06 21.96C80.84 22.11 80.64 22.27 80.38 22.36C79.94 22.52 79.45 22.56 78.99 22.47C78.52 22.37 78.1 22.11 77.82 21.79C77.56 21.51 77.35 21.19 77.22 20.84C77.05 20.41 76.99 19.83 77.31 19.42C77.41 19.29 77.57 19.43 77.73 19.61C77.88 19.79 78.07 19.96 78.09 20.09C78.16 20.58 78.56 21.05 78.97 21.25C79.26 21.4 79.63 21.25 79.93 21.07C80.28 20.87 80.58 20.54 80.71 20.17C80.81 19.95 80.86 19.68 80.83 19.43C80.8 19.05 80.57 18.67 80.27 18.6C80.02 18.53 79.76 18.73 79.61 18.85C79.57 18.88 79.56 18.92 79.53 18.94C79.44 19.03 79.35 19.03 79.06 19.06L78.86 19.09C78.66 19.13 78.43 18.95 78.49 18.53C78.6 17.94 79.07 17.4 79.68 17.27C79.98 17.19 80.31 17.17 80.65 17.26C81.01 17.35 81.32 17.54 81.55 17.74C82.27 18.42 82.43 19.32 82.34 20.11H82.3V20.1Z" fill="#231F20"/>
<path d="M93.8601 32.68C93.8601 32.68 95.1301 34.16 96.1701 32.95C97.2101 31.74 98.01 33.57 97.0601 34.51C96.11 35.45 94.2601 35.36 93.6601 34.38C93.0601 33.4 93.0101 33.57 93.8601 32.68Z" fill="#231F20"/>
<path d="M96.3898 35.67C95.5898 35.98 94.7998 35.92 94.1298 35.67C93.8798 35.57 93.6198 35.49 93.3998 35.33C93.0098 35.05 92.6998 34.62 92.5498 34.2C92.3998 33.76 92.3798 33.32 92.4298 32.92C92.4698 32.56 92.5298 32.22 92.6398 31.89C92.7698 31.47 92.9898 31.03 93.4198 30.83C93.5498 30.77 93.7098 30.99 93.8398 31.26C93.9698 31.53 94.1198 31.82 94.0798 31.95C93.9198 32.44 93.9398 32.91 93.9598 33.35C93.9598 33.65 94.1798 33.81 94.4198 33.95C94.6798 34.12 95.0498 34.21 95.3798 34.16C95.5798 34.13 95.7698 34.06 95.9098 33.92C96.1198 33.75 96.3098 33.41 96.2598 33.04C96.2198 32.76 96.0298 32.52 95.8498 32.39C95.8098 32.36 95.7798 32.32 95.7498 32.28C95.6398 32.12 95.6198 32.02 95.6498 31.74V31.56C95.6798 31.37 95.8698 31.22 96.2098 31.25C96.4498 31.28 96.7298 31.35 96.9398 31.51C97.1398 31.67 97.3298 31.86 97.4698 32.08C97.7498 32.52 97.9098 33.05 97.8798 33.62C97.8598 34.04 97.7398 34.49 97.4798 34.89C97.1898 35.28 96.8198 35.55 96.4198 35.73L96.3998 35.69L96.3898 35.67Z" fill="#231F20"/>
</svg>
