<svg width="128" height="128" viewBox="0 0 128 128" fill="none" xmlns="http://www.w3.org/2000/svg">
<path d="M34.4901 74.77C34.3701 69.9399 34.3001 65.12 34.2401 60.3C34.2401 58.54 34.1401 56.78 34.1301 55.02C34.1301 48.82 34.1301 42.62 34.2001 36.42V32.54L34.1501 28.88C34.1501 28.81 34.1501 28.73 34.1501 28.66C34.0761 28.5884 33.9874 28.5338 33.8901 28.5L33.4601 28.3L32.2501 27.74C31.4073 27.3509 30.6037 26.8821 29.8501 26.34C28.2345 25.254 27.0329 23.6542 26.4401 21.8C26.1401 20.6 26.7801 20.71 27.5701 21.36L30.8401 24C31.5924 24.5913 32.4033 25.104 33.2601 25.53L34.6701 26.22L35.2701 26.52C35.4989 26.6467 35.7134 26.7976 35.9101 26.97C36.0975 27.1282 36.2419 27.3311 36.3301 27.56C36.41 27.7911 36.4702 28.0286 36.5101 28.27C36.5101 30.91 36.5101 33.54 36.4301 36.19C36.3501 38.84 36.3201 41.19 36.2601 43.76C36.1401 48.07 36.3201 52.56 36.3701 56.97C36.4301 61.82 36.5001 66.67 36.6201 71.51C36.6868 74.4966 36.7801 77.4966 36.9001 80.51C37.0901 85.02 37.2901 89.5099 37.6901 94.02C38.0101 97.49 38.4901 100.87 39.1101 104.22C39.2701 104.96 39.4001 105.68 39.5701 106.4C39.8601 107.76 40.0701 108.63 40.1601 109.23C40.1932 109.489 40.1932 109.751 40.1601 110.01C40.1496 110.211 40.1126 110.409 40.0501 110.6C40.0087 110.793 39.9553 110.983 39.8901 111.17C39.7701 111.42 39.5001 111.36 39.0501 110.91C38.8027 110.631 38.5973 110.318 38.4401 109.98C38.2078 109.547 38.0202 109.091 37.8801 108.62C36.975 105.522 36.3459 102.349 36.0001 99.14C35.5801 95.92 35.3201 92.66 35.0901 89.38C34.7601 84.53 34.5701 79.64 34.4001 74.78L34.4901 74.77Z" fill="#231F20"/>
<path d="M25.6503 81.24C25.4403 76.32 25.3103 71.4 25.2103 66.48C25.1503 64.68 25.0803 62.89 25.0703 61.1C25.0703 54.7733 25.1336 48.44 25.2603 42.1L25.3703 33.69C25.3703 31.9 25.4203 30.11 25.4703 28.31C25.5592 26.5031 25.7562 24.7032 26.0603 22.92C26.3003 21.77 26.5503 22.04 26.7503 23C27.0925 24.5582 27.2867 26.1452 27.3303 27.74C27.2503 35.01 27.1603 42.27 27.0703 49.61C26.9903 54 27.2203 58.61 27.3603 63.06C27.4803 68 27.6303 72.94 27.8403 77.88C27.9903 80.88 28.1303 83.96 28.3203 86.99C28.6203 91.58 28.9403 96.2 29.4103 100.74L29.8103 104L30.0303 105.62L30.1403 106.42L30.2003 106.81V107L30.6603 107.53C30.8703 107.76 31.0903 107.99 31.3103 108.21C31.7597 108.65 32.2338 109.064 32.7303 109.45C33.3057 109.885 33.9104 110.279 34.5403 110.63C35.7103 111.27 36.5403 111.57 37.0803 111.86C37.5149 112.05 37.9113 112.318 38.2503 112.65C38.3838 112.766 38.5076 112.893 38.6203 113.03C38.7503 113.23 38.5103 113.37 37.9403 113.46C37.0644 113.563 36.1767 113.488 35.3303 113.24C33.928 112.808 32.6044 112.153 31.4103 111.3C30.8029 110.873 30.2249 110.405 29.6803 109.9C29.4003 109.64 29.1303 109.38 28.8703 109.1L28.4903 108.67C28.2803 108.43 28.0803 108.16 27.8703 107.89C27.6203 105.89 27.3703 103.89 27.1103 101.89C26.8503 99.89 26.7203 98.07 26.5303 96.15C26.2803 93.68 26.1303 91.2 25.9703 88.72C25.8103 86.24 25.6903 83.72 25.5603 81.27L25.6503 81.24Z" fill="#231F20"/>
<path d="M84.1201 114C80.4701 114.75 76.8001 115.45 73.1201 116.06C71.7701 116.29 70.4301 116.56 69.1201 116.74C64.3349 117.421 59.5024 117.711 54.6701 117.61C52.5301 117.54 50.3601 117.38 48.2301 117.11C45.4453 116.848 42.7468 116.003 40.3101 114.63C39.5501 114.18 39.9001 113.82 40.7601 113.63C41.282 113.543 41.8125 113.519 42.3401 113.56C43.018 113.548 43.6935 113.646 44.3401 113.85C49.3401 115.21 54.7901 115.14 60.2501 115.16C63.6052 115.005 66.9461 114.624 70.2501 114.02C73.9201 113.45 77.5801 112.77 81.2501 112.02C83.4901 111.56 85.7401 111.08 87.9801 110.57L98.1801 108.28C100.81 107.68 103.37 106.98 106.06 106.54C106.66 106.44 107.25 106.35 107.86 106.28C108.47 106.21 108.86 106.28 109.31 106.28C109.65 106.299 109.985 106.359 110.31 106.46C110.735 106.618 111.09 106.923 111.31 107.32C111.395 107.457 111.469 107.601 111.53 107.75C111.59 107.97 111.37 108.13 110.98 108.29C110.439 108.511 109.864 108.639 109.28 108.67C107.07 108.92 104.74 109.42 102.37 109.93L95.1301 111.58L84.1301 114.06L84.1201 114Z" fill="#231F20"/>
<path d="M109.49 53.58C109.32 57.58 109.24 61.58 109.21 65.64L109.3 70.04C109.36 75.21 109.44 80.39 109.76 85.56C109.88 87.85 110.12 90.15 110.36 92.41L110.91 96.77C111.127 98.2214 111.264 99.6836 111.32 101.15C111.32 102.06 110.86 102.01 110.32 101.31C109.46 100.236 108.913 98.9451 108.74 97.58C107.904 91.5921 107.463 85.5557 107.42 79.51C107.42 75.88 107.15 72.12 107.12 68.41C107.06 64.33 107.12 60.25 107.24 56.18C107.314 53.6733 107.41 51.1666 107.53 48.66C107.72 44.86 107.97 41.05 108.26 37.29L108.55 32.93C108.63 31.48 108.73 30.04 108.88 28.59L109.04 26.68C109.37 24.31 109.66 23.58 110.31 23.17C110.449 23.0678 110.596 22.9775 110.75 22.9C111.23 22.76 111.46 23.77 111.34 25.5C110.97 30.65 110.58 36.03 110.19 41.44C109.93 45.44 109.71 49.53 109.6 53.58H109.49Z" fill="#231F20"/>
<path d="M73.69 15.91C69.8 16.02 65.92 15.98 62.05 15.91C60.63 15.91 59.26 15.91 57.8 15.85C52.8 15.49 47.93 14.95 43.01 15.06C40.8483 15.0924 38.6935 15.3133 36.57 15.72C33.9164 16.1907 31.3732 17.1503 29.07 18.55C28.37 18.97 28.13 18.6 28.46 17.8C29.0676 16.5372 30.144 15.5613 31.46 15.08C34.2526 14.0035 37.1931 13.3594 40.18 13.17C43.0961 12.955 46.024 12.955 48.94 13.17C52.41 13.38 56.04 13.58 59.48 13.63C63.35 13.63 67.22 13.69 71.08 13.58C73.46 13.51 75.83 13.41 78.19 13.21C81.7576 12.9381 85.3024 12.4235 88.8 11.67C91.4523 11.0227 94.0635 10.2179 96.62 9.25998C97.18 9.04998 97.72 8.80998 98.3 8.62998C100.42 7.91998 101.13 7.78998 101.82 8.18998C101.977 8.26407 102.127 8.35103 102.27 8.44998C102.64 8.78998 101.92 9.44998 100.42 10.29C95.7274 12.6249 90.6839 14.1754 85.49 14.88C81.5845 15.4766 77.6481 15.8506 73.7 16L73.69 15.91Z" fill="#231F20"/>
<path d="M63.1903 29C67.0603 28.85 70.9403 28.5 74.8003 28.06C76.2103 27.88 77.6103 27.66 79.0103 27.45C84.0103 26.76 88.9103 25.91 93.8003 24.78C95.9603 24.28 98.1203 23.67 100.22 23C102.89 22.09 105.61 21.21 108.15 20.13C108.9 19.76 108.96 19.95 108.45 20.59C107.586 21.611 106.512 22.4331 105.3 23C102.61 24.167 99.8353 25.1297 97.0003 25.88C94.167 26.6934 91.3036 27.36 88.4103 27.88C84.9403 28.53 81.3503 29.32 77.7803 29.88C73.8603 30.4867 69.917 30.9234 65.9503 31.19C63.5103 31.34 61.0703 31.46 58.6203 31.49C54.9158 31.5387 51.2112 31.4018 47.5203 31.08C44.6606 30.8978 41.8151 30.5371 39.0003 30C38.3703 29.89 37.7703 29.77 37.1503 29.6C36.5303 29.43 36.1503 29.3 35.7203 29.16C35.3998 29.0403 35.0916 28.8895 34.8003 28.71C34.6025 28.6068 34.4272 28.4652 34.2847 28.2935C34.1422 28.1218 34.0353 27.9235 33.9703 27.71C33.9033 27.5421 33.853 27.3679 33.8203 27.19C33.8203 26.67 34.8203 26.6 36.4103 27.01C38.8003 27.52 41.2603 27.93 43.7903 28.26C46.3203 28.59 48.9003 28.76 51.5003 28.89C55.3877 29.09 59.2829 29.09 63.1703 28.89L63.1903 29Z" fill="#231F20"/>
<path d="M28.1801 106.21C28.1801 106.21 16.4101 107.21 16.4601 111.72C16.5101 116.23 38.7001 124.33 68.8801 116.14C68.8801 116.14 51.7901 115.91 40.0301 112.8C36.2901 111.81 28.1801 106.21 28.1801 106.21Z" fill="#231F20"/>
<path d="M84.5303 22.13C83.3104 22.34 82.0904 22.54 80.8604 22.71C79.6304 22.88 78.4104 23.05 77.1904 23.19C76.2904 23.3 75.4004 23.47 74.5004 23.54C71.3404 23.83 68.1504 23.94 64.9804 23.98H62.8604C62.1504 23.98 61.4504 23.98 60.7504 23.98C58.9349 23.9769 57.126 23.7621 55.3604 23.34C54.8104 23.2 54.9503 22.95 55.4603 22.74C56.2299 22.4853 57.0417 22.3834 57.8503 22.44C61.4103 22.61 65.0004 22.49 68.6504 22.44C69.7404 22.44 70.8504 22.3 71.9604 22.18C73.0704 22.06 74.1904 21.87 75.3004 21.76L79.0004 21.2L82.6504 20.62C84.1404 20.35 85.6504 20.11 87.1104 19.78C88.2404 19.55 89.3604 19.3 90.4704 19.02C91.5804 18.74 92.7004 18.48 93.7904 18.16C94.6404 17.93 95.4704 17.63 96.2904 17.33C97.1104 17.03 97.9104 16.72 98.7204 16.39C99.0704 16.24 99.4204 16.11 99.7904 15.99C101.11 15.49 101.58 15.43 102.02 15.67C102.125 15.7099 102.226 15.7602 102.32 15.82C102.57 16.03 102.12 16.49 101.18 17.05C99.7644 17.8644 98.2702 18.5344 96.7204 19.05C95.1604 19.64 93.5404 20.1 91.9304 20.57C89.5004 21.18 87.0503 21.69 84.5903 22.14L84.5303 22.13Z" fill="#231F20"/>
<path d="M78.76 87.65L74.89 88C74.41 88 73.95 88.16 73.48 88.2L68.48 88.65C67.71 88.65 66.97 88.76 66.26 88.86C65.34 89 64.47 89.19 63.64 89.33C63.39 89.33 63.22 89.01 63.31 88.55C63.3672 88.2732 63.4975 88.0167 63.6874 87.8074C63.8774 87.5981 64.12 87.4436 64.39 87.36C65.3737 87.1241 66.379 86.99 67.39 86.96L70.23 86.78C71.39 86.73 72.57 86.44 73.75 86.28L77.64 85.77L80.04 85.46C81.24 85.29 82.46 85.15 83.65 84.92C84.57 84.75 85.46 84.45 86.36 84.19C86.56 84.19 86.75 84.06 86.95 84.02C87.7 83.85 87.95 83.96 88.21 84.52C88.2751 84.6462 88.3318 84.7765 88.38 84.91C88.4111 85.0257 88.4183 85.1465 88.4011 85.265C88.3839 85.3836 88.3427 85.4973 88.2799 85.5994C88.2172 85.7014 88.1343 85.7896 88.0363 85.8585C87.9383 85.9274 87.8273 85.9755 87.71 86C86.0976 86.6013 84.419 87.0076 82.71 87.21C81.42 87.4 80.11 87.53 78.81 87.7L78.76 87.65Z" fill="#231F20"/>
<path d="M81.77 95.79C80.83 95.89 79.89 95.95 78.96 96.01C78.62 96.01 78.29 96.13 77.96 96.14C76.76 96.21 75.56 96.24 74.37 96.33C73.8473 96.3752 73.3289 96.4621 72.82 96.59C72.2365 96.8145 71.6234 96.9526 71 97C70.8562 96.8893 70.7399 96.7469 70.6601 96.5838C70.5804 96.4208 70.5393 96.2415 70.54 96.06C70.5281 95.8072 70.5886 95.5562 70.7144 95.3366C70.8402 95.1169 71.026 94.9377 71.25 94.82C72.6144 94.4457 74.0256 94.2706 75.44 94.3C76.3028 94.2421 77.1592 94.1116 78 93.91L80.77 93.58C81.34 93.51 81.91 93.45 82.47 93.36C83.3223 93.2512 84.1672 93.0909 85 92.88C85.64 92.68 86.23 92.4 86.82 92.15L87.2 91.97C87.68 91.79 87.89 91.89 88.2 92.38C88.27 92.49 88.35 92.6 88.41 92.71C88.5137 92.8879 88.5476 93.0979 88.5051 93.2994C88.4626 93.5008 88.3467 93.6792 88.18 93.8C87.6592 94.2004 87.0917 94.5362 86.49 94.8C85.891 95.048 85.2676 95.2324 84.63 95.35C83.7 95.56 82.75 95.68 81.81 95.82L81.77 95.79Z" fill="#231F20"/>
<path d="M75.2899 61.65C75.5281 61.8222 75.7911 61.9571 76.0699 62.05C76.1999 62.0931 76.3339 62.1233 76.4699 62.14C76.5699 62.14 76.7199 62.14 76.7899 62.14C76.9092 62.1082 77.0125 62.0334 77.0799 61.93C77.3027 61.6378 77.4472 61.2936 77.4999 60.93C77.5885 60.4576 77.6452 59.9799 77.6699 59.5C77.6699 59.06 77.6699 58.6 77.6699 58.14C77.5757 57.4666 77.744 56.7828 78.1399 56.23C78.3199 56.04 78.5699 56.35 78.8299 56.67C79.0899 56.99 79.3699 57.21 79.3299 57.42C79.1799 58.28 79.2499 59.52 78.9599 60.74C78.8699 61.12 78.8099 61.51 78.6999 61.93C78.5858 62.3828 78.3427 62.7928 77.9999 63.11C77.7736 63.3029 77.5072 63.443 77.2199 63.52C76.963 63.5694 76.7014 63.5895 76.4399 63.58C75.9383 63.5575 75.4473 63.4279 74.9999 63.2C74.5211 62.9541 74.08 62.6409 73.6899 62.27C73.1386 61.737 72.6334 61.1583 72.1799 60.54C71.8299 60.08 71.4299 59.65 71.0799 59.18C71.0099 59.07 70.9199 58.98 70.8499 58.87C70.6099 58.45 70.6299 58.26 70.9499 58C71.0189 57.9378 71.0924 57.881 71.1699 57.83C71.3026 57.7427 71.4645 57.7116 71.6201 57.7434C71.7756 57.7753 71.9122 57.8676 71.9999 58C72.6699 58.72 73.2299 59.53 73.8499 60.26C74.2622 60.7956 74.7546 61.2645 75.3099 61.65H75.2899Z" fill="#231F20"/>
<path d="M73.1002 56C72.9654 56.1212 72.8069 56.2131 72.6348 56.2699C72.4627 56.3267 72.2806 56.3471 72.1002 56.33C71.9602 56.33 71.7202 56.16 71.7602 56.03C71.8385 55.7655 71.9529 55.5131 72.1002 55.28C72.4663 54.8766 72.9171 54.559 73.4202 54.35C74.0388 54.11 74.6831 53.9423 75.3402 53.85C76.0802 53.72 76.7402 53.65 77.2802 53.5C77.4476 53.469 77.6044 53.3958 77.7357 53.2873C77.8669 53.1788 77.9683 53.0386 78.0302 52.88C78.0302 52.78 78.0302 52.75 78.0302 52.74C77.9786 52.686 77.9176 52.6419 77.8502 52.61L77.3402 52.43C76.9704 52.333 76.5799 52.3504 76.2202 52.48C75.8765 52.5779 75.57 52.7764 75.3402 53.05C75.2659 53.1405 75.2238 53.253 75.2202 53.37C75.1673 53.5633 75.1038 53.7536 75.0302 53.94C74.9503 54.1444 74.8602 54.3446 74.7602 54.54C74.6778 54.7072 74.5772 54.8648 74.4602 55.01C74.3423 55.1791 74.2047 55.3335 74.0502 55.47C73.7683 55.7261 73.421 55.8991 73.0467 55.9697C72.6725 56.0403 72.286 56.0058 71.9302 55.87C71.6728 55.7693 71.4252 55.6454 71.1902 55.5L71.0002 55.37L70.7102 55.12H70.6502C70.6379 55.0938 70.6179 55.0721 70.5929 55.0578C70.5678 55.0435 70.5389 55.0372 70.5102 55.04C70.4585 55.0389 70.4073 55.0512 70.3618 55.0758C70.3162 55.1003 70.2778 55.1362 70.2502 55.18C70.2502 55.18 70.2502 55.26 70.1802 55.3C70.1102 55.34 70.1202 55.65 70.1802 55.8C70.3203 56.0309 70.5256 56.2153 70.7702 56.33C70.8969 56.4288 71.0387 56.5064 71.1902 56.56C71.2202 56.5732 71.2469 56.5929 71.2683 56.6177C71.2897 56.6426 71.3053 56.6719 71.3139 56.7035C71.3226 56.7351 71.324 56.7683 71.3182 56.8005C71.3123 56.8328 71.2993 56.8634 71.2802 56.89C71.1002 57 71.2802 57.09 71.2802 57.19C71.2868 57.2058 71.2902 57.2228 71.2902 57.24C71.2902 57.2571 71.2868 57.2741 71.2802 57.29C71.1288 57.3843 70.9577 57.4425 70.7802 57.46C70.3669 57.5183 69.9459 57.4411 69.5802 57.24C69.1814 57.0352 68.8382 56.7366 68.5802 56.37C68.4263 56.1344 68.3146 55.8739 68.2502 55.6C68.2037 55.3152 68.2037 55.0247 68.2502 54.74C68.332 54.3567 68.5046 53.9987 68.7534 53.6959C69.0022 53.3931 69.32 53.1545 69.6802 53C70.0332 52.8258 70.4298 52.7597 70.8202 52.81C71.0303 52.844 71.2353 52.9044 71.4302 52.99C71.5337 53.0248 71.634 53.0683 71.7302 53.12L71.9102 53.22L72.4302 53.52H72.5102C72.5102 53.52 72.5102 53.52 72.5702 53.58C72.5702 53.58 72.5702 53.58 72.5702 53.53L72.6402 53.37C72.7402 53.11 72.8602 52.74 73.0002 52.42C73.0891 52.2046 73.1961 51.9972 73.3202 51.8C73.4643 51.6034 73.6249 51.4194 73.8002 51.25C73.9527 51.1142 74.113 50.9873 74.2802 50.87C74.6027 50.6512 74.967 50.5014 75.3502 50.43C75.5002 50.43 75.6402 50.34 75.7902 50.3C76.435 50.0876 77.1233 50.0429 77.7902 50.17C78.5599 50.2797 79.2672 50.6546 79.7902 51.23C80.0837 51.5714 80.2795 51.9859 80.3569 52.4294C80.4344 52.873 80.3906 53.3292 80.2302 53.75C80.1789 53.8912 80.1046 54.023 80.0102 54.14C79.9082 54.2829 79.798 54.4198 79.6802 54.55C79.1322 55.183 78.3705 55.5923 77.5402 55.7C76.8402 55.81 76.2002 55.82 75.6002 55.89C75.4602 55.89 75.0802 55.89 74.7102 55.89C74.4308 55.885 74.152 55.9153 73.8802 55.98C73.7402 56 73.2002 55.92 73.1002 56Z" fill="#231F20"/>
<path d="M33.3603 76.85C33.2137 72.8033 33.097 68.7567 33.0103 64.71C33.0103 63.23 32.8803 61.76 32.8603 60.29C32.7803 55.08 32.7803 49.88 32.7603 44.68C32.7603 42.38 32.6903 40.06 32.6203 37.77C32.5403 34.83 32.3603 31.88 32.6203 28.93C32.7503 27.1 34.7003 29.42 34.7503 32.79C34.8503 38.79 34.8703 44.79 34.7503 50.79C34.6703 54.41 34.8703 58.17 34.9603 61.87C35.0603 65.93 35.1603 70 35.3103 74.07C35.4037 76.57 35.517 79.07 35.6503 81.57C35.8503 85.35 36.0803 89.15 36.4903 92.88C36.8116 95.742 37.2788 98.5857 37.8903 101.4C38.0103 102.02 38.1803 102.6 38.3203 103.22C38.6103 104.33 38.7903 105.06 38.8803 105.56C38.9664 105.948 38.9457 106.353 38.8203 106.73C38.7809 106.896 38.7307 107.06 38.6703 107.22C38.5603 107.44 38.3103 107.4 37.9403 107.03C37.833 106.93 37.7327 106.824 37.6403 106.71C37.5503 106.58 37.4703 106.44 37.3803 106.28C37.1683 105.922 36.994 105.544 36.8603 105.15C36.0004 102.589 35.3778 99.9548 35.0003 97.28C34.5903 94.59 34.3103 91.85 34.0803 89.11C33.7303 85.04 33.5203 80.94 33.3203 76.86L33.3603 76.85Z" fill="#231F20"/>
<path d="M63.69 64.4399C62.9909 61.5347 62.6318 58.5581 62.62 55.5699C62.6001 54.4745 62.6502 53.379 62.77 52.2899C62.8861 51.3111 63.0869 50.3441 63.37 49.3999L63.68 48.5699L63.77 48.2899C63.7858 48.2448 63.8059 48.2013 63.83 48.1599L63.96 48.0899L64.47 47.8099C64.93 47.5499 65.35 47.3699 65.79 47.1599C67.5319 46.3827 69.3389 45.7603 71.19 45.2999C72.8302 44.8722 74.5023 44.5779 76.19 44.4199C77.2841 44.3149 78.3858 44.3149 79.48 44.4199C80.5978 44.5447 81.681 44.8842 82.67 45.4199C83.3 45.7599 82.98 46.0799 82.32 46.2399C81.9203 46.3139 81.516 46.3607 81.11 46.3799C80.8704 46.3997 80.6296 46.3997 80.39 46.3799C80.1219 46.3895 79.8536 46.3694 79.59 46.3199C77.5893 46.0862 75.5643 46.1706 73.59 46.5699C71.5466 46.9617 69.5396 47.5237 67.59 48.2499C66.98 48.4669 66.3824 48.7173 65.8 48.9999C64.99 49.4799 65.33 48.9999 65.01 49.8899C64.6942 51.1169 64.5098 52.374 64.46 53.6399C64.322 56.4912 64.5302 59.3488 65.08 62.1499C65.26 63.0099 65.45 63.8699 65.7 64.7099C65.82 65.1299 65.96 65.5399 66.11 65.9499L66.22 66.2599L66.29 66.4399C66.35 66.5399 66.37 66.7299 66.47 66.7699L67.17 66.8899C67.5 66.9499 67.83 66.9799 68.17 67.0099C68.83 67.0899 69.49 67.0999 70.17 67.1199C71.5102 67.1218 72.8482 67.0114 74.17 66.7899C76.22 66.4599 78.17 65.7899 80.27 65.4099C80.73 65.3199 81.2 65.2399 81.69 65.1899C83.52 65.0599 84.17 65.4499 84.41 66.0099C84.48 66.1349 84.5306 66.2698 84.56 66.4099C84.56 66.6199 84.4 66.7699 84.1 66.8599C83.6683 66.9486 83.2302 67.0021 82.79 67.0199C79.47 67.4099 75.63 68.8599 71.48 69.0199C69.9321 69.1017 68.38 69.0179 66.85 68.7699L66 68.6299L65.47 68.5399L65.2 68.4899C65.1 68.4899 65.12 68.3599 65.07 68.2999L64.66 67.3899L64.43 66.9999L64.33 66.7199C64.0655 65.9954 63.8385 65.2578 63.65 64.5099L63.69 64.4399Z" fill="#231F20"/>
<path d="M82.6801 60.0899C82.6801 59.2399 82.6801 58.3899 82.6801 57.5399C82.6801 57.2299 82.6801 56.9199 82.6801 56.6099C82.7269 55.5083 82.8337 54.41 83.0001 53.3199L83.1701 51.8599C83.2027 51.2146 83.3732 50.5838 83.6701 50.0099C83.7701 49.8399 84.0901 50.0099 84.3701 50.2499C84.6501 50.4899 84.8901 50.8699 84.8201 51.1699C84.5801 52.2799 84.4501 53.4599 84.2201 54.6599C84.1551 55.4085 84.1551 56.1613 84.2201 56.9099C84.2201 57.7299 84.2201 58.5699 84.2801 59.3999C84.2801 59.9099 84.2801 60.3999 84.3701 60.9399C84.4401 61.7199 84.4901 62.4999 84.6201 63.2599C84.7351 63.8475 84.882 64.4283 85.0601 64.9999C85.106 65.1238 85.1427 65.2508 85.1701 65.3799C85.2801 65.8699 85.1701 66.0399 84.7601 66.2099C84.6601 66.2099 84.5601 66.2999 84.4601 66.3299C84.2996 66.3763 84.1274 66.361 83.9776 66.287C83.8277 66.213 83.7109 66.0856 83.6501 65.9299C83.2125 64.8878 82.936 63.7852 82.8301 62.6599C82.7301 61.8099 82.6901 60.9599 82.6401 60.0999L82.6801 60.0899Z" fill="#231F20"/>
<path d="M76.4001 68.78L73.5001 69.41C73.1501 69.48 72.8001 69.59 72.4401 69.65C71.1431 69.8788 69.8213 69.9326 68.5101 69.81C67.9077 69.7444 67.3142 69.6137 66.7401 69.42C65.9695 69.1856 65.3092 68.6815 64.8801 68C64.7501 67.78 65.0301 67.64 65.3801 67.58C65.7207 67.5102 66.075 67.5633 66.3801 67.73C67.4582 68.3879 68.7084 68.7083 69.9701 68.65C70.8388 68.6253 71.7014 68.4977 72.5401 68.27C73.4801 68.07 74.4401 67.84 75.3901 67.61L77.1701 67.17C78.0701 66.95 78.9901 66.77 79.9201 66.61C80.656 66.4489 81.4068 66.3651 82.1601 66.36H82.6901C83.3601 66.52 83.5301 66.76 83.4601 67.15C83.4648 67.2399 83.4648 67.33 83.4601 67.42C83.39 67.5523 83.2794 67.6587 83.1444 67.7235C83.0094 67.7883 82.8572 67.8081 82.7101 67.78C81.554 67.7689 80.4002 67.8863 79.2701 68.13C78.3501 68.31 77.4001 68.52 76.4501 68.76L76.4001 68.78Z" fill="#231F20"/>
</svg>
