<svg width="128" height="128" viewBox="0 0 128 128" fill="none" xmlns="http://www.w3.org/2000/svg">
<path d="M55.9398 29.81C55.5198 28.12 54.6098 25.5 44.8398 30.43L52.0498 24.36L63.3798 24.73L55.9398 29.82V29.81Z" fill="#231F20"/>
<path d="M48.1 28.06C46.5 29.57 45.1 31.31 43.82 33.13C43.38 33.81 42.97 34.52 42.58 35.22C41.89 36.35 41.24 37.52 40.7 38.72C40.42 39.32 40.16 39.93 39.95 40.54L39.8 40.95C39.76 41.02 39.75 41.09 39.72 41.17C39.68 41.32 39.61 41.47 39.58 41.63L39.52 41.95C39.47 42.1 39.47 42.34 39.67 42.34C39.83 42.36 39.99 42.31 40.14 42.26C40.3 42.21 40.45 42.15 40.6 42.1C40.77 42.04 40.81 42.01 41.22 41.89C42.06 41.64 42.95 41.4 43.9 41.33C44.37 41.3 44.86 41.38 45.34 41.5C45.82 41.6 46.25 41.93 46.64 42.2C47.1 42.62 46.94 42.67 46.42 42.86C46.16 42.97 45.8 43.15 45.44 43.44C45.09 43.68 44.75 43.87 44.37 44.01C43.89 44.13 43.39 44.23 42.87 44.4L42.08 44.67L41.88 44.74C41.82 44.76 41.76 44.78 41.58 44.86C41.28 44.96 40.99 45.07 40.69 45.16C40.1 45.34 39.49 45.52 38.98 45.54C38.46 45.57 38.04 45.47 37.68 45.3C37.35 45.15 36.89 44.78 36.76 44.4L36.46 43.1C36.62 42.21 36.79 41.36 36.96 40.53C37.08 40.07 37.18 39.9 37.28 39.65L37.58 38.93C38.51 36.93 39.35 34.86 40.47 32.95C41.72 30.87 43.2 28.95 44.78 27.13C45.8 26.05 46.83 24.98 47.95 24.01C48.75 23.22 49.7 22.6 50.59 21.91C51.5 21.26 52.47 20.68 53.4 20.06C54.16 19.64 54.9 19.19 55.64 18.73C56.4 18.32 57.19 17.95 57.98 17.57C58.32 17.39 58.67 17.22 59.06 17.16C59.77 17.01 60.25 16.96 60.61 17.04C60.98 17.17 61.21 17.36 61.42 17.63C61.51 17.75 61.63 17.86 61.69 17.98C61.79 18.18 61.73 18.4 61.54 18.68C61.35 18.96 61.06 19.34 60.62 19.55C59.36 20.28 58.11 20.91 56.84 21.56C56.23 21.94 55.61 22.29 54.98 22.64C54.37 23.03 53.78 23.46 53.17 23.85C52.71 24.13 52.3 24.5 51.87 24.83C51.45 25.17 51 25.48 50.59 25.84C49.78 26.58 48.92 27.27 48.19 28.1L48.13 28.05L48.1 28.06Z" fill="#231F20"/>
<path d="M57.6301 30.43C56.5101 31.31 55.4301 32.1 54.4301 33C54.0701 33.33 53.7701 33.71 53.4301 34.05C52.2101 35.24 51.1201 36.55 50.3301 38.08C49.9701 38.75 49.7401 39.49 49.5101 40.21C49.2301 41.15 49.2101 42.13 48.4801 43.03C48.2301 43.31 48.2201 43.27 47.9701 42.96C47.7001 42.65 47.1201 42.05 47.1201 41.41C47.2101 40.32 47.3801 39.2 47.7601 38.14C48.1701 37.09 48.7001 36.08 49.4001 35.18C50.2201 34.11 50.9301 32.93 51.8301 31.93C52.8201 30.84 53.9001 29.86 54.9601 28.93C55.6001 28.36 56.2901 27.8 56.9801 27.23C58.0401 26.38 59.1701 25.59 60.4001 24.91C60.8801 24.64 61.3501 24.37 61.8701 24.12C62.3801 23.87 62.9301 23.66 63.5101 23.6C63.7701 23.58 64.0201 23.49 64.2801 23.52C65.2601 23.6 65.5101 24.05 65.6001 24.56C65.6201 24.68 65.6501 24.8 65.6601 24.9C65.6601 25.08 65.5701 25.22 65.4001 25.39C65.2301 25.56 65.0001 25.76 64.7501 25.86C64.3701 26.07 64.0301 26.22 63.7001 26.4C63.3801 26.62 63.0601 26.73 62.7301 26.89C62.0801 27.2 61.4101 27.58 60.7301 28.04C59.7201 28.72 58.6901 29.55 57.6601 30.46L57.6101 30.41L57.6301 30.43Z" fill="#231F20"/>
<path d="M93.0699 45.9L92.6599 47.23L92.0799 48.95C91.9399 49.33 91.8099 49.7 91.6399 50.02C91.4599 50.32 91.1999 50.5 90.9899 50.67L90.8199 50.81C90.8199 50.81 90.7599 50.78 90.7999 50.9H90.7499L90.6599 50.93C90.5199 50.93 90.3699 50.89 90.2299 50.88C89.9199 50.83 89.5699 50.73 89.2399 50.66C88.7399 50.41 88.1399 50.14 87.7199 49.89C87.4299 49.74 87.1399 49.59 86.8499 49.42C84.8599 48.24 82.8599 47.07 80.7999 46.02C79.8899 45.55 78.9399 45.15 77.9999 44.78C77.3899 44.54 76.7799 44.34 76.1899 44.07C75.8899 43.95 75.5899 43.82 75.2999 43.68C74.9999 43.56 74.7499 43.31 74.4599 43.13C74.1199 42.87 74.1799 42.83 74.5799 42.7C74.8699 42.59 75.1699 42.49 75.4299 42.39C75.7799 42.3 76.1499 42.32 76.5299 42.39C77.8899 42.65 79.1599 43.18 80.4099 43.68C81.6599 44.2 82.8899 44.79 84.0799 45.45C85.4999 46.24 87.0899 46.84 88.5799 47.56C88.6699 47.6 88.8199 47.67 88.8499 47.7L88.9499 47.76L89.1599 47.89L89.3899 48.03C89.3899 48.03 89.4699 48.08 89.5099 48.09C89.5399 48.06 89.5599 48.03 89.5799 47.99C89.6499 47.85 89.7199 47.69 89.7899 47.51L89.8399 47.38L89.9299 47.08L90.1099 46.44C90.3999 45.38 90.6499 44.31 90.8799 43.23C91.2299 41.6 91.5599 39.95 91.6899 38.3C91.7999 37.02 91.6299 35.75 91.6399 34.51C91.6399 34.24 91.6099 33.97 91.6099 33.69C91.5999 33.18 91.7299 32.84 91.8399 32.59C91.9399 32.35 92.1599 32.19 92.4099 32.06C92.5199 32 92.6099 31.92 92.6899 31.88C92.8999 31.75 93.4999 32.14 93.7999 32.94C94.0499 33.53 94.1399 34.14 94.2799 34.76C94.3999 35.38 94.4999 36.01 94.4799 36.64C94.4899 37.9 94.3899 39.16 94.2299 40.41C93.9799 42.27 93.6299 44.11 93.1299 45.91H93.0599L93.0699 45.9Z" fill="#231F20"/>
<path d="M70.0002 24.65C72.3002 26.01 74.3202 27.69 76.1402 29.5C76.8102 30.15 77.5002 30.78 78.1102 31.49C79.1702 32.75 80.1302 34.07 81.0202 35.42L81.3502 35.94C81.5302 36.19 81.6802 36.47 81.8402 36.73C82.1402 37.25 82.5202 37.78 82.7402 38.27C83.3102 39.3 83.5202 40.13 83.8402 40.96L84.0502 41.57C84.0502 41.7 83.9302 41.68 83.8802 41.74C83.8202 41.82 83.7602 41.88 83.7102 41.98C83.6902 42.13 83.6102 42.22 83.6302 42.43L82.4402 41.95L81.4002 41.55C80.7802 41.34 80.2002 41.15 79.6902 41.06C79.3202 40.96 78.9902 40.93 78.6402 40.88C78.4802 40.86 78.2602 40.82 78.1402 40.82L77.8202 40.8C77.4002 40.78 76.9802 40.76 76.5502 40.75C75.7002 40.72 74.8702 40.77 73.9902 40.52C73.4102 40.16 73.4602 40.11 73.8702 39.47C74.0702 39.13 74.3902 38.82 74.8002 38.49C75.2102 38.2 75.7102 38.03 76.2702 38C76.7102 37.98 77.1602 37.98 77.6102 37.99L78.2802 38.02H78.4502C78.5202 38.03 78.4502 38.04 78.4702 38.03C78.4702 38.03 78.5102 38.08 78.5302 38.07C78.8302 38.3 78.9902 38.26 78.9602 37.78C78.9602 37.74 78.9602 37.72 78.9202 37.65L78.7102 37.31C78.5702 37.09 78.4202 36.86 78.2602 36.65C77.9402 36.22 77.6202 35.79 77.2602 35.38C76.5602 34.56 75.8202 33.77 75.0702 33C73.4402 31.3 71.6702 29.74 69.7102 28.47C69.1202 28.05 68.4802 27.74 67.8602 27.37C67.2202 27.07 66.6002 26.75 65.9202 26.54C63.9002 25.82 61.7102 25.4 59.5202 25.42C57.8202 25.42 56.1702 25.83 54.6002 26.25C54.2502 26.33 53.9202 26.45 53.5802 26.53C53.2702 26.62 52.9902 26.66 52.7902 26.69C52.5802 26.7 52.3502 26.62 52.1902 26.58C51.8602 26.5 51.6102 26.32 51.3302 26.1C51.2002 26 51.0302 25.92 50.9102 25.83C50.4402 25.58 50.8502 24.67 51.8402 23.81C52.6302 23.36 53.4302 22.98 54.2702 22.68C55.1102 22.42 55.9702 22.24 56.8502 22.11C58.6002 21.86 60.4202 21.83 62.2302 22.02C64.9102 22.31 67.6502 23.18 70.0402 24.55L70.0002 24.63V24.65Z" fill="#231F20"/>
<path d="M67.9798 15.72C68.6998 15.79 69.4198 16 70.1198 16.18L72.0498 16.89C73.2998 17.43 74.5298 18.02 75.6698 18.74C76.5298 19.21 77.3498 19.75 78.1398 20.33C80.8298 22.49 83.0498 25.08 84.9598 27.83C85.7998 29.06 86.6498 30.29 87.3398 31.59C87.7898 32.43 88.1998 33.29 88.5298 34.19C88.6598 34.66 88.8798 35.09 88.9098 35.59C88.9498 36.09 88.9898 36.57 88.9398 37.07C88.8898 37.69 88.7998 37.59 88.4598 37.15C88.2898 36.93 88.0698 36.65 87.7198 36.33C87.3698 36.02 87.0498 35.66 86.8298 35.21C85.0398 32.15 83.0698 29.14 80.7298 26.33C79.3498 24.62 77.4798 23.28 75.6398 22.07C73.6398 20.7 71.4398 19.6 69.1298 18.91C67.7698 18.53 66.2898 18.41 64.8198 18.55C62.5898 18.77 60.3198 19.37 58.2398 20.35C57.4298 20.73 56.6698 21.18 55.9298 21.67C55.1998 22.17 54.4898 22.69 53.7398 23.15C53.4198 23.37 53.1198 23.6 52.7898 23.8C52.4898 24 52.2298 24.15 51.9998 24.27C51.7698 24.38 51.5498 24.43 51.3698 24.47C50.9998 24.54 50.7198 24.51 50.4298 24.4C50.2898 24.35 50.1398 24.31 50.0398 24.25C49.6898 24.06 49.9198 23.37 50.6098 22.39C51.7698 21.14 52.9998 19.79 54.5798 18.93C56.1198 18.01 57.7798 17.23 59.5398 16.64C60.8498 16.2 62.2098 15.85 63.6198 15.68C65.0198 15.48 66.4798 15.44 67.9498 15.63V15.7L67.9798 15.72Z" fill="#231F20"/>
<path d="M44.8902 109.01C35.9202 108.97 32.0902 104.86 32.7502 103.41L26.9502 103.88C26.9502 103.88 29.9802 107.97 34.1602 109.85C38.3402 111.73 40.6902 111.41 40.6902 111.41L44.8902 109.01Z" fill="#231F20"/>
<path d="M24.8501 69.8C24.4301 70.44 19.1001 74.43 21.1701 75.19C23.2401 75.95 15.8101 74.81 15.8101 74.81L24.8501 69.8Z" fill="#231F20"/>
<path d="M52.2499 106.02C52.3499 106 52.4399 105.98 52.5699 105.94L52.7899 105.86C52.8499 105.85 52.8499 105.82 52.8199 105.81L52.7599 105.77L52.4299 105.55C52.4299 105.55 51.9099 105.24 51.5599 105C51.1699 104.74 50.7899 104.45 50.4099 104.1C49.3599 103.11 48.5599 101.97 47.9799 100.93L47.8399 100.67C47.8099 100.61 47.7599 100.54 47.6999 100.51C47.6299 100.48 47.5599 100.51 47.4899 100.51L47.3799 100.53L47.0599 100.62C46.0699 100.91 45.0699 101.19 44.0799 101.51L38.0599 103.5C36.2499 104.06 34.3899 104.62 32.4699 104.89C31.8599 105 31.2299 105.02 30.5999 105.06C29.9699 105.05 29.3399 105.01 28.7099 104.9C27.4599 104.7 26.2399 104.32 25.2099 103.59C24.5599 103.17 24.6899 103.16 25.3799 103.12C25.7199 103.09 26.1999 103.08 26.7599 102.95C27.3199 102.86 27.8999 102.89 28.5399 102.87C29.6499 102.91 30.7399 102.74 31.8399 102.65C32.9399 102.5 34.0399 102.25 35.1499 101.93C37.3699 101.29 39.6299 100.41 41.9799 99.65C43.3899 99.16 44.8299 98.67 46.2699 98.18L46.9799 97.95C47.2799 97.84 47.5799 97.78 47.8799 97.74C48.4599 97.68 49.0699 97.96 49.4699 98.4C49.8799 98.81 50.2799 99.5 50.4199 99.73L50.9799 100.63C51.3799 101.24 51.8699 101.82 52.3499 102.24C52.6099 102.46 52.8999 102.67 53.2199 102.86C53.3999 102.97 53.4999 103.03 53.7499 103.17C54.0099 103.31 54.3299 103.47 54.6299 103.62C55.2299 103.91 55.9199 104.17 56.4299 104.47C56.9199 104.78 57.1799 105.09 57.3899 105.34C57.4899 105.48 57.5699 105.58 57.6299 105.74C57.5899 105.93 57.3899 106.06 57.2799 106.22L56.8799 106.67L56.6799 106.89C56.6799 106.89 56.6199 106.96 56.5699 107L56.3599 107.11L54.3199 108.18L53.7999 108.43L53.3399 108.64L52.6299 108.96C51.6799 109.37 50.7199 109.76 49.7499 110.12C46.8199 111.24 43.7499 112.01 40.6799 112.55C38.2899 112.97 35.9099 113.34 33.4699 113.36C32.9299 113.36 32.3999 113.41 31.8599 113.34C29.8299 113.23 29.2499 112.72 28.9899 111.94C28.9299 111.77 28.8399 111.6 28.8099 111.45C28.7699 111.2 28.9699 111.01 29.3499 110.82C29.7399 110.61 30.2899 110.51 30.9599 110.54C34.9699 110.56 39.1199 110.11 43.2299 109.09C46.2699 108.32 49.3099 107.33 52.2099 105.98L52.2399 106.04L52.2499 106.02Z" fill="#231F20"/>
<path d="M23.4698 102.83C22.2098 100.72 21.2898 98.33 21.1198 95.8L21.0298 94.43C21.0298 93.99 21.0098 93.56 21.0598 93.12C21.4098 90.05 22.4298 87.11 23.9598 84.55C24.6398 83.41 25.3398 82.29 26.1198 81.25C26.5798 80.55 27.1698 79.95 27.7698 79.37C28.0898 79.1 28.3698 78.8 28.7398 78.57C29.1198 78.37 29.4898 78.18 29.8798 77.98C30.3598 77.75 30.3198 77.82 30.1898 78.29C30.1298 78.53 30.0598 78.88 29.9898 79.32C29.9498 79.53 29.9398 79.78 29.8798 80.01C29.8098 80.22 29.7198 80.43 29.6098 80.62C29.1698 81.28 28.9098 82.06 28.4498 82.66C28.0198 83.3 27.6398 83.95 27.2598 84.6C26.8898 85.26 26.5398 85.92 26.2098 86.6C25.8598 87.27 25.4998 87.94 25.1898 88.64C24.4098 90.32 24.2798 92.26 24.1998 94.12C24.0798 96.1 24.5298 98.08 25.4198 99.94C25.9498 101.09 26.6698 102.17 27.4998 103.16C28.7598 104.66 30.2698 106.02 31.9698 107.04C33.2798 107.86 34.7598 108.3 36.1898 108.76C36.5098 108.84 36.8198 108.94 37.1298 109.06C37.6998 109.31 38.0898 109.44 38.3198 109.68C38.5398 109.95 38.6498 110.22 38.6998 110.55C38.7198 110.7 38.7698 110.86 38.7798 110.99C38.7798 111.22 38.6398 111.38 38.3498 111.52C38.0598 111.66 37.6198 111.81 37.1098 111.76C36.7198 111.76 36.3498 111.69 35.9598 111.65C35.5698 111.6 35.1798 111.55 34.8098 111.44C34.0698 111.2 33.3098 110.99 32.5898 110.65C31.1098 110.05 29.7298 109.18 28.4098 108.23C26.4698 106.77 24.7598 104.95 23.4098 102.85L23.4698 102.8V102.83Z" fill="#231F20"/>
<path d="M13.7301 105.59C13.2101 104.99 12.8301 104.28 12.4101 103.61C12.0501 102.91 11.6801 102.2 11.4101 101.46C11.1501 100.71 10.8701 99.98 10.7301 99.21C10.6501 98.83 10.5401 98.46 10.4901 98.06L10.3601 96.85C10.3101 96.26 10.3301 95.69 10.3101 95.11C10.3201 94.54 10.3901 93.98 10.4601 93.41C11.1401 89.49 12.8301 86 14.9301 82.86C15.8501 81.46 16.8501 80.1 17.9001 78.79C18.6101 77.98 19.2801 77.12 20.1301 76.43C20.9801 75.75 21.9601 75.18 23.1201 75.02C23.8301 74.91 23.7501 74.99 23.5101 75.63C23.3901 75.94 23.2801 76.47 23.1001 76.96C23.0201 77.22 22.9501 77.53 22.8401 77.78C22.7101 78.02 22.5601 78.24 22.3801 78.44C22.2301 78.63 22.0901 78.84 21.9201 79.02L21.4001 79.52L20.4001 80.59C19.7601 81.33 19.1201 82.08 18.5301 82.88C17.3401 84.46 16.2401 86.15 15.2501 87.91C14.0501 90.02 13.4301 92.51 13.1901 94.88C13.1001 96.2 13.1101 97.42 13.4701 98.73C13.5701 99.39 13.8601 99.99 14.0401 100.63C14.3201 101.22 14.5501 101.86 14.9101 102.42C15.7001 103.86 16.8101 105.12 18.0901 106.19C20.0301 107.82 22.3601 109.06 24.8201 109.81C26.7501 110.38 28.7201 110.6 30.6901 110.76C31.1301 110.78 31.5601 110.78 32.0001 110.82C33.6201 110.99 34.1301 111.31 34.4701 111.87C34.5501 112 34.6501 112.13 34.6901 112.25C34.8401 112.65 34.1401 112.99 32.8601 113.24C30.9701 113.45 29.0201 113.3 27.0501 112.97C25.0801 112.65 23.1001 112.09 21.1901 111.25C19.7601 110.67 18.4101 109.85 17.1101 108.95C15.8601 107.97 14.6401 106.93 13.6601 105.64L13.7101 105.59H13.7301Z" fill="#231F20"/>
<path d="M36.92 77.04C36.96 77.95 36.97 78.42 36.97 80.16C36.95 80.87 36.89 81.54 36.85 82.22L36.81 82.72L36.72 83.15L36.55 84.01C36.49 84.46 36.37 84.78 36.26 85.14C36.15 85.48 36.06 85.9 35.86 86.03C35.7 86.19 35.56 86.37 35.4 86.51L34.89 86.83C34.81 86.89 34.61 86.9 34.54 86.86C34.45 86.83 34.38 86.79 34.31 86.75C34.17 86.66 34.02 86.54 33.87 86.4C33.57 86.15 33.23 85.84 32.83 85.32C32.43 84.83 31.99 83.98 31.61 83.17C31.27 82.45 30.89 81.84 30.55 81.2C30.46 81.04 30.37 80.89 30.28 80.76L30.11 80.49C29.99 80.31 29.87 80.14 29.75 79.98L28.79 78.74C28.62 78.55 28.47 78.34 28.32 78.11C28.16 77.9 27.99 77.67 27.78 77.49C27.53 77.24 27.56 77.15 27.95 76.99C28.15 76.91 28.45 76.82 28.83 76.76C29.02 76.73 29.24 76.71 29.45 76.72C29.56 76.72 29.67 76.74 29.79 76.73L30.08 76.84C30.42 76.99 30.74 77.17 31.05 77.35L31.51 77.63L31.89 77.98C32.14 78.22 32.37 78.46 32.59 78.71C32.68 78.81 32.88 79.02 32.8 79C32.82 78.99 32.8 79 32.8 79.02C32.77 79.12 32.78 79.38 32.95 80.11C33 80.33 33.07 80.52 33.13 80.68C33.16 80.76 33.2 80.83 33.23 80.89C33.25 80.94 33.34 81.04 33.36 80.95C33.45 80.74 33.48 80.48 33.54 80.31C33.61 80.12 33.67 79.89 33.71 79.62L33.78 79.17C33.79 79.09 33.79 79.01 33.8 78.92V78.35C33.8 77.39 33.77 76.43 33.68 75.47C33.55 74.01 33.37 72.54 33.02 71.14C32.74 70.05 32.25 69.03 31.81 68.05C31.73 67.82 31.61 67.62 31.54 67.4C31.46 67.2 31.43 67.01 31.44 66.84C31.44 66.68 31.44 66.54 31.48 66.42C31.51 66.3 31.55 66.19 31.62 66.08C31.71 65.96 31.81 65.85 31.9 65.75C31.99 65.66 32.05 65.56 32.1 65.5C32.21 65.34 32.98 65.37 33.56 65.94C33.8 66.13 33.95 66.37 34.12 66.6C34.3 66.83 34.45 67.07 34.6 67.31C34.87 67.81 35.09 68.32 35.29 68.85C35.7 69.9 35.98 70.99 36.23 72.08C36.58 73.71 36.79 75.38 36.94 77.05H36.86L36.92 77.04Z" fill="#231F20"/>
<path d="M21.2701 72.66L20.7601 72.99L20.5101 73.16C20.4501 73.2 20.4701 73.17 20.4401 73.19C20.3801 73.2 20.3101 73.23 20.2201 73.26C20.0501 73.33 19.8401 73.44 19.6001 73.6C19.4201 73.72 19.4501 73.77 19.2401 73.92L19.0001 74.1C19.0001 74.1 18.9201 74.17 18.8901 74.21C18.8901 74.24 18.8901 74.21 18.9001 74.22C18.9201 74.22 18.9601 74.22 19.0301 74.22L19.6801 74.24L20.1801 74.28C20.2901 74.28 20.4001 74.3 20.5101 74.3L21.1501 74.32C21.6501 74.35 22.1401 74.34 22.6301 74.41C23.2601 74.48 23.8901 74.56 24.5101 74.7C25.1301 74.83 25.7401 75.08 26.2501 75.58C26.4801 76.14 26.4401 76.02 25.9701 76.43C25.7301 76.65 25.4601 76.81 25.1401 77.02C24.9801 77.11 24.8201 77.22 24.6501 77.27C24.4901 77.31 24.3301 77.33 24.1701 77.32C23.2401 77.21 22.3001 77.27 21.3801 77.16L20.6801 77.1H19.3201C18.2701 77.17 17.3001 77.24 15.8001 77.75L15.4001 77.83C15.2801 77.85 15.1001 77.9 15.0601 77.86L14.6701 77.75C14.4201 77.67 14.1001 77.62 14.1301 77.46C14.0901 77.35 14.0201 77.24 13.9501 77.16C13.8901 77.11 13.8101 77.07 13.7301 77.04C13.6301 77 13.6001 76.99 13.5301 76.97C13.4701 76.95 13.4001 76.94 13.3501 76.95C13.3001 76.95 13.2501 76.97 13.1901 76.97C13.1101 76.81 13.1501 76.7 13.1501 76.58C13.1701 76.35 13.2801 76.09 13.4101 75.8C13.5401 75.49 13.7701 75.13 14.1301 74.73C14.4901 74.33 14.9801 73.89 15.4701 73.47C16.4701 72.62 17.5501 71.79 18.6001 71.04L19.3001 70.56L19.9601 70.13L21.2901 69.28C22.6401 68.43 24.0401 67.68 25.4301 66.91C26.5101 66.31 27.5201 65.63 28.6401 65.07C28.8901 64.95 29.1201 64.8 29.3901 64.72C30.3701 64.39 30.7701 64.54 31.1601 65.17C31.2401 65.29 31.3401 65.39 31.3901 65.49C31.4801 65.66 31.4501 65.83 31.3601 66.15C31.2701 66.48 31.0601 66.7 30.7801 66.91C29.9401 67.55 29.0401 68.02 28.1401 68.56C27.2301 69.09 26.3101 69.62 25.3901 70.16C24.0201 70.97 22.6401 71.81 21.3101 72.74L21.2701 72.68V72.66Z" fill="#231F20"/>
<path d="M107.21 85.86C109.85 85.16 111.44 76.77 108.7 73.65L113.88 79.73C113.88 79.73 111.5 89.88 109.31 91.73C107.12 93.58 107.71 91.19 107.71 91.19L107.21 85.86Z" fill="#231F20"/>
<path d="M79.6199 110.56C78.2899 110.23 85.9299 114.83 84.9199 108.84C84.6199 107.03 86.6299 114.03 86.6299 114.03L79.6199 110.56Z" fill="#231F20"/>
<path d="M105.63 86.18C105.19 84.92 104.68 83.83 103.94 82.76C103.69 82.36 103.34 82.04 103.05 81.67C102.02 80.36 100.76 79.16 99.3298 78.18C98.6998 77.74 97.9998 77.4 97.2898 77.09C96.3898 76.66 95.4398 76.43 94.6498 75.66C94.3998 75.44 94.4898 75.25 94.8598 75.02C95.0398 74.9 95.2898 74.76 95.5898 74.63C95.7398 74.57 95.9098 74.48 96.0598 74.46C96.2098 74.45 96.3698 74.46 96.5198 74.49C97.0498 74.61 97.5898 74.76 98.1098 74.95C98.6098 75.18 99.1098 75.41 99.5798 75.69C100.54 76.23 101.45 76.88 102.26 77.66C103.23 78.58 104.35 79.4 105.24 80.44C106.23 81.58 107 82.91 107.6 84.29C107.96 85.12 108.26 85.96 108.53 86.84C108.94 88.17 109.12 89.61 109.06 91.03C109.01 92.12 108.97 93.26 108.56 94.28C108.49 94.51 108.41 94.73 108.3 94.95C108.12 95.36 107.87 95.56 107.67 95.68C107.46 95.79 107.24 95.8 106.97 95.75C106.85 95.72 106.72 95.71 106.61 95.67C106.24 95.54 106.1 95.06 106.15 94.47C106.17 94.02 106.27 93.62 106.28 93.2C106.3 92.99 106.32 92.79 106.32 92.59C106.32 92.39 106.39 92.21 106.4 92.01C106.5 91.25 106.54 90.51 106.47 89.75C106.38 88.63 106.06 87.44 105.56 86.2L105.62 86.17L105.63 86.18Z" fill="#231F20"/>
<path d="M108.98 95.22C107.32 96.75 105.43 97.98 103.45 98.97C102.74 99.34 102.03 99.72 101.27 100C98.6102 100.98 95.8202 101.44 93.0602 101.52C91.8302 101.52 90.5902 101.52 89.3702 101.39C88.5902 101.31 87.7802 101.24 87.0302 100.94C86.6502 100.81 86.2802 100.64 85.9202 100.46C85.5602 100.27 85.2502 99.96 84.9602 99.68C84.6002 99.3 84.7302 99.26 85.2202 99.18C85.4602 99.14 85.7902 99.07 86.1902 98.94C86.5602 98.86 86.9502 98.82 87.3402 98.85C88.0502 98.85 88.7202 98.98 89.4302 99.04C90.1302 99.11 90.8402 99.13 91.5502 99.13C92.9702 99.12 94.4202 99.05 95.8802 98.9C97.6402 98.73 99.3602 98 100.98 97.24C102.77 96.41 104.47 95.37 105.97 94.08C106.89 93.28 107.75 92.41 108.51 91.45C109.66 90 110.67 88.39 111.31 86.65C111.82 85.3 112.02 83.87 112.17 82.46C112.2 82.15 112.2 81.84 112.25 81.53C112.49 80.39 112.77 80.05 113.51 79.87C113.68 79.83 113.85 79.77 114.01 79.75C114.55 79.68 114.94 80.23 115.09 81.2C115.4 84.06 114.53 87.06 113.15 89.8C112.64 90.82 112.02 91.79 111.34 92.71C110.65 93.62 109.86 94.47 109.05 95.27L109 95.22H108.98Z" fill="#231F20"/>
<path d="M118.86 97.01C118.43 98.45 117.69 99.88 116.76 101.03C115.83 102.2 114.74 103.18 113.59 104.01C111.28 105.66 108.75 106.79 106.2 107.68C104.33 108.33 102.45 108.91 100.54 109.31C97.6102 109.91 94.6602 110.29 91.6702 110.42C90.1802 110.48 88.6802 110.49 87.1402 110.34L86.8502 110.31L86.7102 110.29H86.6402H86.6202C86.6702 109.77 86.6402 110.14 86.6502 110.02L86.6702 109.95C86.7202 109.45 86.4702 109.49 86.7902 109.59C86.8702 109.62 87.0102 109.67 87.1202 109.67C87.2202 109.69 87.4002 109.65 87.3602 109.67C87.3602 109.7 87.3602 109.72 87.3602 109.76C87.3902 109.87 87.4002 109.98 87.4501 110.12C87.4902 110.26 87.5402 110.36 87.6202 110.57C87.7402 110.83 87.8902 111.08 88.0302 111.34L88.5102 112.1L89.1602 112.89L89.5402 113.38C89.6502 113.53 89.8302 113.73 89.8502 113.83C89.9302 114.05 90.1101 114.36 90.0602 114.46C90.0702 114.77 90.0202 114.93 90.1102 115.1C89.8802 115.34 89.2202 115.55 88.3702 115.47C87.4802 115.38 86.4002 115.11 85.3401 114.78C84.8301 114.62 84.2302 114.4 83.7902 114.23L82.7202 113.79C82.0202 113.48 81.3202 113.15 80.6502 112.8C77.1402 111.05 74.0802 108.43 71.6802 105.4C70.9402 104.44 71.3502 104.31 72.3502 104.75C73.3502 105.19 75.0002 106.07 76.7202 107.27C77.8802 108.12 79.1402 108.81 80.3401 109.57C81.5602 110.3 82.8202 110.94 84.1202 111.49L84.6102 111.69L84.8502 111.78L84.8802 111.82C84.9102 111.84 84.9602 111.87 85.0302 111.91C85.0702 111.93 85.2702 112.01 85.2202 111.97C85.2202 111.95 85.2002 111.91 85.2002 111.84C85.1802 111.8 85.1702 111.75 85.1502 111.68C85.1502 111.68 85.1402 111.63 85.1502 111.64L85.0102 111.28C84.9202 111 84.8302 110.73 84.7602 110.38C84.7202 110.24 84.7102 109.98 84.7002 109.77C84.6902 109.69 84.7102 109.49 84.7402 109.33C84.7802 109.15 84.7702 109.06 84.9002 108.78C85.0202 108.54 85.1502 108.32 85.3602 108.14C85.5802 107.95 85.8802 107.79 86.1302 107.72C86.5002 107.63 87.0402 107.67 87.0102 107.68C87.4102 107.74 87.8202 107.78 88.2302 107.82C92.7002 108.14 97.5301 107.31 102.02 106.17C104.5 105.53 106.93 104.69 109.18 103.56C111.41 102.42 113.51 100.97 114.92 99.03C116.64 96.68 117.05 93.47 116.48 90.48C116.06 88.19 115.17 85.95 114.04 83.84C112.91 81.73 111.55 79.73 110.04 77.87C108.88 76.41 107.63 75.05 106.32 73.75C105.67 73.1 105 72.47 104.31 71.86L103.28 70.96L103.15 70.85L103.09 70.8L102.98 70.72L102.76 70.57C102.7 70.54 102.64 70.47 102.57 70.48L102.47 70.7C102.43 70.77 102.4 70.84 102.36 70.9C102.31 70.98 102.34 70.96 102.12 71.21C101.79 71.56 101.41 71.86 101.01 72.07C100.61 72.26 100.23 72.38 99.9102 72.42C99.2602 72.52 98.7902 72.49 98.4102 72.44C97.6602 72.32 97.2602 72.13 96.9302 71.87C96.7802 71.75 96.5902 71.64 96.5002 71.53C96.3602 71.35 96.6002 71.19 97.1602 71.04C97.7002 70.88 98.6402 70.75 99.4802 70.49C99.7802 70.38 99.9902 70.25 100.17 70.07C100.26 69.98 100.35 69.87 100.43 69.75C100.45 69.72 100.47 69.68 100.49 69.65C100.51 69.61 100.52 69.6 100.59 69.5C100.7 69.34 100.79 69.16 100.88 68.97C101.05 68.57 101.28 68.29 101.51 68C101.62 67.81 101.73 67.82 101.85 67.76L102.19 67.62H102.2C102.28 68.19 102.23 67.77 102.24 67.9L102.27 67.89H102.32L102.41 67.85L102.6 67.79C102.73 67.74 102.89 67.72 103.04 67.76C103.35 67.9 103.66 68.13 103.97 68.36L104.83 69.04L105.35 69.46L106.37 70.32C107.04 70.91 107.7 71.51 108.34 72.13C109.63 73.38 110.87 74.69 112.04 76.09C113.19 77.51 114.27 79 115.26 80.57C116.72 82.9 117.98 85.43 118.76 88.21C119.53 90.96 119.77 94.06 118.94 97H118.87L118.86 97.01Z" fill="#231F20"/>
<path d="M80.6501 95.56C81.2001 95.05 81.7301 94.52 82.2701 93.98L83.0801 93.16L83.2801 92.95C83.3601 92.88 83.3801 92.82 83.5401 92.7L84.2201 91.97L84.9501 91.16L85.6801 90.43L86.1301 90.07C86.2801 89.92 86.3301 90.01 86.4301 89.98L86.7001 89.96L86.9701 89.93H87.0401L87.0701 89.92H87.0901C87.1101 89.87 87.0701 89.99 87.0701 89.98H87.0801C87.1401 89.99 87.1701 90 87.2101 90.03C87.4501 90.29 87.6801 90.69 87.7701 91.39C87.8401 92.1 87.8201 92.93 87.7701 93.71C87.7401 94.1 87.7001 94.51 87.6501 94.85L87.5201 95.62C87.3401 96.52 87.1601 97.44 86.7901 98.31C86.5601 98.87 86.2901 99.42 85.9001 99.92C85.5401 100.43 84.9801 100.82 84.3901 101.03C84.0101 101.15 83.9701 100.92 84.0601 100.52C84.1001 100.27 84.1501 100.01 84.1901 99.79C84.2201 99.51 84.2801 99.25 84.4201 99.04C84.9001 98.26 85.0901 97.28 85.3501 96.3C85.4701 95.81 85.5801 95.29 85.6701 94.77C85.7101 94.54 85.7301 94.61 85.7701 94.52C85.8001 94.46 85.8401 94.38 85.8701 94.27C85.9501 94.03 85.9701 93.75 85.9401 93.53C85.9401 93.47 85.9201 93.4 85.8701 93.48L85.7601 93.6L85.5401 93.82L85.4901 93.87L85.2201 94.12L85.0501 94.28L84.6601 94.71L83.0801 96.43C82.4201 97.14 81.7301 97.82 81.0301 98.5C79.9601 99.52 78.7801 100.45 77.5501 101.3C76.6101 101.97 75.6601 102.66 74.6001 103.2C74.3701 103.31 74.1401 103.45 73.9001 103.55C73.6801 103.66 73.4801 103.69 73.3001 103.69C73.1201 103.69 72.9801 103.68 72.8501 103.64C72.7201 103.6 72.6201 103.54 72.5201 103.46C72.4201 103.36 72.3301 103.23 72.2501 103.1C72.1801 102.98 72.0901 102.88 72.0501 102.79C71.9101 102.54 72.1201 101.82 72.6401 101.47C74.2201 100.47 75.7801 99.61 77.2901 98.42C78.4201 97.57 79.5301 96.61 80.5901 95.55L80.6301 95.59L80.6501 95.56Z" fill="#231F20"/>
<path d="M105.94 26.14C106.02 26.42 105.65 26.49 105.02 26.44C104.82 26.42 104.27 26.21 104.21 26.12C104.11 25.94 104.01 25.76 103.95 25.59C103.91 25.49 104.15 24.14 104.23 23.67C104.3 23.22 104.47 22.8 104.65 22.4C105.03 21.58 105.4 20.75 105.82 19.94C105.91 19.76 106.03 19.59 106.17 19.44C106.66 18.92 107.01 18.33 107.32 17.72C107.37 17.62 107.45 17.53 107.43 17.38C107.38 17.14 108.4 15.56 108.6 15.41C109.08 15.01 109.52 14.58 109.98 14.18C110.04 14.12 110.07 14.03 110.2 14.03C110.51 14.03 110.58 13.86 110.71 13.73C110.88 13.54 111.07 13.36 111.29 13.21C111.4 13.14 111.59 13.12 111.75 13.1C111.9 13.08 112.15 13.35 112.16 13.41C112.18 13.57 112.38 13.61 112.5 13.69C112.54 13.72 112.6 13.76 112.63 13.79C112.69 13.86 112.35 15.36 112.26 15.48C112.26 15.48 112.19 15.6 112.08 15.78C111.98 15.95 111.85 16.19 111.72 16.42C111.46 16.9 111.2 17.4 111.16 17.51C111.12 17.62 111 17.69 110.91 17.78C110.85 17.81 110.19 19.31 110.16 19.36C109.96 19.63 109.89 19.97 109.53 20.15C109.46 20.19 109.44 20.25 109.41 20.31C109.17 20.83 108.82 21.3 108.51 21.79C108.35 22.04 108.25 22.32 108.12 22.59C108.1 22.64 108.04 22.67 108.01 22.71C107.96 22.76 107.91 22.81 107.88 22.87C107.61 23.52 107.21 24.1 107.04 24.79C107 24.95 106.46 25.56 106.43 25.75C106.41 25.85 105.91 26.03 105.94 26.14Z" fill="#231F20"/>
<path d="M109.51 29.92C109.35 30.11 109.16 29.81 108.97 29.22C108.91 29.03 108.86 28.44 108.9 28.35C108.98 28.18 109.06 28.01 109.15 27.89C109.21 27.82 110.12 27.44 110.42 27.27C110.71 27.12 111.01 27.05 111.32 26.99C111.94 26.88 112.55 26.73 113.16 26.58C113.3 26.55 113.44 26.54 113.59 26.56C114.1 26.63 114.57 26.51 115.02 26.34C115.09 26.31 115.18 26.3 115.23 26.19C115.31 26.02 116.55 25.63 116.73 25.64C117.18 25.67 117.62 25.63 118.06 25.61C118.12 25.61 118.17 25.55 118.26 25.63C118.47 25.81 118.58 25.73 118.71 25.7C118.89 25.66 119.08 25.62 119.28 25.63C119.38 25.63 119.52 25.73 119.65 25.8C119.77 25.86 119.87 26.22 119.86 26.27C119.83 26.41 119.96 26.54 120.03 26.68C120.05 26.73 120.08 26.79 120.1 26.83C120.13 26.92 119.35 27.94 119.23 27.98C119.21 27.99 117.77 28.75 117.57 28.86C117.49 28.92 117.37 28.89 117.27 28.89C117.23 28.89 116.03 29.49 115.97 29.5C115.7 29.55 115.46 29.72 115.14 29.58C115.08 29.55 115.03 29.58 114.98 29.6C114.54 29.76 114.06 29.79 113.59 29.84C113.35 29.87 113.12 29.95 112.89 30C112.85 30 112.8 29.98 112.75 29.98C112.69 29.98 112.63 29.95 112.58 29.97C112.03 30.11 111.45 30.09 110.91 30.28C110.78 30.33 110.13 30.14 109.99 30.2C109.91 30.23 109.59 29.87 109.53 29.94L109.51 29.92Z" fill="#231F20"/>
<path d="M24.67 54.67C24.95 54.78 24.81 55.13 24.39 55.6C24.26 55.75 23.75 56.05 23.65 56.05C23.45 56.04 23.25 56.02 23.09 55.99C23.02 55.96 22.07 55.18 21.72 54.94C21.37 54.7 21.1 54.4 20.83 54.09C20.28 53.45 19.69 52.81 19.12 52.12C19 51.97 18.89 51.8 18.81 51.61C18.54 50.96 18.14 50.41 17.72 49.86C17.65 49.77 17.6 49.66 17.46 49.62C17.21 49.57 16.25 47.9 16.22 47.64C16.1 47.01 15.94 46.41 15.85 45.79C15.84 45.7 15.77 45.63 15.85 45.52C16.02 45.26 15.91 45.11 15.86 44.93C15.81 44.68 15.77 44.42 15.77 44.15C15.77 44.02 15.87 43.86 15.94 43.71C16.01 43.58 16.38 43.54 16.43 43.56C16.57 43.63 16.72 43.5 16.86 43.45C16.91 43.43 16.97 43.41 17.01 43.4C17.11 43.4 18.1 44.46 18.17 44.57C18.16 44.62 19.11 46.25 19.28 46.39C19.35 46.48 19.36 46.6 19.38 46.72C19.38 46.78 20.36 47.95 20.4 47.99C20.54 48.27 20.82 48.46 20.82 48.85C20.82 48.93 20.87 48.97 20.91 49.02C21.28 49.43 21.55 49.92 21.87 50.38C22.03 50.62 22.25 50.82 22.43 51.04C22.46 51.08 22.47 51.14 22.5 51.19C22.53 51.25 22.55 51.32 22.6 51.37C23.08 51.88 23.45 52.49 24 52.98C24.13 53.1 24.43 53.89 24.57 54.03C24.66 54.11 24.55 54.63 24.66 54.67H24.67Z" fill="#231F20"/>
<path d="M8.54992 59.11C8.38992 59.28 8.25992 58.96 8.13992 58.35C8.09992 58.16 8.10992 57.56 8.15992 57.48C8.24992 57.32 8.33992 57.16 8.42992 57.05C8.48992 56.98 9.36992 56.71 9.66992 56.6C9.95992 56.49 10.2499 56.47 10.5399 56.48C11.1299 56.48 11.7199 56.46 12.3099 56.46C12.4399 56.46 12.5699 56.49 12.6999 56.54C13.1499 56.73 13.5999 56.74 14.0499 56.7C14.1299 56.7 14.1999 56.7 14.2699 56.62C14.3899 56.47 15.6099 56.49 15.7699 56.56C16.1599 56.74 16.5499 56.85 16.9499 56.99C17.0099 57.01 17.0699 56.98 17.1199 57.08C17.2399 57.33 17.3599 57.29 17.4799 57.31C17.6499 57.34 17.8199 57.38 17.9799 57.46C18.0599 57.5 18.1399 57.64 18.2299 57.76C18.2999 57.86 18.2599 58.23 18.2299 58.27C18.1499 58.39 18.2099 58.56 18.2199 58.71C18.2199 58.76 18.2199 58.83 18.2199 58.87C18.2199 58.96 17.2399 59.6 17.1299 59.6C17.0999 59.6 15.6899 59.8 15.5299 59.85C15.4499 59.88 15.3599 59.82 15.2799 59.78C15.2399 59.76 14.1099 59.98 14.0599 59.97C13.8299 59.94 13.5899 60.04 13.3599 59.82C13.3099 59.78 13.2699 59.79 13.2199 59.79C12.8199 59.83 12.4099 59.75 12.0099 59.69C11.7999 59.66 11.5999 59.69 11.3899 59.69C11.3499 59.69 11.3199 59.66 11.2799 59.64C11.2299 59.62 11.1899 59.59 11.1399 59.59C10.6499 59.62 10.1699 59.5 9.67992 59.6C9.56992 59.62 9.02992 59.35 8.89992 59.39C8.82992 59.41 8.58992 59.01 8.52992 59.08L8.54992 59.11Z" fill="#231F20"/>
</svg>
