<svg width="128" height="128" viewBox="0 0 128 128" fill="none" xmlns="http://www.w3.org/2000/svg">
<path d="M69.8598 43.83C68.7598 43.11 67.6798 42.36 66.5898 41.67C66.1898 41.42 65.7798 41.19 65.3698 40.96C63.9598 40.1 62.4998 39.35 60.9398 38.86C60.5998 38.72 60.2498 38.64 59.8898 38.57C59.5298 38.5 59.1798 38.39 58.8198 38.37C57.8998 38.27 56.9698 38.21 56.0298 38.03C55.7298 37.98 55.7698 37.93 56.0198 37.82C56.2698 37.72 56.7298 37.47 57.2998 37.33C59.2898 37.22 61.4098 37.48 63.2098 38.45C64.2998 38.98 65.4298 39.5 66.4798 40.1C67.6298 40.78 68.7298 41.51 69.8398 42.22C70.5198 42.65 71.1998 43.09 71.8898 43.49C72.9398 44.11 73.9998 44.7 75.1098 45.18C75.9598 45.58 76.8498 45.8 77.7198 46.09C77.9198 46.14 78.0998 46.2 78.2998 46.27C79.0098 46.54 79.2098 46.71 79.2998 47C79.3198 47.07 79.3498 47.14 79.3598 47.2C79.3798 47.4 79.0398 47.47 78.4498 47.42C78.0198 47.36 77.5598 47.37 77.1398 47.25C76.7098 47.14 76.2898 47.02 75.8598 46.89C75.4198 46.77 75.0098 46.59 74.5898 46.43C74.1698 46.27 73.7398 46.09 73.3498 45.87C72.1398 45.27 70.9898 44.56 69.8598 43.86L69.8798 43.83H69.8598Z" fill="#231F20"/>
<path d="M52.3701 31.12C54.8601 29.8 57.4001 29.41 59.9301 29.32C60.8501 29.27 61.7701 29.26 62.6801 29.32C65.8801 29.65 69.0001 30.51 71.8301 31.91C72.4601 32.23 73.1001 32.5 73.7101 32.85C74.3201 33.19 74.9601 33.48 75.5301 33.88L76.6501 34.6L77.7101 35.41C78.4101 35.97 78.9501 36.71 79.4701 37.44C79.7901 37.9 79.7101 37.87 79.2201 37.74C78.9701 37.67 78.6201 37.59 78.1801 37.51C77.7601 37.41 77.3101 37.26 76.8401 37.08C75.3701 36.19 73.8801 35.42 72.4101 34.6C70.9101 33.84 69.3701 33.13 67.7601 32.55C65.8301 31.83 63.6801 31.61 61.6101 31.55C59.3301 31.48 57.0101 31.75 54.9101 32.55C53.6501 33 52.5101 33.81 51.5701 34.78C50.8701 35.52 50.2701 36.37 50.0001 37.31C49.8601 37.77 49.7901 38.25 49.8401 38.72C49.8801 39.19 50.0101 39.73 50.1601 40.21C50.6601 41.74 51.7301 42.91 53.0501 43.65C53.3401 43.82 53.6501 43.94 53.9601 44.09C55.1001 44.66 55.4801 44.88 55.6401 45.44C55.6801 45.56 55.7401 45.68 55.7601 45.78C55.8301 46.08 55.1701 46.37 54.0501 46.16C52.3901 45.9 50.6901 44.94 49.4701 43.45C48.8601 42.71 48.3901 41.85 48.0701 40.95C47.9201 40.5 47.7801 40.05 47.6901 39.59C47.5901 39.16 47.5101 38.52 47.5501 38C47.6201 36.35 48.3501 34.94 49.2001 33.81C50.0701 32.67 51.1501 31.78 52.3401 31.07L52.3701 31.12Z" fill="#231F20"/>
<path d="M60.4501 38.54C60.4501 38.54 55.9501 44.49 55.8001 45.72C55.6501 46.95 49.6001 42.9 51.4001 39.66C52.8001 37.14 55.4901 36.06 57.3301 35.99C59.1701 35.92 61.1701 37.44 61.1701 37.44L60.4401 38.55L60.4501 38.54Z" fill="#231F20"/>
<path d="M57.6099 47.38C57.2699 48.86 57.2099 50.29 57.4899 51.8C57.5899 52.35 57.7599 52.88 57.9099 53.41C58.4499 55.28 59.4399 57.05 60.8499 58.46C61.4899 59.07 62.1999 59.63 62.9599 60.08C63.4399 60.38 63.9599 60.64 64.4699 60.89C64.7299 61 64.9799 61.15 65.2199 61.32C65.4699 61.47 65.7099 61.63 65.9699 61.79C66.2799 62 66.1899 62.11 65.8199 62.21C65.6399 62.26 65.3799 62.31 65.0699 62.34C64.7699 62.36 64.3799 62.42 64.0599 62.26C62.8899 61.79 61.7399 61.21 60.7199 60.41C59.7099 59.6 58.8199 58.63 58.1299 57.52C57.2999 56.21 56.5399 54.78 56.1099 53.28C55.6199 51.65 55.4799 49.84 55.7299 48.14C55.8999 47.1 56.1699 46.08 56.5199 45.1C57.0699 43.61 57.8799 42.23 58.8499 40.99C59.5999 40.02 60.4399 39.11 61.4999 38.42C61.7199 38.25 61.9499 38.1 62.2299 38.01C62.4699 37.92 62.6799 37.85 62.8599 37.8C63.0499 37.78 63.1999 37.8 63.3299 37.8C63.5899 37.83 63.7499 37.91 63.8799 38.03C63.9399 38.09 64.0199 38.13 64.0599 38.19C64.1899 38.36 63.8599 38.69 63.3399 39.1C62.5699 39.71 61.7999 40.21 61.1199 40.9C60.4299 41.57 59.8399 42.38 59.3199 43.22C58.5599 44.49 57.9699 45.91 57.6499 47.38H57.6099Z" fill="#231F20"/>
<path d="M57.95 54.36C59.04 56.6 60.88 58.5 63.15 59.75L63.77 60.1L64.42 60.35C64.85 60.52 65.29 60.68 65.74 60.79C67.3 61.26 68.97 61.4 70.6 61.16C72.23 60.91 73.81 60.26 75.11 59.23C76.28 58.32 77.13 57.06 77.72 55.73C78.47 53.96 78.47 52.07 78.79 50.06C78.94 49.42 79.07 49.46 79.49 49.97C79.93 50.46 80.73 51.49 80.72 52.83C80.62 55.15 79.89 57.61 78.29 59.46C76.75 61.35 74.55 62.62 72.26 63.13C69.54 63.75 66.55 63.77 63.91 62.72C61.06 61.58 58.55 59.68 56.82 57.17L56.41 56.6L56.08 55.98C55.87 55.56 55.63 55.16 55.45 54.73C55.14 53.85 54.78 52.99 54.63 52.07C54.04 49.31 54.36 46.4 55.39 43.83C56.22 41.84 57.37 40.01 58.91 38.46C59.27 38.15 59.62 37.84 60 37.54C61.43 36.46 62.13 36.53 62.68 36.83C62.81 36.91 62.96 36.96 63.05 37.05C63.21 37.2 63.18 37.43 63.01 37.74C62.84 38.05 62.56 38.45 62.1 38.78C60.84 39.91 59.64 41.07 58.77 42.5C58.54 42.84 58.3 43.18 58.14 43.57C57.97 43.95 57.76 44.31 57.6 44.69L57.2 45.87C57.05 46.26 57.03 46.68 56.93 47.09C56.76 47.69 56.8 48.32 56.74 48.93C56.71 49.55 56.82 50.17 56.84 50.79C57 51.39 57.06 52.02 57.27 52.61C57.51 53.19 57.65 53.81 57.99 54.34L57.94 54.37L57.95 54.36Z" fill="#231F20"/>
<path d="M63.1701 108.11L69.3101 109.39C70.0601 109.54 70.8201 109.62 71.5601 109.78L75.5001 110.67C76.8201 110.96 78.1901 111.27 79.5301 111.77C80.7201 112.2 81.8701 112.74 82.9201 113.36C83.6001 113.75 84.2701 114.15 84.9101 114.59C85.5501 115.03 86.1701 115.49 86.6101 116.19C86.8201 116.71 86.7401 116.71 86.1601 116.83C85.8701 116.9 85.5001 116.92 85.0601 116.95C84.6501 116.95 84.2601 116.82 83.8801 116.61C82.5701 115.86 81.2501 115.19 79.9801 114.61C78.7301 113.99 77.4101 113.57 75.9101 113.16C74.1201 112.66 72.1601 112.46 70.2901 112.09L64.0901 110.84L60.2801 110.08C58.3501 109.71 56.4201 109.31 54.4901 109.02C52.9901 108.8 51.5001 108.72 50.0101 108.58C49.6801 108.55 49.3601 108.52 49.0301 108.46C47.8101 108.29 47.4901 107.83 47.3101 107.31C47.2701 107.19 47.2101 107.07 47.1901 106.96C47.1601 106.78 47.2801 106.64 47.5301 106.49C47.7801 106.35 48.1601 106.18 48.6301 106.14C50.0001 106.05 51.3801 106.15 52.7601 106.32C54.1501 106.48 55.5401 106.69 56.9401 106.92C59.0201 107.26 61.0901 107.67 63.1701 108.04V108.1V108.11Z" fill="#231F20"/>
<path d="M64.4698 82.12L61.1498 80.07C60.7398 79.84 60.3298 79.61 59.9198 79.38C58.4998 78.53 57.0398 77.78 55.5098 77.22C54.8398 76.93 54.1198 76.79 53.4198 76.61C52.4998 76.47 51.5898 76.34 50.6598 76.12C50.3698 76.05 50.4098 76.01 50.6598 75.91C50.9098 75.82 51.3798 75.6 51.9598 75.49C53.9498 75.49 56.0198 75.87 57.7698 76.86C58.8298 77.42 59.9598 77.91 60.9998 78.51C62.1498 79.16 63.2698 79.85 64.3898 80.52C65.0798 80.92 65.7698 81.34 66.4698 81.72C67.5298 82.3 68.6098 82.86 69.7198 83.32C70.5698 83.7 71.4698 83.91 72.3398 84.19C72.5398 84.24 72.7198 84.3 72.9198 84.37C73.6298 84.64 73.8298 84.8 73.9198 85.1C73.9398 85.17 73.9698 85.24 73.9798 85.3C73.9998 85.5 73.6598 85.57 73.0798 85.53C72.6598 85.48 72.1998 85.48 71.7798 85.37C71.3598 85.26 70.9298 85.15 70.4998 85.02C70.0698 84.91 69.6498 84.74 69.2298 84.59C68.8098 84.43 68.3798 84.28 67.9798 84.07C66.7698 83.5 65.5998 82.85 64.4498 82.18L64.4698 82.15V82.12Z" fill="#231F20"/>
<path d="M86.9702 68.1C87.6702 63.2 88.3502 58.29 88.9602 53.37L89.5802 47.98L90.7802 38.49L92.0202 28.02C92.2502 26.31 92.4802 24.59 92.7202 22.89C92.7702 22.93 92.8202 22.93 92.8802 22.99L93.0902 23.35L93.5202 24.07L94.3702 25.52C94.9202 26.53 95.5602 27.38 96.1202 28.56C96.2802 28.86 96.4302 29.17 96.5802 29.49L96.9402 30.24L97.5202 31.49C97.9002 32.33 98.2502 33.18 98.5702 34.05C99.1602 35.8 99.6402 37.63 99.5902 39.52C99.3202 40.73 99.4202 40.53 98.7602 39.69C98.4002 39.28 98.0102 38.68 97.4902 38.01C97.0202 37.32 96.5802 36.5 96.1702 35.59C95.8402 34.77 95.5202 33.95 95.1702 33.13L94.6202 31.91L94.3402 31.3L94.2202 31.04C94.2202 31.04 94.2202 30.94 94.1802 30.85C94.1602 30.81 94.1402 30.82 94.1202 30.85L94.0702 30.92C94.0702 30.92 94.0602 30.96 94.0502 30.98V31.02C94.0502 31.02 94.0402 31.01 94.0302 31.07L94.0102 31.24C93.7402 33.07 93.4702 34.9 93.2002 36.74C92.5502 41.14 92.1802 45.75 91.6302 50.27C91.0302 55.23 90.3702 60.19 89.6702 65.15C89.2502 68.2 88.8002 71.25 88.3402 74.29C87.6602 78.9 86.8802 83.52 86.1502 88.1C85.5602 91.65 85.0902 95.15 84.4502 98.66C84.3102 99.43 84.1702 100.19 83.9702 100.96C83.1902 103.8 82.7402 104.65 82.2302 105.17C82.1202 105.29 82.0002 105.46 81.9202 105.52C81.6902 105.75 81.5902 104.5 81.8102 102.36C81.8702 101.56 81.9902 100.78 82.0902 99.98C82.1702 99.18 82.2602 98.38 82.4002 97.58C82.6602 95.98 82.9202 94.37 83.1902 92.74C83.7102 89.48 84.2302 86.18 84.7602 82.88C85.5102 77.96 86.2602 73.01 86.9202 68.06H86.9802L86.9702 68.1Z" fill="#231F20"/>
<path d="M67.9 22.89C67.9 22.89 68.21 13.4 75.26 14.61C75.26 14.61 71.63 11.9 68.21 14.59C64.79 17.28 63.77 22.29 63.77 22.29L67.9 22.89Z" fill="#231F20"/>
<path d="M51.46 85.19C51.12 86.67 51.06 88.1 51.34 89.61C51.44 90.16 51.61 90.69 51.76 91.22C52.3 93.09 53.29 94.86 54.7 96.27C55.34 96.88 56.05 97.44 56.81 97.89C57.29 98.19 57.81 98.45 58.32 98.7C58.58 98.81 58.83 98.96 59.07 99.13C59.32 99.28 59.56 99.44 59.82 99.6C60.13 99.81 60.04 99.92 59.67 100.02C59.49 100.07 59.23 100.12 58.92 100.15C58.62 100.17 58.23 100.23 57.91 100.07C56.74 99.6 55.59 99.02 54.57 98.22C53.56 97.41 52.67 96.44 51.98 95.33C51.15 94.02 50.39 92.59 49.96 91.09C49.47 89.46 49.33 87.65 49.58 85.95C49.75 84.91 50.02 83.89 50.37 82.91C50.92 81.42 51.73 80.04 52.7 78.8C53.45 77.83 54.29 76.92 55.35 76.23C55.57 76.06 55.8 75.91 56.08 75.82C56.32 75.73 56.53 75.66 56.71 75.61C56.9 75.59 57.05 75.61 57.18 75.61C57.44 75.64 57.6 75.72 57.73 75.84C57.79 75.9 57.87 75.94 57.91 76C58.04 76.17 57.71 76.5 57.19 76.91C56.42 77.52 55.65 78.02 54.97 78.71C54.28 79.38 53.69 80.19 53.17 81.03C52.41 82.3 51.82 83.72 51.5 85.19H51.46Z" fill="#231F20"/>
<path d="M49.5899 83.45C49.5899 83.45 53.66 76.74 55.08 75.9C56.5 75.06 50.1299 73.02 47.1699 75.52C44.2099 78.02 45.3799 79.72 46.3399 81.15C47.3099 82.58 49.5899 83.46 49.5899 83.46V83.45Z" fill="#231F20"/>
<path d="M90.1402 58.22L88.3802 72.07L87.7702 77.12C86.9402 83.05 86.0602 88.97 85.0802 94.87C84.6702 97.5 84.2602 100.13 83.8502 102.74C83.3302 106.08 82.8402 109.47 81.5002 112.65C81.1202 113.65 81.1402 113.5 81.1002 112.58C81.1002 111.66 80.7002 109.92 80.8702 107.98L81.5902 102.88C81.8502 101.18 82.1202 99.48 82.3802 97.78C82.9202 94.38 83.4402 90.96 84.0302 87.53C84.7502 83.43 85.1702 79.13 85.6902 74.9L87.4002 60.97C87.7302 58.11 88.0602 55.25 88.3902 52.39C88.8602 48.05 89.3602 43.7 89.7402 39.39C90.0402 36.04 90.1502 32.73 90.3902 29.41C90.4402 28.68 90.4802 27.96 90.5302 27.23C90.6702 24.49 91.3202 23.68 91.7902 23.13C91.9102 23.01 92.0102 22.84 92.0902 22.77C92.2302 22.65 92.3302 22.87 92.4902 23.39C92.6502 23.9 92.8502 24.71 92.8902 25.72C92.8402 28.7 92.7602 31.77 92.5202 34.86C92.2902 37.95 92.0002 41.09 91.6902 44.22C91.2302 48.88 90.6902 53.55 90.1602 58.22H90.1002H90.1402Z" fill="#231F20"/>
<path d="M56.1101 106.85L64.2401 108.16C65.2301 108.31 66.2301 108.39 67.2201 108.55C70.7101 109.11 74.2001 109.69 77.6901 110.21C78.9701 110.39 80.2401 110.56 81.5101 110.74C81.7101 110.97 81.9001 111.21 82.1001 111.43L82.5001 111.86C83.8401 113.32 85.3801 114.52 86.5701 116.1C86.9201 116.63 86.7601 116.76 86.0601 116.81C85.7201 116.82 85.1701 116.89 84.6901 116.72C84.1901 116.58 83.6601 116.34 83.1801 115.96C82.5801 115.45 82.0101 114.91 81.4601 114.37L80.6401 113.54L80.2701 113.15C80.5401 113.15 79.5701 113.05 78.9901 112.97C78.3501 112.9 77.7101 112.79 77.0801 112.69C75.8101 112.48 74.5301 112.24 73.2601 111.98C70.8401 111.48 68.2801 111.29 65.7901 110.94L57.5701 109.71L52.5101 108.93L48.6801 108.3L46.7601 107.97L45.7401 107.79C45.3001 107.69 44.8201 107.63 44.4701 107.43C44.3801 107.38 44.3201 107.31 44.2401 107.25C44.2201 107.23 44.2001 107.22 44.1901 107.2V107.18H44.1701L44.1101 107.23V107.19L44.0501 107.05C43.9801 106.87 43.9201 106.68 43.9001 106.45C43.8601 105.5 43.8101 104.55 43.7701 103.61C43.7401 102.77 43.7401 101.94 43.7501 101.11C43.7501 100.67 43.7501 100.24 43.7701 99.8C43.7901 99.39 43.8301 99.05 43.8801 98.77C43.9401 98.49 44.0401 98.27 44.1301 98.08C44.2301 97.9 44.3201 97.76 44.4401 97.64C44.5701 97.53 44.7101 97.44 44.8501 97.37C44.9701 97.3 45.0801 97.21 45.1701 97.17C45.3901 97.04 45.9101 97.76 46.0801 98.94C46.1401 100.11 46.2001 101.29 46.2601 102.49C46.2801 103.09 46.3001 103.68 46.3201 104.28L46.3501 105.17C46.3501 105.38 46.3601 105.29 46.3601 105.34C46.3601 105.37 46.3701 105.37 46.3701 105.37C46.3801 105.37 46.4001 105.37 46.4001 105.37L47.9501 105.61C50.6701 106.01 53.4101 106.41 56.1301 106.81V106.88L56.1101 106.85Z" fill="#231F20"/>
<path d="M94.7398 62.19C95.7398 55.25 96.7098 48.29 97.5398 41.34C97.6998 40.07 97.8098 38.81 97.9198 37.55C97.9398 37.24 97.9398 37.07 97.9698 36.83C97.9998 36.7 97.9698 36.63 97.9498 36.57C97.9098 36.47 97.8798 36.36 97.8198 36.24C97.5998 35.75 97.2898 35.19 96.9898 34.64C96.1098 33.03 95.1798 31.38 94.3398 29.71C93.9098 28.87 93.4998 28.03 93.0998 27.18L92.5098 25.9L92.0098 24.74C91.9798 24.62 91.8798 24.56 91.7698 24.52L91.6698 24.49L91.4698 24.44L91.0298 24.35C90.4298 24.25 89.7798 24.18 89.1398 24.13C87.8398 24.03 86.5198 23.97 85.1998 23.93C82.5598 23.85 79.8998 23.82 77.2398 23.79C73.2298 23.73 69.1998 23.72 65.2098 23.6C62.6498 23.52 60.0698 23.41 57.4898 23.14C56.1998 22.99 54.9198 22.77 53.6398 22.48C52.3698 22.18 51.0698 21.82 49.9298 21.05C49.2398 20.53 49.0398 20.2 49.0898 20.17C49.1598 20.12 49.5198 20.32 50.1998 20.41C51.5698 20.58 53.9598 20.63 56.8198 20.85C61.8898 21.38 67.0898 21.46 72.2898 21.53C77.4998 21.59 82.7198 21.61 88.0398 21.95C88.9098 22.01 89.7798 22.08 90.6798 22.2C91.1298 22.26 91.5898 22.33 92.0898 22.45C92.6898 22.59 93.5198 22.92 93.7898 23.62L94.5598 25.33C94.7998 25.85 95.0498 26.37 95.3098 26.89C95.8198 27.93 96.3598 28.96 96.9198 29.98L98.6398 33.04C98.9298 33.55 99.2198 34.07 99.5098 34.62C99.6498 34.89 99.7898 35.18 99.9198 35.5C100.04 35.79 100.22 36.3 100.17 36.64L100.15 37.47C100.14 37.74 100.11 37.93 100.09 38.16L99.9598 39.5L99.6598 42.15L99.0098 47.43L97.6098 57.96C96.9998 62.27 96.3898 66.59 95.7798 70.9C94.7998 77.42 93.8198 83.98 92.8498 90.46C92.0798 95.49 91.4498 100.45 90.6098 105.43C90.4198 106.53 90.2898 107.6 90.0598 108.71C89.1998 112.78 88.6198 114.04 87.8598 114.76C87.6898 114.92 87.4998 115.15 87.3498 115.23C86.8298 115.48 86.9398 113.78 87.4098 110.82C88.7698 101.94 90.1998 92.61 91.6298 83.24C92.6698 76.26 93.6998 69.24 94.6698 62.22H94.7298L94.7398 62.19Z" fill="#231F20"/>
<path d="M59.3201 113.03L64.2701 114.01C64.8701 114.12 65.4901 114.17 66.0901 114.29C68.2101 114.74 70.3301 115.2 72.4501 115.65C73.3901 115.87 74.3401 116.02 75.2801 116.17C75.8901 116.25 76.4901 116.37 77.0901 116.5L77.5401 116.61L77.9801 116.79C78.2701 116.91 78.5601 117.03 78.8601 117.16C79.2201 117.33 79.1701 117.34 78.8201 117.47C78.6501 117.54 78.4001 117.64 78.1001 117.78C77.9301 117.86 77.7701 117.93 77.6201 117.99C77.5301 118.03 77.4501 118.05 77.3601 118.1L77.1001 118.12C75.8201 118.21 74.5701 118.12 73.3201 118C72.0701 117.92 70.8401 117.62 69.6101 117.3C68.1401 116.91 66.5701 116.82 65.0501 116.53L60.0401 115.56L56.9601 114.95C55.4001 114.65 53.8401 114.33 52.2901 114.06C51.0801 113.85 49.8801 113.76 48.6701 113.59C48.4001 113.55 48.1401 113.53 47.8701 113.47C46.8901 113.25 46.6101 112.96 46.5201 112.45C46.5001 112.33 46.4601 112.22 46.4601 112.12C46.4501 111.79 46.9301 111.53 47.6601 111.51C49.8201 111.53 52.0701 111.74 54.3201 112.08C55.9801 112.37 57.6601 112.66 59.3201 112.95V113.01V113.03Z" fill="#231F20"/>
<path d="M51.9398 92.17C53.0298 94.41 54.8698 96.31 57.1398 97.56L57.7598 97.91L58.4098 98.16C58.8398 98.33 59.2798 98.49 59.7298 98.6C61.2898 99.07 62.9598 99.21 64.5898 98.97C66.2198 98.72 67.7998 98.07 69.0998 97.04C70.2698 96.13 71.1198 94.87 71.7098 93.54C72.4598 91.77 72.4598 89.88 72.7798 87.87C72.9298 87.23 73.0598 87.27 73.4798 87.78C73.9198 88.27 74.7198 89.3 74.7098 90.64C74.6098 92.96 73.8798 95.42 72.2798 97.27C70.7398 99.16 68.5398 100.43 66.2498 100.94C63.5298 101.56 60.5398 101.58 57.8998 100.53C55.0498 99.39 52.5398 97.49 50.8098 94.98L50.3998 94.41L50.0698 93.79C49.8598 93.37 49.6198 92.97 49.4398 92.54C49.1298 91.66 48.7698 90.8 48.6198 89.88C48.0298 87.12 48.3498 84.21 49.3798 81.64C50.2098 79.65 51.3598 77.82 52.8998 76.27C53.2598 75.96 53.6098 75.65 53.9898 75.35C55.4198 74.27 56.1198 74.34 56.6698 74.64C56.7998 74.72 56.9498 74.77 57.0398 74.86C57.1998 75.01 57.1698 75.24 56.9998 75.55C56.8298 75.86 56.5498 76.26 56.0898 76.59C54.8298 77.72 53.6298 78.88 52.7598 80.31C52.5298 80.65 52.2898 80.99 52.1298 81.38C51.9598 81.76 51.7498 82.12 51.5898 82.5L51.1898 83.68C51.0398 84.07 51.0198 84.49 50.9198 84.9C50.7498 85.5 50.7898 86.13 50.7298 86.74C50.6998 87.36 50.8098 87.98 50.8298 88.6C50.9898 89.2 51.0498 89.83 51.2598 90.42C51.4998 91 51.6398 91.62 51.9798 92.15L51.9298 92.18L51.9398 92.17Z" fill="#231F20"/>
<path d="M54.6802 73.78C57.0202 74.44 59.1202 75.6 61.0302 76.88C61.7402 77.34 62.4402 77.78 63.1202 78.27C65.4602 80.02 67.6602 81.83 70.0902 83.19C70.6302 83.49 71.2002 83.7 71.7602 83.95C72.3402 84.12 72.9202 84.3 73.5102 84.41C74.2702 84.5 75.0302 84.59 75.7902 84.53C76.5602 84.59 77.3102 84.47 78.1502 84.56C78.6702 84.6 78.6502 84.72 78.2902 85.07C77.9302 85.38 77.2502 86.3 76.1902 86.37C75.7302 86.45 75.2702 86.5 74.8102 86.5L73.4302 86.36C72.9602 86.34 72.5302 86.19 72.0802 86.08C71.6402 85.95 71.1802 85.86 70.7702 85.67C69.0502 85.05 67.5802 84.07 66.2002 83.02C64.5802 81.75 62.8602 80.57 61.2002 79.41C59.3802 78.14 57.5202 76.96 55.5002 76.17C54.8702 75.97 54.2402 75.75 53.6002 75.57C52.9502 75.46 52.2902 75.29 51.6502 75.24C50.7002 75.14 49.7102 75.29 48.8002 75.59C47.9002 75.9 47.0302 76.41 46.4902 77.11C46.0602 77.65 45.8802 78.29 46.0802 78.85C46.0802 79 46.2102 79.12 46.2602 79.26L46.3602 79.46C46.4102 79.52 46.4702 79.58 46.5202 79.64L46.8402 80.01L47.2502 80.33C47.3702 80.42 47.4802 80.52 47.6202 80.6L48.0402 80.84C49.0402 81.5 49.4102 81.71 49.4402 82.31C49.4602 82.43 49.5002 82.55 49.5002 82.65C49.5302 82.93 48.8502 83.12 47.8602 82.78C47.1302 82.49 46.4002 82.14 45.7202 81.56C45.3602 81.33 45.0702 80.9 44.7602 80.55C44.6102 80.36 44.5102 80.1 44.3902 79.86C44.2702 79.62 44.1702 79.37 44.1402 79.08C44.1002 78.8 44.0202 78.51 44.0602 78.23C44.0902 77.95 44.1302 77.66 44.1802 77.37C44.3602 76.85 44.5802 76.33 44.9002 75.94C45.5102 75.1 46.2802 74.52 47.1002 74.11C48.3102 73.49 49.6302 73.18 50.9702 73.14L51.9802 73.18C52.3002 73.21 52.5902 73.28 52.9002 73.33C53.5002 73.45 54.1202 73.5 54.7002 73.71V73.76L54.6802 73.78Z" fill="#231F20"/>
<path d="M46.8401 68.05C47.3701 67.67 48.0501 67.3 48.7001 67.07C49.3301 66.85 49.9701 66.64 50.6101 66.53C51.8801 66.25 53.1501 66.2 54.4001 66.19L55.7601 66.22C56.2101 66.24 56.6601 66.29 57.1101 66.34C60.2601 66.79 63.2401 67.86 65.9901 69.29L67.8001 70.28C68.3801 70.65 69.0001 70.96 69.5501 71.36C70.2601 71.88 70.9901 72.36 71.6401 72.96C72.2901 73.55 72.8101 74.3 73.2701 75.05C73.5601 75.52 73.4801 75.49 73.0001 75.33C72.7601 75.25 72.4101 75.16 71.9901 75.06C71.5901 74.94 71.1401 74.79 70.6901 74.59C69.3101 73.63 67.8401 72.87 66.4401 71.99C65.0001 71.16 63.4901 70.47 61.9401 69.78C60.0801 68.98 57.9701 68.66 55.9401 68.5C53.7101 68.31 51.4201 68.52 49.4201 69.3C48.3001 69.79 47.2101 70.73 46.3101 71.74C45.6201 72.51 45.0201 73.37 44.6501 74.29C44.4401 74.75 44.3501 75.22 44.3001 75.68C44.3001 76.16 44.3301 76.51 44.5301 77.04C45.0601 78.57 45.9801 79.88 47.1701 80.74C47.4301 80.93 47.7101 81.08 47.9901 81.24C49.0201 81.87 49.3901 82.07 49.5401 82.63C49.5801 82.75 49.6401 82.87 49.6601 82.97C49.7301 83.27 49.0701 83.57 47.9401 83.31C46.2501 82.96 44.6901 81.7 43.6801 80.21C43.1701 79.46 42.7701 78.65 42.4601 77.82C42.3801 77.6 42.3101 77.45 42.2401 77.16C42.1801 76.88 42.0901 76.58 42.0701 76.3C42.0101 75.73 42.0601 75.18 42.1501 74.66C42.4601 73.15 43.1401 71.91 43.9401 70.83C44.7401 69.74 45.6901 68.81 46.8101 68.02L46.8501 68.07L46.8401 68.05Z" fill="#231F20"/>
<path d="M68.64 12.89C70.13 12.16 71.97 12.05 73.48 12.49C73.76 12.54 74.05 12.63 74.35 12.74C74.65 12.83 74.92 12.97 75.18 13.13C77.03 14.32 77.91 16.21 78.36 17.95C78.53 18.75 78.7 19.53 78.79 20.32C78.86 20.83 78.87 21.34 78.81 21.85C78.79 22.1 78.74 22.36 78.65 22.61C78.56 22.86 78.42 23.09 78.29 23.32C78.12 23.61 77.92 23.51 77.62 23.21C77.47 23.06 77.28 22.86 77.09 22.64C76.99 22.53 76.87 22.41 76.79 22.3C76.73 22.18 76.68 22.07 76.66 21.95C76.43 21.1 76.32 20.29 76.14 19.49C75.93 18.7 75.78 17.9 75.51 17.13C75.18 16.19 74.37 15.57 73.59 15.22C72.68 14.85 71.54 14.68 70.53 14.99C69.89 15.15 69.26 15.48 68.68 15.91C67.81 16.57 67.01 17.45 66.42 18.45C65.93 19.21 65.75 20.12 65.35 20.92C65.27 21.1 65.21 21.28 65.11 21.46C64.92 21.78 64.75 21.98 64.58 22.1C64.38 22.21 64.19 22.25 63.98 22.25C63.88 22.25 63.79 22.27 63.71 22.27C63.58 22.26 63.49 22.16 63.4 21.98C63.31 21.8 63.19 21.51 63.22 21.21C63.15 19.32 63.99 17.58 65.12 15.95C65.98 14.75 67.11 13.62 68.6 12.84L68.63 12.9L68.64 12.89Z" fill="#231F20"/>
<path d="M48.6001 53.79C48.5001 54.82 48.4201 55.87 48.3501 56.91C48.3301 57.29 48.3701 57.67 48.3501 58.06C48.2401 59.41 48.0601 60.77 47.9601 62.12C47.9101 62.72 47.9101 63.32 47.9001 63.92C47.9101 64.69 47.8101 65.45 47.6301 66.21C47.5701 66.45 47.3901 66.41 47.1801 66.21C46.9801 66 46.6801 65.63 46.5901 65.19C46.3901 64.41 46.3701 63.65 46.3501 62.87C46.3301 62.1 46.3301 61.32 46.4001 60.54C46.4801 59.6 46.3101 58.64 46.3101 57.68C46.3101 56.63 46.3201 55.56 46.3401 54.5L46.4001 52.54C46.4301 51.55 46.5301 50.55 46.5401 49.56C46.5501 48.79 46.4201 48.03 46.4501 47.26C46.4501 47.09 46.4301 46.92 46.4801 46.76C46.6101 46.14 46.9001 45.97 47.3301 45.89C47.4301 45.87 47.5301 45.84 47.6301 45.84C47.9401 45.82 48.2201 46.11 48.4401 46.57C48.7101 47.26 48.8001 47.94 48.8601 48.62C48.8801 49.3 48.8601 49.99 48.8401 50.68C48.8101 51.71 48.7401 52.74 48.6801 53.79H48.6201H48.6001Z" fill="#231F20"/>
<path d="M44.1202 17.72C44.3102 17.8 44.1402 18.03 43.7502 18.33C43.6202 18.43 43.1902 18.61 43.1102 18.61C42.9602 18.59 42.8102 18.57 42.7002 18.54C42.6402 18.52 42.0902 17.94 41.8802 17.77C41.6802 17.6 41.5302 17.39 41.4002 17.17C41.1202 16.73 40.8102 16.31 40.5002 15.88C40.4302 15.78 40.3802 15.67 40.3502 15.55C40.2302 15.13 40.0002 14.8 39.7202 14.49C39.6702 14.44 39.6402 14.37 39.5402 14.36C39.3802 14.34 38.7102 13.43 38.6602 13.28C38.5502 12.9 38.4002 12.55 38.2802 12.19C38.2602 12.14 38.2102 12.11 38.2502 12.02C38.3502 11.81 38.2502 11.74 38.2002 11.64C38.1202 11.5 38.0602 11.35 38.0202 11.18C38.0002 11.1 38.0502 10.97 38.0802 10.85C38.1102 10.75 38.3702 10.61 38.4102 10.61C38.5302 10.61 38.6102 10.49 38.7102 10.42C38.7402 10.39 38.7902 10.36 38.8202 10.35C38.8902 10.32 39.8102 10.74 39.8702 10.82C39.8702 10.82 40.1002 11.07 40.3502 11.32C40.5902 11.57 40.8502 11.83 40.9102 11.88C40.9702 11.93 40.9802 12.02 41.0102 12.1C41.0202 12.14 41.8002 12.87 41.8202 12.91C41.9302 13.1 42.1302 13.23 42.1202 13.51C42.1202 13.57 42.1502 13.6 42.1802 13.63C42.4302 13.92 42.6002 14.27 42.7902 14.61C42.8902 14.78 43.0202 14.93 43.1302 15.1C43.1502 15.13 43.1502 15.17 43.1602 15.21C43.1702 15.26 43.1802 15.31 43.2002 15.34C43.4802 15.72 43.6502 16.17 43.9702 16.54C44.0502 16.62 44.1202 17.19 44.2002 17.29C44.2502 17.35 44.0702 17.7 44.1502 17.73L44.1202 17.72Z" fill="#231F20"/>
<path d="M38.3399 20.5C38.4899 20.41 38.4899 20.67 38.3999 21.16C38.3699 21.31 38.2099 21.76 38.1599 21.81C38.0599 21.91 37.9599 22.01 37.8799 22.07C37.8299 22.11 37.1999 22.12 36.9799 22.14C36.7699 22.16 36.5799 22.11 36.3999 22.04C36.0299 21.91 35.6499 21.8 35.2699 21.67C35.1899 21.64 35.1099 21.59 35.0399 21.52C34.8099 21.28 34.5299 21.17 34.2299 21.11C34.1799 21.1 34.1399 21.07 34.0699 21.12C33.9599 21.21 33.1899 20.93 33.1099 20.84C32.9099 20.62 32.6899 20.45 32.4799 20.26C32.4499 20.23 32.3999 20.25 32.3999 20.15C32.3999 19.94 32.2999 19.94 32.2299 19.9C32.1299 19.84 32.0399 19.78 31.9499 19.68C31.9099 19.63 31.8899 19.51 31.8699 19.4C31.8499 19.31 31.9699 19.04 31.9999 19.01C32.0799 18.94 32.0899 18.79 32.1199 18.68C32.1299 18.64 32.1499 18.59 32.1599 18.56C32.1899 18.49 32.9699 18.22 33.0399 18.25C33.0599 18.25 33.9999 18.41 34.1199 18.41C34.1799 18.41 34.2199 18.47 34.2599 18.52C34.2799 18.54 35.0499 18.62 35.0799 18.64C35.2199 18.71 35.3999 18.69 35.4799 18.91C35.4999 18.95 35.5299 18.95 35.5599 18.96C35.8299 19.02 36.0599 19.17 36.2999 19.3C36.4199 19.37 36.5599 19.39 36.6899 19.43C36.7099 19.43 36.7299 19.47 36.7499 19.49C36.7699 19.51 36.7999 19.55 36.8299 19.56C37.1499 19.64 37.4199 19.84 37.7599 19.87C37.8399 19.87 38.0999 20.2 38.1999 20.2C38.2499 20.2 38.2899 20.55 38.3499 20.52L38.3399 20.5Z" fill="#231F20"/>
<path d="M39.7998 28.66C39.9998 28.54 40.1498 28.8 40.2298 29.3C40.2598 29.46 40.1998 29.93 40.1498 29.99C40.0398 30.11 39.9398 30.23 39.8298 30.31C39.7698 30.35 38.8398 30.53 38.5198 30.64C38.2198 30.73 37.9098 30.77 37.5998 30.78C36.9598 30.82 36.3198 30.9 35.6698 30.97C35.5198 30.99 35.3798 30.97 35.2198 30.95C34.6998 30.85 34.1898 30.9 33.6798 30.98C33.5898 30.99 33.4998 30.98 33.4298 31.07C33.3098 31.21 31.8698 31.29 31.6698 31.23C31.1298 31.1 30.7198 30.99 30.2498 30.87C30.1798 30.85 30.1098 30.87 30.0498 30.79C29.9198 30.58 29.7798 30.6 29.6298 30.57C29.4298 30.54 29.2298 30.47 29.0398 30.37C28.9498 30.32 28.8698 30.2 28.7898 30.09C28.7198 30 28.8198 29.71 28.8598 29.69C28.9598 29.61 28.9198 29.46 28.9298 29.34C28.9298 29.3 28.9398 29.25 28.9498 29.21C28.9798 29.15 30.0498 28.77 30.1498 28.77C30.1498 28.77 30.2498 28.77 30.3998 28.76C30.5398 28.75 30.7398 28.73 30.9298 28.72C31.3298 28.67 31.7398 28.61 31.8298 28.59C31.9198 28.57 32.0098 28.61 32.0998 28.63C32.1398 28.65 33.3498 28.38 33.4098 28.38C33.6698 28.38 33.9198 28.27 34.1898 28.42C34.2398 28.45 34.2998 28.43 34.3498 28.42C34.7998 28.34 35.2498 28.36 35.7198 28.35C35.9498 28.35 36.1898 28.3 36.4198 28.28C36.4598 28.28 36.5098 28.3 36.5498 28.31C36.5998 28.31 36.6598 28.34 36.7098 28.33C37.2698 28.26 37.8398 28.32 38.4198 28.22C38.5498 28.19 39.1898 28.41 39.3498 28.39C39.4398 28.37 39.7098 28.7 39.7898 28.66H39.7998Z" fill="#231F20"/>
<path d="M60.5202 35.43C62.8902 36.06 65.0502 37.17 67.0102 38.46C67.7402 38.92 68.4502 39.38 69.1202 39.88C71.4802 41.69 73.6102 43.64 76.0102 45.12C76.5302 45.48 77.1102 45.69 77.6602 45.96C78.2302 46.2 78.8202 46.33 79.4002 46.5C80.1702 46.58 80.9202 46.71 81.6902 46.66C82.4602 46.73 83.2302 46.61 84.0702 46.69C84.5902 46.73 84.5702 46.85 84.2102 47.2C83.8502 47.51 83.1502 48.44 82.0802 48.5C81.6202 48.57 81.1402 48.64 80.6702 48.61L79.2602 48.45C78.7802 48.41 78.3502 48.23 77.9002 48.11L77.2302 47.91L76.6002 47.63C74.8802 46.93 73.4402 45.87 72.1202 44.75C70.5402 43.41 68.8502 42.15 67.2002 40.98C65.3902 39.68 63.4902 38.55 61.4302 37.82C60.1802 37.38 58.8102 37.07 57.5302 36.98C55.6402 36.9 53.5202 37.7 52.4102 39.17C52.0002 39.73 51.7702 40.4 51.9402 40.99C52.1102 41.57 52.4402 42.12 53.0202 42.54L53.3702 42.83C53.5102 42.91 53.6502 42.99 53.7902 43.07C54.7802 43.75 55.1602 43.95 55.1902 44.56C55.2102 44.68 55.2502 44.8 55.2502 44.9C55.2802 45.18 54.6002 45.37 53.5902 45.02C52.8502 44.72 52.1202 44.33 51.4402 43.72C51.0802 43.46 50.8102 43.01 50.5102 42.63C50.3802 42.41 50.2902 42.15 50.1802 41.91L50.0402 41.53L49.9802 41.12C49.9602 40.84 49.9002 40.55 49.9402 40.28C49.9802 40.01 50.0302 39.73 50.0902 39.46C50.2702 38.97 50.4702 38.44 50.7802 38.06C51.3502 37.21 52.1002 36.63 52.8802 36.13C54.0602 35.43 55.3702 35.04 56.7202 34.94C58.1502 34.83 59.3302 35.16 60.5402 35.36V35.41L60.5202 35.43Z" fill="#231F20"/>
</svg>
