<svg width="128" height="128" viewBox="0 0 128 128" fill="none" xmlns="http://www.w3.org/2000/svg">
<path d="M94.4401 13.5C94.6855 13.1574 95.0554 12.9246 95.4705 12.8517C95.8855 12.7788 96.3127 12.8715 96.6601 13.11C99.7101 15.66 91.2601 17.3 94.4401 13.5Z" stroke="#231F20" stroke-width="1.2" stroke-miterlimit="10"/>
<path d="M16.32 42.4699C15.9693 42.7038 15.5413 42.7919 15.1268 42.7153C14.7123 42.6388 14.344 42.4037 14.1 42.0599C12.14 38.5999 20.63 39.9999 16.32 42.4699Z" stroke="#231F20" stroke-width="1.2" stroke-miterlimit="10"/>
<path d="M108.41 27.78C108.655 27.4374 109.025 27.2046 109.44 27.1317C109.855 27.0588 110.283 27.1515 110.63 27.39C113.67 29.94 105.23 31.58 108.41 27.78Z" fill="#231F20"/>
<path d="M75.7302 29.84C76.2902 29.98 76.8401 30.14 77.3901 30.31L78.2001 30.57H78.2901H78.3501L89.4102 24L100.75 33.46L102.75 35.07C101.463 38.2033 100.17 41.3267 98.8702 44.44L98.2701 45.86L98.7302 46.57C99.0002 47 99.2601 47.44 99.5201 47.88C99.7802 48.32 100.02 48.76 100.26 49.21L100.58 49.84L100.67 50.04L112.94 52.27L115.21 69.27L112.93 70.47L108 73.1L103.53 75.5L103.47 75.85L103.32 76.59C103.22 77.0767 103.11 77.5667 102.99 78.06C102.87 78.55 102.74 79.06 102.6 79.52L102.23 80.75L102.16 80.95L109.54 89.95L106.16 94.51C105.173 95.8433 104.173 97.1333 103.16 98.38C101.76 100.13 101.44 99.52 102.08 97.64C102.555 96.386 103.124 95.1692 103.78 94C104.18 93.28 104.63 92.51 105.13 91.72L105.93 90.5L106.14 90.2L106.24 90.05L99.3302 81.51L99.8602 80L100.11 79.19C100.26 78.7 100.4 78.19 100.53 77.71C100.66 77.23 100.78 76.71 100.89 76.22L101.05 75.46L101.34 73.93L107.75 70.56L110.62 69L112.06 68.25L112.42 68.07H112.5H112.58L111.11 55.99L111 54.67V54.24H110.8H110.69L110.36 54.18L108.86 53.91L105.86 53.37L99.1002 52.14L98.5502 51L98.1902 50.32C97.9602 49.9 97.7302 49.48 97.4802 49.07C97.2302 48.66 96.9902 48.25 96.7302 47.85L96.2802 47.17L95.5702 46.17L98.2402 39.75L99.9002 35.81L89.2102 26.9L81.7101 31.38L78.6301 33.22L77.5601 32.84L76.8702 32.62L75.4901 32.22L74.1001 31.88L73.3901 31.73L72.2901 31.52L67.5301 23C67.0901 22.2 66.6402 21.41 66.1902 20.61L52.7101 22.42C52.2001 25.53 51.7101 28.61 51.2101 31.67C51.0702 32.58 50.9201 33.49 50.7801 34.38L49.7801 34.87L49.0902 35.23C48.6502 35.47 48.2201 35.72 47.8001 35.97C47.3801 36.22 46.9601 36.49 46.5501 36.76L45.9302 37.19L45.0202 37.83L33.5802 34.34L33.4502 34.52L30.8901 38C27.3701 42.64 26.1101 44 24.8401 44.62C24.5733 44.7739 24.2919 44.9012 24.0001 45C23.2701 45.14 24.3901 43 26.8801 39.53C27.7301 38.34 28.6001 37.15 29.4701 35.94L30.7802 34.13L32.7202 31.54L44.6602 35.22L45.2702 34.81C45.7102 34.52 46.1602 34.25 46.6102 33.98C47.0602 33.71 47.5202 33.44 47.9902 33.19L48.6402 32.85C49.2801 28.79 49.9401 24.67 50.6402 20.54V20.36L67.4802 18L73.8401 29.32L74.4301 29.44L75.7401 29.75L75.7302 29.84Z" fill="#231F20"/>
<path d="M53.6699 104.24L52.9199 104H52.8499L42.8499 111.41L33.1499 103.41L29.5699 100.49L32.5099 94.5799L34.8999 89.8799L34.3299 88.9699C34.0299 88.4699 33.7299 87.9699 33.4399 87.4699C33.1499 86.9699 32.8699 86.4699 32.5999 85.9299L32.1999 85.1499L32.0599 84.8499L19.9999 82.2699L18.8999 74.1899C18.5599 71.7599 18.2299 69.3299 17.8999 66.9199L24.9999 62.7399L28.7499 60.4999L28.7999 60.1699L28.9499 59.4099C29.0499 58.9099 29.1599 58.4099 29.2899 57.8999C29.4199 57.3899 29.5499 56.8999 29.6999 56.4099L30.0099 55.4099L28.1599 52.6999C27.4599 51.6999 26.7599 50.5999 26.0899 49.5399C25.0899 47.9699 25.6899 47.7899 27.0299 48.6899C27.9264 49.3144 28.7573 50.028 29.5099 50.8199C29.9799 51.2899 30.5099 51.8199 30.9599 52.4099C31.6747 53.235 32.3424 54.0997 32.9599 54.9999L32.6299 55.9999L32.3299 56.9099L32.1399 57.5399C32.0199 57.9599 31.8999 58.3899 31.7999 58.8099C31.6999 59.2299 31.5899 59.6699 31.4999 60.0899L31.3599 60.7999L31.1199 62.1499L24.9999 65.6399L22.2999 67.1899L20.9999 67.9999L20.6599 68.1899C20.5599 68.2499 20.6599 68.1899 20.5999 68.1899C20.8599 70.1899 21.1099 72.1899 21.3699 74.1899L21.8099 77.7299C21.9399 78.7899 22.1599 80.5299 22.0999 80.2999H22.1999H22.2599H22.4199L23.7499 80.5899L26.4099 81.1799L29.6899 81.8899L33.5899 82.6899L34.2099 83.9499L34.5899 84.6799C34.8499 85.1699 35.1299 85.6799 35.4099 86.1399C35.6899 86.5999 35.9799 87.1399 36.2799 87.5799L36.7599 88.3199L37.5799 89.5199L33.0699 98.6099L32.5199 99.6799L42.9199 108.3L48.9199 103.84L52.4199 101.23L53.7299 101.67L54.5999 101.95L56.3599 102.45L58.1399 102.9L59.0299 103.11L60.3399 103.37L62.3399 107.69L65.3399 114.26C69.2499 113.76 76.0299 112.85 79.9199 112.26V112.18L81.6999 100.36L82.6999 99.8199L83.3899 99.4499C83.8199 99.2099 84.2499 98.9599 84.6699 98.6999L85.9199 97.8999L86.5399 97.4699L87.5399 96.7499H87.6299L91.8799 98.0299C96.6199 99.5199 98.0699 100.16 98.8799 101.1C99.081 101.291 99.2619 101.502 99.4199 101.73C99.7199 102.35 97.6699 102.12 94.1599 101.14L87.9999 99.5399L87.9199 99.6299L87.2899 100.06C86.8599 100.35 86.4099 100.64 85.9599 100.92C85.5099 101.2 85.0499 101.46 84.5899 101.72L83.9299 102.08V102.14L83.8399 102.79L83.6099 104.27C83.4599 105.27 83.2999 106.27 83.1499 107.27C82.7699 109.657 82.3866 112.057 81.9999 114.47L72.6699 115.77L63.8799 117L58.6699 105.6L58.0199 105.46L56.5599 105.11C55.5599 104.86 54.6399 104.6 53.6899 104.31L53.6699 104.24Z" fill="#231F20"/>
<path d="M29.0001 99.0499L31.8201 93.0499L32.8201 90.8399L33.1 90.2299L33.17 90.0799V89.9999L31.4101 86.0999L31.13 85.9999L30.5601 85.8999L29.4101 85.6899C28.1701 85.4599 26.9101 85.2699 25.6701 85.0999C24.0626 84.9351 22.4665 84.6746 20.8901 84.3199C19.8901 84.0599 21.4001 82.8399 23.2401 83.1099C24.6934 83.3299 26.1434 83.5699 27.5901 83.8299L29.7601 84.2399L30.8501 84.4599L31.39 84.5699L32.39 84.7599L32.8 85.6199L33.0201 86.1099C33.2701 86.6799 33.5501 87.2499 33.8301 87.8199L34.8301 89.8199L33.78 92.1899L31.0001 98.3299L29.89 100.71L30.4401 101.19C32.0101 102.55 33.58 103.93 35.17 105.25C36.41 106.25 37.68 107.25 38.9401 108.18L39.7701 108.82C40.7701 109.64 41.0301 109.98 40.9901 110.47C41.0004 110.58 41.0004 110.69 40.9901 110.8C40.8801 111.11 40.3101 110.97 39.5201 110.42C37.1801 108.79 34.8701 106.89 32.5701 104.96L28.0001 101.13L29.0001 98.9999V99.0499Z" fill="#231F20"/>
<path d="M17.21 65.65L22.36 62.94L24.15 61.94L27.26 60.33C27.26 60.33 27.39 60.33 27.38 60.23L27.43 59.95C27.51 59.64 27.59 59.33 27.68 59.04C27.86 58.4534 28.06 57.8734 28.28 57.3L28.91 55.61L28.35 55C27.4377 53.9897 26.5926 52.9208 25.82 51.8C25.36 51.08 27.04 51.12 28.02 52.33L29.1 53.67L30.48 55.42C30.11 56.33 29.75 57.24 29.39 58.15C29.0983 58.8787 28.8479 59.6232 28.64 60.38C28.64 60.55 28.58 60.74 28.55 60.91C28.52 61.08 28.55 61.12 28.47 61.14L28.22 61.27L27.49 61.66L26.36 62.27L24.1 63.47L19.1 66.12L17.96 66.72L18.12 68.26C18.33 70 18.51 71.75 18.75 73.48C18.94 74.82 19.2 76.12 19.43 77.48L19.59 78.35C19.75 79.44 19.71 79.8 19.39 80.08C19.31 80.14 19.24 80.22 19.17 80.27C18.91 80.41 18.62 79.99 18.44 79.2C17.89 76.86 17.54 74.36 17.21 71.85C16.9833 69.91 16.7467 67.97 16.5 66.03L17.17 65.66L17.21 65.65Z" fill="#231F20"/>
<path d="M47.48 31.76L47.94 29.5C47.99 29.23 48.01 28.95 48.07 28.68C48.29 27.68 48.54 26.75 48.77 25.79C48.88 25.37 48.95 24.93 49.02 24.5C49.0625 23.934 49.2012 23.3794 49.43 22.86C49.61 22.55 50.74 23.32 50.6 23.91C50.3755 25.0065 50.085 26.0885 49.73 27.15C49.5457 27.8066 49.4054 28.4747 49.31 29.15C49.17 29.9 49.02 30.65 48.88 31.41L48.63 32.8L48.48 33.8C47.9846 33.993 47.5063 34.2272 47.05 34.5C46.6044 34.7912 46.189 35.1262 45.81 35.5L45.56 35.74C45.23 36.02 45.07 36.04 44.77 35.82L44.56 35.68C44.5092 35.6306 44.4688 35.5715 44.4412 35.5062C44.4136 35.441 44.3994 35.3708 44.3994 35.3C44.3994 35.2291 44.4136 35.159 44.4412 35.0937C44.4688 35.0284 44.5092 34.9694 44.56 34.92C45.2496 34.0791 46.1126 33.3969 47.09 32.92L47.25 32.84V32.73V32.53L47.38 31.7L47.48 31.76Z" fill="#231F20"/>
<path d="M83.3401 103.05V102.59C83.5301 102.45 83.7001 102.36 83.9001 102.23L84.1801 102.06L84.3301 101.96C84.5101 101.84 84.7101 101.69 84.9001 101.54C85.2801 101.22 85.6501 100.88 86.0201 100.54C86.3901 100.2 86.5601 99.9399 86.8401 99.6499L87.3001 99.1799L87.6001 98.8399L87.9701 98.4299C88.9701 98.6099 89.3001 98.7099 89.8201 98.8399L91.3101 99.2299L93.2001 99.7499C94.0658 99.9212 94.8762 100.302 95.5601 100.86C95.7801 101.07 95.5601 101.29 95.1401 101.44C94.7766 101.63 94.3526 101.67 93.9601 101.55C92.5601 100.96 90.9601 100.55 89.3701 100.02C89.1665 99.9527 88.9596 99.896 88.7501 99.8499H88.5801H88.4701L88.1101 100.27C87.9101 100.5 87.7101 100.73 87.5001 100.94C86.7149 101.801 85.84 102.575 84.8901 103.25C84.8201 103.31 84.6901 103.25 84.6901 103.36V104.72C84.6901 105.8 84.5101 106.87 84.3601 107.93C84.2301 108.76 84.1601 109.58 83.9501 110.4C83.9108 110.586 83.8607 110.77 83.8001 110.95C83.5801 111.61 83.3601 111.78 83.0001 111.75C82.9136 111.755 82.8267 111.755 82.7401 111.75C82.4701 111.67 82.3801 111.33 82.4901 110.89C82.8062 109.501 83.0432 108.096 83.2001 106.68C83.2001 106.14 83.3101 105.6 83.3301 105.05V104.22V103L83.3401 103.05Z" fill="#231F20"/>
<path d="M56.8798 61.0499C55.711 62.5709 54.9292 64.353 54.6017 66.2431C54.2742 68.1331 54.4108 70.0744 54.9998 71.8999C55.4484 73.2301 56.1251 74.472 56.9998 75.5699C57.7579 76.5615 58.6693 77.4257 59.6998 78.1299C60.7294 78.855 61.8714 79.4056 63.0798 79.7599C65.5346 80.4985 68.1577 80.4601 70.5898 79.6499C72.7653 78.9312 74.6837 77.5932 76.1098 75.7999C77.8518 73.4824 78.8585 70.6957 78.9998 67.7999C79.0598 66.9099 79.6798 66.9299 80.3098 67.7999C80.7313 68.4692 80.9977 69.2243 81.0894 70.0098C81.1811 70.7954 81.0958 71.5916 80.8398 72.3399C79.7835 75.7412 77.5196 78.6387 74.4748 80.4862C71.4299 82.3337 67.8145 83.0037 64.3098 82.3699C62.2195 82.0029 60.23 81.1996 58.4709 80.0125C56.7117 78.8254 55.2224 77.281 54.0998 75.4799C52.9048 73.4796 52.2181 71.217 52.0998 68.8899C52.0031 66.5814 52.4519 64.2825 53.4098 62.1799C54.0283 60.913 54.8154 59.7356 55.7498 58.6799C56.6991 57.6355 57.7937 56.7329 58.9998 55.9999C60.8246 54.9233 62.8665 54.2669 64.9768 54.0783C67.0872 53.8898 69.213 54.1738 71.1998 54.9099C74.2883 55.9854 76.9561 58.0125 78.8198 60.6999L79.3998 61.6099C79.5698 61.9199 79.7298 62.2499 79.8998 62.6099C80.3299 63.4772 80.5783 64.4232 80.6298 65.3899C80.6526 65.63 80.6253 65.8722 80.5496 66.1011C80.4738 66.3301 80.3513 66.5408 80.1898 66.7199C80.0686 66.8653 79.931 66.9961 79.7798 67.1099C79.2798 67.3799 78.9098 66.3999 78.3198 64.8499C77.3935 62.5053 75.8274 60.468 73.7998 58.9699C71.7701 57.4491 69.3328 56.5682 66.7998 56.4399C64.9148 56.3771 63.0413 56.7573 61.3298 57.5499C59.6116 58.3692 58.1161 59.5903 56.9698 61.1099L56.8798 61.0499Z" fill="#231F20"/>
<path d="M61 66.76C61.178 65.8329 61.4738 64.9322 61.88 64.08C62.2299 63.3445 62.6556 62.6474 63.15 62C63.6735 61.2528 64.2958 60.5801 65 60C66.2517 58.8771 67.7998 58.1377 69.46 57.87C70.0791 57.7894 70.7073 57.8097 71.32 57.93C71.575 57.9849 71.8257 58.0584 72.07 58.15C72.31 58.21 72.42 58.49 72.44 58.81C72.4366 59.0402 72.3829 59.2669 72.2827 59.4742C72.1825 59.6814 72.0382 59.8643 71.86 60.01C71.7138 60.1482 71.5446 60.2599 71.36 60.34C70.9005 60.3977 70.4541 60.5329 70.04 60.74C69.75 60.88 69.46 61.04 69.16 61.22C68.8413 61.3826 68.534 61.5663 68.24 61.77C67.712 62.0741 67.2605 62.4948 66.92 63C66.69 63.41 66.45 63.72 66.19 64.1C65.925 64.4687 65.7472 64.8927 65.67 65.34C65.4709 66.1729 65.3273 67.0181 65.24 67.87C65.1912 68.9294 65.33 69.989 65.65 71C65.7926 71.2618 65.9495 71.5155 66.12 71.76C66.18 71.8872 66.2333 72.0174 66.28 72.15C66.3373 72.2837 66.4186 72.4057 66.52 72.51C66.8604 72.795 67.2502 73.0153 67.67 73.16C68.3358 73.4574 69.0515 73.627 69.78 73.66C69.99 73.66 70.19 73.55 70.39 73.56C70.6431 73.5749 70.8969 73.5749 71.15 73.56C71.4742 73.5051 71.7799 73.3712 72.04 73.17C72.04 73.17 72.04 73.08 72.04 73.04C72.04 73 72.23 72.62 72.38 72.46C72.5383 72.2845 72.7124 72.1239 72.9 71.98C73.4734 71.4752 73.9569 70.8767 74.33 70.21C74.8017 69.4904 75.0734 68.6582 75.1173 67.7989C75.1613 66.9395 74.9758 66.084 74.58 65.32C74.44 65 74.24 64.62 74.1 64.32C74.0497 64.2184 73.9858 64.1242 73.91 64.04C73.7017 63.8571 73.4369 63.7511 73.16 63.74C72.7067 63.7068 72.2525 63.7894 71.84 63.98L71.75 64.04C71.66 64.11 71.42 64.04 71.56 64.4C71.56 64.54 71.5 64.5 71.45 64.51C71.4 64.52 71.28 64.51 71.45 64.7C71.62 64.89 71.45 64.79 71.38 64.77C71.2257 64.6912 71.0527 64.6566 70.88 64.67C70.76 64.67 70.68 64.79 70.82 64.98C70.96 65.17 70.72 65.06 70.72 65.12C70.72 65.42 70.42 65.52 70.77 65.82C70.88 65.91 70.62 65.99 70.54 66.12C70.46 66.25 70.44 66.21 70.54 66.26C70.78 66.43 70.76 66.59 70.7 66.81C70.64 67.03 70.85 67.34 70.97 67.55L71.16 67.83C71.2319 67.902 71.2987 67.9788 71.36 68.06C71.52 68.22 71.65 68.41 71.74 68.37C71.83 68.33 71.84 68.27 71.86 68.28C71.88 68.29 71.96 68.18 72.05 68.12C72.14 68.06 72.2 68.19 72.25 68.12C72.7297 67.9389 73.1418 67.6141 73.43 67.19C73.43 67.19 73.43 67.14 73.43 67.13H73.53C73.7453 67.186 73.9677 67.2096 74.19 67.2H74.31L73.52 67.51L73.78 67.39C73.94 67.31 74.15 67.13 74.23 67.11C74.73 66.74 74.68 66.56 74.66 66.75C74.6498 66.7927 74.6498 66.8373 74.66 66.88C74.6505 66.9463 74.6505 67.0137 74.66 67.08C74.6909 67.2235 74.7344 67.3641 74.79 67.5C74.8437 67.6165 74.9038 67.73 74.97 67.84H74.91C74.7812 67.7443 74.644 67.6606 74.5 67.59C74.2223 67.4481 73.9108 67.3858 73.6 67.41C73.6 67.41 73.6 67.41 73.51 67.48C73.3434 67.6239 73.1585 67.7449 72.96 67.84C72.7569 67.9473 72.5336 68.0107 72.3045 68.0262C72.0754 68.0417 71.8456 68.009 71.63 67.93C71.22 67.76 70.97 67.47 70.99 67.32C71.0369 66.7819 71.1955 66.2595 71.4554 65.786C71.7154 65.3126 72.0711 64.8984 72.5 64.57C72.8745 64.3114 73.2905 64.1186 73.73 64C73.9893 63.911 74.2575 63.8507 74.53 63.82C74.8654 63.7946 75.2028 63.8216 75.53 63.9C76.1882 64.0655 76.7745 64.4412 77.2 64.97C77.3853 65.1807 77.5401 65.4163 77.66 65.67C77.805 65.9208 77.916 66.1899 77.99 66.47C78.2364 67.5018 78.1162 68.5872 77.65 69.54C77.3328 70.2292 76.9036 70.8611 76.38 71.41C75.7447 72.0906 74.9752 72.632 74.12 73C73.6625 73.1623 73.1902 73.2795 72.71 73.35C72.2053 73.4144 71.6946 73.4144 71.19 73.35C70.1875 73.1976 69.2465 72.772 68.47 72.12C67.5255 71.3672 66.7832 70.3912 66.31 69.28C65.8844 68.1883 65.6871 67.021 65.73 65.85C65.7048 64.8247 65.885 63.8047 66.26 62.85C66.3279 62.7139 66.4119 62.5863 66.51 62.47C66.62 62.32 66.74 62.17 66.84 62.01L67.32 61.32C67.38 61.22 67.46 61.15 67.52 61.05C67.58 60.95 67.52 60.86 67.62 60.84C67.9235 60.7217 68.2148 60.5743 68.49 60.4L69.25 59.86C69.37 59.78 69.52 59.76 69.63 59.67C70.1922 59.2038 70.8497 58.8663 71.5563 58.6815C72.2629 58.4966 73.0015 58.4688 73.72 58.6C74.0081 58.7006 74.3218 58.7006 74.61 58.6C74.7034 58.564 74.8043 58.5515 74.9037 58.5637C75.0031 58.5759 75.098 58.6124 75.18 58.67C75.5789 58.9179 76.0051 59.1192 76.45 59.27C76.9077 59.4333 77.3289 59.6847 77.69 60.01C78.047 60.3473 78.3811 60.7081 78.69 61.09L78.9 61.38L79.03 61.59C79.1081 61.7361 79.1782 61.8863 79.24 62.04C79.49 62.67 79.98 63.23 80.24 63.9C80.5251 64.701 80.7589 65.5193 80.94 66.35C81.1179 67.3059 81.1616 68.282 81.07 69.25C80.9662 70.0085 80.7784 70.7531 80.51 71.47C79.9094 73.0663 78.9986 74.5278 77.83 75.77C77.1741 76.4885 76.4654 77.157 75.71 77.77C74.7273 78.5043 73.604 79.0285 72.41 79.31C71.1552 79.5559 69.8647 79.5559 68.61 79.31C66.3466 78.8868 64.2884 77.7222 62.76 76C62.3218 75.4902 61.952 74.9255 61.66 74.32C61.4218 73.8051 61.231 73.2695 61.09 72.72C60.8437 71.7864 60.7161 70.8255 60.71 69.86C60.7196 68.8204 60.8166 67.7834 61 66.76Z" fill="#231F20"/>
<path d="M70 67.0699C70 67.0699 69.75 65.7099 69.22 65.5299C69.0626 65.4619 68.8882 65.4436 68.7202 65.4776C68.5522 65.5115 68.3986 65.5961 68.28 65.7199C68.1553 65.8323 68.0414 65.9562 67.94 66.0899C67.86 66.1899 67.83 66.2799 67.82 66.2799C67.81 66.2799 67.65 66.3499 67.42 66.2799C67.055 66.2614 66.7051 66.1285 66.42 65.8999C66.28 65.7599 66.17 65.5999 66.19 65.4899C66.2761 65.0479 66.4607 64.6309 66.73 64.2699C67.1495 63.7464 67.7234 63.3685 68.37 63.1899C68.9438 63.0699 69.5362 63.0699 70.11 63.1899C71.05 63.3199 71.58 64.0599 72.17 64.5599C72.7028 65.1207 73.0817 65.8096 73.27 66.5599C73.5921 67.652 73.4958 68.8249 73 69.8499C72.8841 70.2045 72.7191 70.5411 72.51 70.8499C72.1796 71.2066 71.7989 71.5131 71.38 71.7599C70.8325 72.1684 70.2003 72.4486 69.53 72.5799C68.875 72.6841 68.2041 72.6079 67.5892 72.3595C66.9743 72.1111 66.4387 71.6998 66.04 71.1699C65.8036 70.9243 65.6109 70.6403 65.47 70.3299C65.3371 69.9708 65.2628 69.5926 65.25 69.2099C65.1666 68.694 65.1231 68.1725 65.12 67.6499C65.1078 67.5844 65.0876 67.5206 65.06 67.4599C65.005 67.149 65.005 66.8308 65.06 66.5199C65.1497 66.2212 65.2634 65.9303 65.4 65.6499C65.9369 64.7219 66.7233 63.9632 67.67 63.4599C68.2173 63.1978 68.7904 62.9934 69.38 62.8499C69.74 62.7599 70.15 62.6599 70.38 62.5699C70.61 62.4799 70.63 62.4599 70.61 62.5199H70.7C70.77 62.5199 70.81 62.5199 70.93 62.1899C70.9846 61.9982 71.0082 61.7991 71 61.5999C71.0039 61.4568 70.9694 61.3152 70.9 61.1899C70.9 61.1899 70.98 61.0299 70.67 61.1899C70.56 61.2499 70.61 61.1899 70.62 61.1899C70.63 61.1899 70.69 61.0799 70.49 61.1899C70.29 61.2999 70.43 61.1899 70.49 61.1899C70.68 60.9299 70.8 60.6199 70.49 60.8299C70.39 60.8899 70.49 60.7599 70.41 60.7599C70.18 60.7599 70.16 60.4899 69.81 60.6899C69.7 60.7599 69.74 60.5199 69.7 60.4199C69.66 60.3199 69.7 60.3099 69.63 60.3399C69.43 60.4699 69.32 60.4099 69.25 60.2499C69.18 60.0899 68.9 60.1299 68.72 60.0799L68.11 59.9999C67.8804 59.9089 67.6368 59.8582 67.39 59.8499C67.31 59.8499 67.21 59.9299 67.13 59.9299C67.05 59.9299 66.67 59.9899 66.45 59.9899C66.23 59.9899 66.25 59.8799 66.14 59.8599C65.626 59.7359 65.1051 59.6424 64.58 59.5799C64.38 59.5799 64.18 59.6499 63.98 59.5799C63.8217 59.5134 63.6517 59.4791 63.48 59.4791C63.3083 59.4791 63.1383 59.5134 62.98 59.5799C62.76 59.6899 62.51 59.4599 62.28 59.4099C62.05 59.3562 61.8158 59.3228 61.58 59.3099C61.2356 58.7147 61.0368 58.0466 61 57.3599C60.8339 56.7438 60.8032 56.099 60.91 55.4699C61.16 55.4699 62.52 55.0399 63.91 54.8799C64.9019 54.7242 65.9079 54.6772 66.91 54.7399C67.6 54.8999 68.29 55.1099 68.98 55.3199C69.45 55.4699 69.98 55.5499 70.43 55.7499C70.88 55.9499 71.38 56.2599 71.87 56.5099C72.36 56.7599 72.71 56.8599 73.14 57.1099C73.21 57.1099 73.25 57.2099 73.3 57.2699C73.3551 57.3469 73.4188 57.4174 73.49 57.4799C73.6 57.5699 73.72 57.6399 73.84 57.7399L73.98 57.8499C73.98 57.8499 74.11 57.8499 74.12 57.8499C74.1606 58.2284 74.33 58.5815 74.6 58.8499C74.65 58.9199 74.66 59.0199 74.71 59.0899C75.0196 59.3905 75.2535 59.7602 75.3925 60.1687C75.5316 60.5772 75.5718 61.0129 75.51 61.4399C75.51 61.6099 75.44 61.7499 75.6 61.9099C75.6373 61.949 75.6581 62.0009 75.6581 62.0549C75.6581 62.1089 75.6373 62.1609 75.6 62.1999C75.29 62.6099 75.54 63.0699 75.38 63.4699C75.2692 63.9494 75.0764 64.4061 74.81 64.8199C74.45 65.2399 74.25 65.8199 73.81 66.1199C73.348 66.4767 72.8484 66.7818 72.32 67.0299C71.75 67.2899 71.32 67.4499 71.1 67.5199C70.88 67.5899 70.56 67.6499 70.36 67.7299C70.1822 67.7838 70.0111 67.8576 69.85 67.9499C69.79 67.9499 69.78 67.9499 69.79 68.0099C69.79 68.0099 69.79 68.2099 69.86 68.3099C69.93 68.4099 69.86 68.4299 69.86 68.4099C69.6987 68.4623 69.5469 68.5399 69.41 68.6399C69.2672 68.6946 69.1425 68.7881 69.05 68.9099C68.97 68.9099 69.05 69.0299 69.05 68.5599C69.05 68.4999 69.05 68.3599 69.05 68.2599C69.1048 68.2807 69.1652 68.2807 69.22 68.2599C69.3825 68.2136 69.5329 68.1323 69.6608 68.0218C69.7886 67.9112 69.8907 67.7741 69.96 67.6199C69.9773 67.5513 70.0007 67.4843 70.03 67.4199C70.0246 67.36 70.0246 67.2998 70.03 67.2399C70.0363 67.1816 70.0259 67.1226 70 67.0699Z" fill="#231F20"/>
</svg>
