<svg width="128" height="128" viewBox="0 0 128 128" fill="none" xmlns="http://www.w3.org/2000/svg">
<path d="M91.0998 35.44L88.3298 33.17C87.9898 32.89 87.6198 32.67 87.2798 32.38C86.0998 31.38 84.9698 30.31 83.8898 29.18C83.4098 28.68 82.8998 28.2 82.4198 27.68C82.1298 27.34 81.7798 27.02 81.5698 26.58C81.3798 26.14 81.2698 25.62 81.2998 25.12C81.3298 24.8 81.4698 24.86 81.7298 25.03C81.9598 25.21 82.4798 25.38 82.8598 25.6C83.0498 25.69 83.1698 25.82 83.2898 25.97C83.3998 26.11 83.5498 26.25 83.6798 26.39C83.9598 26.67 84.2498 26.95 84.5498 27.23C85.1498 27.79 85.7798 28.36 86.3998 28.97C87.1298 29.71 88.0698 30.27 88.9398 30.9L91.7998 33L93.5798 34.28C94.4898 34.91 95.3898 35.58 96.3198 36.18C97.0398 36.65 97.8498 36.96 98.5898 37.4C98.7398 37.51 98.8998 37.61 99.0398 37.74C99.5698 38.22 99.6298 38.52 99.4298 39.02C99.3798 39.14 99.3498 39.26 99.2898 39.36C99.1098 39.7 98.6698 39.81 98.1398 39.69C97.7498 39.6 97.3498 39.51 96.9498 39.41C96.5998 39.25 96.2498 39.08 95.9098 38.89C95.2298 38.52 94.5598 38.09 93.8998 37.66C92.9298 36.98 91.9998 36.24 91.0398 35.52L91.0698 35.47L91.0998 35.44Z" fill="#231F20"/>
<path d="M102.75 39.29C91.4402 32.09 97.6302 23.18 103.8 23.46C103.8 23.46 94.6202 12.24 92.0802 12.17C89.5402 12.1 81.9902 19.84 81.9902 21.13C81.9902 24.59 92.8602 33.77 92.8602 33.77L99.9902 40.15L102.76 39.3L102.75 39.29Z" fill="#231F20"/>
<path d="M44.9901 64.75L46.4501 59.09C46.6301 58.4 46.7301 57.7 46.9201 57.01L47.9301 53.39L49.0401 49.79C49.3501 48.72 49.6301 47.64 49.9301 46.58C50.1101 45.89 50.3001 45.21 50.5101 44.53C50.6301 44.19 50.6901 43.84 50.8901 43.53C51.0901 43.22 51.2901 42.92 51.5001 42.6C51.7701 42.22 51.7701 42.29 51.8601 42.71C51.9101 42.92 51.9901 43.22 52.1201 43.59C52.1701 43.77 52.2701 43.98 52.2901 44.17C52.2901 44.36 52.2901 44.56 52.2501 44.76C52.0101 46.17 51.8101 47.59 51.5201 48.99C51.2101 50.39 50.8601 51.78 50.4401 53.17C49.9201 54.83 49.6301 56.61 49.2501 58.34L47.9301 64.04L47.1401 67.56C46.7701 69.34 46.3601 71.12 46.0801 72.91C45.8901 74.3 45.7801 75.68 45.6201 77.06C45.5801 77.36 45.5801 77.66 45.5201 77.96C45.3701 78.51 45.2301 78.87 45.0401 79.1C44.8201 79.33 44.6001 79.45 44.3401 79.54C44.2201 79.58 44.1101 79.64 44.0101 79.66C43.8401 79.69 43.7001 79.58 43.5501 79.35C43.4001 79.12 43.1901 78.75 43.1501 78.31C42.8201 75.72 43.1201 73.09 43.6701 70.51C44.0501 68.59 44.5001 66.67 44.9301 64.75H45.0001H44.9901Z" fill="#231F20"/>
<path d="M51.59 76.33C52.86 76.09 54.12 75.82 55.38 75.55C55.84 75.45 56.29 75.3 56.75 75.2C58.37 74.84 60.02 74.56 61.63 74.17C62.35 74 63.06 73.79 63.76 73.58C64.64 73.26 65.58 73.08 66.56 73.08C66.87 73.11 66.83 73.08 66.62 73.27C66.43 73.48 66.07 73.9 65.6 74.21C65.38 74.33 65.18 74.5 64.95 74.57L64.26 74.8C63.8 74.95 63.34 75.09 62.88 75.23C61.95 75.5 61.01 75.74 60.06 75.93C58.92 76.16 57.78 76.56 56.62 76.83C55.35 77.14 54.07 77.42 52.79 77.7C52 77.86 51.22 78.07 50.44 78.26C49.25 78.55 48.06 78.83 46.89 79.11C45.98 79.34 45.1 79.67 44.21 79.95C44.01 80.01 43.82 80.09 43.62 80.14C42.86 80.24 42.59 80.12 42.33 79.66C42.27 79.55 42.2 79.45 42.16 79.34C42.02 78.98 42.26 78.6 42.77 78.31C43.52 77.87 44.34 77.67 45.16 77.42C45.99 77.21 46.82 76.95 47.69 76.85C48.98 76.67 50.27 76.48 51.56 76.3V76.34L51.59 76.33Z" fill="#231F20"/>
<path d="M75.5698 56.4C70.6498 55.77 69.1098 53.07 69.6098 50.21C70.2198 46.73 72.8098 45.45 75.5698 45.6C75.5698 45.6 68.7398 42.82 66.2598 46.14C63.7798 49.46 65.1598 53.13 66.2598 54.17C67.3598 55.21 71.4398 57.08 71.4398 57.08L75.5698 56.4Z" fill="#231F20"/>
<path d="M37.28 98.74C38.36 99.82 39.87 100.52 41.57 100.84C41.88 100.89 42.2 100.92 42.52 100.95C42.84 100.95 43.17 100.96 43.49 101C45.79 101.25 48.24 100.98 50.68 100.63C51.76 100.46 52.83 100.16 53.87 99.83C54.54 99.61 55.21 99.41 55.91 99.25L56.43 99.13H56.99C57.36 99.11 57.73 99.1 58.11 99.09C58.58 99.09 58.54 99.14 58.26 99.49C58.12 99.67 57.94 99.93 57.71 100.28C57.58 100.47 57.46 100.65 57.34 100.82C57.28 100.92 57.2 100.99 57.13 101.11L56.87 101.28L55.88 101.82L55.38 102.09L54.86 102.29C54.16 102.55 53.45 102.79 52.73 103C51.28 103.41 49.8 103.77 48.24 103.81C46.4 103.87 44.49 104.23 42.54 104.05C40.42 103.82 38.22 103.2 36.4 101.86C35.88 101.41 35.31 101 34.88 100.49C34.44 99.99 34.02 99.48 33.66 98.92C33.11 98.08 32.65 97.17 32.35 96.19C32.06 95.21 31.93 94.18 31.94 93.16C31.98 91.58 32.31 90 32.99 88.58C33.14 88.27 33.32 87.99 33.51 87.71C34.27 86.69 34.75 86.58 35.41 86.83C35.57 86.89 35.73 86.94 35.86 87.02C36.31 87.29 36.35 87.95 36.04 88.68C35.81 89.22 35.67 89.8 35.47 90.3L35.2 91.05C35.14 91.3 35.07 91.55 35 91.79C34.78 92.78 34.73 93.73 34.94 94.69C35.09 95.4 35.38 96.12 35.77 96.81C36.18 97.49 36.71 98.14 37.3 98.69L37.25 98.75L37.28 98.74Z" fill="#231F20"/>
<path d="M56.6898 37.97L54.1298 39.04C54.1298 39.04 54.0898 39.07 54.0798 39.09L54.0598 39.12C54.0598 39.12 54.0598 39.12 54.0198 39.22C53.9098 39.51 53.7998 39.83 53.6998 40.17C53.4898 40.83 53.2998 41.53 53.1098 42.22L52.0098 46.42C51.6498 47.85 51.3798 49.29 51.0098 50.72C49.7198 55.75 48.3698 60.78 46.9598 65.79C46.3298 68.02 45.6898 70.25 45.0598 72.46C44.6398 73.88 44.2398 75.3 43.7598 76.71C43.6398 77.06 43.5198 77.41 43.3898 77.76L42.8998 78.77C42.5598 79.44 42.2098 80.1 41.7898 80.73C41.2698 81.51 41.1898 81.34 41.1498 80.49C41.1298 80.07 41.0698 79.46 41.0698 78.76C41.0698 78.4 41.0798 78.03 41.0898 77.64C41.0898 77.44 41.1198 77.25 41.1198 77.03C41.1698 76.84 41.2298 76.64 41.2798 76.44C42.1198 73.61 42.8798 70.74 43.6398 67.86C44.3998 64.98 45.2698 62.11 46.1198 59.22C47.1598 55.76 47.8498 52.07 48.6998 48.47L50.0498 42.89C50.2898 41.96 50.5198 41.03 50.7898 40.09C50.9198 39.62 51.0598 39.15 51.2198 38.67C51.2898 38.44 51.3798 38.19 51.5298 37.81C51.6998 37.49 51.8798 37.16 52.1398 36.92C52.4398 36.74 52.8398 36.5 53.0698 36.41C55.4198 35.35 57.7298 34.47 60.0498 33.51C63.5598 32.07 67.0998 30.68 70.5498 29.18C73.2298 28.01 75.7798 26.7 78.3798 25.44C78.9498 25.16 79.5098 24.88 80.0798 24.59C82.2298 23.59 82.9798 23.44 83.7598 23.91C83.9398 24.02 84.1498 24.1 84.2798 24.23C84.7298 24.65 84.0498 25.49 82.5198 26.37C77.9898 28.96 72.9998 31.17 67.9698 33.33C64.2298 34.9 60.4698 36.47 56.7198 38.05L56.6898 37.99V37.97Z" fill="#231F20"/>
<path d="M95.9301 49.0201C95.3401 50.34 94.7501 51.67 94.2101 53.03C94.0201 53.52 93.8601 54.0301 93.6501 54.5201C92.8801 56.24 92.1301 57.9701 91.4501 59.7201C91.1501 60.5001 90.8901 61.3001 90.6301 62.0801L90.1301 63.6C90.0401 63.85 89.9501 64.1 89.8501 64.35C89.8201 64.48 89.7101 64.5901 89.6101 64.6901C89.5101 64.8001 89.4701 64.93 89.4001 65.0401C89.2301 65.3301 89.1501 65.2601 89.0601 64.9401C89.0001 64.7801 89.0001 64.5701 88.8101 64.2601C88.7101 63.9801 88.7301 63.6901 88.7701 63.3801C88.9701 62.3101 89.1801 61.24 89.4301 60.18C89.7201 59.1301 90.0501 58.09 90.4501 57.07C90.9301 55.85 91.2001 54.5 91.5901 53.21C92.0501 51.8 92.5901 50.4201 93.1201 49.0401L94.1301 46.5C94.6401 45.22 95.2001 43.95 95.6601 42.66C96.0101 41.66 96.2201 40.61 96.5501 39.61C96.6201 39.39 96.6701 39.16 96.7601 38.94C97.0801 38.13 97.4101 37.98 98.1301 38.09C98.2901 38.11 98.4401 38.1201 98.5801 38.1501C99.0001 38.2501 99.3901 38.8001 99.3301 39.4501C99.2001 40.4101 99.0301 41.3701 98.7401 42.2901C98.4401 43.2101 98.0601 44.11 97.6901 45.01C97.1201 46.35 96.5501 47.6901 95.9801 49.0401L95.9201 49.0201H95.9301Z" fill="#231F20"/>
<path d="M68.8702 57.64C66.6602 56.78 64.7902 55 64.0502 52.68C63.9502 52.25 63.7902 51.84 63.7702 51.39L63.7002 50.73L63.7402 50.08C63.7602 49.68 63.8502 49.35 63.9402 49C64.0402 48.66 64.1002 48.31 64.2302 47.97L64.6602 46.97C64.8002 46.64 65.0402 46.34 65.2302 46.03C66.0702 44.82 67.3202 43.91 68.6802 43.48C69.8802 43.09 71.1502 42.97 72.3702 43.1C73.1502 43.23 73.9502 43.34 74.6802 43.74C75.3902 44.12 76.0602 44.71 76.4202 45.51C76.6402 46.03 76.2902 46.02 75.8002 45.91C75.3502 45.77 74.6102 45.79 74.0102 45.61C72.9102 45.25 71.6602 44.93 70.4602 45.1C69.2602 45.24 68.1502 45.71 67.2902 46.57C66.7502 47.06 66.4202 47.79 66.1702 48.55C66.0602 48.94 66.0202 49.35 65.9302 49.75C65.8702 49.96 65.9102 50.13 65.8902 50.32C65.8802 50.51 65.8702 50.69 65.8902 50.88C65.9702 52.52 67.0902 54.03 68.5902 54.94C69.5202 55.5 70.6002 55.83 71.6802 55.84C72.5002 55.84 73.3002 55.65 74.0202 55.29C74.7602 54.9 75.4102 54.35 75.9002 53.69C76.6902 52.66 76.9202 51.36 76.8202 50.24C76.8002 49.99 76.7202 49.75 76.6802 49.51C76.4802 48.63 76.4602 48.35 77.0602 47.79C77.1902 47.67 77.3102 47.52 77.4402 47.41C77.6702 47.23 77.9302 47.18 78.2402 47.31C78.5602 47.43 78.8502 47.75 79.0902 48.23C79.7502 49.68 79.8202 51.51 79.2102 53.09C78.6202 54.68 77.4702 56.02 76.0702 56.94C75.0702 57.63 73.7202 58.1 72.4802 58.17C71.2202 58.29 69.9702 58.09 68.8302 57.68L68.8502 57.62L68.8702 57.64Z" fill="#231F20"/>
<path d="M104.84 14.2C105.47 14.88 106.15 15.55 106.85 16.2C107.1 16.44 107.41 16.62 107.67 16.86L109.03 18.16C109.48 18.61 109.9 19.09 110.35 19.55C110.75 19.95 111.13 20.38 111.54 20.76C111.79 21.03 112.05 21.28 112.28 21.56C112.5 21.85 112.69 22.17 112.86 22.5C112.96 22.71 112.82 22.79 112.53 22.8C112.25 22.8 111.78 22.78 111.42 22.59C110.79 22.24 110.22 21.86 109.62 21.49C109.03 21.11 108.52 20.63 108.01 20.13C107.44 19.48 106.65 19.01 105.97 18.45C105.21 17.82 104.47 17.16 103.74 16.48C103.29 16.05 102.85 15.62 102.42 15.18C101.76 14.51 101.15 13.77 100.54 13.05C100.08 12.47 99.5298 11.97 99.0798 11.34C98.9798 11.21 98.8598 11.08 98.7998 10.92C98.5398 10.34 98.6098 10.09 99.1298 9.75999C99.2498 9.67999 99.3598 9.59999 99.4798 9.53999C99.8898 9.32999 100.35 9.39999 100.65 9.65999C101.57 10.45 102.22 11.3 103.04 12.17C103.62 12.83 104.21 13.52 104.89 14.17L104.85 14.22L104.84 14.2Z" fill="#231F20"/>
<path d="M49.79 100.84C54.31 99.84 58.83 98.09 63.66 97C65.43 96.61 67.21 96.24 69.02 96.09C72.21 95.84 75.47 95.98 78.62 96.71C81.76 97.45 84.79 98.81 87.32 100.84C89.57 102.62 91.46 104.82 92.87 107.27C94.66 110.42 95.61 114.1 95.33 117.69C95.23 118.81 94.95 118.62 94.61 117.71C94.29 116.79 93.74 115.2 93.16 113.41C92.66 111.8 91.93 110.29 91.08 108.87C90.27 107.43 89.29 106.08 88.17 104.88C85.93 102.46 83.06 100.71 79.85 99.63C76 98.29 71.57 98.35 67.39 99C62.76 99.66 58.26 101.37 53.56 102.74C50.67 103.58 47.67 104.28 44.59 104.47C42.25 104.61 39.82 104.41 37.54 103.49C35.27 102.59 33.3 100.71 32.39 98.44C31.65 96.69 31.36 94.79 31.51 92.92C31.68 91.03 32.34 89.22 33.32 87.63C33.75 86.93 34.21 86.26 34.77 85.65C35.8 84.52 36.64 83.94 37.27 83.62C37.91 83.31 38.36 83.28 38.81 83.41C39.01 83.47 39.25 83.5 39.4 83.6C39.91 83.94 39.11 84.81 37.78 86.19C35.82 88.23 34.43 90.84 34.31 93.45C34.13 96.08 35.16 98.81 37.22 100.15C38.75 101.2 40.86 101.65 43.04 101.67C45.22 101.67 47.52 101.32 49.77 100.78L49.79 100.85V100.84Z" fill="#231F20"/>
<path d="M106.23 38.4C105.45 39.17 104.65 39.9 103.72 40.58C103.47 40.75 103.25 40.92 102.96 41.08C102.59 41.34 102.12 41.47 101.69 41.61C101.46 41.63 101.24 41.73 101.01 41.68C100.78 41.65 100.56 41.58 100.35 41.52C100.13 41.48 99.9302 41.33 99.7202 41.24L99.4302 41.09L99.2502 40.97C97.3702 39.72 95.8402 38.41 94.2702 37.03C93.1402 36.03 91.9802 35.06 90.9002 34.02C88.9902 32.17 87.1402 30.27 85.3802 28.27C84.4902 27.27 83.6502 26.24 82.8102 25.17C82.3902 24.64 82.0002 24.07 81.6202 23.48C81.4402 23.17 81.2502 22.87 81.1002 22.52C81.0202 22.35 80.9402 22.18 80.8802 21.97C80.8102 21.78 80.7502 21.54 80.7402 21.29L80.7202 21.06C80.7502 20.85 80.8002 20.63 80.8402 20.42C80.9102 20.22 81.0002 20.05 81.0602 19.9C81.2102 19.59 81.3802 19.34 81.5402 19.06C81.8802 18.55 82.2402 18.07 82.6202 17.61C83.3802 16.7 84.1802 15.84 85.0302 15.04C86.1502 13.99 87.3902 13.06 88.7502 12.29C90.1102 11.55 91.6402 10.91 93.2702 10.98C94.2902 11.31 94.0802 11.24 93.3702 11.78C93.0202 12.04 92.5502 12.37 92.0302 12.71C91.7702 12.91 91.5002 13.11 91.2002 13.29C90.9102 13.51 90.6002 13.71 90.2602 13.9C88.7202 14.85 87.3702 16.13 86.0202 17.4C85.3702 18.05 84.7302 18.73 84.1802 19.44C83.8902 19.79 83.6402 20.16 83.4202 20.5C83.3202 20.67 83.1902 20.86 83.1502 20.97C83.0802 21.1 83.0902 21.07 83.0702 21.1C83.0202 21.02 83.1502 21.51 83.3402 21.88C83.5302 22.28 83.7702 22.7 84.0502 23.12C84.5902 23.96 85.2002 24.81 85.8802 25.61C88.1702 28.37 91.0202 30.88 93.8002 33.33C95.3302 34.68 96.8902 35.99 98.4702 37.23C98.8702 37.54 99.2702 37.84 99.6702 38.13C100.04 38.4 100.53 38.72 100.8 38.88C100.9 38.94 100.99 39 101.1 39.02C101.21 39.04 101.32 38.99 101.42 38.95C101.47 38.93 101.51 38.9 101.58 38.86C101.67 38.81 101.76 38.76 101.86 38.68C102.05 38.55 102.24 38.42 102.42 38.26C104.27 36.77 105.97 34.9 107.24 32.87C107.49 32.49 107.69 32.09 107.91 31.7L108.18 31.1C108.27 30.92 108.28 30.84 108.33 30.71C108.49 30.46 108.27 30.21 108.13 30C107.87 29.66 107.55 29.32 107.25 28.96C106.01 27.55 104.66 26.18 103.33 24.83C101.24 22.72 99.0702 20.77 97.0602 18.52C96.6202 18.02 96.1702 17.54 95.7602 16.99C94.2202 14.96 94.1902 13.78 94.7602 13.06C94.9002 12.89 95.0302 12.7 95.1802 12.61C95.4402 12.46 95.7402 12.6 96.0502 12.86C96.3702 13.13 96.7802 13.57 97.2902 14.19C98.7602 16.07 100.64 17.94 102.5 19.85C104.38 21.76 106.33 23.68 108.27 25.72C108.99 26.5 109.72 27.23 110.4 28.25C111.95 29.76 110.64 32.44 110.3 33.08C109.2 35.16 107.82 36.87 106.29 38.46L106.24 38.42L106.23 38.4Z" fill="#231F20"/>
<path d="M46.2901 78.12C46.2401 78.16 46.1901 78.21 46.1301 78.27C46.1001 78.3 46.0801 78.34 46.0501 78.37C46.0501 78.39 46.0801 78.38 46.0901 78.39C46.1601 78.39 46.2701 78.39 46.4201 78.36L46.6601 78.32L47.9501 77.95L50.8201 77.11L54.9901 75.81C59.9201 74.37 64.8401 72.92 69.7501 71.42C71.9301 70.77 74.1001 70.04 76.2401 69.31C77.6201 68.85 78.9701 68.33 80.3701 67.91L82.4601 67.28C83.1501 67.07 83.9001 66.99 84.6101 66.84C85.5301 66.73 85.4301 66.82 84.8101 67.36C84.4301 67.68 83.9901 68.06 83.5201 68.47C82.9701 68.89 82.2801 69.26 81.5101 69.6C80.1501 70.2 78.7501 70.72 77.3501 71.22L73.1401 72.7C70.3301 73.68 67.4701 74.54 64.5801 75.32C61.1201 76.27 57.6201 77.53 54.1201 78.62L48.3401 80.37L44.3201 81.54C43.9501 81.64 43.5801 81.75 43.2501 81.81C42.9201 81.87 42.6501 81.89 42.4201 81.88C42.1901 81.88 42.0201 81.83 41.9001 81.76C41.7601 81.71 41.6301 81.66 41.5001 81.62L41.3801 81.58L41.3501 81.56V81.55C41.0401 81.76 41.2601 81.6 41.2001 81.65V81.62V81.54C41.1901 81.43 41.1801 81.32 41.1801 81.2L41.4201 80.45C41.8101 79.83 42.0701 79.26 42.7301 78.54L43.5801 77.51L44.5101 76.48L45.8601 75.04C48.4501 72.31 51.1401 69.67 53.7001 66.96C55.6801 64.85 57.5201 62.68 59.4001 60.54C59.8101 60.06 60.2101 59.6 60.6201 59.12C62.2301 57.42 62.9501 57.07 63.7401 57.1C63.9201 57.11 64.1301 57.1 64.2701 57.13C64.7601 57.27 64.4201 58.25 63.4601 59.73C60.4101 63.91 56.6101 67.78 52.8101 71.62C51.4001 73.04 49.9901 74.47 48.5701 75.89L47.5201 76.96L46.5801 77.94C46.5801 77.94 46.5001 77.99 46.4501 78.04L46.3301 78.08L46.2901 78.12Z" fill="#231F20"/>
<path d="M31.0099 74.12C31.1099 74.32 30.8799 74.47 30.4799 74.58C30.3499 74.62 29.9699 74.58 29.9199 74.52C29.8199 74.41 29.7199 74.3 29.6499 74.19C29.6199 74.13 29.4299 73.1 29.3299 72.76C29.2399 72.42 29.2199 72.09 29.1999 71.75C29.1699 71.07 29.1099 70.39 29.0599 69.7C29.0499 69.55 29.0599 69.4 29.0999 69.24C29.2299 68.72 29.2199 68.2 29.1599 67.68C29.1499 67.59 29.1599 67.5 29.0799 67.42C28.9499 67.28 28.8799 65.88 28.9199 65.7C29.0399 65.18 29.1299 64.78 29.2299 64.33C29.2499 64.26 29.2299 64.2 29.3299 64.13C29.5399 63.98 29.5099 63.84 29.5399 63.7C29.5699 63.5 29.6099 63.3 29.6599 63.11C29.6999 63.01 29.7899 62.9 29.8499 62.8C29.9099 62.71 30.0999 62.73 30.1299 62.75C30.2099 62.83 30.2999 62.75 30.3799 62.73C30.4099 62.73 30.4399 62.72 30.4699 62.72C30.5099 62.72 31.2599 63.81 31.3099 63.94C31.4099 63.96 31.6999 65.64 31.7299 65.83C31.7599 65.93 31.7099 66.03 31.6799 66.13C31.6799 66.18 31.8799 67.51 31.8699 67.57C31.8499 67.85 31.9299 68.13 31.7599 68.41C31.7199 68.46 31.7399 68.52 31.7399 68.58C31.7699 69.06 31.7099 69.53 31.6499 70.01C31.6199 70.25 31.6399 70.5 31.6299 70.74C31.6299 70.78 31.5999 70.83 31.5899 70.87C31.5699 70.93 31.5499 70.98 31.5499 71.04C31.5499 71.62 31.4299 72.19 31.4699 72.77C31.4699 72.9 31.2499 73.53 31.2599 73.69C31.2599 73.78 30.9799 74.05 31.0199 74.12H31.0099Z" fill="#231F20"/>
<path d="M17.43 69.29C17.22 69.21 17.18 68.98 17.21 68.68C17.21 68.59 17.37 68.4 17.44 68.41C17.58 68.42 17.72 68.43 17.85 68.45C17.92 68.48 18.99 68.93 19.39 69.04C19.76 69.17 20.12 69.29 20.44 69.49C21.1 69.87 21.78 70.23 22.45 70.6C22.6 70.68 22.74 70.78 22.86 70.9C23.3 71.3 23.8 71.6 24.34 71.85C24.43 71.89 24.51 71.95 24.63 71.93C24.83 71.9 26.23 72.66 26.38 72.82C26.73 73.23 27.13 73.56 27.48 73.98C27.53 74.04 27.6 74.07 27.6 74.2C27.6 74.48 27.75 74.55 27.87 74.67C28.03 74.83 28.19 75 28.33 75.19C28.39 75.29 28.42 75.45 28.47 75.57C28.51 75.69 28.36 75.82 28.31 75.83C28.19 75.83 28.2 75.97 28.16 76.04C28.15 76.07 28.13 76.1 28.11 76.12C28.07 76.15 26.66 76.04 26.51 76.01C26.43 76.08 24.78 75.24 24.59 75.15C24.49 75.11 24.42 75 24.35 74.91C24.31 74.87 23 74.18 22.96 74.14C22.72 73.95 22.43 73.83 22.27 73.51C22.24 73.45 22.18 73.42 22.13 73.39C21.68 73.11 21.28 72.75 20.87 72.41C20.66 72.24 20.43 72.1 20.2 71.94C20.16 71.91 20.13 71.86 20.1 71.83C20.06 71.78 20.02 71.73 19.97 71.7C19.43 71.35 18.96 70.9 18.44 70.51C18.32 70.42 17.87 69.83 17.72 69.74C17.64 69.68 17.52 69.32 17.43 69.29Z" fill="#231F20"/>
<path d="M15.7801 80.56C15.6101 80.7 15.4501 80.44 15.3001 79.97C15.2501 79.82 15.2401 79.35 15.3001 79.28C15.3901 79.15 15.4901 79.01 15.5901 78.92C15.6501 78.87 16.6101 78.56 16.9401 78.42C17.2601 78.29 17.5801 78.24 17.9001 78.21L19.8601 77.98C20.0101 77.97 20.1501 77.98 20.3001 78.02C20.8101 78.18 21.3101 78.17 21.8101 78.11C21.8901 78.1 21.9801 78.11 22.0601 78.02C22.1901 77.87 23.5701 77.84 23.7501 77.91C24.2001 78.08 24.6401 78.18 25.0801 78.33C25.1401 78.35 25.2101 78.32 25.2701 78.42C25.4001 78.67 25.5401 78.63 25.6701 78.65C25.8601 78.68 26.0501 78.73 26.2401 78.82C26.3301 78.87 26.4201 79.01 26.5001 79.12C26.5801 79.23 26.5001 79.59 26.4801 79.63C26.3901 79.74 26.4501 79.92 26.4401 80.07C26.4401 80.12 26.4401 80.19 26.4401 80.23C26.4201 80.32 25.3601 80.91 25.2501 80.9C25.2401 80.9 24.8501 80.95 24.4401 80.99C24.0301 81.04 23.6101 81.11 23.5201 81.13C23.4301 81.16 23.3401 81.1 23.2501 81.07C23.2101 81.05 21.9801 81.28 21.9301 81.28C21.6701 81.26 21.4201 81.36 21.1601 81.15C21.1101 81.11 21.0601 81.12 21.0101 81.13C20.5701 81.19 20.1201 81.11 19.6801 81.05C19.4501 81.02 19.2301 81.05 19.0001 81.05C18.9601 81.05 18.9201 81.02 18.8801 81C18.8301 80.98 18.7701 80.95 18.7201 80.96C18.1801 80.98 17.6401 80.88 17.1001 80.96C16.9801 80.98 16.3701 80.75 16.2301 80.79C16.1501 80.81 15.8701 80.48 15.8001 80.54L15.7801 80.56Z" fill="#231F20"/>
</svg>
