<svg width="128" height="128" viewBox="0 0 128 128" fill="none" xmlns="http://www.w3.org/2000/svg">
<path d="M65.33 31.3101C62.5873 31.3788 59.8429 31.292 57.11 31.0501C56.11 30.9401 55.11 30.9201 54.11 30.7401C50.6244 30.2509 47.1858 29.4716 43.83 28.4101C42.36 27.9001 40.83 27.4801 39.42 26.8801C38.5 26.5001 37.54 26.2001 36.64 25.7701C35.74 25.3401 34.86 24.8901 33.98 24.4201C33.44 24.1201 33.59 24.0201 34.14 24.0801C35.0167 24.2085 35.8715 24.4575 36.68 24.8201C40.3637 26.4115 44.165 27.7154 48.05 28.7201C49.23 28.9901 50.44 29.2301 51.66 29.4601L55.35 29.9501C58.0564 30.2432 60.7778 30.3767 63.5 30.3501C65.18 30.3501 66.86 30.2301 68.5 30.1201C71.0431 29.8958 73.5708 29.5218 76.07 29.0001C77.07 28.8101 77.98 28.5801 78.91 28.3101C79.84 28.0401 80.77 27.7801 81.68 27.4701L82.89 27.0701C84.39 26.5401 84.89 26.5301 85.34 26.6901C85.4364 26.7141 85.5302 26.7476 85.62 26.7901C85.82 26.9101 85.28 27.3501 84.18 27.7901C80.7588 29.0686 77.2126 29.9837 73.6 30.5201C70.8609 30.9481 68.0998 31.2219 65.33 31.3401V31.3101Z" fill="#231F20"/>
<path d="M71.2302 118C73.2302 117.873 75.2302 117.67 77.2302 117.39L79.3801 117.04C81.9192 116.645 84.4334 116.104 86.9102 115.42C88.0102 115.12 89.1001 114.75 90.1601 114.42C91.5201 113.92 92.8801 113.42 94.1601 112.81C94.5701 112.63 94.5501 112.71 94.2501 112.96C93.7382 113.369 93.1813 113.718 92.5901 114C89.8599 115.262 86.9995 116.221 84.0601 116.86C82.2901 117.24 80.4701 117.69 78.6501 117.99C76.6501 118.33 74.6501 118.59 72.6501 118.77C71.4101 118.88 70.1701 118.99 68.9201 119.05C67.0301 119.18 65.1401 119.18 63.2601 119.22C61.8101 119.22 60.3801 119.3 58.9401 119.22H57.9901C56.8101 119.13 56.4301 119.04 56.1901 118.85C56.1329 118.812 56.0794 118.768 56.0301 118.72C55.9301 118.59 56.4101 118.5 57.2801 118.44C59.8501 118.34 62.5301 118.44 65.2801 118.29C67.2801 118.29 69.2801 118.16 71.2801 118.01L71.2302 118Z" fill="#231F20"/>
<path d="M88.8199 104C89.7399 104.2 90.6599 104.41 91.5799 104.64C91.9099 104.72 92.2499 104.78 92.5799 104.87C93.7605 105.193 94.9195 105.591 96.0499 106.06C96.5608 106.269 97.0584 106.51 97.5399 106.78C97.8692 106.96 98.1638 107.197 98.4099 107.48C98.5518 107.644 98.6441 107.845 98.6759 108.059C98.7078 108.273 98.678 108.492 98.5899 108.69C98.4699 108.93 98.3799 108.8 98.2799 108.6C98.1799 108.4 97.9899 108.22 97.8199 108.07C97.376 107.673 96.8646 107.358 96.3099 107.14L94.4299 106.36C93.6347 106.07 92.8191 105.84 91.9899 105.67C91.0899 105.44 90.1699 105.22 89.2499 105.03L87.5499 104.69C86.6899 104.53 85.8199 104.37 84.9599 104.26C84.2899 104.18 83.6199 104.15 82.9599 104.11H82.5199C81.9699 104.06 81.7999 103.98 81.7099 103.72C81.687 103.664 81.667 103.608 81.6499 103.55C81.6499 103.35 81.8599 103.22 82.2699 103.21C83.5227 103.207 84.7736 103.307 86.0099 103.51C86.9499 103.65 87.8899 103.82 88.8199 104Z" fill="#231F20"/>
<path d="M46.2602 104.05L47.6202 103.64C47.7902 103.64 47.9502 103.53 48.1202 103.49C48.7142 103.332 49.3192 103.218 49.9302 103.15L50.7502 103.04C51.0819 102.994 51.4185 102.994 51.7502 103.04C51.9702 103.04 51.6902 103.47 51.3202 103.53C50.6502 103.61 50.0002 103.77 49.3202 103.86C48.9018 103.936 48.4904 104.046 48.0902 104.19L46.7502 104.62L45.9202 104.9L44.6702 105.35C44.3502 105.46 44.0502 105.62 43.7302 105.74C43.6626 105.773 43.5924 105.799 43.5202 105.82C43.2502 105.91 43.1502 105.89 43.0502 105.74L42.9802 105.64C42.9202 105.52 42.9802 105.38 43.1802 105.28C43.7265 104.988 44.291 104.73 44.8702 104.51L46.2102 104.05H46.2602Z" fill="#231F20"/>
<path d="M82.6799 106.19C82.6799 106.19 85.6799 106.55 86.8399 107.51C88.1799 108.65 78.3299 113.3 69.6899 112.51L82.9199 108.39L82.6799 106.19Z" fill="#231F20"/>
<path d="M65.7801 65C65.5004 65.1906 65.2824 65.4586 65.1528 65.7712C65.0231 66.0838 64.9874 66.4274 65.0501 66.76C65.1276 67.0717 65.2933 67.3545 65.5274 67.5745C65.7615 67.7944 66.0541 67.9421 66.3701 68C66.5214 68.0304 66.6774 68.0278 66.8275 67.9923C66.9777 67.9568 67.1184 67.8892 67.24 67.7942C67.3615 67.6992 67.4611 67.5791 67.5319 67.442C67.6027 67.3049 67.643 67.1541 67.6501 67C67.6486 66.7107 67.5746 66.4263 67.4349 66.173C67.2951 65.9197 67.0941 65.7055 66.8501 65.55C66.6797 65.4626 66.4828 65.4418 66.2979 65.4917C66.113 65.5416 65.9534 65.6587 65.8501 65.82C65.7649 65.9908 65.7454 66.187 65.7951 66.3713C65.8449 66.5556 65.9605 66.7152 66.1201 66.82C66.1201 66.82 66.2301 66.94 66.1801 66.93C66.1301 66.92 66.6901 66.54 66.6801 66.53C66.6701 66.52 66.4301 66.37 66.5701 66.27C66.728 66.1637 66.8415 66.0034 66.8894 65.8192C66.9373 65.635 66.9162 65.4397 66.8301 65.27C66.7301 65.105 66.5704 64.9849 66.3842 64.9346C66.198 64.8843 65.9995 64.9077 65.8301 65H65.7801Z" fill="#231F20"/>
<path d="M70.8801 74.0001C70.9436 74.0606 71.0006 74.1277 71.0501 74.2001C71.0501 74.2801 71.0501 74.2001 71.0501 74.2901C71.0501 74.3801 71.1201 74.3801 71.0501 74.3501C70.9501 74.4101 70.9801 74.3201 71.0501 74.3501C71.1501 74.2901 71.1901 74.2101 71.3101 74.2001C70.3101 74.2801 70.3101 75.7801 71.3101 75.7001C71.5391 75.6784 71.7587 75.5981 71.9477 75.467C72.1367 75.3358 72.2888 75.1582 72.3892 74.9513C72.4897 74.7443 72.5352 74.515 72.5213 74.2853C72.5075 74.0557 72.4347 73.8335 72.3101 73.6401C72.2221 73.423 72.0909 73.2261 71.9245 73.0612C71.7582 72.8963 71.56 72.767 71.3422 72.681C71.1243 72.5949 70.8912 72.554 70.6571 72.5608C70.423 72.5675 70.1927 72.6217 69.9801 72.7201C69.817 72.8218 69.6984 72.9814 69.6483 73.167C69.5982 73.3525 69.6203 73.5502 69.7101 73.7201C69.8164 73.878 69.9767 73.9915 70.1609 74.0394C70.345 74.0873 70.5404 74.0662 70.7101 73.9801L70.8801 74.0001Z" fill="#231F20"/>
<path d="M65.43 80.16C65.56 80.07 65.31 80.16 65.26 80.16C65.284 80.1892 65.3108 80.2159 65.34 80.24C65.34 80.16 65.34 80.24 65.34 80.32C65.34 80.4 65.34 80.17 65.34 80.39C65.34 80.61 65.34 80.39 65.34 80.44C65.34 80.49 65.4 80.28 65.43 80.23C65.46 80.18 65.67 80.14 65.53 80.15C65.331 80.15 65.1403 80.2291 64.9996 80.3697C64.859 80.5104 64.78 80.7011 64.78 80.9C64.78 81.099 64.859 81.2897 64.9996 81.4304C65.1403 81.571 65.331 81.65 65.53 81.65C68.03 81.58 66.37 77.65 64.6 78.91C63.82 79.45 64.6 80.76 65.36 80.2L65.43 80.16Z" fill="#231F20"/>
<path d="M60 110.88C60.75 108.02 65.22 101.08 67.36 99.55C69.07 98.33 70.69 97.74 72.66 98.55C74.6766 99.4915 76.467 100.856 77.91 102.55C79.32 104.14 81.27 105.99 81.68 108.15C81.74 108.69 70.87 114.78 60 110.88Z" fill="#231F20"/>
<path d="M49.3402 45.0901C47.9002 46.2601 57.0002 67.0001 71.4702 57.7301C75.6202 55.0601 81.2002 50.0701 81.1702 45.4901C81.1702 45.3101 57.2402 38.7001 49.3402 45.0901Z" fill="#231F20"/>
<path d="M37.1602 54.3802C35.4494 52.0794 33.9373 49.6372 32.6402 47.0802C32.1802 46.1502 31.6402 45.2602 31.2502 44.2902C29.7963 40.9397 28.6223 37.4745 27.7402 33.9302C27.5702 33.1402 27.3702 32.3502 27.1802 31.5602C26.9902 30.7702 26.8502 29.9802 26.6702 29.2002C26.1116 27.1841 25.9286 25.0825 26.1302 23.0002C26.2502 22.3402 26.6302 22.4202 27.2102 22.9102C27.9975 23.5453 28.5357 24.4376 28.7302 25.4302C28.9802 26.4302 29.0002 27.4302 29.2102 28.4302C29.4202 29.4302 29.5102 30.4302 29.7302 31.4302C29.9502 32.4302 30.0602 33.4302 30.2902 34.4302C30.5202 35.4302 30.7002 36.4302 30.9602 37.4302C31.6192 39.8524 32.5309 42.1986 33.6802 44.4302C34.8765 46.9228 36.257 49.3228 37.8102 51.6102C38.7839 53.0019 39.8356 54.3374 40.9602 55.6102C41.3702 56.1102 41.8302 56.6102 42.2802 57.0202C42.7302 57.4302 43.1802 57.9602 43.6602 58.3902C44.6097 59.2545 45.6116 60.0593 46.6602 60.8002L47.8902 61.6402L49.1802 62.4102C50.0302 62.9102 50.8902 63.4102 51.7502 63.7902C52.1302 63.9702 52.5102 64.1102 52.8902 64.2702C54.3202 64.8402 54.7602 65.0702 54.8902 65.7402C54.946 65.8863 54.9895 66.0368 55.0202 66.1902C55.0202 66.6702 54.2902 66.9002 53.0202 66.5902C51.1646 66.0572 49.401 65.2446 47.7902 64.1802L46.6002 63.4302L45.3902 62.5902L44.1902 61.7402L43.0602 60.7902C41.9476 59.8475 40.8861 58.846 39.8802 57.7902C38.8802 56.6902 37.8802 55.6202 37.0802 54.4402L37.1602 54.3802Z" fill="#231F20"/>
<path d="M87.53 53.25L88.71 51.62C89.08 51.06 89.41 50.47 89.76 49.9C90.464 48.7404 91.1082 47.5455 91.69 46.32C92.16 45.45 92.41 44.48 92.82 43.57C94.1788 40.3249 95.2203 36.9558 95.93 33.51C96.12 32.75 96.23 31.97 96.35 31.19C96.47 30.41 96.58 29.64 96.66 28.87C96.75 27.87 96.79 26.87 96.91 25.87C96.91 25.37 97.01 24.87 97.09 24.38C97.1531 23.8755 97.2705 23.3793 97.44 22.9C97.66 22.29 98.03 22.38 98.52 22.95C99.217 23.7165 99.6053 24.714 99.61 25.75C99.4815 27.8515 99.1973 29.9405 98.76 32C98.56 33 98.25 34.06 97.97 35.08C97.6904 36.0971 97.3566 37.0985 96.97 38.08C96.57 39.29 96.15 40.51 95.74 41.74C95.354 42.9827 94.9034 44.2043 94.39 45.4C93.89 46.74 93.18 47.98 92.57 49.27C92.25 49.91 91.85 50.51 91.5 51.13C91.15 51.75 90.8 52.37 90.37 52.95L88.84 55.1C88.32 55.8 87.71 56.45 87.15 57.1L86.51 57.86L85.79 58.56L84.35 60C83.8594 60.4502 83.3454 60.8741 82.81 61.27C82.28 61.67 81.81 62.12 81.24 62.5C80.37 63.05 79.53 63.63 78.69 64.21C77.85 64.79 76.89 65.21 75.98 65.67C75.5914 65.8978 75.1789 66.0822 74.75 66.22C73.14 66.78 72.58 66.8 72.09 66.34C71.9736 66.2436 71.8664 66.1365 71.77 66.02C71.51 65.62 72.04 65.02 73.09 64.57C76.3483 63.2059 79.3824 61.3585 82.09 59.09C82.6129 58.6807 83.1042 58.2328 83.56 57.75C84.04 57.28 84.56 56.83 84.99 56.35L86.29 54.81L86.94 54.04L87.52 53.21L87.53 53.25Z" fill="#231F20"/>
<path d="M39.6702 79.2901C38.8502 80.2901 38.0202 81.2301 37.2802 82.2901C36.9102 82.8101 36.5102 83.2901 36.1602 83.8401L35.1602 85.4601C34.6302 86.2301 34.2702 87.0901 33.7902 87.9001C32.1364 90.7718 30.7954 93.8125 29.7902 96.9701C29.548 97.6668 29.351 98.3782 29.2002 99.1001C29.0402 99.8101 28.8402 100.52 28.7302 101.24C28.5802 102.17 28.4802 103.1 28.3002 104.02C28.2302 104.48 28.1502 104.95 28.0602 105.41C27.9769 105.879 27.8359 106.336 27.6402 106.77C27.4002 107.34 27.0302 107.23 26.5602 106.67C25.8898 105.926 25.5318 104.952 25.5602 103.95C25.8034 101.959 26.2285 99.9939 26.8302 98.0801C27.1128 97.1197 27.4467 96.175 27.8302 95.2501C28.0202 94.7801 28.2002 94.3101 28.4102 93.8601L29.0702 92.5001L30.6402 89.2001C31.1202 88.0801 31.7102 86.9901 32.3002 85.9201C32.8902 84.8501 33.7202 83.6401 34.4202 82.5001C35.1202 81.3601 35.9702 80.3001 36.8202 79.2601L38.4002 77.3601L40.0702 75.5401C40.9002 74.6101 41.8602 73.8001 42.7402 72.9201C43.6202 72.0401 44.6202 71.2902 45.5602 70.4802C46.3102 69.8802 47.0402 69.2701 47.7602 68.6501C48.4802 68.0301 49.2802 67.4901 50.0402 66.9201C50.359 66.6576 50.6929 66.4139 51.0402 66.1901C52.3902 65.3701 52.9002 65.2501 53.4702 65.6101C53.6056 65.6793 53.733 65.7632 53.8502 65.8601C54.1902 66.1901 53.8502 66.8601 52.9402 67.5001C50.3002 69.5001 47.5302 71.5001 44.9402 73.8201C43.9402 74.6501 43.0902 75.5901 42.1502 76.4601C41.2102 77.3301 40.3702 78.3201 39.5802 79.3301L39.6702 79.2901Z" fill="#231F20"/>
<path d="M89.3303 78.4502C90.1703 79.5902 91.0803 80.6802 91.8303 81.8802L93.0003 83.6502C93.3803 84.2502 93.7203 84.8702 94.0803 85.4702L94.8903 86.7902C95.1303 87.2502 95.3803 87.7002 95.6103 88.1602C97.2392 91.4043 98.5455 94.8006 99.5103 98.3002L99.8503 99.4502L100.13 100.63C100.32 101.41 100.54 102.18 100.71 102.96C100.9 103.96 101.14 104.96 101.3 105.96C101.3 106.47 101.37 106.96 101.38 107.5C101.407 108.019 101.374 108.539 101.28 109.05C101.16 109.7 100.78 109.63 100.2 109.13C99.4066 108.516 98.8629 107.635 98.6703 106.65C98.4503 105.65 98.3303 104.65 98.1803 103.72C98.0303 102.79 97.7803 101.78 97.6003 100.8C97.2103 98.8002 96.7703 96.8802 96.1903 94.9302C95.4401 92.5645 94.4341 90.2878 93.1903 88.1402C92.5203 86.9502 91.8303 85.7702 91.1003 84.6002C90.3703 83.4302 89.6203 82.3002 88.7503 81.2302C88.2303 80.5602 87.7503 79.8702 87.1903 79.2302L85.5303 77.3202C84.6703 76.3202 83.7403 75.4802 82.8403 74.5602C81.9403 73.6402 80.9403 72.8302 79.9403 72.0402C79.1503 71.4502 78.3403 70.8802 77.5403 70.3302L75.0003 68.8402C74.6403 68.6102 74.2503 68.4302 73.8703 68.2202C72.4803 67.4402 72.1203 67.0502 72.1103 66.3502C72.0954 66.1939 72.0954 66.0365 72.1103 65.8802C72.2003 65.4002 72.9603 65.4102 74.1103 65.8802C77.5339 67.4715 80.6884 69.5869 83.4603 72.1502C84.5703 73.0602 85.5303 74.1502 86.5503 75.1502C87.5703 76.1502 88.4703 77.2802 89.3903 78.3802L89.3303 78.4502Z" fill="#231F20"/>
<path d="M70.9202 30.0001L69.5302 30.1301L68.1402 30.1801L65.3602 30.2701C63.5102 30.3201 61.6602 30.2001 59.8102 30.1701C58.4602 30.0901 57.1102 29.9901 55.8102 29.8701C54.6246 29.7736 53.4459 29.6066 52.2802 29.3701C51.1102 29.1601 49.9302 28.9901 48.7702 28.7301L45.3202 27.8501C44.7502 27.7001 44.1602 27.5801 43.6002 27.4001L41.9102 26.8301L38.9102 25.8301C37.9102 25.4901 36.9602 25.0501 35.9902 24.6701C34.7132 24.1918 33.4674 23.6341 32.2601 23.0001C31.0708 22.3918 29.9127 21.7243 28.7902 21.0001C28.0902 20.5501 28.3602 20.3101 29.1702 20.3201C30.3805 20.3619 31.569 20.6548 32.6602 21.1801C37.4544 23.5123 42.4825 25.3291 47.6602 26.6001C49.2446 27.0238 50.8594 27.3247 52.4902 27.5001C53.3102 27.6101 54.1202 27.7701 54.9502 27.8201L57.4302 28.0101C58.3302 28.0601 59.2402 28.2001 60.1402 28.1901L62.8702 28.2401C64.6902 28.3301 66.5102 28.1601 68.3202 28.1001C69.4502 28.1001 70.5602 27.9201 71.6702 27.8101C72.7802 27.7001 73.9102 27.6101 75.0102 27.3901C76.6802 27.1001 78.3702 26.8701 80.0102 26.4501C80.8402 26.2601 81.6702 26.0801 82.4902 25.8701L84.9102 25.1201C87.3618 24.2936 89.7346 23.2494 92.0002 22.0001C92.4902 21.7301 92.9302 21.4101 93.4202 21.1301C93.9101 20.8501 94.2502 20.6701 94.5702 20.5101C94.8231 20.3563 95.0911 20.229 95.3702 20.1301C95.7618 20.0146 96.1785 20.0146 96.5702 20.1301C96.7359 20.1638 96.8995 20.2072 97.0602 20.2601C97.2701 20.3701 97.2502 20.6201 97.0602 21.0001C96.7317 21.5649 96.2971 22.0607 95.7802 22.4601C91.7802 25.3301 86.9102 26.9401 82.0302 28.1701L79.2902 28.8001C78.3702 29.0201 77.4401 29.1301 76.5201 29.2901C75.6002 29.4501 74.6702 29.6201 73.7302 29.7101L70.9402 30.0101L70.9202 30.0001Z" fill="#231F20"/>
<path d="M55.0001 9.00008C56.9001 8.74008 58.8301 8.71008 60.7401 8.64008C62.6501 8.57008 64.5701 8.64008 66.4901 8.71008C67.8901 8.71008 69.2801 8.89008 70.6701 9.00008C75.5401 9.5571 80.3413 10.6058 85.0001 12.1301C87.0701 12.8101 89.1301 13.5401 91.1301 14.3701L93.0601 15.1801L94.9301 16.1201C95.5401 16.4901 96.1401 16.8001 96.7401 17.2401C97.3521 17.7268 97.8676 18.3238 98.2601 19.0001C98.4901 19.4201 98.4801 19.6901 98.3701 19.7101C98.2601 19.7301 98.0401 19.5901 97.7001 19.4201C97.2662 19.1866 96.8107 18.9957 96.3401 18.8501C96.0501 18.7501 95.8101 18.7201 95.4501 18.6101C95.1088 18.4859 94.775 18.3423 94.4501 18.1801C91.9801 17.0401 89.4501 15.9001 86.9201 14.9301C84.3901 13.9601 81.6901 13.0801 79.0001 12.3701C78.1901 12.1601 77.3701 11.9701 76.5501 11.7801C75.7301 11.5901 74.8701 11.5101 74.0201 11.3701C73.1701 11.2301 72.3301 11.1001 71.4801 11.0301L68.9201 10.8101C67.0501 10.5701 65.1701 10.6201 63.2901 10.5401C61.4101 10.4601 59.5301 10.6501 57.6501 10.6901C56.5001 10.7701 55.3501 10.9401 54.1901 11.0501C53.0358 11.1497 51.8875 11.31 50.7501 11.5301C49.0301 11.8801 47.2801 12.1401 45.5801 12.5301L40.5101 14.0001C39.2301 14.4501 37.9801 15.0001 36.7401 15.4701C35.5001 15.9401 34.2501 16.4701 33.0701 17.0901L31.4901 17.8801C29.4901 18.8201 28.8101 18.9901 28.1301 18.7001C27.9724 18.6522 27.8213 18.585 27.6801 18.5001C27.3001 18.2201 27.9801 17.5001 29.4301 16.7401C30.5001 16.1501 31.6001 15.5801 32.7201 15.0101L33.5601 14.5801L34.4401 14.2201L36.2101 13.5201C37.4101 13.0501 38.6101 12.5801 39.8201 12.1401L43.5701 11.0701C44.5001 10.8301 45.4201 10.5001 46.3701 10.3401L49.2301 9.78008C50.2301 9.61008 51.1201 9.37008 52.0901 9.26008L55.0001 8.90008V9.00008Z" fill="#231F20"/>
<path d="M43.0601 103.16C43.9901 102.9 44.9301 102.68 45.8701 102.46C46.2101 102.38 46.5401 102.25 46.8701 102.18C48.0801 101.93 49.3101 101.75 50.5201 101.55C51.0601 101.46 51.6001 101.36 52.1301 101.23C52.8011 100.956 53.5461 100.92 54.2401 101.13C54.4801 101.23 54.4601 101.35 54.3301 101.65L54.0501 102.24C53.945 102.433 53.7849 102.589 53.5901 102.69C52.26 103.113 50.8831 103.372 49.4901 103.46C48.6468 103.572 47.8141 103.753 47.0001 104C46.0801 104.22 45.1601 104.45 44.2501 104.7C43.6901 104.86 43.1301 105.02 42.5801 105.2C41.7368 105.464 40.9089 105.774 40.1001 106.13C39.5043 106.423 38.9296 106.758 38.3801 107.13L38.0201 107.39C37.848 107.493 37.6435 107.527 37.4472 107.487C37.2509 107.446 37.0771 107.333 36.9601 107.17C36.8859 107.108 36.8188 107.037 36.7601 106.96C36.5701 106.72 36.6401 106.37 36.9101 105.96C37.355 105.484 37.8838 105.094 38.4701 104.81C39.0491 104.494 39.6469 104.214 40.2601 103.97C41.1701 103.61 42.1101 103.31 43.0401 102.97L43.0601 103.16Z" fill="#231F20"/>
<path d="M87.5402 117.5C82.6187 119.104 77.5398 120.177 72.3902 120.7C70.5202 120.89 68.6402 121.08 66.7602 121.13C60.1352 121.284 53.5187 120.568 47.0802 119C44.2402 118.3 41.4102 117.46 38.6702 116.49C36.8827 115.868 35.1555 115.085 33.5102 114.15C31.8133 113.245 30.3193 112.003 29.1202 110.5C28.7502 110.01 28.6802 109.73 28.7702 109.69C28.8602 109.65 29.1102 109.83 29.5602 110.06C30.1622 110.371 30.7874 110.635 31.4302 110.85C32.1902 111.16 33.0502 111.56 33.9702 112.02C35.5467 112.903 37.1881 113.666 38.8802 114.3C40.6202 114.933 42.3835 115.497 44.1702 115.99C47.7476 117.022 51.3843 117.837 55.0602 118.43C59.5996 119.085 64.1971 119.239 68.7702 118.89C73.817 118.591 78.8181 117.76 83.6902 116.41C86.6917 115.58 89.6432 114.578 92.5302 113.41C93.6202 112.95 94.6902 112.41 95.7102 111.92C96.7212 111.414 97.6624 110.778 98.5102 110.03C98.8741 109.724 99.1502 109.328 99.3102 108.88C99.3525 108.698 99.3431 108.508 99.283 108.331C99.2229 108.155 99.1145 107.998 98.9702 107.88C98.1305 107.184 97.1572 106.666 96.1102 106.36C92.67 105.284 89.1486 104.488 85.5802 103.98L83.2302 103.62C80.3102 103.09 79.4202 102.62 78.8502 102.11C78.7162 101.991 78.5924 101.86 78.4802 101.72C78.2402 101.33 79.4802 101.16 81.7302 101.24C83.4064 101.351 85.0754 101.551 86.7302 101.84C88.3902 102.11 90.0602 102.43 91.7302 102.84C93.4489 103.222 95.1448 103.699 96.8102 104.27C97.7193 104.574 98.5968 104.966 99.4302 105.44C99.9466 105.746 100.412 106.131 100.81 106.58C101.054 106.883 101.253 107.22 101.4 107.58C101.558 107.984 101.623 108.418 101.59 108.85C101.557 109.418 101.381 109.968 101.08 110.45C100.966 110.647 100.835 110.834 100.69 111.01C100.563 111.181 100.422 111.341 100.27 111.49C99.7402 112.016 99.157 112.485 98.5302 112.89C97.3848 113.63 96.1847 114.282 94.9402 114.84C92.5452 115.906 90.0951 116.844 87.6002 117.65L87.5402 117.5Z" fill="#231F20"/>
<path d="M82.3402 38.8001C82.5802 38.8801 82.8102 38.9601 83.0502 39.0601C83.4263 39.207 83.7851 39.3947 84.1202 39.6201C84.4488 39.8303 84.7121 40.1282 84.8802 40.4801C84.9901 40.842 84.9901 41.2283 84.8802 41.5901L84.4502 42.7801C84.3502 43.0401 84.2302 43.2901 84.1202 43.5501C83.9102 44.0701 83.6602 44.5501 83.4102 45.0701C82.9229 46.077 82.3787 47.0552 81.7802 48.0001C80.6042 49.8646 79.2657 51.6215 77.7802 53.2501C76.4764 54.7235 75.0293 56.0634 73.4602 57.2501C72.0545 58.3094 70.5101 59.1708 68.8702 59.8101C68.0402 60.1301 67.1802 60.3101 66.3302 60.5601C65.4802 60.8101 64.5802 60.7801 63.7102 60.9001C60.1892 60.9498 56.7352 59.9356 53.8002 57.9901C51.2549 56.334 48.9642 54.3162 47.0002 52.0001C44.4574 49.1166 42.3975 45.8411 40.9002 42.3001C40.4502 41.1901 40.9002 41.2001 41.6302 41.9301C42.779 43.1382 43.8041 44.4581 44.6902 45.8701C46.6764 49.0381 49.1232 51.8928 51.9502 54.3401C54.6731 56.7906 58.0441 58.4049 61.6602 58.9901C63.8707 59.1943 66.0981 58.8722 68.1602 58.0501C70.2483 57.131 72.1707 55.8742 73.8502 54.3301C77.6778 50.9404 80.6837 46.7239 82.6402 42.0001L82.7902 41.6001C82.7902 41.5201 82.8702 41.4401 82.8602 41.3601C82.834 41.2756 82.7769 41.2042 82.7002 41.1601L82.4802 41.0001H82.3602L82.1202 40.9101C81.4463 40.6633 80.7584 40.4562 80.0602 40.2901C78.6402 39.9401 77.1902 39.6701 75.7302 39.4301C70.9499 38.6785 66.1191 38.294 61.2802 38.2801C57.5886 38.2824 53.9055 38.634 50.2802 39.3301C49.4902 39.4901 48.7402 39.6801 47.9602 39.8801C45.1002 40.6501 44.2902 41.0101 43.4602 40.8101C43.2741 40.7839 43.0903 40.7438 42.9102 40.6901C42.4402 40.5201 43.3802 39.4501 45.5802 38.5801C48.8792 37.3982 52.3314 36.6977 55.8302 36.5001C59.3712 36.2383 62.9256 36.2116 66.4702 36.4201C69.1368 36.5601 71.7768 36.8101 74.3902 37.1701C77.0738 37.4948 79.7261 38.04 82.3202 38.8001H82.3402Z" fill="#231F20"/>
<path d="M64.8302 68.17C64.5714 67.89 64.3949 67.5439 64.3202 67.17C64.241 66.8429 64.2173 66.5049 64.2502 66.17C64.2695 65.898 64.3337 65.631 64.4402 65.38C64.6721 64.9756 65.0234 64.6529 65.4459 64.456C65.8684 64.259 66.3414 64.1976 66.8002 64.28C67.1674 64.328 67.525 64.4326 67.8602 64.59C68.0879 64.6624 68.2962 64.7856 68.4694 64.9501C68.6426 65.1147 68.7762 65.3163 68.8602 65.54C68.8602 65.68 68.6802 65.8 68.4002 65.88C68.1633 65.9645 67.9098 65.9919 67.6602 65.96C67.2506 65.6122 66.7274 65.4271 66.1902 65.44C66.0324 65.4559 65.8833 65.5201 65.7634 65.6239C65.6435 65.7278 65.5586 65.8661 65.5202 66.02C65.3922 66.413 65.4099 66.839 65.5702 67.22C65.6141 67.3268 65.6793 67.4236 65.7618 67.5044C65.8444 67.5852 65.9425 67.6484 66.0502 67.69C66.2498 67.749 66.4594 67.7662 66.6659 67.7404C66.8724 67.7146 67.0713 67.6463 67.2502 67.54C67.372 67.4792 67.4753 67.3868 67.5492 67.2724C67.623 67.1581 67.6649 67.026 67.6702 66.89C67.6702 66.89 67.6702 66.89 67.6702 66.83C67.6702 66.77 67.6702 66.65 67.8902 66.42L68.0002 66.25C68.1002 66.1 68.3802 66.03 68.6802 66.32C68.7858 66.4613 68.8578 66.6248 68.8908 66.798C68.9237 66.9713 68.9167 67.1498 68.8702 67.32C68.8028 67.6159 68.6579 67.8886 68.4502 68.11C68.1012 68.4807 67.6537 68.7444 67.1602 68.87C66.7642 68.9911 66.3429 69.0039 65.9402 68.9072C65.5376 68.8105 65.1681 68.6077 64.8702 68.32L64.8302 68.17Z" fill="#231F20"/>
<path d="M71.93 72.4501C72.2342 72.6184 72.4893 72.8631 72.67 73.1601C72.8285 73.4185 72.9403 73.7029 73 74.0001C73.0726 74.2293 73.0998 74.4705 73.0801 74.7101C73.0146 75.1028 72.8281 75.4652 72.5466 75.7467C72.2651 76.0282 71.9027 76.2146 71.5101 76.2801C71.205 76.348 70.8918 76.3716 70.5801 76.3501C70.3886 76.3529 70.1991 76.312 70.0258 76.2306C69.8525 76.1491 69.7001 76.0293 69.5801 75.8801C69.5001 75.7701 69.6801 75.5801 69.9001 75.4001C70.0665 75.239 70.2638 75.1131 70.4801 75.0301C70.8528 75.1352 71.2473 75.1352 71.6201 75.0301C71.723 74.9847 71.8092 74.9082 71.8666 74.8114C71.9239 74.7146 71.9496 74.6022 71.9401 74.4901C71.9267 74.1763 71.8068 73.8765 71.6 73.6401C71.545 73.5776 71.4773 73.5274 71.4015 73.493C71.3256 73.4585 71.2434 73.4405 71.1601 73.4401C70.9992 73.4438 70.8411 73.4835 70.6975 73.5562C70.5539 73.6288 70.4284 73.7327 70.3301 73.8601C70.1701 74.0601 70.16 74.3601 70.24 74.4201C70.29 74.4201 70.32 74.4801 70.24 74.4201C70.19 74.4201 70.2401 74.5601 70.1101 74.8201L70.06 75.0101C70.06 75.1901 69.8001 75.3601 69.4401 75.2201C69.3094 75.1395 69.1991 75.03 69.1176 74.8999C69.0361 74.7699 68.9856 74.6228 68.9701 74.4701C68.9287 74.2059 68.9634 73.9354 69.07 73.6901C69.2349 73.2838 69.5168 72.9357 69.88 72.6901C70.1727 72.4508 70.5272 72.2994 70.9024 72.2534C71.2777 72.2074 71.6582 72.2686 72 72.4301L71.93 72.4501Z" fill="#231F20"/>
<path d="M66.0702 82.2C65.7422 82.2847 65.3981 82.2847 65.0702 82.2C64.7757 82.1466 64.4919 82.0452 64.2302 81.9C64.0205 81.7895 63.8311 81.6441 63.6702 81.47C63.4306 81.1502 63.2961 80.764 63.2854 80.3646C63.2746 79.9651 63.3881 79.5722 63.6102 79.24C63.7759 78.9762 63.9741 78.7343 64.2002 78.52C64.332 78.369 64.4976 78.2513 64.6836 78.1766C64.8695 78.1018 65.0706 78.0722 65.2702 78.09C65.3902 78.09 65.4102 78.36 65.3902 78.65C65.3939 78.879 65.3532 79.1065 65.2702 79.32C64.9307 79.5068 64.6528 79.7882 64.4702 80.13C64.4271 80.2337 64.4194 80.3487 64.4483 80.4572C64.4773 80.5657 64.5412 80.6616 64.6302 80.73C64.8644 80.9404 65.1656 81.0608 65.4802 81.07C65.5632 81.0776 65.6468 81.0663 65.7248 81.0368C65.8027 81.0074 65.873 80.9606 65.9302 80.9C66.0381 80.7808 66.1182 80.6391 66.1649 80.4853C66.2116 80.3314 66.2236 80.1691 66.2002 80.01C66.2002 79.75 65.9502 79.54 65.8602 79.56L65.6502 79.18L65.5602 79.02C65.4602 78.86 65.4802 78.58 65.8302 78.43C65.977 78.3912 66.1308 78.3863 66.2798 78.4157C66.4288 78.4452 66.5692 78.5082 66.6902 78.6C66.9134 78.7522 67.0899 78.9634 67.2002 79.21C67.3787 79.615 67.4377 80.0626 67.3702 80.5C67.3331 80.8618 67.198 81.2066 66.9795 81.4973C66.761 81.7881 66.4674 82.0137 66.1302 82.15L66.0702 82.2Z" fill="#231F20"/>
<path d="M107.39 8.23008C107.733 7.98595 108.158 7.88684 108.574 7.95423C108.989 8.02162 109.362 8.25008 109.61 8.59008C111.66 12.0001 103.14 10.7901 107.39 8.23008Z" stroke="#231F20" stroke-width="1.2" stroke-miterlimit="10"/>
<path d="M13.3301 36.6802C13.6094 36.3641 14.0017 36.1702 14.4224 36.1403C14.8432 36.1104 15.2589 36.2468 15.5801 36.5202C18.3501 39.3602 9.78012 40.1402 13.3301 36.6802Z" stroke="#231F20" stroke-width="1.2" stroke-miterlimit="10"/>
<path d="M113 17.42C113.343 17.1759 113.769 17.0768 114.184 17.1442C114.6 17.2116 114.972 17.44 115.22 17.78C117.27 21.18 108.75 20 113 17.42Z" fill="#231F20"/>
</svg>
