<svg width="128" height="128" viewBox="0 0 128 128" fill="none" xmlns="http://www.w3.org/2000/svg">
<path d="M54.4096 114.4L51.7196 115.4C51.6596 115.4 51.5796 115.49 51.5496 115.4L51.4396 115.24L51.2096 114.93L50.7696 114.29L49.9296 113.06L48.0896 110.31C46.8596 108.49 45.6796 106.62 44.4696 104.78C43.2596 102.94 42.1096 101.06 40.9296 99.19C39.7496 97.32 38.6196 95.44 37.4796 93.55C35.7896 90.81 34.1596 88.03 32.5496 85.25C26.9745 75.3604 22.0928 65.0957 17.9396 54.53C16.1896 49.81 14.4496 45.05 13.1296 40.22C12.1996 37.14 11.5096 33.98 10.8396 30.83L10.0996 26C9.89959 24.4 9.82959 22.79 9.70959 21.18C9.58959 19.18 10.0796 19.43 10.7096 21.06C11.1179 22.1631 11.452 23.2923 11.7096 24.44C12.0296 25.84 12.5096 27.44 12.7996 29.25C14.0198 35.5844 15.6907 41.8236 17.7996 47.92C19.9496 54.03 22.4196 60.04 25.0996 66.02C28.5304 73.2731 32.3424 80.3396 36.5196 87.19C41.0096 94.78 45.7896 102.19 50.7596 109.51L51.9096 111.19L52.3196 111.8C52.4096 111.92 52.4796 112.11 52.5996 112.16L53.8396 111.71C54.4896 111.47 55.1596 111.27 55.8396 111.06C58.4649 110.238 61.1361 109.57 63.8396 109.06C72.0596 107.59 80.4096 107.33 88.5796 106.93C94.8198 106.752 101.034 106.056 107.16 104.85C107.82 104.71 108.45 104.52 109.09 104.35C109.73 104.18 110.35 103.96 110.96 103.74C111.927 103.414 112.875 103.034 113.8 102.6C114.16 102.41 114.52 102.27 114.8 102.12C115.08 101.97 115.36 101.81 115.61 101.69C116.307 101.289 117.04 100.954 117.8 100.69C118.065 100.586 118.335 100.496 118.61 100.42C118.96 100.42 118.88 100.81 118.38 101.72C117.528 103.047 116.381 104.159 115.03 104.97C112.419 106.488 109.568 107.55 106.6 108.11C103.682 108.702 100.729 109.106 97.7596 109.32C91.8396 109.81 85.8996 109.93 79.9996 110.26C71.2596 110.75 62.4796 111.59 54.3796 114.43L54.4096 114.4Z" fill="#231F20"/>
<path d="M95.7196 51.5C97.1296 55.56 98.7196 59.57 100.46 63.5C101.08 64.95 101.84 66.33 102.46 67.77C104.76 72.8305 107.323 77.7673 110.14 82.56L111.14 84.15L112.14 85.7C112.82 86.7 113.46 87.79 114.14 88.76C115.07 90.02 115.96 91.33 116.96 92.53C117.45 93.13 117.96 93.76 118.37 94.4C118.78 95.04 119.37 95.61 119.83 96.22C120.42 97 120.1 97.22 119.24 96.84C117.866 96.2869 116.64 95.4206 115.66 94.31C114.56 93.07 113.57 91.77 112.59 90.46C111.61 89.15 110.69 87.79 109.76 86.46C108.02 83.69 106.39 80.85 104.92 77.92L102.16 72.62C101.16 70.86 100.3 69.04 99.4396 67.24C97.5396 63.24 95.8596 59.18 94.2896 55.06C93.7696 53.81 93.3596 52.51 92.9096 51.24C92.4596 49.97 91.9996 48.7 91.6196 47.4C91.0396 45.4 90.3896 43.47 89.8596 41.49C89.3296 39.51 88.7996 37.49 88.3596 35.49C88.0296 33.94 87.6596 32.41 87.2996 30.88C86.9396 29.35 86.7596 27.78 86.4996 26.22L86.3296 25.22C86.3296 24.87 86.2596 24.53 86.2396 24.22C86.0796 21.61 86.2396 20.76 86.8596 20.22C86.9842 20.0801 87.1252 19.9559 87.2796 19.85C87.7496 19.61 88.2196 20.65 88.4996 22.47C89.2769 28.0868 90.4125 33.6481 91.8996 39.12C92.3996 41.21 93.0596 43.27 93.6996 45.34C94.3396 47.41 95.0696 49.46 95.7696 51.51L95.7196 51.5Z" fill="#231F20"/>
<path d="M100.53 112.23C97.3498 112.34 86.2298 112.44 77.8198 114.03C66.9698 116.03 55.4198 117.97 50.8798 119.75C29.0798 92.75 12.3198 64.53 8.06982 35.75L11.5298 30.08C11.5298 30.08 24.9998 77.38 38.8698 94.81L51.9298 114.35C51.9298 114.35 62.8298 108.95 106.77 107.58C106.77 107.58 102.75 112.15 100.53 112.23Z" fill="#231F20"/>
<path d="M68.5698 19.8799C66.2598 20.0399 63.9498 20.0799 61.6498 20.1299C60.8098 20.1299 59.9798 20.2 59.1398 20.19C56.1398 20.19 53.2398 20.02 50.2998 19.85C48.9998 19.78 47.6798 19.77 46.3898 19.74C44.7128 19.7686 43.0372 19.6245 41.3898 19.3099C40.8698 19.1799 40.9598 18.8499 41.3898 18.4699C42.0147 17.932 42.8055 17.6248 43.6298 17.6C47.0245 17.5466 50.4197 17.6801 53.7998 18C55.8682 18.1148 57.9414 18.1148 60.0098 18C62.2898 18 64.5698 17.86 66.8398 17.7199C68.2398 17.6 69.6398 17.51 71.0298 17.32C73.1324 17.0967 75.2196 16.7461 77.2798 16.27C78.8381 15.8561 80.368 15.3417 81.8598 14.73C82.1898 14.6 82.5098 14.47 82.8598 14.36C83.1212 14.2634 83.3884 14.1832 83.6598 14.12C83.8557 14.0953 84.0539 14.0953 84.2498 14.12C84.5504 14.1537 84.8332 14.2795 85.0598 14.48C85.1654 14.5563 85.2657 14.6398 85.3598 14.73C85.5998 14.99 85.2498 15.5799 84.3598 16.2099C81.614 17.7076 78.6244 18.7064 75.5298 19.16C73.2198 19.55 70.8798 19.83 68.5298 20.01L68.5698 19.8799Z" fill="#231F20"/>
<path d="M25.9 18.9101L22.46 18.4101C22.04 18.3501 21.62 18.3501 21.2 18.2901C19.73 18.0801 18.26 17.8601 16.79 17.7301C16.1406 17.6901 15.4894 17.6901 14.84 17.7301C14.0344 17.7898 13.2256 17.7898 12.42 17.7301C12.17 17.7301 12.11 17.4301 12.26 17.0701C12.356 16.8445 12.4914 16.638 12.66 16.4601C12.8421 16.2754 13.0756 16.15 13.33 16.1001C15.0909 15.8304 16.8858 15.8778 18.63 16.2401C19.63 16.4301 20.75 16.4101 21.81 16.5101L25.3 16.8901L27.44 17.1301C28.52 17.2401 29.6 17.3801 30.68 17.4201C31.52 17.4201 32.35 17.4201 33.18 17.3601C33.3628 17.34 33.5472 17.34 33.73 17.3601C33.9868 17.3504 34.2375 17.4399 34.43 17.6101C34.579 17.7526 34.6803 17.9377 34.72 18.1401C34.72 18.2401 34.78 18.3301 34.79 18.4201C34.84 18.6901 34.54 19.0201 34.02 19.2401C32.491 19.5385 30.9233 19.5824 29.38 19.3701C28.22 19.2601 27.06 19.1001 25.9 18.9701V18.9101Z" fill="#231F20"/>
<path d="M25.5297 13.5C25.3997 13.85 25.0597 13.97 24.5297 13.97C24.3497 13.97 23.9697 13.74 23.9797 13.61C23.9993 13.3406 24.0394 13.0732 24.0997 12.81C24.3412 12.3718 24.6224 11.9567 24.9397 11.57C25.4005 11.0338 25.932 10.5629 26.5197 10.17C27.2661 9.68837 28.116 9.39025 28.9997 9.29996C30.7575 9.13066 32.5266 9.47821 34.0897 10.3C34.4171 10.5002 34.7222 10.7348 34.9997 11C35.9699 11.8611 36.8419 12.827 37.5997 13.88C37.7071 14.06 37.8383 14.2248 37.9897 14.37C38.4103 14.9135 38.7474 15.5168 38.9897 16.16C39.2634 16.7842 39.4744 17.434 39.6197 18.1C39.7697 19.1 39.8997 20.1 39.9997 21.1C40.04 21.2405 40.04 21.3895 39.9997 21.53C39.8999 21.8251 39.8999 22.1448 39.9997 22.44C40.0697 22.85 40.1297 23.26 40.1597 23.68C40.1466 23.9032 40.1098 24.1245 40.0497 24.34C39.9997 24.54 39.6797 24.52 39.6297 24.47C39.5797 24.42 39.3797 24.47 39.2597 24.55C39.2168 24.5586 39.1726 24.5586 39.1297 24.55C38.6213 23.761 38.1926 22.9236 37.8497 22.05L37.3397 20.29C37.1515 19.6415 36.9278 19.0039 36.6697 18.38C36.6064 18.1951 36.5628 18.004 36.5397 17.81C36.3654 17.3879 36.165 16.9771 35.9397 16.58C35.724 16.1947 35.4835 15.8239 35.2197 15.47C34.9198 15.0804 34.6491 14.6693 34.4097 14.24C34.3657 14.1519 34.3004 14.0763 34.2197 14.02C33.6074 13.4513 32.937 12.9485 32.2197 12.52C31.8298 12.3401 31.4204 12.2059 30.9997 12.12C30.9278 12.0907 30.8577 12.0573 30.7897 12.02C30.7013 11.9763 30.6069 11.946 30.5097 11.93C29.5442 11.7191 28.5358 11.8426 27.6497 12.28C27.5597 12.35 27.2397 12.43 26.9397 12.6C26.6867 12.7114 26.4537 12.8634 26.2497 13.05C26.1697 13.17 25.5697 13.34 25.5297 13.5Z" fill="#231F20"/>
<path d="M61.2597 10.87C61.1497 11.19 60.8197 11.28 60.2597 11.27C60.0797 11.27 59.6997 11.03 59.7097 10.9C59.7149 10.651 59.7451 10.4031 59.7997 10.16C60.0125 9.74365 60.2744 9.35422 60.5797 9C60.9892 8.49891 61.4672 8.05792 61.9997 7.69C62.6974 7.22988 63.4975 6.94829 64.3297 6.87C65.9703 6.73261 67.6151 7.08035 69.0597 7.87C69.3696 8.04328 69.6611 8.24766 69.9297 8.48C70.8207 9.28008 71.6251 10.1717 72.3297 11.14C72.433 11.3084 72.5573 11.463 72.6997 11.6C73.0858 12.0981 73.3958 12.6508 73.6197 13.24C73.8807 13.8061 74.0883 14.3953 74.2397 15C74.3597 15.95 74.4697 16.87 74.5597 17.77C74.5597 17.9 74.6297 18.03 74.5597 18.16C74.4595 18.4345 74.4595 18.7355 74.5597 19.01C74.6233 19.3841 74.6667 19.7613 74.6897 20.14C74.6742 20.345 74.6305 20.547 74.5597 20.74C74.5597 20.93 74.1997 20.92 74.1497 20.87C74.0997 20.82 73.8997 20.87 73.7797 20.96H73.6497C73.1627 20.2493 72.7537 19.4883 72.4297 18.69L71.9497 17.07C71.6997 16.28 71.4097 15.49 71.3297 15.34C71.2639 15.1736 71.2235 14.9984 71.2097 14.82C71.0523 14.4377 70.8686 14.0668 70.6597 13.71C70.4639 13.3613 70.2433 13.0271 69.9997 12.71C69.7307 12.3581 69.4932 11.9834 69.2897 11.59C69.2503 11.5104 69.1919 11.4417 69.1197 11.39C68.5598 10.8802 67.95 10.4279 67.2997 10.04C66.9474 9.87005 66.5788 9.73604 66.1997 9.64001C66.1302 9.63074 66.0627 9.61049 65.9997 9.58C65.9204 9.53964 65.8364 9.5094 65.7497 9.49C64.8882 9.29979 63.9874 9.41283 63.1997 9.81001C63.1197 9.87001 62.8297 9.93 62.5597 10.08C62.3285 10.1767 62.1155 10.3119 61.9297 10.48C61.8497 10.58 61.2897 10.72 61.2597 10.87Z" fill="#231F20"/>
<path d="M60.6897 41.5999C57.6897 41.7599 54.5897 41.8199 51.5397 41.8199C50.4297 41.8199 49.3197 41.8199 48.2097 41.8199C44.2963 41.7266 40.3897 41.5266 36.4897 41.22L31.2997 40.79C29.071 40.6422 26.87 40.2121 24.7497 39.5099C24.0897 39.2599 24.2397 39.14 24.8497 39.06C25.8429 38.9148 26.8495 38.8846 27.8497 38.97C32.2597 39.39 36.7197 39.7599 41.2197 40.0499C43.9197 40.2399 46.7397 40.1699 49.4997 40.1399C52.5397 40.1399 55.5797 40.0466 58.6197 39.86C60.4897 39.7699 62.3497 39.6299 64.2197 39.4599C67.031 39.216 69.8257 38.8086 72.5897 38.24C74.674 37.7749 76.7072 37.105 78.6597 36.24L79.8797 35.6599C81.3897 34.9399 81.8797 34.7399 82.3697 34.7499C82.4928 34.7399 82.6165 34.7399 82.7397 34.7499C82.9097 34.7499 82.9097 34.96 82.7397 35.29C82.6348 35.5039 82.5109 35.708 82.3697 35.9C82.1601 36.1461 81.9364 36.3798 81.6997 36.5999C81.2904 36.9332 80.8631 37.2437 80.4197 37.5299C79.9597 37.7899 79.4897 38.0499 79.0197 38.2599C78.065 38.6882 77.0828 39.0523 76.0797 39.3499C74.0695 39.9132 72.0253 40.3474 69.9597 40.65C66.8897 41.12 63.8097 41.3899 60.7297 41.5899L60.6897 41.5999Z" fill="#231F20"/>
<path d="M54.8298 69.9999C55.3598 70.9999 55.9198 72.0799 56.4798 73.1099C57.0398 74.1399 57.6398 75.1599 58.2798 76.1099L59.7198 78.2499C61.3998 80.7799 63.1398 83.2499 65.0598 85.6399C65.9098 86.6399 66.8198 87.7099 67.7498 88.6399C68.9498 89.8799 70.2098 91.0599 71.3298 92.3699C71.6798 92.7799 71.4198 92.9599 70.8698 92.8799C70.061 92.7287 69.3119 92.3507 68.7098 91.7899C66.0856 89.3386 63.7046 86.6394 61.5998 83.7299C60.3498 81.9799 58.9298 80.24 57.7098 78.41C57.0398 77.41 56.3698 76.4099 55.7098 75.3399L54.7798 73.7799L53.9998 72.2499C53.2598 70.9599 52.6398 69.5899 51.9998 68.2499C51.5398 67.2499 51.0698 66.1899 50.6398 65.1399C50.2098 64.0899 49.6998 63.0699 49.3298 61.9999C49.0498 61.1799 48.7398 60.3699 48.4198 59.5599C48.0998 58.7499 47.8798 57.9199 47.6398 57.0799C47.5175 56.7273 47.4206 56.3664 47.3498 55.9999C47.1198 54.5899 47.2698 54.0999 47.5798 53.7499C47.6426 53.6609 47.7165 53.5803 47.7998 53.5099C48.0498 53.3399 48.4098 53.8599 48.7998 54.8099C49.2898 56.2299 49.7998 57.6699 50.2698 59.1499C50.7398 60.6299 51.3198 62.0899 51.9298 63.5399C52.7978 65.7425 53.7791 67.8987 54.8698 69.9999H54.8298Z" fill="#231F20"/>
<path d="M74.87 66.78C75.39 67.69 75.87 68.62 76.47 69.51C77.07 70.4 77.5999 71.31 78.2 72.19C78.62 72.84 79.11 73.44 79.55 74.07C81.12 76.32 82.72 78.55 84.44 80.69C85.19 81.69 86.01 82.56 86.82 83.46C87.9139 84.5826 88.9455 85.7644 89.91 87C90.2 87.39 89.91 87.56 89.41 87.48C88.6826 87.3428 88.0115 86.9951 87.48 86.48C85.2081 84.2054 83.1121 81.7617 81.21 79.17C80.06 77.61 78.76 76.08 77.6 74.47C76.34 72.6634 75.14 70.84 74 69C73.3 67.85 72.63 66.69 72 65.5C71 63.72 70.19 61.85 69.37 60C68.77 58.55 68.1 57.15 67.63 55.64C67.502 55.3139 67.3951 54.9799 67.31 54.64C67.08 53.36 67.22 52.91 67.53 52.58C67.5982 52.5018 67.6717 52.4283 67.75 52.36C68 52.2 68.36 52.66 68.75 53.49C69.75 55.98 70.75 58.59 71.94 61.15C72.39 62.15 72.85 63.05 73.33 64C73.81 64.95 74.33 65.88 74.87 66.79V66.78Z" fill="#231F20"/>
<path d="M68.0996 64.35C65.8796 64.56 63.6596 64.69 61.4396 64.77C60.6296 64.77 59.8296 64.87 59.0196 64.88C56.1696 64.88 53.3196 64.81 50.4796 64.62L46.6996 64.38C45.0863 64.3048 43.4831 64.0839 41.9096 63.72C41.4196 63.6 41.5296 63.36 41.9896 63.13C42.6734 62.8333 43.4148 62.6933 44.1596 62.72C47.3896 62.91 50.5996 63.02 53.8696 63.25C55.87 63.3216 57.8727 63.2882 59.8696 63.15C62.0596 63.06 64.2596 62.93 66.4496 62.71C67.7996 62.58 69.1496 62.44 70.4496 62.23C72.4712 61.9694 74.4749 61.5853 76.4496 61.08C77.9351 60.6615 79.3807 60.1127 80.7696 59.44L81.6296 58.98C82.6296 58.42 82.9396 58.3 83.4396 58.39C83.5496 58.39 83.6796 58.39 83.7896 58.39C84.1396 58.44 84.0096 59.21 83.1796 59.93C81.9921 60.8995 80.6362 61.6419 79.1796 62.12C77.7393 62.611 76.2698 63.0118 74.7796 63.32C72.5716 63.7677 70.342 64.1014 68.0996 64.32V64.35Z" fill="#231F20"/>
<path d="M75.9999 80.92C74.0732 81.1067 72.1432 81.25 70.2099 81.35C69.5099 81.35 68.8099 81.48 68.0999 81.5C65.6199 81.5667 63.1399 81.5667 60.6599 81.5L57.3599 81.39C55.9451 81.389 54.5353 81.2212 53.1599 80.89C52.7299 80.77 52.8299 80.53 53.2299 80.3C53.8131 79.9942 54.4613 79.833 55.1199 79.83C57.9099 79.9 60.7099 79.83 63.5599 80.01C65.3027 80.0276 67.0453 79.9508 68.7799 79.78C70.6899 79.66 72.6099 79.5 74.5099 79.3C75.6899 79.17 76.8599 79.02 78.0199 78.84C79.7862 78.6194 81.5364 78.2854 83.2599 77.84C84.5383 77.4738 85.7699 76.9603 86.9299 76.31C87.1799 76.18 87.3599 76 87.5999 75.88C87.8399 75.76 88.1898 75.46 88.3399 75.39C88.4196 75.3509 88.5034 75.3207 88.5899 75.3L88.8699 75.22C88.9799 75.22 89.0799 75.12 89.1899 75.09C89.2999 75.06 89.4999 75.09 89.5899 75.42C89.6204 75.6489 89.6014 75.8816 89.5341 76.1025C89.4668 76.3233 89.3528 76.5271 89.1999 76.7C88.7228 77.2479 88.1371 77.6906 87.4799 78C86.8916 78.3403 86.2761 78.6313 85.6399 78.87C84.3856 79.3394 83.0988 79.717 81.7899 80C79.8781 80.4313 77.9456 80.7651 75.9999 81V80.92Z" fill="#231F20"/>
</svg>
