<?xml version="1.0" encoding="UTF-8"?><svg id="Layer_3" xmlns="http://www.w3.org/2000/svg" width="128" height="128" viewBox="0 0 128 128"><defs><style>.cls-1{fill:#242021;}.cls-2{fill:#231f20;}</style></defs><path class="cls-2" d="m77.74,98.43l-.36,6.73c-.04.82-.04,1.64-.1,2.46-.05.73-.11,1.46-.18,2.19-.03.36-.07.73-.12,1.1l-.09.75-.15.85-.3.53-.07.13h0s0,.01,0,.01h0s-.21-.37-.11-.19h0s-.02,0-.02,0c-.01,0-.02,0-.03,0h-.06s-.23.03-.23.03c-.16.04-.38.04-.62-.08l-.75-.45-1.9-1.22c-1.09-.68-2.18-1.36-3.26-2.03-1.39-.85-2.77-1.74-4.07-2.75-.4-.32-.26-.41.2-.31.45.1,1.24.33,2.07.76,1.47.77,2.92,1.58,4.37,2.4.72.41,1.44.83,2.16,1.24l.54.31c.16.09.42.25.39.24.06.06.14.13.25.21.05.05.06.01.06-.02l.03-.1c.05.05.14-1.16.16-1.97.03-.88.05-1.76.08-2.64l.2-6.76.12-4.17c.05-2.1.15-4.22.17-6.32.04-1.63-.09-3.23,0-4.86.02-.36.01-.71.05-1.08.09-.69.17-1.12.33-1.44.17-.32.36-.47.63-.54.12-.03.24-.09.36-.09.19,0,.33.15.42.4.09.26.11.57.14,1.06,0,1.37.15,2.85.1,4.32-.01,1.48-.06,2.99-.1,4.5-.07,2.25-.15,4.51-.22,6.77h-.05Z"/><path class="cls-2" d="m77.85,89.1l.09-9.41c0-1.14-.03-2.29,0-3.43l.21-6.05.29-6.05c.07-1.79.09-3.59.11-5.36,0-1.14.02-2.28.07-3.43.04-.57.03-1.14.12-1.71.1-.57.2-1.13.3-1.71.14-.71.18-.61.38,0,.14.38.29.81.44,1.25.09.26.21.54.28.84.05.3.09.61.11.94.17,2.33.15,4.66.11,6.99-.04,2.33-.11,4.67-.25,7.01-.16,2.81-.17,5.73-.25,8.6l-.43,9.47-.19,5.83c-.08,2.94-.18,5.9-.21,8.82-.02,2.27-.05,4.5-.07,6.74,0,.49-.01.98-.02,1.48-.05,1.85-.13,2.44-.33,2.83-.05.09-.09.21-.13.26-.15.18-.27-.58-.33-1.93-.17-4.01-.41-8.25-.37-12.5.02-3.16.03-6.33.05-9.49h.04Z"/><path class="cls-2" d="m43.26,82.66c.05,2.44-.06,4.89-.21,7.35-.04.89-.06,1.8-.14,2.69-.06.68-.15,1.37-.24,2.05-.13.73-.19,1.31-.5,2.22-.17.3-.43.62-.68.77-.21.17-.4.27-.59.4-.39.25-.78.49-1.16.72l-2.33,1.35c-1.21.69-2.41,1.42-3.59,2.13-1.53.9-3.05,1.83-4.74,2.45-.53.2-.54.01-.24-.42.3-.41.84-1.2,1.67-1.79,2.98-2.03,6.16-3.79,9.22-5.64l.64-.42c.23-.18.22-.14.29-.23,0-.07.06-.27.1-.44.05-.16.06-.38.09-.57.05-.4.11-.79.12-1.21.06-.82.1-1.66.13-2.49.13-2.43.14-4.87.22-7.32.04-1.51.08-3.02.08-4.52.01-2.28.02-4.58-.05-6.85-.04-1.76-.23-3.49-.29-5.23-.02-.38-.03-.76-.05-1.15-.02-1.43.05-1.89.32-2.22.06-.07.12-.17.18-.21.2-.15.41.43.58,1.47.53,3.1.77,6.39.95,9.7.13,2.45.2,4.92.26,7.39h-.05Z"/><path class="cls-2" d="m9.03,57.43l.32-3.07.19-1.55c.03-.25.08-.53.12-.81.02-.22.18-.79.34-1.17.2-.22.42-.52.61-.67l.43-.38.83-.71c.78-.65,1.52-1.34,2.31-1.97,2.79-2.21,5.63-4.34,8.46-6.47,1.26-.94,2.47-1.96,3.72-2.9.79-.62,1.59-1.24,2.4-1.83.85-.54,1.7-1.09,2.67-1.47.6-.23.62-.05.39.53-.22.6-.69,1.6-1.49,2.44-3.04,2.69-6.32,5.1-9.68,7.47-2.01,1.42-3.91,3.14-5.83,4.74l-1.51,1.27-.73.64-.34.31c-.07.06-.1.09-.15.14-.03.06-.05.12-.07.21l-.09.48-.16,1.04-.27,2.13c-.2,1.69-.38,3.38-.54,5.08-.23,2.57-.47,5.15-.58,7.71-.1,1.99-.02,3.94-.05,5.9,0,.43,0,.85-.02,1.29-.05,1.61-.2,2.11-.61,2.46-.09.08-.18.19-.27.24-.28.17-.61-.49-.77-1.7-.53-3.57-.35-7.3-.22-11.04.13-2.78.33-5.56.54-8.34h.06Z"/><path class="cls-2" d="m7.83,76.39c0-5.38.03-10.76.09-16.14.02-1.96-.03-3.93.01-5.89l.04-2.6c.05-.29-.1-1.26.27-1.83.09-.15.16-.31.28-.45l.39-.38c.14-.15.25-.22.33-.29l.27-.22c1.43-1.11,2.88-2.04,4.32-3.01l8.67-5.69c2.56-1.69,5.07-3.46,7.52-5.24,1.56-1.16,3.12-2.33,4.69-3.49,1.6-1.11,3.11-2.32,4.98-3.09,1.14-.51,1.07-.36.56.66-.26.51-.56,1.31-1.06,2.12-.52.79-1.25,1.57-2.12,2.3-.77.65-1.57,1.26-2.39,1.84l-2.45,1.74c-1.64,1.15-3.3,2.27-4.97,3.38-3.34,2.21-6.73,4.35-10.15,6.46-2.03,1.26-4.09,2.64-5.98,4.07l-.33.26c-.06.05-.08.07-.12.11-.09.06-.11.16-.1.26l-.03,1.65c-.01,1.23-.02,2.47-.04,3.69-.05,5.4-.08,10.81-.07,16.22.01,3.33.03,6.66.09,9.98.09,5.04.17,10.1.44,15.09.21,3.88.61,7.67,1.01,11.49.09.84.21,1.66.29,2.5.14,1.57.22,2.6.13,3.34-.04.37-.1.66-.2.91-.13.25-.29.46-.44.65-.14.17-.24.39-.34.49-.21.33-1.22-.86-1.55-3.18-1.11-6.85-1.52-14.13-1.79-21.42-.2-5.42-.26-10.86-.33-16.29h.07Z"/><path class="cls-2" d="m43.51,70c.13,5.25.31,10.49.53,15.75.08,1.92.24,3.83.3,5.75l.06,2.55c0,.43.02.85.01,1.29v.66s0,.33,0,.33v.16s-.02.25-.02.25c-.03.35-.09.71-.17,1.04-.16.31-.36.6-.6.85-.58.55-.96.73-1.36.98-.79.46-1.55.85-2.32,1.24-3.06,1.52-6.09,2.93-9.04,4.53-2.62,1.41-5.15,3-7.53,4.72-1.53,1.11-2.99,2.3-4.42,3.52l-2.18,1.79c-.37.3-.72.6-1.08.91-.17.16-.38.28-.57.42-.2.13-.36.31-.59.41-1.11.57-1.02.46-.74-.66.23-1.17,1.09-3.04,2.7-4.66,6.03-5.39,13.14-9.24,20.32-12.46,1.07-.48,2.14-.99,3.16-1.53.51-.27,1.01-.56,1.41-.84.15-.1.17-.13.25-.21.07-.08.04-.19.06-.28,0-1-.04-2.29-.09-3.47-.05-1.21-.1-2.41-.16-3.61-.21-5.29-.42-10.59-.58-15.89-.08-3.26-.17-6.53-.25-9.79-.12-4.94-.14-9.91-.17-14.82-.03-1.91-.06-3.8-.09-5.69-.04-1.89-.08-3.77-.05-5.67,0-.83-.01-1.65,0-2.49.05-1.56.19-2.58.4-3.29.19-.71.46-1.11.81-1.41.16-.14.31-.33.46-.4.45-.26.89,1.04.99,3.3.07,6.72.15,13.76.22,20.84.08,5.27.19,10.57.38,15.86h-.07Z"/><path class="cls-2" d="m76.13,96.64c-.16-7.15-.18-14.31-.26-21.47-.05-2.61-.11-5.22-.16-7.83l-.16-13.79-.07-3.13c.01-.12-.13-.18-.19-.27-.02-.02-.03-.04-.07-.07l-.16-.12-.31-.24c-.4-.32-.89-.62-1.35-.92-1.91-1.19-3.93-2.31-5.93-3.44-3.56-2.01-7.17-4.01-10.63-6.18-2.24-1.37-4.41-2.87-6.52-4.46-2.06-1.65-4.14-3.35-5.64-5.57-.83-1.46-.74-1.22.54-.55.66.32,1.46.88,2.53,1.42.52.28,1.02.67,1.56,1.05.56.37,1.13.78,1.71,1.23,4.12,3.16,8.64,5.85,13.22,8.47,2.32,1.29,4.64,2.58,6.97,3.88,1.17.66,2.34,1.32,3.52,2.07l.88.57c.3.2.6.44.9.66.26.13.69.69,1.06,1.1l.14.16.07.08c-.04.06.01.07.01.11.05.13.11.26.11.41l.03.44v.35c.06,6.47.31,13.11.42,19.67.1,7.21.21,14.43.22,21.64.02,4.44.04,8.88.06,13.32l.04,6.37v1.68c0,.76.02,1.55-.03,2.26-.02.08,0,.19-.04.23l-.11.14c-.06.09-.12.18-.17.27l-.14.26-.06.13s-.02.04-.04.06h0s0,0,0,0c.06.12-.14-.28.14.28h0s-.02,0-.02,0h-.04c-.45-.17-.76-.1-1.44-.65l-1.08-.82-.97-.72-1.5-1.09c-1-.72-2.02-1.42-3.03-2.11-4.28-2.9-8.62-5.53-13.1-7.92-.98-.54-1.97-.98-2.97-1.5-3.74-1.79-4.83-2.15-5.53-3-.17-.18-.43-.37-.55-.52-.2-.26.12-.44,1.02-.56.89-.11,2.17.2,3.67.76,4.42,1.75,8.53,4.14,12.61,6.7,2.04,1.28,4.05,2.63,6.06,4,.99.7,1.99,1.4,2.98,2.11l1.48,1.08c.23.17.59.43.48.35h0s0,0,0,0h0s0,0,0,0h0s0-.37,0-.37l-.05-5.32c-.05-3.55-.06-7.11-.17-10.67h.06Z"/><path class="cls-2" d="m109.13,47.63l.12,20.98c.03,2.55.07,5.1.1,7.64l.05,9.33.05,4.66.09,4.9-.06.38-.03.19v.02s0,.01,0,.01c-.04-.02.09.04-.09-.04h0s0,0,0,0l-.02.04-.05.08c-.11.21-.32.38-.51.56l-1.02.65-1.75,1.1-3.48,2.22c-3.34,2.16-6.61,4.45-9.76,6.82-4.06,3.02-7.99,6.21-11.83,9.5-1.18,1.05-1.16.79-.42-.37.37-.58.93-1.38,1.65-2.31.36-.47.76-.97,1.21-1.47.46-.49.96-1,1.51-1.5,1.78-1.64,3.62-3.21,5.49-4.74,1.92-1.47,3.86-2.89,5.84-4.27,1.98-1.38,3.98-2.73,6-4.04l3.05-1.95,1.53-.96.38-.24.1-.05c.06-.02.1-.06.09-.12v-.28s0-.61,0-.61v-1.22c-.05-6.27-.26-12.78-.33-19.19-.06-7.03-.13-14.07-.19-21.11-.06-4.33-.12-8.66-.28-12.97-.06-1.63-.13-3.27-.24-4.9-.05-.81-.11-1.62-.2-2.43l-.09-.76c-.03-.23-.07-.45-.13-.68-.04-.1-.07-.24-.17-.29-.11.01-.18.12-.28.18-.18.14-.36.29-.53.43l-1.59,1.37c-1.23,1.08-2.46,2.15-3.69,3.23-3.83,3.33-7.55,6.65-11.66,9.63-.9.66-1.79,1.31-2.77,1.89-1.8,1.09-3.09,1.68-4.05,1.96-.94.31-1.59.26-2.1.13-.24-.06-.53-.11-.67-.2-.47-.35.98-1.06,3.45-2.58,3.65-2.32,7.24-5.11,10.79-8.05,1.78-1.47,3.55-2.98,5.32-4.52l2.66-2.32,1.34-1.17.67-.59.34-.29c.15-.14.43-.37.64-.53l1-.79.5-.39.25-.2c.07-.03.13-.02.2-.03l.79-.08c.24-.09.6.12.8.24.43.29.8.83,1,1.63.09.41.19.81.24,1.25l.09.65.06.53c.19,1.82.28,3.59.37,5.37.16,3.55.24,7.09.31,10.62h-.06Z"/><path class="cls-1" d="m16.19,84.1s0,0,0,.01c.03.04.04.06.03.07-.22.12-.3.33-.39.52-.09.2-.18.4-.26.6-.16.4-.29.81-.41,1.23-.13.41-.16.85-.19,1.27-.01.21-.02.43-.02.64.06.22.08.43.19.65.01.02.01.03,0,.04h0s.39.09.78.12.75.02.79,0h0s-.02-.04,0-.05c.08-.05.07-.11.11-.16.22-.31.27-.63.39-.94.12-.31.25-.61.35-.91.11-.3.25-.59.39-.88l.23-.42.12-.2c.04-.07.02-.17.03-.26,0-.01.03-.01.07,0,0,0,.01,0,.01,0,0-.03-.49-.35-1.09-.71-.6-.36-1.11-.64-1.14-.62Z"/><path class="cls-1" d="m23.57,73.07s0,0,0,.02c.01.05.01.08,0,.09-.21.12-.42.23-.61.38-.17.16-.34.33-.51.5-.32.35-.6.73-.86,1.12-.26.39-.5.8-.65,1.24-.17.44-.3.88-.41,1.33,0,.02-.02.03-.05.03,0,0-.01,0-.01,0,0,.04.29.19.66.34.37.15.69.25.7.23,0,0,0,0,0-.01-.02-.02-.03-.04-.02-.06l.11-.16c.22-.31.46-.6.71-.88.27-.26.48-.56.73-.81.25-.26.52-.5.78-.74.13-.12.27-.23.41-.34l.36-.41s.03,0,.07.03c0,0,.02,0,.02,0,.02-.02-.28-.47-.67-.99-.39-.52-.73-.93-.76-.91Z"/><path class="cls-1" d="m32.63,66.26s0,0,0,0c0,.04-.02.05-.04.05-.32-.14-.52.06-.74.15-.22.12-.44.24-.65.37-.43.26-.84.54-1.22.85-.4.29-.74.67-1.03,1.06-.14.2-.32.37-.41.62-.08.26-.17.49-.29.7,0,.02-.02.02-.05.02,0,0-.01,0-.01,0-.01.04.17.23.42.43.24.2.47.34.5.33h0s0-.05.01-.06l.18-.12c.17-.12.43-.15.59-.26.17-.11.33-.22.5-.32.17-.1.34-.2.51-.29.16-.11.32-.22.48-.32.33-.2.66-.38,1.01-.54.17-.08.35-.15.52-.22.17-.08.38-.06.47-.36,0-.02.03-.01.05.01,0,0,.01,0,.01,0,.02-.04-.14-.53-.34-1.08-.2-.55-.41-1.01-.46-1.03Z"/><path class="cls-1" d="m51.77,67.79s0,0,.01,0c.03-.04.05-.05.06-.04.39.26.81.32,1.19.51.38.17.73.39,1.05.65.31.27.66.54.99.88.3.35.72.65,1.11.99.01.01.02.03,0,.06,0,0,0,.01,0,.01.03.03.3-.11.6-.31.3-.2.53-.39.52-.43,0,0,0,0-.01,0-.03,0-.05-.02-.05-.03l-.08-.24-.27-.73c-.12-.23-.26-.45-.41-.67-.29-.45-.64-.89-1.08-1.26-.43-.38-.92-.7-1.43-.96-.51-.25-1.03-.51-1.59-.5-.02,0-.04-.03-.05-.07,0,0,0-.02,0-.02-.05,0-.2.48-.35,1.08s-.24,1.1-.21,1.12Z"/><path class="cls-1" d="m61.41,79.31s0,0,.01,0c.03-.01.05-.01.06,0,.12.22.28.39.41.59l.48.51c.32.35.58.75.87,1.13.29.38.56.79.77,1.22.21.42.54.82.71,1.28,0,.02,0,.03-.01.05h0s.26.06.54.05c.28-.01.52-.07.53-.12,0,0,0,0,0-.01-.02-.02-.03-.04-.02-.07.01-.1.03-.2.03-.3.03-.59.05-1.21-.17-1.75-.18-.55-.41-1.07-.68-1.58-.29-.5-.65-.95-1.03-1.38-.2-.21-.39-.44-.63-.61-.26-.15-.51-.32-.81-.4-.02,0-.03-.03-.03-.07,0,0,0-.01,0-.01-.05-.02-.31.29-.57.69-.26.39-.46.74-.44.78Z"/><path class="cls-1" d="m91.76,73.48s0,0,0,.01c.03.03.04.05.03.06-.26.35-.32.75-.48,1.13-.14.38-.31.76-.51,1.12-.16.38-.34.77-.55,1.14-.2.38-.47.7-.62,1.16,0,.02-.02.03-.04.03h0s.09.19.23.34c.14.15.28.26.32.24h0s.02-.04.04-.05l.23-.1c.44-.2.75-.55,1.1-.85.33-.32.68-.66.95-1.04.27-.39.51-.79.73-1.21.21-.42.45-.84.46-1.34,0-.02.02-.03.06-.04,0,0,.01,0,.01,0,0-.04-.44-.21-.97-.37s-.99-.27-1.01-.24Z"/><path class="cls-1" d="m100.46,59.66s-.02,0-.03,0c-.07.02-.12.01-.15-.01l-2.56-1.97c-.85-.66-1.74-1.28-2.64-1.87-.9-.6-1.81-1.18-2.73-1.76-.93-.56-1.92-1.03-2.99-1.35-.04-.01-.07-.03-.11-.05h-.02c-.09-.03-.21.04-.28.15s-.08.26-.02.33h.02s.07.06.1.09l.37.39c.34.41.74.73,1.11,1.08.36.37.77.67,1.17.99.79.64,1.58,1.29,2.35,1.96,1.53,1.35,3.16,2.58,4.7,3.92.03.02.04.07.04.14,0,.01,0,.02,0,.03.06.05.49-.36.96-.93s.79-1.08.72-1.13Z"/><path class="cls-1" d="m97.76,51.05s0,.01,0,.02c0,.06-.01.1-.04.13-.84.73-1.55,1.6-2.33,2.42-.77.84-1.59,1.64-2.36,2.5l-2.34,2.58c-.39.44-.78.88-1.12,1.36l-.52.72c-.15.26-.28.54-.41.81-.02.04-.05.07-.09.09,0,0-.01.01-.02.02-.04.09.15.34.43.55s.56.34.63.29c0,0,.01-.01.01-.02.01-.04.04-.08.07-.11l.45-.34c.84-.7,1.6-1.47,2.39-2.23l2.39-2.28c.81-.76,1.58-1.56,2.36-2.37.77-.81,1.59-1.61,2.16-2.64.02-.04.06-.06.12-.07.01,0,.02,0,.02-.02.04-.09-.31-.47-.79-.84-.48-.37-.93-.63-1-.58Z"/><path class="cls-1" d="m86.48,82.66s0,0,0,.01c.03.03.03.05.02.07-.29.33-.54.67-.75,1.04-.22.36-.47.71-.73,1.04-.25.33-.51.67-.8.96-.14.15-.29.29-.45.41-.16.13-.32.24-.46.4-.01.01-.03,0-.05,0,0,0-.01,0-.01,0-.02.03.08.33.23.68.15.35.3.63.35.62,0,0,0,0,0,0,0-.03.02-.05.04-.05l.27-.05c.49-.18.92-.46,1.33-.74.4-.3.8-.61,1.13-.97.33-.36.64-.74.93-1.13.3-.38.51-.83.65-1.3,0-.02.03-.03.07-.03,0,0,.01,0,.01,0,0-.04-.39-.28-.88-.54-.49-.25-.91-.44-.94-.42Z"/><path class="cls-2" d="m103.72,21.22c.11.15-.03.35-.26.55-.08.07-.33.14-.39.1-.11-.07-.22-.14-.32-.22-.05-.05-.64-.92-.88-1.21-.24-.28-.36-.59-.49-.91-.28-.63-.45-1.29-.61-1.95-.04-.15-.05-.3-.03-.45.05-.53-.04-1.04-.18-1.54-.02-.08-.02-.17-.12-.24-.17-.11-.4-1.5-.35-1.69.1-.47.15-.93.23-1.38.01-.07-.03-.13.07-.2.23-.16.17-.29.18-.43.02-.19.06-.39.13-.58.04-.1.17-.2.27-.3.09-.09.44-.06.48-.04.12.08.28,0,.42-.02.05,0,.11-.01.15-.01.07,0,.85,1.02.83,1.13,0,.01.08.4.16.8.09.4.18.82.21.9.03.09-.01.18-.04.28-.02.05.32,1.23.32,1.28,0,.26.13.49-.04.77-.03.06-.01.11,0,.15.1.43.09.87.12,1.31.01.23.09.44.12.66,0,.04-.01.09-.02.13,0,.05-.02.11,0,.16.07.53.07,1.07.19,1.59.02.12-.1.76-.05.9.01.08-.16.4-.11.46Z"/><path class="cls-2" d="m112.87,25.52c-.06.12-.26.03-.49-.15-.08-.06-.23-.28-.22-.34,0-.11.01-.22.03-.32.02-.05.38-.72.47-.99.1-.25.22-.47.37-.64l.97-1c.07-.07.16-.12.26-.15.37-.07.65-.28.89-.54.04-.04.1-.07.08-.18-.02-.18.7-.79.85-.8.37,0,.69-.08,1.03-.12.05,0,.07-.06.16,0,.23.16.28.08.37.04.12-.05.26-.09.41-.09.08,0,.22.08.34.14.11.05.31.39.31.43.02.13.17.25.26.38.03.04.07.1.1.14.05.08-.16,1.08-.22,1.13,0,0-.19.22-.39.45-.19.22-.38.45-.44.52-.04.06-.13.04-.21.04-.03,0-.65.64-.68.66-.17.07-.27.25-.55.16-.06-.02-.08.01-.11.04-.24.2-.56.28-.87.38-.16.05-.28.15-.42.23-.03.01-.07,0-.1,0-.04,0-.09,0-.12.02-.16.1-.34.17-.51.25-.19.06-.37.12-.53.22-.08.04-.58.05-.66.11-.05.03-.35-.08-.37-.02Z"/></svg>