<svg width="128" height="128" viewBox="0 0 128 128" fill="none" xmlns="http://www.w3.org/2000/svg">
<path d="M21.2198 40.0801C19.5698 34.7501 24.0898 21.0001 34.4398 18.3101L15.7598 29.2001L21.2198 40.0901V40.0801Z" fill="#231F20"/>
<path d="M53.1698 55.2599C47.2498 54.3199 39.9498 61.5399 31.6198 57.8299C25.8898 55.2799 20.7798 43.0699 20.7798 43.0699C20.9398 43.9199 31.1298 69.6699 31.1298 69.6699L41.3898 61.5399L53.1698 55.2599Z" fill="#231F20"/>
<path d="M98.0098 29.23C97.7798 30.01 97.5598 30.79 97.3298 31.57C97.2498 31.86 97.2298 32.15 97.1598 32.44C96.8998 33.45 96.5898 34.47 96.3398 35.5C96.2298 35.96 96.1798 36.42 96.0898 36.87C95.9998 37.46 95.9098 38.04 95.7198 38.62C95.6598 38.8 95.5198 38.77 95.3598 38.6C95.2098 38.43 94.9798 38.12 94.9298 37.77C94.8598 37.15 94.7498 36.52 94.7898 35.91C94.8298 35.3 94.8998 34.68 95.0398 34.08C95.2198 33.36 95.2398 32.59 95.3598 31.84C95.4998 31.02 95.6598 30.2 95.8498 29.39C95.9798 28.89 96.0998 28.39 96.2298 27.89C96.4198 27.13 96.6498 26.38 96.8398 25.62C96.9898 25.02 97.0198 24.41 97.2198 23.75C97.2698 23.6 97.2998 23.45 97.3798 23.29C97.6698 22.69 98.2698 22.55 98.6198 23.01C98.6998 23.11 98.7598 23.22 98.7998 23.33C98.8598 23.53 98.8698 23.73 98.9098 23.78C98.9298 23.82 98.9398 23.8 98.9698 23.87C98.9998 23.92 99.0698 24.03 99.0798 24.04C99.1298 24.07 99.1598 24.14 99.1698 24.19C99.1798 24.46 99.0898 24.97 98.9898 25.43C98.8898 25.91 98.7598 26.41 98.6298 26.92C98.4398 27.68 98.2198 28.46 98.0398 29.24H97.9898L98.0098 29.23Z" fill="#231F20"/>
<path d="M89.8401 63.48C70.2601 68.07 70.7401 53.55 70.2601 49.38C70.2601 49.38 70.0001 60.26 71.8001 63.32C73.6001 66.38 76.1701 65.73 78.4201 66.24C80.6701 66.75 89.8401 63.49 89.8401 63.49V63.48Z" fill="#231F20"/>
<path d="M71.99 33.4301C71.84 34.4101 69.62 51.4501 63.1 52.0201C60.48 52.2501 69.62 55.0101 69.62 55.0101L71.99 33.4301Z" fill="#231F20"/>
<path d="M52.7299 112.44C52.7099 113.44 50.3599 114.69 47.5699 115.19C44.7799 115.69 42.1899 115.26 42.1899 114.31C42.1899 113.29 43.9299 111.81 46.7299 111.31C49.5299 110.81 52.7599 111.38 52.7299 112.44Z" fill="#231F20"/>
<path d="M95.9899 32.03L97.3699 27.76L98.0499 25.64L98.1299 25.38L98.1599 25.32L98.2099 25.21L98.3099 24.96L98.3999 24.71L98.4299 24.59C98.4299 24.59 98.4499 24.5 98.3999 24.52C98.3299 24.54 98.2599 24.58 98.1899 24.61C98.0499 24.68 97.9299 24.74 97.7899 24.77C97.7199 24.79 97.6999 24.79 97.5699 24.84L96.8099 25.13L95.2799 25.68C94.2499 26.04 93.2199 26.37 92.1699 26.67C90.0799 27.27 87.9399 27.76 85.7699 28.03C83.8399 28.27 81.8799 28.42 79.9199 28.28C78.6699 28.19 77.3899 28.02 76.1799 27.61C75.5799 27.4 74.9899 27.14 74.4299 26.82C74.1499 26.66 73.8799 26.5 73.6199 26.31C73.3599 26.12 73.1699 25.83 72.9599 25.58C72.4999 24.87 72.5799 25 73.2999 25.04C73.6599 25.07 74.2499 24.93 74.7599 25.02C75.2999 25.07 75.8999 25.14 76.4999 25.29C80.7699 26.51 85.5199 25.82 90.1899 24.74C91.5999 24.41 92.9999 23.93 94.3799 23.38C95.0699 23.1 95.7599 22.81 96.4499 22.5L98.1199 21.76C98.6999 21.51 99.3099 21.22 99.7899 21.15C100.12 21.1 100.41 21.09 100.65 21.13C100.77 21.15 100.87 21.17 100.97 21.2C101.02 21.22 101.07 21.23 101.13 21.26C101.19 21.28 101.26 21.35 101.26 21.39C101.44 21.74 101.53 22.32 101.45 23.06C101.25 23.93 101 24.81 100.74 25.69L100.19 27.46L99.1599 30.69C98.5399 32.64 97.9299 34.59 97.3799 36.56C96.5599 39.53 95.7899 42.54 95.4799 45.55C95.3499 46.72 95.3499 47.88 95.4299 49C95.5099 50.12 95.7099 51.22 96.1099 52.12C96.1999 52.31 96.3199 52.49 96.4099 52.67C96.5199 52.84 96.6499 52.97 96.7599 53.14C96.9999 53.39 97.1899 53.59 97.3899 53.72C97.5599 53.89 97.7499 53.97 97.8799 54.09C98.1399 54.39 98.3499 54.57 98.4999 54.91C98.5699 55.06 98.6799 55.21 98.7299 55.34C98.8099 55.57 98.6499 55.75 98.2199 55.88C97.8099 56.02 97.0399 56.1 96.1999 55.65C94.9099 55.02 94.0299 53.76 93.5699 52.56C93.0999 51.34 92.8899 50.1 92.8199 48.9C92.6699 46.49 92.9999 44.16 93.4099 41.89C94.0399 38.51 94.9799 35.25 95.9299 32.02H95.9899V32.03Z" fill="#231F20"/>
<path d="M43.4002 58.13C45.4502 57.04 47.5502 56.05 49.6902 55.15C50.4802 54.83 51.2302 54.44 52.0302 54.16C54.8502 53.16 57.7902 52.42 60.8202 52.13C62.1702 52.02 63.5402 51.97 64.9102 52.09C65.7902 52.15 66.6902 52.34 67.5602 52.63C68.4102 53 69.1302 53.68 69.6202 54.45C69.9302 54.93 69.7602 54.96 69.2102 54.96C68.9302 54.96 68.5802 54.96 68.1302 55.04C67.7002 55.12 67.2602 55.2 66.8702 55.15C65.5902 54.75 64.1302 54.64 62.6202 54.7C61.1102 54.78 59.5302 54.92 57.9202 55.17C55.9902 55.46 54.0902 56.29 52.2202 57.05C50.1602 57.89 48.1302 58.84 46.1502 59.89C44.9302 60.53 43.7202 61.22 42.5402 61.94C40.7602 63.05 38.9802 64.19 37.3502 65.5C36.0902 66.52 34.9902 67.68 33.8802 68.83C33.6302 69.08 33.4202 69.36 33.1702 69.6C32.7002 70.05 32.3702 70.33 32.0502 70.43C31.7102 70.51 31.4002 70.45 31.0402 70.28C30.8802 70.2 30.7002 70.14 30.5602 70.06C30.3202 69.91 30.2202 69.66 30.2302 69.32C30.2502 68.98 30.3602 68.54 30.6702 68.15C32.4802 65.74 34.8702 63.67 37.4102 61.83C39.3002 60.45 41.3102 59.24 43.3402 58.08L43.3802 58.14L43.4002 58.13Z" fill="#231F20"/>
<path d="M64.2699 13.37C66.0599 13.99 67.8499 14.77 69.4199 16.04C70.9899 17.27 72.2899 18.92 73.1099 20.75C73.2899 21.22 73.4899 21.68 73.6499 22.15L73.9999 23.58C74.1999 24.53 74.2899 25.43 74.3699 26.35C74.5099 28.18 74.4699 29.99 74.3399 31.77C74.1499 34.37 73.8599 36.93 73.4199 39.45C72.6499 43.88 71.6599 48.22 71.1899 52.53C70.9599 54.68 70.8799 56.84 71.1999 58.87C71.5299 60.87 72.3699 62.8 73.8899 63.87C75.2499 64.85 77.0999 65.21 78.9399 65.21C80.7999 65.2 82.6699 64.86 84.4899 64.36C86.8299 63.71 89.0799 62.7 91.2499 61.57C93.4399 60.46 95.4699 59.12 97.4399 57.65C98.8299 56.88 98.6299 56.9 98.0899 58.26C97.5299 59.58 95.9899 61.85 93.4199 63.53C92.2999 64.3 91.0999 64.94 89.8599 65.49C88.6299 66.05 87.3599 66.55 86.0499 66.96C83.4499 67.79 80.6799 68.31 77.7499 68.07C76.2899 67.94 74.7799 67.61 73.3399 66.89C71.9199 66.18 70.6099 64.92 69.8599 63.56C69.0699 62.2 68.6499 60.73 68.4299 59.32C68.2199 57.9 68.1899 56.5 68.2599 55.14C68.4299 51.88 68.9499 48.71 69.4599 45.55C69.9899 42.39 70.5499 39.26 70.9799 36.16C71.4499 32.76 71.7599 29.35 71.4399 26.04C71.2799 24.36 70.9199 22.85 70.2299 21.45C69.5499 20.05 68.4299 18.92 67.1299 18.01C65.5199 16.89 63.5999 16.17 61.5999 15.7C59.5999 15.24 57.5199 15 55.4199 14.96C52.2599 14.88 48.9899 15.05 45.8899 15.58C42.7599 16.15 39.6999 17.13 36.7499 18.32C32.1499 20.17 27.9199 22.64 23.7799 25.27C22.8799 25.87 22.0099 26.46 21.1099 27.07C17.7299 29.27 16.6599 29.92 15.5099 29.86C15.2599 29.86 14.9499 29.9 14.7599 29.86C14.1299 29.77 15.0699 28.15 17.4599 26.27C20.9699 23.42 24.9099 20.96 29.0499 18.7C33.2199 16.5 37.6699 14.59 42.4099 13.3C43.2899 13.07 44.1999 12.89 45.0899 12.69C45.9899 12.51 46.9199 12.4 47.8299 12.26C49.6399 12.05 51.4299 11.93 53.2499 11.9C56.8799 11.88 60.5999 12.12 64.2599 13.3V13.37H64.2699Z" fill="#231F20"/>
<path d="M40.7399 117.4C43.5999 117.69 46.6299 117.52 49.5699 117.05C50.6399 116.89 51.6799 116.56 52.7199 116.3C54.5599 115.84 56.3399 115.17 57.9499 114.31C59.4799 113.47 61.0299 112.08 60.3799 111.16C60.1299 110.63 59.5199 110.14 58.8399 109.76C58.1399 109.38 57.3599 109.08 56.5699 108.83C55.5399 108.51 54.4599 108.36 53.3999 108.08C53.1299 108.02 52.8599 107.95 52.5899 107.9C52.3199 107.82 52.0599 107.74 51.7899 107.67C51.2499 107.51 50.7099 107.4 50.1599 107.27C49.4899 107.05 49.5399 107.06 50.1499 106.74C50.4499 106.59 50.8899 106.41 51.4299 106.21C51.6999 106.12 51.9999 106.02 52.3099 105.94C52.4699 105.89 52.6299 105.88 52.7999 105.82C52.9699 105.82 53.1299 105.81 53.3099 105.8C53.9199 105.82 54.5299 105.8 55.1399 105.9C55.7399 106 56.3499 106.11 56.9499 106.26C58.1599 106.57 59.3899 106.94 60.5999 107.7C60.8999 107.87 61.1999 108.1 61.4999 108.36C61.7999 108.58 62.0799 108.92 62.3399 109.24C62.6099 109.56 62.8199 110.01 63.0099 110.43C63.1699 110.95 63.2699 111.48 63.1999 112C63.0899 113.03 62.6199 113.84 62.1299 114.4C61.6399 115.01 61.0999 115.43 60.5499 115.82C59.2399 116.73 57.8899 117.41 56.4999 117.99C55.1099 118.57 53.6899 119.05 52.2499 119.4C49.0799 120.13 45.8899 120.46 42.6499 120.43C40.6599 120.39 38.6499 120.2 36.6499 119.58C35.8899 119.31 35.1299 119.03 34.4199 118.47C33.7199 117.94 33.0599 117.14 32.8599 116.14C32.7399 115.23 32.8099 114.27 33.1999 113.49C33.5299 112.67 34.0499 112.03 34.5799 111.44C36.2899 109.67 38.2399 108.41 40.2899 107.35C40.7399 107.12 41.1799 106.88 41.6599 106.69C43.4299 105.99 44.1099 106.02 44.6899 106.62C44.8199 106.76 44.9699 106.88 45.0599 107.03C45.3399 107.53 44.7799 108.13 43.6499 108.72C41.9699 109.61 40.2499 110.58 38.7399 111.68C37.2599 112.74 35.8899 114.16 35.7999 115.05C35.7199 115.22 35.7999 115.36 35.7799 115.52C35.8099 115.63 35.7999 115.66 35.8699 115.76C35.9899 115.94 36.3199 116.25 36.8599 116.47C37.8999 116.95 39.3399 117.21 40.7599 117.33V117.4H40.7399Z" fill="#231F20"/>
<path d="M31.4502 75.79L25.6402 60.1C24.9302 58.19 24.1402 56.32 23.4402 54.41C20.9802 47.67 18.5802 40.91 16.2102 34.13C15.1202 31.13 14.0302 28.12 12.9502 25.15C11.6202 21.32 9.9302 17.54 9.7002 13.35C9.7202 12.03 9.7202 12.21 10.5002 13.1C10.8602 13.55 11.6202 14.12 12.1002 14.92C12.6402 15.71 13.1702 16.65 13.6502 17.71C16.5102 25.41 19.2102 33.21 21.7902 41.15C23.3202 45.9 25.3302 50.7 27.1202 55.48L33.0102 71.27C34.2102 74.51 35.4102 77.76 36.6102 81C38.4202 85.92 40.2502 90.85 42.0502 95.73C43.4602 99.52 44.9902 103.19 46.3502 106.98C46.6702 107.8 46.9602 108.63 47.2202 109.49C47.7002 111.09 48.0102 112.14 47.9802 112.99C47.9702 113.81 47.7802 114.3 47.4902 114.71C47.3602 114.89 47.2502 115.12 47.1302 115.23C46.9202 115.41 46.6502 115.18 46.2702 114.66C45.8702 114.13 45.5402 113.33 45.1502 112.22C42.7702 105.63 40.0302 98.62 37.3702 91.57C35.3702 86.33 33.3702 81.07 31.3702 75.82L31.4402 75.79H31.4502Z" fill="#231F20"/>
<path d="M97.6498 16.9001C97.7798 17.0101 97.5598 17.1801 97.1998 17.3801C97.0798 17.4401 96.7098 17.5401 96.6398 17.5101C96.5098 17.4601 96.3698 17.4201 96.2598 17.3601C96.2198 17.3201 95.5998 16.6601 95.4198 16.4201C95.2398 16.1901 95.1398 15.9501 95.0498 15.7001C94.8798 15.1901 94.6898 14.6801 94.5298 14.1701C94.4898 14.0601 94.4898 13.9301 94.5298 13.8101C94.6298 13.3801 94.5598 12.9801 94.4298 12.5901C94.4098 12.5201 94.4098 12.4501 94.2998 12.4001C94.1098 12.3201 93.9098 11.2201 93.9698 11.0701C94.1198 10.6901 94.1598 10.3301 94.3298 9.96005C94.3498 9.91005 94.3098 9.86005 94.4398 9.80005C94.7298 9.67005 94.6798 9.56005 94.6998 9.45005C94.7298 9.30005 94.7698 9.14005 94.8598 8.99005C94.9198 8.91005 95.0798 8.83005 95.1998 8.75005C95.3098 8.68005 95.6798 8.69005 95.7198 8.71005C95.8498 8.77005 96.0198 8.71005 96.1798 8.69005C96.2298 8.69005 96.2998 8.68005 96.3498 8.68005C96.4698 8.68005 97.3298 9.45005 97.3498 9.53005C97.4098 9.55005 97.7098 10.7201 97.7698 10.8401C97.7998 10.9101 97.7398 10.9901 97.7098 11.0601C97.6898 11.1001 98.0098 12.0101 97.9998 12.0501C97.9898 12.2501 98.1098 12.4301 97.8898 12.6601C97.8498 12.7101 97.8698 12.7401 97.8698 12.7801C97.9498 13.1101 97.8998 13.4601 97.8698 13.8101C97.8598 13.9901 97.9098 14.1601 97.9198 14.3301C97.9198 14.3601 97.8898 14.4001 97.8798 14.4301C97.8698 14.4701 97.8398 14.5201 97.8498 14.5601C97.9198 14.9701 97.8498 15.4001 98.0098 15.8001C98.0598 15.8901 97.8398 16.4101 97.8698 16.5101C97.8798 16.5701 97.5998 16.8501 97.6598 16.8901L97.6498 16.9001Z" fill="#231F20"/>
<path d="M103.74 17.1601C103.74 17.3001 103.57 17.3701 103.35 17.4101C103.28 17.4201 103.09 17.3601 103.07 17.3201C103.03 17.2301 102.99 17.1301 102.96 17.0401C102.95 16.9901 102.91 16.1601 102.87 15.8601C102.83 15.5701 102.84 15.3001 102.87 15.0301C102.97 14.5001 103.1 13.9801 103.25 13.4601C103.28 13.3401 103.34 13.2401 103.41 13.1401C103.67 12.8101 103.82 12.4401 103.93 12.0301C103.95 11.9601 103.99 11.9101 103.95 11.8101C103.87 11.6501 104.38 10.6501 104.52 10.5601C104.84 10.3301 105.1 10.0701 105.4 9.84005C105.44 9.81005 105.44 9.74005 105.55 9.76005C105.81 9.80005 105.83 9.69005 105.9 9.60005C106 9.49005 106.14 9.40005 106.3 9.33005C106.38 9.29005 106.53 9.31005 106.66 9.31005C106.77 9.31005 107.02 9.53005 107.04 9.57005C107.09 9.68005 107.25 9.73005 107.36 9.80005C107.4 9.82005 107.45 9.86005 107.48 9.88005C107.53 9.93005 107.66 10.9901 107.59 11.0401C107.59 11.0401 107.47 11.3201 107.34 11.6101C107.22 11.9001 107.1 12.2001 107.09 12.2701C107.08 12.3401 106.99 12.3701 106.93 12.4201C106.89 12.4401 106.62 13.3301 106.6 13.3601C106.47 13.5101 106.44 13.7001 106.16 13.7801C106.11 13.8001 106.09 13.8301 106.08 13.8701C105.93 14.1701 105.7 14.4201 105.49 14.6901C105.39 14.8301 105.33 14.9901 105.24 15.1401C105.22 15.1701 105.19 15.1801 105.16 15.2101C105.13 15.2401 105.09 15.2701 105.07 15.3001C104.92 15.6701 104.6 15.9901 104.45 16.3701C104.4 16.4501 104.05 16.8101 104.01 16.9101C103.98 16.9701 103.73 17.1001 103.74 17.1601Z" fill="#231F20"/>
<path d="M107.97 25.39C107.8 25.44 107.68 25.24 107.59 24.94C107.56 24.85 107.59 24.58 107.65 24.54C107.75 24.47 107.85 24.39 107.96 24.32C108.02 24.3 108.98 24.04 109.3 23.99C109.62 23.91 109.93 23.9 110.24 23.89C110.87 23.89 111.5 23.85 112.12 23.9C112.26 23.9 112.39 23.94 112.53 24C112.98 24.19 113.45 24.25 113.93 24.25C114.01 24.25 114.09 24.27 114.18 24.2C114.33 24.04 115.61 24.26 115.76 24.37C116.14 24.61 116.53 24.79 116.91 25C116.96 25.03 117.03 25 117.07 25.12C117.15 25.38 117.28 25.36 117.4 25.4C117.57 25.46 117.74 25.53 117.89 25.64C117.97 25.7 118.03 25.84 118.09 25.96C118.15 26.07 118.04 26.41 118 26.44C117.9 26.53 117.93 26.71 117.91 26.85C117.91 26.9 117.89 26.96 117.88 27C117.85 27.08 116.75 27.5 116.65 27.48C116.64 27.48 116.27 27.46 115.87 27.45C115.48 27.44 115.07 27.43 114.98 27.45C114.89 27.46 114.81 27.39 114.73 27.35C114.71 27.34 114.41 27.35 114.1 27.35C113.8 27.33 113.5 27.31 113.47 27.3C113.24 27.22 112.99 27.25 112.79 27C112.75 26.95 112.7 26.95 112.65 26.95C112.24 26.9 111.84 26.74 111.44 26.61C111.23 26.55 111.02 26.53 110.82 26.48C110.78 26.48 110.75 26.43 110.71 26.41C110.66 26.38 110.62 26.35 110.57 26.34C110.08 26.24 109.59 26.04 109.09 26.01C108.97 26.01 108.45 25.71 108.32 25.68C108.25 25.67 108.03 25.38 107.96 25.41L107.97 25.39Z" fill="#231F20"/>
<path d="M49.4401 23.64C48.2801 23.84 47.1201 24.12 45.9901 24.49C45.5801 24.63 45.1901 24.83 44.7801 24.98C43.3301 25.5 41.8702 26.08 40.4901 26.82C39.8902 27.17 39.2901 27.53 38.7501 27.96C38.0201 28.47 37.2901 28.96 36.4801 29.39C36.2201 29.52 36.1401 29.37 36.1801 29.04C36.2201 28.73 36.3501 28.19 36.6901 27.76C36.9901 27.38 37.3101 27.02 37.6401 26.68C38.0001 26.37 38.3801 26.08 38.7701 25.82C39.5401 25.26 40.3701 24.79 41.2301 24.38C42.2701 23.91 43.2601 23.24 44.3401 22.78C45.5201 22.28 46.7401 21.84 47.9801 21.51C48.7401 21.29 49.5201 21.13 50.2901 20.96C51.4701 20.73 52.6601 20.58 53.8501 20.45C54.7701 20.33 55.6801 20.1 56.6301 20.05C56.8401 20.04 57.0401 19.99 57.2501 20C58.0201 20.09 58.2502 20.32 58.3102 21.01C58.3202 21.17 58.3501 21.33 58.3501 21.48C58.3501 22 57.9901 22.41 57.4801 22.56C56.7201 22.78 55.9802 22.89 55.2201 23C54.4601 23.07 53.7001 23.13 52.9301 23.2C51.7801 23.31 50.6201 23.46 49.4701 23.7L49.4501 23.64H49.4401Z" fill="#231F20"/>
<path d="M53.0199 28.83C52.2999 28.92 51.5799 29.08 50.8699 29.3C50.6099 29.37 50.3799 29.52 50.1199 29.61C49.2099 29.92 48.2999 30.28 47.4299 30.74C47.0299 30.92 46.6699 31.18 46.3199 31.42C45.8899 31.77 45.4099 32.06 44.8799 32.3C44.7099 32.37 44.6099 32.22 44.5799 31.96C44.5599 31.7 44.5799 31.29 44.7699 31C45.1099 30.47 45.5799 30.08 46.0399 29.69C46.4999 29.29 47.0399 29 47.6199 28.78C48.2999 28.51 48.9199 28.07 49.6099 27.77C50.3599 27.44 51.1499 27.18 51.9399 26.96C52.4299 26.83 52.9299 26.72 53.4299 26.63C54.1799 26.47 54.9599 26.45 55.7299 26.38C56.3199 26.35 56.9199 26.21 57.5299 26.19C57.6699 26.19 57.7999 26.15 57.9399 26.17C58.4399 26.23 58.5799 26.4 58.5599 26.97C58.5599 27.1 58.5599 27.23 58.5399 27.36C58.4899 27.79 58.2299 28.11 57.9099 28.19C56.9599 28.43 56.0799 28.48 55.1499 28.62C54.4699 28.72 53.7499 28.73 53.0499 28.88L53.0299 28.83H53.0199Z" fill="#231F20"/>
</svg>
