<svg width="128" height="128" viewBox="0 0 128 128" fill="none" xmlns="http://www.w3.org/2000/svg">
<path d="M42.6999 28.79C37.6499 29.2 28.1499 26.74 26.2399 29.16C24.1099 31.86 24.7399 39.54 24.6099 39.88L23.6899 25.1L31.0199 26.11L42.6999 28.8V28.79Z" fill="#231F20"/>
<path d="M79.0702 46.54C79.9102 46.64 80.7302 46.81 81.5402 46.99C81.8302 47.06 82.1402 47.07 82.4202 47.15C83.4402 47.42 84.3902 47.84 85.3702 48.12C85.8002 48.27 86.2502 48.3 86.6802 48.44C87.2402 48.57 87.7902 48.7 88.3302 49.03C88.5002 49.13 88.4702 49.2 88.2902 49.33C88.1202 49.44 87.7902 49.75 87.4402 49.84C87.1302 49.88 86.8202 49.91 86.5102 49.93C86.3602 49.93 86.2002 49.96 86.0502 49.95L85.6102 49.87C85.0202 49.76 84.4402 49.6 83.8802 49.39C83.2002 49.14 82.4702 49.11 81.7802 48.94C81.0202 48.77 80.2602 48.62 79.5002 48.52C79.0302 48.47 78.5502 48.4 78.0802 48.4C77.3602 48.37 76.6302 48.36 75.9102 48.48C75.3502 48.54 74.8402 48.82 74.3002 48.95C74.1802 48.98 74.0702 49.03 73.9502 49.05C73.5002 49.13 73.3302 49.02 73.1302 48.58C73.0802 48.48 73.0302 48.38 73.0002 48.28C72.8802 47.94 73.0002 47.61 73.3202 47.39C74.2402 46.67 75.3902 46.55 76.5202 46.43C77.3702 46.38 78.2302 46.4 79.0802 46.48V46.53L79.0702 46.54Z" fill="#231F20"/>
<path d="M73.0102 34.59C73.1102 35.62 73.1902 36.65 73.2402 37.67C73.2602 38.04 73.3202 38.41 73.3302 38.79C73.3602 40.11 73.3302 41.42 73.2802 42.73C73.2602 43.31 73.2802 43.89 73.3102 44.46C73.2602 45.2 73.3402 45.94 72.9902 46.67C72.9002 46.9 72.8502 46.87 72.7002 46.67C72.5802 46.53 72.4602 46.38 72.3702 46.27C72.2102 46.1 72.1002 45.91 72.0702 45.7L71.8702 44.59C71.8302 44.22 71.8502 43.85 71.8402 43.48C71.8402 42.74 71.8602 42 71.9102 41.25C71.9702 40.35 71.8102 39.43 71.7402 38.53C71.6502 37.53 71.5602 36.54 71.4202 35.54C71.3402 34.93 71.2402 34.32 71.1402 33.71C70.9702 32.79 70.8202 31.86 70.5602 30.96C70.3602 30.26 70.0502 29.61 69.7902 28.94C69.7302 28.79 69.6502 28.65 69.6002 28.5C69.4402 27.93 69.6002 27.69 69.9302 27.46C70.0102 27.41 70.0902 27.34 70.1702 27.3C70.4302 27.16 70.7602 27.32 71.0702 27.68C71.8102 28.82 72.1602 30.16 72.4902 31.51C72.7302 32.51 72.9002 33.54 73.0602 34.57H73.0202L73.0102 34.59Z" fill="#231F20"/>
<path d="M22.95 63.94C22.92 64.21 22.93 64.48 22.92 64.77C22.92 64.87 22.98 64.95 22.98 65.06C22.97 65.43 22.96 65.82 23.04 66.18C23.08 66.34 23.16 66.48 23.2 66.63C23.28 66.82 23.38 66.99 23.34 67.27C23.32 67.36 23.12 67.49 22.87 67.6C22.62 67.71 22.27 67.81 22.11 67.75C21.87 67.63 21.59 67.51 21.44 67.31C21.33 67.09 21.26 66.85 21.26 66.58C21.26 66.26 21.03 66.04 20.93 65.76C20.82 65.45 20.77 65.13 20.73 64.8C20.71 64.6 20.68 64.4 20.66 64.21C20.62 63.91 20.62 63.61 20.53 63.33C20.46 63.11 20.24 62.92 20.16 62.69C20.14 62.64 20.1 62.6 20.09 62.54C20.05 62.35 20.27 62.27 20.83 62.19L21.22 62.14C21.65 62.09 22.03 62.14 22.24 62.23C22.48 62.38 22.71 62.52 22.81 62.67C22.9 62.83 22.93 62.99 22.96 63.16C23 63.41 22.98 63.67 23.01 63.93L22.95 63.95V63.94Z" fill="#231F20"/>
<path d="M44.6902 97.47C35.1202 96.57 24.6202 94.86 21.1202 91.15C16.6302 86.38 17.2402 73.02 17.2402 73.02L16.2202 80.28C16.2202 80.28 17.5302 94.1 21.1302 95.32C24.7202 96.54 38.4802 98.2 38.4802 98.2L44.7002 97.48L44.6902 97.47Z" fill="#231F20"/>
<path d="M47.4998 97.83C50.7998 97.96 54.1098 98.03 57.4198 98.03C58.6298 98.03 59.8398 97.94 61.0498 97.94C65.3198 97.94 69.5898 97.88 73.8598 97.83C75.7598 97.8 77.6598 97.69 79.5398 97.58C81.9598 97.46 84.3798 97.07 86.8298 97.63C87.5898 97.83 87.4898 97.99 86.8698 98.43C86.2398 98.9 85.1098 99.67 83.7298 99.83C78.8198 100.19 73.8898 100.56 68.8998 100.44C65.9098 100.37 62.8098 100.64 59.7598 100.69C56.3998 100.75 53.0398 100.75 49.6698 100.69C47.5998 100.66 45.5298 100.59 43.4598 100.5C40.3198 100.37 37.1698 100.12 34.0498 99.79C31.6198 99.53 29.2198 99.35 26.7598 98.71C26.2198 98.59 25.6798 98.4 25.1398 98.2C24.6398 98 24.2298 97.73 23.8998 97.54C23.5698 97.32 23.3298 97.05 23.1598 96.83C22.9898 96.62 22.8998 96.39 22.8698 96.16C22.8398 95.93 22.8698 95.73 22.9498 95.52C23.0198 95.33 23.0698 95.13 23.1798 94.99C23.3598 94.76 23.6898 94.72 24.0398 94.78C24.3598 94.85 24.8298 94.96 25.3398 95.21C26.9998 95.87 29.0398 96.25 31.1198 96.56C33.2098 96.86 35.3898 97.08 37.5898 97.26C40.8598 97.51 44.1798 97.69 47.5098 97.77V97.84L47.4998 97.83Z" fill="#231F20"/>
<path d="M78.6099 117.04C78.6099 117.04 84.5699 117.75 87.3699 114.8C89.4099 112.65 90.8499 105.32 90.8499 105.32L91.3299 112.86L88.2399 118.69H81.4899L78.6099 117.04Z" fill="#231F20"/>
<path d="M25.72 102.09C25.84 103.24 25.96 104.39 26.04 105.55C26.07 105.97 26.15 106.39 26.17 106.81C26.21 108.31 26.19 109.81 26.14 111.31C26.11 111.97 26.17 112.64 26.16 113.29C26.13 114.13 26.32 114.99 25.8 115.81C25.67 116.07 25.45 116.02 25.12 115.78C24.95 115.66 24.75 115.5 24.54 115.31C24.44 115.21 24.32 115.11 24.25 115C24.2 114.89 24.16 114.78 24.15 114.66C23.95 113 23.98 111.38 24.12 109.69C24.21 108.68 23.98 107.65 23.88 106.63L23.55 103.23C23.48 102.53 23.4 101.83 23.3 101.13C23.15 100.07 23.04 99 22.85 97.95C22.7 97.13 22.44 96.35 22.25 95.55C22.2 95.37 22.16 95.2 22.14 95.02C22.11 94.68 22.1 94.46 22.19 94.29C22.32 94.11 22.46 94 22.65 93.9C22.73 93.85 22.81 93.8 22.88 93.77C23 93.72 23.12 93.75 23.29 93.85C23.45 93.95 23.71 94.1 23.79 94.34C24.48 95.7 24.83 97.18 25.2 98.69C25.44 99.81 25.58 100.96 25.76 102.11H25.7L25.72 102.09Z" fill="#231F20"/>
<path d="M39.8199 96.52C47.3399 97.14 54.9099 97.44 62.4799 97.48C65.2399 97.5 67.9999 97.39 70.7599 97.34C75.6199 97.24 80.4799 97.04 85.2899 96.56C87.6799 96.3 90.0899 96 92.3599 95.43C92.9199 95.29 93.4799 95.12 93.9899 94.93C94.4899 94.74 94.9999 94.49 95.2399 94.26C95.4799 93.97 95.7799 93.54 95.9899 93.01C96.2399 92.52 96.4199 91.95 96.6199 91.4C97.8999 87.39 98.5399 83.05 99.0399 78.83C99.3399 76.11 99.5399 73.35 99.5299 70.66C99.5299 69.99 99.4999 69.32 99.4299 68.73C99.3899 68.21 99.1499 67.58 98.9299 67.01C98.4499 65.86 97.6999 64.81 96.8399 63.78C95.7399 62.52 96.0599 62.42 97.4799 63.07C98.1699 63.41 99.1899 63.94 100.16 64.99C100.64 65.51 101.12 66.15 101.48 66.91C101.57 67.1 101.64 67.3 101.73 67.5C101.79 67.73 101.85 67.98 101.91 68.22L101.99 68.59L102.02 68.91C102.04 69.13 102.06 69.34 102.08 69.56C102.21 72.58 101.96 75.4 101.69 78.26C101.39 81.11 100.98 83.95 100.42 86.78C100.13 88.2 99.8299 89.61 99.4099 91.03C98.9699 92.47 98.6099 93.84 97.5599 95.44C97.3699 95.8 96.8099 96.34 96.4199 96.57C95.9999 96.84 95.6099 97.03 95.2199 97.19C94.4499 97.5 93.7099 97.72 92.9799 97.9C91.5099 98.26 90.0699 98.48 88.6299 98.67C81.7499 99.49 74.6599 99.94 67.6599 100.09C59.9699 100.22 52.2899 100.05 44.6199 99.62C39.8999 99.35 35.1799 98.95 30.4699 98.37C28.6799 98.15 26.8999 97.89 25.1099 97.53C24.2199 97.35 23.3199 97.15 22.4299 96.9C21.5399 96.64 20.6399 96.37 19.7299 95.86C19.4999 95.74 19.2699 95.57 19.0399 95.39C18.9199 95.28 18.7999 95.18 18.6999 95.07L18.4499 94.72C18.0799 94.24 17.9199 93.79 17.7199 93.34C17.3599 92.44 17.0999 91.55 16.8799 90.66C16.4499 88.88 16.1099 87.11 15.8599 85.33C15.4599 82.57 15.1799 79.82 15.0299 77.06C14.9199 74.29 14.8499 71.54 15.3999 68.64C15.6399 67.36 16.1099 66.02 16.8399 64.9C18.2099 62.8 19.5299 61.82 20.4699 61.23C21.4299 60.65 22.1199 60.55 22.7399 60.62C23.0199 60.65 23.3599 60.66 23.5499 60.74C23.8699 60.88 23.6799 61.26 23.1599 61.89C22.6499 62.52 21.7499 63.32 20.7699 64.45C20.0399 65.28 19.4199 66.18 18.9799 67.13C18.5399 68.07 18.3299 69.03 18.1999 70.19C17.9299 72.46 17.9599 74.91 18.0799 77.36C18.2099 79.81 18.4699 82.29 18.8399 84.75C19.2199 87.18 19.6999 89.69 20.4599 91.79C20.5199 92 20.6099 92.14 20.6799 92.3C20.7499 92.44 20.8299 92.67 20.8899 92.74C20.9199 92.77 20.9399 92.81 20.9699 92.84L20.9999 92.9V92.93C20.9999 92.93 21.1399 92.85 20.7799 93.19C21.1799 92.84 20.9999 93 21.0499 92.97L21.1699 93.05C21.5999 93.31 22.4399 93.65 23.2399 93.9C24.9099 94.42 26.7399 94.8 28.5799 95.13C32.2699 95.8 36.0599 96.16 39.8499 96.45V96.52H39.8199Z" fill="#231F20"/>
<path d="M42.8698 26.13C45.5098 26.13 48.1798 25.98 50.8498 25.74C51.8298 25.66 52.7898 25.5 53.7698 25.41C57.2198 25.11 60.6898 24.74 64.1898 24.46C65.7498 24.36 67.3098 24.14 68.8798 24.15C69.8898 24.15 70.9198 24.15 71.9498 24.32C72.9698 24.51 73.9898 24.95 74.8498 25.57C75.3798 25.98 75.1698 26.07 74.5898 26.09C74.0198 26.06 73.0298 26.3 72.0098 26.42C71.1098 26.4 70.1698 26.42 69.2198 26.51C68.2698 26.61 67.3098 26.69 66.3298 26.74C64.3498 26.9 62.3698 27.06 60.3698 27.22C57.9498 27.38 55.4798 27.91 52.9998 28.21C50.2798 28.55 47.5298 28.74 44.7698 28.85C43.0698 28.92 41.3698 28.91 39.6698 28.87C37.0898 28.8 34.4998 28.53 31.9598 28.13C29.9898 27.81 28.0198 27.53 26.0698 26.97C25.6398 26.85 25.2198 26.72 24.7998 26.57C24.0098 26.3 23.5398 26 23.2598 25.68C22.9798 25.38 22.8998 25.05 22.9098 24.66C22.9098 24.48 22.8898 24.31 22.9098 24.16C22.9898 23.7 23.8398 23.46 24.9198 23.73C28.1198 24.61 31.4598 25.37 34.9598 25.72C37.5498 26 40.1998 26.11 42.8598 26.05V26.12L42.8698 26.13Z" fill="#231F20"/>
<path d="M90.4399 35.25C91.3999 36.31 92.2999 37.41 93.1699 38.56C93.6099 39.13 94.0299 39.74 94.4399 40.37L94.7499 40.89L94.8999 41.15C94.9499 41.25 95.0199 41.4 95.0699 41.52C95.3399 42.1 95.3299 42.38 95.4399 42.79C95.6499 43.89 95.8199 44.93 95.8799 45.98C96.0399 49.65 95.7999 53.21 95.5899 56.78C95.5099 58.36 95.4399 59.95 95.3599 61.52C95.2599 63.53 95.3399 65.57 94.6099 67.53C94.3799 68.14 94.1899 68.04 93.8299 67.48C93.4599 66.92 92.7999 65.9 92.7599 64.75C92.7999 62.71 92.8399 60.67 92.9199 58.64C93.0399 56.61 93.1899 54.57 93.3499 52.53C93.5499 50.09 93.3499 47.53 93.0899 45.13C93.0599 44.79 93.0099 44.48 92.9599 44.16C92.9199 43.83 92.8599 43.52 92.7799 43.23L92.7299 43L92.6999 42.89V42.83L92.6799 42.8C92.7999 42.76 92.4199 42.88 92.9399 42.72H92.9099L92.7699 42.76C92.6399 42.79 92.6699 42.78 92.6699 42.78L92.6499 42.74L92.6199 42.68L92.5699 42.56C92.3999 42.3 92.2699 42.05 92.0699 41.79C91.3299 40.72 90.4299 39.68 89.5399 38.66C88.4199 37.41 87.2599 36.19 86.0399 35.03C84.1799 33.29 82.2299 31.61 80.1099 30.23C78.4799 29.13 76.6899 28.4 74.9299 27.7C74.5399 27.57 74.1399 27.46 73.7499 27.31C73.0399 27.01 72.5599 26.88 72.2699 26.6C71.9799 26.33 71.8599 26.01 71.8099 25.58C71.7899 25.38 71.7299 25.18 71.7399 24.99C71.7399 24.39 72.5399 24.03 73.8199 24.24C77.5799 24.99 81.0199 27.07 84.1099 29.4C86.4099 31.16 88.5099 33.13 90.5099 35.21L90.4599 35.27L90.4399 35.25Z" fill="#231F20"/>
<path d="M57.9202 114.77C61.9702 114.9 66.0202 115.13 70.0502 115.42C71.5202 115.52 73.0002 115.56 74.4702 115.69C76.6802 115.89 78.8802 116.11 81.0802 116.35L84.3702 116.72L86.0102 116.9L86.7102 116.97C86.8202 116.97 86.9702 117.04 87.0502 116.93C87.2002 116.83 87.2602 116.74 87.4902 116.46C87.6702 116.18 87.8602 115.91 88.0202 115.59C89.0002 113.7 89.5702 111.45 90.0002 109.27C90.5402 106.44 90.7002 103.57 91.2902 100.71C91.5202 99.81 91.6702 99.92 92.0902 100.7C92.2902 101.09 92.6602 101.66 92.8202 102.35C93.0002 103.04 93.1402 103.86 93.1102 104.73C93.0302 107.16 92.6002 109.54 92.0402 111.93C91.7402 113.12 91.4002 114.31 90.9102 115.5C90.7902 115.8 90.6602 116.09 90.5002 116.39C90.3502 116.69 90.2102 116.98 90.0102 117.28C89.8202 117.58 89.6602 117.87 89.3902 118.18C89.2702 118.31 89.0902 118.59 88.8902 118.74L88.2602 119.27C87.7202 119.42 87.1802 119.6 86.5702 119.51C86.1402 119.47 85.8802 119.43 85.5402 119.39L83.6102 119.13C80.0402 118.63 76.3002 118.47 72.6302 118.23C68.6002 117.95 64.5602 117.73 60.5202 117.6C58.0302 117.52 55.5502 117.47 53.0602 117.48C49.3002 117.49 45.5102 117.56 41.7902 117.88C38.9002 118.12 36.0802 118.59 33.2702 119.1C32.6502 119.22 32.0502 119.34 31.4202 119.46C30.2602 119.65 29.5002 119.75 28.9302 119.69C28.3602 119.6 28.0102 119.37 27.6902 119.06C27.5502 118.92 27.3702 118.8 27.2802 118.68C27.1302 118.47 27.2802 118.23 27.6502 117.89C28.0302 117.54 28.6602 117.19 29.5202 116.98C34.6002 115.67 40.1002 115.09 45.6002 114.84C49.6902 114.65 53.8002 114.65 57.8902 114.72V114.79L57.9202 114.77Z" fill="#231F20"/>
<path d="M39.5301 36.63C40.9101 36.65 42.3001 36.63 43.7201 36.61C44.2301 36.6 44.7501 36.52 45.2701 36.52C47.1001 36.55 48.9601 36.57 50.8101 36.87C51.6301 36.96 52.4501 37.11 53.2601 37.21C53.7801 37.33 54.3101 37.38 54.8101 37.54C55.3101 37.74 55.7601 38.1 56.1901 38.43C56.4501 38.65 56.4001 38.66 56.0801 38.78C55.9201 38.84 55.6901 38.93 55.4101 39.07C55.1301 39.22 54.8301 39.34 54.5501 39.34C54.4301 39.34 54.2901 39.37 54.1701 39.38L53.8001 39.34L53.0801 39.26C52.6001 39.2 52.1001 39.2 51.6201 39.15C51.1401 39.09 50.6301 39.11 50.1401 39.06C49.6501 39.02 49.1401 38.95 48.6301 38.88C47.4101 38.7 46.1301 38.91 44.8601 38.97L40.6201 39.16C39.7401 39.19 38.8601 39.21 37.9701 39.21C36.6301 39.22 35.2701 39.1 33.9301 39.04C33.4101 38.99 32.8801 38.97 32.3601 38.97C31.8301 38.95 31.3001 38.89 30.7701 38.84C30.5301 38.82 30.3001 38.81 30.0701 38.74C29.2101 38.51 29.0001 38.25 29.0701 37.55C29.0901 37.39 29.0901 37.23 29.1201 37.07C29.2401 36.55 29.7101 36.24 30.2801 36.26C31.9901 36.32 33.6601 36.52 35.4601 36.56C36.1201 36.59 36.8001 36.58 37.4701 36.6C38.1501 36.58 38.8301 36.6 39.5301 36.58V36.64V36.63Z" fill="#231F20"/>
<path d="M41.6202 45.4C42.6402 45.43 43.6702 45.45 44.7102 45.44C45.0902 45.44 45.4602 45.37 45.8402 45.38C47.1902 45.45 48.5502 45.52 49.8902 45.6C50.4902 45.63 51.0902 45.63 51.6902 45.62C52.4602 45.59 53.2302 45.66 53.9802 45.91C54.2102 45.99 54.1502 46.27 53.9302 46.57C53.7102 46.87 53.3202 47.22 52.9002 47.28C52.1502 47.42 51.4102 47.37 50.6502 47.4C49.9002 47.4 49.1402 47.39 48.3702 47.33C47.4502 47.25 46.5002 47.46 45.5502 47.49C44.5102 47.52 43.4602 47.54 42.4002 47.55H40.4502C39.4602 47.55 38.4702 47.47 37.4802 47.47C36.7102 47.45 35.9502 47.57 35.1702 47.54C35.0002 47.54 34.8302 47.55 34.6602 47.53C34.0302 47.44 33.8502 47.26 33.8302 46.69C33.8302 46.56 33.8102 46.43 33.8202 46.3C33.8502 45.87 34.1602 45.56 34.6002 45.48C35.9202 45.23 37.2202 45.28 38.5702 45.31C39.5702 45.33 40.5902 45.37 41.6102 45.36V45.41L41.6202 45.4Z" fill="#231F20"/>
<path d="M43.6102 90.8C43.1502 88.09 42.9002 85.27 42.6702 82.47C42.5702 81.19 42.4802 79.92 42.4202 78.64C42.4002 78.22 42.3902 77.8 42.3902 77.39C42.3902 77.25 42.4002 77.12 42.3902 76.98C42.3902 76.69 42.3202 77.26 42.2602 77.35L41.7902 77.82C41.7902 77.82 41.3902 77.97 41.5602 77.92C41.7002 77.88 41.1402 77.93 41.4002 77.94C41.5602 77.94 41.7302 77.92 41.8902 77.92C42.4002 77.92 42.9102 77.95 43.4202 78C43.4802 78 43.9302 78.06 43.6602 78.02C43.8202 78.04 43.9902 78.07 44.1502 78.1C44.4902 78.16 44.8302 78.23 45.1602 78.31C45.4902 78.39 45.8502 78.49 46.1902 78.61C46.6202 78.76 46.6702 78.78 47.0502 78.97C47.7402 79.32 48.0602 79.54 48.5402 80.09C48.6802 80.25 48.4502 79.95 48.5702 80.13C48.6102 80.18 48.6502 80.23 48.6802 80.29C48.7702 80.44 48.8602 80.58 48.9302 80.74C48.9602 80.8 49.1302 81.38 49.1302 81.46C49.1802 81.87 49.1602 82.03 49.0702 82.27C49.0002 82.46 48.9402 82.56 48.7102 82.78C48.5802 82.91 48.3802 83.04 48.0602 83.2C47.7902 83.34 47.5102 83.43 47.1002 83.54C45.5802 83.95 43.9302 83.98 42.2802 83.81C41.5802 83.74 40.9802 84.46 40.9802 85.11C40.9802 85.87 41.5802 86.34 42.2802 86.41C44.9402 86.68 48.4902 86.56 50.5402 84.61C51.7402 83.47 51.9802 81.74 51.4902 80.22C51.0402 78.81 50.0102 77.7 48.7502 76.95C46.7102 75.74 44.0602 75.25 41.7002 75.32C40.6302 75.35 39.8502 75.74 39.7702 76.92C39.6902 77.95 39.8002 79.01 39.8702 80.04C40.1102 83.86 40.4302 87.72 41.0802 91.49C41.2002 92.18 42.0502 92.57 42.6802 92.4C43.4102 92.2 43.7102 91.5 43.5902 90.8H43.6102Z" fill="#231F20"/>
<path d="M57.6301 90.81C57.3701 86.23 56.8901 81.66 56.2201 77.12L54.3101 78.59C56.7601 79.73 59.4501 79.94 61.5801 81.57C62.6301 82.37 63.4301 83.65 63.6401 85.12C63.7901 86.18 63.3601 87.4 62.4701 88.28C61.0701 89.66 58.9701 89.96 57.0501 89.82C56.3501 89.77 55.7501 90.45 55.7501 91.12C55.7501 91.87 56.3501 92.37 57.0501 92.42C61.1801 92.72 65.8101 90.62 66.2401 86.06C66.4201 84.13 65.6101 82.15 64.4001 80.68C63.2501 79.3 61.6201 78.44 59.9701 77.8C59.1801 77.49 58.3601 77.24 57.5501 76.99C57.1701 76.88 56.8001 76.76 56.4301 76.64C56.2501 76.58 56.0701 76.52 55.9001 76.45C55.8301 76.43 55.7701 76.4 55.7001 76.37C55.9001 76.45 55.7501 76.39 55.6401 76.34C54.5501 75.83 53.5601 76.66 53.7301 77.81C54.3601 82.12 54.7901 86.46 55.0401 90.81C55.1401 92.47 57.7401 92.48 57.6401 90.81H57.6301Z" fill="#231F20"/>
<path d="M71.64 91.85C71.76 89.12 71.19 86.35 70.88 83.64C70.75 82.51 70.66 81.39 70.69 80.25C70.59 80.49 70.69 80.23 70.69 80.25C70.7 80.23 70.75 80.09 70.74 80.07C70.78 80.18 70.59 80.37 70.67 80.24C70.7 80.19 70.75 80.15 70.62 80.29C70.54 80.38 70.48 80.44 70.38 80.51C70.45 80.45 70.58 80.45 70.42 80.47C70.22 80.5 70.56 80.43 70.61 80.42C70.72 80.39 70.82 80.37 70.93 80.35C71.01 80.33 71.09 80.32 71.17 80.31C71.14 80.31 70.99 80.33 71.15 80.31C71.34 80.29 71.53 80.27 71.71 80.26C72.53 80.2 73.36 80.2 74.18 80.25C75 80.3 75.5 80.34 76.27 80.52C77.9 80.91 78.59 78.4 76.96 78.01C75.33 77.62 73.75 77.56 72.16 77.63C70.97 77.68 69.07 77.72 68.4 78.92C67.86 79.89 68.02 81.22 68.11 82.28C68.24 83.82 68.46 85.35 68.64 86.88C68.84 88.52 69.07 90.19 69 91.85C68.93 93.51 71.53 93.52 71.6 91.85H71.64Z" fill="#231F20"/>
<path d="M71.1902 87.05C72.5702 87.15 73.9502 87.2 75.3402 87.18C76.0202 87.18 76.6702 86.59 76.6402 85.88C76.6102 85.17 76.0702 84.57 75.3402 84.58C73.9602 84.6 72.5702 84.55 71.1902 84.45C70.5102 84.4 69.8602 85.08 69.8902 85.75C69.9202 86.5 70.4602 87 71.1902 87.05Z" fill="#231F20"/>
<path d="M75.11 41.45C75.01 42.55 74.88 43.65 74.73 44.73L74.67 45.14V45.24L74.65 45.26V45.3L74.58 45.46C74.55 45.58 74.5 45.72 74.48 45.87C74.47 45.93 74.51 45.93 74.54 45.91L74.64 45.88C74.71 45.86 74.78 45.83 74.84 45.82C74.89 45.81 74.94 45.8 74.99 45.8C75.03 45.8 75.08 45.8 75.11 45.8L75.66 45.73C76.02 45.68 76.39 45.64 76.75 45.62C77.48 45.55 78.2 45.54 78.92 45.52C80.36 45.52 81.8 45.59 83.22 45.81C84.48 45.98 85.74 46.16 86.98 46.4C88.55 46.75 90.17 47.28 91.39 48.46C91.77 48.83 91.67 48.84 91.18 48.92C90.93 48.96 90.58 49.05 90.19 49.13C89.99 49.18 89.78 49.22 89.56 49.26C89.45 49.28 89.35 49.28 89.23 49.32L88.91 49.3C88.16 49.21 87.4 49.18 86.65 49.13C85.92 49 85.18 48.91 84.43 48.82C82.93 48.67 81.43 48.51 79.91 48.36C79.03 48.28 78.13 48.31 77.24 48.42C76.79 48.47 76.35 48.54 75.91 48.63C75.77 48.65 75.28 48.74 74.91 48.85L73.74 49.14L73.34 49.22C73.01 49.2 72.74 49.12 72.44 49.08L72 49.01C71.84 48.93 71.8 48.77 71.73 48.65C71.61 48.39 71.52 48.08 71.49 47.7C71.46 47.32 71.5 46.88 71.56 46.44L72.04 42.68C72.18 41.38 72.3 40.07 72.34 38.76C72.41 36.78 72.42 34.78 72.18 32.82C72 31.3 71.57 29.85 71.19 28.39C71.12 28.07 71.03 27.76 70.97 27.43C70.86 26.82 70.82 26.41 70.9 26.1C71 25.78 71.16 25.57 71.42 25.36C71.54 25.27 71.65 25.15 71.76 25.09C71.95 24.98 72.17 25.02 72.42 25.19C72.67 25.37 72.98 25.67 73.18 26.11C73.5 26.76 73.81 27.43 74.08 28.12C74.3 28.82 74.48 29.54 74.63 30.27C74.93 31.73 75.11 33.23 75.22 34.74C75.37 36.98 75.31 39.23 75.17 41.46H75.1L75.11 41.45Z" fill="#231F20"/>
<path d="M24.79 41.32C24.62 43.55 24.44 45.76 24.34 47.97C24.3 48.78 24.34 49.58 24.31 50.39C24.18 53.23 24.16 56.06 24.28 58.91C24.33 60.17 24.45 61.43 24.64 62.67C24.9 64.26 25.12 65.85 24.87 67.53C24.79 68.05 24.65 68.01 24.27 67.64C24.02 67.39 23.75 67.12 23.5 66.87C23.21 66.54 22.96 66.14 22.78 65.69C22.65 65.29 22.42 64.89 22.37 64.48L22.18 63.23C22.07 62.4 21.93 61.56 21.87 60.72C21.8 59.88 21.73 59.04 21.71 58.19C21.71 57.34 21.74 56.49 21.77 55.64C21.88 53.61 21.72 51.51 21.77 49.45C21.85 47.19 21.97 44.93 22.13 42.68C22.22 41.3 22.32 39.92 22.39 38.54C22.51 36.45 22.61 34.37 22.56 32.3C22.51 30.7 22.25 29.14 22.05 27.58C22.01 27.24 21.97 26.9 21.93 26.55C21.88 25.91 21.88 25.48 21.99 25.16C22.11 24.85 22.3 24.65 22.57 24.48C22.69 24.4 22.81 24.3 22.93 24.25C23.13 24.16 23.33 24.25 23.55 24.46C23.76 24.68 24 25.03 24.13 25.51C24.34 26.22 24.55 26.94 24.7 27.68C24.81 28.42 24.93 29.17 24.98 29.93C25.12 31.45 25.15 32.98 25.14 34.52C25.11 36.79 24.98 39.07 24.86 41.31H24.8L24.79 41.32Z" fill="#231F20"/>
<path d="M50.12 67.36C54.07 67.77 58.01 68.18 61.95 68.51C63.39 68.63 64.83 68.67 66.27 68.78C71.34 69.18 76.41 69.51 81.48 69.53C83.73 69.54 85.99 69.46 88.21 69.28C89.64 69.17 91.06 68.99 92.48 68.83C93.9 68.7 95.32 68.58 96.79 68.65C97.27 68.78 97.48 68.85 97.48 68.92C97.48 68.99 97.28 69.08 96.95 69.4C96.62 69.72 96.13 70.05 95.52 70.45C94.91 70.81 94.16 71.11 93.33 71.33C90.36 71.83 87.36 72.07 84.37 72.19C81.38 72.31 78.39 72.15 75.4 71.93C71.83 71.65 68.11 71.62 64.47 71.36C60.47 71.08 56.48 70.7 52.49 70.32C50.04 70.08 47.59 69.85 45.14 69.61C41.43 69.27 37.71 68.9 34.02 68.73C31.16 68.6 28.34 68.68 25.56 68.86C24.95 68.89 24.36 68.99 23.74 69.02C21.49 69.23 20.85 69.17 20.2 68.58C20.05 68.44 19.87 68.32 19.76 68.18C19.58 67.94 19.68 67.66 20.08 67.35C20.48 67.03 21.15 66.74 22.05 66.53C24.68 66.02 27.36 65.9 30.05 65.9C32.74 65.9 35.44 66.06 38.14 66.24C42.14 66.52 46.14 66.93 50.13 67.28V67.35L50.12 67.36Z" fill="#231F20"/>
<path d="M91.8498 20.59C91.9998 20.75 91.8398 20.97 91.5098 21.22C91.4098 21.3 91.0598 21.4 90.9898 21.36C90.8598 21.28 90.7298 21.21 90.6198 21.12C90.5598 21.07 89.9998 20.09 89.7798 19.77C89.5698 19.46 89.4198 19.13 89.2898 18.79L88.5698 16.71C88.5198 16.56 88.4898 16.39 88.4798 16.23C88.4598 15.66 88.2998 15.12 88.0898 14.6C88.0498 14.51 88.0398 14.42 87.9298 14.36C87.7598 14.26 87.2898 12.81 87.2898 12.61C87.2998 12.1 87.2598 11.61 87.2398 11.11C87.2398 11.04 87.1798 10.98 87.2698 10.89C87.4598 10.69 87.3798 10.55 87.3498 10.41C87.3098 10.2 87.2898 9.98999 87.3198 9.76999C87.3298 9.65999 87.4398 9.52999 87.5298 9.39999C87.5998 9.28999 87.9698 9.23999 88.0098 9.25999C88.1498 9.31999 88.2898 9.19999 88.4298 9.15999C88.4798 9.13999 88.5398 9.11999 88.5798 9.11999C88.6798 9.09999 89.6398 10.08 89.6498 10.21C89.6498 10.22 89.8098 10.64 89.9798 11.07C90.1498 11.5 90.3198 11.96 90.3698 12.05C90.4198 12.14 90.3898 12.26 90.3798 12.37C90.3798 12.42 90.9098 13.71 90.9098 13.77C90.9598 14.06 91.1098 14.31 90.9898 14.64C90.9698 14.71 90.9898 14.76 91.0098 14.81C91.1598 15.28 91.2098 15.78 91.2898 16.27C91.3298 16.52 91.4198 16.76 91.4798 17C91.4898 17.04 91.4798 17.1 91.4798 17.14C91.4798 17.2 91.4698 17.26 91.4798 17.32C91.6598 17.89 91.6798 18.51 91.8698 19.08C91.9098 19.21 91.8598 19.91 91.9198 20.06C91.9498 20.14 91.7598 20.51 91.8198 20.57L91.8498 20.59Z" fill="#231F20"/>
<path d="M101.32 26.28C101.22 26.48 100.93 26.45 100.6 26.38C100.49 26.36 100.28 26.17 100.29 26.09C100.29 25.93 100.29 25.77 100.31 25.61C100.29 25.5 100.85 24.32 101.05 23.9C101.25 23.51 101.52 23.18 101.8 22.87C102.36 22.22 103.02 21.66 103.7 21.13C103.85 21.01 104.02 20.92 104.2 20.85C104.83 20.62 105.38 20.28 105.91 19.9C106 19.84 106.1 19.8 106.15 19.66C106.21 19.41 107.8 18.58 108.05 18.56C108.65 18.49 109.22 18.39 109.8 18.35C109.88 18.35 109.95 18.28 110.06 18.37C110.31 18.59 110.46 18.49 110.63 18.45C110.86 18.4 111.11 18.38 111.36 18.41C111.49 18.42 111.64 18.55 111.78 18.65C111.91 18.74 111.96 19.17 111.94 19.22C111.87 19.38 112.01 19.55 112.06 19.72C112.08 19.78 112.1 19.85 112.11 19.9C112.11 20.01 111.13 21.04 111.01 21.08C110.97 21.08 109.38 21.88 109.23 22.01C109.15 22.08 109.02 22.06 108.91 22.06C108.85 22.05 107.67 22.85 107.63 22.87C107.35 22.97 107.15 23.2 106.78 23.14C106.71 23.13 106.66 23.17 106.61 23.2C106.19 23.49 105.72 23.68 105.26 23.92C105.03 24.04 104.84 24.22 104.62 24.37C104.58 24.4 104.52 24.4 104.48 24.41C104.42 24.43 104.36 24.45 104.31 24.48C103.82 24.86 103.23 25.13 102.81 25.59C102.7 25.68 101.99 25.95 101.88 26.08C101.81 26.15 101.37 26.16 101.34 26.25L101.32 26.28Z" fill="#231F20"/>
<path d="M76.0398 111.23C75.4698 111.17 74.8998 111.07 74.3298 110.97C74.1198 110.94 73.9098 110.94 73.7098 110.9C72.9798 110.75 72.2598 110.6 71.5498 110.42C71.2298 110.34 70.9098 110.28 70.5998 110.22C70.1898 110.15 69.7898 110.08 69.3998 109.92C69.2798 109.87 69.3098 109.77 69.4398 109.66C69.5698 109.55 69.7898 109.42 70.0198 109.41C70.8598 109.4 71.6898 109.29 72.4998 109.52C72.9898 109.64 73.5098 109.59 74.0098 109.62C74.5598 109.65 75.1198 109.69 75.6798 109.72C76.0198 109.74 76.3698 109.77 76.7098 109.77C77.2298 109.78 77.7598 109.81 78.2698 109.75C78.6698 109.71 79.0598 109.56 79.4398 109.45C79.5298 109.43 79.6098 109.39 79.6898 109.37C80.0098 109.31 80.1198 109.41 80.2398 109.85C80.2698 109.95 80.2998 110.05 80.3198 110.15C80.3898 110.5 80.2798 110.79 80.0398 110.91C79.3398 111.26 78.5598 111.33 77.7798 111.34C77.1998 111.34 76.6198 111.3 76.0398 111.27V111.23Z" fill="#231F20"/>
</svg>
