<svg width="128" height="128" viewBox="0 0 128 128" fill="none" xmlns="http://www.w3.org/2000/svg">
<path d="M21.6001 58.9401C21.6076 58.8458 21.6339 58.7539 21.6774 58.6699C21.7209 58.586 21.7807 58.5115 21.8534 58.4509C21.926 58.3904 22.0101 58.345 22.1005 58.3173C22.191 58.2897 22.286 58.2804 22.3801 58.2901C24.3501 58.4701 21.4001 61.0001 21.6001 58.9401Z" stroke="#231F20" stroke-width="0.5" stroke-miterlimit="10"/>
<path d="M53 58C50.6 58 48.2 58 45.78 57.77C43.2874 57.6179 40.8277 57.1233 38.47 56.3C38.0989 56.1663 37.7407 55.9989 37.4 55.8C36.9891 55.5599 36.6038 55.2784 36.25 54.96C35.9764 54.6041 35.7789 54.1956 35.67 53.76C35.59 53.39 35.56 53.16 35.51 52.87C35.43 52.32 35.38 51.79 35.33 51.26C34.84 45.07 34.71 39 34.36 33C34.22 30.31 34.01 27.61 33.75 25C33.41 21.58 32.94 18.19 32.81 14.76C32.76 13.7 33.1 13.76 33.67 14.6C34.0486 15.1598 34.3829 15.7483 34.67 16.36C35.032 17.2058 35.2905 18.0923 35.44 19C36.3989 25.9597 36.8999 32.9748 36.94 40C36.94 42.12 37.09 44.28 37.24 46.44C37.39 48.6 37.55 50.8 37.83 52.82L37.9 53.19C37.9 53.25 37.9 53.32 37.99 53.35C38.08 53.38 38.19 53.53 38.38 53.66C38.57 53.79 38.78 53.88 38.98 54.01C39.193 54.1306 39.4135 54.2375 39.64 54.33C39.8642 54.4423 40.0986 54.5327 40.34 54.6C40.8349 54.7583 41.3392 54.8853 41.85 54.98C42.35 55.1 42.85 55.18 43.4 55.26C45.5348 55.5497 47.6858 55.7033 49.84 55.72C52.74 55.77 55.66 55.72 58.57 55.51C62.98 55.25 67.41 54.85 71.78 54.3C75.17 53.87 78.47 53.3 81.78 52.72L83.98 52.35C84.9662 52.1464 85.9756 52.0791 86.98 52.15C87.474 52.1626 87.9536 52.319 88.36 52.6C88.513 52.6925 88.654 52.8033 88.78 52.93C88.91 53.12 88.7 53.31 88.24 53.51C87.5195 53.8037 86.7772 54.041 86.02 54.22C80.09 55.4 73.75 56.35 67.35 57.02C62.59 57.52 57.78 57.85 52.95 57.96L53 58Z" fill="#231F20"/>
<path d="M88.4299 36.9L88.5299 32.7C88.5299 32.19 88.5299 31.7 88.5299 31.17C88.5299 29.37 88.6199 27.56 88.5999 25.75C88.5999 24.95 88.4999 24.15 88.4599 23.36C88.3333 22.3486 88.2965 21.3279 88.3499 20.31C88.3499 19.99 88.7499 19.99 89.1599 20.22C89.4058 20.3505 89.6218 20.5308 89.794 20.7495C89.9661 20.9682 90.0908 21.2204 90.1599 21.49C90.5712 23.5597 90.709 25.6744 90.5699 27.78C90.4999 29.05 90.6899 30.35 90.7299 31.64C90.7699 32.93 90.8099 34.48 90.7999 35.9V38.52C90.7999 39.84 90.7999 41.17 90.7999 42.52C90.7999 43.52 90.9999 44.52 91.0699 45.58C91.0699 45.81 91.0699 46.03 91.0699 46.26C91.0699 47.12 90.7899 47.4 90.1799 47.5C90.0449 47.5322 89.908 47.5556 89.7699 47.57C89.3099 47.57 88.9499 47.21 88.7699 46.64C88.4574 44.8306 88.3134 42.996 88.3399 41.16C88.3399 39.75 88.3399 38.34 88.3399 36.94L88.4299 36.9Z" fill="#231F20"/>
<path d="M67.1 10.76C64.5 10.9 61.8933 11.0634 59.28 11.25C58.28 11.32 57.38 11.46 56.42 11.52C53.05 11.76 49.67 11.92 46.27 11.95C44.77 11.95 43.27 11.95 41.75 11.95C40.75 11.95 39.82 11.95 38.85 11.82C37.8814 11.716 36.9263 11.5115 36 11.21C35.42 11.02 35.57 10.8 36.11 10.62C36.9401 10.3638 37.8015 10.2224 38.67 10.2C42.44 10.4 46.29 10.2 50.18 10.05C52.51 9.99003 54.93 9.65003 57.32 9.41003C59.94 9.16003 62.58 8.92003 65.22 8.73003C66.85 8.61003 68.48 8.53003 70.11 8.45003C72.58 8.33003 75.11 8.32003 77.54 8.34003C79.45 8.34003 81.34 8.34003 83.26 8.41003C83.68 8.41003 84.09 8.46003 84.52 8.51003C86.09 8.71003 86.52 9.00003 86.77 9.62003C86.8288 9.75823 86.8724 9.90241 86.9 10.05C86.9 10.52 86.26 10.78 85.16 10.73C81.87 10.62 78.44 10.49 74.95 10.52C72.35 10.52 69.74 10.64 67.12 10.82L67.1 10.76Z" fill="#231F20"/>
<path d="M79 26.7101C76.84 29.3401 74.79 32.1001 72.85 34.9401C72.14 35.9401 71.53 37.0701 70.85 38.1201L68.85 41.2701L67.85 42.8701L66.28 45.4001C65.964 45.8523 65.5416 46.2198 65.05 46.4701C65.0049 46.5078 64.9512 46.5339 64.8937 46.5461C64.8361 46.5583 64.7765 46.5563 64.72 46.5401C64.6039 46.5046 64.493 46.4542 64.39 46.3901C64.1626 46.2582 63.9512 46.1004 63.76 45.9201C63.277 45.3938 62.8667 44.8053 62.54 44.1701C62.35 43.8401 62.16 43.5101 61.98 43.1701L61.59 42.4401C60.6607 40.7132 59.6289 39.0436 58.5 37.4401C57.78 36.4401 57.03 35.4401 56.24 34.5401C55.5208 33.6448 54.6869 32.848 53.76 32.1701C53.24 31.8701 53.33 31.3501 54.22 31.1701C54.886 31.1007 55.5591 31.1804 56.1904 31.4035C56.8218 31.6267 57.3955 31.9876 57.87 32.4601C59.8003 34.3551 61.4806 36.4891 62.87 38.8101C63.22 39.3601 63.56 39.9301 63.87 40.4901L64.37 41.3301C64.37 41.4301 64.37 41.4101 64.37 41.4201V41.5201C64.3983 41.6523 64.435 41.7826 64.48 41.9101C64.48 41.9101 64.55 42.1501 64.59 42.1001L64.72 42.0301L64.8 41.9601C64.8681 41.8982 64.9316 41.8313 64.99 41.7601L65.09 41.6301L65.36 41.1701C65.75 40.5201 66.13 39.8601 66.52 39.1701C67.29 37.8601 68.05 36.5301 68.88 35.2501C70.8266 32.2834 72.8666 29.3868 75 26.5601C76.32 24.8301 77.68 23.1301 79.1 21.4801C81.2762 18.9604 83.6145 16.5854 86.1 14.3701C87.9823 12.5683 90.0622 10.9849 92.3 9.65009C92.8087 9.34243 93.3442 9.08137 93.9 8.87009C96.03 8.08009 96.9 8.32009 97.42 9.12009C97.5574 9.29496 97.6779 9.48247 97.78 9.68009C97.839 9.85828 97.8409 10.0505 97.7853 10.2298C97.7297 10.4091 97.6195 10.5666 97.47 10.6801C97.0512 11.0332 96.5829 11.3229 96.08 11.5401C92.2802 13.5005 88.8304 16.0752 85.87 19.1601C83.4602 21.5663 81.1962 24.1141 79.09 26.7901L79 26.7101Z" fill="#231F20"/>
<path d="M51.0001 59.1C48.7895 59.0728 46.5824 58.9159 44.3901 58.63C42.1467 58.3494 39.9487 57.7814 37.8501 56.94C37.4701 56.75 37.0701 56.6 36.7101 56.38L36.1801 56L35.8901 55.82C35.7589 55.7227 35.6412 55.6084 35.5401 55.48C35.2178 55.0688 34.9923 54.5903 34.8801 54.08C34.7642 53.6721 34.6707 53.2582 34.6001 52.84C34.2152 50.0408 33.9715 47.2238 33.8701 44.4L33.4601 36C33.3401 33.53 33.1801 31 32.9601 28.6C32.6701 25.45 32.2801 22.32 32.0701 19.18C32.0001 18.18 32.2401 18.28 32.6701 19.06C32.9565 19.5893 33.207 20.1372 33.4201 20.7C33.6935 21.5025 33.8878 22.3298 34.0001 23.17C34.8046 29.6172 35.2552 36.1036 35.3501 42.6C35.3501 44.54 35.5201 46.52 35.7001 48.5C35.7801 49.5 35.8901 50.5 36.0301 51.5C36.1376 52.4262 36.3318 53.3402 36.6101 54.23C36.644 54.313 36.6841 54.3932 36.7301 54.47C36.7521 54.5157 36.7868 54.5539 36.8301 54.58L37.4501 54.98C37.8801 55.24 38.3401 55.48 38.8001 55.71C39.2794 55.932 39.774 56.1191 40.2801 56.27C40.7859 56.4337 41.3 56.5705 41.8201 56.68C43.9256 57.1423 46.0667 57.4233 48.2201 57.52C50.885 57.659 53.5553 57.659 56.2201 57.52C60.2801 57.33 64.3601 56.97 68.3701 56.45C71.4901 56.05 74.5301 55.5 77.6101 55.01L79.6101 54.68C82.1601 54.29 83.0501 54.51 83.6101 54.82C83.7449 54.8692 83.8753 54.9294 84.0001 55C84.2201 55.27 83.2501 55.47 81.4201 55.89C75.9701 56.89 70.1401 57.81 64.2501 58.4C59.8511 58.8977 55.4273 59.1448 51.0001 59.14V59.1Z" fill="#231F20"/>
<path d="M54 118.93C51.61 118.93 49.2 118.93 46.79 118.7C44.2942 118.547 41.8313 118.052 39.47 117.23C39.002 117.049 38.5504 116.828 38.12 116.57L37.38 115.99C37.2254 115.889 37.1064 115.742 37.04 115.57C36.9362 115.416 36.8553 115.247 36.8 115.07C36.7311 114.906 36.6808 114.735 36.65 114.56C36.65 114.44 36.6 114.3 36.58 114.19L36.48 113.51C36.42 113.06 36.37 112.63 36.34 112.19C35.89 106.05 35.76 100.01 35.41 93.93C35.27 91.24 35.06 88.54 34.8 85.93C34.45 82.51 33.98 79.12 33.86 75.69C33.81 74.63 34.14 74.69 34.71 75.53C35.0853 76.0917 35.4195 76.6799 35.71 77.29C36.0719 78.1358 36.3305 79.0222 36.48 79.93C37.4235 86.9142 37.9112 93.9524 37.94 101C37.94 103.12 38.09 105.28 38.24 107.44C38.39 109.6 38.54 111.8 38.82 113.82C38.93 114.42 38.82 114.22 39.25 114.57C39.6734 114.856 40.1219 115.104 40.59 115.31C41.634 115.728 42.7255 116.017 43.84 116.17C46.1566 116.525 48.4963 116.709 50.84 116.72C53.74 116.77 56.66 116.72 59.57 116.51C63.98 116.25 68.42 115.85 72.78 115.3C76.18 114.87 79.48 114.3 82.78 113.72L84.98 113.35C85.9661 113.146 86.9755 113.079 87.98 113.15C88.4761 113.168 88.9575 113.324 89.37 113.6C89.5176 113.696 89.655 113.806 89.78 113.93C89.92 114.12 89.71 114.31 89.24 114.51C88.52 114.805 87.7776 115.043 87.02 115.22C81.1 116.4 74.76 117.35 68.35 118.02C63.59 118.52 58.79 118.86 53.96 118.97L54 118.93Z" fill="#231F20"/>
<path d="M89.4203 97.8901L89.5203 93.6801C89.5203 93.1701 89.5203 92.6801 89.5203 92.1501C89.5203 90.3501 89.6203 88.5401 89.5903 86.7301C89.5903 85.9301 89.4903 85.1401 89.4503 84.3401C89.3251 83.3452 89.2916 82.341 89.3503 81.3401C89.3503 81.0301 89.7503 81.0201 90.1603 81.2501C90.4062 81.3805 90.6222 81.5608 90.7944 81.7795C90.9666 81.9982 91.0912 82.2504 91.1603 82.5201C91.5765 84.5891 91.7143 86.7045 91.5703 88.8101C91.5003 90.0801 91.6903 91.3801 91.7403 92.6701C91.7903 93.9601 91.8103 95.5101 91.8003 96.9301V99.5001C91.8003 100.82 91.8003 102.15 91.8003 103.5C91.8003 104.5 91.9903 105.5 92.0703 106.56C92.0703 106.79 92.0703 107.01 92.0703 107.24C92.0103 108.1 91.7903 108.38 91.1803 108.48C91.0421 108.513 90.9018 108.536 90.7603 108.55C90.3003 108.55 89.9403 108.19 89.7603 107.62C89.4376 105.812 89.2936 103.976 89.3303 102.14C89.3303 100.73 89.3303 99.3201 89.3303 97.9201L89.4203 97.8901Z" fill="#231F20"/>
<path d="M68.1001 71.74C65.5001 71.88 62.8934 72.0433 60.2801 72.23C59.2801 72.31 58.3701 72.44 57.4201 72.5C54.0501 72.74 50.6601 72.91 47.2701 72.93C45.7601 72.93 44.2701 72.93 42.7401 72.93C41.7401 72.93 40.8101 72.93 39.8401 72.81C38.8757 72.695 37.9247 72.4874 37.0001 72.19C36.4201 72 36.5701 71.78 37.1201 71.6C37.947 71.3445 38.8049 71.2032 39.6701 71.18C43.4401 71.38 47.2901 71.18 51.1801 71.03C53.5201 70.97 55.9301 70.63 58.3201 70.39C60.9501 70.14 63.5801 69.9 66.2301 69.71C67.8501 69.59 69.4901 69.51 71.1201 69.43C73.5901 69.32 76.1201 69.31 78.5401 69.32C80.4601 69.32 82.3501 69.32 84.2601 69.39C84.6801 69.39 85.1001 69.39 85.5201 69.49C87.0901 69.69 87.5201 69.98 87.7701 70.6C87.8275 70.7396 87.8743 70.8834 87.9101 71.03C87.9101 71.5 87.2701 71.76 86.1601 71.71C82.8801 71.6 79.4401 71.47 75.9501 71.5C73.3601 71.5 70.7401 71.62 68.1201 71.8L68.1001 71.74Z" fill="#231F20"/>
<path d="M80 87.69C77.84 90.32 75.79 93.08 73.85 95.92C73.15 96.92 72.53 98.05 71.85 99.1L70 101.89L69.11 103.3L68.67 104L68 105.18C67.7898 105.564 67.556 105.935 67.3 106.29L66.94 106.77C66.8849 106.847 66.8248 106.921 66.76 106.99L66.58 107.11L66.23 107.36L65.92 107.52C65.59 107.52 65.4 107.36 65.15 107.21C64.5477 106.738 64.0591 106.136 63.72 105.45C63.28 104.73 62.79 103.8 62.59 103.45C61.6644 101.721 60.6324 100.051 59.5 98.45C58.7996 97.4458 58.0487 96.4779 57.25 95.55C56.5247 94.6569 55.6878 93.8604 54.76 93.18C54.24 92.88 54.33 92.36 55.22 92.18C55.886 92.1099 56.5593 92.1893 57.1908 92.4125C57.8222 92.6357 58.3959 92.997 58.87 93.47C60.8003 95.3651 62.4806 97.499 63.87 99.82C64.22 100.38 64.56 100.94 64.87 101.5L65.36 102.34C65.42 102.44 65.36 102.42 65.36 102.43V102.53C65.3789 102.663 65.4125 102.794 65.46 102.92C65.46 102.92 65.54 103.16 65.58 103.11L65.71 103.04C65.7774 102.988 65.8379 102.927 65.89 102.86L66 102.74V102.67L66.07 102.55L67.29 100.48C68.1 99.09 68.91 97.69 69.78 96.34C71.69 93.34 73.71 90.46 75.85 87.65C77.1833 85.91 78.5533 84.2134 79.96 82.56C82.1173 80.0394 84.439 77.6642 86.91 75.45C88.7959 73.6482 90.8791 72.0648 93.12 70.73C93.6266 70.4186 94.1625 70.1573 94.72 69.95C96.84 69.16 97.72 69.4 98.24 70.2C98.3744 70.375 98.4916 70.5626 98.59 70.76C98.6506 70.9381 98.6533 71.1308 98.5976 71.3104C98.5419 71.4901 98.4307 71.6475 98.28 71.76C97.865 72.1134 97.4 72.4032 96.9 72.62C93.1639 74.5525 89.7664 77.0787 86.84 80.1C84.4335 82.5064 82.1728 85.0542 80.07 87.73L80 87.69Z" fill="#231F20"/>
<path d="M53.41 120C48.91 120 44.34 119.8 39.88 118.33L39.09 118.06L38.32 117.69C37.7915 117.436 37.2833 117.142 36.8 116.81C36.4672 116.519 36.2157 116.147 36.07 115.73C35.9553 115.427 35.8617 115.116 35.79 114.8C35.283 111.928 34.9789 109.024 34.88 106.11L34.43 97.51C34.3 94.97 34.12 92.42 33.9 89.91C33.6 86.68 33.2 83.47 32.97 80.25C32.9 79.25 33.14 79.33 33.57 80.13C33.865 80.6716 34.1223 81.2329 34.34 81.81C34.6193 82.6229 34.8234 83.4598 34.95 84.31C35.7631 90.9243 36.2271 97.5768 36.34 104.24C36.41 106.24 36.54 108.24 36.74 110.24C36.84 111.24 36.96 112.24 37.12 113.24C37.21 113.72 37.3 114.24 37.42 114.65C37.4741 114.99 37.6077 115.312 37.81 115.59L37.9 115.65C39.7194 116.808 41.7649 117.565 43.9 117.87C46.0888 118.239 48.301 118.453 50.52 118.51C53.26 118.59 56.01 118.51 58.76 118.37C62.93 118.13 67.11 117.71 71.23 117.17C74.43 116.74 77.55 116.17 80.7 115.66L82.78 115.33C85.39 114.92 86.3 115.13 86.88 115.45C87.0163 115.514 87.144 115.594 87.26 115.69C87.38 115.83 87.17 115.95 86.72 116.08C86.27 116.21 85.55 116.4 84.61 116.6C79.02 117.6 73.05 118.6 67.01 119.23C62.53 119.72 58.01 120.06 53.44 120.11L53.41 120Z" fill="#231F20"/>
<path d="M103.47 17.66C103.478 17.5657 103.504 17.4739 103.548 17.3899C103.591 17.3059 103.651 17.2315 103.723 17.1709C103.796 17.1104 103.88 17.0649 103.971 17.0373C104.061 17.0097 104.156 17.0004 104.25 17.01C106.22 17.19 103.27 19.73 103.47 17.66Z" stroke="#231F20" stroke-width="0.5" stroke-miterlimit="10"/>
<path d="M104.94 86.7001C104.949 86.6054 104.976 86.5133 105.021 86.4293C105.065 86.3452 105.126 86.2708 105.199 86.2104C105.273 86.15 105.358 86.1047 105.449 86.0772C105.54 86.0496 105.635 86.0405 105.73 86.0501C107.7 86.2301 104.75 88.7701 104.94 86.7001Z" stroke="#231F20" stroke-width="0.5" stroke-miterlimit="10"/>
<path d="M95.2103 29.43C95.3607 29.4923 95.4811 29.6104 95.5464 29.7596C95.6116 29.9087 95.6166 30.0773 95.5603 30.23C95.0003 31.79 93.5703 28.8 95.2103 29.43Z" fill="#231F20"/>
</svg>
