<svg width="128" height="128" viewBox="0 0 128 128" fill="none" xmlns="http://www.w3.org/2000/svg">
<path d="M43.6998 109.09C43.0298 109.37 38.2698 111.22 39.2098 113.89C39.9398 115.97 56.0198 117.69 56.0198 117.69L45.3298 112.25L43.6898 109.08L43.6998 109.09Z" fill="#231F20"/>
<path d="M64.4699 54.43C63.7099 54.55 53.4799 56.32 51.0499 59.34C49.0099 61.87 65.0499 61.06 65.0499 61.06L64.4699 54.44V54.43Z" fill="#231F20"/>
<path d="M65.8198 54.43C65.8198 54.43 78.4698 55.75 80.4798 59.82C82.4898 63.89 65.8198 60.42 65.8198 60.42V54.43Z" fill="#231F20"/>
<path d="M42.4102 66.8C42.6902 66.33 45.2602 63.92 47.9602 65.17C52.2902 67.18 54.7302 72.47 53.8302 75.49C52.9102 78.59 59.3502 79.01 60.0102 74.87C60.3202 72.93 60.1002 69.19 63.1202 69.85C65.5502 70.38 65.1902 73.78 67.4502 74.46C69.3302 75.02 71.1202 72.3 72.2502 68.62C73.3802 64.94 75.8602 68.24 78.3702 67.58C81.4302 66.78 85.8502 62.82 86.5102 57.45C87.0102 53.39 79.4302 61.13 74.4202 60.72C69.4102 60.31 50.0402 59.89 49.4002 59.74C48.7602 59.59 43.7002 56.5 43.7002 56.5L42.4202 66.79L42.4102 66.8Z" fill="#231F20"/>
<path d="M65.0498 42.7C63.4298 42.55 61.6398 40 62.9198 38.09C64.1898 36.18 65.0498 35.99 65.8298 34.02C66.0898 33.36 68.0198 36.42 68.5198 37.83C69.0198 39.24 68.9398 43.05 65.0598 42.7H65.0498Z" fill="#231F20"/>
<path d="M45.36 107.65C45.54 108.14 45.77 108.61 45.99 109.09C46.24 109.54 46.48 110.01 46.79 110.42C47.03 110.71 47.26 111.02 47.53 111.28C48.39 112.29 49.42 113.22 50.64 113.89C51.17 114.2 51.77 114.4 52.35 114.59C53.11 114.83 53.88 114.98 54.61 115.48C54.84 115.63 54.79 115.74 54.54 115.91C54.41 116 54.23 116.11 54.01 116.24C53.9 116.3 53.78 116.36 53.65 116.42C53.59 116.45 53.52 116.46 53.45 116.5C53.39 116.5 53.33 116.5 53.26 116.5C52.82 116.47 52.38 116.37 51.93 116.29C51.49 116.21 51.08 116 50.65 115.84C49.82 115.49 49.02 115.02 48.31 114.42C47.45 113.74 46.57 113.02 45.85 112.16C45.09 111.2 44.49 110.14 44.02 109.03C43.86 108.7 43.78 108.33 43.66 107.99C43.54 107.65 43.44 107.3 43.36 106.94C43.22 106.41 43.1 105.88 43.02 105.34C42.92 104.81 42.84 104.27 42.78 103.74C42.65 102.92 42.57 102.1 42.5 101.28L42.48 100.74C42.48 100.06 42.56 99.85 42.78 99.7C42.83 99.67 42.88 99.62 42.93 99.61C43.1 99.55 43.25 99.82 43.35 100.3C43.6 101.73 44.01 103.18 44.34 104.6C44.63 105.64 44.92 106.69 45.38 107.64L45.34 107.66L45.36 107.65Z" fill="#231F20"/>
<path d="M60.41 27.22C61.23 26.53 62.03 25.84 62.79 25.12C63.06 24.84 63.32 24.57 63.58 24.29C64.54 23.34 65.44 22.34 66.26 21.25C66.6 20.75 66.97 20.27 67.25 19.75C67.45 19.42 67.63 19.08 67.83 18.76C68.06 18.44 68.31 18.14 68.57 17.83C68.74 17.64 68.81 17.71 68.87 17.97C68.92 18.22 69.01 18.69 68.93 19.17C68.89 19.61 68.63 19.94 68.48 20.32C68.3 20.69 68.12 21.06 67.9 21.41C67.46 22.11 66.91 22.73 66.35 23.34C65.65 24.05 65.05 24.88 64.35 25.59C63.59 26.39 62.77 27.11 61.96 27.84L60.46 29.16C59.7 29.82 58.93 30.48 58.24 31.18C57.71 31.74 57.24 32.34 56.75 32.91L56.43 33.29C56.02 33.75 55.82 33.84 55.49 33.75C55.42 33.73 55.34 33.72 55.27 33.69C55.05 33.59 55.07 33.27 55.3 32.85C55.64 32.22 56.05 31.62 56.48 31.02C56.95 30.46 57.46 29.92 57.98 29.4C58.75 28.62 59.57 27.9 60.37 27.19L60.4 27.22H60.41Z" fill="#231F20"/>
<path d="M45.51 114.4L44.94 114.01L44.66 113.81C44.54 113.74 44.43 113.62 44.28 113.57C44.13 113.34 43.9 113.18 43.78 112.94C43.63 112.74 43.49 112.42 43.42 112.27C43.28 111.92 43.17 111.59 43.09 111.28C42.91 110.65 42.78 110.06 42.67 109.47C42.44 108.29 42.26 107.13 42.11 105.97C41.82 103.65 41.61 101.34 41.42 99.04C41.27 97.21 41.07 95.39 40.97 93.56C40.62 87.11 40.62 80.66 40.71 74.21C40.76 71.35 40.78 68.47 40.89 65.62L41.01 62.87C41.08 61.95 41.18 61.03 41.31 60.12C41.45 59.2 41.59 58.28 41.85 57.37C41.98 56.92 42.13 56.47 42.3 56.02C42.48 55.58 42.77 55.16 43.04 54.75C43.43 54.26 43.67 54.11 43.69 54.15C43.74 54.2 43.6 54.46 43.59 54.97C43.59 56 44.06 57.77 43.89 59.77C43.77 63.36 43.5 67.02 43.45 70.7C43.36 74.38 43.33 78.08 43.28 81.8C43.23 86.26 43.62 90.88 43.91 95.42C44.07 97.92 44.26 100.41 44.52 102.9C44.79 105.37 45.06 107.88 45.58 110.21C45.66 110.52 45.74 110.83 45.83 111.1C45.88 111.25 45.93 111.35 45.95 111.41C45.99 111.47 46.02 111.56 46.11 111.59C46.23 111.71 46.51 111.88 46.72 112.04C46.94 112.2 47.16 112.37 47.39 112.52L48.91 113.29C49.97 113.72 51.06 114.14 52.21 114.39C56.63 115.52 61.34 115.82 65.93 115.68C69.5 115.54 72.99 114.99 76.38 114.19C77.13 114.03 77.85 113.8 78.58 113.59C79.27 113.41 79.83 113.26 80.29 113.12C80.76 112.99 81.15 112.92 81.48 112.89C82.1101 112.78 82.56 112.89 83.02 113.16C83.23 113.28 83.48 113.38 83.64 113.51C83.91 113.74 83.83 114.08 83.41 114.54C83.2001 114.77 82.9 115.01 82.52 115.26C82.14 115.5 81.68 115.69 81.15 115.91C78 117.13 74.66 117.78 71.25 118.16C67.84 118.53 64.37 118.61 60.89 118.41C55.73 118.03 50.49 117.31 45.49 114.5L45.52 114.44L45.51 114.4Z" fill="#231F20"/>
<path d="M86.3701 90.64L86.9801 82.61C87.0601 81.63 87.0201 80.65 87.0901 79.67C87.2301 77.94 87.2901 76.21 87.4501 74.48C87.5901 72.75 87.7301 71.01 87.8101 69.28C87.9001 67.74 87.8701 66.19 87.8801 64.66C87.8801 62.69 87.7601 60.72 88.2201 58.75C88.3701 58.13 88.4201 58.21 88.6901 58.73C88.9501 59.24 89.5801 60.18 89.7701 61.31C90.2401 65.32 90.4501 69.35 90.2501 73.42C90.2001 74.64 90.1901 75.88 90.1701 77.12C90.1701 78.37 90.1701 79.62 90.1201 80.87C90.0201 83.61 89.8501 86.34 89.5601 89.07L89.0201 94.1C88.7501 96.64 88.3701 99.18 88.0701 101.7C87.8101 103.65 87.7001 105.59 87.4201 107.53C87.3601 107.96 87.3401 108.38 87.2301 108.8C86.8301 110.37 86.5801 110.84 85.9001 111.04C85.7601 111.09 85.6301 111.17 85.5301 111.19C85.2501 111.28 84.7801 110.51 84.8601 109.35C84.9201 105.87 85.4001 102.33 85.6801 98.71C85.9001 96.03 86.1401 93.34 86.2901 90.64H86.3701Z" fill="#231F20"/>
<path d="M63.8401 52.98C63.8901 51.9 64.0701 50.8 64.1801 49.71C64.2201 49.31 64.1801 48.92 64.2201 48.52C64.3801 47.11 64.5301 45.7 64.5901 44.28C64.6201 43.65 64.5801 43.03 64.6001 42.41C64.6101 42.01 64.5801 41.61 64.6301 41.21C64.6901 40.81 64.7701 40.4 64.8601 40C64.9201 39.75 64.9901 39.78 65.1501 39.98C65.3001 40.18 65.6601 40.55 65.8801 40.99C66.0901 41.38 66.1401 41.79 66.2601 42.19C66.3601 42.59 66.4801 42.99 66.5001 43.4C66.5801 44.21 66.6101 45.03 66.5601 45.85C66.5001 46.84 66.7201 47.85 66.7801 48.85C66.8301 49.95 66.9001 51.06 66.8501 52.17L66.7801 54.22C66.7601 55.25 66.6801 56.29 66.7401 57.32C66.7501 58.12 66.9201 58.9 66.9901 59.7C67.0101 59.87 66.9901 60.05 66.9701 60.22C66.8501 60.87 66.5401 61.07 66.0101 61.19C65.8901 61.22 65.7701 61.25 65.6501 61.27C65.2701 61.32 64.9101 61.04 64.5901 60.57C64.4301 60.22 64.1601 59.86 64.0801 59.51C63.9801 59.16 63.9001 58.8 63.8301 58.44C63.7601 58.08 63.7001 57.72 63.6601 57.36C63.6501 57 63.6401 56.63 63.6501 56.27C63.6501 55.19 63.7201 54.09 63.7401 53H63.8201L63.8401 52.98Z" fill="#231F20"/>
<path d="M69.9302 23.55C69.6102 22.98 69.2702 22.42 68.9302 21.87L68.4102 21.05L68.3502 20.96V20.94L68.3302 20.91L68.3002 20.84C68.2502 20.74 68.1902 20.63 68.1002 20.51C68.0802 20.49 68.0502 20.43 68.0302 20.46L67.9802 20.52L67.8702 20.66L67.7002 20.87C67.4902 21.15 67.2402 21.51 67.0002 21.8C66.2002 22.84 65.4402 23.87 64.6002 24.81C63.1202 26.48 61.6402 28.08 60.2802 29.74C58.9302 31.4 57.6602 33.13 56.9402 34.97C56.6202 35.78 56.4702 36.61 56.5102 37.39C56.5302 37.78 56.6102 38.14 56.7402 38.51C56.9002 38.91 57.0702 39.3 57.2802 39.67C57.8202 40.61 58.5402 41.43 59.4202 42.11C59.8502 42.46 60.3402 42.76 60.8302 43.07C61.0702 43.23 61.3302 43.38 61.5802 43.54C61.8302 43.7 62.0602 43.96 62.3102 44.15C62.9302 44.7 62.8602 44.64 62.1002 44.85C61.3302 45.13 59.7602 45.51 58.2602 44.68C56.9402 43.98 55.6702 42.97 54.7602 41.66C54.3102 41 53.9702 40.29 53.6802 39.58C53.3602 38.72 53.2202 37.81 53.2202 36.93C53.3202 35.19 53.9002 33.72 54.5802 32.46C55.2702 31.19 56.0802 30.07 56.9402 29.04C58.9302 26.63 60.9802 24.15 63.0002 21.7C63.4802 21.13 63.9502 20.55 64.3902 19.97C64.6202 19.68 64.8202 19.4 65.0502 19.09C65.3802 18.58 65.7202 18.08 66.0402 17.55C66.2302 17.16 66.4602 16.98 66.6802 16.76C66.9202 16.5 67.0702 16.45 67.2702 16.3C67.3302 16.21 67.5402 16.22 67.6502 16.25C67.7702 16.28 67.8902 16.32 68.0102 16.38C68.2502 16.49 68.4902 16.64 68.7402 16.85C69.2502 17.27 69.7002 18.03 70.1102 18.67L70.7002 19.54L71.1102 20.16C72.2702 21.99 73.3702 23.84 74.4002 25.75C75.9202 28.65 77.3302 31.63 78.0702 34.98C78.2002 35.64 78.3102 36.31 78.3302 37.03C78.3302 37.39 78.3202 37.77 78.2602 38.16C78.1902 38.58 78.0902 38.86 78.0102 39.21C77.6202 40.55 76.8802 41.94 75.6602 42.93C75.1402 43.37 74.5702 43.76 73.9302 44.01C72.7202 44.42 71.9002 44.4 71.3502 44.23C70.8002 44 70.5102 43.67 70.3002 43.29C70.2002 43.12 70.0802 42.97 70.0402 42.84C69.9602 42.62 70.1402 42.43 70.4802 42.13C70.8302 41.81 71.3102 41.46 71.8602 41.25C72.6602 40.84 73.3002 40.44 73.7802 39.91C74.2502 39.37 74.6102 38.72 74.8402 37.9C75.2702 36.8 74.7202 34.66 74.0202 32.67C72.9802 29.64 71.5302 26.54 69.8802 23.61L69.9402 23.57L69.9302 23.55Z" fill="#231F20"/>
<path d="M71.7501 61.82C67.7801 62.05 63.8101 62.09 59.8501 61.92C58.4001 61.86 56.9501 61.85 55.5001 61.7C53.1201 61.44 50.7301 61.13 48.3401 60.48C47.1501 60.15 45.9501 59.75 44.7701 59.03C44.1901 58.67 43.5901 58.2 43.1401 57.48C42.6701 56.76 42.5201 55.76 42.7701 54.94C42.8401 54.7 42.9401 54.46 43.0801 54.24C43.2101 54.03 43.4001 53.8 43.5401 53.67C44.5701 52.68 45.6501 52.21 46.7401 51.74C47.8301 51.3 48.9201 50.94 50.0201 50.65C51.4301 50.28 52.8601 49.93 54.3201 49.8C55.7801 49.67 57.2801 49.77 58.7201 50.1C59.6201 50.34 59.4501 50.46 58.6901 50.68C58.3101 50.8 57.7901 50.99 57.1801 51.25C56.5701 51.52 55.8801 51.8 55.1201 52C54.1701 52.3 53.1901 52.45 52.2401 52.72C51.2901 52.97 50.3401 53.26 49.4301 53.59C48.5201 53.92 47.6301 54.29 46.8501 54.72C46.4601 54.92 46.0901 55.14 45.8101 55.35C45.6801 55.45 45.5601 55.55 45.5101 55.62C45.4901 55.6 45.4801 55.64 45.4501 55.66C45.4401 55.83 45.3201 55.88 45.6601 56.27C45.9801 56.62 46.5801 57.01 47.2401 57.32C48.6501 57.98 50.3501 58.36 52.0701 58.6C53.7901 58.86 55.5601 58.94 57.3201 59.05C61.1801 59.25 65.0901 59.23 68.9801 59.01C71.3701 58.87 73.7701 58.68 76.1301 58.35C77.9201 58.1 79.7101 57.81 81.4301 57.38L82.0701 57.21L82.4601 57.1C82.7101 57.02 82.9601 56.93 83.2001 56.83C83.4401 56.72 83.6701 56.6 83.8601 56.42C84.0601 56.26 84.1401 55.93 83.9301 55.74C83.8201 55.62 83.6801 55.54 83.5401 55.46C83.2101 55.29 82.8701 55.15 82.5501 55.04C82.3401 54.98 81.6601 54.74 81.0801 54.58C79.9101 54.22 78.7201 53.9 77.5301 53.61C76.9501 53.49 76.3701 53.36 75.7901 53.24C74.7101 52.98 74.0201 52.83 73.5501 52.58C73.0901 52.32 72.8401 52.02 72.6301 51.63C72.5301 51.45 72.3901 51.27 72.3301 51.1C72.2201 50.81 72.4001 50.56 72.8801 50.34C73.3601 50.13 74.1001 49.96 75.0001 50.05C76.8501 50.2 78.6801 50.53 80.5101 50.99C81.4301 51.22 82.3401 51.49 83.2501 51.84L83.4201 51.9C83.5201 51.94 83.6101 51.97 83.7101 52.02L84.3201 52.29C84.7201 52.48 85.1601 52.64 85.5201 52.86L86.6001 53.51C86.8801 53.75 87.1301 54.01 87.3901 54.26C87.6701 54.72 87.9201 55.13 87.9901 55.72C88.0601 56.33 87.9401 56.93 87.7001 57.39C87.4501 57.86 87.0701 58.3 86.5601 58.7C86.0101 59.09 85.3601 59.44 84.6301 59.71C84.1701 59.88 83.7301 60.05 83.2401 60.19L82.7501 60.33L82.3601 60.43C81.8501 60.56 81.3401 60.68 80.8301 60.78C79.8101 60.99 78.8001 61.15 77.8001 61.3C75.7901 61.59 73.7801 61.78 71.7801 61.94V61.86L71.7501 61.82Z" fill="#231F20"/>
<path d="M85.9899 43.17C85.7599 43.13 85.5899 42.97 85.4399 42.83C85.3899 42.78 85.4199 42.69 85.4899 42.68C85.6499 42.66 85.7999 42.64 85.9099 42.62C85.9899 42.62 87.3399 42.55 87.8199 42.46C88.2799 42.38 88.7199 42.35 89.1499 42.41L91.7899 42.6C91.9899 42.61 92.1799 42.65 92.3599 42.72C92.9899 42.93 93.6399 43.08 94.3099 43.12C94.4199 43.12 94.5299 43.16 94.6599 43.09C94.8699 42.97 96.6599 43.22 96.8699 43.33C97.3999 43.61 97.9499 43.82 98.4899 44.08C98.5699 44.12 98.6599 44.08 98.7099 44.23C98.8199 44.56 98.9999 44.55 99.1699 44.61C99.4099 44.69 99.6399 44.8 99.8599 44.95C99.9699 45.03 100.05 45.22 100.14 45.38C100.22 45.53 100.07 45.96 100.02 46C99.8799 46.12 99.9199 46.34 99.8899 46.53C99.8799 46.59 99.8699 46.68 99.8499 46.72C99.8099 46.83 98.2499 47.3 98.0999 47.26C98.0799 47.26 97.5599 47.18 96.9999 47.09C96.4499 47.01 95.8699 46.91 95.7499 46.91C95.6199 46.91 95.5199 46.81 95.4099 46.73C95.3599 46.7 93.6999 46.46 93.6399 46.43C93.3099 46.31 92.9599 46.3 92.6699 45.99C92.6099 45.93 92.5399 45.92 92.4799 45.91C91.8999 45.77 91.3599 45.48 90.7999 45.25C90.5199 45.13 90.2199 45.06 89.9299 44.96C89.8799 44.94 89.8299 44.9 89.7799 44.87C89.7199 44.83 89.6599 44.79 89.5899 44.77C88.8999 44.55 88.2199 44.3 87.5399 44.02C87.3899 43.95 86.6699 43.51 86.4899 43.46C86.3899 43.42 86.0899 43.17 85.9899 43.16V43.17Z" fill="#231F20"/>
<path d="M84.2198 31.86C84.0498 32 83.8098 31.86 83.5498 31.64C83.4698 31.57 83.3598 31.3 83.3898 31.23C83.4598 31.1 83.5298 30.96 83.6098 30.83C83.6598 30.77 84.5898 29.93 84.8998 29.59C85.1898 29.24 85.5498 29.08 85.8998 28.9C86.6198 28.55 87.3398 28.17 88.0898 27.85C88.2598 27.79 88.4398 27.76 88.6198 27.77C89.2598 27.78 89.8398 27.62 90.4198 27.4C90.5198 27.36 90.6198 27.35 90.6898 27.22C90.7998 27 92.4198 26.58 92.6498 26.62C93.2098 26.71 93.7598 26.73 94.3098 26.81C94.3898 26.82 94.4598 26.77 94.5498 26.89C94.7598 27.18 94.9098 27.1 95.0698 27.1C95.2998 27.1 95.5298 27.12 95.7698 27.19C95.8898 27.23 96.0198 27.39 96.1398 27.52C96.2498 27.64 96.2598 28.11 96.2298 28.16C96.1498 28.32 96.2598 28.53 96.2898 28.72C96.2998 28.78 96.3198 28.87 96.3198 28.92C96.3198 29.04 95.2098 30.01 95.0798 30.03C95.0698 30.03 94.6298 30.16 94.1698 30.3C93.7098 30.44 93.2398 30.59 93.1498 30.64C93.0498 30.69 92.9298 30.64 92.8198 30.61C92.7598 30.59 91.4298 31.11 91.3698 31.12C91.0698 31.15 90.8198 31.32 90.4698 31.14C90.3998 31.1 90.3498 31.14 90.2898 31.14C89.8098 31.29 89.2998 31.35 88.7798 31.38C88.5098 31.4 88.2698 31.49 88.0098 31.54C87.9598 31.54 87.9098 31.52 87.8598 31.52C87.7998 31.52 87.7298 31.5 87.6698 31.52C87.0698 31.66 86.4398 31.76 85.8498 31.94C85.7098 31.97 84.9398 31.88 84.7898 31.95C84.6998 31.97 84.2998 31.8 84.2398 31.87L84.2198 31.86Z" fill="#231F20"/>
<path d="M46.9698 30.24C47.2098 30.26 47.2298 30.59 47.1398 31.05C47.1098 31.2 46.8898 31.54 46.8098 31.57C46.6398 31.62 46.4698 31.67 46.3098 31.7C46.2198 31.7 44.9898 31.5 44.5398 31.51C44.0998 31.51 43.7498 31.38 43.3898 31.24C42.6698 30.97 41.9198 30.73 41.1898 30.5C41.0298 30.45 40.8898 30.34 40.7598 30.22C40.3198 29.79 39.7798 29.55 39.2098 29.4C39.1098 29.38 39.0298 29.32 38.8898 29.4C38.6698 29.52 37.1798 29.02 37.0198 28.85C36.6498 28.39 36.2398 28.03 35.8198 27.66C35.7598 27.61 35.6698 27.62 35.6598 27.46C35.6198 27.1 35.4498 27.09 35.3098 27.01C35.1198 26.89 34.9198 26.78 34.7498 26.59C34.6598 26.5 34.6098 26.3 34.5498 26.13C34.4898 25.98 34.6598 25.61 34.7098 25.57C34.8498 25.47 34.8298 25.26 34.8698 25.09C34.8798 25.03 34.8998 24.96 34.9198 24.91C34.9598 24.81 36.4998 24.36 36.6498 24.41C36.6698 24.41 37.1698 24.47 37.7098 24.53C38.2498 24.59 38.8198 24.64 38.9198 24.68C39.0398 24.69 39.1198 24.81 39.2098 24.91C39.2598 24.94 40.8098 25.32 40.8598 25.36C41.1398 25.53 41.4898 25.56 41.6698 25.97C41.6998 26.05 41.7698 26.06 41.8298 26.09C42.3498 26.3 42.8198 26.63 43.2698 26.99C43.4998 27.17 43.7598 27.28 44.0098 27.43C44.0498 27.46 44.0798 27.52 44.1198 27.56C44.1698 27.61 44.1998 27.68 44.2598 27.71C44.8398 28.05 45.3698 28.49 45.9498 28.83C46.0798 28.91 46.5398 29.61 46.6898 29.69C46.7798 29.74 46.8698 30.23 46.9698 30.23V30.24Z" fill="#231F20"/>
<path d="M45.4098 38.31C45.7098 38.24 45.9698 38.47 46.1998 38.77C46.2698 38.87 46.2698 39.16 46.1898 39.22C46.0098 39.34 45.8298 39.46 45.6998 39.55C45.6498 39.57 45.2298 39.74 44.7498 39.89C44.2698 40.03 43.7498 40.2 43.4898 40.3C42.9798 40.49 42.4698 40.63 41.9598 40.75C40.9198 41.01 39.8998 41.32 38.8798 41.57C38.6498 41.63 38.4198 41.65 38.1798 41.66C37.3598 41.66 36.5798 41.86 35.8198 42.16C35.6898 42.21 35.5598 42.23 35.4598 42.38C35.2998 42.6 33.2598 43.35 32.9698 43.37C32.2398 43.37 31.5198 43.43 30.7898 43.5C30.6898 43.5 30.5998 43.59 30.4698 43.49C30.1498 43.26 29.9698 43.39 29.7498 43.44C29.4498 43.51 29.1498 43.58 28.8198 43.6C28.6598 43.6 28.4498 43.5 28.2498 43.42C28.0698 43.35 27.9498 42.89 27.9798 42.82C28.0498 42.63 27.8598 42.47 27.7698 42.29C27.7398 42.23 27.6998 42.15 27.6898 42.1C27.6498 41.99 29.0298 40.49 29.2398 40.42C29.2598 40.41 29.8798 40.09 30.5398 39.76C31.1898 39.43 31.8898 39.12 32.0398 39.07C32.1898 39 32.3698 39.03 32.5398 39.03C32.6098 39.01 34.6798 38.28 34.7698 38.28C35.2198 38.22 35.6498 38.03 36.1498 38.21C36.2498 38.24 36.3398 38.21 36.4198 38.19C37.1798 38.02 37.9598 38 38.7398 37.96C39.1398 37.94 39.5198 37.85 39.9198 37.84C39.9898 37.84 40.0698 37.87 40.1398 37.88C40.2298 37.89 40.3298 37.92 40.4198 37.92C41.3498 37.85 42.2898 37.93 43.2098 37.85C43.4198 37.83 44.4598 38.06 44.6998 38.04C44.8398 38.02 45.2998 38.35 45.4198 38.31H45.4098Z" fill="#231F20"/>
<path d="M56.13 19.26C56.29 19.38 56.25 19.61 56.13 19.88C56.09 19.96 55.89 20.1 55.83 20.08C55.7 20.04 55.56 20.01 55.44 19.96C55.37 19.92 54.43 19.3 54.06 19.13C53.72 18.95 53.41 18.75 53.13 18.53C52.57 18.06 52.13 17.51 51.63 17.01C51.52 16.89 51.44 16.76 51.37 16.61C51.15 16.1 50.81 15.68 50.41 15.31C50.34 15.25 50.3 15.17 50.16 15.16C49.95 15.15 48.94 14.09 48.93 13.85C48.81 13.35 48.62 12.89 48.45 12.42C48.43 12.35 48.35 12.32 48.41 12.2C48.53 11.91 48.41 11.83 48.34 11.7C48.24 11.52 48.15 11.33 48.1 11.11C48.07 11 48.13 10.83 48.16 10.67C48.19 10.53 48.52 10.32 48.57 10.31C48.72 10.31 48.82 10.13 48.94 10.01C48.98 9.97003 49.03 9.92003 49.07 9.90003C49.15 9.85003 50.42 10.31 50.51 10.41C50.52 10.42 50.84 10.72 51.19 11.03C51.53 11.34 51.9 11.66 51.98 11.72C52.07 11.78 52.08 11.9 52.11 12.01C52.13 12.06 53.09 13.05 53.12 13.1C53.26 13.35 53.5 13.53 53.48 13.9C53.48 13.97 53.52 14.01 53.56 14.06C53.87 14.44 54.08 14.89 54.32 15.33C54.44 15.55 54.61 15.74 54.75 15.94C54.78 15.98 54.78 16.03 54.79 16.08C54.81 16.14 54.82 16.2 54.85 16.25C55.24 16.7 55.37 17.34 55.72 17.81C55.79 17.93 55.95 18.62 56.05 18.74C56.1 18.81 56.07 19.19 56.14 19.24L56.13 19.26Z" fill="#231F20"/>
</svg>
