<svg width="128" height="128" viewBox="0 0 128 128" fill="none" xmlns="http://www.w3.org/2000/svg">
<path d="M88.7402 65.78C88.7402 65.78 93.4002 66.91 93.4002 70.52C93.4002 74.63 88.7402 75.45 88.7402 75.45V65.78Z" fill="#231F20"/>
<path d="M54.1301 23.09C52.8001 23.43 39.7501 26.15 40.3001 29.26C40.7201 31.66 52.7401 32.93 52.7401 32.93L17.8701 29.94L41.4501 24.74L54.1401 23.08L54.1301 23.09Z" fill="#231F20"/>
<path d="M38.3302 111.31C28.7302 111.12 18.8202 110.05 16.8702 106.23C15.1802 102.91 14.8202 94.56 14.4702 89.83C14.4702 89.83 12.9402 94.3 12.9602 94.72C12.9802 95.14 14.4202 111.25 14.4202 111.25L32.9602 112.23L38.3302 111.31Z" fill="#231F20"/>
<path d="M84.9498 104.96C85.2398 103.64 85.4298 102.24 85.5798 100.85C85.6298 100.34 85.6298 99.83 85.6698 99.32C85.8398 97.52 86.0698 95.6999 86.1098 93.8799C86.1098 93.0699 86.1598 92.26 86.1498 91.46C86.1398 90.43 86.1498 89.4 86.0698 88.37C86.0498 88.05 86.0698 88.0799 86.1898 88.3399C86.3098 88.5899 86.5598 89.07 86.7398 89.66C87.0198 90.7 87.2798 91.76 87.4498 92.82C87.5798 93.89 87.5698 94.96 87.5298 96.03C87.4698 97.31 87.5798 98.65 87.4998 99.97C87.4198 101.42 87.2798 102.86 87.0798 104.31C86.9398 105.2 86.7898 106.09 86.5298 107C86.3598 107.66 86.0098 108.48 85.4698 109.03C84.9398 109.6 84.2898 110 83.6498 110.32C82.6398 110.81 81.6198 111.19 80.5598 111.43C80.3298 111.48 80.0998 111.55 79.8598 111.56C78.9698 111.63 78.6798 111.47 78.4998 110.95C78.4598 110.83 78.3998 110.71 78.3798 110.59C78.2998 110.19 78.6398 109.86 79.1998 109.67C80.0398 109.38 80.8798 109.19 81.6598 108.91C82.4298 108.64 83.1598 108.31 83.6498 107.89C83.8398 107.74 83.9998 107.57 84.1298 107.4C84.2098 107.32 84.2398 107.22 84.2898 107.13C84.3398 107.03 84.3998 106.97 84.4398 106.81C84.6398 106.27 84.7998 105.61 84.9198 104.95H84.9698L84.9498 104.96Z" fill="#231F20"/>
<path d="M37.48 82.58C37.48 84.86 40.87 84.38 42.24 83.72C43.61 83.06 44.11 78.53 44.11 78.53C44.11 78.53 37.47 79.44 37.48 82.58Z" fill="#231F20"/>
<path d="M64.3102 77.4C64.3102 76.05 57.0302 77.68 57.6002 80.04C58.1702 82.4 64.3102 80.13 64.3102 80.13V77.4Z" fill="#231F20"/>
<path d="M45.0098 56.23L46.0498 63.37C46.0498 63.37 53.7498 64.4 57.0998 63.23C60.4498 62.06 64.3098 60.01 64.3098 60.01L63.7698 52.92C63.7698 52.92 48.5998 55.87 46.9898 55.81C45.3798 55.75 45.0098 56.24 45.0098 56.24V56.23Z" fill="#231F20"/>
<path d="M89.5101 69.7C89.5501 72.34 89.6101 74.99 89.6101 77.63C89.6101 78.6 89.6801 79.56 89.6701 80.52C89.6401 83.92 89.5401 87.33 89.4001 90.73C89.3701 92.24 89.3401 93.76 89.3001 95.25C89.2601 96.21 89.2201 97.18 89.1801 98.14C89.1601 98.62 89.1001 99.1 89.0201 99.58C88.9301 100.06 88.8901 100.54 88.7401 101.01C88.3901 101.59 88.4801 101.51 88.1501 100.99C87.9701 100.73 87.8301 100.36 87.6701 99.92C87.5401 99.48 87.3401 98.96 87.3601 98.41C87.1901 94.5 87.4301 90.62 87.6401 86.68C87.7901 84.33 87.6401 81.87 87.6101 79.46L87.4901 71.5L87.3701 66.6C87.2901 64.13 87.2201 61.64 87.0701 59.18C86.9501 57.27 86.7101 55.41 86.5301 53.52C86.4901 53.11 86.4301 52.7 86.4001 52.28C86.3401 51.5 86.3501 50.99 86.4701 50.62C86.5701 50.25 86.7401 50.04 86.9701 49.86C87.0801 49.78 87.1801 49.67 87.2801 49.63C87.5901 49.47 88.0101 50.08 88.2701 51.21C88.8001 54.56 89.0501 58.11 89.2401 61.69C89.3801 64.34 89.4701 67.01 89.5701 69.68H89.5201L89.5101 69.7Z" fill="#231F20"/>
<path d="M105.12 54.01C105.56 54.49 105.98 54.99 106.36 55.52C106.5 55.71 106.67 55.87 106.79 56.09C107.21 56.82 107.53 57.61 107.79 58.41C107.92 58.76 108.02 59.11 108.11 59.47C108.21 59.93 108.29 60.41 108.16 60.88C108.12 61.03 107.94 61 107.73 60.89C107.52 60.78 107.25 60.6 107.17 60.4L106.91 59.86C106.81 59.68 106.7 59.52 106.64 59.34C106.49 58.98 106.34 58.61 106.2 58.22C106.03 57.75 105.63 57.38 105.31 56.98C104.95 56.54 104.61 56.08 104.2 55.66C103.96 55.4 103.7 55.14 103.43 54.91C103.02 54.55 102.6 54.2 102.12 53.93C101.74 53.75 101.35 53.61 100.96 53.46C100.88 53.43 100.79 53.4 100.71 53.36C100.41 53.21 100.36 53.06 100.45 52.66C100.47 52.57 100.48 52.48 100.51 52.39C100.59 52.09 100.83 51.91 101.14 51.91C101.59 51.91 102.04 51.98 102.47 52.09C102.91 52.2 103.27 52.47 103.64 52.71C104.18 53.08 104.67 53.53 105.15 53.98L105.12 54.02V54.01Z" fill="#231F20"/>
<path d="M89.66 101.38C89.14 101.03 88.67 100.53 88.48 99.98C88.38 99.79 88.33 99.6 88.29 99.41C88.2 99.07 88.25 98.74 88.23 98.43C88.27 98.12 88.27 97.81 88.31 97.52C88.35 97.26 88.37 97 88.39 96.75C88.44 96.43 88.49 96.1 88.58 95.79C88.61 95.69 88.66 95.71 88.72 95.81C88.78 95.9 88.87 96.07 88.89 96.25C88.95 96.9 89.07 97.53 89.11 98.13C89.13 98.49 89.31 98.84 89.47 99.11C89.66 99.41 89.81 99.69 90.1 99.86C90.26 99.98 90.45 100.07 90.68 100.12C91.01 100.2 91.38 100.25 91.76 100.2C92.06 100.16 92.33 99.99 92.63 99.87C92.7 99.85 92.76 99.82 92.82 99.81C93.08 99.77 93.18 99.89 93.3 100.31L93.38 100.6C93.46 100.93 93.4 101.23 93.23 101.39C93.11 101.51 92.97 101.61 92.83 101.7C92.69 101.77 92.53 101.82 92.37 101.86C92.05 101.94 91.7 101.97 91.33 101.96C90.78 101.92 90.19 101.76 89.62 101.43L89.64 101.39L89.66 101.38Z" fill="#231F20"/>
<path d="M30.7999 112.66C28.9399 112.45 27.0799 112.18 25.2199 111.83C24.5399 111.69 23.8499 111.63 23.1799 111.42C22.5899 111.26 21.9999 111.06 21.4099 110.85C21.1099 110.74 20.8099 110.59 20.5099 110.47C20.2199 110.31 19.9399 110.16 19.6599 109.98C18.5699 109.27 17.6799 108.34 16.9699 107.32C16.3399 106.41 15.8099 105.44 15.4999 104.4C15.0699 103.08 14.8699 101.69 14.9499 100.33C14.9699 99.9099 14.9999 99.9699 15.0899 100.32C15.1699 100.67 15.3499 101.31 15.5899 102.03C15.9399 103.33 16.6999 104.45 17.3299 105.55C17.9899 106.64 18.8399 107.59 19.8199 108.37C20.4299 108.82 21.1199 109.14 21.8699 109.35C22.6599 109.55 23.4699 109.7 24.2799 109.85C26.0599 110.2 27.8999 110.45 29.7299 110.65C30.8599 110.76 31.9999 110.87 33.1399 110.94C34.8599 111.04 36.5999 111.17 38.3199 111.18C39.6599 111.19 40.9699 111.07 42.2899 111C42.5799 110.98 42.8599 110.95 43.1599 110.94C44.2499 110.91 44.5899 111.02 44.8399 111.5C44.8999 111.61 44.9699 111.71 44.9999 111.82C45.1099 112.18 44.6699 112.49 43.8699 112.63C41.4899 113.02 38.9799 113.11 36.4499 113.09C34.5699 113.09 32.6899 112.9 30.7999 112.74V112.69V112.66Z" fill="#231F20"/>
<path d="M58.25 64.68C57.06 64.95 55.86 65.18 54.66 65.37C54.22 65.44 53.8 65.58 53.35 65.63C51.78 65.79 50.19 65.83 48.59 65.71C47.88 65.66 47.16 65.6 46.44 65.48C45.98 65.4 45.49 65.33 45.04 65.1C44.82 64.97 44.59 64.88 44.4 64.67C44.22 64.47 44.06 64.26 43.93 64.02C43.78 63.72 44 63.59 44.41 63.42C44.62 63.33 44.86 63.23 45.12 63.09C45.38 62.94 45.61 62.82 45.79 62.84C47.06 62.97 48.58 63.05 50.25 63.28C51.26 63.4 52.28 63.11 53.3 62.94C54.43 62.76 55.56 62.54 56.68 62.27C57.37 62.11 58.06 61.92 58.74 61.72C59.77 61.4 60.81 61.07 61.77 60.6C62.52 60.23 63.17 59.7 63.82 59.21C63.96 59.1 64.09 58.97 64.24 58.87C64.78 58.48 65.1 58.64 65.59 59.17C65.7 59.29 65.82 59.4 65.92 59.52C66.24 59.91 66.27 60.5 65.92 60.98C64.79 62.21 63.29 62.98 61.76 63.59C60.62 64.05 59.43 64.4 58.25 64.73L58.23 64.67L58.25 64.68Z" fill="#231F20"/>
<path d="M43.4401 23.03L55.6201 20.84C57.1001 20.57 58.5601 20.21 60.0501 19.95C65.2801 19.04 70.5201 18.16 75.7701 17.33L78.3601 16.89L79.6501 16.66L80.3501 16.53C80.6701 16.48 81.0001 16.39 81.3201 16.37L81.9601 16.34C82.1801 16.33 82.3601 16.33 82.5501 16.45C82.8801 16.69 83.0701 17.03 83.2101 17.45C83.3501 18 83.3701 18.62 83.4301 19.19L83.4701 19.84L83.4901 20.42C83.5201 21.19 83.5101 21.96 83.4901 22.72C83.4601 24.25 83.2501 25.76 82.8801 27.26C82.5601 28.18 82.4401 28.03 82.1001 27.21C81.9201 26.8 81.7301 26.23 81.5201 25.55C81.4201 25.21 81.3001 24.84 81.2201 24.46C81.1501 24.07 81.1101 23.67 81.0801 23.24C81.0201 22.12 80.9401 21.01 80.8001 19.94L80.7601 19.6C80.7601 19.6 80.7601 19.59 80.7601 19.54C80.7401 19.61 80.7501 19.54 80.7401 19.56L80.0701 19.68L78.6501 19.92L75.8101 20.39C73.9101 20.69 72.0101 20.98 70.0901 21.21C66.4201 21.68 62.6901 22.58 58.9701 23.28L46.7101 25.56C44.1901 26.02 41.6801 26.49 39.1601 26.95C35.3501 27.66 31.5101 28.33 27.7401 29.09C24.8101 29.68 21.9601 30.43 19.0701 31.08C18.4301 31.22 17.8201 31.4 17.1701 31.52C14.7801 31.98 13.9701 31.9 13.3201 31.14C13.1701 30.98 12.9901 30.83 12.8901 30.66C12.5701 30.15 13.4401 29.34 15.1601 28.88C20.2601 27.44 25.6901 26.36 31.1701 25.29C35.2401 24.51 39.3301 23.73 43.4201 22.96L43.4401 23.04V23.03Z" fill="#231F20"/>
<path d="M22.9798 84.38L22.7298 73.25C22.7098 71.9 22.5898 70.55 22.5898 69.19C22.6098 64.41 22.6698 59.64 22.7598 54.87C22.7798 52.75 22.7998 50.62 22.8198 48.52C22.8498 47.17 22.8198 45.82 22.8798 44.46C22.9298 43.78 22.9998 43.11 23.0698 42.43C23.1298 41.76 23.3298 41.08 23.4498 40.41C23.6398 39.57 23.6798 39.69 23.9298 40.41C24.0598 40.77 24.2498 41.28 24.5098 41.89C24.7198 42.5 24.8698 43.22 24.9598 43.99L25.0698 45.02L25.1098 46.05L25.1798 48.11L25.2998 52.22C25.3298 54.97 25.2498 57.72 25.1698 60.49C25.0498 63.8 25.3198 67.25 25.3898 70.63L25.5998 81.82C25.6598 84.12 25.7198 86.41 25.7898 88.71C25.9098 92.19 25.9898 95.68 26.1898 99.13C26.3398 101.81 26.6398 104.43 26.8498 107.08C26.8998 107.66 26.9698 108.23 26.9998 108.82C27.0998 111.01 26.9198 111.71 26.2798 112.2C26.1298 112.31 25.9898 112.46 25.8398 112.52C25.3498 112.74 24.8898 111.87 24.6398 110.28C23.9698 105.57 23.6598 100.59 23.3898 95.57C23.1898 91.85 23.0598 88.1 22.8998 84.36H22.9698L22.9798 84.38Z" fill="#231F20"/>
<path d="M111.54 83.5C113.18 79.45 114.09 75.02 113.97 70.57C113.95 69.76 113.93 68.94 113.81 68.14C113.7 67.34 113.64 66.52 113.48 65.73C112.66 60.07 110.24 54.58 106.38 50.28C104.69 48.34 102.56 46.83 100.36 45.58C99.6201 45.23 98.9201 44.81 98.1601 44.52L95.8901 43.61C95.1101 43.37 94.3301 43.13 93.5501 42.86C92.7601 42.64 91.9801 42.38 91.1801 42.08C90.2101 41.58 90.3401 41.52 91.3001 41.19C91.7801 41.02 92.4601 40.86 93.3101 40.7C93.7401 40.61 94.1701 40.66 94.6401 40.7C95.1101 40.75 95.6001 40.83 96.1001 40.95C103.22 42.79 109.3 48.11 112.54 54.62C113.56 56.55 114.36 58.61 115.11 60.71C115.76 62.83 116.33 65 116.56 67.2C116.9 69.61 116.86 72.05 116.7 74.47C116.55 75.67 116.46 76.89 116.19 78.07C116.07 78.66 115.98 79.26 115.82 79.85L115.34 81.6C114.47 84.45 113.24 87.2 111.65 89.72C109.2 93.52 105.85 96.76 102 99.06C99.0201 100.87 95.8001 102.18 92.4201 102.97C91.6701 103.13 90.9501 103.36 90.1801 103.46C87.3501 103.82 86.4201 103.57 85.8201 102.69C85.6801 102.5 85.5001 102.31 85.4301 102.13C85.1701 101.55 86.2801 100.89 88.1801 100.61C88.8901 100.49 89.5901 100.36 90.3001 100.21C90.9901 100.03 91.6901 99.86 92.3901 99.68C93.1001 99.54 93.7801 99.3 94.4501 99.07C95.1301 98.83 95.8301 98.66 96.4801 98.34C99.1701 97.31 101.68 95.8 103.89 93.94L104.52 93.43L105.1 92.86L106.26 91.73L107.31 90.49L107.84 89.87L108.3 89.2L109.23 87.86L110.04 86.44C110.33 85.97 110.56 85.48 110.79 84.98C111.01 84.48 111.26 83.99 111.47 83.48L111.54 83.5Z" fill="#231F20"/>
<path d="M96.8799 75.32C97.5499 73.48 97.8399 71.48 97.7799 69.44C97.7599 68.7 97.5899 67.99 97.4699 67.27C97.0699 64.74 95.7099 62.41 93.6799 60.63C92.7699 59.85 91.7199 59.23 90.6599 58.65C89.9599 58.3 89.2599 57.97 88.5299 57.67C87.8199 57.32 87.1099 56.97 86.4099 56.56C85.9999 56.21 86.0899 56.12 86.6099 55.91C87.1199 55.72 88.0399 55.47 89.0099 55.66C90.6599 56.12 92.3299 56.71 93.8199 57.71C95.3099 58.69 96.6899 59.95 97.6999 61.49C98.9299 63.3 99.9899 65.38 100.38 67.56C100.62 68.75 100.66 69.95 100.67 71.14C100.61 72.34 100.49 73.53 100.2 74.69C99.8599 76.12 99.3699 77.51 98.6599 78.81C97.6399 80.8 96.0799 82.51 94.2599 83.8C92.8499 84.8 91.3099 85.67 89.5999 86.14C89.2299 86.24 88.8599 86.33 88.4699 86.4C87.0299 86.61 86.5599 86.29 86.3099 85.45C86.2499 85.26 86.1699 85.07 86.1499 84.89C86.0599 84.3 86.5999 83.65 87.4399 83.48C89.9399 82.82 92.1499 81.87 93.8999 80.13C95.1699 78.83 96.2399 77.2 96.8199 75.32L96.8899 75.34L96.8799 75.32Z" fill="#231F20"/>
<path d="M42.8402 59.39L42.7902 58.47L42.7602 57.83C42.7502 57.54 42.7302 57.26 42.7302 56.98C42.7202 55.86 42.7502 54.79 42.7802 53.7C43.9502 53.8 45.1202 53.9 46.1802 53.9L46.9702 53.92C47.1202 53.91 47.2702 53.89 47.4102 53.9C47.7102 53.9 48.0002 53.92 48.3002 53.92C49.4902 53.92 50.6802 53.87 51.8802 53.78C54.2802 53.58 56.6802 53.21 59.0402 52.68C59.8302 52.5 60.6202 52.29 61.4002 52.06C62.7502 51.63 64.2202 51.09 65.6602 50.54L65.9702 53.51L66.5902 60.13C66.7402 62.12 66.8602 64.11 66.9502 66.11C67.0402 68.11 67.1102 70.12 67.1002 72.14C67.0802 74.16 67.0402 76.18 66.6902 78.29C66.6102 78.76 66.4902 79.24 66.3302 79.74C66.2202 80 66.1602 80.24 65.9902 80.52C65.8402 80.83 65.6102 81.08 65.3802 81.32C64.4702 82.08 63.5602 82.47 62.6002 82.76C61.6402 83.03 60.6702 83.18 59.6802 83.17C58.6902 83.15 57.6702 83.06 56.5902 82.5C56.0002 82.14 55.4102 81.74 54.9502 81.11C54.4702 80.52 54.1602 79.73 54.1002 78.95C54.0302 78.16 54.1902 77.39 54.4902 76.74C54.7802 76.07 55.1802 75.49 55.6702 75C56.1402 74.49 56.7002 74.1 57.2802 73.76C57.8602 73.46 58.5702 73.21 59.1202 73.09C59.7002 72.95 60.3102 72.83 60.9802 72.8C61.6602 72.8 62.4102 72.95 62.9502 73.28C63.6102 73.72 63.8102 74 63.7502 74.11C63.6902 74.24 63.3002 74.22 62.6502 74.39C62.3202 74.5 61.9802 74.57 61.6602 74.75C61.3402 74.96 61.0202 75.1 60.6302 75.35C60.4302 75.47 60.2202 75.59 60.0002 75.72C59.7702 75.85 59.5202 75.99 59.3702 76.1C59.0202 76.33 58.6902 76.62 58.3602 76.88C57.7702 77.36 57.4002 78.02 57.3602 78.47C57.3602 78.9 57.3802 79.09 57.8402 79.5C58.1602 79.71 58.2402 79.79 58.6002 79.88C58.9402 79.97 59.3602 80.02 59.8002 80.02C60.6802 80.02 61.6202 79.87 62.3802 79.56C62.5802 79.49 62.7502 79.4 62.9102 79.31L63.1402 79.17C63.2102 79.12 63.2702 79.07 63.2702 79.08C63.2702 79.07 63.2802 79.07 63.2902 79.07C63.2802 79.07 63.2902 79.07 63.3302 79.01L63.4202 78.8L63.5102 78.51C63.7502 77.67 63.8902 76.57 63.9602 75.5C64.1102 73.32 64.1102 71.04 64.0802 68.75C64.0502 66.15 63.8402 63.5 63.5902 60.82C63.4702 59.48 63.3502 58.14 63.2402 56.8C63.0702 55.08 63.1102 55.02 63.0102 54.6L62.7602 54.67L61.5402 55.02C60.7702 55.24 60.0002 55.44 59.2202 55.62C57.6702 55.99 56.1002 56.29 54.5302 56.52C52.9502 56.76 51.3602 56.92 49.7602 57C48.9602 57.04 48.1602 57.06 47.3502 57.05C47.2502 57.05 47.1502 57.05 47.0502 57.05L46.8102 57.03L46.5102 57.01C46.3002 57 46.1202 56.98 45.9502 56.96L45.7402 56.94C45.7002 57.11 45.7202 57.34 45.7102 57.54V57.86L45.7402 58.34C45.7902 59.24 45.8602 60.16 45.9302 61.07L46.4102 66.57C46.6502 69.47 46.8702 72.39 46.8502 75.36C46.8302 76.84 46.7802 78.33 46.5002 79.85C46.3602 80.61 46.1702 81.39 45.7502 82.17C45.6302 82.37 45.5002 82.56 45.3702 82.75C45.2102 82.92 45.0102 83.15 44.8502 83.26C44.5302 83.52 44.2002 83.75 43.8502 83.96C42.7602 84.6 41.5602 85 40.3002 85.13C39.0502 85.27 37.7302 85.11 36.4902 84.54C35.1902 83.94 34.1502 82.68 33.9702 81.08C33.8802 80.28 34.0802 79.46 34.4302 78.8C34.7802 78.14 35.2502 77.59 35.7502 77.17C36.6202 76.38 37.6002 75.84 38.6702 75.45C40.6702 74.79 42.1302 74.92 43.0602 75.17C44.0102 75.43 44.4602 75.91 44.7102 76.39C44.8202 76.62 44.9702 76.87 44.9902 77.05C45.0202 77.36 44.6602 77.42 44.0402 77.45C43.4202 77.5 42.5502 77.42 41.4402 77.61C39.8302 77.87 38.1502 78.74 37.3602 79.85C36.9702 80.4 37.0102 80.69 37.1302 80.98C37.1902 81.13 37.3302 81.32 37.5002 81.47C37.5802 81.55 37.6602 81.61 37.7202 81.64C37.8402 81.7 37.9602 81.78 38.1102 81.83C39.2402 82.32 40.9902 82.16 42.2802 81.43C42.4502 81.35 42.5902 81.24 42.7502 81.14L42.9702 80.97L43.0202 80.93L43.0502 80.91C43.2202 81.11 43.1002 80.96 43.1302 81L43.1102 80.96C43.0202 80.85 43.0702 80.9 43.0602 80.88C43.0902 80.86 43.2502 80.63 43.3502 80.28C43.5802 79.6 43.7202 78.67 43.7902 77.72C43.9802 74.86 43.7902 71.78 43.5602 68.72L42.7402 59.39H42.8102H42.8402Z" fill="#231F20"/>
<path d="M88.8401 77.35C88.7901 84.95 88.7501 92.55 88.4301 100.18C88.3401 102.09 88.2301 104 88.0601 105.93C88.0201 106.41 87.9701 106.9 87.9001 107.4C87.8101 107.94 87.8301 108.26 87.5701 109.22C87.3901 110.05 86.7401 110.65 85.9201 110.9L85.3301 111.09L84.9401 111.19L84.1801 111.35C80.2601 112.03 76.5001 112.26 72.6801 112.53C67.1201 112.88 61.5801 113.16 56.0301 113.29C46.2501 113.49 36.4601 113.5 26.6801 113.11C24.2301 113.01 21.7801 112.87 19.3401 112.68C18.1001 112.6 16.9101 112.55 15.6301 112.4C15.3901 112.37 15.1401 112.35 14.9101 112.31L14.3001 112.12L13.9901 112.02L13.8401 111.97L13.7601 111.95H13.7401C13.6101 112.06 13.8901 111.78 13.8601 111.8L13.8401 111.77L13.5301 111.3C13.4701 111.09 13.3901 110.88 13.3601 110.65L13.3101 109.93L13.2501 109C12.9801 104.11 12.8001 99.23 12.6301 94.35C12.3401 85.69 12.0801 76.97 11.9001 68.38C11.7701 62.86 11.6401 57.33 11.6001 51.79C11.5601 46.25 11.6101 40.71 12.1301 35.17C12.3401 33.45 12.5601 32.71 12.6701 32.77C12.8001 32.83 12.8501 33.69 13.0001 35.15C13.1201 36.64 13.2901 38.7 13.4801 41.17C13.6801 43.66 13.8501 46.58 13.9101 49.76L14.3701 66.65C14.5001 72.28 14.6301 77.92 14.7601 83.56C14.9201 89.2 15.1001 94.84 15.3201 100.49C15.4301 103.31 15.5401 106.13 15.6601 108.96L15.6901 109.49V109.75L15.7001 109.8V110C15.7001 110 15.8301 110.03 15.8901 110.05H15.9401L16.0901 110.08L16.6101 110.14C18.0001 110.33 19.3901 110.53 20.8001 110.61C34.2901 111.53 48.4601 111.16 62.3201 110.6C66.1301 110.43 69.9401 110.23 73.7301 109.94C75.6301 109.8 77.5201 109.64 79.4001 109.43C80.3401 109.33 81.2801 109.21 82.2001 109.07C82.6601 109 83.1201 108.93 83.5701 108.84L84.2301 108.7L84.7501 108.57C84.9201 108.52 85.1501 108.46 85.1501 108.24L85.1801 108.1L85.2201 107.88L85.3101 107.21C85.4101 106.3 85.4801 105.36 85.5401 104.41C85.6501 102.52 85.7201 100.62 85.7601 98.71C85.8801 94.9 85.9401 91.08 85.9801 87.26C86.0701 77.86 86.0401 68.44 85.9401 59.04C85.8801 54.88 85.8201 50.72 85.7701 46.56C85.7301 44.48 85.6901 42.41 85.6401 40.33L85.5501 37.23L85.5101 36.23V36.01C85.5001 35.94 85.4901 35.85 85.4001 35.87L84.9701 35.85C79.1301 35.64 73.3401 35.43 67.5901 35.22C56.5901 34.79 45.8101 34.42 34.9401 33.88C32.5501 33.76 30.2001 33.64 27.7901 33.51C18.8501 32.97 16.0201 32.47 14.1701 31.52C13.7501 31.3 13.1901 31.08 12.9501 30.88C12.1401 30.23 15.8201 29.96 22.3601 30.25C41.7701 31.12 62.2101 32.18 82.7501 32.87C83.9601 32.91 85.1701 32.95 86.3801 32.99L87.3601 33.41L87.6001 33.52L87.6601 33.55H87.6901L87.7101 33.57C88.0001 33.28 87.3301 33.98 87.4001 33.91L87.4801 33.99L87.8201 34.29L88.2201 34.65C88.2901 34.83 88.3101 35.06 88.3501 35.26C88.4201 35.68 88.4101 36.15 88.4401 36.59L88.5301 39.43L88.6501 44.84C88.7001 48.45 88.7601 52.05 88.8101 55.66C88.8901 62.88 88.9301 70.1 88.9301 77.32L88.8601 77.34L88.8401 77.35Z" fill="#231F20"/>
<path d="M100.12 26.56C100.27 26.73 100.08 26.95 99.7299 27.19C99.6199 27.27 99.2399 27.36 99.1699 27.32C99.0299 27.24 98.8899 27.17 98.7799 27.08C98.7199 27.02 98.1099 26.08 97.8499 25.78C97.5999 25.49 97.4599 25.16 97.3399 24.83C97.0899 24.16 96.8099 23.5 96.5399 22.84C96.4799 22.69 96.4499 22.54 96.4399 22.37C96.4099 21.81 96.2199 21.3 95.9599 20.81C95.9199 20.73 95.8999 20.64 95.7699 20.59C95.5699 20.51 94.9699 19.17 94.9799 18.96C94.9799 18.45 94.9199 17.97 94.8799 17.47C94.8799 17.4 94.8099 17.35 94.8999 17.24C95.0999 17 95.0099 16.88 94.9799 16.73C94.9399 16.52 94.9099 16.31 94.9199 16.09C94.9199 15.98 95.0299 15.82 95.1099 15.68C95.1799 15.55 95.5599 15.44 95.6099 15.46C95.7599 15.5 95.8999 15.35 96.0499 15.28C96.0999 15.26 96.1599 15.22 96.2099 15.21C96.2899 15.18 97.4999 15.99 97.5399 16.12C97.5499 16.15 98.3999 17.68 98.5099 17.89C98.5699 17.98 98.5399 18.1 98.5399 18.22C98.5399 18.27 99.1899 19.55 99.1899 19.61C99.2499 19.9 99.4299 20.15 99.2899 20.51C99.2599 20.58 99.2899 20.63 99.3099 20.69C99.4899 21.16 99.5499 21.68 99.6299 22.18C99.6699 22.44 99.7699 22.68 99.8399 22.93C99.8499 22.97 99.8399 23.03 99.8399 23.08C99.8399 23.14 99.8299 23.21 99.8399 23.26C99.9999 23.85 100.1 24.45 100.27 25.04C100.31 25.18 100.2 25.9 100.27 26.05C100.3 26.14 100.07 26.5 100.13 26.57L100.12 26.56Z" fill="#231F20"/>
<path d="M105.17 30.55C105.09 30.74 104.84 30.65 104.5 30.41C104.39 30.33 104.17 30.03 104.17 29.95C104.18 29.8 104.2 29.66 104.23 29.53C104.25 29.46 104.89 28.65 105.09 28.36C105.29 28.08 105.53 27.84 105.79 27.64C106.33 27.24 106.85 26.82 107.41 26.44C107.53 26.35 107.67 26.29 107.82 26.25C108.33 26.11 108.76 25.84 109.17 25.54C109.24 25.49 109.32 25.46 109.35 25.34C109.39 25.14 110.59 24.43 110.78 24.41C111.3 24.32 111.7 24.25 112.15 24.17C112.22 24.16 112.26 24.1 112.36 24.17C112.59 24.34 112.69 24.24 112.82 24.2C113 24.14 113.19 24.1 113.4 24.1C113.5 24.1 113.64 24.19 113.77 24.26C113.89 24.32 114 24.68 113.99 24.73C113.96 24.87 114.09 25.01 114.16 25.15C114.18 25.2 114.21 25.26 114.23 25.3C114.26 25.39 113.57 26.41 113.48 26.45C113.47 26.45 113.15 26.67 112.8 26.89C112.46 27.11 112.1 27.33 112.04 27.39C111.97 27.45 111.86 27.44 111.77 27.45C111.72 27.45 110.74 28.16 110.69 28.18C110.45 28.27 110.28 28.46 109.96 28.4C109.9 28.39 109.86 28.42 109.82 28.45C109.46 28.68 109.04 28.82 108.64 29C108.44 29.09 108.26 29.23 108.07 29.33C108.04 29.35 107.99 29.35 107.94 29.36C107.89 29.37 107.83 29.38 107.79 29.4C107.36 29.7 106.85 29.88 106.44 30.21C106.34 30.28 105.73 30.42 105.63 30.52C105.57 30.57 105.19 30.49 105.16 30.57L105.17 30.55Z" fill="#231F20"/>
</svg>
