<svg width="128" height="128" viewBox="0 0 128 128" fill="none" xmlns="http://www.w3.org/2000/svg">
<path d="M72.3798 50.54L61.7698 56.6C60.4798 57.34 59.2298 58.14 57.9398 58.87L44.2198 66.54C42.1898 67.67 40.1798 68.86 38.1898 70.03C36.9098 70.78 35.6298 71.54 34.3598 72.29C33.7098 72.65 33.0398 72.97 32.3698 73.29L31.3598 73.76C31.0198 73.91 30.6498 74.01 30.2998 74.14C29.3998 74.42 29.4398 74.24 29.9398 73.54C30.4098 72.79 31.3998 71.61 32.7998 70.63C37.9998 67.56 43.2298 64.58 48.5998 61.7C51.8098 59.98 54.9998 57.92 58.1998 56.01L68.7698 49.73L72.0298 47.8C72.6898 47.4 72.8198 47.35 73.1298 47.17C73.6098 47.05 73.1998 46.73 73.0798 46.46L72.4598 45.51L71.6398 44.35L69.9498 42.05C68.7998 40.54 67.6898 39 66.4998 37.53C64.6598 35.24 62.6798 33.14 60.7198 31C60.2898 30.53 59.8398 30.09 59.4198 29.6C58.6698 28.67 58.2198 28.02 57.9798 27.5C57.7598 26.96 57.7298 26.56 57.7998 26.16C57.8298 25.98 57.8398 25.77 57.8898 25.63C57.9898 25.39 58.2598 25.4 58.7198 25.58C59.1698 25.77 59.8198 26.11 60.4798 26.71C61.5098 27.55 62.4398 28.5 63.3698 29.47C64.2998 30.44 65.2198 31.45 66.1198 32.47C67.9198 34.53 69.6798 36.68 71.3698 38.9C72.5798 40.59 73.6798 42.36 74.7798 44.14L76.0698 46.17L76.8598 47.43L77.0598 47.74C77.0598 47.83 76.8798 47.88 76.7998 47.95L76.1798 48.35C75.7698 48.62 75.3498 48.88 74.9098 49.14L73.7898 49.81L72.4598 50.59L72.4198 50.54H72.3798Z" fill="#231F20"/>
<path d="M71.6702 84.88C71.6702 84.88 71.7102 84.84 71.7202 84.82C71.7302 84.79 71.7002 84.76 71.6802 84.72C71.6302 84.66 71.7402 84.74 71.3602 84.43L69.7302 83.08C68.6402 82.17 67.5402 81.28 66.4202 80.39C65.5402 79.69 64.6202 79.07 63.7402 78.37C60.6302 75.93 57.5702 73.43 54.4102 71.05C53.0002 70.01 51.5502 69.01 50.1402 68C49.2302 67.35 48.2802 66.76 47.3902 66.08C46.5102 65.38 45.6402 64.68 44.7502 63.97C44.2102 63.52 44.3002 63.54 44.8902 63.71C45.4702 63.89 46.6102 64.12 47.8502 64.59C48.1202 64.7 48.4002 64.8 48.6602 64.92L49.4302 65.32L50.9502 66.15C51.9502 66.72 52.9802 67.25 53.9302 67.9C55.8502 69.17 57.7202 70.51 59.5502 71.93C61.7402 73.62 64.1302 75.22 66.4002 76.91C67.6402 77.84 68.8802 78.79 70.1102 79.75L71.9502 81.2L72.8602 81.94L73.9502 82.86C74.2002 83.08 74.4502 83.32 74.6402 83.56C74.7802 83.82 75.0002 84.03 75.0502 84.31C74.8802 84.79 74.8002 85.26 74.4602 85.73L74.0302 86.43L73.7002 86.9L72.4102 88.71C70.6802 91.07 68.8402 93.34 67.0002 95.58C65.5502 97.3 64.2602 99.11 62.7202 100.81C62.3802 101.18 62.0302 101.53 61.6402 101.86C60.1602 103.06 59.4602 103.21 58.7602 102.84C58.6002 102.76 58.4202 102.7 58.3102 102.6C57.9202 102.27 58.2602 101.47 59.1002 100.56C59.4102 100.19 59.7202 99.86 60.0202 99.48C60.3102 99.09 60.6202 98.72 60.9602 98.39C61.6202 97.67 62.2802 96.95 62.9502 96.22C64.2902 94.75 65.5302 93.12 66.7802 91.5C67.7102 90.3 68.6202 89.07 69.5102 87.84C69.9602 87.22 70.3902 86.6 70.8202 85.97L71.4502 85.03L71.5302 84.91C71.5302 84.91 71.5302 84.91 71.5402 84.89H71.5502L71.5702 84.86H71.6502L71.6702 84.88Z" fill="#231F20"/>
<path d="M45.5602 75.11C45.4402 70.06 45.3502 65 45.3202 59.94C45.3102 58.09 45.2002 56.25 45.2202 54.41C45.2602 47.91 45.4402 41.4 45.7502 34.91C45.8702 32.03 45.9902 29.13 46.0502 26.27C46.1502 22.59 46.2402 18.89 47.2302 15.28C47.7402 14.17 47.6202 14.32 48.0402 15.31C48.2702 15.81 48.4802 16.51 48.7502 17.36C48.8702 17.78 49.0202 18.24 49.1102 18.73C49.1802 19.21 49.2302 19.72 49.2402 20.25C49.2402 21.18 49.3402 22.12 49.3002 23.05L49.1902 25.84C49.1202 27.7 49.0502 29.57 48.9802 31.43C48.8502 35.16 48.6602 38.9 48.4002 42.67C48.1002 47.17 48.2702 51.86 48.2702 56.47C48.3002 61.54 48.3202 66.62 48.4402 71.69C48.5002 74.81 48.5802 77.94 48.6902 81.06C48.8602 85.79 49.0202 90.54 49.3202 95.23C49.5302 98.88 50.0002 102.44 50.2302 106.04C50.2802 106.83 50.3402 107.61 50.3702 108.41C50.4702 111.38 50.3402 112.34 49.8002 113.01C49.6802 113.16 49.5702 113.36 49.4602 113.45C49.1102 113.76 48.5802 112.57 48.2402 110.41C47.0002 104.01 46.6302 97.21 46.2002 90.38C45.9002 85.31 45.7102 80.2 45.5102 75.1H45.5802L45.5602 75.11Z" fill="#231F20"/>
<path d="M50.0002 60.9L65.5702 52.3C67.4502 51.24 69.3102 50.14 71.2002 49.11L75.1802 46.92L75.3802 46.8C75.3802 46.8 75.5602 46.71 75.5102 46.64C75.4302 46.53 75.3302 46.42 75.2302 46.31L75.0702 46.14L74.9902 46.05L74.8302 45.89L73.8202 44.88C71.1202 42.18 68.4402 39.45 65.8002 36.67C63.4602 34.2 61.0902 31.74 58.8102 29.25C57.3402 27.66 55.8702 26.04 54.5202 24.32C53.1702 22.61 51.8402 20.86 50.9402 18.82C50.5802 17.42 50.7302 17.56 51.9502 18.09C52.5702 18.35 53.3202 18.79 54.1902 19.34C55.0302 19.91 55.8602 20.68 56.6602 21.6C59.5202 24.84 62.3402 28.13 65.3202 31.32C68.2802 34.53 71.3002 37.71 74.3502 40.92C75.2802 41.9 76.1602 42.79 77.2102 43.82C77.9902 44.61 78.9902 45.42 79.2902 46.24C79.3702 46.43 79.5302 46.62 79.5402 46.8C79.5402 46.85 79.5602 46.89 79.5702 46.94V47.02V47.04C79.5702 47.04 79.6502 47.06 79.4902 47.04L79.4802 47.09C79.4402 47.2 79.4002 47.28 79.3602 47.37C79.1702 47.71 79.0902 48.12 78.6402 48.45C78.2402 48.79 77.7602 49.1 77.2902 49.42L76.0902 50.18L74.3402 51.27C73.1702 51.99 72.0002 52.7 70.8302 53.38C65.6502 56.37 60.4002 59.22 55.2002 62.14C52.0002 63.95 48.8002 65.75 45.6102 67.55C40.7902 70.32 35.9402 73.09 31.2602 76.01C27.6302 78.29 24.2002 80.73 20.7502 83.17C20.0002 83.71 19.2602 84.25 18.5002 84.8C17.0402 85.74 16.0502 86.31 15.2702 86.6C14.4902 86.88 13.9402 86.9 13.3902 86.76C13.1402 86.7 12.8402 86.67 12.6602 86.58C12.3402 86.42 12.4002 86.03 12.7602 85.44C13.1302 84.85 13.8002 84.06 14.7902 83.22C16.2302 81.93 17.7802 80.77 19.3702 79.63C20.9602 78.48 22.5802 77.36 24.2402 76.26C27.5502 74.06 30.9702 71.94 34.4202 69.86C39.5502 66.77 44.7702 63.81 49.9602 60.83L50.0102 60.91L50.0002 60.9Z" fill="#231F20"/>
<path d="M51.4602 64.72C56.2402 67.99 61.0302 71.24 65.8602 74.44C67.6202 75.62 69.4502 76.67 71.1802 77.88L73.4802 79.47L74.6302 80.27L75.2102 80.67L75.7302 81.16L75.8602 81.28C75.9402 81.34 76.0102 81.4 76.0802 81.47C76.2402 81.59 76.4002 81.69 76.5602 81.8L77.5202 82.45L78.1202 83.2L78.6302 83.88C78.7002 84.01 78.5702 84.14 78.5302 84.26L78.3502 84.65C78.2102 84.93 78.1502 85.21 77.8602 85.5C77.4402 86.06 76.7902 86.66 76.3402 87.13L68.4402 95.05C66.1302 97.41 63.8602 99.84 61.6602 102.26C60.2702 103.83 58.8702 105.41 57.4802 106.99C56.7802 107.77 56.0202 108.51 55.2902 109.26C54.5502 110.01 53.8202 110.76 52.9602 111.41C51.8002 112.15 51.9302 112.04 52.2202 110.83C52.4602 109.59 53.2202 107.51 54.6602 105.52C57.4202 102.17 60.3302 98.98 63.2902 95.82C66.2902 92.71 69.3802 89.66 72.5202 86.67C72.9802 86.22 73.4502 85.76 73.9202 85.31L74.2302 85L74.3402 84.9L74.5602 84.69C74.6302 84.62 74.7102 84.54 74.7802 84.46C74.8402 84.41 74.7602 84.38 74.7302 84.35L74.6102 84.26L74.3502 84.08L74.2202 83.99C74.2202 83.99 74.1502 83.95 73.9602 83.86C73.3202 83.62 72.7802 83.24 72.2102 82.89L70.5102 81.84C69.3802 81.14 68.2402 80.44 67.1202 79.72C62.2302 76.52 57.3702 73.27 52.5202 70.01C49.5402 67.99 46.5602 65.98 43.5802 63.96C39.0802 60.88 34.5602 57.79 30.0902 54.74C28.3502 53.56 26.5902 52.43 24.8402 51.31C23.1002 50.16 21.3702 49.02 19.6602 47.82C18.9102 47.29 18.1502 46.8 17.4102 46.24C16.0602 45.17 15.2302 44.37 14.7302 43.73C14.2402 43.06 14.0802 42.53 14.0402 41.99C14.0202 41.74 13.9602 41.48 13.9902 41.29C14.0402 40.98 14.4002 40.96 15.0602 41.12C15.7202 41.28 16.6302 41.68 17.7102 42.32C19.3202 43.23 20.9002 44.23 22.5002 45.24C24.1002 46.25 25.7102 47.28 27.3302 48.31C30.5202 50.46 33.7602 52.64 37.0002 54.83C41.8202 58.09 46.6402 61.39 51.5102 64.62L51.4602 64.7V64.72Z" fill="#231F20"/>
<path d="M111.77 77.14C112.48 74.39 112.85 71.57 113.14 68.74C113.31 65.9 113.41 63.04 113.14 60.2L113 58.64C112.94 58.12 112.84 57.61 112.75 57.1C112.57 56.08 112.44 55.04 112.2 54.03C111.56 50.41 110.45 46.89 109.06 43.48C107.69 40.05 105.86 36.82 103.76 33.77L102.31 31.77C101.79 31.13 101.24 30.52 100.7 29.89C99.6702 28.6 98.4602 27.48 97.3202 26.31C94.2402 23.43 90.8702 20.96 87.7402 17.95C86.7902 16.96 86.9302 17.06 88.0902 17.33C88.6702 17.47 89.5702 17.57 90.5802 17.85C91.0802 17.99 91.6702 18.09 92.2002 18.33C92.7302 18.58 93.2702 18.87 93.8202 19.21C94.7602 19.83 95.8002 20.36 96.6502 21.11L99.2902 23.28C100.93 24.86 102.64 26.39 104.05 28.2C106.94 31.75 109.38 35.68 111.22 39.87C113.39 44.88 115.3 50.27 116.15 55.79C117.09 61.84 117.07 68.03 116.05 74.03C115.78 75.89 115.33 77.71 114.9 79.53C114.37 81.33 113.88 83.13 113.19 84.88C112.26 87.56 110.99 90.11 109.67 92.61C108.24 95.06 106.73 97.46 104.97 99.65C102.29 103.1 99.3302 106.28 95.8202 108.92C95.0302 109.47 94.3202 110.12 93.4602 110.57C92.6702 111.02 92.0102 111.37 91.4502 111.65C90.8902 111.93 90.3602 112 89.9402 112.1C89.1002 112.26 88.5602 112.22 88.0702 112.05C87.8502 111.97 87.5802 111.92 87.4402 111.82C86.9402 111.49 88.0502 110.46 90.0302 108.99C96.1002 104.96 101.43 99.45 105.31 92.89L106.38 91.06C106.72 90.44 107.02 89.8 107.35 89.17C108.04 87.93 108.53 86.59 109.12 85.3C110.14 82.65 111.08 79.94 111.66 77.14H111.75H111.77Z" fill="#231F20"/>
<path d="M98.3102 73.99C99.2302 70.26 99.5802 66.35 99.3801 62.47C99.3501 61.76 99.2802 61.05 99.1702 60.35C99.0602 59.65 98.9902 58.94 98.8602 58.25C98.5202 55.77 97.9102 53.33 97.1002 50.96C96.3102 48.58 95.2402 46.28 93.9202 44.14C92.7702 42.22 91.3302 40.48 89.8002 38.89C89.2802 38.4 88.8102 37.87 88.2502 37.42C87.6902 36.98 87.1802 36.48 86.6502 36C86.1102 35.54 85.5402 35.11 85.0302 34.58C84.7802 34.31 84.5002 34.09 84.2302 33.83C83.9602 33.58 83.7202 33.27 83.4602 33C82.8402 32.26 82.9302 32.33 83.7902 32.39C84.6402 32.46 86.5202 32.28 88.0502 33.27C89.4602 34.05 90.7402 35.04 91.8902 36.16L92.7701 36.98C93.0501 37.27 93.3201 37.57 93.5901 37.86C94.1301 38.46 94.6902 39.04 95.1301 39.71C97.0202 42.31 98.5302 45.17 99.5702 48.19C100.83 51.78 102.01 55.54 102.48 59.37C102.99 63.58 102.93 67.84 102.22 72C101.83 74.57 101.13 77.08 100.29 79.52C98.9802 83.22 97.1002 86.72 94.8002 89.87C93.0102 92.31 91.0501 94.6 88.7002 96.54L87.9402 97.19C87.6702 97.39 87.4002 97.58 87.1102 97.76C86.5802 98.1 86.1402 98.37 85.7502 98.57C85.3402 98.73 84.9802 98.81 84.6802 98.86C84.0802 98.96 83.6702 98.88 83.2902 98.69C83.1102 98.6 82.9102 98.54 82.7902 98.44C82.3802 98.12 83.0202 97.21 84.2602 96.06C86.1602 94.44 88.0102 92.78 89.6802 90.88C91.3602 89 92.8302 86.9 94.0602 84.66C95.9802 81.38 97.3702 77.74 98.2102 73.96H98.3002L98.3102 73.99Z" fill="#231F20"/>
<path d="M89.7898 62.11C89.9298 62.86 89.9598 63.63 90.0398 64.38C90.0198 65.14 90.0698 65.9 89.9798 66.65C89.9098 67.2 89.9698 67.75 89.8498 68.29C89.7398 68.77 89.6298 69.24 89.4998 69.71C89.3398 70.17 89.1398 70.62 88.9598 71.07C88.7998 71.52 88.5298 71.94 88.3098 72.36L87.9698 72.99L87.5598 73.58C87.0998 74.3 86.5798 74.97 86.0398 75.62C85.6598 76 85.2398 76.36 84.8298 76.71C84.3898 77.03 83.8698 77.25 83.3698 77.43C83.0498 77.54 82.8998 77.15 82.8898 76.62C82.8898 76.1 82.9598 75.42 83.2998 75.07C84.3798 73.65 85.3898 72.36 86.2798 70.72C86.5398 70.23 86.6998 69.68 86.8198 69.13C86.8898 68.56 87.0298 68 87.0698 67.43C87.1298 66.8 87.2298 66.17 87.2098 65.53C87.2098 65.21 87.2298 64.89 87.2098 64.57L87.1098 63.61C87.0898 63.21 87.0198 62.82 86.9198 62.43C86.8298 62.04 86.7798 61.64 86.6398 61.26C86.2698 60.11 85.8298 58.95 85.1198 57.97C84.8298 57.6 84.5498 57.23 84.1998 56.93L83.1398 56.05C82.9898 55.92 82.8098 55.83 82.6598 55.69C82.1098 55.2 82.0698 54.88 82.3798 54.22C82.4498 54.07 82.5098 53.91 82.5898 53.77C82.8598 53.29 83.3998 53.15 84.0198 53.42C85.9398 54.15 87.2898 55.91 88.2898 57.73C88.4698 58.08 88.6598 58.42 88.8198 58.77L89.2198 59.87C89.5198 60.59 89.6498 61.36 89.8398 62.11L89.7698 62.13L89.7898 62.11Z" fill="#231F20"/>
</svg>
