<svg width="128" height="128" viewBox="0 0 128 128" fill="none" xmlns="http://www.w3.org/2000/svg">
<path d="M67.48 117.93C50.45 118.8 40.62 109 45.33 103.73C45.33 103.73 22.18 102.9 21.17 104.67C20.16 106.44 23.36 111.48 25.52 113.48C27.68 115.48 32.62 117.95 32.62 117.95L67.49 117.93H67.48Z" fill="#231F20"/>
<path d="M85.2598 117.45C85.2598 117.45 94.2598 112.24 92.4998 105.34C91.0998 99.86 96.2098 104.25 96.8298 106.14C97.4498 108.03 90.5998 117.98 90.5998 117.98L85.2698 117.44L85.2598 117.45Z" fill="#231F20"/>
<path d="M68.5401 51.13C61.6101 54.44 55.8801 51.43 54.0901 48.3C50.9701 42.82 55.6801 37.28 58.3001 36.06C58.3001 36.06 48.5401 36.51 46.7801 41.18C45.0201 45.85 47.4101 50.3 49.2101 51.91C51.0101 53.52 52.9001 57.12 57.2801 57.29C61.6601 57.46 66.6701 54.99 66.6701 54.99L68.5401 51.12V51.13Z" fill="#231F20"/>
<path d="M43.0899 99.18C28.5999 77.09 44.8699 55.5 48.1899 55.5C49.7299 55.5 54.1799 58.52 57.3499 59.19L57.2799 57.3C57.2799 57.3 46.0299 51.81 45.6799 49.66C45.3299 47.51 37.6699 58.32 36.4599 63.94C35.2499 69.57 33.1699 74.61 34.5799 82.91C35.9899 91.21 43.0799 99.18 43.0799 99.18H43.0899Z" fill="#231F20"/>
<path d="M81.5001 103.73C81.5001 103.57 78.5201 102.51 79.4101 98.49C80.2301 94.78 69.7601 95.64 69.8201 98C69.8801 100.36 70.6601 103.53 70.6601 103.53L81.5001 103.72V103.73Z" fill="#231F20"/>
<path d="M91.3798 63.34C91.3798 63.34 93.1598 58.64 95.0898 57.3C97.0198 55.96 93.2398 55.05 93.2398 55.05L89.0498 61.54L91.3898 63.33L91.3798 63.34Z" fill="#231F20"/>
<path d="M36.46 20.34C36.46 20.34 41.8 18.46 40.44 16.96C39.93 16.4 41.8 20.08 41.8 20.08L40.4 22.19L36.46 20.34Z" fill="#231F20"/>
<path d="M41.8002 22.19C41.8002 22.19 37.6102 27.42 38.6002 29.88C40.8702 35.53 49.6602 38.32 49.6602 38.32L46.1602 40.16C46.1602 40.16 36.7902 32.6 36.4602 30.04C36.1302 27.48 41.8002 22.2 41.8002 22.2V22.19Z" fill="#231F20"/>
<path d="M51.8098 72.8C51.3798 74.91 51.2098 77.08 51.4098 79.27C51.4498 79.67 51.5098 80.06 51.5698 80.46C51.6498 80.85 51.7298 81.24 51.7898 81.64C52.2898 84.41 53.0898 87.19 54.4498 89.73C55.0498 90.85 55.8098 91.9 56.6598 92.83C57.1998 93.43 57.7998 93.97 58.3398 94.58C58.9198 95.14 59.4898 95.73 60.0798 96.33C60.4398 96.72 60.2698 96.88 59.7198 96.9C59.4398 96.91 59.0598 96.9 58.6098 96.84C58.1698 96.77 57.7098 96.58 57.2598 96.32C56.4798 95.83 55.6998 95.29 55.0998 94.59C54.4498 93.94 53.8798 93.21 53.3298 92.48C52.2398 91 51.3998 89.35 50.7798 87.63C50.0298 85.59 49.2998 83.44 48.9198 81.25C48.5198 78.84 48.4898 76.37 48.7898 73.95C48.9798 72.46 49.2798 71 49.6998 69.57C50.3098 67.4 51.2498 65.34 52.2898 63.37C53.0998 61.84 53.8998 60.31 54.9398 58.89C55.1798 58.58 55.3698 58.25 55.6398 57.96C56.1098 57.4 56.5598 57.18 56.9098 57.06C57.2698 56.96 57.5598 57.01 57.8998 57.17C58.0498 57.24 58.2198 57.3 58.3398 57.39C58.7598 57.69 58.6398 58.41 58.1698 59.25C56.6198 61.59 55.0298 63.97 53.8398 66.63C52.9698 68.6 52.2398 70.67 51.8698 72.81H51.7998L51.8098 72.8Z" fill="#231F20"/>
<path d="M36.5101 70.66C35.8401 73.84 35.5801 77.12 35.8301 80.37C35.8901 80.96 35.9701 81.55 36.0501 82.14C36.1601 82.72 36.2901 83.3 36.3901 83.88C37.1401 87.96 38.8401 91.95 41.2301 95.45C42.3101 96.99 43.6001 98.39 45.0201 99.59C46.8801 101.11 48.8801 102.25 50.9001 103.65C51.4901 104.21 51.4001 104.26 50.6101 104.47C50.2201 104.58 49.6601 104.67 49.0001 104.68C48.3501 104.68 47.5701 104.63 46.8901 104.26C45.6101 103.72 44.4801 102.92 43.4401 102.04C42.3801 101.17 41.4301 100.2 40.5301 99.19C38.7601 97.14 37.3301 94.83 36.2601 92.37C34.9901 89.45 33.7301 86.33 33.2201 83.09C32.6401 79.54 32.6701 75.94 33.1401 72.44C33.4701 70.29 33.9001 68.15 34.5401 66.07C35.4801 62.91 36.8401 59.89 38.4401 57.05C39.6901 54.84 41.0301 52.71 42.6401 50.72C43.0201 50.3 43.3701 49.87 43.7901 49.49C45.3501 48.06 46.1201 47.93 46.8901 48.22C47.0701 48.29 47.2701 48.34 47.4101 48.44C47.8701 48.75 47.5601 49.68 46.6501 50.76C44.0501 54.03 41.4701 57.46 39.6301 61.44C38.2501 64.37 37.1901 67.49 36.5801 70.7H36.5001L36.5101 70.66Z" fill="#231F20"/>
<path d="M33.2002 18.69C33.1802 18.54 33.2802 18.34 33.3102 18.17C33.3902 17.99 33.5602 17.82 33.6802 17.65L34.5302 16.65L35.5302 15.61C35.6502 15.48 35.7602 15.35 35.8702 15.21C35.9902 15.06 36.0502 14.99 36.2902 14.73C36.6102 14.4 36.9802 14.14 37.2902 13.89C37.6102 13.65 37.9002 13.36 38.2102 13.33C38.6902 13.76 39.1002 14.19 39.4902 14.59C39.8402 15.03 40.2202 15.52 40.3702 15.74C40.7002 16.18 40.9902 16.63 41.2902 17.05C41.7202 17.55 42.1902 17.88 42.6202 18.42C42.7602 18.58 42.7002 18.69 42.4402 18.8C42.3102 18.85 42.1202 18.92 41.9102 18.94C41.6802 18.99 41.4402 18.96 41.2402 18.85C40.8902 18.65 40.5602 18.43 40.2602 18.19C39.9502 17.97 39.6002 17.78 39.3202 17.57C39.0902 17.33 38.8302 17.06 38.6702 16.86C38.6702 16.81 38.6702 16.7 38.6202 16.56C38.5902 16.48 38.5502 16.43 38.5002 16.34C38.4102 16.2 38.3402 16.37 38.2702 16.42L38.1702 16.54L37.9602 16.77L37.0002 17.77L36.5602 18.24L36.3202 18.46C36.1502 18.64 35.7202 18.93 36.0802 19.11C36.2402 19.25 36.4202 19.39 36.6202 19.52C36.6902 19.56 36.9002 19.67 37.1002 19.76C37.2902 19.85 37.4902 19.92 37.6902 20C38.3202 20.22 39.0102 20.28 39.7202 20.44C39.8802 20.48 40.0402 20.48 40.2002 20.54C40.7802 20.75 40.9002 21.07 40.5802 21.79C40.5102 21.95 40.4402 22.12 40.3502 22.27C40.0302 22.78 39.6302 23.11 39.2702 23.1C38.1802 23.05 37.0002 22.62 35.7702 21.98L35.5702 21.87C35.4602 21.82 35.3602 21.76 35.2702 21.69L34.6902 21.33C34.3102 21.08 33.9402 20.84 33.6302 20.56L33.3902 20.36C33.3202 20.29 33.2802 20.21 33.2202 20.13L33.0602 19.9C33.0202 19.82 33.0102 19.74 32.9902 19.66L32.9602 19.54L32.9402 19.48V19.45L32.9302 19.43C33.5302 19.32 33.1002 19.4 33.2302 19.37L33.2102 19.14L33.1702 18.67H33.2402L33.2002 18.69Z" fill="#231F20"/>
<path d="M97.6101 60.79C96.9601 61.51 96.3101 62.12 95.6601 62.73C95.4201 62.95 95.2401 63.23 95.0001 63.44L94.3401 63.99L93.8601 64.38C93.6801 64.53 93.4901 64.62 93.3201 64.73C93.1401 64.83 92.9401 64.87 92.7801 64.98C92.6101 64.98 92.4201 64.89 92.2201 64.83C91.8401 64.68 91.4101 64.4 91.0901 64.12L90.8801 63.95L90.7301 63.85C90.6301 63.79 90.5401 63.7 90.4401 63.64C90.2401 63.5 90.0401 63.37 89.8401 63.25C89.3101 62.95 88.8001 62.65 88.2701 62.33C88.1101 62.23 88.1501 62.09 88.3501 61.93C88.5501 61.77 88.9601 61.55 89.3801 61.56C90.1101 61.59 90.8101 61.69 91.4701 61.86C91.6301 61.89 91.8201 61.98 91.9101 62.03C91.9301 62.06 91.9501 62.09 91.9601 62.13C91.9801 62.2 92.0301 62.3 92.1301 62.43C92.1901 62.46 92.2401 62.45 92.2901 62.43C92.3201 62.42 92.3401 62.4 92.3701 62.38C92.3901 62.36 92.4101 62.35 92.4901 62.26C92.7501 61.98 92.9901 61.68 93.2601 61.41C93.8501 60.81 94.4501 60.21 95.0001 59.59C95.1701 59.4 95.3301 59.21 95.4801 59.02C95.5901 58.9 95.6701 58.81 95.7501 58.69C95.8001 58.6 95.8601 58.51 95.8501 58.4C95.8401 58.24 95.7801 58.08 95.7001 57.92C95.6001 57.73 95.4201 57.46 95.2401 57.25C94.8601 56.8 94.3201 56.49 93.8901 56.11C93.7901 56.03 93.6801 55.97 93.5901 55.88C93.4601 55.69 93.4101 55.53 93.4501 55.35C93.5101 55.15 93.6201 54.95 93.7601 54.7C93.8301 54.58 93.8701 54.46 93.9301 54.35C94.0201 54.17 94.1501 54.03 94.3901 53.96C94.6201 53.88 94.9201 53.81 95.1501 53.89C95.5301 53.96 95.8201 54.1 96.1001 54.26C96.3801 54.43 96.6801 54.58 96.8901 54.81C97.3501 55.26 97.7401 55.75 98.1301 56.41C98.4601 56.98 98.7001 57.59 98.7801 58.22C98.7401 58.47 98.7301 58.73 98.6701 58.97L98.5901 59.34C98.5401 59.46 98.4701 59.57 98.4201 59.69C98.2201 60.15 97.8101 60.66 97.6901 60.83L97.6301 60.79H97.6101Z" fill="#231F20"/>
<path d="M91.83 50.24C88.86 46.97 85.43 43.87 82.03 40.84C80.78 39.74 79.47 38.7 78.21 37.61C73.76 33.77 69.24 29.99 64.6 26.36C62.54 24.75 60.41 23.22 58.27 21.76C56.89 20.83 55.5 19.93 54.15 18.97L52.11 17.57C51.76 17.36 51.44 17.1 51.12 16.84C50.8 16.59 50.45 16.37 50.14 16.09C49.39 15.32 49.42 15.49 50.41 15.48C50.9 15.48 51.59 15.55 52.41 15.68C53.21 15.84 54.07 16.19 54.93 16.65C55.69 17.07 56.45 17.5 57.19 17.94C57.94 18.38 58.62 18.9 59.34 19.38C60.75 20.37 62.14 21.37 63.51 22.41C66.25 24.48 68.93 26.63 71.55 28.87C74.68 31.55 78.1 34.14 81.33 36.86C84.86 39.87 88.35 42.93 91.69 46.2C92.47 46.96 93.23 47.75 93.97 48.57C94.33 49 94.71 49.4 95.05 49.88C95.23 50.1 95.41 50.34 95.57 50.63C95.78 50.91 95.9 51.33 96.01 51.7C96.04 52.24 96.01 52.71 95.89 53.1C95.81 53.53 95.65 53.88 95.51 54.24C94.54 56.4 93.16 58.12 91.76 59.81C91.06 60.65 90.33 61.47 89.59 62.27L89.03 62.87L88.75 63.17L88.37 63.55C88.13 63.82 87.81 64.03 87.51 64.23C87.14 64.29 86.78 64.41 86.4 64.4C85.34 64.42 84.52 64.12 83.68 63.89C82.84 63.65 82.04 63.37 81.25 63.06C79.67 62.45 78.14 61.78 76.64 61.04C75.98 60.72 75.32 60.41 74.67 60.05C73.47 59.37 72.71 58.86 72.27 58.36C72.06 58.09 71.92 57.86 71.83 57.6C71.75 57.34 71.73 57.07 71.73 56.82C71.73 56.59 71.68 56.35 71.7 56.18C71.74 55.89 72.05 55.82 72.65 55.79C73.26 55.74 74 55.97 74.88 56.38C77.49 57.6 80.19 58.86 82.89 59.92C83.57 60.18 84.23 60.46 84.87 60.68C85.2 60.81 85.5 60.88 85.8 60.98C85.96 61.04 86.07 61.04 86.21 61.08C86.35 61.1 86.48 61.15 86.54 61.21C86.59 61.19 86.56 61.23 86.57 61.21C86.57 61.21 86.57 61.21 86.6 61.17L86.8 60.96C87.32 60.43 87.82 59.88 88.33 59.32C89.45 58.08 90.52 56.78 91.46 55.47C91.93 54.82 92.38 54.15 92.72 53.52C92.82 53.36 92.88 53.2 92.95 53.05C93.01 52.91 93.11 52.73 93.13 52.61C93.16 52.49 93.2 52.37 93.24 52.25C93.24 52.17 93.24 52.16 93.27 52.16C93.24 52.14 93.29 52.18 93.2 52.04C93.14 51.9 92.97 51.69 92.83 51.5C92.54 51.11 92.17 50.7 91.81 50.3L91.86 50.25L91.83 50.24Z" fill="#231F20"/>
<path d="M36.04 32.64L35.78 32.36C35.64 32.21 35.51 32.06 35.38 31.92C35.18 31.6 34.96 31.28 34.81 30.94C34.81 30.64 34.73 30.35 34.77 30.06L34.86 29.18C34.87 29.02 34.92 28.91 34.96 28.79L35.05 28.51C35.11 28.33 35.17 28.14 35.24 27.98C35.51 27.3 35.81 26.67 36.12 26.05C36.43 25.46 36.66 24.84 37 24.28C38.2 22.29 39.59 20.45 41.13 18.73C41.48 18.36 41.8 17.96 42.15 17.58L43.21 16.46C44.12 15.52 45.19 14.59 46.61 14.36C47.05 14.3 47.12 14.59 47.07 15.17C47.04 15.8 46.9 16.57 46.52 17.13C45.01 18.85 43.36 20.52 41.66 22.37C40.64 23.47 39.97 24.89 39.25 26.22C38.88 26.94 38.51 27.66 38.2 28.39C38.05 28.75 37.9 29.12 37.8 29.46C37.7 29.72 37.67 29.83 37.66 30.05L37.69 30.1C37.75 30.2 37.83 30.3 37.9 30.39C38.02 30.54 38.23 30.76 38.4 30.94C38.76 31.32 39.13 31.71 39.51 32.08C40.65 33.22 41.8 34.38 43.02 35.42C43.97 36.23 45.01 36.9 46.02 37.62C46.24 37.78 46.47 37.92 46.69 38.09C47.48 38.72 47.6 39.07 47.29 39.77C47.22 39.93 47.16 40.1 47.07 40.24C46.78 40.73 46.15 40.82 45.48 40.46C43.47 39.39 41.66 37.9 39.88 36.35C38.56 35.19 37.3 33.99 36.01 32.7L36.06 32.65L36.04 32.64Z" fill="#231F20"/>
<path d="M76.39 94.78C78.26 94.75 80.14 94.78 82.03 94.84C82.72 94.87 83.41 94.81 84.1 94.87C85.33 94.98 86.55 95.12 87.81 95.39C88.12 95.46 88.44 95.54 88.76 95.64C88.92 95.68 89.08 95.74 89.25 95.8C89.41 95.85 89.57 95.91 89.8 96.02C90.22 96.2 90.64 96.42 90.95 96.74C91.12 96.88 91.25 97.06 91.38 97.24C91.5 97.42 91.54 97.65 91.6 97.85C91.67 98.23 91.66 98.64 91.65 99.03C91.65 99.25 91.62 99.39 91.61 99.53L91.57 99.95C91.52 100.51 91.42 101.05 91.33 101.6C91.2 102.3 91.07 103 90.84 103.7C90.56 104.37 90.15 105.09 89.29 105.52C88.65 105.69 88.79 105.48 88.68 104.95C88.61 104.67 88.49 104.37 88.3 103.99C88.15 103.66 88.05 103.32 88.05 102.99C88.29 101.88 88.44 100.59 88.6 99.41C88.64 99 88.66 99.13 88.68 99.07C88.71 99.04 88.74 98.99 88.73 98.94C88.73 98.89 88.71 98.83 88.66 98.77C88.68 98.75 88.5 98.68 88.39 98.63C88.27 98.57 88.13 98.52 87.99 98.47C86.62 97.95 84.9 97.98 83.27 97.9C81.46 97.8 79.62 97.77 77.78 97.78C76.65 97.78 75.51 97.81 74.38 97.87L72.8 97.95L71.42 98.05C71 98.04 70.75 98.45 70.72 98.82C70.7 98.91 70.7 99.01 70.7 99.1C70.7 99.23 70.7 99.37 70.72 99.52C70.74 99.81 70.8 100.1 70.86 100.4C71 100.99 71.2 101.57 71.41 102.14L71.73 102.87C72.06 103.8 71.94 104.15 71.51 104.65C71.41 104.76 71.32 104.9 71.21 105C70.88 105.34 70.24 105.14 69.63 104.42C68.82 103.33 68.36 102.06 68.05 100.66C67.99 100.3 67.93 99.94 67.91 99.54C67.89 99.35 67.89 99.15 67.91 98.92C67.91 98.61 67.92 98.29 68.01 98C68.08 97.7 68.13 97.39 68.27 97.13L68.46 96.72C68.54 96.59 68.63 96.48 68.72 96.35C69.05 95.84 69.61 95.56 70.15 95.31L70.48 95.19C71.56 95.03 71.75 95.04 72.27 94.99L73.64 94.89L76.38 94.74V94.82L76.39 94.78Z" fill="#231F20"/>
<path d="M58.1601 34.08C58.6701 34.08 59.1701 34.16 59.6701 34.23C60.1701 34.28 60.6601 34.39 61.1501 34.5C61.6301 34.59 62.1301 34.76 62.6301 34.95C63.1301 35.14 63.6401 35.29 64.0801 35.57C65.9801 36.51 67.5301 37.98 68.6801 39.64C69.5601 40.83 70.2301 42.16 70.6901 43.56C71.4201 46.05 71.4101 48.77 70.5101 51.22C69.6301 53.68 67.7901 55.72 65.6001 56.91C64.6701 57.52 63.5801 57.89 62.5301 58.16C61.4701 58.42 60.3801 58.56 59.3101 58.59C57.9301 58.63 56.5201 58.45 55.1901 57.99C54.5201 57.77 53.8801 57.44 53.2801 57.07C52.6801 56.67 52.2001 56.12 51.8001 55.54C51.3701 54.76 51.5401 54.84 52.2501 55.08C52.4301 55.14 52.6301 55.21 52.8801 55.25C53.1201 55.3 53.3801 55.37 53.6801 55.39C54.2301 55.5 54.8201 55.64 55.4401 55.8C56.5401 56.13 57.7301 56.15 58.9001 56.14C60.0701 56.1 61.2401 55.9 62.3201 55.55C62.8601 55.36 63.3701 55.17 63.8501 54.88L64.5801 54.45L64.9501 54.24C65.0701 54.16 65.1601 54.06 65.2701 53.98C65.6901 53.62 66.1601 53.3 66.4901 52.85C66.6701 52.64 66.8701 52.44 67.0401 52.22L67.4801 51.5C68.1301 50.33 68.5201 48.91 68.4101 47.46C68.3301 46.02 67.9801 44.58 67.3701 43.26C66.0101 40.37 63.4601 38.03 60.2101 37.5C58.2001 37.06 56.1001 37.08 54.1401 37.6C52.6601 38 51.2601 38.71 50.1701 39.75C49.0701 40.78 48.3001 42.12 47.9701 43.59C47.4101 45.9 48.1201 48.24 49.4301 50.04C49.7101 50.44 50.0601 50.78 50.3901 51.14C51.0201 51.8 51.4801 52.16 51.7401 52.53C52.0101 52.89 52.1001 53.23 52.1101 53.67C52.1101 53.87 52.1501 54.1 52.1301 54.28C52.0901 54.6 51.8301 54.77 51.3401 54.77C50.8601 54.77 50.1701 54.57 49.4201 54.09C47.2101 52.64 45.4401 50.22 44.8901 47.34C44.7501 46.62 44.6801 45.89 44.7001 45.15C44.7001 44.78 44.7601 44.42 44.7901 44.06C44.8201 43.7 44.8601 43.33 44.9601 42.97C45.2401 41.52 45.9001 40.1 46.7901 38.89C48.1201 37.07 49.9901 35.72 51.9901 34.97C53.9901 34.19 56.1001 33.91 58.1501 33.98V34.06L58.1601 34.08Z" fill="#231F20"/>
<path d="M33.17 16.83L34.71 15.07C34.9 14.85 35.02 14.6 35.21 14.38C35.89 13.63 36.58 12.9 37.24 12.14C37.56 11.82 37.81 11.46 38.07 11.1C38.38 10.63 38.64 10.12 39.26 9.86001C39.5 9.81001 39.63 9.92001 39.85 10.25C40.05 10.56 40.35 11.09 40.27 11.43C39.82 12.51 39.35 13.58 38.38 14.33C37.84 14.8 37.54 15.47 37.11 16.04C36.64 16.66 36.15 17.28 35.67 17.89C35.37 18.27 35.06 18.64 34.77 19.02C34.33 19.6 33.86 20.16 33.49 20.79C33.2 21.27 33.06 21.84 32.84 22.36C32.79 22.47 32.75 22.59 32.68 22.7C32.43 23.08 32.19 23.1 31.59 22.81C31.45 22.75 31.31 22.69 31.18 22.62C30.74 22.38 30.49 21.99 30.52 21.6C30.54 21.32 30.58 21.04 30.64 20.78C30.72 20.53 30.82 20.29 30.93 20.05C31.15 19.58 31.43 19.13 31.72 18.7C32.15 18.05 32.65 17.44 33.11 16.81L33.17 16.85V16.83Z" fill="#231F20"/>
<path d="M46.0301 102.31L63.4101 102.53C65.5201 102.55 67.6401 102.47 69.7501 102.49C77.2001 102.57 84.6401 102.71 92.0801 102.66L94.5601 102.64L95.9101 102.62H96.2601L96.7201 102.65C97.0301 102.67 97.3201 102.78 97.6001 102.89C98.1701 103.12 98.6101 103.59 98.8401 104.15C99.0601 104.71 99.1701 105.33 99.1001 105.96C99.0601 106.58 98.9301 107.01 98.8101 107.47C98.6801 107.91 98.5201 108.33 98.3501 108.74C97.4601 110.82 96.2601 112.67 94.8301 114.36C93.4001 116.01 91.7101 117.62 89.4301 118.28C88.7201 118.46 88.3701 118.36 88.3601 118.22C88.3401 118.05 88.6301 117.81 89.0001 117.34C89.3801 116.88 89.8601 116.27 90.3501 115.49C90.8701 114.75 91.5001 113.95 92.2101 113.08C93.4801 111.57 94.5501 109.82 95.3001 108.08C95.4701 107.65 95.6501 107.21 95.7501 106.8C95.8701 106.41 95.9401 105.89 95.9301 105.94C95.9501 105.92 95.9501 105.87 95.9101 105.85L93.0101 105.92L89.7601 105.9C87.5901 105.87 85.4201 105.82 83.2501 105.74C78.0501 105.55 72.6501 105.76 67.3501 105.74C61.5101 105.7 55.6801 105.66 49.8401 105.62C46.2501 105.6 42.6501 105.57 39.0601 105.55C36.3401 105.55 33.6201 105.53 30.9001 105.52C29.5401 105.52 28.1801 105.52 26.8301 105.53C25.5201 105.55 24.2201 105.57 22.9201 105.59L22.0501 105.63L21.6401 105.66C21.5501 105.64 21.5601 105.75 21.5801 105.81C21.6001 105.88 21.6101 105.96 21.6301 106.03C21.7101 106.31 21.8001 106.59 21.9101 106.84C21.9601 106.97 22.0101 107.09 22.0701 107.21L22.1201 107.31L22.1901 107.48L22.3401 107.82C23.1901 109.59 24.2901 111.22 25.6101 112.6C26.2001 113.2 26.8201 113.74 27.4901 114.23C27.7901 114.48 28.0701 114.69 28.3501 114.85C28.6101 115.04 28.8401 115.23 29.0601 115.4C29.5001 115.71 29.8801 115.95 30.1601 116.2C30.7401 116.7 31.0901 117.02 31.3201 117.46C31.4301 117.65 31.6001 117.86 31.6501 118.02C31.7401 118.29 31.4401 118.4 30.7501 118.41C30.4101 118.41 29.9601 118.41 29.4401 118.31C28.9301 118.19 28.3401 118.03 27.7001 117.78C27.2401 117.56 26.7601 117.36 26.3201 117.09C25.8801 116.81 25.4701 116.51 25.0401 116.21C24.2201 115.57 23.4401 114.87 22.7301 114.09C21.3201 112.53 20.1601 110.74 19.3001 108.79L18.8501 107.73L18.3701 106.38C18.1201 105.5 18.0701 104.62 18.3001 104.03L18.4201 103.56L18.4801 103.31C18.5101 103.24 18.6101 103.23 18.6701 103.18C18.9701 103.04 19.2001 102.91 19.5801 102.76L20.1101 102.54L20.3701 102.43L20.5001 102.37H20.6801L22.1301 102.32C23.2601 102.3 24.4001 102.28 25.5301 102.25L28.4801 102.22C34.3201 102.17 40.1701 102.22 46.0201 102.22V102.3L46.0301 102.31Z" fill="#231F20"/>
<path d="M66.9698 119.68L53.6598 119.32C52.0398 119.28 50.4198 119.32 48.8098 119.27L31.7098 118.75C29.1798 118.69 26.6398 118.72 24.1298 118.76C22.5198 118.79 20.8998 118.87 19.2898 118.86C17.6798 118.84 16.0598 118.83 14.4498 118.49C13.4398 118.06 13.5698 118.16 14.4198 117.65C14.8398 117.37 15.4398 117.11 16.1698 116.8C16.8998 116.53 17.7498 116.35 18.6798 116.26C25.2798 115.98 31.8698 116.1 38.5098 116.42C42.4798 116.64 46.6198 116.54 50.6798 116.61L64.0798 116.87C66.8298 116.91 69.5798 116.95 72.3198 116.99C76.4798 117.03 80.6598 117.07 84.7898 116.98C87.9998 116.9 91.1398 116.64 94.3098 116.43C95.0098 116.38 95.6898 116.33 96.3898 116.28C97.0398 116.25 97.5798 116.23 98.0398 116.24C98.4898 116.26 98.8598 116.34 99.1698 116.41C99.7798 116.56 100.14 116.78 100.43 117.11C100.56 117.26 100.74 117.4 100.82 117.55C101.09 118.02 100.04 118.53 98.1298 118.91C92.4598 119.6 86.4498 119.82 80.4298 119.84C75.9598 119.87 71.4598 119.8 66.9798 119.74V119.67L66.9698 119.68Z" fill="#231F20"/>
<path d="M97.75 68.88C97.65 68.74 97.85 68.61 98.21 68.49C98.32 68.45 98.67 68.44 98.72 68.49C98.82 68.56 98.93 68.64 99.01 68.71C99.05 68.76 99.39 69.5 99.49 69.75C99.6 69.99 99.65 70.24 99.68 70.48C99.76 70.98 99.86 71.48 99.96 71.97C99.98 72.08 99.98 72.19 99.96 72.31C99.89 72.71 99.96 73.09 100.07 73.46C100.09 73.52 100.09 73.59 100.18 73.64C100.32 73.72 100.56 74.73 100.53 74.87C100.45 75.23 100.42 75.57 100.38 75.93C100.38 75.98 100.42 76.02 100.33 76.09C100.14 76.24 100.2 76.33 100.2 76.44C100.2 76.59 100.21 76.74 100.17 76.89C100.15 76.97 100.05 77.07 99.96 77.16C99.89 77.24 99.55 77.29 99.51 77.27C99.39 77.23 99.25 77.32 99.12 77.36C99.08 77.37 99.02 77.39 98.98 77.4C98.89 77.42 98.14 76.7 98.13 76.6C98.13 76.58 97.71 75.4 97.65 75.22C97.62 75.15 97.65 75.06 97.68 74.98C97.68 74.94 97.38 73.96 97.38 73.91C97.38 73.7 97.28 73.49 97.44 73.26C97.47 73.21 97.46 73.17 97.44 73.13C97.37 72.77 97.41 72.4 97.42 72.03C97.42 71.84 97.39 71.66 97.38 71.47C97.38 71.44 97.4 71.4 97.41 71.37C97.42 71.33 97.44 71.28 97.44 71.24C97.39 70.8 97.46 70.36 97.37 69.93C97.34 69.83 97.52 69.34 97.52 69.22C97.52 69.16 97.78 68.93 97.74 68.87L97.75 68.88Z" fill="#231F20"/>
<path d="M103.64 61.74C103.47 61.85 103.32 61.6 103.18 61.16C103.14 61.02 103.14 60.6 103.18 60.53C103.28 60.4 103.37 60.28 103.47 60.18C103.53 60.12 104.5 59.76 104.83 59.66C105.15 59.55 105.47 59.51 105.79 59.49L107.76 59.36C107.91 59.36 108.05 59.38 108.2 59.43C108.7 59.61 109.2 59.62 109.7 59.58C109.78 59.58 109.87 59.59 109.95 59.5C110.09 59.35 111.46 59.39 111.63 59.47C112.06 59.65 112.49 59.8 112.91 60.03C112.97 60.06 113.04 60.03 113.09 60.15C113.2 60.41 113.34 60.39 113.47 60.43C113.65 60.48 113.83 60.55 114.01 60.65C114.1 60.7 114.18 60.84 114.26 60.94C114.33 61.04 114.26 61.35 114.23 61.38C114.14 61.47 114.19 61.63 114.19 61.76C114.19 61.8 114.19 61.86 114.18 61.9C114.16 61.96 113.06 62.54 112.95 62.56C112.94 62.56 112.55 62.63 112.13 62.7C111.72 62.72 111.3 62.75 111.21 62.77C111.12 62.79 111.03 62.72 110.94 62.68C110.9 62.66 109.68 62.8 109.63 62.79C109.38 62.75 109.13 62.83 108.88 62.6C108.83 62.56 108.78 62.57 108.73 62.57C108.3 62.59 107.86 62.5 107.43 62.42C107.21 62.38 106.98 62.4 106.76 62.39C106.72 62.39 106.68 62.35 106.64 62.34C106.59 62.32 106.54 62.29 106.49 62.29C105.96 62.29 105.43 62.16 104.9 62.24C104.78 62.25 104.19 62.02 104.05 62.02C103.97 62.02 103.71 61.68 103.64 61.73V61.74Z" fill="#231F20"/>
</svg>
