<svg width="128" height="128" viewBox="0 0 128 128" fill="none" xmlns="http://www.w3.org/2000/svg">
<path d="M16.6101 111.44C19.6501 115 12.6301 109.74 12.6301 109.74L11.5901 98.86L11.3401 96.36C11.3501 96.31 11.3501 96.25 11.3401 96.21C11.3401 95.85 11.3301 95.6 11.3301 95.6C11.3301 95.6 39.9401 102.36 47.8001 102.8C55.6601 103.24 65.0601 105.29 65.0601 105.29L65.9201 106.74C43.5701 105.29 22.6401 99.51 17.1301 101.39C14.5401 102.27 14.0401 108.45 16.6001 111.44H16.6101Z" fill="#231F20"/>
<path d="M103.24 83.7C97.3899 93.78 65.9199 106.73 65.9199 106.73V104.08L82.6599 96L103.24 83.7Z" fill="#231F20"/>
<path d="M62.1499 105.68C62.5999 106.08 64.9499 112.49 62.8999 118.69C62.0299 121.32 65.2999 117.98 65.2999 117.98L65.0799 105.28L62.1599 105.68H62.1499Z" fill="#231F20"/>
<path d="M66.7801 110.27C66.7401 111.11 66.6901 111.95 66.6501 112.78C66.6301 113.09 66.6801 113.4 66.6501 113.7C66.5201 114.79 66.3601 115.89 66.1901 116.99C66.1301 117.47 66.0401 117.97 66.0001 118.45C65.9401 119.08 65.6901 119.7 65.3101 120.26C65.1901 120.43 65.0301 120.35 64.8101 120.14C64.6101 119.93 64.2801 119.57 64.1701 119.24C63.7301 118.04 63.8501 116.93 64.1001 115.71C64.2701 114.99 64.1001 114.23 64.0901 113.47C64.0901 112.64 64.1301 111.8 64.1501 110.96C64.1601 110.44 64.1701 109.92 64.1901 109.4C64.1901 108.61 64.2401 107.81 64.2101 107.02C64.2101 106.4 63.9701 105.78 64.0001 105.11C64.0001 104.96 64.0001 104.81 64.0201 104.66C64.0301 104.39 64.2501 104.2 64.3901 104.11C64.5601 104.01 64.7601 104 65.0301 104.03C65.1601 104.04 65.2801 104.05 65.3901 104.08C65.7701 104.16 66.0701 104.47 66.2901 104.79C66.8201 105.73 66.8101 106.73 66.8501 107.81C66.8501 108.63 66.8501 109.45 66.8501 110.27H66.7801Z" fill="#231F20"/>
<path d="M60.5701 85.3C61.4501 85.38 62.3601 85.36 63.2501 85.23C63.5801 85.19 63.8801 85.07 64.2101 85.02C64.7701 84.9 65.3301 84.77 65.8401 84.55C66.3501 84.35 66.7901 84.06 66.9901 83.7C67.1901 83.41 67.1301 82.98 66.8801 82.59C66.5401 82.1 66.0501 81.66 65.5301 81.19C65.3701 81.04 65.4401 80.96 65.6701 80.92C65.9001 80.88 66.3401 80.85 66.7601 81.04C67.1301 81.21 67.4601 81.47 67.7701 81.8C68.0701 82.13 68.3601 82.57 68.4501 83.15C68.5501 83.72 68.3801 84.37 68.0301 84.78C67.7001 85.19 67.3101 85.45 66.9301 85.65C66.0301 86.09 65.1701 86.48 64.2501 86.71C63.2401 86.93 62.2201 87.03 61.2101 87.02C60.5801 87.02 59.9601 86.96 59.3401 86.88C58.4001 86.75 57.4801 86.49 56.5801 86.18C55.8901 85.91 55.1701 85.69 54.5201 85.26C54.3801 85.17 54.2201 85.09 54.1001 84.97C53.6301 84.53 53.6501 84.22 53.8801 83.88C53.9301 83.8 53.9701 83.72 54.0301 83.66C54.1201 83.55 54.2501 83.51 54.4201 83.49C54.5901 83.48 54.8001 83.48 54.9601 83.57C55.9701 84.04 56.8701 84.55 58.0001 84.83C58.8201 85.06 59.6901 85.2 60.5801 85.24V85.28L60.5701 85.3Z" fill="#231F20"/>
<path d="M94.9601 108.67L90.3101 110.65C89.7401 110.89 89.2001 111.18 88.6301 111.41C86.6201 112.24 84.5801 112.99 82.5501 113.77C81.6401 114.09 80.7601 114.5 79.8401 114.81C79.2601 115.03 78.6701 115.22 78.0701 115.4C77.7801 115.51 77.4501 115.54 77.1301 115.55C76.8201 115.59 76.4901 115.57 76.1701 115.55C75.7701 115.52 75.8401 115.51 76.1501 115.37C76.3101 115.29 76.5101 115.2 76.7401 115.01C76.8701 114.9 77.0001 114.81 77.1101 114.71C77.1701 114.66 77.2501 114.61 77.3101 114.55L77.5401 114.46C79.7701 113.46 82.0601 112.49 84.4201 111.62C85.8301 111.1 87.2201 110.37 88.6401 109.76L93.3101 107.74L96.1801 106.49C97.6301 105.85 99.0801 105.21 100.52 104.57C101.64 104.07 102.71 103.53 103.81 103.03C104.05 102.92 104.29 102.82 104.55 102.73C105.49 102.4 105.82 102.36 106.11 102.5C106.18 102.53 106.25 102.55 106.3 102.59C106.45 102.71 106.14 103.01 105.52 103.41C104.61 104.01 103.65 104.57 102.66 105.1C101.68 105.66 100.67 106.18 99.6301 106.63C98.0801 107.32 96.5301 108.01 94.9801 108.71L94.9601 108.68V108.67Z" fill="#231F20"/>
<path d="M106.27 95.22C106.27 95.22 117.86 95.08 116.95 98.12C115.59 102.65 106.26 104.08 81.8501 113.35C81.8501 113.35 103.97 102.26 105.21 100.14C106.45 98.02 106.27 95.22 106.27 95.22Z" fill="#231F20"/>
<path d="M11.3701 98.43C11.3901 98.16 11.3701 97.1 11.3501 96.36L11.6001 98.86C11.4401 98.71 11.3601 98.56 11.3801 98.43H11.3701Z" fill="#231F20"/>
<path d="M59.1898 79.99C59.1098 80.22 60.2498 82.26 60.2498 82.26C60.2498 82.26 54.6498 84.41 59.5198 86.38C63.3498 87.93 45.3498 84.76 52.3398 80.47C58.5698 76.65 59.1898 79.99 59.1898 79.99Z" fill="#231F20"/>
<path d="M65.8502 51.86C51.7102 45.38 61.6202 33.48 70.7702 36.8C70.7702 36.8 62.9202 28.9 56.6002 35.46C50.2802 42.02 55.7202 48.06 55.7202 48.06L65.8502 51.85V51.86Z" fill="#231F20"/>
<path d="M66.9 73.87L75.99 74.82C77.1 74.93 78.21 74.96 79.31 75.08C83.2 75.47 87.09 76 90.98 76.41C92.71 76.6 94.45 76.68 96.17 76.85C97.27 76.94 98.3801 77.03 99.48 77.12C100.58 77.25 101.68 77.47 102.77 77.81C103.45 78.02 103.36 78 102.77 78.18C102.47 78.27 102.05 78.43 101.53 78.64C101.02 78.82 100.42 78.96 99.77 79.05C98.63 79.11 97.5 79.09 96.36 79.1C95.23 79.1 94.09 79.1 92.96 79C90.7 78.84 88.44 78.62 86.17 78.32C83.46 77.98 80.62 77.86 77.84 77.61L68.68 76.71L63.04 76.17C60.19 75.91 57.34 75.62 54.5 75.46C52.3 75.33 50.13 75.37 47.95 75.35C47.47 75.35 47 75.37 46.52 75.35C45.62 75.34 45.04 75.18 44.64 75.02C44.23 74.87 44.01 74.6 43.84 74.26C43.76 74.11 43.65 73.97 43.61 73.85C43.46 73.49 44.22 72.91 45.55 72.78C49.49 72.46 53.6 72.74 57.72 73.02C60.78 73.24 63.8401 73.54 66.9101 73.81V73.88L66.9 73.87Z" fill="#231F20"/>
<path d="M74.46 117.07C72.91 117.71 71.36 118.36 69.79 118.98L67.43 119.9C67.04 120.05 66.63 120.2 66.22 120.34C65.79 120.48 65.47 120.63 64.87 120.77C64.58 120.83 64.38 120.93 64 120.94C63.73 120.95 63.49 120.95 63.27 120.94C62.82 120.94 62.39 120.91 61.96 120.88L59.42 120.69C57.74 120.55 56.07 120.38 54.4 120.2C51.97 119.94 49.53 119.72 47.11 119.4C38.57 118.26 30.05 116.95 21.64 114.84C19.78 114.34 17.91 113.85 16.06 113.17C15.14 112.82 14.22 112.44 13.31 111.86C12.86 111.55 12.4 111.21 12.01 110.6C11.82 110.32 11.71 109.87 11.66 109.69L11.49 108.99C10.92 106.58 10.53 104.11 10.33 101.65C10.19 99.18 10.27 96.74 10.6 94.31C10.8 93.55 10.88 93.21 10.91 93.23C10.95 93.25 10.99 93.62 11.27 94.24C11.56 94.87 11.84 95.78 12.23 96.86C12.56 97.95 12.8 99.22 13 100.58C13.21 102.99 13.43 105.37 13.92 107.71C13.97 108 14.04 108.3 14.1 108.59L14.2 109.03L14.25 109.25C14.26 109.31 14.26 109.27 14.26 109.28C14.16 109.19 14.46 109.55 14.84 109.79C15.63 110.34 16.73 110.83 17.82 111.25C20.03 112.12 22.42 112.71 24.81 113.28C27.2 113.84 29.63 114.35 32.07 114.84C37.91 115.99 44.09 116.68 50.15 117.34C53.48 117.7 56.82 118.03 60.15 118.26C60.98 118.32 61.81 118.37 62.63 118.4C63.03 118.41 63.45 118.42 63.79 118.4C63.9 118.4 64.07 118.33 64.22 118.29C64.38 118.24 64.52 118.21 64.72 118.13C66.25 117.59 67.81 116.94 69.35 116.3C73.16 114.72 76.94 113.05 80.69 111.33C86.36 108.7 92.08 106.04 97.45 102.99C98.59 102.36 99.68 101.67 100.75 100.98C101.29 100.64 101.77 100.25 102.28 99.89C102.54 99.71 102.79 99.52 102.98 99.32C103.18 99.12 103.42 98.92 103.53 98.8C103.64 98.72 103.66 98.56 103.68 98.47C103.73 98.3 103.75 98.02 103.79 97.8C103.84 97.3 103.87 96.78 103.88 96.25C103.9 95.19 103.89 94.12 103.85 93.05C103.81 92.02 103.72 91.01 103.7 89.96C103.65 88.03 103.6 86.76 103.7 85.86C103.86 84.95 104.09 84.4 104.34 83.94C104.46 83.73 104.55 83.46 104.64 83.33C104.81 83.11 105.02 83.38 105.41 84.07C105.78 84.75 106.28 85.86 106.45 87.33C106.77 89.34 107.01 91.39 107.02 93.49C107.04 94.54 107.02 95.59 106.96 96.69C106.93 97.24 106.88 97.79 106.79 98.39L106.71 98.86C106.69 99.01 106.65 99.16 106.57 99.42C106.46 99.97 106.1 100.31 105.89 100.76C105.7 100.89 105.49 101.11 105.36 101.22L104.95 101.58L104.54 101.94C104.41 102.05 104.28 102.13 104.15 102.22L102.58 103.31C101.53 103.95 100.48 104.63 99.41 105.21C97.2801 106.43 95.11 107.56 92.93 108.65C86.87 111.69 80.68 114.45 74.47 117.13L74.44 117.07H74.46Z" fill="#231F20"/>
<path d="M53.8199 84.2C55.3799 84.98 57.2399 85.48 59.0799 85.76C59.7599 85.85 60.4499 85.85 61.1199 85.88C62.3099 85.95 63.5099 85.91 64.6299 85.69C65.7499 85.48 66.7799 85.04 67.3999 84.36C67.6499 84.07 67.7199 83.86 67.6399 83.57C67.5499 83.28 67.2699 82.93 66.9099 82.66C66.4299 82.31 65.8499 82.04 65.2499 81.77C64.9499 81.64 64.6299 81.55 64.3299 81.38C64.0299 81.2 63.6999 81.06 63.3699 80.87C62.9699 80.48 62.9899 80.64 63.4099 80.34C63.6199 80.17 63.9199 80.01 64.3199 79.82C64.5199 79.73 64.7399 79.62 64.9699 79.58C65.1999 79.55 65.4299 79.55 65.6699 79.6C66.5199 79.74 67.3899 80 68.1899 80.56C68.5899 80.82 68.9899 81.17 69.3499 81.6C69.6999 82.07 70.0499 82.62 70.1499 83.37C70.2599 84.09 70.0899 84.91 69.7499 85.45C69.5899 85.77 69.4199 85.94 69.2399 86.16C69.0699 86.38 68.8699 86.54 68.6699 86.71C67.8799 87.38 66.9599 87.69 66.1199 87.89C64.0999 88.34 62.1399 88.52 60.2099 88.37C58.0999 88.19 56.0399 87.73 54.0599 86.97C53.4499 86.73 52.8499 86.46 52.2599 86.12C51.6699 85.79 51.0899 85.41 50.5699 84.86C50.1999 84.46 49.7799 83.9 49.6899 83.19C49.5899 82.5 49.8799 81.81 50.2199 81.33C50.9099 80.41 51.8299 79.84 52.7399 79.41C54.1799 78.77 55.6599 78.3 57.2699 78.24C57.6199 78.22 57.9799 78.21 58.3399 78.27C59.6799 78.5 60.0399 78.99 59.9999 79.68C59.9999 79.83 60.0199 79.96 59.9999 80.07C59.9599 80.36 59.2799 80.76 58.5899 80.73C58.0399 80.76 57.4999 80.83 56.9499 80.87C56.3999 80.94 55.8499 81.02 55.3099 81.16C54.2499 81.42 53.1799 81.86 52.5499 82.44C52.2899 82.64 52.1799 82.9 52.1599 82.87C52.1699 82.88 52.1199 82.85 52.1599 82.92C52.3399 83.25 53.0399 83.81 53.8199 84.16L53.7999 84.22L53.8199 84.2Z" fill="#231F20"/>
<path d="M60.5902 49.88C60.4402 51.12 57.7402 82.49 57.7402 82.49C57.7402 82.49 59.5702 83.7 61.3802 82.49L65.4902 50.77L60.5902 49.88Z" fill="#231F20"/>
<path d="M18.8001 108.37C18.7401 108.04 18.6801 107.71 18.6301 107.38C18.6101 107.26 18.5601 107.15 18.5501 107.03C18.5101 106.6 18.4901 106.18 18.4901 105.76C18.4901 105.57 18.4601 105.39 18.4301 105.21C18.3901 104.98 18.3201 104.75 18.4101 104.51C18.4601 104.36 19.3201 104.47 19.4101 104.7C19.5401 105.13 19.6801 105.54 19.6201 106.01C19.5901 106.29 19.7201 106.55 19.7801 106.81C19.8501 107.1 19.9101 107.4 19.9901 107.69C20.0401 107.87 20.0901 108.05 20.1501 108.23C20.2401 108.5 20.3401 108.77 20.4701 109.02C20.5701 109.21 20.7501 109.36 20.8801 109.53C20.9001 109.57 20.9301 109.61 20.9401 109.66C20.9901 109.83 20.9401 109.93 20.7501 110.1L20.6201 110.21C20.4701 110.32 20.2901 110.35 20.1201 110.29C20.0001 110.24 19.8701 110.2 19.7501 110.14C19.6601 110.07 19.5701 109.99 19.4901 109.91C19.3301 109.74 19.1901 109.56 19.0801 109.36C18.9501 109.05 18.8601 108.72 18.7601 108.39H18.7901L18.8001 108.37Z" fill="#231F20"/>
<path d="M25.0498 109.49C25.0498 109.23 25.0398 108.96 25.0298 108.71C25.0298 108.62 24.9798 108.53 24.9798 108.44C24.9898 108.11 24.9998 107.78 25.0398 107.45C25.0398 107.3 25.0298 107.17 24.9998 107.03C24.9598 106.86 24.8898 106.69 24.9898 106.49C25.0398 106.37 25.9898 106.37 26.0898 106.55C26.2298 106.87 26.3498 107.19 26.2798 107.56C26.2298 107.78 26.3498 107.98 26.3798 108.19C26.4098 108.42 26.4498 108.66 26.4898 108.89C26.5098 109.03 26.5298 109.18 26.5698 109.32C26.6298 109.53 26.6298 109.76 26.7298 109.96C26.7998 110.11 26.9598 110.23 27.0198 110.38C27.0398 110.41 27.0598 110.44 27.0698 110.48C27.0998 110.61 27.0298 110.69 26.7498 110.84L26.5598 110.94C26.3498 111.04 26.1398 111.07 25.9898 111.01C25.7898 110.92 25.5698 110.83 25.4398 110.7C25.3298 110.56 25.2398 110.41 25.1698 110.25C25.0498 110.02 25.0398 109.75 24.9998 109.5H25.0398L25.0498 109.49Z" fill="#231F20"/>
<path d="M32.19 111.2C32.17 110.97 32.15 110.74 32.13 110.52C32.13 110.44 32.08 110.37 32.07 110.29C32.07 110 32.1 109.71 32.11 109.44C32.12 109.32 32.1 109.2 32.06 109.09C32.02 108.95 31.93 108.82 32.04 108.64C32.1 108.53 33.21 108.41 33.32 108.55C33.48 108.81 33.6 109.07 33.46 109.4C33.39 109.59 33.51 109.74 33.54 109.91C33.57 110.09 33.6 110.28 33.63 110.47C33.65 110.59 33.67 110.7 33.71 110.82C33.77 110.99 33.79 111.18 33.89 111.33C33.97 111.45 34.12 111.53 34.19 111.65C34.21 111.68 34.24 111.69 34.25 111.72C34.29 111.83 34.21 111.91 33.93 112.09L33.74 112.21C33.52 112.34 33.31 112.39 33.17 112.37C32.96 112.33 32.77 112.28 32.62 112.2C32.51 112.1 32.43 111.98 32.36 111.86C32.25 111.68 32.23 111.44 32.16 111.23L32.2 111.21L32.19 111.2Z" fill="#231F20"/>
<path d="M99.11 95.32C99.21 95.03 99.31 94.73 99.39 94.44C99.42 94.33 99.41 94.22 99.44 94.11C99.56 93.73 99.67 93.34 99.77 92.95C99.82 92.78 99.82 92.6 99.83 92.43C99.83 92.21 99.79 91.98 99.92 91.76C99.99 91.62 100.92 91.81 100.99 92.08C101.06 92.55 101.11 93.03 100.89 93.49C100.77 93.77 100.82 94.06 100.77 94.35C100.72 94.67 100.65 94.98 100.58 95.29C100.54 95.48 100.49 95.68 100.45 95.86C100.38 96.15 100.28 96.43 100.25 96.72C100.23 96.95 100.26 97.18 100.26 97.41C100.26 97.46 100.27 97.51 100.26 97.56C100.2 97.74 100.09 97.78 99.8 97.76H99.6C99.38 97.72 99.21 97.61 99.13 97.46C98.89 97.02 98.89 96.61 98.93 96.2C98.96 95.9 99 95.6 99.09 95.3H99.13L99.11 95.32Z" fill="#231F20"/>
<path d="M95.1101 98.21C95.1701 97.96 95.2301 97.71 95.2801 97.47C95.3001 97.38 95.2901 97.29 95.3101 97.2C95.3801 96.88 95.4501 96.54 95.5101 96.23C95.5401 96.09 95.5401 95.94 95.5401 95.8C95.5401 95.62 95.5201 95.43 95.5801 95.25C95.6101 95.13 96.0001 95.25 96.0701 95.47C96.1601 95.85 96.2201 96.24 96.1601 96.63C96.1101 96.86 96.1401 97.1 96.1301 97.34C96.1101 97.6 96.0801 97.86 96.0401 98.12C96.0101 98.28 95.9801 98.44 95.9501 98.6C95.9101 98.84 95.8501 99.08 95.8301 99.32C95.8101 99.51 95.8401 99.7 95.8501 99.88C95.8501 99.92 95.8601 99.96 95.8501 100C95.8201 100.15 95.7601 100.19 95.5401 100.18H95.4001C95.2401 100.16 95.1201 100.08 95.0801 99.96C94.9501 99.61 94.9901 99.28 95.0101 98.95C95.0401 98.71 95.0701 98.45 95.1001 98.2H95.1201L95.1101 98.21Z" fill="#231F20"/>
<path d="M90.18 101.21C90.29 100.99 90.39 100.77 90.48 100.54C90.51 100.46 90.51 100.37 90.54 100.28C90.66 99.98 90.75 99.68 90.84 99.37C90.88 99.23 90.89 99.09 90.89 98.95C90.89 98.77 90.87 98.59 90.95 98.41C91 98.3 91.6 98.41 91.68 98.64C91.76 99.03 91.83 99.44 91.66 99.82C91.57 100.05 91.59 100.3 91.54 100.54C91.49 100.8 91.41 101.06 91.33 101.31C91.28 101.47 91.22 101.62 91.17 101.77C91.09 102 90.98 102.23 90.92 102.46C90.86 102.64 90.84 102.83 90.78 103.01C90.77 103.05 90.76 103.09 90.75 103.13C90.68 103.27 90.6 103.29 90.38 103.23L90.23 103.19C90.07 103.13 89.96 103.02 89.93 102.89C89.87 102.53 89.78 102.16 89.92 101.87C90 101.65 90.08 101.42 90.16 101.2H90.19L90.18 101.21Z" fill="#231F20"/>
<path d="M83.2001 103.53C83.2301 103.44 83.2701 103.34 83.3001 103.26C83.3101 103.23 83.3001 103.19 83.3001 103.16C83.3601 103.04 83.4201 102.91 83.4601 102.78C83.4801 102.72 83.4601 102.67 83.4301 102.62C83.4001 102.56 83.3101 102.51 83.4101 102.41C83.4701 102.35 84.4601 102.17 84.5101 102.26C84.5801 102.42 84.5901 102.59 84.4701 102.78C84.4001 102.89 84.4701 102.98 84.4601 103.09C84.4601 103.2 84.4201 103.32 84.3901 103.43C84.3701 103.5 84.3501 103.57 84.3401 103.63C84.3201 103.73 84.2801 103.83 84.2701 103.93C84.2701 104.01 84.3301 104.09 84.3501 104.16C84.3501 104.18 84.3701 104.2 84.3701 104.21C84.3701 104.27 84.3001 104.29 84.0501 104.28H83.8801C83.6901 104.26 83.5401 104.22 83.4801 104.18C83.2901 104.04 83.2101 103.92 83.1701 103.8C83.1401 103.71 83.1701 103.62 83.1701 103.53H83.2001Z" fill="#231F20"/>
<path d="M11.3501 96.21C11.3501 96.21 11.3601 96.31 11.3501 96.36V96.2V96.21Z" fill="#231F20"/>
<path d="M56.1801 19.25C56.3101 19.43 56.0601 19.61 55.6401 19.8C55.5001 19.86 55.0901 19.89 55.0201 19.84C54.8901 19.74 54.7501 19.65 54.6501 19.55C54.5901 19.49 54.1401 18.47 53.9401 18.12C53.7301 17.79 53.6601 17.45 53.6301 17.1L53.3201 14.99C53.3001 14.83 53.3101 14.67 53.3401 14.51C53.4601 13.96 53.4101 13.42 53.2901 12.89C53.2701 12.8 53.2801 12.71 53.1701 12.63C52.9501 12.51 52.9301 11.04 52.9901 10.84C53.1701 10.35 53.2101 9.87001 53.3901 9.38001C53.4101 9.31001 53.3901 9.24001 53.4901 9.17001C53.7301 9.01001 53.6901 8.86001 53.7201 8.71001C53.7801 8.50001 53.8501 8.29001 53.9301 8.08001C53.9701 7.98001 54.0901 7.87001 54.1601 7.76001C54.2301 7.66001 54.4201 7.70001 54.4501 7.72001C54.5301 7.80001 54.6201 7.72001 54.7001 7.71001C54.7301 7.71001 54.7701 7.70001 54.7901 7.70001C54.8201 7.70001 55.0401 7.98001 55.2801 8.26001C55.5601 8.54001 55.7801 8.85001 55.8001 8.91001C55.8801 8.93001 56.3201 10.6 56.4001 10.78C56.4401 10.88 56.4001 10.98 56.3701 11.09C56.3701 11.11 56.4701 11.46 56.5701 11.8C56.6601 12.15 56.7301 12.49 56.7301 12.52C56.7201 12.8 56.8301 13.08 56.6201 13.38C56.5801 13.44 56.5901 13.49 56.6001 13.55C56.6701 14.03 56.6101 14.52 56.5901 15.01C56.5801 15.26 56.6301 15.5 56.6401 15.75C56.6401 15.79 56.6101 15.84 56.6001 15.89C56.5901 15.95 56.5601 16.01 56.5601 16.06C56.6101 16.64 56.5901 17.23 56.6401 17.81C56.6501 17.94 56.3901 18.61 56.4301 18.77C56.4401 18.86 56.1201 19.17 56.1801 19.24V19.25Z" fill="#231F20"/>
<path d="M50.38 21.76C50.64 21.8 50.61 22.14 50.4 22.64C50.34 22.8 50.01 23.17 49.91 23.18C49.72 23.2 49.53 23.23 49.37 23.22C49.27 23.22 48.11 22.64 47.69 22.48C47.29 22.32 46.94 22.09 46.6 21.84L44.52 20.39C44.37 20.28 44.24 20.14 44.14 19.97C43.78 19.41 43.29 18.99 42.75 18.63C42.66 18.57 42.59 18.49 42.44 18.5C42.2 18.52 40.84 17.43 40.72 17.22C40.38 16.66 40.1 16.21 39.8 15.71C39.76 15.64 39.67 15.61 39.69 15.47C39.75 15.14 39.59 15.06 39.48 14.93C39.32 14.74 39.17 14.55 39.05 14.32C38.99 14.2 39.01 14 39 13.83C39 13.68 39.28 13.42 39.34 13.42C39.5 13.4 39.55 13.2 39.65 13.07C39.68 13.03 39.72 12.97 39.76 12.94C39.83 12.87 41.39 13.17 41.51 13.26C41.53 13.26 41.97 13.53 42.45 13.81C42.94 14.07 43.38 14.41 43.49 14.46C43.6 14.52 43.65 14.65 43.71 14.76C43.74 14.81 45.11 15.68 45.16 15.73C45.39 15.97 45.71 16.11 45.8 16.52C45.82 16.6 45.88 16.63 45.93 16.67C46.39 17.02 46.77 17.45 47.14 17.91C47.33 18.14 47.57 18.31 47.78 18.52C47.82 18.56 47.83 18.62 47.86 18.67C47.9 18.73 47.92 18.8 47.97 18.85C48.49 19.31 48.92 19.88 49.49 20.28C49.62 20.38 50.01 21.09 50.17 21.19C50.26 21.25 50.28 21.75 50.38 21.76Z" fill="#231F20"/>
<path d="M45.8902 26.15C46.1102 26.08 46.1502 26.39 46.0802 26.92C46.0602 27.09 45.8702 27.55 45.7902 27.6C45.6502 27.7 45.5102 27.79 45.3902 27.85C45.3102 27.88 44.3502 27.82 44.0202 27.85C43.7002 27.87 43.4002 27.81 43.1102 27.75C42.5202 27.62 41.9102 27.53 41.3102 27.45C41.1802 27.43 41.0502 27.38 40.9302 27.32C40.5102 27.08 40.0402 27.01 39.5702 27.03C39.4902 27.03 39.4202 27.01 39.3302 27.1C39.1902 27.28 37.9602 27.07 37.8002 26.99C37.4102 26.77 37.0102 26.63 36.6002 26.47C36.5402 26.45 36.4802 26.47 36.4302 26.37C36.3002 26.13 36.1802 26.15 36.0502 26.12C35.8702 26.07 35.6902 26.02 35.5102 25.93C35.4202 25.89 35.3302 25.77 35.2302 25.67C35.1502 25.59 35.1702 25.3 35.2002 25.26C35.2802 25.16 35.2002 25.03 35.1902 24.91C35.1902 24.87 35.1802 24.82 35.1902 24.78C35.1902 24.74 36.2602 23.94 36.3902 23.93C36.4202 23.93 38.0202 23.67 38.2502 23.64C38.3502 23.61 38.4402 23.68 38.5402 23.71C38.5602 23.71 38.9102 23.67 39.2502 23.64C39.6002 23.61 39.9402 23.64 39.9702 23.64C40.2402 23.71 40.5202 23.66 40.7602 23.94C40.8102 23.99 40.8602 23.99 40.9202 24C41.3902 24.05 41.8302 24.24 42.2702 24.4C42.5002 24.48 42.7302 24.52 42.9602 24.58C43.0002 24.59 43.0302 24.63 43.0702 24.66C43.1202 24.69 43.1602 24.74 43.2102 24.75C43.7602 24.88 44.2602 25.16 44.8202 25.25C44.9502 25.27 45.4502 25.72 45.5902 25.74C45.6802 25.75 45.8002 26.18 45.8902 26.15Z" fill="#231F20"/>
<path d="M58.3498 105.41C51.4098 104.79 44.5098 103.97 37.6098 103.01C35.0998 102.66 32.5698 102.35 30.0698 101.93C25.6498 101.16 21.2398 100.35 16.8698 99.07C15.7798 98.74 14.6898 98.38 13.5998 97.92C13.0598 97.69 12.5098 97.43 11.9598 97.08C11.8198 97 11.6898 96.9 11.5398 96.79C11.3598 96.67 11.1998 96.51 11.0498 96.36C10.7598 96.04 10.4898 95.69 10.4098 95.26L10.3398 94.95C10.3398 94.84 10.3398 94.74 10.3498 94.63C10.3498 94.42 10.3898 94.21 10.4598 94C10.5298 93.79 10.5898 93.6 10.7198 93.4C10.8498 93.19 10.9398 93.01 11.0398 92.9C11.4398 92.37 11.8698 91.94 12.3098 91.54C13.1898 90.75 14.1198 90.07 15.0498 89.42C18.3698 87.15 21.8198 85.15 25.1898 83.13C27.3598 81.84 29.5598 80.6 31.7298 79.34L33.3598 78.4L35.0298 77.51C36.1398 76.91 37.2398 76.31 38.3298 75.69C39.6798 74.91 39.6398 75.2 38.7398 76.24C38.2798 76.76 37.6098 77.46 36.7598 78.27C36.3298 78.67 35.8698 79.1 35.3498 79.54C35.0898 79.76 34.8298 79.98 34.5598 80.21C34.2698 80.41 33.9698 80.61 33.6698 80.81C31.4898 82.22 29.3198 83.6 27.1198 84.94C24.8998 86.24 22.6798 87.53 20.5098 88.86C18.3498 90.19 16.1698 91.55 14.3298 93.07C13.8798 93.45 13.4498 93.85 13.1498 94.22C13.0798 94.31 12.9798 94.42 12.9498 94.47C12.9498 94.46 12.9298 94.47 12.9198 94.5C12.8898 94.54 12.8698 94.6 12.8798 94.66C12.8798 94.72 12.9198 94.77 12.9598 94.81C12.9398 94.81 13.2498 95.03 13.4498 95.15C13.9098 95.42 14.4598 95.67 15.0198 95.9C17.7498 96.98 20.8598 97.66 23.9398 98.28C27.0398 98.88 30.1898 99.36 33.3098 99.84C40.1798 100.88 47.1098 101.73 54.0398 102.42C55.9298 102.61 57.8198 102.78 59.7098 102.93L62.5398 103.13L63.9398 103.2H64.6198L64.9398 103.21C65.0198 103.21 65.0598 103.21 65.1198 103.19C65.4698 103.09 65.9598 102.91 66.3898 102.74C69.3498 101.55 72.2998 100.13 75.1998 98.7C78.1098 97.26 80.9798 95.75 83.7898 94.19C88.1598 91.75 92.3198 89.12 96.3398 86.31C97.2198 85.68 98.0598 85.04 98.9198 84.4C102.17 82.03 102.9 81.25 103.94 80.98C104.15 80.9 104.36 80.71 104.53 80.64C104.67 80.58 104.74 80.63 104.77 80.82C104.79 81 104.79 81.38 104.64 81.78C104.4 82.66 103.58 83.67 102.47 84.76C100.81 86.38 98.9698 87.75 97.0798 89.08C95.1898 90.41 93.2398 91.66 91.2498 92.88C87.2698 95.31 83.1398 97.59 78.9398 99.77C76.8399 100.85 74.7298 101.91 72.5798 102.92C71.4998 103.42 70.4298 103.93 69.3298 104.4C68.7798 104.64 68.2298 104.88 67.6498 105.11C67.3598 105.22 67.0798 105.34 66.7698 105.45C66.4598 105.57 66.1998 105.65 65.7398 105.79L65.3198 105.86L64.9598 105.88H64.4598L63.5498 105.86L61.7898 105.77L58.3198 105.52V105.45L58.3498 105.41Z" fill="#231F20"/>
<path d="M68.9901 36.85C68.0401 35.91 66.8301 35.23 65.5301 34.83C64.2301 34.45 62.7901 34.44 61.4101 34.67C60.4001 34.86 59.4701 35.29 58.6101 35.78C57.0801 36.66 55.8901 38.04 55.3201 39.71C54.7301 41.39 54.8201 43.31 55.5001 44.98C56.1301 46.47 57.3401 47.74 58.7801 48.61C59.7001 49.18 60.7001 49.63 61.7401 49.98C62.7901 50.31 63.8301 50.67 64.9301 51.1C65.6201 51.38 65.5401 51.51 64.8801 51.86C64.5501 52.03 64.0601 52.32 63.4601 52.48C63.1601 52.56 62.8201 52.69 62.4701 52.7C62.1301 52.7 61.7601 52.68 61.3901 52.6C58.8001 52.05 56.2401 50.73 54.3901 48.51C53.4701 47.41 52.7501 46.1 52.3701 44.68C52.0201 43.24 52.0701 41.77 52.3401 40.39C52.7001 38.74 53.3701 37.1 54.4701 35.76C55.5401 34.41 56.9501 33.35 58.4901 32.71C60.1801 31.98 62.0201 31.73 63.8101 31.81C65.6201 31.92 67.4001 32.43 68.9601 33.32C70.8701 34.43 72.4801 36.08 73.4401 38.08C74.1901 39.58 74.5201 41.3 74.4101 42.96C74.4101 44.62 73.8501 46.3 73.0101 47.72C71.7001 49.94 69.7201 51.75 67.2401 52.69C66.6901 52.87 66.1501 53.08 65.5601 53.17C65.0201 53.29 64.5501 53.26 64.1701 53.26C63.7801 53.23 63.4801 53.11 63.2301 53.02C62.7401 52.83 62.5101 52.45 62.3701 52.05C62.3101 51.87 62.2101 51.7 62.1901 51.56C62.1201 51.12 63.0001 50.62 64.1201 50.35C65.8201 50 67.4101 49.2 68.6601 48.03C69.9401 46.92 70.9301 45.47 71.2301 43.87C71.3201 43.59 71.3001 43.25 71.3401 42.94C71.3701 42.62 71.4101 42.3 71.3801 41.99C71.3701 41.36 71.2301 40.75 71.0501 40.14C70.6501 38.94 69.9401 37.79 68.9501 36.9L68.9901 36.84V36.85Z" fill="#231F20"/>
</svg>
