<svg width="128" height="128" viewBox="0 0 128 128" fill="none" xmlns="http://www.w3.org/2000/svg">
<path d="M55.3601 60C54.0501 59.45 53.0501 56 51.8601 57.78C49.8601 60.78 44.8601 67.47 39.9601 73.37C28.1301 87.71 25.4301 95.7 26.3101 97.25C27.1901 98.8 23.3101 92.48 23.3101 92.48L53.6101 52.87L55.3601 60Z" fill="#231F20"/>
<path d="M26.5196 98.5299C26.1057 97.9576 25.7283 97.3598 25.3896 96.7399C25.2696 96.5099 25.1096 96.3099 24.9996 96.0699C24.6414 95.2187 24.4122 94.3188 24.3196 93.3999C24.3196 93.1899 24.3196 92.9799 24.2696 92.7799V92.1399C24.2489 91.8545 24.2871 91.5679 24.3817 91.2979C24.4763 91.0278 24.6254 90.78 24.8196 90.5699C24.9496 90.4399 25.2696 90.7099 25.5596 91.0199C25.8496 91.3299 26.1396 91.6499 26.0896 91.7999C25.9398 92.5234 25.9094 93.2666 25.9996 93.9999C26.1055 94.5266 26.3163 95.0265 26.6196 95.4699C26.9097 96.0101 27.2442 96.5252 27.6196 97.0099C27.8436 97.3157 28.0874 97.6063 28.3496 97.8799C28.7372 98.3033 29.1736 98.6792 29.6496 98.9999C30.0496 99.1999 30.4596 99.3499 30.8396 99.4999L31.0996 99.5999C31.3996 99.7199 31.4496 99.9099 31.4196 100.3C31.4196 100.39 31.4196 100.48 31.4196 100.56C31.3917 100.704 31.3145 100.833 31.2014 100.926C31.0882 101.02 30.9462 101.07 30.7996 101.07C30.291 101.097 29.7814 101.043 29.2896 100.91C28.8179 100.713 28.382 100.439 27.9996 100.1C27.4486 99.6323 26.94 99.117 26.4796 98.5599L26.5196 98.5299Z" fill="#231F20"/>
<path d="M63.7297 46.77C59.8697 44.12 60.5497 38.02 60.0997 37.62C59.6497 37.22 58.7197 38.46 57.5997 40.16C56.5867 41.7882 55.7773 43.5346 55.1897 45.36C55.1897 45.36 54.4397 36.74 60.5597 33.93C63.9197 32.38 64.5597 32.15 64.5597 32.15L63.7297 46.77Z" fill="#231F20"/>
<path d="M47.0797 67.74C47.3091 68.2648 47.5869 68.7669 47.9097 69.24C48.0309 69.4165 48.1611 69.5868 48.2997 69.75C48.7493 70.3696 49.2369 70.9607 49.7597 71.52C49.9975 71.7629 50.2479 71.9932 50.5097 72.21C50.8695 72.4829 51.2042 72.7875 51.5097 73.12C51.6097 73.23 51.5097 73.32 51.3397 73.36C51.1084 73.4147 50.8654 73.39 50.6497 73.29C49.8183 72.8595 49.0834 72.264 48.4897 71.54C48.1397 71.1 47.7097 70.7 47.3397 70.25C46.9621 69.7422 46.6276 69.2036 46.3397 68.64C46.1512 68.2933 45.9907 67.9322 45.8597 67.56C45.7497 67.27 45.6797 66.98 45.5997 66.69C45.5197 66.4 45.4697 66.1 45.4297 65.81C45.3897 65.52 45.3597 65.35 45.3297 65.12C45.2997 64.89 45.3297 64.66 45.3297 64.42C45.3147 64.3206 45.3147 64.2194 45.3297 64.12C45.4097 63.74 45.5097 63.64 45.7297 63.61H45.8897C46.0497 63.61 46.1597 63.79 46.2097 64.05C46.2892 64.7775 46.4161 65.499 46.5897 66.21C46.7302 66.7431 46.928 67.2595 47.1797 67.75L47.0797 67.74Z" fill="#231F20"/>
<path d="M63.1896 69.14C62.6496 68.72 62.1196 68.28 61.5796 67.85C61.0396 67.42 60.5796 66.96 60.0296 66.49C59.4796 66.02 59.2596 65.84 58.8996 65.49C57.6844 64.1881 56.5805 62.7865 55.5996 61.3C55.1696 60.64 54.7196 59.99 54.3396 59.3C54.0996 58.85 53.8496 58.41 53.6296 57.95C53.4672 57.4558 53.3796 56.9401 53.3696 56.42C53.3696 56.1 53.5996 56.07 54.0096 56.21C54.2512 56.2853 54.4855 56.3824 54.7096 56.5C54.8415 56.5601 54.9685 56.6304 55.0896 56.71L55.2696 56.83C55.2696 56.88 55.3396 56.93 55.3696 56.99L58.3696 61.71C59.0753 62.6565 59.8872 63.5188 60.7896 64.28C61.2496 64.73 61.7196 65.19 62.2296 65.61C62.7396 66.03 63.2296 66.47 63.7396 66.88C64.2496 67.29 65.0296 67.88 65.6896 68.35C66.7036 69.0557 67.7588 69.7002 68.8496 70.28C69.7074 70.6611 70.5854 70.9949 71.4796 71.28C71.6696 71.35 71.8696 71.4 72.0596 71.48C72.7496 71.8 72.9196 72.02 72.9096 72.48C72.9196 72.5931 72.9196 72.7069 72.9096 72.82C72.8596 73.17 72.4596 73.34 71.8396 73.27C70.0185 72.9618 68.2735 72.3066 66.6996 71.34C65.4941 70.6559 64.3258 69.9082 63.1996 69.1L63.1896 69.14Z" fill="#231F20"/>
<path d="M56.2599 38.34C57.7225 35.9639 59.5595 33.8398 61.6999 32.05C62.447 31.3793 63.2316 30.7516 64.0499 30.17C65.5357 29.212 67.126 28.4269 68.7899 27.83C70.4383 27.2212 72.1486 26.7953 73.8899 26.56C75.4286 26.3284 76.9845 26.2314 78.5399 26.27C79.5542 26.2847 80.5624 26.4292 81.5399 26.7C82.022 26.8415 82.4905 27.0255 82.9399 27.25C83.3999 27.45 83.8099 27.76 84.2499 27.98C84.6899 28.2 84.4699 28.72 83.8099 29.04C83.4238 29.2055 83.0261 29.3426 82.6199 29.45C82.1613 29.6272 81.6713 29.7089 81.1799 29.69C80.3099 29.69 79.4899 29.63 78.6499 29.6C78.2299 29.6 77.8099 29.6 77.3999 29.6H76.1299C74.3948 29.7065 72.6737 29.9778 70.9899 30.41C68.9023 31.072 66.9559 32.1164 65.2499 33.49C63.2683 34.9082 61.532 36.6411 60.1099 38.62C59.2233 39.8398 58.4817 41.1587 57.8999 42.55C56.9869 44.659 56.4846 46.9227 56.4199 49.22C56.4903 50.9694 56.7655 52.7046 57.2399 54.39C57.3499 54.75 57.4799 55.11 57.5599 55.48C57.9299 56.86 57.7099 57.42 57.2099 57.94C57.0899 58.06 56.9899 58.2 56.8799 58.29C56.5399 58.58 55.8799 58.17 55.1199 57.17C53.3035 53.8595 52.682 50.0247 53.3599 46.31C53.7956 43.4841 54.7699 40.7683 56.2299 38.31L56.2599 38.34Z" fill="#231F20"/>
<path d="M97.9999 45.06C97.0972 41.731 95.4277 38.6595 93.1252 36.0913C90.8227 33.5231 87.951 31.5295 84.7399 30.27C82.3859 29.3548 79.8855 28.8737 77.3599 28.85C72.8477 28.7425 68.3937 29.8846 64.4899 32.15C60.5464 34.374 57.5704 37.9845 56.1399 42.28C55.0177 46.1535 55.1436 50.2821 56.4999 54.08C57.3332 56.5407 58.5117 58.8706 59.9999 61C61.482 63.1145 63.2071 65.0477 65.1399 66.76C66.3399 67.83 65.9799 68.02 64.5799 67.5C62.28 66.558 60.2838 65.0011 58.8099 63C57.1043 60.7291 55.7368 58.2231 54.7499 55.56C53.7447 52.8611 53.2463 49.9998 53.2799 47.12C53.316 45.6677 53.5037 44.2232 53.8399 42.81C54.9333 38.5379 57.461 34.771 60.9999 32.14C66.5765 27.8878 73.6044 26.0051 80.5599 26.9C86.7249 27.8451 92.2887 31.1291 96.0952 36.0698C99.9018 41.0105 101.658 47.2279 101 53.43C100.601 56.9293 99.5463 60.3219 97.8899 63.43C96.2777 66.6127 93.8654 69.3214 90.8899 71.29C89.7086 72.0333 88.4297 72.6088 87.0899 73C85.7775 73.3532 84.4404 73.6073 83.0899 73.76C80.3899 74.0549 77.6604 73.9267 74.9999 73.38C73.8288 73.15 72.6758 72.8359 71.5499 72.44C67.3799 70.75 66.4399 69.44 65.9799 68.53C65.8652 68.3218 65.7682 68.1044 65.6899 67.88C65.5799 67.35 67.1999 68.1 69.9899 69.22C74.1607 70.9519 78.6979 71.6153 83.1899 71.15C84.3138 71.0169 85.4267 70.803 86.5199 70.51C87.541 70.2191 88.5169 69.7884 89.4199 69.23C91.2967 68.0445 92.9128 66.4896 94.1699 64.66C96.1271 61.8304 97.488 58.6322 98.1699 55.26C98.8678 51.8909 98.7719 48.4056 97.8899 45.08L97.9999 45.06Z" fill="#231F20"/>
<path d="M35.0697 101.13C34.3538 101.494 33.6077 101.795 32.8397 102.03C32.431 102.158 32.0131 102.255 31.5897 102.32C31.296 102.373 30.9981 102.4 30.6997 102.4L30.2097 102.28L29.8697 102.2C28.3095 101.669 26.8761 100.822 25.6597 99.71C24.4243 98.6601 23.4053 97.3796 22.6597 95.94C22.434 95.5003 22.2563 95.0376 22.1297 94.56C22.0597 94.25 21.9597 93.94 21.9097 93.64C22.0597 93.36 22.2097 93.09 22.3797 92.82L23.6097 90.82L25.3597 88.16L27.1597 85.56C31.5297 79.56 36.1597 73.79 40.6197 67.95C42.6197 65.36 44.6197 62.73 46.5197 60.13L50.1797 55.06C51.3797 53.37 52.6097 51.68 53.6697 49.97C54.3097 48.91 54.6697 49.16 54.4597 50.35C54.0853 52.2237 53.3296 54.0005 52.2397 55.57C49.8797 59.16 47.3997 62.63 44.8697 66.08C42.3397 69.53 39.6697 72.85 36.9997 76.21C33.8097 80.21 30.7297 84.59 27.7797 88.89C26.9597 90.07 26.1797 91.27 25.4097 92.47L24.5097 93.94C24.5097 94 24.5097 94.07 24.5097 94.13C24.529 94.22 24.5592 94.3073 24.5997 94.39C24.7124 94.6793 24.8461 94.96 24.9997 95.23C25.6685 96.3827 26.5469 97.4002 27.5897 98.23C28.0977 98.6541 28.6471 99.026 29.2297 99.34C29.5106 99.498 29.8012 99.6383 30.0997 99.76L30.5397 99.91L30.8697 100H31.0197H31.2897L31.8597 99.87C32.2497 99.76 32.6297 99.63 33.0197 99.48C33.7953 99.1452 34.5471 98.7577 35.2697 98.32C36.7497 97.44 38.1697 96.39 39.6597 95.32C44.2097 92.4 48.7997 89.56 53.2797 86.62C56.7697 84.35 60.1297 82.04 63.5597 79.77C64.3097 79.26 65.0497 78.77 65.8097 78.27C68.6697 76.39 69.6797 76 70.5497 76C70.746 75.9834 70.9433 75.9834 71.1397 76C71.6097 76.15 70.6297 77.19 68.6497 78.68C62.7197 83.04 56.3897 87.49 49.8397 91.68L42.5497 96.35C40.1297 97.82 37.9297 99.72 35.1097 101.17L35.0697 101.13Z" fill="#231F20"/>
<path d="M35.1499 107.93C40.3299 106.21 45.6599 104.46 51.3499 104.03C52.3499 103.95 53.4099 103.9 54.4699 103.91C55.5804 103.902 56.6869 104.044 57.7599 104.33C58.3184 104.49 58.8458 104.744 59.3199 105.08C59.9316 105.505 60.3686 106.137 60.5499 106.86C60.6196 107.223 60.6196 107.597 60.5499 107.96C60.516 108.273 60.4386 108.579 60.3199 108.87C60.1245 109.367 59.8728 109.84 59.5699 110.28C58.9821 111.107 58.2504 111.822 57.4099 112.39C56.6349 112.898 55.8338 113.366 55.0099 113.79L50.3499 116.23L48.0499 117.44C47.8659 117.524 47.7022 117.647 47.5699 117.8C47.4975 117.874 47.4477 117.966 47.4264 118.067C47.4052 118.168 47.4133 118.273 47.4499 118.37C47.5381 118.529 47.6748 118.655 47.8399 118.73C48.0648 118.843 48.299 118.937 48.5399 119.01C49.2474 119.217 49.9694 119.371 50.6999 119.47C52.172 119.693 53.6633 119.763 55.1499 119.68C57.0684 119.459 58.9651 119.078 60.8199 118.54L63.6499 117.74C64.5899 117.45 65.5699 117.28 66.5199 117.03C67.7199 116.74 67.6999 117.12 66.8699 117.93C66.3084 118.463 65.7029 118.948 65.0599 119.38C64.1608 119.944 63.1884 120.381 62.1699 120.68C60.1559 121.313 58.0918 121.775 55.9999 122.06C54.8985 122.196 53.7865 122.223 52.6799 122.14C51.6073 122.074 50.5391 121.951 49.4799 121.77C48.923 121.671 48.3721 121.541 47.8299 121.38L47.3999 121.24L46.7999 121C46.3689 120.805 45.9681 120.549 45.6099 120.24C45.2751 119.956 45.0198 119.591 44.869 119.179C44.7182 118.767 44.6772 118.323 44.7499 117.89C44.8299 117.456 45.0077 117.045 45.2699 116.69C45.5312 116.292 45.8716 115.951 46.2699 115.69C46.4661 115.558 46.6697 115.438 46.8799 115.33L47.2599 115.14L47.9399 114.8L49.3099 114.12L51.9999 112.78C54.1899 111.68 56.5699 110.78 57.6199 108.99C57.8871 108.612 58.0742 108.183 58.1699 107.73C58.1948 107.621 58.1861 107.508 58.1451 107.404C58.104 107.301 58.0324 107.212 57.9399 107.15C57.5621 106.908 57.141 106.742 56.6999 106.66C56.1503 106.537 55.5919 106.456 55.0299 106.42C49.7999 106.12 44.4499 107.42 39.2699 109.08C36.0599 110.08 32.8699 111.22 29.6299 112.26C27.1559 113.047 24.6341 113.675 22.0799 114.14C20.7934 114.378 19.4947 114.545 18.1899 114.64C16.8528 114.753 15.5065 114.679 14.1899 114.42C13.6371 114.297 13.105 114.095 12.6099 113.82C12.059 113.516 11.6023 113.066 11.2899 112.52C10.9787 111.968 10.8167 111.344 10.8199 110.71C10.8436 110.127 10.9549 109.55 11.1499 109C11.961 107.068 13.1905 105.34 14.7499 103.94C15.3805 103.31 16.0484 102.719 16.7499 102.17C19.3999 100.17 20.6199 99.88 21.5099 100.17C21.7111 100.22 21.8967 100.32 22.0499 100.46C22.1199 100.56 22.0499 100.66 22.0499 100.77C21.9344 100.917 21.7999 101.048 21.6499 101.16L19.6499 102.7C18.3322 103.742 17.1107 104.9 15.9999 106.16C15.4451 106.789 14.9371 107.457 14.4799 108.16C14.0509 108.774 13.714 109.448 13.4799 110.16C13.3853 110.362 13.3362 110.582 13.3362 110.805C13.3362 111.028 13.3853 111.248 13.4799 111.45C13.7917 111.831 14.2332 112.084 14.7199 112.16C16.3311 112.456 17.9808 112.48 19.5999 112.23C22.2385 111.896 24.8443 111.341 27.3899 110.57C29.9399 109.8 32.5499 108.85 35.1499 107.96V107.93Z" fill="#231F20"/>
<path d="M64.7801 41.6C64.9611 43.2207 65.3302 44.8147 65.8801 46.35C66.0701 46.93 66.4101 47.44 66.6201 48C67.4311 49.9964 68.5148 51.8709 69.8401 53.57C70.1413 53.934 70.4761 54.2688 70.8401 54.57C71.1771 54.9096 71.5417 55.2207 71.9301 55.5L72.6601 56.05L73.4201 56.55C73.9001 56.92 74.4201 57.19 74.9301 57.55C75.2401 57.78 75.0801 58.1 74.6101 58.31C73.9696 58.5745 73.2505 58.5745 72.6101 58.31C71.9622 58.038 71.3426 57.703 70.7601 57.31L69.9101 56.69L69.1301 55.99C68.1025 55.0525 67.2076 53.9793 66.4701 52.8C66.0401 52.09 65.5801 51.4 65.1101 50.69C64.6561 49.9788 64.2518 49.237 63.9001 48.47C63.1263 46.7905 62.5556 45.0247 62.2001 43.21C62.0753 42.6528 61.9851 42.0884 61.9301 41.52L61.8201 40.67V39.81C61.7327 38.058 61.9216 36.3032 62.3801 34.61C62.7029 33.2379 63.2466 31.9275 63.9901 30.73C64.1467 30.4775 64.3169 30.2339 64.5001 30C65.3501 29.13 65.8601 29.11 66.5001 29.67C66.6525 29.7896 66.7962 29.9199 66.9301 30.06C67.1126 30.3001 67.2114 30.5934 67.2114 30.895C67.2114 31.1966 67.1126 31.4899 66.9301 31.73C65.8683 33.315 65.1685 35.1142 64.8801 37C64.6446 38.5343 64.6446 40.0956 64.8801 41.63L64.7801 41.6Z" fill="#231F20"/>
<path d="M82.24 36.65C81.9957 36.3675 81.653 36.1885 81.2815 36.1495C80.9101 36.1105 80.5377 36.2144 80.24 36.44C77.59 39 85.39 39.91 82.24 36.65Z" fill="#231F20"/>
<path d="M90.3396 39.24C90.0967 38.9554 89.7537 38.7748 89.3815 38.7358C89.0094 38.6967 88.6364 38.802 88.3396 39.03C85.6896 41.55 93.4896 42.5 90.3396 39.24Z" fill="#231F20"/>
<path d="M87.6099 50.62C87.3669 50.3354 87.024 50.1549 86.6518 50.1158C86.2796 50.0767 85.9066 50.182 85.6099 50.41C82.9999 52.92 90.7599 53.87 87.6099 50.62Z" fill="#231F20"/>
<path d="M48.6598 65.88C48.8011 66.6847 49.0712 67.4613 49.4598 68.18C49.6149 68.469 49.7956 68.7434 49.9998 69C50.6122 69.975 51.3372 70.8745 52.1598 71.68C52.536 72.0529 52.948 72.3879 53.3898 72.68C53.9398 73.04 54.5098 73.38 55.0298 73.79C55.1898 73.92 55.0998 74.16 54.8198 74.35C54.6528 74.4745 54.4612 74.562 54.2577 74.6069C54.0543 74.6517 53.8437 74.6528 53.6398 74.61C52.1649 74.2038 50.8516 73.3515 49.8798 72.17C49.5911 71.8206 49.284 71.4868 48.9598 71.17C48.6498 70.82 48.3398 70.47 48.0498 70.09C47.4513 69.233 46.9891 68.2885 46.6798 67.29C46.5752 66.9835 46.495 66.6692 46.4398 66.35L46.3298 65.35C46.2898 64.8642 46.2898 64.3759 46.3298 63.89C46.3298 63.4 46.5198 62.94 46.5798 62.47C46.6398 62 46.7598 61.76 46.8298 61.4C46.9064 61.054 47.0239 60.7183 47.1798 60.4C47.2498 60.26 47.3098 60.11 47.3898 59.97C47.7098 59.46 47.9498 59.39 48.3898 59.52C48.4882 59.544 48.5851 59.5741 48.6798 59.61C48.8288 59.7044 48.9452 59.8424 49.0132 60.0052C49.0812 60.1679 49.0974 60.3477 49.0598 60.52C49.0237 60.8096 48.9703 61.0968 48.8998 61.38C48.8298 61.66 48.8998 61.96 48.7998 62.22C48.6752 62.7262 48.5883 63.241 48.5398 63.76C48.5398 64.14 48.5398 64.51 48.5398 64.89C48.5398 65.27 48.6498 65.64 48.7398 66.02L48.6598 65.88Z" fill="#231F20"/>
<path d="M85.4299 20.62C85.6599 20.75 85.5199 21.03 85.1999 21.43C85.0394 21.5918 84.8395 21.709 84.6199 21.77C84.4454 21.7237 84.2748 21.6635 84.1099 21.59C83.6641 21.0912 83.2563 20.5597 82.8899 20C82.6266 19.6282 82.4179 19.2208 82.2699 18.79C81.9499 17.93 81.6499 17.08 81.3999 16.23C81.3487 16.0374 81.3219 15.8392 81.3199 15.64C81.3163 14.9631 81.2187 14.29 81.0299 13.64C81.0172 13.5274 80.968 13.422 80.8899 13.34C80.6237 12.6576 80.4586 11.94 80.3999 11.21C80.3999 10.62 80.5099 10.04 80.5299 9.45997C80.5299 9.37997 80.5299 9.29997 80.5299 9.20997C80.5916 9.13414 80.6331 9.04396 80.6505 8.94781C80.668 8.85165 80.6609 8.75264 80.6299 8.65997C80.6149 8.41353 80.6149 8.1664 80.6299 7.91997C80.673 7.78128 80.73 7.64727 80.7999 7.51997C80.8599 7.38997 81.1499 7.37997 81.1899 7.40997C81.2299 7.43997 81.4199 7.40997 81.5299 7.33997H81.6499C82.0323 7.77319 82.3675 8.24584 82.6499 8.74997L83.0199 9.79997C83.2299 10.32 83.3699 10.88 83.4199 10.98C83.4442 11.1055 83.4442 11.2345 83.4199 11.36C83.4199 11.42 83.9099 12.98 83.9199 13.04C84.0244 13.3628 84.0451 13.7069 83.9799 14.04C83.9592 14.105 83.9592 14.1749 83.9799 14.24C84.1129 14.7926 84.2065 15.354 84.2599 15.92C84.3053 16.2013 84.3721 16.4788 84.4599 16.75C84.47 16.8062 84.47 16.8638 84.4599 16.92C84.4502 16.9863 84.4502 17.0537 84.4599 17.12C84.6341 17.7685 84.8719 18.3982 85.1699 19C85.2332 19.339 85.32 19.6731 85.4299 20C85.4799 20.14 85.3399 20.58 85.4299 20.62Z" fill="#231F20"/>
<path d="M99.53 21.1399C99.53 21.3699 99.22 21.2899 98.72 21.0199C98.492 20.8738 98.2893 20.6914 98.12 20.4799C98.0687 20.323 98.0286 20.1626 98 19.9999C98 19.9099 98.37 19.0599 98.47 18.7599C98.5761 18.48 98.7282 18.2198 98.92 17.9899C99.28 17.5199 99.61 16.9899 99.92 16.5299C99.9983 16.4165 100.097 16.3183 100.21 16.2399C100.595 15.9723 100.904 15.6109 101.11 15.1899C101.11 15.1199 101.21 15.0699 101.18 14.9599C101.348 14.4656 101.629 14.0172 102 13.6499C102.367 13.4162 102.721 13.1625 103.06 12.8899C103.11 12.8899 103.12 12.7899 103.23 12.7899C103.34 12.7899 103.52 12.6899 103.61 12.5899C103.742 12.4612 103.89 12.3503 104.05 12.2599C104.162 12.2159 104.28 12.1889 104.4 12.1799C104.51 12.1799 104.71 12.3299 104.72 12.3699C104.73 12.4099 104.89 12.4999 104.99 12.5599L105.09 12.6199C105.15 13.0646 105.15 13.5153 105.09 13.9599L104.78 14.6999C104.63 15.0699 104.48 15.4599 104.45 15.5499C104.42 15.6399 104.34 15.6899 104.26 15.7399C104.18 15.7899 103.73 16.8699 103.69 16.9099C103.53 17.0999 103.46 17.3599 103.15 17.4399C103.126 17.4501 103.105 17.4652 103.088 17.4841C103.071 17.5031 103.058 17.5255 103.05 17.5499C102.811 17.9099 102.536 18.245 102.23 18.5499C102.091 18.72 101.961 18.8968 101.84 19.0799C101.84 19.0799 101.77 19.1299 101.73 19.1499C101.684 19.1746 101.643 19.2086 101.61 19.2499C101.271 19.6459 100.954 20.0598 100.66 20.4899C100.61 20.5999 100.05 20.8799 99.99 21.0099C99.93 21.1399 99.53 21.0499 99.53 21.1399Z" fill="#231F20"/>
<path d="M107.67 36.18C107.57 36.36 107.35 36.18 107.09 35.71C106.977 35.4911 106.902 35.2543 106.87 35.01C106.903 34.867 106.947 34.7266 107 34.59C107 34.52 107.73 34 108 33.79C108.218 33.6144 108.46 33.4728 108.72 33.37L110.29 32.66C110.41 32.6066 110.539 32.5793 110.67 32.58C111.122 32.5458 111.562 32.4163 111.96 32.2C112.03 32.2 112.1 32.15 112.14 32.04C112.18 31.93 113.39 31.48 113.58 31.52C114.02 31.58 114.44 31.58 114.86 31.62C114.92 31.62 114.98 31.62 115.05 31.67C115.12 31.72 115.33 31.8 115.46 31.81C115.643 31.8128 115.824 31.8397 116 31.89C116.105 31.943 116.2 32.014 116.28 32.1C116.37 32.17 116.38 32.46 116.36 32.5C116.34 32.54 116.36 32.73 116.36 32.84C116.365 32.8832 116.365 32.9268 116.36 32.97C116.24 33.1312 116.109 33.2848 115.97 33.43C115.847 33.6045 115.699 33.7595 115.53 33.89L114.9 34.18C114.59 34.34 114.27 34.51 114.21 34.56C114.15 34.61 114.06 34.56 113.98 34.56C113.9 34.56 112.98 35.1 112.98 35.1C112.77 35.1 112.59 35.3 112.31 35.18C112.31 35.18 112.22 35.18 112.18 35.18C111.819 35.3207 111.443 35.4213 111.06 35.48C110.87 35.5395 110.683 35.6096 110.5 35.69C110.46 35.695 110.42 35.695 110.38 35.69H110.24C109.782 35.8329 109.331 35.9998 108.89 36.19C108.8 36.25 108.21 36.19 108.1 36.27C107.99 36.35 107.71 36.11 107.67 36.18Z" fill="#231F20"/>
</svg>
