<svg width="128" height="128" viewBox="0 0 128 128" fill="none" xmlns="http://www.w3.org/2000/svg">
<path d="M33.4998 99.87C32.5098 101.38 31.5798 102.93 30.7398 104.53C30.4298 105.11 30.1898 105.73 29.8998 106.32C28.8598 108.39 27.8998 110.52 27.1998 112.73C26.8898 113.68 26.7298 114.69 26.8298 115.59C26.8898 116.17 27.0498 116.69 27.3598 117.05C27.4298 117.14 27.5098 117.23 27.6098 117.3C27.6798 117.4 27.7898 117.48 27.8998 117.56C28.1098 117.74 28.3798 117.81 28.6598 118.01C28.8198 118.24 28.9198 118.33 28.9098 118.34C28.9098 118.36 28.8098 118.34 28.5998 118.51C28.3898 118.7 28.0998 118.78 27.6798 118.84C27.2898 118.87 26.7098 118.86 26.2698 118.47C25.4798 117.82 25.0598 116.85 24.9198 116.01C24.7998 115.15 24.8798 114.36 25.0098 113.6C25.1398 112.83 25.3798 112.14 25.5998 111.48C25.8198 110.81 26.0998 110.16 26.3698 109.51C27.0698 107.97 27.5898 106.31 28.3498 104.77C29.1798 103.08 30.0898 101.43 31.0598 99.83C31.6598 98.85 32.2798 97.88 32.9198 96.92C33.8798 95.47 34.9098 94.05 35.9098 92.65C36.6698 91.55 37.3698 90.42 38.1598 89.34C38.3298 89.1 38.5198 88.88 38.7098 88.66C39.4798 87.88 39.8298 87.72 40.2998 87.82C40.4098 87.84 40.5198 87.85 40.6098 87.89C40.9098 88.01 40.8298 88.53 40.4798 89.26C40.1898 89.78 39.9798 90.37 39.6498 90.86C39.3198 91.36 38.9898 91.86 38.6598 92.37C37.9698 93.36 37.2698 94.35 36.5698 95.36C35.5298 96.84 34.4898 98.35 33.5398 99.9L33.4898 99.88L33.4998 99.87Z" fill="#231F20"/>
<path d="M87.3801 106.6C60.7201 106.6 65.9701 87.08 68.7301 85.95H53.7001C53.7001 85.95 36.2701 109.1 37.3901 111.74C38.5101 114.38 72.9601 113.73 72.9601 113.73L89.1801 111.74L87.3801 106.6Z" fill="#231F20"/>
<path d="M62.2201 38.59C63.1801 38.76 64.1601 38.9 65.1401 39C65.5001 39.04 65.8601 39 66.2201 39.03C67.4901 39.14 68.7701 39.37 70.0501 39.43C70.6201 39.48 71.1901 39.39 71.7501 39.41C72.4701 39.41 73.1901 39.3 73.9301 39.5C74.1601 39.58 74.1701 39.76 74.0201 40.08C73.8701 40.42 73.5501 40.87 73.1301 41.02C71.6501 41.61 70.1301 41.68 68.5901 41.5C67.6701 41.4 66.7301 41.54 65.7901 41.49C64.7601 41.44 63.7301 41.35 62.7101 41.23C62.0801 41.17 61.4501 41.06 60.8201 40.99C59.8601 40.86 58.9101 40.66 57.9501 40.53C57.2001 40.41 56.4301 40.45 55.6401 40.31C55.4701 40.28 55.2901 40.3 55.1101 40.24C54.4601 40.02 54.3301 39.76 54.5501 39.04C54.6001 38.88 54.6401 38.71 54.7001 38.55C54.9201 38.02 55.3401 37.68 55.7401 37.68C56.9201 37.64 58.0801 37.88 59.3501 38.07C60.2801 38.22 61.2401 38.4 62.2101 38.51V38.57L62.2201 38.59Z" fill="#231F20"/>
<path d="M65.1001 26.72C65.0301 27.04 68.7301 26.72 68.7301 32.06C68.7301 36.66 65.9701 37.4 65.9701 37.4L77.8801 36.64L77.1001 27.96L65.1001 26.72Z" fill="#231F20"/>
<path d="M105.13 119.85C104.87 120.08 104.53 120.2 104.23 120.38C103.91 120.53 103.75 120.58 103.52 120.67C103.1 120.81 102.69 120.94 102.3 121.04C101.51 121.25 100.74 121.41 99.9798 121.55C98.4598 121.82 96.9598 122.01 95.4598 122.18C92.4698 122.49 89.4998 122.73 86.5198 122.9C80.5798 123.24 74.6498 123.38 68.7198 123.39C64.3898 123.4 60.0698 123.42 55.7398 123.27C50.2398 123.07 44.7298 122.74 39.2398 122.16C36.4898 121.86 33.7398 121.5 30.9898 120.98C29.6098 120.71 28.2398 120.4 26.8598 119.97C26.1698 119.73 25.4698 119.5 24.7698 119.14C24.4198 118.95 24.0598 118.76 23.6998 118.48C23.3498 118.24 22.9298 117.78 22.6798 117.31C21.9998 115.87 22.1998 114.56 22.4198 113.41C22.6498 112.24 23.0798 111.21 23.5098 110.18C24.4198 108.17 25.4998 106.31 26.6298 104.49C30.2798 98.73 34.3298 93.29 38.2098 87.85C43.2498 80.89 48.0298 73.8 52.5898 66.64C53.3698 65.55 53.7198 65.06 53.7598 65.12C53.7998 65.18 53.5898 65.79 53.3998 66.96C53.1898 68.12 52.7298 69.72 52.0898 71.63C51.7698 72.59 51.3098 73.56 50.8298 74.61C50.5698 75.12 50.3098 75.65 50.0398 76.19C49.7398 76.71 49.4098 77.23 49.0798 77.76C46.9298 81.12 44.6598 84.36 42.3698 87.58C40.0498 90.75 37.7198 93.93 35.3998 97.1C33.1098 100.27 30.8198 103.45 28.7898 106.72C27.7898 108.35 26.8298 110.02 26.0998 111.69C25.9298 112.11 25.7398 112.53 25.6098 112.93L25.3998 113.55L25.2598 114.14C25.0898 114.89 25.0898 115.66 25.2398 115.97C25.2798 116 25.2698 116.04 25.3098 116.07C25.3298 116.13 25.4998 116.22 25.5798 116.3C25.8498 116.47 26.1598 116.65 26.5198 116.81C27.2298 117.13 28.0498 117.4 28.8698 117.63C31.2998 118.31 33.8998 118.76 36.5298 119.09C39.1598 119.43 41.8398 119.66 44.5298 119.84C49.9098 120.2 55.3398 120.35 60.7298 120.43C66.6498 120.52 72.5798 120.48 78.5098 120.28C84.4198 120.06 90.3598 119.78 96.1798 118.97C97.9598 118.72 99.7498 118.42 101.41 117.96C101.82 117.84 102.23 117.72 102.58 117.57C102.78 117.49 102.83 117.46 102.94 117.41C103.03 117.35 103.13 117.3 103.2 117.22C103.49 116.84 103.42 116.52 103.23 115.63C102.81 114.05 102.01 112.41 101.2 110.83C100.37 109.24 99.4598 107.67 98.5198 106.12C92.7498 96.74 86.2398 87.69 79.9498 78.64C78.7298 76.88 77.5098 75.13 76.3198 73.35C75.7298 72.46 75.1398 71.57 74.5698 70.65C73.9998 69.72 73.4498 68.81 72.9698 67.72C72.4498 66.42 72.4598 65.37 72.3198 64.28C72.2198 63.2 72.1498 62.14 72.0898 61.07C71.9798 58.94 71.9198 56.82 71.8698 54.7C71.8298 52.83 71.7898 51 71.7898 49.12C71.7898 45.63 71.9598 43.33 72.1498 41.72C72.2498 40.91 72.3698 40.28 72.5198 39.76C72.6898 39.24 72.8898 38.82 73.0798 38.46C73.2598 38.13 73.4198 37.68 73.5598 37.49C73.9298 36.84 74.6298 39.69 74.7198 44.78C74.8298 48.55 74.9398 52.36 75.0498 56.22C75.1198 58.14 75.2098 60.07 75.3298 61.98C75.3898 62.93 75.4698 63.89 75.5698 64.79L75.6498 65.46L75.7598 66.04C75.7998 66.29 75.8098 66.24 75.8798 66.44C75.9398 66.58 76.0198 66.77 76.1198 66.95C76.8998 68.48 77.9998 70.14 79.0698 71.75C80.1598 73.37 81.2898 74.99 82.4298 76.61C84.7298 79.85 87.0398 83.11 89.3498 86.37C92.7998 91.22 96.1998 96.14 99.4298 101.23C101.04 103.78 102.62 106.36 104.06 109.09C104.78 110.46 105.46 111.86 106.04 113.43C106.32 114.23 106.59 115.03 106.71 116.12C106.87 117.59 106.42 119.09 105.2 119.89L105.13 119.85Z" fill="#231F20"/>
<path d="M55.8802 50.58L55.7102 56.09C55.6902 56.76 55.7502 57.43 55.7202 58.1C55.6402 60.46 55.4202 62.81 55.3502 65.16C55.2902 66.2 55.2702 67.25 55.2802 68.29C55.2902 68.95 55.3102 69.62 55.2402 70.29C55.2102 70.62 55.2002 70.96 55.1302 71.29C55.0502 71.62 54.9802 71.95 54.9002 72.3C54.7902 72.72 54.7202 72.67 54.5002 72.32C54.3402 72.08 54.1702 71.83 54.0202 71.61C53.8002 71.31 53.6102 70.97 53.5402 70.58C52.9502 67.87 52.8502 65.14 53.1402 62.39C53.2902 60.75 53.1402 59.04 53.2002 57.36L53.3402 51.83C53.3702 50.7 53.3902 49.56 53.3902 48.43C53.3902 46.71 53.4102 44.99 53.3102 43.29C53.2402 41.97 52.9602 40.68 52.8402 39.38C52.8102 39.09 52.7502 38.82 52.7902 38.52C52.8502 37.44 53.1502 37.08 53.5202 36.82C53.6102 36.76 53.6902 36.69 53.7702 36.65C54.0202 36.53 54.3502 36.95 54.7402 37.72L55.1002 38.59C55.2202 38.88 55.2602 39.18 55.3302 39.48C55.4702 40.08 55.5502 40.68 55.6202 41.3C55.7502 42.52 55.8302 43.77 55.8702 45.02C55.9402 46.87 55.9302 48.74 55.9402 50.59H55.8802V50.58Z" fill="#231F20"/>
<path d="M65.86 115.38C58.9 115.26 51.96 114.97 45.01 114.36L41.18 114.02C40.54 113.96 39.89 113.9 39.23 113.8C38.25 113.65 36.96 113.42 36.42 112.75L36.22 112.48C36.22 112.48 36.17 112.37 36.1 112.34L36.04 112.18C36.02 111.96 36.02 111.78 36 111.58C36 111.38 36.04 111.16 36.06 110.95C36.12 110.53 36.33 110.07 36.47 109.64C36.69 109.13 36.76 108.97 36.89 108.69L37.26 107.93C37.76 106.92 38.29 105.95 38.83 104.98C39.9 103.05 41.03 101.16 42.16 99.28C44.44 95.53 46.78 91.82 49.23 88.17C49.79 87.34 50.34 86.52 50.94 85.69C51.1 85.48 51.24 85.28 51.41 85.06C51.63 84.76 51.9 84.5 52.19 84.28C52.5 84.09 52.88 84.01 53.23 83.95C53.59 83.9 53.81 83.87 54.08 83.86C56.14 83.73 58.11 83.75 60.08 83.76C62.61 83.79 65.14 83.82 67.67 83.91C68.93 83.96 70.19 84.05 71.45 84.15L73.34 84.33C73.97 84.41 74.59 84.56 75.21 84.7C76.76 85.12 76.53 85.37 75.17 85.94C74.49 86.21 73.52 86.66 72.37 86.83C71.22 87.04 69.88 87.18 68.43 87.14L60.77 86.84C59.5 86.8 58.23 86.77 56.97 86.75C56.34 86.75 55.72 86.75 55.11 86.75C54.8 86.75 54.52 86.77 54.22 86.78C54.06 86.78 53.95 86.8 53.83 86.81C53.74 86.81 53.77 86.81 53.75 86.81C53.74 86.81 53.72 86.81 53.71 86.82C53.7 86.83 53.72 86.8 53.68 86.85L53.55 87.01L53.28 87.36L52.19 88.88L50.03 92.04C48.62 94.18 47.2 96.33 45.78 98.48C44.4 100.61 43.07 102.83 41.8 105.09C41.17 106.22 40.54 107.36 39.96 108.5C39.67 109.07 39.39 109.65 39.14 110.21C39.03 110.48 38.95 110.62 38.93 110.85C38.98 111.03 39.23 111.02 39.38 111.08L39.79 111.16L40.59 111.3C42.26 111.6 43.99 111.76 45.71 111.9C47.43 112.04 49.17 112.15 50.9 112.25C54.37 112.44 57.84 112.58 61.32 112.65C65.6 112.74 69.88 112.77 74.15 112.66C76.58 112.6 79 112.5 81.41 112.31C82.61 112.22 83.81 112.1 84.99 111.93C86.11 111.78 87.54 111.49 87.98 111.29C88.09 111.25 88.2 111.2 88.29 111.13C88.36 111.03 88.34 110.91 88.33 110.79C88.29 110.56 88.21 110.34 88.13 110.13C87.89 109.52 87.54 108.72 87.15 108.06C84.86 103.66 82.23 99.49 79.73 95.2C79.18 94.25 78.61 93.34 78.08 92.37C77.07 90.58 76.58 89.29 76.29 88.37C76 87.44 76.03 86.82 76.18 86.27C76.25 86.02 76.28 85.72 76.37 85.56C76.62 85.05 77.79 86.31 79.35 88.81C81.49 92.28 83.64 95.89 85.81 99.59C86.88 101.45 87.95 103.33 88.98 105.28C89.21 105.78 89.54 106.24 89.69 106.79L89.98 107.59L90.34 108.38L90.51 108.79C90.57 108.94 90.61 109.03 90.72 109.32C90.91 109.83 91.07 110.34 91.15 110.85C91.23 111.36 91.19 111.82 91.02 112.26C90.93 112.48 90.81 112.69 90.65 112.85C90.52 113.03 90.34 113.17 90.14 113.31C89.59 113.61 88.99 113.84 88.34 114.02C87.97 114.13 87.86 114.14 87.66 114.19L87.12 114.31C83.45 114.99 79.95 115.14 76.41 115.28C72.88 115.4 69.36 115.42 65.85 115.39V115.32L65.86 115.38Z" fill="#231F20"/>
<path d="M65.9802 71.13C65.9802 72.58 64.8002 73.76 63.3502 73.76C61.9002 73.76 60.7202 72.58 60.7202 71.13C60.7202 67.78 65.9802 67.71 65.9802 71.13Z" fill="#231F20"/>
<path d="M36.0598 42.87C36.0598 44.32 34.8798 45.5 33.4298 45.5C31.9798 45.5 30.7998 44.32 30.7998 42.87C30.7998 39.52 36.0598 39.45 36.0598 42.87Z" fill="#231F20"/>
<path d="M93.6702 25.29C93.7802 26.25 93.5302 27.26 92.7902 28C92.5402 28.26 92.2202 28.53 91.8702 28.64C90.6102 29.03 89.4402 28.46 88.8902 27.5C88.6602 27.06 88.5202 26.62 88.5802 26.11C88.6102 25.79 88.8302 25.44 89.1402 25.26C89.4402 25.08 89.8302 25.06 90.1202 25.26C90.2902 25.4 90.1402 25.48 90.0002 25.64C89.9302 25.72 89.8702 25.84 89.8702 25.96C89.8502 26.07 89.9202 26.23 89.9202 26.22C89.9202 26.22 89.9202 26.22 89.9102 26.21L89.8902 26.19H89.8802V26.18L90.0102 26.26C90.0102 26.26 90.1102 26.31 90.2002 26.32C90.3302 26.34 90.3002 26.32 90.3102 26.35L90.3402 26.4C90.3402 26.4 90.3802 26.52 90.5202 26.68C90.6902 26.88 90.9902 26.77 91.0902 26.7C91.2302 26.66 91.4202 26.41 91.4402 26.07C91.4602 25.86 91.4202 25.64 91.3302 25.46C91.2002 25.21 90.9502 25.01 90.6102 25.05C90.3502 25.07 90.1402 25.32 90.0402 25.51C90.0102 25.55 90.0102 25.61 89.9902 25.64C89.8702 25.71 89.7002 25.62 89.1702 25.35L88.8102 25.18C88.4102 25 88.1502 24.63 88.2702 24.19C88.4402 23.53 89.0002 23.07 89.6202 22.8C90.2502 22.52 91.0302 22.49 91.7702 22.78C92.3102 22.98 92.8302 23.37 93.1602 23.84C93.5002 24.31 93.6802 24.81 93.7602 25.3H93.7002L93.6702 25.29Z" fill="#231F20"/>
<path d="M76.69 16.46C76.34 16.9 75.89 17.26 75.36 17.49C74.83 17.73 74.2 17.77 73.68 17.67C73.3 17.6 72.93 17.51 72.62 17.3C71.54 16.63 71.07 15.16 71.52 14.1C71.7 13.64 72.02 13.27 72.37 13C72.8 12.64 73.4 12.46 73.93 12.6C74.09 12.64 74.06 12.72 73.94 12.85C73.82 12.96 73.66 13.21 73.53 13.39C73.28 13.68 73.17 14.04 73.17 14.31C73.17 14.58 73.09 14.68 73.09 14.9C73.09 15.18 73.46 15.38 73.71 15.48C74.01 15.59 74.23 15.6 74.52 15.38C74.68 15.24 74.83 15.03 74.88 14.81C74.95 14.48 74.9 14.16 74.59 14C74.35 13.87 74 14 73.85 14.15C73.81 14.18 73.79 14.24 73.77 14.26C73.71 14.32 73.55 14.01 73.12 13.55L72.83 13.24C72.67 13.07 72.56 12.89 72.53 12.66C72.49 12.43 72.53 12.13 72.72 11.92C73.96 10.8 76.04 11.21 77.02 12.87C77.38 13.49 77.49 14.21 77.41 14.84C77.33 15.47 77.09 16.01 76.76 16.49L76.71 16.46H76.69Z" fill="#231F20"/>
<path d="M69.06 59.56C68.2 60.13 67.15 60.45 66.04 60.27C65.64 60.24 65.23 60.12 64.87 59.93C64.58 59.73 64.34 59.47 64.12 59.23C63.95 58.97 63.81 58.7 63.68 58.45C63.37 57.85 63.36 57.16 63.53 56.63C63.67 56.15 63.85 55.72 64.13 55.34C64.31 55.1 64.52 54.88 64.8 54.73C65.08 54.59 65.42 54.57 65.7 54.64C65.88 54.69 65.84 54.83 65.76 55.05C65.66 55.25 65.62 55.64 65.62 55.84C65.54 56.1 65.54 56.36 65.58 56.59C65.61 56.83 65.71 56.94 65.61 57.08C65.58 57.11 65.61 57.18 65.66 57.24C65.71 57.3 65.76 57.37 65.81 57.42C65.93 57.45 66.03 57.51 66.11 57.53C66.27 57.63 66.6 57.67 66.98 57.51C67.21 57.43 67.43 57.26 67.56 57.12C67.78 56.9 67.94 56.52 67.76 56.22C67.62 55.98 67.24 55.96 67.04 55.99C67 55.99 66.92 56.01 66.86 55.99C66.63 55.92 66.64 55.73 66.75 55.05L66.82 54.59C66.9 54.08 67.18 53.71 67.62 53.65C67.94 53.63 68.27 53.51 68.64 53.72C68.82 53.79 69.01 53.88 69.19 53.97C69.28 54.02 69.38 54.06 69.47 54.11L69.69 54.32L70.12 54.76C70.27 54.9 70.32 55.11 70.43 55.29C70.67 55.65 70.66 56.07 70.72 56.49C70.72 56.8 70.66 57.11 70.62 57.41C70.53 57.71 70.4 57.99 70.28 58.28C70.12 58.55 69.92 58.8 69.75 59.06C69.56 59.29 69.33 59.43 69.13 59.62L69.08 59.57L69.06 59.56Z" fill="#231F20"/>
<path d="M97.4902 9.11999C97.3802 12.96 91.4702 13.05 91.4702 9.11999C91.4702 6.88999 93.9702 5.47999 95.9402 6.47999C97.0402 7.04999 97.5202 8.07999 97.4902 9.11999Z" fill="#231F20"/>
<path d="M78.9798 29.34C79.1998 30.36 79.3198 31.3 79.3898 32.3C79.4498 33.3 79.4598 34.3 79.2598 35.41C79.1898 35.7 79.1598 35.96 79.0498 36.27C78.9598 36.57 78.8498 36.83 78.6398 37.21C78.4198 37.56 78.1598 37.89 77.8398 38.12C77.6798 38.24 77.4898 38.32 77.2998 38.4C77.1198 38.49 76.9198 38.55 76.7298 38.6C75.6698 38.85 74.7698 38.93 73.8298 39.03C72.4698 39.16 71.1298 39.32 69.7898 39.37C65.0498 39.54 60.3398 39.52 55.5998 39.18C54.6698 39.11 53.7398 39.04 52.7998 38.91C52.3298 38.85 51.8598 38.78 51.3698 38.67C50.8798 38.54 50.3898 38.48 49.7598 38.04L49.3598 37.62C49.2498 37.46 49.1598 37.3 49.0798 37.15C48.6998 36.36 48.6098 35.62 48.5498 34.9C48.4998 34.18 48.5098 33.47 48.5798 32.77C48.6398 32.07 48.7598 31.38 48.9698 30.71C49.1698 30.04 49.3898 29.37 49.7398 28.75C50.2698 27.99 50.4698 28.28 50.6798 29.09C50.8798 29.9 51.1498 31.19 51.0498 32.57C50.9698 33.36 50.9298 34.15 50.9898 34.87C51.0098 35.24 51.0798 35.56 51.1498 35.84C51.1898 35.95 51.2298 36.09 51.2698 36.14C51.2898 36.18 51.2698 36.16 51.2698 36.17C51.1498 36.14 51.5698 36.29 51.9098 36.37C52.2898 36.46 52.6998 36.53 53.1298 36.59C53.9798 36.72 54.8698 36.8 55.7698 36.87C57.5598 37.02 59.3898 37.11 61.2298 37.2C64.4698 37.35 67.8498 37.11 71.1398 36.87C72.0498 36.81 72.9498 36.73 73.8398 36.63C74.2898 36.58 74.7298 36.53 75.1598 36.46C75.3798 36.43 75.5898 36.39 75.7898 36.35C75.8998 36.33 75.9898 36.31 76.0798 36.28C76.1598 36.26 76.1898 36.26 76.2298 36.24C76.4198 36.19 76.4998 36.06 76.6098 35.83C76.7098 35.52 76.7998 35.17 76.8298 34.77C76.8998 33.98 76.8498 33.11 76.7498 32.25C76.6898 31.76 76.6098 31.26 76.5098 30.77C76.4598 30.52 76.4098 30.28 76.3498 30.05C76.3098 29.92 76.2998 29.78 76.2298 29.67C76.1098 29.55 76.0698 29.5 75.8398 29.36C75.6398 29.24 75.3998 29.14 75.1498 29.04C74.6498 28.85 74.1098 28.69 73.5498 28.57C70.3498 27.9 66.9198 27.61 63.5698 27.64C60.9598 27.68 58.4098 28.02 55.9098 28.47C55.3598 28.57 54.8398 28.71 54.2998 28.82C52.2898 29.25 51.8298 29.3 51.0698 28.68C50.8998 28.55 50.6898 28.45 50.5398 28.32C50.2898 28.1 50.2798 27.78 50.6098 27.33C50.9198 26.91 51.5498 26.5 52.3498 26.21C54.7498 25.35 57.2098 24.97 59.7098 24.74C62.2098 24.52 64.7498 24.49 67.2998 24.63C69.0598 24.72 70.8398 24.88 72.6298 25.28C73.5298 25.48 74.4298 25.7 75.3598 26.03C75.8298 26.2 76.2998 26.39 76.7998 26.64C77.0698 26.8 77.2998 26.9 77.5798 27.12C77.9398 27.35 78.2298 27.67 78.4998 27.97C78.7698 28.38 78.9398 28.85 79.0398 29.31L78.9798 29.34Z" fill="#231F20"/>
</svg>
