<svg width="128" height="128" viewBox="0 0 128 128" fill="none" xmlns="http://www.w3.org/2000/svg">
<path d="M9.13981 38.29C9.46981 36.83 9.79981 35.39 10.4298 33.88C10.6698 33.32 10.8598 32.82 11.1598 32.33C12.1498 30.59 13.6898 29.08 15.4898 28.17C16.2898 27.78 17.0898 27.38 17.9498 27.21C19.0298 26.96 20.1498 26.89 21.2198 27.03C21.5598 27.07 21.5098 27.19 21.2398 27.38C20.9698 27.56 20.4898 27.88 19.9398 28.09C19.4498 28.27 18.9798 28.47 18.5298 28.7C18.2998 28.8 18.0998 28.95 17.8798 29.04C17.6498 29.11 17.4398 29.23 17.2198 29.32C16.3598 29.72 15.5698 30.22 14.8198 30.84C13.9398 31.6 13.2698 32.68 12.7098 33.79C12.0698 34.96 11.6998 36.3 11.3698 37.71C11.1698 38.57 10.9898 39.44 10.8498 40.32C10.6298 41.65 10.4198 43 10.3198 44.34C10.2598 45.38 10.2898 46.41 10.2998 47.44C10.2998 47.67 10.3198 47.89 10.3098 48.11C10.2898 48.95 10.1498 49.2 9.66981 49.39C9.55981 49.43 9.44981 49.49 9.33981 49.51C8.96981 49.6 8.65981 49.24 8.53981 48.59C8.18981 46.68 8.17981 44.68 8.41981 42.7C8.56981 41.22 8.80981 39.75 9.07981 38.27H9.12981L9.13981 38.29Z" fill="#231F20"/>
<path d="M99.4399 87.51C99.6699 86.51 99.8599 85.5 100.01 84.47C100.06 84.1 100.07 83.72 100.12 83.34C100.32 82.02 100.45 80.68 100.63 79.34C100.71 78.75 100.72 78.15 100.78 77.55C100.86 76.79 100.82 76.02 101.11 75.26C101.2 75.02 101.2 75.05 101.32 75.26C101.38 75.36 101.48 75.5 101.61 75.68C101.72 75.85 101.79 76.06 101.84 76.28C102.17 77.84 102.36 79.42 102.03 81C101.86 81.94 101.89 82.93 101.79 83.9C101.68 84.96 101.53 86.03 101.35 87.09C101.24 87.74 101.1 88.39 100.97 89.04C100.75 90.02 100.43 90.99 100.1 91.95C99.8399 92.69 99.6199 93.46 99.1499 94.18C99.0399 94.34 98.9599 94.5 98.8099 94.65C98.2999 95.2 97.9599 95.21 97.6599 94.94C97.5899 94.88 97.5099 94.82 97.4599 94.75C97.2799 94.49 97.3699 94.2 97.5499 93.9C98.1099 93 98.4499 91.75 98.7599 90.46C98.8699 89.98 98.9699 89.49 99.0599 88.99C99.1799 88.5 99.2899 88 99.3899 87.49H99.4399V87.51Z" fill="#231F20"/>
<path d="M101.47 31.69C101.76 32.61 101.94 33.53 102.05 34.43C102.08 34.76 102.18 35.08 102.2 35.41C102.27 36.57 102.23 37.7101 102.2 38.8301C102.16 39.3301 102.17 39.83 102.16 40.32C102.16 40.64 102.16 40.95 102.16 41.27C102.12 41.59 102.03 41.9 101.94 42.21C101.87 42.41 101.72 42.38 101.52 42.21C101.32 42.04 101.01 41.74 100.88 41.38C100.69 40.1101 100.55 38.87 100.7 37.6C100.76 36.84 100.59 36.07 100.48 35.32C100.35 34.5 100.22 33.6701 99.9602 32.9001C99.9002 32.6501 99.8102 32.42 99.7102 32.19C99.6102 31.96 99.5302 31.72 99.4002 31.51C99.0702 30.84 98.6302 30.23 98.0502 29.78C97.5902 29.45 97.0502 29.29 96.5202 29.18C96.4102 29.14 96.2902 29.14 96.1702 29.13C95.7302 29.06 95.6302 28.9 95.6202 28.38C95.6202 28.26 95.6102 28.14 95.6202 28.02C95.6302 27.62 95.9002 27.36 96.3402 27.35C97.6402 27.3 99.0502 28 100 29.06C100.7 29.85 101.2 30.75 101.53 31.67L101.49 31.69H101.47Z" fill="#231F20"/>
<path d="M52.5499 25.65C52.3799 24.55 52.0999 20.48 53.6399 19.9C54.0299 19.75 56.5099 24.95 56.0899 24.95C55.6699 24.95 52.5599 25.65 52.5599 25.65H52.5499Z" fill="#231F20"/>
<path d="M67.75 38.39C68.17 37.98 70.17 35.86 71 37.13C71.83 38.4 71 39.95 71 39.95L67.75 38.38V38.39Z" fill="#231F20"/>
<path d="M69.8698 58.61C70.2998 57.85 70.7298 57.08 71.1598 56.32C71.3098 56.03 71.4498 55.76 71.5998 55.47C72.1498 54.49 72.7798 53.54 73.3298 52.56C73.5798 52.13 73.7998 51.68 74.0398 51.24C74.3498 50.68 74.6698 50.13 75.0398 49.6C75.1498 49.44 75.1898 49.48 75.1898 49.67C75.1898 49.85 75.1698 50.19 75.0698 50.55C74.7398 51.83 74.1298 52.98 73.4998 54.13C73.1098 54.81 72.8098 55.57 72.4298 56.28L71.1798 58.61L70.4098 60.05C70.0298 60.78 69.6298 61.5 69.2898 62.24C69.0298 62.82 68.8198 63.4 68.5698 63.98C68.5198 64.11 68.4698 64.24 68.4098 64.36C68.1898 64.82 68.0398 64.94 67.7298 64.91C67.6598 64.91 67.5898 64.91 67.5198 64.89C67.2998 64.84 67.2298 64.57 67.3298 64.19C67.4798 63.64 67.6598 63.09 67.8698 62.54C68.0898 62 68.3598 61.47 68.6198 60.94C69.0298 60.16 69.4398 59.38 69.8598 58.6H69.8898L69.8698 58.61Z" fill="#231F20"/>
<path d="M79.5201 75.7401C80.1001 74.9201 80.6701 74.0901 81.2201 73.2401C81.4101 72.9301 81.6101 72.6201 81.8001 72.3001C82.5201 71.2201 83.2001 70.1101 83.8401 68.9701C84.1101 68.4601 84.3801 67.9501 84.6201 67.4301C84.9301 66.7601 85.2901 66.1201 85.6701 65.4801C85.7901 65.2801 85.8301 65.3301 85.8301 65.5501C85.8301 65.7601 85.8201 66.1501 85.7101 66.5701C85.5201 67.3201 85.2201 68.01 84.9001 68.7C84.5801 69.39 84.2301 70.0701 83.8501 70.7301C83.3901 71.5201 83.0001 72.3901 82.5501 73.2101C82.0501 74.1101 81.5001 74.98 80.9401 75.84L79.8801 77.4201C79.3401 78.2101 78.7601 78.9801 78.1901 79.7601C77.7601 80.3601 77.3601 80.9801 76.9001 81.5701C76.8001 81.7001 76.7101 81.8301 76.6001 81.9601C76.1801 82.4201 75.9701 82.49 75.6501 82.34C75.5801 82.31 75.5001 82.2801 75.4301 82.2301C75.2101 82.0801 75.2301 81.7501 75.4701 81.4001C76.1701 80.3401 76.9201 79.2501 77.7401 78.1801C78.3401 77.3801 78.9401 76.5601 79.5101 75.7301L79.5401 75.7501L79.5201 75.7401Z" fill="#231F20"/>
<path d="M43.5498 103.78L41.6898 107.09C41.4698 107.5 41.2898 107.92 41.0498 108.32C40.1898 109.71 39.3198 111.11 38.4598 112.5C38.0798 113.12 37.7398 113.76 37.3898 114.39C36.9198 115.18 36.6098 116.08 35.7798 116.66C35.4798 116.81 35.4198 116.73 35.2598 116.36C35.1798 116.17 35.1098 115.94 35.0498 115.66C35.0198 115.53 34.9798 115.38 34.9898 115.24C34.9998 115.11 35.0298 114.98 35.0798 114.86C35.4398 114 35.7998 113.16 36.1898 112.32C36.6198 111.5 37.0698 110.7 37.5798 109.91C38.1998 108.97 38.5598 107.85 39.0398 106.81C39.5698 105.67 40.1698 104.55 40.7298 103.41L41.7798 101.31C42.2998 100.24 42.8698 99.19 43.3298 98.11C43.6898 97.27 43.8998 96.36 44.1798 95.48C44.2398 95.29 44.2798 95.08 44.3598 94.9C44.6398 94.2 44.9698 94.1 45.7498 94.33C45.9198 94.38 46.0998 94.42 46.2498 94.48C46.7498 94.67 47.1598 95.23 47.0598 95.78C46.7798 97.42 46.0798 98.91 45.3398 100.43C44.7898 101.55 44.1798 102.66 43.5998 103.79L43.5398 103.76L43.5498 103.78Z" fill="#231F20"/>
<path d="M57.9 102.51C57.81 103.58 57.7199 104.66 57.6599 105.73C57.6399 106.12 57.6999 106.51 57.6599 106.9C57.5499 108.28 57.44 109.67 57.29 111.06C57.24 111.67 57.2499 112.29 57.2699 112.9C57.3099 113.68 57.2299 114.47 56.9999 115.26C56.9199 115.51 56.6599 115.48 56.3399 115.28C56.0199 115.08 55.5699 114.72 55.4099 114.28C55.0899 113.5 55.0199 112.71 54.9599 111.92C54.8999 111.13 54.8699 110.34 54.9799 109.53C55.1199 108.57 54.9299 107.58 54.9099 106.6C54.8899 105.52 54.8999 104.44 54.9099 103.36L54.9299 101.36C54.9299 100.35 54.9799 99.33 54.8899 98.33C54.8299 97.55 54.5799 96.79 54.4199 96.02C54.3799 95.85 54.3199 95.68 54.2999 95.51C54.2599 94.87 54.51 94.66 55.33 94.52C55.51 94.49 55.69 94.45 55.86 94.43C56.42 94.37 57.0299 94.62 57.2499 95.07C57.8599 96.41 57.9299 97.83 57.9799 99.27C58.0099 100.34 57.9799 101.42 57.9599 102.49H57.88L57.9 102.51Z" fill="#231F20"/>
<path d="M71.0399 102.51C71.5799 103.68 72.1299 104.84 72.7299 105.99C72.9399 106.41 73.2399 106.78 73.4499 107.21C74.1999 108.71 74.9599 110.21 75.7099 111.71C76.0499 112.37 76.4499 113 76.8599 113.62C77.3399 114.43 77.8599 115.24 78.1299 116.2C78.2099 116.5 77.8999 116.63 77.4399 116.61C76.9899 116.59 76.3699 116.45 75.9799 116.06L74.9899 114.99C74.6799 114.62 74.4199 114.22 74.1399 113.82C73.6099 113.02 73.0899 112.2 72.6899 111.29C72.2199 110.2 71.4499 109.25 70.8399 108.22C70.1699 107.09 69.5299 105.93 68.9099 104.76L67.7799 102.59C67.2199 101.49 66.6999 100.35 66.1299 99.25C65.6799 98.39 65.1099 97.6 64.6599 96.67C64.5699 96.46 64.4499 96.25 64.3699 96.03C64.2099 95.64 64.2199 95.26 64.3599 95.03C64.4899 94.79 64.7299 94.65 65.0999 94.55C65.2699 94.5 65.4399 94.45 65.6099 94.43C66.1899 94.37 66.7399 94.64 66.9999 94.96C67.7699 96.1 68.5799 97.57 69.3499 99.06C69.9299 100.19 70.5199 101.32 71.1099 102.46L71.0499 102.5L71.0399 102.51Z" fill="#231F20"/>
<path d="M70.75 38.2C70.75 38.08 70.72 37.96 70.67 37.83C70.67 37.75 70.62 37.7 70.59 37.62C70.57 37.57 70.62 37.56 70.61 37.51C70.61 37.46 70.57 37.47 70.48 37.42C70.15 37.23 69.42 37.36 68.8 37.6C68.51 37.7 68.26 37.87 68.01 38.04C67.85 38.15 67.7 38.28 67.53 38.39C67.36 38.5 67.19 38.61 66.91 38.59C66.7 38.53 66.69 38.49 66.6 38.21C66.55 38.07 66.52 37.9 66.48 37.71C66.46 37.54 66.48 37.4 66.55 37.3C67.08 36.63 67.67 35.9 68.66 35.63C69.23 35.48 69.79 35.07 70.65 35.08C71.09 35.08 71.66 35.28 72 35.54C72.32 35.76 72.6 36.05 72.81 36.38C73.07 36.78 73.26 37.21 73.36 37.63C73.54 38.28 73.51 38.91 73.51 39.52C73.51 39.99 73.63 40.49 73.61 41.01C73.61 41.12 73.63 41.25 73.61 41.36C73.5 41.77 73.19 41.78 72.49 41.51C72.33 41.45 72.17 41.39 72.01 41.32C71.49 41.08 71.1 40.74 70.96 40.51C70.64 39.84 70.7 39.43 70.71 39.01C70.71 38.71 70.74 38.43 70.68 38.22L70.74 38.19L70.75 38.2Z" fill="#231F20"/>
<path d="M55.75 21.7C55.61 21.44 55.44 21.28 55.23 21.17C55.2 21.2 55.17 21.16 55.13 21.17C55.06 21.17 55.03 21.25 54.97 21.27C54.76 21.35 54.44 21.67 54.18 21.96C53.89 22.26 53.65 22.62 53.44 23C53.27 23.34 53.15 23.72 53.1 24.08C53.06 24.31 53.01 24.54 52.98 24.76C52.93 24.98 52.83 25.21 52.8 25.43C52.76 25.58 52.64 25.67 52.36 25.62C52.09 25.58 51.61 25.31 51.43 24.91C51.31 24.56 51.25 24.22 51.23 23.89C51.24 23.56 51.29 23.25 51.36 22.94C51.5 22.33 51.75 21.75 52.11 21.22C52.34 20.87 52.54 20.56 52.76 20.24C52.89 20.07 52.99 19.9 53.15 19.73C53.3 19.58 53.51 19.32 53.74 19.19C54.14 18.87 54.65 18.77 55.14 18.75C55.81 18.75 56.39 18.96 56.91 19.26C57.43 19.6 57.82 20.04 58.15 20.47C58.63 21.14 58.89 21.87 59.19 22.57C59.43 23.11 59.77 23.61 60 24.2C60.05 24.33 60.13 24.45 60.16 24.59C60.29 25.1 60.02 25.31 59.21 25.39C59.02 25.41 58.84 25.43 58.66 25.44C58.06 25.45 57.49 25.29 57.3 25.07C56.72 24.4 56.52 23.68 56.29 23C56.12 22.51 55.93 22.05 55.72 21.77L55.76 21.72L55.75 21.7Z" fill="#231F20"/>
<path d="M100.88 63.6699C100.96 58.0499 100.92 52.4299 100.73 46.8299C100.65 44.0299 100.52 41.2299 100.3 38.4599C100.18 37.0799 100.05 35.6999 99.8501 34.3599C99.7501 33.6899 99.6401 33.0299 99.4901 32.4199C99.4301 32.0899 99.3301 31.8499 99.2501 31.5799C99.2101 31.4899 99.1601 31.3899 99.1501 31.3399C99.1201 31.3199 99.1101 31.2799 99.0901 31.2599C99.1001 31.2699 98.9101 31.1099 98.7501 31.0299C98.6001 30.9299 98.3801 30.8399 98.1901 30.7399C97.7801 30.5599 97.3301 30.3899 96.8701 30.2399C95.9401 29.9399 94.9501 29.6999 93.9501 29.4799C91.9401 29.0599 89.8701 28.7499 87.7901 28.4899C82.2301 27.8199 76.5901 27.5499 70.9601 27.3099C61.0201 26.8999 51.0601 26.8699 41.1101 27.1599C36.1401 27.3099 31.1601 27.5399 26.2101 27.9499C23.7401 28.1499 21.2701 28.3899 18.8301 28.7799C17.6101 28.9599 16.4101 29.1899 15.2301 29.4499C14.6501 29.5899 14.0601 29.7299 13.5301 29.9099C13.2601 29.9999 13.0101 30.0999 12.7801 30.1999C12.5901 30.3099 12.5001 30.3399 12.4001 30.4699C12.3101 30.5799 12.3101 30.6499 12.2101 30.8799L12.0101 31.5899C11.9001 32.0999 11.7901 32.6099 11.7101 33.1499C11.5301 34.2099 11.4101 35.2999 11.3001 36.3899C11.0901 38.5699 10.9501 40.7799 10.8401 42.9799C10.6301 47.3899 10.5501 51.7999 10.5301 56.1899C10.5301 61.8299 10.5801 67.4799 10.7001 73.1199C10.7501 75.9399 10.8701 78.7599 10.8901 81.5799C10.9101 84.3999 10.9401 87.2199 11.0501 90.0199C11.2401 93.4999 10.9501 93.0999 10.1201 90.1799C9.73009 88.7199 9.21009 86.6199 8.75009 84.0699C8.52009 82.7899 8.26009 81.4099 8.09009 79.9299C7.94009 78.4499 7.83009 76.8799 7.77009 75.2499C7.30009 63.6699 7.33009 52.1099 8.06009 40.4699C8.27009 37.5399 8.49009 34.6599 9.08009 31.6099C9.17009 31.2199 9.24009 30.8399 9.37009 30.4099C9.44009 30.1899 9.47009 30.0199 9.58009 29.7599L9.77009 29.3199C9.85009 29.1599 9.90009 28.9799 10.0301 28.8699L10.3501 28.4699L10.7401 28.1399C10.9801 27.9099 11.3601 27.7499 11.5601 27.6399L12.2001 27.3699L12.8001 27.1699C14.3601 26.6799 15.8301 26.4399 17.3101 26.2299C23.1901 25.4799 28.9901 25.0599 34.8301 24.8299C48.7801 24.3099 63.3001 24.0599 77.5801 24.8599C81.4601 25.0899 85.3501 25.4099 89.2301 25.9099C91.1701 26.1699 93.1101 26.4599 95.0601 26.8999C96.0301 27.1099 97.0101 27.3699 97.9901 27.6899C98.4801 27.8499 98.9701 28.0399 99.4701 28.2699C99.7201 28.3899 99.9701 28.5099 100.22 28.6699C100.48 28.8099 100.7 28.9799 101.04 29.2499C101.27 29.5599 101.58 29.8599 101.7 30.1999C101.85 30.5099 101.95 30.7899 102.02 31.0499C102.2 31.5999 102.3 32.0999 102.41 32.6099C102.61 33.6299 102.76 34.6299 102.88 35.6299C103.13 37.6299 103.29 39.6199 103.42 41.6099C103.68 45.5799 103.8 49.5499 103.82 53.5199C103.89 63.1799 103.61 72.8399 102.9 82.4699C102.76 84.3399 102.61 86.2099 102.43 88.0799L102.14 90.8799L101.99 92.2799L101.78 93.9899L101.58 94.6099L101.53 94.7699V94.8099H101.51C101.48 94.7799 101.57 94.8799 101.44 94.7499V94.7699L101.37 94.8199L101.13 94.9899C100.74 95.1699 100.2 95.1599 99.7201 95.1999L98.6201 95.2499L97.6001 95.3099C96.2401 95.3999 94.8801 95.4699 93.5201 95.4999C90.8001 95.5699 88.0901 95.6399 85.3801 95.7099C79.9601 95.8199 74.5501 95.9299 69.1701 96.0299C57.9101 96.2299 46.8801 96.5599 35.7401 96.6099C33.2901 96.6199 30.8901 96.6499 28.4101 96.6299C19.2401 96.5199 16.2801 96.0899 14.3701 95.1199C13.9401 94.8999 13.3701 94.6499 13.1401 94.4299C12.7701 94.0599 13.4801 93.9299 15.1201 93.8499C16.7601 93.7699 19.3601 93.7399 22.6901 93.7399C32.6001 93.7499 42.8001 93.5399 53.1501 93.4399C63.5001 93.3199 74.0001 93.1799 84.5101 92.9799C87.3501 92.9199 90.1801 92.8499 93.0201 92.7899L95.1501 92.7299L97.2801 92.7499H98.3401L99.3301 92.6899C99.3301 92.6899 99.3401 92.6899 99.3601 92.6899L99.3801 92.4599L99.4701 91.5399L99.6401 89.6999L99.9401 85.9999C100.12 83.5299 100.26 81.0499 100.38 78.5799C100.6 73.6199 100.75 68.6599 100.81 63.6899L100.88 63.6699Z" fill="#231F20"/>
<path d="M72.0999 54.76C73.0699 52.73 74.1099 50.74 75.1999 48.78L76.8399 45.88C76.8799 45.79 77.0299 45.67 76.9699 45.57L76.8399 45.44L76.7699 45.38L76.4699 45.15C75.2399 44.25 73.8499 43.49 72.4899 42.69C70.5299 41.55 68.4899 40.52 66.4199 39.57C65.3799 39.09 64.3299 38.65 63.2699 38.23C62.7399 38.02 62.1999 37.84 61.6699 37.66L60.2999 37.23C60.0499 37.06 59.8899 37.36 59.7499 37.53C59.4599 37.91 59.1599 38.36 58.8799 38.79C57.5399 40.88 56.3699 43.13 55.3099 45.37C53.9799 48.27 52.7799 51.22 51.5799 54.13C51.1999 55.03 51.0699 54.92 50.8499 53.99C50.7699 53.53 50.5899 52.84 50.6499 52.07C50.6899 51.29 50.8299 50.4 51.1199 49.49C51.3399 48.83 51.5599 48.18 51.7999 47.53C52.0699 46.89 52.3399 46.27 52.6299 45.64C53.1999 44.39 53.8099 43.16 54.4499 41.95C55.0899 40.74 55.7599 39.54 56.4899 38.36C56.8499 37.77 57.2299 37.18 57.6499 36.59L58.0199 36.09C58.2199 35.84 58.4099 35.59 58.6399 35.39C58.8599 35.17 59.0999 35 59.3899 34.98H59.4999L59.5299 34.96C59.5299 34.96 59.5499 35.04 59.5199 34.88H59.5299H59.5799H59.7899L60.2199 34.91L60.8999 35.1L61.2399 35.2C61.3499 35.23 61.3899 35.25 61.4699 35.28L62.3399 35.6L64.0499 36.28C67.7999 37.79 71.6499 39.38 75.2599 41.45C76.2499 42.03 77.2099 42.65 78.1599 43.36C78.4699 43.6 78.8999 43.9 79.1099 44.21L79.4999 44.68L79.6999 44.91H79.7099V44.93C79.5099 44.98 79.6499 44.95 79.6099 44.96V45C79.6099 45 79.6399 45.05 79.6399 45.07L79.6699 45.21C79.7399 45.57 79.5399 45.99 79.3399 46.39L79.0199 46.99L78.7999 47.38C77.6999 49.32 76.6399 51.25 75.6399 53.23C74.4199 55.66 73.2699 58.14 72.2499 60.66C71.8899 61.55 71.5399 62.45 71.1999 63.36L70.6999 64.72L70.0799 66.54L69.5799 67.36L69.4599 67.56L69.4299 67.61V67.63C69.4899 67.78 69.3499 67.43 69.3599 67.46C69.3599 67.46 69.3399 67.46 69.3299 67.46H69.2299L68.8299 67.47C68.5499 67.51 68.1799 67.27 67.8399 67.09L66.8099 66.51C65.8499 65.97 64.8899 65.44 63.9199 64.94C61.0899 63.48 58.2099 62.24 55.2899 61.19C54.6499 60.96 54.0099 60.77 53.3599 60.56C50.9599 59.79 50.2699 59.55 49.8499 58.72C49.7599 58.54 49.6099 58.35 49.5599 58.17C49.3599 57.59 50.5799 57.21 52.5699 57.62C55.4899 58.22 58.2999 59.3 61.0399 60.53C62.4199 61.14 63.7599 61.83 65.0999 62.55L67.0899 63.64L68.0799 64.2C68.1699 64.25 68.1099 64.21 68.1299 64.22C68.1299 64.22 68.1299 64.22 68.1299 64.23L68.2399 63.91L68.7199 62.58C69.0499 61.69 69.3899 60.81 69.7499 59.93C70.4599 58.17 71.2199 56.44 72.0199 54.73L72.0799 54.75L72.0999 54.76Z" fill="#231F20"/>
<path d="M64.1999 48.05C64.7499 48.4 65.3099 48.74 65.8599 49.09C66.0599 49.22 66.2899 49.29 66.4899 49.41C67.2099 49.85 67.9299 50.29 68.6899 50.67C69.0199 50.84 69.3799 50.96 69.7299 51.08C70.1799 51.23 70.6099 51.44 71.0199 51.72C71.2799 51.9 70.6499 52.6 70.0599 52.61C69.7999 52.59 69.5399 52.59 69.2899 52.54C69.0499 52.47 68.8199 52.38 68.5799 52.29C68.1199 52.11 67.6599 51.89 67.2299 51.62C66.7099 51.3 66.0999 51.15 65.5499 50.89C64.9399 50.61 64.3399 50.3 63.7499 49.97C63.3899 49.76 63.0299 49.56 62.6699 49.35C62.1199 49.05 61.5899 48.7 61.0299 48.44C60.5899 48.24 60.1199 48.11 59.6799 47.92C59.5799 47.88 59.4799 47.85 59.3899 47.8C59.0499 47.61 59.0099 47.43 59.1799 46.98C59.2199 46.88 59.2499 46.77 59.2999 46.68C59.4499 46.35 59.7399 46.17 60.0499 46.2C60.4999 46.25 60.9399 46.34 61.3599 46.47C61.7699 46.61 62.1499 46.83 62.5299 47.04C63.0899 47.36 63.6599 47.69 64.2199 48.01L64.1999 48.05Z" fill="#231F20"/>
<path d="M65.6398 44.18C66.1798 44.53 66.7198 44.88 67.2598 45.22C67.4598 45.34 67.6798 45.42 67.8698 45.55C68.5298 46.06 69.1798 46.58 69.8498 47.06C70.1498 47.27 70.4598 47.45 70.7798 47.62C70.9798 47.74 71.1998 47.81 71.3798 47.96C71.5498 48.12 71.7098 48.31 71.8698 48.51C71.9598 48.64 71.8698 48.76 71.6598 48.89C71.4498 49.01 71.0998 49.2 70.7998 49.2C69.8698 48.96 69.0698 48.51 68.2998 47.97C67.8498 47.62 67.2698 47.49 66.7698 47.21C66.2198 46.9 65.6698 46.59 65.1298 46.28C64.7898 46.09 64.4498 45.9 64.1098 45.73C63.5898 45.47 63.0698 45.18 62.5198 44.98C62.0898 44.84 61.6198 44.81 61.1798 44.7C61.0798 44.68 60.9798 44.68 60.8898 44.64C60.5398 44.52 60.4898 44.34 60.6198 43.79C60.6498 43.67 60.6698 43.54 60.7098 43.42C60.8298 43.01 61.0998 42.73 61.4098 42.7C61.8698 42.65 62.3098 42.68 62.7398 42.76C63.1498 42.87 63.5498 43.04 63.9498 43.22C64.5398 43.49 65.0998 43.82 65.6598 44.13L65.6398 44.18Z" fill="#231F20"/>
<path d="M78.9899 70.68C78.4999 70.31 77.9899 69.95 77.4599 69.63C77.2699 69.51 77.0499 69.45 76.8599 69.33C76.1699 68.93 75.4999 68.45 74.7699 68.11C74.4499 67.95 74.1099 67.84 73.7799 67.73C73.3499 67.6 72.9099 67.48 72.4999 67.26C72.3699 67.19 72.4199 67.04 72.5799 66.89C72.7399 66.75 73.0099 66.58 73.2799 66.59C74.2399 66.65 75.1999 66.77 76.0899 67.16C76.6199 67.38 77.2099 67.5 77.7599 67.71C78.3599 67.95 78.9499 68.22 79.5299 68.51C79.8799 68.69 80.2399 68.88 80.5899 69.06C81.1299 69.33 81.6299 69.66 82.1799 69.9C82.6099 70.08 83.0999 70.15 83.5599 70.29C83.6599 70.32 83.7699 70.33 83.8699 70.37C84.2299 70.51 84.2099 70.78 83.9099 71.4C83.8399 71.54 83.7799 71.68 83.7099 71.81C83.4799 72.24 83.0799 72.59 82.7699 72.59C82.3199 72.58 81.9199 72.49 81.5399 72.35C81.1699 72.2 80.8299 71.97 80.4899 71.75C79.9899 71.41 79.4799 71.06 78.9799 70.71L78.9999 70.66L78.9899 70.68Z" fill="#231F20"/>
<path d="M75.0298 74.91C74.2898 74.5 73.5398 74.1 72.7898 73.71C72.5198 73.57 72.2198 73.48 71.9498 73.33C70.9898 72.82 70.0198 72.31 69.0698 71.81C68.6398 71.59 68.1998 71.4 67.7598 71.22C67.1998 70.98 66.5998 70.84 66.1198 70.37C65.9698 70.24 66.0398 70.13 66.2498 70.01C66.3598 69.95 66.5098 69.88 66.6798 69.81C66.8598 69.73 67.0398 69.7 67.2098 69.75C68.4198 70.07 69.6498 70.36 70.7498 71C71.4098 71.37 72.1798 71.56 72.8898 71.84C73.6698 72.17 74.4498 72.49 75.2298 72.82L76.6698 73.43C77.3998 73.73 78.1198 74.06 78.8698 74.3C79.4498 74.47 80.0698 74.55 80.6598 74.69C80.7898 74.72 80.9298 74.73 81.0498 74.77C81.5198 74.92 81.6098 75.13 81.4898 75.72C81.4598 75.86 81.4398 75.99 81.4098 76.13C81.2898 76.58 80.9598 76.86 80.5698 76.86C79.9898 76.86 79.4298 76.79 78.8698 76.67C78.3298 76.53 77.8098 76.29 77.2898 76.06C76.5198 75.71 75.7598 75.31 74.9998 74.94L75.0198 74.89L75.0298 74.91Z" fill="#231F20"/>
<path d="M83.0799 67.6C82.7999 67.35 82.5099 67.09 82.2199 66.86C82.1099 66.78 81.9799 66.75 81.8699 66.66C81.4999 66.34 81.1099 66.01 80.7399 65.7C80.5699 65.56 80.3799 65.48 80.1899 65.4C80.0699 65.35 79.9399 65.32 79.8199 65.26C79.7099 65.18 79.6199 65.05 79.5299 64.9C79.4799 64.8 79.5599 64.6 79.7299 64.38C79.8899 64.16 80.1499 63.85 80.3399 63.77C80.9199 63.8 81.4699 63.92 81.9299 64.3C82.1799 64.56 82.5499 64.59 82.8599 64.74C83.1999 64.91 83.5199 65.1 83.8499 65.29C84.0499 65.41 84.2499 65.53 84.4499 65.64C84.7599 65.8 85.0499 66.02 85.3799 66.12C85.6399 66.21 85.9699 66.12 86.2499 66.16C86.3099 66.16 86.3799 66.15 86.4399 66.16C86.6499 66.23 86.6399 66.42 86.3799 67.05L86.1999 67.48C85.9899 67.96 85.7199 68.31 85.4999 68.39C84.8499 68.67 84.4099 68.48 83.9699 68.25C83.6499 68.09 83.3599 67.83 83.0599 67.62L83.0799 67.57V67.6Z" fill="#231F20"/>
<path d="M72.8298 79.07C73.6199 79.52 74.4099 79.97 75.1599 80.48L76.2299 81.22C76.2299 81.22 76.3298 81.31 76.3998 81.36C76.4898 81.41 76.4999 81.29 76.5499 81.24C76.5899 81.19 76.5799 81.24 76.6599 81.09L76.9799 80.52L78.2698 78.23L80.0798 74.84C82.2799 70.9 84.5199 66.98 86.6599 63.02L87.3498 61.7L87.5398 61.32C87.6199 61.21 87.5698 61.08 87.4998 60.98C87.3498 60.72 86.4598 60.03 85.6698 59.53C84.6398 58.86 83.4999 58.31 82.4099 57.7L80.7698 56.76C80.2098 56.46 79.6599 56.15 79.1199 55.81C78.4398 55.4 78.5299 55.39 79.2598 55.34C79.9998 55.26 81.3898 55.24 82.8598 55.67C83.1798 55.77 83.5098 55.86 83.8298 55.98L84.7498 56.4C85.3598 56.69 85.9698 56.99 86.5798 57.33C87.1898 57.67 87.7898 58.03 88.3898 58.47C88.5598 58.6 88.6598 58.67 88.8798 58.87C89.1498 59.09 89.3498 59.32 89.5598 59.56C89.9998 60.04 90.1998 60.63 90.1998 61.22C90.1398 61.51 90.0499 61.79 89.9698 62.09C89.9498 62.24 89.8498 62.38 89.7798 62.52L89.6199 62.84L89.1398 63.71L88.1498 65.42C87.4798 66.55 86.7998 67.68 86.1098 68.8C84.4498 71.48 82.9899 74.42 81.4099 77.22L78.7798 81.84C78.5998 82.11 78.2098 82.92 77.8298 83.38L77.5398 83.78C77.4398 83.9 77.3198 83.94 77.2198 84.02C76.9298 84.13 76.6498 84.06 76.3598 83.97C76.0698 83.88 75.7699 83.68 75.4799 83.51L74.7299 83.04L73.6199 82.36C71.8099 81.25 69.8998 80.26 67.9298 79.4C64.9498 78.09 61.8598 76.95 58.7398 76.05L57.8498 75.81C57.4498 75.71 57.0598 75.6 56.6698 75.5L55.8898 75.09L55.6898 74.99L55.5898 74.94H55.5698L55.5598 74.92C55.5198 74.94 55.8698 74.78 55.7198 74.84C55.7198 74.84 55.6998 74.8 55.6998 74.79L55.6198 74.43C55.5198 74.19 55.6198 73.87 55.7498 73.54C55.8798 73.21 56.0298 72.87 56.1798 72.53L57.4498 69.72C57.6798 69.22 57.8798 68.72 58.1198 68.22C58.5498 67.29 58.8898 66.71 59.2398 66.35C59.5698 65.99 59.8598 65.82 60.2298 65.74C60.3998 65.7 60.5698 65.63 60.7098 65.62C61.1898 65.58 61.2499 66.57 60.8299 68.08C60.3399 69.46 59.7898 70.82 59.2098 72.18L58.7698 73.2L58.7198 73.33C58.7198 73.33 58.7198 73.34 58.7198 73.35V73.37V73.41C58.7198 73.45 58.7598 73.46 58.7998 73.45H58.8198V73.44L59.0798 73.51L60.3299 73.88C61.1699 74.13 61.9998 74.41 62.8398 74.69C66.2498 75.86 69.6098 77.27 72.8398 79.01L72.8198 79.07H72.8298Z" fill="#231F20"/>
<path d="M101.2 22.13C101.28 22.3 101.09 22.46 100.8 22.63C100.71 22.68 100.42 22.7 100.36 22.66C100.26 22.57 100.15 22.47 100.07 22.38C100.05 22.35 99.9199 22.09 99.7799 21.79C99.7099 21.64 99.6299 21.48 99.5599 21.34C99.5199 21.2 99.4799 21.07 99.4499 20.98C99.3399 20.65 99.2999 20.31 99.2799 19.97C99.2399 19.28 99.1899 18.59 99.1899 17.89C99.1899 17.74 99.2099 17.58 99.2599 17.43C99.4199 16.91 99.4599 16.39 99.4499 15.86C99.4499 15.77 99.4699 15.68 99.3999 15.59C99.3399 15.51 99.3199 15.11 99.3799 14.72C99.4399 14.32 99.5299 13.93 99.5799 13.84C99.8299 13.42 100.02 12.99 100.24 12.57C100.27 12.51 100.26 12.44 100.37 12.4C100.62 12.32 100.62 12.17 100.66 12.04C100.73 11.86 100.81 11.68 100.93 11.51C100.99 11.43 101.13 11.37 101.25 11.3C101.36 11.24 101.66 11.37 101.69 11.41C101.77 11.52 101.93 11.49 102.07 11.52C102.12 11.52 102.17 11.54 102.21 11.56C102.28 11.59 102.59 12.76 102.57 12.87C102.57 12.87 102.56 12.98 102.55 13.13C102.54 13.28 102.53 13.48 102.51 13.68C102.49 14.09 102.48 14.52 102.49 14.6C102.5 14.69 102.44 14.77 102.39 14.86C102.39 14.9 102.38 16.12 102.36 16.17C102.29 16.41 102.34 16.67 102.11 16.9C102.07 16.95 102.07 17 102.07 17.05C102.05 17.48 101.93 17.91 101.84 18.34C101.8 18.56 101.81 18.78 101.79 19.01C101.79 19.05 101.76 19.09 101.74 19.13C101.72 19.18 101.7 19.23 101.7 19.28C101.7 19.81 101.58 20.34 101.66 20.87C101.66 20.93 101.62 21.11 101.58 21.29C101.51 21.47 101.45 21.66 101.45 21.73C101.45 21.81 101.18 22.09 101.22 22.16L101.2 22.13Z" fill="#231F20"/>
<path d="M105.72 23.6399C105.79 23.7699 105.54 23.8 105.14 23.78C105.01 23.78 104.65 23.6799 104.61 23.6299C104.52 23.5399 104.43 23.44 104.37 23.36C104.35 23.32 104.19 22.5599 104.2 22.3199C104.18 22.0799 104.23 21.8499 104.3 21.6399C104.44 21.1999 104.58 20.7599 104.75 20.3299C104.79 20.2299 104.85 20.1499 104.93 20.0799C105.21 19.8299 105.37 19.52 105.49 19.19C105.51 19.13 105.55 19.0899 105.51 18.9999C105.42 18.8399 105.93 18.0199 106.06 17.9599C106.36 17.7899 106.62 17.6 106.9 17.43C106.94 17.41 106.94 17.3499 107.04 17.3799C107.27 17.4399 107.3 17.35 107.37 17.29C107.47 17.2 107.58 17.1299 107.71 17.0799C107.78 17.0599 107.91 17.08 108.03 17.11C108.13 17.13 108.37 17.3699 108.38 17.3999C108.42 17.5099 108.57 17.5799 108.68 17.6599C108.72 17.6899 108.76 17.73 108.79 17.7499C108.84 17.8099 108.87 18.6799 108.83 18.7299C108.81 18.7299 108.41 19.5999 108.39 19.7199C108.38 19.7799 108.31 19.7999 108.25 19.8299C108.22 19.8499 107.98 20.57 107.96 20.59C107.85 20.7099 107.85 20.88 107.6 20.92C107.55 20.92 107.54 20.9599 107.53 20.9899C107.43 21.2399 107.23 21.4399 107.07 21.6599C106.99 21.7699 106.95 21.91 106.89 22.03C106.88 22.05 106.84 22.0599 106.82 22.0799C106.79 22.0999 106.76 22.1199 106.75 22.1499C106.64 22.4499 106.42 22.7199 106.38 23.0599C106.38 23.1399 106.04 23.4099 106.01 23.4899C106 23.5399 105.66 23.6099 105.69 23.6599L105.72 23.6399Z" fill="#231F20"/>
<path d="M107.91 27.44C107.77 27.57 107.56 27.44 107.33 27.22C107.26 27.15 107.16 26.9 107.19 26.83C107.25 26.71 107.32 26.59 107.39 26.49C107.41 26.46 107.64 26.27 107.9 26.08C108.16 25.89 108.48 25.73 108.64 25.63C108.94 25.44 109.27 25.33 109.6 25.22C110.28 25.02 110.96 24.81 111.66 24.68C111.81 24.65 111.97 24.63 112.13 24.65C112.68 24.69 113.21 24.63 113.74 24.54C113.83 24.53 113.92 24.53 114.01 24.45C114.14 24.3 115.63 24.24 115.82 24.3C116.29 24.44 116.75 24.57 117.21 24.72C117.27 24.74 117.35 24.72 117.4 24.82C117.51 25.05 117.66 25.03 117.8 25.06C117.99 25.1 118.19 25.17 118.37 25.27C118.46 25.32 118.53 25.46 118.61 25.57C118.68 25.67 118.57 25.99 118.54 26.02C118.44 26.11 118.48 26.27 118.46 26.41C118.46 26.46 118.45 26.52 118.44 26.55C118.41 26.63 117.29 27.01 117.19 27C117.16 26.98 115.65 27 115.48 27.03C115.39 27.05 115.3 26.99 115.21 26.96C115.17 26.93 113.97 27.07 113.92 27.08C113.67 27.05 113.43 27.14 113.17 26.98C113.12 26.95 113.07 26.96 113.02 26.97C112.59 27.02 112.16 27 111.72 27.01C111.5 27.01 111.28 27.08 111.06 27.1C111.02 27.1 110.98 27.09 110.93 27.08C110.88 27.08 110.82 27.06 110.77 27.08C110.26 27.19 109.72 27.22 109.23 27.42C109.11 27.45 108.51 27.47 108.37 27.51C108.29 27.53 107.96 27.37 107.9 27.43L107.91 27.44Z" fill="#231F20"/>
</svg>
