<svg width="128" height="128" viewBox="0 0 128 128" fill="none" xmlns="http://www.w3.org/2000/svg">
<path d="M18.4298 36.33C18.7198 33.32 19.1198 30.31 19.8898 27.31C20.1698 26.22 20.4498 25.1 20.9398 24C21.1698 23.52 21.4098 23.04 21.7298 22.57C21.8698 22.33 22.0698 22.1 22.2598 21.87C22.4198 21.65 22.8398 21.34 23.1398 21.14L23.9598 20.77L24.7298 20.53C25.2398 20.38 25.7298 20.29 26.2198 20.18C28.1798 19.83 30.1098 19.67 32.0498 19.55C33.7598 19.46 35.4798 19.32 37.1798 19.3C38.2698 19.28 39.3698 19.27 40.4698 19.32C41.5698 19.35 42.6698 19.54 43.7398 19.91C44.3998 20.19 44.2698 20.33 43.6598 20.66C43.3498 20.83 42.9398 20.99 42.4398 21.2C42.1898 21.29 41.9298 21.41 41.6498 21.47C41.3798 21.51 41.0798 21.56 40.7798 21.56C38.6298 21.58 36.4798 21.81 34.3198 21.86C32.1598 21.96 29.9998 22.09 27.8598 22.32C27.2298 22.4 26.5898 22.5 25.9798 22.65C25.3598 22.78 24.7898 23 24.3698 23.21C24.3198 23.26 24.2898 23.29 24.2298 23.31C24.1598 23.36 24.0798 23.51 23.9998 23.6C23.8398 23.81 23.6998 24.07 23.5598 24.33C23.2898 24.86 23.0498 25.44 22.8398 26.04C21.9098 28.7 21.4498 31.65 21.1098 34.57C20.9098 36.38 20.7598 38.2 20.6698 40.02C20.5398 42.78 20.4798 45.57 20.5998 48.32C20.6898 50.46 20.9698 52.54 21.2298 54.63C21.2898 55.09 21.3798 55.54 21.3998 56C21.5298 57.73 21.4398 58.29 20.9498 58.73C20.8398 58.83 20.7398 58.96 20.6198 59.03C20.2498 59.25 19.7898 58.59 19.4398 57.32C18.8798 55.44 18.6498 53.47 18.4198 51.48C18.2098 49.48 18.0898 47.45 18.0698 45.41C18.0198 42.38 18.1398 39.34 18.3698 36.3H18.4298V36.33Z" fill="#231F20"/>
<path d="M60.5402 103.53C60.1302 104.54 59.6802 105.55 58.8902 106.52C58.5002 106.99 58.0002 107.48 57.3502 107.81C56.8502 108.04 56.3502 108.26 55.8502 108.43C55.1202 108.7 54.4102 108.97 53.6702 109.16C51.0602 109.8 48.4302 110.05 45.8202 110.13C44.6602 110.15 43.4902 110.21 42.3402 110.19C40.8602 110.19 39.3302 110.21 37.9402 109.54C37.5102 109.3 37.6002 109.19 38.0302 108.93C38.4702 108.61 39.2102 108.25 40.0202 108.23C41.4602 108.23 42.8902 108.31 44.3302 108.26C45.7702 108.23 47.2202 108.16 48.6802 108.06C50.4302 107.95 52.2002 107.46 53.8702 106.94C54.7702 106.65 55.7202 106.29 56.4702 105.89C57.0502 105.57 57.5802 104.77 57.9802 103.95C58.4702 102.91 58.8402 101.76 59.1202 100.58C59.5502 98.7999 59.8702 96.9499 60.0202 95.1099C60.1202 93.6799 60.0702 92.2599 60.0602 90.8499C60.0602 90.5399 60.0602 90.2299 60.0602 89.9199C60.1302 88.7599 60.3002 88.3899 60.8302 88.1399C60.9502 88.0799 61.0702 88.0099 61.1902 87.9699C61.5902 87.8499 61.9402 88.3399 62.1102 89.2199C62.3802 90.5299 62.4802 91.8799 62.4802 93.2399C62.4602 94.6099 62.3002 95.9799 62.1102 97.3699C61.8002 99.4199 61.3502 101.48 60.6002 103.54L60.5502 103.52L60.5402 103.53Z" fill="#231F20"/>
<path d="M107.61 81.97C107.45 79.56 107.22 77.1 106.61 74.87C106.56 74.66 106.49 74.48 106.41 74.3C106.34 74.13 106.27 73.9 106.19 73.82C106.05 73.59 105.82 73.34 105.52 73.11C104.47 72.28 102.97 71.72 101.52 71.26C100.04 70.81 98.4999 70.47 96.9599 70.2C95.5899 69.95 94.1799 69.82 92.7999 69.69C91.9099 69.61 91.0199 69.54 90.1299 69.46L88.7899 69.34C88.3399 69.31 87.8999 69.16 87.4599 69.09C86.9099 68.97 86.9799 68.91 87.4599 68.73C87.7799 68.6 88.1199 68.47 88.4599 68.34C88.8699 68.21 89.3599 68.15 89.8799 68.14C93.5899 68.03 97.2999 68.49 100.96 69.47C102.05 69.78 103.17 70.09 104.29 70.51C105.39 70.96 106.57 71.42 107.5 72.55C107.63 72.69 107.73 72.89 107.84 73.07C107.93 73.24 107.98 73.4 108.05 73.56C108.19 73.88 108.3 74.2 108.39 74.51C108.6 75.14 108.72 75.76 108.88 76.39C109.13 77.64 109.34 78.88 109.5 80.13C109.72 81.67 109.83 83.21 109.91 84.75C110.03 87.09 110.04 89.43 110.02 91.75C110.02 93.55 110.02 95.33 109.84 97.12C109.79 97.51 109.75 97.9 109.69 98.3C109.45 99.77 109.18 100.21 108.74 100.43C108.64 100.48 108.54 100.55 108.45 100.58C108.16 100.65 107.98 100.01 108.05 98.97C108.11 97.41 108.08 95.82 108.06 94.21C108.09 92.6 108.06 90.96 108.03 89.32C107.96 86.88 107.79 84.43 107.57 82H107.62L107.61 81.97Z" fill="#231F20"/>
<path d="M86.8201 55.0501C86.9901 55.8001 87.2801 56.4901 87.6301 56.8801C87.6901 56.9301 87.7801 57.0101 87.8301 57.0201C87.8601 57.0201 87.8701 57.0401 87.9001 57.0601C87.9501 57.0801 87.9901 57.1001 88.0301 57.1201C88.3701 57.3101 88.9101 57.4601 89.4501 57.5501C90.0001 57.6501 90.5701 57.6801 91.1501 57.6901C91.6701 57.7101 92.1701 57.6101 92.6701 57.5201C92.9901 57.4601 93.3001 57.3801 93.6001 57.3001C93.9101 57.2601 94.2701 57.2901 94.5801 57.2201C94.7901 57.2001 94.9001 57.3801 94.8801 57.7101C94.8801 57.8701 94.8201 58.1001 94.7301 58.3101C94.6401 58.5301 94.5201 58.8001 94.3401 58.9701C93.6501 59.4301 92.9201 59.7401 92.1601 59.8801C91.4101 60.0501 90.6301 60.0501 89.8501 59.9201C89.3801 59.8401 88.9101 59.8201 88.4001 59.7701C87.9001 59.7301 87.3601 59.6601 86.7601 59.3801C86.0801 59.0201 85.6601 58.5301 85.3301 58.0301C84.9901 57.5301 84.7901 57.0101 84.6001 56.5001C84.4001 55.8701 84.2701 55.2401 84.1701 54.6201C84.0201 53.6801 84.0101 52.7401 83.9601 51.8301C83.9401 51.1201 83.8501 50.4201 83.8701 49.7001C83.8701 49.5401 83.9001 49.3901 83.9301 49.2401C84.0901 48.6701 84.2901 48.5101 84.7101 48.4601C84.8101 48.4501 84.9001 48.4301 84.9901 48.4301C85.2901 48.4301 85.5301 48.6901 85.6901 49.1001C85.9601 49.7101 86.1001 50.3001 86.2201 50.8801L86.4001 51.7401L86.4801 52.5901C86.5701 53.4301 86.6701 54.2601 86.8901 55.0101L86.8301 55.0301L86.8201 55.0501Z" fill="#231F20"/>
<path d="M71.6098 37.1C71.8798 36.6 72.3098 36.12 72.7698 35.73C73.2198 35.38 73.6798 35.1 74.1398 34.89C74.4798 34.73 74.7998 34.56 75.1398 34.46C76.3698 34.12 77.5798 34.01 78.7698 33.98C79.2998 33.97 79.8298 33.91 80.3498 33.91C80.6898 33.92 81.0298 33.91 81.3698 33.99C81.7098 34.09 82.0298 34.24 82.3398 34.44C82.5298 34.57 82.4498 34.75 82.2298 34.98C82.0098 35.19 81.6598 35.57 81.3298 35.71C80.7298 35.89 80.1698 35.95 79.5798 35.96C78.9898 35.98 78.3998 36 77.7698 36.01C77.0298 36.02 76.3298 36.36 75.6798 36.63C74.9798 36.93 74.2298 37.25 73.8298 37.75C73.5498 38.06 73.3098 38.47 73.1598 38.94C72.9098 39.63 72.7598 40.41 72.7798 41.19C72.7798 41.8 72.9898 42.38 73.1198 42.96C73.1298 43.09 73.1698 43.21 73.1698 43.34C73.1898 43.58 73.1498 43.75 73.0398 43.89C72.9498 44.02 72.8198 44.12 72.6498 44.22C72.5698 44.26 72.4998 44.32 72.4298 44.35C72.1998 44.46 71.8798 44.32 71.5298 43.97C71.3398 43.7 71.1598 43.41 71.0098 43.12C70.9098 42.82 70.8398 42.5 70.7798 42.18C70.6698 41.54 70.6498 40.87 70.6998 40.2C70.7798 39.19 70.9998 38.15 71.5598 37.1L71.6098 37.12V37.1Z" fill="#231F20"/>
<path d="M107.31 42.01C107.26 42.24 107.19 42.48 107.13 42.72C107.04 42.96 106.94 43.19 106.83 43.44C106.6 43.91 106.29 44.46 105.77 44.94C105.5 45.15 105.27 45.41 104.98 45.6C103.95 46.27 102.72 46.73 101.51 46.81C100.98 46.86 100.44 46.89 99.9299 46.81C99.5999 46.76 99.2799 46.72 98.9699 46.6C98.6699 46.46 98.3799 46.29 98.1099 46.11C97.9399 45.99 97.9799 45.98 98.1599 45.91C98.3399 45.85 98.6899 45.66 99.0499 45.52C99.3599 45.4 99.6399 45.41 99.9099 45.31C100.18 45.25 100.44 45.15 100.69 45.13C101.19 45.06 101.67 44.95 102.17 44.83C102.8 44.7 103.29 44.19 103.79 43.74C103.93 43.62 104.08 43.47 104.19 43.36C104.22 43.32 104.24 43.29 104.28 43.25C104.31 43.2 104.34 43.13 104.38 43.08C104.52 42.83 104.63 42.48 104.74 42.12C104.89 41.68 105 41.2 105.08 40.71C105.19 39.97 105.28 39.2 105.23 38.44C105.18 37.85 104.99 37.29 104.88 36.74C104.85 36.62 104.81 36.5 104.79 36.38C104.77 36.27 104.77 36.17 104.77 36.09C104.79 36 104.86 35.93 104.91 35.86C105.02 35.73 105.17 35.63 105.36 35.53C105.45 35.48 105.53 35.43 105.61 35.39C105.87 35.27 106.21 35.39 106.6 35.73C106.93 36.27 107.17 36.83 107.35 37.42C107.48 38.01 107.54 38.62 107.57 39.23C107.6 40.14 107.52 41.06 107.37 42.01H107.31Z" fill="#231F20"/>
<path d="M84.3898 25.4099C84.6798 24.4399 85.0198 23.4299 85.9198 22.4299C86.2598 22.0899 86.5998 21.7799 86.9998 21.5899C88.3998 20.9599 89.7298 21.0299 90.9598 21.0799C91.5098 21.1099 92.0598 21.1199 92.5998 21.1999C92.9498 21.2399 93.2998 21.2699 93.6398 21.3499C93.9898 21.4899 94.2798 21.6999 94.6298 22.0099C94.6698 22.0599 94.7698 22.1399 94.7598 22.1899C94.7498 22.2499 94.7198 22.2799 94.6898 22.2999C94.6298 22.3399 94.5198 22.3399 94.4098 22.4399C94.1898 22.5899 93.8098 22.9699 93.4398 23.1599C92.8198 23.2099 92.1998 23.2599 91.5898 23.2699C90.9998 23.2299 90.3998 23.1799 89.7698 23.1399C89.0298 23.0799 88.3698 23.4299 87.8698 23.6999C87.5898 23.8599 87.4098 24.0299 87.1998 24.3299C86.9898 24.6099 86.8198 24.9899 86.6698 25.3799C86.4798 25.8599 86.3198 26.3799 86.1898 26.9099C86.0098 27.7199 85.8498 28.5499 85.7998 29.3899C85.7798 30.0399 85.8198 30.6899 85.7698 31.3399C85.7698 31.4799 85.7698 31.6299 85.7498 31.7699C85.6598 32.3099 85.4798 32.5099 85.1698 32.5799C85.0998 32.5899 85.0298 32.6099 84.9598 32.6099C84.7398 32.5899 84.5898 32.3999 84.4398 32.0099C84.2598 31.4399 84.1198 30.8299 83.9998 30.2099C83.9198 29.5899 83.9398 28.9499 83.9598 28.3099C83.9998 27.3499 84.1298 26.3899 84.3498 25.3899H84.3998L84.3898 25.4099Z" fill="#231F20"/>
<path d="M37.16 45.89C36.63 45.12 36.16 44.3 35.65 43.53C35.46 43.24 35.23 42.99 35.05 42.7C34.41 41.68 33.79 40.65 33.14 39.65C32.85 39.21 32.56 38.76 32.25 38.33C31.86 37.78 31.46 37.23 31.18 36.6C31.09 36.4 31.25 36.32 31.52 36.35C31.78 36.38 32.18 36.49 32.47 36.75C32.97 37.23 33.47 37.71 33.94 38.21C34.41 38.71 34.77 39.3 35.14 39.89C35.57 40.6 36.19 41.21 36.71 41.87L38.42 44.08L39.45 45.46C39.98 46.14 40.5 46.85 41.08 47.48C41.54 47.96 42.09 48.36 42.56 48.82C42.67 48.92 42.79 49 42.88 49.11C43.25 49.51 43.25 49.73 42.92 50.19C42.85 50.29 42.78 50.4 42.7 50.5C42.43 50.82 42.02 50.88 41.64 50.68C41.08 50.37 40.56 50.01 40.07 49.61C39.62 49.17 39.21 48.69 38.81 48.2C38.22 47.47 37.67 46.7 37.11 45.94L37.15 45.91L37.16 45.89Z" fill="#231F20"/>
<path d="M41.9099 40.65C41.5799 40.15 41.2499 39.64 40.8999 39.15C40.7699 38.97 40.6099 38.82 40.4799 38.64C40.0399 37.99 39.6199 37.33 39.2099 36.65C39.0199 36.36 38.8099 36.08 38.5899 35.81C38.3099 35.46 38.0099 35.13 37.8699 34.69C37.8199 34.55 38.0399 34.43 38.3099 34.37C38.5799 34.31 38.9299 34.31 39.1099 34.48C39.7399 35.08 40.3699 35.68 40.8499 36.43C41.1099 36.91 41.5499 37.26 41.8999 37.67C42.2799 38.13 42.6699 38.6 43.0499 39.07C43.2899 39.36 43.4999 39.67 43.7299 39.97C44.0699 40.42 44.3999 40.89 44.7699 41.32C45.0599 41.65 45.4199 41.92 45.7299 42.24C45.7999 42.31 45.8699 42.38 45.9199 42.46C46.1199 42.78 46.0799 42.94 45.8199 43.22C45.7599 43.28 45.6999 43.35 45.6399 43.4C45.4199 43.58 45.1399 43.61 44.8899 43.48C44.1299 43.13 43.6299 42.56 43.0599 42C42.6499 41.58 42.2699 41.12 41.8599 40.68L41.8899 40.65H41.9099Z" fill="#231F20"/>
<path d="M85.2399 95.24L83.4499 92.44C83.2299 92.1 82.9599 91.8 82.7499 91.46C81.9699 90.27 81.2699 89.02 80.4999 87.83C80.1599 87.3 79.7799 86.8 79.3999 86.31C78.8999 85.69 78.4499 85.02 78.0599 84.31C77.9399 84.08 78.0799 84.02 78.3499 84.07C78.6199 84.12 79.0699 84.26 79.4299 84.56C80.0799 85.09 80.6299 85.7 81.1599 86.33C81.6899 86.96 82.1999 87.61 82.6499 88.3C83.1999 89.12 83.8899 89.89 84.4999 90.69L86.4699 93.37L87.6899 95.01C88.3099 95.83 88.9299 96.66 89.5999 97.43C90.1099 98.04 90.7499 98.51 91.2699 99.09C91.3799 99.22 91.4999 99.34 91.6099 99.48C91.9899 100 92.0099 100.26 91.7599 100.66C91.6999 100.75 91.6599 100.85 91.5899 100.93C91.3799 101.2 90.9799 101.2 90.5299 100.96C90.1899 100.78 89.8499 100.6 89.5199 100.4C89.1899 100.2 88.9299 99.94 88.6499 99.69C88.0999 99.18 87.5699 98.64 87.1299 98.02C86.4499 97.13 85.8299 96.19 85.1899 95.27L85.2299 95.24H85.2399Z" fill="#231F20"/>
<path d="M91.1302 91.3C90.8802 90.82 90.6302 90.35 90.3602 89.89C90.2602 89.72 90.1302 89.58 90.0302 89.41C89.6902 88.81 89.3502 88.21 88.9802 87.63C88.8302 87.36 88.6502 87.12 88.4702 86.88C88.2402 86.57 87.9902 86.27 87.8302 85.91C87.7802 85.8 87.8802 85.73 88.0602 85.71C88.2302 85.7 88.5002 85.71 88.6802 85.85C89.3202 86.34 89.9702 86.83 90.3502 87.55C90.5902 87.97 90.9802 88.3 91.2802 88.68C91.6202 89.1 91.9402 89.53 92.2602 89.97C92.4602 90.24 92.6502 90.51 92.8402 90.77C93.1502 91.17 93.4102 91.6 93.7202 91.99C93.9502 92.3 94.3002 92.52 94.5402 92.83C94.5902 92.9 94.6502 92.96 94.6902 93.03C94.8402 93.31 94.8002 93.47 94.5302 93.73C94.4702 93.79 94.4102 93.85 94.3502 93.91C94.1402 94.09 93.8602 94.12 93.6202 94.02C92.8302 93.76 92.4102 93.21 91.9302 92.68C91.6102 92.26 91.3902 91.77 91.1002 91.32L91.1302 91.29V91.3Z" fill="#231F20"/>
<path d="M17.7599 38.85C17.7599 36.05 17.8399 33.26 18.0299 30.44C18.1299 29.03 18.2499 27.62 18.4399 26.2C18.5399 25.49 18.6499 24.77 18.7899 24.04C18.8799 23.67 18.9399 23.31 19.0499 22.93L19.2099 22.35C19.2799 22.1 19.4099 21.78 19.5099 21.49C19.8599 20.54 20.8099 20.01 21.7399 19.69C22.4799 19.45 23.0399 19.34 23.6499 19.23C24.8399 19.02 25.9999 18.9 27.1499 18.81C30.0499 18.58 32.9099 18.41 35.7699 18.41C40.0899 18.41 44.3999 18.57 48.6999 18.89C50.8499 19.07 52.9999 19.29 55.1599 19.59C56.2399 19.74 57.3199 19.91 58.4099 20.14C58.9599 20.26 59.4999 20.39 60.0699 20.56C60.3599 20.65 60.6299 20.74 60.9699 20.89C61.3399 21.06 61.7099 21.28 61.9899 21.58C62.3299 22.02 62.6099 22.55 62.7099 22.9C62.8699 23.3 62.9499 23.67 63.0499 24.05C63.2299 24.8 63.3399 25.54 63.4399 26.27C63.9799 30.8 63.9899 35.27 63.9399 39.69C63.8799 42.53 63.8299 45.38 63.5699 48.21C63.3499 51.05 62.9299 53.88 62.1599 56.64C61.6699 58.36 61.6999 58.11 61.5899 56.6C61.5299 55.84 61.3499 54.76 61.2099 53.47C61.1399 52.83 61.0299 52.12 60.9899 51.39C60.9699 50.65 60.9599 49.88 60.9899 49.07C61.0099 47.95 61.0499 46.84 61.0399 45.72L61.1399 42.38C61.1799 40.15 61.1899 37.92 61.1499 35.7C61.0999 33.48 61.0299 31.26 60.8599 29.08C60.7699 27.99 60.6599 26.91 60.4999 25.88C60.4099 25.37 60.3199 24.86 60.1899 24.42C60.1299 24.18 60.0599 24 59.9899 23.81C59.8999 23.61 59.9399 23.67 59.8999 23.61C59.8599 23.56 59.8999 23.56 59.7599 23.5C59.5599 23.42 59.3199 23.34 59.0499 23.26C58.5199 23.11 57.9299 22.99 57.3399 22.88C56.1499 22.66 54.9199 22.49 53.6799 22.34C46.8799 21.59 39.6299 21.49 32.6099 21.69C30.6399 21.75 28.6699 21.84 26.7399 22.03C25.7799 22.12 24.8199 22.24 23.9099 22.42C23.6899 22.47 23.4699 22.51 23.2599 22.57C23.0599 22.62 22.8199 22.69 22.7599 22.71C22.5799 22.77 22.3799 22.86 22.3399 23.06C22.2999 23.13 22.1499 23.65 22.0599 24.06C21.9599 24.49 21.8699 24.94 21.7899 25.39C21.6299 26.29 21.5099 27.22 21.4099 28.15C21.2099 30.02 21.0899 31.91 21.0099 33.81C20.8199 38.58 20.8499 43.38 21.1099 48.14C21.2099 49.94 21.3499 51.75 21.5499 53.53C21.6599 54.41 21.7799 55.31 21.9599 56.14C22.0799 56.61 22.0999 56.76 22.2299 57C22.2899 57.12 22.4099 57.17 22.5299 57.2L22.9399 57.35C24.5699 57.8 26.3699 58.06 28.1499 58.25C29.9399 58.45 31.7399 58.58 33.5299 58.68C39.1199 58.99 44.6299 58.83 50.1499 58.62C51.3599 58.55 52.5499 58.48 53.7799 58.41C58.3099 58.16 59.6999 58.16 60.7699 58.85C61.0099 59 61.3299 59.13 61.4899 59.28C62.0499 59.72 60.2099 60.73 56.8099 61.08C51.7899 61.65 46.6499 61.8 41.4299 61.79C36.1999 61.73 30.9299 61.62 25.5099 60.91L23.9799 60.68L22.3799 60.33C22.2599 60.31 22.0899 60.25 21.9399 60.2L21.3299 59.97C20.8499 59.79 20.3899 59.64 20.1399 59.22C19.7999 58.9 19.5299 58.51 19.3799 58.04C19.2899 57.82 19.1799 57.58 19.1399 57.38L19.0199 56.93C18.5299 54.76 18.3599 52.81 18.1699 50.8C17.8399 46.81 17.6999 42.86 17.6699 38.89H17.7499L17.7599 38.85Z" fill="#231F20"/>
<path d="M20.2799 88.58C20.2599 91.62 20.2999 94.66 20.4599 97.67C20.5399 99.18 20.6499 100.68 20.8099 102.15C20.8899 102.89 20.9799 103.61 21.0999 104.32C21.1599 104.67 21.2299 105.02 21.2999 105.35L21.4699 106.02C21.4699 106.11 21.5499 106.17 21.6199 106.21C21.6699 106.24 21.6599 106.23 21.7499 106.27C21.8899 106.32 22.0299 106.37 22.1899 106.42C22.8099 106.61 23.5199 106.76 24.2399 106.89C26.8799 107.35 29.6499 107.49 32.3999 107.68C37.2599 108.01 42.1699 108.08 47.0499 108C49.4899 107.95 51.9299 107.85 54.3099 107.57C54.8999 107.5 55.4899 107.41 56.0599 107.29C56.5999 107.18 57.2299 107.02 57.5799 106.87C57.7099 106.82 57.8299 106.75 57.9299 106.65C57.9699 106.59 57.9899 106.53 58.0099 106.46L58.0999 106.19C58.2599 105.64 58.3999 105.06 58.5199 104.48C59.3699 100.28 59.7499 95.89 59.9899 91.59C60.1399 88.82 60.1399 86.04 60.1899 83.27V81.19C60.2199 80.5 60.1499 79.81 60.2199 79.11L60.3599 74.93C60.4299 73.18 60.4599 73.4 60.9299 74.84C61.1699 75.56 61.5699 76.58 61.9199 77.84C62.1099 78.47 62.2999 79.15 62.4399 79.89C62.5599 80.63 62.6499 81.41 62.6999 82.22C62.9099 85.11 62.9099 88 62.7999 90.88C62.6999 93.77 62.5099 96.65 62.1899 99.54C62.0299 100.98 61.8099 102.43 61.5599 103.88C61.4099 104.61 61.2899 105.33 61.0999 106.09C61.0099 106.48 60.9299 106.79 60.7699 107.28C60.6699 107.61 60.5799 107.93 60.3899 108.2C60.2599 108.51 59.9799 108.72 59.7399 108.94C59.2299 109.35 58.4999 109.62 58.1599 109.73C57.7399 109.87 57.3499 109.96 56.9599 110.05C56.1899 110.22 55.4399 110.33 54.6999 110.44C53.2199 110.64 51.7499 110.75 50.2899 110.83C46.7999 111.02 43.2599 111.11 39.6999 111.08C36.1399 111.06 32.5599 110.98 29.0099 110.67C27.3599 110.53 25.7099 110.35 24.0399 110.07C23.1999 109.93 22.3699 109.77 21.4899 109.52C20.8299 109.32 19.0399 108.84 18.6599 107.57L18.4499 106.93L18.3299 106.46C18.2499 106.16 18.1799 105.87 18.1299 105.58C18.0099 104.99 17.9199 104.42 17.8399 103.85C17.6799 102.7 17.5799 101.57 17.4899 100.43C17.3199 98.16 17.2399 95.91 17.1999 93.66C17.1199 88.87 17.2299 84.08 17.4999 79.3C17.6099 77.49 17.7399 75.68 17.9599 73.85C18.0799 72.93 18.1899 72.03 18.4399 71.05C18.5999 70.42 18.8699 69.78 19.4499 69.46C20.0299 69.07 20.4999 68.91 20.9699 68.75C22.8399 68.17 24.6599 67.96 26.4899 67.78C28.3099 67.62 30.1199 67.53 31.9199 67.47C37.5199 67.33 42.9999 67.31 48.5399 67.62C49.7599 67.69 50.9499 67.74 52.1799 67.85C56.7299 68.3 58.1899 68.81 58.9799 69.82C59.1599 70.04 59.4099 70.28 59.4999 70.47C59.7699 71.09 57.9299 71.26 54.6799 70.98C49.8499 70.61 44.8399 70.41 39.7799 70.31C37.2499 70.26 34.6999 70.27 32.1599 70.36C29.6299 70.46 27.0799 70.61 24.6599 70.98C23.7799 71.13 22.8799 71.29 22.1399 71.53C21.9499 71.59 21.7999 71.66 21.6199 71.72C21.5199 71.75 21.4799 71.79 21.4099 71.82C21.3599 71.85 21.3899 71.82 21.3799 71.83C21.3599 71.88 21.3099 72.16 21.2699 72.34C21.2299 72.53 21.1999 72.77 21.1599 72.98C21.0999 73.42 21.0399 73.87 20.9899 74.34C20.8899 75.26 20.8199 76.21 20.7499 77.15C20.4999 80.94 20.3999 84.79 20.3999 88.62H20.3199L20.2799 88.58Z" fill="#231F20"/>
<path d="M111.15 90.01C111.07 93.72 110.9 97.42 110.48 101.16C110.25 103.04 110.01 104.89 109.42 106.88C109.39 107.07 109.17 107.54 109.03 107.89C108.91 108.28 108.65 108.61 108.34 108.86C107.76 109.38 106.82 109.7 106.41 109.83C105.38 110.14 104.44 110.31 103.48 110.47C100.72 110.89 98.0298 111.17 95.3098 111.29C90.9998 111.45 86.6998 111.43 82.3898 111.14C80.2398 110.98 78.0898 110.76 75.9198 110.41C74.8398 110.23 73.7598 110.01 72.6498 109.69C72.0998 109.53 71.5398 109.34 70.9498 109.04C70.2698 108.7 69.5298 108.11 69.3798 107.29L69.2098 106.46C69.1598 106.22 69.1298 105.99 69.0898 105.76C69.0198 105.3 68.9398 104.83 68.8898 104.37C68.3698 100.14 68.1998 95.92 68.1198 91.74C68.0898 89.06 68.0598 86.37 68.2398 83.68C68.3698 81 68.7298 78.32 69.4098 75.7C69.8298 74.07 69.8098 74.3 69.9798 75.73C70.0498 76.44 70.2698 77.46 70.4498 78.68C70.5298 79.29 70.6698 79.95 70.7298 80.64C70.7698 81.33 70.7898 82.06 70.7998 82.82L70.8398 88.8C70.8698 90.79 70.9098 92.79 70.9998 94.77C71.0798 96.76 71.2198 98.75 71.3798 100.72C71.4598 101.71 71.5498 102.69 71.6798 103.65C71.7398 104.14 71.7998 104.62 71.8798 105.09C71.9198 105.32 71.9498 105.57 71.9998 105.79L72.0998 106.27C72.0998 106.27 72.1098 106.36 72.1398 106.39C72.1698 106.41 72.1398 106.41 72.2198 106.45C72.3098 106.5 72.4398 106.55 72.5498 106.61C73.0598 106.82 73.6798 107 74.3198 107.14C75.5998 107.43 76.9698 107.63 78.3398 107.79C84.7198 108.47 91.5598 108.36 98.1398 107.87C99.9498 107.73 101.75 107.55 103.49 107.24C103.92 107.16 104.35 107.08 104.76 106.98C105.15 106.89 105.61 106.75 105.84 106.66C105.99 106.6 106.18 106.53 106.23 106.35L106.28 106.23C106.28 106.23 106.31 106.16 106.34 106.03L106.51 105.43C107.31 102.06 107.59 98.34 107.81 94.71C108.06 90.21 108.12 85.68 107.97 81.18C107.92 79.7 107.84 78.21 107.72 76.75C107.65 76.02 107.59 75.29 107.48 74.58C107.43 74.23 107.37 73.88 107.29 73.57C107.24 73.37 107.19 73.15 107.02 73.03C106.91 72.94 106.82 72.88 106.65 72.8C106.48 72.7 106.27 72.62 106.07 72.53C105.66 72.37 105.23 72.22 104.78 72.1C103.89 71.85 102.96 71.67 102.02 71.52C100.14 71.22 98.2298 71.04 96.3298 70.92C91.0798 70.61 85.8798 70.86 80.6998 71.27C79.5598 71.36 78.4498 71.5 77.2998 71.61C73.0598 72.04 71.7698 72.16 70.6998 71.5C70.4598 71.37 70.1498 71.26 69.9898 71.12C69.4398 70.71 71.0898 69.59 74.2998 69.09C79.0198 68.3 83.8898 67.97 88.8398 67.89C93.7998 67.89 98.7998 67.94 103.99 68.87C104.76 69.03 105.53 69.19 106.34 69.45C106.74 69.57 107.16 69.73 107.58 69.91C107.68 69.95 107.8 70.01 107.91 70.07L108.3 70.27C108.61 70.43 108.89 70.68 109.19 70.88C109.63 71.44 110.05 72.05 110.2 72.78C110.32 73.25 110.4 73.66 110.46 74.06C110.59 74.87 110.67 75.63 110.75 76.4C110.89 77.93 110.98 79.44 111.05 80.95C111.18 83.96 111.21 86.97 111.18 89.97H111.1L111.15 90.01Z" fill="#231F20"/>
<path d="M86.2498 60.68C85.9498 60.61 85.7498 60.54 85.2798 60.35C84.8598 60.21 84.5798 59.91 84.2298 59.69C84.0598 59.58 83.9398 59.4 83.7998 59.26C83.6598 59.11 83.5198 58.97 83.4398 58.78C83.2498 58.43 83.1298 58.03 83.0698 57.62C82.9798 57.16 82.9798 56.99 82.9598 56.72L82.9298 56C82.9098 55.53 82.9098 55.08 82.9098 54.62C82.9098 52.82 82.9798 51.06 83.0198 49.33C83.0198 48.9 83.0398 48.47 83.0598 48.04L83.0798 47.52C83.0798 47.46 83.1098 47.3 82.9998 47.32L82.7498 47.3L77.7098 47.34C76.3998 47.34 75.0998 47.34 73.6898 47.21C73.5098 47.19 73.3298 47.17 73.1398 47.14C72.8598 47.1 72.5798 47.04 72.3198 46.96C71.7898 46.8 71.2698 46.58 70.9198 46.16C70.5598 45.76 70.3498 45.24 70.1698 44.71C70.0898 44.4 70.0498 44.26 69.9998 44.07L69.8898 43.54C69.6398 42.09 69.5298 40.68 69.5898 39.21C69.6098 38.48 69.6998 37.73 69.8698 36.94C69.9698 36.52 70.0698 36.21 70.3098 35.64C70.5898 35.15 70.8898 34.69 71.2898 34.31C71.8098 33.9 72.4498 33.73 73.1298 33.63C73.6498 33.57 74.0598 33.55 74.4898 33.54C75.3498 33.52 76.1598 33.56 76.9798 33.6C78.5998 33.69 80.1998 33.83 81.7798 34L82.4298 34.07C82.5898 34.09 82.7598 34.11 82.9298 34.12C83.0498 34.16 83.0498 34.05 83.0398 33.97V33.73V33.21L83.0098 30.96V28.56C83.0098 27.39 83.0398 26.22 83.1098 25.03C83.1498 24.43 83.1998 23.83 83.2898 23.21C83.3698 22.68 83.5398 21.62 84.1198 21.02C84.3698 20.82 84.6098 20.61 84.9098 20.48L85.3298 20.25L85.7298 20.12C85.9798 20.03 86.2198 19.97 86.4598 19.93C86.6998 19.88 86.9398 19.83 87.1598 19.81C88.0898 19.68 88.9898 19.65 89.8698 19.69C90.8098 19.71 91.7298 19.81 92.6698 20.01C93.1398 20.11 93.6098 20.23 94.0898 20.39C94.3498 20.49 94.5698 20.56 94.8698 20.73C95.1698 20.86 95.4198 21.13 95.6798 21.35C96.5098 22.62 96.4798 23.54 96.5298 24.46C96.5398 25.38 96.4498 26.24 96.3398 27.09C96.0898 28.79 95.7698 30.43 95.3598 32.03C95.0098 33.55 94.8598 33.37 94.5598 31.98C94.4298 31.29 94.2098 30.28 94.1198 29.12C94.0098 27.96 93.9398 26.6 93.8398 25.28C93.7998 24.8 93.7498 24.31 93.6298 23.93C93.5898 23.72 93.5198 23.59 93.4698 23.44H93.4598C93.6898 23.51 92.8098 23.24 92.1198 23.18C91.7498 23.14 91.3798 23.09 90.9898 23.09C90.6098 23.04 90.2298 23.02 89.8498 23C89.0898 22.96 88.3298 22.98 87.6498 23.06C87.4698 23.08 87.3098 23.1 87.1698 23.14C87.0098 23.17 86.8598 23.2 86.7598 23.24C86.6098 23.29 86.6198 23.28 86.6198 23.28C86.6198 23.28 86.6098 23.28 86.5998 23.28C86.5898 23.28 86.5798 23.29 86.5698 23.3C86.5298 23.46 86.4598 23.81 86.4198 24.11C86.3298 24.74 86.2698 25.44 86.2298 26.14C86.1398 27.54 86.1098 28.99 86.0898 30.44L86.0698 32.63V34.29C86.0698 34.62 86.1198 34.98 86.0698 35.29L85.9698 35.72L85.8298 36.09C85.7398 36.32 85.6798 36.58 85.5198 36.72C85.2098 36.76 85.0698 36.89 84.8298 36.98C84.7098 37.03 84.5998 37.09 84.4798 37.13L84.0698 37.22C83.7498 37.22 83.4298 37.22 83.0998 37.18C81.5298 37.07 81.1498 37.03 80.3398 36.94C78.9998 36.79 77.6498 36.67 76.3098 36.62C75.6398 36.6 74.9798 36.59 74.3498 36.62C74.1998 36.63 74.0398 36.64 73.8898 36.65L73.5598 36.69C73.4498 36.71 73.3298 36.72 73.2498 36.8C73.1398 36.92 73.0898 36.99 73.0198 37.21C72.9198 37.5 72.8498 37.87 72.7898 38.25C72.6798 39.02 72.6598 39.86 72.6998 40.7C72.7398 41.54 72.8198 42.39 72.9798 43.18C73.0098 43.36 73.0698 43.62 73.0998 43.7C73.1198 43.77 73.1398 43.84 73.1698 43.91C73.2098 44.07 73.3798 44.12 73.5198 44.15C73.5498 44.16 74.0698 44.27 74.4398 44.31C74.8498 44.36 75.2598 44.4 75.6798 44.43C76.5298 44.49 77.3898 44.52 78.2598 44.54C79.1298 44.57 79.9998 44.56 80.8798 44.54L84.0898 44.51C84.4598 44.5 84.7298 44.63 85.0098 44.71C85.1398 44.76 85.2798 44.8 85.4098 44.86C85.5098 44.97 85.5798 45.12 85.6498 45.24C85.9598 45.72 85.9898 46.45 86.0398 47.14L86.0698 48.69L86.0498 50.02C86.0098 51.79 85.9598 53.55 85.9898 55.26C85.9898 55.76 86.0198 56.26 86.0598 56.72C86.0898 56.99 86.0798 57.01 86.1098 57.16C86.1198 57.29 86.1998 57.38 86.2898 57.46C86.5098 57.62 86.5998 57.69 87.0798 57.83C87.4798 57.96 87.9498 58.03 88.4198 58.08C89.3598 58.19 90.3498 58.15 91.3198 58.06C91.8098 58.01 92.2898 57.94 92.7498 57.85L92.9898 57.8C93.0498 57.79 93.1198 57.76 93.1798 57.75C93.3098 57.71 93.4298 57.67 93.5398 57.58C93.5898 57.49 93.6198 57.38 93.6398 57.28C93.6698 57.18 93.6698 57.07 93.6798 56.97C93.6998 56.83 93.7098 56.6 93.7198 56.41C93.7498 56.02 93.7598 55.61 93.7698 55.21C93.7898 54.4 93.7998 53.59 93.7998 52.77V47.75L93.8298 46.87L93.9698 46.06C94.0498 45.82 94.0798 45.56 94.2398 45.36C94.4798 45.24 94.6898 45.19 94.9398 45.12C95.4498 45.02 96.0698 45.07 96.6498 45.09L97.9398 45.15C99.5598 45.21 101.19 45.26 102.73 45.12C103.22 45.07 103.71 45.01 104.14 44.89C104.37 44.83 104.54 44.77 104.65 44.72C104.78 44.66 104.89 44.58 104.98 44.46C105.06 44.34 105.11 44.22 105.15 44.09C105.19 43.91 105.26 43.7 105.29 43.48C105.37 43.04 105.42 42.57 105.44 42.1C105.49 41.16 105.47 40.2 105.38 39.27C105.34 38.8 105.28 38.34 105.18 37.91C105.16 37.8 105.14 37.69 105.11 37.59L105.07 37.44C105.03 37.34 105 37.24 104.94 37.15C104.85 36.94 104.59 36.93 104.4 36.93H103.89C103.66 36.92 103.42 36.93 103.18 36.93C102.12 36.96 101.06 37.06 99.9598 37.12C95.8798 37.37 94.5298 37.22 93.5998 36.38C93.3898 36.19 93.1198 36 92.9898 35.8C92.5898 35.14 94.1998 34.53 97.2198 34.16C98.6698 33.98 100.13 33.88 101.64 33.8C102.4 33.76 103.16 33.74 103.96 33.76H104.27C104.38 33.76 104.44 33.77 104.64 33.8C104.98 33.85 105.33 33.86 105.66 33.94C105.97 34.06 106.29 34.14 106.58 34.3C106.65 34.34 106.73 34.37 106.8 34.42L106.97 34.6C107.09 34.72 107.2 34.84 107.3 34.97L107.6 35.37L107.8 35.85C107.95 36.16 108.04 36.49 108.12 36.87C108.2 37.18 108.21 37.34 108.25 37.57C108.29 37.79 108.32 38 108.34 38.21C108.44 39.05 108.47 39.87 108.46 40.69C108.46 41.51 108.41 42.33 108.29 43.2C108.23 43.63 108.15 44.07 108.03 44.55L107.93 44.91C107.9 45.03 107.79 45.24 107.73 45.4C107.6 45.75 107.4 46.07 107.2 46.38C106.93 46.67 106.62 46.95 106.27 47.15C105.95 47.35 105.47 47.53 105.21 47.6C104.65 47.77 104.15 47.86 103.67 47.92C102.71 48.04 101.82 48.08 100.93 48.1C100.05 48.11 99.1798 48.1 98.3198 48.07L97.0398 48.02H96.7398V48.01C96.7398 48.01 96.7398 47.89 96.7398 48.29L96.7698 51.62C96.7798 52.74 96.7698 53.87 96.7498 55.02C96.7298 55.6 96.7098 56.18 96.6698 56.79C96.6698 56.95 96.6498 57.06 96.6298 57.29C96.5998 57.58 96.5798 57.86 96.5198 58.12C96.3498 58.62 96.1698 59.1 95.9198 59.55C95.4598 59.94 94.9898 60.29 94.3598 60.48C94.0898 60.6 93.7098 60.67 93.4798 60.73C93.2798 60.78 93.0998 60.81 92.9198 60.84C92.1798 60.97 91.4798 61.04 90.7598 61.08C89.3098 61.12 87.9098 61.2 86.2398 60.8V60.72L86.2498 60.68Z" fill="#231F20"/>
<path d="M4.22015 18.88C4.05015 18.92 3.94015 18.74 3.85015 18.47C3.82015 18.38 3.85015 18.15 3.91015 18.11C4.01015 18.05 4.11015 17.98 4.21015 17.93C4.27015 17.91 5.21015 17.75 5.53015 17.66C5.84015 17.58 6.15015 17.55 6.46015 17.54C7.09015 17.49 7.70015 17.57 8.32015 17.6C8.46015 17.61 8.59015 17.64 8.72015 17.7C9.16015 17.9 9.62015 17.97 10.0901 17.98C10.1701 17.98 10.2501 18.01 10.3401 17.93C10.4901 17.81 11.7601 17.97 11.9101 18.07C12.0901 18.19 12.2801 18.29 12.4601 18.39C12.6401 18.51 12.8201 18.63 13.0001 18.76C13.0501 18.8 13.1201 18.78 13.1401 18.9C13.1901 19.18 13.3301 19.18 13.4401 19.23C13.6001 19.31 13.7601 19.37 13.9001 19.54C13.9701 19.62 14.0101 19.79 14.0601 19.92C14.1101 20.04 13.9801 20.35 13.9401 20.38C13.8401 20.47 13.8501 20.64 13.8201 20.78C13.8101 20.83 13.8001 20.89 13.7801 20.93C13.7701 20.96 13.4601 21.14 13.1701 21.25C12.8701 21.36 12.5701 21.46 12.5201 21.45C12.5101 21.45 12.1501 21.43 11.7601 21.4C11.3801 21.36 11.0001 21.28 10.9201 21.29C10.8301 21.29 10.7701 21.21 10.6901 21.15C10.6601 21.12 9.53015 20.99 9.49015 20.97C9.27015 20.88 9.03015 20.89 8.84015 20.63C8.80015 20.58 8.76015 20.58 8.71015 20.57C8.31015 20.49 7.94015 20.31 7.56015 20.17C7.36015 20.09 7.16015 20.07 6.96015 20.02C6.92015 20.02 6.89015 19.98 6.86015 19.95C6.82015 19.92 6.77015 19.89 6.73015 19.88C6.25015 19.78 5.80015 19.52 5.31015 19.44C5.20015 19.41 4.70015 19.11 4.57015 19.1C4.50015 19.09 4.29015 18.83 4.22015 18.85V18.88Z" fill="#231F20"/>
<path d="M7.49015 8.17997C7.32015 8.08997 7.40016 7.85997 7.59016 7.56997C7.65016 7.47997 7.91015 7.29997 7.97015 7.30997C8.10015 7.32997 8.23016 7.34997 8.35016 7.37997C8.41016 7.40997 9.20016 7.94997 9.50015 8.09997C9.79015 8.24997 10.0302 8.43997 10.2602 8.63997C10.7402 9.03997 11.2302 9.40997 11.6402 9.85997C11.7302 9.95997 11.8102 10.07 11.8602 10.2C12.0502 10.65 12.3602 10.99 12.7202 11.3C12.7802 11.35 12.8202 11.42 12.9502 11.41C13.1502 11.4 14.0502 12.29 14.1102 12.45C14.2702 12.85 14.4002 13.28 14.5502 13.69C14.5702 13.75 14.6402 13.77 14.5902 13.89C14.4802 14.16 14.5902 14.23 14.6502 14.34C14.7402 14.49 14.8202 14.66 14.8702 14.85C14.8902 14.95 14.8502 15.11 14.8202 15.25C14.8002 15.38 14.5202 15.58 14.4702 15.59C14.3302 15.61 14.2602 15.77 14.1502 15.88C14.1202 15.92 14.0702 15.96 14.0402 15.99C13.9802 16.04 12.7302 15.8 12.6502 15.72C12.6402 15.72 12.3202 15.49 11.9802 15.25C11.6202 15.03 11.3502 14.72 11.2702 14.68C11.1902 14.63 11.1802 14.52 11.1602 14.42C11.1402 14.38 10.2302 13.58 10.2102 13.54C10.0802 13.33 9.85015 13.19 9.87015 12.85C9.87015 12.78 9.83016 12.75 9.80016 12.71C9.51016 12.39 9.31016 12 9.10016 11.63C8.99016 11.43 8.82016 11.29 8.72016 11.1C8.70016 11.07 8.70015 11.01 8.69015 10.97C8.68015 10.92 8.67016 10.86 8.64016 10.81C8.35016 10.37 8.16016 9.86997 7.84016 9.45997C7.77016 9.35997 7.63015 8.74997 7.54015 8.64997C7.49015 8.58997 7.56015 8.22997 7.49015 8.18997V8.17997Z" fill="#231F20"/>
<path d="M20.8402 15.16C20.9102 15.35 20.6402 15.46 20.2502 15.55C20.1202 15.58 19.7702 15.53 19.7202 15.47C19.6202 15.36 19.5102 15.24 19.4302 15.12C19.3802 15.05 19.1002 13.99 19.0002 13.62C18.8902 13.26 18.8702 12.92 18.8602 12.57C18.8102 11.86 18.9202 11.18 19.0002 10.48C19.0202 10.33 19.0702 10.18 19.1602 10.04C19.4502 9.56004 19.5502 9.05004 19.6202 8.51004C19.6302 8.42004 19.6802 8.34004 19.6002 8.23004C19.4502 8.05004 19.9002 6.64004 20.0502 6.48004C20.4102 6.10004 20.7002 5.69004 21.0402 5.31004C21.1002 5.26004 21.1002 5.18004 21.2502 5.18004C21.5902 5.17004 21.6202 5.02004 21.7202 4.91004C21.8502 4.75004 22.0002 4.59004 22.1902 4.46004C22.2802 4.39004 22.4702 4.38004 22.6102 4.35004C22.7502 4.33004 23.0402 4.55004 23.0602 4.59004C23.1202 4.72004 23.3102 4.75004 23.4502 4.82004C23.5002 4.84004 23.5602 4.87004 23.5902 4.90004C23.6302 4.93004 23.6902 5.26004 23.7702 5.59004C23.8602 5.93004 23.9702 6.27004 23.9602 6.32004C23.9602 6.32004 23.9602 6.43004 23.9402 6.58004C23.9102 6.72004 23.8702 6.90004 23.8302 7.10004C23.7602 7.49004 23.7002 7.90004 23.7102 7.99004C23.7102 8.08004 23.6202 8.14004 23.5502 8.22004C23.5102 8.25004 23.4302 9.47004 23.4202 9.52004C23.3302 9.75004 23.3502 10.02 23.0202 10.19C22.9602 10.22 22.9502 10.28 22.9402 10.33C22.8602 10.76 22.6402 11.15 22.4602 11.56C22.3702 11.77 22.3502 11.99 22.2902 12.21C22.2802 12.25 22.2302 12.28 22.2102 12.32C22.1802 12.37 22.1302 12.41 22.1202 12.46C21.9902 12.98 21.6802 13.47 21.6202 14C21.5902 14.12 21.2102 14.66 21.1902 14.8C21.1702 14.88 20.8002 15.09 20.8302 15.17L20.8402 15.16Z" fill="#231F20"/>
<path d="M109.64 112.66C109.54 112.47 109.73 112.28 110.05 112.14C110.15 112.09 110.47 112.09 110.52 112.14C110.62 112.23 110.73 112.32 110.81 112.4C110.83 112.45 111.29 113.33 111.5 113.61C111.7 113.89 111.84 114.18 111.97 114.48L112.39 115.4L112.73 116.36C112.78 116.5 112.8 116.66 112.8 116.81C112.78 117.35 112.92 117.86 113.11 118.37C113.14 118.45 113.15 118.55 113.27 118.61C113.51 118.69 113.73 120.2 113.67 120.42C113.53 120.94 113.45 121.45 113.3 121.97C113.28 122.04 113.32 122.12 113.19 122.18C112.9 122.33 112.91 122.48 112.86 122.64C112.8 122.85 112.7 123.06 112.56 123.26C112.49 123.36 112.33 123.43 112.21 123.5C112.1 123.56 111.79 123.43 111.76 123.39C111.67 123.28 111.51 123.31 111.38 123.28C111.33 123.28 111.28 123.26 111.24 123.24C111.2 123.23 111.06 122.94 110.9 122.68C110.71 122.4 110.51 122.16 110.5 122.11C110.47 122.1 110.43 121.76 110.35 121.4C110.27 121.04 110.15 120.65 110.11 120.57C110.07 120.49 110.12 120.4 110.15 120.31C110.15 120.27 109.74 119.14 109.76 119.08C109.76 118.83 109.62 118.6 109.8 118.29C109.84 118.23 109.81 118.18 109.8 118.13C109.69 117.7 109.7 117.24 109.66 116.78C109.64 116.55 109.57 116.32 109.53 116.09C109.53 116.05 109.55 116 109.56 115.95C109.57 115.89 109.59 115.83 109.58 115.78C109.5 115.23 109.53 114.64 109.4 114.08C109.38 113.94 109.51 113.28 109.48 113.12C109.47 113.03 109.69 112.71 109.65 112.64L109.64 112.66Z" fill="#231F20"/>
<path d="M114.47 108.64C114.28 108.67 114.23 108.33 114.21 107.97C114.21 107.85 114.3 107.56 114.36 107.51C114.49 107.4 114.61 107.29 114.7 107.21C114.78 107.1 115.59 107.09 115.88 106.99C116.15 106.93 116.42 106.92 116.69 106.94C117.24 106.95 117.8 106.94 118.38 106.91C118.51 106.91 118.63 106.93 118.76 106.97C119.2 107.11 119.64 107.15 120.1 107.12C120.18 107.12 120.25 107.13 120.33 107.06C120.45 106.93 121.71 107.01 121.88 107.09C122.08 107.19 122.28 107.27 122.48 107.35C122.68 107.45 122.87 107.55 123.07 107.66C123.13 107.69 123.19 107.68 123.23 107.78C123.32 108.01 123.45 108.01 123.57 108.06C123.74 108.12 123.9 108.21 124.06 108.32C124.14 108.38 124.19 108.5 124.25 108.61C124.3 108.7 124.19 108.95 124.15 108.97C124.05 109.03 124.08 109.17 124.05 109.28C124.05 109.32 124.03 109.36 124.02 109.39C124.01 109.42 123.74 109.51 123.49 109.6C123.23 109.7 122.96 109.81 122.92 109.8C122.92 109.8 122.57 109.83 122.22 109.87C121.87 109.89 121.5 109.91 121.42 109.93C121.34 109.95 121.27 109.89 121.19 109.86C121.16 109.84 120.07 109.98 120.02 109.98C119.8 109.95 119.56 110.03 119.34 109.83C119.3 109.79 119.25 109.8 119.2 109.8C118.8 109.82 118.4 109.71 118 109.63C117.8 109.59 117.58 109.6 117.37 109.58C117.33 109.58 117.3 109.54 117.26 109.53C117.21 109.51 117.17 109.48 117.12 109.48C116.62 109.45 116.13 109.29 115.6 109.29C115.48 109.29 114.95 108.98 114.81 108.97C114.73 108.97 114.55 108.62 114.47 108.65V108.64Z" fill="#231F20"/>
</svg>
