<svg width="128" height="128" viewBox="0 0 128 128" fill="none" xmlns="http://www.w3.org/2000/svg">
<path d="M102.72 34.6801C102.286 34.3103 101.778 34.0375 101.23 33.8801C100.658 33.6808 100.069 33.5335 99.4701 33.4401C98.2498 33.237 97.0168 33.12 95.7801 33.0901C93.2883 33.0312 90.7954 33.1482 88.3201 33.4401C87.9201 33.5101 87.7201 30.8701 88.1601 30.8901C90.7587 30.8713 93.3553 31.0384 95.9301 31.3901C97.2278 31.5633 98.5112 31.8307 99.7701 32.1901C100.414 32.3696 101.043 32.6004 101.65 32.8801C102.295 33.1609 102.874 33.573 103.35 34.0901C103.78 34.6301 103.05 35.0001 102.72 34.6801Z" fill="#231F20"/>
<path d="M24.4202 73.7501L23.8602 59.7501L23.6102 54.6401C23.4202 48.6401 23.2902 42.6401 23.1802 36.6401C23.1802 33.9801 23.0302 31.3001 22.9402 28.6401C22.6758 25.2444 22.6959 21.8325 23.0002 18.4401C23.1302 17.3801 23.4402 17.5201 23.8902 18.4401C24.175 19.0387 24.4254 19.653 24.6402 20.2801C24.8917 21.1356 25.0361 22.019 25.0702 22.9101C25.3502 29.8201 25.4902 36.7301 25.4802 43.7201C25.4802 47.8901 25.7702 52.2301 25.9402 56.5001L26.5302 70.5801L27.0002 79.2301C27.2402 83.6001 27.4602 88.0001 27.7802 92.3301C28.0402 95.7001 28.4302 99.0001 28.7802 102.33C28.8702 103.06 28.9502 103.77 29.0302 104.51C29.2102 107.25 29.1102 108.13 28.5902 108.76C28.4802 108.91 28.3902 109.1 28.3002 109.19C28.0402 109.53 27.3702 108.4 27.0602 106.41C26.0602 100.48 25.6502 94.1901 25.2002 87.8801C24.8802 83.1901 24.6402 78.4701 24.3902 73.7701L24.4202 73.7501Z" fill="#231F20"/>
<path d="M99.8303 82.7601C100.83 70.5001 101.83 58.2401 102.65 45.9901C102.79 43.7601 102.9 41.5201 102.97 39.3001C102.97 38.1901 103.04 37.0701 103.04 35.9801C103.04 35.4301 103.04 34.8901 103.04 34.3601C103.04 34.1001 103.04 33.8201 103.04 33.6301C103.057 33.5611 103.057 33.489 103.04 33.42L102.94 33.3301L102.73 33.2101C102.47 33.0752 102.199 32.9615 101.92 32.8701C101.297 32.6597 100.659 32.4992 100.01 32.3901C98.6063 32.1739 97.1903 32.0436 95.7703 32.0001C94.3603 31.9301 92.9403 31.9101 91.5103 31.9301L89.3703 31.9901C88.3103 31.9901 86.9703 32.1301 85.8004 32.2101L86.0504 30.3301L86.1503 29.4001L86.2304 28.6101L86.4003 26.4101C86.5003 24.9501 86.5704 23.4801 86.6203 22.0101C86.6703 20.5401 86.7103 19.0601 86.7103 17.6001V16.5101V15.5701C86.7202 15.4169 86.7202 15.2632 86.7103 15.1101C86.7103 14.9001 86.4903 14.9701 86.3503 14.9601H86.0303H85.3103L83.6803 15.0001L80.6203 15.1801L74.4804 15.5501C67.4804 15.9301 60.3903 16.2501 53.4003 16.2301C48.8812 16.266 44.3638 16.0423 39.8703 15.5601C37.5973 15.3012 35.3451 14.8836 33.1303 14.3101C30.7947 13.778 28.6121 12.7175 26.7503 11.2101C26.4982 10.9819 26.2642 10.7345 26.0503 10.4701C25.9227 10.2681 25.8091 10.0576 25.7103 9.84005C25.5603 9.49005 25.5703 9.31005 25.7103 9.27005C25.8503 9.23005 26.0803 9.27005 26.4003 9.48005L26.9203 9.79005L27.6403 10.1201C29.0338 10.756 30.4972 11.2259 32.0003 11.5201C33.8903 11.9001 36.1403 12.2401 38.6103 12.6001C42.53 13.1261 46.4763 13.4299 50.4303 13.5101C54.4303 13.6201 58.4303 13.6001 62.4303 13.5101C66.4303 13.4201 70.4303 13.2501 74.4303 13.0501L80.4303 12.7201L83.4303 12.5501L84.9503 12.4801H85.7803H87.1503C87.5868 12.4808 88.0095 12.6327 88.3467 12.9097C88.684 13.1868 88.9149 13.572 89.0003 14.0001C89.0755 14.4805 89.1256 14.9644 89.1503 15.4501V16.3101C89.1503 17.4401 89.1503 18.5501 89.1503 19.6601C89.1503 21.5301 89.0103 23.3901 88.9003 25.2801C88.8403 26.2201 88.7703 27.1701 88.7103 28.1201L88.6203 29.1201L88.5603 29.5601L89.9403 29.5001C90.9403 29.5001 91.8303 29.4401 92.7903 29.4401C94.7099 29.416 96.6294 29.4961 98.5403 29.6801C99.526 29.774 100.505 29.931 101.47 30.1501C101.98 30.2597 102.482 30.4067 102.97 30.5901C103.561 30.7891 104.115 31.083 104.61 31.4601C104.767 31.5783 104.917 31.7052 105.06 31.8401L105.27 32.0401C105.35 32.1001 105.33 32.2201 105.36 32.3101C105.455 32.6774 105.519 33.052 105.55 33.4301C105.55 33.9501 105.61 34.43 105.62 34.92C105.62 35.92 105.62 36.8401 105.62 37.7901C105.41 44.0301 104.94 50.2001 104.5 56.3901L103 74.9301C102.4 82.5401 101.79 90.1401 101.28 97.7401C101.09 100.61 100.9 103.49 100.75 106.37C100.68 107.81 100.61 109.25 100.57 110.68V111.76V113.62C100.57 113.68 100.48 113.71 100.44 113.75L99.8203 114.23C99.6244 114.381 99.4132 114.512 99.1903 114.62C99.0103 114.71 98.8303 114.82 98.6503 114.89C95.7303 116.08 92.7803 116.19 89.8703 116.34C86.9603 116.49 84.0603 116.34 81.1903 116.21C76.7104 115.97 72.3103 115.59 67.9203 115.21L61.3603 114.55C60.2803 114.44 59.1603 114.32 58.1403 114.28C57.1203 114.24 55.9903 114.28 54.9303 114.36C53.0203 114.46 51.1703 114.65 49.2803 114.91C45.7803 115.42 43.5303 116.03 41.9103 116.38C40.8004 116.687 39.6518 116.832 38.5003 116.81C38.1224 116.816 37.7446 116.793 37.3703 116.74C36.9503 116.62 37.3703 116.19 38.5703 115.54C40.4116 114.609 42.35 113.885 44.3503 113.38C48.3103 112.367 52.3737 111.813 56.4603 111.73C56.9803 111.73 57.4603 111.73 58.0303 111.73C58.6003 111.73 59.1303 111.79 59.6603 111.83L62.7203 112.13L68.8103 112.76C72.8703 113.17 76.9604 113.54 81.0504 113.76C85.1037 114.039 89.1727 114.002 93.2203 113.65C94.6108 113.522 95.9808 113.227 97.3003 112.77L97.7303 112.6L97.9103 112.5L98.0303 112.43V112V110.81C98.1103 107.67 98.2903 104.56 98.4803 101.45C98.8703 95.2401 99.3303 89.0401 99.8003 82.8501L99.8303 82.7601Z" fill="#231F20"/>
<path d="M105.49 32.3601C101.86 25.3601 95.3802 18.1801 89.1602 13.3601C88.6202 12.9401 86.3902 13.9901 86.6902 14.2201C93.32 19.312 98.8338 25.7107 102.89 33.0201C103.19 33.6101 105.67 32.6601 105.49 32.3201V32.3601Z" fill="#231F20"/>
<path d="M37.7803 43C38.2587 42.6168 38.8098 42.3345 39.4003 42.17C39.9202 42.0233 40.4612 41.9659 41.0003 42C44.5203 42.06 48.0903 42 51.6503 41.92H60.8403C66.1203 41.84 71.4003 41.68 76.6803 41.54L81.3603 41.42C82.8503 41.36 84.3603 41.3 85.8503 41.27C86.1027 41.2399 86.3578 41.2399 86.6103 41.27C86.743 41.2839 86.8685 41.3376 86.97 41.4242C87.0716 41.5108 87.1445 41.6262 87.1792 41.7551C87.2138 41.8839 87.2086 42.0203 87.1642 42.1462C87.1197 42.272 87.0382 42.3814 86.9303 42.46C86.8203 42.57 86.7003 42.73 86.5903 42.74C85.4303 42.74 84.5203 43.58 83.3003 43.59C81.0403 43.59 78.7803 43.82 76.5303 43.94C75.6203 43.94 74.7203 43.94 73.8103 43.94L70.3403 43.82C68.7603 43.82 61.3403 43.91 54.1903 43.93C50.6203 43.93 47.1303 43.93 44.4803 43.83C43.1503 43.83 42.0303 43.73 41.2303 43.7C40.4303 43.67 39.9203 43.57 39.8303 43.56C39.133 43.4287 38.4474 43.2415 37.7803 43Z" fill="#231F20"/>
<path d="M39.6001 57.0001C40.0018 56.6044 40.4775 56.2917 41.0001 56.0801C41.4277 55.9175 41.8828 55.8394 42.3401 55.8501C45.3401 55.7801 48.3401 55.6001 51.4001 55.4801C54.0101 55.3701 56.6301 55.3801 59.2401 55.3001C63.7401 55.1701 68.2401 55.0301 72.7801 55.0401L76.7801 55.1101C78.0701 55.1101 79.3501 55.1101 80.6501 55.2401C80.8685 55.2293 81.0873 55.2495 81.3001 55.3001C81.4205 55.3407 81.5271 55.4142 81.6078 55.5123C81.6886 55.6105 81.7402 55.7293 81.7569 55.8552C81.7735 55.9812 81.7545 56.1093 81.7021 56.2251C81.6496 56.3408 81.5658 56.4395 81.4601 56.5101C81.3601 56.6101 81.2501 56.7701 81.1501 56.7601C80.1501 56.7601 79.3301 57.4301 78.3001 57.3901C76.3904 57.3102 74.4777 57.3302 72.5701 57.4501C71.8101 57.4501 71.0401 57.4501 70.2701 57.4501L67.3301 57.2701C65.9901 57.2201 59.6801 57.2701 53.6101 57.4701C50.6101 57.5501 47.6101 57.6101 45.3301 57.6101C43.9956 57.6383 42.6605 57.5983 41.3301 57.4901C40.7394 57.3809 40.1603 57.2169 39.6001 57.0001Z" fill="#231F20"/>
<path d="M40.8501 71.6101C41.2853 71.2309 41.7871 70.9359 42.3301 70.7401C42.7876 70.5861 43.2674 70.5084 43.7501 70.5101C46.9401 70.4601 50.1601 70.2801 53.3801 70.1701C56.1501 70.0801 58.9301 70.1001 61.7101 70.0301C66.4901 69.9201 71.2801 69.7901 76.0801 69.8001C77.5001 69.8001 78.9201 69.8601 80.3401 69.8701C81.7601 69.8801 83.0701 69.8701 84.4501 70.0101C84.6817 69.9994 84.9138 70.0195 85.1401 70.0701C85.2643 70.107 85.3754 70.1786 85.4603 70.2765C85.5451 70.3744 85.6003 70.4945 85.6192 70.6227C85.6381 70.7509 85.62 70.8818 85.567 71C85.514 71.1183 85.4284 71.2189 85.3201 71.2901C85.2101 71.3801 85.0901 71.5401 84.9901 71.5301C83.9901 71.5301 83.0701 72.2001 81.9901 72.1601C79.9615 72.0552 77.9287 72.0552 75.9001 72.1601C75.0801 72.1601 74.2701 72.1601 73.4501 72.1601L70.3101 72.0001C68.8801 72.0001 62.1701 72.0001 55.7201 72.1601C52.5001 72.2201 49.3401 72.2701 46.9401 72.2601C45.5321 72.2874 44.1237 72.244 42.7201 72.1301C42.0816 72.0167 41.4554 71.8426 40.8501 71.6101Z" fill="#231F20"/>
<path d="M51.5 87.0001C52.04 86.0001 52.38 85.8201 52.77 85.8001C54.03 85.8001 55.32 85.6701 56.6 85.6401C57.71 85.6401 58.82 85.7001 59.93 85.6401C61.84 85.6401 63.75 85.5501 65.67 85.4901C66.23 85.4901 66.8 85.4901 67.36 85.4301C67.92 85.3701 68.44 85.3301 68.98 85.3101C69.07 85.3101 69.17 85.2501 69.25 85.3101C69.49 85.4701 69.56 86.0601 69.4 86.5101C69.4 86.6101 69.32 86.7801 69.28 86.7801C68.86 86.7801 68.54 87.6201 68.1 87.6301C67.2748 87.6573 66.4527 87.7442 65.64 87.8901C65.3076 87.9258 64.9724 87.9258 64.64 87.8901C64.22 87.8901 63.8 87.7501 63.37 87.7201C62.94 87.6901 60.09 87.7201 57.5 87.6301C56.2 87.6301 54.92 87.5701 53.95 87.5201C53.3739 87.5102 52.7991 87.4601 52.23 87.3701C51.9723 87.2774 51.7271 87.1531 51.5 87.0001Z" fill="#231F20"/>
<path d="M43.4104 114.89C51.976 112.906 60.8601 112.722 69.5004 114.35C84.1504 117.03 99.7304 113.26 99.7304 113.26C99.7304 113.26 96.0604 121.98 70.9104 117.45C56.4404 114.85 45.0304 118.91 42.4604 118.91C41.0004 118.91 43.4104 114.89 43.4104 114.89Z" fill="#231F20"/>
</svg>
