<svg width="128" height="128" viewBox="0 0 128 128" fill="none" xmlns="http://www.w3.org/2000/svg">
<path d="M63.1699 66.58C63.1699 66.58 61.4599 64.39 63.3699 63.91C65.2799 63.43 65.3899 65.69 63.1699 66.58Z" fill="#231F20"/>
<path d="M56.9298 96.06C41.9298 93.42 30.5298 80.31 30.5298 64.55C30.5298 48.79 41.9298 35.69 56.9298 33.05C44.0698 37.74 34.8898 50.07 34.8898 64.55C34.8898 79.03 44.0698 91.37 56.9298 96.06Z" fill="#231F20"/>
<path d="M101.31 58.37C100.56 56.66 101.59 51.97 107.43 53.09C110.99 53.77 108.89 59.83 107.01 60.15C105.13 60.47 102.68 61.48 101.32 58.37H101.31Z" fill="#231F20"/>
<path d="M75.05 15.94C77.76 16.24 80.4699 16.58 83.1699 17.09C84.1499 17.27 85.1499 17.44 86.1299 17.69C86.9999 17.91 87.86 18.17 88.73 18.54C89.17 18.73 89.61 18.93 90.08 19.36C90.36 19.62 90.43 19.82 90.57 20.03C90.7 20.24 90.82 20.45 90.91 20.68C91.67 22.43 91.9099 24.21 92.0599 25.98C92.1799 27.55 92.22 29.13 92.18 30.68C92.13 32.67 91.99 34.72 91.11 36.58C90.85 37.16 90.76 37.03 90.69 36.47C90.67 35.92 90.3799 34.92 90.4499 33.83C90.5699 31.89 90.74 29.93 90.66 27.97C90.59 26.03 90.45 24.04 89.91 22.24C89.84 21.96 89.7499 21.7 89.6299 21.46C89.5299 21.2 89.4 20.96 89.26 20.75C89.2 20.65 89.11 20.48 89.07 20.48C89.04 20.44 88.9599 20.38 88.8499 20.32C88.66 20.2 88.41 20.08 88.1399 19.98C87.07 19.58 85.85 19.33 84.66 19.09C82.02 18.59 79.3299 18.2 76.6399 17.88C74.9799 17.69 73.3099 17.52 71.65 17.39C69.12 17.19 66.5799 17.02 64.0599 16.98C62.0999 16.94 60.1899 17.07 58.2599 17.16C57.8399 17.18 57.4199 17.2 56.9999 17.22C55.4199 17.32 54.9099 17.05 54.5399 16.75C54.4599 16.68 54.3499 16.61 54.2999 16.55C54.2099 16.44 54.3299 16.33 54.6099 16.18C54.8899 16.04 55.3399 15.82 55.9299 15.72C59.4199 15.13 63.1199 15.2 66.8099 15.32C69.5499 15.43 72.2999 15.64 75.0399 15.9V15.94H75.05Z" fill="#231F20"/>
<path d="M35.7901 49.46C31.3801 58.01 30.8501 68.59 34.6701 77.49C35.3501 79.12 36.2001 80.67 37.1801 82.13C37.7001 82.84 38.1701 83.58 38.7201 84.27L40.4301 86.28C44.7001 90.77 50.2701 94.15 56.3701 95.66C59.4101 96.43 62.5501 96.84 65.6901 96.7C68.8301 96.56 71.9401 95.95 74.8801 94.86C80.12 92.9 84.7201 89.3 88.1501 84.95C90.3501 82.13 92.0601 78.95 93.2801 75.58C94.5301 72.22 95.26 68.69 95.7401 65.09C96.12 62.84 96.19 63.11 96.59 65.09C96.7101 65.58 96.8001 66.18 96.8601 66.88C96.9101 67.57 97.0301 68.37 97.0201 69.24C97.0201 70.97 96.8301 73.02 96.2101 75.16C94.0401 82.7 89.2201 89.61 82.5801 94.01C79.2801 96.19 75.5501 97.83 71.6601 98.67C67.7701 99.52 63.7401 99.62 59.8401 99.04C55.1701 98.32 50.5701 96.76 46.3801 94.37L45.5901 93.93L44.8401 93.43L43.3301 92.42C42.3501 91.71 41.4201 90.93 40.4901 90.16C38.7201 88.51 37.0301 86.75 35.6701 84.76C32.5401 80.47 30.6201 75.38 29.8201 70.18C29.0401 64.97 29.4301 59.61 30.8901 54.58C32.6701 48.38 36.1701 42.65 41.0101 38.38C44.6601 35.12 49.1201 32.78 53.8601 31.59C58.5801 30.38 63.5001 30.14 68.2801 30.81C72.0001 31.32 75.6101 32.43 78.9501 34.1C80.6101 34.96 82.2001 35.95 83.7001 37.08C85.18 38.23 86.5701 39.5 87.8501 40.88C88.9401 42.12 90.0001 43.36 90.9101 44.76C91.7701 46.04 92.4001 47.17 92.8701 48.13C93.3501 49.09 93.5901 49.93 93.8301 50.6C94.0201 51.29 94.1401 51.84 94.2001 52.31C94.2401 52.79 94.2001 53.19 94.1601 53.55C94.1201 53.88 94.1201 54.29 94.0501 54.49C93.8401 55.17 92.6001 53.01 90.4201 49.4C87.3701 43.96 82.8601 39.23 77.1801 36.41C71.5201 33.57 64.8301 32.63 58.3901 33.48C53.6001 34.11 49.0001 35.74 45.1001 38.57C41.2001 41.36 38.0301 45.18 35.8501 49.5L35.7801 49.48L35.7901 49.46Z" fill="#231F20"/>
<path d="M37.7302 27.08C37.6602 27.84 37.5802 28.61 37.5102 29.37C37.4802 29.65 37.5302 29.93 37.5102 30.21C37.4202 31.2 37.3202 32.2 37.3102 33.19C37.3102 33.63 37.3102 34.08 37.3502 34.51C37.3702 34.79 37.4302 35.07 37.4102 35.35C37.3802 35.64 37.3202 35.93 37.2502 36.22C37.2002 36.4 37.0402 36.4 36.7902 36.28C36.5602 36.16 36.1502 35.94 35.9502 35.63C35.6602 35.08 35.5602 34.5 35.4202 33.92C35.3002 33.34 35.3702 32.74 35.4202 32.14C35.5102 31.42 35.3502 30.7 35.3402 29.97C35.3202 29.17 35.3602 28.37 35.4202 27.58C35.4602 27.09 35.4902 26.6 35.5302 26.11C35.5802 25.37 35.6702 24.63 35.6702 23.9C35.6802 23.33 35.5102 22.76 35.5002 22.19C35.5002 22.06 35.4702 21.94 35.4802 21.82C35.4802 21.59 35.5502 21.44 35.7202 21.35C35.8602 21.25 36.0502 21.21 36.3102 21.18C36.4302 21.17 36.5402 21.15 36.6502 21.14C37.0102 21.13 37.3502 21.34 37.5902 21.7C38.0302 22.72 38.0002 23.74 37.9502 24.77C37.9002 25.53 37.8502 26.3 37.8002 27.07H37.7402L37.7302 27.08Z" fill="#231F20"/>
<path d="M106.69 41.78C106.94 43.31 107.01 44.85 107.01 46.39L106.97 47.54C106.97 47.73 106.97 47.92 106.94 48.12L106.88 48.84C106.86 49.17 106.84 49.51 106.72 49.77L106.65 49.98L106.61 50.08L106.59 50.13V50.15C106.59 50.15 106.68 50.22 106.5 50.1V50.12C106.41 50.24 106.34 50.35 106.24 50.46C106.03 50.66 105.7 50.76 105.4 50.87L104.74 51.11C103.82 51.46 103.01 51.96 102.35 52.51C101.77 53 101.35 53.58 101.16 54.25C100.98 54.91 101.02 55.71 101.25 56.47C101.46 57.15 101.91 57.77 102.53 58.2C103.16 58.63 103.94 58.89 104.73 58.92C105.43 58.95 106.13 58.77 106.73 58.41C107.32 58.06 107.85 57.51 108.11 56.95C108.46 56.21 108.32 55.45 107.93 54.7C107.72 54.33 107.44 53.98 107.13 53.64C106.97 53.48 106.8 53.31 106.62 53.16C106.45 52.99 106.28 52.82 106.11 52.61C105.71 52.05 105.76 52.01 106.5 51.85C106.86 51.78 107.42 51.71 107.99 51.91C108.55 52.1 109.19 52.47 109.68 53.11C110.11 53.67 110.49 54.35 110.63 55.15C110.78 55.94 110.7 56.81 110.4 57.57C109.77 59.08 108.66 60.01 107.36 60.63C104.71 61.8 101.45 60.92 99.8998 58.51C99.4398 57.8 99.1598 56.95 99.0398 56.21C98.8998 55.44 98.8798 54.59 99.0698 53.77C99.4398 52.08 100.67 50.77 101.93 49.98C102.63 49.54 103.36 49.19 104.09 48.91C104.32 48.82 104.38 48.82 104.53 48.75C104.57 48.61 104.56 48.52 104.59 48.32C104.68 46.9 104.67 45.47 104.53 44.05C104.39 42.29 104.07 40.55 103.55 38.87C102.78 36.33 101.58 33.88 99.8298 31.94C98.4598 30.43 96.7298 29.41 94.9598 28.58C94.5498 28.43 94.1498 28.29 93.7498 28.12C92.2398 27.56 91.7798 27.23 91.5598 26.57C91.4998 26.44 91.4198 26.31 91.3898 26.22C91.2698 25.96 92.0698 25.58 93.4498 25.7C97.4998 26.21 101.37 29.17 103.59 32.86C105.32 35.59 106.26 38.68 106.78 41.76H106.72L106.69 41.78Z" fill="#231F20"/>
<path d="M60.1101 73.71C58.6901 73.08 57.4801 72.07 56.5701 70.93C55.6601 69.78 54.9601 68.49 54.5801 67.06C54.3101 66.05 54.1201 64.86 54.3001 63.83C54.5201 61.98 55.2801 60.2 56.4701 58.8C57.6501 57.4 59.2501 56.38 60.9901 55.93C62.5301 55.53 64.1601 55.53 65.6801 55.89C66.1501 56.04 66.6601 56.13 67.1001 56.35C67.5401 56.57 68.0101 56.76 68.4301 57.02C68.8301 57.3 69.2501 57.56 69.6101 57.89C69.9301 58.26 70.2601 58.62 70.4601 59.1C70.6001 59.81 70.6901 59.57 70.0601 59.55C69.7401 59.55 69.3001 59.55 68.8701 59.47C68.6601 59.42 68.4101 59.41 68.1801 59.36C67.9601 59.3 67.7501 59.21 67.5501 59.1C66.0801 58.36 64.5701 57.9 63.0601 57.95C61.5501 57.98 60.0901 58.61 58.8801 59.62C58.1501 60.23 57.5801 61.07 57.2701 62.01C57.0601 62.46 57.0201 62.97 56.9001 63.45C56.8801 63.94 56.8001 64.47 56.8301 64.92C56.9601 66.97 58.1701 69.2 59.9201 70.51C60.9901 71.32 62.3301 71.81 63.7101 71.79C65.7801 71.82 67.9201 70.81 69.0901 69.06C69.5701 68.4 69.8301 67.62 70.0101 66.84C70.2001 66.04 70.2501 65.25 70.1801 64.51C70.1401 64.18 70.0501 63.88 69.9801 63.57C69.8601 62.99 69.7301 62.61 69.7101 62.28C69.6701 61.96 69.7601 61.68 69.8801 61.4C69.9301 61.27 69.9601 61.13 70.0101 61.04C70.0901 60.88 70.2701 60.88 70.6301 60.98C70.9901 61.08 71.4001 61.39 71.7801 61.93C74.0401 65.4 72.6101 70.31 69.1001 72.81C66.5301 74.66 63.0001 75.03 60.1001 73.77L60.1201 73.71H60.1101Z" fill="#231F20"/>
<path d="M67.0501 14.64C71.0801 14.69 75.1101 14.87 79.1301 15.3C80.6001 15.45 82.0801 15.58 83.5501 15.83C84.8501 16.07 86.1401 16.33 87.4301 16.7C88.7201 17.09 90.0101 17.52 91.2601 18.37C91.4101 18.49 91.5701 18.55 91.7501 18.75C91.9201 18.94 92.1201 19.15 92.2201 19.35L92.4901 19.93C92.5501 20.11 92.6001 20.29 92.6501 20.47C92.8401 21.18 92.9301 21.85 93.0001 22.52C93.1201 23.85 93.1301 25.16 93.1001 26.47C93.0201 28.78 92.8801 31.1 92.5001 33.37C92.4201 33.85 92.3401 34.33 92.2401 34.81L92.0901 35.53L92.0001 35.89L91.8501 36.43C91.7501 36.77 91.5301 37.08 91.1601 37.16C90.8201 37.26 90.3601 37.25 90.0701 37.25C89.5501 37.25 89.0601 37.2 88.5601 37.15C87.5701 37.05 86.6001 36.89 85.6401 36.7C83.8401 36.32 86.3501 35.46 89.5601 35.44C90.4701 35.43 90.0601 35.41 90.1801 35.44H90.1701L90.1901 35.33C90.2201 35.18 90.2601 35.03 90.2801 34.87L90.4301 33.94C90.5101 33.31 90.6001 32.68 90.6601 32.05C90.7801 30.78 90.9001 29.51 90.9601 28.23C91.0301 26.95 91.0601 25.67 91.0101 24.41C90.9701 23.16 90.8701 21.86 90.5801 20.83C90.5401 20.66 90.4601 20.55 90.4301 20.43C90.4101 20.39 90.4001 20.38 90.3801 20.35C90.3801 20.33 90.3401 20.3 90.2601 20.25L89.8101 19.94L89.2801 19.67C88.5501 19.33 87.7201 19.07 86.8701 18.86C85.1701 18.45 83.3701 18.2 81.5901 17.99C77.6601 17.54 73.6701 17.37 69.6801 17.29C67.2201 17.25 64.7601 17.25 62.3001 17.32C58.5701 17.42 54.8201 17.58 51.1401 17.96C48.2701 18.25 45.5001 18.79 42.7101 19.25C42.1001 19.37 41.5001 19.48 40.8801 19.59C38.5801 19.92 37.8401 19.9 37.2201 19.41C37.0801 19.3 36.9001 19.2 36.8001 19.08C36.4701 18.7 37.3301 18.06 39.0101 17.51C44.0101 15.91 49.4501 15.34 54.8801 14.97C58.9201 14.7 62.9901 14.6 67.0601 14.6V14.67L67.0501 14.64Z" fill="#231F20"/>
<path d="M65.6899 66.65C64.9699 67.41 64.0399 67.63 63.1199 67.49C62.7899 67.44 62.4199 67.34 62.1199 67.1C61.5899 66.69 61.2799 66.04 61.2599 65.49C61.2299 64.96 61.3499 64.44 61.5999 63.98C61.8299 63.6 62.0899 63.22 62.4799 63.01C62.9499 62.72 63.5499 62.64 64.0199 62.87C64.1599 62.94 64.1099 63.03 63.9899 63.16C63.8599 63.28 63.6799 63.52 63.5599 63.66C63.2899 63.88 63.2899 64.22 63.1799 64.37C63.0999 64.58 63.0399 64.7 63.0099 65C62.9199 65.34 63.0799 65.46 63.2499 65.56C63.4499 65.7 63.9099 65.81 64.2499 65.64C64.4499 65.55 64.6699 65.42 64.6899 65.19C64.7199 65.11 64.6899 65.02 64.7199 64.93C64.7099 64.84 64.6799 64.74 64.6599 64.64C64.6199 64.47 64.4999 64.33 64.3399 64.24C64.0899 64.08 63.7299 64.14 63.5299 64.26C63.4799 64.28 63.4499 64.33 63.4099 64.33C63.2699 64.35 63.1899 64.29 62.8399 63.99L62.6099 63.82C62.3899 63.67 62.2399 63.25 62.5699 62.92C63.0299 62.41 63.7699 62.31 64.3999 62.43C65.0399 62.55 65.6899 62.96 66.0699 63.65C66.1399 63.77 66.1999 63.91 66.2399 64.04L66.3199 64.4C66.3799 64.63 66.3799 64.9 66.3599 65.17C66.3099 65.71 66.0599 66.26 65.7199 66.65L65.6899 66.62V66.65Z" fill="#231F20"/>
<path d="M31.5198 94.06C30.7298 93.27 29.9698 92.44 29.2998 91.54C29.0398 91.23 28.7698 90.91 28.5598 90.56C27.8298 89.3 27.2398 87.96 26.8898 86.57C26.7198 85.96 26.5798 85.34 26.4598 84.73C26.4098 84.33 26.2998 83.94 26.2998 83.54C26.3198 83.14 26.3598 82.73 26.4498 82.34C26.5098 82.09 26.7698 82.13 27.0798 82.33C27.3898 82.53 27.7998 82.86 27.9298 83.25C28.2098 83.94 28.2998 84.63 28.5598 85.29C28.6498 85.63 28.7398 85.97 28.8398 86.31C28.9198 86.66 29.0198 87 29.1398 87.35C29.2598 87.77 29.4698 88.17 29.7298 88.54C29.9598 88.93 30.2698 89.26 30.5198 89.63C30.7998 90.04 31.1298 90.42 31.4298 90.82C31.7698 91.19 32.0898 91.59 32.4498 91.94C32.8898 92.39 33.3498 92.82 33.8398 93.22C34.5798 93.83 35.3498 94.43 36.1698 94.92C36.8098 95.3 37.5098 95.56 38.1898 95.86C38.3398 95.93 38.4798 95.99 38.6198 96.08C39.1398 96.39 39.2398 96.63 39.1498 97.09C39.1298 97.19 39.1198 97.3 39.0898 97.4C38.9998 97.71 38.6298 97.87 38.1398 97.82C37.3998 97.76 36.7098 97.53 36.0398 97.25C35.6998 97.11 35.3698 96.95 35.0398 96.79C34.7098 96.62 34.4098 96.4 34.0898 96.21C33.1698 95.6 32.2998 94.89 31.4598 94.13L31.4898 94.09L31.5198 94.06Z" fill="#231F20"/>
<path d="M28.3499 98.95C27.7499 98.41 27.1699 97.85 26.6299 97.26C26.0599 96.69 25.5499 96.07 25.0299 95.46C24.6399 95.03 24.2499 94.58 23.8999 94.11C22.7599 92.37 21.7299 90.55 21.1199 88.58C20.9499 88.16 20.8399 87.72 20.6899 87.29C20.5599 86.85 20.3699 86.44 20.2799 86C20.1399 85.44 20.0299 84.87 19.9399 84.3C19.8799 83.72 19.9399 83.13 20.0199 82.56C20.0699 82.2 20.2099 82.24 20.4799 82.51C20.6199 82.64 20.7999 82.83 21.0099 83.05C21.2299 83.27 21.4199 83.52 21.5099 83.81C21.6899 84.32 21.9599 84.81 22.1499 85.31C22.2899 85.82 22.5499 86.3 22.7199 86.79C22.8899 87.29 23.1399 87.76 23.3499 88.25C23.5499 88.74 23.7799 89.23 23.9999 89.72C24.1299 90.02 24.2699 90.32 24.4299 90.6C24.6099 90.88 24.7999 91.15 24.9999 91.42C25.3699 91.98 25.8499 92.46 26.2499 92.99C26.6799 93.59 27.2099 94.11 27.6799 94.68C28.1999 95.21 28.7099 95.75 29.2599 96.26C29.9399 96.88 30.6299 97.5 31.3699 98.05C32.4799 98.91 33.6499 99.71 34.8699 100.39C35.8299 100.9 36.8699 101.22 37.8599 101.61L38.5199 101.86C38.9199 102.05 39.1499 102.25 39.2699 102.48C39.3999 102.7 39.4399 102.92 39.4399 103.18C39.4399 103.3 39.4499 103.42 39.4399 103.53C39.3999 103.87 38.9299 104.05 38.1699 104.1C36.0599 103.92 34.0799 102.99 32.1899 101.92C30.8199 101.07 29.5199 100.08 28.2899 99.02L28.3299 98.97L28.3499 98.95Z" fill="#231F20"/>
<path d="M24.7298 104.95C23.0398 103.46 21.4198 101.9 19.9898 100.17C19.4598 99.55 18.8698 98.98 18.4098 98.29C17.9998 97.69 17.5598 97.13 17.1898 96.5L16.0998 94.63C15.4598 93.33 14.8298 92.04 14.3798 90.67C13.9098 89.49 13.5498 88.25 13.2198 87.03C13.0798 86.23 12.9298 85.42 12.8198 84.62C12.7898 83.8 12.9398 82.97 13.0298 82.17C13.1098 81.67 13.3098 81.75 13.6298 82.15C13.9398 82.56 14.5098 83.27 14.7998 84.08C15.6598 86.99 16.5698 89.78 17.8498 92.61C18.1798 93.48 18.7498 94.25 19.2498 95.06C19.7898 95.84 20.4298 96.57 20.9898 97.34C22.3398 98.94 23.7498 100.52 25.3498 101.91C25.8498 102.33 26.3098 102.79 26.8298 103.19L28.3898 104.38C29.1898 104.97 30.0398 105.49 30.8598 106.04C31.7198 106.53 32.5898 107.02 33.4798 107.44C34.1798 107.74 34.8898 108.02 35.5998 108.28C36.3198 108.52 37.0498 108.69 37.7598 108.93C38.0698 109.04 38.3798 109.12 38.7098 109.21C39.8898 109.57 40.2198 109.85 40.3498 110.45C40.3798 110.59 40.4298 110.73 40.4398 110.86C40.4698 111.29 39.8798 111.5 38.8998 111.43C37.4298 111.38 35.9798 111.03 34.5398 110.59C33.8298 110.34 33.1198 110.09 32.4098 109.81C31.7098 109.5 31.0498 109.13 30.3598 108.78C29.3398 108.28 28.4098 107.61 27.4398 107.02C26.5098 106.37 25.5898 105.69 24.6898 105L24.7298 104.94V104.95Z" fill="#231F20"/>
<path d="M93.8602 93.17C94.6402 92.52 95.4102 91.84 96.0602 91.03C96.3102 90.75 96.4902 90.42 96.7102 90.12C97.5402 89.08 98.2702 87.93 98.7602 86.67C99.0002 86.12 99.1202 85.52 99.2602 84.94C99.3202 84.56 99.3402 84.18 99.4402 83.8C99.5002 83.42 99.5802 83.04 99.7102 82.65C99.7902 82.41 100.05 82.44 100.34 82.65C100.63 82.86 101 83.29 101.09 83.79C101.2 84.68 101.06 85.56 100.89 86.43C100.67 87.29 100.31 88.11 99.8502 88.87C99.3202 89.78 98.8802 90.77 98.2802 91.66C97.5802 92.61 96.7902 93.48 95.9302 94.26C95.4102 94.75 94.8402 95.18 94.2802 95.62C93.8502 95.95 93.3902 96.22 92.9402 96.53C92.4802 96.8 92.0202 97.07 91.5502 97.34C91.1802 97.53 90.8302 97.74 90.4802 97.96L89.3802 98.54C89.2202 98.63 89.0502 98.69 88.8702 98.74C88.2102 98.91 87.9502 98.81 87.7002 98.43C87.6402 98.34 87.5802 98.26 87.5302 98.17C87.3902 97.88 87.5602 97.5 87.9302 97.2C88.4902 96.76 89.0502 96.35 89.6302 96.01C90.1902 95.61 90.7702 95.27 91.3502 94.91C92.2102 94.38 93.0402 93.79 93.8202 93.13L93.8602 93.17Z" fill="#231F20"/>
<path d="M98.1302 98.65C98.7102 98.22 99.2602 97.73 99.8102 97.25C100.31 96.72 100.88 96.24 101.34 95.65C101.68 95.23 101.99 94.79 102.31 94.35C103.54 92.88 104.54 91.2 105.44 89.46C105.84 88.68 106.09 87.85 106.34 87.02C106.49 86.49 106.62 85.95 106.79 85.42C106.89 85.16 106.93 84.88 107.03 84.62C107.14 84.36 107.25 84.09 107.36 83.82C107.51 83.49 107.63 83.54 107.83 83.87C107.93 84.03 108.05 84.27 108.19 84.55C108.34 84.84 108.45 85.18 108.44 85.52C108.41 86.13 108.39 86.75 108.32 87.36C108.18 87.95 108.04 88.55 107.88 89.14C107.68 89.72 107.47 90.3 107.25 90.87C107 91.43 106.71 91.97 106.39 92.5C105.99 93.12 105.62 93.77 105.27 94.43C104.87 95.06 104.53 95.74 104.06 96.34C103.54 96.98 103.05 97.65 102.46 98.23L101.61 99.13L100.69 99.96C100.32 100.31 99.9302 100.63 99.5202 100.92C99.1102 101.22 98.7202 101.54 98.3002 101.82C97.0202 102.67 95.6702 103.4 94.2802 104C93.7302 104.22 93.2302 104.53 92.6802 104.75C92.1402 104.97 91.5902 105.2 91.0302 105.39C90.7802 105.48 90.5402 105.54 90.2802 105.59C89.8002 105.66 89.4602 105.62 89.2202 105.5C88.9802 105.39 88.8302 105.23 88.7002 105.01C88.6402 104.91 88.5702 104.81 88.5302 104.72C88.4002 104.41 88.7302 104 89.3002 103.54C89.7302 103.25 90.1802 103.12 90.6102 102.87C91.0402 102.63 91.4802 102.44 91.9202 102.26C92.7702 101.81 93.6602 101.46 94.4802 100.94L95.4302 100.44L96.3502 99.87C96.9802 99.52 97.5302 99.03 98.1202 98.61L98.1702 98.66L98.1302 98.65Z" fill="#231F20"/>
<path d="M103.16 104.02C104.76 102.86 106.17 101.44 107.48 99.94C107.92 99.36 108.3 98.73 108.75 98.16C110.23 96.05 111.49 93.75 112.42 91.3C112.61 90.75 112.8 90.2 112.94 89.63C113.05 89.06 113.17 88.49 113.31 87.93C113.48 87.21 113.52 86.46 113.66 85.73C113.83 85 113.97 84.26 114.17 83.51C114.3 83.04 114.49 83.1 114.77 83.51C115.03 83.92 115.54 84.7 115.73 85.64C115.94 88.95 114.99 92.23 113.44 95.13C112.45 96.83 111.62 98.71 110.42 100.33L109.43 101.66L108.33 102.9C107.63 103.75 106.76 104.45 105.98 105.21C105.49 105.67 104.92 106.05 104.39 106.47L103.59 107.08L102.74 107.62L101.45 108.43C101.02 108.71 100.55 108.9 100.1 109.14L98.7499 109.83L97.3599 110.42C95.9399 111.08 94.4999 111.6 93.0199 112.11C92.6899 112.18 92.3599 112.27 92.0199 112.33C90.7599 112.54 90.3299 112.45 89.9799 111.96C89.8999 111.85 89.7999 111.74 89.7499 111.63C89.5699 111.25 90.0099 110.8 90.8399 110.44C92.0499 109.92 93.2699 109.4 94.5099 108.87C95.1399 108.65 95.7099 108.3 96.3199 108.03C96.9199 107.75 97.5499 107.53 98.1199 107.18C98.9799 106.7 99.8899 106.28 100.69 105.71L101.94 104.9L103.1 103.97L103.15 104.02H103.16Z" fill="#231F20"/>
</svg>
