<svg width="128" height="128" viewBox="0 0 128 128" fill="none" xmlns="http://www.w3.org/2000/svg">
<path d="M41.4801 106.63C41.9101 107.33 42.3801 108.01 42.8601 108.7C43.0301 108.96 43.2601 109.16 43.4201 109.42C44.0201 110.33 44.6201 111.25 45.2801 112.13C45.5601 112.53 45.8701 112.91 46.1801 113.28C46.6001 113.74 46.9801 114.24 47.2401 114.84C47.3201 115.03 47.1301 115.15 46.8301 115.19C46.5301 115.23 46.0801 115.23 45.7701 115.04C44.7101 114.33 43.7501 113.52 43.0801 112.4C42.6601 111.75 42.0301 111.25 41.5201 110.65C40.9401 110 40.4501 109.28 39.9401 108.57L39.0301 107.23C38.5701 106.55 38.1601 105.83 37.7201 105.14C37.3601 104.61 36.9301 104.11 36.6201 103.51C36.5501 103.38 36.4601 103.26 36.4001 103.12C36.2201 102.57 36.3301 102.35 36.8801 102.11C37.0101 102.05 37.1301 101.99 37.2601 101.95C37.6901 101.81 38.1301 101.91 38.3601 102.15C38.5401 102.34 38.7101 102.53 38.8801 102.71C39.0501 102.9 39.2101 103.1 39.3701 103.29C39.6601 103.69 39.9301 104.13 40.2101 104.58C40.6401 105.24 41.0501 105.93 41.5301 106.6L41.4801 106.64V106.63Z" fill="#231F20"/>
<path d="M43.3001 110.27C43.8001 110.93 44.3001 111.59 44.8301 112.22C45.0901 112.53 45.3601 112.84 45.6301 113.14C45.7701 113.29 45.9001 113.44 46.0401 113.57L46.1401 113.7C46.2501 113.81 46.3801 113.9 46.5301 113.89C46.5801 113.85 46.6301 113.79 46.6901 113.72L46.8201 113.58C46.8201 113.58 46.9201 113.44 46.9801 113.35L47.1901 113.04C47.4901 112.64 47.8001 112.25 48.1401 111.87C48.8101 111.11 49.5501 110.43 50.3301 109.83C51.1501 109.19 51.9601 108.59 52.7601 108.01C53.8201 107.31 54.8401 106.54 56.1601 106.32C56.5901 106.27 56.6401 106.47 56.5701 106.98C56.5301 107.24 56.4601 107.56 56.3401 107.91C56.2801 108.08 56.2201 108.27 56.1301 108.43C56.0301 108.58 55.9201 108.71 55.7801 108.83L54.3501 110.03C53.8501 110.38 53.3601 110.73 52.8901 111.08C51.9401 111.78 51.0901 112.49 50.2701 113.3C49.9601 113.61 49.6901 113.96 49.4401 114.34L49.0501 114.98L48.4701 116.1C48.2201 116.48 47.9301 116.69 47.6601 117C47.5401 117.15 47.3301 117.2 47.1201 117.22C46.9101 117.24 46.7201 117.2 46.5201 117.16C45.9401 117.02 45.3601 116.61 44.8201 116.16L44.4201 115.82L44.1001 115.51L43.6201 115.02C43.0001 114.36 42.4301 113.69 41.8701 113.01C41.1801 112.17 40.5301 111.31 39.8901 110.45C38.9101 109.14 38.0101 107.78 37.0801 106.45C36.3601 105.42 35.5301 104.47 34.8101 103.39C34.6601 103.15 34.4701 102.93 34.3401 102.67C33.8101 101.72 33.9601 101.25 34.5801 100.8C34.7301 100.69 34.8601 100.58 35.0201 100.5C35.5401 100.23 36.1201 100.44 36.5901 100.96C37.8701 102.57 39.1001 104.39 40.3801 106.22C41.3401 107.58 42.3101 108.95 43.3501 110.25L43.3001 110.3V110.27Z" fill="#231F20"/>
<path d="M19.1299 84.24C20.1999 86.04 21.3399 87.81 22.7299 89.4C23.2199 89.99 23.7499 90.55 24.2999 91.09C26.1499 93.07 28.2199 94.87 30.4799 96.42C31.4599 97.15 32.5599 97.69 33.6099 98.28C34.3199 98.6 34.9999 98.96 35.6899 99.33C36.0299 99.52 36.3999 99.64 36.7199 99.88C37.0399 100.12 37.3599 100.36 37.6799 100.61C38.0799 100.93 38.0299 100.89 37.5799 100.88C37.3599 100.88 37.0299 100.9 36.6199 100.94C36.4199 100.95 36.1899 101 35.9699 100.98C35.7599 100.94 35.5399 100.89 35.3199 100.82C34.5599 100.52 33.7699 100.25 33.0499 99.87C32.3199 99.5 31.6199 99.06 30.9099 98.65C29.5199 97.78 28.1699 96.82 26.9299 95.72C25.4299 94.44 23.8799 93.09 22.4799 91.63C21.0099 89.96 19.6099 88.24 18.4599 86.33C17.6999 85.2 17.1099 83.96 16.4699 82.76C15.5999 80.89 14.8999 78.94 14.3299 76.98C14.1299 76.21 13.8699 75.47 13.6899 74.71L13.1899 72.41C13.1099 72.07 13.0799 71.74 13.0299 71.39C12.9199 70.1 12.9799 69.68 13.2399 69.39C13.2999 69.32 13.3599 69.24 13.4199 69.2C13.6199 69.06 13.8699 69.56 14.0899 70.46C14.2799 71.12 14.3499 71.81 14.5599 72.47C14.7399 73.14 14.9099 73.82 15.0899 74.5C15.5299 75.83 15.9099 77.2 16.4799 78.5C17.2399 80.46 18.1599 82.36 19.1799 84.21L19.1399 84.23L19.1299 84.24Z" fill="#231F20"/>
<path d="M29.9499 28.89C35.5199 25.01 41.8899 22.42 48.4799 21.09C55.0599 19.76 61.8999 19.66 68.4999 20.97C73.3199 21.88 78.0299 23.55 82.2899 26.04C84.1499 27.17 85.9399 28.42 87.5999 29.83C89.2399 31.26 90.8099 32.78 92.1799 34.47C94.9399 37.84 97.1299 41.54 98.8199 45.51C102.19 53.42 103.19 62.35 101.38 70.73C99.8599 78.18 96.2999 85.2 91.2999 90.81C88.0699 94.39 84.2999 97.53 80.0499 99.86C77.9499 101.06 75.7099 102.01 73.4199 102.74C72.2799 103.12 71.0999 103.4 69.9399 103.7L68.1799 104.05C67.5899 104.17 67.0099 104.29 66.4099 104.32C63.4299 104.58 63.8399 104.36 66.1899 103.48C66.4899 103.37 66.8099 103.25 67.1599 103.12C67.5099 102.97 67.8799 102.82 68.2799 102.65C69.0799 102.33 69.9699 101.97 70.9199 101.5C71.3899 101.26 71.8999 101.07 72.3999 100.81C72.8999 100.55 73.4199 100.29 73.9499 100.01C74.4899 99.75 75.0299 99.46 75.5699 99.13C76.1199 98.84 76.7099 98.58 77.2799 98.26C85.4699 93.93 92.0299 86.81 95.7199 78.4C99.5099 70.03 100.29 60.33 97.7799 51.34C97.0099 48.66 95.9499 46.03 94.6299 43.5C93.2399 41.02 91.6799 38.56 89.8399 36.4C86.1399 32.04 81.2899 28.69 76.0099 26.52C70.1999 24.09 63.8099 23.07 57.4699 23.26C51.1199 23.44 44.7899 24.88 38.9899 27.49C31.8399 30.67 25.5799 35.84 21.1099 42.26C20.3099 43.51 19.4699 44.73 18.8099 46.06C18.0599 47.34 17.5099 48.72 16.8999 50.08C15.8499 52.85 14.9299 55.7 14.4999 58.65L14.2999 59.75L14.1899 60.86L13.9799 63.08L13.9399 65.31C13.9399 65.68 13.9199 66.05 13.9299 66.42L13.9999 67.53C14.0799 70.51 14.6699 73.43 15.3299 76.31C16.4199 80.83 18.4699 84.84 21.3099 88.37C24.1799 91.84 27.5999 94.85 31.4299 97.25C33.1199 98.31 34.8299 99.24 36.6399 100.1C39.9899 101.7 42.3299 102.46 43.9399 103.07C44.7499 103.36 45.3799 103.64 45.9099 103.89C46.4399 104.12 46.8499 104.37 47.2099 104.63C47.5399 104.87 47.9899 105.13 48.1799 105.33C48.4899 105.68 47.8699 105.81 46.4399 105.76C46.0799 105.74 45.6699 105.73 45.2199 105.67C44.7699 105.59 44.2699 105.51 43.7399 105.41C42.6499 105.24 41.4299 104.87 40.0399 104.46C35.9699 103.16 32.0399 101.22 28.3699 98.77C24.7199 96.3 21.3099 93.33 18.5099 89.72C17.8399 88.79 17.1199 87.91 16.5399 86.9L15.6299 85.42L14.8399 83.87L14.4499 83.09L14.1199 82.28L13.4699 80.64L12.4699 77.37C11.2799 72.96 10.6999 68.35 10.8499 63.74C11.0499 56.9 12.8499 50.04 16.2199 44.02C17.8999 41.02 19.8799 38.17 22.2299 35.66C23.3399 34.34 24.6499 33.23 25.8799 32.03C26.5299 31.48 27.2099 30.95 27.8699 30.41L28.8699 29.61L29.9199 28.87L29.9799 28.93L29.9499 28.89Z" fill="#231F20"/>
<path d="M52.0302 56.85C51.5102 57.04 49.9902 57.52 49.9402 58.47C49.8802 59.72 53.3702 60.61 55.2902 60.79C55.6202 60.82 47.5402 74.23 49.3702 79.25C51.4702 84.98 61.7302 83.08 62.8502 82.6C63.9702 82.12 64.0902 81.37 63.8502 80.95C63.0102 79.48 58.8602 80.37 57.2002 77.67C56.6402 76.76 56.8102 75.27 57.3802 73.52C58.6002 69.73 64.1002 61.14 63.8602 58.54C63.5402 55.06 54.1802 56.07 52.0302 56.85Z" fill="#231F20"/>
<path d="M65.2399 48.86C63.7499 55.13 53.2699 52.05 55.4599 46.2C57.6499 40.35 66.7399 42.56 65.2399 48.86Z" fill="#231F20"/>
<path d="M96.9599 25.47C97.0699 25.69 96.8199 25.87 96.3899 26.04C96.2499 26.09 95.8399 26.08 95.7799 26.02C95.6599 25.9 95.5399 25.77 95.4499 25.64C95.3999 25.56 95.0799 24.32 94.9299 23.9C94.7899 23.49 94.7299 23.08 94.6899 22.67C94.6399 22.25 94.6199 21.84 94.6299 21.42V20.17C94.6499 19.99 94.6799 19.8 94.7399 19.62C94.9599 19 94.9999 18.37 94.9899 17.74C94.9899 17.63 95.0099 17.53 94.9199 17.42C94.7599 17.24 94.8899 15.52 94.9899 15.3C95.2299 14.77 95.4099 14.23 95.6299 13.69C95.6599 13.61 95.6299 13.52 95.7599 13.47C96.0599 13.34 96.0399 13.17 96.0999 13C96.1599 12.77 96.2599 12.54 96.4399 12.33C96.5199 12.22 96.6999 12.14 96.8399 12.04C96.9699 11.96 97.2899 12.07 97.3299 12.11C97.4199 12.23 97.5999 12.18 97.7499 12.19C97.7999 12.19 97.8599 12.2 97.8999 12.21C97.9399 12.22 98.1199 12.59 98.3199 12.97C98.4699 13.34 98.6299 13.73 98.5999 13.8C98.5999 13.82 98.5899 14.3 98.5699 14.81C98.5699 15.32 98.5699 15.86 98.5799 15.97C98.5899 16.09 98.5199 16.19 98.4599 16.3C98.4299 16.35 98.4999 17.9 98.4899 17.96C98.4299 18.27 98.4999 18.6 98.2399 18.9C98.1899 18.96 98.1999 19.02 98.1899 19.09C98.1899 19.64 98.0499 20.18 97.9599 20.73C97.9099 21.01 97.9299 21.29 97.9099 21.57C97.9099 21.62 97.8699 21.67 97.8499 21.72C97.8299 21.78 97.7899 21.85 97.7899 21.91C97.7699 22.57 97.5199 23.23 97.5499 23.9C97.5499 24.05 97.2299 24.78 97.2499 24.96C97.2499 25.06 96.9199 25.38 96.9599 25.47Z" fill="#231F20"/>
<path d="M103.31 29.81C103.27 30 103.01 29.92 102.62 29.71C102.5 29.64 102.21 29.36 102.21 29.28C102.19 29.13 102.18 28.98 102.19 28.85C102.19 28.77 102.67 27.89 102.82 27.57C102.96 27.26 103.16 27.01 103.36 26.77L103.98 26.05C104.2 25.82 104.43 25.61 104.65 25.4C104.75 25.31 104.87 25.24 105.01 25.19C105.48 25.02 105.84 24.73 106.15 24.38C106.2 24.32 106.27 24.28 106.27 24.16C106.27 23.96 107.18 23.12 107.34 23.07C107.75 22.95 108.12 22.77 108.51 22.62C108.57 22.6 108.58 22.53 108.7 22.59C108.98 22.72 109.04 22.6 109.14 22.54C109.29 22.45 109.44 22.37 109.62 22.32C109.71 22.3 109.88 22.35 110.03 22.39C110.17 22.42 110.44 22.74 110.45 22.79C110.49 22.94 110.67 23.03 110.8 23.15C110.84 23.19 110.9 23.24 110.93 23.28C111.01 23.36 110.76 24.63 110.67 24.71C110.65 24.73 109.67 25.86 109.53 26.02C109.48 26.1 109.37 26.1 109.27 26.13C109.23 26.15 108.43 27.05 108.39 27.07C108.18 27.2 108.05 27.42 107.7 27.39C107.63 27.39 107.6 27.42 107.57 27.46C107.26 27.74 106.88 27.93 106.51 28.14C106.32 28.25 106.18 28.4 106.01 28.52C105.98 28.54 105.92 28.53 105.88 28.54C105.83 28.55 105.77 28.55 105.73 28.58C105.33 28.87 104.84 29.07 104.5 29.42C104.42 29.49 103.83 29.65 103.75 29.75C103.7 29.8 103.31 29.73 103.29 29.81H103.31Z" fill="#231F20"/>
<path d="M104.75 35.94C104.61 36.07 104.42 35.89 104.19 35.56C104.12 35.46 104.02 35.11 104.05 35.04C104.12 34.91 104.18 34.78 104.26 34.67C104.3 34.61 105.2 34.03 105.51 33.82C105.82 33.64 106.14 33.54 106.46 33.47C107.12 33.32 107.79 33.21 108.45 33.12C108.6 33.1 108.75 33.11 108.89 33.14C109.4 33.25 109.89 33.21 110.38 33.12C110.46 33.11 110.55 33.12 110.62 33.02C110.75 32.87 112.05 32.75 112.22 32.8C112.65 32.93 113.07 32.99 113.49 33.08C113.55 33.09 113.61 33.05 113.67 33.15C113.82 33.38 113.94 33.33 114.07 33.33C114.25 33.33 114.43 33.35 114.62 33.41C114.71 33.44 114.82 33.57 114.92 33.67C115.01 33.76 115.02 34.14 114.99 34.19C114.92 34.32 115.01 34.49 115.04 34.64C115.04 34.69 115.06 34.76 115.06 34.8C115.06 34.9 114.06 35.65 113.94 35.64C113.93 35.64 113.53 35.72 113.12 35.8C112.71 35.88 112.28 35.96 112.19 35.98C112.1 36.01 112 35.96 111.91 35.93C111.86 35.92 110.65 36.16 110.6 36.16C110.35 36.14 110.1 36.24 109.84 36.05C109.79 36.01 109.74 36.03 109.69 36.03C109.27 36.09 108.84 36.03 108.41 36.02C108.19 36.02 107.98 36.06 107.77 36.08C107.73 36.08 107.69 36.06 107.65 36.05C107.6 36.04 107.55 36.02 107.5 36.03C107 36.12 106.48 36.03 106 36.2C105.89 36.22 105.29 36.05 105.16 36.1C105.09 36.11 104.77 35.88 104.72 35.94H104.75Z" fill="#231F20"/>
</svg>
