<svg width="128" height="128" viewBox="0 0 128 128" fill="none" xmlns="http://www.w3.org/2000/svg">
<path d="M99.7598 83.7699C99.0098 82.3199 98.2998 80.8399 97.5098 79.4099C96.7198 77.9799 95.9198 76.5399 94.9998 75.1699C94.3598 74.1699 93.7098 73.1699 92.9998 72.1699C90.7077 68.6463 88.224 65.2512 85.5598 61.9999C84.9498 61.2899 84.3398 60.5699 83.7098 59.8799L81.7598 57.8799C80.9298 57.0199 80.0098 56.2399 79.1598 55.4099C78.7398 54.9799 78.2798 54.5999 77.8598 54.1699C77.4398 53.7399 77.0498 53.2899 76.6498 52.8399C76.2498 52.3899 76.4698 52.0499 77.2198 52.1499C77.7093 52.222 78.1891 52.3494 78.6498 52.5299C79.2655 52.7466 79.8304 53.0869 80.3098 53.5299C84.0336 56.888 87.3862 60.6361 90.3098 64.7099C91.1598 65.9499 92.0698 67.1699 92.9998 68.3999C93.9298 69.6299 94.8098 70.8899 95.6398 72.1699C97.4698 74.9999 99.2098 77.8799 100.77 80.8599C101.77 82.6699 102.64 84.5599 103.55 86.4199C104.2 87.8399 104.8 89.2999 105.42 90.7399L107 95.0599C107.39 96.2099 107.81 97.3299 108.24 98.4599C108.67 99.5899 108.99 100.74 109.36 101.89C109.537 102.387 109.684 102.895 109.8 103.41C110.24 105.41 110.16 106.02 109.57 106.54C109.447 106.668 109.313 106.785 109.17 106.89C108.71 107.15 108.09 106.45 107.68 105.1C106.47 101.1 105.22 96.9399 103.61 92.8299C103.07 91.2899 102.37 89.8299 101.75 88.2799C101.13 86.7299 100.37 85.2799 99.6698 83.7999L99.7598 83.7699Z" fill="#231F20"/>
<path d="M45.6001 119.11C41.6042 118.46 37.682 117.418 33.8901 116C31.9094 115.264 30.0567 114.221 28.4001 112.91C27.5048 112.176 26.7725 111.263 26.2501 110.23C26.1901 110.09 26.1201 109.96 26.0701 109.82L25.9001 109.29C25.6601 108.88 25.9001 108.39 25.9001 108.13L26.2401 106.61C27.0057 103.768 27.9817 100.987 29.1601 98.2898C33.3467 88.9331 38.53 80.0551 44.6201 71.8098C45.9401 69.9698 47.3701 68.1898 48.7501 66.3898L50.9301 63.7698L52.0001 62.4698L53.1501 61.2198C57.0101 56.9198 61.2001 52.7298 66.2401 49.7598C67.7901 48.8098 67.7901 49.2998 66.8201 50.5598C66.176 51.4004 65.4636 52.1864 64.6901 52.9098C63.7701 53.8198 62.6901 54.9098 61.4801 55.9098C52.8701 63.5998 45.7501 72.9098 39.4801 82.9098C39.0101 83.6598 38.4801 84.3998 38.0801 85.1698L36.7601 87.4898C35.8501 89.0298 35.0501 90.6398 34.2301 92.2498C33.4101 93.8598 32.6901 95.5098 31.9101 97.1398C31.1301 98.7698 30.4601 100.45 29.9101 102.14C29.5701 103.07 29.2001 103.98 28.9101 104.92C28.5947 105.833 28.3342 106.765 28.1301 107.71C28.0325 108.078 27.959 108.452 27.9101 108.83C27.9557 108.984 28.0126 109.134 28.0801 109.28C28.1625 109.469 28.2629 109.65 28.3801 109.82C28.874 110.556 29.4974 111.196 30.2201 111.71C31.7849 112.8 33.4949 113.665 35.3001 114.28C37.1421 114.945 39.0221 115.499 40.9301 115.94C45.681 117.005 50.4987 117.747 55.3501 118.16C62.7135 118.826 70.1117 119.023 77.5001 118.75C83.1322 118.527 88.7422 117.915 94.2901 116.92C95.5001 116.69 96.6701 116.42 97.8701 116.13C100.09 115.6 101.48 115.13 102.45 114.87C103.142 114.669 103.852 114.535 104.57 114.47C104.84 114.47 105.13 114.35 105.33 114.35C105.53 114.35 105.55 114.44 105.49 114.64C105.362 114.969 105.165 115.266 104.91 115.51C103.88 116.463 102.65 117.173 101.31 117.59C96.2627 119.16 91.0521 120.146 85.7801 120.53C80.4243 121.013 75.0472 121.22 69.6701 121.15C61.6036 121.112 53.5524 120.443 45.5901 119.15L45.6001 119.11Z" fill="#231F20"/>
<path d="M71.8601 76.9999C74.4701 76.6899 77.0801 76.3599 79.6101 75.8999C80.8391 75.6825 82.0519 75.3818 83.2401 74.9999C83.5201 74.9099 83.7901 74.8099 84.0301 74.7099L84.2801 74.5999H84.3501C84.4501 74.5999 84.5601 74.4499 84.5201 74.3199C84.5042 74.2415 84.4618 74.1709 84.4001 74.1199L84.2801 73.9999C84.1701 73.9099 84.0001 73.8299 83.8601 73.7399C83.1711 73.3778 82.4517 73.0767 81.7101 72.8399C80.1501 72.3299 78.4601 71.9399 76.7701 71.5699C73.6601 70.9199 70.4701 70.3499 67.3001 69.4599C65.6217 68.9832 63.994 68.3435 62.4401 67.5499C61.6118 67.1312 60.8307 66.625 60.1101 66.0399C59.2654 65.3713 58.6701 64.4379 58.4201 63.3899C58.3024 62.6629 58.429 61.9173 58.7801 61.2699C59.0314 60.7536 59.34 60.2672 59.7001 59.8199C60.3597 59.0018 61.0783 58.2331 61.8501 57.5199C63.3509 56.1456 64.9195 54.8473 66.5501 53.6299L69.0001 51.8299L69.4101 51.5199C69.5301 51.4699 69.5301 51.3599 69.5201 51.2499V50.6499C69.5201 50.4099 69.5201 50.1499 69.5201 49.9099C69.5201 47.9099 69.5201 45.9099 69.4301 43.9099C69.3001 38.9099 69.0201 33.8499 68.7401 28.9099C68.5601 25.7199 68.3901 22.5099 68.2101 19.3099C68.0301 16.1099 67.9401 12.8899 68.0601 9.6699C68.1601 7.6699 68.4501 7.9399 68.8801 9.6199C69.1101 10.4499 69.3701 11.6199 69.6501 13.0799C69.9291 14.7352 70.1194 16.4043 70.2201 18.0799C70.6601 24.5999 71.0101 31.1366 71.2701 37.6899C71.4001 40.9599 71.5401 44.2399 71.5801 47.5499C71.5801 48.3699 71.5801 49.2099 71.5801 50.0399C71.5801 50.4699 71.5801 50.8399 71.5801 51.3599C71.5801 51.8799 71.5801 52.1099 71.5201 52.4699C71.256 52.7208 70.979 52.9578 70.6901 53.1799L66.6901 56.1799C65.3388 57.2088 64.053 58.321 62.8401 59.5099C62.2518 60.0825 61.7101 60.7011 61.2201 61.3599C60.8369 61.8132 60.5968 62.37 60.5301 62.9599C60.8284 63.7767 61.4153 64.4561 62.1801 64.8699C63.0633 65.3896 64.0116 65.7898 65.0001 66.0599C67.0901 66.6799 69.2801 67.1599 71.4801 67.6099C74.1501 68.1499 76.8501 68.6699 79.5801 69.3299C80.9726 69.6525 82.3423 70.0668 83.6801 70.5699C84.4055 70.8453 85.0994 71.1973 85.7501 71.6199L86.3601 72.0799C86.5533 72.2712 86.7337 72.475 86.9001 72.6899C87.0759 72.8868 87.2148 73.1138 87.3101 73.3599C87.4315 73.5905 87.5222 73.8359 87.5801 74.0899C87.6452 74.3965 87.6452 74.7133 87.5801 75.0199C87.5026 75.3263 87.3668 75.6149 87.1801 75.8699C86.7751 76.3851 86.2589 76.8022 85.6701 77.0899C85.2269 77.3107 84.7692 77.5012 84.3001 77.6599C83.8701 77.8099 83.4401 77.9299 83.0201 78.0499C81.3422 78.4726 79.6432 78.8064 77.9301 79.0499C72.4801 79.8999 67.0301 80.2999 61.6801 81.1199C60.2477 81.3398 58.8288 81.6403 57.4301 82.0199C57.0901 82.1199 56.7601 82.2299 56.4301 82.3499L56.2001 82.4499L56.0501 82.5099C55.9593 82.5523 55.8723 82.6025 55.7901 82.6599C55.609 82.7517 55.4696 82.909 55.4001 83.0999C55.3858 83.1984 55.3936 83.299 55.4231 83.3941C55.4525 83.4892 55.5027 83.5766 55.5701 83.6499C55.6672 83.8375 55.792 84.0094 55.9401 84.1599C56.134 84.3821 56.341 84.5925 56.5601 84.7899C56.8001 84.9699 57.0201 85.1799 57.2701 85.3499L58.0401 85.8399C59.1567 86.4384 60.3332 86.9177 61.5501 87.2699C64.0556 87.9475 66.61 88.4289 69.1901 88.7099C75.4901 89.4799 81.7701 89.5399 88.1201 90.7599C89.5303 91.0223 90.9204 91.3832 92.2801 91.8399C94.1895 92.4248 95.9336 93.4527 97.3701 94.8399C97.5901 95.0899 97.7801 95.3199 97.9501 95.5299C98.0859 95.7392 98.203 95.9601 98.3001 96.1899C98.4762 96.5331 98.5655 96.9142 98.5601 97.2999C98.5975 97.5887 98.5975 97.8811 98.5601 98.1699C98.4501 98.4999 98.0201 98.2499 97.4201 97.6599C96.4415 96.8108 95.3716 96.073 94.2301 95.4599C93.0515 94.8598 91.8108 94.3904 90.5301 94.0599C89.2127 93.7011 87.8776 93.4107 86.5301 93.1899C83.7601 92.7399 80.9001 92.4499 77.9901 92.1899C75.0801 91.9299 72.1301 91.6899 69.1301 91.3399C66.0462 91.0321 62.999 90.4293 60.0301 89.5399C59.4201 89.3599 58.8101 89.0799 58.2001 88.8499C57.5812 88.5743 56.98 88.2603 56.4001 87.9099C55.7921 87.5357 55.2167 87.1109 54.6801 86.6399C54.4201 86.3699 54.1701 86.0899 53.9101 85.8099C53.8501 85.7299 53.7701 85.6599 53.7001 85.5599L53.4501 85.1899L53.0001 84.4299C52.8423 84.0968 52.7312 83.7434 52.6701 83.3799C52.6322 83.0162 52.6696 82.6485 52.7801 82.2999C53.0271 81.5841 53.5149 80.9762 54.1601 80.5799C54.4775 80.3631 54.8119 80.1725 55.1601 80.0099C55.3837 79.9044 55.6143 79.8141 55.8501 79.7399C56.2901 79.5699 56.7201 79.4499 57.1501 79.3299C58.7984 78.9106 60.4673 78.5768 62.1501 78.3299C65.4201 77.7899 68.6501 77.3299 71.8701 76.9499L71.8601 76.9999Z" fill="#231F20"/>
<path d="M68.4002 12.1698C68.4002 12.1698 82.6502 10.1698 86.5602 13.2298C86.8469 13.4441 87.061 13.7411 87.1737 14.0809C87.2863 14.4206 87.2921 14.7867 87.1902 15.1298C86.9202 16.2198 84.1902 22.6898 83.4702 24.4198C78.9533 25.0199 74.3937 25.2374 69.8402 25.0698C69.4902 24.9998 68.2202 13.2498 68.4002 12.1698Z" fill="#231F20"/>
<path d="M87.9101 17.6799C87.7501 18.0699 84.8201 25.1999 84.2001 25.7699C83.5801 26.3399 77.0801 26.3999 77.0801 26.3999C77.0801 26.3999 77.2501 28.9299 78.9001 29.0099C80.5501 29.0899 92.4401 29.6199 93.3901 28.1999C94.0201 27.2599 91.1201 24.4499 90.5701 23.9799C90.5701 23.9799 94.5701 21.6799 94.5701 20.6299C94.5401 19.0599 87.9101 17.6799 87.9101 17.6799Z" fill="#231F20"/>
<path d="M27.4699 104.87C27.4699 104.87 14.9399 108.97 15.3599 113.08C15.3599 113.08 14.9399 119.08 40.4199 119.55C44.6965 119.793 48.9834 119.793 53.2599 119.55C53.2599 119.55 29.9999 116.33 27.9999 110.85C25.9999 105.37 27.4699 104.87 27.4699 104.87Z" fill="#231F20"/>
<path d="M111.18 25.22C111.309 25.1664 111.447 25.1404 111.587 25.1436C111.726 25.1467 111.863 25.179 111.99 25.2383C112.116 25.2977 112.228 25.3827 112.32 25.4881C112.411 25.5934 112.479 25.7167 112.52 25.85C113.5 28.55 108.35 26.24 111.18 25.22Z" stroke="#231F20" stroke-width="0.8" stroke-miterlimit="10"/>
<path d="M93.48 45.39C93.487 45.2511 93.5228 45.1152 93.5852 44.991C93.6477 44.8667 93.7353 44.7569 93.8426 44.6684C93.9499 44.5799 94.0744 44.5148 94.2083 44.4772C94.3421 44.4396 94.4824 44.4303 94.62 44.45C97.47 44.71 93.19 48.39 93.48 45.39Z" fill="#231F20"/>
<path d="M49 20.9299C49.0084 20.7929 49.045 20.6591 49.1074 20.5368C49.1697 20.4145 49.2567 20.3063 49.3627 20.2191C49.4687 20.1318 49.5915 20.0674 49.7235 20.0297C49.8555 19.992 49.9939 19.9818 50.13 19.9999C53 20.2499 48.71 23.9299 49 20.9299Z" fill="#231F20"/>
<path d="M57.8101 36.7598C57.8147 36.6151 57.8507 36.4731 57.9155 36.3436C57.9804 36.2142 58.0726 36.1003 58.1857 36.01C58.2989 35.9197 58.4303 35.855 58.5709 35.8204C58.7115 35.7858 58.858 35.7822 59.0001 35.8098C61.8101 36.0798 57.5301 39.7598 57.8101 36.7598Z" stroke="#231F20" stroke-width="0.8" stroke-miterlimit="10"/>
</svg>
