<svg width="128" height="128" viewBox="0 0 128 128" fill="none" xmlns="http://www.w3.org/2000/svg">
<path d="M63.33 76.53C63.8545 76.5688 64.3645 76.7202 64.8253 76.9739C65.286 77.2275 65.6867 77.5775 66 78C67.15 79.92 68.78 100.55 68.49 102C68.41 102.42 65.16 102.55 65.49 103.16C67.4331 104.991 69.5198 106.663 71.73 108.16L69.67 110.61L59.21 101L65.9 100.22L63.33 76.53Z" fill="#231F20"/>
<path d="M51.6001 23.6401C56.2925 21.4942 61.4582 20.592 66.6001 21.0201C67.5401 21.0201 68.4501 21.2401 69.3801 21.3501C70.2978 21.5092 71.2059 21.7195 72.1001 21.9801C78.3209 23.898 83.8694 27.5426 88.1001 32.4901C89.9696 34.6471 91.5681 37.0248 92.8601 39.5701C93.2601 40.3901 93.6501 41.2201 94.0001 42.0601C94.3501 42.9001 94.6801 43.7601 94.9001 44.6501C95.153 45.5295 95.3271 46.4297 95.4201 47.3401C95.4201 47.7901 95.5301 48.2401 95.5401 48.7001V50.0601C95.5401 51.1901 95.3301 51.0601 94.9001 50.1501C94.6701 49.7101 94.4301 49.0701 94.0601 48.3401C93.6597 47.5309 93.3058 46.6995 93.0001 45.8501C92.008 42.526 90.4704 39.39 88.4501 36.5701C86.4279 33.7142 83.9872 31.1791 81.2101 29.0501C79.5104 27.7391 77.6525 26.6472 75.6801 25.8001C73.7114 24.9127 71.6433 24.2647 69.5201 23.8701C64.8554 22.9555 60.0337 23.2586 55.5201 24.7501C52.7152 25.6641 50.0626 26.9921 47.6501 28.6901C43.9471 31.2373 40.8253 34.5397 38.4901 38.3801C37.6019 39.8458 36.8551 41.3928 36.2601 43.0001C35.6559 44.5875 35.1875 46.2234 34.8601 47.8901C34.7201 48.6201 34.6001 49.3401 34.5101 50.0801C34.1701 52.8301 34.0001 53.7001 33.3601 54.3101C33.2402 54.4529 33.1099 54.5866 32.9701 54.7101C32.7601 54.8501 32.5901 54.6301 32.3901 54.0901C32.1206 53.2893 32.0152 52.4424 32.0801 51.6001C32.4032 44.7627 34.9766 38.2237 39.4001 33.0001C42.6978 28.9884 46.8577 25.772 51.5701 23.5901L51.6001 23.6401Z" fill="#231F20"/>
<path d="M11.2601 71.7C10.6868 72.9558 10.2185 74.2569 9.86007 75.59L9.39007 77.59L9.12007 79.64C8.86974 82.3908 9.1308 85.1642 9.89007 87.82L10.3601 89.26C10.5401 89.73 10.7801 90.18 10.9901 90.64C11.4171 91.5504 11.9084 92.4293 12.4601 93.27C14.3686 96.297 17.0932 98.7234 20.3201 100.27C23.6895 101.696 27.3528 102.289 31.0001 102C34.2878 101.798 37.5472 101.268 40.7301 100.42C44.8401 99.42 48.8701 97.98 53.1201 97.33C54.4501 97.16 54.3301 97.43 53.3401 98.09C51.7495 99.1536 50.0015 99.9601 48.1601 100.48C43.9657 101.804 39.6857 102.84 35.3501 103.58C34.2401 103.72 33.1401 103.91 32.0101 103.96L30.3301 104.07H28.6201C27.4788 104.046 26.34 103.952 25.2101 103.79C24.6501 103.72 24.0901 103.55 23.5201 103.44C22.9567 103.33 22.4019 103.18 21.8601 102.99C19.1723 102.137 16.6831 100.753 14.5401 98.92L13.0001 97.48C12.5001 96.98 12.0901 96.41 11.6301 95.88C11.4001 95.6 11.1701 95.34 10.9601 95.06L10.3901 94.16C9.98998 93.5815 9.62917 92.9768 9.31007 92.35C6.49532 86.8037 5.88783 80.3965 7.61007 74.42C8.65532 70.8091 10.417 67.4455 12.7901 64.53C14.5691 62.3224 16.6971 60.4206 19.0901 58.9C21.4485 57.3661 24.0055 56.1616 26.6901 55.32C30.8357 54.0011 35.2302 53.6588 39.5301 54.32C40.4727 54.4609 41.4074 54.6512 42.3301 54.89C43.5533 55.2235 44.7245 55.7249 45.8101 56.38C46.108 56.5594 46.3804 56.778 46.6201 57.03C46.7797 57.2298 46.9203 57.4441 47.0401 57.67C47.1401 57.85 47.2901 58.04 47.3401 58.16C47.3901 58.28 47.1101 58.37 46.4401 58.33C46.0409 58.3112 45.6467 58.2337 45.2701 58.1C44.8001 57.99 44.2701 57.85 43.6901 57.68C41.9495 57.1832 40.1747 56.8156 38.3801 56.58C36.5638 56.375 34.7321 56.3449 32.9101 56.49C31.0783 56.645 29.2662 56.9799 27.5001 57.49C25.726 58.0511 24.0111 58.7846 22.3801 59.68C19.9513 61.0026 17.7391 62.6888 15.8201 64.68C13.9543 66.7308 12.4344 69.0713 11.3201 71.61L11.2601 71.7Z" fill="#231F20"/>
<path d="M117.35 81.6001C118.353 79.5886 118.916 77.3863 119 75.1401C119.26 71.1218 118.207 67.1278 116 63.7601C115.215 62.4969 114.278 61.3349 113.21 60.3001C112.133 59.2645 110.938 58.3583 109.65 57.6001C107.003 56.1363 104.075 55.2501 101.06 55.0001C98.3682 54.7828 95.6592 55.0469 93.06 55.7801C89.72 56.7301 86.72 58.6201 83.47 60.0701C82.47 60.4901 82.47 60.2401 83.09 59.4501C84.0962 58.166 85.3687 57.1152 86.82 56.3701C88.4741 55.4656 90.2081 54.7158 92 54.1301C93.8316 53.5797 95.7209 53.2441 97.63 53.1301C101.44 52.8372 105.264 53.4791 108.77 55.0001C113.104 56.9211 116.67 60.2372 118.9 64.4201C120.072 66.7182 120.824 69.2074 121.12 71.7701C121.464 74.3379 121.294 76.9485 120.62 79.4501C119.726 82.5101 118.055 85.2867 115.77 87.5101C112.348 90.8234 108.005 93.0263 103.31 93.8301C99.8187 94.3979 96.3008 94.7884 92.77 95.0001C92.01 95.0501 91.28 95.1601 90.52 95.2201C89.9297 95.3012 89.3355 95.3513 88.74 95.3701C88.337 95.3927 87.933 95.3927 87.53 95.3701C87.2548 95.3683 86.9803 95.3415 86.71 95.2901C86.5025 95.2262 86.3015 95.1424 86.11 95.0401C85.95 94.9601 85.74 94.9001 85.65 94.8401C85.56 94.7801 85.65 94.5601 86.14 94.2301C86.8615 93.7946 87.6589 93.4995 88.49 93.3601C91.6723 92.8235 94.8854 92.4895 98.11 92.3601C101.241 92.215 104.331 91.5876 107.27 90.5001C111.545 88.8147 115.086 85.6731 117.27 81.6301L117.35 81.6001Z" fill="#231F20"/>
<path d="M89.6299 17.5301C89.8722 17.1842 90.2407 16.9475 90.656 16.8708C91.0712 16.7941 91.5 16.8836 91.8499 17.1201C94.9099 19.6501 86.4799 21.3501 89.6299 17.5301Z" stroke="#231F20" stroke-width="1.2" stroke-miterlimit="10"/>
<path d="M20.8698 67.0901C21.1119 66.7466 21.4793 66.5121 21.8929 66.4372C22.3064 66.3624 22.7327 66.4532 23.0798 66.6901C26.1398 69.2101 17.7098 70.9101 20.8698 67.0901Z" stroke="#231F20" stroke-width="1.2" stroke-miterlimit="10"/>
<path d="M97.0001 33.6601C97.2421 33.3165 97.6096 33.082 98.0231 33.0072C98.4366 32.9323 98.863 33.0232 99.2101 33.2601C102.25 35.7801 93.8201 37.4901 97.0001 33.6601Z" stroke="#231F20" stroke-width="1.2" stroke-miterlimit="10"/>
<path d="M109.39 26.74C109.632 26.3965 109.999 26.162 110.413 26.0871C110.826 26.0123 111.253 26.1031 111.6 26.34C114.66 28.86 106.23 30.56 109.39 26.74Z" fill="#231F20"/>
<path d="M96.82 108.92C97.0621 108.577 97.4295 108.342 97.8431 108.267C98.2566 108.192 98.6829 108.283 99.03 108.52C102.09 111 93.66 112.75 96.82 108.92Z" fill="#231F20"/>
<path d="M19 35.7701C19.2388 35.4228 19.6058 35.1845 20.0202 35.1076C20.4346 35.0307 20.8625 35.1215 21.21 35.3601C24.28 37.8901 15.85 39.5901 19 35.7701Z" fill="#231F20"/>
<path d="M65.5302 101.4L61.5302 101.65H61.3202H60.7302L60.9402 101.87L61.0702 102L61.1402 102.07L61.4802 102.37L64.2802 104.78L67.2202 107.4C68.1302 108.22 69.4502 109.4 69.5502 109.52L69.8902 109.15L70.7502 108.15L72.4502 106.15C73.7202 104.7 74.9502 103.15 76.1602 101.71L76.7802 100.94L77.0402 100.6L77.5102 99.9901C76.9344 100.035 76.356 100.035 75.7802 99.9901C75.4102 99.9901 75.1402 99.4901 76.0102 98.9901C76.7347 98.6105 77.5089 98.3345 78.3102 98.1701C79.5263 97.9097 80.7594 97.7359 82.0002 97.6501H82.1902L77.8202 102.85L75.3802 105.68L72.8902 108.49C71.8302 109.66 70.7802 110.84 69.7202 112.02L67.2902 109.84L65.5402 108.31L62.0002 105.31L56.2002 100.25L62.4602 99.8201L64.4602 99.7001L64.4002 98.5801L64.2802 96.7901C64.0602 93.6201 63.8702 90.4301 63.6002 87.2901C63.3802 84.8501 63.0702 82.4601 62.7902 80.0501L62.6102 78.4701C62.4202 76.4701 62.4902 75.8401 62.9602 75.3701C63.0558 75.2594 63.1594 75.1557 63.2702 75.0601C63.6402 74.8401 64.0202 75.6301 64.2702 77.0601C64.9502 81.3501 65.3502 85.9001 65.7202 90.4701C65.9802 94.1101 66.2402 97.7701 66.5102 101.41L65.5102 101.49L65.5302 101.4Z" fill="#231F20"/>
<path d="M70.1001 90C70.1001 88.71 70.1002 87.42 70.0102 86.13C70.0102 85.66 69.9202 85.19 69.9102 84.72C69.9102 83.06 69.9101 81.39 69.8501 79.72C69.8501 78.98 69.7502 78.25 69.6602 77.52C69.4588 76.5978 69.3914 75.6514 69.4601 74.71C69.5601 74.12 71.6701 74.71 71.7801 75.77C71.9837 77.6866 72.0172 79.6175 71.8801 81.54C71.8607 82.718 71.9008 83.8961 72.0001 85.07C72.0601 86.37 72.0901 87.68 72.1401 88.98C72.1401 89.78 72.1402 90.58 72.2202 91.38C72.2802 92.59 72.3102 93.81 72.4402 95C72.5402 95.93 72.7601 96.83 72.9201 97.75C72.9201 97.95 73.0102 98.15 73.0402 98.35C73.1402 99.1 73.0401 99.35 72.4601 99.56C72.3369 99.6154 72.2099 99.6622 72.0802 99.7C71.6402 99.81 71.2602 99.53 71.0802 98.98C70.6102 97.3202 70.3284 95.6128 70.2401 93.89C70.1401 92.6 70.0902 91.29 70.0102 89.99L70.1001 90Z" fill="#231F20"/>
<path d="M29.0001 103.49C27.9401 103.49 26.8701 103.38 25.8001 103.33C24.7301 103.28 23.6801 103.06 22.6301 102.85C21.8701 102.66 21.0901 102.54 20.3401 102.33C17.6783 101.551 15.2157 100.207 13.1201 98.39C12.6404 98.0136 12.2013 97.5879 11.8101 97.12C11.4101 96.66 10.9901 96.22 10.6201 95.74L9.35013 93.74C9.04013 93.03 8.74013 92.31 8.47013 91.59C8.31013 91.14 8.53013 91.13 8.88013 91.42C9.39446 91.8698 9.80988 92.4215 10.1001 93.04C11.5599 95.6562 13.7029 97.8268 16.3001 99.32C16.6869 99.5609 17.0953 99.7652 17.5201 99.93C17.9361 100.131 18.3635 100.308 18.8001 100.46L20.1501 100.86L20.8201 101.06L21.5101 101.19L23.0201 101.5C23.5201 101.59 24.0201 101.63 24.5501 101.7C25.5501 101.86 26.6101 101.89 27.6401 101.95C28.2801 102.01 28.9201 101.95 29.5601 101.95C30.2001 101.95 30.8401 101.95 31.4801 101.95C33.4227 101.847 35.3587 101.644 37.2801 101.34C38.7701 101.14 40.2101 100.8 41.6601 100.51C41.9901 100.45 42.3001 100.36 42.6601 100.29C43.8601 100.04 44.2601 100.04 44.5701 100.19C44.6392 100.214 44.7061 100.244 44.7701 100.28C44.9201 100.4 44.4701 100.66 43.6101 100.97C40.9741 101.946 38.2472 102.656 35.4701 103.09L33.8801 103.28L32.2701 103.39C31.2001 103.49 30.1201 103.49 29.0501 103.5L29.0001 103.49Z" fill="#231F20"/>
<path d="M108.16 92.77C106.647 93.3511 105.093 93.8191 103.51 94.17C102.93 94.29 102.36 94.42 101.78 94.51C99.7802 94.83 97.6902 94.97 95.6502 95.12L92.9402 95.36C91.7802 95.47 90.6302 95.61 89.4702 95.62C88.7502 95.62 89.6002 94.84 90.9302 94.69C93.2802 94.45 95.6202 94.26 97.9302 94.08C99.3695 93.9537 100.801 93.7534 102.22 93.48C103.774 93.1935 105.302 92.7822 106.79 92.25C107.71 91.9301 108.611 91.5595 109.49 91.14C110.83 90.5281 112.097 89.7702 113.27 88.88C114.148 88.1836 114.946 87.3921 115.65 86.52C115.82 86.34 115.95 86.14 116.11 85.95C116.7 85.24 116.85 84.95 117.11 84.95C117.154 84.9208 117.201 84.8972 117.25 84.88C117.38 84.88 117.25 85.22 116.94 85.88C115.864 87.7841 114.34 89.3974 112.5 90.58C111.138 91.5052 109.675 92.2734 108.14 92.87L108.16 92.77Z" fill="#231F20"/>
</svg>
