<svg width="128" height="128" viewBox="0 0 128 128" fill="none" xmlns="http://www.w3.org/2000/svg">
<path d="M44.6998 68.85C44.2542 70.9234 44.5868 73.0883 45.6343 74.9323C46.6817 76.7764 48.3707 78.1708 50.3798 78.85C52.2915 79.5847 54.3741 79.7548 56.3798 79.34C58.4094 78.9223 60.2544 77.872 61.6498 76.34C62.876 74.9303 63.6618 73.1918 63.9098 71.34C64.1639 69.0105 63.711 66.6584 62.6098 64.59C62.2798 63.96 62.7898 63.59 63.6898 63.87C64.3329 64.1151 64.9038 64.5185 65.3495 65.0429C65.7953 65.5673 66.1015 66.1958 66.2398 66.87C66.9551 69.8174 66.5487 72.9255 65.0998 75.59C64.3736 76.882 63.4258 78.0363 62.2998 79C61.1399 79.9338 59.8178 80.6457 58.3998 81.1C55.0079 82.2295 51.3076 81.978 48.0998 80.4C46.3526 79.4756 44.8902 78.0928 43.8698 76.4C42.8745 74.7667 42.3038 72.9103 42.2098 71C42.1017 68.0386 43.0158 65.1303 44.7984 62.7631C46.5811 60.396 49.1238 58.7142 51.9998 58C54.7013 57.3627 57.5447 57.8002 59.9298 59.22C60.4477 59.5153 60.9425 59.8496 61.4098 60.22C63.1198 61.69 63.3398 62.44 63.1298 63.16C63.096 63.3323 63.0423 63.5001 62.9698 63.66C62.8298 63.88 62.5498 63.89 62.1798 63.72C61.6898 63.4395 61.2335 63.104 60.8198 62.72C60.4398 62.36 59.9998 62.09 59.5898 61.72C59.1798 61.35 58.7398 61.17 58.2798 60.96C57.399 60.5074 56.4496 60.2034 55.4698 60.06C53.4917 59.8008 51.4854 60.2431 49.7998 61.31C48.4838 62.112 47.3561 63.1881 46.4933 64.4651C45.6305 65.742 45.0529 67.1898 44.7998 68.71L44.6998 68.85Z" fill="#231F20"/>
<path d="M33.2799 68.5102C32.9294 71.5834 33.2711 74.6961 34.2799 77.6202C35.2338 80.5595 36.9079 83.2134 39.1499 85.3402C40.7979 86.8659 42.691 88.1032 44.7499 89.0002C48.4519 90.6904 52.5404 91.3539 56.5869 90.9211C60.6335 90.4883 64.4891 88.9751 67.7499 86.5402C70.5677 84.2957 72.747 81.3509 74.0699 78.0002C75.7008 73.6788 76.0684 68.9826 75.1299 64.4602C74.8399 63.0702 75.4699 63.0202 76.3899 64.1202C77.731 65.9929 78.3845 68.2713 78.2399 70.5702C78.0671 75.8554 76.1389 80.9325 72.7599 85.0002C69.3857 89.0612 64.6993 91.8165 59.5099 92.7902C53.2703 94.0959 46.7685 93.0639 41.2399 89.8902C38.2354 88.0922 35.7238 85.5771 33.9299 82.5702C33.0389 81.0797 32.3368 79.4841 31.8399 77.8202C31.5776 76.996 31.3606 76.1581 31.1899 75.3102C31.0499 74.4602 30.9099 73.6102 30.8499 72.7502C30.6806 70.6374 30.7983 68.5113 31.1999 66.4302C31.5821 64.3541 32.2343 62.337 33.1399 60.4302C34.4814 57.5363 36.3422 54.9129 38.6299 52.6902C40.8895 50.4504 43.5577 48.6648 46.4899 47.4302C51.0508 45.4425 56.1776 45.176 60.9199 46.6802C61.948 47.014 62.9506 47.4218 63.9199 47.9002C67.4899 49.9002 68.2299 51.0602 68.4599 52.0502C68.5276 52.2715 68.5711 52.4995 68.5899 52.7302C68.5899 53.0302 68.1699 53.0002 67.5899 52.7302C67.1816 52.5175 66.7905 52.2734 66.4199 52.0002C65.9599 51.7402 65.4199 51.4402 64.8699 51.0702C63.1506 50.0358 61.3009 49.2354 59.3699 48.6902C57.4119 48.1889 55.3864 48.0032 53.3699 48.1402C49.2577 48.4801 45.3454 50.0597 42.1499 52.6702C37.2249 56.5751 34.0436 62.269 33.2999 68.5102H33.2799Z" fill="#231F20"/>
<path d="M21.6399 66.1202C20.8868 70.9667 21.2042 75.9194 22.5699 80.6302C23.262 82.9726 24.2146 85.2301 25.4099 87.3602C26.6163 89.4843 28.0918 91.4438 29.7999 93.1902C32.3132 95.7429 35.25 97.8406 38.4799 99.3902C44.2318 102.183 50.6258 103.388 56.9999 102.88C63.3942 102.432 69.5325 100.189 74.7099 96.4102C79.239 92.9729 82.7871 88.4076 84.9999 83.1702C87.7812 76.4544 88.478 69.0572 86.9999 61.9402C86.5299 59.7602 87.1799 59.8202 88.2599 61.6002C89.835 64.6677 90.5274 68.1123 90.2599 71.5502C90.0747 75.5085 89.2438 79.41 87.7999 83.1002C86.2963 86.7759 84.2169 90.1886 81.6399 93.2102C79.029 96.2142 75.916 98.7418 72.4399 100.68C68.9655 102.592 65.1975 103.914 61.2899 104.59C56.5753 105.41 51.7545 105.41 47.0399 104.59C44.653 104.155 42.3102 103.506 40.0399 102.65C37.787 101.763 35.6294 100.651 33.5999 99.3302C29.1546 96.4164 25.5103 92.4351 22.9999 87.7502C20.5158 83.0665 19.1308 77.8787 18.9499 72.5802C18.8245 69.3385 19.1441 66.095 19.8999 62.9402C20.6633 59.8189 21.7911 56.7981 23.2599 53.9402C25.5223 49.5984 28.5354 45.6915 32.1599 42.4002C35.8089 39.1538 40.0497 36.6413 44.6499 35.0002C48.2092 33.7596 51.9613 33.1636 55.7299 33.2402C59.4933 33.3424 63.2041 34.1497 66.6699 35.6202C67.0599 35.7802 67.4499 35.9102 67.8199 36.0902L68.9199 36.6502C69.6684 37.0055 70.3962 37.4028 71.0999 37.8402C72.9637 38.9857 74.7002 40.3266 76.2799 41.8402C76.9794 42.5434 77.5363 43.3754 77.9199 44.2902C78.0469 44.5805 78.1473 44.8817 78.2199 45.1902C78.2199 45.5602 77.7499 45.4002 76.8499 44.7802C76.3999 44.4802 75.8499 44.0602 75.2099 43.5402C74.5699 43.0202 73.7599 42.5402 72.9199 41.8602C70.3539 39.9758 67.5321 38.4672 64.5399 37.3802C61.5267 36.2897 58.3538 35.7052 55.1499 35.6502C48.5819 35.6498 42.1863 37.7525 36.8999 41.6502C32.9015 44.5275 29.5044 48.159 26.8999 52.3402C24.2584 56.5375 22.4898 61.2241 21.6999 66.1202H21.6399Z" fill="#231F20"/>
<path d="M11.59 65.5402C10.2491 74.8675 12.0056 84.3773 16.59 92.6102C18.1429 95.3124 20.0165 97.8172 22.17 100.07C23.738 101.718 25.4516 103.221 27.29 104.56C29.1395 105.891 31.0886 107.078 33.12 108.11C47.42 115.49 65.85 114.72 79.36 105.65C85.3334 101.581 90.1556 96.0388 93.36 89.5602C97.3997 81.2588 98.9123 71.9537 97.71 62.8002C97.31 59.9902 97.97 60.1902 98.99 62.5502C99.6257 64.1934 100.069 65.9049 100.31 67.6502C100.623 70.1504 100.623 72.6799 100.31 75.1802C99.0804 85.0913 94.7064 94.3474 87.83 101.59C84.4082 105.161 80.4088 108.129 76 110.37C71.5581 112.574 66.7962 114.062 61.89 114.78C58.9424 115.198 55.9667 115.385 52.99 115.34C49.9674 115.258 46.9569 114.924 43.99 114.34C38.0206 113.166 32.3441 110.817 27.29 107.43C21.7178 103.72 17.1518 98.6864 14 92.7802C10.8946 86.907 9.13219 80.4174 8.84002 73.7802C8.49795 65.628 10.2177 57.5213 13.84 50.2102C16.618 44.7136 20.3145 39.732 24.77 35.4802C29.2282 31.2689 34.4297 27.9221 40.11 25.6102C44.501 23.8623 49.1575 22.8748 53.88 22.6902C58.5971 22.5341 63.3024 23.2494 67.76 24.8002L69.24 25.2902C69.73 25.4602 70.18 25.7002 70.66 25.9002C71.59 26.3302 72.56 26.7202 73.48 27.2102C80.28 31.0202 81.79 33.2102 82.64 34.6402C82.8405 34.9604 83.0176 35.2946 83.17 35.6402C83.27 36.0602 82.67 35.8402 81.52 35.0902C80.95 34.7202 80.23 34.2102 79.41 33.5802L76.41 31.5802C73.0009 29.3796 69.2975 27.6727 65.41 26.5102C61.4738 25.3823 57.3803 24.9027 53.29 25.0902C49.1455 25.2888 45.0599 26.1532 41.19 27.6502C37.2859 29.1995 33.6171 31.2863 30.29 33.8502L29.35 34.5502L28.46 35.3202L26.72 36.9002L25.06 38.5702C24.4934 39.1117 23.9592 39.686 23.46 40.2902L21.92 42.0702C21.44 42.6902 20.98 43.3302 20.51 43.9602C19.51 45.1902 18.76 46.5702 17.89 47.8802C16.2858 50.5884 14.9463 53.445 13.89 56.4102C13.3548 57.8861 12.8942 59.388 12.51 60.9102C12.29 61.6702 12.2 62.4502 12.03 63.2202C11.86 63.9902 11.69 64.7502 11.63 65.5302L11.59 65.5402Z" fill="#231F20"/>
<path d="M79.81 54.8102C77.7 56.1102 75.59 57.4302 73.5 58.8102C72.74 59.3002 72.03 59.8702 71.26 60.3502L63.16 65.4802C61.96 66.2502 60.82 67.1002 59.7 67.9502C58.3212 69.1022 56.8382 70.1233 55.27 71.0002C54.79 71.2402 54.41 70.6802 54.39 69.8502C54.3699 69.3683 54.4584 68.8881 54.6488 68.445C54.8391 68.0019 55.1266 67.6073 55.49 67.2902C58.3684 64.9636 61.4206 62.8608 64.62 61.0002C66.62 59.9002 68.38 58.4302 70.26 57.1502C72.34 55.7502 74.45 54.3802 76.55 53.0002L80.43 50.4802C82.38 49.1902 84.38 47.9502 86.28 46.6102C87.77 45.6102 89.12 44.4102 90.56 43.3302C90.88 43.1002 91.17 42.8302 91.5 42.6102C92.76 41.8202 93.3 41.7802 94.02 42.3802C94.18 42.5202 94.36 42.6502 94.5 42.8002C94.97 43.3202 94.75 44.1202 93.97 44.8602C91.5383 47.0784 88.9222 49.0857 86.15 50.8602L79.86 54.9402L79.81 54.8102Z" fill="#231F20"/>
<path d="M97.2398 51.5401C93.0998 52.7301 85.3598 49.0001 85.3598 49.0001C85.3598 49.0001 83.9298 39.5001 87.7498 36.3001C88.2898 35.8501 92.1898 32.7601 94.7498 31.8701C95.7498 31.5201 93.2298 41.7401 94.4598 42.6801C94.4598 42.6801 103.53 43.8801 105.09 45.5401L97.2398 51.5401Z" fill="#231F20"/>
<path d="M92.8498 37.8402C93.0798 36.2902 93.4698 33.8402 93.4498 34.2102C93.4745 34.1287 93.4745 34.0417 93.4498 33.9602H93.2498L93.0098 34.0602C93.0098 34.0602 93.0098 34.0602 92.9198 34.0602L92.6598 34.2102L92.1398 34.5202C91.1398 35.1502 90.1398 35.8802 89.2198 36.5902L88.5898 37.0502C88.4198 37.2002 88.2998 37.3402 88.1398 37.4702C87.9879 37.6212 87.8537 37.7889 87.7398 37.9702C87.6003 38.1472 87.4797 38.3382 87.3798 38.5402C86.9229 39.4013 86.6056 40.3296 86.4398 41.2902C86.0513 43.3393 85.9336 45.4305 86.0898 47.5102V47.9702V48.2802L86.3298 48.4002L86.6598 48.5402C86.9898 48.6902 87.3298 48.8202 87.6598 48.9602C88.3398 49.2202 89.0298 49.4602 89.7198 49.6702C91.9069 50.355 94.188 50.6925 96.4798 50.6702C97.1098 50.6702 97.2998 51.2202 96.7398 51.9502C96.286 52.4193 95.7244 52.7703 95.1039 52.9725C94.4833 53.1747 93.8228 53.2219 93.1798 53.1102C91.6712 52.872 90.1881 52.4937 88.7498 51.9802C88.0398 51.7402 87.3498 51.4602 86.6598 51.1702L85.6598 50.7202L84.8098 50.3202L83.9298 50.0002C83.8698 49.4902 83.8098 49.0002 83.7598 48.4602V48.1102V47.9002V47.4802C83.7598 46.9202 83.7598 46.3602 83.7598 45.7902C83.7653 44.6562 83.8455 43.5237 83.9998 42.4002C84.2218 40.74 84.6903 39.1222 85.3898 37.6002C85.7819 36.7713 86.3283 36.0246 86.9998 35.4002C87.6498 34.8702 88.2598 34.4002 88.9098 33.9502C89.5598 33.5002 90.3398 32.9502 91.0898 32.5202L91.6598 32.1802C91.8698 32.0602 92.2398 31.8402 92.5198 31.7102C93.0765 31.4053 93.6673 31.167 94.2798 31.0002C94.5178 30.9566 94.7617 30.9566 94.9998 31.0002C95.1029 30.9911 95.2066 30.9911 95.3098 31.0002C95.4212 31.0532 95.5124 31.1409 95.5698 31.2502C95.8234 31.7004 95.9415 32.2144 95.9098 32.7302C95.8919 33.4004 95.8284 34.0686 95.7198 34.7302L95.5298 36.0002C95.3698 37.0002 95.2098 38.0602 95.0798 39.0702C95.0198 39.5802 94.9598 40.0702 94.9298 40.5802C94.9298 40.8102 94.9298 41.1202 94.9298 41.2602C94.9198 41.3933 94.9198 41.527 94.9298 41.6602C94.9298 41.8102 95.0198 42.0102 95.1998 41.9802L96.9598 42.2902L99.0798 42.7202C99.7898 42.8702 100.49 43.0302 101.2 43.2102C101.998 43.394 102.783 43.6312 103.55 43.9202L104.15 44.1402L104.68 44.4202C105.028 44.6024 105.362 44.8096 105.68 45.0402C105.84 45.1702 106.02 45.2902 106.16 45.4202L105.79 45.8102L105.05 46.6202L104.05 47.4702L103.19 48.2002L101.82 49.3702C101.41 49.7102 101.03 50.0702 100.61 50.3702C99.0598 51.6202 98.4698 51.8802 97.7398 51.6302C97.5712 51.5856 97.4071 51.5254 97.2498 51.4502C96.7898 51.1802 97.1798 50.3602 98.2498 49.3602C99.0398 48.6102 99.8498 47.8802 100.69 47.1502L101.95 46.0702L102.1 45.9402C102.1 45.9402 102 45.9402 101.99 45.9402H101.91L101.14 45.7202C100.62 45.5802 100.08 45.4602 99.5498 45.3402C98.7298 45.1602 97.8898 45.0002 97.0598 44.8402L95.7998 44.6202L94.9998 44.3402L93.7098 44.1602C93.5898 44.0102 93.4598 43.9202 93.3598 43.7802L92.9998 43.3602C92.8041 43.0319 92.6749 42.6684 92.6198 42.2902C92.5573 41.9067 92.5272 41.5187 92.5298 41.1302C92.5298 40.8902 92.5298 40.6602 92.5298 40.4302C92.5298 39.5202 92.6798 38.6702 92.7898 37.8402H92.8498Z" fill="#231F20"/>
<path d="M14.5099 93.21C17.7465 99.3754 22.5821 104.557 28.5099 108.21C30.6841 109.524 32.9656 110.651 35.3299 111.58C43.7669 114.936 52.9955 115.777 61.8999 114C65.8365 113.23 69.6375 111.882 73.1799 110C75.4329 108.797 77.5775 107.402 79.5899 105.83C81.5818 104.24 83.4722 102.526 85.2499 100.7C86.3699 99.58 86.7199 100.12 86.2499 101.55C85.92 102.504 85.4444 103.401 84.8399 104.21C84.4799 104.71 84.0699 105.21 83.5999 105.78C83.0909 106.296 82.5569 106.786 81.9999 107.25C73.2873 114.207 62.3236 117.723 51.1899 117.13C44.4643 116.865 37.8518 115.314 31.7099 112.56C24.9555 109.42 19.1549 104.544 14.8999 98.43C14.2099 97.53 13.6899 96.51 13.0799 95.55C12.4699 94.59 12.0299 93.55 11.4999 92.55C10.9699 91.55 10.5999 90.46 10.1999 89.41C9.79994 88.36 9.44994 87.27 9.11994 86.2C7.22073 79.6069 6.79063 72.6774 7.85994 65.9C8.25086 63.31 8.82225 60.7504 9.56994 58.24C10.3443 55.7584 11.3036 53.3382 12.4399 51C12.9211 49.973 13.4551 48.9717 14.0399 48C16.2599 44.29 17.3399 43.36 18.3799 43C18.6071 42.9108 18.8412 42.8406 19.0799 42.79C19.3999 42.79 19.3799 43.19 19.0799 43.91C18.7799 44.63 18.1399 45.62 17.3899 46.91C15.0063 50.8067 13.1184 54.9857 11.7699 59.35C10.4099 63.8148 9.70262 68.4528 9.66994 73.12C9.65306 80.1158 11.3382 87.0107 14.5799 93.21H14.5099Z" fill="#231F20"/>
<path d="M53.3598 72.4201C52.9617 72.3439 52.6009 72.1356 52.336 71.8289C52.071 71.5222 51.9173 71.135 51.8998 70.7301C51.8963 70.4268 51.9922 70.1306 52.1727 69.8869C52.3533 69.6432 52.6086 69.4652 52.8998 69.3801C53.1043 69.3744 53.3079 69.4115 53.4973 69.4889C53.6867 69.5664 53.8578 69.6826 53.9998 69.8301C53.9998 69.9801 54.1898 70.0801 54.2798 70.0601H54.1498L54.2198 69.9901C54.2668 69.9212 54.2976 69.8426 54.3098 69.7601C54.3098 69.6901 54.3098 69.6901 54.3098 69.7601C54.3098 69.8301 54.3098 69.7601 54.1498 69.6301C54.094 69.5922 54.0335 69.562 53.9698 69.5401L53.8598 69.4901C54.1202 69.5166 54.383 69.4717 54.6198 69.3601C54.7098 69.3001 54.6198 69.3601 54.6198 69.4301C54.59 69.5685 54.59 69.7116 54.6198 69.8501C54.6351 70.0056 54.6756 70.1576 54.7398 70.3001C54.7716 70.3839 54.8118 70.4643 54.8598 70.5401V70.6001C54.8598 70.6001 54.9298 70.7001 54.7298 70.4501L54.4998 70.2101L54.1598 70.0001C54.0961 69.9389 54.0256 69.8852 53.9498 69.8401L53.8098 69.7301C53.7295 69.6811 53.646 69.6377 53.5598 69.6001C53.2698 69.6001 53.6598 69.6001 53.9998 69.3301C54.2799 69.1112 54.5058 68.8306 54.6598 68.5101C54.7098 68.3801 54.6598 68.5101 54.6598 68.7901C54.6575 68.9383 54.6883 69.0852 54.7498 69.2201C54.591 69.047 54.3965 68.9105 54.1798 68.8201L53.9998 68.7201C54.0042 68.6635 54.0042 68.6067 53.9998 68.5501C54.015 68.3537 54.015 68.1564 53.9998 67.9601C53.9998 67.8401 53.9998 67.6701 53.9098 67.6201C53.8794 67.5213 53.8111 67.4385 53.7198 67.3901C53.5127 67.2801 53.2989 67.1833 53.0798 67.1001C52.4482 66.9453 51.7817 67.0308 51.2098 67.3401C50.9661 67.4681 50.7542 67.6492 50.5898 67.8701C50.3965 68.1319 50.2447 68.422 50.1398 68.7301C50.0392 68.9529 50.0181 69.2035 50.0798 69.4401C50.1117 70.1863 50.2224 70.9271 50.4098 71.6501C50.5378 72.0487 50.7304 72.4237 50.9798 72.7601C51.1998 73.0901 51.3598 73.2301 51.4098 73.3201C51.6523 73.7333 52.0473 74.0349 52.5098 74.1601C53.1974 74.3183 53.9121 74.3183 54.5998 74.1601C54.8198 74.1601 55.0298 73.9801 55.3098 74.0701C55.6012 74.1388 55.9043 74.1413 56.1968 74.0773C56.4893 74.0132 56.7637 73.8843 56.9998 73.7001L59.1798 72.7001C59.5925 72.5502 60.0174 72.4364 60.4498 72.3601C60.8398 72.2501 61.0798 72.8301 61.0198 72.9701C60.8398 73.3601 61.2698 73.3801 61.4598 73.5401C61.5301 73.5966 61.5909 73.6642 61.6398 73.7401C61.1474 74.557 60.5636 75.3152 59.8998 76.0001C59.1475 76.8539 58.2587 77.5771 57.2698 78.1401C57.2198 78.1401 56.7498 78.4201 55.9098 78.7101C54.8251 79.1172 53.6782 79.3337 52.5198 79.3501C51.1201 79.3886 49.7366 79.0427 48.5198 78.3501C47.8221 77.9378 47.1859 77.4294 46.6298 76.8401C46.1919 76.3796 45.8518 75.8354 45.6298 75.2401C45.3913 74.7867 45.1809 74.3192 44.9998 73.8401C44.0942 71.5397 44.0728 68.9853 44.9398 66.6701C45.2994 65.8506 45.7632 65.0809 46.3198 64.3801C46.9394 63.6367 47.7528 63.0794 48.6698 62.7701C49.0107 62.6527 49.3446 62.5158 49.6698 62.3601C51.0328 61.7731 52.5365 61.5925 53.9998 61.8401C54.3982 61.9035 54.7899 62.004 55.1698 62.1401C55.5666 62.2738 55.9486 62.4481 56.3098 62.6601C56.6917 62.8873 57.0501 63.152 57.3798 63.4501C57.7046 63.7733 57.9961 64.1284 58.2498 64.5101C58.4933 64.8903 58.6945 65.2961 58.8498 65.7201C59.01 66.1329 59.124 66.5622 59.1898 67.0001L59.2698 67.6001C59.2794 67.7799 59.2794 67.9602 59.2698 68.1401C59.2837 68.5211 59.2636 68.9026 59.2098 69.2801C59.1538 69.5796 59.0632 69.8715 58.9398 70.1501C58.7845 70.5529 58.5938 70.9411 58.3698 71.3101C58.0453 71.8762 57.5933 72.359 57.0498 72.7201C56.5006 73.0853 55.8742 73.3181 55.2198 73.4001C54.0385 73.5342 52.8493 73.228 51.8798 72.5401C51.2874 72.1281 50.8203 71.5606 50.5298 70.9001C50.3449 70.4611 50.2564 69.9875 50.2702 69.5114C50.284 69.0353 50.3998 68.5676 50.6098 68.1401C50.937 67.5212 51.4151 66.995 51.9998 66.6101C52.4779 66.2623 53.0173 66.0078 53.5898 65.8601C54.1627 65.7045 54.7668 65.7045 55.3398 65.8601C55.8355 66.0044 56.292 66.2594 56.6749 66.6058C57.0577 66.9523 57.3568 67.3811 57.5498 67.8601C57.8529 68.6328 57.8881 69.4849 57.6498 70.2801C57.5013 70.795 57.2681 71.2817 56.9598 71.7201C56.507 72.2514 55.8648 72.585 55.1698 72.6501C54.557 72.7022 53.9401 72.6238 53.3598 72.4201Z" fill="#231F20"/>
<path d="M97.73 21.8101C97.84 21.9701 97.63 22.1001 97.23 22.2201C97.0428 22.2667 96.8471 22.2667 96.66 22.2201C96.5575 22.1438 96.4636 22.0567 96.38 21.9601C96.38 21.9001 96.12 21.0201 96.03 20.7201C95.9509 20.4368 95.9105 20.1442 95.91 19.8501L95.81 18.0801C95.7902 17.9508 95.7902 17.8193 95.81 17.6901C95.9211 17.2525 95.9483 16.7978 95.89 16.3501C95.8945 16.2676 95.8697 16.1861 95.82 16.1201C95.711 15.6312 95.6873 15.1271 95.75 14.6301C95.8797 14.2426 95.9899 13.8487 96.08 13.4501C96.08 13.4501 96.08 13.3401 96.16 13.2901C96.24 13.2401 96.32 13.0501 96.33 12.9301C96.3557 12.757 96.3958 12.5864 96.45 12.4201C96.45 12.3401 96.6 12.2601 96.69 12.1801C96.78 12.1001 97.06 12.1801 97.09 12.1801C97.12 12.1801 97.33 12.1801 97.45 12.1801H97.58C97.8185 12.5139 98.0134 12.8769 98.16 13.2601L98.24 14.0101C98.24 14.3901 98.34 14.7801 98.36 14.8601C98.3641 14.9474 98.3433 15.0341 98.3 15.1101C98.3 15.1101 98.46 16.2801 98.45 16.3201C98.45 16.5601 98.5 16.7901 98.32 17.0201C98.306 17.0657 98.306 17.1145 98.32 17.1601C98.3181 17.5658 98.2813 17.9707 98.21 18.3701C98.21 18.5701 98.21 18.7801 98.21 18.9801C98.2197 19.0161 98.2197 19.0541 98.21 19.0901C98.2063 19.1367 98.2063 19.1835 98.21 19.2301C98.175 19.7161 98.175 20.204 98.21 20.6901C98.21 20.8001 98.02 21.3401 98.04 21.4701C98.06 21.6001 97.68 21.7401 97.73 21.8101Z" fill="#231F20"/>
<path d="M108.62 33.86C108.57 34.07 108.31 33.99 107.89 33.77C107.711 33.6512 107.561 33.4941 107.45 33.31C107.434 33.1538 107.434 32.9963 107.45 32.84C107.757 32.3901 108.091 31.9593 108.45 31.55C108.688 31.2732 108.96 31.0278 109.26 30.82C109.86 30.38 110.45 29.95 111.06 29.55C111.194 29.4575 111.343 29.3897 111.5 29.35C112.029 29.1738 112.528 28.9175 112.98 28.59C113.06 28.54 113.15 28.51 113.19 28.4C113.672 27.9983 114.22 27.6836 114.81 27.47C115.312 27.3674 115.82 27.2907 116.33 27.24C116.4 27.24 116.46 27.18 116.55 27.24C116.627 27.2812 116.713 27.3027 116.8 27.3027C116.887 27.3027 116.973 27.2812 117.05 27.24C117.269 27.2097 117.491 27.2097 117.71 27.24C117.836 27.2691 117.957 27.3162 118.07 27.38C118.18 27.43 118.19 27.7 118.17 27.73C118.15 27.76 118.17 27.94 118.23 28.04C118.238 28.0763 118.238 28.1138 118.23 28.15C117.936 28.5009 117.622 28.8348 117.29 29.15C117.29 29.15 116.93 29.35 116.57 29.6C116.21 29.85 115.82 30.05 115.75 30.11C115.661 30.1587 115.561 30.1829 115.46 30.18C115.46 30.18 114.33 30.93 114.29 30.95C114.04 31.06 113.84 31.26 113.52 31.23C113.462 31.2329 113.406 31.2539 113.36 31.29C112.96 31.529 112.546 31.7428 112.12 31.93C111.908 32.0412 111.704 32.1683 111.51 32.31H111.38C111.327 32.3013 111.273 32.3013 111.22 32.31C110.737 32.6106 110.276 32.9447 109.84 33.31C109.76 33.4 109.14 33.6 109.05 33.72C108.96 33.84 108.64 33.77 108.62 33.86Z" fill="#231F20"/>
<path d="M110.35 47.3701C110.13 47.3701 110.18 47.0601 110.35 46.6401C110.462 46.4544 110.612 46.2942 110.79 46.1701C110.927 46.1317 111.068 46.105 111.21 46.0901C111.29 46.0901 112.11 46.4201 112.42 46.4701C112.692 46.5318 112.954 46.6294 113.2 46.7601C113.71 46.9901 114.2 47.2401 114.73 47.4401C114.848 47.491 114.956 47.5621 115.05 47.6501C115.39 47.9416 115.8 48.1382 116.24 48.2201C116.31 48.2201 116.38 48.2701 116.47 48.2201C116.97 48.2484 117.462 48.367 117.92 48.5701C118.26 48.8301 118.62 49.0501 118.92 49.3001C118.92 49.3001 119.04 49.3001 119.07 49.4401C119.1 49.5801 119.25 49.7001 119.37 49.7501C119.546 49.8203 119.703 49.9297 119.83 50.0701C119.901 50.1759 119.958 50.2901 120 50.4101C120.016 50.5574 119.981 50.7059 119.9 50.8301C119.8 50.9001 119.82 51.0601 119.79 51.1901V51.3201C119.593 51.4353 119.385 51.5324 119.17 51.6101C118.952 51.683 118.728 51.7366 118.5 51.7701L117.69 51.6901L116.78 51.5501C116.69 51.5501 116.62 51.4701 116.54 51.4001C116.46 51.3301 115.28 51.1701 115.23 51.1301C114.99 51.0201 114.72 51.0001 114.55 50.7201C114.537 50.697 114.518 50.6776 114.495 50.6636C114.472 50.6496 114.447 50.6415 114.42 50.6401C113.998 50.4672 113.595 50.2493 113.22 49.9901C113.02 49.8715 112.813 49.7646 112.6 49.6701C112.569 49.6408 112.542 49.6071 112.52 49.5701C112.52 49.5701 112.45 49.4801 112.4 49.4601C111.91 49.1901 111.52 48.7901 111.03 48.5301C110.91 48.4701 110.58 47.9101 110.45 47.8401C110.32 47.7701 110.43 47.3701 110.35 47.3701Z" fill="#231F20"/>
</svg>
