<svg width="128" height="128" viewBox="0 0 128 128" fill="none" xmlns="http://www.w3.org/2000/svg">
<path d="M29.6796 103.91C29.8296 103.91 29.6796 104.17 29.4496 104.44C29.3134 104.556 29.1577 104.648 28.9896 104.71H28.6496C28.5521 104.661 28.4519 104.618 28.3496 104.58C28.2796 104.58 28.2096 104.58 28.1796 104.58C28.2165 104.529 28.2499 104.475 28.2796 104.42C28.3396 104.32 28.3696 104.3 28.3996 104.24C28.4193 104.191 28.436 104.141 28.4496 104.09C28.4509 104.067 28.4509 104.043 28.4496 104.02C28.4769 104.079 28.5141 104.133 28.5596 104.18C28.6396 104.3 28.6996 104.32 28.8396 104.44C28.9011 104.501 28.972 104.552 29.0496 104.59C29.1196 104.59 29.2096 104.67 29.1796 104.67C29.1796 104.67 29.1796 104.76 29.1296 104.83C29.0796 104.9 29.0596 105.13 29.0196 105.3C29.0057 105.383 28.9674 105.459 28.9096 105.52C28.7372 105.776 28.6529 106.082 28.6696 106.39C28.6696 106.39 28.6696 106.49 28.7196 106.54C28.7946 106.869 28.7946 107.211 28.7196 107.54C28.5767 107.802 28.4498 108.073 28.3396 108.35C28.3396 108.35 28.3396 108.44 28.2596 108.47C28.1796 108.5 28.0896 108.63 28.0696 108.72C28.0436 108.85 27.9963 108.975 27.9296 109.09C27.9296 109.15 27.7796 109.2 27.6896 109.26C27.5625 109.299 27.4268 109.299 27.2996 109.26C27.2096 109.2 27.0696 109.26 26.9596 109.26H26.8296C26.6165 109.029 26.441 108.766 26.3096 108.48L26.2496 107.93C26.2496 107.65 26.1896 107.36 26.1696 107.3C26.1496 107.24 26.1696 107.17 26.2396 107.11C26.3096 107.05 26.1496 106.23 26.1596 106.19C26.1696 106.15 26.1596 105.82 26.3296 105.66C26.3384 105.645 26.343 105.628 26.343 105.61C26.343 105.592 26.3384 105.575 26.3296 105.56C26.3532 105.216 26.4343 104.878 26.5696 104.56C26.6296 104.4 26.6496 104.22 26.7096 104.03C26.7096 104.03 26.7596 104.03 26.7796 103.95C26.7996 103.87 26.8496 103.87 26.8596 103.83C26.9546 103.528 27.1311 103.258 27.3696 103.05C27.5723 102.866 27.8156 102.732 28.0796 102.66C28.3823 102.591 28.6987 102.612 28.9896 102.72C29.076 102.759 29.1567 102.809 29.2296 102.87C29.3079 102.949 29.3813 103.032 29.4496 103.12C29.5161 103.247 29.5895 103.371 29.6696 103.49C29.7096 103.56 29.6196 103.9 29.6796 103.91Z" fill="#231F20"/>
<path d="M46.6901 36.13C46.8601 36.81 46.9101 37.52 47.0801 38.21C47.1401 38.46 47.2601 38.7 47.3201 38.95C47.5312 39.8223 47.8328 40.6703 48.2201 41.48C48.4004 41.8176 48.641 42.1192 48.9301 42.37C49.3001 42.68 49.6501 42.81 49.9301 43.06C50.0301 43.15 50.0201 43.52 49.8001 43.86C49.6864 44.0529 49.5114 44.2021 49.3028 44.2837C49.0943 44.3653 48.8645 44.3745 48.6501 44.31C48.0134 43.9936 47.4692 43.5183 47.0701 42.93C46.7053 42.4199 46.4375 41.847 46.2801 41.24C46.0901 40.54 45.7501 39.9 45.5601 39.24C45.3546 38.4909 45.1976 37.7293 45.0901 36.96C45.0901 36.48 45.0201 35.96 44.9801 35.54C44.9801 34.82 44.9801 34.1 44.9801 33.39C44.9402 32.8374 44.9402 32.2826 44.9801 31.73C44.9895 31.6052 45.0096 31.4814 45.0401 31.36C45.1801 30.9 45.3301 30.78 45.5501 30.77C45.5996 30.7603 45.6506 30.7603 45.7001 30.77C45.8601 30.77 45.9101 31 45.9301 31.3C46.0024 32.2068 46.1293 33.1084 46.3101 34C46.4301 34.7 46.5601 35.4 46.7301 36.09L46.6901 36.13Z" fill="#231F20"/>
<path d="M23.9097 23.9099C23.9797 23.6599 24.2997 23.7999 24.6897 24.1899C24.8599 24.3891 24.9951 24.6156 25.0897 24.8599C25.0992 25.0098 25.0992 25.1601 25.0897 25.3099C25.0897 25.3099 24.9797 25.5199 24.8997 25.7099C24.8392 25.8557 24.8086 26.0121 24.8097 26.1699C24.8203 26.3535 24.7931 26.5373 24.7297 26.7099L24.5197 27.6499C24.4013 28.1373 24.1871 28.5962 23.8897 28.9999C23.7631 29.1793 23.5994 29.3294 23.4097 29.4399C22.9206 29.7169 22.4672 30.0528 22.0597 30.4399C21.9997 30.4399 21.9297 30.5199 21.9197 30.6399C21.9097 30.7599 21.6897 30.9499 21.4897 31.1599C21.3605 31.3202 21.2128 31.4645 21.0497 31.5899C20.7366 31.7399 20.4497 31.9391 20.1997 32.1799C20.1997 32.1799 20.1997 32.2699 20.0497 32.2599C19.8997 32.2499 19.7897 32.3699 19.7197 32.4699C19.6497 32.5699 19.4997 32.7099 19.3597 32.8399C19.2473 32.909 19.1262 32.9628 18.9997 32.9999C18.8424 33.0089 18.6868 32.9629 18.5597 32.8699C18.4897 32.7599 18.3097 32.7799 18.1797 32.7499H18.0397C17.9423 32.523 17.8751 32.2843 17.8397 32.0399C17.7807 31.7765 17.7807 31.5033 17.8397 31.2399C17.9644 30.9314 18.108 30.6308 18.2697 30.3399C18.5097 29.8999 18.8297 29.4799 18.8797 29.3399C18.9523 29.2459 19.0544 29.179 19.1697 29.1499C19.1697 29.1499 19.4297 28.8399 19.6897 28.5699L20.2097 28.0499C20.4397 27.8999 20.5797 27.6899 20.8797 27.7199C20.9036 27.718 20.9269 27.7107 20.9477 27.6986C20.9684 27.6865 20.9862 27.6699 20.9997 27.6499C21.2697 27.3999 21.4797 27.2799 21.5897 27.1799C21.6997 27.0799 21.6697 26.9999 21.7197 26.8599C21.7697 26.7199 21.7197 26.8599 21.7797 26.7799C21.8168 26.7522 21.8447 26.7138 21.8597 26.6699C22.0057 26.041 22.2134 25.4281 22.4797 24.8399C22.5497 24.6599 23.2397 24.1699 23.3597 24.0499C23.4797 23.9299 23.8797 23.9999 23.9097 23.9099Z" fill="#231F20"/>
<path d="M45.14 83.25L45.58 83.33C45.63 83.33 45.67 83.33 45.72 83.33C45.864 83.3743 46.0111 83.4078 46.16 83.43C46.16 83.43 46.23 83.43 46.21 83.43C46.19 83.43 46.14 83.32 46.21 83.33C46.4127 83.3728 46.6105 83.4365 46.8 83.52C47.09 83.64 47.35 83.83 47.32 83.94C47.29 84.05 47.32 84.12 47.18 84.24C47.0941 84.3361 46.9927 84.4172 46.88 84.48C46.7313 84.5735 46.5521 84.6057 46.38 84.57C46.2 84.57 46.09 84.63 45.96 84.64C45.8235 84.6493 45.6865 84.6493 45.55 84.64H45.32C45.21 84.64 45.1 84.64 45.05 84.69C45.0437 84.6956 45.0385 84.7026 45.035 84.7103C45.0315 84.7181 45.0297 84.7265 45.0297 84.735C45.0297 84.7435 45.0315 84.7519 45.035 84.7597C45.0385 84.7674 45.0437 84.7744 45.05 84.78L45 84.74H44.95H44.57C44.4688 84.7598 44.364 84.7484 44.2693 84.7073C44.1747 84.6662 44.0948 84.5974 44.04 84.51C43.9882 84.3799 43.9739 84.2379 43.9986 84.1C44.0234 83.9621 44.0862 83.834 44.18 83.73C44.2453 83.652 44.3191 83.5816 44.4 83.52L44.61 83.4C44.7764 83.3244 44.9574 83.2869 45.14 83.29V83.25Z" fill="#231F20"/>
<path d="M34.7297 83.22C35.8148 83.4273 36.9153 83.5444 38.0197 83.57C38.4297 83.57 38.8297 83.51 39.2297 83.57C40.6707 83.5554 42.1071 83.4048 43.5197 83.12C44.0797 82.98 44.8597 82.72 44.8997 82.5C45.0416 82.1859 45.1133 81.8446 45.1097 81.5C45.1097 81.31 45.1097 81.11 45.1697 80.88C45.1971 80.5853 45.293 80.3011 45.4497 80.05C45.7697 79.77 45.9397 80.16 46.0997 80.44C46.2772 80.543 46.4266 80.6881 46.5347 80.8625C46.6429 81.0369 46.7064 81.2352 46.7197 81.44C46.7247 82.0014 46.6088 82.5574 46.3797 83.07C46.3117 83.2249 46.228 83.3723 46.1297 83.51C45.979 83.6937 45.8001 83.8523 45.5997 83.98C45.3567 84.1207 45.1025 84.2411 44.8397 84.34C43.9729 84.654 43.0684 84.8524 42.1497 84.93C41.0797 85.02 39.9897 85.27 38.8997 85.31C37.6984 85.3651 36.4947 85.325 35.2997 85.19C34.5597 85.09 33.8297 85 33.1097 84.83C32.559 84.7206 32.0148 84.5804 31.4797 84.41C30.9407 84.2537 30.4101 84.0702 29.8897 83.86C29.0597 83.57 28.2597 83.25 27.4497 82.86C27.2756 82.7769 27.1084 82.6799 26.9497 82.57C26.3697 82.13 26.2697 81.88 26.4497 81.43C26.4997 81.32 26.5297 81.22 26.5797 81.12C26.7033 80.9658 26.8767 80.8596 27.0702 80.8194C27.2636 80.7793 27.465 80.8078 27.6397 80.9C27.9797 81.01 28.2797 81.17 28.6397 81.29C28.9997 81.41 29.2897 81.54 29.6397 81.68C29.9897 81.82 30.3097 81.91 30.6397 82.04C30.9697 82.17 31.3097 82.29 31.6397 82.38C32.1467 82.5615 32.6643 82.7118 33.1897 82.83C33.7149 82.9764 34.2495 83.0867 34.7897 83.16L34.7297 83.22Z" fill="#231F20"/>
<path d="M86.3001 92.41C86.2159 93.3762 86.0824 94.3374 85.9001 95.29C85.8201 95.63 85.7901 95.99 85.7101 96.29C85.3705 97.4956 84.9046 98.6621 84.3201 99.77C84.0001 100.23 83.7801 100.77 83.4501 101.18C83.2401 101.46 83.0601 101.77 82.8301 102.03C82.5897 102.29 82.3289 102.531 82.0501 102.75C81.8801 102.88 81.7501 102.7 81.7101 102.4C81.6766 102.227 81.6788 102.049 81.7167 101.877C81.7545 101.705 81.8271 101.543 81.9301 101.4C82.6541 100.327 83.2832 99.1925 83.8101 98.01C84.1094 97.2491 84.3078 96.4523 84.4001 95.64C84.5578 94.7675 84.658 93.8856 84.7001 93C84.7001 92.44 84.7001 91.87 84.7001 91.3C84.6963 90.4376 84.6429 89.5762 84.5401 88.72C84.4601 88.06 84.2301 87.43 84.1001 86.78C84.1001 86.64 84.0201 86.5 84.0001 86.35C83.9201 85.81 84.0001 85.62 84.3901 85.45C84.4739 85.404 84.5608 85.3639 84.6501 85.33C84.9401 85.24 85.2301 85.42 85.4001 85.8C85.8964 86.9701 86.1776 88.2201 86.2301 89.49C86.3102 90.4578 86.3302 91.4297 86.2901 92.4L86.3001 92.41Z" fill="#231F20"/>
<path d="M108 97.91C108 97.73 108.25 97.7 108.54 97.71C108.63 97.71 108.85 97.84 108.86 97.9C108.87 97.96 108.92 98.15 108.94 98.26C108.96 98.37 108.82 99.26 108.84 99.66C108.821 99.9679 108.736 100.268 108.59 100.54L108.24 101.38L108.07 101.8C108.07 101.93 108.07 101.91 108.07 101.96C108.07 102.01 108.07 101.96 108.01 102.03C107.979 102.055 107.956 102.088 107.942 102.125C107.928 102.162 107.925 102.202 107.932 102.241C107.939 102.28 107.957 102.316 107.983 102.346C108.009 102.375 108.042 102.398 108.08 102.41C108.08 102.41 108.08 102.41 108.17 102.41C108.26 102.41 108.31 102.41 108.37 102.41H108.53C108.636 102.394 108.744 102.394 108.85 102.41C109.36 102.543 109.858 102.717 110.34 102.93C110.41 102.93 110.5 102.93 110.54 103.07C110.63 103.33 110.79 103.34 110.92 103.44C111.102 103.572 111.261 103.735 111.39 103.92C111.447 104.039 111.48 104.168 111.49 104.3C111.49 104.41 111.3 104.59 111.26 104.6C111.22 104.61 111.12 104.77 111.05 104.86L110.98 104.96C110.98 104.96 110.68 104.96 110.41 105.03C110.29 105.059 110.173 105.099 110.06 105.15C110.004 105.159 109.946 105.159 109.89 105.15C109.714 105.131 109.536 105.131 109.36 105.15C109.108 105.161 108.858 105.188 108.61 105.23C108.591 105.24 108.571 105.245 108.55 105.245C108.529 105.245 108.508 105.24 108.49 105.23L108.26 105.17C107.889 105.171 107.521 105.11 107.17 104.99C106.802 104.868 106.462 104.674 106.17 104.42C105.819 104.141 105.593 103.735 105.54 103.29C105.533 103.205 105.505 103.122 105.46 103.05C105.335 102.706 105.283 102.339 105.309 101.974C105.335 101.609 105.437 101.253 105.61 100.93C105.7 100.74 105.75 100.69 105.8 100.58L105.96 100.29C105.96 100.29 106.03 100.24 106.06 100.21C106.102 100.175 106.138 100.135 106.17 100.09C106.42 99.64 106.73 99.21 106.97 98.75C107.04 98.65 107.56 98.28 107.62 98.16C107.68 98.04 108 98 108 97.91Z" fill="#231F20"/>
<path d="M96.16 46.85C95.3663 46.5878 94.5583 46.3708 93.74 46.2C93.44 46.14 93.13 46.13 92.82 46.07C91.7475 45.8436 90.6622 45.6833 89.57 45.59C89.0773 45.555 88.5827 45.555 88.09 45.59C87.4666 45.68 86.8335 45.68 86.21 45.59C85.81 45.5 86.27 44.01 87 43.96C88.3394 43.8765 89.684 43.9672 91 44.23C91.79 44.39 92.62 44.39 93.43 44.52C94.3177 44.6724 95.1959 44.8761 96.06 45.13C96.6 45.28 97.12 45.47 97.64 45.65C98.43 45.94 99.2 46.28 99.96 46.65C100.55 46.92 101.14 47.16 101.71 47.47C101.837 47.5314 101.957 47.6051 102.07 47.69C102.49 48.02 102.57 48.2 102.48 48.52L102.42 48.73C102.32 48.94 102.03 48.99 101.66 48.89C101.121 48.7486 100.591 48.5784 100.07 48.38C99.545 48.2113 99.0308 48.0109 98.53 47.78C97.77 47.46 96.99 47.18 96.2 46.93L96.16 46.85Z" fill="#231F20"/>
<path d="M98.4099 24.5999C98.1999 24.5199 98.1599 24.2799 98.1699 23.9699C98.1699 23.8599 98.3099 23.6499 98.3899 23.6499C98.543 23.64 98.6967 23.64 98.8499 23.6499C98.9299 23.6499 100.18 24.1399 100.62 24.2999C101.014 24.4693 101.381 24.695 101.71 24.9699C102.408 25.4861 103.051 26.0725 103.63 26.7199C103.762 26.867 103.873 27.0319 103.96 27.2099C104.26 27.8599 104.68 28.3499 105.1 29.1499C105.16 29.2699 105.19 29.3999 105.31 29.4799C105.507 29.7722 105.658 30.0925 105.76 30.4299C105.843 30.6103 105.91 30.7977 105.96 30.9899C106.091 31.4664 106.304 31.9164 106.59 32.3199C106.59 32.3999 106.73 32.4499 106.7 32.5899C106.64 32.8899 106.79 33.0299 106.89 33.2099C107.029 33.4639 107.117 33.7424 107.15 34.0299C107.15 34.1699 107.05 34.3599 106.91 34.5299C106.867 34.5815 106.811 34.6207 106.747 34.6436C106.684 34.6664 106.616 34.6721 106.55 34.6599C106.43 34.5899 106.32 34.7199 106.24 34.7499C106.204 34.7597 106.166 34.7597 106.13 34.7499C106.013 34.7434 105.898 34.7163 105.79 34.6699L105.41 34.4299C105.14 34.2799 104.87 34.1899 104.83 34.1499C104.179 33.6165 103.589 33.0128 103.07 32.3499C102.984 32.2069 102.933 32.0461 102.92 31.8799L102.52 31.0099L102.29 30.5599L102.19 30.3799C102.163 30.2908 102.13 30.2039 102.09 30.1199C102.026 30.0004 102.005 29.863 102.03 29.7299C102.027 29.6697 102.002 29.6126 101.96 29.5699C101.68 29.1999 101.43 28.7399 101.14 28.3099C100.978 28.0972 100.804 27.8936 100.62 27.6999C100.594 27.6596 100.574 27.6158 100.56 27.5699C100.538 27.5093 100.508 27.4521 100.47 27.3999C100.088 26.9001 99.6669 26.4319 99.2099 25.9999C99.0437 25.6845 98.8566 25.3805 98.6499 25.0899C98.5799 24.9999 98.4899 24.6199 98.4099 24.5999Z" fill="#231F20"/>
<path d="M51.3498 60.37C50.502 61.209 49.5965 61.9876 48.6398 62.7L48.4798 62.83L48.3998 62.88C48.3998 62.88 48.3098 63 48.2598 63.05C48.1409 63.201 48.0402 63.3654 47.9598 63.54C47.7541 63.967 47.5997 64.4167 47.4998 64.88C47.3513 65.6306 47.2412 66.3882 47.1698 67.15C46.8673 69.9798 46.8104 72.8304 46.9998 75.67C47.0872 76.9471 47.2407 78.2188 47.4598 79.48C47.6098 80.28 47.7398 81.09 47.8498 81.9C47.9098 82.3 47.9498 82.7 47.9898 83.11V83.71C47.9898 83.92 47.9898 84.13 47.9898 84.33C47.9898 84.53 47.8898 84.61 47.6798 84.73C47.4655 84.7514 47.2511 84.6907 47.0798 84.56C46.6941 84.3504 46.3546 84.0653 46.0814 83.7217C45.8082 83.3781 45.6071 82.983 45.4898 82.56C45.0509 80.9048 44.7795 79.2096 44.6798 77.5C44.5413 75.7803 44.5079 74.0538 44.5798 72.33C44.6798 70.26 44.5798 68.11 44.8398 65.93C44.9934 64.6743 45.3585 63.4537 45.9198 62.32C46.0967 62.0037 46.3044 61.7056 46.5398 61.43C46.6718 61.2784 46.8193 61.141 46.9798 61.02L47.3198 60.75C47.7598 60.41 48.1798 60.07 48.5998 59.75C49.6188 58.8428 50.5466 57.838 51.3698 56.75C52.6479 55.1439 53.6207 53.317 54.2398 51.36C54.6663 49.8619 54.8586 48.3069 54.8098 46.75C54.8098 46.41 54.8098 46.07 54.8098 45.75C54.7399 45.3009 54.7776 44.8417 54.9198 44.41C55.0919 44.1319 55.3377 43.9069 55.6298 43.76C55.7698 43.69 55.8898 43.6 55.9998 43.55C56.1098 43.5 56.3598 43.55 56.5998 43.8C56.9319 44.1156 57.135 44.5432 57.1698 45C57.6047 48.234 57.0541 51.5239 55.5898 54.44C54.5416 56.6645 53.1212 58.6937 51.3898 60.44L51.3498 60.37Z" fill="#231F20"/>
<path d="M17.3099 47.45C17.7493 50.1029 18.3707 52.7225 19.1699 55.29C19.4599 56.29 19.8099 57.17 20.1199 58.13C21.1799 61.48 22.1799 64.91 23.0299 68.39C23.3999 69.93 23.7799 71.49 24.0299 73.06C24.4549 75.1071 24.4345 77.2216 23.9699 79.26C23.8199 79.9 23.4399 79.7 23.0799 79.12C22.6478 78.3224 22.3857 77.444 22.3099 76.54C22.1421 74.605 21.8245 72.6859 21.3599 70.8C20.9499 68.86 20.3599 66.92 19.9099 64.94C19.2699 62.57 18.3399 60.18 17.5799 57.77C16.7193 55.1001 16.0016 52.3863 15.4299 49.64L15.1899 48.36L14.9999 47.06C14.8777 46.1913 14.801 45.3168 14.7699 44.44C14.716 43.0987 14.8234 41.7557 15.0899 40.44C15.3323 39.1381 15.6665 37.8549 16.0899 36.6C16.6366 34.5619 17.5927 32.6565 18.8999 31C19.2283 30.6269 19.5972 30.2915 19.9999 30C20.3475 29.7746 20.72 29.5901 21.1099 29.45C21.3923 29.3893 21.681 29.3625 21.9699 29.37C22.1484 29.3839 22.3219 29.4357 22.4788 29.5219C22.6357 29.6081 22.7724 29.7268 22.8799 29.87C22.964 29.9653 23.0377 30.0692 23.0999 30.18C23.1599 30.35 23.0099 30.5 22.7699 30.69C22.6292 30.7835 22.4822 30.867 22.3299 30.94C22.1629 31.0737 21.9857 31.194 21.7999 31.3C20.5563 32.1742 19.6022 33.3999 19.0599 34.82C18.3577 36.3984 17.8279 38.0479 17.4799 39.74C17.1952 40.9878 17.0344 42.2606 16.9999 43.54C16.9999 44.16 17.0699 44.83 17.0999 45.48C17.1299 46.13 17.2799 46.79 17.3599 47.48L17.3099 47.45Z" fill="#231F20"/>
<path d="M25.2397 28.5C24.6696 29.6238 24.1978 30.7948 23.8297 32C23.6997 32.45 23.6397 32.91 23.5197 33.36C23.0724 34.9646 22.7383 36.5986 22.5197 38.25C22.4384 38.9938 22.4017 39.7418 22.4097 40.49C22.4946 41.4536 22.4339 42.4244 22.2297 43.37C22.1497 43.67 21.7297 43.63 21.2897 43.37C21.0417 43.2374 20.8245 43.0539 20.6521 42.8316C20.4798 42.6094 20.3563 42.3532 20.2897 42.08C20.15 40.0662 20.3186 38.0429 20.7897 36.08C21.0797 34.89 21.1497 33.61 21.4597 32.39C21.8025 31.0468 22.2505 29.7328 22.7997 28.46C23.1439 27.6526 23.5449 26.8706 23.9997 26.12C24.695 24.9408 25.6533 23.938 26.7997 23.19C27.7259 22.6069 28.772 22.2411 29.8597 22.12C30.0795 22.105 30.3 22.105 30.5197 22.12C31.3097 22.12 31.4097 22.28 31.6597 22.8C31.7097 22.92 31.7797 23.03 31.8297 23.14C31.8668 23.2334 31.8771 23.3353 31.8594 23.4342C31.8418 23.5331 31.7969 23.6252 31.7297 23.7C31.5417 23.9214 31.2845 24.0729 30.9997 24.13C30.5497 24.25 30.1197 24.35 29.7697 24.47C29.4306 24.537 29.0965 24.6273 28.7697 24.74C28.1745 24.95 27.6343 25.2919 27.1897 25.74C26.3916 26.5519 25.7508 27.5047 25.2997 28.55L25.2397 28.5Z" fill="#231F20"/>
<path d="M33.0001 24.33L32.7101 24.75L32.4601 25.22C32.3001 25.53 32.1101 25.83 31.9701 26.16C31.7001 26.83 31.3901 27.48 31.1501 28.16C30.9765 28.672 30.8296 29.1927 30.7101 29.72C30.136 31.5987 29.7015 33.5173 29.4101 35.46C29.3021 36.3329 29.2386 37.2107 29.2201 38.09C29.2978 39.2447 29.2238 40.4046 29.0001 41.54C28.9101 41.91 28.5701 41.82 28.2001 41.54C27.7272 41.1615 27.3989 40.6319 27.2701 40.04C27.1301 38.8655 27.09 37.6813 27.1501 36.5C27.1844 35.2977 27.3385 34.1018 27.6101 32.93C27.9301 31.53 28.0601 30.03 28.4201 28.57C28.8183 26.956 29.4375 25.4047 30.2601 23.96C30.5081 23.5036 30.7889 23.0658 31.1001 22.65C31.3963 22.2143 31.731 21.806 32.1001 21.43C32.3485 21.1134 32.6377 20.8309 32.9601 20.59C33.2801 20.34 33.5601 20.09 33.9601 19.84C34.6707 19.4178 35.4543 19.1329 36.2701 19C37.5422 18.7219 38.866 18.7945 40.1001 19.21C40.3941 19.3028 40.6686 19.4485 40.9101 19.64C41.2502 19.8906 41.5051 20.2397 41.6401 20.64C41.6725 20.8997 41.6199 21.1628 41.4901 21.39C41.4435 21.4838 41.39 21.574 41.3301 21.66C41.2301 21.79 41.0701 21.81 40.8401 21.79C40.572 21.7835 40.3061 21.7398 40.0501 21.66C39.3291 21.4444 38.5825 21.3267 37.8301 21.31C37.0541 21.3157 36.2866 21.472 35.5701 21.77C35.3545 21.867 35.1606 22.0064 35.0001 22.18C34.7701 22.39 34.5201 22.57 34.2901 22.8L33.6601 23.55C33.4586 23.8198 33.2716 24.1002 33.1001 24.39L33.0001 24.33Z" fill="#231F20"/>
<path d="M45.6797 25.72C46.0756 24.9932 46.5164 24.2918 46.9997 23.62C47.2386 23.2707 47.4991 22.9367 47.7797 22.62L48.1897 22.16L48.3997 22C48.4597 22 48.5097 21.93 48.4797 21.86C48.4841 21.8268 48.4841 21.7931 48.4797 21.76C48.4662 21.6966 48.4426 21.6358 48.4097 21.58C48.2176 21.1342 47.923 20.7402 47.5497 20.43C46.9004 19.9906 46.1337 19.7571 45.3497 19.76C44.7169 19.8315 44.1276 20.1173 43.6797 20.57C43.0583 21.1059 42.4952 21.7058 41.9997 22.36C39.9681 25.0487 38.5452 28.1469 37.8297 31.44C37.3797 33.44 37.2297 35.44 36.9797 37.44C36.8997 38.06 36.4097 38 35.9797 37.44C35.3529 36.6113 35.0732 35.5712 35.1997 34.54C35.4244 32.3389 35.9146 30.1732 36.6597 28.09C37.3899 25.9848 38.3988 23.9871 39.6597 22.15C40.4385 20.995 41.3295 19.9198 42.3197 18.94C42.8926 18.3771 43.5727 17.9351 44.3197 17.64C44.5417 17.5527 44.7734 17.4923 45.0097 17.46H45.3897H45.6797H46.2497L46.8297 17.56C48.0699 17.7984 49.1857 18.4679 49.9797 19.45C50.1713 19.6973 50.345 19.958 50.4997 20.23L50.6997 20.64L50.9197 21.2C51.0231 21.5707 51.0503 21.9585 50.9997 22.34C50.985 22.4299 50.9581 22.5173 50.9197 22.6V22.67C50.9197 22.67 51.0497 22.67 50.9797 22.67L50.8997 22.78L50.5497 23.22C50.3597 23.4 50.1297 23.61 49.9797 23.78L49.6097 24.23C49.344 24.5372 49.1126 24.8725 48.9197 25.23C48.0321 26.6503 47.3582 28.1935 46.9197 29.81C46.2371 32.3021 46.0035 34.8959 46.2297 37.47C46.4874 39.411 47.0264 41.3042 47.8297 43.09C47.9997 43.49 48.2197 43.85 48.3897 44.24C49.0597 45.67 49.1197 46.24 48.8397 46.83C48.7844 46.967 48.7209 47.1005 48.6497 47.23C48.4197 47.58 47.7497 47.23 46.8397 46.23C44.4269 42.8844 43.2179 38.8204 43.4097 34.7C43.4097 33.93 43.5097 33.16 43.5897 32.39C43.6697 31.62 43.8297 30.86 44.0497 30.11C44.4154 28.5885 44.9416 27.1102 45.6197 25.7L45.6797 25.72Z" fill="#231F20"/>
<path d="M68.9098 48.07C68.1101 47.1576 67.4649 46.1206 66.9998 45C66.9898 44.9538 66.9898 44.9061 66.9998 44.86C66.9998 44.78 66.9398 44.86 66.9098 44.78H66.8298H66.6298L65.8298 44.73C65.0798 44.73 64.3098 44.73 63.5598 44.73C60.8798 44.63 58.1798 44.58 55.4898 44.73C54.3035 44.7824 53.1214 44.906 51.9498 45.1C51.1998 45.23 50.4598 45.39 49.7298 45.53C48.9998 45.67 48.2698 45.76 47.5498 45.86C47.0998 45.92 46.9698 45.47 47.2098 44.86C47.3684 44.4691 47.6109 44.1178 47.9202 43.8309C48.2296 43.5441 48.5981 43.3287 48.9998 43.2C50.5745 42.8138 52.1812 42.5727 53.7998 42.48C55.3935 42.3599 56.9927 42.3299 58.5898 42.39C60.4998 42.47 62.4798 42.29 64.4398 42.33C64.9598 42.33 65.4398 42.33 65.9998 42.38H66.7898C67.1098 42.38 67.5898 42.38 67.9798 42.47L68.3698 42.8L68.5598 42.96L68.6498 43.15C68.7948 43.4371 68.9585 43.7143 69.1398 43.98C69.3098 44.27 69.3698 44.45 69.4998 44.69C69.6298 44.93 69.7798 45.16 69.9398 45.38C70.6604 46.3903 71.5035 47.3073 72.4498 48.11C73.8897 49.3746 75.5111 50.4162 77.2598 51.2C77.9286 51.4944 78.6211 51.7319 79.3298 51.91C80.0498 52.05 80.7498 52.24 81.4698 52.31C81.7798 52.31 82.0898 52.37 82.4098 52.43C83.5698 52.57 83.9198 52.75 84.1198 53.43C84.1757 53.5872 84.2224 53.7474 84.2598 53.91C84.3398 54.43 83.7898 54.79 82.8098 54.82C79.7886 54.7753 76.8338 53.9261 74.2498 52.36C72.2527 51.2156 70.453 49.7569 68.9198 48.04L68.9098 48.07Z" fill="#231F20"/>
<path d="M69.2398 17.72L73.2398 16.84L75.2398 16.38C75.9398 16.24 76.6498 16.06 77.3498 15.96C78.3787 15.7693 79.4167 15.6325 80.4598 15.55C82.3029 15.4466 84.1517 15.5236 85.9798 15.78C87.8194 16.019 89.6188 16.5033 91.3298 17.22C92.0975 17.5346 92.8485 17.8884 93.5798 18.28C94.2997 18.6921 94.9882 19.1567 95.6398 19.67C96.5103 20.3193 97.3023 21.0676 97.9998 21.9C98.3098 22.34 98.5798 22.81 98.8498 23.27C99.0751 23.7573 99.2494 24.2667 99.3698 24.79C99.5198 25.44 99.1598 25.47 98.4898 25.21C97.6147 24.8884 96.8222 24.376 96.1698 23.71C93.8078 20.7998 90.492 18.8196 86.8098 18.12C84.431 17.6507 81.99 17.5865 79.5898 17.93C78.2428 18.0668 76.9064 18.294 75.5898 18.61L71.5198 19.54L66.5198 20.62C63.9698 21.16 61.3998 21.62 58.8598 22.08C56.8598 22.42 54.9598 22.84 52.9898 23.08C52.5598 23.15 52.1298 23.23 51.6898 23.28C51.1133 23.3705 50.5263 23.3705 49.9498 23.28C49.6357 23.2425 49.3468 23.0892 49.1398 22.85C49.0491 22.778 48.9623 22.7012 48.8798 22.62C48.7098 22.42 49.3298 21.91 50.4798 21.62L55.7398 20.44C57.5198 20.04 59.3198 19.64 61.1398 19.31C63.8298 18.77 66.5398 18.22 69.2298 17.6L69.2398 17.72Z" fill="#231F20"/>
<path d="M98.07 26.86C97.1152 26.2938 96.1111 25.8152 95.07 25.43C94.67 25.27 94.29 25.2 93.9 25.08C92.4709 24.6775 91.0134 24.3833 89.54 24.2C88.8766 24.1115 88.209 24.0581 87.54 24.04C86.6824 24.056 85.8269 23.9482 85 23.72C84.73 23.65 84.76 23.48 85 23.24C85.3212 22.9145 85.7206 22.6769 86.16 22.55C86.5973 22.4376 87.0493 22.3937 87.5 22.42C87.95 22.42 88.39 22.42 88.84 22.42C89.7412 22.476 90.6351 22.6166 91.51 22.84C92.57 23.11 93.69 23.19 94.8 23.52C95.9814 23.8792 97.1291 24.3409 98.23 24.9C98.9247 25.2437 99.5932 25.6381 100.23 26.08C101.193 26.758 102.055 27.5694 102.79 28.49C103.402 29.2122 103.904 30.0209 104.28 30.89C104.372 31.0859 104.446 31.2902 104.5 31.5C104.69 32.28 104.5 32.56 103.91 32.72C103.772 32.7628 103.632 32.7962 103.49 32.82C103.278 32.8459 103.063 32.7985 102.881 32.6858C102.699 32.5731 102.561 32.4017 102.49 32.2C102.096 30.9732 101.483 29.828 100.68 28.82C99.9606 28.0182 99.1122 27.3422 98.17 26.82L98.07 26.86Z" fill="#231F20"/>
<path d="M105 34.9999C104.099 34.2299 103.088 33.5995 102 33.1299C101.6 32.9399 101.18 32.7999 100.77 32.6299C99.2868 32.0283 97.771 31.5108 96.2297 31.0799C95.5397 30.8999 94.8297 30.7699 94.1297 30.6599C93.2238 30.5494 92.3278 30.3689 91.4497 30.1199C91.1697 30.0299 91.2397 29.7499 91.5197 29.4699C91.6924 29.2962 91.8982 29.1588 92.125 29.0661C92.3517 28.9733 92.5948 28.927 92.8397 28.9299C93.7974 28.9684 94.7487 29.1024 95.6797 29.3299C96.6199 29.5302 97.5454 29.7942 98.4497 30.1199C99.5297 30.5199 100.71 30.7699 101.83 31.1999C103.086 31.6666 104.286 32.2703 105.41 32.9999C105.75 33.2299 106.07 33.5099 106.41 33.7599C106.727 34.0422 107.027 34.3427 107.31 34.6599C108.177 35.6384 108.761 36.8346 109 38.1199C109.183 39.1087 109.244 40.1163 109.18 41.1199C109.178 41.3324 109.152 41.5439 109.1 41.7499C108.92 42.5199 108.62 42.6799 108.1 42.7499H107.79C107.705 42.7404 107.624 42.7098 107.554 42.6609C107.484 42.612 107.428 42.5463 107.39 42.4699C107.256 42.2679 107.183 42.032 107.18 41.7899C107.09 40.9699 107.18 40.2399 107.18 39.5299C107.171 38.8504 107.06 38.1762 106.85 37.5299C106.468 36.5376 105.83 35.6645 105 34.9999Z" fill="#231F20"/>
<path d="M103.07 47C104.4 47.63 105.72 48.27 107.07 48.83C107.704 49.1105 108.355 49.351 109.02 49.55C109.53 49.7424 110.078 49.811 110.62 49.75C110.657 49.7454 110.693 49.7333 110.726 49.7144C110.759 49.6954 110.787 49.6701 110.81 49.64C110.87 49.64 110.87 49.55 110.9 49.37C110.915 49.1869 110.915 49.003 110.9 48.82C110.9 48.61 110.84 48.41 110.79 48.19C110.28 46.5323 109.313 45.0522 108 43.92C106.639 42.692 105.139 41.6281 103.53 40.75C102.8 40.37 102.04 40.03 101.29 39.68C100.54 39.33 99.7497 39.1 98.9797 38.81C97.9797 38.46 96.9797 38.22 95.9797 37.88C94.9614 37.6041 93.9598 37.2703 92.9797 36.88C92.3597 36.61 92.5097 36.36 93.1397 36.15C94.1116 35.8497 95.144 35.8015 96.1397 36.01C97.2297 36.26 98.2897 36.63 99.3597 36.95C100.43 37.27 101.47 37.71 102.5 38.2C104.601 39.1144 106.564 40.3195 108.33 41.78L109.12 42.47C109.38 42.71 109.62 42.97 109.87 43.22C110.379 43.7352 110.85 44.2866 111.28 44.87C112.256 46.0842 112.81 47.5829 112.86 49.14C112.869 49.6902 112.712 50.2304 112.41 50.69C112.046 51.1579 111.523 51.4749 110.94 51.58C110.072 51.6886 109.191 51.6032 108.36 51.33C106.874 50.8961 105.418 50.3684 104 49.75C102.31 49.04 100.65 48.29 98.9997 47.61C96.4872 46.5383 93.8833 45.6949 91.2197 45.09C89.1995 44.687 87.1359 44.5459 85.0797 44.67C84.6397 44.67 84.2097 44.76 83.7597 44.78C82.1097 44.93 81.5897 44.92 81.1097 44.36C81.0097 44.23 80.8697 44.11 80.7897 43.98C80.5397 43.57 81.1697 42.98 82.4897 42.71C86.556 42.0195 90.73 42.3459 94.6397 43.66C97.5325 44.57 100.365 45.6621 103.12 46.93L103.07 47Z" fill="#231F20"/>
<path d="M109.16 85.9999C109.208 83.2076 109.007 80.4166 108.56 77.6599C108.41 76.6599 108.17 75.6599 107.99 74.6599C107.66 72.8699 107.27 71.0999 106.89 69.2799C106.51 67.4599 106.26 65.5999 106.06 63.7599C105.89 62.1199 105.73 60.4599 105.67 58.7599C105.629 57.6848 105.672 56.6082 105.8 55.5399C105.929 54.4272 106.342 53.3665 107 52.4599C107.45 51.8899 107.58 52.1699 107.62 52.7999C107.62 53.0899 107.69 53.5199 107.74 53.9699C107.74 54.1899 107.82 54.4499 107.82 54.6999C107.82 54.9499 107.82 55.1999 107.77 55.4799C107.577 59.5839 107.819 63.6967 108.49 67.7499C108.88 70.2199 109.69 72.8199 110.16 75.4099C110.713 78.277 111.047 81.1821 111.16 84.0999C111.213 85.9057 111.146 87.713 110.96 89.5099C110.698 92.2489 110.002 94.9289 108.9 97.4499C108.68 97.9399 108.49 98.4499 108.26 98.9099L107.47 100.3C106.938 101.222 106.326 102.096 105.64 102.91C105.358 103.32 105.021 103.69 104.64 104.01C104.075 104.534 103.34 104.836 102.57 104.86C102.348 104.869 102.129 104.805 101.948 104.676C101.767 104.548 101.634 104.362 101.57 104.15C101.539 104.008 101.539 103.862 101.57 103.72C101.57 103.52 101.85 103.48 102.05 103.38C102.25 103.28 102.4 103.11 102.78 102.9C103.419 102.451 103.963 101.88 104.38 101.22C104.937 100.54 105.436 99.8143 105.87 99.0499L106.55 97.9099L107.09 96.6799C107.289 96.2764 107.466 95.8625 107.62 95.4399L108.03 94.1499C108.76 91.4954 109.124 88.7532 109.11 85.9999H109.16Z" fill="#231F20"/>
<path d="M101 101.14C101.719 100.169 102.316 99.115 102.78 97.9999C102.93 97.5799 103.04 97.1599 103.16 96.7299C103.606 95.1872 103.887 93.6018 104 91.9999C104.06 91.2816 104.08 90.5605 104.06 89.8399C104.028 88.9042 104.105 87.9678 104.29 87.0499C104.35 86.7599 104.56 86.7999 104.82 87.0499C105.17 87.3785 105.408 87.8088 105.5 88.2799C105.56 88.7599 105.63 89.2799 105.65 89.7099C105.67 90.1399 105.65 90.7099 105.65 91.1499C105.587 92.1272 105.461 93.0993 105.27 94.0599C105.03 95.2099 104.9 96.4399 104.54 97.6099C103.918 99.695 102.876 101.631 101.48 103.3C100.646 104.272 99.6259 105.067 98.4801 105.64C97.6043 106.076 96.6817 106.412 95.7301 106.64C95.5201 106.69 95.3101 106.75 95.1001 106.78C94.3001 106.91 94.0401 106.68 93.8701 106.23C93.8701 106.12 93.7901 106.01 93.7601 105.91C93.6901 105.55 93.9901 105.22 94.5001 105.06C95.959 104.764 97.3583 104.227 98.6401 103.47C99.5759 102.824 100.377 102.002 101 101.05V101.14Z" fill="#231F20"/>
<path d="M94.2696 104C94.6825 103.515 95.0538 102.997 95.3796 102.45C95.7197 101.921 96.0109 101.362 96.2496 100.78C96.3996 100.34 96.4996 99.8599 96.6396 99.3899C97.1096 97.7299 97.5396 96.0299 97.8896 94.3199C98.0362 93.5627 98.143 92.7983 98.2096 92.0299C98.2574 91.0409 98.4048 90.0593 98.6496 89.0999C98.7396 88.7999 98.9396 88.8399 99.1896 89.0999C99.5488 89.4806 99.7826 89.9622 99.8596 90.4799C99.8789 92.571 99.5891 94.6535 98.9996 96.6599C98.6396 97.8599 98.4596 99.1299 98.0996 100.37C97.9996 100.71 97.8996 101.05 97.7696 101.37C97.7051 101.565 97.6283 101.755 97.5396 101.94L97.2896 102.4C96.9596 103.02 96.5896 103.63 96.1896 104.23C95.7053 104.992 95.12 105.685 94.4496 106.29C93.4082 107.212 92.1424 107.843 90.7796 108.12C89.7625 108.379 88.719 108.52 87.6696 108.54C87.4396 108.54 87.2196 108.54 86.9896 108.54C86.6813 108.535 86.3803 108.445 86.1196 108.28C85.9546 108.11 85.8553 107.886 85.8396 107.65C85.8396 107.54 85.7896 107.45 85.7796 107.38C85.7696 107.31 85.8496 107.15 86.0396 106.96C86.1278 106.858 86.237 106.777 86.3595 106.722C86.4821 106.667 86.6152 106.639 86.7496 106.64L89.2196 106.51C89.9987 106.443 90.7673 106.286 91.5096 106.04C92.5964 105.635 93.5536 104.944 94.2796 104.04L94.2696 104Z" fill="#231F20"/>
<path d="M85.7598 108.86C84.5643 109.396 83.2261 109.526 81.9498 109.23C81.4241 109.087 80.9344 108.835 80.5124 108.49C80.0903 108.146 79.7454 107.716 79.4998 107.23C79.313 106.857 79.1591 106.469 79.0398 106.07C78.9621 105.709 79.0079 105.332 79.1698 105C79.2577 104.828 79.365 104.667 79.4898 104.52C79.5998 104.39 79.7598 104.19 79.8198 104.13C80.4598 103.44 80.9698 102.79 81.5198 102.13C83.4318 99.7309 84.6925 96.8789 85.1798 93.85C85.3977 92.4848 85.4815 91.1015 85.4298 89.72C85.4298 88.84 85.3398 87.95 85.2698 87.07C85.1998 86.19 85.1998 85.28 85.1698 84.38C85.1698 83.81 85.3998 83.84 85.7598 84.26C86.3371 84.9263 86.7605 85.7116 86.9998 86.56C87.7417 90.3919 87.3953 94.355 85.9998 98C85.1741 100.25 83.9887 102.35 82.4898 104.22L81.4898 105.36L81.1898 105.68C81.1552 105.71 81.1316 105.751 81.1225 105.797C81.1135 105.842 81.1196 105.889 81.1398 105.93C81.1578 106.006 81.1846 106.08 81.2198 106.15L81.4198 106.52L81.6698 106.83L81.9698 107.07C82.4648 107.358 83.0438 107.468 83.6098 107.38C84.9739 107.192 86.2239 106.517 87.1298 105.48C88.5559 103.727 89.626 101.713 90.2798 99.55C90.7943 97.8751 91.1624 96.1586 91.3798 94.42C91.4398 94.03 91.4698 93.66 91.5498 93.28C91.7798 91.85 92.1998 91.45 92.6198 91.2C92.709 91.1368 92.8026 91.08 92.8998 91.03C93.0398 90.97 93.1498 91.1 93.2598 91.39C93.4205 91.8017 93.5084 92.2382 93.5198 92.68C93.5029 94.3654 93.2915 96.0431 92.8898 97.68C92.5064 99.3934 91.964 101.067 91.2698 102.68C90.7376 103.925 90.0667 105.106 89.2698 106.2L88.6098 107.02C88.3463 107.307 88.0623 107.574 87.7598 107.82C87.1721 108.287 86.5268 108.677 85.8398 108.98L85.7598 108.86Z" fill="#231F20"/>
<path d="M81.4 68.6799C82.12 67.9699 82.89 67.3099 83.61 66.6799C83.97 66.3799 84.32 66.0899 84.61 65.8199C84.7715 65.6726 84.9038 65.4962 85 65.2999C85 64.9799 85.08 64.5899 85.11 64.2199C85.18 63.3999 85.11 62.5699 85.22 61.7399C85.41 58.8199 85.55 55.8799 85.54 52.9499C85.54 51.6499 85.44 50.3399 85.35 49.0599C85.23 47.4099 84.96 45.7899 84.86 44.1699C84.86 43.6599 85.12 43.6299 85.55 43.9899C86.1824 44.5235 86.613 45.2575 86.77 46.0699C87.4063 49.4807 87.6113 52.958 87.38 56.4199C87.27 58.4799 87.38 60.6299 87.31 62.7499C87.31 63.6699 87.22 64.5499 87.13 65.5399C87.0538 66.0578 86.8318 66.5434 86.49 66.9399C86.2396 67.2476 85.9654 67.5352 85.67 67.7999L84.09 69.2099C83.0685 70.1025 82.1526 71.1091 81.36 72.2099C80.1672 73.9105 79.2961 75.8153 78.79 77.8299C78.4525 79.3904 78.2882 80.9834 78.3 82.5799C78.3 82.9299 78.3 83.2699 78.3 83.5799C78.3 84.8899 78.13 85.2999 77.45 85.5799C77.3034 85.6585 77.1493 85.7221 76.99 85.7699C76.48 85.9099 76.06 85.3499 75.93 84.3199C75.7453 82.7554 75.7453 81.1745 75.93 79.6099C76.1588 77.9679 76.5852 76.3596 77.2 74.8199C78.144 72.4827 79.5408 70.3553 81.31 68.5599L81.4 68.6799Z" fill="#231F20"/>
<path d="M61.8201 81.49C62.1901 81.94 62.5401 82.39 62.8801 82.85L63.3601 83.54C63.4601 83.68 63.4401 83.65 63.4501 83.68H63.5201L63.8301 83.74L64.6001 83.86C65.1201 83.94 65.6601 83.99 66.1901 84.05C66.9701 84.13 67.7501 84.14 68.5401 84.21C71.3101 84.45 74.0901 84.65 76.8801 84.73C78.1101 84.73 79.3501 84.73 80.5701 84.67C81.3501 84.67 82.1301 84.56 82.9101 84.48L84.0601 84.41C84.4411 84.4075 84.8216 84.3841 85.2001 84.34C85.6601 84.34 85.7201 84.62 85.3901 85.06C84.8791 85.6794 84.1747 86.1091 83.3901 86.28C81.757 86.52 80.1104 86.6569 78.4601 86.69C76.8175 86.7049 75.1754 86.6348 73.5401 86.48C71.5401 86.3 69.5401 86.34 67.5401 86.21C66.4301 86.13 65.3401 86.05 64.2201 85.91C63.9401 85.91 63.6601 85.84 63.3601 85.78C63.1746 85.7551 62.9909 85.7183 62.8101 85.67C62.6071 85.6065 62.4097 85.5262 62.2201 85.43C62.0609 85.2891 61.9137 85.1352 61.7801 84.97L61.5101 84.6L61.0201 83.97C60.2233 82.9369 59.3328 81.9795 58.3601 81.11C56.9317 79.7859 55.2749 78.7321 53.4701 78C52.7708 77.7316 52.0475 77.5307 51.3101 77.4C50.5819 77.2871 49.8468 77.2236 49.1101 77.21C48.7801 77.21 48.4601 77.21 48.1101 77.21C46.9101 77.21 46.5201 77.06 46.2101 76.48C46.1324 76.3543 46.0623 76.224 46.0001 76.09C45.8401 75.65 46.3401 75.24 47.3501 75.03C48.8848 74.8245 50.4432 74.8786 51.9601 75.19C53.5256 75.5435 55.0313 76.1229 56.4301 76.91C58.4871 78.0799 60.3163 79.6111 61.8301 81.43L61.8201 81.49Z" fill="#231F20"/>
<path d="M16.5898 81.4299C16.5225 80.5421 16.607 79.6493 16.8398 78.7899C17.0996 77.779 17.6912 76.8845 18.5198 76.2499C19.0388 75.8647 19.6485 75.6201 20.2898 75.5399C20.6046 75.5626 20.9116 75.6477 21.1932 75.7902C21.4747 75.9327 21.7251 76.1298 21.9298 76.3699C22.0386 76.4712 22.142 76.578 22.2398 76.6899L22.4398 76.9099L22.7998 77.3199C23.0298 77.5899 23.2598 77.8499 23.4998 78.0999C24.2021 78.7995 24.9651 79.4353 25.7798 79.9999C28.7602 82.0681 32.1862 83.4042 35.7798 83.8999C37.3997 84.1667 39.0382 84.3038 40.6798 84.3099C42.7698 84.3099 44.8798 84.3099 46.9998 84.3099C47.6598 84.3099 47.6098 84.6899 47.0798 85.0999C46.2614 85.6965 45.2979 86.0626 44.2898 86.1599C42.0743 86.4032 39.84 86.4267 37.6198 86.2299C35.3633 86.0674 33.1377 85.6102 30.9998 84.8699C28.2929 84.0355 25.7565 82.725 23.5098 80.9999C22.9079 80.509 22.3399 79.9778 21.8098 79.4099L20.5098 77.9999C20.4098 77.8999 20.2698 77.7799 20.1298 77.8599C19.9733 77.9116 19.8299 77.9969 19.7098 78.1099C19.3046 78.4943 19.0345 78.9994 18.9398 79.5499C18.7944 80.3467 18.7944 81.1632 18.9398 81.9599C19.0566 82.7472 19.347 83.4986 19.7898 84.1599C20.5308 85.2179 21.4474 86.1412 22.4998 86.8899C23.5696 87.6646 24.7116 88.3343 25.9098 88.8899C27.7793 89.7465 29.7287 90.4164 31.7298 90.8899C32.1698 91.0099 32.6098 91.0899 33.0398 91.1999C34.6698 91.5899 35.1098 91.8099 35.3798 92.4399L35.5998 92.8599C35.6312 92.9074 35.648 92.963 35.648 93.0199C35.648 93.0768 35.6312 93.1325 35.5998 93.1799C35.4921 93.3055 35.3494 93.3961 35.1898 93.4399C34.6768 93.5881 34.1375 93.6223 33.6098 93.5399C29.5726 93.005 25.6961 91.6139 22.2398 89.4599C20.8414 88.6007 19.589 87.5238 18.5298 86.2699C17.9664 85.5812 17.5019 84.8171 17.1498 83.9999C16.9759 83.5629 16.842 83.1111 16.7498 82.6499C16.6699 82.23 16.6132 81.806 16.5798 81.3799L16.5898 81.4299Z" fill="#231F20"/>
<path d="M21.9296 93.0499C22.8483 93.8308 23.8844 94.4618 24.9996 94.9199C25.4296 95.1199 25.8797 95.2499 26.2896 95.4099C27.8547 96.0017 29.4503 96.5091 31.0696 96.9299C31.7981 97.1103 32.5358 97.2505 33.2796 97.3499C34.2472 97.4077 35.2026 97.5961 36.1196 97.9099C36.3996 98.0299 36.3096 98.4099 35.9996 98.7899C35.8318 99.0083 35.6191 99.1883 35.3759 99.3176C35.1327 99.447 34.8646 99.5228 34.5896 99.5399C32.5845 99.4026 30.6051 99.0094 28.6996 98.3699C27.5497 97.9499 26.2996 97.7499 25.0796 97.2799C23.7579 96.7922 22.4963 96.1548 21.3196 95.3799C20.5496 94.8732 19.873 94.2372 19.3196 93.4999C18.5391 92.3646 18.0576 91.0508 17.9196 89.6799C17.7535 88.6881 17.6599 87.6854 17.6396 86.6799C17.6396 86.4599 17.6396 86.2299 17.6396 86.0199C17.7296 85.1999 17.9396 85.0199 18.5396 84.9099C18.676 84.8959 18.8133 84.8959 18.9496 84.9099C19.4096 84.9099 19.7296 85.2899 19.7996 85.8499C19.8571 87.4189 20.0411 88.9806 20.3496 90.5199C20.6389 91.4932 21.2137 92.3571 21.9996 92.9999L21.9296 93.0499Z" fill="#231F20"/>
<path d="M26.0698 100.26C27.0745 100.805 28.1252 101.26 29.2098 101.62C29.6098 101.75 30.0798 101.83 30.4398 101.93C31.9207 102.292 33.4293 102.53 34.9498 102.64C35.6498 102.7 36.3498 102.7 37.0498 102.7C37.9668 102.617 38.8911 102.715 39.7698 102.99C40.0498 103.09 39.9698 103.4 39.6998 103.74C39.4298 104.08 38.9898 104.53 38.4998 104.53C36.6774 104.677 34.8448 104.64 33.0298 104.42C31.9198 104.22 30.7098 104.26 29.4998 103.97C28.2467 103.664 27.0247 103.243 25.8498 102.71C25.1107 102.374 24.4015 101.976 23.7298 101.52C22.6651 100.797 21.7959 99.821 21.1998 98.68C20.6955 97.7917 20.4013 96.7997 20.3398 95.78C20.3398 95.56 20.3398 95.34 20.3398 95.11C20.4598 94.3 20.6898 94.11 21.3398 94.11C21.4761 94.095 21.6136 94.095 21.7498 94.11C21.9681 94.1493 22.167 94.26 22.3155 94.4248C22.4639 94.5895 22.5534 94.7989 22.5698 95.02C22.65 96.2437 23.0689 97.4209 23.7798 98.42C24.4396 99.1797 25.2456 99.7987 26.1498 100.24L26.0698 100.26Z" fill="#231F20"/>
<path d="M47.13 107.15C48.39 106.91 49.64 106.58 50.93 106.25C52.22 105.92 53.55 105.62 54.86 105.35C55.86 105.15 56.77 104.92 57.73 104.75C61.1299 104.173 64.5581 103.775 68 103.56C69.53 103.49 71.06 103.39 72.59 103.39C73.09 103.39 73.59 103.39 74.07 103.39L75.56 103.54C76.5658 103.657 77.5436 103.948 78.45 104.4C79.03 104.67 78.8 104.93 78.21 105.13C77.8447 105.246 77.4699 105.33 77.09 105.38C76.6201 105.502 76.1305 105.53 75.65 105.46C73.7664 105.328 71.8773 105.291 69.99 105.35C68.07 105.41 66.13 105.55 64.17 105.69C61.7851 105.95 59.4176 106.351 57.08 106.89C55.79 107.16 54.5 107.44 53.21 107.75C51.92 108.06 50.68 108.43 49.35 108.75C47.7345 109.18 46.095 109.514 44.44 109.75C41.8937 110.112 39.3051 110.047 36.78 109.56C34.7973 109.174 32.9129 108.392 31.24 107.26C30.8582 107.025 30.4999 106.754 30.17 106.45C29.6918 106.085 29.3162 105.603 29.08 105.05C29.0141 104.891 28.9736 104.722 28.96 104.55C28.9764 104.389 29.0134 104.231 29.07 104.08C29.0964 103.957 29.1332 103.837 29.18 103.72C29.29 103.46 30.18 103.58 30.94 104.29C32.1601 105.273 33.5052 106.09 34.94 106.72C36.4255 107.335 38.0045 107.693 39.61 107.78C42.1374 107.893 44.6683 107.654 47.13 107.07V107.15Z" fill="#231F20"/>
<path d="M108 35.6399C108.14 35.7999 108 36 107.8 36.24C107.73 36.31 107.46 36.4 107.4 36.36C107.285 36.2914 107.178 36.2109 107.08 36.1199C107.02 36.1199 106.5 35.12 106.32 34.72C106.147 34.4028 106.009 34.0674 105.91 33.72C105.677 33.0154 105.486 32.2974 105.34 31.57C105.32 31.4072 105.32 31.2427 105.34 31.08C105.351 30.5245 105.291 29.9698 105.16 29.43C105.147 29.3351 105.109 29.2453 105.05 29.17C104.86 28.5987 104.732 28.0086 104.67 27.41C104.67 26.93 104.67 26.4099 104.67 25.9699C104.67 25.8999 104.67 25.84 104.67 25.76C104.67 25.68 104.74 25.4499 104.67 25.2999C104.645 25.094 104.645 24.8859 104.67 24.68C104.688 24.5491 104.74 24.4251 104.82 24.32C104.83 24.3003 104.845 24.2828 104.862 24.2686C104.879 24.2545 104.899 24.2438 104.92 24.2373C104.942 24.2308 104.964 24.2286 104.986 24.2308C105.008 24.2329 105.03 24.2394 105.05 24.25C105.13 24.32 105.19 24.25 105.25 24.2H105.32C105.48 24.2 106.23 25.2 106.26 25.34C106.29 25.48 106.84 27.07 106.88 27.26C106.905 27.3651 106.905 27.4748 106.88 27.58C106.88 27.65 107.24 28.9999 107.26 29.0499C107.32 29.3368 107.32 29.6331 107.26 29.92C107.24 29.9749 107.24 30.035 107.26 30.09C107.341 30.5701 107.398 31.054 107.43 31.54L107.53 32.27C107.535 32.3165 107.535 32.3634 107.53 32.41C107.525 32.4665 107.525 32.5234 107.53 32.58C107.591 33.1575 107.698 33.7293 107.85 34.29C107.85 34.42 107.85 35.08 107.95 35.22C108.05 35.36 108 35.5799 108 35.6399Z" fill="#231F20"/>
<path d="M96.6801 106.12C96.4901 106.3 96.2301 106.25 95.9201 106.12C95.8201 106.06 95.6901 105.81 95.7401 105.74C95.8416 105.603 95.9519 105.473 96.0701 105.35C96.7021 104.951 97.372 104.616 98.0701 104.35C98.5444 104.16 99.037 104.019 99.5401 103.93C100.532 103.746 101.534 103.619 102.54 103.55C102.763 103.535 102.987 103.535 103.21 103.55C103.972 103.615 104.736 103.635 105.5 103.61C105.626 103.634 105.755 103.634 105.88 103.61C106.715 103.53 107.555 103.53 108.39 103.61C109.04 103.75 109.69 103.85 110.33 103.96C110.428 103.962 110.523 103.986 110.61 104.03C110.788 104.137 110.993 104.189 111.2 104.18C111.478 104.198 111.755 104.232 112.03 104.28C112.175 104.315 112.313 104.372 112.44 104.45C112.56 104.51 112.44 104.71 112.44 104.73C112.44 104.75 112.44 104.89 112.44 104.97C112.44 105.05 112.44 105.04 112.44 105.06C111.842 105.237 111.23 105.364 110.61 105.44H107.94C107.798 105.435 107.658 105.415 107.52 105.38C107.45 105.38 105.59 105.38 105.52 105.38C105.137 105.393 104.754 105.356 104.38 105.27C104.304 105.255 104.226 105.255 104.15 105.27C103.49 105.27 102.84 105.27 102.15 105.27C101.81 105.27 101.48 105.27 101.15 105.35H101C100.924 105.34 100.846 105.34 100.77 105.35C99.9986 105.418 99.2353 105.559 98.4901 105.77C98.4001 105.77 98.1501 105.83 97.8901 105.87C97.6856 105.91 97.4849 105.966 97.2901 106.04C97.1801 106.08 96.7601 106 96.6801 106.12Z" fill="#231F20"/>
<path d="M24.9297 100.77C24.7797 100.66 24.8597 100.47 25.0497 100.21C25.1097 100.12 25.3597 99.98 25.4197 100.01C25.5353 100.067 25.6457 100.134 25.7497 100.21C26.059 100.623 26.3206 101.069 26.5297 101.54C26.6775 101.859 26.785 102.195 26.8497 102.54C27.0097 103.23 27.1097 103.92 27.1997 104.6C27.2148 104.753 27.2148 104.907 27.1997 105.06C27.1496 105.575 27.1496 106.095 27.1997 106.61C27.1944 106.697 27.2153 106.784 27.2597 106.86C27.3453 107.419 27.3655 107.986 27.3197 108.55C27.2297 108.99 27.1997 109.42 27.1197 109.84C27.1197 109.91 27.1197 109.97 27.1197 110.03C27.0746 110.083 27.0421 110.146 27.0248 110.213C27.0075 110.281 27.0057 110.352 27.0197 110.42V111C27.011 111.091 26.9943 111.182 26.9697 111.27C26.9528 111.308 26.9242 111.339 26.8881 111.358C26.852 111.378 26.8105 111.386 26.7697 111.38C26.6997 111.38 26.6497 111.38 26.5997 111.47H26.5397C26.366 111.315 26.2235 111.128 26.1197 110.92C25.9908 110.703 25.8804 110.476 25.7897 110.24C25.6519 109.629 25.5451 109.012 25.4697 108.39C25.4548 108.297 25.4548 108.203 25.4697 108.11C25.4697 108.11 25.2997 106.79 25.2997 106.75C25.2634 106.485 25.2873 106.215 25.3697 105.96C25.3797 105.91 25.3797 105.859 25.3697 105.81C25.3697 105.36 25.3697 104.92 25.3697 104.48C25.3647 104.256 25.3446 104.032 25.3097 103.81C25.3049 103.77 25.3049 103.73 25.3097 103.69C25.3147 103.64 25.3147 103.59 25.3097 103.54C25.2776 103.021 25.1871 102.508 25.0397 102.01C25.0167 101.74 24.9733 101.473 24.9097 101.21C24.9097 101.12 24.9997 100.81 24.9297 100.77Z" fill="#231F20"/>
<path d="M28.2497 23.48C28.3797 23.38 28.5197 23.48 28.6697 23.81C28.7117 23.9503 28.7117 24.0998 28.6697 24.24C28.6107 24.332 28.5401 24.4161 28.4597 24.49C28.4597 24.49 27.6397 24.8 27.3697 24.89C27.1153 24.9841 26.8497 25.0446 26.5797 25.07C26.0397 25.14 25.4997 25.21 24.9497 25.26C24.8302 25.275 24.7092 25.275 24.5897 25.26C24.1823 25.195 23.7671 25.195 23.3597 25.26C23.285 25.2564 23.2112 25.2775 23.1497 25.32C22.7044 25.4246 22.2455 25.4584 21.7897 25.42C21.4397 25.31 21.0797 25.24 20.7297 25.16C20.6797 25.16 20.6197 25.16 20.5797 25.1C20.5424 25.0491 20.4921 25.0092 20.434 24.9846C20.3759 24.9599 20.3122 24.9514 20.2497 24.96C20.0934 24.9482 19.939 24.9179 19.7897 24.87C19.7048 24.8257 19.6299 24.7644 19.5697 24.69C19.4997 24.62 19.5697 24.39 19.5697 24.36C19.5697 24.33 19.5697 24.18 19.5697 24.08C19.5646 24.0469 19.5646 24.0132 19.5697 23.98C19.8797 23.7778 20.2162 23.6197 20.5697 23.51L21.2397 23.44C21.5797 23.44 21.9297 23.36 21.9997 23.34C22.0793 23.3373 22.1584 23.3545 22.2297 23.39C22.2297 23.39 23.2297 23.28 23.3097 23.28C23.5197 23.28 23.7197 23.28 23.9297 23.37C23.9719 23.3838 24.0174 23.3838 24.0597 23.37C24.4159 23.345 24.7735 23.345 25.1297 23.37C25.3095 23.38 25.4898 23.38 25.6697 23.37H25.7697C25.8126 23.3789 25.8568 23.3789 25.8997 23.37C26.3315 23.3665 26.7625 23.3331 27.1897 23.27C27.4194 23.2855 27.6499 23.2855 27.8797 23.27C27.9997 23.35 28.1997 23.52 28.2497 23.48Z" fill="#231F20"/>
</svg>
