<svg width="128" height="128" viewBox="0 0 128 128" fill="none" xmlns="http://www.w3.org/2000/svg">
<path d="M100.25 93.95C99.8899 94.53 99.42 95.03 99 95.57C98.5599 96.09 98.17 96.65 97.69 97.13C96.74 98.1 95.84 99.13 94.79 100C94.05 100.65 93.35 101.37 92.54 101.93C89.81 104.1 86.74 105.76 83.62 107.22L81.5299 108.17C80.8399 108.49 80.11 108.73 79.41 109.02C77.62 109.8 75.72 110.32 73.83 110.75C73.21 110.8 73.2799 110.73 73.7099 110.37C74.1399 110.01 74.9599 109.5 75.9899 109.1C79.6199 107.65 83.27 106.28 86.69 104.32C87.73 103.78 88.71 103.07 89.72 102.42C90.69 101.71 91.6199 100.93 92.57 100.2C94.52 98.44 96.4599 96.62 98.0199 94.49L98.7699 93.53L99.44 92.51C99.88 91.83 100.36 91.17 100.73 90.44L101.62 88.82C101.91 88.28 102.14 87.7 102.4 87.14C102.94 86.03 103.32 84.85 103.72 83.69C104.28 81.87 104.67 80.04 104.97 78.18C105.04 77.77 105.14 77.38 105.2 76.97C105.48 75.45 105.71 74.98 106.06 74.68C106.14 74.61 106.22 74.52 106.3 74.49C106.54 74.37 106.65 75.02 106.66 76.2C106.69 77.95 106.4 79.72 106.01 81.49C105.65 83.28 105 85.02 104.33 86.74C103.75 87.99 103.23 89.27 102.51 90.45C102.16 91.05 101.86 91.67 101.47 92.24L100.32 93.96L100.29 93.94L100.25 93.95Z" fill="#231F20"/>
<path d="M26.8901 94.15L28.2901 95.65L28.9901 96.4L29.7601 97.09L31.2901 98.47C31.8201 98.91 32.3801 99.31 32.9201 99.74L34.1301 100.64L35.4101 101.45C36.8701 102.47 38.4501 103.3 40.0101 104.16L42.4301 105.3C43.2301 105.69 44.0901 105.97 44.9101 106.31L46.0201 106.73L47.1601 107.07C47.9201 107.29 48.6801 107.52 49.4401 107.72C50.4301 107.94 51.4301 108.11 52.4101 108.38C52.9001 108.5 53.4001 108.57 53.8901 108.72C54.3801 108.87 54.8701 109.02 55.3601 109.17C55.9701 109.37 55.8801 109.45 55.3201 109.57C55.0401 109.63 54.6401 109.7 54.1501 109.78C53.6601 109.88 53.0901 109.92 52.5001 109.85C50.3901 109.58 48.3401 108.98 46.3201 108.34C44.3101 107.66 42.3201 106.87 40.4201 105.89C38.1301 104.76 35.7901 103.51 33.6001 102.07C32.9901 101.69 32.4401 101.22 31.8601 100.8C31.3001 100.35 30.6901 99.96 30.1701 99.47C29.1201 98.49 27.9901 97.59 27.0501 96.5C26.4601 95.84 25.8101 95.24 25.2801 94.53L23.6501 92.44C22.9001 91.34 22.1801 90.2 21.5001 89.05L20.6001 87.26C20.3001 86.67 19.9801 86.08 19.7601 85.45C19.4001 84.48 19.0001 83.54 18.6801 82.58L17.8901 79.63C17.7501 79.2 17.7201 78.76 17.6601 78.31C17.4701 76.64 17.4701 76.11 17.5901 75.74C17.6201 75.66 17.6401 75.55 17.6701 75.5C17.7701 75.33 17.9901 75.99 18.2901 77.15L18.6201 78.45L18.7801 79.11L19.0001 79.75C19.2901 80.61 19.5901 81.47 19.8901 82.34C20.2601 83.17 20.6401 84.01 21.0201 84.86C21.3201 85.73 21.8201 86.52 22.2301 87.35C22.8101 88.6 23.6201 89.72 24.3501 90.88C24.6901 91.48 25.1701 91.98 25.5901 92.54C26.0301 93.07 26.4301 93.64 26.8901 94.15Z" fill="#231F20"/>
<path d="M55.8301 47.04C55.6601 47.84 55.5001 48.65 55.3601 49.46C55.3101 49.75 55.3001 50.05 55.2501 50.35C55.0501 51.39 54.8501 52.44 54.6501 53.47C54.5601 53.93 54.5001 54.4 54.4601 54.86C54.4301 55.46 54.3201 56.05 54.0801 56.63C54.0001 56.81 53.8301 56.76 53.6401 56.58C53.4501 56.4 53.2001 56.08 53.1401 55.73C53.0301 55.11 53.1201 54.51 53.1401 53.9C53.1701 53.29 53.2601 52.68 53.4301 52.08C53.6201 51.36 53.6201 50.59 53.7101 49.84C53.8301 49.02 53.9601 48.2 54.0801 47.37C54.1601 46.86 54.2401 46.36 54.3301 45.85C54.4501 45.08 54.6201 44.32 54.7301 43.55C54.8001 42.95 54.8101 42.36 54.9301 41.76C54.9501 41.63 54.9601 41.5 55.0101 41.37C55.1901 40.9 55.3501 40.77 55.6401 40.74C55.7101 40.74 55.7701 40.72 55.8301 40.72C56.0301 40.72 56.1601 40.97 56.2301 41.33C56.3501 41.88 56.3501 42.41 56.3901 42.96C56.3601 43.49 56.3101 44.04 56.2501 44.58C56.1801 45.39 56.0301 46.2 55.8901 47.01H55.8501L55.8301 47.04Z" fill="#231F20"/>
<path d="M69.8501 87.09C70.0001 86.23 70.1501 85.36 70.3001 84.5C70.3601 84.18 70.3701 83.86 70.4301 83.55C70.6501 82.44 70.8801 81.33 71.0701 80.21C71.1501 79.71 71.2201 79.21 71.2701 78.72C71.3101 78.4 71.3101 78.08 71.3801 77.76C71.4601 77.45 71.5801 77.13 71.7101 76.83C71.8001 76.64 71.9201 76.68 72.0901 76.87C72.2501 77.06 72.5201 77.4 72.6201 77.78C72.7501 79.1 72.6201 80.39 72.3001 81.68C72.1101 82.45 72.1201 83.28 72.0301 84.08C71.9301 84.96 71.7701 85.84 71.6301 86.72C71.5401 87.26 71.4501 87.8 71.3601 88.34C71.2301 89.16 71.1001 89.98 70.9701 90.79C70.8701 91.42 70.9001 92.06 70.7801 92.69C70.7601 92.83 70.7501 92.97 70.7101 93.1C70.5801 93.61 70.4401 93.76 70.1101 93.8C70.0301 93.8 69.9601 93.83 69.8901 93.83C69.6501 93.83 69.4901 93.58 69.4401 93.19C69.2701 92.04 69.2901 90.87 69.4301 89.7C69.5501 88.83 69.6801 87.96 69.8001 87.09H69.8401H69.8501Z" fill="#231F20"/>
<path d="M43.9199 42.14C43.1499 42.73 42.3399 43.27 41.6399 43.95C41.2799 44.28 40.9099 44.6 40.5599 44.93L39.5699 46.01C39.0699 46.52 38.6899 47.13 38.2599 47.7C36.7399 49.69 35.3799 51.88 34.4699 54.26C34.2299 54.77 34.0799 55.32 33.9299 55.87C33.7899 56.42 33.6099 56.96 33.5199 57.51L33.1799 59.64C33.1199 60.36 33.0199 61.07 32.8399 61.77C32.6099 62.67 30.7699 61.4 30.9499 59.58C31.3799 56.45 32.4099 53.39 34.0399 50.68L34.7499 49.44L35.5099 48.21C35.9799 47.36 36.5799 46.6 37.1499 45.82C37.7799 44.97 38.5399 44.23 39.2499 43.45L40.4199 42.38C40.7999 42.02 41.1999 41.67 41.6299 41.36C42.1499 40.97 42.6599 40.56 43.1899 40.2L44.8399 39.17C45.6699 38.66 46.5799 38.27 47.4499 37.82C48.3699 37.48 49.2599 37.07 50.1799 36.77C50.8999 36.55 51.6099 36.3 52.3199 36.05L54.4999 35.5C54.8199 35.41 55.1399 35.36 55.4799 35.32C56.7199 35.19 57.1199 35.3 57.3999 35.82C57.4599 35.94 57.5399 36.06 57.5799 36.18C57.6999 36.59 57.2299 36.97 56.3999 37.16C55.1599 37.38 53.9399 37.76 52.6899 38.05C52.0799 38.26 51.4699 38.46 50.8499 38.65C50.2299 38.83 49.6499 39.13 49.0399 39.36C48.1199 39.68 47.2999 40.21 46.4299 40.62C45.5999 41.12 44.7599 41.62 43.9799 42.2L43.9499 42.16L43.9199 42.14Z" fill="#231F20"/>
<path d="M38.1801 85.26C38.6901 86.04 39.3601 86.7 39.9701 87.42C40.6301 88.08 41.3001 88.75 42.0301 89.36C42.5801 89.78 43.1401 90.18 43.6901 90.59C45.6701 92.03 47.8301 93.22 50.1101 94.19C51.1501 94.56 52.1801 94.96 53.2601 95.16C53.9501 95.3 54.6301 95.47 55.3201 95.58C56.0101 95.69 56.7001 95.84 57.3701 96.08C58.2201 96.38 56.8301 98.11 55.1201 97.81C52.1601 97.22 49.2601 96.21 46.6201 94.66C45.8501 94.16 45.0201 93.76 44.2301 93.27C43.4501 92.75 42.6101 92.34 41.8901 91.73L40.6801 90.78C40.2801 90.46 39.9201 90.09 39.5401 89.75C38.7701 89.08 38.1101 88.29 37.4301 87.53C36.9901 87.08 36.6701 86.53 36.2801 86.04L35.7201 85.28L35.2301 84.47C34.9901 84.06 34.7301 83.66 34.5001 83.24L33.8901 81.95C33.4401 81.11 33.1901 80.19 32.8201 79.32C32.5801 78.63 32.3801 77.93 32.1401 77.24C31.9001 76.55 31.7901 75.83 31.6201 75.12C31.5501 74.8 31.4601 74.5 31.4501 74.17C31.3501 72.97 31.4701 72.57 32.0001 72.32C32.1201 72.26 32.2401 72.19 32.3601 72.15C32.7701 72.04 33.1401 72.5 33.3101 73.31C33.8001 75.69 34.3701 78.11 35.3701 80.4C36.1801 82.06 37.0101 83.75 38.2101 85.2L38.1701 85.23L38.1801 85.26Z" fill="#231F20"/>
<path d="M81.4001 90.65C82.8401 89.51 84.2601 88.3 85.4201 86.84C85.8801 86.33 86.2301 85.75 86.6301 85.19C88.0501 83.25 89.2901 81.13 90.2001 78.86C90.6401 77.87 90.9201 76.8 91.2001 75.76L91.6301 73.72C91.7501 73.04 91.9001 72.36 92.1401 71.7C92.4401 70.87 94.1601 72.27 93.8601 73.95C93.2501 76.87 92.2201 79.72 90.6801 82.3C89.7901 83.85 88.8901 85.5 87.8101 86.98C87.2101 87.79 86.5401 88.56 85.8701 89.3C85.1401 90 84.4701 90.76 83.6601 91.37C82.7301 92.2 81.6801 92.87 80.6501 93.56C79.8301 94.01 79.0101 94.49 78.1601 94.88L76.8701 95.43L76.2301 95.71L75.5701 95.93C74.8801 96.15 74.2201 96.44 73.5401 96.65L71.4701 97.23C71.1601 97.32 70.8601 97.36 70.5401 97.41C69.3701 97.57 68.9701 97.47 68.7001 96.95C68.6401 96.83 68.5601 96.72 68.5201 96.6C68.3901 96.19 68.8301 95.8 69.6201 95.6C71.9701 95.05 74.3501 94.39 76.6101 93.38C78.3101 92.68 79.8801 91.69 81.3801 90.61L81.4101 90.65H81.4001Z" fill="#231F20"/>
<path d="M86.7902 48.95C85.7202 47.43 84.5802 45.92 83.2002 44.63C82.9502 44.39 82.7002 44.16 82.4402 43.93C82.1702 43.72 81.8902 43.51 81.6302 43.29C79.7902 41.72 77.7602 40.32 75.5302 39.26C75.0502 39 74.5402 38.8 74.0202 38.62C73.5002 38.44 73.0002 38.23 72.4802 38.09L70.4602 37.57C69.7802 37.43 69.1102 37.26 68.4502 37C67.6202 36.67 69.0602 34.99 70.7602 35.35C73.6902 36.07 76.5202 37.27 79.0202 39.01C80.5202 40.02 82.1002 41.05 83.5202 42.24C85.0302 43.6 86.4502 45.07 87.6302 46.72C88.4002 47.7 89.0202 48.78 89.6802 49.84C90.1102 50.68 90.5602 51.51 90.9402 52.36C91.2702 53.24 91.7002 54.07 91.9902 54.96C92.2202 55.64 92.5102 56.3 92.7402 56.98L93.3902 59.03C93.5002 59.33 93.5502 59.64 93.6202 59.95C93.8402 61.12 93.7602 61.51 93.2602 61.82C93.1502 61.89 93.0402 61.98 92.9202 62.02C92.5202 62.17 92.1102 61.76 91.8602 60.97C91.5402 59.79 91.1202 58.62 90.7702 57.42C90.3302 56.25 89.9602 55.04 89.4202 53.9C88.7102 52.17 87.7702 50.53 86.7402 48.96L86.7802 48.93L86.7902 48.95Z" fill="#231F20"/>
<path d="M42.6798 59.34C42.6798 59.34 33.9398 43.85 34.5198 41.01C34.8598 39.36 52.0898 54.35 52.0898 54.35L51.6998 56.83L42.6798 59.35V59.34Z" fill="#231F20"/>
<path d="M78.9101 57.45C78.9101 57.45 89.5001 42.35 89.3001 41.97C89.1001 41.59 72.1201 50.04 72.1201 50.04L73.3301 56.11L78.9101 57.45Z" fill="#231F20"/>
<path d="M48.7302 75.24C48.7302 75.24 35.2702 91.79 35.0402 92.35C34.8102 92.91 53.3302 84.79 53.3302 84.79L52.0302 76.62L48.7302 75.24Z" fill="#231F20"/>
<path d="M77.2199 76.72C77.2199 76.72 89.2699 94.06 88.8099 93.85C88.3499 93.64 72.1299 85.26 72.1299 85.26L73.9399 77.79L77.2299 76.72H77.2199Z" fill="#231F20"/>
<path d="M72.72 51.31C72.72 51.31 72.72 51.34 72.72 51.36V51.39L72.78 51.61L73.03 52.65L73.54 54.73L73.8 55.77C73.86 56 73.85 55.96 73.86 56.01C73.86 56.05 73.87 56.08 73.91 56.08L75.67 56.53L78.7 57.25L81.31 57.92L81.52 57.99L81.67 57.74L81.91 57.28L82.22 56.68C83.04 55.06 83.82 53.4 84.58 51.74C85.25 50.26 85.89 48.76 86.52 47.27C86.93 46.32 87.31 45.35 87.75 44.41L88.43 43C88.66 42.53 88.98 42.11 89.25 41.66C89.62 41.12 89.6 41.21 89.51 41.77C89.47 42.05 89.41 42.45 89.36 42.94C89.28 43.42 89.12 43.94 88.92 44.5C87.39 48.43 85.78 52.35 83.91 56.21C83.63 56.79 83.34 57.37 83.05 57.96L82.78 58.51L82.43 59.19L82.26 59.53C82.25 59.62 82.15 59.53 82.09 59.54L81.89 59.5L81.09 59.32C79.8 59.03 78.5 58.73 77.21 58.44L72.64 57.34C72.55 57.07 72.49 56.79 72.41 56.51L72.26 55.93L71.99 54.89L71.45 52.8L71.08 51.35L70.96 50.86L70.9 50.62C70.89 50.54 70.82 50.44 70.94 50.42L71.85 49.98L73.12 49.36L74.29 48.76C76.64 47.52 79 46.23 81.32 44.93C83.13 43.92 84.86 42.85 86.71 41.95C87.11 41.74 87.52 41.55 87.94 41.36C89.51 40.69 90.14 40.79 90.55 40.87C90.65 40.89 90.76 40.9 90.82 40.93C90.92 40.97 90.82 41.08 90.57 41.28C90.32 41.48 89.93 41.78 89.4 42.09C86.25 43.84 82.98 45.77 79.63 47.7C78.39 48.42 77.14 49.13 75.85 49.8C75.21 50.13 74.56 50.47 73.91 50.79L72.93 51.27L72.81 51.33C72.81 51.33 72.79 51.33 72.78 51.33L72.73 51.31H72.72Z" fill="#231F20"/>
<path d="M54.1699 50.26L54.5899 50.46C54.5499 50.61 54.4699 50.78 54.4099 50.93L54.0199 51.89L53.5099 53.11L52.6499 55.11L51.6899 57.39L51.5999 57.61C51.5399 57.66 51.4499 57.66 51.3799 57.69L50.9099 57.82L50.2799 57.99L49.2299 58.27L46.1699 59.14L43.3199 59.89L42.7499 60.04L42.4699 60.11C42.4699 60.11 42.3699 60.15 42.3399 60.13L42.2799 60.01L41.7799 59.03L41.1099 57.68L38.5699 52.69C37.8099 51.22 37.0099 49.75 36.2299 48.31C35.7299 47.38 35.1999 46.46 34.7399 45.5L34.0599 44.06C33.8299 43.58 33.6999 43.06 33.5199 42.55C33.3199 41.91 33.3799 41.98 33.7699 42.41C33.9599 42.63 34.2499 42.93 34.5999 43.28C34.9199 43.65 35.2399 44.11 35.5499 44.63C37.6899 48.36 39.7699 52.13 41.7499 56.02C42.0499 56.6 42.3499 57.19 42.6499 57.78L42.9499 58.36C42.9499 58.36 42.9999 58.54 43.0599 58.5L43.2099 58.45C44.4499 58.09 45.6899 57.72 46.9299 57.36L49.0399 56.77L50.0999 56.47L50.4099 56.39C50.4999 56.39 50.4899 56.29 50.5299 56.24L52.1799 52.25L52.5399 51.4C52.5399 51.4 52.6299 51.29 52.5599 51.26L52.3899 51.18L52.0399 51.01L50.8999 50.45L49.6899 49.82C47.2599 48.54 44.9199 47.09 42.5699 45.77C40.7399 44.74 38.8899 43.84 37.0399 42.94C36.6299 42.75 36.2299 42.57 35.8099 42.38C34.2799 41.67 33.8799 41.26 33.6099 40.92C33.5499 40.84 33.4599 40.76 33.4299 40.7C33.3799 40.6 33.5199 40.59 33.8499 40.6C34.1799 40.62 34.7099 40.63 35.3199 40.81C38.9799 41.92 42.4299 43.93 45.8599 45.82C47.1299 46.53 48.3999 47.23 49.6699 47.94C50.2999 48.29 50.9399 48.63 51.5799 48.96L52.5399 49.44L54.2299 50.21L54.1899 50.24L54.1699 50.26Z" fill="#231F20"/>
<path d="M79.6701 77L75.6801 78.02L74.6801 78.28L74.2901 78.38L74.1901 78.4C74.1901 78.4 74.1701 78.46 74.1601 78.5L74.1001 78.85L73.9201 79.86L73.4301 82.82L72.9601 85.31C72.9601 85.37 72.8901 85.45 72.9401 85.51L73.2101 85.65L74.2801 86.2L78.9701 88.67C80.3601 89.4 81.7701 90.09 83.1701 90.76C84.0701 91.2 84.9801 91.6 85.8701 92.05C86.7701 92.48 87.6601 92.94 88.5001 93.49C89.0301 93.83 88.9401 93.82 88.4001 93.76C88.0401 93.72 87.6501 93.69 87.2601 93.65C86.7901 93.58 86.2801 93.42 85.7401 93.21C81.9501 91.64 78.3201 89.77 74.6801 87.88C74.1401 87.6 73.5801 87.32 73.0201 87.05L71.8701 86.5L71.5401 86.35C71.5401 86.35 71.4201 86.31 71.3901 86.26L71.4201 86.07L71.5401 85.29C71.7401 84.01 71.9401 82.73 72.1401 81.45L72.4901 79.4L72.6601 78.38L72.7901 77.6C72.8201 77.47 72.8401 77.32 72.8701 77.2L73.2701 77.09L77.5201 75.94L80.3201 75.19L80.5501 75.13C80.5501 75.13 80.6301 75.1 80.6601 75.11L80.7201 75.22L80.9401 75.65L81.3501 76.44L81.9301 77.58C83.1101 79.88 84.2001 82.24 85.3001 84.55C86.1501 86.35 87.0601 88.09 87.8501 89.9C88.0301 90.3 88.2101 90.68 88.3801 91.09C88.9901 92.6 88.9201 93.18 88.8401 93.59C88.8201 93.68 88.8101 93.8 88.7901 93.86C88.7501 93.96 88.6401 93.86 88.4401 93.63C88.2401 93.39 87.9201 93.03 87.6301 92.51C85.9301 89.43 84.3701 86.1 82.7001 82.79C82.0901 81.56 81.4701 80.33 80.8601 79.09L79.9301 77.24L79.8401 77.06C79.8401 77.06 79.8401 77.04 79.8401 77.03C79.8401 77.03 79.8301 77.03 79.8201 77.03L79.7101 77.06V77.02L79.6701 77Z" fill="#231F20"/>
<path d="M46.3698 73.78L50.4498 75.18L51.4698 75.53L52.2398 75.79L52.6998 75.94C52.7998 75.94 52.7998 76.04 52.8098 76.12L52.8498 76.36L53.1998 78.85L53.6698 81.96L53.8498 83.33L53.9498 84.07C53.9898 84.45 54.0898 84.87 54.0698 85.21C53.7198 85.38 53.3698 85.54 52.9998 85.68L52.2998 85.96L51.0098 86.48L45.8698 88.58C44.3498 89.21 42.8398 89.87 41.3498 90.53C40.3898 90.95 39.4498 91.4 38.4698 91.8C37.5098 92.21 36.5298 92.59 35.4998 92.85C34.8598 93.02 34.9298 92.96 35.3798 92.59C35.6598 92.34 35.9698 92.07 36.2798 91.8C36.6598 91.49 37.1398 91.21 37.6798 90.93C41.5098 89.05 45.4198 87.35 49.3998 85.72C49.9898 85.47 50.5898 85.22 51.1898 84.97L52.0898 84.57C52.1498 84.54 52.2698 84.49 52.2898 84.48L52.3698 84.46C52.4298 84.45 52.4698 84.42 52.5198 84.4C52.3398 83.27 52.1598 82.13 51.9798 81L51.4098 77.13L47.6498 75.88L45.4798 75.16C45.4798 75.16 45.4198 75.13 45.3998 75.15L45.3498 75.23L45.2498 75.4L45.0398 75.76L44.3698 76.92C43.0298 79.27 41.6298 81.59 40.3398 83.93C39.3298 85.75 38.4398 87.59 37.4898 89.41C37.2798 89.81 37.0798 90.21 36.8798 90.61C36.0798 92.1 35.5998 92.45 35.2298 92.68C35.1398 92.73 35.0498 92.8 34.9898 92.83C34.8898 92.87 34.8898 92.72 34.9298 92.4C34.9798 92.08 35.0498 91.57 35.2798 90.99C36.6198 87.52 38.4798 84.09 40.3598 80.67C41.0598 79.4 41.7698 78.14 42.5098 76.89L43.5998 75.01L44.5098 73.42L44.6298 73.21C44.6898 73.19 44.7898 73.25 44.8698 73.26L45.3698 73.41L46.3498 73.73V73.77L46.3698 73.78Z" fill="#231F20"/>
<path d="M55.1099 41.15C55.6999 38.94 56.2899 36.73 56.8299 34.5L57.3699 32.05C58.0699 29.18 58.8399 26.32 59.5899 23.46C59.9199 22.19 60.2099 20.9 60.4899 19.63C60.8399 17.99 61.2099 16.35 62.0099 14.83C62.2399 14.35 62.3399 14.45 62.4599 14.93C62.5199 15.17 62.5999 15.52 62.6799 15.93C62.7199 16.13 62.7699 16.36 62.7799 16.59C62.7799 16.81 62.7699 17.05 62.7299 17.29C62.5399 18.99 62.0899 20.63 61.7299 22.29C61.3399 23.95 60.9299 25.6 60.4699 27.26C59.9299 29.24 59.5499 31.35 59.0899 33.4C58.5699 35.66 58.0299 37.91 57.4599 40.16L56.3899 44.31C55.8099 46.4 55.2299 48.49 54.6599 50.56C54.2299 52.17 53.8899 53.78 53.4799 55.39C53.3899 55.75 53.3099 56.09 53.2099 56.45C52.7799 57.74 52.4999 58.11 51.8799 58.2C51.7399 58.22 51.5899 58.26 51.4599 58.26C51.0199 58.24 50.8599 57.6 51.0299 56.62C51.5799 53.73 52.4599 50.8 53.2699 47.82C53.8899 45.61 54.4999 43.39 55.0599 41.16H55.1099V41.15Z" fill="#231F20"/>
<path d="M39.39 61.57L32.58 63.03C31.75 63.21 30.94 63.45 30.11 63.62C27.18 64.22 24.23 64.72 21.29 65.26C19.99 65.51 18.68 65.77 17.39 66.05C16.56 66.21 15.74 66.41 14.89 66.53C14.47 66.6 14.05 66.64 13.63 66.69C13.21 66.75 12.77 66.67 12.34 66.67C11.8 66.63 11.86 66.58 12.27 66.3C12.47 66.16 12.75 65.94 13.09 65.67C13.44 65.44 13.86 65.27 14.32 65.14C17.64 64.28 20.99 63.58 24.4 62.94C26.44 62.58 28.51 61.94 30.57 61.46L37.39 59.87L41.59 58.88C43.7 58.36 45.85 57.92 47.95 57.39C49.58 56.99 51.15 56.45 52.77 56.06C53.13 55.97 53.47 55.86 53.83 55.79C55.17 55.51 55.68 55.79 56.03 56.02C56.11 56.08 56.21 56.12 56.26 56.17C56.34 56.25 56.26 56.36 56.05 56.55C55.84 56.73 55.5 57.03 55.04 57.23C52.27 58.4 49.26 59.18 46.23 60C43.99 60.63 41.69 61.09 39.41 61.63L39.39 61.58V61.57Z" fill="#231F20"/>
<path d="M72.2202 48.31L73.2702 52.59L73.8002 54.73L74.0402 55.69C74.0502 55.75 74.0402 55.85 74.1402 55.84C74.1502 55.85 74.1702 55.85 74.1902 55.86L74.3402 55.9L74.8602 56.04L75.9002 56.31L77.9802 56.84C79.5202 57.23 81.0902 57.54 82.6302 57.92L99.0602 61.8C101.5 62.38 103.94 62.96 106.36 63.54L108.69 64.12L111 64.78C111.76 65.03 112.53 65.25 113.28 65.54C114.02 65.85 114.76 66.15 115.5 66.46C116.42 66.86 116.25 66.93 115.38 66.9C114.87 66.88 114.26 66.85 113.59 66.83C113.22 66.8 112.82 66.8 112.4 66.75C111.99 66.69 111.55 66.61 111.11 66.5C104.81 65.01 98.5302 63.53 92.1602 62.03C88.3502 61.12 84.3402 60.34 80.4202 59.43L76.8802 58.58L73.1102 57.63L72.6502 57.36L72.6202 57.34C72.7602 57.19 72.6602 57.3 72.6902 57.26V57.25L72.6602 57.2L72.5902 57.09L72.4502 56.88C72.2002 56.61 72.1602 56.11 72.0902 55.94L71.7202 54.49L70.9802 51.6C70.3102 48.97 69.6502 46.34 68.9802 43.71C67.9602 39.73 66.9802 35.72 65.9202 31.78C65.1002 28.72 64.1702 25.75 63.2902 22.74C63.0902 22.08 62.9002 21.43 62.7002 20.76C62.0502 18.26 61.9902 17.43 62.3902 16.76C62.4802 16.61 62.5602 16.41 62.6602 16.31C63.0102 15.97 63.6102 16.9 64.2302 18.69C66.0302 24.01 67.5302 29.72 69.0202 35.46C70.1102 39.73 71.2002 44.02 72.2802 48.29L72.2302 48.31H72.2202Z" fill="#231F20"/>
<path d="M86.6299 72.32L93.2699 70.77C94.0799 70.58 94.8699 70.33 95.6799 70.15C98.5399 69.51 101.42 68.99 104.3 68.44C105.57 68.19 106.85 67.92 108.11 67.64C108.92 67.48 109.73 67.28 110.55 67.16C110.96 67.1 111.37 67.05 111.79 67.01C112.2 66.95 112.64 67.04 113.06 67.04C113.59 67.08 113.53 67.13 113.13 67.41C112.93 67.55 112.66 67.77 112.33 68.04C111.99 68.27 111.58 68.44 111.13 68.57C107.88 69.42 104.62 70.13 101.3 70.8C99.3099 71.18 97.2999 71.84 95.2799 72.33L88.6299 74.01L84.5399 75.05C82.4799 75.6 80.3899 76.06 78.3399 76.62C76.7499 77.04 75.2199 77.59 73.6399 78C73.2899 78.1 72.9599 78.2 72.5999 78.28C71.2899 78.57 70.7899 78.31 70.4399 78.08C70.3599 78.02 70.2599 77.98 70.2099 77.93C70.1299 77.85 70.2099 77.74 70.4099 77.55C70.6199 77.36 70.9399 77.07 71.3899 76.86C74.0799 75.66 77.0099 74.84 79.9599 73.99C82.1399 73.34 84.3799 72.85 86.5999 72.27L86.6199 72.32H86.6299Z" fill="#231F20"/>
<path d="M70.5402 93.51C69.9702 95.62 69.4202 97.73 68.9002 99.86L68.3902 102.2C67.7202 104.94 66.9902 107.67 66.2702 110.4C65.9502 111.61 65.6802 112.84 65.4102 114.06C65.0802 115.62 64.7202 117.19 63.9502 118.64C63.7202 119.1 63.6302 119 63.5002 118.53C63.4402 118.3 63.3502 117.97 63.2702 117.57C63.2302 117.37 63.1702 117.16 63.1602 116.94C63.1602 116.73 63.1602 116.5 63.2002 116.27C63.3702 114.64 63.8102 113.09 64.1502 111.5C64.5202 109.92 64.9102 108.34 65.3502 106.76C65.8702 104.87 66.2202 102.85 66.6602 100.89C67.1502 98.74 67.6702 96.58 68.2102 94.43L69.2402 90.47C69.8002 88.48 70.3602 86.48 70.9102 84.51C71.3302 82.97 71.6502 81.43 72.0402 79.9C72.1202 79.56 72.2002 79.23 72.3002 78.89C72.7102 77.65 72.9902 77.31 73.6002 77.23C73.7402 77.21 73.8802 77.17 74.0102 77.18C74.4502 77.2 74.6202 77.82 74.4602 78.76C73.9502 81.53 73.1002 84.33 72.3202 87.17C71.7202 89.27 71.1402 91.39 70.5902 93.52H70.5402V93.51Z" fill="#231F20"/>
<path d="M45.2799 73.54C46.4299 73.84 47.5799 74.14 48.7199 74.47L50.4299 74.96L52.4199 75.56L52.9399 75.85C53.0099 75.78 52.8499 75.95 52.8699 75.93L52.8799 75.95L52.9099 75.98L52.9599 76.03L53.0599 76.13C53.1199 76.21 53.2099 76.25 53.2399 76.36C53.4199 76.71 53.5699 77.24 53.5999 77.4L53.9599 78.81L54.6299 81.61L55.7499 86.15L59.3499 102.22C59.8999 104.59 60.4999 106.96 61.1099 109.3C61.4899 110.8 61.9299 112.3 62.2799 113.81L62.8099 116.08C62.9899 116.83 63.0399 117.63 63.1699 118.39C63.2899 119.36 63.2199 119.24 62.8099 118.51C62.5999 118.14 62.2999 117.62 61.9199 116.99C61.5799 116.35 61.2799 115.58 60.9999 114.73C59.1699 108.65 57.6399 102.5 56.2299 96.26C55.3999 92.53 54.3199 88.7 53.3999 84.9L52.3699 80.72L51.8399 78.64L51.5799 77.69C51.5399 77.56 51.5299 77.37 51.3499 77.37L49.5199 76.84L47.4699 76.28C44.9299 75.6 42.3599 74.99 39.7799 74.43C35.8699 73.59 31.9199 72.76 28.0299 71.86C25.0099 71.16 22.0199 70.54 19.0699 69.67C18.4199 69.48 17.7799 69.3 17.1299 69.09C14.7199 68.3 14.0899 67.67 13.6699 67.22C13.5799 67.11 13.4399 67 13.3999 66.92C13.3199 66.79 13.5299 66.77 14.0099 66.78C14.4899 66.8 15.2299 66.83 16.1299 67.02C21.4599 68.22 26.9699 69.59 32.6199 70.7C36.8099 71.51 41.0599 72.43 45.2799 73.47V73.52V73.54Z" fill="#231F20"/>
<path d="M35.6699 29.72C34.2899 30.57 33.0899 31.67 31.8299 32.69C31.1799 33.18 30.6499 33.81 30.0599 34.36C29.4899 34.94 28.8799 35.48 28.3499 36.1C27.5899 37.01 26.8799 37.96 26.1099 38.87C23.5899 42.21 21.4999 45.89 19.9199 49.81C19.6299 50.7 19.3499 51.6 19.0799 52.49L18.6799 53.84L18.4199 55.21C18.2299 56.39 17.9699 57.56 17.8399 58.74C17.7299 59.93 17.5899 61.11 17.3399 62.29C17.0299 63.77 15.0099 61.76 15.2999 58.83C15.9699 53.75 17.5399 48.77 20.0799 44.28C21.6299 41.63 23.1899 38.83 25.1999 36.41L26.8499 34.42L28.6699 32.59C29.8399 31.32 31.2399 30.3 32.5399 29.19C33.3499 28.51 34.2699 27.97 35.1199 27.35C35.5599 27.06 35.9799 26.74 36.4299 26.46L37.8099 25.68C38.5099 25.29 39.1899 24.88 39.8999 24.51L42.0799 23.52C43.5099 22.8 45.0499 22.37 46.5299 21.8C48.8699 21.06 51.1899 20.33 53.6199 19.93C54.1499 19.84 54.6699 19.68 55.2099 19.66C57.2299 19.52 57.8899 19.64 58.3199 20.23C58.4199 20.36 58.5499 20.5 58.5999 20.63C58.7899 21.09 57.9899 21.53 56.6099 21.74C52.4999 22.38 48.2699 23.39 44.2199 25.03L42.0099 26.05L40.8999 26.56C40.5399 26.75 40.1899 26.96 39.8399 27.16L37.7199 28.37C37.0299 28.8 36.3799 29.29 35.7099 29.75L35.6699 29.71V29.72Z" fill="#231F20"/>
<path d="M26.4902 94.66L27.9702 96.39C28.2202 96.68 28.4502 96.98 28.7202 97.25L29.5402 98.04L31.1902 99.62L32.9802 101.05C33.4202 101.39 33.8502 101.75 34.3302 102.04C34.8102 102.33 35.2802 102.63 35.7502 102.94C39.0402 105.1 42.6002 106.93 46.3902 108.17C47.2102 108.5 48.0802 108.7 48.9402 108.92C49.8002 109.12 50.6502 109.37 51.5202 109.51C52.6302 109.68 53.7502 109.86 54.8702 110.03C55.9902 110.14 57.1102 110.29 58.2202 110.54C59.6102 110.86 57.6502 112.86 54.9202 112.57C50.1702 111.92 45.4802 110.57 41.1602 108.4C40.5202 108.07 39.8402 107.79 39.2002 107.45C38.5502 107.11 37.9002 106.76 37.2502 106.41C35.9102 105.78 34.6802 104.92 33.4302 104.13C32.7302 103.71 32.1202 103.17 31.4702 102.68C30.8402 102.17 30.1802 101.7 29.5802 101.15L27.8102 99.47C27.5202 99.18 27.2102 98.92 26.9402 98.62L26.1402 97.7C25.5102 96.93 24.7902 96.23 24.2302 95.4L22.5102 92.96C22.1002 92.33 21.7602 91.65 21.3802 91C21.0302 90.33 20.6002 89.7 20.3202 89L19.4202 86.93L18.9602 85.9C18.8302 85.55 18.7202 85.19 18.6002 84.84C18.2502 83.73 17.7902 82.67 17.4802 81.56L16.6102 78.21C16.4702 77.72 16.4302 77.22 16.3502 76.71C16.1202 74.82 16.2202 74.2 16.7902 73.77C16.9202 73.67 17.0502 73.54 17.1802 73.49C17.6402 73.29 18.1002 74.02 18.3702 75.32C18.4602 75.8 18.5602 76.29 18.6502 76.78L18.7802 77.51C18.8402 77.75 18.9102 77.99 18.9802 78.23C19.2502 79.19 19.4902 80.17 19.7302 81.15C20.3802 83.06 20.9402 85.03 21.8502 86.86C23.0302 89.66 24.7002 92.22 26.5502 94.64L26.5102 94.68L26.4902 94.66Z" fill="#231F20"/>
<path d="M90.2102 102.43C91.5802 101.62 92.7402 100.54 93.9902 99.56C94.6002 99.06 95.1302 98.46 95.7002 97.91C96.2502 97.34 96.8602 96.82 97.3302 96.18C98.0502 95.27 98.7902 94.37 99.4502 93.42C101.89 90.12 103.69 86.36 105.1 82.47C105.64 80.71 106.2 78.94 106.45 77.12L106.74 75.38L106.89 74.51L106.97 73.63C107.09 72.46 107.24 71.29 107.5 70.13C107.82 68.67 109.82 70.7 109.52 73.54C108.87 78.49 107.57 83.42 105.25 87.93C104.49 89.24 103.81 90.62 103.06 91.97L101.82 93.94C101.41 94.6 101 95.26 100.49 95.85L98.8902 97.83C98.3702 98.5 97.7102 99.06 97.1302 99.67C95.9802 100.92 94.6302 101.96 93.3202 103.03C92.5202 103.7 91.6102 104.21 90.7602 104.81C90.3202 105.09 89.9102 105.41 89.4502 105.65L88.0802 106.39C85.3502 107.97 82.3602 109 79.4202 110C78.2602 110.33 77.1102 110.67 75.9602 111C74.8102 111.33 73.6302 111.53 72.4602 111.79C71.9402 111.91 71.4402 112.03 70.9102 112.07C68.9502 112.28 68.3002 112.18 67.8502 111.6C67.7502 111.47 67.6202 111.34 67.5502 111.21C67.3402 110.75 68.1002 110.29 69.4702 110.04C73.5202 109.26 77.7302 108.39 81.7302 106.82C84.6602 105.6 87.6002 104.29 90.1702 102.4L90.2102 102.44V102.43Z" fill="#231F20"/>
<path d="M98.23 39.76C97.3 38.53 96.41 37.25 95.34 36.12C94.82 35.55 94.32 34.94 93.78 34.39L92.09 32.79C91.29 31.98 90.34 31.35 89.46 30.63C86.33 28.16 82.92 25.95 79.18 24.43C78.38 24.03 77.51 23.78 76.66 23.5C75.8 23.25 74.97 22.92 74.09 22.76C72.97 22.54 71.85 22.31 70.74 22.09C69.61 21.95 68.49 21.77 67.37 21.49C65.97 21.14 67.97 19.18 70.76 19.55C75.59 20.38 80.28 22.09 84.47 24.65C85.1 25.03 85.74 25.4 86.38 25.78C87 26.19 87.63 26.6 88.26 27.01C89.55 27.78 90.72 28.74 91.9 29.66C92.56 30.15 93.15 30.72 93.75 31.29L95.54 32.98L97.18 34.81C97.73 35.42 98.28 36.03 98.76 36.7C99.37 37.51 99.99 38.3 100.58 39.12L102.21 41.67C102.65 42.3 102.98 42.99 103.34 43.66L104.41 45.68C105.02 47.07 105.65 48.46 106.21 49.86C106.6 50.97 107.02 52.05 107.45 53.13L108.46 56.47C108.62 56.96 108.75 57.45 108.83 57.96C109.17 59.86 109.11 60.49 108.56 60.96C108.44 61.07 108.32 61.2 108.19 61.27C107.75 61.5 107.24 60.79 106.9 59.49C106.46 57.54 105.78 55.6 105.21 53.63C104.84 52.67 104.49 51.69 104.14 50.71C103.78 49.73 103.3 48.8 102.9 47.84L102.43 46.78L101.88 45.75L100.78 43.69C100.39 43.02 99.94 42.38 99.53 41.72C99.1 41.07 98.71 40.39 98.21 39.79L98.25 39.75L98.23 39.76Z" fill="#231F20"/>
<path d="M96.61 9.68C96.66 9.83 95.17 10.9 96.45 11.86C97.73 12.82 96.42 14.67 95.12 13.39C93.82 12.11 92.81 10.89 94.35 9.96C95.89 9.02 96.61 9.68 96.61 9.68Z" fill="#231F20"/>
<path d="M93.58 13.64C93.16 13.25 92.84 12.71 92.72 12.11C92.59 11.52 92.67 10.9 92.9 10.37C93.06 9.99 93.28 9.62 93.59 9.37C94.09 8.97 94.56 8.73 95.11 8.51C95.65 8.31 96.25 8.19 96.85 8.24C97.38 8.3 97.89 8.46 98.33 8.71C98.9 9.02 99.3 9.54 99.52 10.09C99.59 10.26 99.45 10.33 99.21 10.34C98.97 10.35 98.6 10.34 98.32 10.25C97.33 9.92 96.96 9.79 96.06 9.91C95.8 9.95 95.54 10.08 95.31 10.26C95.19 10.35 95.08 10.44 94.98 10.54C94.89 10.64 94.82 10.7 94.76 10.78C94.48 11.11 94.35 11.57 94.58 12.01C94.72 12.27 94.99 12.52 95.33 12.67C95.45 12.74 95.6 12.77 95.74 12.82C95.87 12.86 95.99 12.87 96.13 12.88C96.4 12.88 96.69 12.82 96.95 12.68C97.37 12.47 97.6 12.06 97.8 11.73C97.84 11.65 97.88 11.57 97.91 11.5C98.09 11.23 98.24 11.16 98.56 11.1L98.76 11.06C98.95 11.03 99.21 11.24 99.26 11.7C99.32 12.38 99.03 13.09 98.53 13.57C98.04 14.06 97.4 14.42 96.66 14.56C96.39 14.61 96.09 14.63 95.79 14.61C95.46 14.58 95.21 14.51 94.97 14.44C94.48 14.28 93.97 14.03 93.53 13.64L93.56 13.61L93.58 13.64Z" fill="#231F20"/>
<path d="M107.38 18.89C107.6 19.05 107.76 19.26 107.83 19.52C108.03 20.26 107.3 20.97 106.55 21.13C106.1 21.23 105.61 21.19 105.21 20.95C104.37 20.44 104.38 19.1 105.28 18.66C105.67 18.47 106.14 18.46 106.56 18.55C106.85 18.61 107.14 18.72 107.37 18.9L107.38 18.89Z" fill="#231F20"/>
<path d="M26.62 20.34C26.43 20.03 26.33 19.68 26.38 19.32C26.51 18.29 27.77 17.79 28.78 17.97C29.39 18.08 29.98 18.38 30.35 18.88C31.13 19.95 30.45 21.61 29.11 21.71C28.53 21.75 27.95 21.52 27.46 21.19C27.14 20.97 26.83 20.68 26.63 20.34H26.62Z" fill="#231F20"/>
</svg>
