<svg width="128" height="128" viewBox="0 0 128 128" fill="none" xmlns="http://www.w3.org/2000/svg">
<path d="M8.70028 106.05C8.21124 106.64 7.63851 107.156 7.00028 107.58C6.32548 108.086 5.72907 108.69 5.23028 109.37C4.91028 109.81 5.51028 110.01 5.84028 110.02C6.12364 110.035 6.40676 109.987 6.66948 109.88C6.93221 109.772 7.16807 109.609 7.36028 109.4C8.36028 108.09 9.81028 107.4 10.8003 106.08C11.1403 105.65 10.5203 105.45 10.1903 105.44C9.90822 105.429 9.62695 105.477 9.36497 105.582C9.103 105.687 8.86624 105.847 8.67028 106.05H8.70028Z" fill="#231F20"/>
<path d="M12.4204 85.21C11.3104 86.64 9.91038 87.81 8.69038 89.15C8.33038 89.54 9.00038 89.61 9.26038 89.6C9.82856 89.5886 10.3743 89.376 10.8004 89C12.0204 87.66 13.4304 86.49 14.5304 85.06C14.8504 84.65 14.2604 84.59 13.9704 84.6C13.4006 84.5999 12.8501 84.8059 12.4204 85.18V85.21Z" fill="#231F20"/>
<path d="M10.8301 96.37C9.94574 97.3267 9.00043 98.2252 8.00008 99.0599C7.65008 99.3799 8.31008 99.46 8.50008 99.46C8.9817 99.4556 9.44872 99.2941 9.83008 99C10.8397 98.1686 11.7918 97.2699 12.6801 96.3099C12.9801 95.9699 12.4201 95.91 12.1801 95.92C11.6836 95.9133 11.2024 96.0915 10.8301 96.42V96.37Z" fill="#231F20"/>
<path d="M94.55 13.64C94.5788 13.4431 94.6497 13.2548 94.7581 13.0879C94.8664 12.9211 95.0095 12.7796 95.1776 12.6732C95.3458 12.5668 95.5349 12.4981 95.7321 12.4716C95.9292 12.4452 96.1298 12.4616 96.32 12.52C100 13.9 93.34 18.32 94.55 13.64Z" stroke="#231F20" stroke-width="1.25" stroke-miterlimit="10"/>
<path d="M99.1404 27.43C99.1683 27.2533 99.2339 27.0847 99.3326 26.9356C99.4313 26.7864 99.5609 26.6602 99.7125 26.5654C99.8642 26.4706 100.034 26.4094 100.212 26.3861C100.389 26.3627 100.569 26.3777 100.74 26.43C104.09 27.66 98.0504 31.66 99.1404 27.43Z" stroke="#231F20" stroke-width="1.1" stroke-miterlimit="10"/>
<path d="M49.78 17.9399C49.8095 17.764 49.876 17.5964 49.9751 17.4481C50.0742 17.2998 50.2037 17.1742 50.3549 17.0797C50.5062 16.9852 50.6757 16.9238 50.8525 16.8997C51.0292 16.8756 51.209 16.8893 51.38 16.9399C54.73 18.1699 48.69 22.1699 49.78 17.9399Z" stroke="#231F20" stroke-width="1.1" stroke-miterlimit="10"/>
<path d="M76.6002 34C76.6293 33.803 76.7003 33.6146 76.8085 33.4474C76.9167 33.2803 77.0595 33.1383 77.2274 33.0311C77.3952 32.924 77.5841 32.8542 77.7813 32.8264C77.9785 32.7986 78.1793 32.8134 78.3702 32.87C82.0802 34.21 75.3902 38.64 76.6002 34Z" fill="#231F20"/>
<path d="M76 115.87C70.22 116.18 64.43 116.29 58.65 116.24C56.54 116.24 54.43 116.24 52.32 116.14C44.89 115.87 37.47 115.31 30.1 114.42C26.82 114.06 23.53 113.59 20.31 113.06C16.16 112.37 12.01 111.59 7.92998 110.59C5.38998 109.97 8.81998 109.81 13.56 110.72C17.76 111.53 21.96 112.26 26.19 112.83C30.42 113.4 34.7 113.83 38.99 114.21C44.12 114.67 49.49 114.84 54.76 114.93C60.56 115.04 66.36 114.93 72.16 114.72C75.72 114.58 79.29 114.33 82.84 114.03C88.22 113.53 93.62 112.85 98.84 111.84L99.78 111.66H99.84C100.711 111.468 101.537 111.108 102.27 110.6C103.072 110.113 103.846 109.582 104.59 109.01C106.1 107.89 107.59 106.68 108.98 105.43C109.66 104.84 110.3 104.23 110.98 103.62C113.46 101.34 114.24 100.62 114.98 100.37C115.151 100.3 115.329 100.247 115.51 100.21C115.96 100.21 115.23 101.41 113.45 103.21C111.549 105.126 109.546 106.939 107.45 108.64C106.38 109.51 105.27 110.35 104.09 111.14C103.51 111.53 102.89 111.91 102.24 112.26C101.919 112.445 101.585 112.606 101.24 112.74C100.829 112.916 100.394 113.03 99.95 113.08H100.08C97.9 113.49 95.68 113.9 93.45 114.21C87.67 115.07 81.83 115.6 76 115.95V115.87Z" fill="#231F20"/>
<path d="M71.6702 54.13C65.5802 53.75 59.6002 52.91 53.6702 51.99C51.4902 51.65 49.3102 51.34 47.1502 50.99C43.3302 50.31 39.5202 49.57 35.7302 48.82L35.2202 48.72C35.1402 48.72 35.0202 48.64 34.9702 48.72L34.2702 49.55L32.3902 51.77L28.6002 56.17L21.8102 64C20.3702 65.65 18.8902 67.28 17.3602 68.87C16.5802 69.66 15.8002 70.44 14.9702 71.18C14.1489 71.9468 13.2431 72.6177 12.2702 73.18C11.5702 73.53 11.2002 73.54 11.1902 73.41C11.1802 73.28 11.4302 72.94 11.7802 72.5C12.8234 70.8972 14.0081 69.3912 15.3202 68C21.3202 61.5 27.1802 54.75 33.0802 48L33.4802 47.52C33.5802 47.41 33.6702 47.29 33.7702 47.19L34.0902 46.96L34.2502 46.84C34.2502 46.84 34.3402 47.06 34.2502 46.95H34.3302H34.4202C34.5444 46.9128 34.6716 46.886 34.8002 46.87C35.0755 46.8848 35.3495 46.9182 35.6202 46.97L37.6202 47.36L41.6702 48.1L49.8502 49.47C55.8502 50.47 61.8002 51.33 67.8502 51.88C71.5573 52.2142 75.2836 52.281 79.0002 52.08C84.6302 51.88 90.2902 51.55 95.8602 50.97C100.2 50.55 104.41 49.87 108.7 49.36C109.64 49.24 110.57 49.12 111.53 49.02C112.794 48.8701 114.07 48.8366 115.34 48.92C115.945 48.9713 116.529 49.1594 117.05 49.47C117.223 49.5615 117.387 49.6686 117.54 49.79C117.7 49.96 117.41 50.1 116.78 50.25C115.835 50.4814 114.877 50.6517 113.91 50.76C110.13 51.23 106.23 51.92 102.23 52.38C98.2302 52.84 94.1702 53.28 90.0902 53.6C87.0902 53.84 84.0102 54 80.9602 54.14C79.4302 54.14 77.9602 54.26 76.3702 54.28C74.7802 54.3 73.2602 54.28 71.7202 54.18L71.6702 54.13Z" fill="#231F20"/>
<path d="M64.0001 84.6699C59.4601 84.6699 54.9301 84.5099 50.4101 84.1699C48.7601 84.0199 47.1001 84.0299 45.4101 83.8099C39.6047 83.2062 33.8478 82.2039 28.1801 80.8099C25.6801 80.1699 23.1801 79.4999 20.7201 78.9499C17.5655 78.2886 14.3775 77.7979 11.1701 77.4799C10.1701 77.3799 10.2901 76.9099 11.1701 76.4799C12.5781 75.8287 14.1408 75.5862 15.6801 75.7799C19.0592 76.2731 22.4005 76.9981 25.6801 77.9499C27.3001 78.3799 28.8901 78.8299 30.5001 79.1999L35.3601 80.3199C37.3601 80.6899 39.3601 80.9899 41.3601 81.2499L47.5001 81.8099C51.9901 82.1299 56.5001 82.3799 61.0101 82.3799C63.7901 82.3799 66.5701 82.3799 69.3501 82.2899C73.5601 82.1099 77.7901 81.9299 81.9501 81.4699C85.1801 81.1499 88.3301 80.5799 91.5001 80.1099C92.2001 79.9999 92.8701 79.8699 93.5801 79.7699C96.1801 79.3499 97.0501 79.4699 97.6901 79.8999C97.8458 79.9874 97.9961 80.0842 98.1401 80.1899C98.5001 80.5399 97.4401 81.1899 95.5601 81.6599C92.6716 82.3709 89.7475 82.9283 86.8001 83.3299C83.8001 83.7299 80.8001 84.0299 77.6901 84.2399C73.1501 84.5999 68.5601 84.6999 63.9901 84.7799L64.0001 84.6699Z" fill="#231F20"/>
<path d="M112.66 68.9999C111.8 70.0799 110.92 71.1499 110 72.1999C109.66 72.5799 109.37 73.0099 109 73.3699C107.733 74.6478 106.398 75.8562 105 76.9899C104.39 77.5099 103.84 77.9899 103.22 78.5699C102.732 78.9081 102.181 79.146 101.6 79.2699L100.33 79.5799C100.17 79.5799 99.8202 79.3599 99.8402 78.8199C99.8927 78.5119 100.029 78.2241 100.233 77.9879C100.438 77.7517 100.703 77.576 101 77.4799C101.372 77.3735 101.734 77.2329 102.08 77.0599L102.16 77.1799L102.24 77.2899L101.98 76.9899L102.12 76.8599L102.4 76.5999L102.97 76.1199C103.74 75.4899 104.51 74.8599 105.31 74.2499C106.228 73.4473 107.071 72.5637 107.83 71.6099C108.71 70.6099 109.56 69.5399 110.4 68.4599L111.91 66.4599C112.68 65.4599 113.48 64.4599 114.19 63.3699C114.75 62.5599 115.19 61.6799 115.74 60.8699C115.86 60.6999 115.97 60.5099 116.1 60.3399C116.61 59.7099 116.93 59.6299 117.3 59.6799C117.383 59.6695 117.467 59.6695 117.55 59.6799C117.79 59.7499 117.79 60.1599 117.63 60.7599C116.96 62.457 116.091 64.0683 115.04 65.5599C114.29 66.7099 113.51 67.8499 112.66 68.9499V68.9999Z" fill="#231F20"/>
<path d="M78.3102 94.47C72.4002 95 66.4602 95.3 60.5302 95.38C58.3602 95.38 56.2002 95.47 54.0402 95.38C50.2202 95.31 46.4102 95.08 42.6102 94.78C38.8102 94.48 35.0002 94 31.2602 93.54C27.9202 93.12 24.5502 92.71 21.2602 92.23C19.1302 91.92 16.9902 91.59 14.8702 91.17C12.7478 90.7473 10.6537 90.1929 8.60019 89.51C7.32019 89.09 7.60019 88.85 8.76019 88.79C10.6709 88.7341 12.5827 88.858 14.4702 89.16C18.7402 89.97 23.0502 90.57 27.3902 91.16C31.7302 91.75 36.0902 92.31 40.4502 92.79C45.7977 93.3008 51.1687 93.5245 56.5402 93.46C62.4602 93.46 68.3769 93.2233 74.2902 92.75C77.9302 92.48 81.5602 92.08 85.1802 91.63C87.9202 91.28 90.6602 90.91 93.4002 90.48L97.4802 89.8L99.4802 89.43L100.48 89.24L100.99 89.14H101.24H101.39C102.31 88.6304 103.183 88.0415 104 87.38C104.81 86.74 105.61 86.07 106.37 85.38C107.91 83.97 109.37 82.49 110.8 80.95C111.42 80.28 112.01 79.6 112.63 78.9C114.9 76.31 115.63 75.49 116.42 75.16C116.591 75.0725 116.768 74.9989 116.95 74.94C117.41 74.85 116.83 76.21 115.3 78.29C112.959 81.4488 110.338 84.3906 107.47 87.08C105.936 88.528 104.226 89.7778 102.38 90.8L102.07 90.96L101.72 91.03L101.34 91.1L100.6 91.25L99.1302 91.54C98.1302 91.74 97.1302 91.92 96.1302 92.1C90.2502 93.17 84.3002 93.99 78.3302 94.54L78.3102 94.47Z" fill="#231F20"/>
<path d="M113.27 93.5999C112.62 94.1799 111.97 94.7499 111.27 95.3099C111.03 95.5199 110.82 95.7599 110.58 95.9599C109.71 96.6599 108.8 97.3199 107.9 97.9599C107.5 98.2499 107.11 98.5699 106.73 98.8799H106.67C106.488 99.0222 106.276 99.1213 106.05 99.1699C105.86 99.1699 105.7 99.2299 105.54 99.2499C105.287 99.2715 105.033 99.2715 104.78 99.2499C104.68 99.1668 104.602 99.0603 104.554 98.94C104.505 98.8196 104.486 98.6891 104.5 98.5599C104.546 98.3522 104.645 98.1604 104.79 98.004C104.934 97.8476 105.117 97.7323 105.32 97.6699C105.448 97.6504 105.575 97.6237 105.7 97.5899C105.79 97.5899 105.7 97.5899 105.76 97.5899C106.43 97.0699 107.22 96.5299 108.01 96.0299C108.637 95.5799 109.226 95.0782 109.77 94.5299C110.4 93.9599 111.04 93.3899 111.66 92.8099C112.05 92.4499 112.43 92.0799 112.8 91.7099C113.36 91.1399 113.94 90.5799 114.45 89.9799C114.829 89.4976 115.18 88.9934 115.5 88.4699C115.58 88.3599 115.64 88.2399 115.72 88.1299C115.759 88.0495 115.815 87.9784 115.884 87.9216C115.953 87.8648 116.033 87.8236 116.12 87.8008C116.206 87.778 116.297 87.7741 116.385 87.7895C116.473 87.8049 116.556 87.8392 116.63 87.8899L116.88 87.9999C117.007 88.0985 117.096 88.2378 117.133 88.3944C117.169 88.551 117.15 88.7154 117.08 88.8599C116.561 89.9026 115.887 90.8603 115.08 91.6999C114.51 92.3499 113.87 92.9499 113.25 93.5599L113.27 93.5999Z" fill="#231F20"/>
<path d="M65.3902 105.94C60.4235 106.22 55.4469 106.357 50.4602 106.35C48.6402 106.35 46.8302 106.35 45.0102 106.35C43.4102 106.35 41.8102 106.23 40.2102 106.14C38.6102 106.05 37.0102 105.93 35.4202 105.79C32.2202 105.52 29.0402 105.07 25.8902 104.69C23.0902 104.34 20.2602 104.1 17.4502 103.76C13.8072 103.421 10.2275 102.587 6.81022 101.28C5.75022 100.86 6.04022 100.52 7.07022 100.41C8.67578 100.331 10.2845 100.476 11.8502 100.84C15.3502 101.59 18.9502 102 22.6202 102.42C26.2902 102.84 29.9702 103.36 33.6202 103.83C38.106 104.279 42.612 104.496 47.1202 104.48C52.0869 104.52 57.0635 104.42 62.0502 104.18C65.1102 104.02 68.1702 103.83 71.2302 103.58C75.8502 103.19 80.5002 102.77 85.0702 102.16C88.6302 101.69 92.0702 101.07 95.5802 100.45L97.8702 100.03C100.75 99.5299 101.69 99.5899 102.39 99.9699C102.555 100.037 102.713 100.12 102.86 100.22C103.02 100.37 102.86 100.56 102.33 100.8C101.578 101.144 100.79 101.402 99.9802 101.57C93.5193 102.956 86.9904 104.005 80.4202 104.71C75.4202 105.31 70.4202 105.71 65.4202 106.01L65.3902 105.94Z" fill="#231F20"/>
<path d="M50.0001 98.8999C47.0001 98.7799 43.9101 98.6099 40.8801 98.3699C39.7701 98.2799 38.6601 98.2199 37.5601 98.1099C33.6501 97.7199 29.8001 97.1099 25.9301 96.6499L20.7701 96.0799C18.5485 95.8966 16.3508 95.4912 14.2101 94.8699C12.8901 94.4499 14.8601 93.8099 17.3101 94.1699C21.6901 94.8399 26.1901 95.2399 30.6901 95.9399C33.3801 96.3699 36.1701 96.6199 38.9301 96.8399C41.9301 97.0899 45.0101 97.2799 48.0501 97.3999C49.9201 97.4799 51.8001 97.5299 53.6801 97.5399C56.5201 97.5399 59.3701 97.5399 62.1901 97.4499C64.3801 97.3599 66.5201 97.1599 68.6801 96.9599L70.1001 96.8199C71.8701 96.6599 72.4501 96.8199 72.8601 97.0899C72.9591 97.1474 73.0499 97.2181 73.1301 97.2999C73.32 97.5199 72.6201 97.8599 71.3201 98.0699C67.3087 98.6168 63.268 98.9207 59.2201 98.9799C56.1601 99.0599 53.0701 98.9799 50.0001 98.9799V98.8999Z" fill="#231F20"/>
<path d="M76.0702 114C70.1202 114.38 64.1702 114.57 58.2102 114.63C56.0402 114.63 53.8602 114.7 51.6902 114.63C44.0402 114.47 36.3802 114.08 28.7702 113.21C25.3902 112.81 22.0302 112.41 18.6802 112.12C14.3447 111.824 10.0366 111.213 5.79016 110.29C4.47016 109.97 4.72016 109.71 5.90016 109.64C7.81214 109.584 9.72547 109.687 11.6202 109.95C15.9602 110.51 20.3502 110.81 24.7602 111.32C29.1702 111.83 33.5102 112.32 37.9402 112.61C43.2302 113 48.7502 113.04 54.1802 113.03C60.1802 113.03 66.1468 112.863 72.0802 112.53C75.7502 112.33 79.4202 112.05 83.0802 111.7C88.6202 111.16 94.1702 110.48 99.5902 109.46L101.49 109.09H101.57C102.367 108.9 103.12 108.561 103.79 108.09C104.538 107.62 105.263 107.113 105.96 106.57C107.37 105.49 108.72 104.33 110.06 103.14L112.06 101.25C114.59 98.88 115.4 98.15 116.29 97.96C116.482 97.9009 116.68 97.8607 116.88 97.84C117.4 97.84 116.69 99.17 114.88 101.04C113.055 102.943 111.126 104.742 109.1 106.43C108.1 107.29 107 108.13 105.84 108.91C105.25 109.312 104.636 109.676 104 110C103.679 110.187 103.345 110.351 103 110.49C102.568 110.664 102.114 110.779 101.65 110.83H101.82L97.9602 111.54L94.0502 112.15C88.0502 113.02 82.0502 113.59 76.0502 114H76.0702Z" fill="#231F20"/>
<path d="M50.7402 88.4799C50.6402 90.4399 50.5569 92.4033 50.4902 94.3699C50.4902 95.0899 50.4902 95.8099 50.4902 96.5299L50.0702 104.14C50.0002 105.26 50.0002 106.4 49.9702 107.52C50.0392 108.988 49.8841 110.458 49.5102 111.88C49.3602 112.34 48.9802 112.17 48.6302 111.73C48.434 111.481 48.2756 111.205 48.1602 110.91C48.0064 110.564 47.928 110.189 47.9302 109.81C48.0202 106.96 48.0802 104.04 48.3402 101.1C48.5002 99.3499 48.3402 97.5099 48.4102 95.7099L48.5702 89.7099L48.7202 86.0299C48.7202 85.0999 48.8202 84.1699 48.9202 83.2099C49.0075 82.6837 49.1762 82.1743 49.4202 81.6999C49.6202 81.2599 49.8402 80.8299 50.0602 80.4199C50.7302 79.1199 51.4102 77.8699 52.1602 76.6499C52.3302 76.3899 52.5002 76.1299 52.6902 75.8799C53.4002 74.9399 53.7902 74.7599 54.2802 74.8099C54.3902 74.8045 54.5003 74.8045 54.6102 74.8099C54.9102 74.8999 54.8902 75.4799 54.5402 76.2599C54.0502 77.4399 53.4502 78.5699 52.8502 79.6999C52.2502 80.8299 51.5902 81.9699 51.2002 82.9899C51.1539 83.1044 51.1139 83.2212 51.0802 83.3399L51.0002 84.0999L50.9002 85.5299C50.9002 86.5299 50.8102 87.5299 50.7802 88.5299L50.7402 88.4799Z" fill="#231F20"/>
<path d="M74.0003 86.9999C72.1403 87.0599 70.2903 87.0999 68.4303 87.1199C67.7603 87.1199 67.0803 87.1799 66.4303 87.1799C64.0503 87.1799 61.6703 87.1099 59.2803 87.0499C58.2303 87.0499 57.1603 87.0499 56.1203 87.0499C54.7842 87.0973 53.4466 87.0371 52.1203 86.8699C51.2903 86.7599 52.4003 85.7799 53.9403 85.7299C56.6703 85.7299 59.4003 85.8499 62.1603 85.9899C63.8103 86.0599 65.5303 85.9899 67.2203 85.9299C69.0803 85.9299 70.9303 85.8499 72.7903 85.7699L76.2203 85.6099C77.9503 85.4999 79.6903 85.3999 81.4003 85.2199C82.7303 85.0899 84.0203 84.8399 85.3303 84.6699L86.1903 84.5499C87.2703 84.4099 87.6303 84.5499 87.9003 84.7999C87.9657 84.8615 88.0259 84.9284 88.0803 84.9999C88.2103 85.2199 87.7903 85.4799 87.0103 85.6999C84.6023 86.2362 82.1538 86.5707 79.6903 86.6999C77.8303 86.8499 75.9503 86.9399 74.0803 87.0299L74.0003 86.9999Z" fill="#231F20"/>
<path d="M33.2703 85.14C31.7503 84.87 30.2103 84.53 28.7303 84.14C28.1903 83.99 27.6403 83.89 27.1003 83.73C25.2103 83.19 23.3303 82.6 21.4503 82.09C20.6103 81.86 19.7603 81.67 18.9203 81.51C17.8262 81.3598 16.7412 81.1495 15.6703 80.88C15.0003 80.71 16.0003 79.8 17.3103 79.88C19.5828 80.2589 21.8204 80.8241 24.0003 81.57C25.3003 82 26.6903 82.3 28.0003 82.65C29.3103 83 30.9503 83.4 32.4603 83.65C33.3803 83.81 34.3103 83.96 35.2403 84.08C36.6603 84.28 38.0903 84.47 39.5103 84.61C40.6103 84.73 41.7003 84.76 42.8003 84.92L43.5203 85.01C44.4303 85.17 44.6803 85.4 44.8003 85.73C44.8358 85.8067 44.8627 85.8872 44.8803 85.97C44.8803 86.21 44.5003 86.34 43.8803 86.34C41.9503 86.27 39.8803 86.06 37.8803 85.8C36.3603 85.62 34.8203 85.41 33.2803 85.16L33.2703 85.14Z" fill="#231F20"/>
<path d="M46.3 63.92C46.2565 62.8725 46.5059 61.8336 47.02 60.92C47.5736 59.9558 48.4753 59.2401 49.54 58.92C50.298 58.6775 51.1089 58.6533 51.88 58.85C52.2245 58.9577 52.5591 59.0949 52.88 59.26C53.1747 59.4401 53.4467 59.655 53.69 59.9C54.1381 60.3451 54.4978 60.871 54.75 61.45C55.1951 62.4823 55.5043 63.5681 55.67 64.68L56.17 67.45C56.38 68.62 56.64 69.75 56.82 70.85C56.88 71.19 56.53 71.31 56.07 71.14C55.7726 71.0204 55.5053 70.8365 55.2875 70.6013C55.0696 70.3662 54.9066 70.0857 54.81 69.78C54.469 68.5991 54.1919 67.4007 53.98 66.19C53.8284 65.0609 53.608 63.9422 53.32 62.84C53.1661 62.2542 52.8549 61.7216 52.42 61.3C52.0154 60.9574 51.5095 60.7571 50.98 60.73C50.362 60.7107 49.7592 60.924 49.2908 61.3276C48.8223 61.7312 48.5223 62.2959 48.45 62.91C48.3232 63.7927 48.4019 64.6927 48.68 65.54C49.1334 66.8707 50.0441 67.9975 51.25 68.72C52.2195 69.2608 53.2695 69.6424 54.36 69.85C54.59 69.91 54.84 69.93 55.08 69.99C55.97 70.18 56.22 70.38 56.32 70.99C56.32 71.13 56.32 71.26 56.38 71.39C56.38 71.82 55.93 72.11 55.18 72.07C52.748 71.9321 50.4395 70.9528 48.65 69.3C47.9337 68.5997 47.3539 67.7723 46.94 66.86C46.5588 65.9412 46.3389 64.9635 46.29 63.97L46.3 63.92Z" fill="#231F20"/>
<path d="M70.3901 66.1399C70.6676 65.7502 70.9246 65.3463 71.1601 64.9299L71.4701 64.2699L71.6201 63.9399L71.7001 63.6499L71.7901 63.3599C71.7901 63.2799 71.7901 63.2099 71.7901 63.1299C71.7901 63.0499 71.7901 62.8599 71.7901 62.7399C71.7027 62.5009 71.5274 62.3042 71.3001 62.1899C70.7089 61.941 70.0713 61.8217 69.4301 61.8399C68.7943 61.8104 68.1571 61.8506 67.5301 61.9599C67.2293 62.0155 66.9321 62.089 66.6401 62.1799C66.3551 62.2919 66.0807 62.4291 65.8201 62.5899C64.5933 63.2837 63.408 64.0483 62.2701 64.8799C61.2644 65.6137 60.3273 66.4371 59.4701 67.3399C58.9351 67.9053 58.4437 68.5104 58.0001 69.1499C57.5736 69.7253 57.2115 70.3457 56.9201 70.9999C56.7401 71.3799 56.2701 71.3199 55.9201 70.7499C55.7144 70.3446 55.6208 69.8917 55.6489 69.4381C55.6771 68.9845 55.8259 68.5467 56.0801 68.1699C58.1395 65.2908 60.8542 62.9429 64.0001 61.3199L65.3701 60.5499C65.9213 60.2677 66.5059 60.0561 67.1101 59.9199C68.2324 59.6509 69.3926 59.5765 70.5401 59.6999C71.2427 59.7716 71.9232 59.986 72.5401 60.3299C72.8867 60.5306 73.1976 60.7874 73.4601 61.0899C73.7181 61.4203 73.9023 61.8022 74.0001 62.2099C74.1686 62.9292 74.1305 63.6814 73.8901 64.3799C73.695 64.9713 73.4611 65.5492 73.1901 66.1099C72.4764 67.4363 71.5119 68.6114 70.3501 69.5699C68.582 70.9359 66.5327 71.8923 64.3501 72.3699C62.6994 72.8063 60.9974 73.0182 59.2901 72.9999C58.9101 72.9999 58.5401 72.9999 58.1501 72.9299C56.7201 72.6999 56.3201 72.2799 56.2801 71.5799C56.2652 71.4236 56.2652 71.2662 56.2801 71.1099C56.3601 70.6099 56.9901 70.3999 57.8501 70.4599C60.5148 70.6955 63.199 70.3544 65.7201 69.4599C67.563 68.8189 69.1836 67.6633 70.3901 66.1299V66.1399Z" fill="#231F20"/>
<path d="M55.2903 71.71C56.9439 73.9861 57.9057 76.6909 58.0603 79.5C58.1203 80.2 60.4503 79.72 60.3803 78.88C60.1895 75.9879 59.1726 73.2112 57.4503 70.88C56.9803 70.29 54.7503 71.09 55.2903 71.76V71.71Z" fill="#231F20"/>
<path d="M56.76 70.3199C53.45 68.4099 50.34 72.3199 48.3 74.3999C48.2019 74.5042 48.1321 74.6318 48.0972 74.7706C48.0622 74.9094 48.0634 75.0548 48.1004 75.193C48.1375 75.3313 48.2093 75.4578 48.3089 75.5605C48.4086 75.6632 48.5329 75.7387 48.67 75.7799C49.0106 75.8901 49.3757 75.8996 49.7216 75.8074C50.0675 75.7152 50.3794 75.5251 50.62 75.2599C51.28 74.5699 51.91 73.8399 52.62 73.1899C52.98 72.8699 54.17 71.6699 54.62 71.9499C54.931 72.1249 55.2868 72.204 55.6426 72.1773C55.9985 72.1506 56.3385 72.0193 56.62 71.7999C57.04 71.4599 57.37 70.6799 56.75 70.3199H56.76Z" fill="#231F20"/>
<path d="M64.8701 57.22C64.4501 57.72 64.0401 58.24 63.6401 58.78C63.4901 58.97 63.3901 59.2 63.2401 59.39C62.6901 60.07 62.1201 60.75 61.5701 61.39C61.3301 61.69 61.1301 62.02 60.9001 62.33C60.6639 62.7682 60.3602 63.1664 60.0001 63.51C59.8801 63.61 59.6801 63.45 59.5201 63.18C59.43 63.0521 59.3668 62.9074 59.3342 62.7544C59.3015 62.6015 59.3001 62.4435 59.3301 62.29C59.68 61.3575 60.2024 60.4991 60.8701 59.76C61.2383 59.2632 61.5724 58.742 61.8701 58.2C62.2401 57.64 62.6401 57.08 63.0501 56.52L63.8101 55.52C64.1901 55 64.6201 54.52 65.0101 54.01C65.4001 53.5 65.5201 53.16 65.7901 52.74C65.8455 52.6483 65.9127 52.5642 65.9901 52.49C66.0384 52.4271 66.0994 52.375 66.1691 52.337C66.2387 52.299 66.3155 52.276 66.3946 52.2694C66.4737 52.2628 66.5533 52.2728 66.6282 52.2988C66.7032 52.3247 66.772 52.366 66.8301 52.42L67.0701 52.56C67.191 52.6476 67.2812 52.7711 67.3279 52.913C67.3745 53.0548 67.3753 53.2077 67.3301 53.35C67.2459 53.7935 67.0797 54.2174 66.8401 54.6C66.6301 54.98 66.4001 55.34 66.1601 55.71C65.8201 56.25 65.3601 56.71 64.9901 57.26L64.8701 57.22Z" fill="#231F20"/>
<path d="M78.3 115.25C75.1 115.25 71.89 115.31 68.67 115.25C67.5 115.25 66.33 115.25 65.16 115.11C61.1179 114.736 57.0543 114.649 53 114.85C51.19 114.92 49.38 115.07 47.57 115.16C45.2131 115.398 42.8333 115.26 40.52 114.75C39.8 114.54 39.97 114.31 40.62 114.16C41.6044 113.934 42.61 113.814 43.62 113.8C45.91 113.8 48.23 113.45 50.62 113.23C53.01 113.01 55.37 113.03 57.8 113.06L62.19 113.12L66.59 113.29C69.77 113.41 72.96 113.4 76.16 113.29C78.16 113.23 80.13 113.147 82.07 113.04C85.07 112.87 88.07 112.79 91.01 112.53C93.26 112.273 95.4912 111.872 97.69 111.33L99.12 110.97C99.7696 110.782 100.444 110.691 101.12 110.7C101.502 110.749 101.856 110.929 102.12 111.21C102.239 111.3 102.352 111.397 102.46 111.5C102.59 111.65 102.46 111.83 102.21 112.17C101.824 112.587 101.323 112.879 100.77 113.01C96.6222 114.245 92.3268 114.914 88 115L78.35 115.34L78.3 115.25Z" fill="#231F20"/>
<path d="M114.32 101.42C114.32 101.42 124.85 99.22 122.78 102.22C119.37 107.16 107.46 115.61 84.5703 114.75L103.23 110.57L114.32 101.42Z" fill="#231F20"/>
</svg>
