<svg width="128" height="128" viewBox="0 0 128 128" fill="none" xmlns="http://www.w3.org/2000/svg">
<path d="M113.83 16.52C113.871 16.3841 113.939 16.2578 114.029 16.1483C114.12 16.0388 114.231 15.9483 114.356 15.8823C114.482 15.8162 114.62 15.7758 114.761 15.7634C114.902 15.751 115.045 15.7668 115.18 15.81C118 16.68 112.91 19.48 113.83 16.52Z" stroke="#231F20" stroke-miterlimit="10"/>
<path d="M77.4 57.09C77.4852 56.817 77.6751 56.589 77.9282 56.4559C78.1813 56.3228 78.4768 56.2955 78.75 56.38C81.57 57.25 76.48 60.05 77.4 57.09Z" stroke="#231F20" stroke-miterlimit="10"/>
<path d="M21.0002 42.23C21.0856 41.9567 21.275 41.728 21.5276 41.5933C21.7802 41.4586 22.0757 41.4287 22.3502 41.51C25.1202 42.39 20.0002 45.18 21.0002 42.23Z" stroke="#231F20" stroke-miterlimit="10"/>
<path d="M52.5702 66.76C56.2298 65.7504 60.0513 65.465 63.8202 65.92L69.2102 66.41C70.94 66.5269 72.6768 66.4901 74.4002 66.3C77.0002 66.09 79.6002 65.75 82.2002 65.46L89.0902 64.64C90.2502 64.5 91.3402 64.33 92.5802 64.21C93.7946 64.105 95.0158 64.105 96.2302 64.21C98.783 64.2982 101.239 65.2103 103.23 66.81C103.733 67.2522 104.173 67.7601 104.54 68.32C104.771 68.6643 104.922 69.0552 104.985 69.4648C105.047 69.8745 105.018 70.2928 104.9 70.69C104.633 71.3973 104.15 72.0025 103.52 72.42C102.996 72.7817 102.436 73.0899 101.85 73.34C99.8703 74.1054 97.8158 74.6618 95.7202 75C93.7202 75.4 91.6002 75.66 89.5802 75.9C84.3902 76.52 79.2402 77.35 74.8002 79.9C73.4602 80.74 73.4202 80.43 74.3302 79.29C75.9395 77.4217 78.0708 76.0774 80.4502 75.43C85.8602 73.89 91.3002 73.91 96.3602 72.79C97.6141 72.5382 98.8501 72.2041 100.06 71.79C100.626 71.5959 101.172 71.3481 101.69 71.05C102.088 70.8398 102.431 70.5382 102.69 70.17C102.82 69.93 102.79 69.94 102.69 69.59C102.58 69.3845 102.446 69.1931 102.29 69.02C102.125 68.8043 101.937 68.6066 101.73 68.43C100.86 67.6783 99.8361 67.1255 98.7302 66.81C97.2706 66.3988 95.7554 66.22 94.2402 66.28C93.4603 66.3015 92.6823 66.3683 91.9102 66.48L89.4402 66.83C86.1502 67.3 82.8502 67.75 79.5502 68.11C77.7402 68.31 75.9302 68.5 74.1002 68.64C73.1802 68.71 72.2702 68.78 71.3302 68.8C70.8602 68.8 70.3302 68.8 69.8602 68.8L68.4902 68.69C64.939 68.2408 61.3575 68.077 57.7802 68.2C55.6393 68.3601 53.5369 68.8562 51.5502 69.67C49.5331 70.5295 47.6371 71.649 45.9102 73C43.2802 75 40.7102 77.3 38.0802 79.43C35.4502 81.56 32.8002 83.7 30.0802 85.71C25.9355 88.8734 21.5934 91.7693 17.0802 94.38C16.0802 94.92 15.0802 95.5 14.0802 96.02C12.7226 96.6962 11.3111 97.2582 9.86019 97.7C9.18591 97.8995 8.48218 97.9807 7.78019 97.94C7.55557 97.9389 7.33144 97.9188 7.11019 97.88C6.86019 97.81 7.11019 97.54 7.75019 97.08C8.71284 96.4228 9.7147 95.8251 10.7502 95.29C19.1001 90.7981 26.9881 85.4959 34.3002 79.46C37.1002 77.19 39.8402 74.84 42.6602 72.46C45.5302 69.8846 48.8907 67.9152 52.5402 66.67L52.5702 66.76Z" fill="#231F20"/>
<path d="M69.3102 93.87C72.7802 93.71 76.2102 93.61 79.5902 93.27C81.2802 93.1 82.9602 92.88 84.5902 92.59C85.4134 92.4578 86.2281 92.2775 87.0302 92.05L88.1802 91.72C88.5702 91.62 88.9402 91.41 89.3202 91.27C91.5519 90.2807 93.6848 89.082 95.6902 87.69C99.3159 85.2251 102.761 82.5049 106 79.55C109.274 76.6041 112.373 73.4687 115.28 70.16C116.561 68.7347 117.721 67.2062 118.75 65.59C119.254 64.8344 119.635 64.0043 119.88 63.13C120.001 62.7313 120.062 62.3167 120.06 61.9C120.07 61.5911 120.001 61.2849 119.86 61.01C119.773 60.8933 119.644 60.8146 119.5 60.79C119.325 60.7541 119.145 60.7541 118.97 60.79C118.426 60.9178 117.899 61.1091 117.4 61.36C116.319 61.9102 115.274 62.528 114.27 63.21L111.22 65.33L109.7 66.41C109.19 66.77 108.64 67.08 108.13 67.41C106.83 68.28 106.8 67.94 107.52 66.73C108.677 64.7272 110.249 62.995 112.13 61.65C113.36 60.7869 114.654 60.018 116 59.35C116.743 58.9694 117.529 58.6774 118.34 58.48C118.586 58.4209 118.837 58.3841 119.09 58.37C119.425 58.3472 119.762 58.3708 120.09 58.44C120.448 58.5068 120.788 58.6463 121.09 58.85C121.367 59.0607 121.613 59.3098 121.82 59.59C122.222 60.261 122.436 61.0278 122.44 61.81C122.442 62.4115 122.361 63.0104 122.2 63.59C121.92 64.6165 121.485 65.5943 120.91 66.49C119.882 68.1365 118.732 69.7042 117.47 71.18C115.026 74.061 112.39 76.7738 109.58 79.3C104.94 83.48 100.07 87.83 94.5202 91.17C92.9751 92.0916 91.3602 92.8908 89.6902 93.56C88.8304 93.8876 87.9523 94.1647 87.0602 94.39C86.1802 94.58 85.3202 94.76 84.4502 94.9C80.9737 95.4459 77.4672 95.7799 73.9502 95.9C69.6602 96.11 65.3902 96.22 61.1702 96.7C59.6213 96.9506 58.1007 97.3525 56.6302 97.9C55.1202 98.4 53.6302 99.02 52.1302 99.63C49.1302 100.88 46.2502 102.28 43.3802 103.72C38.9302 105.99 34.7002 108.46 30.5302 111.06C29.6002 111.63 28.7302 112.22 27.8102 112.81C24.4202 114.99 23.3602 115.62 22.3402 115.73C22.1002 115.73 21.8302 115.84 21.6702 115.84C21.1402 115.91 22.0602 114.27 24.5102 112.46C28.205 109.769 32.066 107.314 36.0702 105.11C40.0702 102.84 44.3002 100.69 48.6002 98.71C51.8346 97.1914 55.1771 95.9146 58.6002 94.89C59.06 94.7576 59.5275 94.6541 60.0002 94.58C60.4592 94.4813 60.9232 94.4078 61.3902 94.36L64.0002 94.14C65.7702 94 67.5202 93.9 69.2702 93.81L69.3102 93.87Z" fill="#231F20"/>
<path d="M31.57 102.47C30.8821 102.14 30.2142 101.769 29.57 101.36C28.933 100.949 28.3249 100.494 27.75 100C27.3117 99.6548 26.8912 99.2877 26.49 98.9C25.2014 97.4544 24.185 95.7876 23.49 93.98C23.35 93.58 23.19 93.2 23.03 92.81C22.87 92.42 22.77 92.02 22.63 91.63C22.2438 90.6335 22.0307 89.5783 22 88.51C22 88.17 22.38 88.16 22.81 88.35C23.0631 88.4506 23.293 88.6018 23.4856 88.7944C23.6782 88.987 23.8294 89.2169 23.93 89.47C24.5658 91.317 25.3207 93.1208 26.19 94.87C26.4772 95.3867 26.812 95.8755 27.19 96.33C27.63 96.73 28.03 97.19 28.5 97.56C28.9673 98.0053 29.4689 98.4132 30 98.78C30.5449 99.149 31.1127 99.4831 31.7 99.78C32.4437 100.164 33.212 100.498 34 100.78C35.2042 101.235 36.4502 101.57 37.72 101.78C38.7158 101.893 39.718 101.939 40.72 101.92C40.94 101.92 41.15 101.92 41.37 101.92C42.19 101.98 42.43 102.18 42.56 102.8C42.56 102.95 42.63 103.09 42.65 103.23C42.65 103.7 42.32 104.07 41.65 104.18C39.7097 104.482 37.7289 104.401 35.82 103.94C34.3393 103.59 32.8959 103.098 31.51 102.47H31.57Z" fill="#231F20"/>
<path d="M15.6004 95.3201C17.1419 95.7122 18.5333 96.5505 19.6004 97.7301C20.5506 98.7255 21.3889 99.8221 22.1004 101C23.4504 103.15 24.5904 105.35 26.1004 106.63C26.5773 107.039 27.1474 107.324 27.7604 107.46L25.9704 109.46C25.7586 108.677 25.4775 107.914 25.1304 107.18C23.9387 104.838 22.5574 102.597 21.0004 100.48C20.3304 99.4801 19.4004 98.4801 18.5904 97.2101C18.1493 96.5522 17.812 95.8305 17.5904 95.0701C17.3221 94.1922 17.3502 93.2504 17.6704 92.3901L18.0004 91.5601L18.8104 91.6901C19.9408 91.8965 21.0044 92.3734 21.9104 93.0801C23.081 93.9961 24.1625 95.0207 25.1404 96.1401C26.1404 97.2201 27.0204 98.3001 27.9304 99.3601C29.0648 100.713 30.2733 102.001 31.5504 103.22C32.6641 104.387 34.0333 105.281 35.5504 105.83C36.3904 106 36.4804 106.66 35.3504 107.19C34.5783 107.466 33.7392 107.494 32.9504 107.27C31.9056 106.999 30.9395 106.485 30.1304 105.77C27.9686 103.719 25.963 101.51 24.1304 99.1601C23.2554 98.1072 22.3205 97.1055 21.3304 96.1601C20.5619 95.3466 19.5928 94.7499 18.5204 94.4301L20.2904 93.3501C20.1476 93.7166 20.1476 94.1235 20.2904 94.4901C20.5081 95.0884 20.8076 95.6538 21.1804 96.1701C21.7404 97.0101 22.5004 97.8601 23.1804 98.8901C23.8604 99.9201 24.4904 100.7 25.1804 101.64C26.6761 103.547 27.8577 105.68 28.6804 107.96L28.8904 108.68L29.4904 110.78L27.3204 110.39C25.8749 110.074 24.562 109.319 23.5604 108.23C22.6877 107.288 21.9137 106.259 21.2504 105.16C19.9504 103.16 18.8404 101.03 17.3104 99.6001C16.6285 98.94 15.7827 98.4739 14.8604 98.2501L16.1304 97.4001C16.0871 98.0997 16.2543 98.7963 16.6104 99.4001C17.0051 100.203 17.4702 100.969 18.0004 101.69C19.2304 103.37 20.6504 104.98 22.0804 106.58C22.8004 107.38 23.5304 108.18 24.2504 109.02C24.6004 109.44 24.9604 109.87 25.3104 110.36C25.5143 110.643 25.6854 110.948 25.8204 111.27C25.9574 111.617 25.9574 112.003 25.8204 112.35C25.6962 112.618 25.4894 112.839 25.2304 112.98C25.0615 113.042 24.8875 113.089 24.7104 113.12L25.3704 112.76C25.1949 112.968 24.9932 113.153 24.7704 113.31C24.5281 113.478 24.2514 113.591 23.9604 113.64C23.3092 113.737 22.6441 113.625 22.0604 113.32C21.5984 113.093 21.1596 112.822 20.7504 112.51C20.0005 111.941 19.289 111.323 18.6204 110.66C17.3104 109.38 16.1104 108.05 14.9304 106.72L13.3504 105C12.6943 104.286 12.0799 103.535 11.5104 102.75C11.2651 102.397 11.1551 101.968 11.2004 101.54C11.1967 101.491 11.1822 101.443 11.158 101.4C11.1338 101.356 11.1005 101.319 11.0604 101.29C10.9609 101.25 10.8567 101.224 10.7504 101.21C10.5604 101.21 10.4104 101.13 10.4604 100.85C10.4824 100.75 10.5261 100.656 10.5883 100.575C10.6505 100.494 10.7297 100.427 10.8204 100.38C11.0804 100.229 11.381 100.163 11.6804 100.19C12.7142 100.369 13.6637 100.873 14.3904 101.63C16.3904 103.46 18.0504 105.44 19.8204 107.3C20.647 108.197 21.5288 109.042 22.4604 109.83C22.7934 110.107 23.1596 110.343 23.5504 110.53H23.6004C23.6084 110.613 23.6084 110.697 23.6004 110.78C23.5844 110.9 23.5844 111.021 23.6004 111.14V111.31C23.5951 111.319 23.5924 111.33 23.5924 111.34C23.5924 111.351 23.5951 111.361 23.6004 111.37C23.6904 111.7 23.6004 111.21 23.1404 110.98L24.5804 111.23C24.5553 111.335 24.5553 111.445 24.5804 111.55C24.5976 111.606 24.6211 111.66 24.6504 111.71V111.79C24.6504 111.79 24.6504 111.84 24.7004 111.86C24.6521 111.842 24.5987 111.842 24.5504 111.86H24.2504C24.1177 111.871 23.9885 111.908 23.8704 111.97C23.788 112.011 23.7006 112.041 23.6104 112.06L23.3004 112.16L23.0004 112.29L22.8604 112.36C22.7682 112.205 22.668 112.055 22.5604 111.91C22.2404 111.49 21.8304 111.01 21.4204 110.54C19.8404 108.75 18.1204 106.92 16.5304 104.91C15.6875 103.872 14.9189 102.776 14.2304 101.63C13.8334 100.997 13.4985 100.327 13.2304 99.6301C12.8774 98.695 12.7977 97.6788 13.0004 96.7001L13.4304 94.7001L15.3004 95.1901L15.6004 95.2701V95.3201Z" fill="#231F20"/>
<path d="M32.55 46.08C32.5614 46.8071 32.6485 47.531 32.81 48.24C33.0028 48.934 33.2711 49.6046 33.61 50.24C34.2829 51.5654 35.2553 52.7158 36.45 53.6C36.8915 53.9206 37.3561 54.208 37.84 54.46C38.33 54.68 38.84 54.9 39.34 55.09C41.1662 55.7737 43.1594 55.8744 45.0452 55.3783C46.931 54.8823 48.6166 53.8138 49.87 52.32C51.0124 50.9695 51.7965 49.3532 52.15 47.62C52.5576 45.4262 52.3641 43.1629 51.59 41.07C51.37 40.43 51.85 40.23 52.59 40.6C53.1145 40.9212 53.5578 41.3589 53.8856 41.8792C54.2134 42.3995 54.4168 42.9884 54.48 43.6C54.8197 46.3273 54.269 49.0912 52.91 51.48C52.2427 52.6656 51.3807 53.7305 50.36 54.63C49.3446 55.5454 48.1726 56.2703 46.9 56.77C45.3584 57.339 43.7228 57.6104 42.08 57.57C40.4377 57.509 38.825 57.1143 37.34 56.41C35.7376 55.6176 34.3149 54.5046 33.16 53.14C32.0453 51.7462 31.2499 50.1247 30.83 48.39C30.3333 46.2717 30.4478 44.0559 31.16 42C31.7115 40.4714 32.5588 39.0663 33.6536 37.8652C34.7483 36.6642 36.0689 35.6905 37.54 35C39.7985 33.8452 42.3721 33.4589 44.87 33.9C45.4184 34.0013 45.9595 34.1383 46.49 34.31C47.2005 34.5391 47.857 34.91 48.42 35.4C48.5663 35.5246 48.6859 35.6773 48.7718 35.8492C48.8577 36.021 48.9081 36.2083 48.92 36.4C48.9397 36.5494 48.9397 36.7007 48.92 36.85C48.81 37.29 47.98 37.11 46.82 36.57C45.0432 35.8232 43.0904 35.5978 41.19 35.92C39.267 36.2419 37.4707 37.0899 36 38.37C35.4531 38.8652 34.9542 39.411 34.51 40C34.0858 40.5929 33.7207 41.2259 33.42 41.89C32.8044 43.2116 32.5228 44.6642 32.6 46.12L32.55 46.08Z" fill="#231F20"/>
<path d="M92.6304 43.72C94.9438 43.5072 97.1734 42.7468 99.1348 41.5018C101.096 40.2568 102.733 38.5629 103.91 36.56C104.786 35.088 105.427 33.4889 105.81 31.82C106.553 28.8804 106.407 25.7865 105.39 22.93C104.311 20.0645 102.377 17.6 99.8504 15.87C97.5879 14.303 94.9743 13.3173 92.2404 13C88.775 12.6478 85.2817 13.3041 82.1804 14.89C81.1804 15.37 80.9804 14.83 81.5404 13.83C82.0333 13.0761 82.6721 12.4284 83.4192 11.9252C84.1663 11.422 85.0065 11.0734 85.8904 10.9C89.8797 10.0107 94.0493 10.4316 97.7804 12.1C101.547 13.7044 104.642 16.5629 106.54 20.19C107.641 22.3873 108.283 24.7855 108.427 27.2387C108.571 29.6919 108.215 32.1488 107.38 34.46C106.482 36.9905 105.016 39.2819 103.095 41.159C101.175 43.0361 98.8508 44.4491 96.3004 45.29C95.9109 45.4244 95.5135 45.5346 95.1104 45.62C94.7165 45.7255 94.3154 45.8024 93.9104 45.85L91.4904 46.14C90.6804 46.14 89.8704 46.14 89.0604 46.14C88.6531 46.1301 88.2478 46.0799 87.8504 45.99L86.6504 45.79C84.2288 45.2885 81.9457 44.2647 79.9604 42.79C77.9682 41.3535 76.3046 39.5093 75.0804 37.38C74.5943 36.5693 74.1762 35.7198 73.8304 34.84C73.5067 33.9518 73.2297 33.0472 73.0004 32.13C72.8504 31.21 72.6804 30.27 72.6104 29.33V27.91C72.5905 27.4348 72.6207 26.9589 72.7004 26.49C72.7936 25.6521 72.9372 24.8206 73.1304 24C73.3978 22.9326 73.8441 21.9183 74.4504 21C74.7272 20.5378 75.1544 20.1848 75.6604 20C75.8361 19.9231 76.0209 19.8694 76.2104 19.84C76.7604 19.84 76.4804 21.08 75.7704 22.97C74.758 25.8633 74.5915 28.9854 75.2904 31.97C75.9958 34.9682 77.5801 37.6877 79.8404 39.78C80.6785 40.5615 81.5969 41.252 82.5804 41.84L84.1204 42.6C84.6476 42.8273 85.1887 43.0211 85.7404 43.18L86.5604 43.45L87.4204 43.59C87.9856 43.7034 88.5564 43.7868 89.1304 43.84H90.8804C91.1694 43.8748 91.4615 43.8748 91.7504 43.84L92.6204 43.73L92.6304 43.72Z" fill="#231F20"/>
<path d="M92.8204 29.3C91.4304 29.07 89.6704 29.51 87.8204 29.65C87.0698 29.7347 86.3105 29.701 85.5704 29.55C85.3836 29.4972 85.2 29.4337 85.0204 29.36C84.8245 29.2743 84.637 29.1705 84.4604 29.05C84.0766 28.7709 83.7787 28.3898 83.6004 27.95C83.3615 27.1872 83.4187 26.3625 83.7604 25.64C84.2869 24.4984 85.0426 23.4772 85.9804 22.64C86.7583 21.8965 87.617 21.2424 88.5404 20.69C89.1629 20.3239 89.8372 20.0541 90.5404 19.89C91.2882 19.7014 92.0778 19.7719 92.7804 20.09C93.2304 20.31 92.9404 20.63 92.5204 20.91C92.0957 21.2445 91.6195 21.5079 91.1104 21.69C88.9436 22.4189 87.0658 23.8202 85.7504 25.69C85.5828 25.9024 85.46 26.1467 85.3896 26.4079C85.3191 26.6692 85.3024 26.9421 85.3404 27.21C85.3766 27.2889 85.4293 27.3591 85.4948 27.416C85.5603 27.4729 85.6372 27.5152 85.7204 27.54C86.0106 27.6431 86.3133 27.707 86.6204 27.73C88.1404 27.86 89.9304 27.36 91.8404 27.3C93.1151 27.1928 94.3832 27.5715 95.3904 28.36C95.7558 28.675 96.0726 29.0423 96.3304 29.45C96.5941 29.9227 96.7221 30.4591 96.7004 31C96.6657 31.5416 96.4629 32.059 96.1204 32.48C95.8361 32.859 95.4994 33.1957 95.1204 33.48C94.0203 34.252 92.8318 34.8898 91.5804 35.38C91.3104 35.49 91.0504 35.61 90.7804 35.7C89.7804 36.02 89.3904 35.95 89.0404 35.48C88.9516 35.3767 88.8714 35.2663 88.8004 35.15C88.5904 34.76 88.9304 34.32 89.6204 34L92.6204 32.61C93.0843 32.3959 93.5321 32.1486 93.9604 31.87C94.2694 31.6849 94.5353 31.4361 94.7404 31.14C94.7675 31.0892 94.7817 31.0325 94.7817 30.975C94.7817 30.9174 94.7675 30.8608 94.7404 30.81C94.6552 30.5619 94.5151 30.3363 94.3304 30.15C93.9388 29.6902 93.3821 29.4028 92.7804 29.35L92.8204 29.3Z" fill="#231F20"/>
<path d="M88.1803 21.61C88.2703 21.61 88.1803 21.72 87.9103 21.87C87.79 21.9427 87.6627 22.003 87.5303 22.05C87.4572 22.059 87.3833 22.059 87.3103 22.05C87.3103 22.05 87.0503 21.88 86.9603 21.83C86.8861 21.7848 86.8269 21.7187 86.7903 21.64C86.7203 21.48 86.6303 21.34 86.5503 21.19C86.5405 21.1506 86.5405 21.1094 86.5503 21.07C86.5594 21.0025 86.5543 20.9338 86.5353 20.8684C86.5164 20.803 86.484 20.7422 86.4403 20.69C86.4403 20.69 86.4403 20.69 86.3803 20.69C86.3203 20.69 86.1503 20.37 86.1603 20.32C86.1698 20.1902 86.1698 20.0598 86.1603 19.93C86.1603 19.93 86.1603 19.93 86.1603 19.86C86.1603 19.79 86.2203 19.76 86.1603 19.72C86.1458 19.6676 86.1458 19.6123 86.1603 19.56C86.1603 19.56 86.1603 19.48 86.2503 19.44C86.3145 19.3875 86.3897 19.3499 86.4703 19.33C86.5393 19.3088 86.6037 19.2748 86.6603 19.23H86.7303C86.8854 19.2474 87.0371 19.2878 87.1803 19.35C87.1803 19.35 87.4603 19.68 87.5003 19.71C87.5403 19.74 87.5003 19.76 87.5003 19.79C87.5003 19.82 87.7403 20.05 87.7403 20.06C87.7403 20.07 87.8303 20.16 87.7403 20.27C87.7994 20.372 87.8401 20.4838 87.8603 20.6C87.8767 20.6579 87.9038 20.7121 87.9403 20.76C87.9403 20.76 88.0303 21.03 88.1403 21.13C88.2503 21.23 88.1403 21.35 88.1403 21.38C88.1403 21.41 88.1403 21.61 88.1803 21.61Z" fill="#231F20"/>
<path d="M93.9404 35.61C94.0304 35.61 93.9404 35.71 93.6604 35.87C93.5413 35.9384 93.4177 35.9985 93.2904 36.05H93.0704C92.9482 35.9858 92.8312 35.9122 92.7204 35.83C92.6433 35.7837 92.5836 35.7135 92.5504 35.63L92.3104 35.18C92.303 35.1626 92.2991 35.1439 92.2991 35.125C92.2991 35.1061 92.303 35.0874 92.3104 35.07C92.3201 35.0025 92.3153 34.9336 92.2964 34.8681C92.2774 34.8026 92.2447 34.7419 92.2004 34.69C92.1913 34.6847 92.1809 34.6819 92.1704 34.6819C92.1599 34.6819 92.1495 34.6847 92.1404 34.69C92.0604 34.69 91.9104 34.37 91.9204 34.32C91.9304 34.27 91.9204 34.05 91.9204 33.92C91.9204 33.79 91.9204 33.92 91.9204 33.86C91.9204 33.8 91.9804 33.75 91.9704 33.72C91.9604 33.6671 91.9604 33.6128 91.9704 33.56C91.9989 33.5132 92.0325 33.4696 92.0704 33.43C92.1361 33.3796 92.2107 33.3423 92.2904 33.32C92.3504 33.32 92.4104 33.26 92.4804 33.23H92.5504C92.7064 33.2426 92.8588 33.2832 93.0004 33.35C93.0979 33.4778 93.2048 33.5982 93.3204 33.71C93.3204 33.71 93.3204 33.76 93.3204 33.79C93.3204 33.82 93.5604 34.04 93.5604 34.06C93.5604 34.08 93.6504 34.16 93.5604 34.27C93.6224 34.3707 93.6632 34.483 93.6804 34.6C93.6989 34.657 93.7259 34.7109 93.7604 34.76C93.7604 34.76 93.8404 35.03 93.9504 35.13C94.0604 35.23 93.9504 35.35 93.9504 35.37C93.9504 35.39 93.9004 35.6 93.9404 35.61Z" fill="#231F20"/>
<path d="M45.2101 46.76C43.8711 46.7186 42.5313 46.8091 41.2101 47.03C40.6091 47.1184 39.9978 47.1083 39.4001 47C39.0517 46.9226 38.7267 46.7634 38.452 46.5356C38.1773 46.3079 37.9607 46.018 37.8201 45.69C37.6259 45.0768 37.6688 44.4131 37.9401 43.83C38.3645 42.9177 38.974 42.1038 39.7301 41.44C40.3351 40.8455 41.0062 40.3221 41.7301 39.88C42.22 39.5829 42.753 39.3636 43.3101 39.23C43.9124 39.0868 44.5452 39.1466 45.1101 39.4C45.4701 39.58 45.2201 39.85 44.8801 40.09C44.5543 40.3669 44.1819 40.5837 43.7801 40.73C42.064 41.3318 40.5783 42.4539 39.5301 43.94C39.3978 44.1039 39.3003 44.2931 39.2435 44.496C39.1868 44.6989 39.172 44.9112 39.2001 45.12C39.2001 45.29 39.6201 45.47 40.2001 45.52C41.4101 45.62 42.8401 45.22 44.3601 45.18C45.3798 45.0972 46.3935 45.4006 47.2001 46.03C47.4928 46.2868 47.7486 46.583 47.9601 46.91C48.0554 47.0911 48.1389 47.2781 48.2101 47.47C48.27 47.6851 48.3036 47.9067 48.3101 48.13C48.2885 48.3513 48.2415 48.5694 48.1701 48.78C48.0753 48.9668 47.9684 49.1472 47.8501 49.32C47.7101 49.46 47.5901 49.62 47.4501 49.75L47.0201 50.1C46.1367 50.7138 45.1875 51.227 44.1901 51.63C43.9801 51.72 43.7701 51.81 43.5501 51.88C42.7301 52.14 42.4501 52.08 42.1601 51.68C42.0879 51.5966 42.0242 51.5061 41.9701 51.41C41.8001 51.09 42.0601 50.72 42.6101 50.46L45.0001 49.3C45.3653 49.1293 45.7194 48.9356 46.0601 48.72C46.3401 48.52 46.6301 48.28 46.6601 48.15C46.6901 48.02 46.6601 48.08 46.7201 48.05C46.7801 48.02 46.7201 47.99 46.7201 47.92C46.683 47.8484 46.6496 47.775 46.6201 47.7C46.5412 47.6076 46.4678 47.5108 46.4001 47.41C46.2502 47.2341 46.067 47.0897 45.8611 46.985C45.6551 46.8803 45.4305 46.8174 45.2001 46.8L45.2101 46.76Z" fill="#231F20"/>
<path d="M41.5403 40.58C41.6203 40.58 41.5403 40.67 41.3103 40.8C41.2145 40.8776 41.1106 40.9447 41.0003 41H40.8203C40.7201 40.9496 40.6232 40.8928 40.5303 40.83C40.4686 40.792 40.4198 40.7362 40.3903 40.67L40.2003 40.31C40.1949 40.2802 40.1949 40.2497 40.2003 40.22C40.2095 40.1672 40.2071 40.113 40.1933 40.0612C40.1795 40.0094 40.1546 39.9612 40.1203 39.92C40.1203 39.92 39.9303 39.67 39.9403 39.63C39.9501 39.5235 39.9501 39.4164 39.9403 39.31C39.9403 39.31 39.9403 39.31 39.9403 39.26C39.9403 39.21 39.9403 39.18 39.9403 39.15C39.9452 39.0952 39.966 39.043 40.0003 39C40.0206 38.962 40.0477 38.9281 40.0803 38.9C40.1336 38.8581 40.1948 38.8275 40.2603 38.81C40.3174 38.7915 40.3713 38.7645 40.4203 38.73H40.4803C40.6075 38.7409 40.7323 38.7713 40.8503 38.82C40.8503 38.82 41.0803 39.08 41.1103 39.1C41.1403 39.12 41.1103 39.1 41.1103 39.17L41.3103 39.38C41.3103 39.43 41.3803 39.47 41.3103 39.55C41.3565 39.6302 41.3871 39.7184 41.4003 39.81C41.4142 39.8528 41.4344 39.8932 41.4603 39.93C41.4603 39.93 41.5303 40.15 41.6203 40.23C41.7103 40.31 41.6203 40.4 41.6203 40.42C41.6203 40.44 41.5103 40.58 41.5403 40.58Z" fill="#231F20"/>
<path d="M46.1303 51.74C46.2003 51.74 46.1303 51.82 45.9003 51.95C45.8013 52.0084 45.6976 52.0585 45.5903 52.1H45.4003C45.3035 52.0492 45.21 51.9924 45.1203 51.93C45.0586 51.8919 45.0098 51.8362 44.9803 51.77L44.7903 51.42C44.7796 51.3875 44.7796 51.3524 44.7903 51.32C44.7988 51.2671 44.7961 51.2131 44.7823 51.1614C44.7686 51.1097 44.744 51.0615 44.7103 51.02C44.7103 51.02 44.7103 51.02 44.6603 51.02C44.6103 51.02 44.4703 50.77 44.4803 50.72C44.4903 50.67 44.4803 50.51 44.4803 50.41C44.4803 50.31 44.4803 50.41 44.4803 50.35C44.4803 50.29 44.4803 50.27 44.4803 50.24C44.4701 50.1972 44.4701 50.1527 44.4803 50.11C44.4803 50.11 44.4803 50.05 44.5603 50.01C44.6148 49.97 44.6757 49.9396 44.7403 49.92C44.7973 49.9014 44.8513 49.8745 44.9003 49.84H44.9603C45.0871 49.8533 45.2115 49.8836 45.3303 49.93C45.4107 50.0321 45.4976 50.1289 45.5903 50.22C45.5903 50.22 45.5903 50.22 45.5903 50.28C45.5903 50.34 45.7803 50.48 45.7803 50.49C45.7803 50.5 45.8603 50.58 45.7803 50.66C45.8221 50.7421 45.8524 50.8296 45.8703 50.92C45.8861 50.9651 45.9062 51.0086 45.9303 51.05C45.9903 51.15 46.0003 51.27 46.0903 51.35C46.1803 51.43 46.0903 51.53 46.0903 51.54C46.0903 51.55 46.1003 51.73 46.1303 51.74Z" fill="#231F20"/>
</svg>
