<svg width="128" height="128" viewBox="0 0 128 128" fill="none" xmlns="http://www.w3.org/2000/svg">
<path d="M83.4001 106.57C83.4001 106.57 79.0901 111.27 81.9801 110.57C83.0801 110.3 74.5701 112.64 72.6101 112.38C70.6501 112.12 83.4001 106.57 83.4001 106.57Z" fill="#231F20"/>
<path d="M112.99 96.87C112.99 96.87 108.88 102.05 110.32 104.06C111.28 105.41 107.55 103.89 107.55 103.89C107.55 103.89 108.36 99.01 110.22 98.07C112.08 97.13 112.99 96.86 112.99 96.86V96.87Z" fill="#231F20"/>
<path d="M109.09 98.72C109.57 98.18 110.08 97.67 110.63 97.22C110.83 97.06 111 96.86 111.2 96.71C111.95 96.18 112.72 95.73 113.48 95.29C113.82 95.11 114.14 94.88 114.47 94.68C114.89 94.43 115.27 94.08 115.82 94.07C115.99 94.07 116.05 94.25 116.05 94.53C116.05 94.81 116.03 95.24 115.8 95.37C115.04 95.92 114.31 96.45 113.51 96.95C113.03 97.24 112.67 97.72 112.29 98.14C111.86 98.6 111.44 99.06 111.03 99.53C110.79 99.83 110.54 100.13 110.34 100.46C110.02 100.95 109.72 101.46 109.52 102C109.36 102.42 109.4 102.89 109.34 103.31C109.34 103.4 109.34 103.5 109.29 103.59C109.16 103.92 108.98 104.01 108.55 104.03C108.45 104.03 108.36 104.05 108.26 104.05C107.95 104.05 107.7 103.86 107.56 103.52C107.1 102.49 107.46 101.47 107.82 100.54C108.16 99.87 108.59 99.26 109.05 98.69L109.09 98.72Z" fill="#231F20"/>
<path d="M102.73 96.87C102.73 96.87 100.05 101.43 100.87 103.38C101.69 105.33 97.6899 105.03 97.6899 105.03L101.49 96.87H102.73Z" fill="#231F20"/>
<path d="M99.6801 98.32C99.9901 97.9 100.3 97.48 100.63 97.08C100.98 96.7 101.31 96.3 101.66 95.93C101.93 95.67 102.15 95.37 102.42 95.11C103.41 94.24 104.44 93.44 105.56 92.8C106.07 92.53 106.56 92.23 107.08 91.99C107.41 91.83 107.75 91.68 108.1 91.57C108.47 91.5 108.84 91.44 109.22 91.47C109.45 91.48 109.41 91.51 109.24 91.62C109.15 91.68 109.04 91.76 108.91 91.86C108.78 91.98 108.64 92.13 108.49 92.24C108.22 92.47 107.92 92.62 107.64 92.83C107.37 93.05 107.08 93.23 106.82 93.46C106.56 93.69 106.27 93.88 106.01 94.11C105.73 94.32 105.42 94.48 105.14 94.69C104.44 95.16 103.86 95.84 103.3 96.48C102.98 96.83 102.67 97.18 102.39 97.56C102.09 97.92 101.81 98.31 101.56 98.7C101.21 99.17 100.95 99.69 100.66 100.19C100.27 100.98 99.9001 101.79 99.7201 102.65C99.5501 103.31 99.6201 104 99.6101 104.65C99.6101 104.8 99.6401 104.94 99.6301 105.08C99.6301 105.62 99.3601 105.77 98.9001 105.89C98.7901 105.92 98.6801 105.95 98.5801 105.97C98.2401 106.02 97.9301 105.78 97.7501 105.32C97.6701 104.98 97.6101 104.63 97.5601 104.28C97.5601 103.93 97.6001 103.58 97.6401 103.23C97.6901 102.51 97.9601 101.83 98.1601 101.14C98.3501 100.64 98.5901 100.16 98.8101 99.68L99.6101 98.3L99.6501 98.32H99.6801Z" fill="#231F20"/>
<path d="M89.8498 107.9C89.6698 107.39 90.0798 103.64 93.4498 98.76C95.7098 95.5 87.8598 104.86 87.7898 107.41C87.7198 109.96 89.8498 107.9 89.8498 107.9Z" fill="#231F20"/>
<path d="M89.5802 101.15C90.2002 100.29 90.8802 99.47 91.5802 98.69C91.8302 98.4 92.0802 98.11 92.3502 97.84C93.3102 96.89 94.3202 96 95.3402 95.15C95.7902 94.76 96.2402 94.38 96.6802 94C97.2502 93.52 97.8302 93.03 98.4902 92.65C98.6902 92.53 98.7602 92.67 98.7102 92.92C98.6602 93.17 98.5102 93.55 98.2102 93.86C97.6802 94.4 97.1602 94.95 96.6302 95.47C96.0802 95.98 95.5202 96.48 94.9602 96.99C94.2702 97.58 93.7102 98.34 93.1202 99.04C92.4802 99.82 91.8202 100.59 91.2402 101.42C90.8802 101.93 90.5302 102.44 90.2202 102.98C89.7302 103.79 89.3002 104.63 88.9602 105.5C88.7102 106.18 88.5702 106.88 88.4402 107.58C88.4102 107.73 88.3902 107.89 88.3602 108.04C88.2502 108.61 88.1002 108.76 87.7002 108.82C87.6102 108.83 87.5102 108.85 87.4302 108.86C87.1302 108.86 86.9402 108.58 86.9302 108.1C86.9502 106.71 87.2702 105.24 87.9302 103.94C88.4002 102.96 88.9702 102.03 89.5702 101.15L89.6002 101.17L89.5802 101.15Z" fill="#231F20"/>
<path d="M94.4298 107.79C91.3798 108.87 88.2798 109.98 85.1598 110.99C84.0098 111.34 82.8998 111.8 81.7298 112.1C77.6498 113.24 73.4798 114.12 69.2498 114.52L66.4198 114.72C65.4798 114.79 64.5298 114.75 63.5898 114.77C61.1998 114.71 58.6898 114.61 56.4998 113.44C55.8298 113.05 55.9198 113.15 56.5898 113.02C56.9198 112.97 57.4298 112.73 57.9698 112.7C58.5198 112.64 59.1398 112.56 59.7898 112.63C62.1198 112.78 64.4298 112.83 66.7798 112.69C67.9498 112.59 69.1298 112.56 70.2998 112.37C71.4798 112.22 72.6598 112.09 73.8298 111.87C76.6698 111.45 79.5098 110.45 82.3098 109.55C85.3898 108.54 88.4398 107.39 91.4998 106.22C93.3798 105.5 95.2798 104.78 97.2098 104.1C97.9698 103.87 98.6898 103.6 99.4898 103.43L100.69 103.18L101.85 103.03C103.41 102.86 104.99 102.79 106.57 102.88C109.02 103 111.5 103.52 113.73 104.58C114.23 104.8 114.7 105.03 115.18 105.29C116.07 105.77 116.51 106.29 116.81 106.66C117.09 107.05 117.16 107.39 117.14 107.78C117.13 107.96 117.14 108.14 117.1 108.29C116.97 108.78 116.08 108.65 114.8 108.14C113.85 107.77 112.99 107.27 112.07 106.94C111.16 106.58 110.24 106.27 109.31 106.05C107.44 105.62 105.48 105.47 103.43 105.6C102.67 105.65 101.9 105.73 101.13 105.83C100.43 105.97 99.7698 106.08 99.0098 106.33C97.5298 106.75 95.9898 107.32 94.4598 107.88L94.4298 107.82V107.79Z" fill="#231F20"/>
<path d="M103.72 91.07C105.27 91.01 106.81 91.15 108.32 91.4C108.87 91.46 109.43 91.54 109.97 91.66C111.88 92.15 113.72 92.83 115.43 93.75C115.82 93.92 116.2 94.14 116.57 94.35C116.94 94.56 117.34 94.74 117.7 94.96C118.16 95.26 118.66 95.49 119.08 95.86C119.28 96.06 119.49 96.23 119.65 96.47C119.8 96.71 119.94 96.96 120.1 97.21C120.27 97.53 120.15 97.59 119.75 97.65C119.47 97.7 119.18 97.75 118.93 97.79C118.77 97.81 118.58 97.86 118.42 97.86C118.27 97.85 118.12 97.82 117.99 97.76C116.1 96.97 114.44 96.01 112.6 95.06C112.33 94.92 112.04 94.79 111.75 94.68C111.45 94.59 111.15 94.51 110.84 94.44C110.23 94.27 109.6 94.21 108.98 94.08C108.3 93.92 107.61 93.89 106.92 93.78C106.23 93.73 105.53 93.67 104.83 93.65H103.54C103.11 93.67 102.68 93.72 102.25 93.76C100.95 93.89 99.65 94.15 98.41 94.56C97.47 94.93 96.62 95.46 95.76 95.95C95.57 96.05 95.39 96.17 95.21 96.29C94.53 96.72 94.16 96.6 93.72 96.25C93.62 96.17 93.51 96.09 93.42 96C93.13 95.71 93.24 95.22 93.68 94.68C94.04 94.32 94.41 93.97 94.83 93.68C95.25 93.39 95.66 93.03 96.13 92.83C96.6 92.61 97.08 92.39 97.57 92.19L99.08 91.71C99.83 91.5 100.61 91.36 101.38 91.23C102.16 91.15 102.93 91.01 103.72 91V91.07Z" fill="#231F20"/>
<path d="M68.3501 95.73C75.6201 95.14 76.3901 81.67 63.5801 89.57C63.5801 89.57 67.6701 83.21 74.6601 85.39C81.6501 87.57 76.9801 92.64 76.9801 92.64C76.9801 92.64 72.0701 95.92 70.3001 96.07C68.5301 96.22 68.3501 95.73 68.3501 95.73Z" fill="#231F20"/>
<path d="M75.0302 95.05C74.0702 95.61 73.0502 96.02 72.0302 96.4C71.6602 96.54 71.3002 96.69 70.9202 96.81C69.5702 97.15 68.2102 97.38 66.8402 97.42C66.2302 97.45 65.6302 97.48 65.0302 97.51C64.6402 97.51 64.2602 97.54 63.8702 97.51C63.4902 97.45 63.1002 97.38 62.7402 97.21C62.5302 97 62.5902 96.85 62.8302 96.5C63.0702 96.16 63.4502 95.8 63.8402 95.76C65.2602 95.68 66.6202 95.51 68.0802 95.48C68.5202 95.48 68.9502 95.37 69.3702 95.24C69.8002 95.12 70.2102 94.95 70.6302 94.81C71.5502 94.5 72.4402 94.1 73.3102 93.65C73.8202 93.34 74.3502 93.05 74.8302 92.68C75.5702 92.15 76.2502 91.53 76.8102 90.82C77.2102 90.25 77.4702 89.6 77.6802 88.97C77.7302 88.83 77.7702 88.69 77.8202 88.56C78.0202 88.06 78.3302 87.99 78.8202 88.03C78.9402 88.03 79.0502 88.03 79.1602 88.06C79.5102 88.11 79.7402 88.45 79.7702 88.99C79.7602 89.19 79.7402 89.38 79.7302 89.57C79.7102 89.76 79.6302 89.93 79.5702 90.11C79.4302 90.46 79.3202 90.84 79.1102 91.16C78.9102 91.49 78.7202 91.83 78.4802 92.13C78.2402 92.43 77.9902 92.72 77.7302 93.01C76.9202 93.82 76.0302 94.54 75.0702 95.12L75.0402 95.08L75.0302 95.05Z" fill="#231F20"/>
<path d="M84.4002 77.16C88.2502 68.45 82.5902 62.59 78.7802 66.3C75.6302 69.36 77.9302 74.93 77.9302 74.93C77.9302 74.93 74.4602 71.15 75.2302 67.38C76.0002 63.6 78.8502 60.73 83.7802 59.74C83.7802 59.74 86.2002 60.34 86.9902 65.83C87.7802 71.31 84.3902 77.17 84.3902 77.17L84.4002 77.16Z" fill="#231F20"/>
<path d="M86.2298 71.5C86.4498 70.59 86.5298 69.64 86.5398 68.68C86.5198 68.33 86.4498 67.99 86.4398 67.64C86.3298 66.41 86.1298 65.17 85.7298 63.97C85.5498 63.44 85.2798 62.94 85.0098 62.46C84.8598 62.13 84.6098 61.88 84.4498 61.56C84.2998 61.23 84.0998 60.93 83.9398 60.59C83.8398 60.38 83.9498 60.3 84.2198 60.32C84.4798 60.35 84.9798 60.41 85.3698 60.69C86.6198 61.79 87.3298 63.35 87.6498 64.93C87.8198 65.88 88.1198 66.84 88.1998 67.83L88.2598 68.64V69.45C88.2598 69.99 88.1798 70.53 88.1298 71.07C88.0398 71.73 87.9098 72.38 87.7298 73.02C87.4598 73.99 87.0898 74.93 86.6498 75.82C86.3398 76.53 86.0198 77.23 85.6498 77.93C85.5598 78.08 85.4798 78.23 85.3698 78.37C84.9798 78.89 84.6298 78.85 84.2298 78.64C84.1398 78.59 84.0498 78.56 83.9798 78.52C83.8598 78.44 83.7998 78.32 83.7398 78.12C83.6798 77.92 83.6598 77.68 83.7398 77.48C84.2698 76.34 84.8798 75.31 85.3598 74.17C85.5398 73.75 85.7198 73.32 85.8398 72.87C85.9998 72.43 86.0898 71.97 86.1798 71.51H86.2298V71.5Z" fill="#231F20"/>
<path d="M50.6799 88.59C47.4999 83.56 37.8999 82.84 42.3099 91.55C42.3099 91.55 37.7399 87.65 37.0199 84.42C36.2999 81.19 40.3199 80.1 43.1299 80.53C45.9399 80.96 48.4699 82.55 50.6799 86.19V88.6V88.59Z" fill="#231F20"/>
<path d="M42.1599 92.74C41.2599 92.08 40.3999 91.39 39.6499 90.57C39.3699 90.28 39.0499 90.03 38.8199 89.7C37.9499 88.58 37.2399 87.32 36.8599 85.96C36.6499 85.38 36.5099 84.77 36.3399 84.18C36.2899 83.79 36.2299 83.4 36.1899 83.01C36.2199 82.61 36.3099 82.22 36.3999 81.83C36.4599 81.59 36.5899 81.63 36.7999 81.82C36.9999 82.01 37.3799 82.34 37.5699 82.72C37.8499 83.39 38.0699 84.03 38.2599 84.68C38.4699 85.33 38.7399 85.95 38.9799 86.62C39.2699 87.43 39.9099 88.07 40.4699 88.73C41.1299 89.42 41.8299 90.11 42.6399 90.67C43.1199 91.04 43.6499 91.34 44.1699 91.65C44.9899 92.07 45.8399 92.48 46.7299 92.71C47.4299 92.89 48.1399 92.92 48.8399 92.97C48.9899 92.99 49.1499 92.97 49.2999 93.01C49.8599 93.12 50.0199 93.38 50.1099 93.78C50.1299 93.88 50.1599 93.97 50.1699 94.06C50.1999 94.35 49.9299 94.6 49.4399 94.78C47.9999 95.16 46.4999 94.82 45.1099 94.29C44.0599 93.92 43.0799 93.35 42.1299 92.77L42.1499 92.73L42.1599 92.74Z" fill="#231F20"/>
<path d="M43.1298 67.58C44.2598 62.8 39.8398 57.36 35.4798 66.04C35.4798 66.04 33.3398 61.53 39.0798 55.34L40.6098 54.69C40.6098 54.69 44.5198 56.28 44.7798 61.36C45.0398 66.44 43.3498 67.83 43.3498 67.83" fill="#231F20"/>
<path d="M34.0201 64.6C34.1801 63.59 34.3801 62.59 34.6701 61.61C34.7801 61.25 34.8101 60.88 34.9601 60.53C35.4201 59.29 36.0801 58.11 36.9201 57.05L37.5001 56.35L38.1601 55.71C38.7301 55.19 39.4901 54.67 40.3601 54.91C40.6201 54.97 40.6001 55.14 40.5101 55.49C40.4501 55.72 40.4001 55.96 40.3501 56.15C40.3201 56.26 40.2901 56.39 40.2601 56.47C40.2201 56.55 40.1601 56.6 40.1101 56.67C39.3001 57.35 38.5301 58.14 37.6901 59.2C37.4701 59.53 37.2701 59.89 37.1301 60.27L36.7501 61.45C36.4801 62.33 36.2401 63.23 36.0901 64.15C35.9901 64.72 35.9201 65.29 35.8801 65.87C35.8201 66.74 35.8001 67.63 35.9201 68.49C36.0301 69.15 36.2601 69.78 36.5201 70.37C36.5801 70.5 36.6301 70.63 36.6901 70.76C36.7901 70.99 36.8301 71.15 36.7701 71.31C36.6801 71.47 36.5201 71.61 36.3201 71.76C36.2301 71.83 36.1501 71.9 36.0801 71.95C35.9501 72.04 35.8101 72.05 35.5901 72.02C35.3701 71.99 35.1401 71.89 35.0201 71.69C34.2301 70.51 33.9501 69.08 33.8501 67.7C33.7901 66.66 33.8501 65.63 33.9501 64.6H34.0001H34.0201Z" fill="#231F20"/>
<path d="M58.8999 54.12C64.1399 55.25 70.9199 46.18 60.9799 43.87C60.9799 43.87 68.4899 44.1 71.4799 47.72C74.4699 51.34 67.2999 56.04 63.0499 55.24C59.2999 54.54 58.9099 54.11 58.9099 54.11L58.8999 54.12Z" fill="#231F20"/>
<path d="M61.7498 42.88C62.3098 42.89 62.8698 42.94 63.4198 42.99C63.9698 43.08 64.5298 43.14 65.0698 43.26C65.4698 43.35 65.8798 43.37 66.2698 43.48C67.6498 43.89 68.9598 44.51 70.1698 45.27C70.7198 45.59 71.2398 45.95 71.7398 46.34C72.3998 46.81 73.0498 47.4 73.1998 48.31C73.2598 48.58 73.0498 48.66 72.6698 48.7C72.4198 48.72 72.1698 48.74 71.9698 48.75C71.7298 48.75 71.4998 48.73 71.3098 48.65C70.7298 48.31 70.2198 47.92 69.6298 47.59C69.0898 47.19 68.5198 46.81 67.9198 46.41C67.1798 45.95 66.2798 45.79 65.4198 45.61C64.9398 45.51 64.4598 45.4 63.9698 45.35C63.4798 45.27 62.9898 45.23 62.4898 45.2C61.8798 45.13 61.2598 45.18 60.6398 45.18L59.2398 45.32C58.7698 45.38 58.3098 45.49 57.8598 45.61C57.1598 45.81 56.5298 46.18 55.8698 46.45C55.7298 46.52 55.5998 46.61 55.4398 46.65C55.1598 46.73 54.9598 46.76 54.7798 46.7C54.5998 46.62 54.4598 46.49 54.3198 46.32C54.2498 46.24 54.1798 46.17 54.1298 46.1C54.0398 45.98 54.0398 45.84 54.0798 45.65C54.1298 45.47 54.2198 45.22 54.4098 45.07C55.4698 44 56.9198 43.51 58.3798 43.19C59.4798 42.95 60.6098 42.86 61.7298 42.82V42.88H61.7498Z" fill="#231F20"/>
<path d="M64.5502 114.97C62.5302 114.97 60.5102 114.92 58.5002 114.71C57.7702 114.65 57.0302 114.62 56.3002 114.51C53.7302 114.18 51.1702 113.73 48.6702 113.07C47.5502 112.81 46.4502 112.49 45.3502 112.22L43.2702 111.52C42.5902 111.25 41.9302 110.99 41.2302 110.71C40.8102 110.54 40.8702 110.55 41.2502 110.62C41.6302 110.7 42.3402 110.78 43.1602 110.95C44.6202 111.21 46.0702 111.47 47.5102 111.81C48.9502 112.1 50.3902 112.4 51.8502 112.69C53.5902 113.07 55.4302 113.21 57.2402 113.38C59.2302 113.54 61.2202 113.64 63.2202 113.65C64.4502 113.67 65.6802 113.63 66.9102 113.58L69.7002 113.38C70.6302 113.27 71.5502 113.18 72.4702 113.04C73.1802 112.93 73.8802 112.8 74.5802 112.67L76.6602 112.22C76.9602 112.15 77.2702 112.08 77.5702 112.01C78.7102 111.74 79.1102 111.83 79.4002 111.94C79.4702 111.97 79.5502 111.99 79.5902 112.03C79.7302 112.13 79.3002 112.38 78.4902 112.72C76.0502 113.56 73.3802 114.22 70.6602 114.56C68.6402 114.82 66.5902 114.92 64.5502 114.98V114.95V114.97Z" fill="#231F20"/>
<path d="M21.0498 51.38C23.4798 46.82 26.6898 42.71 30.4398 39.2L32.5198 37.31C33.2198 36.69 33.9898 36.15 34.7298 35.58C36.0198 34.54 37.4698 33.74 38.8598 32.86C39.5498 32.4 40.2998 32.07 41.0298 31.69L43.2398 30.58L45.5298 29.67C46.2998 29.38 47.0398 29.03 47.8398 28.83C49.4298 28.4 50.9698 27.82 52.5998 27.57C54.0298 27.3 55.4498 26.96 56.9098 26.86C58.3598 26.7 59.7998 26.49 61.2498 26.53L64.0398 26.47L66.8198 26.69C68.6798 26.79 70.4998 27.28 72.2198 28.02C73.2998 28.42 73.1498 28.38 72.1498 28.44C71.6498 28.46 70.9198 28.62 70.0798 28.72C69.2398 28.8 68.2998 28.67 67.2698 28.69C60.0498 27.99 52.7098 28.9 45.8398 31.54C41.7198 33.09 37.7498 35.52 34.2698 38.39C30.4298 41.53 27.0598 45.27 24.3998 49.48C23.9498 50.1 23.6098 50.79 23.2398 51.46L22.1398 53.48L21.2198 55.59C20.9098 56.29 20.5998 56.99 20.3798 57.72C18.8998 62.1 18.2198 66.81 18.1598 71.43C18.1298 75.03 18.5098 78.56 19.3398 81.99C19.5198 82.75 19.7198 83.48 19.9398 84.23C20.1198 84.93 20.2798 85.51 20.4398 85.98C20.5798 86.46 20.6698 86.86 20.7498 87.19C20.9298 87.84 20.9798 88.24 20.9598 88.6C20.9498 88.76 20.9598 88.97 20.9298 89.08C20.8798 89.26 20.6898 89.1 20.3598 88.66C20.0298 88.21 19.5298 87.49 19.0798 86.47C17.6698 83.46 16.9598 80.09 16.5698 76.69C16.1998 73.28 16.1598 69.78 16.5398 66.3C16.8198 63.72 17.2898 61.15 18.0198 58.62C18.3798 57.36 18.8098 56.09 19.3498 54.91C19.8698 53.71 20.3398 52.48 21.0098 51.36L21.0598 51.38H21.0498Z" fill="#231F20"/>
<path d="M60.4702 75.3C60.4702 75.3 57.1302 72.3 61.0602 69.35C61.0602 69.35 60.7102 67.71 57.9002 69.35C55.0902 70.99 56.4702 73.54 56.9002 74.3C57.3302 75.06 59.6502 75.56 60.4702 75.29V75.3Z" fill="#231F20"/>
<path d="M30.4501 40.11L28.7101 41.91C28.1301 42.51 27.6501 43.2 27.1201 43.84C26.6201 44.51 26.0301 45.11 25.6001 45.82L24.2201 47.91C23.7301 48.59 23.3601 49.34 22.9701 50.08L21.8001 52.29L20.8501 54.61C20.5401 55.38 20.1801 56.14 19.9801 56.96C19.5101 58.56 18.9501 60.15 18.7101 61.81L18.2301 64.27C18.1401 65.1 18.0401 65.93 17.9601 66.76C17.7101 70.09 17.8701 73.47 18.3601 76.8C18.7201 79.23 19.3101 81.63 20.0201 83.98C20.7801 86.32 21.6901 88.6 22.7601 90.8C23.7501 92.71 24.7901 94.61 26.0801 96.33C26.6701 97.23 27.3901 98.02 28.0601 98.86C28.4101 99.27 28.7901 99.64 29.1601 100.03C29.5301 100.42 29.8901 100.81 30.3101 101.16C33.4601 104.1 37.1101 106.51 41.0501 108.3C48.9401 111.9 57.9901 112.83 66.5601 111.33C74.1801 109.97 81.4601 106.48 87.1701 101.37C90.8301 98.08 93.8801 94.13 96.2101 89.8C98.5101 85.45 100.08 80.73 101.08 75.89C101.68 72.88 102.31 73.33 102.52 76.08C102.66 77.47 102.53 79.41 102.16 81.74C101.71 84.05 100.98 86.76 99.6301 89.47C97.3101 94.29 94.1401 98.74 90.2001 102.39C88.2801 104.27 86.1001 105.86 83.8801 107.36C81.5901 108.75 79.2601 110.09 76.7601 111.07C71.8301 113.18 66.5101 114.26 61.1801 114.58C58.5101 114.65 55.8201 114.64 53.1701 114.26C51.8401 114.15 50.5301 113.83 49.2101 113.61L47.2601 113.12C46.6101 112.97 45.9601 112.79 45.3301 112.56C42.2701 111.63 39.2801 110.34 36.4601 108.72C33.6501 107.1 30.9301 105.23 28.5501 102.97C23.6601 98.48 20.2601 92.6 18.1001 86.48C15.7601 79.73 14.7701 72.5 15.4901 65.36L15.6401 64.02C15.7001 63.58 15.8001 63.14 15.8801 62.7L16.3901 60.06C16.5301 59.18 16.8701 58.34 17.1001 57.47C17.3701 56.62 17.5801 55.75 17.9001 54.91L18.9101 52.43L19.4201 51.19L20.0401 50L21.2901 47.63C21.7301 46.86 22.2501 46.13 22.7301 45.38L23.6301 44C23.9301 43.54 24.3001 43.13 24.6401 42.7C25.3401 41.85 25.9801 40.96 26.7201 40.15L29.0101 37.78C29.7701 36.99 30.6501 36.33 31.4701 35.6C34.8501 32.83 38.5601 30.38 42.6301 28.74C48.7101 26.07 55.4701 24.97 62.0901 25.46C68.7101 25.94 75.1601 27.95 80.8801 31.19C89.7101 36.3 96.8001 44.1 100.78 53.5C101.55 55.6 102.38 57.65 102.84 59.88C102.96 60.39 103.08 60.88 103.2 61.35C103.31 61.82 103.34 62.28 103.41 62.72C103.52 63.6 103.62 64.39 103.72 65.12C103.86 66.58 103.77 67.77 103.76 68.74C103.73 69.23 103.74 69.66 103.66 70.05C103.58 70.44 103.51 70.78 103.42 71.1C103.25 71.72 103.07 72.21 102.86 72.63C102.67 73.02 102.46 73.52 102.29 73.73C101.99 74.08 101.79 73.41 101.7 71.95C101.68 71.58 101.66 71.17 101.66 70.71C101.66 70.25 101.66 69.74 101.59 69.19C101.46 68.08 101.44 66.8 101.24 65.36C100.76 61.09 99.4001 56.91 97.5601 52.95C95.6801 49.01 93.2701 45.24 90.2201 42C87.2101 38.74 83.7101 35.89 79.8501 33.61C75.9901 31.33 71.7101 29.79 67.3201 28.85L64.8601 28.38C64.0401 28.24 63.2001 28.23 62.3701 28.14C61.5401 28.1 60.7101 27.95 59.8801 27.99L57.3801 28.05C56.9601 28.07 56.5401 28.05 56.1301 28.09L54.8901 28.25L52.4101 28.57C51.5901 28.74 50.7801 28.95 49.9701 29.13C49.1601 29.32 48.3301 29.48 47.5501 29.79L45.1701 30.6C44.3701 30.84 43.6301 31.27 42.8601 31.59C42.1101 31.96 41.3101 32.24 40.5901 32.67L38.4101 33.93C37.6601 34.32 36.9901 34.82 36.3101 35.31L34.2601 36.77L32.3501 38.42L31.4001 39.24C31.0901 39.52 30.8101 39.84 30.5201 40.14L30.4601 40.11H30.4501Z" fill="#231F20"/>
<path d="M70.9798 48.66C71.4598 47.48 71.7898 46.2 71.6298 44.87C71.4798 43.57 71.1298 42.23 70.3898 41.07C70.1598 40.63 69.7898 40.27 69.4998 39.87C69.1598 39.5 68.7798 39.19 68.4398 38.82C65.8298 36.49 61.6698 35.9 58.6898 38.16C57.3498 39.09 56.3198 40.48 55.6798 41.96C55.2898 42.93 55.0298 43.94 54.9098 44.99C54.8498 46.04 54.7798 47.1 54.8198 48.23C54.7998 48.94 54.7398 48.88 54.3498 48.36C54.1798 48.09 53.7698 47.73 53.5598 47.21C53.3298 46.7 52.9898 46.06 52.9998 45.33C52.9598 44.05 53.0698 42.72 53.5198 41.47C53.9798 40.24 54.6498 39.08 55.4898 38.08C56.3398 37.08 57.3698 36.23 58.5298 35.58C59.1098 35.26 59.7298 34.98 60.3898 34.79C61.0398 34.58 61.7598 34.48 62.4098 34.5C62.8098 34.5 63.1998 34.47 63.5998 34.49L64.7898 34.65C65.1898 34.68 65.5698 34.79 65.9598 34.91C66.3398 35.03 66.7398 35.12 67.0998 35.27C68.5698 35.9 69.9398 36.78 71.0098 37.94C72.1598 39.23 73.0998 40.71 73.6098 42.36C74.0898 44.01 74.2698 45.77 73.9498 47.48C73.5498 49.58 72.4298 51.48 70.9798 52.93C68.8098 55.16 65.6498 56.54 62.5098 56.29C61.2998 56.18 60.1098 55.94 58.9898 55.46C57.8798 54.97 56.8498 54.29 55.9698 53.42C55.6198 53.01 55.2098 52.64 54.9398 52.16C53.8398 50.41 54.0498 49.6 54.4498 49.11C54.5398 48.99 54.6098 48.86 54.6898 48.79C54.8198 48.67 54.9998 48.79 55.2898 49.03C55.4498 49.15 55.5698 49.32 55.6898 49.52C55.8198 49.72 56.0098 49.93 56.1598 50.18C57.9598 53.2 61.8498 54.64 65.1598 53.62C67.6098 52.95 69.8298 50.92 70.9198 48.63L70.9798 48.65V48.66Z" fill="#231F20"/>
<path d="M37.3298 54.92C36.0898 54.59 34.7698 54.4 33.4698 54.69C32.1898 54.97 30.8998 55.46 29.8298 56.31C29.4198 56.59 29.0998 56.98 28.7398 57.32L27.8298 58.49C25.7898 61.32 25.7398 65.54 28.3298 68.21C29.4198 69.42 30.8998 70.29 32.4498 70.76C33.4598 71.04 34.4898 71.19 35.5398 71.2C36.5898 71.15 37.6498 71.11 38.7598 70.96C39.4698 70.91 39.4098 70.97 38.9398 71.42C38.6898 71.62 38.3798 72.06 37.8798 72.32C37.3898 72.6 36.7898 73 36.0698 73.07C34.8098 73.25 33.4698 73.27 32.1998 72.97C30.9298 72.65 29.7098 72.12 28.6198 71.4C27.5398 70.67 26.5698 69.76 25.7898 68.68C25.5898 68.42 25.4098 68.14 25.2398 67.84C25.0598 67.56 24.9098 67.25 24.7798 66.93C24.4998 66.32 24.2898 65.6 24.2398 64.96L24.0898 63.78C24.0898 63.38 24.1098 62.98 24.1098 62.59V61.99C24.1398 61.79 24.1898 61.6 24.2198 61.4L24.4398 60.22C24.9098 58.7 25.5998 57.22 26.6498 56.03C27.7998 54.74 29.1798 53.65 30.7698 52.98C32.3598 52.33 34.0898 51.97 35.8098 52.11C37.9298 52.28 39.9298 53.14 41.5698 54.37C42.7898 55.3 43.9198 56.48 44.6498 57.89C45.3898 59.28 45.7898 60.84 45.8398 62.39C45.8598 63.6 45.7198 64.79 45.4098 65.96C45.0498 67.11 44.5198 68.21 43.7798 69.2C43.4098 69.6 43.1098 70.05 42.6598 70.39C41.0498 71.71 40.2098 71.58 39.6798 71.23C39.5598 71.15 39.4098 71.1 39.3398 71.03C39.2098 70.91 39.3098 70.72 39.5198 70.4C39.6198 70.23 39.7698 70.09 39.9598 69.95C40.1398 69.8 40.3198 69.58 40.5498 69.41C43.2798 67.28 44.2198 63.18 42.9398 60.01C42.4698 58.82 41.7498 57.79 40.7198 56.94L39.9398 56.3C39.6798 56.08 39.3698 55.96 39.0898 55.79C38.5398 55.4 37.9198 55.23 37.3098 54.99V54.93L37.3298 54.92Z" fill="#231F20"/>
<path d="M92.7701 67.56C92.7401 66.91 92.4701 66.33 92.3101 65.71C92.0001 65.16 91.7801 64.55 91.3501 64.07C91.0001 63.53 90.4901 63.12 90.0201 62.67C89.4801 62.31 88.9501 61.91 88.3301 61.68C87.4601 61.26 86.4801 61.14 85.5301 61.02C82.1201 60.7 78.6001 62.75 77.1601 66.12C76.4801 67.58 76.2601 69.25 76.5001 70.81C76.6701 71.8 76.9801 72.77 77.4701 73.67C78.0001 74.54 78.5401 75.43 79.2201 76.3C79.6101 76.88 79.5301 76.86 78.9101 76.68C78.6201 76.57 78.0801 76.52 77.6101 76.22C77.1301 75.94 76.4801 75.62 76.0701 75.02C75.3101 74 74.6601 72.81 74.3801 71.52C74.1201 70.22 74.1201 68.89 74.3501 67.62C74.5801 66.34 75.0301 65.12 75.6701 64C76.3101 62.91 77.1401 61.8 78.2301 61.09C79.4201 60.11 80.8801 59.43 82.3701 58.98C83.8901 58.55 85.5001 58.52 87.0401 58.76C88.7201 59.12 90.3101 59.85 91.6601 60.91C93.0201 61.97 94.0001 63.44 94.6501 65C94.8101 65.5 95.0101 65.98 95.1201 66.49L95.3501 68.02C95.3501 69.04 95.3901 70.07 95.1601 71.06C94.9901 72.56 94.3501 74.1 93.4501 75.34C92.5401 76.6 91.3501 77.63 90.0101 78.36C87.9501 79.51 85.5601 80.07 83.1501 79.74C82.6301 79.62 82.1001 79.59 81.5901 79.36C79.6801 78.64 79.3701 77.86 79.4101 77.23C79.4101 77.09 79.3901 76.94 79.4101 76.84C79.4501 76.67 79.6601 76.65 80.0401 76.68C80.2401 76.68 80.4301 76.74 80.6401 76.82C80.8501 76.91 81.1301 76.95 81.3901 77.06C82.9601 77.72 84.7601 77.72 86.4301 77.33C88.0901 76.88 89.6601 75.99 90.7901 74.75C91.6301 73.83 92.2201 72.72 92.5201 71.5C92.7401 70.18 92.9501 68.84 92.6901 67.59H92.7501L92.7701 67.56Z" fill="#231F20"/>
<path d="M36.5798 83.77C35.5798 84.58 34.7198 85.6 34.2498 86.83C33.7298 88.03 33.4598 89.39 33.5798 90.74C33.6098 91.73 33.9398 92.68 34.2798 93.6C34.9198 95.22 36.0398 96.64 37.5298 97.56C37.8698 97.84 38.2998 97.97 38.6998 98.16C39.0998 98.36 39.5098 98.49 39.9298 98.6C40.7898 98.8 41.7098 98.82 42.6098 98.73C44.2298 98.58 45.7898 97.88 47.0398 96.88C47.8298 96.22 48.5298 95.45 49.0898 94.57C49.6098 93.67 50.1298 92.75 50.5898 91.73C50.9198 91.1 50.9398 91.18 51.0698 91.82C51.1098 92.13 51.3198 92.63 51.2798 93.19C51.2698 93.75 51.2798 94.47 50.9498 95.13C50.4198 96.29 49.7098 97.44 48.7298 98.34C47.7398 99.22 46.5898 99.91 45.3598 100.37C44.1298 100.83 42.8198 101.08 41.4998 101.07C40.2098 101.07 38.7698 100.83 37.6298 100.18C34.7398 98.9 32.4498 96.24 31.5698 93.22C31.1298 91.55 31.0498 89.8 31.3298 88.1C31.6398 86.4 32.3898 84.81 33.4098 83.43C34.7098 81.74 36.5598 80.59 38.4798 79.91C39.8998 79.34 41.5598 79.12 43.1198 79.33C44.6898 79.53 46.1798 80.13 47.4598 81C49.4498 82.34 51.0198 84.25 51.8298 86.57C51.9598 87.09 52.1798 87.59 52.2098 88.14C52.4498 90.18 51.9198 90.83 51.3398 91.09C51.2098 91.16 51.0898 91.25 50.9898 91.27C50.8198 91.32 50.7098 91.13 50.5498 90.79C50.4598 90.61 50.4198 90.41 50.3998 90.18C50.3698 89.95 50.2798 89.68 50.2598 89.39C50.1098 87.66 49.2798 86.02 48.1698 84.68C46.9998 83.38 45.4998 82.34 43.8598 81.95C42.6398 81.64 41.3998 81.65 40.1598 82.01C39.5398 82.26 38.8498 82.38 38.2998 82.75L37.4198 83.21L36.6498 83.81L36.6098 83.76L36.5798 83.77Z" fill="#231F20"/>
<path d="M66.1802 99.51C67.8502 101.35 70.5202 102.28 73.1002 101.94C73.5702 101.89 74.0202 101.72 74.4802 101.61C74.9002 101.41 75.3502 101.25 75.7602 101.04C77.2302 100.29 78.4502 99.05 79.1602 97.51L79.5902 96.3C79.7102 95.89 79.7902 95.48 79.8402 95.05C79.9302 94.19 79.9102 93.3 79.7402 92.43C79.4602 90.88 78.7002 89.41 77.6602 88.27C76.9702 87.55 76.1802 86.95 75.3002 86.45C74.3902 86.01 73.4802 85.57 72.4602 85.18C71.8302 84.89 71.9102 84.87 72.5202 84.69C73.1202 84.49 74.3702 84.1 75.7402 84.56C76.9102 84.99 78.0702 85.61 79.0102 86.5C79.9302 87.4 80.6802 88.47 81.2102 89.63C81.7302 90.8 82.0502 92.03 82.1602 93.3C82.2502 94.55 82.1902 95.89 81.7302 97.1L81.3302 98.17C81.2102 98.53 80.9802 98.85 80.8002 99.2C80.4702 99.9 79.9502 100.5 79.4802 101.11C78.4102 102.23 77.1402 103.23 75.6802 103.73C74.0902 104.3 72.3902 104.55 70.7302 104.35C69.0702 104.14 67.4702 103.57 66.0702 102.67C64.3602 101.52 63.0702 99.84 62.3002 98.01C61.0002 95.25 61.1802 91.88 62.5202 89.21C63.5502 87.13 65.2002 85.34 67.4002 84.34C67.9002 84.17 68.3602 83.91 68.9002 83.84C70.8802 83.46 71.5302 83.95 71.8302 84.5C71.9002 84.63 72.0002 84.74 72.0302 84.84C72.0802 85.01 71.9202 85.13 71.5902 85.31C71.4302 85.41 71.2302 85.46 71.0102 85.51C70.7902 85.54 70.5402 85.66 70.2602 85.7C68.6102 85.96 67.1502 86.9 66.0202 88.12C64.9402 89.39 64.1502 90.95 63.9502 92.6C63.7802 93.82 63.9002 95.06 64.3002 96.25L64.6802 97.13L64.8702 97.57L65.1302 97.96C65.3002 98.22 65.4502 98.5 65.6302 98.76L66.2502 99.46L66.2102 99.51H66.1802Z" fill="#231F20"/>
<path d="M62.6998 75.21C62.1498 75.68 61.4798 76.07 60.7298 76.16C60.3698 76.21 60.0598 76.18 59.7298 76.19C59.3998 76.19 59.0698 76.09 58.7398 76.03C58.2798 75.88 57.7898 75.75 57.3998 75.45C55.9398 74.48 55.2898 72.66 55.6198 71.05C55.7998 70.34 56.1598 69.67 56.7098 69.19C57.3998 68.56 58.3198 68.36 59.1498 68.38C59.4098 68.38 59.3798 68.45 59.1998 68.62C59.0198 68.8 58.6798 69.05 58.3698 69.34C58.0598 69.56 57.8598 69.83 57.6298 70.03C57.5298 70.15 57.4598 70.29 57.3698 70.4C57.2798 70.51 57.2698 70.67 57.1798 70.78C56.9298 71.28 56.8598 71.91 56.9898 72.56C57.1498 73.34 57.7798 74.02 58.5098 74.35C59.2898 74.72 60.3998 74.81 61.1198 74.42C61.5898 74.16 61.9898 73.71 62.2198 73.18C62.5898 72.38 62.6298 71.38 62.1898 70.65C61.8498 70.07 61.2298 69.79 60.6398 69.55C60.4998 69.51 60.3498 69.49 60.2198 69.42C59.9698 69.3 59.7698 69.27 59.6598 69.14C59.5498 68.99 59.4798 68.85 59.4298 68.68C59.4098 68.6 59.3698 68.53 59.3598 68.46C59.3398 68.35 59.3998 68.26 59.5298 68.16C59.6698 68.06 59.8898 67.91 60.1698 67.91C60.9798 67.83 61.9498 68 62.7498 68.64C63.5298 69.27 64.0598 70.27 64.1698 71.28C64.2698 72.03 64.1398 72.76 63.9098 73.44C63.6398 74.11 63.2598 74.73 62.7198 75.24L62.6898 75.21H62.6998Z" fill="#231F20"/>
<path d="M19.7402 18.86C18.8702 19.26 18.1402 19.87 17.3302 20.37C16.5702 20.94 15.8602 21.58 15.1402 22.21C14.6702 22.73 14.2602 23.29 13.7802 23.8C13.3602 24.25 13.0402 24.78 12.6602 25.27C12.2902 25.77 11.9102 26.26 11.6402 26.82L10.7202 28.46C10.4502 29.02 10.2502 29.62 10.0102 30.21C9.83019 30.74 9.57019 31.25 9.50019 31.81C9.40019 32.36 9.30019 32.92 9.21019 33.47C9.16019 33.82 9.08019 34.18 9.01019 34.53L8.90019 35.61L8.83019 36.15L8.69019 36.69C8.59019 37.05 8.48019 37.41 8.37019 37.77C8.22019 38.22 8.05019 38.17 7.78019 37.77C7.64019 37.57 7.46019 37.29 7.27019 36.94C7.17019 36.76 7.08019 36.57 6.99019 36.37C6.94019 36.27 6.91019 36.16 6.86019 36.05C6.85019 35.94 6.83019 35.83 6.82019 35.72C6.52019 32.53 7.52019 29.3 9.09019 26.49C9.33019 26.07 9.56019 25.64 9.79019 25.21C10.0202 24.78 10.3202 24.39 10.5802 23.96L11.3702 22.71C11.6402 22.3 11.9902 21.94 12.3002 21.56L13.3702 20.34L14.5802 19.26C15.3502 18.5 16.2702 17.93 17.1302 17.3C17.6502 16.89 18.2602 16.63 18.8202 16.29C19.3902 15.96 19.9602 15.64 20.5702 15.39L21.9302 14.78C22.3902 14.6 22.8702 14.46 23.3402 14.29C24.2602 13.93 25.2402 13.74 26.1902 13.48C26.9402 13.31 27.6802 13.14 28.4302 12.97C29.1902 12.85 29.9502 12.72 30.7402 12.71C31.0902 12.71 31.4302 12.71 31.7802 12.74C32.4302 12.74 32.8502 13.04 33.1202 13.21C33.3902 13.41 33.5102 13.63 33.5702 13.92C33.6002 14.05 33.6402 14.18 33.6402 14.3C33.6402 14.69 33.0602 14.94 32.2602 15.08C29.8802 15.44 27.4302 15.89 25.0102 16.65C24.1302 16.99 23.2002 17.21 22.3502 17.63C21.9202 17.82 21.4702 18 21.0402 18.2L19.8002 18.9L19.7602 18.84L19.7402 18.86Z" fill="#231F20"/>
<path d="M23.6902 25.41C22.7102 25.98 21.7702 26.68 20.9102 27.49C20.5802 27.77 20.3502 28.14 20.0402 28.44C18.9702 29.53 17.9702 30.74 17.1202 32.05C16.7402 32.63 16.4202 33.25 16.1202 33.88C15.9302 34.28 15.7402 34.68 15.5602 35.09L15.4202 35.39L15.2002 35.66C15.0502 35.83 14.9002 36.01 14.7402 36.19C14.5302 36.41 14.3702 36.31 14.1802 35.97C14.0902 35.8 13.9802 35.58 13.8802 35.31C13.8302 35.18 13.7902 35.03 13.7502 34.89C13.7302 34.82 13.7302 34.75 13.7002 34.67C13.7102 34.6 13.7202 34.54 13.7402 34.47C13.8702 34.01 14.0402 33.56 14.2202 33.11C14.4102 32.67 14.5602 32.21 14.8202 31.8C15.3102 30.97 15.8602 30.17 16.5102 29.43C17.2702 28.55 17.9102 27.52 18.7102 26.64C19.1302 26.14 19.6402 25.71 20.1102 25.25C20.6202 24.83 21.1102 24.39 21.6602 24.02L22.6702 23.34L23.7302 22.74C24.8402 22.19 26.0002 21.75 27.2002 21.47L27.8902 21.27L28.5902 21.11C29.0602 20.98 29.5402 20.93 30.0202 20.91C30.2302 20.9 30.4402 20.86 30.6602 20.87C31.4602 20.94 31.6802 21.2 31.7602 21.72C31.7802 21.84 31.8002 21.96 31.8002 22.08C31.8002 22.47 31.4502 22.78 30.9502 22.92C30.5802 22.97 30.2102 23.07 29.8602 23.16L29.3302 23.28C29.1502 23.34 28.9802 23.39 28.8002 23.43L28.2702 23.53L27.7502 23.68C27.4002 23.77 27.0502 23.87 26.7102 24.01C25.6802 24.35 24.6802 24.87 23.7102 25.46L23.6802 25.41H23.6902Z" fill="#231F20"/>
</svg>
