<svg width="35" height="19" viewBox="0 0 35 19" fill="none" xmlns="http://www.w3.org/2000/svg">
<path d="M19.4521 0.0312195C19.9022 0.00119939 20.7424 -0.0787275 21.4521 0.24118C25.3362 2.34501 27.7565 3.10049 31.252 5.78122L33.4121 7.44138C33.6519 7.63119 33.8816 7.82111 34.1113 8.00095C35.3314 8.78525 34.9442 10.0681 34.1221 10.7607C33.5421 11.2807 32.7115 11.7713 32.0615 12.1513C28.6299 14.0354 25.283 15.91 21.9316 17.9209C20.3052 18.886 19.1788 17.7096 20.4521 16.5C25.312 11.8586 29.451 11.2172 30.6709 10.498C30.3586 10.6174 29.9912 10.7055 29.5742 10.7334C23.4768 11.1402 28.7101 10.8424 8.56836 10.9531C7.23592 10.9725 5.89895 10.9381 4.56641 10.8681C3.22914 10.7892 1.90041 10.7282 0.576172 10.3183C-0.242521 9.84543 -0.139664 10.0505 0.575195 9.62497C0.928218 9.392 1.43412 9.17208 2.04199 8.88962C2.64968 8.65204 3.35585 8.49945 4.12012 8.4404L6.15039 8.29489L7.16602 8.22263L8.18555 8.22556C18.9764 7.71811 22.1866 8.02504 26.4844 7.71774C27.0568 7.67681 27.6296 7.61384 28.2109 7.59079C28.2572 7.58987 28.3028 7.58957 28.3477 7.58884C26.9294 6.5688 24.9013 5.15184 22.1514 3.13083L20.5518 1.95114C20.0118 1.57114 19.5716 1.03075 19.1016 0.550751C18.822 0.230976 18.9923 0.0812024 19.4521 0.0312195Z" fill="#231F20"/>
</svg>
