<svg width="128" height="128" viewBox="0 0 128 128" fill="none" xmlns="http://www.w3.org/2000/svg">
<path d="M87.6301 24.91C89.1901 25.66 90.7601 26.56 92.0201 28C92.4801 28.49 92.9101 29.17 93.1501 29.77C93.9301 31.91 94.1201 34.06 94.2301 36.16C94.2901 37.1 94.2901 38.03 94.3001 38.96C94.3001 40.15 94.3001 41.34 94.0501 42.51C93.9801 42.87 93.8801 42.82 93.7301 42.51C93.6001 42.2 93.2801 41.62 93.2201 40.95C93.1001 39.76 92.9501 38.59 92.7901 37.42C92.6701 36.26 92.5801 35.09 92.4401 33.94C92.2701 32.58 91.7801 31.13 91.1301 30.07C90.4501 28.96 89.1401 28.1 87.7501 27.48C86.8801 27.1 85.9701 26.77 85.0401 26.48C83.6401 26.04 82.1801 25.67 80.7101 25.48C79.5701 25.32 78.4301 25.35 77.3001 25.26C77.0501 25.23 76.8101 25.22 76.5601 25.19C75.6301 25.07 75.3501 24.87 75.1601 24.43C75.1201 24.33 75.0601 24.24 75.0301 24.15C74.9501 23.86 75.3501 23.55 76.0701 23.38C78.2101 22.83 80.4901 22.92 82.7201 23.38C84.3701 23.72 86.0601 24.11 87.6601 24.85L87.6401 24.91H87.6301Z" fill="#231F20"/>
<path d="M19.7498 79.8C19.8698 80.21 20.0298 80.58 20.1898 80.93C20.2698 81.1 20.3498 81.27 20.4398 81.41C20.5198 81.54 20.6198 81.69 20.7698 81.83C20.9598 82.04 21.2098 82.19 21.4498 82.37C21.8598 82.7 22.3398 82.99 22.8498 83.23C23.3598 83.49 23.8998 83.71 24.4698 83.89C24.9698 84.05 25.4898 84.14 26.0098 84.22C26.6798 84.33 27.3498 84.49 28.0098 84.73C28.2198 84.81 28.1698 84.92 27.9698 85.06C27.7698 85.19 27.4198 85.41 27.0098 85.47C26.6498 85.51 26.2898 85.57 25.9198 85.58C25.5598 85.56 25.1998 85.52 24.8398 85.48C24.1198 85.38 23.3898 85.21 22.6898 84.92C21.8598 84.57 20.9398 84.28 20.1198 83.72C19.6698 83.41 19.2698 83.07 18.8898 82.59C18.5498 82.13 18.2898 81.66 18.1098 81.18C17.8698 80.59 17.6898 80 17.5298 79.42C17.2898 78.53 17.1398 77.63 16.9498 76.75C16.8098 76.07 16.5398 75.41 16.4398 74.72C16.4198 74.57 16.3698 74.42 16.3698 74.26C16.3398 73.68 16.4698 73.48 16.9198 73.35C17.0198 73.32 17.1198 73.28 17.2198 73.26C17.5598 73.2 17.8598 73.41 18.0298 73.79C18.5898 74.9 18.8098 76.08 19.0798 77.25C19.2898 78.12 19.4898 78.99 19.7898 79.78L19.7398 79.8H19.7498Z" fill="#231F20"/>
<path d="M89.81 66.47C90.27 66.85 90.74 67.23 91.14 67.66C91.57 68.07 91.96 68.5 92.34 68.94C92.63 69.25 92.94 69.54 93.19 69.88C94.09 71.06 94.83 72.34 95.5 73.62C95.82 74.18 96.1 74.76 96.42 75.31C96.63 75.66 96.78 76.05 96.92 76.44C97.09 76.82 97.03 77.29 97.06 77.71C97.06 77.98 96.9 78.01 96.56 77.92C96.39 77.88 96.17 77.81 95.92 77.72C95.8 77.68 95.67 77.63 95.55 77.58C95.48 77.55 95.44 77.52 95.36 77.5C95.32 77.46 95.28 77.42 95.24 77.38C94.65 76.8 94.29 76.13 93.91 75.46C93.51 74.8 93.23 74.07 92.9 73.35C92.52 72.47 91.82 71.77 91.22 71.03C90.89 70.62 90.53 70.24 90.18 69.84C89.8 69.48 89.45 69.09 89.04 68.76L88.3 68.15C88.04 67.96 87.77 67.79 87.5 67.62C87.1 67.33 86.65 67.16 86.23 66.93C85.79 66.73 85.33 66.6 84.87 66.48C84.5 66.43 84.14 66.42 83.78 66.42C83.42 66.46 83.07 66.51 82.72 66.52C82.57 66.52 82.42 66.57 82.27 66.59C82.13 66.61 82.01 66.62 81.91 66.61C81.81 66.59 81.71 66.52 81.63 66.46C81.47 66.34 81.36 66.19 81.25 65.99C81.2 65.9 81.14 65.81 81.1 65.73C80.98 65.46 81.16 65.11 81.64 64.72C82.01 64.55 82.4 64.37 82.81 64.31C83.22 64.23 83.65 64.13 84.08 64.16C84.5 64.19 84.93 64.24 85.36 64.3C85.78 64.39 86.18 64.53 86.6 64.65C87.21 64.84 87.76 65.15 88.32 65.43C88.83 65.77 89.39 66.07 89.86 66.45L89.83 66.5L89.81 66.47Z" fill="#231F20"/>
<path d="M9.93984 81.09C10.1598 82.3 10.4598 83.48 10.7298 84.64C10.8698 85.23 11.0698 85.77 11.2398 86.35C11.4698 86.86 11.6398 87.45 11.9298 87.88C12.0298 88.04 12.1198 88.23 12.2298 88.37L12.5898 88.76C12.8198 89.03 13.1898 89.23 13.4598 89.5C14.6098 90.34 16.0698 90.93 17.5298 91.47C18.9998 92 20.5398 92.39 22.0998 92.73C23.4798 93.05 24.8898 93.24 26.2898 93.37C28.0898 93.55 29.8998 93.75 31.7198 93.79C32.2898 93.81 32.2298 93.88 31.7598 94.06C31.2898 94.24 30.4098 94.58 29.3298 94.74C28.3798 94.87 27.4198 94.98 26.4598 95.01C25.4998 95.01 24.5498 94.97 23.5898 94.89C22.6398 94.81 21.6798 94.71 20.7298 94.52C19.7898 94.3 18.8498 94.05 17.9298 93.74C15.7298 93 13.3498 92.29 11.3298 90.55C10.1798 89.48 9.66984 88.14 9.19984 86.91C8.78984 85.65 8.42984 84.39 8.22984 83.11C7.93984 81.54 7.76984 79.97 7.59984 78.41C7.35984 76.04 7.27984 73.65 7.20984 71.3C7.14984 69.47 7.10984 67.67 7.20984 65.86C7.23984 65.46 7.23984 65.07 7.28984 64.67C7.43984 63.18 7.61984 62.71 7.84984 62.43C7.89984 62.36 7.95984 62.28 7.99984 62.24C8.15984 62.13 8.16984 62.74 8.14984 63.81C8.10984 67 8.44984 70.36 8.83984 73.7C9.16984 76.18 9.47984 78.66 9.98984 81.08H9.93984V81.09Z" fill="#231F20"/>
<path d="M10.1601 22.29C10.7401 21.36 11.7801 20.58 12.6801 20.17C13.6001 19.76 14.5201 19.44 15.4501 19.19C16.1201 19 16.7801 18.79 17.4601 18.67C19.8501 18.24 22.2501 18.04 24.6401 17.91C25.7001 17.86 26.7601 17.78 27.8201 17.82C29.1701 17.82 30.5401 17.94 31.8601 18.26C32.2701 18.35 32.2101 18.36 31.8501 18.39C31.4901 18.39 30.8301 18.49 30.0701 18.57C28.7201 18.71 27.3801 18.84 26.0301 18.98C24.6801 19.1 23.3401 19.24 21.9801 19.39C20.3601 19.56 18.7101 20 17.1201 20.43C15.4101 20.89 13.5501 21.44 12.3601 22.45C11.6601 23.08 11.1801 24.1 10.8101 25.12C10.2501 26.69 9.85011 28.37 9.60011 30.05C9.40011 31.36 9.41011 32.67 9.32011 33.97C9.30011 34.26 9.30011 34.54 9.28011 34.83C9.09011 35.9 8.90011 36.23 8.51011 36.43C8.42011 36.48 8.33011 36.54 8.25011 36.56C7.97011 36.64 7.76011 36.18 7.63011 35.37C7.29011 32.96 7.60011 30.43 8.07011 27.89C8.27011 26.95 8.47011 26 8.82011 25.06C9.15011 24.12 9.53011 23.18 10.1301 22.26L10.1701 22.28L10.1601 22.29Z" fill="#231F20"/>
<path d="M14.4401 56.33C14.6101 56.15 14.6901 55.93 14.7601 55.69C14.7601 55.6 14.7301 55.52 14.7501 55.43C14.7601 55.12 14.7501 54.73 14.5401 54.38C14.4401 54.24 14.3201 54.11 14.1601 54.02C13.9601 53.9 13.7601 53.81 13.5901 53.57C13.5401 53.49 13.6201 53.3 13.7701 53.11C13.9201 52.92 14.1601 52.72 14.3601 52.74C15.0201 52.85 15.6401 53.33 15.9301 54C16.0801 54.4 16.3501 54.77 16.4001 55.22C16.4801 55.7 16.4001 56.18 16.2701 56.61C16.1801 56.88 16.0601 57.13 15.9201 57.37C15.7101 57.73 15.4001 58.01 15.1301 58.3C14.9101 58.52 14.7401 58.79 14.4801 59.01C14.4301 59.06 14.3801 59.12 14.3101 59.15C14.0701 59.27 13.9401 59.19 13.7401 58.79L13.6101 58.52C13.4801 58.21 13.4601 57.91 13.5201 57.75C13.7001 57.3 13.8701 57.08 14.0301 56.83C14.1401 56.64 14.2801 56.49 14.4001 56.31H14.4401V56.33Z" fill="#231F20"/>
<path d="M5.89004 40.94C6.03004 37.55 6.24004 34.16 6.58004 30.76C6.78004 29.05 6.98004 27.35 7.31004 25.62C7.46004 24.76 7.67004 23.89 7.89004 23.01C8.01004 22.57 8.17004 22.12 8.31004 21.68C8.37004 21.46 8.46004 21.23 8.57004 21L8.92004 20.21C9.28004 19.57 9.82004 18.98 10.51 18.63C11.04 18.34 11.51 18.16 11.97 18C12.88 17.69 13.75 17.48 14.62 17.29C16.34 16.92 18.04 16.67 19.74 16.44C23.13 16 26.5 15.71 29.88 15.47C34.8 15.13 39.72 14.82 44.63 14.69C53.3 14.48 61.96 14.51 70.63 14.83C74.96 14.99 79.3 15.23 83.63 15.59C87.96 15.99 92.29 16.45 96.63 17.49C97.59 17.73 98.5601 18.02 99.55 18.43C100.04 18.64 100.55 18.9 101.06 19.29L101.45 19.64C101.56 19.76 101.65 19.89 101.75 20.02C101.96 20.28 102.09 20.53 102.23 20.78C102.74 21.79 103.04 22.77 103.29 23.75C103.54 24.73 103.72 25.7 103.87 26.67C104.47 30.55 104.71 34.4 104.86 38.23C105.04 43.15 105.06 48.07 104.89 52.98C104.7 57.89 104.42 62.82 103.29 67.64C102.88 69.13 102.62 69.76 102.52 69.71C102.4 69.65 102.39 68.89 102.2 67.58C102.03 66.27 101.75 64.41 101.6 62.2C101.52 61.09 101.42 59.89 101.39 58.62C101.39 57.35 101.39 56.01 101.45 54.62C101.64 49.68 101.69 44.73 101.57 39.8C101.51 37.34 101.4 34.88 101.21 32.44C101.01 30.02 100.77 27.57 100.28 25.3C100.05 24.19 99.73 23.04 99.34 22.3C99.29 22.22 99.25 22.11 99.21 22.05C99.17 22.01 99.13 21.96 99.1 21.91C99.11 21.88 99.05 21.91 99.12 21.84C99.0301 21.91 99.08 21.85 99.06 21.87C99.05 21.87 99.04 21.85 99.03 21.84C99.02 21.81 98.91 21.76 98.86 21.72C98.55 21.53 98.09 21.32 97.57 21.15C95.48 20.45 93.03 20.04 90.63 19.7C85.77 19.04 80.8 18.61 75.82 18.27C63.88 17.49 51.37 17.71 39.13 18.2C32.41 18.5 25.66 18.88 19.05 19.8C17.41 20.04 15.76 20.31 14.22 20.71C13.46 20.91 12.67 21.14 12.13 21.43C11.95 21.52 11.82 21.61 11.74 21.79L11.55 22.2C11.47 22.36 11.39 22.53 11.34 22.72C10.31 25.67 9.90004 29.07 9.53004 32.36C8.72004 40.57 8.67004 48.9 8.78004 57.19C8.90004 63.48 9.15004 69.78 9.63004 76.05C9.87004 79.18 10.17 82.31 10.62 85.38C10.75 86.14 10.86 86.91 11.02 87.65C11.16 88.38 11.37 89.17 11.59 89.67C11.76 90.01 12.4 90.44 13.03 90.73C13.66 91.05 14.37 91.28 15.09 91.5C19.63 92.73 24.48 92.99 29.23 93.19C34 93.35 38.78 93.33 43.58 93.26C45.69 93.21 47.76 93.17 49.89 93.12C57.8 92.99 60.33 93.13 62.04 93.99C62.43 94.18 62.94 94.36 63.16 94.53C63.91 95.1 60.7 95.73 54.91 95.93C46.31 96.25 37.45 96.49 28.4 96.05C26.14 95.93 23.86 95.77 21.57 95.51C19.27 95.25 16.96 94.93 14.6 94.32C13.41 93.98 12.21 93.6 10.93 92.85C10.61 92.66 10.29 92.46 9.96004 92.15C9.54004 91.86 9.26004 91.32 8.96004 90.86C8.84004 90.63 8.80004 90.46 8.73004 90.28C8.67004 90.11 8.59004 89.91 8.55004 89.75L8.30004 88.82C7.76004 86.42 7.48004 84.15 7.21004 81.85C6.46004 75.04 6.08004 68.24 5.84004 61.43C5.63004 54.61 5.58004 47.79 5.81004 40.95H5.89004V40.94Z" fill="#231F20"/>
<path d="M48.3798 21.96C54.9698 21.9 61.5498 21.97 68.1398 22.19C70.5398 22.27 72.9498 22.29 75.3598 22.45C78.2998 22.64 81.2398 22.89 84.1798 23.26C85.6498 23.45 87.1298 23.67 88.6098 23.98C89.3498 24.14 90.0998 24.32 90.8598 24.58C91.2398 24.71 91.6298 24.86 92.0398 25.06C92.4298 25.25 92.9698 25.64 93.2998 26.1C93.6998 26.84 94.0398 27.46 94.2298 28.14C94.4898 28.81 94.6198 29.48 94.7698 30.15C95.0498 31.48 95.1998 32.81 95.3198 34.12C95.6198 37.93 95.6498 41.72 95.5798 45.45C95.5398 47.85 95.4698 50.25 95.3598 52.64C95.2398 55.03 95.1198 57.42 94.5898 59.78C94.2198 61.25 94.1798 61.05 93.7698 59.78C93.5698 59.14 93.2198 58.23 93.0198 57.14C92.9098 56.59 92.7798 56 92.7198 55.37C92.6698 54.74 92.6498 54.08 92.6698 53.39C92.7798 48.9 92.8398 44.43 92.8298 40.01C92.8098 37.8 92.7598 35.59 92.5298 33.44C92.4898 32.89 92.3998 32.38 92.3298 31.85C92.2698 31.31 92.1598 30.81 92.0498 30.31C91.9598 29.79 91.7998 29.33 91.6498 28.86C91.5798 28.62 91.4998 28.39 91.3998 28.21L91.1398 27.67C91.0898 27.59 91.1098 27.58 90.8498 27.43C90.6098 27.3 90.3098 27.18 89.9998 27.07C88.7598 26.64 87.3198 26.37 85.8898 26.15C84.4498 25.93 82.9698 25.78 81.4798 25.66C78.5098 25.41 75.4898 25.29 72.4998 25.16C65.9298 24.87 59.3298 24.76 52.7298 24.77C48.6698 24.78 44.6098 24.84 40.5498 24.97C37.4798 25.07 34.3998 25.2 31.3298 25.39C28.2698 25.59 25.1998 25.82 22.2498 26.32C21.7498 26.41 21.2398 26.51 20.7898 26.64C20.5298 26.71 20.3998 26.76 20.2798 26.81C20.1498 26.87 20.0098 26.94 19.9798 27.09C19.9298 27.22 19.8798 27.28 19.8198 27.47L19.6398 28.06C19.5498 28.48 19.4498 28.89 19.3898 29.33C19.2598 30.2 19.1698 31.08 19.1098 31.98C18.9898 33.77 18.9498 35.57 18.9298 37.39C18.9298 38.42 18.9298 39.43 18.9298 40.46C18.9098 42.39 18.8798 43.66 18.7098 44.56C18.4798 45.46 18.2398 45.97 17.9298 46.38C17.7898 46.57 17.6498 46.81 17.5298 46.92C17.3198 47.1 17.1398 46.79 16.9298 46.09C16.7298 45.39 16.4298 44.29 16.3998 42.87C16.2598 40.19 16.1598 37.45 16.2098 34.64C16.2398 33.23 16.2898 31.82 16.4398 30.35C16.5098 29.62 16.6098 28.88 16.7698 28.11C16.8498 27.72 16.9198 27.34 17.0598 26.92C17.1298 26.7 17.1698 26.53 17.2798 26.26L17.7398 25.32L17.9198 25.1L17.9598 25.04C17.9598 25.04 17.9598 25 18.0098 25.04L18.0298 25.01L18.1298 24.91C18.2498 24.76 18.4198 24.66 18.5698 24.54C18.8998 24.34 19.2598 24.18 19.6398 24.06C20.1798 23.89 20.5698 23.81 21.0198 23.71C21.8698 23.53 22.6998 23.41 23.5198 23.29C25.1598 23.07 26.7898 22.9 28.4198 22.76C35.0798 22.21 41.7298 22.01 48.3798 21.88V21.95V21.96Z" fill="#231F20"/>
<path d="M22.5499 83.1101C25.2299 83.8101 28.2499 84.0801 31.2199 84.2601C32.3099 84.3201 33.4099 84.2801 34.4999 84.3201L40.3199 84.4901C42.2699 84.5701 44.2099 84.6201 46.1699 84.6501C47.8999 84.6801 49.6399 84.6001 51.3599 84.6001C53.5699 84.6001 55.8099 84.6301 58.0199 85.1901C58.6999 85.4001 58.5999 85.4 58.0099 85.59C57.4099 85.81 56.3499 86.2501 55.0899 86.4701C52.8699 86.8501 50.6299 87.0901 48.3799 87.1401C46.1299 87.2201 43.8599 87.2501 41.5799 87.1701C38.8499 87.0801 36.0099 87.1901 33.2099 87.1201C30.1299 87.0101 27.0399 86.8301 23.9199 86.3001C22.9599 86.1301 21.9999 85.9301 21.0399 85.6201C20.0799 85.3001 19.0899 84.9701 18.1699 84.1101C17.4099 83.3801 17.2199 82.5401 16.9699 81.8001L16.7299 80.6801L16.5699 79.5701C16.4099 78.1001 16.3499 76.6601 16.3099 75.2201C16.2499 72.9901 16.1499 70.8201 16.1599 68.6201C16.1599 68.1401 16.1399 67.6601 16.2199 67.1801C16.4599 65.3901 16.8199 64.8401 17.3299 64.5001C17.4499 64.4201 17.5699 64.3201 17.6799 64.2801C18.0399 64.1401 18.3099 64.9001 18.5499 66.2101C18.6199 66.7001 18.6899 67.1901 18.7499 67.6801C18.8199 68.1701 18.7999 68.6601 18.8299 69.1501C18.8599 70.1301 18.8999 71.1201 18.9299 72.1201C18.9899 74.1001 19.0799 76.1101 19.2399 78.0401C19.3099 78.7501 19.3899 79.4501 19.4999 80.1201L19.7099 81.0601L19.8399 81.4501C19.8599 81.51 19.8799 81.5901 19.8999 81.6401L19.9699 81.7601C20.0099 81.8201 20.0399 81.9701 20.0799 81.9701C20.1299 82.0001 20.0799 82.0301 20.1899 82.0801C20.2699 82.1301 20.3199 82.1901 20.4199 82.2501L20.7599 82.4301C21.2699 82.6701 21.8899 82.8901 22.5599 83.0401V83.1101H22.5499Z" fill="#231F20"/>
<path d="M18.94 54.76C19.12 55.64 18.94 56.44 18.71 57.11C18.45 57.85 17.93 58.52 17.33 58.96C16.9 59.29 16.46 59.58 15.96 59.72C15.08 59.96 14.16 59.9 13.33 59.58C12.51 59.25 11.79 58.63 11.44 57.87C11.14 57.21 10.97 56.54 10.97 55.87C10.93 55.02 11.35 54.13 12.06 53.68C12.29 53.54 12.41 53.75 12.54 54.06C12.64 54.37 12.9 54.82 12.98 55.08C13.01 55.32 13.19 55.55 13.21 55.73C13.27 55.92 13.35 56.09 13.44 56.23C13.52 56.38 13.63 56.47 13.68 56.58C13.73 56.7 13.78 56.83 13.88 56.96C14.15 57.31 14.75 57.15 15.13 56.96C15.6 56.74 15.87 56.42 15.98 55.82C16.05 55.5 15.99 55.23 15.79 54.97C15.51 54.56 14.82 54.25 14.24 54.37C13.77 54.46 13.58 54.85 13.58 55.15C13.56 55.21 13.6 55.28 13.59 55.34C13.57 55.53 13.36 55.62 12.51 55.65L11.93 55.69C11.29 55.74 10.77 55.45 10.67 54.77C10.62 53.75 11.19 52.56 12.23 51.91C13.3 51.27 14.45 51.15 15.49 51.37C16.27 51.55 17.02 51.88 17.67 52.46C18.3 53.04 18.86 53.85 19.02 54.75L18.95 54.77L18.94 54.76Z" fill="#231F20"/>
<path d="M58.3898 55.01C57.1098 55.7 55.8398 56.42 54.5798 57.17C54.1198 57.44 53.6998 57.76 53.2298 58.03C51.5998 58.98 49.9598 59.93 48.3298 60.87C47.6098 61.3 46.9098 61.76 46.2198 62.23C45.3298 62.83 44.4698 63.47 43.4598 63.88C42.8398 64.15 42.8598 62.56 43.8298 61.84C45.5798 60.58 47.3498 59.33 49.2698 58.26C50.4298 57.64 51.4998 56.78 52.6198 56.04C53.8598 55.23 55.1098 54.45 56.3698 53.67L58.7098 52.25C59.8898 51.53 61.1098 50.86 62.2898 50.16C63.2198 49.63 64.0498 48.95 64.9998 48.45C65.2098 48.34 65.3998 48.21 65.6198 48.12C66.4398 47.78 66.7598 47.82 67.1398 48.21C67.2298 48.3 67.3198 48.38 67.3898 48.48C67.6198 48.8 67.4298 49.25 66.9398 49.67C65.5398 50.98 63.8898 51.92 62.2098 52.91C60.9498 53.63 59.6598 54.31 58.3998 55.06L58.3698 55.01H58.3898Z" fill="#231F20"/>
<path d="M55.1599 47.25C53.4399 48.17 51.6999 49.07 49.9999 50.02L48.1599 51.11C45.9499 52.31 43.7599 53.54 41.5799 54.78C40.6199 55.34 39.6699 55.94 38.7499 56.55C37.5699 57.33 36.4199 58.17 35.1499 58.83C34.7599 59.03 34.6199 58.74 34.7399 58.26C34.8599 57.78 35.2299 57.09 35.8899 56.59C38.2299 54.84 40.6099 53.16 43.1899 51.76C44.7399 50.93 46.2199 49.85 47.7399 48.91C49.4199 47.88 51.1199 46.88 52.8199 45.88L55.9799 44.07C57.5699 43.15 59.1999 42.27 60.7699 41.33C61.9899 40.6 63.1199 39.77 64.3199 39.01C64.5799 38.84 64.8299 38.66 65.0999 38.5C66.1199 37.93 66.5399 37.92 67.0499 38.4C67.1699 38.51 67.2999 38.61 67.3899 38.73C67.7099 39.14 67.4799 39.73 66.8099 40.24C64.8299 41.75 62.6099 43.13 60.3099 44.43C58.5999 45.38 56.8799 46.34 55.1699 47.3L55.1399 47.25H55.1599Z" fill="#231F20"/>
<path d="M105.51 18.43C105.51 18.61 105.42 18.78 105.35 18.93C105.32 18.98 105.22 18.99 105.19 18.93C105.14 18.84 105.09 18.74 105 18.65C104.99 18.62 104.78 18.39 104.61 18.11C104.45 17.83 104.23 17.53 104.13 17.38C103.97 17.07 103.85 16.76 103.75 16.44C103.56 15.79 103.29 15.16 103.14 14.51C103.11 14.37 103.1 14.22 103.11 14.06C103.15 13.54 103.06 13.04 102.91 12.55C102.89 12.47 102.88 12.38 102.78 12.31C102.62 12.2 102.32 10.85 102.35 10.66C102.42 10.2 102.42 9.74996 102.51 9.27996C102.52 9.20996 102.48 9.14996 102.57 9.07996C102.79 8.90996 102.73 8.77996 102.73 8.63996C102.72 8.44996 102.76 8.24996 102.82 8.04996C102.88 7.93996 102.98 7.82996 103.11 7.71996C103.22 7.61996 103.44 7.62996 103.48 7.64996C103.59 7.71996 103.71 7.62996 103.81 7.59996C103.85 7.59996 103.89 7.57996 103.93 7.57996C103.99 7.57996 104.29 7.80996 104.52 8.05996C104.75 8.31996 104.95 8.58996 104.96 8.64996C104.96 8.64996 104.99 8.75996 105.04 8.90996C105.08 9.05996 105.17 9.25996 105.21 9.46996C105.32 9.87996 105.43 10.32 105.46 10.4C105.49 10.49 105.46 10.59 105.43 10.69C105.43 10.74 105.76 11.98 105.76 12.03C105.76 12.3 105.88 12.55 105.72 12.84C105.69 12.9 105.71 12.95 105.72 13C105.81 13.45 105.79 13.91 105.8 14.37C105.8 14.61 105.83 14.84 105.84 15.07C105.84 15.11 105.82 15.16 105.81 15.2C105.8 15.26 105.78 15.31 105.78 15.36C105.82 15.91 105.78 16.48 105.87 17.02C105.88 17.15 105.67 17.79 105.69 17.94C105.69 18.02 105.49 18.33 105.51 18.4V18.43Z" fill="#231F20"/>
<path d="M109.07 21.3401C109.05 21.5401 108.78 21.5101 108.38 21.3601C108.25 21.3101 107.95 21.0601 107.93 20.9901C107.9 20.8401 107.88 20.7001 107.88 20.5701C107.88 20.4901 108.29 19.5701 108.42 19.2401C108.54 18.9201 108.72 18.6501 108.91 18.3801C109.29 17.8401 109.68 17.3001 110.11 16.8001C110.2 16.6901 110.32 16.5901 110.45 16.5101C110.9 16.2401 111.24 15.8801 111.55 15.4701C111.6 15.4001 111.67 15.3501 111.66 15.2301C111.65 15.0301 112.58 14.0301 112.76 13.9501C113.24 13.7301 113.6 13.5601 114.02 13.3701C114.08 13.3401 114.11 13.2701 114.22 13.3101C114.48 13.4001 114.56 13.2901 114.68 13.2301C114.84 13.1301 115.03 13.0601 115.24 13.0301C115.35 13.0101 115.5 13.0501 115.63 13.0601C115.75 13.0701 115.89 13.3001 115.89 13.3501C115.89 13.4701 116.02 13.5301 116.1 13.6101C116.13 13.6401 116.16 13.6701 116.18 13.7001C116.2 13.7301 116.13 14.0501 116.08 14.4101C116 14.7301 115.93 15.0801 115.88 15.1101C115.88 15.1201 115.63 15.4201 115.38 15.7401C115.14 16.0501 114.89 16.3801 114.82 16.4601C114.77 16.5401 114.66 16.5601 114.57 16.5901C114.52 16.6001 113.79 17.5601 113.75 17.5901C113.55 17.7401 113.43 17.9801 113.11 18.0001C113.05 18.0001 113.02 18.0501 112.98 18.0901C112.7 18.4101 112.34 18.6601 112 18.9401C111.83 19.0801 111.7 19.2601 111.54 19.4101C111.51 19.4401 111.46 19.4501 111.42 19.4701C111.37 19.4901 111.32 19.5101 111.28 19.5501C110.93 19.9301 110.48 20.2401 110.18 20.6701C110.11 20.7701 109.56 21.0601 109.49 21.1801C109.45 21.2401 109.06 21.2601 109.05 21.3401H109.07Z" fill="#231F20"/>
<path d="M108.8 25.33C108.61 25.42 108.45 25.21 108.3 24.84C108.25 24.72 108.26 24.37 108.31 24.32C108.42 24.22 108.52 24.11 108.63 24.03C108.7 23.99 109.76 23.68 110.13 23.53C110.48 23.39 110.84 23.37 111.19 23.34L113.35 23.18C113.51 23.18 113.67 23.18 113.83 23.23C114.37 23.39 114.92 23.39 115.47 23.33C115.56 23.33 115.65 23.33 115.75 23.24C115.91 23.08 117.4 23.16 117.58 23.24C118.04 23.46 118.51 23.61 118.97 23.79C119.04 23.82 119.11 23.79 119.16 23.91C119.28 24.2 119.43 24.17 119.57 24.2C119.77 24.25 119.97 24.32 120.16 24.43C120.26 24.49 120.34 24.65 120.42 24.78C120.5 24.9 120.4 25.3 120.37 25.34C120.27 25.46 120.32 25.65 120.31 25.82C120.31 25.88 120.31 25.95 120.29 26C120.27 26.1 119.05 26.69 118.93 26.68C118.92 26.68 118.49 26.69 118.04 26.71C117.59 26.73 117.12 26.75 117.03 26.77C116.93 26.79 116.83 26.72 116.74 26.67C116.69 26.64 115.35 26.77 115.3 26.73C115.03 26.66 114.75 26.73 114.49 26.46C114.44 26.41 114.38 26.42 114.33 26.41C113.85 26.39 113.38 26.25 112.91 26.15C112.67 26.1 112.42 26.1 112.18 26.08C112.14 26.08 112.09 26.04 112.05 26.02C112 26 111.94 25.97 111.89 25.96C111.31 25.93 110.74 25.79 110.16 25.81C110.03 25.81 109.39 25.53 109.24 25.55C109.15 25.55 108.87 25.26 108.79 25.3L108.8 25.33Z" fill="#231F20"/>
<path d="M95.45 117.08C95.45 117.08 90.46 108.22 91.98 107.67C93.5 107.12 106.13 101.69 106.13 101.69L110.78 99.29L118.46 109.37C118.46 109.37 113.5 106.4 113.07 110.49C112.63 114.64 106.54 117.67 104.38 115.98C100.8 113.16 96.64 118.11 96.79 119.27C96.94 120.43 95.45 117.09 95.45 117.09V117.08Z" fill="#231F20"/>
<path d="M106.62 93.43C105.38 91.12 104.23 88.78 103.18 86.36C102.8 85.47 102.38 84.61 102.04 83.74C100.83 80.67 99.7199 77.61 98.0099 74.93C97.6199 74.34 97.1999 73.78 96.7299 73.28C96.5099 73.01 96.2799 72.76 96.0199 72.53C95.7699 72.3 95.5299 72.05 95.2599 71.84L94.1999 71.08C93.8299 70.86 93.4799 70.61 93.1199 70.36L91.9599 69.73C91.5699 69.52 91.1399 69.39 90.7099 69.2C90.1799 68.97 90.2599 68.77 90.8099 68.56C91.0899 68.45 91.4799 68.34 91.9799 68.24C92.4799 68.15 93.0499 68.18 93.6699 68.29C94.2199 68.38 94.7099 68.61 95.2499 68.78C95.5299 68.85 95.7599 69 95.9799 69.16L96.6599 69.61C97.1299 69.9 97.5099 70.28 97.9299 70.62C98.3599 70.96 98.7099 71.36 99.0399 71.77C100.39 73.41 101.38 75.23 102.15 77.09C103.07 79.31 104.02 81.56 104.85 83.77C105.72 86.17 106.76 88.53 107.88 90.85C108.57 92.28 109.3 93.7 110.06 95.1C111.22 97.21 112.43 99.32 113.74 101.33C114.76 102.89 115.87 104.35 116.95 105.84C117.19 106.17 117.43 106.49 117.67 106.82C118.51 108.09 118.6 108.61 118.49 109.09C118.46 109.2 118.45 109.33 118.4 109.41C118.26 109.69 117.69 109.32 116.88 108.53C114.64 106.05 112.61 103.18 110.67 100.24C109.23 98.05 107.87 95.78 106.57 93.49L106.62 93.46V93.43Z" fill="#231F20"/>
<path d="M84.0899 65.59C84.5599 65.97 85.0199 66.35 85.4199 66.77C85.8499 67.17 86.2399 67.6 86.6199 68.03C86.9099 68.33 87.2099 68.62 87.4599 68.95C88.3399 70.12 89.1099 71.36 89.7399 72.65C90.0299 73.22 90.3199 73.78 90.6299 74.32C91.0699 75 91.2599 75.82 91.3699 76.63C91.3999 76.89 91.2099 76.93 90.8899 76.85C90.5799 76.76 90.0499 76.59 89.7199 76.27L89.2799 75.84C89.1299 75.7 89.0599 75.52 88.9499 75.36C88.7399 75.04 88.5299 74.72 88.3299 74.39C88.1299 74.06 87.9199 73.75 87.7299 73.41C87.5599 73.06 87.3999 72.71 87.2299 72.36C86.8399 71.5 86.1499 70.81 85.5399 70.09C85.2199 69.68 84.8499 69.33 84.4999 68.94C84.1299 68.59 83.7599 68.23 83.3599 67.91L82.6099 67.34C82.3499 67.16 82.0799 67.02 81.8099 66.86C81.4099 66.6 80.9599 66.46 80.5299 66.26C80.0899 66.11 79.6299 66 79.1799 65.93C78.8199 65.92 78.4699 65.94 78.1199 65.97C77.7699 66.05 77.4399 66.17 77.1099 66.24C76.9599 66.26 76.8299 66.34 76.6799 66.38C76.1699 66.61 75.8599 66.11 75.5899 65.7C75.5299 65.6 75.4599 65.5 75.4099 65.41C75.3299 65.26 75.3299 65.1 75.3999 64.88C75.4699 64.67 75.5899 64.35 75.8199 64.17C77.2199 63.24 79.1699 63.29 80.7999 63.81C81.4199 63.98 81.9899 64.28 82.5599 64.54C83.0799 64.87 83.6499 65.16 84.1199 65.54L84.0899 65.59Z" fill="#231F20"/>
<path d="M71.8302 82.37C73.4002 82.96 74.9302 83.54 76.4002 83.86C77.1302 84.02 77.8402 84.11 78.4302 84.06C78.7302 84.05 78.9702 83.98 79.1902 83.91L79.2502 83.88C79.2502 83.88 79.2802 83.88 79.2902 83.87C79.3202 83.85 79.3502 83.83 79.3802 83.8C79.4402 83.77 79.4502 83.7 79.4402 83.64C79.4202 83.56 79.4402 83.57 79.3602 83.41C79.1202 82.9 78.7802 82.34 78.4302 81.8C77.7202 80.7 76.9202 79.61 76.1002 78.53C74.7702 76.77 73.3202 75.08 71.9402 73.32C69.5002 70.22 67.0502 67.12 64.8202 63.77C64.2702 62.92 63.7302 62.06 63.2602 61.12C63.1302 60.89 63.0102 60.65 62.8902 60.41C62.8302 60.28 62.7702 60.17 62.7202 60.03C62.6602 59.86 62.5602 59.67 62.5202 59.48C62.2702 58.73 62.2102 57.95 62.5302 57.3C62.8702 56.64 63.5902 56.28 64.2902 56.1C64.6502 56 65.0402 56.04 65.4102 56.04C65.8102 56.08 66.1202 56.15 66.3802 56.23C67.4902 56.56 68.4202 57.07 69.3002 57.63C72.3602 59.66 74.9202 62.17 77.2902 64.78C78.8002 66.47 80.2502 68.23 81.5302 70.12C82.7902 72.01 83.9902 74.01 84.5402 76.28C84.5702 77.04 84.5402 77.37 84.4302 77.39C84.3202 77.41 84.0902 77.12 83.5802 76.7C83.2802 76.51 83.0502 76.23 82.7502 75.94C82.4502 75.63 82.1202 75.3 81.7702 74.95C81.1002 74.21 80.4002 73.32 79.7002 72.3C77.2302 68.7 74.3102 65.31 71.0602 62.42C69.4502 61 67.6602 59.65 65.9802 58.92C65.7802 58.86 65.5702 58.76 65.4002 58.74C65.3402 58.71 65.3202 58.71 65.2702 58.7C65.1902 58.69 65.0702 58.7 65.0102 58.79C64.9602 58.87 64.9802 58.99 64.9902 59.1C65.1002 59.47 65.3002 60.02 65.5602 60.47C66.8002 62.74 68.5202 64.96 70.2502 67.14C72.0202 69.32 73.8102 71.51 75.5802 73.68C76.8702 75.3 78.1602 76.92 79.4002 78.62C80.0202 79.47 80.6202 80.34 81.1902 81.28C81.3302 81.52 81.4702 81.76 81.6002 82.01C81.6702 82.14 81.7202 82.25 81.8002 82.42C81.8902 82.61 81.9602 82.8 82.0302 82.99C82.3102 83.74 82.3502 84.63 81.8102 85.23C81.5502 85.53 81.2402 85.79 80.9202 86.03C80.7702 86.14 80.5402 86.24 80.3702 86.34C80.2202 86.43 80.0602 86.47 79.9002 86.52C79.2702 86.74 78.6402 86.8 78.0502 86.8C76.8702 86.8 75.7902 86.56 74.7502 86.29C72.8302 85.76 71.0502 85.04 69.3002 84.39C68.4302 84.08 67.5502 83.77 66.7502 83.65C66.3602 83.58 65.9902 83.63 65.9402 83.67C65.9402 83.7 65.9102 83.67 65.8902 83.75C65.8602 83.8 65.8502 83.98 65.8502 84.12C65.8502 84.58 66.0902 85.09 66.4802 85.57C66.8502 86.05 67.3402 86.5 67.8802 86.91C68.9502 87.74 70.1802 88.45 71.4202 89.11C73.9302 90.42 76.5602 91.56 79.1902 92.68C81.2302 93.55 83.2702 94.39 85.3002 95.31C87.3202 96.24 89.3302 97.22 91.2202 98.62C92.0402 99.24 92.8702 99.96 93.5202 100.84C94.0702 101.57 94.5102 102.21 94.8402 102.76C95.1702 103.32 95.3702 103.8 95.5302 104.2C95.6802 104.6 95.7802 104.93 95.8202 105.23C95.8502 105.53 95.8202 105.8 95.8002 106.04C95.7702 106.26 95.8002 106.52 95.7602 106.66C95.7202 107.11 94.3502 106.16 92.7602 104.13L91.8802 102.99C91.5902 102.62 91.2602 102.19 91.0002 101.94C90.4402 101.35 89.7402 100.8 88.9702 100.28C87.4202 99.26 85.6702 98.37 83.8702 97.53C80.2502 95.85 76.4102 94.3 72.5702 92.55C71.1402 91.89 69.7202 91.19 68.3002 90.35C66.9002 89.47 65.4502 88.61 64.1902 86.94C63.5802 86.1 63.0502 84.9 63.2202 83.48C63.2202 83.32 63.3102 83.06 63.3702 82.86C63.4202 82.66 63.5502 82.42 63.7102 82.19C63.8502 81.96 64.0402 81.77 64.2602 81.6C64.4802 81.41 64.7002 81.29 64.9102 81.21C65.7902 80.86 66.4302 80.92 66.9302 80.97C67.9702 81.09 68.7602 81.35 69.5502 81.58C70.3302 81.83 71.0702 82.09 71.8002 82.34L71.7802 82.41L71.8302 82.37Z" fill="#231F20"/>
<path d="M100.87 105.85C99.0699 106.44 97.2299 106.93 95.5699 107.67C95.2699 107.8 94.9699 107.95 94.6999 108.1L94.2899 108.33C94.1699 108.4 93.9799 108.5 93.9699 108.5C93.7999 108.58 93.5499 108.64 93.5399 108.87C93.5399 108.96 93.5299 108.96 93.5399 109.12C93.5599 109.29 93.6299 109.49 93.6699 109.68L93.9999 110.86C94.2199 111.67 94.4999 112.48 94.8099 113.27C95.1999 114.24 95.6599 115.2 96.1499 116.12C96.4899 116.7 96.7799 117.3 97.0699 117.91C97.2099 118.21 97.3699 118.51 97.4699 118.83C97.5699 119.16 97.6699 119.5 97.7799 119.83C97.8999 120.26 97.7499 120.33 97.2399 120.27C96.9899 120.24 96.6299 120.17 96.2199 120.06C96.0199 120 95.7799 119.95 95.5899 119.85C95.4099 119.74 95.2299 119.62 95.0799 119.47C94.7999 119.2 94.5499 118.93 94.2899 118.66L93.9099 118.24L93.5999 117.78C93.1999 117.17 92.8099 116.54 92.4699 115.89C91.8799 114.55 91.3899 113.16 91.0599 111.67L90.8199 110.4C90.7799 110.18 90.7299 109.97 90.6999 109.73C90.6299 109.43 90.6099 109.08 90.5799 108.75C90.5699 108.38 90.6599 108 90.8099 107.66C91.0199 107.34 91.3099 107.08 91.6099 106.84C91.8999 106.58 92.2199 106.38 92.5399 106.18C92.8199 106.01 93.0099 105.92 93.2499 105.81C94.1699 105.38 95.0799 105.04 95.9899 104.7L98.6699 103.67C99.7699 103.26 100.86 102.86 101.95 102.43C103.58 101.77 105.24 101.15 106.79 100.36C107.99 99.74 109.06 98.94 110.1 98.16C110.33 97.99 110.53 97.79 110.77 97.62C111.64 97.03 112.07 97.08 112.7 97.53C112.85 97.64 113.01 97.73 113.13 97.84C113.56 98.22 113.49 98.9 112.93 99.62C111.14 101.57 108.72 102.79 106.34 103.87C104.56 104.66 102.71 105.25 100.91 105.89L100.88 105.83L100.87 105.85Z" fill="#231F20"/>
</svg>
