<svg width="128" height="128" viewBox="0 0 128 128" fill="none" xmlns="http://www.w3.org/2000/svg">
<path d="M58.4699 28.83C58.0299 28.94 52.0799 29.05 51.2199 31.8C50.3199 34.71 53.6699 37.66 54.9699 39.57C59.2999 45.88 46.8999 28.83 46.8999 28.83H58.4599H58.4699Z" fill="#231F20"/>
<path d="M56.46 46.01C56.46 46.01 59.34 49.96 59.08 54.39C58.81 59 57.24 60.78 56.17 63.56C55.33 65.73 56.51 65.3 57.58 63.69C59.55 60.72 62.91 53.06 62.79 53.27C62.6 53.59 56.46 46.01 56.46 46.01Z" fill="#231F20"/>
<path d="M50.5 37.03C50.21 36.89 47.96 33.72 46.04 34.02C44.59 34.25 42.74 36.37 41.33 38.6C38.38 43.26 46.13 29.63 46.13 29.63L50.49 37.03H50.5Z" fill="#231F20"/>
<path d="M35.9001 102.86C34.3801 104.92 33.1501 107.61 30.8101 107.61C28.3001 107.61 25.3301 104.04 25.3301 104.04L31.7601 112.36L35.9101 102.85L35.9001 102.86Z" fill="#231F20"/>
<path d="M20.82 96.74C19.56 94.63 17.06 90.62 17.17 87.56C17.34 83.05 21.09 77.51 21.34 77.14L13.52 88.22L20.82 96.74Z" fill="#231F20"/>
<path d="M42.2798 113.4C40.0198 113.1 37.3698 112.17 36.3498 110.29C35.3398 108.43 37.0898 104.06 37.3198 103.67L32.2998 113.39H42.2798V113.4Z" fill="#231F20"/>
<path d="M105.91 87.5601C106.16 87.8801 109.51 87.9401 110.61 89.7801C111.46 91.1901 110.49 93.0301 109.98 94.7701C108.39 100.27 114.05 87.9501 114.05 87.9501L105.9 87.5701L105.91 87.5601Z" fill="#231F20"/>
<path d="M105.14 104.81C104.45 106.22 103.46 109.08 101.58 110.48C99.4198 112.1 93.0898 112.32 93.0898 112.32L103.01 113.34L105.14 104.81Z" fill="#231F20"/>
<path d="M39.9298 42.94C38.8398 44.66 37.7498 46.4 36.6798 48.16L35.5698 50.12C34.2098 52.4 32.8598 54.7 31.4598 56.97C30.8498 57.99 30.2498 59 29.6398 60.01C28.8798 61.31 28.0798 62.6 27.0998 63.76C26.7998 64.13 26.8298 64.07 26.9698 63.69C27.1298 63.32 27.2998 62.57 27.6598 61.78C29.0798 59.07 30.3898 56.31 31.8998 53.62C32.8298 52.02 33.6398 50.27 34.5198 48.59C35.4998 46.75 36.4798 44.9 37.5898 43.12C38.2598 42.02 38.9699 40.93 39.6999 39.86C40.8299 38.25 41.9998 36.66 43.4198 35.24C44.5298 34.19 45.7898 33.05 47.5698 32.83C47.9498 32.76 48.3399 32.78 48.7199 32.82C50.1599 33.1 50.4098 33.62 50.4499 34.06C50.4499 34.17 50.4799 34.29 50.4499 34.38C50.3699 34.72 49.8298 34.62 49.0898 34.52C46.9098 34.07 45.1699 36.01 43.4699 38.02C42.2199 39.56 41.0499 41.23 39.9699 42.97L39.9298 42.95V42.94Z" fill="#231F20"/>
<path d="M36.93 101.69C37.51 100.42 38.14 99.18 38.79 97.97C39.02 97.52 39.22 97.06 39.47 96.62C40.33 95.07 41.35 93.61 42.28 92.13C42.7 91.47 43.09 90.8 43.48 90.13C43.99 89.28 44.41 88.38 45.12 87.64C45.33 87.4 45.4 87.49 45.42 87.8C45.41 88.09 45.49 88.7 45.23 89.2C44.36 91.03 43.47 92.83 42.44 94.57C41.82 95.61 41.35 96.78 40.8 97.88C40.2 99.1 39.62 100.32 39.09 101.56C38.77 102.33 38.45 103.1 38.16 103.87C37.72 105.05 37.32 106.25 37.04 107.47C36.85 108.42 36.79 109.38 36.74 110.33C36.72 110.54 36.73 110.75 36.72 110.96C36.68 111.74 36.45 111.96 35.95 112.09C35.83 112.12 35.72 112.16 35.6 112.17C35.22 112.22 34.93 111.86 34.84 111.24C34.69 109.42 34.99 107.51 35.5 105.67C35.87 104.3 36.34 102.96 36.89 101.67L36.94 101.69H36.93Z" fill="#231F20"/>
<path d="M33.9898 102.91C34.7798 101.91 35.5498 100.84 36.2898 99.75C36.5598 99.35 36.7598 98.92 37.0298 98.52C38.0098 97.13 39.0498 95.7601 39.9698 94.3301C40.1798 94.0101 40.3698 93.69 40.5598 93.36L41.1798 92.4101C41.6998 91.5901 42.2398 90.79 42.8598 90.02C43.0498 89.78 43.0898 89.85 43.0698 90.13C43.0398 90.41 43.0298 90.9301 42.8898 91.4801C42.5998 92.4401 42.3698 93.43 41.9798 94.35C41.5398 95.23 41.0598 96.1001 40.5098 96.9401C39.8398 97.9301 39.3998 99.11 38.7498 100.14C38.0398 101.29 37.3098 102.42 36.5298 103.54C36.0598 104.23 35.5498 104.91 35.0198 105.58C34.8198 105.84 34.5898 106.09 34.3698 106.34C34.1298 106.58 33.8298 106.87 33.5898 107.05C33.0898 107.44 32.5698 107.83 32.0298 108.21C31.5998 108.5 31.1698 108.81 30.6498 109.07C30.1298 109.32 29.4798 109.51 28.8098 109.47C28.5198 109.45 28.2298 109.43 27.9598 109.34C27.4598 109.18 27.1998 108.97 27.0898 108.75C26.9998 108.49 27.0298 108.24 27.1298 107.94C27.1798 107.8 27.2098 107.66 27.2698 107.55C27.3698 107.35 27.5398 107.22 27.7598 107.12C27.9798 107.03 28.2598 106.93 28.4698 106.98C29.1698 107.03 29.3698 106.9 29.8398 106.67C30.3198 106.42 30.9598 105.95 31.6098 105.44C31.8198 105.26 32.1598 105.02 32.2698 104.89C32.4098 104.77 32.6098 104.56 32.7998 104.34C33.1898 103.91 33.5798 103.41 33.9598 102.89L34.0098 102.92L33.9898 102.91Z" fill="#231F20"/>
<path d="M83.9099 39.57C82.3299 36.6 79.3999 32.85 76.8199 31.42C73.2399 29.44 66.6099 29.8 66.4399 29.69L77.8599 28.83L83.9199 39.58L83.9099 39.57Z" fill="#231F20"/>
<path d="M95.4699 112.01C96.5299 112.01 97.5799 112 98.6299 111.96L100.2 111.91L101.68 111.84H101.83C101.83 111.84 101.89 111.81 101.91 111.78L101.94 111.73V111.71L102.03 111.55L102.36 110.83L103.66 107.94L108.77 96.3L111.75 89.51L111.84 89.32L111.9 89.2C111.9 89.2 111.83 89.18 111.79 89.17L111.54 89.14L111.28 89.12L110.47 89.08L106.41 88.95L98.2499 88.79C92.8099 88.71 87.3599 88.66 81.9099 88.64C77.0799 88.63 72.2199 88.71 67.4199 88.83C64.3399 88.92 61.2499 89.02 58.1699 89.05C55.0799 89.09 51.9999 89.12 48.9099 88.9C47.9399 88.69 47.5199 88.55 47.5499 88.45C47.5699 88.33 48.0399 88.21 48.8399 87.86C49.6399 87.5 50.7899 87.21 52.1799 86.89C53.5699 86.57 55.1999 86.32 56.9799 86.25C63.2799 85.89 69.5799 85.91 75.8899 85.87C82.1999 85.87 88.5199 85.93 94.8799 86.11C98.2399 86.2 101.66 86.24 105.11 86.28C106.84 86.31 108.57 86.33 110.3 86.36L111.82 86.41C112.54 86.44 113.28 86.46 113.93 86.58C114.24 86.65 114.5 86.76 114.71 86.88C114.81 86.94 114.91 87.01 114.99 87.08C115.06 87.15 115.2 87.22 115.18 87.36L115.07 88.89C114.58 90 114.09 91.1 113.6 92.19L108.43 103.89L105.82 109.75L104.48 112.67L104.26 113.15C104.16 113.33 104.1 113.55 103.98 113.69L103.65 114.16H103.64V114.18C103.65 114.2 103.52 114.03 103.57 114.11L103.54 114.13L103.48 114.17L103.36 114.24C103.29 114.29 103.19 114.32 103.11 114.37C102.75 114.51 102.31 114.5 101.94 114.53L101.09 114.57C95.7999 114.74 90.5499 114.83 85.2899 114.91C77.3299 114.95 69.3299 115 61.4299 115.04C55.2799 115.14 49.2599 115.23 43.1799 115.33C41.8399 115.33 40.5299 115.37 39.1699 115.35C34.1599 115.27 32.5099 114.97 31.4999 114.03C31.2699 113.83 30.9599 113.61 30.8799 113.42C30.7899 113.11 31.0799 112.99 31.9799 112.81C32.8699 112.63 34.2699 112.58 36.0899 112.55C46.8899 112.35 58.3299 112.2 69.8099 112.13C78.3299 112.07 86.8899 112.01 95.4299 111.96V112.03L95.4699 112.01Z" fill="#231F20"/>
<path d="M16.9799 85.37L16.2099 86.95C15.9899 87.41 15.5699 88.22 15.6999 88.08C15.5499 88.1 15.6499 88.17 15.6499 88.21L15.6699 88.25L15.8299 88.51L16.1899 89.08L17.6899 91.37L20.7699 95.93C22.8499 98.96 24.9499 101.97 27.0899 104.95C27.9999 106.21 28.9299 107.45 29.8699 108.67L30.8699 109.94L31.0499 110.16C31.0999 110.21 31.2099 110.37 31.2399 110.23C31.2799 110.16 31.3299 110.1 31.3599 110.01L46.0799 82.88C48.3899 78.59 50.7099 74.27 52.9999 70.01C54.4799 67.28 55.9099 64.51 57.4799 61.81C59.0299 59.11 60.5899 56.41 62.4599 53.9C63.8299 52.46 63.6199 52.64 63.2599 54.32C63.0999 55.17 62.7299 56.3 62.2999 57.67C61.8299 59.02 61.1599 60.53 60.3399 62.11C58.8899 64.92 57.3699 67.69 55.8499 70.47C54.3399 73.25 52.8299 76.04 51.3199 78.82C48.2999 84.4 45.2599 89.99 42.1399 95.57C40.6399 98.25 39.1699 101.01 37.7099 103.79C36.1099 106.85 34.4999 109.94 32.8899 113.01L31.8799 113.93L31.7499 114.04L31.7199 114.07H31.6999V114.09C31.7099 114.19 31.6799 113.96 31.6799 113.98C31.6799 113.98 31.6199 114.01 31.5899 114.02C31.4799 114.06 31.3899 114.07 31.2899 114.04C31.0899 113.99 30.8899 113.89 30.6799 113.77C30.2499 113.52 29.8199 113.02 29.4199 112.55L28.8099 111.81L28.3399 111.22C25.6699 107.79 23.1699 104.29 20.6599 100.78C18.1699 97.26 15.6899 93.75 13.3099 90.11L12.9699 89.57C12.8399 89.34 12.6999 89.12 12.5899 88.88C12.5299 88.77 12.5099 88.64 12.4799 88.53C12.4499 88.41 12.5099 88.29 12.4199 88.17C12.4799 87.93 12.5999 87.71 12.5999 87.46C14.7799 83.27 16.9499 79.08 19.1299 74.89C22.8599 67.78 26.7799 60.73 30.5999 53.74C33.5299 48.29 36.4099 42.94 39.3099 37.55C39.9599 36.37 40.5599 35.19 41.2299 34.01C43.7099 29.63 44.6699 28.33 45.9799 27.84C46.2599 27.72 46.5799 27.53 46.7899 27.49C47.4799 27.33 47.0799 29.47 45.3399 32.72C40.3299 42.44 34.6699 52.46 29.1299 62.6C25.0199 70.13 20.9299 77.71 17.0499 85.37L16.9799 85.35V85.37Z" fill="#231F20"/>
<path d="M47.9798 34.1001L46.5498 31.9901L45.6798 30.6701C45.5398 30.4501 45.4098 30.2301 45.3098 30.0301C45.2498 29.9201 45.2198 29.8301 45.1898 29.7301C45.1598 29.6301 45.1198 29.5301 45.1898 29.4801C45.3798 29.2101 45.5198 28.9901 45.6298 28.8101L45.7898 28.5501L45.8298 28.4801V28.4701C44.6398 27.8301 45.4998 28.2901 45.2298 28.1501L45.2598 28.1301L45.3098 28.1001L45.5098 28.0001L47.1398 27.1801L67.4898 27.3101L72.1298 27.2901H74.4598H75.6298L76.2298 27.3101H76.6198L77.1098 27.3901C77.3998 27.4201 77.6898 27.4701 77.9498 27.5601C78.1698 27.7201 78.3798 27.9301 78.5798 28.1301L78.8898 28.4401L79.1398 28.7701L79.4498 29.1901L80.6498 30.8701L82.9898 34.2301L87.5998 40.9901C90.6498 45.5101 93.6698 50.0501 96.6598 54.6101C99.3298 58.6401 102.02 62.7001 104.67 66.7001C106.37 69.2701 108.11 71.8301 109.72 74.4701L112.1 78.4501C112.5 79.1101 112.85 79.8001 113.2 80.4901C113.54 81.1901 113.94 81.8501 114.21 82.5801C114.53 83.5101 114.64 83.9301 114.56 83.9401C114.48 83.9601 114.17 83.5901 113.52 83.0401C112.86 82.4901 112.04 81.64 111.04 80.6301C110.08 79.59 109.06 78.3101 108.05 76.84C107.18 75.53 106.25 74.2701 105.4 72.9501L102.82 69.0101C101.1 66.3901 99.3698 63.7601 97.6398 61.1301C94.1898 55.8701 90.7298 50.6001 87.2498 45.3001C85.1798 42.1301 82.9798 38.9501 80.7198 35.7901C79.5898 34.2101 78.4498 32.6301 77.2898 31.0901L76.8598 30.5301C76.7598 30.4001 76.7498 30.3801 76.6798 30.3101C76.6398 30.2301 76.5598 30.2201 76.4798 30.2201H76.1098C75.1498 30.2101 74.1898 30.2101 73.2298 30.2001L61.0498 30.2601H54.9498L49.9598 30.2001H49.3898L49.1598 30.1801H49.0398C49.0398 30.1801 49.0598 30.2401 49.0798 30.2701L49.3098 30.6401L49.7998 31.3901L51.7598 34.2701L56.2298 40.7501C60.7698 47.2801 65.2998 53.8601 69.8898 60.2901C73.4598 65.2901 77.0998 70.0801 80.6898 74.9701C81.4798 76.0501 82.2798 77.0901 83.0598 78.1901C85.9598 82.2601 86.6798 83.7201 86.5698 85.0801C86.5498 85.3901 86.5698 85.7601 86.4798 85.9901C86.1898 86.7301 84.6698 85.34 82.4398 82.4501C75.8198 73.87 69.1398 64.5801 62.5298 55.2001C57.6098 48.2301 52.7298 41.2001 47.8698 34.1401L47.9298 34.0901L47.9798 34.1001Z" fill="#231F20"/>
<path d="M86.2301 23.5301C86.3201 23.6901 86.1001 23.8301 85.7601 23.9601C85.6501 24.0001 85.3201 24.0101 85.2701 23.9601C85.1601 23.8701 85.0501 23.7901 84.9701 23.7001C84.9301 23.6501 84.5201 22.7601 84.3201 22.4601C84.1301 22.1701 84.1401 21.8701 84.1001 21.5701L83.9501 19.7601C83.9501 19.6301 83.9601 19.4901 84.0101 19.3601C84.1701 18.9001 84.1701 18.4501 84.1101 17.9801C84.1001 17.9001 84.1101 17.8301 84.0301 17.7501C83.8801 17.6201 83.9101 16.3701 83.9901 16.2101C84.1901 15.8201 84.3201 15.4301 84.4901 15.0401C84.5101 14.9801 84.4901 14.9201 84.6001 14.8801C84.8701 14.7801 84.8501 14.6601 84.8801 14.5301C84.9301 14.3601 84.9901 14.2001 85.0901 14.0301C85.1401 13.9501 85.3001 13.8801 85.4201 13.8101C85.5301 13.7501 85.9101 13.8201 85.9501 13.8501C86.0601 13.9401 86.2501 13.8901 86.4101 13.9001C86.4601 13.9001 86.5401 13.9001 86.5801 13.9101C86.6701 13.9301 87.2901 14.9401 87.2901 15.0501C87.2901 15.0601 87.3101 15.4101 87.3301 15.7901C87.3601 16.1601 87.3901 16.5501 87.4101 16.6301C87.4301 16.7101 87.3601 16.7901 87.3201 16.8701C87.3001 16.9101 87.4401 18.0201 87.4301 18.0701C87.3801 18.3001 87.4501 18.5301 87.2101 18.7501C87.1601 18.7901 87.1701 18.8401 87.1701 18.8901C87.1701 19.2901 87.0601 19.6801 86.9901 20.0701C86.9501 20.2701 86.9701 20.4701 86.9601 20.6801C86.9601 20.7201 86.9201 20.7501 86.9101 20.7901C86.8901 20.8401 86.8601 20.8801 86.8601 20.9301C86.8601 21.4101 86.7601 21.8901 86.7901 22.3701C86.7801 22.4801 86.4701 23.0201 86.4801 23.1501C86.4801 23.2201 86.1801 23.4701 86.2201 23.5301H86.2301Z" fill="#231F20"/>
<path d="M89.16 26.75C89.16 26.93 88.9 26.91 88.53 26.81C88.41 26.78 88.13 26.59 88.11 26.52C88.07 26.39 88.03 26.26 88.02 26.14C88.02 26.07 88.24 25.17 88.29 24.84C88.33 24.51 88.49 24.27 88.64 24.02C88.96 23.52 89.27 23.01 89.6 22.52C89.67 22.41 89.77 22.32 89.88 22.24C90.27 21.98 90.55 21.62 90.79 21.24C90.83 21.18 90.89 21.12 90.87 21.01C90.83 20.82 91.6 19.85 91.77 19.79C92.16 19.61 92.51 19.4 92.88 19.21C92.93 19.18 92.95 19.12 93.06 19.16C93.32 19.25 93.37 19.14 93.47 19.06C93.6 18.96 93.75 18.87 93.93 18.81C94.02 18.78 94.18 18.83 94.31 18.86C94.43 18.88 94.67 19.19 94.68 19.23C94.71 19.37 94.88 19.46 94.99 19.56C95.03 19.6 95.08 19.65 95.11 19.68C95.17 19.76 94.97 20.86 94.9 20.93C94.9 20.93 94.69 21.21 94.48 21.5C94.27 21.79 94.06 22.1 94.03 22.17C94 22.24 93.9 22.26 93.82 22.3C93.78 22.32 93.19 23.21 93.16 23.23C92.99 23.37 92.91 23.59 92.6 23.61C92.54 23.61 92.52 23.66 92.49 23.69C92.26 23.99 91.95 24.22 91.66 24.48C91.51 24.61 91.41 24.78 91.28 24.92C91.26 24.95 91.21 24.96 91.18 24.97C91.14 24.99 91.09 25.01 91.06 25.05C90.78 25.41 90.44 25.73 90.18 26.12C90.11 26.2 89.6 26.47 89.54 26.58C89.5 26.64 89.13 26.66 89.13 26.74L89.16 26.75Z" fill="#231F20"/>
<path d="M90.24 30.28C90.04 30.38 89.85 30.22 89.66 29.94C89.6 29.85 89.57 29.57 89.62 29.51C89.73 29.41 89.83 29.31 89.95 29.23C90.02 29.19 91.16 28.77 91.57 28.67C91.95 28.55 92.34 28.49 92.74 28.45C93.54 28.37 94.34 28.29 95.14 28.26C95.32 28.26 95.5 28.26 95.67 28.3C96.28 28.43 96.88 28.44 97.5 28.42C97.6 28.42 97.71 28.43 97.81 28.36C97.98 28.22 99.65 28.36 99.86 28.45C100.37 28.66 100.89 28.83 101.39 29.04C101.46 29.07 101.55 29.05 101.6 29.16C101.72 29.41 101.88 29.4 102.04 29.45C102.26 29.51 102.47 29.6 102.68 29.72C102.78 29.78 102.86 29.93 102.94 30.06C103.02 30.17 102.88 30.5 102.84 30.53C102.72 30.61 102.76 30.79 102.74 30.93C102.74 30.98 102.72 31.04 102.71 31.08C102.67 31.16 101.34 31.46 101.22 31.43C101.2 31.43 100.75 31.38 100.27 31.33C99.79 31.29 99.29 31.26 99.19 31.27C99.08 31.27 98.98 31.21 98.88 31.16C98.83 31.14 97.4 31.11 97.34 31.1C97.05 31.03 96.75 31.08 96.46 30.87C96.4 30.83 96.34 30.83 96.28 30.83C95.77 30.81 95.26 30.7 94.75 30.63C94.49 30.59 94.22 30.61 93.96 30.6C93.91 30.6 93.86 30.57 93.82 30.56C93.76 30.55 93.7 30.52 93.64 30.52C93.02 30.52 92.39 30.44 91.77 30.53C91.63 30.55 90.93 30.41 90.76 30.43C90.67 30.43 90.34 30.23 90.26 30.27L90.24 30.28Z" fill="#231F20"/>
</svg>
