<svg width="128" height="128" viewBox="0 0 128 128" fill="none" xmlns="http://www.w3.org/2000/svg">
<path d="M115 21.44C115.24 22.37 115.38 23.29 115.47 24.21C115.51 24.54 115.57 24.87 115.59 25.2C115.63 26.37 115.6 27.53 115.59 28.67C115.59 29.18 115.59 29.68 115.6 30.18C115.6 30.82 115.71 31.46 115.44 32.11C115.37 32.31 115.32 32.29 115.17 32.13C115.05 32.01 114.94 31.89 114.85 31.8C114.7 31.66 114.59 31.5 114.56 31.32C114.41 30.68 114.27 30.04 114.16 29.4C114.08 28.76 114.07 28.12 114.07 27.47C114.09 26.69 113.87 25.91 113.73 25.15C113.58 24.31 113.43 23.48 113.23 22.65C113.08 22.16 112.96 21.65 112.75 21.19C112.47 20.47 112.1 19.79 111.6 19.23C111.2 18.82 110.67 18.56 110.17 18.39C110.06 18.35 109.95 18.31 109.84 18.29C109.45 18.13 109.4 17.92 109.51 17.32C109.54 17.18 109.55 17.04 109.58 16.91C109.68 16.46 110.02 16.18 110.5 16.23C111.93 16.38 113.14 17.5 113.88 18.67C114.41 19.56 114.8 20.5 115.05 21.43L115 21.45V21.44Z" fill="#231F20"/>
<path d="M95.0099 24.39C95.0099 24.39 98.5199 23.56 98.3399 20.99C98.2899 20.35 95.2199 19.76 93.7999 19.33C89.0499 17.9 110.43 17.59 110.43 17.59L95.0099 24.4V24.39Z" fill="#231F20"/>
<path d="M61.3402 40.43C61.6102 39.53 61.8602 38.62 62.3402 37.76C62.4902 37.45 62.6402 37.12 62.8502 36.82C63.5802 35.78 64.6102 34.9 65.7602 34.42C66.2602 34.17 66.7902 34.04 67.3002 33.89C67.6302 33.83 67.9702 33.76 68.3002 33.71C68.6402 33.71 68.9702 33.72 69.3002 33.78C69.5102 33.82 69.4702 34.11 69.3102 34.41C69.1502 34.71 68.8802 35.06 68.5702 35.13C68.0102 35.28 67.4902 35.47 67.0102 35.69C66.7702 35.8 66.5502 35.92 66.3002 36.01C66.0702 36.14 65.8402 36.27 65.6102 36.41C65.0602 36.77 64.7202 37.41 64.4102 38.04C64.0702 38.74 63.7402 39.48 63.5102 40.28C63.3502 40.77 63.2402 41.27 63.1402 41.79C63.0002 42.57 62.8702 43.36 62.8302 44.16C62.8002 44.78 62.9002 45.39 62.9502 46C62.9602 46.14 62.9902 46.27 62.9902 46.4C62.9802 46.9 62.8502 47.07 62.4202 47.18C62.3202 47.21 62.2302 47.24 62.1302 47.26C61.8102 47.31 61.5302 47.11 61.3902 46.73C60.9902 45.61 60.9102 44.39 60.9202 43.17C60.9602 42.26 61.1302 41.34 61.3202 40.42H61.3702L61.3402 40.43Z" fill="#231F20"/>
<path d="M117.45 95.74C117.25 96.72 117.02 97.71 116.69 98.68C116.59 99.03 116.49 99.4 116.34 99.75C115.81 100.97 115.04 102.14 114.01 103.02C113.77 103.2 113.55 103.4 113.29 103.56L112.53 104.01C112.19 104.16 111.84 104.32 111.49 104.43C111.12 104.49 110.74 104.49 110.37 104.49C110.14 104.49 110.15 104.35 110.3 104.13C110.45 103.92 110.69 103.54 111 103.33C112.15 102.68 112.96 101.95 113.82 101.01C114.33 100.43 114.57 99.62 114.81 98.85C115.09 97.99 115.29 97.08 115.43 96.16C115.52 95.59 115.6 95.01 115.66 94.43C115.76 93.55 115.85 92.66 115.83 91.77C115.82 91.08 115.68 90.4 115.65 89.72C115.64 89.57 115.61 89.42 115.61 89.27C115.61 88.71 115.74 88.53 116.19 88.4C116.29 88.37 116.39 88.33 116.5 88.32C116.84 88.26 117.14 88.49 117.27 88.91C117.47 89.52 117.62 90.16 117.72 90.8C117.78 91.44 117.78 92.11 117.77 92.77C117.73 93.76 117.68 94.76 117.5 95.75H117.45V95.74Z" fill="#231F20"/>
<path d="M39.3699 110.67C39.0499 110.52 38.7199 110.36 38.3599 110.06C37.9499 109.75 37.6299 109.2 37.6099 108.66L37.6799 106.74C37.6899 106.29 37.6799 105.85 37.7099 105.4C37.8299 103.84 37.9399 102.28 38.0599 100.72C38.0999 100.03 38.1299 99.34 38.1699 98.65C38.2099 97.77 38.2499 96.89 38.3499 96.01C38.3799 95.74 38.4799 95.77 38.5999 96C38.7199 96.23 38.9199 96.66 38.9999 97.17C39.1299 98.07 39.2399 98.98 39.3099 99.88C39.2899 100.78 39.2499 101.69 39.1599 102.59C39.0599 103.67 39.1299 104.8 39.1299 105.9C39.1299 106.75 39.1099 107.7 39.1299 108.48C39.1099 108.55 39.1299 108.62 39.1699 108.69C39.1999 108.75 39.2399 108.79 39.3599 108.88C39.8299 109.21 40.5599 109.44 41.2499 109.6C42.3199 109.85 43.4399 110.05 44.5599 110.15C45.4299 110.23 46.2999 110.18 47.1799 110.19C47.3699 110.19 47.5699 110.18 47.7699 110.19C48.4999 110.25 48.7399 110.46 48.7899 110.96C48.7999 111.08 48.8199 111.19 48.8199 111.3C48.7899 111.67 48.4799 111.91 47.9699 111.97C46.4499 112.09 44.8099 111.95 43.1499 111.69C41.9099 111.48 40.6799 111.24 39.3599 110.71V110.67H39.3699Z" fill="#231F20"/>
<path d="M50.7399 69.75C50.8399 69.11 50.8599 68.45 50.7699 67.78C50.7399 67.54 50.6499 67.3 50.6099 67.06C50.4399 66.2 50.1799 65.34 49.7799 64.52C49.6099 64.16 49.4099 63.8 49.1799 63.47C49.0399 63.25 48.8699 63.05 48.7399 62.83C48.6099 62.6 48.4999 62.36 48.3899 62.11C48.3299 61.95 48.4499 61.88 48.6799 61.87C48.9099 61.87 49.2799 61.9 49.5499 62.09C50.4099 62.84 51.0899 63.81 51.3899 64.95C51.5899 65.62 51.9099 66.26 52.0699 66.96C52.2499 67.72 52.3399 68.51 52.3099 69.3C52.2999 69.78 52.2399 70.26 52.1499 70.74C52.0199 71.46 51.7899 72.16 51.4899 72.82C51.2599 73.33 51.0699 73.87 50.7299 74.34C50.6599 74.44 50.5899 74.55 50.4899 74.63C50.1599 74.97 49.9499 74.98 49.6799 74.82C49.6199 74.78 49.5499 74.75 49.4899 74.7C49.3099 74.55 49.2899 74.28 49.4099 74C49.6799 73.12 50.0399 72.42 50.2499 71.59C50.4499 71 50.6299 70.38 50.6899 69.74H50.7299L50.7399 69.75Z" fill="#231F20"/>
<path d="M67.4698 20.35C61.1698 20.29 54.8598 20.14 48.5698 19.95L41.6798 19.83L40.1698 19.79L39.4198 19.77L39.1998 19.75C39.0798 19.76 38.8498 19.66 38.8398 19.85C38.7998 19.98 38.7798 20.13 38.7598 20.28C38.6198 22.12 38.5798 24.21 38.5598 26.2C38.5198 30.23 38.5298 34.28 38.5398 38.32C38.5698 41.91 38.5898 45.53 38.6198 49.09C38.6298 51.38 38.6498 53.68 38.5998 55.98C38.5798 58.28 38.3898 60.58 38.0498 62.86C37.7398 64.28 37.6098 64.07 37.2398 62.85C37.0498 62.24 36.8498 61.38 36.6398 60.34C36.4098 59.3 36.2498 58.09 36.2498 56.78C36.1798 52.13 36.0198 47.48 35.8898 42.82C35.7898 38.15 35.7498 33.47 35.7998 28.75C35.7998 27.33 35.8098 25.91 35.8198 24.47C35.8198 23 35.8198 21.63 35.8898 20.01C35.8898 19.71 35.9298 19.41 35.9698 19.11C35.9998 18.81 36.0298 18.51 36.1298 18.26C36.2098 17.99 36.3098 17.74 36.4298 17.51C36.4698 17.38 36.5698 17.3 36.6598 17.2C36.8398 17.21 36.9098 17.13 37.0298 17.1C37.4798 16.95 37.9798 16.72 38.6198 16.79C38.9098 16.79 39.2598 16.79 39.4898 16.8L40.0398 16.82C41.4898 16.87 42.9298 16.93 44.3698 16.98C50.6898 17.18 57.0198 17.34 63.3498 17.42C67.2398 17.47 71.1398 17.5 75.0298 17.47C80.9298 17.43 86.8598 17.38 92.7098 17.13C97.2598 16.94 101.71 16.54 106.19 16.17C107.18 16.08 108.14 16 109.14 15.91C112.83 15.65 114.02 15.76 114.86 16.49C115.05 16.66 115.3 16.82 115.42 16.99C115.81 17.57 114.34 18.16 111.63 18.51C103.61 19.51 95.0998 19.97 86.5598 20.21C80.2198 20.39 73.8399 20.42 67.4799 20.42V20.35H67.4698Z" fill="#231F20"/>
<path d="M36.8402 111.05C36.5402 108.73 36.7002 107.87 36.7102 106.51L36.8302 102.69C36.8502 101.76 36.7902 100.83 36.8102 99.9C36.8902 96.61 36.9702 93.33 37.0502 90.04C37.0802 88.58 37.0402 87.12 36.9802 85.67C36.9802 83.81 36.8202 81.95 37.1502 80.07C37.2502 79.49 37.4102 79.56 37.7202 80.03C37.8802 80.27 38.0802 80.61 38.3102 81.02C38.5102 81.43 38.6702 81.92 38.7502 82.45L39.1602 85.28C39.2702 86.23 39.3302 87.18 39.3902 88.13C39.4902 90.03 39.6002 91.94 39.4802 93.86C39.3602 96.16 39.5602 98.54 39.5802 100.89C39.5802 103.47 39.5802 106.06 39.4902 108.64L39.4202 110.22C39.4802 110.42 39.7402 110.4 39.9102 110.44L40.2102 110.47H40.3602L40.6302 110.48C42.9702 110.49 45.4102 110.41 47.8102 110.34C49.6802 110.28 51.5302 110.07 53.4802 110.17C53.9102 110.19 54.3402 110.2 54.7902 110.27C56.4602 110.55 57.0402 111.21 56.8902 112.08C56.8602 112.28 56.8302 112.5 56.7602 112.67C56.6202 112.96 56.3602 113.12 56.0702 113.22C55.7702 113.32 55.4302 113.37 54.9802 113.32C53.6202 113.19 52.0202 113.2 50.4002 113.22C48.7402 113.25 47.0502 113.28 45.3602 113.32C44.0802 113.35 42.8002 113.38 41.4702 113.37L40.4502 113.35L39.5802 113.31C39.2702 113.29 38.9502 113.26 38.6602 113.21C38.0602 113.11 37.5602 112.9 37.1802 112.53C37.0802 112.44 36.9802 112.32 36.9202 112.23L36.8702 111.84L36.7802 111.07L36.8402 111.04V111.05Z" fill="#231F20"/>
<path d="M37.2298 71.83C34.9898 71.77 32.7598 71.71 30.5298 71.59C29.7198 71.55 28.8998 71.59 28.0898 71.52C25.2198 71.31 22.3598 71.06 19.4998 70.75C18.2298 70.62 16.9598 70.55 15.6998 70.47C14.0798 70.38 12.4498 70.31 10.8598 69.87C10.3598 69.74 10.4598 69.47 10.9098 69.17C11.3598 68.89 12.1798 68.47 13.1098 68.44C16.3898 68.44 19.6698 68.39 22.9698 68.7C24.9498 68.92 27.0098 68.8 29.0298 68.82L35.7198 68.94C37.0898 68.95 38.4698 68.98 39.8398 68.95C41.9198 68.92 44.0098 68.91 46.0598 68.73C47.6498 68.59 49.1998 68.26 50.7498 67.97C51.0898 67.91 51.4198 67.82 51.7698 67.77C53.0498 67.63 53.4798 67.81 53.8598 68.52C53.9498 68.68 54.0498 68.84 54.1098 69C54.3098 69.55 53.8398 70.09 52.8998 70.44C50.0998 71.4 47.0498 71.62 44.0198 71.79C41.7698 71.89 39.4998 71.9 37.2398 71.91V71.84L37.2298 71.83Z" fill="#231F20"/>
<path d="M114.78 50.55C114.62 45.32 114.44 40.09 114.19 34.86C114.07 32.25 113.93 29.64 113.76 27.03L113.49 23.13L113.25 20.23C113.23 20.15 113.26 20.01 113.2 19.98C113.11 19.99 113.02 20.02 112.93 20.04L112.79 20.08L112.41 20.2L111.13 20.61L105.99 22.29C101.11 23.91 96.2701 25.64 91.4001 27.3L78.5401 31.7C74.2601 33.19 69.9601 34.64 65.7401 36.24L63.2401 37.19C63.2401 37.19 63.1301 37.22 63.1001 37.26V37.42C63.0801 37.53 63.1001 37.63 63.0901 37.75L63.1201 39.36L63.2401 46.15L63.5301 59.75C63.7401 67.8 63.9401 75.89 64.1501 83.87C64.2701 89 64.4601 94.14 64.4601 99.29C64.4601 101.86 64.4601 104.43 64.4301 107.01C64.4001 109.58 64.2401 112.15 64.0801 114.72C63.8001 117.92 63.6501 117.49 63.1701 114.78C62.9201 113.43 62.6201 111.51 62.2501 109.19C61.9401 106.87 61.6901 104.16 61.5601 101.21C61.2901 95.98 61.1401 90.75 60.9801 85.52C60.8301 80.29 60.6301 75.05 60.5301 69.81C60.3401 59.31 60.1001 48.83 60.1101 38.22V37.46C60.0901 37.12 60.2101 36.79 60.2401 36.48C60.2901 36.17 60.3501 35.86 60.4201 35.57C60.6501 35.37 60.8201 35.16 61.1001 34.98C61.3901 34.82 61.7201 34.7 62.0401 34.58L62.8501 34.29L63.9901 33.89C65.5001 33.37 67.0201 32.85 68.5401 32.32C71.5701 31.24 74.6201 30.16 77.6701 29.07C83.7801 26.89 89.9201 24.7 96.0401 22.61L105.71 19.34L110.57 17.75L111.79 17.36C112.36 17.18 113.09 16.95 113.72 16.79C114.38 16.62 114.96 16.63 115.27 16.94L115.31 16.97C115.31 16.97 115.32 16.97 115.33 16.99C115.37 16.93 115.24 17.14 115.43 16.86L115.47 16.96L115.55 17.14L115.71 17.5L116.03 18.23L116.25 20.38L116.38 21.78L116.59 24.57L116.94 30.14C117.15 33.85 117.32 37.56 117.47 41.27C117.82 50.02 118.05 58.78 118.22 67.52C118.33 73.29 118.39 79.08 118.4 84.86C118.4 87.75 118.39 90.64 118.33 93.53C118.3 94.97 118.27 96.42 118.21 97.87C118.18 98.59 118.14 99.32 118.09 100.05C118.05 100.43 118.03 100.78 117.98 101.17C117.95 101.35 117.93 101.57 117.87 101.83C117.78 102.07 117.71 102.32 117.6 102.54C117.4 102.77 117.22 103.04 116.99 103.21C116.79 103.38 116.61 103.55 116.42 103.67C116.04 103.95 115.66 104.19 115.28 104.42C114.52 104.87 113.75 105.28 112.99 105.66C108.33 107.94 103.6 109.77 98.8801 111.61C94.1601 113.42 89.4201 115.15 84.6501 116.82C82.5501 117.56 80.4901 118.29 78.3601 119.01C70.4501 121.62 67.8501 122.18 65.9201 121.99C65.4801 121.95 64.9201 121.95 64.6401 121.86C63.7201 121.58 66.7901 120.05 72.5201 118.01C79.6901 115.44 87.0301 112.86 94.4101 110.11C98.1001 108.73 101.8 107.32 105.46 105.81C107.29 105.05 109.1 104.27 110.86 103.43C111.73 103 112.61 102.57 113.4 102.11C113.8 101.88 114.19 101.64 114.51 101.41C114.67 101.29 114.85 101.17 114.94 101.08C115.05 100.99 115 101.03 115.01 101.02C115.01 100.98 114.99 101.15 115.05 100.76C115.09 100.47 115.11 100.1 115.14 99.78C115.18 99.08 115.23 98.37 115.25 97.63C115.31 96.18 115.33 94.7 115.36 93.22C115.48 79.1 115.19 64.83 114.73 50.63L114.8 50.61L114.78 50.55Z" fill="#231F20"/>
<path d="M53.2899 64.67C53.6999 65.18 54.1099 65.7 54.5099 66.27C54.7699 66.7 55.7699 67.85 55.6899 68.9C55.6099 69.36 55.4799 69.8 55.3099 70.23C55.2199 70.45 55.0699 70.67 54.9899 70.84C54.9099 70.98 54.8299 71.14 54.7499 71.27C54.5799 71.53 54.4099 71.8 54.2199 72.03C52.8399 73.65 51.3799 75.01 49.8299 76.29C49.1499 76.86 48.4899 77.46 47.8299 78.04C46.9899 78.79 46.0599 79.5 44.9499 79.91C44.5999 80.04 44.4899 79.71 44.5299 79.24C44.5899 78.78 44.7399 78.12 45.1399 77.68C45.8599 76.86 46.6199 76.09 47.3899 75.32C48.1699 74.55 48.9199 73.76 49.7799 73.06C50.7899 72.2 51.5599 71.03 52.2399 69.99C52.3199 69.88 52.3899 69.76 52.4499 69.66C52.5199 69.53 52.5599 69.47 52.5899 69.43C52.6399 69.34 52.7099 69.24 52.7299 69.12C52.7799 69.03 52.7299 68.94 52.6999 68.86C52.6499 68.76 52.6599 68.74 52.5299 68.57C52.2899 68.24 51.9999 67.9 51.7099 67.56C51.1099 66.88 50.4899 66.18 49.8399 65.5C48.8599 64.47 47.8899 63.42 46.8299 62.47C46.0099 61.73 45.0699 61.14 44.1799 60.47C43.9799 60.32 43.7699 60.19 43.5899 60.03C42.8899 59.42 42.8599 59.02 43.3399 58.31C43.4499 58.15 43.5499 57.98 43.6699 57.84C44.0699 57.37 44.7299 57.24 45.2999 57.56C47.0199 58.51 48.5599 59.84 50.0599 61.26C51.1699 62.32 52.2499 63.44 53.3299 64.62L53.2799 64.68L53.2899 64.67Z" fill="#231F20"/>
<path d="M15.2499 20.96C15.0799 21.07 14.9199 20.87 14.7599 20.51C14.7099 20.39 14.6899 20.03 14.7399 19.98C14.8299 19.87 14.9299 19.76 15.0299 19.68C15.0899 19.63 16.0799 19.34 16.4299 19.23C16.7599 19.12 17.0999 19.08 17.4299 19.05C18.1099 19 18.7999 18.94 19.4799 18.92C19.6299 18.92 19.7799 18.93 19.9299 18.98C20.4399 19.13 20.9599 19.15 21.4799 19.12C21.5699 19.12 21.6499 19.13 21.7499 19.05C21.8999 18.91 23.3299 18.98 23.4999 19.07C23.9899 19.3 24.3599 19.48 24.7899 19.68C24.8499 19.71 24.9199 19.68 24.9599 19.8C25.0499 20.07 25.1899 20.06 25.3299 20.1C25.5199 20.16 25.6999 20.24 25.8699 20.36C25.9499 20.42 26.0199 20.58 26.0799 20.71C26.1399 20.83 26.0099 21.2 25.9799 21.23C25.8699 21.33 25.8999 21.52 25.8699 21.68C25.8699 21.73 25.8499 21.8 25.8399 21.84C25.8099 21.93 24.6499 22.36 24.5399 22.34C24.5299 22.34 24.1399 22.32 23.7299 22.3C23.3199 22.3 22.8999 22.27 22.8099 22.27C22.7199 22.27 22.6399 22.2 22.5499 22.15C22.5099 22.12 21.2899 22.1 21.2399 22.09C20.9899 22.02 20.7399 22.07 20.4999 21.84C20.4499 21.79 20.3999 21.8 20.3499 21.79C19.9199 21.76 19.4899 21.64 19.0599 21.55C18.8399 21.5 18.6099 21.51 18.3899 21.49C18.3499 21.49 18.3099 21.46 18.2699 21.44C18.2199 21.42 18.1699 21.39 18.1199 21.39C17.5899 21.37 17.0599 21.25 16.5299 21.31C16.4099 21.31 15.8199 21.12 15.6799 21.15C15.5999 21.16 15.3299 20.9 15.2599 20.95L15.2499 20.96Z" fill="#231F20"/>
<path d="M27.4199 14.3C27.6099 14.3 27.5799 14.56 27.4399 14.95C27.3999 15.07 27.1699 15.38 27.0999 15.4C26.9699 15.44 26.8299 15.47 26.7099 15.48C26.6399 15.48 25.7799 15.17 25.4699 15.07C25.1699 14.98 24.9199 14.83 24.6699 14.66C24.1699 14.32 23.6599 14 23.1799 13.63C23.0699 13.55 22.9799 13.45 22.9099 13.33C22.6699 12.92 22.3299 12.62 21.9399 12.36C21.8699 12.32 21.8299 12.25 21.7099 12.26C21.5099 12.29 20.6099 11.41 20.5599 11.24C20.4199 10.83 20.2399 10.46 20.0899 10.06C20.0699 9.99996 19.9999 9.97996 20.0599 9.86996C20.1999 9.60996 20.0799 9.54996 20.0199 9.42996C19.9699 9.25996 19.9299 9.06996 19.9199 8.86996C19.9199 8.76996 19.9899 8.60995 20.0299 8.47995C20.0699 8.35995 20.3599 8.18996 20.3999 8.18996C20.5299 8.18996 20.6199 8.03996 20.7299 7.94996C20.7699 7.91996 20.8099 7.87996 20.8499 7.85996C20.8899 7.83996 21.1999 7.89996 21.5399 7.92996C21.9099 7.93996 22.1799 8.04996 22.2099 8.08996C22.2099 8.08996 22.4599 8.32996 22.7199 8.56996C22.9799 8.79996 23.2499 9.04996 23.3199 9.08996C23.3899 9.12996 23.3899 9.22996 23.4099 9.31996C23.4099 9.36996 24.2499 10.01 24.2799 10.04C24.3899 10.23 24.5999 10.33 24.5799 10.65C24.5799 10.71 24.6099 10.74 24.6499 10.77C24.9199 11.03 25.1099 11.37 25.3299 11.68C25.4399 11.84 25.5999 11.96 25.7299 12.1C25.7499 12.13 25.7599 12.17 25.7699 12.21C25.7899 12.25 25.7999 12.3 25.8399 12.33C26.1799 12.64 26.4399 13.03 26.8299 13.28C26.9099 13.34 27.1699 13.83 27.2799 13.89C27.3399 13.93 27.3499 14.29 27.4199 14.29V14.3Z" fill="#231F20"/>
<path d="M31.5198 14.61C31.6198 14.74 31.4398 14.89 31.1498 15.06C31.0598 15.11 30.7598 15.17 30.6998 15.14C30.5898 15.08 30.4798 15.02 30.3798 14.95C30.3298 14.91 29.8198 14.19 29.6098 13.94C29.4598 13.7 29.3798 13.44 29.3098 13.18C29.1798 12.65 29.0298 12.12 28.8998 11.59C28.8698 11.47 28.8698 11.35 28.8998 11.22C28.9798 10.79 28.9198 10.38 28.7998 9.98C28.7798 9.91 28.7798 9.84 28.6898 9.78C28.5298 9.69 28.4098 8.56 28.4698 8.41C28.6098 8.04 28.6898 7.67 28.7998 7.3C28.8198 7.25 28.7798 7.19 28.8798 7.14C29.1198 7.02 29.0798 6.91 29.0898 6.8C29.1098 6.65 29.1398 6.49 29.2198 6.33C29.2598 6.25 29.3998 6.17 29.5098 6.1C29.6098 6.03 29.9898 6.06 30.0298 6.08C30.1498 6.14 30.3298 6.08 30.4798 6.08C30.5298 6.08 30.5998 6.08 30.6398 6.08C30.7398 6.08 31.4098 6.91 31.4098 7C31.4098 7.01 31.4698 7.32 31.5398 7.65C31.6098 7.98 31.6898 8.31 31.7198 8.38C31.7498 8.45 31.6998 8.53 31.6698 8.6C31.6498 8.64 31.9398 9.6 31.9298 9.64C31.9098 9.85 31.9998 10.04 31.8098 10.27C31.7698 10.31 31.7798 10.36 31.7898 10.4C31.8398 10.75 31.7898 11.11 31.7598 11.47C31.7498 11.65 31.7898 11.83 31.7998 12.01C31.7998 12.04 31.7798 12.08 31.7698 12.11C31.7598 12.15 31.7398 12.2 31.7398 12.24C31.7998 12.66 31.7398 13.11 31.8798 13.52C31.8998 13.62 31.6798 14.14 31.7098 14.25C31.7098 14.31 31.4798 14.57 31.5198 14.62V14.61Z" fill="#231F20"/>
<path d="M73.3299 69.27C73.6399 69.18 73.9499 69.1 74.2899 69.02C74.4599 68.98 74.6399 68.94 74.8699 68.91C74.9899 68.89 75.1099 68.88 75.3399 68.88C75.4099 68.88 75.4899 68.89 75.5599 68.9C75.6299 68.9 75.8399 68.97 75.9599 69.04L76.0599 69.1C76.1199 69.14 76.1699 69.19 76.2299 69.24C76.3399 69.34 76.4299 69.47 76.4899 69.6C76.5899 69.82 76.6199 70.07 76.5899 70.3L76.3099 69.41C76.4499 69.6 76.5599 69.79 76.6199 70.08C76.6699 70.33 76.6199 70.63 76.5599 70.79C76.3999 71.18 76.2399 71.3 76.0899 71.46C75.7199 71.78 75.4299 71.98 75.1099 72.14C73.9899 72.63 72.9199 72.89 71.8399 73.19C71.3699 73.33 70.8999 73.47 70.4299 73.61C69.8399 73.8 69.2399 74 68.5899 74.02C68.3899 74.02 68.3499 73.77 68.4399 73.48C68.5299 73.19 68.7299 72.82 69.0499 72.67C69.6199 72.41 70.1799 72.16 70.7499 71.92C71.3299 71.7 71.9199 71.54 72.5199 71.38C73.2299 71.2 73.9099 70.78 74.4499 70.43C74.5899 70.34 74.7199 70.23 74.7699 70.18L74.7899 70.16L74.8799 70.22C75.0399 70.3 75.0799 70.34 75.1899 70.35C75.3299 70.38 75.2699 70.32 75.1499 70.45L75.3399 70.12C75.3399 70.12 75.4399 70.1 75.3999 70.12C75.4199 70.11 75.3299 70.22 75.3499 70.28C75.3199 70.39 75.3099 70.52 75.3299 70.64V70.86C75.3099 70.86 75.2199 70.86 75.1399 70.88C74.9699 70.91 74.7699 70.96 74.5799 71.02C74.0999 71.16 73.5999 71.32 73.1099 71.49C72.3699 71.76 71.5999 72.01 70.8799 72.33C70.3199 72.58 69.7999 72.94 69.2499 73.25C69.1299 73.32 69.0199 73.4 68.8899 73.46C68.4199 73.68 68.1999 73.56 67.9299 73.06C67.8699 72.95 67.7999 72.84 67.7499 72.72C67.5799 72.34 67.6499 71.91 67.9399 71.67C68.7999 70.98 69.8199 70.52 70.8799 70.09C71.6699 69.77 72.4799 69.5 73.3199 69.21L73.3399 69.26L73.3299 69.27Z" fill="#231F20"/>
</svg>
