<svg width="128" height="128" viewBox="0 0 128 128" fill="none" xmlns="http://www.w3.org/2000/svg">
<path d="M85.8298 79.2299C85.7631 76.6208 86.0252 74.0136 86.6098 71.4699C87.2265 68.9598 88.1256 66.5276 89.2898 64.2199C89.7098 63.3899 90.1298 62.5499 90.5698 61.7399L91.2398 60.5399C91.4598 60.1399 91.7698 59.6699 92.0198 59.3099C93.1398 57.7399 94.2499 56.2599 95.2299 54.7199C95.717 53.9798 96.1482 53.2043 96.5198 52.3999C96.8449 51.8347 97.0108 51.1919 96.9998 50.5399C96.9784 50.4812 96.9439 50.4281 96.8988 50.3848C96.8538 50.3415 96.7994 50.309 96.7398 50.2899L96.5499 50.2199L96.1798 50.1599C95.6028 50.111 95.0221 50.1311 94.4498 50.2199C93.2435 50.4036 92.0709 50.7641 90.9698 51.2899C89.7624 51.8497 88.6677 52.6258 87.7398 53.5799C86.8346 54.5751 86.0585 55.6805 85.4298 56.8699C83.6998 59.9499 82.4998 63.3799 80.5898 66.5499C79.9698 67.5499 79.5898 67.1299 79.5898 66.0699C79.6473 64.4327 80.0138 62.8211 80.6698 61.3199C81.3998 59.6199 82.1599 57.8999 83.0499 56.1999C83.5031 55.3332 84.0142 54.4979 84.5798 53.6999C85.168 52.8384 85.8636 52.0555 86.6498 51.3699C88.2024 50.0209 90.027 49.0216 91.9998 48.4399C92.9946 48.1398 94.0221 47.9619 95.0598 47.9099C95.6185 47.8801 96.1787 47.9137 96.7299 48.0099C97.1148 48.0777 97.4884 48.1989 97.8398 48.3699C98.1974 48.5505 98.5061 48.8146 98.7398 49.1399C98.7998 49.2599 98.8698 49.3599 98.9198 49.4799C99.0866 49.9273 99.1647 50.4028 99.1498 50.8799C99.1394 51.2378 99.0891 51.5933 98.9998 51.9399C98.9198 52.2599 98.8098 52.5599 98.7098 52.8599L98.3498 53.7099C97.839 54.7658 97.2612 55.7879 96.6199 56.7699C95.9899 57.7699 95.3398 58.6699 94.6898 59.5899L93.7498 60.9999C93.4698 61.4099 93.1998 61.8799 92.9198 62.3699C91.6702 64.4699 90.6061 66.6749 89.7398 68.9599C88.9133 71.228 88.3888 73.595 88.1798 75.9999C87.9616 78.9972 88.1908 82.0102 88.8598 84.9399C89.9454 89.4105 91.6769 93.699 93.9998 97.6699C95.784 100.716 97.7894 103.627 99.9998 106.38L101.45 108.18C103.28 110.44 103.73 111.27 103.67 112.13C103.687 112.323 103.687 112.517 103.67 112.71C103.5 113.21 102.43 112.54 100.96 110.94C96.4373 105.945 92.6585 100.323 89.7398 94.2499C88.6421 91.9071 87.7261 89.4832 86.9998 86.9999C86.3141 84.4669 85.8918 81.8698 85.7398 79.2499L85.8298 79.2299Z" fill="#231F20"/>
<path d="M69.59 23.84C69.8591 23.1271 70.3828 22.5392 71.06 22.19C71.3888 22.0418 71.7483 21.9745 72.1084 21.9937C72.4685 22.0128 72.8188 22.1178 73.13 22.3C73.3018 22.3774 73.4577 22.4859 73.59 22.62C73.7379 22.734 73.8752 22.8612 74 23C74.24 23.32 74.53 23.62 74.73 23.95C74.9954 24.3775 75.239 24.818 75.46 25.27C76.2702 26.9642 76.8713 28.7506 77.25 30.59C77.5777 31.9025 77.7918 33.2408 77.89 34.59C78.16 39.23 78.04 43.8 77.95 48.37C77.95 50.37 77.95 52.43 77.95 54.44V58.3C77.95 59.57 77.83 60.88 77.95 62.08C77.95 62.44 77.95 62.51 77.88 62.59C77.81 62.67 77.57 62.59 77.34 62.23C77.0523 61.7996 76.8173 61.3363 76.64 60.85C76.3736 60.2123 76.205 59.538 76.14 58.85C75.8182 53.5727 75.7715 48.2822 76 43C76.0546 39.8004 75.8674 36.6013 75.44 33.43C75.1735 31.7264 74.7449 30.0521 74.16 28.43C73.8763 27.6265 73.5423 26.8416 73.16 26.08C73.0733 25.8916 72.9765 25.708 72.87 25.53L72.73 25.29L72.65 25.15C72.5468 24.9786 72.4109 24.8291 72.25 24.71C72.1939 24.6817 72.1326 24.6652 72.0699 24.6616C72.0071 24.6579 71.9443 24.6671 71.8853 24.6887C71.8262 24.7102 71.7722 24.7436 71.7266 24.7869C71.681 24.8301 71.6447 24.8822 71.62 24.94C71.5509 25.0452 71.497 25.1597 71.46 25.28C71.3979 25.453 71.3478 25.6301 71.31 25.81C71.0812 26.86 70.9374 27.9268 70.88 29C70.64 32.28 70.59 35.64 70.48 39C70.476 41.564 70.3157 44.1254 70 46.67C69.9103 47.2533 69.7867 47.831 69.63 48.4C68.98 50.59 67.93 51.2 67.24 51C67.093 50.9918 66.948 50.9615 66.81 50.91C66.65 50.81 66.75 50.62 66.81 50.27C66.87 49.92 67.11 49.52 67.35 48.91C67.6986 47.9169 67.9301 46.8867 68.04 45.84C68.19 44.74 68.28 43.61 68.34 42.45C68.46 40.14 68.49 37.77 68.52 35.37C68.52 33.59 68.58 31.79 68.66 29.97C68.66 29.06 68.77 28.14 68.87 27.21C68.87 26.74 68.96 26.26 69.04 25.77C69.04 25.53 69.12 25.29 69.17 25.02C69.2618 24.6088 69.3821 24.2045 69.53 23.81L69.59 23.84Z" fill="#231F20"/>
<path d="M71.9099 67.7899C71.0761 65.5551 70.1042 63.3742 68.9999 61.2599C68.5999 60.4799 68.1099 59.7599 67.6699 59.0099C66.2457 56.3359 64.3756 53.9246 62.1399 51.8799C61.1399 51.0999 59.9099 50.5299 59.0199 51.0299C58.3903 51.3923 57.9008 51.9558 57.6299 52.6299C57.3033 53.3274 57.1391 54.0899 57.1499 54.8599C57.1499 55.3099 56.8699 55.4399 56.3799 55.0199C56.0444 54.6543 55.8113 54.2065 55.7041 53.7219C55.597 53.2373 55.6197 52.733 55.7699 52.2599C56.0861 51.1095 56.7933 50.1052 57.7699 49.4199C58.3493 49.0495 59.0135 48.8327 59.6999 48.7899C60.0358 48.7714 60.3727 48.8018 60.6999 48.8799C60.9951 48.9253 61.2839 49.0059 61.5599 49.1199C63.4498 49.9495 65.0681 51.2941 66.2299 52.9999C67.666 54.8119 69.0013 56.7014 70.2299 58.6599C71.5019 60.8222 72.6277 63.0673 73.5999 65.3799C74.1899 66.7999 74.7299 68.2499 75.2099 69.7199C75.5805 70.8454 75.8745 71.9947 76.0899 73.1599C76.3666 74.4047 76.3666 75.6951 76.0899 76.9399C75.9022 77.4945 75.5831 77.9954 75.1599 78.3999C74.7003 78.8439 74.0977 79.1098 73.4599 79.1499C72.3576 79.1631 71.2818 78.8115 70.3999 78.1499C70.0503 77.9115 69.7163 77.651 69.3999 77.3699C68.9664 77.0036 68.6241 76.5414 68.3999 76.0199C68.353 75.8536 68.3394 75.6796 68.36 75.5079C68.3806 75.3363 68.4349 75.1704 68.5199 75.0199C68.5711 74.8844 68.6347 74.7538 68.7099 74.6299C68.8299 74.4499 69.0499 74.4399 69.3699 74.5099C69.779 74.5951 70.1604 74.7807 70.4799 75.0499C71.0261 75.4724 71.6008 75.8566 72.1999 76.1999C72.5553 76.453 72.9838 76.583 73.4199 76.5699C73.4799 76.5699 73.4199 76.5699 73.5399 76.4599C73.591 76.4059 73.6347 76.3454 73.6699 76.2799C73.7599 76.1899 73.6699 76.1899 73.7399 76.1599C73.8385 75.6076 73.8385 75.0422 73.7399 74.4899C73.3698 72.201 72.7355 69.9628 71.8499 67.8199L71.9099 67.7899Z" fill="#231F20"/>
<path d="M65.4598 71.4698C64.1985 68.7211 62.6031 66.1382 60.7098 63.7798C60.0098 62.9098 59.2498 62.0898 58.4998 61.2698C57.1909 59.8091 55.7808 58.4424 54.2798 57.1798C53.535 56.5735 52.7424 56.0284 51.9098 55.5498C51.1657 55.0878 50.3149 54.826 49.4398 54.7898C49.134 54.804 48.8418 54.9202 48.6098 55.1198C48.4888 55.2429 48.3752 55.3732 48.2698 55.5098C48.1998 55.6798 48.0898 55.8198 48.0298 55.9998C47.7636 56.7604 47.6448 57.5648 47.6798 58.3698C47.7317 59.4598 47.8925 60.5419 48.1598 61.5998C48.4398 62.6698 48.6398 63.7598 48.9498 64.8298C49.1398 65.4798 48.7998 65.5598 48.2098 65.1498C47.3257 64.4679 46.6756 63.5278 46.3498 62.4598C46.0281 61.2535 45.8337 60.0167 45.7698 58.7698C45.6535 57.3866 45.9345 55.9989 46.5798 54.7698C46.7828 54.3984 47.0426 54.061 47.3498 53.7698C47.7026 53.4622 48.1193 53.2368 48.5698 53.1098C48.9787 53.0112 49.4 52.9742 49.8198 52.9998C50.1904 53.0322 50.5581 53.0924 50.9198 53.1798C52.162 53.5554 53.3294 54.1442 54.3698 54.9198C56.7809 56.6218 59.0034 58.5762 60.9998 60.7498C63.1722 63.1409 65.0706 65.7672 66.6598 68.5798C67.7058 70.3511 68.4271 72.295 68.7898 74.3198C68.9299 75.1853 68.8367 76.0724 68.5198 76.8898C68.4462 77.116 68.3309 77.3263 68.1798 77.5098C68.0573 77.714 67.9018 77.8964 67.7198 78.0498C67.3563 78.4127 66.8935 78.6597 66.3898 78.7598C65.4922 78.8602 64.5858 78.6747 63.7998 78.2298C63.1002 77.8798 62.4312 77.4717 61.7998 77.0098C59.9412 75.6512 58.1771 74.1678 56.5198 72.5698C56.1698 72.2098 55.8198 71.8798 55.5198 71.4998C54.2598 70.1298 54.1098 69.4998 54.2398 68.8398C54.2604 68.684 54.2938 68.5301 54.3398 68.3798C54.5198 67.9598 55.3398 68.2598 56.4498 69.0698L58.7398 70.9998L60.9998 72.9998C61.7698 73.6598 62.5098 74.3198 63.2698 74.9098C63.932 75.4589 64.6695 75.9101 65.4598 76.2498C65.5999 76.3073 65.7486 76.341 65.8998 76.3498C65.8998 76.3498 65.8998 76.3498 66.0198 76.2598C66.1497 76.1287 66.2514 75.9723 66.3184 75.8003C66.3855 75.6283 66.4166 75.4443 66.4098 75.2598C66.3481 73.9241 66.0075 72.616 65.4098 71.4198L65.4598 71.4698Z" fill="#231F20"/>
<path d="M43.7302 75.0499C41.2872 70.7242 38.5752 66.556 35.6102 62.5699C34.6102 61.0499 33.4902 59.5699 32.4802 58.0199C31.5787 56.6368 30.767 55.1972 30.0502 53.7099C29.6837 52.9421 29.3696 52.1502 29.1102 51.3399C28.8108 50.5033 28.6356 49.6273 28.5902 48.7399C28.5702 48.5037 28.5702 48.2662 28.5902 48.0299C28.5902 47.9099 28.5902 47.7899 28.5902 47.6699L28.7102 47.1999C28.768 46.8882 28.8951 46.5934 29.082 46.3372C29.2689 46.0811 29.5109 45.8702 29.7902 45.7199C30.3729 45.4611 31.0288 45.4186 31.6402 45.5999C32.0907 45.7481 32.5234 45.946 32.9302 46.1899C34.345 47.084 35.6681 48.1157 36.8802 49.2699C39.0106 51.2391 40.9833 53.3723 42.7802 55.6499C45.1562 58.4984 47.0481 61.718 48.3802 65.1799C48.7402 66.2899 48.4602 66.1799 47.8102 65.4499C46.7648 64.2343 45.7867 62.9624 44.8802 61.6399C42.8119 58.6567 40.5114 55.8413 38.0002 53.2199C36.7481 51.914 35.4119 50.6914 34.0002 49.5599C33.3353 49.0079 32.63 48.5064 31.8902 48.0599C31.7253 47.9635 31.5551 47.8766 31.3802 47.7999L31.0302 47.6599C30.9838 47.6306 30.93 47.615 30.8752 47.615C30.8203 47.615 30.7665 47.6306 30.7202 47.6599C30.5602 47.6599 30.4102 48.8999 30.6402 49.8399C30.8744 50.8822 31.2407 51.8904 31.7302 52.8399C32.7596 54.8528 33.9292 56.7909 35.2302 58.6399C38.0002 62.8199 41.0502 66.8599 43.7002 71.2199C44.5202 72.5599 45.2902 73.9299 45.9902 75.3499C46.6902 76.7699 47.3102 78.2399 47.9902 79.6099C49.9111 83.8559 52.4969 87.7684 55.6502 91.1999C58.0578 93.796 60.7402 96.1229 63.6502 98.1399C64.2802 98.5899 64.9101 99.0199 65.5602 99.4399C67.9701 101.05 68.7302 101.54 69.1702 102.12C69.2749 102.244 69.3717 102.374 69.4602 102.51C69.6502 102.84 68.3802 102.68 66.3302 101.78C64.8228 101.078 63.3747 100.256 62.0002 99.3199C60.6089 98.3421 59.2735 97.2871 58.0002 96.1599C55.4112 93.8672 53.0654 91.3137 51.0002 88.5399C49.4463 86.4514 48.0746 84.2332 46.9002 81.9099C46.5902 81.3399 46.3502 80.7299 46.0702 80.1399C45.7902 79.5499 45.5402 78.9499 45.3002 78.3999C44.8102 77.2699 44.3002 76.1699 43.6802 75.0799L43.7302 75.0499Z" fill="#231F20"/>
<path d="M73.5199 114.51C72.8499 113.32 72.1899 112.14 71.5199 110.97C71.2699 110.54 70.9699 110.16 70.7199 109.73C69.8399 108.22 68.9699 106.73 68.0099 105.28C67.5862 104.643 67.1254 104.032 66.6299 103.45C65.9899 102.72 65.3199 102.02 64.7599 101.29C64.5899 101.05 64.8499 100.76 65.3099 100.64C65.58 100.563 65.8651 100.555 66.1392 100.616C66.4133 100.677 66.6679 100.806 66.8799 100.99C67.6376 101.713 68.3397 102.491 68.9799 103.32C69.5906 104.149 70.1515 105.014 70.6599 105.91C71.2599 106.99 72.0699 107.97 72.7599 109.01C73.4499 110.05 74.2499 111.32 74.9799 112.48L76.3199 114.62C77.0099 115.68 77.6599 116.79 78.3999 117.82C78.9699 118.61 79.6599 119.31 80.2999 120.04C80.4399 120.21 80.5899 120.36 80.7199 120.53C80.827 120.678 80.9207 120.835 80.9999 121C81.029 121.128 81.029 121.262 80.9999 121.39C80.9626 121.641 80.8551 121.877 80.6899 122.07C80.6247 122.167 80.5546 122.26 80.4799 122.35C80.2699 122.6 79.6999 122.59 79.1099 122.29C77.7397 121.076 76.5628 119.659 75.6199 118.09C74.8599 116.96 74.1999 115.75 73.4799 114.59L73.5199 114.51Z" fill="#231F20"/>
<path d="M86.1 109.77L83.82 110.17C83.06 110.27 82.31 110.39 81.54 110.47C80.99 110.47 80.44 110.62 79.88 110.67C77.921 110.796 75.9553 110.773 74 110.6C73.13 110.6 72.26 110.44 71.4 110.39L69.73 110.14C69.1759 110.026 68.636 109.852 68.12 109.62C67.8 109.48 67.96 109.16 68.34 108.91C68.7838 108.596 69.3338 108.47 69.87 108.56C71.9957 108.85 74.1354 109.027 76.28 109.09C76.9471 109.125 77.6161 109.105 78.28 109.03C78.95 108.97 79.62 108.9 80.28 108.8C80.94 108.7 81.75 108.63 82.48 108.5C83.21 108.37 83.94 108.27 84.66 108.1C85.56 107.93 86.44 107.69 87.32 107.45C87.98 107.25 88.63 107.01 89.32 106.81C90.01 106.61 90.6 106.31 91.2 105.99C92.0986 105.505 92.9292 104.903 93.67 104.2C93.8073 104.041 93.9578 103.894 94.12 103.76C94.71 103.25 94.9 103.12 95.4 103.22C95.5066 103.214 95.6134 103.214 95.72 103.22C96.05 103.31 96.07 103.76 95.72 104.47C95.4522 104.962 95.1154 105.413 94.72 105.81C94.3216 106.17 93.9008 106.504 93.46 106.81C92.5649 107.405 91.6137 107.911 90.62 108.32C89.1622 108.913 87.6568 109.381 86.12 109.72L86.1 109.77Z" fill="#231F20"/>
<path d="M88.18 113.27C88.13 113.16 88.02 112.99 87.84 113C87.66 113.01 87.75 113.16 87.76 113.28C87.7555 113.346 87.7555 113.413 87.76 113.48V113.59V113.74L87.86 114.05C88.13 114.89 88.43 115.73 88.7 116.69C88.76 116.94 88.82 117.19 88.87 117.49C88.87 117.63 88.87 117.8 88.92 118C88.931 118.113 88.931 118.227 88.92 118.34C88.9102 118.506 88.8834 118.67 88.84 118.83C88.8093 118.939 88.7726 119.045 88.73 119.15C88.6478 119.311 88.5471 119.462 88.43 119.6C88.167 119.891 87.8157 120.088 87.43 120.16C87.185 120.201 86.935 120.201 86.69 120.16C86.51 120.16 86.43 120.08 86.29 120.04C86.1077 119.965 85.9306 119.878 85.76 119.78L85.33 119.48C85.24 119.48 85.18 119.34 85.09 119.28C84.7042 118.849 84.3687 118.376 84.09 117.87L83.42 116.71L82.16 114.44C81.79 113.79 81.41 113.14 81.03 112.55C80.856 112.279 80.6656 112.018 80.46 111.77C80.4254 111.728 80.3887 111.688 80.35 111.65C80.4085 111.594 80.459 111.53 80.5 111.46C80.6611 111.245 80.7675 110.995 80.81 110.73C80.8246 110.755 80.8452 110.775 80.87 110.79L80.99 110.87C81.1054 110.957 81.2385 111.019 81.38 111.05C81.4795 111.074 81.5766 111.108 81.67 111.15H81.75V111.23C81.7385 111.37 81.7385 111.51 81.75 111.65C81.75 111.8 81.75 111.98 81.75 112.15C81.7592 112.281 81.7759 112.411 81.8 112.54C81.9537 113.244 82.1474 113.938 82.38 114.62L83.07 116.82C83.3317 117.622 83.5257 118.445 83.65 119.28C83.6981 119.591 83.6981 119.908 83.65 120.22C83.6152 120.357 83.5683 120.491 83.51 120.62C83.414 120.802 83.2851 120.965 83.13 121.1C82.9716 121.223 82.7898 121.314 82.5956 121.365C82.4014 121.417 82.1988 121.429 82 121.4C81.8813 121.383 81.7643 121.356 81.65 121.32L81.42 121.23C81.2876 121.171 81.1605 121.1 81.04 121.02C80.7951 120.876 80.5699 120.701 80.37 120.5C80.0485 120.123 79.7825 119.702 79.58 119.25C79.41 118.87 79.26 118.5 79.11 118.14C78.59 116.85 78.11 115.58 77.56 114.38C77.3061 113.808 77.0086 113.256 76.67 112.73C76.5548 112.556 76.4131 112.4 76.25 112.27C76.25 112.27 76.25 112.27 76.25 112.17C76.2834 112.118 76.3071 112.06 76.32 112C76.3174 111.967 76.3174 111.933 76.32 111.9C76.32 111.82 76.32 111.9 76.32 111.9V111.96C76.342 112.02 76.3723 112.078 76.41 112.13C76.4307 112.156 76.4542 112.179 76.48 112.2C76.39 112.3 76.36 112.43 76.38 112.71C76.4232 113.03 76.5178 113.34 76.66 113.63C77.0013 114.332 77.4063 115.002 77.87 115.63C78.34 116.31 78.87 116.97 79.38 117.63C79.89 118.29 80.38 119.01 80.91 119.69C81.55 120.55 81.16 120.76 80.13 120.48C79.4361 120.287 78.7654 120.019 78.13 119.68C77.3019 119.185 76.5701 118.545 75.97 117.79C75.3396 117.023 74.7869 116.196 74.32 115.32C74.0539 114.805 73.8459 114.261 73.7 113.7C73.4938 112.925 73.5252 112.106 73.79 111.35C73.9626 110.884 74.2437 110.466 74.61 110.13C74.7383 110.012 74.8791 109.908 75.03 109.82C75.2094 109.698 75.4093 109.61 75.62 109.56C76.0528 109.423 76.5171 109.423 76.95 109.56C77.4503 109.724 77.8963 110.021 78.24 110.42C78.4483 110.654 78.6419 110.902 78.82 111.16C79.3586 111.989 79.8269 112.862 80.22 113.77C80.61 114.61 80.95 115.44 81.29 116.24L81.8 117.41C81.97 117.77 82.16 118.17 82.26 118.35V118.41H82.32L82.24 118.58L82.12 118.95C82.0451 119.103 82.0042 119.27 82 119.44C81.9679 119.53 81.9679 119.629 82 119.72C82 119.72 82 119.77 82 119.72C81.9085 119.666 81.8112 119.622 81.71 119.59C81.62 119.59 81.34 119.49 81.15 119.49C81.0335 119.499 80.9165 119.499 80.8 119.49H81C81 119.49 81 119.4 81 119.36C80.9023 118.574 80.7383 117.798 80.51 117.04C80.21 116 79.91 114.95 79.61 113.89C79.4144 113.277 79.2935 112.642 79.25 112C79.228 111.667 79.228 111.333 79.25 111C79.2566 110.805 79.2766 110.612 79.31 110.42L79.4 110.05C79.4599 109.861 79.5476 109.683 79.66 109.52C79.7646 109.376 79.8892 109.248 80.03 109.14C80.1824 109.021 80.3604 108.939 80.55 108.9C80.7449 108.863 80.945 108.863 81.14 108.9C81.2724 108.927 81.4027 108.964 81.53 109.01C81.807 109.117 82.0589 109.281 82.27 109.49C82.5293 109.729 82.7639 109.994 82.97 110.28C83.3284 110.752 83.6622 111.243 83.97 111.75C84.56 112.75 85.1 113.69 85.64 114.64L86.48 116.09C86.62 116.32 86.76 116.56 86.89 116.76C87.02 116.96 87.05 117.02 87.15 117.1L87.3 117.2L87.41 117.26L87.35 117.43C87.35 117.53 87.35 117.7 87.28 117.76C87.2465 117.888 87.2465 118.022 87.28 118.15C87.28 118.15 87.35 118.27 87.28 118.15C87.21 118.03 87.28 118.15 87.2 118.15C87.1336 118.115 87.063 118.088 86.99 118.07C86.89 118.07 86.6 118.01 86.36 118.01C86.3653 117.947 86.3653 117.883 86.36 117.82C86.36 117.67 86.28 117.47 86.23 117.28C86.02 116.49 85.72 115.64 85.45 114.78L85.21 114.03C85.1033 113.69 85.0033 113.357 84.91 113.03C84.7354 112.401 84.615 111.759 84.55 111.11C84.4663 110.605 84.4946 110.088 84.6328 109.596C84.7711 109.103 85.0159 108.647 85.35 108.26C85.4503 108.223 85.5542 108.196 85.66 108.18C86.0758 108.082 86.5077 108.075 86.9268 108.157C87.3459 108.24 87.7424 108.411 88.09 108.66C88.8674 109.314 89.5153 110.107 90 111L90.47 111.69L90.8 112.21L91.4 113.12C91.7592 113.68 92.1783 114.2 92.65 114.67C92.831 114.844 93.0407 114.987 93.27 115.09C93.35 115.12 93.4345 115.137 93.52 115.14H93.7C93.51 114.42 93.97 116.14 93.92 115.95C93.92 115.95 93.84 115.95 93.73 115.95C93.6186 115.961 93.5082 115.981 93.4 116.01H93.2H93.1V115.95L93.01 115.77L92.76 115.32L92.17 114.39L90.94 112.49C90.73 112.17 90.53 111.84 90.33 111.49C90.095 111.107 89.9069 110.698 89.77 110.27C89.68 109.91 89.58 109.55 89.49 109.14C89.4402 108.91 89.4134 108.675 89.41 108.44C89.3931 108.087 89.4875 107.737 89.68 107.44C89.824 107.231 90.0254 107.067 90.26 106.97C90.4342 106.896 90.6208 106.855 90.81 106.85C91.0758 106.836 91.3422 106.863 91.6 106.93C91.807 106.977 92.0108 107.037 92.21 107.11C92.4486 107.193 92.6767 107.304 92.89 107.44C93.6 107.93 94.14 108.37 94.74 108.78C95.2988 109.186 95.8909 109.544 96.51 109.85C97.0151 110.122 97.5766 110.272 98.15 110.29C98.3367 110.282 98.518 110.225 98.6759 110.125C98.8339 110.025 98.9628 109.885 99.05 109.72L99.41 111.43L98.17 110.74C97.5 110.35 96.84 109.99 96.17 109.56C95.2655 109.03 94.4546 108.354 93.77 107.56C93.5709 107.303 93.4216 107.012 93.33 106.7C93.2793 106.422 93.2793 106.138 93.33 105.86C93.3566 105.659 93.4438 105.47 93.58 105.32C93.68 105.26 93.77 105.32 93.92 105.32H94.11H94.42C94.7116 105.361 94.9893 105.47 95.23 105.64C95.53 105.81 95.9 106.03 96.31 106.29C97.72 107.17 99.31 108.04 100.84 108.89L102.7 109.89L101.38 111.43C101.097 111.81 100.76 112.146 100.38 112.43C100.175 112.579 99.9614 112.716 99.74 112.84C99.5026 112.94 99.2587 113.023 99.01 113.09C98.1495 113.291 97.2504 113.253 96.41 112.98C95.1727 112.549 94.0116 111.925 92.97 111.13L91.61 110.13C91.43 109.99 91.17 109.83 91.17 109.83H91.1L90.86 109.77H90.79V109.55C90.8457 109.173 90.8253 108.789 90.73 108.42C90.7243 108.383 90.7243 108.346 90.73 108.31C90.73 108.31 90.73 108.31 90.86 108.39H91.02C91.1076 108.419 91.1981 108.439 91.29 108.45C91.5398 108.464 91.7902 108.464 92.04 108.45H92.24C92.2383 108.48 92.2383 108.51 92.24 108.54C92.2339 108.63 92.2339 108.72 92.24 108.81L92.45 109.56C92.45 109.56 92.45 109.56 92.45 109.61C92.6687 110.055 92.9159 110.486 93.19 110.9L94.19 112.38C94.53 112.89 94.86 113.38 95.19 113.99L95.45 114.47C95.5928 114.719 95.7069 114.985 95.79 115.26C95.8441 115.459 95.8743 115.664 95.88 115.87C95.8849 115.95 95.8849 116.03 95.88 116.11C95.8672 116.284 95.8302 116.456 95.77 116.62C95.7085 116.807 95.6173 116.982 95.5 117.14C95.3463 117.356 95.1486 117.536 94.92 117.67C94.8061 117.748 94.6814 117.808 94.55 117.85H94.39H94.31H94.19L94 118C93.6686 118.051 93.3314 118.051 93 118C91.9877 117.809 91.0686 117.285 90.39 116.51C89.9133 115.986 89.4755 115.428 89.08 114.84L88.17 113.43C88.1665 113.4 88.1665 113.37 88.17 113.34L88.18 113.27Z" fill="#231F20"/>
<path d="M34.6101 77.6398C34.6343 77.5027 34.6869 77.3722 34.7645 77.2567C34.8421 77.1411 34.9429 77.043 35.0606 76.9686C35.1782 76.8943 35.3101 76.8453 35.4478 76.8248C35.5855 76.8044 35.7259 76.8129 35.8601 76.8498C38.4901 77.8198 33.7601 80.9998 34.6101 77.6398Z" fill="#231F20"/>
<path d="M110.75 66.05C110.779 65.8729 110.846 65.7042 110.946 65.555C111.045 65.4058 111.176 65.2797 111.328 65.185C111.481 65.0903 111.651 65.0293 111.829 65.006C112.007 64.9827 112.188 64.9977 112.36 65.05C115.73 66.29 109.65 70.31 110.75 66.05Z" fill="#231F20"/>
<path d="M40.5498 103.84C40.8142 103.677 41.0125 103.425 41.1098 103.13C41.1298 103.024 41.1298 102.916 41.1098 102.81C41.1076 102.606 41.0433 102.408 40.9253 102.242C40.8074 102.076 40.6414 101.949 40.4498 101.88C40.3801 101.853 40.3037 101.85 40.2317 101.869C40.1597 101.889 40.096 101.931 40.0498 101.99C39.9517 102.2 39.8811 102.422 39.8398 102.65C39.8398 102.73 39.5598 102.74 39.3298 102.65C39.202 102.617 39.0904 102.54 39.0151 102.431C38.9398 102.323 38.906 102.191 38.9198 102.06C38.9667 101.79 39.0919 101.54 39.2798 101.34C39.4825 101.104 39.7625 100.948 40.0698 100.9C40.3262 100.868 40.5866 100.899 40.8287 100.989C41.0708 101.08 41.2873 101.228 41.4598 101.42C41.8317 101.812 42.0668 102.313 42.1298 102.85C42.1442 103.138 42.0962 103.425 41.9892 103.693C41.8822 103.96 41.7186 104.202 41.5098 104.4C41.2883 104.629 41.0318 104.822 40.7498 104.97C40.5228 105.108 40.2706 105.199 40.0079 105.239C39.7452 105.278 39.4773 105.265 39.2198 105.2C38.9987 105.12 38.8061 104.977 38.6656 104.789C38.5252 104.6 38.4432 104.375 38.4298 104.14C38.4199 104.047 38.4199 103.953 38.4298 103.86C38.4898 103.55 38.5998 103.47 38.8698 103.48H38.9998C39.0946 103.496 39.1835 103.536 39.2573 103.598C39.3312 103.659 39.3872 103.74 39.4198 103.83C39.4898 104.1 39.5898 104.23 39.6198 104.19C39.6498 104.15 39.6198 104.19 39.6798 104.19C39.9808 104.147 40.2643 104.022 40.4998 103.83L40.5498 103.84Z" fill="#231F20"/>
<path d="M17.4201 71.42C17.6851 71.2573 17.8836 71.0056 17.9801 70.71C18.0001 70.6042 18.0001 70.4957 17.9801 70.39C17.9779 70.1862 17.9136 69.9879 17.7956 69.8217C17.6777 69.6554 17.5117 69.5292 17.3201 69.46C17.251 69.4351 17.1761 69.4313 17.1049 69.4491C17.0336 69.4669 16.9693 69.5055 16.9201 69.56C16.822 69.77 16.7514 69.9919 16.7101 70.22C16.7101 70.3 16.4301 70.31 16.2001 70.22C15.9701 70.13 15.7301 69.92 15.7901 69.64C15.8476 69.3705 15.9714 69.1196 16.1501 68.91C16.3539 68.6772 16.634 68.5247 16.9401 68.48C17.1967 68.4453 17.4579 68.4746 17.7004 68.5653C17.9429 68.6561 18.1592 68.8054 18.3301 69C18.7039 69.3905 18.9392 69.8928 19.0001 70.43C19.0117 70.7195 18.9635 71.0083 18.8585 71.2785C18.7536 71.5486 18.5941 71.7942 18.3901 72C18.1628 72.2267 17.9033 72.4188 17.6201 72.57C17.3937 72.705 17.1429 72.7939 16.882 72.8317C16.6212 72.8694 16.3554 72.8553 16.1001 72.79C15.884 72.7191 15.6932 72.5867 15.5511 72.4091C15.409 72.2315 15.3218 72.0164 15.3001 71.79C15.2952 71.6967 15.2952 71.6032 15.3001 71.51C15.3701 71.2 15.4701 71.12 15.7501 71.13H15.9301C16.0253 71.1446 16.1147 71.185 16.1887 71.2466C16.2627 71.3083 16.3185 71.389 16.3501 71.48C16.4201 71.74 16.5201 71.87 16.5501 71.83C16.5801 71.79 16.5501 71.83 16.6201 71.83C16.9155 71.7844 17.1944 71.6639 17.4301 71.48L17.4201 71.42Z" fill="#231F20"/>
<path d="M65.8001 7.76993C65.6701 7.65993 65.8001 7.49993 66.0301 7.29993C66.1552 7.22761 66.2958 7.18645 66.4401 7.17993C66.5379 7.2251 66.6316 7.27864 66.7201 7.33993C66.7201 7.33993 67.1601 8.03993 67.3201 8.24993C67.4633 8.45649 67.584 8.67774 67.6801 8.90993C67.8901 9.36993 68.1201 9.82993 68.3601 10.2799C68.4116 10.3809 68.4486 10.4886 68.4701 10.5999C68.5686 10.9794 68.7273 11.3407 68.9401 11.6699C68.9628 11.7346 69.0093 11.7883 69.0701 11.8199C69.3402 12.1814 69.5589 12.5785 69.7201 12.9999C69.8101 13.3399 69.8501 13.7099 69.9401 14.0599C69.9401 14.1099 69.9401 14.1499 69.9401 14.2099C69.9401 14.2699 69.9401 14.4499 69.9401 14.5599C70.0017 14.698 70.0486 14.8421 70.0801 14.9899C70.0949 15.076 70.0949 15.1639 70.0801 15.2499C70.0801 15.3299 69.9301 15.3699 69.9001 15.3599C69.8701 15.3499 69.7901 15.3599 69.7401 15.4399C69.4517 15.2459 69.1746 15.0356 68.9101 14.8099L68.4701 14.2899C68.3024 14.0988 68.1455 13.8985 68.0001 13.6899C67.9574 13.6235 67.9301 13.5483 67.9201 13.4699L67.3101 12.5599C67.1864 12.38 67.117 12.1682 67.1101 11.9499C67.1188 11.9104 67.1188 11.8695 67.1101 11.8299C66.9433 11.5098 66.8061 11.1751 66.7001 10.8299C66.6401 10.6499 66.5501 10.4899 66.4801 10.3199C66.4101 10.1499 66.4801 10.2499 66.4801 10.2199C66.4907 10.1772 66.4907 10.1326 66.4801 10.0899C66.3001 9.68993 66.1901 9.25993 65.9901 8.85993C65.9401 8.76993 65.9101 8.26993 65.8501 8.15993C65.7901 8.04993 65.8501 7.81993 65.8001 7.76993Z" fill="#231F20"/>
<path d="M82.4899 5.86991C82.4899 5.72991 82.6399 5.68991 82.9499 5.70991C83.0933 5.73354 83.2298 5.78814 83.3499 5.86991C83.3982 5.95944 83.4384 6.05315 83.4699 6.14991C83.4699 6.14991 83.3699 6.89991 83.3299 7.14991C83.2928 7.37986 83.229 7.60471 83.1399 7.81991C82.9599 8.24991 82.7899 8.68991 82.5899 9.11991C82.5502 9.21425 82.4962 9.30194 82.4299 9.37991C82.2015 9.65546 82.0191 9.96614 81.8899 10.2999C81.8685 10.358 81.8685 10.4218 81.8899 10.4799C81.7748 10.8404 81.599 11.1786 81.3699 11.4799C81.1499 11.7099 80.8699 11.9099 80.6399 12.1299C80.6399 12.1299 80.6399 12.2099 80.5199 12.2099C80.3999 12.2099 80.3299 12.3199 80.2699 12.3899L79.9899 12.6899C79.9218 12.7271 79.8517 12.7605 79.7799 12.7899C79.7099 12.7899 79.5999 12.7099 79.5999 12.6899C79.5999 12.6699 79.4999 12.6199 79.4399 12.5899H79.3799C79.3799 12.5899 79.3799 11.7499 79.4499 11.6699L79.6099 11.0999C79.6652 10.8853 79.7354 10.6748 79.8199 10.4699C79.8199 10.3999 79.8999 10.3599 79.9399 10.3099C79.9799 10.2599 80.2599 9.46991 80.2799 9.43991C80.2999 9.40991 80.4099 9.10991 80.6099 9.00991C80.6386 8.98677 80.6596 8.95535 80.6699 8.91991C80.8106 8.64535 80.9711 8.38133 81.1499 8.12991C81.2299 7.99991 81.2899 7.84991 81.3599 7.70991C81.4299 7.56991 81.3599 7.70991 81.4199 7.64991L81.4899 7.55991C81.6656 7.23732 81.8193 6.90323 81.9499 6.55991C81.9499 6.46991 82.2699 6.14991 82.2899 6.05991C82.3099 5.96991 82.4999 5.92991 82.4899 5.86991Z" fill="#231F20"/>
<path d="M19.4698 28.2098C19.3098 28.1598 19.3498 27.9698 19.4698 27.6898C19.55 27.57 19.6604 27.4734 19.7898 27.4098C19.8964 27.4044 20.0032 27.4044 20.1098 27.4098C20.1698 27.4098 20.8198 27.9198 21.0398 28.0898C21.2533 28.2471 21.4449 28.4321 21.6098 28.6398C21.9598 29.0498 22.3098 29.4498 22.6098 29.8698C22.6865 29.9625 22.7473 30.0673 22.7898 30.1798C22.9669 30.5372 23.1851 30.8728 23.4398 31.1798C23.4898 31.2298 23.5198 31.2898 23.5998 31.3198C23.911 31.6451 24.1706 32.0161 24.3698 32.4198C24.4898 32.7598 24.5598 33.1298 24.6698 33.4698C24.6698 33.4698 24.7198 33.5598 24.6698 33.6298C24.6434 33.6826 24.6296 33.7408 24.6296 33.7998C24.6296 33.8588 24.6434 33.917 24.6698 33.9698C24.7335 34.1125 24.787 34.2595 24.8298 34.4098C24.8402 34.4928 24.8402 34.5768 24.8298 34.6598C24.8298 34.7398 24.6798 34.7898 24.6598 34.7798C24.6398 34.7698 24.5498 34.7798 24.4998 34.8698H24.4498C24.1545 34.691 23.8706 34.494 23.5998 34.2798L23.1298 33.7998C22.8798 33.5698 22.6798 33.2898 22.6198 33.2398C22.578 33.1791 22.5475 33.1114 22.5298 33.0398C22.5298 33.0398 21.8698 32.2598 21.8498 32.2198C21.8298 32.1798 21.5898 31.9098 21.5798 31.6698C21.5678 31.6293 21.5473 31.5918 21.5198 31.5598C21.319 31.2743 21.1354 30.9771 20.9698 30.6698C20.8798 30.5198 20.7598 30.3898 20.6498 30.2398C20.5398 30.0898 20.6498 30.1798 20.6498 30.1498C20.6358 30.1102 20.6156 30.073 20.5898 30.0398C20.3557 29.687 20.095 29.3527 19.8098 29.0398C19.7398 28.9698 19.5498 28.5298 19.4598 28.4598C19.3698 28.3898 19.5298 28.2298 19.4698 28.2098Z" fill="#231F20"/>
<path d="M14.8899 42C14.7599 42.07 14.6699 41.9 14.6199 41.59C14.6085 41.4464 14.6326 41.3022 14.6899 41.17C14.7574 41.0991 14.8349 41.0384 14.9199 40.99C14.9699 40.99 15.6499 40.89 15.9199 40.84C16.1392 40.8151 16.3607 40.8151 16.5799 40.84H17.9199C18.0194 40.8249 18.1205 40.8249 18.2199 40.84C18.545 40.9309 18.8839 40.9614 19.2199 40.93C19.2754 40.9464 19.3345 40.9464 19.3899 40.93C19.7675 40.8696 20.1523 40.8696 20.5299 40.93C20.8399 41.01 21.1399 41.16 21.4399 41.24C21.4899 41.24 21.5299 41.24 21.5699 41.3C21.6099 41.36 21.7599 41.41 21.8599 41.43C21.992 41.4504 22.1223 41.4805 22.2499 41.52C22.3198 41.5529 22.384 41.5968 22.4399 41.65C22.4999 41.65 22.4399 41.84 22.4399 41.86C22.4399 41.88 22.4399 41.97 22.4399 42.04C22.4446 42.0597 22.4446 42.0803 22.4399 42.1C22.1703 42.2599 21.8896 42.4002 21.5999 42.52L21.0199 42.67C20.8027 42.7261 20.5823 42.7695 20.3599 42.8C20.2941 42.815 20.2258 42.815 20.1599 42.8L19.1599 42.91C18.9799 42.91 18.7899 42.91 18.6099 42.81C18.574 42.7997 18.5359 42.7997 18.4999 42.81C18.1809 42.8064 17.8628 42.7729 17.5499 42.71C17.3868 42.6998 17.2231 42.6998 17.0599 42.71H16.9799H16.8699C16.4799 42.71 16.0999 42.59 15.7199 42.6C15.6299 42.6 15.2199 42.42 15.1199 42.43C15.0199 42.44 14.9999 42 14.8899 42Z" fill="#231F20"/>
<path d="M103.1 80.78C102.989 81.0698 102.989 81.3902 103.1 81.68C103.225 81.9012 103.418 82.0762 103.65 82.1789C103.883 82.2816 104.142 82.3065 104.39 82.25C104.461 82.2256 104.523 82.1799 104.568 82.1191C104.613 82.0584 104.638 81.9854 104.64 81.91C104.587 81.6875 104.506 81.4725 104.4 81.27C104.4 81.18 104.55 81.02 104.79 80.95C104.908 80.8978 105.042 80.8892 105.166 80.9258C105.291 80.9624 105.398 81.0418 105.47 81.15C105.597 81.3934 105.659 81.6655 105.65 81.94C105.638 82.2501 105.514 82.5454 105.3 82.77C105.122 82.9592 104.9 83.1005 104.654 83.1809C104.407 83.2613 104.144 83.2782 103.89 83.23C103.354 83.1608 102.855 82.9185 102.47 82.54C102.286 82.3197 102.148 82.0643 102.065 81.7893C101.983 81.5142 101.957 81.2253 101.99 80.94C102.019 80.6191 102.1 80.3051 102.23 80.01C102.322 79.7634 102.463 79.5374 102.643 79.3452C102.823 79.153 103.04 78.9983 103.28 78.89C103.502 78.8123 103.742 78.8022 103.97 78.8609C104.198 78.9197 104.403 79.0446 104.56 79.22C104.634 79.2789 104.701 79.346 104.76 79.42C104.9 79.7 104.87 79.83 104.65 79.99C104.6 80.0323 104.547 80.0691 104.49 80.1C104.407 80.1464 104.314 80.1708 104.22 80.1708C104.125 80.1708 104.032 80.1464 103.95 80.1C103.73 79.93 103.57 79.9 103.57 79.94C103.57 79.98 103.57 79.94 103.57 80C103.367 80.2233 103.226 80.4956 103.16 80.79L103.1 80.78Z" fill="#231F20"/>
</svg>
