<svg width="128" height="128" viewBox="0 0 128 128" fill="none" xmlns="http://www.w3.org/2000/svg">
<path d="M40.71 107.26C40.8022 106.967 41.006 106.722 41.2773 106.578C41.5486 106.434 41.8656 106.402 42.16 106.49C45.18 107.43 39.73 110.42 40.71 107.26Z" stroke="#231F20" stroke-miterlimit="10"/>
<path d="M34.1497 113.79C34.1942 113.645 34.2667 113.511 34.3632 113.395C34.4597 113.278 34.5782 113.182 34.712 113.111C34.8458 113.041 34.9921 112.997 35.1427 112.983C35.2933 112.969 35.4452 112.985 35.5897 113.03C38.6097 114 33.1697 117 34.1497 113.79Z" stroke="#231F20" stroke-miterlimit="10"/>
<path d="M21.3396 116C21.3841 115.855 21.4567 115.721 21.5532 115.605C21.6497 115.488 21.7682 115.392 21.902 115.321C22.0357 115.251 22.1821 115.207 22.3327 115.193C22.4833 115.179 22.6352 115.195 22.7796 115.24C25.7996 116.19 20.3596 119.19 21.3396 116Z" stroke="#231F20" stroke-miterlimit="10"/>
<path d="M12.2799 48C16.7399 46.31 21.2099 44.84 25.6799 43.37L39.1099 39C42.3699 38 45.6199 36.85 48.8899 35.84C60.4299 32.29 71.9998 28.7 83.3898 24.82C88.4698 23.1 93.5298 21.28 98.4898 19.38C101.68 18.16 104.84 16.86 107.97 15.52C111.095 14.1996 114.149 12.7176 117.12 11.08C118.85 9.96 118.81 10.27 117.51 11.59C115.199 13.616 112.579 15.2601 109.75 16.46C103.35 19.38 96.8198 21.87 90.2498 24.29C83.6798 26.71 76.9999 29 70.3299 31.12C62.3299 33.72 54.0499 36.59 45.8799 39.29C36.8799 42.29 27.8799 45.09 18.9399 48.2L14.8399 49.67L12.8399 50.45L11.9099 50.83C11.7399 50.9 11.5799 50.96 11.4199 51.04L10.9299 51.26C10.8399 51.43 11.0399 51.58 11.1399 51.71C11.2625 51.8408 11.3927 51.9644 11.5299 52.08L11.7499 52.26L12.1499 52.58C13.2699 53.44 14.4599 54.24 15.6699 55.01C17.5099 56.18 19.4199 57.21 21.3699 58.23L27.1899 61.42L38.7999 67.73L39.3799 68.03L40.1599 68.47C40.2199 68.47 40.3199 68.53 40.3299 68.61L40.3899 68.82L40.5199 69.26C40.5594 69.4045 40.5895 69.5515 40.6099 69.7L40.6799 70.04L41.1399 72.55L42.0299 77.55C42.6298 80.85 43.2299 84.14 43.8199 87.45L44.6299 91.79C45.5599 97.23 45.7699 98.94 45.6299 100.19C45.6284 100.474 45.6084 100.758 45.5699 101.04C45.4898 101.35 45.2099 101.04 44.7399 100.04C44.124 98.5996 43.616 97.1156 43.2199 95.6C42.3999 92.68 41.7398 89.68 41.1199 86.66C40.4999 83.64 39.9198 80.57 39.3899 77.48L38.5899 72.84L38.1799 70.54L38.1199 70.24L37.7399 70.04L29.3699 65.54L16.8499 58.72C14.7199 57.5191 12.669 56.1831 10.7099 54.72L10.3299 54.43L9.81985 54C9.38177 53.6478 8.97063 53.2634 8.58985 52.85C8.26277 52.4997 8.01394 52.0838 7.85985 51.63C7.79642 51.4262 7.76603 51.2135 7.76985 51C7.76985 50.8 7.76985 50.52 7.94985 50.4L8.94985 49.54L9.44985 49.11C9.69065 48.9688 9.9413 48.8452 10.1999 48.74L11.3999 48.25L12.2399 47.91L12.2799 48Z" fill="#221F1F"/>
<path d="M68.3199 84.55C69.8499 85.38 71.3199 86.25 72.8599 87.12C73.4099 87.44 73.9899 87.7 74.5099 88.05L80.0899 91.76C80.9099 92.3 81.7599 92.76 82.5999 93.3C83.716 93.8564 84.7716 94.5266 85.7499 95.3C86.0399 95.59 85.8799 95.76 85.4299 95.86C84.822 96.028 84.1732 95.9639 83.6099 95.68C81.3499 94.54 79.1099 93.35 76.9999 92C75.6599 91.1937 74.278 90.4593 72.8599 89.8C71.3399 88.98 69.8599 88.14 68.3099 87.35C67.3699 86.87 66.4299 86.35 65.4699 85.94C64.0151 85.215 62.5231 84.5674 60.9999 84C59.8399 83.55 58.6299 83.37 57.4699 83C57.2093 82.9453 56.9522 82.8751 56.6999 82.79C55.7799 82.41 55.5499 82.06 55.4699 81.55C55.4442 81.4348 55.4275 81.3178 55.4199 81.2C55.4199 80.85 55.8999 80.65 56.7099 80.59C59.0732 80.6683 61.395 81.2335 63.5299 82.25C65.1699 82.91 66.7599 83.71 68.3199 84.51V84.55Z" fill="#221F1F"/>
<path d="M66 49.14L77.14 41.63L81.14 38.85L95.5 29.26C97.62 27.84 99.73 26.37 101.8 24.91C104.47 23.04 107.1 21.1 109.92 19.46C110.078 19.3626 110.245 19.2821 110.42 19.22C110.42 19.28 110.31 18.99 110.78 19.72C110.767 19.7255 110.754 19.7283 110.74 19.7283C110.726 19.7283 110.713 19.7255 110.7 19.72C110.69 19.6874 110.69 19.6526 110.7 19.62C110.7 19.69 110.56 19.54 110.62 19.51V19.6C110.533 19.7626 110.436 19.9196 110.33 20.07C109.471 21.2645 108.42 22.3086 107.22 23.16C101.81 27 96.34 30.74 90.73 34.42C87.37 36.6 84 39 80.61 41.36L69.43 49L62.56 53.7C59.1 56.09 55.56 58.46 52.22 60.88C49.58 62.76 47.06 64.71 44.48 66.62L42.8 67.87C40.66 69.42 39.91 69.8 39.15 69.72C38.9814 69.7223 38.8133 69.7021 38.65 69.66C38.22 69.5 38.91 68.66 40.41 67.39C44.87 63.76 49.8 60.26 54.78 56.79L65.94 49.11L66 49.14Z" fill="#221F1F"/>
<path d="M73.8799 53.78L82.6199 46.41L85.7599 43.67L96.9999 34.17C98.6499 32.76 100.26 31.28 101.85 29.83C103.85 27.94 105.85 25.98 108.05 24.29C108.76 23.78 108.85 24.04 108.56 24.8C108.09 25.9834 107.374 27.0537 106.46 27.94C102.4 31.94 98.1599 35.67 93.7599 39.32C91.1199 41.49 88.5099 43.91 85.8699 46.19L77.1099 53.7L71.7299 58.31C68.9999 60.65 66.2899 63 63.6599 65.37C61.6599 67.23 59.7099 69.15 57.7499 71.05L56.4799 72.31C54.8599 73.85 54.2699 74.25 53.5299 74.18C53.3617 74.1766 53.1942 74.1565 53.0299 74.12C52.5699 73.97 53.0299 73.12 54.0899 71.83C57.5525 68.1097 61.2252 64.5906 65.0899 61.29C67.9699 58.76 70.9099 56.29 73.8299 53.75L73.8799 53.78Z" fill="#221F1F"/>
<path d="M96.4398 70.3999C95.3598 74.0699 94.3198 77.7599 93.4398 81.4699C92.9698 83.3299 92.5198 85.1799 92.1498 87.0499L91.8498 88.4399L91.6198 89.8399L91.3798 91.2299C91.3148 91.5834 91.2747 91.9409 91.2598 92.2999L91.1498 93.5699L91.0898 93.6799L90.5498 94.6799L90.4798 94.8099V94.8699C90.3698 94.6499 90.7198 95.3699 90.2398 94.3799H90.0598L89.6198 94.5099C89.3098 94.8199 88.7298 94.3399 88.2298 93.9999L86.8898 93.0999L83.3798 90.7699C79.1498 88.1199 74.9998 85.4699 70.6798 82.9999C66.436 80.4997 61.9784 78.3814 57.3598 76.6699C56.8498 76.4999 56.3598 76.3299 55.8198 76.1799L54.9998 75.9999L54.5298 75.8799C54.4098 75.8799 54.2398 75.7799 54.1698 75.8799L54.0798 76.2699L53.7598 77.6499C53.2531 79.7633 52.7264 81.8799 52.1798 83.9999C51.4598 86.7199 50.7198 89.4499 49.8798 92.1599C49.0782 94.9093 48.0445 97.5856 46.7898 100.16C45.8498 101.77 45.6498 101.25 45.9398 99.7799C46.3572 97.339 46.9182 94.9248 47.6198 92.5499C49.2798 87.1099 50.7598 81.5499 52.0898 76.0199L52.5698 74.0199L52.6898 73.5099C52.6898 73.3899 52.8098 73.5099 52.8798 73.5099L53.1398 73.5699L54.1398 73.7799L55.1398 74.0099L55.7798 74.1799L56.8498 74.4899C58.2798 74.9299 59.6598 75.4899 61.0198 76.0099C63.7449 77.1164 66.4087 78.3682 68.9998 79.7599C75.1198 83.1299 81.3398 86.8299 87.2298 90.7599L88.3298 91.5099L88.6998 91.7699C88.8185 91.8648 88.9457 91.9485 89.0798 92.0199V91.5599V91.1799L89.2598 90.0799C89.3898 89.3199 89.4998 88.5699 89.6498 87.8199C89.9698 86.3399 90.2498 84.8199 90.6498 83.3799L91.7298 78.9999L92.8898 74.6199C94.1998 69.9999 95.5698 65.4199 96.9998 60.8499C99.2298 53.9199 101.68 47.0399 104.29 40.2999C106.29 35.0799 108.29 29.9199 110.74 24.9099C111.26 23.7999 111.74 22.7099 112.4 21.6399L113.82 19.1099C114.184 18.5431 114.578 17.9957 115 17.4699C115.421 16.8609 115.937 16.3239 116.53 15.8799C116.715 15.7365 116.913 15.6093 117.12 15.4999C117.62 15.3199 116.82 17.0199 115.25 19.9099L113.63 23.2299C113.07 24.3399 112.63 25.5199 112.1 26.6599C111.03 28.9299 110.1 31.3099 109.1 33.6599C107.21 38.4299 105.35 43.2899 103.65 48.2199C102.35 51.8699 101.14 55.5599 99.9498 59.2199C98.7598 62.8799 97.5898 66.6299 96.4998 70.3599L96.4398 70.3999Z" fill="#221F1F"/>
<path d="M55.7698 92.08C55.0498 92.87 54.3198 93.66 53.5798 94.43C53.3098 94.71 53.0698 95.02 52.7998 95.29C51.7998 96.29 50.7998 97.2 49.7998 98.13L48.4798 99.41C47.9305 99.9724 47.3123 100.463 46.6398 100.87C46.2098 101.12 46.1298 99.99 46.6398 99.36C47.6961 98.2065 48.818 97.1147 49.9998 96.09C50.6851 95.4334 51.3297 94.7354 51.9298 94L54.0498 91.62C54.4798 91.13 54.9198 90.62 55.3398 90.14C55.9698 89.38 56.6198 88.62 57.1998 87.82C57.6598 87.21 58.0098 86.53 58.4398 85.91C58.5298 85.78 58.6098 85.63 58.7098 85.5C59.0798 85 59.2798 84.9 59.6598 85.01C59.7481 85.0308 59.835 85.0575 59.9198 85.09C60.1798 85.2 60.2298 85.55 60.0498 85.99C59.5012 87.3129 58.7635 88.5491 57.8598 89.66C57.1998 90.51 56.4998 91.32 55.7998 92.14L55.7698 92.08Z" fill="#221F1F"/>
<path d="M19.6898 62.38C20.9598 63.21 22.2798 63.98 23.6098 64.72C24.0998 64.99 24.6098 65.18 25.1198 65.45C26.8531 66.3966 28.6065 67.3133 30.3798 68.2C31.1698 68.6 31.9798 68.9 32.8298 69.2C33.4175 69.4227 33.9699 69.7292 34.4698 70.11C34.9969 70.5162 35.4074 71.0543 35.6598 71.67C35.7998 72.06 35.3998 72.19 34.8798 72.2C34.3407 72.2343 33.7997 72.1768 33.2798 72.03C32.8617 71.8624 32.4343 71.7188 31.9998 71.6L30.4298 71C29.351 70.553 28.3108 70.0178 27.3198 69.4C26.1098 68.65 24.7298 68.17 23.4598 67.51C22.1898 66.85 20.6698 66 19.3098 65.19C18.4698 64.69 17.6398 64.19 16.8198 63.66C15.5598 62.88 14.3598 61.99 13.1598 61.13C12.7098 60.78 12.2098 60.49 11.7398 60.13C11.2723 59.7787 10.8249 59.4015 10.3998 59C10.2198 58.82 10.0198 58.65 9.8398 58.46C9.2098 57.69 9.1798 57.3 9.4998 56.84C9.57079 56.7325 9.64757 56.6291 9.7298 56.53C10.0298 56.24 10.5398 56.33 11.0398 56.69C11.7998 57.23 12.6298 57.69 13.4598 58.22C14.2898 58.75 15.0698 59.31 15.9098 59.85C17.1498 60.67 18.3998 61.53 19.7198 62.29L19.6898 62.38Z" fill="#221F1F"/>
<path d="M47.4097 63.3C51.2897 60.46 55.2297 57.76 59.1697 55.06L63.4497 52.06L78.7497 41.84C80.9997 40.32 83.2297 38.74 85.4197 37.16C88.2297 35.16 90.9797 33.01 93.9297 31.16C94.8697 30.6 94.9297 30.91 94.4197 31.77C93.5989 33.1216 92.5261 34.303 91.2597 35.25C85.6197 39.56 79.7897 43.59 73.8097 47.5C70.2297 49.87 66.6297 52.48 62.9997 55C59.0497 57.73 55.0997 60.45 51.2197 63.25C48.8397 64.98 46.4397 66.73 44.2197 68.62C43.8097 68.98 43.4097 69.35 43.0497 69.73C42.6897 70.11 42.4397 70.33 42.4997 70.67C42.4997 71.67 42.6197 72.84 42.7197 73.94C42.9497 76.15 43.2497 78.36 43.5697 80.55C44.0797 83.97 44.7597 87.29 45.2697 90.68C45.3897 91.43 45.5197 92.16 45.6097 92.92C45.9497 95.74 45.8197 96.7 45.2297 97.32C45.1118 97.4709 44.9777 97.6085 44.8297 97.73C44.3497 97.98 43.9897 96.9 43.6597 94.9C42.6597 88.9 41.4797 82.62 40.6597 76.16C40.5197 74.95 40.3797 73.75 40.2897 72.51L40.2197 71.57V70.49C40.2424 69.8986 40.4486 69.3289 40.8097 68.86C41.0408 68.5606 41.2914 68.2766 41.5597 68.01C43.3762 66.3184 45.2966 64.742 47.3097 63.29L47.4097 63.3Z" fill="#221F1F"/>
</svg>
