<svg width="128" height="128" viewBox="0 0 128 128" fill="none" xmlns="http://www.w3.org/2000/svg">
<path d="M85.5899 71.79C71.4999 73.46 68.56 70.05 69.51 65.13C69.51 65.13 27.34 70.5 24.52 73.36C21.7 76.22 25.46 81.57 25.46 81.57C25.46 81.57 64.9899 74.06 70.6399 74.01C76.29 73.96 85.5899 71.79 85.5899 71.79Z" fill="#231F20"/>
<path d="M54.25 74.49C58.34 73.99 62.43 73.53 66.53 73.1C68.02 72.93 69.51 72.71 71 72.57C76.27 72.09 81.55 71.64 86.84 71.41C89.19 71.28 91.54 71.14 93.87 71.01L96.12 70.88C96.87 70.86 97.62 70.88 98.37 70.88C99.87 70.9 101.38 70.93 102.87 71.13C103.8 71.26 103.68 71.29 102.89 71.51C102.1 71.77 100.67 72.16 98.96 72.41C95.94 72.9 92.92 73.01 89.89 73.32C86.86 73.57 83.83 73.89 80.76 74.04C77.09 74.23 73.31 74.81 69.59 75.25C65.49 75.74 61.39 76.24 57.3 76.8C54.78 77.15 52.26 77.48 49.75 77.87C45.94 78.45 42.11 79 38.36 79.71C35.44 80.25 32.61 80.99 29.75 81.65C29.12 81.8 28.51 81.97 27.87 82.11C26.69 82.36 25.9 82.49 25.32 82.44C24.74 82.37 24.37 82.18 24.05 81.87C23.9 81.73 23.72 81.6 23.62 81.45C23.45 81.21 23.59 80.93 23.98 80.62C24.37 80.31 25 79.94 25.86 79.71C30.93 78.2 36.4 77.16 41.9 76.22C45.99 75.52 50.11 74.96 54.23 74.41L54.25 74.48V74.49Z" fill="#231F20"/>
<path d="M74.9902 66.79L68.5702 67.32L62.1502 67.95C60.5902 68.13 59.0402 68.39 57.4802 68.55C51.9802 69.17 46.4902 69.84 41.0202 70.68C38.5902 71.03 36.1702 71.51 33.7802 71.99C32.2402 72.29 30.7302 72.67 29.1902 72.98C27.6602 73.3 26.1302 73.63 24.5502 73.73C23.5102 73.58 23.6402 73.59 24.3302 72.93C24.6702 72.59 25.2002 72.25 25.8402 71.85C26.4802 71.45 27.2602 71.08 28.1502 70.89C34.4102 69.36 40.7202 68.13 47.1502 67.38C49.0702 67.14 51.0202 66.84 52.9802 66.53C54.9402 66.21 56.9102 65.88 58.8702 65.62C61.0202 65.32 63.1802 65.04 65.3402 64.79C67.5002 64.52 69.6602 64.28 71.8302 64.06C74.4902 63.76 77.1702 63.54 79.8302 63.28C83.8702 62.93 87.9502 62.72 91.9802 62.44C93.5502 62.36 95.1002 62.25 96.6502 62.12C98.2002 62.01 99.7702 61.96 101.34 61.89C102.04 61.89 102.73 61.89 103.44 61.92C104.1 61.95 104.64 61.99 105.09 62.06C105.56 62.18 105.92 62.34 106.21 62.48C106.79 62.78 107.09 63.1 107.27 63.53C107.35 63.73 107.47 63.92 107.5 64.1C107.59 64.68 106.45 65.03 104.74 65.06C103.39 65.12 102.07 65.09 100.69 65.16C99.3102 65.22 97.9102 65.29 96.5102 65.35C95.1002 65.43 93.6702 65.51 92.2402 65.58C90.8002 65.68 89.3602 65.77 87.9202 65.87C83.6202 66.2 79.3002 66.53 75.0002 66.86V66.78L74.9902 66.79Z" fill="#231F20"/>
<path d="M67.6301 42.43C66.1201 35.28 62.0801 36.88 59.2601 40.54C59.2601 40.54 56.8101 38.95 57.1801 37.91C57.5501 36.87 61.8901 32.92 64.5101 32.46C66.5201 32.1 70.6201 38.32 70.6401 39.7C70.6601 41.08 67.6301 42.43 67.6301 42.43Z" fill="#231F20"/>
<path d="M89.0002 87.12C89.0002 87.12 86.8402 87.95 87.2602 90.86C87.6802 93.77 90.1102 93.53 90.1102 93.53C90.1102 93.53 92.2902 92.64 91.4902 89.42C90.6902 86.19 89.0102 87.12 89.0102 87.12H89.0002Z" fill="#231F20"/>
<path d="M53.8501 96C48.5601 97.22 45.6901 95.28 47.2601 92.28C47.2601 92.28 38.9801 93.36 38.0901 93.96C37.2001 94.56 37.3801 98.05 38.5801 98.05C39.7801 98.05 49.4801 96.86 49.4801 96.86L53.8401 96H53.8501Z" fill="#231F20"/>
<path d="M28.4 54.26C32.08 52.9 35.78 52.07 39.49 51.28C40.84 51 42.19 50.69 43.55 50.46C48.34 49.65 53.15 49.04 57.96 48.45C60.09 48.17 62.23 47.9 64.34 47.62C67.06 47.29 69.78 46.81 72.56 47.1C73.43 47.2 73.31 47.29 72.62 47.63C71.92 47.97 70.67 48.71 69.13 48.99C63.63 49.78 58.12 50.49 52.55 51.14C49.22 51.53 45.8 52.26 42.45 52.93C38.77 53.68 35.08 54.45 31.52 55.56C30.43 55.9 29.35 56.28 28.32 56.72C27.3 57.16 26.28 57.67 25.51 58.33C25.23 58.58 25 58.85 24.88 59.1C24.78 59.26 24.71 59.82 24.63 60.21C24.46 61.06 24.35 61.92 24.23 62.78C24.01 64.51 23.91 66.25 23.88 67.98C23.84 70.68 24.1 73.32 24.27 75.99C24.32 76.58 24.36 77.16 24.41 77.75C24.49 79.96 24.35 80.69 23.86 81.18C23.75 81.29 23.64 81.44 23.53 81.51C23.16 81.73 22.81 80.85 22.53 79.25C22.12 76.87 21.82 74.39 21.67 71.85C21.56 69.31 21.59 66.71 21.81 64.11C21.9 63.14 21.99 62.17 22.14 61.2C22.2 60.71 22.28 60.23 22.38 59.75L22.51 59.02C22.53 58.95 22.52 58.92 22.55 58.81L22.64 58.48C22.7 58.25 22.8 58.09 22.89 57.9C23.28 57.2 23.76 56.76 24.22 56.39C24.68 56.02 25.14 55.72 25.61 55.46C26.53 54.94 27.46 54.53 28.38 54.17L28.41 54.22L28.4 54.26Z" fill="#231F20"/>
<path d="M7.07015 56.44C7.43015 55.51 7.91015 54.7 8.44015 53.99C8.95015 53.25 9.53015 52.59 10.1101 51.94C10.5201 51.46 10.9501 51 11.4001 50.56C13.0201 49.05 14.7201 47.69 16.4502 46.36C17.2302 45.79 17.9601 45.16 18.7601 44.62C19.7402 43.88 20.8601 43.32 21.9201 42.71C22.2601 42.53 22.2201 42.57 21.9901 42.8C21.7501 43.02 21.3201 43.45 20.8201 43.95C19.1001 45.8 17.1601 47.28 15.2801 48.91C14.1401 49.87 13.1201 51.03 12.1401 52.17C11.0601 53.41 10.0101 54.69 9.27015 56.09C8.84015 56.92 8.60015 57.85 8.54015 58.82C8.44015 60.28 8.63015 61.82 9.06015 63.28C9.40015 64.41 9.90015 65.48 10.4001 66.54C10.5101 66.77 10.6401 67 10.7301 67.24C11.0801 68.15 11.0901 68.49 10.8201 68.85C10.7601 68.93 10.7001 69.03 10.6401 69.09C10.4201 69.3 10.0001 69.05 9.55015 68.45C8.21015 66.67 7.22015 64.48 6.76015 62.06C6.39015 60.28 6.43015 58.29 7.07015 56.41H7.12015L7.07015 56.44Z" fill="#231F20"/>
<path d="M48.5301 110.67C46.4801 110.73 44.4201 110.73 42.3701 110.69C41.6201 110.66 40.8702 110.68 40.1102 110.64C38.7802 110.54 37.4602 110.41 36.1302 110.16C34.8102 109.94 33.4401 109.57 32.2101 108.84C31.1701 108.17 30.2401 107.39 29.4301 106.5C28.3501 105.4 27.5701 103.93 27.3801 102.39C27.3201 101.91 27.5001 101.95 27.8001 102.27C28.0801 102.6 28.6001 103.13 29.0601 103.75C29.4901 104.3 29.9102 104.84 30.3702 105.35C30.8402 105.86 31.3601 106.32 31.9101 106.74C33.0301 107.65 34.1601 108.03 35.6001 108.44C37.2901 108.9 39.1801 108.92 41.0101 109C43.0301 109.09 45.0701 109.08 47.1101 109.03C48.3601 109 49.6201 108.94 50.8701 108.86C52.7701 108.73 54.6801 108.6 56.5501 108.35C58.0101 108.16 59.4201 107.89 60.8501 107.63C61.1601 107.57 61.4701 107.5 61.7901 107.46C62.9601 107.27 63.3601 107.31 63.6801 107.64C63.7501 107.72 63.8401 107.79 63.8901 107.87C64.0601 108.14 63.6201 108.46 62.7601 108.72C60.2301 109.46 57.5001 110.04 54.7301 110.28C52.6801 110.5 50.6101 110.62 48.5401 110.72V110.68L48.5301 110.67Z" fill="#231F20"/>
<path d="M94.3198 102.99C96.6198 102.56 98.9098 102.09 101.15 101.55C102.27 101.28 103.38 100.98 104.44 100.64C104.97 100.47 105.48 100.29 105.96 100.1C106.4 99.9301 106.93 99.6201 106.88 99.6401C106.91 99.6101 106.93 99.5901 106.94 99.5301C106.98 99.4501 107.05 99.2401 107.09 99.0301C107.22 98.6501 107.34 98.1501 107.44 97.6801C107.68 96.7201 107.72 95.6901 107.78 94.6601C107.89 92.6001 107.9 90.5101 107.86 88.4201C107.78 84.2401 107.52 80.0401 107.11 75.8701C106.63 71.1201 105.91 66.4001 104.92 61.7801C104.52 60.0101 104.08 58.2501 103.52 56.5601C103.24 55.7201 102.93 54.8901 102.56 54.1201C102.22 53.3401 101.76 52.6101 101.34 52.0901C101.29 52.0501 101.26 52.0101 101.17 51.9701C101.08 51.9201 100.92 51.8601 100.78 51.8001C100.46 51.6901 100.11 51.6001 99.7398 51.5201C98.9998 51.3601 98.2098 51.2501 97.4098 51.1601C95.8198 50.9801 94.1798 50.8901 92.5498 50.8401C89.2798 50.7401 85.9798 50.7701 82.6898 50.8701C76.0998 51.0801 69.5098 51.5401 62.9398 52.2001C55.4798 52.9601 47.9998 54.0101 40.7498 55.5501C38.4198 56.0501 36.1098 56.6101 33.8398 57.2901C31.5898 57.9701 29.3198 58.7401 27.4198 59.8501C26.9598 60.1301 26.5398 60.4401 26.2198 60.7601C26.0798 60.9201 25.9598 61.0801 25.8898 61.2101C25.7898 61.4201 25.6898 61.6901 25.5898 61.9301C25.2098 62.9501 24.9598 64.0701 24.7798 65.2001C24.4298 67.4901 24.3998 69.8501 24.2698 72.2201C24.0098 75.1901 24.1298 74.83 23.3298 72.34C22.9498 71.09 22.4998 69.2801 22.3598 67.0201C22.2898 65.8901 22.2798 64.6401 22.4398 63.2901C22.5098 62.6101 22.6498 61.9101 22.8398 61.1701C22.9398 60.8101 23.0998 60.4301 23.2398 60.0601C23.3598 59.8201 23.5198 59.5301 23.6798 59.3101C23.8398 59.1101 24.0098 58.8901 24.1798 58.7201C25.4098 57.5301 26.6298 56.9701 27.8298 56.4101C29.0398 55.8701 30.2398 55.4401 31.4498 55.0501C33.8698 54.2801 36.2898 53.6801 38.7198 53.1501C43.5798 52.1001 48.4598 51.3101 53.3498 50.6701C63.1398 49.4001 72.9898 48.6101 82.9198 48.3901C86.1398 48.3301 89.3998 48.3001 92.6998 48.3901C94.3498 48.4401 96.0098 48.5301 97.6898 48.7001C98.5298 48.7901 99.3798 48.9001 100.25 49.0801C100.69 49.1701 101.13 49.2901 101.6 49.4401C101.84 49.5401 102.07 49.6101 102.34 49.7601C102.62 49.9001 102.9 50.1201 103.15 50.3601C104.29 51.6801 104.88 53.0001 105.43 54.3601C105.97 55.7101 106.41 57.0801 106.78 58.4501C107.53 61.1901 108.08 63.9501 108.54 66.7001C109.47 72.4001 110.04 78.1301 110.35 83.8801C110.5 86.7601 110.58 89.6401 110.53 92.5301C110.5 93.9801 110.45 95.4301 110.31 96.9001C110.27 97.6401 110.21 98.3801 110.1 99.1501C110.08 99.5401 109.93 99.93 109.83 100.34C109.75 100.55 109.66 100.8 109.54 101.05C109.39 101.28 109.23 101.52 109.06 101.73L108.64 102.08L108.23 102.34C107.99 102.47 107.74 102.61 107.51 102.7C107.04 102.92 106.58 103.09 106.12 103.26C105.2 103.58 104.29 103.86 103.38 104.11C99.3598 105.19 95.3298 105.96 91.2798 106.68C87.2398 107.39 83.1798 108.01 79.1298 108.58C72.9798 109.45 66.8098 110.15 60.6198 110.74C54.4398 111.31 48.2498 111.79 42.0698 111.92C40.0898 111.96 38.1098 111.97 36.1198 111.86C35.1198 111.8 34.1298 111.73 33.1098 111.56C32.5998 111.47 32.0898 111.37 31.5498 111.19C31.0498 111.04 30.3198 110.71 29.8698 110.15L29.1998 109.11C28.9798 108.78 28.8598 108.44 28.6798 108.11C28.3298 107.44 28.0898 106.76 27.8398 106.08C27.3398 104.72 26.9398 103.36 26.5898 102C25.8798 99.2701 25.3098 96.53 24.8198 93.7701C24.4598 91.7001 24.1098 89.68 23.8398 87.59C23.3098 83.71 23.1998 81.1301 23.1698 79.3201C23.1498 77.5101 23.3398 76.4501 23.6198 75.59C23.7498 75.2001 23.8498 74.6901 23.9598 74.4601C24.2998 73.7001 25.0598 76.8101 25.8898 82.4101C26.5798 86.8501 27.2698 91.3601 28.1998 95.84C28.6798 98.07 29.1898 100.31 29.8298 102.48C30.1698 103.55 30.4998 104.63 30.9198 105.63C31.0998 106.16 31.3498 106.6 31.5698 107.07C31.6798 107.31 31.7898 107.54 31.9298 107.7C32.0498 107.87 32.1998 108.12 32.2498 108.16C32.0098 108.11 32.9398 108.44 33.8098 108.54C34.6998 108.68 35.6698 108.75 36.6498 108.8C38.6198 108.89 40.6398 108.88 42.6698 108.83C46.7298 108.72 50.8398 108.44 54.9498 108.1C61.5198 107.55 68.0998 106.81 74.6698 105.97C81.2398 105.13 87.7998 104.16 94.2798 102.92L94.3098 102.99H94.3198Z" fill="#231F20"/>
<path d="M21.5701 40.45C27.3401 36.16 33.2701 32.13 39.3301 28.29C41.5401 26.89 43.7301 25.45 45.9901 24.13C49.9801 21.81 54.0301 19.57 58.3201 17.69C59.4001 17.23 60.5001 16.79 61.6501 16.42C62.2301 16.24 62.8201 16.07 63.4601 15.95C64.0901 15.84 64.8001 15.72 65.6401 15.9C67.1401 16.27 68.1401 17.04 69.1101 17.78C70.0601 18.54 70.9201 19.37 71.7401 20.22C74.6101 23.25 77.1601 26.51 79.5101 29.83C81.0201 31.97 82.5201 34.12 83.8501 36.38C84.5101 37.51 85.1301 38.67 85.7001 39.86C86.2601 41.05 86.8501 42.22 87.2701 43.48C87.6101 45.14 87.5101 44.92 86.4301 43.93C85.8601 43.45 85.2001 42.71 84.3901 41.84C83.9901 41.4 83.5701 40.92 83.1301 40.4C82.9101 40.14 82.7001 39.86 82.4701 39.6C82.2601 39.31 82.0501 39.02 81.8401 38.72L80.7201 37.12L79.6401 35.49C78.9101 34.41 78.1701 33.33 77.4201 32.27C75.9101 30.15 74.3401 28.07 72.7501 26.03C71.1501 24.02 69.4701 22.03 67.6401 20.42C66.7601 19.63 65.7101 18.93 65.0501 18.75C64.8401 18.66 64.3001 18.71 63.7501 18.81C63.1901 18.91 62.5901 19.09 62.0001 19.27C59.1201 20.21 56.2101 21.68 53.3701 23.22C50.5301 24.78 47.7201 26.46 44.9401 28.15C38.8401 31.87 32.8501 35.81 27.0401 39.97C23.4601 42.54 19.9401 45.18 16.5601 47.99C14.7001 49.55 12.8601 51.14 11.1601 52.83C10.3101 53.68 9.49014 54.55 8.76014 55.46C8.41014 55.92 8.06014 56.38 7.80014 56.86C7.54014 57.33 7.35014 57.8 7.39014 58.11C7.56014 59.78 8.12014 61.45 8.79014 63.05C10.8201 67.67 13.8701 71.73 16.9101 75.78C17.5901 76.67 18.2601 77.54 18.9501 78.43C21.4701 81.79 22.1301 82.99 22.0701 84.14C22.0701 84.4 22.1001 84.71 22.0401 84.89C21.8701 85.5 20.4701 84.41 18.5201 82.04C15.7701 78.73 12.9601 75.28 10.4301 71.47C9.17014 69.56 7.96014 67.58 6.90014 65.45C5.87014 63.29 4.97014 61.03 4.64014 58.34C4.64014 58.07 4.64014 57.79 4.67014 57.52C4.72014 57.27 4.76014 57 4.83014 56.8C4.96014 56.38 5.12014 56.03 5.28014 55.7C6.37014 53.72 7.66014 52.41 8.95014 51.04C10.2601 49.71 11.6101 48.45 12.9901 47.25C15.7601 44.85 18.6101 42.59 21.5001 40.39L21.5501 40.44L21.5701 40.45Z" fill="#231F20"/>
<path d="M67.6698 37.5C67.1798 36.83 66.6298 36.19 66.0698 35.56C65.7898 35.25 65.4998 34.95 65.1998 34.66L64.7598 34.25L64.6698 34.17L64.6498 34.15L64.5898 34.09C64.5898 34.09 64.5398 34.05 64.5098 34.04C64.4498 34.01 64.3898 34.04 64.3298 34.06L64.0098 34.2C63.1298 34.58 62.1898 35.15 61.3398 35.76C60.4898 36.37 59.6598 37.09 59.1498 37.8C58.9398 38.09 58.8798 38.28 58.9598 38.54C58.9998 38.65 59.0698 38.76 59.1398 38.85C59.2298 38.98 59.3698 39.19 59.4998 39.36C59.8598 39.81 60.2898 40.25 60.6698 40.76C61.0698 41.25 61.4698 41.75 61.7598 42.4C61.8898 42.85 61.8598 42.81 61.3798 42.83C61.1398 42.85 60.8198 42.84 60.4198 42.83C60.0498 42.8 59.6698 42.7 59.3198 42.51C58.6998 42.17 58.0898 41.8 57.5498 41.25C57.2598 40.96 57.0298 40.75 56.6898 40.27C56.2998 39.73 55.9898 39.12 56.0298 38.48C55.9298 37.85 56.1898 37.19 56.4298 36.68C56.6698 36.18 56.9498 35.89 57.2398 35.56C57.8098 34.97 58.3998 34.51 58.9998 34.1C59.7198 33.61 60.4298 33.13 61.1498 32.64C61.5198 32.4 61.8898 32.16 62.2898 31.95C62.4798 31.84 62.6998 31.74 62.9098 31.64L63.0698 31.56C63.1498 31.54 63.2298 31.5 63.3098 31.47C63.4698 31.41 63.6298 31.36 63.7898 31.31C64.2198 31.23 64.6598 31.19 65.0798 31.26C65.3598 31.38 65.6198 31.54 65.8798 31.7C65.9998 31.79 66.1298 31.89 66.2498 31.99C66.3798 32.1 66.4298 32.14 66.5098 32.21C66.8098 32.48 67.0998 32.76 67.3798 33.04C67.9398 33.6 68.4698 34.17 68.9798 34.75C69.7198 35.61 70.4498 36.48 71.0998 37.45C71.3098 37.79 71.4998 38.07 71.6998 38.49C71.9298 38.94 72.0398 39.44 72.0798 39.93C72.0198 40.27 71.9598 40.61 71.7998 40.92C71.6798 41.24 71.4398 41.55 71.2698 41.75C70.8998 42.21 70.4898 42.56 70.0898 42.9C69.0198 43.79 67.9598 44.6 66.8098 45.3C66.5598 45.46 66.3198 45.62 66.0498 45.76C65.5498 46 65.1898 46.1 64.8898 46.03C64.5898 45.95 64.3498 45.73 64.1198 45.38C64.0098 45.22 63.8898 45.07 63.8098 44.9C63.6698 44.62 63.6698 44.33 63.7598 44.04C63.8498 43.75 64.0198 43.43 64.3198 43.23C65.1898 42.58 66.0998 41.97 66.9498 41.36L68.1698 40.48C68.5398 40.2 68.8598 39.9 68.9998 39.73C68.9698 39.77 68.9998 39.74 68.9898 39.75C69.0098 39.75 69.0198 39.75 69.0098 39.73C68.9798 39.62 68.7998 39.3 68.6798 39.07C68.3698 38.56 68.0098 38.03 67.5998 37.51L67.6498 37.46L67.6698 37.5Z" fill="#231F20"/>
<path d="M52.9699 90.77C53.3299 90.82 53.7199 90.82 54.0599 90.92C54.8099 91.13 55.1199 91.92 55.3399 92.73C55.5899 93.77 55.4899 93.59 55.6199 94.67C55.6799 95.48 55.7199 96.3 55.2499 96.78C55.1599 96.88 54.9999 96.97 54.8699 97.07C54.6899 97.14 54.5299 97.22 54.3399 97.27C53.9299 97.35 53.5199 97.42 53.1199 97.48C53.0399 97.5 52.9499 97.5 52.8799 97.51L52.7399 97.53L52.4599 97.57L51.9099 97.66C51.5399 97.72 51.1699 97.78 50.7999 97.83C48.1899 98.17 45.5899 98.52 42.9799 98.86C41.8199 99.01 40.6699 99.22 39.5099 99.41L38.9199 99.5C38.6399 99.53 38.3399 99.58 38.0699 99.54C37.4799 99.54 37.1399 99.12 36.9399 98.52C36.8899 98.37 36.8499 98.22 36.8199 98.07C36.7799 97.92 36.7699 97.75 36.7499 97.68C36.7199 97.49 36.6499 97.31 36.6599 97.11C36.6399 96.72 36.6299 96.33 36.6299 95.94C36.6499 95.45 36.8299 95.48 37.2199 95.78C37.4799 95.98 37.7499 96.2 37.9999 96.39C38.1499 96.52 38.3299 96.65 38.4599 96.8C38.5199 96.88 38.5799 96.96 38.6399 97.04C38.6599 97.07 38.7099 97.14 38.7099 97.15L38.9699 97.12L41.1699 96.84C42.6599 96.65 44.1699 96.49 45.6899 96.37C47.5099 96.22 49.3599 95.81 51.1799 95.45L51.9299 95.3L52.2999 95.23C52.4499 95.2 52.4199 95.21 52.4899 95.2L52.7799 95.16C52.8599 95.13 53.0399 95.17 53.0199 95.05C53.0199 94.96 53.0199 94.86 53.0199 94.76C53.0099 94.63 53.0199 94.62 52.9799 94.37L52.8099 93.4C52.8099 93.4 52.7899 93.28 52.7499 93.25L52.6099 93.19C52.4799 93.21 52.3699 93.17 52.2499 93.18H52.0599L51.6899 93.19C51.1899 93.23 50.6999 93.26 50.1899 93.32C48.3199 93.53 46.4099 93.77 44.5599 94.13C43.1199 94.42 41.7299 94.87 40.3199 95.28C40.0099 95.37 39.7099 95.48 39.3999 95.56C38.2199 95.81 37.7899 95.59 37.4099 94.92C37.3199 94.76 37.2199 94.61 37.1599 94.46C36.9699 93.94 37.3499 93.37 38.1699 92.98C40.6399 91.99 43.3699 91.56 46.1299 91.19C47.1599 91.05 48.1999 90.95 49.2399 90.87C49.7699 90.83 50.2899 90.79 50.8299 90.77L51.6399 90.74C51.8199 90.74 52.4699 90.71 52.9199 90.73V90.79L52.9699 90.77Z" fill="#231F20"/>
<path d="M90.4099 86.27C91.1999 86.84 91.8799 87.69 92.2099 88.68C92.5499 89.67 92.5399 90.74 92.2599 91.66C92.0799 92.35 91.7999 92.98 91.4199 93.52C91.0699 93.98 90.6799 94.4 90.2499 94.75C89.8399 95.12 89.3099 95.45 88.7899 95.7C87.7199 96.18 86.5599 96.33 85.4599 96.22C84.4799 96.09 83.5499 95.79 82.6999 95.36C82.1699 95.06 81.6799 94.69 81.2699 94.25C80.8199 93.85 80.5899 93.24 80.4799 92.64C80.4799 92.22 80.4499 92.31 80.8399 92.37C81.0399 92.39 81.2999 92.44 81.6299 92.45C81.7899 92.45 81.9899 92.44 82.1399 92.46C82.2699 92.5 82.3999 92.55 82.5199 92.6C82.9299 92.82 83.3599 92.96 83.7499 93.09C84.1199 93.26 84.4999 93.39 84.8899 93.47C85.0799 93.52 85.2699 93.55 85.4599 93.57C85.6499 93.62 85.8399 93.65 86.0399 93.68C86.4299 93.73 86.8299 93.72 87.2399 93.68C88.2099 93.57 89.0599 92.6 89.6099 91.74C90.1799 90.77 90.2599 89.62 89.5699 88.7C89.1499 88.14 88.4899 87.71 87.7299 87.45C87.1599 87.28 86.4899 87.13 85.9199 87.13C85.3299 87.15 84.7399 87.31 84.2199 87.6C83.3899 88.05 82.8199 88.85 82.3899 89.66C82.2899 89.84 82.2299 90.03 82.1399 90.21C81.8199 90.89 81.6099 91.05 80.9399 90.98C80.7899 90.97 80.6299 90.97 80.4799 90.94C79.9899 90.86 79.7099 90.35 79.9099 89.63C80.2099 88.58 80.7899 87.55 81.6699 86.72C82.5299 85.88 83.6999 85.22 85.0199 85C85.5099 84.91 86.0099 84.91 86.4999 84.92C86.9399 84.98 87.3799 84.99 87.8199 85.1C88.7099 85.26 89.6099 85.65 90.4299 86.21L90.3999 86.26L90.4099 86.27Z" fill="#231F20"/>
<path d="M88.0198 94.1201C87.2098 93.5701 86.4898 92.7501 86.0998 91.7401C85.6998 90.7401 85.6798 89.6101 85.9698 88.6501C86.0498 88.2801 86.2098 87.9701 86.3398 87.6201C86.5098 87.3101 86.6698 86.9901 86.8898 86.7201C88.4098 84.8501 90.6498 83.8601 92.9398 83.9201C93.9498 83.9801 94.9598 84.2301 95.8498 84.6901C96.4298 84.9801 96.9198 85.4301 97.3198 85.9201C97.7598 86.3901 97.9398 87.0401 97.9598 87.6801C97.9098 88.1101 97.9398 88.0201 97.5598 87.9001C97.3598 87.8501 97.1098 87.7501 96.7798 87.7101C96.6198 87.6801 96.4198 87.6801 96.2798 87.6401C96.1598 87.5801 96.0298 87.5401 95.9198 87.4701C95.5598 87.2101 95.1398 87.0901 94.7798 86.9601C94.4298 86.8001 94.0698 86.7101 93.6898 86.6301C93.4998 86.6201 93.3098 86.5701 93.1098 86.5801C92.9098 86.5401 92.7098 86.5401 92.4998 86.5101C92.0798 86.5101 91.6398 86.5101 91.1898 86.6101C90.1198 86.8101 89.1398 87.7301 88.6198 88.5901C88.0098 89.5501 87.9598 90.7301 88.7298 91.6601C89.1898 92.2301 89.8998 92.6601 90.6898 92.9401C91.8998 93.3401 93.2798 93.4601 94.4698 93.0101C95.3998 92.6801 96.0898 91.9801 96.4998 91.2201C96.5798 91.0501 96.6498 90.8801 96.7198 90.7001C96.9798 90.0601 97.1398 89.8901 97.8198 89.8601C97.9698 89.8601 98.1298 89.8301 98.2798 89.8301C98.7698 89.8301 99.1498 90.3001 98.9898 91.1201C98.7598 92.3101 97.9798 93.4801 96.9298 94.2401C95.8798 95.0201 94.5998 95.4101 93.3498 95.5001C92.4198 95.5501 91.4998 95.5001 90.6098 95.2901C89.7198 95.1201 88.8198 94.7401 87.9798 94.2001L88.0098 94.1501L88.0198 94.1201Z" fill="#231F20"/>
<path d="M105.13 42.5501C105.34 42.6901 105.06 42.8901 104.5 43.1901C104.32 43.2801 103.75 43.4301 103.66 43.3901C103.48 43.3201 103.3 43.2301 103.16 43.1301C103.06 43.0701 102.59 41.9401 102.44 41.5601C102.28 41.1901 102.23 40.8201 102.2 40.4401C102.14 39.6801 102.07 38.9401 102.03 38.2001C102.03 38.0401 102.04 37.8701 102.09 37.7101C102.25 37.1501 102.24 36.5901 102.16 36.0501C102.15 35.9601 102.16 35.8701 102.06 35.7801C101.91 35.6401 101.82 34.1901 101.87 34.0001C102 33.5301 102.07 33.0601 102.13 32.5901C102.14 32.5201 102.1 32.4601 102.19 32.3901C102.42 32.2101 102.34 32.0901 102.34 31.9501C102.34 31.7501 102.34 31.5601 102.36 31.3601C102.38 31.2601 102.49 31.1301 102.57 31.0101C102.65 30.9001 103.01 30.8301 103.06 30.8501C103.2 30.9101 103.34 30.7901 103.49 30.7301C103.54 30.7101 103.6 30.6901 103.64 30.6801C103.68 30.6801 103.95 30.9301 104.2 31.2401C104.43 31.5401 104.66 31.8701 104.67 31.9401C104.67 31.9601 104.79 32.4201 104.92 32.9101C105.04 33.3901 105.14 33.8901 105.18 33.9901C105.22 34.1001 105.17 34.2101 105.14 34.3201C105.14 34.3701 105.44 35.7901 105.43 35.8401C105.43 36.1401 105.53 36.4201 105.33 36.7201C105.29 36.7801 105.31 36.8401 105.31 36.9001C105.38 37.3901 105.31 37.8901 105.29 38.3901C105.27 38.6401 105.32 38.8901 105.34 39.1401C105.34 39.1801 105.31 39.2301 105.3 39.2801C105.29 39.3401 105.26 39.4001 105.26 39.4501C105.33 40.0301 105.26 40.6201 105.43 41.1701C105.47 41.2901 105.28 41.9401 105.35 42.0801C105.39 42.1501 105.03 42.5001 105.12 42.5501H105.13Z" fill="#231F20"/>
<path d="M108.86 44.51C108.81 44.77 108.47 44.64 108.01 44.23C107.86 44.1 107.52 43.62 107.51 43.52C107.48 43.34 107.45 43.16 107.44 43.03C107.45 42.97 107.81 42.21 107.88 41.94C107.96 41.66 108.1 41.45 108.26 41.22C108.58 40.76 108.85 40.24 109.13 39.71C109.19 39.59 109.28 39.49 109.39 39.39C109.77 39.06 109.99 38.64 110.15 38.19C110.18 38.11 110.23 38.05 110.18 37.94C110.1 37.77 110.66 36.58 110.79 36.45C111.13 36.14 111.41 35.79 111.71 35.46C111.75 35.41 111.75 35.34 111.87 35.33C112.15 35.32 112.17 35.18 112.24 35.07C112.34 34.91 112.46 34.76 112.61 34.63C112.69 34.56 112.85 34.54 112.99 34.51C113.12 34.48 113.43 34.68 113.45 34.72C113.52 34.84 113.71 34.86 113.85 34.92C113.9 34.94 113.96 34.97 114 34.99C114.08 35.04 114.21 36.25 114.17 36.36C114.17 36.37 114.05 36.75 113.93 37.14C113.81 37.53 113.69 37.95 113.68 38.04C113.67 38.13 113.58 38.19 113.5 38.26C113.47 38.29 113.14 39.52 113.11 39.57C112.98 39.8 112.95 40.08 112.63 40.22C112.57 40.25 112.56 40.3 112.54 40.35C112.37 40.78 112.09 41.15 111.82 41.53C111.68 41.73 111.59 41.95 111.47 42.16C111.45 42.2 111.39 42.22 111.36 42.25C111.31 42.29 111.26 42.32 111.23 42.37C110.96 42.88 110.51 43.29 110.23 43.83C110.16 43.96 109.51 44.29 109.41 44.42C109.35 44.5 108.87 44.42 108.85 44.52L108.86 44.51Z" fill="#231F20"/>
<path d="M110.97 48.16C110.86 48.38 110.62 48.13 110.29 47.6C110.18 47.43 109.99 46.87 110.01 46.78C110.05 46.59 110.1 46.41 110.17 46.27C110.21 46.18 111.13 45.59 111.44 45.39C111.74 45.18 112.07 45.08 112.4 44.99C113.07 44.81 113.74 44.61 114.4 44.45C114.55 44.41 114.7 44.41 114.86 44.43C115.41 44.49 115.92 44.39 116.42 44.24C116.5 44.21 116.59 44.21 116.66 44.11C116.76 43.93 118.14 43.66 118.33 43.69C118.81 43.78 119.27 43.8 119.73 43.85C119.8 43.85 119.86 43.81 119.93 43.9C120.11 44.12 120.24 44.05 120.38 44.04C120.57 44.03 120.77 44.04 120.97 44.07C121.07 44.09 121.19 44.21 121.3 44.3C121.4 44.38 121.43 44.75 121.41 44.8C121.35 44.93 121.45 45.09 121.49 45.24C121.5 45.29 121.52 45.36 121.52 45.4C121.52 45.49 120.57 46.34 120.45 46.36C120.44 46.36 120.05 46.5 119.64 46.63C119.23 46.77 118.81 46.92 118.72 46.97C118.63 47.01 118.53 46.97 118.43 46.97C118.38 46.97 117.18 47.44 117.13 47.45C116.87 47.48 116.63 47.63 116.33 47.47C116.27 47.44 116.22 47.47 116.17 47.47C115.74 47.61 115.28 47.63 114.83 47.68C114.6 47.71 114.39 47.8 114.16 47.85C114.12 47.86 114.07 47.84 114.03 47.83C113.98 47.83 113.92 47.81 113.87 47.83C113.36 48 112.8 48.02 112.32 48.28C112.21 48.34 111.57 48.25 111.45 48.33C111.38 48.37 111.01 48.07 110.97 48.16Z" fill="#231F20"/>
</svg>
