<svg width="128" height="128" viewBox="0 0 128 128" fill="none" xmlns="http://www.w3.org/2000/svg">
<path d="M30.7 100.93C26.73 97.17 23.43 92.74 20.84 87.97C19.93 86.2 19.02 84.42 18.34 82.56C15.92 76 14.87 68.96 15.34 62.02L15.4 60.87L15.53 59.72C15.62 58.95 15.68 58.18 15.8 57.42C16.07 55.9 16.28 54.37 16.68 52.9C17.62 49.11 18.78 45.23 21.21 42.09C21.9 41.08 21.81 41.23 21.55 42.24C21.25 43.24 21.08 45.22 20.43 47.29C19.11 50.91 18.14 54.66 17.6 58.48C17.06 62.3 16.98 66.2 17.33 70.09C17.78 74.74 19.1 79.5 21.04 83.87C23.16 88.66 26.09 93.17 29.66 97.05C30.16 97.69 30.8 98.2 31.37 98.79C31.96 99.35 32.52 99.94 33.13 100.48L35.02 102.03L35.97 102.8L36.98 103.49C41 106.33 45.51 108.55 50.22 109.9C53.88 110.96 57.61 111.44 61.34 111.49C62.16 111.49 62.97 111.49 63.79 111.48C64.55 111.44 65.19 111.4 65.72 111.39C66.26 111.39 66.69 111.4 67.04 111.39C67.76 111.39 68.19 111.49 68.56 111.67C68.73 111.75 68.95 111.82 69.05 111.9C69.23 112.04 69.02 112.22 68.47 112.45C68.2 112.56 67.84 112.69 67.4 112.82C66.96 112.96 66.45 113.09 65.87 113.16C64.14 113.43 62.36 113.54 60.56 113.56C59.66 113.52 58.76 113.47 57.85 113.42C56.95 113.3 56.05 113.19 55.14 113.07C51.53 112.49 47.95 111.44 44.51 110.03C39.43 107.86 34.73 104.76 30.69 100.99L30.72 100.95L30.7 100.93Z" fill="#231F20"/>
<path d="M72.5602 34.29L73.6302 34.46L74.9802 35.27L75.0602 35.32L75.1002 35.34C75.2702 35.24 74.8702 35.48 74.9202 35.45L74.9302 35.46L74.9502 35.48L75.0702 35.6C75.1402 35.68 75.2501 35.75 75.2702 35.88C75.3102 36.12 75.3102 36.41 75.2302 36.73C75.0502 37.38 74.7402 38.08 74.5302 38.71L74.1502 39.8C73.7102 41.17 73.3702 42.55 73.2102 43.94C73.0802 45.02 73.1402 46.08 73.2502 47.11C73.4302 48.93 74.0902 50.63 75.2902 51.99C76.4902 53.35 78.1402 54.31 79.9902 54.79C81.6301 55.22 83.4001 55.26 85.0901 55.03C86.1701 54.87 87.2302 54.56 88.2001 54.16C88.6801 53.96 89.1702 53.79 89.6102 53.55C90.0302 53.31 90.5102 53.12 90.8002 52.77C91.1402 52.38 91.4201 52.29 91.5901 53.12C91.6501 53.53 91.5902 54.16 91.3002 54.85C90.9902 55.51 90.4402 56.12 89.7602 56.56C88.5102 57.24 87.1902 57.6 85.8702 57.84C84.5502 58.07 83.2002 58.15 81.8602 58.02C79.2002 57.76 76.4702 56.78 74.4002 54.87C73.1902 53.75 72.1202 52.39 71.4302 50.84C70.7302 49.3 70.3902 47.64 70.3502 46.04C70.3102 44.27 70.5602 42.55 70.9602 40.9C71.1602 40.07 71.4002 39.26 71.6702 38.47L71.8502 37.95L71.9502 37.7L72.1602 37.18C72.2702 37.03 72.1002 37.03 72.0002 37.01L71.6602 36.94C71.5802 36.93 71.4902 36.91 71.4102 36.88L71.0002 36.75C70.6202 36.62 70.2202 36.54 69.8702 36.35L68.7802 35.85C68.4202 35.68 68.1002 35.44 67.7602 35.24C67.0502 34.85 66.4602 34.28 65.8202 33.79C65.2702 33.21 64.6502 32.68 64.1902 32.02C63.1602 30.79 62.4002 29.36 61.8002 27.88C60.9102 25.58 60.4802 23.04 61.0002 20.55C61.1202 20.01 61.1702 19.45 61.4402 18.96C62.2302 17.03 63.0102 16.73 63.5602 16.6C63.7002 16.58 63.8502 16.53 63.9502 16.54C64.1302 16.55 64.1802 16.77 64.1702 17.15C64.1602 17.53 64.0702 18.07 63.8802 18.68C63.4602 20.57 63.3402 22.41 63.6402 24.22C63.8902 26.02 64.5802 27.8 65.6402 29.36C66.4502 30.49 67.3802 31.58 68.5302 32.38C68.7902 32.62 69.1102 32.76 69.4002 32.96C69.6902 33.15 69.9902 33.34 70.3102 33.46C70.6302 33.59 70.9302 33.76 71.2602 33.88L71.7502 34.03L72.0002 34.1L72.2402 34.17C72.3502 34.21 72.4602 34.24 72.5602 34.25L72.5402 34.32L72.5602 34.29Z" fill="#231F20"/>
<path d="M19.7499 83.29C22.0899 88.8 25.5699 93.82 29.7299 98.14L31.3599 99.69L32.1799 100.47L33.0499 101.18L34.7899 102.61L36.6299 103.9L37.5499 104.55C37.8599 104.76 38.1899 104.93 38.5099 105.13L40.4499 106.27C41.1099 106.62 41.7999 106.93 42.4699 107.26C43.1399 107.59 43.8099 107.92 44.5199 108.17C46.5399 109.01 48.6399 109.6 50.7799 110.1C51.8699 110.31 52.9399 110.57 54.0399 110.72C55.1299 110.9 56.2199 111.07 57.3199 111.17C61.1799 111.6 65.0899 111.6 68.9399 111.11C72.7899 110.62 76.5499 109.56 80.1099 108.03C83.6699 106.5 86.9899 104.41 89.9499 101.88C92.9199 99.36 95.5399 96.42 97.6799 93.14C101.55 87.35 103.88 80.56 105.06 73.73C105.24 72.63 105.42 71.53 105.52 70.41L105.7 68.74L105.75 67.9L105.78 67.48V67.29C105.78 67.17 105.78 67.05 105.8 66.93C105.79 66.88 105.84 66.79 105.77 66.78C105.71 66.77 105.65 66.77 105.59 66.76H105.23L104.56 66.73C103.38 66.66 102.2 66.52 101.03 66.24C98.6999 65.69 96.4599 64.61 94.6699 62.95C92.8699 61.33 91.6599 58.9 91.7699 56.48C91.8299 55.73 91.9499 55.22 92.0499 54.9C92.1499 54.58 92.1999 54.44 92.2399 54.47C92.3299 54.52 92.2199 55.24 92.4599 56.41C92.6199 56.98 92.7599 57.67 93.1099 58.37C93.4399 59.07 93.9199 59.8 94.5699 60.46C95.8599 61.8 97.8399 62.87 100.11 63.5C101.12 63.77 102.15 64 103.22 64.1C103.75 64.15 104.29 64.19 104.83 64.2H106.19C106.78 64.2 107.34 64.3 107.69 64.54C107.78 64.6 107.86 64.66 107.93 64.73C107.97 64.77 108.01 64.8 108.03 64.87L108.05 64.91C108.05 64.91 108.02 64.95 108.09 64.91V64.93L108.12 65.01L108.34 65.65L108.45 65.97C108.48 66.08 108.45 66.25 108.45 66.39L108.41 67.25L108.33 69.21C108.22 70.39 108.16 71.59 108 72.77C107.43 77.5 106.31 82.22 104.43 86.66C100.84 95.57 94.3799 103.56 85.8999 108.39C80.8799 111.34 75.1799 113.24 69.3199 114.1C63.4499 114.93 57.4399 114.68 51.6999 113.54C48.5399 112.98 45.3999 111.93 42.3999 110.73L40.1999 109.68L39.0999 109.15L38.0499 108.54L35.9499 107.32L33.9499 105.94L32.9499 105.25L32.0099 104.49L30.1299 102.96L28.3599 101.3L27.4799 100.47C27.1999 100.18 26.9299 99.88 26.6599 99.58L25.0299 97.8C24.5099 97.18 24.0199 96.54 23.5199 95.91C22.4799 94.68 21.6399 93.29 20.7099 91.98C18.5999 88.63 16.8499 85.05 15.5199 81.32C14.1599 77.58 13.3999 73.7 13.0099 69.71C12.6999 63.67 13.6399 57.71 15.3099 51.99C17.0099 46.27 19.6099 40.84 23.0199 35.98C25.6899 32.22 28.7999 28.82 32.3099 25.9C35.8299 22.99 39.7399 20.56 43.8899 18.63C44.8099 18.22 45.7199 17.81 46.6399 17.41C47.5799 17.06 48.5199 16.72 49.4699 16.37C51.2599 15.78 52.7699 15.38 54.0299 15.06C55.3099 14.8 56.3499 14.61 57.2099 14.5C58.9399 14.3 59.9699 14.45 60.8299 14.73C61.2199 14.86 61.7099 14.96 61.9499 15.1C62.3399 15.34 61.8199 15.71 60.5699 16.22C59.9499 16.49 59.1299 16.73 58.1599 17.01C57.1999 17.33 56.0699 17.67 54.7999 18.02C47.3499 20.33 40.0199 23.71 33.9199 28.86C27.7999 33.96 22.9799 40.69 19.9899 48.24C17.7499 53.83 16.4399 59.86 16.1999 65.87C16.1499 67.37 16.1699 68.87 16.3099 70.3C16.3499 71 16.5299 71.77 16.6399 72.5C16.7799 73.24 16.8399 73.99 17.0399 74.71C17.3999 76.17 17.7199 77.64 18.2399 79.06C18.4899 79.77 18.6699 80.5 18.9699 81.19L19.8299 83.28L19.7599 83.33L19.7499 83.29Z" fill="#231F20"/>
<path d="M36.2302 48.16C35.7702 48.9 38.1402 55.16 41.9602 51.34C44.5102 48.79 45.4002 52.86 43.2602 54.93C41.1202 56.99 36.3402 58.06 34.6702 54.34C32.6402 49.81 36.2302 48.16 36.2302 48.16Z" fill="#231F20"/>
<path d="M41.4701 57.72C40.9901 57.93 40.4601 58.09 39.9501 58.17C39.4401 58.23 38.9401 58.28 38.4201 58.23C37.4001 58.15 36.3601 57.84 35.5201 57.27C34.9201 56.84 34.3201 56.41 33.9201 55.82C32.4601 53.77 32.3601 51.07 33.4301 49.05C33.9101 48.16 34.5601 47.38 35.3201 46.78C35.8101 46.4 36.3401 46.06 36.9301 45.84C37.5101 45.58 38.1801 45.65 38.7801 45.74C39.1601 45.83 39.0901 46.06 38.8401 46.41C38.6801 46.63 38.5201 46.85 38.3901 47.05C38.3001 47.18 38.2101 47.3 38.1401 47.41C38.1001 47.47 38.0501 47.52 38.0101 47.59C37.9601 47.62 37.9101 47.66 37.8601 47.69C37.1001 48.11 36.4801 48.73 36.0601 49.4C35.6801 50.07 35.3101 50.77 35.2201 51.61C35.0601 52.63 35.6701 53.68 36.4001 54.33C36.8001 54.7 37.2601 54.99 37.7701 55.17C38.2901 55.33 38.8601 55.35 39.4501 55.27C40.1301 55.15 40.8001 54.81 41.3201 54.27C42.1001 53.48 42.5701 52.27 42.3001 51.19C42.1001 50.36 41.4601 49.69 40.7901 49.27C40.6401 49.18 40.4701 49.12 40.3401 49.02C39.8101 48.66 39.6701 48.45 39.6101 47.8C39.6001 47.65 39.5601 47.51 39.5601 47.37C39.5201 46.92 39.9901 46.52 40.8801 46.58C42.2101 46.65 43.4201 47.47 44.3001 48.58C45.2101 49.7 45.5401 51.36 45.3101 52.82C44.9701 55.03 43.5001 56.87 41.5401 57.8L41.5001 57.73L41.4701 57.72Z" fill="#231F20"/>
<path d="M61.8098 72.19C61.8098 72.19 65.1598 70.27 63.3398 67.11C61.5198 63.94 69.9498 68.04 68.9998 71.54C68.0498 75.04 68.2898 75.68 65.6898 75.7C63.0898 75.72 60.5898 74.81 60.2198 73.19C59.8498 71.57 61.8098 72.19 61.8098 72.19Z" fill="#231F20"/>
<path d="M64.9501 73.88C65.8301 73.74 66.4201 73.38 66.7601 72.62C66.8501 72.33 66.8501 72.01 66.8301 71.69C67.0301 70.5 66.3201 68.99 64.8801 68.32C64.2501 68 63.5201 67.9 62.8901 67.96C62.4801 67.99 62.1501 68.16 61.8301 68.33C61.4901 68.48 61.1401 68.78 60.9001 69.22C60.7301 69.48 60.6201 69.46 60.4601 69.13C60.3801 68.96 60.2601 68.72 60.2201 68.38C60.1601 68.05 60.1901 67.6 60.4001 67.19C60.5001 67.02 60.6001 66.81 60.7501 66.67C60.9101 66.54 61.0601 66.38 61.2401 66.29C61.5801 66.06 61.9501 65.91 62.3201 65.78C63.0601 65.54 63.7801 65.53 64.4701 65.64C65.1501 65.74 65.8001 65.94 66.4201 66.25C67.0401 66.55 67.6101 67.02 68.0801 67.52C68.6301 68.16 69.1201 68.85 69.5101 69.63C69.8701 70.41 70.1201 71.29 70.0401 72.19C69.9701 73.16 69.6301 74.14 69.0401 74.95C68.4501 75.77 67.5801 76.33 66.7101 76.63C65.6301 77 64.5401 77.05 63.4601 76.85C61.8201 76.54 60.4201 75.41 59.6601 74.02C59.0501 72.96 58.6001 71.7 58.8001 70.42C58.8501 70.15 58.8701 69.86 58.9601 69.6C59.3901 68.63 59.8101 68.5 60.3701 68.62C60.5001 68.65 60.6301 68.67 60.7501 68.72C61.1401 68.88 61.2701 69.37 61.2901 69.91C61.3301 70.32 61.3701 70.67 61.4501 71C61.5301 71.33 61.6901 71.61 61.7801 71.89C61.9801 72.43 62.2901 72.91 62.6901 73.26C62.9901 73.51 63.3201 73.7 63.7001 73.82C64.0701 73.94 64.5101 73.91 64.9501 73.85L64.9701 73.93L64.9501 73.88Z" fill="#231F20"/>
<path d="M42.82 88.89C42.82 88.89 45.88 89.01 45.11 86.05C44.35 83.09 49.49 87.67 47.88 90.01C46.28 92.35 44.97 92.06 43.25 91.6C41.53 91.14 42.81 88.89 42.81 88.89H42.82Z" fill="#231F20"/>
<path d="M48.5198 90.41C47.6798 91.85 46.2398 92.72 44.5898 92.8C43.9198 92.8 43.5498 92.79 43.0498 92.67C42.2198 92.45 41.3398 91.86 40.7598 91.03C40.4698 90.61 40.2798 90.12 40.2098 89.64C40.1998 89.4 40.1898 89.16 40.2098 88.93C40.2498 88.71 40.2798 88.49 40.3398 88.28C40.5398 87.55 40.8798 86.96 41.2698 86.44C41.7298 85.75 42.4598 85.3 43.2298 85.14C43.4698 85.09 43.5598 85.31 43.5798 85.67C43.5898 86.03 43.5998 86.56 43.4898 86.91C43.2998 87.53 43.0798 87.95 43.0598 88.33C43.0098 88.72 43.0998 88.82 42.9998 89C42.9398 89.14 43.0698 89.25 43.2498 89.33C43.3598 89.36 43.4498 89.39 43.5898 89.42C43.7098 89.46 43.8398 89.5 43.9998 89.52L44.2298 89.58C44.2298 89.58 44.3198 89.61 44.3698 89.61C44.4698 89.63 44.5798 89.61 44.6998 89.61C44.9398 89.56 45.1998 89.44 45.4198 89.25C45.6698 89.02 45.8998 88.73 45.9298 88.41C46.0098 87.91 45.7898 87.3 45.2098 87.04C44.7898 86.82 44.2798 86.94 43.9898 87.12C43.9198 87.15 43.8698 87.22 43.8098 87.26C43.5698 87.38 43.3398 87.32 42.8198 87.06L42.4598 86.89C42.0898 86.71 41.8898 86.26 42.1898 85.66C42.6698 84.8 43.7498 84.23 44.8398 84.18C45.9398 84.1 47.0898 84.52 47.9098 85.4C48.5298 86.04 48.9498 86.93 49.0598 87.82C49.1998 88.73 48.9898 89.7 48.6098 90.45L48.5398 90.42L48.5198 90.41Z" fill="#231F20"/>
<path d="M82.1502 85.08C82.1502 85.08 81.4002 89.01 83.4002 88.99C85.4002 88.97 86.2002 87.89 86.2002 87.89C86.2002 87.89 86.7102 91.69 83.4002 91.92C80.0902 92.15 78.6902 90.19 78.8802 88.5C79.0702 86.82 79.2702 83.88 82.1502 85.08Z" fill="#231F20"/>
<path d="M86.1802 91.76C85.5602 92.48 84.6902 92.98 83.8402 93.18C83.4402 93.24 83.0402 93.28 82.6402 93.29C82.2302 93.24 81.8202 93.24 81.4202 93.12C81.1302 93.03 80.8302 92.98 80.5602 92.87C80.2902 92.75 80.0102 92.62 79.7602 92.46C79.3502 92.13 78.9702 91.78 78.6902 91.36C78.5302 91.16 78.4302 90.93 78.3302 90.71C78.2302 90.48 78.1302 90.27 78.0802 90.03C77.8002 89.11 77.8302 88.15 78.0602 87.3C78.2502 86.54 78.6102 85.83 79.0902 85.26C79.7202 84.54 80.5402 84.04 81.4202 83.89C81.6902 83.84 81.7502 84.1 81.6902 84.47C81.6402 84.85 81.4802 85.33 81.2702 85.66C80.7902 86.17 80.7102 86.8 80.5302 87.22C80.4002 87.69 80.3602 88.15 80.4102 88.68C80.4602 88.99 80.6202 89.29 80.8502 89.49C80.9502 89.61 81.0602 89.72 81.1902 89.79C81.3002 89.9 81.4402 89.95 81.5602 90.02C81.6902 90.13 81.8602 90.13 82.0102 90.21C82.1702 90.24 82.3502 90.26 82.5302 90.28C82.7102 90.26 82.9202 90.25 83.0902 90.24C83.2502 90.22 83.4202 90.19 83.5602 90.12C83.9202 89.97 84.2402 89.64 84.4002 89.17C84.6502 88.47 84.5602 87.54 84.0202 86.94C83.6102 86.45 82.9502 86.29 82.4002 86.17C82.2702 86.14 82.1502 86.16 82.0202 86.14C81.7902 86.11 81.6402 86.04 81.5102 85.92C81.3802 85.76 81.2802 85.6 81.1702 85.38C81.1202 85.28 81.0602 85.19 81.0202 85.1C80.9502 84.95 80.9702 84.8 81.0702 84.61C81.1702 84.42 81.3702 84.15 81.6902 84.06C82.6002 83.75 83.7302 83.77 84.6802 84.29C85.6302 84.78 86.4502 85.66 86.8902 86.74C87.5202 88.31 87.4402 90.24 86.2202 91.8L86.1602 91.75L86.1802 91.76Z" fill="#231F20"/>
<path d="M60.17 46.75C60.17 46.75 62.33 46.23 61.8 44.09C61.28 41.95 64.79 43.83 63.57 46.17C62.35 48.52 60.87 48.97 60.41 48.44C59.96 47.91 60.17 46.75 60.17 46.75Z" fill="#231F20"/>
<path d="M64.7298 46.27C64.5998 46.89 64.4098 47.5 63.9398 48.16C63.4898 48.79 62.8398 49.26 62.1198 49.45C61.5998 49.6 61.0498 49.69 60.5198 49.58C58.5598 49.13 57.7098 47.39 57.8498 45.89C57.9498 45.21 58.2198 44.6 58.6198 44.14C58.8798 43.85 59.1598 43.57 59.5198 43.43C59.8798 43.3 60.2798 43.28 60.6298 43.34C60.8498 43.39 60.8098 43.47 60.6898 43.66C60.5498 43.84 60.4098 44.26 60.3398 44.56C60.1498 45.02 60.0598 45.38 60.1398 45.64C60.2498 45.86 60.1898 46.02 60.2598 46.35C60.2998 46.53 60.4398 46.68 60.5698 46.76C60.7198 46.84 60.8098 46.85 60.9498 46.88C61.2498 46.93 61.5998 46.86 61.7898 46.35C61.9198 46.04 61.9898 45.6 61.9498 45.23C61.9298 44.86 61.8298 44.47 61.4798 44.3C61.3998 44.26 61.3198 44.24 61.2298 44.24C60.8498 44.24 60.5898 44.57 60.4698 44.81C60.3998 44.88 60.3598 44.98 60.2698 45.04C60.1898 45.1 60.1098 45.15 60.0298 45.18C59.9398 45.2 59.8298 45.18 59.7298 45.16C59.5298 45.12 59.3498 45.04 59.1298 44.9C59.0298 44.84 58.9298 44.79 58.8498 44.73C58.5898 44.54 58.4398 44.15 58.4598 43.59C58.5598 43.31 58.6798 43 58.8998 42.73C59.0198 42.56 59.2198 42.4 59.3998 42.25C59.5798 42.09 59.7798 41.94 60.0098 41.84C60.8798 41.4 61.9798 41.29 62.8998 41.72C63.1298 41.84 63.3598 41.97 63.5498 42.14C64.1898 42.69 64.6098 43.48 64.7798 44.3C64.9298 45.09 64.8998 45.63 64.8198 46.28H64.7498L64.7298 46.27Z" fill="#231F20"/>
<path d="M51.7802 40.16C50.8402 38.25 49.9002 36.35 48.9702 34.44C48.6802 33.85 47.8002 33.64 47.2602 33.99C46.6602 34.38 46.5002 35.07 46.8102 35.7C47.7502 37.61 48.6902 39.51 49.6202 41.42C49.9102 42.01 50.7902 42.22 51.3302 41.87C51.9302 41.48 52.0902 40.79 51.7802 40.16Z" fill="#231F20"/>
<path d="M26.92 69.25C29.14 69.83 31.35 70.53 33.51 71.32C34.1 71.54 34.85 71.08 34.99 70.48C35.14 69.8 34.78 69.24 34.15 69C31.99 68.21 29.78 67.52 27.56 66.93C26.95 66.77 26.23 67.13 26.08 67.77C25.93 68.41 26.27 69.08 26.92 69.25Z" fill="#231F20"/>
<path d="M63.5301 94.36C63.3301 95.98 63.2701 97.62 63.3401 99.25C63.3701 99.88 63.8701 100.48 64.5401 100.45C65.1701 100.42 65.7701 99.92 65.7401 99.25C65.6701 97.62 65.7301 95.98 65.9301 94.36C65.9601 94.08 65.7701 93.7 65.5801 93.51C65.3701 93.3 65.0301 93.15 64.7301 93.16C64.4301 93.17 64.1001 93.28 63.8801 93.51C63.6501 93.76 63.5701 94.02 63.5301 94.36Z" fill="#231F20"/>
<path d="M81.6798 75.07C83.2798 74.33 84.8398 73.5 86.3398 72.57C86.8698 72.24 87.1298 71.48 86.7698 70.93C86.4098 70.38 85.6998 70.15 85.1298 70.5C83.6298 71.43 82.0698 72.26 80.4698 73C79.8998 73.26 79.7098 74.13 80.0398 74.64C80.4198 75.23 81.0698 75.35 81.6798 75.07Z" fill="#231F20"/>
<path d="M77.34 20.99C77.44 21.4 77.66 23.59 79.43 23.61C81.2 23.63 84.32 22.62 84.04 22.16C83.76 21.7 86.09 24.44 84.41 26.07C82.73 27.7 80.99 26.89 78.85 26.07C76.71 25.25 74 26.26 74.44 24.18C74.88 22.1 77.33 20.99 77.33 20.99H77.34Z" fill="#231F20"/>
<path d="M78.5898 27.31C78.0198 26.92 77.6198 26.67 77.3598 26.61C77.2898 26.59 77.1798 26.58 77.0398 26.58H76.8198L76.4098 26.6C75.7898 26.62 75.2098 26.53 74.7198 26.29C73.9998 25.96 73.3798 25.34 73.2598 24.54C73.1598 23.85 73.3998 23.18 73.8598 22.57C74.0598 22.29 74.3498 21.94 74.5398 21.76C74.7298 21.58 74.9198 21.41 75.1198 21.25C75.9298 20.61 76.8598 20.16 77.8498 19.92C78.7198 19.7 79.6398 19.63 80.5098 19.77C81.0698 19.86 81.6398 19.96 82.1398 20.24C82.6298 20.53 83.0598 20.92 83.3898 21.37C83.5898 21.66 83.3898 21.79 82.9998 21.88C82.6098 21.95 81.9898 22.12 81.4998 22.11H81.1798C81.0798 22.08 80.9898 22.05 80.8898 22.04C80.6998 22 80.4998 21.98 80.3098 21.96C79.9298 21.93 79.5498 21.96 79.1898 21.98C78.4598 22.02 77.6898 22.23 76.9498 22.61C76.7298 22.72 76.5198 22.87 76.3298 23.05C76.2498 23.12 76.1198 23.26 76.0898 23.29C76.0598 23.32 76.0198 23.36 75.9898 23.4C75.8698 23.55 75.7698 23.77 75.8898 23.96C76.0098 24.17 76.2598 24.24 76.5198 24.23C76.7598 24.23 77.2498 24.18 77.7198 24.27C78.1998 24.35 78.6198 24.53 78.9798 24.71C79.8498 25.18 80.4598 25.71 81.0598 25.85C81.8698 26.09 82.9898 25.57 83.3498 24.7C83.6398 24.04 83.3698 23.25 82.9598 22.75C82.8698 22.64 82.7498 22.56 82.6598 22.46C82.3898 22.08 82.4298 21.91 82.6998 21.13C82.7498 20.97 82.7698 20.82 82.8098 20.7C82.8698 20.49 83.0098 20.34 83.3298 20.18C83.6698 20 84.0198 20.09 84.4298 20.3C85.6098 20.98 86.2098 22.33 86.2698 23.74C86.2898 24.45 86.1198 25.22 85.7698 25.89C85.4298 26.57 84.9198 27.13 84.3298 27.56C83.4498 28.2 82.3398 28.55 81.1698 28.43C79.9398 28.28 79.1498 27.7 78.5598 27.36L78.5898 27.31Z" fill="#231F20"/>
<path d="M87.1601 42.22C87.6701 42.32 88.3401 45.51 89.3501 45.31C90.3601 45.11 92.0401 45.39 90.8501 46.73C89.6601 48.07 84.2701 46.33 84.4201 44.8C84.5701 43.27 87.1601 42.23 87.1601 42.23V42.22Z" fill="#231F20"/>
<path d="M89.2701 47.74L89.0401 47.64C89.0401 47.64 88.9901 47.62 88.9001 47.6C88.7601 47.58 88.5701 47.57 88.3601 47.57C87.9201 47.57 87.3501 47.66 86.6401 47.57C86.1301 47.53 85.4201 47.34 84.9601 46.89C84.5601 46.48 84.3701 45.92 84.3501 45.37C84.3201 44.82 84.4901 44.23 84.6901 43.91C85.0701 43.17 85.5701 42.6 86.1601 42.13C86.6801 41.72 87.2601 41.36 87.9001 41.14C88.7201 40.81 89.7601 40.92 90.4301 41.47C90.6501 41.64 90.4501 41.9 90.1401 42.15C89.8301 42.38 89.4501 42.7 89.1901 42.76C88.7201 42.91 88.2901 42.96 87.8301 43.24C87.3801 43.5 86.9301 43.88 86.5801 44.32C86.4801 44.45 86.4101 44.6 86.3701 44.74C86.3301 44.84 86.3201 44.89 86.3201 44.97C86.3201 45.13 86.4301 45.25 86.5501 45.33C86.6501 45.41 87.0401 45.5 87.5001 45.49C87.9601 45.49 88.5401 45.43 89.1901 45.54C89.6201 45.61 89.9601 45.79 90.2001 45.89C90.3501 45.96 90.4801 46.02 90.6401 46.01C90.6601 46.01 90.6801 46.01 90.6901 46.01C90.8101 45.99 90.9301 45.93 91.0201 45.85C91.1101 45.77 91.1901 45.66 91.2801 45.49C91.4301 45.17 91.5401 44.73 91.5501 44.34C91.5501 43.71 91.3301 43.2 91.0301 42.85C90.9701 42.76 90.9001 42.7 90.8401 42.62C90.6101 42.37 90.6601 42.07 90.6801 41.66V41.38C90.7101 41.11 91.0801 40.85 91.7601 40.98C92.2101 41.14 92.6401 41.42 93.0001 41.78C93.3301 42.16 93.5701 42.64 93.7101 43.12C93.8801 43.6 93.8701 44.1 93.8101 44.55C93.7501 45.02 93.6501 45.43 93.5001 45.86C93.3201 46.31 93.1701 46.68 92.7101 47.21C92.2901 47.68 91.7201 48.03 91.1101 48.11C90.7601 48.16 90.4001 48.13 90.0501 48.06C89.8701 48.02 89.7001 47.97 89.5301 47.91L89.2401 47.8L89.2601 47.75L89.2701 47.74Z" fill="#231F20"/>
<path d="M109.83 35.59C109.83 35.59 108.71 40.26 113.11 39.8C115.34 39.57 110.72 41.61 108.71 40.26C106.37 38.69 109.83 35.59 109.83 35.59Z" fill="#231F20"/>
<path d="M110.13 41.78C109.63 41.71 109.09 41.59 108.54 41.32C108 41.06 107.47 40.62 107.14 40.09C106.88 39.7 106.65 39.27 106.6 38.82C106.42 37.26 107.42 35.86 108.6 35.38C109.12 35.16 109.65 35.03 110.17 35C110.84 34.96 111.56 35.18 112 35.69C112.14 35.85 112 35.97 111.76 36.09C111.52 36.19 111.19 36.41 110.96 36.48C110.75 36.53 110.56 36.63 110.39 36.71C110.22 36.78 110.06 36.88 109.92 36.97C109.77 37.05 109.67 37.17 109.55 37.24C109.42 37.3 109.3 37.37 109.18 37.46C108.85 37.69 108.96 38.2 109 38.46C109.06 38.77 109.29 39.11 109.86 39.28C110.2 39.39 110.62 39.43 111.04 39.41C111.36 39.4 111.7 39.37 112.04 39.32C112.38 39.27 112.72 39.19 112.87 39.1C113.01 39.03 113.11 38.89 113.11 38.73C113.11 38.57 113.04 38.43 113 38.32C112.98 38.26 112.95 38.13 112.95 38.01C112.95 37.76 113.04 37.59 113.18 37.49C113.36 37.39 113.54 37.34 113.77 37.32C113.87 37.31 113.97 37.29 114.06 37.29C114.21 37.29 114.34 37.34 114.5 37.43C114.66 37.52 114.88 37.66 114.95 37.8C115.03 37.91 115.07 38.02 115.13 38.13L115.22 38.34C115.25 38.41 115.26 38.56 115.27 38.67C115.4 39.17 115.33 39.67 115.1 40.11C114.88 40.55 114.49 40.9 114.05 41.14C113.57 41.39 113.18 41.5 112.89 41.57C112.03 41.78 111.15 41.88 110.12 41.81V41.75L110.13 41.78Z" fill="#231F20"/>
</svg>
