<svg width="128" height="128" viewBox="0 0 128 128" fill="none" xmlns="http://www.w3.org/2000/svg">
<path d="M101.83 17.14C101.83 17.14 105.6 25.18 104.53 32.24C103.47 39.29 101.17 43.21 100.27 43.61C99.37 44.01 115.38 40.34 116.18 40.1C116.98 39.86 113.68 37.52 114.11 33.78C114.54 30.04 118.41 30.58 119.06 26.71C119.71 22.84 114.65 18.82 116.16 15.72C117.67 12.62 101.83 17.14 101.83 17.14Z" fill="#231F20"/>
<path d="M105.81 41.82C106.86 41.68 107.91 41.5 108.96 41.28C109.34 41.2 109.71 41.07 110.1 40.99C111.46 40.7 112.82 40.41 114.17 40.12C114.78 39.99 115.37 39.82 115.96 39.64C116.71 39.39 117.51 39.32 118.31 39.25C118.56 39.24 118.55 39.33 118.4 39.54C118.24 39.73 117.95 40.1 117.56 40.36L117.03 40.69L116.77 40.85L116.49 40.96C116.11 41.1 115.74 41.23 115.36 41.37C114.6 41.63 113.83 41.86 113.02 41.99C112.06 42.15 111.11 42.53 110.15 42.78C109.09 43.06 108.01 43.3 106.93 43.52C106.26 43.64 105.59 43.78 104.92 43.88C103.9 44.06 102.86 44.13 101.82 44.24C101.41 44.27 101 44.3 100.59 44.36C100.17 44.36 99.75 44.38 99.31 44.32C99.12 44.28 98.92 44.26 98.73 44.21C98.01 44 97.84 43.66 97.96 43.2C97.99 43.09 98.01 42.98 98.05 42.88C98.19 42.57 98.59 42.37 98.95 42.39C99.23 42.41 99.55 42.36 99.82 42.37C100.14 42.33 100.43 42.28 100.74 42.29C101.06 42.26 101.38 42.26 101.7 42.25L102.71 42.18C103.72 42.07 104.77 41.97 105.81 41.78V41.83V41.82Z" fill="#231F20"/>
<path d="M89.26 106.79C89.26 106.79 97.96 107.75 99.19 109.98C100.57 112.48 76.27 113.69 76.27 113.69C76.27 113.69 88.3 111.93 88.64 110.79C89.09 109.26 89.27 106.79 89.27 106.79H89.26Z" fill="#231F20"/>
<path d="M15.26 106.8C15.24 106.65 4.60995 108.52 6.69995 110.21C9.27995 112.3 26.81 113.17 26.81 113.17L16.16 110.28L15.27 106.79L15.26 106.8Z" fill="#231F20"/>
<path d="M15.5998 104.11C15.4198 102.92 15.2698 101.72 15.1398 100.52C15.0998 100.08 15.0298 99.65 14.9998 99.21C14.9198 97.66 14.8598 96.11 14.8798 94.56C14.8798 93.87 14.8798 93.18 14.8698 92.5C14.8498 91.62 15.0098 90.74 15.2498 89.88C15.3198 89.61 15.4098 89.67 15.5198 89.91C15.6198 90.16 15.7798 90.59 15.8198 91.08C15.8798 91.52 15.9398 91.95 15.9098 92.38C15.9198 92.81 15.9298 93.25 15.9398 93.68C15.9598 94.54 15.9898 95.41 16.0098 96.31C16.0198 97.37 16.2298 98.45 16.3698 99.53C16.5398 100.71 16.6698 101.89 16.8598 103.07C16.9798 103.79 17.0898 104.52 17.2398 105.24C17.4598 106.33 17.6898 107.42 18.0198 108.47C18.2798 109.28 18.6398 110.05 18.9998 110.78C19.0698 110.95 19.1798 111.08 19.2598 111.24C19.4998 111.86 19.4198 112.07 19.2798 112.38C19.2398 112.45 19.2198 112.53 19.1798 112.58C19.0698 112.76 18.7298 112.65 18.2298 112.24C17.6498 111.6 17.3498 110.82 17.0398 110.06C16.7398 109.29 16.5198 108.5 16.2998 107.7C15.9998 106.51 15.7698 105.31 15.5598 104.11H15.5898H15.5998Z" fill="#231F20"/>
<path d="M35.2798 77.88C38.2198 77.92 41.1598 77.9 44.1098 77.87L47.3298 77.79C51.1198 77.74 54.9098 77.65 58.6998 77.51C60.3798 77.46 62.0698 77.31 63.7398 77.28C65.8798 77.18 68.0398 77.19 70.1998 77.26C70.8698 77.28 70.7798 77.29 70.2198 77.38C69.6598 77.46 68.6298 77.7 67.3998 77.9C63.0598 78.63 58.6698 78.75 54.2498 78.85C51.5998 78.9 48.8598 79.09 46.1498 79.18C43.1798 79.28 40.1998 79.3 37.2198 79.29C35.3898 79.29 33.5498 79.25 31.7198 79.21C28.9398 79.14 26.1498 78.99 23.3998 78.77C21.2598 78.6 19.1498 78.45 17.0298 78.04C16.5598 77.93 16.0998 77.88 15.6398 77.73C13.9098 77.23 13.4398 76.72 13.2598 76.29C13.2198 76.19 13.1498 76.08 13.1498 75.99C13.1398 75.85 13.3098 75.83 13.6298 75.88C13.7898 75.91 13.9698 75.96 14.1998 76.02C14.4298 76.06 14.6998 76.13 14.9898 76.2C18.4998 77.1 22.4698 77.36 26.4198 77.6C29.3598 77.75 32.3298 77.83 35.2998 77.84V77.87L35.2798 77.88Z" fill="#231F20"/>
<path d="M102.69 25.1C102.6 24.37 102.43 23.63 102.22 22.9C102.15 22.63 101.98 22.4 101.9 22.14C101.57 21.22 101.24 20.27 100.76 19.39C100.56 18.99 100.26 18.66 99.9901 18.33C99.6401 17.9 99.2601 17.5 98.9601 16.98C98.8701 16.81 99.0401 16.63 99.3401 16.51C99.6401 16.4 100.11 16.32 100.45 16.51C100.73 16.68 101.01 16.87 101.28 17.06C101.53 17.27 101.73 17.53 101.94 17.78C102.34 18.29 102.68 18.84 102.93 19.45C103.22 20.17 103.66 20.83 103.96 21.55C104.29 22.34 104.53 23.17 104.74 23.99C104.84 24.51 104.97 25.02 105.03 25.54C105.15 26.33 105.16 27.14 105.19 27.93C105.21 28.55 105.33 29.18 105.22 29.83C105.2 29.97 105.21 30.12 105.17 30.26C105 30.78 104.8 30.9 104.31 30.82C104.2 30.8 104.08 30.79 103.98 30.76C103.62 30.66 103.38 30.36 103.33 30.04C103.31 29.81 103.26 29.57 103.21 29.33C103.18 29.1 103.12 28.88 103.1 28.65C103.07 28.2 103.02 27.74 102.98 27.27C102.88 26.57 102.81 25.85 102.66 25.13L102.71 25.11L102.69 25.1Z" fill="#231F20"/>
<path d="M75.8802 21.53C79.5902 20.33 83.3402 19.35 87.1002 18.39C88.4802 18.06 89.8302 17.66 91.2102 17.35C96.0702 16.24 100.98 15.42 105.92 14.77C107.01 14.62 108.11 14.46 109.21 14.34C110.31 14.22 111.4 14.03 112.5 13.95C113.91 13.83 115.31 13.64 116.74 13.63C118.16 13.63 119.6 13.6 120.99 14.06C121.85 14.32 121.72 14.32 120.97 14.58C120.59 14.69 120.06 15 119.44 15.11C118.82 15.23 118.09 15.43 117.31 15.53C111.73 15.88 106.13 16.81 100.47 17.7C98.7802 17.97 97.0602 18.33 95.3402 18.7C93.6302 19.11 91.9102 19.52 90.2002 19.93C86.4402 20.82 82.7202 21.83 79.0202 22.94C76.7602 23.65 74.4902 24.37 72.3102 25.25L71.0702 25.75C70.6702 25.93 70.2802 26.12 69.8802 26.31C69.4802 26.5 69.0702 26.68 68.7502 26.91C68.4102 27.15 68.0302 27.31 67.7302 27.62C66.4502 28.76 65.3002 30.15 64.2302 31.56C62.5702 33.77 61.1902 36.11 59.8802 38.49C59.5802 39.01 59.3202 39.53 59.0302 40.05C58.7602 40.53 58.5402 40.93 58.3602 41.26C58.1602 41.58 57.9402 41.82 57.7902 42.03C57.4502 42.43 57.1902 42.64 56.9202 42.8C56.7902 42.87 56.6502 42.98 56.5402 43.02C56.2102 43.18 56.1002 42.11 56.5502 40.39C57.0002 39.18 57.5102 38 58.1002 36.84C58.7102 35.7 59.3802 34.58 60.0902 33.48C61.5202 31.28 63.0902 29.14 64.9502 27.11C65.6702 26.37 66.4202 25.58 67.4602 24.98C67.9602 24.63 68.4202 24.43 68.8902 24.21C69.3602 23.99 69.8202 23.74 70.2902 23.56C72.1502 22.78 74.0102 22.12 75.8802 21.48L75.9002 21.53H75.8802Z" fill="#231F20"/>
<path d="M61.1102 47.8C61.2202 47.27 61.4002 46.81 61.6002 46.38C61.6802 46.23 61.7102 46.06 61.7902 45.91C62.1102 45.4 62.4702 44.94 62.8402 44.51C63.0002 44.3 63.1402 44.12 63.3002 43.91C63.4002 43.78 63.4902 43.65 63.5902 43.53C63.7302 43.43 63.9202 43.38 64.1002 43.34C64.2202 43.32 64.3402 43.47 64.4802 43.7C64.6002 43.93 64.8002 44.29 64.8202 44.5C64.7302 44.78 64.6002 45 64.4702 45.24C64.2902 45.44 64.0802 45.63 63.8502 45.82C63.5702 46.05 63.4902 46.4 63.3402 46.7C63.1802 47.03 63.0202 47.37 62.9402 47.71C62.8802 47.92 62.8402 48.13 62.8302 48.33C62.8002 48.64 62.8702 48.93 63.0302 49.15C63.1102 49.22 63.2102 49.27 63.3002 49.31C63.4102 49.34 63.5302 49.34 63.6202 49.37C63.6602 49.39 63.7202 49.37 63.7602 49.39C63.9302 49.44 63.9502 49.57 63.9102 49.97L63.8802 50.24C63.8402 50.54 63.6802 50.76 63.4302 50.8C62.7002 50.99 61.7502 50.45 61.3402 49.59C61.0602 48.98 61.0002 48.34 61.0702 47.8H61.1102Z" fill="#231F20"/>
<path d="M63.0599 43.39C62.5199 43.25 61.9799 43.12 61.4399 42.98C61.2399 42.93 61.0399 42.94 60.8399 42.89C60.1399 42.69 59.4299 42.57 58.7399 42.29C58.4299 42.19 58.1199 42.11 57.8099 42.03C57.4099 41.94 57.0199 41.82 56.6399 41.65C56.5199 41.6 56.5499 41.56 56.6699 41.5C56.7899 41.45 56.9999 41.34 57.2399 41.31C58.0799 41.23 58.9099 41.02 59.7099 41.22C60.1899 41.36 60.6999 41.32 61.2099 41.37C61.7599 41.43 62.3099 41.5 62.8699 41.58C63.2099 41.62 63.5499 41.7 63.8899 41.75C64.4099 41.83 64.9199 41.95 65.4399 41.99C65.8399 42.02 66.2599 41.95 66.6699 41.99C66.7599 41.99 66.8499 41.99 66.9399 42.01C67.2699 42.08 67.3499 42.22 67.3399 42.63C67.3399 42.72 67.3399 42.82 67.3299 42.91C67.2899 43.22 67.1099 43.45 66.8599 43.53C66.4899 43.63 66.1199 43.74 65.7599 43.75C65.3999 43.75 65.0399 43.71 64.6799 43.67C64.1399 43.61 63.5999 43.51 63.0599 43.44V43.4V43.39Z" fill="#231F20"/>
<path d="M55.7301 67.89C41.8801 65.63 52.8101 43.22 54.8001 42.42L51.8601 41.58C51.8601 41.58 36.0601 67.04 37.9901 67.88C39.9201 68.72 55.7301 67.88 55.7301 67.88V67.89Z" fill="#231F20"/>
<path d="M71.3198 78L52.7498 78.08C50.4898 78.08 48.2298 78.14 45.9798 78.12C38.0198 78.04 30.0598 77.9 22.0898 77.43C20.8498 77.35 19.6098 77.26 18.3698 77.15C17.0698 77.01 16.1498 76.95 13.9498 76.59C13.6298 76.44 13.4598 76.26 13.1998 76.1L13.0198 75.97C12.9698 75.9 12.9798 75.81 12.9798 75.74C12.9798 75.59 13.0098 75.44 13.0398 75.29C13.1998 74.67 13.6398 73.94 14.0298 73.28C15.2798 71.36 16.5698 69.51 17.9198 67.68L18.9498 66.33L20.0698 65.04C20.8198 64.19 21.5898 63.34 22.5298 62.65C23.1398 62.23 23.4498 62.11 23.5098 62.19C23.5698 62.28 23.3998 62.6 23.2098 63.22C22.8198 64.45 22.0498 66.58 20.5698 68.67C19.5098 70.08 18.4598 71.52 17.4498 72.96L16.2098 74.76C16.2098 74.76 16.2098 74.76 16.1898 74.77C16.2098 74.76 16.1398 74.81 16.2498 74.73C16.2398 74.75 16.2098 74.78 16.2098 74.79L16.9998 74.91C17.6798 74.99 18.3598 75.07 19.0398 75.13C20.4198 75.26 21.7998 75.36 23.1998 75.45C25.9898 75.63 28.7898 75.76 31.6098 75.89C37.1298 76.14 42.8898 76.04 48.5498 76.03C54.7698 76.03 60.9998 75.98 67.2298 75.91C71.0598 75.85 74.8998 75.79 78.7298 75.73C81.6798 75.67 84.6398 75.61 87.5798 75.55H88.1498C88.2898 75.57 88.2198 75.39 88.1898 75.33C88.1598 75.24 88.1198 75.16 88.0798 75.07L87.8198 74.56L87.4298 73.89C86.7598 72.74 86.0498 71.62 85.3298 70.5C84.5898 69.36 83.8398 68.25 83.0598 67.15L81.8998 65.52L81.3098 64.73L81.0198 64.36C80.9698 64.3 80.9198 64.24 80.8498 64.2C80.7598 64.16 80.6398 64.15 80.5298 64.13L79.9198 64.05C79.4998 64.01 79.0798 63.97 78.6498 63.95C77.7998 63.9 76.9398 63.85 76.0798 63.83C75.1098 63.81 74.1698 63.79 73.1898 63.78C71.3798 63.74 70.1898 63.72 69.3598 63.61C68.5198 63.45 68.0398 63.28 67.6398 63.07C67.4598 62.97 67.2198 62.88 67.1098 62.79C66.9298 62.64 67.1998 62.48 67.8598 62.27C68.5198 62.08 69.5698 61.8 70.9198 61.77C72.6398 61.68 74.3698 61.65 76.1298 61.67C77.0098 61.67 77.8998 61.71 78.7998 61.75C79.2498 61.78 79.7098 61.8 80.1798 61.85C80.4098 61.87 80.6698 61.91 80.9098 61.94C81.2798 62.03 81.6898 62.12 82.0698 62.31C82.2998 62.46 82.4898 62.66 82.6698 62.88L83.0098 63.3L83.5698 64.03L84.6198 65.48C85.3098 66.46 85.9598 67.46 86.6098 68.46C87.2598 69.47 87.8998 70.48 88.5198 71.52L89.4498 73.1L89.8098 73.75L90.2198 74.53C90.4798 75.05 90.7098 75.58 90.7198 76C90.7398 76.23 90.6998 76.42 90.6398 76.6C90.5798 76.75 90.4998 77.01 90.2898 77.07L89.2198 77.66C86.0498 77.74 82.8798 77.82 79.7098 77.9L71.2998 78.05V78H71.3198Z" fill="#231F20"/>
<path d="M35.0901 63.01C34.3201 62.95 33.5501 62.9 32.7701 62.86C32.4901 62.85 32.2101 62.9 31.9201 62.88C30.9201 62.84 29.9001 62.6 28.9001 62.53C28.4501 62.49 28.0001 62.49 27.5601 62.5C27.2801 62.5 26.9901 62.52 26.7101 62.51C26.4201 62.51 26.1401 62.48 25.8501 62.3C25.6701 62.2 25.7001 62.09 25.8501 61.87C25.9601 61.71 26.0701 61.56 26.1501 61.43C26.2801 61.29 26.4201 61.21 26.5801 61.18C27.7201 61 28.8501 60.85 30.0201 60.94C30.7201 60.99 31.4301 60.83 32.1501 60.85C32.9401 60.85 33.7201 60.88 34.5101 60.9C35.0001 60.92 35.4801 60.93 35.9701 60.95C36.7101 60.95 37.4501 61.04 38.1801 61.05C38.7501 61.05 39.3101 60.97 39.8801 61C40.0001 61 40.1301 61 40.2501 61.01C40.7101 61.1 40.8501 61.31 40.9201 61.61C40.9401 61.68 40.9601 61.75 40.9701 61.82C41.0001 62.04 40.7901 62.24 40.4501 62.43C39.9501 62.64 39.4401 62.77 38.9301 62.91C38.4201 63.02 37.9101 63.04 37.4001 63.09C36.6401 63.18 35.8601 63.06 35.0901 63.07V63.02V63.01Z" fill="#231F20"/>
<path d="M65.2102 114.34C58.1102 114.48 51.0302 114.44 43.9402 114.27C41.3502 114.21 38.7702 114.18 36.1802 114.05C32.7602 113.88 29.3402 113.67 25.9202 113.34C24.2102 113.17 22.5002 112.98 20.7802 112.7C19.9202 112.56 19.0602 112.4 18.1902 112.17C17.7602 112.05 17.3202 111.93 16.8602 111.76C16.4702 111.63 15.7402 111.29 15.3902 110.72C15.2202 110.36 15.0902 110.06 14.9602 109.73L14.7302 108.85C14.5602 108.25 14.5102 107.69 14.3902 107.11C14.2402 105.96 14.1202 104.82 14.0402 103.68C13.7302 99.62 13.5602 95.57 13.3902 91.56C13.2202 86.41 12.8502 81.25 13.2902 76.11C13.6602 74.5 13.5602 74.71 14.0702 76.06C14.6002 77.4 15.2802 79.89 15.4302 82.85C15.5902 87.42 15.7402 91.99 15.9602 96.55C16.0702 98.83 16.1902 101.1 16.3802 103.36C16.4702 104.49 16.5902 105.61 16.7202 106.71C16.7902 107.24 16.8202 107.83 16.9202 108.32L17.0602 109.08C17.1202 109.26 17.1902 109.46 17.2102 109.59C17.2102 109.62 17.2402 109.64 17.2602 109.66C17.2802 109.68 17.3002 109.69 17.4202 109.76C17.6402 109.88 17.9102 109.99 18.1902 110.09C18.7602 110.28 19.4002 110.42 20.0402 110.56C23.0502 111.18 26.2702 111.45 29.4902 111.67C32.7102 111.88 35.9702 111.97 39.2002 112.07C46.3002 112.27 53.4102 112.31 60.5202 112.19C64.8902 112.11 69.2702 111.98 73.6302 111.73C75.8902 111.59 78.1602 111.44 80.4102 111.2C81.5302 111.08 82.6502 110.95 83.7502 110.77C84.3002 110.68 84.8502 110.58 85.3802 110.46C85.9102 110.34 86.4702 110.18 86.6802 110.07C86.8402 110.03 86.8902 109.86 86.9302 109.72C86.9602 109.64 86.9702 109.59 87.0002 109.48L87.0902 109.12C87.2002 108.63 87.2902 108.13 87.3802 107.62C87.5502 106.61 87.7002 105.59 87.8302 104.57C88.4702 99.51 88.7102 94.5 88.9602 89.47C89.0002 88.36 89.0402 87.28 89.0702 86.16C89.1602 84.09 89.2002 82.73 89.3402 81.78C89.4202 81.3 89.5102 80.93 89.6102 80.61C89.7202 80.3 89.8502 80.04 89.9702 79.82C90.0802 79.62 90.1702 79.34 90.2502 79.22C90.3902 79.02 90.5202 79.33 90.7802 80.09C91.0502 80.85 91.2202 82.05 91.2602 83.59C91.3802 88.04 91.2802 92.59 90.9502 97.19C90.7902 99.49 90.5802 101.81 90.3202 104.14C90.1902 105.31 90.0402 106.47 89.8502 107.66C89.7602 108.25 89.6602 108.85 89.5102 109.47C89.4702 109.63 89.4502 109.77 89.4002 109.94L89.3302 110.21C89.3002 110.34 89.2402 110.48 89.1902 110.61C89.0502 111.19 88.6202 111.58 88.2502 111.97C88.0302 112.09 87.8002 112.19 87.5702 112.29C87.3402 112.41 87.0802 112.48 86.9702 112.51C84.9702 113.08 83.2302 113.24 81.4002 113.46C79.5902 113.65 77.8002 113.79 76.0002 113.91C72.4102 114.14 68.8202 114.27 65.2402 114.37V114.31L65.2102 114.34Z" fill="#231F20"/>
<path d="M67.4301 60.66C68.1101 59.59 68.7801 58.52 69.4201 57.43C69.6501 57.03 69.8301 56.6 70.0601 56.2C70.9001 54.8 71.7201 53.39 72.5901 51.99C72.9601 51.37 73.2901 50.71 73.6101 50.07C73.8101 49.65 74.0201 49.24 74.2501 48.83C74.4701 48.42 74.7201 48.03 75.0801 47.69C75.3001 47.48 75.3901 47.57 75.5001 47.89C75.5501 48.05 75.6201 48.28 75.6901 48.54C75.7401 48.79 75.7201 49.06 75.6401 49.31C75.3701 50.22 75.0501 51.11 74.6601 51.98C74.2801 52.85 73.8901 53.71 73.3701 54.52C72.7401 55.48 72.3301 56.6 71.7901 57.64C71.2001 58.78 70.5801 59.91 69.9501 61.03C69.5701 61.73 69.1501 62.4 68.7501 63.09C68.1501 64.13 67.4901 65.14 66.9201 66.19C66.4601 67 66.1501 67.88 65.7001 68.68C65.6001 68.86 65.5301 69.05 65.4201 69.22C65.3201 69.38 65.2201 69.51 65.1301 69.61C65.0301 69.7 64.9001 69.74 64.8001 69.78C64.5801 69.85 64.3801 69.83 64.1401 69.76C64.0301 69.73 63.9201 69.71 63.8201 69.67C63.5201 69.55 63.4001 69.1 63.4401 68.48C63.7001 67.7 63.9501 66.89 64.3301 66.15C64.6901 65.4 65.1001 64.66 65.5101 63.92C66.1301 62.82 66.7501 61.72 67.3701 60.61L67.4201 60.64L67.4301 60.66Z" fill="#231F20"/>
<path d="M51.17 45.31L47.73 51.21C47.32 51.93 46.95 52.68 46.53 53.39C45.04 55.91 43.54 58.43 42 60.93C41.32 62.04 40.68 63.18 40.04 64.3C39.64 65.03 39.22 65.75 38.8 66.47C38.57 66.82 38.3 67.15 38.04 67.48C37.79 67.82 37.48 68.13 37.12 68.39C36.68 68.72 36.67 68.61 36.7 68.09C36.7 67.55 36.73 66.64 37.09 65.77C38.72 62.87 40.36 59.92 42.21 57.06C43.33 55.36 44.27 53.45 45.29 51.64L48.69 45.66L50.82 41.98C50.97 41.68 51.25 41.35 51.49 41.09C51.8 40.9 52.22 40.94 52.59 40.93L53.07 40.99L53.48 41.05L54.28 41.19C55.34 41.36 56.4 41.54 57.45 41.71C59.08 41.96 60.7 42.1 62.32 42.25C62.68 42.28 63.03 42.29 63.38 42.33C64.7 42.45 65.05 42.77 65.29 43.31C65.34 43.44 65.42 43.57 65.45 43.69C65.56 44.09 64.95 44.42 63.92 44.49C60.93 44.4 57.92 43.76 54.92 43.2C54.37 43.08 53.8 43.02 53.26 42.97L52.86 42.94H52.67L52.65 42.92C52.65 42.92 52.64 42.92 52.63 42.92C52.63 42.92 52.63 42.92 52.62 42.92C52.62 42.92 52.62 42.92 52.6 42.94L52.49 43.11L52.06 43.83L51.21 45.31L51.16 45.29L51.17 45.31Z" fill="#231F20"/>
<path d="M97.4 30.85C97.99 30.74 98.58 30.64 99.16 30.53C99.37 30.49 99.57 30.39 99.79 30.36C100.56 30.26 101.34 30.19 102.13 30.19C102.48 30.19 102.82 30.12 103.16 30.08C103.6 30 104.07 30.04 104.51 30.26C104.65 30.33 104.6 30.61 104.48 30.93C104.35 31.24 104.17 31.63 103.97 31.75C103.78 31.82 103.62 31.97 103.43 31.98C103.24 32.01 103.06 32.05 102.87 32.08C102.49 32.13 102.09 32.18 101.67 32.15C101.16 32.1 100.68 32.35 100.19 32.46C99.64 32.59 99.08 32.72 98.53 32.86C98.19 32.95 97.84 33.04 97.5 33.12C96.98 33.26 96.45 33.39 95.96 33.6C95.58 33.77 95.26 34.05 94.9 34.27C94.82 34.32 94.75 34.38 94.67 34.42C94.36 34.56 94.21 34.47 93.94 34C93.88 33.89 93.81 33.79 93.76 33.68C93.58 33.31 93.58 32.94 93.76 32.72C94.29 32.06 94.98 31.68 95.71 31.37C96.25 31.14 96.81 30.95 97.38 30.78L97.4 30.83V30.85Z" fill="#231F20"/>
<path d="M105.62 30.1C105.46 32.06 105.2 34.01 104.78 35.95C104.63 36.66 104.51 37.38 104.29 38.07C103.9 39.3 103.4 40.52 102.65 41.66C102.29 42.23 101.81 42.76 101.28 43.24C100.7 43.68 100.06 44.08 99.31 44.21C98.99 44.3 98.66 44.28 98.33 44.31C97.98 44.3 97.63 44.23 97.3 44.11C96.64 43.86 96.12 43.4 95.74 42.91C94.76 41.63 94.41 40.06 94.69 38.61C94.77 38.16 94.93 38.23 95.2 38.59C95.37 38.82 95.54 39.06 95.7 39.28C95.81 39.43 95.91 39.57 96.01 39.7C96.07 39.77 96.11 39.85 96.17 39.92L96.26 40.16C96.46 40.74 96.74 41.28 97.07 41.68C97.41 42.07 97.76 42.29 98.07 42.33C98.8 42.41 99.81 42.14 100.59 41.2C101.58 40.12 102.04 38.41 102.42 36.81C102.85 35.02 103.12 33.15 103.26 31.27C103.35 30.11 103.41 28.95 103.42 27.78C103.43 26.02 103.39 24.23 103.15 22.5C102.97 21.15 102.59 19.86 102.2 18.6L101.94 17.78C101.75 16.73 101.79 16.38 102.11 15.98C102.18 15.89 102.25 15.78 102.32 15.71C102.55 15.47 103.07 15.77 103.58 16.53C104.38 17.65 104.7 18.94 105.01 20.23C105.3 21.52 105.47 22.84 105.59 24.17C105.76 26.14 105.78 28.13 105.68 30.11H105.62V30.1Z" fill="#231F20"/>
<path d="M36.6298 92.23C35.6798 92.17 34.7198 92.12 33.7498 92.09C33.3998 92.08 33.0498 92.14 32.6998 92.12L30.8398 92C30.2198 91.94 29.5898 91.87 28.9698 91.81C28.4198 91.76 27.8598 91.76 27.3198 91.76C26.6198 91.76 25.9098 91.73 25.2098 91.49C24.9898 91.42 25.0398 91.14 25.2398 90.84C25.4398 90.55 25.7898 90.19 26.1798 90.12C26.8698 89.97 27.5598 89.93 28.2498 89.89C28.9398 89.85 29.6398 89.85 30.3498 89.91C31.1998 89.98 32.0698 89.84 32.9398 89.79L35.8198 89.71C36.4098 89.71 37.0098 89.69 37.5998 89.68C38.4998 89.66 39.4098 89.69 40.2998 89.62C40.9998 89.59 41.6798 89.38 42.3698 89.39C42.5198 89.39 42.6698 89.37 42.8298 89.39C43.3998 89.45 43.5798 89.62 43.6898 90.12C43.7198 90.23 43.7498 90.35 43.7598 90.46C43.8098 90.83 43.5698 91.16 43.1698 91.35C41.9698 91.97 40.7398 92.27 39.4698 92.27C38.5298 92.3 37.5798 92.32 36.6198 92.31V92.25L36.6298 92.23Z" fill="#231F20"/>
<path d="M68.0801 47.19C70.4201 45.52 72.5501 43.31 74.5501 41.04C74.9101 40.62 75.2601 40.19 75.6101 39.75L75.9001 39.39C76.0501 39.22 76.1701 39.04 76.3401 38.87C76.4201 38.79 76.5001 38.69 76.5901 38.61L76.9001 38.52L77.1801 38.44C77.2201 38.59 77.1301 38.23 77.1401 38.27H77.1501H77.1701H77.2101L77.2901 38.28L77.4501 38.3L77.9401 38.36L78.5301 38.6L78.8901 38.72C79.1001 38.79 79.3101 38.87 79.5201 38.92C79.9401 39.05 80.3801 39.13 80.8101 39.21C81.6801 39.35 82.5801 39.38 83.4701 39.3C85.2501 39.17 87.0301 38.6 88.6501 37.71C90.1301 36.89 91.4501 35.78 92.5301 34.49C93.9501 32.86 94.9301 30.87 96.1601 28.97C96.5301 28.37 96.5201 28.47 96.4101 29.07C96.3401 29.46 96.2701 29.88 96.2001 30.32C96.1301 30.85 95.9801 31.45 95.7101 32.06C95.2401 33.14 94.7101 34.23 94.0001 35.23C93.2701 36.21 92.4201 37.11 91.4701 37.88C89.5801 39.42 87.3201 40.58 84.8501 41.02C83.6601 41.24 82.4201 41.29 81.1901 41.19C80.5701 41.13 79.9601 41.05 79.3601 40.91C79.0601 40.84 78.7501 40.78 78.4601 40.68L78.0201 40.54C77.9601 40.52 77.9301 40.51 77.8801 40.49C77.6801 40.36 77.6301 40.53 77.4501 40.72C75.4901 43.09 73.3801 45.49 70.9801 47.57C69.4801 48.83 67.9001 50.08 65.8201 50.69C65.0401 50.9 64.1201 50.96 63.2601 50.63C62.8401 50.46 62.3801 50.21 62.0501 49.79C61.7201 49.39 61.6001 48.84 61.6701 48.33C61.7501 47.8 61.9301 47.4 62.1201 47.06C62.3101 46.71 62.5201 46.38 62.7301 46.07C63.1601 45.45 63.6101 44.88 64.0501 44.3C65.4301 42.53 66.6601 40.75 67.6501 38.88C67.8701 38.47 68.0501 38.05 68.2401 37.63C68.9601 36.08 69.2401 35.64 69.9101 35.43C70.0601 35.38 70.2201 35.31 70.3601 35.29C70.8201 35.22 71.0301 36.08 70.6501 37.47C70.0501 39.51 68.9201 41.38 67.7001 43.1C67.0901 43.96 66.4401 44.79 65.8001 45.6C65.1801 46.4 64.5301 47.21 64.1201 47.93C64.0401 48.06 63.9801 48.19 63.9301 48.3L63.8701 48.44V48.47H63.8601C63.7601 48.43 64.2001 48.69 64.6401 48.65C65.6001 48.63 66.9201 47.93 68.0601 47.1L68.0901 47.14L68.0801 47.19Z" fill="#231F20"/>
<path d="M47.0399 67.04L53.4499 67.26C54.2299 67.28 55.0099 67.22 55.7899 67.25C58.5399 67.37 61.2999 67.55 64.0499 67.64C65.2699 67.68 66.4999 67.66 67.7099 67.62C68.4899 67.6 69.2699 67.6 70.0499 67.62C70.8299 67.63 71.6099 67.7 72.3899 67.92C72.8799 68.05 72.8099 68.35 72.3999 68.77C72.1999 68.98 71.8999 69.23 71.5499 69.49C71.1999 69.72 70.7899 69.87 70.3399 69.92C69.5499 70 68.7499 70.1 67.9599 70.15C67.1699 70.16 66.3699 70.17 65.5799 70.16C63.9899 70.15 62.3899 70.09 60.7899 69.95C58.8699 69.78 56.8799 69.98 54.9099 69.94L48.4299 69.78L44.4399 69.67C42.4299 69.62 40.3999 69.54 38.4099 69.53C36.8599 69.5 35.3299 69.61 33.7899 69.61C33.4499 69.61 33.1199 69.64 32.7799 69.58C32.1499 69.5 31.7399 69.39 31.4499 69.22C31.1599 69.07 30.9999 68.91 30.8699 68.71C30.8099 68.62 30.7299 68.53 30.6999 68.45C30.5899 68.2 31.1199 67.93 32.0499 67.62C33.4299 67.23 34.8299 67.18 36.2499 67.04C37.6699 66.93 39.1099 66.81 40.5599 66.86C42.7099 66.9 44.8599 66.93 47.0199 66.97V67.04H47.0399Z" fill="#231F20"/>
<path d="M29.04 30.27C28.87 30.32 28.8 30.1 28.77 29.76C28.77 29.65 28.84 29.35 28.9 29.31C29 29.24 29.11 29.17 29.21 29.13C29.27 29.1 30.14 29.08 30.45 29.05C30.74 29.03 31.03 29.04 31.3 29.11C31.85 29.24 32.42 29.37 32.97 29.53C33.09 29.57 33.21 29.62 33.32 29.7C33.69 29.97 34.1 30.12 34.52 30.23C34.59 30.25 34.65 30.29 34.75 30.24C34.91 30.17 36.01 30.58 36.11 30.69C36.45 30.99 36.7 31.2 36.98 31.46C37.02 31.5 37.08 31.49 37.09 31.6C37.1 31.84 37.22 31.86 37.32 31.92C37.45 32.01 37.58 32.1 37.7 32.23C37.76 32.29 37.77 32.44 37.8 32.56C37.83 32.67 37.66 32.95 37.62 32.97C37.51 33.03 37.5 33.19 37.45 33.32C37.43 33.36 37.41 33.42 37.39 33.45C37.35 33.52 36.29 33.65 36.21 33.61C36.19 33.61 34.97 33.22 34.78 33.17C34.7 33.15 34.65 33.08 34.6 33.02C34.57 32.99 33.57 32.7 33.54 32.68C33.36 32.57 33.14 32.55 33.01 32.3C32.98 32.25 32.94 32.24 32.9 32.23C32.56 32.11 32.25 31.91 31.92 31.74C31.75 31.65 31.57 31.61 31.4 31.54C31.37 31.53 31.34 31.49 31.32 31.47C31.28 31.44 31.25 31.41 31.21 31.39C30.79 31.26 30.39 31.04 29.96 30.93C29.86 30.9 29.44 30.57 29.32 30.55C29.25 30.54 29.1 30.24 29.04 30.26V30.27Z" fill="#231F20"/>
<path d="M42.9602 30.07C43.0702 30.25 42.8902 30.45 42.5802 30.64C42.4802 30.7 42.1602 30.75 42.1102 30.7C42.0002 30.6 41.8902 30.5 41.7902 30.4C41.7302 30.34 41.2802 29.26 41.1802 28.87C41.0602 28.5 40.9902 28.13 40.9602 27.74C40.8802 26.97 40.8202 26.18 40.8302 25.38C40.8302 25.2 40.8502 25.03 40.9002 24.86C41.0702 24.27 41.1302 23.68 41.1802 23.08C41.1802 22.98 41.2102 22.88 41.1502 22.77C41.0402 22.59 41.3402 20.99 41.4602 20.81C41.7402 20.3 41.9702 19.89 42.2102 19.44C42.2502 19.38 42.2402 19.29 42.3502 19.26C42.6002 19.18 42.6102 19.02 42.6802 18.88C42.7702 18.68 42.8702 18.49 43.0002 18.31C43.0702 18.22 43.2202 18.16 43.3502 18.1C43.4702 18.04 43.7602 18.2 43.7802 18.24C43.8502 18.36 44.0202 18.34 44.1502 18.38C44.1902 18.39 44.2502 18.41 44.2902 18.42C44.3602 18.46 44.5202 19.77 44.4802 19.89C44.4502 19.92 44.1402 21.61 44.1202 21.8C44.1202 21.9 44.0402 21.99 43.9802 22.07C43.9402 22.12 43.7902 23.44 43.7902 23.49C43.7102 23.75 43.7302 24.03 43.5202 24.28C43.4802 24.33 43.4802 24.38 43.4702 24.44C43.4302 24.91 43.3102 25.37 43.2402 25.84C43.2102 26.08 43.2202 26.33 43.2102 26.57C43.2102 26.61 43.1802 26.66 43.1702 26.7C43.1602 26.76 43.1302 26.81 43.1302 26.87C43.1302 27.45 43.0802 28.04 43.1902 28.62C43.2002 28.75 43.1002 29.42 43.1102 29.58C43.1102 29.67 42.8902 29.99 42.9402 30.07H42.9602Z" fill="#231F20"/>
</svg>
