<svg width="128" height="128" viewBox="0 0 128 128" fill="none" xmlns="http://www.w3.org/2000/svg">
<path d="M117.19 87.88C117.79 82.55 112.96 80.35 109.42 82.78L108.8 81.63C108.8 81.63 111.06 79.06 114.27 79.65C117.48 80.24 119.01 81.79 119.32 82.75C119.63 83.71 119.27 86.31 119.27 86.31L117.19 87.87V87.88Z" fill="#231F20"/>
<path d="M117.62 83.56C117.41 82.82 117 82.15 116.31 81.71C116.04 81.53 115.74 81.46 115.47 81.33C114.49 80.91 113.28 80.91 112.05 81.32C111.51 81.51 110.99 81.79 110.48 82.08C110.15 82.27 109.85 82.51 109.49 82.67C109.12 82.82 108.73 82.94 108.32 83.03C108.06 83.08 107.96 82.87 107.96 82.49C107.96 82.12 108.02 81.51 108.3 81.09C108.42 80.9 108.58 80.75 108.75 80.63L109.26 80.24C109.61 80 109.96 79.73 110.38 79.55C111.2 79.19 112.12 78.92 113.09 78.88C114.23 78.81 115.51 78.81 116.62 79.27C117.22 79.51 117.77 79.86 118.3 80.29C118.78 80.75 119.22 81.26 119.52 81.84C119.91 82.54 120.13 83.31 120.22 84.08C120.36 85.25 120.13 86.45 119.63 87.51C119.26 88.34 118.74 89.12 118.01 89.7C117.85 89.82 117.7 89.95 117.52 90.05C117.44 90.1 117.36 90.14 117.29 90.17C117.21 90.18 117.13 90.17 117.06 90.17C116.92 90.17 116.8 90.15 116.69 90.12C116.48 90.06 116.34 89.95 116.21 89.8C116.15 89.73 116.08 89.66 116.03 89.59C115.88 89.37 116.03 89 116.24 88.53C116.4 88.19 116.59 88 116.74 87.75C116.86 87.49 117.01 87.28 117.08 87.03C117.3 86.6 117.52 86.2 117.61 85.73C117.8 85.06 117.82 84.27 117.56 83.56L117.62 83.54V83.56Z" fill="#231F20"/>
<path d="M120.35 96.99C124.61 94.16 120.86 90.48 119.45 90.11L121.89 89.45C121.89 89.45 123.77 90.25 124.37 92.12C124.97 93.99 124.8 95.75 124.37 96.37C123.94 96.99 120.35 96.99 120.35 96.99Z" fill="#231F20"/>
<path d="M123.82 89.75C124.87 90.84 125.73 92.29 125.76 94.03C125.76 94.65 125.71 95.26 125.42 95.88C124.91 96.97 123.89 97.62 123.02 97.89C122.13 98.18 121.28 98.24 120.47 98.26C119.75 98.28 119.04 98.29 118.34 98.24C117.89 98.21 117.45 98.19 117.01 98.11L116.68 98.05C116.57 98 116.47 97.96 116.36 97.9C116.15 97.8 115.95 97.68 115.75 97.56C115.5 97.4 115.58 97.23 115.86 96.99C116 96.86 116.18 96.71 116.4 96.54C116.51 96.46 116.62 96.37 116.74 96.3C116.8 96.26 116.86 96.23 116.92 96.18C116.98 96.18 117.04 96.16 117.09 96.16C117.92 96.15 118.73 96.03 119.51 96.03C120.29 96.03 121.05 95.99 121.74 95.9C122.17 95.86 122.5 95.65 122.74 95.44C122.98 95.22 123.03 94.96 123.12 94.68C123.28 93.99 123.02 93.13 122.41 92.38C122.03 91.93 121.56 91.52 121.04 91.22C120.26 90.8 119.19 90.45 118.27 90.5C117.52 90.54 116.86 90.88 116.24 91.25C116.1 91.34 115.97 91.4 115.82 91.47C115.54 91.57 115.33 91.63 115.13 91.57C114.92 91.5 114.74 91.37 114.52 91.16C114.42 91.07 114.32 90.98 114.23 90.89C114.09 90.73 114.03 90.55 114.05 90.31C114.06 90.08 114.13 89.77 114.34 89.55C115.42 88.03 117.75 87.5 119.73 87.79C120.49 87.9 121.12 88.08 121.87 88.37C122.65 88.7 123.31 89.12 123.87 89.67L123.82 89.73V89.75Z" fill="#231F20"/>
<path d="M95.1499 63.89C89.6899 59.07 82.7599 56 75.4599 54.96C72.7899 54.6 70.0799 54.45 67.3899 54.54C62.6399 54.58 57.8799 55.29 53.3699 56.83C48.8699 58.37 44.6299 60.69 40.9199 63.71C37.6299 66.4 34.8299 69.69 32.5599 73.23L31.4699 74.95C31.1299 75.54 30.8399 76.15 30.5199 76.75C30.2099 77.35 29.8799 77.95 29.5899 78.56L28.7899 80.43C28.2099 81.66 27.7799 82.95 27.3099 84.23C26.7899 85.49 26.4199 86.8 25.9099 88.09C25.1199 89.66 25.0999 89.44 24.9099 87.89C24.8099 87.11 24.7799 86.01 24.8399 84.69C24.9099 84.04 25.0499 83.35 25.1999 82.61C25.3799 81.88 25.5199 81.09 25.8599 80.33C27.8899 74.85 30.9099 69.64 35.0099 65.35C35.9699 64.22 37.1299 63.29 38.2199 62.28C38.7499 61.76 39.3599 61.34 39.9499 60.89L41.7299 59.56C42.9799 58.77 44.2299 57.97 45.5299 57.26L47.5299 56.29C48.1899 55.96 48.8599 55.64 49.5599 55.4C50.3899 55.09 51.2099 54.77 52.0499 54.45C52.8799 54.14 53.7599 53.93 54.6099 53.66C56.3099 53.08 58.0899 52.81 59.8499 52.4C60.7299 52.22 61.6299 52.15 62.5299 52.02C63.4299 51.92 64.3199 51.75 65.2199 51.75C67.0199 51.68 68.8199 51.55 70.6099 51.68C74.5399 51.84 78.4699 52.43 82.2599 53.58C86.0499 54.71 89.6699 56.4 92.9599 58.59C97.0399 61.25 100.53 64.71 103.47 68.53C107.87 74.38 110.92 81.13 112.93 88.03C113.71 90.72 114.36 93.42 114.84 96.15C115.07 97.52 115.27 98.9 115.39 100.3L115.44 101.09C115.44 101.35 115.39 101.57 115.37 101.82L115.28 102.54L115.26 102.72V102.81L115.24 102.86V102.88V102.89C115.27 102.92 114.96 102.68 115.09 102.78C115.02 102.87 114.95 102.93 114.88 103C114.73 103.14 114.59 103.3 114.35 103.39C114.11 103.47 113.84 103.51 113.56 103.54L112.13 103.68C110.9 103.78 109.71 103.86 108.48 103.92C103.91 104.06 102.31 103.56 101.5 102.62C101.31 102.41 101.08 102.17 101.02 101.99C100.93 101.68 101.31 101.63 102.06 101.57C102.83 101.5 104.04 101.51 105.64 101.45C106.82 101.42 108.02 101.33 109.23 101.22C109.83 101.17 110.43 101.08 111.03 100.99C111.58 100.9 112.45 100.77 112.31 100.77C112.38 100.73 112.49 100.74 112.44 100.62L112.41 100.51V100.48L112.38 100.28L112.34 99.83C112.21 98.63 112.06 97.42 111.84 96.21C111.01 91.37 109.62 86.52 107.71 81.91C106.27 78.5 104.54 75.2 102.46 72.15C100.36 69.11 97.9199 66.32 95.1399 63.94L95.1799 63.88L95.1499 63.89Z" fill="#231F20"/>
<path d="M54.5399 66.73C55.2099 66.43 55.9199 66.27 56.6199 66.07L58.7299 65.49C60.1499 65.17 61.5899 65 63.0099 64.75C64.4399 64.61 65.8799 64.57 67.3199 64.47C68.0299 64.41 68.7699 64.5 69.4899 64.51C70.2099 64.55 70.9399 64.55 71.6599 64.62L74.7999 65.03C75.8399 65.23 76.8599 65.5 77.8899 65.76C81.4599 66.85 84.8199 68.54 87.7999 70.74C90.8099 72.91 93.3099 75.7 95.3899 78.7C96.3699 80 97.1099 81.46 97.9299 82.86C98.2999 83.58 98.6199 84.33 98.9699 85.06L99.4799 86.16L99.8899 87.29C100.65 89.21 101.22 91.21 101.66 93.24C101.81 94.26 101.95 95.29 102.07 96.31C102.18 97.34 101.99 98.39 101.86 99.42C101.64 100.7 101.67 100.52 101.2 99.48C100.98 98.96 100.51 98.24 100.14 97.39C99.8199 96.53 99.4199 95.55 99.1999 94.45C98.3299 90.59 97.1199 86.83 95.2399 83.37C93.3799 79.91 90.9499 76.75 87.9899 74.09C84.4299 70.92 79.7599 68.83 74.9999 67.84C74.3599 67.64 73.6799 67.63 73.0099 67.52C72.3399 67.44 71.6799 67.31 71.0099 67.27L68.9899 67.2L67.9799 67.16C67.6399 67.16 67.2999 67.2 66.9599 67.21L64.9299 67.34C64.2499 67.38 63.5699 67.41 62.9099 67.55L60.8999 67.89L59.8999 68.06C59.5699 68.13 59.2499 68.24 58.9199 68.33L56.5099 69.02C55.7099 69.27 54.9599 69.63 54.1899 69.93L53.0299 70.4C52.6499 70.57 52.2999 70.79 51.9299 70.99C51.2099 71.4 50.4599 71.77 49.7499 72.21C45.4799 74.92 41.8699 78.71 39.2599 83.04C38.7099 83.86 38.3099 84.76 37.8599 85.62C37.3999 86.48 37.0399 87.39 36.6799 88.29L36.1199 89.64L35.6499 91.02C35.3299 91.94 35.0099 92.85 34.7799 93.8C34.5699 94.63 34.3099 95.43 34.1399 96.28C33.3599 99.39 33.1399 100.39 32.3999 100.98C32.2499 101.12 32.0999 101.31 31.9799 101.39C31.6099 101.66 31.2999 100.26 31.5799 97.82C31.9999 94.21 32.9199 90.54 34.3099 86.95C35.7699 83.4 37.7299 79.95 40.2299 76.87C43.9699 72.33 48.9499 68.68 54.5099 66.63L54.5399 66.69V66.73Z" fill="#231F20"/>
<path d="M59.1502 78.39C63.0401 76.86 67.2501 76.36 71.3401 76.83L73.5701 77.15C74.3001 77.32 75.0302 77.5 75.7602 77.7C80.8102 79.37 85.1501 82.73 88.1001 86.96C88.8001 87.87 89.3602 88.87 89.9802 89.83C90.2702 90.32 90.5101 90.84 90.7801 91.34C91.0501 91.84 91.3102 92.35 91.5102 92.88C92.1101 94.21 92.6202 95.58 93.0102 96.98C93.1602 97.69 93.3001 98.41 93.4201 99.13C93.5601 99.84 93.4201 100.61 93.3101 101.34C93.1501 102.26 93.1602 102.12 92.6902 101.44C92.4701 101.09 92.0101 100.63 91.6301 100.07C91.2901 99.5 90.9402 98.85 90.7201 98.11C89.2001 92.86 86.5401 87.93 82.4701 84.19C80.0302 81.96 76.8102 80.5 73.5401 79.76C73.1001 79.62 72.6401 79.57 72.1801 79.51L70.8002 79.31C69.8702 79.3 68.9402 79.18 68.0102 79.25C67.0802 79.34 66.1301 79.32 65.2201 79.5L63.8401 79.76C63.3801 79.84 62.9201 79.93 62.4801 80.09L60.8302 80.61C60.2802 80.79 59.7702 81.06 59.2402 81.29C58.1502 81.7 57.2101 82.39 56.1901 82.94C53.2501 84.87 50.6801 87.44 48.6901 90.37C47.9001 91.5 47.2601 92.71 46.6601 93.92C46.3801 94.54 46.0701 95.14 45.8101 95.76L45.0501 97.64C44.8501 98.2 44.6801 98.76 44.4701 99.32C43.7601 101.43 43.5101 102.08 42.8401 102.44C42.7001 102.52 42.5601 102.64 42.4401 102.69C42.1001 102.85 41.8001 101.82 42.1201 100.11C42.5801 97.58 43.3601 95.01 44.5101 92.55C45.7101 90.12 47.2401 87.8 49.0501 85.68C51.7701 82.57 55.1901 79.92 59.1201 78.35L59.1502 78.41V78.39Z" fill="#231F20"/>
<path d="M29.5502 101.94C30.3602 101.99 31.1702 102.04 31.9902 102.07C32.2902 102.08 32.5802 102.03 32.8802 102.05C33.9302 102.15 35.0002 102.3 36.0602 102.38C36.5302 102.41 37.0002 102.41 37.4702 102.46C38.0702 102.5 38.6802 102.55 39.2702 102.74C39.4502 102.8 39.4202 102.96 39.2502 103.14C39.0802 103.32 38.7902 103.57 38.4602 103.65C37.8702 103.78 37.2802 103.99 36.6802 104.05C36.0802 104.08 35.4802 104.07 34.8702 104.01C34.1402 103.92 33.3902 104.13 32.6402 104.1C31.8102 104.08 30.9902 104.06 30.1602 104.04C29.6502 104.02 29.1402 104 28.6302 103.99C27.8602 103.95 27.0802 103.87 26.3102 103.86C25.7102 103.84 25.1102 103.95 24.5002 103.91C24.3702 103.91 24.2302 103.91 24.1002 103.9C23.6002 103.78 23.4702 103.55 23.4302 103.21C23.4302 103.13 23.4102 103.05 23.4102 102.97C23.4102 102.72 23.6502 102.52 24.0102 102.36C25.0402 102.03 26.0702 102.01 27.1502 101.93C27.9502 101.87 28.7602 101.87 29.5702 101.9V101.95L29.5502 101.94Z" fill="#231F20"/>
<path d="M22.6801 90.76C24.5201 91.28 26.4801 93.4 25.8601 97.2C25.4801 99.55 23.1101 102.02 19.1001 103.01V103.99C19.1001 103.99 25.9301 103.06 27.1401 100.65C28.3501 98.24 28.5801 95.84 28.2001 94.79C27.8201 93.74 25.8901 91.02 25.8901 91.02L22.6801 90.75V90.76Z" fill="#231F20"/>
<path d="M4.18024 100.33C5.18024 95.76 8.18024 95.4 9.72024 96.41L8.41024 94.56C8.41024 94.56 5.55024 94.09 4.44024 96.19C3.33024 98.29 4.18024 100.33 4.18024 100.33Z" fill="#231F20"/>
<path d="M11.17 102.22C13.61 102.4 16.08 102.45 18.51 102.32C19.4 102.27 20.27 102.13 21.14 102.02C22.64 101.82 24.23 101.53 25.26 100.87C25.62 100.63 26.04 100 26.3 99.37C26.56 98.73 26.76 98.05 26.8 97.34C26.91 96.08 26.6 94.79 26.03 93.72C25.67 93.02 25.13 92.46 24.52 92.04C24.37 91.92 24.22 91.82 24.05 91.75C23.89 91.66 23.73 91.53 23.55 91.47L23.01 91.24C22.83 91.14 22.62 91.18 22.43 91.01C22.19 90.77 22.06 90.63 22.07 90.56C22.07 90.48 22.21 90.41 22.47 90.15C22.74 89.89 23.14 89.68 23.67 89.59C24.2 89.48 24.87 89.48 25.49 89.78C26.58 90.32 27.48 91.18 28.14 92.15C28.81 93.12 29.25 94.23 29.34 95.36C29.61 97.6 29.04 99.94 27.59 101.7C27.4 101.96 27.01 102.28 26.72 102.53C26.41 102.72 26.09 102.89 25.78 103.06L24.87 103.43C24.57 103.53 24.27 103.62 23.97 103.71C22.78 104.04 21.59 104.27 20.41 104.38C17.82 104.65 15.27 104.62 12.71 104.53C11.13 104.45 9.59997 104.35 7.96997 104.13C6.65997 103.92 5.42997 103.27 4.49997 102.35C3.56997 101.41 2.91997 100.27 2.65997 98.94C2.46997 97.93 2.53997 96.85 2.92997 95.86C3.32997 94.88 4.05997 93.99 5.04997 93.44C5.47997 93.2 5.93997 93 6.42997 92.92C7.33997 92.76 7.93997 92.88 8.30997 93.07C8.66997 93.32 8.79997 93.64 8.87997 93.92C8.91997 94.05 8.97997 94.17 8.98997 94.26C9.00997 94.42 8.84997 94.5 8.54997 94.67C8.23997 94.83 7.85997 95 7.43997 94.99C6.19997 95.1 5.25997 95.77 4.90997 96.84C4.53997 97.91 4.75997 99.09 5.53997 100.16C6.07997 100.91 6.86997 101.48 7.75997 101.75C7.97997 101.82 8.20997 101.87 8.43997 101.9L9.32997 102C9.93997 102.05 10.55 102.1 11.16 102.13V102.19L11.17 102.22Z" fill="#231F20"/>
<path d="M8.82019 89.19C9.35019 88.45 10.0102 87.84 10.7502 87.35C11.5002 86.88 12.3102 86.57 13.1402 86.37C13.7502 86.24 14.3502 86.07 14.9902 86.09C17.2202 86.12 19.3202 87.24 20.5302 88.96C21.0702 89.71 21.4802 90.52 21.7802 91.34C22.1902 92.38 22.4202 93.49 22.0302 94.6C21.9302 94.94 21.8302 94.9 21.5402 94.66C21.3302 94.49 21.1302 94.32 20.9502 94.17C20.8302 94.07 20.6802 93.97 20.5802 93.86C20.4902 93.75 20.4102 93.62 20.3502 93.5C20.2502 93.27 20.1102 93.06 20.0402 92.83C19.9802 92.6 19.9002 92.38 19.8202 92.17C19.6702 91.74 19.4902 91.33 19.2802 90.97C18.8802 90.22 18.3702 89.63 17.6902 89.11C16.8202 88.47 15.7002 88.4 14.6302 88.55C13.4502 88.7 12.3102 89.24 11.4002 90.03C10.8402 90.53 10.3902 91.15 10.1502 91.86C9.97019 92.4 9.87019 92.98 9.87019 93.58C9.89019 94.17 10.0102 94.77 10.2202 95.33C10.5702 96.2 11.2202 96.89 11.9102 97.41C12.0602 97.54 12.2402 97.6 12.3902 97.72C12.9702 98.12 13.1002 98.35 13.1102 98.84C13.1102 98.95 13.1302 99.06 13.1202 99.15C13.1202 99.44 12.6502 99.68 11.9102 99.52C9.78019 98.9 8.10019 96.81 7.66019 94.45C7.32019 92.7 7.68019 90.69 8.76019 89.16L8.81019 89.19H8.82019Z" fill="#231F20"/>
<path d="M83.7599 90.41C82.2699 89.1 78.0599 90.41 79.2999 93.75L76.5799 93.44C76.5799 93.44 75.7699 91.14 77.1199 89.64C78.4699 88.14 80.2399 87.71 81.1299 87.88C82.0199 88.05 83.7599 90.42 83.7599 90.42V90.41Z" fill="#231F20"/>
<path d="M77.1198 101.88C74.7798 100.81 73.9098 99.05 74.8798 97.44C76.2498 95.19 78.9498 95.09 80.0498 96C80.0498 96 78.1698 93.38 75.5498 94.29C72.9298 95.2 71.9098 97.1 71.7198 98.23C71.5298 99.36 73.9098 102.21 73.9098 102.21L77.1198 101.89V101.88Z" fill="#231F20"/>
<path d="M76.5399 88.93C77.2299 88.01 78.2299 87.43 79.2299 87.18C79.5999 87.12 79.9499 86.95 80.3299 86.96C81.6599 86.9 82.8799 87.52 83.7999 88.29C84.0099 88.46 84.1899 88.66 84.3899 88.83C84.5899 89.01 84.7099 89.25 84.8799 89.45C85.0899 89.71 85.2499 90 85.3499 90.32C85.4199 90.65 85.3699 91.01 85.3499 91.33C85.3199 91.54 85.2199 91.53 84.9699 91.46C84.7299 91.38 84.2299 91.29 83.9099 91.16C83.8399 91.13 83.7499 91.11 83.6899 91.08L83.5599 90.97C83.4699 90.9 83.3999 90.81 83.2999 90.76C83.1099 90.64 82.9399 90.53 82.7899 90.41C82.5299 90.12 82.2099 89.9 81.8599 89.61C81.4099 89.32 80.8399 89.37 80.3199 89.37C79.7399 89.39 79.1499 89.57 78.6899 89.94C78.4299 90.18 78.1699 90.46 78.0299 90.82C77.7699 91.35 77.6999 91.98 77.8899 92.59C78.0399 93.06 78.3799 93.44 78.7099 93.79C78.7899 93.86 78.8799 93.92 78.9199 94.03C79.1199 94.37 79.0299 94.65 78.8699 94.96C78.8299 95.03 78.7999 95.11 78.7599 95.17C78.6399 95.37 78.3199 95.44 77.8499 95.34C77.1899 95.15 76.7899 94.64 76.3999 94.1C76.0299 93.54 75.7699 92.87 75.6799 92.13C75.6099 91.59 75.6299 90.99 75.7999 90.45C75.9199 89.9 76.1799 89.37 76.4999 88.89L76.5499 88.92L76.5399 88.93Z" fill="#231F20"/>
<path d="M73.41 97.76C73.3 98.19 73.36 98.8 73.6 99.35C73.72 99.63 73.88 99.89 74.07 100.13C74.26 100.36 74.52 100.55 74.75 100.75C74.96 100.86 75.16 100.97 75.38 101.06C75.62 101.12 75.85 101.19 76.1 101.27C77.9 101.7 80.13 101.44 82.33 101.15C83.32 101.02 84.31 100.82 85.33 100.67C85.99 100.58 86.67 100.52 87.37 100.56C87.71 100.56 88.08 100.63 88.42 100.74C88.59 100.8 88.76 100.86 88.92 100.97C89.08 101.08 89.21 101.28 89.34 101.42C89.64 101.84 89.55 101.83 89.09 102.15C88.87 102.29 88.54 102.67 88.28 102.83C88.13 102.94 87.98 103.07 87.84 103.13C87.7 103.19 87.57 103.21 87.42 103.21L86.61 103.26C86.33 103.3 86.05 103.34 85.76 103.36C85.18 103.41 84.58 103.46 83.96 103.53C82.72 103.66 81.41 103.81 80.04 103.82C78.42 103.82 76.63 104.09 74.78 103.48C74.53 103.42 74.29 103.31 74.05 103.18C73.81 103.06 73.57 102.95 73.34 102.8C72.92 102.46 72.46 102.17 72.12 101.74C71.42 100.92 70.95 99.94 70.77 98.87C70.66 98.21 70.68 97.51 70.88 96.84C71.09 96.14 71.41 95.64 71.79 95.1C72.39 94.33 73.22 93.74 74.1 93.38C74.99 93.04 75.92 92.9 76.83 92.91C77.55 92.92 78.23 92.98 78.97 93.17C79.75 93.39 80.43 93.77 81.02 94.32C81.28 94.56 81.54 94.81 81.73 95.13C82.06 95.74 82.11 96.23 82.05 96.56C81.98 96.9 81.75 97.09 81.43 97.23C81.29 97.29 81.15 97.36 81.03 97.39C80.63 97.47 80.09 97.09 79.76 96.76C79.47 96.51 79.21 96.29 78.91 96.1C78.61 95.92 78.25 95.76 78.01 95.73C77.23 95.56 76.33 95.55 75.6 95.76C75.05 95.9 74.6 96.17 74.22 96.52C74.05 96.71 73.86 96.9 73.72 97.15C73.54 97.43 73.51 97.52 73.46 97.76H73.39H73.41Z" fill="#231F20"/>
<path d="M21.0298 69.11C21.2598 69.03 21.2498 69.38 21.0998 69.98C21.0498 70.17 20.7898 70.7 20.6998 70.75C20.5398 70.85 20.3798 70.95 20.2398 71C20.1498 71.03 19.1498 70.84 18.7998 70.79C18.4598 70.74 18.1698 70.61 17.8798 70.46L16.1298 69.58C15.9998 69.51 15.8898 69.42 15.7798 69.31C15.4298 68.92 14.9998 68.67 14.5398 68.48C14.4598 68.45 14.3998 68.39 14.2798 68.44C14.0898 68.51 12.9198 67.89 12.7998 67.74C12.4998 67.39 12.1698 67.09 11.8598 66.78C11.8098 66.73 11.7398 66.74 11.7398 66.62C11.7398 66.34 11.5998 66.32 11.4898 66.24C11.3398 66.13 11.1898 66.02 11.0598 65.86C10.9998 65.78 10.9798 65.62 10.9498 65.48C10.9198 65.35 11.1198 65.04 11.1698 65.02C11.2998 64.95 11.3098 64.77 11.3698 64.62C11.3898 64.57 11.4198 64.51 11.4398 64.47C11.4898 64.39 12.7398 64.29 12.8398 64.35C12.8498 64.35 13.2298 64.49 13.6298 64.63C14.0298 64.77 14.4498 64.91 14.5398 64.93C14.6298 64.95 14.6898 65.04 14.7598 65.12C14.7898 65.15 15.9998 65.54 16.0398 65.57C16.2598 65.71 16.5298 65.75 16.6498 66.06C16.6698 66.12 16.7298 66.13 16.7698 66.15C17.1798 66.32 17.5298 66.6 17.8998 66.85C18.0898 66.98 18.2998 67.05 18.4998 67.16C18.5398 67.18 18.5598 67.23 18.5798 67.26C18.6198 67.3 18.6498 67.35 18.6898 67.37C19.1798 67.59 19.5898 67.94 20.1098 68.08C20.2298 68.11 20.6298 68.61 20.7698 68.64C20.8498 68.66 20.8998 69.13 20.9898 69.1L21.0298 69.11Z" fill="#231F20"/>
<path d="M39.7798 46.27C40.0098 46.37 39.7798 46.64 39.2898 47.01C39.1298 47.13 38.5898 47.36 38.4898 47.35C38.2998 47.32 38.1098 47.29 37.9698 47.24C37.8798 47.21 37.2098 46.39 36.9698 46.12C36.7298 45.86 36.5798 45.56 36.4398 45.25C36.1598 44.63 35.8498 44.01 35.5698 43.39C35.5098 43.25 35.4698 43.1 35.4598 42.94C35.4198 42.39 35.2098 41.91 34.9598 41.45C34.9198 41.37 34.8998 41.29 34.7798 41.25C34.5898 41.18 34.0098 39.89 33.9998 39.69C33.9798 39.2 33.8898 38.74 33.8298 38.27C33.8298 38.2 33.7598 38.15 33.8298 38.06C33.9998 37.83 33.8998 37.72 33.8598 37.59C33.7998 37.4 33.7598 37.21 33.7598 36.99C33.7598 36.89 33.8498 36.74 33.9098 36.61C33.9698 36.49 34.3198 36.38 34.3698 36.39C34.5098 36.42 34.6398 36.29 34.7798 36.22C34.8298 36.2 34.8898 36.17 34.9298 36.15C35.0198 36.12 36.0698 36.88 36.1098 36.99C36.1198 37.02 36.9898 38.43 37.1098 38.58C37.1698 38.66 37.1598 38.77 37.1698 38.87C37.1698 38.92 37.9098 40.02 37.9298 40.07C38.0198 40.33 38.2198 40.54 38.1298 40.87C38.1098 40.94 38.1498 40.98 38.1698 41.03C38.3998 41.44 38.5198 41.9 38.6598 42.34C38.7298 42.57 38.8598 42.77 38.9598 42.99C38.9798 43.03 38.9598 43.08 38.9598 43.13C38.9598 43.19 38.9598 43.25 38.9798 43.3C39.2398 43.8 39.3598 44.37 39.6998 44.84C39.7798 44.95 39.7898 45.62 39.8798 45.75C39.9298 45.82 39.6798 46.23 39.7698 46.27H39.7798Z" fill="#231F20"/>
<path d="M70.3299 35.93C70.4999 36.12 70.1899 36.29 69.5899 36.45C69.3999 36.5 68.8099 36.51 68.7199 36.45C68.5599 36.34 68.3999 36.24 68.2799 36.12C68.2099 36.05 67.9199 34.96 67.7999 34.59C67.6799 34.23 67.6599 33.87 67.6599 33.51L67.6299 31.31C67.6299 31.15 67.6599 30.99 67.7099 30.82C67.8999 30.27 67.9199 29.71 67.8799 29.15C67.8799 29.06 67.8899 28.96 67.7999 28.87C67.6499 28.72 67.6999 27.21 67.7699 27.01C67.9599 26.53 68.0899 26.04 68.2499 25.56C68.2699 25.49 68.2499 25.42 68.3499 25.36C68.5999 25.22 68.5699 25.07 68.5999 24.92C68.6399 24.71 68.6899 24.5 68.7799 24.3C68.8299 24.2 68.9699 24.11 69.0899 24.01C69.1999 23.92 69.5599 24.01 69.5999 24.03C69.7099 24.13 69.8899 24.07 70.0399 24.07C70.0899 24.07 70.1599 24.07 70.1999 24.07C70.2899 24.09 70.8699 25.29 70.8599 25.42C70.8599 25.43 70.8999 25.87 70.9299 26.33C70.9699 26.79 71.0199 27.27 71.0499 27.37C71.0699 27.47 71.0099 27.57 70.9799 27.67C70.9599 27.72 71.1499 29.1 71.1499 29.15C71.1199 29.43 71.2099 29.72 70.9899 30C70.9499 30.06 70.9599 30.11 70.9599 30.17C70.9999 30.66 70.9099 31.15 70.8599 31.64C70.8299 31.89 70.8599 32.14 70.8599 32.39C70.8599 32.44 70.8299 32.48 70.8099 32.53C70.7899 32.59 70.7599 32.64 70.7599 32.7C70.7899 33.29 70.6699 33.89 70.7899 34.48C70.8199 34.62 70.5599 35.27 70.5999 35.43C70.6199 35.52 70.2299 35.81 70.2999 35.89L70.3299 35.93Z" fill="#231F20"/>
<path d="M104.41 50.58C104.47 50.81 104.13 50.77 103.54 50.58C103.35 50.52 102.84 50.22 102.79 50.13C102.7 49.97 102.61 49.81 102.56 49.67C102.53 49.59 102.77 48.64 102.84 48.3C102.9 47.98 103.05 47.7 103.22 47.44C103.55 46.9 103.87 46.35 104.21 45.82C104.29 45.7 104.39 45.6 104.51 45.51C104.93 45.21 105.21 44.82 105.44 44.4C105.48 44.33 105.54 44.27 105.51 44.16C105.46 43.97 106.23 42.91 106.38 42.82C106.77 42.59 107.11 42.32 107.47 42.07C107.52 42.03 107.53 41.96 107.65 41.99C107.92 42.04 107.97 41.91 108.06 41.82C108.19 41.69 108.33 41.58 108.51 41.49C108.6 41.45 108.76 41.47 108.9 41.47C109.03 41.47 109.29 41.73 109.31 41.78C109.35 41.91 109.53 41.97 109.65 42.06C109.69 42.09 109.75 42.13 109.78 42.16C109.84 42.23 109.74 43.41 109.67 43.49C109.67 43.5 109.49 43.82 109.29 44.17C109.11 44.51 108.92 44.88 108.89 44.96C108.86 45.04 108.76 45.08 108.69 45.13C108.65 45.15 108.16 46.22 108.14 46.26C107.98 46.44 107.93 46.69 107.61 46.77C107.55 46.78 107.53 46.83 107.51 46.87C107.32 47.23 107.02 47.53 106.75 47.85C106.61 48.01 106.53 48.21 106.41 48.38C106.39 48.41 106.34 48.43 106.31 48.45C106.27 48.48 106.22 48.5 106.19 48.55C105.95 48.99 105.58 49.35 105.42 49.83C105.38 49.94 104.87 50.27 104.84 50.41C104.82 50.48 104.35 50.49 104.38 50.58H104.41Z" fill="#231F20"/>
<path d="M116.13 70.35C116.08 70.57 115.83 70.35 115.45 69.86C115.33 69.7 115.06 69.18 115.06 69.08C115.06 68.9 115.06 68.72 115.08 68.59C115.09 68.51 115.68 67.89 115.87 67.66C116.05 67.44 116.28 67.3 116.51 67.18C116.99 66.93 117.45 66.66 117.93 66.4C118.04 66.34 118.15 66.31 118.29 66.31C118.74 66.28 119.11 66.11 119.45 65.87C119.51 65.83 119.58 65.81 119.59 65.7C119.62 65.52 120.61 65.01 120.77 65.01C121.17 65.01 121.54 64.93 121.92 64.89C121.97 64.89 122.01 64.83 122.1 64.9C122.31 65.07 122.39 64.98 122.5 64.95C122.65 64.9 122.8 64.87 122.98 64.87C123.07 64.87 123.2 64.96 123.32 65.03C123.43 65.09 123.56 65.43 123.56 65.48C123.56 65.61 123.68 65.74 123.76 65.88C123.79 65.93 123.82 65.98 123.84 66.02C123.88 66.11 123.39 67.08 123.3 67.13C123.28 67.14 122.23 67.92 122.13 68.03C122.07 68.09 121.98 68.07 121.9 68.08C121.86 68.08 121.05 68.76 121.01 68.77C120.81 68.85 120.67 69.03 120.38 68.94C120.32 68.92 120.29 68.95 120.25 68.98C119.94 69.19 119.58 69.28 119.23 69.41C119.05 69.47 118.9 69.59 118.74 69.68C118.71 69.7 118.66 69.68 118.63 69.68C118.58 69.68 118.53 69.68 118.5 69.7C118.12 69.93 117.67 70.03 117.33 70.34C117.25 70.41 116.69 70.4 116.61 70.49C116.56 70.54 116.19 70.28 116.16 70.37L116.13 70.35Z" fill="#231F20"/>
</svg>
