<svg width="128" height="128" viewBox="0 0 128 128" fill="none" xmlns="http://www.w3.org/2000/svg">
<path d="M48.3098 87.3101C49.133 88.6352 50.1665 89.8174 51.3698 90.8101C51.8089 91.1805 52.2771 91.5149 52.7698 91.8101C54.467 92.9592 56.3471 93.8113 58.3298 94.3301L59.6698 94.6301C60.1198 94.7201 60.5898 94.7201 61.0398 94.7701C62.2098 94.9501 63.3798 94.8301 64.5698 95.0401C64.9398 95.0401 64.9098 95.2901 64.5698 95.5301C64.1042 95.8826 63.5508 96.1005 62.9698 96.1601C62.3375 96.2101 61.7022 96.2101 61.0698 96.1601C60.4433 96.1545 59.8182 96.101 59.1998 96.0001L57.3298 95.5801C56.7298 95.3701 56.1198 95.1401 55.5298 94.9001C54.9398 94.6601 54.1298 94.2301 53.4098 93.9001C52.6898 93.5701 52.0398 93.1101 51.4098 92.7001C50.0104 91.6856 48.7758 90.4612 47.7498 89.0701L47.2698 88.4301L46.8798 87.7401C46.5947 87.2966 46.344 86.8319 46.1298 86.3501C45.7889 85.6265 45.5144 84.8734 45.3098 84.1001C45.0793 83.3385 44.912 82.5592 44.8098 81.7701C44.6302 80.5589 44.58 79.332 44.6598 78.1101C44.6546 77.8406 44.6849 77.5716 44.7498 77.3101C44.9898 76.3101 45.1598 76.0301 45.5198 75.9101C45.5984 75.8822 45.6786 75.8588 45.7598 75.8401C46.0098 75.8401 46.1298 76.2601 46.0898 76.9501C45.9337 79.0016 46.0888 81.065 46.5498 83.0701C46.7395 83.8161 46.9903 84.5453 47.2998 85.2501C47.5958 85.9685 47.9573 86.6581 48.3798 87.3101H48.3098Z" fill="#231F20"/>
<path d="M54.4901 73.8601C54.4829 73.9496 54.4435 74.0334 54.3791 74.096C54.3147 74.1585 54.2297 74.1955 54.1401 74.2001H54.2101C54.2101 74.2001 54.3701 73.6301 54.2101 73.6801C53.4201 73.9401 53.7601 75.2001 54.5601 74.9301C54.9901 74.7801 55.4001 74.5001 55.4101 74.0001C55.4027 73.8131 55.3473 73.6312 55.2492 73.4718C55.1511 73.3124 55.0137 73.1809 54.8501 73.0901C54.6996 72.9635 54.5174 72.8804 54.3232 72.8498C54.1289 72.8191 53.93 72.8421 53.7479 72.9161C53.5657 72.9902 53.4073 73.1127 53.2896 73.2702C53.1719 73.4277 53.0995 73.6144 53.0801 73.8101C53.0801 74.1601 53.4101 74.4501 53.7301 74.4601C53.9009 74.4551 54.0633 74.385 54.1841 74.2642C54.305 74.1433 54.3751 73.9809 54.3801 73.8101L54.4901 73.8601Z" fill="#231F20"/>
<path d="M53.2302 81.84C53.2173 81.8011 53.2173 81.759 53.2302 81.72C53.2299 81.7676 53.2141 81.8138 53.1852 81.8517C53.1564 81.8896 53.116 81.917 53.0702 81.93C53.0702 81.93 52.9802 81.93 52.9902 81.93C53.0002 81.93 52.9902 82.11 52.9902 82.1C52.9408 82.246 52.8547 82.3769 52.7402 82.48C52.1302 83.06 53.0502 83.98 53.6602 83.4C54.2702 82.82 54.6602 81.17 53.4502 80.73C53.247 80.6589 53.0279 80.6468 52.8181 80.695C52.6083 80.7433 52.4164 80.8499 52.2647 81.0027C52.113 81.1554 52.0077 81.348 51.9609 81.5581C51.9141 81.7683 51.9277 81.9873 52.0002 82.19C52.3002 82.96 53.5502 82.63 53.2602 81.84H53.2302Z" fill="#231F20"/>
<path d="M61.8001 66.2201C61.5418 66.1931 61.2811 66.2374 61.0463 66.3482C60.8115 66.4591 60.6116 66.6321 60.4683 66.8486C60.325 67.0651 60.2438 67.3168 60.2335 67.5762C60.2233 67.8357 60.2843 68.0929 60.4101 68.3201C60.4869 68.5534 60.6174 68.7654 60.7911 68.9391C60.9648 69.1127 61.1768 69.2433 61.4101 69.3201C61.683 69.3684 61.9642 69.3309 62.215 69.2127C62.4657 69.0945 62.6736 68.9014 62.8101 68.6601C63.2001 68.1401 62.3401 67.6601 61.9501 68.1501C61.8912 68.2349 61.8122 68.3036 61.7201 68.3501H61.6601C61.5079 68.256 61.3944 68.1106 61.3401 67.9401C61.1701 67.4701 61.3401 67.2301 61.8301 67.2601C62.4801 67.2601 62.4701 66.2601 61.8301 66.2601L61.8001 66.2201Z" fill="#231F20"/>
<path d="M19.0699 99.6001L18.7999 102.13V102.21C18.7999 102.21 18.7999 102.21 18.8699 102.26L19.7799 102.74L20.9899 103.37C21.3999 103.58 21.8499 103.72 22.2799 103.9L24.8799 104.9L27.5599 105.73C28.4599 106.01 29.3499 106.31 30.2799 106.51C32.1199 106.93 33.9399 107.44 35.8099 107.75C37.1699 107.99 38.5299 108.26 39.8999 108.45L43.9999 109C53.7264 110.212 63.5371 110.61 73.3299 110.19C77.6799 110.02 82.0399 109.57 86.3299 108.98C91.8099 108.127 97.2532 107.08 102.66 105.84C104.36 105.5 104.24 105.84 102.94 106.68C102.046 107.23 101.125 107.734 100.18 108.19C98.8397 108.812 97.439 109.295 95.9999 109.63C94.5999 109.98 93.1899 110.32 91.7699 110.57C90.3499 110.82 88.9399 111.12 87.5199 111.34C84.6599 111.68 81.8099 112.11 78.9399 112.34C73.1867 112.827 67.4088 112.954 61.6399 112.72C54.5733 112.541 47.5223 111.967 40.5199 111C36.6589 110.426 32.8304 109.652 29.0499 108.68C25.2381 107.708 21.5482 106.309 18.0499 104.51L16.9499 103.95L16.3399 103.63C16.3255 103.407 16.3255 103.183 16.3399 102.96L16.4499 101.7L16.5399 100.8C16.6499 99.6101 16.7999 98.4201 16.9599 97.2301C17.2865 94.8568 17.6832 92.4968 18.1499 90.1501C19.5425 83.026 21.726 76.0797 24.6599 69.4401C26.8677 64.2972 29.8488 59.522 33.4999 55.2801C34.3294 54.3573 35.2108 53.4826 36.1399 52.6601C37.354 51.5383 38.7292 50.6046 40.2199 49.8901C40.8852 49.5292 41.6237 49.324 42.3799 49.2901C42.6299 49.2901 42.9299 49.2201 43.0799 49.2301C43.5899 49.2801 42.0799 50.4301 39.6599 52.5101C35.9511 55.664 32.7915 59.4116 30.3099 63.6001C27.7373 67.9442 25.6354 72.5502 24.0399 77.3401C21.6124 84.5633 19.9663 92.0259 19.1299 99.6001H19.0699Z" fill="#231F20"/>
<path d="M102.45 79.48C101.627 76.5969 100.625 73.768 99.4499 71.01C98.9999 70.01 98.5599 69.01 98.0599 68.01C96.4219 64.5225 94.4101 61.2232 92.0599 58.17C91.4999 57.53 90.9199 56.9 90.3399 56.27L89.4699 55.34C89.1599 55.04 88.8299 54.78 88.4699 54.5C87.6399 53.81 86.8499 53.06 85.9899 52.4C85.0853 51.8017 84.2293 51.1329 83.4299 50.4C82.9399 49.92 83.1799 49.67 83.8899 49.65C84.9607 49.651 86.0063 49.9752 86.8899 50.58C87.1399 50.74 87.3899 50.89 87.6199 51.07L88.2999 51.62L89.6399 52.75C90.0699 53.15 90.5299 53.52 90.9399 53.94L92.1099 55.23C93.6811 56.9595 95.0841 58.8346 96.2999 60.83C96.9799 62.05 97.7799 63.22 98.4899 64.46C99.1999 65.7 99.8999 66.94 100.49 68.22C101.799 71.0424 102.918 73.9488 103.84 76.92C104.44 78.73 104.9 80.58 105.38 82.42C105.72 83.82 106 85.24 106.31 86.65C106.62 88.06 106.84 89.48 107.06 90.89C107.42 93.08 107.82 95.23 108.06 97.43C108.06 97.91 108.18 98.38 108.22 98.87C108.35 100.69 108.12 101.28 107.61 101.67C107.5 101.77 107.379 101.857 107.25 101.93C106.85 102.1 106.47 101.37 106.25 100.09C105.72 96.28 105.09 92.29 104.34 88.31C104.09 86.82 103.72 85.31 103.41 83.88C103.1 82.45 102.8 81 102.4 79.5L102.45 79.48Z" fill="#231F20"/>
<path d="M41.74 37.68C41.81 38.12 41.95 38.56 42.05 39.01C42.15 39.46 42.33 39.87 42.48 40.31C42.63 40.75 42.79 40.9 42.91 41.21C43.3758 42.2868 43.9846 43.2959 44.72 44.21C45.0633 44.5983 45.4607 44.935 45.9 45.21C46.43 45.6 47.02 45.82 47.55 46.21C47.71 46.34 47.55 46.71 47.29 47.03C47.1295 47.211 46.9228 47.3448 46.692 47.4171C46.4611 47.4893 46.215 47.4973 45.98 47.44C45.5867 47.3303 45.205 47.183 44.84 47C44.4781 46.775 44.1427 46.51 43.84 46.21C43.2611 45.6444 42.7721 44.9935 42.39 44.28C41.94 43.44 41.39 42.69 40.94 41.82C40.7083 41.3517 40.5111 40.8671 40.35 40.37C40.2067 39.8665 40.0899 39.3558 40 38.84C39.83 38.23 39.75 37.59 39.64 36.97C39.5222 36.018 39.4687 35.0592 39.48 34.1C39.48 33.73 39.48 33.36 39.48 32.99C39.48 32.62 39.48 32.24 39.56 31.87C39.5703 31.7069 39.6005 31.5457 39.65 31.39C39.85 30.8 40.1 30.67 40.44 30.65H40.68C40.93 30.65 41.09 30.98 41.19 31.41C41.24 32.03 41.31 32.63 41.32 33.22C41.33 33.81 41.42 34.4 41.47 35C41.5161 35.8951 41.6365 36.7849 41.83 37.66L41.74 37.68Z" fill="#231F20"/>
<path d="M80.0001 36.4301C79.8391 37.2309 79.6117 38.017 79.3201 38.7801C79.2441 39.0713 79.1437 39.3556 79.0201 39.6301C78.5537 40.59 77.9128 41.4547 77.1301 42.1801C76.8001 42.5201 76.4401 42.8301 76.1301 43.1801C75.9012 43.3775 75.6608 43.5612 75.4101 43.7301C75.1301 43.851 74.8334 43.9286 74.5301 43.9601C74.3301 43.9601 74.2301 43.6301 74.2001 43.2101C74.1701 42.7901 74.2001 42.3101 74.3801 42.1301C75.1162 41.5699 75.8175 40.9655 76.4801 40.3201C76.8689 39.8483 77.1611 39.3046 77.3401 38.7201C77.6002 38.0711 77.8075 37.4023 77.9601 36.7201C78.0641 36.2891 78.1377 35.8514 78.1801 35.4101C78.2437 34.7449 78.2437 34.0752 78.1801 33.4101C78.0942 32.8968 77.9773 32.3892 77.8301 31.8901C77.7941 31.7825 77.7673 31.6721 77.7501 31.5601C77.6801 31.1401 77.8801 30.9701 78.2501 30.8001L78.5001 30.6901C78.6575 30.6495 78.8236 30.6584 78.9757 30.7157C79.1278 30.773 79.2585 30.8758 79.3501 31.0101C79.9538 31.8911 80.281 32.9321 80.2901 34.0001C80.2927 34.8143 80.2258 35.6272 80.0901 36.4301H80.0001Z" fill="#231F20"/>
<path d="M87.9301 40.2001C87.677 40.9745 87.3765 41.7327 87.0301 42.4701C86.9178 42.7531 86.791 43.0302 86.6501 43.3001C86.1096 44.238 85.409 45.074 84.5801 45.7701C84.4101 45.9301 84.1901 46.0501 84.0101 46.2001C83.8257 46.349 83.632 46.4859 83.4301 46.6101C83.1601 46.7601 82.9201 46.9401 82.6401 47.0701C82.3582 47.1831 82.0621 47.2571 81.7601 47.2901C81.5701 47.2901 81.5001 46.9801 81.5301 46.6101C81.5601 46.2401 81.6501 45.8201 81.8901 45.6801C82.2988 45.4244 82.6867 45.1368 83.0501 44.8201C83.2401 44.6801 83.4301 44.5401 83.6201 44.3801C83.8247 44.2341 84.0185 44.0737 84.2001 43.9001C84.4417 43.6954 84.6391 43.4436 84.7801 43.1601C84.9394 42.8783 85.0829 42.5878 85.2101 42.2901C85.5362 41.6463 85.8104 40.9775 86.0301 40.2901C86.1701 39.8501 86.3101 39.4101 86.4101 38.9501C86.5879 38.2621 86.7248 37.5643 86.8201 36.8601C86.8901 36.3101 86.8201 35.7501 86.8201 35.1901C86.8201 35.0701 86.8201 34.9401 86.8201 34.8201C86.9201 34.3601 87.0701 34.2401 87.5401 34.2401H87.8401C88.0037 34.2559 88.158 34.3236 88.2804 34.4334C88.4027 34.5431 88.4867 34.6892 88.5201 34.8501C88.7549 35.86 88.7549 36.9102 88.5201 37.9201C88.3854 38.6917 88.2118 39.456 88.0001 40.2101L87.9301 40.2001Z" fill="#231F20"/>
<path d="M23.9099 29.6801C23.3599 30.0701 22.7799 30.4201 22.2699 30.8401L21.4899 31.4401L20.7899 32.0701C20.5699 32.2801 20.4599 32.4401 20.2799 32.6401L19.7999 33.4701C19.4958 34.0321 19.2286 34.6134 18.9999 35.2101C18.0296 37.6903 17.5572 40.3373 17.6099 43.0001C17.6302 44.9223 17.9403 46.8304 18.5299 48.6601C18.7709 49.4288 19.1068 50.1645 19.5299 50.8501L19.8399 51.2801C19.9177 51.385 20.0123 51.4762 20.1199 51.5501C20.3783 51.7287 20.666 51.8607 20.9699 51.9401C22.5738 52.2638 24.2291 52.2331 25.8199 51.8501C29.2176 51.1819 32.4062 49.711 35.1199 47.5601C35.8075 46.9864 36.4372 46.3467 36.9999 45.6501C37.2747 45.3336 37.5286 44.9996 37.7599 44.6501L37.9999 44.0001L38.2599 43.4801C38.3149 43.3283 38.3149 43.1619 38.2599 43.0101C38.1814 42.7633 38.0775 42.5254 37.9499 42.3001C37.6515 41.7745 37.3173 41.27 36.9499 40.7901C36.5299 40.2701 36.0799 39.7901 35.6099 39.2801L34.8899 38.5601L33.9999 37.7101C33.7993 37.5577 33.6267 37.3716 33.4899 37.1601C33.4314 37.0733 33.378 36.9831 33.3299 36.8901C33.3049 36.7781 33.3049 36.662 33.3299 36.5501C33.4382 36.0635 33.6688 35.6127 33.9999 35.2401C34.1603 35.0324 34.334 34.8353 34.5199 34.6501C34.6499 34.5101 34.7799 34.3901 34.9199 34.2601C35.0599 34.1301 35.4699 33.7801 35.7599 33.5601C36.9465 32.5797 38.4645 32.0928 39.9999 32.2001C40.7399 32.3101 40.9999 32.5701 40.9399 32.7101C40.8799 32.8501 40.4999 32.9701 39.9999 33.2101C38.6284 33.9883 37.406 35.0041 36.3899 36.2101L36.2899 36.3101L36.6899 36.6801L37.4299 37.4601C37.9199 37.9901 38.4299 38.5301 38.8499 39.1101C39.3312 39.7141 39.7626 40.3562 40.1399 41.0301C40.3703 41.4443 40.5515 41.8839 40.6799 42.3401C40.7521 42.6684 40.7857 43.004 40.7799 43.3401C40.7383 43.6779 40.6714 44.0122 40.5799 44.3401L40.2999 44.8901C40.2286 45.0465 40.145 45.1969 40.0499 45.3401C39.8852 45.6296 39.7049 45.91 39.5099 46.1801C39.1346 46.7256 38.7166 47.2406 38.2599 47.7201C37.379 48.6566 36.3963 49.4918 35.3299 50.2101C33.2453 51.6153 30.9498 52.6787 28.5299 53.3601C27.2479 53.7359 25.9366 54.0035 24.6099 54.1601C23.1922 54.3701 21.7479 54.3159 20.3499 54.0001C19.5086 53.8073 18.7451 53.3646 18.1599 52.7301C17.6945 52.1665 17.3045 51.5445 16.9999 50.8801C16.4192 49.6279 16.0121 48.3024 15.7899 46.9401C15.5258 45.4888 15.4052 44.015 15.4299 42.5401C15.4329 41.0697 15.5769 39.603 15.8599 38.1601C16.1377 36.7069 16.5736 35.2884 17.1599 33.9301L17.6199 32.9301C17.7999 32.6001 17.9899 32.2801 18.1699 31.9301L18.4499 31.4501L18.8499 30.9601C19.101 30.6559 19.3787 30.3748 19.6799 30.1201C21.0245 28.954 22.4702 27.9099 23.9999 27.0001C24.7532 26.5334 25.5132 26.0934 26.2799 25.6801C27.0499 25.2401 27.8299 24.8401 28.6199 24.4601C33.3728 22.1075 38.3471 20.2316 43.4699 18.8601C47.3728 17.7517 51.3448 16.9032 55.3599 16.3201L57.9999 16.0001C59.1783 15.8471 60.3715 15.8471 61.5499 16.0001C62.114 16.0425 62.6578 16.2284 63.1299 16.5401C63.3009 16.6362 63.4588 16.7539 63.5999 16.8901C63.9199 17.2701 62.5999 17.6801 60.2099 17.9801C59.3299 18.0301 58.4399 18.1701 57.5599 18.2901L54.8899 18.6401C53.1199 18.9901 51.3099 19.2101 49.5199 19.6401C45.8952 20.3857 42.324 21.3712 38.8299 22.5901C33.6142 24.3572 28.634 26.7549 23.9999 29.7301L23.9099 29.6801Z" fill="#231F20"/>
<path d="M104.76 29.5501C105.899 30.4383 106.981 31.3968 108 32.4201L108.76 33.2601C109.024 33.6001 109.265 33.9576 109.48 34.3301C109.8 35.0001 110.15 35.6501 110.4 36.3301C111.484 39.0491 112.027 41.9532 112 44.8801C112.035 47.0444 111.673 49.1968 110.93 51.2301C110.571 52.174 110.065 53.0549 109.43 53.8401C109.257 54.0581 109.066 54.262 108.86 54.4501C108.626 54.6643 108.363 54.846 108.08 54.9901C107.584 55.2362 107.055 55.4113 106.51 55.5101C104.604 55.7768 102.663 55.6647 100.8 55.1801C97.2031 54.341 93.849 52.6811 91.0002 50.3301C89.7058 49.2542 88.6122 47.9575 87.7702 46.5001C87.5526 46.1207 87.3621 45.7264 87.2002 45.3201C87.1051 45.1954 87.037 45.0524 87.0002 44.9001C86.9648 44.7559 86.9447 44.6084 86.9402 44.4601C86.96 44.1706 87.0172 43.8849 87.1102 43.6101C87.4479 42.7946 87.9137 42.0384 88.4902 41.3701C88.9985 40.7391 89.5393 40.135 90.1102 39.5601C90.3902 39.2801 90.6802 39.0001 90.9802 38.7301L91.6302 38.1401C91.7102 38.0501 91.8302 37.9901 91.8902 37.9001C91.8391 37.7851 91.768 37.6801 91.6802 37.5901L91.4002 37.3001C91.2002 37.1001 90.9902 36.9101 90.7802 36.7201C89.945 35.984 89.0088 35.3711 88.0002 34.9001C87.5002 34.6901 87.2702 34.5701 87.2902 34.4001C87.3102 34.2301 87.6202 34.0201 88.2302 33.9201C89.0687 33.7883 89.927 33.8779 90.7202 34.1801C91.2403 34.3723 91.7395 34.6169 92.2102 34.9101C92.4661 35.0734 92.7132 35.2503 92.9502 35.4401C93.1145 35.5638 93.2684 35.701 93.4102 35.8501C93.6195 36.0443 93.8166 36.2513 94.0002 36.4701C94.4372 36.9031 94.7065 37.4771 94.7602 38.0901C94.7761 38.2229 94.7761 38.3572 94.7602 38.4901C94.7349 38.6111 94.6875 38.7264 94.6202 38.8301C94.5543 38.9566 94.4774 39.0771 94.3902 39.1901L93.9902 39.5201L93.0802 40.3201L92.6002 40.7801C92.2702 41.0801 91.9502 41.3801 91.6002 41.7001C90.994 42.2917 90.4356 42.9304 89.9302 43.6101C89.7361 43.8656 89.5749 44.1444 89.4502 44.4401L89.5102 44.5901C89.8222 45.3264 90.2289 46.019 90.7202 46.6501C93.0114 49.3053 95.9751 51.2948 99.3002 52.4101C100.409 52.8111 101.555 53.1025 102.72 53.2801C103.842 53.4701 104.988 53.4701 106.11 53.2801C106.554 53.2088 106.976 53.0341 107.34 52.7701C107.512 52.6042 107.672 52.4272 107.82 52.2401L108.27 51.5601C108.821 50.5451 109.216 49.4528 109.44 48.3201C109.704 47.0334 109.838 45.7235 109.84 44.4101C109.818 43.067 109.677 41.7285 109.42 40.4101C109.144 39.1121 108.745 37.8431 108.23 36.6201C108.11 36.3201 107.95 36.0301 107.81 35.7301C107.686 35.4412 107.532 35.1663 107.35 34.9101L107.1 34.5601L106.77 34.2001C106.56 33.9514 106.336 33.7143 106.1 33.4901C103.63 31.2101 100.925 29.1988 98.0302 27.4901C93.6465 24.8476 88.9808 22.7043 84.1202 21.1001C80.4046 19.8722 76.5858 18.9819 72.7102 18.4401L70.1702 18.1301C66.9902 17.7801 65.9902 17.4901 65.3402 16.8901C65.1823 16.766 65.0351 16.6288 64.9002 16.4801C64.6102 16.0601 65.9602 15.8101 68.3902 15.8101C69.2933 15.8307 70.1947 15.9008 71.0902 16.0201L73.8202 16.3301L76.5402 16.8301C77.4602 16.9901 78.3702 17.1801 79.2802 17.4301L82.0102 18.1301L84.7102 18.9901C85.6202 19.2701 86.5102 19.6101 87.3902 19.9901C88.2702 20.3701 89.1802 20.6101 90.0002 21.0001C95.2471 23.2131 100.201 26.0646 104.75 29.4901L104.76 29.5501Z" fill="#231F20"/>
<path d="M49.9201 41.54C48.9658 40.1086 48.3101 38.4994 47.9922 36.8086C47.6743 35.1178 47.7008 33.3803 48.0701 31.7C48.1401 31.39 48.2101 31.1 48.3101 30.79L48.5401 30.07L48.5901 29.9C48.5901 29.84 48.6901 29.82 48.7301 29.78L49.0301 29.57L49.9101 28.94C50.1701 28.77 50.4501 28.65 50.7201 28.5C52.596 27.6067 54.5789 26.9581 56.6201 26.57C58.5978 26.1642 60.6036 25.9101 62.6201 25.81C64.4184 25.7 66.2218 25.7 68.0201 25.81C68.6001 25.87 69.1801 25.88 69.7601 25.97C70.3426 26.0602 70.92 26.1804 71.4901 26.33C72.072 26.4864 72.6378 26.6973 73.1801 26.96L73.9901 27.38C74.2405 27.574 74.4777 27.7844 74.7001 28.01C75.2501 28.56 74.9001 28.74 74.1401 28.84C73.6963 28.9095 73.2489 28.9529 72.8001 28.97C72.2663 28.9765 71.7333 28.9262 71.2101 28.82C66.9396 28.0079 62.5646 27.9031 58.2601 28.51C56.9228 28.6906 55.6065 29.0021 54.3301 29.44C53.0711 29.8436 51.8682 30.4047 50.7501 31.11L50.4901 31.27C50.4301 31.27 50.4401 31.38 50.4101 31.43C50.2924 31.7553 50.2021 32.0898 50.1401 32.43C49.9868 33.1194 49.913 33.8239 49.9201 34.53C49.9215 35.9628 50.2212 37.3795 50.8001 38.69C51.1062 39.3962 51.4885 40.0668 51.9401 40.69C52.1639 40.999 52.4078 41.293 52.6701 41.57L53.0701 41.98L53.4301 42.29C53.4801 42.3351 53.5386 42.3697 53.6021 42.392C53.6656 42.4143 53.7329 42.4239 53.8001 42.42C54.0988 42.4084 54.3962 42.375 54.6901 42.32L55.6901 42.11L57.8201 41.65C59.2573 41.348 60.7093 41.1211 62.1701 40.97C64.4483 40.6935 66.754 40.7373 69.0201 41.1C69.5227 41.1769 70.0202 41.2838 70.5101 41.42C70.8971 41.5325 71.2776 41.6661 71.6501 41.82C71.9012 41.9459 72.1391 42.0966 72.3601 42.27C72.6544 42.4879 72.8546 42.8098 72.9201 43.17C72.9564 43.311 72.9798 43.4549 72.9901 43.6C72.9901 44.04 72.1501 44.01 70.9101 43.76C67.168 42.8246 63.2612 42.7596 59.4901 43.57C58.4901 43.76 57.4901 43.99 56.4401 44.22C55.9101 44.34 55.3801 44.46 54.7801 44.56C54.6301 44.56 54.4801 44.56 54.3001 44.62C54.087 44.6351 53.8732 44.6351 53.6601 44.62C53.3996 44.6102 53.1412 44.57 52.8901 44.5C52.767 44.4666 52.6492 44.4161 52.5401 44.35C52.4204 44.2988 52.3065 44.2351 52.2001 44.16L51.7501 43.79C51.6501 43.7 51.5301 43.61 51.4301 43.51L50.8401 42.91C50.4815 42.4932 50.1476 42.0558 49.8401 41.6L49.9201 41.54Z" fill="#231F20"/>
<path d="M51.1302 67.7801C49.3752 69.694 48.1323 72.0203 47.5169 74.543C46.9015 77.0657 46.9336 79.7031 47.6102 82.2101C48.139 84.0539 48.963 85.7998 50.0502 87.3801C51.9303 90.2094 54.6622 92.3668 57.8502 93.5401C60.924 94.6035 64.2368 94.7715 67.4025 94.0243C70.5681 93.2772 73.4562 91.6457 75.7302 89.3201C78.3897 86.4877 80.0507 82.8637 80.4602 79.0001C80.6102 77.8101 81.1502 77.9401 81.6102 79.0601C82.25 80.9347 82.1716 82.98 81.3902 84.8001C79.6748 89.0138 76.4722 92.4513 72.3902 94.4601C68.3869 96.5244 63.7853 97.1155 59.3902 96.1301C56.7462 95.526 54.2663 94.3511 52.1243 92.6875C49.9823 91.024 48.23 88.9122 46.9902 86.5001C45.6328 83.8432 44.9494 80.8933 45.0002 77.9101C45.0336 74.6022 46.0113 71.3728 47.8184 68.602C49.6255 65.8311 52.1866 63.6343 55.2002 62.2701C57.6616 61.1175 60.3322 60.4788 63.0487 60.3928C65.7652 60.3069 68.4708 60.7755 71.0002 61.7701C72.9466 62.5441 74.751 63.6355 76.3402 65.0001C77.9163 66.3855 79.2453 68.0289 80.2702 69.8601C80.7267 70.6668 81.1083 71.5137 81.4102 72.3901C81.8351 73.5468 82.0583 74.7679 82.0702 76.0001C82.0763 76.3919 82.0013 76.7807 81.8499 77.1421C81.6984 77.5035 81.4738 77.8297 81.1902 78.1001C80.7102 78.4001 80.5202 77.1001 80.0002 74.8801C79.1588 71.5369 77.2821 68.5452 74.6385 66.3326C71.9948 64.1199 68.7193 62.7995 65.2802 62.5601C62.6782 62.3451 60.0603 62.686 57.6002 63.5601C55.1469 64.4306 52.9408 65.8819 51.1702 67.7901L51.1302 67.7801Z" fill="#231F20"/>
<path d="M62.5802 68.17C62.5758 68.3861 62.4955 68.5938 62.3533 68.7566C62.2111 68.9194 62.0161 69.0269 61.8026 69.0604C61.589 69.0938 61.3705 69.0509 61.1854 68.9393C61.0003 68.8277 60.8604 68.6545 60.7902 68.45C60.3302 67.2 62.4402 66.72 62.5802 68.17C62.6702 69.06 64.0702 69.07 63.9802 68.17C63.9725 67.854 63.9023 67.5425 63.7738 67.2537C63.6453 66.9648 63.461 66.7041 63.2315 66.4867C63.002 66.2693 62.7318 66.0993 62.4364 65.9866C62.141 65.8739 61.8262 65.8207 61.5102 65.83C61.1862 65.8587 60.8715 65.954 60.586 66.11C60.3006 66.266 60.0505 66.4794 59.8514 66.7367C59.6523 66.994 59.5086 67.2897 59.4292 67.6052C59.3498 67.9207 59.3366 68.2491 59.3902 68.57C59.5037 69.0931 59.7887 69.5632 60.2 69.9056C60.6113 70.2481 61.1253 70.4432 61.6602 70.46C61.9677 70.4768 62.2753 70.4295 62.5634 70.321C62.8516 70.2126 63.1141 70.0453 63.3342 69.83C63.5542 69.6146 63.7271 69.3558 63.8418 69.07C63.9564 68.7843 64.0104 68.4778 64.0002 68.17C64.0002 67.9817 63.9254 67.8011 63.7923 67.668C63.6591 67.5348 63.4785 67.46 63.2902 67.46C63.1019 67.46 62.9213 67.5348 62.7882 67.668C62.655 67.8011 62.5802 67.9817 62.5802 68.17Z" fill="#231F20"/>
<path d="M55.4198 73.36C55.4093 73.5738 55.3254 73.7774 55.1822 73.9365C55.039 74.0956 54.8454 74.2004 54.6339 74.2333C54.4224 74.2662 54.206 74.2251 54.0213 74.1171C53.8366 74.009 53.6948 73.8405 53.6198 73.64C53.1698 72.39 55.2798 71.91 55.4198 73.36C55.4998 74.25 56.8998 74.26 56.8198 73.36C56.8147 73.0414 56.7461 72.7269 56.6182 72.4351C56.4902 72.1432 56.3054 71.8797 56.0746 71.6601C55.8437 71.4404 55.5714 71.2689 55.2736 71.1555C54.9757 71.0422 54.6583 70.9893 54.3398 71C54.0162 71.0273 53.7017 71.1214 53.4163 71.2764C53.1308 71.4314 52.8806 71.6438 52.6814 71.9003C52.4822 72.1568 52.3384 72.4519 52.2589 72.7668C52.1794 73.0817 52.1661 73.4097 52.2198 73.73C52.3345 74.2533 52.6196 74.7237 53.0304 75.0676C53.4412 75.4114 53.9545 75.6092 54.4898 75.63C54.7962 75.641 55.1016 75.5892 55.3873 75.4779C55.6729 75.3666 55.9329 75.1981 56.151 74.9827C56.3692 74.7673 56.5411 74.5096 56.6561 74.2254C56.7711 73.9412 56.8268 73.6365 56.8198 73.33C56.8158 73.1444 56.7383 72.9679 56.6042 72.8394C56.4701 72.711 56.2905 72.641 56.1048 72.645C55.9192 72.649 55.7427 72.7265 55.6142 72.8606C55.4858 72.9947 55.4158 73.1744 55.4198 73.36Z" fill="#231F20"/>
<path d="M54.4003 81.91C54.3959 82.1261 54.3156 82.3338 54.1734 82.4966C54.0312 82.6594 53.8362 82.7669 53.6226 82.8003C53.4091 82.8338 53.1906 82.7909 53.0055 82.6793C52.8203 82.5677 52.6804 82.3945 52.6103 82.19C52.1503 80.94 54.2603 80.46 54.4003 81.91C54.4803 82.8 55.8903 82.8 55.8003 81.91C55.7912 81.5935 55.7199 81.2819 55.5903 80.9929C55.4607 80.704 55.2755 80.4434 55.0452 80.2261C54.8149 80.0088 54.544 79.839 54.248 79.7264C53.952 79.6138 53.6368 79.5607 53.3203 79.57C52.9962 79.5986 52.6816 79.694 52.3961 79.85C52.1106 80.006 51.8605 80.2194 51.6614 80.4767C51.4624 80.734 51.3186 81.0297 51.2393 81.3452C51.1599 81.6606 51.1466 81.9891 51.2003 82.31C51.3158 82.8339 51.6027 83.3042 52.0157 83.6465C52.4287 83.9889 52.9441 84.1837 53.4803 84.2C53.7854 84.211 54.0895 84.1595 54.3739 84.0487C54.6584 83.9379 54.9172 83.7701 55.1344 83.5557C55.3517 83.3412 55.5228 83.0846 55.6373 82.8016C55.7518 82.5186 55.8073 82.2152 55.8003 81.91C55.8003 81.7244 55.7265 81.5463 55.5952 81.415C55.464 81.2838 55.2859 81.21 55.1003 81.21C54.9146 81.21 54.7366 81.2838 54.6053 81.415C54.474 81.5463 54.4003 81.7244 54.4003 81.91Z" fill="#231F20"/>
<path d="M63.6001 80.3801C64.7157 80.3801 65.6201 79.4757 65.6201 78.3601C65.6201 77.2445 64.7157 76.3401 63.6001 76.3401C62.4845 76.3401 61.5801 77.2445 61.5801 78.3601C61.5801 79.4757 62.4845 80.3801 63.6001 80.3801Z" fill="#231F20"/>
<path d="M17.2502 96.17C16.8402 96.25 6.66024 100.35 8.30024 103.36C11.0802 108.48 41.8102 112.86 42.7902 110.45L17.2502 103.85V96.17Z" fill="#231F20"/>
<path d="M41.4799 109.9C43.6999 110.08 45.9099 110.24 48.1299 110.37L50.5699 110.45C53.4166 110.597 56.2732 110.727 59.1399 110.84C60.4099 110.84 61.6899 110.84 62.9499 110.84C64.5749 110.764 66.2034 110.817 67.8199 111C68.3199 111.08 68.2599 111.3 67.8199 111.59C67.1869 112.029 66.4482 112.292 65.6799 112.35C64.0162 112.472 62.3474 112.509 60.6799 112.46C59.0199 112.46 57.3499 112.38 55.6799 112.23C53.6799 112.06 51.5999 112.08 49.5599 111.98C47.3099 111.88 45.0599 111.73 42.8099 111.56L38.6699 111.22C36.5799 111.04 34.4699 110.78 32.3999 110.46C30.7999 110.21 29.2199 110.01 27.6399 109.8L26.6399 109.65C26.178 109.603 25.7261 109.485 25.2999 109.3C25.0722 109.205 24.8775 109.045 24.7399 108.84C24.7399 108.76 24.6099 108.69 24.5799 108.63C24.5499 108.57 25.0399 108.2 26.0399 108.17C28.9599 108.23 31.8899 108.91 34.8299 109.24C36.9999 109.5 39.2599 109.68 41.4799 109.84V109.9Z" fill="#231F20"/>
<path d="M49.9998 76.2401C49.5055 78.7959 49.7948 81.4415 50.8298 83.8301C51.2414 84.684 51.7372 85.4946 52.3098 86.2501C54.3429 88.9916 57.3421 90.8576 60.6998 91.4701C62.1921 91.7186 63.7173 91.6915 65.1998 91.3901C67.082 90.9926 68.895 90.3186 70.5798 89.3901C71.1098 89.1101 71.2698 89.4501 71.0098 90.0401C70.56 90.9105 69.8106 91.5889 68.8998 91.9501C66.8886 92.7955 64.7208 93.2045 62.5398 93.1501C60.3506 93.0823 58.2086 92.4963 56.2898 91.4401C53.9526 90.1914 51.9602 88.3845 50.4898 86.1801C49.7126 84.944 49.1323 83.5945 48.7698 82.1801C48.034 79.0345 48.3141 75.7366 49.5698 72.7601C50.6041 70.2884 52.3124 68.1574 54.4998 66.6101C56.1422 65.4102 58.0146 64.5625 59.9998 64.1201L61.3398 63.9401C61.9348 63.8519 62.5407 63.8688 63.1298 63.9901C63.4249 64.0356 63.6943 64.1845 63.8898 64.4101C63.966 64.4926 64.0331 64.5831 64.0898 64.6801C64.2098 64.9801 63.5398 65.2001 62.4098 65.2401C60.7178 65.364 59.0583 65.7696 57.4998 66.4401C55.9298 67.1576 54.5163 68.1769 53.3398 69.4401C51.6012 71.3421 50.4424 73.7014 49.9998 76.2401Z" fill="#231F20"/>
<path d="M93.7102 49.06C94.605 49.7393 95.54 50.3638 96.5103 50.93C96.8703 51.13 97.2403 51.28 97.6103 51.47C98.8925 52.1177 100.231 52.6466 101.61 53.05C102.232 53.2214 102.868 53.3385 103.51 53.4C104.33 53.49 105.14 53.6 105.97 53.75C106.23 53.81 106.2 53.98 105.97 54.18C105.647 54.4624 105.246 54.6403 104.82 54.69C103.927 54.7821 103.026 54.728 102.15 54.53C101.265 54.3716 100.4 54.1167 99.5703 53.77C98.5703 53.35 97.5703 53 96.5703 52.51C95.5328 51.9525 94.5309 51.3314 93.5703 50.65C92.9661 50.2284 92.3853 49.7744 91.8303 49.29C90.9702 48.5598 90.2103 47.7192 89.5703 46.79C89.0299 46.0829 88.6233 45.2832 88.3703 44.43C88.3025 44.2458 88.2556 44.0546 88.2303 43.86C88.1003 43.12 88.2303 42.86 88.5403 42.73C88.6061 42.6886 88.6766 42.6551 88.7503 42.63C88.9703 42.57 89.1903 42.84 89.3203 43.28C89.76 44.5776 90.4383 45.7816 91.3203 46.83C92.0425 47.6386 92.8506 48.3663 93.7303 49L93.7102 49.06Z" fill="#231F20"/>
<path d="M31.7599 49.34C32.6234 48.8623 33.4521 48.3243 34.2399 47.73C34.5399 47.52 34.7799 47.26 35.0599 47.03C36.0479 46.2558 36.9259 45.3509 37.6699 44.34C37.8362 44.1252 37.9678 43.8856 38.0599 43.63C38.1191 43.514 38.1692 43.3937 38.2099 43.27C38.2264 43.1774 38.2264 43.0826 38.2099 42.99C38.0929 42.3328 37.9189 41.687 37.6899 41.06C37.6299 40.83 37.8699 40.74 38.1999 40.79C38.4059 40.8241 38.6021 40.9025 38.7747 41.0199C38.9474 41.1374 39.0925 41.2909 39.1999 41.47C39.4411 41.8835 39.5911 42.3438 39.6399 42.82C39.6682 43.127 39.6342 43.4365 39.5399 43.73C39.4499 43.98 39.3599 44.14 39.2699 44.35C38.8963 45.0923 38.4031 45.768 37.8099 46.35C37.1299 47.04 36.4799 47.78 35.7399 48.41C34.9246 49.0943 34.0588 49.716 33.1499 50.27C32.5999 50.62 32.0299 50.92 31.4599 51.27C30.5899 51.72 29.6899 52.14 28.7899 52.51L27.7899 52.98C27.4437 53.1481 27.0862 53.2918 26.7199 53.41C26.5499 53.41 26.3999 53.52 26.2299 53.56C25.5899 53.67 25.3699 53.56 25.2299 53.19C25.2299 53.1 25.1499 53.01 25.1199 52.92C25.0399 52.62 25.2499 52.32 25.6299 52.15C26.7599 51.59 27.9599 51.2 29.1499 50.64C30.0513 50.24 30.9294 49.7893 31.7799 49.29L31.7599 49.34Z" fill="#231F20"/>
<path d="M6.90004 35.5C6.84004 35.66 6.70004 35.43 6.48004 34.98C6.39016 34.7616 6.32639 34.5334 6.29004 34.3C6.30485 34.167 6.33505 34.0361 6.38004 33.91C6.63755 33.6964 6.91557 33.5088 7.21004 33.35C7.399 33.2375 7.61095 33.1691 7.83004 33.15L9.05004 33C9.1384 32.9757 9.23167 32.9757 9.32004 33C9.59892 33.0945 9.90116 33.0945 10.18 33C10.18 33 10.27 33 10.3 32.92C10.5602 32.777 10.8532 32.7046 11.15 32.71C11.39 32.79 11.63 32.83 11.89 32.9C11.89 32.9 11.89 32.9 12 32.9C12.11 32.9 12.19 33.01 12.27 33C12.3798 32.99 12.4903 32.99 12.6 33C12.6825 33.0322 12.7599 33.0759 12.83 33.13C12.9206 33.2149 12.9804 33.3274 13 33.45C13 33.54 13.09 33.63 13.15 33.73V33.83C13.0418 34.1478 12.8757 34.4427 12.66 34.7L12.15 35.03C11.89 35.17 11.6 35.29 11.55 35.32C11.5 35.35 11.42 35.32 11.35 35.32C11.28 35.32 10.52 35.64 10.48 35.63C10.44 35.62 10.15 35.73 9.97004 35.57C9.97004 35.57 9.91004 35.57 9.87004 35.57C9.59817 35.61 9.32191 35.61 9.05004 35.57C8.92025 35.5596 8.78983 35.5596 8.66004 35.57C8.66004 35.57 8.61004 35.57 8.58004 35.57H8.49004C8.18831 35.5751 7.88877 35.6222 7.60004 35.71C7.54004 35.71 7.19004 35.58 7.12004 35.63C7.05004 35.68 6.92004 35.44 6.90004 35.5Z" fill="#231F20"/>
<path d="M12.2398 21.3901C12.0898 21.3401 12.2398 21.1501 12.4998 20.8601C12.6448 20.7377 12.8108 20.6428 12.9898 20.5801C13.1078 20.5855 13.225 20.6022 13.3398 20.6301C13.6123 20.8633 13.8695 21.1138 14.1098 21.3801C14.2818 21.5557 14.4237 21.7584 14.5298 21.9801C14.7498 22.4201 14.9798 22.8601 15.1798 23.3101C15.2216 23.4124 15.2485 23.5201 15.2598 23.6301C15.2986 24.0036 15.4071 24.3666 15.5798 24.7001C15.5798 24.7501 15.5798 24.8201 15.6998 24.8501C15.926 25.2012 16.0853 25.5911 16.1698 26.0001C16.1698 26.3401 16.1698 26.6601 16.1698 27.0001C16.1698 27.0501 16.1698 27.0901 16.1698 27.1501C16.1286 27.1931 16.1002 27.2468 16.0878 27.3051C16.0754 27.3634 16.0796 27.424 16.0998 27.4801C16.1146 27.6197 16.1146 27.7605 16.0998 27.9001C16.0727 27.9909 16.0286 28.0757 15.9698 28.1501C15.9698 28.2301 15.6998 28.2601 15.6698 28.2501C15.6398 28.2401 15.4898 28.2501 15.3998 28.3201H15.2998C15.0249 28.1262 14.7703 27.9051 14.5398 27.6601C14.5398 27.6601 14.0298 26.6601 13.9598 26.5301C13.9391 26.465 13.9391 26.3951 13.9598 26.3301C13.9598 26.3301 13.5298 25.5201 13.5198 25.4901C13.5198 25.3101 13.3498 25.1701 13.4298 24.9401C13.4405 24.9076 13.4405 24.8726 13.4298 24.8401C13.3078 24.5523 13.2108 24.2545 13.1398 23.9501C13.0868 23.7992 13.0233 23.6521 12.9498 23.5101C12.9498 23.5101 12.9498 23.4501 12.9498 23.4201C12.9553 23.3836 12.9553 23.3465 12.9498 23.3101C12.8135 22.9624 12.6462 22.6277 12.4498 22.3101C12.4498 22.2401 12.3598 21.8001 12.2898 21.7201C12.2198 21.6401 12.3098 21.4101 12.2398 21.3901Z" fill="#231F20"/>
<path d="M113 24.1401C113 24.3001 112.8 24.2001 112.41 23.9401C112.229 23.8103 112.065 23.6592 111.92 23.4901C111.863 23.38 111.813 23.2664 111.77 23.1501C111.77 23.1501 111.92 22.5801 111.96 22.4001C112.005 22.234 112.087 22.0802 112.2 21.9501L112.83 21.1401C112.884 21.077 112.952 21.0287 113.03 21.0001C113.286 20.8907 113.5 20.7013 113.64 20.4601C113.64 20.4601 113.7 20.3901 113.64 20.3101C113.58 20.2301 114.1 19.6201 114.21 19.5801C114.32 19.5401 114.72 19.3901 115 19.3101C115 19.3101 115 19.3101 115.13 19.3101C115.17 19.3453 115.222 19.3646 115.275 19.3646C115.328 19.3646 115.38 19.3453 115.42 19.3101C115.526 19.2567 115.642 19.2261 115.76 19.2201C115.846 19.2293 115.93 19.2494 116.01 19.2801C116.094 19.3476 116.163 19.433 116.21 19.5301C116.21 19.6201 116.32 19.6801 116.38 19.7501L116.44 19.8301C116.465 20.1062 116.465 20.384 116.44 20.6601C116.44 20.6601 116.34 20.8401 116.25 21.0401C116.16 21.2401 116.04 21.4001 116.02 21.4501C116 21.5001 115.94 21.5001 115.89 21.5201C115.84 21.5401 115.59 22.1001 115.57 22.1201C115.55 22.1401 115.44 22.3601 115.23 22.3501C115.214 22.3494 115.199 22.354 115.186 22.3631C115.174 22.3721 115.164 22.3852 115.16 22.4001C115.023 22.5874 114.857 22.7527 114.67 22.8901C114.585 22.9763 114.508 23.07 114.44 23.1701C114.44 23.1701 114.44 23.1701 114.37 23.1701C114.344 23.1647 114.316 23.1647 114.29 23.1701C114.13 23.4101 113.88 23.5701 113.75 23.8501C113.75 23.9101 113.36 24.0201 113.33 24.1001C113.3 24.1801 113 24.0801 113 24.1401Z" fill="#231F20"/>
<path d="M115.66 33.41C115.66 33.57 115.44 33.41 115.08 33.17C114.912 33.0343 114.766 32.8722 114.65 32.69C114.636 32.5671 114.636 32.443 114.65 32.32C114.812 32.0042 115.007 31.706 115.23 31.43C115.381 31.2394 115.568 31.0798 115.78 30.96C116.19 30.72 116.6 30.48 117.02 30.28C117.112 30.231 117.216 30.2069 117.32 30.21C117.67 30.1838 118.01 30.085 118.32 29.92C118.32 29.92 118.43 29.92 118.45 29.8C118.47 29.68 119.36 29.36 119.45 29.4C119.77 29.45 120.07 29.46 120.38 29.48C120.38 29.48 120.45 29.48 120.51 29.48C120.548 29.523 120.597 29.5543 120.652 29.5703C120.707 29.5862 120.765 29.5862 120.82 29.57H121.21C121.292 29.604 121.369 29.6476 121.44 29.7C121.51 29.7 121.55 29.95 121.54 29.98C121.53 30.01 121.54 30.14 121.62 30.22C121.624 30.2499 121.624 30.2802 121.62 30.31C121.456 30.5961 121.273 30.8702 121.07 31.13L120.59 31.41C120.36 31.55 120.11 31.7 120.07 31.74C120.03 31.78 119.95 31.74 119.89 31.74L119.15 32.17C118.99 32.17 118.87 32.33 118.66 32.23C118.66 32.23 118.59 32.23 118.56 32.23C118.314 32.3431 118.055 32.427 117.79 32.48C117.65 32.48 117.55 32.61 117.42 32.66H117.34C117.307 32.6506 117.273 32.6506 117.24 32.66C116.98 32.83 116.65 32.9 116.44 33.15C116.44 33.15 116 33.23 115.95 33.31C115.9 33.39 115.65 33.34 115.66 33.41Z" fill="#231F20"/>
</svg>
