<svg width="128" height="128" viewBox="0 0 128 128" fill="none" xmlns="http://www.w3.org/2000/svg">
<path d="M71.5501 55.74L66.9201 55.66H65.2301L59.2301 55.5C58.3501 55.5 57.4601 55.5 56.5901 55.5C55.4465 55.5349 54.3026 55.441 53.1801 55.22C52.8301 55.14 52.9401 54.94 53.2601 54.77C53.4579 54.6761 53.6659 54.6056 53.8801 54.56C54.1636 54.4843 54.4568 54.4506 54.7501 54.46C57.0001 54.46 59.2801 54.46 61.5801 54.55C62.9601 54.62 64.4001 54.55 65.8001 54.55H70.4601H73.3201C74.7701 54.55 76.2201 54.55 77.6601 54.48C78.7801 54.48 79.8701 54.33 80.9801 54.26C81.2201 54.26 81.4701 54.26 81.7201 54.26C82.6301 54.26 82.9701 54.38 83.1201 54.78C83.1201 54.87 83.2001 54.96 83.2201 55.05C83.2201 55.36 82.8901 55.57 82.2201 55.63C80.1939 55.845 78.1577 55.9518 76.1201 55.95H71.5501V55.74Z" fill="#231F20"/>
<path d="M47.0002 106.27C47.8602 106.27 40.1002 108.6 38.6802 106.73C37.2602 104.86 37.9002 95.73 37.9002 95.73C37.9002 95.73 40.7002 95.09 41.0602 96.01C41.4202 96.93 39.3302 100.35 39.3302 102.01C39.2902 106.55 46.5202 106.27 47.0002 106.27Z" fill="#221F1F"/>
<path d="M66.7498 106.27C67.6198 106.27 59.8598 108.6 58.4298 106.73C56.9998 104.86 57.6498 95.73 57.6498 95.73C57.6498 95.73 58.9398 94.31 59.2998 95.24C59.6598 96.17 59.0898 100.35 59.0898 102.05C59.0898 106.55 66.3098 106.27 66.7498 106.27Z" fill="#221F1F"/>
<path d="M86.5101 105.75C87.3801 105.75 79.6201 108.08 78.1901 106.21C76.7601 104.34 77.4101 95.21 77.4101 95.21C77.4101 95.21 78.7001 93.79 79.0601 94.71C79.4201 95.63 78.8501 99.83 78.8501 101.53C78.8501 106 86.0701 105.75 86.5101 105.75Z" fill="#221F1F"/>
<path d="M45.4801 79.23C46.3401 79.23 38.5801 81.56 37.1601 79.69C35.7401 77.82 37.0601 68.26 37.0601 68.26C37.0601 68.26 41.4701 67.59 41.8401 68.52C42.2101 69.45 38.8401 73.34 38.8401 75.03C38.8601 79.5 45.0001 79.23 45.4801 79.23Z" fill="#221F1F"/>
<path d="M95.6299 6.37998C95.6299 6.30998 95.6299 6.22998 95.7199 6.13998C95.8099 6.04998 95.8599 6.13998 95.8799 6.13998L95.9899 6.25998C95.9899 6.25998 96.1499 6.72998 96.1999 6.87998C96.2504 7.02357 96.2905 7.17062 96.3199 7.31998C96.3799 7.61998 96.4499 7.91998 96.5099 8.21998C96.5148 8.28989 96.5148 8.36006 96.5099 8.42998C96.5304 8.66294 96.5706 8.89376 96.6299 9.11998C96.6196 9.15592 96.6196 9.19403 96.6299 9.22998C96.7087 9.48125 96.7656 9.73888 96.7999 9.99998C96.7999 10.2 96.7999 10.41 96.7999 10.62C96.8099 10.6457 96.8099 10.6743 96.7999 10.7C96.7753 10.7644 96.7753 10.8356 96.7999 10.9V11.16C96.8046 11.2065 96.8046 11.2534 96.7999 11.3C96.7999 11.3 96.7099 11.3 96.6999 11.3C96.6899 11.3 96.6499 11.3 96.6199 11.3C96.5268 11.1315 96.4434 10.9579 96.3699 10.78C96.3699 10.78 96.1899 10.05 96.1599 9.96998C96.1549 9.92678 96.1549 9.88317 96.1599 9.83998C96.1599 9.83998 95.9999 9.23998 95.9899 9.21998C95.9703 9.10078 95.9703 8.97918 95.9899 8.85998C95.9899 8.85998 95.9899 8.80998 95.9899 8.77998C95.9427 8.57532 95.906 8.36838 95.8799 8.15998L95.8199 7.84998C95.8152 7.83025 95.8152 7.8097 95.8199 7.78998V7.73998C95.7599 7.48998 95.7299 7.22998 95.6599 6.98998C95.6599 6.92998 95.6599 6.64998 95.6599 6.57998C95.6599 6.50998 95.6499 6.40998 95.6299 6.37998Z" fill="#221F1F"/>
<path d="M93.9401 9.36998C93.8701 9.41998 93.7801 9.36998 93.7001 9.26998C93.6201 9.16998 93.7001 9.12998 93.7001 9.10998L93.8001 8.99998L94.4401 8.78998C94.5905 8.73945 94.7442 8.69936 94.9001 8.66998L95.8401 8.46998H96.0501C96.2932 8.45115 96.5341 8.411 96.7701 8.34998H96.8901C97.1484 8.27209 97.4126 8.21524 97.6801 8.17998H98.3201C98.3358 8.17279 98.3529 8.16907 98.3701 8.16907C98.3874 8.16907 98.4044 8.17279 98.4201 8.17998C98.4853 8.20003 98.555 8.20003 98.6201 8.17998C98.71 8.17508 98.8002 8.17508 98.8901 8.17998C98.9367 8.1753 98.9836 8.1753 99.0301 8.17998C99.0301 8.17998 99.0301 8.25998 99.0301 8.26998C99.0301 8.27998 99.0301 8.32998 99.0301 8.35998C99.0301 8.35998 98.5301 8.59998 98.4801 8.60998L97.6401 8.82998H97.5001L96.8601 8.99998C96.7361 9.03261 96.6084 9.04941 96.4801 9.04998C96.469 9.0453 96.4571 9.0429 96.4451 9.0429C96.4331 9.0429 96.4212 9.0453 96.4101 9.04998C96.2001 9.04998 95.9801 9.12998 95.7601 9.15998L95.4401 9.22998H95.3001C95.0401 9.28998 94.7801 9.31998 94.5201 9.38998C94.5201 9.38998 94.1701 9.38998 94.1001 9.43998C94.0301 9.48998 94.0001 9.34998 93.9401 9.36998Z" fill="#221F1F"/>
<path d="M94.3899 7.50996C94.3099 7.50996 94.2899 7.40996 94.3099 7.27996C94.3228 7.22697 94.3549 7.18065 94.4 7.14996C94.4528 7.13995 94.5071 7.13995 94.5599 7.14996L95.0999 7.40996C95.2266 7.46797 95.3471 7.53831 95.4599 7.61996L96.18 8.08996C96.2346 8.12371 96.285 8.16401 96.33 8.20996C96.4915 8.35649 96.6693 8.48399 96.86 8.58996L96.9599 8.63996C97.1743 8.75194 97.3784 8.88244 97.5699 9.02996L98 9.40996C98 9.40996 98 9.40996 98 9.46996C98 9.52996 98.08 9.55996 98.12 9.59996L98.3099 9.75996C98.3411 9.79105 98.365 9.82861 98.3799 9.86996C98.3799 9.86996 98.38 9.94996 98.33 9.94996C98.28 9.94996 98.33 9.94996 98.33 10.02C98.154 9.98299 97.9829 9.92595 97.8199 9.84996L97.1399 9.45996C97.1399 9.45996 97.08 9.40996 97.05 9.38996C97.02 9.36996 96.56 9.10996 96.54 9.08996C96.4374 9.03787 96.3457 8.96658 96.2699 8.87996C96.2535 8.87573 96.2363 8.87573 96.22 8.87996C96.05 8.77996 95.8999 8.65996 95.7399 8.54996L95.4899 8.37996C95.2899 8.25996 95.11 8.10996 94.9 7.98996C94.9 7.98996 94.67 7.77996 94.61 7.74996C94.55 7.71996 94.4299 7.50996 94.3899 7.50996Z" fill="#221F1F"/>
<path d="M95.2601 10.59C95.2601 10.67 95.1601 10.68 95.0301 10.65C94.9001 10.62 94.9001 10.58 94.9101 10.55C94.9052 10.5001 94.9052 10.4499 94.9101 10.4C94.9916 10.2289 95.0817 10.062 95.1801 9.9C95.2441 9.78405 95.3177 9.67366 95.4001 9.57L95.8801 8.92C95.9145 8.87183 95.9549 8.82816 96.0001 8.79C96.1488 8.64986 96.2798 8.49202 96.3901 8.32C96.3901 8.32 96.3901 8.26 96.3901 8.23C96.5053 8.03412 96.6392 7.84991 96.7901 7.68L97.1801 7.3C97.1801 7.3 97.1801 7.3 97.2401 7.3C97.2954 7.28046 97.3417 7.24132 97.3701 7.19L97.5901 7H97.7101C97.7101 7 97.7901 7 97.7801 7C97.7701 7 97.7801 7 97.8501 7.06C97.809 7.22647 97.7486 7.38756 97.6701 7.54C97.6701 7.54 97.3001 8.09 97.2701 8.15L97.1901 8.23C97.1901 8.23 96.9001 8.68 96.8801 8.7C96.8601 8.72 96.7701 8.88 96.6701 8.94C96.6701 8.94 96.4401 9.23 96.3201 9.37C96.2001 9.51 96.2101 9.52 96.1501 9.6C96.0201 9.78 95.8701 9.94 95.7501 10.13C95.7501 10.13 95.5401 10.34 95.5101 10.39C95.4801 10.44 95.2701 10.56 95.2601 10.59Z" fill="#221F1F"/>
<path d="M113.73 23.79C113.73 23.74 113.73 23.69 113.79 23.64C113.825 23.626 113.865 23.626 113.9 23.64L113.97 23.72C113.97 23.72 114.07 24 114.11 24.09C114.139 24.1817 114.163 24.2753 114.18 24.37C114.18 24.55 114.26 24.74 114.29 24.92C114.295 24.9632 114.295 25.0068 114.29 25.05C114.299 25.1953 114.322 25.3394 114.36 25.48C114.356 25.5031 114.356 25.5268 114.36 25.55C114.409 25.7034 114.446 25.8606 114.47 26.02C114.47 26.14 114.47 26.27 114.47 26.4C114.47 26.53 114.47 26.4 114.47 26.45C114.47 26.5 114.47 26.53 114.47 26.57C114.475 26.6232 114.475 26.6767 114.47 26.73C114.47 26.73 114.47 26.79 114.47 26.82C114.47 26.85 114.41 26.82 114.4 26.82C114.341 26.7164 114.287 26.6096 114.24 26.5C114.24 26.5 114.12 26.05 114.11 26C114.106 25.9735 114.106 25.9465 114.11 25.92C114.11 25.92 114.01 25.55 114.01 25.54C113.995 25.464 113.995 25.3859 114.01 25.31C114.01 25.18 114.01 25.06 113.95 24.93C113.89 24.8 113.95 24.8 113.95 24.73C113.955 24.7136 113.955 24.6963 113.95 24.68C113.95 24.53 113.95 24.37 113.86 24.22C113.864 24.1367 113.864 24.0532 113.86 23.97C113.86 23.97 113.74 23.81 113.73 23.79Z" fill="#221F1F"/>
<path d="M112.7 25.63C112.7 25.63 112.6 25.63 112.55 25.57C112.536 25.5347 112.536 25.4954 112.55 25.46L112.63 25.39L113.02 25.25L113.3 25.18L113.88 25.06H114.01C114.162 25.0514 114.313 25.0279 114.46 24.99C114.46 24.99 114.46 24.99 114.53 24.99C114.691 24.9442 114.854 24.9108 115.02 24.89H115.41H115.47C115.509 24.8998 115.551 24.8998 115.59 24.89H115.76H115.85V24.95C115.85 24.95 115.85 24.95 115.85 25.01L115.51 25.17L115 25.31H114.91L114.52 25.41C114.444 25.4197 114.366 25.4197 114.29 25.41C114.159 25.4439 114.025 25.4673 113.89 25.48L113.69 25.53H113.61C113.45 25.53 113.29 25.58 113.13 25.63C113.043 25.6251 112.957 25.6251 112.87 25.63C112.87 25.63 112.72 25.62 112.7 25.63Z" fill="#221F1F"/>
<path d="M113 24.49C113 24.49 112.94 24.42 113 24.34C113.06 24.26 113 24.25 113.07 24.25H113.16L113.5 24.41C113.581 24.4457 113.658 24.4892 113.73 24.54L114.17 24.82L114.26 24.9C114.36 24.9855 114.467 25.0624 114.58 25.13H114.64C114.771 25.2028 114.898 25.2829 115.02 25.37L115.28 25.61C115.284 25.6293 115.292 25.6475 115.304 25.6631C115.317 25.6787 115.332 25.6913 115.35 25.7C115.391 25.7279 115.428 25.7616 115.46 25.8C115.46 25.8 115.46 25.8 115.46 25.87C115.46 25.94 115.46 25.92 115.46 25.92C115.46 25.92 115.46 25.92 115.46 25.97C115.35 25.9476 115.243 25.9141 115.14 25.87L114.73 25.64C114.73 25.64 114.73 25.64 114.67 25.59L114.35 25.41C114.29 25.3755 114.236 25.3316 114.19 25.28C114.086 25.2192 113.986 25.1524 113.89 25.08L113.74 24.98C113.62 24.9 113.51 24.81 113.38 24.74C113.25 24.67 113.24 24.61 113.2 24.59C113.16 24.57 113 24.49 113 24.49Z" fill="#221F1F"/>
<path d="M113.52 26.38C113.52 26.43 113.45 26.43 113.37 26.38C113.337 26.3648 113.309 26.3405 113.29 26.31C113.285 26.2769 113.285 26.2432 113.29 26.21C113.29 26.21 113.41 25.98 113.45 25.9C113.491 25.8295 113.538 25.7626 113.59 25.7L113.88 25.3L113.96 25.22C114.048 25.1305 114.128 25.0335 114.2 24.93C114.2 24.93 114.2 24.93 114.2 24.87C114.271 24.7482 114.355 24.6342 114.45 24.53L114.69 24.3C114.722 24.2885 114.75 24.2676 114.77 24.24L114.87 24.14H114.94C114.915 24.2407 114.878 24.338 114.83 24.43C114.83 24.43 114.61 24.77 114.59 24.81C114.593 24.8265 114.593 24.8435 114.59 24.86L114.4 25.15C114.367 25.2056 114.323 25.2534 114.27 25.29C114.2 25.39 114.12 25.47 114.05 25.56C114.011 25.6025 113.977 25.6495 113.95 25.7C113.87 25.82 113.77 25.92 113.7 26.03C113.63 26.14 113.57 26.16 113.55 26.19C113.53 26.22 113.52 26.36 113.52 26.38Z" fill="#221F1F"/>
<path d="M13.7202 22.75C13.7202 22.69 13.7202 22.62 13.8102 22.55C13.9002 22.48 13.9402 22.55 13.9502 22.55C13.9884 22.5781 14.0221 22.6118 14.0502 22.65C14.0502 22.65 14.1802 23.03 14.2302 23.15C14.2696 23.2675 14.2997 23.3879 14.3202 23.51C14.3202 23.76 14.4302 24 14.4802 24.25C14.4802 24.3 14.4802 24.36 14.4802 24.41C14.4841 24.6032 14.5144 24.795 14.5702 24.98C14.5603 25.0092 14.5603 25.0409 14.5702 25.07C14.6285 25.2773 14.6752 25.4876 14.7102 25.7C14.7102 25.87 14.7102 26.03 14.7102 26.2C14.7151 26.2265 14.7151 26.2536 14.7102 26.28C14.7102 26.28 14.7102 26.38 14.7102 26.43C14.7147 26.5033 14.7147 26.5768 14.7102 26.65C14.7147 26.6866 14.7147 26.7235 14.7102 26.76C14.7102 26.76 14.6402 26.76 14.6302 26.76C14.6202 26.76 14.6302 26.76 14.5502 26.76C14.4625 26.6261 14.3919 26.4816 14.3402 26.33C14.3402 26.33 14.1802 25.74 14.1602 25.67C14.1553 25.6369 14.1553 25.6032 14.1602 25.57C14.1602 25.57 14.0202 25.08 14.0202 25.07C14.0051 24.9706 14.0051 24.8695 14.0202 24.77C14.0202 24.77 14.0202 24.77 14.0202 24.71C14.0202 24.54 13.9602 24.37 13.9302 24.2C13.9184 24.1125 13.9017 24.0257 13.8802 23.94C13.8857 23.917 13.8857 23.893 13.8802 23.87C13.8802 23.67 13.8102 23.47 13.7502 23.27C13.6902 23.07 13.7502 22.99 13.7502 22.93C13.7502 22.87 13.7402 22.77 13.7202 22.75Z" fill="#221F1F"/>
<path d="M12.36 25.1999C12.3 25.1999 12.23 25.1999 12.16 25.1099C12.09 25.0199 12.16 24.9799 12.16 24.9699C12.1881 24.9318 12.2218 24.898 12.26 24.8699L12.78 24.6899C12.9037 24.6461 13.0308 24.6127 13.16 24.5899L13.92 24.4299H14.1C14.2995 24.4164 14.4972 24.3829 14.69 24.3299C14.7194 24.3386 14.7506 24.3386 14.78 24.3299C14.9928 24.2669 15.2101 24.2201 15.43 24.1899H15.95C15.95 24.1899 16 24.1899 16.03 24.1899C16.0815 24.21 16.1386 24.21 16.19 24.1899H16.42H16.53C16.53 24.1899 16.53 24.2599 16.53 24.2699C16.53 24.2799 16.53 24.3199 16.53 24.3399C16.3896 24.4252 16.2425 24.4988 16.09 24.5599L15.4 24.7399H15.29L14.77 24.8799C14.6672 24.8951 14.5628 24.8951 14.46 24.8799C14.46 24.8799 14.46 24.8799 14.4 24.8799C14.2253 24.9229 14.0484 24.9563 13.87 24.9799L13.6 25.0299H13.49C13.28 25.0799 13.07 25.0999 12.86 25.1599H12.52C12.52 25.1599 12.39 25.1799 12.36 25.1999Z" fill="#221F1F"/>
<path d="M12.72 23.67C12.65 23.67 12.64 23.59 12.66 23.48C12.68 23.37 12.72 23.36 12.74 23.36H12.87L13.32 23.57L13.61 23.74L14.2 24.12L14.32 24.22C14.4524 24.3376 14.5965 24.4415 14.75 24.53C14.75 24.53 14.8 24.53 14.83 24.53C15.0076 24.6186 15.1752 24.7258 15.33 24.85C15.44 24.96 15.56 25.06 15.68 25.16C15.8 25.26 15.68 25.16 15.68 25.21C15.6995 25.2571 15.7349 25.296 15.78 25.32C15.8345 25.3578 15.8848 25.4014 15.93 25.45C15.9558 25.4795 15.9761 25.5134 15.99 25.55C15.99 25.55 15.99 25.62 15.94 25.62C15.89 25.62 15.94 25.62 15.94 25.68C15.7935 25.6477 15.6498 25.6043 15.51 25.55C15.51 25.55 15 25.32 15 25.3C14.9718 25.282 14.948 25.2581 14.93 25.23L14.46 25C14.3784 24.9508 14.3044 24.8902 14.24 24.82C14.1037 24.7357 13.9734 24.6422 13.85 24.54L13.65 24.41C13.65 24.41 13.34 24.19 13.17 24.1C13 24.01 12.98 23.92 12.93 23.9C12.88 23.88 12.75 23.68 12.72 23.67Z" fill="#221F1F"/>
<path d="M13.4401 26.19C13.4401 26.25 13.3601 26.26 13.2501 26.19C13.2037 26.1745 13.1645 26.1424 13.1401 26.1V26C13.1401 26 13.3101 25.69 13.3601 25.59C13.4083 25.4927 13.4688 25.4019 13.5401 25.32L13.9301 24.79C13.958 24.7487 13.9917 24.7117 14.0301 24.68C14.1504 24.5617 14.2576 24.431 14.3501 24.29C14.3586 24.2674 14.3586 24.2426 14.3501 24.22C14.4445 24.0591 14.5551 23.9083 14.6801 23.77L15.0001 23.46C15.0166 23.4562 15.0337 23.4562 15.0501 23.46C15.1101 23.46 15.1301 23.41 15.1601 23.38L15.2901 23.24H15.3901C15.3901 23.24 15.4601 23.24 15.4601 23.29C15.4601 23.34 15.4601 23.29 15.5101 23.34C15.4701 23.4769 15.42 23.6106 15.3601 23.74C15.3601 23.74 15.0701 24.18 15.0401 24.24L14.9701 24.3L14.7301 24.69C14.6781 24.7605 14.6177 24.8243 14.5501 24.88C14.463 25.0015 14.3695 25.1183 14.2701 25.23C14.2201 25.28 14.1801 25.35 14.1301 25.41C14.0301 25.56 13.9001 25.69 13.8101 25.85C13.7201 26.01 13.6301 26.02 13.6101 26.06C13.5901 26.1 13.4501 26.16 13.4401 26.19Z" fill="#221F1F"/>
<path d="M39.5198 81.8599H38.6098H38.1398H37.8798C37.7483 81.8463 37.6179 81.8229 37.4898 81.7899C37.233 81.7612 36.9876 81.6682 36.7761 81.5197C36.5647 81.3711 36.394 81.1718 36.2798 80.9399C36.1364 80.7544 36.028 80.5443 35.9598 80.3199C35.899 80.1567 35.8489 79.9897 35.8098 79.8199C35.6802 79.373 35.5767 78.9189 35.4998 78.4599C35.4074 77.6865 35.354 76.9088 35.3398 76.1299C35.3398 75.3599 35.3398 74.5899 35.4198 73.8299C35.4998 73.0699 35.4198 72.4699 35.4198 71.8299C35.3824 70.9548 35.4905 70.0796 35.7398 69.2399C35.8398 68.9699 36.1298 69.0599 36.4098 69.3199C36.7568 69.6148 36.9815 70.0284 37.0398 70.4799C37.1198 72.1599 37.1198 73.8499 37.0398 75.5599C37.0149 76.5897 37.1021 77.6191 37.2998 78.6299C37.2998 78.9099 37.3998 79.1699 37.4598 79.4299C37.4872 79.545 37.5206 79.6584 37.5598 79.7699C37.575 79.8282 37.5951 79.8851 37.6198 79.9399C37.6672 79.9913 37.7304 80.0251 37.7994 80.036C37.8684 80.0469 37.939 80.0342 37.9998 79.9999C38.2517 80.0356 38.5055 80.0557 38.7598 80.0599C39.4698 80.0599 40.1898 80.1199 40.9098 80.1199C41.9998 80.1199 43.0998 80.0599 44.1798 79.9499C45.0198 79.8699 45.8298 79.6699 46.6498 79.5099L47.1898 79.3899C47.8698 79.2799 48.0998 79.3899 48.2898 79.8699C48.3448 79.9728 48.3917 80.0798 48.4298 80.1899C48.5298 80.5399 48.2798 80.8799 47.7898 81.0599C46.2748 81.4837 44.7126 81.7155 43.1398 81.7499C41.9498 81.8099 40.7598 81.7499 39.5498 81.8899L39.5198 81.8599Z" fill="#231F20"/>
<path d="M59.5601 82.05C59.2001 82.05 58.8401 82.05 58.4601 82.05H57.8401C57.5308 81.9994 57.2264 81.9224 56.9301 81.82C56.7763 81.6877 56.6294 81.5476 56.4901 81.4L56.1501 80.88C56.0714 80.73 56.0077 80.5726 55.9601 80.41C55.9123 80.2792 55.8723 80.1456 55.8401 80.01C55.7137 79.5663 55.6136 79.1155 55.5401 78.66C55.4444 77.8867 55.3877 77.1091 55.3701 76.33C55.3701 75.55 55.3701 74.79 55.4501 74.02C55.5301 73.25 55.4501 72.67 55.4501 72.02C55.4077 71.1447 55.5159 70.2687 55.7701 69.43C55.8601 69.17 56.1501 69.25 56.4401 69.52C56.7827 69.8184 57.0064 70.2302 57.0701 70.68C57.1501 72.36 57.1501 74.04 57.0701 75.76C57.0428 76.7894 57.1266 77.8187 57.3201 78.83C57.3687 79.1675 57.4389 79.5015 57.5301 79.83C57.5901 79.99 57.6001 80.08 57.6301 80.13C57.6545 80.1991 57.6958 80.2609 57.7501 80.31C57.8482 80.3512 57.9538 80.3717 58.0601 80.37C58.2601 80.37 58.4801 80.37 58.7001 80.37C59.4001 80.37 60.1201 80.43 60.8401 80.37C61.9301 80.37 63.0301 80.37 64.1101 80.21C64.9501 80.12 65.7701 79.93 66.5901 79.76C66.7701 79.76 66.9401 79.67 67.1301 79.65C67.8001 79.54 68.0301 79.65 68.2301 80.13C68.2795 80.2307 68.3229 80.3343 68.3601 80.44C68.4701 80.8 68.2201 81.14 67.7201 81.32C66.2048 81.7411 64.6425 81.9696 63.0701 82C61.8801 82.06 60.6901 82 59.4901 82.15L59.5601 82.05Z" fill="#231F20"/>
<path d="M79.2298 81.76H78.3198H77.8498H77.5798C77.4512 81.7547 77.3237 81.7345 77.1998 81.6999C76.9357 81.6599 76.6865 81.5524 76.4763 81.3877C76.266 81.223 76.1019 81.0067 75.9998 80.76C75.8564 80.5744 75.7479 80.3643 75.6798 80.1399C75.6202 79.9763 75.5701 79.8094 75.5298 79.6399C75.4002 79.193 75.2967 78.7389 75.2198 78.2799C75.1257 77.5232 75.0689 76.7623 75.0498 75.9999C75.0498 75.2299 75.0498 74.4599 75.1198 73.6999C75.1898 72.9399 75.1198 72.3399 75.1198 71.6999C75.0767 70.7856 75.1986 69.871 75.4798 68.9999C75.5698 68.7299 75.8598 68.82 76.1498 69.08C76.4938 69.3772 76.7178 69.7896 76.7798 70.2399C76.8598 71.9199 76.8598 73.6099 76.7798 75.3199C76.7557 76.3497 76.8429 77.379 77.0398 78.3899C77.0725 78.6563 77.1226 78.9202 77.1898 79.1799C77.1898 79.3099 77.2698 79.4199 77.2998 79.5299C77.3166 79.5877 77.3367 79.6444 77.3598 79.6999C77.3845 79.7535 77.424 79.7988 77.4736 79.8307C77.5232 79.8626 77.5808 79.8797 77.6398 79.8799C77.7698 79.8799 78.1498 79.88 78.4098 79.94C79.1098 79.94 79.8398 79.9999 80.5598 79.9999C81.6498 79.9999 82.7498 79.94 83.8298 79.83C84.6698 79.75 85.4798 79.5499 86.2998 79.3899C86.4798 79.3899 86.6598 79.2999 86.8398 79.2699C87.5198 79.1599 87.7398 79.2699 87.9398 79.7499C87.9918 79.8495 88.0352 79.9531 88.0698 80.0599C88.1798 80.4199 87.9298 80.76 87.4398 80.94C85.9204 81.3589 84.3554 81.5906 82.7798 81.6299C81.5998 81.6299 80.4098 81.6299 79.1998 81.7699L79.2298 81.76Z" fill="#231F20"/>
<path d="M80.2899 108.58H79.3799H78.9199H78.6499C78.518 108.575 78.3872 108.554 78.2599 108.52C78.0047 108.486 77.7614 108.391 77.5508 108.243C77.3401 108.095 77.1683 107.899 77.0499 107.67C76.9067 107.481 76.7983 107.267 76.7299 107.04C76.6675 106.877 76.6174 106.71 76.5799 106.54C76.4503 106.096 76.3468 105.646 76.2699 105.19C76.1774 104.416 76.124 103.639 76.1099 102.86C76.1099 102.08 76.1099 101.32 76.1899 100.55C76.2699 99.7799 76.1899 99.1999 76.1899 98.5499C76.1425 97.6745 76.2508 96.7975 76.5099 95.9599C76.5999 95.6999 76.8899 95.7799 77.1799 96.0499C77.5224 96.347 77.7432 96.7601 77.7999 97.2099C77.8799 98.8899 77.8799 100.57 77.7999 102.29C77.7758 103.32 77.863 104.349 78.0599 105.36C78.0599 105.64 78.1599 105.89 78.2199 106.15C78.2444 106.266 78.2779 106.379 78.3199 106.49C78.3353 106.551 78.3553 106.612 78.3799 106.67C78.4072 106.724 78.4487 106.769 78.4998 106.8C78.5509 106.832 78.6097 106.849 78.6699 106.85C78.7999 106.85 79.1699 106.9 79.4299 106.91C80.1399 106.91 80.8599 106.97 81.5799 106.91C82.6699 106.91 83.7699 106.91 84.8499 106.75C85.6899 106.66 86.4999 106.47 87.3199 106.3C87.5099 106.3 87.6799 106.21 87.8599 106.19C88.5399 106.08 88.7699 106.19 88.9699 106.67C89.0192 106.771 89.0626 106.874 89.0999 106.98C89.1999 107.34 88.9599 107.68 88.4599 107.86C86.9444 108.28 85.3822 108.509 83.8099 108.54C82.6199 108.6 81.4299 108.54 80.2299 108.69L80.2899 108.58Z" fill="#231F20"/>
<path d="M60.0002 109.21H58.9002H58.2802C57.9703 109.167 57.6654 109.094 57.3702 108.99C57.2139 108.857 57.0669 108.713 56.9302 108.56L56.5902 108.05C56.5112 107.897 56.4476 107.736 56.4002 107.57C56.3525 107.442 56.3125 107.312 56.2802 107.18C56.1602 106.71 56.0402 106.27 55.9702 105.82C55.8702 105.03 55.8402 104.26 55.8102 103.49C55.7802 102.72 55.8102 101.95 55.8902 101.19C55.9702 100.43 55.8902 99.8299 55.8902 99.1899C55.8478 98.3146 55.956 97.4386 56.2102 96.5999C56.3002 96.3299 56.5902 96.4199 56.8802 96.6799C57.2207 96.98 57.4439 97.3909 57.5102 97.8399C57.5902 99.5199 57.5902 101.21 57.5102 102.92C57.4903 103.95 57.5774 104.978 57.7702 105.99C57.8206 106.327 57.8907 106.661 57.9802 106.99C58.0056 107.092 58.039 107.193 58.0802 107.29C58.1021 107.357 58.1439 107.417 58.2002 107.46C58.2992 107.5 58.4038 107.523 58.5102 107.53H59.1402C59.8502 107.53 60.5702 107.59 61.2902 107.59C62.3802 107.59 63.4802 107.53 64.5602 107.42C65.4002 107.34 66.2202 107.14 67.0402 106.98C67.2202 106.98 67.3902 106.89 67.5802 106.86C68.2502 106.75 68.4802 106.86 68.6802 107.34C68.6802 107.45 68.7802 107.55 68.8102 107.66C68.9202 108.01 68.6702 108.35 68.1702 108.53C66.6554 108.954 65.0931 109.186 63.5202 109.22C62.3302 109.28 61.1402 109.22 59.9402 109.36L60.0002 109.21Z" fill="#231F20"/>
<path d="M39.9302 109.19H39.0202H38.5602H38.2902C38.1584 109.184 38.0277 109.164 37.9002 109.13C37.645 109.096 37.4017 109.001 37.1911 108.853C36.9804 108.705 36.8086 108.509 36.6902 108.28C36.547 108.091 36.4386 107.877 36.3702 107.65C36.3078 107.487 36.2577 107.32 36.2202 107.15C36.0906 106.706 35.9871 106.256 35.9102 105.8C35.8102 105.01 35.7802 104.24 35.7502 103.46C35.7202 102.68 35.7502 101.92 35.8302 101.16C35.9102 100.4 35.8302 99.7999 35.8302 99.1599C35.7828 98.2845 35.8911 97.4075 36.1502 96.5699C36.2402 96.3099 36.5302 96.3899 36.8202 96.6499C37.1612 96.9524 37.3814 97.3679 37.4402 97.8199C37.5302 99.4899 37.5202 101.18 37.4402 102.89C37.4157 103.923 37.5029 104.956 37.7002 105.97C37.7002 106.25 37.8002 106.5 37.8602 106.76C37.8848 106.876 37.9182 106.989 37.9602 107.1C37.9757 107.163 37.9992 107.223 38.0302 107.28C38.0549 107.333 38.0944 107.379 38.144 107.411C38.1936 107.443 38.2512 107.46 38.3102 107.46C38.4402 107.46 38.8202 107.46 39.0702 107.51C39.7802 107.51 40.5002 107.57 41.2202 107.57C42.3102 107.57 43.4102 107.57 44.4902 107.41C45.3302 107.32 46.1402 107.13 46.9702 106.96C47.1502 106.96 47.3202 106.87 47.5002 106.85C48.1802 106.74 48.4102 106.85 48.6102 107.32C48.6102 107.43 48.7102 107.53 48.7402 107.64C48.8402 108 48.6002 108.34 48.1002 108.52C46.5837 108.935 45.0221 109.164 43.4502 109.2C42.2602 109.26 41.0702 109.2 39.8702 109.35L39.9302 109.19Z" fill="#231F20"/>
<path d="M99.1001 81.35C99.1001 77.51 99.1001 73.66 98.9501 69.81C98.9501 68.41 98.8001 67.01 98.7601 65.6C98.6268 60.6533 98.4468 55.7033 98.2201 50.75C98.1101 48.55 97.9201 46.35 97.7301 44.18L97.3701 40C97.2839 38.5823 97.3275 37.1598 97.5001 35.75C97.5801 34.85 97.8701 34.98 98.3101 35.75C98.5201 36.11 98.8101 36.61 99.1301 37.22C99.4501 37.9003 99.6787 38.6198 99.8101 39.36C100.45 45.0747 100.784 50.8196 100.81 56.57C100.81 60.04 101.14 63.63 101.27 67.16C101.4 71.05 101.48 74.95 101.52 78.84V86.03C101.52 87.85 101.46 89.67 101.44 91.49L101.29 96.92C101.16 99.73 101.21 102.49 100.97 105.28C100.97 105.89 100.97 106.5 100.85 107.12C100.49 109.42 100.21 110.12 99.4801 110.47C99.3329 110.565 99.1752 110.642 99.0101 110.7C98.5101 110.81 98.2301 109.8 98.3701 108.19C98.6901 103.36 98.9301 98.19 99.0001 93.03C99.0701 89.18 99.1101 85.3 99.0501 81.43L99.1001 81.35Z" fill="#231F20"/>
<path d="M24.84 90.72C24.16 78.93 23.95 67.14 24.07 55.35C24.12 51.05 24.15 46.75 24.37 42.45C24.5071 38.6253 24.8409 34.8103 25.37 31.02C25.45 30.54 25.57 30.02 25.66 29.56C25.7818 29.0464 25.9388 28.5419 26.13 28.05C26.509 27.0774 27.0096 26.1567 27.62 25.31C28.8833 23.6289 30.5907 22.3336 32.55 21.57C34.4025 20.858 36.344 20.4038 38.32 20.22C40.25 20 42.15 19.92 44.02 19.8C47.82 19.54 51.62 19.51 55.4 19.47C62.12 19.47 68.87 19.47 75.54 19.71C79.853 19.794 84.1588 20.1011 88.44 20.63C90.6915 20.8979 92.849 21.689 94.74 22.94C95.6936 23.6064 96.4975 24.4647 97.1 25.46C97.6939 26.4469 98.0881 27.541 98.26 28.68C98.3157 29.1851 98.3157 29.6948 98.26 30.2C98.26 30.52 98.17 30.65 98.09 30.64C98.01 30.63 97.78 29.93 97.4 28.88C96.917 27.5054 96.0868 26.279 94.99 25.32C93.413 24.1062 91.556 23.3084 89.59 23C85.3486 22.3982 81.0735 22.0642 76.79 22C72.45 21.84 68.1 21.77 63.74 21.74C55.0439 21.5667 46.3447 21.8605 37.68 22.62C35.2354 22.8397 32.8959 23.7175 30.91 25.16C30.0182 25.9366 29.279 26.8726 28.73 27.92C28.4777 28.4678 28.2639 29.0325 28.09 29.61C28.0014 29.9053 27.9313 30.2059 27.88 30.51C27.83 30.83 27.75 31.13 27.71 31.46C27.0894 36.7715 26.7555 42.1125 26.71 47.46C26.41 59.25 26.56 71.09 27.08 82.89C27.43 90.16 27.88 97.43 28.82 104.6C29.1487 107.296 29.6498 109.968 30.32 112.6C30.4682 113.173 30.683 113.727 30.96 114.25C31.3155 114.695 31.7578 115.062 32.26 115.33C33.416 115.942 34.6415 116.412 35.91 116.73C41.2191 117.938 46.6365 118.608 52.08 118.73C60.4688 119.02 68.8674 118.803 77.23 118.08C79.07 117.93 80.86 117.73 82.7 117.54C89.54 116.81 91.58 116.54 93.16 116.79C93.52 116.85 93.99 116.79 94.25 116.86C94.51 116.93 94.51 117.02 94.31 117.28C93.9679 117.654 93.5526 117.953 93.09 118.16C91.2608 118.951 89.3335 119.492 87.36 119.77C79.6786 120.955 71.922 121.587 64.15 121.66C60.15 121.73 56.22 121.66 52.21 121.51C48.1693 121.35 44.1402 120.973 40.14 120.38C38.6154 120.146 37.1035 119.836 35.61 119.45C34.009 119.086 32.4601 118.521 31 117.77C30.087 117.285 29.2942 116.602 28.68 115.77C28.4969 115.504 28.3427 115.219 28.22 114.92C28.12 114.67 28.08 114.51 28.01 114.31C27.88 113.92 27.73 113.52 27.64 113.14C27.2296 111.648 26.8958 110.136 26.64 108.61C25.64 102.61 25.19 96.67 24.78 90.72H24.84Z" fill="#231F20"/>
<path d="M63.1501 123.1C59.7701 123.1 56.3901 123.15 53.0001 123.1C51.7701 123.1 50.5301 123.1 49.2901 123.03C44.9262 122.832 40.582 122.324 36.2901 121.51C34.3738 121.146 32.4779 120.682 30.6101 120.12C28.1557 119.491 25.871 118.327 23.9201 116.71C23.3301 116.17 23.6401 115.98 24.4001 116.02C24.873 116.046 25.3421 116.12 25.8001 116.24C26.4016 116.378 26.9879 116.575 27.5501 116.83C32.061 118.646 36.7976 119.84 41.6301 120.38C44.6601 120.736 47.7095 120.899 50.7601 120.87C54.1201 120.93 57.5001 120.87 60.8801 120.87C62.9601 120.83 65.0434 120.773 67.1301 120.7L76.6001 120.35C79.0501 120.25 81.4401 120.03 83.9101 120.02C84.4497 119.99 84.9905 119.99 85.5301 120.02C86.2629 120.052 86.9871 120.19 87.6801 120.43C88.0551 120.59 88.3553 120.887 88.5201 121.26C88.5957 121.41 88.6561 121.568 88.7001 121.73C88.7701 122.22 87.9301 122.44 86.5401 122.47C82.3901 122.54 77.8901 122.72 73.3601 122.88L63.1801 123.2L63.1501 123.1Z" fill="#231F20"/>
<path d="M33.07 119.55L31.23 118.94C31.01 118.87 30.78 118.86 30.55 118.78C29.77 118.5 28.99 118.21 28.22 117.86C27.88 117.72 27.53 117.61 27.22 117.5C26.7362 117.407 26.2849 117.19 25.91 116.87C25.8 116.76 25.97 116.48 26.23 116.22C26.49 115.96 26.8 115.72 27.03 115.76C27.908 115.887 28.7655 116.129 29.58 116.48C30.1072 116.683 30.6584 116.818 31.22 116.88L33.05 117.32C33.43 117.41 33.8 117.5 34.18 117.57C34.7508 117.709 35.3282 117.819 35.91 117.9C36.3743 117.906 36.8386 117.883 37.3 117.83C37.4033 117.825 37.5067 117.825 37.61 117.83C37.99 117.83 38.08 118.03 38.05 118.64C38.0599 118.776 38.0599 118.914 38.05 119.05C38.0541 119.237 38.0057 119.421 37.9102 119.582C37.8148 119.743 37.6761 119.874 37.51 119.96C36.689 120.188 35.8264 120.222 34.99 120.06C34.3592 119.951 33.735 119.808 33.12 119.63L33.07 119.55Z" fill="#231F20"/>
<path d="M62.78 29.3C66.1534 29.3 69.5267 29.3266 72.9 29.38C74.14 29.38 75.37 29.38 76.6 29.38C78.78 29.48 80.96 29.61 83.16 29.87C84.2933 29.9902 85.4119 30.2213 86.5 30.56L86.95 30.75C87.127 30.8171 87.2923 30.9116 87.44 31.03C87.7337 31.2471 87.9789 31.5229 88.16 31.84C88.33 32.11 88.44 32.38 88.59 32.65L88.89 33.48C89.4554 35.3831 89.7911 37.3471 89.89 39.33C90.0972 41.8389 89.8395 44.3645 89.13 46.78C88.79 47.51 88.63 47.32 88.46 46.62C88.23 45.5625 88.1226 44.482 88.14 43.4C88.14 42.19 88.14 40.98 88.03 39.78C87.9798 38.5864 87.8528 37.3973 87.65 36.22C87.4902 35.1205 87.1737 34.0496 86.71 33.04C86.6606 32.9433 86.6002 32.8527 86.53 32.77L86.44 32.64L86.74 32.36L86.65 32.42C86.56 32.5 86.41 32.66 86.44 32.62C86.47 32.58 86.18 32.5 86.01 32.43C85.461 32.2744 84.9034 32.1509 84.34 32.06C81.335 31.647 78.3029 31.4631 75.27 31.51C71.9 31.44 68.52 31.43 65.13 31.45L58.88 31.52C55.72 31.58 52.55 31.62 49.42 31.76C46.98 31.86 44.6 32.1 42.18 32.24C41.65 32.24 41.18 32.33 40.59 32.34C38.59 32.41 37.92 32.14 37.52 31.57C37.4212 31.447 37.3373 31.3127 37.27 31.17C37.14 30.73 37.91 30.44 39.34 30.26C43.58 29.85 48.13 29.6 52.68 29.45C56.07 29.34 59.47 29.28 62.87 29.22L62.78 29.3Z" fill="#231F20"/>
<path d="M34.5602 45.1999L34.7702 42.0499C34.7702 41.6699 34.7702 41.2799 34.7702 40.8999C34.9202 39.5699 35.0602 38.2299 35.2102 36.8999C35.2702 36.3099 35.3002 35.7199 35.3302 35.1199C35.3304 34.3392 35.4519 33.5633 35.6902 32.8199C35.8302 32.4899 35.9902 32.7199 36.1802 32.9299C36.4347 33.2056 36.5926 33.5566 36.6302 33.9299C36.6711 35.4642 36.5875 36.9992 36.3802 38.5199C36.2502 39.4499 36.3002 40.4099 36.2602 41.3599L36.1802 44.4799C36.1802 45.1199 36.1802 45.7599 36.1802 46.3899C36.1802 47.3899 36.1802 48.3299 36.3302 49.2899C36.4325 50.0199 36.5862 50.7417 36.7902 51.4499C36.7902 51.6099 36.8902 51.7599 36.9202 51.9199C37.0302 52.5099 36.9202 52.7199 36.4902 52.9199C36.3943 52.9748 36.2939 53.0216 36.1902 53.0599C35.8502 53.1799 35.5102 52.9899 35.3102 52.5499C34.8008 51.22 34.5202 49.8135 34.4802 48.3899C34.4302 47.3199 34.4802 46.2499 34.4802 45.1899L34.5602 45.1999Z" fill="#231F20"/>
<path d="M67.7199 55L60.3399 55.13C59.4399 55.13 58.5499 55.21 57.6399 55.2C54.5199 55.11 51.3999 55.38 48.2099 55.54C46.7999 55.61 45.3799 55.6799 43.9699 55.6699C42.1379 55.6945 40.3193 55.3546 38.6199 54.6699C38.0999 54.4599 38.2099 54.39 38.6999 54.36C38.9499 54.36 39.2899 54.36 39.6999 54.36C40.1625 54.3235 40.6273 54.3235 41.0899 54.36C41.9683 54.425 42.8495 54.445 43.7299 54.4199C44.6199 54.4199 45.5099 54.42 46.3999 54.36L51.8499 54.0099L55.2199 53.77C55.7899 53.77 56.3599 53.7 56.9399 53.68L58.6199 53.63L65.9999 53.2L70.5899 53C72.8899 52.9 75.2099 52.8399 77.4999 52.7099C79.2799 52.6099 81.0199 52.3899 82.7899 52.2799C83.1699 52.2799 83.5599 52.2 83.9499 52.2C85.4099 52.2 85.8799 52.44 86.1799 52.91C86.2523 53.006 86.3191 53.1062 86.3799 53.2099C86.5099 53.4899 85.9099 53.91 84.8699 54.09C81.6447 54.493 78.3999 54.72 75.1499 54.77L67.7299 55H67.7199Z" fill="#231F20"/>
<path d="M36.0002 78.71C35.6663 76.826 35.5322 74.9121 35.6002 73C35.6002 72.31 35.6002 71.62 35.6602 70.93C35.7202 70.24 35.8002 69.71 35.9202 69.09L36.0302 68.61C36.0889 68.3731 36.1693 68.1422 36.2702 67.92C36.3871 67.7129 36.5464 67.5328 36.7376 67.3915C36.9289 67.2502 37.1479 67.1509 37.3802 67.1C38.0125 66.9424 38.6591 66.8486 39.3102 66.82C39.9102 66.82 40.5102 66.75 41.1102 66.73L44.2802 66.64C45.654 66.5335 47.036 66.6552 48.3702 67C48.8802 67.22 48.6002 67.44 48.2202 67.66C47.6959 67.9888 47.0978 68.1814 46.4802 68.22C43.8602 68.33 41.1102 68.39 38.5702 68.65C38.3902 68.65 38.2102 68.71 38.0402 68.74C37.9779 68.7473 37.9172 68.7642 37.8602 68.79C37.7502 68.88 37.7702 68.93 37.6602 69.39C37.5381 70.1852 37.458 70.9863 37.4202 71.79C37.3017 73.5831 37.3385 75.3832 37.5302 77.17C37.5958 77.7012 37.6892 78.2286 37.8102 78.75C37.9802 79.28 38.0302 79.58 38.3602 79.6C38.53 79.6104 38.7003 79.6104 38.8702 79.6H40.8002C41.6502 79.6 42.5102 79.6 43.3502 79.49C44.6702 79.39 45.9602 79.17 47.2502 78.98C47.5302 78.98 47.8102 78.88 48.1002 78.85C49.1602 78.71 49.5102 78.85 49.7902 79.27C49.8554 79.3702 49.9155 79.4736 49.9702 79.58C50.1202 79.94 49.7102 80.3 48.9702 80.5C46.5632 80.9893 44.116 81.2538 41.6602 81.29C40.7202 81.29 39.8002 81.29 38.8102 81.29H38.4202L37.7602 81.17C37.5517 81.1152 37.3561 81.0199 37.1845 80.8895C37.0129 80.7591 36.8687 80.5962 36.7602 80.41C36.5591 80.1209 36.4008 79.8043 36.2902 79.47C36.1979 79.2182 36.1211 78.9611 36.0602 78.7L36.0002 78.71Z" fill="#231F20"/>
<path d="M50.5699 72.22C50.5699 72.73 50.4899 73.22 50.4799 73.78C50.4799 73.97 50.4799 74.15 50.4799 74.34C50.4799 75.01 50.4099 75.7 50.3699 76.34C50.3449 76.6395 50.3449 76.9405 50.3699 77.24C50.4308 77.6338 50.407 78.0361 50.2999 78.42C50.2999 78.55 50.0099 78.5 49.7699 78.42C49.5299 78.34 49.2499 78.16 49.2099 77.95C49.0177 77.206 48.9702 76.4319 49.0699 75.67C49.0972 75.1889 49.0737 74.7062 48.9999 74.23C48.9999 73.71 48.9999 73.23 48.9999 72.65C48.9999 72.32 48.9999 72 48.9999 71.65C48.9999 71.16 48.9999 70.65 48.9999 70.17C48.9999 69.69 48.8699 69.4 48.8299 68.99C48.8152 68.8972 48.8152 68.8027 48.8299 68.71C48.8328 68.6379 48.8522 68.5674 48.8867 68.504C48.9212 68.4406 48.9698 68.386 49.0288 68.3444C49.0878 68.3028 49.1555 68.2754 49.2268 68.2642C49.2981 68.253 49.371 68.2584 49.4399 68.28H49.6799C49.9107 68.354 50.1109 68.5015 50.2499 68.7C50.4132 68.976 50.5027 69.2894 50.5099 69.61C50.5501 69.9418 50.5702 70.2758 50.5699 70.61C50.5699 71.13 50.5699 71.61 50.5699 72.16V72.22Z" fill="#231F20"/>
<path d="M55.9998 78.41C55.661 76.5266 55.5269 74.6122 55.5998 72.7C55.5998 72.01 55.5998 71.32 55.6598 70.63C55.6598 70.19 55.7498 69.74 55.8298 69.29C55.8298 69.07 55.9098 68.84 55.9598 68.61L56.0498 68.24C56.0998 68.07 56.1498 67.9 56.2098 67.73C56.3431 67.4631 56.5393 67.2326 56.7814 67.0584C57.0236 66.8842 57.3044 66.7715 57.5998 66.73C57.9985 66.6421 58.4028 66.582 58.8098 66.55C59.5898 66.47 60.3498 66.44 61.1098 66.42L64.2698 66.33C65.647 66.223 67.0324 66.3446 68.3698 66.69C68.8798 66.91 68.5898 67.13 68.2198 67.35C67.6956 67.6788 67.0975 67.8713 66.4798 67.91C63.8598 68.02 61.1098 68.07 58.5698 68.34C57.9698 68.46 57.8598 68.4 57.7798 68.58L57.7298 68.74C57.7298 68.86 57.7298 68.97 57.6598 69.1C57.5898 69.23 57.5798 69.61 57.5498 69.87C57.4898 70.4 57.4498 70.94 57.4198 71.48C57.2964 73.273 57.3332 75.0735 57.5298 76.86C57.5863 77.3443 57.6698 77.825 57.7798 78.3C57.8354 78.5385 57.909 78.7725 57.9998 79C58.0409 79.131 58.1256 79.2439 58.2398 79.32C58.2897 79.3247 58.3399 79.3247 58.3898 79.32C58.5597 79.3304 58.73 79.3304 58.8998 79.32H60.8098C61.6598 79.32 62.5098 79.32 63.3598 79.2C64.6798 79.11 65.9598 78.89 67.2498 78.7L68.0998 78.56C69.1698 78.43 69.5098 78.56 69.7898 78.99C69.8618 79.0878 69.9253 79.1915 69.9798 79.3C70.1198 79.66 69.7198 80.02 68.9798 80.22C66.5723 80.7054 64.1255 80.9699 61.6698 81.01C61.0598 81.01 60.4498 81.01 59.8198 81.01H58.8198H58.5698C58.4601 81.0212 58.3496 81.0212 58.2398 81.01C57.9482 80.9717 57.6605 80.9081 57.3798 80.82C57.1242 80.6627 56.903 80.4552 56.7298 80.21C56.6294 80.0918 56.5453 79.9606 56.4798 79.82C56.4225 79.7253 56.3756 79.6247 56.3398 79.52C56.2 79.162 56.0863 78.7944 55.9998 78.42V78.41Z" fill="#231F20"/>
<path d="M70.5498 71.92C70.5498 72.43 70.4698 72.92 70.4498 73.47C70.4498 73.66 70.4498 73.85 70.4498 74.04C70.4498 74.71 70.3698 75.4 70.3398 76.04C70.3198 76.3397 70.3198 76.6403 70.3398 76.94C70.404 77.3331 70.3835 77.7354 70.2798 78.12C70.2798 78.25 69.9898 78.2 69.7398 78.12C69.4898 78.04 69.2298 77.86 69.1898 77.65C68.9976 76.906 68.95 76.1319 69.0498 75.37C69.0896 74.8942 69.0896 74.4158 69.0498 73.94C69.0498 73.41 69.0498 72.88 69.0498 72.36C69.0498 72.03 69.0498 71.7 69.0498 71.36C69.0498 70.87 69.0498 70.36 69.0498 69.88C69.0498 69.4 68.9198 69.11 68.8698 68.7C68.865 68.6067 68.865 68.5133 68.8698 68.42C68.8722 68.3467 68.8917 68.275 68.9268 68.2106C68.9618 68.1462 69.0115 68.0909 69.0717 68.0491C69.132 68.0073 69.2011 67.9802 69.2737 67.97C69.3463 67.9597 69.4203 67.9666 69.4898 67.99H69.7298C69.9549 68.0645 70.1508 68.208 70.2898 68.4C70.4502 68.6815 70.5427 68.9965 70.5598 69.32C70.5598 69.65 70.5598 69.98 70.6198 70.32C70.6198 70.83 70.6198 71.32 70.6198 71.86L70.5498 71.92Z" fill="#231F20"/>
<path d="M75.8301 78.11C75.4945 76.2263 75.3637 74.3118 75.4401 72.4C75.4401 71.71 75.4401 71.02 75.4401 70.33C75.4401 69.89 75.5401 69.44 75.6101 68.99C75.6101 68.77 75.6901 68.54 75.7401 68.31L75.8301 67.95C75.8901 67.77 75.9301 67.6 75.9901 67.43C76.1243 67.1618 76.322 66.9305 76.566 66.7563C76.81 66.582 77.0929 66.47 77.3901 66.43C77.7856 66.343 78.1865 66.2829 78.5901 66.25C79.3701 66.17 80.1301 66.14 80.8901 66.12L84.1101 66C85.4839 65.8935 86.8659 66.0152 88.2001 66.36C88.7201 66.58 88.4301 66.8 88.0601 67.02C87.532 67.3485 86.9307 67.5409 86.3101 67.58C83.6901 67.69 80.9501 67.75 78.4001 68.01C77.8001 68.13 77.6901 68.07 77.6101 68.25C77.5301 68.43 77.6101 68.31 77.6101 68.41C77.6101 68.51 77.6101 68.65 77.5301 68.77C77.4501 68.89 77.4501 69.28 77.4201 69.54C77.3601 70.07 77.3301 70.61 77.2901 71.15C77.1766 72.9432 77.2134 74.7428 77.4001 76.53C77.4657 77.0612 77.5591 77.5886 77.6801 78.11C77.8501 78.64 77.9101 78.94 78.2401 78.96C78.4099 78.9708 78.5802 78.9708 78.7501 78.96H80.6501C81.5101 78.96 82.3601 78.91 83.2101 78.85C84.5201 78.75 85.8101 78.53 87.1001 78.34L87.9501 78.2C89.0101 78.07 89.3601 78.2 89.6401 78.63C89.7001 78.74 89.7801 78.84 89.8301 78.94C89.9701 79.3 89.5601 79.66 88.7801 79.86C86.3732 80.3498 83.926 80.6143 81.4701 80.65C80.5301 80.65 79.6101 80.65 78.6201 80.65H78.2301L77.5701 80.53C77.1501 80.4174 76.791 80.1445 76.5701 79.77C76.369 79.4809 76.2107 79.1643 76.1001 78.83C76.0101 78.56 75.9301 78.31 75.8701 78.06L75.8301 78.11Z" fill="#231F20"/>
<path d="M90.3799 71.62C90.3799 72.13 90.3099 72.62 90.2899 73.18C90.2899 73.37 90.2899 73.55 90.2899 73.74C90.2899 74.41 90.2099 75.1 90.1699 75.74C90.1499 76.0397 90.1499 76.3404 90.1699 76.64C90.2357 77.0336 90.2118 77.437 90.0999 77.82C90.0999 77.95 89.8199 77.9 89.5699 77.82C89.3199 77.74 89.0599 77.56 89.0099 77.35C88.821 76.6054 88.7769 75.8313 88.8799 75.07C88.9046 74.5925 88.8846 74.1138 88.8199 73.64C88.8199 73.12 88.8199 72.64 88.8199 72.06C88.8199 71.73 88.8199 71.4 88.8199 71.06C88.8199 70.57 88.8199 70.06 88.8199 69.58C88.8199 69.1 88.6999 68.81 88.6499 68.4C88.6401 68.307 88.6401 68.2131 88.6499 68.12C88.6528 68.0479 88.6722 67.9774 88.7067 67.914C88.7411 67.8506 88.7898 67.796 88.8487 67.7544C88.9077 67.7128 88.9755 67.6854 89.0468 67.6742C89.1181 67.6631 89.191 67.6685 89.2599 67.69H89.4999C89.7293 67.7614 89.9293 67.9053 90.0699 68.1C90.2303 68.3815 90.3228 68.6965 90.3399 69.02C90.3399 69.35 90.3399 69.68 90.3899 70.02C90.3899 70.54 90.3899 71.02 90.3899 71.57L90.3799 71.62Z" fill="#231F20"/>
<path d="M36.49 105.66C36.1558 103.773 36.0218 101.855 36.09 99.9399C36.09 99.2599 36.09 98.5699 36.15 97.8799C36.15 97.4399 36.25 96.9899 36.32 96.5399C36.32 96.3199 36.4 96.0899 36.45 95.8599L36.54 95.4899C36.59 95.3199 36.64 95.1499 36.7 94.9799C36.836 94.7151 37.0329 94.4863 37.2746 94.3125C37.5162 94.1386 37.7957 94.0247 38.09 93.9799C38.49 93.9015 38.8939 93.8448 39.3 93.8099C40.08 93.7299 40.84 93.6999 41.6 93.6799L44.77 93.5899C46.1439 93.4835 47.5259 93.6051 48.86 93.9499C49.37 94.1699 49.09 94.3899 48.71 94.6099C48.1858 94.9388 47.5877 95.1313 46.97 95.1699C44.35 95.2799 41.6 95.3299 39.06 95.5999C38.46 95.7199 38.35 95.6599 38.27 95.8399C38.19 96.0199 38.27 95.8399 38.27 95.9899C38.27 96.1399 38.21 96.2299 38.19 96.3599C38.17 96.4899 38.11 96.8699 38.08 97.1299C38.02 97.6599 37.98 98.1999 37.95 98.7299C37.8315 100.526 37.8683 102.33 38.06 104.12C38.12 104.61 38.21 105.12 38.31 105.56C38.3572 105.779 38.4241 105.993 38.51 106.2C38.547 106.33 38.6284 106.443 38.74 106.52C38.7899 106.525 38.8402 106.525 38.89 106.52C38.96 106.52 39.2 106.52 39.4 106.52H41.31C42.16 106.52 43.02 106.52 43.86 106.4C45.18 106.31 46.47 106.09 47.76 105.9L48.61 105.76C49.67 105.62 50.02 105.76 50.3 106.19C50.3653 106.29 50.4254 106.394 50.48 106.5C50.63 106.85 50.22 107.22 49.48 107.42C47.0724 107.904 44.6256 108.169 42.17 108.21C41.55 108.21 40.94 108.21 40.31 108.21H39.36H39.11C39.0003 108.221 38.8898 108.221 38.78 108.21C38.4924 108.168 38.2082 108.104 37.93 108.02C37.6714 107.863 37.447 107.655 37.27 107.41C37.173 107.289 37.0892 107.158 37.02 107.02C36.95 106.89 36.92 106.81 36.88 106.72C36.7333 106.374 36.6162 106.016 36.53 105.65L36.49 105.66Z" fill="#231F20"/>
<path d="M51.0003 99.17C51.0003 99.68 50.9203 100.17 50.9103 100.72C50.9103 100.91 50.9103 101.1 50.9103 101.29C50.9103 101.96 50.8403 102.65 50.8003 103.29C50.7753 103.589 50.7753 103.891 50.8003 104.19C50.8608 104.584 50.837 104.986 50.7303 105.37C50.7303 105.5 50.4403 105.45 50.2003 105.37C49.9603 105.29 49.6803 105.11 49.6403 104.9C49.448 104.156 49.4005 103.382 49.5003 102.62C49.5286 102.143 49.5119 101.664 49.4503 101.19V98.62C49.4503 98.13 49.4503 97.62 49.4503 97.14C49.4503 96.66 49.3203 96.37 49.2803 95.96C49.2653 95.8673 49.2653 95.7727 49.2803 95.68C49.281 95.6071 49.2991 95.5355 49.333 95.4709C49.3669 95.4064 49.4156 95.3509 49.4752 95.3089C49.5348 95.2669 49.6035 95.2396 49.6756 95.2294C49.7478 95.2192 49.8214 95.2262 49.8903 95.25H50.1303C50.3569 95.3213 50.5538 95.4655 50.6903 95.66C50.8595 95.9376 50.9527 96.2549 50.9603 96.58C51.0005 96.9118 51.0205 97.2458 51.0203 97.58C51.0203 98.09 51.0203 98.58 51.0203 99.12L51.0003 99.17Z" fill="#231F20"/>
<path d="M56.4701 105.36C56.1312 103.473 55.9971 101.555 56.0701 99.6399C56.0701 98.9599 56.0701 98.2699 56.1301 97.5799C56.1301 97.1399 56.2201 96.6899 56.3001 96.2399C56.3001 96.0199 56.3801 95.7899 56.4301 95.5599L56.5201 95.1899L56.6701 94.6799C56.8096 94.4158 57.0087 94.1879 57.2518 94.0143C57.4948 93.8408 57.775 93.7262 58.0701 93.6799C58.4901 93.5899 58.8801 93.5499 59.2801 93.4999C60.0601 93.4299 60.8201 93.3999 61.5801 93.3799L64.7401 93.2799C66.1177 93.1814 67.5023 93.3064 68.8401 93.6499C69.3501 93.8599 69.0601 94.0899 68.6901 94.3099C68.1658 94.6388 67.5677 94.8313 66.9501 94.8699C64.3301 94.9799 61.5801 95.0299 59.0401 95.2999C58.4401 95.4199 58.3301 95.2999 58.2501 95.5399C58.247 95.5899 58.247 95.64 58.2501 95.6899C58.2501 95.8099 58.2001 95.9299 58.1801 96.0599C58.1601 96.1899 58.1001 96.5699 58.0701 96.8299C58.0101 97.3599 57.9701 97.8999 57.9401 98.4299C57.8165 100.226 57.8533 102.03 58.0501 103.82C58.1065 104.304 58.19 104.785 58.3001 105.26C58.3486 105.477 58.4121 105.691 58.4901 105.9C58.5284 106.03 58.614 106.14 58.7301 106.21C58.7797 106.219 58.8305 106.219 58.8801 106.21C59.0499 106.219 59.2202 106.219 59.3901 106.21H60.0201H61.3001C62.1501 106.21 63.0001 106.16 63.8501 106.09C65.1701 106 66.4501 105.78 67.7401 105.59L68.5901 105.45C69.6601 105.31 70.0001 105.45 70.2801 105.88C70.3541 105.976 70.4178 106.08 70.4701 106.19C70.6101 106.54 70.2101 106.9 69.4701 107.1C67.0636 107.594 64.6163 107.862 62.1601 107.9C61.5501 107.9 60.9401 107.9 60.3101 107.9H59.3101L59.0001 108C58.8903 108.011 58.7798 108.011 58.6701 108C58.3793 107.957 58.0919 107.893 57.8101 107.81C57.5544 107.653 57.3333 107.445 57.1601 107.2C57.0619 107.08 56.978 106.949 56.9101 106.81C56.8538 106.71 56.8037 106.606 56.7601 106.5C56.6209 106.154 56.504 105.8 56.4101 105.44L56.4701 105.36Z" fill="#231F20"/>
<path d="M71 98.8699C71 99.3799 70.92 99.8699 70.9 100.42C70.9 100.61 70.9 100.8 70.9 100.99L70.79 102.99C70.77 103.29 70.77 103.59 70.79 103.89C70.8542 104.283 70.8337 104.685 70.73 105.07C70.73 105.2 70.44 105.15 70.19 105.07C69.94 104.99 69.68 104.81 69.64 104.6C69.4465 103.853 69.3989 103.075 69.5 102.31C69.5233 101.836 69.5066 101.361 69.45 100.89C69.45 100.36 69.45 99.8299 69.45 99.3099C69.45 98.9799 69.45 98.6499 69.45 98.3099C69.45 97.8099 69.45 97.3099 69.45 96.8199C69.45 96.3299 69.32 96.0599 69.27 95.6499C69.2648 95.5567 69.2648 95.4632 69.27 95.3699C69.2724 95.2967 69.2919 95.225 69.327 95.1606C69.362 95.0962 69.4116 95.0409 69.4719 94.9991C69.5321 94.9573 69.6013 94.9302 69.6739 94.9199C69.7465 94.9096 69.8205 94.9165 69.89 94.9399H70.13C70.357 95.0106 70.5541 95.1549 70.69 95.3499C70.8504 95.6314 70.9429 95.9464 70.96 96.2699C70.96 96.5999 70.96 96.9299 71.02 97.2699C71.02 97.7799 71.02 98.2699 71.02 98.8099L71 98.8699Z" fill="#231F20"/>
<path d="M76.3 105.06C75.964 103.173 75.8332 101.255 75.91 99.34C75.91 98.66 75.91 97.97 75.91 97.28C75.91 96.84 76.01 96.39 76.08 95.94C76.08 95.72 76.16 95.49 76.21 95.26L76.3 94.89C76.36 94.72 76.4 94.55 76.46 94.38C76.5969 94.1139 76.7954 93.8843 77.0389 93.7104C77.2824 93.5365 77.5639 93.4232 77.86 93.38C78.2565 93.3009 78.6571 93.2441 79.06 93.21C79.84 93.13 80.6 93.1 81.36 93.08L84.58 93C85.9538 92.8935 87.3358 93.0152 88.67 93.36C89.18 93.58 88.9 93.8 88.53 94.02C88.0019 94.3485 87.4007 94.5409 86.78 94.58C84.16 94.69 81.42 94.74 78.87 95.01C78.27 95.13 78.16 95.01 78.08 95.25C78 95.49 78.08 95.3 78.08 95.4C78.08 95.5 78.03 95.64 78 95.77C77.97 95.9 77.92 96.28 77.89 96.54C77.83 97.07 77.8 97.61 77.76 98.14C77.6464 99.9366 77.6832 101.739 77.87 103.53C77.93 104.02 78.02 104.53 78.12 104.97C78.1671 105.189 78.2341 105.403 78.32 105.61C78.357 105.74 78.4383 105.853 78.55 105.93C78.6032 105.936 78.6568 105.936 78.71 105.93C78.8798 105.939 79.0501 105.939 79.22 105.93H79.85H81.12C81.98 105.93 82.83 105.93 83.68 105.81C84.99 105.72 86.28 105.5 87.57 105.31L88.42 105.17C89.48 105.03 89.83 105.17 90.11 105.6C90.17 105.71 90.25 105.81 90.3 105.91C90.44 106.26 90.03 106.62 89.25 106.83C86.8424 107.315 84.3956 107.579 81.94 107.62C81.33 107.62 80.71 107.62 80.09 107.62H79.09H78.84C78.7336 107.631 78.6264 107.631 78.52 107.62C78.229 107.578 77.9416 107.514 77.66 107.43C77.4034 107.27 77.1794 107.063 77 106.82C76.9086 106.695 76.8252 106.565 76.75 106.43C76.69 106.3 76.65 106.22 76.61 106.12C76.4664 105.776 76.3493 105.422 76.26 105.06H76.3Z" fill="#231F20"/>
<path d="M90.8498 98.57C90.8498 99.08 90.7798 99.57 90.7598 100.12C90.7598 100.31 90.7598 100.5 90.7598 100.69C90.7598 101.36 90.6798 102.05 90.6398 102.69C90.6198 102.99 90.6198 103.29 90.6398 103.59C90.7053 103.984 90.6813 104.387 90.5698 104.77C90.5698 104.9 90.2898 104.85 90.0398 104.77C89.7898 104.69 89.5298 104.51 89.4798 104.3C89.2909 103.555 89.2468 102.781 89.3498 102.02C89.3748 101.543 89.3547 101.064 89.2898 100.59C89.2898 100.06 89.2898 99.53 89.2898 99.01C89.2898 98.68 89.2898 98.35 89.2898 98.01C89.2898 97.52 89.2898 97.01 89.2898 96.53C89.2898 96.05 89.1698 95.76 89.1198 95.35C89.1098 95.257 89.1098 95.1631 89.1198 95.07C89.1206 94.9971 89.1386 94.9255 89.1725 94.861C89.2064 94.7964 89.2552 94.7409 89.3147 94.6989C89.3743 94.6569 89.443 94.6297 89.5152 94.6194C89.5873 94.6092 89.6609 94.6162 89.7298 94.64H89.9698C90.1992 94.7114 90.3992 94.8553 90.5398 95.05C90.7002 95.3315 90.7927 95.6465 90.8098 95.97C90.8098 96.3 90.8098 96.63 90.8598 96.97C90.8598 97.48 90.8598 97.97 90.8598 98.51L90.8498 98.57Z" fill="#231F20"/>
<path d="M42.2802 43.5699C42.3702 43.4499 42.4302 43.2999 42.5902 43.2399C42.6972 43.1332 42.8394 43.0692 42.9902 43.0599C43.3223 43.0188 43.6582 43.0188 43.9902 43.0599L45.0902 43.1399C45.8202 43.1399 46.5402 43.2399 47.2402 43.2599C47.4802 43.2599 47.7102 43.2599 47.9302 43.2599H48.2602C48.3067 43.2218 48.3385 43.1688 48.3502 43.1099C48.3502 43.1099 48.3502 42.9899 48.3502 42.8899V42.5699C48.3753 42.127 48.3753 41.6829 48.3502 41.2399C48.3498 40.3221 48.2322 39.408 48.0002 38.5199C47.9722 38.414 47.9284 38.3128 47.8702 38.2199C47.8484 38.1791 47.8148 38.1458 47.7738 38.1244C47.7327 38.103 47.6862 38.0945 47.6402 38.0999H47.1002H46.4402C45.3872 38.2083 44.3271 38.2317 43.2702 38.1699C42.6002 38.0899 43.3802 36.6199 44.6202 36.5599C45.1402 36.5599 45.6202 36.5599 46.1902 36.5599H47.4002H48.0302C48.2921 36.6032 48.5384 36.7134 48.7451 36.8798C48.9519 37.0463 49.1121 37.2633 49.2102 37.5099C49.3023 37.6991 49.3759 37.8967 49.4302 38.0999C49.4302 38.2699 49.5202 38.4199 49.5502 38.5699C49.67 39.1662 49.7369 39.7719 49.7502 40.3799C49.7502 40.9799 49.7502 41.5899 49.7502 42.2199C49.7571 42.5543 49.737 42.8888 49.6902 43.2199C49.6865 43.4598 49.6234 43.6949 49.5064 43.9044C49.3895 44.1138 49.2225 44.2909 49.0202 44.4199C48.7751 44.5104 48.5199 44.5708 48.2602 44.5999C47.4844 44.6506 46.7061 44.6506 45.9302 44.5999L43.8002 44.4499C43.6974 44.4349 43.593 44.4349 43.4902 44.4499C43.43 44.5369 43.389 44.6358 43.3702 44.7399C43.3331 44.9182 43.3063 45.0985 43.2902 45.2799C43.2902 45.4899 43.2902 45.7099 43.2902 45.9199C43.2546 46.5713 43.2847 47.2246 43.3802 47.8699C43.4902 48.4799 43.7302 49.1399 44.0802 49.2199H44.2502C45.1702 49.2199 46.1302 49.0899 47.0702 49.0299H47.7502C48.6002 49.0299 48.8402 49.0299 49.0502 49.4599C49.1002 49.5499 49.1602 49.6299 49.2002 49.7099C49.3702 49.9999 48.9402 50.3299 48.3102 50.4199C46.9514 50.6099 45.5821 50.7168 44.2102 50.7399C43.925 50.7293 43.6454 50.6578 43.3901 50.5302C43.1348 50.4025 42.9098 50.2217 42.7302 49.9999C42.4604 49.6625 42.2599 49.2751 42.1402 48.8599C41.9076 48.0577 41.7964 47.2251 41.8102 46.3899C41.8102 45.9899 41.8302 45.5899 41.8702 45.1899C41.8702 44.9599 41.8702 44.8399 41.9502 44.5199C41.9977 44.173 42.0989 43.8357 42.2502 43.5199L42.2802 43.5699Z" fill="#231F20"/>
<path d="M55.3998 48.89C56.0298 48.89 56.6598 48.89 57.2898 48.8L58.1298 48.7C58.1898 48.7 58.2798 48.7 58.2798 48.62V48.47C58.2798 48.47 58.2798 48.37 58.2798 48.24L58.3598 47.59C58.4298 46.97 58.4298 46.34 58.4598 45.72C58.5709 43.499 58.4401 41.2726 58.0698 39.08C58.0186 38.812 57.9485 38.548 57.8598 38.29C57.8505 38.2495 57.8294 38.2126 57.7991 38.1842C57.7689 38.1557 57.7308 38.1368 57.6898 38.13L57.3898 38.07C57.0817 38.0264 56.771 38.003 56.4598 38C55.8479 37.9865 55.2358 38.0233 54.6298 38.11L53.7698 38.25C53.5611 38.2944 53.3569 38.358 53.1598 38.44C53.0741 38.393 52.9776 38.3689 52.8798 38.37C52.7398 38.37 52.5398 38.24 52.5498 37.91C52.6452 37.5358 52.8541 37.2004 53.1477 36.9498C53.4414 36.6991 53.8054 36.5455 54.1898 36.51C54.9384 36.4056 55.6954 36.3754 56.4498 36.42C56.8352 36.4367 57.2193 36.4768 57.5998 36.54C57.7149 36.5589 57.8284 36.5856 57.9398 36.62L58.4298 36.77C58.5679 36.8552 58.6984 36.9522 58.8198 37.06C58.8798 37.06 58.8998 37.2 58.9998 37.21L59.1398 37.41C59.3007 37.8095 59.418 38.2253 59.4898 38.65C59.5598 38.98 59.6098 39.3 59.6498 39.65C59.7298 40.29 59.7698 40.93 59.7998 41.57C59.8498 43.19 59.9898 44.86 59.8998 46.57C59.8998 47.01 59.8398 47.44 59.7898 47.87L59.7098 48.53L59.5798 49.37C59.4998 49.52 59.4898 49.71 59.3598 49.82C59.256 49.9079 59.1325 49.9696 58.9998 50C58.8221 50.0495 58.6418 50.0895 58.4598 50.12L58.0698 50.18C57.5898 50.24 57.0698 50.28 56.6498 50.31C56.2298 50.34 55.5498 50.37 54.9998 50.31C54.7167 50.3247 54.433 50.3247 54.1498 50.31C53.7982 50.2865 53.4563 50.184 53.1498 50.01L52.9998 49.93C52.8191 49.6986 52.6865 49.4334 52.6098 49.15C52.5499 48.9364 52.5032 48.7193 52.4698 48.5C52.3898 48.07 52.3398 47.65 52.2898 47.23C52.1998 46.39 52.1398 45.56 52.0798 44.73C51.9998 43.44 51.8698 42.18 51.8398 40.89C51.8398 40.61 51.8398 40.33 51.8398 40.04C51.8398 38.97 52.0398 38.63 52.4598 38.46C52.553 38.4146 52.6501 38.3778 52.7498 38.35C53.0698 38.35 53.2498 38.74 53.2798 39.48C53.3898 41.68 53.4898 44.04 53.6998 46.35C53.6998 46.88 53.8198 47.35 53.8898 47.91C53.9398 48.15 53.9798 48.42 54.0398 48.62V48.78H54.3998C54.6998 48.78 55.0198 48.78 55.3398 48.78L55.3998 48.89Z" fill="#231F20"/>
<path d="M71.7399 42.7199L70.2999 44.3799C70.1199 44.5799 69.9799 44.8099 69.7999 45.0099L67.9099 47.1399C67.636 47.4596 67.379 47.7934 67.1399 48.1399C66.8561 48.6021 66.4979 49.0143 66.0799 49.3599C65.9399 49.4599 65.7599 49.2799 65.6499 49.0099C65.583 48.8676 65.5483 48.7122 65.5483 48.5549C65.5483 48.3976 65.583 48.2423 65.6499 48.0999C66.2743 47.1997 66.977 46.3564 67.7499 45.5799C68.2199 45.1099 68.5799 44.5799 69.0199 44.0099L70.4599 42.2999L71.3599 41.2999C71.8099 40.7799 72.2899 40.2999 72.7199 39.7299C73.1499 39.1599 73.3499 38.8599 73.7199 38.4299C73.7784 38.3285 73.8489 38.2345 73.9299 38.1499C74.2199 37.8199 74.4199 37.8099 74.6999 37.9499L74.8899 38.0499C74.9798 38.1408 75.0365 38.2591 75.051 38.3861C75.0655 38.513 75.037 38.6412 74.9699 38.7499C74.4935 39.5948 73.9232 40.3831 73.2699 41.0999L71.8399 42.7799L71.7399 42.7199Z" fill="#231F20"/>
<path d="M69.2102 39.63C69.2087 39.9381 69.1118 40.2382 68.9327 40.4889C68.7536 40.7396 68.5012 40.9287 68.2102 41.03C68.0553 41.095 67.8945 41.1452 67.7302 41.18C67.5062 41.2149 67.2772 41.2005 67.0593 41.1379C66.8414 41.0753 66.6397 40.966 66.4684 40.8175C66.297 40.669 66.1601 40.4849 66.0672 40.2781C65.9742 40.0713 65.9275 39.8467 65.9302 39.62C65.9173 39.4441 65.9557 39.2682 66.041 39.1137C66.1262 38.9592 66.2545 38.8329 66.4102 38.75C66.5002 38.75 66.6402 38.92 66.7602 39.14C66.8549 39.2868 66.9385 39.4406 67.0102 39.6C66.9932 39.6749 66.9915 39.7526 67.0052 39.8282C67.019 39.9038 67.0479 39.9758 67.0902 40.04C67.1802 40.18 67.3602 40.14 67.5602 40.04C67.7602 39.94 67.9502 39.89 68.0002 39.77C68.0221 39.7284 68.0335 39.682 68.0335 39.635C68.0335 39.588 68.0221 39.5416 68.0002 39.5C67.9202 39.35 67.8302 39.3 67.7002 39.39C67.5702 39.48 67.5502 39.67 67.5002 39.85C67.4502 40.03 67.5002 39.94 67.5002 39.98C67.5002 40.02 67.3602 40.15 67.0302 40.08H66.8102C66.5702 40.02 66.4002 39.87 66.4002 39.68C66.3877 39.3644 66.4752 39.053 66.6502 38.79C66.7796 38.5858 66.9605 38.4192 67.1746 38.3069C67.3887 38.1945 67.6286 38.1405 67.8702 38.15C68.0643 38.1651 68.2532 38.2199 68.4253 38.3111C68.5973 38.4022 68.7487 38.5278 68.8702 38.68C69.1007 38.9619 69.2246 39.3159 69.2202 39.68L69.2102 39.63Z" fill="#231F20"/>
<path d="M75.4098 46.66C75.3676 47.0201 75.1929 47.3516 74.9198 47.59C74.7149 47.7797 74.4628 47.911 74.1898 47.97C74.0199 48.0315 73.8404 48.0619 73.6598 48.06C73.469 48.0535 73.2816 48.0075 73.1094 47.9249C72.9373 47.8423 72.7842 47.7248 72.6598 47.58C72.4574 47.322 72.3609 46.9966 72.3898 46.67C72.3973 46.4249 72.4411 46.1823 72.5198 45.95C72.5523 45.792 72.6287 45.6463 72.7401 45.5296C72.8515 45.4129 72.9935 45.3298 73.1498 45.29C73.2498 45.29 73.3598 45.54 73.4598 45.81C73.5598 46.08 73.7098 46.32 73.7098 46.35C73.7098 46.38 73.7098 46.61 73.5498 46.67C73.3898 46.73 73.5498 46.67 73.6098 46.67L73.9398 46.61C73.9497 46.5952 73.955 46.5778 73.955 46.56C73.955 46.5422 73.9497 46.5248 73.9398 46.51C73.9171 46.4465 73.8722 46.3933 73.8134 46.3602C73.7546 46.3272 73.6859 46.3164 73.6198 46.33C73.4798 46.33 73.3698 46.48 73.2498 46.59L73.1798 46.66C73.0698 46.74 72.9798 46.66 72.7498 46.38L72.5898 46.18C72.505 46.1018 72.4454 46.0001 72.4187 45.8879C72.392 45.7757 72.3993 45.658 72.4398 45.55C72.629 45.2441 72.9245 45.0187 73.2696 44.9172C73.6147 44.8157 73.9851 44.8452 74.3098 45C74.6561 45.1176 74.9543 45.3457 75.1584 45.6492C75.3626 45.9527 75.4614 46.3149 75.4398 46.68L75.4098 46.66Z" fill="#231F20"/>
<path d="M22.5599 86.93C22.3266 82.85 22.1332 78.7667 21.9799 74.68C21.9199 73.19 21.7599 71.68 21.7299 70.22C21.5899 64.96 21.5099 59.7 21.5899 54.44C21.5899 52.11 21.5899 49.76 21.5899 47.44C21.5899 45.95 21.5899 44.44 21.6699 42.96C21.7836 41.4608 21.9974 39.9708 22.3099 38.5C22.4999 37.58 22.8699 37.76 23.2599 38.58C23.8171 39.8435 24.1326 41.2003 24.1899 42.58C24.0699 48.58 24.2499 54.58 24.1899 60.64C24.1299 64.29 24.4899 68.06 24.6799 71.78C24.8932 75.8467 25.1299 79.92 25.3899 84C25.5799 86.52 25.7299 89 25.9499 91.55C26.2799 95.35 26.5899 99.18 27.0699 102.94C27.4499 105.86 28.0699 108.7 28.5999 111.55C28.7299 112.17 28.8899 112.78 28.9999 113.41C29.1945 114.221 29.2687 115.057 29.2199 115.89C29.1991 116.12 29.1274 116.342 29.0099 116.54C28.8833 116.739 28.7394 116.926 28.5799 117.1C28.4199 117.27 28.2899 117.5 28.1399 117.65C27.9899 117.8 27.5699 117.86 27.1399 117.44C26.8993 117.182 26.7003 116.889 26.5499 116.57C26.3726 116.201 26.2222 115.82 26.0999 115.43C24.7487 110.13 23.8587 104.723 23.4399 99.27C23.0299 95.17 22.7499 91.05 22.4399 86.93H22.5599Z" fill="#231F20"/>
</svg>
