<svg width="128" height="128" viewBox="0 0 128 128" fill="none" xmlns="http://www.w3.org/2000/svg">
<path d="M41.1601 69.6101C43.2126 71.2856 44.76 73.4976 45.6301 76.0001C45.9635 76.8967 46.1884 77.83 46.3001 78.7801C46.3968 79.6199 46.4135 80.4671 46.3501 81.3101L46.1301 82.5601C46.0601 82.9801 45.9101 83.3701 45.8001 83.7801C45.2351 85.3494 44.3535 86.7858 43.2101 88.0001C42.1968 89.0749 41.0145 89.9768 39.7101 90.6701C38.0624 91.5901 36.2166 92.0979 34.3301 92.1501C33.7501 92.1501 33.8301 92.0001 34.3301 91.8001C35.0701 91.4937 35.8282 91.2332 36.6001 91.0201C38.3498 90.5694 39.9793 89.7404 41.3737 88.5914C42.7681 87.4423 43.8933 86.0014 44.6701 84.3701C45.0998 83.3579 45.3697 82.2851 45.4701 81.1901C45.5287 80.0735 45.4413 78.9541 45.2101 77.8601C44.6915 75.4357 43.4992 73.2069 41.7701 71.4301C40.7158 70.324 39.4688 69.4192 38.0901 68.7601C37.0397 68.2799 35.9186 67.9726 34.7701 67.8501C34.4801 67.8501 34.1901 67.7801 33.9101 67.7801H33.0401C32.4588 67.7973 31.88 67.8642 31.3101 67.9801C29.5461 68.2813 27.8518 68.9014 26.3101 69.8101L25.3101 70.4301C24.7001 70.8301 24.3101 71.1101 24.0001 71.2801C23.7812 71.3932 23.5444 71.4676 23.3001 71.5001C23.217 71.5089 23.1332 71.5089 23.0501 71.5001C22.8601 71.5001 23.2201 70.9701 24.0501 70.2801C25.3847 69.2194 26.8802 68.3788 28.4801 67.7901C29.3083 67.5016 30.1575 67.2776 31.0201 67.1201C31.4501 67.0301 31.8801 66.9701 32.3201 66.9101L33.6701 66.8401C36.3793 66.8615 39.0015 67.799 41.1101 69.5001L41.1601 69.6101Z" fill="#231F20"/>
<path d="M101.46 93.6901C100.299 93.6663 99.1416 93.5459 98.0002 93.3301C97.4302 93.2301 96.8602 93.1101 96.3002 92.9701C96.0202 92.9034 95.7402 92.8234 95.4602 92.7301L95.1302 92.6101C95.1006 92.6169 95.0698 92.6169 95.0402 92.6101C95.0227 92.9432 95.0227 93.277 95.0402 93.6101C95.0402 94.0301 95.1302 94.4401 95.2102 94.8601C95.6902 97.8601 96.4202 100.86 96.9902 103.86C97.2402 105.2 97.5002 106.55 97.7102 107.86C98.02 109.582 98.1606 111.331 98.1302 113.08C98.1302 113.62 98.1302 113.55 97.9902 113.08C97.8502 112.61 97.8602 112.45 97.8002 112.14C97.7402 111.83 97.5702 111.31 97.5202 110.81C97.0702 107.32 96.3302 103.86 95.6602 100.35C95.2702 98.2401 94.7102 96.0801 94.4702 93.8701C94.4702 93.6101 94.4702 93.3401 94.4702 93.0701V92.6601V92.0401C94.5602 92.0401 94.7202 91.9401 94.7502 91.9801H94.8702C94.8702 91.9801 94.8702 91.9801 94.9502 91.9801L95.0302 91.9001C95.0302 91.8001 95.1802 91.9001 95.2602 91.9001L95.4402 91.9701C95.6502 92.0301 95.8502 92.1001 96.0602 92.1501C96.4802 92.2701 96.9002 92.3601 97.3202 92.4501C98.1766 92.6181 99.0411 92.7416 99.9102 92.8201C101.361 92.9891 102.831 92.9215 104.26 92.6201C106.445 92.2124 108.502 91.2903 110.26 89.9301C110.907 89.4403 111.492 88.8727 112 88.2401C112.474 87.5599 112.864 86.8245 113.16 86.0501C113.295 85.7233 113.412 85.3895 113.51 85.0501C113.87 83.7301 113.94 83.3001 114.2 83.0501C114.26 82.9901 114.32 82.9101 114.37 82.8701C114.42 82.8301 114.62 83.3501 114.43 84.4001C114.139 86.0331 113.463 87.5736 112.46 88.8949C111.457 90.2161 110.155 91.2803 108.66 92.0001C107.547 92.5616 106.373 92.9912 105.16 93.2801C103.953 93.5933 102.707 93.738 101.46 93.7101V93.6901Z" fill="#231F20"/>
<path d="M44.4101 120.54C34.2401 122.97 16.6301 121.54 14.1501 119.45C11.3301 117 22.2701 115 22.2701 115C22.764 116.539 23.7323 117.883 25.0363 118.839C26.3404 119.794 27.9134 120.313 29.5301 120.32C35.4401 120.54 44.4101 120.54 44.4101 120.54Z" fill="#231F20"/>
<path d="M90.3 119.91C83.78 121.37 65.54 123.32 61.67 119.85C59.24 117.67 72.9 115.85 72.9 115.85C72.9 115.85 70.32 118.11 70.77 118.63C71.22 119.15 90.3 119.91 90.3 119.91Z" fill="#231F20"/>
<path d="M57.3901 25.36C55.2403 25.6928 53.2498 26.6939 51.7008 28.2213C50.1518 29.7488 49.123 31.7251 48.7601 33.87C48.5104 35.4754 48.5613 37.1132 48.9101 38.7C49.1619 39.8823 49.5269 41.0377 50.0001 42.15C50.2401 42.71 50.5101 43.26 50.7801 43.8L51.0001 44.21C51.1001 44.4 51.2601 44.67 51.4001 44.89C51.7101 45.35 52.0001 45.81 52.3401 46.26L52.8001 47.15V47.76V47.99C52.8001 48.05 52.7401 48.19 52.6601 48.23C52.4952 48.3524 52.3133 48.4501 52.1201 48.52C51.8629 48.6181 51.5939 48.682 51.3201 48.71C50.9672 48.7353 50.613 48.7353 50.2601 48.71C49.5201 48.71 48.6901 48.61 48.0501 48.54C46.2001 48.32 44.3501 48.15 42.5001 48.01C39.7101 47.8 36.9001 47.69 34.1401 47.69C32.3701 47.69 30.5901 47.77 28.8401 47.93C27.9601 48 27.0901 48.07 26.2401 48.21C25.816 48.2754 25.3955 48.3622 24.9801 48.47C24.5617 48.5361 24.1524 48.6502 23.7601 48.81C23.3001 49.04 23.1401 49.2 23.1001 49.15C23.0601 49.1 23.1701 48.84 23.5101 48.47C23.9914 47.9404 24.5681 47.5062 25.2101 47.19C26.0942 46.7586 27.0328 46.4491 28.0001 46.27C31.6828 45.7905 35.3985 45.6133 39.1101 45.74C40.9601 45.74 42.8001 45.85 44.6301 45.96C45.5501 46.02 46.4701 46.07 47.3901 46.11H48.0701H48.2401H48.2901H48.3601L48.7101 46.19C48.8918 46.2244 49.0784 46.2244 49.2601 46.19L48.9901 45.79C48.9356 45.6803 48.8755 45.5735 48.8101 45.47L48.5601 45.04L48.2401 44.47C47.8337 43.6986 47.4731 42.9038 47.1601 42.09C46.5254 40.4769 46.1344 38.7783 46.0001 37.05C45.9217 35.7093 46.0225 34.364 46.3001 33.05C46.4496 32.3942 46.6332 31.7467 46.8501 31.11C47.0932 30.4724 47.384 29.8539 47.7201 29.26C49.089 26.9239 51.1412 25.0636 53.6001 23.93C55.0904 23.2651 56.6833 22.8593 58.3101 22.73C59.9061 22.56 61.5179 22.6105 63.1001 22.88C65.5271 23.2873 67.8056 24.3215 69.7101 25.88C71.6093 27.4827 72.9908 29.6124 73.6801 32C74.6936 35.6391 74.4541 39.5134 73.0001 43C72.7086 43.7614 72.3747 44.5059 72.0001 45.23C71.4822 46.1707 70.8285 47.0299 70.0601 47.78C69.6844 48.1553 69.2028 48.4066 68.6801 48.5C68.4901 48.5 68.2901 48.61 68.1601 48.62C67.7601 48.62 68.0801 47.39 68.9401 45.54C69.5501 44.15 70.1801 42.78 70.6501 41.37C71.1236 39.956 71.416 38.4876 71.5201 37C71.8591 34.1484 71.0696 31.2773 69.3201 29C67.9472 27.341 66.0852 26.158 64.0001 25.62C61.8385 25.0428 59.5726 24.9743 57.3801 25.42L57.3901 25.36Z" fill="#231F20"/>
<path d="M98.1803 50.28C98.1857 50.2067 98.2062 50.1352 98.2403 50.07V50.01C98.2403 50.01 98.2403 49.93 98.2403 49.91L98.1203 49.83L97.3103 49.54C96.2007 49.1597 95.0685 48.8491 93.9203 48.61C93.0703 48.45 92.2103 48.35 91.3503 48.23C88.2939 47.7576 85.2024 47.5501 82.1103 47.61C80.7338 47.6591 79.3614 47.7893 78.0003 48C76.2603 48.23 74.5703 48.68 72.8203 48.82C72.2703 48.82 72.2302 48.51 72.5902 48C72.8149 47.6799 73.0843 47.3937 73.3903 47.15C73.7783 46.8472 74.2294 46.6354 74.7103 46.53C78.3446 45.6776 82.0924 45.4142 85.8103 45.75C88.0303 45.94 90.3503 45.97 92.6103 46.31C93.8503 46.51 95.0903 46.74 96.3203 47.06C96.9303 47.23 97.5503 47.39 98.1503 47.61L98.6103 47.77L98.8303 47.85L99.1403 47.98C99.5482 48.1628 99.9396 48.3803 100.31 48.63C100.397 48.8547 100.467 49.0853 100.52 49.32C100.529 49.5995 100.499 49.8789 100.43 50.15L100.15 51.4L99.6603 53.61C99.1803 55.85 98.6603 58.09 98.4203 60.33C98.2217 62.0493 98.1315 63.7794 98.1503 65.51V66.63C98.1503 68.02 98.1503 68.45 97.6203 68.8C97.5176 68.8897 97.4072 68.97 97.2903 69.04C96.9203 69.23 96.5103 68.66 96.2903 67.56C95.958 64.2484 96.0859 60.9066 96.6703 57.63C97.0403 55.17 97.5503 52.72 98.0303 50.32L98.1803 50.28Z" fill="#231F20"/>
<path d="M29.3503 67.8301C31.6676 67.2203 34.1031 67.2203 36.4203 67.8301C38.7374 68.5149 40.8049 69.8596 42.3703 71.7001C43.5296 72.9971 44.4231 74.509 45.0003 76.1501C45.475 77.5876 45.695 79.0969 45.6504 80.6101C45.5792 82.117 45.2546 83.6011 44.6903 85.0001C43.5162 87.7375 41.4463 89.9943 38.8203 91.4001C36.5543 92.6224 34.0148 93.2487 31.4403 93.2201C28.126 93.2546 24.933 91.9746 22.5603 89.6601C21.8303 88.9601 22.2203 88.7801 23.1303 88.9401C23.6003 89.0001 24.1303 89.2201 24.8203 89.3801C25.5406 89.5782 26.2485 89.8186 26.9403 90.1001C29.5822 91.2021 32.5213 91.368 35.2703 90.5701C36.6272 90.1483 37.9071 89.5101 39.0604 88.6801C40.1868 87.8141 41.1574 86.7623 41.9303 85.5701C42.7653 84.0232 43.2025 82.2929 43.2025 80.5351C43.2025 78.7772 42.7653 77.047 41.9303 75.5001C41.0421 73.7692 39.7056 72.3084 38.0604 71.2701C36.3778 70.269 34.4352 69.7921 32.4803 69.9001C29.9835 70.0616 27.5543 70.7791 25.3703 72.0001C24.9404 72.2301 24.5303 72.4701 24.1103 72.7201L23.3103 73.2301L22.4103 73.8601L21.7703 74.1901C21.6092 74.2547 21.4416 74.3016 21.2703 74.3301C20.9503 74.3301 20.7603 73.9901 20.6203 73.5901C20.4755 73.1049 20.3849 72.6052 20.3503 72.1001L20.2303 70.6401C20.1203 69.1301 20.0403 67.6401 19.9703 66.1301C19.8203 63.0401 19.6303 60.0001 19.7103 56.9001C19.7103 56.2201 19.7103 55.5501 19.8003 54.9001C19.8356 53.9706 20.0179 53.0526 20.3403 52.1801C20.5294 51.7584 20.8483 51.408 21.2503 51.1801C21.3899 51.0895 21.5413 51.0188 21.7003 50.9701C21.9203 50.9701 21.9903 51.1701 22.0303 51.6201C22.0911 52.2854 22.0911 52.9548 22.0303 53.6201C21.8503 56.2301 21.9203 59.0001 22.0303 61.8001C22.1403 64.6001 22.2903 67.4401 22.5303 70.2701V70.8901C22.5303 70.8901 22.5303 70.8901 22.5803 70.8901L22.8003 70.7501L23.2603 70.4701C23.8803 70.1001 24.5003 69.7401 25.1603 69.4701C26.4775 68.82 27.8581 68.3073 29.2803 67.9401L29.3503 67.8301Z" fill="#231F20"/>
<path d="M50.7 117.89V117.83L50.56 117.53C50.36 117.11 50.2 116.68 50.03 116.26C49.6998 115.396 49.4292 114.511 49.22 113.61C48.7902 111.779 48.6886 109.886 48.92 108.02C49.1788 106.142 49.821 104.338 50.8068 102.719C51.7925 101.101 53.1007 99.7018 54.65 98.61C55.8001 97.7944 57.0872 97.1916 58.45 96.83C59.7771 96.4555 61.1511 96.2736 62.53 96.29C64.9783 96.3183 67.3731 97.0095 69.46 98.29C71.5564 99.5856 73.1718 101.531 74.06 103.83C74.9063 106.061 75.2478 108.451 75.06 110.83C74.9863 112.01 74.7646 113.176 74.4 114.3C74.2131 114.866 73.9858 115.417 73.72 115.95C73.5926 116.222 73.449 116.485 73.29 116.74L73.05 117.12C72.98 117.22 72.86 117.42 72.84 117.44L72.62 117.71C72.5524 117.798 72.4789 117.882 72.4 117.96C72.34 118.02 72.15 118.15 72.34 118.18C72.5567 118.236 72.7773 118.276 73 118.3L74.06 118.42L75.44 118.55C77.3 118.71 79.15 118.81 81 118.87C83.52 118.96 86 118.95 88.56 118.87C91.0662 118.886 93.568 118.659 96.03 118.19C96.77 118.01 97.03 117.9 97.1 118C97.17 118.1 96.81 118.35 96.19 118.65C94.0846 119.561 91.8389 120.106 89.55 120.26C86.2433 120.518 82.9248 120.592 79.61 120.48C77.95 120.43 76.3 120.35 74.61 120.23L73.36 120.12L72.36 120.02C71.96 120.02 71.56 119.91 71.18 119.83C70.9042 119.809 70.6385 119.717 70.409 119.563C70.1794 119.409 69.9937 119.197 69.87 118.95C69.8 118.81 69.87 118.73 69.87 118.61L69.93 118.28L69.99 117.96C69.99 117.9 69.99 117.85 69.99 117.79L70.22 117.55L71.09 116.49C71.1861 116.385 71.2669 116.267 71.33 116.14L71.5 115.87C71.7118 115.512 71.9021 115.141 72.07 114.76C72.3899 113.961 72.6343 113.134 72.8 112.29C73.1098 110.55 73.1098 108.77 72.8 107.03C72.5663 105.617 72.0712 104.261 71.34 103.03C70.5586 101.802 69.5003 100.775 68.25 100.03C65.658 98.5553 62.6073 98.1057 59.7 98.77C58.1196 99.0945 56.6331 99.7722 55.3517 100.752C54.0702 101.732 53.0269 102.99 52.3 104.43C51.5899 105.855 51.1782 107.41 51.09 109C50.9957 110.651 51.1885 112.305 51.66 113.89C51.8365 114.534 52.057 115.166 52.32 115.78C52.44 116.1 52.59 116.4 52.73 116.71C52.87 117.02 53.23 117.65 53.47 118.11C53.5875 118.304 53.6562 118.524 53.67 118.75L53.77 119.32V119.39L53.62 119.32L53.55 119.42L53.39 119.62C53.2255 119.764 53.0251 119.861 52.81 119.9C52.2854 120.022 51.7546 120.115 51.22 120.18L50 120.32C48.54 120.49 47.09 120.63 45.63 120.74C42.35 121.01 39.06 121.18 35.77 121.2C34.12 121.2 32.47 121.2 30.77 121.07C29.9367 121.01 29.1067 120.92 28.28 120.8C27.413 120.684 26.5634 120.462 25.75 120.14C24.4526 119.518 23.3977 118.485 22.75 117.2C22.1294 116.038 21.659 114.801 21.35 113.52C20.7641 111.053 20.429 108.534 20.35 106C20.3 104.88 20.28 103.79 20.35 102.67C20.48 98.5 20.95 97.19 21.59 96.38C21.7172 96.1911 21.8647 96.0167 22.03 95.86C22.26 95.71 22.37 96.04 22.46 96.78C22.5729 97.9064 22.6229 99.0381 22.61 100.17C22.61 102.37 22.74 104.59 22.88 106.81C23.0173 109.006 23.352 111.184 23.88 113.32C24.41 115.32 25.39 117.4 26.69 118C27.1036 118.179 27.5365 118.31 27.98 118.39C28.49 118.49 28.98 118.57 29.58 118.64C30.68 118.76 31.82 118.82 32.97 118.86C36.38 118.95 39.86 118.81 43.33 118.58C45.06 118.46 46.8 118.32 48.53 118.14L50.59 117.91C50.59 117.91 50.72 117.91 50.67 117.91L50.7 117.89Z" fill="#231F20"/>
<path d="M113.66 85.9001C113.254 86.9276 112.713 87.8961 112.05 88.7801C111.381 89.671 110.582 90.4564 109.68 91.1101C107.897 92.3877 105.797 93.1521 103.61 93.3201C102.077 93.481 100.529 93.4305 99.0102 93.1701C98.0666 92.9991 97.1347 92.7687 96.2202 92.4801L95.8202 92.3301H95.7102C95.7102 92.3301 95.6202 92.3301 95.6402 92.3301V92.5401C95.6402 92.6601 95.6402 92.7901 95.6402 92.9401L95.7802 94.0401C95.9202 94.8101 96.0602 95.6001 96.2302 96.3801C96.5502 97.9601 96.9302 99.5301 97.2302 101.14C97.6602 103.37 98.1002 105.62 98.3902 107.88C98.5985 109.334 98.6921 110.802 98.6702 112.27V113.38L98.4702 114.48C98.3573 115.208 98.2037 115.929 98.0102 116.64C97.7802 117.52 97.6702 117.36 97.5402 116.58C97.4702 116.19 97.4202 115.64 97.3002 114.99C97.2302 114.65 97.1502 114.31 97.0702 113.99C97.0702 113.8 97.0002 113.61 96.9502 113.42L96.8902 112.83C96.6845 109.977 96.3072 107.138 95.7602 104.33C95.1902 101.5 94.5502 98.6401 94.0702 95.6601C93.9802 95.0501 93.8602 94.4601 93.7902 93.8201L93.7302 93.3401C93.6964 93.1083 93.6797 92.8743 93.6802 92.6401V91.1501L93.8902 90.6501L94.0002 90.4101V90.2801L94.0502 90.3501C94.2502 90.1501 94.6302 90.1501 95.0502 90.2301C95.4702 90.3101 96.0502 90.5401 96.5002 90.6801L97.4302 90.9501C98.5396 91.2606 99.6739 91.4748 100.82 91.5901C102.673 91.8146 104.553 91.574 106.29 90.8901C107.999 90.1843 109.464 88.9915 110.5 87.4601C111.763 85.5211 112.405 83.2432 112.34 80.9301C112.298 79.1792 111.835 77.4641 110.99 75.9301C110.151 74.4226 108.87 73.2082 107.32 72.4501C104.862 71.3869 102.115 71.1895 99.5302 71.8901C98.9602 72.0101 98.4102 72.2001 97.8402 72.3701C97.106 72.6333 96.3583 72.857 95.6002 73.0401C95.1819 73.1345 94.7439 73.0815 94.3602 72.8901C94.1859 72.823 94.0184 72.7393 93.8602 72.6401C93.6402 72.4701 93.7002 72.1901 94.0102 71.8201C94.4821 71.3003 95.0624 70.8907 95.7102 70.6201C98.2698 69.3151 101.133 68.7211 104 68.9001C105.555 68.9961 107.075 69.4093 108.464 70.1145C109.854 70.8196 111.084 71.8016 112.08 73.0001C113.439 74.828 114.304 76.976 114.589 79.236C114.875 81.496 114.572 83.7914 113.71 85.9001H113.66Z" fill="#231F20"/>
<path d="M94.5099 31.5501C94.5099 31.7501 94.2099 31.6601 93.8199 31.4201C93.6552 31.3072 93.5129 31.1648 93.3999 31.0001C93.3901 30.8603 93.3901 30.7199 93.3999 30.5801C93.3999 30.5001 93.9299 29.7101 94.0899 29.4301C94.2375 29.168 94.4266 28.9316 94.6499 28.7301C95.0799 28.3001 95.4799 27.8601 95.8699 27.4401C95.9548 27.3388 96.0606 27.2569 96.1799 27.2001C96.5847 26.995 96.9293 26.6883 97.1799 26.3101C97.1799 26.2501 97.2799 26.2001 97.2599 26.1001C97.4323 25.6588 97.683 25.2522 97.9999 24.9001C98.3199 24.6901 98.5999 24.4501 98.9299 24.2201C98.9299 24.2201 98.9299 24.1201 99.0899 24.1301C99.2499 24.1401 99.3599 24.0201 99.4499 23.9401C99.5668 23.8102 99.6939 23.6898 99.8299 23.5801C99.9356 23.5314 100.046 23.4945 100.16 23.4701C100.26 23.4701 100.5 23.5801 100.52 23.6201C100.54 23.6601 100.72 23.7201 100.83 23.7601C100.866 23.7528 100.904 23.7528 100.94 23.7601C101.057 24.2135 101.101 24.6828 101.07 25.1501L100.98 25.4101L100.76 25.9601L100.31 26.8201C100.252 26.9004 100.172 26.9628 100.08 27.0001C100.08 27.0001 99.3799 28.1101 99.3299 28.1401C99.2799 28.1701 99.0099 28.5501 98.6899 28.5901C98.6299 28.5901 98.5999 28.6501 98.5699 28.6901C98.2662 28.9947 97.931 29.2662 97.5699 29.5001C97.3899 29.6301 97.2399 29.7901 97.0799 29.9301C96.9199 30.0701 96.9999 30.0001 96.9999 30.0001C96.9999 30.0001 96.8899 30.0001 96.8599 30.0701C96.4581 30.3815 96.0741 30.7154 95.7099 31.0701C95.6299 31.1601 95.0799 31.3501 94.9999 31.4601C94.9199 31.5701 94.5199 31.4701 94.5099 31.5501Z" fill="#231F20"/>
<path d="M60.8502 6.51005C60.7502 6.32005 61.0202 6.22005 61.5002 6.18005C61.7228 6.18537 61.9427 6.22936 62.1502 6.31005C62.2552 6.4096 62.3491 6.52025 62.4302 6.64005C62.4302 6.70005 62.5602 7.64005 62.6302 7.91005C62.6701 8.20203 62.6701 8.49808 62.6302 8.79005C62.6302 9.39005 62.5702 9.99005 62.5502 10.5901C62.5393 10.7237 62.509 10.8551 62.4602 10.9801C62.3099 11.4202 62.252 11.8866 62.2902 12.3501C62.2902 12.4301 62.2902 12.5101 62.3502 12.5901C62.4407 13.0994 62.4407 13.6207 62.3502 14.1301C62.2002 14.5201 62.0902 14.9301 61.9302 15.3301C61.9302 15.3801 61.9302 15.4501 61.8402 15.5001C61.7502 15.5501 61.6502 15.7401 61.6202 15.8601C61.5871 16.0461 61.5156 16.2232 61.4102 16.3801C61.4102 16.4701 61.2402 16.5501 61.1502 16.6301C61.1016 16.6581 61.0464 16.6729 60.9902 16.6729C60.934 16.6729 60.8789 16.6581 60.8302 16.6301C60.7502 16.5501 60.6402 16.6301 60.5502 16.6301C60.5137 16.6351 60.4767 16.6351 60.4402 16.6301C60.2947 16.4629 60.161 16.2858 60.0402 16.1001C59.9147 15.9117 59.817 15.7063 59.7502 15.4901L59.6302 14.7101C59.6302 14.3101 59.5702 13.9001 59.5502 13.8201C59.5302 13.7401 59.5502 13.6401 59.6202 13.5601C59.6902 13.4801 59.5202 12.3301 59.5302 12.2801C59.5302 12.0301 59.5302 11.7801 59.7002 11.5501C59.7187 11.5018 59.7187 11.4483 59.7002 11.4001C59.7639 10.9657 59.8643 10.5375 60.0002 10.1201C60.0002 9.91005 60.0002 9.69005 60.0602 9.47005C60.0602 9.47005 60.0602 9.40005 60.1102 9.36005C60.1145 9.31014 60.1145 9.25996 60.1102 9.21005C60.1102 8.70005 60.2902 8.21005 60.2702 7.67005C60.2702 7.55005 60.5502 7.01005 60.5502 6.87005C60.5502 6.73005 60.8902 6.59005 60.8502 6.51005Z" fill="#231F20"/>
<path d="M89.6202 48.41C88.4102 48.3 87.2002 48.18 85.9702 48.16H84.6302C83.0602 48.16 81.4802 48.16 79.9002 48.3C79.2102 48.37 78.5102 48.44 77.8202 48.55C76.942 48.7279 76.0536 48.8515 75.1602 48.92C74.8802 48.92 74.8802 48.77 75.0802 48.54C75.3719 48.2181 75.7562 47.9945 76.1802 47.9C78.0029 47.5199 79.8584 47.319 81.7202 47.3C82.8302 47.3 83.9902 47.2 85.1302 47.19C86.2702 47.18 87.6402 47.24 88.8902 47.35C89.6602 47.35 90.4302 47.51 91.2002 47.6C92.3602 47.78 93.5102 47.99 94.6402 48.26C95.5235 48.4449 96.395 48.682 97.2502 48.97L97.8202 49.17C98.5002 49.49 98.6802 49.67 98.7102 49.94C98.7199 49.9997 98.7199 50.0604 98.7102 50.12C98.7102 50.31 98.3502 50.3 97.8702 50.12C96.3649 49.5969 94.8199 49.1956 93.2502 48.92C92.0602 48.69 90.8302 48.55 89.6102 48.43L89.6202 48.41Z" fill="#231F20"/>
<path d="M19.3901 22.9201C19.1901 22.9201 19.2601 22.6301 19.4801 22.2301C19.5984 22.0568 19.7517 21.9103 19.9301 21.8001C20.0697 21.7862 20.2104 21.7862 20.3501 21.8001C20.4301 21.8001 21.2501 22.2501 21.5501 22.3901C21.8258 22.5188 22.079 22.691 22.3001 22.9001L23.7101 24.0001C23.8124 24.0892 23.9001 24.1938 23.9701 24.3101C24.215 24.7017 24.5343 25.0414 24.9101 25.3101C24.9701 25.3101 25.0201 25.4201 25.1301 25.4101C25.582 25.6632 25.9796 26.003 26.3001 26.4101C26.4901 26.8001 26.7101 27.1401 26.9201 27.5001C26.9201 27.5601 27.0201 27.5701 26.9901 27.6801C26.9601 27.7901 27.0401 27.9901 27.1101 28.0901C27.2263 28.2282 27.3208 28.3833 27.3901 28.5501C27.4102 28.6692 27.4102 28.7909 27.3901 28.9101C27.3901 29.0301 27.1301 29.2401 27.0801 29.2501C27.0301 29.2601 26.9001 29.4201 26.8101 29.5301L26.7101 29.6301C26.2728 29.6008 25.8419 29.5099 25.4301 29.3601L24.8001 28.9001C24.4901 28.6701 24.1601 28.4301 24.0801 28.3901C24.0001 28.3501 23.9801 28.2401 23.9401 28.1601C23.9001 28.0801 22.9401 27.4501 22.9401 27.4201C22.7901 27.2301 22.5501 27.1301 22.5201 26.8201C22.5201 26.7601 22.5201 26.7401 22.4301 26.7101C22.1286 26.4216 21.8572 26.1033 21.6201 25.7601C21.4801 25.5901 21.3201 25.4601 21.1701 25.3101C21.0201 25.1601 21.1701 25.2301 21.1201 25.2001C21.0701 25.1701 21.1201 25.1001 21.0401 25.0701C20.7162 24.692 20.3688 24.3346 20.0001 24.0001C19.9101 23.9301 19.6701 23.3901 19.5501 23.3201C19.4301 23.2501 19.4801 22.9301 19.3901 22.9201Z" fill="#231F20"/>
</svg>
