<svg width="128" height="128" viewBox="0 0 128 128" fill="none" xmlns="http://www.w3.org/2000/svg">
<path d="M89.84 33.25C96.6 31.67 101.18 33.23 101.18 36.42C101.18 40.09 92.8699 53.48 67.2 61.87C35.74 72.15 13.95 64.17 16.82 59.22C18.76 55.88 21.22 53.96 24.45 52.48C24.45 52.48 24.19 56.59 26.37 57.42C28.56 58.26 40.13 66.64 62.43 58.94C84.7299 51.24 91.1 43.27 91.1 39.11C91.1 34.95 89.84 33.24 89.84 33.24V33.25Z" fill="#231F20"/>
<path d="M45.4202 79.99C55.6502 78.6 65.7802 76.17 75.5502 72.75C79.1102 71.48 82.5902 70.03 86.0402 68.51C92.1102 65.82 97.9802 62.66 103.4 58.84C106.1 56.93 108.67 54.83 111.06 52.55C112.26 51.41 113.39 50.22 114.48 48.98C115.57 47.72 116.58 46.48 117.38 45.1C118.09 43.88 118.64 42.58 118.87 41.27C119.09 39.96 119.01 38.63 118.38 37.54C117.78 36.43 116.75 35.54 115.57 34.87C114.4 34.2 113.05 33.78 111.66 33.51C108.08 32.8 104.28 32.9 100.54 33.19C96.7802 33.5 93.0602 34.11 89.2602 34.41C86.8602 34.48 87.1902 34.54 89.0602 33.67C89.5202 33.42 90.1002 33.2 90.7602 32.9C91.4102 32.56 92.1802 32.34 93.0102 32.04C93.8502 31.76 94.7602 31.47 95.7502 31.24C96.7402 31.02 97.8002 30.84 98.9102 30.71C102.86 30.27 106.87 30.02 110.99 30.6C113.04 30.91 115.15 31.42 117.17 32.56C117.65 32.87 118.13 33.18 118.59 33.54C119.03 33.94 119.49 34.31 119.87 34.81C120.68 35.72 121.28 36.91 121.56 38.14C121.86 39.37 121.84 40.62 121.63 41.76C121.43 42.91 121.07 43.98 120.61 44.97C119.72 46.96 118.44 48.7 117.13 50.23C114.54 53.33 111.58 56.08 108.44 58.57C100.91 64.49 92.2602 69.46 83.3202 73.23C73.4602 77.33 63.1702 80.25 52.7102 82.2C46.2702 83.39 39.7602 84.2 33.2102 84.49C28.2502 84.7 23.2402 84.61 18.2802 83.92C15.8002 83.56 13.3202 83.05 10.9102 82.21C8.53017 81.35 6.10017 80.19 4.30017 78.06C4.14017 77.84 3.96017 77.64 3.81017 77.41L3.39017 76.71C3.26017 76.46 3.15017 76.19 3.04017 75.92C2.96017 75.64 2.87017 75.37 2.82017 75.09C2.60017 73.96 2.70017 72.84 2.96017 71.82C3.48017 69.76 4.53017 68.02 5.69017 66.43C8.04017 63.28 10.9202 60.69 13.9702 58.36C15.3202 57.35 16.6602 56.38 18.1002 55.47C19.4302 54.63 20.5802 54 21.5402 53.49C22.5202 53 23.3402 52.67 24.0302 52.43C25.4002 51.93 26.2802 51.83 27.0402 51.89C27.3802 51.91 27.8102 51.89 28.0302 51.94C28.7502 52.11 26.6802 53.63 22.9502 56.04C20.1602 57.77 17.4202 59.66 14.8702 61.79C12.3302 63.91 9.93017 66.27 8.14017 68.87C7.27017 70.17 6.53017 71.53 6.23017 72.79C6.09017 73.41 6.06017 73.98 6.16017 74.44C6.21017 74.67 6.28017 74.88 6.38017 75.08C6.52017 75.31 6.65017 75.58 6.85017 75.8C7.57017 76.77 8.83017 77.59 10.2002 78.26C11.5902 78.92 13.1602 79.41 14.7702 79.8C19.5802 80.93 24.7702 81.21 29.9202 81.16C35.0902 81.09 40.2802 80.64 45.4302 79.91L45.4502 79.99H45.4202Z" fill="#231F20"/>
<path d="M48.1399 61.97C43.5199 59.39 40.3899 22.2 68.3699 19C68.3699 19 54.9499 16.41 43.1699 23.59C31.3899 30.77 25.8799 42.75 25.0099 48.71C24.1399 54.67 23.5199 56.87 25.2599 58.21C26.9999 59.55 48.1299 61.98 48.1299 61.98L48.1399 61.97Z" fill="#231F20"/>
<path d="M69.0898 18.27C73.6098 19.34 77.9198 21.22 81.7598 23.82C85.5798 26.43 89.0398 29.68 91.3098 33.93C91.7698 34.67 92.0598 35.53 92.3998 36.36C92.5898 36.76 92.6498 37.25 92.7698 37.69L92.9298 38.37C92.9898 38.56 93.0198 39.01 92.9898 39.33C92.9198 40.06 92.7198 40.54 92.5098 41.01C92.2998 41.48 92.0498 41.87 91.7998 42.26C91.2898 43.02 90.7398 43.69 90.1498 44.32C88.0898 46.52 85.7998 48.32 83.4298 49.99C81.0498 51.64 78.5698 53.13 76.0198 54.46C70.9198 57.12 65.5198 59.21 59.9598 60.63C55.0198 61.89 49.9198 62.66 44.8498 62.73C41.5898 62.78 38.3198 62.52 35.1098 61.93C31.9098 61.32 28.7298 60.42 25.8298 58.94C24.1298 57.78 24.3398 58.03 26.0598 58.24C27.7898 58.45 30.8598 58.89 34.3798 59.53C37.5198 60.07 40.6998 60.31 43.8698 60.27C47.0498 60.27 50.2298 59.99 53.3798 59.48C59.6798 58.44 65.8498 56.46 71.7398 53.76C75.2598 52.15 78.6998 50.15 81.8998 47.81C83.4998 46.64 85.0298 45.39 86.4498 44.04C87.1498 43.37 87.8298 42.67 88.4298 41.94C89.0198 41.22 89.5898 40.45 89.9098 39.75C89.9998 39.56 90.0598 39.37 90.0898 39.23C90.1198 39.09 90.1298 39.08 90.0898 38.89C89.9698 38.44 89.8798 37.97 89.7498 37.51L89.1698 36.13C88.9498 35.68 88.6698 35.24 88.4198 34.79C87.3298 33.04 85.9898 31.38 84.4298 29.94C81.3798 26.99 77.6998 24.63 73.7298 23.01C68.8298 21.03 63.4798 20.16 58.1698 20.43L56.6598 20.5C56.1598 20.52 55.6598 20.63 55.1598 20.69C54.1698 20.85 53.1498 20.95 52.1698 21.15C51.2098 21.41 50.2198 21.58 49.2698 21.91L47.8598 22.42C47.3898 22.58 46.9198 22.75 46.4698 22.99C42.8098 24.62 39.5098 27.03 36.7598 29.93C35.6598 31.03 34.7298 32.28 33.7898 33.5C32.9498 34.79 32.0498 36.05 31.3698 37.43C30.5998 38.76 30.0098 40.18 29.3998 41.58C29.0998 42.28 28.8798 43.02 28.6098 43.74L28.2198 44.82C28.0998 45.18 28.0098 45.56 27.9098 45.93C27.7298 46.58 27.5598 47.23 27.3798 47.87C27.2198 48.52 27.1098 49.18 26.9598 49.85C26.6698 51.08 26.4898 52.11 26.3298 52.97C26.1698 53.83 25.9598 54.52 25.8498 55.1C25.7198 55.68 25.5898 56.13 25.4298 56.51C25.2298 56.88 25.0198 57.18 24.8398 57.45C24.6698 57.69 24.5098 58.02 24.3998 58.16C24.2098 58.4 24.0798 58 23.7998 57.02C23.6198 56.53 23.5798 55.9 23.5398 55.16C23.4798 54.41 23.5698 53.54 23.6298 52.57C23.7998 49.66 24.5198 46.77 25.3198 43.88C25.5698 43.17 25.8098 42.46 26.0598 41.75L26.4398 40.68L26.8998 39.64L27.8298 37.55L28.9298 35.52C29.2798 34.83 29.6898 34.18 30.1198 33.53C30.5498 32.89 30.9498 32.22 31.4198 31.59C32.3798 30.36 33.3098 29.1 34.4198 27.98C35.4498 26.79 36.6798 25.78 37.8398 24.71C39.1098 23.76 40.3498 22.75 41.7398 21.96C42.2498 21.66 42.7398 21.32 43.2698 21.05L44.8698 20.27C45.9198 19.7 47.0798 19.37 48.1898 18.93C49.3098 18.52 50.4998 18.3 51.6498 17.98C52.8098 17.78 53.9698 17.63 55.1198 17.45C59.7698 16.92 64.5298 17.13 69.0998 18.18V18.26L69.0898 18.27Z" fill="#231F20"/>
<path d="M29.01 108.89C29.03 109.18 28.73 109.34 28.31 109.44C28.18 109.47 27.83 109.38 27.79 109.29C27.72 109.12 27.65 108.94 27.6 108.77C27.59 108.67 27.54 107.1 27.57 106.57C27.57 106.06 27.64 105.56 27.74 105.07L28.26 102.06C28.29 101.84 28.37 101.62 28.49 101.42C28.87 100.72 29.07 99.97 29.2 99.21C29.22 99.08 29.27 98.96 29.2 98.81C29.1 98.57 29.57 96.52 29.76 96.29C30.18 95.71 30.49 95.09 30.86 94.5C30.91 94.42 30.92 94.31 31.05 94.26C31.36 94.14 31.39 93.93 31.48 93.74C31.6 93.47 31.8 93.23 31.97 92.98C32.06 92.86 32.22 92.76 32.35 92.65C32.47 92.55 32.68 92.69 32.7 92.74C32.75 92.89 32.89 92.82 32.99 92.84C33.03 92.84 33.07 92.85 33.1 92.87C33.13 92.89 33.2 93.34 33.34 93.84C33.49 94.34 33.53 94.83 33.53 94.92C33.55 94.97 33.29 97.4 33.28 97.68C33.27 97.83 33.17 97.95 33.09 98.07C33.05 98.13 32.76 100.05 32.73 100.12C32.59 100.5 32.58 100.91 32.24 101.23C32.17 101.29 32.16 101.37 32.15 101.45C32 102.12 31.74 102.76 31.45 103.39C31.31 103.72 31.23 104.06 31.12 104.39C31.1 104.45 31.05 104.5 31.01 104.56C30.97 104.63 30.91 104.7 30.89 104.78C30.65 105.58 30.28 106.34 30.11 107.15C30.07 107.34 29.56 108.15 29.49 108.36C29.45 108.48 29.02 108.79 29.03 108.9L29.01 108.89Z" fill="#231F20"/>
<path d="M90.1201 106.75C90.3301 106.9 90.1701 107.22 89.8701 107.59C89.7701 107.71 89.4101 107.91 89.3101 107.89C89.1301 107.84 88.9401 107.8 88.7801 107.74C88.7101 107.69 87.5501 106.87 87.2401 106.53C86.9001 106.24 86.6301 105.9 86.3801 105.54C85.8801 104.82 85.3301 104.13 84.8501 103.38C84.7501 103.21 84.6801 103.03 84.6401 102.83C84.5001 102.14 84.1801 101.55 83.8001 100.98C83.7401 100.89 83.7001 100.77 83.5501 100.73C83.2901 100.66 82.4301 99.01 82.4101 98.75C82.3901 98.1 82.3201 97.47 82.2701 96.85C82.2701 96.76 82.2001 96.69 82.2901 96.57C82.5001 96.29 82.3901 96.14 82.3501 95.96C82.2701 95.72 82.2901 95.44 82.3201 95.16C82.3401 95.02 82.4401 94.85 82.5101 94.69C82.5701 94.55 82.9101 94.48 82.9601 94.5C83.1101 94.56 83.2301 94.42 83.3601 94.36C83.4001 94.34 83.4601 94.31 83.5001 94.3C83.5401 94.29 83.8901 94.53 84.3001 94.77C84.6701 95.02 85.0001 95.29 85.0401 95.36C85.0401 95.36 85.1201 95.48 85.2301 95.65C85.3501 95.81 85.5001 96.03 85.6601 96.25C85.8301 96.47 85.9901 96.69 86.1301 96.87C86.2601 97.05 86.3401 97.2 86.3801 97.24C86.4601 97.33 86.4401 97.47 86.4501 97.6C86.4501 97.66 87.3901 98.99 87.4101 99.05C87.5301 99.36 87.7801 99.61 87.6901 100.03C87.6701 100.11 87.7201 100.17 87.7501 100.22C88.0501 100.71 88.2501 101.27 88.4501 101.82C88.5501 102.11 88.7101 102.36 88.8401 102.63C88.8601 102.68 88.8501 102.75 88.8601 102.8C88.8701 102.87 88.8701 102.95 88.9001 103.01C89.2401 103.63 89.4401 104.34 89.8601 104.93C89.9601 105.06 90.0701 105.91 90.1401 106.09C90.1901 106.19 90.0101 106.69 90.1001 106.75H90.1201Z" fill="#231F20"/>
<path d="M124.17 73.65C124.43 73.67 124.43 74 124.29 74.49C124.25 74.65 123.97 75.04 123.88 75.06C123.7 75.1 123.52 75.14 123.36 75.15C123.27 75.15 122.07 74.73 121.64 74.62C121.23 74.51 120.86 74.33 120.51 74.14C119.79 73.75 119.1 73.3 118.4 72.87C118.25 72.77 118.11 72.65 117.99 72.51C117.57 72.01 117.06 71.67 116.5 71.37C116.41 71.32 116.33 71.25 116.19 71.28C115.95 71.35 114.56 70.37 114.43 70.17C114.09 69.7 113.71 69.29 113.35 68.85C113.3 68.79 113.21 68.77 113.21 68.64C113.22 68.33 113.07 68.25 112.95 68.13C112.78 67.96 112.62 67.78 112.49 67.57C112.42 67.47 112.4 67.29 112.37 67.14C112.34 67 112.56 66.77 112.61 66.76C112.75 66.73 112.77 66.56 112.84 66.44C112.86 66.4 112.89 66.35 112.92 66.32C112.96 66.28 114.5 66.4 114.65 66.44C114.67 66.44 115.12 66.67 115.59 66.91C116.06 67.14 116.56 67.38 116.67 67.41C116.78 67.45 116.85 67.56 116.93 67.66C116.98 67.69 118.4 68.38 118.44 68.43C118.69 68.64 119.01 68.74 119.15 69.13C119.18 69.2 119.24 69.23 119.29 69.27C119.77 69.56 120.18 69.95 120.6 70.32C120.82 70.51 121.07 70.64 121.3 70.81C121.34 70.84 121.36 70.9 121.4 70.94C121.44 70.99 121.48 71.06 121.53 71.09C122.1 71.45 122.55 71.99 123.15 72.31C123.28 72.39 123.74 73.05 123.9 73.13C123.99 73.18 124.06 73.66 124.17 73.66V73.65Z" fill="#231F20"/>
<path d="M24.7002 74.41C24.8802 74.12 25.0602 73.82 25.2402 73.54C25.3002 73.43 25.3302 73.31 25.4002 73.21C25.6502 72.85 25.9402 72.52 26.2202 72.19C26.3402 72.04 26.4302 71.88 26.5102 71.71C26.6102 71.5 26.6802 71.26 26.9302 71.13C27.0802 71.05 27.9702 71.82 27.9002 72.07C27.7502 72.5 27.5602 72.88 27.2202 73.22C27.0102 73.42 26.9602 73.7 26.8302 73.95C26.6902 74.22 26.5502 74.49 26.4102 74.76C26.3302 74.93 26.2402 75.1 26.1702 75.28C26.0702 75.55 25.9202 75.81 25.8702 76.09C25.8202 76.31 25.9202 76.55 25.8702 76.76C25.8602 76.81 25.8602 76.85 25.8402 76.9C25.7602 77.07 25.6302 77.1 25.3102 77.09H25.0902C24.8502 77.06 24.6602 76.95 24.5402 76.78C24.1102 76.27 24.2302 75.82 24.2902 75.36C24.3402 75.02 24.5102 74.71 24.6502 74.4H24.6902L24.7002 74.41Z" fill="#231F20"/>
<path d="M98.2701 53.65C98.1301 53.39 98.0001 53.14 97.8401 52.9C97.7801 52.81 97.7001 52.76 97.6401 52.67C97.4501 52.35 97.2401 52.05 97.0201 51.77C96.9201 51.65 96.7901 51.55 96.6701 51.46C96.5101 51.34 96.3201 51.26 96.2301 51.05C96.1701 50.92 96.7901 50.35 97.0201 50.44C97.4001 50.63 97.7501 50.86 98.0001 51.22C98.1501 51.44 98.4001 51.54 98.6101 51.7C98.8301 51.88 99.0301 52.07 99.2401 52.27C99.3701 52.39 99.4701 52.53 99.5901 52.66C99.7701 52.85 99.9301 53.07 100.14 53.22C100.29 53.36 100.54 53.39 100.67 53.54C100.7 53.57 100.74 53.59 100.77 53.63C100.86 53.78 100.82 53.89 100.62 54.15L100.49 54.32C100.34 54.5 100.14 54.61 99.9601 54.63C99.4001 54.71 99.0301 54.58 98.7901 54.3C98.5901 54.11 98.4201 53.89 98.2401 53.69L98.2701 53.66V53.65Z" fill="#231F20"/>
<path d="M43.44 74.04C43.52 73.79 43.61 73.54 43.69 73.3C43.72 73.21 43.7 73.11 43.74 73.02C43.89 72.69 44.07 72.38 44.24 72.07C44.32 71.94 44.35 71.79 44.38 71.64C44.42 71.45 44.4 71.23 44.64 71.12C44.78 71.06 46.04 71.82 46.02 71.96C45.96 72.25 45.85 72.49 45.58 72.75C45.42 72.91 45.47 73.12 45.43 73.31C45.37 73.53 45.31 73.76 45.24 73.98C45.2 74.12 45.16 74.27 45.14 74.42C45.1 74.64 45.02 74.87 45.02 75.11C45.02 75.3 45.08 75.49 45.07 75.69C45.07 75.73 45.08 75.78 45.07 75.82C45.02 75.98 44.9 76 44.53 75.94L44.28 75.89C44 75.83 43.78 75.71 43.69 75.6C43.56 75.44 43.44 75.29 43.36 75.14C43.27 75 43.3 74.86 43.29 74.72C43.29 74.5 43.35 74.28 43.4 74.03H43.44V74.04Z" fill="#231F20"/>
<path d="M71.5701 26.49C72.1701 26.69 72.7601 26.91 73.3201 27.19C73.5201 27.29 73.7401 27.35 73.9401 27.47C74.6301 27.89 75.2701 28.36 75.8701 28.85C76.1501 29.06 76.4101 29.26 76.6801 29.47C77.0201 29.74 77.3601 30.01 77.5901 30.4C77.6601 30.52 77.5101 30.65 77.2901 30.74C77.0601 30.83 76.7401 30.91 76.5301 30.81C76.1601 30.64 75.8001 30.48 75.4201 30.31C75.0901 30.1 74.7601 29.87 74.4401 29.62C74.0601 29.31 73.5501 29.21 73.0901 29.04C72.5801 28.86 72.0801 28.64 71.5601 28.49C71.2401 28.39 70.9101 28.3 70.5801 28.24C70.0801 28.15 69.5701 28.05 69.0601 28.06C68.6601 28.07 68.2801 28.22 67.9101 28.31C67.8301 28.31 67.7501 28.34 67.6601 28.35C67.3401 28.36 67.2201 28.24 67.0901 27.85C67.0601 27.76 67.0201 27.67 67.0001 27.58C66.9201 27.28 67.0001 27 67.2501 26.81C67.4301 26.68 67.6201 26.54 67.8101 26.43C68.0101 26.35 68.2101 26.28 68.4201 26.24C68.8401 26.15 69.2701 26.11 69.7001 26.11C70.3401 26.11 70.9701 26.28 71.5901 26.43V26.48L71.5701 26.49Z" fill="#231F20"/>
</svg>
