<svg width="128" height="128" viewBox="0 0 128 128" fill="none" xmlns="http://www.w3.org/2000/svg">
<path d="M14.5701 70.05C14.3701 69.26 14.2601 68.48 14.1901 67.72C14.1701 67.45 14.0801 67.18 14.0801 66.91C14.1301 65.97 14.1801 65.01 14.2301 64.07C14.2301 63.66 14.2101 63.25 14.2101 62.84C14.1301 62.33 14.3401 61.79 14.4501 61.25C14.5001 61.08 14.4901 61.11 14.5801 61.23C14.6601 61.36 14.9201 61.59 15.1301 61.87C15.8101 62.88 15.8001 63.93 15.8201 64.99C15.7901 65.63 16.0301 66.25 16.1201 66.87C16.2001 67.56 16.2901 68.22 16.4401 68.87C16.5401 69.27 16.6501 69.66 16.8101 70.03C17.0601 70.58 17.3201 71.15 17.7401 71.6C18.0601 71.95 18.5001 72.18 18.9101 72.41C19.0001 72.46 19.0901 72.51 19.1701 72.58C19.4701 72.83 19.4601 73.06 19.2701 73.48C19.2301 73.58 19.1901 73.68 19.1401 73.77C18.9801 74.07 18.6601 74.22 18.2801 74.19C17.2001 74.01 16.3201 73.24 15.6101 72.33C15.0701 71.66 14.7501 70.84 14.5001 70.06L14.5501 70.04L14.5701 70.05Z" fill="#231F20"/>
<path d="M46.9002 64.66C46.7702 63.85 46.5902 63.06 46.3502 62.31L46.1602 61.75C46.0902 61.61 46.0402 61.54 45.9902 61.42L45.6602 61.04C45.5402 60.91 45.3802 60.79 45.2502 60.66C44.8202 60.3 44.3002 60 43.8002 59.67C42.0002 58.51 40.0102 57.5 38.0102 56.55C37.1202 56.13 36.1902 55.78 35.3102 55.36C34.1702 54.82 32.9702 54.39 31.9602 53.56C31.6402 53.32 31.6902 53.34 32.0402 53.38C32.2102 53.4 32.4702 53.41 32.7802 53.41C33.1002 53.39 33.4502 53.41 33.7902 53.53C35.0202 53.91 36.2902 54.17 37.4802 54.67C38.6702 55.16 39.8602 55.69 41.0202 56.29C42.4102 57.02 43.9302 57.61 45.3502 58.5C46.1202 59.01 46.9002 59.52 47.5602 60.4C47.9302 60.92 48.0302 61.33 48.2202 61.76C48.3602 62.2 48.5202 62.63 48.6302 63.07C48.9302 64.15 49.1202 65.23 49.2602 66.32C49.4802 67.96 49.5502 69.62 49.6602 71.24C49.7302 72.5 49.8402 73.74 49.8602 74.99C49.8602 75.27 49.8602 75.54 49.8402 75.81C49.7402 76.84 49.5802 77.16 49.1902 77.36C49.1002 77.41 49.0202 77.47 48.9402 77.49C48.6902 77.58 48.4202 77.15 48.2802 76.41C48.0302 75.31 47.8802 74.19 47.7502 73.06C47.5802 71.93 47.5502 70.79 47.4602 69.66C47.3502 67.98 47.1702 66.3 46.8602 64.68H46.9102L46.9002 64.66Z" fill="#231F20"/>
<path d="M50.0002 80.7C49.8802 81.11 50.1202 84.21 51.5902 84.56C52.7002 84.83 55.3502 83.49 56.5802 82.94C59.8802 81.46 55.9002 85.58 55.9002 85.58L49.6602 87.36L50.0002 80.7Z" fill="#231F20"/>
<path d="M82.4498 46.84C82.5698 47.35 82.6398 47.89 82.6998 48.42C82.7198 48.61 82.7898 48.79 82.7998 48.99C82.8198 49.68 82.7798 50.35 82.6398 50.99C82.5898 51.27 82.5798 51.55 82.5498 51.83C82.5298 52.18 82.4898 52.53 82.3498 52.87C82.2998 52.98 82.1698 52.95 82.0198 52.85C81.8698 52.75 81.6598 52.57 81.5998 52.38C81.4298 51.68 81.2298 51.04 81.2598 50.39C81.3098 49.99 81.1298 49.61 81.0298 49.24C80.9198 48.83 80.7998 48.41 80.6398 47.99C80.5398 47.72 80.4698 47.48 80.3498 47.24C80.1698 46.88 79.9898 46.5 79.6998 46.19C79.4898 45.94 79.1198 45.83 78.8598 45.63C78.7998 45.58 78.7298 45.55 78.6898 45.5C78.5398 45.27 78.6698 45.04 78.9998 44.67L79.2298 44.42C79.4798 44.16 79.8198 44.02 80.1398 44.01C81.0298 44.05 81.3998 44.68 81.8198 45.28C82.1098 45.74 82.3298 46.28 82.5098 46.82L82.4598 46.84H82.4498Z" fill="#231F20"/>
<path d="M55.3601 79.26V78.8C55.3601 78.6 55.3801 78.41 55.4101 78.22C55.4901 77.86 55.6001 77.49 55.9101 77.26C56.1801 77.02 56.5501 76.79 56.8401 76.63L57.4301 76.33C57.7101 76.18 57.9501 75.98 58.2301 75.84C59.2201 75.34 60.2201 74.88 61.2101 74.4C61.6501 74.19 62.0501 73.91 62.4801 73.68C63.0301 73.39 63.5001 72.92 64.3001 73.11C64.5501 73.18 64.5601 73.25 64.5401 73.58C64.5401 73.93 64.5401 74.58 64.3001 74.84C63.3501 75.64 62.2401 76.17 61.0301 76.6C60.3101 76.86 59.6901 77.35 59.0301 77.74C58.6701 77.94 58.2901 78.19 57.9801 78.38C57.8501 78.46 57.5801 78.51 57.6101 78.73L57.5901 78.91V79.3L57.6301 80.09C57.6701 80.9 57.6501 81.71 57.7001 82.52C57.7401 83.14 57.9001 83.76 57.9801 84.39C58.0001 84.53 58.0401 84.67 58.0201 84.8C57.9601 85.31 57.8001 85.47 57.1901 85.53C57.0601 85.54 56.9401 85.57 56.8401 85.57C56.5201 85.59 56.0001 85.35 55.8801 84.99C55.6001 84.45 55.5601 83.92 55.4901 83.38C55.4301 82.84 55.4201 82.3 55.3901 81.76C55.3601 80.95 55.3601 80.14 55.3101 79.27H55.3701L55.3601 79.26Z" fill="#231F20"/>
<path d="M80.62 67.07C79.94 67.37 79.25 67.68 78.57 68.01C78.33 68.13 78.11 68.3 77.85 68.41C76.94 68.78 76.03 69.15 75.15 69.56C74.75 69.73 74.37 69.94 74 70.16C73.53 70.45 73.06 70.73 72.45 70.79C72.19 70.69 72.22 70.69 72.21 70.38C72.21 70.08 72.27 69.66 72.47 69.41C73.29 68.63 74.17 67.96 75.24 67.55C75.87 67.3 76.4 66.82 76.99 66.46C77.65 66.09 78.33 65.74 79.01 65.39C79.43 65.18 79.85 64.96 80.27 64.75C80.9 64.42 81.56 64.12 82.18 63.76C82.66 63.47 83.07 63.08 83.56 62.74C83.67 62.67 83.76 62.57 83.88 62.51C83.98 62.44 84.09 62.42 84.19 62.45C84.29 62.47 84.37 62.5 84.45 62.54C84.6 62.63 84.72 62.79 84.85 63.03C84.91 63.14 84.97 63.25 85.02 63.36C85.18 63.73 85.12 64.13 84.95 64.49C84.34 65.28 83.5 65.67 82.64 66.15C81.98 66.48 81.31 66.81 80.65 67.14L80.62 67.09V67.07Z" fill="#231F20"/>
<path d="M28.81 44.47C26.93 44.02 25.57 42.61 25.63 40.36C25.68 38.62 26.48 36.63 28.24 36.32C28.24 36.32 22.76 35.77 21.88 37.62C21 39.47 21.65 42.65 22.31 43.6C22.97 44.55 28.8 44.47 28.8 44.47H28.81Z" fill="#231F20"/>
<path d="M72.3898 77.07C70.6498 76.63 69.3998 75.22 69.4598 73C69.4998 71.27 70.2398 69.3 71.8698 69C71.8698 69 66.8098 68.46 65.9998 70.29C65.1898 72.12 65.7898 75.28 66.3998 76.21C67.0098 77.14 72.3898 77.07 72.3898 77.07Z" fill="#231F20"/>
<path d="M91.9401 69.2C90.2001 68.76 88.9501 67.35 89.0101 65.13C89.0501 63.4 89.7901 61.43 91.4201 61.13C91.4201 61.13 86.3601 60.59 85.5501 62.42C84.7401 64.25 85.3401 67.41 85.9501 68.34C86.5601 69.27 91.9401 69.2 91.9401 69.2Z" fill="#231F20"/>
<path d="M93.4 85.94C91.66 85.5 90.41 84.09 90.47 81.87C90.51 80.14 91.25 78.17 92.88 77.87C92.88 77.87 87.8201 77.33 87.01 79.16C86.2 80.99 86.8001 84.15 87.4101 85.08C88.0201 86.01 93.4 85.94 93.4 85.94Z" fill="#231F20"/>
<path d="M111.47 78.2101C109.73 77.7701 108.48 76.3601 108.54 74.1401C108.58 72.4101 109.32 70.4401 110.95 70.1401C110.95 70.1401 105.89 69.6001 105.08 71.4301C104.27 73.2601 104.87 76.4201 105.48 77.3501C106.09 78.2801 111.47 78.2101 111.47 78.2101Z" fill="#231F20"/>
<path d="M51.5801 35.2C49.7001 34.75 48.3401 33.34 48.4001 31.09C48.4501 29.35 49.2501 27.36 51.0101 27.05C51.0101 27.05 45.5301 26.5 44.6501 28.35C43.7701 30.2 44.4201 33.38 45.0801 34.33C45.7401 35.28 51.5701 35.2 51.5701 35.2H51.5801Z" fill="#231F20"/>
<path d="M51.0898 54.14C49.2098 53.69 47.8498 52.28 47.9098 50.03C47.9598 48.29 48.7598 46.3 50.5198 45.99C50.5198 45.99 45.0398 45.44 44.1598 47.29C43.2798 49.14 43.9298 52.32 44.5898 53.27C45.2498 54.22 51.0798 54.14 51.0798 54.14H51.0898Z" fill="#231F20"/>
<path d="M71.3901 42.47C69.5101 42.02 68.1501 40.61 68.2101 38.36C68.2601 36.62 69.0601 34.63 70.8201 34.32C70.8201 34.32 65.3401 33.77 64.4601 35.62C63.5801 37.47 64.2301 40.65 64.8901 41.6C65.5501 42.55 71.3801 42.47 71.3801 42.47H71.3901Z" fill="#231F20"/>
<path d="M49.5301 60.1L50.1701 59.43C50.3901 59.21 50.6001 59.07 50.8201 58.88C51.2501 58.51 51.6901 58.23 52.1201 57.92C52.9901 57.33 53.8701 56.8 54.7601 56.29C55.4001 55.91 56.0201 55.51 56.6701 55.16C58.9801 53.95 61.3701 52.96 63.7201 51.91C64.7701 51.45 65.8201 50.99 66.8601 50.53C68.1701 49.89 69.5701 49.44 71.0201 49.12C71.4701 49.02 71.4301 49.08 71.1401 49.37C70.8401 49.63 70.3501 50.28 69.6801 50.79C67.2301 52.51 64.6501 53.87 61.9101 55.01C60.2801 55.71 58.7301 56.72 57.1701 57.61C55.4701 58.6 53.7501 59.61 52.3201 60.81C52.0901 60.99 51.8901 61.18 51.7201 61.37L51.4401 61.66C51.4101 61.73 51.3801 61.79 51.3301 61.85C51.1701 62.3 51.0201 62.86 50.9401 63.45C50.6701 65.22 50.5401 67.11 50.5101 68.95C50.4801 70.39 50.6801 71.81 50.6701 73.26C50.6701 73.58 50.7001 73.89 50.6701 74.22C50.5801 75.42 50.2501 75.83 49.6401 75.99C49.5001 76.03 49.3501 76.08 49.2201 76.09C48.7601 76.09 48.4701 75.62 48.2901 74.79C47.8401 72.3 47.8701 69.61 48.0101 66.87C48.0701 65.85 48.1501 64.82 48.3001 63.76C48.3801 63.22 48.4501 62.7 48.5901 62.12L48.6901 61.69L48.8501 61.2C48.9001 60.96 49.2501 60.31 49.4601 60.06L49.5101 60.1H49.5301Z" fill="#231F20"/>
<path d="M59.0601 102.56C58.8101 101.75 58.6301 100.92 58.5501 100.09C58.5101 99.79 58.4301 99.5 58.4101 99.2C58.3401 98.14 58.3001 97.09 58.3301 96.05C58.3301 95.59 58.3101 95.13 58.2901 94.68C58.2301 94.1 58.4101 93.5 58.4001 92.92C58.4101 92.74 58.4501 92.76 58.5301 92.91C58.6201 93.06 58.7101 93.33 58.9001 93.65C59.2201 94.21 59.3301 94.79 59.4401 95.37C59.5501 95.95 59.6701 96.52 59.6701 97.11C59.6901 97.81 59.9101 98.51 60.0701 99.2C60.2401 99.96 60.4301 100.7 60.6201 101.45C60.7401 101.91 60.8901 102.36 61.0601 102.8C61.3301 103.47 61.6201 104.13 62.0301 104.72C62.3401 105.18 62.8001 105.51 63.1601 105.89C63.2401 105.98 63.3301 106.05 63.4001 106.14C63.6701 106.48 63.7001 106.66 63.4901 107.02C63.4401 107.1 63.4101 107.19 63.3601 107.26C63.1901 107.51 62.8801 107.57 62.5101 107.41C61.3701 106.99 60.6501 105.97 60.0601 104.97C59.6201 104.21 59.3001 103.4 59.0201 102.59L59.0601 102.57V102.56Z" fill="#231F20"/>
<path d="M64.13 80.54C64.9 80.85 65.65 81.18 66.39 81.53C66.66 81.65 66.95 81.73 67.21 81.87C68.12 82.41 69 83 69.86 83.57C70.25 83.82 70.65 84.04 71.02 84.3C71.51 84.62 71.97 84.98 72.4 85.39C72.53 85.52 72.46 85.59 72.26 85.62C72.06 85.65 71.73 85.67 71.4 85.59C70.83 85.42 70.23 85.33 69.71 85.09C69.19 84.85 68.68 84.6 68.18 84.31C67.59 83.94 66.86 83.82 66.22 83.55C65.51 83.25 64.79 82.96 64.06 82.7C63.61 82.54 63.16 82.38 62.7 82.26C62 82.06 61.3 81.86 60.58 81.77C60.02 81.71 59.46 81.77 58.9 81.81C58.78 81.81 58.66 81.84 58.53 81.84C58.08 81.84 57.95 81.64 57.9 81.06C57.89 80.93 57.87 80.8 57.87 80.67C57.86 80.26 58.08 79.86 58.45 79.75C59.53 79.45 60.66 79.52 61.75 79.78C62.56 79.96 63.36 80.22 64.14 80.49V80.54H64.13Z" fill="#231F20"/>
<path d="M91.2502 110.69C91.2502 109.86 91.2302 109.06 91.2502 108.25C91.2502 107.95 91.2102 107.66 91.2202 107.37C91.2802 106.33 91.3502 105.29 91.4102 104.25C91.4702 103.79 91.4502 103.33 91.4902 102.87C91.5402 102.28 91.6602 101.7 91.7802 101.11C91.8202 100.93 91.8602 100.95 91.9602 101.11C92.0402 101.26 92.2302 101.54 92.3902 101.87C92.9602 103.04 93.1402 104.19 92.9802 105.39C92.9102 106.1 93.0602 106.83 93.1102 107.56C93.1702 108.35 93.1802 109.15 93.2102 109.95C93.2302 110.44 93.2502 110.92 93.3002 111.4C93.3802 112.11 93.4802 112.83 93.7502 113.47C93.9602 113.96 94.3202 114.36 94.6802 114.67C94.7602 114.74 94.8502 114.8 94.9102 114.87C95.1802 115.13 95.1302 115.34 94.8702 115.8L94.7102 116.1C94.5402 116.39 94.1202 116.58 93.6902 116.4C92.4702 115.8 91.8602 114.46 91.5602 113.3C91.3302 112.41 91.2602 111.54 91.2002 110.71H91.2502V110.69Z" fill="#231F20"/>
<path d="M97.04 89.31C98.17 88.72 99.3 88.18 100.43 87.62C100.84 87.42 101.22 87.16 101.65 86.98C103.14 86.35 104.63 85.72 106.12 85.1C106.78 84.82 107.42 84.5 108.06 84.19C108.49 84.02 108.91 83.84 109.34 83.69C109.56 83.63 109.82 83.64 110.06 83.61C110.31 83.61 110.52 83.51 110.74 83.47C111.02 83.41 110.99 83.44 110.8 83.61C110.66 83.73 110.52 83.85 110.41 83.95C110.26 84.12 110.12 84.41 109.95 84.65C109.59 84.96 109.2 85.2 108.82 85.47C108.43 85.72 108.01 85.9 107.61 86.12C106.79 86.53 105.96 86.93 105.1 87.28C104.07 87.71 103.11 88.35 102.11 88.9L98.8 90.64C98.13 91.01 97.46 91.38 96.81 91.78C96.32 92.08 95.82 92.38 95.37 92.7C94.91 93.01 94.51 93.36 94.1 93.78C93.48 94.41 93.04 95.12 92.72 95.82C92.65 95.98 92.6 96.14 92.54 96.29C92.27 96.86 92.02 96.99 91.51 97C91.39 97 91.27 97.01 91.16 97C90.8 96.97 90.55 96.58 90.57 95.93C90.66 94.99 91.13 94.05 91.71 93.3C92 92.92 92.32 92.59 92.64 92.28C92.96 91.97 93.26 91.69 93.68 91.36C94.81 90.5 95.92 89.91 97.04 89.27L97.07 89.31H97.04Z" fill="#231F20"/>
<path d="M117.39 102.28C117.48 102.19 117.58 102.1 117.63 102.02C117.67 101.98 117.69 101.94 117.71 101.9C117.73 101.86 117.76 101.84 117.78 101.73C117.87 101.39 117.93 100.99 117.98 100.6C118.01 100.31 118 100.02 118.03 99.72C118.14 98.68 118.31 97.62 118.37 96.56C118.42 96.09 118.43 95.61 118.45 95.15C118.46 94.55 118.48 93.94 118.58 93.34C118.61 93.15 118.69 93.18 118.8 93.34C118.9 93.5 119.08 93.78 119.17 94.12C119.43 95.33 119.75 96.55 119.61 97.8C119.56 98.55 119.68 99.32 119.63 100.1C119.61 100.53 119.58 100.95 119.52 101.39C119.5 101.61 119.46 101.83 119.42 102.06C119.35 102.32 119.27 102.62 119.12 102.84C118.78 103.42 118.32 103.79 117.88 104.13C117.2 104.62 116.49 104.98 115.84 105.4C115.34 105.72 114.91 106.13 114.49 106.48C114.4 106.55 114.32 106.64 114.22 106.7C113.88 106.95 113.74 106.94 113.36 106.74C113.27 106.69 113.18 106.66 113.1 106.61C112.83 106.46 112.76 106.1 112.99 105.71C113.64 104.53 114.7 103.98 115.62 103.44C116.3 103.05 116.97 102.67 117.37 102.27L117.4 102.3L117.39 102.28Z" fill="#231F20"/>
<path d="M80.6798 57.71C80.6998 56.58 80.7498 55.45 80.7298 54.32C80.7298 53.91 80.6698 53.5 80.6598 53.09C80.6498 52.37 80.6198 51.66 80.5498 50.96C80.4798 50.23 80.3598 49.53 80.2698 48.82C80.1698 48.2 79.9898 47.61 79.7098 47.08C79.5398 46.74 79.2998 46.45 79.0598 46.17C78.8398 45.87 78.5598 45.58 78.2098 45.37C77.9998 45.22 78.0298 45.21 78.2698 45.2C78.4998 45.19 79.0098 45.14 79.5598 45.36C80.4798 45.84 80.9998 46.78 81.3698 47.62C81.5598 48.05 81.6898 48.49 81.7998 48.92C81.8798 49.36 81.9198 49.8 81.9498 50.23C82.0298 51.27 82.2298 52.37 82.2898 53.42C82.3598 54.58 82.3698 55.74 82.3798 56.89L82.3598 59.02C82.3598 60.09 82.2998 61.17 82.3198 62.24C82.3298 63.07 82.4398 63.89 82.4198 64.71C82.4198 64.89 82.4198 65.07 82.4198 65.25C82.3998 65.93 82.1498 66.14 81.8398 66.26C81.7598 66.29 81.6898 66.32 81.6198 66.34C81.3898 66.38 81.1898 66.09 81.0398 65.6C80.9198 64.88 80.7798 64.14 80.7198 63.39C80.6798 62.64 80.6698 61.88 80.6598 61.11C80.6598 59.97 80.6498 58.83 80.6398 57.69H80.6798V57.71Z" fill="#231F20"/>
<path d="M14.15 68.99C14.15 68.99 7.14 69.74 9.02 70.87C10.9 72 19.77 75.14 19.77 75.14L14.57 71.97L14.15 68.98V68.99Z" fill="#231F20"/>
<path d="M58.0798 102.44C58.0798 102.44 51.7298 102.68 52.5798 103.9C53.4298 105.12 65.5998 109.55 65.5998 109.55L58.4798 105.44L58.0798 102.44Z" fill="#231F20"/>
<path d="M55.4002 86.4C54.9302 86.6 54.4702 86.8 54.0102 87C53.8402 87.08 53.7102 87.21 53.5402 87.28C52.9402 87.53 52.2802 87.67 51.6802 87.9C51.4102 88 51.1702 88.15 50.9202 88.27C50.7602 88.35 50.6102 88.46 50.4502 88.53C50.3702 88.57 50.2802 88.6 50.1902 88.62C50.1502 88.64 50.0902 88.62 50.0202 88.59C49.9502 88.57 49.9002 88.56 49.8402 88.55C49.6902 88.51 49.6102 88.34 49.5402 88.03C49.4902 87.81 49.4502 87.59 49.4102 87.43C49.3802 87.21 49.4102 87.08 49.4702 86.99C49.7202 86.71 49.9602 86.41 50.2502 86.22C50.5602 86.05 50.9002 85.91 51.2702 85.83C51.7102 85.73 52.0202 85.39 52.4202 85.19C52.8502 84.97 53.2902 84.75 53.7202 84.53C53.9902 84.39 54.2602 84.26 54.5102 84.11C54.9002 83.88 55.3102 83.67 55.6602 83.38C55.9302 83.15 56.0902 82.8 56.3002 82.49C56.3502 82.42 56.3702 82.33 56.4502 82.3C56.5102 82.27 56.5702 82.25 56.6402 82.25C56.7102 82.26 56.8002 82.32 56.8802 82.37C57.0402 82.48 57.1902 82.62 57.3602 82.8L57.5802 83.03C57.6902 83.16 57.7602 83.29 57.8302 83.47C57.8902 83.65 57.9802 83.9 58.0002 84.1C57.9702 84.59 57.7402 84.82 57.5302 85.08C57.3102 85.33 57.0402 85.53 56.7602 85.72C56.3502 86 55.8902 86.23 55.4502 86.48L55.4102 86.43L55.4002 86.4Z" fill="#231F20"/>
<path d="M31.83 54.88C29.65 53.89 27.46 52.91 25.26 51.95C24.46 51.6 23.62 51.34 22.82 50.98L18.59 49.1L18.06 48.87L17.26 48.54C16.68 48.31 16.17 48.06 15.65 47.82C14.45 47.36 14.01 46.85 13.75 46.32C13.97 45.76 14.39 45.26 15.18 44.69C15.97 44.16 16.97 43.58 17.79 43.16C19.31 42.26 20.89 41.45 22.75 41.27C23.38 41.33 23.3 41.33 23.06 41.89C22.94 42.18 22.75 42.53 22.53 42.96C22.41 43.17 22.3 43.41 22.15 43.61C21.99 43.8 21.82 43.98 21.62 44.14C21.26 44.4 20.94 44.73 20.55 44.94L19.41 45.59L19.13 45.75C19.05 45.79 19.11 45.76 19.09 45.77C19.09 45.77 19.08 45.77 19.07 45.77C19.05 45.77 19.03 45.77 18.98 45.77C18.92 45.77 18.66 45.83 18.69 45.89C18.67 45.95 18.71 46.06 18.87 46.22C18.83 46.24 19.2 46.4 19.42 46.51L20.17 46.84C20.67 47.05 21.19 47.26 21.7 47.45C22.73 47.84 23.77 48.22 24.79 48.64L31.48 51.48L35.59 53.25C37.67 54.13 39.73 55.07 41.82 55.9C43.44 56.55 45.09 57.03 46.74 57.64C47.1 57.77 47.47 57.89 47.83 58.05C48.49 58.34 48.91 58.59 49.15 58.9C49.39 59.19 49.42 59.53 49.35 59.96C49.32 60.15 49.31 60.35 49.25 60.51C49.08 61.02 48.25 61.33 47.35 61.01C44.45 60.19 41.45 59.02 38.47 57.78C36.25 56.86 34.04 55.87 31.82 54.94L31.84 54.87L31.83 54.88Z" fill="#231F20"/>
<path d="M52.6801 32.91C51.0601 32.69 49.5201 32.63 47.9601 32.91C47.3901 33.01 46.8401 33.22 46.2701 33.38C45.9601 33.46 45.6501 33.56 45.3401 33.65L44.5401 33.92L43.5801 34.46L42.5301 35.02C41.8301 35.39 41.1201 35.73 40.4101 36.08C39.4901 36.51 38.6001 37.01 37.6801 37.43C36.5001 37.94 35.3501 38.7 33.9101 38.45C33.4401 38.29 33.4701 38.17 33.6401 37.61C33.8001 37 34.1201 36.13 34.7201 35.79C36.9001 34.66 39.1401 33.66 41.4801 32.64C41.7701 32.51 42.0501 32.37 42.3201 32.22L42.7301 31.98C42.8801 31.88 42.9401 31.85 43.2101 31.66L43.6601 31.45L44.0101 31.3L44.7101 31.02C45.1801 30.84 45.6501 30.68 46.1401 30.55C47.9301 30.06 49.9001 29.89 51.7301 30.04C52.8601 30.12 53.9701 30.29 55.0601 30.49C55.4301 30.56 55.8101 30.64 56.1801 30.72L56.7301 30.86L57.3801 31.03L58.6601 31.71L59.8601 32.32C61.0001 32.88 62.1801 33.28 63.3501 33.78C63.6101 33.89 63.8701 33.98 64.1201 34.11C65.0501 34.6 65.3101 34.94 65.0501 35.75C65.0001 35.92 64.9601 36.07 64.8901 36.2C64.6501 36.56 64.0501 36.95 63.3801 36.69C61.2801 36.05 59.1601 35.05 57.0801 33.99L56.6501 33.77L56.4401 33.66C56.4401 33.66 56.4301 33.66 56.4201 33.65C56.4101 33.65 56.4501 33.65 56.3901 33.65L56.1501 33.59L55.6701 33.48L54.6901 33.28C54.0301 33.16 53.3701 33.06 52.7101 32.99V32.92L52.6801 32.91Z" fill="#231F20"/>
<path d="M108.28 107.19L115.3 103.95C115.72 103.75 116.13 103.53 116.55 103.31L117.16 102.98L117.47 102.82L117.62 102.74L117.67 102.72L117.9 102.62C117.96 102.55 117.95 102.43 117.97 102.33L118 101.25L118.04 98.97L118.08 94.4C118.08 92.92 118.02 91.44 117.95 89.97C117.85 88.09 117.6 86.19 118.33 84.29C118.74 83.7 118.62 83.78 119.07 84.28C119.31 84.53 119.56 84.88 119.89 85.3C120.17 85.72 120.38 86.21 120.49 86.75C120.87 90.56 120.81 94.4 120.61 98.29C120.56 99.14 120.55 100 120.56 100.87L120.58 102.19C120.58 102.41 120.62 102.9 120.55 103.2C120.47 103.53 120.44 103.88 120.3 104.18C119.93 104.53 119.46 104.78 119.05 105.08C118.71 105.29 118.46 105.41 118.16 105.57C115.83 106.81 113.47 107.93 111.1 109.04L106.72 111.07C104.51 112.09 102.26 113.07 100.07 114.11C98.3698 114.92 96.7598 115.85 95.0798 116.68C94.7098 116.86 94.3498 117.06 93.9698 117.23C92.5498 117.85 91.9898 117.82 91.4298 117.22C91.2998 117.08 91.1498 116.95 91.0498 116.8C90.7198 116.29 91.1398 115.62 92.0898 115.08C94.9298 113.44 98.0398 111.94 101.19 110.45C103.53 109.35 105.89 108.24 108.24 107.14L108.28 107.2V107.19Z" fill="#231F20"/>
<path d="M101.21 86.5499L105.66 84.5699C106.2 84.3299 106.71 84.0099 107.25 83.7699C109.17 82.9199 111.09 82.0699 113.01 81.2199C113.85 80.8199 114.69 80.3999 115.51 79.9799C116.58 79.4599 117.54 78.7099 118.92 78.8199C119.43 79.0199 119.27 78.8099 119.14 79.2399C119.05 79.7599 118.78 80.5099 118.26 80.9899C117.25 81.6599 116.21 82.2699 115.16 82.8599C114.07 83.3799 112.96 83.8699 111.81 84.2999C110.43 84.8199 109.15 85.6399 107.81 86.3099C106.34 87.0499 104.84 87.7399 103.34 88.4199L100.56 89.6799C99.16 90.3199 97.73 90.9099 96.35 91.5699C95.28 92.0799 94.28 92.7099 93.23 93.2599C93 93.3799 92.78 93.5299 92.54 93.6299C92.09 93.8199 91.78 93.9199 91.52 93.8699C91.25 93.7999 91.05 93.6299 90.84 93.3599C90.74 93.2399 90.64 93.1299 90.56 93.0099C90.43 92.7999 90.43 92.5699 90.51 92.3099C90.6 92.0499 90.77 91.7399 91.07 91.5699C92.81 90.3899 94.76 89.4799 96.73 88.5499C98.2 87.8699 99.68 87.1799 101.16 86.4999L101.19 86.5599L101.21 86.5499Z" fill="#231F20"/>
<path d="M73.1001 71.53C71.2001 71.43 69.4201 71.15 67.8201 71.18C67.5401 71.19 67.2501 71.22 67.0501 71.29C66.9501 71.31 66.9001 71.34 66.8201 71.38C66.7301 71.44 66.6801 71.54 66.6601 71.66C66.6501 71.68 66.6601 71.94 66.6601 72.1L66.7001 72.71C66.7101 72.93 66.7301 73.16 66.7201 73.42C66.7201 73.55 66.7201 73.67 66.7001 73.82C66.6901 73.99 66.6701 74.17 66.6201 74.32C66.5401 74.64 66.4101 74.96 66.2001 75.21C66.1001 75.35 65.9901 75.46 65.8401 75.55L65.6401 75.7C65.6501 75.87 65.7301 76.13 65.7701 76.34C65.1001 75.32 65.5801 76.06 65.4301 75.83H65.4201L65.4001 75.85L65.3501 75.88L65.2701 75.92L65.1601 75.97L64.9401 76.08L64.5101 76.3L63.6501 76.74C62.7401 77.2 61.8701 77.74 61.0001 78.26C60.4401 78.59 59.8901 78.94 59.3301 79.26C59.0401 79.41 58.7701 79.59 58.4501 79.69C58.1301 79.79 57.8001 79.87 57.4601 79.93C57.0301 80 56.9401 79.75 57.0301 79.23C57.0701 78.97 57.1401 78.61 57.2801 78.26C57.3501 78.09 57.4101 77.88 57.5201 77.73C57.6401 77.59 57.7701 77.46 57.9301 77.36C58.9501 76.71 59.9501 76.03 61.0301 75.48C61.5601 75.2 62.1001 74.92 62.6501 74.65L63.4701 74.26L63.8801 74.07L64.0901 73.98L64.1901 73.93C64.1901 73.93 64.1901 73.93 64.2001 73.93V73.94C63.9901 73.63 64.6601 74.64 63.7401 73.24L64.0801 73.72L64.2301 73.93H64.2401H64.2901C64.3201 73.93 64.3601 73.91 64.3901 73.89C64.4801 73.81 64.5201 73.78 64.5201 73.39C64.5201 73.05 64.4501 72.65 64.4101 72.19C64.4001 72.07 64.3901 71.96 64.3801 71.83C64.3801 71.69 64.3601 71.49 64.3801 71.33C64.4001 70.99 64.4701 70.65 64.6101 70.34C64.8801 69.71 65.4901 69.31 66.1301 69.1C66.5101 68.99 66.7701 68.94 67.0301 68.91C67.2901 68.88 67.5501 68.85 67.7901 68.85C68.2901 68.83 68.7601 68.84 69.2301 68.85C70.1601 68.89 71.0701 68.97 71.9601 69.02C73.0401 69.08 74.1601 69.14 75.0301 68.94C75.2601 68.88 75.6801 68.69 76.0701 68.53L77.2301 68.03C78.0001 67.69 78.7701 67.35 79.5201 66.98C80.6901 66.41 81.7801 65.72 82.9001 65.08C83.1501 64.94 83.3801 64.78 83.6301 64.65C84.5601 64.14 85.0001 64.29 85.4601 64.76C85.5701 64.87 85.6901 64.98 85.7701 65.09C86.0601 65.48 85.8401 66.06 85.2401 66.6C83.3501 67.98 81.2101 69.09 78.9901 70.05L76.5001 71.11C75.1301 71.67 74.0801 71.58 73.1101 71.59V71.53H73.1001Z" fill="#231F20"/>
<path d="M100.69 66.49C101.26 66.78 101.84 67.07 102.42 67.35C102.63 67.45 102.87 67.48 103.07 67.61C103.8 68.03 104.52 68.46 105.27 68.84C105.6 69 105.93 69.17 106.27 69.31C106.73 69.41 107.07 69.87 107.49 70.06C107.62 70.14 107.55 70.26 107.39 70.36C107.31 70.41 107.2 70.46 107.08 70.48C106.95 70.53 106.79 70.61 106.64 70.64C105.57 70.85 104.66 70.58 103.82 70.09C103.32 69.8 102.71 69.73 102.15 69.54C101.56 69.29 100.96 69.03 100.36 68.78C99.9901 68.62 99.6201 68.46 99.2601 68.31C98.7001 68.08 98.1501 67.82 97.5701 67.65C97.1201 67.51 96.6301 67.55 96.1701 67.45C96.0701 67.43 95.9701 67.42 95.8701 67.38C95.6901 67.31 95.5901 67.23 95.5501 67.08C95.5301 66.9 95.5501 66.7 95.6001 66.45C95.6201 66.34 95.6401 66.23 95.6701 66.13C95.7201 65.96 95.8001 65.82 95.9301 65.68C96.0601 65.54 96.2401 65.36 96.3801 65.36C97.3501 65.1 98.1301 65.43 98.9401 65.71C99.5401 65.93 100.12 66.21 100.71 66.46L100.69 66.51V66.49Z" fill="#231F20"/>
<path d="M83.7702 51.25L83.7002 54.99C83.7002 55.44 83.7502 55.9 83.7402 56.35C83.6802 57.96 83.5802 59.57 83.4102 61.18C83.3502 61.89 83.3202 62.61 83.3002 63.32C83.2802 64.23 83.0702 65.15 82.7302 66.03C82.6202 66.3 82.4302 66.23 82.2002 65.96C81.9802 65.69 81.6602 65.22 81.5802 64.71C81.3702 63.8 81.4002 62.92 81.4002 62.03C81.4002 61.13 81.4202 60.23 81.5202 59.32C81.6502 58.22 81.4802 57.09 81.4402 55.97L81.3202 52.25L81.2302 49.95C81.1702 48.79 81.1502 47.62 81.0202 46.47C80.9302 45.57 80.6502 44.7 80.5102 43.8C80.4902 43.6 80.4502 43.41 80.4502 43.21C80.4502 42.83 80.5102 42.58 80.6602 42.41C80.8502 42.24 81.0702 42.14 81.3702 42.06C81.5102 42.03 81.6402 41.98 81.7602 41.96C81.9702 41.93 82.1702 41.99 82.3802 42.12C82.5902 42.25 82.8502 42.45 82.9302 42.71C83.0802 43.09 83.2502 43.48 83.3802 43.86C83.4602 44.25 83.5302 44.65 83.5802 45.05C83.6802 45.85 83.7302 46.68 83.7702 47.51C83.8202 48.74 83.8202 50 83.8502 51.25H83.7902H83.7702Z" fill="#231F20"/>
<path d="M50.88 68.0801L51.02 78.1901C51.06 79.8801 51.01 81.5601 50.96 83.2601L50.84 86.71C50.81 87.05 50.82 87.43 50.68 87.6501C50.54 87.8701 50.3 87.94 50.16 88.07L50.04 88.1501L49.98 88.1901L49.95 88.21C50.05 88.35 49.72 87.89 50.17 88.53H50.15H49.78H49.04L48.54 88.5501L45.92 87.5L44.31 86.84C43.24 86.39 42.17 85.9501 41.11 85.4701C33.19 81.9201 25.36 78.25 17.55 74.4701C16.67 74.0401 15.84 73.6401 14.92 73.1601C14.59 73.0101 14.32 72.78 14.04 72.57C13.87 72.48 13.84 72.3 13.78 72.14C13.72 71.98 13.71 71.7901 13.67 71.6201C13.64 71.4501 13.6 71.26 13.58 71.1L13.55 70.7201L13.5 69.9801C13.4 68.0301 13.35 66.11 13.31 64.2C13.25 61.75 13.2 59.2901 13.26 56.8301C13.29 55.6001 13.29 54.3701 13.4 53.1501C13.51 51.9201 13.64 50.7001 13.78 49.4801C13.98 47.9601 14.19 48.1701 14.55 49.4701C14.73 50.1201 14.97 51.0401 15.21 52.1501C15.33 52.7001 15.47 53.31 15.56 53.94C15.63 54.58 15.68 55.2501 15.71 55.9601C15.96 60.91 15.81 65.99 16.09 70.81C16.09 70.96 16.07 70.9001 16.13 70.9601C16.59 71.2101 17.2 71.5 17.73 71.77L21.09 73.4101C23.34 74.5001 25.6 75.6001 27.87 76.6901C33.28 79.3201 39.08 81.73 44.73 84.13L47.66 85.3701L48 85.5101L48.09 85.5501C48.09 85.5501 48.15 85.57 48.14 85.53V85.35L48.17 84.6101L48.05 80.6601L47.9 72.56L47.75 66.31L47.66 63.1901L47.6 59.4801C48 59.1501 48.57 58.9101 49.08 58.6401L50.25 58.0601L52.37 57.0001L56.61 54.87C59.43 53.45 62.25 52.0201 65.03 50.5701C67.19 49.4401 69.31 48.2901 71.42 47.1301C73.46 45.9801 75.5 44.8401 77.55 43.6801L77.81 43.51L77.93 43.4301L77.99 43.3901L78.02 43.37H78.03V43.3601C77.98 43.3401 78.14 43.4001 77.92 43.3201L78.03 43.3601L78.04 43.35L78.06 43.3301L78.11 43.3001L78.2 43.2401L78.39 43.12C78.44 43.07 78.52 43.0601 78.55 42.9901C78.51 42.9301 78.43 42.9001 78.38 42.8601C78.27 42.8001 78.17 42.74 78.07 42.69C77.89 42.58 77.77 42.4601 77.66 42.3201C77.59 42.2401 77.59 42.1901 77.46 42.0501C77.32 41.9 77.19 41.75 77.09 41.6C76.89 41.3 76.78 41.0101 76.72 40.7001C76.67 40.4201 76.59 40.1001 76.64 39.8901C76.73 39.5301 77.13 39.5301 77.79 39.6801C77.96 39.7201 78.14 39.7701 78.35 39.8301C78.45 39.8601 78.56 39.8901 78.68 39.9301C78.72 39.9401 78.82 39.9801 78.93 40.0201C79.03 40.0601 79.14 40.1001 79.24 40.1401C80.04 40.5001 81.23 40.9001 82.13 41.4901C82.5 41.7501 82.76 42.02 82.94 42.26C83.1 42.52 83.32 42.73 83.26 43.12L83.13 43.4701C83.07 43.6001 82.94 43.7501 82.85 43.9001L82.56 44.3401C82.54 44.4101 82.39 44.4901 82.3 44.5701L82.14 44.69L82.06 44.7501L82.02 44.78H82L81.99 44.8001C82.05 44.8201 81.86 44.75 82.12 44.85C81.85 44.76 82.04 44.8301 81.98 44.8101L81.96 44.8201L81.93 44.8401L81.86 44.8801L81.73 44.9501L81.46 45.1L80.92 45.3901L79.82 45.9801L78.14 46.8901C77.32 47.3401 76.5 47.7801 75.67 48.2301C74.01 49.1201 72.33 50.0101 70.65 50.9101C67.28 52.7101 63.84 54.4801 60.39 56.2501C57.37 57.7801 54.34 59.3201 51.32 60.8601L50.75 61.1501C50.75 61.1501 50.75 61.15 50.73 61.17C50.73 61.18 50.73 61.2001 50.73 61.2101V61.2301V61.3901L50.76 61.7101L50.85 62.9901L51 68.1H50.92L50.88 68.0801Z" fill="#231F20"/>
<path d="M24.6501 43.29C25.6901 43.64 26.9101 43.8 28.1101 43.82C28.5501 43.84 28.9801 43.74 29.4201 43.72C30.1901 43.68 30.9501 43.57 31.6001 43.36C31.9201 43.26 32.1901 43.11 32.3301 43C32.3501 42.98 32.3801 42.96 32.4201 42.94C32.4601 42.87 32.4901 42.81 32.5301 42.73C32.6001 42.57 32.6701 42.39 32.7401 42.21C32.9601 41.54 33.0801 40.81 33.1601 40.09C33.2601 39.15 33.1701 38.25 33.7801 37.34C34.1401 37.03 33.9601 37.06 34.3301 37.3C34.5301 37.42 34.7401 37.6 35.0101 37.84C35.2401 38.08 35.4001 38.36 35.4701 38.66C35.5001 38.79 35.5301 38.93 35.5501 39.06V39.45C35.5301 39.71 35.5101 39.97 35.4901 40.23C35.4401 40.75 35.3801 41.26 35.2701 41.78C35.1601 42.3 35.0201 42.81 34.8001 43.38C34.7501 43.52 34.6701 43.68 34.5901 43.84C34.5001 44.02 34.3301 44.25 34.1801 44.44C34.0201 44.65 33.8701 44.72 33.7101 44.85C33.5501 44.98 33.3901 45.07 33.2401 45.14C32.5101 45.52 31.8601 45.7 31.2101 45.91C30.5601 46.09 29.9101 46.26 29.2501 46.32C27.8201 46.48 26.3901 46.39 24.9701 46.11C24.1001 45.94 23.2201 45.68 22.3701 45.24L22.1301 45.12C21.3601 44.65 20.9801 43.92 20.7501 43.29C20.5101 42.65 20.4001 42.02 20.3101 41.39C20.1701 40.36 19.9901 39.34 20.1201 38.29C20.1501 38.06 20.1601 37.83 20.2301 37.6C20.3201 37.17 20.5101 36.91 20.7301 36.78C20.9401 36.64 21.1701 36.61 21.4201 36.63C21.5301 36.63 21.6401 36.63 21.7201 36.65C21.9701 36.69 22.2401 37.16 22.3901 37.7C22.4501 38.46 22.5801 39.22 22.6601 39.95C22.7601 40.68 22.9101 41.42 23.1301 42C23.3101 42.5 23.5401 42.75 23.4701 42.71C23.7601 42.87 24.1901 43.09 24.6701 43.2V43.27L24.6501 43.29Z" fill="#231F20"/>
<path d="M46.4001 34.1101C47.4401 34.4601 48.6601 34.6201 49.8601 34.6401C50.3001 34.6601 50.7301 34.5601 51.1701 34.5401C51.9401 34.5001 52.7001 34.3901 53.3501 34.1801C53.6701 34.0801 53.9401 33.9301 54.0801 33.8201C54.1001 33.8001 54.1301 33.7801 54.1701 33.7601C54.2101 33.6901 54.2401 33.6301 54.2801 33.5501C54.3501 33.3901 54.4201 33.2101 54.4901 33.0301C54.7101 32.3601 54.8301 31.6301 54.9101 30.9101C55.0101 29.9701 54.9201 29.0701 55.5301 28.1601C55.8901 27.8501 55.7101 27.8801 56.0801 28.1201C56.2801 28.2401 56.4901 28.4201 56.7601 28.6601C56.9901 28.9001 57.1501 29.1801 57.2201 29.4801C57.2501 29.6101 57.2801 29.7501 57.3001 29.8801V30.2701C57.2801 30.5301 57.2601 30.7901 57.2401 31.0501C57.1901 31.5701 57.1301 32.0801 57.0201 32.6001C56.9101 33.1201 56.7701 33.6301 56.5501 34.2001C56.5001 34.3401 56.4201 34.5001 56.3401 34.6601C56.2501 34.8401 56.0801 35.0701 55.9301 35.2601C55.7701 35.4701 55.6201 35.5401 55.4601 35.6701C55.3001 35.8001 55.1401 35.8901 54.9901 35.9601C54.2601 36.3401 53.6101 36.5201 52.9601 36.7301C52.3101 36.9101 51.6601 37.0801 51.0001 37.1401C49.5701 37.3001 48.1401 37.2101 46.7201 36.9301C45.8501 36.7601 44.9701 36.5001 44.1201 36.0601L43.8801 35.9401C43.1101 35.4701 42.7301 34.7401 42.5001 34.1201C42.2601 33.4801 42.1501 32.8501 42.0601 32.2201C41.9201 31.1901 41.7401 30.1701 41.8701 29.1201C41.9001 28.8901 41.9101 28.6601 41.9801 28.4301C42.0701 28.0001 42.2601 27.7401 42.4801 27.6101C42.6901 27.4701 42.9201 27.4401 43.1701 27.4601C43.2801 27.4601 43.3901 27.4601 43.4701 27.4801C43.7201 27.5201 43.9901 27.9901 44.1401 28.5301C44.2001 29.2901 44.3301 30.0501 44.4101 30.7801C44.5101 31.5101 44.6601 32.2501 44.8801 32.8301C45.0601 33.3301 45.3001 33.5801 45.2201 33.5501C45.5101 33.7101 45.9501 33.9301 46.4301 34.0401V34.1101H46.4001Z" fill="#231F20"/>
<path d="M67.0202 41.64C68.0602 41.99 69.2802 42.15 70.4802 42.17C70.9202 42.19 71.3502 42.09 71.7902 42.07C72.5602 42.03 73.3202 41.92 73.9702 41.71C74.2902 41.61 74.5602 41.46 74.7002 41.35C74.7202 41.33 74.7502 41.31 74.7902 41.29C74.8302 41.22 74.8602 41.16 74.9002 41.08C74.9702 40.92 75.0402 40.74 75.1102 40.56C75.3302 39.89 75.4502 39.16 75.5302 38.44C75.6302 37.5 75.5402 36.6 76.1502 35.69C76.5102 35.38 76.3302 35.41 76.7002 35.65C76.9002 35.77 77.1102 35.95 77.3802 36.19C77.6102 36.43 77.7702 36.71 77.8402 37.01C77.8702 37.14 77.9002 37.28 77.9202 37.41V37.8C77.9002 38.06 77.8802 38.32 77.8602 38.58C77.8102 39.1 77.7502 39.61 77.6402 40.13C77.5302 40.65 77.3902 41.16 77.1702 41.73C77.1202 41.87 77.0402 42.03 76.9602 42.19C76.8702 42.37 76.7002 42.6 76.5502 42.79C76.3902 43 76.2402 43.07 76.0802 43.2C75.9202 43.33 75.7602 43.42 75.6102 43.49C74.8802 43.87 74.2302 44.05 73.5802 44.26C72.9302 44.44 72.2802 44.61 71.6202 44.67C70.1902 44.83 68.7602 44.74 67.3402 44.46C66.4702 44.29 65.5902 44.03 64.7402 43.59L64.5002 43.47C63.7302 43 63.3502 42.27 63.1202 41.64C62.8802 41 62.7702 40.37 62.6802 39.74C62.5402 38.71 62.3602 37.69 62.4902 36.64C62.5202 36.41 62.5302 36.18 62.6002 35.95C62.6902 35.52 62.8802 35.26 63.1002 35.13C63.3102 34.99 63.5402 34.96 63.7902 34.98C63.9002 34.98 64.0102 34.98 64.0902 35C64.3402 35.04 64.6102 35.51 64.7602 36.05C64.8202 36.81 64.9502 37.57 65.0302 38.3C65.1302 39.03 65.2802 39.77 65.5002 40.35C65.6802 40.85 65.9102 41.1 65.8402 41.06C66.1302 41.22 66.5602 41.44 67.0402 41.55V41.62L67.0202 41.64Z" fill="#231F20"/>
<path d="M46.07 53.26C47.11 53.61 48.33 53.77 49.53 53.79C49.97 53.81 50.4 53.71 50.84 53.69C51.61 53.65 52.37 53.54 53.02 53.33C53.34 53.23 53.61 53.08 53.75 52.97C53.77 52.95 53.8 52.93 53.84 52.91C53.88 52.84 53.91 52.78 53.95 52.7C54.02 52.54 54.09 52.36 54.16 52.18C54.38 51.51 54.5 50.78 54.58 50.06C54.68 49.12 54.59 48.22 55.2 47.31C55.56 47 55.38 47.03 55.75 47.27C55.95 47.39 56.16 47.57 56.43 47.81C56.66 48.05 56.82 48.33 56.89 48.63C56.92 48.76 56.95 48.9 56.97 49.03V49.42C56.95 49.6799 56.93 49.94 56.91 50.2C56.86 50.72 56.8 51.23 56.69 51.75C56.58 52.27 56.44 52.78 56.22 53.35C56.17 53.49 56.09 53.65 56.01 53.81C55.92 53.99 55.75 54.22 55.6 54.41C55.44 54.62 55.29 54.69 55.13 54.82C54.97 54.95 54.81 55.04 54.66 55.11C53.93 55.49 53.28 55.67 52.63 55.88C51.98 56.06 51.33 56.23 50.67 56.29C49.24 56.45 47.81 56.36 46.39 56.08C45.52 55.91 44.64 55.65 43.79 55.21L43.55 55.09C42.78 54.62 42.4 53.89 42.17 53.26C41.93 52.62 41.82 51.99 41.73 51.36C41.59 50.33 41.41 49.31 41.54 48.26C41.57 48.03 41.58 47.8 41.65 47.57C41.74 47.14 41.93 46.88 42.15 46.75C42.36 46.61 42.59 46.58 42.84 46.6C42.95 46.6 43.06 46.6 43.14 46.62C43.39 46.66 43.66 47.1299 43.81 47.67C43.87 48.4299 44 49.1899 44.08 49.92C44.18 50.65 44.33 51.39 44.55 51.97C44.73 52.47 44.96 52.72 44.89 52.68C45.18 52.84 45.61 53.0599 46.09 53.17V53.24L46.07 53.26Z" fill="#231F20"/>
<path d="M41.9498 29.86C41.9098 29.77 41.8698 29.66 41.8298 29.55C41.8098 29.43 41.8298 29.29 41.8098 29.16C41.7798 28.89 41.8198 28.64 41.8998 28.41C41.9498 28.18 42.0798 27.99 42.1898 27.8C42.2898 27.61 42.4598 27.45 42.6098 27.29C43.2798 26.67 44.2998 26.16 45.6198 25.86C46.0898 25.74 46.5698 25.64 47.0598 25.55C47.3098 25.5 47.5598 25.48 47.8198 25.44L48.1898 25.4H48.4298C49.5398 25.36 50.6498 25.43 51.7498 25.6C52.8498 25.77 53.9498 26.04 55.0098 26.56C55.1798 26.64 55.3198 26.72 55.5198 26.82C55.7298 26.93 55.9198 27.08 56.1198 27.2C56.5198 27.46 56.8498 27.78 57.0898 28.14C57.2998 28.46 57.4598 28.8 57.4398 29.19C57.4598 29.38 57.3098 29.54 57.2498 29.7C57.1898 29.86 57.0598 30 56.9298 30.14C56.6298 30.4 56.3198 30.71 55.8198 30.87C54.6898 31.23 54.2798 31.23 53.5698 31.09C53.1398 30.96 53.2198 30.94 53.4498 30.6C53.5598 30.42 53.7098 30.16 53.8698 29.83C53.9498 29.67 54.0598 29.57 54.1598 29.45L54.2298 29.37C54.2298 29.37 54.2298 29.37 54.2298 29.35V29.33C54.2298 29.33 54.1998 29.35 54.2698 29.3C54.2498 29.3 54.2698 29.28 54.2698 29.25C54.2698 29.25 54.2698 29.24 54.2698 29.23C54.2698 29.23 54.2698 29.23 54.2698 29.21L54.1898 29.16C54.0798 29.1 53.9398 29.05 53.8198 28.98C53.2998 28.76 52.6998 28.55 52.0698 28.33C51.4498 28.13 50.7698 28.05 50.0798 28.05C49.7398 28.05 49.3898 28.05 49.0498 28.08L48.5398 28.11H48.2998C48.0298 28.12 47.7098 28.14 47.3498 28.2C46.9998 28.27 46.5498 28.36 46.2698 28.68C46.1898 28.78 46.1498 28.91 46.1698 29.01C46.1998 29.11 46.2798 29.18 46.3598 29.23C46.5298 29.34 46.7298 29.42 46.9598 29.48C47.2998 29.57 47.6698 29.65 48.0898 29.7L48.3998 29.73L48.9098 29.76C49.2698 29.77 49.6398 29.78 49.9998 29.76C51.1298 29.72 52.2298 29.47 53.2498 29.19C53.4798 29.13 53.6798 29.03 53.8998 28.97C54.6898 28.76 54.8698 28.93 55.3498 29.39L55.6998 29.69C55.8798 29.86 55.9598 30.08 55.8498 30.38C55.7498 30.66 55.4898 30.98 55.1298 31.22C54.0298 31.87 52.8898 32.08 51.7598 32.24C50.6198 32.38 49.4798 32.4 48.3098 32.33C46.7098 32.24 45.0998 31.99 43.9198 31.57C42.7498 31.12 42.1298 30.6 41.8798 29.85H41.9498V29.86Z" fill="#231F20"/>
<path d="M62.5601 37.39C62.5201 37.3 62.4801 37.19 62.4401 37.08C62.4201 36.96 62.4401 36.82 62.4201 36.69C62.3901 36.42 62.4301 36.17 62.5101 35.94C62.5601 35.71 62.6901 35.52 62.8001 35.33C62.9001 35.14 63.0701 34.98 63.2201 34.82C63.8901 34.2 64.9101 33.69 66.2301 33.39C66.7001 33.27 67.1801 33.17 67.6701 33.08C67.9201 33.03 68.1701 33.01 68.4301 32.97L68.8001 32.93H69.0401C70.1501 32.89 71.2601 32.96 72.3601 33.13C73.4601 33.3 74.5601 33.57 75.6201 34.09C76.0901 34.32 76.5701 34.57 77.0201 34.93C77.2401 35.11 77.4701 35.3 77.6601 35.54C77.7601 35.68 77.8201 35.72 77.9601 36.07C78.0901 36.31 78.0701 36.77 77.9601 37.01C77.6601 37.7 77.2801 37.86 76.9901 38.07C76.6801 38.25 76.3701 38.38 76.0701 38.47C75.7601 38.57 75.4601 38.64 75.1501 38.68C74.8501 38.75 74.5001 38.64 74.1801 38.6C73.7501 38.47 73.8301 38.45 74.0601 38.11C74.1701 37.93 74.3201 37.67 74.4801 37.34C74.6501 37.05 74.8701 36.83 75.1101 36.65C75.3301 36.5 75.5201 36.33 75.6801 36.2C75.7701 36.13 75.8101 36.07 75.8501 36.02C75.8801 36.02 75.8101 35.95 75.8901 36.02L76.0401 36.16L76.1301 36.26C76.2001 36.32 76.2701 36.38 76.3501 36.43L76.4701 36.5C76.4701 36.5 76.5101 36.53 76.5301 36.54C76.5701 36.57 76.6201 36.58 76.6801 36.59C76.7401 36.59 76.6901 36.59 76.7101 36.59C76.7001 36.59 76.7601 36.59 76.7101 36.59C76.6601 36.59 76.6201 36.62 76.5801 36.64C76.5601 36.65 76.5501 36.67 76.5301 36.68H76.5201V36.69C76.7001 36.57 74.9601 37.77 75.7001 37.26H75.6901C75.6901 37.26 75.6201 37.25 75.6101 37.22C75.5401 37.14 75.4301 37.05 75.3001 36.94C74.7201 36.52 73.7201 36.2 72.7001 35.83C72.0801 35.63 71.4001 35.55 70.7101 35.55C70.3701 35.55 70.0201 35.55 69.6801 35.58L69.1701 35.61H68.9301C68.6601 35.62 68.3401 35.64 67.9801 35.7C67.6301 35.77 67.1801 35.86 66.9001 36.18C66.8201 36.28 66.7801 36.41 66.8001 36.51C66.8301 36.61 66.9101 36.68 66.9901 36.73C67.1601 36.84 67.3601 36.92 67.5901 36.98C67.9301 37.07 68.3001 37.15 68.7201 37.2L69.0301 37.23L69.5401 37.26C69.9001 37.27 70.2701 37.28 70.6301 37.26C71.7601 37.22 72.8601 36.97 73.8801 36.69C74.1101 36.63 74.3101 36.53 74.5301 36.47C75.3201 36.26 75.5001 36.43 75.9801 36.89L76.3301 37.19C76.5101 37.36 76.5901 37.58 76.4801 37.88C76.3801 38.16 76.1201 38.48 75.7601 38.72C74.6601 39.37 73.5201 39.58 72.3901 39.74C71.2501 39.88 70.1101 39.9 68.9401 39.83C67.3401 39.74 65.7301 39.49 64.5501 39.07C63.3801 38.62 62.7601 38.1 62.5101 37.35H62.5801L62.5601 37.39Z" fill="#231F20"/>
<path d="M41.6099 49.02C41.5699 48.93 41.5299 48.82 41.4899 48.71C41.4699 48.59 41.4899 48.45 41.4699 48.32C41.4399 48.05 41.4799 47.8 41.5599 47.57C41.6099 47.34 41.7399 47.15 41.8499 46.96C41.9499 46.77 42.1199 46.61 42.2699 46.45C42.9399 45.83 43.9599 45.32 45.2799 45.02C45.7499 44.9 46.2299 44.8 46.7199 44.71C46.9699 44.66 47.2199 44.64 47.4799 44.6L47.8499 44.56H48.0899C49.1999 44.52 50.3099 44.59 51.4099 44.76C52.5099 44.93 53.6099 45.2 54.6699 45.72C54.8399 45.8 54.9799 45.87 55.1799 45.98C55.3899 46.09 55.5799 46.24 55.7799 46.36C56.1799 46.62 56.5099 46.94 56.7499 47.3C56.9599 47.62 57.1199 47.96 57.0999 48.35C57.1199 48.54 56.9699 48.7 56.9099 48.86C56.8499 49.02 56.7199 49.16 56.5899 49.3C56.2899 49.56 55.9799 49.87 55.4799 50.03C54.3499 50.39 53.9399 50.39 53.2299 50.25C52.7999 50.12 52.8799 50.1 53.1099 49.76C53.2199 49.58 53.3699 49.32 53.5299 48.99C53.6099 48.83 53.7199 48.73 53.8199 48.61L53.8899 48.53C53.8899 48.53 53.8899 48.53 53.8899 48.51V48.49C53.8899 48.49 53.8599 48.51 53.9299 48.46C53.9099 48.46 53.9299 48.44 53.9299 48.41C53.9299 48.41 53.9299 48.4 53.9299 48.39C53.9299 48.39 53.9299 48.39 53.9299 48.37L53.8499 48.32C53.7399 48.26 53.5999 48.21 53.4799 48.14C52.9599 47.92 52.3599 47.71 51.7299 47.49C51.1099 47.29 50.4299 47.21 49.7399 47.21C49.3999 47.21 49.0499 47.21 48.7099 47.24L48.1999 47.27H47.9599C47.6899 47.28 47.3699 47.3 47.0099 47.36C46.6599 47.43 46.2099 47.52 45.9299 47.84C45.8499 47.94 45.8099 48.07 45.8299 48.17C45.8599 48.27 45.9399 48.34 46.0199 48.39C46.1899 48.5 46.3899 48.58 46.6199 48.64C46.9599 48.73 47.3299 48.81 47.7499 48.86L48.0599 48.89L48.5699 48.92C48.9299 48.93 49.2999 48.94 49.6599 48.92C50.7899 48.88 51.8899 48.63 52.9099 48.35C53.1399 48.29 53.3399 48.19 53.5599 48.13C54.3499 47.92 54.5299 48.09 55.0099 48.55L55.3599 48.85C55.5399 49.02 55.6199 49.24 55.5099 49.54C55.4099 49.82 55.1499 50.14 54.7899 50.38C53.6899 51.03 52.5499 51.24 51.4199 51.4C50.2799 51.54 49.1399 51.56 47.9699 51.49C46.3699 51.4 44.7599 51.15 43.5799 50.73C42.4099 50.28 41.7899 49.76 41.5399 49.01H41.6099V49.02Z" fill="#231F20"/>
<path d="M20.19 39.0499C20.15 38.9599 20.11 38.85 20.07 38.74C20.05 38.62 20.07 38.4799 20.05 38.3499C20.02 38.0799 20.06 37.8299 20.14 37.5999C20.19 37.3699 20.32 37.18 20.43 36.99C20.53 36.8 20.7 36.6399 20.85 36.4799C21.52 35.8599 22.54 35.3499 23.86 35.0499C24.33 34.9299 24.81 34.83 25.3 34.74C25.55 34.69 25.8 34.67 26.06 34.63L26.43 34.5899H26.67C27.78 34.5499 28.89 34.62 29.99 34.79C31.09 34.96 32.19 35.2299 33.25 35.7499C33.42 35.8299 33.56 35.9099 33.76 36.0099C33.97 36.1199 34.16 36.2699 34.36 36.3899C34.76 36.6499 35.09 36.97 35.33 37.33C35.54 37.65 35.7 37.99 35.68 38.38C35.7 38.57 35.55 38.7299 35.49 38.8899C35.43 39.0499 35.3 39.19 35.17 39.33C34.87 39.59 34.56 39.9 34.06 40.06C32.93 40.42 32.52 40.4199 31.81 40.2799C31.38 40.1499 31.46 40.13 31.69 39.79C31.8 39.61 31.95 39.3499 32.11 39.0199C32.19 38.86 32.3 38.7599 32.4 38.6399L32.47 38.56C32.47 38.56 32.47 38.56 32.47 38.54V38.5199C32.47 38.5199 32.44 38.54 32.51 38.49C32.49 38.49 32.51 38.4699 32.51 38.4399C32.51 38.4399 32.51 38.4299 32.51 38.4199C32.51 38.4199 32.51 38.42 32.51 38.4L32.43 38.3499C32.32 38.2899 32.18 38.2399 32.06 38.1699C31.54 37.9499 30.94 37.7399 30.31 37.5199C29.69 37.3199 29.01 37.24 28.32 37.24C27.98 37.24 27.63 37.2399 27.29 37.2699L26.78 37.2999H26.54C26.27 37.3099 25.95 37.3299 25.59 37.3899C25.24 37.4599 24.79 37.5499 24.51 37.8699C24.43 37.9699 24.39 38.1 24.41 38.1999C24.44 38.2999 24.52 38.3699 24.6 38.4199C24.77 38.5299 24.97 38.6099 25.2 38.6699C25.54 38.7599 25.91 38.8399 26.33 38.8899L26.64 38.9199L27.15 38.95C27.51 38.96 27.88 38.97 28.24 38.95C29.37 38.91 30.47 38.66 31.49 38.38C31.72 38.32 31.92 38.2199 32.14 38.1599C32.93 37.9499 33.11 38.12 33.59 38.58L33.94 38.88C34.12 39.05 34.2 39.2699 34.09 39.5699C33.99 39.8499 33.73 40.1699 33.37 40.4099C32.27 41.0599 31.13 41.2699 30 41.4299C28.86 41.5699 27.72 41.59 26.55 41.5199C24.95 41.4299 23.34 41.1799 22.16 40.7599C20.99 40.3099 20.37 39.79 20.12 39.04H20.19V39.0499Z" fill="#231F20"/>
<path d="M70.4701 85.3L63.5201 82.24L60.1701 80.81C59.9801 80.74 59.5701 80.42 59.6901 80.86C59.6201 80.97 59.6601 81.25 59.6301 81.45V82.98C59.6301 85.21 59.7501 87.44 59.7901 89.67C59.8801 93.61 59.9901 97.56 60.1701 101.49L60.3101 103.97C60.2601 104.22 60.5501 104.23 60.7001 104.34L61.9901 104.95L67.3701 107.41C70.5601 108.85 73.8301 110.19 77.0501 111.51C79.1201 112.35 81.2001 113.18 83.2701 114.02C85.3201 114.92 87.3601 115.82 89.2901 117.01C89.8401 117.52 90.0701 117.76 90.0301 117.8C89.9901 117.85 89.6601 117.77 88.9901 117.85C87.6801 117.96 85.3501 117.92 82.8801 117.12C78.5801 115.51 74.3401 113.79 70.1601 111.9C68.0701 110.96 65.9801 110 63.9001 109.02L60.7801 107.52L60.0001 107.13L59.6101 106.93C59.4801 106.86 59.2001 106.69 59.0001 106.58C58.5801 106.32 58.0701 106.13 57.9101 105.69C57.7501 105.26 57.6801 104.75 57.5701 104.29C57.4501 101.46 57.3301 98.58 57.2101 95.68C57.0901 92.85 56.9601 90 56.9201 87.17L56.8901 83.45V81.58L56.9501 80.26C56.9501 79.79 57.0001 79.39 56.9801 78.88L57.2801 78.13L57.4301 77.76L57.5001 77.57V77.55C57.5901 77.67 57.3201 77.28 57.7001 77.82H57.7101C57.7101 77.82 57.7401 77.8 57.7501 77.79L57.8201 77.76C58.0101 77.69 58.2101 77.62 58.4401 77.53C58.5801 77.53 58.7101 77.48 58.8701 77.53L59.3801 77.7L61.3401 78.44L62.6401 78.96L67.8201 81.09C71.3401 82.57 74.8601 84.05 78.3801 85.52C82.8301 87.43 87.3001 89.34 91.7201 91.23C92.4601 91.47 92.6301 92.21 92.6901 92.93L92.7301 93.46L92.7501 93.85L92.7801 94.63C92.9201 99.13 92.9501 103.5 92.9101 107.92C92.9001 108.89 92.9101 109.84 92.8701 110.83C92.8401 111.74 92.8001 112.49 92.7401 113.12C92.6701 113.75 92.5601 114.26 92.4601 114.67C92.2601 115.5 92.0101 115.98 91.7001 116.35C91.5601 116.52 91.4301 116.75 91.3101 116.84C90.9601 117.17 90.5501 115.67 90.3301 113.01C90.2301 109.56 90.1401 106.03 90.0401 102.45C89.9901 100.67 89.9401 98.87 89.9001 97.07C89.8801 96.17 89.8601 95.28 89.8301 94.4L89.8001 93.75V93.6H89.7901C89.0501 93.29 88.2901 92.98 87.5401 92.66C81.8401 90.26 76.1001 87.86 70.4201 85.36L70.4401 85.29L70.4701 85.3Z" fill="#231F20"/>
<path d="M87.58 67.55C88.43 67.86 89.45 68.01 90.46 68.04C90.83 68.06 91.19 67.97 91.56 67.97C92.2 67.95 92.85 67.87 93.38 67.72C93.53 67.69 93.61 67.63 93.74 67.59C93.83 67.54 93.91 67.51 93.97 67.46C94.03 67.41 94.08 67.35 94.12 67.27C94.17 67.17 94.24 67 94.29 66.85C94.48 66.29 94.59 65.67 94.65 65.06C94.73 64.26 94.63 63.5 95.24 62.73C95.6 62.47 95.42 62.49 95.79 62.69C95.99 62.79 96.2 62.95 96.47 63.15C96.7 63.35 96.86 63.6 96.94 63.86C96.97 63.97 97.01 64.09 97.02 64.21V64.55C97 64.77 96.99 65 96.97 65.22C96.93 65.67 96.88 66.11 96.79 66.56C96.69 67.01 96.57 67.45 96.37 67.95C96.16 68.66 95.49 69.29 94.94 69.54C94.28 69.87 93.72 70.03 93.15 70.21C92.58 70.37 92.02 70.52 91.46 70.57C90.22 70.7 88.99 70.61 87.76 70.37C87 70.22 86.25 69.99 85.5 69.59C84.82 69.28 84.29 68.54 84.1 67.96C83.87 67.36 83.77 66.78 83.69 66.2C83.57 65.31 83.39 64.43 83.5 63.51C83.52 63.31 83.53 63.11 83.59 62.91C83.67 62.53 83.85 62.31 84.06 62.2C84.26 62.08 84.48 62.07 84.73 62.1C84.84 62.11 84.94 62.11 85.03 62.13C85.27 62.18 85.57 62.61 85.74 63.07C85.83 63.72 85.99 64.34 86.06 64.95C86.16 65.55 86.3 66.16 86.48 66.62C86.55 66.79 86.62 66.92 86.67 67.02C86.72 67.1 86.69 67.08 86.69 67.09C86.64 67.09 86.82 67.19 87 67.27C87.18 67.35 87.37 67.43 87.6 67.48V67.55H87.58Z" fill="#231F20"/>
<path d="M67.6298 75.51C68.4798 75.82 69.4998 75.97 70.5098 76C70.8798 76.02 71.2398 75.93 71.6098 75.93C72.2498 75.91 72.8998 75.83 73.4298 75.68C73.5798 75.65 73.6598 75.59 73.7898 75.55C73.8798 75.5 73.9598 75.47 74.0198 75.42C74.0798 75.37 74.1298 75.31 74.1698 75.23C74.2198 75.13 74.2898 74.96 74.3398 74.81C74.5298 74.25 74.6398 73.63 74.6998 73.02C74.7798 72.22 74.6798 71.46 75.2898 70.69C75.6498 70.43 75.4698 70.45 75.8398 70.65C76.0398 70.75 76.2498 70.91 76.5198 71.11C76.7498 71.31 76.9098 71.56 76.9898 71.82C77.0198 71.93 77.0598 72.05 77.0698 72.17V72.51C77.0498 72.73 77.0398 72.96 77.0198 73.18C76.9798 73.63 76.9298 74.07 76.8398 74.52C76.7398 74.97 76.6198 75.41 76.4198 75.91C76.2098 76.62 75.5398 77.25 74.9898 77.5C74.3298 77.83 73.7698 77.99 73.1998 78.17C72.6298 78.33 72.0698 78.48 71.5098 78.53C70.2698 78.66 69.0398 78.57 67.8098 78.33C67.0498 78.18 66.2998 77.95 65.5498 77.55C64.8698 77.24 64.3398 76.5 64.1498 75.92C63.9198 75.32 63.8198 74.74 63.7398 74.16C63.6198 73.27 63.4398 72.39 63.5498 71.47C63.5698 71.27 63.5798 71.07 63.6398 70.87C63.7198 70.5 63.8998 70.27 64.1098 70.16C64.3098 70.04 64.5298 70.03 64.7798 70.06C64.8898 70.07 64.9898 70.07 65.0798 70.09C65.3198 70.14 65.6198 70.57 65.7898 71.03C65.8798 71.68 66.0398 72.3 66.1098 72.91C66.2098 73.51 66.3498 74.12 66.5298 74.58C66.5998 74.75 66.6698 74.88 66.7198 74.98C66.7698 75.06 66.7398 75.04 66.7398 75.05C66.6898 75.05 66.8698 75.15 67.0498 75.23C67.2298 75.31 67.4198 75.39 67.6398 75.44V75.51H67.6298Z" fill="#231F20"/>
<path d="M88.3398 84.43C89.1898 84.74 90.2098 84.89 91.2198 84.92C91.5898 84.94 91.9498 84.85 92.3198 84.85C92.8598 84.83 93.3798 84.77 93.8698 84.67C94.0998 84.61 94.3198 84.55 94.4998 84.47C94.6598 84.4 94.7698 84.34 94.8398 84.22C94.8898 84.17 94.9898 83.92 95.0598 83.73C95.2498 83.17 95.3598 82.55 95.4198 81.94C95.4998 81.14 95.3998 80.38 96.0098 79.61C96.3698 79.35 96.1898 79.37 96.5598 79.57C96.7598 79.67 96.9698 79.83 97.2398 80.03C97.4698 80.23 97.6298 80.48 97.7098 80.74C97.8498 81.12 97.7598 81.47 97.7598 81.83C97.7398 82.19 97.6998 82.55 97.6498 82.91C97.5998 83.27 97.5198 83.63 97.4198 83.99C97.3698 84.17 97.3098 84.36 97.2398 84.55L97.1198 84.85C97.0698 84.98 96.9998 85.13 96.9398 85.27C96.7498 85.51 96.5898 85.78 96.3698 85.97C96.1498 86.15 95.9098 86.34 95.6998 86.41C95.0398 86.74 94.4798 86.9 93.9098 87.08C93.3398 87.24 92.7798 87.39 92.2198 87.44C90.9798 87.57 89.7498 87.48 88.5198 87.24C87.7598 87.09 87.0098 86.86 86.2598 86.46L86.0598 86.36C85.3998 85.98 85.0098 85.28 84.8298 84.74C84.6198 84.17 84.5298 83.62 84.4498 83.07C84.3298 82.18 84.1498 81.3 84.2598 80.38C84.2798 80.18 84.2898 79.98 84.3498 79.78C84.4298 79.41 84.6098 79.18 84.8198 79.07C85.0198 78.95 85.2398 78.94 85.4898 78.97C85.5998 78.98 85.6998 78.98 85.7898 79C86.0298 79.05 86.3298 79.48 86.4998 79.94C86.5898 80.59 86.7498 81.21 86.8198 81.82C86.9198 82.42 87.0598 83.03 87.2398 83.49C87.3098 83.67 87.3998 83.83 87.4498 83.91C87.4798 83.98 87.4498 83.94 87.4498 83.97C87.4498 83.98 87.5198 84.01 87.5898 84.06C87.6498 84.1 87.7398 84.13 87.8198 84.17C87.9798 84.24 88.1598 84.31 88.3498 84.36V84.43H88.3398Z" fill="#231F20"/>
<path d="M106.96 76.39C107.81 76.7 108.83 76.85 109.84 76.88C110.21 76.9 110.57 76.81 110.94 76.81C111.48 76.79 112 76.73 112.49 76.63C112.72 76.57 112.94 76.51 113.12 76.43C113.28 76.36 113.39 76.3 113.46 76.18C113.51 76.13 113.61 75.88 113.68 75.69C113.87 75.13 113.98 74.51 114.04 73.9C114.12 73.1 114.02 72.34 114.63 71.57C114.99 71.31 114.81 71.33 115.18 71.53C115.38 71.63 115.59 71.79 115.86 71.99C116.09 72.19 116.25 72.44 116.33 72.7C116.47 73.08 116.38 73.43 116.38 73.79C116.36 74.15 116.32 74.51 116.27 74.87C116.22 75.23 116.14 75.59 116.04 75.95C115.99 76.13 115.93 76.32 115.86 76.51L115.74 76.81C115.69 76.94 115.62 77.09 115.56 77.23C115.37 77.47 115.21 77.74 114.99 77.93C114.77 78.11 114.53 78.3 114.32 78.37C113.66 78.7 113.1 78.86 112.53 79.04C111.96 79.2 111.4 79.35 110.84 79.4C109.6 79.53 108.37 79.44 107.14 79.2C106.38 79.05 105.63 78.82 104.88 78.42L104.68 78.32C104.02 77.94 103.63 77.24 103.45 76.7C103.24 76.13 103.15 75.58 103.07 75.03C102.95 74.14 102.77 73.26 102.88 72.34C102.9 72.14 102.91 71.94 102.97 71.74C103.05 71.37 103.23 71.14 103.44 71.03C103.64 70.91 103.86 70.9 104.11 70.93C104.22 70.94 104.32 70.94 104.41 70.96C104.65 71.01 104.95 71.44 105.12 71.9C105.21 72.55 105.37 73.17 105.44 73.78C105.54 74.38 105.68 74.99 105.86 75.45C105.93 75.63 106.02 75.79 106.07 75.87C106.1 75.94 106.07 75.9 106.07 75.93C106.07 75.94 106.14 75.97 106.21 76.02C106.27 76.06 106.36 76.09 106.44 76.13C106.6 76.2 106.78 76.27 106.97 76.32V76.39H106.96Z" fill="#231F20"/>
<path d="M84.21 65.21C84.06 65.1 83.83 64.87 83.65 64.6C83.54 64.42 83.46 64.21 83.4 64.01C83.37 63.87 83.3499 63.73 83.3399 63.59C83.3099 63.31 83.37 63.02 83.44 62.75C83.52 62.52 83.6499 62.26 83.7699 62.1C84.2899 61.41 84.79 61.21 85.22 60.99C86.08 60.63 86.84 60.48 87.6 60.37C88.15 60.29 88.69 60.17 89.24 60.16C90.2 60.14 91.15 60.22 92.1 60.37C93.07 60.54 93.95 60.75 94.97 61.26C95.67 61.63 96.32 62.05 96.73 62.63C96.78 62.78 96.94 62.91 96.98 63.07C97.03 63.23 97.07 63.4 97.07 63.57C97.09 63.73 96.97 63.86 96.93 63.99C96.88 64.12 96.81 64.23 96.75 64.35C96.55 64.58 96.32 64.8 95.97 65.01C95.63 65.22 95.13 65.35 94.69 65.4C94.58 65.4 94.47 65.43 94.36 65.43C94.22 65.39 94.1599 65.41 94.0899 65.38C93.9499 65.35 93.81 65.33 93.66 65.29C93.28 65.15 93.36 65.13 93.54 64.8C93.59 64.69 93.64 64.59 93.69 64.48C93.74 64.35 93.7999 64.23 93.8399 64.11C93.8399 63.92 93.77 63.88 93.76 63.86C93.76 63.85 93.74 63.88 93.81 63.83C93.78 63.81 93.91 63.78 93.75 63.66C93.33 63.48 92.85 63.29 92.33 63.09C91.28 62.71 90.07 62.83 88.94 62.9C88.31 62.94 87.69 63.02 87.11 63.15C86.82 63.21 86.55 63.3 86.33 63.4C86.22 63.45 86.13 63.5 86.06 63.54C86.04 63.56 85.99 63.58 85.99 63.58C85.99 63.58 85.99 63.58 85.97 63.58C85.9 63.55 85.8899 63.52 85.8399 63.5C85.6899 63.44 85.69 63.44 85.65 63.44C85.68 63.44 85.71 63.44 85.73 63.44C85.82 63.42 84.96 63.63 85.32 63.54L85.36 63.53C85.39 63.52 85.41 63.5 85.43 63.49C85.52 63.44 85.62 63.36 85.68 63.28L85.7699 63.19C85.7699 63.19 85.77 63.19 85.78 63.19C85.78 63.19 85.84 63.26 85.91 63.3C86.16 63.44 86.53 63.56 86.91 63.65C88.07 63.91 89.33 64.07 90.56 64.03C91.52 63.99 92.45 63.75 93.31 63.49C93.5 63.43 93.67 63.35 93.85 63.29C94.5 63.11 94.65 63.31 95.1 63.78C95.2 63.89 95.33 63.98 95.43 64.09C95.61 64.27 95.69 64.48 95.61 64.76C95.53 65.03 95.31 65.33 94.99 65.55C94.03 66.16 93.05 66.35 92.07 66.5C91.09 66.63 90.1 66.65 89.1 66.59C88.36 66.55 87.62 66.46 86.85 66.31C86.47 66.23 86.07 66.14 85.66 66.01C85.45 65.95 85.23 65.86 85 65.77C84.74 65.66 84.5 65.57 84.13 65.29L84.17 65.24L84.21 65.21Z" fill="#231F20"/>
<path d="M64.2598 73.17C64.1098 73.06 63.8798 72.83 63.6998 72.56C63.5898 72.38 63.5098 72.17 63.4498 71.97C63.4198 71.83 63.3998 71.69 63.3898 71.55C63.3598 71.27 63.4198 70.98 63.4898 70.71C63.5698 70.48 63.6998 70.22 63.8198 70.06C64.3398 69.37 64.8398 69.17 65.2698 68.95C66.1298 68.59 66.8898 68.44 67.6498 68.33C68.1998 68.25 68.7398 68.13 69.2898 68.12C70.2498 68.1 71.1998 68.18 72.1498 68.33C73.1198 68.5 73.9998 68.71 75.0198 69.22C75.7198 69.59 76.3698 70.01 76.7798 70.59C76.8298 70.74 76.9898 70.87 77.0298 71.03C77.0798 71.19 77.1198 71.36 77.1198 71.53C77.1398 71.69 77.0198 71.82 76.9798 71.95C76.9298 72.08 76.8598 72.19 76.7998 72.31C76.5998 72.54 76.3698 72.76 76.0198 72.97C75.6798 73.18 75.1798 73.31 74.7398 73.36C74.6298 73.36 74.5198 73.39 74.4098 73.39C74.2698 73.35 74.2098 73.37 74.1398 73.34C73.9998 73.31 73.8598 73.29 73.7098 73.25C73.3298 73.11 73.4098 73.09 73.5898 72.76C73.6398 72.65 73.6898 72.55 73.7398 72.44C73.7898 72.31 73.8498 72.19 73.8898 72.07C73.8898 71.88 73.8198 71.84 73.8098 71.82C73.8098 71.81 73.7898 71.84 73.8598 71.79C73.8298 71.77 73.9598 71.74 73.7998 71.62C73.3798 71.44 72.8998 71.25 72.3798 71.05C71.3298 70.67 70.1198 70.79 68.9898 70.86C68.3598 70.9 67.7398 70.98 67.1598 71.11C66.8698 71.17 66.5998 71.26 66.3798 71.36C66.2698 71.41 66.1798 71.46 66.1098 71.5C66.0898 71.52 66.0398 71.54 66.0398 71.54C66.0398 71.54 66.0398 71.54 66.0198 71.54C65.9498 71.51 65.9398 71.48 65.8898 71.46C65.7398 71.4 65.7398 71.4 65.6998 71.4C65.7298 71.4 65.7598 71.4 65.7798 71.4C65.8698 71.38 65.0098 71.59 65.3698 71.5L65.4098 71.49C65.4398 71.48 65.4598 71.46 65.4798 71.45C65.5698 71.4 65.6698 71.32 65.7298 71.24L65.8198 71.15C65.8198 71.15 65.8198 71.15 65.8298 71.15C65.8298 71.15 65.8898 71.22 65.9598 71.26C66.2098 71.4 66.5798 71.52 66.9598 71.61C68.1198 71.87 69.3798 72.03 70.6098 71.99C71.5698 71.95 72.4998 71.71 73.3598 71.45C73.5498 71.39 73.7198 71.31 73.8998 71.25C74.5498 71.07 74.6998 71.27 75.1498 71.74C75.2498 71.85 75.3798 71.94 75.4798 72.05C75.6598 72.23 75.7398 72.44 75.6598 72.72C75.5798 72.99 75.3598 73.29 75.0398 73.51C74.0798 74.12 73.0998 74.31 72.1198 74.46C71.1398 74.59 70.1498 74.61 69.1498 74.55C68.4098 74.51 67.6698 74.42 66.8998 74.27C66.5198 74.19 66.1198 74.1 65.7098 73.97C65.4998 73.91 65.2798 73.82 65.0498 73.73C64.7898 73.62 64.5498 73.53 64.1798 73.25L64.2198 73.2L64.2598 73.17Z" fill="#231F20"/>
<path d="M84.9702 82.09C84.8202 81.98 84.5902 81.75 84.4102 81.48C84.3002 81.3 84.2202 81.09 84.1602 80.89C84.1302 80.75 84.1102 80.61 84.1002 80.47C84.0702 80.19 84.1302 79.9 84.2002 79.63C84.2802 79.4 84.4102 79.14 84.5302 78.98C85.0502 78.29 85.5502 78.09 85.9802 77.87C86.8402 77.51 87.6002 77.36 88.3602 77.25C88.9102 77.17 89.4502 77.05 90.0002 77.04C90.9602 77.02 91.9102 77.1 92.8602 77.25C93.8302 77.42 94.7102 77.63 95.7302 78.14C96.4302 78.51 97.0802 78.93 97.4902 79.51C97.5402 79.66 97.7002 79.79 97.7402 79.95C97.7902 80.11 97.8302 80.28 97.8302 80.45C97.8502 80.61 97.7302 80.74 97.6902 80.87C97.6402 81 97.5702 81.11 97.5102 81.23C97.3102 81.46 97.0802 81.68 96.7302 81.89C96.3902 82.1 95.8902 82.23 95.4502 82.28C95.3402 82.28 95.2302 82.31 95.1202 82.31C94.9802 82.27 94.9202 82.29 94.8502 82.26C94.7102 82.23 94.5702 82.21 94.4202 82.17C94.0402 82.03 94.1202 82.01 94.3002 81.68C94.3502 81.57 94.4002 81.47 94.4502 81.36C94.5002 81.23 94.5602 81.11 94.6002 80.99C94.6002 80.8 94.5302 80.76 94.5202 80.74C94.5202 80.73 94.5002 80.76 94.5702 80.71C94.5402 80.69 94.6702 80.66 94.5102 80.54C94.0902 80.36 93.6102 80.17 93.0902 79.97C92.0402 79.59 90.8302 79.71 89.7002 79.78C89.0702 79.82 88.4502 79.9 87.8702 80.03C87.5802 80.09 87.3102 80.18 87.0902 80.28C86.9802 80.33 86.8902 80.38 86.8202 80.42C86.8002 80.44 86.7502 80.46 86.7502 80.46C86.7502 80.46 86.7502 80.46 86.7302 80.46C86.6602 80.43 86.6502 80.4 86.6002 80.38C86.4502 80.32 86.4502 80.32 86.4102 80.32C86.4402 80.32 86.4702 80.32 86.4902 80.32C86.5802 80.3 85.7202 80.51 86.0802 80.42L86.1202 80.41C86.1502 80.4 86.1702 80.38 86.1902 80.37C86.2802 80.32 86.3802 80.24 86.4402 80.16L86.5302 80.07C86.5302 80.07 86.5302 80.07 86.5402 80.07C86.5402 80.07 86.6002 80.14 86.6702 80.18C86.9202 80.32 87.2902 80.44 87.6702 80.53C88.8302 80.79 90.0902 80.95 91.3202 80.91C92.2802 80.87 93.2102 80.63 94.0702 80.37C94.2602 80.31 94.4302 80.23 94.6102 80.17C95.2602 79.99 95.4102 80.19 95.8602 80.66C95.9602 80.77 96.0902 80.86 96.1902 80.97C96.3702 81.15 96.4502 81.36 96.3702 81.64C96.2902 81.91 96.0702 82.21 95.7502 82.43C94.7902 83.04 93.8102 83.23 92.8302 83.38C91.8502 83.51 90.8602 83.53 89.8602 83.47C89.1202 83.43 88.3802 83.34 87.6102 83.19C87.2302 83.11 86.8302 83.02 86.4202 82.89C86.2102 82.83 85.9902 82.74 85.7602 82.65C85.5002 82.54 85.2602 82.45 84.8902 82.17L84.9302 82.12L84.9702 82.09Z" fill="#231F20"/>
<path d="M103.59 74.05C103.44 73.94 103.21 73.71 103.03 73.44C102.92 73.26 102.84 73.05 102.78 72.85C102.75 72.71 102.73 72.57 102.72 72.43C102.69 72.15 102.75 71.86 102.82 71.59C102.9 71.36 103.03 71.1 103.15 70.94C103.67 70.25 104.17 70.05 104.6 69.83C105.46 69.47 106.22 69.32 106.98 69.21C107.53 69.13 108.07 69.01 108.62 69C109.58 68.98 110.53 69.06 111.48 69.21C112.45 69.38 113.33 69.59 114.35 70.1C115.05 70.47 115.7 70.89 116.11 71.47C116.16 71.62 116.32 71.75 116.36 71.91C116.41 72.07 116.45 72.24 116.45 72.41C116.47 72.57 116.35 72.7 116.31 72.83C116.26 72.96 116.19 73.07 116.13 73.19C115.93 73.42 115.7 73.64 115.35 73.85C115.01 74.06 114.51 74.19 114.07 74.24C113.96 74.24 113.85 74.27 113.74 74.27C113.6 74.23 113.54 74.25 113.47 74.22C113.33 74.19 113.19 74.17 113.04 74.13C112.66 73.99 112.74 73.97 112.92 73.64C112.97 73.53 113.02 73.43 113.07 73.32C113.12 73.19 113.18 73.07 113.22 72.95C113.22 72.76 113.15 72.72 113.14 72.7C113.14 72.69 113.12 72.72 113.19 72.67C113.16 72.65 113.29 72.62 113.13 72.5C112.71 72.32 112.23 72.13 111.71 71.93C110.66 71.55 109.45 71.67 108.32 71.74C107.69 71.78 107.07 71.86 106.49 71.99C106.2 72.05 105.93 72.14 105.71 72.24C105.6 72.29 105.51 72.34 105.44 72.38C105.42 72.4 105.37 72.42 105.37 72.42C105.37 72.42 105.37 72.42 105.35 72.42C105.28 72.39 105.27 72.36 105.22 72.34C105.07 72.28 105.07 72.28 105.03 72.28C105.06 72.28 105.09 72.28 105.11 72.28C105.2 72.26 104.34 72.47 104.7 72.38L104.74 72.37C104.77 72.36 104.79 72.34 104.81 72.33C104.9 72.28 105 72.2 105.06 72.12L105.15 72.03C105.15 72.03 105.15 72.03 105.16 72.03C105.16 72.03 105.22 72.1 105.29 72.14C105.54 72.28 105.91 72.4 106.29 72.49C107.45 72.75 108.71 72.91 109.94 72.87C110.9 72.83 111.83 72.59 112.69 72.33C112.88 72.27 113.05 72.19 113.23 72.13C113.88 71.95 114.03 72.15 114.48 72.62C114.58 72.73 114.71 72.82 114.81 72.93C114.99 73.11 115.07 73.32 114.99 73.6C114.91 73.87 114.69 74.17 114.37 74.39C113.41 75 112.43 75.19 111.45 75.34C110.47 75.47 109.48 75.49 108.48 75.43C107.74 75.39 107 75.3 106.23 75.15C105.85 75.07 105.45 74.98 105.04 74.85C104.83 74.79 104.61 74.7 104.38 74.61C104.12 74.5 103.88 74.41 103.51 74.13L103.55 74.08L103.59 74.05Z" fill="#231F20"/>
<path d="M67.0798 20.53C67.2798 20.64 67.1998 20.92 66.9998 21.28C66.9398 21.39 66.6498 21.61 66.5698 21.59C66.4098 21.56 66.2498 21.53 66.0998 21.49C66.0098 21.46 64.9998 20.72 64.6198 20.5C64.2398 20.29 63.9898 19.98 63.7298 19.68L62.1898 17.84C62.0798 17.7 61.9898 17.55 61.9298 17.38C61.7198 16.8 61.3998 16.29 61.0198 15.82C60.9598 15.74 60.9198 15.65 60.7698 15.62C60.5298 15.58 59.6198 14.21 59.5798 13.99C59.4698 13.44 59.2998 12.92 59.1698 12.39C59.1498 12.31 59.0698 12.27 59.1498 12.14C59.3298 11.85 59.2098 11.74 59.1498 11.58C59.0598 11.37 58.9898 11.15 58.9698 10.9C58.9498 10.78 59.0798 10.58 59.1498 10.42C59.2198 10.27 59.6298 10.11 59.6898 10.11C59.8598 10.13 60.0098 9.95001 60.1698 9.86001C60.2198 9.83001 60.2898 9.78002 60.3398 9.76002C60.5098 9.68002 61.7698 10.41 61.8398 10.53C61.8398 10.54 62.1298 10.92 62.4298 11.32C62.7298 11.71 63.0498 12.12 63.1198 12.19C63.1998 12.27 63.1998 12.4 63.2098 12.52C63.2098 12.58 64.1798 13.72 64.1998 13.77C64.3298 14.05 64.5798 14.25 64.5198 14.65C64.5098 14.73 64.5498 14.77 64.5898 14.82C64.8798 15.26 65.0498 15.78 65.2598 16.27C65.3698 16.52 65.5298 16.74 65.6598 16.97C65.6798 17.01 65.6798 17.07 65.6898 17.12C65.6998 17.18 65.7098 17.25 65.7398 17.31C66.0698 17.86 66.3298 18.45 66.6898 18.97C66.7698 19.09 66.9098 19.85 67.0198 19.98C67.0698 20.06 66.9998 20.5 67.0798 20.54V20.53Z" fill="#231F20"/>
<path d="M74.66 23.87C74.71 24.06 74.37 24.05 73.87 23.98C73.71 23.96 73.28 23.77 73.23 23.7C73.14 23.56 73.04 23.41 72.97 23.28C72.92 23.2 72.88 22.12 72.97 21.78C73 21.43 73.13 21.13 73.28 20.84C73.59 20.25 73.89 19.65 74.25 19.09C74.33 18.96 74.43 18.86 74.57 18.77C75.02 18.48 75.33 18.09 75.61 17.66C75.66 17.59 75.73 17.54 75.7 17.4C75.63 17.16 76.6 16.15 76.8 16.1C77.27 15.95 77.68 15.76 78.12 15.61C78.18 15.59 78.21 15.51 78.33 15.58C78.62 15.74 78.69 15.62 78.81 15.55C78.97 15.46 79.15 15.39 79.36 15.37C79.46 15.36 79.63 15.45 79.78 15.51C79.92 15.57 80.14 15.97 80.15 16.03C80.17 16.19 80.34 16.33 80.46 16.49C80.5 16.54 80.55 16.61 80.58 16.65C80.63 16.75 80.35 17.92 80.28 17.98C80.25 17.98 79.41 19.01 79.35 19.16C79.32 19.23 79.21 19.24 79.12 19.26C79.07 19.27 78.53 20.17 78.49 20.19C78.31 20.32 78.26 20.55 77.91 20.54C77.84 20.54 77.82 20.58 77.8 20.62C77.59 20.93 77.27 21.15 76.99 21.41C76.85 21.54 76.77 21.72 76.65 21.87C76.63 21.9 76.58 21.91 76.54 21.92C76.5 21.94 76.45 21.96 76.42 22C76.19 22.39 75.82 22.71 75.7 23.16C75.68 23.26 75.16 23.57 75.12 23.69C75.1 23.75 74.62 23.79 74.64 23.87H74.66Z" fill="#231F20"/>
</svg>
