<?xml version="1.0" encoding="UTF-8"?><svg id="Layer_1" xmlns="http://www.w3.org/2000/svg" width="128" height="128" viewBox="0 0 128 128"><defs><style>.cls-1{fill:#231f20;stroke-width:0px;}</style></defs><path class="cls-1" d="M22.16,68.32l-1.37-1.46-.71-.76c-.24-.27-.45-.54-.68-.81l-3.57-4.31,1.23-1.4c.21-.24.37-.47.52-.7l.25-.4c.15-.24.3-.5.44-.77l.21-.4.35-.75,3.9-3.38,4.54-4.07c5.42-4.7,10.87-9.36,16.26-14.09,2.39-2.1,4.72-4.29,7-6.47,2.93-2.81,5.73-5.76,8.97-8.22,1.24-.54,1.23-.31.98.97-.26,1.27-1.19,3.16-2.81,4.86-5.95,5.81-12.11,11.36-18.55,16.71-3.86,3.19-7.63,6.77-11.47,10.15l-6.24,5.44-.35.68c-.16.31-.33.61-.52.92l-.27.42-.13.18c-.08.11-.17.21-.28.31.07.12.16.23.26.36l.44.55,1.32,1.67c.26.35.52.61.83.93l.9.94,1.79,1.88,3.59,3.75c3.63,3.78,7.23,7.62,10.88,11.33,2.83,2.89,5.74,5.59,8.59,8.41.63.62,1.26,1.21,1.88,1.85,2.29,2.4,2.84,3.34,2.66,4.49-.05.26-.09.53-.2.69-.2.27-.63.19-1.08,0-.53-.26-1.27-.84-2.15-1.65-5.22-4.83-10.53-10.18-15.79-15.6-3.88-4.06-7.78-8.13-11.66-12.2l.05-.06Z"/><path class="cls-1" d="M68.69,19.63c-.75-1.72-1.99-2.63-3.11-2.92-2.09-.55-4.22.93-4.8,1.77,0,0,.32-3.31,3.36-4.48,3.04-1.17,6.98,2.82,6.98,2.82l1.33,1.85-3.76.96Z"/><path class="cls-1" d="M20.31,64.62c-2.36-.54-3.63-1.49-3.63-3.32s.72-3.42,3.07-4c4.79-1.17,4.98,8.34.55,7.32Z"/><path class="cls-1" d="M92.42,38.71c-.86.78-1.73,1.56-2.57,2.36-.31.29-.58.62-.89.91-1.1,1.02-2.2,2.03-3.28,3.08-.48.46-.92.96-1.35,1.46-.53.66-1.11,1.28-1.84,1.76-.3.08-.34,0-.41-.37-.06-.36-.03-.88.23-1.3.22-.38.51-.71.8-1.03l.88-.96c.6-.63,1.22-1.24,1.88-1.81.79-.69,1.46-1.55,2.2-2.32l2.48-2.51,1.54-1.53c.77-.78,1.57-1.54,2.3-2.34.57-.62,1.04-1.32,1.56-1.99.11-.15.21-.31.33-.45.48-.5.78-.5,1.25-.24.11.06.22.11.31.18.3.21.38.69.14,1.16-.75,1.35-1.88,2.43-2.99,3.54-.85.81-1.7,1.62-2.54,2.42l-.03-.03Z"/><path class="cls-1" d="M53.26,102.99c-2.16-1.83.99-5.18,2.69-5.18,0,0-4.34-2.35-7.44,1.24-3.1,3.59-1.18,3.94-1.18,3.94h5.93Z"/><path class="cls-1" d="M41.59,113.62c-2.07-.25-1.09-3.43-.18-4.85,2.54-3.98,7.61-4.54,8.56-4.54,0,0-9.25-.97-11.52.53s-4.87,4.51-5.66,6.7.53,2.17.53,2.17h8.28Z"/><path class="cls-1" d="M79.5,47.09c-4.88,1.08-9.96-4.06-11.37-10.63-1.75-8.13,2.18-17.19,6.78-19.75,0,0-10.45,4.01-11.33,12.88-.52,5.24,1.45,12.73,2.44,15.06.99,2.33,5.48,9.65,5.48,9.65l3.57-2.49,4.43-4.71Z"/><path class="cls-1" d="M61.03,114.66l-9.5.09c-1.16.02-2.31.1-3.47.11l-12.24.03c-1.81.03-3.63.06-5.43.09l-1.73.04c-.58,0-1.16-.02-1.74-.05l-.87-.05-.87-.15c-.58-.1-1.15-.2-1.73-.3-.72-.14-.62-.18-.02-.41.3-.12.73-.29,1.25-.52.28-.12.56-.23.84-.35.15-.07.3-.1.46-.19.16-.02.32-.05.49-.07,4.69-.62,9.38-.39,14.13-.24,2.84.12,5.79-.07,8.69-.11l9.58-.09,5.9-.03c2.98-.01,5.97-.03,8.93-.04,2.3-.03,4.55-.16,6.83-.21.5-.01.99-.05,1.5-.04.94,0,1.55.06,1.99.18.43.15.68.32.87.56.09.11.21.21.26.3.09.16-.06.31-.41.46-.34.15-.88.33-1.56.37-4.05.31-8.31.39-12.59.48-3.18.06-6.38.13-9.57.19v-.05Z"/><path class="cls-1" d="M98.66,43.73c-.5.85-1.06,1.65-1.75,2.35-.32.36-.73.67-1.09,1-.39.29-.79.57-1.19.82-.6.34-1.17.74-1.81.97-1.12.41-2.26.69-3.41.82-1.14.16-2.28.19-3.4.14-1-.03-2-.1-2.99-.23-.63-.12-1.27-.22-1.89-.44-.61-.23-1.19-.62-1.58-1.22-.25-.35-.15-.39.29-.51.22-.07.52-.17.86-.34.34-.14.65-.2.96-.2,2.12.34,4.34.51,6.63.42,1.38-.05,2.72-.63,3.91-1.24,1.34-.65,2.44-1.58,3.29-2.81.51-.76.93-1.6,1.21-2.5.41-1.37.64-2.85.53-4.31-.09-1.14-.5-2.21-.86-3.25l-.27-.68c-.16-.42-.17-.73-.05-.99.09-.26.33-.47.65-.7.14-.1.27-.22.39-.29.36-.24,1.15-.1,1.68.55,1.3,2.01,1.76,4.56,1.56,7.1-.14,1.89-.67,3.81-1.58,5.57l-.07-.03Z"/><path class="cls-1" d="M58.52,18.09c.1-.89.44-1.78.87-2.57.48-.76,1.09-1.49,1.85-2.01.53-.4,1.09-.76,1.7-.97,2.21-.64,4.31-.1,6.04.83.78.41,1.49.97,2.14,1.59.2.22.37.46.54.7.15.26.27.54.39.81.14.6.09,1.23-.08,1.77-.11.35-.33.26-.72.05-.19-.11-.44-.24-.7-.36-.27-.12-.6-.19-.78-.29-.15-.09-.28-.19-.4-.27-.11-.09-.3-.14-.4-.23-.24-.18-.48-.35-.77-.51-.56-.31-1.15-.73-1.86-1.03-.87-.37-1.83-.08-2.56.19-.44.14-.79.41-1.13.72-.32.35-.61.75-.77,1.22-.23.57-.31,1.25-.23,1.94.11,1.04.46,2.15,1.11,3.07.51.71,1.23,1.22,1.92,1.65l.47.26c.49.43.55.68.37,1.4-.04.16-.07.33-.12.48-.15.5-.66.78-1.39.65-.25-.07-.53-.11-.76-.23-.23-.11-.46-.24-.68-.37-.44-.28-.87-.59-1.24-.96-.77-.72-1.4-1.59-1.89-2.56-.73-1.43-1.16-3.13-.98-4.97h.08Z"/><path class="cls-1" d="M23.43,67.46c-1.22.23-2.36.04-3.34-.26-.48-.19-.93-.32-1.4-.61-.46-.27-.92-.5-1.32-.89-.61-.49-1.18-1.09-1.56-1.79-.68-1.26-.79-2.71-.56-3.99.25-1.29.82-2.51,1.74-3.42.83-.78,1.79-1.47,2.9-1.78.34-.15.7-.15,1.06-.23.18-.03.36-.07.54-.07l.53.03c.73-.03,1.38.36,1.86.94.09.34.11.52.08.6-.04.09-.16.14-.42.44-.5.55-1.2,1.28-1.61,1.41-.8-.04-1.41.12-1.96.46-.53.34-1.09.84-1.52,1.58-.16.21-.17.47-.25.72,0,.25-.02.51.02.76.08.24.08.51.23.71.06.11.11.22.15.34.06.11.15.2.21.3.28.48.76.83,1.29,1.15.56.3,1.23.56,1.82.59.74.07,1.4-.15,1.95-.61.82-.72,1.29-2.06,1.16-3.34-.08-1-.65-1.82-1.29-2.44-.14-.14-.31-.24-.45-.37-.54-.48-.51-.65-.15-1.55.05-.19.15-.41.03-.59-.09-.15-.22-.29.04-.48.06-.04.17-.07.24-.08.03-.03.08-.05.12-.08.09-.05.23-.07.31-.11.42-.13.82-.04,1.23.18,1.19.67,2.15,1.77,2.7,3.15.55,1.4.62,2.87.35,4.33-.22,1.08-.68,2.19-1.49,3.14-.79.95-1.98,1.69-3.22,1.95l-.02-.08Z"/><path class="cls-1" d="M45.76,104.62l-2.01.19.1-.15s.02-.06.04-.08l.05-.16.1-.31c.08-.22.1-.36.21-.63.25-.59.48-1.1.71-1.59.42-.98,1.16-2.01,2.19-2.95.43-.4.89-.81,1.37-1.17.23-.16.52-.4.69-.5.17-.11.34-.21.52-.31,1.26-.64,2.61-1.17,4.16-1.25,1.46-.07,2.91.23,4.21.79,1.15.5,2.22,1.14,3.14,1.91.61.48,1.14,1.05,1.59,1.66l.32.47.22.54c.07.18.13.37.18.55.05.19.01.43.02.63-.03.54-.07.47-.58.33-.57-.11-1.61-.2-2.16-.64-.22-.22-.47-.42-.7-.62-.25-.18-.48-.38-.7-.57-.45-.39-.92-.73-1.41-1.01-.97-.58-2.01-.94-3.18-1.09l-.53-.04c-.16.01-.33.02-.5.05-.34.05-.7.14-1.05.27-.35.13-.7.29-1.05.48-.17.1-.35.18-.51.29l-.42.25c-.31.17-.61.36-.94.66-.16.15-.32.31-.46.5-.07.09-.14.21-.19.3l.26.02c.07,0,.07.03.19,0,.35.07.87.09,1.41.12l2.58.1c.91.04,1.82.07,2.73.07,1.41,0,2.79-.16,4.18-.24.31-.02.61-.06.91-.07,1.14-.02,1.5.18,1.73.93.05.17.12.34.15.51.1.58-.38,1.04-1.22,1.2-2.5.46-5.11.48-7.72.45-.97-.02-1.94-.03-2.91-.05h-1.18s-1.45,0-1.45,0c-.46-.02-1.01.04-1.55.09l-1.64.15.11-.08Z"/><path class="cls-1" d="M39.45,114.84l-3.98-.11-.52-.02-.92-.04c-.61-.03-1.21-.09-1.76-.19l-.39-.1c-.11-.05-.2-.11-.3-.17-.19-.12-.34-.25-.42-.44l-.07-.14-.04-.08-.02-.04v-.02s-.01-.01-.01-.01c-.05.02.1-.06-.11.05h0c-.04-.1-.07-.2-.1-.29-.05-.2-.06-.43-.05-.67.02-.5.22-1.05.41-1.6l.32-.82c.11-.28.26-.56.31-.69.33-.65.68-1.29,1.1-1.9.83-1.21,1.83-2.37,3.1-3.26.91-.66,1.98-1.15,3.11-1.49l1.53-.34,1.48-.22c3.47-.41,6.86-.5,10.27-.54,3.4-.03,6.8.03,10.2.2,1.51.08,3.02.15,4.55.28.76.05,1.54.16,2.32.25.41.08.82.15,1.23.26.39.14.81.25,1.18.43,1.97.84,3.62,2.15,5,3.64.69.75,1.31,1.55,1.84,2.41.26.43.5.88.72,1.34.21.47.32.98.45,1.48.15.63.07.97-.09.99-.18.04-.45-.19-.93-.51-.99-.63-2.65-1.59-3.93-3.07-1.19-1.28-2.54-2.38-3.95-3.05-.71-.35-1.4-.51-2.16-.68l-1.33-.2-1.39-.15c-3.77-.35-7.66-.52-11.54-.67-2.33-.07-4.71-.03-7.08.14-2.36.17-4.77.4-6.96.83-.64.11-1.1.26-1.61.46-.5.23-.98.51-1.42.86-.9.68-1.69,1.57-2.35,2.58-.16.26-.32.51-.47.78-.07.13-.15.26-.22.4l-.14.28c-.12.24-.23.5-.32.77-.11.18.13.2.24.22.13.02.27.04.41.05l.43.03.97.05c3.22.09,6.48.06,9.72.03,4.93-.06,9.88-.13,14.77-.19,3.8-.08,7.53-.31,11.31-.38.83-.02,1.65-.05,2.49-.04,3.12.05,4.13.34,4.73,1.13.14.18.32.37.39.55.23.61-1.03.93-3.27,1.01-6.65.26-13.71.49-20.82.62-5.28.09-10.58.09-15.91.06v-.07Z"/><path class="cls-1" d="M68.81,53.78c-1.88-2.74-3.28-5.65-4.43-8.68-1.12-3.03-1.94-6.21-2.23-9.48-.23-2.38-.21-4.83.27-7.24.45-2.11,1.27-4.17,2.42-6.02.56-.93,1.24-1.79,1.96-2.59.73-.79,1.56-1.48,2.35-2.2,3.4-2.63,7.51-4.1,11.64-4.61,3.67-.44,7.42-.22,10.98.65.57.16,1.13.33,1.69.51l.84.27.82.34c.54.23,1.09.45,1.63.7l1.56.86c2.01,1.23,4,2.71,5.09,4.88.7,1.31.55,1.12-.57.53-.29-.14-.62-.31-1.02-.48-.42-.15-.84-.35-1.31-.54-.91-.42-1.98-.83-2.98-1.48-1.89-.98-3.87-1.81-5.95-2.32-.5-.18-1.03-.28-1.55-.4-.52-.11-1.04-.26-1.57-.33-1.06-.13-2.12-.33-3.2-.33-4.29-.26-8.64.63-12.43,2.66-.54.35-1.07.71-1.61,1.07-.55.35-.98.85-1.48,1.27-.99.86-1.78,1.91-2.46,3.03-1.38,2.23-2.05,4.86-2.29,7.51-.24,2.93.13,5.95.86,8.89.74,2.94,1.84,5.81,3.25,8.52.43.83.9,1.65,1.39,2.45.25.39.5.79.77,1.16l.27.38c.07.1.14.19.22.28.07.09.15.18.23.27.02.02.04.05.06.06.03,0,.05-.02.08-.03.05-.03.09-.07.14-.11.18-.15.35-.31.53-.48l.96-.95,1-1.03c4.03-4.21,8.07-8.48,12.04-12.72,3.09-3.3,6-6.63,9.12-9.86.69-.71,1.35-1.42,2.07-2.12,2.69-2.57,3.86-3.15,4.98-2.96.26.04.56.06.75.16.63.36-.25,1.51-2.1,3.38-5.48,5.6-11.18,11.77-16.98,17.86-1.96,2.06-3.93,4.13-5.89,6.19l-2.99,3.1-.76.78-.64.63c-.25.25-.5.48-.76.71-.51.41-1.07.82-1.54.57l-.18-.05h-.05s-.01-.02-.01-.02h0c0-.05-.04.42-.02.22h-.02s-.09-.04-.09-.04l-.36-.12c-.12-.04-.24-.08-.36-.12l-.36-.3c-.38-.39-.74-.81-1.08-1.25l-.26-.33c-.09-.11-.18-.23-.21-.27l-.27-.38.05-.05Z"/><path class="cls-1" d="M98.34,63.48c.07.16-.02.32-.16.48-.04.05-.2.08-.24.04-.08-.09-.16-.18-.21-.25,0-.06-.55-.91-.78-1.19-.19-.28-.29-.58-.39-.88l-.62-1.8c-.05-.13-.06-.27-.04-.41.05-.48-.03-.94-.18-1.39-.02-.07-.03-.15-.12-.21-.15-.1-.47-1.29-.45-1.46.05-.41.05-.82.07-1.24,0-.06-.05-.11.04-.18.19-.18.11-.29.11-.41-.01-.17-.03-.35,0-.54.01-.09.11-.22.18-.33.07-.1.39-.17.44-.16.13.04.25-.07.38-.13.04-.02.1-.04.14-.05.07-.02,1.05.78,1.05.91,0,.01.15.38.31.78.14.38.29.79.32.89.04.09,0,.19-.01.29,0,.05.38,1.23.38,1.28.01.26.13.49-.03.77-.03.06-.01.1,0,.15.09.42.08.86.04,1.29-.01.22.02.44.03.65,0,.04-.02.08-.03.12-.01.05-.03.1-.03.15.04.51,0,1.03.08,1.53,0,.12-.17.72-.16.85,0,.08-.15.36-.11.42Z"/><path class="cls-1" d="M106.82,54.33c.15.02.15.21.06.49-.03.09-.19.3-.25.31-.11.02-.22.04-.31.04-.06,0-.78-.28-1.04-.35-.27-.04-.52-.12-.77-.2-.52-.14-.91-.44-1.36-.68-.1-.06-.18-.13-.25-.22-.24-.31-.55-.52-.9-.69-.06-.03-.11-.07-.2-.04-.16.05-1.05-.48-1.13-.6-.19-.3-.41-.56-.61-.84-.03-.04-.09-.04-.07-.15.06-.25-.05-.27-.12-.34-.1-.1-.19-.21-.26-.36-.03-.07,0-.22,0-.35.01-.12.26-.39.3-.41.12-.06.19-.23.27-.35.03-.04.07-.1.1-.13.06-.07,1.11-.1,1.17-.03,0,0,.27.16.55.32.28.16.57.32.64.35.07.03.09.11.13.18.02.03.87.49.89.52.14.14.34.21.38.48,0,.05.05.07.08.09.28.19.5.46.74.71.12.13.27.22.4.33.02.02.03.06.05.09.02.04.04.08.07.1.31.28.53.67.85.92.07.07.34.46.43.51.05.03.09.31.15.32Z"/><path class="cls-1" d="M110.99,46.86c.12-.11.23.1.35.47.04.12.05.48.02.54-.07.11-.13.21-.2.29-.04.05-.73.31-.97.43-.23.11-.46.16-.69.19-.47.07-.95.12-1.43.15-.11,0-.21-.01-.32-.05-.36-.13-.73-.14-1.09-.09-.06,0-.12,0-.18.07-.1.13-1.1.12-1.22.06-.31-.16-.62-.27-.93-.4-.04-.02-.09,0-.13-.09-.08-.23-.18-.2-.27-.22-.13-.03-.26-.08-.39-.16-.06-.04-.11-.18-.17-.28-.05-.1.02-.43.04-.47.07-.1.04-.26.05-.41,0-.05.01-.11.01-.15.02-.09.82-.58.89-.56,0,0,.28-.01.58-.03.29-.02.59-.04.65-.06.06-.02.13.04.19.08.03.02.9-.09.93-.09.18.04.36-.03.53.16.03.04.07.03.11.03.31-.02.62.06.93.12.16.03.32,0,.47,0,.03,0,.06.03.09.04.04.01.07.04.11.04.38,0,.76.11,1.13.05.09-.01.51.19.61.16.06-.01.25.25.3.21Z"/></svg>