<svg width="128" height="128" viewBox="0 0 128 128" fill="none" xmlns="http://www.w3.org/2000/svg">
<path d="M106.92 25.73C106 25.79 101.13 28.1 100.6 30.43C100.16 32.39 96 29.35 96 29.35C96 29.35 98.13 25.98 101.92 25.38C105.71 24.78 106.92 25.73 106.92 25.73Z" fill="#231F20"/>
<path d="M92.9301 39.22C94.5201 35.62 98.4501 32.49 100.11 32.55C100.11 32.55 95.9801 30.43 94.5001 31C93.0201 31.57 87.3101 38.33 87.3101 38.33L92.9301 39.23V39.22Z" fill="#231F20"/>
<path d="M75.0802 57.17C73.1902 59.65 71.3402 62.18 69.5202 64.72C68.8502 65.65 68.2602 66.62 67.5902 67.55C65.2702 70.84 62.9702 74.15 60.7702 77.52C59.8002 79.02 58.8702 80.56 57.9502 82.08C56.7802 84.03 55.7602 86.08 54.1602 87.79C53.6302 88.3 53.6902 88.23 53.7502 87.58C53.7502 86.89 53.8702 85.68 54.3902 84.45C55.4602 82.37 56.6102 80.32 57.8202 78.32C59.0702 76.34 60.3602 74.38 61.7302 72.46C63.3702 70.16 64.8702 67.64 66.4802 65.25C68.2602 62.63 70.0902 60.03 71.9702 57.48C73.1202 55.9 74.3102 54.35 75.5002 52.8C77.3102 50.45 79.1902 48.15 81.1002 45.9C82.5902 44.15 83.9902 42.38 85.7002 40.78C86.0702 40.43 86.4402 40.07 86.8802 39.75C87.2602 39.43 87.6402 39.23 87.9702 39.09C88.2802 38.93 88.5902 38.86 88.8502 38.82C89.3402 38.72 89.7102 38.87 89.9702 39.09C90.0902 39.19 90.2202 39.28 90.2802 39.38C90.3802 39.55 90.2502 39.75 90.0302 40C89.9202 40.13 89.7902 40.23 89.6102 40.41C89.4402 40.57 89.2402 40.71 89.0202 40.93C87.6402 42.07 86.2402 43.5 84.9002 45.02C83.5502 46.54 82.2002 48.14 80.8802 49.76C78.9202 52.18 76.9802 54.66 75.1102 57.2L75.0602 57.17H75.0802Z" fill="#231F20"/>
<path d="M56.7098 89.95C57.0798 90.29 57.3298 90.73 57.5298 91.14C57.5898 91.29 57.7198 91.42 57.7598 91.58C57.9298 92.14 58.0098 92.67 57.9798 93.2C57.9798 93.43 57.9798 93.65 58.0098 93.87C58.0298 94.15 58.0598 94.43 57.9298 94.71C57.8898 94.8 57.6998 94.79 57.4898 94.72C57.2798 94.65 57.0298 94.54 56.9698 94.41C56.7898 93.91 56.5098 93.5 56.5698 93.01C56.5898 92.71 56.3998 92.47 56.2798 92.23C56.1498 91.97 55.9998 91.72 55.7998 91.5C55.6698 91.38 55.5698 91.21 55.4098 91.12C55.1898 90.94 54.9198 90.79 54.6198 90.75C54.3898 90.71 54.1498 90.77 53.9198 90.78C53.8698 90.78 53.8198 90.81 53.7698 90.79C53.5798 90.74 53.5098 90.63 53.4398 90.35L53.3998 90.16C53.3598 89.96 53.4398 89.76 53.6098 89.62C54.0998 89.19 54.7698 89.12 55.3998 89.27C55.8698 89.39 56.3398 89.61 56.7498 89.92L56.7198 89.96L56.7098 89.95Z" fill="#231F20"/>
<path d="M54.59 108.59C52.72 104.96 49.74 105.5 49.74 105.5L48.48 111.66L54.59 108.59Z" fill="#231F20"/>
<path d="M59.5102 91.77C59.5102 91.77 59.5502 91.79 59.5902 91.81C59.6302 91.81 59.5602 91.83 59.9502 91.79C60.2302 91.75 60.5102 91.72 60.8502 91.76C61.1702 91.76 61.4802 91.82 61.7802 91.9C62.0902 91.96 62.3602 92.08 62.6402 92.2C63.1902 92.44 63.7202 92.71 64.1602 93.09C64.7402 93.63 65.2402 94.24 65.5702 94.95C65.7402 95.29 65.8802 95.66 65.9802 96.03L66.1002 96.6C66.1202 96.74 66.1002 96.78 66.1002 96.88C66.1002 96.96 66.1002 97.04 66.0802 97.13C66.0802 97.21 66.0202 97.35 66.1302 97.32C66.2802 97.32 66.4602 97.32 66.6302 97.32C66.6702 97.32 66.9102 97.32 67.1102 97.34C67.3102 97.36 67.5202 97.39 67.7302 97.42C68.2502 97.56 68.8202 97.78 69.2702 98.19C69.7102 98.64 69.9002 99.27 69.9002 99.8C69.8802 100.15 69.7002 100.11 69.3602 99.98C69.1902 99.92 68.9602 99.84 68.7202 99.81C68.4802 99.78 68.2402 99.81 68.0702 99.81C67.6902 99.71 67.2302 99.76 66.6302 99.66C66.3302 99.64 65.8602 99.68 65.4802 99.7C65.0902 99.7 64.7002 99.66 64.6102 99.35L64.4102 99.03V99.01C64.5802 98.83 64.1702 99.25 64.2102 99.21L64.2002 99.18L64.1802 99.13L64.1402 99.03L64.0602 98.83L63.9002 98.44L63.8602 98.34V98.19L63.8802 97.88L63.8502 97.15L63.8202 96.84C63.7502 95.98 63.0002 95.29 62.3002 94.81C61.9202 94.58 61.5202 94.39 61.1002 94.31C60.8902 94.28 60.7002 94.23 60.4602 94.26L60.1002 94.3L59.4402 94.63C59.3202 94.7 59.2002 94.78 59.0902 94.84L58.3502 95.04C58.1102 95.11 58.0402 95.1 57.8802 95.14L57.6702 95.18C57.6002 95.21 57.4802 95.09 57.4602 95.02C57.3802 94.87 57.3302 94.7 57.2702 94.5C57.1902 94.2 57.1202 93.82 57.1202 93.36C57.1402 92.89 57.1302 92.45 57.0802 92.03C57.0102 91.48 56.8502 91.04 56.5902 90.68C56.1502 90.14 55.5002 89.95 54.7902 89.89C54.6402 89.87 54.4702 89.89 54.3102 89.88C53.7002 89.74 53.4602 89.5 53.2802 89.03C53.2402 88.92 53.1802 88.82 53.1602 88.73C53.1102 88.57 53.1602 88.41 53.2902 88.24C53.4302 88.08 53.6402 87.85 53.9602 87.75C54.4202 87.53 54.9302 87.48 55.4702 87.51C56.0102 87.54 56.6002 87.66 57.1802 87.93C58.3602 88.5 59.1802 89.8 59.4502 90.91C59.5002 91.12 59.5502 91.33 59.5802 91.53C59.5802 91.54 59.5802 91.53 59.5802 91.54C59.5802 91.54 59.5702 91.55 59.5602 91.57C59.5402 91.6 59.5102 91.68 59.5402 91.67L59.5002 91.76L59.5102 91.77Z" fill="#231F20"/>
<path d="M100.6 25.74C101.13 25.89 101.65 26.07 102.17 26.27C102.36 26.35 102.56 26.38 102.74 26.47C103.38 26.82 103.98 27.26 104.52 27.73C104.64 27.84 104.77 27.93 104.89 28.03L105.24 28.36C105.53 28.64 105.83 28.96 105.9 29.4C105.92 29.54 105.67 29.66 105.36 29.74C105.05 29.82 104.68 29.91 104.54 29.83L104.14 29.63C104 29.57 103.86 29.52 103.76 29.43C103.53 29.25 103.3 29.06 103.06 28.83C102.76 28.55 102.33 28.51 101.94 28.39C101.51 28.25 101.08 28.07 100.61 27.95C100.33 27.87 100.04 27.81 99.75 27.75C99.31 27.68 98.86 27.6 98.41 27.63C98.06 27.65 97.73 27.85 97.39 27.89C97.32 27.9 97.24 27.91 97.17 27.89C96.89 27.83 96.78 27.68 96.68 27.27L96.61 26.99C96.55 26.69 96.64 26.4 96.85 26.18C97.46 25.42 98.22 25.45 98.95 25.46C99.5 25.48 100.04 25.58 100.58 25.68V25.73L100.6 25.74Z" fill="#231F20"/>
<path d="M104.35 23.46C106.26 23.51 108.15 24.02 109.79 24.92C110.39 25.26 110.99 25.57 111.45 25.96C112.3 26.67 113.13 27.42 113.87 28.32C114.6 29.21 115.25 30.25 115.6 31.38C115.93 32.37 116.1 33.4 116.13 34.38C116.13 35.01 116.12 35.63 116.03 36.24C115.98 36.85 115.66 37.41 115.4 37.96C115.22 38.3 114.96 38.19 114.64 37.82C114.48 37.64 114.3 37.39 114.12 37.1C114.03 36.96 113.94 36.81 113.86 36.65C113.82 36.57 113.79 36.5 113.75 36.41C113.75 36.33 113.73 36.26 113.73 36.18C113.7 35.08 113.6 34.06 113.41 33.18C113.2 32.3 112.86 31.51 112.29 30.67C111.61 29.65 110.38 28.96 109.21 28.25C108.05 27.49 106.76 26.94 105.35 26.76C104.49 26.63 103.6 26.64 102.72 26.8C101.39 27.03 100.05 27.5 98.8998 28.28C97.9998 28.87 97.3198 29.72 96.6498 30.53C96.5098 30.72 96.3898 30.92 96.2298 31.09C95.5898 31.68 95.2398 31.76 94.5598 31.48C94.4098 31.42 94.2498 31.38 94.1198 31.31C93.6898 31.1 93.5198 30.49 93.7798 29.73C94.1398 28.59 94.9098 27.68 95.7398 26.79C96.5698 25.89 97.6498 25.22 98.7698 24.64C100.47 23.81 102.4 23.38 104.33 23.37V23.45L104.35 23.46Z" fill="#231F20"/>
<path d="M98.4499 29.26C99.3699 29.31 100.05 29.53 100.7 29.76C101.35 30 101.94 30.27 102.51 30.56C103.65 31.14 104.7 31.8 105.73 32.48C106.47 32.98 107.25 33.44 107.95 34C109.19 34.98 110.33 36.09 111.39 37.31C111.92 37.93 112.43 38.57 112.87 39.33C113.09 39.71 113.3 40.12 113.45 40.61C113.52 40.87 113.58 41.14 113.58 41.47C113.58 41.78 113.54 41.91 113.52 42.14C113.33 43.6 112.95 45.02 112.33 46.31C111.93 47.13 111.5 47.95 110.91 48.66C110.61 49.01 110.28 49.33 109.94 49.63C109.6 49.93 109.23 50.2 108.8 50.39C108.27 50.63 108.24 50.45 108.32 49.89C108.38 49.29 108.51 48.34 108.89 47.53L109.14 46.99C109.24 46.82 109.33 46.65 109.42 46.48C109.6 46.14 109.76 45.79 109.91 45.43C110.19 44.72 110.44 44.01 110.63 43.3C110.72 42.94 110.79 42.58 110.85 42.21C110.89 42.03 110.89 41.85 110.92 41.66V41.59L110.93 41.56V41.54C111.09 41.54 110.57 41.52 111.29 41.54C111.19 41.53 111.09 41.53 110.99 41.54C110.87 41.54 110.97 41.56 110.94 41.54V41.5C110.91 41.19 110.49 40.44 110.04 39.83C108.91 38.27 107.11 37.05 105.46 35.81C103.62 34.49 101.64 33.21 99.6299 32.5C99.3299 32.4 99.0199 32.32 98.7499 32.27C98.4599 32.22 98.2799 32.22 97.9199 32.26C97.2899 32.29 96.6499 32.44 96.0299 32.65C94.1399 33.3 92.3599 34.57 90.8599 36.07C90.2699 36.66 89.7399 37.3 89.2299 37.95L87.6699 39.91C87.4399 40.2 87.2299 40.5 86.9699 40.78C86.0099 41.81 85.4399 41.95 84.8699 41.81C84.7399 41.78 84.5999 41.76 84.4899 41.71C84.1599 41.54 84.2799 40.91 84.7099 39.97C85.4099 38.64 86.2599 37.31 87.2199 35.98C88.2399 34.71 89.3999 33.47 90.7499 32.35C92.7799 30.72 95.2399 29.27 98.4499 29.17V29.25V29.26Z" fill="#231F20"/>
<path d="M94.4299 41.87C93.9299 41.65 93.3899 41.54 92.8599 41.41L92.0599 41.21L91.2399 41.11C90.6899 41.07 90.1499 40.93 89.5799 40.96H88.0199C88.0199 40.96 87.9599 40.96 87.9399 40.97C87.9199 40.98 87.9299 40.97 87.8899 41C87.8399 41.03 87.7799 41.07 87.7099 41.12C87.4399 41.32 87.1399 41.59 86.8499 41.86C86.2599 42.42 85.6699 43.04 85.0899 43.68C83.9199 44.96 82.8099 46.32 81.7299 47.72C79.5599 50.5 77.4699 53.37 75.3499 56.21C73.2899 59.02 71.3399 61.91 69.3399 64.76C65.8099 69.79 62.3399 74.87 59.0399 80.03C57.4199 82.6 55.7299 85.25 54.4599 87.85C54.2699 88.28 54.2999 88.14 54.2099 88.65L53.9899 89.78L53.5599 92.05L52.6999 96.6C52.2799 98.8 51.8499 101 51.4299 103.2C51.2099 104.3 50.9899 105.4 50.7399 106.5L50.4099 107.96L50.2299 108.72C50.1799 108.95 50.1099 109.17 50.0499 109.39L49.9499 109.71C49.8999 109.79 50.0299 109.74 50.0599 109.73L50.2299 109.67C50.6099 109.51 50.9799 109.34 51.3399 109.17L51.8599 108.92L53.0299 108.39L57.8199 106.24C59.4199 105.53 61.0499 104.87 62.7099 104.28C63.5399 103.98 64.3699 103.69 65.2099 103.42C66.0599 103.17 66.9299 102.97 67.8299 102.84C68.9599 102.72 69.4699 102.77 69.4699 102.9C69.4699 103.04 68.9799 103.29 68.2199 103.9C66.7099 105.15 63.9699 107.22 60.3399 108.89L53.6199 111.9L50.5999 113.23C50.0399 113.47 49.4599 113.72 48.9499 113.87C48.4199 114.03 47.9999 114.02 47.6599 113.97C47.3199 113.92 47.0899 113.78 46.8899 113.63C46.7999 113.56 46.6999 113.48 46.5899 113.37L46.3499 113.15L46.1099 112.93C46.0799 112.75 46.0599 112.54 46.0299 112.34L45.9599 111.74L45.9199 111.44L46.0699 110.97C46.4099 109.82 46.7699 108.67 47.0199 107.56L47.4699 105.62L48.1999 102.25C48.6599 99.98 49.1199 97.7 49.5799 95.42C50.0399 93.13 50.4999 90.83 50.9599 88.53L51.1599 87.58C51.1799 87.45 51.2199 87.32 51.2799 87.19L51.4099 86.87L51.6199 86.41C51.9099 85.83 52.1999 85.29 52.4999 84.76C53.0999 83.7 53.7199 82.69 54.3599 81.68C59.0299 74.37 63.8799 66.86 68.9599 59.65C71.6699 55.86 74.3699 52.06 77.2999 48.4C78.7499 46.57 80.2399 44.76 81.7799 42.97C82.5499 42.08 83.3399 41.19 84.1799 40.33C84.6099 39.9 85.0399 39.47 85.5399 39.06C85.7999 38.85 86.0299 38.66 86.3999 38.43C86.7799 38.19 87.2099 38.03 87.6599 37.99H88.8999C92.0299 37.96 95.2199 38.66 98.0099 40.18C100.82 41.67 103.11 43.99 104.76 46.66C105.24 47.47 105.68 48.3 106.01 49.2C106.19 49.64 106.33 50.11 106.45 50.6C106.52 50.85 106.53 51.11 106.58 51.42C106.6 51.73 106.54 52.06 106.49 52.37L106.18 53.12C106.08 53.35 105.99 53.61 105.87 53.8L105.2 55.03C104.74 55.84 104.25 56.61 103.77 57.39C102.79 58.93 101.78 60.45 100.76 61.95C98.7099 64.95 96.6399 67.91 94.5499 70.84C90.5199 76.52 86.6299 82.11 82.5699 87.67C81.6799 88.89 80.8199 90.11 79.8999 91.32C76.3699 95.75 74.9999 96.97 73.7299 97.52C73.4399 97.64 73.0999 97.84 72.8899 97.88C72.1999 98.02 73.2599 95.93 75.5499 92.48C77.2299 89.91 79.0399 87.39 80.8799 84.84C82.7099 82.29 84.5599 79.72 86.4199 77.13C90.1399 71.94 93.9099 66.69 97.5499 61.36C98.6799 59.7 99.7899 58.03 100.86 56.35C101.42 55.51 101.89 54.67 102.41 53.83C102.86 53.04 103.38 52.04 103.55 51.61C103.55 51.59 103.55 51.67 103.53 51.45C103.5 51.26 103.41 50.97 103.35 50.73L103.04 49.92L102.65 49.1C102.07 48.02 101.36 46.99 100.55 46.05C98.8999 44.2 96.7899 42.78 94.4599 41.97V41.89L94.4299 41.87Z" fill="#231F20"/>
<path d="M80.57 66.35L76.23 71.97C75.7 72.66 75.24 73.38 74.7 74.07C72.82 76.47 70.92 78.87 68.97 81.22C68.11 82.27 67.28 83.35 66.47 84.42C65.95 85.11 65.4 85.78 64.84 86.44C64.28 87.1 63.67 87.73 62.96 88.26C62.52 88.6 62.48 88.46 62.56 87.94C62.62 87.6 62.69 87.23 62.75 86.88C62.86 86.47 63.06 86.05 63.33 85.63C64.25 84.13 65.3 82.74 66.36 81.34C67.41 79.94 68.47 78.54 69.62 77.19C71 75.58 72.2 73.73 73.48 71.98L77.74 66.23L80.37 62.69C81.68 60.89 83.08 59.14 84.38 57.35C85.4 55.97 86.25 54.5 87.29 53.15C87.51 52.85 87.72 52.55 87.96 52.25C88.88 51.19 89.35 50.99 89.84 51C89.95 51 90.08 50.98 90.16 51C90.43 51.05 90.34 51.7 89.92 52.66C88.58 55.44 86.71 58 84.89 60.63C83.55 62.59 82.05 64.45 80.64 66.37L80.59 66.34L80.57 66.35Z" fill="#231F20"/>
<path d="M88.3201 69.87L83.9201 75.82C83.3901 76.54 82.8901 77.3 82.3501 78.01C80.4201 80.53 78.4501 83.02 76.4301 85.46C75.5401 86.55 74.6501 87.65 73.7601 88.74C73.1801 89.43 72.6601 90.17 72.0001 90.8C71.6801 91.12 71.3601 91.44 71.0301 91.75C70.6901 92.06 70.2901 92.3 69.9201 92.57C69.4401 92.89 69.4401 92.77 69.6001 92.27C69.7001 91.94 69.8101 91.58 69.9101 91.23C70.0601 90.83 70.2701 90.39 70.5401 89.96C71.0201 89.19 71.5701 88.48 72.1201 87.76L73.7601 85.6C74.8401 84.14 76.0001 82.74 77.2001 81.35C78.6301 79.68 79.8801 77.77 81.2001 75.95L85.5401 69.94L88.1601 66.2C89.4601 64.3 90.8201 62.42 92.0501 60.49C93.0101 58.99 93.8301 57.45 94.7701 55.96C94.9701 55.63 95.1701 55.3 95.3701 54.97C96.1401 53.75 96.5901 53.48 97.0801 53.43C97.2001 53.42 97.3201 53.39 97.4201 53.4C97.7401 53.44 97.6601 54.08 97.2701 55.1C96.6101 56.55 95.9101 58.02 95.1101 59.46C94.2901 60.89 93.4201 62.31 92.5201 63.72C91.2101 65.83 89.7701 67.87 88.3401 69.9L88.2901 69.87H88.3201Z" fill="#231F20"/>
<path d="M28.91 111.76C29.3 112.61 29.19 113.89 29.1 114.32C29.01 114.88 28.94 115.33 28.94 115.61C28.95 115.89 28.94 115.92 29.04 116.07C29.13 116.2 29.39 116.38 29.73 116.5C30.23 116.7 30.89 116.64 31.53 116.67C33.9 116.69 36.59 115.81 39.45 115.62C40.72 115.54 42.04 115.48 43.36 115.76C43.78 115.84 44.19 116.01 44.6 116.14C44.99 116.32 45.37 116.53 45.75 116.74C46.5 117.19 46.97 117.96 47.39 118.66C47.65 119.11 47.43 119.19 46.88 119.17C46.54 119.15 46.19 119.13 45.86 119.11C45.67 119.09 45.45 119.11 45.24 119.1C45.13 119.1 45.04 119.09 44.93 119.1C44.85 119.07 44.76 119.04 44.68 118.99C44.4 118.83 44.08 118.79 43.8 118.67C43.52 118.56 43.2 118.57 42.92 118.47C42.63 118.4 42.32 118.37 42.02 118.3L41.06 118.24C39.74 118.22 38.29 118.45 36.73 118.61C34.87 118.8 32.91 119.5 30.65 119.37C30.04 119.34 29.4 119.22 28.77 119C28.14 118.77 27.46 118.4 26.93 117.75C26.39 117.11 26.19 116.19 26.22 115.55C26.22 114.87 26.35 114.33 26.4 113.85C26.44 113.51 26.45 113.45 26.44 113.27C26.44 113.12 26.39 112.95 26.29 112.83C26.2 112.7 26.06 112.61 25.9 112.57C25.83 112.55 25.73 112.53 25.67 112.52C25.59 112.5 25.43 112.52 25.31 112.52C23.63 112.63 21.69 113.25 19.95 114C18.57 114.6 17.34 115.44 16.03 116.16C15.74 116.32 15.47 116.5 15.17 116.64C14.05 117.15 13.5 116.97 13.02 116.59C12.91 116.5 12.78 116.42 12.7 116.33C12.56 116.17 12.57 115.96 12.68 115.68C12.79 115.4 13 115.04 13.34 114.7C14.36 113.73 15.54 112.95 16.82 112.28C18.09 111.6 19.44 111 20.87 110.48C21.84 110.13 22.84 109.83 23.98 109.64C24.58 109.56 25.13 109.52 25.94 109.6C26.92 109.75 27.77 110.09 28.4 110.77C28.61 111.08 28.83 111.37 28.96 111.72L28.9 111.76H28.91Z" fill="#231F20"/>
<path d="M81.71 23.51C81.93 23.46 81.95 23.8 81.89 24.32C81.87 24.49 81.68 24.93 81.61 24.98C81.46 25.08 81.31 25.18 81.17 25.24C81.09 25.27 79.99 25.31 79.59 25.39C79.21 25.45 78.85 25.45 78.54 25.34L76.57 24.81C76.42 24.77 76.29 24.69 76.18 24.58C75.77 24.21 75.29 24.03 74.79 23.9C74.71 23.88 74.63 23.83 74.51 23.91C74.31 24.05 73.01 23.55 72.87 23.4C72.54 23.01 72.18 22.71 71.84 22.36C71.79 22.31 71.71 22.33 71.71 22.17C71.71 21.79 71.58 21.77 71.46 21.68C71.3 21.56 71.15 21.42 71.05 21.16C71.01 21.01 71 20.77 70.97 20.59C70.94 20.43 71.1 20.17 71.14 20.14C71.26 20.06 71.26 19.88 71.3 19.75C71.32 19.7 71.34 19.65 71.35 19.61C71.36 19.59 71.46 19.53 71.62 19.41C71.79 19.28 71.98 19.17 72.18 19.08C72.55 18.94 72.94 18.8 73 18.82C73.01 18.82 73.42 18.91 73.85 19C74.28 19.09 74.73 19.18 74.82 19.18C74.92 19.18 74.98 19.3 75.05 19.38C75.08 19.42 76.39 19.63 76.43 19.66C76.66 19.8 76.96 19.77 77.09 20.16C77.11 20.24 77.17 20.25 77.22 20.27C77.65 20.42 78.02 20.74 78.41 21C78.61 21.14 78.84 21.2 79.05 21.31C79.09 21.33 79.11 21.39 79.14 21.42C79.18 21.46 79.21 21.52 79.26 21.54C79.77 21.75 80.23 22.11 80.74 22.33C80.86 22.38 81.28 22.98 81.42 23.01C81.5 23.04 81.59 23.52 81.68 23.5L81.71 23.51Z" fill="#231F20"/>
<path d="M93.6401 19.6C93.7701 19.77 93.5201 19.94 93.0801 20.11C92.9401 20.16 92.5101 20.19 92.4401 20.15C92.3101 20.06 92.1701 19.97 92.0701 19.88C92.0101 19.82 91.5701 18.87 91.3701 18.55C91.1901 18.24 91.0701 17.92 91.0001 17.6L90.6601 15.63C90.6401 15.48 90.6401 15.34 90.6801 15.19C90.8101 14.67 90.7601 14.17 90.6301 13.68C90.6101 13.6 90.6201 13.51 90.5001 13.44C90.2601 13.33 90.2201 11.96 90.3001 11.77C90.4901 11.31 90.5901 10.86 90.7301 10.41C90.7501 10.35 90.7101 10.28 90.8201 10.21C91.0901 10.05 91.0501 9.92 91.0701 9.78C91.1101 9.59 91.1201 9.4 91.2501 9.2C91.3101 9.1 91.4501 9 91.5601 8.9C91.6601 8.81 91.9801 8.83 92.0201 8.85C92.1301 8.93 92.2901 8.85 92.4201 8.82C92.4701 8.82 92.5301 8.8 92.5701 8.81C92.6001 8.81 92.8901 9.06 93.1301 9.33C93.3601 9.6 93.6101 9.88 93.6201 9.94C93.6201 9.95 93.7301 10.35 93.8501 10.76C93.9701 11.17 94.1001 11.61 94.1401 11.69C94.1801 11.78 94.1301 11.88 94.1001 11.98C94.1001 12 94.2001 12.32 94.3001 12.64C94.3701 12.96 94.4401 13.29 94.4401 13.31C94.4201 13.58 94.5301 13.83 94.2901 14.11C94.2401 14.17 94.2601 14.22 94.2701 14.27C94.3301 14.72 94.2501 15.18 94.2001 15.63C94.1801 15.86 94.2201 16.09 94.2301 16.32C94.2301 16.36 94.2001 16.41 94.1801 16.45C94.1601 16.5 94.1301 16.56 94.1401 16.61C94.1601 16.88 94.1501 17.16 94.1401 17.43C94.1101 17.71 94.0901 17.98 94.1301 18.25C94.1301 18.38 93.8701 19 93.9001 19.14C93.9101 19.22 93.5801 19.51 93.6401 19.58V19.6Z" fill="#231F20"/>
</svg>
