<svg width="128" height="128" viewBox="0 0 128 128" fill="none" xmlns="http://www.w3.org/2000/svg">
<path d="M62.7401 95.9601C62.2801 95.6401 61.8401 95.3001 61.4001 94.9701C61.2401 94.8401 61.0501 94.7801 60.8901 94.6501C60.3401 94.1801 59.8801 93.6001 59.4001 93.0701C59.2001 92.8101 58.9401 92.6301 58.7201 92.3901C58.5801 92.2401 58.4301 92.0801 58.3201 91.9001C58.1901 91.7401 58.1101 91.5001 58.1601 91.2301C58.1801 91.0601 58.4001 90.9601 58.7501 90.8501C58.9701 90.7801 59.1801 90.7201 59.3501 90.6701C59.5501 90.6201 59.6801 90.6001 59.7701 90.6401C60.4301 90.8501 60.8101 91.3401 61.2501 91.9601C61.5101 92.3301 61.9401 92.5001 62.3001 92.7601C62.6901 93.0601 63.1001 93.3501 63.5101 93.6301C63.7601 93.8101 64.0301 93.9701 64.3001 94.1201C64.7101 94.3401 65.1201 94.5901 65.5701 94.7101C65.9201 94.8001 66.3101 94.7601 66.6601 94.7901C66.7401 94.7901 66.8201 94.7901 66.9001 94.8001C67.1701 94.8901 67.2101 95.0801 67.1301 95.6501L67.0701 96.0401C66.9901 96.4701 66.7801 96.8001 66.5001 96.9101C66.0901 97.0801 65.6901 97.1001 65.3001 97.1001C64.9301 97.0401 64.5601 96.9301 64.2201 96.7801C63.7001 96.5701 63.2101 96.2801 62.7301 96.0101L62.7601 95.9501L62.7401 95.9601Z" fill="#231F20"/>
<path d="M66.7798 99.91C66.3898 100.56 66.0098 101.2 65.5798 101.81C65.4198 102.03 65.3198 102.28 65.1498 102.49C64.5598 103.22 63.9498 103.96 63.3598 104.69C63.0998 105.02 62.8798 105.36 62.6798 105.72C62.5398 105.94 62.4398 106.19 62.2698 106.39C62.0898 106.58 61.8798 106.76 61.6398 106.91C61.4898 107 61.2998 106.86 61.1298 106.58C60.9698 106.31 60.7598 105.88 60.8098 105.55C61.1998 104.54 61.8298 103.7 62.5198 102.89C62.9598 102.41 63.1798 101.79 63.4998 101.24C63.8398 100.62 64.2298 100.04 64.5798 99.43C64.7998 99.05 65.0098 98.68 65.1898 98.29C65.4698 97.7 65.7498 97.1 65.9098 96.48C66.0298 95.99 66.0398 95.49 66.0698 95.01C66.0798 94.9 66.0698 94.8 66.0798 94.69C66.1398 94.3 66.2898 94.2 66.8098 94.18C66.9298 94.18 67.0398 94.16 67.1498 94.17C67.5198 94.17 67.8398 94.4 67.9198 94.74C68.1598 95.76 68.1298 96.87 67.7398 97.84C67.4898 98.57 67.1498 99.27 66.8098 99.95L66.7598 99.93L66.7798 99.91Z" fill="#231F20"/>
<path d="M65.3998 106.11L65.2498 106.49L64.7498 107.19C64.6598 107.3 64.5898 107.43 64.4998 107.53C64.3898 107.62 64.2698 107.7 64.1398 107.77C63.6298 108.03 63.0598 108.12 62.4398 108.07C61.8298 108.01 61.1698 107.94 60.5998 107.67C60.2098 107.51 59.8898 107.37 59.5498 107.2C58.1898 106.66 56.8898 106.1 55.6198 105.45C54.6698 104.96 53.6898 104.52 52.7598 103.87L52.3998 103.61C52.2798 103.51 52.1698 103.45 51.9798 103.27C51.6298 102.98 51.2998 102.67 51.0498 102.32C50.7898 101.98 50.6298 101.58 50.5998 101.16C50.5898 100.95 50.5998 100.76 50.7098 100.57L50.8198 100.28L50.8798 100.13L50.9098 100.06V100.02L50.9298 100V99.99C50.3298 99.86 52.2698 100.28 49.5898 99.7C52.2698 100.27 50.3298 99.86 50.9298 99.99L50.9398 99.96L50.9698 99.92L51.0198 99.83L51.1298 99.66L51.3398 99.32L51.6398 98.85L52.1598 98.05L53.1998 96.44L55.2598 93.21C56.1098 91.86 56.8998 90.46 57.6698 89.07C58.1598 88.18 58.6498 87.28 59.1698 86.4C59.6798 85.52 60.2098 84.64 61.1598 84.03C61.8598 83.71 61.6398 83.68 61.7398 84.36C61.7898 84.7 61.9198 85.22 61.9098 85.75C61.9098 86.02 61.9298 86.32 61.8798 86.6C61.8098 86.87 61.7098 87.13 61.5798 87.4C60.6498 89.26 59.6398 91.06 58.5598 92.84C57.4898 94.62 56.3698 96.38 55.1798 98.11C54.8698 98.56 54.5698 99.03 54.2798 99.5L53.8498 100.22C53.7798 100.35 53.6998 100.48 53.6798 100.48L53.6198 100.53L53.5898 100.56H53.5798V100.58C54.1398 100.7 52.3198 100.31 54.8498 100.85C52.3198 100.31 54.1498 100.7 53.5798 100.58V100.59V100.61L53.5498 100.65L53.5098 100.73C53.4898 100.78 53.4798 100.84 53.5098 100.9C53.5598 101 53.6498 101.08 53.7398 101.15C53.7598 101.17 54.1098 101.41 54.3698 101.57C54.6498 101.74 54.9398 101.91 55.2298 102.08C56.3898 102.73 57.6298 103.31 58.8898 103.82C59.5198 104.06 60.1398 104.35 60.7998 104.48L61.2798 104.59C61.4498 104.63 61.4598 104.64 61.5498 104.67C61.6998 104.72 61.8498 104.76 62.0198 104.78C62.1398 104.79 62.2898 104.82 62.3698 104.72C62.4298 104.62 62.4698 104.5 62.5198 104.39L62.7198 103.92L63.0598 103.08L63.7398 101.41C64.7398 98.96 65.8198 96.55 66.7698 94.11C67.5098 92.22 68.0498 90.29 68.6798 88.38C68.8198 87.96 68.9198 87.54 69.0798 87.12C69.3698 86.35 69.6098 85.86 69.9298 85.58C70.2698 85.31 70.6798 85.24 71.1498 85.25C71.3598 85.25 71.5598 85.22 71.7198 85.24C71.9998 85.27 72.1798 85.48 72.3798 85.89C72.5998 86.3 72.6498 86.84 72.4998 87.43C71.6798 90.98 70.2698 94.47 68.8398 97.96C68.2998 99.25 67.7698 100.54 67.2298 101.84L66.4298 103.78L66.0398 104.75L65.8498 105.24L65.4898 106.19L65.4198 106.15L65.3998 106.11Z" fill="#231F20"/>
<path d="M13.5401 89.6C12.9101 91.94 12.3601 94.3 11.9601 96.7C11.8101 97.57 11.7501 98.46 11.6301 99.33C11.4201 100.87 11.2501 102.42 11.1801 103.95C11.1501 104.71 11.1401 105.49 11.2001 106.19L11.2301 106.43C11.2301 106.49 11.2401 106.52 11.2501 106.57C11.2601 106.65 11.2801 106.75 11.3401 106.82C11.4001 106.88 11.4801 106.93 11.5501 106.98L11.9501 107.19C13.0801 107.66 14.4701 107.84 15.8101 107.91C16.6801 107.97 17.5601 107.91 18.4501 107.97C18.8901 108.02 19.3401 108.03 19.7901 108.14C20.2401 108.26 20.6901 108.39 21.1401 108.51C21.7001 108.69 21.6201 108.8 21.1401 109.1C20.8301 109.31 20.4901 109.53 20.1601 109.75C19.9601 109.88 19.7401 110.05 19.5001 110.15C19.2601 110.24 19.0101 110.31 18.7501 110.35C18.5201 110.38 18.2901 110.43 18.0501 110.45H17.3401C16.8701 110.45 16.3901 110.45 15.9101 110.42C14.9501 110.37 13.9801 110.28 12.9701 110.08C12.4701 109.98 11.9601 109.84 11.4401 109.64C11.1801 109.55 10.9201 109.43 10.6501 109.29C10.3901 109.18 9.9701 108.89 9.6601 108.63C9.5901 108.55 9.4701 108.52 9.4501 108.4C9.3901 108.32 9.3201 108.24 9.2601 108.15C9.1701 107.96 9.0501 107.79 9.0001 107.58C8.9401 107.38 8.8901 107.17 8.8601 106.96L8.8101 106.51C8.7801 105.97 8.7801 105.48 8.8101 104.99C8.9401 102.67 9.0201 100.34 9.3301 98.06C9.6801 95.56 10.1801 93.09 10.7801 90.64C11.1501 89.14 11.5701 87.64 12.0101 86.16C12.6801 83.91 13.5001 81.71 14.3301 79.54C14.6501 78.69 14.9601 77.85 15.2701 77.01C15.6101 76.18 15.9501 75.35 16.3501 74.54C16.5101 74.18 16.6801 73.82 16.8701 73.47C17.5801 72.16 18.0101 71.86 18.6101 71.86C18.7501 71.86 18.9001 71.84 19.0201 71.87C19.4301 71.96 19.4301 72.65 19.0401 73.63C18.4801 75.09 17.9401 76.58 17.4001 78.09C16.8101 79.58 16.2401 81.1 15.6901 82.63C14.9001 84.92 14.1601 87.24 13.5601 89.61H13.5001L13.5401 89.6Z" fill="#231F20"/>
<path d="M117.95 96.99C118.1 98.51 118.17 100.04 118.16 101.58C118.16 102.14 118.19 102.7 118.18 103.26C118.12 103.95 118.1 104.62 118 105.31L117.86 106.33L117.62 107.55C117.62 107.66 117.55 107.75 117.51 107.85L117.48 107.92L117.46 107.96V107.97C117.43 107.95 117.52 108.02 117.39 107.92L117.38 107.93C117.34 107.97 117.3 108 117.27 108.03C117.2 108.09 117.1 108.15 117.02 108.21C116.93 108.27 116.8 108.27 116.69 108.3C116.16 108.41 115.91 108.42 115.6 108.46C114.73 108.56 113.87 108.65 113.01 108.75C111.91 108.87 110.79 108.83 109.7 108.68C109.36 108.63 109.41 108.52 109.7 108.35C109.99 108.19 110.5 107.92 111.11 107.77C111.61 107.67 112.1 107.51 112.6 107.43L114.09 107.17C114.58 107.07 115.07 106.98 115.56 106.88C115.66 106.86 115.85 106.82 115.88 106.82C115.9 106.84 115.91 106.82 115.94 106.83C115.96 106.83 115.99 106.83 116.02 106.83C116.06 106.83 116.02 106.79 116.08 106.79L116.1 106.74V106.71L116.14 106.6C116.42 105.35 116.36 103.98 116.33 102.64C116.32 101.17 116.2 99.68 116.09 98.2C116.01 97.29 115.91 96.37 115.79 95.46C115.58 94.08 115.41 92.69 115.09 91.34C114.85 90.29 114.48 89.29 114.14 88.3C114.06 88.08 113.97 87.87 113.91 87.65C113.66 86.83 113.68 86.56 114.01 86.22C114.09 86.14 114.16 86.06 114.24 86C114.5 85.79 114.91 86.04 115.25 86.64C116.23 88.41 116.8 90.4 117.28 92.41C117.66 93.9 117.82 95.44 118.03 96.97H117.98L117.95 96.99Z" fill="#231F20"/>
<path d="M67.0901 94.13C71.79 94.13 75.6001 90.7453 75.6001 86.57C75.6001 82.3947 71.79 79.01 67.0901 79.01C62.3901 79.01 58.5801 82.3947 58.5801 86.57C58.5801 90.7453 62.3901 94.13 67.0901 94.13Z" fill="#231F20"/>
<path d="M78.7799 64.55L80.8799 59.66L81.5899 57.86C82.4599 55.75 83.4099 53.68 84.3099 51.58C84.6899 50.64 85.0799 49.7 85.4599 48.77C85.9399 47.57 86.4299 46.37 87.0899 45.24C87.2899 44.88 87.2799 44.94 87.2399 45.29C87.1799 45.63 87.2199 46.31 87.0599 47.05C86.6999 48.32 86.3999 49.62 85.9399 50.85C85.4799 52.09 84.9899 53.32 84.4599 54.54C83.8399 56 83.2499 57.55 82.6399 59.06L80.5399 64L79.2199 67.03C78.5599 68.56 77.8599 70.09 77.2199 71.61C76.7199 72.8 76.2999 73.99 75.8299 75.17C75.7299 75.43 75.6399 75.69 75.5199 75.95C75.0899 76.91 74.8199 77.15 74.4399 77.22C74.3499 77.23 74.2599 77.26 74.1799 77.26C73.9199 77.25 73.8999 76.77 74.0999 76.02C74.7899 73.85 75.7299 71.66 76.6599 69.44C77.3599 67.8 78.0499 66.15 78.7499 64.51H78.7799V64.55Z" fill="#231F20"/>
<path d="M25.9398 62.21C26.3798 62.12 26.8198 62.07 27.2598 62.05C27.4198 62.03 27.5598 61.98 27.7198 61.98C28.2798 62.02 28.8198 62.05 29.3298 62.26C29.5598 62.33 29.7798 62.38 29.9998 62.42C30.2898 62.46 30.5598 62.57 30.7898 62.8C30.8598 62.87 30.7998 63.02 30.6798 63.19C30.5598 63.36 30.3798 63.59 30.2298 63.64C29.9598 63.75 29.7298 63.77 29.4898 63.82C29.2598 63.84 29.0298 63.9 28.7898 63.79C28.4998 63.67 28.2098 63.81 27.9298 63.85C27.6098 63.89 27.2898 63.94 26.9698 64.03C26.7798 64.08 26.5798 64.14 26.3798 64.2C26.0898 64.3 25.7798 64.42 25.5498 64.62C25.3698 64.78 25.2798 65.04 25.1698 65.24C25.1398 65.28 25.1298 65.34 25.0998 65.38C24.9898 65.53 24.8498 65.48 24.4398 65.19L24.1598 65C23.8598 64.78 23.6798 64.5 23.7098 64.28C23.7798 63.6 24.2198 63.13 24.6998 62.77C25.0698 62.51 25.4698 62.29 25.8998 62.15L25.9198 62.2L25.9398 62.21Z" fill="#231F20"/>
<path d="M30.4302 59.0899C30.6502 58.7899 30.8702 58.5099 31.1002 58.2299C31.1802 58.1299 31.2502 58.0099 31.3402 57.9099C31.6502 57.5599 31.9902 57.2399 32.3402 56.9399C32.4902 56.7999 32.6302 56.6499 32.7702 56.5099C32.9502 56.3199 33.1102 56.1099 33.3602 55.9999C33.5102 55.9199 33.7502 56.5 33.5802 56.72C33.2502 57.1 32.9202 57.48 32.5302 57.81C32.2902 58.01 32.1202 58.2799 31.9302 58.5299C31.7202 58.7999 31.5102 59.0699 31.3102 59.3599C31.1902 59.5299 31.0702 59.7099 30.9602 59.8899C30.7902 60.1699 30.6302 60.45 30.5102 60.74C30.4202 60.97 30.3902 61.22 30.3402 61.47C30.3402 61.52 30.3202 61.59 30.3102 61.63C30.2602 61.82 30.1802 61.8599 29.9202 61.8199L29.7502 61.7899C29.5602 61.7399 29.4302 61.6099 29.4302 61.4399C29.4302 60.9499 29.6102 60.4799 29.8402 60.0399C30.0102 59.7099 30.2102 59.3999 30.4102 59.0899H30.4302Z" fill="#231F20"/>
<path d="M61.0999 48.44C60.8099 48.24 60.4999 48.05 60.1799 47.9C60.0599 47.84 59.9299 47.84 59.8099 47.79C59.3899 47.61 58.9599 47.34 58.4799 47.22C58.2699 47.16 58.0599 47.16 57.8499 47.16C57.5799 47.14 57.3099 47.16 57.0199 47.01C56.9299 46.96 56.9099 46.74 56.9599 46.49C57.0099 46.24 57.1299 45.92 57.3099 45.83C57.4699 45.76 57.6299 45.7 57.7899 45.64C57.9499 45.6 58.1199 45.62 58.2799 45.62C58.6099 45.64 58.9299 45.7 59.2399 45.83C59.6099 45.97 60.0199 45.97 60.3899 46.11C60.7999 46.25 61.1899 46.44 61.5699 46.64C61.7999 46.76 62.0299 46.9 62.2499 47.03C62.5899 47.23 62.9099 47.47 63.2499 47.66C63.5199 47.8 63.8099 47.91 64.0799 48.06C64.1399 48.09 64.2099 48.11 64.2599 48.16C64.4599 48.32 64.4199 48.49 64.1899 48.82L64.0299 49.04C63.8399 49.28 63.5899 49.41 63.3799 49.42C62.7999 49.38 62.3299 49.28 61.9599 49.01C61.6699 48.83 61.3799 48.63 61.0699 48.47L61.0899 48.43L61.0999 48.44Z" fill="#231F20"/>
<path d="M64.1299 46.51C64.4299 46.39 64.7399 46.29 65.0399 46.2C65.1499 46.16 65.2399 46.09 65.3499 46.06C65.7499 45.96 66.1499 45.92 66.5499 45.89C66.7199 45.87 66.8899 45.82 67.0499 45.77C67.2499 45.7 67.4499 45.59 67.6999 45.69C67.8499 45.74 67.9099 46.88 67.7399 47C67.3999 47.19 67.0699 47.33 66.6599 47.33C66.3999 47.31 66.2199 47.48 65.9999 47.57C65.7599 47.67 65.5099 47.76 65.2799 47.87C65.1299 47.94 64.9799 48.01 64.8499 48.09C64.6399 48.22 64.4199 48.34 64.2599 48.53C64.1399 48.68 64.0999 48.9 64.0299 49.09C64.0099 49.13 64.0099 49.18 63.9899 49.22C63.9099 49.35 63.7899 49.3 63.3899 49L63.1199 48.79C62.8199 48.55 62.6299 48.29 62.6299 48.11C62.6299 47.58 62.9299 47.22 63.2799 46.97C63.5399 46.77 63.8299 46.62 64.1199 46.48L64.1499 46.52L64.1299 46.51Z" fill="#231F20"/>
<path d="M13.8 89.62C13.53 89.85 13.26 90.1 13.02 90.36C12.93 90.46 12.88 90.57 12.79 90.67C12.48 91.01 12.19 91.38 11.92 91.77C11.8 91.94 11.71 92.13 11.62 92.31C11.51 92.55 11.42 92.8 11.26 93.02C11.17 93.16 10.83 92.83 10.85 92.49C10.95 91.93 11.07 91.36 11.41 90.89C11.61 90.61 11.72 90.27 11.89 89.96C12.08 89.63 12.3 89.31 12.52 89C12.66 88.81 12.81 88.62 12.95 88.44C13.17 88.16 13.41 87.9 13.62 87.61C13.79 87.39 13.88 87.11 14.01 86.86C14.04 86.8 14.06 86.74 14.09 86.69C14.16 86.6 14.22 86.55 14.33 86.59C14.45 86.64 14.6 86.74 14.75 86.87L14.93 87.01C15.01 87.08 15.07 87.16 15.16 87.31C15.26 87.47 15.33 87.62 15.3 87.7C15.19 88.22 14.94 88.59 14.6 88.92C14.35 89.16 14.07 89.39 13.82 89.64L13.79 89.62H13.8Z" fill="#231F20"/>
<path d="M14.4101 83.99C14.4801 83.57 14.5601 83.16 14.6501 82.75C14.6801 82.6 14.6801 82.45 14.7201 82.3C14.8601 81.78 15.0201 81.27 15.2401 80.78C15.3301 80.56 15.3901 80.34 15.4601 80.12C15.5401 79.84 15.6201 79.55 15.8001 79.29C15.9001 79.13 16.3201 79.51 16.3301 79.85C16.2801 80.44 16.2501 81.01 16.0701 81.56C15.9301 81.89 15.9401 82.25 15.8901 82.6C15.8301 82.98 15.7801 83.37 15.7401 83.76C15.7201 84 15.6901 84.24 15.6901 84.48C15.6801 84.84 15.6601 85.21 15.7201 85.57C15.7701 85.85 15.9001 86.11 15.9701 86.38C15.9901 86.44 16.0201 86.49 16.0301 86.55C16.0701 86.77 15.9901 86.86 15.6501 86.97L15.4201 87.04C15.1601 87.11 14.9201 87.04 14.8001 86.88C14.6201 86.64 14.4901 86.38 14.3901 86.1C14.3301 85.82 14.3101 85.54 14.3101 85.25C14.3101 84.82 14.3501 84.4 14.3901 83.97H14.4201L14.4101 83.99Z" fill="#231F20"/>
<path d="M100.45 62.12C100.43 61.81 100.4 61.5 100.34 61.2C100.32 61.09 100.25 61 100.23 60.88C100.15 60.49 100.05 60.09 99.9301 59.69C99.8701 59.51 99.7801 59.36 99.6801 59.21C99.5301 59.04 99.4501 58.81 99.4001 58.55C99.3901 58.47 99.4901 58.39 99.6501 58.35C99.8101 58.3 100.06 58.26 100.21 58.32C100.5 58.43 100.64 58.65 100.81 58.85C100.97 59.06 101.1 59.29 101.17 59.55C101.24 59.87 101.45 60.12 101.57 60.42C101.7 60.75 101.8 61.08 101.88 61.42C101.93 61.63 101.98 61.84 102.02 62.05C102.09 62.37 102.12 62.69 102.22 63C102.28 63.24 102.43 63.47 102.53 63.71C102.55 63.76 102.59 63.81 102.6 63.87C102.59 64.08 102.46 64.16 102.07 64.23L101.81 64.28C101.52 64.32 101.25 64.26 101.09 64.15C100.85 63.98 100.77 63.79 100.67 63.61C100.57 63.43 100.53 63.24 100.51 63.04C100.47 62.75 100.45 62.45 100.4 62.15H100.44L100.45 62.12Z" fill="#231F20"/>
<path d="M104.68 65.61C104.93 65.85 105.19 66.0699 105.42 66.3399C105.51 66.4299 105.63 66.48 105.71 66.58C106.01 66.92 106.3 67.2799 106.61 67.5999C106.74 67.7499 106.9 67.87 107.06 67.98C107.16 68.06 107.28 68.0999 107.36 68.1999C107.43 68.3099 107.49 68.45 107.51 68.65C107.52 68.77 107.47 68.8299 107.31 68.9499C107.15 69.0599 106.82 69.3299 106.64 69.3499C106.07 69.2699 105.65 68.9999 105.34 68.5299C105.16 68.2499 104.84 68.1499 104.59 67.9599C104.31 67.7499 104.06 67.52 103.81 67.26C103.66 67.11 103.5 66.9599 103.34 66.8199C103.1 66.6099 102.86 66.3699 102.59 66.2099C102.37 66.0899 102.12 66.03 101.9 65.91C101.85 65.89 101.8 65.8699 101.75 65.8399C101.58 65.7299 101.61 65.5699 101.78 65.2399L101.89 65.0199C102.01 64.7999 102.24 64.6199 102.44 64.5999C102.72 64.5799 102.98 64.6 103.22 64.65C103.45 64.71 103.65 64.8399 103.85 64.9599C104.14 65.1399 104.41 65.3599 104.69 65.5599L104.66 65.5999L104.68 65.61Z" fill="#231F20"/>
<path d="M115.29 84.2399C115.21 84.7299 115.14 85.2199 114.99 85.6899C114.94 85.8599 114.93 86.0399 114.87 86.2099C114.65 86.7999 114.41 87.3699 114.11 87.9099C113.97 88.1499 113.85 88.3899 113.74 88.6299C113.59 88.9299 113.43 89.2399 113.18 89.4899C113.1 89.5699 113.01 89.4999 112.93 89.3599C112.85 89.2199 112.75 88.9999 112.78 88.8099C112.9 88.1499 112.87 87.4899 113.22 86.9299C113.41 86.5799 113.4 86.1699 113.47 85.7899C113.53 85.3699 113.62 84.9399 113.68 84.5099C113.71 84.2399 113.74 83.9799 113.75 83.7099C113.76 83.2999 113.77 82.8899 113.69 82.4899C113.63 82.1799 113.43 81.9099 113.33 81.6199C113.31 81.5599 113.27 81.4999 113.25 81.4299C113.19 81.1899 113.27 81.0799 113.63 80.9199L113.88 80.8099C114.16 80.6999 114.43 80.7299 114.6 80.8999C114.83 81.1599 115.07 81.4399 115.17 81.7599C115.27 82.0799 115.33 82.4099 115.36 82.7499C115.41 83.2499 115.38 83.7499 115.35 84.2499H115.31L115.29 84.2399Z" fill="#231F20"/>
<path d="M115.85 90.1C115.98 90.42 116.12 90.74 116.25 91.05C116.3 91.16 116.39 91.25 116.43 91.37C116.58 91.78 116.7 92.21 116.83 92.61C116.89 92.79 116.99 92.95 117.09 93.11C117.18 93.33 117.25 93.56 117.19 93.85C117.17 93.94 117.01 94 116.79 94.04C116.58 94.07 116.26 94.1 116.12 94.04C115.99 93.98 115.89 93.9 115.79 93.83C115.71 93.75 115.68 93.64 115.63 93.54C115.54 93.33 115.48 93.11 115.44 92.87C115.4 92.58 115.18 92.38 115.04 92.14C114.89 91.87 114.74 91.6 114.59 91.33C114.5 91.16 114.4 91 114.29 90.84C114.13 90.6 113.99 90.34 113.78 90.14C113.62 89.99 113.38 89.91 113.17 89.81C113.12 89.79 113.07 89.78 113.03 89.75C112.89 89.64 112.95 89.5 113.25 89.15L113.46 88.91C113.7 88.64 113.97 88.49 114.16 88.5C114.7 88.57 115.04 88.89 115.33 89.25C115.55 89.51 115.73 89.8 115.9 90.11L115.87 90.14L115.85 90.1Z" fill="#231F20"/>
<path d="M86.9398 54.11C86.4998 55.16 86.1398 56.24 85.5298 57.23C85.0498 58.27 84.6498 59.33 84.2098 60.38C83.8998 61.15 83.6498 61.94 83.3198 62.71C82.1598 65.4 80.9898 68.09 79.8298 70.78C79.3198 71.97 78.8398 73.19 78.3898 74.4C78.0898 75.17 77.7998 75.95 77.4798 76.72C77.1498 77.48 76.8098 78.24 76.0898 78.83C75.5398 79.16 75.7298 79.16 75.5698 78.62C75.4898 78.35 75.3198 77.94 75.2598 77.51C75.2298 77.29 75.1698 77.05 75.1798 76.82C75.2098 76.6 75.2598 76.37 75.3398 76.15C76.4398 72.98 77.7598 69.9 79.1898 66.81C80.0598 64.97 80.6698 62.94 81.3998 61C82.2098 58.86 83.0398 56.73 83.7498 54.56L85.2698 50.62C86.0198 48.62 86.8098 46.63 87.4698 44.62C87.9898 43.06 88.3398 41.47 88.7698 39.89C88.8698 39.54 88.9298 39.19 89.0398 38.85C89.2498 38.21 89.4298 37.8 89.6898 37.57C89.9698 37.34 90.3098 37.28 90.6998 37.27C90.8798 37.27 91.0498 37.24 91.1798 37.25C91.4198 37.27 91.5798 37.44 91.7698 37.77C91.9698 38.1 92.0398 38.54 91.9398 39.02C91.4198 41.92 90.4498 44.81 89.4198 47.7C88.6498 49.85 87.8198 51.99 87.0098 54.14L86.9398 54.12V54.11Z" fill="#231F20"/>
<path d="M75.6301 59.69C76.2701 58.76 76.8401 57.79 77.6201 56.94C78.2901 56.02 78.8801 55.06 79.5001 54.11C79.9501 53.41 80.3301 52.68 80.7801 51.98C82.3701 49.53 83.9701 47.07 85.5601 44.62C86.2601 43.52 86.9201 42.4 87.5701 41.28C87.9901 40.56 88.4101 39.85 88.8501 39.14C89.2901 38.44 89.7701 37.75 90.5801 37.29C91.1701 37.06 90.9901 37.03 91.0601 37.59C91.0901 37.87 91.1901 38.3001 91.1801 38.74C91.1801 38.96 91.1801 39.21 91.1401 39.43C91.0801 39.64 90.9901 39.85 90.8701 40.06C89.2601 42.99 87.4801 45.8301 85.5601 48.6501C84.4001 50.3201 83.4501 52.22 82.3901 54.01C81.2101 55.98 79.9901 57.92 78.8601 59.92L76.5401 63.47C75.3701 65.26 74.1101 67.0201 72.9401 68.8001C72.0201 70.18 71.2401 71.62 70.3401 73.02C70.1501 73.33 69.9801 73.6501 69.7501 73.9401C69.3401 74.4801 69.0401 74.82 68.7201 74.96C68.3801 75.09 68.0401 75.04 67.6701 74.92C67.5001 74.87 67.3301 74.84 67.2101 74.78C66.9901 74.68 66.9001 74.47 66.8301 74.09C66.7501 73.71 66.8101 73.28 67.0601 72.8601C68.4401 70.3101 70.1501 67.8601 71.8201 65.33C73.0801 63.46 74.3501 61.58 75.5801 59.66L75.6401 59.69H75.6301Z" fill="#231F20"/>
<path d="M75.5401 82.68C75.2601 81.45 74.6801 80.29 73.8401 79.36L73.1501 78.7C72.8701 78.49 72.6001 78.27 72.3201 78.06C71.7401 77.68 71.1501 77.32 70.5301 77.06C69.6301 76.66 68.6701 76.5 67.7401 76.43C66.0901 76.34 64.4001 76.8 62.9501 77.84C62.2301 78.34 61.5001 78.98 60.9601 79.65C60.3901 80.31 59.9501 81.09 59.6701 81.93C59.1301 83.42 59.1801 85.11 59.6701 86.6C59.9801 87.57 60.5301 88.43 61.1201 89.23C61.6801 90.09 62.4501 90.63 63.0601 91.72C63.4701 92.41 63.4901 92.26 62.7401 92.35C62.3601 92.4 61.7401 92.56 61.0401 92.49C60.6701 92.49 60.3701 92.33 60.0301 92.17C59.6901 92.01 59.3501 91.8 59.0701 91.51C56.9901 89.5 56.1001 86.52 56.2501 83.7C56.3301 82.28 56.7201 80.86 57.4101 79.6C58.0901 78.34 59.0801 77.25 60.0801 76.43C61.3101 75.42 62.7201 74.51 64.3201 73.96C65.9101 73.39 67.6801 73.24 69.3201 73.57C71.1201 73.91 72.7701 74.69 74.1801 75.69C74.8701 76.17 75.5901 76.75 76.2001 77.43C76.8101 78.1 77.3401 78.84 77.7401 79.64C78.7701 81.6 79.1201 83.83 78.9001 85.98C78.5901 89.25 76.7001 92.31 73.9301 94.08C71.7801 95.43 69.2101 96.12 66.6001 95.84C66.0301 95.77 65.4601 95.7 64.9001 95.52C62.8401 94.75 62.4901 93.9 62.6601 93.01C62.7001 92.8 62.7201 92.58 62.7901 92.41C62.9101 92.12 63.2101 91.99 63.6101 91.95C63.8101 91.93 64.0301 91.95 64.2901 91.95C64.5401 91.95 64.7901 92.03 65.0801 92.08C68.3201 92.9 71.9101 92.26 73.9401 89.71C75.4601 87.88 76.1001 85.15 75.4601 82.7L75.5401 82.67V82.68Z" fill="#231F20"/>
<path d="M17.3301 85.97C17.9101 86.32 18.5101 86.67 19.1101 87C19.3301 87.12 19.5801 87.16 19.8001 87.28C20.5801 87.7 21.3301 88.24 22.1001 88.69C22.4401 88.89 22.8101 89.03 23.1701 89.18C23.6301 89.38 24.1001 89.56 24.4701 89.95C24.5901 90.07 24.4501 90.34 24.2001 90.6C23.9501 90.85 23.5801 91.14 23.3001 91.12C22.2701 91.09 21.3401 90.84 20.4601 90.34C19.9301 90.05 19.3001 89.98 18.7201 89.78C18.0801 89.56 17.4501 89.3 16.8201 89.05C16.4301 88.9 16.0501 88.71 15.6501 88.55C15.0601 88.31 14.4801 88.01 13.8601 87.84C13.3801 87.7 12.8401 87.74 12.3101 87.68C12.1901 87.67 12.0701 87.68 11.9601 87.65C11.7601 87.59 11.6401 87.5 11.6201 87.31C11.6201 87.09 11.6801 86.82 11.8201 86.43C11.8801 86.25 11.9401 86.08 12.0101 85.91C12.1201 85.63 12.2701 85.39 12.4401 85.18C12.6101 84.98 12.8101 84.79 12.9701 84.78C13.9301 84.58 14.7201 84.82 15.5401 85.12C16.1501 85.34 16.7501 85.63 17.3701 85.89L17.3501 85.96L17.3301 85.97Z" fill="#231F20"/>
<path d="M112.62 90.9299C111.94 91.0599 111.26 91.1799 110.59 91.3199C110.35 91.3699 110.14 91.4999 109.9 91.5399C109.05 91.7199 108.16 91.7799 107.31 91.9599C106.93 92.0399 106.59 92.1899 106.24 92.3199C105.79 92.4899 105.36 92.6999 104.84 92.7099C104.68 92.7099 104.56 92.4299 104.53 92.0799C104.5 91.7299 104.54 91.2599 104.76 91.0599C105.52 90.3199 106.42 89.8599 107.41 89.6399C108 89.5099 108.53 89.1599 109.09 88.9299C109.71 88.6899 110.34 88.4899 110.97 88.2699C111.35 88.1299 111.75 88.0199 112.13 87.8799C112.71 87.6699 113.3 87.4899 113.81 87.1699C114.21 86.9199 114.5 86.51 114.82 86.16C114.89 86.08 114.94 85.9799 115.02 85.9199C115.16 85.7999 115.28 85.7699 115.44 85.8599C115.61 85.9799 115.8 86.1899 116.06 86.5199L116.4 86.9599C116.58 87.2099 116.7 87.4599 116.78 87.7199C116.85 87.9699 116.89 88.2499 116.79 88.3999C116.3 89.3599 115.46 89.8799 114.61 90.2799C113.98 90.5699 113.3 90.7899 112.66 91.0099L112.63 90.9399L112.62 90.9299Z" fill="#231F20"/>
<path d="M31.9999 62.75C32.4299 63.19 32.8599 63.64 33.2999 64.06C33.4599 64.21 33.6699 64.3 33.8299 64.46C34.4099 65.02 34.9099 65.68 35.4599 66.26C35.6999 66.52 35.9899 66.72 36.2599 66.94C36.6099 67.22 36.9699 67.49 37.1799 67.93C37.2499 68.07 37.0399 68.29 36.7499 68.48C36.4599 68.67 36.0399 68.86 35.7999 68.79C34.9099 68.55 34.1799 68.13 33.5499 67.5C33.1699 67.12 32.6499 66.93 32.1899 66.64C31.6999 66.31 31.2099 65.95 30.7199 65.59C30.4199 65.38 30.1299 65.13 29.8299 64.91C29.3699 64.58 28.9399 64.19 28.4299 63.93C28.0399 63.72 27.5499 63.67 27.0999 63.55C26.9999 63.52 26.8899 63.52 26.7999 63.48C26.6299 63.4 26.5499 63.3 26.5799 63.12C26.6199 62.91 26.7399 62.66 26.9499 62.3L27.2299 61.82C27.3999 61.56 27.5799 61.35 27.7799 61.18C27.9799 61.01 28.2099 60.86 28.3499 60.87C29.2799 60.82 29.9399 61.19 30.5999 61.62C31.0899 61.94 31.5399 62.33 32.0299 62.68L31.9899 62.75H31.9999Z" fill="#231F20"/>
<path d="M101.08 66.47C100.49 66.67 99.8999 66.86 99.3399 67.08C99.1299 67.16 98.9799 67.31 98.7699 67.39C98.0499 67.67 97.2699 67.86 96.5599 68.17C96.2399 68.3 95.9799 68.51 95.6999 68.69C95.3499 68.93 95.0199 69.2 94.5599 69.31C94.4099 69.34 94.2299 69.1 94.0999 68.78C93.9799 68.46 93.8799 68.01 94.0199 67.77C94.5099 66.92 95.2199 66.3 96.0799 65.93C96.5899 65.7 96.9899 65.29 97.4599 64.99C97.9799 64.67 98.5199 64.39 99.0499 64.1C99.3799 63.93 99.7099 63.76 100.04 63.59C100.53 63.32 101.04 63.08 101.46 62.73C101.79 62.45 101.99 62.03 102.24 61.66C102.29 61.58 102.33 61.48 102.39 61.41C102.51 61.29 102.61 61.24 102.78 61.33C102.96 61.43 103.17 61.63 103.45 61.93L103.83 62.34C104.03 62.57 104.18 62.81 104.29 63.05C104.39 63.29 104.47 63.56 104.41 63.7C104.12 64.64 103.46 65.19 102.76 65.65C102.24 65.99 101.68 66.26 101.14 66.55L101.1 66.49L101.08 66.47Z" fill="#231F20"/>
<path d="M64.5098 50.59C64.3998 51.19 64.2898 51.79 64.2098 52.39C64.1798 52.61 64.2398 52.82 64.2098 53.04C64.1098 53.81 63.8998 54.6 63.8098 55.38C63.7598 55.73 63.7998 56.07 63.8098 56.4C63.8298 56.83 63.8798 57.27 63.7098 57.72C63.6498 57.86 63.3498 57.88 63.0098 57.8C62.6698 57.72 62.2498 57.55 62.1298 57.32C61.6898 56.47 61.5298 55.59 61.6298 54.68C61.6898 54.13 61.5098 53.59 61.4798 53.04C61.4498 52.43 61.4598 51.82 61.4598 51.21C61.4598 50.84 61.4898 50.46 61.4898 50.08C61.4898 49.51 61.5498 48.94 61.4698 48.38C61.4098 47.95 61.1598 47.53 60.9898 47.1C60.9498 47.01 60.8898 46.92 60.8698 46.82C60.8398 46.64 60.8698 46.52 61.0198 46.44C61.2098 46.35 61.4798 46.29 61.8898 46.24L62.4398 46.17C62.7498 46.14 63.0298 46.16 63.2798 46.21C63.5398 46.26 63.7998 46.35 63.8798 46.48C64.4798 47.21 64.5798 47.99 64.6198 48.79C64.6498 49.38 64.5998 49.98 64.5898 50.57H64.5098V50.59Z" fill="#231F20"/>
<path d="M33.2502 58.2599C30.8402 60.1299 28.6402 62.26 26.5302 64.48C24.4802 66.76 22.5802 69.18 20.8602 71.73C20.2402 72.67 19.6802 73.6399 19.0902 74.5999L17.4802 77.5599C13.7702 84.5399 11.1702 92.2199 10.3902 100.12C10.3302 101.26 10.1902 102.4 10.2302 103.54L10.2502 105.25L10.3602 106.5C10.3402 106.59 10.3602 106.65 10.3602 106.73C10.3802 106.79 10.3402 106.9 10.4302 106.92C10.5702 106.97 10.7302 106.97 10.8802 106.99L11.4102 107.02L12.3302 107.06C14.5902 107.15 16.8902 107.11 19.1802 107.2C20.3302 107.25 21.4802 107.31 22.6202 107.4C23.2002 107.42 23.7702 107.54 24.3402 107.69C24.9102 107.83 25.4802 107.95 26.0602 108.11C26.7702 108.33 27.0702 108.52 27.0302 108.65C26.9902 108.79 26.6202 108.91 26.0102 109.16C25.3302 109.43 24.4602 109.78 23.4702 110.18C22.4302 110.51 21.2102 110.64 19.8902 110.66C17.9802 110.7 16.0602 110.56 14.1302 110.48C13.1602 110.43 12.2002 110.38 11.2002 110.28L9.99017 110.14L9.30017 110.03C9.09017 109.96 8.87017 109.92 8.68017 109.83C8.50017 109.74 8.29017 109.67 8.21017 109.47L8.05017 109.22L8.01017 109.16L7.99017 109.13V109.11H7.97017C8.00017 109.08 7.69017 109.36 7.82017 109.24L7.76017 109.1C7.60017 108.74 7.48017 108.36 7.28017 108.03L7.21017 106.1C7.21017 105.74 7.17017 105.37 7.19017 105.01L7.25017 102.84C7.27017 102.12 7.35017 101.4 7.40017 100.68C7.44017 99.9599 7.53017 99.2499 7.64017 98.5399C7.99017 95.6899 8.66017 92.8899 9.47017 90.1499C10.2802 87.3699 11.2902 84.6099 12.3602 81.8599C13.5102 79.1399 14.7402 76.4299 16.2302 73.8899C19.4702 68.2899 23.5002 63.1299 28.2902 58.7799C31.2302 56.0899 34.4502 53.7099 37.8802 51.6999C43.1202 48.7299 48.8702 46.5799 54.7702 45.5999C59.3402 44.7899 63.9202 44.4299 68.5202 44.7799C69.5402 44.7899 70.5202 44.9499 71.5402 45.0599C73.4302 45.2699 74.6402 45.5899 75.4702 45.9099C76.3002 46.2199 76.7302 46.5699 77.0402 47.0199C77.1802 47.2199 77.3702 47.4299 77.4402 47.6099C77.6602 48.1899 76.0502 48.4199 73.4302 48.0099C69.5002 47.5899 65.4802 47.37 61.4302 47.58C57.3902 47.84 53.3302 48.5399 49.4202 49.7599C47.9502 50.1599 46.5502 50.7599 45.1202 51.2899C44.4202 51.5799 43.7302 51.92 43.0402 52.24L42.0002 52.7199L40.9902 53.2699C38.2602 54.6599 35.7502 56.4399 33.3202 58.3099L33.2702 58.2599H33.2502Z" fill="#231F20"/>
<path d="M112.45 74.89C114.24 78.87 115.7 82.97 116.86 87.15C117.29 88.67 117.75 90.18 118.09 91.73C118.68 94.45 119.13 97.2 119.45 99.97C119.6 101.36 119.72 102.74 119.79 104.13C119.82 104.83 119.86 105.52 119.87 106.22V106.74C119.88 106.93 119.9 107.05 119.87 107.33L119.72 108.78L119.69 109.1L119.67 109.26V109.3V109.32C119.69 109.33 119.51 109.2 119.58 109.26C119.58 109.26 119.55 109.32 119.54 109.33C119.42 109.48 119.28 109.6 119.1 109.7C118.72 109.87 118.25 109.94 117.79 110L117.14 110.08L116.67 110.13L115.74 110.21C114.51 110.31 113.28 110.38 112.06 110.42C108.94 110.51 105.72 110.65 102.63 109.59C101.71 109.07 101.92 108.98 102.81 108.66C103.26 108.48 103.85 108.34 104.54 108.19C105.24 108.06 106.04 107.86 106.9 107.9C109.95 107.93 113.07 107.73 116.11 107.41C117.17 107.27 116.83 107.35 116.98 107.34C117.02 107.34 117.01 107.29 117.03 107.26L117.05 107.19V106.64C117.05 105.1 116.99 103.55 116.91 101.99C116.7 98.25 115.81 94.42 114.89 90.7C113.86 86.6 112.56 82.57 110.93 78.66C109.92 76.26 108.81 73.9 107.53 71.63C105.62 68.19 103.38 64.89 100.76 62.01C98.71 59.77 96.38 57.91 93.91 56.29C93.36 55.95 92.82 55.62 92.26 55.27C90.24 53.94 89.63 53.47 89.51 52.53C89.48 52.33 89.4 52.11 89.41 51.95C89.39 51.43 90.59 51.34 92.36 52.11C97.61 54.42 102.13 58.7 105.74 63.44C108.42 66.99 110.63 70.86 112.5 74.85L112.44 74.89H112.45Z" fill="#231F20"/>
<path d="M88.8798 28.34C89.0698 28.45 88.9498 28.72 88.6798 29.06C88.5898 29.17 88.2498 29.37 88.1698 29.35C88.0098 29.32 87.8598 29.28 87.7198 29.23C87.6398 29.2 86.7998 28.44 86.4698 28.21C86.1598 27.98 85.9098 27.71 85.6798 27.43C85.1998 26.87 84.6998 26.32 84.3098 25.71C84.2198 25.58 84.1498 25.43 84.1098 25.26C83.9698 24.7 83.6698 24.23 83.3098 23.8C83.2498 23.73 83.2098 23.64 83.0798 23.62C82.8198 23.61 82.0798 22.3 82.0498 22.08C81.9798 21.56 81.8398 21.07 81.7198 20.58C81.6998 20.51 81.6298 20.46 81.6998 20.35C81.8498 20.08 81.7498 19.97 81.6998 19.83C81.6298 19.63 81.5598 19.43 81.5498 19.19C81.5598 19.06 81.6498 18.89 81.6998 18.74C81.7498 18.6 82.0298 18.49 82.0798 18.49C82.2198 18.51 82.3098 18.37 82.4198 18.29C82.4598 18.26 82.5098 18.23 82.5398 18.21C82.6498 18.15 83.9698 18.74 84.0298 18.86C84.0298 18.87 84.3298 19.21 84.6398 19.57C84.9498 19.93 85.2798 20.29 85.3598 20.36C85.4398 20.43 85.4398 20.55 85.4698 20.66C85.4698 20.69 85.7198 20.96 85.9698 21.23C86.1998 21.52 86.4198 21.8 86.4298 21.83C86.5498 22.1 86.7798 22.3 86.7098 22.67C86.6998 22.74 86.7398 22.79 86.7698 22.84C87.0498 23.25 87.2198 23.73 87.4098 24.19C87.4998 24.43 87.6798 24.62 87.7798 24.86C87.7998 24.9 87.7798 24.96 87.7998 25.01C87.7998 25.07 87.7998 25.14 87.8298 25.19C88.1098 25.72 88.2698 26.33 88.6098 26.83C88.6798 26.95 88.7798 27.66 88.8798 27.79C88.9298 27.86 88.8098 28.28 88.8898 28.32L88.8798 28.34Z" fill="#231F20"/>
<path d="M95.8899 28.72C95.8899 28.9 95.6299 28.87 95.2399 28.72C95.1199 28.67 94.7999 28.45 94.7799 28.38C94.7299 28.25 94.6899 28.12 94.6699 28C94.6699 27.93 94.8799 27.11 94.9199 26.81C94.9699 26.52 95.0699 26.27 95.1799 26.03L95.9699 24.63C96.0299 24.53 96.1099 24.44 96.2099 24.37C96.5599 24.12 96.7899 23.78 96.9599 23.4C96.9899 23.34 97.0399 23.29 96.9999 23.18C96.9399 23.01 97.4899 22.04 97.6499 21.98C98.0099 21.8 98.2999 21.57 98.6299 21.36C98.6799 21.33 98.6799 21.26 98.7999 21.29C99.0799 21.35 99.0999 21.24 99.1799 21.16C99.2899 21.05 99.4099 20.95 99.5699 20.88C99.6499 20.84 99.8199 20.87 99.9599 20.88C100.09 20.88 100.39 21.15 100.41 21.19C100.47 21.32 100.66 21.38 100.8 21.47C100.85 21.5 100.91 21.54 100.94 21.57C101.02 21.63 101.08 22.74 101.02 22.82C101.02 22.82 100.87 23.12 100.72 23.44C100.57 23.75 100.42 24.08 100.4 24.16C100.38 24.24 100.28 24.26 100.2 24.3C100.17 24.32 99.7099 25.25 99.6699 25.27C99.5199 25.42 99.4599 25.64 99.1499 25.68C99.0899 25.68 99.0699 25.73 99.0499 25.76C98.8499 26.07 98.5599 26.31 98.2899 26.56C98.1499 26.69 98.0599 26.86 97.9499 27C97.9299 27.03 97.8799 27.03 97.8499 27.05C97.8099 27.07 97.7599 27.09 97.7399 27.13C97.4999 27.5 97.1099 27.77 96.8899 28.15C96.8299 28.23 96.3399 28.48 96.2899 28.59C96.2599 28.65 95.8799 28.65 95.8899 28.72Z" fill="#231F20"/>
<path d="M98.3601 34.15C98.2301 34.26 98.0501 34.1 97.8601 33.82C97.8001 33.73 97.7301 33.44 97.7601 33.38C97.8201 33.27 97.8801 33.15 97.9401 33.05C98.0601 32.95 98.6901 32.44 98.9401 32.23C99.1801 32.05 99.4301 31.94 99.6901 31.84C100.21 31.63 100.73 31.4 101.25 31.18C101.37 31.13 101.49 31.11 101.62 31.1C102.07 31.1 102.46 30.94 102.85 30.75C102.92 30.72 102.99 30.71 103.03 30.61C103.09 30.44 104.19 30.08 104.35 30.1C104.76 30.14 105.14 30.1 105.55 30.16C105.61 30.16 105.65 30.12 105.73 30.2C105.92 30.39 106.01 30.32 106.13 30.3C106.29 30.28 106.46 30.27 106.64 30.29C106.73 30.3 106.84 30.39 106.95 30.45C107.05 30.51 107.12 30.81 107.11 30.85C107.08 30.97 107.18 31.08 107.23 31.2C107.25 31.24 107.27 31.29 107.28 31.33C107.3 31.39 106.63 32.31 106.54 32.37C106.54 32.37 106.46 32.42 106.34 32.5C106.22 32.57 106.07 32.69 105.91 32.77C105.58 32.94 105.24 33.13 105.17 33.18C105.1 33.23 105 33.2 104.92 33.2C104.88 33.2 103.9 33.75 103.85 33.76C103.63 33.82 103.42 33.93 103.14 33.79C103.08 33.76 103.04 33.79 103 33.79C102.63 33.91 102.22 33.92 101.82 33.96C101.62 33.98 101.43 34.05 101.23 34.09C101.19 34.09 101.15 34.08 101.11 34.07C101.06 34.07 101.01 34.05 100.97 34.07C100.51 34.19 100.02 34.2 99.5801 34.37C99.4801 34.43 98.9001 34.26 98.7801 34.31C98.7101 34.32 98.4201 34.11 98.3701 34.16L98.3601 34.15Z" fill="#231F20"/>
</svg>
