<svg width="128" height="128" viewBox="0 0 128 128" fill="none" xmlns="http://www.w3.org/2000/svg">
<path d="M124.13 86.53C118.94 95.6 110.01 90.42 110.01 90.42C110.01 90.42 114.28 98.74 119.61 96.41C124.94 94.08 124.18 90.2 124.18 90.2L124.13 86.53Z" fill="#231F20"/>
<path d="M37.4099 91.88C34.2599 92.26 27.1099 94.41 29.2799 98.02C29.6299 98.6 20.1699 101.81 22.4699 107.75C23.5699 110.57 11.4399 109.33 15.1899 103.43C18.3899 98.4 24.2699 97.53 24.2699 97.53C24.2699 97.53 22.9599 94.55 26.5999 92.48C30.2399 90.42 37.4099 91.89 37.4099 91.89V91.88Z" fill="#231F20"/>
<path d="M14.6298 105.19C14.6298 105.19 1.86984 106.33 3.95984 108.43C6.52984 111.01 33.3198 109.81 33.3198 109.81C33.3198 109.81 17.4398 108.1 15.9998 106.93C14.5598 105.75 14.6298 105.2 14.6298 105.2V105.19Z" fill="#231F20"/>
<path d="M55.5798 48.14C44.6098 48.68 40.3398 41.34 40.3398 41.34L45.9398 36.74L50.8198 29.33C50.8198 29.33 55.3198 40.55 67.5498 36.18L55.5798 48.14Z" fill="#231F20"/>
<path d="M62.0298 43.14C61.2398 43.93 60.4498 44.76 59.7298 45.67C59.4698 46 59.2598 46.37 58.9998 46.71C58.0698 47.89 57.1598 49.12 56.2198 50.33C55.8198 50.88 55.4598 51.46 55.1198 52.04C54.8998 52.41 54.6498 52.76 54.3898 53.11C54.1598 53.48 53.7298 53.73 53.4098 54.04C53.1798 54.22 53.1998 54.19 53.1898 53.92C53.1898 53.78 53.1598 53.58 53.1198 53.34C53.0998 53.19 53.0798 53.06 53.0598 52.94C53.0498 52.87 53.0598 52.8 53.0298 52.72C53.0398 52.66 53.0598 52.6 53.0698 52.53C53.1898 52.09 53.2998 51.65 53.4498 51.23C53.6298 50.83 53.8198 50.43 54.0198 50.03C54.4198 49.24 54.8598 48.47 55.3998 47.74C56.0898 46.9 56.5498 45.88 57.1698 44.95C57.8598 43.94 58.5998 42.95 59.3998 42.01C59.8998 41.44 60.4198 40.88 60.9698 40.34C61.7698 39.51 62.6898 38.79 63.5298 38.01C64.1998 37.43 64.7798 36.75 65.4498 36.15C65.5898 36.01 65.7498 35.91 65.9198 35.81C66.5798 35.49 66.8798 35.54 67.3398 36.01C67.4398 36.1 67.5298 36.17 67.5998 36.25C67.7898 36.43 67.8798 37.14 67.5698 37.57C67.3398 37.89 67.1598 38.29 66.8998 38.55C66.6498 38.83 66.3698 39.08 66.0998 39.33C65.5598 39.84 64.9998 40.32 64.4598 40.83C63.6598 41.59 62.8398 42.33 62.1098 43.18L62.0598 43.14H62.0298Z" fill="#231F20"/>
<path d="M45.6999 35.02C46.4999 34.18 47.2899 33.3 47.9699 32.34C48.2299 32 48.4199 31.61 48.6599 31.26C49.5199 30.01 50.3199 28.7 50.9399 27.3C51.2399 26.69 51.4099 26.02 51.6099 25.38C51.6899 24.95 51.8199 24.54 51.9699 24.13C52.0499 23.93 52.0799 23.71 52.1999 23.52C52.3199 23.33 52.4399 23.13 52.5699 22.93C52.7399 22.68 52.8299 22.73 53.0099 23.01C53.0999 23.15 53.2299 23.34 53.3699 23.58C53.4299 23.7 53.5199 23.83 53.5699 23.96C53.5999 24.09 53.6199 24.22 53.6199 24.36C53.6099 24.6 53.5799 24.83 53.5599 25.07C53.5499 25.31 53.5099 25.55 53.4399 25.77C53.3099 26.23 53.1499 26.67 52.9999 27.12C52.6599 28 52.2599 28.86 51.7599 29.67C51.1799 30.64 50.7099 31.71 50.0999 32.69C49.4199 33.75 48.6599 34.77 47.8399 35.73L47.0799 36.61L46.2699 37.45C45.4599 38.3 44.5499 39.05 43.6899 39.83C42.9999 40.41 42.3899 41.09 41.6699 41.66C41.5099 41.78 41.3599 41.91 41.1799 42C40.8499 42.18 40.6099 42.27 40.4099 42.25C40.1899 42.21 40.0199 42.11 39.8399 41.93C39.7599 41.85 39.6699 41.78 39.5999 41.7C39.4899 41.57 39.4699 41.4 39.4999 41.19C39.5299 40.98 39.6099 40.72 39.7899 40.54C40.0499 40.25 40.3099 39.97 40.5599 39.66C40.8399 39.4 41.1399 39.17 41.4199 38.92C41.6999 38.67 41.9999 38.42 42.2999 38.18L43.1799 37.42C43.6199 37.05 44.0299 36.64 44.4699 36.25C44.8699 35.83 45.2999 35.43 45.6899 34.99L45.7299 35.02H45.6999Z" fill="#231F20"/>
<path d="M109.42 88.68C110.93 90.04 112.45 91.39 113.99 92.62C114.76 93.23 115.54 93.82 116.27 94.25C116.45 94.37 116.64 94.47 116.78 94.53L117.01 94.64C117.06 94.66 117.08 94.65 117.11 94.67H117.13V94.69V94.86L117.11 94.96V94.99C117.07 95.27 117.16 94.65 117.15 94.71H117.18H117.24L117.49 94.72C117.65 94.72 117.83 94.77 117.99 94.74C118.63 94.69 119.2 94.44 119.76 94.05C120.3 93.61 120.82 93.01 121.26 92.3C122.09 90.86 122.62 88.97 122.57 87.38L122.54 86.98C122.52 86.86 122.49 86.78 122.47 86.68C122.45 86.54 122.42 86.6 122.43 86.55C122.41 86.55 122.47 86.51 122.51 86.48L122.58 86.42L122.61 86.39L122.63 86.37V86.36C122.68 86.32 122.24 86.67 122.43 86.52L122.35 86.42L122.18 86.22C121.73 85.7 121.3 85.17 120.76 84.66C119.76 83.62 118.66 82.62 117.6 81.6C116.64 80.71 115.67 79.83 114.69 78.96L111.67 76.42C109.63 74.75 107.58 73.1 105.5 71.47C101.34 68.22 97.1299 65.04 92.8499 61.94C89.0499 59.2 85.1499 56.55 81.2699 53.99C78.7799 52.34 76.2399 50.76 73.7199 49.15C72.4599 48.35 71.2299 47.49 69.9899 46.65C68.7599 45.8 67.4999 45 66.2899 44.11C64.8399 42.91 65.0999 42.95 66.6899 43.36C68.2699 43.79 71.0899 44.76 74.1499 46.41C79.4099 49.57 84.5699 52.91 89.5999 56.43C94.6299 59.96 99.5699 63.64 104.42 67.48C110.22 72.08 116.33 76.71 122.05 81.83C122.82 82.56 123.6 83.29 124.33 84.14L124.61 84.45C124.7 84.55 124.79 84.64 124.92 84.86C125.04 85.05 125.15 85.25 125.25 85.45L125.41 85.97C125.53 86.33 125.55 86.64 125.6 86.96C125.65 87.29 125.65 87.58 125.65 87.88C125.63 90.27 125.02 92.5 123.76 94.56C123.12 95.57 122.29 96.56 121.13 97.21C120.02 97.88 118.64 98.25 117.37 98.13C117.03 98.09 116.77 98.14 116.36 98.01C116.17 97.96 115.97 97.91 115.8 97.85L115.36 97.65C115.06 97.52 114.8 97.37 114.56 97.22C114.31 97.07 114.06 96.92 113.84 96.77C112.91 96.15 112.09 95.49 111.25 94.82C107.24 91.51 103.57 87.96 99.8299 84.49C94.1899 79.2 88.5699 73.86 82.7899 68.85C78.2899 64.95 73.6799 61.38 68.9899 57.87C67.9499 57.11 66.9199 56.37 65.8699 55.61C63.9199 54.2 62.7299 53.15 61.9199 52.36C61.1099 51.58 60.7499 50.97 60.5599 50.33C60.4699 50.05 60.3099 49.73 60.2899 49.52C60.1799 48.86 62.2199 49.39 65.2799 51.28C74.2699 57.01 82.8299 64.29 91.1499 71.77C97.3399 77.32 103.34 83.13 109.46 88.62L109.41 88.69L109.42 88.68Z" fill="#231F20"/>
<path d="M23.1402 109.53C22.5102 109.47 21.8902 109.43 21.2602 109.36L20.3202 109.26L19.3602 109.23C18.7202 109.23 18.0602 109.16 17.3902 109.09C17.2202 109.04 17.0402 109.06 16.8702 109.02C16.6802 108.98 16.5702 109 16.2702 108.88C15.7502 108.67 15.2102 108.57 14.7202 108.26C14.5602 108.09 14.3502 107.97 14.2402 107.77C14.1102 107.58 13.9002 107.42 13.8602 107.18L13.7502 106.84L13.7002 106.49C13.6502 106.26 13.6802 106.01 13.7002 105.77C13.7002 105.3 13.9202 104.78 14.0502 104.36C14.1902 104.02 14.3302 103.72 14.4902 103.44C15.1102 102.3 15.8602 101.35 16.7002 100.44C17.5302 99.54 18.5102 98.76 19.6802 98.09C21.1102 97.39 22.2102 97.25 23.3702 97.03C25.9802 96.6 28.4902 96.36 31.0302 96.23C39.9402 95.87 48.7802 96.14 57.6202 96.55C61.5502 96.75 65.4702 96.87 69.4102 97.2C74.9202 97.48 79.9202 101.84 81.2002 106.8C81.6002 108.36 81.4002 108.22 80.2502 107.35C79.6802 106.92 78.8102 106.34 77.9202 105.65C77.0602 104.95 76.2302 104.11 75.3302 103.29C74.5402 102.55 73.6602 101.94 72.7002 101.47C72.2202 101.23 71.7302 101.02 71.2102 100.85L71.0202 100.78L70.9202 100.75L70.8702 100.73H70.8502L70.8402 100.72C70.7102 101.12 71.0102 100.16 70.9702 100.3L70.9402 100.4L70.8702 100.59C70.8502 100.65 70.8202 100.74 70.8302 100.71H70.8202H70.8002H70.7502C70.7502 100.71 70.7102 100.69 70.6302 100.68L69.8102 100.57C67.4302 100.3 64.8602 100.15 62.3502 99.99C57.2902 99.69 52.2102 99.45 47.1002 99.22C40.9902 98.94 34.6002 99.14 28.4302 99.58C26.9702 99.68 25.5302 99.84 24.1202 100.05C23.4202 100.16 22.7302 100.29 22.1202 100.47L21.6702 100.6L21.3102 100.75C21.0602 100.88 20.7802 101.04 20.5202 101.22C19.4702 101.96 18.4302 102.91 17.6002 103.97C17.3902 104.23 17.2002 104.51 17.0202 104.78C16.9402 104.92 16.8402 105.05 16.7802 105.19C16.7102 105.32 16.6302 105.48 16.6102 105.53C16.5602 105.67 16.5002 105.83 16.5102 105.99C16.5102 106.16 16.6402 106.28 16.7802 106.35C16.8702 106.4 16.9802 106.44 17.0802 106.48L17.2502 106.54L17.5702 106.64C17.9802 106.8 18.4402 106.9 18.8902 107.01C19.3902 107.13 19.9102 107.21 20.4202 107.31L21.9902 107.42C23.0402 107.48 24.0902 107.52 25.1502 107.54C27.2602 107.58 29.3802 107.59 31.5002 107.58C37.9302 107.53 44.4002 107.36 50.7902 107.23C55.7702 107.14 60.6502 106.95 65.6002 107.07C66.6902 107.1 67.7602 107.12 68.8702 107.19C70.9202 107.34 72.2702 107.55 73.2002 107.82C73.6602 107.96 74.0202 108.1 74.3102 108.26C74.5902 108.46 74.8002 108.66 74.9802 108.86C75.1402 109.05 75.3702 109.23 75.4502 109.37C75.7202 109.8 74.0302 110.04 71.1702 109.78C62.5602 109.28 53.3102 109.71 44.0302 109.78C40.5802 109.82 37.1202 109.85 33.6402 109.85C30.1702 109.85 26.6802 109.82 23.1702 109.57V109.52L23.1402 109.53Z" fill="#231F20"/>
<path d="M42.3999 89.7C45.3199 89.62 48.2299 89.6 51.1399 89.61C52.1999 89.61 53.2699 89.54 54.3299 89.56C56.2099 89.61 58.0899 89.69 59.9699 89.83C61.8599 89.99 63.7199 90.12 65.6999 90.56C65.9199 90.6 66.1499 90.67 66.3899 90.75C66.6099 90.81 66.8799 90.93 67.1599 91.07C67.5999 91.34 67.9199 91.55 68.2799 91.82C68.9999 92.33 69.6799 92.9 70.2999 93.51C71.0999 94.3 71.8599 95.14 72.4499 96.05C72.7399 96.51 72.9999 96.97 73.2399 97.43C73.4999 97.88 73.6199 98.41 73.8499 98.88C74.0999 99.49 73.9399 99.56 73.2499 99.39C72.9099 99.31 72.4299 99.16 71.8599 98.96C71.3399 98.73 70.8499 98.36 70.4299 97.93C70.2499 97.73 70.0599 97.56 69.8899 97.36L69.4199 96.78C69.1099 96.4 68.7899 96.06 68.4599 95.72C67.7999 95.05 67.0699 94.46 66.2899 93.92L65.9899 93.72L65.8399 93.62L65.7699 93.57C65.7099 93.66 66.2699 92.75 66.0299 93.14L66.0099 93.17L65.9699 93.22L65.8999 93.33L65.7599 93.55C65.6999 93.59 65.7399 93.55 65.6699 93.53L65.4199 93.45C65.0499 93.33 64.5699 93.22 64.0799 93.12C63.0999 92.93 62.0499 92.78 60.9999 92.63C58.4699 92.28 55.7899 92.4 53.1499 92.39C50.2499 92.38 47.3499 92.39 44.4399 92.47C42.6499 92.52 40.8599 92.58 39.0799 92.68C36.3799 92.84 33.6599 92.99 31.0299 93.39C30.0399 93.55 28.9399 93.77 28.1999 94.09C27.4899 94.44 26.7199 95.08 26.0299 95.73C25.7199 96.02 25.4499 96.33 25.1499 96.64C24.5899 97.2 24.2499 97.58 23.8999 97.76C23.5299 97.92 23.1899 97.93 22.8199 97.9C22.6599 97.89 22.4899 97.9 22.3599 97.89C22.1499 97.85 22.0699 97.65 22.0299 97.22C21.9899 96.79 22.1199 96.2 22.5099 95.64C23.0699 94.79 23.7199 94 24.4799 93.26C24.8599 92.89 25.2699 92.53 25.7299 92.2C26.2199 91.87 26.6499 91.56 27.4099 91.3C28.0399 91.09 28.5399 90.98 29.0599 90.86C29.5699 90.76 30.0699 90.66 30.5699 90.59C31.5699 90.43 32.5599 90.31 33.5499 90.2C36.4899 89.89 39.4399 89.74 42.3799 89.59V89.66L42.3999 89.7Z" fill="#231F20"/>
<path d="M36.21 47.72C37.96 49.65 40.06 51.44 42.2 53.13C42.99 53.74 43.83 54.28 44.64 54.87C46.05 55.9 47.51 56.99 48.92 57.84C49.49 58.17 50 58.27 50.58 58.06C51.16 57.87 51.71 57.37 52.12 56.75C52.48 56.22 52.74 55.5 52.83 54.92C52.9 54.64 52.58 54.06 52.09 53.57C50.83 52.27 48.97 51.33 47.69 49.59C47.31 49.02 47.41 49.06 48.03 49.12C48.66 49.17 49.85 49.1 50.94 49.62C51.85 50.17 52.82 50.69 53.71 51.53C54.16 51.96 54.61 52.44 55.01 53.14C55.11 53.34 55.19 53.54 55.28 53.74C55.36 53.96 55.41 54.22 55.45 54.47C55.49 54.72 55.47 55.02 55.45 55.29C55.44 55.45 55.42 55.51 55.4 55.59L55.35 55.83C55.06 57.1 54.38 58.3 53.37 59.26C52.86 59.73 52.24 60.14 51.52 60.4C50.81 60.66 49.99 60.73 49.24 60.58C48.79 60.49 48.36 60.32 47.99 60.14C47.64 59.95 47.37 59.79 47.08 59.61C46.53 59.27 45.97 58.92 45.41 58.57C44.31 57.88 43.22 57.16 42.18 56.39C39.89 54.7 37.68 52.92 35.6 50.92C34.34 49.66 33.08 48.42 32.16 46.64C31.99 46.3 31.84 45.91 31.78 45.46C31.73 45.03 31.73 44.62 31.81 44.21C31.96 43.4 32.33 42.69 32.79 42.09C33.73 40.91 34.95 40.1 36.37 39.66C36.92 39.51 37.54 39.37 38.23 39.52C38.77 39.63 39.3 39.8 39.81 39.99C40.82 40.39 41.77 40.92 42.63 41.57C43.01 41.86 43.38 42.14 43.73 42.48C44.37 43.11 44.69 43.62 44.84 44.02C44.91 44.22 44.93 44.4 44.92 44.57C44.87 44.76 44.79 44.94 44.7 45.09C44.62 45.23 44.57 45.39 44.51 45.48C44.35 45.73 43.38 45.57 42.69 44.77C41.52 43.66 40.15 42.7 38.71 42.14C38.35 42 37.99 41.9 37.64 41.81C37.61 41.81 37.33 41.81 37.05 41.91C36.48 42.11 35.84 42.53 35.36 43C35 43.36 34.72 43.76 34.58 44.12C34.42 44.47 34.43 44.84 34.45 45.05C34.47 45.24 34.73 45.77 35.07 46.23C35.41 46.71 35.82 47.19 36.26 47.67L36.21 47.72Z" fill="#231F20"/>
<path d="M63.6602 19C66.0502 20.68 68.2902 22.5 70.4202 24.49C71.1902 25.22 72.0102 25.9 72.7302 26.71C73.3702 27.42 73.9802 28.16 74.5402 28.99C75.0802 29.83 75.6602 30.69 75.9702 31.91C76.0302 32.24 76.0902 32.56 76.0602 32.95C76.0602 33.16 76.0302 33.28 76.0102 33.41L75.9402 33.8C75.8402 34.31 75.6802 34.81 75.4702 35.29C75.0702 36.25 74.5002 37.16 73.7202 37.93C73.0402 38.61 72.1002 39.16 71.0902 39.33C70.5802 39.42 70.0702 39.4 69.5802 39.33C69.0302 39.23 68.5502 39.02 68.1502 38.78C67.1102 38.15 66.3402 37.37 65.6402 36.58C64.9302 35.79 64.3202 34.96 63.8602 34.07C63.6102 33.51 63.7802 33.35 64.5202 33.41C64.8902 33.44 65.3602 33.57 65.8702 33.75C66.3602 33.95 66.8102 34.28 67.2202 34.68C67.9202 35.39 68.6302 36.07 69.2802 36.46C69.6002 36.66 69.8702 36.75 70.0202 36.76C70.3202 36.78 70.5602 36.74 70.8002 36.66C71.2502 36.48 71.7502 36.05 72.1502 35.39C72.5802 34.75 72.8102 33.92 73.1002 33.12C73.1802 32.78 73.2102 32.88 73.2102 32.68C73.2102 32.53 73.1602 32.32 73.0802 32.09C72.9202 31.64 72.6302 31.14 72.2802 30.68C71.5702 29.74 70.7102 28.85 69.8302 27.97C67.8902 26.04 65.7502 24.24 63.5102 22.59C62.1302 21.58 60.7102 20.61 59.2302 19.8C58.6902 19.51 58.0802 19.19 57.5902 19.01C57.1802 18.86 56.7302 18.86 56.2502 19.01C55.2902 19.32 54.3202 20.13 53.6502 21.06C53.5102 21.24 53.4002 21.43 53.2902 21.61C53.2402 21.7 53.1902 21.8 53.1502 21.89C53.1102 21.98 53.0602 22.09 53.0902 22.09C53.0602 22.18 53.1502 22.6 53.3802 22.97C53.7902 23.74 54.5302 24.4 55.2202 25.05C55.5302 25.34 55.8702 25.59 56.1902 25.87C56.8002 26.38 57.1702 26.73 57.3502 27.08C57.5602 27.39 57.5702 27.69 57.5502 28.04C57.5402 28.19 57.5802 28.34 57.5802 28.46C57.6102 28.67 57.3802 28.78 56.9402 28.78C56.5002 28.8 56.0202 28.59 55.4502 28.27C54.6602 27.72 53.9202 27.11 53.2202 26.41C52.8702 26.06 52.5302 25.69 52.2002 25.29C52.0402 25.08 51.8702 24.88 51.7202 24.65C51.5502 24.44 51.3602 24.22 51.1902 23.95C51.0102 23.72 50.8602 23.37 50.7102 23.04C50.5902 22.61 50.4402 22.19 50.5602 21.49L50.6002 21.26L50.6402 21.12L50.7102 20.87C50.7602 20.69 50.8202 20.55 50.8802 20.4C51.0002 20.09 51.1302 19.82 51.2702 19.54C51.8602 18.47 52.6702 17.57 53.7502 16.83C54.5702 16.31 55.6002 15.87 56.8202 15.83C57.4202 15.8 58.0502 15.92 58.6302 16.12C59.1202 16.3 59.4302 16.46 59.8002 16.63C61.2102 17.34 62.4602 18.13 63.6902 18.95L63.6502 19.02L63.6602 19Z" fill="#231F20"/>
<path d="M30.5099 34.13C30.7299 34.31 30.4799 34.58 29.9199 34.88C29.7399 34.97 29.1599 35.09 29.0699 35.05C28.8799 34.97 28.6999 34.9 28.5699 34.81C28.4999 34.75 27.9299 33.76 27.6799 33.45C27.4599 33.15 27.2899 32.82 27.1599 32.49C26.8499 31.82 26.4999 31.17 26.1199 30.54C26.0399 30.4 25.9799 30.24 25.9299 30.08C25.7899 29.5 25.4699 29.02 25.0799 28.6C25.0199 28.53 24.9699 28.44 24.8399 28.43C24.6499 28.38 23.6499 27.26 23.5499 27.07C23.3299 26.6 23.0399 26.19 22.7499 25.76C22.7099 25.7 22.6299 25.68 22.6399 25.56C22.6799 25.28 22.5299 25.21 22.4099 25.1C22.2599 24.94 22.0999 24.79 21.9699 24.6C21.8999 24.51 21.8899 24.33 21.8599 24.17C21.8299 24.03 22.0799 23.75 22.1299 23.73C22.2799 23.69 22.2999 23.5 22.3799 23.36C22.4099 23.31 22.4399 23.26 22.4599 23.22C22.5099 23.13 24.0499 23.42 24.1699 23.55C24.1699 23.55 24.2999 23.63 24.4699 23.75C24.6399 23.87 24.8699 24.03 25.0999 24.19C25.5399 24.53 25.9999 24.89 26.1099 24.97C26.2099 25.04 26.2599 25.18 26.3199 25.29C26.3699 25.32 27.6099 26.48 27.6399 26.55C27.8399 26.84 28.1199 27.07 28.1399 27.48C28.1399 27.56 28.1899 27.61 28.2399 27.66C28.6099 28.13 28.8599 28.68 29.0999 29.22C29.2299 29.49 29.3999 29.75 29.5399 30.02C29.5699 30.07 29.5599 30.13 29.5699 30.19C29.5799 30.26 29.5899 30.33 29.6199 30.39C29.9599 31.02 30.1399 31.72 30.4799 32.36C30.5699 32.51 30.5599 33.34 30.6499 33.51C30.7099 33.61 30.4199 34.05 30.4999 34.12L30.5099 34.13Z" fill="#231F20"/>
<path d="M21.17 44.02C21.42 44.09 21.46 44.37 21.39 44.75C21.37 44.87 21.16 45.13 21.08 45.13C20.92 45.13 20.76 45.13 20.61 45.11C20.52 45.09 19.35 44.57 18.93 44.46C18.53 44.34 18.16 44.17 17.79 44.01C17.04 43.68 16.28 43.41 15.51 43.2C15.34 43.15 15.18 43.07 15.03 42.99C14.5 42.69 13.9 42.54 13.29 42.5C13.19 42.5 13.09 42.46 12.97 42.54C12.78 42.65 11.16 42.56 10.96 42.5C10.46 42.28 9.94004 42.15 9.42004 41.98C9.34004 41.96 9.26003 42.01 9.20003 41.85C9.05003 41.5 8.88004 41.53 8.71004 41.48C8.48004 41.41 8.24004 41.35 8.00004 41.22C7.88004 41.11 7.76004 40.91 7.64004 40.77C7.53004 40.64 7.58004 40.33 7.62004 40.28C7.73004 40.16 7.64004 39.99 7.62004 39.85C7.62004 39.8 7.62004 39.74 7.62004 39.7C7.62004 39.68 7.71004 39.59 7.85004 39.45C7.99004 39.28 8.18004 39.17 8.38004 39.05C8.77004 38.8 9.20003 38.56 9.28003 38.55C9.32003 38.45 11.54 38.62 11.8 38.64C11.93 38.64 12.06 38.74 12.18 38.82C12.24 38.82 14.02 39.12 14.08 39.18C14.43 39.33 14.81 39.38 15.08 39.73C15.13 39.8 15.21 39.81 15.28 39.84C15.88 40.06 16.43 40.4 16.97 40.73C17.24 40.9 17.53 41.03 17.81 41.19C17.86 41.22 17.9 41.27 17.94 41.31C17.99 41.36 18.05 41.42 18.11 41.46C18.77 41.83 19.34 42.32 19.97 42.7C20.12 42.78 20.66 43.43 20.83 43.53C20.93 43.59 21.06 44.01 21.15 44.04L21.17 44.02Z" fill="#231F20"/>
<path d="M26.3002 54.08C26.5002 53.89 26.7002 54.23 26.8102 54.91C26.8502 55.12 26.8102 55.78 26.7602 55.87C26.6702 56.05 26.5902 56.23 26.5102 56.35C26.4502 56.41 25.7502 56.78 25.5402 57.01C25.3302 57.18 25.1002 57.29 24.8502 57.37C24.3502 57.57 23.8602 57.82 23.3502 58.12C23.2402 58.18 23.1102 58.21 22.9702 58.23C22.4802 58.28 22.0702 58.51 21.7102 58.82C21.6502 58.87 21.5702 58.9 21.5702 59.03C21.5702 59.25 20.4802 59.93 20.2902 59.97C19.8302 60.05 19.4002 60.2 18.9202 60.28C18.8502 60.29 18.8202 60.36 18.7002 60.3C18.4302 60.16 18.3402 60.27 18.2102 60.32C18.0302 60.4 17.8502 60.47 17.6402 60.5C17.5402 60.52 17.3802 60.46 17.2402 60.42C17.1202 60.39 16.9602 60.08 16.9602 60.03C16.9602 59.89 16.8202 59.8 16.7302 59.69C16.7002 59.65 16.6602 59.6 16.6402 59.57C16.6102 59.51 17.0302 58.31 17.1102 58.21C17.1102 58.2 17.3802 57.88 17.6502 57.54C17.9402 57.23 18.2602 56.89 18.3102 56.82C18.3702 56.74 18.4802 56.73 18.5802 56.71C18.6202 56.69 19.5402 55.71 19.6002 55.7C19.8502 55.57 20.0302 55.33 20.4002 55.4C20.4702 55.41 20.5102 55.37 20.5602 55.34C20.9502 55.05 21.4202 54.89 21.8902 54.72C22.1302 54.63 22.3502 54.49 22.5802 54.38C22.6202 54.36 22.6802 54.38 22.7302 54.38C22.7902 54.38 22.8602 54.38 22.9102 54.36C23.4702 54.09 24.0902 54.01 24.6902 53.74C24.8302 53.66 25.5902 53.83 25.7602 53.78C25.8602 53.74 26.2102 54.15 26.2802 54.08H26.3002Z" fill="#231F20"/>
</svg>
