<svg width="128" height="128" viewBox="0 0 128 128" fill="none" xmlns="http://www.w3.org/2000/svg">
<path d="M85.01 59.49C85.01 59.49 95.29 59.44 96.25 58.69C96.94 58.15 97.47 57.44 97.47 57.44H84.79L85 59.49H85.01Z" fill="#231F20"/>
<path d="M81.4601 78.33L82.0901 72.9C82.1601 72.24 82.1801 71.57 82.2601 70.91C82.6201 68.59 82.9701 66.26 83.3301 63.95C83.4801 62.92 83.5801 61.88 83.6701 60.85C83.7201 60.19 83.8001 59.53 83.8901 58.87C83.9501 58.54 83.9801 58.21 84.0901 57.89C84.2101 57.57 84.3301 57.26 84.4601 56.93C84.6301 56.53 84.7301 56.6 84.9501 56.98C85.0901 57.24 85.2401 57.51 85.3701 57.75C85.4501 57.91 85.5601 58.08 85.6101 58.26C85.6501 58.44 85.6701 58.62 85.6701 58.82C85.7201 60.18 85.5701 61.52 85.4201 62.87C85.2701 64.21 85.0801 65.56 84.8401 66.9C84.5401 68.51 84.5301 70.21 84.3301 71.87L83.6501 77.33L83.2501 80.7C83.0601 82.4 82.8401 84.11 82.7101 85.8C82.6101 87.12 82.6201 88.42 82.5601 89.72C82.5501 90.01 82.5601 90.29 82.5301 90.58C82.4501 91.65 82.2901 91.98 81.7801 92.16C81.6601 92.2 81.5501 92.26 81.4301 92.28C81.0501 92.35 80.7801 91.88 80.7301 91.09C80.5901 88.74 80.7301 86.29 80.9201 83.83C81.0601 82 81.2401 80.17 81.4101 78.34H81.4601V78.33Z" fill="#231F20"/>
<path d="M99.2199 52.36C84.8199 55.32 80.9599 53.37 80.9599 53.37C80.9599 53.37 80.7799 51.77 81.9699 51.62C83.1599 51.47 92.3999 52.6 95.7299 52.11C99.0599 51.63 99.2099 52.36 99.2099 52.36H99.2199Z" fill="#231F20"/>
<path d="M83.4001 52.59C83.4001 52.59 82.8401 56.15 85.3801 56.49C87.0901 56.72 82.1201 58.36 81.4601 55.11C80.7901 51.86 81.3501 52.39 83.4001 52.59Z" fill="#231F20"/>
<path d="M90.6602 58.29L87.1702 58.31C86.7502 58.31 86.3202 58.38 85.9002 58.38L84.4502 58.36L83.7002 58.33L83.2802 58.3C83.0902 58.26 82.9002 58.23 82.7202 58.18C82.5002 58.06 82.3202 57.98 82.1902 57.87C82.0502 57.76 81.9002 57.66 81.7802 57.53C81.5402 57.28 81.3402 57.01 81.1802 56.73C80.7902 56.04 80.5502 55.33 80.4302 54.61C80.3502 54.15 80.3102 53.68 80.3502 53.2C80.4202 52.73 80.6302 52.26 81.0002 51.91C81.2302 51.69 81.2502 51.77 81.3502 52.05C81.4002 52.19 81.5102 52.38 81.6602 52.58C81.7902 52.78 81.8902 52.97 81.9702 53.18C82.0302 53.85 82.1802 54.54 82.4502 55.1C82.5802 55.39 82.7302 55.64 82.9002 55.84C82.9802 55.95 83.0702 56.02 83.1402 56.13C83.2002 56.21 83.3602 56.33 83.3202 56.34C83.3202 56.36 83.3402 56.37 83.3502 56.37C83.3402 56.42 83.6702 56.44 83.8902 56.45C84.1502 56.45 84.4002 56.45 84.6702 56.43C85.2002 56.4 85.7302 56.35 86.2602 56.34L89.7702 56.25L91.9402 56.2C93.0302 56.16 94.1302 56.15 95.2202 56.07C96.0702 56 96.9002 55.77 97.7602 55.71C97.9502 55.69 98.1402 55.66 98.3402 55.66C99.0502 55.77 99.3202 56.04 99.3702 56.56C99.3902 56.68 99.4102 56.8 99.4102 56.91C99.4102 57.27 99.0802 57.6 98.6302 57.79C97.2302 58.37 95.7102 58.23 94.1502 58.27C93.0002 58.28 91.8302 58.28 90.6602 58.33V58.28V58.29Z" fill="#231F20"/>
<path d="M101.67 52.94C101.59 53.22 101.5 53.49 101.41 53.75C101.38 53.84 101.4 53.94 101.35 54.04C101.17 54.36 100.91 54.65 100.72 54.92C100.61 55.04 100.54 55.16 100.47 55.28C100.38 55.43 100.29 55.59 100.09 55.68C100.03 55.71 99.9102 55.64 99.7802 55.54C99.6502 55.43 99.4802 55.27 99.4402 55.17C99.3402 54.8 99.1502 54.49 99.3902 54.27C99.5202 54.12 99.3902 53.93 99.4502 53.77C99.5002 53.59 99.5502 53.4 99.5902 53.21C99.6102 53.09 99.6402 52.97 99.6402 52.85C99.6402 52.67 99.7002 52.47 99.6402 52.3C99.6102 52.16 99.3902 52.08 99.3402 51.96C99.3302 51.93 99.3002 51.91 99.2902 51.88C99.2502 51.78 99.4802 51.65 99.8102 51.49L100.04 51.37C100.28 51.25 100.56 51.2 100.81 51.22C101.42 51.35 101.6 51.72 101.7 52.09C101.8 52.36 101.76 52.66 101.72 52.95H101.67V52.94Z" fill="#231F20"/>
<path d="M43.6001 116.92C44.1601 117.01 45.0001 119.55 53.5201 119.46C62.0401 119.37 52.4401 119.74 52.0701 118.19C51.7001 116.64 51.3301 115.45 51.3301 115.45L43.1201 115.94L43.5901 116.92H43.6001Z" fill="#231F20"/>
<path d="M77.2 108.09C77.44 108.95 77.64 109.81 77.83 110.67C77.9 110.98 78.01 111.28 78.06 111.6C78.24 112.72 78.38 113.83 78.46 114.95C78.51 115.45 78.57 115.94 78.62 116.44C78.64 116.76 78.7 117.08 78.69 117.41C78.69 117.57 78.69 117.74 78.66 117.9C78.64 118.07 78.52 118.23 78.45 118.39C78.34 118.58 78.16 118.52 77.9 118.32C77.74 118.19 77.58 118.07 77.45 117.97C77.32 117.84 77.23 117.69 77.21 117.53C77.05 116.39 76.86 115.2 76.8 113.95C76.76 113.2 76.48 112.47 76.27 111.74C76.06 110.93 75.82 110.13 75.56 109.34C75.41 108.85 75.21 108.37 75.03 107.89L74.56 106.83C74.38 106.49 74.2 106.14 74 105.82C73.67 105.33 73.23 104.92 72.81 104.54C72.72 104.45 72.62 104.38 72.54 104.29C72.24 103.95 72.29 103.71 72.61 103.25L72.76 103C72.84 102.88 72.95 102.82 73.17 102.74C73.4 102.65 73.6 102.68 73.79 102.77C74.42 103.02 74.82 103.5 75.25 103.96C75.64 104.45 75.99 104.97 76.26 105.52C76.67 106.34 76.96 107.21 77.25 108.06L77.2 108.08V108.09Z" fill="#231F20"/>
<path d="M59.0601 78.76V80.76C59.0601 80.76 65.4601 80.56 67.8101 79.76C68.6201 79.48 69.0101 78.76 69.0101 78.76H59.0601Z" fill="#231F20"/>
<path d="M55.1299 93.4C55.3999 92.04 55.6699 90.68 55.9099 89.31C55.9999 88.81 56.0199 88.3 56.1099 87.8C56.4499 86.04 56.7899 84.27 57.1299 82.52C57.2799 81.74 57.3799 80.94 57.4599 80.16C57.5199 79.66 57.5299 79.14 57.6199 78.64C57.7599 78.14 57.8299 77.64 58.1399 77.17C58.3299 76.88 58.5499 76.95 58.8799 77.27C59.2499 77.59 59.6899 78.15 59.7299 78.74C59.7999 79.27 59.6699 79.77 59.6299 80.28C59.5699 80.79 59.5099 81.3 59.4299 81.81C59.2699 82.83 59.0999 83.85 58.7999 84.87C58.4599 86.08 58.3999 87.39 58.1899 88.65C57.9599 90.04 57.6999 91.42 57.4499 92.81L56.9699 95.37C56.7399 96.66 56.4499 97.95 56.2299 99.24C56.0499 100.24 55.9899 101.24 55.8499 102.24C55.8199 102.46 55.8099 102.68 55.7599 102.9C55.4899 103.69 55.2999 103.92 54.7999 103.98C54.6999 104 54.5999 104.03 54.5199 104.03C54.2999 104.06 53.9399 103.63 53.9099 103.01C53.8099 101.18 54.1299 99.37 54.3599 97.51C54.5999 96.14 54.8399 94.77 55.0799 93.39H55.1299V93.4Z" fill="#231F20"/>
<path d="M59.4201 78.18C59.2801 78.25 58.5101 75.6 59.5001 74.8C60.4901 74 57.0501 74.11 56.4001 75.41C55.7501 76.71 56.7101 78.26 56.7101 78.26L59.4301 78.18H59.4201Z" fill="#231F20"/>
<path d="M65.5998 79.21L62.1298 79.12C61.7098 79.12 61.2898 79.15 60.8698 79.13L58.6298 79.03L57.4998 78.96C57.3498 78.96 57.0098 78.89 56.7598 78.84C56.6098 78.84 56.5198 78.73 56.3698 78.73C56.2698 78.65 56.1898 78.54 56.1098 78.42C55.9898 78.21 55.8798 77.97 55.8098 77.74C55.7498 77.56 55.7098 77.37 55.6698 77.18C55.5998 76.8 55.5798 76.41 55.6298 76.01C55.6998 75.51 55.8598 74.98 56.2198 74.6C56.5898 74.24 57.0198 73.98 57.4698 73.86C57.7498 73.78 57.7898 73.97 57.7298 74.29C57.6198 74.77 57.5298 75.18 57.4698 75.43C57.4298 75.5 57.4398 75.58 57.4098 75.64C57.3698 75.69 57.3498 75.75 57.3198 75.81C57.2598 75.92 57.2298 76.04 57.2098 76.17C57.1698 76.42 57.1798 76.7 57.2398 76.99C57.2498 77.06 57.2798 77.13 57.2998 77.2C57.2998 77.24 57.2998 77.23 57.2998 77.24C57.2998 77.26 57.2898 77.3 57.2998 77.32C57.2998 77.33 57.3198 77.34 57.3298 77.35C57.3398 77.35 57.3298 77.36 57.3698 77.37L57.5298 77.39L58.1598 77.46C59.1798 77.58 60.2498 77.48 61.3098 77.48L64.7898 77.5H66.9398C67.9498 77.5 68.9498 77.5 69.9498 77.5C70.1198 77.39 70.2798 77.07 70.3098 76.77C70.3298 76.46 70.3398 76.16 70.3098 75.85L70.2198 75.44C70.1998 74.91 70.2498 74.69 70.6498 74.38C70.7298 74.31 70.8098 74.23 70.8898 74.18C71.1198 74.01 71.6098 74.1 71.9398 74.64C72.2198 75.03 72.3598 75.51 72.4198 76.02C72.4498 76.28 72.4498 76.55 72.4198 76.82C72.3798 77.1 72.2698 77.36 72.1498 77.62C71.8798 78.14 71.5198 78.64 70.7698 79.03C70.6898 79.08 70.5698 79.13 70.4498 79.17C70.3298 79.21 70.2198 79.24 70.0498 79.25C69.8998 79.26 69.7598 79.27 69.5698 79.23C69.4798 79.21 69.3998 79.19 69.3098 79.16L69.2498 79.14H69.2298C68.8098 80.14 69.7898 77.78 69.6798 78.04L69.6398 78.14L69.4798 78.55L69.3298 78.96L69.2698 79.16L69.2998 79.18C69.3398 79.2 69.3898 79.21 69.4298 79.22C69.4698 79.22 69.5498 79.22 69.4898 79.22H69.3498H69.0698C67.9098 79.22 66.7498 79.22 65.5898 79.22V79.18L65.5998 79.21Z" fill="#231F20"/>
<path d="M65.4502 75.2C64.1502 75.18 62.8602 75.12 61.5802 75.06C61.1102 75.04 60.6402 75.06 60.1802 75.03C59.3602 74.96 58.5302 74.88 57.7102 74.78L56.3402 74.59C56.0402 74.54 55.7202 74.48 55.5102 74.31C55.4602 74.27 55.4102 74.23 55.3602 74.18L55.3402 74.16C55.2302 74.27 55.3102 74.19 55.2902 74.21V74.19L55.2702 74.14L55.2302 74.04L55.0902 73.63C55.0002 73.39 55.0102 73.09 54.9602 72.83C54.9502 72.58 54.9502 72.4 54.9502 72.19C54.9802 71.77 55.0102 71.35 55.1502 70.94C55.3102 70.42 55.5402 69.88 55.9402 69.47C56.1502 69.28 56.3702 69.07 56.6702 68.99C56.9702 68.92 57.2802 68.9 57.5702 68.91C57.9602 68.98 57.8402 69.13 57.6802 69.41C57.6002 69.57 57.5202 69.77 57.5002 70.04C57.4902 70.17 57.5002 70.32 57.5002 70.44C57.4802 70.53 57.4602 70.62 57.4202 70.69C57.1102 71.16 56.8402 71.71 56.8302 72.41C56.8302 72.48 56.8302 72.62 56.8202 72.63L56.8002 72.66C56.8002 72.66 56.7702 72.72 56.7702 72.76C56.8102 72.81 56.7402 72.86 57.3402 72.97C58.4402 73.19 59.6202 73.13 60.7602 73.17C62.0202 73.22 63.2902 73.26 64.5602 73.26C65.3402 73.26 66.1202 73.26 66.8902 73.21C67.4702 73.18 68.0602 73.13 68.6302 73.05C68.9102 73.01 69.2002 72.97 69.4702 72.9C69.6102 72.87 69.7402 72.83 69.8602 72.8C69.9602 72.78 70.0202 72.75 70.1002 72.72C70.3302 72.64 70.5202 72.43 70.4202 72.18C70.4202 72.09 70.4002 71.78 70.3602 71.66C70.3102 71.51 70.2602 71.42 70.2202 71.34C70.1802 71.28 70.1002 71.23 70.0402 71.15C69.9002 71.02 69.8202 70.82 69.7802 70.65C69.7702 70.56 69.7502 70.46 69.7602 70.35C69.7802 70.22 69.8202 70.08 69.8502 69.95L69.9102 69.63C69.9502 69.42 70.5302 68.96 71.2202 69.29C71.7402 69.49 72.2902 70.01 72.6002 70.74C72.7502 71.1 72.7802 71.49 72.7802 71.8C72.7802 72.15 72.7502 72.28 72.6802 72.74C72.6302 72.93 72.6402 73.15 72.5202 73.3L72.4402 73.59C72.3902 73.67 72.3302 73.75 72.2702 73.83C72.0202 74.14 71.6702 74.35 71.3102 74.54L70.7202 74.77L70.2402 74.89C69.9902 74.95 69.7602 74.99 69.5202 75.03C68.1302 75.22 66.8202 75.24 65.5002 75.28V75.23L65.4502 75.2Z" fill="#231F20"/>
<path d="M27.74 109.55C26.96 109.62 19 110.7 18.39 112.86C17.61 115.61 32.93 117.29 41.83 116.87L43.59 115.61L28.02 113.86L27.73 109.55H27.74Z" fill="#231F20"/>
<path d="M49.1001 100.71C34.1401 104.05 29.8301 99.48 29.8301 99.48L32.6901 97.63C32.6901 97.63 42.4701 101.8 48.8201 99.63C48.8201 99.63 49.3701 100.65 49.1001 100.71Z" fill="#231F20"/>
<path d="M35.26 116.58C34.16 116.43 33.06 116.26 31.96 116.07L30.31 115.77L29.48 115.61L28.4 115.38C28.06 115.3 27.72 115.2 27.43 115.06C27.29 114.99 27.16 114.9 27.05 114.8C27 114.75 26.94 114.69 26.9 114.63C26.9 114.61 26.98 114.7 26.91 114.6C26.74 114.35 26.64 114 26.71 113.6L26.64 113.08L26.61 112.76C26.38 109.81 26.68 106.85 27.46 104.03C27.79 102.78 28.21 101.54 28.72 100.36C29.37 98.85 30.06 97.27 31.47 96.27C31.91 95.96 32.03 96.15 32.11 96.73C32.19 97.31 32.33 98.3 32.01 99.08C31.31 100.42 30.77 101.83 30.32 103.26C29.8 104.67 29.39 106.14 29.07 107.67C28.88 108.58 28.83 109.54 28.85 110.49C28.86 110.97 28.89 111.45 28.94 111.93L29.04 112.97C29.04 112.97 29.07 113.09 29.01 113.09C29.01 113.13 29.08 113.14 29.11 113.16C29.19 113.19 29.28 113.22 29.38 113.25L30.06 113.42L30.85 113.6C31.91 113.82 32.98 113.98 34.06 114.14C35.39 114.32 36.72 114.48 38.06 114.6C40.09 114.77 42.13 114.92 44.16 114.9C45.73 114.89 47.27 114.71 48.82 114.56C49.16 114.53 49.49 114.47 49.84 114.45C51.11 114.37 51.52 114.47 51.84 115.13C51.91 115.27 52 115.4 52.04 115.52C52.19 115.91 51.69 116.49 50.74 116.63C47.94 117.18 44.94 117.26 41.94 117.17C39.71 117.1 37.47 116.9 35.25 116.66V116.6L35.26 116.58Z" fill="#231F20"/>
<path d="M36.7199 64.97C36.8699 65.16 36.3999 67.18 36.3999 67.18C36.3999 67.18 47.4599 66.52 48.3099 66.14C49.1599 65.76 49.6299 64.26 49.6299 64.26L36.7199 64.97Z" fill="#231F20"/>
<path d="M34.4102 85.36C33.9002 88.19 33.4002 91.02 32.9502 93.86C32.8702 94.38 32.7902 94.89 32.7802 95.42C32.7802 95.53 32.7702 95.72 32.7602 95.77C32.7602 95.8 32.7602 95.83 32.7602 95.86C32.7602 95.92 32.7302 95.99 32.7402 96.05L32.7702 96.09C32.7702 96.09 32.8502 96.17 32.9002 96.2L32.9402 96.23L33.0502 96.29C33.1302 96.33 33.2002 96.38 33.2902 96.42C33.6602 96.57 34.0102 96.74 34.4102 96.88C34.8002 97.03 35.2002 97.17 35.6202 97.29C36.0302 97.42 36.4502 97.53 36.8802 97.63C38.5802 98.05 40.3402 98.32 42.1002 98.48C43.7002 98.6 45.3202 98.58 46.9102 98.44C47.9202 98.33 48.9302 98.21 49.9302 98.04C50.9302 97.88 51.9002 97.66 52.9502 97.62C53.6702 97.8 53.6302 97.85 53.2602 98.52C53.0802 98.87 52.7602 99.23 52.3502 99.63C51.9302 99.97 51.3802 100.25 50.7602 100.43L49.1002 100.79C48.5502 100.88 47.9902 100.97 47.4302 101.03C46.3102 101.12 45.1902 101.16 44.0802 101.14C41.8502 101.09 39.6302 100.83 37.4402 100.32C36.3702 100.07 35.2802 99.81 34.1702 99.49C33.6202 99.31 33.0602 99.16 32.5002 98.9C32.2202 98.79 31.9602 98.66 31.6302 98.47C31.2102 98.27 30.9002 97.96 30.5602 97.67L30.4102 97.44L30.3702 97.38L30.3502 97.35V97.33C30.2902 97.36 30.4302 97.28 30.4202 97.29L30.4002 97.16C30.3602 97 30.3402 96.83 30.3402 96.63L30.3202 96.06C30.3202 95.87 30.2902 95.68 30.3802 95.49C30.9202 92.57 31.3302 89.73 31.8402 86.86L32.7602 81.58C33.2202 78.91 33.7202 76.24 34.1402 73.58C34.4702 71.52 34.6702 69.47 34.9502 67.42C35.0102 66.97 35.0502 66.52 35.1602 66.07C35.5202 64.4 35.8802 63.92 36.4402 63.67C36.5702 63.61 36.7002 63.53 36.8102 63.5C37.0002 63.46 37.1302 63.62 37.2302 63.96C37.3302 64.29 37.4102 64.8 37.3702 65.42C37.3602 67.29 37.0502 69.14 36.8002 71.04C36.5302 72.94 36.2202 74.85 35.9102 76.77C35.4302 79.62 34.9502 82.49 34.4802 85.35H34.4202L34.4102 85.36Z" fill="#231F20"/>
<path d="M37.4498 59.77C37.4198 59.91 36.7198 62.31 38.6598 62.66C40.3498 62.97 35.8298 64.41 34.5598 63.48C33.2898 62.55 32.6498 59.85 33.2898 59.14C33.9298 58.43 37.4498 59.78 37.4498 59.78V59.77Z" fill="#231F20"/>
<path d="M37.09 62.57L40.77 62.42C41.22 62.4 41.66 62.32 42.11 62.32C43.7 62.32 45.3 62.39 46.89 62.58C47.6 62.66 48.32 62.68 49.03 62.77C49.49 62.84 49.96 62.88 50.42 63.01C50.65 63.09 50.87 63.2 51.09 63.31C51.31 63.43 51.51 63.63 51.7 63.79C51.93 64.01 51.75 64.19 51.39 64.4C51.03 64.59 50.55 64.93 50.09 64.99C48.55 64.92 46.81 64.91 45.05 64.69C43.99 64.52 42.88 64.71 41.79 64.75C40.59 64.8 39.38 64.86 38.16 64.94L37.04 65.02C36.65 65.04 36.33 65.09 35.81 65.09C34.97 65.05 34.31 64.69 33.77 64.27C33.23 63.84 32.81 63.3 32.47 62.72C31.94 61.82 31.61 60.79 31.61 59.73C31.61 59.5 31.58 59.26 31.66 59.04C31.85 58.19 32.29 58.07 32.84 58.12C32.97 58.13 33.09 58.13 33.21 58.16C33.4 58.2 33.54 58.32 33.68 58.5C33.82 58.68 33.98 58.92 33.99 59.15C34.18 59.85 34.24 60.39 34.45 60.87C34.67 61.32 34.86 61.74 35.15 62.09C35.36 62.34 35.63 62.53 35.77 62.6C35.64 62.7 36.51 62.58 37.06 62.54V62.6L37.09 62.57Z" fill="#231F20"/>
<path d="M41.2502 35.23C41.2502 35.23 40.7802 31.99 44.9202 32.71C49.0602 33.43 43.5802 29.03 40.5302 30.67C37.4802 32.31 38.4402 32.59 38.6702 33.91C38.9002 35.23 41.2502 35.23 41.2502 35.23Z" fill="#231F20"/>
<path d="M39.3401 29.8C40.4001 29.2 41.5401 29.09 42.5601 29.14C42.9401 29.18 43.2901 29.12 43.7001 29.23C45.0701 29.54 46.4401 30.61 46.7601 32.08C46.9001 32.71 46.9101 33.34 46.8101 33.93C46.7601 34.31 46.6101 34.66 46.4301 34.98C46.3001 35.33 45.7901 35.45 45.5301 35.66C45.3301 35.77 45.3101 35.71 45.2501 35.47C45.2101 35.35 45.1701 35.18 45.0701 34.97C45.0201 34.87 44.9601 34.75 44.8901 34.64C44.8501 34.58 44.8401 34.53 44.7801 34.47C44.7801 34.43 44.7801 34.39 44.7801 34.35C44.7501 33.79 44.8001 33.41 44.7701 33.07C44.7501 32.9 44.7201 32.75 44.6701 32.59C44.6401 32.43 44.6101 32.24 44.5101 32.05C44.2901 31.57 43.6601 31.4 43.0601 31.3C42.3201 31.19 41.5701 31.18 40.9101 31.4C40.5001 31.53 40.1401 31.76 39.8501 32.06C39.4101 32.51 39.1901 33.19 39.3901 33.74C39.5401 34.18 39.9601 34.38 40.3401 34.46C40.4401 34.46 40.5401 34.46 40.6201 34.47C40.7701 34.52 40.9001 34.54 40.9701 34.69C41.0301 34.88 41.0701 35.09 41.1101 35.34L41.1601 35.66C41.1801 35.83 41.1301 35.97 41.0101 36.14C40.8901 36.31 40.6701 36.54 40.4201 36.55C39.6701 36.61 38.7401 36.34 38.0801 35.6C37.4101 34.88 37.1301 33.84 37.2401 32.91C37.4101 31.52 38.2701 30.38 39.3201 29.75L39.3501 29.79L39.3401 29.8Z" fill="#231F20"/>
<path d="M57.1702 117.22C58.0702 117.33 58.9802 117.42 59.8902 117.48C60.2202 117.51 60.5602 117.48 60.8902 117.5C62.0602 117.56 63.2402 117.63 64.4202 117.62C64.9402 117.62 65.4602 117.55 65.9802 117.52C66.3102 117.5 66.6402 117.46 66.9702 117.43C67.3002 117.44 67.6102 117.45 67.9902 117.46C68.2102 117.47 68.1902 117.51 68.0402 117.64C67.8902 117.76 67.6102 118.07 67.2402 118.28C65.8902 118.79 64.4702 118.84 63.0702 118.78C62.2302 118.74 61.3602 118.8 60.5102 118.78C59.5702 118.75 58.6302 118.69 57.6902 118.6C57.1102 118.54 56.5402 118.48 55.9602 118.42C55.0902 118.31 54.2202 118.17 53.3502 118.02C52.6802 117.91 51.9902 117.87 51.3202 117.65C51.1702 117.6 51.0202 117.56 50.8702 117.51C50.3102 117.28 50.2102 117 50.2702 116.72C50.2802 116.65 50.2902 116.58 50.3202 116.52C50.4002 116.32 50.7102 116.25 51.0602 116.3C51.3102 116.36 51.6102 116.38 51.8702 116.43C52.1502 116.47 52.4402 116.48 52.7202 116.55C53.2902 116.64 53.8702 116.76 54.4702 116.84C55.3502 116.98 56.2602 117.1 57.1702 117.19V117.22Z" fill="#231F20"/>
<path d="M46.42 36.93C46.42 36.93 35.34 37.25 31.36 37.95C30.96 38.02 31.39 41.18 32.69 44.85C34.12 48.9 36.47 53.49 36.47 53.49H33.81C33.81 53.49 27.24 36.98 28.69 36.39C30.14 35.8 46.42 36.93 46.42 36.93Z" fill="#231F20"/>
<path d="M35.2001 54.77C35.2001 54.77 34.4601 56.99 36.2901 58.1C38.1301 59.21 33.4701 58.87 32.4301 57.57C31.3901 56.27 30.4101 54.27 30.9401 53.7C31.4701 53.13 35.2001 54.77 35.2001 54.77Z" fill="#231F20"/>
<path d="M56.1498 73.25C55.5598 72.63 57.1498 69.39 57.1498 69.39C57.1498 69.39 61.4298 72.26 63.6698 72.19C63.6698 72.19 65.0198 72.96 67.1798 73.25C69.3398 73.54 56.1498 73.25 56.1498 73.25Z" fill="#231F20"/>
<path d="M71.26 104.61C63.67 108.83 52.78 106.36 53.57 104.61L55.57 103.46C55.57 103.46 66.84 105.54 70.04 104.22L71.25 104.61H71.26Z" fill="#231F20"/>
<path d="M84.8201 32.92C84.7901 33.02 80.0301 32.85 80.1101 35.6C80.1401 36.49 81.6601 44.05 85.5201 46.69C87.3101 47.91 80.4901 45.26 80.4901 45.26L78.2701 37.34L77.3501 32.98C77.3501 32.98 79.4501 29.58 84.5501 30.72C84.5501 30.72 85.0001 32.18 84.8101 32.93L84.8201 32.92Z" fill="#231F20"/>
<path d="M88.48 31.99C88.48 31.99 92.31 30.83 93.89 31.78C95.47 32.73 95.87 30.19 94.24 29.57C92.61 28.95 88.98 29.77 88.52 29.94C88.06 30.11 88.47 31.99 88.47 31.99H88.48Z" fill="#231F20"/>
<path d="M107.55 106.36C106.84 100.15 103.81 96.3 99.0098 96.3L104.13 95.07C104.13 95.07 106.07 96.27 107.21 100.33C108.35 104.39 107.56 106.37 107.56 106.37L107.55 106.36Z" fill="#231F20"/>
<path d="M87.2101 33.57L87.5001 33.5C87.5001 33.5 87.5601 33.46 87.5601 33.42L87.5301 33.23L87.4501 32.71L87.2301 31.52C87.1701 31.21 87.0701 30.85 87.0901 30.55C87.0901 30.21 87.3701 30.12 87.3401 29.77C87.5801 29.6 87.7601 29.38 88.0601 29.25L88.5001 29.05L88.7201 28.95C88.7601 28.82 88.8401 28.84 88.8901 28.81C89.6801 28.46 90.5201 28.21 91.3801 28.23C92.2401 28.22 93.1001 28.3 94.0001 28.61C95.0001 28.95 96.0601 29.74 96.1801 30.84C96.2401 31.34 96.0601 32.08 96.0501 32.27L95.9901 32.66C95.9601 32.78 95.9901 32.95 96.1301 32.96C96.2101 32.99 96.2801 33.01 96.3901 33.03C96.5201 33.05 96.6501 33.06 96.7801 33.07L97.0401 33.09C97.2101 33.11 97.5101 33.09 97.5101 32.85L97.6201 32.54L97.8601 31.96L98.1101 31.39C98.1901 31.21 98.2701 31.05 98.4401 30.73C98.4701 30.63 98.5301 30.55 98.5701 30.46C98.6501 30.4 98.6901 30.3 98.7501 30.23C98.8401 30.05 99.0301 29.96 99.1901 29.84C99.5301 29.65 99.9201 29.54 100.33 29.5C100.75 29.47 101.01 29.47 101.31 29.5C101.6 29.52 101.89 29.57 102.16 29.63C103.26 29.88 104.31 30.26 105.29 31.02C105.78 31.38 106.4 32.14 106.38 32.96C106.37 34.69 105.93 36.18 105.46 37.63C105.04 38.89 104.57 40.1 104.07 41.3C103.82 41.9 103.56 42.49 103.28 43.08C103.03 43.68 102.58 44.18 102.18 44.72C101.65 45.37 101.57 45.22 101.45 44.43C101.39 44.04 101.27 43.46 101.22 42.8C101.22 42.16 101.38 41.49 101.64 40.79C102.18 39.43 102.7 38.07 103.18 36.77C103.67 35.49 104.05 34.13 104.1 33.06C104.1 33.04 104.11 33.02 104.1 33C104.1 32.99 103.97 32.83 103.84 32.72C103.54 32.48 103.1 32.26 102.66 32.08C101.83 31.71 100.48 31.58 100.49 31.65C100.43 31.66 100.41 31.72 100.36 31.75C100.36 31.8 100.36 31.75 100.32 31.87L100.23 32.14L100.07 32.66L99.9401 33.19L99.7101 34.02C99.6301 34.27 99.5301 34.49 99.4001 34.69C99.2701 34.89 99.0501 35.05 98.8401 35.17C98.4001 35.41 97.8801 35.49 97.3501 35.51C97.2201 35.51 97.0801 35.52 96.9601 35.51H96.6701C96.4901 35.49 96.3001 35.48 96.1201 35.45C95.6201 35.39 95.0801 35.28 94.6001 35.11C94.2501 34.95 93.9201 34.77 93.7301 34.42C93.5401 34.09 93.4601 33.72 93.4501 33.32C93.4401 32.92 93.4801 32.5 93.5401 32.1L93.6501 31.48C93.6601 31.41 93.6901 31.33 93.6801 31.26C93.6601 31.19 93.6201 31.12 93.5601 31.07C93.5101 31.02 93.4401 30.97 93.3701 30.94C93.3601 30.93 93.1801 30.85 93.0101 30.81C92.3401 30.61 91.5401 30.57 90.7701 30.64C90.3801 30.65 89.9901 30.67 89.6101 30.76C89.4101 30.8 89.4101 30.82 89.2901 30.85C89.2201 30.9 89.0801 30.9 89.0801 31L89.1201 31.28L89.1901 31.72C89.2601 32.17 89.3301 32.62 89.3801 33.08C89.4101 33.27 89.4201 33.5 89.4401 33.7C89.4501 34.06 89.3801 34.46 89.0601 34.69C88.7701 34.93 88.4101 35.08 88.0301 35.19C87.4201 35.36 86.9101 35.43 86.3401 35.47C86.1001 35.49 85.6801 35.49 85.3101 35.43C84.9301 35.38 84.5901 35.24 84.3701 34.94C84.1601 34.68 84.1701 34.26 84.1301 33.88L84.0701 33.06C84.0501 32.76 84.0201 32.46 83.9901 32.18C83.9501 32.04 83.9901 31.82 83.8301 31.75C83.6601 31.64 83.5501 31.62 83.2401 31.58C82.9601 31.55 82.6501 31.56 82.3401 31.59C81.7201 31.66 81.0801 31.82 80.4701 32.02C79.8601 32.23 79.2501 32.5 78.7601 32.82C78.6101 32.93 78.4001 33.05 78.4301 33.26L78.5401 34.08C78.9401 36.58 79.6701 38.98 80.5801 41.29C80.7701 41.8 81.0201 42.28 81.2001 42.8C81.5701 43.75 81.8401 44.37 81.9501 44.84C82.0401 45.32 82.0401 45.63 81.9901 45.92C81.9701 46.05 81.9601 46.2 81.9301 46.29C81.8701 46.44 81.7101 46.35 81.4001 46.07C81.2501 45.93 81.0601 45.75 80.8501 45.52C80.6401 45.29 80.4701 44.99 80.2501 44.65C79.0201 42.64 78.2101 40.35 77.5601 38.01C77.2401 36.83 76.9901 35.63 76.7901 34.41L76.7201 33.95L76.6401 33.27C76.6001 32.69 76.8401 32.13 77.2701 31.73C77.4501 31.53 77.7701 31.32 77.9001 31.24C78.0601 31.13 78.2101 31.06 78.3701 30.96C78.6801 30.8 78.9901 30.65 79.3001 30.52C80.1001 30.19 80.9201 29.95 81.8001 29.81C82.2401 29.74 82.7101 29.71 83.2101 29.72C83.6401 29.72 84.5001 29.93 85.1201 30.34L85.2501 30.46C85.2501 30.46 85.3201 30.48 85.2901 30.54L85.3501 30.61C85.4201 30.71 85.5101 30.79 85.5601 30.89C85.6601 31.11 85.7101 31.35 85.7601 31.6C85.8101 31.9 85.8201 32.02 85.8401 32.15L85.8801 32.56L85.9401 33.34V33.53C85.9401 33.53 85.9501 33.55 85.9501 33.56C85.9501 33.56 85.9701 33.61 85.9901 33.61C86.3201 33.61 86.8201 33.56 87.2101 33.47V33.51V33.57Z" fill="#231F20"/>
<path d="M85.8201 53.28C84.3601 53.19 82.9101 53.07 81.4001 52.74C80.6401 52.55 79.8901 52.37 79.0101 51.78C78.5401 51.4 78.0901 50.88 78.0301 50.25C77.9801 49.88 77.9901 49.73 77.9901 49.5C77.9901 49.3 78.0101 49.09 78.0301 48.89C78.0901 48.31 78.1501 47.75 78.2801 47.17C78.3101 47.02 78.3401 46.89 78.3901 46.73C78.4601 46.5 78.5201 46.28 78.6101 46.07C78.7601 45.63 78.9801 45.25 79.2401 44.92C79.3801 44.76 79.5101 44.59 79.6601 44.45C79.9001 44.24 80.1601 44.12 80.4601 44.04C80.7701 44.04 80.8901 44.12 81.1901 44.25C81.4701 44.39 81.7801 44.69 82.0401 45.01L82.4001 45.3L82.6201 45.44C82.9201 45.62 83.2901 45.77 83.6401 45.89C83.9201 45.98 84.3201 46.05 84.7301 46.11C86.3901 46.31 88.1401 46.36 89.8801 46.37C91.4801 46.37 93.1001 46.28 94.6801 46.13C95.6901 46.02 96.7101 45.9 97.7201 45.79C98.7301 45.69 99.6901 45.45 100.75 45.75C101.4 45.86 101.37 45.84 100.95 46.37C100.73 46.63 100.42 47.08 99.9801 47.47C99.5501 47.81 98.9901 48.01 98.3801 48.11C96.2301 48.47 94.1001 48.59 91.9601 48.64C89.8201 48.67 87.6801 48.62 85.4901 48.37C84.9601 48.3 84.4401 48.24 83.8701 48.14C83.6101 48.11 83.2501 48 82.9501 47.93C82.6801 47.83 82.4101 47.74 82.1301 47.62C81.8601 47.5 81.5801 47.37 81.3101 47.2C81.0901 47.07 81.0601 47.04 81.0001 46.98C80.9401 46.93 80.8901 46.86 80.8301 46.8C80.7501 46.77 80.7001 46.89 80.6501 46.93C80.5501 47.07 80.4801 47.23 80.4201 47.39C80.2101 47.97 80.0601 48.62 80.0001 49.25C79.9901 49.41 79.9801 49.56 79.9801 49.71V49.86C79.9801 49.86 79.9801 49.93 80.0001 49.96C80.0601 50.1 80.1001 50.15 80.3101 50.29C80.7601 50.57 81.4201 50.76 82.0601 50.91C82.7201 51.06 83.4001 51.16 84.0901 51.23C85.7901 51.41 87.5401 51.46 89.2801 51.45C91.9201 51.42 94.5801 51.29 97.1901 51C98.7501 50.82 100.33 50.54 101.8 50.24C102.01 50.18 102.08 50.07 102.22 49.74C102.34 49.44 102.4 49.06 102.45 48.68C102.58 47.2 102.44 46.82 102.9 46.33C102.97 46.23 103 46.09 103.05 46.02C103.12 45.89 103.28 45.94 103.62 46.21C103.82 46.34 103.92 46.55 104.01 46.81C104.1 47.07 104.17 47.37 104.2 47.72C104.26 48.41 104.25 49.11 104.08 49.86C103.97 50.24 103.87 50.62 103.58 51.05C103.28 51.52 102.75 51.9 102.16 52.03C99.6201 52.53 97.1401 52.85 94.5501 53.07C91.6701 53.31 88.7701 53.41 85.8401 53.31V53.26L85.8201 53.28Z" fill="#231F20"/>
<path d="M102.51 93.13C102.51 93.13 102.54 93.07 102.55 93.04C102.55 92.77 102.52 92.36 102.5 92.01C102.46 91.3 102.37 90.55 102.3 89.82C102.13 88.35 101.94 86.87 101.73 85.4C101.57 84.32 101.38 83.25 101.24 82.17C100.76 78.36 100.28 74.54 99.7001 70.73C99.4401 69.04 99.0901 67.36 98.7601 65.7C98.5301 64.64 98.3101 63.57 98.0801 62.5C97.9101 61.42 97.8101 60.33 97.8301 59.21C97.8401 58.51 97.8701 58.6 98.2301 59.1C98.4101 59.35 98.6901 59.71 99.0501 60.14C99.3701 60.57 99.6801 61.1 99.9201 61.69C101.18 66 102 70.4 102.53 74.88C102.83 77.56 103.38 80.31 103.76 83.05C104.12 86.07 104.42 89.08 104.54 92.16C104.54 92.4 104.56 92.63 104.55 92.89C104.55 93.14 104.55 93.58 104.5 93.89L104.4 94.39C104.36 94.46 104.4 94.58 104.31 94.61L104.09 94.73C103.81 94.89 103.45 95.09 103.22 95.19C102.33 95.61 101.42 95.92 100.49 96.18C97.6801 96.98 94.7501 97.19 91.8701 97.11C89.6301 97.04 87.4101 96.91 85.1901 96.43C84.7101 96.32 84.2301 96.22 83.7501 96.07C82.8501 95.82 82.3101 95.5 81.9801 95.2C81.8101 95.05 81.7001 94.88 81.6301 94.7C81.5701 94.5 81.5501 94.27 81.5501 94.05C81.5501 93.85 81.5201 93.64 81.5401 93.48C81.5901 93 82.6001 92.52 83.7501 92.91C87.3101 93.75 90.9801 94.44 94.7701 94.3C96.1801 94.28 97.5701 94.07 98.9701 93.86C99.6701 93.76 100.37 93.62 101.04 93.44C101.38 93.36 101.71 93.26 102.06 93.19L102.31 93.12L102.43 93.09C102.43 93.09 102.45 93.08 102.47 93.08L102.52 93.12L102.51 93.13Z" fill="#231F20"/>
<path d="M98.2899 94.78C99.3399 94.56 100.39 94.34 101.45 94.06L102.62 93.73C102.86 93.65 103.1 93.64 103.32 93.66L103.63 93.74L103.79 93.78H103.81C103.78 93.92 103.86 93.6 103.85 93.63L103.89 93.66L103.96 93.71L104.52 94.12C104.71 94.25 104.89 94.39 105.05 94.59C105.21 94.76 105.41 95.01 105.51 95.14C105.61 95.26 105.71 95.38 105.79 95.5C106.32 96.22 106.88 96.9 107.3 97.67C108.82 100.35 109.83 103.31 110.21 106.34C110.41 107.68 110.5 109.03 110.53 110.38C110.47 111.24 110.56 112.12 110.32 112.97C110.17 113.82 109.91 114.66 109.4 115.4C108.89 115.8 108.95 115.73 108.58 115.18C108.38 114.9 108.22 114.55 108.04 114.15C107.96 113.95 107.92 113.75 107.88 113.54C107.83 113.33 107.8 113.11 107.8 112.89C107.99 109.81 107.85 106.76 107.06 103.64C106.63 101.77 105.62 99.99 104.55 98.36C104.26 97.9 103.95 97.47 103.63 97.04C103.42 96.78 103.41 96.76 103.34 96.66C103.27 96.59 103.21 96.46 103.11 96.43C102.99 96.41 101.48 96.96 100.43 97.23C99.0299 97.6 97.5999 97.86 96.1499 98.05C93.9599 98.33 91.7199 98.3 89.5299 98.02C87.8299 97.81 86.1199 97.51 84.4699 96.85C84.0999 96.72 83.7499 96.56 83.3999 96.39C82.1199 95.68 81.8799 95.19 82.1399 94.39C82.1999 94.21 82.2399 94.02 82.3199 93.86C82.5899 93.33 83.3399 93.25 84.1499 93.6C86.5999 94.62 89.1699 95.25 91.9499 95.33C93.9999 95.39 96.1299 95.18 98.2299 94.71L98.2499 94.78H98.2899Z" fill="#231F20"/>
<path d="M78.9901 112.73L79.1001 113.52L79.2601 114.28C79.3001 114.55 79.4201 114.74 79.4901 114.98C79.5501 115.21 79.7101 115.43 79.6801 115.44C79.7001 115.49 79.7401 115.53 79.8001 115.56C79.8201 115.56 79.8201 115.56 79.8201 115.56C79.8201 115.56 79.9001 115.58 79.9501 115.58C80.0601 115.59 80.1701 115.61 80.3101 115.6C80.8401 115.61 81.4501 115.56 82.0701 115.48C82.9301 115.38 83.8001 115.17 84.7001 115.05C87.8501 114.62 91.1001 114.33 94.3401 114.43C95.7801 114.47 97.2201 114.54 98.6501 114.71C99.5701 114.82 100.48 114.96 101.38 115.19C102.27 115.42 103.18 115.69 103.89 116.41C104.35 116.79 104.24 116.85 103.68 117.01C103.1 117.19 102.07 117.71 101.14 117.45C97.7601 116.8 94.3001 116.58 90.6901 116.68C88.5301 116.71 86.3201 117.23 84.0801 117.57C83.1601 117.71 82.2401 117.85 81.2601 117.92C80.7601 117.95 80.2601 117.98 79.6801 117.92C78.9901 117.86 78.2201 117.57 77.8301 116.95C77.5601 116.47 77.4001 116.21 77.2801 115.86C77.1501 115.53 77.0201 115.2 76.9301 114.87C76.4601 113.3 76.2101 111.73 76.1401 110.15C76.0401 107.76 76.2801 105.37 76.7501 103.04C77.1301 101.24 77.5101 99.42 78.3901 97.74C78.5501 97.36 78.7701 97.01 79.0001 96.65C79.2201 96.33 79.4001 96.06 79.5901 95.86C79.8001 95.68 80.0201 95.58 80.2001 95.49C80.5701 95.33 80.8301 95.3 81.1101 95.35C81.2401 95.37 81.3801 95.38 81.4801 95.42C81.8101 95.56 81.6501 96.23 81.3201 97.2C80.6701 98.52 80.1701 99.89 79.7301 101.31C79.3401 102.76 79.0401 104.26 78.8801 105.8C78.7901 106.95 78.7101 108.1 78.7601 109.26C78.7601 109.84 78.8201 110.41 78.8701 110.99C78.9001 111.56 78.9501 112.14 79.0301 112.7L78.9701 112.72L78.9901 112.73Z" fill="#231F20"/>
<path d="M64.73 57.76C62.82 57.12 60.59 57.71 58.94 58.99C58.35 59.47 57.86 60.06 57.44 60.67C56.71 61.76 56.31 63.05 56.41 64.35C56.54 65.66 57.04 66.96 58.01 67.94C58.85 68.83 60.03 69.42 61.25 69.75C62.03 69.98 62.86 70.08 63.68 70.13C64.51 70.17 65.32 70.21 66.2 70.42C66.75 70.55 66.73 70.73 66.32 71.2C66.11 71.43 65.81 71.8 65.39 72.06C65.18 72.2 64.95 72.36 64.69 72.43C64.44 72.49 64.16 72.55 63.88 72.54C61.87 72.52 59.79 72.11 57.95 70.97C56.11 69.9 54.59 67.92 54.25 65.75C54.04 64.47 54.04 63.13 54.37 61.86C54.69 60.59 55.32 59.42 56.16 58.47C58.01 56.38 60.71 55.23 63.43 55.23C65.1 55.27 66.77 55.71 68.19 56.64C69.24 57.36 70.13 58.3 70.8 59.37C71.42 60.47 71.86 61.66 72.05 62.91C72.11 63.39 72.13 63.88 72.17 64.37C72.13 64.86 72.15 65.36 72.06 65.85C71.91 66.83 71.62 67.82 71.06 68.67C70.8 69.03 70.63 69.46 70.29 69.76C69.99 70.05 69.72 70.27 69.49 70.44C69.25 70.6 69 70.65 68.81 70.7C68.41 70.79 68.13 70.74 67.84 70.59C67.71 70.53 67.57 70.48 67.47 70.4C67.15 70.15 67.42 69.47 67.87 68.64C68.62 67.46 68.95 66.27 69.21 65.1C69.43 63.91 69.3 62.63 68.83 61.46C68.14 59.73 66.66 58.26 64.72 57.81V57.75L64.73 57.76Z" fill="#231F20"/>
<path d="M50.9401 109.65C51.1801 108.62 51.4501 107.58 51.8601 106.56C52.2701 105.55 52.7701 104.52 53.5901 103.61L53.8901 103.27C53.9701 103.16 54.2201 102.99 54.3801 102.86L54.9101 102.44L55.1801 102.23L55.3101 102.12C55.3101 102.12 55.4101 102.14 55.4601 102.15L56.6401 102.55L57.4101 102.79C58.3301 103.07 59.2601 103.29 60.2001 103.47C61.5801 103.71 62.9801 103.79 64.3701 103.8C65.9001 103.82 67.4401 103.7 68.9401 103.42C69.6901 103.28 70.4301 103.1 71.1501 102.87L71.6801 102.69L72.0201 102.56C72.1601 102.51 72.3401 102.43 72.2901 102.26L72.2701 101.88L72.2001 101.17L72.0301 99.73L71.6301 96.84C71.3001 94.58 70.8701 92.33 70.4401 90.1C70.1701 88.67 69.9001 87.24 69.6301 85.8L69.4401 84.72L69.3401 83.63C69.2701 82.9 69.2101 82.17 69.1401 81.44C69.0701 80.53 69.2401 80.61 69.6701 81.31C69.8901 81.66 70.1801 82.16 70.5101 82.76C70.6801 83.06 70.8501 83.4 71.0201 83.75C71.1101 83.93 71.1801 84.11 71.2801 84.3C71.3301 84.5 71.3901 84.7 71.4501 84.9C71.8001 86.33 72.1501 87.76 72.4601 89.19C72.7401 90.63 72.9901 92.08 73.2401 93.53C73.4801 94.98 73.7101 96.44 73.9101 97.9L74.1901 100.11L74.3101 101.23L74.3601 101.81C74.3901 102.14 74.4101 102.46 74.4201 102.78L74.3201 103.23C74.1301 103.91 73.2101 104.25 72.6401 104.5C72.1701 104.68 71.7101 104.83 71.2501 104.96C70.3201 105.23 69.3801 105.43 68.4301 105.59C66.5301 105.9 64.6001 106 62.6901 105.87C60.6001 105.72 58.5301 105.33 56.5401 104.7C56.2401 104.61 56.1601 104.58 56.0301 104.53C55.9101 104.49 55.7701 104.41 55.7101 104.51C55.6201 104.58 55.5601 104.6 55.4501 104.72L55.0301 105.2C54.5101 105.91 54.0601 106.73 53.7501 107.64C52.9501 109.85 52.5901 112.31 52.4501 114.72C52.4301 115.16 52.4101 115.59 52.4101 116.03V116.64C52.4301 116.76 52.4201 116.88 52.4601 117C52.5601 117.17 52.7501 117.26 52.9301 117.32C53.2001 117.42 53.5401 117.49 53.8601 117.56C54.5301 117.68 55.2301 117.73 55.9301 117.77C57.3301 117.85 58.7601 117.83 60.1701 117.8C63.0601 117.72 65.9001 117.44 68.7901 117.3C69.4301 117.27 70.0501 117.22 70.7001 117.22C73.1001 117.22 73.8901 117.42 74.3301 118.15C74.4301 118.3 74.5701 118.44 74.6301 118.57C74.8101 118.96 73.8201 119.43 72.1401 119.45C67.0901 119.66 61.7401 120.12 56.1401 119.92C55.3401 119.88 54.5401 119.82 53.6801 119.68C53.2501 119.61 52.8101 119.52 52.3201 119.37C52.2301 119.33 51.9701 119.25 51.8201 119.18C51.6501 119.1 51.4901 119 51.3301 118.9C51.0301 118.68 50.7801 118.41 50.5601 118.12C50.4601 117.84 50.4001 117.55 50.3501 117.25C50.3201 117.1 50.2801 116.95 50.2801 116.8V116.5C50.2601 116.15 50.2701 115.83 50.2701 115.49C50.2801 114.83 50.3201 114.18 50.3701 113.53C50.4801 112.23 50.6501 110.93 50.9201 109.63H50.9701L50.9401 109.65Z" fill="#231F20"/>
<path d="M53.4301 46.82C53.7701 46.01 54.1001 45.2 54.4001 44.39C54.5101 44.09 54.5601 43.78 54.6701 43.48C55.0601 42.43 55.5001 41.39 55.8601 40.33C56.0101 39.86 56.1001 39.37 56.1601 38.89C56.2601 38.28 56.3401 37.69 56.5901 37.14C56.6601 36.96 56.8201 36.91 57.1001 37.04C57.3601 37.17 57.9001 37.54 57.9601 37.97C58.0201 38.34 58.0901 38.71 58.0901 39.07C58.0501 39.41 58.0101 39.77 57.9301 40.1C57.7901 40.77 57.6001 41.42 57.3301 42.05C57.0201 42.8 56.8701 43.62 56.6201 44.4C56.3301 45.25 56.0201 46.09 55.7001 46.93C55.5001 47.45 55.3001 47.96 55.0901 48.47C54.7801 49.24 54.4301 50.01 54.1701 50.79C53.9501 51.39 53.8801 52.04 53.6601 52.64C53.6101 52.77 53.5801 52.91 53.5201 53.04C53.4201 53.28 53.3101 53.43 53.1501 53.5C53.0201 53.58 52.8501 53.59 52.6701 53.58C52.5901 53.58 52.5201 53.58 52.4601 53.58C52.3001 53.58 52.0401 53.24 52.0001 52.82C51.9701 51.62 52.2701 50.48 52.5901 49.34C52.8301 48.5 53.0901 47.66 53.3701 46.82L53.4201 46.84L53.4301 46.82Z" fill="#231F20"/>
<path d="M27.27 36.45C27.3 36.07 27.4 35.79 27.61 35.55C27.72 35.41 27.89 35.36 28.03 35.27C28.19 35.19 28.29 35.08 28.51 35.05L29.67 34.82C29.85 34.77 30.08 34.79 30.28 34.77H30.65H32.02L34.74 34.8C35.58 34.81 36.41 34.76 37.24 34.78C40.18 34.86 43.11 35.09 46.05 35.2C47.35 35.25 48.66 35.25 49.95 35.28L52.44 35.31L53.06 35.33L53.68 35.43C54.09 35.51 54.51 35.55 54.92 35.68C55.44 35.97 55.37 35.88 54.92 36.19C54.7 36.36 54.39 36.51 54.02 36.71C53.83 36.8 53.63 36.9 53.41 36.99C53.3 37.04 53.19 37.07 53.08 37.12C52.97 37.14 52.85 37.15 52.73 37.16C51.04 37.29 49.34 37.43 47.65 37.45C45.96 37.43 44.26 37.37 42.55 37.24C40.51 37.09 38.39 37.24 36.31 37.2L32.88 37.18L30.01 37.21H29.99C29.86 37.23 29.56 37.17 29.65 37.39C29.67 37.54 29.7 37.7 29.74 37.86L29.8 38.11L29.93 38.57L30.22 39.57C30.84 41.6 31.49 43.66 32.22 45.65C32.78 47.2 33.45 48.68 34.07 50.19C34.21 50.52 34.36 50.84 34.49 51.18C34.73 51.81 34.86 52.23 34.87 52.56C34.87 52.89 34.76 53.12 34.6 53.34C34.53 53.44 34.48 53.55 34.42 53.61C34.32 53.72 34.17 53.66 33.91 53.5C33.64 53.34 33.37 53.03 33.16 52.59C31.81 49.97 30.6 47.13 29.57 44.2C29.18 43.12 28.81 42.02 28.45 40.92L27.92 39.25L27.79 38.83C27.71 38.62 27.61 38.31 27.53 38.05C27.38 37.52 27.18 36.93 27.22 36.47L27.28 36.49L27.27 36.45Z" fill="#231F20"/>
<path d="M36.55 60.17C35.84 60.12 35.11 60.03 34.36 59.91L33.76 59.78C33.56 59.73 33.39 59.71 33.09 59.59C32.84 59.49 32.53 59.37 32.34 59.24C32.16 59.11 31.99 58.99 31.82 58.86C31.48 58.58 31.17 58.27 30.89 57.92C30.76 57.74 30.61 57.57 30.5 57.37L30.32 57.07C30.25 56.95 30.19 56.79 30.13 56.66C30 56.38 29.89 56.1 29.78 55.81C29.7 55.52 29.64 55.23 29.6 54.95C29.54 54.66 29.54 54.39 29.54 54.12L29.57 53.72C29.6 53.6 29.64 53.49 29.67 53.37L29.83 52.94C29.88 52.89 29.91 52.82 29.96 52.77C30.12 52.81 30.11 52.73 30.19 52.71L30.56 52.54C30.68 52.47 30.82 52.42 30.98 52.39L31.21 52.33H31.49C31.86 52.33 32.25 52.35 32.64 52.37L33.18 52.4L33.51 52.43C37.02 52.87 40.5 53.27 44.02 53.42C45.58 53.48 47.14 53.44 48.68 53.35C49.67 53.27 50.65 53.19 51.64 53.12C52.63 53.04 53.6 52.93 54.62 53.07C55.28 53.32 55.21 53.36 54.76 53.91C54.53 54.2 54.19 54.49 53.77 54.8C53.34 55.08 52.81 55.27 52.23 55.37C51.19 55.52 50.15 55.65 49.11 55.73C48.07 55.79 47.03 55.83 45.99 55.83C43.91 55.83 41.83 55.73 39.75 55.5C38.51 55.36 37.24 55.28 35.97 55.21L34.06 55.1C33.74 55.08 33.43 55.06 33.11 55.03L32.68 54.98L32.42 54.95H32.28C32.28 54.95 32.18 54.94 32.19 55C32.14 55.17 32.16 55.38 32.21 55.58C32.23 55.68 32.27 55.78 32.32 55.88C32.38 55.99 32.53 56.24 32.65 56.39C32.92 56.73 33.28 57.05 33.66 57.29C33.88 57.39 34.43 57.53 34.94 57.6C36.54 57.82 38.25 57.89 39.93 57.91C42.49 57.93 45.08 57.91 47.63 57.72C48.62 57.64 49.6 57.53 50.57 57.39C51.05 57.32 51.54 57.24 52.01 57.15L52.72 57.02L53.05 56.95C53.15 56.93 53.18 56.92 53.23 56.9C53.26 56.88 53.3 56.88 53.32 56.85C53.4 56.77 53.5 56.64 53.6 56.47C53.71 56.28 53.79 56.08 53.87 55.89C53.96 55.7 54.08 55.53 54.18 55.37C54.39 55.06 54.66 54.83 55.01 54.72C55.16 54.67 55.32 54.6 55.44 54.6C55.65 54.62 55.77 54.77 55.95 55.04C56.12 55.33 56.27 55.8 56.2 56.57C56.12 56.99 55.97 57.44 55.71 57.89C55.58 58.11 55.42 58.32 55.24 58.52C55.15 58.61 55.05 58.71 54.92 58.83C54.8 58.92 54.67 59.02 54.54 59.11C54.24 59.23 53.93 59.36 53.63 59.44L52.99 59.57L51.86 59.74C51.11 59.83 50.36 59.93 49.61 60C48.1 60.14 46.58 60.24 45.05 60.3C42.25 60.4 39.45 60.43 36.56 60.25V60.19L36.55 60.17Z" fill="#231F20"/>
<path d="M52.4902 80.69C52.3802 79.66 52.3602 78.61 52.2702 77.57C52.2402 77.19 52.1502 76.82 52.1302 76.43C52.0302 75.09 52.1002 73.71 52.0502 72.36C52.0202 71.76 51.9802 71.16 51.9502 70.56C51.9402 70.18 51.9102 69.79 51.9102 69.41C51.9502 69.02 52.0702 68.63 52.1502 68.24C52.2202 68 52.2502 68.03 52.4102 68.22C52.5502 68.41 52.9202 68.75 53.1702 69.17C53.3102 69.54 53.4002 69.92 53.5002 70.29C53.6002 70.66 53.7202 71.04 53.7502 71.42C53.8502 72.18 53.9202 72.95 53.9302 73.73C53.9502 74.66 54.2002 75.61 54.2902 76.55L54.6002 79.69L54.7502 81.63C54.8402 82.61 54.8902 83.6 55.0202 84.57C55.1102 85.32 55.3502 86.05 55.4102 86.81C55.4302 86.98 55.4602 87.14 55.4702 87.3C55.5102 87.92 55.3002 88.13 54.9502 88.29C54.8602 88.33 54.7802 88.37 54.7002 88.39C54.4302 88.46 54.1502 88.23 53.9202 87.8C53.6902 87.16 53.3802 86.51 53.2602 85.83C53.1102 85.16 53.0002 84.47 52.8902 83.78C52.7502 82.75 52.6002 81.71 52.4502 80.68H52.5002L52.4902 80.69Z" fill="#231F20"/>
<path d="M82.5098 46.62C82.5598 46.86 80.6298 47.77 82.5098 51.37C83.4298 53.13 78.2998 50.92 78.6798 49.74C79.0598 48.56 78.8998 45.9 80.4998 45.25L82.5198 46.61L82.5098 46.62Z" fill="#231F20"/>
<path d="M35.8501 16.84C35.8501 16.84 38.8901 16.84 39.3201 14.79C39.7401 12.74 42.9301 15.57 40.8101 17.83C38.6901 20.09 36.0001 18.79 35.8601 16.84H35.8501Z" fill="#231F20"/>
<path d="M41.5798 18.49C41.1398 19.14 40.5098 19.54 39.9098 19.77C39.3098 20 38.6998 20.09 38.0898 20.07C37.6498 20.05 37.1998 20.04 36.7798 19.88C36.0398 19.62 35.3198 19.11 34.8998 18.38C34.4798 17.64 34.4798 16.81 34.6398 16.11C34.7898 15.48 35.0798 14.89 35.4998 14.45C36.0398 13.88 36.7498 13.52 37.4798 13.43C37.7098 13.41 37.6998 13.51 37.5698 13.69C37.4398 13.87 37.2298 14.19 36.9998 14.45C36.1598 15.41 35.9798 16.39 36.2398 17.22C36.3298 17.73 36.9398 18.05 37.5698 18.15C38.2598 18.29 39.0998 18.15 39.6098 17.75C39.9198 17.51 40.1098 17.18 40.1298 16.75C40.1598 16.11 39.8298 15.34 39.2598 14.9C38.8098 14.52 38.2298 14.52 37.8798 14.59C37.7898 14.61 37.7198 14.65 37.6498 14.67C37.3798 14.72 37.2098 14.57 36.8198 14.3L36.5598 14.13C36.2998 13.98 36.1998 13.48 36.6798 12.98C37.3898 12.32 38.5898 12.19 39.4698 12.58C40.3598 12.94 41.0298 13.55 41.5298 14.34C41.8798 14.92 42.1198 15.57 42.1798 16.3C42.2498 17.02 42.0798 17.84 41.6498 18.52L41.6098 18.5L41.5798 18.49Z" fill="#231F20"/>
<path d="M64.4202 13.22C64.0402 13.61 63.5702 13.95 63.0102 14.16C62.4502 14.38 61.8102 14.41 61.2902 14.31C60.9102 14.24 60.5502 14.18 60.2302 14.02C59.9602 13.88 59.6802 13.71 59.4002 13.46C59.2602 13.34 59.1302 13.19 59.0202 13.02C58.9202 12.84 58.8502 12.66 58.8002 12.48C58.6302 11.75 58.7802 11.15 58.9902 10.63C59.1802 10.17 59.4202 9.76 59.7302 9.42C60.1102 8.97 60.6202 8.63 61.1702 8.49C61.3402 8.45 61.3302 8.49 61.2402 8.63C61.1402 8.76 61.0102 9.01 60.8502 9.25C60.2702 10.08 60.2202 11.1 60.3402 11.64C60.3802 11.82 60.4602 11.84 60.5602 11.94C60.6802 12.03 60.9502 12.13 61.1702 12.2C61.6802 12.36 62.0202 12.36 62.4402 12.06C62.6902 11.88 62.9302 11.6 63.0702 11.29C63.3002 10.82 63.3202 10.42 63.0002 10.06C62.7502 9.77 62.3402 9.82 62.0102 9.77C61.9302 9.77 61.8502 9.77 61.7702 9.77C61.6202 9.76 61.5202 9.69 61.4402 9.54C61.3602 9.4 61.3002 9.23 61.2402 8.98L61.1602 8.66C61.0902 8.32 61.2402 7.94 61.6602 7.68C62.2702 7.47 63.0902 7.37 63.8202 7.8C64.5602 8.2 65.1702 8.9 65.4302 9.84C65.6302 10.56 65.5302 11.31 65.3102 11.85C65.1002 12.41 64.8102 12.84 64.4402 13.26L64.4002 13.23L64.4202 13.22Z" fill="#231F20"/>
<path d="M83.3598 22.23C82.5098 22.82 81.3298 22.78 80.4598 22.28C80.1398 22.1 79.8198 21.91 79.5898 21.61C79.2998 21.23 79.1098 20.76 79.1398 20.28C79.1698 19.85 79.3098 19.43 79.5498 19.07C79.8098 18.72 80.1198 18.41 80.4798 18.22C80.8498 18 81.1898 17.84 81.5798 17.71C82.0498 17.54 82.6798 17.46 83.1498 17.8C83.2898 17.91 83.1998 17.98 83.0498 18.06C82.8898 18.14 82.6898 18.32 82.5298 18.42C82.2298 18.59 81.9698 18.88 81.6898 19.17C81.5398 19.29 81.4098 19.45 81.3998 19.39C81.3498 19.39 81.2798 19.39 81.1898 19.45C81.1198 19.49 81.0698 19.56 81.0598 19.62C81.0198 19.76 81.1098 19.86 81.1798 19.97C81.2898 20.16 81.5498 20.33 81.8598 20.32C82.0498 20.32 82.2398 20.23 82.3798 20.08C82.5798 19.86 82.6798 19.46 82.4398 19.19C82.2598 18.97 81.8898 18.97 81.6998 19.05C81.6498 19.06 81.6098 19.1 81.5798 19.11C81.5198 19.13 81.4798 19.11 81.4298 19.05C81.3498 18.98 81.2598 18.86 81.1898 18.68C81.1498 18.59 81.1098 18.51 81.0798 18.43C81.0298 18.28 81.0298 18.14 81.0798 18.01C81.1098 17.88 81.1998 17.76 81.4498 17.63C82.1498 17.28 83.0098 17.4 83.5998 17.81C84.2098 18.22 84.5798 18.9 84.6598 19.59C84.7798 20.62 84.3098 21.71 83.4298 22.28L83.3998 22.24L83.3598 22.23Z" fill="#231F20"/>
</svg>
