<svg width="128" height="128" viewBox="0 0 128 128" fill="none" xmlns="http://www.w3.org/2000/svg">
<path d="M44.6902 37.53C44.1602 37.53 31.7602 36.14 31.4702 36.27C31.1802 36.4 21.2002 42.33 21.2002 42.33L45.0202 43.01L44.6802 37.53H44.6902Z" fill="#231F20"/>
<path d="M73.0599 34.39L90.6299 33.13L72.6699 44.31L73.0599 34.39Z" fill="#231F20"/>
<path d="M82.5298 111.15C82.5298 111.15 88.9898 113.75 89.7898 112.77C90.6798 111.68 89.2198 108.51 89.2198 108.51L93.3998 115.8L83.2698 112.4L82.5398 111.15H82.5298Z" fill="#231F20"/>
<path d="M104 106.87C107.29 105.15 105.2 100.39 101.51 100.57C101.51 100.57 107.24 97.1 108.71 97.68C110.18 98.26 111.37 102.1 111.22 102.92C111.07 103.74 106.52 106.46 106.52 106.46L104.01 106.88L104 106.87Z" fill="#231F20"/>
<path d="M35.86 106.72C30.71 106.4 31.19 98.75 31.91 98.56C31.91 98.56 26.19 97.78 25.07 98.02C23.95 98.26 23.65 104.92 24.52 105.86C25.39 106.8 32.76 107.07 32.76 107.07L35.86 106.72Z" fill="#231F20"/>
<path d="M90.5598 31.54C91.1398 31.61 91.4598 31.8 91.6998 31.98C91.9498 32.18 92.0398 32.3 92.1898 32.63C92.1898 32.89 92.1198 33.1 92.0798 33.33L92.0598 33.42L91.9498 33.55L91.7298 33.82L91.2898 34.35C90.7098 34.79 90.0898 35.21 89.5098 35.63L87.9798 36.72L87.4698 37.08L87.0098 37.37C84.8398 38.71 82.6098 39.93 80.3898 41.14C79.3898 41.66 78.4098 42.22 77.4398 42.76C76.1998 43.47 74.9698 44.23 73.5198 44.54C73.0598 44.61 73.0298 44.43 73.2198 43.97C73.3798 43.47 73.7798 42.74 74.4398 42.26C76.8698 40.7 79.3498 39.26 81.9698 37.98C83.5298 37.2 84.9898 36.12 86.4598 35.14L87.3598 34.58L88.0098 34.15L88.1898 34.03C88.1898 34.03 88.2598 33.99 88.2698 33.96C88.2698 33.93 88.2398 33.92 88.2198 33.91C88.1298 33.88 88.0298 33.87 87.9198 33.86C87.4698 33.81 86.9198 33.8 86.2898 33.81C84.5398 33.87 82.6398 33.93 80.8398 34.09C79.4298 34.22 78.0598 34.49 76.6698 34.71C76.3598 34.76 76.0698 34.83 75.7598 34.86C74.6198 35.01 74.2298 34.84 73.9298 34.25C73.8598 34.13 73.7798 34.01 73.7298 33.9C73.5898 33.59 74.0098 32.97 74.8398 32.78C77.3098 32.15 79.9398 31.86 82.5998 31.66C83.5898 31.59 84.5798 31.53 85.5698 31.49L86.5298 31.45C87.0098 31.43 87.5098 31.4 87.9698 31.4C88.9198 31.4 89.8198 31.4 90.5898 31.48L90.5198 31.54H90.5598Z" fill="#231F20"/>
<path d="M80.4801 108.51C80.4801 108.51 74.1201 108.44 75.0601 110.11C76.0001 111.78 92.0301 117.03 92.0301 117.03L82.3301 112.29L80.4801 108.51Z" fill="#231F20"/>
<path d="M79.8602 103.04C80.5702 104.97 81.2902 106.89 82.0602 108.79C82.3402 109.48 82.7102 110.13 83.0002 110.8L83.1702 111.18C83.1702 111.18 83.2002 111.27 83.2202 111.31C83.3102 111.39 83.2602 111.38 83.6302 111.55L85.4102 112.32C86.6202 112.83 87.8502 113.31 89.0902 113.76C90.1902 114.17 91.3302 114.46 92.4302 114.8L94.5802 115.38C94.9402 115.48 95.2802 115.64 95.6302 115.77C95.9802 115.9 96.3202 116.06 96.6402 116.3C97.0502 116.59 96.9802 116.68 96.5202 116.95C96.0502 117.28 95.1902 117.69 94.2802 117.64C91.1702 117.17 88.2502 116.14 85.3902 114.86C84.5402 114.47 83.6502 114.15 82.7202 113.78C82.5902 113.72 82.5202 113.71 82.3402 113.62L81.8102 113.35C81.4402 113.18 81.2502 112.83 81.0402 112.49L80.8302 112.08L80.6702 111.75L80.3702 111.09C79.5302 109.17 78.7202 107.25 77.9402 105.31L76.5102 101.74C75.7802 99.94 75.1402 98.1 74.3902 96.32C73.8202 94.93 73.1202 93.63 72.5102 92.26C72.3802 91.96 72.2202 91.67 72.1002 91.36C71.7202 90.19 71.8002 89.74 72.3402 89.3C72.4602 89.2 72.5802 89.08 72.7102 89C73.1402 88.74 73.7002 89.08 74.1902 89.84C75.5702 92.11 76.5702 94.67 77.6302 97.23C78.4202 99.13 79.1402 101.07 79.8902 103L79.8302 103.03L79.8602 103.04Z" fill="#231F20"/>
<path d="M84.0399 91.67C85.5899 95.81 87.1999 99.93 88.9399 103.99C89.5799 105.47 90.2899 106.91 90.9699 108.36C91.5599 109.62 92.1499 110.87 92.7899 112.08C93.1099 112.68 93.4399 113.28 93.7899 113.84C93.9599 114.14 94.1499 114.37 94.3199 114.63L94.5699 114.93C94.6299 115.01 94.6699 115.02 94.7199 115.08C94.8499 115.15 94.9099 115.16 95.2199 115.16C95.4999 115.15 95.8199 115.12 96.1399 115.05C96.7899 114.93 97.4599 114.76 98.1299 114.55C99.4699 114.14 100.81 113.62 102.13 113.08C104.44 112.12 106.71 110.98 108.9 109.79C110.3 109.01 111.71 108.23 113.11 107.45C114.51 106.66 115.9 105.86 117.42 105.27C118.43 105 118.4 105.19 117.95 106.09C117.73 106.55 117.35 107.1 116.87 107.72C116.36 108.31 115.68 108.87 114.88 109.36C113.45 110.22 112.01 111.07 110.54 111.85C109.06 112.62 107.56 113.35 106.03 114.05C104.5 114.74 102.95 115.39 101.35 115.98C99.7399 116.55 98.1399 117.1 96.2799 117.37C95.9299 117.41 95.5599 117.45 95.1499 117.45C94.7399 117.45 94.1099 117.36 93.6399 117.11C93.3699 116.89 93.0199 116.67 92.8699 116.45C92.6899 116.25 92.5099 116.05 92.3899 115.86C92.0999 115.47 91.8599 115.09 91.6199 114.71C91.1499 113.95 90.7199 113.18 90.2999 112.41C89.4699 110.86 88.7099 109.3 87.9899 107.73C86.1299 103.63 84.4499 99.46 82.8299 95.28C81.8299 92.71 80.8799 90.12 79.9299 87.53C78.4899 83.61 77.1399 79.63 75.7999 75.71C74.7499 72.66 73.6399 69.7 72.6599 66.65C72.4399 65.98 72.2199 65.33 72.0199 64.65C71.3299 62.11 71.3399 61.23 71.7799 60.55C71.8699 60.4 71.9399 60.21 72.0099 60.11C72.2299 59.8 73.0099 60.71 73.6599 62.5C75.5399 67.86 77.4999 73.46 79.4799 79.1C80.9599 83.29 82.4699 87.5 84.0799 91.66L84.0299 91.69L84.0399 91.67Z" fill="#231F20"/>
<path d="M35.02 37.73L33.23 37.52L31.75 37.38C31.75 37.38 31.71 37.38 31.68 37.4L31.47 37.5C31.04 37.72 30.61 38.02 30.16 38.26C29.36 38.69 28.54 39.12 27.72 39.53L25.22 40.72C24.48 41.07 23.75 41.46 23.02 41.82C22.1 42.32 21.09 42.77 19.94 42.66C19.59 42.63 19.62 42.55 19.82 42.25C20.02 41.97 20.3 41.3 20.77 41C21.17 40.65 21.62 40.44 22.07 40.21L23.43 39.5C24.34 39.02 25.27 38.54 26.23 38.1C27.38 37.57 28.47 36.84 29.61 36.19L30.32 35.8L30.7 35.61C30.85 35.52 31.08 35.45 31.27 35.38C31.45 35.38 31.65 35.34 31.81 35.35L32.18 35.37L32.88 35.42L34.25 35.55L36.89 35.84C38.22 35.98 39.55 36.16 40.87 36.24C41.9 36.31 42.92 36.26 43.94 36.26C44.17 36.26 44.38 36.27 44.61 36.3C45.03 36.36 45.3 36.43 45.48 36.56C45.66 36.72 45.75 36.89 45.82 37.12C45.85 37.22 45.89 37.32 45.91 37.42C45.93 37.58 45.85 37.71 45.69 37.85C45.52 37.98 45.27 38.15 44.96 38.18C44.03 38.38 43.09 38.4 42.15 38.36C41.2 38.33 40.25 38.27 39.3 38.18C37.89 38.04 36.46 37.9 35.04 37.76V37.71L35.02 37.73Z" fill="#231F20"/>
<path d="M18.01 110.11C17.59 110.21 9.12997 111.05 9.64997 113.39C10.31 116.34 34.83 117.43 34.83 117.43C34.83 117.43 20.93 114.19 19.63 113.25C18.33 112.31 18.01 110.12 18.01 110.12V110.11Z" fill="#231F20"/>
<path d="M39.2998 117.09C39.2998 117.09 42.7498 117.95 48.8098 117.48C54.1398 117.07 44.4698 115.96 44.4698 115.96L39.2998 117.09Z" fill="#231F20"/>
<path d="M17.05 91.77C17.19 85.53 17.38 79.3 17.6 73.06C17.68 70.79 17.68 68.51 17.78 66.24C17.95 62.39 18.16 58.55 18.41 54.7L18.83 48.93L19.09 46.04L19.24 44.59L19.33 43.78L19.47 42.69L19.69 42.09C19.78 41.91 19.79 41.65 20.02 41.57C20.52 41.3 21.2 41.28 21.88 41.3L22.76 41.33L23.44 41.37L26.12 41.53C27.9 41.64 29.66 41.74 31.42 41.81C33.67 41.94 35.93 42.01 38.19 42.09C40.45 42.17 42.69 42.19 44.95 42.49C46.36 42.84 46.19 42.87 45.01 43.46C44.42 43.77 43.57 44.07 42.54 44.4C41.51 44.68 40.29 44.84 38.97 44.87C35.73 44.9 32.5 44.9 29.29 44.68L24.49 44.35L22.39 44.21C22.39 44.21 22.23 44.15 22.22 44.24L22.2 44.29C22.2 44.29 22.2 44.28 22.16 44.51L22.03 45.55L21.8 47.65C21.66 49.06 21.52 50.48 21.38 51.9C20.85 57.43 20.79 63.24 20.59 68.93C20.37 75.19 20.17 81.46 20.03 87.73C19.94 91.59 19.87 95.45 19.84 99.3V105.93L19.88 109.23L19.92 110.86C19.94 111.12 19.94 111.41 19.97 111.65C20 111.88 19.99 112 20.07 112.15C20.19 112.34 20.34 112.42 20.54 112.56C20.8 112.72 21.08 112.86 21.38 112.99C21.99 113.25 22.65 113.43 23.3 113.61C25.43 114.14 27.63 114.41 29.82 114.59C32.01 114.77 34.21 114.84 36.42 114.86C37.39 114.86 38.34 114.83 39.31 114.82C42.92 114.76 44.03 114.74 44.89 115.46C45.08 115.61 45.34 115.74 45.46 115.87C45.88 116.27 44.42 117.17 41.67 117.36C37.91 117.67 34.07 117.61 30.18 117.25C28.23 117.06 26.27 116.8 24.29 116.39C23.3 116.17 22.3 115.95 21.27 115.62C20.76 115.45 20.23 115.27 19.66 115.02C19.34 114.87 19.17 114.8 18.66 114.44C18.27 114.15 17.96 113.78 17.67 113.4C17.58 113.1 17.48 112.82 17.38 112.52C17.33 112.37 17.33 112.22 17.31 112.07L17.27 111.78L17.17 110.75C17.02 109.13 17 107.56 16.98 105.97L16.96 101.23L17.03 91.78H17.1L17.05 91.77Z" fill="#231F20"/>
<path d="M104.04 59.21C105.35 62.89 106.65 66.57 107.91 70.26C108.37 71.61 108.91 72.93 109.35 74.28C110.94 79.04 112.44 83.82 113.97 88.6C114.65 90.72 115.4 92.82 116.13 94.91C116.59 96.25 117.06 97.59 117.53 98.93C117.97 100.28 118.42 101.63 118.48 103.1C118.48 104.03 118.4 103.93 117.75 103.36C117.43 103.07 116.92 102.68 116.5 102.15C116.28 101.88 116.04 101.6 115.84 101.28C115.66 100.95 115.49 100.59 115.35 100.21C113.27 94.81 111.59 89.28 109.96 83.68C109 80.32 107.68 76.94 106.52 73.58C105.23 69.88 103.95 66.18 102.61 62.49C101.79 60.22 100.96 57.96 100.1 55.7C98.7999 52.29 97.4899 48.86 96.0599 45.53C94.9499 42.94 93.7099 40.47 92.4899 37.96C92.2199 37.41 91.9499 36.87 91.6799 36.32C91.1999 35.28 90.9099 34.58 90.8199 34.04C90.7599 33.49 90.8499 33.11 91.0199 32.76C91.0999 32.6 91.1499 32.42 91.2199 32.31C91.3499 32.13 91.5799 32.22 91.9599 32.51C92.3499 32.79 92.8199 33.3 93.2099 34.05C95.6699 38.43 97.8199 43.26 99.8199 48.16C101.31 51.8 102.7 55.5 104.09 59.19L104.03 59.22L104.04 59.21Z" fill="#231F20"/>
<path d="M23.0302 102.6C23.0302 101.79 23.0702 101 23.1502 100.19L23.2202 99.58L23.3202 98.85C23.4602 98.17 23.6402 97.51 23.9702 96.98C24.0702 96.9 24.1702 96.81 24.2702 96.72L24.3102 96.69V96.68C24.3102 96.68 24.2502 96.59 24.3702 96.76H24.3902L24.4802 96.71L24.6602 96.64C24.9202 96.56 25.1202 96.4 25.4202 96.4L26.3102 96.38C26.5902 96.38 26.6802 96.39 26.8802 96.4C27.6902 96.43 28.4902 96.4 29.2902 96.45C30.7002 96.54 32.1102 96.66 33.5102 96.78L35.6202 96.97L37.8202 97.23C38.1002 97.28 38.3802 97.27 38.6502 97.36C38.9102 97.45 39.1802 97.52 39.4302 97.63C39.6002 97.88 39.7102 98.13 39.8102 98.41C39.8702 98.72 39.9302 99.03 39.9602 99.36C40.0102 99.73 40.0002 99.87 40.0302 100.11L40.0702 100.76C40.1102 101.57 40.1602 102.38 40.1502 103.19C40.1302 103.59 40.1502 104 40.0502 104.41C39.9402 104.81 39.8102 105.22 39.6202 105.61C39.3702 106.1 39.3202 106.02 39.0202 105.58C38.8802 105.36 38.6002 105.06 38.3702 104.7C38.2502 104.52 38.1002 104.33 38.0102 104.13C37.9502 103.93 37.9002 103.72 37.8802 103.49C37.8102 102.65 37.7302 101.8 37.6402 100.97C37.6202 100.76 37.5802 100.56 37.5702 100.35L37.5402 100.05V99.9C37.5402 99.9 37.5302 99.9 37.5302 99.89C37.5302 99.89 37.5602 99.85 37.5602 99.82C37.5602 99.79 37.5602 99.78 37.4402 99.75C37.4102 99.75 37.4102 99.74 37.3502 99.73L37.0702 99.71L36.5202 99.66C35.7802 99.6 35.0302 99.48 34.2802 99.37C32.3502 99.08 30.3102 99.13 28.3202 99.04L26.5902 98.97H26.3302L26.1602 98.94C26.0602 98.94 25.9002 98.89 25.8802 99.04C25.8302 99.12 25.8002 99.21 25.7702 99.31C25.7402 99.42 25.7202 99.46 25.6702 99.76C25.5702 100.23 25.5102 100.73 25.4602 101.22C25.4002 101.87 25.3602 102.52 25.3602 103.17C25.3602 103.8 25.4002 104.55 25.4802 104.77C25.4902 104.82 25.5102 104.87 25.5302 104.92C25.5902 105.04 25.7502 105.03 25.8602 105.07L26.0502 105.11L26.3802 105.17L27.8102 105.38C28.7702 105.51 29.7302 105.62 30.7002 105.69C32.2702 105.81 33.8202 105.78 35.3702 105.76C35.7102 105.76 36.0502 105.73 36.3902 105.74C36.7102 105.74 36.9702 105.75 37.1902 105.78C37.4102 105.81 37.5802 105.89 37.7302 105.95C38.0202 106.08 38.1902 106.27 38.3202 106.54C38.3802 106.66 38.4702 106.77 38.5002 106.88C38.6302 107.23 38.1002 107.63 37.1302 107.84C34.2702 108.14 31.3002 107.96 28.3102 107.64C27.6902 107.57 27.0702 107.5 26.4502 107.41L25.2802 107.23C24.6302 107.18 24.2302 106.81 23.7602 106.52C23.2702 105.81 23.0902 104.61 23.0502 104.22C23.0002 103.67 22.9602 103.14 22.9502 102.62H23.0102L23.0302 102.6Z" fill="#231F20"/>
<path d="M51.49 39.58C51.18 40.42 50.92 42.5 51.3 42.98C51.9 43.73 64.9 44.54 65.38 43.52C65.67 42.9 66.27 40.42 65.59 40.06C65.37 39.94 61.95 39.91 58.52 39.72C55.09 39.53 51.63 39.2 51.48 39.59L51.49 39.58Z" fill="#231F20"/>
<path d="M78.7702 51.91C78.9102 52.79 79.4102 54.35 79.9702 54.57C80.8602 54.93 93.3502 48.82 93.2702 47.69C93.2202 47.01 92.5702 44.85 91.8002 44.86C91.5502 44.86 87.7902 47.11 84.7102 48.62C81.6302 50.13 78.7002 51.49 78.7602 51.9L78.7702 51.91Z" fill="#231F20"/>
<path d="M82.0002 60.01C82.1402 60.89 82.6402 62.45 83.2002 62.67C84.0902 63.03 96.5802 56.92 96.5002 55.79C96.4502 55.11 95.8002 52.95 95.0302 52.96C94.7802 52.96 91.0202 55.21 87.9402 56.72C84.8402 58.24 81.9302 59.59 81.9902 60L82.0002 60.01Z" fill="#231F20"/>
<path d="M50.3598 94.3C50.0498 95.14 50.1798 97.32 50.5598 97.79C51.1598 98.54 66.0498 98.93 66.6798 98.04C67.0698 97.48 67.1398 95.1 66.4598 94.73C66.2498 94.62 62.2198 94.44 58.3598 94.48C54.0598 94.53 50.5098 93.9 50.3598 94.3Z" fill="#231F20"/>
<path d="M50.1899 102.52C49.8799 103.36 49.9599 105.6 50.3399 106.07C50.9399 106.82 65.7899 107.34 66.3599 106.23C66.6699 105.62 66.9899 103.31 66.3199 102.95C66.1099 102.83 62.2499 102.82 58.3599 102.64C54.4699 102.46 50.3399 102.13 50.1899 102.52Z" fill="#231F20"/>
<path d="M22.6801 56.47C22.3701 57.31 22.5001 59.49 22.8801 59.96C23.4801 60.71 40.5901 61.1 41.2201 60.21C41.6101 59.65 41.6801 57.27 41.0001 56.9C40.7901 56.79 35.6501 56.61 31.7901 56.65C27.4901 56.7 22.8301 56.07 22.6801 56.47Z" fill="#231F20"/>
<path d="M22.5102 64.69C22.2002 65.53 22.2802 67.77 22.6602 68.24C23.2602 68.99 40.3302 69.51 40.9002 68.4C41.2102 67.79 41.5302 65.48 40.8602 65.12C40.6502 65 35.6802 64.99 31.7902 64.81C27.9002 64.63 22.6602 64.3 22.5102 64.69Z" fill="#231F20"/>
<path d="M109.8 102.4V102.37C109.8 102.37 109.82 102.36 109.78 102.23C109.73 102.04 109.66 101.84 109.6 101.64C109.47 101.24 109.3 100.84 109.14 100.45C108.96 100.07 108.78 99.68 108.57 99.35C108.52 99.27 108.46 99.17 108.43 99.12C108.43 99.1 108.41 99.08 108.4 99.05C108.37 99 108.34 98.95 108.3 98.9C108.25 98.81 108.15 98.84 108.08 98.88L107.97 98.93L107.64 99.06C105.41 99.91 103.14 100.87 100.96 101.9C100.48 102.13 100 102.38 99.5401 102.65L98.8801 103.07C98.7701 103.14 98.6701 103.22 98.5801 103.3C98.4401 103.4 98.5301 103.61 98.5601 103.74C98.5801 103.81 98.6101 103.89 98.6301 103.94L98.7601 104.38L98.9102 104.83L99.0001 105.31C99.0501 105.64 99.1502 105.95 99.1602 106.29C99.0402 106.78 99.0001 106.83 98.3501 106.76C98.0101 106.73 97.6601 106.59 97.2801 106.39C97.0901 106.29 96.9001 106.16 96.7301 106.02C96.6401 105.94 96.5601 105.86 96.4701 105.78C96.4101 105.69 96.3601 105.59 96.3201 105.48C96.2401 105.29 96.1701 105.1 96.1001 104.9C96.0601 104.79 96.0401 104.72 96.0001 104.58C95.9501 104.4 95.8901 104.24 95.8701 104.06C95.7301 103.38 95.6601 102.64 96.0401 102.09C96.3001 101.51 96.9701 101.12 97.5501 100.81C97.8801 100.63 98.2101 100.47 98.5401 100.31C99.8201 99.63 101.11 99.03 102.46 98.5C103.26 98.19 104.05 97.8 104.84 97.4L106.03 96.8L106.64 96.51L107.04 96.33L107.54 96.12C107.91 95.99 108.29 95.87 108.62 95.95H108.75C108.75 95.95 108.83 96.04 108.9 95.93L109.14 96.05C109.31 96.12 109.46 96.23 109.6 96.35C110.18 96.8 110.72 97.56 110.93 97.94C111.49 98.86 111.89 99.78 112.24 100.75L112.39 101.2L112.46 101.44C112.49 101.54 112.52 101.65 112.55 101.76C112.67 102.2 112.73 102.63 112.65 103.05C112.62 103.26 112.47 103.44 112.38 103.63L111.98 104.14C111.85 104.3 111.64 104.46 111.51 104.58C111.38 104.7 111.25 104.79 111.12 104.89C109.52 106.02 107.83 106.7 106.17 107.45C104.88 108.01 103.62 108.64 102.27 109.1C101.97 109.2 101.69 109.33 101.37 109.4C100.21 109.68 99.7801 109.52 99.4701 108.84C99.4001 108.68 99.3101 108.53 99.2601 108.37C99.1001 107.82 99.4901 107.32 100.21 107.04C102.34 106.17 104.61 105.32 106.76 104.24C108.24 103.54 110.23 102.04 109.74 102.38H109.81L109.8 102.4Z" fill="#231F20"/>
<path d="M70.1799 117.35C67.2299 118.32 64.1999 118.82 61.1699 118.99C58.1399 119.16 55.1199 119.05 52.1199 118.65C50.6199 118.44 49.1399 118.14 47.6499 117.79C47.2799 117.7 46.9099 117.59 46.5399 117.49L45.9799 117.33L45.2999 117.09C45.1499 117.03 44.9699 116.99 44.8399 116.91L44.4699 116.66C44.3899 116.34 44.0599 116.22 44.0499 115.86C44.0099 115.71 43.9699 115.55 43.9499 115.38L43.8999 114.98L43.8399 114.41C43.5799 111.42 43.4599 108.49 43.3299 105.53C43.1799 101.23 42.9999 96.93 42.9299 92.63C42.6999 77.48 42.7699 62.33 43.2599 47.17C43.3799 43.81 43.5099 40.43 43.7099 37.06C43.8099 35.37 43.9299 33.69 44.0999 32C44.1799 31.16 44.2899 30.31 44.4099 29.45C44.5599 28.58 44.6799 27.76 45.0299 26.78L45.2899 26.26C45.3899 26.1 45.5199 25.94 45.6399 25.79C45.9499 25.55 46.2099 25.34 46.4699 25.15C46.7399 24.97 46.9999 24.87 47.2699 24.73C47.8099 24.43 48.3399 24.31 48.8799 24.11C49.9499 23.79 51.0199 23.57 52.0799 23.4C54.2099 23.08 56.3399 22.95 58.4599 22.93C60.5799 22.91 62.7099 23 64.8099 23.29C65.8599 23.43 66.9099 23.63 67.9499 23.83C68.9899 24.09 70.0099 24.4 71.0099 24.8C72.2799 25.37 72.7799 25.71 72.6999 25.8C72.6199 25.91 71.9499 25.8 70.7999 25.82C69.6399 25.83 68.0199 25.98 66.1099 26.02C65.1599 26.05 64.1299 26.09 63.0399 26.13C61.9499 26.13 60.8099 26.11 59.6099 26.1C57.4099 26.07 55.2099 26.16 53.0799 26.43C52.0199 26.56 50.9799 26.76 50.0099 27.01C49.5699 27.16 49.0499 27.29 48.6899 27.48L48.1399 27.74C48.0299 27.84 47.8999 27.93 47.8799 27.93C47.8799 27.95 47.9099 27.84 47.7899 28.19C47.6999 28.49 47.6199 28.82 47.5499 29.18C47.4099 29.9 47.2799 30.66 47.1799 31.43C46.9699 32.98 46.8199 34.57 46.6899 36.16C46.4299 39.35 46.2499 42.57 46.0899 45.79C45.7799 52.24 45.5599 58.73 45.3799 65.24C45.0799 75.77 45.2799 86.73 45.3999 97.51L45.5599 106.39L45.6799 110.82L45.7799 113.03L45.8499 114.12L45.8899 114.66L45.9299 115C45.9399 115.07 45.9399 115.15 45.9799 115.21C46.0399 115.24 46.1099 115.27 46.1799 115.29L46.5299 115.42C46.6899 115.49 46.8699 115.53 47.0399 115.59C47.7199 115.81 48.4099 116 49.1199 116.17C50.5399 116.46 51.9699 116.7 53.4199 116.83C56.3199 117.12 59.2499 117.12 62.1399 116.82C63.9199 116.65 65.6799 116.34 67.3999 115.89C68.2599 115.68 69.0999 115.39 69.9299 115.1C70.3199 114.96 70.7899 114.74 71.0999 114.61C71.1999 114.56 71.3299 114.55 71.3999 114.46C71.4599 114.37 71.4899 114.26 71.5199 114.15C71.5799 113.88 71.6399 113.36 71.6799 112.95C71.7199 112.51 71.7399 112.07 71.7599 111.62C71.7999 110.72 71.8199 109.82 71.8299 108.91C71.8599 107.1 71.8499 105.28 71.8299 103.46C71.6699 92.41 71.5199 81.3 71.3599 70.33C71.2499 61.8 71.0699 53.43 71.0199 44.99C71.0199 43.13 70.9799 41.31 70.9899 39.44C71.0199 35.97 71.0999 33.68 71.2999 32.07C71.5099 30.47 71.8099 29.55 72.2199 28.82C72.4099 28.49 72.5899 28.04 72.7499 27.85C73.0399 27.53 73.2699 28.08 73.4799 29.34C73.6999 30.61 73.8499 32.58 73.8499 35.12C73.8699 42.65 73.8999 50.38 73.9199 58.22C73.9899 66.06 74.0699 74.01 74.1499 81.98C74.2099 87.91 74.2699 93.85 74.3299 99.79C74.3499 102.77 74.3599 105.75 74.2999 108.75C74.2399 110.26 74.1899 111.75 74.0199 113.33C73.9699 113.75 73.9299 114.1 73.8099 114.62C73.6499 115.31 73.3899 116.04 72.7599 116.38C72.6199 116.48 72.4599 116.55 72.2999 116.62L71.8799 116.79L71.3299 117.01C70.9699 117.17 70.5899 117.29 70.2199 117.4L70.1899 117.35H70.1799Z" fill="#231F20"/>
<path d="M99.1202 19.8C99.2602 19.92 99.0902 20.12 98.7902 20.37C98.7002 20.45 98.3801 20.57 98.3101 20.54C98.1801 20.49 98.0402 20.44 97.9302 20.38C97.8402 20.35 97.2401 19.55 97.0201 19.27C96.8001 19.01 96.6501 18.71 96.5201 18.41C96.2401 17.81 96.1002 17.17 95.9302 16.53C95.9002 16.39 95.8902 16.24 95.9102 16.09C95.9902 15.58 95.9201 15.09 95.8101 14.59C95.7901 14.51 95.8001 14.42 95.7001 14.35C95.5101 14.23 95.4101 12.85 95.4901 12.67C95.6601 12.23 95.8401 11.79 96.0201 11.37C96.0501 11.31 96.0202 11.24 96.1402 11.19C96.4202 11.09 96.3902 10.95 96.4302 10.82C96.5102 10.64 96.6001 10.47 96.7401 10.31C96.8301 10.23 97.0002 10.17 97.1202 10.11C97.2402 10.05 97.5002 10.14 97.5402 10.18C97.6202 10.27 97.7802 10.24 97.9002 10.25C97.9402 10.25 98.0002 10.26 98.0302 10.27C98.1102 10.31 98.8601 11.35 98.8101 11.43C98.7901 11.46 98.9802 12.79 99.0102 12.93C99.0302 13.01 98.9702 13.09 98.9302 13.17C98.9002 13.21 99.1202 14.26 99.1202 14.3C99.0902 14.52 99.2001 14.73 98.9901 14.98C98.9501 15.03 98.9602 15.07 98.9702 15.12C99.0402 15.5 98.9901 15.89 98.9901 16.29C98.9901 16.49 99.0502 16.68 99.0802 16.88C99.0802 16.92 99.0602 16.96 99.0502 17C99.0402 17.05 99.0202 17.1 99.0302 17.14C99.1302 17.6 99.0602 18.11 99.2302 18.56C99.2602 18.66 99.1602 19.25 99.2302 19.36C99.2602 19.42 99.0502 19.75 99.1102 19.8H99.1202Z" fill="#231F20"/>
<path d="M102.28 24.73C102.16 24.84 101.99 24.68 101.8 24.39C101.74 24.3 101.67 24 101.7 23.94C101.76 23.83 101.82 23.72 101.88 23.62C101.92 23.58 102.64 23.06 102.9 22.9C103.14 22.73 103.4 22.63 103.65 22.54C104.18 22.36 104.7 22.14 105.24 22C105.36 21.97 105.48 21.96 105.61 21.97C106.05 22.02 106.46 21.93 106.87 21.79C106.94 21.77 107.01 21.76 107.06 21.67C107.14 21.49 108.27 21.28 108.43 21.32C108.82 21.42 109.2 21.44 109.59 21.6C109.65 21.62 109.7 21.59 109.76 21.68C109.9 21.9 110.01 21.85 110.13 21.87C110.29 21.89 110.45 21.92 110.62 21.98C110.7 22.01 110.79 22.11 110.88 22.19C110.96 22.26 110.96 22.53 110.94 22.57C110.88 22.67 110.96 22.79 110.98 22.9C110.98 22.94 111 22.99 111 23.02C111 23.07 110.21 23.82 110.12 23.87C110.11 23.87 109.8 24.05 109.48 24.17C109.15 24.27 108.81 24.38 108.74 24.42C108.67 24.46 108.58 24.42 108.5 24.39C108.46 24.39 107.48 24.73 107.44 24.71C107.22 24.71 107.03 24.82 106.78 24.65C106.73 24.62 106.69 24.63 106.65 24.65C106.29 24.73 105.92 24.71 105.55 24.72C105.36 24.72 105.18 24.78 104.99 24.8C104.96 24.8 104.92 24.78 104.88 24.77C104.83 24.77 104.79 24.74 104.74 24.75C104.3 24.82 103.84 24.79 103.42 24.93C103.32 24.96 102.79 24.85 102.68 24.88C102.62 24.89 102.34 24.68 102.29 24.73H102.28Z" fill="#231F20"/>
</svg>
