<svg width="128" height="128" viewBox="0 0 128 128" fill="none" xmlns="http://www.w3.org/2000/svg">
<path d="M18.3201 38.17C18.7701 37.55 19.3201 36.9 20.0301 36.36C20.7101 35.9 21.3901 35.53 22.0801 35.26C22.5801 35.04 23.0601 34.83 23.5601 34.67C25.3401 34.17 27.1201 33.88 28.8801 33.65C29.6601 33.54 30.4401 33.4 31.2001 33.26C31.6901 33.16 32.1801 33.06 32.6801 33.05C32.9301 33.03 33.1801 33.02 33.4301 33.03C33.6801 33.02 33.9401 33.12 34.2001 33.16C34.5201 33.25 34.5001 33.35 34.2801 33.65C34.1201 33.86 33.9601 34.07 33.8201 34.25C33.6201 34.46 33.3801 34.62 33.1101 34.72C32.1501 35.12 31.1501 35.18 30.1801 35.37C29.2001 35.53 28.2201 35.67 27.2301 35.79C26.0401 35.94 24.8901 36.39 23.7901 36.81C22.6101 37.29 21.4101 37.82 20.7401 38.71C20.2701 39.28 19.8601 39.97 19.4901 40.7C18.9401 41.8 18.4601 42.97 18.1301 44.17C17.8801 45.11 17.7401 46.06 17.5701 47C17.5201 47.2 17.4901 47.41 17.4401 47.61C17.2201 48.37 17.0301 48.58 16.5601 48.67C16.4501 48.69 16.3401 48.73 16.2401 48.73C15.9001 48.76 15.6501 48.37 15.6001 47.74C15.3701 45.86 15.6901 43.97 16.3501 42.15C16.8401 40.79 17.4101 39.45 18.2801 38.14L18.3301 38.17H18.3201Z" fill="#231F20"/>
<path d="M18.1501 92.25C17.5901 91.27 17.1601 90.2 16.9001 89.12C16.8001 88.73 16.6601 88.35 16.5801 87.96C16.3501 86.56 16.2601 85.19 16.2401 83.84C16.2301 83.24 16.1801 82.65 16.1201 82.06C16.0701 81.69 16.0301 81.31 16.0601 80.93C16.0601 80.55 16.1001 80.17 16.2201 79.78C16.2901 79.53 16.3001 79.56 16.4601 79.74C16.5401 79.83 16.6801 79.95 16.8501 80.11C17.0001 80.26 17.1301 80.45 17.2201 80.66C17.6001 81.4 17.6301 82.17 17.7801 82.92C17.9001 83.68 17.9901 84.42 17.9901 85.19C18.0101 86.1 18.3001 86.99 18.5401 87.85C18.7901 88.81 19.1601 89.7 19.5701 90.6C19.8401 91.15 20.1301 91.69 20.4801 92.19C21.0101 92.95 21.6001 93.7 22.3101 94.3C22.8501 94.78 23.5201 95.07 24.1001 95.46L24.5001 95.7C24.9801 96.03 25.0801 96.22 25.0201 96.63C25.0101 96.72 25.0001 96.82 24.9801 96.9C24.9101 97.18 24.5601 97.3 24.0701 97.21C23.3701 97.03 22.6001 96.85 21.9801 96.42C21.3401 96.02 20.7601 95.52 20.2201 94.98C19.4101 94.18 18.7201 93.26 18.1301 92.28L18.1701 92.25H18.1501Z" fill="#231F20"/>
<path d="M98.8101 92.31L99.1601 91.6901C99.2601 91.5101 99.3701 91.3501 99.4601 91.1601C99.6501 90.7901 99.8201 90.3901 99.9701 89.9701C100.08 89.6701 100.11 89.3401 100.22 89.0301C100.58 87.9201 100.84 86.7501 101.12 85.5701C101.24 85.0501 101.3 84.5101 101.36 83.9801C101.4 83.6401 101.45 83.3001 101.56 82.9601C101.69 82.6301 101.85 82.3001 101.96 81.9601C102.04 81.7501 102.08 81.7901 102.17 81.9801C102.24 82.1201 102.31 82.26 102.37 82.38C102.46 82.54 102.59 82.7401 102.68 82.9401C102.77 83.1201 102.81 83.3001 102.83 83.4801C102.86 83.6601 102.9 83.8401 102.91 84.0101C102.91 84.3601 102.91 84.7201 102.91 85.0701C102.89 85.7801 102.82 86.4901 102.6 87.1901C102.36 88.0301 102.33 88.93 102.13 89.81C101.9 90.77 101.6 91.7401 101.14 92.6901L100.31 94.2601C99.9001 95.0701 99.1901 96.0001 98.2401 96.5001C97.5201 96.9001 96.7901 97.16 96.0701 97.31C95.9101 97.34 95.7601 97.3901 95.6001 97.3901C95.0001 97.4001 94.8201 97.2401 94.6901 96.7201C94.6601 96.6001 94.6301 96.4801 94.6101 96.3701C94.5601 95.9701 94.7801 95.63 95.1501 95.45C95.7001 95.16 96.2401 95 96.6601 94.77C97.0901 94.55 97.3701 94.4401 97.5801 94.2101C97.9201 93.9201 98.3501 93.1501 98.7701 92.2901L98.8201 92.31H98.8101Z" fill="#231F20"/>
<path d="M99.64 34.3101C100.04 34.7401 100.37 35.2201 100.66 35.7101C100.76 35.8901 100.91 36.0401 100.99 36.2301C101.33 36.8801 101.43 37.6201 101.57 38.2901C101.64 38.5901 101.67 38.9001 101.73 39.1901C101.8 39.5701 101.85 39.9501 101.8 40.3401C101.79 40.4601 101.67 40.4601 101.52 40.3901C101.37 40.3201 101.15 40.1801 101.04 39.9901C100.86 39.6601 100.68 39.3401 100.5 39.0101C100.33 38.6901 100.26 38.3501 100.17 38.0001C100.06 37.5801 99.79 37.2301 99.59 36.8601C99.36 36.4501 99.1 36.0601 98.79 35.7001C98.6 35.4801 98.4 35.2601 98.17 35.0801C97.83 34.7901 97.46 34.5301 97.05 34.3301C96.74 34.1601 96.37 34.1501 96.06 34.0001C95.99 33.9801 95.91 33.9601 95.84 33.9301C95.58 33.8101 95.52 33.6901 95.52 33.4101C95.52 33.3501 95.52 33.2901 95.52 33.2301C95.54 33.0401 95.7 32.9001 95.96 32.8601C96.73 32.6701 97.55 32.8001 98.24 33.1901C98.75 33.4901 99.22 33.8701 99.63 34.2901L99.6 34.3201L99.64 34.3101Z" fill="#231F20"/>
<path d="M47.9502 111.88C47.9502 111.88 52.2902 105.85 58.6702 106.04C63.1202 106.17 68.0902 110.35 68.6602 112.46C68.9902 113.69 47.9602 111.88 47.9602 111.88H47.9502Z" fill="#231F20"/>
<path d="M58.4802 100.45V99.55L58.4502 99.16C58.4502 99.1 58.4202 99.07 58.4702 99.05C58.7602 98.98 59.1202 98.78 59.2802 98.72C59.3802 98.66 59.4702 98.5799 59.5002 98.5699C59.5402 98.4999 59.5302 98.5199 59.5402 98.5199L59.3902 98.58C59.3902 98.58 59.4702 98.5399 59.4702 98.4899C59.4702 98.4799 59.4902 98.5399 59.5102 98.5199C59.5602 98.5699 59.6402 98.6199 59.7102 98.6399C59.7802 98.6599 59.8502 98.66 60.0002 98.72C60.1202 98.76 60.2502 98.7899 60.3802 98.8199L60.5702 98.8499C60.5702 98.8499 60.5702 98.8499 60.5902 98.8499V98.8899C60.5602 98.9499 60.5402 99.05 60.5202 99.15C60.4802 99.43 60.5202 99.7499 60.4802 100.06C60.3602 101.2 60.2502 102.35 60.1302 103.49C60.0802 104 60.0902 104.52 60.0902 105.03C60.0902 105.36 60.0402 105.69 59.9802 106.03C59.9302 106.2 59.9302 106.37 59.8202 106.53C59.7202 106.69 59.5902 106.86 59.4402 107C59.2202 107.17 59.3202 107.15 59.2302 106.96C59.1802 106.86 59.0302 106.72 58.8602 106.57C58.7802 106.49 58.6602 106.41 58.5902 106.33C58.5402 106.25 58.4902 106.16 58.4602 106.08C58.3702 105.77 58.2302 105.45 58.1602 105.13C58.1402 104.81 58.1202 104.49 58.1202 104.16C58.1102 103.51 58.1202 102.85 58.2302 102.18C58.3802 101.38 58.2602 100.55 58.3002 99.6999C58.3102 99.4699 58.3302 99.24 58.3502 98.98C58.3602 98.85 58.3802 98.7299 58.4102 98.5599C58.4102 98.4999 58.4502 98.3599 58.4902 98.2499C58.5102 98.1899 58.5502 98.11 58.5802 98.04L58.6402 97.94L58.6702 97.8899C58.6702 97.8899 58.7502 97.7899 58.8102 97.7499C59.4502 97.2799 59.9302 97.56 60.2202 97.83L59.0402 97.65C59.1702 97.58 59.3502 97.5199 59.5302 97.5199C59.7002 97.5199 59.9102 97.58 59.9502 97.61C60.1002 97.68 60.2502 97.8099 60.3402 97.9199C60.4002 97.9999 60.4702 98.14 60.4902 98.19C60.5402 98.31 60.5602 98.41 60.5802 98.48C60.6202 98.64 60.6402 98.77 60.6502 98.9C60.6802 99.15 60.7002 99.3899 60.7202 99.6299C60.7602 100.21 60.7702 100.77 60.7902 101.33C60.8202 102.18 60.7902 103.03 60.8502 103.87C60.9002 104.52 61.0702 105.17 61.1702 105.83C61.1902 105.98 61.2302 106.12 61.2402 106.27C61.2402 106.82 61.0002 106.99 60.4002 107.06C60.2602 107.08 60.1202 107.1 59.9802 107.1C59.5202 107.11 59.1402 106.87 58.9602 106.5C58.5402 105.4 58.5202 104.25 58.4802 103.07C58.4602 102.2 58.4802 101.32 58.4302 100.47H58.4902L58.4802 100.45Z" fill="#231F20"/>
<path d="M48.4898 57.66C45.2998 59.99 42.2998 62.67 39.4498 65.4C39.1298 65.7 38.7398 66.03 38.5198 66.41C37.9798 67.35 38.5998 68.19 39.3598 68.71C40.6898 69.63 42.2498 70.28 43.6998 70.99C45.7498 71.98 47.8098 72.93 49.8398 73.95C50.5298 74.3 51.3798 74.13 51.7898 73.44C52.1598 72.81 51.9698 71.84 51.2798 71.49C48.0998 69.88 44.7998 68.5 41.6798 66.77C41.4398 66.64 41.1998 66.5 40.9598 66.35C40.8898 66.3 40.7998 66.22 40.7198 66.19C40.6998 66.19 40.9898 66.45 40.8098 66.24L40.9998 66.48C41.2798 67.08 41.2398 67.57 40.8998 67.96C40.8598 68.15 40.7498 68.11 40.8398 68.05C40.8898 68.01 40.9298 67.95 40.9698 67.91C41.1298 67.76 41.2798 67.6 41.4398 67.45C42.6498 66.28 43.9098 65.16 45.1798 64.05C46.0298 63.31 46.8898 62.57 47.7498 61.85C48.5598 61.18 49.1898 60.66 49.9398 60.12C50.5598 59.67 50.8698 58.88 50.4498 58.17C50.0898 57.56 49.1198 57.2 48.4998 57.66H48.4898Z" fill="#231F20"/>
<path d="M54.23 81C58.59 72.29 63.21 63.7199 67.67 55.07C68.51 53.44 66.05 52 65.21 53.63C60.75 62.28 56.13 70.8499 51.77 79.5599C50.95 81.1999 53.41 82.6399 54.23 81Z" fill="#231F20"/>
<path d="M71.3998 61.37C73.0898 62.74 74.7598 64.1301 76.4098 65.5501C77.1798 66.2201 77.9498 66.8901 78.6998 67.5801C78.9398 67.8101 79.1898 68.04 79.4198 68.28C79.4998 68.36 79.5698 68.4701 79.6598 68.5401C79.8098 68.6601 79.4698 68.26 79.5398 68.39C79.4498 68.23 79.3198 67.6801 79.4298 67.4101L79.7998 66.78C80.0798 66.54 79.4498 66.9001 79.3798 66.9401C79.1798 67.0501 78.9798 67.1501 78.7698 67.2601C78.3198 67.4901 77.8698 67.72 77.4198 67.95C76.5298 68.4 75.6298 68.84 74.7298 69.28C72.7998 70.22 70.8798 71.1601 68.9798 72.1601C67.3498 73.0101 68.7898 75.4701 70.4198 74.6201C72.6098 73.4801 74.8298 72.4 77.0398 71.32C78.0698 70.82 79.0898 70.31 80.0998 69.78C81.0498 69.28 82.5298 68.75 82.1698 67.39C81.9498 66.56 81.0398 65.89 80.4398 65.34C79.3598 64.35 78.2398 63.4001 77.1198 62.4501C75.8898 61.4101 74.6498 60.3801 73.3998 59.3601C72.7998 58.8801 71.9698 58.7801 71.3798 59.3601C70.8798 59.8601 70.7798 60.8901 71.3798 61.3801L71.3998 61.37Z" fill="#231F20"/>
<path d="M87.99 58.21C87.84 58.21 87.88 57.94 88.03 57.92C89.61 57.74 94.22 57.67 95.73 54.13C97.15 50.82 97.74 46.37 97.74 46.37C97.74 46.37 97.28 51.6 100.19 55.53C101.44 57.21 104.54 57.66 107.28 57.93C107.28 57.93 97.58 58.32 97.58 69.44C97.58 69.44 97.58 58.58 87.98 58.22L87.99 58.21Z" fill="#231F20"/>
<path d="M107.56 38.92C107.44 38.92 107.47 38.71 107.59 38.7C108.83 38.56 112.44 38.5 113.63 35.72C114.74 33.12 115.21 29.63 115.21 29.63C115.21 29.63 114.85 33.74 117.13 36.81C118.11 38.13 120.54 38.48 122.69 38.69C122.69 38.69 115.08 39 115.08 47.72C115.08 47.72 115.08 39.2 107.55 38.91L107.56 38.92Z" fill="#231F20"/>
<path d="M105.85 71.46C105.74 71.46 105.77 71.27 105.88 71.25C107.03 71.12 110.38 71.07 111.48 68.49C112.51 66.08 112.94 62.85 112.94 62.85C112.94 62.85 112.6 66.65 114.72 69.51C115.63 70.73 117.88 71.06 119.87 71.25C119.87 71.25 112.82 71.54 112.82 79.62C112.82 79.62 112.82 71.73 105.84 71.46H105.85Z" fill="#231F20"/>
<path d="M18.6301 40.96C18.0301 43.95 17.7601 47.15 17.5401 50.31C17.3401 53.49 17.2401 56.68 17.1901 59.88C17.1101 66.28 17.2401 72.7 17.6101 79.09C17.7501 81.42 17.9401 83.75 18.1901 86.05C18.3201 87.2 18.4601 88.35 18.6301 89.48C18.8001 90.59 19.0101 91.75 19.2901 92.66L19.3801 92.94C19.3801 92.94 19.4201 93.01 19.4301 93.05C19.4801 93.13 19.4901 93.16 19.6201 93.26C19.8201 93.44 20.2101 93.65 20.6001 93.83C21.4101 94.18 22.3501 94.47 23.3001 94.7C25.2201 95.16 27.2301 95.49 29.2601 95.74C33.3101 96.25 37.4201 96.54 41.5401 96.75C49.7801 97.14 58.0501 97.19 66.3101 97.02C73.6401 96.85 81.0201 96.46 88.2401 95.78C90.5601 95.55 92.8801 95.28 95.1501 94.91C96.2801 94.72 97.4201 94.5 98.4401 94.2C99.0101 94 99.1501 93.98 99.2501 93.75C99.2501 93.73 99.4101 93.41 99.4701 93.18C99.5601 92.94 99.6301 92.68 99.7001 92.41C100.28 90.26 100.56 87.92 100.92 85.64C101.28 83.34 101.49 81.02 101.77 78.71C102.06 77.27 102.08 76.64 102.12 76.67C102.16 76.71 102.24 77.41 102.5 78.66C102.77 79.91 102.93 81.69 103.08 83.85C103.14 84.93 103.21 86.11 103.19 87.36C103.14 88.61 103.04 89.94 102.83 91.33C102.72 91.95 102.63 92.57 102.47 93.22C102.41 93.53 102.31 93.87 102.2 94.22C102.14 94.4 102.11 94.54 102.03 94.75C101.94 94.93 101.78 95.31 101.64 95.56C101.27 96 100.85 96.43 100.29 96.66C99.9801 96.81 99.8401 96.85 99.6601 96.92C99.4801 96.99 99.3101 97.04 99.1501 97.09C98.4801 97.29 97.8601 97.43 97.2401 97.56C94.7701 98.06 92.3801 98.35 89.9601 98.63C85.1401 99.14 80.3401 99.51 75.5301 99.71C65.9001 100.11 56.2501 100.16 46.5601 99.76C40.7601 99.51 34.8501 99.24 28.8801 98.54C27.3901 98.36 25.8901 98.15 24.3901 97.87C22.8901 97.58 21.3901 97.26 19.8401 96.66C19.0701 96.34 18.2801 96.04 17.4601 95.25C17.2601 95.03 17.0401 94.8 16.9201 94.53C16.7701 94.27 16.6401 93.99 16.5901 93.8C16.4301 93.37 16.3201 92.97 16.2401 92.58C15.8801 91.03 15.6801 89.54 15.4901 88.05C14.7501 81.51 14.4901 75 14.3501 68.48C14.2401 61.96 14.3001 55.44 14.7601 48.91C14.9201 46.82 15.1101 44.72 15.4201 42.62C15.5801 41.57 15.7701 40.52 16.0101 39.46C16.2901 38.39 16.5401 37.36 17.1501 36.23C17.3501 35.93 17.5801 35.64 17.8501 35.43C18.1101 35.21 18.3501 35.08 18.6001 34.93C19.1001 34.67 19.5901 34.46 20.0701 34.3C21.0401 33.97 22.0101 33.73 22.9701 33.53C24.9001 33.13 26.8201 32.89 28.7401 32.67C34.8101 32.02 40.8901 31.8 46.9601 31.65C53.0301 31.51 59.0801 31.51 65.0901 31.53C74.4401 31.59 83.6001 31.62 92.8701 32.09C94.9201 32.21 96.9001 32.29 99.0301 32.58L99.4001 32.64C99.5301 32.66 99.6301 32.67 99.8401 32.72C100.02 32.77 100.2 32.81 100.38 32.85C100.55 32.92 100.71 32.98 100.87 33.06C101.46 33.45 101.84 34.05 102.07 34.66C102.42 35.66 102.52 36.36 102.63 37.07C102.82 38.45 102.85 39.54 102.85 40.44C102.82 42.24 102.59 43.28 102.2 44.1C102.03 44.47 101.83 44.97 101.64 45.17C101.31 45.49 101.11 44.93 100.88 43.58C100.64 42.24 100.45 40.08 99.9801 37.48C99.8201 36.57 99.4901 35.44 99.3701 35.5C99.3301 35.45 99.2501 35.45 99.1901 35.44L98.7101 35.37C98.2301 35.31 97.7301 35.26 97.2201 35.21C95.1901 35.04 93.1001 34.93 91.0101 34.84C86.8101 34.65 82.5601 34.53 78.2801 34.43C69.7101 34.24 61.0201 34.13 52.3201 34.29C46.5301 34.4 40.7301 34.58 34.9701 34.98C32.0901 35.19 29.2201 35.45 26.4201 35.86C25.0201 36.07 23.6301 36.32 22.3301 36.65C21.6901 36.82 21.0401 37.01 20.5201 37.23C20.3801 37.28 20.2601 37.34 20.1501 37.4C20.0201 37.46 19.9301 37.51 19.8501 37.57C19.6301 37.7 19.7101 37.7 19.6701 37.7C19.6101 37.86 19.4701 38.09 19.3901 38.33L19.1201 39.14C18.9701 39.73 18.8101 40.32 18.6901 40.95H18.6201L18.6301 40.96Z" fill="#231F20"/>
<path d="M53.1198 114.03L52.0498 113.99C51.5198 113.97 50.9098 113.94 50.3598 113.88C49.8098 113.81 49.2498 113.76 48.8198 113.61C48.3798 113.47 48.0898 113.26 47.8698 113.04C46.7698 112.08 47.8198 110.24 49.2698 108.77L50.0798 107.96C50.3298 107.74 50.4598 107.61 50.6598 107.45C51.0398 107.14 51.4398 106.85 51.8698 106.6C52.6298 106.15 53.4298 105.79 54.3498 105.52C55.2598 105.28 56.0798 105.2 56.8998 105.13C57.7098 105.07 58.4998 105.04 59.2798 105.01C60.0098 104.97 60.9398 104.94 61.7698 105.01C63.2698 105.14 64.7098 105.53 66.0598 106.09C66.9298 106.44 67.7798 106.87 68.5298 107.45C68.9098 107.74 69.2598 108.06 69.5898 108.42C69.9198 108.77 70.1398 109.23 70.3498 109.67C70.5698 110.25 70.3698 110.23 69.8398 110.06C69.5798 109.97 69.2098 109.89 68.7798 109.82C68.3698 109.73 67.9698 109.59 67.5698 109.4C66.1298 108.75 64.6198 108.19 63.0698 107.98C62.2998 107.86 61.5498 107.71 60.7898 107.7H60.2098H59.5298H58.1898C57.1398 107.71 56.0598 107.83 55.2098 108.1C54.3798 108.38 53.5098 108.93 52.7198 109.51L52.0698 110.01C51.9798 110.08 51.8998 110.14 51.8098 110.22C51.6398 110.37 51.4598 110.53 51.2998 110.74C51.2198 110.84 51.1298 110.95 51.0998 111.08C51.1498 111.19 51.2898 111.18 51.3898 111.22C51.6098 111.27 51.8598 111.31 52.1198 111.34L52.7898 111.41L53.8998 111.51C54.6398 111.58 55.3898 111.6 56.1298 111.63C58.3898 111.7 60.6698 111.77 62.9098 111.7C64.6598 111.65 66.3598 111.43 68.0798 111.25C68.4598 111.21 68.8298 111.15 69.2098 111.12C70.6198 111.01 71.0698 111.14 71.4198 111.79C71.4998 111.93 71.5998 112.07 71.6498 112.22C71.8198 112.69 71.2698 113.2 70.2198 113.4C67.1198 114.02 63.8298 114.17 60.5298 114.21C58.0798 114.26 55.6198 114.12 53.1398 114.11V114.04L53.1198 114.03Z" fill="#231F20"/>
<path d="M5.5498 26.56C5.3898 26.61 5.3298 26.4 5.2998 26.07C5.2998 25.96 5.3698 25.67 5.4198 25.63C5.5198 25.56 5.6098 25.49 5.7098 25.45C5.7698 25.43 6.5698 25.39 6.8498 25.35C7.1198 25.31 7.3798 25.33 7.6298 25.36C8.1498 25.41 8.6598 25.47 9.1698 25.57C9.2798 25.59 9.3898 25.63 9.4898 25.69C9.8398 25.9 10.2198 25.99 10.6198 26.03C10.6898 26.03 10.7498 26.06 10.8298 26C10.9598 25.91 12.0098 26.1 12.1298 26.19C12.4198 26.43 12.7298 26.61 13.0398 26.81C13.0798 26.84 13.1398 26.83 13.1598 26.92C13.2098 27.14 13.3198 27.14 13.4198 27.18C13.5598 27.24 13.6898 27.31 13.8198 27.41C13.8798 27.46 13.9198 27.59 13.9698 27.69C14.0098 27.79 13.9098 28.06 13.8798 28.09C13.7898 28.17 13.8098 28.31 13.7898 28.44C13.7898 28.48 13.7698 28.53 13.7598 28.57C13.7398 28.64 12.7898 28.96 12.6998 28.94C12.6798 28.94 11.4698 28.86 11.2898 28.85C11.2098 28.85 11.1598 28.78 11.0898 28.73C11.0598 28.71 10.0698 28.6 10.0298 28.58C9.8398 28.5 9.6198 28.52 9.4698 28.29C9.4398 28.25 9.3998 28.24 9.3598 28.24C9.0198 28.17 8.6898 28.01 8.3698 27.87C8.1998 27.8 8.0198 27.77 7.8498 27.72C7.8198 27.72 7.7898 27.68 7.7698 27.66C7.7298 27.63 7.6998 27.6 7.6598 27.59C7.2498 27.47 6.8698 27.25 6.4498 27.17C6.3498 27.15 5.9498 26.84 5.8398 26.83C5.7798 26.82 5.6298 26.54 5.5698 26.56H5.5498Z" fill="#231F20"/>
<path d="M20.15 26.18C20.28 26.34 20.09 26.53 19.74 26.74C19.63 26.81 19.26 26.88 19.2 26.84C19.07 26.76 18.95 26.67 18.85 26.58C18.79 26.53 18.31 25.52 18.14 25.17C17.97 24.83 17.87 24.48 17.8 24.12C17.64 23.4 17.52 22.66 17.5 21.92C17.5 21.76 17.5 21.59 17.56 21.43C17.73 20.87 17.75 20.32 17.73 19.75C17.73 19.66 17.75 19.56 17.66 19.46C17.5 19.29 17.66 17.75 17.77 17.57C17.9 17.34 18.02 17.12 18.13 16.89C18.26 16.67 18.39 16.46 18.53 16.23C18.57 16.17 18.55 16.09 18.69 16.06C19 15.99 18.99 15.84 19.06 15.7C19.14 15.51 19.25 15.33 19.41 15.16C19.5 15.08 19.69 15.04 19.83 14.99C19.97 14.94 20.3 15.11 20.33 15.15C20.42 15.27 20.61 15.26 20.76 15.3C20.81 15.31 20.88 15.33 20.92 15.35C21.03 15.41 21.42 16.65 21.4 16.75C21.4 16.75 21.38 16.86 21.37 17.01C21.36 17.16 21.35 17.36 21.33 17.57C21.3 17.98 21.25 18.4 21.26 18.49C21.26 18.58 21.18 18.66 21.13 18.74C21.09 18.78 21.09 20.01 21.08 20.05C21.01 20.3 21.08 20.55 20.82 20.79C20.77 20.84 20.78 20.89 20.77 20.94C20.77 21.38 20.64 21.81 20.57 22.25C20.53 22.48 20.57 22.7 20.55 22.93C20.55 22.97 20.52 23.01 20.5 23.05C20.48 23.1 20.45 23.15 20.45 23.21C20.45 23.74 20.33 24.3 20.43 24.83C20.44 24.95 20.28 25.58 20.32 25.72C20.33 25.8 20.09 26.11 20.15 26.18Z" fill="#231F20"/>
<path d="M6.03014 36.7C5.98014 36.84 5.75014 36.76 5.47014 36.63C5.38014 36.59 5.18014 36.4 5.17014 36.33C5.16014 36.21 5.14014 36.08 5.14014 35.96C5.14014 35.93 5.19014 35.68 5.31014 35.44C5.42014 35.2 5.58014 34.97 5.66014 34.84C5.80014 34.59 6.00014 34.4 6.21014 34.22C6.64014 33.86 7.07014 33.5 7.55014 33.2C7.65014 33.13 7.77014 33.08 7.90014 33.06C8.33014 32.97 8.71014 32.79 9.09014 32.59C9.15014 32.56 9.22014 32.54 9.26014 32.44C9.31014 32.26 10.4201 31.87 10.5901 31.9C10.9901 31.93 11.3801 31.99 11.7601 32.06C11.8101 32.06 11.8701 32.04 11.9301 32.13C12.0701 32.33 12.1801 32.29 12.2901 32.31C12.4501 32.32 12.6001 32.36 12.7601 32.42C12.8401 32.45 12.9201 32.56 13.0001 32.63C13.0701 32.7 13.0501 32.97 13.0301 33C12.9701 33.09 13.0301 33.21 13.0401 33.32C13.0401 33.36 13.0401 33.41 13.0401 33.44C13.0201 33.49 12.3201 34.16 12.2601 34.21C12.2401 34.21 11.2801 34.65 11.1301 34.72C11.0801 34.76 11.0001 34.72 10.9301 34.71C10.8901 34.69 10.1401 35.11 10.1101 35.13C9.93014 35.16 9.81014 35.3 9.57014 35.2C9.52014 35.18 9.49014 35.2 9.46014 35.22C9.19014 35.36 8.88014 35.42 8.58014 35.52C8.43014 35.57 8.30014 35.67 8.16014 35.74C8.13014 35.75 8.10014 35.74 8.06014 35.74C8.02014 35.74 7.98014 35.74 7.95014 35.77C7.64014 35.98 7.26014 36.12 7.01014 36.4C6.94014 36.45 6.51014 36.59 6.43014 36.66C6.39014 36.7 6.05014 36.62 6.03014 36.68V36.7Z" fill="#231F20"/>
</svg>
