<svg width="128" height="128" viewBox="0 0 128 128" fill="none" xmlns="http://www.w3.org/2000/svg">
<path d="M38.7802 76.38C38.2902 75.65 37.8002 74.92 37.3102 74.19C37.1302 73.93 36.9002 73.7 36.7302 73.43C36.1102 72.49 35.5902 71.48 35.0102 70.51C34.7502 70.08 34.4602 69.68 34.1602 69.3C33.8202 68.77 33.5002 68.22 33.2802 67.6C33.2102 67.41 33.3502 67.34 33.6002 67.36C33.8502 67.38 34.2802 67.44 34.5902 67.65L35.3902 68.23C35.6402 68.44 35.8302 68.69 36.0402 68.92C36.4502 69.4 36.8402 69.9 37.1802 70.45C37.5902 71.1 38.1702 71.65 38.6702 72.25L40.2802 74.26C40.6102 74.67 40.9402 75.09 41.2902 75.48C41.8102 76.09 42.3402 76.7 42.8902 77.27C43.3202 77.71 43.9002 78 44.3402 78.41C44.4402 78.5 44.5502 78.57 44.6502 78.67C44.9702 79.06 44.9102 79.35 44.6502 79.78C44.5902 79.88 44.5302 79.98 44.4702 80.07C44.2502 80.36 43.8702 80.46 43.4202 80.39C42.1602 80.09 41.2502 79.31 40.3902 78.5C39.8102 77.83 39.2902 77.11 38.7502 76.41L38.8002 76.37L38.7802 76.38Z" fill="#231F20"/>
<path d="M28.1899 80.92C28.1899 80.92 12.0899 74.25 15.2799 65.62C16.9799 61.03 25.9399 60.63 25.2699 56.66C25.2699 56.66 25.1999 57.74 22.7199 58.92C20.2499 60.1 16.9299 58.81 14.8499 60.4C12.7799 61.99 10.5199 61.34 10.7299 66.02C10.9399 70.7 13.7299 73.58 16.1999 76.06C18.6699 78.54 28.1799 80.91 28.1799 80.91L28.1899 80.92Z" fill="#231F20"/>
<path d="M22.5701 48.35C22.5701 48.05 25.4701 43.22 30.1601 45.95C34.1501 48.27 36.9501 46.33 38.2501 44.55C38.2501 44.55 36.6101 45.08 34.2601 44.87C31.7601 44.65 26.1001 41.05 23.4701 42.2C20.8401 43.35 22.5701 48.34 22.5701 48.34V48.35Z" fill="#231F20"/>
<path d="M50.5801 37.96C50.5801 37.96 44.1401 33.48 41.8401 38.02C39.9701 41.73 39.4401 45.16 35.9001 45.89C33.2601 46.43 37.8601 44.6 38.2401 41.98C38.6201 39.36 38.8701 35.31 40.4801 34.3C44.5201 31.77 47.5501 34.84 47.5501 34.84L50.5801 37.96Z" fill="#231F20"/>
<path d="M69.1898 64.65C68.9098 63.86 68.5798 63.1 68.3298 62.3C68.2298 62.01 68.0598 61.76 67.9698 61.46C67.6398 60.43 67.3298 59.39 66.9498 58.38C66.7698 57.94 66.5598 57.51 66.3998 57.07C66.1598 56.52 65.9198 55.96 65.8198 55.33C65.7898 55.13 65.9598 55.07 66.2398 55.11C66.5098 55.15 66.9398 55.25 67.1998 55.51C67.6398 55.97 68.1198 56.4 68.4598 56.91C68.7598 57.44 69.0298 57.99 69.2298 58.58C69.4698 59.29 69.9798 59.89 70.3498 60.54L70.9398 61.64L71.4598 62.78L72.0998 64.18C72.4298 64.88 72.7598 65.59 73.1298 66.27C73.4098 66.8 73.8698 67.22 74.1598 67.74C74.2298 67.85 74.3198 67.95 74.3698 68.07C74.5698 68.52 74.4798 68.74 73.9898 69.11C73.8798 69.19 73.7698 69.28 73.6598 69.36C73.2798 69.61 72.8398 69.61 72.4998 69.39C71.4598 68.75 70.6798 67.92 70.1598 66.94C69.7898 66.21 69.4698 65.43 69.1198 64.67L69.1798 64.63L69.1898 64.65Z" fill="#231F20"/>
<path d="M75.9401 65.41C76.5201 65.17 77.1001 64.94 77.6701 64.68C77.8801 64.59 78.0401 64.42 78.2501 64.33C79.0101 64.05 79.8001 63.8 80.5401 63.47C80.8701 63.33 81.1501 63.11 81.4501 62.92C81.8301 62.68 82.2001 62.42 82.7001 62.35C82.8601 62.33 83.0401 62.61 83.1701 62.99C83.2901 63.36 83.3701 63.85 83.2201 64.1C82.7001 65 81.8701 65.46 80.9601 65.79C80.4001 65.96 80.0101 66.44 79.4901 66.71C78.9301 67.01 78.3501 67.29 77.7801 67.57C77.4301 67.74 77.0801 67.92 76.7301 68.09C76.2101 68.37 75.6601 68.6 75.1801 68.95C74.8101 69.22 74.5001 69.57 74.1301 69.85C74.0401 69.9 73.9701 69.97 73.8701 70C73.5201 70.13 73.3101 70 72.9701 69.57C72.8901 69.47 72.8101 69.38 72.7501 69.28C72.5301 68.96 72.4701 68.55 72.5901 68.22C72.9001 67.18 73.5201 66.62 74.2501 66.23C74.7801 65.92 75.3601 65.66 75.9101 65.38L75.9501 65.44L75.9401 65.41Z" fill="#231F20"/>
<path d="M22.6301 45.31C22.6701 46.27 23.0901 47.51 23.5701 48.71C24.0801 49.92 24.5501 51.22 25.0101 52.6C25.2301 53.3 25.4501 54.02 25.5901 54.84C25.6501 55.26 25.7101 55.69 25.6801 56.2C25.6801 56.66 25.5401 57.32 25.2801 57.82C24.8601 58.71 24.1201 59.43 23.3501 59.91C22.5801 60.4 21.7901 60.67 21.0501 60.86C19.9601 61.15 18.9301 61.31 17.9601 61.49C17.0001 61.66 16.0801 61.87 15.4701 62.16C14.9101 62.48 14.1801 62.91 13.7401 63.4C13.2201 63.87 12.9101 64.44 12.6801 65.02C12.2701 66.22 12.5901 67.72 13.2201 69.14C13.8601 70.58 14.8301 71.95 15.9401 73.2C17.0701 74.46 18.3001 75.54 19.7301 76.51C22.2301 78.23 25.0301 79.56 27.9201 80.44C29.7801 80.99 31.6701 81.43 33.5901 81.73C34.5501 81.89 35.5101 81.99 36.4801 82.1C36.9601 82.16 37.4501 82.23 37.9401 82.26C38.4301 82.32 38.9201 82.5 39.4201 82.57C40.6701 82.86 40.5201 82.79 39.4801 83.27C38.4601 83.85 36.4201 84.82 33.9801 84.6C32.9101 84.53 31.8301 84.42 30.7601 84.26C30.2301 84.17 29.6901 84.09 29.1601 83.98C28.6401 83.84 28.1101 83.72 27.6001 83.55C25.5301 82.93 23.5101 82.12 21.5901 81.12C19.6601 80.11 17.8701 78.95 16.1401 77.54C14.4201 76.1 12.9601 74.43 11.7501 72.53C11.0601 71.37 10.3601 70.17 9.99012 68.74C9.60012 67.34 9.46012 65.73 9.95012 64.17C10.4201 62.58 11.5801 61.4 12.7301 60.52C13.3401 60.13 13.9001 59.69 14.6901 59.41C15.4201 59.13 16.1001 59.02 16.7601 58.89C18.1901 58.65 19.5401 58.51 20.7101 58.18C21.2901 58.01 21.8001 57.78 22.1901 57.49C22.4001 57.35 22.5401 57.17 22.7001 57C22.8201 56.79 22.9601 56.59 22.9801 56.48C23.0501 56.15 22.9801 55.56 22.8201 54.97C22.6601 54.37 22.4401 53.75 22.1901 53.13C21.6901 51.88 21.1401 50.6 20.7101 49.22C20.4401 48.38 20.1901 47.5 20.0401 46.57C19.9201 45.64 19.8501 44.57 20.3301 43.51C20.8001 42.41 21.8801 41.75 22.8101 41.48C23.7701 41.2 24.7801 41.17 25.7201 41.34C28.5201 41.96 30.6901 43.55 33.0101 44.06C33.5801 44.16 34.1501 44.22 34.6901 44.12C35.2601 44.07 35.6501 43.87 36.0101 43.52C36.7201 42.84 37.0601 41.61 37.2901 40.42C37.4701 39.47 37.5801 38.49 37.7601 37.48C37.8401 36.97 37.9501 36.45 38.1101 35.92C38.1901 35.65 38.3001 35.37 38.4301 35.1C38.5801 34.84 38.7201 34.58 38.8801 34.33C39.5801 33.33 40.7701 32.58 41.9801 32.39C43.1901 32.17 44.3601 32.35 45.4301 32.67C46.3501 32.98 47.2401 33.33 48.0501 33.85C49.5801 34.78 50.3601 35.68 50.8001 36.37C51.0101 36.73 51.1501 37.03 51.2301 37.3C51.3001 37.58 51.3001 37.84 51.2901 38.07C51.2701 38.29 51.2901 38.53 51.2501 38.67C51.1001 39.14 49.9901 38.32 48.1801 37.13C46.8901 36.2 45.4001 35.46 43.9901 35.21C43.3001 35.1 42.6401 35.11 42.1501 35.27C41.6801 35.45 41.3801 35.74 41.0901 36.2C40.9301 36.44 40.8101 36.64 40.7001 36.98C40.5801 37.3 40.4901 37.7 40.3901 38.11C40.2001 39.01 40.0101 39.92 39.8201 40.83C39.5901 41.8 39.3201 42.83 38.7301 43.93C38.4501 44.47 38.0001 45.04 37.4401 45.51C37.1601 45.74 36.8101 45.93 36.4901 46.1C36.1501 46.22 35.7701 46.36 35.4501 46.42C34.5301 46.59 33.6001 46.56 32.7601 46.39C31.9301 46.21 31.1601 45.95 30.4801 45.64C29.0901 45.04 27.9101 44.34 26.7501 43.91C25.5601 43.52 24.5201 43.49 23.6501 43.8C23.1801 43.97 22.9301 44.19 22.8301 44.37C22.7201 44.55 22.6401 44.84 22.6701 45.31H22.6001H22.6301Z" fill="#231F20"/>
<path d="M96.73 40.59C96.73 40.59 99.5 21.78 91.15 22.91C84.72 23.78 91.29 18.68 94.58 19.18C97.88 19.68 99.51 23.07 99.5 25.57C99.49 28.07 98.9 33.77 98.11 36.36C97.31 38.96 96.74 40.58 96.74 40.58L96.73 40.59Z" fill="#231F20"/>
<path d="M103.5 44.38C103.9 44.48 107.58 44.4 108.26 46.6C109.36 50.14 102.87 54.85 98.8701 57.04C94.8701 59.24 103.66 57.24 105.96 55.64C108.26 54.04 111.35 50.75 111.85 47.55C112.35 44.35 111.25 42.36 109.65 42.26C108.05 42.16 103.49 44.38 103.49 44.38H103.5Z" fill="#231F20"/>
<path d="M98.4102 62.2C98.7102 62.5 104.98 63.81 103.57 68.22C102.27 72.26 96.7802 75.21 90.1902 75.11C85.0602 75.03 93.5902 78.25 99.9802 75.18C106.37 72.11 107.47 72.01 108.07 69.16C108.67 66.31 107.1 63.72 104.57 63.12C102.04 62.52 98.4202 62.19 98.4202 62.19L98.4102 62.2Z" fill="#231F20"/>
<path d="M57.0301 49.1C56.6301 49.02 49.9401 50.01 48.4401 55.08C47.1501 59.45 50.2201 64.73 55.9301 68.32C58.3801 69.86 47.6701 67.55 45.0101 59.85C42.3501 52.15 46.5401 50.42 48.3401 50.14C50.1401 49.86 57.0301 49.1 57.0301 49.1Z" fill="#231F20"/>
<path d="M65.4201 28.07C64.9201 27.67 58.1001 24.9 57.0301 29.17C55.9501 33.47 58.9601 38.99 58.9601 38.99C58.9601 38.99 53.3101 33.97 53.8701 28.27C54.4301 22.57 56.6901 23.27 58.9601 23.27C61.2301 23.27 65.4201 25.97 65.4201 25.97V28.07Z" fill="#231F20"/>
<path d="M41.93 108.13C41.97 104.88 41.98 101.62 42.05 98.35C42.08 97.16 42.03 95.97 42.07 94.78C42.23 90.58 42.49 86.37 42.86 82.17C43.03 80.3 43.2 78.43 43.36 76.58C43.61 74.21 43.73 71.74 44.97 69.54C45.4 68.87 45.51 69.02 45.8 69.73C46.17 70.47 46.59 71.69 46.54 73.01C46.27 75.34 46.06 77.7 45.87 80.08C45.64 82.46 45.37 84.85 45.1 87.26C44.77 90.15 44.85 93.18 44.78 96.15L44.55 105.98L44.41 112.05C44.38 112.96 44.35 113.88 44.29 114.8L44.24 115.49L44.21 115.86C44.2 116.03 44.17 116.19 44.15 116.35C44.06 117 43.96 117.62 43.53 118.01C43.15 118.13 42.74 118.17 42.31 118.2L41.67 118.23H41.2C40.58 118.25 39.96 118.24 39.34 118.23C36.98 118.23 34.68 118.41 32.36 118.59C31.85 118.63 31.35 118.7 30.84 118.72C29.89 118.77 29.26 118.77 28.82 118.61C28.37 118.42 28.11 118.15 27.89 117.78C27.79 117.61 27.66 117.44 27.6 117.28C27.5 117 27.64 116.74 27.98 116.48C28.32 116.22 28.87 115.91 29.57 115.85C31.67 115.55 33.84 115.43 36.02 115.41C37.11 115.41 38.22 115.41 39.32 115.45C39.87 115.47 40.42 115.47 40.97 115.54L41.76 115.61C41.76 115.61 41.76 115.63 41.76 115.59L41.79 115.05C41.82 114.31 41.84 113.55 41.85 112.78C41.87 111.24 41.87 109.69 41.85 108.13H41.91H41.93Z" fill="#231F20"/>
<path d="M52.9199 80.8C53.4199 80.64 53.9399 80.52 54.4399 80.37C54.6299 80.32 54.7699 80.19 54.9599 80.14C55.6199 79.97 56.3499 79.82 56.9999 79.49C57.2999 79.36 57.5399 79.15 57.7999 78.96C58.1399 78.72 58.4599 78.45 58.8699 78.19C58.9999 78.11 58.9399 78.09 58.9299 78.22C58.9099 78.34 59.0499 78.66 59.0399 78.97C59.0699 80.11 58.5399 81.14 57.6699 81.65C57.1399 81.93 56.7299 82.42 56.1899 82.71C55.5999 83.02 54.9599 83.21 54.3399 83.35C53.9499 83.44 53.5599 83.5 53.1799 83.55C52.5999 83.64 52.0099 83.66 51.4499 83.74C51.0199 83.81 50.6099 83.92 50.1599 83.88C50.0599 83.88 49.9699 83.88 49.8699 83.86C49.4999 83.82 49.3599 83.69 49.2799 83.7C49.2599 83.7 49.2399 83.7 49.2299 83.7C49.1999 83.72 49.3299 83.65 49.5299 83.4C49.8499 83.11 50.1499 82.73 50.4599 82.38C50.7799 82.08 51.0899 81.76 51.4299 81.55C51.9099 81.18 52.3999 80.95 52.8899 80.73L52.9199 80.8Z" fill="#231F20"/>
<path d="M70.44 90.22L70.99 79.35C71.05 78.02 71.02 76.7 71.1 75.37C71.23 73.03 71.38 70.7 71.62 68.31L71.74 67.39L71.8 66.93L71.95 66.35C72.01 66.16 72.05 65.95 72.13 65.8C72.21 65.66 72.3 65.49 72.37 65.36L72.83 64.59L74.68 61.61C75.76 59.85 76.76 58.03 77.72 56.23C78.33 55.07 78.9 53.89 79.49 52.72L80.38 50.98L80.83 50.12C81 49.84 81.2 49.58 81.41 49.32C82 48.7 82.2 48.87 82.48 49.75C82.84 50.67 82.84 52.14 82.15 53.53C80.94 55.99 79.59 58.34 78.19 60.67C77.48 61.82 76.77 62.97 76.05 64.12L74.97 65.83L74.46 66.65C74.28 66.9 74.32 67.04 74.23 67.22C74.1 67.85 73.99 68.68 73.95 69.48C73.89 70.28 73.87 71.1 73.86 71.93C73.86 73.59 73.84 75.25 73.83 76.91L73.66 87.86C73.63 90.11 73.56 92.36 73.49 94.61C73.38 98.02 73.22 101.44 73.14 104.83C73.08 107.46 73.19 110.05 73.14 112.67C73.13 113.25 73.14 113.81 73.12 114.39C73.05 115.47 72.95 116.18 72.73 116.66C72.45 117.14 72.12 117.39 71.75 117.58C71.59 117.67 71.44 117.79 71.32 117.84C71.11 117.92 70.95 117.74 70.68 117.32C70.39 116.9 70.14 116.27 70.15 115.5C69.94 110.88 70.03 106.04 70.11 101.15C70.19 97.52 70.24 93.87 70.36 90.22H70.44Z" fill="#231F20"/>
<path d="M99.6098 59.09L98.0398 59.6C97.9398 59.63 97.9198 59.63 97.8898 59.64L97.7798 59.67C97.6998 59.69 97.6198 59.71 97.5298 59.76C97.4898 59.78 97.4398 59.82 97.4598 59.86C97.4598 59.9 97.5498 59.91 97.4698 59.97C97.6398 60.01 97.6598 60.08 97.7898 60.12L97.8698 60.15L97.9098 60.17C97.9098 60.17 97.9298 60.17 98.0298 60.2L98.9798 60.4C100.28 60.65 101.64 60.86 103.05 61.17C103.98 61.38 104.94 61.6 105.93 62C106.42 62.19 106.93 62.45 107.42 62.79C107.92 63.11 108.4 63.6 108.74 64.18C109.07 64.69 109.24 65.28 109.34 65.85C109.41 66.44 109.39 66.92 109.33 67.4C109.21 68.38 108.88 69.31 108.42 70.12C107.53 71.77 106.21 73 104.82 73.97C103.41 74.95 101.94 75.68 100.37 76.27C98.7798 76.92 97.0798 77.14 95.4298 77.25C92.4798 77.38 89.5998 77 86.8398 76.62C85.0598 76.39 83.2898 76.17 81.5498 76.13C79.8098 76.1 78.1198 76.2 76.4298 76.55C75.2598 76.51 75.4098 76.64 76.1498 75.87C76.5098 75.43 77.1398 75.07 77.9498 74.66C78.3598 74.46 78.8198 74.31 79.3198 74.17C79.8198 74.03 80.3498 74.02 80.9098 73.97C84.8298 73.88 88.4798 74.63 91.9998 74.88C93.7598 75.01 95.4798 75.02 97.1498 74.77L98.3698 74.5C98.7798 74.42 99.1598 74.24 99.5598 74.12C100.35 73.87 101.17 73.46 101.94 73.07C103.77 72.12 105.49 70.76 106.31 69.03C106.69 68.19 106.82 67.2 106.67 66.42C106.53 65.76 106.1 65.35 105.3 64.89C103.93 64.16 102.02 63.83 100.16 63.49C99.1898 63.31 98.2998 63.16 97.2098 62.9C95.6798 62.56 94.3398 61.93 93.6698 61.07C93.4298 60.83 93.2698 60.55 93.1498 60.26C93.1098 60.11 93.0898 59.91 93.1398 59.75C93.1998 59.6 93.2698 59.47 93.3398 59.35C93.4298 59.24 93.5298 59.13 93.6298 59.02L93.9798 58.71C94.2398 58.51 94.6198 58.33 94.9698 58.15C97.4698 57.15 98.5398 56.85 100.01 56.26C101.41 55.71 102.78 55.1 104.07 54.37C106.01 53.28 107.81 51.9 108.96 50.12C109.53 49.23 109.94 48.25 110.11 47.23C110.2 46.72 110.24 46.19 110.23 45.68V45.32L110.19 45.07C110.16 44.91 110.1 44.75 110.01 44.62C109.86 44.41 109.62 44.29 109.38 44.24C109.25 44.21 109.15 44.21 108.99 44.21C108.82 44.21 108.64 44.21 108.45 44.24C107.68 44.32 106.86 44.53 106.04 44.77C104.4 45.26 102.74 45.88 101 46.41C100.24 46.64 99.4798 46.88 98.6698 47.05C97.1698 47.39 96.0798 47.33 95.3298 47.18C94.5698 47.02 94.1598 46.71 93.8998 46.32C93.7798 46.14 93.6298 45.96 93.5798 45.81C93.5098 45.56 93.7898 45.41 94.2798 45.27C94.7798 45.11 95.4998 44.98 96.4398 44.74C99.2898 44.06 102.17 42.74 105.5 41.7C106.35 41.45 107.23 41.21 108.31 41.1C108.56 41.07 108.89 41.07 109.19 41.06C109.53 41.1 110 41.11 110.38 41.24C111.19 41.41 111.91 41.87 112.42 42.5C112.91 43.14 113.24 43.93 113.3 44.76C113.38 45.53 113.31 45.98 113.28 46.5C113.18 47.52 112.94 48.54 112.57 49.51C112.02 50.95 111.15 52.23 110.15 53.29C109.15 54.35 108.02 55.21 106.85 55.93C104.52 57.37 102.05 58.32 99.6498 59.14L99.6198 59.08L99.6098 59.09Z" fill="#231F20"/>
<path d="M57.5301 39.78C57.0401 39.04 56.4801 38.29 55.9601 37.46L55.1801 36.24L54.4601 34.96C53.5701 33.21 52.6501 31.4 52.3501 29.17C52.2401 28.05 52.3001 26.79 52.8601 25.6C53.4101 24.4 54.4301 23.45 55.5001 22.9C56.5801 22.35 57.7401 22.07 58.9401 22.08C60.1301 22.1 61.2601 22.4 62.2501 22.82C65.1401 24.11 67.2201 26.01 69.2801 27.73C71.0601 29.24 72.8501 30.76 74.7701 31.38C75.6901 31.67 76.7401 31.81 77.2401 31.52C78.0101 31.19 78.9001 30.44 79.7301 29.7C81.4101 28.17 83.0201 26.39 84.7001 24.67C86.4001 22.95 88.1201 21.2 90.3001 19.77C91.2801 19.15 92.3601 18.56 93.7201 18.36C94.3801 18.23 95.1301 18.31 95.8201 18.5C96.5301 18.75 97.0801 19.05 97.6001 19.45C98.6501 20.25 99.4101 21.36 99.8501 22.49C100.3 23.62 100.51 24.78 100.61 25.91C100.81 28.82 100.39 31.6 99.7301 34.29C99.4001 35.64 98.9901 36.96 98.5101 38.25C98.2701 38.9 98.0201 39.54 97.7401 40.17C97.4601 40.8 97.1201 41.4 96.7801 42.01C95.8701 43.49 95.8301 43.18 95.9901 41.71C96.0801 40.21 96.2801 37.56 96.8101 34.61C97.3001 32.01 97.5801 29.35 97.3701 26.92C97.2601 25.71 97.0401 24.58 96.6301 23.69C96.2101 22.81 95.6501 22.26 94.9601 21.96C94.7401 21.86 94.5501 21.87 94.2101 21.88C93.8701 21.92 93.4401 22.02 92.9601 22.26C92.0001 22.7 90.9701 23.45 89.9801 24.26C87.9801 25.92 86.0601 27.9 84.0101 29.84C82.7701 31 81.5501 32.22 79.9801 33.31C79.1801 33.83 78.3001 34.42 76.8901 34.56C75.7901 34.6 74.7801 34.4 73.8401 34.07C70.1501 32.61 67.6501 30.08 65.0301 28.06C63.6101 26.95 62.1501 25.92 60.6601 25.41C59.9201 25.15 59.1801 25.06 58.4601 25.12C57.7401 25.17 56.9801 25.36 56.4101 25.73C55.8301 26.1 55.4201 26.59 55.2001 27.24C54.9901 27.89 54.9401 28.67 55.0801 29.49C55.3101 31.13 56.0901 32.8 57.0001 34.34C57.2601 34.83 57.5801 35.29 57.8801 35.76C58.1801 36.23 58.4901 36.7 58.8201 37.17C59.4801 38.11 60.1601 39.08 60.7601 40.15C61.3401 41.22 61.8501 42.44 61.9001 43.83C61.9301 44.53 61.7901 45.22 61.5301 45.89C61.2401 46.58 60.7701 47.15 60.2601 47.59C58.6601 48.89 56.8901 49.41 55.2001 49.94C53.5001 50.44 51.8001 50.84 50.2101 51.38C48.6401 51.91 47.0801 52.64 46.3601 53.76C46.0301 54.28 45.8801 55.08 45.8601 55.81C45.8401 56.56 46.0201 57.32 46.2801 58.06C46.6901 59.21 47.3801 60.29 48.1901 61.27C49.0001 62.25 49.9201 63.15 50.9001 63.98C52.8601 65.64 55.0401 67.05 57.2901 68.31C58.2801 68.87 59.2801 69.35 60.3101 69.85C61.2701 70.29 62.0601 70.66 62.7301 70.97C63.3901 71.29 63.9001 71.59 64.3301 71.83C65.1801 72.33 65.6601 72.7 66.0301 73.14C66.2001 73.34 66.4401 73.54 66.5301 73.71C66.6901 74 66.3101 74.16 65.4501 74.18C64.5901 74.18 63.2601 74.05 61.6501 73.57C59.3101 72.76 57.0401 71.69 54.8501 70.43C52.6901 69.12 50.5901 67.63 48.6601 65.82C46.7301 64.02 44.9801 61.92 43.7701 59.18C43.2001 57.8 42.8601 56.16 43.1101 54.48C43.2101 54.05 43.2401 53.69 43.4201 53.21C43.5801 52.74 43.8201 52.29 44.0901 51.9C44.6401 51.11 45.3201 50.52 46.0001 50.08C48.0101 48.83 49.9501 48.35 51.7801 47.81C53.6001 47.29 55.4001 46.89 56.9001 46.3C57.6501 46.01 58.2801 45.64 58.6701 45.27C58.8501 45.09 58.9701 44.91 59.0601 44.74C59.1401 44.49 59.2301 44.24 59.2301 43.95C59.3301 42.79 58.4601 41.26 57.4701 39.8L57.5201 39.76L57.5301 39.78Z" fill="#231F20"/>
<path d="M67.0098 116.23C68.4798 116.28 69.9498 116.33 71.4198 116.35C71.9598 116.35 72.4898 116.28 73.0298 116.29C74.9198 116.31 76.8298 116.48 78.7298 116.5C79.5698 116.5 80.4198 116.5 81.2498 116.45C82.3098 116.31 83.4098 116.5 84.4898 116.69C84.8298 116.77 84.8098 116.96 84.5498 117.28C84.2898 117.58 83.8098 118.12 83.2098 118.4C81.0598 119.31 78.8498 119.32 76.6198 119.13C75.2798 119.02 73.9098 119.22 72.5498 119.21C71.0498 119.21 69.5598 119.17 68.0598 119.13L65.2998 119.06C63.8998 119.03 62.4998 118.94 61.1098 118.96C60.5698 118.96 60.0298 119 59.4898 119.04C58.9498 119.07 58.3998 119.07 57.8498 119.07C57.6098 119.07 57.3498 119.07 57.0998 119.03C56.6398 118.97 56.3298 118.88 56.0998 118.66C55.8898 118.45 55.8298 118.2 55.8498 117.88C55.8498 117.73 55.8498 117.59 55.8898 117.45C55.9498 117.22 56.0998 117.05 56.2898 116.89C56.4898 116.74 56.6898 116.61 56.9498 116.58C57.8198 116.44 58.7498 116.3 59.6998 116.2C60.6498 116.15 61.6198 116.15 62.6098 116.14C64.0798 116.14 65.5498 116.16 67.0198 116.17V116.24L67.0098 116.23Z" fill="#231F20"/>
<path d="M12.3802 41.71C12.5402 41.65 12.6002 41.89 12.6002 42.31C12.6002 42.44 12.5002 42.82 12.4402 42.86C12.3402 42.95 12.2302 43.03 12.1302 43.08C12.0702 43.11 11.2502 43.14 10.9602 43.19C10.6802 43.23 10.4202 43.19 10.1702 43.16C9.64023 43.09 9.13023 42.98 8.62023 42.85C8.51023 42.82 8.40023 42.77 8.30023 42.7C7.96023 42.45 7.57023 42.34 7.17023 42.28C7.10023 42.28 7.04023 42.24 6.96023 42.3C6.82023 42.4 5.77023 42.13 5.65023 42.03C5.35023 41.81 5.08023 41.51 4.78023 41.28C4.74023 41.24 4.68023 41.25 4.66023 41.15C4.62023 40.91 4.51023 40.91 4.42023 40.85C4.29023 40.75 4.15023 40.7 4.05023 40.53C4.00023 40.45 3.96023 40.32 3.92023 40.22C3.88023 40.13 3.97023 39.97 4.00023 39.95C4.08023 39.9 4.06023 39.8 4.08023 39.72C4.08023 39.69 4.09023 39.66 4.10023 39.63C4.10023 39.63 4.39023 39.45 4.65023 39.35C4.92023 39.25 5.20023 39.15 5.24023 39.16C5.25023 39.16 5.58023 39.16 5.93023 39.16C6.28023 39.13 6.62023 39.21 6.70023 39.2C6.78023 39.2 6.83023 39.27 6.89023 39.32C6.92023 39.34 7.92023 39.45 7.96023 39.47C8.15023 39.55 8.37023 39.53 8.51023 39.78C8.54023 39.83 8.58023 39.83 8.62023 39.84C8.97023 39.91 9.28023 40.09 9.61023 40.24C9.78023 40.32 9.96023 40.34 10.1302 40.4C10.1602 40.4 10.1802 40.45 10.2102 40.47C10.2502 40.5 10.2802 40.54 10.3202 40.55C10.7302 40.68 11.1002 40.93 11.5302 41C11.6302 41.02 12.0202 41.38 12.1302 41.39C12.1902 41.39 12.3202 41.74 12.3802 41.71Z" fill="#231F20"/>
<path d="M16.7201 34.63C16.8101 34.75 16.6501 34.89 16.3901 35.04C16.3001 35.09 16.0301 35.13 15.9801 35.1C15.8801 35.04 15.7801 34.99 15.7001 34.92C15.6601 34.88 15.2501 34.22 15.0601 34C14.8801 33.79 14.7901 33.56 14.7201 33.33L14.2501 31.94C14.2201 31.84 14.2101 31.73 14.2201 31.62C14.2701 31.24 14.1601 30.88 14.0401 30.53C14.0201 30.47 14.0201 30.41 13.9201 30.36C13.7601 30.29 13.5201 29.31 13.5601 29.18C13.6301 28.84 13.7201 28.49 13.8201 28.15C13.8301 28.1 13.8001 28.06 13.8901 28C14.1101 27.86 14.0601 27.77 14.0601 27.67C14.0601 27.53 14.1701 27.37 14.2401 27.21C14.2801 27.13 14.3901 27.04 14.4601 26.96C14.5301 26.89 14.7601 26.88 14.7901 26.89C14.8801 26.94 14.9801 26.87 15.0801 26.84C15.1101 26.84 15.1601 26.82 15.1801 26.82C15.2101 26.82 15.4201 26.98 15.7001 27.14C16.0101 27.3 16.1401 27.5 16.1701 27.53C16.1701 27.53 16.3001 27.81 16.4401 28.11C16.5801 28.4 16.6501 28.71 16.6901 28.77C16.7201 28.83 16.6801 28.91 16.6501 28.99C16.6501 29.02 16.9601 29.91 16.9601 29.95C16.9601 30.14 17.0701 30.32 16.8901 30.55C16.8501 30.59 16.8701 30.63 16.8801 30.67C16.9401 31 16.8901 31.34 16.8801 31.68C16.8801 31.85 16.9101 32.02 16.9301 32.19C16.9301 32.22 16.9101 32.26 16.9001 32.29C16.8901 32.33 16.8701 32.37 16.8801 32.41C16.9201 32.81 16.9201 33.22 16.9701 33.61C16.9701 33.7 16.8201 34.18 16.8501 34.28C16.8501 34.34 16.6501 34.57 16.6901 34.62L16.7201 34.63Z" fill="#231F20"/>
<path d="M107.17 20.75C107.21 20.95 106.96 21.04 106.58 21.08C106.46 21.09 106.13 20.99 106.09 20.93C106.02 20.8 105.95 20.67 105.9 20.55C105.88 20.48 105.85 19.4 105.8 19.02C105.77 18.66 105.84 18.32 105.9 17.99L106.31 15.95C106.34 15.8 106.4 15.66 106.48 15.52C106.76 15.06 106.9 14.55 106.99 14.03C107 13.94 107.04 13.86 106.97 13.75C106.83 13.56 107.28 12.2 107.42 12.05C107.75 11.68 107.99 11.27 108.3 10.9C108.35 10.85 108.34 10.77 108.47 10.75C108.77 10.71 108.77 10.56 108.88 10.45C109.01 10.29 109.15 10.13 109.32 9.98C109.4 9.9 109.57 9.87 109.7 9.81C109.82 9.76 110.02 9.89 110.04 9.93C110.09 10.04 110.23 10.02 110.33 10.05C110.36 10.05 110.41 10.07 110.44 10.09C110.48 10.11 110.59 10.45 110.69 10.8C110.75 10.99 110.82 11.17 110.86 11.31C110.89 11.45 110.91 11.55 110.9 11.58C110.94 11.63 110.59 13.22 110.59 13.41C110.59 13.51 110.5 13.58 110.43 13.66C110.41 13.68 110.36 14.01 110.3 14.35C110.22 14.68 110.14 15.01 110.13 15.03C110 15.27 109.99 15.55 109.68 15.73C109.62 15.77 109.61 15.82 109.6 15.87C109.47 16.31 109.22 16.72 109.01 17.13C108.9 17.34 108.85 17.57 108.76 17.79C108.74 17.83 108.7 17.86 108.67 17.9C108.64 17.95 108.59 17.99 108.58 18.04C108.41 18.57 108.12 19.07 108.01 19.62C107.97 19.74 107.54 20.26 107.51 20.41C107.49 20.49 107.14 20.67 107.15 20.76L107.17 20.75Z" fill="#231F20"/>
<path d="M115.16 26.84C115.03 26.94 114.87 26.81 114.7 26.56C114.65 26.48 114.59 26.21 114.63 26.17C114.7 26.08 114.76 25.98 114.83 25.9C114.87 25.86 115.64 25.47 115.9 25.32C116.15 25.17 116.41 25.07 116.67 24.98L118.26 24.41C118.38 24.38 118.5 24.36 118.63 24.37C119.07 24.39 119.48 24.29 119.89 24.15C119.96 24.13 120.03 24.12 120.08 24.03C120.16 23.89 121.28 23.59 121.44 23.6C121.83 23.63 122.21 23.66 122.6 23.71C122.66 23.71 122.71 23.68 122.77 23.75C122.92 23.93 123.03 23.87 123.14 23.86C123.3 23.85 123.46 23.86 123.64 23.89C123.72 23.91 123.82 24 123.92 24.07C124.01 24.13 124.03 24.41 124.01 24.45C123.96 24.55 124.04 24.67 124.08 24.78C124.09 24.82 124.1 24.87 124.11 24.9C124.11 24.97 123.34 25.71 123.24 25.73C123.23 25.73 122.91 25.86 122.57 26C122.23 26.13 121.88 26.23 121.81 26.27C121.74 26.3 121.65 26.27 121.56 26.26C121.52 26.26 120.5 26.6 120.46 26.61C120.24 26.63 120.03 26.74 119.78 26.61C119.73 26.59 119.69 26.61 119.65 26.61C119.28 26.7 118.9 26.72 118.51 26.73C118.31 26.73 118.12 26.78 117.93 26.8C117.9 26.8 117.86 26.79 117.82 26.78C117.77 26.78 117.73 26.76 117.68 26.77C117.23 26.84 116.75 26.83 116.31 26.95C116.21 26.97 115.67 26.9 115.56 26.94C115.49 26.96 115.23 26.8 115.18 26.84H115.16Z" fill="#231F20"/>
</svg>
