<svg width="128" height="128" viewBox="0 0 128 128" fill="none" xmlns="http://www.w3.org/2000/svg">
<path d="M13.7602 39.76C13.7402 39.03 13.7602 38.3 13.7802 37.59C13.7802 37.33 13.7302 37.07 13.7402 36.81C13.8102 35.89 13.9502 34.98 14.1202 34.09C14.1902 33.69 14.1802 33.3 14.1802 32.9C14.1202 32.39 14.1802 31.89 14.5002 31.4C14.6002 31.25 14.9602 31.29 15.3702 31.44C15.7702 31.59 16.2802 31.85 16.4102 32.14C16.5402 32.39 16.5602 32.64 16.5602 32.89C16.5602 33.14 16.5602 33.38 16.5602 33.63C16.5402 34.12 16.4802 34.61 16.3402 35.11C16.1402 35.71 16.2902 36.32 16.2802 36.92C16.2802 37.59 16.2702 38.25 16.2902 38.92C16.3102 39.33 16.3302 39.74 16.3802 40.15C16.4502 40.77 16.5202 41.39 16.7202 41.98C16.8702 42.44 17.2102 42.83 17.4102 43.26C17.4502 43.35 17.5202 43.44 17.5602 43.54C17.6902 43.9 17.5602 44.08 16.9902 44.38C16.8602 44.45 16.7302 44.52 16.6002 44.58C16.1602 44.78 15.7202 44.77 15.4402 44.53C15.0502 44.18 14.6702 43.81 14.4702 43.36C14.2702 42.91 14.1202 42.44 14.0102 41.96C13.8402 41.24 13.7702 40.5 13.7002 39.78H13.7602V39.76Z" fill="#231F20"/>
<path d="M47.8598 31.51C48.3198 32.08 48.7498 32.68 49.1098 33.42C49.1898 33.57 49.2998 33.89 49.3898 34.16C49.4498 34.45 49.5298 34.73 49.5198 35.01C49.5198 35.29 49.4798 35.56 49.3798 35.81C49.3398 35.94 49.2698 36.05 49.2098 36.17C49.1198 36.28 49.0198 36.33 48.9198 36.41C48.6798 36.66 48.2298 36.78 47.8598 36.88L47.3398 37.01L46.9698 37.08C45.2498 37.35 43.5498 37.52 41.8498 37.72C41.0998 37.81 40.3498 37.94 39.6098 38.07C38.6598 38.23 37.7298 38.54 36.7098 38.21C36.3998 38.15 36.4198 38.03 36.6398 37.77C36.7498 37.63 36.9098 37.49 37.0898 37.21C37.2798 36.99 37.5098 36.84 37.7698 36.73C39.6798 36.34 41.6098 36.04 43.5698 35.87C44.1598 35.82 44.7398 35.71 45.3298 35.58L47.0098 35.17C47.1798 35.13 47.2698 35.13 47.3998 35.09C47.4998 35.02 47.5098 34.88 47.4998 34.76C47.5298 34.61 47.2198 34 46.8598 33.52C46.4198 32.91 45.8898 32.33 45.3098 31.8C44.4298 31 43.4698 30.24 42.4298 29.67C41.6198 29.22 40.7298 28.99 39.8898 28.81L39.3498 28.72C39.0198 28.66 38.8298 28.58 38.6998 28.42C38.6298 28.34 38.5798 28.26 38.5398 28.16C38.4998 28.04 38.4598 27.91 38.4198 27.78L38.3098 27.47C38.2098 27.25 38.5798 26.61 39.3098 26.54C41.3998 26.46 43.1498 27.49 44.7198 28.57C45.8798 29.41 46.9298 30.38 47.8998 31.49L47.8598 31.53V31.51Z" fill="#231F20"/>
<path d="M31.1798 26.1C33.3098 26.08 35.4398 26.07 37.5898 26.08C38.3698 26.08 39.1598 26.02 39.9498 26.05C41.3498 26.11 42.7398 26.2 44.2098 26.47L44.7598 26.57L45.3398 26.74C45.5398 26.81 45.7098 26.84 45.9298 26.93C46.1498 27.04 46.3998 27.15 46.5798 27.28C47.3398 27.8 47.7998 28.39 48.2598 28.97C49.0398 30.01 49.7198 31.06 50.3798 32.08C51.2998 33.36 51.9698 34.74 52.3598 36.27C52.4998 36.73 52.3598 36.8 51.8298 36.66C51.5598 36.59 51.2098 36.48 50.7898 36.32C50.5898 36.24 50.3498 36.15 50.1498 36.03C49.9598 35.91 49.7698 35.76 49.6098 35.6C49.3398 35.3 48.9998 35.04 48.7898 34.71L48.1598 33.73C47.7398 33.09 47.3298 32.44 46.9198 31.84C46.4998 31.25 46.0898 30.64 45.7098 30.15C45.5098 29.91 45.3198 29.7 45.1698 29.55C45.0898 29.48 45.0698 29.46 44.9798 29.39L44.5598 29.22C44.2398 29.06 43.7498 29.01 43.3398 28.92C42.8898 28.87 42.4298 28.83 41.9598 28.8C41.0198 28.77 40.0598 28.78 39.0998 28.77C36.9898 28.75 34.8598 28.77 32.7298 28.8L28.7798 28.89C26.7898 28.95 24.7798 28.97 22.7998 29.09C21.2598 29.18 19.7498 29.42 18.2098 29.54C17.8698 29.57 17.5398 29.59 17.1998 29.58C15.9298 29.58 15.5298 29.12 15.2798 28.59C15.2198 28.46 15.1498 28.35 15.1098 28.24C15.0598 28.05 15.1598 27.89 15.3898 27.69C15.6198 27.5 15.9798 27.23 16.4298 27.12C17.0998 27 17.7798 26.77 18.4598 26.71C19.1398 26.63 19.8398 26.56 20.5298 26.5C21.9198 26.39 23.3398 26.31 24.7698 26.24C26.8998 26.16 29.0398 26.08 31.1698 26V26.07L31.1798 26.1Z" fill="#231F20"/>
<path d="M93.55 103C94.5 102.48 95.33 101.83 96.19 101.06L96.84 100.46C97.06 100.25 97.3 100.03 97.46 99.85C97.63 99.66 97.82 99.48 97.99 99.27L98.48 98.6C98.94 97.92 99.3 97.16 99.68 96.4C101.06 93.72 102.09 90.78 103.04 87.83C103.46 86.52 103.8 85.17 104.11 83.84L104.79 81.28C105.05 80.43 105.38 79.6 105.69 78.76C105.9 78.24 105.95 78.33 106.03 78.82C106.09 79.31 106.28 80.23 106.27 81.27C106.2 82.18 106.07 83.08 105.95 83.99C105.81 84.89 105.58 85.77 105.37 86.66C104.94 88.43 104.41 90.19 103.73 91.91C102.91 93.97 102.25 96.18 101.18 98.25C100.55 99.37 99.91 100.5 98.94 101.5C98.08 102.36 97.19 103.29 96.1 104.04C94.78 104.98 93.3 105.62 91.82 106.09C89.57 106.82 87.27 107.18 85.01 107.51C83.25 107.76 81.53 108.02 79.79 108.19C79.41 108.23 79.03 108.28 78.64 108.28C77.2 108.29 76.73 108.19 76.41 107.93C76.34 107.87 76.24 107.81 76.2 107.75C76.05 107.56 76.62 107.32 77.65 107.07C79.17 106.68 80.74 106.43 82.31 106.11C83.87 105.79 85.44 105.47 87.02 105.15C89.32 104.64 91.62 104.04 93.51 102.95L93.54 103H93.55Z" fill="#231F20"/>
<path d="M26.7999 39.78C31.8999 38.01 37.1099 36.81 42.3599 36.03C44.2699 35.69 46.1899 35.46 48.1099 35.23C54.8999 34.62 61.7099 34.64 68.4699 34.95C71.4699 35.16 74.4899 35.22 77.4599 35.51C79.3599 35.72 81.2799 35.8 83.1799 36.12C85.0699 36.5 86.9199 37.07 88.7599 37.61C89.9099 37.97 89.7599 37.88 88.7299 37.96C87.7099 38.01 85.7699 38.53 83.5599 38.68C81.6299 38.57 79.7099 38.45 77.7899 38.37C75.8699 38.25 73.9599 38.01 72.0399 37.94C70.1199 37.85 68.1999 37.66 66.2699 37.61C64.3399 37.54 62.4099 37.47 60.4699 37.4C55.8299 37.36 50.9999 37.76 46.3199 38.42C41.1599 39.06 36.0099 39.98 31.0299 41.48C27.9899 42.44 24.9599 43.51 22.1899 44.99L20.6499 45.87L19.2399 46.87L18.6699 47.43C18.5799 47.52 18.4699 47.61 18.3899 47.71L18.1599 48.04C17.8399 48.46 17.5999 49 17.3399 49.51C16.4099 51.65 15.8399 54.02 15.4499 56.37C14.8399 60.05 14.7599 63.75 14.8099 67.43C14.8099 68.24 14.8199 69.04 14.8299 69.85C14.8499 72.88 14.6599 73.86 14.1999 74.57C14.0999 74.73 13.9999 74.94 13.8999 75.04C13.7299 75.21 13.5499 74.99 13.3099 74.44C13.0699 73.9 12.7599 73.03 12.5699 71.88C12.2499 70.19 12.0799 68.46 11.9399 66.7C11.8999 64.95 11.8999 63.17 12.0199 61.38C12.2399 57.8 12.7199 54.18 13.8499 50.54C14.2599 49.19 14.7999 47.83 15.6999 46.43L16.0599 45.91C16.1899 45.74 16.3499 45.6 16.4999 45.44C16.7999 45.14 17.1099 44.81 17.4099 44.55C18.0099 44.12 18.6199 43.63 19.2299 43.26C21.6699 41.7 24.2099 40.72 26.7599 39.71L26.7899 39.78H26.7999Z" fill="#231F20"/>
<path d="M73.6899 107.01C77.0099 106.78 80.3299 106.46 83.6099 105.98C86.8799 105.5 90.1399 104.88 93.1899 103.86C93.7499 103.68 94.2999 103.48 94.8099 103.25L95.5999 102.91L96.3299 102.52C96.8499 102.28 97.2299 101.95 97.6799 101.68C97.8399 101.53 97.9799 101.43 98.1299 101.26C98.2799 101.07 98.4399 100.92 98.5799 100.7C99.6399 99.22 100.43 97.23 101.1 95.26C101.77 93.27 102.32 91.21 102.82 89.13C103.81 84.96 104.54 80.71 105.16 76.44C105.69 72.65 106.05 68.81 106.3 65.01C106.44 62.57 106.58 60.13 106.71 57.68C106.86 55.24 106.95 52.8 107.32 50.36C107.75 48.84 107.79 49.04 108.37 50.34C108.68 50.99 108.95 51.92 109.25 53.04C109.5 54.16 109.65 55.48 109.64 56.91C109.67 61.97 109.21 67 108.68 72.03C108.11 77.06 107.35 82.08 106.23 87.08C105.55 90.06 104.88 93.12 103.92 96.17C103.44 97.7 102.91 99.22 102.16 100.73C101.77 101.48 101.36 102.24 100.77 102.96C100.62 103.14 100.48 103.32 100.31 103.5L99.7499 104.02C99.3699 104.33 99.0199 104.53 98.6499 104.78C95.3899 106.69 91.9799 107.52 88.5999 108.26C85.1999 108.96 81.7999 109.42 78.3799 109.77C74.1799 110.2 69.9699 110.43 65.7699 110.57C59.3999 110.77 53.0099 110.64 46.6999 110.34C41.7899 110.1 36.9699 109.9 32.0999 109.25C31.0299 109.1 29.9699 108.98 28.8899 108.76C24.8799 107.97 23.6899 107.12 23.1799 106.04C23.0599 105.79 22.8899 105.53 22.8599 105.33C22.7999 104.98 23.1999 104.84 23.9399 104.84C24.2999 104.84 24.7599 104.89 25.3099 104.93C25.8499 104.98 26.4499 105.11 27.1499 105.23C31.2599 106 35.6099 106.42 40.0299 106.77C44.4499 107.1 48.9599 107.32 53.4799 107.41C60.1999 107.53 66.9599 107.44 73.6699 106.93V107.01H73.6899Z" fill="#231F20"/>
<path d="M48.7401 37.84C44.9101 38.09 41.1001 38.49 37.3301 39.08C33.5601 39.67 29.8101 40.45 26.2401 41.64C23.6501 42.52 21.1301 43.65 19.0401 45.17L18.3701 45.69L17.7501 46.24L17.2001 46.83C17.0701 47.02 16.9201 47.17 16.8001 47.42C16.2901 48.3 15.9201 49.43 15.6301 50.56C15.0501 52.85 14.7801 55.29 14.6101 57.72C14.3101 62.6 14.4501 67.55 14.9201 72.46C15.3401 76.82 16.0801 81.18 17.0601 85.42C17.6801 88.15 18.4401 90.84 19.2201 93.53L20.4401 97.54L21.0701 99.54C21.2601 100.21 21.4301 100.89 21.6101 101.57C22.0101 103.28 21.6101 103.2 20.5501 102.01C19.4101 100.85 17.8601 98.45 16.8501 95.31C15.0401 89.76 13.7901 84.04 12.9201 78.26C12.0801 72.48 11.6401 66.61 11.8901 60.71C12.0601 57.18 12.3201 53.58 13.1701 49.94C13.3901 49.03 13.6601 48.12 14.0501 47.21C14.2301 46.75 14.4801 46.3 14.7501 45.84L15.2401 45.16L15.7501 44.61C17.1401 43.18 18.7701 42.17 20.4201 41.32C24.0801 39.51 27.9301 38.45 31.7901 37.59C35.6501 36.75 39.5501 36.17 43.4601 35.76C48.2701 35.25 53.1001 34.99 57.9201 34.88C65.2201 34.73 72.5601 35.02 79.7901 35.67C85.4001 36.19 90.9201 36.79 96.4201 38.15C97.6301 38.46 98.8201 38.78 100.02 39.21C104.47 40.84 105.71 42.43 105.83 43.67C105.86 43.96 105.91 44.3 105.87 44.48C105.78 44.8 105.41 44.61 104.73 44.27C104.04 43.94 103.07 43.33 101.63 42.7C99.5001 41.77 97.1501 41.11 94.7401 40.55C92.3301 39.99 89.8501 39.57 87.3401 39.19C82.3101 38.46 77.1401 38 71.9601 37.73C64.2501 37.35 56.4701 37.36 48.7601 37.93V37.87L48.7401 37.84Z" fill="#231F20"/>
<path d="M70.5901 88.34C70.4901 88.34 70.4401 84.48 69.3801 78.33C64.9601 76.63 47.2501 77.17 35.5801 89.86C38.7601 66.16 58.5601 63.3 64.9001 62.58C63.6501 59.92 62.1201 57.48 60.2301 55.5C60.0101 55.29 77.8001 61.72 86.7301 69.48C86.8401 69.59 83.0401 77.05 70.5801 88.35L70.5901 88.34Z" fill="#231F20"/>
<path d="M108.45 32.93C108.39 33.1 108.16 33.02 107.84 32.8C107.74 32.73 107.52 32.44 107.52 32.38C107.52 32.25 107.52 32.12 107.54 32C107.56 31.94 108.04 31.23 108.17 30.96C108.31 30.71 108.48 30.5 108.66 30.3C109.03 29.9 109.38 29.47 109.73 29.05C109.81 28.95 109.91 28.89 110.03 28.84C110.43 28.67 110.73 28.38 110.99 28.05C111.03 28 111.09 27.95 111.08 27.85C111.07 27.68 111.82 26.86 111.97 26.8C112.35 26.66 112.69 26.49 113.04 26.31C113.09 26.29 113.11 26.23 113.22 26.26C113.46 26.33 113.52 26.23 113.61 26.16C113.74 26.07 113.91 26.01 114.08 25.95C114.17 25.92 114.3 25.94 114.41 25.93C114.51 25.93 114.65 26.1 114.66 26.14C114.66 26.24 114.79 26.27 114.87 26.33C114.9 26.35 114.93 26.38 114.95 26.4C114.97 26.42 114.94 26.7 114.93 27.02C114.93 27.35 114.85 27.63 114.83 27.68C114.83 27.7 114.65 28.01 114.46 28.32C114.27 28.65 114.06 28.97 114.02 29.04C113.98 29.11 113.88 29.14 113.8 29.17C113.77 29.19 113.12 30.09 113.08 30.12C112.9 30.26 112.79 30.48 112.49 30.49C112.43 30.49 112.4 30.53 112.37 30.57C112.11 30.86 111.77 31.08 111.42 31.27C111.25 31.38 111.1 31.52 110.95 31.64C110.92 31.66 110.87 31.66 110.84 31.68C110.79 31.7 110.74 31.7 110.71 31.73C110.35 32.03 109.91 32.24 109.57 32.57C109.49 32.65 108.95 32.8 108.87 32.89C108.82 32.94 108.47 32.87 108.45 32.94V32.93Z" fill="#231F20"/>
<path d="M100.46 28.8C100.6 28.97 100.4 29.17 100.03 29.37C99.9099 29.44 99.5299 29.5 99.4599 29.46C99.3299 29.38 99.1999 29.3 99.0999 29.22C99.0499 29.17 98.5499 28.28 98.3199 28C98.1199 27.72 97.9699 27.43 97.8399 27.13C97.5799 26.52 97.2499 25.94 97.0099 25.32C96.9499 25.18 96.9299 25.04 96.9199 24.89C96.9099 24.36 96.7299 23.89 96.4899 23.43C96.4499 23.35 96.4299 23.27 96.3099 23.23C96.1199 23.16 95.5299 21.9 95.5699 21.69C95.6099 21.2 95.5699 20.74 95.5699 20.26C95.5699 20.19 95.5099 20.14 95.5999 20.04C95.8099 19.82 95.7399 19.69 95.7299 19.55C95.6999 19.36 95.7499 19.13 95.7999 18.9C95.8299 18.79 95.9399 18.65 96.0099 18.52C96.0799 18.4 96.3699 18.35 96.4199 18.36C96.5499 18.41 96.6599 18.29 96.7799 18.24C96.8199 18.22 96.8699 18.2 96.9099 18.19C96.9499 18.19 97.2499 18.37 97.6299 18.54C97.9699 18.73 98.2899 18.94 98.2999 19C98.2999 19.01 98.5099 19.38 98.7199 19.76C98.9299 20.14 99.1599 20.55 99.2199 20.62C99.2799 20.7 99.2399 20.82 99.2299 20.93C99.2299 20.98 99.8199 22.16 99.8299 22.22C99.8799 22.49 100.05 22.73 99.8999 23.06C99.8699 23.13 99.8999 23.18 99.9199 23.23C100.08 23.67 100.12 24.15 100.19 24.63C100.23 24.87 100.31 25.1 100.35 25.34C100.35 25.38 100.34 25.44 100.33 25.48C100.33 25.54 100.31 25.6 100.32 25.65C100.45 26.21 100.46 26.8 100.63 27.35C100.67 27.48 100.56 28.16 100.61 28.3C100.63 28.38 100.4 28.72 100.45 28.79L100.46 28.8Z" fill="#231F20"/>
</svg>
