<svg width="128" height="128" viewBox="0 0 128 128" fill="none" xmlns="http://www.w3.org/2000/svg">
<path d="M65.2801 85.9899C67.1301 86.0499 68.9101 86.2799 70.6701 86.6599C71.3101 86.8099 71.9601 86.8699 72.5901 87.0699C74.8101 87.7099 76.9701 88.5799 78.9801 89.7099L80.3001 90.4999C80.7201 90.7899 81.1401 91.0899 81.5601 91.3799C82.1001 91.7399 82.5901 92.1899 83.0601 92.6499C83.5301 93.1099 83.8701 93.6899 84.2401 94.2199C84.4601 94.5599 84.2801 94.6299 83.8701 94.5399C83.4601 94.4499 82.8101 94.2499 82.2401 93.8699C80.2001 92.5099 78.1001 91.4199 75.8601 90.2999C74.5201 89.6199 72.9501 89.3699 71.4501 89.0199C69.7901 88.6899 68.1001 88.4299 66.4101 88.3099C65.8901 88.2599 65.3701 88.2699 64.8501 88.2499L64.0901 88.2799C63.9701 88.2799 63.8301 88.2999 63.7501 88.3099L63.5501 88.3299C63.4601 88.3699 63.3201 88.3499 63.2601 88.4499C63.2101 88.5399 63.1601 88.6399 63.1301 88.7399C63.1001 88.8099 63.0401 89.0199 62.9801 89.1999L62.8101 89.7699C62.6001 90.5399 62.4201 91.3199 62.2701 92.1099C62.0501 93.3299 62.0001 94.5599 61.9401 95.7799L61.9201 96.5799C61.8601 97.5699 61.7001 97.8399 61.0901 98.0399C60.9501 98.0899 60.8201 98.1499 60.6801 98.1799C60.2401 98.2899 59.8201 97.8299 59.7401 97.0299C59.5301 94.6699 59.8801 92.3099 60.4001 89.9399C60.5001 89.4999 60.6101 89.0599 60.7401 88.5999L60.8501 88.2499C60.8801 88.1299 60.9701 87.8799 61.0501 87.6999C61.1401 87.5099 61.1801 87.2799 61.3201 87.1299C61.4601 86.9799 61.5801 86.8299 61.7301 86.6899C61.7501 86.6399 61.8301 86.6599 61.8001 86.5499L61.9401 86.4899L62.2201 86.3599C62.4001 86.2699 62.5901 86.1899 62.7901 86.1299C62.9901 86.0699 63.2301 86.0599 63.4401 86.0199C63.5801 85.9999 63.7101 85.9799 63.8301 85.9799C64.3201 85.9499 64.8001 85.9199 65.2701 85.9399V85.9999L65.2801 85.9899Z" fill="#231F20"/>
<path d="M40.6098 83.01C39.6498 82.96 38.6798 82.99 37.7098 83.06C37.3498 83.09 37.0098 83.18 36.6498 83.21C35.3998 83.35 34.1398 83.53 32.8998 83.82C32.3398 83.93 31.7998 84.09 31.2598 84.26C30.5698 84.48 29.9098 84.77 29.1498 84.79C28.9098 84.79 28.9198 84.75 29.0498 84.56C29.1798 84.37 29.3998 83.96 29.7698 83.73C31.1298 83.07 32.5298 82.47 34.0598 82.28C34.9598 82.14 35.8698 81.86 36.7898 81.71C37.7998 81.53 38.8298 81.44 39.8598 81.38C40.4998 81.37 41.1298 81.34 41.7698 81.37C42.7298 81.37 43.6998 81.51 44.6498 81.61C45.3898 81.71 46.1398 81.73 46.8998 81.88C47.0698 81.91 47.2398 81.91 47.3998 81.97C47.9998 82.17 48.1398 82.37 48.0498 82.89C48.0298 83.01 48.0198 83.13 47.9798 83.25C47.8598 83.64 47.5098 83.85 47.0998 83.81C45.8898 83.69 44.7098 83.48 43.4598 83.3C42.5298 83.2 41.5798 83.07 40.6098 83.08V83.04V83.01Z" fill="#231F20"/>
<path d="M52.9398 77.33C51.6898 78.39 50.3998 79.41 49.1798 80.49L48.9798 80.68C48.8998 80.75 48.8798 80.79 48.7198 80.91C48.5998 81.05 48.4198 81.11 48.2798 81.23C48.1098 81.29 47.9398 81.37 47.7598 81.38C47.5898 81.4 47.3798 81.43 47.2298 81.4L46.8498 81.37C45.7198 81.19 44.7398 80.96 43.6998 80.8C42.6698 80.64 41.6298 80.51 40.5798 80.44C39.6498 80.36 38.7098 80.34 37.7898 80.34C36.5998 80.4 35.3998 80.27 34.1898 80.2C33.8098 80.17 33.8598 80.11 34.1698 79.98C34.4798 79.85 35.0398 79.56 35.7298 79.36C36.9498 78.99 38.1898 78.98 39.4398 78.91C40.6898 78.83 41.9398 79 43.1898 79.17C43.9398 79.28 44.6998 79.38 45.4598 79.46L46.5798 79.59C46.9198 79.62 47.3498 79.65 47.3898 79.64C47.4498 79.64 47.5098 79.6 47.5598 79.57C47.5498 79.56 47.6498 79.48 47.7098 79.41L47.9098 79.21L48.3198 78.83L49.1398 78.07C49.6898 77.57 50.2398 77.07 50.7998 76.59L53.1498 74.59C54.3498 73.59 55.5498 72.59 56.7298 71.6C57.6398 70.81 58.4998 69.99 59.4298 69.22C59.6398 69.05 59.8298 68.87 60.0598 68.72C60.8998 68.16 61.2998 68.12 61.7098 68.44C61.7998 68.51 61.9098 68.58 61.9798 68.66C62.2098 68.95 62.0198 69.38 61.5398 69.85C60.0798 71.26 58.4498 72.75 56.7498 74.15C55.4998 75.21 54.2198 76.27 52.9798 77.35L52.9498 77.31L52.9398 77.33Z" fill="#231F20"/>
<path d="M64.4602 79.62C64.8802 79.1 65.3002 78.57 65.7102 78.05C65.8602 77.86 65.9702 77.64 66.1202 77.45C66.6402 76.77 67.2202 76.12 67.7602 75.45C68.0002 75.15 68.2102 74.83 68.4102 74.52C68.6702 74.11 68.9202 73.69 69.2602 73.34C69.3702 73.23 69.4902 73.33 69.5702 73.53C69.6502 73.73 69.6902 74.03 69.5702 74.29C69.1602 75.2 68.7202 76.09 68.1202 76.89C67.7702 77.37 67.4802 77.92 67.1602 78.44C66.7902 79 66.4202 79.56 66.0402 80.11C65.8102 80.45 65.5802 80.79 65.3502 81.13C65.0202 81.65 64.6802 82.16 64.4702 82.7C64.3102 83.13 64.2702 83.58 64.2602 84C64.2602 84.09 64.2802 84.18 64.2602 84.27C64.2402 84.6 64.1202 84.68 63.6302 84.74L63.2902 84.78C62.9102 84.81 62.6002 84.63 62.5302 84.27C62.3202 83.21 62.6802 82.14 63.1902 81.31C63.5602 80.68 63.9902 80.13 64.3902 79.59L64.4202 79.61L64.4602 79.62Z" fill="#231F20"/>
<path d="M87.9702 85.24C88.1202 83.97 88.2402 82.68 88.3402 81.39C88.3702 80.92 88.3702 80.45 88.4102 79.98C88.5602 78.32 88.7102 76.65 88.8102 74.98C88.8602 74.24 88.8702 73.49 88.8802 72.76C88.9102 71.82 88.8402 70.86 89.1302 69.92C89.2102 69.63 89.3502 69.68 89.5302 69.94C89.6202 70.07 89.7302 70.25 89.8402 70.47C89.9602 70.69 90.0402 70.94 90.0402 71.21C90.0802 73.12 90.1302 75.04 90.0002 76.98C89.9202 78.14 90.0102 79.35 90.0002 80.54C89.9902 81.85 89.9102 83.16 89.8302 84.48L89.6402 86.91C89.5302 88.14 89.3602 89.37 89.1902 90.59C89.0402 91.54 89.0102 92.52 88.6302 93.52C88.5602 93.74 88.4702 93.97 88.3502 94.18C88.1102 94.59 87.8502 94.83 87.5902 94.91C87.3602 95 87.1202 94.93 86.9102 94.78C86.8102 94.71 86.7202 94.64 86.6402 94.55C86.4202 94.23 86.4602 93.86 86.5402 93.49C86.8702 92.33 87.1802 90.69 87.4402 89.03C87.6302 87.79 87.7902 86.52 87.9102 85.23H87.9602L87.9702 85.24Z" fill="#231F20"/>
<path d="M57.3901 95.22C57.5501 94.93 57.6801 94.61 57.8301 94.28C57.8801 94.16 57.8801 94.03 57.9301 93.91C58.1201 93.48 58.2701 93.03 58.4501 92.57C58.5201 92.37 58.5501 92.16 58.5801 91.95C58.6101 91.68 58.6201 91.41 58.7701 91.16C58.8201 91.08 59.0001 91.11 59.2001 91.2C59.3901 91.29 59.6101 91.44 59.6401 91.6C59.7201 92.16 59.8001 92.73 59.5901 93.27C59.4501 93.59 59.4901 93.96 59.4201 94.3C59.3501 94.68 59.2301 95.06 59.0901 95.43C59.0101 95.66 58.9101 95.89 58.8101 96.12C58.6601 96.47 58.4501 96.8101 58.2401 97.16C58.0701 97.43 57.9401 97.79 57.6201 98.07C57.5501 98.13 57.4901 98.21 57.4101 98.26C57.0901 98.41 56.9201 98.3 56.8001 97.83C56.7701 97.72 56.7401 97.61 56.7201 97.5C56.6601 97.12 56.6801 96.79 56.6901 96.67C56.7201 96.5 56.6901 96.4 56.7301 96.31C56.7601 96.21 56.8401 96.11 56.9201 95.96C57.0501 95.75 57.2101 95.49 57.3301 95.19H57.3701L57.3901 95.22Z" fill="#231F20"/>
<path d="M60.9601 95.36C60.9301 95 60.9201 94.66 60.9001 94.31C60.9001 94.19 60.8601 94.07 60.8601 93.94C60.8601 93.51 60.8601 93.06 60.8601 92.64C60.8601 92.45 60.8101 92.27 60.8001 92.08C60.7701 91.84 60.7201 91.61 60.7801 91.36C60.8001 91.28 60.9501 91.26 61.1201 91.29C61.2901 91.32 61.5001 91.4 61.5601 91.54C61.8101 92 61.8501 92.5 61.8101 93C61.7901 93.3 61.8901 93.59 61.9301 93.88C61.9801 94.2 62.0201 94.52 62.0701 94.84C62.1001 95.04 62.1401 95.22 62.1901 95.41C62.2701 95.69 62.3401 95.98 62.4901 96.22C62.5901 96.42 62.8201 96.52 62.9401 96.65C62.9701 96.68 63.0101 96.7 63.0301 96.73C63.1201 96.84 63.0901 96.93 62.9101 97.2L62.8001 97.37C62.6801 97.55 62.4601 97.67 62.2701 97.61C61.6201 97.47 61.3301 96.91 61.1701 96.43C61.0401 96.06 60.9901 95.7 60.9301 95.34H60.9601V95.36Z" fill="#231F20"/>
<path d="M61.33 96.57C61.89 96.1 62.45 95.63 63.01 95.16C63.22 94.98 63.38 94.76 63.59 94.6C64.36 94.01 65.16 93.49 65.92 92.96C66.25 92.72 66.56 92.45 66.87 92.2C67.27 91.87 67.59 91.45 68.19 91.36C68.37 91.32 68.49 91.49 68.57 91.8C68.61 91.95 68.65 92.14 68.67 92.34C68.7 92.55 68.68 92.74 68.58 92.85C68.25 93.27 67.93 93.69 67.56 94.04C67.17 94.38 66.77 94.7 66.32 94.98C65.78 95.31 65.44 95.85 65.02 96.31L63.62 97.86L62.75 98.84C62.33 99.35 61.83 99.81 61.45 100.35C61.15 100.77 60.99 101.29 60.77 101.77C60.72 101.88 60.69 102 60.63 102.09C60.39 102.44 60.13 102.39 59.51 101.99C59.37 101.9 59.22 101.81 59.08 101.71C58.62 101.38 58.36 100.94 58.39 100.57C58.56 99.54 59.14 98.8 59.75 98.07C60.19 97.52 60.75 97.06 61.27 96.56L61.32 96.6L61.33 96.57Z" fill="#231F20"/>
<path d="M87.3901 92.48C87.4101 93.19 87.6501 89.9 87.7801 87.92L88.2101 81.31L88.4001 76.48C88.7301 70.8 89.0101 65.12 89.1801 59.43C89.2501 56.91 89.2301 54.37 89.1801 51.87C89.1601 50.26 89.0501 48.66 89.0801 47.05C89.0801 45.44 89.0801 43.83 89.3201 42.22C89.5701 41.21 89.5601 41.34 89.9901 42.17C90.2101 42.58 90.4701 43.18 90.7801 43.9C91.0501 44.62 91.2201 45.48 91.3201 46.41C91.5101 48.06 91.5601 49.71 91.6001 51.36C91.6401 53.01 91.6601 54.66 91.6701 56.31C91.6701 59.61 91.6001 62.92 91.4101 66.24C91.1801 70.21 91.2501 74.34 91.1301 78.41C90.9801 82.88 90.7901 87.34 90.4601 91.81C90.4201 92.33 90.3401 93.64 90.2401 94.61C90.1901 95.12 90.1401 95.64 90.0101 96.03C89.8801 96.42 89.7301 96.72 89.5701 96.97C89.4801 97.07 89.4301 97.24 89.2701 97.27L88.8601 97.17C88.7401 97.15 88.5401 97.06 88.3801 97C88.2101 96.93 88.0601 96.9 87.8501 96.72C87.0801 96.2 86.2801 95.45 85.5001 94.83L84.8401 94.3L84.2401 93.83C83.8401 93.52 83.4301 93.22 83.0201 92.93C82.1901 92.36 81.3401 91.81 80.4501 91.33C78.6901 90.35 76.8001 89.59 74.8801 88.98C71.8801 88.05 68.8001 87.65 65.7401 87.53C65.0701 87.5 64.4001 87.53 63.7301 87.52C61.2301 87.51 60.4601 87.4 59.8301 86.58C59.6901 86.4 59.5001 86.22 59.4001 86.04C59.0701 85.45 60.1001 84.68 62.1101 84.45C65.0801 84.12 68.1501 84.33 71.1901 84.89C74.2301 85.47 77.2501 86.41 80.1401 87.78C82.2901 88.79 84.3301 90.09 86.1901 91.53L86.8801 92.07L87.1801 92.32L87.2201 92.39L87.2801 92.46C87.2801 92.46 87.3001 92.43 87.3101 92.4L87.3801 92.48H87.3901Z" fill="#231F20"/>
<path d="M48.42 80.85L49.84 79.21L51.45 77.4C52.53 76.2 53.64 75.02 54.76 73.86C55.58 73.02 56.34 72.11 57.2 71.3C60.19 68.42 63.35 65.72 66.65 63.22C68.1 62.1 69.56 60.98 71.01 59.87C72.84 58.42 74.8 57.1 76.99 56.21C77.69 55.96 77.69 56.14 77.37 56.78C77.08 57.46 76.44 58.52 75.46 59.41C74.61 60.23 73.66 60.91 72.74 61.63L69.97 63.78C68.15 65.24 66.32 66.7 64.48 68.18C62.26 69.93 60.27 72.1 58.28 74.19C56.09 76.48 53.96 78.86 51.93 81.31L50.99 82.44L50.39 83.19C50.16 83.49 49.92 83.76 49.68 84.02L49.5 84.22C49.43 84.26 49.4 84.41 49.3 84.35L48.77 84.2C48.41 84.1 48.07 84 47.71 83.91L46.93 83.71C46.7 83.65 46.46 83.61 46.23 83.55C43.39 82.95 40.44 82.63 37.53 82.59C35.26 82.58 33.04 82.9 30.82 83.23C30.33 83.31 29.86 83.39 29.37 83.48C27.54 83.69 26.93 83.46 26.41 82.61C26.29 82.42 26.15 82.23 26.07 82.03C25.8 81.38 26.49 80.69 27.85 80.23C31.92 79.08 36.42 78.88 40.92 79.24C42.59 79.42 44.26 79.74 45.91 80.14C46.32 80.23 46.74 80.36 47.15 80.47C47.36 80.53 47.56 80.58 47.77 80.65L48.08 80.75C48.17 80.78 48.34 80.83 48.28 80.81C48.3 80.84 48.35 80.87 48.37 80.81L48.42 80.86V80.85Z" fill="#231F20"/>
<path d="M49.34 59.9C52.6301 57.91 55.9501 55.99 59.25 54.07C60.46 53.37 61.6101 52.6 62.82 51.91C67.08 49.48 71.33 47.05 75.5 44.49C77.34 43.34 79.1501 42.13 80.9001 40.87C82.0101 40.05 83.1301 39.23 84.25 38.42C85.37 37.61 86.45 36.75 87.84 36.3C88.7 36 88.69 36.18 88.39 37C88.1101 37.84 87.5601 39.38 86.25 40.31C81.7001 43.77 76.9701 46.98 71.93 49.74C68.9201 51.4 65.9601 53.39 62.9701 55.19C59.6701 57.17 56.3701 59.12 53.1101 61.13C51.1 62.37 49.1 63.61 47.1301 64.9C45.6401 65.88 44.16 66.88 42.69 67.89C41.25 68.94 39.7901 69.95 38.4101 71.06C37.3401 71.92 36.3 72.8 35.28 73.7C34.28 74.62 33.3101 75.56 32.2901 76.46C31.8401 76.85 31.4501 77.29 31.0001 77.69C29.3701 79.21 28.6701 79.49 27.8301 79.29C27.6401 79.25 27.4301 79.23 27.2701 79.16C26.7701 78.94 27.1001 77.94 28.2001 76.68C31.4401 72.91 35.47 69.55 39.67 66.43C42.78 64.1 46.0401 61.96 49.2901 59.84L49.34 59.9Z" fill="#231F20"/>
<path d="M74.2698 121.4C72.1698 121.79 70.0498 121.9 67.9398 122.07C66.8798 122.11 65.8198 122.09 64.7598 122.11C64.2298 122.11 63.6998 122.13 63.1698 122.11L61.5798 122.01C57.3498 121.81 53.1598 121.07 49.0698 120L46.0198 119.13L43.0398 118.05C42.0298 117.72 41.0798 117.26 40.1098 116.82C39.1598 116.36 38.1598 116 37.2398 115.46L34.4498 113.93C33.5298 113.4 32.6698 112.78 31.7698 112.21L30.4398 111.33L29.1798 110.35C28.3498 109.68 27.4798 109.07 26.6998 108.36C22.0398 104.28 18.0198 99.39 15.2498 93.81C12.8398 88.88 11.3298 83.52 10.7998 78.1C10.2298 72.68 10.5498 67.23 11.4198 61.91C12.3398 56.56 14.0598 51.34 16.5598 46.53C19.0898 41.74 22.2698 37.3 26.0698 33.47C32.7798 26.64 41.1698 21.41 50.2498 18.58C53.1498 17.63 56.1498 16.97 59.1798 16.53C62.2098 16.06 65.2898 15.94 68.3498 16.05C71.4198 16.13 74.4698 16.65 77.4398 17.37C80.4298 18.05 83.2998 19.21 86.0098 20.58C89.3498 22.42 88.6598 22.5 85.5898 21.69C84.0498 21.3 81.8398 20.88 79.2598 20.36C76.6498 19.92 73.6198 19.48 70.3198 19.26C58.5898 18.35 46.6698 21.87 36.8998 28.48C27.0898 35.03 19.3298 44.83 15.7998 56.25C14.7398 59.65 14.0898 63.21 13.7498 66.87C13.3998 70.51 13.3698 74.2 13.7698 77.85C14.4998 85.16 17.1798 92.23 21.4098 98.18C21.9798 99.01 22.6198 99.79 23.2198 100.59L25.2198 102.84C25.8598 103.62 26.6198 104.28 27.3498 104.97C28.0998 105.64 28.7798 106.39 29.5998 106.98L31.9798 108.85C32.7998 109.44 33.6598 109.97 34.4998 110.53C34.9298 110.8 35.3398 111.1 35.7698 111.35L37.0998 112.08C37.9998 112.55 38.8498 113.1 39.7798 113.5C43.4198 115.29 47.2798 116.58 51.2098 117.61C55.1698 118.54 59.2098 119.07 63.2798 119.23C73.2598 119.47 83.4498 117.2 91.8498 111.78C95.0198 109.72 97.9998 107.35 100.61 104.6C103.22 101.85 105.53 98.82 107.51 95.58C111.36 89.05 113.83 81.7 114.48 74.2C114.92 68.38 114.54 62.5 113.04 56.95C111.56 51.4 109 46.18 105.58 41.6C104.86 40.56 104.02 39.64 103.21 38.7C102.43 37.73 101.48 36.9 100.61 35.98C97.2198 32.72 94.5898 31.05 92.8198 29.81C91.9198 29.2 91.2098 28.71 90.6198 28.31C90.0298 27.89 89.5898 27.47 89.1698 27.13C88.7998 26.8 88.2698 26.42 88.0598 26.17C87.6998 25.74 88.4998 25.72 90.3098 26.14C92.0798 26.63 94.7398 27.77 97.7898 29.84C102.26 32.95 106.28 36.88 109.47 41.51C112.65 46.14 115 51.42 116.38 56.98C117.77 62.56 118.07 68.34 117.69 74.1C117.22 79.86 115.87 85.61 113.49 90.92C110.02 98.83 104.63 105.9 97.8498 111.3C91.0398 116.64 82.8098 120.25 74.2998 121.49L74.2698 121.42V121.4Z" fill="#231F20"/>
<path d="M58.0898 92.5L58.3898 88.8L58.4998 86.96L58.5398 86.04L58.5598 85.39V84.54L61.0398 81.51C61.8798 80.5 62.6398 79.43 63.4698 78.42C66.3998 74.84 69.2798 71.21 71.9698 67.45C73.1698 65.78 74.2598 64.03 75.3298 62.31C76.0198 61.2 76.6398 60.06 77.2898 58.93C77.9798 57.83 78.7698 56.78 79.5398 55.7C80.0398 55.03 80.0398 55.15 79.9898 55.88C79.9698 56.25 79.9498 56.79 79.9298 57.45C79.8898 58.11 79.7498 58.83 79.5298 59.59C77.2598 64.6 74.1898 69.09 70.8098 73.37C68.7898 75.92 66.9198 78.74 64.8898 81.38L63.1098 83.67L62.1998 84.8L61.7398 85.35C61.6798 85.42 61.6098 85.49 61.5598 85.56L61.4498 87.73L61.2698 90.31C61.0998 92.57 60.8798 94.77 60.6698 97.06C60.5298 98.47 60.3898 99.88 60.2498 101.28L60.1798 101.9C60.1798 101.9 60.1798 102.01 60.1598 102.05L60.1198 102.12L60.0398 102.27L59.7398 102.88L59.4498 103.5L59.4098 103.58V103.6H59.3998C59.3398 103.38 59.5298 104.1 59.2698 103.1C59.2698 103.1 59.2498 103.09 59.2398 103.08L59.1398 102.98L58.9298 102.79C58.6398 102.53 58.3398 102.28 57.9398 102.07C57.5098 102.04 57.0398 100.68 56.5998 100.07L55.8598 98.86L55.1898 97.8C54.8398 97.26 54.4598 96.73 54.0898 96.21C53.3398 95.16 52.5698 94.13 51.7998 93.1C51.4498 92.65 51.1198 92.22 50.7698 91.77C50.1398 90.93 49.7698 90.35 49.6198 89.86C49.4598 89.38 49.4698 89.02 49.5998 88.63C49.6598 88.45 49.6998 88.25 49.7798 88.11C50.0298 87.63 50.9798 88.02 52.1198 89.17C53.6798 90.96 55.0698 92.92 56.4098 94.95C56.7498 95.45 57.0598 95.98 57.4098 96.48C57.6498 96.84 57.5798 96.73 57.5998 96.75H57.6098C57.6198 96.75 57.6098 96.72 57.6098 96.72C57.6098 96.72 57.6098 96.74 57.6298 96.75C57.6298 96.75 57.6398 96.75 57.6498 96.75C57.6498 96.75 57.6498 96.75 57.6598 96.74L57.6798 96.53L57.7198 96.08L57.9998 92.47H58.0798L58.0898 92.5Z" fill="#231F20"/>
<path d="M102.31 18.97C102.43 19.15 102.19 19.32 101.76 19.48C101.62 19.53 101.21 19.55 101.14 19.5C101.01 19.4 100.88 19.3 100.79 19.2C100.74 19.14 100.32 18.13 100.21 17.78C100.08 17.45 100.03 17.11 99.9898 16.77L99.7298 14.71C99.7098 14.56 99.7298 14.4 99.7598 14.25C99.8798 13.72 99.8398 13.19 99.7398 12.67C99.7198 12.58 99.7398 12.49 99.6298 12.41C99.4698 12.28 99.3098 10.86 99.3698 10.67C99.5398 10.2 99.6398 9.74003 99.7698 9.27003C99.7898 9.20003 99.7498 9.14003 99.8598 9.07003C100.11 8.92003 100.06 8.78003 100.09 8.63003C100.14 8.43003 100.15 8.23003 100.3 8.03003C100.36 7.93003 100.51 7.82003 100.61 7.72003C100.7 7.63003 100.97 7.66003 101.01 7.69003C101.11 7.77003 101.24 7.69003 101.36 7.68003C101.4 7.68003 101.45 7.67003 101.49 7.68003C101.56 7.68003 102.54 8.77003 102.48 8.89003C102.48 8.92003 102.83 10.52 102.87 10.74C102.9 10.84 102.84 10.94 102.8 11.04C102.79 11.09 103.02 12.4 103.01 12.45C102.99 12.73 103.08 13 102.87 13.28C102.83 13.34 102.84 13.39 102.85 13.45C102.89 13.92 102.82 14.4 102.77 14.87C102.75 15.11 102.78 15.35 102.78 15.59C102.78 15.63 102.75 15.68 102.74 15.72C102.72 15.78 102.7 15.83 102.7 15.89C102.73 16.46 102.64 17.03 102.74 17.6C102.77 17.73 102.55 18.37 102.56 18.52C102.56 18.6 102.25 18.9 102.3 18.97H102.31Z" fill="#231F20"/>
<path d="M106.02 22.72C105.9 22.89 105.67 22.75 105.4 22.45C105.31 22.36 105.17 22.01 105.19 21.94C105.24 21.8 105.29 21.67 105.35 21.55C105.39 21.48 106.21 20.85 106.48 20.62C106.74 20.39 107.03 20.22 107.33 20.07L109.13 19.13C109.26 19.06 109.41 19.02 109.56 19C110.09 18.94 110.55 18.71 111.02 18.49C111.1 18.45 111.18 18.43 111.23 18.32C111.31 18.13 112.61 17.63 112.81 17.63C113.29 17.65 113.74 17.57 114.22 17.59C114.29 17.59 114.34 17.54 114.43 17.63C114.64 17.83 114.76 17.75 114.9 17.73C115.09 17.7 115.29 17.69 115.5 17.72C115.6 17.73 115.73 17.83 115.85 17.91C115.96 17.98 116.02 18.31 116 18.36C115.95 18.49 116.06 18.62 116.11 18.75C116.13 18.79 116.15 18.85 116.16 18.89C116.17 18.96 115.35 19.93 115.24 19.98C115.22 20.03 113.79 20.69 113.64 20.78C113.56 20.83 113.45 20.81 113.35 20.8C113.3 20.8 112.18 21.39 112.13 21.4C111.88 21.46 111.66 21.63 111.34 21.5C111.28 21.48 111.23 21.5 111.18 21.52C110.76 21.68 110.31 21.74 109.86 21.83C109.63 21.88 109.42 21.97 109.21 22.04C109.17 22.05 109.12 22.04 109.08 22.04C109.02 22.04 108.97 22.04 108.92 22.05C108.41 22.24 107.86 22.33 107.38 22.58C107.27 22.63 106.63 22.66 106.51 22.74C106.44 22.78 106.08 22.63 106.04 22.7L106.02 22.72Z" fill="#231F20"/>
</svg>
