<svg width="128" height="128" viewBox="0 0 128 128" fill="none" xmlns="http://www.w3.org/2000/svg">
<path d="M32.5202 33.78L33.2602 32.32C33.3802 32.08 33.5202 31.83 33.6602 31.58C33.8002 31.32 33.9402 31.1 34.1702 30.75C34.6402 29.88 35.9102 29.64 36.3702 29.57C36.9802 29.48 37.5402 29.45 38.1002 29.43C38.9202 29.4 39.7202 29.35 40.5102 29.4C43.3102 29.56 46.0602 29.98 48.7802 30.53C49.9802 30.78 51.2002 31 52.3802 31.35C53.1402 31.56 53.9002 31.79 54.6402 32.08C55.3702 32.4 56.0902 32.78 56.7102 33.3C57.0202 33.75 56.9802 33.66 56.5002 33.7C56.0202 33.72 55.2302 33.74 54.3802 33.6C52.9202 33.2 51.4002 33 49.9102 32.68C48.4102 32.36 46.8802 32.09 45.3402 31.82C43.4902 31.5 41.5302 31.51 39.6402 31.52C38.6102 31.52 37.5502 31.57 36.6302 31.74C36.5202 31.76 36.4002 31.79 36.3302 31.81C36.2802 31.81 36.2302 31.84 36.1702 31.86C36.0602 31.92 36.0302 31.95 35.9202 32.14C35.6802 32.52 35.4502 33.01 35.2202 33.48C34.6702 34.65 34.1402 35.85 33.6302 37.06C32.8502 38.89 32.0302 40.72 31.3402 42.58C30.8002 44.02 30.3902 45.48 29.9202 46.93C29.8102 47.25 29.7302 47.57 29.6102 47.88C29.1602 49.05 28.8702 49.37 28.2602 49.42C28.1202 49.43 27.9802 49.46 27.8502 49.45C27.4202 49.41 27.2702 48.8 27.4702 47.9C28.0202 45.2 28.9802 42.49 29.9802 39.78C30.3502 38.77 30.7502 37.77 31.1502 36.77C31.5602 35.77 32.0302 34.79 32.4802 33.8L32.5302 33.82L32.5202 33.78Z" fill="#231F20"/>
<path d="M90.2902 36.65C89.9002 35.9 89.4702 35.16 88.9702 34.48C88.7902 34.23 88.5602 34.02 88.3802 33.8L88.1702 33.54C88.1702 33.54 88.1102 33.48 88.0702 33.46C88.0302 33.44 88.0002 33.43 87.9302 33.42C87.8302 33.42 87.7202 33.39 87.5902 33.4C87.0902 33.4 86.5402 33.49 85.9902 33.61C85.5102 33.72 85.0302 33.9 84.5602 34.07C84.2602 34.18 83.9602 34.31 83.6502 34.42C83.5002 34.48 83.3302 34.52 83.1502 34.51C82.9802 34.51 82.8002 34.51 82.6102 34.51C82.3702 34.48 82.4202 34.41 82.5502 34.25C82.6102 34.17 82.7002 34.03 82.7902 33.88C82.8502 33.78 82.9002 33.7 82.9402 33.63C82.9702 33.59 83.0002 33.55 83.0202 33.5C83.0602 33.47 83.1002 33.45 83.1302 33.43C84.2802 32.83 85.4702 32.17 86.9302 31.94C87.1602 31.92 87.3702 31.87 87.6302 31.85L88.0602 31.81C88.2302 31.83 88.4102 31.84 88.5702 31.88C88.8902 31.94 89.2402 32.15 89.4102 32.31C89.5902 32.46 89.7602 32.61 89.9002 32.77C90.5502 33.46 91.1202 34.19 91.6502 34.95C91.9802 35.41 92.2802 35.9 92.5702 36.39C93.0102 37.13 93.3802 37.92 93.7602 38.7C94.0602 39.3 94.4602 39.86 94.7402 40.5C94.8002 40.64 94.8902 40.77 94.9402 40.92C95.1002 41.48 94.9802 41.7 94.3902 41.91C94.2602 41.96 94.1202 42.01 93.9802 42.05C93.5102 42.16 93.0802 42.02 92.8902 41.72C92.3002 40.83 91.8902 39.88 91.4002 38.89C91.0402 38.16 90.6502 37.42 90.2202 36.7L90.2602 36.67L90.2902 36.65Z" fill="#231F20"/>
<path d="M18.7202 108.86L26.2502 106.98L32.7102 113.07L18.7202 108.86Z" fill="#231F20"/>
<path d="M99.9199 113.83C100.48 113.27 103.05 108.94 103.05 108.94L112.34 110.52L99.9199 113.84V113.83Z" fill="#231F20"/>
<path d="M102.34 111.81C101.86 112.36 101.35 112.86 100.84 113.34C100.66 113.52 100.52 113.73 100.33 113.89C99.6502 114.47 98.9602 115 98.2602 115.51C97.9502 115.74 97.7002 116.02 97.4102 116.25C97.2402 116.4 97.0602 116.56 96.8902 116.71C96.8102 116.78 96.7202 116.84 96.6402 116.91C96.6002 116.94 96.5702 116.96 96.5302 116.99C96.5202 116.99 96.4902 117.03 96.4502 116.92C96.4302 116.87 96.3102 117.14 96.0202 117.04C95.9602 116.99 95.8702 116.87 95.8502 116.79C95.8202 116.68 95.8002 116.58 95.7902 116.49C95.7702 116.28 95.7902 116.1 95.8502 115.95C96.1002 115.43 96.2902 114.92 96.6302 114.57C96.9702 114.21 97.3202 113.88 97.7402 113.61C98.2502 113.29 98.5802 112.78 98.9702 112.35C99.4102 111.88 99.8402 111.42 100.24 110.92C100.49 110.62 100.72 110.31 100.92 109.99C101.22 109.5 101.52 109 101.62 108.46C101.7 108.04 101.59 107.62 101.45 107.28C101.43 107.2 101.36 107.14 101.34 107.07C101.32 106.8 101.45 106.7 102.06 106.45L102.46 106.28C102.91 106.1 103.35 106.16 103.61 106.51C103.98 107.02 104.06 107.65 104.03 108.24C103.99 108.82 103.84 109.39 103.61 109.88C103.29 110.63 102.84 111.26 102.39 111.84L102.34 111.81Z" fill="#231F20"/>
<path d="M28.34 106.88C30.46 99.32 32.54 91.76 34.77 84.23C35.36 82.22 32.23 81.36 31.64 83.37C29.42 90.9 27.33 98.46 25.21 106.02C24.64 108.04 27.78 108.9 28.34 106.88Z" fill="#231F20"/>
<path d="M104.62 106.38C101.8 99.12 99.35 91.72 96.37 84.51C96.03 83.69 95.29 83.13 94.37 83.38C93.6 83.58 92.9 84.57 93.24 85.38C96.22 92.59 98.67 99.98 101.49 107.25C102.24 109.18 105.38 108.34 104.62 106.39V106.38Z" fill="#231F20"/>
<path d="M52.9801 53.4C53.1401 53.32 45.6401 82.41 34.0601 78.64C26.2501 76.1 30.4601 58.33 31.3001 55.07C31.3801 54.77 44.0401 57.92 52.9701 53.4H52.9801Z" fill="#231F20"/>
<path d="M75.13 58.77C74.96 58.65 83.32 83.05 93.29 79.65C99.15 77.65 94.96 60.03 94.77 60.08C92.58 60.6 80.64 62.58 75.13 58.77Z" fill="#231F20"/>
<path d="M57.1501 42.96C57.1501 43.79 56.6701 44.47 56.2101 44.8C56.0401 44.93 55.8901 45.07 55.7101 45.15C55.0601 45.41 54.3301 45.45 53.7001 45.12C53.4301 44.97 53.1601 44.76 53.0501 44.48C52.8801 44.16 52.8601 43.68 53.1601 43.41C53.2601 43.33 53.3401 43.44 53.4401 43.57C53.5301 43.71 53.7301 43.82 53.8001 43.85C53.9001 43.94 54.0901 43.94 54.1001 43.94C54.1201 43.94 54.2001 43.98 54.3401 44.02C54.5301 44.07 54.7101 43.88 54.8501 43.74C55.0101 43.59 55.1001 43.45 55.1201 43.34C55.1401 43.26 55.1201 43.18 55.1101 43.15C55.1101 43.12 54.9901 43 54.8101 43.07C54.6901 43.13 54.5901 43.35 54.5101 43.54C54.4901 43.58 54.4801 43.65 54.4501 43.68C54.3401 43.81 54.2001 43.69 53.7801 43.1L53.5001 42.7C53.1901 42.23 53.0201 41.8 53.1201 41.57C53.2601 41.23 53.5501 40.95 53.9901 40.77C54.4301 40.59 55.0401 40.6 55.5901 40.79C56.0101 40.93 56.4501 41.22 56.7601 41.64C57.0801 42.07 57.2001 42.54 57.2101 42.96H57.1601H57.1501Z" fill="#231F20"/>
<path d="M76.09 49.32C75.71 49.96 75 50.35 74.31 50.41C74.2 50.41 74.1 50.42 73.99 50.43C73.85 50.43 73.7 50.43 73.56 50.39C72.7 50.14 72.12 49.39 72.13 48.59C72.13 48.24 72.21 47.92 72.39 47.67C72.5 47.51 72.64 47.36 72.81 47.27C73 47.19 73.22 47.2 73.39 47.25C73.5 47.29 73.48 47.35 73.43 47.49C73.38 47.61 73.38 47.9 73.44 48.06C73.44 48.23 73.59 48.37 73.61 48.38C73.63 48.38 73.59 48.38 73.56 48.38H73.52L73.63 48.35C73.62 48.35 73.61 48.37 73.59 48.43C73.55 48.6 73.71 48.61 73.81 48.64H73.84C73.96 48.69 74.12 48.67 74.26 48.58C74.35 48.52 74.44 48.43 74.48 48.31C74.53 48.11 74.55 48.01 74.39 47.89C74.27 47.81 74.07 47.89 74.03 47.99C74.02 48 74.02 48.05 74.02 48.05C74.02 48.07 74.01 48.02 74.01 48.02C74.01 48.02 74.01 48.01 73.98 47.96C73.93 47.88 73.84 47.76 73.68 47.57L73.45 47.32C73.18 47.06 73.07 46.7 73.35 46.44C73.75 46.08 74.34 45.98 74.83 46.1C75.33 46.21 75.8 46.51 76.13 47.02C76.65 47.9 76.49 48.67 76.15 49.33L76.1 49.31L76.09 49.32Z" fill="#231F20"/>
<path d="M83.7998 42.93C83.4098 43.44 82.9598 43.71 82.4898 43.9C82.3198 43.96 82.1498 44.1 81.8998 44.13C81.4598 44.21 80.8498 44.05 80.5498 43.76C80.2398 43.46 80.0998 43.13 80.0398 42.8C79.9798 42.5 79.9698 42.25 79.9898 42.01C79.9898 41.7 80.1698 41.44 80.4598 41.32C80.5598 41.28 80.7398 41.41 80.9598 41.58C81.1698 41.75 81.4798 41.95 81.5698 42.02C81.6298 42.08 81.7698 42.13 81.7798 42.13C81.7498 42.13 81.6198 42.13 81.5798 42.13H81.5498L81.3998 42.17H81.4198L81.4598 42.15C81.4598 42.15 81.4498 42.15 81.4098 42.2C81.3698 42.25 81.3298 42.34 81.3298 42.37C81.3298 42.37 81.3298 42.22 81.2198 41.97C81.1698 41.86 81.1898 41.91 81.1998 41.9C81.1998 41.9 81.2198 41.9 81.2298 41.9H81.2998C81.3498 41.88 81.3998 41.86 81.4498 41.84L81.5698 41.78C81.5698 41.78 81.5698 41.78 81.6098 41.78H81.6298L81.8798 41.71C81.8398 41.71 81.7498 41.78 81.7198 41.83C81.6598 41.92 81.7498 41.81 81.7198 41.63C81.7198 41.59 81.7098 41.57 81.6998 41.54C81.6398 41.45 81.7498 41.57 81.6498 41.48C81.5098 41.37 81.3598 41.26 81.2198 41.16C80.7098 40.85 80.3598 40.38 80.6898 39.94C81.1898 39.33 81.9798 39.2 82.5398 39.34C83.1198 39.48 83.6498 39.84 83.9998 40.49C84.2798 41.03 84.2898 41.49 84.2398 41.9C84.1798 42.31 84.0298 42.66 83.8598 42.94L83.7998 42.91V42.93Z" fill="#231F20"/>
<path d="M65.43 29.67C65.31 30.04 65.12 30.37 64.87 30.66C64.59 30.93 64.29 31.15 63.96 31.3C63.74 31.4 63.52 31.51 63.27 31.54H63.21C62.26 31.6 61.44 31.04 61.13 30.34C60.97 30.02 60.91 29.69 60.93 29.37C60.93 28.98 61.09 28.5 61.53 28.36C61.66 28.32 61.77 28.5 61.9 28.72C62.01 28.94 62.27 29.19 62.34 29.25C62.4 29.36 62.49 29.43 62.54 29.44C62.54 29.45 62.51 29.47 62.51 29.62C62.53 29.77 62.67 29.76 62.76 29.75H62.81C62.95 29.75 63.12 29.69 63.25 29.54C63.33 29.45 63.41 29.33 63.41 29.2L63.54 29.16L63.59 29.14C63.59 29.14 63.64 29.11 63.6 29.14C63.58 29.16 63.52 29.21 63.49 29.26C63.49 29.26 63.49 29.25 63.47 29.24C63.41 29.19 63.28 29.15 63.17 29.15C62.98 29.15 62.82 29.34 62.74 29.48C62.72 29.51 62.71 29.56 62.7 29.58C62.64 29.66 62.55 29.54 62.15 29.08L61.87 28.77C61.55 28.42 61.4 28.03 61.58 27.76C62.1 26.98 63.21 26.77 64.16 27.14C64.34 27.21 64.55 27.3 64.8 27.5C65.04 27.68 65.32 28.02 65.45 28.37C65.59 28.77 65.57 28.89 65.57 29.1C65.57 29.29 65.54 29.49 65.49 29.68H65.44L65.43 29.67Z" fill="#231F20"/>
<path d="M72.4101 26.75C72.2001 27.23 71.7101 27.57 71.2701 27.65C71.1101 27.68 70.9601 27.72 70.8001 27.7C70.2601 27.65 69.8001 27.27 69.6401 26.83C69.5701 26.64 69.5001 26.46 69.5201 26.27C69.5201 26.03 69.6101 25.79 69.7901 25.64C69.8501 25.59 69.8801 25.63 69.9201 25.71C69.9601 25.79 70.0501 25.91 70.0901 25.99C70.2901 26.3 70.4101 26.37 70.4901 26.5C70.5601 26.59 70.7101 26.58 70.8201 26.55C70.9501 26.53 71.0301 26.51 71.1001 26.42C71.1401 26.37 71.1801 26.3 71.1901 26.26C71.2101 26.22 71.2001 26.13 71.0401 26.11C70.9201 26.1 70.7501 26.2 70.5601 26.26C70.5201 26.27 70.4701 26.3 70.4301 26.31C70.2501 26.33 70.1801 26.23 70.1801 25.85V25.59C70.2101 25.3 70.2801 25.07 70.3701 24.99C70.5101 24.87 70.6701 24.8 70.9101 24.77C71.1401 24.75 71.4801 24.76 71.8801 25C72.1601 25.17 72.4001 25.48 72.5001 25.84C72.5901 26.19 72.5501 26.51 72.4501 26.77H72.4201L72.4101 26.75Z" fill="#231F20"/>
<path d="M72.2702 15.15C72.3202 16.14 71.6602 16.72 71.0002 16.88C70.7702 16.93 70.5602 16.98 70.3502 16.95C69.6402 16.82 69.1802 16.34 68.9302 15.87C68.8102 15.66 68.7302 15.44 68.6702 15.22C68.5902 14.95 68.5502 14.62 68.7302 14.36C68.7902 14.28 68.9902 14.35 69.2002 14.44C69.4102 14.54 69.6702 14.62 69.7202 14.68C69.8102 14.79 69.9102 14.87 69.9902 14.94C70.0702 15.01 70.0702 15.12 70.1102 15.24C70.1602 15.4 70.3402 15.36 70.4002 15.36H70.4402L70.4902 15.44C70.4902 15.44 70.4702 15.41 70.4602 15.39C70.4402 15.36 70.4402 15.38 70.5302 15.39C70.5802 15.4 70.6402 15.39 70.6502 15.39C70.6002 15.41 70.5902 15.42 70.5502 15.44C70.5502 15.44 70.5502 15.43 70.5502 15.42C70.5002 15.34 70.3102 15.19 70.1402 15.22C69.9902 15.23 69.8802 15.4 69.8302 15.52C69.8202 15.55 69.8202 15.59 69.8102 15.61C69.7702 15.67 69.7002 15.57 69.3402 15.21L69.0902 14.96C68.8002 14.69 68.6502 14.36 68.7902 14.14C69.1902 13.47 70.0802 13.27 70.8402 13.52C71.1302 13.62 71.3902 13.75 71.6602 13.98C71.9202 14.2 72.2302 14.6 72.3002 15.14H72.2602L72.2702 15.15Z" fill="#231F20"/>
<path d="M59.7098 13.09C59.5598 13.31 59.3498 13.58 59.0398 13.79C58.7298 14 58.3598 14.09 58.0498 14.09C57.8298 14.09 57.6098 14.09 57.4198 14.02C56.7698 13.74 56.3898 13.08 56.3498 12.58C56.3198 12.35 56.2898 12.14 56.2898 11.94C56.2698 11.68 56.3898 11.43 56.5798 11.24C56.6498 11.18 56.7598 11.23 56.9098 11.32C57.0498 11.41 57.2798 11.55 57.3598 11.65C57.5298 11.83 57.5598 11.95 57.5898 12.05C57.6298 12.14 57.6498 12.21 57.6298 12.29C57.5998 12.39 57.7798 12.35 57.8098 12.34C57.8298 12.34 57.8298 12.36 57.8598 12.44C57.8598 12.44 57.9098 12.5 57.8298 12.42C57.8298 12.42 57.8398 12.42 57.8598 12.41C57.8998 12.38 57.9798 12.27 58.0198 12.14C58.0998 11.96 58.1698 11.78 58.1098 11.68C58.0898 11.64 58.0398 11.65 57.9998 11.66C57.9598 11.66 57.8798 11.77 57.9398 11.67C57.9498 11.64 57.9698 11.61 57.9698 11.59C57.9798 11.53 57.9798 11.51 57.9798 11.5C57.9798 11.5 57.9798 11.5 57.9798 11.49C57.9798 11.45 57.9598 11.32 57.9298 11.21L57.8398 10.89C57.7198 10.54 57.7698 10.17 58.1298 10.05C58.6498 9.89001 59.1598 10.09 59.5198 10.42C59.6998 10.58 59.8598 10.83 59.9498 11.04C60.0398 11.26 60.0898 11.48 60.1098 11.68C60.1398 11.98 60.1098 12.25 60.0498 12.48C59.9798 12.71 59.8898 12.88 59.7598 13.13L59.7098 13.11V13.09Z" fill="#231F20"/>
<path d="M27.6101 56.16C26.8701 59.78 26.3401 63.42 26.2001 67.03C26.1801 67.48 26.1501 67.93 26.1501 68.38L26.1901 69.72C26.1901 70.62 26.2901 71.49 26.3901 72.36C26.4201 72.8 26.5001 73.23 26.5901 73.64C26.6801 74.06 26.7501 74.49 26.8601 74.9L27.2401 76.1C27.3601 76.5 27.5701 76.84 27.7301 77.22C28.2701 78.26 28.9201 79.22 29.8101 79.91C30.6801 80.62 31.7101 81.14 32.9101 81.58C33.9201 81.94 34.9301 82.21 35.9701 82.26C37.0001 82.31 38.0301 82.18 39.0301 81.88C41.0501 81.29 42.8901 79.95 44.5101 78.36C47.7301 75.1 50.0801 70.88 52.0301 66.55C53.7901 62.65 55.2401 58.65 56.6701 54.64C58.4701 49.49 60.0501 44.27 62.0201 39.2C62.7301 37.64 62.6901 37.84 62.8001 39.36C62.8301 40.11 62.9801 41.22 62.8201 42.48C62.7001 43.75 62.4701 45.21 62.0501 46.74C61.7001 48.11 61.2901 49.45 60.8401 50.78L59.4901 54.77C58.5701 57.42 57.6201 60.05 56.5901 62.68C54.5201 67.88 52.2401 73.27 48.5501 77.9C47.4401 79.28 46.2201 80.61 44.8001 81.79C43.3901 82.98 41.7401 83.99 39.8901 84.61C38.0501 85.26 36.0001 85.37 34.0801 85.04C33.5901 84.97 33.1301 84.85 32.6701 84.71C32.2001 84.59 31.7601 84.43 31.3301 84.27C30.4601 83.93 29.5601 83.53 28.7401 82.97C26.9101 81.77 25.4901 79.96 24.6901 78.03C23.8901 76.1 23.4201 74.1 23.2701 72.13C22.8801 68.18 23.2501 64.31 23.7801 60.5C24.4701 55.83 25.4701 51.22 26.8101 46.71C27.7601 43.47 28.8701 40.28 30.0901 37.14C30.7001 35.57 31.3401 34.01 32.0201 32.47C32.3601 31.7 32.7101 30.93 33.0801 30.17C33.2801 29.77 33.4401 29.44 33.6901 28.99C33.9701 28.51 34.2801 27.93 34.8301 27.77C35.0901 27.73 35.3401 27.67 35.6001 27.65H36.3101C37.7501 27.68 39.1101 27.83 40.4701 28C41.8301 28.16 43.1801 28.36 44.5201 28.58C47.2001 29.03 49.8601 29.6 52.5101 30.35C53.6801 30.67 54.8101 31.03 55.9701 31.44C60.2501 33.1 61.3901 34.45 61.6401 35.66C61.7001 35.93 61.8201 36.24 61.8001 36.43C61.7701 36.76 61.3301 36.72 60.6101 36.44C60.4301 36.37 60.2301 36.28 60.0101 36.19C59.7701 36.11 59.5201 36.01 59.2401 35.91C58.9601 35.81 58.6901 35.67 58.3801 35.53C58.0601 35.4 57.7301 35.26 57.3801 35.1C54.0701 33.66 50.3601 32.7 46.6201 31.84C44.7401 31.44 42.8301 31.07 40.9101 30.78C39.9501 30.63 38.9901 30.52 38.0401 30.47C37.5601 30.43 37.1101 30.43 36.6501 30.41C36.5301 30.41 36.4201 30.41 36.3301 30.41C36.2301 30.41 36.1001 30.42 36.1401 30.41C36.1401 30.41 36.1401 30.41 36.1301 30.44L36.0401 30.62C35.8201 31.04 35.6001 31.5 35.3901 31.96C34.9701 32.89 34.5601 33.85 34.1601 34.81C31.4001 41.7 29.0201 48.84 27.7101 56.14H27.6301L27.6101 56.16Z" fill="#231F20"/>
<path d="M23.7401 108.38C22.9601 108.55 22.1901 108.67 21.4401 108.78C21.1601 108.82 20.9001 108.91 20.6301 108.94C19.6601 109.03 18.7001 109.08 17.7501 109.11C17.3301 109.13 16.9301 109.22 16.5301 109.31C16.0201 109.4 15.5501 109.53 15.0201 109.39C14.8401 109.36 14.7801 109.31 14.8001 109.07C14.8001 108.95 14.8301 108.76 14.9101 108.53C14.9401 108.43 14.9801 108.31 15.0301 108.22C15.0901 108.14 15.1601 108.07 15.2401 108.02C15.5301 107.83 15.7701 107.68 16.0601 107.55C16.3401 107.47 16.6101 107.41 16.8901 107.35C17.4401 107.25 17.9801 107.18 18.5401 107.2C19.2101 107.23 19.8501 107.01 20.5001 106.9C21.2101 106.78 21.9201 106.66 22.6101 106.49C23.0401 106.4 23.4501 106.26 23.8601 106.14C24.1601 106.03 24.4601 105.9 24.7601 105.78C25.0401 105.64 25.3101 105.47 25.5701 105.29C25.7401 105.13 25.8901 104.94 26.0201 104.76C26.1601 104.57 26.2001 104.35 26.3001 104.17C26.3401 104.09 26.3701 104 26.3801 103.92C26.3901 103.88 26.4001 103.85 26.4201 103.82C26.4501 103.8 26.4901 103.79 26.5301 103.78C26.6001 103.76 26.6801 103.74 26.7601 103.73C26.9201 103.72 27.1101 103.73 27.3401 103.78L27.6501 103.83C27.9701 103.9 28.2001 104.16 28.3001 104.67C28.3801 105.06 28.2001 105.34 28.0601 105.62C27.9001 105.89 27.7401 106.21 27.5201 106.42C27.3101 106.64 27.0701 106.86 26.8301 107.06C26.5801 107.23 26.3301 107.38 26.0701 107.54C25.3101 107.97 24.5101 108.22 23.7401 108.45L23.7201 108.4L23.7401 108.38Z" fill="#231F20"/>
<path d="M35.3001 115.21C35.2201 115.4 35.1601 115.42 35.0701 115.48C34.9901 115.53 34.9101 115.57 34.8201 115.6C34.6301 115.67 34.43 115.73 34.1 115.73H33.5901C33.4001 115.73 33.1301 115.69 32.9101 115.66C32.5901 115.57 32.2901 115.5 31.9601 115.39L30.8601 114.98C29.7701 114.53 28.7501 114.23 27.7101 113.79L24.1501 112.4C23.1601 112.03 22.1701 111.68 21.1601 111.36C20.2701 111.08 19.3501 110.89 18.4401 110.72C17.2701 110.48 16.0601 110.53 14.9701 109.8C14.6301 109.55 14.7101 109.36 15.0901 109C15.4701 108.6 16.1701 108.03 16.8801 108.08C19.3701 108.44 21.8201 109.07 24.1601 110.04C24.8601 110.33 25.5901 110.57 26.3201 110.79L27.1401 111.04C27.3101 111.09 27.3801 111.12 27.5201 111.18C28.0701 111.42 28.8101 111.79 29.7501 112.17C29.8901 112.22 30.0501 112.28 30.2001 112.33C30.2701 112.34 30.3801 112.38 30.4301 112.33C30.4601 112.28 30.4301 112.24 30.4101 112.21C30.3201 112.07 30.1801 111.94 30.0101 111.79C29.5401 111.36 28.9601 110.81 28.3001 110.17L27.9001 109.8C27.6801 109.57 27.4601 109.34 27.2401 109.1C26.8101 108.61 26.3901 108.07 26.0701 107.42C25.9301 107.13 25.7901 106.83 25.7101 106.49C25.6401 105.84 25.7701 105.38 25.9901 105.12C26.1801 104.85 26.4301 104.75 26.7201 104.71C26.8501 104.69 26.9801 104.67 27.0901 104.68C27.4701 104.72 27.6701 105.22 28.0401 105.65C28.2901 105.97 28.4401 106.26 28.6601 106.59C28.8801 106.91 29.1501 107.25 29.4501 107.6L29.9201 108.12C30.2501 108.46 30.6401 108.89 31.0701 109.28C31.9101 110.07 32.9001 110.88 33.9301 111.71L34.4701 112.17L34.7301 112.4L34.92 112.6L35.3001 113L35.4801 113.31C35.6601 113.7 35.6401 113.95 35.7001 114.18C35.7401 114.41 35.7301 114.57 35.6901 114.71C35.67 114.78 35.6401 114.84 35.6101 114.91L35.5501 115.03L35.5001 115.12L35.4801 115.15C35.4801 115.15 35.5501 115.19 35.4101 115.11V115.14L35.3801 115.22L35.3201 115.19L35.3001 115.21Z" fill="#231F20"/>
<path d="M100.79 60.82C101.43 64.35 101.9 67.93 101.92 71.6C101.92 73.43 101.81 75.29 101.46 77.16C101.1 79.02 100.5 80.93 99.3099 82.64C98.4499 83.87 97.2499 84.97 95.8499 85.64C95.1799 85.97 94.3499 86.23 93.5999 86.34C93.2199 86.38 92.8299 86.45 92.4499 86.44L91.3299 86.4C88.7299 86.14 86.4399 85.07 84.4099 83.76C82.3699 82.44 80.6899 80.74 79.1399 78.98C76.1099 75.38 73.8799 71.28 72.0799 67.07C70.4799 63.31 69.1799 59.47 68.0099 55.64C67.6299 54.41 67.2799 53.16 66.9399 51.92C66.6299 50.66 66.3599 49.4 66.1199 48.12C65.8899 46.85 65.6899 45.57 65.5399 44.28C65.4599 43.64 65.3999 43 65.3399 42.35C65.2999 41.7 65.3099 41.05 65.3399 40.41C65.4599 38.78 65.4999 39 66.0699 40.29C66.7299 41.57 67.6499 43.92 68.3699 46.72C68.6799 47.96 69.0299 49.2 69.3999 50.43L70.4399 54.13C71.1699 56.58 71.9399 59.06 72.8199 61.48C74.5099 66.3 76.6099 70.97 79.4799 75.15C81.2099 77.62 83.3599 79.88 85.8899 81.52C87.1699 82.29 88.5099 83 89.9199 83.32C91.3099 83.67 92.7599 83.75 93.9499 83.39C95.3199 82.96 96.4899 82 97.2699 80.69C98.0499 79.38 98.5299 77.79 98.7799 76.14C99.2899 72.83 99.0799 69.33 98.6499 65.89C98.0999 61.64 97.1699 57.41 96.0399 53.24C94.3099 46.93 92.2199 40.64 89.7299 34.63L89.3799 33.81L89.1599 33.33L89.0499 33.1C88.9999 33.05 88.9899 32.89 88.8999 32.94C88.7299 33 88.5699 33.07 88.4099 33.14L87.9099 33.36L87.0299 33.73L85.2699 34.45C82.9199 35.4 80.5499 36.29 78.1099 37.06C77.0399 37.4 75.9799 37.73 74.8699 38C72.8099 38.5 71.3999 38.68 70.3999 38.67C69.4099 38.69 68.7999 38.45 68.3299 38.12C68.1099 37.97 67.8399 37.83 67.7199 37.68C67.3199 37.16 68.9299 36.62 71.7799 35.96C76.0199 34.92 80.2899 33.35 84.5699 31.62L86.1799 30.96L87.0699 30.59C87.3399 30.49 87.6099 30.36 87.8699 30.27L88.6599 30.08C88.9299 30.01 89.1899 29.94 89.4099 29.96C89.6399 29.96 89.8799 29.92 90.0899 29.96C90.2799 30.08 90.4199 30.22 90.5999 30.36C90.7799 30.49 90.9499 30.65 91.1199 30.85C91.4399 31.26 91.6399 31.85 91.8899 32.37L92.3299 33.38C93.2799 35.6 94.1599 37.83 94.9999 40.09C97.4499 46.81 99.4799 53.73 100.86 60.84L100.79 60.86V60.82Z" fill="#231F20"/>
<path d="M115.07 110.96C114.88 111.33 114.69 111.56 114.26 111.9C114.05 112.06 113.76 112.25 113.43 112.44C113.21 112.54 113.03 112.64 112.78 112.74C112.49 112.84 112.23 112.94 111.92 113.03C110.91 113.28 109.93 113.56 108.88 113.77C107.96 113.96 107.12 114.16 106.32 114.35L104.7 114.73C103.79 114.95 102.88 115.16 101.98 115.44C101.19 115.69 100.42 116.01 99.67 116.36C99.19 116.57 98.74 116.86 98.24 117.05C97.74 117.22 97.21 117.36 96.65 117.43C96.3 117.47 96.22 117.22 96.3 116.76C96.39 116.31 96.57 115.51 97.08 115.09C97.19 115 97.3 114.9 97.41 114.81L97.78 114.61L98.5199 114.21C99.0199 113.95 99.53 113.72 100.05 113.5C101.09 113.06 102.16 112.7 103.27 112.45C103.6 112.37 103.94 112.3 104.27 112.2L105.01 111.98C105.22 111.92 105.41 111.85 105.66 111.8C106.22 111.7 107.01 111.6 107.94 111.42C108.23 111.35 108.58 111.31 108.83 111.12C108.97 110.99 108.82 110.97 108.77 110.96C108.7 110.94 108.62 110.93 108.54 110.93C108.03 110.88 107.42 110.79 106.56 110.67C106.24 110.63 105.87 110.6 105.56 110.58C105.4 110.57 105.28 110.58 105.11 110.54C105.07 110.54 105.04 110.54 104.99 110.52L104.77 110.44C104.62 110.39 104.47 110.33 104.32 110.27C104.06 110.16 103.78 110.05 103.53 109.89C102.6 109.21 102.59 108.64 103.14 108.01C103.27 107.86 103.39 107.71 103.53 107.58C104.03 107.17 104.63 107.12 105.08 107.21C105.42 107.29 105.75 107.38 106.08 107.46L106.34 107.52L106.89 107.68C107.32 107.79 107.83 107.91 108.38 107.97C109.48 108.12 110.79 108.21 112.19 108.31C113.7 108.37 114.41 108.72 114.61 109.02C114.85 109.45 114.89 109.69 114.96 109.89L115.04 110.14L115.09 110.27L115.14 110.38L115.16 110.44V110.45C115.3 110.44 115.2 110.45 115.23 110.45V110.47V110.51C115.23 110.56 115.23 110.61 115.23 110.65C115.19 110.81 115.16 110.91 115.14 110.99H115.05L115.07 110.96Z" fill="#231F20"/>
</svg>
