<svg width="128" height="128" viewBox="0 0 128 128" fill="none" xmlns="http://www.w3.org/2000/svg">
<path d="M81.0001 28.0899C74.9401 27.8899 68.8001 27.9999 62.6701 27.9999C56.5401 27.9999 50.4301 28.2499 44.3301 28.6099C39.8701 28.8599 35.4401 29.2899 31.0301 29.7999C27.158 30.2201 23.3167 30.8881 19.5301 31.7999C17.6904 32.2192 15.9003 32.8327 14.1901 33.6299C13.423 33.9744 12.7145 34.4367 12.0901 34.9999L11.7701 35.4199C11.6927 35.5496 11.629 35.687 11.5801 35.8299L11.4201 36.4499L11.2801 37.1299C10.9614 39.0373 10.7411 40.9599 10.6201 42.8899C10.4701 44.8899 10.3701 46.7999 10.2901 48.7599C10.1301 52.6899 10.0801 56.6199 10.0901 60.5599C10.0901 67.5599 10.4301 74.5599 11.0301 81.4699C11.4101 85.9033 11.9401 90.3166 12.6201 94.7099C13.2467 99.0782 14.1586 103.401 15.3501 107.65C16.2001 110.2 15.4901 110.17 14.0501 108.14C12.6101 106.11 10.9501 101.91 10.0501 96.7599C8.67417 87.67 7.88255 78.5012 7.68011 69.3099C7.35441 60.0959 7.55808 50.8707 8.29011 41.6799C8.44011 40.2899 8.57011 38.8999 8.80011 37.4799C8.91488 36.735 9.0718 35.9971 9.27011 35.2699C9.39771 34.8124 9.60782 34.382 9.89011 33.9999L10.3101 33.4499L10.7701 33.0199C11.9658 32.0355 13.3178 31.2581 14.7701 30.7199C16.1532 30.1978 17.5656 29.7571 19.0001 29.3999C24.5573 28.0854 30.2073 27.1995 35.9001 26.7499C48.2901 25.6499 60.7001 25.4499 73.0801 25.4399C76.9001 25.4399 80.7201 25.5099 84.5401 25.7099C88.3859 25.8671 92.2156 26.2982 96.0001 26.9999C97.4703 27.2817 98.9126 27.6933 100.31 28.2299C101.044 28.5161 101.739 28.8923 102.38 29.3499C103.015 29.8224 103.563 30.4009 104 31.0599C104.86 32.303 105.565 33.6462 106.1 35.0599C106.643 36.4266 107.11 37.8221 107.5 39.2399C108.941 44.8572 109.944 50.5776 110.5 56.3499C111.44 65.2299 111.97 73.9599 112.19 82.7799C112.19 84.7199 112.29 86.6199 112.29 88.5799C112.29 95.8399 111.99 98.1499 111.29 99.6799C111.153 100.027 110.986 100.362 110.79 100.68C110.23 101.35 109.94 98.3899 109.87 93.1099C109.76 85.2799 109.54 77.2299 109.06 69.1099C108.67 60.9305 107.738 52.786 106.27 44.7299C105.725 41.7939 104.918 38.9125 103.86 36.1199C103.359 34.804 102.687 33.5599 101.86 32.4199C101.678 32.1783 101.477 31.9509 101.26 31.7399L100.98 31.4999L100.64 31.2599C100.083 30.9242 99.4934 30.6461 98.8801 30.4299C96.0578 29.5334 93.1422 28.963 90.1901 28.7299C87.1901 28.4199 84.1001 28.2599 81.0301 28.1699L81.0001 28.0899Z" fill="#231F20"/>
<path d="M79.5603 79.91C78.7246 79.5369 77.8536 79.2488 76.9603 79.05L76.3303 78.9C76.2003 78.9 76.1603 79.01 76.1303 79.11C76.1003 79.21 76.1303 79.11 76.1303 79.32C76.1303 79.53 76.1303 79.64 76.1303 79.81V80.81C76.0864 83.3503 76.1866 85.8911 76.4303 88.42C76.5403 89.56 76.7203 90.68 76.9403 91.79L77.4003 93.91C77.5303 94.62 77.6103 95.33 77.6903 96.04C77.6903 96.48 77.3503 96.55 76.8403 96.29C76.173 95.9204 75.6643 95.3192 75.4103 94.6C74.6635 91.6543 74.2344 88.6371 74.1303 85.6C74.1303 83.77 73.8203 81.9 73.8803 79.96C73.8803 79.69 73.8803 79.43 73.9403 79.15C73.9508 78.9724 73.9709 78.7955 74.0003 78.62C74.0003 78.42 74.0703 78.22 74.1203 78.02C74.2129 77.6526 74.3872 77.3108 74.6303 77.02C74.7508 76.8768 74.906 76.7668 75.081 76.7003C75.256 76.6338 75.445 76.613 75.6303 76.64H76.7903C77.1203 76.64 77.3403 76.75 77.6303 76.8C78.1556 76.9182 78.6733 77.0685 79.1803 77.25C80.3895 77.689 81.5687 78.2068 82.7103 78.8C84.4303 79.68 86.0403 80.71 87.7103 81.67C88.9703 82.42 90.2703 83.05 91.5403 83.67C91.8203 83.82 92.1103 83.93 92.3803 84.09C92.7639 84.2508 93.0936 84.518 93.3303 84.86C93.4749 85.1294 93.5175 85.4418 93.4503 85.74C93.4503 85.91 93.4503 86.08 93.3803 86.23C93.2603 86.73 92.5803 86.91 91.6903 86.64C89.2667 85.5248 86.9418 84.2068 84.7403 82.7C83.079 81.6675 81.3405 80.7649 79.5403 80L79.5603 79.91Z" fill="#231F20"/>
<path d="M88.8002 91.84C90.0002 93.01 91.2302 94.16 92.5002 95.26C92.9602 95.67 93.5002 96 93.9402 96.4C95.5902 97.82 97.2702 99.18 99.0202 100.46C99.7932 101.018 100.605 101.519 101.45 101.96C102.52 102.49 103.63 103.07 104.57 103.45C104.83 103.55 104.88 103.97 104.47 104.37C104.195 104.596 103.87 104.752 103.522 104.825C103.173 104.898 102.813 104.886 102.47 104.79C101.188 104.397 99.9666 103.828 98.8402 103.1C97.7195 102.432 96.6677 101.655 95.7002 100.78C94.5302 99.78 93.1702 98.9 91.9402 97.9C90.7102 96.9 89.2502 95.67 88.0002 94.5C87.2102 93.78 86.4402 93.04 85.6702 92.3C84.5102 91.17 83.4002 89.98 82.2802 88.82C81.4102 87.91 80.4702 87.08 79.6302 86.08C79.4502 85.86 79.2502 85.64 79.0902 85.4C78.9444 85.2086 78.8358 84.9915 78.7702 84.76C78.7146 84.596 78.6909 84.4229 78.7002 84.25C78.774 83.9615 78.9304 83.7009 79.1502 83.5C79.2381 83.4139 79.3317 83.3337 79.4302 83.26C79.5231 83.2126 79.6259 83.1879 79.7302 83.1879C79.8345 83.1879 79.9373 83.2126 80.0302 83.26C80.3309 83.3306 80.6093 83.4749 80.8402 83.68C82.2002 85.09 83.6802 86.68 85.2602 88.28C86.4302 89.46 87.6302 90.64 88.8702 91.79L88.8002 91.84Z" fill="#231F20"/>
<path d="M64.5699 80.77C64.8199 80.77 64.8799 81.15 64.6599 81.61C64.5372 81.8144 64.3738 81.9914 64.1799 82.13L63.7799 82.29C63.7199 82.29 62.7799 82.12 62.3799 82.12C62.0396 82.0948 61.7037 82.0276 61.3799 81.92C60.7299 81.74 60.0799 81.52 59.3799 81.34C59.2334 81.2959 59.0949 81.2283 58.9699 81.14C58.5269 80.8424 58.0197 80.6539 57.4899 80.59C57.3999 80.59 57.3199 80.59 57.2099 80.59C56.6319 80.5989 56.0567 80.5076 55.5099 80.32C55.0999 80.08 54.6899 79.86 54.2699 79.64C54.1999 79.64 54.1299 79.64 54.0899 79.52C53.9899 79.25 53.8399 79.28 53.7099 79.24C53.5109 79.1828 53.322 79.0951 53.1499 78.98C53.0526 78.8798 52.9623 78.7728 52.8799 78.66C52.8503 78.5957 52.835 78.5258 52.835 78.455C52.835 78.3842 52.8503 78.3143 52.8799 78.25C52.9699 78.16 52.8799 78.02 52.8799 77.9C52.8749 77.8568 52.8749 77.8132 52.8799 77.77C53.0787 77.5836 53.3046 77.4285 53.5499 77.31C53.7947 77.1646 54.0615 77.0599 54.3399 77H55.3399C55.8299 77 56.3399 77.06 56.4499 77C56.5606 77.0191 56.6642 77.0674 56.7499 77.14C56.7499 77.14 58.2399 77.3 58.2999 77.33C58.5799 77.44 58.8899 77.43 59.1099 77.72C59.1099 77.78 59.2199 77.78 59.2699 77.8C59.7657 77.9337 60.2452 78.1215 60.6999 78.36C60.9299 78.47 61.1899 78.53 61.4299 78.62C61.4299 78.62 61.5099 78.68 61.5499 78.71C61.5933 78.7523 61.6442 78.7862 61.6999 78.81C62.2899 79 62.7999 79.38 63.3999 79.57C63.5399 79.57 64.0599 80.16 64.2299 80.22C64.3999 80.28 64.4699 80.77 64.5699 80.77Z" fill="#231F20"/>
<path d="M71.2002 72.16C71.4302 72.16 71.2602 72.37 71.2002 72.92C71.2002 73.09 70.9802 73.55 70.8802 73.58C70.6881 73.6326 70.4893 73.6562 70.2902 73.65C69.7669 73.4314 69.2591 73.1775 68.7702 72.89C68.4496 72.7141 68.1592 72.4879 67.9102 72.22C67.3902 71.7 66.9102 71.22 66.3902 70.68C66.2841 70.5586 66.1995 70.42 66.1402 70.27C65.9198 69.7694 65.6116 69.3122 65.2302 68.92C65.1702 68.86 65.1302 68.77 65.0002 68.76C64.5232 68.3695 64.1346 67.8821 63.8602 67.33C63.8002 67.07 63.7302 66.84 63.6602 66.59L63.4902 65.82C63.4902 65.75 63.4202 65.69 63.4902 65.58C63.6502 65.31 63.5402 65.2 63.4902 65.05C63.4187 64.8137 63.3982 64.5648 63.4302 64.32C63.4774 64.1517 63.5592 63.995 63.6702 63.86C63.7502 63.74 63.9602 63.77 64.0102 63.79C64.0602 63.81 64.2202 63.79 64.3102 63.79H64.4202C64.6504 63.848 64.8774 63.9181 65.1002 64C65.3191 64.0811 65.5273 64.1885 65.7202 64.32C65.7202 64.32 65.9902 64.61 66.2902 64.9C66.5902 65.19 66.8702 65.54 66.9402 65.59C67.0102 65.64 67.0202 65.77 67.0402 65.87C67.0602 65.97 67.9802 66.81 68.0402 66.87C68.1802 67.1 68.4202 67.25 68.3902 67.6C68.3902 67.67 68.3902 67.7 68.4702 67.74C68.7486 68.1086 68.9897 68.5039 69.1902 68.92C69.319 69.1117 69.4592 69.2953 69.6102 69.47C69.6143 69.5132 69.6143 69.5568 69.6102 69.6C69.6131 69.6583 69.634 69.7142 69.6702 69.76C69.9661 70.2053 70.3007 70.6236 70.6702 71.01C70.7702 71.1 70.9802 71.69 71.1002 71.76C71.2202 71.83 71.1102 72.15 71.2002 72.16Z" fill="#231F20"/>
<path d="M81.4203 69.81C81.5703 69.9 81.3203 69.97 80.8803 70.27C80.6771 70.3978 80.4484 70.4797 80.2103 70.51C80.0437 70.4493 79.8882 70.3614 79.7503 70.25C79.6329 70.0352 79.5422 69.8068 79.4803 69.57C79.3903 69.25 79.3003 68.88 79.2703 68.71C79.2107 68.3793 79.2107 68.0407 79.2703 67.71C79.3641 67.0871 79.491 66.4695 79.6503 65.86C79.689 65.7225 79.7535 65.5935 79.8403 65.48C80.1186 65.0985 80.3129 64.6622 80.4103 64.2C80.4282 64.1608 80.4375 64.1182 80.4375 64.075C80.4375 64.0319 80.4282 63.9892 80.4103 63.95C80.4652 63.4259 80.6434 62.9221 80.9303 62.48C81.2603 62.18 81.5403 61.86 81.8603 61.56C81.8603 61.56 81.8603 61.45 82.0303 61.45C82.3103 61.45 82.3403 61.34 82.4203 61.24C82.5572 61.1088 82.7121 60.9976 82.8803 60.91C83.013 60.8926 83.1475 60.8926 83.2803 60.91C83.4003 60.91 83.6503 61.14 83.6703 61.18C83.6903 61.22 83.8903 61.35 84.0103 61.43L84.1303 61.52C84.1875 61.723 84.2276 61.9304 84.2503 62.14C84.3055 62.3451 84.3258 62.5581 84.3103 62.77C84.3103 62.77 84.1803 63.08 84.0703 63.4C83.9829 63.6423 83.9095 63.8894 83.8503 64.14C83.8503 64.22 83.7503 64.26 83.6903 64.32C83.6303 64.38 83.4303 65.32 83.4103 65.39C83.3103 65.58 83.3103 65.8 83.0303 65.93C82.9803 65.93 82.9703 66 82.9603 66.04C82.8435 66.3873 82.6927 66.7223 82.5103 67.04C82.4452 67.2121 82.395 67.3894 82.3603 67.57C82.3603 67.57 82.3603 67.63 82.2803 67.66C82.2484 67.6864 82.2242 67.721 82.2103 67.76C82.0636 68.1601 81.9663 68.5764 81.9203 69C81.9203 69.1 81.6403 69.49 81.6703 69.59C81.7003 69.69 81.3603 69.77 81.4203 69.81Z" fill="#231F20"/>
<path d="M25.65 43C25.9885 43.0746 26.3031 43.2325 26.565 43.4596C26.827 43.6866 27.0281 43.9755 27.15 44.3C28.31 47.41 23.06 47.59 23.09 44.82C23.105 44.5181 23.1882 44.2235 23.3335 43.9583C23.4788 43.6932 23.6822 43.4644 23.9286 43.2893C24.175 43.1141 24.458 42.9971 24.7561 42.947C25.0542 42.8969 25.3599 42.915 25.65 43Z" fill="#231F20"/>
<path d="M33.63 42.16C33.9678 42.2327 34.282 42.3888 34.544 42.6142C34.8061 42.8395 35.0075 43.1268 35.13 43.45C36.29 46.56 31.04 46.74 31.07 43.97C31.0864 43.6689 31.1707 43.3754 31.3166 43.1115C31.4625 42.8476 31.6661 42.6201 31.9124 42.446C32.1586 42.272 32.4409 42.1558 32.7384 42.1063C33.0358 42.0567 33.3406 42.0751 33.63 42.16Z" fill="#231F20"/>
<path d="M41.6099 41.3C41.9471 41.3778 42.26 41.537 42.5215 41.7636C42.7829 41.9902 42.985 42.2773 43.1099 42.6C44.2699 45.71 39.0199 45.89 39.0499 43.12C39.0649 42.818 39.1482 42.5234 39.2935 42.2583C39.4387 41.9931 39.6422 41.7644 39.8886 41.5892C40.135 41.414 40.4179 41.297 40.7161 41.2469C41.0142 41.1968 41.3198 41.2149 41.6099 41.3Z" fill="#231F20"/>
<path d="M66.4099 111.4C62.2799 111.54 58.1499 111.63 54.0199 111.7C52.5099 111.7 51.0199 111.8 49.4999 111.81C44.1799 111.81 38.8699 111.75 33.5599 111.64C31.1999 111.64 28.8299 111.64 26.4999 111.64H21.9999C20.5199 111.64 18.9999 111.64 17.6399 111.64C17.5231 111.679 17.3968 111.679 17.2799 111.64C17.1987 111.585 17.1305 111.514 17.0799 111.43C16.9499 111.26 17.0099 110.89 17.4199 110.54C18.578 109.692 19.985 109.252 21.4199 109.29C27.5899 109.29 33.6599 109.5 39.8299 109.74C43.5199 109.89 47.3599 109.74 51.1299 109.68C55.2766 109.62 59.4266 109.523 63.5799 109.39C66.1299 109.31 68.6899 109.22 71.2399 109.09C75.0999 108.91 78.9799 108.7 82.8099 108.4C85.8099 108.15 88.6899 107.78 91.6299 107.4L93.5499 107.17C95.9699 106.92 96.7499 106.99 97.3199 107.51C97.4581 107.617 97.5854 107.738 97.6999 107.87C97.9799 108.29 97.02 108.74 95.2599 109.02C90.02 109.87 84.4699 110.38 78.8799 110.76C74.7299 111.04 70.5499 111.24 66.3799 111.43L66.4099 111.4Z" fill="#231F20"/>
<path d="M64.77 112.71C61.2033 112.83 57.6333 112.927 54.06 113L50.16 113.1C45.57 113.15 40.98 113.1 36.39 113.1H30.29C27.7 113.1 25.09 113.1 22.52 113.03C20.9 112.97 22.93 111.67 25.94 111.69C31.24 111.69 36.51 111.85 41.85 111.97C45.04 112.06 48.36 111.97 51.62 111.88C55.2 111.81 58.79 111.73 62.38 111.6C64.59 111.53 66.79 111.42 69 111.32C72.34 111.16 75.7 110.99 79 110.74C81.57 110.53 84.09 110.28 86.63 110L88.29 109.82C90.39 109.63 91.06 109.66 91.54 109.96C91.6525 110.021 91.7596 110.091 91.86 110.17C92.08 110.42 91.24 110.7 89.72 110.91C85.18 111.52 80.38 111.91 75.55 112.23C71.97 112.47 68.36 112.64 64.76 112.81L64.77 112.71Z" fill="#231F20"/>
<path d="M101.2 17.62C101.2 17.93 101.05 18.25 100.99 18.55C100.99 18.67 100.99 18.78 100.99 18.89C100.89 19.29 100.75 19.68 100.66 20.07C100.625 20.2416 100.625 20.4184 100.66 20.59C100.66 20.81 100.83 21.03 100.66 21.25C100.49 21.47 98.6603 21.25 98.6603 20.96C98.589 20.5043 98.6773 20.038 98.9103 19.64C99.0603 19.37 98.9103 19.1 98.9803 18.83L99.0903 17.93C99.1235 17.7447 99.1469 17.5578 99.1603 17.37C99.1953 17.0944 99.1953 16.8156 99.1603 16.54C99.0933 16.3273 99.0027 16.1227 98.8903 15.93C98.8903 15.93 98.8303 15.84 98.8903 15.79C98.9503 15.74 98.8903 15.64 99.0803 15.59C99.2324 15.5316 99.3898 15.4881 99.5503 15.46L99.8203 15.4C100.111 15.3648 100.406 15.3991 100.68 15.5C100.886 15.622 101.057 15.7944 101.178 16.0008C101.299 16.2072 101.365 16.4409 101.37 16.68C101.37 16.99 101.37 17.31 101.37 17.62H101.2Z" fill="#231F20"/>
<path d="M115.53 25.24L113.86 25.85C113.66 25.93 113.48 26.05 113.27 26.12L111.06 26.81C110.736 26.9164 110.422 27.0502 110.12 27.21C109.751 27.4496 109.329 27.5939 108.89 27.63C108.61 27.63 108.44 26.23 108.89 25.99C109.619 25.5555 110.403 25.2192 111.22 24.99C111.714 24.8065 112.184 24.5648 112.62 24.27C113.14 24 113.68 23.78 114.22 23.53L115.22 23.08C115.72 22.84 116.22 22.63 116.72 22.35C117.22 22.07 117.39 21.8 117.72 21.59C117.798 21.537 117.882 21.4933 117.97 21.46C118.31 21.36 118.48 21.46 118.73 21.84C118.73 21.93 118.85 22.01 118.9 22.1C118.976 22.236 119.016 22.3892 119.016 22.545C119.016 22.7009 118.976 22.8541 118.9 22.99C118.514 23.6925 117.9 24.2427 117.16 24.55C116.64 24.8 116.1 25.02 115.56 25.26L115.53 25.24Z" fill="#231F20"/>
<path d="M78.1501 33.5499C72.9001 33.3799 67.6001 33.4399 62.3201 33.4899C57.0401 33.5399 51.7601 33.7099 46.5001 34.0099C42.6601 34.2399 38.8301 34.5999 35.0301 35.0099C31.6871 35.3587 28.3702 35.9233 25.1001 36.6999C23.5118 37.0619 21.9665 37.5915 20.4901 38.2799C19.8271 38.5987 19.2167 39.0168 18.6801 39.5199L18.4001 39.8899C18.3316 40.004 18.2746 40.1246 18.2301 40.2499C18.1317 40.632 18.0549 41.0193 18.0001 41.4099C17.5187 44.7235 17.2349 48.0627 17.1501 51.4099C17.0201 54.7999 16.9701 58.1899 16.9801 61.5799C16.9801 67.5799 17.2801 73.6699 17.7901 79.5799C18.1201 83.3999 18.5701 87.2199 19.1601 90.9999C19.7 94.7679 20.4884 98.496 21.5201 102.16C22.2601 104.36 21.6601 104.33 20.4401 102.58C18.6769 99.5779 17.5089 96.2641 17.0001 92.8199C15.826 84.9811 15.158 77.0747 15.0001 69.1499C14.7143 61.2032 14.8879 53.2466 15.5201 45.3199C15.6401 44.1299 15.7501 42.9299 15.9501 41.6999C16.0488 41.059 16.1857 40.4245 16.3601 39.7999C16.4648 39.4058 16.6447 39.0357 16.8901 38.7099L17.2401 38.2399L17.6401 37.8699C18.6661 37.0093 19.8333 36.3326 21.0901 35.8699C22.2638 35.4239 23.4625 35.0466 24.6801 34.7399C29.4744 33.607 34.3488 32.8447 39.2601 32.4599C49.9301 31.5099 60.6301 31.3299 71.3101 31.3199C74.6001 31.3199 77.9001 31.3799 81.2001 31.5499C84.4887 31.6905 87.7634 32.0614 91.0001 32.6599C92.2647 32.907 93.5059 33.2616 94.7101 33.7199C95.3412 33.9811 95.9388 34.3168 96.4901 34.7199C97.0772 35.1077 97.5889 35.599 98.0001 36.1699C98.7489 37.234 99.3573 38.3902 99.8101 39.6099C100.285 40.7847 100.689 41.9868 101.02 43.2099C102.242 48.0663 103.078 53.0118 103.52 57.9999C104.34 65.6599 104.79 73.1899 104.97 80.7899C104.97 82.4699 105.06 84.0999 105.06 85.7899C105.06 92.0499 104.8 94.0399 104.2 95.3699C104.08 95.6691 103.94 95.9597 103.78 96.2399C103.31 96.8099 103.07 94.2399 103.02 89.7099C102.93 82.9499 102.74 76.0099 102.33 68.9999C101.989 61.9551 101.187 54.9401 99.9301 47.9999C99.4534 45.4633 98.7541 42.9737 97.8401 40.5599C97.4211 39.4262 96.8528 38.3534 96.1501 37.3699C95.9974 37.1529 95.8232 36.9519 95.6301 36.7699L95.3901 36.5599L95.0901 36.3499C94.6058 36.0587 94.0932 35.8175 93.5601 35.6299C91.1237 34.8579 88.6076 34.3647 86.0601 34.1599C83.4501 33.8899 80.8101 33.7499 78.1601 33.6799L78.1501 33.5499Z" fill="#231F20"/>
<path d="M65.2103 105.87H54.7103L50.8703 105.93C46.3703 105.93 41.8703 105.82 37.3603 105.76C35.3603 105.76 33.3603 105.76 31.3603 105.76C28.8011 105.823 26.2407 105.696 23.7003 105.38C22.1203 105.18 24.2203 104.29 27.1203 104.2C32.2803 104.2 37.4703 104.2 42.7003 104.32C45.8303 104.38 49.0903 104.24 52.2903 104.2L62.8603 104.06L69.3703 103.95C72.6503 103.87 75.9503 103.82 79.2103 103.68C81.7403 103.58 84.2103 103.37 86.7303 103.21C87.2803 103.21 87.8203 103.11 88.3703 103.11C90.4403 103.11 91.1003 103.28 91.5503 103.67C91.6592 103.753 91.7597 103.847 91.8503 103.95C92.0603 104.24 91.2203 104.55 89.7203 104.8C85.0994 105.347 80.453 105.65 75.8003 105.71L65.2103 105.91V105.87Z" fill="#231F20"/>
<path d="M14.55 77.9999C14.34 74.8599 14.2 71.7199 14.07 68.5799C14.02 67.4399 13.9 66.2899 13.88 65.1499C13.79 61.1499 13.82 57.0599 13.94 53.0199C14.01 51.2199 14 49.4099 14.05 47.6199C14.14 45.3199 14.05 42.9799 14.96 40.6199C15.27 39.8799 15.86 40.2699 16.36 41.0099C16.9707 41.8868 17.2699 42.943 17.21 44.0099C16.84 48.4499 16.86 53.0799 16.54 57.7299C16.37 60.5199 16.61 63.4099 16.71 66.2699C16.82 69.3999 16.95 72.5399 17.14 75.6799C17.25 77.6099 17.38 79.5399 17.55 81.4599C17.81 84.3799 18.03 87.3099 18.46 90.1799C18.8124 92.3755 19.2763 94.5516 19.85 96.6999C19.97 97.1699 20.12 97.6199 20.25 98.0799C20.4342 98.6654 20.5746 99.2637 20.67 99.8699C20.6922 100.217 20.6159 100.564 20.45 100.87C20.39 101.01 20.36 101.17 20.32 101.27C20.28 101.37 20.05 101.41 19.66 101.19C19.429 101.063 19.2331 100.881 19.09 100.66C18.8854 100.402 18.7203 100.116 18.6 99.8099C17.7958 97.869 17.1633 95.8614 16.71 93.8099C16.24 91.7399 15.85 89.6299 15.53 87.5199C15.02 84.3799 14.74 81.2099 14.53 78.0399L14.55 77.9999Z" fill="#231F20"/>
</svg>
