<svg width="128" height="128" viewBox="0 0 128 128" fill="none" xmlns="http://www.w3.org/2000/svg">
<path d="M29.5899 71.94C29.7199 73.12 29.8499 74.31 30.0799 75.43C30.1799 76 30.3199 76.53 30.4699 77.02L30.5899 77.34C30.6299 77.46 30.6699 77.57 30.6999 77.58C30.7199 77.66 30.7399 77.72 30.8199 77.76C30.9899 77.87 31.3499 77.99 31.7199 78.07C32.0899 78.16 32.4999 78.23 32.8999 78.32C35.8199 78.9 38.9999 79.08 42.1099 79.36C43.4999 79.47 44.8999 79.47 46.2899 79.5C47.1799 79.53 48.0799 79.52 48.9799 79.58C49.8799 79.66 50.7699 79.98 51.6599 80.26C52.2099 80.46 52.1099 80.59 51.6199 80.85C51.3699 80.99 51.0299 81.17 50.6199 81.41C50.2099 81.66 49.7399 81.9 49.2299 82.01C47.4299 82.14 45.6199 82.23 43.7899 82.16C41.9599 82.1 40.1199 82.03 38.2799 81.71C36.0699 81.35 33.7699 81.36 31.3799 80.79C30.7099 80.59 30.0699 80.45 29.2399 79.89C28.8199 79.6 28.5599 79.12 28.3199 78.73C28.1899 78.39 28.0499 78.04 27.9399 77.7C27.5699 76.39 27.4099 75.14 27.2399 73.88C27.0699 72.34 26.9499 70.8 26.8699 69.27C26.7399 66.95 26.7199 64.62 26.6699 62.33C26.6299 60.54 26.5399 58.79 26.5899 57.01C26.5899 56.62 26.5899 56.23 26.6499 55.84C26.8299 54.38 27.0799 53.93 27.5299 53.67C27.6299 53.61 27.7299 53.53 27.8099 53.5C28.0799 53.4 28.3599 54.02 28.4399 55.07C28.7999 58.19 28.9199 61.42 29.0899 64.69C29.2199 67.11 29.3699 69.55 29.6599 71.94H29.5999H29.5899Z" fill="#231F20"/>
<path d="M77.2601 62.72C79.2001 62.37 81.0401 62.23 82.9101 62.06C83.5901 62 84.2601 61.9 84.9401 61.86C87.3401 61.71 89.7301 61.64 92.1201 61.57C93.1801 61.53 94.2501 61.49 95.3001 61.45C96.6501 61.41 98.0301 61.27 99.4001 61.76C99.8201 61.97 99.7401 61.98 99.3701 62.17C98.9901 62.42 98.3601 62.78 97.6001 62.89C96.2501 63.06 94.8901 63.14 93.5301 63.26C92.1601 63.31 90.7901 63.35 89.4101 63.35C87.7501 63.35 86.0501 63.61 84.3701 63.78C82.5301 63.96 80.6701 64.15 78.8701 64.44C78.3101 64.53 77.7601 64.64 77.2401 64.76C77.0001 64.82 76.6901 64.91 76.5901 64.96C76.5301 64.99 76.4601 65.03 76.4201 65.09L76.2601 65.32C75.8901 65.96 75.6501 66.79 75.4601 67.6C75.2701 68.42 75.1401 69.27 75.0601 70.11C74.9401 71.43 74.9701 72.74 74.9101 74.06C74.9001 74.35 74.9101 74.64 74.8901 74.93C74.7601 76.02 74.6001 76.37 74.2401 76.58C74.1601 76.63 74.0801 76.69 74.0001 76.71C73.7501 76.78 73.5701 76.34 73.4301 75.54C73.2301 74.35 73.1701 73.12 73.1201 71.85C73.1401 70.59 73.2301 69.3 73.4401 68C73.6001 67.02 73.7901 66.04 74.2201 65C74.3501 64.73 74.4301 64.48 74.6201 64.2C74.7001 64.09 74.8501 63.82 74.9901 63.67C75.1701 63.54 75.3201 63.36 75.5301 63.26C75.9601 62.99 76.2401 62.95 76.4901 62.86C76.7501 62.78 77.0001 62.72 77.2501 62.67V62.72H77.2601Z" fill="#231F20"/>
<path d="M25.7499 46.69C25.7799 41.96 25.8499 37.23 25.9799 32.5C26.0499 30.13 26.1299 27.76 26.2599 25.38C26.3299 24.18 26.3999 22.99 26.5399 21.76C26.5799 21.43 26.5899 21.23 26.6899 20.63C26.7699 20.12 26.8799 19.6 27.1099 19.18C27.2399 18.99 27.3299 18.74 27.5299 18.6C27.7299 18.46 27.9399 18.34 28.1599 18.23C28.5599 17.96 29.0999 17.9 29.5999 17.77C29.7999 17.72 29.9499 17.7 30.0499 17.69L30.3899 17.64C30.6199 17.6 30.8499 17.57 31.0699 17.55L32.3999 17.4C33.2799 17.3 34.1499 17.23 35.0199 17.16C36.7599 17.02 38.4899 16.92 40.2199 16.86C46.3199 16.65 52.4099 16.64 58.4999 16.78C61.5499 16.86 64.5899 16.97 67.6499 17.17C69.1799 17.28 70.7099 17.4 72.2399 17.58C73.0099 17.68 73.7799 17.77 74.5599 17.91C74.9499 17.97 75.3399 18.06 75.7399 18.14C75.9299 18.18 76.1399 18.23 76.3399 18.29C76.5199 18.35 76.7699 18.39 77.0499 18.5L77.5899 18.71C78.5399 19.06 78.8299 20.29 78.9799 21.1C79.0999 21.82 79.1599 22.5 79.2099 23.17C79.3099 24.52 79.3699 25.85 79.3999 27.18C79.4599 29.83 79.4499 32.47 79.4199 35.08C79.3599 41.96 79.1399 48.85 78.4599 55.68C78.2599 57.8 77.9999 57.53 77.5699 55.71C77.3599 54.8 77.1199 53.51 76.8899 51.94C76.7799 51.16 76.6499 50.31 76.5799 49.41C76.5199 48.51 76.4799 47.56 76.4799 46.57V39.76L76.4999 32.97C76.4999 30.71 76.4699 28.46 76.3699 26.23C76.3199 25.12 76.2699 24.01 76.1099 22.96C76.0699 22.7 76.0399 22.44 75.9899 22.2L75.9199 21.84L75.8599 21.57C75.8599 21.57 75.8599 21.47 75.8199 21.45L75.7899 21.43L75.5599 21.36C75.3299 21.28 75.0499 21.23 74.7799 21.17C74.2499 21.05 73.6599 20.96 73.0799 20.87C71.9099 20.7 70.7099 20.56 69.5099 20.45C67.0899 20.22 64.6399 20.06 62.1799 19.92C53.7999 19.48 44.9999 19.77 36.4499 20.25C35.2799 20.32 34.0999 20.4 32.9499 20.51C32.3699 20.56 31.7999 20.63 31.2299 20.7L30.4199 20.82C30.3099 20.84 30.2099 20.85 30.1099 20.88C30.0199 20.91 29.8799 20.93 29.8499 21.04C29.8099 21.14 29.7899 21.25 29.7699 21.35L29.7399 21.54L29.6899 21.96L29.5999 22.81C29.4999 23.96 29.4299 25.14 29.3599 26.31C29.1299 31.02 29.0299 35.77 28.9599 40.51C28.8799 46.35 28.8599 52.2 28.8999 58.04C28.9399 62.46 28.9899 66.9 29.0999 71.32C29.1599 73.53 29.2299 75.74 29.3799 77.91L29.4299 78.58L29.4899 79.05C29.4999 79.13 29.5199 79.21 29.5399 79.28C29.5699 79.36 29.6699 79.37 29.7399 79.39C29.8899 79.43 30.0499 79.44 30.2099 79.46C30.4299 79.48 31.0499 79.53 31.5799 79.56L33.2099 79.63C40.0099 79.88 46.7199 79.53 53.4799 79.47C54.9699 79.45 56.4299 79.41 57.9299 79.42C63.5099 79.45 65.3199 79.77 66.4599 80.57C66.7199 80.76 67.0599 80.95 67.1999 81.13C67.6599 81.74 65.4299 81.93 61.3799 81.99C55.3499 82.1 49.1599 82.21 42.8799 82.33C39.7299 82.33 36.5599 82.49 33.3299 82.52C32.5199 82.53 31.7099 82.52 30.8699 82.52L30.1699 82.49C29.7799 82.46 29.3799 82.4 28.9899 82.36C28.2499 82.17 27.5799 81.94 27.1299 81.4C26.9599 81.11 26.7399 80.85 26.6499 80.48C26.5299 80.14 26.4999 79.71 26.4399 79.34C26.3399 78.44 26.3299 78.22 26.2999 77.77L26.1499 75.33C25.6899 65.77 25.6499 56.23 25.6299 46.68H25.7099L25.7499 46.69Z" fill="#231F20"/>
<path d="M72.0502 86.36C72.0502 82.38 72.0702 78.39 72.1502 74.4C72.1902 72.4 72.2402 70.41 72.3202 68.4C72.3602 67.39 72.4102 66.39 72.4902 65.37C72.5302 64.84 72.5702 64.37 72.6502 63.78C72.7202 63.35 72.7702 62.89 72.9002 62.49C73.0102 62.07 73.2302 61.74 73.4702 61.4C73.8702 61.17 74.2502 60.93 74.7102 60.8L75.4302 60.66C75.6702 60.6 75.9302 60.57 76.0402 60.56C76.6302 60.48 77.2002 60.44 77.7702 60.39C78.9002 60.31 80.0302 60.24 81.1402 60.2C84.8902 60.04 88.6102 59.94 92.3402 59.98C96.8702 60.04 101.39 60.17 105.92 60.45C108.19 60.59 110.45 60.77 112.73 61.03C113.87 61.17 115.01 61.31 116.17 61.53C116.75 61.63 117.33 61.77 117.93 61.93C118.44 62.08 119.47 62.43 120.07 63.03C120.17 63.2 120.26 63.38 120.35 63.55L120.54 64.11C120.61 64.29 120.67 64.5 120.69 64.66L120.76 65.07C120.85 65.61 120.9 66.13 120.96 66.65C121.06 67.69 121.14 68.71 121.2 69.73C121.32 71.77 121.41 73.81 121.48 75.85C121.66 81.67 121.79 87.5 121.89 93.27L121.97 98.83C121.97 100.68 121.94 102.54 121.9 104.4L121.82 107.18L121.64 109.96L121.41 112.74C121.32 113.67 121.08 114.59 120.93 115.51C120.74 116.66 120.53 117.17 120.47 117.11C120.4 117.06 120.45 116.48 120.35 115.5C120.08 113.53 119.36 109.95 119.2 105.7C118.9 98.74 118.93 91.77 118.75 84.8C118.67 81.31 118.57 77.83 118.45 74.35C118.39 72.61 118.32 70.87 118.21 69.15C118.16 68.29 118.09 67.43 118.01 66.6C117.96 66.19 117.92 65.77 117.86 65.4L117.82 65.12C117.82 65.12 117.8 65.03 117.78 64.99C117.66 64.88 117.75 64.91 117.17 64.72C116.7 64.59 116.19 64.46 115.66 64.36C111.37 63.55 106.69 63.34 102.07 63.17C97.4302 63.02 92.7502 63.02 88.1102 63.05C85.8702 63.07 83.6302 63.11 81.4002 63.18C80.2802 63.22 79.1702 63.27 78.0702 63.34C77.5202 63.38 76.9702 63.42 76.4502 63.49L76.0202 63.54C75.9202 63.56 75.8102 63.58 75.7102 63.63C75.6302 63.74 75.6202 63.88 75.5902 64.02L75.5502 64.27L75.4902 64.78C75.4202 65.47 75.3702 66.17 75.3202 66.87C75.2302 68.28 75.1702 69.71 75.1202 71.13C75.0202 73.98 74.9702 76.85 74.9302 79.71C74.8502 86 74.8502 92.31 74.9002 98.6C74.9402 103.37 75.0002 108.15 75.1102 112.92C75.1702 115.3 75.2002 117.69 75.3202 120.05L75.3602 120.73C75.3602 120.81 75.3702 120.9 75.4002 120.98C75.4602 121.03 75.5102 121.11 75.5902 121.14C75.7402 121.23 75.9002 121.27 76.0602 121.33C76.3002 121.38 76.5702 121.47 76.8502 121.51C77.9602 121.72 79.1302 121.82 80.3002 121.91C83.9402 122.13 87.5902 122.08 91.2202 122.03C94.8602 121.97 98.4802 121.91 102.13 121.86C103.74 121.85 105.31 121.82 106.93 121.83C112.95 121.92 114.89 122.28 116.11 123.07C116.39 123.25 116.76 123.42 116.91 123.57C117.42 124.06 114.98 124.24 110.64 124.18C104.18 124.14 97.5002 124.33 90.7102 124.37C87.3102 124.39 83.8902 124.37 80.3902 124.21C79.5102 124.18 78.6302 124.14 77.7202 124.05C77.2702 124.01 76.8102 123.95 76.3302 123.88C76.1002 123.85 75.8402 123.78 75.5902 123.74C75.4902 123.71 75.2702 123.69 75.0702 123.59L74.4802 123.36C73.7702 122.98 73.0802 122.43 72.9402 121.61C72.8902 121.41 72.8802 121.19 72.8502 120.98L72.8002 120.47L72.7502 119.81L72.5902 117.2C72.1202 106.93 72.0402 96.65 71.9502 86.37H72.0202L72.0502 86.36Z" fill="#231F20"/>
<path d="M53.4101 103.65C52.6401 103.59 51.8701 103.52 51.0701 103.43C50.2501 103.33 49.5001 103.25 48.4901 102.98C47.5701 102.76 46.6501 102.31 46.2301 101.42C46.0501 101.05 45.8601 100.64 45.7901 100.27C45.7201 99.96 45.6601 99.68 45.6401 99.41C45.5601 98.85 45.5401 98.33 45.5301 97.82C45.5001 96.79 45.5501 95.78 45.6501 94.79C45.7201 93.91 45.7501 93.03 45.8001 92.16C45.8301 91.05 45.9501 89.88 46.6801 88.86C46.9501 88.56 47.0701 88.65 47.3601 89.01C47.7001 89.38 48.1801 89.96 48.3001 90.56C48.3301 90.83 48.4301 91.1 48.4201 91.36V92.15L48.4501 93.74C48.4501 94.8 48.4801 95.86 48.3701 96.92C48.2501 98.14 48.7501 99.66 48.8901 99.73C48.9901 99.82 49.0801 99.87 49.2501 99.92C49.5301 99.99 49.8601 100.04 50.2001 100.07C50.8901 100.14 51.6201 100.18 52.3601 100.21L55.1301 100.26C56.5401 100.26 57.9701 100.32 59.3901 100.26C60.5001 100.22 61.6001 100 62.7601 99.95C63.0201 99.94 63.2801 99.9 63.5401 99.92C64.5201 100.04 64.7901 100.5 64.7601 101.36C64.7601 101.56 64.7601 101.77 64.7301 101.96C64.6201 102.61 64.1601 103.06 63.5701 103.28C61.8201 103.7 59.9401 103.72 57.9601 103.77C56.4901 103.79 54.9801 103.79 53.4301 103.74V103.65H53.4101Z" fill="#231F20"/>
<path d="M97.6098 37.49C98.3898 37.55 99.1798 37.63 99.9998 37.79C100.41 37.86 100.82 37.94 101.27 38.06L101.6 38.14L101.98 38.28L102.41 38.44C102.55 38.52 102.69 38.62 102.82 38.71C103.26 38.93 103.52 39.35 103.84 39.71C104.09 40.14 104.28 40.53 104.35 40.84C104.66 42.03 104.67 43.07 104.66 44.11C104.65 45.14 104.58 46.14 104.5 47.14C104.43 48.02 104.4 48.9 104.39 49.77C104.35 50.33 104.33 50.88 104.26 51.44C104.24 51.72 104.18 51.99 104.08 52.26L103.94 52.67C103.89 52.8 103.64 52.92 103.59 53.05C103.41 53.38 103.32 53.33 103.07 53.01C102.99 52.86 102.49 52.61 102.36 52.35C102.26 52.22 102.16 52.07 102.08 51.92C102.04 51.84 102 51.76 101.96 51.69C101.95 51.61 101.93 51.54 101.93 51.46L101.84 49.79C101.83 49.24 101.88 48.69 101.9 48.14C101.96 47.05 102.04 45.96 102.13 44.88C102.19 44.23 102.13 43.58 102.02 42.96C101.95 42.67 101.89 42.35 101.8 42.09C101.72 41.83 101.6 41.53 101.55 41.42C101.44 41.14 101.36 41.03 100.62 40.88C99.9898 40.74 99.2398 40.67 98.5098 40.6C97.5998 40.51 96.6698 40.44 95.7398 40.41C94.3298 40.36 92.8998 40.3 91.4798 40.35C90.3798 40.39 89.2898 40.61 88.1598 40.69C87.9098 40.71 87.6598 40.76 87.4098 40.75C86.4498 40.71 86.0898 40.38 86.0598 39.6C86.0598 39.42 86.0298 39.24 86.0498 39.06C86.1298 38.47 86.5298 38.05 87.0998 37.89C88.8798 37.48 90.9098 37.35 92.9498 37.31C94.4798 37.28 96.0198 37.32 97.6098 37.38V37.46V37.49Z" fill="#231F20"/>
<path d="M60.1398 61.37C57.2098 60.69 54.6998 59.41 52.5898 57.3C50.0098 54.72 48.4398 51.26 47.4598 47.69C46.9098 45.68 43.7698 46.53 44.3298 48.55C45.4398 52.62 47.2798 56.58 50.2898 59.6C52.7498 62.06 55.8898 63.72 59.2698 64.5C61.3098 64.97 62.1698 61.84 60.1298 61.37H60.1398Z" fill="#231F20"/>
<path d="M47.2799 64.88C51.5599 62.89 55.5799 60.23 58.3999 56.38C61.2199 52.53 62.2099 47.98 62.2299 43.38C62.2299 41.38 59.1399 41.38 59.1299 43.38C59.1099 47.47 58.1899 51.49 55.7199 54.82C53.2499 58.15 49.4699 60.46 45.7099 62.2C43.8999 63.04 45.4799 65.71 47.2699 64.88H47.2799Z" fill="#231F20"/>
<path d="M55.6102 39.95V37.67C55.6202 37.39 55.5602 37.14 55.4402 36.9C55.3602 36.65 55.2202 36.44 55.0302 36.26C54.8502 36.06 54.6302 35.93 54.3902 35.85C54.1502 35.72 53.8902 35.67 53.6202 35.68C53.1002 35.7 52.5702 35.87 52.2102 36.27C51.8502 36.67 51.6202 37.14 51.6202 37.68V39.96C51.6102 40.24 51.6702 40.49 51.7902 40.73C51.8702 40.98 52.0102 41.19 52.2002 41.37C52.3802 41.57 52.6002 41.7 52.8402 41.78C53.0802 41.91 53.3402 41.96 53.6102 41.95C54.1302 41.93 54.6602 41.76 55.0202 41.36C55.3802 40.96 55.6102 40.49 55.6102 39.95Z" fill="#231F20"/>
<path d="M90.4998 95.6899C91.1098 95.8999 91.9098 95.7999 92.5398 95.7599C93.6798 95.6999 94.8198 95.6099 95.9598 95.5399C97.2798 95.4599 98.5898 95.4099 99.9098 95.4299C100.53 95.4299 101.16 95.4599 101.78 95.5099C101.92 95.5199 102.07 95.5399 102.21 95.5499C102.28 95.5499 102.35 95.5699 102.42 95.5699C102.27 95.5499 102.25 95.5499 102.36 95.5699C102.63 95.6099 102.91 95.6699 103.18 95.7299C105.06 96.1799 105.86 93.2899 103.98 92.8399C101.49 92.2499 98.8198 92.3899 96.2798 92.5199C95.1298 92.5799 93.9798 92.6699 92.8298 92.7399C92.4298 92.7599 92.0298 92.7899 91.6198 92.7899C91.4798 92.7899 91.3398 92.7899 91.1998 92.7899C90.8298 92.7899 91.5598 92.8899 91.2898 92.7899C90.5198 92.5199 89.6498 93.0899 89.4398 93.8399C89.2098 94.6699 89.7198 95.4199 90.4898 95.6899H90.4998Z" fill="#231F20"/>
<path d="M87.0001 42.87L86.3101 42.32C85.9001 42.01 85.5001 41.71 85.1401 41.39C84.8001 41.07 84.4501 40.74 84.4001 40.35L84.3601 40.06V39.98V39.96C84.3601 39.96 84.1501 40 84.2501 39.98V39.93V39.78C84.2801 39.58 84.2701 39.38 84.3501 39.18L84.3801 39.07C84.4901 38.78 84.6401 38.51 84.8101 38.23C84.9601 37.95 85.1601 37.69 85.3701 37.43L85.6701 37.08C85.8001 36.99 85.9101 36.87 85.9901 36.8C86.1401 36.67 86.2901 36.54 86.4401 36.43C86.7401 36.19 87.0501 35.97 87.3501 35.75C87.9601 35.32 88.5701 34.92 89.1801 34.53C89.7201 34.18 90.2101 33.77 90.7601 33.45C91.4501 33.03 92.1101 32.53 92.9801 32.4C93.2701 32.38 93.3201 32.55 93.3101 32.93C93.3101 33.34 93.2501 33.92 92.9501 34.26L92.1501 35.17C91.8801 35.47 91.6301 35.78 91.3101 35.99C90.6901 36.46 90.0501 36.9 89.3801 37.32C88.9801 37.57 88.6401 37.89 88.3301 38.24C88.2501 38.33 88.1801 38.41 88.1101 38.5L88.0101 38.63C88.0101 38.63 87.9701 38.67 87.9601 38.68C87.9101 38.75 87.8501 38.8 87.7901 38.87C87.7301 38.93 87.6701 38.99 87.6201 39.06C87.5601 39.13 87.5101 39.2 87.4701 39.29C87.4901 39.37 87.5501 39.42 87.6001 39.48C87.7201 39.61 87.8001 39.71 88.0101 39.88C88.5401 40.28 89.0801 40.68 89.6401 41.05C90.4901 41.62 91.3201 42.22 92.2201 42.69C92.9201 43.06 93.7101 43.25 94.4401 43.54C94.6001 43.6 94.7801 43.64 94.9301 43.72C95.4901 44.05 95.5101 44.42 95.2701 45.1C95.2101 45.26 95.1601 45.42 95.1001 45.57C94.8701 46.06 94.4101 46.34 93.8601 46.36C92.3201 46.25 91.0301 45.51 89.7401 44.76C88.7901 44.19 87.8701 43.54 86.9401 42.9L86.9801 42.84L87.0001 42.87Z" fill="#231F20"/>
<path d="M62.9801 102.3C63.1401 102.21 63.2701 102.11 63.4101 102.01C63.5801 101.89 63.5401 101.94 63.6001 101.91C63.6601 101.88 63.7801 101.84 63.7801 101.75C63.8501 101.68 63.7801 101.61 63.7601 101.53C63.7401 101.48 63.6701 101.43 63.6301 101.39C63.5501 101.32 63.3501 101.14 63.2301 101.01C62.2101 99.97 61.0401 98.9 59.7801 98C59.2201 97.6 58.6001 97.29 58.0201 96.93C57.2601 96.5 56.4801 96.12 55.7301 95.65C55.5201 95.42 55.5601 95.35 55.8601 95.16C56.1601 94.97 56.7201 94.77 57.2801 94.85C57.7601 94.93 58.2501 95.03 58.7201 95.15C59.2001 95.27 59.6601 95.4 60.0801 95.63C60.9201 96.07 61.7301 96.58 62.4801 97.19C63.3701 97.92 64.4201 98.48 65.3401 99.32C65.4801 99.44 65.6901 99.68 65.8601 99.85C66.0501 100.03 66.2101 100.23 66.3401 100.45C66.4901 100.66 66.6301 100.87 66.6901 101.1C66.7701 101.32 66.8401 101.56 66.8901 101.8C66.7701 102.69 66.2401 103.48 65.5601 104.07C64.8801 104.65 64.1901 105.06 63.4901 105.48C62.4301 106.09 61.3201 106.56 60.2401 107.07C59.4101 107.47 58.6201 107.99 57.7501 108.34C57.5601 108.42 57.3701 108.52 57.1701 108.58C56.4201 108.77 56.1101 108.53 55.8201 107.88C55.7501 107.73 55.6801 107.58 55.6301 107.42C55.4701 106.91 55.6601 106.38 56.0801 106.02C56.3901 105.76 56.7201 105.56 57.0401 105.35C57.3601 105.13 57.6901 104.95 58.0201 104.78C58.7001 104.46 59.3801 104.14 60.0701 103.82C61.0801 103.34 62.1001 102.83 62.9401 102.23L62.9901 102.29L62.9801 102.3Z" fill="#231F20"/>
<path d="M65.67 40.15C57.09 39.84 48.51 40.47 39.93 40.15C38.16 40.08 38.16 42.83 39.93 42.9C48.51 43.22 57.08 42.59 65.67 42.9C67.44 42.96 67.44 40.21 65.67 40.15Z" fill="#231F20"/>
<path d="M90.2199 104.61C90.2399 101.13 90.8999 97.64 91.7299 94.27C92.5599 90.9 93.5499 87.3 95.4199 84.31C95.7199 83.83 96.0399 83.38 96.4499 82.99C96.7599 82.69 96.9399 82.6 97.2499 82.52C97.0899 82.57 97.3699 82.54 97.3899 82.55C97.6799 82.61 97.5499 82.58 97.7699 82.7C98.1699 82.92 98.5599 83.32 98.9099 83.77C100.92 86.35 101.83 89.92 102.61 93.03C103.57 96.87 104.27 100.87 104.28 104.84C104.28 106.67 107.14 106.68 107.13 104.84C107.11 100.82 106.43 96.75 105.5 92.85C104.62 89.17 103.51 85.1 101.16 82.05C99.3699 79.72 96.5699 78.82 94.3199 81.1C91.7599 83.7 90.5599 87.8 89.5799 91.21C88.3499 95.52 87.3899 100.11 87.3599 104.61C87.3599 106.44 90.1999 106.45 90.2099 104.61H90.2199Z" fill="#231F20"/>
<path d="M23.12 14C23.35 14.09 23.14 14.38 22.7 14.77C22.56 14.9 22.07 15.16 21.97 15.15C21.78 15.13 21.6 15.12 21.45 15.08C21.36 15.05 20.57 14.32 20.26 14.09C19.97 13.86 19.76 13.59 19.57 13.31L18.45 11.57C18.37 11.44 18.32 11.29 18.29 11.13C18.21 10.58 17.96 10.12 17.64 9.70001C17.59 9.63 17.56 9.54001 17.42 9.52001C17.16 9.51001 16.53 8.23 16.52 8.03C16.49 7.52 16.46 7.02001 16.4 6.53001C16.4 6.46001 16.33 6.41001 16.42 6.30001C16.62 6.03001 16.53 5.92 16.51 5.77C16.47 5.57 16.44 5.36 16.44 5.14C16.44 5.03 16.52 4.88 16.56 4.74C16.6 4.62 16.9 4.51 16.94 4.52C17.07 4.55 17.17 4.41001 17.28 4.34001C17.32 4.32001 17.37 4.29001 17.4 4.27001C17.44 4.26001 17.74 4.41 18.09 4.56C18.43 4.71 18.81 4.86 18.85 4.91C18.9 4.91 20.02 6.18001 20.15 6.32001C20.23 6.39001 20.22 6.51001 20.23 6.61001C20.23 6.64001 20.46 6.9 20.69 7.16C20.9 7.43 21.11 7.71 21.12 7.74C21.21 8 21.44 8.19001 21.32 8.56001C21.3 8.63001 21.34 8.67001 21.37 8.72001C21.62 9.12001 21.74 9.58001 21.9 10.03C21.98 10.26 22.12 10.45 22.23 10.67C22.25 10.71 22.23 10.77 22.23 10.81C22.23 10.87 22.23 10.93 22.26 10.98C22.55 11.46 22.65 12.05 23 12.51C23.07 12.62 23.09 13.32 23.19 13.43C23.24 13.5 23.01 13.94 23.11 13.97L23.12 14Z" fill="#231F20"/>
<path d="M19.3698 18.33C19.5598 18.18 19.7598 18.42 19.9698 18.89C20.0398 19.04 20.0898 19.5 20.0398 19.58C19.9398 19.73 19.8498 19.87 19.7498 19.98C19.6898 20.04 18.6198 20.51 18.2598 20.71C17.9098 20.89 17.5498 21.01 17.1798 21.08C16.4298 21.21 15.6598 21.36 14.8898 21.46C14.7198 21.48 14.5398 21.48 14.3698 21.44C13.7598 21.31 13.1698 21.35 12.5798 21.44C12.4798 21.46 12.3798 21.44 12.2898 21.54C12.1398 21.72 10.5098 21.67 10.2998 21.58C9.78978 21.37 9.26978 21.23 8.76978 21.04C8.69978 21.01 8.61978 21.02 8.55978 20.9C8.41978 20.62 8.25978 20.64 8.10978 20.59C7.89978 20.52 7.67978 20.44 7.46978 20.33C7.36978 20.27 7.26978 20.14 7.17978 20.03C7.08978 19.93 7.16978 19.63 7.20978 19.6C7.30978 19.51 7.24978 19.36 7.24978 19.23C7.24978 19.19 7.24978 19.13 7.24978 19.09C7.26978 19.04 8.52978 18.38 8.65978 18.32C8.69978 18.25 10.4498 18.12 10.6398 18.03C10.7398 18 10.8498 18.06 10.9498 18.1C10.9998 18.13 12.3798 17.83 12.4298 17.83C12.7198 17.87 12.9998 17.76 13.2898 17.99C13.3498 18.04 13.4098 18.02 13.4598 18.02C13.9498 17.97 14.4498 18.04 14.9498 18.07C15.2098 18.08 15.4598 18.03 15.7098 18.02C15.7598 18.02 15.8098 18.05 15.8498 18.06C15.9098 18.07 15.9698 18.1 16.0298 18.09C16.6298 18.01 17.2598 18.09 17.8598 17.96C17.9998 17.93 18.7098 18.14 18.8698 18.09C18.9598 18.07 19.3098 18.38 19.3798 18.32L19.3698 18.33Z" fill="#231F20"/>
<path d="M10.64 31.29C10.54 31.44 10.32 31.37 10.06 31.22C9.97996 31.17 9.82996 30.96 9.84996 30.89C9.87996 30.77 9.90996 30.65 9.94996 30.53C9.97996 30.47 10.55 29.68 10.72 29.37C10.89 29.08 11.08 28.83 11.29 28.6C11.69 28.09 12.18 27.72 12.66 27.32C12.77 27.23 12.89 27.17 13.02 27.12C13.49 26.97 13.87 26.69 14.21 26.36C14.27 26.3 14.34 26.27 14.35 26.15C14.36 25.95 15.36 25.15 15.54 25.11C15.96 24.99 16.37 24.85 16.8 24.76C16.86 24.74 16.89 24.68 17 24.74C17.25 24.88 17.33 24.78 17.45 24.72C17.61 24.64 17.78 24.58 17.98 24.55C18.08 24.54 18.23 24.6 18.36 24.64C18.48 24.68 18.66 25 18.66 25.05C18.66 25.19 18.81 25.29 18.91 25.41C18.94 25.45 18.98 25.5 19 25.54C19.04 25.61 18.61 26.76 18.53 26.83C18.53 26.83 18.26 27.12 17.98 27.41C17.69 27.68 17.38 27.95 17.32 28.02C17.26 28.09 17.15 28.09 17.06 28.11C17.02 28.12 16.14 28.93 16.1 28.95C15.88 29.06 15.72 29.27 15.39 29.23C15.33 29.23 15.29 29.26 15.25 29.29C14.92 29.55 14.51 29.71 14.13 29.9C13.93 30 13.77 30.14 13.59 30.25C13.56 30.27 13.51 30.27 13.47 30.28C13.42 30.29 13.36 30.3 13.32 30.33C12.86 30.57 12.34 30.71 11.92 30.99C11.82 31.05 11.21 31.16 11.1 31.24C11.04 31.28 10.69 31.22 10.65 31.29H10.64Z" fill="#231F20"/>
</svg>
