<svg width="128" height="128" viewBox="0 0 128 128" fill="none" xmlns="http://www.w3.org/2000/svg">
<path d="M91.2298 76.27C91.2298 76.27 84.3998 74.61 83.3598 76.96C82.3998 79.11 82.2998 83.1 82.2998 83.1L80.8198 71.82L91.2398 76.27H91.2298Z" fill="#231F20"/>
<path d="M111.44 47.44C111.44 47.44 116.97 50.58 115.94 46.03C115.27 43.08 118.53 50.19 118.53 50.19L111.44 47.44Z" fill="#231F20"/>
<path d="M64.0298 50.74C64.0298 50.74 73.8398 24.62 74.4698 24.25C75.0998 23.88 76.6798 23.46 77.1898 24.6C77.6998 25.74 85.2698 35.93 85.2698 35.93L77.1398 56.61L64.0398 50.73L64.0298 50.74Z" fill="#231F20"/>
<path d="M71.6101 34.57L69.5301 38.79C69.2901 39.31 69.1101 39.86 68.8601 40.37C68.4401 41.29 67.9901 42.2 67.5801 43.13C67.1401 44.05 66.7201 44.97 66.3301 45.91C65.9801 46.74 65.7101 47.6 65.4401 48.45C65.2901 49 65.1301 49.55 64.9101 50.09C64.7201 50.63 64.5001 51.16 64.1301 51.66C63.9101 51.97 63.8101 51.9 63.6401 51.54C63.5201 51.28 63.4001 51.02 63.3001 50.79C63.1901 50.49 63.1501 50.16 63.1801 49.81C63.2501 48.59 63.6201 47.46 63.9301 46.31C64.2701 45.17 64.6701 44.04 65.1601 42.95C65.7701 41.65 66.1701 40.21 66.7101 38.85C67.3101 37.36 67.9601 35.88 68.6701 34.44L69.9801 31.77C70.6701 30.43 71.3601 29.09 72.0401 27.77C72.5601 26.73 72.9201 25.62 73.4901 24.61C73.6101 24.38 73.7101 24.15 73.8501 23.93C74.1001 23.52 74.3501 23.29 74.6201 23.21C74.8801 23.12 75.1101 23.12 75.3901 23.2C75.5201 23.23 75.6501 23.25 75.7501 23.3C76.1001 23.44 76.2001 23.98 76.1101 24.71C75.7801 25.66 75.5101 26.66 75.0701 27.58C74.6401 28.51 74.1801 29.44 73.7201 30.39C73.0301 31.78 72.3201 33.19 71.6601 34.62L71.6001 34.59L71.6101 34.57Z" fill="#231F20"/>
<path d="M81.6602 42.74C82.0902 41.83 82.5302 40.93 82.9802 40.04C83.2102 39.59 83.4402 39.15 83.6802 38.71L84.0402 38.05L84.2202 37.76L84.2602 37.7C84.3402 37.61 84.2002 37.55 84.1602 37.47L84.1102 37.41L83.9501 37.2L83.6301 36.74L81.4202 33.41L79.2402 30.05C78.5902 29.06 77.8802 28.1 77.1902 27.15C76.7402 26.54 76.2902 25.94 75.9002 25.28C75.5002 24.63 75.1202 23.97 74.9402 23.13C74.9102 22.97 74.9102 22.91 74.9102 22.77C74.9302 22.63 74.9801 22.61 75.0201 22.63C75.0901 22.7 75.1902 22.82 75.3902 22.91C75.5902 23.02 75.8802 23.16 76.2402 23.32C76.5702 23.5 76.8902 23.75 77.1802 24.06C78.2502 25.15 79.1401 26.39 80.0901 27.59C81.0201 28.8 81.9302 30.04 82.7802 31.34C83.7902 32.91 85.0301 34.33 86.2001 35.9C86.4601 36.25 86.7902 36.64 86.8502 37.05L86.9002 37.34V37.41L86.9202 37.45V37.47C86.9902 37.47 86.7702 37.48 87.0702 37.47L87.0302 37.62L86.8602 38.23L84.7001 42.57C84.1501 43.71 83.6202 44.87 83.1202 46.04C82.3602 47.82 81.6001 49.61 80.9501 51.42C80.4401 52.83 80.1402 54.28 79.6502 55.68C79.5502 55.99 79.4702 56.3 79.3502 56.61C79.2402 56.89 79.1402 57.13 79.0402 57.32C78.9302 57.5 78.7902 57.63 78.6702 57.74C78.4202 57.95 78.1801 58.03 77.8801 58.06C77.7401 58.07 77.6002 58.1 77.4802 58.1C77.0902 58.08 76.9102 57.48 76.9102 56.53C77.1402 55.2 77.3502 53.83 77.7802 52.52C78.1902 51.2 78.6602 49.88 79.1602 48.56C79.9002 46.6 80.7202 44.66 81.5702 42.72L81.6301 42.74H81.6602Z" fill="#231F20"/>
<path d="M108.93 72.81C105.35 81.83 99.3901 77.22 99.7101 77.69L105.91 79.89L108.93 72.8V72.81Z" fill="#231F20"/>
<path d="M100.98 77.93C102.27 78.29 103.64 78.61 104.78 78.73C104.93 78.73 104.9 78.73 104.92 78.75C104.95 78.75 104.98 78.75 105.01 78.73C105.04 78.71 105.06 78.71 105.1 78.67C105.18 78.58 105.27 78.51 105.36 78.4C105.72 77.97 106.09 77.43 106.42 76.87C106.92 76.04 107.31 75.13 107.75 74.24C109.33 71.09 110.76 67.8 112.1 64.49C112.7 63.02 113.19 61.5 113.7 60.01C114.02 59.05 114.35 58.09 114.67 57.12C115 56.16 115.36 55.21 116.08 54.38C116.52 53.86 116.57 53.97 116.77 54.6C116.86 54.91 117.09 55.39 117.16 55.9C117.2 56.16 117.27 56.44 117.26 56.72C117.24 56.99 117.19 57.28 117.11 57.56C116.02 61.58 114.48 65.45 112.67 69.27C111.57 71.54 110.7 74.02 109.52 76.36C108.84 77.65 108.2 78.91 107.13 80.17C106.89 80.46 106.39 80.92 105.89 81.1C105.76 81.14 105.62 81.19 105.49 81.22C105.35 81.24 105.2 81.24 105.06 81.25C104.76 81.27 104.6 81.25 104.4 81.22C103.61 81.15 102.91 81.01 102.2 80.86C100.46 80.48 98.7698 80.01 97.0998 79.51C94.5598 78.75 92.0698 77.83 89.5998 76.92C87.6898 76.21 85.7698 75.58 83.8798 74.8C83.4698 74.62 83.0498 74.46 82.6398 74.27C82.2598 74.08 81.9498 73.93 81.7098 73.76C81.4698 73.58 81.3198 73.36 81.1998 73.19C80.9598 72.83 80.8698 72.53 80.8698 72.19C80.8698 72.03 80.8398 71.87 80.8698 71.73C80.9498 71.3 81.7398 71.28 82.9598 71.48C86.2698 72.73 89.6898 74.01 93.1398 75.31C95.7198 76.25 98.3498 77.15 100.99 77.85V77.91L100.98 77.93Z" fill="#231F20"/>
<path d="M116.14 48.72C116.14 48.72 116.27 48.78 116.31 48.75C116.32 48.7 116.31 48.64 116.31 48.58L116.29 48.47C116.29 48.47 116.29 48.48 116.26 48.36L116.12 47.97L115.52 46.42C114.69 44.35 113.78 42.28 112.84 40.23C112.53 39.55 112.2 38.88 111.86 38.21L110.95 36.43C110.95 36.43 110.92 36.36 110.88 36.35C110.82 36.32 110.84 36.32 110.7 36.25L110.23 36.03L109.25 35.59L107.25 34.73L103.22 33.02L95.1402 29.61C92.7502 28.6 90.3202 27.63 87.9302 26.68C86.3902 26.07 84.8402 25.47 83.3102 24.83C81.7902 24.16 80.2302 23.56 78.9002 22.49C78.5602 21.99 78.4402 21.73 78.5002 21.63C78.5702 21.53 78.8402 21.53 79.4002 21.35C79.9702 21.16 80.6502 21.15 81.4602 21.16C82.2502 21.21 83.1102 21.42 83.9802 21.79C90.1402 24.43 96.3402 27.05 102.51 29.95C104.14 30.71 105.83 31.42 107.54 32.12C108.4 32.47 109.26 32.83 110.11 33.18L111.41 33.73C111.73 33.88 112.62 34.21 113.04 34.83L113.31 35.33L113.48 35.66L113.81 36.32C114.83 38.4 115.8 40.48 116.73 42.59C117.19 43.65 117.65 44.71 118.09 45.78L118.73 47.41C119.01 48.19 119.31 49.09 119.43 49.83C119.48 50.16 119.5 50.46 119.47 50.73C119.43 51 119.41 51.25 119.21 51.49C119.1 51.61 118.96 51.56 118.82 51.58L118.41 51.6L117.59 51.64C116.91 51.47 116.25 51.32 115.58 51.22L115.33 51.18C115.27 51.18 115.21 51.18 115.16 51.15L114.82 51.06L114.15 50.88C113.25 50.64 112.37 50.36 111.49 50.09C107.39 48.72 103.42 47.05 99.4902 45.4C96.4402 44.11 93.4202 42.92 90.4302 41.53C89.7702 41.23 89.1202 40.93 88.4702 40.6C87.2602 39.96 86.4902 39.48 86.0302 39C85.5802 38.52 85.4102 38.07 85.3802 37.6C85.3702 37.39 85.3302 37.16 85.3602 36.99C85.4202 36.7 85.7502 36.63 86.2502 36.7C86.5002 36.74 86.8002 36.8 87.1702 36.9C87.5402 36.99 87.9002 37.18 88.3502 37.37C93.5502 39.7 99.1302 42.15 104.76 44.43C106.86 45.25 108.96 46.07 111.09 46.8C112.15 47.17 113.21 47.51 114.27 47.9C114.8 48.09 115.33 48.24 115.86 48.41L115.96 48.44C115.96 48.44 116.04 48.5 116.03 48.5C116.03 48.5 116.03 48.55 116.04 48.6C116.06 48.64 116.08 48.63 116.1 48.65L116.14 48.72Z" fill="#231F20"/>
<path d="M103.147 37.1629C103.584 36.0648 101.929 34.3748 99.451 33.388C96.9727 32.4013 94.6092 32.4915 94.172 33.5896C93.7348 34.6876 95.3894 36.3777 97.8678 37.3644C100.346 38.3512 102.71 38.2609 103.147 37.1629Z" fill="#231F20"/>
<path d="M113.07 58.18C113.07 58.46 113.03 58.74 112.96 59.01C112.34 61.36 109.29 62.28 107.74 60.24C106.22 58.25 107.23 55.17 109.84 54.93C111.75 54.75 113.09 56.42 113.07 58.18Z" fill="#231F20"/>
<path d="M89.8901 65.04C89.8901 65.32 89.8501 65.6 89.7801 65.87C89.1601 68.22 86.1101 69.14 84.5601 67.1C83.0401 65.11 84.0501 62.03 86.6601 61.79C88.5701 61.61 89.9101 63.28 89.8901 65.04Z" fill="#231F20"/>
<path d="M101.61 61.41C101.61 61.69 101.57 61.97 101.5 62.24C100.88 64.59 97.8298 65.51 96.2798 63.47C94.7598 61.48 95.7698 58.4 98.3798 58.16C100.29 57.98 101.63 59.65 101.61 61.41Z" fill="#231F20"/>
<path d="M74.98 71.86C74.98 72.19 74.94 72.53 74.87 72.86C74.25 75.69 71.2 76.8 69.65 74.34C68.13 71.95 69.14 68.24 71.75 67.94C73.66 67.73 75 69.74 74.98 71.85V71.86Z" fill="#231F20"/>
<path d="M76.4399 86.56C76.4399 86.88 76.3999 87.21 76.3299 87.53C75.7099 90.28 72.6599 91.36 71.1099 88.97C69.5899 86.64 70.5999 83.03 73.2099 82.75C75.1199 82.54 76.4599 84.5 76.4399 86.56Z" fill="#231F20"/>
<path d="M16.7098 87.59C16.7098 87.59 16.2598 95.63 23.7798 98.25C28.7098 99.97 15.7598 95.39 15.7598 95.39L16.6998 87.59H16.7098Z" fill="#231F20"/>
<path d="M28.6702 54.11C28.2502 54.53 21.9902 56.54 21.9902 58.68C21.9902 60.17 30.5802 63.78 30.5802 63.78L16.9902 59.17L28.6702 54.1V54.11Z" fill="#231F20"/>
<path d="M38.1198 107.11C30.0498 102.23 7.79983 95.03 8.99983 92.35C9.76983 90.63 15.2398 90.3 15.7498 90.63L15.7698 95.39L30.5998 102.95L38.1198 107.1V107.11Z" fill="#231F20"/>
<path d="M17.08 88.45L17.35 91.95C17.42 93 17.68 94.68 17.62 94.51C17.58 94.54 18.98 95.12 19.86 95.55C20.99 96.08 22.17 96.53 23.3 97.07L35.3 102.78C37.08 103.62 38.91 104.37 40.7 105.13C41.85 105.62 43.01 106.11 44.17 106.6L45.03 106.99L45.82 107.52C46.35 107.87 46.86 108.28 47.37 108.66C48 109.16 47.85 109.25 47.09 109.33C46.62 109.39 46.08 109.45 45.52 109.51C45.2 109.54 44.85 109.56 44.49 109.56C44.31 109.56 44.13 109.55 43.94 109.56C43.77 109.51 43.6 109.46 43.43 109.39C38.62 107.63 33.99 105.46 29.4 103.08C26.67 101.63 23.67 100.47 20.8 99.15L18.27 97.97C17.85 97.78 17.43 97.55 17.01 97.34L16.68 97.17L16.23 96.91C15.93 96.74 15.63 96.57 15.36 96.35C15.23 96.08 15.16 95.78 15.09 95.47C15.02 95.18 14.92 94.83 14.93 94.57L14.82 93.34L14.6 90.91C14.43 88.77 14.28 86.63 14.16 84.49C13.96 81.25 13.86 77.99 13.72 74.77C13.6 72.27 13.41 69.81 13.33 67.32C13.33 66.77 13.29 66.23 13.29 65.68C13.26 64.65 13.47 63.98 13.62 63.51C13.71 63.28 13.8 63.1 13.92 62.95C14.07 62.8 14.24 62.69 14.38 62.59C14.51 62.5 14.63 62.38 14.71 62.33C14.88 62.15 15.65 63.03 15.74 64.5C16.1 68.86 16.22 73.45 16.47 78.07C16.65 81.5 16.84 84.96 17.14 88.4H17.07L17.08 88.45Z" fill="#231F20"/>
<path d="M48.4799 84.35C48.4699 86.33 48.5099 88.33 48.5799 90.32C48.6099 91.05 48.7199 91.77 48.7399 92.5C48.8099 95.07 48.9599 97.64 48.9699 100.23C48.9999 101.38 49.0899 102.52 49.1699 103.65C49.2099 104.38 49.3299 105.1 49.2799 105.84C49.2499 106.58 49.1899 107.31 49.1199 108.05C49.0699 108.51 48.9799 108.45 48.7599 108.09C48.5599 107.72 48.1299 107.05 47.8499 106.23C47.7499 105.87 47.5899 105.51 47.5299 105.14L47.3499 104.04L47.0199 101.84C46.8399 100.37 46.6099 98.89 46.6299 97.39C46.6299 95.59 46.2999 93.75 46.1499 91.91C45.9799 89.9 45.8699 87.87 45.7699 85.85L45.6399 82.11C45.5899 80.22 45.6499 78.31 45.6199 76.44C45.6199 75.71 45.5799 74.98 45.5299 74.26C45.4799 73.53 45.5099 72.81 45.5099 72.08C45.5099 71.76 45.4999 71.45 45.5399 71.12C45.6399 70.53 45.7599 70.14 45.9199 69.88C46.1099 69.62 46.2999 69.48 46.5399 69.37C46.6499 69.32 46.7499 69.26 46.8499 69.23C47.0099 69.19 47.1499 69.29 47.2999 69.52C47.4499 69.75 47.6499 70.1 47.7199 70.53C47.9899 71.82 48.1499 73.11 48.2599 74.42C48.3199 75.73 48.3599 77.05 48.3999 78.38C48.4899 80.36 48.5099 82.35 48.5399 84.35H48.4699H48.4799Z" fill="#231F20"/>
<path d="M34.45 64.45L39.02 66.15C40.54 66.71 42.07 67.27 43.61 67.72C44.38 67.95 45.15 68.19 45.88 68.38L46.21 68.46C46.21 68.46 46.29 68.47 46.33 68.46C46.36 68.46 46.34 68.46 46.42 68.44L46.66 68.36C46.83 68.3 46.98 68.26 47.16 68.18C48.59 67.62 50.09 66.94 51.56 66.28C53.72 65.3 55.84 64.22 58.01 63.24C60.73 62.01 63.47 60.79 66.23 59.64L70.39 57.93L72.35 57.15C72.48 57.1 72.61 57.03 72.77 56.99L73 56.92C73.09 56.9 73.05 56.84 73.09 56.8L73.97 56.57L74.2 56.51C74.24 56.45 74.14 56.42 74.1 56.39C74 56.33 73.88 56.28 73.77 56.23C73.31 56.03 72.81 55.84 72.28 55.64L69.7 54.75L67.05 53.87C65.28 53.3 63.51 52.73 61.75 52.16C59.49 51.43 57.21 50.72 54.96 49.94C53.83 49.56 52.71 49.13 51.61 48.66L49.97 47.94C49.43 47.68 48.94 47.3 48.42 47C47.15 46.18 47.41 46.1 48.75 46.12C49.41 46.15 50.42 45.99 51.49 46.18C52.57 46.34 53.83 46.51 55.1 46.98C59.21 48.42 63.37 49.8 67.53 51.21L70.65 52.28L74.42 53.61C75.41 53.96 76.36 54.33 77.23 54.7C78.12 55.08 78.42 55.55 78.6 55.9C78.68 56.09 78.73 56.25 78.77 56.45C78.77 56.49 78.79 56.57 78.77 56.65C78.76 56.7 78.7 56.75 78.67 56.8L78.44 57.09C78.13 57.48 77.8 57.86 77.47 58.24C76.55 58.45 75.93 58.84 75.22 59.17C74.87 59.33 74.47 59.47 74.09 59.62L73.15 59.98C67.72 62.03 62.29 64.73 56.86 67.22L52.37 69.27C50.84 69.94 49.39 70.62 47.71 71.23C47.37 71.34 46.6 71.64 45.97 71.52C45.81 71.49 45.65 71.46 45.5 71.42L45.15 71.33L44.53 71.14C43.72 70.88 42.94 70.61 42.16 70.34C40.6 69.77 39.03 69.28 37.48 68.73C33.65 67.39 29.83 66.03 26.05 64.59C23.83 63.75 21.61 62.89 19.4 61.99L17.27 61.1C16.5 60.77 15.73 60.41 15.26 60.02C15.01 59.83 14.81 59.64 14.65 59.44C14.58 59.34 14.47 59.25 14.46 59.09C14.54 58.98 14.65 58.9 14.74 58.81L15.31 58.26L15.59 57.99L16.11 57.69C17.05 57.27 18.04 56.85 18.87 56.44C19.49 56.14 20.11 55.84 20.73 55.55C25 53.5 29.16 51.42 33.46 49.54C34.41 49.13 35.33 48.7 36.3 48.31C39.89 46.88 41.12 46.63 42.15 47.04C42.38 47.12 42.66 47.18 42.81 47.27C43.3 47.55 42.03 48.64 39.46 49.74C36.01 51.3 32.49 52.92 28.94 54.6C27.17 55.45 25.38 56.31 23.59 57.17C21.99 57.95 19.21 59.31 20.02 58.93C20.02 58.93 20 58.93 20.13 58.98L20.7 59.2L25.27 60.95L34.49 64.38L34.47 64.45H34.45Z" fill="#231F20"/>
<path d="M82.5999 82.9C82.6499 84.7 82.6099 86.52 82.5699 88.34C82.5299 89.27 82.4999 90.17 82.3799 91.19C82.3199 91.45 82.3199 91.83 82.1699 92.2C82.0499 92.58 81.8199 92.91 81.5899 93.23C81.2899 93.56 81.1199 93.73 80.9099 93.91C80.6999 94.1 80.4999 94.25 80.3099 94.4C79.1499 95.27 78.0499 96.01 76.8799 96.67C72.7699 98.94 68.5299 100.75 64.3699 102.73C62.5199 103.6 60.6899 104.53 58.8899 105.45C56.5499 106.59 54.3599 108.04 51.7399 108.61C50.9099 108.75 50.9399 108.58 51.3599 107.89C51.7499 107.14 52.5799 105.95 53.8899 105.23C58.5999 102.77 63.3899 100.53 68.1999 98.22C71.0799 96.86 73.9199 95.12 76.6199 93.44C77.3499 92.97 78.0699 92.49 78.6899 91.99C78.8499 91.87 78.9699 91.74 79.1099 91.62C79.2399 91.48 79.2599 91.48 79.3199 91.39C79.3699 91.32 79.3999 91.26 79.4099 91.14C79.4199 91.02 79.4699 90.84 79.4699 90.63C79.5899 88.95 79.5899 87.14 79.5699 85.36C79.5499 83.16 79.5099 80.95 79.4099 78.75C79.2699 75.41 79.0799 72.05 78.7699 68.74C78.5299 66.17 78.0499 63.68 77.7099 61.16C77.6399 60.6 77.5399 60.07 77.4799 59.5C77.3599 58.46 77.3399 57.77 77.4499 57.26C77.5299 56.76 77.6799 56.45 77.8699 56.19C77.9599 56.07 78.0299 55.92 78.1099 55.85C78.3299 55.61 78.8699 56.39 79.4599 57.87C79.7799 58.99 80.1099 60.13 80.3899 61.28C80.6899 62.43 80.8699 63.61 81.0799 64.8C81.4699 67.17 81.7999 69.59 82.0299 72.02C82.3499 75.63 82.5399 79.26 82.6799 82.9H82.5999Z" fill="#231F20"/>
<path d="M60.4302 77.99C60.4302 78.32 60.3902 78.66 60.3202 78.99C59.7002 81.81 56.6502 82.92 55.1002 80.47C53.5802 78.08 54.5902 74.37 57.2002 74.08C59.1102 73.87 60.4502 75.87 60.4302 77.99Z" fill="#231F20"/>
<path d="M61.9199 94.48C61.9199 94.81 61.8799 95.14 61.8099 95.46C61.1899 98.23 58.1399 99.32 56.5899 96.92C55.0699 94.57 56.0799 90.93 58.6899 90.64C60.5999 90.43 61.9399 92.4 61.9199 94.48Z" fill="#231F20"/>
<path d="M23.9999 70.47C24.1599 70.76 24.2999 71.07 24.3999 71.39C25.2699 74.14 23.1799 76.62 20.6199 75.28C18.1099 73.97 17.1399 70.26 19.2499 68.7C20.7999 67.56 22.9599 68.63 23.9999 70.47Z" fill="#231F20"/>
<path d="M43.0101 97.79C43.1601 98.09 43.2801 98.4 43.3701 98.72C44.1301 101.51 41.9301 103.9 39.4201 102.44C36.9701 101.02 36.1501 97.28 38.3301 95.81C39.9301 94.74 42.0401 95.9 43.0001 97.78L43.0101 97.79Z" fill="#231F20"/>
<path d="M46.1901 59.18C48.8411 59.18 50.9901 58.2219 50.9901 57.04C50.9901 55.8581 48.8411 54.9 46.1901 54.9C43.5392 54.9 41.3901 55.8581 41.3901 57.04C41.3901 58.2219 43.5392 59.18 46.1901 59.18Z" fill="#231F20"/>
<path d="M23.2202 35.92C23.2702 36.1 23.0502 36.21 22.7202 36.3C22.6202 36.33 22.3202 36.29 22.2802 36.23C22.2002 36.12 22.1102 36.02 22.0402 35.91C22.0002 35.85 21.7502 34.86 21.7202 34.53C21.6502 34.21 21.6502 33.89 21.6702 33.57C21.6902 32.93 21.7202 32.29 21.8102 31.65C21.8302 31.51 21.8702 31.37 21.9302 31.24C22.1502 30.78 22.2302 30.31 22.2602 29.82C22.2602 29.74 22.2902 29.66 22.2302 29.57C22.1202 29.42 22.3202 28.11 22.4202 27.96C22.6302 27.57 22.8502 27.18 23.0802 26.79C23.1102 26.74 23.1002 26.67 23.2102 26.63C23.4502 26.55 23.4502 26.42 23.5002 26.29C23.5702 26.12 23.6302 25.95 23.7702 25.79C23.8402 25.71 23.9802 25.65 24.0902 25.59C24.1902 25.53 24.4502 25.63 24.4702 25.67C24.5402 25.77 24.6902 25.73 24.8002 25.75C24.8402 25.75 24.8902 25.76 24.9202 25.77C25.0002 25.8 25.4002 26.93 25.3802 27.04C25.3802 27.05 25.3802 27.44 25.3702 27.84C25.3702 28.24 25.3102 28.66 25.3202 28.74C25.3202 28.83 25.2502 28.91 25.2002 28.99C25.1802 29.03 25.1202 30.23 25.1002 30.27C25.0302 30.51 25.0602 30.76 24.8202 30.97C24.7702 31.01 24.7702 31.06 24.7702 31.11C24.7202 31.53 24.5702 31.94 24.4502 32.35C24.3902 32.56 24.3802 32.78 24.3402 32.99C24.3402 33.03 24.2902 33.06 24.2702 33.1C24.2402 33.15 24.2102 33.19 24.2002 33.24C24.1102 33.75 23.9102 34.24 23.8802 34.76C23.8702 34.88 23.5902 35.41 23.5502 35.55C23.5302 35.63 23.2202 35.84 23.2402 35.91L23.2202 35.92Z" fill="#231F20"/>
<path d="M17.9798 36.96C18.1798 37.02 18.1398 37.28 17.9798 37.64C17.9298 37.75 17.6798 38 17.5998 38C17.4498 38 17.3098 38 17.1798 37.98C17.1098 37.96 16.1798 37.45 15.8398 37.31C15.5098 37.16 15.2298 36.97 14.9598 36.77C14.4398 36.33 13.9298 35.87 13.4198 35.42C13.3098 35.32 13.2098 35.2 13.1298 35.06C12.8598 34.6 12.4898 34.24 12.0798 33.91C12.0098 33.86 11.9598 33.79 11.8398 33.79C11.6498 33.79 10.6098 32.84 10.5198 32.67C10.2898 32.26 10.0998 31.81 9.86979 31.39C9.83979 31.33 9.76979 31.3 9.79979 31.19C9.85979 30.93 9.74979 30.84 9.67979 30.72C9.56979 30.55 9.46979 30.37 9.42979 30.14C9.40979 30.02 9.42979 29.86 9.42979 29.74C9.42979 29.62 9.56979 29.54 9.60979 29.54C9.71979 29.55 9.72979 29.44 9.77979 29.38C9.79979 29.36 9.81979 29.33 9.83979 29.32C9.84979 29.32 9.93979 29.32 10.0798 29.33C10.2298 29.33 10.4098 29.35 10.5898 29.38C10.9198 29.46 11.2898 29.53 11.3398 29.57C11.3498 29.57 11.6998 29.81 12.0698 30.06C12.4498 30.29 12.7898 30.59 12.8798 30.64C12.9598 30.69 12.9898 30.8 13.0398 30.89C13.0598 30.93 14.1098 31.73 14.1398 31.77C14.3098 31.98 14.5598 32.12 14.6098 32.45C14.6098 32.52 14.6698 32.55 14.7098 32.58C15.0598 32.89 15.3298 33.28 15.6198 33.64C15.7698 33.83 15.9498 33.98 16.1198 34.15C16.1498 34.18 16.1598 34.23 16.1798 34.27C16.2098 34.32 16.2298 34.38 16.2698 34.41C16.6898 34.78 16.9698 35.3 17.3898 35.68C17.4798 35.77 17.7498 36.38 17.8698 36.47C17.9298 36.53 17.9298 36.92 18.0098 36.94L17.9798 36.96Z" fill="#231F20"/>
<path d="M11.2299 46.86C11.3599 46.74 11.4799 46.96 11.5899 47.38C11.6299 47.51 11.6399 47.92 11.5999 47.98C11.5299 48.1 11.4599 48.21 11.3899 48.29C11.3499 48.34 10.6199 48.59 10.3799 48.7C10.1399 48.8 9.89994 48.84 9.65994 48.86L8.18994 49.02C8.07994 49.03 7.96994 49.02 7.85994 48.99C7.47994 48.87 7.10994 48.9 6.73994 48.96C6.67994 48.96 6.60994 48.96 6.55994 49.03C6.46994 49.16 5.44994 49.18 5.31994 49.13C4.98994 48.99 4.65994 48.93 4.31994 48.78C4.26994 48.76 4.21994 48.78 4.17994 48.7C4.06994 48.5 3.96994 48.53 3.86994 48.51C3.72994 48.48 3.58994 48.45 3.43994 48.38C3.36994 48.35 3.29994 48.24 3.22994 48.17C3.16994 48.1 3.18994 47.86 3.20994 47.83C3.26994 47.75 3.20994 47.63 3.20994 47.53C3.20994 47.5 3.20994 47.45 3.20994 47.42C3.20994 47.36 3.99994 46.77 4.07994 46.76C4.07994 46.76 4.15994 46.74 4.27994 46.7C4.38994 46.67 4.53994 46.6 4.69994 46.58C5.00994 46.52 5.33994 46.45 5.39994 46.42C5.46994 46.39 5.53994 46.44 5.60994 46.46C5.63994 46.47 6.56994 46.24 6.60994 46.24C6.80994 46.25 6.99994 46.18 7.19994 46.36C7.23994 46.4 7.27994 46.38 7.31994 46.38C7.64994 46.35 7.98994 46.41 8.32994 46.45C8.49994 46.47 8.66994 46.45 8.83994 46.45C8.86994 46.45 8.89994 46.48 8.92994 46.49C8.96994 46.5 9.00994 46.53 9.04994 46.52C9.44994 46.49 9.85994 46.58 10.2699 46.5C10.3599 46.48 10.8199 46.67 10.9199 46.64C10.9799 46.62 11.1899 46.91 11.2399 46.86H11.2299Z" fill="#231F20"/>
<path d="M114.25 24.22C114.23 24.37 114.02 24.34 113.72 24.22C113.62 24.18 113.39 23.99 113.38 23.93C113.36 23.82 113.34 23.71 113.34 23.6C113.34 23.54 113.64 22.83 113.73 22.57C113.82 22.32 113.95 22.11 114.09 21.9C114.39 21.5 114.65 21.04 115.01 20.69C115.09 20.61 115.18 20.54 115.29 20.5C115.66 20.34 115.94 20.08 116.19 19.79C116.23 19.74 116.29 19.71 116.29 19.61C116.29 19.44 117.07 18.76 117.21 18.72C117.56 18.63 117.87 18.48 118.22 18.4C118.27 18.39 118.3 18.34 118.39 18.39C118.6 18.51 118.66 18.42 118.76 18.39C118.9 18.34 119.05 18.31 119.21 18.3C119.29 18.3 119.41 18.35 119.51 18.38C119.6 18.41 119.72 18.65 119.72 18.69C119.72 18.8 119.83 18.87 119.89 18.96C119.91 18.99 119.94 19.03 119.96 19.06C119.98 19.09 119.9 19.33 119.83 19.58C119.77 19.84 119.69 20.1 119.66 20.12C119.66 20.16 118.87 20.92 118.79 21.03C118.75 21.09 118.67 21.09 118.6 21.1C118.56 21.1 117.99 21.78 117.96 21.8C117.8 21.89 117.72 22.07 117.46 22.05C117.41 22.05 117.39 22.08 117.36 22.1C117.14 22.33 116.86 22.48 116.6 22.66C116.47 22.76 116.36 22.87 116.23 22.97C116.21 22.99 116.17 22.99 116.13 23C116.09 23.01 116.05 23.02 116.02 23.04C115.74 23.29 115.38 23.48 115.14 23.78C115.08 23.84 114.65 24.02 114.59 24.11C114.56 24.15 114.25 24.14 114.25 24.21V24.22Z" fill="#231F20"/>
<path d="M119.13 32.07C119.05 32.15 118.94 32.03 118.82 31.82C118.78 31.75 118.73 31.53 118.75 31.49C118.79 31.41 118.83 31.34 118.87 31.28C118.9 31.25 119.39 30.96 119.55 30.85C119.71 30.74 119.88 30.67 120.05 30.62C120.4 30.51 120.75 30.39 121.1 30.27C121.18 30.25 121.26 30.24 121.34 30.25C121.63 30.29 121.9 30.23 122.17 30.14C122.21 30.12 122.26 30.12 122.3 30.05C122.33 29.99 122.53 29.91 122.74 29.86C122.95 29.81 123.16 29.82 123.21 29.84C123.46 29.95 123.71 30.01 123.96 30.1C124 30.11 124.03 30.08 124.07 30.16C124.15 30.34 124.22 30.31 124.3 30.33C124.4 30.35 124.51 30.38 124.61 30.44C124.66 30.47 124.72 30.57 124.77 30.65C124.82 30.72 124.8 30.98 124.79 31.01C124.75 31.09 124.79 31.22 124.79 31.33C124.79 31.37 124.79 31.42 124.79 31.44C124.79 31.49 124.24 32.04 124.18 32.04C124.18 32.04 123.97 32.09 123.75 32.14C123.54 32.2 123.31 32.26 123.27 32.28C123.22 32.3 123.17 32.26 123.12 32.24C123.1 32.25 122.45 32.37 122.43 32.37C122.29 32.35 122.16 32.41 122.01 32.26C121.98 32.23 121.95 32.24 121.93 32.24C121.7 32.27 121.46 32.21 121.21 32.19C121.09 32.18 120.97 32.2 120.85 32.21C120.83 32.21 120.8 32.19 120.78 32.19C120.75 32.19 120.72 32.17 120.69 32.17C120.41 32.2 120.11 32.16 119.83 32.23C119.77 32.24 119.43 32.15 119.35 32.18C119.31 32.19 119.13 32.04 119.1 32.08L119.13 32.07Z" fill="#231F20"/>
</svg>
