<svg width="128" height="128" viewBox="0 0 128 128" fill="none" xmlns="http://www.w3.org/2000/svg">
<path d="M72.8201 47.2501L67.8201 48.1001L66.0001 48.4601L59.5401 49.6101L56.6901 50.1801C55.4736 50.4891 54.2321 50.6899 52.9801 50.7801C52.5601 50.7801 52.6401 50.5501 52.9801 50.2801C53.4184 49.9263 53.937 49.6859 54.4901 49.5801C56.9401 49.0701 59.4201 48.5801 61.9401 48.1901C63.4401 47.9601 64.9401 47.5901 66.5201 47.3001L71.5201 46.3801L74.6401 45.8401L79.3801 45.0901C80.6001 44.9101 81.7801 44.6401 83.0101 44.4901L83.8101 44.3701C84.8101 44.2901 85.1601 44.3701 85.3801 44.6701C85.4366 44.7352 85.4868 44.8055 85.5301 44.8801C85.6201 45.1201 85.2201 45.3401 84.5301 45.4301L77.9001 46.4301L72.9001 47.2601L72.8201 47.2501Z" fill="#231F20"/>
<path d="M29.23 65.7301C31.17 66.7168 33.12 67.6868 35.08 68.6401L37.25 69.6401L44.84 73.2901C45.96 73.8301 47.11 74.3501 48.23 74.8601C49.7192 75.4641 51.1432 76.218 52.48 77.1101C52.9 77.4001 52.72 77.5301 52.25 77.5101C51.9465 77.4896 51.6454 77.4428 51.35 77.3701C50.9428 77.2961 50.5465 77.1718 50.17 77.0001C47.25 75.6701 44.24 74.4601 41.33 73.0001C39.58 72.1301 37.69 71.3601 35.87 70.5401C33.87 69.6201 31.87 68.6834 29.87 67.7301L26.23 65.9001C24.39 65.0001 22.56 64.0301 20.74 63.1101C19.34 62.3701 17.91 61.7301 16.52 60.9801C16.2031 60.8367 15.8958 60.673 15.6 60.4901C14.5 59.7801 14.23 59.4401 14.22 58.9701C14.2053 58.864 14.2053 58.7563 14.22 58.6501C14.22 58.3601 14.87 58.4101 15.72 58.8001C18.23 59.9701 20.72 61.3901 23.39 62.7101C25.33 63.7101 27.28 64.7101 29.25 65.7101L29.23 65.7301Z" fill="#231F20"/>
<path d="M52.24 59.45L51.95 62.45C51.95 62.82 51.95 63.19 51.89 63.57L51.53 67.49C51.53 68.07 51.47 68.65 51.46 69.23C51.4834 69.9718 51.4467 70.7142 51.35 71.45C51.28 71.91 50.35 71.32 50.3 70.45C50.2401 68.9268 50.3104 67.4013 50.51 65.89C50.64 64.98 50.61 64.03 50.66 63.09L50.86 60.01L51 58.17C51.06 57.17 51.15 56.25 51.17 55.3C51.17 54.56 51.17 53.83 51.17 53.1C51.17 52.94 51.17 52.78 51.17 52.61C51.1675 52.3918 51.2048 52.1749 51.28 51.97C51.3128 51.906 51.3609 51.8511 51.42 51.81C51.444 51.761 51.4791 51.7184 51.5225 51.6854C51.5659 51.6524 51.6164 51.63 51.67 51.62C51.7021 51.6128 51.7356 51.6156 51.766 51.6281C51.7964 51.6407 51.8223 51.6623 51.84 51.69C51.78 51.57 51.84 51.78 51.84 51.69C51.8606 51.7573 51.891 51.8213 51.93 51.88C51.9544 51.9164 51.9906 51.9432 52.0325 51.956C52.0744 51.9688 52.1194 51.9666 52.16 51.95C52.24 51.86 52.26 51.95 52.29 52.04C52.3238 52.1338 52.3473 52.2311 52.36 52.33C52.5192 53.6805 52.5627 55.0421 52.49 56.4C52.49 57.4 52.39 58.45 52.32 59.48L52.24 59.45Z" fill="#231F20"/>
<path d="M32.6602 53.09C32.6602 54.03 32.6402 54.97 32.6002 55.91V56.91L32.5402 60.56C32.5402 61.1 32.5402 61.64 32.5402 62.18C32.6145 62.8839 32.5842 63.595 32.4502 64.29C32.4002 64.51 32.1502 64.44 31.9302 64.23C31.7964 64.1191 31.6867 63.9821 31.6076 63.8273C31.5285 63.6726 31.4817 63.5034 31.4702 63.33C31.4702 61.97 31.3802 60.57 31.4702 59.15C31.5302 58.31 31.4702 57.43 31.4202 56.56C31.3702 55.69 31.4202 54.65 31.4202 53.7V51.94L31.5102 49.27C31.5102 48.58 31.5102 47.9 31.5102 47.21C31.5004 47.0602 31.5004 46.9099 31.5102 46.76C31.5702 46.2 31.6702 46.03 31.9502 45.95L32.1402 45.89C32.3502 45.89 32.5002 46.11 32.5402 46.52C32.6408 47.754 32.6709 48.9926 32.6302 50.23L32.5802 53.06L32.6602 53.09Z" fill="#231F20"/>
<path d="M58.76 20.26C59.4501 20.0491 60.1511 19.8755 60.86 19.74C61.12 19.68 61.36 19.58 61.62 19.54C62.53 19.39 63.46 19.32 64.37 19.21C64.78 19.16 65.18 19.08 65.58 19.02C66.0992 18.9383 66.6244 18.9015 67.15 18.91C67.29 18.91 67.32 18.91 67.15 18.91C67.01 18.91 66.82 19.18 66.5599 19.34C65.6736 19.9448 64.6787 20.3727 63.63 20.6C63.01 20.71 62.41 20.99 61.78 21.15C61.15 21.31 60.41 21.49 59.72 21.65C59.3 21.75 58.87 21.85 58.47 21.97C58.2175 22.0223 57.9768 22.1206 57.76 22.26C57.5799 22.4523 57.4676 22.6981 57.44 22.96C57.36 23.42 57.44 23.96 57.37 24.43V24.77C57.3457 24.9939 57.2884 25.2129 57.2 25.42C57.2 25.42 57.2 25.47 57.2 25.48C57.1892 25.3313 57.152 25.1856 57.09 25.05C56.85 24.16 56.09 23.35 56.52 21.87C56.629 21.5725 56.8073 21.3052 57.04 21.09C57.2368 20.9113 57.4593 20.763 57.7 20.65C58.0479 20.48 58.4051 20.3297 58.77 20.2L58.76 20.26Z" fill="#231F20"/>
<path d="M49.4499 33.47H49.3699H49.0799L48.3799 33.42C48.1967 33.4307 48.0131 33.4307 47.8299 33.42C47.1599 33.42 46.4399 33.23 45.7299 33.18C45.4099 33.18 45.0999 33.18 44.7899 33.18C44.3558 33.2005 43.9216 33.1394 43.5099 33C43.3899 32.94 43.4099 33 43.5099 32.94C43.6099 32.88 43.7599 32.63 43.9399 32.46C44.2042 32.1281 44.5325 31.8527 44.9053 31.65C45.278 31.4473 45.6877 31.3215 46.1099 31.28C46.6022 31.201 47.0897 31.0942 47.5699 30.96C48.174 30.8808 48.7858 30.8808 49.3899 30.96C49.9352 31.014 50.4429 31.2624 50.8199 31.66C51.2014 32.181 51.4174 32.8047 51.4399 33.45C51.5205 33.8345 51.5474 34.2282 51.5199 34.62C51.5199 34.71 51.5199 34.79 51.5199 34.88C51.5199 35.19 51.3899 35.33 51.3999 35.4C51.3133 35.3027 51.2161 35.2155 51.1099 35.14C50.8399 34.85 50.5199 34.53 50.2199 34.24C49.9199 33.95 49.6899 33.68 49.5199 33.5C49.4676 33.4425 49.4025 33.398 49.3299 33.37H49.2699C49.2699 33.37 49.2699 33.37 49.3199 33.37C49.3835 33.3246 49.4407 33.2708 49.4899 33.21C49.5145 33.1833 49.5347 33.153 49.5499 33.12C49.5499 33.19 49.7499 32.51 49.6599 32.8V32.86L49.5899 33.06C49.5528 33.2012 49.5261 33.345 49.5099 33.49L49.4499 33.47Z" fill="#231F20"/>
<path d="M18.5698 87.83C21.5098 89.68 24.4598 91.52 27.4398 93.32C28.5198 93.98 29.6498 94.57 30.7298 95.23L42.1798 102.23C43.8798 103.23 45.6198 104.23 47.3398 105.23C49.5498 106.46 51.7498 107.74 53.8398 109.23C54.4898 109.69 54.2498 109.89 53.4998 109.85C52.3445 109.741 51.2174 109.429 50.1698 108.93C47.8098 107.84 45.5498 106.6 43.2898 105.33C41.0298 104.06 38.7898 102.76 36.5698 101.33C33.9198 99.69 31.0498 98.18 28.2898 96.57C25.2632 94.7967 22.2632 93 19.2898 91.18C17.4398 90.06 15.5998 88.93 13.7598 87.77C13.0698 87.34 12.3798 86.89 11.6898 86.43C11.3398 86.21 10.9998 85.97 10.6898 85.73C10.4998 85.58 10.2098 85.41 10.0098 85.23L9.83984 85.09C9.81525 85.0214 9.7952 84.9513 9.77984 84.88C9.73385 84.7426 9.6971 84.6023 9.66984 84.46C9.58092 83.9972 9.51749 83.5298 9.47984 83.06L9.37984 81.82L9.19984 79.37C9.00984 76.85 8.70984 74.37 8.56984 71.89C8.56984 71.34 8.48984 70.8 8.46984 70.24C8.41679 69.5056 8.47409 68.7675 8.63984 68.05C8.75175 67.6689 8.96215 67.324 9.24984 67.05C9.33945 66.9432 9.44 66.846 9.54984 66.76C9.70984 66.66 9.84984 66.82 10.0398 67.19C10.315 67.7149 10.4976 68.2832 10.5798 68.87C10.9198 71.08 11.1998 73.35 11.4198 75.65C11.6398 77.95 11.7598 80.3 11.9798 82.58L12.0898 83.58C12.7398 84.05 13.5098 84.51 14.2198 84.98L18.6598 87.74L18.5698 87.83Z" fill="#231F20"/>
<path d="M54.6202 95.86V99.34C54.6202 99.77 54.6802 100.19 54.6802 100.61L54.6202 105.11C54.6202 105.78 54.6202 106.44 54.7002 107.11C54.84 107.971 54.84 108.849 54.7002 109.71C54.6402 109.99 54.2402 109.91 53.8502 109.71C53.6406 109.601 53.4571 109.448 53.3121 109.262C53.1672 109.075 53.0642 108.86 53.0102 108.63C52.806 106.925 52.7425 105.206 52.8202 103.49C52.8416 102.425 52.7981 101.36 52.6902 100.3L52.6002 96.78V94.61C52.6002 93.52 52.6002 92.41 52.6002 91.33C52.6002 90.48 52.4202 89.65 52.4102 88.79C52.4102 88.6 52.4102 88.42 52.4102 88.23C52.4102 87.52 52.6202 87.23 53.0602 87.23C53.158 87.2005 53.2585 87.1804 53.3602 87.17C53.7002 87.17 53.9602 87.46 54.0502 87.93C54.2102 88.64 54.3802 89.38 54.4802 90.14C54.5802 90.9 54.6302 91.67 54.6902 92.44L54.7902 94.18V95.93L54.6202 95.86Z" fill="#231F20"/>
<path d="M117.31 96L102.31 99.75C100.49 100.2 98.69 100.75 96.87 101.15L77.55 105.65L69 107.72C65.3884 108.708 61.7131 109.447 58 109.93C56.79 110 57 109.64 57.85 109.1C59.2902 108.24 60.8557 107.609 62.49 107.23C69.86 105.37 77.26 103.56 84.77 101.9C89.26 100.9 93.86 99.59 98.42 98.41L113.42 94.57C116.51 93.77 119.59 92.97 122.65 92.12L124.5 91.59L125.02 91.44C125.08 91.44 125.24 91.44 125.21 91.31V91.05C125.21 87.6 125.21 84.15 125.21 80.73C125.21 77 125.06 73.35 125.09 69.65C125.09 68.83 125.09 68.03 125.09 67.21C125.25 64.21 125.56 63.21 126.26 62.6C126.402 62.4552 126.564 62.3307 126.74 62.23C127.26 62.01 127.49 63.23 127.51 65.44C127.6 71.96 127.62 78.88 127.62 85.83C127.62 87.83 127.62 89.86 127.62 91.92L127.45 92.43L127.36 92.68V92.8V92.87C127.54 93 127.11 92.69 127.15 92.73L126.88 93.15C126.81 93.31 126.58 93.37 126.44 93.48C126.072 93.6351 125.695 93.7654 125.31 93.87L124.69 94.05L122.25 94.72L117.38 96.03L117.31 96Z" fill="#231F20"/>
<path d="M97.3902 67.5701L86.1202 70.0001L82.0002 71.0001L67.5402 74.1901C65.4102 74.6701 63.2602 75.19 61.1602 75.74C58.4402 76.39 55.7302 77.13 52.9702 77.59C52.1202 77.75 52.1902 77.5901 52.8502 77.2501C53.1702 77.0501 53.6502 76.7801 54.2302 76.49C54.8658 76.136 55.5359 75.8478 56.2302 75.63L60.3302 74.3601C61.7002 73.9501 63.0902 73.5901 64.4702 73.2301C67.2435 72.4901 70.0368 71.8234 72.8502 71.2301C76.2302 70.5201 79.6802 69.56 83.1102 68.74L94.4302 66.1L101.43 64.49C104.95 63.68 108.5 62.9001 111.98 62.0501C114.69 61.4001 117.32 60.6401 119.98 59.9501C120.57 59.7901 121.14 59.6201 121.74 59.4801C122.526 59.2745 123.338 59.1836 124.15 59.21C124.56 59.2093 124.962 59.3237 125.31 59.5401C125.445 59.6148 125.572 59.7019 125.69 59.8001C125.97 60.0801 125.14 60.6201 123.58 61.2501C118.88 62.7501 113.84 63.9301 108.76 65.0801L97.4102 67.6201L97.3902 67.5701Z" fill="#231F20"/>
<path d="M26.5799 65.2401C28.5799 66.2734 30.6166 67.2734 32.6899 68.2401L34.9499 69.2401L42.8799 73.0301C44.0599 73.5901 45.2499 74.1201 46.4299 74.6501C47.9953 75.267 49.4877 76.0551 50.8799 77.0001C51.3099 77.3101 51.0999 77.4701 50.5899 77.4801C50.2547 77.4766 49.9203 77.4465 49.5899 77.3901C49.1586 77.3339 48.7376 77.216 48.3399 77.0401C45.3399 75.6801 42.1399 74.4501 39.0999 72.8901C37.2799 71.9701 35.2899 71.2101 33.3899 70.3501C31.2999 69.4101 29.2099 68.4401 27.1399 67.4501L23.3099 65.6001C21.3899 64.6601 19.4799 63.6001 17.5799 62.6801C16.1099 61.9101 14.5799 61.2601 13.1599 60.4501C12.8399 60.2801 12.5099 60.1201 12.1599 59.9201C11.0299 59.1301 10.7699 58.7301 10.8199 58.2001C10.8087 58.0803 10.8087 57.9598 10.8199 57.8401C10.9199 57.5001 11.5699 57.5501 12.4299 57.9701C15.0099 59.2101 17.6399 60.6801 20.3699 62.0601C22.3699 63.0601 24.4299 64.1501 26.4799 65.1601L26.5799 65.2401Z" fill="#231F20"/>
<path d="M112.9 50.1501C112.9 51.1501 112.9 52.2101 112.9 53.2501C112.9 53.6201 112.98 53.9901 112.99 54.3701C112.99 55.7101 112.99 57.0401 112.99 58.3701C112.996 58.9616 113.033 59.5523 113.1 60.1401C113.224 60.8949 113.224 61.6652 113.1 62.4201C113.1 62.6601 112.74 62.6401 112.39 62.4201C111.989 62.2313 111.677 61.8943 111.52 61.4801C111.313 60.7429 111.188 59.9848 111.15 59.2201C111.085 58.4514 111.085 57.6787 111.15 56.9101C111.156 55.9634 111.092 55.0175 110.96 54.0801L110.76 51.0001L110.69 49.0701C110.69 48.0701 110.69 47.1201 110.58 46.1501C110.52 45.4001 110.33 44.6701 110.24 43.9201C110.23 43.7569 110.23 43.5932 110.24 43.4301C110.227 43.297 110.227 43.1631 110.24 43.0301C110.286 42.9344 110.346 42.8466 110.42 42.7701C110.546 42.6312 110.709 42.5307 110.89 42.4801L111.14 42.3901C111.4 42.3301 111.69 42.5801 112 43.0101C112.12 43.3401 112.25 43.6601 112.36 44.0101C112.47 44.3601 112.48 44.6701 112.54 45.0101C112.64 45.6801 112.7 46.3701 112.76 47.0101C112.84 48.0101 112.9 49.0701 112.94 50.1001L112.9 50.1501Z" fill="#231F20"/>
<path d="M79.56 47.8501C75.56 48.5501 71.56 49.2401 67.56 49.9801L63.22 50.8801C60.68 51.3901 58.11 51.8801 55.64 52.5301L54.71 52.7601L53.92 53.0201L53.73 53.0801H53.63C53.63 53.0801 53.63 53.1401 53.63 53.1701V53.3701V53.7201L53.43 57.6201C53.32 59.9301 53.26 62.2601 53.22 64.5501C53.22 67.5501 53.22 70.4701 52.95 73.4101C52.82 75.2401 51.26 72.9001 51.23 69.4801C51.23 66.4801 51.23 63.4801 51.34 60.4301C51.34 58.9201 51.45 57.4301 51.53 55.9001L51.67 53.6201V53.2901C51.6839 53.1279 51.7244 52.9691 51.79 52.8201C51.8623 52.5328 51.9662 52.2544 52.1 51.9901L52 51.8701L52.08 51.8001L52.25 51.6601C52.3616 51.5507 52.4993 51.4716 52.65 51.4301L53.48 51.1501C55.32 50.6101 57.12 50.1501 58.95 49.7501C60.78 49.3501 62.61 48.8801 64.43 48.5101C68.43 47.6801 72.43 46.9301 76.49 46.1801L83.91 44.8201C87.66 44.1201 91.43 43.4501 95.12 42.6601C97.99 42.0501 100.78 41.3101 103.58 40.6001L105.42 40.1001C107.73 39.5401 108.42 39.4301 109.11 39.8301C109.264 39.8984 109.408 39.9857 109.54 40.0901C109.88 40.4201 109.04 41.0201 107.35 41.6201C102.19 43.2736 96.9334 44.6095 91.61 45.6201C87.61 46.4301 83.61 47.1901 79.54 47.9501L79.56 47.8501Z" fill="#231F20"/>
<path d="M60.9401 32.7901L71.2201 31.0901C72.4701 30.8901 73.7101 30.6301 74.9601 30.4401C77.1801 30.1101 79.4001 29.8101 81.6401 29.5601C82.7601 29.4601 83.8801 29.3501 85.0401 29.3301H85.9201H86.4801C86.6895 29.3546 86.8967 29.3948 87.1001 29.4501C87.6301 29.4001 87.6501 29.9501 87.8101 30.3201C87.8701 30.5101 87.9801 30.7401 88.0101 30.8901L88.1101 31.3201C88.5086 33.2943 88.6864 35.3066 88.6401 37.3201C88.6401 39.8701 88.5201 42.3801 88.5101 44.8601C88.5101 45.6401 88.2101 45.5701 87.8501 44.9301C87.3382 43.9091 87.0485 42.7912 87.0001 41.6501C86.9101 39.0401 86.8901 36.4901 86.6601 34.0501C86.6001 33.4501 86.5001 32.8501 86.3901 32.2701C86.3301 31.9801 86.2501 31.6901 86.1801 31.4101C86.1801 31.3401 86.1801 31.3301 86.1801 31.2801H85.1801C84.5701 31.2801 83.9401 31.3401 83.3001 31.3901C80.3001 31.6201 77.0901 32.2801 73.9701 32.8201L63.6701 34.6701L57.3201 35.8201C54.1201 36.4101 50.8901 36.9601 47.7201 37.5701C45.2401 38.0401 42.8501 38.6501 40.3901 39.1001C39.8501 39.2101 39.3201 39.3201 38.7701 39.4001C38.0497 39.5445 37.3135 39.5949 36.5801 39.5501C36.2005 39.506 35.8476 39.333 35.5801 39.0601C35.4552 38.9622 35.3442 38.8478 35.2501 38.7201C35.0201 38.3501 35.7901 37.8501 37.2501 37.4901C41.5301 36.4301 46.1001 35.5401 50.7101 34.6701C54.0001 34.0001 57.4801 33.3301 60.9201 32.7301L60.9401 32.7901Z" fill="#231F20"/>
<path d="M33.9998 52.3401L33.8998 55.6701C33.8998 56.0801 33.8998 56.4801 33.8998 56.8901L33.7198 61.1801C33.7198 61.8201 33.7198 62.4601 33.7198 63.0901C33.8125 63.9187 33.7652 64.7571 33.5798 65.5701C33.5098 65.8401 33.1498 65.7401 32.7998 65.4901C32.612 65.3748 32.4524 65.2189 32.333 65.0336C32.2136 64.8484 32.1373 64.6387 32.1098 64.4201C32.0455 62.7864 32.0755 61.1503 32.1998 59.5201C32.2533 58.5208 32.2533 57.5194 32.1998 56.5201V53.1601V51.0901C32.1998 50.0901 32.1998 48.9901 32.1998 47.9501C32.1998 47.1401 32.0598 46.3501 32.0698 45.5401C32.0698 45.3601 32.0698 45.1801 32.0698 45.0001C32.1198 44.3301 32.2598 44.1201 32.6698 44.0001C32.7698 44.0001 32.8598 44.0001 32.9598 43.9401C33.2698 43.9401 33.5098 44.2001 33.5998 44.6601C33.7362 45.3712 33.8363 46.0888 33.8998 46.8101C33.8998 47.5401 33.9698 48.2801 33.9798 49.0201C33.9798 50.1301 33.9798 51.2501 33.9798 52.3601L33.9998 52.3401Z" fill="#231F20"/>
<path d="M25.8802 44.25L25.7602 48.73C25.7602 49.27 25.7602 49.81 25.7602 50.36L25.5502 56.12C25.5502 56.97 25.5502 57.83 25.5502 58.68C25.6709 59.786 25.6373 60.9034 25.4502 62C25.3602 62.35 24.9502 62.23 24.5602 61.91C24.3383 61.7408 24.1543 61.5271 24.02 61.2826C23.8856 61.038 23.804 60.768 23.7802 60.49C23.6956 58.2833 23.7256 56.0737 23.8702 53.87C23.9902 52.53 23.8702 51.15 23.8702 49.78V45.27V42.49C23.8702 41.09 23.8702 39.68 23.8702 38.29C23.8702 37.2 23.7102 36.14 23.7002 35.06C23.7002 34.82 23.7002 34.58 23.7002 34.34C23.7002 33.45 23.9202 33.15 24.3802 33.01C24.4833 32.9662 24.5905 32.9327 24.7002 32.91C25.0502 32.91 25.3202 33.25 25.4102 33.91C25.5502 34.85 25.7202 35.81 25.7702 36.8C25.8202 37.79 25.8602 38.8 25.8802 39.8C25.8802 41.29 25.8802 42.8 25.8802 44.3V44.25Z" fill="#231F20"/>
<path d="M53.1499 26.46L46.3599 27.59L43.8999 28.08L35.1599 29.59C33.8699 29.82 32.5799 30.1 31.3099 30.39C29.6906 30.8184 28.0479 31.1523 26.3899 31.39C25.3899 31.51 26.3899 29.93 28.2399 29.47C31.5499 28.67 34.8899 27.95 38.2899 27.42C40.2899 27.12 42.4099 26.59 44.4799 26.19L51.3099 24.91L55.5199 24.15C57.6499 23.77 59.7899 23.43 61.8899 23.01C63.5299 22.69 65.1099 22.26 66.7299 21.9C67.0799 21.82 67.4299 21.72 67.7899 21.65C69.1199 21.4 69.5699 21.47 69.9399 21.97C70.033 22.0794 70.1166 22.1965 70.1899 22.32C70.3799 22.73 69.8899 23.16 68.9399 23.44C65.9961 24.2307 63.0117 24.8616 59.9999 25.33L53.1599 26.51L53.1499 26.46Z" fill="#231F20"/>
<path d="M58.74 19.1301L61.33 18.7301C61.65 18.6801 61.95 18.5901 62.27 18.5501L65.59 18.1701C66.09 18.1101 66.59 18.0101 67.06 17.9401C67.6952 17.7915 68.3494 17.7409 69 17.7901C69.22 17.7901 69.17 18.0701 69 18.3301C68.842 18.6284 68.578 18.8567 68.26 18.9701C67.0384 19.3085 65.785 19.5196 64.52 19.6001C63.7437 19.6959 62.9751 19.8463 62.22 20.0501L59.69 20.5701C59.17 20.6801 58.69 20.8001 58.16 20.9401L57.45 21.1501C57.366 21.1728 57.2853 21.2064 57.21 21.2501C57.13 21.3101 57.21 21.4101 57.15 21.4901V21.9301C57.1886 22.5481 57.2688 23.1628 57.39 23.7701C57.4221 23.895 57.4454 24.0219 57.46 24.1501C57.46 24.3901 57.46 24.5301 57.34 24.6401C57.1772 24.7465 57.0028 24.8337 56.82 24.9001L56.56 25.0301C56.4894 25.0686 56.4103 25.0887 56.33 25.0887C56.2496 25.0887 56.1705 25.0686 56.1 25.0301C55.92 24.9401 55.67 24.7801 55.63 24.5601C55.4301 24.0399 55.3284 23.4873 55.33 22.9301C55.33 22.6701 55.33 22.4001 55.33 22.1301V21.7401V21.4501C55.3197 21.3169 55.3197 21.1832 55.33 21.0501C55.3427 20.8748 55.3832 20.7026 55.45 20.5401C55.66 20.4401 55.59 20.1601 55.79 20.0701C55.9502 19.9407 56.1247 19.8299 56.31 19.7401C56.52 19.6701 56.72 19.5801 56.93 19.5301L57.31 19.4201C57.76 19.3001 58.2 19.2101 58.64 19.1201L58.74 19.1301Z" fill="#231F20"/>
<path d="M50.52 32.0001C49.67 32.0701 48.8 32.1801 47.93 32.3001C47.61 32.3001 47.3 32.4401 46.93 32.4901C45.81 32.6401 44.68 32.8001 43.56 33.0001C43.06 33.0901 42.56 33.2201 42.09 33.3301C41.465 33.5177 40.821 33.635 40.17 33.6801C39.96 33.6801 39.95 33.4301 40.06 33.1501C40.1209 32.986 40.2142 32.8358 40.3345 32.7087C40.4548 32.5815 40.5995 32.4799 40.76 32.4101C41.9948 31.9537 43.2812 31.6514 44.59 31.5101C45.39 31.4201 46.17 31.1501 46.97 30.9801C47.77 30.8101 48.73 30.6401 49.62 30.5001L50.45 30.3801C50.8141 30.3243 51.1817 30.2943 51.55 30.2901C51.7898 30.2629 52.0313 30.3232 52.23 30.4601C52.45 30.5701 52.46 30.8401 52.54 31.0701C52.67 31.8201 52.74 32.1701 52.84 32.6501C52.99 33.2801 53.23 33.8701 53.43 34.5001C53.4886 34.6349 53.5322 34.7757 53.56 34.9201C53.613 35.1228 53.5842 35.3383 53.48 35.5201C53.3313 35.6703 53.1447 35.7774 52.94 35.8301C52.85 35.8634 52.7557 35.8836 52.66 35.8901C52.5073 35.8942 52.356 35.8598 52.22 35.7901C52.06 35.7201 51.82 35.6201 51.76 35.4501C51.3284 34.3954 51.0717 33.2774 51 32.1401H50.54L50.52 32.0001Z" fill="#231F20"/>
<path d="M97.9001 91.3201C95.9001 91.7601 93.9901 92.1501 92.0301 92.5301C91.3201 92.6601 90.6201 92.8601 89.9001 92.9801C88.6401 93.2001 87.3701 93.4001 86.1001 93.5701C85.4335 93.6634 84.7935 93.7434 84.1801 93.8101L83.1801 93.8901H82.6801C82.5401 93.8901 82.2201 93.8901 82.0101 93.8901C81.8067 93.8829 81.605 93.8492 81.4101 93.7901C81.3605 93.7986 81.3098 93.7986 81.2601 93.7901L81.1701 93.6801L80.9701 93.45C80.7329 93.1071 80.5507 92.7293 80.4301 92.3301C80.2594 91.7279 80.1687 91.1059 80.1601 90.4801C80.1346 89.7395 80.1546 88.9981 80.2201 88.2601C80.2901 87.5501 80.4101 86.8601 80.4701 86.1801C80.4701 85.7701 80.8201 85.7501 81.2001 86.1201C81.7002 86.6713 81.9967 87.377 82.0401 88.1201C82.1001 88.8701 82.0401 89.5801 82.0401 90.2401C82.051 90.5521 82.0844 90.8629 82.1401 91.1701C82.1585 91.309 82.1886 91.4462 82.2301 91.5801C82.2247 91.6399 82.2247 91.7002 82.2301 91.7601C82.2301 91.7601 82.2301 91.82 82.2301 91.84H82.3901H82.6401C83.3401 91.77 84.0601 91.6901 84.7901 91.6401C86.5711 91.4078 88.3373 91.0739 90.0801 90.6401C92.0801 90.2401 93.9701 89.8401 95.9001 89.3901C97.0901 89.1201 98.2801 88.8301 99.4501 88.5101C101.216 88.0667 102.942 87.478 104.61 86.7501L105.03 86.52L105.28 86.34C105.355 86.2895 105.412 86.2174 105.444 86.1333C105.476 86.0493 105.482 85.9574 105.46 85.8701C105.46 85.7601 105.41 85.2901 105.37 84.9701L105.25 83.9701C105.25 83.6801 105.13 83.4001 105.08 83.1201C104.93 82.0601 105.08 81.8401 105.55 81.3901L105.86 81.06C106.17 80.68 106.86 81.06 107.31 82.06C107.56 82.7193 107.721 83.4086 107.79 84.1101C107.79 84.4601 107.87 84.8001 107.89 85.1101C107.916 85.553 107.916 85.9971 107.89 86.4401C107.874 86.7566 107.789 87.0659 107.641 87.3459C107.492 87.6258 107.284 87.8697 107.03 88.0601C106.775 88.2649 106.504 88.4488 106.22 88.6101L105.68 88.88C105.03 89.1916 104.362 89.4654 103.68 89.7C101.68 90.37 99.7401 90.84 97.7901 91.34L97.9001 91.3201Z" fill="#231F20"/>
<path d="M9.93004 80.1901C9.93004 80.1901 4.82004 78.6801 1.71004 81.1201C-1.04996 83.2801 10.19 94.5201 33.21 98.4601L10.42 84.6301L9.93004 80.1901Z" fill="#231F20"/>
<path d="M94.64 66.5401L84.57 68.8301L80.92 69.7301L68 72.7501C66.08 73.2101 64.17 73.7501 62.29 74.2101C59.86 74.8101 57.45 75.5 54.98 75.9501C54.22 76.1 54.29 75.9501 54.87 75.6501C55.17 75.4801 55.59 75.2401 56.1 74.9701C56.6797 74.6539 57.2894 74.396 57.92 74.2001C60.35 73.39 62.8 72.6301 65.28 71.9801C67.76 71.3301 70.28 70.6701 72.76 70.1301C75.76 69.4601 78.86 68.5801 81.92 67.8101L92 65.34L98.24 63.8501C101.38 63.0901 104.55 62.3701 107.66 61.5901C110.08 60.9801 112.43 60.2901 114.82 59.6501C115.34 59.5001 115.82 59.3501 116.38 59.2201C117.081 59.0311 117.804 58.9336 118.53 58.9301C118.881 58.9307 119.226 59.0238 119.53 59.2001C119.652 59.2549 119.766 59.3255 119.87 59.4101C120.13 59.6501 119.38 60.1301 117.99 60.7001C113.79 62.0701 109.28 63.1701 104.74 64.2301L94.66 66.5801L94.64 66.5401Z" fill="#231F20"/>
<path d="M72.2002 37.4801L73.8202 37.2801C74.0202 37.2801 74.2102 37.2001 74.4002 37.1801L76.4902 36.9401C76.7959 36.9055 77.0996 36.8555 77.4002 36.7901C77.78 36.6759 78.1737 36.6154 78.5702 36.6101C78.8202 36.6101 78.6602 37.4001 78.2302 37.5401C77.4523 37.7712 76.6504 37.9121 75.8402 37.9601C75.3486 38.0059 74.8607 38.0861 74.3802 38.2001L72.7602 38.4601L71.7602 38.6201C71.2002 38.7101 70.7602 38.6901 70.2302 38.7901C69.8482 38.8689 69.471 38.969 69.1002 39.0901L68.8502 39.1601C68.5402 39.2301 68.4302 39.1601 68.3102 38.8901C68.3102 38.8301 68.3102 38.7701 68.2402 38.7001C68.2106 38.5966 68.2209 38.4858 68.269 38.3895C68.3172 38.2932 68.3997 38.2185 68.5002 38.1801C69.1772 37.9009 69.8915 37.7223 70.6202 37.6501C70.8902 37.6501 71.2202 37.6501 71.4002 37.5801L72.1902 37.4601L72.2002 37.4801Z" fill="#231F20"/>
<path d="M68.7998 43.4001L71.6898 43.0001L72.6898 42.8001L76.4098 42.2001C76.9598 42.1101 77.5098 41.9801 78.0498 41.8601C78.7356 41.6702 79.434 41.5299 80.1398 41.4401C80.5898 41.4401 80.1998 42.2501 79.4098 42.4401C78.0048 42.8301 76.5748 43.1241 75.1298 43.3201C74.2598 43.4201 73.3698 43.6601 72.4898 43.8201L69.5798 44.3301L67.7798 44.6401C66.8698 44.7901 65.9598 44.9301 65.0698 45.1101C64.3698 45.2501 63.6998 45.4501 63.0198 45.6201L62.5698 45.7301C62.0098 45.8501 61.8098 45.8101 61.6398 45.5501C61.5958 45.4913 61.5589 45.4275 61.5298 45.3601C61.4298 45.1501 61.6298 44.9301 62.0398 44.7901C63.2792 44.3943 64.5459 44.0901 65.8298 43.8801L68.7398 43.3801L68.7998 43.4001Z" fill="#231F20"/>
</svg>
