<svg width="128" height="128" viewBox="0 0 128 128" fill="none" xmlns="http://www.w3.org/2000/svg">
<path d="M102.53 61.99C102.93 63.76 102.88 65.55 102.55 67.18C102.23 68.82 101.67 70.34 101.01 71.77C100.54 72.82 100.05 73.84 99.4598 74.8C97.3198 78.14 94.6798 81 91.8798 83.63C90.6298 84.79 89.3998 85.97 88.0798 87.04C87.2498 87.74 86.3898 88.42 85.4798 89.04C85.0198 89.34 84.5198 89.59 84.0198 89.82C83.7698 89.94 83.5098 90.04 83.2498 90.15C82.9898 90.25 82.6798 90.26 82.3998 90.3C81.6698 90.36 81.7598 90.3 82.0798 89.7C82.2498 89.42 82.3898 88.87 82.6798 88.47C82.9498 88.03 83.2898 87.56 83.7098 87.14C86.9198 84.51 90.0198 81.66 92.9798 78.61C94.7498 76.78 96.1398 74.5 97.3198 72.25C98.5998 69.79 99.5498 67.12 99.4498 64.52C99.4198 62.95 98.8698 61.35 97.9498 60.18C96.5698 58.43 93.9098 57.83 91.4398 58.25C89.5098 58.58 87.7198 59.47 86.1198 60.5C85.7498 60.71 85.4598 61.01 85.0898 61.21C83.7798 62.05 83.2298 62.15 82.4198 61.84C82.2398 61.77 82.0398 61.73 81.8898 61.64C81.6298 61.5 81.5498 61.24 81.6198 60.82C81.6998 60.42 81.8798 59.81 82.3598 59.3C83.6698 57.61 85.5598 56.43 87.5998 55.54C89.6598 54.67 92.0198 54.32 94.4898 54.61C96.3098 54.83 98.2698 55.55 99.7998 56.97L100.36 57.5L100.83 58.11L101.28 58.73L101.61 59.35C101.84 59.75 102.03 60.18 102.19 60.62C102.37 61.05 102.5 61.5 102.6 61.94L102.52 61.97L102.53 61.99Z" fill="#231F20"/>
<path d="M97.4201 67.51C97.8601 70.42 96.9601 72.88 95.9201 75.04C95.5101 75.82 95.1501 76.62 94.6601 77.34C92.9501 79.88 90.7801 81.95 88.5701 83.86C87.5701 84.7 86.6101 85.57 85.5901 86.36C84.9301 86.85 84.2801 87.36 83.5901 87.81C83.2401 88.03 82.9201 88.28 82.5301 88.45C82.1501 88.61 81.7601 88.77 81.3701 88.93C80.8801 89.11 80.8501 88.94 81.0401 88.46C81.1301 88.22 81.2701 87.88 81.4501 87.5C81.5401 87.31 81.6301 87.1 81.7601 86.91C81.8901 86.74 82.0401 86.56 82.2101 86.41C84.5601 84.13 87.0501 82.15 89.3601 79.9C90.7501 78.56 91.8401 76.87 92.7601 75.19C93.7801 73.36 94.5501 71.35 94.5801 69.4C94.6101 68.22 94.3001 67.02 93.6001 66.4C93.3401 66.16 93.0401 66 92.7101 65.93C92.2901 65.85 91.8201 65.81 91.3601 65.81C90.4301 65.81 89.4701 65.99 88.5701 66.32C87.1501 66.83 85.9801 67.79 84.8401 68.72C84.5801 68.92 84.3701 69.16 84.1101 69.37C83.1001 70.08 82.6801 70.25 82.0901 70.1C81.9601 70.07 81.8201 70.06 81.7201 70.02C81.4001 69.92 81.4101 69.22 81.9201 68.27C83.4401 65.47 86.4701 63.36 90.1101 62.76C90.7901 62.65 91.5001 62.6 92.2201 62.65C92.6001 62.69 92.9101 62.73 93.3501 62.82C93.8301 62.93 94.3001 63.11 94.7201 63.34C95.5801 63.82 96.2401 64.53 96.6701 65.26C97.1001 66 97.3501 66.76 97.5001 67.49L97.4301 67.51H97.4201Z" fill="#231F20"/>
<path d="M66.9299 118.79C66.9299 118.79 82.9299 119.96 80.3399 122.91C77.4299 126.22 55.9399 124.93 55.9399 124.93L66.9399 118.79H66.9299Z" fill="#231F20"/>
<path d="M81.8099 51.53C66.8499 53.82 47.8699 52.96 46.3799 48.22C45.1099 44.2 62.9699 43.21 66.6899 43.22C66.6899 43.22 47.9499 41.4 37.9899 44.04C28.2599 46.62 27.2699 50.59 31.0099 53.57C34.7499 56.56 46.9999 57.38 54.7599 57.1C62.5199 56.82 74.9399 54.16 76.4199 53.78C77.8999 53.4 81.8099 51.52 81.8099 51.52V51.53Z" fill="#231F20"/>
<path d="M73.8398 114.8C72.4998 116.58 71.0998 118.35 69.3098 119.79L68.6698 120.35L67.9698 120.85C67.4998 121.17 67.0398 121.52 66.5498 121.82C65.5198 122.35 64.5498 122.97 63.4398 123.32C62.3798 123.79 61.2398 124 60.1198 124.27C59.5598 124.39 58.9798 124.4 58.4098 124.47C57.8398 124.52 57.2598 124.59 56.7098 124.57C54.4898 124.59 52.2398 124.34 50.0598 123.76C46.8898 122.88 43.8498 121.37 41.3998 119.19C37.0298 115.37 34.2898 110.28 32.3298 105.15C31.3398 102.57 30.5498 99.94 29.9098 97.28C29.2398 94.63 28.7298 91.95 28.2998 89.27C27.5398 84.51 26.9598 79.7 26.5298 74.95C26.2498 71.9 26.0298 68.83 25.9198 65.77C25.8598 64.24 25.8098 62.7 25.8798 61.17C25.9198 60.4 25.9598 59.64 26.0198 58.87C26.0298 58.49 26.1298 58.11 26.1898 57.72C26.2798 57.34 26.2798 56.96 26.4198 56.58C26.6898 55.63 26.8698 55.22 26.9898 55.25C27.1198 55.28 27.2498 55.75 27.6298 56.55C27.9798 57.35 28.5498 58.49 28.8898 59.86C29.0798 60.54 29.2998 61.28 29.4198 62.07C29.5298 62.86 29.5898 63.69 29.6298 64.56C29.8698 70.71 30.1498 76.85 30.7698 82.95C31.4498 89.04 32.3998 95.11 34.0898 100.99C35.1198 104.49 36.5298 107.96 38.4998 111.07C40.4598 114.17 42.9698 116.94 46.0298 118.78C49.3598 120.86 53.3498 121.75 57.3598 121.62C59.3098 121.5 61.2498 121.15 63.0498 120.36C63.5098 120.2 63.9198 119.91 64.3598 119.7C64.7998 119.47 65.2298 119.24 65.6198 118.93L66.8198 118.06L67.9298 117.05C69.6998 115.35 71.2098 113.34 72.4998 111.18C73.7498 108.99 74.8198 106.69 75.7198 104.31C78.4298 97.08 79.8198 89.3 80.5798 81.62C81.1298 75.63 81.0998 69.71 80.8998 63.79C80.8498 62.48 80.7498 61.21 80.6798 59.9C80.6098 58.69 80.5498 57.68 80.5098 56.83C80.4798 55.99 80.5298 55.29 80.5398 54.73C80.5998 53.59 80.7598 52.91 81.0098 52.34C81.1198 52.08 81.2098 51.74 81.3198 51.58C81.6198 51.04 82.5798 52.94 83.3198 56.57C84.9998 67.34 84.9898 78.93 82.9798 90.36C82.2198 94.6 81.1898 98.82 79.7598 102.95C78.3198 107.07 76.4898 111.13 73.9498 114.84L73.8798 114.81L73.8398 114.8Z" fill="#231F20"/>
<path d="M41.1499 58.72C38.7799 58.29 36.4199 57.73 34.0899 56.94C32.9199 56.54 31.7599 56.1 30.5999 55.51C30.2899 55.35 30.0499 55.21 29.6599 55.04C29.2399 54.74 28.7599 54.48 28.3999 54.13C28.2199 53.96 28.0299 53.79 27.8599 53.61L27.4499 53.02C27.2599 52.59 27.1499 52.12 27.1099 51.65C27.1599 51.34 27.1999 51.03 27.2999 50.74C27.3899 50.44 27.4599 50.15 27.6499 49.88C27.9399 49.3 28.4199 48.86 28.8399 48.38C30.6699 46.77 32.5099 45.81 34.4399 44.99C41.2399 42.29 48.3699 41.34 55.4499 41.29C58.5899 41.27 61.7499 41.4 64.8599 41.76C66.8499 42.03 68.8299 42.39 70.7799 42.88C71.7499 43.17 72.6899 43.52 73.6199 43.92L74.9999 44.52C75.4499 44.74 75.8699 45.04 76.3099 45.29C77.3699 45.98 77.2199 45.89 76.1199 45.88C75.5699 45.87 74.7699 45.95 73.8599 45.96C73.3999 45.96 72.9099 45.96 72.3899 45.95C71.8699 45.95 71.3299 45.95 70.7799 45.89C68.8599 45.6 66.9499 45.28 65.0199 45.15C63.0999 44.95 61.1699 44.75 59.2299 44.69C55.3499 44.53 51.4399 44.66 47.5299 45.09C42.8699 45.6 38.0399 47.01 33.9099 49.11C33.0999 49.52 32.3399 50 31.6699 50.5L31.2199 50.87L31.0199 51.07C30.9099 51.21 30.7899 51.36 30.7599 51.54C30.7399 51.88 31.0799 52.09 31.3399 52.27C31.9199 52.64 32.7199 52.98 33.4599 53.29C34.9899 53.89 36.6299 54.36 38.2799 54.75C41.4699 55.49 44.7399 55.95 48.0299 56.18C53.0199 56.51 58.0799 56.44 63.0199 55.78C66.8599 55.28 70.5499 54.33 74.1999 53.24C74.9999 52.99 75.7799 52.74 76.5899 52.48C79.5999 51.62 80.6499 51.66 81.5799 52.3C81.7899 52.45 82.0499 52.58 82.1999 52.74C82.6999 53.28 81.6599 54.26 79.4799 55.3C72.9299 58.04 65.4499 59.39 57.9399 59.79C52.3499 60.07 46.7099 59.77 41.1299 58.84V58.75L41.1499 58.72Z" fill="#231F20"/>
<path d="M47.5498 18.84C46.3798 20.73 45.1498 22.33 44.2598 23.98C43.9398 24.58 43.7498 25.22 43.5098 25.81C42.6498 27.88 42.3998 30.36 43.1098 32.65C43.3998 33.68 44.0298 34.58 44.6098 35.47C44.9998 36.04 45.4798 36.54 45.9098 37.11C46.3498 37.67 46.8098 38.24 47.3098 38.8C47.6098 39.16 47.4398 39.33 46.9098 39.38C46.3998 39.42 45.4298 39.44 44.5498 39C43.7598 38.63 43.0898 38.07 42.4398 37.48C42.1398 37.17 41.7998 36.86 41.5398 36.51C41.2898 36.14 41.0498 35.77 40.8498 35.37C39.9898 33.8 39.5198 32 39.5098 30.22C39.5098 29.16 39.5098 28.09 39.6198 27.03C39.7198 25.96 39.9298 24.88 40.2898 23.89C41.0898 21.72 42.2898 19.91 43.3098 18.15C43.9398 17.07 44.5498 16.01 44.9698 14.93C45.6598 13.34 46.0198 11.58 45.7598 9.86C45.5398 8.52 44.9798 7.28 44.3398 6.08C44.2098 5.81 44.0298 5.57 43.9298 5.28C43.7298 4.75 43.6098 4.38 43.6498 4.05C43.7098 3.7 43.8598 3.43 44.0798 3.15C44.1798 3.02 44.2598 2.88 44.3598 2.78C44.5298 2.61 44.7498 2.58 45.0798 2.65C45.3998 2.72 45.8698 2.87 46.1998 3.23C47.3198 4.21 48.1598 5.5 48.8298 6.96C49.5298 8.42 49.7998 10.15 49.7698 11.87C49.7498 13.15 49.5198 14.43 49.1398 15.64C48.7798 16.88 48.1698 17.88 47.6398 18.87L47.5498 18.83V18.84Z" fill="#231F20"/>
<path d="M63.09 20.39C62.43 21.55 61.85 22.68 61.59 23.81C61.47 24.22 61.52 24.63 61.47 25.03C61.38 26.49 61.7 28.09 62.45 29.54C62.8 30.17 63.24 30.77 63.71 31.32C64.37 31.98 65.01 32.67 65.64 33.46C65.83 33.71 65.67 33.91 65.26 34.04C64.86 34.16 64.14 34.28 63.53 34.02C62.98 33.81 62.51 33.47 62.07 33.1C61.62 32.74 61.2 32.33 60.82 31.9C60.14 30.96 59.62 29.87 59.33 28.71C58.99 27.34 58.61 25.92 58.74 24.42C58.89 22.79 59.5 21.37 60.1 20.07L61.26 17.75C61.83 16.6 62.37 15.47 62.65 14.31C62.9 13.41 62.72 12.52 62.69 11.7C62.67 11.52 62.63 11.34 62.63 11.15C62.65 10.79 62.59 10.56 62.69 10.36C62.8 10.15 62.93 9.98999 63.1 9.82999C63.18 9.75999 63.25 9.66999 63.32 9.61999C63.44 9.52999 63.58 9.53999 63.79 9.61999C63.99 9.70999 64.29 9.87999 64.48 10.18C64.8 10.61 65.03 11.11 65.28 11.64C65.47 12.17 65.54 12.75 65.54 13.3C65.58 14.44 65.39 15.53 65 16.5C64.46 17.95 63.73 19.2 63.13 20.4L63.06 20.37L63.09 20.39Z" fill="#231F20"/>
<path d="M40.45 65.18C39.86 65.06 39.27 64.93 38.68 64.79C38.47 64.74 38.24 64.75 38.02 64.69C37.26 64.44 36.52 64.06 35.81 63.7C35.5 63.53 35.17 63.41 34.84 63.27C34.41 63.13 34.03 62.85 33.78 62.43C33.7 62.29 33.9 62.06 34.18 61.83C34.46 61.61 34.84 61.35 35.06 61.36C35.48 61.34 35.77 61.53 36.12 61.63C36.46 61.75 36.79 61.9 37.14 62.1C37.56 62.35 38.07 62.26 38.55 62.37C39.08 62.48 39.62 62.59 40.18 62.67C40.52 62.72 40.86 62.78 41.21 62.81C41.73 62.89 42.27 63.01 42.8 63C43.21 63.01 43.61 62.86 44.02 62.86C44.11 62.86 44.2 62.84 44.29 62.86C44.63 62.9 44.73 63.03 44.81 63.44C44.83 63.53 44.85 63.63 44.86 63.72C44.89 64.03 44.76 64.29 44.51 64.45C43.79 64.96 43.02 65.14 42.23 65.25C41.94 65.29 41.65 65.32 41.35 65.34C41.05 65.34 40.76 65.28 40.46 65.26V65.2L40.45 65.18Z" fill="#231F20"/>
<path d="M55.04 66.08C54.6 66.01 54.15 65.94 53.71 65.87C53.55 65.85 53.39 65.87 53.23 65.83C52.66 65.72 52.1 65.58 51.55 65.43C51.31 65.37 51.06 65.32 50.82 65.28C50.51 65.22 50.19 65.18 49.91 64.98C49.74 64.87 50.21 64.21 50.53 64.21C51.11 64.25 51.68 64.26 52.26 64.39C52.61 64.48 52.99 64.38 53.35 64.35C53.75 64.33 54.17 64.3 54.57 64.28C54.82 64.26 55.08 64.25 55.34 64.25C55.73 64.23 56.13 64.24 56.51 64.16C56.81 64.12 57.1 64 57.4 63.94C57.47 63.93 57.53 63.9 57.6 63.9C57.85 63.87 57.95 64.05 58.03 64.37L58.09 64.59C58.14 64.83 58.06 65.08 57.9 65.26C57.66 65.46 57.41 65.64 57.15 65.78C57.02 65.85 56.89 65.93 56.76 65.98C56.62 66.01 56.48 66.03 56.34 66.05C55.92 66.1 55.49 66.14 55.05 66.12V66.07L55.04 66.08Z" fill="#231F20"/>
</svg>
