<svg width="128" height="128" viewBox="0 0 128 128" fill="none" xmlns="http://www.w3.org/2000/svg">
<path d="M23.4898 95.01C26.1998 90.07 29.2198 85.37 32.2198 80.67C33.3198 78.96 34.3798 77.22 35.4998 75.52C39.4398 69.54 43.4598 63.61 47.3498 57.61C49.0698 54.95 50.7498 52.23 52.3598 49.53C53.3898 47.79 54.4198 46.05 55.4498 44.31C56.4998 42.58 57.4998 40.83 58.8798 39.28C59.7298 38.31 59.5598 38.41 59.2798 39.47C59.0198 40.55 58.7598 42.67 57.5798 44.69C55.6398 48.36 53.4098 51.86 51.2098 55.38C48.9798 58.88 46.6898 62.35 44.3298 65.79C41.5098 69.91 38.7898 74.32 36.0398 78.61C33.0198 83.33 30.0098 88.05 27.2198 92.88C25.4998 95.85 23.8498 98.87 22.5098 101.99C22.0098 103.17 21.5598 104.37 21.2298 105.58C20.8898 106.78 20.7098 108.05 20.9698 109.08C21.2298 110.07 22.2298 110.86 23.2898 111.43C24.3698 112.02 25.5698 112.43 26.7898 112.77C30.6098 113.78 34.5498 114.05 38.4898 114.13C39.3598 114.13 40.2098 114.13 41.0898 114.13C44.3398 114.27 45.3698 114.46 46.0798 114.98C46.2398 115.1 46.4598 115.21 46.5498 115.33C46.8698 115.69 45.5398 116.12 43.1098 116.33C41.3098 116.52 39.4798 116.49 37.6298 116.41C35.7798 116.33 33.9098 116.17 32.0198 115.96C30.1298 115.73 28.2298 115.41 26.3198 114.9C24.4198 114.35 22.4798 113.75 20.6398 112.28C19.9698 111.72 19.3098 110.98 18.9298 109.97C18.7798 109.49 18.6998 109 18.6398 108.54C18.6398 108.11 18.6198 107.65 18.6598 107.24C18.8098 105.58 19.2998 104.18 19.7898 102.78C20.8198 100.03 22.1198 97.47 23.4598 94.96L23.5098 94.98L23.4898 95.01Z" fill="#231F20"/>
<path d="M70.02 107.22L60.84 107.59C59.72 107.63 58.61 107.72 57.49 107.73C53.55 107.79 49.6 107.73 45.66 107.62C43.91 107.58 42.15 107.52 40.41 107.44C38.18 107.32 35.92 107.2 33.75 106.6C33.07 106.43 33.18 106.34 33.79 106.23C34.18 106.17 34.6 106.1 35.04 106.02C35.55 105.96 36.14 105.98 36.77 106.02C41.26 106.29 45.77 106.51 50.34 106.5C51.7 106.51 53.1 106.46 54.5 106.42C55.9 106.35 57.31 106.26 58.71 106.22C61.78 106.09 64.86 105.96 67.93 105.79L73.61 105.47C76.48 105.29 79.36 105.11 82.2 104.94C84.41 104.8 86.58 104.52 88.77 104.4C89.25 104.38 89.72 104.33 90.21 104.33C92.02 104.31 92.6 104.4 92.99 104.74C93.08 104.82 93.2 104.89 93.25 104.97C93.43 105.22 92.7 105.47 91.39 105.65C87.51 106.26 83.4 106.44 79.27 106.73C76.2 106.91 73.11 107.08 70.03 107.26V107.22H70.02Z" fill="#231F20"/>
<path d="M108.07 106.39C107.88 105.34 107.59 104.26 107.27 103.19C107.15 102.8 106.98 102.43 106.85 102.04C106.4 100.67 105.99 99.26 105.48 97.9C105.26 97.29 104.98 96.7 104.7 96.13C104.3 95.41 104.03 94.63 103.81 93.82C103.74 93.57 103.86 93.54 104.12 93.65C104.37 93.76 104.81 93.99 105.15 94.36C105.46 94.68 105.67 95.06 105.86 95.44C106.06 95.82 106.26 96.2 106.44 96.58C106.81 97.35 107.14 98.14 107.41 98.95C107.74 99.92 108.22 100.88 108.58 101.87C108.97 102.96 109.33 104.07 109.62 105.21C109.81 105.9 109.95 106.64 110.04 107.38C110.16 108.49 110.11 109.71 109.61 110.84C109.21 111.7 108.6 112.52 107.8 113.02C107.62 113.12 107.46 113.26 107.27 113.33C106.57 113.64 106.3 113.53 106.02 113.12C105.96 113.02 105.89 112.93 105.84 112.83C105.68 112.49 105.85 112.11 106.22 111.85C107.29 110.95 107.94 110.38 108.14 109.29C108.3 108.48 108.24 107.41 108.02 106.4H108.06L108.07 106.39Z" fill="#231F20"/>
<path d="M93.5402 115.84C86.3902 116.24 79.2902 116.33 72.2002 116.51C65.1302 116.68 58.0102 116.97 50.8802 116.97C45.6802 116.97 40.4702 116.97 35.2502 116.58C32.9502 116.41 30.6502 116.18 28.3402 115.84C26.0302 115.49 23.7302 115.06 21.4202 114.25C20.2702 113.83 19.1002 113.33 18.0002 112.42C17.4702 111.95 16.9002 111.38 16.5902 110.54C16.2502 109.68 16.3102 108.87 16.3702 108.22C16.5302 106.88 16.9202 105.74 17.3202 104.61C17.7202 103.49 18.1902 102.41 18.6902 101.36C20.7102 97.17 23.0202 93.21 25.3802 89.28C27.7502 85.36 30.1902 81.49 32.6602 77.65C37.0602 70.85 41.4902 64 45.8602 57.25C48.6802 52.93 51.5102 48.6 54.3402 44.27L58.6602 37.83L60.8202 34.62C61.5402 33.55 62.4702 32.61 63.2102 31.55C65.1002 28.94 64.9802 29.37 63.8902 31.9C63.3002 33.14 62.8402 35.13 61.7302 37.21C60.7002 39.33 59.4202 41.77 57.8802 44.32C52.3502 53.32 46.5902 62.14 40.7702 70.94C35.0002 79.76 29.1502 88.57 23.9202 97.7C22.3702 100.42 20.9302 103.27 19.7902 106.11C19.5102 106.82 19.2802 107.54 19.1402 108.21C19.0702 108.55 19.0302 108.87 19.0202 109.14C19.0102 109.42 19.0602 109.52 19.1302 109.73C19.2902 110.11 19.7702 110.55 20.3602 110.88C20.9602 111.22 21.6202 111.53 22.3502 111.76C25.2402 112.74 28.4802 113.16 31.6602 113.5C34.8702 113.82 38.1002 113.98 41.3302 114.09C48.4302 114.32 55.5702 114.22 62.7002 114.01L84.1402 113.41C88.5302 113.27 92.9202 113.12 97.2702 112.74C99.4402 112.54 101.6 112.3 103.7 111.88C104.74 111.67 105.78 111.41 106.74 111.06C107.69 110.71 108.59 110.23 109.13 109.62C109.23 109.52 109.28 109.4 109.34 109.34C109.45 109.14 109.45 108.98 109.45 108.63C109.42 108.3 109.37 107.94 109.28 107.57C109.11 106.83 108.86 106.08 108.58 105.33C108.03 103.83 107.36 102.35 106.67 100.87C105.27 97.93 103.74 95.03 102.16 92.16C98.9902 86.42 95.6402 80.79 92.2302 75.24C86.8502 66.49 81.2802 58.08 75.7402 49.57C74.5202 47.7 73.3202 45.86 72.0802 43.97C69.8202 40.44 68.3802 38.09 67.4702 36.37C66.5902 34.63 66.2102 33.55 66.0302 32.61C65.9502 32.18 65.8002 31.64 65.8002 31.36C65.8002 30.89 66.3302 31.33 67.3202 32.5C68.3002 33.67 69.7602 35.57 71.4502 38.12C81.5902 53.19 92.1302 69.22 101.85 85.92C103.96 89.58 106.04 93.27 107.97 97.09C108.94 99 109.87 100.93 110.71 102.96C111.13 103.98 111.52 105.01 111.85 106.14C112.01 106.7 112.16 107.3 112.25 107.97L112.3 108.5V109.14C112.28 109.39 112.22 109.65 112.17 109.9C112.1 110.15 111.99 110.39 111.89 110.63C111.67 110.96 111.51 111.23 111.33 111.44C111.14 111.64 110.95 111.86 110.75 112.03L110.15 112.51L109.55 112.89C108.75 113.34 107.95 113.68 107.17 113.93C105.61 114.44 104.09 114.75 102.57 114.99C99.5502 115.47 96.5702 115.71 93.5902 115.9L93.5702 115.83L93.5402 115.84Z" fill="#231F20"/>
<path d="M82.3999 103.82C84.9699 103.68 87.5399 103.51 90.0799 103.25C91.3399 103.11 92.6099 102.97 93.8399 102.75C94.4599 102.66 95.0499 102.52 95.6299 102.39L96.1899 102.23C96.2499 102.2 96.3199 102.19 96.3699 102.15C96.4699 102.12 96.4399 102.01 96.4299 101.93L96.3999 101.8L96.3699 101.71L96.2699 101.45C95.9999 100.75 95.6899 100.03 95.3599 99.32C94.3399 97.11 93.1499 94.95 92.0199 92.76C87.9999 85.05 83.7799 77.39 79.4399 69.82C77.5099 66.46 75.4799 63.14 73.4399 59.88C72.1399 57.78 70.7599 55.73 69.4799 53.62L67.5499 50.46C67.2199 49.94 66.9299 49.39 66.6499 48.85C66.3699 48.3 66.0399 47.78 65.7899 47.22C65.2299 45.78 65.2899 45.92 66.4999 46.67C67.1099 47.04 67.8699 47.66 68.7599 48.42C69.6099 49.21 70.4699 50.23 71.2899 51.41C72.7499 53.49 74.0899 55.64 75.3999 57.8C76.7199 59.96 78.0199 62.13 79.2999 64.32C81.8599 68.69 84.3499 73.12 86.7399 77.62C89.6099 83 92.8299 88.47 95.6899 94.04C96.4099 95.45 97.1099 96.87 97.7699 98.32C98.0999 99.05 98.4199 99.78 98.7199 100.56L98.8299 100.86L98.9799 101.31C99.0899 101.61 99.1399 101.91 99.2099 102.21C99.2499 102.51 99.2699 102.8 99.1999 103.07C99.1699 103.21 99.0599 103.32 99.0599 103.48L98.7899 103.8C98.5099 104.03 98.1899 104.18 97.8699 104.35C97.5599 104.52 97.2299 104.7 96.8899 104.77C96.3799 104.93 95.9099 105.05 95.4399 105.14C94.4899 105.35 93.5499 105.49 92.6199 105.62C90.7499 105.88 88.8899 106.05 87.0299 106.2C82.7999 106.53 78.5699 106.7 74.3499 106.83C67.9599 107.09 61.5299 107.1 55.1899 107.06C50.2599 107.03 45.4099 107.1 40.5099 106.91C39.4299 106.86 38.3699 106.84 37.2799 106.75C33.2399 106.41 31.9099 105.93 31.2399 104.94C31.0799 104.73 30.8699 104.51 30.7999 104.33C30.5899 103.76 32.2099 103.57 35.0599 103.77C43.6099 104.18 52.7699 104.21 61.9299 104.18C65.3299 104.18 68.7499 104.17 72.1599 104.16C75.5699 104.16 78.9899 103.97 82.3799 103.78V103.85L82.3999 103.82Z" fill="#231F20"/>
<path d="M42.1099 78.89L47.7599 70.26C48.4499 69.21 49.0799 68.13 49.7799 67.09C52.2599 63.43 54.7699 59.8 57.2899 56.17C58.4099 54.56 59.4799 52.91 60.5299 51.28C61.2099 50.24 61.8299 49.15 62.5599 48.13C63.3199 47.13 64.0799 46.14 64.9399 45.21C65.6199 44.73 65.5599 44.81 65.5299 45.58C65.4899 46.34 65.2599 47.64 64.6499 48.96C64.5099 49.25 64.3799 49.54 64.2299 49.82L63.7299 50.63L62.7099 52.25L60.6399 55.46C59.2499 57.6 57.7899 59.69 56.2399 61.75C54.4099 64.22 52.7799 66.97 51.0599 69.59C49.1699 72.48 47.2799 75.36 45.4199 78.27C44.2699 80.06 43.1399 81.85 42.0299 83.66C40.3499 86.4 38.6499 89.15 37.0999 91.94C35.8899 94.1 34.8899 96.33 33.7599 98.51C33.5099 98.99 33.2699 99.46 33.0199 99.94C32.0499 101.71 31.5899 102.19 30.8599 102.29C30.6899 102.31 30.5199 102.37 30.3699 102.35C29.8899 102.31 29.9399 101.41 30.4799 100.01C31.9999 95.83 34.3099 91.78 36.6399 87.74C38.3799 84.74 40.2199 81.79 42.0499 78.84L42.1099 78.87V78.89Z" fill="#231F20"/>
<path d="M62.7501 88.87C61.5101 87 61.3501 69.13 62.5301 68.03C63.9301 66.73 65.9401 67.13 66.9501 67.64C68.9901 68.66 67.2101 86.85 66.6701 88.63C66.4101 89.46 63.4201 89.89 62.7501 88.88V88.87Z" fill="#231F20"/>
<path d="M68.2399 95.21C68.2399 96.46 67.0199 98.75 64.9999 98.75C63.1399 98.75 61.3299 97.23 61.3999 95.29C61.4499 93.75 62.1699 92.07 64.2099 91.74C66.8299 91.32 68.2399 93.5 68.2399 95.22V95.21Z" fill="#231F20"/>
<path d="M95.56 57.36C97.17 57.36 97.17 54.86 95.56 54.86C93.95 54.86 93.95 57.36 95.56 57.36Z" fill="#231F20"/>
<path d="M97.6902 55.7C97.7102 56.21 97.6202 56.62 97.4702 57.04C97.3402 57.44 96.9102 58.02 96.4002 58.24C96.0402 58.42 95.5402 58.48 95.2202 58.43C94.6802 58.35 94.1502 58.12 93.7202 57.76C93.2902 57.41 92.9402 56.88 92.8702 56.33C92.7902 55.85 92.8402 55.33 93.1502 54.93C93.5102 54.43 94.1502 54.21 94.6602 54.39C94.8202 54.46 94.7702 54.49 94.6402 54.53C94.5002 54.57 94.3102 54.73 94.1702 54.89C94.0402 55.04 93.9802 55.22 93.9802 55.37C93.9802 55.51 94.0602 55.63 94.0902 55.74C94.1702 55.97 94.2902 56.16 94.4202 56.4C94.6002 56.7 95.2002 56.77 95.4902 56.8C95.6002 56.82 95.7302 56.78 95.8202 56.68C95.9102 56.58 96.0902 56.31 96.1602 56.07C96.2602 55.77 96.2902 55.48 96.1802 55.27C95.9802 54.95 95.3902 54.81 94.9502 55.01C94.5902 55.15 94.3502 55.49 94.2302 55.81C94.2002 55.88 94.1902 55.96 94.1702 56.03C94.0702 56.27 93.9802 56.32 93.6102 56.36L93.3602 56.39C93.0902 56.42 92.8502 56.21 92.8602 55.8C92.9202 54.61 94.1002 53.57 95.4802 53.63C95.9802 53.65 96.5002 53.82 96.9402 54.22C97.4002 54.6 97.7002 55.21 97.7202 55.72H97.6802L97.6902 55.7Z" fill="#231F20"/>
<path d="M108.93 40.78C108.77 41.05 108.57 41.31 108.32 41.5C108.06 41.68 107.76 41.79 107.47 41.86C107.26 41.91 107.04 41.97 106.82 41.93C106.03 41.8 105.29 41.18 105.17 40.39C105.13 40.25 105.11 40.11 105.1 39.98C105.08 39.8 105.09 39.62 105.12 39.45C105.16 39.36 105.16 39.25 105.24 39.18C105.28 39.09 105.34 39.01 105.41 38.94C105.55 38.8 105.75 38.69 105.96 38.7C106.09 38.7 106.09 38.9 106.12 39.11C106.12 39.33 106.31 39.58 106.36 39.59C106.48 39.67 106.49 39.66 106.47 39.66C106.47 39.66 106.46 39.66 106.44 39.66C106.42 39.67 106.36 39.73 106.36 39.86C106.36 40.03 106.49 40.02 106.59 40.06C106.71 40.11 106.88 40.1 107.01 40C107.09 39.93 107.16 39.87 107.2 39.82C107.25 39.74 107.29 39.63 107.15 39.55C107.05 39.5 106.9 39.58 106.87 39.63C106.86 39.63 106.87 39.67 106.85 39.67C106.85 39.68 106.83 39.64 106.75 39.54C106.68 39.46 106.59 39.37 106.46 39.25L106.28 39.1C106.1 38.96 105.96 38.7 106.11 38.35C106.72 37.62 107.96 37.54 108.73 38.43C109.36 39.13 109.32 40.15 109.01 40.77L108.96 40.75L108.93 40.78Z" fill="#231F20"/>
<path d="M108.85 65.62C108.5 66.14 107.97 66.58 107.3 66.66C107.07 66.69 106.84 66.73 106.62 66.68C105.85 66.5 105.29 65.99 105.04 65.36C104.93 65.07 104.87 64.76 104.89 64.47C104.91 64.1 105.2 63.66 105.62 63.63C105.75 63.63 105.75 63.74 105.78 63.91C105.79 64.08 105.94 64.31 106.04 64.37C106.11 64.43 106.21 64.47 106.27 64.5C106.3 64.52 106.33 64.55 106.35 64.56C106.4 64.54 106.39 64.64 106.41 64.78C106.46 64.96 106.67 64.94 106.78 64.94C106.9 64.94 107.05 64.96 107.24 64.85C107.35 64.78 107.45 64.68 107.5 64.56C107.59 64.39 107.63 64.16 107.49 63.97C107.38 63.82 107.19 63.77 107.04 63.75C107.01 63.75 106.97 63.75 106.94 63.75C106.84 63.71 106.81 63.62 106.76 63.32L106.72 63.12C106.68 62.9 106.77 62.68 107.03 62.61C107.77 62.42 108.63 62.86 109.01 63.69C109.32 64.34 109.21 65.12 108.88 65.67L108.84 65.65L108.85 65.62Z" fill="#231F20"/>
<path d="M25.7099 55.24C25.4799 55.88 24.9199 56.44 24.2999 56.64C24.0799 56.72 23.8599 56.8 23.6399 56.8C22.8699 56.8 22.1099 56.41 21.7599 55.8C21.6099 55.54 21.4799 55.28 21.3999 55.01C21.3099 54.66 21.3099 54.27 21.5199 53.96C21.5899 53.86 21.7499 53.93 21.9199 54.04C22.0899 54.15 22.3399 54.28 22.4099 54.38C22.5399 54.56 22.6799 54.68 22.7599 54.8C22.8599 54.91 22.9199 54.98 22.9799 55.14C23.0899 55.32 23.3499 55.28 23.5199 55.25C23.7299 55.22 23.8899 55.15 24.0199 54.96C24.0899 54.84 24.1499 54.7 24.1699 54.55C24.1899 54.33 24.1299 54.1 23.9099 54C23.7399 53.91 23.5299 54 23.4099 54.05C23.3799 54.05 23.3599 54.08 23.3299 54.09C23.2299 54.08 23.1199 53.95 22.9099 53.74L22.7599 53.6C22.6099 53.46 22.5499 53.21 22.7299 52.92C23.0199 52.55 23.5199 52.38 23.9799 52.44C24.4499 52.48 24.9299 52.71 25.2999 53.12C25.8499 53.75 25.9399 54.59 25.7399 55.25H25.6999L25.7099 55.24Z" fill="#231F20"/>
<path d="M41.6 37.69C41.78 38.25 41.77 38.86 41.6 39.39C41.51 39.63 41.41 39.84 41.24 40.07C41.16 40.19 41.05 40.3 40.93 40.4C40.83 40.49 40.73 40.55 40.62 40.61C40.41 40.72 40.21 40.83 39.99 40.89C39.85 40.93 39.7 40.95 39.56 40.96C38.9 40.99 38.21 40.68 37.82 40.33C37.38 39.98 37.12 39.44 37.05 38.91C36.99 38.45 37.02 38.01 37.14 37.62C37.29 37.12 37.61 36.62 38.12 36.44C38.28 36.38 38.36 36.59 38.42 36.85C38.47 37.11 38.56 37.4 38.53 37.55C38.45 37.82 38.47 38.1 38.53 38.28C38.6 38.48 38.69 38.51 38.76 38.72C38.91 38.99 39.1 38.97 39.27 38.96C39.34 38.96 39.42 38.93 39.49 38.92C39.47 38.92 39.57 38.87 39.6 38.79C39.64 38.72 39.66 38.65 39.67 38.57C39.69 38.42 39.64 38.2 39.5 38.01C39.3 37.73 38.99 37.55 38.64 37.65C38.37 37.72 38.18 37.99 38.07 38.21C38.05 38.26 38.04 38.31 38.02 38.36C37.94 38.52 37.83 38.53 37.38 38.52H37.08C36.75 38.52 36.46 38.31 36.48 37.89C36.51 37.3 36.8 36.7 37.29 36.27C37.77 35.83 38.5 35.54 39.28 35.65C40.48 35.83 41.3 36.65 41.67 37.66L41.62 37.68L41.6 37.69Z" fill="#231F20"/>
<path d="M38.9099 39.48H38.9999C39.1699 39.48 39.3299 39.45 39.4799 39.37C39.6299 39.32 39.7699 39.23 39.8799 39.11C39.9999 39 40.0899 38.86 40.1399 38.71C40.2199 38.56 40.2499 38.4 40.2499 38.23L40.2099 37.9C40.1499 37.69 40.0399 37.5 39.8899 37.35L39.6399 37.15C39.4499 37.04 39.2299 36.98 39.0099 36.98H38.9199C38.7499 36.98 38.5899 37.01 38.4399 37.09C38.2899 37.14 38.1499 37.23 38.0399 37.35C37.9199 37.46 37.8299 37.6 37.7799 37.75C37.6999 37.9 37.6699 38.06 37.6699 38.23L37.7099 38.56C37.7699 38.77 37.8799 38.96 38.0299 39.11L38.2799 39.31C38.4699 39.42 38.6899 39.48 38.9099 39.48Z" fill="#231F20"/>
<path d="M74.4699 21.33C74.4499 21.5 74.2499 21.55 73.9699 21.55C73.8799 21.55 73.6699 21.44 73.6599 21.38C73.6399 21.26 73.6199 21.15 73.6099 21.04C73.6099 20.97 73.8399 20.04 73.9099 19.71C73.9699 19.39 74.0699 19.09 74.2199 18.82L75.0799 17.16C75.1399 17.04 75.2299 16.93 75.3199 16.83C75.6499 16.48 75.9099 16.1 76.1199 15.69C76.1599 15.62 76.2099 15.56 76.1899 15.46C76.1699 15.3 76.8099 14.23 76.9299 14.12C77.2399 13.85 77.5099 13.54 77.7899 13.25C77.8299 13.21 77.8399 13.14 77.9299 13.14C78.1499 13.13 78.1799 13 78.2499 12.9C78.3399 12.76 78.4599 12.63 78.5999 12.51C78.6699 12.45 78.8099 12.43 78.9299 12.39C79.0399 12.36 79.2399 12.5 79.2499 12.54C79.2899 12.65 79.4199 12.64 79.5199 12.68C79.5499 12.69 79.5999 12.71 79.6199 12.73C79.7099 12.78 79.6899 13.93 79.6099 14.02C79.5999 14.04 78.9899 15.38 78.8999 15.58C78.8699 15.66 78.7899 15.72 78.7199 15.78C78.6899 15.83 78.1699 16.89 78.1499 16.93C77.9999 17.13 77.9299 17.37 77.6599 17.48C77.6099 17.5 77.5899 17.55 77.5599 17.59C77.3399 17.95 77.0499 18.25 76.7799 18.57C76.6399 18.73 76.5399 18.92 76.4199 19.09C76.3999 19.12 76.3599 19.14 76.3299 19.17C76.2899 19.2 76.2499 19.23 76.2199 19.27C75.9499 19.69 75.6199 20.07 75.3599 20.49C75.2999 20.58 74.8599 20.96 74.7999 21.08C74.7599 21.14 74.4699 21.26 74.4599 21.33H74.4699Z" fill="#231F20"/>
<path d="M78.1902 28.1C78.0602 28.18 77.9302 28.03 77.8002 27.78C77.7602 27.7 77.7302 27.45 77.7602 27.4C77.8202 27.31 77.8902 27.22 77.9602 27.15C78.0002 27.11 78.7102 26.76 78.9402 26.6C79.1702 26.46 79.4002 26.36 79.6402 26.28C80.1202 26.15 80.6102 26.03 81.1002 25.92C81.2102 25.89 81.3202 25.89 81.4302 25.91C81.8202 25.97 82.1902 25.91 82.5602 25.79C82.6202 25.77 82.6902 25.78 82.7402 25.69C82.8202 25.55 83.8402 25.42 83.9802 25.46C84.3302 25.56 84.6702 25.61 85.0102 25.69C85.0602 25.7 85.1002 25.66 85.1602 25.75C85.2902 25.95 85.3802 25.9 85.4902 25.91C85.6302 25.91 85.7802 25.94 85.9302 25.99C86.0002 26.02 86.0902 26.13 86.1702 26.21C86.2402 26.29 86.2502 26.6 86.2302 26.63C86.1802 26.73 86.2502 26.87 86.2702 27C86.2702 27.04 86.2902 27.1 86.2902 27.13C86.2902 27.2 85.5602 27.87 85.4702 27.88C85.4702 27.88 85.1702 27.96 84.8602 28.05C84.5502 28.14 84.2302 28.23 84.1702 28.26C84.1002 28.29 84.0302 28.26 83.9502 28.23C83.9202 28.22 83.0002 28.53 82.9602 28.52C82.7602 28.51 82.5702 28.59 82.3502 28.42C82.3102 28.39 82.2702 28.4 82.2302 28.41C81.8902 28.46 81.5502 28.41 81.2002 28.39C81.0202 28.38 80.8502 28.41 80.6802 28.42C80.6502 28.42 80.6102 28.4 80.5802 28.39C80.5402 28.38 80.5002 28.36 80.4602 28.36C80.0502 28.42 79.6302 28.31 79.2202 28.36C79.1302 28.36 78.6502 28.2 78.5402 28.23C78.4802 28.23 78.2502 28.04 78.2002 28.08L78.1902 28.1Z" fill="#231F20"/>
</svg>
