<svg width="128" height="128" viewBox="0 0 128 128" fill="none" xmlns="http://www.w3.org/2000/svg">
<path d="M46.9402 23.7001H58.4302H62.6102L77.3802 23.8201H83.9302C86.7102 23.8701 89.5102 23.8201 92.2902 24.1101C93.1602 24.2101 93.0402 24.3101 92.2902 24.4501C91.0719 24.6624 89.8368 24.7628 88.6002 24.7501C82.9202 24.7501 77.2502 24.6901 71.5202 24.6101C68.0902 24.6101 64.5202 24.6101 61.0202 24.6101L49.4502 24.6701L42.3402 24.7301C38.7502 24.7801 35.1402 24.8201 31.5702 24.9201C28.7902 24.9801 26.1102 25.1801 23.3302 25.2401C22.7102 25.2401 22.1202 25.2401 21.5002 25.1801C19.2302 25.0201 18.5502 24.8801 18.0802 24.5801L17.7702 24.4201C17.5502 24.3001 18.5002 24.0101 20.1602 24.1301C21.3802 24.1901 22.6102 24.2501 23.8302 24.2301L27.6102 24.0701C30.1602 23.9801 32.7502 23.9101 35.3502 23.8601L46.9402 23.6901V23.7001Z" fill="#231F20"/>
<path d="M46.2003 114C49.927 113.96 53.657 113.893 57.3903 113.8L61.4803 113.65L75.8703 113.21L82.2503 112.91C84.961 112.688 87.6815 112.612 90.4003 112.68C91.2503 112.76 91.1403 112.86 90.4003 113.12C89.2588 113.571 88.0547 113.844 86.8303 113.93C81.3003 114.27 75.7603 114.54 70.1703 114.62C66.8203 114.68 63.3503 114.9 59.9303 115.01C56.1703 115.15 52.4003 115.24 48.6403 115.33L41.6403 115.44C38.1303 115.44 34.6403 115.44 31.1203 115.44C28.4103 115.44 25.7503 115.44 23.0603 115.44H21.2903C19.0703 115.32 18.3703 115.05 17.9603 114.62C17.8566 114.533 17.7657 114.432 17.6903 114.32C17.5203 114.02 18.4503 113.82 20.0303 113.91C24.7503 114.12 29.7803 114.1 34.8303 114.12C38.5703 114.12 42.3403 114.12 46.1103 114.02L46.2003 114Z" fill="#231F20"/>
<path d="M73.16 44.8301L78.43 45.1701C79.07 45.1701 79.71 45.1701 80.35 45.2501C82.61 45.4001 84.87 45.5701 87.13 45.6901C88.13 45.7501 89.13 45.8001 90.13 45.8301C91.41 45.8301 92.69 45.9001 93.97 46.0501C94.37 46.1001 94.31 46.2701 93.97 46.4601C93.4397 46.7254 92.8617 46.8818 92.27 46.9201C90.96 47.0001 89.65 47.0601 88.34 47.0901C87.03 47.1201 85.72 47.0201 84.4 46.9301C82.82 46.8101 81.18 46.8701 79.57 46.8401C77.79 46.7901 76.02 46.7401 74.24 46.6701L71 46.5501C69.35 46.5501 67.69 46.4201 66 46.4301C64.73 46.4301 63.47 46.5501 62.21 46.6301L61.37 46.6901C60.37 46.6901 60.01 46.5201 59.81 46.0201C59.7547 45.9036 59.7079 45.7833 59.67 45.6601C59.59 45.2701 60.03 44.9501 60.79 44.8101C63.1128 44.5386 65.4543 44.4617 67.79 44.5801C69.55 44.5801 71.33 44.7201 73.11 44.7901L73.16 44.8301Z" fill="#231F20"/>
<path d="M67.2303 106.46C67.2303 106.46 66.8203 112.74 67.4503 112.76C68.0803 112.78 74.6403 113.17 74.4503 112.57C74.2603 111.97 68.6103 111.74 68.4503 111.08C68.2303 110.08 68.3003 107.69 68.1903 106.73C67.8803 104.01 67.0503 104.53 67.0503 104.53L67.2303 106.46Z" fill="#231F20"/>
<path d="M93.9403 94.27L90.9403 94.18C90.5803 94.18 90.2103 94.18 89.8503 94.18C88.5603 94.18 87.2703 94.04 85.9803 93.97C85.4103 93.97 84.8303 93.97 84.2703 93.97C83.5326 94.023 82.7911 93.9658 82.0703 93.8C81.8503 93.74 81.8903 93.51 82.0703 93.27C82.3261 92.9752 82.6827 92.7862 83.0703 92.74C84.5391 92.6553 86.0115 92.6553 87.4803 92.74C88.3703 92.81 89.3003 92.74 90.2103 92.74H93.2103H95.0703C96.0103 92.74 96.9503 92.74 97.8803 92.74C98.6103 92.74 99.3203 92.56 100.04 92.48L100.52 92.42C101.13 92.42 101.32 92.53 101.42 93.01C101.42 93.12 101.48 93.23 101.49 93.34C101.499 93.5241 101.438 93.7048 101.32 93.8457C101.201 93.9867 101.033 94.0775 100.85 94.1C99.5606 94.3346 98.251 94.4418 96.9403 94.42H93.9403V94.27Z" fill="#231F20"/>
<path d="M39.0799 94.8701L35.9999 94.6801C35.6099 94.6801 35.2299 94.6801 34.8499 94.6801L30.8499 94.3801C30.2599 94.3801 29.6599 94.3801 29.0699 94.3801C28.302 94.4202 27.5321 94.3596 26.7799 94.2001C26.5499 94.1401 26.5899 93.8601 26.7799 93.5801C26.8955 93.4149 27.044 93.2754 27.2161 93.1704C27.3882 93.0654 27.5802 92.9972 27.7799 92.9701C29.3292 92.8989 30.8817 92.9625 32.4199 93.1601C33.368 93.2336 34.3194 93.257 35.2699 93.2301L38.4199 93.3301H40.3599C41.3599 93.3301 42.3599 93.3301 43.2899 93.3301C44.0499 93.3301 44.7899 93.1701 45.5299 93.0801C45.6999 93.0801 45.8599 93.0201 46.0199 93.0101C46.6399 93.0101 46.8399 93.1601 47.0199 93.5801C47.0558 93.674 47.0826 93.7711 47.0999 93.8701C47.1599 94.1901 46.9199 94.4701 46.4699 94.6301C45.1052 94.9339 43.7071 95.0616 42.3099 95.0101C41.2599 95.0101 40.2099 94.9501 39.1499 94.9201L39.0799 94.8701Z" fill="#231F20"/>
<path d="M45.7202 47.8501C45.7202 47.8501 45.4302 47.8501 45.1502 46.2601C45.1502 46.2601 40.3002 46.2601 38.2502 46.0601C37.6114 45.9878 36.9894 45.8087 36.4102 45.5301L45.8402 45.0601L45.7202 47.8501Z" fill="#231F20"/>
<path d="M47.2801 22.0001L60.4701 22.0901C62.0701 22.0901 63.6801 22.0401 65.2801 22.0901C70.9401 22.1401 76.5901 22.3101 82.2801 22.4401C84.7901 22.5001 87.2801 22.5201 89.8101 22.5401C91.4101 22.5401 93.0101 22.5401 94.6201 22.6701C96.2453 22.696 97.8636 22.887 99.4501 23.2401C100.45 23.4901 100.25 23.7201 99.3601 24.0201C98.7903 24.2296 98.2006 24.3804 97.6001 24.4701C96.7825 24.6221 95.9517 24.6925 95.1201 24.6801C88.6401 24.6801 82.1135 24.5734 75.5401 24.3601C71.6101 24.2201 67.5401 24.3601 63.4901 24.3601H50.2101H42.0001C37.8701 24.3601 33.7301 24.3601 29.6301 24.4401C26.4401 24.5001 23.3301 24.7001 20.1701 24.8101C19.4701 24.8101 18.8001 24.8901 18.0901 24.9001C17.1671 24.9349 16.2429 24.8814 15.3301 24.7401C15.0651 24.6772 14.8096 24.5797 14.5701 24.4501C14.3935 24.3302 14.2352 24.1853 14.1001 24.0201C13.9834 23.9029 13.8732 23.7794 13.7701 23.6501C13.6701 23.4601 13.9001 23.3101 14.3701 23.0901C14.641 22.9578 14.9314 22.87 15.2301 22.8301C15.6434 22.7569 16.0609 22.7102 16.4801 22.6901C22.0701 22.2101 28.0001 22.0701 34.0001 22.0001L47.3101 21.9301L47.2801 22.0001Z" fill="#231F20"/>
<path d="M36.0903 65.24C31.1603 65.24 26.2303 65.0401 21.2803 64.71C20.3803 64.64 19.4703 64.58 18.5703 64.49C18.1067 64.5566 17.6374 64.5734 17.1703 64.5401C16.7103 64.48 16.2403 64.41 15.7603 64.31C15.6003 64.31 15.4503 64.25 15.2803 64.2C15.0867 64.1519 14.8964 64.0918 14.7103 64.02C14.2367 63.8744 13.8229 63.5798 13.5303 63.18C13.4007 62.9046 13.3001 62.6164 13.2303 62.32C13.172 62.0999 13.1286 61.876 13.1003 61.6501C13.1003 61.2701 13.0203 60.89 12.9903 60.5201C12.9303 59.78 12.9003 59.0601 12.8703 58.3301C12.8703 56.8801 12.8003 55.4301 12.7803 53.9901C12.7803 51.1001 12.7803 48.22 12.8303 45.35C12.8803 42.48 12.8303 39.71 12.8803 36.92C12.8803 35.13 12.8803 33.3401 12.8803 31.5401C12.8731 29.7348 13.0406 27.9331 13.3803 26.16C13.6903 25.05 14.0303 25.24 14.5703 26.21C14.9109 26.8471 15.1857 27.5172 15.3903 28.21C15.6465 29.1174 15.7678 30.0574 15.7503 31.0001C15.6503 38.2701 15.3003 45.55 15.0003 52.89C14.9403 54.47 14.9303 56.07 15.0003 57.67C15.0003 58.4834 15.0403 59.2834 15.1203 60.07C15.1203 60.4701 15.1803 60.8601 15.2203 61.2401C15.2203 61.41 15.2803 61.6301 15.3003 61.7401C15.311 61.8048 15.3277 61.8684 15.3503 61.93C15.4197 62.0073 15.51 62.0628 15.6103 62.09L16.3703 62.28L17.2503 62.43C17.5564 62.4597 17.8583 62.5234 18.1503 62.62C18.7383 62.7917 19.3477 62.8792 19.9603 62.8801L21.7903 62.98C23.0203 63.0401 24.2503 63.0801 25.4903 63.1101C27.9503 63.1701 30.4203 63.1901 32.9003 63.2001C35.9003 63.2001 38.9903 63.2001 42.0303 63.2001C46.6403 63.1301 51.2803 63.07 55.8603 62.91C59.4203 62.7701 62.8603 62.5 66.4203 62.28C67.1903 62.28 67.9503 62.1701 68.7303 62.1301C71.6403 62 72.5703 62.1901 73.2003 62.8301C73.3499 62.9604 73.4872 63.1044 73.6103 63.26C73.8903 63.73 72.7203 64.1801 70.6103 64.3701C64.3403 64.9101 57.7103 65.1301 51.0403 65.25C46.0403 65.34 41.1003 65.36 36.1303 65.34L36.0903 65.24Z" fill="#231F20"/>
<path d="M100.37 85.3801V75.4801C100.37 74.2801 100.29 73.0701 100.29 71.8701V59.1201C100.29 57.2301 100.29 55.3401 100.21 53.4601C100.21 52.2601 100.21 51.0501 100.21 49.8401C100.218 49.2281 100.262 48.6171 100.34 48.0101C100.46 47.4101 100.59 46.8001 100.77 46.1801C101.09 45.3501 101.27 45.6401 101.52 46.2901C101.67 46.6201 101.83 47.0601 102.05 47.6101C102.163 47.8935 102.256 48.1842 102.33 48.4801C102.387 48.8104 102.417 49.1448 102.42 49.4801L102.51 53.1201C102.51 54.3401 102.51 55.5601 102.51 56.7901C102.51 59.2401 102.45 61.7001 102.35 64.1701C102.24 67.1701 102.42 70.1701 102.46 73.1701L102.54 83.1701V89.3201C102.54 92.4201 102.54 95.5401 102.54 98.6201C102.54 101.02 102.71 103.37 102.72 105.76C102.72 106.28 102.72 106.76 102.72 107.34C102.61 109.34 102.37 110 101.66 110.34C101.525 110.414 101.385 110.478 101.24 110.53C100.84 110.53 100.55 109.81 100.57 108.44C100.48 104.32 100.35 99.8601 100.31 95.4401C100.31 92.1301 100.24 88.7901 100.21 85.4401L100.37 85.3801Z" fill="#231F20"/>
<path d="M46.8804 112.48C51.3204 112.48 55.7604 112.45 60.2004 112.39L65.0604 112.25C70.7804 112.17 76.5004 112.08 82.2104 111.93C84.7504 111.86 87.2904 111.74 89.8104 111.61L94.6604 111.35C95.4704 111.35 96.2804 111.35 97.1004 111.35H98.3204C98.7304 111.35 99.1304 111.45 99.5504 111.52C99.9704 111.59 100.45 111.78 100.34 111.87C100.095 112.025 99.8379 112.159 99.5704 112.27C98.2548 112.952 96.8171 113.367 95.3404 113.49C92.0504 113.68 88.7504 113.86 85.4404 114C82.1304 114.14 78.8204 114.16 75.4404 114.16C71.4404 114.16 67.3104 114.43 63.2304 114.54C58.7504 114.66 54.267 114.743 49.7804 114.79H41.5004C37.3204 114.79 33.1204 114.79 28.9604 114.69C25.7304 114.69 22.5604 114.69 19.3204 114.5C18.6104 114.44 17.8904 114.42 17.1804 114.34C16.1355 114.294 15.1125 114.024 14.1804 113.55C13.879 113.405 13.6358 113.161 13.4905 112.86C13.3452 112.558 13.3064 112.216 13.3804 111.89C13.4493 111.692 13.5787 111.521 13.7504 111.4C14.0004 111.27 14.2404 111.55 14.4904 111.54C14.6431 111.521 14.7976 111.521 14.9504 111.54C15.1904 111.54 15.5204 111.61 15.9504 111.66C18.6604 111.96 21.5204 112.08 24.4604 112.15C27.4004 112.22 30.3704 112.29 33.3704 112.31C37.8304 112.36 42.3104 112.39 46.7904 112.31L46.8804 112.48Z" fill="#231F20"/>
<path d="M12.6602 86.6101L12.8102 77.4801V77.0001C12.8022 76.768 12.8258 76.5359 12.8802 76.3101C12.9802 75.9001 12.9802 75.3701 13.4002 75.1501C13.7969 74.9083 14.2396 74.7516 14.7002 74.6901L15.0502 74.6301H15.2902H15.7202C19.7202 74.3701 23.6102 74.5401 27.5302 74.6301C29.2702 74.6301 31.0102 74.6301 32.7302 74.6301C34.951 74.5572 37.1741 74.6541 39.3802 74.9201C40.0902 75.0501 39.9402 75.3901 39.3802 75.7201C38.4766 76.1998 37.4729 76.4601 36.4502 76.4801C31.9702 76.4801 27.4502 76.4801 22.9502 76.3801C21.6002 76.3801 20.2302 76.3801 18.8502 76.4701C18.1602 76.4701 17.4702 76.5601 16.8002 76.6201C16.1302 76.6801 15.2602 76.8001 15.2202 76.8201C15.1572 76.8098 15.0931 76.8098 15.0302 76.8201C14.9702 76.8201 15.0302 76.9401 15.0302 77.0001V77.2001V77.7501V80.0301L14.9802 84.6101L14.9302 90.2601C14.9302 93.1001 14.8602 95.9701 14.8702 98.8001C14.8702 101 15.0102 103.16 15.0302 105.34C15.0302 105.83 15.0302 106.34 15.0302 106.78C15.0302 108.59 14.7102 109.17 14.1702 109.5C14.0492 109.588 13.9183 109.662 13.7802 109.72C13.3602 109.85 13.0702 109.1 12.9702 107.81C12.7802 103.96 12.7402 99.8901 12.7302 95.8101C12.7302 92.7634 12.7302 89.7067 12.7302 86.6401L12.6602 86.6101Z" fill="#231F20"/>
<path d="M73.1803 43.28L79.4303 43.52C80.1903 43.52 80.9503 43.52 81.7103 43.52L89.7103 43.86L93.2803 43.98C94.8226 43.9494 96.3639 44.0768 97.8803 44.36C98.1503 44.43 98.2903 44.59 98.2203 44.65C98.0883 44.7463 97.9436 44.8237 97.7903 44.88C97.1597 45.1688 96.4822 45.3416 95.7903 45.39L91.1803 45.65C89.6303 45.72 88.0803 45.65 86.5203 45.56C84.6603 45.45 82.7203 45.56 80.8203 45.61C78.7203 45.61 76.6203 45.61 74.5203 45.61H70.6503C68.6503 45.61 66.7203 45.55 64.7803 45.61C63.2703 45.61 61.7803 45.82 60.2703 45.91C59.9403 45.91 59.6103 45.97 59.2703 45.97C58.0103 45.97 57.5803 45.68 57.3903 44.97C57.3416 44.8175 57.3114 44.6597 57.3003 44.5C57.3003 43.99 57.7603 43.65 58.6303 43.5C61.3556 43.1941 64.0988 43.0771 66.8403 43.15L73.1303 43.25L73.1803 43.28Z" fill="#231F20"/>
<path d="M47.5401 35.6901C47.5401 37.3801 47.4801 39.0801 47.4801 40.7801C47.4801 41.4001 47.5301 42.0201 47.4801 42.6401C47.4201 44.8301 47.3601 47.0201 47.3601 49.2101C47.3601 50.2101 47.3601 51.1601 47.4601 52.1201C47.5821 53.3851 47.5249 54.661 47.2901 55.9101C47.1901 56.3101 46.9001 56.2001 46.5801 55.9101C46.159 55.465 45.8714 54.9106 45.7501 54.3101C45.5319 53.0746 45.4082 51.8243 45.3801 50.5701C45.3801 49.3101 45.3101 48.0401 45.3801 46.7601C45.3801 45.2301 45.2201 43.6601 45.1501 42.1001C45.0601 40.3801 45.0801 38.6601 45.0601 36.9401V33.7201C45.0601 32.1101 45.0601 30.5001 45.0601 28.9001C45.0601 27.6601 44.8601 26.4401 44.8301 25.1801C44.8301 24.9001 44.8301 24.6301 44.8301 24.3501C44.8901 23.2901 45.1501 22.9701 45.8301 22.8701C45.9948 22.8361 46.162 22.816 46.3301 22.8101C46.8801 22.8101 47.3301 23.2801 47.3301 23.9701C47.55 26.1661 47.6369 28.3735 47.5901 30.5801C47.5901 32.2801 47.5901 33.9801 47.5901 35.6801L47.5401 35.6901Z" fill="#231F20"/>
<path d="M65.6399 102.4C65.6399 100.91 65.6399 99.4001 65.6399 97.9201C65.6399 97.3801 65.5799 96.8301 65.6399 96.2901C65.6399 94.3601 65.7299 92.4301 65.7199 90.5001C65.7199 89.6401 65.7199 88.7801 65.6099 87.9301C65.493 86.8147 65.5503 85.6878 65.7799 84.5901C65.8599 84.2301 66.1399 84.3301 66.4399 84.5901C66.8221 84.9774 67.0917 85.4613 67.2199 85.9901C67.4187 87.0762 67.5324 88.1762 67.5599 89.2801C67.6199 90.3801 67.6399 91.5001 67.6099 92.6301C67.5599 93.9701 67.7699 95.3601 67.8399 96.7301C67.9099 98.1001 67.9199 99.7301 67.9399 101.27V104.07C67.9399 105.49 67.9399 106.91 67.9399 108.32C67.9399 109.41 68.1099 110.49 68.1399 111.61C68.1399 111.85 68.1399 112.09 68.1399 112.34C68.0799 113.27 67.8499 113.54 67.1399 113.63C66.9867 113.64 66.8331 113.64 66.6799 113.63C66.4201 113.614 66.1752 113.503 65.9912 113.319C65.8071 113.135 65.6964 112.89 65.6799 112.63C65.4888 110.703 65.4153 108.766 65.4599 106.83C65.4599 105.34 65.4599 103.83 65.4599 102.35L65.6399 102.4Z" fill="#231F20"/>
<path d="M40.1604 46L37.4804 45.92C37.1604 45.92 36.8304 45.98 36.4804 45.92C35.3204 45.92 34.1704 45.82 33.0004 45.74C32.4804 45.74 32.0004 45.74 31.4504 45.74C30.7315 45.8527 29.9953 45.7554 29.3304 45.46C29.0804 45.32 29.3304 44.95 29.6104 44.58C29.7308 44.3933 29.8609 44.213 30.0004 44.04C30.1083 43.9002 30.2658 43.8072 30.4404 43.78C31.7077 43.6649 32.983 43.6649 34.2504 43.78C35.0584 43.8214 35.8685 43.7879 36.6704 43.68L39.3504 43.59H41.0104C41.8504 43.59 42.6904 43.59 43.5304 43.46C44.1804 43.4 44.7804 43.15 45.5904 43.1C45.77 43.0848 45.9507 43.0848 46.1304 43.1C46.2725 43.0906 46.4145 43.1203 46.5409 43.1859C46.6673 43.2515 46.7734 43.3504 46.8476 43.472C46.9218 43.5936 46.9612 43.7332 46.9617 43.8756C46.9622 44.0181 46.9237 44.1579 46.8504 44.28C46.8043 44.4287 46.7257 44.5654 46.6204 44.68L46.5304 44.75L46.4804 44.8C46.3776 44.9026 46.287 45.0167 46.2104 45.14C46.1304 45.26 46.1104 45.31 46.0904 45.34L46.0104 45.44C45.9643 45.5009 45.9065 45.5519 45.8404 45.59C45.411 45.7195 44.9733 45.8198 44.5304 45.89C43.9704 45.96 43.3904 46 42.8004 46.02C41.9304 46.02 41.0304 46.02 40.1404 46.02L40.1604 46Z" fill="#231F20"/>
<path d="M48.2203 86.1701V88.9001V90.9001V92.1101L48.0503 92.7001L48.0003 93.0001V93.0701L47.8403 93.0001L47.7603 93.1201L47.5903 93.3301C47.4963 93.3838 47.3953 93.4242 47.2903 93.4501C47.0609 93.5085 46.8265 93.5454 46.5903 93.5601L44.8603 93.6601C44.4203 93.6601 43.9803 93.6601 43.5403 93.6601C40.4503 93.6601 37.3803 93.5601 34.3003 93.5301C32.9403 93.5301 31.5703 93.5301 30.2103 93.6001C28.477 93.7428 26.7355 93.7562 25.0003 93.6401C24.4503 93.5701 24.5303 93.1701 25.0003 92.7601C25.645 92.2125 26.4468 91.8834 27.2903 91.8201C29.0603 91.6701 30.8303 91.6501 32.6103 91.6501C34.3903 91.6501 36.1603 91.6501 37.9503 91.7701C40.0903 91.8701 42.3103 91.7001 44.4803 91.6301C45.0003 91.6301 45.7003 91.6301 45.7503 91.6301H46.0003C46.0803 91.6301 46.0003 91.4501 46.0003 91.3601V87.8401V83.3801C46.0003 81.1401 46.0003 78.8801 46.0003 76.6501C46.0003 74.9201 45.7803 73.2201 45.6803 71.5001C45.6803 71.1201 45.6103 70.7501 45.6003 70.3701C45.6003 68.9501 45.8703 68.4801 46.4703 68.2101C46.602 68.1394 46.7391 68.0792 46.8803 68.0301C47.3403 67.9301 47.6903 68.5001 47.8803 69.5201C48.2262 72.6676 48.3631 75.8345 48.2903 79.0001C48.2903 81.4001 48.2903 83.8101 48.2903 86.2101L48.2203 86.1701Z" fill="#231F20"/>
<path d="M111.73 15.2901C112.073 15.0475 112.497 14.9483 112.911 15.0137C113.326 15.0791 113.699 15.3038 113.95 15.6401C116 19.0001 107.48 17.8501 111.73 15.2901Z" stroke="#231F20" stroke-width="1.2" stroke-miterlimit="10"/>
<path d="M110.11 40.62C110.388 40.4226 110.733 40.3423 111.069 40.3966C111.406 40.4508 111.708 40.6352 111.91 40.91C113.56 43.65 106.69 42.68 110.11 40.62Z" stroke="#231F20" stroke-miterlimit="10"/>
<path d="M82.1 13.22C82.3753 13.0221 82.7174 12.9405 83.0524 12.9929C83.3874 13.0453 83.6883 13.2275 83.89 13.5C85.54 16.25 78.67 15.28 82.1 13.22Z" fill="#231F20"/>
<path d="M93.5101 93.56C92.3901 93.56 91.2701 93.46 90.1601 93.44C89.7501 93.44 89.3401 93.44 88.9401 93.44C87.5001 93.44 86.0501 93.32 84.6101 93.31C83.9723 93.3048 83.3346 93.3349 82.7001 93.4C81.8827 93.5399 81.0475 93.5399 80.2301 93.4C79.9601 93.34 80.0101 93.02 80.2301 92.66C80.4434 92.2578 80.8005 91.9507 81.2301 91.8C82.8845 91.5524 84.5596 91.472 86.2301 91.56C87.2301 91.62 88.2801 91.46 89.3001 91.42C90.3201 91.38 91.5601 91.42 92.6901 91.36H94.7801C95.8401 91.36 96.9001 91.36 97.9501 91.31C98.7601 91.31 99.5601 91.07 100.39 90.98C100.57 90.98 100.75 90.91 100.94 90.9C101.63 90.9 101.85 91.08 101.94 91.76C101.95 91.9132 101.95 92.0668 101.94 92.22C101.947 92.4471 101.877 92.6699 101.741 92.8516C101.604 93.0334 101.41 93.1633 101.19 93.22C99.7651 93.5285 98.3073 93.6595 96.8501 93.61H93.4901L93.5101 93.56Z" fill="#231F20"/>
<path d="M41.0003 46.9001C40.2303 46.9001 39.4503 46.8101 38.6703 46.7901C38.3903 46.7901 38.1103 46.8401 37.8203 46.7901L34.8203 46.6101C34.3763 46.5918 33.9316 46.6085 33.4903 46.6601C32.9237 46.7848 32.3368 46.7848 31.7703 46.6601C31.4203 46.5501 31.8403 44.9101 32.4503 44.7901C33.5766 44.598 34.7239 44.561 35.8603 44.6801C36.5745 44.7245 37.2913 44.6977 38.0003 44.6001L40.3403 44.5401H41.7903C42.5203 44.5401 43.2603 44.5401 43.9903 44.4501C44.281 44.4167 44.5686 44.3598 44.8503 44.2801C45.1788 44.2021 45.5133 44.1519 45.8503 44.1301C46.0101 44.1199 46.1704 44.1199 46.3303 44.1301C46.9303 44.2001 47.1903 44.6501 46.9203 45.2901C46.8633 45.4352 46.7783 45.5677 46.6703 45.6801L46.5803 45.7501C46.491 45.8388 46.4107 45.9359 46.3403 46.0401C46.2805 46.1227 46.2271 46.2096 46.1803 46.3001L46.1103 46.4101C46.068 46.4673 46.0175 46.5179 45.9603 46.5601C45.6156 46.6945 45.2566 46.7885 44.8903 46.8401C44.3992 46.9031 43.9052 46.9398 43.4103 46.9501C42.6503 46.9501 41.8703 46.9501 41.1003 46.9501L41.0003 46.9001Z" fill="#231F20"/>
</svg>
