<svg width="128" height="128" viewBox="0 0 128 128" fill="none" xmlns="http://www.w3.org/2000/svg">
<path d="M103.54 50.86C102.98 51.42 95.0201 75.44 94.7001 88.6C94.4301 99.77 93.5101 106.64 92.4501 109.87C91.3901 113.1 93.0101 93.63 93.0101 93.63L96.1901 63.24L99.2201 51.68L103.53 50.85L103.54 50.86Z" fill="#231F20"/>
<path d="M92.7298 114.89C93.2598 113.66 93.6098 112.28 93.9098 110.91C94.1898 109.58 94.3698 108.02 94.5598 106.52C94.9598 103.5 95.4198 100.49 95.9298 97.49C96.3098 95.3 96.6398 93.11 97.0398 90.93C98.4898 83.25 100.33 75.66 102.36 68.14C103.21 64.79 104.07 61.42 104.91 58.1L105.52 55.68L105.82 54.59C105.85 54.43 105.93 54.25 105.92 54.11C105.79 54.04 105.68 53.98 105.55 53.92L104.89 53.62C104.3 53.36 103.72 53.14 103.12 52.98C101.93 52.69 100.64 52.51 99.2798 52.39C97.9198 52.22 98.0798 51.9 99.2298 51.34C99.8098 51.07 100.63 50.74 101.74 50.53C102.83 50.34 104.26 50.46 105.59 50.97L106.21 51.22L107.04 51.59L109.26 52.68L108.48 55.54C108.34 56.03 108.24 56.53 108.07 57.01L107.16 59.93C106.56 61.88 105.96 63.83 105.36 65.78C104.16 69.69 103.15 73.65 102.09 77.62C100.71 82.84 99.7198 88.37 98.7898 93.81C98.2898 96.8 97.8898 99.81 97.5098 102.82C97.3398 104.33 97.1498 105.83 97.0098 107.34L96.7998 109.6C96.7298 110.39 96.6398 111.18 96.4898 111.97C96.2698 113.13 95.9498 114.28 95.5398 115.4C95.4398 115.68 95.3198 115.96 95.1998 116.24L95.0098 116.66C94.9398 116.8 94.8198 117.05 94.7198 117.21C94.4998 117.57 94.2698 117.93 93.9498 118.18C93.6198 118.45 93.1998 118.41 92.7998 118.43L90.3498 118.2C89.6198 118.14 88.8898 118.12 88.1598 118.08C82.5598 117.82 76.8898 118.18 71.3298 118.94C67.0098 119.52 62.8098 120.43 58.5398 121.22C57.5998 121.4 56.6798 121.59 55.7198 121.74C53.9498 122.03 52.7598 122.13 51.9198 122.07C51.0698 121.96 50.5598 121.73 50.1398 121.38C49.9498 121.22 49.6998 121.08 49.5898 120.93C49.3898 120.67 49.6498 120.39 50.2598 120.07C50.8698 119.74 51.8398 119.38 53.1098 119.15C60.6298 117.65 68.6998 116.06 77.0198 115.42C79.6198 115.21 82.2598 115.11 84.8898 115.11C86.2098 115.13 87.5298 115.14 88.8498 115.23C89.5098 115.28 90.1698 115.28 90.8298 115.36L91.8198 115.46L92.2998 115.51C92.2998 115.51 92.3398 115.52 92.3598 115.5H92.3698C92.3698 115.5 92.3398 115.54 92.3998 115.44C92.4798 115.26 92.5698 115.08 92.6398 114.89L92.7098 114.91L92.7298 114.89Z" fill="#231F20"/>
<path d="M94.6999 38.01C94.5099 38.39 88.4999 65.42 88.3599 87.56C88.2999 96.22 87.6099 106.85 86.6699 107.98C85.7299 109.11 85.3099 103.18 86.0099 96.69C86.7099 90.2 87.9999 64.85 88.0099 64.77C88.0199 64.69 91.2799 39.8 91.2799 39.37C91.2799 38.94 94.6999 38.01 94.6999 38.01Z" fill="#231F20"/>
<path d="M82.6402 111.25C84.0302 111.25 85.4102 111.25 86.8002 111.28C87.4902 111.29 88.1902 111.33 88.8802 111.37L89.9202 111.44L90.1802 111.46C90.2602 111.46 90.2202 111.46 90.2502 111.46C90.2802 111.48 90.2802 111.41 90.3402 111.51C90.3802 111.49 90.4402 111.51 90.4602 111.47C90.4802 111.43 90.4902 111.38 90.5002 111.34C90.5002 111.47 90.6102 110.6 90.6702 110.04C90.8102 108.82 90.9302 107.58 91.0302 106.34C91.2402 103.86 91.4202 101.37 91.5602 98.89C91.7202 96.11 91.7702 93.23 91.9602 90.41C92.6302 80.42 94.0302 70.52 95.8302 60.71C96.6002 56.35 97.3702 51.97 98.1902 47.66C98.4502 46.27 98.7002 44.88 99.0002 43.5L99.4502 41.43C99.4902 41.24 99.4902 41.14 99.5302 40.99L99.5502 40.89V40.84L99.5102 40.82L99.3102 40.74L99.1102 40.66L98.8302 40.56C98.5202 40.44 98.2102 40.35 97.8902 40.26C97.2602 40.08 96.6202 39.95 95.9702 39.87C94.6702 39.7 93.3102 39.6 91.9102 39.6C90.1702 39.55 90.3502 39.21 91.8002 38.56C92.5302 38.24 93.5702 37.85 94.9402 37.6C96.3002 37.37 98.0302 37.45 99.7502 38.02L100.16 38.15C100.33 38.21 100.49 38.28 100.66 38.35C100.99 38.49 101.33 38.61 101.65 38.76L102.6 39.21L102.72 39.27L102.7 39.4L102.65 39.66L102.55 40.18L101.94 43.2L101.52 45.31L101.03 47.4C100.39 50.19 99.7502 52.98 99.1402 55.79C98.5102 58.59 97.9502 61.4 97.4502 64.23C96.9402 67.06 96.4502 69.89 96.0002 72.74C94.9102 79.56 94.3502 86.73 94.0202 93.77C93.9002 97.11 93.8202 100.53 93.6202 103.89C93.5302 105.58 93.4302 107.27 93.2902 108.96C93.2202 109.81 93.1502 110.66 93.0502 111.52C92.9702 112.14 92.9102 112.87 92.6702 113.4C92.5802 113.7 92.2902 113.77 92.1202 113.99L91.2702 114.13C90.9002 114.19 90.4302 114.13 90.0802 114.13L89.3002 114.11C88.7802 114.09 88.2602 114.09 87.7402 114.09C82.9802 113.98 78.2102 114.12 73.4602 114.49C66.2502 115.03 59.0302 116 51.8902 117.06C46.3302 117.85 40.9002 118.87 35.2002 119.02C33.9402 119.03 32.7002 119.05 31.4202 118.92C29.0402 118.68 27.4502 118.21 26.4402 117.68C25.4402 117.09 24.9602 116.57 24.7102 115.98C24.5902 115.72 24.4102 115.43 24.3802 115.23C24.3302 114.89 24.7802 114.84 25.5802 114.97C26.3902 115.08 27.5702 115.3 29.0902 115.58C31.3502 115.99 33.7602 116.01 36.2002 115.91C38.6502 115.8 41.1402 115.55 43.6702 115.24C48.7202 114.62 53.8902 113.82 59.1102 113.13C66.8602 112.09 74.7502 111.33 82.6602 111.21V111.28L82.6402 111.25Z" fill="#231F20"/>
<path d="M59.2598 114.84C61.8198 114.5 64.3898 114.06 66.9698 113.62C67.9098 113.46 68.8398 113.25 69.7898 113.1C73.1198 112.59 76.4898 112.13 79.8898 112.01C80.6398 111.99 81.3998 111.95 82.1598 111.96C82.9198 111.95 83.6698 111.97 84.4298 112.01C84.9098 112.02 85.3998 112.06 85.8798 112.11C86.3598 112.17 86.8498 112.18 87.3298 112.29C87.8098 112.38 88.2898 112.48 88.7598 112.59C89.2298 112.71 89.6598 113.01 90.0998 113.21C90.6398 113.5 90.4998 113.62 89.9398 113.78C89.5798 113.87 89.1898 113.97 88.8098 114.06C88.3698 114.11 87.8798 114.12 87.3598 114.03C85.5298 113.74 83.6598 113.61 81.7698 113.64C79.8798 113.65 77.9698 113.7 76.0398 113.85C73.7298 114.01 71.3498 114.5 68.9998 114.9C66.4098 115.35 63.8198 115.81 61.2098 116.22L56.3898 116.91C53.9598 117.26 51.5098 117.58 49.0798 117.89C47.1898 118.13 45.3398 118.4 43.4298 118.46C43.0098 118.48 42.5998 118.5 42.1798 118.49C40.6098 118.42 40.1198 118.16 39.8198 117.82C39.7498 117.74 39.6598 117.66 39.6198 117.59C39.4998 117.36 40.1398 117.2 41.2498 117.06C42.8898 116.91 44.5598 116.77 46.2598 116.53C47.9598 116.35 49.6898 116.13 51.4298 115.89C54.0298 115.52 56.6298 115.14 59.2398 114.77V114.81L59.2598 114.84Z" fill="#231F20"/>
<path d="M60.89 110.85C57.97 111.12 55.05 111.48 52.12 111.86C51.05 112 49.99 112.2 48.92 112.33C45.14 112.77 41.35 113.23 37.51 113.44C36.67 113.52 35.8 113.51 34.95 113.56L33.67 113.62H32.39L30.75 113.58L29.1 113.39C28.55 113.3 28 113.28 27.47 113.1C26.93 112.96 26.43 112.66 25.92 112.46C25.3 112.16 25.44 112.06 26.07 111.91C26.46 111.81 26.89 111.7 27.33 111.59C27.58 111.53 27.83 111.54 28.1 111.54C28.37 111.54 28.66 111.51 28.96 111.54C33.14 111.77 37.44 111.52 41.82 111.19C44.44 111.02 47.14 110.47 49.82 110.08C52.76 109.65 55.72 109.25 58.68 108.88C60.51 108.69 62.33 108.45 64.17 108.31C65.56 108.19 66.95 108.05 68.35 108C69.75 107.93 71.14 107.83 72.52 107.82C73.6 107.8 74.67 107.69 75.74 107.69L78.95 107.64C79.42 107.63 79.89 107.65 80.36 107.72C81.24 107.84 81.81 107.96 82.2 108.13C82.59 108.32 82.8 108.52 82.95 108.78C83.02 108.9 83.12 109.01 83.15 109.11C83.21 109.29 83.05 109.42 82.72 109.56C82.39 109.69 81.88 109.84 81.24 109.85C80.77 109.87 80.3 109.9 79.83 109.92C79.36 109.93 78.89 109.91 78.41 109.94C77.46 109.97 76.5 109.98 75.54 109.97C74.58 109.97 73.6 110.04 72.63 110.06L71.16 110.1L69.69 110.19C68.23 110.28 66.76 110.34 65.3 110.48L63.1 110.66L60.9 110.9V110.85H60.89Z" fill="#231F20"/>
<path d="M110.92 26.18C111.39 26.24 114.95 25.26 114.6 23.77C114.25 22.28 116.89 24.43 116.51 26.18C116.13 27.93 114.71 28.45 113.15 27.9C111.59 27.35 110.92 26.17 110.92 26.17V26.18Z" fill="#231F20"/>
<path d="M78.8199 9.33C78.4399 9.43 76.6299 10.99 77.7899 11.63C78.9499 12.27 76.1299 14.45 75.1799 12.52C74.2199 10.59 74.3299 9.61 76.6199 8.83C78.9099 8.05 78.8199 9.33 78.8199 9.33Z" fill="#231F20"/>
<path d="M13.6002 76.67C13.1902 72.9 12.6902 69.12 12.1902 65.33C12.0102 63.95 11.7502 62.57 11.5802 61.18C10.9802 56.28 10.6702 51.32 10.6002 46.35C10.6002 44.14 10.5802 41.92 10.7802 39.73C10.9102 38.33 11.0102 36.91 11.3202 35.52C11.6402 34.14 12.0702 32.78 12.6602 31.49C13.0202 30.68 13.0502 30.82 13.0802 31.59C13.1102 32.05 13.1402 32.59 13.1802 33.16C13.2502 33.81 13.2802 34.55 13.2402 35.33C13.2402 35.68 13.2402 36.03 13.2302 36.37L13.1402 37.4L13.0502 39.47V41.54C13.0502 42.23 13.0802 42.92 13.0502 43.62C13.0502 46.39 13.1702 49.19 13.3102 52.02C13.4902 55.4 14.1002 58.9 14.5602 62.35L16.0902 73.8C16.3902 76.16 16.6502 78.53 16.8802 80.9C17.2302 84.49 17.4002 88.13 17.4202 91.73C17.4302 94.53 17.4402 97.31 17.0902 100.11C17.0002 100.72 16.9802 101.34 16.8302 101.95C16.2602 104.22 15.7502 104.85 14.9502 105.1C14.7702 105.16 14.5902 105.25 14.4402 105.26C13.9502 105.31 13.7102 104.27 13.9402 102.7C14.5302 98.01 14.7602 93.08 14.5302 88.02C14.3602 84.27 14.0102 80.47 13.5402 76.68H13.6102L13.6002 76.67Z" fill="#231F20"/>
<path d="M43.66 27.96C47.64 27.38 51.64 26.65 55.66 25.94C57.13 25.68 58.58 25.34 60.07 25.11C65.28 24.3 70.63 23.78 75.99 24.06C78.37 24.22 80.76 24.45 83.1 24.93C86.06 25.61 89.14 26.62 91.37 28.82C92.05 29.51 91.84 29.57 90.93 29.58C90.48 29.58 89.81 29.66 89.14 29.55C88.8 29.51 88.41 29.5 88.04 29.45C87.85 29.42 87.66 29.39 87.46 29.36C87.28 29.3 87.09 29.24 86.91 29.17C86.24 28.94 85.55 28.76 84.88 28.55C84.2 28.36 83.5 28.26 82.82 28.07C82.14 27.89 81.43 27.78 80.74 27.63C80.04 27.49 79.33 27.42 78.62 27.31C75.77 26.96 72.84 26.89 69.86 26.94C66.29 27.01 62.59 27.72 58.94 28.35C54.92 29.04 50.88 29.8 46.81 30.46C44.3 30.86 41.78 31.24 39.25 31.5C35.41 31.92 31.51 32.1 27.65 31.9C24.65 31.77 21.67 31.52 18.74 30.75C18.09 30.61 17.46 30.43 16.83 30.2C14.45 29.44 13.91 28.65 13.72 27.87C13.67 27.69 13.59 27.52 13.57 27.39C13.55 27.17 13.8 27.1 14.3 27.03C14.81 26.95 15.51 27.01 16.31 27.28C18.76 27.91 21.27 28.35 23.82 28.7C26.38 29.03 29.03 29.11 31.69 29.06C35.64 28.96 39.65 28.54 43.66 27.89L43.68 27.96H43.66Z" fill="#231F20"/>
<path d="M71.6198 106.99C73.7898 106.93 75.9698 106.91 78.1498 106.93C79.2398 106.91 80.3298 107.02 81.4098 107.07C81.9498 107.1 82.4998 107.14 83.0398 107.18L83.8498 107.24L84.0498 107.26C84.1198 107.26 84.1998 107.27 84.1798 107.26H84.2098H84.2298C84.2298 107.26 84.2098 107.17 84.2498 107.35C84.2098 107.17 84.2398 107.3 84.2298 107.26H84.2398H84.2698C84.2698 107.26 84.3098 107.28 84.3298 107.28C84.3698 107.27 84.3898 107.24 84.3998 107.21C84.4198 107.18 84.4298 107.14 84.4398 107.11L84.4598 107.06L84.4898 106.92C84.6098 106.23 84.6898 105.46 84.7598 104.7C84.8898 103.16 84.9598 101.59 85.0298 100.01C85.1498 97.29 85.1798 94.56 85.3198 91.83C85.9298 82.21 86.4998 72.65 87.1898 63.04C87.4998 58.78 87.7898 54.5 88.1798 50.27C88.4198 47.55 88.7098 44.83 89.1198 42.11C89.5898 39.41 90.1598 36.66 91.4698 34.15C92.4998 32.68 92.2998 32.91 92.2398 34.41C92.1498 35.9 92.2598 38.53 91.8298 41.57C90.9598 46.94 90.4598 52.45 89.9898 57.96C89.5598 63.49 89.1298 69.03 88.6898 74.6C88.4298 77.93 88.2498 81.35 88.0698 84.78C87.8898 88.22 87.7198 91.64 87.5998 95.06L87.2998 102.33C87.2398 103.55 87.1698 104.77 87.0298 106.02C86.9998 106.33 86.9598 106.65 86.9098 106.97L86.8298 107.45C86.7998 107.65 86.7298 107.92 86.6698 108.14C86.5398 108.6 86.3598 109.04 86.0498 109.36C85.7298 109.71 85.2798 109.8 84.8098 109.72C84.8398 109.84 84.8098 109.75 84.8198 109.78H84.8098H84.7798H84.7298H84.6298H84.4298L84.0398 109.77H83.5398L82.5398 109.75C81.8698 109.73 81.2098 109.75 80.5398 109.75H76.5398C71.9398 109.77 67.3198 109.98 62.7198 110.32C55.7398 110.83 48.7498 111.6 41.7998 112.29C39.0998 112.56 36.4098 112.83 33.7198 113C31.0198 113.16 28.2998 113.25 25.5298 112.99C24.3098 112.87 23.1098 112.74 21.8798 112.43C19.5898 111.88 18.1598 111.07 17.2998 110.34C16.8698 109.98 16.5898 109.62 16.3698 109.31C16.1698 108.99 16.0998 108.63 16.0198 108.35C15.9598 108.08 15.8398 107.79 15.8298 107.63C15.8198 107.34 16.2098 107.45 16.9798 107.7C17.1598 107.78 17.3998 107.81 17.6198 107.91C17.8398 108 18.0798 108.11 18.3298 108.22C18.8698 108.41 19.4598 108.67 20.1598 108.88C22.1898 109.63 24.4598 109.95 26.7898 110.08C29.1198 110.21 31.5298 110.15 33.9698 110.02C38.8498 109.75 43.8498 109.18 48.8798 108.67C56.3598 107.89 63.9498 107.2 71.5598 106.94V107.01L71.6198 106.99Z" fill="#231F20"/>
<path d="M61.0098 75.06C61.0098 75.06 49.3699 71.04 48.1098 77.34C47.5998 79.91 49.0298 82.13 51.5098 83.1C54.2598 84.17 57.9498 85.16 60.1198 83.27C64.9598 79.04 64.9398 59.24 66.1898 53.53C66.1898 53.53 46.5498 49.86 45.4798 46.66C45.4798 46.66 43.0298 46.87 38.8398 69.46C38.8398 69.46 31.0798 66.46 27.8798 70.05C24.6798 73.64 28.4198 77.44 31.7098 78.27C34.9998 79.1 38.9998 79.82 40.4098 76.33C42.4298 71.31 43.6798 56.94 44.6898 55.1C44.6898 55.1 50.6698 60.48 62.0398 60.69C62.0398 60.69 62.6098 70.01 61.0098 75.06Z" fill="#231F20"/>
<path d="M80.0799 13.08C79.5199 13.65 78.8699 13.9 78.3199 14.01C77.7699 14.12 77.2199 14.14 76.6799 14.08C76.2899 14.04 75.8799 14.02 75.4899 13.87C74.7999 13.6 74.1999 13.2 73.7099 12.54C73.4699 12.21 73.2499 11.71 73.2899 11.25C73.3099 10.79 73.4599 10.42 73.6299 10.11C73.9499 9.57999 74.3199 9.10999 74.8099 8.78999C75.1199 8.57999 75.4599 8.39999 75.8499 8.32999C76.2299 8.26999 76.6499 8.32999 76.9799 8.51999C77.1899 8.63999 77.0799 8.79999 76.8799 8.99999C76.6699 9.18999 76.4599 9.53999 76.3099 9.71999C75.9799 9.94999 75.7899 10.33 75.5799 10.61C75.4899 10.76 75.4099 10.92 75.3799 11.02C75.3599 11.07 75.3499 11.1 75.3399 11.11C75.3399 11.11 75.3299 11.11 75.2999 11.12H75.2799C75.2799 11.12 75.2999 11.12 75.2899 11.12C75.2899 11.12 75.2799 11.12 75.2699 11.14C75.1999 11.22 75.3899 11.44 75.5999 11.57C75.8199 11.7 76.0799 11.78 76.3499 11.85C76.9199 12.01 77.7199 11.96 78.2199 11.76C78.5199 11.64 78.6899 11.47 78.7899 11.12C78.9299 10.62 78.7599 9.93999 78.2899 9.65999C77.9099 9.42999 77.4199 9.44999 76.9899 9.54999C76.8899 9.56999 76.8099 9.61999 76.7099 9.63999C76.3699 9.72999 76.2199 9.64999 75.9099 9.32999C75.8399 9.25999 75.7599 9.18999 75.6999 9.10999C75.4799 8.86999 75.5099 8.48999 75.8999 8.15999C76.4799 7.70999 77.2699 7.47999 78.1199 7.55999C78.9599 7.64999 79.8799 8.15999 80.4199 9.01999C80.8099 9.62999 80.9799 10.32 80.9599 11.03C80.9299 11.74 80.6799 12.5 80.1299 13.11L80.0899 13.07L80.0799 13.08Z" fill="#231F20"/>
<path d="M107.43 9.92C107.3 10.43 106.99 11.06 106.41 11.47C105.84 11.85 105.26 11.92 104.77 11.92C104.41 11.92 104.07 11.92 103.75 11.83C103.18 11.68 102.6 11.4 102.14 10.95C101.67 10.49 101.35 9.88999 101.36 9.22999C101.35 8.63999 101.59 8.08 101.92 7.7C102.34 7.2 102.85 6.9 103.39 6.76C103.56 6.72 103.63 6.9 103.62 7.16C103.61 7.42 103.53 7.77 103.36 7.98C103.03 8.34 102.89 8.69 102.93 8.87C102.96 9.03 103.02 9.21 103.11 9.52C103.25 9.88 103.79 10.01 104.3 10.07C104.58 10.11 104.85 10.11 105.04 10.06C105.24 10 105.34 9.97 105.46 9.8C105.61 9.58 105.7 9.22999 105.67 8.89999C105.63 8.39999 105.35 7.87 104.91 7.69C104.57 7.55 104.16 7.69 103.9 7.88C103.84 7.91 103.79 7.97 103.74 8C103.55 8.13 103.44 8.1 103.04 7.94L102.77 7.84C102.48 7.74 102.32 7.39 102.57 6.95C102.76 6.64 103.03 6.37 103.35 6.18C103.68 6 104.05 5.9 104.43 5.88C105.19 5.81 106.1 6.17 106.64 6.76C107.46 7.63 107.73 8.80999 107.48 9.93999H107.43V9.92Z" fill="#231F20"/>
<path d="M116.91 26.41C116.59 27.68 115.59 28.64 114.34 28.92C113.9 29.01 113.47 29.07 113.07 29.01C112.36 28.86 111.79 28.6 111.21 28.19C110.63 27.78 110.17 27.1 110.05 26.43C109.92 25.84 109.91 25.25 110.03 24.7C110.17 24 110.51 23.33 111.08 22.94C111.26 22.82 111.44 23.05 111.57 23.36C111.69 23.67 111.82 24.07 111.75 24.32C111.45 25.26 111.75 25.9 112.05 26.43C112.29 26.83 113.05 26.94 113.51 26.98C113.79 27.01 114.02 26.98 114.25 26.88C114.49 26.77 114.71 26.58 114.86 26.35C115.05 26.06 115.14 25.72 115.07 25.35C114.97 24.79 114.56 24.25 113.97 24.12C113.51 24.01 113.03 24.2 112.62 24.41C112.53 24.46 112.44 24.53 112.35 24.57C112.01 24.77 111.86 24.74 111.51 24.47C111.43 24.41 111.35 24.36 111.28 24.29C111.04 24.09 111.01 23.71 111.32 23.38C111.77 22.9 112.4 22.51 113.17 22.38C113.93 22.24 114.85 22.39 115.6 22.92C116.68 23.7 117.23 25.05 116.96 26.41H116.91Z" fill="#231F20"/>
<path d="M25.5702 26.49C24.9302 26.45 24.3002 26.33 23.6702 26.22C23.4402 26.18 23.2102 26.17 22.9802 26.13C22.1802 25.96 21.3902 25.76 20.6102 25.54C20.2602 25.46 19.9102 25.37 19.5702 25.26C19.1302 25.13 18.7002 24.99 18.2902 24.78C18.1602 24.71 18.2002 24.64 18.3502 24.57C18.4902 24.5 18.7402 24.41 19.0002 24.42C19.4602 24.45 19.9202 24.45 20.3702 24.52C20.8102 24.61 21.2502 24.72 21.6902 24.83C22.2202 24.98 22.7902 24.98 23.3402 25.03C23.9502 25.09 24.5602 25.14 25.1702 25.17C25.5502 25.2 25.9202 25.22 26.3002 25.23C26.8702 25.24 27.4502 25.23 28.0202 25.18C28.4602 25.14 28.8802 25.04 29.3102 24.96C29.4002 24.94 29.5002 24.92 29.5902 24.9C29.9502 24.85 30.0702 24.91 30.1902 25.15C30.2202 25.2 30.2502 25.26 30.2702 25.31C30.3402 25.49 30.2202 25.68 29.9602 25.81C29.2002 26.16 28.3602 26.47 27.4902 26.52C26.8502 26.56 26.2002 26.54 25.5502 26.52V26.49H25.5702Z" fill="#231F20"/>
</svg>
