<?xml version="1.0" encoding="UTF-8"?><svg id="Layer_1" xmlns="http://www.w3.org/2000/svg" width="128" height="128" viewBox="0 0 128 128"><defs><style>.cls-1{fill:#231f20;stroke-width:0px;}</style></defs><path class="cls-1" d="M56.99,46.56c-.28.68-.56,1.37-.85,2.05-.11.25-.16.51-.27.76-.41.86-.87,1.7-1.4,2.52-.22.38-.44.74-.66,1.11-.16.24-.3.48-.56.67-.12.1-.24.19-.37.27-.16.07-.32.12-.47.16-.2.05-.23-.17-.23-.46.01-.3-.06-.6.01-.86.04-.11.08-.18.11-.3.02-.12.06-.23.13-.31.12-.17.21-.41.33-.61.22-.42.46-.86.73-1.3.33-.53.48-1.17.69-1.77.24-.66.49-1.33.71-2,.14-.42.28-.83.39-1.25.17-.64.39-1.28.49-1.93.08-.5.03-1.02.02-1.53,0-.11,0-.22.03-.33.05-.4.43-.48.79-.53.09-.01.17-.03.25-.03.13,0,.24.04.37.13.13.09.32.24.41.42.23.52.26,1.02.23,1.51-.02.5-.1.99-.19,1.48-.13.73-.41,1.43-.63,2.13h-.05Z"/><path class="cls-1" d="M33.94,71.88c.34.65.63,1.32.91,1.99.11.24.24.46.33.71.32.87.53,1.77.79,2.64.11.39.28.75.39,1.14.16.48.32.97.37,1.49.01.16-.14.2-.36.14-.22-.06-.53-.21-.7-.45-.64-.86-1-1.81-1.27-2.81-.16-.6-.52-1.14-.76-1.71-.27-.63-.56-1.25-.88-1.85-.2-.37-.4-.74-.63-1.09-.34-.53-.7-1.06-1.13-1.52-.35-.34-.77-.59-1.17-.84-.09-.05-.19-.11-.27-.16-.28-.27-.24-.51-.07-.87.04-.08.07-.17.11-.24.07-.12.17-.2.31-.26.14-.05.33-.1.5-.05,1.01.27,1.73,1.06,2.37,1.84.47.59.86,1.24,1.23,1.88l-.04.02Z"/><path class="cls-1" d="M57.11,100.92c-.79-.36-1.6-.67-2.43-.97-.3-.1-.62-.16-.92-.27-1.07-.36-2.16-.69-3.26-1-.49-.14-.99-.23-1.48-.32-.63-.13-1.26-.31-1.88-.54-.19-.07-.16-.13.03-.21.18-.07.52-.21.91-.24.34-.02.68-.05,1.02-.04.33.04.66.08.99.12.66.11,1.32.22,1.96.43.77.25,1.6.37,2.4.58.88.23,1.74.52,2.6.82.53.2,1.05.4,1.57.61.79.32,1.56.7,2.32,1.06.59.29,1.21.51,1.8.81.13.07.27.12.39.19.45.31.49.55.37.91-.03.09-.05.17-.09.25-.12.26-.45.34-.84.26-1.09-.35-2.11-.82-3.13-1.34-.76-.38-1.54-.76-2.35-1.09v-.04Z"/><path class="cls-1" d="M78.1,60.69c-.24.24-.47.49-.73.7-.09.08-.17.18-.26.26-.34.26-.7.54-1.03.79-.15.12-.28.26-.42.38-.19.15-.39.29-.62.39-.07.03-.12-.03-.13-.15-.02-.11-.03-.3.03-.43.18-.51.56-.79.95-1.09.24-.17.4-.43.6-.65.21-.24.45-.47.68-.7.14-.14.28-.29.41-.44.2-.23.41-.45.57-.7.14-.19.23-.4.35-.6.03-.04.05-.09.08-.13.11-.16.21-.16.39-.1l.12.05c.13.06.19.19.18.36-.09.45-.19.94-.49,1.28-.2.28-.42.53-.64.79l-.02-.02Z"/><path class="cls-1" d="M17.98,75.51s10.09-6.7,10.95-6.04,4.84,7.93,6.32,11.37,2.45,6.02.76,7.9-9.63,8.51-9.63,8.51c0,0-4.22-2.84-3.51-7.5.71-4.66,1.84-7.08-1.84-6.93s-3.05-7.31-3.05-7.31Z"/><path class="cls-1" d="M100.8,65.98c.02.55-.31,1.15-.62,1.72-.19.28-.4.56-.6.82l-.3.35-.2.22c-.54.57-1.09,1.1-1.66,1.6-.41.37-.78.77-1.21,1.11-1.51,1.2-3.11,2.26-4.77,3.21-.74.42-1.47.86-2.22,1.25-.48.27-.99.46-1.52.62-.53.15-1.09.26-1.66.2-.35-.03-.31-.15-.08-.41.24-.25.6-.75,1.08-1.02.84-.57,1.72-1.05,2.59-1.59.86-.56,1.73-1.12,2.62-1.69,1.07-.68,1.99-1.64,2.91-2.53.51-.49,1-.99,1.48-1.51.23-.26.46-.52.68-.78.13-.17.16-.19.22-.26.05-.06.11-.12.16-.19.12-.17.27-.36.31-.59.02-.12-.06-.21-.15-.27-.08-.07-.18-.12-.29-.16-.16-.06-.33-.1-.51-.1-.19-.01-.35,0-.69.05-.6.1-1.23.29-1.84.52-.95.37-1.82.94-2.73,1.44-.2.11-.39.25-.6.33-.79.33-1.12.26-1.54-.27-.1-.12-.2-.24-.28-.36-.27-.43-.11-.95.39-1.37.73-.65,1.57-1.12,2.45-1.58.89-.45,1.83-.85,2.93-1.16.21-.05.4-.11.63-.15l.34-.06.17-.03.26-.02c.35-.02.7-.07,1.05-.02l.53.04.49.12c.35.06.6.25.9.37.24.19.52.35.7.58.44.38.68,1.01.65,1.55l-.07.02Z"/><path class="cls-1" d="M105.85,49.19c.79-.11,1.34.03,1.81.27.22.11.52.36.7.65l.17.42c.04.15.06.3.09.46.04.65-.12,1.36-.4,2.11-.32.76-.79,1.57-1.42,2.32-.21.28-.43.55-.67.82l-.27.32-.21.24c-.28.32-.58.62-.89.9-2.21,1.95-4.54,3.57-6.9,5.15-1.05.69-2.07,1.43-3.08,2.15-1.3.93-2.57,1.89-4.09,2.49-.49.16-.51.03-.34-.46.14-.53.51-1.35,1.18-1.98,1.19-1.13,2.5-2.07,3.75-3.08,1.26-1,2.56-1.95,3.9-2.84,1.59-1.09,3-2.52,4.29-3.91l.49-.53c.07-.06.13-.14.2-.21.14-.15.28-.32.41-.52.13-.19.26-.42.34-.67.03-.12.09-.27.05-.39-.07-.11-.19-.09-.3-.09-.55.07-1.05.27-1.81.6-1.82.87-3.67,1.79-5.42,2.81-1.37.8-2.62,1.73-3.93,2.6-.29.19-.56.4-.86.58-1.14.64-1.61.65-2.19.13-.13-.12-.28-.23-.39-.36-.36-.44-.11-1.09.61-1.7,2.15-1.81,4.66-3.37,7.26-4.85.96-.55,1.96-1.06,2.98-1.56l.79-.38c.49-.25.98-.46,1.47-.67.49-.23.96-.38,1.44-.57.45-.12.92-.29,1.31-.32l-.04.09Z"/><path class="cls-1" d="M111.27,43.31c-.02.75-.42,1.57-1.06,2.34-.31.39-.67.75-1.04,1.1-.25.23-.45.4-.68.59-.89.73-1.78,1.39-2.69,2.03-.66.47-1.28.98-1.95,1.42-2.36,1.54-4.77,2.98-7.22,4.33-1.08.61-2.14,1.27-3.19,1.9-.67.41-1.35.83-2.03,1.22-.7.38-1.42.7-2.15,1.03-.46.2-.44.09-.17-.26.28-.34.77-1,1.45-1.62,2.56-1.95,5.11-3.89,7.83-5.62,1.67-.97,3.23-2.24,4.79-3.42.86-.65,1.71-1.3,2.53-1.97.78-.63,1.76-1.55,1.94-1.73.2-.22.48-.49.48-.84-.02-.19-.19-.25-.33-.31-.15-.04-.32-.08-.49-.08-.13,0-.26-.02-.39,0l-.49.03c-.48.07-.96.12-1.45.22-.97.17-1.94.43-2.89.71-1.48.45-2.86,1.1-4.25,1.73-.3.14-.59.3-.9.43-1.14.49-1.54.44-2.09-.06-.12-.12-.27-.22-.38-.34-.38-.4-.06-1.08.77-1.64,1.23-.8,2.55-1.42,3.93-1.97,1.38-.55,2.83-1,4.33-1.34.56-.13,1.13-.24,1.71-.33l.89-.12.65-.05c.29-.03.55-.04.81-.03.51.02.99.11,1.48.16.26,0,.41.14.62.21.19.09.41.15.58.26.29.27.63.47.82.86.2.38.3.79.29,1.17l-.07.02Z"/><path class="cls-1" d="M88.09,39.2c-.76,2.28-1.68,4.46-2.63,6.61-.35.78-.63,1.6-1.01,2.36-1.31,2.73-2.86,5.32-4.39,7.9-.68,1.14-1.33,2.31-1.99,3.46-.9,1.44-1.68,2.99-3.14,4.05-.47.31-.49.21-.5-.35-.04-.57-.1-1.59.3-2.45l1.15-2.25c.39-.75.82-1.48,1.22-2.22.82-1.48,1.66-2.96,2.53-4.43,1.04-1.77,1.81-3.76,2.66-5.67.93-2.1,1.83-4.22,2.58-6.39.47-1.33.89-2.67,1.2-4.03.23-1.02.43-2.06.49-3.07,0-.25.03-.5.02-.75v-.29c-.01-.08-.02-.15-.04-.23-.04-.31-.13-.61-.3-.86-.01-.02-.03-.04-.05-.06-.08-.07-.15-.17-.26-.2-.11-.03-.23.01-.33.06-.21.12-.38.27-.52.43-.07.08-.13.16-.2.24-.06.07-.1.14-.24.31-.24.29-.47.59-.7.9-.2.28-.39.57-.59.85-.36.54-.76.77-1.05.92-.16.07-.31.11-.47.11-.18,0-.36-.04-.54-.08-.17-.03-.33-.04-.45-.07-.34-.06-.67-.98-.21-1.97.48-1.09,1.2-2.03,2.04-3,.31-.35.78-.72,1.18-1.07l.66-.43c.22-.14.45-.22.68-.31.23-.09.46-.11.68-.17.23,0,.46-.03.69.02.24.03.46.13.67.25.24.02.41.21.62.31l.67.77c.19.3.33.64.5.96.21.73.46,1.51.46,2.3.06,1.44-.14,2.71-.39,3.94-.25,1.23-.58,2.41-.94,3.57l-.07-.02Z"/><path class="cls-1" d="M85.16,27.35c-.74,3.02-1.61,5.96-2.72,8.81-.4,1.04-.72,2.11-1.15,3.14-1.54,3.61-3.18,7.17-5.07,10.61-.84,1.53-1.64,3.08-2.51,4.58-.56.96-1.09,1.95-1.78,2.85-.71.88-1.5,1.73-2.48,2.38-.75.26-.63.19-.5-.48.05-.35.17-.77.29-1.29.12-.51.27-1.08.54-1.62l.34-.73.4-.7.78-1.42c.51-.96,1-1.93,1.49-2.92.97-1.97,1.92-3.96,3-5.92,1.26-2.36,2.15-5.01,3.1-7.56.53-1.4,1.03-2.82,1.54-4.23.51-1.41,1-2.83,1.43-4.26.53-1.76,1.01-3.54,1.28-5.32.1-.67.17-1.35.15-1.98-.02-.42-.01-.83-.31-1.12-.16-.14-.37-.11-.57-.08-.2.01-.39.1-.57.18-.17.1-.48.27-.7.47-.25.17-.47.41-.69.64-1.39,1.48-2.24,3.46-3.32,5.32-.23.42-.44.84-.71,1.25-.23.38-.46.7-.66.95-.21.24-.45.41-.63.53-.19.13-.37.21-.55.25-.2.03-.39.02-.55.01-.15,0-.3.02-.39,0-.23,0-.36-.99.1-2.16.79-1.69,1.52-3.56,2.66-5.35.57-.9,1.2-1.81,2.02-2.69.22-.22.43-.43.66-.65l.78-.61c.15-.1.31-.18.46-.27.18-.08.4-.25.63-.32.46-.16.96-.31,1.43-.36h1.05c.35,0,.66.15.96.31.59.36,1.02.9,1.28,1.57.11.34.22.69.26,1.07.02.19.06.37.07.56l.02.47c0,.46-.02.9-.06,1.32-.11,1.69-.4,3.24-.73,4.79h-.07Z"/><path class="cls-1" d="M87.12,61.06c-1.55,4.31-3.36,8.48-5.37,12.57-.74,1.49-1.44,3-2.26,4.46-.73,1.28-1.52,2.56-2.38,3.77l-2.48,3.55c-1.64,2.37-3.24,4.77-4.77,7.2-1.36,2.16-2.61,4.4-3.73,6.66-.71,1.46-1.41,2.91-2.05,4.38-.31.74-.64,1.46-1.02,2.18-.19.36-.33.73-.51,1.09-.18.36-.38.72-.53,1.09-.45.92-.44.82-.58-.11-.08-.46-.23-1.15-.23-1.96-.02-.41,0-.84.03-1.31.01-.23.05-.46.06-.71.06-.23.14-.45.22-.69.29-.82.6-1.62.93-2.42.31-.81.69-1.57,1.08-2.33.79-1.51,1.61-3,2.49-4.45,1.74-2.91,3.62-5.72,5.6-8.47,1.19-1.64,2.34-3.35,3.5-5.07,1.12-1.66,2.09-3.44,3.04-5.25,2.07-3.96,3.92-8.08,5.54-12.27.99-2.58,1.9-5.2,2.61-7.85.4-1.53.75-3.07.93-4.6.06-.38.07-.76.1-1.14.01-.19,0-.37,0-.56,0-.15,0-.25-.01-.36-.03-.44-.11-.93-.45-1.26-.1-.09-.23-.21-.38-.14-.13.06-.25.15-.35.25-.2.2-.38.43-.54.67-.09.13-.34.51-.55.84-.21.34-.41.68-.61,1.03-.39.69-.77,1.4-1.14,2.11-.73,1.42-1.5,2.83-2.28,4.25-.35.62-.67,1.25-1.05,1.87-.7,1.16-1.31,1.85-1.8,2.3-.49.45-.94.6-1.36.6-.18.01-.4.02-.49-.03-.16-.1-.06-.27.06-.71.11-.46.45-1.07.84-1.93,1.14-2.31,2.25-4.8,3.49-7.29.67-1.23,1.35-2.46,2.14-3.69l.3-.47.19-.28c.09-.14.2-.28.31-.41.41-.56.85-1.08,1.31-1.49.47-.39.95-.67,1.43-.74.12-.02.25-.03.37-.04.13,0,.26.05.39.07l.2.06h.05c.04-.09.04,0,.06-.02l.09.04.37.15c.3.25.59.44.84.71.21.33.5.57.62,1.01l.27.7c.07.25.1.54.15.8.04.27.1.54.13.82.02.29.01.55.01.68,0,.66-.04,1.29-.12,1.9-.14,1.23-.38,2.4-.65,3.55-.54,2.3-1.23,4.52-1.99,6.7l-.06-.02Z"/><path class="cls-1" d="M53.23,34.17c-.2-.67-.36-1.34-.62-1.86-.13-.24-.27-.49-.41-.64-.08-.1-.14-.14-.16-.17-.04-.03-.08-.06-.12-.07-.15-.09-.27.07-.35.17-.02-.03-.33.49-.52.91-.21.43-.39.9-.56,1.37-.34.95-.61,1.93-.82,2.93-.18.89-.27,1.8-.32,2.7-.08,1.16.06,2.29-.04,3.45-.05.37-.21.37-.54.11-.37-.25-.82-.81-.92-1.53-.36-2.52-.21-5.05.49-7.49.21-.75.42-1.5.63-2.25.13-.41.22-.73.45-1.22.27-.56.6-1.13,1.07-1.47.26-.18.57-.3.89-.33.32,0,.65,0,.96.09.33.04.62.22.93.32.31.18.51.31.72.5.84.72,1.3,1.58,1.69,2.4.45,1.03.69,2.07.92,3.1.33,1.56.47,3.12.69,4.64.17,1.18.49,2.34.66,3.52.04.26.11.51.12.77.03.98-.2,1.29-.97,1.51-.18.05-.35.12-.52.15-.59.1-1.1-.28-1.35-.96-.38-1.01-.61-2.03-.8-3.07-.16-1.04-.28-2.08-.42-3.11-.21-1.53-.41-3.06-.83-4.41l.07-.03Z"/><path class="cls-1" d="M103.37,37.81c.65-.63,1.25-1.3,1.72-1.97.06-.08.12-.17.16-.25.05-.08.11-.18.12-.19.03-.04.06-.08.08-.13.05-.09.08-.22.02-.33-.02-.04-.06-.07-.1-.08-.13-.02-.25.04-.37.05-1.05.23-2.27.63-3.4,1.04-1.15.42-2.29.88-3.41,1.38-.99.45-1.96.97-2.91,1.48-.61.33-1.2.7-1.79,1.05l-.88.52c-.28.19-.65.26-.96.41-.4.17-.45.07-.35-.39.05-.23.14-.55.28-.94.16-.35.43-.65.75-.92,1.19-.91,2.4-1.74,3.68-2.44,1.31-.66,2.65-1.25,4.04-1.74.83-.29,1.66-.64,2.51-.97.42-.17.86-.33,1.3-.49l.34-.11c.06-.02.1-.03.18-.06l.27-.07c.36-.1.72-.16,1.07-.19.4-.03.74.06,1.09.18.24.18.54.34.7.61.1.12.17.26.23.41.07.14.12.29.14.44.11.61,0,1.28-.28,1.89-.07.15-.12.33-.2.45l-.18.32c-.12.21-.26.39-.38.59-.27.37-.55.73-.83,1.07-.82.96-1.71,1.81-2.61,2.63-1.38,1.25-2.86,2.35-4.34,3.44-1.16.84-2.25,1.74-3.52,2.5-.28.16-.55.35-.86.48-1.15.51-1.7.4-2.06-.26-.08-.15-.18-.3-.23-.46-.14-.55.17-1.01.78-1.37,1.87-1.12,3.95-2.53,5.95-4.02,1.48-1.12,2.95-2.3,4.22-3.61l.05.04Z"/><path class="cls-1" d="M22.61,71.55c.96-.42,1.92-.85,2.86-1.33.34-.17.65-.4,1-.57,1.22-.61,2.45-1.22,3.68-1.82.54-.28,1.06-.6,1.56-.93.63-.44,1.3-.85,2.09-1.04.26-.04.34.14.33.5,0,.37-.1.91-.42,1.24-.54.61-1.21,1.03-1.86,1.49-.66.44-1.33.87-2.07,1.19-.89.38-1.68,1-2.53,1.49-.94.53-1.9,1.04-2.87,1.53l-1.79.89c-.91.45-1.84.85-2.73,1.31-.69.36-1.31.85-1.98,1.26-.15.09-.28.2-.44.28-.57.28-.83.2-1.21-.38-.09-.13-.18-.26-.25-.4-.25-.47-.18-.97.18-1.28,1.06-.94,2.3-1.53,3.57-2.13.94-.44,1.91-.86,2.85-1.32l.03.05Z"/><path class="cls-1" d="M64.31,36.62c-1.91,3.77-3.8,7.58-5.92,11.33-1.09,1.86-2.15,3.75-3.53,5.57-.73.9-1.43,1.83-2.77,2.61-.32.19-.82.37-1.27.45-.22.02-.5.05-.67.03l-.47-.03c-.61-.04-1.25-.15-1.88-.33-.92-.27-1.82-.71-2.59-1.32-.76-.61-1.37-1.34-1.86-2.08-.98-1.5-1.56-3.06-2.04-4.59-.61-1.91-1-3.87-1.46-5.66-.24-.9-.49-1.78-.82-2.53-.17-.34-.36-.71-.55-.89-.12-.17-.24-.21-.4-.26-.41,0-.57.05-.88.51-.28.47-.47,1.23-.57,2-.21,1.57-.15,3.29-.01,4.99.28,3.41.89,6.85,1.57,10.27.47,2.36,1.01,4.69,1.51,7.1.26,1.29.35,2.44.54,3.64.17,1.19.34,2.36.55,3.53.52,2.99,1.24,5.92,2.39,8.64,1.13,2.73,2.66,5.26,4.49,7.64.93,1.68.77,1.56-.84.82-.44-.15-.84-.47-1.34-.81-.5-.34-1.01-.78-1.55-1.29-1.04-1.04-2.25-2.38-3.03-4.12-1.45-3.04-2.29-6.28-2.87-9.45-.29-1.59-.53-3.17-.73-4.74l-.31-2.35c-.08-.62-.25-1.41-.41-2.15-.66-3.05-1.34-6.16-1.87-9.31-.52-3.16-.97-6.35-.99-9.68.01-1.4.04-2.83.43-4.38.2-.77.51-1.61,1.21-2.41.35-.4.85-.74,1.39-.94.27-.07.56-.16.82-.19.25,0,.53-.01.83,0,.26.04.51.11.76.19.23.12.48.22.69.38.45.33.74.7.97,1.03.47.68.73,1.33.99,1.97.49,1.28.81,2.53,1.14,3.76.63,2.42,1.29,4.82,2.34,6.84.89,1.71,2.1,2.87,3.84,3.18.22.03.43.09.66.1.21,0,.52.06.56.03.11,0,.16-.03.3-.08.14-.07.3-.17.46-.29.66-.51,1.3-1.3,1.9-2.1,1.2-1.64,2.23-3.48,3.2-5.34.98-1.87,1.9-3.77,2.81-5.69,2.25-4.72,4.37-9.52,6.78-14.22,1.01-1.94,2.06-3.87,3.3-5.75.63-.93,1.28-1.86,2.14-2.72.22-.22.43-.41.73-.64.31-.23.64-.45.99-.6.69-.32,1.52-.36,2.2-.02.27.18.58.3.81.52.23.23.47.44.69.67.18.28.35.57.48.81.13.26.19.52.28.78.3,1.03.36,2.04.33,3-.07,1.93-.43,3.75-.87,5.53-1.56,6.07-3.78,11.73-6.41,17.25-.58,1.21-1.14,2.41-1.78,3.61-1.18,2.23-2.09,3.64-2.87,4.54-.76.92-1.39,1.33-2.03,1.55-.28.1-.62.26-.81.26-.33-.01-.24-.4.01-1.26.24-.88.83-2.14,1.58-3.78,2.33-4.8,4.46-9.9,6.42-15.05.98-2.57,1.91-5.18,2.59-7.8.34-1.3.62-2.61.75-3.86.14-1.22.13-2.49-.16-3.17l-.05-.15s-.05-.05-.07-.08c0-.02.02,0,.01,0,0,0,0,0,0,0,0-.01,0,0,0,0h0s0,0,0,0l-.16.15c-.46.45-1.01,1.12-1.5,1.83-1,1.44-1.92,3.08-2.81,4.74-1.74,3.35-3.5,6.78-5.21,10.24l-.08-.03Z"/><path class="cls-1" d="M36.44,79.14c.47.96.9,1.95,1.29,2.99.2.51.34,1.08.51,1.61l.18.88c.06.29.12.58.12.92l.04.71c.03.18-.02.65-.08.9-.14.6-.38,1.03-.63,1.42-.92,1.32-1.96,2.2-3.01,3.09-1.07.85-2.17,1.6-3.25,2.37-.96.68-1.9,1.38-2.83,2.07-1.15.94-2.45,1.69-3.71,2.47-.39.25-.39.17-.19-.21.2-.36.55-1.08,1.1-1.78.48-.63,1.03-1.15,1.59-1.66l1.67-1.54c1.12-1.01,2.24-2,3.37-2.95.67-.58,1.33-1.18,1.88-1.86.55-.65,1.04-1.4,1.22-1.93.02-.06.03-.12.05-.18,0-.06.03-.03.01-.16l-.03-.59c-.05-.41-.15-.86-.26-1.3-.27-.9-.62-1.81-1.04-2.7-.5-1.11-1.1-2.2-1.72-3.28-.96-1.63-1.96-3.25-3.07-4.79-.86-1.2-1.85-2.27-2.77-3.43-.2-.26-.42-.5-.62-.77-.71-1.02-.7-1.56-.18-2.12.12-.13.23-.28.37-.38.46-.34,1.08-.16,1.7.42,1.77,1.82,3.58,3.95,5.12,6.28,1.16,1.73,2.23,3.56,3.23,5.46l-.06.04Z"/><path class="cls-1" d="M42.37,22.04c.25.06.33.33.33.69,0,.12-.16.37-.24.38-.16.01-.33.03-.49.03-.09-.01-1.42-.36-1.9-.42-.45-.08-.89-.17-1.28-.37-.82-.35-1.64-.67-2.47-.98-.18-.07-.36-.17-.52-.28-.56-.39-1.17-.68-1.81-.91-.11-.04-.21-.1-.34-.06-.22.06-1.9-.63-2.1-.78-.48-.38-.99-.69-1.5-1.02-.07-.05-.17-.05-.2-.17-.08-.29-.27-.31-.44-.39-.23-.11-.44-.27-.65-.44-.11-.07-.16-.29-.25-.44-.07-.14.07-.37.12-.39.14-.05.1-.22.13-.33,0-.04.02-.09.04-.12.06-.16,1.7-.32,1.85-.24.04,0,2.14.57,2.41.64.13.02.23.13.34.21.05.03,1.76.5,1.82.54.33.16.7.22.94.57.05.07.12.09.19.12.57.25,1.09.62,1.62.96.27.17.56.3.84.46.05.03.09.08.13.12.06.05.11.11.17.14.67.35,1.29.79,1.94,1.18.15.09.74.73.92.82.1.06.28.47.38.49Z"/><path class="cls-1" d="M45.62,18.17c.17.12.1.38-.05.68-.05.1-.28.26-.35.24-.14-.04-.29-.07-.42-.11-.15-.1-1.09-.69-1.45-.92-.33-.23-.6-.5-.86-.78-.55-.56-1-1.18-1.45-1.82-.1-.14-.17-.3-.22-.47-.16-.58-.46-1.08-.82-1.56-.06-.08-.1-.17-.23-.21-.23-.05-1.06-1.42-1.03-1.67-.03-.56-.13-1.08-.2-1.61,0-.08-.07-.13,0-.24.19-.26.07-.37.07-.54-.02-.23-.02-.47,0-.71,0-.12.12-.28.17-.42.06-.13.31-.18.36-.16.12.05.22-.07.32-.13.04-.02.08-.04.11-.05.04-.01.39.17.73.37.19.09.38.19.53.26.12.09.2.16.22.19,0,0,.07.1.16.25.1.14.23.33.36.52.27.38.56.77.64.84.07.08.07.19.08.31,0,.06.8,1.19.82,1.24.1.27.31.48.24.85-.02.07.02.12.05.17.26.42.41.9.61,1.36.1.24.25.44.37.66.02.04.02.1.03.14.01.06.02.13.05.17.28.53.47,1.13.82,1.62.09.1.17.86.28.98.04.08-.02.49.05.54Z"/><path class="cls-1" d="M50.4,16.9c.11.13-.09.26-.46.4-.12.05-.48.08-.54.04-.11-.07-.22-.14-.31-.21-.05-.04-.38-.82-.51-1.09-.13-.26-.2-.53-.21-.79-.04-.54-.09-1.09-.1-1.64,0-.12.02-.24.07-.36.16-.41.19-.81.17-1.23,0-.07.02-.14-.06-.22-.06-.06-.08-.38-.05-.69.04-.31.11-.63.16-.69.12-.16.21-.33.31-.49.12-.16.23-.31.35-.48.03-.04.02-.1.13-.13.25-.05.24-.16.29-.27.07-.14.15-.27.26-.4.06-.06.19-.1.3-.15.1-.04.37.07.39.1.07.09.22.07.34.1.04,0,.09.02.12.03.05.03.43.97.44,1.05,0,0,.01.32.04.64,0,.32,0,.64.01.71.01.07-.05.13-.09.19-.01.03.01.97,0,1-.06.18,0,.38-.23.55-.04.03-.04.07-.04.11-.01.33-.12.65-.2.98-.04.17-.02.34-.04.51,0,.03-.03.06-.05.09-.02.04-.04.08-.04.12,0,.4-.1.81-.06,1.21,0,.09-.21.55-.18.66,0,.06-.26.28-.21.33Z"/><path class="cls-1" d="M99.72,100.57c.14.22-.03.48-.33.74-.1.08-.42.16-.49.11-.14-.11-.28-.21-.4-.32-.06-.07-.82-1.26-1.15-1.64-.3-.37-.57-.75-.7-1.17-.33-.84-.7-1.66-1.05-2.5-.08-.19-.12-.38-.14-.59-.01-.72-.22-1.38-.49-2.02-.05-.11-.06-.23-.2-.3-.12-.06-.32-.54-.5-1.04-.16-.5-.25-1.04-.24-1.17.07-.66.02-1.28.07-1.93,0-.09-.05-.17.05-.28.23-.25.14-.43.13-.62-.03-.26-.03-.53,0-.81.01-.14.12-.3.2-.45.07-.14.43-.16.47-.14.14.08.28-.05.42-.1.05-.02.11-.04.15-.04.07,0,1.19,1.22,1.27,1.36,0,0,.07.14.17.33.1.19.24.44.36.7.25.52.53,1.06.6,1.17.07.11.05.25.05.38.03.05.74,1.63.76,1.7.07.35.28.66.13,1.08-.03.08,0,.15.03.22.24.57.29,1.21.37,1.84.04.32.15.62.22.93.01.06,0,.12-.01.18,0,.08-.02.16,0,.23.2.73.28,1.5.42,2.24.03.17-.09,1.07-.03,1.26.02.11-.2.55-.14.63Z"/><path class="cls-1" d="M107.99,93.17c.17.13.14.38.05.65-.03.09-.22.23-.29.21-.13-.04-.27-.08-.4-.12-.06-.04-1.07-.66-1.44-.84-.34-.19-.64-.41-.93-.63-.58-.47-1.22-.86-1.81-1.29-.12-.1-.23-.23-.31-.37-.3-.49-.72-.86-1.2-1.16-.08-.05-.14-.12-.28-.1-.22.03-1.45-.85-1.54-1.07-.25-.47-.57-.88-.87-1.32-.04-.06-.13-.08-.11-.21.05-.31-.09-.38-.2-.5-.15-.16-.27-.36-.37-.59-.03-.14-.02-.33-.03-.49-.01-.14.16-.29.21-.3.13-.01.14-.16.2-.25.02-.03.04-.07.07-.09.01-.01.12-.02.29-.05.18-.04.37-.03.58-.03.4.01.8.07.87.1.01,0,.43.24.87.48.44.24.9.49,1.01.53.11.04.16.16.22.26.03.04,1.3.87,1.34.93.21.24.51.38.58.78.01.08.07.11.12.15.41.36.74.8,1.05,1.25.15.24.34.44.51.66.03.04.04.1.06.15.03.06.04.13.08.18.41.51.71,1.1,1.13,1.59.11.11.32.85.43.97.06.08.05.48.13.53Z"/><path class="cls-1" d="M111.57,80.55c.17-.06.31.15.41.45.03.1,0,.38-.05.42-.1.09-.19.18-.29.25-.03.02-.27.1-.53.21-.26.13-.55.25-.69.32-.28.15-.55.22-.83.3-.56.15-1.13.22-1.72.35-.13.03-.27.02-.41,0-.49-.09-.96-.02-1.45.09-.08.02-.17.01-.24.11-.11.17-1.54.29-1.73.19-.46-.18-.9-.39-1.32-.6-.06-.03-.13-.01-.17-.13-.09-.26-.23-.26-.36-.32-.17-.08-.34-.18-.5-.31-.08-.06-.14-.21-.2-.33-.06-.11.06-.4.09-.43.1-.08.07-.24.1-.37,0-.04.02-.1.03-.13.01-.04.29-.16.57-.3.28-.13.56-.32.61-.3.03.04,1.34-.17,1.47-.17.08-.02.15.04.23.08.04.03,1.06-.18,1.11-.18.22.02.44-.08.69.11.05.04.1.02.14.02.4-.07.82-.02,1.25,0,.22,0,.44-.04.66-.05.04,0,.08.03.13.04.05.01.11.04.16.03.53-.07,1.07.12,1.6.08.13-.02.71.29.84.29.08,0,.32.3.39.27Z"/><path class="cls-1" d="M33.42,109.4l7.81-12.75s11.42,1.84,16.57,4.93c5.14,3.1,6.66,5.6,6.74,6.82s-2.96,11.76-2.96,11.76c0,0-4.57-7.71-8.42-6.3-4.99,1.83-9.88.15-10.66-1.98-1.27-3.48-9.08-2.48-9.08-2.48Z"/><path class="cls-1" d="M36.61,101.94c.71-.99,1.37-2.03,2.01-3.07.25-.37.4-.79.64-1.17.82-1.35,1.58-2.76,2.19-4.24.26-.66.49-1.33.68-2.01l.36-1.31c.06-.22.12-.44.19-.65.06-.22.15-.43.31-.63.19-.25.26-.2.44.09.23.29.45.8.39,1.34-.12.94-.26,1.89-.49,2.82-.24.92-.56,1.83-.97,2.7-.48,1.04-.81,2.2-1.29,3.28-.51,1.19-1.17,2.31-1.85,3.4-.41.68-.85,1.34-1.28,2-.65,1-1.37,1.96-2,2.96-.49.77-.88,1.6-1.34,2.39-.1.18-.18.36-.29.53-.42.62-.72.69-1.35.41-.14-.06-.29-.12-.43-.19-.45-.26-.62-.76-.44-1.3.57-1.56,1.39-3.01,2.37-4.35.71-1.01,1.44-2,2.1-3.03l.06.03Z"/><path class="cls-1" d="M55.3,99.08c1.96.93,3.88,1.98,5.73,3.22.68.43,1.4.87,2.03,1.43.28.25.54.54.8.81l.39.41.36.49.35.49.17.24.17.34c.25.46.34.9.43,1.34.12.85.08,1.64-.05,2.37-.11.74-.28,1.43-.48,2.11-.35,1.2-.7,2.38-1.12,3.51-.47,1.48-1.22,2.85-2.07,4.14-.27.4-.4.28-.49-.19-.08-.47-.22-1.32-.11-2.21.07-.39.09-.79.18-1.15l.28-1.11.53-2.17c.34-1.42.63-2.85.69-4.09v-.52s-.11-.44-.11-.44l-.18-.32-.39-.43c-.52-.58-1.24-1.09-1.96-1.61-1.55-1.17-3.35-2.19-5.18-3.1-1.14-.56-2.3-1.09-3.49-1.56-1.8-.72-3.63-1.4-5.49-1.88-1.45-.37-2.93-.5-4.39-.66-.32-.05-.64-.05-.95-.11-1.18-.2-1.48-.5-1.65-1.34-.04-.19-.09-.38-.11-.57-.05-.62.52-1.08,1.51-1.2,1.43-.1,2.88,0,4.29.28,1.42.25,2.83.64,4.22,1.07,2.07.65,4.09,1.46,6.1,2.33l-.03.08Z"/></svg>