<svg width="128" height="128" viewBox="0 0 128 128" fill="none" xmlns="http://www.w3.org/2000/svg">
<path d="M19.2002 90.3C19.3002 90.33 19.2002 90.25 19.2802 90.36C19.3102 90.42 19.3502 90.48 19.3902 90.54L19.4102 90.6C19.4102 90.6 19.4602 90.68 19.5002 90.72C19.5102 90.73 19.5602 90.77 19.5502 90.76C19.5302 90.74 19.5202 90.73 19.5002 90.72C19.4702 90.7 19.4302 90.68 19.4002 90.67H19.3802H19.3702C19.4202 90.69 18.9202 90.48 19.1302 90.57L19.1402 90.55C19.1702 90.54 19.1202 90.53 19.1802 90.55C19.6702 90.66 19.8302 90.53 19.6402 90.62C19.6202 90.63 19.5202 90.69 19.4702 90.73C19.4002 90.77 19.2602 90.92 19.3002 90.88C19.3002 90.87 19.2702 90.84 19.2202 90.8C19.0302 90.64 18.5402 90.44 18.0202 90.26L17.2202 89.99L15.9902 89.6C14.8202 89.23 13.6802 88.81 12.9002 88.27C12.7602 88.15 12.6202 88.03 12.5002 87.91C12.2202 87.6 12.0502 87.29 11.9402 86.94C11.8802 86.76 11.8802 86.46 11.9702 86.27C12.0402 86.07 12.1402 85.92 12.2502 85.77C12.7002 85.2 13.5302 84.64 14.7602 84.29C15.3502 84.11 15.9602 83.96 16.5602 83.83C17.2202 83.68 17.4902 83.64 17.8902 83.56L19.0202 83.36L19.8402 83.25C20.0002 83.22 20.1602 83.17 20.2802 83.05C20.3902 82.93 20.4202 82.75 20.3902 82.59C20.3202 82.26 19.9702 82.09 19.6902 82.01C19.6402 81.99 19.6002 81.98 19.5302 81.97L19.2602 81.88L18.6802 81.75C18.2902 81.68 17.8802 81.62 17.4802 81.57C16.6602 81.45 15.8402 81.47 15.0202 81.35C14.5402 81.3 14.5102 81.19 14.9302 80.83C15.3402 80.45 16.2102 80 17.2602 79.95C18.2002 79.92 19.1002 79.93 20.1702 80.16C21.9202 80.54 23.1602 81.89 22.8502 83.36C22.8302 84.11 22.3202 84.74 21.7002 85.11C21.3902 85.31 21.0102 85.44 20.6202 85.55C20.4402 85.61 20.1902 85.69 20.0702 85.71L19.7602 85.79C19.3402 85.88 18.9202 85.95 18.5002 86.03L17.8702 86.14C17.7002 86.17 17.7002 86.14 17.6202 86.14C17.3402 86.12 16.9602 86.19 16.6602 86.32C16.5902 86.36 16.5102 86.39 16.4602 86.45C16.3902 86.5 16.3902 86.61 16.4602 86.65C16.5902 86.75 16.7302 86.81 16.8702 86.88L17.0202 86.95C17.1802 87.03 17.3602 87.1 17.5502 87.17C17.6202 87.2 17.5902 87.19 17.7602 87.24L18.1802 87.38L19.0502 87.67C19.6302 87.89 20.2802 88.09 20.9902 88.64C21.3302 88.91 21.7102 89.33 21.8702 89.91C22.0402 90.49 21.9402 91.05 21.7802 91.46C21.7102 91.7 21.4802 92.03 21.3002 92.28C21.0702 92.49 20.7902 92.74 20.5402 92.84C20.2802 92.96 20.0002 93.06 19.7702 93.09C19.5202 93.14 19.2902 93.17 19.0802 93.17C18.6302 93.2 18.2402 93.17 17.8602 93.14C17.6202 93.12 17.5902 93.11 17.4902 93.1L17.2102 93.06C16.5502 92.98 15.7402 92.79 15.0102 93.07C14.7802 93.17 14.5002 93.34 14.5202 93.61C14.5602 93.87 14.7902 94.04 15.0102 94.19C15.4402 94.46 15.9902 94.63 16.4502 94.74C16.6802 94.79 16.9002 94.83 17.1002 94.86L17.3902 94.9L17.9602 95.02C18.3102 95.08 18.6502 95.14 19.0102 95.2C19.6602 95.32 20.0602 95.45 20.3302 95.67C20.6002 95.88 20.7302 96.13 20.8302 96.49C20.8702 96.65 20.9402 96.82 20.9702 96.98C21.0702 97.5 20.3902 97.92 19.2802 97.96C18.4802 97.92 17.6802 97.81 16.8802 97.65L16.5802 97.59L16.0702 97.45C15.7302 97.36 15.3802 97.24 15.0202 97.13C14.3202 96.9 13.6102 96.65 12.9702 96.35C12.3602 96.05 11.7802 95.72 11.3802 95.37C10.9702 95.02 10.6902 94.67 10.5002 94.32C10.3102 93.96 10.2002 93.61 10.2002 93.13C10.2002 92.89 10.2402 92.61 10.3102 92.36C10.3902 92.11 10.5202 91.92 10.6402 91.7C10.7102 91.56 10.8002 91.47 10.8802 91.36C11.1602 91.12 11.3602 90.93 11.6102 90.74C11.8802 90.58 12.1402 90.41 12.4902 90.29C12.7802 90.14 13.2202 90.08 13.6202 90C14.0502 89.94 14.5502 89.92 15.0602 89.92C15.6002 89.95 16.1202 89.94 16.6902 90.03L18.1002 90.2C18.5602 90.25 19.0502 90.27 19.1902 90.24L19.2102 90.31L19.2002 90.3Z" fill="#231F20"/>
<path d="M110.17 41.91L109.17 41.78L108.77 41.73L108.71 41.71C108.62 41.69 108.51 41.68 108.39 41.69C108.28 41.69 108.08 41.75 108.11 41.89C108.13 42 108.21 42.1 108.32 42.17C108.38 42.21 108.45 42.25 108.52 42.29C108.57 42.32 108.56 42.32 108.67 42.37L109.19 42.59C110.36 43.08 111.58 43.46 112.79 43.95C113.32 44.17 113.85 44.38 114.41 44.63C114.7 44.77 114.94 44.85 115.39 45.13C115.59 45.28 115.88 45.44 116.15 46.01C116.28 46.29 116.32 46.74 116.2 47.11C116.15 47.26 116.06 47.42 115.98 47.53C115.91 47.62 115.82 47.73 115.74 47.8C115.15 48.28 114.79 48.32 114.42 48.43C114.06 48.51 113.72 48.56 113.4 48.58C112.75 48.63 112.12 48.61 111.5 48.56C110.88 48.5 110.28 48.41 109.68 48.28L109.46 48.23L109.37 48.21L109.2 48.16L108.85 48.04C108.37 47.87 107.91 47.49 107.32 47.32C107.07 47.24 106.76 47.25 106.59 47.44C106.4 47.64 106.57 47.92 106.75 48.08C107.14 48.41 107.58 48.7 108.01 48.92C108.29 49.07 108.57 49.19 108.84 49.29L109.34 49.47C109.63 49.58 109.92 49.69 110.21 49.78C111.38 50.2 112.6 50.38 113.83 50.68C114.6 50.85 114.52 50.99 113.82 51.27C113.13 51.59 111.76 51.92 110.19 51.61C109.84 51.55 109.5 51.46 109.16 51.38C108.81 51.28 108.58 51.24 107.86 50.96C107.25 50.75 106.65 50.46 106.05 50.19C105.5 49.9 104.92 49.6 104.44 49.28L103.72 48.81L103.18 48.35C102.97 48.19 102.87 48.05 102.75 47.91C102.65 47.77 102.47 47.61 102.43 47.5C102.31 47.25 102.18 47.01 102.15 46.81C102.08 46.59 102.08 46.42 102.08 46.15C102.08 45.89 102.19 45.5 102.41 45.15C102.63 44.82 102.94 44.59 103.17 44.45C103.65 44.18 104.06 44.16 104.55 44.15C104.84 44.19 105.11 44.19 105.56 44.31C105.95 44.39 106.56 44.6 107.25 44.91C107.91 45.2 108.54 45.5 109.11 45.63L109.95 45.85L110.39 45.96C111.09 46.12 111.82 46.21 112.53 46.21C112.88 46.21 113.23 46.18 113.54 46.13C113.7 46.1 113.84 46.07 113.95 46.03C114 46.01 114.05 45.99 114.07 45.98C114.02 45.85 114.25 46.28 114.44 46.44C114.59 46.62 114.75 46.65 114.73 46.64C114.73 46.63 114.48 46.71 114.32 46.92C114.2 47.01 114.07 47.2 114.03 47.26C114.03 47.26 114.01 47.26 114 47.24L113.83 47.16C113.52 47.02 113.14 46.88 112.77 46.74C112.01 46.46 111.25 46.18 110.5 45.9L108.29 45.04L107.73 44.81C107.53 44.73 107.17 44.58 106.9 44.45C106.6 44.33 106.32 44.19 106.06 44.04C105.78 43.9 105.54 43.75 105.31 43.59C104.8 43.18 104.36 42.72 104.1 42.18C103.97 41.92 103.88 41.64 103.86 41.34C103.84 41.04 103.93 40.7 104.09 40.45C104.42 39.95 104.92 39.65 105.52 39.41C106.13 39.17 106.86 39.04 107.59 38.97C107.99 38.91 108.42 38.96 108.84 38.94L109.71 38.99L111.35 39.11C111.88 39.14 112.41 39.19 112.9 39.19C113.14 39.19 113.38 39.18 113.57 39.15C113.8 39.15 113.87 39 113.95 39.13C114.07 39.25 114.02 39.24 114.07 39.28C114.1 39.31 114.14 39.34 114.19 39.36C114.19 39.36 114.13 39.33 114.11 39.33C114.09 39.33 114.08 39.33 114.07 39.33H114.05C113.75 39.32 114.46 39.35 114.38 39.34C114.37 39.34 114.43 39.34 114.38 39.34C114.31 39.37 114.32 39.37 114.23 39.44C114.13 39.51 114.08 39.59 114 39.7C113.96 39.74 113.97 39.7 113.96 39.7C113.82 39.61 113.43 39.49 113.07 39.4C112.32 39.22 111.49 39.09 110.67 38.93C109.84 38.78 109 38.6 108.16 38.36C107.74 38.24 107.32 38.1 106.89 37.94C106.34 37.73 105.82 37.45 105.35 37.13C104.64 36.62 104.06 35.99 103.76 35.24C103.61 34.87 103.5 34.48 103.52 34.08C103.55 33.67 103.77 33.31 104.03 33.06C104.56 32.56 105.3 32.23 106.24 32.06C106.7 31.97 107.19 31.92 107.69 31.87L108.73 31.79C109.3 31.76 109.86 31.71 110.43 31.7C112.53 31.68 113.12 31.94 113.59 32.68C113.7 32.85 113.84 33.02 113.9 33.19C114.15 33.76 113.26 34.32 111.7 34.52C110.58 34.62 109.46 34.73 108.32 34.83C108.2 34.84 108.01 34.86 107.96 34.87L107.91 34.9C107.91 34.9 107.86 34.94 107.84 34.96C107.81 35 107.8 35.03 107.81 35.06C107.84 35.14 107.94 35.16 107.95 35.15H107.96C107.98 35.15 107.93 35.14 107.98 35.15C108.08 35.19 108.2 35.23 108.32 35.27C108.78 35.42 109.29 35.55 109.83 35.66C110.62 35.83 111.46 35.98 112.36 36.15C112.81 36.23 113.27 36.32 113.78 36.44C114.04 36.5 114.31 36.58 114.61 36.68C114.94 36.81 115.26 36.9 115.81 37.3C115.95 37.41 116.13 37.58 116.26 37.74C116.42 37.92 116.59 38.24 116.69 38.51C116.79 38.81 116.84 39.21 116.82 39.48C116.79 39.71 116.74 39.94 116.67 40.17C116.54 40.63 116.25 40.97 115.93 41.3C115.62 41.57 115.39 41.68 115.09 41.83C114.15 42.19 113.6 42.15 113.02 42.19C111.95 42.2 111.04 42.09 110.15 41.98V41.91H110.17Z" fill="#231F20"/>
<path d="M60.1699 63.39L59.7099 63.46L59.4799 63.5C59.3899 63.52 59.4299 63.5 59.3899 63.5C59.3199 63.5 59.2699 63.47 59.2199 63.5C59.1899 63.54 59.1699 63.59 59.1399 63.65C59.1399 63.65 59.1099 63.89 59.0899 64.01L59.0499 64.47C59.0099 64.92 59.0499 65.38 59.0099 65.84L58.8199 68.49C58.7699 68.81 58.7599 69.13 58.5599 69.36C58.4499 69.47 58.3299 69.55 58.2099 69.64C58.0699 69.71 57.9199 69.76 57.7699 69.82L57.2999 69.94C57.1299 69.98 56.9999 69.99 56.8999 70L56.2599 70.08C55.5199 70.13 54.7699 70.18 54.0399 70.23C53.5699 70.25 53.0999 70.3 52.6299 70.27C52.1599 70.24 51.6799 70.16 51.2099 70.06C50.9199 69.99 50.9699 69.89 51.2099 69.73C51.4599 69.58 51.8899 69.28 52.3999 69.11C53.3099 68.86 54.2299 68.71 55.1199 68.5C55.5699 68.39 56.0099 68.31 56.4499 68.27C56.7399 68.22 56.6899 68.26 56.7599 68.27C56.8099 68.27 56.8999 68.3 56.9499 68.27C56.9999 68.2 57.0199 68.19 57.0299 68C57.0299 67.72 57.0299 67.43 57.0099 67.14C56.9799 66.56 56.9399 65.96 56.9399 65.37V64.39L56.9699 63.89V63.64C56.9699 63.53 56.9999 63.39 57.0099 63.26C57.0399 62.73 57.1799 62.27 57.4499 61.89C57.7899 61.59 58.2999 61.46 58.7599 61.35L61.1399 60.86L62.0199 60.68L62.5699 60.58C62.7099 60.53 62.9999 60.56 62.9399 60.34C62.9399 60.17 62.9399 60 62.9199 59.83C62.9199 59.75 62.8699 59.43 62.8399 59.23L62.7099 58.55C62.6099 58.1 62.5099 57.65 62.4299 57.2C62.3899 57 62.3399 56.8 62.3199 56.6C62.2799 56.22 62.2999 55.97 62.4199 55.78C62.5599 55.6 62.7699 55.48 63.0899 55.39C63.2299 55.35 63.3699 55.3 63.5099 55.27C63.7399 55.23 63.9599 55.28 64.1599 55.41C64.3599 55.53 64.5699 55.73 64.6499 56C64.9199 56.79 65.1699 57.61 65.2699 58.46L65.3399 59.1L65.3699 59.43L65.3999 59.91C65.3999 60.33 65.4499 60.77 65.3599 61.15C65.2699 61.53 65.1199 61.83 64.9499 62.15C64.7399 62.29 64.5099 62.46 64.2699 62.61C63.9699 62.7 63.6899 62.83 63.3699 62.89C62.6099 63.07 62.4299 63.07 62.0799 63.14L60.1799 63.48L60.1599 63.42L60.1699 63.39Z" fill="#231F20"/>
<path d="M80.1098 49.53C77.4998 49.13 74.9298 48.25 72.6698 46.83C70.3998 45.42 68.6298 43.62 66.8598 42.07C66.2098 41.5 65.5598 40.96 64.8798 40.47C64.5498 40.21 64.1998 39.98 63.8598 39.75C63.4698 39.47 63.3098 39.37 62.9198 39.17C60.2498 37.85 57.2798 36.6 54.5298 34.95C53.8298 34.53 53.1498 34.09 52.4698 33.57C52.1298 33.3 51.8098 33.04 51.4698 32.69L51.2098 32.42L50.9298 32.06C50.7198 31.83 50.5998 31.55 50.4398 31.3C50.1998 30.76 50.0898 30.17 50.2198 29.6C50.3498 29.03 50.6798 28.53 51.1298 28.15C51.5498 27.74 52.1298 27.49 52.6598 27.32C53.1898 27.17 53.6398 27.13 54.0998 27.12C55.6998 27.11 57.0898 27.46 58.4698 27.78C59.8398 28.12 61.1698 28.5 62.4898 28.85C64.1798 29.32 65.8798 29.67 67.5298 30.08C68.3598 30.27 69.1898 30.43 70.0198 30.56C70.8498 30.66 71.6698 30.92 72.5298 30.99C73.5898 31.1 73.5198 31.19 72.6298 31.72C72.1798 31.96 71.5098 32.35 70.6498 32.65C69.7898 32.91 68.7598 33 67.6898 32.91C65.7798 32.78 63.9698 32.34 62.2198 31.87C60.4698 31.42 58.7498 30.91 57.0998 30.54C56.2798 30.36 55.4698 30.21 54.7498 30.15C54.0498 30.06 53.3298 30.15 53.4098 30.15C53.2998 30.17 53.1698 30.3 53.2198 30.46C53.2298 30.5 53.2398 30.54 53.2698 30.57C53.2698 30.57 53.3098 30.63 53.3698 30.69C53.4198 30.74 53.4598 30.8 53.5198 30.86C53.7798 31.11 54.0698 31.38 54.3998 31.63C55.9598 32.84 57.9398 33.81 59.9198 34.72L62.9698 36.06C63.4898 36.29 63.9998 36.52 64.5598 36.81C65.2298 37.16 65.5998 37.49 66.0998 37.82C68.1598 39.32 69.9398 41.09 71.7298 42.61C72.6298 43.37 73.5498 44.06 74.5198 44.64C75.4998 45.21 76.5398 45.66 77.6198 46.03C78.9698 46.45 80.3698 46.75 81.7498 46.82C83.1598 46.89 84.6098 46.78 86.0698 46.61C88.2898 46.35 90.5498 45.98 92.8798 45.81C94.0498 45.73 95.2298 45.71 96.4298 45.82C97.6498 45.94 98.7298 46.17 99.8698 46.38C103.36 47.08 106.74 47.92 110.09 48.98C110.83 49.21 111.55 49.42 112.28 49.69C113.63 50.18 114.5 50.56 115.06 50.96C115.61 51.37 115.85 51.78 115.99 52.24C116.05 52.45 116.16 52.66 116.18 52.83C116.21 53.12 115.91 53.24 115.34 53.29C114.76 53.34 113.93 53.25 112.94 52.93C109.99 52.05 107 51.12 103.96 50.31C102.44 49.91 100.91 49.54 99.3698 49.22C98.5998 49.06 97.8298 48.92 97.0598 48.8C96.6598 48.73 96.3598 48.72 95.9998 48.67C95.6398 48.65 95.2898 48.63 94.9198 48.63C92.7398 48.63 90.3798 48.99 87.9398 49.31C85.4898 49.62 82.9198 49.96 80.1298 49.6V49.53H80.1098Z" fill="#231F20"/>
<path d="M78.9902 24.9C76.9402 23.33 74.9102 21.77 72.8302 20.33C71.7902 19.61 70.7502 18.92 69.6802 18.29C69.4202 18.14 69.1302 17.96 68.8902 17.84C68.6602 17.72 68.4102 17.6 68.1402 17.49C67.6202 17.27 67.0402 17.09 66.4502 16.92C64.7302 16.45 62.9002 16.19 61.0802 15.94C57.8602 15.5 54.5802 15.29 51.3202 15.32C49.6902 15.34 48.0602 15.43 46.4802 15.66C45.7002 15.78 44.9102 15.93 44.2202 16.18C44.0302 16.26 43.9202 16.3 43.8502 16.33C43.7702 16.37 43.6802 16.41 43.6102 16.48C43.4602 16.59 43.3402 16.78 43.3902 16.98C43.4302 17.15 43.5502 17.29 43.6802 17.4C43.7602 17.46 43.7902 17.49 43.9202 17.57C44.0502 17.65 44.1802 17.74 44.3302 17.81C44.9202 18.11 45.5802 18.35 46.2602 18.56C47.6202 18.97 49.0502 19.26 50.4702 19.53C52.3202 19.84 54.1702 20.15 56.0202 20.46C57.8802 20.78 59.7602 21.18 61.5302 22.09C62.0402 22.48 62.2202 22.71 62.1802 22.74C62.1302 22.8 61.8502 22.69 61.3202 22.73C60.7902 22.78 60.0902 22.76 59.2302 22.8C58.8002 22.8 58.3402 22.84 57.8502 22.82C57.3702 22.78 56.8602 22.73 56.3302 22.65L50.6402 21.79C48.7202 21.47 46.8002 21.13 44.8102 20.48C44.3102 20.3 43.8102 20.12 43.2902 19.86C43.0202 19.73 42.8102 19.6 42.4602 19.39L41.9202 18.95C41.7502 18.8 41.6202 18.61 41.4702 18.45C40.9802 17.74 40.7402 16.84 41.0702 16.04C41.3702 15.25 42.1602 14.72 42.9502 14.34C43.3302 14.2 43.5302 14.11 43.8102 14.03C44.0702 13.95 44.3402 13.87 44.5902 13.81C45.1102 13.68 45.6102 13.6 46.1202 13.52C47.1302 13.37 48.1202 13.29 49.1202 13.24C53.8602 13.05 58.7202 13.1 63.5202 13.8C64.8402 14.01 66.1502 14.26 67.4702 14.63C68.1302 14.81 68.7902 15.04 69.4502 15.31C70.1502 15.62 70.7002 15.95 71.2902 16.28C73.6102 17.62 75.7502 19.17 77.8402 20.73C80.4202 22.66 82.9202 24.65 85.5302 26.43C89.3502 29.1 94.1602 30.13 98.8602 30.6C102.54 30.95 106.19 30.82 109.87 30.71C110.68 30.68 111.48 30.64 112.29 30.61C115.33 30.5 116.32 30.85 116.97 31.46C117.12 31.61 117.31 31.75 117.4 31.9C117.68 32.38 116.45 32.8 114.23 33.09C110.93 33.36 107.51 33.54 104.01 33.49C100.51 33.44 96.9202 33.17 93.3302 32.43C90.6702 31.87 87.9802 31.04 85.4802 29.58C84.8302 29.22 84.2702 28.84 83.7202 28.47L82.0902 27.32L78.9202 24.98L78.9502 24.92L78.9902 24.9Z" fill="#231F20"/>
<path d="M105.14 40.2C104.97 41.41 104.76 42.63 104.35 43.82C104.23 44.25 104.13 44.7 103.96 45.13C103.32 46.61 102.5 48.02 101.44 49.19C100.95 49.69 100.55 50.26 100.06 50.73C99.4602 51.36 98.8702 52.04 97.9702 52.29C97.7002 52.38 97.5802 52.14 97.5302 51.73C97.5102 51.52 97.5002 51.27 97.5202 51C97.5202 50.72 97.5902 50.48 97.7502 50.33C98.8102 49.13 99.6102 47.89 100.55 46.64C100.84 46.27 101.05 45.84 101.19 45.37C101.37 44.92 101.45 44.44 101.59 43.98C101.88 42.95 102.08 41.89 102.24 40.79C102.34 40.12 102.4 39.43 102.44 38.74C102.48 37.69 102.52 36.62 102.42 35.57C102.35 34.75 102.03 33.96 101.92 33.15C101.89 32.97 101.84 32.8 101.83 32.62C101.76 31.95 102.05 31.71 102.66 31.52C102.8 31.48 102.94 31.42 103.09 31.39C103.56 31.29 104.01 31.53 104.31 32.01C105.09 33.41 105.26 34.97 105.32 36.57C105.37 37.76 105.31 38.98 105.22 40.2H105.15H105.14Z" fill="#231F20"/>
<path d="M48.85 78.29C51.47 78.09 54.45 78.6 56.83 80.17C59.13 81.75 60.73 83.61 62.44 85.31C63.05 85.93 63.68 86.53 64.3 87.03C64.92 87.53 65.65 88.05 66.35 88.58C68.51 90.21 70.74 91.87 72.79 93.8C73.81 94.78 74.82 95.81 75.64 97.1C76.04 97.75 76.42 98.47 76.58 99.35C76.76 100.22 76.6 101.29 76.03 102.07C75.67 102.59 75.12 102.95 74.52 103.13C73.89 103.28 73.4 103.25 72.92 103.19C71.32 102.92 70.03 102.3 68.74 101.7C67.46 101.08 66.23 100.42 65.02 99.77C63.46 98.94 61.9 98.12 60.34 97.37L59.17 96.82C58.79 96.63 58.4 96.43 58.01 96.26C57.23 95.92 56.45 95.59 55.66 95.35C54.67 95.1 54.72 94.96 55.72 94.65C56.7 94.35 58.75 94.22 60.73 95C63.39 96.13 65.84 97.48 68.28 98.7C69.5 99.31 70.71 99.89 71.87 100.31C72.45 100.52 73.02 100.66 73.44 100.69H73.7C73.77 100.66 73.76 100.69 73.78 100.69C73.83 100.69 73.84 100.65 73.9 100.65C74.05 100.4 74.14 100.16 73.99 99.61C73.86 99.09 73.47 98.46 73.04 97.86C71.9 96.27 70.21 94.85 68.49 93.51C66.75 92.16 64.92 90.94 63.1 89.53C61.03 87.87 59.48 86 57.73 84.37C56.87 83.56 55.99 82.78 55.06 82.25C54.12 81.7 53.08 81.35 51.99 81.14C49.27 80.69 46.34 81.31 43.43 81.97C41.21 82.47 38.95 83.03 36.59 83.26C34.22 83.47 31.88 83.34 29.59 83.09C26.03 82.69 22.59 82.13 19.15 81.45C18.4 81.3 17.65 81.17 16.9 81C14.1 80.39 13.3 79.88 12.85 79.07C12.75 78.88 12.61 78.68 12.56 78.51C12.41 77.93 13.66 77.73 15.76 78C18.85 78.49 21.96 79.14 25.09 79.67C28.22 80.2 31.39 80.65 34.45 80.61C38.9 80.63 43.46 78.67 48.81 78.23V78.3L48.85 78.29Z" fill="#231F20"/>
<path d="M48.9202 100.7C53.4202 103.39 57.1502 106.78 61.2802 109.33C62.0302 109.81 62.8002 110.21 63.5802 110.59L64.7502 111.12C65.1102 111.27 65.4902 111.4 65.8902 111.52C68.7402 112.35 71.9402 112.6 75.0602 112.55C78.1702 112.47 81.3702 112.13 84.1402 110.99C84.6602 110.76 85.1702 110.5 85.5802 110.17L85.7402 110.06L85.8202 109.98C85.8802 109.93 85.9402 109.88 85.9802 109.82C86.0802 109.71 86.1702 109.58 86.2402 109.45C86.3202 109.29 86.4102 109.05 86.2102 108.92C86.0502 108.8 85.8602 108.74 85.6802 108.69L85.4002 108.63L84.8802 108.53C84.5002 108.46 84.1202 108.41 83.7302 108.36C80.2002 107.88 76.4402 108.24 72.8602 106.48C72.3202 106.12 72.1902 105.79 72.2502 105.78C72.3102 105.74 72.5702 105.93 73.0702 105.92C74.0702 105.89 75.7902 105.51 77.8702 105.46C79.6702 105.53 81.5002 105.62 83.3702 105.78C83.8402 105.82 84.3102 105.87 84.8002 105.93L85.5302 106.04L85.9402 106.12C86.1502 106.16 86.3802 106.21 86.6002 106.27C87.4902 106.48 88.2702 106.88 88.7202 107.45C88.9402 107.74 89.1202 108.08 89.1902 108.46C89.2702 108.83 89.1602 109.2 89.1202 109.57C88.8002 110.33 88.3702 111.12 87.6602 111.72C87.3002 112.1 87.1202 112.19 86.8602 112.38C86.6202 112.55 86.3702 112.68 86.1202 112.84C85.1302 113.39 84.1402 113.74 83.1502 114.02C81.1702 114.57 79.1802 114.82 77.2102 114.91C74.8902 115.02 72.5402 115.02 70.1602 114.82C68.9702 114.72 67.7802 114.58 66.5902 114.34C65.9902 114.22 65.4002 114.07 64.8002 113.88C64.2002 113.7 63.5802 113.44 63.0602 113.18C58.2602 110.89 54.4402 107.47 50.3302 104.68C47.8202 102.95 45.1802 101.41 42.3402 100.6C41.7902 100.48 41.2602 100.35 40.7002 100.24L38.9802 99.96C37.8302 99.79 36.6702 99.65 35.5102 99.53C33.1902 99.3 30.8602 99.17 28.5502 99.15C26.7502 99.13 24.9702 99.22 23.2002 99.36C21.4302 99.47 19.6702 99.67 17.9102 99.87C17.1402 99.98 16.3802 100.08 15.6002 100.19C12.7102 100.54 11.7702 100.51 11.0402 100.01C10.8702 99.9 10.6602 99.8 10.5602 99.69C10.2102 99.35 11.3102 98.65 13.4502 98.12C16.6202 97.35 19.9602 96.9 23.3502 96.63C26.7502 96.42 30.2102 96.47 33.6602 96.7C36.2302 96.89 38.7902 97.19 41.3502 97.64C44.1402 98.15 46.6602 99.3 48.9502 100.62L48.9202 100.68V100.7Z" fill="#231F20"/>
<path d="M19.9198 90.01C20.1598 88.66 20.4898 87.34 20.8798 86.04C21.0098 85.56 21.0898 85.08 21.2598 84.62C21.8498 82.99 22.5698 81.42 23.3698 79.91C23.6998 79.23 24.0398 78.55 24.3398 77.86C24.7498 76.99 25.0998 76.05 26.0598 75.52C26.3498 75.35 26.5698 75.55 26.8098 76C26.9298 76.22 27.0698 76.52 27.1998 76.84C27.2998 77.14 27.3098 77.43 27.2298 77.67C27.1098 78.12 26.8998 78.53 26.6798 78.92L26.0598 80.13C25.6498 80.94 25.1998 81.75 24.7498 82.57C24.1798 83.55 23.9798 84.7 23.6698 85.79C23.4898 86.39 23.3598 87 23.1998 87.61C23.0798 88.22 22.9298 88.84 22.8398 89.45C22.7198 90.21 22.6098 90.98 22.5698 91.75C22.4798 92.91 22.4498 94.1 22.5998 95.25C22.7498 96.14 23.0798 96.97 23.4198 97.78C23.4898 97.96 23.5798 98.13 23.6498 98.31C23.8498 98.99 23.7098 99.27 23.0798 99.65C22.9398 99.74 22.7998 99.84 22.6498 99.91C22.1598 100.16 21.6198 100.02 21.2398 99.51C20.1598 97.98 19.7698 96.06 19.6698 94.19C19.5898 92.79 19.6698 91.39 19.8698 90.02H19.9398L19.9198 90.01Z" fill="#231F20"/>
<path d="M64.3599 57.13V56.97V56.94V56.89C64.3599 56.89 64.3599 56.84 64.3599 56.81C64.3299 56.75 64.2699 56.75 64.2099 56.73H64.1799H64.0099H63.6499L62.9099 56.78C62.3999 56.82 61.8899 56.88 61.3599 56.94L59.3199 57.18C58.8399 57.23 58.3599 57.25 57.9499 57.18C57.7399 57.15 57.5799 57.05 57.4299 56.97L57.1899 56.83C57.1899 56.83 57.1099 56.76 57.0499 56.76L56.9599 56.65C56.8699 56.48 56.8199 56.31 56.7399 56.13C56.6799 55.94 56.5699 55.79 56.5699 55.54C56.5499 55.31 56.5099 55.09 56.5099 54.85V54.12L56.6199 52.32C56.6499 51.8 56.6499 51.27 56.6499 50.76C56.6499 50.23 56.6099 49.72 56.5599 49.24L56.5099 48.96C56.5099 48.96 56.4899 48.9 56.4799 48.86C56.4599 48.8 56.4299 48.74 56.3899 48.69C56.3099 48.67 56.2399 48.67 56.1599 48.66L55.3299 48.58C54.2199 48.52 53.0899 48.56 51.9899 48.58C51.7199 48.59 51.4399 48.6 51.1699 48.62L50.4499 48.68C50.3599 48.68 50.2699 48.69 50.1699 48.71C50.1199 48.71 50.0699 48.73 50.0299 48.72C49.9799 48.74 49.9699 48.79 49.9599 48.83C49.9399 48.92 49.9299 49.01 49.9199 49.11L49.8999 49.64C49.9199 50.19 49.9599 50.76 49.9999 51.33L50.1399 53.07L50.1999 53.96C50.2299 54.36 50.2399 54.86 50.2299 55.29C50.2099 55.58 50.1399 55.83 50.0499 56.06C49.9299 56.3 49.6899 56.48 49.4599 56.59C48.9799 56.83 48.3699 56.89 47.7799 56.91L47.0799 56.93H46.4799C46.0799 56.92 45.6899 56.91 45.3099 56.88L43.2599 56.74L42.6299 56.71C42.4699 56.71 42.2999 56.69 42.1399 56.74C42.0799 56.88 42.0899 57.06 42.0699 57.22V57.48L42.0499 57.84C42.0399 58.49 42.0499 59.15 42.0899 59.79L42.1599 60.53L42.1999 60.9C42.2199 61.02 42.2299 61.16 42.2399 61.19C42.2999 61.4 42.2999 61.67 42.4899 61.78C42.6199 61.78 42.7499 61.76 42.8799 61.75L43.0699 61.73L43.5299 61.7C44.1499 61.67 44.7899 61.64 45.4199 61.68C46.6799 61.76 47.9499 61.96 49.1699 62.36C50.2299 62.84 50.0099 62.98 49.0299 63.32C48.0399 63.63 46.3999 64.29 44.5299 64.45L43.2099 64.54C42.7599 64.57 42.2999 64.62 41.8599 64.61C41.4199 64.58 41.0699 64.44 40.7199 64.32C40.2999 63.92 39.9099 63.53 39.7399 62.9C39.6499 62.59 39.5599 62.29 39.5199 61.96C39.4899 61.81 39.4699 61.62 39.4399 61.49L39.3999 61.21C39.3099 60.48 39.2599 59.77 39.2399 59.06C39.2299 58.7 39.2299 58.35 39.2399 57.99C39.2399 57.79 39.2399 57.68 39.2699 57.4L39.3399 56.47L39.4799 55.54C39.4899 55.47 39.4999 55.38 39.5199 55.31L39.6199 55.15L39.8199 54.82L39.9199 54.66L39.9699 54.58C39.9699 54.58 40.1099 54.71 40.0499 54.64L40.0599 54.61L40.0899 54.56C40.1699 54.44 40.2299 54.33 40.3499 54.28C40.5699 54.15 40.8299 54.07 41.1199 54.02C41.6999 53.93 42.4199 54 42.9999 54.03L44.0899 54.13L46.0399 54.32L46.9799 54.42L47.4299 54.46H47.4999C47.5799 54.5 47.7599 54.5 47.7399 54.37L47.7599 54.25C47.7599 54.25 47.7599 54.13 47.7599 54.02L47.7399 53.69L47.6499 52.34C47.5599 51.16 47.4699 49.98 47.3799 48.79C47.3799 48.33 47.4199 47.88 47.5499 47.48C47.6099 47.28 47.6999 47.1 47.8199 46.93C47.8799 46.85 47.9599 46.76 48.0299 46.71C48.1099 46.65 48.1399 46.65 48.2599 46.6L48.8699 46.38L49.5399 46.25C49.7599 46.2 49.9999 46.17 50.1999 46.15L50.6399 46.11C51.8099 46.03 52.9399 45.99 54.0699 46.07C54.6299 46.1 55.1899 46.17 55.7599 46.19C56.1599 46.23 57.3199 46.23 58.0099 46.64L58.0999 46.74C58.2699 46.92 58.3999 47.11 58.5099 47.32C58.6499 47.51 58.6999 47.76 58.7799 47.99C58.8599 48.21 58.9199 48.49 58.9399 48.66C58.9699 48.83 58.9999 49.01 59.0099 49.17C59.0899 49.83 59.0999 50.45 59.1199 51.08V52.93V53.76L59.0999 54.11C59.0999 54.23 59.0899 54.35 59.1099 54.47C59.1899 54.55 59.3299 54.51 59.4399 54.51L59.7999 54.48L60.5399 54.39L62.3699 54.19L63.3099 54.12L63.7899 54.1H64.3599C65.1999 54.13 66.0799 54.24 66.5699 54.87C66.7399 55.26 66.8699 55.68 66.9199 56.13L66.9899 56.78L67.0199 57.25C67.0499 57.88 67.0799 58.5 67.0799 59.12C67.0799 60.37 67.0599 61.61 66.7999 62.93C66.7099 63.4 66.5299 63.98 66.2299 64.39C66.0699 64.59 65.9199 64.84 65.6699 64.94C65.4399 65.06 65.1799 65.12 64.9099 65.17C64.6599 65.21 64.3299 65.24 64.1399 65.26L63.5599 65.29L62.4199 65.31L60.4899 65.29C60.2799 65.29 60.0699 65.29 59.8599 65.3C59.8099 65.31 59.7399 65.3 59.7199 65.35V65.5C59.7199 65.6 59.7199 65.71 59.7199 65.81C59.7299 66.03 59.7599 66.25 59.7799 66.46L59.9099 67.61C59.9799 68.43 60.0299 69.18 59.9099 70.13C59.8699 70.42 59.8099 70.71 59.7499 70.99C59.6099 72.23 57.8599 72.41 57.1399 72.54C56.2799 72.66 55.4499 72.7 54.6099 72.72C53.7799 72.74 52.9599 72.74 52.1299 72.72L50.8899 72.67C50.3199 72.62 49.5899 72.58 49.0399 72.4C48.7799 72.3 48.5699 72.18 48.3299 72.04C48.1899 71.8 48.1099 71.57 47.9999 71.33C47.8299 70.8 47.8399 70.15 47.8299 69.54C47.8499 66.61 48.0599 65.81 48.8499 65.19C49.0199 65.05 49.1799 64.87 49.3299 64.79C49.8099 64.49 50.4699 65.71 50.5699 67.77C50.6099 68.32 50.6499 68.87 50.6899 69.42C50.7299 69.67 50.7599 69.69 50.8099 69.79C50.9099 69.83 51.0399 69.78 51.1099 69.77C51.6199 69.79 52.1299 69.8 52.6399 69.82C53.7399 69.84 54.8599 69.85 55.9199 69.79L56.6999 69.73L57.0599 69.7L57.2299 69.68C57.2299 69.68 57.2499 69.68 57.2599 69.68C57.2799 69.68 57.2599 69.65 57.2799 69.65C57.2499 69.64 57.2799 69.63 57.2599 69.65L57.2899 69.24C57.2899 68.9 57.2899 68.54 57.2499 68.16L57.1199 66.94L56.9799 65.76C56.9499 65.33 56.9199 64.9 56.9299 64.49L56.9499 64.23C57.0399 64.02 57.0699 63.73 57.1999 63.58L57.3899 63.33V63.31H57.4099C57.4799 63.37 57.2599 63.17 57.5599 63.44L57.5799 63.4L57.6199 63.33L57.6999 63.19C57.7599 63.11 57.7999 62.99 57.8799 62.92C57.9799 62.86 58.0799 62.81 58.1999 62.77C58.4299 62.68 58.7099 62.64 58.9899 62.61C59.5699 62.57 60.1799 62.57 60.7799 62.56H61.6999C62.7899 62.56 64.4699 62.49 64.0099 62.51C64.0099 62.51 64.0199 62.51 64.0299 62.5C64.0299 62.5 64.0299 62.5 64.0299 62.48L64.0899 62.18C64.1699 61.69 64.2299 61.15 64.2499 60.59C64.3099 59.48 64.2899 58.31 64.2099 57.18H64.2799L64.3599 57.13Z" fill="#231F20"/>
<path d="M20.24 49.33C20.1 49.44 19.98 49.2 19.87 48.78C19.84 48.65 19.84 48.25 19.88 48.18C19.96 48.06 20.04 47.94 20.12 47.86C20.17 47.82 20.95 47.48 21.22 47.36C21.48 47.25 21.74 47.22 22 47.21L23.58 47.09C23.7 47.09 23.81 47.1 23.93 47.14C24.33 47.29 24.73 47.28 25.13 47.22C25.2 47.21 25.26 47.22 25.33 47.13C25.44 46.98 26.52 46.93 26.66 46.99C27.01 47.14 27.36 47.26 27.71 47.39C27.76 47.41 27.81 47.37 27.86 47.48C27.97 47.73 28.07 47.69 28.18 47.71C28.33 47.74 28.48 47.77 28.63 47.86C28.7 47.9 28.78 48.04 28.85 48.16C28.92 48.26 28.88 48.64 28.85 48.68C28.78 48.8 28.84 48.98 28.85 49.13C28.85 49.18 28.85 49.25 28.85 49.29C28.85 49.39 27.98 50.04 27.89 50.03C27.87 50.03 26.65 50.23 26.47 50.26C26.4 50.28 26.32 50.22 26.25 50.18C26.21 50.16 25.21 50.33 25.17 50.32C24.96 50.29 24.75 50.37 24.55 50.15C24.51 50.11 24.47 50.12 24.43 50.12C24.07 50.14 23.71 50.05 23.36 49.99C23.18 49.96 22.99 49.99 22.81 49.97C22.78 49.97 22.74 49.94 22.71 49.92C22.67 49.9 22.63 49.87 22.59 49.87C22.16 49.87 21.72 49.76 21.29 49.83C21.19 49.86 20.71 49.56 20.6 49.58C20.54 49.58 20.32 49.26 20.27 49.31L20.24 49.33Z" fill="#231F20"/>
<path d="M34.7401 44.6C34.8901 44.69 34.7301 44.9 34.4201 45.17C34.3201 45.26 33.9801 45.41 33.9101 45.4C33.7701 45.37 33.6301 45.34 33.5201 45.29C33.4601 45.26 32.7901 44.6 32.5401 44.38C32.2801 44.17 32.1401 43.91 32.0301 43.64C31.8001 43.09 31.5501 42.54 31.3501 41.97C31.3101 41.84 31.2901 41.71 31.3001 41.57C31.3401 41.09 31.2301 40.65 31.0701 40.22C31.0401 40.15 31.0401 40.07 30.9301 40.01C30.7401 39.92 30.4701 38.69 30.5501 38.52C30.6901 38.1 30.7701 37.69 30.8901 37.29C30.9101 37.23 30.8701 37.17 30.9801 37.12C31.2501 36.99 31.2001 36.87 31.2101 36.75C31.2301 36.58 31.2701 36.41 31.3601 36.25C31.4001 36.17 31.5601 36.09 31.6901 36.01C31.8001 35.94 32.2201 35.98 32.2701 36.01C32.4001 36.08 32.6001 36.02 32.7701 36.01C32.8301 36.01 32.9101 36.01 32.9501 36.01C33.0501 36.03 33.7801 36.87 33.7801 36.96C33.7701 36.99 34.0701 38.2 34.1501 38.33C34.1901 38.4 34.1301 38.48 34.1001 38.56C34.0801 38.6 34.4001 39.54 34.4001 39.58C34.4001 39.79 34.5201 39.97 34.3301 40.22C34.2901 40.27 34.3101 40.31 34.3301 40.35C34.4201 40.69 34.4101 41.06 34.4301 41.42C34.4401 41.61 34.5201 41.77 34.5601 41.95C34.5601 41.98 34.5401 42.02 34.5401 42.06C34.5401 42.11 34.5201 42.15 34.5401 42.19C34.6601 42.61 34.7301 43.04 34.8801 43.45C34.9101 43.54 34.8201 44.1 34.8801 44.2C34.9001 44.26 34.7101 44.58 34.7701 44.62L34.7401 44.6Z" fill="#231F20"/>
</svg>
