<svg width="128" height="128" viewBox="0 0 128 128" fill="none" xmlns="http://www.w3.org/2000/svg">
<path d="M46.6498 40.76C46.6498 40.76 43.5198 42.18 43.6698 42.88C44.0898 44.76 46.6498 48.29 50.8198 48.06C53.9898 47.88 49.4598 49.21 48.0898 49.13C46.7198 49.05 42.1898 46.25 40.7598 41.77L46.1298 40.04L46.6398 40.77L46.6498 40.76Z" fill="#231F20"/>
<path d="M44.1398 39.51C44.6898 39.39 45.2398 39.24 45.7998 39.09C45.9998 39.04 46.1898 38.93 46.3898 38.88C47.1198 38.7 47.8698 38.52 48.5998 38.31C48.9198 38.21 49.2498 38.11 49.5598 37.99C49.7598 37.92 49.9598 37.82 50.1698 37.78C50.3898 37.75 50.6198 37.76 50.8498 37.78C50.9998 37.8 51.0198 37.92 50.9798 38.14C50.9398 38.35 50.8498 38.71 50.6798 38.92C49.9898 39.48 49.2498 39.86 48.3698 40.02C47.8498 40.13 47.3898 40.44 46.8998 40.65C46.3498 40.88 45.7798 41.06 45.1998 41.23C44.8398 41.33 44.4798 41.43 44.1298 41.54C43.5898 41.69 43.0398 41.81 42.5098 41.98C42.0998 42.1 41.7098 42.3 41.2998 42.45C41.2098 42.48 41.1198 42.53 41.0298 42.55C40.6598 42.53 40.5198 42.4 40.3798 42.04C40.3498 41.96 40.3098 41.88 40.2898 41.8C40.2098 41.54 40.2998 41.27 40.4998 41.02C40.6398 40.82 40.8098 40.72 40.9698 40.61C41.1298 40.5 41.2998 40.4 41.4698 40.32C41.7998 40.13 42.1398 39.98 42.5098 39.9C43.0398 39.75 43.5898 39.63 44.1298 39.46L44.1498 39.51H44.1398Z" fill="#231F20"/>
<path d="M57.93 34.68C57.82 34.35 57.69 34.02 57.56 33.69C57.51 33.57 57.42 33.47 57.38 33.35C57.21 32.92 57.14 32.43 57.02 31.98C56.98 31.78 56.88 31.6 56.83 31.41C56.76 31.16 56.71 30.91 56.73 30.63C56.73 30.54 56.83 30.52 56.97 30.54C57.1 30.56 57.33 30.6 57.45 30.69C57.93 31.02 58.13 31.42 58.29 31.88C58.38 32.16 58.61 32.37 58.76 32.63C58.92 32.92 59.09 33.22 59.26 33.51C59.37 33.7 59.47 33.88 59.57 34.06C59.74 34.34 59.88 34.64 60.06 34.91C60.2 35.12 60.46 35.25 60.58 35.48C60.61 35.53 60.65 35.57 60.67 35.62C60.71 35.72 60.71 35.79 60.65 35.88C60.57 35.97 60.47 36.06 60.33 36.16L60.14 36.29C60.04 36.35 59.93 36.39 59.81 36.42C59.69 36.45 59.52 36.47 59.45 36.43C59.2 36.33 58.88 36.27 58.74 36.11C58.58 35.96 58.45 35.79 58.32 35.61C58.15 35.34 58.05 35.01 57.9 34.71L57.94 34.69L57.93 34.68Z" fill="#231F20"/>
<path d="M60.1699 33.82C60.2199 33.55 60.2699 33.29 60.2999 33.02C60.3099 32.92 60.2799 32.83 60.2999 32.73C60.3399 32.38 60.3899 32.01 60.4299 31.67C60.4499 31.51 60.4299 31.36 60.4299 31.2C60.4299 31.1 60.3899 31.01 60.4099 30.9C60.4299 30.8 60.4699 30.69 60.5199 30.58C60.5499 30.51 60.6299 30.51 60.7599 30.54C60.8799 30.58 61.0999 30.64 61.2099 30.74C61.3599 30.92 61.3999 31.12 61.4599 31.32C61.5199 31.52 61.5499 31.72 61.4999 31.93C61.4499 32.18 61.5499 32.43 61.5799 32.68C61.5999 32.96 61.5999 33.24 61.6099 33.52C61.6099 33.69 61.5899 33.87 61.5799 34.04C61.5699 34.3 61.5299 34.56 61.5599 34.82C61.5899 35.02 61.6699 35.21 61.6799 35.41C61.6799 35.45 61.6999 35.5 61.6899 35.54C61.6899 35.7 61.5499 35.75 61.2999 35.79L61.1299 35.81C60.9399 35.83 60.7599 35.76 60.6399 35.65C60.4999 35.48 60.3699 35.31 60.2699 35.13C60.2199 34.96 60.1999 34.78 60.1799 34.6C60.1599 34.34 60.1599 34.08 60.1499 33.81H60.1899L60.1699 33.82Z" fill="#231F20"/>
<path d="M49.8299 23.06C50.0799 20.73 51.0399 18.55 52.3199 16.71C52.7799 16.03 53.2599 15.37 53.7899 14.76C54.3099 14.25 54.7399 13.76 55.3499 13.25C55.7799 12.85 56.2099 12.48 56.6199 12.17L57.8199 11.34L58.4099 10.93C58.5199 10.84 58.5699 10.86 58.6299 10.84L58.8199 10.8C59.0699 10.74 59.3299 10.68 59.5899 10.61C59.7199 10.61 59.8399 10.47 59.9699 10.61C60.0499 10.78 60.0599 10.86 60.0799 10.98C60.0999 11.23 60.1599 11.42 60.0499 11.82C59.9799 12.4 59.7299 13.23 59.4799 14.06C59.2499 14.87 58.9099 15.9 58.8099 16.33C58.5899 17.05 58.4099 17.77 58.2699 18.48C58.0999 19.2 58.0599 19.83 57.7899 20.49C57.7099 20.92 57.8099 20.95 57.3399 20.67C56.8199 20.41 56.0399 19.37 56.2299 18.4C56.3199 17.53 56.4899 16.73 56.6899 15.93C56.7399 15.73 56.7999 15.54 56.8599 15.35L56.9399 15.11V15.09L56.9999 15.04C57.0399 14.99 57.1199 14.9 57.2299 14.7C57.3899 14.41 57.2999 14.42 57.2299 14.36C57.1199 14.33 56.8399 14.53 56.6399 14.72C56.0099 15.31 55.3599 16.03 54.7899 16.73C53.4999 18.26 52.5099 20.04 52.0399 21.97C51.7499 23.15 51.6599 24.39 51.7899 25.62C51.9799 27.48 52.5999 29.33 53.5599 30.97C54.2999 32.25 55.2599 33.36 56.2799 34.39C56.4999 34.62 56.7399 34.82 56.9699 35.05C57.8399 35.87 57.9999 36.23 57.9199 36.74C57.8999 36.86 57.8999 36.99 57.8699 37.09C57.7699 37.43 57.1599 37.35 56.3499 36.82C54.0799 35.14 52.0799 32.78 50.8699 29.92C49.9699 27.81 49.5299 25.41 49.7899 23.06H49.8399H49.8299Z" fill="#231F20"/>
<path d="M63.7899 27.66L63.8199 26.93L63.7199 26.22L63.6699 25.86L63.5499 25.51C63.4699 25.27 63.4099 25.03 63.3099 24.8C63.1299 24.46 62.9399 24.14 62.7399 23.8C62.0799 22.57 61.1799 21.31 60.4899 19.82C60.3499 19.48 60.1999 19.15 60.0499 18.82C59.9399 18.46 59.8299 18.11 59.7399 17.75C59.6599 17.29 59.6199 16.8 59.6299 16.33C59.6999 15.86 59.8899 15.41 60.1699 15.01C60.3499 14.76 60.4099 14.82 60.6299 15.09C60.7399 15.22 60.9099 15.4 61.1099 15.6C61.2899 15.8 61.4099 16 61.4799 16.2C61.6699 16.56 61.6999 16.88 61.7899 17.21C61.8599 17.37 61.9399 17.52 61.9999 17.68C62.0499 17.84 62.0499 18.01 62.1399 18.17C62.3899 18.83 62.6899 19.53 63.0799 20.3C63.5199 21.21 64.2999 22.06 64.8499 23.07C65.4999 24.17 65.8499 25.51 65.9799 26.8V28C65.9599 28.4 65.8499 28.78 65.7999 29.16C65.7399 29.45 65.7099 29.75 65.6299 30.02L65.3499 30.84C65.1799 31.39 64.9899 31.93 64.7399 32.43C64.3899 33.23 64.1899 34.09 63.7499 34.83C63.6599 35 63.5899 35.17 63.4899 35.33C63.3199 35.64 63.1499 35.81 62.9499 35.88C62.7699 35.96 62.5999 35.97 62.4099 35.94C62.3199 35.93 62.2299 35.92 62.1599 35.9C61.9199 35.83 61.8399 35.45 61.8499 34.88C62.1899 33.39 62.7399 32 63.1299 30.63C63.4599 29.63 63.7399 28.64 63.7399 27.67H63.7999L63.7899 27.66Z" fill="#231F20"/>
<path d="M73.0399 21.46C73.3299 20.5 73.6199 19.55 73.9099 18.6C74.0199 18.25 74.0599 17.89 74.1799 17.54C74.5699 16.31 75.0599 15.11 75.5399 13.91C75.7499 13.38 75.9099 12.83 76.0699 12.28C76.2499 11.57 76.4799 10.87 77.0299 10.3C77.1999 10.12 77.4099 10.23 77.6399 10.52C77.8699 10.81 78.2299 11.3 78.1699 11.71C78.1499 12.46 77.8499 13.12 77.6499 13.82C77.4199 14.5 77.1699 15.19 76.8599 15.86C76.4999 16.67 76.3299 17.57 76.0899 18.44L75.2599 21.3L74.7699 23.08C74.5399 23.98 74.2699 24.88 74.0899 25.79C73.9599 26.5 73.9099 27.22 73.7799 27.92C73.7499 28.08 73.7399 28.23 73.6999 28.39C73.5599 28.96 73.3299 29.1 72.8599 29.1C72.7499 29.1 72.6399 29.1 72.5399 29.1C72.1899 29.06 71.9599 28.75 71.8999 28.3C71.8599 27.64 71.8699 26.98 71.8999 26.32C71.9699 25.67 72.1199 25.02 72.2599 24.37C72.4799 23.4 72.7399 22.44 72.9799 21.47H73.0299L73.0399 21.46Z" fill="#231F20"/>
<path d="M90.8399 27.05C91.0999 26.2 91.3499 25.34 91.5699 24.48C91.6499 24.17 91.6599 23.84 91.7399 23.53C92.0199 22.42 92.3099 21.31 92.5699 20.18C92.6699 19.68 92.7199 19.17 92.7499 18.67C92.7499 18.35 92.7899 18.02 92.8399 17.7C92.8799 17.38 92.9599 17.06 93.1799 16.74C93.3099 16.54 93.4799 16.58 93.7599 16.77C93.8999 16.86 94.0799 17 94.2699 17.16C94.4399 17.32 94.5399 17.5 94.5799 17.7C94.7299 18.39 94.6899 19.07 94.6199 19.75C94.5499 20.43 94.4299 21.11 94.2299 21.77C93.9599 22.56 93.9399 23.42 93.7599 24.24C93.5699 25.14 93.3399 26.03 93.1099 26.92C92.9599 27.46 92.8199 28.01 92.6699 28.55C92.4399 29.37 92.1699 30.19 91.9999 31.01C91.8699 31.65 91.8099 32.3 91.6699 32.93C91.6399 33.07 91.6299 33.21 91.5799 33.35C91.4999 33.6 91.3999 33.76 91.2399 33.85C91.0999 33.94 90.9599 33.98 90.7799 33.99C90.6999 33.99 90.6199 34.01 90.5499 34.01C90.3199 34.01 90.1399 33.73 89.9799 33.29C89.8899 32.67 89.8799 32.06 89.8799 31.45C89.9199 30.85 90.0499 30.26 90.1699 29.67C90.3499 28.79 90.5699 27.92 90.7899 27.06H90.8399V27.05Z" fill="#231F20"/>
<path d="M60.1599 118.32C42.9199 116.81 32.2399 113.33 31.4899 110.23C30.7399 107.13 39.4899 106.32 40.2099 106.18L41.1699 110.68C41.1699 110.68 48.6599 116 56.5299 116.74L60.1699 118.33L60.1599 118.32Z" fill="#231F20"/>
<path d="M66.8799 69.55C66.8799 69.55 71.8599 71.35 72.2799 74.49C72.4799 75.95 72.9199 80.77 74.1999 81.9C75.4799 83.03 74.7299 78.04 74.7299 78.04L74.1999 72.89L70.2999 69.95L66.8799 69.56V69.55Z" fill="#231F20"/>
<path d="M51.9302 115.71C38.1602 109.19 37.2702 80.58 37.2702 80.2L35.9702 82.17L40.7602 111.16L51.9202 115.7L51.9302 115.71Z" fill="#231F20"/>
<path d="M85.73 67.33C85.45 67.53 85.37 72.56 84.77 73.89C83.88 75.89 81.83 75.36 80.56 75.93C79.29 76.5 80.21 80.27 78.23 81.19C76.08 82.19 75.04 80.59 75.04 80.59C75.04 80.59 75.04 83.74 78.02 83.66C79.84 83.61 80.14 83.28 80.7 77.94C80.7 77.94 81.91 76.84 83.35 76.98C84.79 77.12 86.41 76.14 86.63 74.51C86.84 72.88 88.75 66.95 88.75 66.95L85.73 67.32V67.33Z" fill="#231F20"/>
<path d="M78.75 58.84C78.75 58.84 88.86 58.8 90.17 63.35C90.17 63.35 90.49 64.29 89.36 65.66C88.23 67.03 76.5 69.09 76.5 69.09L78.75 58.85V58.84Z" fill="#231F20"/>
<path d="M51.6399 59.05C51.6399 59.05 53.2699 68.15 53.7899 68.39C54.3099 68.63 41.1799 67.5 39.5799 64.91C37.9799 62.32 46.6899 59.07 50.2199 59.16L51.6499 59.05H51.6399Z" fill="#231F20"/>
<path d="M86.2802 31.24C86.2802 31.24 76.3202 28.86 74.5602 29.9C72.8002 30.94 73.0102 27.33 73.8602 26.56C74.7102 25.79 81.8902 28.97 81.8902 28.97L86.2902 31.25L86.2802 31.24Z" fill="#231F20"/>
<path d="M75.7698 27.1C75.8598 27.37 71.3698 34.01 75.0398 40.74C75.8298 42.2 76.8898 43.25 76.8898 44.48C76.8898 47.23 73.0798 66.15 73.0798 66.15L71.5098 61.7L75.5598 44.09C75.5598 44.09 71.6698 39.07 71.7098 34.75C71.7498 30.43 73.0698 26.43 73.0698 26.43L75.7698 27.09V27.1Z" fill="#231F20"/>
<path d="M57.5802 37.06C57.5802 37.06 58.3602 38.79 59.5802 39.83C60.3902 40.52 59.5602 44.42 59.5802 49.92C59.6002 55.43 61.3002 65.19 63.3802 68.14C65.4602 71.09 60.6702 68.73 60.6702 68.73C60.6702 68.73 57.4802 56.98 57.6302 55.14C57.7702 53.31 58.0502 41.36 58.0502 41.36C58.0502 41.36 54.8502 38.36 55.0202 37.43C55.1902 36.5 57.5802 37.06 57.5802 37.06Z" fill="#231F20"/>
<path d="M52.0801 49.49C52.0801 49.49 53.4701 51.46 54.7301 54.62C56.8101 59.81 59.1801 67.33 59.1801 68.13C59.1801 69.42 61.5301 68.7 60.6701 66.54C59.8101 64.38 54.8001 48.78 53.6701 48.35C52.5401 47.92 52.0801 49.48 52.0801 49.48V49.49Z" fill="#231F20"/>
<path d="M55.1402 116.61L57.5602 116.89L59.9902 117.07C60.5802 117.09 61.1802 117.07 61.7702 117.1C63.8602 117.18 65.9702 117.2 68.0702 117.15C69.0002 117.13 69.9402 117.03 70.8602 116.93C72.0502 116.85 73.2102 116.58 74.4102 116.65C74.7802 116.66 74.7702 116.75 74.5102 117.01C74.3802 117.14 74.1802 117.33 73.9302 117.52C73.6802 117.7 73.3702 117.84 73.0302 117.92C71.8202 118.24 70.5902 118.46 69.3602 118.56C68.1202 118.67 66.8802 118.75 65.6302 118.7C64.1402 118.64 62.5902 118.75 61.0702 118.69C60.2302 118.68 59.4002 118.62 58.5602 118.56C57.7202 118.51 56.8902 118.43 56.0602 118.33C55.0302 118.24 54.0102 118.07 52.9902 117.93C51.4502 117.68 49.9102 117.38 48.3902 117.02C47.2002 116.8 46.0402 116.51 44.8902 116.17C44.6402 116.08 44.3902 116 44.1502 115.89C43.2502 115.47 43.0002 115.24 42.9302 114.88C42.9102 114.8 42.8802 114.71 42.8902 114.64C42.8902 114.4 43.3502 114.36 44.0502 114.48C44.5702 114.56 45.0702 114.7 45.6002 114.79C46.1202 114.88 46.6602 114.94 47.1702 115.09C48.2002 115.37 49.2702 115.55 50.3302 115.8L52.7302 116.23L55.1502 116.57V116.61H55.1402Z" fill="#231F20"/>
<path d="M81.98 78.19C81.96 78.25 81.98 78.11 81.9 78.48L81.7399 79.3C81.6099 79.86 81.5099 80.45 81.3099 81.05C81.1199 81.65 80.8699 82.27 80.3899 82.86C79.9299 83.44 79.2199 83.94 78.4499 84.09C78.1799 84.14 77.91 84.15 77.6399 84.18C77.3799 84.18 77.12 84.14 76.87 84.12C76.61 84.09 76.34 83.98 76.08 83.9C75.82 83.8 75.5799 83.62 75.3399 83.47C74.5299 82.82 74.19 81.92 74.01 81.15C73.83 80.36 73.78 79.61 73.76 78.89C73.72 77.45 73.8299 76.02 73.6299 74.81C73.4199 73.72 72.8 72.7 71.97 71.91C71.44 71.4 70.8199 70.98 70.1699 70.62C69.8499 70.43 69.53 70.23 69.19 70.06C69.02 69.97 68.85 69.88 68.68 69.81C68.51 69.73 68.34 69.6 68.16 69.51C67.72 69.25 67.77 69.27 68.23 69.17C68.69 69.02 69.6 68.85 70.58 69.16C72.22 69.84 73.73 71.03 74.68 72.69C75.15 73.51 75.4499 74.49 75.5299 75.41C75.5999 76.31 75.5399 77.13 75.5199 77.94C75.4899 78.89 75.52 79.86 75.75 80.69C75.86 81.1 76.03 81.46 76.23 81.72C76.46 81.95 76.67 82.15 77 82.22C77.16 82.3 77.3899 82.27 77.5899 82.32C77.7699 82.29 77.99 82.32 78.1399 82.25C78.4799 82.17 78.7599 81.97 78.9899 81.62C79.4699 80.94 79.7199 79.9 79.8399 78.85L79.98 77.76C80.06 77.25 80.2 76.75 80.62 76.45C80.82 76.3 81.05 76.21 81.29 76.13C81.54 76.07 81.7999 76.01 81.9499 75.99L82.9499 75.9C83.8799 75.78 84.72 75.59 85.11 74.86C85.32 74.52 85.41 74.06 85.5 73.59C85.5499 73.11 85.54 72.6 85.58 72.09C85.7 70.52 85.83 68.71 86.8899 67.15C87.1299 66.82 87.35 66.48 87.65 66.21C88.18 65.67 88.65 65.46 89 65.42C89.36 65.37 89.6199 65.47 89.8799 65.66C89.9899 65.74 90.1199 65.8 90.1999 65.88C90.4599 66.13 90.18 66.78 89.68 67.42C88.84 68.29 88.3899 69.21 88.0999 70.35C87.9599 70.93 87.87 71.56 87.79 72.27C87.71 72.98 87.3999 73.72 87.2399 74.62C86.9599 76 85.4699 77.61 84.07 77.87C83.3899 78.05 82.76 78.11 82.29 78.18H82.12C82.12 78.18 82.0999 78.19 82.0899 78.19H82.07C82.07 78.19 82.04 78.19 82.04 78.21L81.9899 78.18L81.98 78.19Z" fill="#231F20"/>
<path d="M82.9099 116.63C75.6399 118.6 68.1099 119.23 60.6599 118.53C57.9499 118.26 55.2399 117.85 52.5899 117.17C50.2599 116.55 47.9699 115.75 45.7699 114.75C44.6599 114.27 43.5999 113.69 42.5399 113.1L40.8599 112.07C40.5099 111.76 40.2299 111.35 40.0799 110.91C39.9499 110.58 39.8699 110.3 39.7799 110C38.4799 105.36 37.6599 100.74 36.8799 96.08C36.2199 91.94 35.6099 87.78 35.1799 83.63C34.8999 80.97 34.6999 78.29 34.6699 75.59C34.6499 72.9 34.7399 70.16 35.5599 67.54C36.1699 65.93 36.1099 66.18 36.3499 67.62C36.4799 68.34 36.7299 69.35 36.8999 70.54C36.9799 71.13 37.1199 71.78 37.1799 72.46C37.2299 73.14 37.2699 73.86 37.2799 74.6C37.6199 85.21 39.0999 95.97 41.2899 106.55C41.4599 107.34 41.6499 108.13 41.8599 108.89C41.9599 109.27 42.0799 109.66 42.1999 109.99C42.2699 110.2 42.2699 110.23 42.4599 110.33C43.1499 110.74 43.8299 111.18 44.5599 111.54L45.6399 112.11L46.7499 112.62C49.7199 113.97 52.8899 114.9 56.0999 115.52C63.1699 116.86 70.5499 116.68 77.6599 115.32C79.8499 114.89 82.0099 114.34 84.1099 113.64C86.1999 112.93 88.2999 112.08 89.9899 110.87C90.3099 110.65 90.5899 110.39 90.8099 110.15C91.0599 109.89 91.0999 109.73 91.2399 109.34C91.4599 108.62 91.5899 107.77 91.7199 106.95C91.9599 105.28 92.1099 103.58 92.2599 101.88C92.5499 98.48 92.7599 95.06 92.9499 91.66C93.2499 86.37 93.3899 81.18 93.7999 75.92C93.8899 74.76 93.9699 73.63 94.0999 72.46C94.3299 70.3 94.7099 68.89 95.0299 67.92C95.4199 66.96 95.7799 66.44 96.1599 66.05C96.3299 65.87 96.4999 65.63 96.6299 65.53C96.8399 65.37 96.9199 65.73 96.9899 66.54C97.0699 67.35 97.1099 68.58 96.9699 70.13C96.1799 79.34 95.8399 89.16 95.1899 99.08C95.0599 100.92 94.9299 102.77 94.7199 104.64C94.6199 105.57 94.4899 106.51 94.3499 107.46C94.1799 108.43 94.0499 109.35 93.6299 110.53C93.5599 110.77 93.2699 111.33 93.0699 111.56C92.8499 111.83 92.6099 112.12 92.3999 112.29C91.9499 112.72 91.5099 113.02 91.0599 113.32C90.1699 113.9 89.2799 114.33 88.3899 114.74C86.5999 115.54 84.7899 116.16 82.9499 116.69L82.9199 116.63H82.9099Z" fill="#231F20"/>
<path d="M52.0802 73.54C53.4802 73.83 54.9102 74.05 56.3502 74.18C56.8802 74.21 57.4002 74.23 57.9302 74.26C59.7902 74.35 61.6702 74.5 63.5602 74.46C64.4002 74.44 65.2302 74.36 66.0602 74.29C67.1202 74.2 68.1902 74.09 69.2602 74.01C69.5902 73.99 69.5602 74.05 69.3002 74.19C69.0402 74.33 68.5502 74.59 67.9602 74.78C65.8402 75.46 63.6202 75.76 61.3902 75.82C60.0602 75.85 58.6602 75.93 57.2902 75.89C55.7902 75.83 54.2802 75.71 52.7902 75.48C51.8702 75.37 50.9602 75.16 50.0402 75C48.6602 74.69 47.3002 74.29 45.9802 73.8C45.4602 73.63 44.9402 73.46 44.4302 73.25L43.6602 72.96C43.4102 72.85 43.1602 72.72 42.9102 72.59C42.6902 72.48 42.4702 72.38 42.2502 72.26C41.4802 71.72 41.4102 71.33 41.5502 70.89C41.5802 70.79 41.6002 70.68 41.6402 70.6C41.7102 70.46 41.8602 70.4 42.0802 70.38C42.2902 70.36 42.5802 70.38 42.8502 70.51C44.4502 71.25 46.1302 71.95 47.9502 72.48C49.2902 72.89 50.6902 73.21 52.1002 73.5V73.55L52.0802 73.54Z" fill="#231F20"/>
<path d="M87.0002 65.5C87.2802 65.42 87.5002 65.31 87.7202 65.21C87.8102 65.15 87.9002 65.12 88.0002 65.04L88.3302 64.78C88.7502 64.44 89.0202 64.05 89.1002 63.8C89.1402 63.62 89.0702 63.48 88.9202 63.21C88.6302 62.75 87.9902 62.26 87.3102 61.87C86.6202 61.48 85.8602 61.14 85.0802 60.86C84.3902 60.59 83.6502 60.46 82.9302 60.26L81.5302 59.94C81.0702 59.8 80.6202 59.59 80.1702 59.39C79.8902 59.25 79.9602 59.09 80.2502 58.88C80.5402 58.68 81.0802 58.35 81.6802 58.27C83.7202 58.32 85.7202 58.91 87.6002 59.94C88.1602 60.26 88.7402 60.56 89.3302 60.95C89.9002 61.34 90.5302 61.83 90.9002 62.67C91.0902 63.14 91.1502 63.69 91.0402 64.19C90.9502 64.7 90.7102 65.08 90.4802 65.43C89.9602 66.1 89.4702 66.56 88.7302 67.01C87.8802 67.49 87.0402 67.7 86.2002 67.9C84.9302 68.19 83.6702 68.35 82.4402 68.54C81.4802 68.68 80.5502 68.89 79.6102 69.04C79.4002 69.07 79.2002 69.12 79.0002 69.14C78.2202 69.19 77.9702 69.11 77.7502 68.84C77.7002 68.78 77.6402 68.72 77.6002 68.65C77.4802 68.44 77.7602 68.17 78.3202 67.93C79.1402 67.57 80.0002 67.34 80.8502 67.09C81.7102 66.85 82.5602 66.6 83.4202 66.43C84.6702 66.15 85.9602 65.87 87.0002 65.43L87.0202 65.48L87.0002 65.5Z" fill="#231F20"/>
<path d="M40.9201 66.69C40.5801 66.48 40.2401 66.23 39.9101 65.89C39.6101 65.59 39.2201 65.01 39.1201 64.43C39.0001 63.85 39.0801 63.23 39.4101 62.74C39.7101 62.23 40.0201 61.99 40.3201 61.72C40.7801 61.37 41.2001 61.05 41.6601 60.81C43.2901 60 44.9501 59.49 46.6501 59.12C47.4001 58.96 48.1401 58.74 48.9001 58.61C49.3901 58.54 49.8801 58.46 50.3901 58.45C50.9001 58.4 51.4301 58.6 51.9201 58.82C52.2301 58.99 52.1201 59.08 51.8401 59.25C51.7001 59.34 51.5201 59.46 51.3201 59.63C51.2101 59.72 51.1001 59.8 51.0101 59.88C50.9601 59.93 50.9001 59.95 50.8501 60.01C50.7901 60.03 50.7301 60.05 50.6701 60.07C48.9801 60.62 47.1801 61.06 45.3501 61.51C44.2401 61.75 43.2001 62.33 42.2701 62.88C42.0201 63.03 41.7701 63.19 41.5601 63.35C41.3401 63.5 41.1501 63.69 41.1001 63.77C41.0201 63.88 41.0101 64.02 41.0401 64.15C41.0601 64.22 41.0801 64.28 41.1201 64.34C41.1601 64.43 41.2401 64.52 41.3201 64.61C41.7401 65.08 42.4501 65.43 43.1501 65.72C44.2401 66.15 45.4201 66.47 46.6101 66.68C47.5301 66.85 48.4701 66.85 49.4101 66.97C49.6201 67 49.8201 67.02 50.0301 67.06C50.8001 67.22 51.0301 67.44 51.0901 67.88C51.1001 67.98 51.1301 68.08 51.1301 68.18C51.1101 68.48 50.7601 68.69 50.2001 68.73C48.5201 68.89 46.7501 68.62 44.9501 68.23C43.6101 67.91 42.2701 67.53 40.8801 66.72L40.9001 66.68L40.9201 66.69Z" fill="#231F20"/>
<path d="M89.3101 33.51L89.5001 32.63C89.5001 32.63 89.5201 32.58 89.5401 32.54C89.5601 32.5 89.5101 32.48 89.4901 32.46L89.4401 32.43L89.3901 32.41L89.1801 32.34C88.0301 31.96 86.7701 31.63 85.5301 31.29C83.0401 30.63 80.5001 29.91 78.0401 29.09C77.1401 28.79 76.2301 28.54 75.3301 28.29L74.2001 27.98C74.1001 27.96 73.9701 27.88 73.8801 27.93L73.8201 28.05L73.5801 28.57L73.2601 29.62C73.1301 29.97 73.0801 30.33 73.0201 30.69C72.9701 31.05 72.8601 31.41 72.8601 31.78C72.6901 33.24 72.8601 34.73 73.1901 36.2C73.5201 37.67 74.0901 39.09 74.7601 40.49C75.0901 41.2 75.4601 41.89 75.8401 42.6C76.0401 42.99 76.2001 43.27 76.4501 43.83C76.5201 44.13 76.6501 44.42 76.5901 44.73C76.5901 44.88 76.5501 45.05 76.5301 45.17L76.4801 45.48C75.9201 48.38 75.3501 51.3 74.8001 54.17C74.0901 57.86 73.5001 61.59 72.3301 65.18C71.8601 66.28 71.6501 66.07 71.3601 65C71.1001 63.93 70.8701 62.03 71.2201 59.9C71.9401 56.14 72.6601 52.39 73.3801 48.63L73.9201 45.82L74.0501 45.13L74.1101 44.8C74.1101 44.8 74.1201 44.76 74.1301 44.74C74.1301 44.71 74.1401 44.71 74.1201 44.65C74.0601 44.52 73.9301 44.3 73.8301 44.11C73.3701 43.3 72.8601 42.42 72.4101 41.51C71.9701 40.6 71.6001 39.63 71.3001 38.64C70.7101 36.73 70.3301 34.68 70.3701 32.6C70.4101 32.08 70.4001 31.56 70.4701 31.04L70.7301 29.49L71.1601 27.99C71.2001 27.77 71.3801 27.41 71.5101 27.09L71.9301 26.11C72.1501 25.88 72.3101 25.57 72.5701 25.39C72.8501 25.22 73.1801 25.24 73.5301 25.27C74.2301 25.36 75.1101 25.71 75.4101 25.8C77.8801 26.69 80.3201 27.49 82.8001 28.2L86.5501 29.23L88.4401 29.75L89.3901 30.03L89.8701 30.18L90.1101 30.26L90.4601 30.39C91.0401 30.61 91.6001 30.87 91.8701 31.36C91.9801 31.6 91.9001 31.9 91.9101 32.18L91.7201 33.09C91.5801 33.92 91.2901 34.7 91.0301 35.49C90.4201 37.03 89.7901 38.59 88.8201 39.96C87.8901 41.34 86.7401 42.59 85.4401 43.63C84.7901 44.15 84.0901 44.61 83.3901 45.03C83.0301 45.24 82.6801 45.44 82.3201 45.62L81.8901 45.85C81.8001 45.91 81.6801 45.95 81.6401 46.06C81.5901 46.19 81.5801 46.24 81.5301 46.45L81.3901 47.04L81.0901 48.23C80.9001 49.03 80.7001 49.82 80.5501 50.63C79.8201 54.29 79.2801 57.91 78.7201 61.56C78.6001 62.36 78.4901 63.15 78.3801 63.96C78.1401 65.46 77.9801 66.44 77.7401 67.11C77.4201 67.77 77.1601 68.14 76.8901 68.43C76.7601 68.56 76.6501 68.74 76.5501 68.82C76.3901 68.95 76.3001 68.7 76.1701 68.12C76.0401 67.54 75.8701 66.63 76.0401 65.52C76.3901 62.24 76.9001 58.9 77.5101 55.53C77.8101 53.84 78.1301 52.15 78.4801 50.45C78.6701 49.6 78.7801 48.74 78.9301 47.88L79.1601 46.58L79.3201 45.92L79.4501 45.43L79.6801 44.83L79.7701 44.7C79.8401 44.69 79.8501 44.63 79.9001 44.59C80.1001 44.35 80.3701 44.18 80.6101 43.98C80.7301 43.9 80.9301 43.81 80.9801 43.78L81.2101 43.66C81.4901 43.51 81.7701 43.37 82.0201 43.22C82.5501 42.93 83.0501 42.62 83.5301 42.27C84.4901 41.59 85.3601 40.79 86.1401 39.91C86.8801 39 87.5701 38.02 88.0901 36.94C88.6701 35.89 88.9301 34.68 89.2301 33.52H89.2901L89.3101 33.51Z" fill="#231F20"/>
<path d="M87.9802 18.72C88.1602 18.29 88.3402 17.85 88.4902 17.4C88.5402 17.23 88.5502 17.06 88.6002 16.89C88.7902 16.3 89.0602 15.71 89.2602 15.1C89.3502 14.83 89.3902 14.55 89.4302 14.27C89.4302 13.9 89.5802 13.56 89.8302 13.23C89.9102 13.13 90.1302 13.2 90.3802 13.34C90.6202 13.49 90.9202 13.72 90.9802 13.93C91.1302 14.32 91.0002 14.66 90.9602 15.02C90.8902 15.38 90.7902 15.73 90.6302 16.09C90.4502 16.51 90.4402 16.98 90.3102 17.43C90.1702 17.92 90.0102 18.41 89.8302 18.89C89.7302 19.19 89.5902 19.48 89.4602 19.77C89.2602 20.21 89.0302 20.64 88.8402 21.07C88.6802 21.4 88.6402 21.79 88.4302 22.1C88.3902 22.17 88.3502 22.24 88.3002 22.31C88.1002 22.55 87.9702 22.58 87.7202 22.5C87.6602 22.48 87.6102 22.47 87.5502 22.44C87.3802 22.36 87.3002 22.17 87.3002 21.94C87.2602 21.23 87.4202 20.65 87.5702 20.05C87.6902 19.61 87.8002 19.16 87.9202 18.71H87.9602L87.9802 18.72Z" fill="#231F20"/>
<path d="M84.5502 16.97C84.7702 16.39 85.0502 15.81 85.2502 15.21C85.3302 14.99 85.3502 14.76 85.4302 14.55C85.7102 13.78 85.9502 13 86.1902 12.21C86.3002 11.86 86.3602 11.5 86.4202 11.14C86.4802 10.68 86.6102 10.2 86.9102 9.76C87.0102 9.62 87.1002 9.7 87.2102 9.86C87.3102 10.02 87.5002 10.27 87.5502 10.53C87.6502 11 87.6002 11.47 87.6002 11.94C87.5802 12.42 87.5302 12.9 87.3602 13.37C87.1802 13.93 87.1802 14.54 87.0602 15.13C86.9302 15.77 86.7702 16.41 86.5802 17.04C86.4502 17.43 86.3302 17.81 86.2002 18.19C86.0202 18.77 85.7902 19.34 85.6202 19.93C85.4702 20.38 85.4502 20.86 85.3302 21.31C85.3002 21.41 85.2802 21.51 85.2402 21.6C85.0602 21.94 84.8402 21.99 84.4802 21.94C84.3902 21.93 84.3102 21.92 84.2302 21.9C83.9702 21.84 83.7902 21.61 83.6902 21.28C83.5702 20.81 83.6002 20.38 83.6402 19.96C83.6802 19.54 83.7402 19.12 83.8802 18.72C84.0802 18.13 84.2902 17.54 84.4902 16.95H84.5402L84.5502 16.97Z" fill="#231F20"/>
<path d="M81.85 16.35C82.03 15.81 82.22 15.27 82.37 14.73C82.43 14.53 82.43 14.32 82.49 14.13C82.7 13.43 82.88 12.72 83.05 12C83.13 11.68 83.15 11.36 83.17 11.04C83.19 10.63 83.17 10.22 83.39 9.81C83.45 9.68 83.61 9.7 83.81 9.81C83.99 9.92 84.33 10.14 84.39 10.38C84.49 11.24 84.58 12.13 84.31 12.98C84.16 13.49 84.18 14.04 84.1 14.56C84.01 15.14 83.89 15.71 83.76 16.28C83.68 16.63 83.6 16.98 83.52 17.33C83.39 17.86 83.24 18.38 83.16 18.91C83.11 19.32 83.16 19.75 83.11 20.16C83.11 20.25 83.11 20.34 83.09 20.43C82.95 20.75 82.78 20.82 82.39 20.82C82.3 20.82 82.21 20.82 82.13 20.82C81.85 20.8 81.62 20.61 81.49 20.34C81.28 19.93 81.28 19.54 81.23 19.15C81.25 18.77 81.31 18.39 81.37 18.01C81.48 17.45 81.6 16.9 81.77 16.35H81.82H81.85Z" fill="#231F20"/>
<path d="M78.6598 15.88C78.7598 15.34 78.9398 14.82 79.0898 14.29C79.1498 14.1 79.1698 13.9 79.2298 13.71C79.4498 13.05 79.6798 12.37 79.8998 11.71C79.9898 11.41 80.0698 11.12 80.1598 10.82C80.2798 10.44 80.3398 10.05 80.6198 9.72002C80.6998 9.61002 80.7798 9.65002 80.8898 9.79002C80.9798 9.92002 81.1998 10.18 81.1698 10.4C81.1398 10.8 81.1198 11.21 81.0398 11.6C80.9398 11.98 80.8098 12.36 80.6698 12.74C80.4898 13.19 80.4498 13.69 80.3498 14.17C80.2298 14.69 80.1198 15.22 79.9998 15.75C79.9198 16.07 79.8398 16.4 79.7698 16.72C79.6698 17.21 79.5498 17.71 79.4998 18.21C79.4598 18.6 79.4698 18.98 79.4298 19.37C79.4298 19.45 79.4298 19.54 79.4098 19.62C79.3598 19.93 79.2698 20.02 79.0398 20.06C78.9898 20.06 78.9298 20.08 78.8798 20.09C78.7098 20.09 78.5798 19.95 78.5198 19.71C78.4398 19.35 78.3898 18.99 78.3498 18.62C78.3298 18.25 78.3798 17.89 78.4098 17.52C78.4698 16.98 78.5598 16.43 78.6498 15.89H78.6798L78.6598 15.88Z" fill="#231F20"/>
<path d="M69.4698 58.22C68.9898 56.84 68.4498 55.47 67.7798 54.14C67.5498 53.65 67.2498 53.19 66.9998 52.7C66.1398 50.96 65.2398 49.2 64.4998 47.34C64.3398 46.92 64.1698 46.51 63.9998 46.11L63.5398 44.86C63.1798 43.78 62.8798 42.64 63.0998 41.47C63.1498 41.11 63.2798 41.15 63.5598 41.41C63.6998 41.54 63.8898 41.72 64.0898 41.93C64.3098 42.14 64.4898 42.39 64.5698 42.67C64.9998 43.66 65.3198 44.65 65.7298 45.64C66.1598 46.63 66.5898 47.63 67.0398 48.65C67.5398 49.9 68.3298 51.08 68.9798 52.32C69.6898 53.69 70.3598 55.1 70.9298 56.56C71.2898 57.45 71.5898 58.37 71.8698 59.29C72.2898 60.69 72.5798 62.12 72.8498 63.53C72.9898 64.08 73.0598 64.63 73.1798 65.17C73.2898 65.71 73.4198 66.26 73.4298 66.82C73.4398 67.06 73.4798 67.3 73.4798 67.55C73.4598 68.47 73.2598 68.76 72.8998 68.95C72.8098 68.99 72.7298 69.05 72.6498 69.08C72.3798 69.17 72.1098 68.8 71.8598 68.17C71.6798 67.7 71.5998 67.23 71.4798 66.75C71.3598 66.28 71.1998 65.81 71.1398 65.33C71.0098 64.37 70.7798 63.42 70.6098 62.46C70.4598 61.75 70.2498 61.05 70.0898 60.34C69.8598 59.65 69.6598 58.94 69.4098 58.25L69.4598 58.23L69.4698 58.22Z" fill="#231F20"/>
<path d="M57.2201 50.7C57.2101 48.11 57.3001 45.53 57.5001 42.97L57.5401 42.27L57.5601 41.81C57.5601 41.76 57.5601 41.69 57.5101 41.67L57.4401 41.63L57.2601 41.53C56.4901 41.11 55.6101 40.48 55.0801 39.57C54.9301 39.35 54.8801 39.12 54.6701 38.8C54.5601 38.46 54.4201 38.14 54.4001 37.79L54.3301 37.29L54.4201 36.86L54.4601 36.65L54.4801 36.54V36.51C54.5001 36.52 54.4301 36.47 54.5301 36.54V36.52L54.5501 36.47C54.5801 36.4 54.6201 36.34 54.6601 36.28L54.8401 36.16C55.3201 35.86 56.1401 35.77 56.6401 35.7L57.8901 35.58C58.7101 35.51 59.5201 35.43 60.3101 35.33C61.0101 35.24 61.6501 35.08 62.3101 34.85L63.4401 34.46C63.9501 34.29 64.4701 34.05 64.8501 34.17C65.1901 34.14 65.2701 34.48 65.4201 34.72C65.5601 34.98 65.5901 35.36 65.6501 35.7C65.6901 36.04 65.6501 36.47 65.6201 36.78C65.5901 37.04 65.5401 37.31 65.4701 37.57C65.3201 38.09 65.0801 38.6 64.7101 39C64.5401 39.21 64.3201 39.37 64.1201 39.55C63.8901 39.68 63.6401 39.8 63.4001 39.87C62.7701 40.03 62.8601 39.92 63.1401 39.46C63.2801 39.23 63.3901 38.84 63.5101 38.49C63.6101 38.12 63.7001 37.76 63.7901 37.39C63.8301 37.22 63.8701 37.05 63.8801 36.87C63.8901 36.78 63.9001 36.69 63.8901 36.6C63.8901 36.55 63.8901 36.58 63.8901 36.58C63.8901 36.58 63.8901 36.57 63.8901 36.56C63.8701 36.56 63.7901 36.61 63.7401 36.63L63.3901 36.79C63.1601 36.9 62.9001 36.97 62.6601 37.05C62.1601 37.2 61.6401 37.33 61.1001 37.41C60.5901 37.49 60.1101 37.54 59.6201 37.59L58.1801 37.71L56.8501 37.8C56.7801 37.79 56.6901 37.78 56.6001 37.8C56.5601 37.8 56.5101 37.81 56.4701 37.83C56.4501 37.86 56.4601 37.91 56.4501 37.95C56.4501 38.03 56.4601 38.12 56.4801 38.21C56.5001 38.26 56.5001 38.29 56.5301 38.35C56.5701 38.42 56.6101 38.55 56.6701 38.63C56.8901 39 57.2101 39.32 57.6201 39.61C57.8401 39.76 58.0201 39.87 58.3301 40.03C58.7601 40.27 59.1801 40.53 59.3401 40.96C59.4501 41.42 59.3801 42.09 59.3801 42.32L59.3301 43.29L59.2401 45.21L59.1001 49.05C59.0601 50.63 59.0501 52.21 59.1001 53.78C59.1701 56.16 59.3101 58.56 59.7101 60.89C60.0101 62.7 60.5101 64.43 61.1601 66.07C61.2901 66.44 61.4801 66.76 61.6301 67.12C61.9601 67.76 62.1601 68.17 62.2401 68.52C62.3401 68.85 62.3801 69.06 62.3701 69.28C62.3701 69.38 62.3901 69.49 62.3701 69.55C62.3501 69.66 62.2301 69.62 61.9601 69.47C61.6801 69.33 61.3201 69.03 60.9201 68.58C58.9101 65.68 58.1201 62.08 57.6801 58.6C57.3501 55.99 57.2401 53.37 57.1801 50.76H57.2301L57.2201 50.7Z" fill="#231F20"/>
<path d="M51.0101 61.88C50.8001 60.81 50.6401 59.75 50.4501 58.69C50.3801 58.3 50.2601 57.93 50.2001 57.54C49.9901 56.18 49.7901 54.81 49.5801 53.45C49.4901 52.85 49.3401 52.26 49.1801 51.68C48.9601 50.94 48.7201 50.21 48.9201 49.35C48.9801 49.08 49.0401 49.09 49.3101 49.23C49.5201 49.33 49.7201 49.42 49.8901 49.5C50.1101 49.62 50.2901 49.79 50.4201 49.99C50.6701 50.34 50.8001 50.72 50.9001 51.11C51.0101 51.49 51.1201 51.88 51.2101 52.27C51.4101 53.05 51.5301 53.84 51.5901 54.65C51.6701 55.61 52.0001 56.56 52.2001 57.51L52.8601 60.65C53.0101 61.29 53.1301 61.94 53.2901 62.57C53.5301 63.54 53.7601 64.51 54.1001 65.43C54.3701 66.14 54.7601 66.79 55.1401 67.43C55.2201 67.57 55.3201 67.7 55.3901 67.85C55.6001 68.41 55.5801 68.63 55.1601 69C55.0801 69.08 55.0201 69.16 54.9501 69.21C54.7901 69.36 54.2001 69.38 53.8701 69C52.8201 67.9 52.3001 66.46 51.8101 65.07C51.4701 64.02 51.2001 62.95 50.9401 61.89L50.9901 61.87L51.0101 61.88Z" fill="#231F20"/>
<path d="M56.84 61.16C56.55 60.03 56.24 58.9 55.88 57.78C55.75 57.37 55.56 56.99 55.42 56.58C54.95 55.14 54.54 53.67 54.05 52.23C53.83 51.59 53.54 50.98 53.25 50.37C53.08 49.97 52.89 49.59 52.73 49.19C52.65 48.99 52.57 48.79 52.51 48.58C52.43 48.38 52.47 48.12 52.47 47.88C52.56 47.54 52.57 47.57 52.94 47.64C53.13 47.67 53.37 47.73 53.67 47.81C53.93 47.9 54.13 48.06 54.28 48.27L55.04 49.39C55.27 49.77 55.45 50.18 55.64 50.59C56.01 51.4 56.33 52.24 56.58 53.12C56.9 54.16 57.37 55.17 57.75 56.21C58.14 57.36 58.5 58.52 58.83 59.69L59.42 61.85C59.72 62.94 59.94 64.06 60.24 65.14C60.35 65.56 60.49 65.98 60.64 66.39C60.77 66.81 60.88 67.23 60.99 67.65C61.04 67.84 61.1 68.02 61.13 68.21C61.13 68.94 60.99 69.19 60.56 69.4C60.46 69.45 60.37 69.5 60.29 69.54C60.01 69.64 59.62 69.41 59.33 68.94C58.88 68.26 58.64 67.54 58.34 66.82C58.11 66.09 57.92 65.33 57.71 64.58C57.41 63.46 57.13 62.32 56.79 61.2L56.85 61.18L56.84 61.16Z" fill="#231F20"/>
<path d="M45.0199 45.81C46.4699 47.26 48.3299 48.19 50.2599 47.89C50.9599 47.79 51.6699 47.54 52.2399 47.24C53.2799 46.72 53.9499 45.67 54.2099 44.34C54.4799 43.02 54.3899 41.55 54.1599 40.11C53.9499 38.83 53.5899 37.56 53.1999 36.31C52.7199 34.7 51.9599 33.16 51.8599 31.39C51.8599 30.83 51.8599 30.92 52.1299 31.3C52.4499 31.67 53.0899 32.3 53.4999 33.19C54.7999 36.37 56.2499 39.72 56.0799 43.56C55.9999 44.69 55.8099 45.92 55.1799 47.05C54.5699 48.2 53.4799 49.1 52.3199 49.54C51.0799 50.04 49.6999 50.2 48.3699 49.97C47.0399 49.75 45.8199 49.18 44.7999 48.42C43.5399 47.48 42.5299 46.31 41.6799 45.07C40.3999 43.19 39.4899 41.1 38.7699 39C38.2199 37.37 37.6899 35.74 37.4099 34.02C37.3399 33.64 37.2899 33.27 37.2499 32.88C37.2199 31.43 37.5599 30.97 37.9899 30.71C38.0899 30.65 38.1899 30.57 38.2699 30.54C38.4199 30.49 38.5399 30.61 38.6699 30.86C38.7899 31.11 38.9699 31.49 39.0499 31.96C39.5899 34.75 40.2699 37.66 41.4999 40.38C42.3999 42.38 43.5399 44.31 45.0399 45.76L45.0099 45.8L45.0199 45.81Z" fill="#231F20"/>
<path d="M41.9699 34.27C41.8799 33.83 41.7999 33.39 41.7099 32.95C41.6799 32.79 41.5999 32.65 41.5699 32.49C41.4599 31.93 41.3699 31.36 41.2399 30.8C41.1899 30.55 41.1199 30.31 41.0399 30.07C40.9399 29.77 40.8099 29.47 40.8199 29.13C40.8199 29.02 41.0199 28.97 41.2599 28.98C41.4899 28.98 41.7899 29.05 41.8899 29.21C42.2599 29.77 42.5999 30.33 42.6299 31.02C42.6699 31.42 42.8799 31.78 43.0099 32.16C43.1399 32.58 43.2599 33.01 43.3899 33.43C43.4599 33.69 43.5399 33.96 43.6099 34.22C43.7299 34.62 43.8199 35.02 43.9799 35.4C44.1099 35.69 44.3199 35.94 44.4599 36.22C44.4899 36.28 44.5399 36.34 44.5599 36.4C44.6299 36.65 44.4899 36.79 44.2199 36.96L44.0299 37.07C43.8299 37.18 43.5899 37.16 43.3599 37.05C43.0799 36.86 42.8699 36.63 42.6999 36.38C42.5499 36.12 42.4299 35.85 42.3299 35.57C42.1699 35.15 42.0399 34.73 41.9199 34.29H41.9599L41.9699 34.27Z" fill="#231F20"/>
<path d="M45.1802 33.66C45.1302 33.26 45.0902 32.86 45.0402 32.46C45.0202 32.32 44.9602 32.18 44.9402 32.04C44.9002 31.52 44.9002 30.99 44.8402 30.48C44.8102 30.25 44.7602 30.03 44.7002 29.82C44.6202 29.54 44.5102 29.27 44.5402 28.97C44.5402 28.78 45.2802 28.8 45.4602 29.09C45.7302 29.62 45.9702 30.16 46.0502 30.76C46.0902 31.12 46.3002 31.44 46.3802 31.79C46.4702 32.18 46.5502 32.57 46.6402 32.96C46.7002 33.2 46.7402 33.44 46.7802 33.68C46.8502 34.05 46.9002 34.42 47.0202 34.77C47.1002 35.05 47.3002 35.28 47.3802 35.55C47.4002 35.61 47.4302 35.66 47.4402 35.73C47.4902 35.96 47.4102 36.06 47.1502 36.19L46.9702 36.28C46.7702 36.36 46.5502 36.33 46.4002 36.2C45.9102 35.82 45.6902 35.33 45.5002 34.83C45.3602 34.46 45.2402 34.08 45.1502 33.69H45.1902L45.1802 33.66Z" fill="#231F20"/>
<path d="M47.24 32.25C47.18 31.89 47.12 31.53 47.04 31.16C47.01 31.03 46.95 30.9 46.92 30.77C46.86 30.28 46.8 29.77 46.75 29.29C46.72 29.07 46.67 28.86 46.62 28.65C46.57 28.38 46.6 28.09 46.66 27.8C46.68 27.71 46.74 27.71 46.85 27.77C46.95 27.82 47.15 27.92 47.26 28.05C47.35 28.17 47.47 28.28 47.54 28.4C47.58 28.52 47.62 28.65 47.66 28.78C47.73 29.03 47.8 29.29 47.83 29.57C47.86 29.9 48.07 30.19 48.15 30.52C48.24 30.88 48.34 31.25 48.44 31.62C48.49 31.85 48.55 32.08 48.6 32.31C48.69 32.66 48.74 33.02 48.84 33.36C48.92 33.6 49.01 33.89 49.1 34.16C49.12 34.22 49.14 34.28 49.13 34.34C49.11 34.57 49.01 34.66 48.76 34.73L48.59 34.78C48.41 34.82 48.23 34.75 48.08 34.61C47.85 34.41 47.75 34.2 47.62 33.99C47.48 33.78 47.45 33.56 47.39 33.33C47.32 32.98 47.25 32.63 47.18 32.28H47.21L47.24 32.25Z" fill="#231F20"/>
<path d="M61.2598 53.71C61.2298 53.21 61.1998 52.71 61.1698 52.21C61.1598 52.03 61.1298 51.85 61.1198 51.67C61.1098 51.03 61.0899 50.38 61.0799 49.75C61.0699 49.47 61.0498 49.18 61.0498 48.9C61.0498 48.54 61.0299 48.18 61.0799 47.81C61.0999 47.58 61.3498 47.86 61.4698 48.27C61.5398 48.63 61.6298 48.99 61.6698 49.35C61.6998 49.71 61.7098 50.08 61.7098 50.45C61.7098 50.89 61.7998 51.34 61.8498 51.79C61.9098 52.28 61.9698 52.77 62.0298 53.26C62.0698 53.56 62.1098 53.87 62.1398 54.17C62.1998 54.63 62.2598 55.09 62.3598 55.54C62.4398 55.89 62.5598 56.22 62.6698 56.55C62.6898 56.62 62.7199 56.69 62.7399 56.77C62.8099 57.05 62.7798 57.15 62.6098 57.26C62.5698 57.28 62.5299 57.31 62.4899 57.33C62.3599 57.39 62.2098 57.3 62.1098 57.11C61.8098 56.53 61.6399 55.87 61.4899 55.21C61.3799 54.72 61.2998 54.22 61.2298 53.72H61.2498L61.2598 53.71Z" fill="#231F20"/>
<path d="M85.39 37.17C85.16 37.5 84.95 37.83 84.69 38.13C84.6 38.24 84.52 38.36 84.42 38.47C84.08 38.85 83.72 39.21 83.36 39.56C83.2 39.72 83.05 39.89 82.89 40.03C82.68 40.22 82.47 40.41 82.23 40.57C82.09 40.68 82.18 40.44 82.34 40.15C82.65 39.66 83.02 39.24 83.41 38.82C83.65 38.57 83.83 38.27 84.03 37.98C84.25 37.67 84.47 37.35 84.69 37.04C84.82 36.85 84.96 36.65 85.08 36.45C85.27 36.14 85.45 35.83 85.6 35.51C85.72 35.26 85.81 35 85.9 34.75C85.92 34.7 85.94 34.63 85.96 34.58C86.04 34.37 86.12 34.33 86.24 34.32C86.27 34.32 86.3 34.32 86.32 34.32C86.4 34.32 86.44 34.44 86.43 34.62C86.35 35.12 86.23 35.66 85.98 36.14C85.8 36.5 85.6 36.84 85.39 37.18H85.38L85.39 37.17Z" fill="#231F20"/>
<path d="M53.4298 67.36C58.1198 67.9 62.8898 68.1 67.6398 67.98C69.3798 67.94 71.0998 67.77 72.8298 67.66C75.8798 67.45 78.9098 67.12 81.8998 66.57C83.3898 66.3 84.8698 65.96 86.3098 65.54C87.7498 65.13 89.1698 64.64 90.4598 63.96C91.1598 63.59 91.8198 63.17 92.3698 62.67C92.6398 62.42 92.8798 62.15 93.0698 61.87C93.1598 61.73 93.2598 61.59 93.3198 61.44C93.3898 61.3 93.4098 61.22 93.4398 61.12C93.5298 60.85 93.3198 60.65 93.1298 60.46C92.8098 60.16 92.4198 59.86 92.0098 59.59C90.6298 58.68 89.0398 57.99 87.4698 57.3C85.8998 56.6 84.2898 55.98 82.6998 55.21C81.7498 54.59 81.8498 54.73 82.8398 54.62C83.3398 54.56 84.0298 54.54 84.8798 54.54C85.7198 54.57 86.6698 54.73 87.6698 55.03C89.1798 55.46 90.6098 56.1 92.0398 56.83C92.7598 57.21 93.4598 57.61 94.1798 58.15C94.3598 58.29 94.5398 58.43 94.7198 58.59L94.8598 58.71L95.0498 58.91C95.1798 59.04 95.2998 59.18 95.4098 59.34C95.8698 59.92 96.0898 60.67 95.9498 61.39C95.6998 62.51 95.3198 62.99 94.9298 63.57C94.5098 64.11 94.0498 64.56 93.5698 64.95C92.6098 65.72 91.5898 66.27 90.5698 66.74C88.5198 67.65 86.4398 68.24 84.3298 68.64C79.9798 69.49 75.4898 70.17 71.0298 70.45C66.1298 70.74 61.2198 70.7 56.3398 70.34C53.3298 70.11 50.3298 69.75 47.3498 69.18C45.0998 68.74 42.8398 68.18 40.6598 67.31C39.5698 66.86 38.4998 66.33 37.4998 65.59C36.9998 65.22 36.5298 64.78 36.1298 64.25C35.7298 63.73 35.4098 63.07 35.3098 62.35C35.2498 62.09 35.2798 61.84 35.2598 61.53C35.2798 60.96 35.6098 60.35 35.9298 59.98C36.2498 59.6 36.5798 59.27 36.9298 58.99C37.6198 58.42 38.3398 57.97 39.0798 57.54C40.5498 56.7 42.0598 56.01 43.6298 55.44C44.3698 55.17 45.0898 54.91 45.8498 54.7C47.2698 54.31 48.2698 54.2 48.9798 54.26C49.6998 54.3 50.1298 54.52 50.4398 54.82C50.5798 54.95 50.7598 55.1 50.8198 55.22C50.9798 55.6 49.9898 55.89 48.1098 56.49C46.0798 57.09 44.0298 57.95 42.0698 58.92C41.0998 59.41 40.1398 59.95 39.3098 60.55C38.8898 60.84 38.5098 61.16 38.2298 61.45C38.0998 61.58 37.9798 61.75 37.9598 61.79C37.9598 61.79 37.9698 61.8 37.9598 61.81C37.9798 61.99 38.0498 62.42 38.4398 62.82C38.8098 63.24 39.4098 63.67 40.0698 64.04C41.8898 65.03 44.1598 65.69 46.4198 66.2C48.6998 66.71 51.0498 67.06 53.4198 67.31V67.38L53.4298 67.36Z" fill="#231F20"/>
</svg>
