<svg width="128" height="128" viewBox="0 0 128 128" fill="none" xmlns="http://www.w3.org/2000/svg">
<path d="M66.7799 53.49C66.4699 53.37 66.6699 52.48 66.3499 52.56C65.2999 52.8 60.9999 53.99 65.0399 55.18C70.6299 56.82 73.9499 55.34 73.9499 55.34L68.3599 54.5C68.2599 54.48 68.0399 54.39 67.9399 54.36L66.7799 53.49Z" fill="#231F20"/>
<path d="M70.59 34.36C70.59 34.36 73.23 49.27 72.54 51.24C71.49 54.26 67 53.45 67 53.45C67 53.45 73.37 54.92 74.07 53.9C74.77 52.88 73.14 34.36 73.14 34.36H70.59Z" fill="#231F20"/>
<path d="M59.4 121.92C56.62 121.76 53.84 121.52 51.07 121.2C50.06 121.1 49.04 121.04 48.04 120.9C44.48 120.46 40.95 119.84 37.43 119.16C35.87 118.84 34.3 118.56 32.75 118.19C30.76 117.79 28.78 117.12 27.03 116.03C26.48 115.71 26.58 115.7 27.14 115.73C27.7 115.78 28.74 115.71 29.89 115.85C30.88 116.06 31.87 116.22 32.86 116.46C33.85 116.67 34.82 116.94 35.83 117.12C37.82 117.54 39.84 117.91 41.86 118.31C43.07 118.53 44.32 118.69 45.58 118.84C46.84 118.96 48.11 119.09 49.37 119.21L53.52 119.59L57.68 119.91C59.39 120 61.1 120.14 62.81 120.18C65.4 120.27 68.01 120.35 70.58 120.25C71.58 120.23 72.57 120.14 73.55 120.06C74.53 119.99 75.51 119.92 76.49 119.81C76.92 119.77 77.34 119.71 77.78 119.68C79.38 119.54 79.91 119.63 80.31 119.94C80.4 120.01 80.52 120.07 80.58 120.14C80.77 120.35 80.15 120.72 78.97 121.03C77.21 121.47 75.37 121.73 73.51 121.95C72.58 122.07 71.64 122.08 70.7 122.12C69.76 122.15 68.81 122.19 67.86 122.18C65.05 122.19 62.23 122.1 59.42 121.96V121.91L59.4 121.92Z" fill="#231F20"/>
<path d="M27.8402 106.27C27.8402 106.27 14.7102 108.17 16.5402 111.57C20.1602 118.31 52.2802 120.53 52.2802 120.53C52.2802 120.53 30.0902 111.75 28.9702 110.28C27.8502 108.81 27.8502 106.27 27.8502 106.27H27.8402Z" fill="#231F20"/>
<path d="M71.6198 99.49C67.8798 99.56 64.1298 99.5 60.3898 99.31C59.0298 99.25 57.6598 99.22 56.2998 99.11C51.4998 98.68 46.7198 97.89 42.0698 96.54C40.0098 95.94 37.9398 95.3 35.9798 94.38C34.7098 93.82 33.4898 93.13 32.3398 92.32C31.7998 91.85 31.2198 91.44 30.7598 90.89L30.0598 90.07C29.8498 89.78 29.6998 89.44 29.5698 89.1C29.3398 88.2 29.4298 88.34 30.1698 88.69C30.5498 88.86 30.9898 89.11 31.5098 89.4C31.7698 89.55 32.0098 89.72 32.2698 89.91C32.5598 90.08 32.8398 90.26 33.1198 90.48C35.1398 91.99 37.6298 92.96 40.1598 93.75C42.6998 94.53 45.3398 95.12 48.0098 95.64C51.2198 96.24 54.6298 96.48 57.9798 96.66C61.6698 96.87 65.3698 96.95 69.0798 96.88C71.3598 96.83 73.6398 96.76 75.9198 96.6C79.3698 96.37 82.8298 96.07 86.2198 95.51C88.8498 95.08 91.3898 94.42 93.8998 93.7C94.4498 93.54 94.9798 93.35 95.5398 93.2C97.6098 92.68 98.3198 92.73 98.9798 93.26C99.1298 93.38 99.3098 93.48 99.4198 93.6C99.5998 93.81 99.5098 94.07 99.1898 94.4C98.8698 94.72 98.3298 95.15 97.5698 95.46C96.4498 95.99 95.2798 96.35 94.0798 96.7C92.8898 97.04 91.6698 97.33 90.4398 97.59C87.9798 98.1 85.4598 98.46 82.9398 98.76C79.1898 99.19 75.3998 99.42 71.6298 99.55V99.48L71.6198 99.49Z" fill="#231F20"/>
<path d="M70.8 66.72C68.26 66.74 65.71 66.67 63.17 66.52C62.24 66.47 61.31 66.45 60.39 66.36C57.13 66.04 53.88 65.45 50.72 64.46C49.33 64 47.93 63.48 46.63 62.74C45.79 62.28 45 61.66 44.36 60.88C43.74 60.11 43.23 59.08 43.39 58.06C43.53 57.43 43.59 57.56 43.94 58C44.04 58.11 44.13 58.23 44.24 58.37C44.38 58.49 44.49 58.64 44.61 58.78L44.77 59.01L44.98 59.23C45.12 59.38 45.21 59.55 45.38 59.71C46.37 60.89 47.95 61.7 49.58 62.33C51.23 62.96 53 63.42 54.8 63.83C56.96 64.31 59.28 64.46 61.55 64.62C64.05 64.8 66.57 64.87 69.09 64.86C70.64 64.85 72.19 64.82 73.74 64.74C76.09 64.62 78.45 64.47 80.76 64.17C82.56 63.93 84.3 63.55 86.05 63.17C86.44 63.09 86.81 63 87.2 62.94C88.65 62.68 89.15 62.84 89.55 63.19C89.64 63.27 89.75 63.35 89.81 63.43C90.01 63.7 89.47 64.11 88.44 64.55C86.89 65.08 85.25 65.46 83.57 65.72C81.9 66.01 80.19 66.21 78.47 66.37C75.92 66.61 73.35 66.73 70.79 66.78V66.73L70.8 66.72Z" fill="#231F20"/>
<path d="M83.15 121.42C76.64 122.06 70.1 122.23 63.58 121.97C61.2 121.86 58.82 121.79 56.45 121.53C52.27 121.08 48.11 120.39 44.02 119.3C43 119.02 41.98 118.74 40.97 118.4L39.46 117.9L37.97 117.31C36.97 116.95 36.02 116.43 35.05 115.98C34.57 115.74 34.11 115.44 33.65 115.17C33.18 114.9 32.71 114.63 32.28 114.28L31.11 113.42C30.73 113.12 30.39 112.76 30.02 112.43C29.66 112.1 29.3 111.76 29 111.36C28.69 110.97 28.37 110.59 28.06 110.19C27.45 109.25 27.13 108.33 26.82 107.4C26.52 106.47 26.31 105.54 26.12 104.61C25.67 102.22 25.4 99.8 25.43 97.38C25.5 94.96 25.76 92.51 26.71 90.25C27.14 89.58 27.37 89.31 27.48 89.36C27.6 89.41 27.63 89.79 27.86 90.47C28.08 91.14 28.26 92.05 28.5 93.11C28.69 94.16 28.75 95.35 28.77 96.63C28.77 97.77 28.8 98.9 28.83 100.03C28.89 101.16 28.97 102.29 29.14 103.4C29.29 104.51 29.5 105.61 29.8 106.62C29.94 107.13 30.11 107.62 30.3 108.03C30.39 108.26 30.48 108.38 30.58 108.58L31.04 109.18C32.26 110.79 33.99 112.18 35.94 113.3C37.91 114.39 40.02 115.36 42.25 116.11C47.58 117.92 53.54 118.59 59.35 118.99C62.55 119.22 65.77 119.32 68.99 119.3C72.21 119.3 75.43 119.17 78.64 118.91C82.59 118.61 86.54 118.15 90.43 117.43C93.38 116.9 96.31 116.24 99.15 115.34C100.57 114.89 101.96 114.38 103.29 113.78C103.95 113.47 104.59 113.13 105.22 112.78C105.8 112.38 106.44 112.03 106.92 111.56C108.5 110.29 109.28 108.08 109.76 105.99C110.24 103.85 110.36 101.62 110.34 99.37C110.34 98.38 110.27 97.41 110.23 96.4C110.14 92.66 110.23 91.39 111.02 90.55C111.18 90.36 111.33 90.11 111.48 90C111.92 89.66 112.57 91.12 112.92 93.9C113.21 95.96 113.38 98.1 113.37 100.3C113.36 102.5 113.18 104.77 112.61 107.07C112.34 108.22 111.91 109.36 111.39 110.49L110.93 111.32C110.77 111.6 110.65 111.86 110.4 112.15C109.96 112.72 109.5 113.3 108.99 113.69C106.99 115.41 104.85 116.38 102.71 117.27C96.32 119.72 89.73 120.72 83.17 121.5L83.15 121.43V121.42Z" fill="#231F20"/>
<path d="M80.1001 97.89C74.3001 98.22 68.5001 98.2 62.7201 97.89C60.6101 97.77 58.5001 97.7 56.3901 97.48C52.6801 97.09 48.9801 96.53 45.3201 95.73C41.6701 94.91 38.0201 93.88 34.5801 92.17C33.0601 91.39 31.5501 90.52 30.2501 89.25C29.5901 88.64 29.0101 87.9 28.5601 87.06C28.3201 86.65 28.1701 86.18 28.0101 85.73C27.9601 85.44 27.9001 85.14 27.8901 84.85C27.9101 84.58 27.9201 84.29 27.9701 84.03C28.6201 81.44 30.3301 79.83 32.1101 78.5C32.5601 78.16 33.0301 77.87 33.5101 77.59C34.0201 77.36 34.5201 77.12 35.0501 76.94C35.5701 76.74 36.1001 76.59 36.6301 76.45C37.1701 76.32 37.7301 76.31 38.2701 76.26C39.6501 76.27 39.4201 76.26 38.4501 76.87C37.9601 77.17 37.3601 77.78 36.6601 78.36C36.3201 78.68 35.9501 79.01 35.5901 79.37C35.4101 79.56 35.2101 79.72 35.0401 79.93C34.8401 80.09 34.6301 80.26 34.4201 80.41C33.6701 80.99 32.9801 81.63 32.4001 82.32C31.8201 83 31.2901 83.7 31.0601 84.31C30.5901 84.83 31.4901 86.53 32.8401 87.62C34.2001 88.79 35.9901 89.73 37.8501 90.52C39.7201 91.31 41.6901 91.97 43.7101 92.54C48.5501 93.91 53.8401 94.43 59.0201 94.85C64.7201 95.29 70.4601 95.43 76.1901 95.23C79.7201 95.11 83.2401 94.87 86.7401 94.45C92.0201 93.79 97.3801 92.91 102.2 90.94C104.03 90.15 105.83 89.16 106.96 87.8C107.52 87.14 107.81 86.37 107.76 85.73C107.72 85.11 107.25 84.47 106.63 83.89C106.08 83.38 105.41 82.96 104.73 82.49C104.09 82.07 103.53 81.73 103.06 81.44C102.6 81.14 102.23 80.86 101.94 80.62C101.64 80.37 101.43 80.14 101.26 79.91C101.11 79.65 101.01 79.37 100.91 79.13C100.83 78.9 100.68 78.68 100.64 78.53C100.43 78.14 102.13 77.63 104.58 78.69C106.35 79.52 108.2 80.49 109.62 82.5C109.97 83 110.28 83.59 110.5 84.27C110.6 84.61 110.66 84.99 110.7 85.36C110.7 85.73 110.74 86.15 110.68 86.5C110.49 87.95 109.72 89.15 108.9 90.02C107.22 91.77 105.3 92.71 103.41 93.54C101.5 94.35 99.5701 94.93 97.6201 95.44C91.8301 96.89 85.9701 97.55 80.1201 97.96V97.89H80.1001Z" fill="#231F20"/>
<path d="M68.6499 83.78C64.9199 83.63 61.1899 83.31 57.4799 82.72C56.1299 82.51 54.7599 82.33 53.4199 82.02C51.0599 81.46 48.6999 80.76 46.4499 79.69C44.2299 78.61 41.9399 77.22 40.5499 74.78C39.9799 73.6 39.7699 72.55 39.5599 71.45C39.3699 70.36 39.2599 69.26 39.2399 68.17C39.1899 66.77 39.2599 65.35 39.5499 63.97C39.8199 62.59 40.2499 61.21 41.2099 60.11C41.7899 59.42 41.8299 59.59 41.9799 60.41C42.1199 61.24 42.6599 62.69 42.3899 64.04C42.0899 66.51 41.9799 69.05 42.4499 71.46C42.5599 72.05 42.6899 72.65 42.8599 73.13C42.8999 73.27 42.9399 73.33 42.9699 73.43C43.0199 73.53 43.0999 73.64 43.1599 73.75C43.2799 73.97 43.4099 74.19 43.5999 74.4C44.2699 75.25 45.2099 76.04 46.2999 76.71C48.9099 78.33 52.2399 79.09 55.4499 79.74C59.0099 80.44 62.6599 80.87 66.3199 81.08C68.5699 81.21 70.8399 81.28 73.0999 81.25C76.5299 81.21 79.9799 81.05 83.3499 80.62C85.9699 80.28 88.5099 79.71 91.0199 79.06C91.5699 78.91 92.1099 78.76 92.6599 78.6C94.7199 78.06 95.3799 77.99 96.0399 78.55C96.1899 78.67 96.3599 78.77 96.4699 78.89C96.8099 79.27 96.1199 80.06 94.5799 80.61C90.0299 82.29 84.9999 83.1 79.9599 83.54C76.2099 83.85 72.4299 83.94 68.6599 83.85V83.78H68.6499Z" fill="#231F20"/>
<path d="M100.9 67.25C100.93 68.26 100.88 69.28 100.76 70.29C100.71 70.66 100.74 71.03 100.68 71.39C100.45 72.68 100.14 73.95 99.7698 75.19C99.6098 75.74 99.4898 76.3 99.3198 76.85C99.1598 77.56 98.8098 78.23 98.2998 78.81C98.1398 78.99 97.8798 78.85 97.6198 78.54C97.3698 78.24 97.0398 77.76 97.0198 77.36C97.0198 77 96.9798 76.64 97.0598 76.32C97.1298 75.99 97.1198 75.65 97.2298 75.33C97.4298 74.69 97.6498 74.04 97.8998 73.38C98.1998 72.59 98.1698 71.71 98.2398 70.86C98.3298 69.93 98.3798 68.99 98.4398 68.04C98.4598 67.46 98.4798 66.87 98.4398 66.28C98.3998 65.39 98.3498 64.5 98.2098 63.62C98.0998 62.94 97.8398 62.31 97.6598 61.66C97.6298 61.52 97.5798 61.38 97.5598 61.23C97.4498 60.69 97.5598 60.47 97.8498 60.25C97.9198 60.2 97.9798 60.14 98.0398 60.1C98.2398 59.98 98.5598 60.12 98.8498 60.48C99.0598 60.75 99.2598 61.03 99.4498 61.32C99.6198 61.62 99.7698 61.92 99.8998 62.24C100.18 62.87 100.4 63.52 100.59 64.19C100.8 65.19 100.89 66.22 100.96 67.24H100.9V67.25Z" fill="#231F20"/>
<path d="M78.65 65.58C73.62 65.86 68.6 65.72 63.62 65.25C61.8 65.07 59.98 64.91 58.17 64.61C55.23 64.11 52.29 63.46 49.44 62.4C48.02 61.86 46.61 61.22 45.3 60.27C44.65 59.79 44.02 59.22 43.55 58.44C43.08 57.66 42.85 56.69 43.03 55.7C43.24 54.91 43.62 54.56 43.95 54.12C44.97 52.95 46.15 52.05 47.39 51.25C48.63 50.45 49.94 49.8 51.28 49.27C52.13 48.9 53.02 48.62 53.89 48.32C54.79 48.1 55.67 47.83 56.59 47.69C58.39 47.28 60.25 47.24 62.08 47.41C63.22 47.51 63.06 47.5 62.14 47.86C61.68 48.04 61.04 48.35 60.28 48.71C59.9 48.89 59.5 49.13 59.06 49.3C58.61 49.44 58.15 49.57 57.67 49.72C56.42 50.03 55.22 50.47 54.02 50.86C52.82 51.26 51.65 51.72 50.54 52.27C49.44 52.84 48.33 53.39 47.36 54.11C46.87 54.46 46.41 54.84 46 55.24C45.81 55.44 45.6 55.64 45.46 55.84C45.28 56.05 45.21 56.2 45.21 56.19C45.1 56.61 45.21 57.23 45.73 57.83C46.22 58.44 46.99 58.99 47.8 59.46C49.6 60.46 51.74 61.11 53.89 61.61C56.06 62.11 58.29 62.44 60.51 62.72C65.39 63.33 70.34 63.55 75.28 63.41C78.31 63.32 81.35 63.09 84.33 62.6C86.58 62.22 88.83 61.73 90.89 60.89C91.92 60.48 92.89 59.93 93.62 59.24C93.97 58.89 94.26 58.5 94.41 58.1C94.56 57.71 94.52 57.47 94.33 57.08C94.01 56.51 93.37 55.97 92.7 55.51C92.02 55.05 91.27 54.64 90.5 54.28C88.95 53.56 87.33 52.98 85.68 52.46C84.95 52.23 84.23 52.05 83.49 51.84C80.76 51.04 79.97 50.72 79.47 49.9C79.35 49.73 79.18 49.58 79.11 49.45C78.82 49.07 80.23 48.46 82.41 48.85C84.04 49.08 85.63 49.52 87.24 50.01C88.84 50.52 90.44 51.12 92.03 51.91C92.82 52.31 93.61 52.75 94.4 53.31C95.17 53.89 95.96 54.57 96.62 55.72C96.93 56.32 97.19 57.11 97.1 57.99C97.07 58.2 97.02 58.41 96.97 58.62C96.92 58.81 96.85 58.94 96.79 59.1C96.67 59.42 96.49 59.67 96.33 59.95C95.62 60.97 94.75 61.6 93.9 62.11C91.38 63.58 88.83 64.19 86.29 64.71C83.75 65.2 81.2 65.47 78.66 65.65V65.59L78.65 65.58Z" fill="#231F20"/>
<path d="M75.3899 49.17L75.4699 51.52V52.72C75.4799 52.98 75.4699 53.4 75.4399 53.72C75.3799 54.06 75.2799 54.34 75.1499 54.64C74.8299 54.91 74.5699 55.2 74.1499 55.34C73.9599 55.43 73.7699 55.51 73.5499 55.56L73.2199 55.64L73.0099 55.68C72.4699 55.78 71.9399 55.85 71.4099 55.86C70.3999 55.86 69.4099 55.79 68.3399 55.55C68.1399 55.49 67.9499 55.45 67.7299 55.35C67.5199 55.26 67.3299 55.19 67.0899 55.02C66.5499 54.7 66.2599 54.2 66.0599 53.67C66.0399 53.4 66.0499 53.16 66.0599 52.91L66.1099 52.39L66.2099 51.44L66.3999 49.54C66.5199 48.28 66.6299 47.01 66.7099 45.75C66.8099 44.33 66.8099 42.9 66.8099 41.49C66.8099 40.59 66.7699 39.68 66.7299 38.78C66.6899 37.88 66.6799 36.98 66.8899 36.06C67.0099 35.48 67.1299 35.54 67.4899 35.99C67.8499 36.43 68.6499 37.29 68.6699 38.37C68.9999 42.17 68.7399 45.94 68.2499 49.69C68.1699 50.31 68.0999 50.94 68.0399 51.57L67.9599 52.52L67.9299 52.95C67.9299 53.02 67.9199 53.1 67.9299 53.14C67.9499 53.22 67.9999 53.29 68.0699 53.34C68.1199 53.37 68.0999 53.34 68.1799 53.4C68.2399 53.44 68.3399 53.46 68.4199 53.5C68.7799 53.62 69.2199 53.72 69.6699 53.73C70.3499 53.75 71.0599 53.65 71.7499 53.59C71.9199 53.57 72.0999 53.55 72.2599 53.52C72.3999 53.5 72.6499 53.45 72.6899 53.44C72.8199 53.41 72.9899 53.38 73.0999 53.28C73.1499 53.2 73.1399 53.09 73.1499 52.99V52.82V52.46L73.0999 50.98C73.0299 49.44 72.9299 47.89 72.7999 46.34C72.5999 44 72.4299 41.64 72.1299 39.33C72.0299 38.6 71.9099 37.87 71.7799 37.16L71.5599 36.1C71.5199 35.88 71.4999 35.87 71.4699 35.77C71.4399 35.7 71.4199 35.62 71.3799 35.56C71.2699 35.47 71.1099 35.47 70.9899 35.46C70.6799 35.46 70.3699 35.46 70.0499 35.45C69.3699 35.45 68.9199 35.36 68.5999 35.25C68.2799 35.1 68.0899 34.89 67.9099 34.66C67.8199 34.56 67.7199 34.49 67.6399 34.43C67.4999 34.33 67.5999 34.14 67.8799 33.86C68.1499 33.57 68.6099 33.32 69.1999 33.23C69.7499 33.11 70.2999 33.12 70.8799 33.14C71.0399 33.16 71.1399 33.14 71.3599 33.19C71.5899 33.23 71.8399 33.25 72.0599 33.32C72.2999 33.37 72.5099 33.47 72.7199 33.56C72.8999 33.69 73.0899 33.83 73.2699 33.99C73.5199 34.39 73.7099 34.88 73.8099 35.4L74.0199 36.34C74.1399 36.91 74.2399 37.49 74.3399 38.06C74.5299 39.21 74.6799 40.37 74.8299 41.53C75.1399 44.05 75.2699 46.6 75.4399 49.15H75.3799L75.3899 49.17Z" fill="#231F20"/>
<path d="M73.5899 22.69C73.0299 23.22 73.1799 26.9 69.8399 26.99C67.6499 27.05 70.6499 30.59 72.7799 29.35C74.9099 28.11 73.5899 22.7 73.5899 22.7V22.69Z" fill="#231F20"/>
<path d="M73.7002 29.96C72.7502 30.42 71.8802 30.46 71.0802 30.38C70.2802 30.28 69.5002 30.04 68.7702 29.52C68.2602 29.15 67.7002 28.61 67.5102 27.87C67.4202 27.54 67.4202 27.23 67.4302 26.99C67.4302 26.73 67.4802 26.47 67.5202 26.21C67.6402 25.7 67.8202 25.23 68.0602 24.81C68.5502 23.97 69.1702 23.33 69.7902 22.75C70.3402 22.24 70.8702 21.72 71.3502 21.22C71.9902 20.59 72.3002 19.92 72.8102 19.3C73.1602 19.13 73.2102 19.12 73.5902 19.48C73.9502 19.81 74.2402 20.59 73.9002 21.19C73.6202 21.72 73.2702 22.17 72.9102 22.57C72.5802 22.96 72.2002 23.26 71.8602 23.56C71.1602 24.16 70.5102 24.71 69.9702 25.31C69.6502 25.67 69.4502 26.09 69.3802 26.51C69.3502 26.72 69.3502 26.94 69.3602 27.15C69.3802 27.29 69.4202 27.41 69.4902 27.53C69.8202 28.11 71.1102 28.52 72.0502 28.32C72.6202 28.21 72.9802 27.96 73.1702 27.38C73.4702 26.51 73.3702 25.28 73.1702 24.16C73.0002 23.27 72.7302 22.4 72.5802 21.44C72.5502 21.22 72.5202 21.01 72.5202 20.79C72.5302 20.36 72.5802 20.07 72.7202 19.87C72.8902 19.67 73.0702 19.59 73.2902 19.56C73.3902 19.55 73.4802 19.53 73.5702 19.53C73.7102 19.54 73.8202 19.64 73.9402 19.79C74.0602 19.94 74.1902 20.09 74.2502 20.33C74.6902 21.67 75.3602 23.27 75.5202 25.16C75.5402 25.53 75.5902 25.87 75.5702 26.27L75.5502 26.86L75.4402 27.5C75.4102 27.7 75.3202 27.94 75.2402 28.17C75.1502 28.4 75.0802 28.62 74.9102 28.85C74.7502 29.07 74.6102 29.31 74.4102 29.49C74.2002 29.67 73.9702 29.84 73.7502 30L73.7202 29.96H73.7002Z" fill="#231F20"/>
<path d="M55.01 115.13C54.34 115.06 53.69 114.79 53.17 114.42C52.65 114.05 52.27 113.62 51.96 113.22C51.66 112.81 51.42 112.41 51.21 112.04C51.01 111.7 50.75 111.21 50.58 110.84C49.86 109.27 49.27 107.79 48.55 106.38C48.03 105.36 47.4 104.4 46.75 103.65C46.16 102.97 45.57 102.61 45.21 102.74C44.8 102.78 44.16 103.59 43.71 104.45C43.22 105.32 42.84 106.29 42.18 107.32C41.83 107.82 41.46 108.35 40.67 108.75C39.92 109.11 39.03 109 38.35 108.54C37.3 107.76 36.88 106.82 36.43 105.94C36 105.05 35.66 104.15 35.31 103.31C34.9 102.3 34.25 101.38 33.5 100.63C33.12 100.25 32.73 99.87 32.29 99.52L31.62 98.99C31.39 98.81 31.19 98.58 30.96 98.39C30.41 97.86 30.58 97.74 31.34 97.69C32.11 97.6 33.49 97.66 34.77 98.66C35.87 99.59 36.7 100.76 37.3 102.07C37.82 103.29 38.2 104.38 38.69 105.33C38.93 105.8 39.2 106.23 39.43 106.47C39.48 106.5 39.54 106.6 39.57 106.6C39.6 106.61 39.56 106.62 39.59 106.63C39.6 106.65 39.62 106.63 39.63 106.65C39.65 106.67 39.66 106.67 39.68 106.67C39.73 106.67 39.72 106.7 39.87 106.58C39.99 106.47 40.14 106.31 40.28 106.11C40.56 105.73 40.84 105.19 41.13 104.65C41.49 104 41.83 103.3 42.3 102.58C42.77 101.9 43.35 101.05 44.54 100.64C44.83 100.53 45.13 100.53 45.42 100.52C45.72 100.49 46 100.56 46.27 100.64C46.41 100.68 46.55 100.71 46.67 100.76L47.01 100.94C47.24 101.06 47.47 101.19 47.63 101.34C48.4 101.92 48.89 102.59 49.37 103.26C50.37 104.74 51.09 106.28 51.78 107.8C52.46 109.32 53.12 110.82 54.01 111.92C54.55 112.55 55.1 112.78 55.84 112.63C56.58 112.48 57.36 111.95 58.02 111.32C58.97 110.36 59.83 108.98 60.96 107.8C61.54 107.21 62.16 106.59 63.11 106.25C63.57 106.06 64.14 106.04 64.66 106.12C65.16 106.23 65.6 106.45 65.98 106.72C67.14 107.57 67.82 108.62 68.52 109.6C69.2 110.59 69.83 111.58 70.52 112.38C70.82 112.73 71.14 113.02 71.43 113.21C71.7 113.39 71.86 113.45 72 113.48C72.14 113.52 72.27 113.54 72.41 113.56C72.7 113.6 72.99 113.68 73.32 113.86C73.47 113.94 73.66 114 73.8 114.1C74.03 114.26 74.05 114.53 73.8 114.92C73.65 115.1 73.46 115.33 73.11 115.5C72.78 115.69 72.29 115.83 71.71 115.81C70.84 115.76 70.09 115.35 69.56 114.92C69.01 114.48 68.59 114.01 68.22 113.54C67.48 112.6 66.9 111.65 66.31 110.79C65.73 109.94 65.11 109.13 64.59 108.77C64.36 108.6 64.11 108.55 64.12 108.57C64.09 108.57 63.88 108.63 63.6 108.85C63.18 109.15 62.69 109.71 62.22 110.3C61.74 110.9 61.26 111.56 60.68 112.26C60.39 112.6 60.02 113.02 59.65 113.34C59.28 113.67 58.88 113.99 58.43 114.27C57.55 114.82 56.4 115.33 55.01 115.19V115.13Z" fill="#231F20"/>
<path d="M61.11 72.65C60.54 73.12 59.95 73.72 59.23 74.3C58.51 74.87 57.6 75.45 56.5 75.66C56.11 75.77 55.7 75.75 55.3 75.78C54.91 75.76 54.52 75.7 54.14 75.6C53.43 75.39 52.8 74.97 52.34 74.51C51.87 74.04 51.51 73.53 51.21 73.03C50.62 72.02 50.22 71.01 49.78 70.06C49.41 69.22 48.92 68.44 48.42 67.88C48.09 67.5 47.73 67.37 47.37 67.2C46.99 67.07 46.44 67.04 45.86 67.15C45.49 67.2 45.47 67.1 45.65 66.75C45.74 66.56 45.89 66.32 46.13 66.04C46.37 65.76 46.74 65.46 47.26 65.37C47.71 65.28 48.24 65.27 48.7 65.45C49.14 65.63 49.56 65.88 49.87 66.16C50.55 66.7 50.94 67.32 51.26 67.92C51.9 69.11 52.31 70.25 52.76 71.29C53.03 71.91 53.41 72.45 53.83 72.83C54.28 73.2 54.66 73.38 55.25 73.46C55.83 73.55 56.41 73.46 57.01 73.14C57.62 72.83 58.22 72.33 58.83 71.78C59.6 71.12 60.42 70.34 61.61 69.89C61.84 69.82 62.09 69.78 62.33 69.74C62.58 69.73 62.83 69.74 63.07 69.76C63.54 69.85 64 69.99 64.41 70.23C65.26 70.71 65.78 71.48 66.2 72.16C66.84 73.24 67.47 74.21 68.19 74.64C68.36 74.71 68.51 74.79 68.68 74.83C68.82 74.91 68.95 74.96 69.06 75.01C69.17 75.06 69.25 75.14 69.34 75.21C69.5 75.38 69.6 75.59 69.69 75.86C69.73 75.98 69.79 76.1 69.82 76.21C69.87 76.4 69.79 76.55 69.59 76.73C69.38 76.89 69.04 77.13 68.56 77.07C67.86 77.09 67.1 76.76 66.51 76.31C65.9 75.85 65.47 75.28 65.14 74.76C64.48 73.7 64.06 72.78 63.6 72.37C62.89 71.82 62.29 71.64 61.13 72.74L61.09 72.7L61.11 72.65Z" fill="#231F20"/>
<path d="M66.4498 17.06C66.5798 17.06 66.5098 17.24 66.3298 17.53C66.2698 17.62 66.0498 17.85 65.9998 17.87C65.8998 17.9 65.7998 17.93 65.7198 17.95C65.6698 17.95 65.1598 17.77 64.9698 17.72C64.7898 17.67 64.6398 17.59 64.4998 17.49C64.2198 17.3 63.9298 17.11 63.6498 16.93C63.5898 16.89 63.5398 16.83 63.5098 16.76C63.3998 16.51 63.1998 16.35 62.9598 16.22C62.9198 16.2 62.8898 16.16 62.8098 16.19C62.7398 16.21 62.5598 16.13 62.3998 16.02C62.2498 15.89 62.1198 15.75 62.1098 15.69C62.0498 15.43 61.9498 15.2 61.8698 14.96C61.8598 14.93 61.8098 14.92 61.8498 14.84C61.9498 14.64 61.8698 14.62 61.8398 14.55C61.8098 14.44 61.7798 14.33 61.7798 14.19C61.7998 14.1 61.8498 13.97 61.8798 13.88C61.9098 13.79 62.0498 13.67 62.0798 13.66C62.1598 13.64 62.2098 13.54 62.2598 13.47C62.2798 13.45 62.3098 13.42 62.3198 13.4C62.3798 13.35 63.3298 13.14 63.3198 13.23C63.3198 13.23 63.4998 13.34 63.6998 13.45C63.8898 13.56 64.0898 13.67 64.1398 13.69C64.1898 13.71 64.1898 13.78 64.2098 13.83C64.2298 13.83 64.7798 14.19 64.7898 14.22C64.8598 14.34 64.9998 14.39 64.9598 14.62C64.9598 14.67 64.9798 14.68 64.9998 14.7C65.1698 14.85 65.2698 15.08 65.3998 15.28C65.4598 15.38 65.5598 15.46 65.6298 15.55C65.6398 15.57 65.6398 15.6 65.6498 15.62C65.6498 15.65 65.6598 15.69 65.6798 15.7C65.8698 15.9 65.9998 16.17 66.2298 16.33C66.2798 16.37 66.3698 16.72 66.4398 16.76C66.4698 16.78 66.4098 17.05 66.4598 17.05L66.4498 17.06Z" fill="#231F20"/>
<path d="M71.1101 13.6C71.2301 13.68 71.0701 13.83 70.7501 14.01C70.6501 14.07 70.3201 14.17 70.2601 14.15C70.1501 14.12 70.0301 14.09 69.9501 14.05C69.9001 14.02 69.4901 13.49 69.3301 13.31C69.1701 13.14 69.0801 12.95 69.0001 12.75L68.4901 11.56C68.4501 11.47 68.4401 11.38 68.4501 11.28C68.5101 10.93 68.4401 10.62 68.3101 10.31C68.2901 10.26 68.2901 10.2 68.2001 10.17C68.0501 10.12 67.8401 9.26003 67.8701 9.13003C67.9601 8.82003 67.9801 8.53003 68.0901 8.22003C68.1001 8.18003 68.0701 8.14003 68.1601 8.09003C68.3701 7.97003 68.3201 7.89003 68.3301 7.80003C68.3701 7.67003 68.4201 7.54003 68.5001 7.41003C68.5701 7.34003 68.6901 7.26003 68.7701 7.19003C68.8401 7.12003 69.0201 7.13003 69.0501 7.14003C69.1301 7.18003 69.2201 7.12003 69.3001 7.11003C69.3301 7.11003 69.3601 7.10003 69.3901 7.09003C69.4601 7.09003 70.3901 7.61003 70.3501 7.69003C70.3501 7.69003 70.4801 7.93003 70.5701 8.17003C70.6601 8.41003 70.7601 8.67003 70.7901 8.72003C70.8201 8.77003 70.7901 8.84003 70.7601 8.90003C70.7501 8.93003 71.0701 9.65003 71.0701 9.68003C71.0701 9.84003 71.1901 9.98003 71.0301 10.18C71.0001 10.22 71.0201 10.25 71.0301 10.28C71.1301 10.54 71.0901 10.83 71.0901 11.12C71.0901 11.27 71.1301 11.4 71.1501 11.54C71.1501 11.57 71.1301 11.6 71.1201 11.63C71.1201 11.67 71.0901 11.7 71.1001 11.73C71.1701 12.06 71.1401 12.41 71.2801 12.72C71.3101 12.79 71.2101 13.21 71.2501 13.29C71.2701 13.34 71.0701 13.57 71.1201 13.6H71.1101Z" fill="#231F20"/>
<path d="M78.0499 15.48C78.0899 15.63 77.8699 15.61 77.4899 15.52C77.3699 15.49 77.0399 15.32 77.0099 15.26C76.9499 15.16 76.8899 15.05 76.8599 14.96C76.8399 14.9 76.9799 14.23 77.0199 13.99C77.0599 13.76 77.1599 13.56 77.2599 13.37C77.4799 12.98 77.6999 12.58 77.9499 12.21C77.9999 12.13 78.0699 12.05 78.1599 11.99C78.4599 11.79 78.6699 11.52 78.8499 11.23C78.8799 11.18 78.9299 11.14 78.9099 11.06C78.8799 10.91 79.4699 10.19 79.5999 10.14C79.9399 9.97997 80.1799 9.86997 80.4599 9.73997C80.4999 9.71997 80.5199 9.66997 80.6099 9.70997C80.8199 9.79997 80.8699 9.71997 80.9599 9.68997C81.0799 9.63997 81.2099 9.58997 81.3499 9.55997C81.4199 9.54997 81.5299 9.56997 81.6199 9.58997C81.6999 9.59997 81.8099 9.76997 81.8199 9.79997C81.8199 9.88997 81.9199 9.92997 81.9799 9.98997C81.9999 10.01 82.0299 10.04 82.0399 10.06C82.0399 10.08 81.9399 10.96 81.9299 11.04C81.9299 11.08 81.3799 11.87 81.3299 11.97C81.3099 12.02 81.2299 12.03 81.1699 12.06C81.1399 12.06 80.7399 12.73 80.7199 12.75C80.5999 12.85 80.5499 13.02 80.3299 13.04C80.2899 13.04 80.2699 13.07 80.2499 13.1C80.0999 13.33 79.8799 13.5 79.6899 13.7C79.5899 13.8 79.5299 13.93 79.4399 14.04C79.4299 14.06 79.3899 14.07 79.3699 14.08C79.3399 14.1 79.3099 14.11 79.2899 14.14C79.1199 14.42 78.8599 14.66 78.7499 14.97C78.7199 15.04 78.3799 15.27 78.3599 15.36C78.3499 15.41 78.0399 15.43 78.0599 15.49L78.0499 15.48Z" fill="#231F20"/>
</svg>
