<svg width="128" height="128" viewBox="0 0 128 128" fill="none" xmlns="http://www.w3.org/2000/svg">
<path d="M23.4501 91.23C21.7301 90.76 19.8901 90.4 18.0601 90.01C17.3901 89.87 16.7101 89.78 16.0501 89.62C13.6901 89.07 11.3601 88.36 9.09011 87.44C8.09011 87.02 7.07011 86.62 6.15011 86.04C4.96011 85.33 3.84011 84.45 2.97011 83.38C2.70011 83.05 2.79011 83.04 3.14011 83.2C3.47011 83.37 4.11011 83.62 4.79011 83.95C5.39011 84.25 6.00011 84.52 6.62011 84.75C7.24011 84.99 7.88011 85.16 8.48011 85.45C9.70011 85.97 10.9601 86.43 12.2501 86.88C13.8001 87.41 15.4901 87.68 17.1501 88.01C18.9701 88.37 20.8101 88.7 22.6701 89.09C23.8101 89.34 24.9601 89.59 26.1401 90.11C26.3901 90.23 26.6301 90.36 26.8801 90.55C27.1401 90.75 27.3801 91.04 27.5201 91.35C27.5901 91.57 27.6501 91.78 27.6901 91.99C27.6901 92.21 27.6901 92.44 27.6501 92.65C27.5501 93.08 27.3501 93.44 27.1101 93.75C26.6301 94.36 26.0501 94.73 25.4901 95.09C24.2701 95.84 23.0201 96.41 21.7301 96.89C21.4501 97 21.1701 97.11 20.8801 97.19C19.7901 97.5 19.4001 97.42 19.0701 96.97C18.9901 96.87 18.9001 96.77 18.8501 96.66C18.6701 96.29 19.0401 95.89 19.7601 95.58C20.8301 95.12 21.9301 94.67 22.9601 94.16C23.4701 93.9 23.9801 93.64 24.4401 93.37C24.8901 93.1 25.3201 92.8 25.5301 92.54C25.7501 92.24 25.7201 92.26 25.7201 92.15C25.6701 92.14 25.8001 92.18 25.6201 92.07C25.4901 91.98 25.2801 91.87 25.0501 91.77C24.5801 91.58 24.0301 91.41 23.4601 91.27V91.22L23.4501 91.23Z" fill="#231F20"/>
<path d="M115.29 98.64C116.45 98.35 117.67 98.01 118.79 97.6C119.2 97.45 119.59 97.25 119.98 97.08C121.38 96.51 122.69 95.72 123.53 94.49C123.94 93.97 124.19 93.34 124.4 92.7C124.5 92.28 124.6 91.86 124.66 91.42C124.76 90.99 124.82 90.54 124.9 90.09C124.96 89.81 125.07 89.84 125.22 90.09C125.36 90.33 125.65 90.79 125.7 91.35C125.81 92.34 125.65 93.38 125.31 94.39C124.99 95.41 124.24 96.28 123.44 96.94C122.46 97.72 121.44 98.46 120.35 98.99C119.16 99.57 117.91 99.95 116.69 100.33L114.43 100.97C113.34 101.3 112.27 101.69 111.51 102.4C110.91 102.95 110.63 103.68 110.51 104.41C110.47 104.57 110.49 104.74 110.46 104.91C110.37 105.52 110.28 105.73 109.7 105.87C109.57 105.9 109.44 105.95 109.32 105.97C108.89 106.05 108.55 105.73 108.46 105.09C108.38 104.16 108.55 103.09 109.1 102.13C109.64 101.18 110.5 100.41 111.39 99.94C112.72 99.21 114.07 98.93 115.26 98.6L115.28 98.65L115.29 98.64Z" fill="#231F20"/>
<path d="M11.0301 84.38C2.42008 81.24 12.4201 75.03 17.4701 73.95C17.4701 73.95 7.06008 75.65 5.40008 78.19C3.74008 80.73 6.46008 83.05 6.46008 83.05L11.0301 84.38Z" fill="#231F20"/>
<path d="M19.0801 98C15.6501 99.62 16.4601 103.25 19.6901 105.27C22.9201 107.29 14.8301 104.56 14.5301 101.38C14.2401 98.2 19.0801 98 19.0801 98Z" fill="#231F20"/>
<path d="M112.05 98.7C112.05 98.7 121.94 96.58 120.43 89.92C119.61 86.33 125.48 91.1 123.66 94.09C121.84 97.08 116.69 98.7 116.69 98.7H112.05Z" fill="#231F20"/>
<path d="M105.83 102.74C105.83 102.74 109.93 105.97 104.92 110.85C101.94 113.76 109.22 108.93 109.42 106.8C109.62 104.67 105.83 102.75 105.83 102.75V102.74Z" fill="#231F20"/>
<path d="M84.0999 57.08C84.0999 57.08 88.7299 54.92 88.7299 55.75C88.7299 58.02 85.2499 61.35 84.8699 63.25C84.3299 65.94 85.6999 72.52 85.6999 72.52L86.1399 66.65L87.3699 62.03C87.3699 62.03 93.8699 54.16 94.0199 52.38C94.1699 50.6 83.4199 54.25 83.4199 54.25L84.0899 57.08H84.0999Z" fill="#231F20"/>
<path d="M56.2699 54.61C56.5599 53.92 54.9199 49.7 51.0599 49.13C50.2599 49.01 43.9399 54.51 46.0799 57.12C46.9499 58.18 48.5999 59.66 48.9699 61.01C49.4299 62.73 45.5499 58.73 45.5499 58.73L42.1099 55.1L48.7599 47.73L49.3199 47.14C49.1799 47.03 49.0699 46.96 48.9799 46.89C48.2199 46.39 49.7499 44.85 49.7499 44.85L57.7899 51.62L56.2799 54.61H56.2699Z" fill="#231F20"/>
<path d="M48.7499 61.88C48.7499 61.88 47.4599 65.21 49.5799 67.19C51.4099 68.9 45.1099 64.98 45.1099 64.98L48.7399 61.88H48.7499Z" fill="#231F20"/>
<path d="M66.4698 76.21C64.0898 75.55 48.9698 77.85 48.9698 84.38C48.9698 90.41 56.1798 91.43 56.1798 91.43C56.1798 91.43 46.0298 91.28 44.0698 87.29C42.0998 83.3 42.9598 80.73 46.1898 78.76C49.4198 76.79 57.4998 74.67 57.4998 74.67L66.4798 76.2L66.4698 76.21Z" fill="#231F20"/>
<path d="M42.0999 85.2C42.0999 85.2 42.0999 82.4 40.1999 80.58C39.2599 79.69 34.9699 78.95 33.6099 76.79C32.2499 74.64 45.6099 79.13 45.6099 79.13L42.0999 85.2Z" fill="#231F20"/>
<path d="M80.5499 82.55C80.4199 82.25 79.0399 78.52 81.8399 76.71C84.2099 75.18 76.6899 78.52 76.6899 78.52L80.5499 82.55Z" fill="#231F20"/>
<path d="M47.52 77.25C27.25 77.31 22.51 62.07 24.02 56.01C24.02 56.01 22.93 62.08 23.63 65.55C24.33 69.02 29.17 73.87 30.69 74.68C32.21 75.49 44.71 80.71 44.71 80.71L47.53 77.25H47.52Z" fill="#231F20"/>
<path d="M105.83 63.97C103.47 80.71 93.1401 84.65 87.8901 86.09C87.8901 86.09 99.5801 84.07 103 78.2C106.1 72.88 107.25 68.36 107.25 68.36L105.83 63.97Z" fill="#231F20"/>
<path d="M85.0698 54.82C85.0698 54.82 84.9698 54.82 84.9298 54.87C84.9098 54.89 84.8998 54.91 84.8898 54.94C84.8898 54.97 84.8798 54.94 84.8798 55.02V55.28C84.8798 55.99 84.9498 56.77 84.9898 57.57C85.0198 58.16 85.1298 58.74 85.0698 59.45C85.0698 59.58 85.0398 59.72 85.0098 59.93L84.8298 60.51C84.7498 60.7 84.6398 60.87 84.5298 61.04C84.3998 61.2 84.2698 61.35 84.1298 61.49C83.9798 61.61 83.8498 61.72 83.7198 61.81C83.1898 62.16 82.7098 62.35 82.2698 62.54L81.6498 62.8L81.4498 62.88C81.4498 62.88 81.3598 62.92 81.3098 62.95C81.1098 63.04 80.9998 63.26 81.0698 63.48L81.2698 64.68C81.3398 65.13 81.4398 65.57 81.4698 66.01L81.6798 67.67C81.7198 68.22 81.6998 68.77 81.6998 69.32C81.6998 69.66 81.4098 69.73 80.9698 69.54C80.5398 69.35 79.8798 68.89 79.5798 68.24C79.1898 67.08 78.8998 65.94 78.8098 64.87L78.7498 64.48L78.7198 64.29L78.6698 64.03C78.5998 63.76 78.5898 63.49 78.5498 63.23C78.5898 62.97 78.5498 62.71 78.6698 62.47C78.8498 61.98 79.1698 61.55 79.5998 61.25C79.7998 61.09 80.0398 60.96 80.2698 60.84C80.4698 60.75 80.5998 60.7 80.7598 60.64C81.2998 60.45 81.7798 60.26 82.1298 60.04C82.3098 59.93 82.4298 59.82 82.4698 59.77C82.5298 59.7 82.5598 59.62 82.5798 59.53C82.5898 59.44 82.5998 59.08 82.5898 58.82C82.5798 58.12 82.5098 57.34 82.4498 56.56C82.4198 56.16 82.3898 55.76 82.3798 55.34C82.3798 55.17 82.3598 54.81 82.3798 54.52C82.3998 54.22 82.4798 53.93 82.6298 53.67C82.8198 53.36 83.0898 53.1 83.3898 52.89C83.5398 52.8 83.7098 52.69 83.8598 52.62C83.9898 52.56 84.1198 52.49 84.2498 52.45C84.7598 52.24 85.2498 52.1 85.7398 51.97C87.2098 51.59 88.6698 51.4 90.0898 51.1C91.1898 50.87 92.2398 50.51 93.2798 50.19C93.5098 50.12 93.7298 50.06 93.9698 50.02C94.8398 49.87 95.1298 49.96 95.4698 50.41C95.5498 50.51 95.6398 50.61 95.6998 50.71C95.9198 51.05 95.6498 51.52 95.0198 51.9C94.5498 52.16 94.0798 52.47 93.5798 52.62C93.0798 52.79 92.5798 52.94 92.0798 53.08C91.0698 53.35 90.0498 53.56 89.0498 53.78C88.3098 53.94 87.5798 54.1 86.8798 54.28C86.1998 54.45 85.4798 54.69 85.0898 54.9L85.0598 54.85L85.0698 54.82Z" fill="#231F20"/>
<path d="M84.5099 69.38V66.64C84.5099 66.16 84.5099 65.69 84.5499 65.16C84.5699 64.91 84.5999 64.61 84.6599 64.29C84.7599 63.96 84.8599 63.56 84.9999 63.34C85.3799 62.55 85.7599 61.98 86.1999 61.4C87.7699 59.51 89.3899 57.88 90.8499 56.08C91.4799 55.28 92.0299 54.42 92.5699 53.57C92.9299 53.03 93.1799 52.45 93.5099 51.89C93.6599 51.61 93.8299 51.33 93.9999 51.05C94.1499 50.76 94.2999 50.48 94.4499 50.18C94.6499 49.82 94.7699 49.89 94.8999 50.29C95.0199 50.68 95.2499 51.46 95.1299 52.3C95.0999 52.68 94.9899 53.03 94.8699 53.37C94.7599 53.72 94.6399 54.07 94.4999 54.4C94.2299 55.08 93.9399 55.74 93.5299 56.32C92.7399 57.5 91.8599 58.6 90.8899 59.6C89.7299 60.78 88.7099 62.17 87.7999 63.43L87.4699 63.94C87.3699 64.11 87.2999 64.26 87.2099 64.42C87.1599 64.57 87.1199 64.64 87.0799 64.8C87.0499 64.96 87.0399 65.16 87.0299 65.37C86.9899 66.2 87.0299 67.13 87.0499 68.05C87.0799 69.19 87.0999 70.35 87.0299 71.54C86.9899 72 86.9499 72.46 86.8399 72.94C86.7299 73.41 86.5599 73.96 86.1699 74.46C85.4099 75.31 84.5299 75.69 83.7399 76.09C82.4999 76.67 81.3699 77.29 80.2999 77.94C80.0599 78.08 79.8399 78.25 79.5999 78.39C78.6999 78.88 78.3999 78.97 77.7599 78.37C77.6299 78.26 77.4999 78.18 77.4199 78.1C77.1799 77.92 77.0999 76.93 77.7999 76.47C78.7599 75.66 79.8799 74.99 80.9999 74.45C82.0899 73.9 83.2799 73.45 83.8699 73.01C83.9799 72.93 84.0699 72.83 84.1299 72.79C84.0899 72.79 84.1799 72.76 84.2399 72.47C84.3099 72.23 84.3499 71.91 84.3899 71.57C84.4499 70.89 84.4599 70.14 84.4499 69.38H84.5099Z" fill="#231F20"/>
<path d="M107.71 67.19C107.73 70.25 106.96 73.39 105.48 76.04C105.25 76.55 104.91 76.99 104.64 77.47C104.49 77.7 104.35 77.94 104.2 78.17L103.68 78.81C101.24 81.84 97.8998 83.85 94.4598 85.19C93.6698 85.43 92.9198 85.78 92.1098 85.96L90.9198 86.29C90.5198 86.37 90.1098 86.42 89.7098 86.49C89.1898 86.58 88.6798 86.66 88.1498 86.68C87.6298 86.7 87.1098 86.78 86.5798 86.74C85.5398 86.68 84.4798 86.69 83.4898 86.24C82.8798 86 82.9798 85.99 83.5398 85.79C84.1098 85.53 85.0798 85.25 86.1798 85.09C90.0698 84.52 93.7098 83.24 97.0798 81.25C99.0898 80.03 100.77 78.21 102.07 76.26C103.52 74.11 104.41 71.64 104.63 69.04C104.74 67.44 104.63 65.8 104.29 64.2C103.74 61.8 102.86 59.39 101.42 57.37C100.32 55.79 98.8698 54.55 97.3398 53.57C96.9998 53.36 96.6698 53.16 96.3198 52.95C95.0498 52.2 94.6798 51.91 94.6298 51.06C94.6198 50.87 94.5798 50.68 94.5898 50.51C94.6098 49.95 95.4398 49.69 96.7398 50.08C97.1998 50.25 97.6898 50.4 98.1498 50.62C98.5998 50.84 99.0598 51.07 99.5098 51.32L100.76 52.21C101.15 52.54 101.53 52.89 101.92 53.24C103.4 54.68 104.61 56.41 105.56 58.25C106.99 61 107.64 64.1 107.77 67.19H107.69H107.71Z" fill="#231F20"/>
<path d="M58.8701 50.44C58.9901 50.61 59.0801 50.79 59.1601 50.97L59.2201 51.11C59.2201 51.11 59.2101 51.17 59.2901 51.17L59.3101 51.24C59.3401 51.34 59.3201 51.44 59.3101 51.53L59.2301 52.13L58.9801 52.77L58.6301 53.41L58.3101 53.95L57.9001 54.62C57.3501 55.51 56.8001 56.38 56.3201 57.25C56.1401 57.56 55.9801 57.91 55.8701 58.17C55.8301 58.26 55.8101 58.34 55.8301 58.44C55.8701 58.55 55.8301 58.53 56.0201 58.78C56.1801 58.98 56.3801 59.18 56.6001 59.38C57.0301 59.79 57.5501 60.17 58.0601 60.55C58.5801 60.93 59.1201 61.3 59.6701 61.66L60.5101 62.19C60.9101 62.45 61.4201 62.7 61.6901 63.04C61.7201 63.08 61.7601 63.11 61.7901 63.15C61.8001 63.2 61.8101 63.25 61.8201 63.3C61.8301 63.4 61.8301 63.5 61.8401 63.6C61.8301 63.8 61.8401 64.01 61.7801 64.22C61.6701 64.65 61.5001 65.13 61.4201 65.36C61.2201 65.93 61.0201 66.5 60.8201 67.06C60.5501 67.78 60.3401 68.51 60.0001 69.2C59.8401 69.55 59.6701 69.89 59.4801 70.23L59.2001 70.73C59.1001 70.89 58.9301 71.03 58.8001 71.18C58.4301 71.54 58.3801 71.45 58.2401 70.95C58.0201 70.42 57.8301 69.56 58.0401 68.72C58.2001 67.96 58.4501 67.24 58.7101 66.52L59.4401 64.38C59.4401 64.38 59.5601 64.28 59.4901 64.19C59.5101 64.19 59.4201 64.14 59.3301 64.09L59.0801 63.94L58.5701 63.63C58.2301 63.42 57.9001 63.19 57.5701 62.96C56.7701 62.4 55.9501 61.85 55.1301 61.18C54.7101 60.82 54.3401 60.52 53.8901 59.92C53.4201 59.28 53.1501 58.44 53.4601 57.69C53.5301 57.5 53.6201 57.25 53.6801 57.13L53.8601 56.74C53.9901 56.49 54.1101 56.25 54.2401 56.01C54.5001 55.53 54.7701 55.07 55.0401 54.61L55.8501 53.25L56.2301 52.62L56.4201 52.32C56.4701 52.2 56.6401 52.05 56.5601 51.91C56.4601 51.81 56.3401 51.72 56.2101 51.63L56.0101 51.49L55.6001 51.25L54.7601 50.76C53.0701 49.75 51.4501 48.57 49.8301 47.43C48.5801 46.54 47.2701 45.73 46.0601 44.71C45.7901 44.49 45.5201 44.28 45.2701 44.03C44.3601 43.08 44.3101 42.56 44.7401 41.91C44.8401 41.76 44.9301 41.59 45.0501 41.47C45.4601 41.04 46.1201 41.15 46.8101 41.64C48.8201 43.15 50.9101 44.73 53.1701 46.25L55.7201 47.93L56.9801 48.86C57.2201 49.05 58.3301 49.78 58.9201 50.39L58.8601 50.43L58.8701 50.44Z" fill="#231F20"/>
<path d="M44.2898 55.42C44.2898 55.42 44.3098 55.47 44.3198 55.49C44.3498 55.52 44.2898 55.49 44.3898 55.57L44.7098 55.85L46.0098 56.99L47.3098 58.15C47.5898 58.42 48.5998 59.23 49.1498 59.92C49.2798 60.1 49.3898 60.28 49.4698 60.46C49.5098 60.55 49.5398 60.64 49.5398 60.74L49.5198 60.89V60.93L49.5098 60.95V60.96C49.4898 60.96 49.6898 60.95 49.6098 60.96L49.5998 61.03C49.5698 61.36 49.4498 61.76 49.1398 62.15L48.1998 63.26L47.4598 64.09L47.2998 64.27L47.2398 64.32L47.1098 64.44C47.0298 64.53 46.9098 64.61 46.8698 64.73C46.9198 64.83 47.0198 64.9 47.1098 64.99L47.2598 65.12L47.3498 65.2L47.5698 65.36L48.4598 66.02C49.0498 66.47 49.6398 66.94 50.2198 67.41C51.2498 68.25 52.3098 69.07 53.3198 69.95C53.9698 70.51 54.5598 71.15 55.1098 71.82C55.6598 72.49 56.1398 73.25 56.4098 74.1C56.5798 74.63 56.3298 74.67 55.7998 74.49C55.4698 74.37 55.1198 74.25 54.7898 74.13C54.4098 73.97 54.0398 73.75 53.6898 73.47C53.0898 72.95 52.4298 72.49 51.7998 72C51.1998 71.48 50.5698 70.97 49.9298 70.46C48.6498 69.44 47.3098 68.48 45.9998 67.37C45.4498 66.92 44.5398 66.39 44.1898 65.8C44.1098 65.65 44.0598 65.5 43.9898 65.35C43.9398 65.28 43.9698 65.19 43.8698 65.11C43.8698 65.02 43.8698 64.95 43.8898 64.86C43.9898 64.54 44.0998 64.18 44.3298 63.84C44.5598 63.49 44.8198 63.15 45.0798 62.81L45.6198 62.11L46.0698 61.55L46.2398 61.36L46.2698 61.33C46.3198 61.26 46.4398 61.19 46.4498 61.1C46.3998 61.02 46.3398 60.95 46.2698 60.88L46.0498 60.66L45.4498 60.14L42.7998 57.96L41.6298 57.03C41.1898 56.7 40.8998 56.3 40.7498 55.95C40.6998 55.05 41.4798 54.17 42.1498 53.4C43.5698 51.77 45.1198 50.23 46.1598 48.51C46.3298 48.22 46.3798 48.09 46.4398 47.86C46.4598 47.76 46.4698 47.65 46.4098 47.56C46.3398 47.48 46.2498 47.41 46.1798 47.34L46.0498 47.22L45.8398 46.98C45.6898 46.8 45.5398 46.63 45.3998 46.44C45.1098 46.08 44.8498 45.69 44.5998 45.27C44.3998 44.92 44.1798 44.58 44.0298 44.17C43.8798 43.8 43.8098 43.47 43.7598 43.19C43.7498 42.89 43.7698 42.66 43.8398 42.45C43.9698 42.05 44.2098 41.83 44.5698 41.69C44.7298 41.63 44.8898 41.55 45.0398 41.53C45.5498 41.48 45.9298 41.99 46.3898 42.62C46.6398 43.13 46.9698 43.65 47.3498 44.17C47.5298 44.43 47.7398 44.68 47.9398 44.94L48.7998 45.99C49.0298 46.29 49.2298 46.58 49.3098 46.91C49.4098 47.25 49.4198 47.61 49.3798 47.96C49.3398 48.31 49.1998 48.66 49.0598 49.01L48.7998 49.52C48.7098 49.69 48.5998 49.86 48.5498 49.94C48.0698 50.71 47.5698 51.35 47.0698 51.99C46.3498 52.94 45.6198 53.86 44.8998 54.75L44.4498 55.3C44.4498 55.3 44.4298 55.3 44.4098 55.31C44.3798 55.32 44.3498 55.35 44.3698 55.37L44.2898 55.4V55.42Z" fill="#231F20"/>
<path d="M23.5599 68.78C22.5399 67.2 21.7999 65.38 21.4499 63.46C21.3199 62.51 21.2099 61.48 21.3299 60.57C21.4199 59.64 21.4399 58.71 21.6899 57.81C21.9199 56.47 22.3299 55.18 22.8399 53.93C23.8299 51.76 25.2199 49.84 26.7999 48.13C28.3999 46.44 30.2999 45.09 32.2699 43.91C34.0399 42.9 35.8999 42.05 37.8099 41.39C40.2799 40.69 42.9899 40.19 45.5199 41C46.2999 41.25 46.1599 41.29 45.4799 41.55C45.1399 41.67 44.6699 41.93 44.1299 42.09C43.8599 42.21 43.5699 42.33 43.2699 42.44C43.1199 42.5 42.9599 42.54 42.8099 42.61C42.6499 42.64 42.4899 42.67 42.3299 42.69L40.5999 43.12L38.9099 43.69C38.3599 43.91 37.7999 44.1 37.2399 44.3C36.6799 44.48 36.1499 44.78 35.5999 45.01C33.4499 46.03 31.4199 47.34 29.5799 48.91C27.3499 50.78 25.7099 53.42 24.7499 56.18C24.1799 57.69 23.9299 59.3 23.8199 60.92C23.6999 62.49 24.0699 64.04 24.6799 65.53C25.4799 67.34 26.6899 69.01 28.1399 70.45C30.3399 72.64 33.0199 74.44 35.8899 75.66C38.1299 76.59 40.4799 77.13 42.8099 77.3C43.3199 77.34 43.8299 77.34 44.3399 77.34C46.2299 77.33 46.7999 77.39 47.3299 77.97C47.4499 78.1 47.6099 78.22 47.6899 78.36C47.9899 78.78 47.2299 79.44 45.6199 79.7C43.2499 80.03 40.8099 79.73 38.4499 79.13C36.0999 78.51 33.8199 77.53 31.6799 76.3C28.5299 74.45 25.6199 72.01 23.5099 68.81L23.5599 68.77V68.78Z" fill="#231F20"/>
<path d="M69.9202 114.21C68.6302 113.7 67.3802 113.18 66.1002 112.58C64.7202 111.91 63.6102 111.2 62.4602 110.56C60.2102 109.27 57.9402 108.21 55.5402 107.56C53.1502 106.94 50.6602 106.67 48.1802 106.87C45.7102 107.05 43.1902 107.68 40.6002 108.34C36.8502 109.31 32.8302 110.45 28.5802 110.21C25.4602 110.02 22.4602 109.25 19.6302 107.99C18.2202 107.35 16.8502 106.56 15.5902 105.5C15.2702 105.23 14.9802 104.92 14.6802 104.63C14.4002 104.28 14.1102 103.96 13.8702 103.55C13.3502 102.79 12.9802 101.73 13.0602 100.59C13.1502 100.04 13.2602 99.47 13.6002 98.95C13.9102 98.45 14.2802 98.09 14.6502 97.78C15.4002 97.19 16.1402 96.84 16.8602 96.52C18.3102 95.9 19.7202 95.48 21.1002 95.04C22.4702 94.6 23.8302 94.19 25.0402 93.66C25.6402 93.4 26.2102 93.1 26.6302 92.76C26.8502 92.59 27.0002 92.42 27.0802 92.31C27.1602 92.18 27.2302 92.03 27.2502 91.87C27.4902 91.06 25.1602 89.92 23.2902 89.36C21.9602 88.94 20.4602 88.73 18.9502 88.51C17.4402 88.29 15.9102 88.08 14.3802 87.81C12.8502 87.54 11.3102 87.22 9.78021 86.74C8.26021 86.25 6.71021 85.64 5.33021 84.46C4.45021 83.72 3.70021 82.59 3.48021 81.32C3.23021 80.06 3.60022 78.67 4.28022 77.67C5.68021 75.68 7.62021 74.67 9.49021 73.84C11.3902 73.04 13.3702 72.57 15.3402 72.23C17.3202 71.92 19.3202 71.68 21.3402 71.97C22.6002 72.22 23.1102 72.51 23.0602 72.55C23.0102 72.62 22.4002 72.53 21.3802 72.83C19.3802 73.41 15.7802 74.56 11.9502 76.26C10.6102 76.84 9.31021 77.45 8.30021 78.24C7.80021 78.63 7.39021 79.05 7.13021 79.44C6.86021 79.84 6.79021 80.16 6.77021 80.47C6.77021 80.81 6.84021 81.15 7.06021 81.47C7.27021 81.8 7.65022 82.16 8.14021 82.48C9.13021 83.14 10.4902 83.64 11.8902 84.03C14.7402 84.82 17.8102 85.22 21.0002 85.74C21.8102 85.87 22.6202 86.01 23.5202 86.24C24.3702 86.47 25.1902 86.73 26.0102 87.07C26.8402 87.42 27.6702 87.81 28.5202 88.43C28.7202 88.6 28.9702 88.76 29.2402 89.06C29.5202 89.31 29.7202 89.62 29.9302 89.92C30.3202 90.55 30.4802 91.27 30.4602 91.99C30.4002 92.74 30.1202 93.46 29.7002 94.08L29.3702 94.54L29.0502 94.87C28.8302 95.09 28.6102 95.25 28.4002 95.43C27.5202 96.07 26.6702 96.47 25.8302 96.82C24.1702 97.51 22.5402 97.93 20.9802 98.4C19.8502 98.73 18.7402 99.08 17.7802 99.51C17.3002 99.72 16.8602 99.97 16.5602 100.21C16.4102 100.32 16.2702 100.44 16.2202 100.52C16.1702 100.57 16.1702 100.6 16.1402 100.63C16.1202 100.67 16.1202 100.75 16.0902 100.8C15.9802 101.03 16.0502 101.31 16.1502 101.66C16.3102 102.02 16.5802 102.39 16.9202 102.75C17.6102 103.47 18.5402 104.11 19.5402 104.64C21.5302 105.72 23.8002 106.44 26.0702 106.85C27.2102 107.05 28.3602 107.15 29.5002 107.18C30.6502 107.17 31.8002 107.11 32.9502 106.93C38.0402 106.26 43.1502 104 48.9102 103.76C51.7502 103.64 54.6202 103.99 57.3302 104.84C60.0502 105.65 62.5702 106.97 64.9202 108.32C65.6502 108.74 66.3502 109.14 67.0402 109.5C67.6902 109.84 68.5002 110.17 69.2302 110.49C70.7302 111.12 72.2602 111.7 73.8102 112.21C76.9002 113.23 80.0702 114.04 83.2702 114.41C84.4902 114.56 85.6702 114.61 86.9002 114.6C88.1302 114.6 89.3602 114.54 90.5902 114.43C93.0402 114.23 95.4602 113.8 97.7902 113.12C100.11 112.43 102.36 111.45 104.26 110.08C105.21 109.4 106.06 108.59 106.7 107.71C107.01 107.26 107.26 106.8 107.39 106.34C107.52 105.86 107.53 105.58 107.41 105.22C107.32 105.01 107.17 104.84 107 104.71C106.73 104.51 106.29 104.21 105.89 103.88C105.49 103.54 105.01 103.11 104.71 102.37C104.64 102.18 104.59 101.99 104.56 101.78C104.54 101.68 104.54 101.58 104.54 101.48C104.54 101.41 104.54 101.41 104.54 101.29C104.56 101.1 104.64 100.88 104.74 100.73C104.79 100.66 104.85 100.59 104.91 100.52C105.13 100.32 105.23 100.28 105.32 100.23C105.42 100.18 105.49 100.15 105.57 100.11C105.71 100.05 105.84 100 105.96 99.96C106.45 99.79 106.89 99.67 107.34 99.54C109.12 99.05 110.86 98.61 112.56 98.07C114.26 97.54 115.93 96.95 117.48 96.22C119 95.5 120.52 94.57 121.23 93.52C121.55 93.03 121.62 92.62 121.54 92.19C121.44 91.78 121.21 91.38 120.75 90.92C119.87 90.08 118.74 89.41 117.83 88.78C116.9 88.16 116.13 87.54 115.56 86.94C114.38 85.69 114.08 84.44 114.37 83.57C114.46 83.18 114.67 82.73 114.84 82.56C115 82.41 115.16 82.47 115.34 82.65C115.51 82.83 115.69 83.13 115.98 83.45C116.52 84.08 117.62 84.9 119.61 86.03C120.67 86.66 121.83 87.28 123.01 88.33C123.6 88.83 124.17 89.56 124.6 90.43C124.75 90.9 124.95 91.39 125 91.89C125.06 92.39 125.05 92.91 124.95 93.42C124.75 94.44 124.27 95.33 123.72 96C123.17 96.69 122.56 97.22 121.95 97.68C120.72 98.59 119.45 99.23 118.18 99.8C115.64 100.91 113.06 101.68 110.5 102.38L108.61 102.89C108.01 103.04 107.33 103.22 106.94 103.36L106.89 103.38H106.87L106.84 103.31L106.78 103.17L106.52 102.62C106.46 102.47 106.39 102.33 106.31 102.19C106.12 101.89 106.06 101.73 105.9 101.56C105.87 101.5 105.79 101.45 105.75 101.42C105.75 101.41 105.73 101.4 105.71 101.4H105.7C108.55 101.56 106.49 101.44 107.12 101.48H107.08C107.15 101.47 107.27 101.43 107.52 101.29C107.58 101.26 107.64 101.22 107.69 101.18C107.77 101.13 107.86 101.07 107.92 101.02C107.92 101.02 107.93 101.02 107.94 101.04C107.98 101.09 108.14 101.23 108.35 101.39L109.22 102.04C109.96 102.65 110.54 103.47 110.78 104.41C110.9 104.88 110.96 105.36 110.94 105.85C110.94 106.1 110.91 106.33 110.87 106.56C110.83 106.77 110.8 106.98 110.74 107.15C110.31 108.66 109.54 109.71 108.74 110.63C107.11 112.44 105.2 113.66 103.24 114.63C97.8502 117.21 92.0602 117.91 86.4502 117.9C83.5202 117.86 80.6802 117.44 77.9402 116.79C75.1902 116.15 72.5302 115.29 69.9302 114.3L69.9502 114.22L69.9202 114.21Z" fill="#231F20"/>
<path d="M54.4602 76.6C52.4002 77.01 50.3902 77.6 48.5902 78.51C46.8102 79.42 45.2602 80.69 44.4102 82.31C43.8202 83.46 43.8802 84.57 44.4102 85.63C44.8802 86.58 45.8102 87.45 46.8802 88.14C47.9602 88.82 49.1502 89.43 50.4402 89.84C53.0102 90.75 55.7602 91.02 58.5902 91.06C61.1102 91.12 63.6402 91.06 66.0902 90.75C67.6602 90.55 69.2102 90.23 70.7502 89.84L73.0602 89.21C73.8402 89.02 74.6302 88.81 75.4102 88.59C76.3902 88.33 76.3002 88.47 75.6002 89.01C75.2502 89.28 74.7402 89.66 74.1202 90.11C73.8002 90.32 73.4702 90.58 73.0802 90.79C72.6902 90.99 72.2802 91.19 71.8202 91.36C68.6402 92.66 65.1502 93.11 61.8002 93.33C60.1002 93.44 58.4602 93.47 56.7402 93.42C55.0002 93.39 53.2502 93.13 51.5402 92.73C49.5002 92.22 47.4202 91.56 45.4902 90.38C44.5102 89.83 43.6202 89.05 42.8102 88.16C42.0402 87.22 41.4402 86.04 41.2702 84.74C41.0802 83.29 41.5502 81.88 42.1902 80.77C42.8302 79.65 43.6702 78.68 44.6102 77.89C46.5102 76.29 48.7202 75.31 50.9302 74.59C53.6802 73.74 56.5002 73.32 59.3102 73.13C61.4402 72.98 63.5902 73.02 65.7202 73.22C66.7902 73.32 67.8602 73.49 68.9302 73.72C69.9902 73.98 71.0202 74.29 72.0302 74.67C73.5902 75.26 75.1102 75.95 76.5502 76.87C77.9702 77.79 79.3802 78.97 80.2602 80.72C80.6202 81.49 80.9102 82.33 80.9402 83.23C80.9902 83.65 80.9102 84.02 80.8502 84.35C80.7802 84.68 80.7502 85 80.6402 85.25C80.4102 85.75 80.1601 86.12 79.9501 86.41C79.4701 86.94 79.0501 87.13 78.6301 87.21C78.4402 87.25 78.2302 87.31 78.0802 87.3C77.8202 87.28 77.7502 86.97 77.7802 86.48C77.7901 86.23 77.8302 85.94 77.8902 85.61C77.9102 85.27 77.8901 84.89 77.9501 84.52C78.0302 83.4 77.8202 82.48 77.2302 81.6C76.6502 80.72 75.7102 79.91 74.6301 79.21C72.4601 77.83 69.7302 76.76 67.1202 76.32C63.0502 75.71 58.5902 75.81 54.4602 76.67L54.4402 76.6H54.4602Z" fill="#231F20"/>
<path d="M64.7902 34.32C64.9302 34.48 64.8002 34.7 64.5702 34.94C64.4902 35.02 64.2202 35.11 64.1602 35.08C64.0402 35.01 63.9102 34.94 63.8102 34.86C63.7502 34.81 63.1002 33.89 62.8302 33.6C62.5802 33.32 62.3902 33.01 62.2602 32.68C61.9702 32.03 61.6502 31.39 61.3302 30.78C61.2602 30.64 61.2102 30.49 61.1802 30.34C61.0802 29.81 60.8402 29.34 60.5402 28.92C60.4902 28.85 60.4602 28.77 60.3402 28.74C60.1602 28.68 59.3802 27.56 59.3102 27.4C59.2002 26.95 58.9702 26.57 58.8402 26.1C58.8202 26.04 58.7502 26 58.8002 25.89C58.9102 25.62 58.8002 25.54 58.7202 25.41C58.6202 25.24 58.5202 25.07 58.4502 24.86C58.4202 24.76 58.4502 24.59 58.4702 24.44C58.4802 24.3 58.7802 24.09 58.8302 24.09C58.9802 24.09 59.0502 23.91 59.1502 23.8C59.1802 23.76 59.2302 23.71 59.2602 23.69C59.3202 23.63 60.6702 24.1 60.7602 24.23C60.7602 24.23 60.8602 24.32 61.0002 24.44C61.1402 24.57 61.3102 24.74 61.4702 24.93C61.7902 25.31 62.1102 25.71 62.1902 25.81C62.2702 25.89 62.2702 26.02 62.3002 26.14C62.3302 26.18 63.1902 27.42 63.1902 27.48C63.3002 27.77 63.5002 28.02 63.4402 28.38C63.4302 28.45 63.4602 28.5 63.4902 28.56C63.7202 29.03 63.8302 29.54 63.9602 30.04C64.0202 30.29 64.1302 30.53 64.2202 30.78C64.2302 30.82 64.2202 30.88 64.2202 30.93C64.2202 30.99 64.2202 31.06 64.2402 31.11C64.4402 31.68 64.5802 32.28 64.7602 32.85C64.8002 32.98 64.7802 33.69 64.8502 33.83C64.8802 33.91 64.7402 34.27 64.8002 34.34L64.7902 34.32Z" fill="#231F20"/>
<path d="M77.0902 22.79C77.2102 22.99 76.9102 23.09 76.3602 23.16C76.1802 23.18 75.6702 23.11 75.6002 23.04C75.4702 22.92 75.3502 22.8 75.2602 22.68C75.2102 22.61 75.0902 21.54 75.0402 21.16C74.9902 20.8 75.0302 20.44 75.0902 20.09C75.2202 19.38 75.3602 18.66 75.5602 17.96C75.6002 17.8 75.6702 17.66 75.7702 17.52C76.1102 17.06 76.3002 16.55 76.4502 16.02C76.4702 15.93 76.5202 15.85 76.4702 15.73C76.3702 15.53 76.9402 14.17 77.1202 14.05C77.5102 13.72 77.8202 13.36 78.1802 13.03C78.2302 12.98 78.2302 12.9 78.3602 12.9C78.6602 12.9 78.6802 12.76 78.7802 12.65C78.9102 12.5 79.0402 12.35 79.2202 12.22C79.3102 12.16 79.4802 12.14 79.6202 12.12C79.7502 12.1 80.0502 12.31 80.0702 12.36C80.1302 12.49 80.3102 12.52 80.4502 12.58C80.5002 12.6 80.5602 12.63 80.5902 12.66C80.6502 12.71 80.7702 14.02 80.7202 14.11C80.7202 14.11 80.6802 14.21 80.6302 14.36C80.5802 14.51 80.5202 14.7 80.4502 14.9C80.3202 15.3 80.2002 15.72 80.1902 15.81C80.1802 15.9 80.0802 15.96 80.0102 16.03C79.9702 16.06 79.6402 17.25 79.6202 17.29C79.4802 17.51 79.4802 17.77 79.1702 17.91C79.1102 17.94 79.1002 17.99 79.0902 18.04C78.9602 18.45 78.7302 18.82 78.5402 19.21C78.4502 19.41 78.4102 19.63 78.3402 19.83C78.3302 19.87 78.2902 19.9 78.2602 19.93C78.2302 19.97 78.1902 20.01 78.1702 20.06C78.0502 20.56 77.8102 21.05 77.8002 21.59C77.8002 21.71 77.4302 22.24 77.4502 22.39C77.4502 22.47 77.0502 22.68 77.1002 22.76L77.0902 22.79Z" fill="#231F20"/>
<path d="M82.9901 34.82C82.9901 35.01 82.7401 35.05 82.3901 35.01C82.2801 35 82.0101 34.85 81.9801 34.78C81.9401 34.65 81.9001 34.52 81.8701 34.4C81.8701 34.33 82.0101 33.36 82.0101 33.02C82.0301 32.69 82.0601 32.37 82.1901 32.09C82.4301 31.5 82.6301 30.91 82.8901 30.28C82.9401 30.14 83.0301 30.01 83.1401 29.9C83.5001 29.5 83.7801 29.03 84.0501 28.53C84.1001 28.45 84.1701 28.38 84.1601 28.25C84.1401 28.14 84.3801 27.77 84.6801 27.42C84.9801 27.09 85.3301 26.8 85.4301 26.77C85.9201 26.58 86.3601 26.38 86.8401 26.28C86.9101 26.26 86.9501 26.2 87.0601 26.26C87.3001 26.4 87.4001 26.3 87.5301 26.25C87.7101 26.19 87.9001 26.14 88.1001 26.12C88.2001 26.12 88.3401 26.19 88.4701 26.24C88.5901 26.29 88.7001 26.62 88.7001 26.66C88.6801 26.8 88.8101 26.91 88.8801 27.03C88.9001 27.07 88.9401 27.13 88.9501 27.16C88.9701 27.24 88.4101 28.27 88.3501 28.33C88.3001 28.35 87.3501 29.26 87.2901 29.37C87.2501 29.43 87.1601 29.44 87.0901 29.46C87.0201 29.46 86.5201 30.25 86.5001 30.28C86.3501 30.42 86.3001 30.62 86.0101 30.69C85.9501 30.7 85.9401 30.75 85.9201 30.79C85.7401 31.11 85.4801 31.42 85.2401 31.76C85.1201 31.93 85.0401 32.14 84.9401 32.33C84.9201 32.36 84.8801 32.39 84.8501 32.42C84.8101 32.46 84.7701 32.49 84.7501 32.54C84.5301 33.01 84.2201 33.44 83.9701 33.91C83.9101 34.02 83.4201 34.42 83.3701 34.55C83.3301 34.62 82.9801 34.73 82.9801 34.81L82.9901 34.82Z" fill="#231F20"/>
<path d="M34.1 51.83C33.68 51.86 33.24 51.7 32.97 51.42C32.87 51.32 32.76 51.24 32.7 51.12C32.51 50.7 32.53 50.32 32.68 50.01C32.74 49.87 32.8 49.74 32.88 49.63C32.97 49.48 33.13 49.34 33.32 49.34C33.38 49.34 33.4 49.42 33.42 49.53C33.44 49.64 33.49 49.78 33.5 49.83C33.51 50.03 33.71 50.11 33.59 50.23C33.54 50.32 33.64 50.36 33.65 50.36C33.66 50.38 33.67 50.4 33.7 50.42C33.72 50.43 33.77 50.44 33.81 50.42C33.87 50.39 33.98 50.35 34.01 50.27C34.03 50.2 33.94 50.12 33.87 50.12C33.84 50.12 33.88 50.12 33.87 50.12C33.9 50.12 33.87 50.12 33.9 50.12C33.97 50.1 34.09 50.05 34.27 49.97L34.52 49.85C34.8 49.71 35.06 49.66 35.21 49.81C35.62 50.27 35.48 50.99 35.15 51.37C34.89 51.67 34.5 51.82 34.08 51.88V51.84L34.1 51.83Z" fill="#231F20"/>
<path d="M97.6901 73.98C97.8601 73.99 98.0601 73.97 98.2001 73.92C98.2601 73.9 98.2901 73.85 98.3401 73.82C98.5301 73.71 98.7301 73.53 98.8201 73.31C98.8601 73.21 98.8801 73.1 98.8701 73C98.8601 72.87 98.8001 72.77 98.8101 72.6C98.8101 72.55 98.9301 72.45 99.0901 72.4C99.2501 72.35 99.4801 72.35 99.5701 72.49C99.7201 72.72 99.8001 73 99.7901 73.27C99.7701 73.54 99.6501 73.77 99.4901 73.96C99.3001 74.18 99.1701 74.44 98.9401 74.63C98.6901 74.84 98.3801 74.95 98.1001 75.01C97.9201 75.05 97.7501 75.07 97.5701 75.07C97.3101 75.08 97.0501 75.04 96.8101 75.03C96.6201 75.03 96.4201 75.07 96.2201 75.08C96.1801 75.08 96.1301 75.1 96.0901 75.09C95.9301 75.07 95.9001 74.98 95.9701 74.66L96.0201 74.44C96.0801 74.19 96.2001 74.01 96.3101 73.97C96.6401 73.85 96.9001 73.89 97.1501 73.91C97.3401 73.93 97.5201 73.96 97.6901 73.95V73.98Z" fill="#231F20"/>
</svg>
