<?xml version="1.0" encoding="UTF-8"?><svg id="Layer_1" xmlns="http://www.w3.org/2000/svg" width="128" height="128" viewBox="0 0 128 128"><defs><style>.cls-1{fill:#231f20;stroke-width:0px;}</style></defs><path class="cls-1" d="M14.57,70.05c-.2-.79-.31-1.57-.38-2.33-.02-.27-.11-.54-.11-.81.05-.94.1-1.9.15-2.84,0-.41-.02-.82-.02-1.23-.08-.51.13-1.05.24-1.59.05-.17.04-.14.13-.02.08.13.34.36.55.64.68,1.01.67,2.06.69,3.12-.03.64.21,1.26.3,1.88.08.69.17,1.35.32,2,.1.4.21.79.37,1.16.25.55.51,1.12.93,1.57.32.35.76.58,1.17.81.09.05.18.1.26.17.3.25.29.48.1.9-.04.1-.08.2-.13.29-.16.3-.48.45-.86.42-1.08-.18-1.96-.95-2.67-1.86-.54-.67-.86-1.49-1.11-2.27l.05-.02Z"/><path class="cls-1" d="M46.9,64.66c-.13-.81-.31-1.6-.55-2.35l-.19-.56c-.07-.14-.12-.21-.17-.33l-.33-.38c-.12-.13-.28-.25-.41-.38-.43-.36-.95-.66-1.45-.99-1.8-1.16-3.79-2.17-5.79-3.12-.89-.42-1.82-.77-2.7-1.19-1.14-.54-2.34-.97-3.35-1.8-.32-.24-.27-.22.08-.18.17.02.43.03.74.03.32-.02.67,0,1.01.12,1.23.38,2.5.64,3.69,1.14,1.19.49,2.38,1.02,3.54,1.62,1.39.73,2.91,1.32,4.33,2.21.77.51,1.55,1.02,2.21,1.9.37.52.47.93.66,1.36.14.44.3.87.41,1.31.3,1.08.49,2.16.63,3.25.22,1.64.29,3.3.4,4.92.07,1.26.18,2.5.2,3.75,0,.28,0,.55-.02.82-.1,1.03-.26,1.35-.65,1.55-.09.05-.17.11-.25.13-.25.09-.52-.34-.66-1.08-.25-1.1-.4-2.22-.53-3.35-.17-1.13-.2-2.27-.29-3.4-.11-1.68-.29-3.36-.6-4.98h.05Z"/><path class="cls-1" d="M50,80.7c-.12.41.12,3.51,1.59,3.86,1.11.27,3.76-1.07,4.99-1.62,3.3-1.48-.68,2.64-.68,2.64l-6.24,1.78.34-6.66Z"/><path class="cls-1" d="M82.45,46.84c.12.51.19,1.05.25,1.58.02.19.09.37.1.57.02.69-.02,1.36-.16,2-.05.28-.06.56-.09.84-.02.35-.06.7-.2,1.04-.05.11-.18.08-.33-.02-.15-.1-.36-.28-.42-.47-.17-.7-.37-1.34-.34-1.99.05-.4-.13-.78-.23-1.15-.11-.41-.23-.83-.39-1.25-.1-.27-.17-.51-.29-.75-.18-.36-.36-.74-.65-1.05-.21-.25-.58-.36-.84-.56-.06-.05-.13-.08-.17-.13-.15-.23-.02-.46.31-.83l.23-.25c.25-.26.59-.4.91-.41.89.04,1.26.67,1.68,1.27.29.46.51,1,.69,1.54l-.05.02Z"/><path class="cls-1" d="M55.36,79.26v-.46c0-.2.02-.39.05-.58.08-.36.19-.73.5-.96.27-.24.64-.47.93-.63l.59-.3c.28-.15.52-.35.8-.49.99-.5,1.99-.96,2.98-1.44.44-.21.84-.49,1.27-.72.55-.29,1.02-.76,1.82-.57.25.07.26.14.24.47,0,.35,0,1-.24,1.26-.95.8-2.06,1.33-3.27,1.76-.72.26-1.34.75-2,1.14-.36.2-.74.45-1.05.64-.13.08-.4.13-.37.35l-.02.18v.39s.04.79.04.79c.04.81.02,1.62.07,2.43.04.62.2,1.24.28,1.87.02.14.06.28.04.41-.06.51-.22.67-.83.73-.13.01-.25.04-.35.04-.32.02-.84-.22-.96-.58-.28-.54-.32-1.07-.39-1.61-.06-.54-.07-1.08-.1-1.62-.03-.81-.03-1.62-.08-2.49h.06Z"/><path class="cls-1" d="M80.62,67.07c-.68.3-1.37.61-2.05.94-.24.12-.46.29-.72.4-.91.37-1.82.74-2.7,1.15-.4.17-.78.38-1.15.6-.47.29-.94.57-1.55.63-.26-.1-.23-.1-.24-.41,0-.3.06-.72.26-.97.82-.78,1.7-1.45,2.77-1.86.63-.25,1.16-.73,1.75-1.09.66-.37,1.34-.72,2.02-1.07.42-.21.84-.43,1.26-.64.63-.33,1.29-.63,1.91-.99.48-.29.89-.68,1.38-1.02.11-.07.2-.17.32-.23.1-.07.21-.09.31-.06.1.02.18.05.26.09.15.09.27.25.4.49.06.11.12.22.17.33.16.37.1.77-.07,1.13-.61.79-1.45,1.18-2.31,1.66-.66.33-1.33.66-1.99.99l-.03-.05Z"/><path class="cls-1" d="M28.81,44.47c-1.88-.45-3.24-1.86-3.18-4.11.05-1.74.85-3.73,2.61-4.04,0,0-5.48-.55-6.36,1.3s-.23,5.03.43,5.98,6.49.87,6.49.87Z"/><path class="cls-1" d="M72.39,77.07c-1.74-.44-2.99-1.85-2.93-4.07.04-1.73.78-3.7,2.41-4,0,0-5.06-.54-5.87,1.29s-.21,4.99.4,5.92,5.99.86,5.99.86Z"/><path class="cls-1" d="M91.94,69.2c-1.74-.44-2.99-1.85-2.93-4.07.04-1.73.78-3.7,2.41-4,0,0-5.06-.54-5.87,1.29s-.21,4.99.4,5.92,5.99.86,5.99.86Z"/><path class="cls-1" d="M93.4,85.94c-1.74-.44-2.99-1.85-2.93-4.07.04-1.73.78-3.7,2.41-4,0,0-5.06-.54-5.87,1.29s-.21,4.99.4,5.92,5.99.86,5.99.86Z"/><path class="cls-1" d="M111.47,78.21c-1.74-.44-2.99-1.85-2.93-4.07.04-1.73.78-3.7,2.41-4,0,0-5.06-.54-5.87,1.29s-.21,4.99.4,5.92,5.99.86,5.99.86Z"/><path class="cls-1" d="M51.58,35.2c-1.88-.45-3.24-1.86-3.18-4.11.05-1.74.85-3.73,2.61-4.04,0,0-5.48-.55-6.36,1.3s-.23,5.03.43,5.98,6.49.87,6.49.87Z"/><path class="cls-1" d="M51.09,54.14c-1.88-.45-3.24-1.86-3.18-4.11.05-1.74.85-3.73,2.61-4.04,0,0-5.48-.55-6.36,1.3s-.23,5.03.43,5.98,6.49.87,6.49.87Z"/><path class="cls-1" d="M71.39,42.47c-1.88-.45-3.24-1.86-3.18-4.11.05-1.74.85-3.73,2.61-4.04,0,0-5.48-.55-6.36,1.3s-.23,5.03.43,5.98,6.49.87,6.49.87Z"/><path class="cls-1" d="M49.53,60.1l.64-.67c.22-.22.43-.36.65-.55.43-.37.87-.65,1.3-.96.87-.59,1.75-1.12,2.64-1.63.64-.38,1.26-.78,1.91-1.13,2.31-1.21,4.7-2.2,7.05-3.25,1.05-.46,2.1-.92,3.14-1.38,1.31-.64,2.71-1.09,4.16-1.41.45-.1.41-.04.12.25-.3.26-.79.91-1.46,1.42-2.45,1.72-5.03,3.08-7.77,4.22-1.63.7-3.18,1.71-4.74,2.6-1.7.99-3.42,2-4.85,3.2-.23.18-.43.37-.6.56l-.28.29c-.03.07-.06.13-.11.19-.16.45-.31,1.01-.39,1.6-.27,1.77-.4,3.66-.43,5.5-.03,1.44.17,2.86.16,4.31,0,.32.03.63,0,.96-.09,1.2-.42,1.61-1.03,1.77-.14.04-.29.09-.42.1-.46,0-.75-.47-.93-1.3-.45-2.49-.42-5.18-.28-7.92.06-1.02.14-2.05.29-3.11.08-.54.15-1.06.29-1.64l.1-.43.16-.49c.05-.24.4-.89.61-1.14l.05.04Z"/><path class="cls-1" d="M59.06,102.56c-.25-.81-.43-1.64-.51-2.47-.04-.3-.12-.59-.14-.89-.07-1.06-.11-2.11-.08-3.15,0-.46-.02-.92-.04-1.37-.06-.58.12-1.18.11-1.76.01-.18.05-.16.13-.01.09.15.18.42.37.74.32.56.43,1.14.54,1.72.11.58.23,1.15.23,1.74.02.7.24,1.4.4,2.09.17.76.36,1.5.55,2.25.12.46.27.91.44,1.35.27.67.56,1.33.97,1.92.31.46.77.79,1.13,1.17.08.09.17.16.24.25.27.34.3.52.09.88-.05.08-.08.17-.13.24-.17.25-.48.31-.85.15-1.14-.42-1.86-1.44-2.45-2.44-.44-.76-.76-1.57-1.04-2.38l.04-.02Z"/><path class="cls-1" d="M64.13,80.54c.77.31,1.52.64,2.26.99.27.12.56.2.82.34.91.54,1.79,1.13,2.65,1.7.39.25.79.47,1.16.73.49.32.95.68,1.38,1.09.13.13.06.2-.14.23-.2.03-.53.05-.86-.03-.57-.17-1.17-.26-1.69-.5-.52-.24-1.03-.49-1.53-.78-.59-.37-1.32-.49-1.96-.76-.71-.3-1.43-.59-2.16-.85-.45-.16-.9-.32-1.36-.44-.7-.2-1.4-.4-2.12-.49-.56-.06-1.12,0-1.68.04-.12,0-.24.03-.37.03-.45,0-.58-.2-.63-.78-.01-.13-.03-.26-.03-.39-.01-.41.21-.81.58-.92,1.08-.3,2.21-.23,3.3.03.81.18,1.61.44,2.39.71v.05Z"/><path class="cls-1" d="M91.25,110.69c0-.83-.02-1.63,0-2.44,0-.3-.04-.59-.03-.88.06-1.04.13-2.08.19-3.12.06-.46.04-.92.08-1.38.05-.59.17-1.17.29-1.76.04-.18.08-.16.18,0,.08.15.27.43.43.76.57,1.17.75,2.32.59,3.52-.07.71.08,1.44.13,2.17.06.79.07,1.59.1,2.39.02.49.04.97.09,1.45.08.71.18,1.43.45,2.07.21.49.57.89.93,1.2.08.07.17.13.23.2.27.26.22.47-.04.93l-.16.3c-.17.29-.59.48-1.02.3-1.22-.6-1.83-1.94-2.13-3.1-.23-.89-.3-1.76-.36-2.59h.05Z"/><path class="cls-1" d="M97.04,89.31c1.13-.59,2.26-1.13,3.39-1.69.41-.2.79-.46,1.22-.64,1.49-.63,2.98-1.26,4.47-1.88.66-.28,1.3-.6,1.94-.91.43-.17.85-.35,1.28-.5.22-.06.48-.05.72-.08.25,0,.46-.1.68-.14.28-.06.25-.03.06.14-.14.12-.28.24-.39.34-.15.17-.29.46-.46.7-.36.31-.75.55-1.13.82-.39.25-.81.43-1.21.65-.82.41-1.65.81-2.51,1.16-1.03.43-1.99,1.07-2.99,1.62l-3.31,1.74c-.67.37-1.34.74-1.99,1.14-.49.3-.99.6-1.44.92-.46.31-.86.66-1.27,1.08-.62.63-1.06,1.34-1.38,2.04-.07.16-.12.32-.18.47-.27.57-.52.7-1.03.71-.12,0-.24.01-.35,0-.36-.03-.61-.42-.59-1.07.09-.94.56-1.88,1.14-2.63.29-.38.61-.71.93-1.02.32-.31.62-.59,1.04-.92,1.13-.86,2.24-1.45,3.36-2.09l.03.04Z"/><path class="cls-1" d="M117.39,102.28c.09-.09.19-.18.24-.26.04-.04.06-.08.08-.12.02-.04.05-.06.07-.17.09-.34.15-.74.2-1.13.03-.29.02-.58.05-.88.11-1.04.28-2.1.34-3.16.05-.47.06-.95.08-1.41.01-.6.03-1.21.13-1.81.03-.19.11-.16.22,0,.1.16.28.44.37.78.26,1.21.58,2.43.44,3.68-.05.75.07,1.52.02,2.3-.02.43-.05.85-.11,1.29-.02.22-.06.44-.1.67-.07.26-.15.56-.3.78-.34.58-.8.95-1.24,1.29-.68.49-1.39.85-2.04,1.27-.5.32-.93.73-1.35,1.08-.09.07-.17.16-.27.22-.34.25-.48.24-.86.04-.09-.05-.18-.08-.26-.13-.27-.15-.34-.51-.11-.9.65-1.18,1.71-1.73,2.63-2.27.68-.39,1.35-.77,1.75-1.17l.03.03Z"/><path class="cls-1" d="M80.68,57.71c.02-1.13.07-2.26.05-3.39,0-.41-.06-.82-.07-1.23-.01-.72-.04-1.43-.11-2.13-.07-.73-.19-1.43-.28-2.14-.1-.62-.28-1.21-.56-1.74-.17-.34-.41-.63-.65-.91-.22-.3-.5-.59-.85-.8-.21-.15-.18-.16.06-.17.23-.01.74-.06,1.29.16.92.48,1.44,1.42,1.81,2.26.19.43.32.87.43,1.3.08.44.12.88.15,1.31.08,1.04.28,2.14.34,3.19.07,1.16.08,2.32.09,3.47l-.02,2.13c0,1.07-.06,2.15-.04,3.22.01.83.12,1.65.1,2.47,0,.18,0,.36,0,.54-.02.68-.27.89-.58,1.01-.08.03-.15.06-.22.08-.23.04-.43-.25-.58-.74-.12-.72-.26-1.46-.32-2.21-.04-.75-.05-1.51-.06-2.28,0-1.14-.01-2.28-.02-3.42h.04Z"/><path class="cls-1" d="M14.15,68.99s-7.01.75-5.13,1.88,10.75,4.27,10.75,4.27l-5.2-3.17-.42-2.99Z"/><path class="cls-1" d="M58.08,102.44s-6.35.24-5.5,1.46,13.02,5.65,13.02,5.65l-7.12-4.11-.4-3Z"/><path class="cls-1" d="M55.4,86.4c-.47.2-.93.4-1.39.6-.17.08-.3.21-.47.28-.6.25-1.26.39-1.86.62-.27.1-.51.25-.76.37-.16.08-.31.19-.47.26-.08.04-.17.07-.26.09-.04.02-.1,0-.17-.03-.07-.02-.12-.03-.18-.04-.15-.04-.23-.21-.3-.52-.05-.22-.09-.44-.13-.6-.03-.22,0-.35.06-.44.25-.28.49-.58.78-.77.31-.17.65-.31,1.02-.39.44-.1.75-.44,1.15-.64.43-.22.87-.44,1.3-.66.27-.14.54-.27.79-.42.39-.23.8-.44,1.15-.73.27-.23.43-.58.64-.89.05-.07.07-.16.15-.19.06-.03.12-.05.19-.05.07.01.16.07.24.12.16.11.31.25.48.43l.22.23c.11.13.18.26.25.44.06.18.15.43.17.63-.03.49-.26.72-.47.98-.22.25-.49.45-.77.64-.41.28-.87.51-1.31.76l-.04-.05Z"/><path class="cls-1" d="M31.83,54.88c-2.18-.99-4.37-1.97-6.57-2.93-.8-.35-1.64-.61-2.44-.97l-4.23-1.88-.53-.23-.8-.33c-.58-.23-1.09-.48-1.61-.72-1.2-.46-1.64-.97-1.9-1.5.22-.56.64-1.06,1.43-1.63.79-.53,1.79-1.11,2.61-1.53,1.52-.9,3.1-1.71,4.96-1.89.63.06.55.06.31.62-.12.29-.31.64-.53,1.07-.12.21-.23.45-.38.65-.16.19-.33.37-.53.53-.36.26-.68.59-1.07.8l-1.14.65-.28.16c-.08.04-.02.01-.04.02,0,0-.01,0-.02,0-.02,0-.04,0-.09,0-.06,0-.32.06-.29.12-.02.06.02.17.18.33-.04.02.33.18.55.29l.75.33c.5.21,1.02.42,1.53.61,1.03.39,2.07.77,3.09,1.19l6.69,2.84,4.11,1.77c2.08.88,4.14,1.82,6.23,2.65,1.62.65,3.27,1.13,4.92,1.74.36.13.73.25,1.09.41.66.29,1.08.54,1.32.85.24.29.27.63.2,1.06-.03.19-.04.39-.1.55-.17.51-1,.82-1.9.5-2.9-.82-5.9-1.99-8.88-3.23-2.22-.92-4.43-1.91-6.65-2.84l.02-.07Z"/><path class="cls-1" d="M52.68,32.91c-1.62-.22-3.16-.28-4.72,0-.57.1-1.12.31-1.69.47-.31.08-.62.18-.93.27l-.8.27-.96.54-1.05.56c-.7.37-1.41.71-2.12,1.06-.92.43-1.81.93-2.73,1.35-1.18.51-2.33,1.27-3.77,1.02-.47-.16-.44-.28-.27-.84.16-.61.48-1.48,1.08-1.82,2.18-1.13,4.42-2.13,6.76-3.15.29-.13.57-.27.84-.42l.41-.24c.15-.1.21-.13.48-.32l.45-.21.35-.15.7-.28c.47-.18.94-.34,1.43-.47,1.79-.49,3.76-.66,5.59-.51,1.13.08,2.24.25,3.33.45.37.07.75.15,1.12.23l.55.14.65.17,1.28.68,1.2.61c1.14.56,2.32.96,3.49,1.46.26.11.52.2.77.33.93.49,1.19.83.93,1.64-.05.17-.09.32-.16.45-.24.36-.84.75-1.51.49-2.1-.64-4.22-1.64-6.3-2.7l-.43-.22-.21-.11s-.01,0-.02-.01c-.01,0,.03,0-.03,0l-.24-.06-.48-.11-.98-.2c-.66-.12-1.32-.22-1.98-.29v-.07Z"/><path class="cls-1" d="M108.28,107.19l7.02-3.24c.42-.2.83-.42,1.25-.64l.61-.33.31-.16.15-.08.05-.02.23-.1c.06-.07.05-.19.07-.29l.03-1.08.04-2.28.04-4.57c0-1.48-.06-2.96-.13-4.43-.1-1.88-.35-3.78.38-5.68.41-.59.29-.51.74-.01.24.25.49.6.82,1.02.28.42.49.91.6,1.45.38,3.81.32,7.65.12,11.54-.05.85-.06,1.71-.05,2.58l.02,1.32c0,.22.04.71-.03,1.01-.08.33-.11.68-.25.98-.37.35-.84.6-1.25.9-.34.21-.59.33-.89.49-2.33,1.24-4.69,2.36-7.06,3.47l-4.38,2.03c-2.21,1.02-4.46,2-6.65,3.04-1.7.81-3.31,1.74-4.99,2.57-.37.18-.73.38-1.11.55-1.42.62-1.98.59-2.54-.01-.13-.14-.28-.27-.38-.42-.33-.51.09-1.18,1.04-1.72,2.84-1.64,5.95-3.14,9.1-4.63,2.34-1.1,4.7-2.21,7.05-3.31l.04.06Z"/><path class="cls-1" d="M101.21,86.55l4.45-1.98c.54-.24,1.05-.56,1.59-.8,1.92-.85,3.84-1.7,5.76-2.55.84-.4,1.68-.82,2.5-1.24,1.07-.52,2.03-1.27,3.41-1.16.51.2.35-.01.22.42-.09.52-.36,1.27-.88,1.75-1.01.67-2.05,1.28-3.1,1.87-1.09.52-2.2,1.01-3.35,1.44-1.38.52-2.66,1.34-4,2.01-1.47.74-2.97,1.43-4.47,2.11l-2.78,1.26c-1.4.64-2.83,1.23-4.21,1.89-1.07.51-2.07,1.14-3.12,1.69-.23.12-.45.27-.69.37-.45.19-.76.29-1.02.24-.27-.07-.47-.24-.68-.51-.1-.12-.2-.23-.28-.35-.13-.21-.13-.44-.05-.7.09-.26.26-.57.56-.74,1.74-1.18,3.69-2.09,5.66-3.02,1.47-.68,2.95-1.37,4.43-2.05l.03.06Z"/><path class="cls-1" d="M73.1,71.53c-1.9-.1-3.68-.38-5.28-.35-.28.01-.57.04-.77.11-.1.02-.15.05-.23.09-.09.06-.14.16-.16.28-.01.02,0,.28,0,.44l.04.61c.01.22.03.45.02.71,0,.13,0,.25-.02.4-.01.17-.03.35-.08.5-.08.32-.21.64-.42.89-.1.14-.21.25-.36.34l-.2.15c.01.17.09.43.13.64-.67-1.02-.19-.28-.34-.51h0s0,0,0,0h0s0,0,0,0h-.01s-.02.02-.02.02l-.05.03-.08.04-.11.05-.22.11-.43.22-.86.44c-.91.46-1.78,1-2.65,1.52-.56.33-1.11.68-1.67,1-.29.15-.56.33-.88.43-.32.1-.65.18-.99.24-.43.07-.52-.18-.43-.7.04-.26.11-.62.25-.97.07-.17.13-.38.24-.53.12-.14.25-.27.41-.37,1.02-.65,2.02-1.33,3.1-1.88.53-.28,1.07-.56,1.62-.83l.82-.39.41-.19.21-.09.1-.05s0,0,.01,0h0s0,.01,0,.01h0s0,0,0,0h0c-.21-.31.46.7-.46-.7l.34.48.15.21h.01s.05,0,.05,0c.03,0,.07-.02.1-.04.09-.08.13-.11.13-.5,0-.34-.07-.74-.11-1.2-.01-.12-.02-.23-.03-.36,0-.14-.02-.34,0-.5.02-.34.09-.68.23-.99.27-.63.88-1.03,1.52-1.24.38-.11.64-.16.9-.19.26-.03.52-.06.76-.06.5-.02.97-.01,1.44,0,.93.04,1.84.12,2.73.17,1.08.06,2.2.12,3.07-.08.23-.06.65-.25,1.04-.41l1.16-.5c.77-.34,1.54-.68,2.29-1.05,1.17-.57,2.26-1.26,3.38-1.9.25-.14.48-.3.73-.43.93-.51,1.37-.36,1.83.11.11.11.23.22.31.33.29.39.07.97-.53,1.51-1.89,1.38-4.03,2.49-6.25,3.45l-2.49,1.06c-1.37.56-2.42.47-3.39.48v-.06Z"/><path class="cls-1" d="M100.69,66.49c.57.29,1.15.58,1.73.86.21.1.45.13.65.26.73.42,1.45.85,2.2,1.23.33.16.66.33,1,.47.46.1.8.56,1.22.75.13.08.06.2-.1.3-.08.05-.19.1-.31.12-.13.05-.29.13-.44.16-1.07.21-1.98-.06-2.82-.55-.5-.29-1.11-.36-1.67-.55-.59-.25-1.19-.51-1.79-.76-.37-.16-.74-.32-1.1-.47-.56-.23-1.11-.49-1.69-.66-.45-.14-.94-.1-1.4-.2-.1-.02-.2-.03-.3-.07-.18-.07-.28-.15-.32-.3-.02-.18,0-.38.05-.63.02-.11.04-.22.07-.32.05-.17.13-.31.26-.45.13-.14.31-.32.45-.32.97-.26,1.75.07,2.56.35.6.22,1.18.5,1.77.75l-.02.05Z"/><path class="cls-1" d="M83.77,51.25l-.07,3.74c0,.45.05.91.04,1.36-.06,1.61-.16,3.22-.33,4.83-.06.71-.09,1.43-.11,2.14-.02.91-.23,1.83-.57,2.71-.11.27-.3.2-.53-.07-.22-.27-.54-.74-.62-1.25-.21-.91-.18-1.79-.18-2.68,0-.9.02-1.8.12-2.71.13-1.1-.04-2.23-.08-3.35l-.12-3.72-.09-2.3c-.06-1.16-.08-2.33-.21-3.48-.09-.9-.37-1.77-.51-2.67-.02-.2-.06-.39-.06-.59,0-.38.06-.63.21-.8.19-.17.41-.27.71-.35.14-.03.27-.08.39-.1.21-.03.41.03.62.16.21.13.47.33.55.59.15.38.32.77.45,1.15.08.39.15.79.2,1.19.1.8.15,1.63.19,2.46.05,1.23.05,2.49.08,3.74h-.06Z"/><path class="cls-1" d="M50.88,68.08l.14,10.11c.04,1.69-.01,3.37-.06,5.07l-.12,3.45c-.03.34-.02.72-.16.94-.14.22-.38.29-.52.42l-.12.08-.06.04-.03.02h0s0,0,0,0c.1.14-.23-.32.22.32h-.02s-.37,0-.37,0h-.74s-.5.02-.5.02l-2.62-1.05-1.61-.66c-1.07-.45-2.14-.89-3.2-1.37-7.92-3.55-15.75-7.22-23.56-11-.88-.43-1.71-.83-2.63-1.31-.33-.15-.6-.38-.88-.59-.17-.09-.2-.27-.26-.43-.06-.16-.07-.35-.11-.52-.03-.17-.07-.36-.09-.52l-.03-.38-.05-.74c-.1-1.95-.15-3.87-.19-5.78-.06-2.45-.11-4.91-.05-7.37.03-1.23.03-2.46.14-3.68.11-1.23.24-2.45.38-3.67.2-1.52.41-1.31.77-.01.18.65.42,1.57.66,2.68.12.55.26,1.16.35,1.79.07.64.12,1.31.15,2.02.25,4.95.1,10.03.38,14.85,0,.15-.02.09.04.15.46.25,1.07.54,1.6.81l3.36,1.64c2.25,1.09,4.51,2.19,6.78,3.28,5.41,2.63,11.21,5.04,16.86,7.44l2.93,1.24.34.14.09.04s.06.02.05-.02v-.18s.03-.74.03-.74l-.12-3.95-.15-8.1-.15-6.25-.09-3.12-.06-3.71c.4-.33.97-.57,1.48-.84l1.17-.58,2.12-1.06,4.24-2.13c2.82-1.42,5.64-2.85,8.42-4.3,2.16-1.13,4.28-2.28,6.39-3.44,2.04-1.15,4.08-2.29,6.13-3.45l.26-.17.12-.08.06-.04.03-.02h.01s0-.01,0-.01h0s0,0,0,0h0s0,0,0,0h0s0,0,0,0c-.05-.02.11.04-.11-.04l.11.04h0s0,0,0,0h0s0,0,0,0h0s0,0,0,0h0s.01-.01.01-.01l.02-.02.05-.03.09-.06.19-.12c.05-.05.13-.06.16-.13-.04-.06-.12-.09-.17-.13-.11-.06-.21-.12-.31-.17-.18-.11-.3-.23-.41-.37-.07-.08-.07-.13-.2-.27-.14-.15-.27-.3-.37-.45-.2-.3-.31-.59-.37-.9-.05-.28-.13-.6-.08-.81.09-.36.49-.36,1.15-.21.17.04.35.09.56.15.1.03.21.06.33.1.04.01.14.05.25.09.1.04.21.08.31.12.8.36,1.99.76,2.89,1.35.37.26.63.53.81.77.16.26.38.47.32.86l-.13.35c-.06.13-.19.28-.28.43l-.29.44c-.02.07-.17.15-.26.23l-.16.12-.08.06-.04.03h-.02s-.01.02-.01.02h0s0,0,0,0h0c.06.02-.13-.05.13.05-.27-.09-.08-.02-.14-.04h0s-.02.01-.02.01l-.03.02-.07.04-.13.07-.27.15-.54.29-1.1.59-1.68.91c-.82.45-1.64.89-2.47,1.34-1.66.89-3.34,1.78-5.02,2.68-3.37,1.8-6.81,3.57-10.26,5.34-3.02,1.53-6.05,3.07-9.07,4.61l-.57.29s0,0-.02.02c0,.01,0,.03,0,.04v.02s0,0,0,0v.16s.03.32.03.32l.09,1.28.15,5.11h-.08Z"/><path class="cls-1" d="M24.65,43.29c1.04.35,2.26.51,3.46.53.44.02.87-.08,1.31-.1.77-.04,1.53-.15,2.18-.36.32-.1.59-.25.73-.36.02-.02.05-.04.09-.06.04-.07.07-.13.11-.21.07-.16.14-.34.21-.52.22-.67.34-1.4.42-2.12.1-.94.01-1.84.62-2.75.36-.31.18-.28.55-.04.2.12.41.3.68.54.23.24.39.52.46.82.03.13.06.27.08.4v.39c-.02.26-.04.52-.06.78-.05.52-.11,1.03-.22,1.55-.11.52-.25,1.03-.47,1.6-.05.14-.13.3-.21.46-.09.18-.26.41-.41.6-.16.21-.31.28-.47.41-.16.13-.32.22-.47.29-.73.38-1.38.56-2.03.77-.65.18-1.3.35-1.96.41-1.43.16-2.86.07-4.28-.21-.87-.17-1.75-.43-2.6-.87l-.24-.12c-.77-.47-1.15-1.2-1.38-1.83-.24-.64-.35-1.27-.44-1.9-.14-1.03-.32-2.05-.19-3.1.03-.23.04-.46.11-.69.09-.43.28-.69.5-.82.21-.14.44-.17.69-.15.11,0,.22,0,.3.02.25.04.52.51.67,1.05.06.76.19,1.52.27,2.25.1.73.25,1.47.47,2.05.18.5.41.75.34.71.29.16.72.38,1.2.49v.07Z"/><path class="cls-1" d="M46.4,34.11c1.04.35,2.26.51,3.46.53.44.02.87-.08,1.31-.1.77-.04,1.53-.15,2.18-.36.32-.1.59-.25.73-.36.02-.02.05-.04.09-.06.04-.07.07-.13.11-.21.07-.16.14-.34.21-.52.22-.67.34-1.4.42-2.12.1-.94.01-1.84.62-2.75.36-.31.18-.28.55-.04.2.12.41.3.68.54.23.24.39.52.46.82.03.13.06.27.08.4v.39c-.02.26-.04.52-.06.78-.05.52-.11,1.03-.22,1.55-.11.52-.25,1.03-.47,1.6-.05.14-.13.3-.21.46-.09.18-.26.41-.41.6-.16.21-.31.28-.47.41-.16.13-.32.22-.47.29-.73.38-1.38.56-2.03.77-.65.18-1.3.35-1.96.41-1.43.16-2.86.07-4.28-.21-.87-.17-1.75-.43-2.6-.87l-.24-.12c-.77-.47-1.15-1.2-1.38-1.82-.24-.64-.35-1.27-.44-1.9-.14-1.03-.32-2.05-.19-3.1.03-.23.04-.46.11-.69.09-.43.28-.69.5-.82.21-.14.44-.17.69-.15.11,0,.22,0,.3.02.25.04.52.51.67,1.05.06.76.19,1.52.27,2.25.1.73.25,1.47.47,2.05.18.5.42.75.34.72.29.16.73.38,1.21.49v.07Z"/><path class="cls-1" d="M67.02,41.64c1.04.35,2.26.51,3.46.53.44.02.87-.08,1.31-.1.77-.04,1.53-.15,2.18-.36.32-.1.59-.25.73-.36.02-.02.05-.04.09-.06.04-.07.07-.13.11-.21.07-.16.14-.34.21-.52.22-.67.34-1.4.42-2.12.1-.94.01-1.84.62-2.75.36-.31.18-.28.55-.04.2.12.41.3.68.54.23.24.39.52.46.82.03.13.06.27.08.4v.39c-.02.26-.04.52-.06.78-.05.52-.11,1.03-.22,1.55-.11.52-.25,1.03-.47,1.6-.05.14-.13.3-.21.46-.09.18-.26.41-.41.6-.16.21-.31.28-.47.41-.16.13-.32.22-.47.29-.73.38-1.38.56-2.03.77-.65.18-1.3.35-1.96.41-1.43.16-2.86.07-4.28-.21-.87-.17-1.75-.43-2.6-.87l-.24-.12c-.77-.47-1.15-1.2-1.38-1.83-.24-.64-.35-1.27-.44-1.9-.14-1.03-.32-2.05-.19-3.1.03-.23.04-.46.11-.69.09-.43.28-.69.5-.82.21-.14.44-.17.69-.15.11,0,.22,0,.3.02.25.04.52.51.67,1.05.06.76.19,1.52.27,2.25.1.73.25,1.47.47,2.05.18.5.41.75.34.71.29.16.72.38,1.2.49v.07Z"/><path class="cls-1" d="M46.07,53.26c1.04.35,2.26.51,3.46.53.44.02.87-.08,1.31-.1.77-.04,1.53-.15,2.18-.36.32-.1.59-.25.73-.36.02-.02.05-.04.09-.06.04-.07.07-.13.11-.21.07-.16.14-.34.21-.52.22-.67.34-1.4.42-2.12.1-.94.01-1.84.62-2.75.36-.31.18-.28.55-.04.2.12.41.3.68.54.23.24.39.52.46.82.03.13.06.27.08.4v.39c-.02.26-.04.52-.06.78-.05.52-.11,1.03-.22,1.55-.11.52-.25,1.03-.47,1.6-.05.14-.13.3-.21.46-.09.18-.26.41-.41.6-.16.21-.31.28-.47.41-.16.13-.32.22-.47.29-.73.38-1.38.56-2.03.77-.65.18-1.3.35-1.96.41-1.43.16-2.86.07-4.28-.21-.87-.17-1.75-.43-2.6-.87l-.24-.12c-.77-.47-1.15-1.2-1.38-1.83-.24-.64-.35-1.27-.44-1.9-.14-1.03-.32-2.05-.19-3.1.03-.23.04-.46.11-.69.09-.43.28-.69.5-.82.21-.14.44-.17.69-.15.11,0,.22,0,.3.02.25.04.52.51.67,1.05.06.76.19,1.52.27,2.25.1.73.25,1.47.47,2.05.18.5.41.75.34.71.29.16.72.38,1.2.49v.07Z"/><path class="cls-1" d="M41.95,29.86c-.04-.09-.08-.2-.12-.31-.02-.12,0-.26-.02-.39-.03-.27.01-.52.09-.75.05-.23.18-.42.29-.61.1-.19.27-.35.42-.51.67-.62,1.69-1.13,3.01-1.43.47-.12.95-.22,1.44-.31.25-.05.5-.07.76-.11l.37-.04h.24c1.11-.04,2.22.03,3.32.2,1.1.17,2.2.44,3.26.96.17.08.31.16.51.26.21.11.4.26.6.38.4.26.73.58.97.94.21.32.37.66.35,1.05.02.19-.13.35-.19.51-.06.16-.19.3-.32.44-.3.26-.61.57-1.11.73-1.13.36-1.54.36-2.25.22-.43-.13-.35-.15-.12-.49.11-.18.26-.44.42-.77.08-.16.19-.26.29-.38l.07-.08s0,0,0-.02v-.02s-.03.02.04-.03c-.02,0,0-.02,0-.05,0,0,0-.01,0-.02,0,0,0,0,0-.02l-.08-.05c-.11-.06-.25-.11-.37-.18-.52-.22-1.12-.43-1.75-.65-.62-.2-1.3-.28-1.99-.28-.34,0-.69,0-1.03.03l-.51.03h-.24c-.27.01-.59.03-.95.09-.35.07-.8.16-1.08.48-.08.1-.12.23-.1.33.03.1.11.17.19.22.17.11.37.19.6.25.34.09.71.17,1.13.22l.31.03.51.03c.36.01.73.02,1.09,0,1.13-.04,2.23-.29,3.25-.57.23-.06.43-.16.65-.22.79-.21.97-.04,1.45.42l.35.3c.18.17.26.39.15.69-.1.28-.36.6-.72.84-1.1.65-2.24.86-3.37,1.02-1.14.14-2.28.16-3.45.09-1.6-.09-3.21-.34-4.39-.76-1.17-.45-1.79-.97-2.04-1.72h.07Z"/><path class="cls-1" d="M62.56,37.39c-.04-.09-.08-.2-.12-.31-.02-.12,0-.26-.02-.39-.03-.27.01-.52.09-.75.05-.23.18-.42.29-.61.1-.19.27-.35.42-.51.67-.62,1.69-1.13,3.01-1.43.47-.12.95-.22,1.44-.31.25-.05.5-.07.76-.11l.37-.04h.24c1.11-.04,2.22.03,3.32.2,1.1.17,2.2.44,3.26.96.47.23.95.48,1.4.84.22.18.45.37.64.61.1.14.16.18.3.53.13.24.11.7,0,.94-.3.69-.68.85-.97,1.06-.31.18-.62.31-.92.4-.31.1-.61.17-.92.21-.3.07-.65-.04-.97-.08-.43-.13-.35-.15-.12-.49.11-.18.26-.44.42-.77.17-.29.39-.51.63-.69.22-.15.41-.32.57-.45.09-.07.13-.13.17-.18.03,0-.04-.07.04,0l.15.14.09.1c.07.06.14.12.22.17l.12.07s.04.03.06.04c.04.03.09.04.15.05.06,0,.01,0,.03,0-.01,0,.05,0,0,0-.05,0-.09.03-.13.05-.02.01-.03.03-.05.04h-.01s0,.01,0,.01c.18-.12-1.56,1.08-.82.57h0s0,0,0,0h-.01s-.07-.01-.08-.04c-.07-.08-.18-.17-.31-.28-.58-.42-1.58-.74-2.6-1.11-.62-.2-1.3-.28-1.99-.28-.34,0-.69,0-1.03.03l-.51.03h-.24c-.27.01-.59.03-.95.09-.35.07-.8.16-1.08.48-.08.1-.12.23-.1.33.03.1.11.17.19.22.17.11.37.19.6.25.34.09.71.17,1.13.22l.31.03.51.03c.36.01.73.02,1.09,0,1.13-.04,2.23-.29,3.25-.57.23-.06.43-.16.65-.22.79-.21.97-.04,1.45.42l.35.3c.18.17.26.39.15.69-.1.28-.36.6-.72.84-1.1.65-2.24.86-3.37,1.02-1.14.14-2.28.16-3.45.09-1.6-.09-3.21-.34-4.39-.76-1.17-.45-1.79-.97-2.04-1.72h.07Z"/><path class="cls-1" d="M41.61,49.02c-.04-.09-.08-.2-.12-.31-.02-.12,0-.26-.02-.39-.03-.27.01-.52.09-.75.05-.23.18-.42.29-.61.1-.19.27-.35.42-.51.67-.62,1.69-1.13,3.01-1.43.47-.12.95-.22,1.44-.31.25-.05.5-.07.76-.11l.37-.04h.24c1.11-.04,2.22.03,3.32.2,1.1.17,2.2.44,3.26.96.17.08.31.15.51.26.21.11.4.26.6.38.4.26.73.58.97.94.21.32.37.66.35,1.05.02.19-.13.35-.19.51-.06.16-.19.3-.32.44-.3.26-.61.57-1.11.73-1.13.36-1.54.36-2.25.22-.43-.13-.35-.15-.12-.49.11-.18.26-.44.42-.77.08-.16.19-.26.29-.38l.07-.08s0,0,0-.02v-.02s-.03.02.04-.03c-.02,0,0-.02,0-.05,0,0,0-.01,0-.02,0,0,0,0,0-.02l-.08-.05c-.11-.06-.25-.11-.37-.18-.52-.22-1.12-.43-1.75-.65-.62-.2-1.3-.28-1.99-.28-.34,0-.69,0-1.03.03l-.51.03h-.24c-.27.01-.59.03-.95.09-.35.07-.8.16-1.08.48-.08.1-.12.23-.1.33.03.1.11.17.19.22.17.11.37.19.6.25.34.09.71.17,1.13.22l.31.03.51.03c.36.01.73.02,1.09,0,1.13-.04,2.23-.29,3.25-.57.23-.06.43-.16.65-.22.79-.21.97-.04,1.45.42l.35.3c.18.17.26.39.15.69-.1.28-.36.6-.72.84-1.1.65-2.24.86-3.37,1.02-1.14.14-2.28.16-3.45.09-1.6-.09-3.21-.34-4.39-.76-1.17-.45-1.79-.97-2.04-1.72h.07Z"/><path class="cls-1" d="M20.19,39.05c-.04-.09-.08-.2-.12-.31-.02-.12,0-.26-.02-.39-.03-.27.01-.52.09-.75.05-.23.18-.42.29-.61.1-.19.27-.35.42-.51.67-.62,1.69-1.13,3.01-1.43.47-.12.95-.22,1.44-.31.25-.05.5-.07.76-.11l.37-.04h.24c1.11-.04,2.22.03,3.32.2,1.1.17,2.2.44,3.26.96.17.08.31.16.51.26.21.11.4.26.6.38.4.26.73.58.97.94.21.32.37.66.35,1.05.02.19-.13.35-.19.51-.06.16-.19.3-.32.44-.3.26-.61.57-1.11.73-1.13.36-1.54.36-2.25.22-.43-.13-.35-.15-.12-.49.11-.18.26-.44.42-.77.08-.16.19-.26.29-.38l.07-.08s0,0,0-.02v-.02s-.03.02.04-.03c-.02,0,0-.02,0-.05,0,0,0-.01,0-.02,0,0,0,0,0-.02l-.08-.05c-.11-.06-.25-.11-.37-.18-.52-.22-1.12-.43-1.75-.65-.62-.2-1.3-.28-1.99-.28-.34,0-.69,0-1.03.03l-.51.03h-.24c-.27.01-.59.03-.95.09-.35.07-.8.16-1.08.48-.08.1-.12.23-.1.33.03.1.11.17.19.22.17.11.37.19.6.25.34.09.71.17,1.13.22l.31.03.51.03c.36.01.73.02,1.09,0,1.13-.04,2.23-.29,3.25-.57.23-.06.43-.16.65-.22.79-.21.97-.04,1.45.42l.35.3c.18.17.26.39.15.69-.1.28-.36.6-.72.84-1.1.65-2.24.86-3.37,1.02-1.14.14-2.28.16-3.45.09-1.6-.09-3.21-.34-4.39-.76-1.17-.45-1.79-.97-2.04-1.72h.07Z"/><path class="cls-1" d="M70.47,85.3l-6.95-3.06-3.35-1.43c-.19-.07-.6-.39-.48.05-.07.11-.03.39-.06.59v1.53c0,2.23.12,4.46.16,6.69.09,3.94.2,7.89.38,11.82l.14,2.48c-.05.25.24.26.39.37l1.29.61,5.38,2.46c3.19,1.44,6.46,2.78,9.68,4.1,2.07.84,4.15,1.67,6.22,2.51,2.05.9,4.09,1.8,6.02,2.99.55.51.78.75.74.79-.04.05-.37-.03-1.04.05-1.31.11-3.64.07-6.11-.73-4.3-1.61-8.54-3.33-12.72-5.22-2.09-.94-4.18-1.9-6.26-2.88l-3.12-1.5-.78-.39-.39-.2c-.13-.07-.41-.24-.61-.35-.42-.26-.93-.45-1.09-.89-.16-.43-.23-.94-.34-1.4-.12-2.83-.24-5.71-.36-8.61-.12-2.83-.25-5.68-.29-8.51l-.03-3.72v-1.87s.06-1.32.06-1.32c0-.47.05-.87.03-1.38l.3-.75.15-.37.07-.19v-.02c.09.12-.18-.27.2.27h0s0,0,0,0h.01s.03-.02.04-.03l.07-.03c.19-.07.39-.14.62-.23.14,0,.27-.05.43,0l.51.17,1.96.74,1.3.52,5.18,2.13c3.52,1.48,7.04,2.96,10.56,4.43,4.45,1.91,8.92,3.82,13.34,5.71.74.24.91.98.97,1.7l.04.53.02.39.03.78c.14,4.5.17,8.87.13,13.29-.01.97,0,1.92-.04,2.91-.03.91-.07,1.66-.13,2.29-.07.63-.18,1.14-.28,1.55-.2.83-.45,1.31-.76,1.68-.14.17-.27.4-.39.49-.35.33-.76-1.17-.98-3.83-.1-3.45-.19-6.98-.29-10.56-.05-1.78-.1-3.58-.14-5.38-.02-.9-.04-1.79-.07-2.67l-.03-.65v-.15s-.01,0-.01,0h0s0,0,0,0c-.74-.31-1.5-.62-2.25-.94-5.7-2.4-11.44-4.8-17.12-7.3l.02-.07Z"/><path class="cls-1" d="M87.58,67.55c.85.31,1.87.46,2.88.49.37.02.73-.07,1.1-.07.64-.02,1.29-.1,1.82-.25.15-.03.23-.09.36-.13.09-.05.17-.08.23-.13.06-.05.11-.11.15-.19.05-.1.12-.27.17-.42.19-.56.3-1.18.36-1.79.08-.8-.02-1.56.59-2.33.36-.26.18-.24.55-.04.2.1.41.26.68.46.23.2.39.45.47.71.03.11.07.23.08.35v.34c-.02.22-.03.45-.05.67-.04.45-.09.89-.18,1.34-.1.45-.22.89-.42,1.39-.21.71-.88,1.34-1.43,1.59-.66.33-1.22.49-1.79.67-.57.16-1.13.31-1.69.36-1.24.13-2.47.04-3.7-.2-.76-.15-1.51-.38-2.26-.78-.68-.31-1.21-1.05-1.4-1.63-.23-.6-.33-1.18-.41-1.76-.12-.89-.3-1.77-.19-2.69.02-.2.03-.4.09-.6.08-.38.26-.6.47-.71.2-.12.42-.13.67-.1.11.01.21.01.3.03.24.05.54.48.71.94.09.65.25,1.27.32,1.88.1.6.24,1.21.42,1.67.07.17.14.3.19.4.05.08.02.06.02.07-.05,0,.13.1.31.18.18.08.37.16.6.21v.07Z"/><path class="cls-1" d="M67.63,75.51c.85.31,1.87.46,2.88.49.37.02.73-.07,1.1-.07.64-.02,1.29-.1,1.82-.25.15-.03.23-.09.36-.13.09-.05.17-.08.23-.13.06-.05.11-.11.15-.19.05-.1.12-.27.17-.42.19-.56.3-1.18.36-1.79.08-.8-.02-1.56.59-2.33.36-.26.18-.24.55-.04.2.1.41.26.68.46.23.2.39.45.47.71.03.11.07.23.08.35v.34c-.02.22-.03.45-.05.67-.04.45-.09.89-.18,1.34-.1.45-.22.89-.42,1.39-.21.71-.88,1.34-1.43,1.59-.66.33-1.22.49-1.79.67-.57.16-1.13.31-1.69.36-1.24.13-2.47.04-3.7-.2-.76-.15-1.51-.38-2.26-.78-.68-.31-1.21-1.05-1.4-1.63-.23-.6-.33-1.18-.41-1.76-.12-.89-.3-1.77-.19-2.69.02-.2.03-.4.09-.6.08-.37.26-.6.47-.71.2-.12.42-.13.67-.1.11.01.21.01.3.03.24.05.54.48.71.94.09.65.25,1.27.32,1.88.1.6.24,1.21.42,1.67.07.17.14.3.19.4.05.08.02.06.02.07-.05,0,.13.1.31.18.18.08.37.16.59.21v.07Z"/><path class="cls-1" d="M88.34,84.43c.85.31,1.87.46,2.88.49.37.02.73-.07,1.1-.07.54-.02,1.06-.08,1.55-.18.23-.06.45-.12.63-.2.16-.07.27-.13.34-.25.05-.05.15-.3.22-.49.19-.56.3-1.18.36-1.79.08-.8-.02-1.56.59-2.33.36-.26.18-.24.55-.04.2.1.41.26.68.46.23.2.39.45.47.71.14.38.05.73.05,1.09-.02.36-.06.72-.11,1.08-.05.36-.13.72-.23,1.08-.05.18-.11.37-.18.56l-.12.3c-.05.13-.12.28-.18.42-.19.24-.35.51-.57.7-.22.18-.46.37-.67.44-.66.33-1.22.49-1.79.67-.57.16-1.13.31-1.69.36-1.24.13-2.47.04-3.7-.2-.76-.15-1.51-.38-2.26-.78l-.2-.1c-.66-.38-1.05-1.08-1.23-1.62-.21-.57-.3-1.12-.38-1.67-.12-.89-.3-1.77-.19-2.69.02-.2.03-.4.09-.6.08-.37.26-.6.47-.71.2-.12.42-.13.67-.1.11.01.21.01.3.03.24.05.54.48.71.94.09.65.25,1.27.32,1.88.1.6.24,1.21.42,1.67.07.18.16.34.21.42.03.07,0,.03,0,.06,0,.01.07.04.14.09.06.04.15.07.23.11.16.07.34.14.53.19v.07Z"/><path class="cls-1" d="M106.96,76.39c.85.31,1.87.46,2.88.49.37.02.73-.07,1.1-.07.54-.02,1.06-.08,1.55-.18.23-.06.45-.12.63-.2.16-.07.27-.13.34-.25.05-.05.15-.3.22-.49.19-.56.3-1.18.36-1.79.08-.8-.02-1.56.59-2.33.36-.26.18-.24.55-.04.2.1.41.26.68.46.23.2.39.45.47.71.14.38.05.73.05,1.09-.02.36-.06.72-.11,1.08-.05.36-.13.72-.23,1.08-.05.18-.11.37-.18.56l-.12.3c-.05.13-.12.28-.18.42-.19.24-.35.51-.57.7-.22.18-.46.37-.67.44-.66.33-1.22.49-1.79.67-.57.16-1.13.31-1.69.36-1.24.13-2.47.04-3.7-.2-.76-.15-1.51-.38-2.26-.78l-.2-.1c-.66-.38-1.05-1.08-1.23-1.62-.21-.57-.3-1.12-.38-1.67-.12-.89-.3-1.77-.19-2.69.02-.2.03-.4.09-.6.08-.37.26-.6.47-.71.2-.12.42-.13.67-.1.11.01.21.01.3.03.24.05.54.48.71.94.09.65.25,1.27.32,1.88.1.6.24,1.21.42,1.67.07.18.16.34.21.42.03.07,0,.03,0,.06,0,.01.07.04.14.09.06.04.15.07.23.11.16.07.34.14.53.19v.07Z"/><path class="cls-1" d="M84.21,65.21c-.15-.11-.38-.34-.56-.61-.11-.18-.19-.39-.25-.59-.03-.14-.05-.28-.06-.42-.03-.28.03-.57.1-.84.08-.23.21-.49.33-.65.52-.69,1.02-.89,1.45-1.11.86-.36,1.62-.51,2.38-.62.55-.08,1.09-.2,1.64-.21.96-.02,1.91.06,2.86.21.97.17,1.85.38,2.87.89.7.37,1.35.79,1.76,1.37.05.15.21.28.25.44.05.16.09.33.09.5.02.16-.1.29-.14.42-.05.13-.12.24-.18.36-.2.23-.43.45-.78.66-.34.21-.84.34-1.28.39-.11,0-.22.03-.33.03-.14-.04-.2-.02-.27-.05-.14-.03-.28-.05-.43-.09-.38-.14-.3-.16-.12-.49.05-.11.1-.21.15-.32.05-.13.11-.25.15-.37,0-.19-.07-.23-.08-.25,0-.01-.02.02.05-.03-.03-.02.1-.05-.06-.17-.42-.18-.9-.37-1.42-.57-1.05-.38-2.26-.26-3.39-.19-.63.04-1.25.12-1.83.25-.29.06-.56.15-.78.25-.11.05-.2.1-.27.14-.02.02-.07.04-.07.04,0,0,0,0-.02,0-.07-.03-.08-.06-.13-.08-.15-.06-.15-.06-.19-.06.03,0,.06,0,.08,0h0s0,0,0,0h0c.09-.02-.77.19-.41.1h0s0,0,0,0h0s.04-.01.04-.01c.03-.01.05-.03.07-.04.09-.05.19-.13.25-.21l.09-.09s0,0,.01,0h0s.06.07.13.11c.25.14.62.26,1,.35,1.16.26,2.42.42,3.65.38.96-.04,1.89-.28,2.75-.54.19-.06.36-.14.54-.2.65-.18.8.02,1.25.49.1.11.23.2.33.31.18.18.26.39.18.67-.08.27-.3.57-.62.79-.96.61-1.94.8-2.92.95-.98.13-1.97.15-2.97.09-.74-.04-1.48-.13-2.25-.28-.38-.08-.78-.17-1.19-.3-.21-.06-.43-.15-.66-.24-.26-.11-.5-.2-.87-.48l.04-.05Z"/><path class="cls-1" d="M64.26,73.17c-.15-.11-.38-.34-.56-.61-.11-.18-.19-.39-.25-.59-.03-.14-.05-.28-.06-.42-.03-.28.03-.57.1-.84.08-.23.21-.49.33-.65.52-.69,1.02-.89,1.45-1.11.86-.36,1.62-.51,2.38-.62.55-.08,1.09-.2,1.64-.21.96-.02,1.91.06,2.86.21.97.17,1.85.38,2.87.89.7.37,1.35.79,1.76,1.37.05.15.21.28.25.44.05.16.09.33.09.5.02.16-.1.29-.14.42-.05.13-.12.24-.18.36-.2.23-.43.45-.78.66-.34.21-.84.34-1.28.39-.11,0-.22.03-.33.03-.14-.04-.2-.02-.27-.05-.14-.03-.28-.05-.43-.09-.38-.14-.3-.16-.12-.49.05-.11.1-.21.15-.32.05-.13.11-.25.15-.37,0-.19-.07-.23-.08-.25,0-.01-.02.02.05-.03-.03-.02.1-.05-.06-.17-.42-.18-.9-.37-1.42-.57-1.05-.38-2.26-.26-3.39-.19-.63.04-1.25.12-1.83.25-.29.06-.56.15-.78.25-.11.05-.2.1-.27.14-.02.02-.07.04-.07.04,0,0,0,0-.02,0-.07-.03-.08-.06-.13-.08-.15-.06-.15-.06-.19-.06.03,0,.06,0,.08,0h0s0,0,0,0h0c.09-.02-.77.19-.41.1h0s0,0,0,0h0s.04-.01.04-.01c.03-.01.05-.03.07-.04.09-.05.19-.13.25-.21l.09-.09s0,0,.01,0h0s.06.07.13.11c.25.14.62.26,1,.35,1.16.26,2.42.42,3.65.38.96-.04,1.89-.28,2.75-.54.19-.06.36-.14.54-.2.65-.18.8.02,1.25.49.1.11.23.2.33.31.18.18.26.39.18.67-.08.27-.3.57-.62.79-.96.61-1.94.8-2.92.95-.98.13-1.97.15-2.97.09-.74-.04-1.48-.13-2.25-.28-.38-.08-.78-.17-1.19-.3-.21-.06-.43-.15-.66-.24-.26-.11-.5-.2-.87-.48l.04-.05Z"/><path class="cls-1" d="M84.97,82.09c-.15-.11-.38-.34-.56-.61-.11-.18-.19-.39-.25-.59-.03-.14-.05-.28-.06-.42-.03-.28.03-.57.1-.84.08-.23.21-.49.33-.65.52-.69,1.02-.89,1.45-1.11.86-.36,1.62-.51,2.38-.62.55-.08,1.09-.2,1.64-.21.96-.02,1.91.06,2.86.21.97.17,1.85.38,2.87.89.7.37,1.35.79,1.76,1.37.05.15.21.28.25.44.05.16.09.33.09.5.02.16-.1.29-.14.42-.05.13-.12.24-.18.36-.2.23-.43.45-.78.66-.34.21-.84.34-1.28.39-.11,0-.22.03-.33.03-.14-.04-.2-.02-.27-.05-.14-.03-.28-.05-.43-.09-.38-.14-.3-.16-.12-.49.05-.11.1-.21.15-.32.05-.13.11-.25.15-.37,0-.19-.07-.23-.08-.25,0-.01-.02.02.05-.03-.03-.02.1-.05-.06-.17-.42-.18-.9-.37-1.42-.57-1.05-.38-2.26-.26-3.39-.19-.63.04-1.25.12-1.83.25-.29.06-.56.15-.78.25-.11.05-.2.1-.27.14-.02.02-.07.04-.07.04,0,0,0,0-.02,0-.07-.03-.08-.06-.13-.08-.15-.06-.15-.06-.19-.06.03,0,.06,0,.08,0h0s0,0,0,0h0c.09-.02-.77.19-.41.1h0s0,0,0,0h0s.04-.01.04-.01c.03-.01.05-.03.07-.04.09-.05.19-.13.25-.21l.09-.09s0,0,.01,0h0s.06.07.13.11c.25.14.62.26,1,.35,1.16.26,2.42.42,3.65.38.96-.04,1.89-.28,2.75-.54.19-.06.36-.14.54-.2.65-.18.8.02,1.25.49.1.11.23.2.33.31.18.18.26.39.18.67-.08.27-.3.57-.62.79-.96.61-1.94.8-2.92.95-.98.13-1.97.15-2.97.09-.74-.04-1.48-.13-2.25-.28-.38-.08-.78-.17-1.19-.3-.21-.06-.43-.15-.66-.24-.26-.11-.5-.2-.87-.48l.04-.05Z"/><path class="cls-1" d="M103.59,74.05c-.15-.11-.38-.34-.56-.61-.11-.18-.19-.39-.25-.59-.03-.14-.05-.28-.06-.42-.03-.28.03-.57.1-.84.08-.23.21-.49.33-.65.52-.69,1.02-.89,1.45-1.11.86-.36,1.62-.51,2.38-.62.55-.08,1.09-.2,1.64-.21.96-.02,1.91.06,2.86.21.97.17,1.85.38,2.87.89.7.37,1.35.79,1.76,1.37.05.15.21.28.25.44.05.16.09.33.09.5.02.16-.1.29-.14.42-.05.13-.12.24-.18.36-.2.23-.43.45-.78.66-.34.21-.84.34-1.28.39-.11,0-.22.03-.33.03-.14-.04-.2-.02-.27-.05-.14-.03-.28-.05-.43-.09-.38-.14-.3-.16-.12-.49.05-.11.1-.21.15-.32.05-.13.11-.25.15-.37,0-.19-.07-.23-.08-.25,0-.01-.02.02.05-.03-.03-.02.1-.05-.06-.17-.42-.18-.9-.37-1.42-.57-1.05-.38-2.26-.26-3.39-.19-.63.04-1.25.12-1.83.25-.29.06-.56.15-.78.25-.11.05-.2.1-.27.14-.02.02-.07.04-.07.04,0,0,0,0-.02,0-.07-.03-.08-.06-.13-.08-.15-.06-.15-.06-.19-.06.03,0,.06,0,.08,0h0s0,0,0,0h0c.09-.02-.77.19-.41.1h0s0,0,0,0h0s.04-.01.04-.01c.03-.01.05-.03.07-.04.09-.05.19-.13.25-.21l.09-.09s0,0,.01,0h0s.06.07.13.11c.25.14.62.26,1,.35,1.16.26,2.42.42,3.65.38.96-.04,1.89-.28,2.75-.54.19-.06.36-.14.54-.2.65-.18.8.02,1.25.49.1.11.23.2.33.31.18.18.26.39.18.67-.08.27-.3.57-.62.79-.96.61-1.94.8-2.92.95-.98.13-1.97.15-2.97.09-.74-.04-1.48-.13-2.25-.28-.38-.08-.78-.17-1.19-.3-.21-.06-.43-.15-.66-.24-.26-.11-.5-.2-.87-.48l.04-.05Z"/><path class="cls-1" d="M67.08,20.53c.2.11.12.39-.08.75-.06.11-.35.33-.43.31-.16-.03-.32-.06-.47-.1-.09-.03-1.1-.77-1.48-.99-.38-.21-.63-.52-.89-.82l-1.54-1.84c-.11-.14-.2-.29-.26-.46-.21-.58-.53-1.09-.91-1.56-.06-.08-.1-.17-.25-.2-.24-.04-1.15-1.41-1.19-1.63-.11-.55-.28-1.07-.41-1.6-.02-.08-.1-.12-.02-.25.18-.29.06-.4,0-.56-.09-.21-.16-.43-.18-.68-.02-.12.11-.32.18-.48.07-.15.48-.31.54-.31.17.02.32-.16.48-.25.05-.03.12-.08.17-.1.17-.08,1.43.65,1.5.77,0,.01.29.39.59.79.3.39.62.8.69.87.08.08.08.21.09.33,0,.06.97,1.2.99,1.25.13.28.38.48.32.88-.01.08.03.12.07.17.29.44.46.96.67,1.45.11.25.27.47.4.7.02.04.02.1.03.15.01.06.02.13.05.19.33.55.59,1.14.95,1.66.08.12.22.88.33,1.01.05.08-.02.52.06.56Z"/><path class="cls-1" d="M74.66,23.87c.05.19-.29.18-.79.11-.16-.02-.59-.21-.64-.28-.09-.14-.19-.29-.26-.42-.05-.08-.09-1.16,0-1.5.03-.35.16-.65.31-.94.31-.59.61-1.19.97-1.75.08-.13.18-.23.32-.32.45-.29.76-.68,1.04-1.11.05-.07.12-.12.09-.26-.07-.24.9-1.25,1.1-1.3.47-.15.88-.34,1.32-.49.06-.02.09-.1.21-.03.29.16.36.04.48-.03.16-.09.34-.16.55-.18.1-.01.27.08.42.14.14.06.36.46.37.52.02.16.19.3.31.46.04.05.09.12.12.16.05.1-.23,1.27-.3,1.33-.03,0-.87,1.03-.93,1.18-.03.07-.14.08-.23.1-.05.01-.59.91-.63.93-.18.13-.23.36-.58.35-.07,0-.09.04-.11.08-.21.31-.53.53-.81.79-.14.13-.22.31-.34.46-.02.03-.07.04-.11.05-.04.02-.09.04-.12.08-.23.39-.6.71-.72,1.16-.02.1-.54.41-.58.53-.02.06-.5.1-.48.18Z"/></svg>