<svg width="128" height="128" viewBox="0 0 128 128" fill="none" xmlns="http://www.w3.org/2000/svg">
<path d="M25.7201 39.53C26.0701 37.88 26.4401 36.23 27.0501 34.55C27.2101 34.13 27.3701 33.71 27.6001 33.27C27.7001 33.06 27.8301 32.83 27.9801 32.6C28.1001 32.38 28.3301 32.13 28.5501 31.9C29.3101 31.3 30.0301 30.73 30.8201 30.33C31.1001 30.17 31.3801 30 31.6701 29.85L32.5301 29.45L33.3901 29.05L34.2701 28.73C36.3501 27.99 38.4701 27.5 40.5801 27.09C42.7001 26.67 44.8201 26.39 46.9501 26.12C48.8401 25.9 50.7301 25.66 52.6001 25.48C55.0001 25.26 57.4301 24.9 59.8701 25.26C60.6301 25.42 60.5201 25.72 59.8901 26.19C59.5801 26.44 59.1401 26.67 58.6101 26.91C58.0801 27.16 57.4601 27.33 56.7801 27.38C54.3701 27.57 51.9601 27.8 49.5501 28.07C47.1401 28.31 44.7301 28.59 42.3101 28.92C39.4301 29.33 36.4901 30.19 33.8301 31.31L32.7401 31.79C32.3801 31.96 32.0601 32.17 31.7201 32.35L31.2101 32.64L30.7601 32.98L30.3101 33.32L30.0901 33.49C30.0901 33.49 30.0101 33.58 29.9701 33.62C29.6001 34.04 29.2801 34.82 29.0201 35.54C28.7601 36.28 28.5301 37.06 28.3301 37.85C27.8201 39.79 27.4601 41.8 27.1501 43.81C26.6801 46.86 26.2901 49.94 26.0301 53C25.8201 55.38 25.8401 57.73 25.6801 60.08C25.6501 60.6 25.6301 61.11 25.6001 61.63C25.4401 63.56 25.1201 64.16 24.7301 64.56C24.6401 64.65 24.5501 64.77 24.4601 64.83C24.2101 65.01 23.9101 64.2 23.7201 62.75C23.5901 61.68 23.5901 60.6 23.5401 59.51C23.5001 58.42 23.4901 57.31 23.5601 56.21C23.6701 54 23.8401 51.76 24.0901 49.51C24.4701 46.18 24.9701 42.85 25.6301 39.51H25.6901L25.7201 39.53Z" fill="#231F20"/>
<path d="M59.2299 116.85C54.4699 95.33 68.5499 97.28 68.9899 97.05C68.9899 97.05 63.4599 93.23 58.7799 96.98C53.8599 100.93 53.9299 103.24 53.6299 107.86C53.3299 112.48 53.6299 116.68 53.6299 116.68L59.2199 116.85H59.2299Z" fill="#231F20"/>
<path d="M39.02 42.44C38.87 42.74 36.21 50.42 37.4 52.06C37.93 52.79 50.96 52.66 52 51.99C53.04 51.32 54.09 54.82 50.73 55.12C47.37 55.42 34.97 54.88 34.69 54C34.41 53.12 33.54 43.54 34.69 43.05C35.84 42.56 39.01 42.45 39.01 42.45L39.02 42.44Z" fill="#231F20"/>
<path d="M40.02 70.35C39.87 70.65 37.21 78.33 38.4 79.97C38.93 80.7 51.96 80.57 53 79.9C54.04 79.23 55.09 82.73 51.73 83.03C48.37 83.33 35.97 82.79 35.69 81.91C35.41 81.03 34.54 71.45 35.69 70.96C36.84 70.47 40.01 70.36 40.01 70.36L40.02 70.35Z" fill="#231F20"/>
<path d="M78.6602 70.35C78.5102 70.65 75.8502 78.33 77.0402 79.97C77.5702 80.7 90.6002 80.57 91.6402 79.9C92.6802 79.23 93.7302 82.73 90.3702 83.03C87.0202 83.33 74.6102 82.79 74.3302 81.91C74.0502 81.03 73.1802 71.45 74.3302 70.96C75.4802 70.47 78.6502 70.36 78.6502 70.36L78.6602 70.35Z" fill="#231F20"/>
<path d="M78.6602 42.44C78.5102 42.74 76.8202 50.27 78.0102 51.91C78.5402 52.64 90.6002 52.66 91.6402 51.98C92.6802 51.3 93.7302 54.81 90.3702 55.11C87.0102 55.41 74.6102 54.87 74.3302 53.99C74.0502 53.11 73.1802 43.53 74.3302 43.04C75.4802 42.55 78.6502 42.44 78.6502 42.44H78.6602Z" fill="#231F20"/>
<path d="M23.7598 52.4C24.0098 48.44 24.2798 44.49 24.6998 40.53C24.7898 39.54 24.9198 38.55 25.0398 37.56C25.1598 36.57 25.2698 35.58 25.4398 34.59L25.6698 33.1L25.7298 32.73L25.7598 32.54L25.8398 32.22C25.9398 31.79 26.1498 31.43 26.3498 31.1C27.2398 29.85 28.2898 29.31 29.2698 28.81C30.7198 28.11 32.1598 27.66 33.5998 27.25C35.0398 26.85 36.4798 26.54 37.9298 26.3C43.0298 25.44 48.1298 25.05 53.2298 24.8C58.3298 24.56 63.4198 24.5 68.5098 24.57C73.0298 24.64 77.5698 24.72 82.0498 25C84.9298 25.19 87.8098 25.41 90.6898 25.8C92.1298 25.98 93.5598 26.23 94.9798 26.57C96.3998 26.89 97.8098 27.29 99.1698 27.89C100.02 28.25 100.34 28.52 100.28 28.59C100.21 28.68 99.7598 28.61 98.9898 28.57C97.4398 28.48 94.6598 28.57 91.4198 28.29C85.6798 27.69 79.8598 27.55 74.0498 27.3C68.2298 27.12 62.3798 27.09 56.5098 27.21C52.9998 27.28 49.4298 27.52 45.8598 27.92C42.2998 28.33 38.7198 28.86 35.2998 29.68C33.4398 30.13 31.5598 30.69 30.0298 31.54C29.2698 31.94 28.6498 32.52 28.5498 32.9C28.5298 32.93 28.4798 33.21 28.4498 33.46L28.3398 34.19L28.1198 35.64C27.5998 39.53 27.2198 43.47 26.9398 47.42C26.6098 52.28 26.3398 57.16 26.2198 62.03C26.0098 69.42 25.9398 76.85 26.1598 84.18C26.3398 89.88 26.7598 95.46 27.2798 101.06C27.4098 102.29 27.5298 103.5 27.6498 104.74C27.7598 105.89 27.8298 106.85 27.8498 107.65C27.8898 108.45 27.9098 109.1 27.8798 109.64C27.8098 110.72 27.6298 111.36 27.3298 111.9C27.1898 112.14 27.0698 112.46 26.9398 112.61C26.7098 112.86 26.4398 112.53 26.1298 111.71C25.8198 110.89 25.4398 109.59 25.1598 107.9C23.6898 97.83 23.2298 87.12 23.1398 76.39C23.0898 68.42 23.2598 60.41 23.6798 52.42H23.7498L23.7598 52.4Z" fill="#231F20"/>
<path d="M102.27 85.72C102.44 81.6 102.53 77.46 102.53 73.33C102.53 71.82 102.42 70.32 102.44 68.81C102.44 63.49 102.38 58.17 102.08 52.86C101.95 50.5 101.71 48.14 101.42 45.82C101.21 44.34 101.01 42.85 100.8 41.36L100.52 39.14C100.45 38.78 100.47 38.4 100.48 38.02C100.48 37.65 100.5 37.27 100.48 36.91C100.45 36.09 100.53 36 101.21 36.67C101.53 37.01 101.98 37.5 102.47 38.13C102.9 38.77 103.17 39.56 103.36 40.43C103.69 41.97 103.89 43.52 104.07 45.06C104.25 46.61 104.4 48.15 104.52 49.7C104.76 52.8 104.9 55.91 104.92 59.03C104.95 62.77 105.28 66.64 105.36 70.45C105.41 74.65 105.36 78.85 105.24 83.04C105.17 85.62 105.05 88.2 104.93 90.78C104.74 94.69 104.43 98.6 104.14 102.48C103.93 105.49 103.78 108.45 103.52 111.44C103.45 112.1 103.41 112.74 103.33 113.4C103.22 114.63 102.91 115.41 102.7 115.95C102.58 116.22 102.46 116.43 102.31 116.59C102.14 116.75 101.95 116.87 101.79 116.98C101.64 117.08 101.5 117.21 101.41 117.27C101.18 117.47 100.54 116.35 100.63 114.57C100.84 109.28 101.31 103.76 101.62 98.18C101.86 94.04 102.09 89.88 102.2 85.72H102.27Z" fill="#231F20"/>
<path d="M38.7902 55.48L36.9302 55.38L35.6502 55.3C35.3502 55.3 35.1302 55.2 34.8902 55.13C34.6502 55.05 34.4202 54.98 34.1902 54.89C34.0502 54.67 33.9502 54.42 33.8402 54.19C33.7502 53.94 33.7102 53.62 33.6402 53.34C33.5902 53.07 33.5902 52.66 33.5802 52.46L33.5602 51.93L33.5302 49.83C33.5302 48.87 33.4602 47.91 33.4702 46.95L33.5402 44.17L33.5802 43.64C33.6102 43.48 33.6602 43.32 33.7002 43.17C33.7202 43 33.8302 42.9 33.9602 42.79C34.0802 42.68 34.2102 42.59 34.3502 42.5C34.5902 42.28 34.9502 42.21 35.2702 42.1C35.6402 41.96 35.7902 41.96 36.0202 41.9C37.7602 41.54 39.4602 41.35 41.1802 41.27C42.7002 41.2 44.2302 41.12 45.7502 41.14C46.7202 41.18 47.7002 41.23 48.6802 41.37C49.6502 41.55 50.6002 41.89 51.4702 42.38C52.0202 42.68 51.9002 42.76 51.3402 42.93C50.7802 43.08 49.7702 43.57 48.7302 43.64C48.2602 43.67 47.8102 43.62 47.3502 43.62H45.9602C45.0302 43.65 44.1102 43.63 43.1802 43.67C41.3202 43.75 39.4402 43.87 37.5802 44.06C37.3102 44.1 37.0202 44.13 36.7502 44.18L36.1302 44.31C36.0402 44.33 35.9402 44.35 35.8702 44.41C35.8302 44.49 35.8402 44.59 35.8402 44.69L35.8202 45.36V46.25C35.8202 46.85 35.8202 47.44 35.8202 48.04V50.98L35.8502 52.43C35.8602 52.61 35.8202 52.86 35.9102 53.02C36.2102 53.07 36.2902 53.09 37.1002 53.11C38.7002 53.15 40.3202 53.17 41.9402 53.17C44.3902 53.17 46.8502 53.2 49.2802 53.1C49.7502 53.08 50.2202 53.05 50.6802 53.01L51.0402 52.96L51.2102 52.93C51.2702 52.93 51.3202 52.91 51.3302 52.83C51.3702 52.71 51.3802 52.59 51.3902 52.48V52.31L51.4002 52.24L51.4202 52.08C51.4702 51.64 51.5002 51.19 51.5302 50.74C51.5502 50.34 51.5702 49.95 51.5802 49.55C51.6402 48.81 51.6902 48.33 51.8302 47.99C51.9902 47.65 52.2002 47.46 52.5102 47.29C52.6502 47.22 52.7902 47.12 52.9302 47.07C53.1602 46.99 53.3702 47.11 53.5702 47.4C53.7602 47.69 53.9402 48.15 53.9802 48.74C54.0502 49.62 54.0902 50.5 54.0302 51.41C54.0002 51.89 53.9702 52.26 53.8802 52.84C53.8102 53.26 53.7202 53.66 53.5902 54.04C53.4802 54.45 53.2102 54.69 52.9702 54.97C52.4402 55.38 51.5002 55.47 50.7202 55.49L49.3902 55.55C48.5102 55.57 47.6202 55.6 46.7302 55.62C44.0902 55.67 41.4402 55.63 38.7902 55.55V55.49V55.48Z" fill="#231F20"/>
<path d="M78.8302 55.39L76.4602 55.32L75.1102 55.28C74.3502 55.31 73.7902 55.06 73.2102 54.87C72.9802 54.47 72.7902 54.08 72.7102 53.54C72.6402 53.3 72.6302 53.02 72.6202 52.74L72.6002 52.17L72.5602 50.32C72.5502 49.29 72.4802 48.27 72.4902 47.25L72.5402 44.38C72.6002 43.62 72.6002 42.87 73.2602 42.51C73.8102 42.15 74.7402 41.96 75.0802 41.89C76.9302 41.54 78.7302 41.34 80.5602 41.25C82.1802 41.17 83.8002 41.09 85.4102 41.1C86.4402 41.13 87.4902 41.17 88.5202 41.31C89.5502 41.49 90.5702 41.83 91.5102 42.33C92.0902 42.65 91.9702 42.72 91.3802 42.88C91.0902 42.96 90.6702 43.09 90.1902 43.26C89.7102 43.41 89.1802 43.53 88.6102 43.58C87.6202 43.58 86.6402 43.54 85.6502 43.58C84.6602 43.59 83.6702 43.58 82.6702 43.63C80.6802 43.72 78.6602 43.85 76.6602 44.04C76.3602 44.07 76.0602 44.11 75.7702 44.16L75.1202 44.28C75.0302 44.3 74.9102 44.31 74.8502 44.39C74.8302 44.49 74.8302 44.59 74.8302 44.69L74.8102 45.5V46.45C74.8102 47.09 74.8102 47.72 74.8102 48.36V51.11L74.8502 52.4C74.8602 52.57 74.8202 52.79 74.9102 52.94C75.1102 52.98 75.2502 52.98 75.5402 53L76.9602 53.02C78.6802 53.02 80.4002 53 82.1202 52.96L86.0402 52.89L87.9902 52.83L88.9602 52.79L89.7502 52.74C89.9302 52.73 90.0602 52.71 90.1902 52.7C90.2502 52.68 90.3402 52.7 90.3702 52.64C90.4002 52.57 90.4002 52.5 90.4102 52.43C90.4202 52.29 90.4202 52.16 90.4202 52.01V51.44C90.4102 50.46 90.3602 49.48 90.3302 48.49C90.3102 48.05 90.2802 47.63 90.2802 47.19C90.2602 45.56 90.4902 45.05 91.1202 44.69C91.2602 44.61 91.4002 44.5 91.5402 44.45C91.7702 44.37 91.9802 44.5 92.1802 44.79C92.3702 45.09 92.5702 45.56 92.6402 46.17C92.8902 47.97 92.9902 49.81 92.9502 51.73C92.8902 52.21 92.9702 53.47 92.5202 54.05C92.4202 54.22 92.3102 54.35 92.1902 54.51L92.1502 54.57V54.58C92.2502 54.69 92.1702 54.61 92.2002 54.64H92.1902L92.1602 54.67L92.0602 54.75C92.0002 54.81 91.9202 54.86 91.8102 54.88C91.4202 55.01 91.0102 55.14 90.6002 55.14L88.7302 55.25L87.3102 55.31C84.5002 55.42 81.6802 55.44 78.8502 55.42V55.36L78.8302 55.39Z" fill="#231F20"/>
<path d="M39.59 83.17L37.73 83.07L36.45 82.99C36.15 82.99 35.93 82.89 35.69 82.82C35.45 82.74 35.22 82.67 34.99 82.58C34.85 82.36 34.75 82.11 34.64 81.88C34.55 81.63 34.51 81.31 34.44 81.03C34.39 80.76 34.39 80.35 34.38 80.15L34.36 79.62L34.33 77.52C34.33 76.56 34.26 75.6 34.27 74.64L34.34 71.86L34.38 71.33C34.41 71.17 34.46 71.01 34.5 70.86C34.52 70.69 34.63 70.59 34.76 70.48C34.88 70.37 35.01 70.28 35.15 70.19C35.39 69.97 35.75 69.9 36.07 69.79C36.44 69.65 36.59 69.65 36.82 69.59C38.56 69.23 40.26 69.04 41.98 68.96C43.5 68.89 45.03 68.81 46.55 68.83C47.52 68.87 48.5 68.92 49.48 69.06C50.45 69.24 51.4 69.58 52.27 70.07C52.82 70.37 52.7 70.45 52.14 70.62C51.58 70.77 50.57 71.26 49.53 71.33C49.06 71.36 48.61 71.31 48.15 71.31H46.76C45.83 71.34 44.91 71.32 43.98 71.36C42.12 71.44 40.24 71.56 38.38 71.75C38.11 71.79 37.82 71.82 37.55 71.87L36.93 72C36.84 72.02 36.74 72.04 36.67 72.1C36.63 72.18 36.64 72.28 36.64 72.38L36.62 73.05V73.94C36.62 74.54 36.62 75.13 36.62 75.73V78.67L36.65 80.12C36.66 80.3 36.62 80.55 36.71 80.71C37.01 80.76 37.09 80.78 37.9 80.8C39.5 80.84 41.12 80.86 42.74 80.86C45.19 80.86 47.65 80.89 50.08 80.79C50.55 80.77 51.02 80.74 51.48 80.7L51.84 80.65L52.01 80.62C52.07 80.62 52.12 80.6 52.13 80.52C52.17 80.4 52.18 80.28 52.19 80.17V80L52.2 79.93L52.22 79.77C52.27 79.33 52.3 78.88 52.33 78.43C52.35 78.03 52.37 77.64 52.38 77.24C52.44 76.5 52.49 76.02 52.63 75.68C52.79 75.34 53 75.15 53.31 74.98C53.45 74.91 53.59 74.81 53.73 74.76C53.96 74.68 54.17 74.8 54.37 75.09C54.56 75.38 54.74 75.84 54.78 76.43C54.85 77.31 54.89 78.19 54.83 79.1C54.8 79.58 54.77 79.95 54.68 80.53C54.61 80.95 54.52 81.35 54.39 81.73C54.28 82.14 54.01 82.38 53.77 82.66C53.24 83.07 52.3 83.16 51.52 83.18L50.19 83.24C49.31 83.26 48.42 83.29 47.53 83.31C44.89 83.36 42.24 83.32 39.59 83.24V83.18V83.17Z" fill="#231F20"/>
<path d="M79.63 83.09L77.26 83.02L75.91 82.98C75.15 83.01 74.59 82.76 74.01 82.57C73.78 82.17 73.59 81.78 73.51 81.24C73.44 81 73.43 80.72 73.42 80.44L73.4 79.87L73.36 78.02C73.35 76.99 73.28 75.97 73.29 74.95L73.34 72.08C73.4 71.32 73.4 70.57 74.06 70.21C74.61 69.85 75.54 69.66 75.88 69.59C77.73 69.24 79.53 69.04 81.36 68.95C82.98 68.87 84.6 68.79 86.21 68.8C87.24 68.83 88.29 68.87 89.32 69.01C90.35 69.19 91.37 69.53 92.31 70.03C92.89 70.35 92.77 70.42 92.18 70.58C91.89 70.66 91.47 70.79 90.99 70.96C90.51 71.11 89.98 71.23 89.41 71.28C88.42 71.28 87.44 71.24 86.45 71.28C85.46 71.29 84.47 71.28 83.47 71.33C81.48 71.42 79.46 71.55 77.46 71.74C77.16 71.77 76.86 71.81 76.57 71.86L75.92 71.98C75.83 72 75.71 72.01 75.65 72.09C75.63 72.19 75.63 72.29 75.63 72.39L75.61 73.2V74.15C75.61 74.79 75.61 75.42 75.61 76.06V78.81L75.65 80.1C75.66 80.27 75.62 80.49 75.71 80.64C75.91 80.68 76.05 80.68 76.34 80.7L77.76 80.72C79.48 80.72 81.2 80.7 82.92 80.66L86.84 80.59L88.79 80.53L89.76 80.49L90.55 80.44C90.73 80.43 90.86 80.41 90.99 80.4C91.05 80.38 91.14 80.4 91.17 80.34C91.2 80.27 91.2 80.2 91.21 80.13C91.22 79.99 91.22 79.86 91.22 79.71V79.14C91.21 78.16 91.16 77.18 91.13 76.19C91.11 75.75 91.08 75.33 91.08 74.89C91.06 73.26 91.29 72.75 91.92 72.39C92.06 72.31 92.2 72.2 92.34 72.15C92.57 72.07 92.78 72.2 92.98 72.49C93.17 72.79 93.37 73.26 93.44 73.87C93.69 75.67 93.79 77.51 93.75 79.43C93.69 79.91 93.77 81.17 93.32 81.75C93.22 81.92 93.11 82.05 92.99 82.21L92.95 82.27V82.28C93.05 82.39 92.97 82.31 93 82.34H92.99L92.96 82.37L92.86 82.45C92.8 82.51 92.72 82.56 92.61 82.58C92.22 82.71 91.81 82.84 91.4 82.84L89.53 82.95L88.11 83.01C85.3 83.12 82.48 83.14 79.65 83.12V83.06L79.63 83.09Z" fill="#231F20"/>
<path d="M109.35 114.51C109.97 114.6 110.6 114.67 111.24 114.72C111.47 114.74 111.7 114.68 111.94 114.7C112.77 114.79 113.61 114.82 114.45 114.91C114.82 114.94 115.19 114.91 115.56 114.89C116.03 114.87 116.51 114.91 117 115.07C117.15 115.12 117.15 115.31 117.05 115.56C116.95 115.8 116.76 116.17 116.5 116.33C116.27 116.45 116.05 116.59 115.82 116.69C115.59 116.75 115.35 116.8 115.11 116.84C114.64 116.91 114.16 116.98 113.66 116.87C113.07 116.77 112.48 116.94 111.88 116.97C111.22 117 110.56 116.99 109.89 116.97C109.48 116.97 109.07 116.93 108.65 116.91C108.02 116.88 107.4 116.79 106.77 116.78C106.28 116.76 105.77 116.87 105.27 116.81C105.16 116.79 105.05 116.81 104.94 116.75C104.55 116.56 104.47 116.35 104.52 115.88C104.53 115.77 104.54 115.67 104.56 115.57C104.62 115.24 104.86 114.98 105.16 114.82C105.61 114.56 105.99 114.44 106.38 114.39C106.77 114.32 107.15 114.34 107.55 114.36C108.15 114.39 108.76 114.43 109.37 114.46V114.52L109.35 114.51Z" fill="#231F20"/>
<path d="M70.2402 98.79L69.5102 98.29L68.7002 97.92C68.1802 97.62 67.5402 97.56 66.9602 97.37C66.3502 97.25 65.7102 97.23 65.0802 97.15H64.1202C63.8002 97.17 63.5002 97.22 63.1802 97.24C62.2802 97.38 61.4302 97.68 60.6402 98.05C59.9502 98.4 59.3002 98.84 58.7202 99.37C58.1502 99.92 57.6502 100.56 57.2002 101.26C56.3302 102.68 55.7502 104.33 55.3602 106.04C55.0102 107.56 54.9102 109.15 54.8302 110.72C54.7802 111.73 54.8002 112.75 54.7902 113.77C54.7902 114.79 54.7802 115.82 54.4902 116.87C54.2502 117.53 54.0202 117.41 53.5602 116.87C53.3202 116.6 53.0602 116.22 52.7802 115.76C52.5402 115.3 52.4002 114.75 52.3602 114.15C52.0902 109.92 52.3802 105.34 54.5502 101.2C55.2102 99.98 55.9902 98.77 57.0102 97.71C58.0302 96.66 59.3202 95.82 60.7002 95.34C62.2202 94.81 63.8002 94.65 65.3202 94.71C66.8402 94.82 68.4002 95.03 69.8402 95.68C71.6102 96.42 73.2002 97.66 74.3002 99.21C76.0102 101.54 76.7602 104.31 77.2502 106.97C77.5902 109.05 77.8902 111.12 77.9202 113.2C77.9402 113.66 77.9502 114.11 77.9102 114.57C77.8702 115 77.8402 115.35 77.7702 115.64C77.6902 115.93 77.5602 116.16 77.4602 116.35C77.2402 116.72 77.0202 116.92 76.7402 117.07C76.6202 117.14 76.5002 117.23 76.4002 117.27C76.0902 117.39 75.7402 116.66 75.4602 115.44C75.2202 113.65 75.2102 111.87 74.9802 110.09C74.7602 108.32 74.4802 106.56 74.0302 104.88C73.6402 103.67 73.2402 102.45 72.5802 101.43C72.3002 100.87 71.8902 100.46 71.5302 99.97C71.3302 99.75 71.1002 99.57 70.8902 99.37L70.5702 99.07C70.4502 98.98 70.3202 98.91 70.2002 98.83L70.2302 98.77L70.2402 98.79Z" fill="#231F20"/>
<path d="M63.59 118L50.2 117.72L45.32 117.7C39.58 117.57 33.85 117.43 28.11 117.4C25.57 117.4 23.01 117.48 20.49 117.57C17.25 117.65 14.03 117.93 10.78 117.66C9.75 117.56 9.88 117.6 10.69 117.22C11.49 116.78 13.03 115.93 14.91 115.61C21.57 114.8 28.22 114.89 34.91 115.07C38.91 115.21 43.08 115.05 47.17 115.06C51.67 115.06 56.17 115.14 60.67 115.2C63.44 115.24 66.21 115.27 68.97 115.31C73.16 115.35 77.37 115.43 81.53 115.37C84.76 115.33 87.93 115.11 91.13 114.96C91.83 114.93 92.52 114.87 93.23 114.85C95.86 114.78 96.7 114.95 97.27 115.74C97.4 115.91 97.57 116.08 97.65 116.24C97.91 116.77 96.84 117.37 94.91 117.53C89.19 118.09 83.16 118.17 77.11 118.18C72.61 118.18 68.1 118.11 63.59 118.07V118Z" fill="#231F20"/>
<path d="M98.2099 10.8C98.1699 10.63 98.3699 10.56 98.6999 10.55C98.8099 10.55 99.0999 10.65 99.1299 10.7C99.1799 10.81 99.2299 10.91 99.2599 11.01C99.2799 11.07 99.1499 11.92 99.1199 12.21C99.0899 12.49 99.0099 12.76 98.9299 13.02C98.7599 13.56 98.5999 14.1 98.4299 14.63C98.3899 14.75 98.3399 14.86 98.2699 14.97C98.0499 15.35 97.9099 15.75 97.7999 16.17C97.7799 16.24 97.7499 16.31 97.7699 16.39C97.8099 16.52 97.4499 17.63 97.3699 17.76C97.1699 18.09 96.9999 18.43 96.8099 18.76C96.7799 18.81 96.7799 18.87 96.7199 18.9C96.5599 18.97 96.5499 19.08 96.4999 19.19C96.4399 19.34 96.3699 19.49 96.2799 19.62C96.2399 19.69 96.1399 19.74 96.0599 19.8C95.9899 19.85 95.8199 19.76 95.7999 19.73C95.7599 19.64 95.6599 19.67 95.5799 19.65C95.5499 19.65 95.5199 19.64 95.4999 19.63C95.4599 19.61 95.4199 18.63 95.4499 18.53C95.4499 18.51 95.7699 17.19 95.7899 17.04C95.7999 16.96 95.8599 16.89 95.8999 16.82C95.9199 16.79 96.1399 15.73 96.1599 15.69C96.2399 15.48 96.2599 15.25 96.4399 15.08C96.4699 15.05 96.4799 15 96.4899 14.96C96.5899 14.59 96.7499 14.24 96.8899 13.88C96.9599 13.7 97.0099 13.51 97.0699 13.32C97.0799 13.29 97.1099 13.26 97.1299 13.23C97.1499 13.19 97.1799 13.15 97.1899 13.11C97.3199 12.66 97.5199 12.24 97.6099 11.78C97.6299 11.67 97.9199 11.23 97.9399 11.11C97.9499 11.04 98.2199 10.89 98.1999 10.82L98.2099 10.8Z" fill="#231F20"/>
<path d="M101.82 16.43C101.99 16.39 102.06 16.59 102.07 16.92C102.07 17.03 101.97 17.32 101.92 17.35C101.81 17.4 101.71 17.45 101.61 17.48C101.55 17.5 100.71 17.37 100.42 17.34C100.14 17.31 99.8698 17.23 99.6098 17.15C99.0798 16.98 98.5398 16.82 97.9998 16.65C97.8798 16.61 97.7698 16.56 97.6598 16.5C97.2798 16.28 96.8798 16.14 96.4698 16.03C96.3998 16.01 96.3298 15.98 96.2498 16C96.1198 16.04 95.0198 15.68 94.8898 15.6C94.5598 15.4 94.2298 15.23 93.8898 15.04C93.8398 15.01 93.7798 15.01 93.7498 14.95C93.6798 14.79 93.5698 14.78 93.4598 14.73C93.3098 14.67 93.1698 14.6 93.0298 14.51C92.9598 14.47 92.9098 14.37 92.8498 14.29C92.7998 14.22 92.8898 14.05 92.9198 14.03C93.0098 13.99 92.9798 13.89 92.9998 13.81C92.9998 13.78 93.0098 13.75 93.0198 13.73C93.0398 13.69 94.0198 13.65 94.1098 13.68C94.1298 13.68 95.4398 14 95.5998 14.02C95.6798 14.03 95.7498 14.08 95.8198 14.13C95.8498 14.15 96.9098 14.37 96.9498 14.39C97.1598 14.47 97.3898 14.49 97.5598 14.67C97.5898 14.7 97.6398 14.71 97.6798 14.72C98.0498 14.82 98.3998 14.97 98.7598 15.12C98.9398 15.19 99.1298 15.24 99.3198 15.3C99.3498 15.31 99.3798 15.34 99.4098 15.36C99.4498 15.38 99.4898 15.41 99.5298 15.42C99.9798 15.55 100.4 15.75 100.85 15.84C100.96 15.86 101.4 16.15 101.52 16.17C101.59 16.18 101.74 16.45 101.81 16.43H101.82Z" fill="#231F20"/>
<path d="M100.88 13.43C100.98 13.29 101.15 13.4 101.37 13.65C101.44 13.73 101.55 14.02 101.53 14.07C101.49 14.18 101.44 14.28 101.39 14.37C101.36 14.42 100.68 14.85 100.45 15.01C100.23 15.16 99.9898 15.27 99.7498 15.37C99.2598 15.57 98.7798 15.78 98.2898 15.99C98.1798 16.03 98.0698 16.07 97.9498 16.08C97.5398 16.14 97.1698 16.29 96.7998 16.46C96.7398 16.49 96.6698 16.51 96.6298 16.58C96.5598 16.69 95.5498 17.1 95.3998 17.12C95.0398 17.17 94.6898 17.25 94.3398 17.31C94.2898 17.31 94.2498 17.36 94.1798 17.32C94.0298 17.24 93.9398 17.3 93.8398 17.33C93.6998 17.37 93.5498 17.41 93.3898 17.43C93.3098 17.43 93.2198 17.4 93.1298 17.37C93.0498 17.35 93.0098 17.15 93.0198 17.13C93.0598 17.05 92.9698 16.99 92.9398 16.91C92.9298 16.89 92.9098 16.85 92.9098 16.83C92.8998 16.78 93.5698 16.15 93.6598 16.11C93.6798 16.11 94.8098 15.52 94.9298 15.44C94.9898 15.4 95.0798 15.4 95.1498 15.39C95.1898 15.39 96.0798 14.89 96.1198 14.88C96.3198 14.81 96.4898 14.69 96.7298 14.71C96.7798 14.71 96.8098 14.69 96.8498 14.67C97.1798 14.51 97.5198 14.42 97.8698 14.31C98.0498 14.25 98.2098 14.17 98.3798 14.1C98.4098 14.09 98.4498 14.1 98.4798 14.09C98.5198 14.09 98.5698 14.09 98.6098 14.06C99.0098 13.88 99.4298 13.77 99.8198 13.55C99.9098 13.5 100.4 13.45 100.5 13.39C100.56 13.35 100.83 13.47 100.87 13.41L100.88 13.43Z" fill="#231F20"/>
<path d="M94.61 12.16C94.46 12.08 94.53 11.9 94.75 11.64C94.82 11.56 95.08 11.4 95.14 11.41C95.25 11.43 95.37 11.46 95.46 11.5C95.52 11.52 96.05 12.12 96.25 12.31C96.44 12.5 96.58 12.72 96.72 12.94C97 13.39 97.29 13.83 97.57 14.28C97.63 14.38 97.68 14.49 97.72 14.6C97.85 14.99 98.06 15.34 98.29 15.67C98.33 15.72 98.36 15.79 98.43 15.82C98.55 15.87 99.13 16.8 99.17 16.94C99.28 17.29 99.42 17.62 99.54 17.95C99.56 18 99.6 18.03 99.58 18.1C99.53 18.26 99.6 18.34 99.65 18.44C99.72 18.58 99.78 18.71 99.82 18.86C99.84 18.93 99.82 19.04 99.81 19.13C99.81 19.21 99.62 19.29 99.59 19.28C99.5 19.25 99.46 19.35 99.39 19.4C99.37 19.42 99.34 19.44 99.32 19.45C99.28 19.47 98.53 18.91 98.48 18.83C98.47 18.81 97.71 17.79 97.61 17.69C97.56 17.63 97.54 17.55 97.52 17.48C97.51 17.45 96.87 16.65 96.86 16.61C96.76 16.43 96.61 16.27 96.59 16.04C96.59 15.99 96.56 15.96 96.53 15.93C96.32 15.64 96.17 15.31 96 14.99C95.91 14.83 95.8 14.68 95.7 14.52C95.68 14.49 95.68 14.45 95.67 14.42C95.66 14.38 95.65 14.34 95.62 14.3C95.37 13.94 95.2 13.54 94.92 13.2C94.86 13.12 94.72 12.64 94.64 12.55C94.6 12.5 94.66 12.21 94.6 12.18L94.61 12.16Z" fill="#231F20"/>
<path d="M113.41 15.23C113.37 15.11 113.53 15.07 113.81 15.07C113.9 15.07 114.15 15.16 114.17 15.2C114.22 15.28 114.27 15.36 114.29 15.43C114.31 15.47 114.24 16.06 114.23 16.26C114.22 16.46 114.17 16.64 114.11 16.82C113.99 17.19 113.88 17.56 113.77 17.93C113.74 18.01 113.71 18.09 113.66 18.16C113.49 18.42 113.4 18.69 113.32 18.98C113.31 19.03 113.29 19.07 113.31 19.13C113.35 19.22 113.1 19.99 113.04 20.07C112.89 20.29 112.76 20.52 112.62 20.75C112.6 20.78 112.6 20.82 112.55 20.84C112.42 20.88 112.42 20.96 112.38 21.03C112.33 21.13 112.28 21.23 112.22 21.33C112.19 21.38 112.11 21.41 112.05 21.44C111.99 21.47 111.85 21.4 111.83 21.38C111.8 21.32 111.71 21.33 111.65 21.32C111.63 21.32 111.6 21.31 111.58 21.3C111.54 21.28 111.47 20.59 111.49 20.53C111.49 20.51 111.69 19.6 111.7 19.5C111.7 19.44 111.75 19.4 111.78 19.35C111.79 19.33 111.93 18.59 111.94 18.56C112 18.42 112 18.26 112.14 18.14C112.17 18.12 112.17 18.09 112.18 18.06C112.24 17.8 112.36 17.56 112.46 17.32C112.51 17.2 112.54 17.06 112.58 16.93C112.58 16.91 112.61 16.89 112.62 16.87C112.64 16.84 112.66 16.82 112.67 16.79C112.75 16.48 112.9 16.19 112.96 15.87C112.97 15.8 113.19 15.5 113.2 15.41C113.2 15.36 113.42 15.27 113.41 15.22V15.23Z" fill="#231F20"/>
<path d="M115.99 19.05C116.11 19.01 116.15 19.17 116.14 19.45C116.14 19.54 116.05 19.79 116.01 19.81C115.93 19.86 115.86 19.91 115.78 19.93C115.74 19.95 115.15 19.88 114.95 19.87C114.75 19.86 114.57 19.81 114.39 19.75C114.02 19.63 113.65 19.52 113.28 19.41C113.2 19.38 113.12 19.35 113.05 19.3C112.8 19.13 112.52 19.04 112.23 18.97C112.18 18.96 112.14 18.94 112.08 18.96C111.99 19 111.23 18.75 111.14 18.69C110.92 18.54 110.69 18.41 110.46 18.27C110.43 18.25 110.39 18.25 110.37 18.2C110.33 18.07 110.25 18.07 110.18 18.03C110.08 17.98 109.98 17.93 109.89 17.87C109.84 17.84 109.81 17.76 109.78 17.7C109.75 17.64 109.82 17.5 109.84 17.48C109.9 17.45 109.89 17.36 109.9 17.3C109.9 17.28 109.91 17.25 109.92 17.23C109.94 17.19 110.63 17.12 110.69 17.14C110.71 17.14 111.61 17.34 111.72 17.35C111.78 17.35 111.82 17.4 111.87 17.43C111.89 17.44 112.63 17.58 112.65 17.59C112.79 17.65 112.95 17.65 113.07 17.79C113.09 17.82 113.12 17.82 113.15 17.83C113.41 17.89 113.65 18.01 113.89 18.11C114.01 18.16 114.15 18.19 114.27 18.23C114.29 18.23 114.31 18.26 114.33 18.27C114.36 18.29 114.38 18.31 114.41 18.32C114.72 18.4 115 18.55 115.32 18.6C115.39 18.61 115.69 18.83 115.78 18.84C115.83 18.84 115.92 19.06 115.97 19.05H115.99Z" fill="#231F20"/>
<path d="M115.29 16.99C115.35 16.88 115.48 16.99 115.65 17.2C115.7 17.27 115.8 17.51 115.79 17.56C115.77 17.65 115.74 17.73 115.71 17.8C115.69 17.84 115.23 18.16 115.08 18.27C114.93 18.38 114.77 18.46 114.6 18.53C114.26 18.67 113.93 18.82 113.6 18.96C113.53 18.99 113.45 19.01 113.36 19.02C113.07 19.05 112.81 19.15 112.57 19.27C112.53 19.29 112.48 19.3 112.46 19.36C112.42 19.45 111.72 19.73 111.62 19.74C111.37 19.76 111.12 19.81 110.88 19.84C110.84 19.84 110.82 19.87 110.77 19.84C110.66 19.77 110.6 19.81 110.53 19.84C110.43 19.87 110.33 19.89 110.22 19.9C110.17 19.9 110.1 19.86 110.03 19.84C109.97 19.82 109.93 19.66 109.94 19.63C109.96 19.57 109.9 19.51 109.87 19.45C109.87 19.43 109.85 19.4 109.84 19.38C109.83 19.34 110.27 18.85 110.34 18.83C110.35 18.83 111.13 18.41 111.21 18.35C111.25 18.32 111.31 18.32 111.36 18.32C111.39 18.32 111.99 17.96 112.02 17.95C112.16 17.91 112.28 17.81 112.44 17.85C112.47 17.85 112.5 17.85 112.52 17.83C112.74 17.72 112.99 17.66 113.22 17.59C113.34 17.55 113.45 17.49 113.57 17.44C113.59 17.44 113.62 17.44 113.64 17.44C113.67 17.44 113.7 17.44 113.73 17.43C114 17.3 114.3 17.24 114.56 17.08C114.62 17.04 114.97 17.03 115.04 16.98C115.08 16.95 115.28 17.06 115.3 17.02L115.29 16.99Z" fill="#231F20"/>
<path d="M110.94 16.23C110.82 16.19 110.9 16.04 111.09 15.84C111.15 15.78 111.37 15.64 111.42 15.65C111.51 15.65 111.6 15.67 111.67 15.69C111.71 15.7 112.1 16.1 112.24 16.23C112.38 16.36 112.48 16.5 112.57 16.66C112.76 16.97 112.97 17.27 113.16 17.58C113.2 17.65 113.24 17.72 113.26 17.8C113.34 18.08 113.48 18.32 113.64 18.54C113.67 18.58 113.69 18.62 113.74 18.64C113.83 18.67 114.23 19.31 114.25 19.41C114.31 19.66 114.4 19.89 114.48 20.13C114.49 20.16 114.52 20.19 114.5 20.24C114.45 20.36 114.5 20.41 114.53 20.48C114.58 20.57 114.62 20.67 114.64 20.78C114.65 20.83 114.63 20.91 114.61 20.98C114.6 21.04 114.45 21.11 114.42 21.1C114.35 21.09 114.31 21.16 114.25 21.2C114.23 21.21 114.21 21.23 114.19 21.24C114.15 21.26 113.6 20.9 113.56 20.85C113.56 20.84 113.01 20.15 112.94 20.07C112.9 20.03 112.9 19.97 112.88 19.92C112.88 19.9 112.42 19.36 112.41 19.33C112.34 19.2 112.23 19.1 112.24 18.93C112.24 18.9 112.22 18.87 112.2 18.85C112.05 18.65 111.95 18.42 111.84 18.2C111.78 18.09 111.7 17.99 111.64 17.88C111.63 17.86 111.63 17.83 111.62 17.81C111.62 17.78 111.61 17.75 111.59 17.73C111.42 17.48 111.31 17.2 111.1 16.97C111.05 16.92 110.98 16.58 110.92 16.52C110.89 16.49 110.96 16.27 110.92 16.25L110.94 16.23Z" fill="#231F20"/>
<path d="M115.81 25.65C115.78 25.55 115.9 25.52 116.11 25.52C116.18 25.52 116.36 25.58 116.38 25.61C116.42 25.67 116.45 25.73 116.47 25.79C116.48 25.82 116.42 26.29 116.41 26.45C116.4 26.61 116.36 26.75 116.31 26.9C116.21 27.19 116.13 27.49 116.03 27.79C116.01 27.86 115.98 27.92 115.94 27.98C115.81 28.19 115.73 28.41 115.68 28.64C115.68 28.68 115.65 28.71 115.67 28.76C115.7 28.83 115.5 29.44 115.45 29.52C115.33 29.7 115.23 29.88 115.13 30.07C115.11 30.1 115.12 30.13 115.07 30.14C114.97 30.17 114.97 30.24 114.94 30.3C114.9 30.38 114.86 30.46 114.81 30.54C114.78 30.58 114.73 30.6 114.68 30.63C114.64 30.66 114.53 30.6 114.52 30.58C114.5 30.53 114.43 30.54 114.38 30.53C114.36 30.53 114.34 30.53 114.33 30.51C114.3 30.5 114.26 29.95 114.28 29.9C114.28 29.89 114.45 29.16 114.46 29.07C114.46 29.03 114.5 28.99 114.52 28.95C114.53 28.93 114.64 28.34 114.65 28.32C114.7 28.21 114.7 28.08 114.81 27.98C114.83 27.96 114.83 27.94 114.84 27.91C114.89 27.7 114.98 27.51 115.06 27.32C115.1 27.22 115.12 27.11 115.16 27.01C115.16 26.99 115.18 26.98 115.19 26.96C115.2 26.94 115.22 26.92 115.23 26.89C115.3 26.64 115.41 26.41 115.46 26.16C115.47 26.1 115.64 25.86 115.65 25.79C115.65 25.75 115.82 25.67 115.81 25.63V25.65Z" fill="#231F20"/>
<path d="M117.84 28.72C117.94 28.69 117.97 28.81 117.97 29.02C117.97 29.09 117.91 29.27 117.88 29.29C117.82 29.33 117.76 29.36 117.7 29.38C117.67 29.39 117.2 29.34 117.04 29.32C116.88 29.31 116.74 29.27 116.59 29.22C116.3 29.12 116 29.04 115.71 28.95C115.64 28.93 115.58 28.9 115.52 28.86C115.32 28.73 115.09 28.65 114.86 28.6C114.82 28.6 114.79 28.57 114.74 28.59C114.67 28.62 114.06 28.42 113.99 28.37C113.81 28.25 113.63 28.15 113.45 28.05C113.42 28.03 113.39 28.04 113.38 27.99C113.35 27.89 113.28 27.89 113.22 27.86C113.14 27.82 113.06 27.79 112.98 27.73C112.94 27.7 112.92 27.65 112.89 27.6C112.86 27.56 112.92 27.45 112.94 27.44C112.99 27.42 112.98 27.35 112.99 27.3C112.99 27.28 112.99 27.26 113.01 27.25C113.02 27.22 113.57 27.18 113.62 27.2C113.63 27.2 114.36 27.37 114.44 27.38C114.48 27.38 114.52 27.42 114.56 27.44C114.58 27.45 115.16 27.56 115.18 27.57C115.29 27.62 115.42 27.62 115.51 27.73C115.53 27.75 115.55 27.75 115.58 27.76C115.78 27.81 115.98 27.9 116.17 27.98C116.27 28.02 116.38 28.04 116.48 28.08C116.5 28.08 116.51 28.1 116.53 28.11C116.55 28.12 116.57 28.14 116.6 28.15C116.85 28.22 117.08 28.33 117.33 28.38C117.39 28.39 117.63 28.56 117.7 28.57C117.74 28.57 117.82 28.74 117.85 28.73L117.84 28.72Z" fill="#231F20"/>
<path d="M117.3 27.07C117.35 26.99 117.45 27.06 117.58 27.22C117.62 27.27 117.69 27.45 117.68 27.49C117.66 27.56 117.64 27.62 117.61 27.67C117.59 27.7 117.22 27.95 117.1 28.04C116.98 28.13 116.85 28.19 116.72 28.24C116.45 28.35 116.18 28.47 115.92 28.58C115.86 28.6 115.8 28.62 115.73 28.63C115.5 28.66 115.3 28.74 115.1 28.84C115.07 28.86 115.03 28.87 115.01 28.91C114.97 28.98 114.42 29.2 114.34 29.21C114.14 29.23 113.95 29.27 113.75 29.3C113.72 29.3 113.7 29.33 113.66 29.3C113.58 29.25 113.53 29.28 113.47 29.3C113.39 29.32 113.31 29.34 113.22 29.35C113.18 29.35 113.12 29.33 113.07 29.31C113.02 29.29 113 29.17 113 29.16C113.02 29.11 112.97 29.07 112.95 29.02C112.95 29 112.93 28.98 112.93 28.97C112.93 28.94 113.28 28.56 113.33 28.55C113.34 28.55 113.96 28.22 114.03 28.17C114.06 28.15 114.11 28.15 114.15 28.14C114.17 28.14 114.66 27.86 114.68 27.85C114.79 27.81 114.88 27.74 115.02 27.76C115.05 27.76 115.07 27.76 115.09 27.74C115.27 27.65 115.46 27.6 115.65 27.54C115.75 27.51 115.84 27.46 115.93 27.42C115.95 27.42 115.97 27.42 115.99 27.42C116.01 27.42 116.04 27.42 116.06 27.41C116.28 27.31 116.52 27.26 116.72 27.13C116.77 27.1 117.05 27.08 117.1 27.05C117.13 27.03 117.29 27.11 117.31 27.07H117.3Z" fill="#231F20"/>
<path d="M113.83 26.43C113.74 26.39 113.79 26.28 113.93 26.13C113.97 26.08 114.14 25.98 114.18 25.99C114.25 25.99 114.32 26.01 114.37 26.03C114.4 26.04 114.71 26.36 114.82 26.47C114.93 26.57 115.01 26.69 115.08 26.81C115.23 27.06 115.4 27.3 115.55 27.54C115.58 27.59 115.61 27.65 115.63 27.72C115.7 27.94 115.81 28.13 115.94 28.31C115.96 28.34 115.98 28.37 116.02 28.39C116.09 28.41 116.41 28.93 116.43 29C116.48 29.19 116.55 29.38 116.62 29.57C116.62 29.6 116.65 29.62 116.64 29.66C116.6 29.75 116.64 29.8 116.67 29.85C116.71 29.93 116.74 30 116.76 30.09C116.77 30.13 116.76 30.19 116.74 30.24C116.74 30.29 116.62 30.34 116.6 30.33C116.55 30.32 116.52 30.37 116.47 30.4C116.46 30.41 116.44 30.42 116.43 30.43C116.4 30.44 115.97 30.15 115.94 30.1C115.94 30.09 115.51 29.53 115.45 29.48C115.42 29.45 115.41 29.4 115.4 29.36C115.4 29.34 115.04 28.91 115.03 28.89C114.98 28.79 114.89 28.71 114.89 28.57C114.89 28.54 114.87 28.53 114.86 28.51C114.74 28.35 114.66 28.17 114.57 27.99C114.52 27.9 114.46 27.82 114.41 27.73C114.41 27.71 114.41 27.69 114.39 27.68C114.39 27.66 114.38 27.63 114.37 27.61C114.23 27.41 114.14 27.19 113.98 27C113.94 26.96 113.88 26.69 113.83 26.64C113.81 26.61 113.85 26.45 113.82 26.43H113.83Z" fill="#231F20"/>
</svg>
