<svg width="128" height="128" viewBox="0 0 128 128" fill="none" xmlns="http://www.w3.org/2000/svg">
<path d="M43.2398 40.41C43.2398 40.41 47.1798 38.32 48.3098 41.21C49.4398 44.1 46.1198 45.37 44.5698 45.16C43.0198 44.95 44.3098 46.54 43.5798 47.91C42.1498 50.59 37.1498 47.28 36.5198 52.15C36.2198 54.41 37.4098 53.7 38.0398 56.5C38.6498 59.19 36.2398 58.44 32.3298 56.38C28.4198 54.32 23.0198 51.65 24.8698 47.56C26.7098 43.47 29.3098 43.24 31.2998 43.59C33.2898 43.94 35.9098 45.94 37.2398 45.59C38.5698 45.24 43.2398 40.41 43.2398 40.41Z" fill="#231F20"/>
<path d="M67.9999 35.75C67.8299 36.09 66.3399 39.44 67.3499 40.41C68.3599 41.38 71.0999 41.63 72.5199 40.79C73.9399 39.95 75.1299 41.57 76.3999 42.48C77.6699 43.39 79.9299 44.17 81.1299 42.48C82.3299 40.79 84.2399 38.87 85.3699 39.61C86.4999 40.35 84.7299 41.91 87.0599 41.77C89.3899 41.63 91.6499 39.3 91.7199 36.41C91.7899 33.52 94.2599 31.26 89.8799 30.9C85.4999 30.55 83.0299 31.22 81.6199 33.71C80.2099 36.2 80.4599 36.14 79.0099 35.64C77.5599 35.14 71.7699 33.31 70.3099 34.02C68.8499 34.73 67.9999 35.75 67.9999 35.75Z" fill="#231F20"/>
<path d="M89.2098 114.49C84.5598 116.85 79.5998 118.43 74.5498 119.45C69.4998 120.46 64.3298 120.85 59.1898 120.61C55.4398 120.45 51.6898 120.05 48.0298 119.18C41.5898 117.65 35.3398 114.9 30.1598 110.65C27.5798 108.53 25.2798 106.05 23.4198 103.28C21.5798 100.51 19.9798 97.55 18.9898 94.36L18.6198 93.32L18.3498 92.25L17.8098 90.1L17.4498 87.92L17.2698 86.83L17.1798 85.73L16.9998 83.53L16.9798 81.33C16.9198 79.86 17.1098 78.41 17.1798 76.96C17.9598 69.56 20.0298 62.15 24.0498 55.89C25.4998 54.05 25.2798 54.31 24.8998 56.27C24.8298 56.77 24.6798 57.35 24.5398 58.02C24.4598 58.72 24.2298 59.43 24.0398 60.23C23.8098 61.02 23.5998 61.88 23.3598 62.79C23.0998 63.69 22.8298 64.64 22.5498 65.63C20.2598 72.51 19.2198 79.81 20.0698 86.91C20.9298 94 24.0098 100.77 28.9098 106.11C31.8798 109.25 35.5698 111.87 39.6798 113.7C41.7098 114.67 43.8598 115.38 46.0198 116.04C48.1998 116.63 50.4098 117.16 52.6398 117.48C62.4498 119.02 72.6998 118.09 82.0798 114.73C87.8498 112.68 93.2898 109.61 97.6498 105.35C100.96 102.14 103.61 98.25 105.43 94.01C107.26 89.77 108.21 85.18 108.42 80.6C108.55 77.03 108.24 73.49 107.53 70.04C106.8 66.59 105.72 63.24 104.34 60.02C103.71 58.61 103.03 57.26 102.3 55.88C99.5698 50.8 98.5298 49.29 98.4898 47.74C98.4598 47.4 98.3698 46.99 98.3998 46.75C98.4298 45.99 100.59 47.42 103.14 51.12C106.85 56.63 109.49 63.11 110.74 69.99C111.35 73.43 111.62 76.97 111.45 80.52C111.27 84.07 110.65 87.62 109.59 91.05C108 96.14 105.34 100.92 101.81 104.93C98.2398 108.91 93.9198 112.15 89.2298 114.54L89.1898 114.49H89.2098Z" fill="#231F20"/>
<path d="M50.0698 28.61C51.2798 28.19 52.4898 27.77 53.7398 27.48C54.9698 27.12 56.2298 26.9 57.4798 26.67C58.3898 26.45 59.3098 26.34 60.2298 26.22C63.4898 25.91 66.7898 25.97 70.0098 26.48C70.7298 26.55 71.4298 26.74 72.1498 26.84C72.8598 26.97 73.5798 27.05 74.2698 27.24C75.1598 27.46 76.0798 27.63 76.9698 27.87C77.4098 28.02 77.8298 28.22 78.2498 28.41C78.6698 28.6 79.0898 28.79 79.4398 29.16C79.8298 29.72 79.7798 29.63 79.1698 29.91C78.5298 30.25 77.5298 30.53 76.5498 30.33C73.1398 29.37 69.6898 28.69 66.1098 28.25C65.5698 28.19 65.0298 28.15 64.4798 28.12C63.9298 28.12 63.3798 28.16 62.8298 28.18C62.2798 28.22 61.7198 28.22 61.1698 28.3L59.5198 28.51C58.2998 28.6 57.1298 28.93 55.9198 29.15C54.7498 29.47 53.5498 29.76 52.3998 30.16L50.2698 30.92C49.5798 31.22 48.8898 31.52 48.1998 31.84C47.1498 32.3 46.1798 32.91 45.1598 33.44C44.1798 34.03 43.2198 34.66 42.2998 35.31C41.6098 35.86 40.9398 36.42 40.2798 36.99C39.6498 37.59 39.0498 38.23 38.4298 38.83C38.1498 39.09 37.9198 39.39 37.6498 39.67C36.6398 40.67 36.1398 40.81 35.3998 40.51C35.2398 40.45 35.0598 40.41 34.9298 40.34C34.5098 40.13 34.5298 39.3 35.1898 38.39C37.1898 35.77 39.9398 33.55 42.9898 31.84C44.0898 31.16 45.2898 30.64 46.4398 30.05C47.0398 29.8 47.6498 29.56 48.2298 29.3C48.8198 29.04 49.4098 28.77 50.0298 28.57L50.0498 28.62L50.0698 28.61Z" fill="#231F20"/>
<path d="M28.0098 42.4C29.5898 41.72 31.6398 41.59 33.2898 42.1C34.1098 42.36 34.8298 42.7 35.4898 43.03C36.0798 43.33 36.9698 43.8 36.8898 43.75C36.9498 43.79 37.0398 43.86 37.0998 43.79C37.1498 43.73 37.2198 43.69 37.2598 43.62L37.5198 43.32C37.6298 43.2 37.7198 43.07 37.8198 42.94L38.4198 42.16C38.8298 41.64 39.2498 41.12 39.7398 40.62C40.5898 39.75 41.5198 38.9 42.7398 38.25C43.3298 37.92 44.0398 37.67 44.7998 37.56C45.1798 37.5 45.5898 37.54 45.9698 37.54C46.3498 37.63 46.7598 37.69 47.1098 37.83C48.5398 38.44 49.5298 39.41 50.1798 40.65C50.8498 41.87 51.0598 43.32 50.8598 44.58C50.5698 46.87 49.4998 48.76 48.3698 50.48C46.9098 52.69 45.0598 54.66 42.7798 56.01C42.0098 56.35 42.0398 56.17 42.3298 55.47C42.6498 54.79 43.2198 53.62 44.0498 52.49C45.6298 50.58 47.0198 48.47 47.7598 46.33C48.1498 45.27 48.2798 44.21 48.1398 43.34C48.0198 42.45 47.5198 41.75 46.8798 41.01C46.0798 40.22 45.2298 40.06 44.0598 40.7C43.4998 40.99 42.9298 41.43 42.3898 41.93C41.8498 42.42 41.3298 42.99 40.8098 43.56C40.3298 44.1 39.8498 44.65 39.3798 45.24C39.1998 45.43 39.0198 45.73 38.8298 45.96C38.6398 46.2 38.4298 46.39 38.2098 46.54C37.9898 46.68 37.7198 46.81 37.4398 46.8C37.1698 46.77 36.8898 46.7 36.6198 46.65C36.2598 46.49 35.8098 46.31 35.5298 46.2L34.8198 45.87C34.3598 45.66 33.9098 45.45 33.4798 45.28C32.6098 44.93 31.7998 44.71 30.9698 44.71C29.2198 44.72 27.2998 45.72 26.3498 47.27C25.9798 47.85 25.7598 48.49 25.7598 49.12C25.7498 49.77 25.9398 50.31 26.3798 50.97C27.1498 52.25 28.3098 53.31 29.6198 54.12C31.6898 55.36 34.0598 55.97 36.4398 56.31C36.9698 56.39 37.4798 56.42 38.0098 56.48C38.9898 56.59 39.6398 56.65 40.0898 56.82C40.5398 57.03 40.7998 57.25 41.0198 57.59C41.1198 57.74 41.2498 57.89 41.3098 58.04C41.4098 58.29 41.2498 58.5 40.8598 58.72C40.4698 58.94 39.8398 59.16 39.0398 59.16C36.6698 59.21 34.2098 58.87 31.7898 58.08C30.5798 57.67 29.3898 57.15 28.2398 56.47C27.0998 55.77 26.0098 54.91 25.0498 53.86C24.7298 53.44 24.3598 53.06 24.0898 52.59C23.8098 52.13 23.5198 51.72 23.2598 51.04C22.7898 49.77 22.8198 48.32 23.2398 47.15C23.6498 45.96 24.3298 44.98 25.1398 44.18C25.9498 43.38 26.8998 42.73 27.9598 42.3L27.9898 42.37L28.0098 42.4Z" fill="#231F20"/>
<path d="M86.3999 31.5C85.3199 31.68 84.5099 32.1 83.7599 32.89C83.3599 33.27 82.9798 33.75 82.5898 34.3C82.1698 34.91 81.9099 35.25 81.0499 36.44L80.4099 37C80.1699 37.14 79.8699 37.22 79.6098 37.23C79.3398 37.25 79.0598 37.2 78.7698 37.12C78.4798 37.04 78.1798 36.88 77.8898 36.79L77.3598 36.6C77.2099 36.54 77.0599 36.5 76.8999 36.45L75.9998 36.18L74.2398 35.7C72.2298 35.16 70.1498 35.05 69.3398 36.14C68.8798 36.68 68.6098 37.65 68.5698 38.5C68.5198 39.36 68.7698 40.26 69.3498 41.05C70.3098 42.51 72.0499 43.53 73.7599 44.3C74.8799 44.81 76.0699 45.17 77.2599 45.5C78.4499 45.87 79.6598 46.18 80.8798 46.46C81.6398 46.73 81.5398 46.85 80.8398 47.16C80.1298 47.47 78.7799 47.79 77.2299 47.63C74.5299 47.17 71.8498 46.35 69.3798 44.68C68.1598 43.86 66.9798 42.69 66.2698 41.11C65.5598 39.53 65.5198 37.61 66.1698 36.08C66.5398 35.14 67.2098 34.16 68.1398 33.5C69.0798 32.81 70.1798 32.6 71.1398 32.54C72.1198 32.48 73.0299 32.59 73.8999 32.76C74.7699 32.92 75.5898 33.16 76.3798 33.43L78.5198 34.18C78.6798 34.25 78.7798 34.28 78.9198 34.34C78.9798 34.36 79.0699 34.37 79.1199 34.33C79.1599 34.28 79.1998 34.22 79.2498 34.17C79.3298 34.09 79.3398 34.07 79.4598 33.9L79.8699 33.27C80.1499 32.84 80.4299 32.39 80.7599 31.94C81.3899 31.03 82.2698 30.14 83.3398 29.54C85.6298 28.3 88.3399 28.26 90.6199 29.39C91.4799 29.82 92.2798 30.47 92.8098 31.36C93.0898 31.79 93.2598 32.28 93.3898 32.78C93.4898 33.3 93.4998 33.75 93.4998 34.2C93.4998 36.01 93.0198 37.75 92.3098 39.33C91.1898 41.77 89.7099 43.95 87.9099 45.87C87.5199 46.29 87.1299 46.71 86.6899 47.1C85.8799 47.82 85.2899 48.23 84.7899 48.4C84.2899 48.56 83.8998 48.51 83.5298 48.36C83.3598 48.29 83.1698 48.24 83.0399 48.15C82.8299 48 82.8398 47.72 83.0198 47.34C83.2098 46.96 83.5199 46.43 84.0499 45.95C85.5799 44.44 87.0298 42.79 88.2398 41.01C88.8298 40.11 89.3598 39.19 89.7899 38.25C90.1898 37.3 90.4898 36.34 90.6298 35.38C90.6298 35.03 90.7199 34.67 90.6899 34.33C90.6799 33.98 90.6698 33.6 90.6298 33.43C90.5198 33.03 90.3199 32.66 89.8999 32.33C89.0899 31.65 87.6299 31.35 86.4099 31.61L86.3898 31.54L86.3999 31.5Z" fill="#231F20"/>
<path d="M71.1099 72.53L69.3099 73.18C68.7199 73.41 68.0799 73.51 67.4699 73.67C66.8499 73.81 66.2399 74 65.6099 74.08L63.7299 74.33C62.8199 74.49 61.8999 74.54 60.9899 74.58C57.7499 74.58 54.5199 74.09 51.5199 72.99C50.8399 72.81 50.1899 72.51 49.5299 72.26C48.8799 71.98 48.1799 71.81 47.5699 71.46C46.7799 71.03 45.9499 70.66 45.1799 70.18C44.8299 69.88 44.4699 69.61 44.1599 69.27C43.8599 68.93 43.5599 68.59 43.2599 68.24C42.8999 67.8 43.0999 67.68 43.6999 67.65C43.9999 67.63 44.4099 67.62 44.8799 67.62C45.1099 67.62 45.3599 67.62 45.5999 67.65C45.8299 67.7 46.0499 67.76 46.2699 67.86C47.0699 68.15 47.7999 68.53 48.5499 68.87L49.1099 69.14C49.3099 69.21 49.4999 69.29 49.6899 69.36L50.8399 69.83C51.5899 70.19 52.3899 70.4 53.1899 70.67C53.5899 70.8 53.9799 70.95 54.3899 71.07L55.6199 71.37C56.1099 71.49 56.6199 71.62 57.1299 71.69C57.6399 71.73 58.1599 71.76 58.6899 71.79C59.7299 71.89 60.7799 71.76 61.8199 71.73C62.1099 71.72 62.3999 71.73 62.6799 71.69L63.5299 71.57L65.2399 71.34C65.7999 71.22 66.3599 71.07 66.9199 70.93C67.4799 70.79 68.0499 70.68 68.5799 70.45L70.5799 69.71L72.4799 68.74C72.9699 68.51 73.4199 68.21 73.8599 67.9L75.1999 66.99C75.6299 66.67 76.0099 66.28 76.4099 65.92C76.7899 65.54 77.2299 65.21 77.5599 64.79C78.0799 64.14 78.5599 63.47 79.0199 62.8L80.1199 60.62C80.2999 60.31 80.3799 59.97 80.5099 59.63C80.9999 58.4 81.5099 58.16 82.2599 58.12C82.4299 58.12 82.6099 58.08 82.7599 58.09C83.0199 58.11 83.1899 58.29 83.2899 58.61C83.3899 58.93 83.4499 59.41 83.3199 59.95C83.0299 61.61 82.1499 63.09 81.2899 64.59C80.7699 65.28 80.2399 65.98 79.6799 66.66C79.1199 67.33 78.4299 67.89 77.7899 68.51C77.5499 68.73 77.3199 68.96 77.0599 69.16L76.2599 69.73L74.6499 70.85L72.9199 71.77C72.3399 72.07 71.7699 72.39 71.1599 72.6L71.1299 72.54L71.1099 72.53Z" fill="#231F20"/>
<path d="M90.6499 19.67C90.7999 19.82 90.6599 20.06 90.4099 20.34C90.3299 20.43 90.0299 20.56 89.9599 20.53C89.8199 20.47 89.6799 20.41 89.5499 20.34C89.4799 20.29 88.6699 19.44 88.3299 19.17C88.0399 18.89 87.8699 18.57 87.6799 18.24C87.3399 17.57 86.9099 16.93 86.6399 16.23C86.5699 16.08 86.5399 15.91 86.5299 15.74C86.4899 15.14 86.2999 14.61 86.0399 14.09C85.9999 14 85.9799 13.91 85.8599 13.85C85.6499 13.76 85.1099 12.3 85.1299 12.08C85.1299 11.55 85.1799 11.02 85.1899 10.5C85.1899 10.43 85.1399 10.36 85.2299 10.27C85.4499 10.05 85.3599 9.92 85.3499 9.76C85.3499 9.65 85.3499 9.51 85.3899 9.51C85.4499 9.49 85.5799 9.43 85.6599 9.38C85.7299 9.35 85.8099 9.29 85.8599 9.25C85.9099 9.21 85.9399 9.17 85.9599 9.15V9.13V9.16V9.18L85.8899 9.67C85.8899 9.67 85.9299 9.67 85.8799 9.65C85.8199 9.63 85.8799 9.67 85.6499 9.57C85.5599 9.52 85.5099 9.49 85.4099 9.38C85.3299 9.27 85.2699 9.13 85.2599 9C85.2599 8.91 85.2699 8.85 85.2899 8.78C85.3499 8.66 85.3899 8.65 85.4399 8.63C85.5399 8.6 85.6199 8.58 85.6999 8.56C85.8399 8.52 85.9999 8.65 86.0199 8.7C86.0599 8.82 86.1999 8.8 86.2899 8.83C86.3199 8.84 86.3599 8.86 86.3899 8.87C86.4099 8.87 86.4299 9.01 86.5399 9.11C86.4499 9.07 86.3399 9.03 86.2399 8.99L86.0799 8.95C86.0799 8.95 86.0299 8.93 86.0099 8.93C85.9499 8.93 85.9299 8.93 85.9299 8.93C85.9399 8.92 85.9499 8.9 85.9399 8.89C86.1899 7.57 86.0099 8.52 86.0699 8.23H86.0599L86.0399 8.22C86.0199 8.18 86.3499 8.2 86.4999 8.29C86.8699 8.47 86.9799 8.67 87.1099 8.8L87.2599 8.98L87.3799 9.07C87.4599 9.13 87.5199 9.18 87.5699 9.24C87.6699 9.34 87.7499 9.42 87.7599 9.46C87.7599 9.47 87.9699 9.87 88.1899 10.29C88.4299 10.7 88.6099 11.14 88.6699 11.22C88.7299 11.31 88.6899 11.43 88.6899 11.54C88.6899 11.59 89.3199 12.83 89.3299 12.89C89.3899 13.17 89.5699 13.41 89.4399 13.76C89.4099 13.83 89.4399 13.88 89.4699 13.93C89.6699 14.38 89.7399 14.88 89.8599 15.36C89.9299 15.6 90.0099 15.84 90.0899 16.08C90.0999 16.12 90.0899 16.18 90.0899 16.23C90.0899 16.29 90.0799 16.36 90.0899 16.41C90.2899 16.97 90.3799 17.58 90.6499 18.12C90.6899 18.25 90.6399 18.99 90.7099 19.13C90.7399 19.21 90.5699 19.61 90.6399 19.67H90.6499Z" fill="#231F20"/>
<path d="M95.73 19.86C95.79 19.99 95.58 20.02 95.22 20.01C95.1 20.01 94.77 19.92 94.73 19.87C94.65 19.79 94.57 19.7 94.52 19.62C94.49 19.57 94.43 18.92 94.39 18.69C94.35 18.47 94.37 18.26 94.41 18.06C94.48 17.65 94.55 17.23 94.62 16.82C94.64 16.73 94.67 16.64 94.74 16.57C94.98 16.32 95.08 16.02 95.15 15.71C95.16 15.66 95.19 15.61 95.14 15.54C95.06 15.42 95.32 14.6 95.46 14.53C95.72 14.34 95.93 14.13 96.16 13.93C96.19 13.9 96.19 13.85 96.28 13.85C96.5 13.85 96.5 13.76 96.56 13.7C96.65 13.61 96.74 13.53 96.86 13.45C96.92 13.41 97.04 13.4 97.13 13.39C97.22 13.37 97.42 13.5 97.44 13.52C97.49 13.6 97.61 13.61 97.7 13.64C97.73 13.65 97.77 13.67 97.8 13.68C97.82 13.7 98.15 14.55 98.11 14.61C98.11 14.61 98.07 14.86 98.04 15.12C98.01 15.38 97.98 15.65 97.99 15.7C97.99 15.76 97.92 15.79 97.87 15.83C97.84 15.85 97.73 16.6 97.72 16.63C97.64 16.76 97.66 16.94 97.44 17.02C97.4 17.04 97.39 17.07 97.39 17.1C97.33 17.36 97.17 17.58 97.01 17.81C96.93 17.93 96.9 18.06 96.85 18.19C96.84 18.21 96.81 18.23 96.79 18.25C96.76 18.27 96.73 18.3 96.72 18.33C96.61 18.63 96.41 18.91 96.36 19.23C96.34 19.3 96.05 19.59 96.04 19.68C96.04 19.73 95.74 19.81 95.77 19.87L95.73 19.86Z" fill="#231F20"/>
<path d="M102.36 24.31C102.3 24.51 102.04 24.42 101.67 24.19C101.55 24.11 101.3 23.8 101.3 23.73C101.3 23.58 101.3 23.43 101.33 23.3C101.35 23.23 101.91 22.4 102.08 22.09C102.25 21.8 102.46 21.56 102.68 21.33L104.09 20.01C104.2 19.91 104.32 19.84 104.46 19.78C104.93 19.58 105.31 19.26 105.64 18.9C105.7 18.84 105.77 18.8 105.77 18.68C105.77 18.49 106.77 17.59 106.97 17.57C107.42 17.44 107.82 17.25 108.24 17.08C108.3 17.06 108.33 16.99 108.44 17.04C108.69 17.14 108.78 17.04 108.91 16.99C109.08 16.91 109.26 16.84 109.46 16.78C109.56 16.75 109.7 16.78 109.82 16.78C109.93 16.78 110.05 17 110.05 17.04C110.04 17.15 110.17 17.2 110.24 17.28C110.26 17.31 110.3 17.34 110.31 17.36C110.32 17.39 109.95 18.59 109.9 18.71C109.9 18.76 108.86 19.92 108.77 20.08C108.72 20.16 108.62 20.18 108.53 20.22C108.49 20.24 107.65 21.16 107.61 21.18C107.39 21.32 107.25 21.55 106.92 21.55C106.86 21.55 106.82 21.59 106.79 21.63C106.47 21.93 106.08 22.15 105.7 22.39C105.51 22.51 105.35 22.67 105.18 22.81C105.15 22.84 105.1 22.84 105.06 22.85C105.01 22.87 104.95 22.88 104.91 22.91C104.52 23.27 104.01 23.49 103.64 23.87C103.55 23.95 102.94 24.14 102.85 24.25C102.79 24.31 102.4 24.25 102.38 24.32L102.36 24.31Z" fill="#231F20"/>
</svg>
