<svg width="128" height="128" viewBox="0 0 128 128" fill="none" xmlns="http://www.w3.org/2000/svg">
<path d="M60.7802 51.89C59.4902 53.08 58.2602 54.35 57.1102 55.7C56.6902 56.19 56.3202 56.73 55.9102 57.23C54.4802 59.01 53.0602 60.83 51.8202 62.76C51.2602 63.62 50.7902 64.52 50.3502 65.43C50.0602 66.01 49.8002 66.6 49.5402 67.18C49.4102 67.47 49.2902 67.77 49.1702 68.05C49.0802 68.34 48.8302 68.61 48.7602 68.87C48.6502 69.1 48.6202 69.27 48.3502 68.87C48.2402 68.67 48.1302 68.38 48.0202 68.01C47.9502 67.65 47.9902 67.27 48.1002 66.88C48.5002 65.52 49.0302 64.25 49.6902 63.04C50.3302 61.83 51.0602 60.66 51.8702 59.54C52.8302 58.2 53.7402 56.76 54.7802 55.43C55.9202 53.98 57.1502 52.59 58.4502 51.27C59.2502 50.46 60.0802 49.68 60.9402 48.92C62.2402 47.78 63.6502 46.75 65.0902 45.8C66.2102 45.06 67.3202 44.32 68.5802 43.8C68.8502 43.67 69.1302 43.57 69.4202 43.49C70.5002 43.18 70.9002 43.3 71.2102 43.62C71.2802 43.7 71.3702 43.77 71.4102 43.85C71.5702 44.11 71.2102 44.48 70.5402 44.83C69.5802 45.44 68.6002 45.95 67.6802 46.62C66.7302 47.23 65.7602 47.84 64.8302 48.54C63.4402 49.56 62.1002 50.71 60.8302 51.93L60.7902 51.89H60.7802Z" fill="#231F20"/>
<path d="M97.08 40.38C96.06 41.8 94.99 43.18 93.9 44.54C93.5 45.04 93.13 45.56 92.73 46.04C91.27 47.74 89.75 49.4 88.1 50.94C87.37 51.63 86.63 52.31 85.84 52.94C85.32 53.32 84.76 53.69 84.14 53.96C83.53 54.23 82.71 54.34 82.04 53.97C81.64 53.71 81.82 53.68 82.16 53.64C82.32 53.64 82.56 53.52 82.76 53.42C82.88 53.34 82.98 53.26 83.09 53.18C83.2 53.08 83.32 52.97 83.45 52.92C85.3 51.68 87.18 49.91 88.97 48.13C90.06 47.06 91 45.77 91.97 44.53C93.03 43.17 94.07 41.79 95.06 40.37C95.67 39.5 96.28 38.63 96.85 37.73C97.72 36.38 98.59 35.01 99.32 33.59C99.89 32.49 100.32 31.35 100.7 30.21C100.79 29.96 100.87 29.72 100.97 29.48C101.16 29.03 101.29 28.74 101.47 28.56C101.62 28.37 101.76 28.27 101.94 28.2C102.02 28.17 102.1 28.12 102.17 28.1C102.38 28.03 102.55 28.51 102.53 29.33C102.42 30.52 102.02 31.64 101.55 32.73C101.08 33.82 100.52 34.87 99.94 35.91C99.07 37.45 98.1 38.93 97.12 40.39L97.08 40.37V40.38Z" fill="#231F20"/>
<path d="M55.18 92.87C54.08 94.44 52.93 95.97 51.75 97.47C51.32 98.02 50.92 98.59 50.48 99.13C48.91 101.02 47.25 102.84 45.51 104.58C44.74 105.35 43.96 106.13 43.17 106.88C42.65 107.36 42.11 107.82 41.51 108.22C40.91 108.61 40.26 109.02 39.41 109.04C38.86 109.02 39.02 108.79 39.3 108.46C39.43 108.3 39.59 108.06 39.76 107.8C39.94 107.55 40.16 107.31 40.44 107.09C40.94 106.69 41.44 106.24 41.92 105.78C42.43 105.34 42.93 104.87 43.42 104.4C44.41 103.45 45.39 102.46 46.38 101.47C47.57 100.28 48.6 98.86 49.66 97.51C50.82 96.02 51.96 94.5 53.04 92.95C53.7 91.99 54.36 91.03 54.98 90.04C55.91 88.54 56.85 87.03 57.63 85.47C58.24 84.25 58.69 83 59.11 81.74L59.37 80.91C59.74 79.89 59.99 79.62 60.41 79.48C60.51 79.45 60.6 79.4 60.68 79.39C60.94 79.35 61.09 79.86 61.02 80.72C60.6 83.22 59.49 85.64 58.28 87.95C57.38 89.67 56.29 91.29 55.22 92.9L55.18 92.88V92.87Z" fill="#231F20"/>
<path d="M45.5798 53.01C47.0998 50.98 48.7298 49.05 50.3998 47.18C51.0298 46.51 51.5998 45.79 52.2398 45.13L53.9598 43.42L55.7298 41.77C56.9498 40.71 58.1898 39.68 59.4398 38.67C60.5498 37.77 61.6798 36.85 62.8998 36.07C64.4398 35.07 66.3098 34.3 68.2098 34.42C68.7998 34.47 68.6998 34.57 68.2498 34.79C67.7898 35.01 67.0398 35.5 66.1798 35.93C65.3998 36.3 64.7298 36.85 63.9998 37.31C63.2898 37.8 62.5998 38.34 61.9198 38.92C61.2398 39.49 60.5698 40.11 59.8798 40.71C59.1998 41.31 58.5098 41.92 57.8298 42.53C56.9998 43.25 56.2098 44.04 55.4198 44.84C54.6598 45.67 53.8798 46.49 53.1498 47.34C51.4798 49.16 49.9098 51.07 48.4198 53.03C47.4998 54.24 46.6198 55.48 45.7798 56.75C44.5198 58.68 43.3598 60.68 42.4098 62.75C41.7098 64.38 41.1898 66.04 40.7798 67.72C40.6898 68.09 40.6198 68.46 40.5198 68.83C40.1998 70.21 39.9298 70.6 39.2798 70.78C39.1298 70.82 38.9798 70.89 38.8398 70.9C38.3698 70.95 38.1298 70.29 38.2198 69.17C38.6198 65.88 39.8798 62.59 41.4798 59.53C42.6798 57.26 44.0698 55.09 45.5398 53L45.5898 53.03L45.5798 53.01Z" fill="#231F20"/>
<path d="M53.6298 70.29C54.0798 70.69 54.5298 71.09 54.9798 71.48C55.1498 71.62 55.3398 71.72 55.5098 71.87C56.0798 72.41 56.6398 72.98 57.1998 73.54C57.4498 73.79 57.7098 74.02 57.9698 74.26C58.3298 74.53 58.5598 74.96 58.7298 75.39C58.7798 75.53 58.6798 75.58 58.4898 75.59C58.3098 75.59 57.9898 75.6 57.7498 75.51C57.2998 75.37 57.0398 75.06 56.6898 74.83C56.3598 74.58 56.0298 74.31 55.7198 74.01C55.3498 73.64 54.8198 73.45 54.3798 73.12C53.8998 72.76 53.4198 72.4 52.9398 72.04C52.6398 71.82 52.3498 71.6 52.0498 71.38C51.5998 71.05 51.1598 70.7 50.6698 70.43C50.2898 70.22 49.8598 70.11 49.4598 69.94C49.3698 69.9 49.2698 69.89 49.1898 69.84C48.8798 69.67 48.8598 69.5 49.0998 69.01C49.1498 68.9 49.1998 68.78 49.2598 68.68C49.4598 68.31 49.7698 68.11 50.0598 68.15C50.8998 68.26 51.5898 68.68 52.2398 69.16C52.7298 69.51 53.1898 69.9 53.6598 70.28L53.6398 70.32L53.6298 70.29Z" fill="#231F20"/>
<path d="M75.3701 46.73C75.7601 47.12 76.1501 47.51 76.5501 47.89C76.7001 48.03 76.8701 48.13 77.0201 48.26C77.5401 48.74 78.0101 49.29 78.5401 49.76C78.7701 49.97 79.0301 50.15 79.2801 50.33C79.6201 50.55 79.9201 50.81 80.1701 51.15C80.2501 51.26 80.1401 51.38 79.9501 51.48C79.7601 51.57 79.4601 51.67 79.2201 51.6C78.8001 51.49 78.4501 51.27 78.1101 51.05C77.7701 50.82 77.4401 50.57 77.1401 50.28C76.7801 49.93 76.3101 49.7 75.9201 49.39C75.4801 49.05 75.0601 48.69 74.6301 48.33C74.3701 48.11 74.1001 47.89 73.8401 47.67C73.4401 47.34 73.0501 46.99 72.6201 46.71C72.2901 46.49 71.8901 46.36 71.5201 46.19C71.4401 46.15 71.3501 46.13 71.2801 46.08C71.0101 45.89 71.0101 45.72 71.2801 45.29C71.3401 45.19 71.3901 45.09 71.4601 44.99C71.6801 44.67 71.9801 44.5 72.2401 44.54C73.0201 44.68 73.5801 45.15 74.1601 45.61C74.5801 45.96 74.9801 46.35 75.3901 46.71L75.3601 46.74L75.3701 46.73Z" fill="#231F20"/>
<path d="M71.9401 76.57C72.0401 77.14 72.0801 77.72 72.0701 78.3C72.0701 78.51 72.1301 78.71 72.1101 78.92C72.0601 79.66 71.9401 80.39 71.7701 81.09C71.7101 81.41 71.6501 81.71 71.5901 82.02C71.5001 82.41 71.4601 82.83 71.1101 83.13C71.0101 83.23 70.8301 83.13 70.6201 82.96C70.4401 82.79 70.1201 82.51 70.1501 82.32C70.1501 81.6 70.2101 80.95 70.3901 80.24C70.5001 79.81 70.3501 79.37 70.3001 78.93C70.2401 78.45 70.1501 77.97 70.0701 77.48C70.0201 77.18 69.9601 76.88 69.8701 76.58C69.7401 76.13 69.6101 75.67 69.3801 75.27C69.2001 74.96 68.9001 74.71 68.6401 74.46C68.5801 74.4 68.5101 74.36 68.4601 74.3C68.2701 74.08 68.3501 73.92 68.8001 73.56L69.1101 73.31C69.4701 73.04 69.8501 72.95 70.0801 73.09C70.7801 73.5 71.1901 74.18 71.4801 74.89C71.7101 75.42 71.8501 75.99 71.9901 76.55L71.9401 76.57Z" fill="#231F20"/>
<path d="M77.9998 66.02C78.4698 66.06 78.9398 66.06 79.4198 66.08C79.5898 66.08 79.7598 66.05 79.9298 66.05C80.5498 66.07 81.1598 66.03 81.7698 65.94C82.0298 65.88 82.3098 65.84 82.5698 65.76C82.9098 65.67 83.2398 65.56 83.5898 65.5C83.6998 65.48 83.7098 65.54 83.6698 65.65C83.6198 65.76 83.5198 65.96 83.3498 66.1C83.0498 66.33 82.7298 66.57 82.3998 66.75C82.0598 66.92 81.6898 67 81.3198 67.06C80.8698 67.12 80.4398 67.31 79.9898 67.41C79.4998 67.52 78.9998 67.57 78.4898 67.6C78.1798 67.62 77.8698 67.63 77.5698 67.65C77.1098 67.68 76.6398 67.66 76.1798 67.72C75.8198 67.76 75.4798 67.91 75.1198 68.01C75.0398 68.03 74.9698 68.07 74.8898 68.08C74.5998 68.12 74.5098 67.99 74.4498 67.48L74.4098 67.13C74.3798 66.74 74.4998 66.41 74.6998 66.3C75.3098 65.96 75.9398 65.95 76.5698 65.95C77.0398 65.96 77.5098 65.97 77.9898 65.99V66.03L77.9998 66.02Z" fill="#231F20"/>
<path d="M40.85 64.91C40.64 65.81 40.48 66.76 40.42 67.66C40.4 67.99 40.45 68.32 40.46 68.64C40.51 69.8 40.66 71 41.1 72.13C41.28 72.64 41.57 73.1 41.84 73.55C42.2 74.14 42.61 74.68 42.97 75.3C43.08 75.49 42.92 75.61 42.64 75.61C42.36 75.61 41.91 75.52 41.59 75.23C40.41 74.2 39.66 72.74 39.31 71.21C39.11 70.29 38.83 69.35 38.81 68.38C38.78 67.31 38.91 66.3 39.08 65.29C39.19 64.67 39.33 64.06 39.47 63.46C39.7 62.54 40 61.65 40.27 60.76C40.48 60.07 40.62 59.36 40.83 58.67C40.87 58.52 40.91 58.36 40.96 58.21C41.21 57.67 41.43 57.56 41.86 57.64C41.96 57.66 42.06 57.67 42.16 57.69C42.48 57.78 42.63 58.12 42.58 58.55C42.42 59.81 41.96 60.98 41.6 62.2C41.33 63.1 41.07 64.01 40.89 64.93H40.85V64.91Z" fill="#231F20"/>
<path d="M44.8002 113.61C43.5202 114.4 42.2202 115.17 40.7002 115.73C40.1502 115.94 39.5102 116.13 38.8702 116.13C36.6702 116.06 34.9102 115.17 33.2102 114.33C32.4602 113.93 31.7202 113.53 31.0002 113.12C30.0702 112.59 29.1602 112.04 28.3002 111.4C28.0302 111.2 28.1302 111.13 28.4402 111.16C28.7502 111.19 29.2802 111.29 29.8402 111.54C31.8102 112.44 33.7702 113.27 35.7002 114.04C36.8602 114.48 38.1802 114.63 39.2402 114.39C40.4202 114.1 41.7202 113.36 42.9202 112.6C43.6702 112.12 44.4002 111.62 45.1202 111.08C46.2002 110.26 47.2902 109.45 48.2902 108.54C49.0702 107.84 49.7302 107.04 50.4202 106.27C50.5702 106.1 50.7102 105.92 50.8602 105.76C51.4402 105.15 51.7002 105.05 52.1902 105.25C52.3002 105.29 52.4202 105.33 52.5302 105.39C52.8702 105.57 52.8702 106.06 52.5102 106.62C51.4502 108.28 49.9802 109.65 48.4602 110.97C47.3302 111.96 46.0802 112.81 44.8202 113.66L44.7902 113.62L44.8002 113.61Z" fill="#231F20"/>
<path d="M76.0899 69.41C75.6299 69.88 75.1699 70.36 74.7199 70.83C74.5599 71.01 74.4299 71.21 74.2599 71.38C73.6699 71.99 73.0599 72.58 72.4499 73.17C72.1799 73.44 71.9499 73.73 71.7199 74.02C71.4599 74.42 71.1099 74.75 70.6899 75.03C70.5599 75.11 70.4199 74.98 70.3299 74.75C70.2399 74.52 70.1499 74.16 70.2499 73.88C70.3999 73.38 70.7299 73.02 71.0099 72.62C71.2999 72.23 71.6199 71.86 71.9899 71.52C72.4499 71.13 72.7699 70.61 73.1599 70.15C73.5999 69.65 74.0299 69.16 74.4699 68.66L75.2799 67.74C75.6799 67.27 76.0999 66.81 76.4499 66.31C76.7299 65.92 76.8999 65.47 77.1299 65.06C77.1799 64.97 77.2199 64.87 77.2799 64.79C77.5099 64.48 77.6799 64.46 78.0999 64.68C78.1999 64.73 78.2899 64.78 78.3799 64.83C78.6799 65.02 78.8199 65.33 78.7499 65.63C78.5499 66.54 77.9899 67.23 77.4399 67.93C77.0199 68.44 76.5699 68.93 76.1399 69.43L76.1099 69.4L76.0899 69.41Z" fill="#231F20"/>
<path d="M106.08 22.08C106.92 23.21 107.72 24.38 108.37 25.72C108.49 25.96 108.61 26.21 108.71 26.47C108.83 26.72 108.91 27 108.97 27.31C109.31 29.28 108.81 31.14 108.12 32.8C107.81 33.54 107.48 34.26 107.11 34.95C106.68 35.86 106.05 36.66 105.41 37.42C105.21 37.66 105.21 37.61 105.27 37.34C105.35 37.08 105.43 36.57 105.61 36.02C105.75 35.53 105.96 35.08 106.16 34.63C106.36 34.18 106.53 33.72 106.7 33.27C107.03 32.36 107.29 31.45 107.48 30.52C107.6 29.97 107.61 29.39 107.58 28.82C107.57 28.53 107.53 28.25 107.48 27.97C107.42 27.69 107.37 27.49 107.27 27.22C106.83 26.1 106.06 24.98 105.26 23.93C104.75 23.28 104.22 22.65 103.66 22.03C102.82 21.09 101.95 20.17 101 19.35C100.27 18.71 99.4501 18.2 98.6501 17.67C98.4701 17.56 98.2901 17.46 98.1201 17.34C97.4901 16.88 97.3901 16.6 97.5301 16.11C97.5601 16 97.5901 15.88 97.6301 15.77C97.7801 15.42 98.2301 15.36 98.8101 15.6C100.47 16.38 101.91 17.6 103.28 18.89C104.3 19.86 105.24 20.91 106.12 22.03L106.09 22.06L106.08 22.08Z" fill="#231F20"/>
<path d="M74.6398 69.5C74.1398 70.05 73.6298 70.6 73.1298 71.15C72.9498 71.35 72.8198 71.6 72.6298 71.79C71.9398 72.48 71.1698 73.1 70.4298 73.74C70.1098 74.03 69.7998 74.33 69.5098 74.65C69.1098 75.03 68.6698 75.4 68.0598 75.51C67.8698 75.55 67.7398 75.31 67.6498 74.95C67.5698 74.61 67.4698 74.09 67.5998 73.83C67.7298 73.61 67.8498 73.38 67.9998 73.18C68.1598 73 68.3298 72.81 68.4998 72.64C68.8398 72.28 69.2198 71.94 69.6298 71.61C70.1398 71.23 70.4098 70.61 70.8198 70.11L72.1598 68.42C72.4298 68.07 72.7098 67.72 72.9698 67.35C73.3598 66.8 73.7998 66.27 74.1498 65.68C74.4198 65.22 74.5598 64.69 74.7698 64.18C74.8198 64.07 74.8398 63.95 74.8998 63.84C75.1498 63.47 75.4298 63.5 76.0198 63.83C76.1498 63.9 76.2898 63.97 76.4098 64.05C76.8098 64.31 77.0898 64.73 77.0898 65.1C77.0098 66.13 76.5298 66.94 76.0298 67.77C75.6498 68.38 75.1498 68.93 74.6998 69.52L74.6398 69.48V69.5Z" fill="#231F20"/>
<path d="M77.6198 77.93L75.1998 80.6C74.8998 80.92 74.6698 81.3 74.3698 81.61C73.2598 82.7 72.0998 83.75 70.9398 84.79C70.4198 85.25 69.9398 85.75 69.4398 86.24C69.2798 86.4 69.1398 86.56 68.9698 86.72C68.7998 86.86 68.6098 86.99 68.4198 87.12C68.2398 87.25 68.0398 87.37 67.8198 87.46C67.6098 87.56 67.3898 87.64 67.1398 87.67C66.8298 87.71 66.7298 87.47 66.6798 87C66.6198 86.5 66.6098 85.85 66.8798 85.46L67.2398 84.94C67.3598 84.77 67.5298 84.66 67.6698 84.5L68.5698 83.64C69.1798 83.07 69.8098 82.49 70.4898 81.94C71.3098 81.28 71.8798 80.34 72.5798 79.54L74.8898 76.86C75.3598 76.3 75.8298 75.74 76.2898 75.17C76.9798 74.3 77.6998 73.45 78.3098 72.53C78.7898 71.82 79.0998 71 79.5298 70.26C79.6298 70.1 79.6998 69.92 79.8098 69.77C80.2298 69.2 80.5198 69.14 81.1798 69.46C81.3298 69.53 81.4898 69.59 81.6298 69.68C82.0998 69.96 82.2998 70.47 82.1598 70.99C81.7798 72.58 80.8498 73.85 79.9098 75.15C79.1998 76.11 78.4298 77.03 77.6698 77.97L77.6098 77.93H77.6198Z" fill="#231F20"/>
<path d="M98.38 47.12C100.39 44.58 102.3 41.97 104.01 39.26C104.86 37.91 105.67 36.53 106.36 35.13C107.05 33.74 107.66 32.3 107.98 30.92C108.24 29.92 108.24 28.93 108.01 28.39C107.59 27.5 107.05 26.57 106.38 25.67C104.05 22.48 100.96 19.63 97.6201 17.28C95.9501 16.09 94.18 15.05 92.34 14.2C90.5 13.35 88.5801 12.65 86.6201 12.37C86.4001 12.32 86.18 12.28 86.04 12.3C85.88 12.32 85.73 12.26 85.54 12.32L85 12.44C84.81 12.5 84.62 12.58 84.43 12.65C83.67 12.94 82.91 13.42 82.18 13.91C80.72 14.94 79.39 16.21 78.13 17.53C74.94 20.98 72.16 24.84 69.28 28.65C68.25 29.77 68.38 29.62 68.68 28.33C68.82 27.67 69.1001 26.79 69.4801 25.73C69.8401 24.66 70.3801 23.46 71.1201 22.26C72.4001 20.1 73.9 18.08 75.57 16.17C77.25 14.26 79.06 12.43 81.36 10.9C82.55 10.18 83.8101 9.40003 85.6901 9.28003C85.93 9.28003 86.1701 9.28003 86.4101 9.28003C86.6601 9.28003 86.77 9.33003 86.96 9.36003L87.96 9.54003C88.64 9.64003 89.2601 9.86003 89.9101 10.04C92.4601 10.82 94.8001 11.99 96.9801 13.35C99.5901 14.99 102.09 16.84 104.43 18.93C105.02 19.44 105.57 20.01 106.15 20.55C106.69 21.13 107.26 21.68 107.77 22.29C108.83 23.48 109.79 24.79 110.58 26.29C111.01 27.02 111.42 28.31 111.4 29.32C111.4 29.83 111.35 30.32 111.3 30.8C111.21 31.26 111.14 31.73 111.01 32.17C110.54 33.94 109.84 35.54 109.07 37.08C107.52 40.15 105.68 42.99 103.73 45.73C101.33 49.11 98.7501 52.32 96.0501 55.44C94.0101 57.8 91.8701 60.09 89.6201 62.28C88.4901 63.37 87.33 64.44 86.03 65.43C85.68 65.67 85.37 65.92 84.96 66.14C84.65 66.35 83.95 66.64 83.59 66.66C83.16 66.73 82.72 66.81 82.29 66.85L81 66.83C78.34 66.66 75.9901 65.66 73.8001 64.55C71.6201 63.4 69.59 62.02 67.71 60.47C66.89 59.77 66.06 59.11 65.29 58.34C63.89 56.89 63.09 55.8 62.65 54.95C62.44 54.52 62.3 54.16 62.24 53.83C62.2 53.48 62.22 53.17 62.28 52.88C62.33 52.61 62.35 52.3 62.43 52.12C62.72 51.54 64.06 52.46 66 54.35C68.98 57.07 72.23 59.76 75.79 61.64C77.56 62.56 79.43 63.27 81.1201 63.39C81.5201 63.36 81.96 63.44 82.32 63.36C82.5 63.32 82.69 63.29 82.88 63.27L83.02 63.25H83.06C83.57 65.22 83.2 63.78 83.31 64.21L83.28 64.08C83.24 63.9 83.2 63.72 83.15 63.55L83.07 63.29C83.04 63.19 83.0601 63.26 83.0501 63.24C83.0501 63.24 83.0301 63.27 83.08 63.24C83.33 63.09 83.71 62.84 84.09 62.54C84.47 62.24 84.86 61.91 85.25 61.57C87.57 59.49 89.84 57.1 92.01 54.67C94.18 52.23 96.2801 49.71 98.2601 47.12L98.34 47.17L98.38 47.12Z" fill="#231F20"/>
<path d="M43.3098 54.67C45.9798 50.87 48.8598 47.25 51.9298 43.79C53.0498 42.53 54.1398 41.23 55.3498 40.03C57.4898 37.93 59.6998 35.89 62.3898 34.23C63.0898 33.84 63.7998 33.45 64.6498 33.19C64.8598 33.13 65.0798 33.05 65.2898 33.01L65.9298 32.93C66.3498 32.89 66.7798 32.8 67.1898 32.85C68.8698 32.83 70.3898 33.3 71.8598 33.79C74.4298 34.75 76.7998 36.06 78.9998 37.56C80.4098 38.53 81.7998 39.54 83.0198 40.76C84.2298 41.97 85.4498 43.28 86.0398 45.04C86.1798 46.25 86.0198 46.03 85.1198 45.55C84.6698 45.33 84.0898 45.01 83.4298 44.66C82.7898 44.28 82.1198 43.8 81.4698 43.2C80.2798 42.15 79.0298 41.15 77.7398 40.2C76.4298 39.27 75.0698 38.43 73.6698 37.68C72.2598 36.97 70.8198 36.36 69.3698 35.97C67.9198 35.61 66.4998 35.55 65.2998 35.91C63.7198 36.49 62.0498 37.74 60.5498 39.07C59.0298 40.41 57.5898 41.9 56.1698 43.39C53.0598 46.68 50.1498 50.2 47.4298 53.85C45.7598 56.1 44.1698 58.42 42.7398 60.8C41.6898 62.61 40.6198 64.48 40.0298 66.37C39.9498 66.61 39.9198 66.83 39.8598 67.06C39.8298 67.29 39.7998 67.46 39.8098 67.69C39.8698 68.14 39.8698 68.6 40.0498 69.06C40.2798 69.98 40.7998 70.85 41.3298 71.69C43.1498 74.26 45.6798 76.27 48.2598 78.17C48.8398 78.58 49.4098 78.99 49.9898 79.4C52.1498 80.97 52.7598 81.62 52.7898 82.54C52.7898 82.75 52.8398 82.98 52.7998 83.15C52.6698 83.72 51.5498 83.44 49.8598 82.41C47.3498 80.87 44.8298 79.12 42.4498 76.98C41.2698 75.89 40.1298 74.72 39.1098 73.32C38.1298 71.91 37.2098 70.23 37.0298 68.14C37.0098 67.94 36.9798 67.77 36.9898 67.56L37.0398 66.9C37.0898 66.47 37.1798 66.15 37.2598 65.78L37.5698 64.81L37.9198 63.91C38.4098 62.75 38.9598 61.67 39.5398 60.62C40.6998 58.53 41.9798 56.55 43.2898 54.61L43.3498 54.65L43.3098 54.67Z" fill="#231F20"/>
<path d="M53.4198 57.81C55.3198 55.22 57.3698 52.76 59.5698 50.41C60.3798 49.56 61.1398 48.66 62.0098 47.86C63.5498 46.45 65.1998 45.12 67.1298 44.06C68.1098 43.55 69.1498 43.07 70.4098 42.9C70.7398 42.89 71.0498 42.84 71.3898 42.87C71.7098 42.92 72.1098 42.95 72.3698 43.04C72.9298 43.2 73.4398 43.4 73.9498 43.62C75.6998 44.42 77.2998 45.39 78.7798 46.51C79.7298 47.22 80.6798 47.97 81.4898 48.88C81.6898 49.1 81.8798 49.35 82.0698 49.6C82.2598 49.84 82.4298 50.11 82.5898 50.39C82.9298 50.92 83.0698 51.63 83.1598 52.31C83.0998 53.29 82.7998 52.96 82.2698 52.55C81.9598 52.35 81.5498 52.15 81.0398 51.97C80.7998 51.88 80.5598 51.74 80.3398 51.61C80.1098 51.47 79.8598 51.31 79.6598 51.12C78.1098 49.76 76.3498 48.42 74.5298 47.34C73.6398 46.79 72.6998 46.29 71.8398 45.97C71.7398 45.94 71.6098 45.88 71.5298 45.86C71.4698 45.86 71.3998 45.84 71.3398 45.82C71.2198 45.76 71.0198 45.82 70.8498 45.78C70.6598 45.8 70.4498 45.84 70.2398 45.86L69.5598 46.05C68.4298 46.43 67.2998 47.19 66.2398 48.05C65.1798 48.92 64.1798 49.9 63.1798 50.88C60.9898 53.04 58.9498 55.4 57.0298 57.86C55.8598 59.38 54.7198 60.93 53.6898 62.54C52.9698 63.65 52.2898 64.78 51.6898 65.93C51.3898 66.51 51.1198 67.09 50.8998 67.66C50.7998 67.93 50.6998 68.27 50.6698 68.44C50.6398 68.63 50.6198 68.83 50.7398 68.99C50.7998 69.08 50.9198 69.34 51.0598 69.53C52.1998 71.32 53.8998 72.73 55.6098 74.02C55.9998 74.3 56.3798 74.57 56.7698 74.84C58.1798 75.91 58.5198 76.41 58.5698 77.11C58.5698 77.27 58.6198 77.45 58.5998 77.59C58.5598 78.05 57.6698 78.05 56.3298 77.49C54.7398 76.77 53.2898 75.77 51.8998 74.59C51.2098 74 50.5398 73.35 49.9098 72.63C49.5898 72.28 49.2898 71.89 48.9998 71.49L48.5798 70.86C48.5098 70.76 48.4498 70.64 48.3798 70.53L48.0898 70L47.9898 69.74L47.9698 69.67C48.0298 69.63 47.9698 69.62 47.9898 69.59L47.9498 69.45C47.9198 69.27 47.8198 69.09 47.8498 68.9C47.8498 68.52 47.8198 68.13 47.9298 67.77C47.9998 67.45 48.0598 67.22 48.1398 67C48.2098 66.77 48.2898 66.53 48.3698 66.34C49.0298 64.66 49.8398 63.24 50.6898 61.83C51.5398 60.43 52.4498 59.08 53.3798 57.76L53.4398 57.8L53.4198 57.81Z" fill="#231F20"/>
<path d="M29.9199 111.01C32.6599 112.83 35.6699 114.41 38.6699 114.98L38.9499 115.03C39.0399 115.05 39.1499 115.07 39.1699 115.05C39.2599 115.03 39.2999 115.07 39.4199 115.05C39.5499 115.02 39.6799 114.99 39.8099 114.97L40.2699 114.8C40.5799 114.71 40.9199 114.49 41.2499 114.34C41.5799 114.14 41.9199 113.94 42.2499 113.73C43.5899 112.84 44.8899 111.77 46.1399 110.64C47.9699 108.99 49.6499 107.14 51.3399 105.31C54.3199 102.06 57.1399 98.65 59.7799 95.1C62.3899 91.55 64.9099 87.87 66.7999 83.97C67.1899 83.11 67.5799 82.22 67.7999 81.36C68.0599 80.49 68.0799 79.71 67.9399 78.87C67.6399 77.19 66.6599 75.54 65.5199 74.07C64.0199 72.19 62.2199 70.48 60.3199 68.89C58.3799 67.35 56.4899 65.73 54.4599 64.24C53.2299 63.26 53.3299 63.43 54.6999 63.72C56.0199 64.06 58.6899 64.56 61.1899 66.28C62.2899 67.04 63.3399 67.87 64.3799 68.74C64.8899 69.18 65.3899 69.65 65.8999 70.11C66.3599 70.62 66.8499 71.1 67.2999 71.63C67.7399 72.18 68.1999 72.69 68.5899 73.3L69.1999 74.19L69.7399 75.16C70.1199 75.78 70.3499 76.55 70.6399 77.26C70.8099 78.06 71.0499 78.82 71.0099 79.7C71.0099 80.13 71.0299 80.56 70.9399 80.97L70.8299 81.59L70.6799 82.14C70.5799 82.51 70.4699 82.87 70.3399 83.19C70.2099 83.53 70.0899 83.87 69.9499 84.18C69.4099 85.48 68.7599 86.65 68.0999 87.83C66.7599 90.15 65.2799 92.34 63.7199 94.47C59.9699 99.54 56.0399 104.77 51.5699 109.45C50.3399 110.73 49.0699 111.99 47.7299 113.18C46.3799 114.37 44.9899 115.52 43.3999 116.52C42.6199 117.03 41.7299 117.46 40.7499 117.81L39.9299 117.99C39.6599 118.05 39.3099 118.03 38.9999 118.03C38.6499 118.03 38.4999 117.96 38.2399 117.93C37.9999 117.89 37.7699 117.85 37.5399 117.79C35.6899 117.38 33.9699 116.7 32.3399 115.9C28.3299 113.9 24.7799 111.24 21.5899 108.2C20.3899 107.04 19.2399 105.81 18.2099 104.48C17.1699 103.15 16.2199 101.72 15.5199 100.11C15.1799 99.3 14.8999 98.43 14.8099 97.48C14.7399 96.52 14.9099 95.6 15.1199 94.77C15.5799 93.1 16.2099 91.55 16.9299 90.07C19.1899 85.46 21.8499 81.2 25.0399 77.25C25.7299 76.37 26.4499 75.54 27.2099 74.7C30.0799 71.63 31.4499 71.08 32.5599 71.09C32.8099 71.09 33.1099 71.04 33.2799 71.08C33.8299 71.2 32.8599 72.63 30.8499 74.71C27.9099 77.88 25.2099 81.46 22.7999 85.27C21.6099 87.18 20.4899 89.15 19.5299 91.17C19.0599 92.18 18.6299 93.2 18.2999 94.21C18.1599 94.71 17.9599 95.22 17.8899 95.69C17.8499 95.92 17.7699 96.18 17.7599 96.38C17.7599 96.58 17.7399 96.77 17.7199 96.97C17.7199 97.96 18.4299 99.43 19.2699 100.71C20.1399 102.02 21.1899 103.29 22.3099 104.5C24.5699 106.92 27.1699 109.11 29.9599 110.94L29.9299 111.01H29.9199Z" fill="#231F20"/>
<path d="M92.2801 40.52C93.5001 38.87 94.6501 37.17 95.7601 35.45C96.8601 33.73 97.9001 31.96 98.7001 30.18C98.8201 29.93 98.9201 29.68 99.0001 29.43C99.0501 29.31 99.1001 29.18 99.1301 29.06C99.1701 28.95 99.2101 28.79 99.2201 28.77C99.2401 28.64 99.2201 28.57 99.1601 28.41C99.0501 28.15 98.8501 27.83 98.6401 27.51C98.0001 26.57 97.1001 25.64 96.1701 24.77C95.2201 23.91 94.2101 23.09 93.1401 22.35C92.0801 21.62 90.9701 20.93 89.8401 20.42C89.5601 20.3 89.2801 20.19 89.0001 20.09C88.7501 20.01 88.4101 19.93 88.2801 19.91C88.1201 19.89 88.0001 19.93 87.8201 20.03C87.5901 20.13 87.3101 20.33 87.0601 20.48C85.1901 21.77 83.4501 23.45 81.8201 25.13C79.7801 27.34 77.7401 29.55 75.6901 31.77C75.0601 32.47 74.9801 32.31 75.1201 31.43C75.2701 30.57 75.5801 28.89 76.5901 27.37C78.4401 24.72 80.6501 22.43 83.0601 20.28C83.6701 19.74 84.2901 19.22 84.9701 18.72C85.3101 18.47 85.6601 18.22 86.0601 17.97C86.2401 17.85 86.4501 17.73 86.7501 17.59C87.0601 17.4 87.4301 17.35 87.7901 17.28C87.9701 17.24 88.1501 17.24 88.3301 17.25C88.5201 17.25 88.7001 17.26 88.8301 17.29C89.1001 17.33 89.3401 17.4 89.5801 17.46C90.0401 17.6 90.4701 17.76 90.8701 17.93C91.6801 18.28 92.4101 18.69 93.1201 19.13C94.8101 20.18 96.4401 21.32 98.0001 22.6C98.7801 23.25 99.5401 23.93 100.26 24.71C100.62 25.1 100.97 25.51 101.29 25.98C101.62 26.47 101.91 26.9 102.17 27.69C102.34 28.26 102.37 28.86 102.22 29.43C102.04 30.09 101.88 30.49 101.69 31.01C101.5 31.49 101.29 31.96 101.08 32.42C100.65 33.33 100.19 34.22 99.7101 35.09C98.7501 36.83 97.7001 38.5 96.6001 40.13C95.1201 42.32 93.5401 44.43 91.8801 46.49C90.6101 48.04 89.2901 49.55 87.8301 50.97C87.1101 51.68 86.3401 52.37 85.5101 53C84.6601 53.62 83.8001 54.25 82.5401 54.59C81.4301 54.8 80.5501 54.56 79.7601 54.34C78.9601 54.1 78.2101 53.81 77.4901 53.48C76.0401 52.82 74.6701 52.05 73.3601 51.15C72.7801 50.75 72.2601 50.31 71.7401 49.82C69.8501 47.97 69.6301 46.97 69.8801 46.13C69.9401 45.94 69.9701 45.72 70.0501 45.59C70.1901 45.36 70.4901 45.4 70.9201 45.6C71.3401 45.81 71.9501 46.15 72.6201 46.66C73.1301 47.03 73.6601 47.38 74.2101 47.71C74.4801 47.88 74.7701 48.03 75.0401 48.19L75.8501 48.7C76.9301 49.38 78.0601 50.01 79.1901 50.53C79.7501 50.79 80.3201 51.01 80.8401 51.16C81.3701 51.34 81.8401 51.35 81.8301 51.33C81.9501 51.31 82.4401 51.09 82.8701 50.79C83.3301 50.49 83.8101 50.09 84.2901 49.68C87.1501 47.11 89.7901 43.8 92.1901 40.47L92.2601 40.51L92.2801 40.52Z" fill="#231F20"/>
<path d="M32.62 102.68C33.52 103.38 34.48 104.03 35.46 104.6C35.95 104.89 36.44 105.15 36.93 105.37C37.17 105.48 37.42 105.59 37.64 105.67L37.98 105.79C38.12 105.82 38.05 105.81 38.08 105.82C38.12 105.84 38.17 105.84 38.22 105.82C38.24 105.82 38.27 105.82 38.29 105.8L38.43 105.73C38.75 105.55 39.11 105.29 39.47 105.01C40.19 104.43 40.92 103.77 41.63 103.08C42.77 101.97 43.79 100.72 44.87 99.52C48.66 95.26 52.28 90.73 55.35 85.92C56.04 84.86 56.67 83.76 57.22 82.65C57.77 81.57 58.22 80.34 58.35 79.45C58.36 79.3 58.32 78.95 58.21 78.63C58.11 78.31 57.97 77.99 57.8 77.68C57.46 77.05 57.01 76.44 56.51 75.85C55.5 74.68 54.32 73.6 53.22 72.35C52.52 71.58 52.66 71.61 53.57 71.82C54.02 71.94 54.71 72.05 55.46 72.33C55.84 72.47 56.26 72.62 56.67 72.84C57.07 73.07 57.48 73.35 57.87 73.68C59.23 74.88 60.66 76.3 61.3 78.61C61.36 78.95 61.42 79.45 61.4 79.76C61.38 80.06 61.36 80.41 61.3 80.67C61.26 80.93 61.18 81.19 61.11 81.45L60.87 82.15C60.54 83.05 60.16 83.87 59.75 84.67C58.14 87.84 56.1 90.6 53.96 93.28C51.38 96.47 48.89 99.92 46.05 103.04C44.99 104.19 43.9 105.32 42.72 106.4C42.13 106.94 41.5 107.47 40.82 107.97C40.43 108.23 40.15 108.44 39.58 108.72C39.31 108.86 39 108.91 38.72 109.01C38.57 109.04 38.42 109.03 38.27 109.04C38.19 109.04 38.12 109.04 38.04 109.06L37.82 109.04C37.12 108.9 36.84 108.79 36.42 108.64C36.02 108.5 35.67 108.32 35.29 108.17C34.58 107.82 33.89 107.45 33.23 107.05C30.74 105.51 28.47 103.68 26.51 101.47C25.44 100.22 24.45 98.85 23.86 97.17C23.72 96.71 23.67 96.18 23.73 95.75C23.77 95.33 23.87 94.95 23.97 94.59C24.19 93.87 24.47 93.21 24.76 92.57C25.37 91.3 26.07 90.12 26.78 88.96C28.55 86.13 30.4 83.43 32.56 80.9C33.04 80.35 33.5 79.79 34.03 79.26C35.01 78.29 35.74 77.71 36.36 77.44C37.01 77.21 37.47 77.21 37.94 77.37C38.15 77.44 38.39 77.48 38.54 77.58C38.8 77.74 38.77 78.07 38.54 78.55C38.31 79.03 37.93 79.69 37.28 80.34C35.4 82.35 33.58 84.59 31.86 86.93C30.17 89.26 28.44 91.75 27.45 94.26C27.26 94.73 27.1 95.21 27.02 95.6C26.98 95.79 26.95 95.98 26.96 96.07C26.94 96.12 26.98 96.07 26.94 96.1C27.37 97.17 28.2 98.43 29.2 99.53C30.21 100.65 31.39 101.69 32.64 102.62L32.6 102.69L32.62 102.68Z" fill="#231F20"/>
<path d="M40.82 32.74C40.99 33.01 40.81 33.29 40.44 33.59C40.32 33.68 39.93 33.75 39.85 33.68C39.71 33.54 39.56 33.4 39.45 33.25C39.39 33.16 38.81 31.63 38.57 31.13C38.31 30.65 38.11 30.15 37.93 29.66C37.74 29.16 37.54 28.66 37.33 28.17L37.01 27.44L36.75 26.7C36.67 26.48 36.63 26.25 36.6 26.02C36.52 25.21 36.26 24.46 35.9 23.74C35.84 23.62 35.8 23.49 35.66 23.41C35.42 23.27 34.61 21.27 34.56 20.98C34.48 20.25 34.31 19.55 34.17 18.83C34.15 18.73 34.07 18.65 34.15 18.51C34.34 18.19 34.2 18.01 34.13 17.8C34.03 17.51 33.95 17.2 33.93 16.88C33.92 16.72 34.01 16.51 34.08 16.31C34.14 16.13 34.57 16.01 34.64 16.04C34.83 16.11 34.97 15.92 35.13 15.83C35.19 15.8 35.26 15.76 35.31 15.75C35.42 15.71 36.92 16.99 36.98 17.19C37 17.23 38.27 19.53 38.43 19.82C38.52 19.95 38.51 20.13 38.53 20.29C38.54 20.36 39.56 22.26 39.56 22.37C39.67 22.81 39.9 23.2 39.79 23.71C39.77 23.81 39.81 23.89 39.84 23.98C40.09 24.71 40.2 25.48 40.32 26.23C40.39 26.62 40.46 27 40.53 27.38C40.53 27.45 40.52 27.53 40.51 27.6C40.51 27.69 40.49 27.79 40.51 27.87C40.67 28.77 40.68 29.7 40.87 30.58C40.91 30.79 40.88 31.8 40.95 32.03C40.99 32.16 40.78 32.65 40.85 32.75L40.82 32.74Z" fill="#231F20"/>
<path d="M33.5199 37.15C33.8299 37.22 33.8699 37.59 33.7499 38.11C33.7099 38.28 33.4199 38.64 33.3099 38.65C33.0999 38.66 32.8899 38.68 32.6999 38.66C32.5899 38.64 31.1399 38 30.6199 37.86C30.1199 37.7 29.6599 37.48 29.2099 37.25C28.3099 36.76 27.3899 36.31 26.4599 35.9C26.2499 35.81 26.0599 35.68 25.8799 35.54C25.2499 35.05 24.5299 34.74 23.7799 34.51C23.6599 34.47 23.5399 34.41 23.3799 34.46C23.1299 34.52 21.1299 33.88 20.8999 33.74C20.3099 33.36 19.6799 33.1 19.0899 32.64C18.9999 32.58 18.8999 32.58 18.8399 32.44C18.7099 32.11 18.4899 32.09 18.2999 31.99C18.0299 31.86 17.7499 31.75 17.4799 31.57C17.3499 31.48 17.2299 31.32 17.1099 31.18C16.9999 31.06 17.1299 30.79 17.1799 30.76C17.3299 30.69 17.2499 30.53 17.2699 30.4C17.2699 30.36 17.2699 30.3 17.2899 30.27C17.3099 30.21 19.2399 29.79 19.4499 29.81C19.4599 29.81 19.6399 29.81 19.9099 29.83C20.1699 29.86 20.5399 29.82 20.8799 29.91C21.5699 30.06 22.2899 30.22 22.4499 30.26C22.6099 30.29 22.7399 30.4 22.8699 30.5C22.9399 30.52 24.9999 31.09 25.0799 31.15C25.4799 31.35 25.9199 31.44 26.2199 31.84C26.2799 31.92 26.3699 31.94 26.4499 31.98C27.1499 32.27 27.7899 32.69 28.4299 33.1C28.7599 33.31 29.1099 33.47 29.4399 33.66C29.4999 33.69 29.5399 33.76 29.5999 33.81C29.6699 33.87 29.7299 33.94 29.7999 33.99C30.5999 34.42 31.2999 35.03 32.0799 35.49C32.2699 35.59 32.9199 36.4 33.1299 36.52C33.2499 36.59 33.3899 37.13 33.5199 37.16V37.15Z" fill="#231F20"/>
<path d="M31.76 45.01C32.02 44.85 32.27 45.12 32.51 45.64C32.59 45.8 32.61 46.32 32.54 46.4C32.4 46.56 32.26 46.71 32.12 46.83C32.03 46.89 30.59 47.34 30.11 47.55C29.64 47.74 29.17 47.84 28.69 47.93C27.72 48.11 26.76 48.33 25.81 48.54C25.6 48.59 25.38 48.6 25.16 48.59C24.4 48.55 23.66 48.65 22.94 48.84C22.82 48.87 22.69 48.88 22.59 49.01C22.43 49.22 20.45 49.63 20.18 49.6C19.5 49.52 18.84 49.53 18.16 49.51C18.06 49.51 17.98 49.57 17.86 49.46C17.6 49.2 17.41 49.3 17.21 49.32C16.93 49.35 16.64 49.37 16.35 49.34C16.2 49.32 16.03 49.18 15.86 49.07C15.71 48.97 15.66 48.49 15.69 48.43C15.78 48.25 15.62 48.06 15.56 47.87C15.54 47.81 15.51 47.72 15.51 47.67C15.49 47.55 16.92 46.37 17.1 46.34C17.14 46.33 19.44 45.58 19.73 45.48C19.87 45.42 20.02 45.47 20.17 45.48C20.24 45.48 22.11 44.89 22.19 44.89C22.59 44.86 22.98 44.68 23.42 44.89C23.51 44.93 23.59 44.9 23.66 44.89C24.34 44.77 25.05 44.81 25.75 44.81C26.11 44.81 26.46 44.75 26.81 44.72C26.87 44.72 26.94 44.75 27.01 44.76C27.09 44.77 27.18 44.8 27.26 44.79C28.09 44.7 28.94 44.77 29.76 44.63C29.95 44.6 30.89 44.82 31.11 44.77C31.23 44.75 31.67 45.09 31.77 45.03L31.76 45.01Z" fill="#231F20"/>
<path d="M96.0898 75.2C95.8198 75.16 95.6298 74.93 95.4798 74.65C95.4298 74.56 95.4798 74.34 95.5698 74.31C95.7598 74.25 95.9398 74.19 96.0698 74.14C96.1698 74.12 96.5698 74.03 97.0398 73.92C97.5198 73.84 98.0498 73.76 98.3398 73.71C98.8698 73.65 99.3698 73.73 99.8698 73.8L102.92 74.27C103.14 74.31 103.36 74.38 103.57 74.48C104.28 74.82 105.03 74.98 105.79 75.09C105.92 75.11 106.04 75.15 106.19 75.07C106.43 74.94 108.44 75.34 108.68 75.47C109.27 75.82 109.9 76.03 110.5 76.39C110.59 76.44 110.69 76.42 110.75 76.57C110.88 76.93 111.09 76.92 111.29 76.99C111.56 77.08 111.82 77.23 112.08 77.4C112.21 77.49 112.31 77.69 112.42 77.85C112.52 78 112.37 78.4 112.32 78.44C112.17 78.55 112.23 78.77 112.21 78.95C112.21 79.01 112.19 79.09 112.18 79.14C112.15 79.22 110.33 79.85 110.15 79.79C110.13 79.77 109.49 79.78 108.84 79.67C108.19 79.58 107.51 79.48 107.37 79.47C107.22 79.47 107.1 79.35 106.97 79.27C106.91 79.24 104.95 78.96 104.88 78.92C104.5 78.77 104.08 78.77 103.77 78.39C103.71 78.32 103.63 78.31 103.55 78.29C102.88 78.12 102.25 77.82 101.62 77.56C101.29 77.43 100.95 77.36 100.62 77.26C100.56 77.24 100.51 77.19 100.45 77.16C100.38 77.12 100.31 77.07 100.23 77.05C99.4398 76.84 98.6698 76.51 97.8498 76.38C97.6698 76.3 96.8598 75.78 96.6498 75.69C96.5398 75.63 96.2098 75.21 96.0998 75.22L96.0898 75.2Z" fill="#231F20"/>
<path d="M94.8701 81.48C94.6501 81.35 94.6601 81.06 94.7801 80.72C94.8201 80.61 95.0601 80.42 95.1401 80.43C95.3001 80.46 95.4601 80.49 95.6001 80.54C95.6701 80.58 96.8001 81.24 97.2301 81.41C97.6301 81.59 98.0201 81.79 98.3301 82.07L100.4 83.67C100.55 83.79 100.69 83.93 100.81 84.09C101.22 84.64 101.73 85.08 102.28 85.49C102.37 85.56 102.45 85.65 102.6 85.65C102.85 85.64 104.26 86.92 104.38 87.16C104.68 87.73 105.02 88.27 105.3 88.86C105.34 88.94 105.43 88.99 105.39 89.13C105.28 89.45 105.42 89.59 105.52 89.76C105.66 89.99 105.77 90.25 105.82 90.55C105.85 90.69 105.76 90.89 105.7 91.06C105.65 91.22 105.21 91.36 105.15 91.35C104.97 91.32 104.82 91.49 104.66 91.59C104.6 91.62 104.53 91.66 104.48 91.68C104.43 91.7 104.07 91.52 103.75 91.34C103.39 91.16 103.07 90.98 103.03 90.92C103.01 90.91 102.71 90.55 102.35 90.19C101.99 89.83 101.59 89.46 101.5 89.39C101.41 89.32 101.38 89.19 101.33 89.07C101.31 89.01 100.07 88 100.02 87.95C99.8101 87.69 99.5001 87.52 99.4201 87.11C99.4001 87.03 99.3501 86.99 99.3001 86.95C98.8601 86.56 98.5001 86.09 98.1001 85.64C97.9001 85.41 97.6601 85.22 97.4401 85C97.4001 84.96 97.3801 84.9 97.3501 84.85C97.3101 84.79 97.2801 84.72 97.2301 84.67C96.6901 84.18 96.2301 83.61 95.7101 83.08C95.5901 82.96 95.2101 82.19 95.0701 82.05C94.9901 81.97 94.9401 81.52 94.8501 81.47L94.8701 81.48Z" fill="#231F20"/>
<path d="M87.1798 84.1501C87.0698 83.8701 87.2898 83.6101 87.6398 83.3801C87.7498 83.3001 88.0998 83.2901 88.1598 83.3701C88.2798 83.5201 88.3998 83.6701 88.4998 83.8301C88.5298 83.8801 88.6598 84.2901 88.8198 84.7501C88.9798 85.2101 89.1798 85.7301 89.2398 85.9901C89.3898 86.5001 89.4798 87.01 89.5398 87.52L89.9898 90.6501C90.0198 90.8801 90.0298 91.1201 90.0098 91.3501C89.9398 92.1601 90.0298 92.9501 90.1798 93.7401C90.2098 93.8701 90.2098 94.01 90.3198 94.13C90.4998 94.33 90.8098 96.4601 90.7798 96.7401C90.6998 97.4501 90.6898 98.1501 90.6498 98.8501C90.6498 98.9501 90.6998 99.0501 90.5998 99.1601C90.3598 99.4101 90.4398 99.6101 90.4598 99.8201C90.4798 100.12 90.4898 100.42 90.4598 100.72C90.4398 100.87 90.3098 101.04 90.1998 101.21C90.1098 101.36 89.6698 101.37 89.6098 101.33C89.4498 101.22 89.2698 101.37 89.0998 101.41C89.0398 101.43 88.9598 101.44 88.9098 101.45C88.7898 101.46 87.7998 99.8401 87.7898 99.6401C87.7898 99.6001 87.2598 97.1001 87.1898 96.7901C87.1498 96.6401 87.1898 96.4801 87.2198 96.3301C87.1998 96.2501 86.8398 94.2401 86.8298 94.1601C86.8298 93.7401 86.6998 93.32 86.8898 92.88C86.9298 92.79 86.9098 92.7101 86.8898 92.6201C86.8098 91.9001 86.8498 91.1701 86.8698 90.4401C86.8698 90.0701 86.8298 89.7001 86.8098 89.3301C86.8098 89.2601 86.8398 89.1901 86.8498 89.1301C86.8598 89.0401 86.8898 88.9601 86.8798 88.8701C86.8098 88.0001 86.8798 87.1101 86.7598 86.2501C86.7098 86.0501 86.9698 85.07 86.9498 84.84C86.9498 84.71 87.2398 84.2601 87.1898 84.1501H87.1798Z" fill="#231F20"/>
</svg>
