<svg width="128" height="128" viewBox="0 0 128 128" fill="none" xmlns="http://www.w3.org/2000/svg">
<path d="M44.78 115.6C38.37 114.13 44.7 102.81 51.33 94.2799C53.8759 90.9612 56.1563 87.447 58.15 83.7699L55.56 81.9199C55.56 81.9199 50.17 90.8299 47 94.2599C43.83 97.6899 39 105.45 38.77 108.47C38.54 111.49 38.7 115.6 44.78 115.6Z" fill="#231F20"/>
<path d="M94.8599 110.79C80.5399 110.16 46.1999 66.2301 46.1999 66.2301C49.2799 64.8301 52.9799 58.9201 52.9799 58.9201L51.4899 57.3401C51.4899 57.3401 46.2999 64.3401 42.2199 65.0201C42.2199 65.0201 41.1299 65.0201 42.8699 66.7001C44.6099 68.3801 59.0799 84.2001 61.9999 87.8601C64.9199 91.5201 82.6399 109.79 87.5999 111.27C92.2699 112.66 92.2699 112.66 93.5999 111.67L94.8599 110.79Z" fill="#231F20"/>
<path d="M38.2801 65.29C35.4398 65.82 32.5179 65.721 29.7201 65L28.2101 64.58C27.7101 64.44 27.2101 64.21 26.7501 64.03C25.068 63.3037 23.4744 62.3878 22.0001 61.3C21.3001 60.72 20.5701 60.17 19.9101 59.55C19.2437 58.9186 18.6128 58.2509 18.0201 57.55C17.4798 56.9512 16.9724 56.3236 16.5001 55.67C16.008 55.0327 15.5571 54.3647 15.1501 53.67L14.3601 52.35C14.1301 51.89 13.9201 51.42 13.7001 50.95C13.4611 50.4931 13.2765 50.0098 13.1501 49.51C13.0201 49.01 12.8901 48.51 12.8001 48.01C12.7101 47.51 12.8601 47.42 13.2701 47.85C13.9014 48.5022 14.4337 49.2434 14.8501 50.05C16.5124 53.6757 18.9216 56.9096 21.9201 59.54C23.8059 61.1309 25.964 62.3675 28.2901 63.19C30.8449 64.1333 33.5771 64.4988 36.2901 64.26C37.1201 64.16 37.9501 64.02 38.7601 63.84C39.5701 63.66 40.3701 63.4 41.1401 63.05C43.4879 62.1138 45.6361 60.7393 47.4701 59C48.8451 57.6423 49.9571 56.0421 50.7501 54.28C50.9273 53.9019 51.0842 53.5147 51.2201 53.12C51.7601 51.66 51.9101 51.2 52.4101 50.95C52.5137 50.8907 52.6205 50.8373 52.7301 50.79C53.0501 50.69 53.2301 51.43 52.9101 52.65C51.8267 56.4002 49.4675 59.6542 46.2401 61.85C43.8535 63.5799 41.1267 64.7832 38.2401 65.38L38.2801 65.29Z" fill="#231F20"/>
<path d="M33.4699 48.4801C33.6299 48.2801 34.2699 47.4801 34.9599 46.7401C35.6499 46.0001 36.3799 45.3001 36.5199 45.1801C36.6599 45.0601 37.6999 44.2501 37.8099 44.1801L38.0799 43.9801L38.3499 43.8001H38.4299C38.4299 43.8001 38.4299 43.7301 38.4299 43.7001V43.6001V43.4401L38.3599 42.9301C38.3599 42.8401 38.2199 41.6101 38.0899 40.3301C37.9901 39.3864 37.7958 38.455 37.5099 37.5501C37.4399 37.3601 37.2499 36.7601 37.0199 36.1601C36.8438 35.6901 36.6435 35.2295 36.4199 34.7801C36.3599 34.6401 36.6899 34.4701 36.7599 34.5701C37.0471 35.0247 37.2947 35.5031 37.4999 36.0001C37.7799 36.6528 38.0236 37.3205 38.2299 38.0001C38.4699 38.7701 38.6199 39.4701 38.6299 39.5301C38.7699 40.0501 38.8899 40.5901 38.9899 41.1201L39.1299 41.8601L39.3199 42.8601L39.4299 43.3601L39.6099 44.1101C39.6099 44.1701 39.6799 44.2501 39.6099 44.2901L39.4499 44.4101L39.1299 44.6701L38.7099 45.0201L37.9799 45.6401C37.2677 46.2596 36.5994 46.9279 35.9799 47.6401C35.6299 48.0401 35.2999 48.4601 34.9799 48.8701C34.7799 49.1201 34.5399 49.3301 34.3299 49.5701C34.1199 49.8101 33.9099 49.7201 33.6199 49.5701C33.3299 49.4201 33.3499 48.6301 33.4699 48.4801Z" fill="#231F20"/>
<path d="M90.3999 56C85.2599 54.8 76.3999 48.65 72.8799 48.65C71.4499 48.65 72.7399 54.07 73.3999 54.34C74.0599 54.61 71.3999 54.57 70.9599 51.65C70.7628 49.3309 70.9349 46.9951 71.4699 44.73C71.4699 44.73 77.4699 48.73 80.0699 49.47C82.6699 50.21 91.9099 54.72 91.9099 54.72C91.9099 54.72 91.0499 56.15 90.3999 56Z" fill="#231F20"/>
<path d="M70.84 55.4199C70.84 55.4199 71.84 55.6799 71.47 57.3399C71.1 58.9999 65.78 70.5999 65.78 70.5999L64 68.1199L70.84 55.4199Z" fill="#231F20"/>
<path d="M65.1702 27.65C64.6802 30.18 62.7502 32.18 61.9802 32.23C61.5802 32.23 60.9002 32.4 60.9802 32.02C60.6102 33.26 61.4402 35.74 62.7102 34.52C63.4342 33.7579 64.0869 32.9311 64.6602 32.05C65.6602 30.55 69.0902 28.28 68.1902 26.21C68.1902 26.21 66.9502 23.44 63.7102 25.78C63.9439 25.7635 64.1781 25.8047 64.3922 25.9C64.6063 25.9953 64.7937 26.1417 64.9379 26.3264C65.0821 26.5111 65.1787 26.7284 65.2192 26.9592C65.2597 27.19 65.2429 27.4272 65.1702 27.65Z" fill="#231F20"/>
<path d="M97.2598 42.7299C96.1326 41.3734 94.8619 40.1429 93.4698 39.0599C92.9598 38.6499 92.4698 38.2799 91.8998 37.8899C90.0298 36.5199 88.0598 35.2699 86.0498 34.0799C85.1598 33.5599 84.2498 33.0799 83.3498 32.5599C82.1576 31.9639 81.0141 31.2751 79.9298 30.4999C79.5998 30.2099 79.7298 30.1699 80.0798 30.2799C80.6413 30.448 81.1868 30.6655 81.7098 30.9299C84.0898 32.1499 86.5498 33.3099 88.8698 34.7599C90.2598 35.6299 91.7498 36.4699 93.1398 37.4199C94.6891 38.4667 96.1296 39.666 97.4398 40.9999C98.2591 41.8351 98.9712 42.7689 99.5598 43.7799C99.7845 44.1715 99.972 44.5833 100.12 45.0099C100.263 45.423 100.383 45.8436 100.48 46.2699C100.62 46.8999 101.36 47.2699 102.09 47.6699C103.358 48.1667 104.55 48.84 105.63 49.6699C105.87 49.8685 106.094 50.0858 106.3 50.3199C106.6 50.6171 106.805 50.9964 106.89 51.4099C106.934 51.6253 106.91 51.8492 106.82 52.0499C106.79 52.1284 106.75 52.2025 106.7 52.2699C106.55 52.4499 106.19 52.1199 105.7 51.6399C104.999 50.8321 104.133 50.1841 103.16 49.7399C102.66 49.4799 102.16 49.2599 101.54 48.9799C100.859 48.6754 100.244 48.2406 99.7298 47.6999C99.3433 47.2061 99.0918 46.6203 98.9998 45.9999C98.9068 45.6134 98.7727 45.238 98.5998 44.8799C98.2399 44.1198 97.7864 43.4076 97.2498 42.7599L97.2598 42.7299Z" fill="#231F20"/>
<path d="M53.2502 53.7699C52.4595 56.2085 51.1494 58.4465 49.4102 60.3299C47.6939 62.167 45.6616 63.6811 43.4102 64.7999C42.5802 65.1999 41.7602 65.5799 40.9102 65.8999C40.0438 66.2038 39.1627 66.4642 38.2702 66.6799C35.0984 67.3486 31.8121 67.2423 28.6902 66.3699C25.598 65.5146 22.7172 64.0266 20.2302 61.9999C18.043 60.2282 16.1379 58.1343 14.5802 55.7899C12.5326 52.8279 11.3013 49.3789 11.0102 45.7899C10.9302 44.6799 11.1602 44.7899 11.6702 45.6499C12.0215 46.2034 12.3388 46.7778 12.6202 47.3699C13.0714 48.1291 13.4497 48.9294 13.7502 49.7599C14.9505 52.9347 16.7575 55.8456 19.0702 58.3299C21.3648 60.8656 24.2066 62.8456 27.3802 64.1199L28.8402 64.6399C29.336 64.7893 29.8402 64.9095 30.3502 64.9999C31.3803 65.2201 32.4275 65.3506 33.4802 65.3899C34.0002 65.3899 34.5302 65.3899 35.0502 65.3899H35.8502C36.1102 65.3899 36.3602 65.3099 36.6202 65.2599L38.1802 64.9899L39.6902 64.5299C44.2247 63.1753 48.0592 60.1185 50.3902 55.9999C51.0714 54.7428 51.573 53.3963 51.8802 51.9999C52.1802 50.5896 52.331 49.1517 52.3302 47.7099V46.8899L52.2502 46.0699C52.1902 45.5299 52.1602 44.9799 52.0802 44.4399C51.5149 41.1831 50.2971 38.0742 48.5002 35.2999C46.6655 32.5161 44.2839 30.1346 41.5002 28.2999C40.8702 27.9499 40.2702 27.5599 39.6202 27.2499C37.2102 26.0699 36.4302 25.9899 35.9502 25.2499C35.8235 25.1104 35.7097 24.9598 35.6102 24.7999C35.5002 24.5599 35.7302 24.4099 36.3002 24.3399C36.6595 24.3096 37.0208 24.3096 37.3802 24.3399C37.7902 24.4199 38.2702 24.5399 38.8102 24.6999C41.9442 25.85 44.7539 27.7403 47.0002 30.2099C49.3379 32.6809 51.1932 35.5671 52.4702 38.7199C54.4549 43.4939 54.7582 48.8008 53.3302 53.7699H53.2502Z" fill="#231F20"/>
<path d="M37.13 43.4999C37.1386 43.4706 37.1386 43.4393 37.13 43.4099L37 42.5699C36.87 41.9899 36.73 41.3999 36.58 40.8199C36.43 40.2399 36.3 39.9799 36.21 39.5499C35.84 38.0399 35.46 36.5499 35.02 35.0199C34.8227 34.3412 34.589 33.6736 34.32 33.0199C33.9228 32.2298 33.6367 31.3885 33.47 30.5199C33.47 30.2399 33.8 30.1299 34.26 30.1999C34.5131 30.2329 34.7557 30.3218 34.9702 30.4602C35.1846 30.5986 35.3656 30.7829 35.5 30.9999C36.239 32.6762 36.7988 34.426 37.17 36.2199C37.39 37.2999 37.84 38.3499 38.17 39.4399L38.64 41.2299L39.08 43.1299L39.27 43.9799C39.3129 44.1088 39.3332 44.2441 39.33 44.3799L38.95 44.5999L38.21 45.0399L37.7 45.3499C36.7455 45.9212 35.8539 46.5916 35.04 47.3499C34.4486 47.9733 33.907 48.642 33.42 49.3499C33.31 49.4999 33.2 49.6599 33.08 49.7999C32.62 50.3399 32.38 50.4299 31.89 50.1999C31.7774 50.156 31.6672 50.1059 31.56 50.0499C31.22 49.8399 31.16 49.4099 31.42 48.9199C32.2554 47.4403 33.3692 46.1364 34.7 45.0799C35.2002 44.6921 35.7209 44.3316 36.26 43.9999L36.67 43.7399L37.02 43.5199H37.08L37.13 43.4999Z" fill="#231F20"/>
<path d="M25.24 49.8399L23 48.6899C22.72 48.5499 22.42 48.4699 22.14 48.3299C21.14 47.8399 20.22 47.2199 19.25 46.6999C18.82 46.4599 18.37 46.2699 17.94 46.0399C17.3634 45.7757 16.8224 45.4397 16.33 45.0399C16.18 44.9099 16.33 44.7399 16.55 44.5999C16.8536 44.429 17.2083 44.3722 17.55 44.4399C18.1579 44.5888 18.7557 44.7759 19.34 44.9999C19.9213 45.2347 20.4859 45.5086 21.03 45.8199C21.69 46.1899 22.46 46.3799 23.17 46.6999L25.51 47.6999L26.95 48.3499C27.69 48.6699 28.41 49.0199 29.16 49.3499C29.74 49.5799 30.35 49.6999 30.96 49.9099L31.36 50.0399C31.84 50.2699 31.92 50.4799 31.73 51.0399C31.73 51.1599 31.65 51.2799 31.6 51.3999C31.5305 51.5732 31.4053 51.7183 31.2442 51.8125C31.083 51.9067 30.8951 51.9445 30.71 51.9199C29.6308 51.7243 28.5819 51.3881 27.59 50.9199L25.29 49.8599L25.24 49.8399Z" fill="#231F20"/>
<path d="M92.2103 96.1601C93.4774 97.6267 94.6307 99.1879 95.6603 100.83C96.7848 102.578 97.4709 104.571 97.6603 106.64C97.7673 107.8 97.5381 108.967 97.0003 110C96.1026 111.448 94.7371 112.545 93.1302 113.11L92.2702 113.29C91.9904 113.305 91.7101 113.305 91.4303 113.29C90.3731 113.255 89.3291 113.046 88.3402 112.67C85.691 111.623 83.2161 110.18 81.0003 108.39C77.1732 105.394 73.5826 102.108 70.2603 98.5601C66.9103 95.0601 63.7103 91.4501 60.5903 87.7701C57.8202 84.5001 55.0902 81.2001 52.2802 78.0401C50.4802 76.0001 48.6402 74.0001 46.8002 72.0001C44.9602 70.0001 43.1403 68.0001 41.2703 66.1401C41.1303 66.0001 41.0202 65.8701 40.9202 65.7501C40.8202 65.6301 40.7702 65.5901 40.7102 65.5201C40.6502 65.4501 40.5602 65.2801 40.6002 65.2201C40.6402 65.1601 41.1003 65.0901 41.8403 65.3701C44.0983 66.4137 46.1169 67.9115 47.7703 69.7701C51.5703 73.8801 55.1903 78.1001 58.7703 82.4101C62.3503 86.7201 65.8803 90.9401 69.6203 95.0701C71.8503 97.5501 74.2503 99.9601 76.7503 102.28C79.2089 104.615 81.8618 106.736 84.6803 108.62C86.1673 109.635 87.7855 110.442 89.4902 111.02C90.2799 111.261 91.1061 111.359 91.9303 111.31C92.3003 111.26 92.6609 111.156 93.0003 111C93.3571 110.822 93.6926 110.604 94.0003 110.35C94.6605 109.897 95.1697 109.257 95.4621 108.512C95.7545 107.767 95.8165 106.951 95.6403 106.17C95.2397 104.442 94.4949 102.813 93.4502 101.38C92.1529 99.4956 90.7332 97.6984 89.2002 96.0001C87.6903 94.2901 86.0703 92.6201 84.4803 91.0001C79.6003 86.0001 74.6502 80.9201 69.6803 76.0001C65.8202 72.1901 61.9302 68.5701 58.0502 64.8701L55.4903 62.4501C52.3103 59.3901 51.4902 58.2501 51.1902 57.1801C51.1049 56.9512 51.0478 56.7128 51.0203 56.4701C51.0203 56.1901 51.4003 56.2701 52.0903 56.7001C53.1175 57.3914 54.0904 58.1603 55.0002 59.0001C62.1103 65.4301 69.3703 72.4701 76.5303 79.6701C79.1969 82.3367 81.8436 85.0301 84.4703 87.7501C87.0903 90.4801 89.7703 93.2001 92.2503 96.1401L92.2103 96.1601Z" fill="#231F20"/>
<path d="M88.0002 53.67C85.1302 52.41 82.2502 51.16 79.3902 49.85C78.3402 49.37 77.2702 48.94 76.2302 48.41C75.2961 47.9468 74.388 47.4327 73.5102 46.87C72.6387 46.2949 71.8006 45.6706 71.0002 45C69.2876 43.7033 67.946 41.9789 67.1102 40C66.7713 39.0825 66.579 38.1174 66.5402 37.14C66.5238 36.1868 66.6314 35.2355 66.8602 34.31C67.1145 33.14 67.5177 32.0074 68.0602 30.94C68.5625 29.8199 69.295 28.8182 70.2102 28C70.8302 27.53 70.9202 27.85 70.7902 28.53C70.6539 29.5172 70.3883 30.4822 70.0002 31.4C69.5988 32.3931 69.2648 33.4121 69.0002 34.45C68.7064 35.4217 68.5779 36.4358 68.6202 37.45C68.8339 39.5091 69.7987 41.4172 71.3302 42.81C72.2948 43.7789 73.3804 44.6192 74.5602 45.31C75.7696 46.0261 77.0183 46.6738 78.3002 47.25C81.1302 48.58 84.0302 49.84 86.9202 51.1L92.2702 53.43C94.9702 54.61 97.6702 55.83 100.34 57.04C102.42 57.98 104.49 58.83 106.52 59.9C106.96 60.13 107.4 60.37 107.85 60.64C109.46 61.64 109.85 62.3 109.78 62.96C109.769 63.1001 109.739 63.2381 109.69 63.37C109.48 63.7 108.86 63.37 107.79 62.76C106.16 61.76 104.32 60.93 102.45 60.06C100.58 59.19 98.6702 58.33 96.7302 57.48L88.0002 53.72V53.67Z" fill="#231F20"/>
<path d="M99.3201 43.9399C98.085 41.648 96.3063 39.6942 94.1401 38.2499C93.3501 37.6599 92.4701 37.1799 91.6301 36.6499C88.5671 34.8234 85.4019 33.1741 82.1501 31.7099C80.7101 31.0399 79.2201 30.4299 77.7501 29.8099C75.8009 29.1126 73.9491 28.1682 72.2401 26.9999C71.7101 26.5999 72.0201 26.2999 72.7001 26.1999C73.6466 26.099 74.6031 26.24 75.4801 26.6099C79.1901 28.2599 83.0901 29.7799 86.8401 31.7599C89.0901 32.9299 91.5101 34.0199 93.7501 35.4199C96.2826 36.9361 98.4996 38.9257 100.28 41.2799C100.814 42.0457 101.263 42.8672 101.62 43.7299C101.81 44.1499 101.92 44.6099 102.07 45.0499L102.21 45.7399L102.29 46.0899C102.29 46.1899 102.29 46.2599 102.29 46.3399V46.5899V46.8299C102.359 46.8775 102.433 46.9178 102.51 46.9499L103.21 47.2999C103.793 47.604 104.361 47.9378 104.91 48.2999C106.02 48.995 107.056 49.8026 108 50.7099C109.535 52.1881 110.768 53.9509 111.63 55.8999C111.82 56.3295 111.984 56.7703 112.12 57.2199C112.216 57.5782 112.29 57.9423 112.34 58.3099C112.362 58.5628 112.362 58.8171 112.34 59.0699C112.29 59.4067 112.128 59.7168 111.88 59.9499C111.785 60.0457 111.685 60.1358 111.58 60.2199C111.23 60.4099 110.86 59.7599 110.36 58.7099C109.804 57.1283 109.044 55.6258 108.1 54.2399C107.115 52.8519 105.905 51.6384 104.52 50.6499C103.926 50.2285 103.308 49.8412 102.67 49.4899L102.18 49.2399L101.53 48.9199C101.38 48.8499 101.18 48.7599 101.02 48.6699C100.87 48.5657 100.75 48.4245 100.67 48.2599L100.6 48.1499C100.71 48.0699 100.44 48.2499 100.47 48.2299L100.38 47.9799L100.2 47.4699C100.164 46.8202 100.057 46.1763 99.8801 45.5499C99.7901 45.2999 99.7301 45.0499 99.6301 44.7999L99.2701 43.9999L99.3201 43.9399Z" fill="#231F20"/>
<path d="M71.3602 43.26C71.6722 44.1395 71.8278 45.0668 71.8202 46C71.8802 47.19 71.8902 48.3 71.9002 48.51C71.9102 48.72 71.9002 50.18 71.9002 50.32C71.9002 50.46 71.9002 50.89 71.9002 51.44C71.9121 51.8284 71.9829 52.2128 72.1102 52.58C72.1391 52.6331 72.1593 52.6905 72.1702 52.75C72.2302 52.75 72.1702 52.81 72.4002 52.96C72.9488 53.3019 73.5201 53.606 74.1102 53.87L77.1102 55.38C77.6391 55.6446 78.1472 55.9488 78.6302 56.29C79.2602 56.74 79.8402 57.29 80.0402 57.43C80.2402 57.57 79.8102 57.96 79.6902 57.89C79.2002 57.58 78.6902 57.31 78.1802 57.02C77.5036 56.6461 76.8058 56.3122 76.0902 56.02C75.2602 55.67 74.5002 55.38 74.4402 55.36C73.8502 55.18 73.2502 54.99 72.6502 54.77C72.3608 54.6687 72.077 54.5519 71.8002 54.42L71.4902 54.27L71.3302 54.18L71.2202 54C70.9854 53.8081 70.7973 53.5653 70.6702 53.29C70.4709 52.8563 70.3264 52.3994 70.2402 51.93C70.0838 51.1515 69.9835 50.3628 69.9402 49.57L69.8502 46.25C69.8502 45.64 69.7302 45.04 69.7102 44.46C69.6663 44.1281 69.6663 43.7918 69.7102 43.46C69.7102 43.24 69.9502 42.99 70.1302 42.76C70.3102 42.53 70.4402 42.69 70.7202 42.82C70.9638 42.9168 71.1825 43.0672 71.3602 43.26Z" fill="#231F20"/>
<path d="M45.1899 117.23C44.0405 117.438 42.8554 117.306 41.7799 116.85C40.758 116.433 39.8374 115.803 39.0799 115C38.2946 114.173 37.7785 113.127 37.5999 112C37.4286 110.944 37.4591 109.865 37.6899 108.82C37.9821 107.388 38.4665 106.002 39.1299 104.7C39.6783 103.575 40.3031 102.489 40.9999 101.45C41.6799 100.45 42.3899 99.45 43.0899 98.45L47.3499 92.53C48.6099 90.78 49.8399 88.99 51.0399 87.22C52.4975 84.8821 54.1182 82.6499 55.8899 80.54C56.4599 79.9 56.6299 80.15 56.5299 80.96C56.3658 82.2238 55.9327 83.4377 55.2599 84.52C52.0999 89.16 48.7799 93.69 45.3699 98.2C43.2587 100.857 41.4914 103.77 40.1099 106.87C39.7628 107.693 39.5079 108.551 39.3499 109.43C39.1745 110.261 39.1745 111.119 39.3499 111.95C39.572 112.753 39.9983 113.484 40.5871 114.073C41.176 114.662 41.9073 115.088 42.7099 115.31C43.6884 115.64 44.753 115.608 45.7099 115.22C46.7221 114.802 47.6452 114.194 48.4299 113.43C50.8802 110.949 52.9342 108.106 54.5199 105C55.8299 102.61 56.8799 100.15 58.0199 97.68C58.2699 97.14 58.5199 96.61 58.7999 96.07C59.7999 94.07 60.4099 93.52 61.1299 93.42C61.2596 93.3711 61.3935 93.3343 61.5299 93.31C61.7099 93.31 61.7099 93.51 61.6699 93.95C61.5965 94.5706 61.4137 95.1732 61.1299 95.73C59.2243 100.416 56.9192 104.929 54.2399 109.22C53.1746 110.896 51.9597 112.473 50.6099 113.93C49.896 114.67 49.1124 115.34 48.2699 115.93C47.3486 116.581 46.3039 117.037 45.1999 117.27L45.1899 117.23Z" fill="#231F20"/>
<path d="M63.3398 66.9999C63.645 66.4462 63.9788 65.9088 64.3398 65.3899L65.3398 63.8699C65.4498 63.6799 65.9998 62.8699 66.0498 62.7299L66.5398 62.0199C66.7898 61.6599 67.0498 61.2599 67.1198 61.1299C67.1898 60.9999 69.3898 57.6399 69.5398 57.1899C69.6698 56.8999 70.6098 55.2899 70.7598 55.0399C70.7598 54.9699 71.3298 54.9799 71.3298 55.1299C71.3284 55.6085 71.2082 56.0793 70.9798 56.4999C70.6798 57.0999 69.6698 59.1599 69.6198 59.2499L68.9998 60.5199L68.7398 61.0999L67.9998 62.7099C67.7698 63.2199 67.5798 63.7099 67.3298 64.2299L66.2298 66.4099C66.0298 66.8199 65.8398 67.2499 65.6198 67.6599C65.4694 67.8908 65.2951 68.1053 65.0998 68.2999C65.0398 68.3799 64.8898 68.3799 64.7098 68.2999C64.5298 68.2199 64.2598 68.1699 64.0898 68.1199C63.9864 68.0834 63.896 68.0173 63.8298 67.9299C63.723 67.8114 63.626 67.6843 63.5398 67.5499C63.4144 67.3936 63.3441 67.2003 63.3398 66.9999Z" fill="#231F20"/>
<path d="M77.2902 65.9999C78.2902 64.6999 79.2903 63.4299 80.4103 62.2099C80.8203 61.7599 81.1902 61.2899 81.6302 60.8799C83.1553 59.3699 84.9276 58.132 86.8702 57.2199L89.3702 55.9999C89.8902 55.7499 90.3702 55.4599 90.9102 55.2199L92.4602 54.5399C92.7802 54.3999 92.9202 54.6499 92.8402 55.0899C92.7037 55.6936 92.3472 56.2248 91.8402 56.5799C89.6802 57.8199 87.4902 58.5799 85.5503 59.6999C84.379 60.4871 83.3194 61.429 82.4002 62.4999C81.3402 63.6599 80.3402 64.8899 79.4002 66.1699C78.8202 66.9599 78.2402 67.7599 77.6902 68.5799C76.8602 69.7899 76.0002 70.9999 75.2202 72.3099C74.6202 73.3099 74.1102 74.3099 73.4602 75.3099C73.3302 75.5199 73.1902 75.7399 73.0302 75.9499C72.8348 76.2445 72.5749 76.4907 72.2702 76.6699C72.0951 76.7715 71.8905 76.8103 71.6902 76.7799C71.6104 76.786 71.5301 76.786 71.4502 76.7799C71.2202 76.6999 71.2902 76.2499 71.5302 75.6099C71.9502 74.6699 72.4102 73.7599 72.8802 72.7999C73.3502 71.8399 74.0002 70.9199 74.5102 69.9999C75.3402 68.6099 76.3002 67.2799 77.2502 65.9399L77.2902 65.9999Z" fill="#231F20"/>
<path d="M64.3599 33.3901C64.8599 33.6501 65.3599 33.8901 65.8899 34.1301L66.6799 34.4801L67.1199 34.6401L67.3799 34.7101C67.5257 34.7323 67.674 34.7323 67.8199 34.7101C67.8799 34.7101 67.8199 34.3401 67.8199 33.9801L67.7599 33.6501C67.7499 33.5604 67.7499 33.4698 67.7599 33.3801V33.2501H67.6199L67.2699 33.1201L66.5499 32.8101C66.0599 32.5801 65.5499 32.3401 65.0899 32.0901C65.0403 32.1505 64.9999 32.2179 64.9699 32.2901L64.7299 32.7301C64.5891 32.9398 64.4653 33.1605 64.3599 33.3901Z" fill="#242021"/>
<path d="M65.73 30.7999L68.51 31.8999C68.7208 31.4595 68.9013 31.0051 69.05 30.5399L66.27 29.4399C66.0625 29.8819 65.8821 30.336 65.73 30.7999Z" fill="#242021"/>
<path d="M67.2302 27.2799C67.0229 27.4852 66.8536 27.7255 66.7302 27.9899L66.3202 28.7099L65.5202 30.1499C64.9802 31.0899 64.4302 32.0199 63.8202 32.8799C63.5214 33.2981 63.1868 33.6896 62.8202 34.0499C62.6712 34.194 62.5069 34.3214 62.3302 34.4299C62.1702 34.4999 62.1402 34.4899 62.1402 34.4899C62.0526 34.4112 61.9812 34.3161 61.9302 34.2099L61.8702 33.9999C61.8445 33.8977 61.8244 33.7942 61.8102 33.6899C61.7698 33.2022 61.7933 32.7114 61.8802 32.2299C62.2563 30.1606 63.016 28.1799 64.1202 26.3899C64.2519 26.1982 64.399 26.0176 64.5602 25.8499L64.6702 25.7399H64.7302C64.7302 25.7399 64.8702 25.6799 64.9502 25.6499C65.3438 25.5485 65.7589 25.5694 66.1402 25.7099C66.5175 25.8403 66.8597 26.0559 67.1402 26.3399C67.3702 26.6399 67.5002 26.8499 67.4102 27.1199C67.4102 27.2299 68.3002 28.1199 68.5602 27.6699C68.7486 27.3063 68.8209 26.8937 68.7672 26.4877C68.7136 26.0817 68.5366 25.702 68.2602 25.3999C67.8098 24.8676 67.2164 24.4755 66.5502 24.2699C65.8797 24.0595 65.1608 24.0595 64.4902 24.2699C64.3044 24.3279 64.1264 24.4085 63.9602 24.5099C63.8661 24.5709 63.776 24.6377 63.6902 24.7099L63.5102 24.8999C63.2923 25.1299 63.098 25.3811 62.9302 25.6499C62.3113 26.6258 61.7984 27.665 61.4002 28.7499C61.0002 29.8007 60.7087 30.8897 60.5302 31.9999C60.4208 32.6035 60.3972 33.2196 60.4602 33.8299C60.4602 33.9999 60.4602 34.1499 60.5402 34.3199C60.6202 34.4899 60.6602 34.6799 60.7302 34.8499C60.9019 35.2468 61.2058 35.5719 61.5902 35.7699C61.8161 35.8653 62.0611 35.9069 62.3058 35.8913C62.5506 35.8756 62.7883 35.8033 63.0002 35.6799C63.3063 35.5192 63.589 35.3174 63.8402 35.0799C64.2601 34.6595 64.6478 34.2082 65.0002 33.7299C65.6702 32.7999 66.2602 31.8399 66.8202 30.8899C67.3802 29.9399 68.0002 28.9999 68.4002 28.0499C68.4202 27.8099 67.4702 27.1099 67.2302 27.2799Z" fill="#242021"/>
<path d="M113.8 40.7799C113.7 40.8999 113.57 40.7299 113.42 40.3799C113.361 40.2129 113.331 40.0371 113.33 39.8599C113.374 39.757 113.424 39.6568 113.48 39.5599C113.48 39.5599 114.1 39.2299 114.3 39.1099C114.487 39.0062 114.69 38.9352 114.9 38.8999L116.16 38.5999C116.256 38.5847 116.354 38.5847 116.45 38.5999C116.787 38.64 117.128 38.6059 117.45 38.4999C117.51 38.4999 117.56 38.4999 117.61 38.4099C117.949 38.2533 118.317 38.1682 118.69 38.1599C118.99 38.2299 119.29 38.2499 119.59 38.2999C119.64 38.2999 119.68 38.2999 119.72 38.2999C119.76 38.2999 119.92 38.4199 120.01 38.4199C120.136 38.4004 120.264 38.4004 120.39 38.4199C120.46 38.4199 120.53 38.5299 120.6 38.5999C120.637 38.7137 120.637 38.8361 120.6 38.9499C120.6 39.0399 120.6 39.1599 120.6 39.2599C120.605 39.2964 120.605 39.3334 120.6 39.3699C120.397 39.6002 120.161 39.7991 119.9 39.9599L119.38 40.0999L118.8 40.2799C118.8 40.2799 118.68 40.2799 118.62 40.2799C118.56 40.2799 117.82 40.5399 117.78 40.5399C117.74 40.5399 117.46 40.6399 117.27 40.5399C117.27 40.5399 117.2 40.5399 117.17 40.5399C116.883 40.5953 116.592 40.6254 116.3 40.6299C116.15 40.6299 116.01 40.6899 115.86 40.7099C115.71 40.7299 115.8 40.7099 115.77 40.7099C115.737 40.6999 115.703 40.6999 115.67 40.7099C115.333 40.7538 114.998 40.8206 114.67 40.9099C114.59 40.9099 114.18 40.8399 114.09 40.9099C114 40.9799 113.83 40.7299 113.8 40.7799Z" fill="#231F20"/>
<path d="M104.25 25.2199C104.12 25.1599 104.25 25.0199 104.59 24.8199C104.739 24.7331 104.901 24.6723 105.07 24.6399C105.177 24.6627 105.28 24.6962 105.38 24.7399C105.576 24.975 105.756 25.2221 105.92 25.4799C106.034 25.6514 106.118 25.8407 106.17 26.0399C106.29 26.4299 106.41 26.8299 106.52 27.2199C106.54 27.3121 106.54 27.4077 106.52 27.4999C106.498 27.8156 106.542 28.1324 106.65 28.4299C106.65 28.4582 106.657 28.4861 106.671 28.5107C106.685 28.5353 106.706 28.5557 106.73 28.5699C106.883 28.8819 106.968 29.2227 106.98 29.5699C106.92 29.8599 106.9 30.1399 106.84 30.4399C106.84 30.4399 106.84 30.5199 106.84 30.5599C106.793 30.5851 106.755 30.6253 106.734 30.6742C106.712 30.7232 106.707 30.778 106.72 30.8299C106.716 30.9594 106.693 31.0875 106.65 31.2099C106.597 31.2796 106.533 31.3403 106.46 31.3899C106.4 31.4399 106.15 31.3899 106.13 31.3899C106.11 31.3899 105.94 31.3899 105.83 31.3899H105.73C105.533 31.1975 105.358 30.9827 105.21 30.7499C105.21 30.7499 105.21 30.5199 105.09 30.2899C105.043 30.1125 104.982 29.9387 104.91 29.7699C104.91 29.7199 104.91 29.6599 104.91 29.5999C104.91 29.5399 104.65 28.8699 104.64 28.8399C104.63 28.8099 104.54 28.5499 104.64 28.3699C104.647 28.3559 104.651 28.3405 104.651 28.3249C104.651 28.3093 104.647 28.2939 104.64 28.2799C104.574 28.0211 104.534 27.7565 104.52 27.4899C104.496 27.3577 104.463 27.2273 104.42 27.0999C104.42 27.0999 104.42 27.0499 104.42 27.0199C104.43 26.9873 104.43 26.9525 104.42 26.9199C104.358 26.6068 104.271 26.2992 104.16 25.9999C104.16 25.9399 104.16 25.5499 104.16 25.4799C104.16 25.4099 104.31 25.2499 104.25 25.2199Z" fill="#231F20"/>
<path d="M29.5603 17.54C29.6403 17.67 29.4503 17.74 29.1003 17.8C28.9444 17.8139 28.7874 17.7934 28.6403 17.74C28.5614 17.6609 28.491 17.5737 28.4303 17.48C28.4303 17.43 28.3303 16.66 28.3003 16.4C28.2651 16.1613 28.2651 15.9187 28.3003 15.68L28.5003 14.3C28.5156 14.2012 28.5495 14.1061 28.6003 14.02C28.7551 13.7087 28.8404 13.3675 28.8503 13.02C28.8616 12.9931 28.8674 12.9642 28.8674 12.935C28.8674 12.9058 28.8616 12.8769 28.8503 12.85C28.7964 12.5188 28.7964 12.1811 28.8503 11.85C28.9755 11.601 29.0632 11.3347 29.1103 11.06C29.1103 11.06 29.1103 10.99 29.1103 10.94C29.153 10.9088 29.1847 10.8649 29.2008 10.8146C29.217 10.7643 29.2168 10.7102 29.2003 10.66V10.29C29.2177 10.2072 29.2446 10.1267 29.2803 10.05C29.2803 9.96999 29.4703 9.90999 29.5003 9.91999C29.5303 9.92999 29.6403 9.85999 29.7003 9.81999C29.7232 9.81359 29.7474 9.81359 29.7703 9.81999C30.0958 10.0094 30.3895 10.249 30.6403 10.53C30.8555 11.0012 31.0197 11.4939 31.1303 12C31.1502 12.0754 31.1502 12.1546 31.1303 12.23C31.1303 12.23 31.2103 13.3 31.1903 13.33C31.1903 13.54 31.1903 13.75 31.0003 13.92C30.8103 14.09 31.0003 14 31.0003 14.04C30.9421 14.3857 30.8379 14.722 30.6903 15.04C30.6303 15.2 30.6003 15.37 30.5503 15.53C30.5003 15.69 30.5503 15.53 30.5503 15.6C30.5265 15.6345 30.5064 15.6713 30.4903 15.71C30.3626 16.0693 30.259 16.4368 30.1803 16.81C30.1803 16.89 29.9203 17.25 29.9203 17.35C29.9203 17.45 29.5303 17.49 29.5603 17.54Z" fill="#231F20"/>
<path d="M15.0601 27C15.2201 26.93 15.2601 27.16 15.2601 27.56C15.2475 27.7496 15.1928 27.9341 15.1001 28.1C15.0074 28.1799 14.9069 28.2503 14.8001 28.31C14.4204 28.3315 14.0398 28.3315 13.6601 28.31C13.3999 28.2902 13.1439 28.233 12.9001 28.14C12.4201 27.95 11.9001 27.78 11.4701 27.59C11.3655 27.5397 11.268 27.4758 11.1801 27.4C10.885 27.1544 10.5455 26.9677 10.1801 26.85C10.1201 26.85 10.0701 26.79 9.99006 26.85C9.58745 26.7597 9.20458 26.597 8.86006 26.37C8.61006 26.13 8.35006 25.94 8.09006 25.73C8.09006 25.73 8.00006 25.73 7.99006 25.62C7.98006 25.51 7.86006 25.41 7.78006 25.35C7.65357 25.2469 7.53948 25.1294 7.44006 25C7.39074 24.9165 7.34731 24.8296 7.31006 24.74C7.31006 24.66 7.36006 24.5 7.39006 24.48C7.42006 24.46 7.44006 24.34 7.46006 24.26C7.46453 24.2335 7.46453 24.2065 7.46006 24.18C7.81759 24.0735 8.18723 24.013 8.56006 24C8.56006 24 9.79006 24.31 9.93006 24.33C10.0701 24.35 10.0501 24.41 10.1101 24.46C10.1701 24.51 11.1101 24.71 11.1101 24.73C11.2901 24.82 11.4901 24.85 11.6001 25.08C11.6258 25.1105 11.661 25.1317 11.7001 25.14C12.007 25.2776 12.3015 25.4415 12.5801 25.63C12.7286 25.7101 12.8823 25.7802 13.0401 25.84C13.0702 25.8553 13.0947 25.8799 13.1101 25.91C13.1101 25.91 13.1701 25.97 13.2001 25.98C13.5474 26.161 13.9127 26.3051 14.2901 26.41C14.3801 26.41 14.7201 26.74 14.8301 26.75C14.9401 26.76 15.0001 27 15.0601 27Z" fill="#231F20"/>
<path d="M27.41 110.91C27.35 110.73 27.55 110.63 27.91 110.61C28.0716 110.615 28.2294 110.66 28.37 110.74C28.44 110.84 28.51 110.94 28.56 111.03C28.5846 111.367 28.6348 111.701 28.71 112.03C28.76 112.27 28.79 112.49 28.82 112.72C28.8772 113.179 29.0019 113.627 29.19 114.05C29.2259 114.147 29.2527 114.248 29.27 114.35C29.3268 114.726 29.4978 115.075 29.76 115.35C29.76 115.35 29.83 115.45 29.91 115.46C30.2219 115.698 30.5069 115.97 30.76 116.27C30.9424 116.545 31.1573 116.797 31.4 117.02C31.4 117.02 31.49 117.02 31.5 117.13C31.51 117.24 31.64 117.32 31.73 117.37C31.82 117.42 31.98 117.51 32.11 117.6C32.1703 117.671 32.2239 117.748 32.27 117.83C32.27 117.9 32.27 118.08 32.2 118.09C32.13 118.1 32.15 118.23 32.13 118.31C32.1357 118.336 32.1357 118.363 32.13 118.39C31.7394 118.456 31.3406 118.456 30.95 118.39C30.95 118.39 30.58 118.26 30.21 118.09C29.9309 117.957 29.6604 117.807 29.4 117.64C29.3252 117.588 29.2635 117.52 29.22 117.44C28.8566 117.179 28.5215 116.881 28.22 116.55C28.038 116.359 27.9163 116.119 27.87 115.86C27.8651 115.811 27.8439 115.765 27.81 115.73C27.5905 115.353 27.4287 114.945 27.33 114.52C27.26 114.29 27.21 114.1 27.14 113.89C27.135 113.85 27.135 113.81 27.14 113.77C27.145 113.717 27.145 113.663 27.14 113.61C27.0582 113.104 27.0114 112.592 27 112.08C27.0457 111.807 27.1057 111.536 27.18 111.27C27.16 111.18 27.43 111 27.41 110.91Z" fill="#231F20"/>
</svg>
