<svg width="128" height="128" viewBox="0 0 128 128" fill="none" xmlns="http://www.w3.org/2000/svg">
<path d="M23.74 83.66C23.6932 83.6797 23.652 83.7106 23.62 83.75L23.67 83.68C23.763 83.5635 23.8466 83.4397 23.92 83.31C23.9735 83.2112 24.0171 83.1074 24.05 83C24.1055 82.895 24.1363 82.7787 24.14 82.66V82.57C24.01 85.15 24.14 83.29 24.07 83.86H23.22C22.5871 83.8995 21.9584 83.9897 21.34 84.13C20.03 84.4 18.67 84.84 17.18 85.2C16.58 85.33 15.94 85.59 15.06 85.79C14.5619 85.9044 14.0502 85.9481 13.54 85.92C12.8388 85.8808 12.1705 85.61 11.64 85.15C11.52 85.03 11.39 84.9 11.28 84.77C11.1333 84.5675 11.0092 84.3495 10.91 84.12C10.8028 83.8293 10.7584 83.5191 10.78 83.21C10.7983 82.928 10.8731 82.6525 11 82.4C11.3111 81.8425 11.7672 81.3794 12.32 81.06C13.0198 80.6641 13.7525 80.3295 14.51 80.06L16.33 79.34C16.6154 79.2496 16.8711 79.0838 17.07 78.86C17.1098 78.8065 17.1312 78.7416 17.1312 78.675C17.1312 78.6083 17.1098 78.5435 17.07 78.49C16.9858 78.4206 16.8789 78.385 16.77 78.39C16.2425 78.4563 15.7209 78.5633 15.21 78.71L14.64 78.82C14.1342 78.9032 13.6226 78.9467 13.11 78.95C12.4994 78.962 11.8931 78.8462 11.33 78.61C10.6797 78.3247 10.1518 77.818 9.83998 77.18C9.63181 76.7842 9.5581 76.3314 9.62998 75.89C9.71724 75.4671 9.9298 75.0803 10.24 74.78C10.6703 74.3524 11.1798 74.0127 11.74 73.78C12.6506 73.4444 13.587 73.1835 14.54 73L19.39 72L20 71.8L20.34 71.7C20.5236 71.6363 20.701 71.556 20.87 71.46C21.03 71.38 21.2 71.19 21.09 71C21.0582 70.9092 21.0081 70.8259 20.9427 70.7554C20.8773 70.6849 20.7981 70.6286 20.71 70.59C20.4882 70.4803 20.2469 70.4157 20 70.4C19.5285 70.3479 19.0541 70.3278 18.58 70.34C17.5564 70.3706 16.535 70.4541 15.52 70.59C13.4699 70.7367 11.432 71.0207 9.41998 71.44C8.17998 71.65 8.16998 71.25 9.08998 70.44C10.6696 69.2434 12.5712 68.5469 14.55 68.44C15.55 68.35 16.68 68.2 17.83 68.16C18.4161 68.1252 19.0038 68.1252 19.59 68.16H20.05H20.31C20.4413 68.1702 20.5717 68.1903 20.7 68.22C21.1961 68.3222 21.6791 68.4799 22.14 68.69C22.5394 68.8448 22.8978 69.0895 23.1874 69.4051C23.477 69.7207 23.69 70.0988 23.81 70.51L23.95 71.11C23.95 71.31 23.95 71.52 23.88 71.72C23.7663 72.0958 23.5639 72.4387 23.29 72.72C22.5366 73.3223 21.6742 73.7739 20.75 74.05C20.2 74.23 19.66 74.38 19.12 74.52C16.99 75 14.84 75.34 13.06 75.95C12.71 76.0554 12.3742 76.2032 12.06 76.39H12.01C11.9344 76.328 11.8502 76.2775 11.76 76.24L11.64 76.18C11.69 76.18 11.64 76.18 11.74 76.18C11.84 76.18 12.17 76 12.12 76.08C12.1512 76.1597 12.1996 76.2316 12.2619 76.2903C12.3241 76.3491 12.3986 76.3934 12.48 76.42C12.832 76.5309 13.2023 76.5717 13.57 76.54H13.98C14.1546 76.5227 14.3282 76.496 14.5 76.46C15.0074 76.3319 15.508 76.1783 16 76C17.11 75.69 18.27 75.32 19.22 75.11C19.9322 74.9476 20.6595 74.8604 21.39 74.85C21.8686 74.8455 22.3459 74.9026 22.81 75.02C23.0951 75.0905 23.3611 75.2229 23.5893 75.4078C23.8174 75.5928 24.002 75.8257 24.13 76.09C24.2665 76.4045 24.3149 76.7501 24.27 77.09C24.222 77.3578 24.1199 77.613 23.97 77.84C23.221 78.9065 22.1937 79.7471 21 80.27C20.07 80.71 19 81.16 17.87 81.6L16.19 82.24L15.14 82.66C14.5694 82.8738 14.0283 83.1594 13.53 83.51C13.53 83.51 13.44 83.57 13.44 83.58C13.44 83.59 13.44 83.65 13.28 83.51C13.2083 83.4637 13.131 83.4267 13.05 83.4C12.94 83.4 12.99 83.4 12.94 83.4C12.89 83.4 12.85 83.4 12.87 83.4H12.95C13.59 83 13.37 83.23 13.5 83.24C13.9663 83.3284 14.4481 83.2834 14.89 83.11L15.89 82.81L17 82.48C18.37 82.13 19.79 81.67 21.31 81.4C22.2968 81.2017 23.3055 81.1345 24.31 81.2C24.748 81.2639 25.1525 81.4715 25.46 81.79C25.7265 82.044 25.9376 82.3504 26.08 82.69C26.2337 83.0777 26.2685 83.5024 26.18 83.91C26.0861 84.2831 25.9004 84.6268 25.64 84.91C24.8348 85.6461 23.8414 86.1445 22.77 86.35C22.3 86.49 21.83 86.56 21.37 86.65C20.962 86.7133 20.558 86.8002 20.16 86.91C18.9646 87.2312 17.832 87.7518 16.81 88.45C16.3545 88.7545 15.9665 89.1493 15.67 89.61C15.5613 89.8069 15.4837 90.0194 15.44 90.24C15.4274 90.3228 15.4274 90.4071 15.44 90.49H15.36C15.23 90.55 15.22 90.55 15.18 90.59C15.14 90.63 15.18 90.59 15.24 90.49C15.2655 90.4459 15.2856 90.3989 15.3 90.35C15.3761 90.3625 15.4538 90.3625 15.53 90.35C15.7988 90.3286 16.064 90.2749 16.32 90.19C16.9312 90.0075 17.5292 89.7837 18.11 89.52C19.34 89 20.48 88.37 21.88 87.86C22.9044 87.5357 23.946 87.2686 25 87.06C25.5677 86.9479 26.1423 86.8744 26.72 86.84C27.0552 86.8298 27.3906 86.8566 27.72 86.92C28.2212 87.0009 28.678 87.2558 29.01 87.64C29.1328 87.793 29.2464 87.9533 29.35 88.12C29.4471 88.3036 29.5307 88.4941 29.6 88.69C29.75 89.1719 29.75 89.6881 29.6 90.17C29.2923 90.8892 28.7633 91.4917 28.09 91.89C27.1373 92.4685 26.133 92.9572 25.09 93.35L22.62 94.35C19.62 95.66 19.07 96.01 18.01 96.02C17.77 96.02 17.52 96.1 17.31 96.09C17.1 96.08 16.87 95.69 17.18 94.98C17.6959 93.9935 18.4791 93.1722 19.44 92.61C21.1199 91.6508 22.864 90.8088 24.66 90.09C25.3706 89.8097 26.0427 89.44 26.66 88.99C26.72 88.99 26.71 88.93 26.74 88.9C26.83 88.9788 26.927 89.0491 27.03 89.11C27.28 89.32 27.58 89.34 27.41 89.32C27.3044 89.3256 27.2001 89.3458 27.1 89.38C27.1 89.38 26.89 89.38 26.8 89.47C26.7293 89.4947 26.6621 89.5283 26.6 89.57C26.588 89.5639 26.5775 89.5554 26.5689 89.5451C26.5603 89.5348 26.5539 89.5228 26.55 89.51C28.71 87.96 27.15 89.08 27.63 88.73C27.5913 88.7932 27.5478 88.8534 27.5 88.91C27.4359 89.0046 27.3886 89.1094 27.36 89.22C27.36 89.3 27.22 89.52 27.19 89.67C27.16 89.82 27.19 89.84 27.19 89.85H27C26.8768 89.8409 26.7531 89.8409 26.63 89.85C26.2496 89.8781 25.8718 89.935 25.5 90.02C24.6335 90.2024 23.7787 90.4361 22.94 90.72C22.33 90.93 21.4 91.4 20.51 91.79C19.5536 92.2427 18.572 92.64 17.57 92.98C17.107 93.1328 16.632 93.2465 16.15 93.32C15.8192 93.3705 15.4841 93.3872 15.15 93.37C14.6104 93.3793 14.0772 93.2521 13.6 93C13.0015 92.5944 12.5741 91.9817 12.4 91.28C12.3101 90.8595 12.2898 90.4271 12.34 90C12.4434 89.3572 12.6673 88.7397 13 88.18C13.5332 87.2864 14.2571 86.5215 15.12 85.94C15.8471 85.4427 16.6248 85.0237 17.44 84.69C18.2102 84.3768 19.0113 84.1455 19.83 84C20.83 83.82 21.36 83.81 21.98 83.69C22.488 83.6123 22.9828 83.4643 23.45 83.25L23.55 83.19C23.55 83.19 23.91 83.49 24.06 83.52C24.0961 83.5289 24.1339 83.5289 24.17 83.52H24.11C24.0509 83.5052 23.9891 83.5052 23.93 83.52C23.8548 83.541 23.7837 83.5748 23.72 83.62L23.74 83.66Z" fill="#231F20"/>
<path d="M115.1 26.47C115.173 26.4198 115.234 26.3551 115.28 26.28C115.292 26.2624 115.3 26.2422 115.302 26.221C115.304 26.1999 115.301 26.1785 115.293 26.1588C115.285 26.1391 115.273 26.1216 115.257 26.1078C115.24 26.0941 115.221 26.0845 115.2 26.08C115.11 26.0454 115.01 26.0454 114.92 26.08L114.79 26.13L114.45 26.33C114.198 26.497 113.954 26.6772 113.72 26.87C112.718 27.7164 111.806 28.6649 111 29.7C110.121 30.9134 109.14 32.0508 108.07 33.1C107.584 33.5762 107.019 33.9653 106.4 34.25C106.172 34.3323 105.938 34.3959 105.7 34.44C105.396 34.4892 105.085 34.4892 104.78 34.44C104.465 34.3366 104.17 34.1774 103.91 33.97C103.598 33.6995 103.358 33.3564 103.21 32.9711C103.061 32.5857 103.01 32.1699 103.06 31.76C103.108 31.3649 103.208 30.978 103.36 30.61C103.635 30.0389 103.97 29.499 104.36 29C105.076 28.1058 105.848 27.2574 106.67 26.46C107.06 26.06 107.42 25.74 107.75 25.37C108.08 25 108.46 24.58 108.75 24.18C109.423 23.416 110.035 22.6001 110.58 21.74C110.823 21.3643 111.021 20.9616 111.17 20.54C111.213 20.4001 111.239 20.2559 111.25 20.11C111.25 20 111.25 20.02 111.25 20H111.66C111.66 20 111.66 20 111.66 20.08C111.65 20.1329 111.65 20.1872 111.66 20.24H111.59H111.45C111.182 20.3576 110.93 20.5088 110.7 20.69C110.151 21.1154 109.636 21.5835 109.16 22.09C108.16 23.09 107.16 24.24 106.16 25.36L104.55 27.22C103.928 27.9453 103.26 28.6301 102.55 29.27C102.148 29.6647 101.672 29.9772 101.15 30.19C100.92 30.2768 100.676 30.3242 100.43 30.33C100.17 30.2929 99.915 30.2258 99.6703 30.13C99.1754 29.948 98.7633 29.5927 98.5103 29.13C98.2889 28.656 98.2158 28.1263 98.3003 27.61C98.4207 26.8773 98.657 26.1685 99.0003 25.51C99.2903 24.92 99.5203 24.51 99.8103 24.03C100.36 23.11 100.95 22.24 101.53 21.39C102.11 20.54 102.69 19.69 103.22 18.86C103.47 18.44 103.74 18.03 103.96 17.63C104.166 17.2865 104.324 16.9164 104.43 16.53C104.56 16.23 104.48 16.05 104.65 15.91C104.82 15.77 105.27 15.78 105.65 16.48C105.956 17.3681 105.977 18.3295 105.71 19.23C105.408 20.3352 104.925 21.3827 104.28 22.33L102.55 24.94L101.76 26.2C101.46 26.72 101.45 26.75 101.45 26.74C101.45 26.74 101.45 26.74 101.59 26.62C102.97 25.19 104.33 23.53 105.78 21.94C106.52 21.1115 107.305 20.3237 108.13 19.58C108.58 19.1722 109.061 18.801 109.57 18.47C109.884 18.2641 110.219 18.0931 110.57 17.96C111.065 17.7609 111.607 17.7088 112.13 17.81C112.332 17.8736 112.529 17.9504 112.72 18.04L112.91 18.14L113.06 18.32C113.46 18.8134 113.666 19.4356 113.64 20.07C113.622 20.525 113.531 20.9741 113.37 21.4C113.108 22.081 112.773 22.7314 112.37 23.34C111.635 24.4619 110.826 25.5342 109.95 26.55C109.55 27.03 109.02 27.61 108.59 28.04C108.16 28.47 107.7 28.94 107.29 29.4C106.888 29.8322 106.514 30.2898 106.17 30.77C105.909 31.1134 105.715 31.5038 105.6 31.92C105.6 31.97 105.6 31.97 105.6 31.99C105.6 32.01 105.75 31.84 105.6 31.99C105.6 31.99 105.48 32.16 105.49 32.14C105.501 32.057 105.501 31.973 105.49 31.89C105.97 31.6618 106.402 31.3426 106.76 30.95C107.712 29.9298 108.606 28.8582 109.44 27.74C110.39 26.5479 111.485 25.4795 112.7 24.56C113.019 24.3188 113.353 24.0983 113.7 23.9C114.168 23.6278 114.674 23.4257 115.2 23.3C115.687 23.1692 116.196 23.1398 116.695 23.2138C117.194 23.2878 117.672 23.4635 118.1 23.73C118.342 23.8968 118.54 24.1193 118.677 24.3786C118.815 24.6379 118.888 24.9265 118.89 25.22C118.881 25.823 118.705 26.4117 118.38 26.92C118.21 27.2008 118.023 27.4712 117.82 27.73L117.51 28.13L117.24 28.42C116.9 28.81 116.6 29.11 116.24 29.42C114.93 30.68 113.56 31.82 112.24 32.97C111.248 33.7389 110.34 34.6104 109.53 35.57C109.372 35.7935 109.235 36.0312 109.12 36.28C109.079 36.3669 109.045 36.4572 109.02 36.55C108.96 36.61 109.15 36.55 108.83 36.55C108.74 36.55 108.72 36.55 108.65 36.55C108.58 36.55 108.54 36.61 108.56 36.55C108.604 36.5101 108.636 36.4579 108.65 36.4C108.65 36.4 108.65 36.31 108.71 36.17C108.77 36.03 108.71 36.17 108.71 36.12C108.797 36.127 108.884 36.127 108.97 36.12C109.102 36.09 109.232 36.0533 109.36 36.01L109.71 35.89C109.939 35.7506 110.156 35.5934 110.36 35.42L111.11 34.79L112.62 33.48C113.62 32.6 114.62 31.73 115.76 30.91C116.195 30.5793 116.649 30.2754 117.12 30C117.637 29.6631 118.209 29.4194 118.81 29.28C119.283 29.1742 119.778 29.2567 120.19 29.51C120.594 29.7942 120.87 30.2248 120.96 30.71C121.008 30.8794 121.035 31.0541 121.04 31.23C121.051 31.3231 121.051 31.417 121.04 31.51C121.051 31.6432 121.051 31.7769 121.04 31.91C120.937 32.2624 120.785 32.5989 120.59 32.91C119.993 33.7997 119.324 34.6392 118.59 35.42C117.88 36.18 117.16 36.91 116.45 37.64L114.62 39.56C113.855 40.3978 113.047 41.1955 112.2 41.95C111.812 42.3163 111.347 42.5928 110.84 42.76C110.651 42.8522 110.473 42.9663 110.31 43.1C110.18 43.18 110.08 43.17 109.98 42.99C109.859 42.7098 109.825 42.4001 109.88 42.1C110.086 41.0576 110.558 40.0861 111.25 39.28C112.44 37.78 113.74 36.44 115.02 35.09L116.92 33.09C117.234 32.7634 117.524 32.43 117.79 32.09C118.021 31.8237 118.225 31.5357 118.4 31.23V31.18L118.55 31.25C118.73 31.34 119.04 31.38 119.15 31.43L119.37 31.48H118.37C118.365 31.4368 118.365 31.3932 118.37 31.35C118.52 31.313 118.667 31.2663 118.81 31.21C119.27 31.13 119.49 30.76 119.38 30.95C119.354 31.0077 119.334 31.068 119.32 31.13C119.32 31.2 119.32 31.27 119.32 31.43C119.3 31.5626 119.3 31.6975 119.32 31.83C119.32 31.83 119.32 32.07 119.32 32.04C119.057 32.1313 118.806 32.2521 118.57 32.4C118.25 32.59 117.89 32.85 117.57 33.1C116.16 34.1 114.76 35.42 113.3 36.71L112.47 37.43L112.01 37.81L111.75 38.01L111.61 38.12L111.39 38.26C111.117 38.4306 110.825 38.5682 110.52 38.67C110.285 38.754 110.044 38.8242 109.8 38.88C109.473 38.9604 109.137 39.004 108.8 39.01C108.527 39.0016 108.256 38.9648 107.99 38.9C107.787 38.8363 107.593 38.7491 107.41 38.64C107.199 38.5276 107.012 38.3747 106.86 38.19C106.551 37.8405 106.346 37.4107 106.27 36.95C106.256 36.8004 106.256 36.6497 106.27 36.5C106.258 36.3703 106.258 36.2397 106.27 36.11C106.316 35.7652 106.411 35.4286 106.55 35.11C106.744 34.656 106.986 34.2236 107.27 33.82C107.533 33.4364 107.828 33.0752 108.15 32.74C108.45 32.43 108.73 32.17 109.01 31.91C110.14 30.91 111.23 30 112.29 29.07C112.82 28.61 113.29 28.14 113.83 27.67L114.55 26.97L114.89 26.61L115.15 26.32L115.1 26.47Z" fill="#231F20"/>
<path d="M54.7702 57.21C56.0002 54.63 57.3202 52.07 58.7702 49.58C59.1502 48.94 59.4502 48.38 59.9202 47.68C60.392 47.0126 60.9502 46.4107 61.5802 45.89C62.7317 44.9346 63.9667 44.0845 65.2702 43.35C67.1102 42.28 68.9602 41.3 70.8502 40.42C74.1902 38.86 77.5602 37.42 80.9002 36C82.5602 35.27 84.2102 34.52 85.8202 33.72C87.4253 32.9464 88.9609 32.0364 90.4102 31C92.831 28.9471 95.0388 26.6555 97.0002 24.16C98.3002 22.57 99.5402 20.93 100.81 19.29C101.46 18.48 102.08 17.65 102.81 16.88C103.54 16.11 104.22 15.35 104.97 14.62C105.9 13.71 105.97 14 105.49 15.04C105.26 15.55 104.92 16.27 104.49 17.12C104.27 17.54 104.05 18 103.77 18.46C103.49 18.92 103.16 19.39 102.77 19.87C100.323 23.3696 97.6223 26.6852 94.6902 29.79C93.9302 30.56 93.1402 31.3 92.3202 32.02C91.4652 32.7721 90.5411 33.4417 89.5602 34.02C87.687 35.1114 85.7502 36.0898 83.7602 36.95C79.0902 39.05 74.2502 41.18 69.6402 43.47C67.1278 44.622 64.7749 46.0943 62.6402 47.85C62.1678 48.2712 61.7601 48.7598 61.4302 49.3L60.4002 51.09C59.6902 52.31 59.0202 53.56 58.4002 54.82C56.7902 57.93 55.3402 61.13 53.9002 64.33C52.7907 66.715 51.8777 69.1865 51.1702 71.72C50.8602 72.98 50.4702 74.34 51.0902 74.99C51.7102 75.64 52.9302 75.69 54.0202 75.14C55.7358 74.1867 57.2585 72.9217 58.5102 71.41C59.822 69.9338 60.9719 68.3212 61.9402 66.6C62.3702 65.85 62.7402 65.08 63.1102 64.29C63.7902 62.83 64.1102 61.83 64.4502 61.15C64.671 60.6446 64.9867 60.1863 65.3802 59.8C65.5096 59.659 65.65 59.5286 65.8002 59.41C66.0202 59.28 66.1302 59.57 66.1602 60.22C66.1526 61.196 65.9906 62.1646 65.6802 63.09C64.463 66.8012 62.4687 70.2103 59.8302 73.09C58.4591 74.6635 56.8247 75.9865 55.0002 77C54.4555 77.2741 53.8772 77.4758 53.2802 77.6C52.9517 77.6698 52.6159 77.7 52.2802 77.69H51.7302C51.5407 77.6473 51.3537 77.5938 51.1702 77.53C50.8063 77.4184 50.4669 77.2385 50.1702 77C49.8316 76.7786 49.5395 76.4933 49.3102 76.16C48.8668 75.5033 48.646 74.7216 48.6802 73.93C48.694 73.0775 48.8013 72.2291 49.0002 71.4C49.1802 70.67 49.3802 69.95 49.6102 69.24C50.0602 67.83 50.6102 66.45 51.1502 65.1C52.2902 62.41 53.4602 59.83 54.6802 57.19L54.7702 57.21Z" fill="#231F20"/>
<path d="M99.36 56.3999C101.03 53.9499 102.78 51.5699 104.56 49.2299C105.21 48.3699 105.81 47.4799 106.47 46.6399C107.63 45.1599 108.8 43.6399 110.04 42.2099C111.28 40.7799 112.54 39.3599 113.83 37.9699C114.97 36.7399 116.12 35.4899 117.28 34.2799C118.71 32.6073 120.439 31.2168 122.38 30.1799C123.03 29.8799 123.08 30.2699 122.8 30.8899C122.391 31.7543 121.832 32.5397 121.15 33.2099C118.1 36.0899 115.26 39.3499 112.33 42.5699C110.56 44.4699 109.03 46.7099 107.4 48.8499C105.62 51.1899 103.86 53.5499 102.19 55.9599C101.19 57.4399 100.19 58.9599 99.19 60.4799C97.76 62.8099 96.3 65.1499 95.04 67.5599C94.04 69.4299 93.3 71.3499 92.53 73.2699C92.37 73.6899 92.22 74.1099 92.06 74.5399C91.45 76.1199 91.12 76.5399 90.53 76.7599C90.4106 76.8164 90.2869 76.8632 90.16 76.8999C89.84 76.9799 89.64 76.1599 89.94 74.8999C90.4136 72.992 91.0596 71.131 91.87 69.3399C92.69 67.5299 93.63 65.7499 94.62 64.0099C96.1 61.4299 97.62 58.8899 99.3 56.3799L99.36 56.3999Z" fill="#231F20"/>
<path d="M33.7901 65.73C31.4101 66.25 29.0268 66.7467 26.6401 67.22C25.7601 67.39 24.9001 67.61 24.0301 67.77C20.9501 68.32 17.8601 68.77 14.7701 69.3C13.4001 69.51 12.0301 69.76 10.6701 69.99C9.80013 70.15 8.92013 70.28 8.04013 70.4C7.14749 70.4499 6.25276 70.4499 5.36013 70.4C4.81013 70.4 4.87013 70.22 5.31013 69.97C5.52013 69.83 5.85013 69.73 6.22013 69.48L6.82013 69.11C6.92013 69.04 7.04013 69 7.15013 68.91L7.51013 68.83C11.0201 68.19 14.5601 67.67 18.1401 67.15C20.2901 66.86 22.4801 66.31 24.6401 65.85C27.0201 65.3367 29.3935 64.7967 31.7601 64.23L36.1301 63.14C38.3301 62.57 40.5501 62.03 42.7401 61.43C44.4401 60.97 46.0801 60.43 47.8001 59.98C48.1801 59.88 48.5501 59.77 48.9501 59.7C50.4101 59.43 51.1101 59.7 51.3301 60.34C51.3909 60.4543 51.425 60.5807 51.4301 60.71C51.4301 60.87 51.2501 60.94 51.0501 61.12C50.7607 61.3459 50.4148 61.4877 50.0501 61.53C48.6601 61.85 47.1401 62.33 45.6101 62.75L40.9401 64C38.5901 64.62 36.1901 65.16 33.8001 65.74L33.7901 65.73Z" fill="#231F20"/>
<path d="M92.8303 86.45C92.8303 86.34 92.9003 86.21 92.9403 86.09C92.9803 85.97 92.9403 85.79 92.9403 85.78C92.9403 85.77 92.9403 85.78 92.8703 85.54C92.7631 85.3198 92.6428 85.1061 92.5103 84.9C92.2303 84.46 91.9003 84 91.5103 83.56C90.8203 82.65 90.0703 81.77 89.3003 80.9C88.5303 80.03 87.9403 79.48 87.3003 78.75C85.0003 76.18 82.5703 73.69 80.0003 71.27C78.8703 70.17 77.7503 69.09 76.5903 68.11C75.113 66.9016 73.545 65.8084 71.9003 64.84C71.4003 64.5 71.4903 64.33 72.1203 64.16C72.6063 64.023 73.1152 63.987 73.6157 64.054C74.1161 64.1211 74.5975 64.2899 75.0303 64.55C76.8468 65.6378 78.5256 66.9405 80.0303 68.43L82.2303 70.5C82.9903 71.2 83.7003 71.94 84.4003 72.7C86.0803 74.51 87.9803 76.22 89.7103 78.06C90.7103 79.06 91.5903 80.06 92.4903 81.17C92.9403 81.71 93.3803 82.26 93.8003 82.83C94.265 83.4272 94.6671 84.0706 95.0003 84.75C95.1419 85.0646 95.2168 85.4051 95.2203 85.75C95.1795 86.6143 94.9465 87.4586 94.5382 88.2215C94.13 88.9843 93.5568 89.6466 92.8603 90.16C92.314 90.6006 91.7163 90.9733 91.0803 91.27C90.4273 91.6042 89.7192 91.8176 88.9903 91.9C88.605 91.945 88.2157 91.945 87.8303 91.9C87.491 91.8173 87.157 91.7137 86.8303 91.59C86.1846 91.32 85.5681 90.9849 84.9903 90.59C84.124 90.0429 83.2955 89.4382 82.5103 88.78C81.7324 88.1529 80.9881 87.4853 80.2803 86.78C79.9803 86.46 79.6803 86.15 79.4003 85.78C78.3103 84.57 78.3203 83.89 78.4003 83.38C78.408 83.2616 78.4282 83.1443 78.4603 83.03C78.4603 82.88 78.6903 82.89 79.0003 83.03C79.4568 83.1839 79.8856 83.4101 80.2703 83.7L82.2703 85.35C82.9303 85.92 83.5803 86.5 84.2703 87.03C84.9603 87.56 85.6103 88.08 86.2703 88.51C86.8511 88.9252 87.5013 89.2333 88.1903 89.42C88.3003 89.47 88.3803 89.42 88.4803 89.42C88.5803 89.42 88.6703 89.42 88.7403 89.42C88.8166 89.4097 88.894 89.4097 88.9703 89.42C89.0891 89.3947 89.2061 89.3612 89.3203 89.32C89.8426 89.1501 90.3428 88.9184 90.8103 88.63C91.7124 88.1562 92.42 87.3813 92.8103 86.44L92.8303 86.45Z" fill="#231F20"/>
<path d="M77.7999 93.53C78.7211 94.2418 79.7292 94.8333 80.7999 95.29C81.1681 95.415 81.5461 95.5087 81.9299 95.57C82.4983 95.7301 83.1052 95.6804 83.6399 95.43C84.3366 95.0597 85.0051 94.6385 85.6399 94.17C86.1876 93.7628 86.6727 93.2776 87.0799 92.73C87.5454 92.0303 87.9727 91.3059 88.3599 90.56C88.4899 90.33 88.8199 90.42 89.1099 90.76C89.2883 90.9732 89.4117 91.227 89.4692 91.4989C89.5267 91.7709 89.5167 92.0528 89.4399 92.32C89.0463 93.3359 88.4314 94.2513 87.6399 95C86.913 95.7195 86.08 96.3232 85.1699 96.79C84.5555 97.1809 83.8793 97.4649 83.1699 97.63C82.477 97.7709 81.7629 97.7709 81.0699 97.63C79.7389 97.2962 78.472 96.7455 77.3199 96C76.6199 95.57 75.9599 95.1 75.3199 94.62C74.3199 93.89 73.4199 93.08 72.4899 92.31C71.7699 91.71 70.9899 91.18 70.2699 90.55C70.1006 90.4247 69.9402 90.2877 69.7899 90.14C69.2399 89.57 69.2199 89.24 69.6599 88.71C69.7599 88.59 69.8599 88.46 69.9699 88.35C70.1425 88.1783 70.3718 88.0754 70.6148 88.0607C70.8579 88.0459 71.0979 88.1204 71.2899 88.27C72.5985 89.1862 73.8445 90.1884 75.0199 91.27C75.9167 92.0758 76.8582 92.8303 77.8399 93.53H77.7999Z" fill="#231F20"/>
<path d="M69.5201 99.42C70.4902 100.17 71.5359 100.817 72.6401 101.35C73.0212 101.505 73.412 101.636 73.8101 101.74C74.1084 101.833 74.4177 101.887 74.7301 101.9C74.8498 101.911 74.9703 101.911 75.0901 101.9C75.2401 101.9 75.4501 101.76 75.6201 101.7C76.3574 101.425 77.059 101.062 77.7101 100.62C78.2656 100.225 78.7465 99.7337 79.1301 99.17C79.5651 98.4528 79.9237 97.692 80.2001 96.9C80.2801 96.69 80.6801 96.66 81.0701 96.97C81.3059 97.1619 81.4813 97.4178 81.5753 97.7069C81.6693 97.996 81.6779 98.3061 81.6001 98.6C81.2519 99.7045 80.6046 100.691 79.7301 101.45C78.934 102.184 78.0083 102.764 77.0001 103.16L76.1201 103.52L75.8901 103.62L75.5801 103.73C75.3701 103.8 75.1701 103.81 74.9601 103.86C74.2347 103.918 73.5049 103.836 72.8101 103.62C71.4866 103.159 70.2369 102.509 69.1001 101.69C68.4101 101.23 67.7401 100.69 67.1001 100.22C66.1001 99.45 65.1901 98.6 64.2501 97.79C63.5301 97.15 62.7401 96.61 62.0501 95.91C61.8901 95.76 61.7301 95.61 61.5901 95.45C61.0701 94.82 61.0401 94.45 61.3801 94.06C61.452 93.957 61.5323 93.86 61.6201 93.77C61.9301 93.51 62.3601 93.58 62.7801 93.9C64.0701 94.83 65.3101 95.96 66.6101 97.05C67.6101 97.86 68.5501 98.67 69.6101 99.38L69.5201 99.42Z" fill="#231F20"/>
<path d="M53.1304 97.11C54.3904 98.26 55.6704 99.41 57.0204 100.45C57.5004 100.85 58.0204 101.15 58.5404 101.53C59.4057 102.172 60.3035 102.77 61.2304 103.32C62.1389 103.837 63.1198 104.214 64.1404 104.44C65.0399 104.661 65.9739 104.705 66.8904 104.57C67.9638 104.374 68.9242 103.782 69.5804 102.91C69.8104 102.64 70.1003 102.79 70.2403 103.27C70.3273 103.632 70.3115 104.011 70.1949 104.364C70.0783 104.717 69.8655 105.031 69.5804 105.27C68.9502 105.783 68.2001 106.127 67.4004 106.27C66.6634 106.418 65.9089 106.459 65.1604 106.39C64.4611 106.337 63.7682 106.22 63.0904 106.04C62.7485 105.958 62.4141 105.847 62.0904 105.71C61.7422 105.587 61.4072 105.43 61.0904 105.24C59.6388 104.461 58.2331 103.6 56.8804 102.66C55.4304 101.66 54.0604 100.49 52.7304 99.33C51.9004 98.62 51.1104 97.87 50.3104 97.14C49.1104 96.01 47.9504 94.83 46.8104 93.66C45.9104 92.75 44.9904 91.9 44.1204 90.95C43.9304 90.73 43.7404 90.53 43.5604 90.3C42.9004 89.45 42.8704 89.01 43.2104 88.59C43.2798 88.4819 43.3602 88.3814 43.4504 88.29C43.7604 88.02 44.2704 88.21 44.7104 88.73C46.1804 90.25 47.7803 91.88 49.4203 93.49C50.6403 94.69 51.8903 95.88 53.1703 97.03L53.1304 97.11Z" fill="#231F20"/>
<path d="M27.0801 92.1L31.6301 90.52C32.1901 90.33 32.7202 90.08 33.2902 89.9C35.2902 89.25 37.2902 88.71 39.2902 88.23C40.2002 88.03 41.1101 87.78 42.0301 87.6C42.6346 87.4608 43.2505 87.3771 43.8701 87.35C44.5312 87.3561 45.183 87.5063 45.7801 87.79C46.1601 87.99 45.9501 88.26 45.5702 88.55C45.1409 88.9066 44.6539 89.1873 44.1302 89.38C42.0802 89.64 39.8002 90.22 37.4902 90.72C36.1012 91.1001 34.7355 91.5609 33.4002 92.1L28.8502 93.71L26.0402 94.71L21.7802 96.25C20.6802 96.66 19.6301 97.18 18.4801 97.54C18.2246 97.6231 17.9641 97.6899 17.7002 97.74C16.7002 97.92 16.2602 97.74 16.0802 97.22C16.0269 97.1092 15.9898 96.9913 15.9702 96.87C15.9626 96.773 15.9777 96.6755 16.0141 96.5853C16.0505 96.4951 16.1074 96.4145 16.1802 96.35C16.3727 96.1859 16.5927 96.0572 16.8302 95.97C18.5402 95.19 20.5402 94.5 22.5402 93.72L27.0501 92.04L27.0801 92.1Z" fill="#231F20"/>
<path d="M25.1302 83.52C24.4581 82.1272 23.8899 80.6866 23.4302 79.21C23.2502 78.68 23.0502 78.15 22.9202 77.6C22.4481 75.6373 22.2861 73.6128 22.4402 71.6C22.5002 70.72 22.6102 69.83 22.7502 68.96C22.8433 68.3945 22.977 67.8364 23.1502 67.29C23.3457 66.7451 23.6332 66.2377 24.0002 65.79C24.2202 65.5 24.5602 65.79 24.8402 66.2C25.1599 66.6808 25.3111 67.2541 25.2702 67.83C24.7115 69.7605 24.4287 71.7603 24.4302 73.77C24.4692 75.0608 24.7018 76.3383 25.1202 77.56C25.5042 78.9494 25.9957 80.3068 26.5902 81.62C26.9602 82.44 27.3702 83.24 27.8102 84.02C28.4721 85.2122 29.2385 86.3433 30.1002 87.4C30.7752 88.1793 31.5293 88.8864 32.3502 89.51L32.8702 89.88C33.4902 90.36 33.5202 90.57 33.4702 91.09C33.4702 91.21 33.4702 91.34 33.4702 91.45C33.5302 91.84 32.8502 92.06 32.1302 91.75C31.1704 91.2817 30.2978 90.6527 29.5502 89.89C28.813 89.1588 28.1436 88.3622 27.5502 87.51C26.6414 86.2393 25.8291 84.9022 25.1202 83.51L25.1302 83.52Z" fill="#231F20"/>
<path d="M105.75 37.5999C105.505 37.0388 105.218 36.4972 104.89 35.9799L104.4 35.1899L103.81 34.4599C103.504 34.1006 103.169 33.7662 102.81 33.4599L101.96 32.5799L101.02 31.7799C100.395 31.2243 99.7258 30.7194 99.02 30.2699C98.3826 29.8812 97.7135 29.5467 97.02 29.2699C96.11 28.9556 95.2299 28.5607 94.39 28.0899C94.13 27.9299 94.2601 27.6099 94.6201 27.3399C94.844 27.1778 95.0992 27.0639 95.3694 27.0054C95.6396 26.9469 95.9191 26.945 96.1901 26.9999C96.7061 27.0893 97.212 27.23 97.7 27.4199C98.18 27.6199 98.7 27.8299 99.14 28.0499C99.6221 28.2649 100.084 28.5226 100.52 28.8199C100.973 29.0978 101.407 29.4052 101.82 29.7399C102.31 30.1599 102.82 30.5499 103.35 30.9299C103.88 31.3099 104.35 31.7899 104.82 32.2299C105.29 32.6699 105.82 33.3099 106.23 33.8699C106.64 34.4299 107.07 35.0399 107.4 35.6799C107.6 36.0699 107.82 36.4599 108.01 36.8499L108.52 38.0699C108.986 39.3221 109.321 40.6189 109.52 41.9399C109.721 42.9548 109.831 43.9855 109.85 45.0199C109.85 45.2599 109.85 45.49 109.85 45.7199C109.82 45.9049 109.77 46.086 109.7 46.2599C109.626 46.3846 109.531 46.4961 109.42 46.5899C109.233 46.7399 108.999 46.818 108.76 46.8099C108.647 46.8196 108.533 46.8196 108.42 46.8099C108.07 46.8099 107.81 46.35 107.63 45.8099C107.43 44.2199 107.22 42.6799 106.92 41.0899C106.678 39.9041 106.291 38.7523 105.77 37.6599L105.75 37.5999Z" fill="#231F20"/>
<path d="M104.83 95.8899C104.69 95.8899 104.69 95.7099 104.83 95.3599C104.897 95.2086 104.984 95.0673 105.09 94.9399C105.184 94.8902 105.281 94.8468 105.38 94.8099C105.43 94.8099 106.02 94.9199 106.23 94.9299C106.42 94.9526 106.605 95.0031 106.78 95.0799C107.14 95.2199 107.51 95.3299 107.88 95.4499C107.965 95.4771 108.043 95.5213 108.11 95.5799C108.35 95.7691 108.637 95.89 108.94 95.9299C108.965 95.9423 108.992 95.9487 109.02 95.9487C109.048 95.9487 109.075 95.9423 109.1 95.9299C109.447 95.921 109.791 96.0002 110.1 96.1599C110.316 96.3474 110.543 96.5211 110.78 96.6799C110.78 96.6799 110.86 96.6799 110.87 96.7799C110.88 96.8799 110.99 96.9599 111.07 96.9999C111.179 97.0562 111.28 97.1268 111.37 97.2099C111.414 97.2862 111.451 97.3666 111.48 97.4499C111.487 97.5637 111.455 97.6763 111.39 97.7699C111.32 97.8299 111.33 97.9499 111.31 98.0499V98.1499C111.037 98.2928 110.743 98.3939 110.44 98.4499L109.92 98.3799L109.31 98.3199C109.25 98.3199 109.2 98.3199 109.15 98.2299L108.3 98.0699C108.15 97.9899 107.97 97.9899 107.86 97.7899C107.86 97.7899 107.81 97.7899 107.77 97.7899C107.496 97.6904 107.234 97.5595 106.99 97.3999C106.86 97.3299 106.72 97.2799 106.58 97.2199C106.44 97.1599 106.58 97.2199 106.52 97.1599C106.46 97.0999 106.52 97.0999 106.44 97.0899C106.11 96.9599 105.83 96.7399 105.44 96.6299C105.36 96.6299 105.09 96.2699 105 96.2399C104.91 96.2099 104.89 95.8799 104.83 95.8899Z" fill="#231F20"/>
<path d="M92.25 107.53C92.13 107.43 92.35 107.34 92.76 107.25C92.9589 107.22 93.1612 107.22 93.36 107.25C93.4636 107.3 93.5638 107.357 93.66 107.42C93.7903 107.693 93.9038 107.973 94 108.26C94.0687 108.449 94.0993 108.649 94.09 108.85C94.09 109.25 94.09 109.65 94.09 110.04C94.0857 110.131 94.0618 110.219 94.02 110.3C93.8852 110.573 93.8265 110.877 93.85 111.18C93.8378 111.203 93.8314 111.229 93.8314 111.255C93.8314 111.281 93.8378 111.307 93.85 111.33C93.9384 111.657 93.9384 112.002 93.85 112.33C93.7032 112.566 93.5696 112.809 93.45 113.06C93.45 113.06 93.45 113.13 93.37 113.15C93.29 113.17 93.2 113.29 93.18 113.37C93.1509 113.482 93.1 113.587 93.03 113.68C93.03 113.68 92.89 113.77 92.8 113.82C92.6749 113.848 92.5451 113.848 92.42 113.82C92.33 113.76 92.2 113.82 92.09 113.82H92C91.799 113.595 91.6368 113.338 91.52 113.06V112.57C91.52 112.33 91.52 112.07 91.52 112.02C91.52 111.97 91.52 111.91 91.59 111.86C91.66 111.81 91.52 111.1 91.53 111.08C91.54 111.06 91.53 110.78 91.69 110.65C91.6964 110.636 91.6996 110.62 91.6996 110.605C91.6996 110.589 91.6964 110.574 91.69 110.56C91.7017 110.305 91.7489 110.052 91.83 109.81C91.84 109.68 91.84 109.55 91.83 109.42V109.36C91.8376 109.33 91.8376 109.299 91.83 109.27C91.8652 108.968 91.8652 108.662 91.83 108.36C91.83 108.29 92.01 107.96 91.99 107.88C91.97 107.8 92.3 107.57 92.25 107.53Z" fill="#231F20"/>
<path d="M31.7202 35.1499C31.5802 35.1499 31.6002 34.9799 31.7202 34.6699C31.774 34.5285 31.8556 34.3993 31.9602 34.2899C32.0453 34.2422 32.136 34.2053 32.2302 34.1799C32.2302 34.1799 32.8302 34.3199 33.0302 34.3599C33.2115 34.3931 33.3847 34.461 33.5402 34.5599L34.5402 35.0899C34.6126 35.1315 34.6769 35.1857 34.7302 35.2499C34.9169 35.4694 35.1535 35.6409 35.4202 35.7499C35.4202 35.7499 35.5002 35.7499 35.5602 35.7499C35.8679 35.8389 36.1516 35.9961 36.3902 36.2099C36.5402 36.4299 36.7102 36.6199 36.8802 36.8299C36.8802 36.8299 36.9402 36.8299 36.9402 36.9299C36.9402 37.0299 37.0002 37.1199 37.0602 37.1799C37.1435 37.2502 37.2174 37.3309 37.2802 37.4199C37.2925 37.5028 37.2925 37.5871 37.2802 37.6699C37.2586 37.7781 37.2024 37.8764 37.1202 37.9499C37.0402 37.9499 37.0202 38.0999 36.9702 38.1899V38.2799C36.6987 38.3252 36.4217 38.3252 36.1502 38.2799L35.7202 38.0899L35.2102 37.8899C35.1602 37.8899 35.1302 37.8099 35.1002 37.7699C35.0702 37.7299 34.4102 37.4899 34.3902 37.4599C34.3702 37.4299 34.1202 37.3399 34.0702 37.1399C34.0702 37.1399 34.0702 37.1399 34.0102 37.0699C33.7935 36.9358 33.5923 36.7782 33.4102 36.5999C33.3065 36.5175 33.1962 36.4439 33.0802 36.3799C33.0802 36.3799 33.0802 36.3799 33.0802 36.3199C33.066 36.2893 33.0456 36.2621 33.0202 36.2399C32.7751 36.0561 32.5179 35.889 32.2502 35.7399C32.1902 35.7399 31.9802 35.3999 31.9002 35.3699C31.8202 35.3399 31.7702 35.1399 31.7202 35.1499Z" fill="#231F20"/>
<path d="M49.93 20C49.84 19.82 50.1 19.73 50.56 19.69C50.7768 19.6891 50.9913 19.7333 51.19 19.82C51.2921 19.9232 51.3826 20.0372 51.46 20.16C51.46 20.22 51.54 21.16 51.57 21.49C51.5932 21.7951 51.5696 22.102 51.5 22.4L51.21 24.2C51.191 24.3337 51.1469 24.4626 51.08 24.58C50.8824 24.9964 50.7735 25.4493 50.76 25.91C50.7435 25.9478 50.735 25.9887 50.735 26.03C50.735 26.0713 50.7435 26.1121 50.76 26.15C50.7891 26.6514 50.7385 27.1543 50.61 27.64C50.4239 28.0064 50.2603 28.3837 50.12 28.77C50.12 28.83 50.12 28.89 50.04 28.93C49.96 28.97 49.86 29.16 49.83 29.28C49.7986 29.4505 49.7518 29.6179 49.69 29.78C49.6262 29.8774 49.5448 29.9622 49.45 30.03C49.3283 30.08 49.1917 30.08 49.07 30.03C48.98 29.95 48.85 30.03 48.74 30.03C48.6968 30.0349 48.6532 30.0349 48.61 30.03C48.3818 29.6632 48.2067 29.2659 48.09 28.85L48 27.11C48.0056 27.0167 48.0367 26.9267 48.09 26.85C48.09 26.8 48.09 25.59 48.09 25.54C48.15 25.3 48.09 25.04 48.34 24.83C48.3595 24.7818 48.3595 24.7281 48.34 24.68C48.4125 24.2618 48.5195 23.8504 48.66 23.45C48.7139 23.2423 48.7573 23.032 48.79 22.82C48.8039 22.7833 48.8242 22.7495 48.85 22.72C48.8773 22.6754 48.9007 22.6285 48.92 22.58C49.0464 22.0929 49.1433 21.5987 49.21 21.1C49.21 20.98 49.53 20.48 49.53 20.35C49.53 20.22 50 20.09 49.93 20Z" fill="#231F20"/>
<path d="M63.72 68.7399C63.24 69.4599 62.72 70.16 62.18 70.83C61.99 71.08 61.79 71.3199 61.58 71.5599C60.8332 72.3769 60.0349 73.1451 59.19 73.86L58.07 74.86C57.5881 75.254 57.0728 75.6053 56.53 75.91C56.36 76 56.33 75.91 56.41 75.75C56.5344 75.4924 56.7076 75.2615 56.92 75.07C57.37 74.62 57.84 74.2199 58.31 73.82C58.78 73.42 59.25 73 59.71 72.57C60.2606 72.0406 60.7688 71.4688 61.23 70.86C61.7632 70.2189 62.2638 69.5514 62.73 68.86C63.02 68.43 63.3 67.9799 63.56 67.5299C63.9562 66.8474 64.3135 66.1429 64.63 65.4199C64.86 64.8499 65.04 64.2799 65.23 63.7099L65.35 63.33C65.53 62.87 65.65 62.75 65.86 62.7H66C66.14 62.7 66.19 62.93 66.14 63.31C66.0448 63.8727 65.9077 64.4276 65.73 64.97C65.5334 65.5171 65.303 66.0515 65.04 66.57C64.6518 67.358 64.2177 68.1227 63.74 68.86L63.72 68.7399Z" fill="#231F20"/>
</svg>
