<svg width="128" height="128" viewBox="0 0 128 128" fill="none" xmlns="http://www.w3.org/2000/svg">
<path d="M31.2599 107.87C30.6899 108.24 30.1099 108.58 29.5299 108.9C29.3099 109.01 29.1299 109.17 28.8999 109.26C28.1199 109.61 27.3199 109.92 26.5199 110.19C26.1599 110.32 25.8199 110.44 25.4599 110.56C25.0099 110.72 24.5199 110.78 24.0399 110.78C23.8899 110.78 23.8999 110.72 24.0099 110.61C24.1099 110.5 24.2999 110.3 24.5299 110.18C24.9299 109.91 25.3499 109.76 25.7599 109.56C26.1799 109.38 26.5899 109.17 27.0199 108.99C27.5399 108.78 27.9899 108.41 28.4699 108.09C28.9899 107.75 29.5199 107.4 30.0099 107.03C30.3199 106.8 30.6199 106.56 30.8999 106.3C31.3299 105.92 31.7499 105.51 32.0799 105.05C32.1999 104.87 32.2799 104.67 32.3699 104.48C32.4299 104.28 32.4899 104.08 32.5299 103.9C32.5299 103.82 32.5299 103.74 32.5499 103.67C32.6099 103.41 32.6799 103.41 33.1699 103.34L33.4999 103.3C33.8599 103.25 34.1499 103.44 34.1799 103.87C34.1899 105.07 33.5399 105.92 32.8799 106.58C32.3799 107.08 31.8299 107.51 31.2699 107.9L31.2499 107.87H31.2599Z" fill="#231F20"/>
<path d="M73.7498 72.03C73.8598 73.05 73.8698 74.09 73.8898 75.12C73.8098 76.15 73.8398 77.18 73.6798 78.2C73.5598 78.94 73.5698 79.69 73.3798 80.42C72.8898 83.01 71.9598 85.51 70.6998 87.79C70.1898 88.83 69.5098 89.78 68.8998 90.74L67.5298 92.47C67.0398 93.02 66.4898 93.52 65.9198 93.97C65.5598 94.26 65.5498 94.15 65.7098 93.76C65.8698 93.38 66.1598 92.69 66.6998 92.09C68.4898 89.81 69.7898 87.24 70.8498 84.54C71.1898 83.74 71.3798 82.87 71.6198 82.01C71.7598 81.13 71.9398 80.25 72.0398 79.37C72.1198 78.4 72.2698 77.43 72.2498 76.44L72.2698 74.97L72.1798 73.5L72.1298 72.59L72.0098 71.69C71.9198 71.09 71.8698 70.48 71.7298 69.89C71.3498 68.1 70.8898 66.3 70.1598 64.61C69.8698 63.96 69.5998 63.31 69.2398 62.71L68.1598 60.91C68.0098 60.64 67.7998 60.41 67.6398 60.15C67.0198 59.19 66.9398 58.8 67.1998 58.33C67.2598 58.22 67.3098 58.1 67.3798 58.01C67.6198 57.71 68.1198 57.96 68.6898 58.64C70.3798 60.67 71.5998 63.23 72.4698 65.88C72.6298 66.38 72.7898 66.87 72.9398 67.37L73.2798 68.9C73.5398 69.91 73.6298 70.95 73.7898 71.98H73.7498V72.03Z" fill="#231F20"/>
<path d="M108.17 78.61C108.54 78.9 108.91 79.24 109.34 79.5C109.49 79.6 109.67 79.66 109.83 79.75C110.39 80.09 110.98 80.41 111.59 80.67C111.86 80.79 112.15 80.88 112.43 80.96C112.8 81.04 113.16 81.19 113.5 81.4C113.61 81.47 113.57 81.56 113.44 81.68C113.31 81.79 113.08 81.95 112.85 81.98C112.04 82.01 111.25 81.84 110.51 81.47C110.07 81.25 109.57 81.15 109.11 80.97C108.6 80.75 108.11 80.5 107.63 80.2C107.34 80.01 107.06 79.8 106.79 79.59C106.37 79.27 106.01 78.89 105.62 78.53C105.33 78.24 104.98 78.01 104.68 77.69C104.61 77.63 104.53 77.56 104.48 77.48C104.28 77.19 104.33 77.03 104.72 76.76C104.81 76.7 104.9 76.64 104.99 76.58C105.31 76.4 105.64 76.37 105.82 76.49C106.36 76.84 106.71 77.25 107.15 77.66C107.47 77.97 107.81 78.28 108.19 78.56L108.17 78.6V78.61Z" fill="#231F20"/>
<path d="M116.99 40.7C117.36 41.38 117.64 42.1 117.97 42.79C118.23 43.52 118.53 44.22 118.75 44.96C118.9 45.5 119.13 46.01 119.26 46.56C119.71 48.48 119.83 50.46 119.8 52.4C119.78 52.83 119.77 53.26 119.74 53.69L119.59 54.97C119.53 55.51 119.38 56.05 119.27 56.58C119.15 57.11 118.91 57.62 118.72 58.13C118.59 58.44 118.5 58.36 118.45 58.05C118.4 57.74 118.37 57.19 118.45 56.6L118.56 55.01L118.54 53.43C118.48 52.9 118.49 52.38 118.48 51.85C118.43 51.32 118.4 50.8 118.38 50.26C118.25 48.99 117.85 47.71 117.47 46.47C117.25 45.79 117.04 45.1 116.74 44.44C116.49 43.76 116.18 43.11 115.85 42.47C115.66 42.07 115.44 41.68 115.21 41.3C114.98 40.92 114.77 40.52 114.51 40.16C113.75 39.05 112.92 37.96 111.96 37.03C111.58 36.68 111.19 36.33 110.78 36.03L109.51 35.17C109.33 35.03 109.12 34.96 108.93 34.83C108.24 34.36 108.1 34.09 108.22 33.56C108.25 33.44 108.26 33.31 108.3 33.2C108.43 32.82 108.9 32.75 109.53 33.01C111.4 33.78 113.05 35.17 114.41 36.78C114.93 37.37 115.39 38.01 115.82 38.66C116.28 39.29 116.64 40 117.04 40.67L117 40.7H116.99Z" fill="#231F20"/>
<path d="M112.03 80.77C112.63 80.87 113.24 80.92 113.86 80.93H114.09H114.17L114.28 80.95C114.36 80.96 114.45 80.97 114.55 80.96C114.62 80.96 114.68 80.94 114.73 80.92C114.75 80.9 114.89 80.87 114.84 80.83L114.73 80.6L114.65 80.43L114.6 80.33C114.6 80.33 114.58 80.28 114.5 80.16C114.02 79.37 113.58 78.49 113.25 77.6C112.96 76.8 112.76 75.97 112.65 75.14C112.57 74.61 112.55 74.06 112.6 73.52C112.67 72.98 112.86 72.46 113.11 71.99C113.31 71.71 113.38 71.78 113.56 72.09C113.66 72.25 113.75 72.45 113.85 72.68C113.97 72.91 114.09 73.17 114.15 73.42C114.27 74.32 114.51 75.16 114.86 75.97C115.21 76.77 115.51 77.62 115.96 78.45L116.2 78.82C116.25 78.89 116.26 78.92 116.35 79.02L116.62 79.33C116.96 79.74 117.36 80.16 117.77 80.57C118.04 80.79 118.01 80.94 118.1 81.12C118.15 81.28 118.26 81.51 118.26 81.6L118.33 81.95C118.35 82.1 118.18 82.25 118.08 82.36C117.56 82.89 116.43 83.19 115.35 83.34C115.08 83.37 114.79 83.41 114.53 83.42C114.23 83.44 114.12 83.44 113.91 83.44C113.54 83.44 113.17 83.44 112.79 83.41C111.88 83.36 110.97 83.21 110.08 82.99C108.73 82.66 107.45 82.07 106.27 81.37C105.35 80.83 104.41 80.29 103.6 79.55C103.43 79.39 103.24 79.24 103.09 79.05C102.51 78.37 102.54 78 102.99 77.49C103.09 77.37 103.19 77.25 103.3 77.15C103.68 76.82 104.22 76.85 104.68 77.17C106.08 78.09 107.22 79.05 108.65 79.7C109.69 80.19 110.84 80.54 112.05 80.68V80.74L112.03 80.77Z" fill="#231F20"/>
<path d="M28.5398 111.46C27.8898 111.69 27.2298 111.91 26.5698 112.11C26.1298 112.23 24.6498 112.71 23.7298 112.86C23.3698 112.92 23.0398 112.92 22.7798 112.86C22.6498 112.83 22.5298 112.79 22.4098 112.72C22.2998 112.63 22.2898 112.53 22.2298 112.43C21.7398 112.02 22.4798 109.37 22.5198 108.86C22.6398 108.06 22.6898 107.26 22.6498 106.44C22.6098 105.72 22.4798 104.99 22.3298 104.27C22.1598 103.34 21.7598 102.45 21.9198 101.41C21.9498 101.09 22.0998 101.1 22.3998 101.28C22.5598 101.37 22.7598 101.5 22.9898 101.67C23.0998 101.75 23.2298 101.84 23.3298 101.95C23.4098 102.06 23.4798 102.18 23.5298 102.31C23.8698 103.24 24.1998 104.2 24.4198 105.22C24.5898 106.25 24.6498 107.34 24.5098 108.39C24.4798 108.71 24.4398 109.02 24.4098 109.34V109.46L24.3898 109.49V109.56L24.3498 109.71L24.3098 110L24.2798 110.15C24.2798 110.15 24.2698 110.2 24.2698 110.23C24.2898 110.24 24.3098 110.23 24.3398 110.23C24.5298 110.22 24.7398 110.18 24.9898 110.12L25.0898 110.09L25.3198 110.01L25.7798 109.84L26.6898 109.48C27.4298 109.18 28.1698 108.86 28.8798 108.5C29.9498 107.95 31.0298 107.38 31.9398 106.63C32.6498 106.05 33.1698 105.29 33.5998 104.59C33.6998 104.43 33.7498 104.26 33.8398 104.12C34.1398 103.56 34.3998 103.55 35.1898 103.74C35.3698 103.78 35.5498 103.81 35.7198 103.86C36.0098 103.94 36.2298 104.11 36.3698 104.36C36.5098 104.61 36.5698 104.96 36.4398 105.3C35.7298 107.37 34.0398 108.69 32.4098 109.68C31.1698 110.42 29.8698 110.99 28.5798 111.51L28.5498 111.45L28.5398 111.46Z" fill="#231F20"/>
<path d="M38.4301 44.93C43.3201 44.65 48.2401 45.25 52.9001 46.68C57.5801 48.09 62.0201 50.46 65.7101 53.7C68.3801 56.09 70.7501 58.85 72.4901 62L73.5601 64.12C73.8701 64.85 74.1301 65.6 74.4201 66.34C74.7301 67.07 74.9101 67.84 75.1101 68.61C75.2901 69.38 75.5501 70.13 75.6201 70.93L75.9501 73.28L76.0201 75.65C76.0801 76.44 75.9701 77.23 75.9101 78.01C75.8301 78.79 75.8101 79.59 75.6201 80.36L75.1401 82.67C74.9201 83.42 74.6601 84.17 74.4201 84.91C74.2901 85.28 74.1801 85.66 74.0401 86.02L73.5501 87.09C73.2101 87.8 72.9201 88.52 72.5401 89.21C71.0201 91.99 68.9401 94.38 66.6301 96.46L65.0501 97.79C64.5001 98.2 63.9201 98.58 63.3601 98.98L62.5101 99.57L61.6201 100.09L59.8401 101.12C57.3801 102.32 54.8601 103.42 52.2301 104.08C48.8701 104.99 45.3901 105.5 41.9001 105.51C38.4101 105.48 34.9001 104.84 31.7101 103.5C29.7601 102.55 30.0501 102.68 31.8801 102.81C32.3401 102.81 32.8801 102.9 33.5001 102.93C34.1301 102.93 34.8301 102.93 35.5901 102.93C36.3401 102.97 37.1601 102.93 38.0201 102.93C38.4501 102.93 38.8901 102.94 39.3401 102.95C39.7901 102.93 40.2501 102.91 40.7201 102.9C44.0301 102.9 47.3501 102.51 50.5501 101.67C53.7401 100.79 56.8201 99.55 59.6701 97.92C62.5101 96.28 65.1001 94.23 67.2201 91.77L68.7201 89.85L70.0001 87.79C70.7201 86.33 71.5001 84.86 71.9701 83.28C73.2501 79.56 73.5401 75.41 72.7901 71.42C72.0601 67.43 70.3201 63.6 67.8601 60.36C65.1601 56.79 61.6101 53.85 57.5901 51.8C53.5801 49.75 49.0801 48.55 44.5501 48.09C38.9601 47.49 33.2201 48.21 27.9701 50.2C24.0001 51.71 20.3001 53.99 17.2601 56.97C14.2201 59.94 11.8801 63.59 10.3901 67.55C9.89009 69.12 9.3201 70.67 9.0601 72.25C8.8201 73.84 8.66009 75.45 8.76009 77.05C8.86009 80.25 9.67009 83.39 11.0701 86.21C11.3501 86.85 11.7601 87.4 12.0901 88C12.4701 88.56 12.8801 89.11 13.2901 89.67C14.8901 91.68 16.2601 92.67 17.1401 93.47C17.6101 93.84 17.9501 94.18 18.2301 94.49C18.5301 94.77 18.7501 95.05 18.9301 95.34C19.1001 95.61 19.3501 95.91 19.4301 96.13C19.5601 96.51 19.0801 96.56 18.0301 96.32C17.4901 96.22 16.8601 95.96 16.1201 95.6C15.3501 95.27 14.5701 94.7 13.6901 94.07C11.1801 92.03 9.19009 89.32 7.84009 86.3C6.51009 83.28 5.84009 79.95 5.78009 76.6C5.74009 75.76 5.83009 74.92 5.86009 74.08C5.96009 73.24 6.05009 72.4 6.21009 71.57C6.50009 69.87 7.08009 68.32 7.58009 66.73C7.80009 65.92 8.20009 65.18 8.54009 64.41C8.90009 63.65 9.22009 62.87 9.63009 62.13C10.5401 60.71 11.3101 59.19 12.4301 57.92C15.5001 53.94 19.5601 50.75 24.0601 48.57C28.5601 46.38 33.4801 45.18 38.4201 44.86L38.4401 44.94L38.4301 44.93Z" fill="#231F20"/>
<path d="M111.01 36.48C109.32 34.86 107.28 33.62 105.21 32.48C104.12 32 103.07 31.42 101.93 31.06C101.37 30.86 100.81 30.64 100.24 30.46L98.5002 29.99C97.6602 29.73 96.7802 29.65 95.9202 29.5C95.0602 29.33 94.1802 29.3 93.3102 29.2C90.2302 28.92 87.1002 29.02 84.0302 29.57L81.7602 30.1C80.9902 30.25 80.2802 30.57 79.5302 30.79C78.0302 31.25 76.6602 31.92 75.3102 32.71C72.9302 34.1 70.7902 35.97 69.0602 38.09C67.9402 39.45 66.9902 40.94 66.2302 42.51C65.4902 44.09 64.8702 45.7 64.3702 47.39C63.9102 48.42 63.7502 48.31 63.3602 47.26C63.1302 46.73 63.0402 45.98 63.0102 45.06C63.0002 44.15 63.1602 43.08 63.6302 42.04C65.2302 38.34 67.8002 35.18 70.8502 32.66C72.3902 31.41 74.0602 30.32 75.8602 29.45C76.7602 29.02 77.7002 28.63 78.6302 28.35C79.5702 28.05 80.4902 27.72 81.4602 27.54C86.0202 26.5 90.9002 25.98 95.6402 26.63C100.81 27.38 105.91 29.12 110.2 32.18C112.85 34.02 115.24 36.28 117.07 38.96C117.46 39.44 117.76 39.97 118.06 40.5L118.98 42.09L119.73 43.79L120.31 45.55C120.98 47.93 121.22 50.39 121.14 52.81C121.05 54.69 120.85 56.56 120.41 58.39C119.95 60.21 119.35 62.01 118.44 63.7C118.04 64.44 117.63 65.17 117.13 65.86C116.19 67.15 115.37 67.85 114.75 68.25C114.07 68.59 113.57 68.64 113.09 68.54C112.87 68.49 112.62 68.48 112.46 68.4C111.91 68.1 112.58 67.02 113.78 65.45C114.68 64.28 115.48 63.02 116.1 61.65C116.76 60.3 117.23 58.84 117.6 57.36C117.98 55.87 118.14 54.33 118.24 52.79C118.26 51.25 118.2 49.69 117.92 48.18C117.83 47.62 117.66 47.07 117.54 46.52C117.39 45.98 117.19 45.45 117.02 44.91C116.79 44.4 116.58 43.88 116.33 43.37L115.46 41.86C115.31 41.61 115.18 41.35 115.02 41.11L114.5 40.41C114.15 39.95 113.82 39.46 113.45 39.01C112.63 38.18 111.91 37.24 110.97 36.52L111.01 36.46V36.48Z" fill="#231F20"/>
<path d="M90.2599 79.36C91.6299 79.48 93.0199 79.54 94.4099 79.41C94.9199 79.36 95.4199 79.27 95.9199 79.19C97.7099 79.01 99.4799 78.56 101.22 77.99C102 77.75 102.72 77.36 103.43 76.99L104.75 76.18C105.18 75.89 105.64 75.66 106.15 75.47C106.47 75.35 106.6 75.59 106.58 76.03C106.54 76.44 106.42 77.19 105.92 77.59C104.13 78.99 102.11 80.17 99.8599 80.66C99.1899 80.82 98.5199 80.98 97.8599 81.2C97.1899 81.37 96.5099 81.56 95.8199 81.69C94.3099 81.92 92.7799 82.08 91.2499 82.05C90.3099 82.08 89.3699 81.97 88.4399 81.92C87.7399 81.83 87.0299 81.75 86.3299 81.63C85.6399 81.48 84.9299 81.4 84.2499 81.24C83.7199 81.12 83.1699 81.07 82.6199 80.99C82.0799 80.9 81.5299 80.81 80.9899 80.7C80.7499 80.66 80.5099 80.61 80.2799 80.53C79.4199 80.22 79.2399 79.92 79.4099 79.1C79.4499 78.91 79.4799 78.72 79.5399 78.54C79.7399 77.93 80.2799 77.59 80.8899 77.65C82.7199 77.82 84.4199 78.33 86.2099 78.68C87.5299 78.98 88.8899 79.17 90.2699 79.29V79.36H90.2599Z" fill="#231F20"/>
<path d="M31.6701 75.34C31.1401 78.96 25.8401 77.36 26.2501 74.37C26.6701 71.23 32.1601 72.03 31.6701 75.34Z" fill="#231F20"/>
<path d="M43.5802 76.17C43.0102 80.02 37.3802 78.32 37.8002 75.14C38.2202 71.96 44.0902 72.65 43.5802 76.17Z" fill="#231F20"/>
<path d="M55.03 79.57C54.5 83.19 49.2 81.59 49.61 78.6C50.03 75.46 55.52 76.26 55.03 79.57Z" fill="#231F20"/>
<path d="M88.5701 56C89.5301 59.11 84.6801 59.86 83.8501 57.31C82.9801 54.64 87.6801 53.16 88.5701 56Z" fill="#231F20"/>
<path d="M96.6401 51.8C97.5201 54.62 92.6901 55.44 91.9301 53.12C91.1701 50.8 95.8301 49.22 96.6401 51.8Z" fill="#231F20"/>
<path d="M104.79 49.25C105.75 52.36 100.9 53.11 100.07 50.56C99.1998 47.89 103.9 46.41 104.79 49.25Z" fill="#231F20"/>
<path d="M91.6799 95.67C91.6799 95.6 91.7299 95.54 91.7799 95.49C91.7999 95.47 91.8399 95.47 91.8599 95.49C91.8899 95.53 91.9099 95.57 91.9299 95.6C91.9599 95.62 92.0599 95.99 92.1199 96.12C92.1699 96.24 92.2199 96.36 92.2199 96.49C92.2499 96.74 92.2699 96.99 92.2999 97.24C92.2999 97.3 92.2999 97.35 92.2999 97.41C92.2699 97.6 92.2799 97.79 92.2999 97.98C92.2999 98.01 92.2999 98.04 92.3299 98.07C92.3799 98.12 92.4199 98.64 92.3899 98.71C92.3399 98.88 92.3199 99.05 92.2799 99.22C92.2799 99.24 92.2799 99.27 92.2599 99.29C92.1899 99.34 92.1999 99.39 92.1899 99.45C92.1799 99.52 92.1699 99.59 92.1299 99.67C92.1099 99.71 92.0699 99.74 92.0499 99.78C92.0199 99.81 91.9599 99.8 91.9499 99.78C91.9199 99.75 91.8899 99.78 91.8599 99.78C91.8499 99.78 91.8399 99.78 91.8299 99.78C91.8099 99.78 91.5499 99.37 91.5599 99.33C91.5599 99.33 91.4699 98.72 91.4499 98.65C91.4499 98.61 91.4499 98.58 91.4599 98.54C91.4599 98.51 91.4099 98.04 91.4099 98.02C91.4099 97.92 91.3899 97.82 91.4499 97.72C91.4599 97.7 91.4499 97.68 91.4499 97.66C91.4499 97.49 91.4599 97.32 91.4799 97.14C91.4799 97.05 91.4799 96.96 91.4799 96.88C91.4799 96.86 91.4799 96.85 91.4899 96.83C91.4899 96.81 91.4999 96.79 91.4999 96.77C91.4999 96.56 91.5099 96.35 91.5299 96.15C91.5299 96.1 91.6099 95.87 91.6099 95.82C91.6099 95.79 91.6799 95.69 91.6699 95.66L91.6799 95.67Z" fill="#231F20"/>
<path d="M93.8398 97.53C93.9098 97.53 93.9598 97.58 94.0098 97.63C94.0298 97.65 94.0298 97.69 94.0098 97.71C93.9698 97.74 93.9298 97.76 93.8998 97.78C93.8798 97.81 93.5198 97.91 93.3998 97.97C93.2798 98.02 93.1698 98.07 93.0498 98.07C92.8098 98.1 92.5698 98.12 92.3298 98.15C92.2798 98.15 92.2198 98.15 92.1698 98.15C91.9798 98.12 91.7998 98.13 91.6198 98.15C91.5898 98.15 91.5598 98.15 91.5298 98.18C91.4798 98.23 90.9798 98.27 90.9198 98.24C90.7598 98.19 90.5998 98.17 90.4298 98.13C90.4098 98.13 90.3798 98.13 90.3598 98.11C90.3098 98.04 90.2598 98.05 90.2098 98.04C90.1398 98.03 90.0698 98.02 89.9998 97.98C89.9698 97.96 89.9298 97.92 89.8998 97.9C89.8698 97.87 89.8798 97.81 89.8998 97.8C89.9298 97.77 89.8998 97.74 89.8998 97.71C89.8998 97.7 89.8998 97.69 89.8998 97.68C89.8998 97.66 90.2898 97.4 90.3298 97.41C90.3298 97.41 90.9198 97.32 90.9798 97.3C91.0098 97.3 91.0498 97.3 91.0798 97.31C91.1098 97.31 91.5598 97.26 91.5798 97.26C91.6798 97.26 91.7698 97.24 91.8698 97.3C91.8898 97.31 91.9098 97.3 91.9298 97.3C92.0898 97.3 92.2598 97.31 92.4298 97.33C92.5098 97.33 92.5998 97.33 92.6798 97.33C92.6998 97.33 92.7098 97.33 92.7298 97.34C92.7498 97.34 92.7698 97.35 92.7898 97.35C92.9898 97.35 93.1898 97.36 93.3898 97.38C93.4398 97.38 93.6598 97.46 93.7098 97.46C93.7398 97.46 93.8398 97.53 93.8698 97.52L93.8398 97.53Z" fill="#231F20"/>
<path d="M93.3 98.78C93.3 98.78 93.34 98.89 93.34 98.96C93.34 98.98 93.3 99.01 93.28 99.01C93.23 99.01 93.19 98.99 93.16 98.99C93.13 98.99 92.82 98.83 92.71 98.79C92.6 98.75 92.49 98.7 92.42 98.63C92.25 98.49 92.08 98.35 91.91 98.21C91.87 98.18 91.84 98.14 91.81 98.1C91.71 97.96 91.59 97.84 91.45 97.74C91.43 97.72 91.41 97.7 91.37 97.7C91.3 97.7 90.96 97.4 90.94 97.34C90.87 97.2 90.79 97.07 90.71 96.94C90.7 96.92 90.68 96.91 90.68 96.88C90.7 96.8 90.66 96.77 90.63 96.73C90.6 96.67 90.55 96.63 90.54 96.55C90.54 96.51 90.54 96.46 90.54 96.42C90.54 96.38 90.6 96.34 90.61 96.34C90.65 96.34 90.66 96.3 90.67 96.28L90.69 96.26C90.71 96.24 91.14 96.32 91.16 96.36C91.16 96.36 91.6 96.68 91.65 96.71C91.68 96.73 91.69 96.76 91.71 96.79C91.73 96.81 92.05 97.07 92.06 97.08C92.11 97.15 92.19 97.2 92.21 97.3C92.21 97.32 92.23 97.33 92.24 97.34C92.35 97.44 92.44 97.57 92.53 97.69C92.58 97.75 92.64 97.8 92.69 97.86C92.69 97.87 92.7 97.89 92.71 97.9C92.71 97.92 92.73 97.93 92.74 97.95C92.87 98.08 92.98 98.22 93.1 98.37C93.13 98.4 93.21 98.6 93.25 98.64C93.27 98.66 93.28 98.77 93.3 98.79V98.78Z" fill="#231F20"/>
<path d="M90.6502 99.05C90.6502 99.05 90.5302 99.09 90.4602 99.09C90.4402 99.09 90.4102 99.05 90.4102 99.03C90.4202 98.98 90.4302 98.94 90.4402 98.91C90.4402 98.88 90.6202 98.57 90.6702 98.45C90.7202 98.34 90.7702 98.23 90.8602 98.15C91.0102 97.98 91.1702 97.8 91.3302 97.63C91.3602 97.59 91.4101 97.56 91.4501 97.53C91.6001 97.43 91.7301 97.31 91.8401 97.17C91.8601 97.15 91.8801 97.13 91.8801 97.09C91.8801 97.02 92.2202 96.68 92.2802 96.66C92.4302 96.59 92.5601 96.51 92.7001 96.43C92.7201 96.42 92.7301 96.4 92.7701 96.4C92.8501 96.42 92.8802 96.38 92.9202 96.35C92.9802 96.32 93.0302 96.27 93.1102 96.26C93.1502 96.26 93.2002 96.26 93.2402 96.26C93.2802 96.26 93.3102 96.32 93.3102 96.33C93.3102 96.37 93.3502 96.38 93.3702 96.4L93.3902 96.42C93.4002 96.44 93.3002 96.88 93.2602 96.9C93.2602 96.9 92.9002 97.34 92.8602 97.4C92.8402 97.43 92.8102 97.44 92.7802 97.46C92.7602 97.48 92.4702 97.81 92.4602 97.82C92.3802 97.88 92.3302 97.95 92.2202 97.97C92.2002 97.97 92.1902 97.99 92.1702 98C92.0602 98.11 91.9202 98.2 91.7902 98.3C91.7202 98.35 91.6702 98.41 91.6102 98.46C91.6002 98.46 91.5802 98.47 91.5702 98.48C91.5502 98.48 91.5301 98.5 91.5201 98.51C91.3801 98.64 91.2202 98.76 91.0702 98.87C91.0302 98.9 90.8202 98.98 90.7902 99.02C90.7702 99.04 90.6502 99.05 90.6402 99.07L90.6502 99.05Z" fill="#231F20"/>
<path d="M76.5199 108.6C76.5099 108.49 76.5799 108.4 76.6499 108.31C76.6699 108.28 76.7399 108.29 76.7499 108.31C76.7899 108.38 76.8199 108.45 76.8499 108.49C76.8899 108.53 77.0299 109.13 77.1099 109.33C77.1799 109.53 77.2399 109.72 77.2499 109.92C77.2899 110.32 77.3199 110.73 77.3599 111.13C77.3599 111.22 77.3599 111.31 77.3599 111.4C77.3199 111.71 77.3399 112.02 77.3799 112.32C77.3799 112.37 77.3799 112.42 77.4199 112.47C77.4899 112.55 77.5399 113.38 77.4999 113.49C77.4399 113.76 77.3999 114.03 77.3599 114.3C77.3599 114.34 77.3599 114.38 77.3299 114.42C77.2399 114.5 77.2499 114.59 77.2399 114.67C77.2199 114.79 77.2199 114.9 77.1599 115.02C77.1399 115.08 77.0799 115.14 77.0499 115.19C77.0199 115.24 76.9299 115.22 76.9099 115.2C76.8799 115.15 76.8299 115.2 76.7899 115.2C76.7799 115.2 76.7599 115.2 76.7499 115.2C76.7199 115.2 76.3699 114.54 76.3899 114.47C76.3899 114.47 76.3599 114.22 76.3199 113.96C76.2799 113.71 76.2499 113.46 76.2299 113.38C76.2199 113.32 76.2299 113.26 76.2499 113.21C76.2499 113.16 76.1799 112.41 76.1699 112.38C76.1799 112.22 76.1499 112.06 76.2299 111.9C76.2499 111.87 76.2399 111.84 76.2299 111.8C76.2199 111.52 76.2499 111.25 76.2599 110.97C76.2599 110.83 76.2599 110.69 76.2599 110.55C76.2599 110.52 76.2699 110.5 76.2799 110.47C76.2799 110.44 76.2999 110.41 76.2899 110.37C76.2899 110.04 76.2999 109.7 76.3299 109.37C76.3299 109.29 76.4399 108.92 76.4299 108.83C76.4299 108.78 76.5199 108.61 76.5099 108.57L76.5199 108.6Z" fill="#231F20"/>
<path d="M79.97 111.63C80.08 111.62 80.17 111.69 80.25 111.76C80.28 111.78 80.27 111.85 80.25 111.86C80.18 111.9 80.12 111.93 80.07 111.96C80.03 112 79.46 112.14 79.26 112.22C79.07 112.29 78.88 112.35 78.69 112.36C78.3 112.4 77.91 112.43 77.52 112.47C77.43 112.47 77.35 112.47 77.26 112.47C76.96 112.43 76.67 112.45 76.37 112.49C76.32 112.49 76.27 112.49 76.22 112.53C76.14 112.6 75.34 112.65 75.23 112.61C74.97 112.55 74.71 112.51 74.45 112.47C74.41 112.47 74.37 112.47 74.34 112.44C74.26 112.35 74.18 112.36 74.1 112.35C73.99 112.33 73.88 112.33 73.76 112.27C73.7 112.25 73.65 112.19 73.59 112.16C73.54 112.13 73.56 112.04 73.58 112.02C73.63 111.99 73.58 111.94 73.58 111.9C73.58 111.89 73.58 111.87 73.58 111.86C73.58 111.83 74.21 111.48 74.28 111.5C74.28 111.5 74.52 111.47 74.77 111.43C75.01 111.39 75.26 111.36 75.33 111.34C75.38 111.33 75.44 111.34 75.5 111.36C75.55 111.36 76.27 111.29 76.3 111.28C76.46 111.29 76.61 111.26 76.77 111.34C76.8 111.36 76.83 111.35 76.86 111.34C77.13 111.33 77.39 111.36 77.66 111.37C77.8 111.37 77.93 111.37 78.07 111.37C78.09 111.37 78.12 111.38 78.14 111.39C78.17 111.39 78.2 111.41 78.23 111.4C78.55 111.4 78.87 111.41 79.2 111.44C79.27 111.44 79.63 111.55 79.72 111.54C79.77 111.54 79.93 111.63 79.97 111.62V111.63Z" fill="#231F20"/>
<path d="M79.0702 113.64C79.1502 113.7 79.1502 113.81 79.1502 113.91C79.1502 113.94 79.1002 113.99 79.0702 113.98C79.0002 113.96 78.9402 113.94 78.8902 113.93C78.8402 113.93 78.3702 113.65 78.1902 113.58C78.0202 113.5 77.8602 113.42 77.7302 113.3L76.9202 112.61C76.8602 112.56 76.8102 112.5 76.7602 112.43C76.6002 112.21 76.4002 112.02 76.1802 111.86C76.1402 111.83 76.1102 111.8 76.0602 111.79C75.9602 111.79 75.4201 111.29 75.3801 111.2C75.2601 110.98 75.1202 110.79 74.9902 110.59C74.9702 110.56 74.9402 110.54 74.9402 110.49C74.9502 110.37 74.8902 110.33 74.8502 110.27C74.7902 110.18 74.7202 110.11 74.6902 110C74.6702 109.95 74.6702 109.87 74.6602 109.81C74.6602 109.75 74.7302 109.71 74.7502 109.71C74.8102 109.71 74.8101 109.66 74.8401 109.63C74.8401 109.62 74.8602 109.61 74.8702 109.6C74.9002 109.58 75.5402 109.75 75.5702 109.81C75.5702 109.81 75.7402 109.95 75.9302 110.09C76.1002 110.22 76.2901 110.36 76.3401 110.4C76.3801 110.43 76.4102 110.48 76.4302 110.52C76.4602 110.55 76.9702 110.98 76.9902 110.99C77.0802 111.1 77.2002 111.18 77.2402 111.34C77.2402 111.37 77.2702 111.39 77.2902 111.41C77.4702 111.58 77.6101 111.77 77.7701 111.96C77.8501 112.06 77.9402 112.14 78.0302 112.23C78.0502 112.25 78.0502 112.27 78.0702 112.29C78.0902 112.31 78.1002 112.34 78.1202 112.36C78.3302 112.57 78.5201 112.79 78.7001 113.02C78.7401 113.07 78.9001 113.38 78.9501 113.43C78.9801 113.46 79.0202 113.63 79.0502 113.65L79.0702 113.64Z" fill="#231F20"/>
<path d="M74.8001 114.02C74.7301 114.1 74.6201 114.1 74.5201 114.1C74.4901 114.1 74.4501 114.05 74.4601 114.02C74.4801 113.95 74.5101 113.88 74.5201 113.83C74.5201 113.78 74.8401 113.3 74.9301 113.12C75.0201 112.95 75.1101 112.78 75.2501 112.65L76.0201 111.82C76.0801 111.76 76.1401 111.7 76.2101 111.66C76.4501 111.5 76.6501 111.3 76.8401 111.08C76.8701 111.04 76.9101 111.01 76.9201 110.96C76.9201 110.86 77.4701 110.31 77.5701 110.27C77.8001 110.15 78.0101 110.01 78.2301 109.87C78.2601 109.85 78.2801 109.82 78.3301 109.82C78.4501 109.83 78.5001 109.77 78.5601 109.73C78.6501 109.67 78.7301 109.6 78.8501 109.57C78.9101 109.55 78.9801 109.55 79.0501 109.55C79.1101 109.55 79.1501 109.62 79.1501 109.65C79.1401 109.71 79.2001 109.71 79.2301 109.74C79.2401 109.74 79.2501 109.76 79.2601 109.77C79.2801 109.8 79.0601 110.45 79.0001 110.49C79.0001 110.49 78.8501 110.67 78.6901 110.86C78.5401 111.04 78.3901 111.23 78.3401 111.28C78.3101 111.32 78.2601 111.35 78.2101 111.37C78.1801 111.4 77.7001 111.92 77.6901 111.94C77.5701 112.03 77.4801 112.16 77.3201 112.2C77.2901 112.2 77.2701 112.23 77.2501 112.25C77.0701 112.43 76.8601 112.58 76.6501 112.74C76.5501 112.82 76.4601 112.92 76.3601 113C76.3401 113.02 76.3201 113.02 76.3001 113.04C76.2701 113.06 76.2401 113.07 76.2201 113.09C75.9901 113.3 75.7501 113.49 75.5001 113.68C75.4401 113.72 75.1201 113.88 75.0601 113.93C75.0201 113.96 74.8501 114 74.8301 114.03L74.8001 114.02Z" fill="#231F20"/>
<path d="M41.2698 36.61C41.2698 36.54 41.3198 36.48 41.3698 36.43C41.3898 36.41 41.4298 36.41 41.4498 36.43C41.4798 36.47 41.4998 36.51 41.5198 36.54C41.5498 36.56 41.6498 36.93 41.7098 37.06C41.7598 37.18 41.8098 37.3 41.8098 37.43C41.8398 37.68 41.8598 37.93 41.8898 38.18C41.8898 38.24 41.8898 38.29 41.8898 38.35C41.8598 38.54 41.8698 38.73 41.8898 38.92C41.8898 38.95 41.8898 38.98 41.9198 39.01C41.9698 39.06 42.0098 39.58 41.9798 39.65C41.9298 39.82 41.9098 39.99 41.8698 40.16C41.8698 40.18 41.8698 40.21 41.8498 40.23C41.7798 40.28 41.7898 40.33 41.7798 40.39C41.7698 40.46 41.7598 40.53 41.7198 40.61C41.6998 40.65 41.6598 40.68 41.6398 40.72C41.6098 40.75 41.5498 40.74 41.5398 40.72C41.5098 40.69 41.4798 40.72 41.4498 40.72C41.4398 40.72 41.4298 40.72 41.4198 40.72C41.3998 40.72 41.1398 40.31 41.1498 40.27C41.1498 40.27 41.0598 39.66 41.0398 39.59C41.0398 39.55 41.0398 39.52 41.0498 39.48C41.0498 39.45 40.9998 38.98 40.9998 38.96C40.9998 38.86 40.9798 38.76 41.0398 38.66C41.0498 38.64 41.0398 38.62 41.0398 38.6C41.0398 38.43 41.0498 38.26 41.0698 38.08C41.0698 37.99 41.0698 37.9 41.0698 37.82C41.0698 37.8 41.0698 37.79 41.0798 37.77C41.0798 37.75 41.0898 37.73 41.0898 37.71C41.0898 37.5 41.0998 37.29 41.1198 37.09C41.1198 37.04 41.1998 36.81 41.1998 36.76C41.1998 36.73 41.2698 36.63 41.2598 36.6L41.2698 36.61Z" fill="#231F20"/>
<path d="M43.4301 38.47C43.5001 38.47 43.5501 38.51 43.6001 38.57C43.6201 38.59 43.6201 38.63 43.6001 38.65C43.5601 38.68 43.5201 38.7 43.4901 38.72C43.4701 38.75 43.1101 38.85 42.9901 38.91C42.8701 38.96 42.7601 39.01 42.6401 39.01C42.4001 39.04 42.1601 39.06 41.9201 39.09C41.8701 39.09 41.8101 39.09 41.7601 39.09C41.5701 39.06 41.3901 39.07 41.2101 39.09C41.1801 39.09 41.1501 39.09 41.1201 39.12C41.0701 39.17 40.5701 39.21 40.5101 39.18C40.3501 39.13 40.1901 39.11 40.0201 39.07C40.0001 39.07 39.9701 39.07 39.9501 39.05C39.9001 38.98 39.8501 38.99 39.8001 38.98C39.7301 38.97 39.6601 38.96 39.5901 38.92C39.5601 38.9 39.5201 38.86 39.4901 38.84C39.4601 38.81 39.4701 38.75 39.4901 38.74C39.5201 38.71 39.4901 38.68 39.4901 38.65C39.4901 38.64 39.4901 38.63 39.4901 38.62C39.4901 38.6 39.8801 38.34 39.9201 38.35C39.9201 38.35 40.5101 38.26 40.5701 38.24C40.6001 38.24 40.6401 38.24 40.6701 38.25C40.7001 38.25 41.1501 38.2 41.1701 38.2C41.2701 38.2 41.3601 38.18 41.4601 38.24C41.4801 38.25 41.5001 38.24 41.5201 38.24C41.6801 38.24 41.8501 38.25 42.0201 38.27C42.1001 38.27 42.1901 38.27 42.2701 38.27C42.2901 38.27 42.3001 38.27 42.3201 38.28C42.3401 38.28 42.3601 38.29 42.3801 38.29C42.5801 38.29 42.7801 38.3 42.9801 38.32C43.0301 38.32 43.2501 38.4 43.3001 38.4C43.3301 38.4 43.4301 38.47 43.4601 38.46L43.4301 38.47Z" fill="#231F20"/>
<path d="M42.8899 39.72C42.8899 39.72 42.9299 39.83 42.9299 39.9C42.9299 39.92 42.8899 39.95 42.8699 39.95C42.8199 39.95 42.7799 39.93 42.7499 39.93C42.7199 39.93 42.4099 39.77 42.2999 39.73C42.1899 39.69 42.0799 39.64 42.0099 39.57C41.8399 39.43 41.6699 39.29 41.4999 39.15C41.4599 39.12 41.4299 39.08 41.3999 39.04C41.2999 38.9 41.1799 38.78 41.0399 38.68C41.0199 38.66 40.9999 38.64 40.9599 38.64C40.8899 38.64 40.5499 38.34 40.5299 38.28C40.4599 38.14 40.3799 38.01 40.2999 37.88C40.2899 37.86 40.2699 37.85 40.2699 37.82C40.2899 37.74 40.2499 37.71 40.2199 37.67C40.1899 37.61 40.1399 37.57 40.1299 37.49C40.1299 37.45 40.1299 37.4 40.1299 37.36C40.1299 37.32 40.1899 37.28 40.1999 37.28C40.2399 37.28 40.2499 37.24 40.2599 37.22L40.2799 37.2C40.2999 37.18 40.7299 37.26 40.7499 37.3C40.7499 37.3 41.1899 37.62 41.2399 37.65C41.2699 37.67 41.2799 37.7 41.2999 37.73C41.3199 37.75 41.6399 38.01 41.6499 38.02C41.6999 38.09 41.7799 38.14 41.7999 38.24C41.7999 38.26 41.8199 38.27 41.8299 38.28C41.9399 38.38 42.0299 38.51 42.1199 38.63C42.1699 38.69 42.2299 38.74 42.2799 38.8C42.2799 38.81 42.2899 38.83 42.2999 38.84C42.2999 38.86 42.3199 38.87 42.3299 38.89C42.4599 39.02 42.5699 39.16 42.6899 39.31C42.7199 39.34 42.7999 39.54 42.8399 39.58C42.8599 39.6 42.8699 39.71 42.8899 39.73V39.72Z" fill="#231F20"/>
<path d="M40.24 39.99C40.24 39.99 40.12 40.03 40.05 40.03C40.03 40.03 40 39.99 40 39.97C40.01 39.92 40.02 39.88 40.03 39.85C40.03 39.82 40.21 39.51 40.26 39.39C40.31 39.28 40.36 39.17 40.45 39.09C40.6 38.92 40.76 38.74 40.92 38.57C40.95 38.53 41 38.5 41.04 38.47C41.19 38.37 41.32 38.25 41.43 38.11C41.45 38.09 41.47 38.07 41.47 38.03C41.47 37.96 41.81 37.62 41.87 37.6C42.02 37.53 42.15 37.45 42.29 37.37C42.31 37.36 42.32 37.34 42.36 37.34C42.44 37.36 42.47 37.32 42.51 37.29C42.57 37.26 42.62 37.21 42.7 37.2C42.74 37.2 42.79 37.2 42.83 37.2C42.87 37.2 42.9 37.26 42.9 37.27C42.9 37.31 42.94 37.32 42.96 37.34L42.98 37.36C42.99 37.38 42.89 37.82 42.85 37.84C42.85 37.84 42.49 38.28 42.45 38.34C42.43 38.37 42.4 38.38 42.37 38.4C42.35 38.42 42.06 38.75 42.05 38.76C41.97 38.82 41.92 38.89 41.81 38.91C41.79 38.91 41.78 38.93 41.76 38.94C41.65 39.05 41.51 39.14 41.38 39.24C41.31 39.29 41.26 39.35 41.2 39.4C41.19 39.4 41.17 39.41 41.16 39.42C41.14 39.42 41.12 39.44 41.11 39.45C40.97 39.58 40.81 39.7 40.66 39.81C40.62 39.84 40.41 39.92 40.38 39.96C40.36 39.98 40.24 39.99 40.23 40.01L40.24 39.99Z" fill="#231F20"/>
<path d="M102.15 12.97C102.15 12.89 102.19 12.82 102.25 12.76C102.27 12.74 102.31 12.74 102.33 12.76C102.36 12.81 102.38 12.86 102.4 12.89C102.43 12.92 102.54 13.36 102.6 13.51C102.65 13.66 102.7 13.8 102.7 13.95C102.73 14.25 102.75 14.55 102.78 14.84C102.78 14.91 102.78 14.97 102.78 15.04C102.75 15.27 102.76 15.5 102.79 15.72C102.79 15.76 102.79 15.8 102.82 15.83C102.87 15.89 102.91 16.51 102.88 16.59C102.83 16.79 102.81 16.99 102.77 17.19C102.77 17.22 102.77 17.25 102.75 17.28C102.68 17.34 102.69 17.4 102.68 17.47C102.67 17.56 102.67 17.64 102.62 17.73C102.6 17.77 102.56 17.82 102.54 17.86C102.51 17.9 102.45 17.88 102.44 17.86C102.41 17.82 102.38 17.86 102.35 17.86C102.34 17.86 102.33 17.86 102.32 17.86C102.3 17.86 102.04 17.38 102.05 17.32C102.05 17.32 101.95 16.64 101.94 16.51C101.94 16.47 101.94 16.42 101.95 16.38C101.95 16.34 101.89 15.79 101.89 15.77C101.89 15.65 101.87 15.53 101.93 15.41C101.94 15.39 101.93 15.36 101.93 15.34C101.93 15.14 101.94 14.93 101.96 14.73C101.96 14.63 101.96 14.52 101.96 14.42C101.96 14.4 101.96 14.38 101.97 14.36C101.97 14.34 101.98 14.31 101.98 14.29C101.98 14.04 101.99 13.8 102.01 13.55C102.01 13.49 102.09 13.22 102.09 13.15C102.09 13.11 102.15 12.99 102.15 12.96V12.97Z" fill="#231F20"/>
<path d="M104.7 15.21C104.78 15.21 104.84 15.25 104.9 15.31C104.92 15.33 104.92 15.37 104.9 15.39C104.85 15.42 104.8 15.44 104.77 15.46C104.74 15.49 104.32 15.6 104.17 15.66C104.03 15.71 103.89 15.76 103.75 15.76C103.47 15.79 103.17 15.81 102.89 15.84C102.83 15.84 102.76 15.84 102.7 15.84C102.48 15.81 102.26 15.82 102.04 15.85C102 15.85 101.97 15.85 101.93 15.88C101.87 15.93 101.28 15.97 101.2 15.94C101.01 15.89 100.81 15.87 100.62 15.83C100.59 15.83 100.56 15.83 100.54 15.81C100.48 15.74 100.42 15.75 100.36 15.75C100.28 15.74 100.19 15.74 100.11 15.69C100.07 15.67 100.03 15.63 99.9899 15.61C99.9499 15.58 99.9699 15.52 99.9899 15.51C100.03 15.48 99.9899 15.45 99.9899 15.42C99.9899 15.41 99.9899 15.4 99.9899 15.39C99.9899 15.37 100.46 15.11 100.51 15.12C100.51 15.12 101.16 15.02 101.29 15.01C101.33 15.01 101.37 15.01 101.41 15.02C101.45 15.02 101.98 14.96 102 14.96C102.11 14.96 102.23 14.94 102.34 15C102.36 15.01 102.39 15 102.41 15C102.61 15 102.8 15.01 103 15.03C103.1 15.03 103.2 15.03 103.3 15.03C103.32 15.03 103.34 15.03 103.35 15.04C103.37 15.04 103.4 15.05 103.42 15.05C103.66 15.05 103.9 15.06 104.13 15.08C104.18 15.08 104.45 15.16 104.51 15.16C104.55 15.16 104.66 15.22 104.69 15.22L104.7 15.21Z" fill="#231F20"/>
<path d="M104.04 16.69C104.1 16.74 104.1 16.82 104.1 16.89C104.1 16.91 104.07 16.95 104.04 16.94C103.99 16.93 103.94 16.91 103.91 16.91C103.87 16.91 103.53 16.71 103.39 16.65C103.27 16.59 103.14 16.54 103.05 16.44C102.85 16.27 102.65 16.1 102.45 15.93C102.41 15.89 102.37 15.85 102.33 15.8C102.21 15.63 102.06 15.5 101.91 15.38C101.88 15.36 101.86 15.33 101.82 15.33C101.75 15.33 101.34 14.96 101.32 14.89C101.23 14.73 101.13 14.59 101.03 14.43C101.02 14.41 100.99 14.4 100.99 14.36C100.99 14.27 100.96 14.24 100.92 14.2C100.88 14.14 100.83 14.08 100.8 14C100.79 13.96 100.79 13.91 100.78 13.86C100.78 13.82 100.83 13.78 100.85 13.78C100.89 13.78 100.9 13.74 100.91 13.72C100.91 13.72 100.92 13.7 100.93 13.7C100.95 13.69 101.43 13.81 101.45 13.85C101.45 13.85 101.96 14.24 102.02 14.28C102.05 14.3 102.07 14.34 102.09 14.37C102.12 14.39 102.49 14.71 102.5 14.72C102.57 14.8 102.66 14.86 102.69 14.98C102.69 15 102.71 15.02 102.73 15.03C102.86 15.15 102.97 15.3 103.08 15.44C103.14 15.51 103.21 15.57 103.27 15.64C103.28 15.65 103.29 15.67 103.3 15.68C103.31 15.7 103.32 15.72 103.34 15.73C103.49 15.88 103.63 16.05 103.77 16.22C103.8 16.26 103.91 16.49 103.96 16.53C103.98 16.56 104.01 16.68 104.03 16.69H104.04Z" fill="#231F20"/>
<path d="M100.89 16.98C100.84 17.04 100.76 17.04 100.68 17.04C100.66 17.04 100.62 17 100.63 16.98C100.65 16.93 100.66 16.88 100.67 16.84C100.67 16.8 100.91 16.45 100.97 16.31C101.04 16.18 101.1 16.06 101.21 15.96C101.4 15.76 101.59 15.55 101.78 15.35C101.82 15.3 101.87 15.26 101.92 15.23C102.1 15.11 102.25 14.96 102.38 14.8C102.4 14.77 102.43 14.75 102.44 14.71C102.44 14.64 102.85 14.23 102.92 14.2C103.09 14.11 103.25 14.01 103.41 13.91C103.43 13.9 103.45 13.87 103.49 13.87C103.58 13.88 103.61 13.84 103.66 13.8C103.73 13.76 103.79 13.7 103.88 13.68C103.92 13.67 103.98 13.67 104.03 13.66C104.07 13.66 104.11 13.72 104.1 13.73C104.1 13.77 104.14 13.78 104.16 13.8L104.18 13.82C104.19 13.84 104.03 14.33 103.99 14.36C103.99 14.36 103.58 14.85 103.51 14.94C103.49 14.97 103.45 14.99 103.41 15.01C103.39 15.04 103.03 15.42 103.02 15.43C102.93 15.5 102.87 15.59 102.74 15.62C102.72 15.62 102.7 15.64 102.69 15.66C102.56 15.79 102.4 15.9 102.25 16.02C102.17 16.08 102.11 16.15 102.03 16.21C102.02 16.22 102 16.23 101.98 16.24C101.96 16.25 101.94 16.26 101.92 16.28C101.75 16.44 101.57 16.58 101.39 16.72C101.35 16.75 101.11 16.87 101.06 16.91C101.03 16.93 100.91 16.96 100.89 16.98Z" fill="#231F20"/>
<path d="M28.2899 27.96C28.2799 27.85 28.3499 27.76 28.4199 27.67C28.4399 27.64 28.5099 27.64 28.5199 27.67C28.5599 27.74 28.5899 27.8 28.6199 27.85C28.6599 27.89 28.7999 28.49 28.8799 28.69C28.9499 28.89 29.0099 29.08 29.0199 29.28C29.0599 29.68 29.0899 30.09 29.1299 30.49C29.1299 30.58 29.1299 30.67 29.1299 30.76C29.0899 31.07 29.1099 31.38 29.1499 31.68C29.1499 31.73 29.1499 31.78 29.1899 31.83C29.2599 31.91 29.3099 32.74 29.2699 32.85C29.2099 33.12 29.1699 33.39 29.1299 33.66C29.1299 33.7 29.1299 33.74 29.0999 33.78C29.0099 33.86 29.0199 33.95 29.0099 34.03C28.9899 34.15 28.9899 34.26 28.9299 34.38C28.9099 34.44 28.8499 34.5 28.8199 34.55C28.7899 34.6 28.6999 34.58 28.6799 34.56C28.6499 34.51 28.5999 34.56 28.5599 34.56C28.5499 34.56 28.5299 34.56 28.5199 34.56C28.4899 34.56 28.1399 33.9 28.1599 33.83C28.1599 33.83 28.1299 33.58 28.0899 33.32C28.0499 33.07 28.0199 32.82 27.9999 32.74C27.9899 32.68 27.9999 32.62 28.0199 32.57C28.0199 32.52 27.9499 31.77 27.9399 31.74C27.9499 31.58 27.9199 31.42 27.9999 31.26C28.0199 31.23 28.0099 31.2 27.9999 31.16C27.9899 30.88 28.0199 30.61 28.0299 30.33C28.0299 30.19 28.0299 30.05 28.0299 29.91C28.0299 29.88 28.0399 29.86 28.0499 29.83C28.0499 29.8 28.0699 29.77 28.0599 29.73C28.0599 29.4 28.0699 29.06 28.0999 28.73C28.0999 28.65 28.2099 28.28 28.1999 28.19C28.1999 28.14 28.2899 27.97 28.2799 27.93L28.2899 27.96Z" fill="#231F20"/>
<path d="M31.74 30.98C31.85 30.97 31.94 31.04 32.02 31.11C32.05 31.13 32.04 31.2 32.02 31.21C31.95 31.25 31.89 31.28 31.84 31.31C31.8 31.35 31.23 31.49 31.03 31.57C30.84 31.64 30.65 31.7 30.46 31.71C30.07 31.75 29.68 31.78 29.29 31.82C29.2 31.82 29.12 31.82 29.03 31.82C28.73 31.78 28.44 31.8 28.14 31.84C28.09 31.84 28.04 31.84 27.99 31.88C27.91 31.95 27.11 32 27 31.96C26.74 31.9 26.48 31.86 26.22 31.82C26.18 31.82 26.14 31.82 26.11 31.79C26.03 31.7 25.95 31.71 25.87 31.7C25.76 31.68 25.65 31.68 25.53 31.62C25.47 31.6 25.42 31.54 25.36 31.51C25.31 31.48 25.33 31.39 25.35 31.37C25.4 31.34 25.35 31.29 25.35 31.25C25.35 31.24 25.35 31.22 25.35 31.21C25.35 31.18 25.98 30.83 26.05 30.85C26.05 30.85 26.29 30.82 26.54 30.78C26.78 30.74 27.03 30.71 27.1 30.69C27.15 30.68 27.21 30.69 27.27 30.71C27.32 30.71 28.04 30.64 28.07 30.63C28.23 30.64 28.38 30.61 28.54 30.69C28.57 30.71 28.6 30.7 28.63 30.69C28.9 30.68 29.16 30.71 29.43 30.72C29.57 30.72 29.7 30.72 29.84 30.72C29.86 30.72 29.89 30.73 29.91 30.74C29.94 30.74 29.97 30.76 30 30.75C30.32 30.75 30.64 30.76 30.97 30.79C31.04 30.79 31.4 30.9 31.49 30.89C31.54 30.89 31.7 30.98 31.74 30.97V30.98Z" fill="#231F20"/>
<path d="M30.8402 32.99C30.9202 33.05 30.9202 33.16 30.9202 33.26C30.9202 33.29 30.8702 33.34 30.8402 33.33C30.7702 33.31 30.7102 33.29 30.6602 33.28C30.6102 33.28 30.1402 33 29.9602 32.93C29.7902 32.85 29.6302 32.77 29.5002 32.65L28.6902 31.96C28.6302 31.91 28.5802 31.85 28.5302 31.78C28.3702 31.56 28.1702 31.37 27.9502 31.21C27.9102 31.18 27.8802 31.15 27.8302 31.14C27.7302 31.14 27.1902 30.64 27.1502 30.55C27.0302 30.33 26.8902 30.14 26.7602 29.94C26.7402 29.91 26.7102 29.89 26.7102 29.84C26.7202 29.72 26.6602 29.68 26.6202 29.62C26.5602 29.53 26.4902 29.46 26.4602 29.35C26.4402 29.3 26.4402 29.22 26.4302 29.16C26.4302 29.1 26.5002 29.06 26.5202 29.06C26.5802 29.06 26.5802 29.01 26.6102 28.98C26.6102 28.97 26.6302 28.95 26.6402 28.95C26.6702 28.93 27.3102 29.1 27.3402 29.16C27.3402 29.16 27.5102 29.3 27.7002 29.44C27.8702 29.57 28.0602 29.71 28.1102 29.75C28.1502 29.78 28.1802 29.83 28.2002 29.87C28.2302 29.9 28.7402 30.33 28.7602 30.34C28.8502 30.45 28.9702 30.53 29.0102 30.69C29.0102 30.72 29.0402 30.74 29.0602 30.76C29.2402 30.93 29.3802 31.12 29.5402 31.31C29.6202 31.41 29.7102 31.49 29.8002 31.58C29.8202 31.6 29.8202 31.62 29.8402 31.64C29.8602 31.66 29.8702 31.69 29.8902 31.71C30.1002 31.92 30.2902 32.14 30.4702 32.37C30.5102 32.42 30.6702 32.73 30.7202 32.78C30.7502 32.81 30.7902 32.98 30.8202 33L30.8402 32.99Z" fill="#231F20"/>
<path d="M26.5701 33.37C26.5001 33.45 26.3901 33.45 26.2901 33.45C26.2601 33.45 26.2201 33.4 26.2301 33.37C26.2501 33.3 26.2801 33.23 26.2901 33.18C26.2901 33.13 26.6101 32.65 26.7001 32.47C26.7901 32.3 26.8801 32.13 27.0201 32L27.7901 31.17C27.8501 31.11 27.9101 31.05 27.9801 31.01C28.2201 30.85 28.4201 30.65 28.6101 30.43C28.6401 30.39 28.6801 30.36 28.6901 30.3C28.6901 30.2 29.2401 29.65 29.3401 29.61C29.5701 29.49 29.7801 29.35 30.0001 29.21C30.0301 29.19 30.0501 29.16 30.1001 29.16C30.2201 29.17 30.2701 29.11 30.3301 29.07C30.4201 29.01 30.5001 28.94 30.6201 28.91C30.6801 28.89 30.7501 28.89 30.8201 28.89C30.8801 28.89 30.9201 28.96 30.9201 28.99C30.9101 29.05 30.9701 29.05 31.0001 29.08C31.0101 29.08 31.0201 29.1 31.0301 29.11C31.0501 29.14 30.8301 29.79 30.7701 29.83C30.7701 29.83 30.6201 30.01 30.4601 30.2C30.3101 30.38 30.1601 30.57 30.1101 30.62C30.0801 30.66 30.0301 30.69 29.9801 30.71C29.9501 30.74 29.4701 31.26 29.4601 31.28C29.3401 31.37 29.2501 31.5 29.0901 31.54C29.0601 31.54 29.0401 31.57 29.0201 31.59C28.8401 31.77 28.6301 31.92 28.4201 32.08C28.3201 32.16 28.2301 32.26 28.1301 32.34C28.1101 32.36 28.0901 32.36 28.0701 32.38C28.0401 32.4 28.0101 32.41 27.9901 32.43C27.7601 32.64 27.5201 32.83 27.2701 33.02C27.2101 33.06 26.8901 33.22 26.8301 33.27C26.7901 33.3 26.6201 33.34 26.6001 33.37H26.5701Z" fill="#231F20"/>
</svg>
