<svg width="128" height="128" viewBox="0 0 128 128" fill="none" xmlns="http://www.w3.org/2000/svg">
<path d="M59.2599 108.32C62.9799 107.21 66.6699 106 70.3499 104.71L74.3399 103.22C79.0599 101.54 83.7699 99.81 88.4699 98.04C90.5599 97.26 92.6399 96.42 94.6999 95.61C97.3699 94.65 100.05 93.49 103.01 93.39C103.93 93.39 103.79 93.43 103.11 93.82C102.77 93.99 102.31 94.36 101.76 94.69C101.47 94.88 101.17 95.07 100.87 95.26C100.71 95.36 100.54 95.45 100.38 95.56C100.2 95.64 100.02 95.71 99.8299 95.79C98.4999 96.3 97.1699 96.86 95.8499 97.42C94.5199 97.96 93.1599 98.46 91.8099 98.98C89.0999 100.01 86.3799 101.03 83.6099 102C80.2999 103.15 76.9599 104.6 73.5999 105.86C69.9099 107.24 66.1899 108.56 62.4399 109.79C60.1299 110.54 57.8099 111.27 55.4699 111.94C51.9299 112.98 48.3299 113.83 44.7299 114.58C41.9399 115.15 39.1799 115.73 36.3099 115.94C35.6799 115.96 35.0599 116.01 34.4199 116.02C32.0299 115.95 31.2799 115.6 30.8699 114.99C30.7799 114.85 30.6499 114.7 30.6099 114.57C30.4799 114.1 31.4399 113.92 33.0499 113.88C37.8499 113.64 42.9199 112.67 47.9699 111.43C51.7199 110.48 55.4899 109.44 59.2199 108.28L59.2399 108.34L59.2599 108.32Z" fill="#231F20"/>
<path d="M33.2 85.02C33.2 85.02 38.32 77.72 37 73.69C36.38 71.79 31.72 71.28 28.62 75.24C25.52 79.2 28.19 71.23 32.01 70.27C35.84 69.31 40.8 70.51 41.27 70.7C41.74 70.89 42.74 72.52 42.74 72.52L35.95 82.34L33.19 85.02H33.2Z" fill="#231F20"/>
<path d="M54.1899 54.13C54.4999 53.97 61.5099 52.16 64.0899 55.93C65.7899 58.42 70.1799 54.45 70.1799 54.45L64.9299 51.17H59.3399L54.1999 54.12L54.1899 54.13Z" fill="#231F20"/>
<path d="M69.6602 54.13C69.6602 54.13 70.8002 47.93 75.8002 47.53C79.6802 47.22 80.9302 49.5 80.9302 49.5L75.8002 45.29L70.4402 46.44L65.9702 51.41L69.6602 54.13Z" fill="#231F20"/>
<path d="M20.3101 109.79C20.3101 109.79 25.0001 110.3 25.0001 104.72C25.0001 101.38 28.0401 105.47 28.0401 105.47L24.9501 112.98L20.3101 109.8V109.79Z" fill="#231F20"/>
<path d="M58.6802 82.07V82.12C58.6802 82.31 58.7102 82.49 58.8002 82.65C58.8602 82.82 58.9502 82.97 59.0802 83.09C59.2002 83.22 59.3502 83.32 59.5202 83.37C59.6802 83.46 59.8602 83.5 60.0502 83.49L60.4202 83.44C60.6502 83.37 60.8602 83.26 61.0302 83.09L61.2402 82.81C61.3602 82.6 61.4302 82.36 61.4302 82.12V82.07C61.4302 81.88 61.4002 81.7 61.3102 81.54C61.2502 81.37 61.1602 81.22 61.0302 81.1C60.9102 80.97 60.7602 80.87 60.5902 80.82C60.4302 80.73 60.2502 80.69 60.0602 80.7L59.6902 80.75C59.4602 80.82 59.2502 80.93 59.0802 81.1L58.8702 81.38C58.7502 81.59 58.6802 81.83 58.6802 82.07Z" fill="#231F20"/>
<path d="M83.21 86.47V86.52C83.21 86.71 83.24 86.89 83.33 87.05C83.39 87.22 83.48 87.37 83.61 87.49C83.73 87.62 83.88 87.72 84.05 87.77C84.21 87.86 84.39 87.9 84.58 87.89L84.95 87.84C85.18 87.77 85.39 87.66 85.56 87.49L85.77 87.21C85.89 87 85.96 86.76 85.96 86.52V86.47C85.96 86.28 85.93 86.1 85.84 85.94C85.78 85.77 85.69 85.62 85.56 85.5C85.44 85.37 85.29 85.27 85.12 85.22C84.96 85.13 84.78 85.09 84.59 85.1L84.22 85.15C83.99 85.22 83.78 85.33 83.61 85.5L83.4 85.78C83.28 85.99 83.21 86.23 83.21 86.47Z" fill="#231F20"/>
<path d="M78.68 46.08C79.5 46.86 80.09 47.52 80.62 47.8C81.12 48.07 81.7 48.13 82.51 47.93C83.09 47.78 83.69 47.45 84.36 47.17C85.54 46.67 86.93 46.09 88.56 46.08C90.19 46.1 91.67 46.81 92.74 47.73C93.71 48.55 94.52 49.47 95.22 50.43C96.12 51.66 96.92 52.99 97.23 54.49C97.34 54.95 97.12 54.97 96.7 54.74C96.31 54.49 95.55 54.09 95.06 53.45C93.45 51.13 91.42 49 89.3 48.5C88.66 48.36 87.95 48.5 87.19 48.83C86.43 49.13 85.62 49.55 84.72 49.94C83.74 50.34 82.57 50.77 81.22 50.68C80.55 50.62 79.89 50.42 79.32 50.1C78.76 49.78 78.3 49.4 77.91 49.03C76.94 48.11 76.23 47.28 75.29 47.11C73.85 46.74 72.05 47.39 70.61 48.41C69.47 49.21 68.54 50.26 67.66 51.32C67.47 51.56 67.3 51.81 67.08 52.02C66.28 52.83 65.92 52.99 65.26 52.79C65.11 52.75 64.95 52.72 64.82 52.66C64.37 52.47 64.34 51.81 64.77 50.97C65.37 49.69 66.33 48.64 67.37 47.63C68.44 46.64 69.67 45.73 71.15 45.06C72.25 44.58 73.55 44.21 75 44.33C75.36 44.34 75.72 44.41 76.07 44.52C76.42 44.6 76.79 44.73 77.12 44.91C77.78 45.25 78.3 45.67 78.73 46.05L78.69 46.1L78.68 46.08Z" fill="#231F20"/>
<path d="M28.4201 78.14C28.7201 79.3 29.2601 80.6 29.7101 82.02C29.9301 82.75 30.1601 83.49 30.2601 84.34C30.3301 84.75 30.3301 85.19 30.3301 85.63L30.2701 86.33C30.2201 86.62 30.1301 86.93 29.9801 87.2C29.8701 87.39 29.7401 87.6 29.6001 87.75C29.4701 87.91 29.3601 88.03 29.2401 88.14C29.0101 88.37 28.7801 88.56 28.5601 88.74C28.1101 89.09 27.6801 89.41 27.2501 89.7C25.7401 90.72 24.3101 91.68 23.2701 92.9C22.7601 93.51 22.3601 94.17 22.1301 94.89C21.9101 95.61 21.8601 96.37 21.9801 97.15C22.1501 98.5 23.0601 99.78 24.0401 100.9C24.6801 101.61 25.3801 102.28 26.1201 102.85C26.9101 103.34 27.4701 104.09 28.3101 104.58C28.8301 104.87 28.8501 104.91 28.2301 105.21C27.9301 105.34 27.4301 105.52 26.7901 105.64C26.4501 105.71 26.1601 105.65 25.8001 105.62C25.6201 105.61 25.4701 105.55 25.2801 105.53C25.1301 105.46 24.9701 105.38 24.8201 105.29C23.7901 104.62 22.8901 103.86 22.1101 102.98C21.3601 102.08 20.6901 101.11 20.1601 99.99C20.0301 99.7 19.9001 99.41 19.7901 99.09C19.6801 98.75 19.5901 98.42 19.5401 98.12C19.4101 97.5 19.3701 96.83 19.3901 96.17C19.4601 94.84 19.9301 93.53 20.6501 92.5C22.3801 90.05 24.8101 88.56 26.8101 87.12C27.3301 86.74 27.8501 86.24 27.8701 86.11C27.9101 86.05 27.9201 85.69 27.9201 85.43C27.9001 85.14 27.8801 84.85 27.8201 84.54C27.6001 83.32 27.0201 82.04 26.5101 80.68C26.2001 79.84 25.9101 78.94 25.7601 77.97C25.6101 77.01 25.6301 75.93 26.0001 74.94C27.1801 72.17 29.6001 70.23 32.3201 69.42C33.3701 69.09 34.4601 68.97 35.5501 68.91C36.6401 68.91 37.7401 69.01 38.8201 69.31C39.2901 69.45 39.7601 69.59 40.2101 69.8C40.6201 70.02 40.9801 70.18 41.2301 70.39C41.4801 70.6 41.6601 70.81 41.7901 70.98C42.0401 71.36 42.0801 71.68 42.0201 72.01C41.9901 72.16 41.9801 72.32 41.9201 72.44C41.8201 72.64 41.5901 72.69 41.2601 72.63C41.1001 72.6 40.9101 72.55 40.7101 72.48C40.4901 72.42 40.2501 72.36 40.0101 72.24C38.5901 71.56 36.9601 71.24 35.3601 71.26C33.7701 71.34 32.1801 71.76 30.9301 72.68C30.0001 73.34 29.2001 74.19 28.6501 75.25C28.4601 75.53 28.4601 75.68 28.3501 75.89C28.3201 76.1 28.2401 76.3 28.2501 76.54C28.2201 77 28.2901 77.53 28.4601 78.11L28.4001 78.13L28.4201 78.14Z" fill="#231F20"/>
<path d="M56.4598 53.98C55.5398 54.71 54.5398 55.59 53.2198 56.25C52.5598 56.58 51.7998 56.83 51.0098 56.92C50.1998 57.01 49.4598 56.92 48.7698 56.79C47.7698 56.58 46.9198 56.33 46.1898 56.15C45.5498 55.99 44.9998 55.91 44.4298 55.98C43.8098 56.06 43.1798 56.25 42.5798 56.54C41.3698 57.12 40.2998 58.09 39.3598 59.22C38.5198 60.22 37.8698 61.37 37.2998 62.54C36.5798 64.06 36.2498 65.67 35.4498 67.27C35.1898 67.77 35.1798 67.71 34.9798 67.22C34.7698 66.73 34.2798 65.75 34.4098 64.66C34.7798 62.8 35.3798 60.93 36.4198 59.3C36.9398 58.48 37.5198 57.71 38.1798 57C38.8298 56.28 39.5998 55.6 40.4698 55.05C41.5098 54.4 42.6598 53.84 43.9398 53.56C45.3098 53.24 46.7098 53.52 47.7598 53.84C48.9398 54.2 49.9098 54.46 50.7898 54.32C51.6798 54.2 52.5998 53.66 53.4998 52.95C54.6098 52.1 55.7198 50.98 57.2198 50.2C59.4598 49.03 62.1798 48.99 64.4498 49.81C66.2398 50.39 67.8798 51.32 69.2898 52.58C69.6098 52.85 69.8898 53.14 70.1798 53.46C71.1398 54.7 71.0998 55.33 70.6398 55.91C70.5398 56.04 70.4498 56.19 70.3498 56.29C70.0098 56.6 69.2798 56.34 68.5898 55.71C67.5698 54.76 66.5498 53.87 65.3798 53.2C64.2298 52.52 62.9598 52.1 61.7198 52C60.7998 51.94 59.8898 52.06 59.0298 52.39C58.1598 52.71 57.4198 53.26 56.4998 54.05L56.4498 54L56.4598 53.98Z" fill="#231F20"/>
<path d="M16.7899 108.18C16.4799 108.28 7.76985 112.58 10.5299 114.2C14.2299 116.36 24.9999 114.56 24.9999 114.56L18.4099 109.85L16.7899 108.19V108.18Z" fill="#231F20"/>
<path d="M17.3401 104.82C18.2301 107.36 19.9301 109.75 22.1201 111.05C22.6501 111.37 23.2201 111.58 23.6601 111.67C23.7401 111.67 23.9001 111.7 23.9001 111.69C23.9001 111.69 23.9501 111.69 23.9701 111.69C24.0201 111.67 24.0801 111.65 24.1101 111.61C24.0901 111.64 24.2101 111.49 24.2601 111.4C24.3301 111.3 24.4001 111.16 24.4701 111.03C24.6101 110.75 24.7401 110.45 24.8701 110.12C25.1201 109.47 25.3601 108.76 25.5701 108.04C26.4301 105.14 27.1701 102.08 28.0301 99.05C28.8801 96.02 29.8201 93 30.9201 90.02C32.5201 85.68 34.3701 81.38 36.7901 77.39C41.0201 70.34 46.8701 64.14 53.9301 59.85C57.4401 57.69 61.2201 55.99 65.1201 54.72C66.0901 54.39 67.0801 54.12 68.0601 53.84L69.6001 53.48L71.1501 53.21C73.2201 52.91 75.3001 52.83 77.3701 52.91C84.7001 53.25 91.9001 55.52 98.1001 59.32C102.06 61.78 105.67 64.94 108.44 68.78C111.23 72.58 113.07 77.19 113.26 81.88C113.29 84.8 113.1 84.36 112.23 82.1C111.99 81.54 111.66 80.88 111.3 80.14C110.81 79.43 110.53 78.57 109.99 77.73C109.73 77.3 109.51 76.85 109.22 76.4C108.94 75.95 108.63 75.5 108.38 75.01C108.09 74.54 107.79 74.05 107.51 73.54C107.19 73.05 106.87 72.55 106.56 72.03C101.81 64.8 93.9301 59.8 85.4701 57.45C81.2301 56.29 76.7801 55.78 72.4601 56.23C71.3801 56.33 70.3201 56.53 69.2701 56.78C68.2101 57.04 67.1001 57.35 66.0301 57.7C63.8801 58.38 61.7701 59.19 59.7201 60.14C54.8101 62.39 50.2701 65.68 46.4401 69.71C42.6001 73.74 39.5001 78.48 37.0301 83.49C34.2901 89 32.3301 94.9 30.6801 100.91C29.8401 103.92 29.1301 106.96 28.1401 110.05C27.8801 110.83 27.6001 111.6 27.2001 112.41C26.9701 112.83 26.8001 113.19 26.3901 113.67C25.9801 114.14 25.4801 114.51 24.8801 114.66C23.5701 114.97 22.6401 114.63 21.7801 114.32C20.9201 113.98 20.1701 113.52 19.4701 113C16.0501 110.43 14.0201 106.45 13.4701 102.39C13.1701 100.38 13.2301 98.26 13.4801 96.35C13.6401 94.39 13.9601 92.46 14.2801 90.52C16.4101 78.81 21.8201 67.74 29.4901 58.83C35.4501 51.91 42.5401 46.09 50.8001 42.16C52.6301 41.32 54.4401 40.52 56.4001 39.92C60.0101 38.77 62.5601 38.51 64.3301 38.51C65.2201 38.5 65.9201 38.59 66.4901 38.72C67.0601 38.84 67.5101 39.02 67.9001 39.25C68.2501 39.45 68.7101 39.66 68.9001 39.84C69.5001 40.53 66.5601 40.32 61.5101 41.37C57.7601 42.19 54.0801 43.59 50.5701 45.42C47.0501 47.23 43.6801 49.45 40.5501 52C34.2701 57.07 28.8101 63.36 24.7301 70.47C23.2401 73.12 21.9001 75.86 20.7601 78.68C19.6701 81.52 18.7001 84.42 18.0101 87.39C17.3201 90.36 16.8201 93.38 16.5901 96.42C16.4301 97.98 16.3501 99.37 16.4801 100.77C16.6101 102.16 16.9101 103.53 17.3901 104.81L17.3201 104.85L17.3401 104.82Z" fill="#231F20"/>
<path d="M59.1902 107.04C63.3102 105.69 67.4202 104.25 71.5002 102.74L75.9302 101.01C81.1702 99.05 86.4102 97.05 91.6002 94.95C93.9002 94.02 96.1902 93 98.4302 91.97C99.8802 91.32 101.29 90.6 102.76 90C103.49 89.69 104.23 89.39 104.97 89.11C105.34 88.96 105.72 88.85 106.11 88.75C106.5 88.65 106.88 88.53 107.28 88.46C108.31 88.35 108.24 88.51 107.67 89.31C107.39 89.72 106.96 90.22 106.44 90.8C105.89 91.34 105.19 91.82 104.37 92.24C102.93 92.99 101.45 93.64 99.9602 94.28C98.4702 94.92 96.9802 95.56 95.4702 96.17C92.4602 97.41 89.4202 98.58 86.3402 99.69C82.6502 101.01 78.9302 102.67 75.1902 104.11C71.0802 105.69 66.9302 107.19 62.7702 108.62C60.2002 109.5 57.6202 110.35 55.0402 111.17C51.1202 112.41 47.1402 113.53 43.1602 114.51C40.0602 115.26 37.0202 116.07 33.7602 116.33C33.0402 116.38 32.3202 116.43 31.5702 116.39C30.8702 116.34 30.2802 116.25 29.7802 116.11C29.2902 115.97 28.9002 115.74 28.6102 115.54C28.0202 115.08 27.8002 114.64 27.7702 114.21C27.7602 114.01 27.7302 113.79 27.7702 113.65C27.8502 113.41 28.1502 113.42 28.5502 113.49C28.9702 113.55 29.5602 113.59 30.3602 113.65C32.7502 113.91 35.5302 113.44 38.2802 112.91C41.0402 112.35 43.8502 111.65 46.6602 110.86C50.8302 109.7 55.0102 108.39 59.1502 106.98L59.1802 107.04H59.1902Z" fill="#231F20"/>
<path d="M62.8701 81.68C62.9601 82.66 62.6201 83.51 62.0001 84.16C61.7701 84.39 61.5501 84.63 61.2601 84.77C60.2701 85.23 58.9301 85.04 58.2101 84.06C57.9201 83.64 57.8301 83.18 57.8301 82.76C57.8301 82.48 57.8801 82.2 58.0201 81.93C58.1601 81.67 58.4201 81.44 58.7101 81.38C58.9001 81.34 58.9701 81.64 59.0801 81.95C59.1601 82.27 59.4501 82.56 59.5301 82.59C59.6201 82.67 59.8101 82.73 59.8101 82.72C59.7201 82.75 59.6201 82.84 59.5901 82.88V82.9L59.7201 82.69C59.7201 82.71 59.7101 82.74 59.7201 82.78C59.7901 82.97 60.0101 82.78 60.1801 82.73C60.3701 82.68 60.5901 82.49 60.6701 82.21C60.7201 82.05 60.7301 81.88 60.6701 81.74C60.5901 81.52 60.3101 81.29 60.0801 81.34C59.9201 81.37 59.8501 81.61 59.8701 81.74C59.8701 81.77 59.9001 81.8 59.9001 81.81C59.9001 81.85 59.7501 81.81 59.2501 81.94L58.9101 82.03C58.5501 82.15 58.1401 82.03 58.0501 81.56C57.9201 80.88 58.2401 80.19 58.8001 79.74C59.0801 79.51 59.4801 79.34 59.8701 79.28C60.2601 79.22 60.6501 79.26 60.9901 79.37C61.5101 79.53 61.9501 79.83 62.2901 80.23C62.6401 80.63 62.8601 81.17 62.9301 81.65H62.8801L62.8701 81.68Z" fill="#231F20"/>
<path d="M87.7801 86.49C87.6201 87.57 86.9701 88.48 86.1101 88.92C85.7901 89.07 85.4901 89.26 85.1201 89.27C84.4901 89.3 83.8601 89.09 83.3301 88.75C83.2001 88.66 83.0701 88.57 82.9601 88.46C82.8501 88.34 82.7701 88.2 82.6601 88.09C82.4701 87.86 82.3101 87.6 82.2201 87.38C82.0201 86.98 81.8401 86.51 81.9301 85.99C82.0101 85.35 82.4901 84.74 83.1601 84.75C83.3701 84.77 83.3101 84.98 83.2801 85.22C83.2301 85.47 83.3701 85.8 83.4501 85.89C83.4701 85.93 83.5101 85.97 83.5501 86.01C83.5801 86.04 83.6901 86.06 83.6001 86.05H83.5601H83.5401C83.5401 86.05 83.9601 86.03 83.7601 86.05H83.8301C83.8701 86.05 83.9201 86.04 83.9201 86.05C83.9401 86.07 84.0001 86.13 84.0301 86.21C84.0101 86.26 83.9901 86.34 84.0001 86.44C84.0401 86.7 84.2601 86.68 84.4301 86.69C84.6401 86.71 84.8801 86.58 85.0001 86.35C85.0801 86.21 85.1201 86.03 85.0901 85.85C85.0601 85.58 84.9001 85.26 84.6001 85.16C84.3701 85.09 84.1001 85.25 83.9701 85.39C83.9401 85.42 83.9201 85.48 83.9001 85.49C83.8801 85.51 83.8601 85.51 83.8301 85.5C83.7901 85.47 83.7301 85.4 83.6701 85.34C83.5801 85.25 83.4401 85.1 83.2101 84.87L82.9401 84.62C82.6801 84.38 82.5001 83.95 82.7001 83.41C83.5901 82.37 85.4501 82.3 86.6201 83.41C87.5201 84.16 87.9101 85.4 87.8301 86.51H87.7601L87.7801 86.49Z" fill="#231F20"/>
<path d="M79.8198 72.11C79.4998 72.94 78.9098 73.43 78.2698 73.71C78.0298 73.8 77.7998 73.94 77.5198 73.96C77.0398 73.99 76.5098 73.88 76.1498 73.57C75.7898 73.27 75.5898 72.9 75.4798 72.56C75.3798 72.25 75.3198 71.95 75.3398 71.66C75.3398 71.29 75.4798 70.87 75.8198 70.67C75.9198 70.61 76.0198 70.72 76.1198 70.88C76.2198 71.04 76.3998 71.23 76.4798 71.33C76.5798 71.5 76.7498 71.61 76.8598 71.67C76.9398 71.75 76.9898 71.78 76.9798 71.85C76.9998 71.92 77.0098 71.89 77.0998 71.87C77.1998 71.87 77.3898 71.79 77.4798 71.68C77.5398 71.62 77.5898 71.56 77.5998 71.49C77.6298 71.39 77.5698 71.18 77.3698 71.11C77.2198 71.06 77.0198 71.19 76.9798 71.31C76.9698 71.34 76.9598 71.35 76.9598 71.35C76.9298 71.29 76.8098 71.05 76.5298 70.66L76.3298 70.39C76.1198 70.12 76.0198 69.75 76.2298 69.37C76.5698 68.84 77.1998 68.74 77.7198 68.8C78.2598 68.87 78.7598 69.11 79.1798 69.52C79.4898 69.82 79.7398 70.23 79.8698 70.7C79.9998 71.17 79.9898 71.68 79.8698 72.12H79.8098L79.8198 72.11Z" fill="#231F20"/>
<path d="M95.2902 24.23C95.5302 24.36 95.3602 24.67 94.9802 25.07C94.8602 25.2 94.4002 25.44 94.3102 25.42C94.1202 25.38 93.9402 25.34 93.7802 25.28C93.6902 25.24 92.8102 24.35 92.4702 24.07C92.1502 23.8 91.9002 23.48 91.6702 23.15L90.1902 21.15C90.0802 21 90.0002 20.83 89.9502 20.65C89.7602 20.02 89.4402 19.47 89.0702 18.94C89.0102 18.85 88.9702 18.75 88.8202 18.71C88.5702 18.66 87.7102 17.1 87.6802 16.86C87.6102 16.25 87.4702 15.68 87.3802 15.08C87.3702 15 87.2902 14.93 87.3802 14.81C87.5802 14.53 87.4902 14.38 87.4602 14.2C87.4102 13.96 87.3902 13.7 87.4502 13.41C87.4702 13.27 87.5902 13.1 87.6602 12.95C87.7302 12.81 88.0702 12.75 88.1202 12.76C88.2702 12.82 88.4002 12.68 88.5302 12.62C88.5802 12.6 88.6302 12.57 88.6802 12.56C88.7502 12.56 90.2102 13.36 90.2302 13.49C90.2302 13.49 90.3002 13.6 90.3902 13.76C90.4902 13.92 90.6202 14.12 90.7602 14.33C91.0402 14.75 91.3402 15.18 91.4202 15.26C91.5002 15.34 91.4902 15.48 91.5002 15.6C91.5002 15.66 92.4602 16.87 92.4802 16.93C92.6002 17.22 92.8702 17.44 92.7902 17.85C92.7802 17.93 92.8202 17.98 92.8502 18.03C93.1402 18.5 93.3102 19.05 93.5202 19.57C93.6302 19.84 93.7902 20.08 93.9202 20.33C93.9402 20.38 93.9402 20.44 93.9502 20.49C93.9602 20.56 93.9702 20.63 94.0002 20.69C94.3402 21.28 94.5602 21.95 94.9702 22.51C95.0602 22.64 95.1902 23.45 95.3002 23.59C95.3602 23.67 95.2002 24.15 95.3002 24.2L95.2902 24.23Z" fill="#231F20"/>
<path d="M102.4 24.3C102.49 24.53 102.14 24.56 101.52 24.48C101.32 24.45 100.78 24.25 100.72 24.17C100.6 24.02 100.49 23.86 100.42 23.72C100.38 23.64 100.45 22.55 100.45 22.17C100.45 21.8 100.54 21.47 100.65 21.14L101.31 19.15C101.36 19 101.44 18.87 101.55 18.75C101.93 18.33 102.13 17.85 102.27 17.33C102.29 17.24 102.34 17.17 102.27 17.04C102.16 16.84 102.66 15.48 102.85 15.36C103.26 15.03 103.58 14.67 103.94 14.33C103.99 14.28 103.98 14.2 104.13 14.2C104.46 14.2 104.48 14.05 104.57 13.93C104.68 13.76 104.82 13.61 105 13.48C105.09 13.41 105.28 13.4 105.44 13.37C105.59 13.34 105.95 13.57 105.98 13.62C106.06 13.76 106.28 13.78 106.44 13.85C106.5 13.87 106.57 13.9 106.61 13.93C106.7 13.98 106.95 15.34 106.9 15.45C106.9 15.46 106.79 15.87 106.68 16.3C106.58 16.73 106.48 17.18 106.47 17.28C106.46 17.38 106.35 17.44 106.27 17.51C106.23 17.54 105.9 18.82 105.87 18.86C105.72 19.09 105.71 19.38 105.35 19.52C105.28 19.55 105.27 19.6 105.25 19.65C105.09 20.09 104.81 20.47 104.56 20.87C104.43 21.07 104.37 21.3 104.27 21.52C104.25 21.56 104.2 21.58 104.17 21.62C104.13 21.66 104.07 21.7 104.06 21.75C103.86 22.27 103.51 22.74 103.39 23.29C103.36 23.42 102.86 23.88 102.84 24.03C102.83 24.11 102.34 24.22 102.38 24.32L102.4 24.3Z" fill="#231F20"/>
<path d="M108.34 30.44C108.23 30.61 108.01 30.49 107.71 30.2C107.62 30.11 107.45 29.78 107.47 29.71C107.51 29.57 107.55 29.43 107.61 29.32C107.64 29.25 108.41 28.59 108.67 28.35C108.92 28.11 109.2 27.94 109.49 27.78C110.08 27.47 110.66 27.14 111.26 26.84C111.39 26.77 111.54 26.73 111.69 26.71C112.21 26.64 112.67 26.45 113.13 26.21C113.21 26.17 113.29 26.15 113.34 26.04C113.4 25.81 114.74 25.45 114.93 25.46C115.41 25.51 115.85 25.44 116.33 25.51C116.4 25.51 116.46 25.49 116.54 25.57C116.73 25.76 116.85 25.7 116.99 25.7C117.18 25.7 117.38 25.7 117.58 25.73C117.68 25.75 117.79 25.83 117.9 25.88C118 25.93 118.01 26.18 117.99 26.21C117.93 26.31 118.02 26.4 118.06 26.5C118.07 26.53 118.09 26.58 118.09 26.6C118.09 26.63 117.24 27.52 117.15 27.6C117.15 27.68 115.76 28.32 115.62 28.42C115.54 28.47 115.44 28.45 115.35 28.45C115.31 28.45 114.24 29.05 114.19 29.03C113.94 29.07 113.73 29.23 113.43 29.11C113.37 29.09 113.33 29.11 113.28 29.13C112.88 29.29 112.45 29.35 112.03 29.45C111.81 29.5 111.62 29.6 111.41 29.67C111.37 29.68 111.32 29.67 111.28 29.67C111.23 29.67 111.17 29.67 111.12 29.69C110.64 29.89 110.12 30 109.66 30.26C109.55 30.32 108.94 30.37 108.82 30.45C108.75 30.49 108.4 30.36 108.36 30.43L108.34 30.44Z" fill="#231F20"/>
</svg>
