<?xml version="1.0" encoding="UTF-8"?><svg id="Layer_3" xmlns="http://www.w3.org/2000/svg" width="128" height="128" viewBox="0 0 128 128"><defs><style>.cls-1{fill:#231f20;}</style></defs><path class="cls-1" d="m84.09,116.7c-.22.27-.42.43-.63.56-.23.15-.35.26-.83.36-.59.05-.88-.13-1.19-.31-.3-.19-.54-.43-.77-.73-.38-.52-.77-1.12-1.15-2.24-.39-1.07-.69-2.85-.87-4.43l-.07-.45c0-.17-.09-.29-.07-.3,0-.02-.02-.05-.03-.06h0s-.01,0,.05-.04l.21-.17c.25-.25.28-.36.28-.35,0,.02,0,.01,0,.04,0,.05,0,.09,0,.13v.03s0,.01,0,.01l.09.57h0s0,0,0,0h0s0,0,0,0h-.02s-.03.02-.03.02c-.09.02-.11.04-.16.1-.05.04-.12.14-.2.3-.3.58-.46,1.65-.51,2.69l-.07,1.28c-.02.47-.04.94-.1,1.38-.08.91-.3,1.66-.59,2.19-.29.54-.59.98-1.05,1.34-.23.17-.51.33-.83.41-.16.05-.33.06-.49.08-.17-.01-.34-.04-.46-.1-.47-.22-.71-.57-1.03-1.03-.28-.49-.62-1.08-.82-2l-.54-2.29c-.05-.17-.08-.41-.12-.53l-.09-.34c-.06-.22-.13-.45-.2-.64-.08-.22-.12-.3-.18-.4-.06-.1-.13-.19-.21-.27-.17-.18-.46-.14-.61.03-.11.1-.2.21-.28.33l-.06.09-.1.16c-.07.1-.13.22-.18.34-.23.47-.35,1-.47,1.56-.25,1.12-.2,2.34-.39,3.6-.12.79-.32.69-.73.06-.43-.64-1.09-1.82-1.08-3.46,0-.72.12-1.49.39-2.25.13-.38.3-.75.52-1.14.06-.17.3-.44.5-.69.19-.27.42-.46.65-.67.44-.46.98-.63,1.52-.68.56-.07,1.12.15,1.57.46.22.18.42.39.62.6.17.25.35.49.49.77.29.57.44.82.57,1.18.37.94.21.62.24.76,0,.07,0,.16,0,.3.01.13.02.31.09.51.1.17.27.2.36.17.13-.03.19-.21.23-.41.02-.11.03-.22.05-.34l.04-.5c.08-.81.15-1.67.36-2.59.12-.46.28-.96.57-1.46.29-.5.77-1.02,1.39-1.32.23-.1.46-.2.69-.24.13-.02.21-.05.37-.07.19-.01.38-.02.59.02.42.07.79.31,1.03.54.23.23.39.46.49.66.05.09.13.22.13.27,0,.03.04.04.03.07l.04.15c.02.1.04.21.06.33.07.45.11.96.23,1.5.06.26.13.53.26.79.06.13.14.25.24.35.13.11.22-.04.26-.12.25-.74.26-1.69.44-2.77.05-.22.17-1.26.65-2.21.14-.24.31-.55.73-.81.2-.13.48-.2.75-.21.2.02.39.03.58.11.4.13.69.4.88.65.13.17.09.14.14.21.03.05.05.1.07.16.29.87.28,1.87.44,2.7.06.32.13.61.32.78.09.09.25.12.41.03.14-.14.15-.4.19-.6.13-.86.12-1.64.1-2.24-.01-.27-.06-.55-.07-.74-.07-.7.06-.72.5-1.29.1-.14.17-.31.25-.41.15-.16.38-.16.77.22.11.12.24.25.33.43.11.17.2.38.28.62.16.46.39,1.09.45,1.74.12.97.25,2.07.25,3.12-.04.98-.17,1.87-.33,2.66-.17.79-.42,1.37-.69,1.77-.28.41-.59.52-.9.73l-.26.14c-.09.05-.23.13-.43.11-.37.02-.68,0-.88-.06-.41-.1-.61-.19-.84-.32-.22-.13-.44-.27-.72-.58-.27-.32-.66-.78-1-2.04-.07-.19-.11-.52-.16-.8-.06-.25-.07-.64-.1-.99-.05-.7-.05-1.44-.11-2.03l-.1-.87-.06-.38-.03-.19-.05-.11v-.03c-.14.08.16-.13.13-.11h0s.02-.01.02-.01l.07-.05c.44-.33.55-.52.55-.55.01-.04-.03.08-.01.15h0s0,0,0,0c0,.11,0-.91,0-.48h0s0,0,0,0h0s0,0,0-.01c0-.02.03.09.05.11.02,0,.09.13.17.2.08.08.15.11.29.24.24.2.67.39.53.36-.05.08-.16.41-.23.76-.02.12-.03.13-.07.34l-.1.64c-.05.44-.12.85-.13,1.31l-.14,2.8c-.04.96-.18,1.78-.36,2.33-.18.57-.4.92-.6,1.16l-.04-.14Z"/><path class="cls-1" d="m87.22,57.06c.05,1.97.02,3.95-.05,5.93-.02.72.02,1.45-.04,2.17-.23,2.55-.59,5.11-1.42,7.63-.41,1.1-.72,2.29-1.73,3.34-.32.32-.83.68-1.35.81-.54.12-1.11.03-1.61-.23-.51-.27-.92-.73-1.09-1.15-.08-.2-.18-.39-.23-.59-.05-.2-.03-.43-.03-.64.05-.54.17-.48.69-.32.24.09.72.13,1.03.22.35.1.68.07.61.04.02,0-.02,0,.02-.02.12-.17.43-.61.67-1.13.49-1.06.87-2.37,1.22-3.7.42-1.62.37-3.39.42-5.12.05-1.91.05-3.83-.02-5.76-.05-1.19-.11-2.37-.2-3.56-.15-1.6-.63-3.41-1.48-4.76-.17-.25-.37-.49-.54-.64-.15-.12-.31-.2-.48-.24-.34-.09-.66.14-.81.36-.04.06-.08.12-.11.18-.05.1-.13.19-.2.27-.49.75-1.09.83-1.75.73-.16-.02-.32-.03-.45-.06-.22-.06-.36-.23-.46-.53-.1-.3-.19-.77-.04-1.24.14-.35.28-.7.51-1.05.05-.09.11-.18.17-.26l.27-.3c.18-.2.4-.39.64-.56.93-.71,2.25-.91,3.38-.43.56.23,1.09.62,1.52,1.06.39.41.64.74.87,1.1.46.71.78,1.41,1.05,2.11.4,1.05.68,2.09.85,3.24.09.65.1,1.09.14,1.6l.08,1.49h-.07Z"/><path class="cls-1" d="m77.24,64.87c.23-2.87.34-5.84.24-8.67-.04-1.05-.19-2.11-.29-3.1-.19-1.74-.6-3.4-1.58-4.43-.49-.53-1.11-.82-1.75-.93-.65-.13-1.42.12-2.17.46-1.33.68-2.55,1.81-3.61,3.02-1.4,1.56-2.44,3.43-4.18,4.85-.58.42-.61.29-.63-.41-.09-.74-.04-1.99.57-3.13,1.21-1.93,2.59-3.8,4.46-5.45.96-.8,2.06-1.53,3.46-1.96.36-.09.74-.15,1.11-.21.37-.06.79,0,1.18,0,.39,0,.78.16,1.16.26.39.09.72.3,1.04.49,1.59.9,2.56,2.42,3.16,3.87.6,1.47.87,2.94,1.03,4.35.17,1.52.25,3.09.23,4.61,0,1.53-.05,3.04-.14,4.56-.1,1.87-.28,3.74-.52,5.6-.19,1.42-.45,2.83-.85,4.25-.19.71-.44,1.42-.77,2.12-.16.36-.35.7-.6,1.06-.28.42-.64.76-1.04,1.03-.13.1-.28.16-.42.24-.16.08-.34.09-.51.15-.17.05-.35.1-.53.08-.36.02-.71-.08-1.05-.19-.32-.16-.65-.32-.92-.58-.29-.22-.56-.54-.74-.76-.76-.96-1.24-1.97-1.57-3.03-.15-.49-.31-.98-.4-1.49-.29-1.93.41-2.59.95-2.92.13-.08.24-.18.33-.22.16-.07.28.09.51.4.12.15.24.34.39.57.15.22.23.47.36.74.05.15.13.29.19.44l.14.45c.11.29.2.59.33.87.23.58.51,1.12.78,1.61.14.25.29.46.43.66.06.08.18.2.19.21.02.02.03,0,.04.01.04,0,.06-.03.06-.05,0,0,0-.02,0-.02h0s-.01,0,0,0l.06-.09c.16-.29.33-.67.48-1.09.79-2.38,1.13-5.37,1.32-8.24h.08Z"/><path class="cls-1" d="m63.95,29.36c-.02-1.91-.11-3.85-.52-5.53-.1-.41-.23-.8-.38-1.09-.03-.08-.08-.15-.1-.19-.01-.04-.03-.04-.04-.07-.03-.04-.06-.08-.11-.1-.09-.05-.2-.06-.3-.01-.11.05-.13.07-.38.45-.59,1.03-.97,2.41-1.35,3.74-1.33,4.78-2.15,9.84-2.88,14.86-.31,2.24-.53,4.5-.73,6.73-.28,2.87-.27,5.77-1.14,8.59-.3.88-.46.74-.83-.05-.4-.8-1.03-2.26-.99-3.93.18-2.95.39-5.9.75-8.85.38-2.94.86-5.89,1.46-8.82.75-3.51,1.21-7.21,2.37-10.83.35-1,.69-1.99,1.36-3.02.09-.12.18-.28.31-.43l.44-.41c.14-.15.32-.23.49-.34.17-.11.35-.18.55-.23.77-.23,1.61-.1,2.26.36.32.22.6.53.83.84.21.31.34.56.47.84.25.54.41,1.08.54,1.6.26,1.05.4,2.09.5,3.11.24,2.53.22,5.02.17,7.5-.09,3.76-.47,7.51-.77,11.21-.24,2.88-.37,5.71-.63,8.56-.06.63-.09,1.25-.18,1.88-.12,1.18-.42,1.92-.65,2.44-.13.26-.26.45-.41.61-.17.15-.35.26-.53.35-.17.08-.33.2-.46.24-.37.12-.78-.89-.76-2.59.18-5.04.74-10.34,1.09-15.64.14-1.97.24-3.94.35-5.91.11-1.97.17-3.93.13-5.87h.07Z"/><path class="cls-1" d="m49.24,78.72c-.7-1.43-1.36-2.9-1.87-4.47-.31-.75-.43-1.62-.65-2.43-.12-.4-.12-.87-.17-1.3-.03-.44-.09-.89-.08-1.33.04-1.71.37-3.54,1.3-5.19.92-1.67,2.47-2.93,4.05-3.67,2.34-1.11,4.7-1.49,6.95-1.79l2.92-.34c.96-.11,1.78-.28,2.67-.55,1.74-.52,3.43-1.35,5.09-2.31.83-.48,1.65-.99,2.48-1.52.86-.53,1.64-1.06,2.73-1.58.7-.31,1.49-.55,2.21-.25.33.19.7.29.97.58l.43.37c.13.14.25.32.35.47.77,1.2.77,2.46.69,3.55-.21,1.97-.88,3.73-1.85,5.38-1.05,1.66-2.41,2.91-3.89,4.01-1.91,1.37-4.06,2.39-6.31,3.01-2.24.63-4.62.92-6.91.48-.71-.25-.99-.4-.97-.48.03-.09.38-.15.97-.4.59-.27,1.4-.51,2.33-.89.93-.34,2-.63,3.14-.97,2.04-.56,3.96-1.48,5.67-2.62.86-.57,1.65-1.21,2.34-1.94.36-.34.67-.75.95-1.11.27-.34.5-.77.72-1.2.45-.86.73-1.83.88-2.75.15-.91.11-1.84-.13-2.27-.02-.06-.05-.11-.08-.15-.02-.03.01-.02,0-.05-.02-.03-.04-.07-.08-.09-.07-.07-.16-.06-.27-.03-.79.34-1.83.99-2.8,1.56-2.39,1.41-4.93,2.94-7.83,3.86-.72.23-1.47.43-2.23.56-.74.13-1.45.23-2.16.32-1.41.19-2.78.36-4.1.6-1.44.27-2.84.64-4.01,1.27-1.18.63-2.09,1.53-2.64,2.69-.57,1.14-.73,2.59-.71,3.96l.08,1.03c0,.34.14.7.21,1.05l.24,1.05.36,1.05c1.21,3.44,3.1,6.74,5.09,9.93,3.05,4.85,6.48,9.48,9.65,14.32,2.62,3.81,3.86,8.32,4.4,12.75.11.98.22,1.94.27,2.93.09,1.83.08,3.03-.05,3.88-.16.85-.39,1.33-.67,1.72-.12.18-.23.41-.33.52-.17.18-.33-.11-.57-.76-.24-.65-.5-1.67-.61-2.98-.2-1.94-.44-3.89-.77-5.81-.3-1.92-.72-3.81-1.33-5.63-.3-.9-.65-1.84-1.06-2.65-.37-.78-.91-1.63-1.43-2.47-1.08-1.68-2.28-3.36-3.47-5.06-1.78-2.51-3.57-5.06-5.29-7.68-1.73-2.62-3.42-5.29-4.87-8.16l.06-.04Z"/><path class="cls-1" d="m85.62,92.49c.19-1.69.62-3.08.99-4.52l1.19-4.16c.28-1.01.47-2.03.72-3.03.93-3.52,1.64-7.09,1.78-10.69.02-.8.06-1.6-.03-2.39-.07-.79-.11-1.59-.29-2.36l-.3-1.48-.37-1.46c-.19-1-.56-1.91-.52-3.05,0-.7.08-.66.65-.3.27.18.77.41,1.2.77.22.18.47.38.68.62.2.24.32.53.44.82l.61,1.62c.2.54.25,1.12.37,1.67.25,1.12.32,2.26.41,3.39.06.57.02,1.13.02,1.7-.02.56.01,1.13-.07,1.69-.13,1.12-.25,2.24-.5,3.33-.52,2.62-.9,5.33-1.57,7.93-.71,2.85-1.63,5.64-2.25,8.37-.4,1.65-.45,3.28-.28,5.02.26,2.6.81,5.25,1.59,7.79.61,1.98,1.42,3.85,2.21,5.75.17.42.37.82.53,1.24.49,1.62.51,2.19.02,2.76-.1.12-.18.27-.26.35-.24.26-1.05-.18-1.67-1.28-.52-.8-.92-1.65-1.31-2.53-.39-.87-.77-1.77-1.11-2.68-.7-1.83-1.31-3.72-1.82-5.68-.38-1.45-.7-2.93-.91-4.46-.21-1.53-.35-3.1-.23-4.76h.07Z"/><path class="cls-1" d="m34.74,39.29l-2.49-4.33c-.23-.46-.41-.95-.53-1.48-.11-.49-.2-1.18-.09-1.91.11-.71.46-1.35.95-1.84.49-.49,1.16-.76,1.85-.82h.76c.25.05.5.11.75.16.27.05.38.12.58.18.18.06.36.13.49.21.58.3,1.22.57,1.72.96,3.71,2.63,6.2,6.1,8.55,9.57,1.02,1.56,2.01,3.14,2.96,4.72,1.26,2,2.3,4.17,2.85,6.51.18.73.01.68-.49.23-.31-.28-.66-.6-1.02-.92-.21-.19-.43-.4-.66-.62-.11-.11-.22-.23-.35-.34-.09-.13-.18-.26-.28-.4-1.35-1.93-2.51-3.95-3.84-5.88-1.33-1.92-2.61-3.87-4.02-5.73-1.68-2.2-3.89-4.21-6.23-5.37l-.48-.25-.42-.16c-.14-.04-.28-.08-.43-.06-.31.02-.52.33-.52.63-.02.15,0,.45.06.77.05.31.17.61.3.91.34.71.71,1.42,1.12,2.11.99,1.72,2.01,3.43,3.05,5.13,1.57,2.57,3.14,5.18,4.75,7.71,1.25,1.97,2.6,3.82,3.86,5.78.28.43.56.85.83,1.29.43.86.67,1.46.75,1.92.04.49-.03.81-.16,1.1-.06.13-.1.29-.16.37-.11.15-.31.08-.63-.14-.32-.22-.77-.57-1.18-1.13-.3-.41-.67-.79-.95-1.22-.29-.43-.59-.85-.88-1.28-.58-.87-1.17-1.75-1.77-2.63-1.18-1.78-2.35-3.6-3.52-5.44-1.73-2.73-3.44-5.49-5.14-8.28l.05-.04Z"/><path class="cls-1" d="m83.28,108.12c-1.52.58-3.06,1.12-4.64,1.55-.58.15-1.11.42-1.71.52-2.06.46-4.2.56-6.3.55-.93,0-1.87,0-2.8-.09-.6-.06-1.19-.16-1.78-.27-.3-.03-.58-.18-.85-.34-.27-.15-.53-.31-.79-.48-.32-.22-.16-.48.25-.78.2-.15.47-.33.77-.49.15-.08.3-.16.46-.22.08-.04.15-.05.23-.09.07,0,.15,0,.22,0,2.11.05,4.17.1,6.4.07.67-.01,1.34-.15,2-.29.66-.2,1.33-.36,1.99-.55,1.46-.4,2.93-.84,4.35-1.41.89-.33,1.75-.72,2.62-1.11l1.93-.97c.63-.36,1.26-.71,1.85-1.11.46-.32.88-.67,1.3-1.04.42-.36.78-.79,1.23-1.1.19-.14.36-.31.56-.45.81-.42,1.19-.4,1.71-.06.12.08.24.14.34.22.31.25.28.82-.08,1.49-.5,1.03-1.28,1.79-2.12,2.46-.85.67-1.76,1.29-2.71,1.84-1.4.85-2.9,1.54-4.39,2.22l-.03-.07Z"/><path class="cls-1" d="m103.07,38.53c-.13.61-.36,1.31-.94,1.96-.19.24-.45.49-.78.64-.6.24-1.25.19-1.73-.05-.47-.25-.81-.61-1.02-1.04-.1-.18-.16-.39-.23-.58-.03-.21-.06-.42-.02-.62.04-.53.36-.95.75-1.15.13-.06.25.1.39.33.14.23.3.52.36.65.04.25.32.26.31.26,0,.02.03.08.05.2,0,.09.07.12.09.11.03,0,.02-.02.05-.03.08,0,.29-.26.39-.62.05-.21.11-.53.12-.7,0-.08,0-.1,0-.15-.04.02.11-.07.13-.11.03-.04-.01.02,0,.02,0,0-.05.14-.03.11,0,0-.04,0-.09.03-.16.06-.32.37-.42.59-.03.04-.04.1-.08.14-.13.12-.27.03-.79-.34l-.36-.24c-.4-.27-.63-.65-.54-.99.07-.25.17-.48.31-.69.16-.19.35-.35.57-.49.23-.14.5-.26.85-.33.35-.06.83-.1,1.4.13.43.18.81.52,1.03.88.09.16.19.35.23.5.04.14.07.29.1.43.02.23.03.5,0,.66l-.06.48h-.06Z"/><path class="cls-1" d="m118.05,68.31c-.1.57-.41,1.07-.77,1.38-.35.33-.76.56-1.2.7-.32.1-.63.23-.98.2-.6-.04-1.18-.31-1.61-.72-.43-.41-.76-.91-.84-1.47v-.05c-.07-.46-.1-.94.07-1.34.13-.48.42-.96.91-1.13.16-.05.29.17.43.44.13.27.35.6.39.74.03.15.12.31.16.37-.02,0-.03,0-.1.05-.02.03-.08.12-.09.26,0,.25.21.24.35.27.18.06.45-.04.58-.15.11-.05.2-.13.23-.24.04-.17-.12-.54-.37-.56-.18-.03-.29.16-.36.31-.02.03-.01.08-.03.11-.02.03-.04.04-.06.05-.04,0-.11-.03-.18-.05-.1-.03-.25-.09-.51-.17l-.28-.09c-.28-.09-.55-.36-.56-.83.16-.54.61-1.08,1.31-1.32.74-.26,1.57-.06,2.17.3.46.27.86.66,1.12,1.18.27.52.37,1.21.27,1.79h-.07Z"/><path class="cls-1" d="m40.98,103.46c-.08.21-.17.42-.27.62l-.36.55-.7.64c-.27.15-.53.33-.83.41-.18.05-.35.13-.54.16-.19.02-.37.04-.56.03-.66-.11-1.29-.38-1.78-.81-.13-.09-.23-.22-.34-.33-.09-.12-.25-.21-.28-.36-.13-.24-.25-.46-.34-.71-.17-.42-.32-.86-.34-1.36.02-.17.02-.33.07-.49.06-.16.12-.33.21-.47.11-.13.23-.25.36-.35.14-.07.29-.12.43-.16.18-.04.25.19.32.49.06.3.21.67.33.75.08.08.18.08.27.1.04,0,.06.02.09.04l.09.07c.05.06.13.14.18.23.04.04.07.09.1.14.03.05-.01.09,0,.14,0,.27.24.27.41.3.17.04.38,0,.55-.14l.11-.1c.1-.13.18-.31.18-.5.02-.25-.12-.73-.42-.97-.11-.1-.26-.14-.36-.11-.06,0-.08.02-.08.05.02-.19.05-.21.02-.33-.01-.04,0,0,0-.02.04.09.1.13.14.16.02,0,.05.03.09.07.04.03-.02,0-.04-.01-.11-.06-.3-.14-.61-.26l-.42-.14c-.46-.14-.81-.49-.6-1.06.13-.21.25-.45.49-.62.24-.18.54-.34.82-.39.14-.03.3-.06.45-.07.12,0,.25,0,.38.01.28.02.48.08.68.17.78.34,1.24.85,1.61,1.4.13.21.26.42.34.66.11.25.2.55.25.84.12.59.08,1.18-.05,1.74l-.07-.02Z"/><path class="cls-1" d="m28.35,18.32c.07.18-.13.3-.46.4-.11.03-.42,0-.46-.06-.08-.1-.16-.21-.22-.31-.03-.06-.17-1.01-.25-1.34-.07-.32-.09-.63-.09-.94l-.04-1.89c0-.14.04-.28.09-.41.17-.46.22-.94.21-1.42,0-.08.02-.16-.05-.24-.11-.14-.03-1.43.04-1.59.18-.4.28-.81.46-1.21.03-.06.01-.12.11-.17.23-.11.22-.24.26-.36.06-.17.09-.35.23-.52.06-.08.19-.16.28-.24.09-.07.3,0,.33.02.07.09.19.03.28.03.03,0,.08,0,.1,0,.01,0,.21.28.35.57.13.28.28.58.28.64.07.03.05,1.54.07,1.71.01.09-.05.18-.09.26-.02.04.03,1.25.01,1.3-.05.24,0,.5-.21.73-.04.05-.04.1-.04.15-.02.43-.12.85-.23,1.26-.06.21-.07.43-.11.65,0,.04-.04.08-.06.11-.02.05-.05.09-.06.14-.07.51-.23,1.02-.25,1.53,0,.12-.26.67-.26.8,0,.08-.27.31-.24.38Z"/><path class="cls-1" d="m14.7,17.24c-.15,0-.23-.16-.31-.34-.02-.06,0-.21.05-.23.1-.05.2-.09.27-.13.05,0,.93-.22,1.23-.23.29-.03.58-.03.86.01.57.07,1.18.14,1.75.32.12.04.24.11.35.19.35.3.75.49,1.17.66.07.03.13.07.23.04.09-.03.4.09.69.25.28.16.54.37.58.44.2.36.45.62.63.98.03.05.09.06.06.17-.05.25.06.28.11.4.08.14.16.3.22.46.03.08.03.22.04.33,0,.1-.15.25-.18.26-.1.02-.12.14-.17.22-.02.03-.04.06-.06.08-.02.02-.29.02-.6.05-.17.02-.33.04-.45.06-.12,0-.2-.01-.22-.02-.05.01-1.19-.54-1.31-.58-.07-.02-.1-.11-.14-.17-.04-.02-.87-.45-.9-.47-.14-.14-.33-.17-.4-.45-.01-.05-.05-.07-.08-.08-.29-.15-.54-.38-.81-.57-.14-.11-.29-.18-.44-.27-.03-.02-.05-.05-.07-.08-.03-.03-.06-.07-.09-.09-.36-.18-.72-.43-1.13-.54-.09-.02-.49-.35-.6-.4-.06-.03-.22-.26-.28-.26Z"/><path class="cls-1" d="m12.13,29.5c-.18.09-.36-.08-.53-.36-.05-.09-.08-.38-.03-.43.09-.1.18-.21.27-.29.06-.04,1-.51,1.3-.74.29-.21.62-.3.93-.4l1.95-.66c.15-.05.3-.07.45-.07.54,0,1.06-.1,1.57-.28.09-.03.18-.03.24-.14.1-.19,1.55-.51,1.76-.47.57.1,1.01.18,1.5.27.07.02.14-.03.21.08.17.26.31.22.47.24.21.03.42.08.63.17.1.05.21.18.3.29.09.1.04.44,0,.48-.09.11-.02.27,0,.42,0,.05,0,.11,0,.15,0,.04-.28.24-.54.45-.27.21-.54.45-.6.46,0,0-.11.02-.25.06-.15.04-.34.1-.54.15-.4.13-.82.23-.9.27-.09.04-.19-.01-.29-.04-.04-.02-1.26.38-1.32.38-.27.01-.51.15-.82-.02-.06-.03-.11-.01-.16,0-.45.1-.93.07-1.41.08-.24,0-.48.06-.72.09-.04,0-.09-.02-.14-.02-.06,0-.12-.03-.17-.02-.57.09-1.15.09-1.72.19-.13.02-.81-.16-.96-.13-.09,0-.4-.21-.47-.17Z"/></svg>