<svg width="128" height="128" viewBox="0 0 128 128" fill="none" xmlns="http://www.w3.org/2000/svg">
<path d="M71.7901 18.31C72.1201 18.31 72.4601 18.34 72.8001 18.38C72.9201 18.38 73.0401 18.35 73.1601 18.36C73.5901 18.4 74.0401 18.48 74.4701 18.5C74.6601 18.51 74.8501 18.48 75.0301 18.46C75.2601 18.42 75.4901 18.36 75.7501 18.43C75.8301 18.45 75.8601 18.62 75.8301 18.82C75.8101 19.01 75.7401 19.25 75.6201 19.33C75.1801 19.57 74.7301 19.79 74.2401 19.8C73.9401 19.8 73.6701 19.95 73.3801 20.02C73.0601 20.09 72.7401 20.15 72.4101 20.16C72.2101 20.18 72.0001 20.19 71.8001 20.21C71.5001 20.25 71.1901 20.26 70.9001 20.36C70.6801 20.44 70.4801 20.63 70.2801 20.78C70.2301 20.81 70.1901 20.86 70.1501 20.89C69.9701 20.94 69.8601 20.74 69.7201 20.27L69.6201 19.94C69.5201 19.57 69.5301 19.23 69.6201 19.01C69.9401 18.52 70.3701 18.44 70.8001 18.36C71.1201 18.31 71.4601 18.3 71.7901 18.28V18.33V18.31Z" fill="#231F20"/>
<path d="M74.6301 113.42C74.3301 113.82 74.0101 114.21 73.6801 114.58C73.5601 114.72 73.4901 114.89 73.3601 115.02C72.8901 115.47 72.3501 115.83 71.8501 116.21C71.6301 116.38 71.4401 116.58 71.2401 116.77C70.9701 116.98 70.8201 117.36 70.3201 117.3C70.1701 117.29 70.0401 117.11 69.9001 116.81C69.8301 116.66 69.7501 116.47 69.6801 116.27C69.6201 116.09 69.6201 115.96 69.6701 115.88C70.0001 115.3 70.4401 114.87 71.0301 114.53C71.3901 114.33 71.5401 113.93 71.8201 113.65C72.1201 113.33 72.4201 113 72.7001 112.65C72.8701 112.44 73.0401 112.22 73.1901 111.99C73.4201 111.64 73.6501 111.29 73.7901 110.9C73.8901 110.59 73.9101 110.27 73.9601 109.95C73.9701 109.88 73.9601 109.81 73.9901 109.74C74.1201 109.51 74.2801 109.47 74.6801 109.53L74.9501 109.57C75.2401 109.63 75.4601 109.81 75.5601 110.06C75.8001 110.79 75.7001 111.49 75.4101 112.11C75.2101 112.58 74.9501 113.01 74.6801 113.44L74.6401 113.42H74.6301Z" fill="#231F20"/>
<path d="M57.0602 115.34C56.5802 114.89 56.1102 114.42 55.6602 113.95C55.4902 113.78 55.3002 113.63 55.1502 113.45C54.5802 112.83 54.1202 112.11 53.6202 111.45C53.4002 111.15 53.1702 110.86 52.9402 110.58C52.6502 110.21 52.3502 109.85 52.1402 109.42C52.0002 109.16 52.5902 109.18 52.9902 109.54C53.6602 110.2 54.3402 110.83 54.9402 111.55C55.3002 111.98 55.7802 112.32 56.1902 112.72C56.6502 113.15 57.1102 113.58 57.5902 113.99C57.8802 114.24 58.1802 114.49 58.4902 114.73C58.9602 115.09 59.4302 115.44 59.9402 115.74C60.3302 115.97 60.7702 116.11 61.1902 116.27C61.2802 116.31 61.3802 116.33 61.4602 116.38C61.7702 116.58 61.8202 116.73 61.7402 117.07C61.7202 117.15 61.7102 117.23 61.6802 117.3C61.6002 117.54 61.3602 117.67 61.0502 117.64C60.1402 117.56 59.3602 117.11 58.6102 116.61C58.0602 116.23 57.5502 115.8 57.0502 115.36L57.0702 115.33L57.0602 115.34Z" fill="#231F20"/>
<path d="M45.8798 66.04C45.5298 66.4 45.1698 66.74 44.7798 67.03C44.6398 67.14 44.5398 67.29 44.3898 67.38C43.8498 67.71 43.2998 67.98 42.7098 68.12C42.4598 68.2 42.2098 68.28 41.9798 68.38C41.6798 68.5 41.3498 68.57 40.9998 68.47C40.8898 68.44 40.8598 68.21 40.8798 67.94C40.8998 67.67 40.9498 67.33 41.0698 67.22C41.2798 67 41.4898 66.86 41.7098 66.73C41.9298 66.6 42.1398 66.47 42.4198 66.44C42.7598 66.38 42.9498 66.09 43.1998 65.89C43.4598 65.65 43.7398 65.42 43.9698 65.13C44.1198 64.96 44.2598 64.78 44.3898 64.59C44.5698 64.29 44.7798 63.99 44.8498 63.64C44.9398 63.38 44.8598 63.08 44.8898 62.82C44.9098 62.76 44.9098 62.71 44.9398 62.65C45.0498 62.45 45.2098 62.4 45.6098 62.41H45.8798C46.1698 62.44 46.4098 62.57 46.5598 62.8C46.6598 62.96 46.7798 63.14 46.8498 63.32C46.8798 63.49 46.8998 63.65 46.9098 63.82C46.9198 64.16 46.8498 64.49 46.6998 64.79C46.5098 65.25 46.2198 65.67 45.9298 66.07L45.8898 66.04H45.8798Z" fill="#231F20"/>
<path d="M43.8598 69.77C44.3498 70.22 44.7498 70.72 45.1098 71.22C45.2498 71.4 45.3998 71.56 45.5198 71.75C45.9498 72.41 46.2598 73.13 46.5598 73.81C46.6998 74.11 46.8598 74.4 47.0298 74.68C47.2398 75.04 47.4698 75.38 47.6198 75.76C47.6598 75.88 47.5198 75.98 47.3098 76C47.0998 76.02 46.7898 75.96 46.6298 75.77C46.0498 75.09 45.5598 74.41 45.1798 73.67C44.9498 73.22 44.5998 72.85 44.2898 72.47C43.9498 72.05 43.5898 71.65 43.1898 71.29C42.9398 71.08 42.6898 70.86 42.4098 70.7C42.2098 70.56 41.9898 70.45 41.7598 70.35C41.5498 70.22 41.3098 70.15 41.0698 70.09C40.7098 69.97 40.3098 70.07 39.9498 70.07C39.8698 70.08 39.7898 70.09 39.7098 70.08C39.4098 70.04 39.2998 69.93 39.2098 69.59C39.1898 69.51 39.1598 69.44 39.1498 69.36C39.0998 69.11 39.2198 68.89 39.4898 68.75C39.6898 68.66 39.8998 68.54 40.1198 68.49C40.3398 68.46 40.5598 68.44 40.7898 68.44C41.2498 68.41 41.7098 68.53 42.1598 68.64C42.8098 68.88 43.3898 69.3 43.8898 69.73L43.8698 69.76L43.8598 69.77Z" fill="#231F20"/>
<path d="M63.89 46.29C63.71 46.72 63.5 47.15 63.25 47.57C63.15 47.72 63.11 47.89 62.99 48.03C62.64 48.56 62.1 48.96 61.58 49.26C61.35 49.4 61.12 49.53 60.89 49.65C60.59 49.81 60.28 49.94 59.95 49.97C59.75 50 59.83 49.44 60.1 49.24C60.61 48.89 61.01 48.52 61.44 48.15C61.7 47.92 61.87 47.6 62.05 47.29C62.25 46.95 62.43 46.58 62.58 46.19C62.67 45.95 62.76 45.7 62.84 45.45C62.95 45.07 63.07 44.68 63.13 44.28C63.17 43.97 63.16 43.65 63.17 43.34C63.17 43.27 63.18 43.2 63.2 43.14C63.28 42.89 63.39 42.83 63.67 42.83C63.73 42.83 63.8 42.83 63.86 42.83C64.07 42.85 64.23 42.98 64.3 43.19C64.53 43.8 64.48 44.39 64.33 44.98C64.22 45.42 64.08 45.86 63.92 46.31H63.89V46.29Z" fill="#231F20"/>
<path d="M66.31 48.73C66.08 48.42 65.86 48.11 65.66 47.78C65.59 47.66 65.48 47.57 65.43 47.44C65.23 46.98 65.06 46.53 64.9 46.08C64.82 45.88 64.74 45.69 64.65 45.51C64.53 45.27 64.4 45.04 64.4 44.76C64.39 44.59 65.07 44.55 65.24 44.77C65.52 45.19 65.8 45.58 65.99 46.05C66.1 46.34 66.35 46.54 66.54 46.77C66.73 47.05 66.92 47.33 67.13 47.59C67.26 47.75 67.39 47.92 67.54 48.06C67.76 48.29 67.98 48.52 68.25 48.69C68.46 48.82 68.7 48.9 68.92 48.99C68.97 49.01 69.02 49.02 69.07 49.04C69.24 49.13 69.25 49.24 69.12 49.56L69.03 49.77C68.92 50 68.74 50.15 68.56 50.14C68.02 50.12 67.49 49.94 67.11 49.57C66.81 49.32 66.55 49.03 66.29 48.74L66.31 48.72V48.73Z" fill="#231F20"/>
<path d="M86.11 64.75C86.25 65.02 86.45 65.28 86.67 65.53C86.75 65.62 86.87 65.66 86.94 65.77C87.21 66.13 87.52 66.49 87.9 66.77C88.06 66.91 88.26 66.96 88.44 67.06C88.68 67.17 88.93 67.24 89.13 67.47C89.19 67.54 89.13 67.77 88.98 68C88.84 68.23 88.61 68.48 88.42 68.49C87.75 68.55 87.16 68.28 86.69 67.83C86.42 67.56 86.03 67.45 85.72 67.21C85.39 66.94 85.11 66.6 84.84 66.27C84.68 66.05 84.53 65.84 84.39 65.61C84.16 65.28 84.02 64.88 83.85 64.52C83.73 64.23 83.52 63.96 83.43 63.64C83.41 63.57 83.37 63.5 83.38 63.43C83.36 63.15 83.55 63.06 83.9 63.01L84.15 62.98C84.41 62.96 84.67 63.05 84.85 63.16C85.3 63.49 85.45 63.74 85.69 64.02C85.87 64.22 85.95 64.49 86.14 64.72L86.1 64.75H86.11Z" fill="#231F20"/>
<path d="M83.9202 71.5399C84.1602 71.0799 84.5002 70.6799 84.8402 70.2799C84.9702 70.1399 85.0602 69.9599 85.2002 69.8299C85.7102 69.3599 86.2802 68.9399 86.9302 68.6299C87.0802 68.5799 87.2302 68.5199 87.3702 68.4499L87.8302 68.2999C88.0202 68.2399 88.2302 68.1899 88.4402 68.1899C88.6502 68.1999 88.8602 68.2999 89.0402 68.3999C89.1602 68.4699 89.1102 68.6499 89.0002 68.8799C88.8902 69.0999 88.7402 69.4399 88.6202 69.5499C88.1602 69.8199 87.8402 70.0599 87.2102 70.2399C86.8502 70.3799 86.6302 70.7199 86.3702 71.0099C86.0602 71.3199 85.8002 71.6899 85.5102 72.0499C85.3302 72.2699 85.1702 72.5099 85.0102 72.7499C84.7802 73.1199 84.5502 73.4999 84.4002 73.9099C84.2702 74.2199 84.2602 74.5699 84.1502 74.8899C84.1302 74.9599 84.1102 75.0299 84.0902 75.0999C83.9802 75.3499 83.8702 75.4099 83.6102 75.3999C83.5502 75.3999 83.4902 75.3999 83.4302 75.3999C83.2402 75.3799 83.1102 75.2199 83.0802 74.9899C82.9302 74.2899 83.0802 73.6099 83.2902 72.9599C83.4402 72.4699 83.6602 71.9999 83.8802 71.5299L83.9202 71.5499V71.5399Z" fill="#231F20"/>
<path d="M62.7901 88.7399C62.6201 88.3999 62.43 88.0599 62.17 87.7399C62.09 87.6099 61.9701 87.5199 61.8801 87.3999C61.5701 86.9699 61.21 86.5499 60.8001 86.1699C60.62 85.9999 60.4301 85.8399 60.2301 85.6999C59.9801 85.4999 59.6801 85.3799 59.5201 85.0399C59.4701 84.9399 59.5201 84.8899 59.6501 84.8299C59.7701 84.7899 60.0701 84.6099 60.2401 84.6899C60.5601 84.8099 60.87 84.9399 61.17 85.1099C61.47 85.2799 61.7101 85.5199 61.9501 85.7799C62.2301 86.0899 62.5901 86.3199 62.9001 86.6299C63.2301 86.9699 63.5001 87.3699 63.7401 87.7799C63.8901 88.0299 64.01 88.3099 64.14 88.5699C64.32 88.9799 64.4201 89.4199 64.5001 89.8499C64.5701 90.1799 64.6601 90.5099 64.6901 90.8399C64.6901 90.9099 64.7101 90.9899 64.6901 91.0599C64.6501 91.3399 64.5701 91.4199 64.3701 91.4599C64.3201 91.4599 64.28 91.4799 64.24 91.4899C64.1 91.4999 63.9701 91.3899 63.8801 91.2099C63.6401 90.6799 63.4601 90.1999 63.2201 89.7599C63.0601 89.4299 62.95 89.0799 62.76 88.7499L62.7901 88.7299V88.7399Z" fill="#231F20"/>
<path d="M67.0602 87.35C66.8002 87.63 66.5502 87.95 66.3602 88.32C66.2702 88.45 66.2302 88.59 66.1502 88.73C65.8602 89.2 65.6202 89.73 65.4602 90.28C65.3802 90.52 65.3502 90.78 65.3202 91.03C65.2902 91.35 65.2902 91.67 65.2002 92C65.1702 92.1 65.0402 92.09 64.8902 92C64.7502 91.91 64.5802 91.75 64.5402 91.55C64.4502 90.85 64.4402 90.13 64.6502 89.44C64.7802 89.03 64.8002 88.58 64.9202 88.15C65.0602 87.68 65.3002 87.24 65.5602 86.81C65.7202 86.55 65.9202 86.3 66.1102 86.06C66.4202 85.7 66.7902 85.39 67.1802 85.11C67.3402 85.01 67.4802 84.88 67.6302 84.76C67.7902 84.65 67.9502 84.54 68.1202 84.44C68.1902 84.39 68.2702 84.35 68.3502 84.32C68.6602 84.24 68.8002 84.38 68.9102 84.75C68.9402 84.84 68.9702 84.92 68.9902 85.01C69.0502 85.3 68.9902 85.58 68.8702 85.76C68.4902 86.17 68.1802 86.37 67.8502 86.67C67.5902 86.85 67.3202 87.09 67.0802 87.38L67.0502 87.36L67.0602 87.35Z" fill="#231F20"/>
<path d="M35.5201 84.73C33.7201 78.85 33.0901 72.59 33.6401 66.5C33.7901 64.28 34.1001 62.07 34.5001 59.88C36.1301 52.18 39.6201 44.93 44.3201 38.77C46.3901 36.02 48.5601 33.34 50.8201 30.82C52.2901 29.21 53.7701 27.62 55.3001 26.07L56.4501 24.92L57.6901 23.86C58.5301 23.17 59.3401 22.45 60.2501 21.83C60.8801 21.51 61.1601 21.37 61.1601 21.4C61.1701 21.44 60.9401 21.68 60.7101 22.24C60.4801 22.81 60.0601 23.54 59.5901 24.45C59.3501 24.9 59.0701 25.37 58.7701 25.86C58.6201 26.11 58.4501 26.35 58.3001 26.61C58.1001 26.83 57.9002 27.06 57.7001 27.3C56.2201 28.93 54.7601 30.56 53.3201 32.2C52.6201 33.03 51.8801 33.83 51.1502 34.64L49.0401 37.12C46.2801 40.46 43.7601 43.97 41.6601 47.76C39.1601 52.31 37.6501 57.56 36.8301 62.81C35.8901 68.6 35.9101 74.5 37.1701 80.23C37.2601 80.67 37.3301 81.12 37.4401 81.55L37.8201 82.85L38.5802 85.45L39.5601 87.98C39.8801 88.83 40.2101 89.67 40.6301 90.47C42.9401 95.45 46.0001 100.13 49.6101 104.25C52.4002 107.46 55.5601 110.23 58.9401 112.67C59.6801 113.22 60.4601 113.66 61.2101 114.19C64.1001 116 64.9401 116.64 65.3201 117.6C65.4201 117.79 65.5701 118 65.6301 118.13C65.7201 118.35 65.4202 118.36 64.7201 118.33C64.0102 118.31 62.9501 118.07 61.8102 117.41C54.8202 113.75 48.7101 107.95 43.8101 101.27C40.2101 96.28 37.3201 90.69 35.4701 84.76L35.5301 84.73H35.5201Z" fill="#231F20"/>
<path d="M90.57 80.3401C91.93 74.5601 92.38 68.5101 91.6 62.6201L91.38 61.0001L91.02 59.4001C90.75 58.3401 90.6 57.2601 90.25 56.2201L89.45 53.4301C89.17 52.5001 88.81 51.6001 88.49 50.6901C87.89 48.8401 87.01 47.1001 86.27 45.3001C84.56 41.8001 82.68 38.3701 80.49 35.1201C78.54 32.2501 76.41 29.4601 74.08 26.9201L72.97 25.6801L71.81 24.5001C71.05 23.7001 70.28 22.9001 69.47 22.1401L68.29 20.9701C67.9 20.5801 67.46 20.2401 67.09 19.8301C66.31 19.0401 65.53 18.2601 64.79 17.4001C63.87 16.3201 63.99 16.4501 65.14 16.8901C66.32 17.2801 68.63 17.9901 70.56 19.8001C74.11 22.8501 77.16 26.3901 79.99 30.0901C82.8 33.8001 85.27 37.8001 87.35 41.9901C89.83 47.0101 92.18 52.3901 93.48 58.0301L93.99 60.3501C94.13 61.1301 94.21 61.9201 94.33 62.7101C94.43 63.5001 94.56 64.2801 94.62 65.0801L94.72 67.4701C94.85 69.0601 94.69 70.6401 94.61 72.2201C94.58 73.8001 94.31 75.3701 94.08 76.9301C93.87 78.8701 93.31 80.7401 92.9 82.6401C92.68 83.5901 92.33 84.5001 92.05 85.4201C91.74 86.3401 91.49 87.2801 91.1 88.1701C89.02 93.6701 86.03 98.8001 82.58 103.47C79.9 107.1 77.03 110.5 73.73 113.56C73.01 114.24 72.31 114.91 71.51 115.52C70.79 116.11 70.18 116.58 69.61 116.9C69.05 117.24 68.6 117.5 68.2 117.67C67.37 117.98 66.82 118.03 66.33 117.97C66.1 117.94 65.84 117.95 65.69 117.89C65.19 117.7 66.21 116.57 68.13 114.83C73.98 109.87 79.42 103.76 83.67 96.9001C86.76 91.7701 89.16 86.1801 90.49 80.3301H90.56L90.57 80.3401Z" fill="#231F20"/>
<path d="M63.1299 37.2301C63.1999 35.5301 63.2599 33.8201 63.2799 32.1101C63.2799 31.4901 63.2099 30.8601 63.2199 30.2401L63.3199 26.9201C63.3999 25.8101 63.4699 24.7001 63.5199 23.5901C63.5599 22.6101 63.5399 21.6201 63.5099 20.6401C63.5399 20.0101 63.5399 19.3801 63.5899 18.7601C63.6699 18.1301 63.8199 17.5001 63.9599 16.8701C64.0599 16.4801 64.1799 16.5301 64.4199 16.8601C64.6399 17.1901 65.1199 17.7901 65.3899 18.4901C65.5599 19.1201 65.6799 19.7501 65.8199 20.3801C65.9199 21.0101 65.9399 21.6501 65.9899 22.2801C66.0599 23.5501 66.0899 24.8201 66.0199 26.1101C65.9399 27.6501 66.0799 29.2501 66.1099 30.8201C66.1199 32.5501 66.0999 34.2901 66.0699 36.0301L65.9899 39.2401C65.9599 40.8601 65.8499 42.4901 65.8299 44.1101C65.8099 45.3601 65.9399 46.6001 65.9699 47.8601C65.9699 48.1401 66.0099 48.4101 65.9899 48.6901C65.7899 49.7101 65.4899 50.0001 64.8599 50.1601C64.7199 50.1901 64.5799 50.2501 64.4399 50.2601C63.9999 50.3101 63.6099 49.8501 63.3799 49.1001C63.1799 48.5401 63.1399 47.9901 63.0899 47.4301C63.0399 46.8701 63.0199 46.3201 62.9999 45.7501C62.9599 44.6201 62.9699 43.4901 62.9699 42.3401C63.0099 40.6401 63.0399 38.9201 63.0799 37.2201H63.1499L63.1299 37.2301Z" fill="#231F20"/>
<path d="M65.6799 97.63C65.6399 99.32 65.6199 101.01 65.6199 102.71C65.6199 103.33 65.6999 103.94 65.6999 104.56C65.6799 106.75 65.6299 108.94 65.5099 111.14C65.4799 112.11 65.4899 113.09 65.5299 114.06C65.5499 115.3 65.6899 116.56 65.1599 117.79C64.9999 118.17 64.7599 118.11 64.3699 117.77C64.1799 117.6 63.9299 117.36 63.6799 117.08C63.4599 116.8 63.3099 116.48 63.2599 116.13C63.1499 115.51 63.1099 114.89 63.0999 114.27C63.0699 113.65 63.0399 113.03 63.0299 112.4C62.9999 111.15 63.0099 109.9 63.0999 108.63C63.2499 107.11 63.0399 105.54 62.9999 103.99C62.9599 102.28 62.9499 100.56 62.9399 98.85V95.68C62.9399 94.08 63.0099 92.46 62.9799 90.87C62.9799 89.63 62.8099 88.4 62.7599 87.16C62.7499 86.89 62.6999 86.62 62.7499 86.34C62.8199 85.83 62.8999 85.5 63.0899 85.28C63.2999 85.06 63.5799 84.96 63.8899 84.88C64.0299 84.85 64.1499 84.79 64.2499 84.78C64.4299 84.75 64.5799 84.85 64.8199 85.05C65.0799 85.26 65.2999 85.56 65.3699 85.92C65.6699 87.01 65.6799 88.09 65.7299 89.2C65.7699 90.31 65.7599 91.43 65.7599 92.56C65.7599 94.24 65.7499 95.94 65.7399 97.63H65.6699H65.6799Z" fill="#231F20"/>
<path d="M33.3698 69.7801C31.6998 69.7201 30.0098 69.6701 28.3298 69.6501C27.7098 69.6501 27.0998 69.7301 26.4898 69.7201C24.3098 69.6801 22.1298 69.6401 19.9498 69.6001C18.9798 69.5901 18.0098 69.6301 17.0498 69.7001C16.4298 69.7301 15.8098 69.8001 15.1898 69.8201C14.5698 69.8601 13.9398 69.7801 13.3198 69.3601C12.9298 69.0301 12.9898 69.0201 13.3198 68.5601C13.4798 68.3401 13.7098 67.9701 13.9798 67.6901C14.1198 67.5501 14.2598 67.3701 14.4198 67.2801C14.5798 67.2101 14.7398 67.1601 14.9098 67.1401C17.3698 66.9301 19.8498 66.7701 22.3998 67.0201C23.9198 67.1501 25.4798 66.9201 27.0298 66.8701C28.7298 66.8201 30.4398 66.8101 32.1598 66.8101L35.3198 66.8301C36.9298 66.8701 38.5398 66.9001 40.1298 66.9401C41.3798 66.9501 42.6198 66.8101 43.9098 66.8501C44.1998 66.8601 44.4798 66.8501 44.7698 66.8701C45.8498 67.0301 46.1698 67.3501 46.0998 68.2701C46.0998 68.4701 46.0998 68.6601 46.0698 68.8401C45.9798 69.3901 45.3798 70.0001 44.7498 69.9801C42.7598 70.1001 40.6098 70.0501 38.3898 69.9801C36.7398 69.9301 35.0598 69.8701 33.3798 69.8601V69.7801H33.3698Z" fill="#231F20"/>
<path d="M93.5401 67.2099C94.8301 67.3099 96.1401 67.3699 97.4501 67.3999C97.9301 67.3999 98.4001 67.3299 98.8901 67.3399C100.6 67.4099 102.32 67.4899 104.03 67.5599C104.79 67.5999 105.56 67.5099 106.31 67.5199C106.8 67.5199 107.28 67.4799 107.77 67.4999C108.26 67.5499 108.74 67.6899 109.23 67.8499C109.53 67.9599 109.49 68.2499 109.23 68.6399C108.98 69.0099 108.52 69.5799 107.97 69.7999C106.04 70.2299 104.11 70.2099 102.13 70.0199C100.94 69.8899 99.7201 70.1399 98.5001 70.1499C97.1601 70.1799 95.8001 70.1499 94.4501 70.1199L91.9501 70.0099C90.6901 69.9599 89.4301 69.8299 88.1901 69.8099C87.2201 69.8099 86.2601 69.9399 85.2901 69.9999C85.0801 69.9999 84.8701 70.0399 84.6501 70.0299C83.8601 69.9699 83.6301 69.7899 83.5501 68.8899L83.4801 68.4599C83.4301 68.1899 83.8501 67.2399 84.4101 67.1999C86.1301 66.7399 87.8701 66.8499 89.6201 66.9199C90.9201 66.9699 92.2201 67.0899 93.5201 67.1099V67.1799L93.5401 67.2099Z" fill="#231F20"/>
<path d="M56.99 72.39C57.01 72.34 57.13 72.05 57.01 72.34C57.04 72.28 57.06 72.22 57.09 72.16C57.16 72 57.23 71.83 57.31 71.67C57.49 71.27 57.68 70.87 57.87 70.48C58.28 69.63 58.71 68.79 59.14 67.96C59.94 66.44 60.76 64.93 61.7 63.5C61.86 63.26 62.03 63.02 62.2 62.78C62.35 62.56 62.01 62.99 62.18 62.81C62.21 62.78 62.23 62.74 62.26 62.71C62.32 62.65 62.43 62.56 62.47 62.49C62.44 62.55 62.26 62.64 62.11 62.68C61.91 62.73 60.74 62.46 60.86 62.19C60.84 62.23 61.11 62.61 61.14 62.65C61.85 63.95 62.49 65.46 63 66.7C63.83 68.7 64.62 70.75 65.11 72.86C65.47 74.43 67.88 73.76 67.52 72.2C67.05 70.13 66.27 68.13 65.47 66.17C64.8 64.54 64.12 62.88 63.27 61.33C62.95 60.75 62.56 60.21 61.81 60.22C61.06 60.23 60.56 60.85 60.14 61.4C59.1 62.77 58.27 64.33 57.45 65.84C56.41 67.76 55.42 69.71 54.59 71.73C54.33 72.36 54.87 73.1 55.46 73.27C56.18 73.47 56.74 73.02 57 72.4L56.99 72.39Z" fill="#231F20"/>
<path d="M58.2798 70.78C60.4298 70.69 62.5898 70.62 64.7398 70.71C65.3898 70.74 66.0198 70.11 65.9898 69.46C65.9598 68.76 65.4398 68.24 64.7398 68.21C62.5898 68.12 60.4298 68.19 58.2798 68.28C57.6298 68.31 56.9998 68.83 57.0298 69.53C57.0598 70.18 57.5798 70.81 58.2798 70.78Z" fill="#231F20"/>
<path d="M72.2 72.54C72.37 69.25 72.53 65.9 72.27 62.61C72.22 61.94 71.73 61.36 71.02 61.36C70.39 61.36 69.72 61.93 69.77 62.61C70.04 65.9 69.88 69.24 69.7 72.54C69.66 73.21 70.3 73.79 70.95 73.79C71.66 73.79 72.16 73.22 72.2 72.54Z" fill="#231F20"/>
<path d="M63.68 87.08C56.81 86.66 50.31 82.83 46.72 76.99C46.36 76.48 46.13 75.89 45.82 75.35L45.39 74.52C45.25 74.24 45.17 73.93 45.06 73.64C44.86 73.05 44.62 72.46 44.45 71.86L44.1 70.01C43.97 69.47 43.99 68.91 43.96 68.36C43.96 67.81 43.91 67.25 43.93 66.7L44.13 65.05L44.23 64.23C44.29 63.96 44.37 63.7 44.44 63.43L44.89 61.85C45.02 61.31 45.31 60.84 45.51 60.34L46.18 58.85L47.04 57.47C48.16 55.61 49.7 54.05 51.31 52.63C53.03 51.34 54.84 50.14 56.86 49.41C60.38 48.01 64.25 47.44 68 47.87C70.4 48.22 72.76 48.91 74.91 50.08C77 51.3 79 52.82 80.21 54.92C81.03 56.17 80.7 56.12 79.54 55.54C78.95 55.26 78.2 54.82 77.24 54.43C76.77 54.22 76.28 54 75.8 53.73C75.28 53.51 74.76 53.25 74.24 52.95C72.34 52 70.33 51.27 68.22 51.04C66.14 50.72 63.99 50.66 61.89 51.07L61.1 51.19L60.33 51.4C59.82 51.55 59.29 51.65 58.79 51.84L57.3 52.43C56.79 52.6 56.35 52.92 55.86 53.14C54.87 53.58 54.05 54.28 53.13 54.86C52.35 55.59 51.45 56.23 50.78 57.09C49.04 59.01 47.68 61.45 47.12 64.06C46.52 66.66 46.64 69.4 47.43 71.94C49.16 77.57 54.15 82.09 59.95 83.7L61.3 84.04C61.75 84.16 62.22 84.17 62.68 84.24C63.14 84.29 63.6 84.37 64.07 84.39L65.47 84.37C67.33 84.39 69.19 84.01 70.95 83.42C76.3 81.64 80.84 77.17 82.21 71.71C82.73 69.6 82.81 67.41 82.51 65.29C82.23 63.16 81.48 61.13 80.52 59.25C80.12 58.4 79.56 57.68 79.08 56.88C78.58 56.18 78.14 55.61 77.78 55.12C77.38 54.67 77.08 54.28 76.85 53.94C76.63 53.58 76.41 53.35 76.29 53.07C76.17 52.8 76.1 52.54 76.05 52.28C76.01 52.04 75.91 51.77 75.91 51.59C75.91 51.28 76.26 51.28 76.97 51.53C77.33 51.65 77.76 51.85 78.23 52.16C78.67 52.49 79.18 52.9 79.73 53.39C81.27 54.92 82.62 56.72 83.59 58.76C84.53 60.8 85.18 63.02 85.47 65.32C85.69 67.63 85.54 69.99 84.99 72.3C84.39 74.6 83.33 76.77 81.97 78.73C77.8 84.49 70.61 87.63 63.66 87.15V87.08H63.68Z" fill="#231F20"/>
<path d="M55.23 94.09C58.89 93.58 62.59 93.37 66.28 93.5C67.62 93.56 68.97 93.56 70.31 93.71C75.03 94.22 79.68 95.38 84.07 97.18C86 98.01 87.93 98.9 89.76 99.92C92.05 101.3 94.41 102.82 95.85 105.18C96.32 105.88 96.06 105.96 95.26 105.79C94.86 105.7 94.32 105.57 93.71 105.4C93.4 105.32 93.09 105.21 92.77 105.08C92.61 105.01 92.45 104.94 92.29 104.87C92.15 104.78 92 104.68 91.86 104.57L90.28 103.51C89.75 103.17 89.19 102.86 88.65 102.53C87.55 101.9 86.45 101.26 85.3 100.71C83.01 99.58 80.6 98.64 78.11 97.84C75.12 96.88 71.84 96.54 68.63 96.32C65.09 96.09 61.52 96.17 57.97 96.52C55.79 96.75 53.6 97.06 51.46 97.54C48.2 98.24 44.96 99.16 41.91 100.44C39.54 101.44 37.35 102.71 35.22 104.07C34.75 104.36 34.29 104.65 33.81 104.94C32.92 105.46 32.31 105.79 31.84 105.96C31.35 106.1 31.01 106.1 30.66 106.01C30.5 105.97 30.32 105.96 30.21 105.9C30.02 105.81 30.05 105.58 30.26 105.2C30.47 104.83 30.84 104.28 31.45 103.75C32.36 102.99 33.26 102.15 34.29 101.51C35.3 100.84 36.37 100.21 37.46 99.64C39.64 98.47 41.97 97.5 44.34 96.68C47.87 95.45 51.52 94.59 55.21 94.02L55.23 94.09Z" fill="#231F20"/>
<path d="M72.7502 39.34C71.0502 39.53 69.3602 39.73 67.6602 39.76L65.1102 39.87L62.5602 39.83C61.9402 39.83 61.3202 39.83 60.7002 39.84C60.0802 39.81 59.4602 39.78 58.8502 39.73C57.7602 39.61 56.6702 39.58 55.6002 39.39L52.3702 38.88C51.3002 38.69 50.2402 38.41 49.1802 38.18C48.6502 38.05 48.1202 37.96 47.5902 37.8L46.0302 37.32C44.1702 36.82 42.3402 36.15 40.5502 35.46C39.4102 34.99 38.3102 34.41 37.2002 33.87C36.6302 33.63 36.1402 33.22 35.6502 32.84L34.9202 32.26C34.6802 32.06 34.4702 31.82 34.2502 31.61C33.7202 31.04 33.8402 31.06 34.5502 31.15C35.2802 31.22 36.5602 31.34 37.7502 31.93C42.0702 33.95 46.6702 35.34 51.4402 36.41C52.1502 36.61 52.8802 36.71 53.6202 36.8C54.3602 36.89 55.1002 36.98 55.8502 37.07C57.3402 37.23 58.8602 37.2 60.3602 37.31C62.0102 37.36 63.6602 37.35 65.3102 37.34C66.9602 37.22 68.6102 37.21 70.2602 37L73.2902 36.64C74.3002 36.5 75.2902 36.28 76.2902 36.09C79.3202 35.51 82.3102 34.65 85.1502 33.53C87.3302 32.59 89.3602 31.45 91.2502 30.12C91.6702 29.83 92.1002 29.58 92.4902 29.25C93.9702 28.09 94.6002 27.93 95.4002 28.27C95.5802 28.35 95.7902 28.4 95.9402 28.5C96.4402 28.81 96.1102 29.69 95.0102 30.73C91.6702 33.72 87.3602 35.82 82.9202 37.23C81.2602 37.71 79.5902 38.18 77.9002 38.54L75.3502 39.02L74.0802 39.25L72.8002 39.41V39.35L72.7502 39.34Z" fill="#231F20"/>
<path d="M25.0598 101.43C19.2598 95.4399 14.9698 87.9199 12.8798 79.8099C11.8298 75.7599 11.3198 71.5799 11.3198 67.4099C11.3198 63.2499 11.7998 59.0699 12.8398 55.0199C14.2998 49.0999 16.8598 43.4599 20.3598 38.4899C26.5498 29.7199 35.3498 22.9599 45.2298 18.9999C50.1698 17.0099 55.4098 15.7299 60.7398 15.3499C66.0698 14.9499 71.4598 15.5599 76.5698 17.0199C85.6598 19.6199 93.9398 24.8599 100.28 31.6999C104.36 36.0899 107.77 41.1299 110.16 46.6599C111.35 49.4199 112.3 52.2999 112.89 55.2499L113.27 57.4799L113.52 59.7199C113.63 61.2199 113.57 62.7299 113.49 64.2199C113.33 66.0799 113.14 66.8699 113.02 66.7999C112.88 66.7399 112.79 65.8199 112.57 64.2799C112.33 62.7399 111.8 60.5999 111.16 58.0899C110.46 55.5899 109.54 52.7199 108.36 49.6799C104.07 38.9399 95.9598 29.7299 85.8598 24.1299C80.8098 21.3399 75.2598 19.4399 69.5298 18.7099C66.6598 18.3699 63.7698 18.2499 60.8798 18.4299C57.9898 18.6099 55.0998 19.0799 52.2598 19.7999C45.4598 21.4999 38.8898 24.8199 33.2098 29.2799C27.5498 33.7699 22.7298 39.4199 19.4398 45.8199C17.6298 49.3299 16.2098 53.0599 15.3498 56.9199C14.4698 60.7799 14.1098 64.7599 14.1898 68.7299C14.3498 76.6599 16.5398 84.5799 20.7298 91.3599C25.8098 99.7599 33.5498 106.49 42.3798 110.86C49.0798 114.13 56.4798 116.22 63.9298 116.14C71.3998 116.07 78.8298 114.28 85.3998 110.88C90.4998 108.22 95.0298 104.64 98.7698 100.4C102.48 96.1399 105.47 91.2799 107.58 86.0599C108.49 83.7499 109.22 81.4299 109.82 79.0099C110.91 74.4999 111.19 71.4499 111.5 69.3199C111.83 67.1799 112.12 65.9299 112.47 64.9099C112.64 64.4399 112.79 63.8199 112.95 63.5499C113.22 63.0799 113.5 63.8099 113.8 65.5599C113.96 66.4399 114.03 67.5699 114.13 68.9399C114.18 70.3099 114.1 71.8999 113.91 73.6899C112.77 84.2599 108.24 94.9499 100.49 103.12C96.6698 107.24 92.0698 110.66 87.0398 113.29C81.9798 115.87 76.4798 117.62 70.8398 118.36C69.7898 118.5 68.7498 118.63 67.6898 118.69L66.1098 118.8L64.5298 118.83C62.4198 118.9 60.2598 118.76 58.1698 118.49C53.9498 117.96 49.8598 116.83 45.9398 115.31C38.1198 112.21 30.8798 107.59 25.0398 101.49L25.0698 101.43H25.0598Z" fill="#231F20"/>
<path d="M102.53 19.04C102.62 19.18 102.43 19.33 102.13 19.48C102.03 19.53 101.73 19.56 101.68 19.52C101.58 19.45 101.47 19.37 101.38 19.29C101.34 19.24 100.91 18.43 100.72 18.15C100.52 17.88 100.49 17.6 100.44 17.31C100.36 16.73 100.25 16.15 100.19 15.57C100.19 15.44 100.2 15.31 100.25 15.18C100.4 14.74 100.41 14.3 100.37 13.85C100.37 13.78 100.37 13.7 100.3 13.63C100.16 13.51 100.19 12.3 100.27 12.15C100.44 11.77 100.59 11.4 100.79 11.03C100.82 10.98 100.79 10.92 100.9 10.88C101.14 10.79 101.12 10.67 101.16 10.55C101.2 10.39 101.27 10.23 101.4 10.09C101.46 10.02 101.6 9.95001 101.7 9.89001C101.8 9.83001 102.06 9.90001 102.09 9.93001C102.17 10.01 102.31 9.97001 102.43 9.98001C102.47 9.98001 102.52 9.98001 102.55 9.99001C102.58 9.99001 102.74 10.25 102.92 10.51C103.06 10.76 103.19 11.03 103.19 11.08C103.19 11.08 103.2 11.17 103.21 11.3C103.23 11.43 103.25 11.6 103.28 11.78C103.31 12.13 103.33 12.49 103.35 12.56C103.37 12.64 103.31 12.71 103.27 12.79C103.25 12.83 103.39 13.86 103.39 13.9C103.35 14.11 103.44 14.33 103.23 14.54C103.19 14.58 103.2 14.63 103.2 14.67C103.22 15.04 103.16 15.4 103.09 15.78C103.06 15.97 103.09 16.16 103.07 16.35C103.07 16.38 103.04 16.42 103.02 16.45C103 16.49 102.98 16.54 102.98 16.58C102.98 17.03 102.93 17.48 102.96 17.93C102.96 18.03 102.72 18.55 102.74 18.67C102.74 18.74 102.49 18.99 102.53 19.04Z" fill="#231F20"/>
<path d="M105.9 22.17C105.83 22.34 105.59 22.26 105.27 22.08C105.17 22.02 104.95 21.76 104.96 21.69C104.97 21.55 104.98 21.41 105.01 21.29C105.03 21.22 105.62 20.37 105.84 20.07C106.04 19.78 106.28 19.52 106.56 19.33C107.12 18.94 107.7 18.55 108.3 18.23C108.43 18.16 108.58 18.1 108.74 18.08C109.27 18 109.75 17.81 110.22 17.57C110.3 17.53 110.39 17.51 110.44 17.4C110.52 17.2 111.92 16.84 112.12 16.88C112.61 16.96 113.07 16.98 113.54 17.06C113.61 17.06 113.67 17.03 113.74 17.13C113.9 17.36 114.03 17.31 114.17 17.32C114.36 17.32 114.56 17.37 114.75 17.44C114.85 17.48 114.94 17.61 115.04 17.71C115.13 17.8 115.09 18.15 115.07 18.19C114.99 18.31 115.07 18.47 115.08 18.61C115.08 18.66 115.09 18.72 115.08 18.76C115.06 18.83 114.15 19.58 114.06 19.6C114.03 19.58 112.7 20 112.57 20.1C112.5 20.14 112.41 20.1 112.32 20.1C112.27 20.07 111.29 20.59 111.24 20.59C111.01 20.62 110.83 20.77 110.54 20.63C110.48 20.6 110.44 20.63 110.4 20.65C110.04 20.8 109.64 20.86 109.25 20.97C109.05 21.02 108.88 21.14 108.69 21.21C108.66 21.22 108.61 21.21 108.57 21.21C108.52 21.21 108.47 21.21 108.43 21.24C108.01 21.48 107.53 21.61 107.13 21.89C107.03 21.94 106.45 22.05 106.35 22.14C106.29 22.18 105.93 22.11 105.9 22.18V22.17Z" fill="#231F20"/>
</svg>
