<svg width="128" height="128" viewBox="0 0 128 128" fill="none" xmlns="http://www.w3.org/2000/svg">
<path d="M41.0003 35.06L42.8603 34.31C43.4703 34.05 44.0703 33.74 44.6703 33.46C45.9003 32.91 47.0603 32.24 48.2303 31.58C49.1003 31.12 49.8703 30.51 50.7103 29.99C53.6384 28.1236 56.4108 26.0234 59.0003 23.71C60.1403 22.66 61.2703 21.59 62.3003 20.46C62.9903 19.75 63.6303 19 64.3003 18.26C64.9703 17.52 65.6703 16.83 66.3903 16.14C66.8403 15.71 66.9703 15.93 66.8603 16.51C66.651 17.4135 66.2522 18.2622 65.6903 19C63.1035 22.2152 60.1312 25.1002 56.8403 27.59C56.3503 27.96 55.8403 28.35 55.3603 28.74L53.8403 29.9C52.8403 30.69 51.7803 31.4 50.7303 32.1C49.6803 32.8 48.3303 33.53 47.1403 34.24C45.9503 34.95 44.6603 35.52 43.3903 36.09C41.8103 36.76 40.2303 37.45 38.6003 37.97C37.9803 38.17 37.3803 38.4 36.7503 38.59L34.8703 39.09C34.2403 39.25 33.6303 39.45 32.9903 39.58L31.1003 40L29.6403 40.33C29.1503 40.44 28.6403 40.5 28.1703 40.59C27.1703 40.76 26.1703 40.94 25.2403 41.08C24.8003 41.08 24.3803 41.17 23.9303 41.19C22.3003 41.29 21.7703 41.19 21.4203 40.63C21.3311 40.5221 21.254 40.4047 21.1903 40.28C21.0403 39.89 21.6903 39.53 22.8403 39.28L25.4203 39C26.2903 38.83 27.1503 38.68 28.0303 38.56C28.9159 38.4182 29.7937 38.2312 30.6603 38C31.5403 37.81 32.4303 37.69 33.3003 37.45C35.9226 36.8198 38.496 36.001 41.0003 35V35.06Z" fill="#221F1F"/>
<path d="M44.8502 102.51C43.2051 100.363 41.7274 98.0933 40.4302 95.7201C39.1102 93.4101 37.9102 91.0401 36.7602 88.6601C35.9202 86.9201 35.0502 85.1901 34.2702 83.4401L26.2702 64.8101C25.0902 62.0501 23.8702 59.2901 22.7302 56.5301C22.0002 54.7601 21.2202 53.0001 20.5402 51.1901C20.2002 50.2901 19.8802 49.3901 19.5402 48.4801C19.2002 47.5701 19.0202 46.6201 18.7902 45.6901C18.5202 44.5201 18.8602 44.5801 19.5702 45.4001C19.9302 45.8101 20.3902 46.4001 20.9102 47.1301C21.4491 47.9669 21.9046 48.8544 22.2702 49.7801C23.7102 53.3801 25.2702 56.9401 26.7702 60.5201L31.2802 71.3601C33.0702 75.7201 35.1202 80.1701 37.1302 84.5101C39.2868 89.3015 41.7519 93.948 44.5102 98.4201C46.2269 101.09 48.3763 103.456 50.8702 105.42C54.693 108.475 58.8944 111.022 63.3702 113C66.785 114.5 70.3211 115.708 73.9402 116.61L76.3002 117.19C79.3002 117.89 80.1702 118.19 80.7602 118.83C80.8902 118.97 81.0702 119.11 81.1502 119.22C81.2302 119.33 81.0102 119.55 80.4302 119.63C79.5484 119.762 78.6519 119.762 77.7702 119.63C74.2807 119.184 70.8566 118.325 67.5702 117.07C64.1758 115.834 60.8854 114.329 57.7302 112.57C52.8978 109.982 48.5339 106.602 44.8202 102.57L44.8502 102.51Z" fill="#231F20"/>
<path d="M106.83 74.3701C106.49 78.5101 106.21 82.6501 106.02 86.8001C106.02 87.5601 106.02 88.2801 105.91 89.1301C105.834 89.9488 105.684 90.7589 105.46 91.5501C103.87 97.0001 100.7 101.55 97.3599 105.76C95.8699 107.65 94.2999 109.48 92.6899 111.23C90.6427 113.529 88.3299 115.577 85.7999 117.33C84.9899 117.85 84.8599 117.43 85.2399 116.6C85.8626 115.392 86.6841 114.296 87.6699 113.36C92.0286 109.117 95.9823 104.477 99.4799 99.5001C99.9799 98.7301 100.48 97.9601 100.92 97.1501C101.14 96.7401 101.37 96.3401 101.58 95.9201L102.16 94.6601C102.57 93.8201 102.81 92.9301 103.16 92.0701C103.411 91.21 103.608 90.3349 103.75 89.4501C103.844 88.9691 103.89 88.4801 103.89 87.9901L103.95 86.4101L104.09 83.2601C104.203 81.1601 104.327 79.0601 104.46 76.9601C104.63 74.3801 104.84 71.7901 105.05 69.2201C105.39 65.3101 105.85 61.4001 106.32 57.5301C106.75 54.5301 107.05 51.5301 107.74 48.5901C107.86 47.9145 108.02 47.2467 108.22 46.5901C109.06 44.2101 109.77 43.5901 110.32 43.2701C110.446 43.2012 110.576 43.1411 110.71 43.0901C111.08 43.0901 110.86 44.0901 110.47 45.7101C109.4 50.7701 108.74 56.2901 108.07 61.8401C107.61 65.9801 107.21 70.1501 106.91 74.3201L106.83 74.3701Z" fill="#221F1F"/>
<path d="M93.0003 24.17C92.0003 23.76 90.9403 23.33 89.9503 22.84C88.9603 22.35 87.9503 21.84 87.0103 21.33C86.2903 20.97 85.5903 20.59 84.9003 20.17C82.5097 18.6694 80.2305 16.9984 78.0803 15.17C77.0803 14.39 76.1603 13.57 75.2103 12.79L73.4103 11.24C72.8326 10.6922 72.2946 10.104 71.8003 9.47997C71.1903 8.70997 73.2603 8.47997 74.5803 9.57997C76.9503 11.58 79.3803 13.58 81.8303 15.58C82.5713 16.1943 83.3642 16.743 84.2003 17.22C85.0203 17.74 85.8903 18.22 86.7303 18.66C87.5703 19.1 88.6103 19.66 89.5503 20.14C90.4903 20.62 91.4803 21.04 92.4603 21.43L94.3003 22.13C94.9103 22.35 95.5403 22.53 96.1703 22.72C97.1103 23.04 98.0903 23.22 99.0503 23.46C100.01 23.7 101.05 23.79 101.97 23.92C102.73 23.92 103.49 23.92 104.24 23.92C104.99 23.92 105.74 23.81 106.48 23.78C106.81 23.78 107.13 23.71 107.48 23.67C108.7 23.55 109.1 23.67 109.48 24.3C109.567 24.4344 109.644 24.5748 109.71 24.72C109.89 25.19 109.42 25.64 108.47 25.87C107.03 26.2247 105.554 26.4126 104.07 26.43C103.32 26.43 102.57 26.36 101.81 26.31C101.05 26.26 100.3 26.1 99.5503 25.98C98.4403 25.79 97.3403 25.49 96.2503 25.21C95.1603 24.93 94.0003 24.66 93.0003 24.23V24.17Z" fill="#221F1F"/>
<path d="M40.3301 32.2401C43.1454 30.8566 45.8501 29.2586 48.4201 27.4601C49.3601 26.7901 50.2401 26.0501 51.1501 25.3501C54.411 22.8946 57.4677 20.1791 60.2901 17.2301C61.5438 15.9205 62.7192 14.5381 63.8101 13.0901C64.5101 12.1701 65.1701 11.2201 65.8101 10.2801C66.4501 9.34006 67.2301 8.46006 67.9101 7.55006C68.3401 6.99006 68.6601 7.22006 68.8001 8.01006C68.8715 8.51421 68.8715 9.02591 68.8001 9.53006C68.7453 10.19 68.551 10.8308 68.2301 11.4101C66.9309 13.5077 65.4874 15.5126 63.9101 17.4101C62.3196 19.2806 60.5806 21.0195 58.7101 22.6101C56.4801 24.5301 54.3101 26.6801 51.9401 28.5301C49.3365 30.5504 46.5892 32.3786 43.7201 34.0001C41.9401 35.0001 40.1301 35.9201 38.2701 36.7401C35.4473 37.9757 32.5399 39.0084 29.5701 39.8301C27.3047 40.5368 25.001 41.1144 22.6701 41.5601C22.1501 41.6401 21.6701 41.7501 21.1201 41.8101C20.4129 41.9309 19.6873 41.8864 19.0001 41.6801C18.7924 41.612 18.6018 41.5 18.4413 41.3515C18.2808 41.2031 18.1542 41.0218 18.0701 40.8201C17.9597 40.6334 17.8692 40.4357 17.8001 40.2301C17.6201 39.5801 18.3801 38.9801 19.7001 38.7001C20.7001 38.5201 21.7001 38.2501 22.7001 38.0701C23.7001 37.8901 24.7001 37.6301 25.7001 37.3801C27.7001 36.9401 29.7001 36.3801 31.7001 35.7501C34.6711 34.7935 37.5604 33.5996 40.3401 32.1801L40.3301 32.2401Z" fill="#221F1F"/>
<path d="M53.2702 56C52.6217 58.6144 52.5178 61.3341 52.9651 63.9903C53.4124 66.6465 54.4012 69.1823 55.8702 71.44C56.9417 73.1126 58.2182 74.6446 59.6702 76C62.2031 78.4368 65.2925 80.2184 68.6702 81.19C72.0648 82.1562 75.6765 82.0373 79.0002 80.85C81.9287 79.6889 84.5303 77.8321 86.5802 75.44C89.0868 72.3009 90.6724 68.5274 91.1602 64.54C91.2802 63.31 91.7302 63.42 92.2202 64.54C92.5241 65.3269 92.6997 66.1575 92.7402 67C92.8218 68.1823 92.6514 69.3685 92.2402 70.48C91.4743 72.6505 90.3523 74.6782 88.9202 76.48C88.2053 77.3939 87.405 78.2377 86.5302 79L85.2202 80.12L83.8002 81.12C81.8439 82.3747 79.6803 83.2719 77.4102 83.77C75.1419 84.2807 72.7975 84.3587 70.5002 84C64.9857 83.0356 59.9675 80.2124 56.2802 76C54.2305 73.7481 52.6454 71.1138 51.6158 68.248C50.5862 65.3823 50.1323 62.3415 50.2802 59.3C50.5405 55.5542 51.8276 51.9525 54.0002 48.89C55.7554 46.6859 57.9437 44.8651 60.4302 43.54C61.6361 42.8568 62.8932 42.2684 64.1902 41.78C65.4727 41.277 66.7894 40.8659 68.1302 40.55C70.2068 40.0323 72.3401 39.7769 74.4802 39.79C76.6781 39.7887 78.8528 40.238 80.8702 41.11C81.3202 41.31 81.7402 41.56 82.1802 41.79C82.6088 42.0492 83.0197 42.3365 83.4102 42.65C84.4617 43.4651 85.2821 44.5406 85.7902 45.77C85.9245 46.0898 86.0153 46.4261 86.0602 46.77C86.0597 47.0326 86.0295 47.2942 85.9702 47.55C85.9368 47.7422 85.8934 47.9324 85.8402 48.12C85.7502 48.34 85.4902 48.12 85.0302 47.71C84.5702 47.3 84.0302 46.56 83.2502 45.77C82.0964 44.5895 80.7013 43.6719 79.1602 43.08C77.556 42.5025 75.8653 42.2015 74.1602 42.19C70.5192 42.1899 66.922 42.9851 63.6202 44.52C61.1539 45.6235 58.9103 47.169 57.0002 49.08C56.5592 49.5529 56.1452 50.0504 55.7602 50.57C55.5802 50.84 55.4302 51.11 55.2502 51.37L54.8102 52.26L54.3602 53.15L54.0002 54.09C53.7552 54.7151 53.5547 55.3567 53.4002 56.01L53.2702 56Z" fill="#221F1F"/>
<path d="M85.4699 57.8301C84.0956 59.8889 82.8659 62.0408 81.7899 64.2701C81.3799 65.0901 81.0799 65.9601 80.6899 66.8001L79.6899 69.0301C79.3053 70.2204 78.7091 71.3315 77.9299 72.3101C77.7763 72.4843 77.5798 72.6154 77.3599 72.6901H77.1799H77.1099H76.9999C76.8846 72.6774 76.7708 72.654 76.6599 72.6201C76.1586 72.4449 75.6966 72.1731 75.2999 71.8201C74.8357 71.4116 74.4013 70.9704 73.9999 70.5001L73.4499 69.8301L72.9999 69.3401C72.0816 68.2117 71.107 67.1304 70.0799 66.1001C69.4299 65.4501 68.7499 64.8401 68.0799 64.2201L67.5999 63.7701L67.3599 63.5601L67.2399 63.4501C67.2159 63.3967 67.1857 63.3464 67.1499 63.3001C67.0425 63.1143 66.8998 62.9512 66.7299 62.8201C66.5812 62.6961 66.4242 62.5825 66.2599 62.4801C65.9599 62.3001 65.8199 61.9501 66.4799 61.6401C66.9195 61.4878 67.3886 61.4399 67.8499 61.5001C68.1628 61.4755 68.4771 61.4755 68.7899 61.5001C69.0707 61.5913 69.3368 61.7227 69.5799 61.8901C71.2075 63.046 72.6943 64.3885 74.0099 65.8901L74.9999 67.0001L75.4699 67.5401L75.6999 67.8101C75.7699 67.8901 75.6999 67.8701 75.7599 67.9101C75.8334 68.1608 75.9483 68.3974 76.0999 68.6101C76.1799 68.7301 76.2399 68.6101 76.2899 68.6101C76.3403 68.5592 76.384 68.5021 76.4199 68.4401C76.5166 68.2714 76.5969 68.094 76.6599 67.9101C77.0599 66.8001 77.4399 65.6501 77.9099 64.5401C78.931 62.0847 80.1448 59.714 81.5399 57.4501C82.4008 56.0505 83.332 54.6954 84.3299 53.3901C85.8685 51.4055 87.6225 49.5977 89.5599 48.0001C91.0045 46.7004 92.5952 45.5728 94.2999 44.6401C94.6745 44.4294 95.0619 44.2424 95.4599 44.0801C95.9932 43.841 96.5765 43.7347 97.1599 43.7701C97.3328 43.7839 97.5012 43.8316 97.6557 43.9105C97.8101 43.9895 97.9475 44.098 98.0599 44.2301C98.1772 44.3402 98.2843 44.4607 98.3799 44.5901C98.6399 45.0001 98.1399 45.5901 97.2599 46.1701C94.5938 47.8521 92.154 49.8685 89.9999 52.1701C88.3524 53.936 86.8634 55.8434 85.5499 57.8701L85.4699 57.8301Z" fill="#221F1F"/>
<path d="M77.5301 119.17C64.9801 115.47 50.1201 110.05 44.4301 101.6C39.1301 93.7601 35.2901 84.7901 31.4301 76.1601C27.0401 66.4501 22.5301 56.6601 19.1201 46.5801L17.3501 50.0001C20.7501 60.1001 25.2701 69.9001 29.6601 79.6001C33.5701 88.2301 37.4101 97.2001 42.7101 105.05C47.6301 112.34 69.6501 121.66 73.8001 120.5L77.5301 119.17Z" fill="#231F20"/>
<path d="M95.1201 27.69C93.3209 27.2131 91.554 26.6219 89.8301 25.92C89.2001 25.68 88.5601 25.43 87.9501 25.15C85.798 24.1142 83.7518 22.8717 81.8401 21.44C81.4101 21.14 81.0201 20.78 80.6001 20.44C80.1801 20.1 79.7501 19.81 79.3701 19.44C78.9901 19.07 78.3701 18.57 77.8601 18.1C77.3941 17.6124 76.9567 17.0982 76.5501 16.56C76.0601 15.89 77.7601 15.82 78.8001 16.83C80.75 18.5967 82.8218 20.2241 85.0001 21.7C85.6605 22.16 86.3598 22.5616 87.0901 22.9L88.2001 23.42L89.3301 23.88C90.9871 24.5695 92.6834 25.1606 94.4101 25.65C95.4901 25.91 96.5601 26.2 97.6601 26.38C99.3099 26.7108 100.981 26.928 102.66 27.03C103.96 27.03 105.23 27.03 106.51 26.92L107.35 26.86C108.41 26.81 108.74 26.93 109 27.42C109.061 27.5259 109.115 27.6362 109.16 27.75C109.29 28.13 108.86 28.46 108.07 28.61C106.872 28.8273 105.658 28.9477 104.44 28.97C103.187 28.9795 101.934 28.9094 100.69 28.76C98.8238 28.5465 96.9733 28.2125 95.1501 27.76L95.1201 27.69Z" fill="#221F1F"/>
</svg>
