<svg width="128" height="128" viewBox="0 0 128 128" fill="none" xmlns="http://www.w3.org/2000/svg">
<path d="M109.29 31.71C109.311 31.5318 109.367 31.3595 109.455 31.2031C109.543 31.0466 109.661 30.9092 109.802 30.7985C109.943 30.6879 110.105 30.6064 110.278 30.5586C110.451 30.5107 110.632 30.4976 110.81 30.52C114.53 31 108.8 35.61 109.29 31.71Z" stroke="#231F20" stroke-miterlimit="10"/>
<path d="M84.8301 27.93C84.8523 27.7514 84.9096 27.5789 84.9985 27.4224C85.0875 27.2659 85.2064 27.1285 85.3485 27.018C85.4906 26.9074 85.653 26.826 85.8266 26.7783C86.0002 26.7306 86.1815 26.7176 86.3601 26.74C90.0801 27.2 84.3501 31.83 84.8301 27.93Z" fill="#231F20"/>
<path d="M75.4297 9.24002C75.453 9.05808 75.5123 8.88261 75.6042 8.72387C75.6961 8.56512 75.8187 8.42629 75.9649 8.3155C76.1111 8.2047 76.2779 8.12415 76.4556 8.07857C76.6332 8.03299 76.8182 8.02328 76.9997 8.05002C80.6797 8.51002 74.9997 13.14 75.4297 9.24002Z" stroke="#231F20" stroke-miterlimit="10"/>
<path d="M68.4701 119.51C64.2601 119.77 60.0401 119.97 55.8101 120C54.2601 120 52.7101 120 51.1701 120C45.7901 119.79 40.3601 119.67 34.9501 119.28C32.5501 119.1 30.1401 118.93 27.7601 118.63C26.2301 118.44 24.7001 118.21 23.1801 117.89C22.4193 117.716 21.6683 117.503 20.9301 117.25C20.1914 116.981 19.4785 116.647 18.8001 116.25C17.9601 115.74 18.1801 115.67 19.0101 115.81C19.8401 115.95 21.3101 116.02 22.9601 116.43C25.9708 117.054 29.0216 117.465 32.0901 117.66C35.1801 117.9 38.3001 118.05 41.4301 118.2C45.1801 118.38 49.1201 118.29 52.9501 118.36C57.1501 118.36 61.3701 118.21 65.5901 117.95C68.1901 117.78 70.7801 117.6 73.3701 117.37C77.3001 117.04 81.2501 116.68 85.1401 116.23C88.1401 115.88 91.1401 115.41 94.1401 114.99L96.1401 114.71C98.6001 114.4 99.4001 114.46 99.9901 114.93C100.127 115.024 100.254 115.131 100.37 115.25C100.65 115.64 99.6801 116.07 97.8901 116.38C92.5801 117.29 86.8901 117.96 81.2701 118.53C77.0501 118.96 72.8001 119.31 68.5601 119.62L68.4701 119.51Z" fill="#231F20"/>
<path d="M69.9998 85.7701C67.7994 84.2377 65.4094 82.9974 62.8898 82.0801C60.4516 81.2942 57.8148 81.3898 55.4398 82.3501C53.6358 83.0759 51.924 84.0124 50.3398 85.1401C48.8898 86.1401 47.4898 87.1401 46.0798 88.2801C44.6698 89.4201 43.2198 90.4401 41.8598 91.5601C39.1198 93.8001 36.4998 96.2101 33.9498 98.6901C31.6798 100.9 29.4598 103.2 27.2998 105.48C24.5498 108.48 21.9198 111.48 19.1998 114.48C18.3698 115.41 18.1998 115.05 18.4898 113.94C19.086 112.192 20.009 110.573 21.2098 109.17C23.9398 106.03 26.8498 103.04 29.7698 100.17C32.6898 97.3001 35.7098 94.3301 38.9398 91.6401C40.8698 90.0201 42.9398 88.4301 44.9398 86.8501C46.942 85.1888 49.0571 83.6685 51.2698 82.3001C52.5434 81.5645 53.8825 80.9485 55.2698 80.4601C56.6905 79.9877 58.1732 79.7282 59.6698 79.6901C61.1713 79.7049 62.6592 79.9755 64.0698 80.4901C65.4146 80.9994 66.7213 81.6043 67.9798 82.3001C71.0308 84.012 73.9049 86.0218 76.5598 88.3001C80.5598 91.7101 84.2998 95.4101 88.0398 99.0001C90.9498 101.8 93.8498 104.48 96.7698 107.19L98.6898 108.96C101.06 111.21 101.69 111.96 101.88 112.88C101.934 113.073 101.968 113.27 101.98 113.47C101.98 113.98 100.7 113.34 98.8598 111.78C93.4198 107.12 88.1298 101.78 82.6898 96.6101C78.5698 92.6901 74.5498 88.8201 69.9998 85.8101V85.7701Z" fill="#231F20"/>
<path d="M14.9099 95.8C14.9099 93.34 14.9099 90.9 14.9599 88.43C14.9599 87.53 14.9599 86.63 15.0199 85.74C15.2099 82.57 15.6299 79.45 15.9299 76.34C16.0599 74.95 16.1299 73.56 16.1699 72.19C16.1699 70.42 16.1699 68.66 16.3499 66.9C16.4099 66.35 16.7599 66.41 17.1299 66.9C17.6504 67.5738 17.9538 68.3898 17.9999 69.24C18.0626 72.9006 17.8184 76.5601 17.2699 80.18C16.9799 82.34 16.9299 84.6 16.8299 86.81C16.7299 89.24 16.7299 91.69 16.7399 94.14C16.7399 95.65 16.7399 97.14 16.8299 98.67C16.9099 100.95 17.0199 103.24 17.2699 105.49C17.4599 107.24 17.7899 108.94 18.1199 110.64C18.1899 111.01 18.2699 111.38 18.3499 111.76C18.5999 113.16 18.5499 113.63 18.1199 114.02C18.0367 114.117 17.9427 114.204 17.8399 114.28C17.5199 114.48 17.0799 113.96 16.7899 112.93C15.9753 109.751 15.4565 106.504 15.2399 103.23C15.0399 100.76 14.9499 98.23 14.8799 95.8H14.9099Z" fill="#231F20"/>
<path d="M102.12 94.89C102.07 92.61 101.97 90.31 101.84 88.01C101.84 87.18 101.67 86.34 101.62 85.5C101.44 82.5 101.38 79.5 101.43 76.5C101.43 75.17 101.43 73.84 101.43 72.5C101.43 71.66 101.43 70.81 101.43 69.97C101.43 69.13 101.58 68.29 101.72 67.45C101.81 66.93 102.11 67.01 102.44 67.45C102.898 68.1165 103.183 68.8862 103.27 69.69C103.4 73.11 103.41 76.49 103.27 79.92C103.286 82.0158 103.419 84.1091 103.67 86.19C103.85 88.51 103.997 90.8433 104.11 93.19C104.18 94.62 104.21 96.06 104.24 97.5C104.24 99.68 104.24 101.88 104.14 104.05C104.07 105.74 104.07 107.41 103.88 109.11C103.88 109.48 103.79 109.85 103.73 110.23C103.672 110.521 103.595 110.809 103.5 111.09C103.417 111.286 103.31 111.471 103.18 111.64C103.009 111.883 102.751 112.051 102.46 112.11C102.34 112.15 102.216 112.177 102.09 112.19C101.71 112.19 101.53 111.56 101.56 110.59C101.8 107.76 102.03 104.77 102.08 101.71C102.08 99.43 102.08 97.13 102 94.83L102.12 94.89Z" fill="#231F20"/>
<path d="M86.63 70.08C88.63 68.85 90.51 67.61 92.4 66.31C93.1 65.83 93.74 65.31 94.4 64.82C95.6 63.97 96.79 63.11 97.91 62.19C98.47 61.73 99.01 61.26 99.5 60.77C99.711 60.5563 99.9081 60.3291 100.09 60.09C100.18 59.96 100.28 59.77 100.18 59.61L100.04 59.42L99.78 59C99.57 58.74 99.39 58.47 99.19 58.21L98 56.68L94.88 52.68C94.23 51.86 95.88 52.18 97.25 53.56C98.5 54.76 99.72 55.99 100.89 57.28C101.03 57.44 101.18 57.6 101.31 57.78L101.81 58.43C102.067 58.7339 102.23 59.1055 102.28 59.5C102.291 59.9175 102.195 60.3308 102 60.7C101.92 60.88 101.8 61.05 101.71 61.22C101.62 61.39 101.54 61.44 101.46 61.55C101.38 61.66 101.13 61.94 100.97 62.11C100.655 62.4615 100.321 62.7953 99.97 63.11C98.29 64.46 96.63 65.86 94.89 67.11C93 68.43 91 69.73 89.09 71L85.46 73.34C83.64 74.52 81.77 75.66 79.98 76.86C78.58 77.79 77.28 78.8 75.98 79.77C75.69 79.99 75.41 80.21 75.1 80.42C73.98 81.19 73.51 81.2701 72.96 80.9401C72.8322 80.8782 72.7086 80.8081 72.59 80.7301C72.27 80.4601 72.52 79.8101 73.29 79.1601C75.6895 77.2461 78.1933 75.4667 80.79 73.83L86.6 70L86.63 70.08Z" fill="#231F20"/>
<path d="M30.7597 73.59C28.5131 72.2567 26.2897 70.8534 24.0897 69.38C23.2897 68.85 22.4597 68.38 21.6697 67.8C20.2504 66.8124 18.9127 65.7122 17.6697 64.51C17.5097 64.34 17.3497 64.17 17.1997 63.98C16.9881 63.7326 16.8068 63.4606 16.6597 63.17C16.5148 62.8858 16.4459 62.5688 16.4597 62.25C16.5116 61.9351 16.6501 61.6408 16.8597 61.4C17.1914 61.0131 17.5453 60.6458 17.9197 60.3L18.8497 59.44L22.1497 56.44C23.5297 55.14 24.9397 53.86 26.2597 52.54C26.6597 52.14 26.8197 52.33 26.6997 52.89C26.4486 53.742 26.0114 54.5276 25.4197 55.19C24.1597 56.7 22.8597 58.19 21.5397 59.57C20.8797 60.28 20.1497 60.92 19.4797 61.57C18.6297 62.47 18.5597 62.25 18.6197 62.57C18.6326 62.6233 18.6604 62.6719 18.6997 62.71C18.7743 62.8111 18.8544 62.9079 18.9397 63C19.1229 63.2032 19.3165 63.3968 19.5197 63.58C19.9297 63.95 20.3897 64.31 20.8497 64.66C21.7897 65.36 22.7797 66.02 23.7597 66.66C25.9197 68.11 28.1297 69.51 30.3697 70.87C31.7497 71.71 33.1397 72.5334 34.5397 73.34C36.6597 74.55 38.7897 75.78 40.9497 76.89C42.6297 77.75 44.3397 78.48 46.0397 79.24C46.4197 79.41 46.7897 79.56 47.1597 79.74C48.5597 80.39 48.9097 80.74 48.9497 81.43C48.9645 81.573 48.9645 81.7171 48.9497 81.86C48.9497 82.29 48.1597 82.38 47.0897 81.99C43.8415 80.7249 40.6841 79.2381 37.6397 77.54C35.3097 76.3 32.9997 75 30.7297 73.64L30.7597 73.59Z" fill="#231F20"/>
<path d="M34.6796 39.07C39.3196 38.44 43.9996 38 48.5896 37.63C50.2796 37.49 51.9696 37.3 53.6596 37.19C59.6596 36.78 65.5997 36.59 71.5797 36.49C74.2297 36.49 76.8997 36.38 79.5797 36.38C81.2797 36.38 82.9797 36.38 84.6897 36.52C85.5396 36.59 86.3896 36.68 87.2496 36.83C88.1304 36.959 88.9908 37.201 89.8096 37.55C90.3596 37.81 90.5396 38.17 90.4196 38.22C90.2996 38.27 89.9897 38.22 89.5497 38.22C88.6597 38.22 87.0696 38.4 85.1696 38.37C78.4096 38.18 71.5297 38.37 64.6197 38.56C60.4697 38.67 56.1796 39.05 51.9496 39.39C47.3097 39.75 42.6596 40.16 38.0396 40.73C35.2115 41.0387 32.4012 41.4927 29.6196 42.09C29.3596 42.16 29.0996 42.22 28.8596 42.3L28.4996 42.41L28.2096 42.51C28.0729 42.5515 27.949 42.6272 27.8496 42.73C27.8039 42.8685 27.7836 43.0142 27.7896 43.16C27.7896 44.16 27.7896 45.3 27.7896 46.37C27.8496 48.54 27.9296 50.72 28.0196 52.87C28.1696 56.23 28.4496 59.51 28.6296 62.87C28.6296 63.6 28.7096 64.32 28.7496 65.06C28.8396 67.8 28.6896 68.7 28.1096 69.28C27.9952 69.4187 27.8642 69.543 27.7196 69.65C27.2796 69.86 27.0096 68.79 26.8696 66.81C26.4396 60.92 25.9796 54.68 25.7396 48.39L25.6396 44.86V42.92C25.6545 42.6422 25.7015 42.367 25.7796 42.1C25.8355 41.8329 25.9595 41.5849 26.1396 41.38C26.5209 40.9687 27.0037 40.6652 27.5396 40.5C28.7305 40.1153 29.9468 39.8146 31.1796 39.6C32.3596 39.38 33.5296 39.2 34.6996 39.02L34.6796 39.07Z" fill="#231F20"/>
<path d="M91.8198 49.46L91.8798 53C91.8798 53.43 91.9598 53.85 91.9698 54.28C91.9698 55.81 91.9698 57.28 92.1098 58.85C92.1511 59.5203 92.2279 60.1879 92.3398 60.85C92.543 61.6906 92.6172 62.5572 92.5598 63.42C92.5598 63.7 92.1698 63.7101 91.7698 63.5401C91.544 63.45 91.3388 63.3149 91.1669 63.143C90.995 62.9711 90.8599 62.7659 90.7698 62.5401C90.4343 60.7966 90.2636 59.0255 90.2598 57.25C90.2598 56.18 90.0498 55.09 89.9498 54.01C89.8498 52.93 89.7798 51.62 89.7398 50.42L89.6698 48.2001C89.6698 47.0801 89.5998 45.96 89.5598 44.85C89.5598 43.99 89.3398 43.14 89.3398 42.28C89.3398 42.1 89.3398 41.9101 89.3398 41.7201C89.3398 41.0101 89.5198 40.7901 89.9398 40.6501C90.0301 40.6111 90.1238 40.5809 90.2198 40.5601C90.5298 40.5001 90.7898 40.7901 90.9398 41.2901C91.1692 42.0375 91.3496 42.7991 91.4799 43.57C91.5899 44.35 91.6699 45.13 91.7299 45.92L91.8798 49.46H91.8198Z" fill="#231F20"/>
<path d="M61.68 24.41C60.6863 24.5708 59.7345 24.9277 58.88 25.46C57.845 26.0217 56.8433 26.6427 55.88 27.32C55.16 27.81 54.5 28.38 53.79 28.89C51.29 30.6966 48.8167 32.58 46.37 34.54C45.29 35.41 44.24 36.32 43.19 37.22C42.51 37.78 41.83 38.36 41.11 38.9C40.3739 39.482 39.5548 39.9505 38.68 40.29C38.34 40.39 38.13 40.29 38.14 40.17C38.1838 39.9557 38.2614 39.7498 38.37 39.56C38.693 38.8347 39.1629 38.1843 39.75 37.65C42.34 35.27 45.11 32.94 48.03 30.75C49.79 29.46 51.45 27.9 53.26 26.56C55.2526 25.0027 57.4248 23.69 59.73 22.65C60.1417 22.4922 60.5667 22.3717 61 22.29C61.2344 22.2489 61.472 22.2288 61.71 22.23C61.9562 22.2278 62.2017 22.2581 62.44 22.32C63.2452 22.5454 64.0084 22.9 64.7 23.37C66.6243 24.6836 68.4251 26.1698 70.08 27.81C71.38 29.02 72.7 30.17 73.95 31.42C74.23 31.69 74.51 31.94 74.77 32.24C75.71 33.35 75.87 33.82 75.61 34.42C75.5608 34.5627 75.4971 34.7001 75.42 34.83C75.15 35.22 74.5 35 73.72 34.31C71.4 32.31 69.21 29.93 66.83 27.82C65.9703 27.0447 65.069 26.317 64.13 25.64C63.6891 25.3296 63.2281 25.049 62.75 24.8C62.5461 24.7019 62.3356 24.6184 62.12 24.55L61.85 24.47C61.8005 24.4799 61.7495 24.4799 61.7 24.47L61.68 24.41Z" fill="#231F20"/>
<path d="M65.52 51.77L59.79 52L57.7 52.12C55.24 52.22 52.77 52.21 50.31 52.25L47 52.29C45.5794 52.4013 44.1503 52.3239 42.75 52.06C42.29 51.92 42.46 51.76 42.86 51.63C43.4407 51.4315 44.0468 51.317 44.66 51.29C47.45 51.18 50.28 50.91 53.13 50.84C54.84 50.78 56.61 50.6 58.35 50.48L64.12 50.13L67.67 49.93C69.46 49.81 71.26 49.74 73.04 49.61C74.43 49.51 75.77 49.29 77.15 49.16C77.45 49.16 77.75 49.08 78.05 49.06C79.2 49.01 79.56 49.13 79.8 49.63C79.8813 49.7448 79.9485 49.869 80 50C80.11 50.39 79.65 50.72 78.84 50.84C76.44 51.22 73.84 51.41 71.31 51.57C69.39 51.69 67.46 51.74 65.54 51.84L65.52 51.77Z" fill="#231F20"/>
<path d="M63.8097 59.55H61.6297C61.3597 59.55 61.0997 59.6 60.8297 59.55C59.8897 59.55 58.9397 59.45 57.9997 59.4C57.5797 59.4 57.1697 59.4 56.7497 59.4C56.2193 59.4617 55.6825 59.4381 55.1597 59.33C54.8297 59.24 55.2897 58.11 55.8797 58.08C56.94 58.0284 58.0026 58.0518 59.0597 58.15C59.7277 58.1764 60.3967 58.1463 61.0597 58.06L63.2097 58H64.5597C65.2397 58 65.9297 58 66.5597 57.93C67.1897 57.86 67.5597 57.75 68.1397 57.67C68.2597 57.67 68.3697 57.62 68.4897 57.61C68.9197 57.61 69.0597 57.7 69.1397 58.17C69.1397 58.27 69.1397 58.38 69.1397 58.48C69.1623 58.639 69.1287 58.8009 69.0447 58.9378C68.9608 59.0747 68.8317 59.178 68.6797 59.23C67.763 59.4723 66.8178 59.59 65.8697 59.58L63.7097 59.63L63.8097 59.55Z" fill="#231F20"/>
<path d="M69.7699 120.29C66.3199 120.5 62.8699 120.67 59.4099 120.78C58.1399 120.78 56.8799 120.89 55.6199 120.9C51.1499 120.9 46.7199 120.69 42.2899 120.51L36.3899 120.29C33.8678 120.302 31.3501 120.078 28.8699 119.62C28.0999 119.45 28.2199 119.27 28.8699 119.05C29.2099 118.93 29.6899 118.81 30.2599 118.67C30.5663 118.595 30.8768 118.539 31.1899 118.5C31.5199 118.5 31.8699 118.5 32.1899 118.5L47.5099 119.03C50.5999 119.17 53.7799 119.03 56.9099 118.89C60.3599 118.74 63.8199 118.59 67.2799 118.36C69.3999 118.21 71.5299 118.06 73.6599 117.88C76.8699 117.61 80.1099 117.33 83.2899 116.88C85.7599 116.57 88.1699 116.12 90.5999 115.7C91.1299 115.61 91.5999 115.5 92.1899 115.42C94.1899 115.11 94.8499 115.17 95.3699 115.73C95.4962 115.841 95.6102 115.965 95.7099 116.1C95.9699 116.55 95.1999 117.1 93.7099 117.38C89.2165 118.314 84.672 118.982 80.0999 119.38C76.6399 119.74 73.1599 120.01 69.6799 120.27L69.7699 120.29Z" fill="#231F20"/>
<path d="M34.5198 75.06L30.1398 72.34C29.6098 72 29.0498 71.72 28.5198 71.34C26.6698 70.12 24.8398 68.87 23.0698 67.53C22.2698 66.97 21.4998 66.33 20.7198 65.74C20.2398 65.33 19.7198 64.97 19.2698 64.51L18.5798 63.85C18.3598 63.61 18.1598 63.35 17.9598 63.09C17.7598 62.83 17.9598 62.66 18.3598 62.73C18.9215 62.8391 19.4554 63.0601 19.9298 63.38C20.9298 64.05 22.0598 64.65 23.1398 65.28C24.2198 65.91 25.2098 66.69 26.2298 67.45C27.4909 68.3731 28.803 69.2245 30.1598 70C31.6198 70.9067 33.0831 71.8034 34.5498 72.69L37.2798 74.31C38.6798 75.1 40.0598 75.92 41.4798 76.64C42.5898 77.19 43.7298 77.64 44.8598 78.1L45.5998 78.4101C46.5198 78.8201 46.7198 79.13 46.6598 79.72C46.6702 79.8498 46.6702 79.9803 46.6598 80.11C46.5698 80.51 46.0198 80.68 45.3098 80.46C43.1235 79.7262 41.0109 78.7888 38.9998 77.6601C37.4698 76.85 35.9998 75.97 34.4698 75.11L34.5198 75.06Z" fill="#231F20"/>
<path d="M84.61 70.52C86.01 69.65 87.41 68.76 88.79 67.85C89.29 67.51 89.79 67.13 90.26 66.85C92.02 65.67 93.78 64.48 95.49 63.23C96.22 62.65 96.97 62.08 97.65 61.46C98.0855 61.0695 98.4995 60.6556 98.89 60.22C99.2435 59.8792 99.5079 59.4569 99.66 58.99C99.66 58.88 99.8 58.56 100.19 58.88C100.285 59.0077 100.353 59.1532 100.391 59.3077C100.429 59.4623 100.435 59.6229 100.41 59.78C100.368 60.152 100.245 60.5103 100.05 60.83C99.3591 61.9426 98.5475 62.9755 97.63 63.91C96.6992 64.7629 95.6953 65.5326 94.63 66.21C93.35 67.01 92.16 68.01 90.9 68.88C89.64 69.75 88.11 70.76 86.7 71.67L84.08 73.3C82.77 74.15 81.43 74.96 80.15 75.84C79.15 76.52 78.25 77.29 77.3 78.02C77.09 78.18 76.89 78.35 76.67 78.5C75.87 79.07 75.51 79.08 75.04 78.73C74.9315 78.6606 74.8279 78.5838 74.73 78.5C74.44 78.21 74.56 77.66 75.09 77.17C76.7496 75.7005 78.5217 74.3631 80.39 73.17L84.58 70.44L84.61 70.52Z" fill="#231F20"/>
<path d="M37.5598 93.21L34.8998 95.43L32.2998 97.74L30.4798 99.5C28.3198 101.5 26.1498 103.61 24.1098 105.79C23.2098 106.79 22.3298 107.79 21.4998 108.79C20.4716 110.133 19.3734 111.422 18.2098 112.65C17.8398 113.02 17.6398 112.78 17.6498 112.23C17.7024 111.416 17.9831 110.632 18.4598 109.97C20.6326 107.231 22.9951 104.648 25.5298 102.24C27.0498 100.8 28.5298 99.18 30.0998 97.73C30.9498 96.91 31.8298 96.12 32.7198 95.35C33.6098 94.58 34.4998 93.79 35.3998 93C36.4998 92 37.6598 91.16 38.7898 90.25C40.5198 88.9 42.3098 87.6 44.0998 86.35C45.4598 85.35 46.8398 84.4 48.2198 83.43L49.1598 82.84C50.3598 82.14 50.7998 82.01 51.2598 82.25C51.3658 82.2912 51.4665 82.3449 51.5598 82.41C51.8298 82.63 51.4698 83.15 50.6598 83.72C48.2098 85.37 45.6598 87.15 43.1198 88.95L40.3298 91.03L37.5898 93.21H37.5598Z" fill="#231F20"/>
<path d="M25.5798 63C25.5798 62.24 25.5798 61.48 25.5798 60.73C25.5798 60.45 25.5798 60.18 25.5798 59.9C25.5798 58.9 25.6698 57.97 25.6798 57C25.6798 56.57 25.6798 56.14 25.6198 55.72C25.5331 55.1813 25.5063 54.6346 25.5398 54.09C25.5398 53.74 26.5398 54.09 26.5998 54.72C26.7798 55.8304 26.8501 56.9558 26.8098 58.08C26.8098 58.76 26.8898 59.46 26.9098 60.14L26.9998 62.38C26.9998 62.84 26.9998 63.31 26.9998 63.77C26.9998 64.47 27.0698 65.18 27.1598 65.87C27.2498 66.4 27.3998 66.87 27.5198 67.43C27.5198 67.55 27.5698 67.66 27.5898 67.78C27.5898 68.21 27.5398 68.37 27.2098 68.51C27.1404 68.5515 27.0666 68.5851 26.9898 68.61C26.8521 68.6424 26.7073 68.6225 26.5834 68.5542C26.4596 68.4858 26.3656 68.3738 26.3198 68.24C25.8398 67.3128 25.5894 66.284 25.5898 65.24C25.5298 64.47 25.5298 63.7 25.5098 62.94L25.5798 63Z" fill="#231F20"/>
</svg>
