<svg width="128" height="128" viewBox="0 0 128 128" fill="none" xmlns="http://www.w3.org/2000/svg">
<path d="M86.3402 35.63C86.0002 35.93 85.6402 36.28 85.4102 36.73C85.3102 36.89 85.2902 37.08 85.2202 37.25C84.9402 37.85 84.7302 38.55 84.7002 39.28C84.6702 39.6 84.7202 39.93 84.7902 40.25C84.8302 40.45 84.8802 40.66 84.9302 40.86C84.9502 41.07 84.8902 41.3 84.8202 41.55C84.7702 41.7 84.5202 41.77 84.1802 41.74C83.8502 41.71 83.3502 41.61 83.1202 41.37C82.9902 41.14 82.9302 40.9 82.8602 40.65C82.8102 40.4 82.7202 40.15 82.7202 39.89C82.7202 39.36 82.7702 38.84 82.9502 38.32C83.1402 37.71 83.1702 37.06 83.3902 36.45C83.6502 35.79 84.0102 35.15 84.5002 34.62C84.7802 34.28 85.1302 34 85.4602 33.73C86.0002 33.34 86.6002 33.06 87.2002 32.83C87.6702 32.66 88.1202 32.36 88.6302 32.3C88.7402 32.28 88.8502 32.24 88.9602 32.25C89.3802 32.3 89.5002 32.53 89.5502 32.95C89.5602 33.05 89.5802 33.15 89.5802 33.24C89.5802 33.55 89.4202 33.84 89.1902 34.06C88.5302 34.63 88.0202 34.71 87.4802 34.97C87.0902 35.15 86.7202 35.38 86.3702 35.68L86.3302 35.65L86.3402 35.63Z" fill="#231F20"/>
<path d="M27.5699 35.35C27.2299 35.59 26.9399 35.9 26.7099 36.27C26.6299 36.41 26.5699 36.56 26.5099 36.71C26.3799 36.97 26.2599 37.24 26.1499 37.54C26.0099 37.82 25.9499 38.14 25.8699 38.45C25.7999 38.73 25.8299 39.02 25.8199 39.31C25.8199 39.68 25.8599 40.05 25.7399 40.44C25.6999 40.56 25.5199 40.57 25.3099 40.5C25.0999 40.43 24.8099 40.26 24.7199 40.04C24.6499 39.84 24.5499 39.64 24.5099 39.43C24.4899 39.22 24.4699 39.01 24.4599 38.79C24.4399 38.37 24.5099 37.93 24.6299 37.5C24.7799 36.99 24.8799 36.45 25.0999 35.94C25.3699 35.39 25.7099 34.88 26.1499 34.45C26.4199 34.19 26.6999 33.95 27.0099 33.76C27.4599 33.44 27.9699 33.25 28.4499 33.03C28.8199 32.87 29.1699 32.64 29.5499 32.49C29.6299 32.45 29.7099 32.41 29.7999 32.38C30.1199 32.32 30.2499 32.41 30.3899 32.79C30.4199 32.88 30.4599 32.96 30.4799 33.05C30.5599 33.34 30.4799 33.61 30.2999 33.77C29.7399 34.22 29.1699 34.42 28.6499 34.7C28.2799 34.91 27.8899 35.08 27.5899 35.37L27.5599 35.34L27.5699 35.35Z" fill="#231F20"/>
<path d="M83.45 109.69C83.29 107.83 83.27 106 83.15 104.18C83.12 103.51 83.04 102.85 83.03 102.18C82.98 99.83 82.96 97.49 83.08 95.14C83.12 94.1 83.13 93.06 83.13 92.02C83.17 91.36 83.22 90.69 83.28 90.03C83.37 89.37 83.53 88.71 83.66 88.06C83.75 87.65 83.79 87.71 83.9 88.06C84 88.41 84.28 89.07 84.45 89.83C84.55 90.5 84.6 91.18 84.67 91.85C84.72 92.52 84.67 93.19 84.67 93.86C84.64 95.2 84.63 96.55 84.51 97.9C84.38 99.52 84.49 101.2 84.51 102.86C84.54 104.68 84.61 106.5 84.81 108.31C84.93 109.4 85.05 110.55 85.33 111.53C85.53 112.14 86.15 112.64 86.84 113C87.53 113.36 88.32 113.59 89.12 113.71C90.36 113.9 91.62 113.77 92.76 113.45C93.01 113.38 93.26 113.32 93.5 113.24C93.73 113.19 93.92 113.13 94.07 113.08C94.23 113.05 94.38 113.06 94.51 113.06C94.75 113.06 94.94 113.12 95.14 113.22C95.23 113.27 95.34 113.3 95.41 113.35C95.53 113.44 95.53 113.58 95.42 113.8C95.31 114.02 95.09 114.35 94.72 114.61C93.58 115.35 92.21 115.62 90.88 115.61C89.54 115.61 88.19 115.37 86.88 114.85C85.92 114.44 84.92 113.9 84.18 112.79C83.82 112.14 83.71 111.59 83.64 111.11C83.55 110.62 83.51 110.15 83.45 109.68H83.49L83.45 109.69Z" fill="#231F20"/>
<path d="M25.3899 108.74C25.3699 107.08 25.4699 105.44 25.4499 103.81C25.4499 103.21 25.4199 102.62 25.4499 102.03C25.5199 99.94 25.6099 97.85 25.7799 95.77C25.8399 94.85 25.8599 93.91 25.8699 93L25.9999 91.23C26.0799 90.64 26.2099 90.05 26.3199 89.46C26.3999 89.09 26.4299 89.14 26.5599 89.46C26.6699 89.77 26.9799 90.35 27.1599 91.04C27.2599 91.65 27.3299 92.25 27.3999 92.86C27.4399 93.47 27.3999 94.07 27.3899 94.67C27.3399 95.88 27.2999 97.09 27.1299 98.3C26.9499 99.75 26.9599 101.26 26.8999 102.74C26.8199 104.37 26.7799 106 26.8499 107.62C26.8899 108.61 26.9399 109.61 27.0699 110.58C27.1699 111.3 27.3099 112.05 27.5899 112.61C27.6699 112.74 27.7299 112.83 27.8099 112.9C27.9499 113 28.0799 113.11 28.2399 113.2C28.5399 113.39 28.8599 113.55 29.1899 113.7C30.2199 114.15 31.3399 114.37 32.4099 114.44C32.6499 114.46 32.8699 114.47 33.0899 114.49C33.8999 114.5 34.1199 114.75 34.4199 115.02C34.4899 115.09 34.5799 115.15 34.6299 115.22C34.8399 115.4 34.5199 115.9 33.6699 116.21C32.4299 116.5 31.2499 116.29 30.1299 115.94C28.9999 115.57 27.9199 115.11 26.8699 114.29C26.7999 114.24 26.6199 114.08 26.4799 113.92C26.3299 113.76 26.2799 113.63 26.1799 113.48C26.0399 113.21 25.9299 112.95 25.8599 112.71C25.7099 112.22 25.6299 111.78 25.5699 111.34C25.4499 110.46 25.4099 109.61 25.3799 108.77H25.4199L25.3899 108.74Z" fill="#231F20"/>
<path d="M82.0598 111.94C82.0598 111.94 73.5998 113.1 76.1598 114.99C81.0498 118.6 92.9498 116.41 92.9498 116.41C92.9498 116.41 87.3298 115.77 83.3198 114.06C81.8798 113.45 82.0598 111.94 82.0598 111.94Z" fill="#231F20"/>
<path d="M24.3302 112.35C24.3302 112.35 15.8102 113.6 18.4302 115.4C23.0902 118.59 34.6002 116.71 34.6002 116.71C34.6002 116.71 29.6102 116.18 25.5902 114.47C24.1502 113.86 24.3302 112.35 24.3302 112.35Z" fill="#231F20"/>
<path d="M35.1701 34.52C34.0801 34.27 32.7201 34.18 31.4301 34.26C30.9501 34.29 30.4901 34.41 30.0201 34.46C29.1901 34.55 28.3501 34.66 27.5901 34.85C27.2301 34.93 26.8101 35.08 26.6101 35.16C26.4101 35.25 26.3101 35.32 26.1401 35.64C25.8801 36.18 25.7401 36.91 25.7201 37.62C25.7001 38.56 25.8801 39.47 25.4701 40.47C25.3101 40.79 25.0101 40.82 24.4601 40.63C23.8601 40.45 23.1101 39.98 22.9501 39.33C22.7701 38.76 22.8201 38.19 22.8101 37.6C22.8301 37.01 22.8901 36.41 23.0301 35.78C23.1701 35.13 23.4201 34.52 23.9601 33.78C24.2701 33.38 24.6401 33.07 25.0701 32.86C25.5101 32.64 25.7701 32.58 26.1001 32.5C27.5501 32.19 28.8201 31.84 30.1601 31.7C31.6201 31.58 33.0801 31.54 34.5701 31.68C35.0301 31.73 35.5001 31.79 35.9801 31.91C36.4101 32.02 37.1401 32.23 37.5901 32.64C37.7701 32.79 37.9101 32.98 38.0201 33.19C38.2301 33.62 38.3501 33.87 38.4401 34.21C38.5501 34.53 38.6001 34.85 38.6601 35.17C38.7501 35.81 38.7801 36.45 38.7601 37.07C38.7301 38.16 38.7001 39.25 38.5201 40.29C38.4801 40.52 38.4701 40.75 38.4101 40.98C38.3101 41.4 38.1801 41.63 37.9501 41.74C37.7601 41.84 37.4601 41.86 37.0901 41.83C36.9301 41.83 36.7701 41.84 36.6201 41.85C36.1801 41.93 35.6401 41.21 35.6301 40.59C35.7301 38.8 36.0801 37.22 35.9301 35.9C35.9101 35.66 35.8601 35.44 35.8101 35.23L35.7201 34.92L35.6601 34.79C35.6601 34.79 35.6601 34.8 35.6801 34.8C35.6801 34.8 35.6801 34.77 35.6801 34.76C35.6601 34.75 35.7301 34.78 35.6801 34.76C35.6401 34.74 35.5701 34.73 35.5201 34.71C35.4101 34.68 35.2801 34.65 35.1401 34.62V34.55L35.1701 34.52Z" fill="#231F20"/>
<path d="M87.7298 32.25C89.2298 32.18 90.6998 32.27 92.1898 32.42C92.7298 32.48 93.2898 32.48 93.8498 32.61C94.3898 32.74 94.9398 32.89 95.5198 33.15C95.6698 33.22 95.7998 33.28 95.9698 33.38C96.1698 33.49 96.3398 33.6 96.4898 33.74C96.8198 33.98 97.0398 34.33 97.2198 34.68C97.2598 34.75 97.2898 34.84 97.3198 34.9L97.3798 35.06L97.4898 35.39C97.5698 35.61 97.6198 35.83 97.6798 36.05C97.7898 36.49 97.8798 36.93 97.9398 37.37C98.0598 38.24 98.1098 39.12 98.0798 39.99C98.0598 40.55 98.0398 41.12 97.8798 41.67C97.7798 41.94 97.6898 42.21 97.5398 42.46C97.4698 42.59 97.3998 42.71 97.3198 42.83C97.2298 42.95 97.0898 43.04 96.9798 43.14C96.6598 43.37 96.4098 43.18 96.0398 42.74C95.6198 42.27 95.1398 41.66 95.1098 41.18C95.1298 40.34 95.2298 39.54 95.1398 38.71C95.0898 37.88 95.0698 37.01 94.9098 36.15L94.8798 36.04C94.8798 36.04 94.8798 36.01 94.8798 36C94.8798 35.91 94.8398 35.83 94.7698 35.77C94.7698 35.76 94.5298 35.62 94.3298 35.56C93.8998 35.41 93.3698 35.32 92.8498 35.22C91.5898 34.98 90.2298 34.9 88.8998 34.94C88.0798 34.97 87.2498 35.02 86.4598 35.17C85.9498 35.26 85.3798 35.4 84.9998 35.54C84.7098 35.64 84.3598 35.84 84.3798 36.2L84.3498 36.54C84.2698 37.53 84.3798 38.52 84.5098 39.44C84.5398 39.64 84.5998 39.83 84.6198 40.02C84.6798 40.37 84.6498 40.58 84.4898 40.77C84.3698 40.96 84.1098 41.11 83.7598 41.26C83.6098 41.33 83.4698 41.4 83.3298 41.45C82.9398 41.57 82.2098 41.42 81.8998 40.73C81.5998 39.86 81.5098 39.01 81.4898 38.19C81.4798 37.78 81.4898 37.37 81.5098 36.96L81.5598 36.35L81.5998 35.95L81.6598 35.46C81.7598 34.89 81.9998 34.32 82.4298 33.91C82.8798 33.43 83.6098 33.09 84.1298 32.88C84.5698 32.72 84.9698 32.62 85.3698 32.53C86.1698 32.36 86.9298 32.27 87.6898 32.2V32.27L87.7298 32.25Z" fill="#231F20"/>
<path d="M38.7899 109.21C38.6599 110.31 38.4799 111.43 38.1899 112.59C38.0499 113.17 37.8799 113.77 37.5999 114.42C37.5499 114.57 37.4299 114.76 37.3399 114.93C37.2399 115.12 37.1199 115.31 36.9499 115.5C36.6599 115.91 36.2199 116.13 35.8199 116.4L35.2699 116.6C35.1199 116.66 34.9699 116.7 34.8199 116.74C34.5199 116.82 34.2299 116.9 33.9299 116.95C33.3399 117.07 32.7599 117.13 32.1799 117.16C31.0199 117.21 29.8899 117.16 28.7599 116.99C28.1499 116.91 27.5399 116.77 26.9299 116.62C26.6199 116.53 26.3099 116.45 25.9999 116.32C25.8299 116.26 25.7299 116.22 25.4799 116.1C25.2399 116 25.0399 115.87 24.8199 115.75C24.2599 115.3 23.8699 114.67 23.7099 113.95C23.5999 113.44 23.5699 113.11 23.5299 112.72C23.4999 112.34 23.4799 111.99 23.4699 111.63C23.4499 110.92 23.4599 110.22 23.4799 109.53C23.5199 108.15 23.5999 106.79 23.6999 105.43L24.3399 97.33C24.5299 94.94 24.6299 92.54 24.6699 90.17C24.7199 88.65 24.7199 87.13 24.7299 85.62V84.49L24.8299 83.36L24.9199 82.23C24.9599 81.85 25.1299 81.47 25.1999 81.08C25.4699 80.12 25.4699 80.23 25.9799 81C26.5999 81.76 27.5599 83.26 27.6699 85.06C27.7299 86.65 27.7299 88.23 27.7099 89.81C27.6699 91.39 27.5499 92.95 27.4399 94.52C27.1999 97.65 26.8699 100.77 26.5199 103.88C26.3199 105.66 26.2099 107.48 26.1899 109.29C26.1799 110.19 26.1899 111.09 26.2599 111.95C26.2899 112.38 26.3399 112.8 26.4099 113.14C26.4499 113.33 26.4799 113.46 26.6199 113.54C26.6699 113.57 26.7099 113.6 26.7599 113.62C29.0199 114.63 32.3499 114.81 34.5599 113.94C34.9599 113.91 35.3499 112.69 35.5499 111.6C35.9599 109.17 36.0299 106.56 36.1099 103.99C36.1799 100.08 36.1299 96.12 35.9599 92.21C35.8199 89.17 35.4999 86.19 35.3199 83.17C35.2799 82.5 35.2099 81.85 35.1999 81.17C35.2199 78.66 35.5899 77.86 36.3199 77.36C36.4899 77.25 36.6499 77.09 36.7999 77.03C37.0599 76.92 37.2899 77.13 37.4999 77.58C37.7099 78.03 37.9399 78.73 38.0399 79.62C38.6899 84.92 38.9299 90.57 39.1199 96.29C39.1799 98.41 39.1999 100.55 39.1799 102.7C39.1399 104.85 39.1399 107.01 38.8699 109.21H38.7999H38.7899Z" fill="#231F20"/>
<path d="M83.9099 109.61C83.9299 110.51 83.9999 111.4 84.1499 112.17C84.2199 112.55 84.3299 112.91 84.4499 113.12C84.4799 113.17 84.4999 113.22 84.5199 113.27C84.5399 113.31 84.5399 113.31 84.5499 113.33C84.5699 113.36 84.5999 113.39 84.6399 113.4C86.5899 114.19 88.9799 114.56 91.1399 114.18C91.8399 114.07 92.5299 113.86 93.1299 113.59C93.2099 113.56 93.2799 113.52 93.3499 113.49L93.4299 113.45C93.4299 113.45 93.5199 113.41 93.5499 113.37C93.5799 113.33 93.5999 113.29 93.6099 113.24L93.6299 113.17L93.6699 112.94C93.8999 111.77 93.9399 110.32 93.9799 108.95C94.0099 107.55 94.0099 106.14 93.9899 104.73C93.9599 101.9 93.8699 99.06 93.7799 96.21C93.6999 93.68 93.5399 91.15 93.3999 88.63C93.3399 87.01 93.2499 85.39 93.2499 83.76V82.54L93.3899 81.32L93.5599 80.1C93.6399 79.69 93.8399 79.3 93.9799 78.9C94.3999 77.91 94.3799 78.06 94.7599 78.94C95.2599 79.83 96.0799 81.37 96.1999 83.19C96.2499 84.8 96.3399 86.43 96.4199 88.05C96.4899 89.68 96.5199 91.31 96.5699 92.95C96.6499 96.23 96.7099 99.53 96.6699 102.87C96.6399 104.87 96.6899 106.9 96.6999 108.97C96.6999 110.01 96.6899 111.05 96.6099 112.13C96.5699 112.68 96.5099 113.21 96.3699 113.85C96.1899 114.69 95.7199 115.45 94.9399 115.81C94.5699 116 94.3899 116.08 94.1399 116.18C93.8999 116.28 93.6699 116.35 93.4299 116.43C92.9599 116.58 92.4899 116.69 92.0199 116.78C91.0699 116.96 90.1199 117.02 89.1799 117.01C87.2699 117.01 85.4499 116.65 83.6199 115.98C83.2999 115.77 82.9199 115.66 82.6799 115.35C82.5499 115.22 82.4099 115.07 82.3099 114.93L82.0499 114.51C81.7399 113.95 81.5799 113.41 81.4399 112.88C80.7599 109.92 80.9199 107.16 80.9999 104.38C81.1899 100.19 81.6399 96.03 81.8999 91.91C82.1099 88.71 82.1299 85.57 82.0999 82.44C82.0799 81.75 82.0599 81.08 82.0399 80.39C82.0699 79.11 82.1199 78.28 82.2599 77.69C82.4299 77.1 82.6399 76.75 82.9699 76.44C83.1199 76.3 83.2599 76.12 83.4099 76.03C83.6599 75.88 83.9099 76.05 84.1799 76.52C84.4499 76.99 84.7499 77.75 84.8799 78.73C85.1299 80.19 85.1999 81.66 85.2199 83.13C85.2399 84.61 85.2199 86.09 85.1599 87.58C85.0499 90.55 84.8099 93.55 84.5899 96.52C84.2599 100.93 83.8699 105.4 83.9999 109.6H83.9299L83.9099 109.61Z" fill="#231F20"/>
<path d="M11.4199 56.19C11.4199 56.19 21.9699 47.6 25.9199 41.44C25.9199 41.44 14.1699 40.5 13.0699 41.94C11.9699 43.38 11.4199 56.19 11.4199 56.19Z" fill="#231F20"/>
<path d="M12.9399 73.11C12.9399 73.11 20.9699 64.9 27.6899 56.34C32.8699 49.75 38.0199 42.76 38.9999 40.35H54.9699C54.9699 40.35 33.3199 74.08 27.5399 76.3C24.0699 77.63 14.0399 74.81 12.9399 73.1V73.11Z" fill="#231F20"/>
<path d="M42.52 76.65C42.52 76.65 51.97 67.29 58.45 58.45C63.41 51.69 68.78 44.87 69.76 42.46H85.73C85.73 42.46 64.78 74.76 59 76.98C55.53 78.31 43.63 78.36 42.52 76.65Z" fill="#231F20"/>
<path d="M107.2 45.87C105.94 42.63 100.13 42.91 100.13 42.91C99.1501 45.32 96.1701 50.62 91.2101 57.38C84.7301 66.22 76.3501 75.58 76.3501 75.58C77.4601 77.29 88.4201 75.76 91.8001 75.87C93.2201 75.91 102.83 63.65 107.5 54.45C107.5 54.45 109.49 51.76 107.2 45.87Z" fill="#231F20"/>
<path d="M40.8601 42.3C36.2201 42.34 31.5801 42.42 26.9501 42.58C24.6401 42.66 22.3201 42.75 20.0201 42.89C18.8701 42.96 17.7201 43.04 16.6001 43.14C16.0401 43.19 15.4801 43.25 14.9401 43.32L14.5801 43.37C14.5301 43.38 14.4601 43.38 14.4201 43.43C14.3801 43.5 14.3501 43.58 14.3301 43.67C14.2401 44.01 14.1401 44.44 14.0601 44.83C13.8901 45.63 13.7401 46.46 13.6001 47.29C13.3301 48.95 13.1001 50.62 12.9101 52.3C12.4201 56.84 12.2301 61.45 12.5401 65.9C12.6901 67.84 12.9501 69.81 13.5901 71.41C13.9001 72.2 14.3401 72.84 14.7401 73.09C15.0201 73.26 15.4701 73.43 15.8501 73.61L17.1801 74.03C20.9301 74.94 25.0201 75.26 29.0601 75.48C37.18 75.88 45.3601 75.8 53.5401 75.67C60.8 75.55 68.1001 75.27 75.3201 75.09C79.9601 74.99 84.61 74.84 89.2701 74.96C91.6001 75.03 93.9301 75.17 96.2701 75.37C97.44 75.49 98.6001 75.6 99.7701 75.79C100.35 75.85 100.93 76.01 101.51 76.14C102.09 76.26 102.66 76.42 103.23 76.6C103.94 76.79 104.43 77.05 104.74 77.2C105.05 77.36 105.17 77.45 105.13 77.49C105.09 77.53 104.89 77.52 104.55 77.47C104.21 77.42 103.74 77.34 103.12 77.33C100.67 77.22 96.2201 77.56 90.9301 77.7C81.5401 77.87 72.1001 78.18 62.6301 78.42C53.1501 78.65 43.6401 78.87 34.0401 78.57C31.1701 78.48 28.2701 78.35 25.3401 78.15C22.4001 77.93 19.4501 77.65 16.4201 76.93C15.6501 76.68 14.9001 76.54 14.1001 76.15C13.7101 75.97 13.3301 75.85 12.8601 75.49C12.6201 75.34 12.4301 75.17 12.2701 74.98C12.1001 74.8 11.9001 74.62 11.7801 74.42C10.6701 72.87 10.2401 71.29 9.90005 69.76C9.28005 66.68 9.20005 63.67 9.24005 60.69C9.30005 57.48 9.55005 54.29 9.93005 51.12C10.1201 49.53 10.3401 47.95 10.6101 46.37C10.7401 45.58 10.9001 44.79 11.0601 43.99L11.2001 43.39L11.3701 42.71C11.4501 42.4 11.5601 42.11 11.6601 41.81C11.7701 41.52 11.9401 41.28 12.1101 41.02C12.5901 40.63 13.1901 40.42 13.8501 40.32C14.0001 40.29 14.1901 40.26 14.3101 40.24L14.6301 40.19L15.2601 40.11C16.1001 40.02 16.9201 39.95 17.7501 39.89C19.4001 39.77 21.0401 39.68 22.6801 39.6C25.9601 39.45 29.23 39.35 32.51 39.27C40.42 39.09 48.34 39.07 56.25 39.15C62.2401 39.2 68.2401 39.38 74.2301 39.65C80.2201 39.93 86.2001 40.28 92.1401 40.88C94.4501 41.12 96.7501 41.38 99.0301 41.75C101.32 42.13 103.6 42.53 105.88 43.34C106.16 43.46 106.43 43.52 106.84 43.76C107.21 43.97 107.53 44.27 107.77 44.64C108.19 45.3 108.41 45.88 108.59 46.48C108.96 47.67 109.17 48.83 109.34 49.99C109.66 52.32 109.78 54.64 109.8 56.96C109.8 59.01 109.77 61.01 109.58 63.06C109.27 66.88 108.59 69.35 108.05 71.04C107.5 72.74 106.92 73.64 106.35 74.31C106.09 74.61 105.79 75.02 105.61 75.18C104.98 75.69 105.74 72.75 106.37 67.42C106.8 63.46 107.05 59.4 106.87 55.33C106.78 53.3 106.62 51.26 106.27 49.32C106.1 48.36 105.86 47.4 105.56 46.67C105.53 46.57 105.48 46.52 105.45 46.44C105.41 46.36 105.38 46.29 105.35 46.27C105.35 46.27 105.33 46.25 105.32 46.24H105.28L104.98 46.11C104.77 46.03 104.54 45.96 104.32 45.88C102.48 45.29 100.44 44.91 98.3901 44.58C96.3301 44.26 94.2401 44.01 92.1301 43.8C87.91 43.38 83.6301 43.1 79.3501 42.9C72.9801 42.61 66.58 42.49 60.17 42.4C53.76 42.3 47.34 42.3 40.9301 42.39L40.9101 42.31L40.8601 42.3Z" fill="#231F20"/>
<path d="M109.59 27.79C109.53 28.04 109.22 27.87 108.76 27.45C108.62 27.31 108.29 26.82 108.28 26.72C108.27 26.53 108.26 26.35 108.28 26.2C108.29 26.12 108.91 25.32 109.1 25.03C109.28 24.74 109.53 24.54 109.78 24.33C110.29 23.92 110.78 23.48 111.28 23.06C111.39 22.96 111.52 22.89 111.67 22.84C112.17 22.66 112.56 22.34 112.9 21.97C112.96 21.91 113.03 21.86 113.03 21.74C113.03 21.54 114.02 20.64 114.19 20.57C114.62 20.4 115.01 20.18 115.4 19.97C115.46 19.94 115.48 19.87 115.59 19.9C115.86 19.98 115.92 19.85 116.02 19.77C116.17 19.65 116.32 19.54 116.5 19.46C116.59 19.42 116.75 19.44 116.9 19.45C117.03 19.45 117.29 19.72 117.3 19.77C117.33 19.91 117.51 19.97 117.64 20.06C117.68 20.09 117.74 20.13 117.77 20.16C117.85 20.23 117.55 21.53 117.45 21.62C117.43 21.64 116.43 22.96 116.29 23.14C116.24 23.23 116.12 23.25 116.03 23.3C115.99 23.32 115.16 24.38 115.12 24.41C114.9 24.57 114.76 24.83 114.41 24.84C114.34 24.84 114.31 24.89 114.27 24.93C113.94 25.27 113.53 25.51 113.14 25.77C112.94 25.9 112.78 26.08 112.59 26.23C112.56 26.26 112.5 26.26 112.46 26.27C112.41 26.29 112.34 26.3 112.3 26.34C111.88 26.72 111.36 26.98 110.98 27.42C110.89 27.52 110.23 27.69 110.13 27.81C110.07 27.88 109.61 27.72 109.59 27.81V27.79Z" fill="#231F20"/>
<path d="M102.64 18.32C102.73 18.51 102.4 18.47 101.82 18.28C101.63 18.22 101.11 17.94 101.05 17.88C100.93 17.75 100.82 17.62 100.75 17.52C100.71 17.46 100.72 16.78 100.69 16.54C100.66 16.31 100.72 16.12 100.79 15.93C100.94 15.55 101.03 15.15 101.14 14.76C101.16 14.67 101.21 14.59 101.29 14.52C101.55 14.27 101.63 13.97 101.64 13.66C101.64 13.61 101.67 13.56 101.59 13.5C101.46 13.39 101.58 12.61 101.64 12.52C101.84 12.28 101.95 12.04 102.09 11.78C102.11 11.74 102.07 11.71 102.18 11.67C102.42 11.58 102.38 11.5 102.39 11.42C102.41 11.3 102.43 11.2 102.5 11.07C102.53 11.01 102.66 10.93 102.77 10.85C102.86 10.78 103.23 10.74 103.27 10.75C103.39 10.79 103.56 10.71 103.71 10.68C103.76 10.68 103.83 10.66 103.87 10.65C103.97 10.62 104.72 11.4 104.7 11.51C104.73 11.54 104.91 12.8 104.93 12.95C104.95 13.03 104.88 13.09 104.84 13.16C104.84 13.19 104.91 14.2 104.88 14.24C104.81 14.43 104.88 14.66 104.61 14.8C104.56 14.83 104.56 14.87 104.56 14.91C104.52 15.25 104.35 15.56 104.21 15.86C104.13 16.01 104.12 16.19 104.06 16.35C104.06 16.38 104.01 16.4 103.98 16.42C103.95 16.45 103.91 16.48 103.9 16.51C103.8 16.9 103.54 17.23 103.5 17.65C103.49 17.75 103.07 18.04 103.06 18.16C103.06 18.22 102.61 18.23 102.65 18.31L102.64 18.32Z" fill="#231F20"/>
</svg>
