<svg width="128" height="128" viewBox="0 0 128 128" fill="none" xmlns="http://www.w3.org/2000/svg">
<path d="M44.6701 26.92L38.0701 27.34C37.2701 27.4 36.4701 27.52 35.6701 27.58C32.8401 27.78 30.0201 28.01 27.2101 28.34C25.9601 28.48 24.7201 28.71 23.5001 28.95L21.1701 29.47C20.7901 29.56 20.3901 29.61 20.0201 29.7C19.6601 29.82 19.2001 29.68 18.8201 29.7C18.2901 29.66 18.3301 29.7 18.6201 29.29C18.7601 29.08 18.9801 28.69 19.2701 28.35C19.5801 28.03 20.0001 27.81 20.4501 27.67C22.0701 27.15 23.7201 26.93 25.3501 26.65C26.9901 26.41 28.6401 26.23 30.3001 26.12C32.2901 26 34.3201 25.63 36.3401 25.42C38.5601 25.2 40.7801 25 43.0101 24.85L47.1201 24.58C49.1901 24.44 51.2801 24.35 53.3401 24.18C54.9401 24.05 56.5001 23.81 58.0801 23.63C58.4301 23.59 58.7701 23.54 59.1201 23.51C60.4301 23.45 60.8501 23.64 61.1501 24.14C61.2201 24.25 61.3101 24.34 61.3501 24.43C61.4901 24.68 60.9801 25.2 60.0401 25.42C57.2501 26 54.2901 26.22 51.3101 26.46C49.1001 26.63 46.8801 26.79 44.6701 26.96V26.91V26.92Z" fill="#231F20"/>
<path d="M59.75 21.65L63.39 15.05L64.19 17.99L60.63 24.41L59.75 21.65Z" fill="#231F20"/>
<path d="M62.8598 12.43L62.9698 11.13C62.9998 10.71 63.0298 10.18 63.0498 10.11C63.0598 10.01 63.0398 9.97 63.0398 9.9C63.0398 9.89 63.0398 9.87 63.0398 9.87C62.9898 9.83 62.9298 9.83 62.8498 9.81L62.7198 9.79C62.7198 9.79 62.4698 9.8 62.3498 9.8C61.7898 9.84 61.2298 9.88 60.6698 9.92C60.1698 9.96 59.6798 10.05 59.1898 10.14C58.8798 10.21 58.5498 10.25 58.2298 10.26C57.8998 10.28 57.5698 10.27 57.2198 10.08C57.0098 9.98 57.0498 9.81 57.1998 9.53C57.3098 9.34 57.4198 9.15 57.4998 9C57.6198 8.82 57.7698 8.71 57.9398 8.65C58.5298 8.42 59.1598 8.35 59.7998 8.28C60.4398 8.21 61.0898 8.17 61.7598 8.17C62.2098 8.27 63.9398 7.69 64.5798 8.33L64.6798 8.65C64.7498 8.95 64.8498 9.3 64.8398 9.63V10.12V10.48L64.8098 11.81C64.7998 12.35 64.7798 12.9 64.7698 13.44C64.7698 14.26 64.7198 15.08 64.7698 15.89C64.7798 16.52 65.0298 17.14 65.0398 17.76C65.0398 17.9 65.0698 18.03 65.0698 18.17C64.9998 18.68 64.7298 18.85 64.3698 18.97C64.2798 19 64.2098 19.03 64.1298 19.05C63.9098 19.11 63.5998 18.9 63.3098 18.53C62.6198 17.42 62.6898 16.24 62.6898 15.06C62.6998 14.18 62.7698 13.3 62.7998 12.43H62.8498H62.8598Z" fill="#231F20"/>
<path d="M59.8099 17.28C59.9599 18.07 60.0999 18.86 60.2499 19.65C60.3099 19.94 60.4199 20.22 60.4699 20.52C60.6399 21.56 60.7799 22.62 60.8699 23.69C60.9099 24.16 60.9999 24.63 61.0799 25.1C61.1899 25.7 61.3499 26.31 61.1699 26.92C61.0599 27.29 59.2399 26.84 59.1999 26.23C59.0999 25.11 59.0099 23.99 59.0199 22.79C59.0299 22.07 58.7699 21.37 58.6199 20.66C58.4599 19.86 58.2999 19.06 58.1299 18.27C58.0299 17.77 57.9399 17.27 57.8399 16.78C57.7099 16.02 57.5799 15.25 57.4599 14.5C57.3499 13.91 57.1599 13.34 57.0299 12.75C56.9999 12.62 56.9599 12.49 56.9499 12.36C56.8999 11.87 57.0199 11.7 57.5099 11.59C57.6199 11.56 57.7299 11.53 57.8499 11.52C58.2299 11.47 58.5599 11.66 58.6899 11.98C59.0499 12.95 59.2199 13.95 59.4199 14.97C59.5599 15.73 59.6999 16.51 59.8699 17.29H59.8299L59.8099 17.28Z" fill="#231F20"/>
<path d="M70.7002 88.53C70.7002 88.53 75.2002 78.53 77.3102 77.96C81.3102 76.87 91.5602 93.83 92.3802 96.07C92.4302 96.21 93.9402 96.23 92.5202 96.94L75.8002 97.45L70.7002 88.53Z" fill="#231F20"/>
<path d="M80.4401 77.29C82.2701 78.59 83.5101 80.09 84.8101 81.59C85.2701 82.14 85.7701 82.65 86.2001 83.22C87.7201 85.22 89.1001 87.3 90.4601 89.38C91.0501 90.31 91.6901 91.22 92.3101 92.12C93.1101 93.27 94.0001 94.39 94.4001 95.8C94.4701 96.27 94.2201 96.34 93.6601 96.25C93.1201 96.14 92.2801 95.88 91.7901 95.25C90.2001 92.94 88.5801 90.64 87.1301 88.17C86.2501 86.71 85.0701 85.38 83.9701 84.05C82.7601 82.59 81.5101 81.15 80.1301 79.95C79.7101 79.58 79.2601 79.26 78.8201 79C78.6001 78.87 78.3801 78.78 78.1701 78.71C77.9701 78.66 77.8501 78.62 77.6901 78.67C77.6501 78.68 77.6101 78.67 77.5801 78.7C77.4701 78.75 77.4101 78.8 77.2901 78.91C77.1501 79.03 77.0101 79.18 76.8701 79.32C76.5901 79.62 76.3201 79.94 76.0501 80.27C75.5201 80.93 75.0101 81.61 74.5301 82.32C73.7501 83.46 73.1301 84.68 72.4501 85.86C72.2901 86.12 72.1501 86.38 71.9901 86.63C71.3701 87.57 71.0601 87.79 70.5401 87.76C70.4201 87.76 70.3001 87.76 70.1901 87.74C69.8401 87.66 69.8201 87.1 70.1201 86.31C70.3401 85.72 70.5801 85.13 70.8401 84.54C71.1201 83.97 71.4301 83.4 71.7501 82.83C72.3901 81.7 73.1001 80.59 73.8701 79.49C74.2001 79.03 74.5301 78.57 74.9201 78.11C75.1001 77.88 75.3201 77.64 75.5401 77.41C75.6401 77.29 75.7901 77.17 76.0101 76.97C76.2201 76.81 76.4601 76.68 76.6901 76.53C76.8901 76.49 77.0901 76.42 77.2901 76.37C77.4901 76.31 77.7001 76.34 77.9001 76.33C78.1101 76.31 78.3101 76.33 78.5001 76.38C78.6701 76.41 78.8501 76.45 78.9901 76.51C79.5901 76.71 80.0401 76.98 80.4701 77.25L80.4401 77.3V77.29Z" fill="#231F20"/>
<path d="M82.9498 33.31C81.7798 33.16 80.6098 33.01 79.4398 32.9C79.0098 32.87 78.5898 32.84 78.1498 32.8C76.6398 32.65 75.1298 32.53 73.6198 32.4C72.9498 32.34 72.2698 32.32 71.5998 32.3C70.7398 32.24 69.8798 32.14 69.0198 32.05C68.7498 32.02 68.7898 31.98 69.0198 31.91C69.2498 31.84 69.6698 31.73 70.1598 31.64L71.4798 31.46C71.9198 31.42 72.3598 31.44 72.7998 31.44C73.6798 31.44 74.5698 31.48 75.4498 31.6C76.5098 31.73 77.6098 31.74 78.6998 31.84C79.8898 31.94 81.0798 32.07 82.2698 32.2L84.4598 32.47C85.5598 32.61 86.6698 32.76 87.7698 32.9C88.6198 33 89.4698 33.04 90.3098 33.11L90.8698 33.16C91.5598 33.25 91.7698 33.37 91.8798 33.66C91.8998 33.73 91.9398 33.79 91.9498 33.85C91.9898 34.06 91.6798 34.19 91.1598 34.19C89.6398 34.16 88.0598 33.96 86.4798 33.76C85.3098 33.61 84.1198 33.47 82.9498 33.32V33.29V33.31Z" fill="#231F20"/>
<path d="M34.1498 33.78C35.5998 33.6 37.0598 33.44 38.5198 33.3C39.0498 33.24 39.5798 33.17 40.1098 33.12C41.9798 32.95 43.8698 32.89 45.7398 32.8C46.5698 32.75 47.4098 32.7 48.2298 32.65C49.2898 32.62 50.3598 32.63 51.4298 32.71C51.7598 32.73 51.7198 32.76 51.4398 32.85C51.1598 32.93 50.6598 33.11 50.0498 33.23L48.4398 33.49C47.8998 33.56 47.3598 33.59 46.8298 33.63C45.7498 33.71 44.6698 33.78 43.5798 33.83C42.2798 33.89 40.9398 34.08 39.6098 34.22C38.1498 34.37 36.6998 34.53 35.2498 34.72C34.3598 34.83 33.4598 34.96 32.5698 35.09C31.2198 35.3 29.8598 35.51 28.5398 35.78C27.5098 36 26.5098 36.29 25.5098 36.55L24.8498 36.72C24.0098 36.88 23.7098 36.79 23.4798 36.62C23.4298 36.58 23.3598 36.54 23.3298 36.5C23.2098 36.37 23.5198 36.14 24.0998 35.85C24.9698 35.46 25.9098 35.23 26.8598 35C27.8098 34.78 28.7798 34.58 29.7598 34.41C31.2098 34.15 32.6798 33.93 34.1398 33.73V33.76L34.1498 33.78Z" fill="#231F20"/>
<path d="M62.1799 29.53L64.7999 24.24C65.1299 23.6 65.3999 22.94 65.7299 22.3C66.9299 20.07 68.0899 17.83 69.4999 15.72C70.0999 14.77 70.6999 13.82 71.3099 12.89C71.7299 12.31 72.0899 11.69 72.5699 11.15L73.2699 10.33C73.5299 10.08 73.8099 9.85 74.0799 9.61C74.4199 9.32 74.3899 9.39 74.1699 9.7C73.9399 10.01 73.5199 10.53 73.1099 11.24C72.6999 11.82 72.3599 12.46 72.0199 13.08C71.6599 13.69 71.3599 14.35 71.0599 15.01C70.4499 16.31 69.8999 17.65 69.2299 18.93C68.3899 20.45 67.7399 22.14 67.0399 23.78C66.2599 25.57 65.4899 27.37 64.7499 29.18L63.3699 32.52C62.6999 34.21 61.9899 35.91 61.4499 37.63C61.3499 37.95 61.2599 38.27 61.1799 38.59L61.0599 39.07C61.0099 39.24 60.9499 39.54 60.8999 39.77L60.6299 40.51C60.5099 40.74 60.2599 40.87 60.0199 40.97C59.5299 41.14 58.9499 41.15 58.3699 41.1C57.9999 41.07 57.6999 41.07 57.3699 41.01C56.7699 40.92 56.3999 40.79 56.1699 40.58C55.9399 40.4 55.8499 40.13 55.7999 39.8C55.7799 39.65 55.7399 39.51 55.7299 39.39C55.6899 39.02 56.3099 38.59 57.1399 38.6L58.0499 38.65L58.4899 38.67C58.6799 38.68 58.6899 38.67 58.7099 38.65C58.7999 38.6 58.8199 38.52 58.7799 38.45V38.43C58.7799 38.43 58.7699 38.43 58.7599 38.43C58.7499 38.46 58.7599 38.42 58.7699 38.37L58.9099 37.88C58.9999 37.55 59.0999 37.23 59.2099 36.91C59.4199 36.28 59.6299 35.64 59.8699 35.01C60.5599 33.14 61.3099 31.31 62.1199 29.49L62.1699 29.51L62.1799 29.53Z" fill="#231F20"/>
<path d="M17.7701 105.79C12.3301 85.58 12.3301 46.04 12.3301 39.61C12.3301 37.98 15.1401 34.48 15.1401 34.48C15.1401 34.48 16.7101 78.18 16.8001 79.4C16.8901 80.62 17.7601 105.79 17.7601 105.79H17.7701Z" fill="#231F20"/>
<path d="M24.88 117.67C24.68 118.11 27.3 120.11 28.29 120.34C31.32 121.05 53.93 119.71 55.65 119.89C57.37 120.07 87.07 118.24 90.81 116.92C94.55 115.61 83.37 117.58 82.71 116.92C82.05 116.26 41.96 117.33 41.96 117.33L24.88 117.67Z" fill="#231F20"/>
<path d="M71.2799 53.37C69.6099 50.72 71.7999 46.82 74.3699 46.32C78.9799 45.42 80.8899 48.14 80.8499 49.65C80.8099 51.16 81.6599 54.1 78.0999 55.11C75.9799 55.71 72.5199 55.32 71.2799 53.36V53.37Z" fill="#231F20"/>
<path d="M74.3698 97.25C69.4698 91.56 55.3298 66.86 49.8298 70.23C40.4298 76.01 28.2798 99.19 28.2798 99.19L74.3698 97.25Z" fill="#231F20"/>
<path d="M15.7502 84.25C15.4802 79.94 15.2502 75.62 15.0402 71.3C14.9602 69.72 14.8302 68.15 14.7702 66.58C14.5602 61.02 14.4402 55.47 14.4302 49.9C14.4302 47.43 14.4202 44.95 14.4102 42.49C14.4502 40.91 14.4802 39.33 14.6102 37.74L14.7202 36.55L14.9202 35.36C15.0402 34.57 15.2502 33.78 15.6502 33.04C16.1402 32.13 16.0802 32.29 16.1602 33.16C16.3002 34.04 16.6302 35.56 16.5702 37.32C16.4002 43.61 16.3502 50.01 16.3402 56.45C16.3202 60.31 16.6102 64.32 16.8002 68.26C17.0102 72.6 17.2502 76.93 17.5202 81.27C17.7002 83.94 17.8902 86.61 18.0702 89.27C18.3802 93.31 18.7002 97.36 19.1202 101.36C19.4502 104.47 19.9102 107.5 20.3702 110.54C20.4702 111.21 20.6002 111.86 20.6602 112.54C20.9202 115.06 20.9502 115.86 20.5802 116.48C20.5102 116.62 20.4502 116.8 20.3902 116.88C20.2302 117.16 19.6002 116.21 19.1902 114.37C18.4802 111.66 18.1202 108.83 17.7202 105.97C17.3502 103.11 17.0302 100.2 16.7502 97.28C16.3402 92.95 16.0202 88.59 15.7002 84.24H15.7502V84.25Z" fill="#231F20"/>
<path d="M87.96 26.16L83.22 25.86C82.64 25.83 82.06 25.86 81.48 25.83C79.44 25.73 77.39 25.63 75.34 25.59C74.43 25.57 73.52 25.61 72.62 25.65C72.04 25.68 71.46 25.74 70.88 25.74C70.59 25.74 70.3 25.74 70.01 25.72C69.72 25.73 69.42 25.53 69.13 25.4C68.76 25.19 68.81 25.24 69.11 24.98C69.26 24.85 69.47 24.59 69.72 24.34C69.98 24.13 70.28 24.03 70.61 23.98C72.98 23.76 75.35 23.78 77.75 23.94C79.18 24.05 80.67 23.93 82.14 23.94C83.75 23.96 85.37 24 86.98 24.11L89.96 24.32C91.47 24.44 92.98 24.62 94.48 24.8C95.07 24.87 95.65 24.93 96.23 25C96.82 25.05 97.41 25.16 98 25.29C98.26 25.33 98.53 25.4 98.79 25.5C99.29 25.65 99.56 25.9 99.73 26.13C99.9 26.34 99.91 26.57 99.87 26.81C99.85 26.92 99.85 27.02 99.82 27.1C99.74 27.33 99.16 27.5 98.62 27.37C96.83 27.03 94.79 26.76 92.7 26.56C91.15 26.41 89.56 26.29 87.98 26.21V26.16H87.96Z" fill="#231F20"/>
<path d="M100.43 79.83C100.47 75.6 100.48 71.37 100.46 67.13L100.37 62.5L100.28 46.16C100.26 43.74 100.19 41.31 100.12 38.91C100.09 37.37 100.06 35.82 100.06 34.27C100.04 33.5 100.09 32.72 100.17 31.94L100.28 30.78C100.32 30.39 100.49 29.99 100.59 29.6C100.9 28.65 100.88 28.81 101.08 29.65C101.3 30.47 101.87 31.96 101.94 33.71C102.21 39.96 102.2 46.25 102.14 52.6C102.08 56.4 102.27 60.34 102.32 64.22C102.37 68.49 102.4 72.76 102.39 77.03C102.38 79.66 102.37 82.29 102.36 84.92C102.36 86.91 102.32 88.91 102.29 90.9C102.27 92.89 102.22 94.88 102.17 96.86C102.15 98.4 102.15 99.92 102.1 101.45C102.06 102.97 102.09 104.49 101.96 106.03C101.92 106.71 101.88 107.37 101.84 108.05C101.81 108.37 101.79 108.65 101.76 108.92C101.72 109.18 101.66 109.43 101.61 109.65C101.51 110.09 101.41 110.44 101.3 110.72C101.1 111.29 100.82 111.58 100.49 111.78C100.34 111.87 100.2 112 100.09 112.05C99.7398 112.2 99.3798 111.08 99.5798 109.34C99.9198 104.05 100.06 98.35 100.22 92.64C100.31 88.39 100.4 84.12 100.39 79.85H100.44L100.43 79.83Z" fill="#231F20"/>
<path d="M69.1601 118.4C65.1601 118.52 61.1701 118.6 57.1801 118.66L52.8101 118.76C47.6801 118.78 42.5401 118.73 37.4101 118.67C35.1301 118.65 32.8501 118.67 30.5901 118.69C29.1401 118.69 27.6801 118.69 26.2301 118.69C24.7801 118.69 23.3201 118.61 21.8801 118.3C20.9801 118.12 21.1001 118.08 21.8601 117.82C22.2401 117.7 22.7901 117.45 23.4501 117.27C23.7801 117.18 24.1401 117.06 24.5201 116.99C24.9001 116.94 25.3001 116.91 25.7201 116.9C31.6401 116.72 37.5401 116.85 43.5101 116.98C47.0801 117.07 50.7901 116.92 54.4301 116.84C58.4401 116.77 62.4501 116.67 66.4601 116.52C68.9301 116.44 71.4001 116.33 73.8601 116.2C75.7301 116.11 77.6001 115.99 79.4601 115.86C81.3301 115.74 83.1901 115.59 85.0301 115.38C87.9001 115.11 90.6801 114.6 93.4901 114.16C94.1101 114.07 94.7101 113.92 95.3301 113.82C97.6401 113.46 98.4001 113.55 98.9901 114.04C99.1201 114.15 99.2901 114.25 99.3801 114.35C99.6601 114.69 98.7801 115.26 97.0901 115.67C92.0701 116.86 86.6601 117.36 81.2601 117.78C77.2401 118.07 73.2001 118.27 69.1701 118.44V118.39L69.1601 118.4Z" fill="#231F20"/>
<path d="M22.3302 61.83C22.1502 57.01 22.0302 52.19 22.1102 47.34C22.1302 45.57 22.1602 43.8 22.2702 42.03C22.4202 40.46 22.5502 38.9 22.8902 37.31L23.0002 36.72C23.0502 36.51 23.1402 36.2 23.2602 35.97C23.5002 35.48 23.8402 35.09 24.1902 34.77C24.9102 34.13 25.7002 33.77 26.4702 33.47C28.0302 32.89 29.5802 32.58 31.1402 32.33C32.6902 32.08 34.2502 31.92 35.8002 31.78C38.5502 31.53 41.3102 31.37 44.0302 31.21C47.5302 31.01 51.0302 30.7 54.5402 31.08C55.6302 31.18 55.4902 31.31 54.5802 31.63C54.0502 31.82 53.4102 32.04 52.7002 32.29C51.9202 32.53 51.0002 32.72 50.0002 32.84C46.4502 33.07 42.9102 33.3 39.3502 33.54C35.8202 33.8 32.2602 34 28.8902 34.73C27.9002 34.96 26.9002 35.26 26.1002 35.73C25.6902 35.96 25.3602 36.24 25.1402 36.53C25.0302 36.68 24.9502 36.82 24.9102 36.98C24.8802 37.03 24.8602 37.18 24.8402 37.31L24.7802 37.7L24.5202 39.27L24.3802 40.89C24.2602 41.96 24.2502 43.06 24.1802 44.15C23.9802 48.94 24.0702 53.77 24.2302 58.6C24.3302 61.57 24.4702 64.54 24.6502 67.51C24.9202 72.01 25.2102 76.53 25.6302 80.98C25.9302 84.45 26.4502 87.82 26.7902 91.25C26.8702 92 26.9502 92.74 27.0402 93.5C27.2902 96.32 27.2602 97.23 26.8002 97.88C26.7102 98.03 26.6202 98.22 26.5402 98.31C26.2802 98.61 25.7402 97.5 25.4202 95.45C24.3302 89.37 23.7002 82.91 23.1802 76.4C22.8002 71.57 22.4902 66.71 22.2602 61.85H22.3102L22.3302 61.83Z" fill="#231F20"/>
<path d="M94.9402 58.82C94.9602 62.01 95.0002 65.21 95.0702 68.41L95.2002 71.91C95.2802 76.02 95.3102 80.14 95.3302 84.26C95.3502 86.09 95.3902 87.92 95.4602 89.74C95.4902 90.91 95.5202 92.07 95.5402 93.24C95.5402 93.82 95.4902 94.41 95.4602 94.99C95.4302 95.57 95.3702 96.16 95.2402 96.74C95.0802 97.46 95.0202 97.37 94.7702 96.75C94.4702 96.13 94.0402 95.01 93.9102 93.68C93.7002 88.95 93.4802 84.22 93.4502 79.43C93.4502 76.57 93.2202 73.59 93.1102 70.66L92.8202 60.99L92.7102 55.03C92.6702 52.02 92.6802 49 92.6802 46C92.6802 43.67 92.5602 41.38 92.7002 39.07C92.7302 38.56 92.7502 38.06 92.7902 37.54C92.8102 37.3 92.8302 37.08 92.8602 36.88C92.9102 36.68 92.9602 36.5 93.0002 36.34C93.1002 36.01 93.1802 35.75 93.2802 35.54C93.4702 35.12 93.6502 34.89 93.8802 34.72C93.9802 34.64 94.0802 34.54 94.1702 34.5C94.4402 34.37 94.6402 35.18 94.7302 36.55C94.7802 37.56 94.7902 38.59 94.8002 39.62C94.8202 40.65 94.8802 41.71 94.8502 42.75C94.8502 44.87 94.8602 47.01 94.8702 49.16C94.8902 52.36 94.9302 55.58 95.0102 58.8H94.9602L94.9402 58.82Z" fill="#231F20"/>
<path d="M58.5598 72.93C57.9198 72.22 57.2598 71.52 56.5498 70.93C55.8598 70.32 55.0798 69.81 54.3298 69.55C53.5598 69.28 52.9498 69.27 52.1698 69.55C51.4198 69.84 50.6498 70.34 49.9298 70.91C48.8598 71.75 47.9198 72.8 46.9698 73.85C43.6398 77.61 40.7598 81.88 37.8898 86.12C36.6398 88.03 35.3898 89.95 34.1498 91.84C32.5498 94.26 31.0598 96.81 28.8998 98.85C28.2398 99.49 28.2698 99.36 28.5198 98.59C28.6498 98.21 28.8098 97.66 28.9998 96.99C29.2198 96.35 29.5598 95.65 29.9698 94.92C31.4898 92.39 33.0798 89.91 34.6598 87.39C36.2998 84.91 37.9798 82.44 39.7698 80.02C41.9198 77.13 43.9898 73.99 46.5898 71.25C47.3098 70.51 48.0698 69.78 48.9298 69.13C49.7798 68.48 50.7298 67.89 51.8698 67.58C52.4298 67.41 53.0598 67.36 53.6698 67.43C54.2798 67.5 54.8398 67.69 55.3498 67.93C56.3598 68.42 57.2198 69.07 58.0098 69.75C59.9298 71.46 61.4998 73.44 62.9798 75.45C65.2198 78.5 67.1998 81.72 69.1898 84.88C70.7298 87.33 72.3098 89.7 73.9098 92.06C74.2698 92.57 74.6198 93.07 74.9798 93.59C75.6098 94.57 76.0098 95.2 76.2298 95.69C76.4098 96.2 76.4698 96.55 76.4898 96.86C76.4898 97.01 76.5298 97.19 76.5098 97.3C76.4798 97.5 76.2598 97.47 75.8198 97.24C75.4198 97 74.7698 96.6 74.2298 95.89C72.5198 93.88 71.1498 91.63 69.6998 89.39C68.2898 87.14 66.8698 84.86 65.4398 82.57C63.2998 79.22 61.1098 75.85 58.5298 72.94L58.5598 72.9V72.93Z" fill="#231F20"/>
<path d="M77.3999 56.08C75.3199 56.58 73.1499 56.22 71.3299 55.11C71.0199 54.87 70.6999 54.65 70.3899 54.4C70.1199 54.11 69.8299 53.83 69.5999 53.51L69.0899 52.59C68.9699 52.26 68.8799 51.93 68.7799 51.6C68.6099 50.93 68.5999 50.24 68.6599 49.57C68.8299 48.22 69.4499 47.01 70.2999 46.06C71.0499 45.21 71.9499 44.5 72.9599 44.02C74.2299 43.38 75.8999 43.21 77.1299 44.02C77.5099 44.24 77.4199 44.26 77.0399 44.35C76.8499 44.41 76.5899 44.44 76.2999 44.6C76.0099 44.75 75.7199 44.88 75.4099 44.95C75.1399 44.99 74.8699 45.14 74.6199 45.22L74.2499 45.42C74.1199 45.46 73.9899 45.51 73.8699 45.57C73.3599 45.79 72.8999 46.11 72.4599 46.46C71.6099 47.18 70.9399 48.11 70.5499 49.16C70.3299 49.79 70.3299 50.5 70.4999 51.16C70.6299 51.48 70.6899 51.82 70.8999 52.09C70.9899 52.23 71.0599 52.39 71.1599 52.52L71.4999 52.9C72.0199 53.43 72.6899 53.88 73.4599 54.12C73.8299 54.28 74.2399 54.32 74.6299 54.41C75.0299 54.41 75.4499 54.5 75.8499 54.44C76.8499 54.38 77.8699 54.11 78.6599 53.52C79.8599 52.66 80.4999 51.1 80.2399 49.6C80.0499 48.41 79.4399 47.3 78.6999 46.45L78.2099 45.91C77.8999 45.6 77.7099 45.4 77.5899 45.22C77.4899 45 77.4399 44.83 77.4099 44.59C77.3999 44.48 77.3699 44.37 77.3599 44.27C77.3599 44.11 77.4699 44.01 77.7399 43.96C77.9999 43.9 78.4299 43.92 78.8399 44.16C80.1399 44.81 80.9999 46 81.5299 47.27C81.7999 47.91 81.9999 48.58 82.1099 49.31C82.2299 50.02 82.2099 50.84 82.0299 51.59C81.9699 52.16 81.6599 52.7 81.4299 53.23C81.0899 53.71 80.7799 54.23 80.3199 54.59C79.9099 55.01 79.4099 55.28 78.9299 55.58C78.4199 55.79 77.9199 56.05 77.3899 56.15V56.11L77.3999 56.08Z" fill="#231F20"/>
<path d="M57.3399 36.49L56.7899 37.99L56.5299 38.75L56.3999 39.13L56.3399 39.3C56.3399 39.3 56.3499 39.32 56.3099 39.33C56.3399 39.45 56.1899 39.45 57.0499 39.68C57.7099 39.84 58.4399 39.94 59.1699 40.02L60.2799 40.13L60.5299 40.15H60.5899C60.5899 40.15 60.6799 40.18 60.6999 40.17L60.7399 40.06L60.8399 39.69C60.9399 39.32 61.0299 38.95 61.1399 38.59C61.5599 37.14 61.9899 35.7 62.4799 34.28C64.2199 29.29 66.1799 24.39 68.3699 19.59C69.3299 17.46 70.3099 15.32 71.3699 13.24C71.6699 12.62 72.0099 12.01 72.3299 11.39L73.1899 9.86L73.3199 9.66C73.3199 9.59 73.1999 9.56 73.1399 9.53L72.5599 9.29L71.4699 8.86L71.1899 8.76C71.1099 8.7 71.0099 8.67 70.9299 8.62C70.7499 8.53 70.5699 8.45 70.3899 8.37C69.5699 8.02 69.6399 7.99 70.4899 7.83C70.9099 7.78 71.5399 7.63 72.2499 7.7C72.6199 7.73 72.9599 7.76 73.4299 7.86C74.0999 8.03 75.1599 8.3 75.3799 8.87C75.4299 8.96 75.4599 9.05 75.4899 9.16C75.5299 9.27 75.4599 9.38 75.4499 9.49L75.3099 10.15L74.7599 11.08L74.4999 11.53C74.3299 11.83 74.1499 12.13 73.9899 12.44C73.6599 13.06 73.3199 13.68 72.9999 14.32C72.3399 15.58 71.7499 16.88 71.0799 18.15C69.7699 20.7 68.4999 23.3 67.2699 25.92C65.7399 29.23 64.3799 32.78 63.2699 36.32C62.9599 37.24 62.7099 38.18 62.4199 39.11L62.0199 40.65L61.8699 41.23L61.7999 41.52C61.7999 41.52 61.7799 41.62 61.7599 41.66H61.6099L60.4199 41.54C59.4399 41.45 58.4499 41.37 57.4399 41.2C56.9399 41.11 56.4299 41.01 55.8999 40.81C55.7299 40.74 55.5399 40.67 55.3999 40.56L55.1699 40.4L54.9899 40.2C54.7599 39.92 54.7199 39.52 54.8399 39.17C54.8499 39.04 54.9299 38.87 54.9499 38.78L55.0399 38.51C55.8099 36.08 56.6899 33.69 57.6099 31.32C59.0199 27.74 60.5799 24.2 62.1499 20.72C63.3599 18.01 64.4799 15.33 65.6399 12.65C65.8899 12.06 66.1399 11.48 66.3999 10.88C66.8899 9.78 67.2399 9.07 67.5599 8.61C67.8999 8.15 68.1699 7.93 68.4799 7.78C68.6199 7.72 68.7799 7.62 68.8899 7.59C69.0899 7.55 69.1399 7.78 69.0899 8.24C69.0399 8.7 68.8899 9.39 68.5599 10.2C66.6499 15.09 64.3199 20.08 62.0999 25.13C60.4099 28.86 58.7699 32.62 57.3799 36.46H57.3399V36.49Z" fill="#231F20"/>
<path d="M82.7001 32.93C81.3401 32.78 79.9701 32.64 78.6001 32.56C78.1001 32.53 77.6001 32.55 77.1001 32.52C75.3401 32.44 73.5701 32.21 71.7901 32.17C71.0001 32.14 70.2101 32.17 69.4301 32.18C68.4301 32.2 67.4201 32.21 66.4101 32.18C66.1001 32.16 66.1301 32.08 66.3801 31.95C66.6301 31.82 67.1101 31.59 67.6801 31.46C69.7101 30.99 71.7801 30.82 73.8601 30.85C74.4801 30.87 75.1201 30.84 75.7601 30.81C76.4001 30.81 77.0401 30.79 77.6801 30.8C79.0801 30.84 80.4801 30.91 81.8801 31.01L84.4601 31.22C85.7601 31.32 87.0601 31.55 88.3501 31.68C89.3501 31.81 90.3501 31.79 91.3401 31.98C91.5601 32.02 91.7701 32.03 91.9901 32.09C92.8001 32.29 93.0301 32.45 93.1301 32.82C93.1501 32.9 93.1901 32.99 93.1901 33.07C93.2101 33.33 92.8401 33.49 92.2401 33.51C90.4501 33.62 88.6401 33.47 86.7901 33.36C85.4201 33.31 84.0601 33.14 82.6801 33.01V32.96L82.7001 32.93Z" fill="#231F20"/>
<path d="M99.4202 17.85C99.5502 17.99 99.4502 18.21 99.3002 18.46C99.2502 18.54 99.0502 18.65 98.9802 18.62C98.8602 18.57 98.7302 18.51 98.6102 18.45C98.5402 18.42 97.6702 17.63 97.4202 17.32C97.1402 17.04 96.9502 16.74 96.7602 16.43C96.4602 15.77 96.1502 15.12 95.8802 14.47C95.8202 14.33 95.7802 14.17 95.7702 14.01C95.7402 13.46 95.5502 12.97 95.3302 12.5C95.2902 12.42 95.2802 12.33 95.1702 12.28C94.9902 12.19 94.5002 10.9 94.5002 10.72C94.5202 10.25 94.4202 9.83 94.4402 9.35C94.4402 9.28 94.3902 9.23 94.4702 9.14C94.6502 8.92 94.5602 8.81 94.5302 8.68C94.4902 8.49 94.4902 8.29 94.5002 8.07C94.5302 7.95 94.6202 7.79 94.6702 7.66C94.7102 7.54 94.9102 7.47 94.9602 7.48C95.0702 7.52 95.1402 7.4 95.2202 7.34C95.2502 7.32 95.2802 7.3 95.3102 7.29C95.3302 7.29 95.4202 7.32 95.5702 7.36C95.7402 7.4 95.9002 7.49 96.0802 7.58C96.4502 7.75 96.7202 8 96.7702 8.06C96.7702 8.08 97.0802 8.44 97.2902 8.86C97.5102 9.28 97.7302 9.71 97.7802 9.8C97.8402 9.89 97.8102 10.01 97.8102 10.12C97.8102 10.17 98.4302 11.4 98.4302 11.45C98.4902 11.73 98.6402 11.96 98.5002 12.3C98.4702 12.37 98.5002 12.42 98.5202 12.47C98.6702 12.92 98.7102 13.4 98.7802 13.86C98.8102 14.1 98.9102 14.32 98.9702 14.54C98.9802 14.58 98.9702 14.63 98.9702 14.68C98.9702 14.74 98.9602 14.8 98.9702 14.85C99.1602 15.37 99.1802 15.95 99.3802 16.45C99.4102 16.57 99.4202 17.22 99.4602 17.36C99.4802 17.44 99.3502 17.8 99.4102 17.85H99.4202Z" fill="#231F20"/>
<path d="M106.85 22.76C106.75 22.91 106.53 22.85 106.27 22.7C106.19 22.65 106.04 22.44 106.06 22.37C106.09 22.25 106.13 22.13 106.17 22.02C106.2 21.96 106.84 21.19 107.04 20.9C107.24 20.62 107.46 20.38 107.72 20.19C108.24 19.79 108.75 19.38 109.27 18.99C109.39 18.9 109.52 18.84 109.66 18.79C110.15 18.64 110.55 18.36 110.96 18.07C111.03 18.02 111.11 17.99 111.14 17.88C111.19 17.69 112.35 17.01 112.54 16.99C112.99 16.91 113.44 16.86 113.89 16.8C113.95 16.8 114 16.74 114.1 16.8C114.32 16.95 114.42 16.86 114.56 16.84C114.75 16.81 114.94 16.79 115.15 16.79C115.25 16.79 115.38 16.86 115.5 16.91C115.61 16.95 115.67 17.2 115.66 17.24C115.62 17.35 115.73 17.44 115.79 17.54C115.81 17.57 115.83 17.62 115.84 17.65C115.84 17.68 115.68 17.94 115.52 18.23C115.36 18.53 115.19 18.82 115.13 18.83C115.12 18.83 114.81 19.07 114.49 19.31C114.18 19.57 113.81 19.76 113.76 19.83C113.69 19.89 113.59 19.88 113.49 19.89C113.44 19.89 112.47 20.59 112.43 20.61C112.2 20.7 112.02 20.89 111.7 20.82C111.64 20.81 111.6 20.84 111.55 20.86C111.18 21.07 110.76 21.19 110.36 21.35C110.15 21.43 109.97 21.55 109.78 21.65C109.75 21.67 109.7 21.66 109.66 21.67C109.61 21.68 109.55 21.68 109.51 21.71C109.07 21.97 108.57 22.16 108.13 22.43C108.03 22.49 107.43 22.61 107.32 22.7C107.26 22.74 106.92 22.7 106.88 22.76H106.85Z" fill="#231F20"/>
<path d="M68.68 99.15L58.33 99.66C57.07 99.73 55.81 99.86 54.56 99.92C50.12 100.12 45.67 100.29 41.21 100.39C39.23 100.45 37.24 100.51 35.28 100.57L33.38 100.61C32.74 100.59 32.11 100.58 31.47 100.54C30.2 100.47 28.89 100.29 27.67 99.72C26.91 99.34 27.09 99.29 27.79 99.17C28.13 99.13 28.64 98.93 29.19 98.81C29.48 98.73 29.79 98.63 30.1 98.59C30.41 98.56 30.76 98.52 31.11 98.51C33.61 98.4 36.15 98.43 38.7 98.34C41.25 98.27 43.82 98.21 46.4 98.2C49.49 98.18 52.7 97.86 55.85 97.67L66.28 97.07L72.7 96.72C75.95 96.57 79.21 96.41 82.43 96.26C84.94 96.14 87.4 95.91 89.91 95.86C90.46 95.86 91 95.81 91.57 95.84C92.61 95.9 93.3 96.03 93.77 96.2C94.24 96.41 94.49 96.65 94.67 96.94C94.75 97.07 94.86 97.21 94.89 97.33C94.99 97.71 94.15 97.95 92.71 98.04C88.31 98.24 83.73 98.45 79.12 98.66C75.66 98.84 72.18 99.02 68.7 99.21V99.15H68.68Z" fill="#231F20"/>
</svg>
