<svg width="128" height="128" viewBox="0 0 128 128" fill="none" xmlns="http://www.w3.org/2000/svg">
<path d="M41.54 52C41.54 52 45.72 45.74 49.99 48.89C53.44 51.43 49.99 55.48 49.99 55.48C49.99 55.48 54.27 53.04 54.18 50.59C54.09 48.13 52.63 45.69 52.56 45.63C52.49 45.57 48.12 43.22 46.15 44.2C44.19 45.18 42.07 47.8 42.07 47.8L41.55 52.01L41.54 52Z" fill="#231F20"/>
<path d="M110.82 39.77C109.25 40.41 105.4 43.94 107.56 47.18C110.2 51.13 115.19 48.28 115.19 48.28C115.19 48.28 112.5 53.5 110.01 53.63C107.52 53.76 102.59 53.77 101.07 48.02C99.5502 42.28 105.2 39.16 105.2 39.16L110.81 39.76L110.82 39.77Z" fill="#231F20"/>
<path d="M24.3701 92.35C21.1001 94.94 19.5801 98.74 21.8201 102.47C23.8501 105.86 29.8701 105.86 32.4301 103.03C34.0601 101.24 32.1601 109.17 27.6201 110.26C23.0801 111.36 20.6801 112.49 16.4201 107.55C12.8201 103.39 14.3601 97.52 14.3601 97.52L19.6601 93.35L24.3701 92.34V92.35Z" fill="#231F20"/>
<path d="M50.8998 69.86C51.0098 67.95 51.8898 66.53 52.8098 65.22C53.1498 64.75 53.4898 64.27 53.8898 63.85C55.2998 62.38 56.9598 61.18 58.7498 60.29C59.5498 59.9 60.3398 59.51 61.1598 59.21C62.2198 58.84 63.3098 58.52 64.4498 58.54C64.8098 58.56 64.7698 58.63 64.5298 58.87C64.2898 59.13 63.8498 59.52 63.2898 59.79C62.2998 60.25 61.3698 60.78 60.4098 61.21C59.4598 61.68 58.5398 62.2 57.5998 62.74C56.4898 63.4 55.5398 64.37 54.6898 65.37C53.7698 66.46 52.9598 67.7 52.6098 69.02C52.4098 69.82 52.4198 70.68 52.8798 71.13C53.2598 71.5 53.8798 71.71 54.5198 71.8C55.1698 71.9 55.8498 71.89 56.5298 71.83C57.5798 71.72 58.5998 71.43 59.6198 71.13L60.2898 70.92C61.1298 70.69 61.4198 70.72 61.7198 71.09C61.7898 71.17 61.8698 71.26 61.9198 71.35C62.0898 71.65 61.8098 72.02 61.1998 72.27C59.3598 73 57.3198 73.51 55.0398 73.43C54.1998 73.38 53.2798 73.26 52.3498 72.72C51.9098 72.44 51.4198 71.97 51.1898 71.43C50.9398 70.89 50.8698 70.36 50.8798 69.87H50.9198L50.8998 69.86Z" fill="#231F20"/>
<path d="M32.4498 86.97C31.5698 86.17 30.8198 85.2 30.2398 84.13C29.6498 83.04 29.3398 81.92 29.0598 80.77C28.9098 79.93 28.7398 79.08 28.7298 78.23C28.6198 75.22 29.3798 72.32 30.3898 69.61C30.8598 68.41 31.3498 67.22 31.8998 66.07C32.2398 65.33 32.6098 64.6 33.0098 63.89L33.6398 62.84C33.8398 62.49 34.1498 62.19 34.3998 61.87C34.7298 61.48 34.6698 61.52 34.5498 61.94C34.4898 62.15 34.4298 62.46 34.3798 62.85C34.2998 63.22 34.1698 63.63 33.9898 64.06C32.7398 67.09 31.5698 70.1 30.7198 73.22C30.2398 75.09 30.0798 77.11 30.2698 79.05C30.3998 80.11 30.5798 81.17 30.9598 82.17C31.2698 83.21 31.8098 84.08 32.4798 84.92C33.3098 85.93 34.3298 86.82 35.4598 87.54C37.1598 88.64 39.0898 89.46 41.0598 89.96C42.5998 90.34 44.1498 90.51 45.6998 90.57C46.0398 90.6 46.3798 90.57 46.7198 90.58C47.9998 90.61 48.4098 90.62 48.7098 90.92C48.7798 90.98 48.8698 91.05 48.9098 91.11C49.0598 91.33 48.5298 91.55 47.5498 91.69C46.0998 91.84 44.5698 91.9 43.0398 91.71C41.5098 91.5 39.9798 91.14 38.4998 90.61C36.3098 89.79 34.1898 88.65 32.4198 87.01L32.4398 86.98L32.4498 86.97Z" fill="#231F20"/>
<path d="M56.1602 74.41C54.6402 74.55 53.0402 74.57 51.3202 73.86C50.9002 73.71 50.4702 73.4 50.0702 73.11C49.7102 72.74 49.3002 72.37 49.0902 71.88C48.8102 71.41 48.7102 70.92 48.6302 70.43C48.5502 69.94 48.6202 69.51 48.6302 69.05C48.7602 68.46 48.8402 67.84 49.0502 67.29C49.2702 66.75 49.4502 66.17 49.7902 65.72C51.9502 62.31 55.2702 60.33 58.6802 59.01C60.2102 58.44 61.8002 58 63.4302 57.76L65.0202 57.65C65.5502 57.63 66.0902 57.69 66.6202 57.72C67.1602 57.74 67.6802 57.93 68.1902 58.08C68.7102 58.19 69.1802 58.53 69.6002 58.88C70.1202 59.33 69.9702 59.39 69.3302 59.62C69.0102 59.72 68.5502 59.98 68.1202 60.05C67.6602 60.16 67.1602 60.38 66.6802 60.29C63.1602 60.23 59.4702 61.17 56.1402 63.01C54.1702 64.12 52.4402 65.93 51.6302 67.88C51.5002 68.15 51.3902 68.41 51.3502 68.69C51.3102 68.95 51.1702 69.25 51.1902 69.49C51.1802 69.74 51.1502 70 51.2102 70.2C51.2102 70.44 51.3402 70.59 51.4002 70.78C51.8102 71.43 52.9502 71.87 54.1902 71.89C55.7102 71.94 57.3302 71.68 58.8602 71.18C61.1802 70.45 63.3302 69.13 65.1402 67.46C66.5202 66.16 67.6002 64.59 68.1802 62.96C68.3202 62.6 68.3802 62.25 68.4702 61.89C68.7702 60.59 68.8102 60.22 69.5302 59.8C69.6702 59.71 69.8002 59.59 69.9102 59.52C70.1102 59.41 70.3102 59.5 70.6002 59.8C70.9302 60.1 71.0602 60.64 71.1202 61.36C71.1302 62.42 70.8702 63.46 70.4902 64.43C70.0902 65.39 69.5602 66.28 68.9602 67.1C67.7302 68.72 66.2402 70.08 64.5902 71.23C63.3902 72.08 62.0202 72.83 60.5902 73.37C59.1702 73.91 57.7102 74.29 56.1702 74.49V74.42L56.1602 74.41Z" fill="#231F20"/>
<path d="M85.0498 75.68C82.2698 78.58 79.2298 81.2 75.9598 83.49C74.3398 84.63 72.6198 85.72 70.8198 86.64C69.0398 87.57 67.2098 88.37 65.3498 89.09C62.6398 90.14 59.8698 91.04 57.0398 91.7C52.0398 92.8 46.8598 93.36 41.6798 92.72C39.0998 92.37 36.5098 91.73 34.1298 90.49C31.7498 89.27 29.6198 87.48 28.1998 85.1C26.9498 82.99 26.4498 80.53 26.4698 78.17C26.4698 75.8 26.9398 73.5 27.6398 71.33C28.5398 68.54 29.7698 65.85 31.3798 63.4C33.0098 60.98 34.9198 58.68 37.4198 57.07C38.2498 56.64 38.6598 56.55 38.6998 56.64C38.7498 56.75 38.4498 57.1 38.0898 57.8C37.7198 58.5 37.1698 59.41 36.5898 60.54C35.9798 61.64 35.2498 62.88 34.4398 64.2C34.0798 64.78 33.7398 65.38 33.4098 65.98C33.0598 66.57 32.7298 67.17 32.4198 67.77C31.7898 68.98 31.2398 70.23 30.7798 71.5C29.8698 74.03 29.3098 76.69 29.4498 79.21C29.5598 81.76 30.4898 84 32.3098 85.79C34.0798 87.61 36.5298 88.8 39.1498 89.56C42.3098 90.44 45.7998 90.56 49.2598 90.28C52.7298 89.99 56.1898 89.26 59.5598 88.33C63.2498 87.28 66.8798 85.91 70.2598 84.11C73.5998 82.29 76.7598 80 79.6598 77.46C83.1898 74.3 86.3898 70.7 88.7398 66.63C90.4998 63.56 91.8098 60.13 91.6998 56.69C91.6398 54.98 91.1498 53.33 90.2798 51.89C89.3798 50.46 88.1098 49.31 86.6498 48.41C84.3398 47.04 81.6998 46.27 79.0498 45.8C76.3798 45.34 73.6698 45.22 70.9598 45.35C70.3598 45.35 69.7798 45.43 69.1898 45.49C68.5998 45.54 68.0098 45.6 67.4198 45.69C65.2098 45.96 63.7798 46.27 62.7398 46.38C61.6898 46.46 61.0798 46.48 60.5098 46.29C60.2498 46.21 59.9198 46.16 59.7498 46.06C59.4598 45.89 59.7198 45.57 60.4798 45.13C61.2298 44.67 62.4898 44.14 64.1798 43.72C69.1798 42.47 74.5898 42.22 79.9898 43.17C82.6798 43.67 85.3898 44.54 87.9198 46.02C90.4698 47.45 92.7298 49.95 93.7298 52.91C94.4798 55.12 94.5598 57.45 94.1998 59.61C93.8698 61.78 93.1298 63.8 92.2298 65.69C90.4098 69.47 87.9098 72.76 85.1498 75.72L85.0998 75.68H85.0498Z" fill="#231F20"/>
<path d="M27.6799 46.59C32.6999 41.88 38.5399 38.28 44.5999 35.22C45.1599 34.96 45.7199 34.67 46.2799 34.41L47.9899 33.67C48.5599 33.43 49.1299 33.17 49.6999 32.94L51.4499 32.32C59.6999 29.48 68.3799 28.14 77.0599 28.17C78.0199 28.17 78.9899 28.25 79.9499 28.28L81.3999 28.34L82.8399 28.48C83.7999 28.59 84.7599 28.65 85.7199 28.79C86.6699 28.95 87.6199 29.12 88.5699 29.28C90.9899 29.76 93.3999 30.42 95.7099 31.37L96.5799 31.71C96.8699 31.83 97.1399 31.99 97.4199 32.13C97.9699 32.43 98.5299 32.7 99.0699 33.03C100.18 33.6 101.15 34.43 102 35.36C102.49 36 102.67 36.29 102.6 36.35C102.53 36.42 102.16 36.27 101.45 36.19C100.75 36.1 99.7599 35.99 98.7599 35.67C98.2199 35.56 97.6399 35.45 97.0599 35.27C96.4799 35.09 95.9099 34.84 95.2999 34.59C86.5999 31.22 76.8199 30.75 67.1999 31.79C61.4199 32.41 55.5299 34.11 50.0099 36.3C46.9499 37.47 44.0399 38.92 41.2199 40.6L39.0799 41.82C38.3699 42.23 37.7299 42.74 37.0499 43.2L35.0399 44.61L34.0299 45.31C33.6999 45.55 33.3999 45.83 33.0899 46.09L30.7899 48.05L29.6399 49.03L28.5899 50.11L26.4799 52.28L25.9599 52.83L25.4899 53.42L24.5499 54.6C20.7199 59.34 17.6599 64.79 15.8099 70.58C14.3799 75.08 13.6999 79.7 13.6799 84.31C13.7199 85.32 13.6799 86.32 13.7999 87.33C13.9199 89.22 14.0899 90.42 14.0299 91.32C14.0299 92.2 13.9999 92.72 13.8199 93.21C13.7399 93.43 13.6899 93.71 13.6099 93.86C13.4599 94.11 13.1999 93.89 12.8099 93.23C12.6199 92.9 12.3699 92.47 12.1399 91.94C11.9499 91.4 11.7099 90.77 11.5199 90.04C10.5999 85.68 10.6399 81.09 11.3199 76.54C12.0399 71.99 13.4999 67.52 15.4199 63.27C18.3799 56.98 22.6299 51.31 27.6399 46.53L27.6999 46.58L27.6799 46.59Z" fill="#231F20"/>
<path d="M92.7399 93.53C88.8499 96.89 84.5799 99.82 80.1199 102.31C78.4799 103.21 76.8599 104.13 75.1599 104.9C69.1699 107.61 62.8299 109.58 56.3299 110.48C53.4599 110.93 50.5299 111.12 47.6399 111.14C45.7899 111.16 43.9299 111.1 42.0799 110.89C40.2599 110.54 38.3899 110.37 36.7299 109.29C35.6299 109 35.7699 109.08 36.7299 109.18C37.7299 109.14 39.6099 108.51 41.6499 108.59C43.4799 108.53 45.2699 108.72 47.0799 108.61L48.4299 108.58L49.7799 108.48C50.6799 108.41 51.5799 108.36 52.4799 108.23C56.0799 107.87 59.6699 107.28 63.2399 106.39C67.5099 105.33 71.7299 103.44 75.7499 101.39C80.1599 99.1 84.3899 96.48 88.2899 93.38C89.5099 92.46 90.6399 91.41 91.8099 90.42C92.9099 89.36 94.0699 88.34 95.0999 87.21C98.3199 83.87 101.29 80.22 103.71 76.3C105.59 73.24 107.04 70.03 108.23 66.73C108.48 66 108.72 65.28 108.98 64.55C109.95 61.84 110.3 61.01 111.2 60.58C111.4 60.48 111.6 60.33 111.78 60.29C112.36 60.13 112.58 61.43 112.17 63.65C111.6 66.94 110.31 70.14 108.79 73.23C107.25 76.32 105.42 79.31 103.34 82.13C100.28 86.33 96.6699 90.13 92.7799 93.57L92.7299 93.52L92.7399 93.53Z" fill="#231F20"/>
<path d="M42.9402 55.53C41.9402 54.8 41.1202 53.74 40.6602 52.56C40.1902 51.37 40.1502 50.06 40.4102 48.87C40.6102 48.01 40.9102 47.18 41.3802 46.47C42.2002 45.21 43.4302 44.22 44.7802 43.66C46.1302 43.08 47.6102 42.95 48.9902 43.12C50.2902 43.26 51.5102 43.81 52.4702 44.58C53.0802 45.09 53.6402 45.68 54.0502 46.38C54.4802 47.07 54.6202 47.95 54.5302 48.75C54.4402 49.26 54.2702 49.13 53.9902 48.78C53.8602 48.61 53.6502 48.38 53.4202 48.17C53.2002 47.94 52.8802 47.76 52.6902 47.49C51.9602 46.57 50.8102 45.95 49.8202 45.49C49.5602 45.38 49.3302 45.33 49.0702 45.28C48.7702 45.24 48.4602 45.21 48.1602 45.19C47.5502 45.17 46.9302 45.22 46.3302 45.36C44.8502 45.67 43.6902 46.88 43.0502 48.27C42.7002 49.02 42.5302 49.82 42.6002 50.61C42.6802 51.4 43.0002 52.16 43.5302 52.8C44.1902 53.58 45.1402 54.15 46.2002 54.44C47.0002 54.65 47.8302 54.76 48.6302 54.64C49.4302 54.52 50.1802 54.18 50.8102 53.67C51.7802 52.86 52.3302 51.65 52.5902 50.44C52.6602 50.17 52.6802 49.9 52.7202 49.63C52.8902 48.63 53.0702 48.33 53.7502 48.1C53.9102 48.05 54.0602 47.98 54.2102 47.95C54.7102 47.83 55.1702 48.34 55.2302 49.33C55.2902 50.79 54.9002 52.33 54.0302 53.71C53.2002 55.1 51.7802 56.29 50.0902 56.83C48.8402 57.24 47.5002 57.25 46.3102 57C45.1102 56.77 43.9602 56.3 42.9202 55.57L42.9502 55.52L42.9402 55.53Z" fill="#231F20"/>
<path d="M110.89 37.86C113.69 38.52 115.99 40.92 116.55 43.64C116.79 44.61 116.87 45.66 116.74 46.6C116.52 48.27 115.91 49.89 114.91 51.26C113.93 52.63 112.5 53.71 110.88 54.2C109.47 54.65 107.91 54.72 106.49 54.29C104.68 53.75 103.14 52.52 102.29 50.95C102.02 50.46 102.22 50.42 102.7 50.6C103.17 50.8 104.04 51.04 104.81 51.44C106.15 52.24 107.55 52.47 108.88 52.43C110.26 52.33 111.56 51.72 112.62 50.69C113.92 49.45 114.47 47.4 114.45 45.55C114.49 43.56 113.38 41.6 111.57 40.69C110.47 40.11 109.15 39.92 107.86 40.09C106.87 40.23 105.89 40.5 105.01 40.97C104.13 41.44 103.38 42.11 102.85 42.91C102.02 44.17 101.89 45.73 102.24 47.1C102.29 47.41 102.43 47.69 102.53 47.99C102.92 49.09 102.98 49.49 102.53 50.08C102.43 50.21 102.34 50.37 102.23 50.48C101.88 50.86 101.17 50.61 100.53 49.62C99.6399 48.15 99.2099 46.2 99.6299 44.27C99.9899 42.33 101.23 40.58 102.8 39.43C103.97 38.57 105.32 38.05 106.67 37.78C108.01 37.5 109.48 37.47 110.89 37.81V37.87V37.86Z" fill="#231F20"/>
<path d="M30.1898 97.2C29.4898 96.08 28.4898 95.14 27.2998 94.52C26.1198 93.9 24.7398 93.65 23.3598 93.7C22.3598 93.75 21.3998 94.05 20.4998 94.45C19.7098 94.81 18.9798 95.31 18.3398 95.92C17.6998 96.53 17.2098 97.28 16.8098 98.07C16.3998 98.87 16.1998 99.76 16.0598 100.66C16.0298 101.12 15.9698 101.58 16.0098 102.04C16.0198 102.26 16.0098 102.52 16.0398 102.72C16.0698 102.91 16.0898 103.09 16.1698 103.3C16.3898 104.02 16.8198 104.75 17.3098 105.42C17.8198 106.09 18.4298 106.68 19.0198 107.26C19.8098 107.98 20.7098 108.59 21.6298 109.05C21.8598 109.18 22.0998 109.27 22.3298 109.37C22.5498 109.51 22.7898 109.62 23.0298 109.72C23.2698 109.84 23.5098 109.93 23.7598 110C23.8898 110.03 24.0098 110.11 24.1398 110.16C24.2698 110.21 24.3998 110.24 24.5298 110.28C25.1998 110.51 25.1698 110.58 24.5498 110.97C23.9698 111.41 22.4798 112.09 20.9298 111.61C18.3398 110.62 16.1698 108.9 14.7498 106.57C14.3798 106 14.0698 105.37 13.7998 104.69C13.6798 104.33 13.5598 103.98 13.4798 103.57L13.3798 102.94V102.42C13.3198 101.06 13.5398 99.68 14.0098 98.4C14.5698 96.87 15.4198 95.41 16.5798 94.21C17.7298 93.01 19.1998 92.1 20.7798 91.64C24.2498 90.62 28.1498 91.51 30.7798 93.91C32.3898 95.39 33.4998 97.34 34.0198 99.43C34.7898 102.62 33.8898 106.19 31.6698 108.59C30.0198 110.49 27.5698 111.81 24.9798 111.96C24.4098 112.01 23.8498 112.03 23.2798 111.96C21.1698 111.69 20.6698 111.01 20.5398 110.24C20.5098 110.06 20.4598 109.87 20.4698 109.72C20.4898 109.45 20.7198 109.3 21.0898 109.21C21.4698 109.12 21.9998 109.06 22.5998 109.11C24.3998 109.25 26.1398 108.97 27.5598 108.17C28.9798 107.41 30.1098 106.03 30.7998 104.55C31.8298 102.34 31.5698 99.43 30.0898 97.22L30.1398 97.18L30.1898 97.2Z" fill="#231F20"/>
<path d="M113.62 82.76C113.66 82.67 113.77 82.64 113.87 82.6C113.9 82.59 113.95 82.61 113.96 82.64C113.96 82.7 113.98 82.76 113.99 82.82C114.04 82.87 113.91 83.39 113.87 83.56C113.84 83.73 113.78 83.9 113.73 84.06C113.61 84.39 113.51 84.73 113.38 85.05C113.35 85.12 113.31 85.19 113.26 85.25C113.1 85.47 112.99 85.71 112.89 85.96C112.87 86 112.85 86.04 112.86 86.09C112.88 86.18 112.59 86.84 112.53 86.92C112.38 87.11 112.25 87.3 112.09 87.48C112.07 87.51 112.06 87.54 112.01 87.55C111.89 87.57 111.88 87.64 111.84 87.7C111.79 87.78 111.73 87.87 111.65 87.94C111.61 87.98 111.55 88 111.49 88.02C111.44 88.04 111.34 87.97 111.34 87.95C111.32 87.89 111.26 87.9 111.21 87.88C111.19 87.88 111.17 87.87 111.16 87.86C111.13 87.84 111.14 87.21 111.16 87.16C111.16 87.14 111.44 86.36 111.47 86.27C111.48 86.22 111.53 86.19 111.56 86.15C111.58 86.11 111.81 85.51 111.82 85.49C111.89 85.37 111.92 85.24 112.06 85.15C112.09 85.13 112.09 85.11 112.11 85.08C112.2 84.86 112.34 84.67 112.46 84.46C112.53 84.33 112.58 84.25 112.64 84.14C112.65 84.12 112.67 84.11 112.69 84.09C112.71 84.07 112.73 84.05 112.74 84.02C112.88 83.77 113.05 83.53 113.17 83.27C113.2 83.21 113.41 82.96 113.44 82.89C113.45 82.85 113.61 82.76 113.63 82.73L113.62 82.76Z" fill="#231F20"/>
<path d="M114.98 86.22C115.06 86.25 115.1 86.36 115.14 86.45C115.15 86.48 115.13 86.53 115.1 86.54C115.03 86.55 114.96 86.57 114.92 86.58C114.87 86.63 114.36 86.53 114.19 86.49C114.02 86.46 113.86 86.41 113.7 86.36C113.38 86.24 113.05 86.15 112.74 86.02C112.67 85.99 112.61 85.95 112.55 85.9C112.34 85.74 112.11 85.63 111.87 85.54C111.83 85.52 111.79 85.5 111.74 85.51C111.65 85.53 111.02 85.24 110.96 85.18C110.79 85.03 110.6 84.9 110.44 84.74C110.42 84.72 110.38 84.71 110.37 84.66C110.35 84.54 110.29 84.53 110.23 84.49C110.15 84.44 110.07 84.38 110.01 84.3C109.98 84.26 109.96 84.2 109.93 84.14C109.91 84.09 109.98 83.99 110 83.99C110.06 83.97 110.05 83.91 110.07 83.86C110.07 83.84 110.09 83.82 110.09 83.81C110.11 83.78 110.72 83.79 110.77 83.82C110.79 83.82 111.54 84.11 111.62 84.14C111.67 84.15 111.7 84.2 111.73 84.23C111.77 84.25 112.34 84.49 112.36 84.49C112.47 84.56 112.6 84.59 112.68 84.72C112.7 84.75 112.72 84.75 112.75 84.77C112.96 84.86 113.14 85 113.34 85.12C113.44 85.18 113.54 85.24 113.64 85.29C113.66 85.3 113.67 85.32 113.69 85.34C113.71 85.36 113.73 85.38 113.75 85.39C113.99 85.52 114.21 85.69 114.46 85.79C114.52 85.82 114.75 86.02 114.82 86.04C114.86 86.04 114.94 86.2 114.97 86.22H114.98Z" fill="#231F20"/>
<path d="M114.61 84.36C114.68 84.33 114.77 84.39 114.84 84.44C114.86 84.45 114.88 84.51 114.87 84.53C114.84 84.57 114.82 84.62 114.8 84.67C114.8 84.74 114.47 84.98 114.36 85.06C114.25 85.15 114.14 85.21 114.02 85.27C113.78 85.39 113.55 85.54 113.3 85.65C113.25 85.67 113.19 85.69 113.13 85.69C112.92 85.71 112.73 85.78 112.55 85.88C112.52 85.9 112.49 85.9 112.47 85.95C112.44 86.02 111.92 86.24 111.85 86.24C111.66 86.24 111.49 86.28 111.3 86.28C111.27 86.28 111.25 86.3 111.22 86.27C111.14 86.2 111.09 86.23 111.04 86.24C110.96 86.26 110.89 86.26 110.8 86.25C110.76 86.25 110.71 86.21 110.66 86.18C110.62 86.16 110.6 86.04 110.61 86.02C110.63 85.97 110.59 85.93 110.57 85.88C110.57 85.86 110.56 85.84 110.55 85.83C110.55 85.8 110.87 85.39 110.91 85.38C110.91 85.36 111.48 85.07 111.55 85.04C111.58 85.02 111.63 85.03 111.66 85.03C111.69 85.01 112.14 84.8 112.15 84.8C112.25 84.78 112.34 84.71 112.47 84.75C112.49 84.75 112.51 84.75 112.53 84.74C112.7 84.67 112.88 84.64 113.05 84.6C113.14 84.58 113.23 84.55 113.32 84.53C113.34 84.53 113.36 84.53 113.37 84.53C113.39 84.53 113.42 84.53 113.44 84.53C113.65 84.47 113.87 84.44 114.08 84.36C114.13 84.34 114.38 84.34 114.44 84.32C114.47 84.3 114.61 84.37 114.64 84.36H114.61Z" fill="#231F20"/>
<path d="M113.57 87.14C113.6 87.21 113.54 87.3 113.49 87.37C113.47 87.39 113.42 87.41 113.4 87.4C113.36 87.37 113.31 87.35 113.26 87.32C113.19 87.32 112.96 86.98 112.87 86.87C112.78 86.76 112.72 86.65 112.66 86.53C112.54 86.29 112.39 86.06 112.29 85.81C112.27 85.75 112.25 85.7 112.25 85.64C112.23 85.43 112.16 85.24 112.07 85.05C112.05 85.02 112.05 84.98 112 84.96C111.93 84.93 111.72 84.41 111.72 84.34C111.72 84.15 111.68 83.98 111.69 83.79C111.69 83.76 111.67 83.74 111.7 83.71C111.77 83.63 111.74 83.58 111.73 83.53C111.72 83.45 111.71 83.38 111.72 83.29C111.72 83.25 111.76 83.2 111.79 83.15C111.81 83.11 111.93 83.09 111.95 83.1C112 83.12 112.04 83.08 112.09 83.06C112.11 83.06 112.13 83.05 112.14 83.04C112.17 83.04 112.57 83.36 112.59 83.41C112.61 83.41 112.89 83.98 112.92 84.05C112.94 84.08 112.93 84.13 112.92 84.17C112.93 84.2 113.14 84.65 113.15 84.66C113.17 84.76 113.23 84.85 113.19 84.98C113.19 85 113.19 85.02 113.2 85.04C113.27 85.21 113.29 85.39 113.33 85.56C113.35 85.65 113.38 85.74 113.4 85.83C113.4 85.85 113.4 85.87 113.4 85.88C113.4 85.9 113.4 85.93 113.4 85.95C113.46 86.16 113.48 86.38 113.56 86.59C113.58 86.64 113.57 86.89 113.6 86.95C113.62 86.98 113.55 87.12 113.56 87.15L113.57 87.14Z" fill="#231F20"/>
<path d="M86.8902 104.24C86.8602 104.15 86.9102 104.04 86.9502 103.95C86.9602 103.92 87.0202 103.9 87.0402 103.92C87.0802 103.96 87.1402 103.99 87.1902 104.03C87.2602 104.03 87.5302 104.49 87.6202 104.64C87.7202 104.79 87.7902 104.94 87.8702 105.1C88.0102 105.42 88.1802 105.73 88.3102 106.06C88.3402 106.13 88.3602 106.21 88.3702 106.29C88.4102 106.56 88.5002 106.81 88.6102 107.06C88.6302 107.1 88.6402 107.15 88.6802 107.17C88.7502 107.22 89.0102 107.9 89.0202 107.99C89.0402 108.23 89.0902 108.46 89.1002 108.7C89.1002 108.73 89.1202 108.76 89.1002 108.81C89.0302 108.91 89.0702 108.97 89.0802 109.04C89.1002 109.14 89.1202 109.24 89.1102 109.34C89.1102 109.39 89.0802 109.45 89.0502 109.51C89.0302 109.56 88.9102 109.58 88.8902 109.57C88.8402 109.54 88.8002 109.59 88.7502 109.61C88.7302 109.61 88.7102 109.62 88.7002 109.63C88.6702 109.63 88.2302 109.18 88.2102 109.12C88.1902 109.12 87.8502 108.35 87.8102 108.27C87.7902 108.23 87.7902 108.17 87.7902 108.12C87.7702 108.08 87.5202 107.49 87.5102 107.47C87.4802 107.34 87.4102 107.22 87.4402 107.06C87.4402 107.03 87.4402 107 87.4202 106.98C87.3402 106.76 87.2902 106.53 87.2402 106.29C87.2002 106.15 87.1802 106.06 87.1502 105.94C87.1502 105.92 87.1502 105.89 87.1502 105.87C87.1502 105.84 87.1502 105.81 87.1502 105.78C87.0702 105.51 87.0302 105.22 86.9302 104.95C86.9102 104.89 86.8902 104.56 86.8602 104.49C86.8402 104.45 86.8902 104.28 86.8902 104.24Z" fill="#231F20"/>
<path d="M90.2798 105.77C90.3598 105.73 90.4599 105.79 90.5499 105.82C90.5799 105.83 90.5998 105.89 90.5798 105.91C90.5398 105.97 90.4999 106.02 90.4799 106.06C90.4799 106.13 90.0398 106.42 89.8898 106.51C89.7498 106.61 89.5998 106.69 89.4498 106.76C89.1398 106.9 88.8398 107.07 88.5298 107.18C88.4598 107.21 88.3898 107.22 88.3098 107.23C88.0498 107.26 87.8098 107.34 87.5698 107.44C87.5298 107.46 87.4898 107.47 87.4598 107.51C87.4098 107.58 86.7598 107.82 86.6698 107.82C86.4398 107.82 86.2198 107.87 85.9898 107.87C85.9598 107.87 85.9298 107.89 85.8898 107.87C85.7998 107.8 85.7398 107.83 85.6698 107.84C85.5798 107.86 85.4798 107.87 85.3798 107.86C85.3298 107.86 85.2698 107.82 85.2098 107.8C85.1598 107.78 85.1498 107.66 85.1498 107.64C85.1798 107.59 85.1298 107.55 85.1098 107.5C85.1098 107.48 85.0998 107.46 85.0898 107.45C85.0898 107.42 85.5298 107 85.5898 106.98C85.5898 106.96 86.3398 106.65 86.4198 106.62C86.4598 106.6 86.5198 106.61 86.5598 106.61C86.5998 106.59 87.1798 106.37 87.1998 106.36C87.3298 106.33 87.4498 106.26 87.5998 106.3C87.6298 106.3 87.6498 106.3 87.6798 106.29C87.8898 106.21 88.1198 106.18 88.3398 106.13C88.4498 106.11 88.5598 106.07 88.6798 106.05C88.6998 106.05 88.7198 106.05 88.7498 106.05C88.7798 106.05 88.8098 106.05 88.8298 106.05C89.0898 105.98 89.3699 105.94 89.6199 105.84C89.6799 105.82 89.9898 105.8 90.0598 105.77C90.0898 105.75 90.2598 105.8 90.2898 105.79L90.2798 105.77Z" fill="#231F20"/>
<path d="M88.7202 104.7C88.7502 104.63 88.8502 104.61 88.9402 104.59C88.9702 104.59 89.0202 104.61 89.0302 104.63C89.0402 104.68 89.0602 104.73 89.0702 104.78C89.1202 104.83 89.0502 105.23 89.0202 105.37C89.0002 105.51 88.9702 105.63 88.9302 105.76C88.8402 106.01 88.7802 106.28 88.6802 106.53C88.6602 106.59 88.6302 106.64 88.5902 106.68C88.4502 106.84 88.3702 107.03 88.3002 107.22C88.2902 107.25 88.2702 107.28 88.2902 107.33C88.3202 107.4 88.1002 107.92 88.0502 107.97C87.9202 108.1 87.8202 108.25 87.6802 108.38C87.6602 108.4 87.6602 108.43 87.6102 108.43C87.5002 108.43 87.4902 108.49 87.4602 108.54C87.4202 108.6 87.3702 108.66 87.3002 108.71C87.2702 108.74 87.2102 108.74 87.1602 108.76C87.1102 108.77 87.0202 108.7 87.0102 108.68C86.9902 108.63 86.9302 108.63 86.8802 108.61C86.8602 108.61 86.8402 108.59 86.8302 108.59C86.8002 108.57 86.7502 108.06 86.7702 108.01C86.7602 107.99 86.9602 107.39 86.9902 107.32C86.9902 107.28 87.0402 107.26 87.0602 107.23C87.0702 107.2 87.2402 106.74 87.2502 106.72C87.3102 106.63 87.3302 106.53 87.4402 106.47C87.4602 106.46 87.4702 106.44 87.4802 106.42C87.5502 106.26 87.6602 106.11 87.7602 105.96C87.8102 105.88 87.8502 105.8 87.9002 105.72C87.9002 105.71 87.9302 105.7 87.9402 105.68C87.9602 105.66 87.9802 105.65 87.9902 105.63C88.1002 105.44 88.2402 105.27 88.3302 105.07C88.3502 105.03 88.5402 104.84 88.5602 104.79C88.5602 104.76 88.7102 104.71 88.7302 104.68L88.7202 104.7Z" fill="#231F20"/>
<path d="M89.9201 107.41C89.9901 107.44 90.0001 107.54 90.0301 107.63C90.0301 107.66 90.0101 107.71 89.9901 107.72C89.9401 107.72 89.8901 107.75 89.8401 107.76C89.7901 107.81 89.3901 107.73 89.2501 107.71C89.1101 107.69 88.9901 107.66 88.8601 107.61C88.6101 107.52 88.3401 107.46 88.0901 107.35C88.0401 107.33 87.9801 107.29 87.9401 107.25C87.7801 107.11 87.6001 107.03 87.4001 106.96C87.3701 106.95 87.3401 106.93 87.2901 106.95C87.2201 106.98 86.7101 106.75 86.6501 106.7C86.5201 106.57 86.3701 106.47 86.2401 106.32C86.2201 106.3 86.1901 106.3 86.1901 106.25C86.1901 106.14 86.1301 106.13 86.0901 106.1C86.0301 106.06 85.9701 106.01 85.9201 105.94C85.8901 105.91 85.8901 105.85 85.8701 105.79C85.8601 105.74 85.9301 105.65 85.9501 105.64C86.0001 105.62 86.0001 105.56 86.0201 105.51C86.0201 105.49 86.0401 105.48 86.0401 105.46C86.0601 105.44 86.5701 105.39 86.6201 105.41C86.6401 105.41 87.2401 105.61 87.3001 105.64C87.3401 105.64 87.3601 105.69 87.3901 105.72C87.4201 105.73 87.8801 105.91 87.9001 105.91C87.9901 105.97 88.0901 105.99 88.1501 106.11C88.1601 106.13 88.1801 106.14 88.2001 106.15C88.3601 106.22 88.5101 106.33 88.6601 106.43C88.7401 106.48 88.8201 106.53 88.9001 106.58C88.9101 106.58 88.9201 106.61 88.9401 106.62C88.9601 106.64 88.9701 106.66 88.9901 106.67C89.1801 106.78 89.3501 106.92 89.5501 107.02C89.5901 107.04 89.7701 107.23 89.8301 107.25C89.8601 107.25 89.9101 107.4 89.9401 107.42L89.9201 107.41Z" fill="#231F20"/>
<path d="M102.67 104.15C102.65 104.06 102.74 103.96 102.81 103.87C102.83 103.84 102.91 103.83 102.93 103.86C102.98 103.91 103.03 103.95 103.09 104C103.18 104.02 103.4 104.53 103.48 104.7C103.56 104.87 103.62 105.04 103.67 105.21C103.76 105.56 103.89 105.91 103.95 106.27C103.96 106.35 103.97 106.43 103.95 106.51C103.92 106.79 103.95 107.06 104.02 107.33C104.03 107.37 104.03 107.42 104.08 107.46C104.16 107.52 104.27 108.26 104.25 108.36C104.2 108.61 104.19 108.85 104.13 109.09C104.13 109.12 104.13 109.16 104.09 109.2C103.98 109.28 104 109.35 104 109.43C104 109.53 103.98 109.64 103.94 109.74C103.92 109.79 103.86 109.85 103.82 109.9C103.78 109.95 103.63 109.94 103.61 109.92C103.56 109.88 103.49 109.92 103.43 109.93C103.41 109.93 103.38 109.93 103.36 109.93C103.32 109.93 102.93 109.38 102.93 109.32C102.91 109.31 102.73 108.47 102.71 108.37C102.69 108.32 102.71 108.27 102.73 108.22C102.73 108.19 102.59 107.53 102.59 107.5C102.59 107.36 102.54 107.22 102.62 107.07C102.64 107.04 102.62 107.01 102.62 106.98C102.58 106.74 102.6 106.5 102.59 106.25C102.59 106.13 102.58 106 102.57 105.88C102.57 105.86 102.58 105.83 102.59 105.81C102.59 105.78 102.61 105.75 102.6 105.72C102.58 105.43 102.6 105.13 102.55 104.84C102.55 104.77 102.6 104.44 102.58 104.36C102.56 104.32 102.67 104.16 102.67 104.12V104.15Z" fill="#231F20"/>
<path d="M106.58 106.23C106.69 106.21 106.8 106.3 106.9 106.37C106.93 106.39 106.94 106.47 106.91 106.49C106.85 106.54 106.8 106.59 106.75 106.65C106.73 106.74 106.13 106.97 105.93 107.05C105.74 107.14 105.54 107.19 105.34 107.24C104.93 107.33 104.53 107.47 104.12 107.53C104.03 107.55 103.94 107.55 103.84 107.54C103.52 107.51 103.2 107.55 102.89 107.62C102.84 107.63 102.78 107.63 102.74 107.68C102.66 107.76 101.81 107.88 101.7 107.86C101.42 107.81 101.14 107.81 100.86 107.74C100.82 107.74 100.78 107.75 100.74 107.7C100.65 107.59 100.56 107.61 100.48 107.61C100.36 107.61 100.24 107.59 100.12 107.56C100.06 107.54 99.9998 107.48 99.9398 107.44C99.8798 107.4 99.8998 107.25 99.9098 107.23C99.9598 107.18 99.9098 107.11 99.8998 107.05C99.8998 107.03 99.8998 107 99.8998 106.98C99.8998 106.94 100.54 106.54 100.62 106.54C100.64 106.52 101.61 106.33 101.72 106.31C101.78 106.29 101.84 106.31 101.9 106.33C101.93 106.33 102.7 106.18 102.73 106.18C102.89 106.18 103.05 106.12 103.22 106.21C103.25 106.23 103.29 106.21 103.32 106.21C103.6 106.17 103.88 106.18 104.16 106.18C104.3 106.18 104.45 106.17 104.59 106.16C104.62 106.16 104.64 106.17 104.67 106.18C104.7 106.18 104.74 106.2 104.77 106.19C105.11 106.16 105.45 106.19 105.78 106.13C105.86 106.12 106.24 106.17 106.33 106.15C106.38 106.13 106.56 106.24 106.61 106.24L106.58 106.23Z" fill="#231F20"/>
<path d="M104.79 104.36C104.85 104.28 104.98 104.28 105.1 104.27C105.14 104.27 105.19 104.31 105.19 104.35C105.19 104.41 105.19 104.49 105.19 104.56C105.24 104.63 105.01 105.14 104.94 105.32C104.88 105.49 104.79 105.65 104.7 105.81C104.51 106.12 104.35 106.46 104.13 106.76C104.08 106.83 104.03 106.89 103.96 106.94C103.74 107.12 103.57 107.34 103.43 107.58C103.41 107.62 103.37 107.65 103.38 107.72C103.38 107.82 102.95 108.44 102.87 108.5C102.66 108.65 102.49 108.82 102.27 108.95C102.24 108.97 102.23 109.01 102.17 109C102.03 108.98 102 109.05 101.95 109.1C101.88 109.17 101.79 109.24 101.69 109.29C101.64 109.32 101.56 109.31 101.49 109.32C101.43 109.32 101.33 109.21 101.33 109.19C101.33 109.12 101.24 109.1 101.19 109.07C101.17 109.06 101.15 109.04 101.14 109.03C101.11 109 101.21 108.32 101.26 108.27C101.26 108.24 101.7 107.5 101.76 107.42C101.78 107.37 101.84 107.35 101.88 107.32C101.9 107.28 102.27 106.72 102.28 106.7C102.38 106.6 102.44 106.46 102.6 106.41C102.63 106.41 102.65 106.37 102.66 106.35C102.8 106.15 102.99 105.99 103.16 105.81C103.25 105.72 103.33 105.63 103.42 105.53C103.44 105.51 103.46 105.51 103.48 105.49C103.51 105.47 103.53 105.46 103.55 105.44C103.75 105.22 103.98 105.02 104.16 104.78C104.2 104.73 104.49 104.53 104.53 104.47C104.55 104.43 104.75 104.39 104.78 104.37L104.79 104.36Z" fill="#231F20"/>
<path d="M105.58 108.32C105.66 108.38 105.66 108.52 105.67 108.63C105.67 108.67 105.63 108.72 105.59 108.72C105.53 108.72 105.45 108.72 105.38 108.72C105.31 108.76 104.8 108.54 104.62 108.46C104.45 108.39 104.29 108.31 104.13 108.21C103.82 108.01 103.49 107.85 103.19 107.63C103.12 107.58 103.06 107.53 103.01 107.46C102.83 107.24 102.61 107.07 102.37 106.92C102.33 106.9 102.3 106.86 102.23 106.87C102.13 106.87 101.52 106.43 101.46 106.35C101.32 106.14 101.15 105.96 101.01 105.75C100.99 105.72 100.95 105.71 100.96 105.65C100.98 105.51 100.91 105.48 100.86 105.43C100.79 105.35 100.72 105.27 100.67 105.17C100.64 105.12 100.65 105.04 100.64 104.97C100.64 104.91 100.75 104.81 100.77 104.81C100.84 104.81 100.86 104.72 100.89 104.67C100.9 104.65 100.92 104.63 100.93 104.62C100.96 104.59 101.64 104.7 101.69 104.74C101.72 104.74 102.45 105.19 102.53 105.25C102.58 105.27 102.6 105.33 102.63 105.37C102.67 105.39 103.23 105.77 103.25 105.78C103.35 105.88 103.49 105.94 103.53 106.11C103.53 106.14 103.57 106.16 103.59 106.17C103.79 106.31 103.95 106.5 104.13 106.68C104.22 106.77 104.31 106.85 104.4 106.94C104.42 106.96 104.42 106.98 104.44 107C104.46 107.03 104.47 107.05 104.49 107.07C104.71 107.27 104.9 107.51 105.14 107.69C105.19 107.73 105.38 108.02 105.45 108.07C105.49 108.09 105.52 108.29 105.55 108.32H105.58Z" fill="#231F20"/>
<path d="M17.1099 29.63C17.0799 29.54 17.1299 29.44 17.1699 29.34C17.1799 29.31 17.2399 29.29 17.2599 29.31C17.2999 29.35 17.3599 29.38 17.4099 29.42C17.4799 29.42 17.7499 29.88 17.8399 30.03C17.9399 30.18 18.0099 30.33 18.0899 30.49C18.2299 30.81 18.3999 31.12 18.5299 31.45C18.5599 31.52 18.5799 31.6 18.5899 31.68C18.6299 31.95 18.7199 32.2 18.8299 32.45C18.8499 32.49 18.8599 32.54 18.8999 32.56C18.9699 32.61 19.2299 33.29 19.2399 33.38C19.2599 33.62 19.3099 33.85 19.3199 34.09C19.3199 34.12 19.3399 34.15 19.3199 34.2C19.2499 34.3 19.2899 34.36 19.2999 34.43C19.3199 34.53 19.3399 34.63 19.3299 34.73C19.3299 34.78 19.2999 34.84 19.2699 34.9C19.2499 34.95 19.1299 34.97 19.1099 34.96C19.0599 34.93 19.0099 34.98 18.9699 35C18.9499 35 18.9299 35.01 18.9199 35.02C18.8899 35.02 18.4499 34.57 18.4299 34.51C18.4099 34.51 18.0699 33.74 18.0299 33.66C18.0099 33.62 18.0099 33.56 18.0099 33.51C17.9899 33.47 17.7399 32.88 17.7299 32.86C17.6999 32.73 17.6299 32.61 17.6599 32.45C17.6599 32.42 17.6599 32.39 17.6399 32.37C17.5599 32.15 17.5099 31.92 17.4599 31.68C17.4199 31.54 17.3999 31.45 17.3699 31.33C17.3699 31.31 17.3699 31.28 17.3699 31.26C17.3699 31.23 17.3699 31.2 17.3699 31.17C17.2899 30.9 17.2499 30.61 17.1499 30.34C17.1299 30.28 17.1099 29.95 17.0799 29.88C17.0599 29.84 17.1099 29.67 17.1099 29.63Z" fill="#231F20"/>
<path d="M20.5001 31.15C20.5801 31.11 20.6801 31.17 20.7701 31.2C20.8001 31.21 20.8201 31.27 20.8001 31.29C20.7601 31.35 20.7201 31.4 20.7001 31.44C20.7001 31.51 20.2601 31.8 20.1101 31.89C19.9701 31.99 19.8201 32.07 19.6701 32.14C19.3601 32.28 19.0601 32.45 18.7501 32.56C18.6801 32.59 18.6101 32.6 18.5301 32.61C18.2701 32.64 18.0301 32.72 17.7901 32.82C17.7501 32.84 17.7101 32.85 17.6801 32.89C17.6301 32.96 16.9801 33.2 16.8901 33.2C16.6601 33.2 16.4401 33.25 16.2101 33.25C16.1801 33.25 16.1501 33.27 16.1101 33.25C16.0201 33.18 15.9601 33.21 15.8901 33.22C15.8001 33.24 15.7001 33.25 15.6001 33.24C15.5501 33.24 15.4901 33.2 15.4301 33.18C15.3801 33.16 15.3701 33.04 15.3701 33.02C15.4001 32.97 15.3501 32.93 15.3301 32.88C15.3301 32.86 15.3201 32.84 15.3101 32.83C15.3101 32.8 15.7501 32.38 15.8101 32.36C15.8101 32.34 16.5601 32.03 16.6401 32C16.6801 31.98 16.7401 31.99 16.7801 31.99C16.8201 31.97 17.4001 31.75 17.4201 31.74C17.5501 31.71 17.6701 31.64 17.8201 31.68C17.8501 31.68 17.8701 31.68 17.9001 31.67C18.1101 31.59 18.3401 31.56 18.5601 31.51C18.6701 31.49 18.7801 31.45 18.9001 31.43C18.9201 31.43 18.9401 31.43 18.9701 31.43C19.0001 31.43 19.0301 31.43 19.0501 31.43C19.3101 31.36 19.5901 31.32 19.8401 31.22C19.9001 31.2 20.2101 31.18 20.2801 31.15C20.3101 31.13 20.4801 31.18 20.5101 31.17L20.5001 31.15Z" fill="#231F20"/>
<path d="M18.9399 30.08C18.9699 30.01 19.0699 29.99 19.1599 29.97C19.1899 29.97 19.2399 29.99 19.2499 30.01C19.2599 30.06 19.2799 30.11 19.2899 30.16C19.3399 30.21 19.2699 30.61 19.2399 30.75C19.2199 30.89 19.1899 31.01 19.1499 31.14C19.0599 31.39 18.9999 31.66 18.8999 31.91C18.8799 31.97 18.8499 32.02 18.8099 32.06C18.6699 32.22 18.5899 32.41 18.5199 32.6C18.5099 32.63 18.4899 32.66 18.5099 32.71C18.5399 32.78 18.3199 33.3 18.2699 33.35C18.1399 33.48 18.0399 33.63 17.8999 33.76C17.8799 33.78 17.8799 33.81 17.8299 33.81C17.7199 33.81 17.7099 33.87 17.6799 33.92C17.6399 33.98 17.5899 34.04 17.5199 34.09C17.4899 34.12 17.4299 34.12 17.3799 34.14C17.3299 34.15 17.2399 34.08 17.2299 34.06C17.2099 34.01 17.1499 34.01 17.0999 33.99C17.0799 33.99 17.0599 33.97 17.0499 33.97C17.0199 33.95 16.9699 33.44 16.9899 33.39C16.9799 33.37 17.1799 32.77 17.2099 32.7C17.2099 32.66 17.2599 32.64 17.2799 32.61C17.2899 32.58 17.4599 32.12 17.4699 32.1C17.5299 32.01 17.5499 31.91 17.6599 31.85C17.6799 31.84 17.6899 31.82 17.6999 31.8C17.7699 31.64 17.8799 31.49 17.9799 31.34C18.0299 31.26 18.0699 31.18 18.1199 31.1C18.1199 31.09 18.1499 31.08 18.1599 31.06C18.1799 31.04 18.1999 31.03 18.2099 31.01C18.3199 30.82 18.4599 30.65 18.5499 30.45C18.5699 30.41 18.7599 30.22 18.7799 30.17C18.7799 30.14 18.9299 30.09 18.9499 30.06L18.9399 30.08Z" fill="#231F20"/>
<path d="M20.1398 32.8C20.2098 32.83 20.2198 32.93 20.2498 33.02C20.2498 33.05 20.2298 33.1 20.2098 33.11C20.1598 33.11 20.1098 33.14 20.0598 33.15C20.0098 33.2 19.6098 33.12 19.4698 33.1C19.3298 33.08 19.2098 33.05 19.0798 33C18.8298 32.91 18.5598 32.85 18.3098 32.74C18.2598 32.72 18.1998 32.68 18.1598 32.64C17.9998 32.5 17.8198 32.42 17.6198 32.35C17.5898 32.34 17.5598 32.32 17.5098 32.34C17.4398 32.37 16.9298 32.14 16.8698 32.09C16.7398 31.96 16.5898 31.86 16.4598 31.71C16.4398 31.69 16.4098 31.69 16.4098 31.64C16.4098 31.53 16.3498 31.52 16.3098 31.49C16.2498 31.45 16.1898 31.4 16.1398 31.33C16.1098 31.3 16.1098 31.24 16.0898 31.18C16.0798 31.13 16.1498 31.04 16.1698 31.03C16.2198 31.01 16.2198 30.95 16.2398 30.9C16.2398 30.88 16.2598 30.86 16.2598 30.85C16.2798 30.83 16.7898 30.78 16.8398 30.8C16.8598 30.8 17.4598 31 17.5198 31.03C17.5598 31.03 17.5798 31.08 17.6098 31.11C17.6398 31.12 18.0998 31.3 18.1198 31.3C18.2098 31.36 18.3098 31.38 18.3698 31.5C18.3798 31.52 18.3998 31.53 18.4198 31.54C18.5798 31.61 18.7298 31.72 18.8798 31.82C18.9598 31.87 19.0398 31.92 19.1198 31.97C19.1298 31.97 19.1398 32 19.1598 32.01C19.1798 32.03 19.1898 32.05 19.2098 32.06C19.3998 32.17 19.5698 32.31 19.7698 32.41C19.8098 32.43 19.9898 32.62 20.0498 32.64C20.0798 32.64 20.1298 32.79 20.1598 32.81L20.1398 32.8Z" fill="#231F20"/>
<path d="M33.6898 17.08C33.6698 16.99 33.7598 16.89 33.8298 16.8C33.8498 16.77 33.9298 16.76 33.9498 16.79C33.9998 16.84 34.0498 16.88 34.1098 16.93C34.1998 16.95 34.4198 17.46 34.4998 17.63C34.5798 17.8 34.6398 17.97 34.6898 18.14C34.7798 18.49 34.9098 18.84 34.9698 19.2C34.9798 19.28 34.9898 19.36 34.9698 19.44C34.9398 19.72 34.9698 19.99 35.0398 20.26C35.0498 20.3 35.0498 20.35 35.0998 20.39C35.1798 20.45 35.2898 21.19 35.2698 21.29C35.2198 21.54 35.2098 21.78 35.1498 22.02C35.1498 22.05 35.1498 22.09 35.1098 22.13C34.9998 22.21 35.0198 22.28 35.0198 22.36C35.0198 22.46 34.9998 22.57 34.9598 22.67C34.9398 22.72 34.8798 22.78 34.8398 22.83C34.7998 22.88 34.6498 22.87 34.6298 22.85C34.5798 22.81 34.5098 22.85 34.4498 22.86C34.4298 22.86 34.3998 22.86 34.3798 22.86C34.3398 22.86 33.9498 22.31 33.9498 22.25C33.9298 22.24 33.7498 21.4 33.7298 21.3C33.7098 21.25 33.7298 21.2 33.7498 21.15C33.7498 21.12 33.6098 20.46 33.6098 20.43C33.6098 20.29 33.5598 20.15 33.6398 20C33.6598 19.97 33.6398 19.94 33.6398 19.91C33.5998 19.67 33.6198 19.43 33.6098 19.18C33.6098 19.06 33.5998 18.93 33.5898 18.81C33.5898 18.79 33.5998 18.76 33.6098 18.74C33.6098 18.71 33.6298 18.68 33.6198 18.65C33.5998 18.36 33.6198 18.06 33.5698 17.77C33.5698 17.7 33.6198 17.37 33.5998 17.29C33.5798 17.25 33.6898 17.09 33.6898 17.05V17.08Z" fill="#231F20"/>
<path d="M37.5999 19.16C37.7099 19.14 37.8199 19.23 37.9199 19.3C37.9499 19.32 37.9599 19.4 37.9299 19.42C37.8699 19.47 37.8199 19.52 37.7699 19.58C37.7499 19.67 37.1499 19.9 36.9499 19.98C36.7599 20.07 36.5599 20.12 36.3599 20.17C35.9499 20.26 35.5499 20.4 35.1399 20.46C35.0499 20.48 34.9599 20.48 34.8599 20.47C34.5399 20.44 34.2199 20.48 33.9099 20.55C33.8599 20.56 33.7999 20.56 33.7599 20.61C33.6799 20.69 32.8299 20.81 32.7199 20.79C32.4399 20.74 32.1599 20.74 31.8799 20.67C31.8399 20.67 31.7999 20.68 31.7599 20.63C31.6699 20.52 31.5799 20.54 31.4999 20.54C31.3799 20.54 31.2599 20.52 31.1399 20.49C31.0799 20.47 31.0199 20.41 30.9599 20.37C30.8999 20.33 30.9199 20.18 30.9399 20.16C30.9899 20.11 30.9399 20.04 30.9299 19.98C30.9299 19.96 30.9299 19.93 30.9299 19.91C30.9299 19.87 31.5699 19.47 31.6499 19.47C31.6699 19.45 32.6399 19.26 32.7499 19.24C32.8099 19.22 32.8699 19.24 32.9299 19.26C32.9599 19.26 33.7299 19.11 33.7599 19.11C33.9199 19.11 34.0799 19.05 34.2499 19.14C34.2799 19.16 34.3199 19.14 34.3499 19.14C34.6299 19.1 34.9099 19.11 35.1899 19.11C35.3299 19.11 35.4799 19.1 35.6199 19.09C35.6499 19.09 35.6699 19.1 35.6999 19.11C35.7299 19.11 35.7699 19.13 35.7999 19.12C36.1399 19.09 36.4799 19.12 36.8099 19.06C36.8899 19.05 37.2699 19.1 37.3599 19.08C37.4099 19.06 37.5899 19.17 37.6399 19.17L37.5999 19.16Z" fill="#231F20"/>
<path d="M35.8098 17.29C35.8698 17.21 35.9998 17.21 36.1198 17.2C36.1598 17.2 36.2098 17.24 36.2098 17.28C36.2098 17.34 36.2098 17.42 36.2098 17.49C36.2598 17.56 36.0298 18.07 35.9598 18.25C35.8998 18.42 35.8098 18.58 35.7198 18.74C35.5298 19.05 35.3698 19.39 35.1498 19.69C35.0998 19.76 35.0498 19.82 34.9798 19.87C34.7598 20.05 34.5898 20.27 34.4498 20.51C34.4298 20.55 34.3898 20.58 34.3998 20.65C34.3998 20.75 33.9698 21.37 33.8898 21.43C33.6798 21.58 33.5098 21.75 33.2898 21.88C33.2598 21.9 33.2498 21.94 33.1898 21.93C33.0498 21.91 33.0198 21.98 32.9698 22.03C32.8998 22.1 32.8098 22.17 32.7098 22.22C32.6598 22.25 32.5798 22.24 32.5098 22.25C32.4498 22.25 32.3498 22.14 32.3498 22.12C32.3498 22.05 32.2598 22.04 32.2098 22C32.1898 21.99 32.1698 21.97 32.1598 21.96C32.1298 21.93 32.2298 21.25 32.2798 21.2C32.2798 21.17 32.7198 20.43 32.7798 20.35C32.7998 20.3 32.8598 20.28 32.8998 20.25C32.9198 20.21 33.2898 19.65 33.2998 19.63C33.3998 19.53 33.4598 19.39 33.6198 19.34C33.6498 19.34 33.6698 19.3 33.6798 19.28C33.8198 19.08 34.0098 18.92 34.1798 18.74C34.2698 18.65 34.3498 18.56 34.4398 18.46C34.4598 18.44 34.4798 18.43 34.4998 18.42C34.5298 18.4 34.5498 18.39 34.5698 18.37C34.7698 18.15 34.9998 17.95 35.1798 17.71C35.2198 17.66 35.5098 17.46 35.5498 17.4C35.5698 17.36 35.7698 17.32 35.7998 17.3L35.8098 17.29Z" fill="#231F20"/>
<path d="M36.6002 21.25C36.6802 21.31 36.6802 21.45 36.6902 21.56C36.6902 21.6 36.6502 21.65 36.6102 21.65C36.5502 21.65 36.4702 21.65 36.4002 21.65C36.3302 21.69 35.8202 21.47 35.6402 21.39C35.4702 21.32 35.3102 21.24 35.1502 21.14C34.8402 20.94 34.5102 20.78 34.2102 20.56C34.1402 20.51 34.0802 20.46 34.0302 20.39C33.8502 20.17 33.6302 20 33.3902 19.85C33.3502 19.83 33.3202 19.79 33.2502 19.8C33.1502 19.8 32.5402 19.36 32.4802 19.28C32.3402 19.07 32.1702 18.89 32.0302 18.68C32.0102 18.65 31.9702 18.64 31.9802 18.58C32.0002 18.44 31.9302 18.41 31.8802 18.36C31.8102 18.28 31.7402 18.2 31.6902 18.1C31.6602 18.05 31.6702 17.97 31.6602 17.9C31.6602 17.84 31.7702 17.74 31.7902 17.74C31.8602 17.74 31.8802 17.65 31.9102 17.6C31.9202 17.58 31.9402 17.56 31.9502 17.55C31.9802 17.52 32.6602 17.63 32.7102 17.67C32.7402 17.67 33.4702 18.12 33.5502 18.18C33.6002 18.2 33.6202 18.26 33.6502 18.3C33.6902 18.32 34.2502 18.7 34.2702 18.71C34.3702 18.81 34.5102 18.87 34.5502 19.04C34.5502 19.07 34.5902 19.09 34.6102 19.1C34.8102 19.24 34.9702 19.43 35.1402 19.61C35.2302 19.7 35.3202 19.78 35.4102 19.87C35.4302 19.89 35.4302 19.91 35.4502 19.93C35.4702 19.96 35.4802 19.98 35.5002 20C35.7202 20.2 35.9102 20.44 36.1502 20.62C36.2002 20.66 36.3902 20.95 36.4602 21C36.5002 21.02 36.5302 21.22 36.5602 21.25H36.6002Z" fill="#231F20"/>
</svg>
