<svg width="128" height="128" viewBox="0 0 128 128" fill="none" xmlns="http://www.w3.org/2000/svg">
<path d="M54.04 22.1C54.39 22.5 54.54 23.57 54.78 24.07C55.61 25.85 56.7 27.54 58.04 28.97C70.63 42.5 91.93 43.63 92.75 44.39C94.18 45.72 88.49 56 88.61 57.1C88.73 58.2 96.98 42.33 96.98 42.33C96.98 42.33 74.11 39.38 65.96 33C58.4 27.08 54.05 22.11 54.04 22.11V22.1Z" fill="#231F20"/>
<path d="M67.0502 94.83C67.0502 94.83 62.0602 103.02 56.0402 105.18C48.7902 107.79 34.6802 101.37 34.6802 101.37C34.6802 101.37 40.7302 108.5 54.0502 108.55C61.6902 108.58 63.0102 101.69 63.0102 101.69L67.0602 94.83H67.0502Z" fill="#231F20"/>
<path d="M83.7798 26.73C83.9198 26.52 86.3798 23.89 85.9698 22.03C85.5598 20.17 79.0598 16.48 77.0098 17.54C74.9598 18.6 73.7098 19.1 74.8598 22.35C76.0098 25.6 83.7898 26.73 83.7898 26.73H83.7798Z" fill="#231F20"/>
<path d="M57.5499 49.72C57.4899 49.78 57.9699 50.93 55.2499 54.53C53.3599 57.04 51.0099 60.81 49.1099 63.2C49.1099 63.2 59.3299 69.34 59.0699 70.42C58.3899 73.17 50.2099 82.9 50.0699 83.12C49.9299 83.34 46.5099 84.99 46.5099 84.99L54.8699 71.05L44.6299 63.92C44.6299 63.92 57.5399 49.74 57.5499 49.73V49.72Z" fill="#231F20"/>
<path d="M73.2201 17.42C75.9901 18.34 78.7101 19.45 81.2901 20.8C82.2301 21.3 83.2001 21.74 84.1101 22.3C87.3101 24.26 90.2801 26.61 92.8501 29.33C93.9801 30.55 95.0801 31.81 96.0201 33.19C97.2301 34.92 98.3601 36.85 98.5001 39.04C98.5101 39.72 98.4301 39.64 97.9401 39.24C97.7101 39.03 97.2801 38.78 96.9801 38.43C96.6201 38.09 96.2401 37.7 95.9401 37.23C95.6301 36.83 95.3601 36.42 95.1101 36L94.2601 34.79L93.3401 33.63L92.3601 32.51C91.0701 31 89.6401 29.58 88.1101 28.21C86.2801 26.56 84.0201 25.31 81.7901 24.13C79.3401 22.83 76.7801 21.69 74.1501 20.75C72.5301 20.16 70.8801 19.66 69.2001 19.26C66.6601 18.65 64.0701 18.18 61.4801 18.07C59.4701 17.98 57.5001 18.24 55.5701 18.51C55.1501 18.58 54.7301 18.65 54.3001 18.72C52.7201 18.97 52.1801 18.81 51.6901 18.25C51.5801 18.12 51.4401 18 51.3601 17.87C51.0901 17.45 51.6501 16.85 52.8601 16.32C56.5001 14.97 60.6301 15 64.5701 15.46C67.5201 15.81 70.4101 16.52 73.2401 17.38L73.2201 17.45V17.42Z" fill="#231F20"/>
<path d="M37.0099 102.51C39.7499 103.88 42.6499 104.95 45.6199 105.71C48.5799 106.46 51.6599 106.97 54.6299 106.94C54.9999 106.93 55.3799 106.94 55.7199 106.9L56.2499 106.85C56.3899 106.83 56.6899 106.82 56.6599 106.8C56.7399 106.79 56.9799 106.69 57.2299 106.52C57.4699 106.37 57.7399 106.15 57.9999 105.93C59.0599 105 60.0699 103.82 61.0299 102.62C62.9599 100.19 64.7499 97.58 66.4799 94.94C69.0099 91.07 71.3399 87.07 73.6899 83.08C77.8399 76.03 81.8199 68.88 85.7199 61.68C87.6699 58.08 89.5899 54.46 91.4999 50.84L94.3399 45.39L95.3599 43.43L95.5299 43.11C95.5899 43.04 95.4699 43.02 95.4299 43.01L95.2599 42.99L94.5499 42.93L93.3699 42.83L91.9899 42.69C91.0699 42.59 90.1499 42.46 89.2399 42.31C87.4099 42 85.6199 41.61 83.8299 41.18C80.2499 40.31 76.7399 39.18 73.3699 37.76C69.0499 35.91 64.8699 33.61 61.1799 30.64C60.2799 29.87 59.3899 29.09 58.5299 28.28C57.7199 27.42 56.8499 26.61 56.0999 25.7C54.5599 23.91 53.1599 22 52.0999 19.9C50.7499 17.3 51.0199 17.63 52.5699 19.54C54.1799 21.41 57.1899 24.7 61.2499 27.93C68.3799 33.77 77.1799 37.29 86.2499 39.21C88.5399 39.71 90.7799 40.11 93.0799 40.32L93.9399 40.4L95.0499 40.48C96.1599 40.55 97.4599 40.59 97.9399 41.1C98.0799 41.21 98.1799 41.32 98.2799 41.47C98.3499 41.56 98.3699 41.65 98.3599 41.74V42.01L98.3799 42.55C98.3799 42.73 98.4299 42.89 98.2499 43.17L96.9699 45.71C94.7799 49.94 92.5599 54.16 90.2799 58.36C84.8299 68.41 79.3199 78.97 73.3299 89.05C71.6799 91.82 69.9799 94.57 68.2099 97.27C66.4299 99.97 64.5999 102.65 62.4999 105.2C61.4199 106.46 60.3599 107.72 58.8199 108.8C58.4399 109.07 57.9799 109.32 57.3999 109.49C57.0499 109.58 56.8599 109.59 56.6499 109.61L55.9999 109.67C55.1399 109.74 54.2999 109.74 53.4599 109.72C50.1199 109.59 46.8699 109 43.7099 108.11C35.9399 105.92 28.6199 101.77 23.1799 95.72C22.6299 95.18 22.1799 94.56 21.6999 93.96L20.9799 93.06L20.5899 92.57C20.4999 92.47 20.4499 92.34 20.3899 92.22C20.3199 92.1 20.2799 91.97 20.2499 91.84C20.1599 91.6 20.1499 91.26 20.1299 91.04C20.1299 90.82 20.1299 90.6 20.1399 90.39C20.1699 89.97 20.2199 89.58 20.2699 89.19C20.3899 88.41 20.5599 87.66 20.7299 86.91C21.4499 83.94 22.3899 81.07 23.3499 78.22C25.2899 72.53 27.4399 66.93 29.6099 61.39C33.0199 52.78 36.3499 44.34 40.0999 35.98C40.9299 34.14 41.7399 32.34 42.6299 30.5C44.2799 27.1 45.4999 24.91 46.5099 23.45C47.5099 21.99 48.2399 21.23 48.9699 20.73C49.2999 20.5 49.7099 20.19 49.9599 20.12C50.3699 20 50.1699 20.56 49.6199 21.78C49.0599 23.03 48.1899 24.95 47.0699 27.42C45.3499 31.09 43.7099 34.87 42.0799 38.7C40.4599 42.54 38.8199 46.42 37.1799 50.32C33.9399 58.15 30.7299 66.14 27.8099 74.21C26.7299 77.21 25.6799 80.22 24.7499 83.24C24.2899 84.75 23.8499 86.26 23.4999 87.76C23.3299 88.5 23.1799 89.25 23.0899 89.93C23.0399 90.27 23.0199 90.6 23.0199 90.85C23.0199 91.03 23.0199 90.92 23.0199 90.95C23.0199 90.95 23.0199 90.95 23.0199 90.97L24.3699 92.67C24.8199 93.29 25.3799 93.81 25.8999 94.37C26.9099 95.52 28.0999 96.49 29.2399 97.51C31.6199 99.44 34.2499 101.08 37.0099 102.44L36.9899 102.51H37.0099Z" fill="#231F20"/>
<path d="M78.38 29.25C77.6 28.98 76.84 28.62 76.1 28.25C75.83 28.11 75.54 28 75.28 27.84C74.39 27.22 73.58 26.47 72.89 25.63C72.74 25.44 72.59 25.25 72.43 25.08L72 24.5C71.7 23.97 71.33 23.42 71.47 22.74C71.49 22.54 71.64 22.52 71.92 22.58C72.11 22.62 72.29 22.67 72.44 22.7C72.65 22.74 72.82 22.81 72.9 22.92C73.26 23.3 73.59 23.63 73.85 24.05C74.15 24.44 74.47 24.82 74.81 25.23C75.23 25.72 75.85 25.99 76.43 26.31C77.05 26.69 77.73 27 78.42 27.29C78.86 27.44 79.29 27.63 79.74 27.74C80.42 27.93 81.11 28.15 81.81 28.23C82.36 28.31 82.91 28.23 83.45 28.26C83.57 28.27 83.69 28.26 83.81 28.28C84.25 28.35 84.39 28.47 84.49 28.77C84.51 28.84 84.54 28.91 84.55 28.97C84.59 29.19 84.4 29.38 84.05 29.51C83.79 29.6 83.53 29.7 83.26 29.77C82.99 29.81 82.72 29.83 82.45 29.85C81.91 29.88 81.35 29.86 80.8 29.81C79.97 29.75 79.16 29.55 78.37 29.29V29.24L78.38 29.25Z" fill="#231F20"/>
<path d="M68.1998 69.96C68.2898 69.93 68.5098 69.84 68.3498 69.77C68.3198 69.74 68.2898 69.71 68.2498 69.68L68.1898 69.63L67.8298 69.4C67.2298 69.05 66.6498 68.65 66.0298 68.34C64.7898 67.69 63.5498 67.06 62.3498 66.32L60.7198 65.4L59.5798 64.75C59.1298 64.5 58.6798 64.21 58.2398 63.92C58.0298 63.78 57.9398 63.61 57.8198 63.45L57.6398 63.21C57.5998 63.13 57.5898 63.05 57.5598 62.97L57.5398 62.91V62.88H57.5298C57.2198 62.93 57.9498 62.8 57.8798 62.81V62.79C57.8798 62.79 57.8798 62.71 57.8798 62.67V62.43L57.8998 61.89C57.9698 61.69 58.0298 61.48 58.1898 61.29C58.5298 60.89 58.8898 60.5 59.2498 60.12L59.9998 59.34L62.5698 56.7L67.6698 51.42L67.9698 51.11L68.1398 50.91L68.4198 50.59L68.6098 50.36L68.6998 50.25C68.6998 50.25 68.7798 50.17 68.7198 50.14C68.5598 50.03 68.3698 49.97 68.1898 49.9L67.5998 49.67L66.4898 49.2C65.1898 48.65 63.8898 48.07 62.6598 47.36C61.4198 46.65 60.2098 45.87 59.2298 44.78C58.7198 43.98 58.9198 43.96 59.8198 43.97C60.2798 43.96 60.8398 44.05 61.4998 44.15C62.1398 44.28 62.8098 44.52 63.4898 44.86C64.8398 45.54 66.2198 46.16 67.6198 46.78L68.6798 47.24C69.2698 47.49 70.1198 47.82 70.7498 48.14C71.3998 48.5 71.7798 48.93 71.8098 49.41L71.7898 49.52V49.58H71.7798C72.0098 49.54 71.8398 49.57 71.8898 49.56V49.57V49.59L71.8998 49.76C71.8998 49.88 71.9398 49.97 71.8898 50.12C71.7798 50.4 71.7498 50.67 71.4998 50.97C71.1398 51.44 70.7398 51.91 70.3498 52.37L69.5798 53.27L68.3198 54.71C67.4598 55.65 66.5398 56.53 65.6298 57.42C64.5298 58.48 63.4598 59.61 62.4098 60.75L61.3298 61.94L61.0898 62.23C61.0198 62.29 61.1498 62.31 61.1798 62.35L61.3398 62.45L61.6898 62.67L63.8798 63.95C64.6698 64.4 65.4598 64.87 66.2198 65.38C66.9898 65.87 67.7598 66.38 68.5598 66.83L69.8998 67.62C70.4998 67.99 71.1398 68.35 71.6498 68.75L71.9098 68.99L72.0798 69.23C72.1798 69.36 72.2698 69.49 72.2998 69.61L72.3398 69.71C72.3898 69.71 71.9398 69.73 72.1298 69.71V69.73V69.76L72.1098 69.81L72.0398 70C71.9298 70.24 71.9398 70.55 71.5698 70.82C71.2498 71.09 70.8698 71.35 70.5098 71.61L69.4798 72.31L67.9998 73.3C67.5298 73.67 67.0498 74.02 66.5598 74.34C63.5798 76.35 60.4898 78.19 57.5298 80.18C55.2198 81.7 53.0598 83.36 50.7898 84.89C50.2898 85.23 49.8198 85.58 49.2998 85.91C48.3498 86.53 47.6898 86.87 47.1598 87C46.8998 87.07 46.6798 87.11 46.4698 87.1C46.2598 87.08 46.0598 87.02 45.8798 86.96C45.7098 86.9 45.5298 86.87 45.4198 86.81C45.0798 86.67 45.5198 85.64 46.7798 84.57C50.5698 81.45 54.7998 78.53 59.0698 75.64C60.6598 74.57 62.2598 73.5 63.8498 72.43L65.0898 71.7L65.7098 71.33C65.9398 71.24 66.1598 71.14 66.3798 71.04L67.5798 70.25L68.0498 69.94C68.1098 69.9 68.0898 69.92 68.1098 69.91L68.1698 69.95L68.1998 69.96Z" fill="#231F20"/>
<path d="M47.1001 63.09C47.1001 63.09 47.0501 63.17 47.1401 63.15C47.1101 63.27 47.0201 63.16 47.6601 63.63L49.1201 64.65C50.1101 65.33 51.1201 66 52.1301 66.67C52.9701 67.22 53.8501 67.69 54.6801 68.26L55.5401 68.84C55.9601 69.09 56.2801 69.42 56.5701 69.72C56.7301 69.86 56.8501 70.01 56.9501 70.17C57.0001 70.25 57.0401 70.33 57.0701 70.41C57.1001 70.45 57.0701 70.5 57.1101 70.55L57.0701 70.68L56.7201 71.73L55.3001 73.67L54.2701 75.12C53.5901 76.09 52.9401 77.09 52.2901 78.1C51.4301 79.4 50.6401 80.76 49.8401 82.1C48.8001 83.8 47.8301 85.65 46.0701 86.84C45.3901 87.1 45.5301 87.1 45.5201 86.43C45.5001 86.08 45.5601 85.66 45.5801 85.13C45.6501 84.63 45.8201 84.12 46.0701 83.62C48.1201 80.26 50.0501 76.67 52.6501 73.38C53.1301 72.74 53.6101 72.1 54.1001 71.45L54.2101 71.3C54.2101 71.3 54.3301 71.19 54.2501 71.16C54.1601 71.09 54.0501 71.02 53.9501 70.96L52.3301 70.01L48.7801 67.87L47.0101 66.76L46.1301 66.18L45.1101 65.48C44.7401 65.21 44.5201 64.86 44.1801 64.61C44.0501 64.42 43.8901 64.25 43.8001 64.05C43.6801 63.85 43.7501 63.61 43.8001 63.42C43.9101 63.01 44.2001 62.58 44.5701 62.18L45.5401 61.11L46.2701 60.34C48.0601 58.47 49.9101 56.68 51.6201 54.79C52.9501 53.33 54.1301 51.79 55.3201 50.25C55.5801 49.91 55.8301 49.57 56.0801 49.23C57.1001 48.02 57.6201 47.79 58.2501 47.84C58.4001 47.85 58.5501 47.84 58.6801 47.87C59.0801 47.97 59.0001 48.74 58.4501 49.85C56.6101 52.97 54.0701 55.72 51.5601 58.46C50.6201 59.46 49.6701 60.46 48.7201 61.46L47.3401 62.95L47.2601 63.04H47.2501H47.2301C47.2301 63.04 47.2001 63.08 47.1801 63.1H47.0901L47.1001 63.09Z" fill="#231F20"/>
<path d="M38.1798 111.38C37.1998 110.97 36.1998 110.59 35.2498 110.12C34.2798 109.68 33.3198 109.22 32.3898 108.71C31.6998 108.35 30.9798 108.07 30.3198 107.65C27.9598 106.27 25.7398 104.62 23.7498 102.74C23.3198 102.31 22.8398 101.94 22.4098 101.5C21.9798 101.07 21.5498 100.64 21.1198 100.22C20.5698 99.67 20.1398 99.01 19.6698 98.39C19.4198 98.09 19.2698 97.72 19.1198 97.35C18.9798 96.99 18.8398 96.62 18.6898 96.25C18.5298 95.79 18.6998 95.78 19.1498 95.97C19.3798 96.06 19.6798 96.2 20.0298 96.37C20.1998 96.45 20.3798 96.54 20.5598 96.65C20.6498 96.7 20.7298 96.76 20.8298 96.81C20.8998 96.88 20.9698 96.95 21.0498 97.02C22.1598 98 23.1998 98.96 24.2398 99.99C24.7998 100.46 25.3498 100.94 25.8998 101.43C26.4598 101.91 27.0598 102.34 27.6098 102.87C28.2798 103.47 29.0698 103.95 29.8398 104.45C30.6498 104.9 31.4598 105.35 32.2698 105.8C33.1798 106.26 34.0698 106.75 34.9998 107.18C35.9398 107.59 36.8498 108.06 37.8098 108.42L39.5698 109.12L41.3598 109.73C43.1698 110.34 45.0298 110.86 46.8998 111.2C48.3598 111.42 49.8098 111.49 51.2498 111.57C51.5698 111.58 51.8798 111.6 52.1998 111.61C52.7898 111.62 53.1798 111.7 53.4498 111.86C53.7198 112.01 53.8798 112.18 54.0098 112.43C54.0698 112.54 54.1498 112.65 54.1798 112.76C54.2998 113.1 53.7998 113.42 52.8698 113.67L51.8298 113.81L50.7798 113.87C50.0798 113.9 49.3498 113.95 48.6398 113.89C47.9298 113.82 47.2098 113.76 46.4998 113.66C45.7898 113.53 45.0798 113.4 44.3698 113.27C42.2698 112.81 40.1898 112.23 38.1798 111.46L38.1998 111.4L38.1798 111.38Z" fill="#231F20"/>
<path d="M83.76 23.51C84.23 22.96 84.64 22.31 84.97 21.63C85.14 21.29 85.27 20.93 85.39 20.56C85.46 20.38 85.49 20.19 85.54 20L85.63 19.64V19.61C85.66 19.53 85.61 19.45 85.55 19.4L85.28 19.15C84.53 18.47 83.61 17.79 82.64 17.3C81.68 16.81 80.62 16.38 79.73 16.33C79.54 16.33 79.36 16.33 79.23 16.37C79.16 16.38 79.12 16.41 79.04 16.45L78.73 16.62C78.32 16.86 77.94 17.14 77.59 17.44C76.68 18.26 76.15 19.24 75 20.09C74.66 20.37 74.56 20.29 74.39 19.81C74.3 19.57 74.18 19.23 74.07 18.79C74 18.37 74.04 17.92 74.21 17.5C74.3 17.32 74.37 17.12 74.47 16.95C74.59 16.78 74.71 16.62 74.83 16.46C75.08 16.14 75.36 15.84 75.65 15.56C76.24 15 76.89 14.5 77.59 14.11C77.72 14.04 78.12 13.84 78.41 13.77C78.72 13.68 79.01 13.65 79.28 13.63C79.82 13.6 80.28 13.67 80.7 13.76C81.55 13.95 82.27 14.25 82.94 14.61C83.74 15.03 84.53 15.45 85.34 15.87C85.74 16.08 86.14 16.31 86.53 16.56C86.73 16.69 86.92 16.82 87.12 16.97C87.32 17.12 87.65 17.39 87.87 17.63C88.33 18.08 88.62 18.68 88.57 19.31C88.55 19.58 88.54 19.9 88.52 20.13L88.43 20.74C88.35 21.14 88.27 21.55 88.15 21.94C87.92 22.73 87.61 23.49 87.22 24.21C86.73 25.05 86.34 25.73 85.34 26.71C85 26.96 84.58 27.11 84.16 27.19C83.85 27.22 83.51 27.24 83.23 27.24C82.97 27.22 82.71 27.21 82.48 27.16C81.99 27.08 81.54 26.95 81.08 26.83C80.18 26.55 79.33 26.18 78.49 25.78C77.21 25.14 75.91 24.44 74.83 23.35C74.61 23.1 74.32 22.9 74.17 22.59C74.01 22.31 73.9 22.07 73.82 21.87C73.74 21.66 73.77 21.45 73.78 21.29C73.82 20.95 73.97 20.72 74.23 20.48C74.35 20.37 74.45 20.26 74.57 20.18C74.96 19.93 75.56 20.16 76.17 20.55C77.03 21.16 77.74 21.74 78.61 22.21C79.46 22.69 80.39 23.1 81.35 23.38C81.89 23.52 82.44 23.66 82.93 23.71C83.06 23.73 83.15 23.73 83.27 23.75C83.39 23.77 83.33 23.77 83.36 23.78C83.37 23.8 83.38 23.79 83.4 23.8C83.4 23.8 83.42 23.8 83.43 23.8C83.43 23.8 83.43 23.8 83.45 23.79L83.53 23.69C83.58 23.63 83.64 23.56 83.69 23.49L83.76 23.53V23.51Z" fill="#231F20"/>
<path d="M117.18 21.45C117.2 24.1 113.4 24.79 112.16 22.59C110.12 18.98 117.08 17.12 117.18 21.4C117.18 21.41 117.18 21.43 117.18 21.45Z" fill="#231F20"/>
<path d="M25.4699 22.55C25.4899 25.2 21.6899 25.89 20.4499 23.69C18.4099 20.08 25.3699 18.22 25.4699 22.5C25.4699 22.51 25.4699 22.53 25.4699 22.55Z" fill="#231F20"/>
<path d="M12.1501 60.81C12.1701 63.46 8.37011 64.15 7.13011 61.95C5.09011 58.34 12.0501 56.48 12.1501 60.76C12.1501 60.77 12.1501 60.79 12.1501 60.81Z" fill="#231F20"/>
<path d="M121.25 37.7C121.26 39.36 118.88 39.79 118.1 38.42C116.82 36.16 121.19 34.99 121.25 37.67C121.25 37.67 121.25 37.69 121.25 37.7Z" fill="#231F20"/>
<path d="M105.58 80.91C105.59 82.57 103.21 83 102.43 81.63C101.15 79.37 105.52 78.2 105.58 80.88C105.58 80.88 105.58 80.9 105.58 80.91Z" fill="#231F20"/>
<path d="M32.9799 32.77C32.9899 34.43 30.6099 34.86 29.8299 33.49C28.5499 31.23 32.9199 30.06 32.9799 32.74C32.9799 32.74 32.9799 32.76 32.9799 32.77Z" fill="#231F20"/>
</svg>
