<svg width="128" height="128" viewBox="0 0 128 128" fill="none" xmlns="http://www.w3.org/2000/svg">
<path d="M17.3599 60.09C17.8799 58.58 18.7199 57.19 19.6499 55.9C19.9899 55.43 20.3699 54.98 20.7499 54.55C22.1799 53.09 23.8799 51.92 25.7099 51.09C26.5199 50.71 27.3499 50.38 28.1799 50.08C28.7299 49.93 29.2599 49.7 29.8399 49.62C30.1199 49.57 30.4099 49.52 30.6999 49.5C30.9899 49.5 31.2899 49.56 31.5799 49.66C31.9399 49.93 31.8799 49.93 31.5999 50.34C31.4599 50.55 31.2799 50.75 31.0699 50.98C30.8599 51.16 30.6199 51.3 30.3399 51.36C28.3399 51.76 26.4199 52.56 24.5499 53.58C24.0199 53.92 23.4499 54.25 22.9999 54.73L22.2899 55.41L21.6499 56.15C20.6799 57.21 19.9499 58.47 19.3099 59.77C19.1299 60.18 18.9999 60.61 18.8399 61.03C18.6799 61.45 18.5299 61.87 18.4499 62.32C18.3299 62.99 18.0999 63.65 18.0599 64.34C17.9999 65.02 17.9199 65.71 17.9199 66.39C17.9999 67.46 18.0899 68.49 18.2999 69.53C18.3399 69.76 18.3899 69.98 18.4199 70.21C18.5399 71.06 18.4299 71.36 18.1099 71.62C18.0299 71.68 17.9599 71.75 17.8899 71.79C17.6399 71.93 17.3499 71.61 17.1099 70.98C16.8199 70.03 16.4299 69.05 16.3999 68C16.3599 67.48 16.3199 66.95 16.2799 66.42C16.2599 65.89 16.3199 65.35 16.3499 64.82L16.4399 63.63L16.6799 62.44C16.7599 62.05 16.8399 61.65 16.9399 61.26L17.3299 60.11H17.3699L17.3599 60.09Z" fill="#231F20"/>
<path d="M94.8198 12.72C94.8198 12.72 94.8498 9.1 97.1698 9.1C99.4898 9.1 98.1298 13.75 94.8198 12.72Z" fill="#231F20"/>
<path d="M32.6602 64.08C33.2102 64 35.5402 61.35 34.3702 60.17C33.2002 58.99 30.5102 61.54 29.7702 61.76C29.0302 61.98 28.2602 62.63 29.9902 63.74C31.7202 64.85 32.6702 64.07 32.6702 64.07L32.6602 64.08Z" fill="#231F20"/>
<path d="M82.4302 44.32C82.4302 44.32 82.7702 42.18 84.9102 42.4C87.0502 42.62 84.3902 44.79 84.3902 44.79L82.4302 44.32Z" fill="#231F20"/>
<path d="M47.6599 85.98C48.1199 87.45 48.5499 88.92 48.9499 90.4C49.0999 90.94 49.3199 91.45 49.4499 92C49.9199 93.92 50.2399 95.87 50.4899 97.82C50.5999 98.68 50.8099 99.54 50.8999 100.4C50.9499 100.95 51.0499 101.5 51.0299 102.07C51.0199 102.63 50.9399 103.2 50.8599 103.76C50.7999 104.11 50.6199 104.07 50.3199 103.81C50.0399 103.55 49.5299 103.07 49.2599 102.49C48.2999 100.44 48.0299 98.33 47.6999 96.14C47.5599 94.82 47.0399 93.54 46.6699 92.24C46.2399 90.82 45.8199 89.39 45.3299 87.98C45.0399 87.11 44.7299 86.24 44.3899 85.38C43.8699 84.09 43.3699 82.77 42.7599 81.53C42.2799 80.56 41.6099 79.72 41.0699 78.8C40.9499 78.6 40.8199 78.41 40.7099 78.2C40.3499 77.4 40.4699 77.02 40.8799 76.58C40.9799 76.48 41.0699 76.37 41.1699 76.28C41.4999 76 42.0199 76.13 42.5799 76.57C44.1699 77.93 45.0999 79.78 46.0299 81.63C46.6899 83.02 47.1899 84.49 47.7299 85.94L47.6599 85.97V85.98Z" fill="#231F20"/>
<path d="M63.49 90.97C63.64 90.33 63.84 89.71 64.05 89.09C64.12 88.86 64.1299 88.62 64.2099 88.4C64.5099 87.61 64.8199 86.82 65.1399 86.04C65.2799 85.69 65.36 85.33 65.44 84.98C65.51 84.51 65.78 84.09 66.12 83.7C66.24 83.58 66.44 83.65 66.68 83.84C66.91 84.03 67.27 84.35 67.36 84.64L67.4599 85.03L67.51 85.22L67.48 85.39C67.44 85.62 67.4099 85.85 67.3499 86.08C67.2499 86.54 67.0999 86.98 66.8499 87.41C66.5599 87.93 66.5599 88.53 66.4199 89.09C66.2599 89.71 66.11 90.33 65.91 90.94C65.8 91.32 65.6799 91.7 65.5899 92.08C65.4499 92.66 65.3 93.24 65.22 93.83C65.16 94.29 65.22 94.75 65.22 95.2C65.22 95.3 65.2399 95.4 65.2099 95.5C65.0999 95.86 64.9399 95.97 64.5199 96C64.4199 96 64.3299 96.02 64.2399 96.03C63.9399 96.03 63.6799 95.86 63.5299 95.56C63.2599 95.12 63.23 94.68 63.15 94.24C63.1 93.8 63.0799 93.35 63.0999 92.91C63.1599 92.26 63.29 91.61 63.4 90.96H63.4599L63.49 90.97Z" fill="#231F20"/>
<path d="M62.3899 91.77C62.2899 91.13 62.1799 90.49 62.0299 89.86C61.9799 89.63 61.8699 89.42 61.8099 89.19C61.6299 88.37 61.3899 87.56 61.1499 86.75C61.0499 86.38 60.8999 86.04 60.7399 85.71C60.5199 85.29 60.4099 84.81 60.3199 84.31C60.2999 84.15 60.3999 84.11 60.6099 84.14C60.8099 84.17 61.1699 84.24 61.4199 84.43C61.8799 84.75 62.1599 85.18 62.4199 85.62C62.5499 85.84 62.6699 86.07 62.7799 86.3C62.8699 86.54 62.9199 86.8 62.9799 87.05C63.0999 87.66 63.4199 88.21 63.6199 88.81C63.8299 89.46 64.0099 90.13 64.1699 90.79C64.2699 91.2 64.3599 91.61 64.4499 92.02C64.5799 92.64 64.6599 93.28 64.8099 93.89C64.9299 94.36 65.1499 94.81 65.2499 95.29C65.2799 95.39 65.3199 95.49 65.3299 95.6C65.3799 96 65.2699 96.14 64.8799 96.28C64.7899 96.31 64.6999 96.35 64.6099 96.37C64.3099 96.45 64.0199 96.33 63.8499 96.07C63.6099 95.69 63.3499 95.3 63.1899 94.9C63.0399 94.49 62.9199 94.08 62.8099 93.66C62.6499 93.04 62.4799 92.41 62.3599 91.78H62.4099L62.3899 91.77Z" fill="#231F20"/>
<path d="M65.35 92.17C65.29 93.3 65.23 94.43 65.2 95.56C65.19 95.97 65.26 96.38 65.24 96.79C65.15 98.25 64.98 99.71 64.92 101.17C64.88 101.82 64.94 102.46 64.96 103.11C64.97 103.93 65.07 104.76 64.71 105.6C64.45 105.87 64.45 105.83 64.08 105.63C63.88 105.53 63.7 105.39 63.5 105.21C63.33 105.03 63.07 104.83 63.04 104.59C62.54 102.94 62.54 101.26 62.69 99.55C62.8 98.53 62.58 97.48 62.59 96.44L62.64 93.01L62.68 90.9C62.68 89.83 62.74 88.76 62.68 87.71C62.62 86.89 62.42 86.08 62.35 85.27C62.33 85.09 62.28 84.92 62.3 84.73C62.33 84.39 62.37 84.17 62.53 84.02C62.74 83.86 62.96 83.78 63.22 83.7C63.34 83.67 63.45 83.62 63.55 83.61C63.72 83.58 63.88 83.63 64.09 83.75C64.29 83.87 64.6 84.06 64.67 84.3C65.04 85.02 65.19 85.75 65.34 86.5C65.43 87.25 65.45 88 65.47 88.76C65.49 89.89 65.45 91.03 65.45 92.16H65.38L65.35 92.17Z" fill="#231F20"/>
<path d="M80.6501 87.65C80.1901 89.01 79.7901 90.4 79.4501 91.81C79.3201 92.32 79.2701 92.85 79.1501 93.37C78.7501 95.19 78.3301 97.02 78.0401 98.88C77.9001 99.7 77.8601 100.54 77.8101 101.36C77.7501 102.42 77.6101 103.48 77.2901 104.54C77.1901 104.87 77.1701 104.83 77.0401 104.54C76.9701 104.4 76.8601 104.2 76.7301 103.95C76.6501 103.8 76.5801 103.67 76.5201 103.55C76.4801 103.48 76.4601 103.41 76.4101 103.33L76.3601 103.1C76.2801 102.55 76.1701 101.99 76.1201 101.43C76.1201 100.88 76.1501 100.32 76.1801 99.77C76.2501 98.66 76.3801 97.55 76.6001 96.46C76.8601 95.15 76.9901 93.76 77.2401 92.42C77.5301 90.95 77.8901 89.48 78.2901 88.04C78.5501 87.15 78.8101 86.26 79.1101 85.39C79.5301 84.05 80.0701 82.75 80.5501 81.44C80.9401 80.43 81.2201 79.38 81.7101 78.4C81.8201 78.18 81.8801 77.96 82.0201 77.75C82.5101 76.99 82.8301 76.85 83.3301 76.95C83.4501 76.97 83.5701 76.99 83.6701 77.03C84.0201 77.16 84.1101 77.64 83.9701 78.26C83.7001 79.15 83.4801 80.07 83.1601 80.95C82.8101 81.83 82.4601 82.71 82.1101 83.59C81.6201 84.93 81.1101 86.28 80.7101 87.67H80.6601L80.6501 87.65Z" fill="#231F20"/>
<path d="M58.2098 119.79C50.5198 119.79 30.0798 115.22 29.5798 112.13C29.1498 109.53 39.2198 109.55 39.2198 109.55L39.5598 112.81L58.2098 119.79Z" fill="#231F20"/>
<path d="M18.8102 74.11C17.6202 72.96 16.6402 71.56 15.9702 70.03C15.3002 68.5 14.9602 66.87 14.8602 65.26C14.7902 64.1 14.8102 62.9 14.9902 61.73C15.8202 57.59 18.4202 54.09 21.6402 51.83C23.0602 50.81 24.5202 49.82 26.1302 49.16C27.1502 48.7 28.2102 48.33 29.3202 48.08C29.8802 47.98 30.4702 47.99 31.0402 47.99C31.6202 48.03 32.1902 48.2 32.7302 48.42C33.3902 48.71 33.2602 48.68 32.6802 48.87C32.5402 48.92 32.3602 48.99 32.1802 49.08C31.9902 49.18 31.7802 49.33 31.5702 49.49C31.1502 49.74 30.6802 50.05 30.1802 50.27C28.3202 50.84 26.5802 51.86 24.8902 52.88C23.2002 53.94 21.6902 55.24 20.3002 56.68C18.6602 58.44 17.7702 60.86 17.5702 63.24C17.2702 65.91 17.8702 68.68 19.4502 70.85C20.4002 72.2 21.7402 73.3 23.2102 74.17C25.4702 75.47 28.0802 76.28 30.7102 76.63C32.7602 76.89 34.8102 76.81 36.8102 76.58C37.2502 76.53 37.6802 76.44 38.1202 76.41C38.9402 76.34 39.4502 76.27 39.8502 76.34C40.2502 76.44 40.5102 76.58 40.7602 76.77C40.8702 76.86 41.0202 76.92 41.1002 77C41.2402 77.13 41.1702 77.32 40.9102 77.62C40.6402 77.9 40.1902 78.31 39.5302 78.49C37.6102 79.18 35.5802 79.3 33.5302 79.31C31.4802 79.29 29.4002 79.04 27.3402 78.54C24.3002 77.8 21.2302 76.46 18.7702 74.15L18.8102 74.1V74.11Z" fill="#231F20"/>
<path d="M73.5401 27.87C69.4001 26.43 64.8901 25.98 60.4901 26.63C59.6801 26.68 58.9001 26.96 58.1101 27.14C57.3201 27.34 56.5301 27.52 55.7701 27.8C50.3301 29.54 45.3001 32.85 41.1401 36.98C39.3001 38.83 37.7101 40.94 36.3501 43.14C35.9201 43.85 35.4901 44.56 35.1401 45.31L34.5801 46.42L34.0701 47.55C33.2901 49.02 32.8901 50.62 32.0101 52.09C31.3001 52.97 31.2701 52.85 30.9001 51.81C30.7301 51.29 30.4601 50.53 30.5001 49.69C30.5401 48.86 30.6401 47.86 31.0301 46.91C32.3801 43.49 34.3501 40.35 36.6601 37.53C38.9801 34.71 41.6901 32.21 44.7201 30.16C46.5601 28.97 48.4301 27.76 50.4501 26.77C51.4301 26.23 52.5001 25.83 53.5301 25.37C54.6001 25.01 55.6601 24.58 56.7601 24.37C61.5401 23.14 66.6101 23.06 71.4001 24.16C72.9001 24.41 74.3001 25.01 75.7301 25.46C76.4301 25.74 77.1001 26.08 77.7901 26.38L78.8101 26.85C79.1501 27.02 79.4601 27.23 79.7901 27.41C83.7601 29.64 87.1801 32.76 89.9601 36.28C92.1801 38.98 93.9501 41.95 95.3901 45.1C95.6501 45.82 95.9301 46.51 96.1701 47.24C96.6701 48.58 96.7001 49.55 96.7001 50.22C96.7001 50.89 96.5701 51.31 96.3801 51.66C96.3001 51.82 96.2301 52.01 96.1601 52.11C95.9601 52.42 95.1701 51.44 94.3201 49.64C93.1201 46.96 91.7701 44.33 90.2501 41.8C89.8501 41.18 89.4501 40.55 89.0601 39.92L87.7001 38.15L87.0201 37.26L86.2601 36.44C85.7501 35.9 85.2701 35.33 84.7301 34.81C81.5501 31.74 77.7201 29.31 73.5201 27.93L73.5401 27.86V27.87Z" fill="#231F20"/>
<path d="M102.92 72.32C104.8 71.06 106.36 69.2 107.25 67.02C107.39 66.62 107.54 66.22 107.65 65.81C107.72 65.4 107.8 64.98 107.9 64.57C108.39 61.65 107.62 58.46 105.79 55.83C105.04 54.62 104.03 53.56 102.95 52.63C102.27 52.01 101.48 51.53 100.77 50.93C100.01 50.39 99.2802 49.83 98.5602 49.15C98.1102 48.73 98.2102 48.69 98.7902 48.66C99.1802 48.63 99.6102 48.61 100.03 48.58C100.54 48.58 101.07 48.74 101.62 48.96C102.58 49.37 103.48 49.92 104.3 50.57C104.72 50.88 105.14 51.2 105.52 51.57C105.91 51.93 106.31 52.27 106.66 52.67C108.15 54.19 109.26 56.12 109.9 58.21C110.65 60.69 111.08 63.47 110.46 66.1C109.8 68.97 108.23 71.5 106.14 73.47C105.52 74.1 104.78 74.59 104.07 75.11C103.31 75.55 102.57 76.01 101.75 76.33C99.3302 77.39 96.7102 77.82 94.1502 77.88C92.1602 77.97 90.1802 77.88 88.2302 77.47C87.8002 77.4 87.3802 77.27 86.9702 77.11C85.4202 76.57 85.1002 75.95 85.0102 75.34C84.9902 75.19 84.9502 75.05 84.9502 74.93C84.9602 74.73 85.1502 74.61 85.4802 74.53C85.8102 74.45 86.3002 74.37 86.8402 74.47C90.1202 74.64 93.2702 75.09 96.4402 74.65C97.6102 74.53 98.7302 74.21 99.8302 73.86C100.89 73.43 101.96 72.96 102.86 72.26L102.91 72.32H102.92Z" fill="#231F20"/>
<path d="M55.6098 119.59C51.1198 118.93 46.7298 117.67 42.5698 115.82C41.8098 115.48 41.0598 115.12 40.2998 114.73L39.6998 114.47C39.5598 114.4 39.3898 114.33 39.2398 114.23L38.8498 113.9C38.5798 113.69 38.3298 113.45 38.2898 113.09C38.2498 112.93 38.2098 112.76 38.1698 112.59L38.1298 112.11C37.7498 106.45 37.1998 100.86 36.2198 95.3C35.7598 92.84 35.2498 90.38 34.5798 88C34.1798 86.46 33.6598 84.96 33.2198 83.43C32.9998 82.67 32.7898 81.9 32.5998 81.12L32.2698 79.97C32.1698 79.58 32.1398 79.17 32.0698 78.77C31.9398 77.75 32.0298 77.85 32.6598 78.51C32.9598 78.84 33.5298 79.28 33.9598 79.9C34.4398 80.51 34.8898 81.27 35.2798 82.13C37.7398 88.36 38.9598 94.95 39.5798 101.59C39.7898 103.57 39.9998 105.59 40.2098 107.62L40.5198 110.67L40.6398 112C40.6198 112.2 40.7598 112.24 40.9598 112.38C41.3498 112.72 41.8498 112.93 42.3298 113.18C42.8098 113.42 43.2998 113.65 43.7898 113.86C44.7798 114.3 45.7898 114.69 46.8198 115.05C48.8698 115.77 50.9798 116.33 53.1198 116.78C55.7498 117.33 58.4398 117.63 61.1298 117.72L62.6598 117.77L64.1898 117.74C65.2098 117.74 66.2298 117.68 67.2598 117.59C69.2998 117.42 71.3298 117.13 73.3298 116.74C76.4398 116.14 79.4098 115.2 82.2898 114.08C82.9298 113.85 83.5298 113.56 84.1698 113.32C86.5098 112.36 87.2498 112.12 88.0898 112.54C88.2798 112.63 88.4998 112.71 88.6498 112.82C89.1398 113.19 88.4098 114.15 86.6598 115.09C85.3598 115.76 84.0098 116.38 82.6098 116.9C81.2098 117.4 79.7698 117.85 78.3098 118.22C75.3898 118.97 72.3698 119.48 69.3198 119.79C68.1898 119.9 67.0498 120 65.9098 120.07C64.7698 120.13 63.6198 120.14 62.4698 120.16C60.1698 120.1 57.8698 119.99 55.5998 119.65V119.59H55.6098Z" fill="#231F20"/>
<path d="M86.9001 100.44C87.1301 98.67 87.3801 96.89 87.6601 95.12C87.7501 94.47 87.7901 93.82 87.9101 93.18C88.1101 92.05 88.3501 90.91 88.6001 89.79L89.4601 86.44C89.7201 85.45 89.9201 84.45 90.1601 83.46C90.3301 82.83 90.4701 82.2 90.6601 81.57L90.8101 81.1L91.0601 80.66C91.2301 80.37 91.4001 80.09 91.5701 79.79C91.8001 79.44 91.9201 79.53 92.0901 79.93C92.1801 80.13 92.3001 80.42 92.4201 80.75C92.4801 80.92 92.5501 81.1 92.6001 81.28C92.6301 81.37 92.6401 81.47 92.6801 81.57C92.6801 81.66 92.6701 81.75 92.6501 81.84C92.3601 84.44 91.7501 86.93 91.0701 89.48C90.6501 91 90.4901 92.63 90.2501 94.22C89.9701 95.97 89.7101 97.72 89.4901 99.49C89.3501 100.58 89.2201 101.66 89.1201 102.75C88.9601 104.4 88.7901 106.06 88.7301 107.71C88.6801 108.99 88.8301 110.26 88.8201 111.53C88.8201 111.81 88.8301 112.08 88.8201 112.37C88.8001 112.89 88.7101 113.23 88.5301 113.47C88.3701 113.7 88.1801 113.83 87.9301 113.93C87.8101 113.98 87.7001 114.04 87.6001 114.06C87.2701 114.14 86.9201 113.7 86.6501 112.92C86.1201 110.62 86.2601 108.23 86.3701 105.82C86.4701 104.03 86.6501 102.23 86.8201 100.44H86.8801H86.9001Z" fill="#231F20"/>
<path d="M28.4101 64.46C27.8901 64.04 27.5601 63.49 27.4901 62.8C27.4701 62.46 27.5301 62.1 27.6601 61.82C27.7901 61.53 27.9701 61.4 28.1401 61.25C28.2901 61.15 28.4401 61.01 28.6901 60.85C28.9501 60.71 29.3001 60.57 29.6901 60.54C29.8301 60.51 29.9901 60.44 30.0601 60.41L30.2001 60.33C30.3001 60.27 30.4001 60.2 30.5001 60.13C30.7101 59.98 30.9101 59.78 31.1301 59.57C31.5801 59.13 32.1001 58.64 32.7901 58.29C33.1001 58.14 33.4401 58 33.8201 57.93C34.2001 57.87 34.6101 57.9 34.9701 58C35.4401 58.13 35.8401 58.34 36.1701 58.6C36.5201 58.83 36.6401 59.26 36.7801 59.61C36.8501 59.85 36.5901 60.03 36.1701 60.17C35.9601 60.24 35.7101 60.31 35.4601 60.37C35.3201 60.4 35.2001 60.42 35.0901 60.44C35.0301 60.45 34.9801 60.44 34.9201 60.47C34.8801 60.47 34.8501 60.45 34.8201 60.43C34.6101 60.3 34.4401 60.23 34.3401 60.22C34.2401 60.2 34.2301 60.23 34.1401 60.21C33.9701 60.15 33.4601 60.36 32.9301 60.71C32.6101 60.92 32.2801 61.25 31.9401 61.61C31.7701 61.79 31.5701 61.97 31.3501 62.14C31.2001 62.26 31.2101 62.24 31.1101 62.27C30.9501 62.33 30.7001 62.27 30.5301 62.41C30.3701 62.56 30.3801 62.81 30.5101 62.94C30.6601 63.11 30.9101 63.22 31.1901 63.3C31.3101 63.33 31.3901 63.35 31.5501 63.38C31.7501 63.41 31.9501 63.42 32.1501 63.43C32.5501 63.44 32.9601 63.4 33.3501 63.31C33.9601 63.17 34.4801 62.8 34.9601 62.46C35.0701 62.4 35.1701 62.32 35.2901 62.27C35.7201 62.06 35.9301 62.1 36.3301 62.45C36.4201 62.53 36.5201 62.6 36.6001 62.68C36.8801 62.95 36.9001 63.37 36.6101 63.78C36.3901 64.08 36.1501 64.37 35.8601 64.63C35.5501 64.84 35.2201 65.01 34.8701 65.15C34.1701 65.43 33.4001 65.57 32.6301 65.59C32.3401 65.59 32.0601 65.59 31.7701 65.56C31.6301 65.56 31.4901 65.53 31.3401 65.51C31.1501 65.5 30.8901 65.43 30.6801 65.39C29.7701 65.22 28.9601 64.89 28.3501 64.5L28.4001 64.47L28.4101 64.46Z" fill="#231F20"/>
<path d="M47.6798 44.24C47.2698 44.04 46.8898 43.8 46.5098 43.51C46.1398 43.19 45.6898 42.75 45.5298 41.91C45.4598 41.5 45.5298 41.03 45.6998 40.69C45.8598 40.34 46.0698 40.09 46.2698 39.89C46.6898 39.48 47.0898 39.31 47.4698 39.15C48.0198 38.94 48.4998 38.76 48.9198 38.67C49.6798 38.5 50.0198 38.46 50.6298 38.06C51.2098 37.69 51.8098 37.15 52.5898 36.64C53.2698 36.2 54.1498 35.76 55.1498 35.77C55.7598 35.78 56.3998 35.88 56.9098 36.23C57.1498 36.43 57.3798 36.63 57.5198 36.92C57.6498 37.21 57.7298 37.51 57.7698 37.81C57.7798 38.2 57.5398 38.2 57.0798 38.22C56.8498 38.23 56.5498 38.27 56.2498 38.38C56.0998 38.43 55.9498 38.51 55.8298 38.56C55.7198 38.6 55.6298 38.64 55.5598 38.65C55.4998 38.65 55.4298 38.69 55.3898 38.69C55.3498 38.68 55.3098 38.66 55.2798 38.65C55.1998 38.63 55.1298 38.61 55.0598 38.61C54.9298 38.6 54.8398 38.59 54.6298 38.65C54.2298 38.74 53.5398 39.21 52.6898 39.74C52.1798 40.05 51.6298 40.47 50.9498 40.8C50.2598 41.13 49.6298 41.26 49.1298 41.36C48.8498 41.41 48.6098 41.47 48.4098 41.54C48.1998 41.61 48.0298 41.69 47.9598 41.71C47.9398 41.71 47.9298 41.72 47.9198 41.71C47.8798 41.68 47.7698 41.63 47.7298 41.62C47.6298 41.59 47.6498 41.62 47.7798 41.59C47.8898 41.55 47.8198 41.58 47.8398 41.59C47.8398 41.61 47.8398 41.63 47.8598 41.66C47.8898 41.72 47.9398 41.79 48.0098 41.86C48.3798 42.23 48.9898 42.38 49.5398 42.33C50.3598 42.27 51.1098 41.59 51.7898 40.67C52.2998 39.98 52.8598 39.02 53.8698 38.4C54.0898 38.26 54.3298 38.12 54.6198 38.03C55.1598 37.92 55.5898 38.03 55.8098 38.26C56.0298 38.52 56.0798 38.78 56.0698 39.07C56.0698 39.2 56.0698 39.32 56.0398 39.43C55.9998 39.61 55.8798 39.73 55.7298 39.91C55.5798 40.08 55.4298 40.37 55.3498 40.49C55.2298 40.68 55.0998 40.8 54.9298 40.95C54.7598 41.11 54.5698 41.28 54.3898 41.49C54.0298 41.87 53.5098 42.58 52.7598 43.28C52.1998 43.81 51.4098 44.36 50.4198 44.58C49.4698 44.79 48.5198 44.68 47.6698 44.32L47.6898 44.27L47.6798 44.24Z" fill="#231F20"/>
<path d="M72.0802 57.33C72.2302 57.37 72.4702 57.37 72.6202 57.26C72.7702 57.15 72.8402 57 72.8602 56.83C72.8702 56.69 72.6802 56.64 72.6502 56.55C72.5702 56.37 72.3802 56.31 72.1302 56.36C72.0002 56.38 71.8602 56.43 71.6802 56.47L71.5402 56.5L71.2002 56.57C70.9302 56.62 70.6402 56.64 70.3402 56.64C69.8102 56.64 69.2502 56.47 68.8402 56.26C68.4202 56.05 68.0702 55.83 67.7502 55.66C67.3402 55.44 66.9902 55.33 66.6602 55.36C66.3102 55.36 65.8902 55.45 65.5402 55.73C65.3302 55.9 65.1902 55.85 65.1502 55.47C65.1202 55.13 65.2902 54.3 66.1302 53.86C66.4902 53.69 66.9402 53.66 67.3302 53.69C67.7302 53.72 68.0902 53.83 68.3902 53.93C69.0002 54.15 69.4502 54.38 69.7602 54.45C70.0402 54.51 70.1802 54.48 70.5202 54.4C70.6202 54.37 70.6502 54.37 70.8202 54.31C71.0502 54.2 71.2602 54.05 71.5002 53.97C71.9602 53.78 72.4202 53.58 72.8202 53.5C73.7602 53.29 74.4702 53.24 75.1802 53.33C75.8602 53.42 76.5802 53.73 77.0802 54.37C77.5902 55.08 78.0002 55.9 78.1902 56.72C78.3802 57.53 78.1902 58.54 77.6202 59.07C77.2802 59.38 76.9102 59.53 76.4502 59.71C75.9902 59.89 75.4202 60.01 74.8202 60.08C73.9302 60.2 72.9802 60.24 72.0402 60.12C71.0202 59.99 70.3802 59.73 69.6902 59.41C68.6702 58.92 67.7902 58.43 67.0402 58.16C66.8702 58.1 66.7002 58.08 66.5502 58.03C65.9902 57.93 65.8302 57.63 65.5502 57.24C65.4902 57.15 65.4102 57.07 65.3602 56.98C65.2802 56.84 65.2902 56.68 65.4402 56.48C65.5802 56.29 65.8702 56.02 66.2902 55.92C67.5202 55.7 68.7802 56.08 69.7102 56.43C70.6202 56.86 71.2602 57.11 71.7502 57.18C71.7302 57.18 71.7902 57.26 71.9602 57.28L72.1002 57.35L72.0802 57.33Z" fill="#231F20"/>
<path d="M84.4099 46.11C83.7799 46.28 83.1199 46.16 82.5499 45.87C82.2799 45.74 81.9499 45.5 81.8399 45.41L81.4099 45.06C81.1999 44.89 80.9399 44.75 80.7199 44.53C79.9699 43.8 79.1999 42.58 79.4899 41.32C79.5399 41.05 79.6299 40.77 79.7599 40.52C79.8899 40.24 80.1299 40.04 80.3599 39.9C80.9299 39.51 81.7799 39.49 82.2299 40C82.3599 40.16 82.2599 40.19 82.0799 40.25C81.8899 40.29 81.6499 40.5 81.5399 40.67C81.4299 40.8 81.3599 40.96 81.3499 41.1C81.3299 41.25 81.4499 41.31 81.4299 41.34C81.4199 41.45 81.4299 41.63 81.4099 41.97C81.4099 42.37 81.8299 42.67 82.2599 43.01C82.4899 43.2 82.7799 43.41 83.0399 43.61C83.2199 43.75 83.2799 43.83 83.4599 43.89C83.6599 43.96 83.8799 43.87 84.0399 43.71C84.2099 43.5 84.3799 43.34 84.4799 43.16C84.5399 43.01 84.5399 42.84 84.4699 42.7C84.4099 42.57 84.2799 42.48 84.1399 42.43C83.9899 42.37 83.9099 42.43 83.7299 42.35C83.6499 42.33 83.5699 42.33 83.4899 42.28C83.3499 42.19 83.2399 42.11 83.1999 41.96C83.1699 41.78 83.1699 41.59 83.1999 41.34C83.2199 41.23 83.2199 41.12 83.2399 41.02C83.2699 40.85 83.3499 40.72 83.4799 40.58C83.5999 40.44 83.7899 40.27 83.9699 40.25C84.2599 40.19 84.5699 40.17 84.9099 40.25C85.2899 40.31 85.7399 40.55 86.0999 40.83C86.4599 41.13 86.7999 41.5 86.9599 41.95C87.0699 42.41 87.1399 42.9 87.0299 43.36C86.9999 43.45 87.0099 43.54 86.9599 43.62C86.8799 43.94 86.6999 44.23 86.5099 44.5C86.4099 44.63 86.2999 44.76 86.1799 44.88C86.0899 44.97 86.0499 45.02 85.9499 45.1C85.5399 45.6 85.0199 46 84.4199 46.18L84.3999 46.13L84.4099 46.11Z" fill="#231F20"/>
<path d="M114.72 15.8C114.37 16.88 113.54 17.62 112.73 17.98C112.43 18.12 112.15 18.28 111.83 18.34C110.73 18.54 109.54 18.26 108.74 17.5C108.37 17.18 108.09 16.78 107.94 16.34C107.72 15.81 107.67 15.03 108.19 14.56C108.35 14.42 108.54 14.65 108.75 14.89C108.95 15.15 109.28 15.34 109.35 15.41C109.46 15.57 109.68 15.71 109.81 15.83C109.9 15.96 110.04 16.11 110.26 16.28C110.55 16.49 110.97 16.32 111.3 16.19C111.68 16.04 112 15.81 112.17 15.5C112.28 15.32 112.34 15.1 112.32 14.85C112.29 14.49 112.13 14.05 111.79 13.8C111.53 13.59 111.13 13.64 110.9 13.72C110.85 13.73 110.8 13.77 110.76 13.75C110.69 13.75 110.65 13.69 110.6 13.54C110.57 13.39 110.51 13.15 110.43 12.77L110.32 12.35C110.27 12.12 110.26 11.91 110.32 11.67C110.38 11.44 110.53 11.13 110.76 11.08C111.09 10.94 111.47 10.87 111.84 10.87C112.2 10.91 112.55 11.03 112.86 11.19C113.49 11.52 113.99 12.03 114.35 12.64C114.88 13.53 115.09 14.71 114.77 15.81H114.71L114.72 15.8Z" fill="#231F20"/>
<path d="M96.1401 14.17C94.9001 14.35 93.7301 13.93 92.9101 13.02C92.6201 12.69 92.3501 12.35 92.2301 11.95C91.7801 10.55 92.3501 9.14 93.3501 8.37C93.7801 8.03 94.2401 7.78 94.7301 7.62C95.3701 7.48 96.0701 7.53 96.5901 7.93C96.7501 8.06 96.6301 8.27 96.4301 8.52C96.2201 8.75 95.9701 9.12 95.8001 9.26C95.6301 9.37 95.5001 9.5 95.3901 9.62C95.2801 9.72 95.1601 9.75 95.0701 9.82C94.8701 9.96 94.7401 10.03 94.5401 10.24C94.3201 10.51 94.4001 10.93 94.5201 11.17C94.6001 11.45 94.9101 11.72 95.3301 11.79C95.5801 11.83 95.8301 11.79 96.0201 11.67C96.3301 11.47 96.6101 11 96.6801 10.45C96.7101 10.21 96.6801 10.05 96.6101 9.9C96.5501 9.74 96.4201 9.62 96.3801 9.52C96.3601 9.48 96.3301 9.46 96.3301 9.45C96.3201 9.46 96.4401 9.3 96.4301 9.3C96.4501 9.24 96.4401 9.27 96.4501 9.25C96.4501 9.31 96.4501 9.17 96.4501 9.11C96.4501 9.03 96.4201 8.94 96.4001 8.83C96.3801 8.73 96.3301 8.63 96.3001 8.54C96.2501 8.38 96.2401 8.23 96.3601 8.07C96.4701 7.92 96.7501 7.8 97.1101 7.86C98.1801 8.13 98.6901 8.89 98.8801 9.62C98.9301 9.81 98.9701 10.01 98.9801 10.22C98.9901 10.42 99.0001 10.55 99.0001 10.72C99.0001 11.05 98.9501 11.39 98.8601 11.75C98.7001 12.27 98.4001 12.82 97.9301 13.29C97.4701 13.76 96.7801 14.12 96.1601 14.23L96.1401 14.17Z" fill="#231F20"/>
<path d="M19.8198 27.92C19.1198 28.79 18.0398 29.34 16.8798 29.27C16.4798 29.24 16.0698 29.21 15.7298 29.04C14.5198 28.46 13.8498 27.12 14.0198 25.91C14.1298 25.39 14.3198 24.94 14.5898 24.56C14.9198 24.07 15.4598 23.66 16.0698 23.66C16.2598 23.66 16.2698 23.89 16.2398 24.17C16.1998 24.45 16.2098 24.82 16.1498 24.98C16.0198 25.27 16.0098 25.58 16.0498 25.79C16.1298 26.01 16.0498 26.06 16.0498 26.3C16.0498 26.6 16.4498 26.72 16.6698 26.81C16.9198 26.92 17.2198 26.92 17.5498 26.69C17.7398 26.55 17.9098 26.36 17.9698 26.14C18.0198 25.97 18.0498 25.82 18.0398 25.66C18.0198 25.49 17.9198 25.31 17.7698 25.17C17.5298 24.95 17.1598 24.95 16.9598 25.02C16.9098 25.03 16.8798 25.07 16.8498 25.08C16.7398 25.11 16.6798 24.99 16.3098 24.58L16.0498 24.31C15.7698 24.03 15.6898 23.57 16.1198 23.25C16.7498 22.79 17.6198 22.72 18.3198 22.95C19.0398 23.17 19.6898 23.64 20.1398 24.37C20.4698 24.89 20.6798 25.69 20.5498 26.3C20.4598 26.93 20.1998 27.49 19.8598 27.96L19.8098 27.93L19.8198 27.92Z" fill="#231F20"/>
<path d="M52.6301 82.87C55.0201 83.73 57.5501 84.3 60.1201 84.56C61.0601 84.64 62.0101 84.65 62.9501 84.64C66.2901 84.72 69.6701 84.33 72.9401 83.46C73.6701 83.29 74.3801 83.04 75.0901 82.77L76.1501 82.38L77.1701 81.91C78.9301 81.13 80.5601 80.15 82.4201 79.48C83.0501 79.34 83.0301 79.45 82.7801 80.01C82.5201 80.55 82.0201 81.6 81.0301 82.23C80.1701 82.8 79.3101 83.4 78.3501 83.79L76.9401 84.44L75.4801 84.98C73.5301 85.7 71.5001 86.17 69.4401 86.47C66.9701 86.77 64.4201 87.15 61.8601 87.15C59.0601 87.09 56.2701 86.71 53.5601 86C51.9001 85.56 50.2601 84.99 48.7001 84.27C48.1101 83.99 47.5101 83.74 46.9401 83.42L45.2501 82.44C44.2701 81.82 43.1301 81.41 41.9601 81.06C40.1401 80.53 38.2501 80.31 36.4201 80.2C36.0201 80.18 35.6301 80.17 35.2301 80.15C34.5101 80.12 34.0601 80.08 33.7501 79.95C33.4201 79.8 33.2201 79.61 32.9901 79.34C32.8801 79.22 32.7401 79.11 32.6501 78.99C32.4901 78.79 32.5301 78.56 32.8201 78.25C32.9701 78.09 33.1701 77.95 33.4101 77.82C33.6601 77.67 33.9601 77.59 34.2801 77.52C36.2301 77.17 38.1001 77.35 39.9601 77.69C41.8301 78.05 43.6301 78.52 45.5501 79.39C45.8701 79.52 46.3801 79.83 46.6201 79.96L47.4501 80.43C48.0001 80.74 48.5401 81.07 49.1301 81.32C49.7101 81.58 50.2701 81.89 50.8701 82.11L52.6601 82.8L52.6401 82.87H52.6301Z" fill="#231F20"/>
<path d="M70.0499 85.11C66.5599 85.88 62.9599 86.16 59.4199 85.83C58.1299 85.73 56.8399 85.61 55.5699 85.36C53.3399 84.9 51.1799 84.16 49.0999 83.3C47.0199 82.42 45.0599 81.33 43.1599 80.14L40.6899 78.5C39.8999 77.91 39.0699 77.37 38.2999 76.76C37.3099 75.98 36.3299 75.19 35.4299 74.3C34.4899 73.46 33.6799 72.49 33.1599 71.27C32.8299 70.52 32.9499 70.56 33.7099 70.74C34.0799 70.84 34.6899 70.88 35.2699 71.08C35.5599 71.18 35.8999 71.26 36.1799 71.41C36.4599 71.58 36.7399 71.75 37.0099 71.97L38.4099 73.13C38.8899 73.5 39.3899 73.85 39.8499 74.23C40.3099 74.63 40.7799 75 41.2699 75.35C41.7499 75.71 42.2199 76.1 42.7099 76.44C44.6699 77.85 46.7299 79.11 48.8799 80.25C51.4699 81.61 54.4599 82.32 57.3899 82.74C60.6199 83.24 63.9399 83.21 67.1899 82.66C69.1899 82.32 71.1699 81.82 73.0699 81.09C75.9499 79.99 78.7199 78.51 81.1399 76.61C81.5999 76.23 82.0499 75.84 82.4899 75.44L83.7299 74.18L84.9199 72.89L86.0399 71.55C86.3499 71.14 86.6399 70.73 86.9699 70.33C87.2599 69.95 87.5099 69.64 87.7399 69.39C87.9799 69.15 88.2099 68.98 88.3999 68.84C88.7899 68.56 89.0999 68.44 89.4299 68.39C89.5799 68.37 89.7399 68.31 89.8599 68.32C90.0599 68.32 90.1099 68.54 90.0799 68.95C90.0299 69.35 89.9499 69.99 89.6599 70.72C88.6799 72.79 87.3199 74.74 85.7299 76.54C84.0499 78.25 82.1199 79.75 80.0499 81.03C76.9799 82.93 73.5799 84.33 70.0599 85.18L70.0399 85.11H70.0499Z" fill="#231F20"/>
</svg>
