<svg width="128" height="128" viewBox="0 0 128 128" fill="none" xmlns="http://www.w3.org/2000/svg">
<path d="M45.9901 18.7C46.5601 18.99 47.0301 19.32 47.4801 19.64C47.6501 19.75 47.8301 19.82 47.9901 19.94C48.5401 20.36 49.0501 20.81 49.5701 21.23C49.8001 21.42 50.0701 21.53 50.3201 21.67C50.6401 21.86 50.9501 22.05 51.2401 22.34C51.3301 22.43 51.2701 22.57 51.1001 22.72C50.9401 22.86 50.6601 23.08 50.4101 23.09C49.4801 23.21 48.7601 22.79 48.1201 22.31C47.7601 21.98 47.2901 21.83 46.8901 21.6C46.4501 21.35 46.0201 21.08 45.6001 20.88C45.3401 20.75 45.0701 20.64 44.8001 20.56C44.3901 20.44 43.9501 20.33 43.5401 20.4C43.2201 20.46 42.9501 20.67 42.7201 20.8C42.6701 20.84 42.6301 20.89 42.5801 20.91C42.4001 21.01 42.2501 20.87 41.9201 20.43L41.6901 20.13C41.4401 19.8 41.3701 19.41 41.5601 19.11C41.8601 18.71 42.2801 18.4 42.7301 18.21C43.2001 18.08 43.6801 18.07 44.1301 18.11C44.8101 18.18 45.4301 18.4 46.0101 18.64L45.9901 18.69V18.7Z" fill="#231F20"/>
<path d="M8.97016 82.16C8.99016 81.27 9.05016 80.39 9.11016 79.51L9.47016 76.93L9.95016 74.39L10.5302 71.89C10.8402 70.68 11.1002 69.46 11.4502 68.27C12.6902 64.07 14.1802 59.96 15.7702 55.91C16.4702 54.11 17.1802 52.3 17.9002 50.52C18.8702 48.26 19.7202 45.92 21.2002 43.89C21.6302 43.25 21.6502 43.38 21.5502 44.05C21.4902 44.47 21.4302 44.94 21.3602 45.44C21.3102 45.72 21.3002 46.05 21.2202 46.36C21.1302 46.67 21.0202 46.99 20.8902 47.32L19.5402 50.8C19.0702 51.95 18.6102 53.11 18.1602 54.27C17.2502 56.59 16.3702 58.93 15.4902 61.28C14.4302 64.09 13.6602 67.13 12.9202 70.09C12.1202 73.35 11.4302 76.66 11.2002 79.97C11.0602 82.01 11.0902 84.03 11.5402 85.98C12.1702 88.96 13.7902 91.68 15.9502 93.8C17.6602 95.44 19.7002 96.62 21.8202 97.6C22.2902 97.82 22.7702 97.98 23.2402 98.21C25.0102 98.99 25.5602 99.29 25.8202 99.86C25.8802 99.99 25.9702 100.13 26.0002 100.24C26.0902 100.61 25.2102 100.67 23.7502 100.31C21.5702 99.8 19.4302 98.84 17.4102 97.58C15.4002 96.31 13.4902 94.66 12.0902 92.59C11.0302 91.07 10.2002 89.38 9.68016 87.59C9.15016 85.81 8.95016 83.97 8.91016 82.15H8.96016L8.97016 82.16Z" fill="#231F20"/>
<path d="M91.1498 108.75C83.2398 110.67 85.2198 100.92 85.2198 100.92C85.2198 100.92 82.0498 108.48 83.2498 110.67C84.4398 112.86 87.7898 111.57 87.7898 111.57L91.1498 108.75Z" fill="#231F20"/>
<path d="M89.1702 83.08C89.1702 83.08 86.1202 91.13 87.9602 92.25C89.1702 92.99 83.2502 102.9 83.2502 102.9L81.4902 100.9L89.1702 83.07V83.08Z" fill="#231F20"/>
<path d="M84.5098 113.71C84.5098 113.71 96.2598 116.3 97.6498 114.07C98.7798 112.26 92.4398 108.15 92.4398 108.15L84.5098 113.71Z" fill="#231F20"/>
<path d="M89.5601 87.35C91.2501 84.41 93.0301 81.54 94.8401 78.69C95.5001 77.65 96.1102 76.58 96.7902 75.56C99.1902 71.95 101.71 68.42 104.28 64.93C105.41 63.38 106.52 61.79 107.61 60.23C108.32 59.23 108.98 58.19 109.77 57.25C110.15 56.77 110.55 56.3 110.95 55.83L111.57 55.14C111.79 54.92 112.06 54.74 112.29 54.54C112.92 54.07 112.95 54.22 112.85 54.96C112.81 55.74 112.52 57 111.76 58.18C111.12 59.25 110.4 60.25 109.67 61.26L107.5 64.29C106.05 66.31 104.58 68.32 103.08 70.33C101.28 72.73 99.6701 75.41 98.0301 77.99C96.2201 80.83 94.4402 83.69 92.7502 86.6C91.7002 88.39 90.7001 90.2 89.7401 92.03C88.3001 94.81 86.9002 97.64 85.8602 100.55C85.0502 102.8 84.5102 105.12 84.3602 107.37C84.3102 107.87 84.3602 108.33 84.3602 108.81C84.4102 109.68 84.5002 110.18 84.5002 110.56C84.4802 110.76 84.4602 110.93 84.4402 111.07C84.4102 111.22 84.3402 111.38 84.2502 111.55C84.1702 111.71 84.1102 111.9 84.0302 112.04C83.8802 112.28 83.6301 112.29 83.2401 112.01C82.8201 111.74 82.4301 111.13 82.1701 110.3C81.5701 107.81 81.9802 105.4 82.5302 103.14C83.1102 100.87 83.9502 98.68 84.8702 96.55C86.2502 93.38 87.8502 90.34 89.5102 87.35L89.5601 87.37V87.35Z" fill="#231F20"/>
<path d="M7.79008 74.4C9.20008 68.74 11.2301 63.39 13.3901 58.11C15.5701 52.84 17.9401 47.67 20.4101 42.56C22.2201 38.83 24.0101 35.09 25.9601 31.44C26.6901 30.07 27.4301 28.7 28.2001 27.34C28.6201 26.6 28.8401 26.19 29.6301 24.87C29.7101 24.73 29.8001 24.59 29.9001 24.47C29.9901 24.34 30.0701 24.19 30.2001 24.15C30.4301 24 30.6801 23.96 30.8901 23.89C30.9501 23.88 30.9901 23.86 31.0601 23.85C31.1301 24.11 30.9701 23.49 30.9901 23.56H31.0001H31.0201H31.0701L31.1701 23.6L31.5601 23.7L32.3401 23.89L33.1301 24.35L33.5201 24.58L33.7701 24.71L34.6901 25.17C35.3001 25.49 35.9401 25.75 36.5801 26.02C37.2101 26.31 37.8701 26.54 38.5201 26.79C39.1701 27.05 39.8301 27.27 40.5001 27.49C43.1601 28.39 45.8901 29.16 48.6501 29.85C54.1601 31.25 59.7601 32.38 65.3701 33.45C71.7001 34.66 78.1001 35.72 84.4101 36.82C88.4701 37.53 92.5401 38.25 96.5901 39.16C98.6101 39.63 100.61 40.21 102.59 40.9C104.55 41.63 106.55 42.34 108.31 43.64C108.56 43.87 108.78 44.06 108.97 44.23C109.14 44.43 109.25 44.61 109.34 44.74C109.52 45.01 109.57 45.14 109.51 45.15C109.46 45.17 109.29 45.07 109.04 44.9C108.91 44.82 108.78 44.7 108.58 44.61C108.38 44.52 108.16 44.43 107.91 44.32C106.9 43.94 105.47 43.52 103.65 43.22C101.82 42.91 99.7101 42.56 97.4201 42.18C89.3101 40.44 81.0101 39.16 72.7301 37.71C64.4301 36.29 56.1201 34.66 47.8501 32.48C45.1301 31.76 42.3801 30.98 39.6401 30.06C38.9501 29.84 38.2701 29.6 37.5901 29.34C36.9101 29.09 36.2201 28.85 35.5401 28.55C34.8601 28.26 34.1801 28 33.5101 27.66L32.5101 27.17L32.2801 27.06L32.2101 27.02L32.0601 26.93L31.8201 26.79C31.7301 26.74 31.7001 26.91 31.6501 26.96L31.2201 27.72L29.5601 30.78C28.4701 32.83 27.4001 34.9 26.3501 36.97C23.7801 42.03 21.3101 47.14 19.0001 52.32C16.6901 57.5 14.5101 62.74 12.6901 68.08C10.5601 74.61 8.33008 81.56 10.6201 87.94C11.4401 90.3 12.8401 92.43 14.8401 93.88C16.8601 95.35 19.2601 96.41 21.7101 97.3C26.6301 99.05 31.8101 100.2 36.9601 101.19C44.9801 102.73 52.9601 103.69 60.9701 105.2C62.7401 105.53 64.4601 105.89 66.2401 106.33C72.8001 108.02 74.8101 109.53 75.6301 110.93C75.8101 111.27 76.0601 111.66 76.1001 111.9C76.1601 112.31 75.6001 112.17 74.5601 111.74C73.5101 111.31 71.8001 110.72 69.5201 110.08C66.1301 109.14 62.5501 108.51 58.9401 107.86C55.3201 107.22 51.6301 106.64 47.9101 106.04C40.4701 104.82 32.8701 103.58 25.3101 101.52C22.5101 100.73 19.7001 99.82 16.9501 98.52C15.5701 97.9 14.2201 97.08 12.9201 96.13C12.2801 95.6 11.6401 95.08 11.0801 94.45C10.5301 93.83 10.0101 93.18 9.57008 92.48C7.79008 89.71 6.98008 86.55 6.75008 83.46C6.64008 81.92 6.69008 80.3 6.90008 78.8C7.10008 77.29 7.39008 75.83 7.73008 74.39H7.80008L7.79008 74.4Z" fill="#231F20"/>
<path d="M95.7598 106.61C94.5198 107.95 93.2298 109.26 91.7798 110.47C90.3098 111.65 88.7798 112.85 86.5898 113.46C86.0398 113.6 85.4298 113.68 84.7898 113.63C84.4698 113.61 84.1498 113.55 83.8198 113.46C83.4998 113.38 83.2498 113.25 82.9598 113.13C81.8398 112.62 80.9298 111.59 80.4598 110.54C79.9798 109.48 79.8198 108.42 79.7798 107.42C79.7398 106.42 79.8098 105.45 79.9398 104.52C80.3298 101.79 81.0598 99.23 81.9498 96.74C83.5498 92.37 85.5398 88.21 87.6398 84.13C89.7498 80.05 91.9998 76.06 94.3398 72.13C96.4198 68.64 98.5398 65.15 100.69 61.75C102.08 59.57 103.46 57.37 104.97 55.25C106.49 53.15 108.09 51.07 110.09 49.35C111.35 48.29 111.13 48.41 110.48 49.63C110.15 50.24 109.81 51.2 109.31 52.26C109.06 52.8 108.82 53.4 108.5 53.99C108.17 54.58 107.81 55.19 107.42 55.81C101.65 64.53 96.1298 73.46 90.9998 82.68C87.9698 88.21 85.2498 94.25 83.4398 100.33C82.9598 102 82.5598 103.69 82.3898 105.36C82.2298 107 82.2898 108.73 83.0098 109.83C83.3598 110.37 83.8498 110.76 84.4998 110.94C85.0398 111.11 85.7198 111.03 86.4398 110.75C87.8698 110.21 89.2598 109.13 90.5398 108C93.6898 105.12 96.4398 101.69 99.0598 98.2C103 92.88 106.67 87.29 110.09 81.65C111.42 79.45 112.68 77.25 113.92 75.03L115.77 71.71L116.71 70.05L117.64 68.46L117.69 68.38L117.83 68.14C117.87 68.06 117.83 67.95 117.77 67.88C117.62 67.73 117.52 67.68 117.3 67.52C115.6 66.38 114.36 65.3 113.79 64.34C113.19 63.39 113.13 62.64 113.31 62.06C113.39 61.79 113.48 61.48 113.61 61.32C113.85 61.06 114.15 61.32 114.61 61.81C115.07 62.31 115.73 63.01 116.84 63.82C117.18 64.07 117.54 64.31 117.92 64.55L118.5 64.92L118.8 65.11L119.18 65.36C119.87 65.84 120.54 66.41 120.83 67.14C120.98 67.5 121.03 67.94 120.95 68.3C120.88 68.65 120.7 69.04 120.44 69.42C120.32 69.59 120.2 69.77 120.09 69.94L119.89 70.27L119.56 70.85L118.89 72.03C118.44 72.83 117.98 73.63 117.53 74.44C116.6 76.05 115.66 77.68 114.72 79.32C112.8 82.58 110.8 85.85 108.73 89.09C104.82 95.13 100.73 101.11 95.8498 106.62L95.7898 106.58L95.7598 106.61Z" fill="#231F20"/>
<path d="M45.8802 60.05C48.1602 60.7 50.4602 61.32 52.7702 61.93C53.6102 62.15 54.4702 62.32 55.3102 62.56C58.2702 63.41 61.2402 64.25 64.1402 65.34C65.4302 65.79 66.7202 66.3 68.0002 66.75L69.2202 67.24C69.6202 67.42 70.0202 67.61 70.4102 67.8C71.1902 68.22 71.9402 68.69 72.6802 69.15C73.1402 69.45 73.0102 69.53 72.5102 69.52C72.0102 69.5 71.1102 69.46 70.1502 69.2C69.7302 69.08 69.2902 68.99 68.8702 68.89C68.4402 68.79 68.0502 68.61 67.6302 68.47C66.8102 68.18 65.9702 67.94 65.1502 67.66C63.4802 67.14 61.8102 66.61 60.1502 65.99C58.1602 65.26 55.9802 64.83 53.8702 64.28L46.8902 62.47C45.4602 62.09 44.0302 61.7 42.6002 61.29C40.4302 60.69 38.2802 59.98 36.1502 59.31C35.3302 59.03 34.5002 58.77 33.6702 58.53C32.8402 58.28 32.0302 57.99 31.2102 57.71C30.8502 57.59 30.5002 57.45 30.1602 57.27C29.5302 56.93 29.1202 56.69 28.8802 56.44C28.6502 56.16 28.5502 55.93 28.5202 55.67C28.5002 55.55 28.4702 55.43 28.4702 55.33C28.4702 55.17 28.6402 55.09 28.9402 55.06C29.2402 55.03 29.6902 55.02 30.1702 55.18L31.2702 55.49C31.6402 55.59 32.0202 55.67 32.3802 55.8C33.1102 56.03 33.8202 56.32 34.5702 56.55C35.3102 56.79 36.0502 57.04 36.8002 57.3C37.5502 57.54 38.3102 57.78 39.0702 58.02C41.3202 58.72 43.6102 59.4 45.9202 60V60.05H45.8802Z" fill="#231F20"/>
<path d="M42.2898 66.56C44.0498 67.24 45.8298 67.89 47.6298 68.49C48.2798 68.72 48.9598 68.87 49.6098 69.09C51.9098 69.89 54.2298 70.65 56.5898 71.3C57.6298 71.59 58.6898 71.85 59.7398 72.09L61.7698 72.53C62.4398 72.72 63.0898 72.99 63.7498 73.23C64.1598 73.39 64.0898 73.45 63.6998 73.54C63.3098 73.62 62.5898 73.83 61.7598 73.88C60.3398 73.73 58.9398 73.49 57.5398 73.23C56.1498 72.93 54.7698 72.54 53.4098 72.09C51.7798 71.56 50.0298 71.19 48.3498 70.69C46.5098 70.12 44.6798 69.5 42.8698 68.85C41.7498 68.45 40.6398 68.04 39.5298 67.62C37.8598 66.97 36.1798 66.31 34.5098 65.67C33.2198 65.17 31.9098 64.78 30.6098 64.31C30.3198 64.21 30.0398 64.13 29.7598 64.01C28.7098 63.58 28.4598 63.26 28.4698 62.68C28.4698 62.55 28.4598 62.4 28.4798 62.28C28.5598 61.86 29.1198 61.74 29.9198 61.94C32.2698 62.61 34.6098 63.57 36.9998 64.49C38.7698 65.18 40.5398 65.88 42.3298 66.52V66.57L42.2898 66.56Z" fill="#231F20"/>
<path d="M34.6899 70.9C35.3899 71.26 36.0999 71.62 36.8299 71.94C37.0899 72.06 37.3799 72.12 37.6399 72.24C38.5699 72.67 39.4999 73.14 40.4599 73.49C40.8899 73.65 41.3299 73.77 41.7699 73.88C42.3299 74.03 42.8799 74.24 43.4199 74.5C43.5899 74.59 43.5399 74.69 43.3599 74.8C43.1799 74.91 42.8499 75.09 42.4999 75.12C42.1899 75.13 41.8699 75.16 41.5699 75.14C41.2699 75.1 40.9699 75.03 40.6699 74.97C40.0799 74.84 39.4899 74.67 38.9199 74.44C38.2399 74.16 37.4799 74.06 36.7799 73.79C36.0099 73.51 35.2499 73.19 34.4899 72.87C34.0299 72.66 33.5699 72.46 33.1099 72.25C32.4099 71.94 31.7299 71.59 31.0199 71.31C30.4799 71.08 29.8799 70.99 29.3199 70.8C29.1999 70.76 29.0699 70.73 28.9599 70.67C28.5299 70.46 28.4599 70.26 28.5999 69.76C28.6299 69.65 28.6599 69.53 28.6999 69.42C28.8399 69.05 29.1599 68.85 29.5299 68.88C30.6499 68.91 31.5799 69.4 32.5499 69.84C33.2599 70.18 33.9799 70.53 34.6899 70.88L34.6699 70.92L34.6899 70.9Z" fill="#231F20"/>
<path d="M35.6502 81.99C37.0202 82.45 38.4101 82.87 39.8201 83.27C40.3301 83.42 40.8601 83.5 41.3801 83.65C43.1901 84.18 45.0102 84.72 46.8102 85.36C47.6201 85.6 48.4201 85.9 49.2101 86.18C50.2201 86.56 51.2402 86.93 52.1502 87.57C52.4402 87.76 52.3701 87.79 52.0602 87.83C51.7502 87.83 51.1402 88.02 50.5401 87.91C49.4701 87.77 48.4001 87.63 47.3201 87.49C46.2801 87.22 45.2501 86.93 44.2101 86.58C42.9801 86.12 41.6301 85.92 40.3201 85.59C38.8901 85.23 37.4501 84.83 36.0201 84.42C35.1401 84.16 34.2601 83.89 33.3901 83.6C32.0601 83.18 30.7501 82.67 29.4501 82.18C28.4501 81.78 27.4001 81.5 26.4101 81.04C26.2001 80.93 25.9801 80.85 25.7801 80.7C25.0301 80.19 24.8901 79.89 24.9801 79.4C25.0001 79.29 25.0101 79.17 25.0501 79.08C25.1601 78.76 25.6501 78.67 26.2601 78.82C26.7101 78.95 27.1601 79.06 27.6301 79.15C28.0701 79.29 28.4801 79.48 28.9301 79.62L30.2501 80.1C30.7001 80.25 31.1501 80.4 31.5901 80.57C32.9301 81.05 34.2801 81.54 35.6801 81.94V81.99H35.6502Z" fill="#231F20"/>
<path d="M109.23 73.68C109.43 73.86 109.63 74.05 109.85 74.2C109.93 74.26 110.03 74.28 110.1 74.34C110.38 74.53 110.65 74.8 110.97 74.98C111.11 75.06 111.26 75.11 111.4 75.16C111.59 75.22 111.79 75.25 111.96 75.39C112.07 75.47 111.78 76.04 111.52 76.07C111.08 76.07 110.63 76.04 110.24 75.81C110.01 75.68 109.73 75.65 109.48 75.53C109.21 75.4 108.95 75.25 108.7 75.1C108.55 75 108.39 74.9 108.24 74.81C108 74.68 107.81 74.48 107.57 74.35C107.39 74.25 107.17 74.23 106.97 74.16C106.93 74.15 106.88 74.14 106.84 74.12C106.7 74.03 106.71 73.91 106.86 73.6L106.96 73.39C107.09 73.16 107.26 73 107.42 72.98C107.88 72.92 108.23 73.04 108.57 73.19C108.83 73.28 109.01 73.5 109.23 73.65L109.21 73.68H109.23Z" fill="#231F20"/>
<path d="M107.05 76.86C107.26 77.04 107.47 77.22 107.67 77.4C107.75 77.46 107.84 77.49 107.91 77.56C108.16 77.79 108.43 78.04 108.67 78.27C108.78 78.37 108.91 78.45 109.04 78.52C109.21 78.61 109.39 78.67 109.5 78.86C109.57 78.97 109.04 79.57 108.83 79.53C108.46 79.41 108.11 79.28 107.84 78.99C107.68 78.81 107.44 78.76 107.23 78.65C107.01 78.52 106.79 78.39 106.57 78.26C106.43 78.18 106.3 78.09 106.16 78.02C105.95 77.91 105.75 77.78 105.53 77.69C105.36 77.63 105.15 77.65 104.96 77.63C104.92 77.63 104.87 77.63 104.83 77.63C104.69 77.57 104.69 77.45 104.8 77.09L104.88 76.85C104.97 76.58 105.12 76.38 105.27 76.32C105.7 76.16 106.05 76.26 106.39 76.38C106.63 76.49 106.84 76.68 107.07 76.83L107.05 76.86Z" fill="#231F20"/>
<path d="M102.17 84.09C102.32 84.26 102.48 84.44 102.64 84.6C102.7 84.66 102.78 84.68 102.83 84.75C103.03 84.97 103.24 85.17 103.43 85.42C103.52 85.52 103.62 85.6 103.72 85.67C103.85 85.76 103.98 85.86 104.08 86.01C104.11 86.06 104.06 86.13 103.97 86.21C103.88 86.28 103.74 86.37 103.64 86.36C103.29 86.32 102.93 86.3 102.68 86.07C102.55 85.91 102.33 85.87 102.16 85.76C101.97 85.64 101.79 85.51 101.61 85.39C101.5 85.31 101.38 85.23 101.27 85.16C101.09 85.06 100.95 84.89 100.76 84.81C100.62 84.74 100.44 84.74 100.27 84.71C100.23 84.71 100.19 84.71 100.16 84.69C100.05 84.62 100.06 84.52 100.2 84.21L100.3 84C100.42 83.77 100.57 83.61 100.7 83.56C101.09 83.45 101.37 83.56 101.64 83.67C101.85 83.74 102.01 83.93 102.18 84.07L102.16 84.1L102.17 84.09Z" fill="#231F20"/>
<path d="M37.4598 46.18C38.8698 45.13 39.8798 43.66 40.7598 42.16C41.1198 41.54 41.4598 40.91 41.7898 40.28C41.8998 40.07 42.0098 39.85 42.1298 39.64C42.1698 39.57 42.2198 39.5 42.2498 39.43L42.2898 39.37C42.3598 39.42 41.9398 39.71 41.9598 39.69L41.3898 39.84L41.1098 39.8L40.6098 39.51C40.6098 39.51 40.2898 38.9 40.3698 39.14C40.4098 39.25 40.3698 39.44 40.3698 39.07C40.3698 39.28 40.4098 39.49 40.4298 39.7C40.4798 40.31 40.5098 40.92 40.5598 41.53C40.6798 43.02 40.8198 44.55 41.2498 45.99C41.4298 46.6 41.6698 47.23 42.0498 47.75C42.0898 47.8 42.3298 48.19 42.1198 47.87C42.1398 47.9 42.1598 47.93 42.1698 47.96C42.2598 48.13 42.4098 48.26 42.5498 48.38C42.8898 48.64 43.3198 48.75 43.7498 48.64C44.9098 48.35 45.6298 46.95 46.1998 46.01C46.6398 45.28 47.0598 44.55 47.4898 43.82C47.6898 43.49 47.8898 43.16 48.0998 42.84C48.1998 42.68 48.3098 42.53 48.4198 42.38C48.4398 42.35 48.5598 42.19 48.4698 42.31C48.3798 42.43 48.5798 42.19 48.5998 42.16C48.9998 41.7 49.0498 41.02 48.5998 40.57C48.1898 40.16 47.4098 40.11 47.0098 40.57C45.7298 42.04 44.9198 43.88 43.8598 45.51C43.7498 45.68 43.6298 45.86 43.5098 46.03C43.4898 46.06 43.2898 46.31 43.4598 46.1C43.4098 46.17 43.3598 46.23 43.2998 46.29C43.2098 46.4 43.0998 46.49 42.9998 46.59C43.1998 46.39 43.1398 46.48 43.0498 46.54C43.2098 46.44 43.3798 46.4 43.6398 46.47C43.8198 46.52 44.2498 47 44.0398 46.68L43.8598 46.45C43.9498 46.58 43.9598 46.59 43.8898 46.49C43.8398 46.42 43.7998 46.35 43.7598 46.27C43.5698 45.94 43.5198 45.77 43.3698 45.24C42.8698 43.44 42.8198 41.74 42.6798 39.82C42.6398 39.2 42.6798 38.4 42.1998 37.92C41.7198 37.44 40.9898 37.48 40.5398 37.94C40.3298 38.15 40.1898 38.44 40.0498 38.7C39.5398 39.65 39.0398 40.61 38.4698 41.53C38.1498 42.04 37.7998 42.58 37.4398 43.03C37.2398 43.27 37.0398 43.51 36.8198 43.73C36.7298 43.82 36.6398 43.91 36.5398 44C36.4998 44.03 36.1998 44.28 36.2998 44.21C35.8098 44.57 35.5598 45.18 35.8998 45.75C36.1798 46.23 36.9498 46.52 37.4398 46.15L37.4598 46.18Z" fill="#231F20"/>
<path d="M57.8098 43.55C56.9398 43.11 56.0198 42.76 55.0598 42.56C54.3898 42.42 53.6198 42.28 52.9498 42.53C51.6798 43 50.8198 44.25 50.1298 45.35C49.4798 46.4 48.9298 47.52 48.4898 48.67C48.3298 49.11 48.2198 49.53 48.3398 50C48.5098 50.68 49.0598 51.18 49.6398 51.52C50.9798 52.3 52.6898 52.63 54.2198 52.74C54.8298 52.78 55.3398 52.19 55.3398 51.62C55.3398 50.98 54.8198 50.54 54.2198 50.5C54.0998 50.5 53.9898 50.48 53.8698 50.47C53.8198 50.47 53.7698 50.46 53.7198 50.45C53.9998 50.47 53.8398 50.47 53.7798 50.45C53.4798 50.4 53.1798 50.35 52.8898 50.29C52.2998 50.16 51.6998 50 51.1398 49.77C51.3598 49.86 51.0898 49.74 51.0098 49.7C50.8898 49.64 50.7698 49.57 50.6598 49.5C50.6198 49.47 50.5798 49.44 50.5398 49.41C50.7498 49.52 50.6598 49.51 50.5998 49.45C50.5698 49.42 50.5198 49.36 50.4798 49.33C50.3998 49.28 50.6198 49.56 50.5098 49.36C50.4598 49.27 50.4498 49.16 50.5398 49.45C50.5098 49.36 50.5398 49.28 50.5398 49.59C50.5298 49.35 50.4498 49.9 50.5098 49.75C50.5598 49.65 50.5798 49.52 50.6098 49.41C50.6698 49.25 50.7298 49.09 50.7998 48.93C50.6598 49.28 50.8198 48.88 50.8498 48.81C50.8998 48.69 50.9598 48.57 51.0098 48.46C51.2498 47.95 51.5098 47.45 51.7898 46.97C52.0698 46.49 52.3898 45.97 52.7498 45.51C52.5998 45.7 52.7798 45.47 52.8398 45.4C52.9298 45.3 53.0198 45.2 53.1098 45.1C53.1798 45.03 53.2498 44.96 53.3298 44.89C53.3698 44.85 53.4298 44.81 53.4698 44.77C53.5398 44.7 53.2498 44.91 53.4698 44.78C53.4898 44.77 53.7498 44.59 53.7698 44.61C53.7698 44.61 53.4898 44.71 53.6598 44.66C53.8698 44.59 53.6198 44.63 53.5898 44.66C53.6398 44.61 53.9098 44.66 53.9698 44.66C53.9698 44.66 54.2698 44.69 54.0998 44.66C53.9498 44.64 54.2698 44.69 54.2998 44.7C54.7098 44.78 55.1198 44.89 55.5098 45.02C55.9798 45.17 56.2498 45.29 56.6698 45.5C57.2098 45.78 57.8898 45.64 58.2098 45.1C58.4998 44.6 58.3498 43.84 57.8098 43.56V43.55Z" fill="#231F20"/>
<path d="M50.08 47.59C51.45 48.21 52.95 48.45 54.38 48.89C54.94 49.06 55.63 48.68 55.76 48.1C55.9 47.49 55.58 46.9 54.97 46.72C54.31 46.52 53.63 46.36 52.96 46.19C52.6 46.1 52.25 46 51.89 45.89C51.73 45.84 51.58 45.79 51.42 45.74C51.34 45.71 51.26 45.68 51.18 45.65C51.15 45.64 51.12 45.63 51.09 45.61C51.44 45.74 51.27 45.69 51.19 45.65C50.91 45.52 50.63 45.45 50.32 45.54C50.06 45.61 49.78 45.81 49.65 46.06C49.39 46.55 49.48 47.34 50.05 47.6L50.08 47.59Z" fill="#231F20"/>
<path d="M60.3499 47.26C60.3499 48.43 60.2799 49.6 60.2699 50.76C60.2599 51.83 60.2199 53.06 60.5999 54.08C60.7999 54.63 61.1199 55.12 61.6799 55.36C62.1599 55.56 62.6999 55.55 63.1899 55.37C64.3399 54.97 65.3299 54.14 66.2399 53.36C67.3699 52.39 68.4299 51.33 69.4699 50.27C69.8799 49.85 69.9199 49.09 69.4699 48.68C69.0199 48.27 68.3199 48.23 67.8799 48.68C67.0399 49.54 66.1899 50.39 65.2999 51.2C64.8599 51.6 64.4099 51.99 63.9399 52.36C64.1199 52.22 63.8699 52.41 63.7999 52.46C63.6999 52.54 63.5899 52.61 63.4799 52.68C63.2799 52.82 63.0699 52.95 62.8499 53.07C62.7699 53.11 62.6899 53.15 62.6099 53.19C62.4499 53.28 62.6799 53.15 62.6999 53.15C62.6699 53.15 62.5899 53.19 62.5599 53.2C62.4799 53.23 62.3999 53.24 62.3199 53.26C62.2499 53.28 62.0599 53.28 62.4699 53.24C62.4299 53.24 62.3799 53.24 62.3399 53.24C62.4699 53.25 62.6199 53.31 62.4399 53.24C62.7699 53.36 62.6799 53.35 62.6099 53.3C62.8899 53.47 62.8099 53.47 62.7499 53.4C62.5799 53.24 62.8599 53.62 62.7799 53.44C62.7599 53.4 62.7399 53.37 62.7199 53.33C62.6299 53.18 62.7899 53.55 62.7599 53.43C62.7199 53.26 62.6599 53.09 62.6299 52.92C62.6299 52.87 62.6199 52.83 62.6099 52.78C62.5599 52.54 62.6299 52.99 62.6099 52.82C62.6099 52.69 62.5799 52.56 62.5699 52.43C62.5299 51.9 62.5199 51.36 62.5299 50.83C62.5299 49.63 62.6199 48.43 62.6099 47.23C62.6099 46.64 62.0999 46.08 61.4899 46.11C60.8799 46.14 60.3599 46.6 60.3699 47.23L60.3499 47.26Z" fill="#231F20"/>
<path d="M63.76 47.58C64.38 49.87 64.51 52.26 65.11 54.55C65.37 55.51 65.73 56.69 66.79 57.02C68.07 57.42 69.23 56.38 70.04 55.53C71.21 54.31 72.17 52.91 73.26 51.62C73.65 51.16 73.71 50.48 73.26 50.03C72.86 49.63 72.06 49.56 71.67 50.03C70.77 51.09 69.95 52.22 69.05 53.27C68.66 53.72 68.25 54.18 67.79 54.56C67.74 54.6 67.7 54.64 67.65 54.67C67.84 54.52 67.72 54.62 67.67 54.65C67.57 54.71 67.47 54.77 67.37 54.83C67.33 54.85 67.18 54.91 67.35 54.85C67.53 54.78 67.36 54.85 67.33 54.85C67.29 54.85 66.97 54.87 67.42 54.85C67.35 54.85 67.23 54.81 67.4 54.87C67.59 54.93 67.47 54.87 67.42 54.87C67.29 54.83 67.66 54.98 67.54 54.92C67.3 54.81 67.75 55.13 67.59 54.96C67.49 54.86 67.75 55.23 67.64 55.01C67.6 54.93 67.56 54.85 67.52 54.78C67.43 54.64 67.61 55.04 67.52 54.76C67.49 54.67 67.46 54.58 67.43 54.49C67.36 54.26 67.29 54.02 67.23 53.79C66.94 52.65 66.75 51.49 66.56 50.34C66.37 49.19 66.22 48.08 65.92 46.99C65.54 45.59 63.37 46.19 63.75 47.59L63.76 47.58Z" fill="#231F20"/>
<path d="M83.4399 51.73C82.8399 51.38 82.3199 50.92 81.6999 50.61C80.8099 50.16 79.7899 49.89 78.7999 50.18C78.0199 50.41 77.2799 50.96 76.9299 51.7C76.6199 52.36 76.6099 53.05 76.7599 53.75C77.0199 54.92 77.7299 55.97 78.2699 57.03C78.3299 57.15 78.3899 57.28 78.4499 57.4C78.4799 57.46 78.4999 57.52 78.5299 57.58C78.3899 57.27 78.4899 57.48 78.5099 57.55C78.5499 57.67 78.5899 57.78 78.6299 57.9C78.6499 57.99 78.6599 58.17 78.7099 58.23C78.5999 58.08 78.7099 57.96 78.6899 58.14C78.6899 58.18 78.6899 58.25 78.6899 58.29C78.7299 58.47 78.7799 58.02 78.7099 58.19C78.6999 58.22 78.6799 58.29 78.6699 58.33C78.6599 58.52 78.7899 58.06 78.7099 58.24C78.7099 58.25 78.6399 58.37 78.6299 58.36C78.8999 58.45 78.7099 58.07 78.6699 58.29C78.6399 58.32 78.6199 58.34 78.5899 58.36L78.7299 58.25C78.7299 58.25 78.5899 58.34 78.5699 58.35C78.5299 58.37 78.4899 58.39 78.4499 58.41C78.3299 58.47 78.3699 58.45 78.5699 58.36C78.5699 58.37 78.4299 58.4 78.4199 58.41C78.3799 58.41 78.3499 58.43 78.3099 58.43C78.1899 58.45 78.2299 58.45 78.4299 58.42C78.3799 58.48 78.0299 58.42 77.9499 58.42C77.6499 58.36 77.8699 58.42 77.9499 58.42C77.8699 58.4 77.7899 58.39 77.7099 58.37C77.6299 58.35 77.5399 58.33 77.4599 58.3C77.4099 58.28 77.0699 58.13 77.3099 58.25C77.0999 58.15 76.8999 58.03 76.7099 57.9C76.4899 57.76 76.0299 57.25 75.7999 56.9C75.4699 56.39 74.7999 56.18 74.2599 56.5C73.7599 56.8 73.5199 57.53 73.8599 58.04C74.8599 59.57 76.5499 60.85 78.4699 60.66C79.8699 60.52 81.0799 59.47 80.9299 57.97C80.7999 56.71 80.0599 55.61 79.4899 54.51C79.3699 54.28 79.2599 54.04 79.1399 53.8C79.0299 53.57 79.2299 54.05 79.1399 53.81C79.1199 53.75 79.0899 53.68 79.0699 53.62C79.0199 53.48 78.9699 53.33 78.9399 53.19C78.9299 53.13 78.9199 53.07 78.8999 53.01C78.8399 52.79 78.8999 53.29 78.8999 53.07C78.8999 52.96 78.8999 52.84 78.8999 52.73C78.8999 52.52 78.8199 53 78.8999 52.81C78.9199 52.76 78.9299 52.7 78.9399 52.65C78.9799 52.45 78.7999 52.88 78.9099 52.72C78.9199 52.7 79.0199 52.52 79.0299 52.53C79.0799 52.55 78.8099 52.75 79.0099 52.57C79.0599 52.53 79.0999 52.48 79.1499 52.44C78.9399 52.62 79.2299 52.4 79.2599 52.38C79.3799 52.32 79.3899 52.31 79.2799 52.36C79.3399 52.34 79.4099 52.32 79.4799 52.3C79.7399 52.21 79.3099 52.28 79.5799 52.28C79.6299 52.28 80.0399 52.32 79.7699 52.28C79.9999 52.32 80.2299 52.39 80.4399 52.48C80.2099 52.39 80.5099 52.52 80.5399 52.53C80.6599 52.59 80.7799 52.65 80.8899 52.72C81.0799 52.83 81.2699 52.95 81.4499 53.08C81.7299 53.27 81.9899 53.48 82.2799 53.65C82.7999 53.96 83.5099 53.77 83.8199 53.25C84.1299 52.73 83.9399 52.02 83.4199 51.71L83.4399 51.73Z" fill="#231F20"/>
<path d="M46.9798 17.85C48.1498 18.83 49.3098 19.81 50.4898 20.75C50.9198 21.09 51.3898 21.38 51.8198 21.72C53.3298 22.94 54.8498 24.15 56.4298 25.27C57.1398 25.75 57.8698 26.21 58.5898 26.65L60.0098 27.46C60.4598 27.77 60.8798 28.14 61.3198 28.49C61.5898 28.72 61.4798 28.87 61.0998 28.99C60.7298 29.1 60.0298 29.29 59.3498 29.18C58.2398 28.8 57.1898 28.31 56.1698 27.77C55.1998 27.14 54.2698 26.46 53.3898 25.71C52.3398 24.82 51.0898 24.11 49.9598 23.29C48.7198 22.38 47.4998 21.44 46.2898 20.5L44.4598 19.06C44.3198 18.97 44.1098 18.73 43.9998 18.96C43.8798 19.1 43.7598 19.25 43.6398 19.4C43.5598 19.5 43.2998 19.88 43.1298 20.15C42.9398 20.44 42.7498 20.74 42.5698 21.05C42.0098 21.99 41.6098 23.01 41.1098 23.98C40.9998 24.19 40.9198 24.42 40.7898 24.63C40.2298 25.33 39.8898 25.46 39.3198 25.34C39.1898 25.31 39.0598 25.29 38.9398 25.25C38.5598 25.11 38.4398 24.61 38.5598 23.91C38.6198 23.38 38.8098 22.92 38.9998 22.45C39.1798 21.98 39.4098 21.53 39.6498 21.07C40.1298 20.17 40.6598 19.28 41.2298 18.4L41.3898 18.15L41.7098 17.68C41.9298 17.37 42.1398 17.05 42.3898 16.8C42.6198 16.49 42.8998 16.37 43.1598 16.23C43.2898 16.16 43.3998 16.09 43.5498 16.03C43.6998 16.01 43.8398 16.06 43.9798 16.06L44.4198 16.12L44.6498 16.15L44.8898 16.28C45.2098 16.43 45.5098 16.67 45.8198 16.88L47.0098 17.76L46.9698 17.81L46.9798 17.85Z" fill="#231F20"/>
<path d="M30.9001 14.71C30.7801 15.68 30.1901 16.57 29.3001 17.03C28.9801 17.2 28.6201 17.35 28.2701 17.36C27.6501 17.36 27.1101 17.15 26.6701 16.82C26.2201 16.5 25.9401 15.91 25.9101 15.4C25.8801 14.95 25.9601 14.54 26.0901 14.21C26.2501 13.77 26.4801 13.4 26.8101 13.14C26.9201 13.06 27.0601 13.17 27.1801 13.36C27.3001 13.55 27.4301 13.85 27.4001 14.05C27.3401 14.42 27.3501 14.75 27.4201 14.9C27.5001 15.08 27.5301 15.02 27.5601 15.15C27.6001 15.36 27.9401 15.31 28.0401 15.26C28.1501 15.25 28.3701 15.11 28.4601 14.82C28.5301 14.66 28.5701 14.46 28.5401 14.29C28.5201 14.04 28.2801 13.75 28.0801 13.72C27.9901 13.71 27.9601 13.75 27.9601 13.79C27.9501 13.83 27.9401 13.9 27.9601 13.94C27.9601 13.96 28.0201 13.98 27.9301 13.94C27.8201 13.91 27.7701 13.92 27.7401 13.93C27.7001 13.93 27.5001 14.01 27.3301 14.11C27.2501 14.16 27.1701 14.22 27.0901 14.27C26.9601 14.36 26.8301 14.41 26.6601 14.37C26.4901 14.33 26.2901 14.18 26.1701 13.91C25.9901 13.5 26.1001 13.09 26.2401 12.72C26.4001 12.35 26.6601 12.02 27.0701 11.77C27.9901 11.26 28.9801 11.42 29.6201 11.88C30.5801 12.51 31.0201 13.7 30.9501 14.69H30.8901L30.9001 14.71Z" fill="#231F20"/>
<path d="M20.5901 23.89C20.7601 24.73 20.5501 25.59 20.1501 26.26C19.9901 26.52 19.8501 26.81 19.5601 27.02C19.0401 27.42 18.4301 27.48 17.9301 27.38C17.4301 27.28 16.9801 27.02 16.6801 26.63C16.4201 26.29 16.2701 25.91 16.2701 25.54C16.2401 25.08 16.4201 24.57 16.8301 24.34C16.9601 24.27 17.0401 24.41 17.1201 24.6C17.1901 24.79 17.3501 25.01 17.4001 25.12C17.4601 25.33 17.6401 25.47 17.7101 25.49C17.7801 25.51 17.7701 25.49 17.8701 25.57C17.9301 25.62 18.0101 25.59 18.0401 25.54C18.0901 25.49 18.0501 25.49 18.0901 25.45C18.1301 25.41 18.1901 25.31 18.2401 25.18C18.2801 25.07 18.3001 24.94 18.3001 24.8C18.3001 24.63 18.3001 24.45 18.2201 24.32C18.1701 24.22 18.1201 24.14 18.0401 24.08C17.9801 24.04 17.9401 24.02 17.8401 24.03C17.6901 24.07 17.6201 24.33 17.6901 24.39C17.7401 24.42 17.6401 24.37 17.6201 24.36C17.5301 24.34 17.5301 24.34 17.5301 24.34C17.5201 24.34 17.2801 24.39 17.0501 24.47C16.9301 24.51 16.8201 24.56 16.7101 24.61C16.3601 24.78 15.9201 24.74 15.7401 24.23C15.5101 23.46 15.9001 22.72 16.3901 22.27C16.8901 21.82 17.6501 21.49 18.5601 21.68C19.8201 22.01 20.4301 23 20.6601 23.83L20.6001 23.85L20.5901 23.89Z" fill="#231F20"/>
<path d="M19.0899 16.44C19.0499 16.97 18.8199 17.41 18.4699 17.77C18.3399 17.9 18.2299 18.05 18.0399 18.14C17.3299 18.43 16.6199 18.19 16.2299 17.67C16.0499 17.44 15.9799 17.12 15.9999 16.88C15.9999 16.72 16.0499 16.55 16.1799 16.43C16.2799 16.3 16.4199 16.19 16.5899 16.17C16.6999 16.17 16.7399 16.36 16.8099 16.55C16.8399 16.64 16.9199 16.76 16.9599 16.81C16.9599 16.81 16.9899 16.84 17.0199 16.85C17.1399 16.91 17.1099 16.85 17.0099 16.9C17.0599 16.87 17.1099 16.8 17.1299 16.72C17.1299 16.68 17.1299 16.69 17.1299 16.74V16.77L17.1499 16.79L17.0999 16.69C17.0999 16.69 17.0699 16.65 17.0599 16.64C17.0899 16.68 17.1999 16.64 17.2599 16.55C17.2999 16.51 17.3299 16.43 17.3299 16.37C17.3399 16.28 17.2999 16.18 17.2799 16.2C17.2699 16.2 17.2399 16.24 17.2399 16.28C17.2399 16.3 17.2399 16.32 17.2399 16.33C17.2399 16.31 17.2199 16.29 17.2099 16.27C17.1999 16.25 17.1799 16.23 17.1699 16.21C17.0799 16.15 17.2499 16.21 16.8499 16.07L16.6399 16.02C16.4199 15.98 16.1999 15.83 16.1899 15.48C16.3299 14.49 17.6099 14.21 18.4099 14.87C18.9499 15.32 19.0999 15.92 19.1099 16.43H19.0699L19.0899 16.44Z" fill="#231F20"/>
</svg>
