<svg width="128" height="128" viewBox="0 0 128 128" fill="none" xmlns="http://www.w3.org/2000/svg">
<path d="M102 75.7899L92.6902 82.1899C91.5502 82.9599 90.4402 83.7699 89.3002 84.5299C87.3002 85.8599 85.3002 87.1899 83.1202 88.4299C82.8502 88.5799 82.5802 88.7299 82.2802 88.8799C82.0937 88.973 81.8997 89.0499 81.7001 89.1099C81.5886 89.154 81.4701 89.1777 81.3502 89.1799H81.2401H81.1902H81.0102L80.3401 88.9999L79.8602 88.7899C79.5489 88.6351 79.2512 88.4545 78.9702 88.2499C77.915 87.4005 77.1155 86.2756 76.6602 84.9999C75.932 82.8919 75.5932 80.6691 75.6602 78.4399C75.6638 77.0319 75.7875 75.6268 76.0302 74.2399C76.2608 72.819 76.7743 71.4588 77.5402 70.2399C77.8202 69.8399 78.1002 69.7599 78.1802 69.8799C78.2602 69.9999 78.2701 70.2999 78.2701 70.6899C78.2326 71.8551 78.1022 73.0154 77.8801 74.1599C77.3442 76.7395 77.2664 79.3933 77.6502 81.9999C77.8254 83.2425 78.2433 84.4386 78.8801 85.5199C79.1672 86.0264 79.5472 86.4742 80.0002 86.8399C80.2267 87.0075 80.4677 87.1547 80.7202 87.2799C80.8387 87.341 80.9625 87.3912 81.0901 87.4299C81.1058 87.4371 81.1229 87.4408 81.1402 87.4408C81.1574 87.4408 81.1745 87.4371 81.1902 87.4299C81.4758 87.3235 81.7504 87.1895 82.0102 87.0299C82.3702 86.8399 82.7301 86.6199 83.0901 86.3999C83.8101 85.9599 84.5202 85.4999 85.2402 85.0199L89.5002 82.0999C92.6202 79.9599 95.7268 77.7999 98.8202 75.6199L104.51 71.6199L108.79 68.4999L110.88 66.9099L111.38 66.4999C111.5 66.3899 111.6 66.3499 111.65 66.2199C111.672 66.0908 111.672 65.959 111.65 65.8299C111.65 65.6399 111.65 65.4299 111.65 65.2199C111.181 62.5323 110.894 59.8161 110.79 57.0899C110.789 56.4676 110.832 55.846 110.92 55.2299C111.005 54.3834 111.278 53.5668 111.72 52.8399C111.92 52.4783 112.238 52.196 112.62 52.0399C112.745 51.9788 112.875 51.9318 113.01 51.8999C113.38 51.8999 113.08 52.7399 112.92 54.2299C112.648 56.5603 112.712 58.9177 113.11 61.2299C113.27 62.4499 113.46 63.6499 113.6 65.0099V65.5399C113.614 65.773 113.614 66.0068 113.6 66.2399C113.588 66.551 113.511 66.8562 113.373 67.1354C113.235 67.4146 113.04 67.6615 112.8 67.8599L112.33 68.2499L111.94 68.5599L111.18 69.1499C108.18 71.4599 105.04 73.6599 101.94 75.8699L102 75.7899Z" fill="#231F20"/>
<path d="M13.74 89.59C12.74 89.49 11.74 89.38 10.68 89.18L9.88005 89C9.59005 88.92 9.29005 88.82 9.00005 88.72C8.79989 88.6338 8.60608 88.5335 8.42005 88.42L8.14005 88.23L8.00005 88.11L7.42005 87.53C5.85975 85.9661 4.7418 84.0166 4.18005 81.88C3.64643 79.783 3.58495 77.5937 4.00005 75.47C4.40586 73.3827 5.18138 71.3846 6.29005 69.57C7.11706 68.1974 8.18799 66.9875 9.45005 66C9.62005 65.88 9.75005 65.76 10.01 65.6C10.2564 65.4745 10.5188 65.3837 10.79 65.33C11.19 65.23 11.56 65.17 11.94 65.11C12.6884 64.9922 13.443 64.9187 14.2 64.89C24.44 64.53 34.61 64.72 44.8 64.99C49.32 65.11 53.86 65.23 58.35 65.42C61.23 65.54 64.12 65.67 67.01 65.91C68.4501 66.03 69.9 66.18 71.34 66.38C72.811 66.5798 74.2605 66.9145 75.67 67.38C76.0403 67.4962 76.3814 67.6906 76.67 67.95C76.86 68.15 76.9 68.32 76.82 68.35C76.74 68.38 76.19 68.25 75.44 68.24C73.94 68.17 71.18 68.24 67.91 67.94C62.1 67.47 56.23 67.29 50.36 67.11L32.66 66.7C29.12 66.62 25.51 66.64 21.88 66.7C20.07 66.7 18.25 66.79 16.44 66.86C14.6851 66.8763 12.935 67.047 11.21 67.37C11.0756 67.3889 10.95 67.4482 10.85 67.54L10.33 67.93C9.97679 68.2215 9.64276 68.5355 9.33005 68.87C8.7119 69.5668 8.17511 70.3318 7.73005 71.15C6.83196 72.8022 6.24553 74.6056 6.00005 76.47C5.69664 78.3185 5.8302 80.2124 6.39005 82C6.96061 83.7656 7.99705 85.3444 9.39005 86.57C9.45162 86.6423 9.53085 86.6974 9.62005 86.73L9.73005 86.79L9.91005 86.85C10.1676 86.9402 10.4317 87.0104 10.7 87.06C11.26 87.19 11.86 87.25 12.45 87.34C13.64 87.48 14.85 87.58 16.07 87.66C18.5 87.81 20.95 87.89 23.4 87.95C30.81 88.12 38.28 88.15 45.66 88.13C51.39 88.13 57.02 87.97 62.66 88.02C63.92 88.02 65.14 88.02 66.41 88.07C71.1001 88.25 72.63 88.64 73.54 89.35C73.7514 89.4945 73.946 89.6622 74.12 89.85C74.4501 90.37 72.62 90.31 69.24 90.24C64.24 90.13 59.02 90.24 53.75 90.24L37.75 90.31C33.75 90.31 29.75 90.31 25.75 90.22C21.75 90.13 17.75 90.04 13.67 89.69L13.74 89.59Z" fill="#231F20"/>
<path d="M34.44 51L29 54.54C28.33 54.97 27.69 55.44 27 55.86L19.84 60.22L16.68 62.22C15.367 63.1416 13.9336 63.8785 12.42 64.41C11.94 64.57 11.87 64.22 12.09 63.72C12.4195 63.0483 12.9283 62.4808 13.56 62.08C16.27 60.48 18.97 58.78 21.78 57.16C23.47 56.16 25.12 55.01 26.78 53.93L32.24 50.33L35.59 48.09L40.66 44.67C41.95 43.78 43.18 42.83 44.45 41.92C44.73 41.72 45.01 41.54 45.31 41.36C46.41 40.7 46.84 40.62 47.31 40.82C47.4135 40.8586 47.5139 40.9055 47.61 40.96C47.86 41.14 47.61 41.66 46.85 42.27C45.7759 43.1955 44.6508 44.0602 43.48 44.86L39.91 47.34L34.46 51H34.44Z" fill="#231F20"/>
<path d="M108.73 48C106.937 46.5183 104.814 45.4894 102.54 45C100.156 44.4427 97.726 44.108 95.2803 44C93.4703 44 91.6503 44 89.8303 44C86.6103 44 83.3803 44.12 80.1403 44.27C76.9003 44.42 73.6603 44.62 70.3603 44.56C67.447 44.475 64.5464 44.1404 61.6903 43.56C58.0274 42.9309 54.4678 41.8038 51.1103 40.21C50.1103 39.69 50.2903 39.61 51.2603 39.77L53.2603 40.12C54.1966 40.2639 55.1246 40.4576 56.0403 40.7C59.6099 41.6088 63.2493 42.2176 66.9203 42.52C70.6157 42.78 74.3249 42.78 78.0203 42.52C82.5303 42.35 87.2403 41.88 91.9203 41.89C94.5019 41.8741 97.0814 42.0379 99.6403 42.38C102.26 42.6932 104.816 43.4047 107.22 44.49C107.59 44.68 107.95 44.89 108.31 45.08C108.67 45.27 109.01 45.54 109.31 45.78C109.61 46.02 109.98 46.3 110.31 46.6L110.75 47.05C110.94 47.2377 111.105 47.4495 111.24 47.68L111.7 48.38C111.769 48.4967 111.805 48.6296 111.805 48.765C111.805 48.9003 111.769 49.0333 111.7 49.15C111.437 49.6467 111.068 50.0801 110.62 50.42C109.99 50.96 109.34 51.42 108.69 51.88C104.69 54.57 100.57 56.88 96.5503 59.34C93.4103 61.22 90.3903 63.16 87.3603 65.11L85.3603 66.41C82.8803 68.02 82.0703 68.41 81.2603 68.34C81.0703 68.34 80.8603 68.34 80.7003 68.34C80.5403 68.34 80.4403 67.96 80.8003 67.45C81.3261 66.7568 81.9531 66.1467 82.6603 65.64C88.0003 61.82 93.9103 58.47 99.7503 54.94C101.92 53.63 104.09 52.33 106.18 50.94C107.216 50.2858 108.218 49.5781 109.18 48.82L109.31 48.71L108.76 48.15L108.73 48Z" fill="#231F20"/>
<path d="M23.0001 108.77C28.0001 108.68 33.0001 108.54 38.0001 108.38L43.4801 108.14C49.9201 107.94 56.3634 107.787 62.8101 107.68L71.4001 107.48C73.2201 107.48 75.0601 107.41 76.8901 107.48C78.7536 107.506 80.6096 107.721 82.4301 108.12C83.6401 108.62 83.2501 108.76 82.2901 108.89C80.7111 109.199 79.1086 109.373 77.5001 109.41L55.2001 109.71C50.7201 109.71 46.0601 110.02 41.4701 110.18C36.4234 110.36 31.3734 110.513 26.3201 110.64C23.2068 110.72 20.0934 110.767 16.9801 110.78C14.5928 110.828 12.2049 110.728 9.83009 110.48L9.37009 110.41L8.86009 110.26C8.55683 110.145 8.26546 110.001 7.99009 109.83C7.7076 109.688 7.43676 109.524 7.18009 109.34L6.45009 108.75C5.9898 108.326 5.55881 107.872 5.16009 107.39C4.7999 106.884 4.46612 106.36 4.16009 105.82C3.27865 104.151 2.71251 102.334 2.49009 100.46C2.24672 98.6025 2.27367 96.7196 2.57009 94.8699C2.70412 94.0469 2.89797 93.2348 3.15009 92.4399C3.48884 91.37 4.02472 90.3729 4.73009 89.4999C5.04099 89.0631 5.50521 88.7595 6.03009 88.6499C6.20511 88.5953 6.38681 88.565 6.57009 88.5599C6.81009 88.5599 6.81009 88.8999 6.57009 89.3899L5.64009 91.4999C4.49826 94.3535 4.10915 97.4527 4.51009 100.5C4.86009 103.5 6.22009 106.57 8.64009 108.04L9.33009 108.42C9.44009 108.48 9.50009 108.42 9.58009 108.5H9.70009H9.91009C10.4301 108.59 11.0401 108.62 11.6401 108.67C12.8601 108.73 14.1101 108.76 15.3601 108.77C17.8701 108.77 20.3601 108.77 22.9101 108.68L23.0001 108.77Z" fill="#231F20"/>
<path d="M83.6899 101.55C83.4999 100.75 83.3499 99.92 83.2399 99.1C83.2399 98.8 83.1099 98.51 83.0899 98.21C83.0098 97.1482 83.0098 96.0818 83.0899 95.02C83.1499 94.56 83.1599 94.09 83.2099 93.63C83.2125 93.0338 83.3279 92.4434 83.5499 91.89C83.6899 91.55 84.7399 92.23 84.7399 92.89C84.7363 94.0068 84.6628 95.1224 84.5199 96.23C84.4987 96.9219 84.5625 97.6137 84.7099 98.29C84.8299 99.05 84.9699 99.8 85.1599 100.55C85.2799 101.02 85.4099 101.48 85.5599 101.93C85.7791 102.613 86.043 103.281 86.3499 103.93C86.5999 104.44 86.9699 104.93 87.2499 105.38C87.3099 105.49 87.3899 105.59 87.4499 105.7C87.6599 106.12 87.5499 106.34 87.1899 106.6L86.9399 106.79C86.7939 106.871 86.6257 106.903 86.4601 106.882C86.2945 106.86 86.1402 106.786 86.0199 106.67C85.2719 105.886 84.7052 104.947 84.3599 103.92C84.0699 103.15 83.8199 102.36 83.5999 101.56L83.6899 101.55Z" fill="#231F20"/>
<path d="M109.67 90.3299C108.1 91.6599 106.47 92.8999 104.88 94.1799C104.3 94.6399 103.76 95.1799 103.17 95.6099C101.11 97.2299 99.0301 98.8299 97.0201 100.49C96.1201 101.23 95.2501 102 94.4301 102.8C93.9001 103.31 93.4301 103.8 92.8801 104.36C92.3301 104.92 91.9301 105.36 91.4301 105.84C91.2801 106 90.7901 106 90.6101 105.35C90.5411 104.959 90.562 104.558 90.6712 104.177C90.7803 103.796 90.9749 103.445 91.2401 103.15C93.3499 100.882 95.6966 98.8473 98.2401 97.0799C99.7301 96.0099 101.12 94.7099 102.58 93.5299L107.37 89.6599C108.37 88.8699 109.37 88.0799 110.29 87.2599C111 86.6399 111.74 86.0099 112.34 85.3699C112.46 85.2299 112.54 85.1499 112.55 85.0099V84.4299C112.55 83.9699 112.55 83.5099 112.45 83.0399C112.28 81.6099 111.89 80.1699 111.8 78.6499C111.8 78.3199 111.8 77.9999 111.8 77.6499C111.88 76.4099 112.07 76.0299 112.45 75.7999C112.534 75.7446 112.62 75.6945 112.71 75.6499C112.99 75.5599 113.18 76.0599 113.32 76.9199C113.52 78.1999 113.69 79.4399 113.94 80.7399C114.06 81.3999 114.19 82.0799 114.29 82.7399C114.337 83.0999 114.377 83.4599 114.41 83.8199V84.3799C114.41 84.5799 114.41 84.6699 114.41 85.0899C114.359 85.5896 114.16 86.0629 113.84 86.4499C113.61 86.7199 113.43 86.9099 113.24 87.1099C112.85 87.5099 112.46 87.8699 112.08 88.2299C111.3 88.9399 110.52 89.6299 109.74 90.3099L109.67 90.3299Z" fill="#231F20"/>
<path d="M25.5902 77.7999C21.6902 82.3299 23.8202 96.9999 23.8202 96.9999C19.7402 97.9999 16.4202 93.6299 16.4202 93.6299C14.2902 85.5199 17.6202 77.7799 17.6202 77.7799L25.5902 77.7999Z" fill="#231F20"/>
<path d="M113 81C141.93 84.56 111.09 99.95 93.5303 102.72L113.09 86.31L113 81Z" fill="#231F20"/>
<path d="M6.62029 79.06C6.46511 78.0224 6.46511 76.9676 6.62029 75.93C6.65133 75.5512 6.7183 75.1762 6.82029 74.81C7.17951 73.5364 7.78793 72.3468 8.61029 71.31C8.96029 70.86 9.30029 70.39 9.69029 69.98C10.1553 69.4007 10.7382 68.9269 11.4003 68.59C11.6203 68.49 11.7303 68.75 11.7303 69.09C11.743 69.2717 11.7185 69.4541 11.6583 69.6261C11.5981 69.798 11.5035 69.9559 11.3803 70.09C10.4609 71.0128 9.66132 72.0476 9.00029 73.17C8.58128 73.8821 8.29656 74.6651 8.16029 75.48C7.97181 76.3737 7.91788 77.2904 8.00029 78.2C8.04676 78.765 8.14722 79.3242 8.30029 79.87L8.74029 81.09C8.93029 81.48 9.14029 81.86 9.36029 82.24C9.75149 82.784 10.1935 83.2896 10.6803 83.75C10.7903 83.85 10.9103 83.93 11.0103 84.04C11.3903 84.43 11.4403 84.62 11.2503 84.98C11.2003 85.06 11.1703 85.15 11.1203 85.22C10.9403 85.47 10.6103 85.47 10.2603 85.22C9.70481 84.8352 9.20943 84.3701 8.79029 83.84C8.54943 83.5745 8.32565 83.2939 8.12029 83L7.59029 82.08C7.11224 81.1342 6.77533 80.1235 6.59029 79.08L6.62029 79.06Z" fill="#231F20"/>
<path d="M7.66002 98.4199C7.667 99.2321 7.76767 100.041 7.96002 100.83C8.03712 101.12 8.13402 101.404 8.25002 101.68C8.56072 102.695 9.03715 103.651 9.66002 104.51C9.94313 104.89 10.28 105.227 10.66 105.51C10.9142 105.663 11.1551 105.837 11.38 106.03C11.6401 106.185 11.8816 106.37 12.1 106.58C12.22 106.77 12.1 106.92 11.87 107.09C11.7065 107.193 11.5232 107.26 11.332 107.288C11.1408 107.315 10.9459 107.302 10.76 107.25C10.0814 106.948 9.47977 106.497 9.00002 105.93C8.51244 105.409 8.1138 104.811 7.82002 104.16C7.43233 103.408 7.09817 102.629 6.82002 101.83C6.66002 101.39 6.59002 100.93 6.47002 100.48C6.35002 100.03 6.33002 99.5699 6.30002 99.1099C6.26002 98.5406 6.26002 97.9692 6.30002 97.3999C6.36953 96.5443 6.52021 95.6971 6.75002 94.8699C6.91081 94.2311 7.12145 93.6058 7.38002 92.9999C7.42699 92.8563 7.49077 92.7187 7.57002 92.5899C7.92002 92.1299 8.12002 92.0599 8.48002 92.2299C8.56291 92.2639 8.64313 92.304 8.72002 92.3499C8.84219 92.4431 8.92801 92.576 8.9627 92.7257C8.99738 92.8754 8.97875 93.0325 8.91002 93.1699C8.49672 94.1072 8.16223 95.0772 7.91002 96.0699C7.76001 96.8539 7.69962 97.6523 7.73002 98.4499L7.66002 98.4199Z" fill="#231F20"/>
<path d="M33.2699 78.43H28.6299C28.0599 78.43 27.4999 78.43 26.9299 78.43C24.9299 78.43 22.9299 78.32 20.9299 78.25L18.2599 78.18C17.0874 78.2191 15.9195 78.0148 14.8299 77.58C14.4699 77.37 14.6599 77.25 14.9899 77.16C15.4706 77.014 15.9679 76.93 16.4699 76.91C18.6799 76.91 20.9699 76.91 23.2799 77.02C24.6599 77.08 26.0899 76.93 27.5099 76.9L32.1799 76.82H35.0599L39.4199 76.76C40.5499 76.76 41.6499 76.63 42.7799 76.61C43.0299 76.61 43.2699 76.61 43.5199 76.61C44.4499 76.68 44.7499 76.85 44.8999 77.24C44.9388 77.3268 44.969 77.4172 44.9899 77.51C44.9899 77.8 44.6499 77.97 43.9899 78.05C42.0599 78.29 39.9899 78.38 37.9199 78.44H33.2499L33.2699 78.43Z" fill="#231F20"/>
<path d="M47.5401 100.84H43.3001C42.7901 100.84 42.3001 100.84 41.7601 100.84L36.2901 100.69C35.4801 100.69 34.6701 100.69 33.8701 100.69C32.828 100.733 31.7844 100.656 30.7601 100.46C30.4401 100.4 30.5001 100.22 30.7601 100.02C31.1711 99.7496 31.6408 99.5815 32.1301 99.53C33.1301 99.4 34.2101 99.44 35.2501 99.41C36.2901 99.38 37.3501 99.41 38.4001 99.41C39.6701 99.41 40.9801 99.31 42.2701 99.29L46.5401 99.22H49.1701H53.1701C54.1701 99.22 55.1701 99.1 56.2401 99.09C56.4701 99.09 56.6901 99.09 56.9201 99.09C57.7701 99.17 58.0401 99.34 58.1701 99.72C58.2072 99.8031 58.2341 99.8904 58.2501 99.98C58.2501 100.26 57.9201 100.47 57.3301 100.53C55.4918 100.757 53.6422 100.881 51.7901 100.9H47.5401V100.84Z" fill="#231F20"/>
<path d="M73.5501 57.15C71.9001 57.05 70.2501 56.95 68.6101 56.92C66.9701 56.89 65.2501 56.72 63.6101 56.56C61.9701 56.4 60.3201 56.23 58.6901 56.16C57.8801 56.16 57.0701 56.16 56.2601 56.16C55.8601 56.16 55.4601 56.16 55.0701 56.26H54.7701H54.5601H54.3501L54.1201 56.32C54.0301 56.32 54.1201 56.45 54.1201 56.48C54.1818 56.52 54.2492 56.5504 54.3201 56.57C54.4772 56.6208 54.6375 56.6609 54.8001 56.69C55.9301 56.94 57.1301 57.09 58.3101 57.23C64.3601 57.95 70.5001 58.1 76.6101 59.31H76.8501L76.9701 59.5C77.0379 59.5987 77.0823 59.7115 77.1001 59.83C77.1155 59.9804 77.0803 60.1317 77.0001 60.26C76.9519 60.3334 76.8948 60.4006 76.8301 60.46L76.7001 60.54C76.5863 60.5989 76.4653 60.6426 76.3401 60.67C76.1724 60.7119 76.002 60.742 75.8301 60.76C75.5001 60.76 75.1901 60.82 74.8901 60.83C74.2701 60.83 73.6701 60.83 73.0601 60.83C71.8501 60.83 70.6501 60.83 69.4501 60.78L58.1101 60.48C53.2901 60.38 48.4501 60.42 43.6601 60.2C42.1801 60.14 42.3701 59.42 43.6601 58.79C45.6954 57.9597 47.9022 57.6371 50.0901 57.85L63.3801 58.75L70.0101 59.18C71.1101 59.18 72.2201 59.29 73.3201 59.31C73.8601 59.31 74.4101 59.31 74.9501 59.31H75.7101H76.0201L76.0801 59.45C76.0996 59.524 76.1299 59.5948 76.1701 59.66C76.2801 59.81 76.2901 59.87 76.3701 59.9C76.3592 59.8947 76.3472 59.8919 76.3351 59.8919C76.323 59.8919 76.311 59.8947 76.3001 59.9V60.6C75.3801 60.37 74.4201 60.18 73.4601 60.01C70.5601 59.51 67.5501 59.23 64.5201 58.94C61.4901 58.65 58.4301 58.43 55.3901 57.88C54.9501 57.79 54.6001 57.73 54.0701 57.58C53.5135 57.5049 52.9805 57.3068 52.5101 57C52.3303 56.8359 52.2165 56.6119 52.1901 56.37C52.1753 56.2456 52.1997 56.1197 52.2601 56.01L52.5401 55.84C52.7296 55.7061 52.9344 55.5953 53.1501 55.51L54.0801 55.31C54.3277 55.2563 54.5781 55.2162 54.8301 55.19L55.4701 55.12C55.9001 55.12 56.3301 55.05 56.7501 55.06C57.6101 55.06 58.4501 55.06 59.2901 55.06C62.6701 55.25 65.9501 55.81 69.2901 55.81C73.4101 55.92 77.5201 56.33 81.5901 56.35C81.9401 56.35 82.2901 56.35 82.5901 56.35C82.7546 56.341 82.9183 56.321 83.0801 56.29H83.2501L83.3401 56.39C83.3294 56.3838 83.3174 56.3806 83.3051 56.3806C83.2928 56.3806 83.2807 56.3838 83.2701 56.39L83.4301 55.91H83.6001C83.6156 55.9681 83.6357 56.0249 83.6601 56.08C83.6601 56.16 83.6601 56.18 83.6601 56.22C83.6197 56.2454 83.5855 56.2796 83.5601 56.32C83.5601 56.32 83.4701 56.46 83.4501 56.5L83.0001 56.37L82.0001 56.13L80.0001 55.71L76.0801 55L72.0801 54.14L70.0801 53.67L69.0801 53.42L68.5801 53.28L67.9101 53.09C67.3161 52.9326 66.7397 52.7148 66.1901 52.44C65.7892 52.2567 65.4441 51.9703 65.1901 51.61C65.1288 51.4947 65.1055 51.3631 65.1235 51.2338C65.1415 51.1045 65.1998 50.9842 65.2901 50.89C65.4564 50.7409 65.6499 50.6255 65.8601 50.55C66.398 50.3479 66.9657 50.2364 67.5401 50.22H68.5401H69.4001H70.8501C72.7901 50.28 74.7001 50.4 76.6201 50.52L79.7401 50.7C83.6301 50.95 84.8101 51.07 85.6301 51.7C85.8299 51.8169 86.0146 51.958 86.1801 52.12C86.5901 52.6 84.9101 53.04 82.0301 52.85C79.1501 52.66 76.4301 52.41 73.6001 52.15C72.1901 52.02 70.7601 51.9 69.3501 51.83H68.9201H68.7701H68.8301L69.1501 51.92L70.2501 52.23C71.7301 52.62 73.2501 52.98 74.7501 53.32L79.5901 54.37L82.0001 55L83.2401 55.29C83.4501 55.35 83.6501 55.4 83.9001 55.49L84.1201 55.57H84.2101H84.2601L84.3601 55.64C84.4118 55.685 84.4587 55.7353 84.5001 55.79C84.5001 55.85 84.5701 55.79 84.6601 56.14C84.6817 56.2566 84.6786 56.3765 84.651 56.4919C84.6234 56.6073 84.572 56.7156 84.5001 56.81C84.4433 56.8801 84.3758 56.9408 84.3001 56.99C84.1449 57.0903 83.9649 57.1457 83.7801 57.15H83.5701L84.2501 56C84.3449 56.1847 84.3799 56.3944 84.3501 56.6C84.3131 56.7881 84.2229 56.9617 84.0901 57.1C84.0232 57.1688 83.9455 57.2262 83.8601 57.27L83.6701 57.36C83.5202 57.4099 83.3663 57.4467 83.2101 57.47C82.9749 57.5067 82.7379 57.5301 82.5001 57.54C82.0501 57.54 81.6201 57.54 81.1801 57.54C80.3201 57.54 79.4701 57.49 78.6201 57.45L73.5501 57.16V57.15Z" fill="#231F20"/>
<path d="M97.0001 70.4399L99.1901 69.0699C99.4501 68.8999 99.7001 68.6999 99.9601 68.5399L102.8 66.7999C103.21 66.5399 103.61 66.2399 104 65.9499C104.477 65.5415 104.997 65.1861 105.55 64.8899C105.92 64.7299 106.15 65.8899 105.55 66.3199C104.529 67.1046 103.449 67.81 102.32 68.4299C101.64 68.7999 101.01 69.2999 100.32 69.7399L98.1401 71.1599L96.8901 71.9999C96.2101 72.4499 95.5301 72.8899 94.8901 73.3699C94.3901 73.7399 93.9401 74.1599 93.4601 74.5599L93.1501 74.8299C92.7501 75.1299 92.5701 75.1599 92.2901 74.9399C92.2301 74.9399 92.1601 74.8499 92.1101 74.7999C92.0601 74.7499 91.9801 74.3199 92.2401 74.0399C93.0365 73.2088 93.9218 72.4676 94.8801 71.8299C95.5901 71.3299 96.3201 70.8299 97.0401 70.3799L97.0001 70.4399Z" fill="#231F20"/>
<path d="M101.51 84.0699C102.08 83.7699 102.64 83.4299 103.18 83.0699C103.38 82.9399 103.56 82.7699 103.75 82.6499C104.46 82.1799 105.15 81.6499 105.83 81.1799C106.127 80.9528 106.411 80.7091 106.68 80.4499C107.01 80.0968 107.375 79.7785 107.77 79.4999C108.03 79.3399 108.33 80.1999 107.98 80.6399C107.34 81.4101 106.593 82.0837 105.76 82.6399C105.25 82.9599 104.76 83.4099 104.32 83.7799C103.88 84.1499 103.21 84.5699 102.64 84.9399C102.28 85.1599 101.93 85.3799 101.56 85.5899C101.02 85.9199 100.43 86.1899 99.8602 86.4699C99.2902 86.7499 99.0102 86.9699 98.5502 87.1599C98.4509 87.207 98.347 87.2438 98.2402 87.2699C97.8302 87.3499 97.6802 87.2699 97.5302 87.0399L97.4302 86.8699C97.3502 86.6699 97.4302 86.4499 97.6802 86.2699C97.9302 86.0899 98.0202 85.9999 98.1902 85.8599L98.7202 85.5499L99.8102 84.9999C100.36 84.6899 100.94 84.4299 101.49 84.0899L101.51 84.0699Z" fill="#231F20"/>
<path d="M47.47 91.3399L38.33 91.1799H34.99C31.07 91.0899 27.16 90.9899 23.24 90.8199L18 90.6199C15.7701 90.5966 13.5459 90.3892 11.35 89.9999C10.66 89.8599 10.81 89.5999 11.43 89.4099C12.4078 89.152 13.422 89.0608 14.43 89.1399C18.9 89.3999 23.43 89.4399 27.97 89.6499C30.69 89.7899 33.53 89.7299 36.32 89.7599L45.53 89.8599L51.19 89.9299L59.77 90.0599C61.98 90.0599 64.15 90.0599 66.34 90.0599H67.78C69.59 90.1499 70.15 90.2999 70.51 90.6999C70.5983 90.7831 70.6756 90.8772 70.74 90.9799C70.89 91.2799 70.14 91.4799 68.83 91.4799C64.95 91.4799 60.83 91.4799 56.73 91.4799L47.52 91.3699L47.47 91.3399Z" fill="#231F20"/>
<path d="M102.15 76.8499L97.8799 79.7499L96.3499 80.8299L90.8099 84.4899C89.9899 85.0199 89.1799 85.5899 88.3899 86.1599C87.3862 86.913 86.3376 87.6043 85.2499 88.2299C84.5599 88.5999 84.8199 87.2299 85.9799 86.3599C88.0599 84.8999 90.1499 83.4399 92.3399 82.0899C93.6499 81.2799 94.9199 80.3099 96.2099 79.4099L100.47 76.4099L103.08 74.5699C104.39 73.6299 105.72 72.6999 106.99 71.7299C107.99 70.9699 108.9 70.1699 109.84 69.3899C110.05 69.2099 110.24 69.0299 110.46 68.8699C111.25 68.2399 111.6 68.2099 111.92 68.2599C112 68.2599 112.1 68.2599 112.17 68.2599C112.42 68.2599 112.17 68.8099 111.71 69.3899C110.077 71.0064 108.307 72.4786 106.42 73.7899C105.02 74.7899 103.59 75.7899 102.17 76.7899L102.15 76.8499Z" fill="#231F20"/>
<path d="M37 109.46C40.42 109.46 43.84 109.34 47.26 109.25L51 109.1C55.4 108.98 59.81 108.91 64.22 108.86L70.09 108.74H71.97H73.85C75.1093 108.774 76.3651 108.887 77.61 109.08C78.38 109.26 78.25 109.45 77.61 109.75C76.5535 110.146 75.438 110.362 74.31 110.39C71.79 110.5 69.26 110.46 66.72 110.51C64.18 110.56 61.63 110.51 59.07 110.51C56 110.51 52.81 110.69 49.68 110.8L39.32 111.06L32.94 111.15C29.72 111.15 26.48 111.15 23.28 111.15C20.79 111.15 18.34 111.15 15.86 111L14.22 110.89C13.4874 110.833 12.7667 110.672 12.08 110.41C11.7277 110.303 11.4259 110.072 11.23 109.76C11.1454 109.649 11.0748 109.528 11.02 109.4C10.93 109.02 11.8 108.89 13.22 109.03C17.48 109.35 22.08 109.47 26.69 109.51C30.12 109.51 33.58 109.51 37.03 109.4L37 109.46Z" fill="#231F20"/>
<path d="M63.2902 23.49C63.1702 23.38 63.2902 23.21 63.5302 23.02C63.6492 22.9409 63.7875 22.8959 63.9302 22.89C64.028 22.9352 64.1217 22.9887 64.2102 23.05C64.2602 23.05 64.6602 23.76 64.8202 23.97C64.9635 24.18 65.0842 24.4046 65.1802 24.64C65.4002 25.11 65.6302 25.56 65.8702 26.02C65.9173 26.1228 65.9541 26.23 65.9802 26.34C66.0787 26.7226 66.2374 27.0872 66.4502 27.42C66.4502 27.48 66.5102 27.55 66.5802 27.58C66.8524 27.9273 67.0746 28.311 67.2402 28.72C67.3302 29.06 67.3702 29.44 67.4602 29.79C67.4602 29.84 67.5102 29.88 67.4602 29.95C67.4346 30.003 67.4212 30.0611 67.4212 30.12C67.4212 30.1789 67.4346 30.237 67.4602 30.29C67.4602 30.43 67.5602 30.58 67.6002 30.73C67.6101 30.8164 67.6101 30.9036 67.6002 30.99C67.6002 31.07 67.4502 31.11 67.4202 31.1C67.3902 31.09 67.3102 31.1 67.2602 31.18C66.9678 30.988 66.6903 30.7741 66.4302 30.54L66.0002 30.05C65.8316 29.8562 65.6746 29.6525 65.5302 29.44C65.4875 29.3736 65.4602 29.2984 65.4502 29.22L64.8402 28.3C64.7135 28.1209 64.6406 27.9092 64.6302 27.69C64.64 27.6506 64.64 27.6094 64.6302 27.57C64.4638 27.2497 64.3265 26.915 64.2202 26.57C64.1602 26.39 64.0702 26.23 63.9902 26.05C63.9853 26.0169 63.9853 25.9832 63.9902 25.95C63.9949 25.9068 63.9949 25.8632 63.9902 25.82C63.8102 25.42 63.7002 24.98 63.5002 24.58C63.5002 24.49 63.4102 23.98 63.3602 23.88C63.3102 23.78 63.3402 23.53 63.2902 23.49Z" fill="#231F20"/>
<path d="M93.3501 31.93C93.2501 32.1 93.0201 32.06 92.7301 31.88C92.6301 31.83 92.4601 31.57 92.4801 31.5C92.5095 31.3767 92.5497 31.2562 92.6001 31.14C92.6001 31.07 93.3801 30.35 93.6001 30.09C93.8413 29.8517 94.1022 29.6342 94.3801 29.44L96.0601 28.22C96.1841 28.1281 96.3184 28.0509 96.4601 27.99C96.9466 27.7758 97.4036 27.5002 97.8201 27.17C97.9002 27.1268 97.9688 27.0651 98.0201 26.99C98.4809 26.5943 98.992 26.2614 99.5401 26C99.9901 25.84 100.46 25.73 100.91 25.58C100.98 25.58 101.03 25.52 101.11 25.58C101.262 25.608 101.418 25.5795 101.55 25.5C101.735 25.4232 101.926 25.3597 102.12 25.31C102.226 25.2948 102.334 25.2948 102.44 25.31C102.54 25.31 102.56 25.47 102.54 25.49C102.52 25.51 102.54 25.61 102.62 25.66V25.72C102.62 25.72 102.41 25.94 102.2 26.16C101.99 26.38 101.76 26.62 101.71 26.66L101.03 27.19C100.7 27.49 100.33 27.73 100.26 27.8C100.179 27.8577 100.087 27.8985 99.9901 27.92C99.9901 27.92 98.9301 28.75 98.8901 28.77C98.6717 28.9349 98.424 29.0571 98.1601 29.13C98.1059 29.1429 98.0549 29.1667 98.0101 29.2C97.6266 29.461 97.2294 29.7014 96.8201 29.92C96.6101 30.04 96.4301 30.19 96.2301 30.32L96.1101 30.37C96.0575 30.3872 96.0071 30.4107 95.9601 30.44C95.5001 30.77 94.9601 31.04 94.5701 31.44C94.4701 31.52 93.8801 31.76 93.7701 31.86C93.6601 31.96 93.3901 31.85 93.3501 31.93Z" fill="#231F20"/>
<path d="M82.6401 24.36C82.6401 24.52 82.4401 24.52 82.1101 24.42C81.9604 24.3625 81.8266 24.2699 81.7201 24.15C81.6806 24.0469 81.6537 23.9395 81.6401 23.83C81.6401 23.77 81.9101 23.07 81.9901 22.83C82.0697 22.5991 82.1807 22.3804 82.3201 22.18L83.0901 20.93C83.1494 20.8323 83.2236 20.7446 83.3101 20.67C83.5881 20.4148 83.8154 20.1094 83.9801 19.77C84.0249 19.7206 84.0498 19.6565 84.0501 19.59C84.2057 19.2039 84.418 18.8433 84.6801 18.52C84.9301 18.29 85.2001 18.07 85.4601 17.86C85.4601 17.86 85.5201 17.78 85.5901 17.77C85.6601 17.76 85.8001 17.68 85.8701 17.6C85.9659 17.4924 86.0695 17.3922 86.1801 17.3C86.2564 17.2607 86.3369 17.2305 86.4201 17.21C86.4901 17.21 86.6201 17.31 86.6201 17.34C86.6201 17.37 86.7301 17.42 86.7901 17.46H86.8501C86.8331 17.7962 86.7896 18.1306 86.7201 18.46L86.4801 19.05C86.3601 19.35 86.1901 19.63 86.1801 19.7C86.1701 19.77 86.0801 19.8 86.0301 19.85C85.9801 19.9 85.5901 20.73 85.5701 20.76C85.5501 20.79 85.3901 21.11 85.1801 21.2C85.1301 21.2 85.1201 21.25 85.1001 21.29C84.9214 21.5751 84.7208 21.8459 84.5001 22.1C84.4001 22.23 84.3201 22.39 84.2301 22.53L84.1501 22.59L84.0701 22.67C83.8303 22.9898 83.61 23.3237 83.4101 23.67C83.4101 23.75 83.0001 24.04 82.9601 24.14C82.9201 24.24 82.6401 24.29 82.6401 24.36Z" fill="#231F20"/>
</svg>
