<svg width="128" height="128" viewBox="0 0 128 128" fill="none" xmlns="http://www.w3.org/2000/svg">
<path d="M34.73 59.74C34.73 59.74 38.95 54.74 40.9 54.68C42.85 54.62 43.71 56.98 43.71 56.98L36.17 61.07L34.73 59.74Z" fill="#231F20"/>
<path d="M20.8498 42.74C20.8498 42.74 20.2598 45.86 23.0998 49.64C25.9398 53.42 18.8598 46.04 18.2798 42.74C17.6998 39.44 20.8498 42.74 20.8498 42.74Z" fill="#231F20"/>
<path d="M18.5601 46.93L18.0201 45.82C17.8101 45.39 17.6501 44.93 17.4601 44.49C17.3201 44.06 17.1801 43.63 17.0701 43.23C17.0001 42.85 16.9001 42.45 16.8501 42.08C16.8601 41.81 16.8301 41.5 16.9201 41.32L17.0101 41C17.0501 40.9 17.1101 40.84 17.1601 40.75C17.2201 40.67 17.2401 40.59 17.3301 40.51C17.4501 40.4 17.5501 40.37 17.6401 40.33C17.8201 40.27 17.9901 40.23 18.2001 40.23C18.6101 40.22 19.1401 40.29 19.8301 40.63C20.5101 40.97 21.2301 41.42 21.9301 41.86L23.7301 43.01C24.1801 43.3 24.6301 43.58 25.0701 43.88C28.1501 46.04 31.1901 48.23 34.3701 50.2C35.7701 51.08 37.2501 51.85 38.7001 52.6C40.5701 53.58 42.5201 54.27 44.4001 55.22C45.0001 55.47 44.9101 55.58 44.3001 55.73C43.9901 55.8 43.5501 55.88 43.0101 55.92C42.7401 55.94 42.4401 55.97 42.1501 55.94C41.8601 55.9 41.5601 55.83 41.2501 55.73C36.9401 54.34 33.1601 52.06 29.5201 49.58C27.3601 48.07 24.9701 46.74 22.7401 45.27C21.3801 44.39 21.4001 44.37 20.8901 44.03C20.6701 43.9 20.4401 43.72 20.1601 43.64C20.0601 43.63 20.1101 43.73 20.1001 43.77C20.1001 43.83 20.1001 43.89 20.1201 43.94C20.1401 44.06 20.1601 44.18 20.2001 44.3C20.2401 44.46 20.2901 44.63 20.3601 44.79C20.4301 44.98 20.5001 45.15 20.6001 45.37L20.6901 45.55L20.8401 45.84L21.1501 46.42C21.3601 46.81 21.5801 47.19 21.8001 47.57L22.1401 48.13C22.2601 48.31 22.3901 48.53 22.4401 48.59C24.2401 50.62 26.1101 52.64 28.1101 54.45C29.6601 55.86 31.3301 57.08 33.0301 58.17C33.4101 58.41 33.7801 58.63 34.1601 58.83C35.5701 59.64 35.8601 59.89 36.0001 60.64C36.0301 60.81 36.1001 60.99 36.1101 61.14C36.1301 61.41 35.9601 61.58 35.5601 61.66C35.3601 61.7 35.1101 61.71 34.8101 61.69C34.5401 61.65 34.2401 61.55 33.9101 61.43C31.9901 60.65 30.3401 59.5 28.7601 58.26C27.1901 57.01 25.7101 55.64 24.2701 54.22C23.2101 53.17 22.1801 52.08 21.1701 50.97L20.7901 50.55C20.6701 50.4 20.5601 50.32 20.3001 49.97L19.6501 48.95C19.2401 48.29 18.8601 47.62 18.5001 46.93L18.5501 46.9L18.5601 46.93Z" fill="#231F20"/>
<path d="M94.9399 38.32C94.9399 38.32 98.8599 42.04 103.68 39.8C107.12 38.2 96.9799 42.88 96.9799 42.88L94.9399 38.32Z" fill="#231F20"/>
<path d="M88.6901 33.63C88.6901 33.63 86.2601 32.03 90.1801 29.32C93.3101 27.15 83.0801 31.15 83.0801 31.15L88.6901 33.63Z" fill="#231F20"/>
<path d="M90.2798 25.98C91.2698 25.2 92.2898 24.39 93.4398 23.65C94.0298 23.29 94.6298 22.93 95.3098 22.65C95.9698 22.34 96.7498 22.16 97.3698 22.03C97.8498 21.92 98.3298 21.81 98.8198 21.74C99.2998 21.66 99.7898 21.57 100.28 21.56C103.75 21.35 107.13 22.12 110.24 23.3C111.61 23.86 112.96 24.46 114.27 25.1C115.1 25.53 115.95 25.93 116.72 26.46C117.1 26.73 117.47 27.03 117.83 27.32C118.2 27.6 118.53 27.94 118.82 28.34C119.18 28.83 119.07 28.84 118.49 28.84C117.88 28.88 116.85 28.86 115.88 28.49C112.6 26.93 109.37 25.59 105.97 24.54C103.92 23.93 101.67 23.94 99.5398 24.23L98.6598 24.35L97.7898 24.54C97.1698 24.65 96.7398 24.82 96.2098 25.04C95.1898 25.5 94.1898 26.19 93.2098 26.94C91.9898 27.86 90.7998 28.88 89.4698 29.81C88.4798 30.51 87.3298 31.17 86.0998 31.52C84.8798 31.88 83.6498 32.05 82.4498 32.15C80.5798 32.31 78.7598 32.39 76.9698 32.45C76.5698 32.46 76.1898 32.5 75.7998 32.48C74.3498 32.42 73.9098 32.28 73.5698 31.69C73.4898 31.56 73.3898 31.43 73.3398 31.3C73.1598 30.87 73.7698 30.43 74.8898 30.22C76.5498 29.88 78.2198 29.9 79.8398 29.82C81.4598 29.75 83.0598 29.67 84.4898 29.34C85.5798 29.1 86.4398 28.74 87.3798 28.11C88.3198 27.5 89.2698 26.73 90.2398 25.92L90.2798 25.97V25.98Z" fill="#231F20"/>
<path d="M87.6699 43.42C87.6699 43.42 90.2499 38.13 93.5899 39.8C96.9299 41.47 96.9799 42.88 96.9799 42.88L87.6699 43.83" fill="#231F20"/>
<path d="M86.4801 41.09C86.9101 40.76 87.3701 40.45 87.8301 40.15L88.5401 39.7C88.7901 39.55 89.1101 39.38 89.4001 39.25C89.8401 39.06 90.2801 38.87 90.7501 38.8C92.4201 38.56 93.9401 39.08 95.1901 39.75C95.7501 40.05 96.3201 40.33 96.8301 40.68C97.4801 41.13 98.1101 41.64 98.5501 42.3C98.6901 42.51 98.5201 42.63 98.2101 42.69C97.9001 42.74 97.4201 42.76 97.0301 42.6C95.6201 42.08 94.4601 41.4 93.1901 40.97C92.4301 40.67 91.6001 40.79 90.9101 41C90.5101 41.11 90.1701 41.28 89.7801 41.54C89.3701 41.81 88.9601 42.11 88.5601 42.42C88.0701 42.81 87.5601 43.19 87.0801 43.61C86.3501 44.24 85.6101 44.88 84.9601 45.59C84.4601 46.14 84.0701 46.79 83.6501 47.4C83.5601 47.53 83.4801 47.68 83.3801 47.81C83.0001 48.28 82.7501 48.32 82.2001 48C82.0701 47.93 81.9401 47.86 81.8201 47.78C81.4201 47.5 81.2901 47.04 81.4901 46.61C82.0801 45.33 83.0201 44.24 84.0301 43.21C84.7801 42.45 85.6001 41.74 86.4301 41.03L86.4701 41.07L86.4801 41.09Z" fill="#231F20"/>
<path d="M65.99 65.83C57.98 50.7 34.73 31.47 34.73 31.47L36.17 35.31C36.17 35.31 51.73 50.17 56.78 56.94C61.83 63.71 61.83 65.22 61.83 65.22L66 65.82L65.99 65.83Z" fill="#231F20"/>
<path d="M71.7998 79.47C71.7998 79.47 71.7798 79.03 74.6598 80.37C76.4198 81.19 83.3298 80.86 83.3298 80.86L79.9998 77.33C79.9998 77.33 73.1198 79.8 71.7998 79.48V79.47Z" fill="#231F20"/>
<path d="M110.21 69.82C113.98 72.59 110.82 76.07 105.93 75.35C105.93 75.35 111.32 77.45 112.97 75.97C114.62 74.49 116.67 72.34 114.39 71.09C112.11 69.84 110.21 69.81 110.21 69.81V69.82Z" fill="#231F20"/>
<path d="M87.7602 99.8C90.8302 110.13 83.9602 110.27 81.2402 107.07C81.2402 107.07 83.7602 111.69 87.1402 111.32C90.5202 110.95 90.3302 107.97 90.2702 107.18C90.2102 106.39 87.7502 99.81 87.7502 99.81L87.7602 99.8Z" fill="#231F20"/>
<path d="M48.2102 58.04C53.0702 59.79 62.0202 63.81 61.8302 63.72L59.2202 66.55L46.1602 58.64C46.4502 58.47 47.8402 57.9 48.2102 58.03V58.04Z" fill="#231F20"/>
<path d="M59.21 66.55C59.21 66.55 72.77 70.04 74.4 70.96C76.03 71.88 69.23 67.65 69.23 67.65L61.82 64.65L59.21 66.55Z" fill="#231F20"/>
<path d="M70.7199 68.57C71.1899 64.66 58.3999 47.3 58.3999 47.3L59.2199 46.33L76.2899 69.82L70.7199 68.57Z" fill="#231F20"/>
<path d="M55.8901 70.96C55.8901 70.96 61.3701 66.48 64.5201 67.65C67.6701 68.82 60.2101 65.83 60.2101 65.83L55.9001 70.96H55.8901Z" fill="#231F20"/>
<path d="M65.29 53.31C65.29 53.31 69.92 59.94 73.32 58.07C75.09 57.1 70.36 61.67 70.36 61.67L65.29 53.31Z" fill="#231F20"/>
<path d="M63.76 38.02C63.76 38.02 59.21 43 60.59 46.57C61.78 49.65 57.98 43.82 57.98 43.82L63.76 38.02Z" fill="#231F20"/>
<path d="M46.1598 34.65C39.4398 30.05 34.7298 31.47 34.7298 31.47L32.5898 28.39C32.5898 28.39 37.4098 29.27 41.9598 31.52C46.5098 33.77 46.1498 34.65 46.1498 34.65H46.1598Z" fill="#231F20"/>
<path d="M59.1602 61.07C54.7602 54.29 48.1802 53.31 48.1802 53.31L51.8702 51.3L59.1602 61.07Z" fill="#231F20"/>
<path d="M97.8698 111.14C97.3398 112.55 96.4998 113.84 95.4798 114.89C94.4598 115.94 93.2898 116.84 92.0098 117.46C90.7298 118.08 89.3798 118.55 87.9898 118.76C87.2998 118.86 86.5998 118.94 85.8998 118.95H84.8498L83.8098 118.88C81.7998 118.66 79.7698 118.09 78.0198 116.98C74.9298 115.01 72.8698 111.89 71.7498 108.68C71.1698 107.07 70.7798 105.41 70.5398 103.74C70.2998 102.1 70.1798 100.34 70.3798 98.62C70.7298 95.57 71.8298 92.67 73.3398 90.12C73.5798 89.69 73.8498 89.28 74.1098 88.87L74.7898 87.89C75.0698 87.68 74.7998 87.35 74.6698 87.15L74.1898 86.45L73.6098 85.65C73.2698 85.07 72.8898 84.51 72.5598 83.9L71.6698 82C71.2198 80.9 71.2698 81.07 72.1298 81.63C72.5598 81.9 73.2298 82.24 74.0798 82.62C74.4998 82.81 74.8698 83.09 75.2998 83.37C75.5098 83.51 75.6998 83.68 75.9298 83.83C76.1098 84.02 76.2898 84.22 76.4698 84.43L77.0298 85.13C77.1398 85.28 77.5998 85.87 77.8198 86.33C78.0898 86.81 78.2798 87.32 78.2698 87.82C78.3098 88.35 77.9998 88.79 77.7898 89.25L76.8898 90.54L76.2798 91.45C75.8898 92.06 75.5198 92.68 75.1898 93.33C74.5198 94.6 74.0198 95.94 73.6798 97.3C73.3498 98.67 73.2098 100.06 73.2698 101.47C73.3398 102.96 73.5398 104.45 73.8698 105.9C74.3098 107.96 75.2098 109.93 76.4098 111.64C77.0298 112.48 77.7498 113.24 78.5398 113.9C79.3598 114.51 80.2098 115.1 81.1698 115.47C82.1998 115.9 83.3198 116.21 84.4598 116.3C85.0298 116.39 85.5998 116.35 86.1798 116.36C86.7498 116.28 87.3198 116.25 87.8798 116.09C88.9998 115.85 90.0898 115.44 91.0598 114.84C92.0298 114.25 92.9498 113.55 93.6398 112.66C94.5198 111.59 95.1398 110.33 95.3998 108.98C95.5298 108.31 95.6098 107.61 95.5298 106.92C95.4998 106.57 95.5198 106.23 95.4398 105.87L95.2198 104.8C94.1498 100.46 91.9798 96.21 89.5698 92.29C87.6798 89.23 85.4698 86.45 83.2898 83.65C82.8098 83.03 82.2998 82.47 81.8198 81.84C80.0098 79.56 79.5698 78.77 79.7798 77.74C79.8298 77.51 79.8398 77.24 79.9198 77.05C80.1698 76.4 81.4498 76.94 83.0098 78.53C87.6198 83.22 91.6198 88.85 94.8798 95.07C96.0898 97.38 97.1898 99.8 97.9398 102.45L98.2198 103.44L98.4198 104.49L98.6098 105.54C98.6498 105.91 98.6498 106.3 98.6698 106.67C98.7998 108.18 98.4898 109.75 97.9598 111.18L97.8898 111.16L97.8698 111.14Z" fill="#231F20"/>
<path d="M82.6801 107.6C82.8501 107.81 83.0501 107.98 83.2601 108.15C83.4701 108.32 83.6501 108.5 83.8801 108.67C84.3401 109 84.8001 109.29 85.2401 109.49C85.6801 109.69 86.1001 109.81 86.4501 109.82C86.6401 109.82 86.7701 109.82 87.0201 109.75L87.3601 109.67L87.6501 109.55C88.2101 109.29 88.4801 108.92 88.6801 108.36C89.0801 107.35 88.8701 105.77 88.4701 104.31C88.0501 102.83 87.4001 101.36 86.7001 99.92C86.0601 98.64 85.2801 97.43 84.4301 96.28C83.2901 94.84 82.1801 93.45 81.2801 91.78C80.9801 91.27 80.9901 91.33 81.5601 91.41C81.8301 91.47 82.3001 91.49 82.7801 91.64C83.0301 91.71 83.2801 91.79 83.5601 91.89C83.7001 91.94 83.8201 92.01 83.9701 92.05C84.0801 92.14 84.2001 92.22 84.3001 92.32C85.0601 92.99 85.7701 93.7 86.3601 94.5C86.9701 95.28 87.5501 96.09 88.0901 96.93C88.6201 97.77 89.1301 98.64 89.5701 99.55C89.9901 100.47 90.3601 101.42 90.6501 102.41C90.9901 103.6 91.3601 104.81 91.5301 106.15C91.6001 106.83 91.6601 107.52 91.5401 108.26C91.4501 108.99 91.2101 109.78 90.7301 110.46C90.2201 111.21 89.4701 111.79 88.7101 112.1C88.3301 112.3 87.9501 112.37 87.5701 112.48C87.1701 112.58 86.7001 112.63 86.2801 112.61C84.5501 112.5 83.2501 111.7 82.1301 110.92C80.6801 109.9 79.5201 108.53 78.6601 107.05C77.3101 104.79 76.8301 102.17 76.8101 99.63C76.8101 97.66 77.0701 95.67 77.8901 93.79C78.0901 93.39 78.2501 92.98 78.4901 92.58C78.9701 91.88 79.3401 91.45 79.7601 91.31C80.1501 91.14 80.4501 91.14 80.7801 91.24C80.9301 91.29 81.0901 91.31 81.2101 91.38C81.6001 91.61 81.4401 92.33 81.0801 93.26C79.7301 95.82 79.3401 98.9 79.9401 101.81C80.2001 102.87 80.4401 103.95 80.9301 104.92C81.4201 105.88 81.9801 106.82 82.7601 107.54L82.7101 107.6H82.6801Z" fill="#231F20"/>
<path d="M111.22 74.58C112.16 74.4 112.9 73.98 113.09 73.67C113.2 73.48 113.25 73.39 113.22 73.15C113.18 72.91 113 72.56 112.71 72.23C112.29 71.73 111.63 71.34 110.98 70.95C108.62 69.53 105.62 68.78 102.67 68.67C101.35 68.64 100.02 68.76 98.74 69.01C98.02 69.16 97.28 69.51 96.62 69.87C96.29 70.04 95.97 70.24 95.73 70.44C95.61 70.54 95.52 70.63 95.46 70.71C95.41 70.77 95.21 70.82 95.21 70.97C95.18 71.35 95.24 71.54 94.63 71.24C94.48 71.15 94.31 71 94.15 70.72C93.94 70.44 94.01 70.1 94.04 69.76C94.16 69.1 94.51 68.5 94.98 68.05C95.39 67.65 95.85 67.35 96.34 67.1C96.82 66.85 97.32 66.64 97.87 66.48C98.92 66.2 99.8 66.04 100.79 65.94C102.73 65.82 104.69 65.99 106.57 66.47C108.81 67.05 111.18 67.59 113.29 68.99C113.86 69.38 114.42 69.83 114.92 70.4C115.41 70.97 115.87 71.68 116.06 72.58C116.27 73.48 116.06 74.5 115.58 75.22C115.11 75.98 114.43 76.49 113.78 76.84C112.14 77.67 110.51 77.82 108.92 77.9C106.51 77.98 104.17 77.53 101.9 76.96C100.14 76.5 98.37 76.03 96.7 75.04C96.34 74.82 95.98 74.58 95.64 74.29C94.41 73.14 94.38 72.37 94.83 71.79C94.93 71.66 95.01 71.51 95.11 71.42C95.29 71.27 95.53 71.29 95.83 71.37C96.14 71.45 96.46 71.61 96.81 71.85C98.97 73.16 101.86 74.07 104.81 74.49C106.98 74.76 109.29 74.94 111.18 74.49L111.2 74.56L111.22 74.58Z" fill="#231F20"/>
<path d="M36.5199 62.7C34.7099 64.01 33.0999 65.61 31.6499 67.38C31.1099 68.02 30.6599 68.73 30.1799 69.41C28.4599 71.81 26.9999 74.43 25.8299 77.22C25.3199 78.46 24.8799 79.74 24.4899 81.02L23.7799 83.51C23.5299 84.34 23.3099 85.17 22.7699 85.92C22.2299 86.33 22.2599 86.27 21.8499 85.68C21.6299 85.38 21.4699 85 21.3099 84.55C21.1799 84.1 21.1699 83.62 21.2699 83.12C21.6599 81.37 22.1199 79.62 22.6999 77.9C23.3399 76.2 24.1099 74.52 25.0399 72.92C26.1399 71.01 27.1499 68.94 28.4699 67.09C29.9399 65.09 31.5899 63.19 33.4699 61.55C34.6399 60.56 35.8699 59.62 37.1599 58.82C39.1099 57.57 41.1999 56.63 43.1299 55.57C44.6299 54.74 45.9499 53.74 47.0699 52.64C47.3299 52.41 47.5399 52.14 47.7699 51.88C47.9899 51.65 48.1799 51.46 48.3499 51.32C48.5099 51.16 48.6499 51.05 48.7999 50.98C49.0899 50.84 49.3899 50.85 49.7899 50.96C49.9699 51.01 50.1699 51.05 50.3399 51.12C50.9099 51.35 50.9299 52.11 50.3399 53.11C49.3899 54.53 48.0699 55.75 46.6499 56.71C45.2399 57.68 43.7599 58.43 42.3699 59.18C40.2899 60.28 38.3299 61.38 36.5499 62.76L36.4999 62.71L36.5199 62.7Z" fill="#231F20"/>
<path d="M70.42 30.21C73.23 29.33 76.07 29.3 78.77 29.7L80.25 29.91C80.74 30 81.22 30.1 81.7 30.22C85.05 31.19 88.16 32.75 90.9 34.75C91.52 35.19 92.11 35.66 92.69 36.14C93.29 36.6 93.84 37.11 94.4 37.61C95.11 38.25 95.81 38.93 96.38 39.7C96.67 40.09 96.97 40.46 97.21 40.88C97.43 41.32 97.64 41.75 97.84 42.19C98.08 42.74 97.84 42.8 97.24 42.63C96.94 42.54 96.56 42.4 96.13 42.22C95.7 42.04 95.22 41.83 94.84 41.49C92.11 39.13 89.31 37.06 86.25 35.1C84.4 33.95 82.19 33.34 80.04 32.89C77.68 32.38 75.22 32.25 72.89 32.68C71.45 32.91 70.07 33.42 68.84 34.2C66.93 35.33 65.34 37.07 63.9 38.92C62.78 40.37 61.83 41.97 60.56 43.43C60.27 43.75 60.02 44.09 59.7 44.39C58.5 45.51 57.86 45.56 57.18 45.1C57.02 44.99 56.85 44.9 56.73 44.78C56.32 44.36 56.53 43.59 57.2 42.86C59.2 40.66 60.84 37.85 63.29 35.04C65.09 32.98 67.54 31.04 70.39 30.13L70.42 30.2V30.21Z" fill="#231F20"/>
<path d="M85.9001 43.03C87.5201 42.3 89.3101 41.82 91.0601 41.64C92.8301 41.45 94.4701 41.53 96.0001 41.47C97.1201 41.43 98.1901 41.23 99.2501 41.03C100.18 40.83 101.11 40.59 102.02 40.24L102.7 39.99C102.89 39.91 103.08 39.83 103.27 39.72C103.66 39.51 104.06 39.25 104.45 38.97C106.04 37.82 107.59 36.41 109.24 35.09C110.72 33.94 112.26 32.76 114.06 31.94C115.22 31.45 116.52 31.02 117.89 31.13C118.57 31.17 119.22 31.37 119.83 31.6C120.12 31.75 120.43 31.87 120.7 32.05C120.97 32.24 121.2 32.48 121.41 32.72C121.93 33.34 121.75 33.34 121.03 33.36C120.25 33.45 119.1 33.57 118.1 33.61C117.87 33.64 117.65 33.64 117.42 33.69C117.2 33.7 116.97 33.74 116.74 33.79C116.29 33.88 115.83 34.03 115.38 34.23C114.47 34.62 113.56 35.19 112.66 35.84C110.88 37.16 109.08 38.7 107.09 40.2C106.49 40.64 105.87 41.11 105.2 41.55C104.55 42 103.68 42.43 102.99 42.68C101.55 43.28 100.01 43.77 98.4501 44C96.7301 44.26 95.0301 44.25 93.4501 44.29C91.8701 44.33 90.3901 44.49 88.9501 44.93C88.0701 45.21 87.1801 45.55 86.3701 45.99C85.9801 46.23 85.5501 46.42 85.1901 46.69C84.8301 46.97 84.4401 47.23 84.0901 47.54C81.9501 49.41 80.3701 51.97 78.7801 54.54C77.5301 56.53 76.2601 58.64 74.2401 60.26C73.7801 60.59 73.3301 60.92 72.8401 61.22C71.8701 61.66 71.2001 61.92 70.6801 61.84C70.1701 61.82 69.8501 61.63 69.5701 61.34C69.4401 61.21 69.3001 61.1 69.2201 60.97C68.9701 60.57 69.6101 59.86 70.6601 59.25C72.2601 58.39 73.5301 57.15 74.6901 55.59C75.8501 54.04 76.8901 52.2 78.1001 50.3C79.0101 48.89 80.0501 47.46 81.3301 46.16C82.5701 44.83 84.2101 43.76 85.8401 42.97L85.8801 43.03H85.9001Z" fill="#231F20"/>
<path d="M39.6301 75.42C39.0401 75.14 38.4301 74.87 37.8001 74.65C37.5701 74.56 37.3301 74.54 37.1001 74.47C36.2901 74.2 35.4601 73.95 34.6001 73.8C34.2201 73.71 33.8401 73.69 33.4601 73.67C32.9701 73.69 32.4801 73.64 31.9801 73.48C31.8201 73.43 31.8301 73.23 31.9601 73C32.0801 72.77 32.3201 72.45 32.6201 72.35C33.6801 72.1 34.7701 72.14 35.8001 72.5C36.4201 72.7 37.0801 72.74 37.7201 72.9C38.4201 73.08 39.1001 73.31 39.7701 73.56C40.1801 73.71 40.5901 73.89 40.9901 74.06C41.6001 74.32 42.1901 74.63 42.8001 74.88C43.2701 75.08 43.7801 75.18 44.2701 75.36C44.3801 75.4 44.4901 75.43 44.5901 75.49C44.9601 75.7 45.0001 75.89 44.8101 76.36C44.7701 76.47 44.7301 76.58 44.6801 76.68C44.5001 77.03 44.1901 77.22 43.8801 77.18C42.9301 77.12 42.2001 76.67 41.4001 76.31C40.8101 76.03 40.2301 75.72 39.6201 75.47V75.43L39.6301 75.42Z" fill="#231F20"/>
<path d="M42.5599 65.75C43.0899 65.92 43.6099 66.09 44.1199 66.31C44.3099 66.38 44.4999 66.42 44.6799 66.51C45.3099 66.84 45.9499 67.11 46.5099 67.55C46.7699 67.72 47.0299 67.88 47.2899 68.03C47.6199 68.22 47.9399 68.45 48.2299 68.71C48.3199 68.79 48.2999 68.8 48.1899 68.8C48.0799 68.8 47.8599 68.83 47.6399 68.8C46.8499 68.68 46.0599 68.7 45.3899 68.37C44.9999 68.14 44.5199 68.11 44.0799 67.99C43.5999 67.86 43.1099 67.73 42.6299 67.6C42.3299 67.53 42.0299 67.45 41.7199 67.41C41.2599 67.33 40.7899 67.25 40.3199 67.26C39.9599 67.26 39.5999 67.4 39.2499 67.49C39.1699 67.51 39.0999 67.55 39.0199 67.56C38.7299 67.6 38.6299 67.48 38.5399 66.97L38.4799 66.62C38.4299 66.23 38.5299 65.9 38.7599 65.77C39.4399 65.4 40.1999 65.31 40.9499 65.4C41.4999 65.46 42.0499 65.59 42.5899 65.72V65.76L42.5599 65.75Z" fill="#231F20"/>
<path d="M74.5301 37.04C75.3601 37.1 76.2001 37.28 77.0001 37.54C77.2901 37.64 77.6001 37.69 77.8801 37.82C78.8701 38.26 79.7301 38.84 80.5601 39.41C80.9201 39.67 81.3001 39.9 81.6701 40.12C81.9101 40.27 82.1601 40.38 82.3801 40.55C82.6001 40.73 82.8101 40.92 83.0301 41.12C83.1601 41.25 83.1201 41.27 82.9501 41.29C82.7801 41.3 82.4301 41.38 82.0801 41.36C81.4901 41.25 80.9701 40.99 80.4401 40.77C79.9101 40.55 79.4301 40.27 78.9701 39.96C78.4101 39.6 77.7501 39.44 77.1401 39.27C76.4501 39.09 75.7501 38.99 75.0201 38.92C74.5701 38.89 74.1201 38.86 73.6601 38.88C72.9701 38.9 72.2601 38.94 71.5701 39.08C71.0301 39.21 70.5301 39.42 70.0201 39.64C69.9101 39.69 69.8001 39.75 69.6901 39.78C69.2601 39.9 69.1001 39.8 68.8801 39.28C68.8301 39.16 68.7801 39.05 68.7401 38.93C68.6101 38.53 68.7101 38.15 69.0201 37.96C69.9201 37.39 70.9801 37.18 72.0601 37.07C72.8601 36.98 73.6901 36.97 74.5401 37.02V37.07L74.5301 37.04Z" fill="#231F20"/>
<path d="M103.41 36.53C103.05 36.82 102.61 37.04 102.17 37.24C102.01 37.31 101.86 37.42 101.69 37.47C101.08 37.65 100.39 37.72 99.7801 37.56C99.5101 37.49 99.2401 37.43 98.9801 37.33C98.8201 37.27 98.6501 37.19 98.5001 37.09C98.3601 36.97 98.2601 36.8 98.2001 36.63C98.1601 36.52 98.2701 36.45 98.4501 36.38C98.6201 36.32 98.8801 36.19 99.0301 36.16C99.4701 36.26 99.8501 36.18 100.33 36.31C100.62 36.38 100.9 36.2 101.18 36.07C101.49 35.93 101.82 35.74 102.12 35.52C102.32 35.39 102.52 35.25 102.7 35.09C102.98 34.85 103.28 34.6 103.53 34.3C103.72 34.07 103.87 33.8 104.08 33.56C104.12 33.51 104.16 33.45 104.21 33.4C104.41 33.23 104.54 33.25 104.78 33.45C104.84 33.5 104.89 33.54 104.94 33.59C105.11 33.76 105.17 33.97 105.11 34.16C105.03 34.43 104.94 34.69 104.82 34.94C104.69 35.18 104.52 35.38 104.34 35.61C104.07 35.93 103.75 36.24 103.41 36.56L103.38 36.53H103.41Z" fill="#231F20"/>
<path d="M6.7399 25.93C6.5199 25.88 6.4299 25.65 6.3999 25.35C6.3999 25.26 6.5099 25.05 6.5799 25.04C6.7199 25.02 6.8699 25 6.9999 24.99C7.0799 25 8.2599 25.17 8.6799 25.13C9.0799 25.13 9.4599 25.15 9.8399 25.19C10.5799 25.33 11.3199 25.49 12.0699 25.6C12.2399 25.63 12.3999 25.68 12.5499 25.76C13.0799 26.02 13.6599 26.13 14.2599 26.16C14.3599 26.16 14.4599 26.2 14.5699 26.12C14.7499 26 16.3699 26.17 16.5599 26.29C17.0399 26.56 17.5499 26.77 18.0399 27.02C18.1099 27.05 18.1999 27.03 18.2399 27.16C18.3399 27.47 18.5099 27.45 18.6699 27.5C18.8899 27.57 19.1099 27.66 19.3099 27.8C19.4099 27.87 19.4899 28.05 19.5699 28.21C19.6399 28.35 19.4899 28.77 19.4499 28.81C19.3199 28.92 19.3599 29.14 19.3299 29.32C19.3199 29.38 19.3099 29.46 19.2899 29.51C19.2499 29.62 17.8599 30.07 17.7199 30.03C17.6999 30.03 17.2299 29.98 16.7299 29.94C16.2299 29.9 15.7099 29.86 15.5899 29.85C15.4799 29.85 15.3799 29.76 15.2699 29.69C15.2299 29.67 13.6899 29.51 13.6299 29.48C13.3299 29.37 12.9899 29.38 12.7299 29.07C12.6799 29.01 12.6099 29.01 12.5499 28.99C12.0099 28.87 11.4899 28.63 10.9699 28.42C10.6999 28.31 10.4199 28.24 10.1499 28.15C10.0999 28.13 10.0599 28.09 10.0099 28.06C9.9499 28.02 9.8999 27.97 9.8399 27.95C9.1799 27.77 8.6099 27.33 7.9899 27.05C7.8399 26.98 7.2699 26.43 7.1099 26.36C7.0199 26.32 6.8299 25.95 6.7399 25.94V25.93Z" fill="#231F20"/>
<path d="M26.2299 22.28C26.3599 22.45 26.1299 22.65 25.7499 22.86C25.6299 22.93 25.2399 22.99 25.1699 22.94C25.0399 22.85 24.8999 22.76 24.7799 22.66C24.7199 22.6 24.1699 21.55 23.9399 21.19C23.6899 20.85 23.6599 20.48 23.5899 20.11C23.4799 19.37 23.3499 18.63 23.2699 17.89C23.2499 17.73 23.2599 17.56 23.2999 17.39C23.4399 16.82 23.4099 16.26 23.3099 15.7C23.2899 15.61 23.3099 15.51 23.1999 15.42C23.0199 15.28 22.9099 13.75 22.9899 13.55C23.1799 13.06 23.2599 12.57 23.4599 12.08C23.4899 12.01 23.4499 11.94 23.5799 11.87C23.8899 11.73 23.8399 11.58 23.8699 11.42C23.9099 11.21 23.9599 11 24.0699 10.8C24.1199 10.7 24.2899 10.6 24.4299 10.5C24.5499 10.41 24.9899 10.47 25.0299 10.5C25.1699 10.6 25.3699 10.52 25.5499 10.52C25.6099 10.52 25.6899 10.52 25.7399 10.52C25.8399 10.53 26.6199 11.72 26.6299 11.85C26.6699 11.88 26.8599 13.59 26.8999 13.78C26.9299 13.88 26.8499 13.98 26.8099 14.09C26.7899 14.14 26.9999 15.5 26.9899 15.55C26.9499 15.83 27.0599 16.11 26.8099 16.4C26.7599 16.46 26.7699 16.51 26.7799 16.57C26.8199 17.05 26.7299 17.54 26.6799 18.03C26.6499 18.28 26.6999 18.52 26.6999 18.77C26.6999 18.81 26.6699 18.86 26.6499 18.91C26.6299 18.97 26.5999 19.03 26.6099 19.08C26.6399 19.66 26.6099 20.25 26.6699 20.83C26.6699 20.96 26.4099 21.64 26.4499 21.79C26.4499 21.88 26.1599 22.21 26.2199 22.28H26.2299Z" fill="#231F20"/>
<path d="M31.9199 31.94L30.5499 30.48L30.2899 29.54L30.0199 28.6L29.8799 28.13C29.8399 27.97 29.7599 27.81 29.8199 27.73C29.8299 27.65 29.9799 27.37 30.0999 27.27C30.2199 27.15 30.3199 27.07 30.4399 27C30.6699 26.86 30.9199 26.75 31.2399 26.67C31.8499 26.5 32.8199 26.52 34.0399 26.85C35.2399 27.15 36.5199 27.61 37.7399 28.06L38.5399 28.36L39.0499 28.56L40.0699 28.98C41.4199 29.55 42.7599 30.15 44.0899 30.8C45.0599 31.27 46.0299 31.75 47.0099 32.32C47.5099 32.6 47.9999 32.96 48.4199 33.29C48.8599 33.63 49.3099 33.96 49.7199 34.32C52.5999 36.86 55.0799 39.66 57.4899 42.51C59.8899 45.36 62.1499 48.31 64.3699 51.28C66.3399 53.92 68.3299 56.56 70.2299 59.22C71.4499 60.93 72.6599 62.64 73.8199 64.4C74.9399 66.18 76.0099 68 76.8499 69.94C77.2099 71.25 77.2399 71.03 76.3099 70.3C75.4099 69.56 73.7899 68.2 72.2999 66.33C67.2599 59.51 62.3399 52.61 57.0499 45.91C55.4599 43.92 53.7499 41.95 51.9199 40.11C50.0899 38.28 48.1699 36.48 46.1599 35.08C43.9399 33.66 41.1999 32.53 38.5799 31.51L37.0699 30.94C36.7899 30.83 36.4999 30.73 36.1999 30.63C35.8999 30.53 35.5799 30.43 35.2499 30.36C35.0799 30.33 34.9099 30.29 34.7399 30.3C34.6399 30.3 34.5999 30.41 34.6599 30.46C34.6999 30.52 34.7499 30.58 34.7999 30.63L35.5399 31.51L36.4299 32.52L39.9299 36.3C43.6199 40.23 47.3299 44.2 50.8899 48.24C53.6599 51.38 56.3699 54.48 58.8199 57.87C59.3499 58.62 59.8999 59.33 60.3999 60.12C62.2099 63.05 62.5199 64.14 62.2699 65.1C62.2199 65.32 62.1999 65.57 62.1299 65.72C61.8999 66.2 60.7699 65.25 59.3899 63.24C55.2299 57.31 50.2799 51.53 44.9899 45.89C40.5999 41.25 36.1999 36.58 31.7999 31.93H31.8899L31.9199 31.94Z" fill="#231F20"/>
<path d="M112.74 62.39C114.49 63.19 116.23 64.16 117.77 65.4C118.57 65.96 119.29 66.7 120.02 67.39C120.69 68.17 121.37 68.96 121.88 69.93C122.41 70.86 122.78 71.94 122.95 73.07C123.01 73.63 123.01 74.22 122.98 74.78C122.87 75.34 122.84 75.92 122.61 76.44C121.88 78.59 120.4 80.25 118.69 81.39C117.46 82.24 115.99 82.89 114.63 83.2L113.59 83.49C113.24 83.58 112.88 83.61 112.53 83.67C111.82 83.76 111.12 83.92 110.4 83.9C107.88 84.05 105.4 83.65 103.04 83.02C100.68 82.38 98.42 81.47 96.26 80.42C94.1 79.38 92.04 78.15 90.02 77.1C89.76 76.96 89.52 76.86 89.28 76.75C89.02 76.62 88.83 76.59 88.64 76.53C88.19 76.46 87.64 76.48 87.12 76.53C86.05 76.67 84.96 76.98 83.87 77.35C81.94 78.02 80.05 78.89 78.07 79.66C77.07 80.04 76.06 80.41 74.91 80.6C74.35 80.71 73.67 80.68 73.12 80.59C72.57 80.49 72.04 80.37 71.53 80.23C66.32 78.72 61.33 76.74 56.65 74.06C55.27 73.08 55.59 73 57.05 73.21C58.51 73.42 61.03 74.05 63.86 75.12C66.35 76.11 68.87 77.09 71.38 77.85C72 78.04 72.64 78.22 73.22 78.33C73.53 78.4 73.77 78.43 74 78.44C74.11 78.44 74.22 78.44 74.32 78.44C74.44 78.44 74.58 78.4 74.71 78.38C75.79 78.2 77.05 77.71 78.27 77.21C80.76 76.22 83.28 75.01 86.25 74.45C86.99 74.31 87.79 74.26 88.62 74.31C88.82 74.31 89.1 74.4 89.33 74.45L89.69 74.55L89.96 74.67C90.32 74.82 90.69 74.98 90.99 75.14C92.28 75.79 93.44 76.47 94.63 77.11C97.46 78.66 100.46 79.99 103.61 80.73C106.74 81.47 110 81.69 113.06 80.96L114.3 80.61L114.92 80.44C115.12 80.37 115.3 80.29 115.49 80.21C116.24 79.91 116.95 79.46 117.59 78.97C118.84 77.95 119.89 76.62 120.18 75.14C120.5 73.67 120.11 72.12 119.19 70.76C118.27 69.41 116.99 68.21 115.55 67.2C113.82 65.93 111.81 64.98 109.77 64.17C107.72 63.37 105.58 62.77 103.41 62.39C100.13 61.83 96.71 61.71 93.57 62.61C91.98 63.04 90.55 63.71 89.81 64.98C89.41 65.6 89.1 66.49 88.42 67.28C88.06 67.66 87.75 68 87.23 68.29C86.78 68.53 86.38 68.7 85.98 68.87C84.35 69.53 82.74 70.06 81.12 70.61C80.31 70.88 79.5 71.14 78.68 71.4L77.44 71.77L76.79 71.94C76.6 71.99 76.21 72.07 75.91 72.09C75.57 72.06 75.17 72 74.9 71.89C74.63 71.81 74.42 71.73 74.18 71.65L72.84 71.14L70.24 70.09C69.17 69.65 68.13 69.22 67.05 68.78C63.1 67.06 61.96 66.45 61.41 65.29C61.28 65.05 61.07 64.79 61 64.59C60.7 63.94 62.8 63.78 65.76 64.97C67.58 65.64 69.38 66.37 71.19 67.12C72.09 67.49 72.99 67.86 73.9 68.24L75.23 68.77C75.43 68.84 75.68 68.95 75.85 68.99C76.04 69.05 75.96 69.02 76.01 69.02C76.04 69.02 75.99 69.02 76.11 68.99C76.24 68.97 76.41 68.92 76.56 68.88L77.54 68.62C78.21 68.43 78.89 68.23 79.56 68.03C80.91 67.62 82.28 67.19 83.62 66.74C84.28 66.5 84.96 66.29 85.57 66.09L85.96 65.94H85.98H85.99L86.05 66.02L86.17 66.19L86.41 66.52L86.47 66.6L86.5 66.64C86.97 67.31 85.9 65.78 86.01 65.93L86.04 65.9L86.1 65.86C86.29 65.76 86.41 65.61 86.54 65.44C86.8 65.1 87.04 64.49 87.51 63.67C87.97 62.86 88.71 62.03 89.51 61.5C90.51 60.83 91.54 60.39 92.51 60.12C93 59.96 93.5 59.81 94 59.72C94.5 59.61 95 59.49 95.5 59.45C97.5 59.17 99.5 59.15 101.45 59.34C105.36 59.73 109.13 60.73 112.7 62.31L112.68 62.38L112.74 62.39Z" fill="#231F20"/>
<path d="M54.2699 73.4C53.1199 74.8 52.0099 76.26 51.0899 77.84C50.7599 78.42 50.4599 79.02 50.1599 79.62C48.9499 81.66 47.9499 83.85 47.1399 86.11C46.9699 86.61 46.8099 87.12 46.6799 87.64C46.5599 88.16 46.4799 88.68 46.3399 89.19C46.1699 89.85 46.0999 90.52 45.9499 91.18L45.7399 92.18C45.6899 92.51 45.4399 92.83 45.2899 93.16C45.0599 93.57 44.8999 93.51 44.5599 93.11C44.3899 92.91 44.1499 92.63 43.8799 92.27C43.6699 91.92 43.5599 91.52 43.5599 91.1C43.5399 88.1 44.4899 85.24 45.7799 82.58C46.1799 81.79 46.5399 80.97 46.8699 80.13C47.2499 79.31 47.5899 78.47 48.0299 77.68C49.0199 75.96 50.0799 74.29 51.3299 72.74C52.0599 71.76 52.9099 70.88 53.7199 69.98C54.3599 69.32 55.0599 68.71 55.7299 68.07C56.4699 67.51 57.1599 66.9 57.8999 66.35C58.4899 65.94 59.0499 65.51 59.6099 65.06C60.2199 64.69 60.8299 64.33 61.4599 63.97C61.7299 63.8 62.0099 63.66 62.3099 63.56C63.4199 63.13 63.8499 63.23 64.2499 63.69C64.3399 63.79 64.4499 63.89 64.5099 64C64.6199 64.18 64.5899 64.39 64.4599 64.63C64.3299 64.87 64.0999 65.16 63.7699 65.36C62.7599 65.95 61.8399 66.72 60.8799 67.38C60.4099 67.74 59.9399 68.09 59.4599 68.43C58.9799 68.77 58.5499 69.2 58.0799 69.57C57.3699 70.1 56.7799 70.79 56.1199 71.4C55.4899 72.04 54.9099 72.74 54.3099 73.43L54.2499 73.39L54.2699 73.4Z" fill="#231F20"/>
</svg>
