<svg width="128" height="128" viewBox="0 0 128 128" fill="none" xmlns="http://www.w3.org/2000/svg">
<path d="M74.35 66.9C73.35 69.84 72.48 72.85 71.17 75.9C70.7219 77.1218 70.1132 78.2787 69.36 79.34C69.13 79.59 68.91 79.84 68.66 80.08C68.3534 80.3381 68.0178 80.5595 67.66 80.74C66.9085 81.1368 66.0425 81.2605 65.21 81.09C64.493 80.9237 63.8293 80.5798 63.28 80.09C62.8367 79.7217 62.4283 79.3133 62.06 78.87C60.7544 77.2551 59.5488 75.562 58.45 73.8C57.45 72.3 56.45 70.85 55.32 69.5C54.6415 68.6451 53.9065 67.8366 53.12 67.08C52.472 66.3795 51.6807 65.827 50.8 65.46C50.4 65.37 50.16 64.82 50.91 64.26C51.4186 63.9692 52.0121 63.8632 52.59 63.96C53.3232 64.0631 54.0146 64.3638 54.59 64.83C56.4612 66.4363 58.0973 68.2979 59.45 70.36C60.81 72.28 62.05 74.26 63.34 76.08C63.7088 76.6056 64.1274 77.0946 64.59 77.54C64.8845 77.8801 65.2694 78.1297 65.7 78.26C66.02 78.26 66.14 78.26 66.48 77.95C66.8557 77.5458 67.1631 77.083 67.39 76.58C68.0348 75.2342 68.5732 73.8399 69 72.41L70.39 67.91C71 66 71.56 64.17 72.21 62.3C73.1882 59.4408 74.3955 56.6651 75.82 54C76.8825 51.8321 78.2276 49.8146 79.82 48C80.1832 47.6002 80.567 47.2196 80.97 46.86C82.58 45.57 83.36 45.54 84.17 46.21C84.3603 46.3542 84.5376 46.5148 84.7 46.69C85.19 47.31 84.82 48.18 83.96 49.01C82.6711 50.3001 81.5245 51.7249 80.54 53.26C79.4698 54.8707 78.5269 56.5625 77.72 58.32C76.4558 61.0979 75.3703 63.9537 74.47 66.87L74.35 66.9Z" fill="#221F1F"/>
<path d="M117.36 63.84C117.36 71.16 106.49 75.84 103.36 81.99C100.1 88.28 102.6 99.77 97.01 104.05C91.42 108.33 81.01 102.91 74.01 104.41C67.26 105.87 59.88 115.15 52.82 113.24C47.82 111.9 47.21 101.14 43.09 98.34C38.97 95.54 28.7 98.87 25.65 94.87C22.6 90.87 28.52 81.87 26.87 77.12C25.22 72.37 15 69 15 63.84C15 56.45 25.9 51.84 29.18 45.84C32.53 39.64 30.32 28.13 36.06 23.97C41.8 19.81 52.12 25.48 59.06 23.97C65.85 22.49 73.06 13.03 80.06 14.6C85.06 15.71 85.84 26.43 89.93 29.25C94.02 32.07 104.22 28.89 107.18 32.96C110.14 37.03 104 45.83 105.6 50.59C107.2 55.35 117.36 58.82 117.36 63.84Z" stroke="#221F1F" stroke-width="3" stroke-miterlimit="10"/>
<path d="M51.1498 112.87C45.6498 111.57 44.3898 100.55 40.0698 97.96C35.3498 95.13 24.9798 98.96 21.7298 94.9C18.4798 90.84 24.3198 81.37 22.6198 76.33C20.9198 71.29 10.5098 67.67 10.5098 62.24C10.5098 54.57 21.8498 49.64 25.5098 43.14C29.1698 36.64 27.3098 24.47 33.5098 20.19C39.7098 15.91 50.2498 21.93 57.7098 20.98C64.9198 20.07 73.7998 11.58 81.0898 14.78" stroke="#221F1F" stroke-width="3" stroke-miterlimit="10"/>
<path d="M98.9298 25.75C98.3698 25.8 97.8498 25.85 97.3098 25.95C96.7698 26.05 96.1598 26.16 95.5098 26.21C95.006 26.2703 94.4958 26.2466 93.9998 26.14C93.5231 26.021 93.0812 25.7914 92.7098 25.47C92.3769 25.1619 92.0936 24.8044 91.8698 24.41C91.5009 23.6987 91.2381 22.9373 91.0898 22.15C90.9498 21.5 90.8098 20.86 90.6298 20.27C90.3922 19.5527 90.0735 18.8649 89.6798 18.22C89.5598 18.02 89.7598 17.81 90.1398 17.78C90.3851 17.7636 90.6303 17.8145 90.8489 17.9273C91.0674 18.0401 91.251 18.2105 91.3798 18.42C92.3798 20.14 92.5098 21.9 92.9798 23.26C93.104 23.6551 93.3445 24.0036 93.6698 24.26C93.962 24.4743 94.3084 24.6025 94.6698 24.63C95.76 24.6074 96.8453 24.4768 97.9098 24.24C98.6298 24.15 99.3498 24.08 100.08 24.04C101.181 23.9932 102.284 24.0266 103.38 24.14C104.225 24.1961 105.067 24.3029 105.9 24.46C106.082 24.4822 106.263 24.519 106.44 24.57C107.11 24.76 107.26 24.99 107.29 25.36C107.299 25.4397 107.299 25.5202 107.29 25.6C107.29 25.84 106.94 26.02 106.44 26.01C104.97 25.94 103.56 25.75 102.13 25.68C101.048 25.634 99.9643 25.6775 98.8898 25.81L98.9298 25.75Z" fill="#231F20"/>
<path d="M35.1496 101.48C36.3613 101.707 37.4665 102.321 38.2996 103.23C38.5883 103.54 38.8493 103.875 39.0796 104.23C39.7599 105.458 40.332 106.743 40.7896 108.07L41.4496 109.77C41.7601 110.482 42.024 111.214 42.2396 111.96C42.3696 112.43 41.4696 112.13 41.0996 111.31C40.4496 109.86 39.8896 108.41 39.3096 106.96C38.9395 106.094 38.4625 105.278 37.8896 104.53C37.3264 103.749 36.5159 103.182 35.5896 102.92C34.9966 102.76 34.3837 102.686 33.7696 102.7C32.8005 102.719 31.8371 102.854 30.8996 103.1C30.1596 103.29 29.4596 103.59 28.7396 103.84L28.2496 104C27.6396 104.15 27.4096 104.09 27.1996 103.79C27.1496 103.72 27.0996 103.65 27.0596 103.58C26.9496 103.33 27.1496 103.05 27.5596 102.85C28.8508 102.209 30.2287 101.761 31.6496 101.52C32.8052 101.285 33.9926 101.252 35.1596 101.42L35.1496 101.48Z" fill="#231F20"/>
</svg>
