<svg width="128" height="128" viewBox="0 0 128 128" fill="none" xmlns="http://www.w3.org/2000/svg">
<path d="M75.5 56.74C69.47 55.57 71.95 49.77 72.96 49.77C72.96 49.77 66.83 47.41 66.68 46.25C66.53 45.09 63.91 51.64 64.5 52.38C65.09 53.12 73.38 56.84 73.38 56.84L75.51 56.73L75.5 56.74Z" fill="#231F20"/>
<path d="M98.4702 93.54C97.1602 97.16 95.3402 100.61 93.0102 103.67C92.1502 104.78 91.3002 105.9 90.3002 106.89C86.8002 110.39 82.5002 113.02 77.9102 114.63C75.8602 115.31 73.7602 115.9 71.6402 116.18C70.9602 116.31 70.2802 116.39 69.6002 116.44C68.9102 116.49 68.2302 116.56 67.5402 116.53C66.8502 116.51 66.1702 116.5 65.4902 116.46C64.8102 116.4 64.1402 116.14 63.4702 116C62.6402 115.77 62.7602 115.76 63.4902 115.55C63.8502 115.44 64.3602 115.26 64.9702 115.01C65.5702 114.84 66.2602 114.68 67.0002 114.6C72.2602 114.05 77.3002 112.7 81.9802 110.2C84.8002 108.73 87.2402 106.42 89.3602 103.97C91.7402 101.31 93.5902 98.19 95.0102 94.87C95.8602 92.82 96.5802 90.7 97.0502 88.51C97.8002 85.21 98.2002 81.79 98.1102 78.42C98.0302 75.8 97.5302 73.26 96.9502 70.77C96.8102 70.22 96.6802 69.69 96.5202 69.15C96.0002 67.12 95.9002 66.46 96.4702 65.78C96.5902 65.63 96.7102 65.44 96.8402 65.32C97.2902 64.93 98.0402 65.62 98.7102 67.15C100.62 71.71 101.24 77 100.86 82.19C100.61 86.05 99.8402 89.89 98.5602 93.57L98.4902 93.55L98.4702 93.54Z" fill="#231F20"/>
<path d="M27.8099 17.15C28.0999 16.79 28.3899 16.43 28.6799 16.07C28.7899 15.94 28.8499 15.77 28.9599 15.64C29.3699 15.18 29.7899 14.73 30.3299 14.32C30.5699 14.14 30.7699 13.92 31.1299 13.72C31.3399 13.59 31.7599 13.49 32.0999 13.69C32.2599 13.78 32.3799 13.9 32.4299 14.02C32.4699 14.07 32.4799 14.16 32.4599 14.23C32.4499 14.3 32.4599 14.36 32.4599 14.42C32.4499 14.57 32.2999 14.6 32.0599 14.65C31.9299 14.68 31.8099 14.69 31.6099 14.8C31.5699 14.83 31.5399 14.85 31.5099 14.87L31.4799 14.9L31.5199 14.86C31.5899 14.77 31.6199 14.74 31.6399 14.71C31.7299 14.54 31.6099 14.65 31.7699 15.05C31.7899 15.09 31.8099 15.13 31.8399 15.17C31.8499 15.17 31.8699 15.23 31.8799 15.25C31.8799 15.25 31.8799 15.27 31.8699 15.27C31.8499 15.29 31.8199 15.32 31.7899 15.34C31.6399 15.47 31.4399 15.68 31.1599 15.85C30.8299 16.06 30.6799 16.44 30.4399 16.76C30.1699 17.12 29.9099 17.48 29.6399 17.84C29.4699 18.07 29.3099 18.3 29.1399 18.52C28.8799 18.86 28.6099 19.2 28.3899 19.57C28.2099 19.86 28.1199 20.19 27.9099 20.53C27.8699 20.6 27.8199 20.69 27.7499 20.76C27.4899 21.05 27.0299 21.07 26.8999 20.64C26.8699 20.55 26.8599 20.45 26.8699 20.36C26.8699 20.31 26.8899 20.26 26.8899 20.22C26.8899 20.21 26.8899 20.18 26.8899 20.16C26.8899 20.15 26.8899 20.13 26.8699 20.12C26.8699 20.09 26.8499 20.03 26.8299 19.99C26.8099 19.94 26.7799 19.89 26.7499 19.85C26.7299 19.82 26.7099 19.81 26.6899 19.76C26.6599 19.72 26.6799 19.73 26.6699 19.72C26.5999 19.36 26.8699 18.78 27.1099 18.27C27.3099 17.89 27.4999 17.48 27.7799 17.11L27.8199 17.13L27.8099 17.15Z" fill="#231F20"/>
<path d="M22.8902 21.43C22.6802 21.01 21.6202 16.99 23.9602 18.22C26.2502 19.41 19.6502 13.52 18.8702 14.2C18.0902 14.88 21.8302 19.67 21.8302 19.67" fill="#231F20"/>
<path d="M20.9898 22.98C21.9898 23.18 17.0198 23.18 18.2998 24.82C19.0698 25.81 13.7298 21.78 14.4898 21.43C15.2498 21.08 20.9898 22.98 20.9898 22.98Z" fill="#231F20"/>
<path d="M20.6201 31.35C17.5301 32.32 16.8801 32.11 16.5301 31.2C16.1501 30.2 17.8601 28.05 19.0801 27.79C19.0801 27.79 13.2801 29.6 13.4301 31.2C13.5801 32.8 16.6801 32.61 16.6801 32.61L20.6201 31.35Z" fill="#231F20"/>
<path d="M25.0099 33.94C25.0099 33.94 24.8699 38.02 26.5399 36.26C27.2699 35.49 23.8799 38.57 23.9599 36.9C24.0399 35.23 25.0099 33.95 25.0099 33.95V33.94Z" fill="#231F20"/>
<path d="M38.0299 108.27C38.0299 108.27 26.6199 110.43 32.9099 112.35C40.2799 114.59 52.8199 115.73 52.8199 115.73L43.9399 110.66L38.0299 108.27Z" fill="#231F20"/>
<path d="M75.7302 116.29C70.4602 117.44 65.0802 117.6 59.8002 116.99C54.5202 116.37 49.3202 114.95 44.5102 112.59C41.0202 110.85 37.6902 108.68 34.9202 105.87C32.4502 103.43 30.4502 100.51 28.9602 97.39C27.4802 94.23 26.5302 90.96 25.9202 87.58C24.6902 80.83 25.5502 73.73 28.1902 67.45C29.3502 64.66 30.8302 62 32.5402 59.53C34.2402 57.01 36.3502 54.76 38.6502 52.85C40.1302 51.61 41.7002 50.49 43.3402 49.45C45.0102 48.47 46.7202 47.54 48.5302 46.85C52.1002 45.39 56.1102 44.51 59.9702 45.26C62.3402 45.89 61.9402 45.85 59.9602 46.19C58.9702 46.4 57.6102 46.79 56.0702 47.35C54.5302 47.91 52.7502 48.41 50.8502 49.17C49.1702 49.81 47.5202 50.58 45.9602 51.5C44.3802 52.39 42.8602 53.4 41.4202 54.5C39.9702 55.59 38.6402 56.83 37.4002 58.13L36.5002 59.13L35.6702 60.17C35.1302 60.88 34.6102 61.66 34.0902 62.41C32.1102 65.49 30.4702 68.8 29.4502 72.31C28.4302 75.82 27.9402 79.5 28.1302 83.19C28.1902 85.4 28.5702 87.63 29.1102 89.83C29.6402 92.04 30.4202 94.21 31.3802 96.24C33.3102 100.34 36.3702 103.87 39.9702 106.62C43.9402 109.66 48.6202 111.78 53.5102 113.08C58.4102 114.38 63.5402 114.89 68.6102 114.59C71.7302 114.42 74.8302 113.88 77.8002 112.96C80.7402 112.02 83.5302 110.58 86.0202 108.75C87.8902 107.34 89.6002 105.71 91.1102 103.9C92.6202 102.09 93.8702 100.07 94.9302 97.97C95.9902 95.86 96.8202 93.63 97.4002 91.35C97.9802 89.06 98.3802 86.73 98.5102 84.38C98.9302 77.08 97.1902 69.82 93.5602 63.69C93.1802 63 92.7502 62.36 92.3002 61.73C91.8802 61.08 91.3902 60.47 90.9102 59.85C89.0902 57.57 87.7402 56.21 86.8102 55.22C85.9002 54.2 85.4202 53.55 85.1402 52.83C85.0202 52.51 84.8102 52.12 84.7702 51.87C84.7102 51.44 85.2502 51.49 86.3002 51.99C86.5602 52.11 86.8602 52.26 87.1802 52.44C87.4902 52.63 87.8202 52.87 88.1802 53.12C88.5402 53.38 88.9302 53.66 89.3302 53.99C89.7102 54.34 90.1202 54.71 90.5402 55.1C93.0202 57.49 95.1702 60.32 96.8502 63.44C98.5302 66.57 99.7502 69.97 100.51 73.5C102.03 80.55 101.63 88.12 99.1802 95.08C97.3502 100.22 94.4002 105.08 90.2802 108.81C88.2402 110.68 85.9502 112.28 83.5002 113.56C81.0602 114.86 78.3902 115.75 75.7502 116.35L75.7202 116.29H75.7302Z" fill="#231F20"/>
<path d="M66.6898 48.14C66.5198 48.46 66.3498 48.79 66.2098 49.13C66.1598 49.26 66.1698 49.39 66.1098 49.52C65.9098 49.96 65.7398 50.42 65.5698 50.89C65.4898 51.1 65.4698 51.31 65.4498 51.52C65.4198 51.79 65.3398 52.06 65.1598 52.33C65.0998 52.42 64.9298 52.41 64.7098 52.33C64.4998 52.26 64.1898 52.11 64.0798 51.94C63.9998 51.79 63.9098 51.64 63.8498 51.48C63.8198 51.33 63.8098 51.18 63.8098 51.02C63.7898 50.72 63.8498 50.41 64.0198 50.13C64.1998 49.79 64.1598 49.41 64.2398 49.04C64.3298 48.64 64.4698 48.25 64.5998 47.87C64.6898 47.63 64.7898 47.4 64.8798 47.17C65.0198 46.81 65.1998 46.47 65.3098 46.11C65.3998 45.83 65.3798 45.5 65.4498 45.18C65.4598 45.11 65.4498 45.03 65.4798 44.96C65.6198 44.73 65.8798 44.79 66.2798 44.99L66.5598 45.13C66.8598 45.3 67.0798 45.55 67.1998 45.78C67.3798 46.35 67.2198 46.72 67.0798 47.16C66.9698 47.48 66.8198 47.79 66.7098 48.13H66.6598L66.6898 48.14Z" fill="#231F20"/>
<path d="M81.1998 52.19C80.9998 52.66 80.8098 53.14 80.6098 53.6C80.5398 53.77 80.5198 53.96 80.4398 54.12C80.1598 54.71 79.7798 55.27 79.4898 55.84C79.3498 56.09 79.2698 56.37 79.1398 56.62C78.9898 56.95 78.8498 57.29 78.5198 57.55C78.4198 57.63 78.2998 57.56 78.1498 57.4C78.0198 57.24 77.7798 56.96 77.7598 56.74C77.7798 56.37 77.7398 55.98 77.8598 55.64C77.9698 55.3 78.1198 54.98 78.3098 54.66C78.5398 54.28 78.5598 53.82 78.7198 53.4C78.8898 52.95 79.0598 52.48 79.2298 52.03C79.3298 51.75 79.4298 51.46 79.5098 51.18C79.6298 50.74 79.7998 50.31 79.8598 49.87C79.9098 49.53 79.8498 49.17 79.8198 48.84C79.8198 48.77 79.7898 48.69 79.7998 48.62C79.7998 48.36 79.9298 48.28 80.3798 48.23L80.6898 48.2C81.0398 48.18 81.3198 48.31 81.4198 48.55C81.7198 49.26 81.7198 49.99 81.6498 50.69C81.6098 51.21 81.3998 51.7 81.2598 52.19H81.2098H81.1998Z" fill="#231F20"/>
<path d="M56.1498 27.08C57.4198 25.08 58.5598 22.8 60.1398 20.6C61.6598 18.39 63.8898 16.36 66.4898 15.2C68.3798 14.41 70.4098 13.84 72.5598 13.95C74.4398 14.05 76.3298 14.68 77.8598 15.75C79.4098 16.81 80.6098 18.23 81.4898 19.77C82.3698 21.31 82.9498 22.98 83.2698 24.68C83.6098 26.38 83.5898 28.2 83.3398 29.86C82.8598 32.83 81.9098 35.67 80.5998 38.28C79.7698 39.96 78.8198 41.6 77.6498 43.1C77.0598 43.84 76.4098 44.54 75.6898 45.17C75.5098 45.33 75.3398 45.49 75.1598 45.64L74.5598 46.04C74.1598 46.31 73.7598 46.56 73.3298 46.78C72.2598 47.32 72.3098 47.04 72.8298 46.14C73.0998 45.71 73.4098 45.04 73.7598 44.3C74.1198 43.55 74.5898 42.78 75.1298 41.95C77.1598 39.15 78.7598 35.95 79.7298 32.64C80.2298 31 80.5698 29.31 80.6298 27.68C80.6898 26.11 80.3698 24.42 79.8198 22.84C79.1298 20.97 77.8998 19.27 76.2598 18.23C75.4298 17.73 74.5298 17.38 73.5898 17.2C72.6398 17.08 71.6598 17.04 70.6698 17.22C68.4798 17.57 66.3898 18.57 64.7198 20.08C63.0498 21.63 61.7698 23.68 60.5198 25.86C58.9898 28.51 57.3498 31.44 54.7098 33.56C52.7598 35.16 50.3798 36.2 47.9298 36.67C45.4798 37.13 42.9398 37.05 40.5698 36.47C38.7298 36 36.9298 35.41 35.2698 34.5C33.5798 33.66 32.0298 32.54 30.6498 31.21C30.0798 30.59 29.4398 30.04 28.9698 29.31C27.0798 26.71 27.2398 25.44 27.6498 24.64C27.7398 24.46 27.7898 24.24 27.8698 24.13C27.9998 23.94 28.2498 24.12 28.6998 24.5C28.9498 24.68 29.1498 24.94 29.3698 25.26C29.5898 25.58 29.9398 25.9 30.2098 26.3C31.8898 28.7 34.3398 30.56 36.9798 31.95C38.2998 32.66 39.7398 33.13 41.1798 33.51L42.2798 33.71L42.8298 33.81L43.3798 33.84L44.4798 33.92C44.8498 33.92 45.2098 33.88 45.5798 33.87C47.7398 33.73 49.8198 33.06 51.6298 31.89C52.0598 31.57 52.5098 31.27 52.9398 30.94C53.3198 30.57 53.7298 30.24 54.0798 29.8C54.8198 29 55.4598 28.04 56.0898 27.03L56.1598 27.07L56.1498 27.08Z" fill="#231F20"/>
<path d="M19.7402 15.5C19.7402 15.5 19.7402 15.58 19.7602 15.64V15.66C19.7602 15.66 19.7602 15.66 19.8002 15.74L19.9602 16.05L20.3202 16.67C20.8202 17.5 21.3802 18.33 21.9502 19.17L22.6802 20.23C22.9402 20.61 23.1902 20.99 23.4202 21.35C23.6502 21.72 23.7302 22.04 23.7602 22.3C23.7602 22.55 23.7602 22.73 23.6902 22.94C23.5302 23.26 23.3202 23.36 23.1002 23.46C22.8802 23.56 22.6002 23.62 22.2502 23.63C21.5502 23.64 20.5902 23.4 19.7702 23.2L17.4302 22.6L16.5602 22.39C16.4502 22.36 16.3402 22.34 16.2102 22.33C16.1502 22.33 16.0802 22.33 16.0402 22.37C16.0102 22.42 15.9902 22.47 16.0002 22.52C16.0302 22.73 16.2302 22.87 16.4302 23.01C16.4802 23.05 16.5402 23.08 16.5902 23.11C16.6602 23.15 16.6502 23.15 16.8802 23.27C17.2302 23.45 17.5902 23.62 17.9602 23.78L19.1002 24.27L20.8902 24.99C21.0602 25.06 21.1402 25.15 21.2802 25.23C21.3802 25.31 21.5602 25.4 21.6002 25.47L21.7502 25.7L21.7902 25.76C21.7902 25.76 21.6502 25.79 21.7102 25.78V25.8C21.7102 25.81 21.7102 25.83 21.7102 25.84C21.7102 25.89 21.7102 25.93 21.7002 25.97C21.6302 26.14 21.5002 26.34 21.2902 26.55C21.0802 26.76 20.7402 26.97 20.4102 27.17L17.5702 28.92C16.7402 29.44 15.9302 29.99 15.1902 30.58C14.8302 30.86 14.4102 31.26 14.3302 31.37C14.2602 31.46 14.1902 31.56 14.1702 31.68C14.1402 31.81 14.2602 31.89 14.3602 31.93C14.5202 31.99 14.6602 32.02 14.8302 32.02C16.1602 32.07 17.6102 31.69 19.0002 31.3C20.3902 30.88 21.7802 30.4 23.1102 29.83C23.9202 29.46 23.9602 29.73 23.3902 30.35C22.8102 30.95 21.5902 31.85 19.9402 32.46C18.9702 32.81 17.9802 33.12 16.9402 33.35C16.4202 33.46 15.8802 33.55 15.3102 33.58C14.9902 33.6 14.8402 33.61 14.2102 33.54C13.9602 33.5 13.7502 33.42 13.5502 33.32C13.3402 33.23 13.1302 33.15 12.9302 33.02C12.8002 32.87 12.6402 32.75 12.5502 32.58C12.4602 32.4 12.3902 32.2 12.3802 32C12.3502 31.6 12.4802 31.2 12.7302 30.82C12.9402 30.45 13.3802 30 13.5102 29.87C13.7102 29.68 13.9002 29.5 14.1002 29.33C14.8902 28.65 15.7102 28.07 16.5302 27.51C16.9402 27.23 17.3702 26.97 17.7802 26.71L18.3802 26.34C18.4402 26.31 18.4502 26.31 18.5002 26.29L18.7802 26.17C18.8702 26.14 18.8102 26.12 18.7802 26.1C18.7502 26.08 18.7102 26.06 18.6802 26.03L18.6002 25.98L18.4202 25.88L18.3702 25.85L18.2102 25.78L17.8902 25.64L16.5902 25.07L15.9402 24.76C15.6102 24.61 15.2602 24.4 14.9302 24.22C14.2602 23.84 13.7402 23.39 13.3302 22.96C13.0102 22.52 12.7702 22.09 12.7402 21.56C12.7702 21.31 12.7902 20.99 12.9402 20.75C13.1302 20.53 13.2602 20.41 13.4702 20.33C13.8602 20.16 14.3902 20.09 15.1002 20.16C15.8002 20.23 16.5802 20.41 17.3302 20.58L20.0002 21.27C20.1802 21.32 20.3702 21.37 20.5602 21.41C20.6602 21.43 20.7602 21.45 20.8602 21.45C20.9102 21.45 20.9802 21.44 20.9802 21.39C20.9802 21.34 20.9502 21.3 20.9302 21.26L20.6202 20.77L20.1102 20.01C19.5302 19.16 18.9402 18.3 18.4002 17.39C18.2402 17.12 18.1102 16.88 17.9402 16.56C17.7302 16.16 17.5602 15.75 17.4302 15.35C17.2102 14.55 17.1802 13.8 17.7402 13.23C18.4602 12.67 19.3502 12.9 20.2302 13.33C21.2102 13.86 21.6502 14.24 22.2102 14.69C22.9702 15.32 23.6902 15.99 24.3702 16.69C24.7102 17.04 25.0402 17.39 25.3702 17.76C25.7502 18.19 25.8902 18.35 26.0502 18.56L26.3002 18.88L26.4202 19.04C26.4502 19.1 26.5302 19.13 26.5802 19.07C26.7602 18.87 26.8402 18.61 26.9502 18.36C27.2402 17.57 27.5302 16.78 27.8302 16C28.1002 15.3 28.3702 14.6 28.7002 13.91C28.7802 13.74 28.8702 13.56 28.9602 13.39C29.0702 13.16 29.2302 12.94 29.3702 12.71C29.6802 12.28 30.0402 11.9 30.4502 11.67C30.8602 11.43 31.3602 11.35 31.8302 11.5C32.3002 11.66 32.6102 12.03 32.8302 12.46C33.0402 12.9 33.1502 13.45 33.2002 14.02L33.2202 14.45V14.76L33.2002 15.35C33.1602 16.04 33.1002 16.7 32.9702 17.37C32.7302 18.61 32.4302 19.4 32.0902 19.91C31.7702 20.42 31.4402 20.67 31.0702 20.77C30.9002 20.82 30.7102 20.89 30.5802 20.88C30.1402 20.81 30.3502 19.98 30.6202 18.33C30.8702 17.14 31.0502 15.87 31.0502 14.7V14.48C31.0502 14.48 31.0402 14.45 31.0302 14.43L31.0102 14.37C31.0102 14.37 30.9802 14.31 30.9502 14.3C30.9102 14.26 30.8302 14.3 30.8102 14.36C30.8002 14.38 30.7902 14.4 30.7902 14.42C30.7902 14.42 30.7902 14.44 30.7402 14.52L30.5402 14.92C30.2702 15.47 30.0302 16.07 29.7902 16.69L29.0802 18.6C28.6802 19.67 28.1002 21.31 27.3102 21.55C27.0802 21.68 26.6402 21.74 26.4502 21.69C26.3302 21.68 26.2202 21.68 26.0602 21.58L25.8402 21.47L25.7302 21.41L25.6102 21.28C25.3002 20.96 24.9902 20.58 24.6902 20.19L23.9702 19.34C23.3702 18.66 22.7302 17.99 22.0802 17.37C21.4202 16.75 20.7402 16.15 20.0402 15.66L19.8702 15.53C19.8702 15.53 19.8202 15.5 19.8002 15.51C19.7902 15.51 19.7802 15.53 19.7802 15.54L19.7102 15.5H19.7402Z" fill="#231F20"/>
<path d="M26.3502 38.06C25.8402 38.53 25.3402 38.79 24.9102 38.8C24.6902 38.83 24.4702 38.81 24.2202 38.73C23.9502 38.69 23.7402 38.44 23.5602 38.29C23.3002 38.03 23.1102 37.78 23.0002 37.4C22.8002 36.74 23.0002 35.77 23.1502 35L23.2902 34.42L23.4102 34.04L23.6502 33.31C23.7902 32.88 23.8802 32.45 23.9402 32.02C23.9702 31.74 24.0402 31.48 24.1102 31.21C24.1502 31.08 24.1902 30.95 24.2402 30.82C24.2802 30.69 24.4402 30.57 24.5302 30.44C24.6802 30.28 24.7202 30.29 24.9302 30.44C25.1002 30.57 25.2802 30.7 25.4102 30.8C25.5702 30.95 25.6602 31.12 25.7002 31.31C25.8502 31.96 25.7502 32.55 25.6502 33.13C25.5402 33.68 25.4102 34.31 25.2002 34.73C24.9902 34.99 25.0502 35.18 25.0302 35.45C25.0202 35.6 25.0602 35.82 25.2102 35.87C25.3402 35.89 25.4602 35.82 25.5802 35.73C25.7302 35.62 25.8902 35.47 26.0502 35.28L26.3402 34.94C26.4502 34.8 26.5702 34.66 26.6702 34.52C26.8802 34.23 27.0902 33.93 27.2702 33.62C27.5502 33.14 27.7402 32.61 27.9602 32.1C28.0102 31.99 28.0702 31.88 28.1302 31.78C28.4002 31.41 28.5802 31.34 28.9402 31.43C29.0202 31.45 29.1002 31.47 29.1802 31.49C29.4102 31.58 29.5502 31.87 29.5002 32.23C29.4602 32.78 29.3002 33.28 29.0802 33.77C28.8702 34.26 28.6302 34.74 28.3502 35.21L27.7202 36.26C27.3702 36.84 26.8702 37.61 26.3602 38.1L26.3402 38.04L26.3502 38.06Z" fill="#231F20"/>
<path d="M37.8602 23.51C37.9102 23.5 38.0002 23.46 38.0602 23.39C38.1302 23.32 38.1302 23.18 38.0602 23.16C38.0002 23.13 37.9102 23.16 37.8502 23.15C37.8902 23.1 37.1802 23.1 36.7102 23.12C36.2002 23.14 35.6802 23.17 35.1602 23.23C34.7002 23.27 34.2402 23.34 33.8002 23.44C33.5202 23.5 33.2202 23.57 32.9402 23.63C32.6402 23.65 32.3402 23.66 32.0102 23.6C31.8002 23.56 31.8202 23.53 31.9302 23.34C32.0302 23.14 32.2202 22.74 32.5202 22.49C33.6602 21.94 34.8502 21.52 36.1402 21.54C36.5202 21.54 36.9002 21.48 37.2902 21.43C37.4002 21.41 37.4702 21.42 37.6002 21.37L38.0702 21.34C38.3902 21.3 38.6802 21.34 38.9802 21.35C39.2702 21.41 39.5702 21.46 39.7602 21.61C39.8702 21.67 39.9602 21.75 40.0602 21.83L40.2102 21.97C40.2402 22.03 40.2602 22.1 40.2802 22.17C40.4802 22.71 40.4102 23.28 40.1102 23.77C39.9102 24.07 39.6902 24.36 39.3802 24.6C39.2402 24.72 39.1002 24.86 38.9502 24.96L38.6002 25.2C37.9002 25.65 37.1602 25.96 36.4302 26.3C35.8602 26.55 35.3402 26.89 34.7302 27.12C34.6002 27.18 34.4702 27.25 34.3202 27.26C33.7902 27.34 33.5602 27.18 33.4402 26.71C33.4102 26.6 33.3702 26.49 33.3602 26.39C33.3102 26.03 33.4802 25.69 33.7402 25.51C34.1402 25.18 34.5702 25.03 35.0202 24.82C35.4602 24.62 35.9202 24.44 36.3702 24.23C36.7002 24.08 37.0302 23.92 37.3302 23.75C37.4902 23.67 37.6402 23.57 37.7602 23.49C37.8002 23.48 37.7902 23.49 37.8102 23.48L37.8602 23.5V23.51Z" fill="#231F20"/>
<path d="M44.6802 61.96C44.0002 62.69 43.3402 63.47 42.7102 64.28C42.4902 64.58 42.3302 64.93 42.1102 65.23C41.3402 66.32 40.6202 67.47 39.9902 68.67C39.7102 69.2 39.4802 69.76 39.2802 70.32C38.9902 71.03 38.8902 71.8 38.3802 72.45C38.2202 72.66 38.1002 72.59 37.9302 72.34C37.8402 72.21 37.7402 72.03 37.6302 71.81C37.5402 71.6 37.5202 71.37 37.5602 71.14C37.8702 69.54 38.2802 67.94 39.1402 66.52C39.6402 65.67 39.9902 64.71 40.4802 63.83C41.0202 62.86 41.6402 61.93 42.3402 61.06C42.7602 60.52 43.2302 60.01 43.6902 59.5C44.4102 58.74 45.2102 58.05 46.0102 57.37C46.3302 57.12 46.6202 56.83 46.9302 56.54C47.2602 56.29 47.5702 56 47.9302 55.76C48.0802 55.65 48.2402 55.55 48.4102 55.47C49.0602 55.19 49.3402 55.28 49.6702 55.86C49.7502 55.99 49.8302 56.12 49.8902 56.25C50.0902 56.71 49.9902 57.2 49.6802 57.51C49.2002 57.93 48.7902 58.42 48.2802 58.73C47.8202 59.15 47.3002 59.48 46.8302 59.93C46.1002 60.53 45.3902 61.23 44.7402 61.98L44.6902 61.94L44.6802 61.96Z" fill="#231F20"/>
<path d="M75.09 51.83C73.67 51.5 72.3 51.04 70.98 50.47C70.5 50.25 69.99 50.1 69.53 49.83C68.7 49.39 67.9 48.87 67.18 48.21C66.81 47.89 66.47 47.52 66.16 47.12L65.93 46.81L65.7 46.41C65.62 46.27 65.56 46.06 65.51 45.88C65.49 45.64 65.44 45.41 65.53 45.14C65.65 44.63 66.04 44.36 66.3 44.2C66.58 44.05 66.84 43.97 67.07 43.91C67.54 43.8 67.97 43.76 68.39 43.74C68.93 43.72 69.45 43.68 69.97 43.78C70.48 43.88 70.96 44.16 71.41 44.47C71.69 44.67 71.61 44.81 71.3 45.08C71.09 45.26 70.87 45.45 70.68 45.61C70.56 45.71 70.42 45.84 70.29 45.92C70.16 45.99 70.03 46.05 69.89 46.08C69.77 46.11 69.65 46.14 69.54 46.16H69.21C68.99 46.16 68.77 46.15 68.57 46.16C68.16 46.16 67.74 46.22 67.56 46.27C67.52 46.24 67.58 46.42 67.39 46.02C67.33 45.9 67.25 45.79 67.15 45.69C67.1 45.62 67.07 45.58 67 45.54C66.89 45.49 66.98 45.53 66.96 45.51C67 45.51 67.04 45.52 67.08 45.51C67.15 45.49 67.53 45.44 67.77 45.29C67.76 45.28 67.79 45.35 67.79 45.39C67.81 45.45 67.88 45.55 67.92 45.63C68.02 45.8 68.12 45.97 68.25 46.14C68.86 46.97 69.94 47.49 70.98 47.95C72.13 48.47 73.37 48.88 74.63 49.17C75.4 49.35 76.19 49.49 76.97 49.54L77.76 49.58C77.93 49.58 78.11 49.58 78.29 49.58C78.63 49.54 79.09 49.47 79.18 49.1C79.15 48.81 78.88 48.58 78.66 48.42C78.41 48.24 78.25 48.19 78 48.04L77.52 47.73C76.97 47.27 76.94 47.04 77.06 46.42C77.08 46.29 77.07 46.17 77.08 46.07C77.05 45.78 77.73 45.36 78.41 45.58C78.94 45.71 79.32 45.9 79.85 46.2C80.58 46.63 81.3 47.24 81.72 47.93C82.13 48.61 82.34 49.28 82.13 49.96L82.04 50.22L82.02 50.29V50.31C82.04 50.31 81.98 50.3 82.06 50.33V50.36L81.99 50.48C81.93 50.66 81.79 50.77 81.69 50.92C81.47 51.19 81.22 51.43 80.87 51.61C80.38 51.88 79.76 52.06 79.1 52.13C78.77 52.17 78.43 52.19 78.1 52.2C77.94 52.21 77.74 52.2 77.63 52.2H77.34C76.57 52.14 75.83 52.03 75.1 51.89V51.83H75.09Z" fill="#231F20"/>
<path d="M72.5999 57.65C71.4599 57.33 70.3399 56.95 69.2499 56.5C68.8599 56.33 68.4399 56.21 68.0499 56.04C66.6999 55.33 65.3999 54.52 64.2399 53.51C63.9699 53.31 63.7499 53.04 63.4899 52.82C63.2499 52.58 62.9699 52.38 62.7499 52.12C62.4499 51.8 62.1399 51.48 61.9199 51.1C61.8299 50.89 61.7199 50.7 61.6699 50.48C61.6199 50.25 61.5799 50.03 61.5399 49.8C61.5099 49.52 61.6599 49.49 62.0199 49.53C62.2599 49.56 62.5099 49.59 62.7099 49.62C62.9899 49.64 63.2499 49.7 63.3999 49.84C63.5299 49.97 63.7299 50.05 63.8799 50.16C64.0399 50.26 64.1499 50.41 64.2799 50.53C64.5099 50.8 64.8299 51.01 65.0999 51.26C65.3699 51.51 65.6599 51.75 65.9299 52.02C66.1999 52.29 66.4699 52.57 66.7799 52.82C67.4899 53.47 68.4299 53.83 69.3199 54.22C69.8099 54.44 70.3099 54.67 70.8199 54.84C71.3299 55.04 71.8399 55.22 72.3699 55.37C73.0099 55.58 73.6699 55.72 74.3299 55.87L75.8499 56.12C76.3599 56.16 76.8699 56.22 77.3799 56.21C78.1699 56.2 78.9299 56.02 79.6399 55.82C79.7999 55.77 79.9399 55.71 80.0999 55.67C80.6799 55.58 80.8599 55.65 81.1799 56.09C81.2499 56.19 81.3299 56.28 81.3899 56.38C81.5899 56.71 81.4399 57.09 80.9499 57.43C79.4599 58.29 77.7699 58.31 76.1699 58.24C74.9699 58.18 73.7899 57.95 72.6199 57.7V57.65H72.5999Z" fill="#231F20"/>
<path d="M98.8099 38.16C98.8499 38.34 98.6299 38.45 98.3099 38.52C98.2099 38.54 97.9199 38.49 97.8799 38.44C97.8099 38.33 97.7299 38.22 97.6699 38.11C97.6299 37.95 97.4299 37.07 97.3499 36.73C97.2999 36.41 97.3099 36.1 97.3399 35.8C97.3899 35.18 97.4099 34.56 97.4399 33.96C97.4399 33.83 97.4699 33.69 97.5199 33.56C97.6899 33.12 97.7199 32.66 97.6899 32.2C97.6899 32.12 97.6999 32.05 97.6199 31.97C97.4999 31.84 97.4799 30.62 97.5299 30.46C97.6899 30.06 97.7299 29.66 97.8899 29.24C97.9099 29.18 97.8899 29.12 97.9799 29.06C98.2099 28.93 98.1699 28.8 98.1899 28.67C98.2099 28.49 98.2499 28.31 98.3599 28.13C98.4199 28.04 98.5099 27.95 98.6399 27.85C98.7399 27.76 98.9499 27.79 98.9899 27.82C99.0799 27.89 99.1999 27.82 99.2899 27.81C99.3199 27.81 99.3699 27.8 99.3999 27.81C99.4599 27.81 99.6699 28.06 99.8999 28.32C100.09 28.59 100.27 28.87 100.27 28.93C100.26 28.94 100.4 29.33 100.45 29.75C100.51 30.16 100.56 30.6 100.58 30.69C100.6 30.78 100.54 30.88 100.51 30.97C100.51 31.01 100.63 32.28 100.61 32.34C100.57 32.6 100.63 32.87 100.4 33.11C100.36 33.16 100.36 33.21 100.36 33.26C100.33 33.71 100.19 34.14 100.07 34.57C100.01 34.79 99.9999 35.01 99.9499 35.23C99.9499 35.27 99.9099 35.31 99.8899 35.34C99.8699 35.39 99.8299 35.43 99.8199 35.48C99.7399 36 99.5499 36.5 99.5199 37.02C99.5399 37.14 99.1299 37.66 99.1199 37.8C99.0999 37.88 98.7899 38.08 98.8099 38.15V38.16Z" fill="#231F20"/>
<path d="M105.07 43.19C105.06 43.37 104.82 43.37 104.47 43.28C104.36 43.25 104.09 43.07 104.07 43C104.04 42.87 104.01 42.75 104 42.63C104 42.56 104.27 41.68 104.35 41.36C104.42 41.05 104.55 40.78 104.7 40.52C104.99 39.99 105.35 39.51 105.7 39.01C105.78 38.9 105.88 38.81 105.99 38.73C106.39 38.46 106.68 38.12 106.94 37.74C106.98 37.68 107.04 37.63 107.03 37.52C107.01 37.34 107.82 36.39 107.98 36.32C108.41 36.1 108.74 35.94 109.11 35.75C109.16 35.72 109.19 35.66 109.29 35.69C109.53 35.77 109.59 35.66 109.69 35.59C109.83 35.49 109.99 35.42 110.17 35.36C110.26 35.33 110.4 35.36 110.53 35.38C110.64 35.39 110.81 35.64 110.82 35.69C110.82 35.81 110.97 35.88 111.06 35.97C111.09 36 111.13 36.04 111.15 36.07C111.18 36.13 110.94 37.23 110.86 37.28C110.83 37.28 110.05 38.41 109.96 38.53C109.92 38.6 109.83 38.62 109.75 38.66C109.71 38.67 109.1 39.57 109.07 39.59C108.9 39.73 108.81 39.95 108.52 39.99C108.46 39.99 108.44 40.04 108.41 40.07C108.18 40.37 107.87 40.61 107.59 40.88C107.44 41.01 107.34 41.18 107.21 41.33C107.19 41.36 107.14 41.37 107.11 41.39C107.07 41.42 107.02 41.44 107 41.47C106.73 41.85 106.31 42.12 106.07 42.52C106.01 42.61 105.52 42.9 105.47 43.01C105.43 43.07 105.09 43.11 105.09 43.19H105.07Z" fill="#231F20"/>
<path d="M106.53 47.94C106.41 48.07 106.27 47.84 106.12 47.43C106.07 47.3 106.03 46.88 106.06 46.82C106.12 46.69 106.18 46.57 106.25 46.47C106.29 46.42 107 46.05 107.23 45.89C107.46 45.74 107.7 45.67 107.93 45.6C108.42 45.47 108.91 45.4 109.4 45.3C109.51 45.28 109.62 45.29 109.74 45.32C110.13 45.43 110.51 45.38 110.88 45.28C110.94 45.26 111.01 45.27 111.06 45.17C111.14 45 112.16 44.88 112.3 44.95C112.71 45.09 113 45.19 113.34 45.31C113.39 45.33 113.44 45.3 113.49 45.39C113.62 45.61 113.71 45.57 113.82 45.58C113.96 45.6 114.11 45.63 114.26 45.69C114.33 45.72 114.42 45.83 114.5 45.91C114.57 45.99 114.57 46.28 114.55 46.31C114.5 46.41 114.57 46.54 114.59 46.66C114.59 46.7 114.61 46.75 114.61 46.79C114.61 46.85 113.88 47.56 113.79 47.59C113.79 47.59 113.49 47.72 113.19 47.85C112.89 47.98 112.56 48.06 112.5 48.1C112.43 48.13 112.36 48.09 112.28 48.07C112.25 48.07 111.32 48.38 111.29 48.36C111.09 48.36 110.9 48.46 110.68 48.27C110.64 48.23 110.6 48.25 110.56 48.26C110.23 48.33 109.88 48.28 109.54 48.26C109.36 48.26 109.2 48.3 109.02 48.31C108.99 48.31 108.95 48.28 108.92 48.27C108.88 48.26 108.84 48.23 108.8 48.24C108.4 48.31 107.97 48.19 107.57 48.29C107.48 48.31 107 48.11 106.89 48.14C106.83 48.16 106.6 47.87 106.55 47.92L106.53 47.94Z" fill="#231F20"/>
</svg>
