<svg width="128" height="128" viewBox="0 0 128 128" fill="none" xmlns="http://www.w3.org/2000/svg">
<path d="M84.5798 120.41L92.2098 114.47C92.2098 114.47 92.9698 115.48 94.7998 115.23C97.3298 114.89 102.39 118.81 101.48 121.26C100.59 123.66 90.7898 123.54 89.1298 122.81C87.4698 122.08 84.5698 120.4 84.5698 120.4L84.5798 120.41Z" fill="#231F20"/>
<path d="M98.8001 120.38C99.4101 120.32 100.05 120.31 100.7 120.35C101.34 120.39 102.07 120.56 102.5 120.66C102.98 120.77 103.4 120.85 103.76 120.88C103.84 120.88 103.93 120.9 104 120.9C104.03 120.9 104.06 120.9 104.09 120.9C104.15 120.9 104.21 120.88 104.27 120.86C104.36 120.83 104.42 120.74 104.41 120.64C104.41 120.52 104.41 120.51 104.38 120.31C104.26 119.25 103.76 118.17 102.97 117.33C102.21 116.48 101.06 115.87 99.9101 115.54C98.9601 115.33 97.7001 115.58 96.5201 115.72C95.7401 115.8 94.9201 115.95 94.0801 115.76C93.2501 115.61 92.3801 115.16 91.9101 114.44C91.6301 113.99 91.7601 114.03 92.1401 114.21C92.3201 114.31 92.6201 114.38 92.9301 114.41C93.2601 114.42 93.6001 114.39 93.9801 114.33C94.3101 114.31 94.6401 114.18 94.9901 114.15C95.3301 114.11 95.6901 114.05 96.0601 113.98C96.8001 113.84 97.5601 113.67 98.4201 113.56C98.8401 113.5 99.3101 113.47 99.8101 113.49C100.06 113.51 100.37 113.55 100.6 113.6L101.25 113.78C102.12 114.03 102.96 114.46 103.69 115.03C104.57 115.7 105.37 116.53 105.98 117.51C106.28 118 106.55 118.51 106.74 119.06C106.86 119.34 106.9 119.6 107.01 119.92C107.07 120.32 107.13 120.73 107.11 121.13C107.15 122.02 106.63 122.77 105.89 123.2C105.18 123.65 104.18 123.78 103.6 123.74C102.94 123.71 102.36 123.58 101.82 123.47C101.54 123.4 101.32 123.36 101.11 123.32C100.89 123.29 100.66 123.26 100.44 123.25C99.3101 123.18 98.0901 123.41 96.8201 123.71C95.8601 123.93 94.8501 124.17 93.8001 124.31C92.7501 124.45 91.6901 124.49 90.6401 124.45C89.0201 124.38 87.3501 124.23 85.7501 123.59C85.4001 123.46 85.0501 123.31 84.7101 123.13C83.4901 122.38 83.3501 121.81 83.6501 121.09C83.7201 120.92 83.7801 120.75 83.8701 120.6C84.1901 120.11 84.8601 120.12 85.6201 120.39C86.7301 120.83 87.8201 121.17 88.9901 121.36C90.1501 121.54 91.3801 121.6 92.6001 121.49C94.3701 121.37 96.3101 120.64 98.7901 120.31V120.38H98.8001Z" fill="#231F20"/>
<path d="M98.1901 52.6C106.19 38.33 112.07 26.81 113.43 17.16C113.43 17.16 112.8 15.86 111.53 17.82C110.27 19.78 104.2 36.78 102.17 40.24C100.14 43.7 94.8101 51.88 94.8101 51.88L98.1801 52.61L98.1901 52.6Z" fill="#231F20"/>
<path d="M108.32 22.81C108.73 21.86 109.11 20.9 109.44 19.91C109.6 19.42 109.81 18.94 109.89 18.42C109.95 18.15 109.98 17.96 110.11 17.55L110.27 17.01L110.69 16.41C111.26 15.63 112.25 15.21 113.18 15.25C114.11 15.29 114.75 15.62 115.33 15.95C115.91 16.29 116.39 16.69 116.84 17.15C116.95 17.26 117.06 17.38 117.17 17.51C117.29 17.65 117.36 17.73 117.51 17.95C117.81 18.35 117.93 18.77 118.03 19.22C118.03 19.54 118 19.92 117.99 20.14L117.9 20.75C117.84 21.16 117.78 21.56 117.7 21.94C117.56 22.72 117.39 23.48 117.2 24.23C115.8 29.52 113.97 34.64 111.77 39.61C110.75 41.8 109.76 44.01 108.6 46.12C107.91 47.5 107.05 48.8 106.19 50.09C105.72 50.72 105.23 51.32 104.71 51.9C104.47 52.2 104.17 52.46 103.89 52.73C103.6 52.99 103.25 53.2 102.94 53.44C102.12 53.99 102.26 53.93 102.57 53.13C102.74 52.74 102.83 52.08 103.14 51.47C103.43 50.84 103.63 50.01 104.11 49.33C104.89 48.04 105.56 46.7 106.28 45.37C107.01 44.05 107.65 42.67 108.32 41.31C108.93 39.91 109.58 38.53 110.16 37.11C110.79 35.71 111.37 34.28 111.96 32.85C113.35 29.42 114.32 25.65 115.14 22C115.24 21.5 115.37 20.99 115.43 20.51C115.46 20.28 115.53 19.99 115.54 19.81C115.55 19.66 115.58 19.61 115.54 19.5C115.48 19.39 115.5 19.4 115.34 19.2C115.22 19.04 115.06 18.89 114.9 18.74C114.58 18.44 114.21 18.19 113.86 18.01C113.11 17.63 112.74 17.76 112.48 18.16C112.39 18.34 112.31 18.46 112.21 18.7L111.92 19.44L111.42 20.95C110.59 23.43 109.8 25.92 108.78 28.33C107.26 31.99 105.53 35.57 103.71 39.05C102.3 41.76 100.9 44.42 99.2702 46.97C98.9102 47.53 98.5602 48.08 98.1802 48.64C97.4502 49.66 96.8802 50.26 96.4502 50.65C96.0202 51.05 95.6502 51.19 95.2902 51.24C95.1202 51.27 94.9402 51.33 94.8302 51.32C94.4602 51.32 94.6802 50.23 95.5902 48.69C96.8502 46.34 98.2602 44.04 99.5202 41.59C100.85 39.19 102.16 36.74 103.36 34.22C104.26 32.35 105.12 30.47 105.92 28.55C106.33 27.59 106.71 26.63 107.1 25.66C107.52 24.71 107.94 23.75 108.32 22.78H108.38L108.32 22.81Z" fill="#231F20"/>
<path d="M100.94 59.75C102.18 56.01 100.9 53.76 100.9 53.76C100.9 53.76 92.9698 51.57 90.9998 51.88C89.0298 52.19 85.7598 56.38 85.7598 56.38C85.7598 56.38 94.2498 56.91 97.0798 59C99.9098 61.1 100.94 59.75 100.94 59.75Z" fill="#231F20"/>
<path d="M66.8999 69.5C66.6899 69.44 66.4799 69.36 66.2599 69.25C66.0399 69.13 65.8299 69.06 65.6099 68.88C65.1799 68.6 64.7199 68.11 64.4999 67.58C64.0099 66.53 64.1499 65.4 64.4599 64.63C64.6799 64.03 64.9199 63.49 65.2499 63.02C66.4499 61.41 67.9499 60.28 69.5099 59.32C70.1999 58.9 70.8799 58.45 71.5899 58.07C72.0399 57.82 72.4899 57.57 72.9699 57.37C73.2099 57.28 73.4799 57.26 73.7499 57.24C74.0099 57.21 74.2899 57.21 74.5799 57.28C74.9399 57.36 74.8899 57.36 74.7299 57.7C74.5899 58.08 74.3299 58.74 73.9599 59.21C72.3299 60.21 70.6599 61.02 69.0799 62.1C68.1299 62.73 67.4099 63.7 66.8899 64.61C66.6199 65.11 66.4299 65.62 66.4199 66.05C66.4399 66.15 66.4399 66.24 66.4499 66.35C66.4899 66.43 66.5199 66.52 66.5399 66.61C66.5899 66.68 66.6399 66.73 66.6799 66.81C66.7599 66.87 66.8499 66.94 66.9199 67.01C67.4199 67.33 68.1999 67.51 68.9799 67.57C70.1699 67.67 71.4299 67.6 72.6399 67.37C73.5899 67.22 74.4699 66.82 75.3799 66.58L75.9799 66.43C76.7499 66.31 77.0499 66.42 77.3399 66.68C77.3999 66.74 77.4799 66.8 77.5299 66.86C77.6899 67.05 77.4699 67.4 76.9699 67.85C76.5999 68.17 76.1899 68.41 75.7799 68.68C75.3699 68.95 74.9099 69.07 74.4599 69.25C73.5499 69.59 72.5899 69.78 71.5999 69.88C70.8599 69.96 70.1199 70 69.3399 69.96C68.5599 69.93 67.7699 69.85 66.9099 69.59V69.53L66.8999 69.5Z" fill="#231F20"/>
<path d="M81.12 72.21C80.46 72.06 79.8 71.88 79.15 71.65C78.91 71.56 78.66 71.52 78.43 71.42C77.61 71.04 76.82 70.54 76.18 69.83C76.05 69.66 75.89 69.51 75.79 69.33L75.5 68.75C75.4 68.5 75.35 68.22 75.29 67.96C75.3 67.69 75.44 67.42 75.53 67.18C75.6 67.03 75.69 67.07 75.85 67.2C76 67.33 76.32 67.54 76.49 67.71C76.6 67.87 76.68 68.01 76.75 68.15C76.88 68.27 76.97 68.38 77.07 68.5C77.21 68.6 77.26 68.76 77.39 68.89C77.53 69.02 77.64 69.17 77.78 69.32C78.15 69.66 78.67 69.81 79.18 69.98C79.74 70.18 80.33 70.35 80.93 70.46C81.3 70.54 81.68 70.6 82.06 70.65C82.64 70.71 83.22 70.77 83.8 70.74C84.25 70.71 84.68 70.59 85.11 70.48C85.2 70.46 85.3 70.42 85.39 70.41C85.74 70.37 85.87 70.48 86.01 70.88C86.04 70.97 86.08 71.06 86.11 71.15C86.2 71.45 86.09 71.74 85.81 71.91C85 72.37 84.07 72.53 83.16 72.48C82.48 72.46 81.8 72.36 81.13 72.26V72.22L81.12 72.21Z" fill="#231F20"/>
<path d="M111.52 75.09C111.52 75.42 111.5 75.77 111.49 76.11C111.42 76.48 111.4 76.82 111.27 77.21C111.07 77.96 110.55 78.8 109.78 79.31C109.1 79.73 108.64 79.81 108.12 79.88C106.38 80 104.7 79.46 103.46 78.39C103.17 78.18 102.94 77.9 102.67 77.67C102.44 77.41 102.22 77.13 102.04 76.83C101.81 76.45 101.59 76.07 101.46 75.65C101.33 75.23 101.4 74.76 101.39 74.34C101.41 74.07 101.42 74.11 101.62 74.27C101.81 74.43 102.27 74.69 102.7 74.94C103.16 75.54 103.73 75.93 104.17 76.36C104.62 76.78 105.13 77.13 105.73 77.41C106.44 77.76 107.39 77.71 108.09 77.53C108.19 77.51 108.26 77.48 108.34 77.46C108.38 77.43 108.42 77.45 108.46 77.39C108.5 77.35 108.55 77.31 108.61 77.28C108.66 77.24 108.68 77.16 108.73 77.11C108.84 77.02 108.86 76.8 108.94 76.64C108.97 76.43 109.01 76.22 109.03 75.99C109.05 75.42 109 74.79 108.86 74.16C108.67 73.21 108.4 72.23 108.01 71.3C107.72 70.57 107.27 69.93 106.88 69.24C106.79 69.09 106.71 68.94 106.65 68.77C106.41 68.16 106.54 67.84 107.02 67.51C107.13 67.44 107.23 67.36 107.34 67.3C107.69 67.13 108.17 67.2 108.53 67.54C109.09 68.04 109.54 68.65 109.92 69.31C110.31 69.96 110.67 70.67 110.89 71.43C111.24 72.56 111.49 73.76 111.58 75.08H111.52V75.09Z" fill="#231F20"/>
<path d="M49.7599 109.27C50.3799 108.86 50.9999 108.42 51.5799 107.95C51.7899 107.76 51.9899 107.58 52.1899 107.4C52.9399 106.78 53.6999 106.15 54.3999 105.45C54.6999 105.13 54.9999 104.81 55.2599 104.46C55.6199 104.04 56.0199 103.64 56.4499 103.26C56.5899 103.14 56.6199 103.2 56.6099 103.37C56.5899 103.54 56.5699 103.87 56.4399 104.18C56.3199 104.45 56.1999 104.72 56.0499 104.98C55.8799 105.22 55.6999 105.45 55.5099 105.67C55.1399 106.12 54.7399 106.55 54.2999 106.95C53.7699 107.42 53.3199 108 52.7799 108.48C52.1799 109 51.5699 109.51 50.9199 109.97C50.5299 110.26 50.1199 110.53 49.7099 110.8C49.0899 111.2 48.4399 111.57 47.7899 111.92C47.2899 112.2 46.8199 112.52 46.2999 112.78C46.1899 112.84 46.0799 112.91 45.9599 112.96C45.5099 113.13 45.3399 113.09 45.1399 112.77C45.0999 112.7 45.0499 112.63 45.0099 112.55C44.8899 112.29 45.0099 112.02 45.2799 111.85C46.0899 111.34 46.9599 110.92 47.8299 110.43C48.4699 110.07 49.1099 109.68 49.7299 109.25L49.7499 109.27H49.7599Z" fill="#231F20"/>
<path d="M50.8602 114.17C51.4802 114.52 52.1302 114.83 52.7902 115.1C53.0302 115.2 53.2902 115.27 53.5302 115.35C54.3902 115.69 55.2802 115.93 56.1802 116.16C56.5802 116.24 56.9902 116.29 57.3902 116.27C57.9102 116.29 58.4002 116.3 58.9302 116.27C59.1002 116.27 59.1202 116.35 59.0202 116.52C58.9302 116.66 58.7002 116.98 58.3802 117.11C58.0902 117.21 57.7902 117.35 57.4902 117.38C57.1902 117.39 56.8902 117.42 56.6002 117.38C56.0102 117.34 55.4302 117.24 54.8802 117.05C54.2302 116.8 53.5302 116.66 52.8702 116.43C52.1502 116.15 51.4502 115.84 50.7702 115.49C50.3602 115.26 49.9302 115.05 49.5402 114.79C49.2302 114.61 48.9402 114.41 48.6502 114.19C48.3502 113.99 48.0702 113.77 47.7902 113.55C47.5602 113.39 47.3502 113.21 47.1402 113.03L46.8202 112.76C46.7202 112.66 46.6302 112.55 46.5402 112.44C46.4602 112.34 46.3802 112.25 46.3002 112.15C46.0702 111.73 46.0602 111.55 46.2002 111.39C46.2302 111.35 46.2602 111.31 46.2902 111.28C46.4102 111.19 46.6202 111.28 46.8202 111.49C47.4702 112.08 48.2002 112.61 49.0002 113.12C49.6002 113.49 50.2202 113.83 50.8602 114.15V114.18V114.17Z" fill="#231F20"/>
<path d="M63.7402 117.09C64.4002 116.7 65.0502 116.29 65.6802 115.84C65.9102 115.68 66.1202 115.49 66.3402 115.32C67.1302 114.72 67.9302 114.11 68.6802 113.45C69.0202 113.16 69.3202 112.83 69.6302 112.51C69.9902 112.07 70.4302 111.7 70.8702 111.33C71.0102 111.22 71.0102 111.25 70.9602 111.4C70.9102 111.55 70.8302 111.85 70.6802 112.16C70.0602 113.18 69.2202 114.03 68.3402 114.82C67.8102 115.29 67.2702 115.81 66.7202 116.28C66.1002 116.79 65.4602 117.27 64.7902 117.72C64.3802 118 63.9702 118.26 63.5502 118.52C62.9202 118.92 62.2502 119.26 61.6002 119.63C61.0902 119.9 60.6202 120.24 60.1102 120.52C60.0002 120.58 59.8902 120.66 59.7802 120.71C59.3402 120.91 59.1602 120.87 58.9502 120.56C58.9002 120.49 58.8502 120.42 58.8102 120.35C58.6802 120.11 58.7802 119.81 59.0602 119.63C59.8902 119.09 60.8002 118.68 61.7102 118.19C62.3802 117.84 63.0602 117.47 63.7202 117.06L63.7402 117.08V117.09Z" fill="#231F20"/>
<path d="M31.4601 113.97C31.4601 113.97 35.5901 113.43 36.4701 115.84C37.3501 118.25 34.9401 121.49 32.3101 121.26C29.6701 121.03 21.7201 120.6 21.1001 120.41C20.7701 120.31 22.2401 116.88 25.4501 116.4C27.9101 116.03 28.2501 112.62 31.4601 113.98V113.97Z" fill="#231F20"/>
<path d="M18.62 102.38C18.62 102.38 17.38 103.71 18.62 104.27C19.86 104.83 20.94 103.86 20.44 103.23C19.94 102.6 18.62 102.37 18.62 102.37V102.38Z" fill="#231F20"/>
<path d="M79.5801 70.78C80.4201 70.91 81.3101 70.95 82.2101 70.89C82.5401 70.88 82.8601 70.78 83.1801 70.75C84.3401 70.66 85.5301 70.48 86.6601 70.13C87.1601 69.97 87.6301 69.74 88.1201 69.55C88.7001 69.23 89.3601 69.04 89.9901 68.73C90.1901 68.64 90.2101 68.7 90.1601 68.91C90.1001 69.12 90.0101 69.56 89.7601 69.95L89.3901 70.43C89.2601 70.59 89.1001 70.69 88.9601 70.83C88.6501 71.06 88.3601 71.34 88.0101 71.48C87.3201 71.79 86.5901 72.02 85.8401 72.15C84.9501 72.3 84.0801 72.65 83.1701 72.79C82.1701 72.94 81.1601 73 80.1401 72.96C79.5101 72.93 78.8801 72.87 78.2501 72.74C77.3001 72.56 76.3301 72.2 75.4601 71.57C74.8001 71.09 74.1301 70.35 73.9301 69.45C73.8801 69.26 73.8101 69.07 73.8201 68.88C73.7901 68.52 73.9101 68.29 74.0501 68.16C74.1901 68.02 74.3801 67.97 74.6601 67.95C74.7801 67.95 74.9101 67.93 75.0301 67.93C75.4201 67.96 75.7501 68.24 75.9301 68.57C76.1801 69.06 76.4101 69.32 76.5801 69.52C76.7501 69.72 76.9901 69.92 77.3801 70.11C77.9601 70.39 78.7401 70.63 79.5901 70.7V70.75L79.5801 70.78Z" fill="#231F20"/>
<path d="M96.0498 50.88C97.5798 51.27 99.0798 51.74 100.57 52.32C101.11 52.52 101.68 52.7 102.21 52.94C103.15 53.4 104.06 53.96 104.91 54.69C105.32 55.08 105.74 55.45 106.07 55.97L106.32 56.34C106.4 56.47 106.47 56.64 106.54 56.78C106.65 57.08 106.73 57.38 106.78 57.67C106.93 58.69 106.88 59.62 106.78 60.53C106.69 61.11 106.58 61.68 106.42 62.23C106.29 62.79 105.92 63.29 105.62 63.78C105.4 64.08 105.26 63.97 105.08 63.61C104.99 63.43 104.88 63.18 104.76 62.89C104.7 62.75 104.64 62.6 104.59 62.44C104.56 62.36 104.55 62.28 104.51 62.2C104.51 62.13 104.51 62.05 104.51 61.97C104.56 61.43 104.58 60.9 104.58 60.39C104.6 59.88 104.67 59.39 104.65 58.93C104.65 58.47 104.6 58.05 104.51 57.77C104.49 57.7 104.46 57.65 104.45 57.58L104.29 57.34L104.14 57.08L103.91 56.83C103.18 55.98 101.87 55.5 100.69 54.97C99.3498 54.39 97.9298 53.91 96.4898 53.51C95.5998 53.26 94.6998 53.04 93.7898 52.87C93.4498 52.8 93.0998 52.74 92.7698 52.69C92.5698 52.67 92.5198 52.64 92.3598 52.65C92.2098 52.65 92.0698 52.65 91.9198 52.69C91.3198 52.78 90.7098 53.02 90.1498 53.35C89.2698 53.87 88.5698 54.65 87.9198 55.43C87.7698 55.6 87.6598 55.79 87.5098 55.96C87.2498 56.29 87.0398 56.46 86.7998 56.51C86.5698 56.57 86.3498 56.54 86.0598 56.44C85.9298 56.4 85.7898 56.37 85.6798 56.31C85.2998 56.14 85.1898 55.6 85.4598 54.88C85.9798 53.94 86.6798 53.08 87.5398 52.32C88.3998 51.57 89.4198 50.91 90.6798 50.5C91.1498 50.35 91.6598 50.24 92.2098 50.22C92.9398 50.2 93.2598 50.3 93.6798 50.36C94.4798 50.49 95.2598 50.65 96.0398 50.82V50.88H96.0498Z" fill="#231F20"/>
<path d="M70.4402 121.06C75.0802 121.2 79.8902 120.54 83.9102 118.39C85.3802 117.59 86.7602 116.57 88.0602 115.48C92.7301 111.64 96.4202 106.52 99.3102 101.03C100.58 98.58 101.67 96.01 102.59 93.43C102.91 92.61 103.15 91.76 103.43 90.92C103.71 90.08 103.99 89.24 104.24 88.39L105.04 85.86L105.43 84.59C105.58 84.17 105.77 83.76 106 83.37C106.68 82.4 106.54 82.51 106.76 83.54C107.05 84.58 107.18 86.43 106.62 88.44C105.72 92.02 104.48 95.52 102.98 98.92C101.48 102.32 99.6802 105.62 97.4802 108.68C94.8802 112.33 91.9102 116.06 88.1002 118.82C86.0402 120.34 83.6802 121.59 81.2202 122.36C78.7602 123.15 76.2302 123.59 73.6902 123.74C70.5702 123.95 67.4402 123.74 64.3702 123.17C63.2102 122.96 62.0502 122.67 60.9202 122.32C60.3402 122.12 59.8102 121.99 59.2002 121.72C58.4002 121.41 57.6602 121.08 57.0202 120.68L56.0302 120.11C55.7602 119.91 55.6502 119.7 55.4602 119.49L55.2002 119.18L55.1302 119.1L55.1002 119.06L55.0802 119.04V119.03C55.0502 119.03 55.3002 119.03 55.1902 119.03C55.1902 118.95 55.2302 118.92 55.2602 118.87C55.3702 118.7 55.4902 118.54 55.7102 118.36C56.0902 118 56.8402 117.63 57.6102 117.32L59.6602 116.42C61.2502 115.68 62.8102 114.91 64.3002 114.05C65.8002 113.19 67.1902 112.2 68.5202 111.14C69.1002 110.67 69.6302 110.18 70.1702 109.67C72.1602 107.8 72.7102 107.19 73.5102 106.96C73.6902 106.91 73.8802 106.8 74.0302 106.79C74.5002 106.69 74.3502 108.05 73.0202 109.93C70.9802 112.64 68.1202 114.51 65.2902 116.32C63.8702 117.22 62.4202 118.12 60.8902 118.84L60.3202 119.12V119.13C60.3202 119.13 60.3402 119.15 60.2902 119.13L60.3902 119.17L60.5802 119.25C60.7102 119.3 60.8502 119.34 60.9802 119.39L61.7902 119.66C62.3302 119.85 62.9002 119.96 63.4602 120.12C65.7202 120.66 68.0702 120.95 70.4202 121V121.07L70.4402 121.06Z" fill="#231F20"/>
<path d="M49.6601 114.07C51.9801 115.51 54.7001 116.42 57.4101 116.27C58.4001 116.26 59.3601 115.96 60.3001 115.7C60.7201 115.58 61.1101 115.39 61.5301 115.25C61.9401 115.09 62.3101 114.85 62.7101 114.65C63.5101 114.2 64.3201 113.66 65.1001 113.14C66.6601 112.05 68.2101 110.92 69.6501 109.67C70.9401 108.56 72.1201 107.32 73.2101 106.03C74.5701 104.34 75.9701 102.71 77.4001 101C77.8401 100.46 77.7601 100.52 77.5901 101.09C77.5101 101.38 77.4301 101.81 77.3201 102.33C77.2601 102.62 77.2001 102.9 77.1501 103.19C77.1201 103.34 77.0601 103.49 77.0401 103.66C76.9701 103.8 76.9001 103.95 76.8301 104.1C76.5701 104.62 76.2901 105.14 76.0001 105.65L75.5601 106.41C75.3901 106.65 75.2101 106.88 75.0301 107.11C74.3301 108.04 73.5601 108.91 72.7801 109.77C71.1801 111.45 69.4501 113.03 67.5301 114.35C66.3601 115.13 65.2301 115.94 63.9901 116.72C62.7201 117.54 61.2801 118.14 59.8101 118.51C56.5301 119.23 53.1001 118.72 50.1701 117.37C48.3601 116.55 46.6901 115.44 45.2301 114.12L45.0501 113.97L44.8301 113.74L44.3901 113.28C44.1001 112.97 43.8001 112.68 43.5201 112.36L43.4401 111.64L43.3901 111.28C43.4601 111.23 43.5801 111.2 43.6101 111.14C43.9301 110.93 44.2901 110.59 44.6201 110.19L45.3001 109.92C45.5201 109.83 45.7901 109.73 45.8901 109.67L46.7401 109.24C47.3001 108.94 47.8501 108.62 48.3901 108.29C50.2401 107.16 51.9101 105.81 53.5001 104.43C53.8401 104.11 54.1701 103.81 54.5101 103.49C55.7401 102.3 56.2301 102.1 56.8801 102.13C57.0301 102.14 57.2001 102.13 57.3301 102.16C57.5501 102.21 57.6101 102.43 57.5201 102.8C57.4401 103.18 57.1901 103.69 56.7701 104.26C54.0701 107.37 50.5701 109.68 46.9201 111.84C46.8201 111.9 46.9001 111.87 46.8901 111.88C46.8401 111.85 46.8501 111.87 47.0001 111.89L46.8601 111.86C46.8601 111.86 46.8601 111.89 46.8601 111.91L47.6701 112.59C48.3101 113.09 48.9701 113.58 49.6701 114L49.6401 114.06L49.6601 114.07Z" fill="#231F20"/>
<path d="M46.7699 93.98C44.9399 95.2 43.0699 96.36 41.1799 97.48C40.2299 98.04 39.2799 98.58 38.3199 99.11C37.8399 99.38 37.3499 99.62 36.8899 99.92L35.5099 100.83C35.0499 101.15 34.2899 101.57 34.3399 101.54L34.1499 101.65C34.0599 101.68 34.1699 101.78 34.1699 101.84C34.1699 101.88 34.1899 101.92 34.2099 101.96C34.2399 102.02 34.2099 101.96 34.2699 102.1C35.2799 104.26 37.2799 105.97 39.5999 107.2C40.7599 107.82 41.9999 108.33 43.2899 108.76L43.7699 108.92C43.8599 108.93 43.9299 108.97 44.0499 108.97C44.2699 109 44.5499 108.97 44.8399 108.93C45.4199 108.84 46.0399 108.64 46.6499 108.4C48.8299 107.53 50.8999 106.17 52.7899 104.7C53.9999 103.74 55.1499 102.71 56.2399 101.63C56.7799 101.09 57.3099 100.54 57.8099 99.97C58.0499 99.68 58.3199 99.41 58.5899 99.14C58.8599 98.87 59.0799 98.57 59.3599 98.3C60.0799 97.65 60.1399 97.75 60.1599 98.74C60.1599 99.24 60.0599 99.92 59.8299 100.7C59.5699 101.46 59.0899 102.24 58.4599 102.96C56.1899 105.51 53.5499 107.6 50.6199 109.34C49.1299 110.19 47.6099 110.98 45.7199 111.42C45.2499 111.53 44.7199 111.6 44.1299 111.59L43.6599 111.56C43.4899 111.53 43.3099 111.49 43.1399 111.45C42.8699 111.37 42.7199 111.31 42.4999 111.24C41.6999 110.96 40.8999 110.65 40.1199 110.29C38.3699 109.48 36.5899 108.54 34.9999 107.22C34.1999 106.57 33.4599 105.82 32.8299 104.97C32.4999 104.56 32.2299 104.09 31.9699 103.63C31.8999 103.52 31.8499 103.39 31.7899 103.27L31.5399 102.72C31.3799 102.35 31.2799 102 31.1499 101.63L31.1299 101.14V100.9L31.1099 100.78V100.72V100.69V100.67L31.2899 100.73C31.4499 100.44 31.5199 100.08 31.8999 99.83C32.2799 99.6 32.6999 99.39 33.0999 99.18C33.6699 98.87 34.1099 98.7 34.6299 98.47C35.1299 98.25 35.6299 98.04 36.1199 97.79L37.5399 97C39.4299 95.93 41.2999 94.81 43.1299 93.64C45.3799 92.2 47.5899 90.69 49.7099 89.06C52.9199 86.61 56.0199 83.95 58.7299 81C60.8299 78.7 62.5999 76.21 64.1399 73.59C64.4799 73.01 64.7699 72.43 65.1299 71.86C66.4099 69.72 66.8499 69.05 67.5399 68.76C67.6999 68.69 67.8699 68.59 67.9999 68.56C68.4299 68.47 68.3799 69.59 67.7199 71.42C66.7899 74.17 65.1499 76.67 63.3699 79.05C61.5599 81.43 59.4999 83.64 57.3099 85.7C54.0499 88.76 50.4899 91.48 46.8199 93.99L46.7799 93.95L46.7699 93.98Z" fill="#231F20"/>
<path d="M21.8 103.49C21.8 103.92 21.67 104.36 21.43 104.71C21.21 105.07 20.89 105.37 20.53 105.56C20.4 105.63 20.28 105.71 20.14 105.76C20.01 105.82 19.87 105.87 19.72 105.86C19.2 105.89 18.84 105.79 18.46 105.62C18.09 105.44 17.77 105.16 17.57 104.81C17.41 104.49 17.32 104.14 17.36 103.81C17.44 103.38 17.72 103.06 18.02 102.89C18.12 102.83 18.13 102.89 18.14 103C18.14 103.11 18.16 103.32 18.18 103.47C18.19 103.61 18.27 103.74 18.34 103.81C18.42 103.88 18.44 103.93 18.51 103.96C18.64 104 18.65 104.09 18.78 104.21C18.93 104.37 19.27 104.24 19.35 104.23C19.5 104.22 19.68 104.11 19.78 103.92C19.84 103.8 19.87 103.65 19.83 103.51C19.78 103.3 19.6 103.08 19.36 103.05C19.2 103.05 19.07 103.21 19.04 103.3C19.03 103.32 19.04 103.35 19.03 103.36C19.01 103.38 18.9 103.29 18.43 103.13L18.1 103.03C17.74 102.94 17.46 102.66 17.58 102.26C17.75 101.69 18.23 101.23 18.81 101.02C19.1 100.9 19.45 100.9 19.77 100.95C20.07 100.99 20.33 101.14 20.6 101.27C21.37 101.72 21.88 102.59 21.87 103.48H21.82L21.8 103.49Z" fill="#231F20"/>
<path d="M18.22 118.51C18.22 118.51 18.22 118.53 18.31 118.59L18.66 118.76C18.91 118.86 19.15 118.97 19.42 119.05C19.94 119.23 20.51 119.36 21.1 119.47C22.27 119.68 23.51 119.78 24.77 119.81C25.69 119.83 26.62 119.75 27.55 119.73C29.22 119.7 30.84 119.68 32.39 119.45C33.15 119.33 33.9 119.16 34.5 118.9C35.1 118.61 35.43 118.37 35.53 117.85C35.53 117.79 35.55 117.72 35.56 117.67C35.56 117.64 35.56 117.6 35.56 117.56C35.55 117.48 35.53 117.38 35.48 117.27C35.38 117.06 35.22 116.82 34.99 116.62C34.56 116.2 33.98 115.87 33.38 115.63C32.59 115.34 31.75 115.2 30.89 115.14C30.03 115.08 29.16 115.16 28.23 115.26C27.57 115.13 27.67 115.22 28.02 114.71C28.19 114.43 28.49 114.15 28.9 113.86C29.3 113.54 29.85 113.28 30.47 113.18C31.57 112.98 32.75 112.99 33.87 113.35C34.99 113.7 36.09 114.21 37.03 115.23C37.49 115.73 37.96 116.42 38.07 117.45C38.1 117.73 38.07 117.89 38.07 118.09C38.06 118.28 38.01 118.49 37.97 118.68C37.86 119.09 37.68 119.5 37.44 119.85C36.94 120.55 36.31 120.99 35.73 121.26C35.14 121.53 34.58 121.67 34.03 121.78C31.44 122.24 29.03 122.4 26.6 122.48C23.93 122.5 21.17 122.45 18.43 121.56C18.01 121.41 17.6 121.24 17.19 121.04C16.67 120.79 16.22 120.38 15.91 119.92C15.59 119.46 15.38 118.89 15.37 118.29C15.36 117.69 15.53 117.07 15.87 116.62C16.64 115.55 17.7 115.17 18.64 114.85C19.12 114.7 19.63 114.59 20.07 114.52C20.18 114.49 20.33 114.49 20.45 114.45C20.58 114.4 20.6 114.25 20.67 114.14C20.73 114.03 20.88 113.64 21.06 113.39C21.25 113.12 21.43 112.83 21.64 112.57C22.33 111.73 23.31 111.06 24.41 110.79C25.51 110.51 26.65 110.6 27.68 110.91C28.14 111.04 28.58 111.2 29.01 111.43C30.57 112.3 30.84 113.18 30.46 113.83C30.37 113.98 30.28 114.13 30.17 114.21C29.72 114.41 29.31 114.33 28.49 113.9C27.4 113.29 26.04 112.99 25.05 113.19C24.55 113.29 24.17 113.53 23.8 113.86C23.63 114.05 23.44 114.22 23.3 114.49C23.23 114.62 23.13 114.71 23.07 114.86L22.74 115.58C22.53 116.07 22.19 116.45 21.72 116.68C21.45 116.82 21.13 116.9 20.8 116.95L20.23 117.07C19.94 117.12 19.7 117.21 19.44 117.28C19.17 117.35 18.98 117.46 18.75 117.55C18.58 117.66 18.38 117.76 18.28 117.87C18.04 118.1 18.06 118.15 18.07 118.15C18.07 118.16 18.15 118.37 18.27 118.47L18.23 118.52L18.22 118.51Z" fill="#231F20"/>
<path d="M14.3898 109.64C14.4698 110.19 14.3398 110.82 13.9798 111.31C13.9298 111.35 13.8998 111.39 13.8598 111.43C13.6898 111.59 13.5298 111.77 13.2998 111.85C12.5698 112.14 11.6398 111.95 11.2398 111.33C11.0698 111.07 10.9598 110.77 10.9898 110.45C11.0198 110.06 11.3098 109.73 11.6698 109.7C11.7798 109.7 11.7698 109.77 11.7398 109.88C11.7098 109.99 11.7398 110.17 11.7698 110.26C11.8898 110.67 12.2298 110.26 12.1998 110.51C12.2798 110.62 12.4298 110.48 12.4998 110.41C12.5398 110.4 12.5798 110.38 12.6098 110.35C12.6898 110.3 12.7498 110.21 12.7998 110.07C12.8298 109.95 12.8598 109.8 12.8198 109.66C12.7698 109.46 12.6098 109.21 12.3898 109.2C12.2298 109.18 12.1098 109.32 12.0798 109.43C12.0798 109.45 12.0798 109.48 12.0798 109.5C12.0798 109.55 11.9998 109.5 11.6598 109.48H11.4298C11.1698 109.47 10.9498 109.29 11.0198 108.98C11.1198 108.54 11.4598 108.2 11.9098 108.04C12.3698 107.87 12.8698 108.01 13.2698 108.18C13.8698 108.44 14.2998 109.02 14.4498 109.65H14.4098L14.3898 109.64Z" fill="#231F20"/>
<path d="M83.3002 112.02C82.8002 112.53 82.2802 113.02 81.7402 113.5C81.5502 113.68 81.3602 113.86 81.1502 114.02C80.3902 114.57 79.5702 115.05 78.7102 115.47C78.5202 115.56 78.3302 115.65 78.1402 115.76L77.5402 116.01C77.3002 116.14 76.9802 116.15 76.7002 116.19C76.4202 116.23 76.1002 116.05 75.8402 115.96C75.6802 115.88 75.7402 115.75 75.9002 115.57C76.0702 115.38 76.2802 115.1 76.4602 114.93C76.8102 114.7 77.1502 114.54 77.5502 114.37C77.7402 114.26 77.9402 114.17 78.1502 114.07C78.3502 113.95 78.5602 113.84 78.7802 113.74C79.3002 113.47 79.7102 112.99 80.1502 112.58C80.6402 112.13 81.1802 111.7 81.6702 111.22C81.9802 110.93 82.2802 110.63 82.5702 110.33C83.0102 109.86 83.4602 109.39 83.8402 108.88C84.1302 108.48 84.3502 108.03 84.5902 107.59C84.6502 107.49 84.6902 107.39 84.7502 107.3C84.9802 106.96 85.1702 106.91 85.5402 107.11C85.6302 107.15 85.7202 107.19 85.8002 107.25C86.0702 107.43 86.1802 107.72 86.0802 108C85.7902 108.87 85.2802 109.67 84.7002 110.43C84.2802 111 83.8002 111.53 83.3202 112.07L83.2902 112.04L83.3002 112.02Z" fill="#231F20"/>
<path d="M87.7201 18.69C87.5501 18.76 87.4301 18.55 87.3301 18.22C87.3001 18.11 87.3301 17.8 87.3901 17.76C87.4901 17.68 87.6001 17.59 87.7001 17.53C87.7601 17.5 88.7301 17.32 89.0601 17.24C89.3801 17.16 89.7001 17.14 90.0201 17.13C90.6601 17.17 91.3001 17.21 91.9301 17.27C92.0701 17.28 92.2101 17.32 92.3401 17.38C92.8001 17.59 93.2701 17.67 93.7601 17.7C93.8401 17.7 93.9201 17.73 94.0101 17.66C94.1601 17.54 95.4801 17.76 95.6301 17.86C96.0101 18.1 96.4101 18.27 96.7801 18.52C96.8301 18.56 96.9001 18.55 96.9301 18.66C96.9901 18.93 97.1201 18.93 97.2401 18.99C97.4101 19.07 97.5701 19.16 97.7201 19.29C97.7901 19.35 97.8401 19.51 97.9001 19.63C97.9501 19.74 97.8201 20.05 97.7801 20.08C97.6701 20.16 97.6901 20.33 97.6601 20.47C97.6501 20.52 97.6401 20.58 97.6201 20.61C97.5901 20.68 96.4401 21.05 96.3401 21.04C96.3001 21.09 94.8701 20.83 94.7001 20.84C94.6101 20.84 94.5401 20.76 94.4601 20.71C94.4201 20.68 93.2601 20.57 93.2201 20.55C92.9901 20.46 92.7401 20.49 92.5501 20.24C92.5101 20.19 92.4601 20.19 92.4101 20.18C92.0001 20.12 91.6101 19.95 91.2101 19.82C91.0101 19.75 90.7901 19.74 90.5901 19.69C90.5501 19.69 90.5201 19.65 90.4801 19.63C90.4301 19.61 90.3901 19.57 90.3401 19.57C89.8401 19.51 89.3601 19.29 88.8601 19.25C88.7501 19.23 88.2201 18.94 88.0801 18.94C88.0101 18.94 87.7901 18.65 87.7101 18.68L87.7201 18.69Z" fill="#231F20"/>
<path d="M103.4 13.03C103.51 13.16 103.35 13.32 103.08 13.5C102.99 13.56 102.71 13.62 102.65 13.59C102.55 13.53 102.44 13.47 102.36 13.4C102.31 13.36 101.86 12.63 101.67 12.39C101.5 12.16 101.35 11.92 101.27 11.66L100.79 10.1C100.76 9.98003 100.74 9.86003 100.75 9.74003C100.78 9.31003 100.68 8.90003 100.53 8.51003C100.5 8.45003 100.5 8.37003 100.41 8.33003C100.24 8.26003 99.9797 7.16003 100.02 7.00003C100.1 6.61003 100.1 6.24003 100.17 5.85003C100.17 5.79003 100.14 5.75003 100.22 5.68003C100.41 5.52003 100.35 5.42003 100.35 5.31003C100.35 5.15003 100.35 4.99003 100.39 4.82003C100.41 4.74003 100.5 4.64003 100.58 4.54003C100.64 4.45003 100.93 4.42003 100.97 4.44003C101.07 4.49003 101.19 4.40003 101.31 4.37003C101.35 4.36003 101.4 4.34003 101.43 4.34003C101.49 4.34003 102.25 5.07003 102.29 5.16003C102.32 5.18003 102.8 6.40003 102.88 6.53003C102.92 6.60003 102.88 6.69003 102.88 6.77003C102.89 6.80003 103.26 7.79003 103.26 7.83003C103.27 8.05003 103.39 8.24003 103.25 8.50003C103.22 8.55003 103.24 8.59003 103.25 8.63003C103.35 8.99003 103.34 9.37003 103.37 9.74003C103.38 9.93003 103.44 10.11 103.47 10.3C103.47 10.33 103.46 10.37 103.45 10.41C103.45 10.46 103.43 10.5 103.44 10.55C103.49 10.77 103.52 10.99 103.54 11.22C103.54 11.45 103.56 11.68 103.61 11.89C103.63 11.99 103.5 12.53 103.54 12.64C103.55 12.71 103.36 12.98 103.4 13.03Z" fill="#231F20"/>
<path d="M86.0501 55.17C88.9101 55.32 91.7501 55.82 94.4901 56.58C95.8601 56.95 97.2101 57.42 98.5301 57.93C99.1601 58.16 99.9401 58.52 100.6 58.87L101.58 59.45L102.49 60.1C104.22 61.4 105.72 62.9 107.01 64.54C109.25 67.47 111.13 70.68 112.04 74.39C112.26 75.32 112.38 76.3 112.39 77.3C112.4 78.38 111.97 79.67 111.02 80.51C110.07 81.31 108.87 81.61 107.82 81.56C106.75 81.53 105.75 81.23 104.85 80.79C103.78 80.26 102.84 79.54 102.07 78.64C101.69 78.19 101.36 77.71 101.07 77.23C100.94 77.01 100.77 76.7 100.69 76.54L100.52 76.21C100.41 76.02 100.34 75.62 100.08 75.9L99.7701 76.09C99.6501 76.16 99.6201 76.18 99.3501 76.31C97.3901 77.23 94.9901 77.54 92.8501 76.89C91.7301 76.56 90.7101 75.85 90.0301 74.88C89.3201 73.91 89.2101 72.65 89.4001 71.61C89.5301 70.95 89.7001 70.71 89.7401 70.74C89.8201 70.77 89.7901 71.09 89.9101 71.61C90.0301 72.12 90.3101 72.84 90.9101 73.33C91.4501 73.84 92.1601 74.19 92.9801 74.38C93.5201 74.51 94.2401 74.64 94.8701 74.62C95.5201 74.62 96.1601 74.5 96.7801 74.3C97.0901 74.2 97.4001 74.08 97.7001 73.94C97.8501 73.87 98.0001 73.8 98.1501 73.71C98.3101 73.64 98.7401 73.41 99.0801 73.21C99.4401 73 99.8001 72.78 100.15 72.67C100.5 72.56 100.8 72.56 101.05 72.61C101.11 72.63 101.18 72.61 101.24 72.68L101.29 72.72L101.31 72.74H101.32V72.76C101.32 72.76 101.3 72.84 101.35 72.69L101.44 72.74L101.79 72.93C101.91 72.96 102.01 73.16 102.12 73.28C102.22 73.43 102.35 73.53 102.43 73.73C102.67 74.27 102.96 74.89 103.18 75.32C103.3 75.56 103.43 75.79 103.56 76C103.82 76.44 104.1 76.81 104.41 77.14C105.03 77.8 105.89 78.34 106.72 78.63C107.56 78.91 108.47 78.93 108.97 78.65C109.44 78.39 109.74 77.98 109.71 76.92C109.73 75.9 109.47 74.78 109.09 73.69C108.74 72.59 108.19 71.52 107.64 70.47C106.47 68.38 104.99 66.43 103.36 64.68C102.46 63.73 101.5 62.83 100.48 62.07C99.9801 61.66 99.4401 61.35 98.9001 61.03L98.0801 60.62L97.1401 60.26C94.6301 59.32 92.0301 58.61 89.3701 58.21C86.1001 57.73 82.7601 57.66 79.4901 58.13C77.0101 58.47 74.5701 59.1 72.2701 60.06C70.0001 61.02 67.7801 62.34 66.3301 64.15C65.7801 64.84 65.4401 65.65 65.4701 66.3C65.5401 66.96 65.8901 67.37 66.6401 67.63C68.1401 68.13 70.0901 67.92 71.8801 67.57C72.6801 67.41 73.4501 67.17 74.2301 66.93C75.7001 66.51 76.6201 66.15 77.3001 65.98C77.9901 65.81 78.4601 65.84 78.9301 65.93C79.1401 65.97 79.3801 65.95 79.5301 65.99C79.7701 66.05 79.6901 66.36 79.3101 66.93C78.9401 67.51 78.1301 68.16 77.0001 68.73C75.3201 69.58 73.5001 70.15 71.5901 70.48C70.6301 70.64 69.6401 70.74 68.6001 70.73C67.5601 70.7 66.4601 70.61 65.2301 70.04C64.6301 69.76 63.9601 69.3 63.4601 68.58C63.1901 68.22 63.0701 67.84 62.9201 67.46C62.8301 67.07 62.7301 66.65 62.7501 66.27C62.7701 64.68 63.4401 63.52 64.1201 62.61C65.5301 60.79 67.2501 59.63 69.0101 58.64C74.3001 55.8 80.2401 54.86 86.0201 55.1V55.17H86.0501Z" fill="#231F20"/>
</svg>
