<svg width="128" height="128" viewBox="0 0 128 128" fill="none" xmlns="http://www.w3.org/2000/svg">
<path d="M77.6302 70.82C66.2102 60.34 53.9602 66.06 53.9602 66.06L53.2202 69.36C53.2202 69.36 63.0002 65.82 67.2302 66.81C71.4702 67.81 75.3402 71.19 75.3402 71.19L77.6302 70.81V70.82Z" fill="#231F20"/>
<path d="M60.0798 82.28C60.0798 82.28 63.9098 85.87 61.2998 90.1C59.8998 92.37 64.7298 86.73 64.7298 86.73L61.1498 81.08L60.0698 82.28H60.0798Z" fill="#231F20"/>
<path d="M32.68 73.38C26.95 74.11 28.08 66.33 29.96 64.5C29.96 64.5 26.39 67.24 25.98 70.49C25.58 73.74 28.46 75.62 28.46 75.62L32.68 73.38Z" fill="#231F20"/>
<path d="M77.6302 101.87C74.5802 105.68 70.4702 109.58 66.4202 108.33C63.0302 107.28 66.1102 101.16 66.4202 100.81L63.3002 105.61C63.3002 105.61 62.2302 109.66 64.1702 110.81C66.1102 111.96 69.4602 110.98 69.4602 110.98L77.6402 101.88L77.6302 101.87Z" fill="#231F20"/>
<path d="M27.9499 113.82C20.1099 115.16 16.8899 110.51 19.2399 106.77C19.2399 106.77 15.7099 108.69 16.1299 111.23C16.5399 113.77 20.6699 115.07 20.6699 115.07L27.9499 113.82Z" fill="#231F20"/>
<path d="M83.0801 50.19C82.1001 63.3 74.8501 70.05 74.8501 70.05L78.3001 71.19L80.2601 64.92L83.0901 50.19H83.0801Z" fill="#231F20"/>
<path d="M87.1302 77.83C87.5502 77.97 91.2202 79.81 90.5202 71.19C89.9302 64.01 93.4402 73.25 92.7802 75.74C92.1202 78.23 92.4002 81.57 91.2002 81.89C89.9902 82.22 86.6802 79.4 86.6802 79.4L87.1302 77.82V77.83Z" fill="#231F20"/>
<path d="M83.6501 35.24C83.0901 23.05 72.6301 19.76 70.3101 24.93C70.3101 24.93 71.5301 19.66 74.8501 20.22C78.1701 20.78 81.6301 25.3 81.6301 25.3L83.6501 35.23V35.24Z" fill="#231F20"/>
<path d="M36.4998 60.27C33.6598 61.51 31.0898 63.54 29.3398 66.1C28.7298 67.02 28.2698 68.1 27.8898 69.14C27.2098 70.96 26.9898 72.98 28.0398 73.95C28.1998 74.06 28.2898 74.22 28.4898 74.3C28.6598 74.39 28.8698 74.54 28.9298 74.55C29.0298 74.59 29.1398 74.6 29.2498 74.59C29.3898 74.58 29.5598 74.53 29.7498 74.45C30.5198 74.12 31.3698 73.44 32.1898 72.77C33.6698 71.55 35.0898 70.12 36.8498 69C37.9798 68.3 39.3198 67.67 40.8498 67.62C41.5998 67.62 42.3698 67.78 43.0298 68.09C43.3698 68.23 43.6798 68.43 43.9698 68.62C44.2398 68.85 44.4898 69.12 44.6898 69.4C45.1898 70.12 44.9598 70.14 44.1598 70.16C43.7798 70.15 43.1698 70.3 42.6798 70.33C42.1598 70.36 41.6698 70.48 41.2198 70.54C39.6198 70.52 37.7598 71.85 35.8798 73.36C34.9298 74.12 33.9798 74.96 32.8398 75.78C32.2698 76.18 31.6598 76.59 30.8498 76.92C30.6398 77 30.4398 77.08 30.1898 77.14C29.9598 77.21 29.7098 77.24 29.4098 77.26C29.1198 77.29 28.8398 77.23 28.5598 77.2C28.2998 77.11 27.9998 77.04 27.7898 76.92C26.8798 76.46 26.0498 75.77 25.4798 74.85C24.9098 73.93 24.7298 72.9 24.6998 71.96C24.6698 71.01 24.8098 70.12 25.0298 69.28C25.2398 68.43 25.5398 67.63 25.8898 66.87C27.4598 63.46 30.1698 60.81 33.2298 58.92C35.1298 57.77 37.2198 56.92 39.3898 56.45C42.6698 55.68 46.2498 56.03 49.3298 57.45C50.5798 58.02 51.6998 58.94 52.5298 60.05C53.3698 61.16 53.9098 62.45 54.2198 63.77C54.3598 64.35 54.4798 64.92 54.5198 65.52C54.5398 67.73 54.0098 68.37 53.2998 68.7C53.1498 68.78 52.9998 68.88 52.8898 68.92C52.6898 68.98 52.5498 68.79 52.3298 68.41C52.1098 68.02 51.9498 67.47 51.8598 66.8C51.6598 65.8 51.5198 64.84 51.2298 63.94C50.9498 63.04 50.5498 62.23 50.0398 61.56C49.5298 60.89 48.9098 60.38 48.1498 60.01C47.6998 59.84 47.2598 59.62 46.7998 59.48C46.3298 59.37 45.8698 59.17 45.3798 59.12C42.5198 58.53 39.3398 59.07 36.5198 60.36L36.4898 60.3L36.4998 60.27Z" fill="#231F20"/>
<path d="M91.17 66.15C91.89 67.31 92.38 68.64 92.69 69.83C93.03 71.05 93.26 72.29 93.4 73.53C93.5 74.44 93.63 75.34 93.61 76.26C93.6 77.06 93.54 77.87 93.44 78.66C93.39 79.06 93.33 79.45 93.26 79.85C93.17 80.26 93.11 80.65 92.9 81.24C92.54 82.35 91.65 83.37 90.48 83.36C89.38 83.42 88.2 82.46 87.69 81.96C86.62 80.94 85.8 79.82 85.02 78.7C84.51 77.98 84.03 77.25 83.66 76.45C83.47 76.05 83.27 75.67 83.15 75.23C83.04 74.79 82.94 74.35 82.86 73.91C82.78 73.34 82.91 73.39 83.35 73.68C83.58 73.82 83.9 74.01 84.29 74.23C84.48 74.34 84.71 74.45 84.9 74.59C85.07 74.74 85.25 74.9 85.4 75.08C86.54 76.33 87.49 77.71 88.58 78.86C88.82 79.17 89.07 79.46 89.32 79.73C89.56 79.99 89.87 80.27 89.88 80.31C89.92 80.42 90.13 80.61 90.33 80.48C90.44 80.4 90.51 80.37 90.61 79.91C90.71 79.5 90.77 78.94 90.81 78.45C90.89 77.44 90.87 76.43 90.81 75.42C90.7 73.23 90.25 70.95 89.44 68.95C88.91 67.76 88.17 66.6 87.2 65.94C86.48 65.46 85.61 65.27 84.99 65.59C84.22 65.92 83.41 66.65 82.72 67.41C81.63 68.61 80.76 70.01 79.86 71.39C79.66 71.7 79.48 72.01 79.26 72.31C78.44 73.42 77.98 73.66 77.16 73.39C76.97 73.33 76.78 73.28 76.62 73.2C76.08 72.9 76 72.18 76.42 71.25C77.04 69.86 77.83 68.48 78.79 67.14C79.73 65.78 80.88 64.53 82.55 63.4C83.23 63 83.9 62.54 85.14 62.4C85.45 62.35 85.69 62.37 85.92 62.39C86.16 62.4 86.39 62.43 86.62 62.49C87.08 62.58 87.52 62.74 87.92 62.93C89.52 63.74 90.51 64.92 91.27 66.09L91.21 66.13L91.17 66.15Z" fill="#231F20"/>
<path d="M71.2699 24.62L70.9399 25.26L70.6999 25.82C70.5399 26.26 70.3899 26.7 70.2499 27.19C69.9599 28.14 69.6899 29.15 69.4199 30.14L67.7699 36.19C66.6299 40.23 65.3499 44.24 63.8999 48.19C62.8399 51.07 61.7799 53.96 60.4999 56.76C56.0399 66.63 50.1799 75.93 42.8399 83.89C39.5999 87.44 36.1199 90.79 32.4399 93.81C31.2299 94.74 30.0499 95.73 28.8099 96.63L26.9399 97.97L26.0099 98.65C25.7199 98.86 25.4299 99.07 25.1499 99.29C24.0499 100.18 23.1099 101.22 22.5199 102.41C21.9599 103.49 21.9399 104.87 22.3899 105.91C22.5899 106.62 22.8899 106.92 22.7699 107.05C22.6799 107.15 22.1699 107.16 21.3699 106.6C20.5599 106.05 19.8599 104.66 19.9699 102.94C20.1299 101.1 21.1699 99.44 22.6199 98.09C23.2599 97.5 23.9599 96.98 24.6499 96.53C25.2799 96.1 25.8999 95.67 26.5199 95.22C27.7699 94.36 28.9499 93.39 30.1399 92.46C31.3499 91.54 32.4599 90.49 33.6199 89.52C34.7399 88.49 35.8599 87.46 36.9399 86.4C41.2499 82.11 45.2299 77.45 48.7399 72.4C53.0199 66.4 56.4299 59.47 59.2899 52.48C62.4699 44.79 64.7799 36.79 66.8999 28.66C67.2499 27.4 67.5699 26.16 68.0499 24.85C68.3199 24.15 68.6299 23.55 68.9599 22.96C69.2999 22.37 69.6699 21.78 70.0999 21.22C70.9499 20.12 72.1099 19.03 73.6499 18.59C74.3699 18.37 75.2899 18.32 76.0699 18.55C76.8499 18.76 77.5099 19.14 78.0899 19.56C79.8499 20.86 81.0699 22.53 82.0899 24.33C82.5899 25.26 82.9099 26.19 83.3199 27.12C83.6899 28.06 83.9399 29.04 84.2499 29.99C85.2999 33.87 85.6499 37.87 85.6199 41.8C85.5399 47.92 84.7399 53.91 83.1599 59.76C82.8399 61.06 82.4399 62.3 82.0399 63.59C80.3999 68.32 79.3199 69.62 78.2299 70.25C77.9899 70.4 77.7299 70.63 77.5699 70.7C77.0699 70.96 77.3599 68.88 78.5799 65.59C79.4199 63.11 80.2199 60.59 80.8299 57.98C81.1799 56.69 81.3999 55.36 81.6999 54.05C81.9099 52.72 82.1999 51.4 82.3399 50.05C82.7499 47.37 82.8899 44.65 82.9699 41.94C82.9499 39.23 82.8199 36.51 82.3599 33.87C82.1999 32.89 81.9399 31.93 81.7399 30.96C81.4399 30.02 81.1699 29.07 80.8299 28.16L80.2499 26.82L79.9599 26.15C79.8499 25.95 79.7599 25.75 79.6399 25.55C79.1799 24.75 78.6299 23.97 78.0299 23.28C77.4299 22.6 76.7699 21.96 76.1199 21.59C75.7999 21.38 75.4999 21.29 75.2499 21.22C75.1299 21.2 75.0199 21.18 74.9299 21.2C74.8499 21.19 74.6499 21.23 74.5199 21.26C73.3699 21.51 72.1999 22.94 71.3199 24.62L71.2499 24.6L71.2699 24.62Z" fill="#231F20"/>
<path d="M47.6702 106.04C44.8102 108.08 41.8402 109.99 38.7202 111.64C37.5802 112.25 36.4602 112.88 35.2802 113.41C33.2002 114.34 31.0202 115.11 28.7702 115.63C26.5202 116.15 24.1702 116.42 21.8102 116.16L20.2502 115.9C19.7302 115.75 19.2302 115.62 18.7102 115.45C17.6202 115.04 16.6402 114.33 15.9502 113.34C15.5202 112.69 15.2202 111.93 15.1502 111.11C15.0702 110.29 15.2902 109.45 15.6502 108.75C15.8502 108.41 16.0602 108.08 16.3202 107.81C16.5602 107.51 16.8402 107.28 17.1302 107.06C17.2802 106.96 17.4002 106.81 17.5702 106.76L18.0802 106.58C18.4102 106.45 18.7502 106.38 19.0802 106.3C19.9202 106.14 19.8302 106.3 19.4602 106.97C19.3702 107.14 19.2602 107.34 19.1502 107.58C19.0702 107.86 18.9602 108.11 18.8802 108.42C18.7902 108.71 18.6702 108.93 18.5402 109.15C18.4302 109.38 18.3102 109.6 18.2002 109.79C17.8502 110.51 17.7502 111.02 18.0802 111.67C18.2302 111.99 18.4902 112.3 18.8202 112.55C18.9702 112.69 19.1602 112.78 19.3402 112.89L19.6302 113.02C19.7402 113.06 19.8902 113.1 20.0102 113.14L20.7902 113.39L21.6102 113.55C22.1502 113.69 22.7402 113.67 23.3102 113.75C24.4802 113.77 25.6802 113.75 26.8902 113.56C29.8102 113.18 32.7202 111.89 35.4902 110.54C38.5502 109.06 41.5002 107.26 44.3302 105.32C46.0702 104.11 47.7902 102.86 49.4302 101.51C51.9302 99.49 54.3602 97.35 56.5602 95.03C58.2702 93.23 59.7802 91.32 61.1902 89.36C61.4902 88.92 61.7802 88.49 62.0702 88.05C63.2202 86.46 63.7102 86.05 64.3502 85.89C64.5002 85.86 64.6602 85.79 64.7802 85.78C64.9902 85.78 65.0702 85.98 65.0402 86.4C65.0202 86.82 64.8702 87.43 64.5702 88.17C64.1002 89.24 63.5002 90.24 62.8402 91.21C62.1902 92.18 61.4902 93.13 60.7502 94.05C59.2902 95.91 57.6202 97.62 55.8902 99.27C53.3102 101.7 50.5702 103.97 47.7102 106.08L47.6702 106.03V106.04Z" fill="#231F20"/>
<path d="M49.6999 96.93C48.5499 97.81 47.3598 98.65 46.1599 99.45C45.7199 99.74 45.3199 100.08 44.8599 100.35C43.2599 101.3 41.5899 102.13 39.8999 102.89C39.1499 103.22 38.3999 103.58 37.6099 103.83C37.1099 104 36.5899 104.15 36.0399 104.2C35.4999 104.24 34.9199 104.24 34.3999 104C34.0899 103.82 34.1798 103.82 34.4598 103.8C34.7498 103.8 35.1898 103.6 35.6898 103.35C37.4798 102.44 39.2499 101.53 41.0899 100.59C42.2099 100.04 43.2099 99.19 44.2699 98.48C45.4299 97.69 46.5699 96.86 47.6799 95.99C48.3599 95.45 49.0399 94.91 49.6799 94.33C50.6599 93.46 51.6299 92.56 52.4699 91.57C53.1299 90.8 53.6098 89.93 54.1399 89.11L54.4599 88.56C54.9198 87.91 55.1899 87.79 55.6999 87.88C55.8199 87.9 55.9399 87.91 56.0399 87.94C56.3899 88.04 56.4999 88.5 56.3299 89.16C56.0199 90.09 55.5599 90.98 54.9699 91.78C54.3799 92.58 53.7099 93.32 53.0199 94.03C51.9799 95.08 50.8599 96.04 49.7199 96.96L49.6898 96.92L49.6999 96.93Z" fill="#231F20"/>
<path d="M83.7399 88.79C83.3899 91.99 82.4599 94.96 81.2699 97.81C80.0499 100.64 78.5599 103.36 76.6999 105.84C76.0299 106.75 75.31 107.63 74.54 108.47C74.15 108.89 73.76 109.3 73.33 109.69C72.94 110.07 72.41 110.51 71.8899 110.85C70.9599 111.44 69.97 111.88 68.91 112.16C67.86 112.44 66.7099 112.56 65.5299 112.33C64.3599 112.11 63.1799 111.46 62.4099 110.49C61.9699 109.97 61.6799 109.26 61.61 108.61C61.53 107.95 61.5999 107.36 61.7 106.82C62.1899 104.69 63.0699 103.05 63.6899 101.27C64.3399 99.53 64.8499 97.76 65.0699 95.95C65.2699 94.35 65.23 92.72 64.94 91.13C64.68 89.51 64.14 88.07 63.33 86.68C62.31 84.91 60.8999 83.36 59.3499 82C58.9599 81.66 58.56 81.33 58.15 81.03C57.76 80.69 57.3399 80.4 56.9299 80.08C56.4999 79.79 56.0799 79.49 55.6399 79.23C55.2099 78.93 54.7799 78.65 54.3399 78.34C53.2599 77.53 53.3499 77.65 54.5999 77.59C55.8599 77.48 58.2899 77.83 60.4399 79.48C62.2899 80.97 63.9099 82.74 65.1999 84.78C65.8299 85.81 66.38 86.91 66.79 88.09C67.19 89.31 67.41 90.45 67.55 91.66C67.83 94.05 67.63 96.5 67.04 98.79C66.47 101.08 65.5299 103.22 64.6999 105.21C64.2199 106.37 63.8099 107.64 63.9799 108.39C64.0199 108.57 64.07 108.73 64.19 108.88C64.23 108.95 64.31 109.04 64.4 109.13C64.49 109.21 64.56 109.32 64.66 109.38C65.02 109.69 65.47 109.88 65.97 109.97C66.9799 110.17 68.2 109.93 69.29 109.46C69.84 109.23 70.3699 108.93 70.8399 108.59C71.2699 108.28 71.75 107.77 72.2099 107.33C76.15 103.21 78.82 97.77 80.32 92.2C80.77 90.47 81.03 88.74 81.08 86.97C81.13 85.21 81.01 83.43 80.61 81.72C80.07 79.11 78.97 76.62 77.37 74.51C75.79 72.38 73.5999 70.77 71.1699 69.81C69.2999 69.01 67.26 68.78 65.22 68.78C63.18 68.78 61.1499 69.08 59.1599 69.49C58.2799 69.67 57.4299 69.93 56.5699 70.18C53.3799 71.19 52.3399 71.42 51.3499 71.1C51.1299 71.03 50.8599 71 50.7099 70.92C50.2199 70.72 51.1999 69.44 53.6399 68.26C57.2899 66.66 61.37 65.72 65.65 65.84C67.77 65.9 70.02 66.22 72.12 67.1C74.2 67.92 76.1899 69.12 77.8099 70.7C80.2399 73.03 81.9499 76.02 82.8899 79.14C83.8299 82.28 84.14 85.55 83.8 88.76H83.73L83.7399 88.79Z" fill="#231F20"/>
<path d="M94.7701 25.38C94.8401 25.6 94.5901 25.75 94.2001 25.86C94.0801 25.9 93.7201 25.86 93.6701 25.79C93.5701 25.66 93.4801 25.53 93.4001 25.4C93.3601 25.32 93.1201 24.11 92.9901 23.69C92.8801 23.29 92.8001 22.88 92.8301 22.49L92.9001 20.1C92.9001 19.92 92.9501 19.75 93.0201 19.58C93.2701 19.01 93.3401 18.41 93.3401 17.8C93.3401 17.7 93.3801 17.6 93.2901 17.48C93.1301 17.29 93.4001 15.67 93.5301 15.47C93.8401 14.99 94.0701 14.51 94.3501 14.03C94.3901 13.96 94.3601 13.87 94.5101 13.84C94.8601 13.75 94.8401 13.59 94.8901 13.43C94.9701 13.22 95.0601 13.01 95.2301 12.82C95.3301 12.73 95.5601 12.67 95.7301 12.6C95.8901 12.54 96.2901 12.69 96.3301 12.73C96.4501 12.86 96.6701 12.83 96.8501 12.86C96.9101 12.87 96.9901 12.89 97.0401 12.9C97.0701 12.91 97.3601 13.31 97.4701 13.68C97.6101 14.05 97.7301 14.44 97.7101 14.5C97.7101 14.52 97.6701 14.98 97.6201 15.47C97.5801 15.96 97.5501 16.47 97.5501 16.58C97.5501 16.69 97.4601 16.78 97.4001 16.88C97.3701 16.93 97.3301 18.41 97.3101 18.46C97.2101 18.75 97.2301 19.06 96.9001 19.31C96.8301 19.36 96.8301 19.42 96.8201 19.48C96.7301 19.99 96.5101 20.48 96.3301 20.99C96.2401 21.25 96.2101 21.51 96.1501 21.77C96.1401 21.82 96.0901 21.86 96.0701 21.9C96.0401 21.96 95.9901 22.01 95.9801 22.07C95.8801 22.69 95.6301 23.3 95.5301 23.93C95.5001 24.07 95.1001 24.73 95.0901 24.9C95.0801 24.99 94.7301 25.27 94.7601 25.35L94.7701 25.38Z" fill="#231F20"/>
<path d="M98.8299 32.19C98.6199 32.32 98.4099 32.05 98.1999 31.61C98.1299 31.47 98.0899 31.04 98.1499 30.96C98.2599 30.81 98.3599 30.66 98.4799 30.53C98.5499 30.46 99.6999 29.83 100.09 29.66C100.47 29.45 100.85 29.35 101.25 29.31L103.63 28.92C103.81 28.89 103.99 28.9 104.17 28.93C104.8 29.05 105.4 28.98 106 28.83C106.1 28.81 106.2 28.81 106.29 28.69C106.43 28.49 108.05 28.23 108.27 28.29C108.82 28.43 109.36 28.52 109.91 28.62C109.99 28.63 110.06 28.58 110.15 28.7C110.35 28.98 110.5 28.91 110.67 28.91C110.9 28.91 111.13 28.93 111.37 28.99C111.49 29.02 111.62 29.17 111.76 29.29C111.88 29.4 111.9 29.84 111.87 29.89C111.79 30.04 111.91 30.24 111.95 30.42C111.96 30.48 111.98 30.56 111.98 30.61C111.99 30.72 110.79 31.72 110.64 31.74C110.62 31.74 110.14 31.89 109.63 32.04C109.12 32.2 108.59 32.33 108.49 32.37C108.38 32.41 108.25 32.35 108.13 32.32C108.07 32.31 106.55 32.7 106.49 32.7C106.17 32.7 105.86 32.83 105.51 32.6C105.44 32.55 105.38 32.57 105.31 32.59C104.76 32.68 104.2 32.62 103.65 32.61C103.37 32.61 103.09 32.66 102.81 32.68C102.76 32.68 102.71 32.65 102.65 32.64C102.58 32.62 102.52 32.6 102.45 32.6C101.79 32.67 101.12 32.63 100.46 32.73C100.31 32.75 99.5499 32.51 99.3799 32.51C99.2799 32.51 98.9199 32.15 98.8399 32.21L98.8299 32.19Z" fill="#231F20"/>
</svg>
