<svg width="128" height="128" viewBox="0 0 128 128" fill="none" xmlns="http://www.w3.org/2000/svg">
<path d="M77.7399 98.43L77.3799 105.16C77.3399 105.98 77.3399 106.8 77.2799 107.62C77.2299 108.35 77.1699 109.08 77.0999 109.81C77.0699 110.17 77.0299 110.54 76.9799 110.91L76.8899 111.66L76.7399 112.51L76.4399 113.04L76.3699 113.17V113.18C76.3699 113.18 76.1599 112.81 76.2599 112.99H76.2399C76.2299 112.99 76.2199 112.99 76.2099 112.99H76.1499L75.9199 113.02C75.7599 113.06 75.5399 113.06 75.2999 112.94L74.5499 112.49L72.6499 111.27C71.5599 110.59 70.4699 109.91 69.3899 109.24C67.9999 108.39 66.6199 107.5 65.3199 106.49C64.9199 106.17 65.0599 106.08 65.5199 106.18C65.9699 106.28 66.7599 106.51 67.5899 106.94C69.0599 107.71 70.5099 108.52 71.9599 109.34C72.6799 109.75 73.3999 110.17 74.1199 110.58L74.6599 110.89C74.8199 110.98 75.0799 111.14 75.0499 111.13C75.1099 111.19 75.1899 111.26 75.2999 111.34C75.3499 111.39 75.3599 111.35 75.3599 111.32L75.3899 111.22C75.4399 111.27 75.5299 110.06 75.5499 109.25C75.5799 108.37 75.5999 107.49 75.6299 106.61L75.8299 99.85L75.9499 95.68C75.9999 93.58 76.0999 91.46 76.1199 89.36C76.1599 87.73 76.0299 86.13 76.1199 84.5C76.1399 84.14 76.1299 83.79 76.1699 83.42C76.2599 82.73 76.3399 82.3 76.4999 81.98C76.6699 81.66 76.8599 81.51 77.1299 81.44C77.2499 81.41 77.3699 81.35 77.4899 81.35C77.6799 81.35 77.8199 81.5 77.9099 81.75C77.9999 82.01 78.0199 82.32 78.0499 82.81C78.0499 84.18 78.1999 85.66 78.1499 87.13C78.1399 88.61 78.0899 90.12 78.0499 91.63C77.9799 93.88 77.8999 96.14 77.8299 98.4H77.7799L77.7399 98.43Z" fill="#231F20"/>
<path d="M77.8498 89.1L77.9398 79.69C77.9398 78.55 77.9098 77.4 77.9398 76.26L78.1498 70.21L78.4398 64.16C78.5098 62.37 78.5298 60.57 78.5498 58.8C78.5498 57.66 78.5698 56.52 78.6198 55.37C78.6598 54.8 78.6498 54.23 78.7398 53.66C78.8398 53.09 78.9398 52.53 79.0398 51.95C79.1798 51.24 79.2198 51.34 79.4198 51.95C79.5598 52.33 79.7098 52.76 79.8598 53.2C79.9498 53.46 80.0698 53.74 80.1398 54.04C80.1898 54.34 80.2298 54.65 80.2498 54.98C80.4198 57.31 80.3998 59.64 80.3598 61.97C80.3198 64.3 80.2498 66.64 80.1098 68.98C79.9498 71.79 79.9398 74.71 79.8598 77.58L79.4298 87.05L79.2398 92.88C79.1598 95.82 79.0598 98.78 79.0298 101.7C79.0098 103.97 78.9798 106.2 78.9598 108.44C78.9598 108.93 78.9498 109.42 78.9398 109.92C78.8898 111.77 78.8098 112.36 78.6098 112.75C78.5598 112.84 78.5198 112.96 78.4798 113.01C78.3298 113.19 78.2098 112.43 78.1498 111.08C77.9798 107.07 77.7398 102.83 77.7798 98.58C77.7998 95.42 77.8098 92.25 77.8298 89.09H77.8698L77.8498 89.1Z" fill="#231F20"/>
<path d="M43.26 82.66C43.31 85.1 43.2 87.55 43.05 90.01C43.01 90.9 42.99 91.81 42.91 92.7C42.85 93.38 42.76 94.07 42.67 94.75C42.54 95.48 42.48 96.06 42.17 96.97C42 97.27 41.74 97.59 41.49 97.74C41.28 97.91 41.09 98.01 40.9 98.14C40.51 98.39 40.12 98.63 39.74 98.86L37.41 100.21C36.2 100.9 35 101.63 33.82 102.34C32.29 103.24 30.77 104.17 29.08 104.79C28.55 104.99 28.54 104.8 28.84 104.37C29.14 103.96 29.68 103.17 30.51 102.58C33.49 100.55 36.67 98.79 39.73 96.94L40.37 96.52C40.6 96.34 40.59 96.38 40.66 96.29C40.66 96.22 40.72 96.02 40.76 95.85C40.81 95.69 40.82 95.47 40.85 95.28C40.9 94.88 40.96 94.49 40.97 94.07C41.03 93.25 41.07 92.41 41.1 91.58C41.23 89.15 41.24 86.71 41.32 84.26C41.36 82.75 41.4 81.24 41.4 79.74C41.41 77.46 41.42 75.16 41.35 72.89C41.31 71.13 41.12 69.4 41.06 67.66C41.04 67.28 41.03 66.9 41.01 66.51C40.99 65.08 41.06 64.62 41.33 64.29C41.39 64.22 41.45 64.12 41.51 64.08C41.71 63.93 41.92 64.51 42.09 65.55C42.62 68.65 42.86 71.94 43.04 75.25C43.17 77.7 43.24 80.17 43.3 82.64H43.25L43.26 82.66Z" fill="#231F20"/>
<path d="M9.02998 57.43L9.34998 54.36L9.53998 52.81C9.56998 52.56 9.61998 52.28 9.65998 52C9.67998 51.78 9.83998 51.21 9.99998 50.83C10.2 50.61 10.42 50.31 10.61 50.16L11.04 49.78L11.87 49.07C12.65 48.42 13.39 47.73 14.18 47.1C16.97 44.89 19.81 42.76 22.64 40.63C23.9 39.69 25.11 38.67 26.36 37.73C27.15 37.11 27.95 36.49 28.76 35.9C29.61 35.36 30.46 34.81 31.43 34.43C32.03 34.2 32.05 34.38 31.82 34.96C31.6 35.56 31.13 36.56 30.33 37.4C27.29 40.09 24.01 42.5 20.65 44.87C18.64 46.29 16.74 48.01 14.82 49.61L13.31 50.88L12.58 51.52L12.24 51.83C12.17 51.89 12.14 51.92 12.09 51.97C12.06 52.03 12.04 52.09 12.02 52.18L11.93 52.66L11.77 53.7L11.5 55.83C11.3 57.52 11.12 59.21 10.96 60.91C10.73 63.48 10.49 66.06 10.38 68.62C10.28 70.61 10.36 72.56 10.33 74.52C10.33 74.95 10.33 75.37 10.31 75.81C10.26 77.42 10.11 77.92 9.69998 78.27C9.60998 78.35 9.51998 78.46 9.42998 78.51C9.14998 78.68 8.81998 78.02 8.65998 76.81C8.12998 73.24 8.30998 69.51 8.43998 65.77C8.56998 62.99 8.76998 60.21 8.97998 57.43H9.03998H9.02998Z" fill="#231F20"/>
<path d="M7.83 76.39C7.83 71.01 7.86 65.63 7.92 60.25C7.94 58.29 7.89 56.32 7.93 54.36L7.97 51.76C8.02 51.47 7.87 50.5 8.24 49.93C8.33 49.78 8.4 49.62 8.52 49.48L8.91 49.1C9.05 48.95 9.16 48.88 9.24 48.81L9.51 48.59C10.94 47.48 12.39 46.55 13.83 45.58L22.5 39.89C25.06 38.2 27.57 36.43 30.02 34.65C31.58 33.49 33.14 32.32 34.71 31.16C36.31 30.05 37.82 28.84 39.69 28.07C40.83 27.56 40.76 27.71 40.25 28.73C39.99 29.24 39.69 30.04 39.19 30.85C38.67 31.64 37.94 32.42 37.07 33.15C36.3 33.8 35.5 34.41 34.68 34.99L32.23 36.73C30.59 37.88 28.93 39 27.26 40.11C23.92 42.32 20.53 44.46 17.11 46.57C15.08 47.83 13.02 49.21 11.13 50.64L10.8 50.9C10.74 50.95 10.72 50.97 10.68 51.01C10.59 51.07 10.57 51.17 10.58 51.27L10.55 52.92C10.54 54.15 10.53 55.39 10.51 56.61C10.46 62.01 10.43 67.42 10.44 72.83C10.45 76.16 10.47 79.49 10.53 82.81C10.62 87.85 10.7 92.91 10.97 97.9C11.18 101.78 11.58 105.57 11.98 109.39C12.07 110.23 12.19 111.05 12.27 111.89C12.41 113.46 12.49 114.49 12.4 115.23C12.36 115.6 12.3 115.89 12.2 116.14C12.07 116.39 11.91 116.6 11.76 116.79C11.62 116.96 11.52 117.18 11.42 117.28C11.21 117.61 10.2 116.42 9.87 114.1C8.76 107.25 8.35 99.97 8.08 92.68C7.88 87.26 7.82 81.82 7.75 76.39H7.82H7.83Z" fill="#231F20"/>
<path d="M43.51 70C43.64 75.25 43.82 80.49 44.04 85.75C44.12 87.67 44.28 89.58 44.34 91.5L44.4 94.05C44.4 94.48 44.42 94.9 44.41 95.34V96V96.33V96.49L44.39 96.74C44.36 97.09 44.3 97.45 44.22 97.78C44.06 98.09 43.86 98.38 43.62 98.63C43.04 99.18 42.66 99.36 42.26 99.61C41.47 100.07 40.71 100.46 39.94 100.85C36.88 102.37 33.85 103.78 30.9 105.38C28.28 106.79 25.75 108.38 23.37 110.1C21.84 111.21 20.38 112.4 18.95 113.62L16.77 115.41C16.4 115.71 16.05 116.01 15.69 116.32C15.52 116.48 15.31 116.6 15.12 116.74C14.92 116.87 14.76 117.05 14.53 117.15C13.42 117.72 13.51 117.61 13.79 116.49C14.02 115.32 14.88 113.45 16.49 111.83C22.52 106.44 29.63 102.59 36.81 99.37C37.88 98.89 38.95 98.38 39.97 97.84C40.48 97.57 40.98 97.28 41.38 97C41.53 96.9 41.55 96.87 41.63 96.79C41.7 96.71 41.67 96.6 41.69 96.51C41.69 95.51 41.65 94.22 41.6 93.04C41.55 91.83 41.5 90.63 41.44 89.43C41.23 84.14 41.02 78.84 40.86 73.54C40.78 70.28 40.69 67.01 40.61 63.75C40.49 58.81 40.47 53.84 40.44 48.93C40.41 47.02 40.38 45.13 40.35 43.24C40.31 41.35 40.27 39.47 40.3 37.57C40.3 36.74 40.29 35.92 40.3 35.08C40.35 33.52 40.49 32.5 40.7 31.79C40.89 31.08 41.16 30.68 41.51 30.38C41.67 30.24 41.82 30.05 41.97 29.98C42.42 29.72 42.86 31.02 42.96 33.28C43.03 40 43.11 47.04 43.18 54.12C43.26 59.39 43.37 64.69 43.56 69.98H43.49L43.51 70Z" fill="#231F20"/>
<path d="M76.1301 96.64C75.9701 89.49 75.9501 82.33 75.8701 75.17C75.8201 72.56 75.7601 69.95 75.7101 67.34L75.5501 53.55L75.4801 50.42C75.4901 50.3 75.3501 50.24 75.2901 50.15C75.2701 50.13 75.2601 50.11 75.2201 50.08L75.0601 49.96L74.7501 49.72C74.3501 49.4 73.8601 49.1 73.4001 48.8C71.4901 47.61 69.4701 46.49 67.4701 45.36C63.9101 43.35 60.3001 41.35 56.8401 39.18C54.6001 37.81 52.4301 36.31 50.3201 34.72C48.2601 33.07 46.1801 31.37 44.6801 29.15C43.8501 27.69 43.9401 27.93 45.2201 28.6C45.8801 28.92 46.6801 29.48 47.7501 30.02C48.2701 30.3 48.7701 30.69 49.3101 31.07C49.8701 31.44 50.4401 31.85 51.0201 32.3C55.1401 35.46 59.6601 38.15 64.2401 40.77C66.5601 42.06 68.8801 43.35 71.2101 44.65C72.3801 45.31 73.5501 45.97 74.7301 46.72L75.6101 47.29C75.9101 47.49 76.2101 47.73 76.5101 47.95C76.7701 48.08 77.2001 48.64 77.5701 49.05L77.7101 49.21L77.7801 49.29C77.7401 49.35 77.7901 49.36 77.7901 49.4C77.8401 49.53 77.9001 49.66 77.9001 49.81L77.9301 50.25V50.6C77.9901 57.07 78.2401 63.71 78.3501 70.27C78.4501 77.48 78.5601 84.7 78.5701 91.91C78.5901 96.35 78.6101 100.79 78.6301 105.23L78.6701 111.6V113.28C78.6701 114.04 78.6901 114.83 78.6401 115.54C78.6201 115.62 78.6401 115.73 78.6001 115.77L78.4901 115.91C78.4301 116 78.3701 116.09 78.3201 116.18L78.1801 116.44L78.1201 116.57C78.1201 116.57 78.1001 116.61 78.0801 116.63C78.1401 116.75 77.9401 116.35 78.2201 116.91H78.2001H78.1601C77.7101 116.74 77.4001 116.81 76.7201 116.26L75.6401 115.44L74.6701 114.72L73.1701 113.63C72.1701 112.91 71.1501 112.21 70.1401 111.52C65.8601 108.62 61.5201 105.99 57.0401 103.6C56.0601 103.06 55.0701 102.62 54.0701 102.1C50.3301 100.31 49.2401 99.95 48.5401 99.1C48.3701 98.92 48.1101 98.73 47.9901 98.58C47.7901 98.32 48.1101 98.14 49.0101 98.02C49.9001 97.91 51.1801 98.22 52.6801 98.78C57.1001 100.53 61.2101 102.92 65.2901 105.48C67.3301 106.76 69.3401 108.11 71.3501 109.48C72.3401 110.18 73.3401 110.88 74.3301 111.59L75.8101 112.67C76.0401 112.84 76.4001 113.1 76.2901 113.02V112.65L76.2401 107.33C76.1901 103.78 76.1801 100.22 76.0701 96.66H76.1301V96.64Z" fill="#231F20"/>
<path d="M109.13 47.63L109.25 68.61C109.28 71.16 109.32 73.71 109.35 76.25L109.4 85.58L109.45 90.24L109.54 95.14L109.48 95.52L109.45 95.71V95.73V95.74C109.41 95.72 109.54 95.78 109.36 95.7L109.34 95.74L109.29 95.82C109.18 96.03 108.97 96.2 108.78 96.38L107.76 97.03L106.01 98.13L102.53 100.35C99.19 102.51 95.92 104.8 92.77 107.17C88.71 110.19 84.78 113.38 80.94 116.67C79.76 117.72 79.78 117.46 80.52 116.3C80.89 115.72 81.45 114.92 82.17 113.99C82.53 113.52 82.93 113.02 83.38 112.52C83.84 112.03 84.34 111.52 84.89 111.02C86.67 109.38 88.51 107.81 90.38 106.28C92.3 104.81 94.24 103.39 96.22 102.01C98.2 100.63 100.2 99.28 102.22 97.97L105.27 96.02L106.8 95.06L107.18 94.82L107.28 94.77C107.34 94.75 107.38 94.71 107.37 94.65V94.37V93.76V92.54C107.32 86.27 107.11 79.76 107.04 73.35C106.98 66.32 106.91 59.28 106.85 52.24C106.79 47.91 106.73 43.58 106.57 39.27C106.51 37.64 106.44 36 106.33 34.37C106.28 33.56 106.22 32.75 106.13 31.94L106.04 31.18C106.01 30.95 105.97 30.73 105.91 30.5C105.87 30.4 105.84 30.26 105.74 30.21C105.63 30.22 105.56 30.33 105.46 30.39C105.28 30.53 105.1 30.68 104.93 30.82L103.34 32.19C102.11 33.27 100.88 34.34 99.65 35.42C95.82 38.75 92.1 42.07 87.99 45.05C87.09 45.71 86.2 46.36 85.22 46.94C83.42 48.03 82.13 48.62 81.17 48.9C80.23 49.21 79.58 49.16 79.07 49.03C78.83 48.97 78.54 48.92 78.4 48.83C77.93 48.48 79.38 47.77 81.85 46.25C85.5 43.93 89.09 41.14 92.64 38.2C94.42 36.73 96.19 35.22 97.96 33.68L100.62 31.36L101.96 30.19L102.63 29.6L102.97 29.31C103.12 29.17 103.4 28.94 103.61 28.78L104.61 27.99L105.11 27.6L105.36 27.4C105.43 27.37 105.49 27.38 105.56 27.37L106.35 27.29C106.59 27.2 106.95 27.41 107.15 27.53C107.58 27.82 107.95 28.36 108.15 29.16C108.24 29.57 108.34 29.97 108.39 30.41L108.48 31.06L108.54 31.59C108.73 33.41 108.82 35.18 108.91 36.96C109.07 40.51 109.15 44.05 109.22 47.58H109.16L109.13 47.63Z" fill="#231F20"/>
<path d="M16.1902 84.1C16.1902 84.1 16.1902 84.1 16.1902 84.11C16.2202 84.15 16.2302 84.17 16.2202 84.18C16.0002 84.3 15.9202 84.51 15.8302 84.7C15.7402 84.9 15.6502 85.1 15.5702 85.3C15.4102 85.7 15.2802 86.11 15.1602 86.53C15.0302 86.94 15.0002 87.38 14.9702 87.8C14.9602 88.01 14.9502 88.23 14.9502 88.44C15.0102 88.66 15.0302 88.87 15.1402 89.09C15.1502 89.11 15.1502 89.12 15.1402 89.13C15.1402 89.13 15.5302 89.22 15.9202 89.25C16.3102 89.28 16.6702 89.27 16.7102 89.25C16.7102 89.25 16.6902 89.21 16.7102 89.2C16.7902 89.15 16.7802 89.09 16.8202 89.04C17.0402 88.73 17.0902 88.41 17.2102 88.1C17.3302 87.79 17.4602 87.49 17.5602 87.19C17.6702 86.89 17.8102 86.6 17.9502 86.31L18.1802 85.89L18.3002 85.69C18.3402 85.62 18.3202 85.52 18.3302 85.43C18.3302 85.42 18.3602 85.42 18.4002 85.43H18.4102C18.4102 85.4 17.9202 85.08 17.3202 84.72C16.7202 84.36 16.2102 84.08 16.1802 84.1H16.1902Z" fill="#242021"/>
<path d="M23.5702 73.07C23.5702 73.07 23.5702 73.07 23.5702 73.09C23.5802 73.14 23.5802 73.17 23.5702 73.18C23.3602 73.3 23.1502 73.41 22.9602 73.56C22.7902 73.72 22.6202 73.89 22.4502 74.06C22.1302 74.41 21.8502 74.79 21.5902 75.18C21.3302 75.57 21.0902 75.98 20.9402 76.42C20.7702 76.86 20.6402 77.3 20.5302 77.75C20.5302 77.77 20.5102 77.78 20.4802 77.78H20.4702C20.4702 77.82 20.7602 77.97 21.1302 78.12C21.5002 78.27 21.8202 78.37 21.8302 78.35C21.8302 78.35 21.8302 78.35 21.8302 78.34C21.8102 78.32 21.8002 78.3 21.8102 78.28L21.9202 78.12C22.1402 77.81 22.3802 77.52 22.6302 77.24C22.9002 76.98 23.1102 76.68 23.3602 76.43C23.6102 76.17 23.8802 75.93 24.1402 75.69C24.2702 75.57 24.4102 75.46 24.5502 75.35L24.9102 74.94C24.9102 74.94 24.9402 74.94 24.9802 74.97H25.0002C25.0202 74.95 24.7202 74.5 24.3302 73.98C23.9402 73.46 23.6002 73.05 23.5702 73.07Z" fill="#242021"/>
<path d="M32.6299 66.26C32.6299 66.3 32.6098 66.31 32.5898 66.31C32.2698 66.17 32.0698 66.37 31.8498 66.46C31.6298 66.58 31.4099 66.7 31.1999 66.83C30.7699 67.09 30.3598 67.37 29.9798 67.68C29.5798 67.97 29.2399 68.35 28.9499 68.74C28.8099 68.94 28.6299 69.11 28.5399 69.36C28.4599 69.62 28.3698 69.85 28.2498 70.06C28.2498 70.08 28.2299 70.08 28.1999 70.08H28.1899C28.1799 70.12 28.3599 70.31 28.6099 70.51C28.8499 70.71 29.0799 70.85 29.1099 70.84C29.1099 70.84 29.1099 70.79 29.1199 70.78L29.2998 70.66C29.4698 70.54 29.7298 70.51 29.8898 70.4C30.0598 70.29 30.2198 70.18 30.3898 70.08C30.5598 69.98 30.7298 69.88 30.8998 69.79C31.0598 69.68 31.2198 69.57 31.3798 69.47C31.7098 69.27 32.0398 69.09 32.3898 68.93C32.5598 68.85 32.7398 68.78 32.9098 68.71C33.0798 68.63 33.2899 68.65 33.3799 68.35C33.3799 68.33 33.4098 68.34 33.4298 68.36H33.4398C33.4598 68.32 33.2998 67.83 33.0998 67.28C32.8998 66.73 32.6898 66.27 32.6398 66.25L32.6299 66.26Z" fill="#242021"/>
<path d="M51.7699 67.79C51.7699 67.79 51.7699 67.79 51.7799 67.79C51.8099 67.75 51.8299 67.74 51.8399 67.75C52.2299 68.01 52.6499 68.07 53.0299 68.26C53.4099 68.43 53.7599 68.65 54.0799 68.91C54.3899 69.18 54.7399 69.45 55.0699 69.79C55.3699 70.14 55.7899 70.44 56.1799 70.78C56.1899 70.79 56.1999 70.81 56.1799 70.84V70.85C56.2099 70.88 56.4799 70.74 56.7799 70.54C57.0799 70.34 57.3099 70.15 57.2999 70.11C57.2999 70.11 57.2999 70.11 57.2899 70.11C57.2599 70.11 57.2399 70.09 57.2399 70.08L57.1599 69.84L56.8899 69.11C56.7699 68.88 56.6299 68.66 56.4799 68.44C56.1899 67.99 55.8399 67.55 55.3999 67.18C54.9699 66.8 54.4799 66.48 53.9699 66.22C53.4599 65.97 52.9399 65.71 52.3799 65.72C52.3599 65.72 52.3399 65.69 52.3299 65.65V65.63C52.2799 65.63 52.1299 66.11 51.9799 66.71C51.8299 67.31 51.7399 67.81 51.7699 67.83V67.79Z" fill="#242021"/>
<path d="M61.4102 79.31C61.4102 79.31 61.4102 79.31 61.4202 79.31C61.4502 79.3 61.4702 79.3 61.4802 79.31C61.6002 79.53 61.7602 79.7 61.8902 79.9L62.3702 80.41C62.6902 80.76 62.9502 81.16 63.2402 81.54C63.5302 81.92 63.8002 82.33 64.0102 82.76C64.2202 83.18 64.5502 83.58 64.7202 84.04C64.7202 84.06 64.7202 84.07 64.7102 84.09C64.7102 84.09 64.9702 84.15 65.2502 84.14C65.5302 84.13 65.7702 84.07 65.7802 84.02C65.7802 84.02 65.7802 84.02 65.7802 84.01C65.7602 83.99 65.7502 83.97 65.7602 83.94C65.7702 83.84 65.7902 83.74 65.7902 83.64C65.8202 83.05 65.8402 82.43 65.6202 81.89C65.4402 81.34 65.2102 80.82 64.9402 80.31C64.6502 79.81 64.2902 79.36 63.9102 78.93C63.7102 78.72 63.5202 78.49 63.2802 78.32C63.0202 78.17 62.7702 78 62.4702 77.92C62.4502 77.92 62.4402 77.89 62.4402 77.85V77.84C62.3902 77.82 62.1302 78.13 61.8702 78.53C61.6102 78.92 61.4102 79.27 61.4302 79.31H61.4102Z" fill="#242021"/>
<path d="M91.7598 73.48C91.7598 73.48 91.7598 73.48 91.7598 73.49C91.7898 73.52 91.7998 73.54 91.7898 73.55C91.5298 73.9 91.4698 74.3 91.3098 74.68C91.1698 75.06 90.9999 75.44 90.7999 75.8C90.6399 76.18 90.4598 76.57 90.2498 76.94C90.0498 77.32 89.7798 77.64 89.6298 78.1C89.6298 78.12 89.6098 78.13 89.5898 78.13C89.5898 78.13 89.6798 78.32 89.8198 78.47C89.9598 78.62 90.0998 78.73 90.1398 78.71C90.1398 78.71 90.1598 78.67 90.1798 78.66L90.4099 78.56C90.8499 78.36 91.1598 78.01 91.5098 77.71C91.8398 77.39 92.1898 77.05 92.4598 76.67C92.7298 76.28 92.9698 75.88 93.1898 75.46C93.3998 75.04 93.6398 74.62 93.6498 74.12C93.6498 74.1 93.6698 74.09 93.7098 74.08H93.7198C93.7198 74.04 93.2798 73.87 92.7498 73.71C92.2198 73.55 91.7598 73.44 91.7398 73.47L91.7598 73.48Z" fill="#242021"/>
<path d="M100.46 59.66C100.46 59.66 100.44 59.66 100.43 59.66C100.36 59.68 100.31 59.67 100.28 59.65L97.72 57.68C96.87 57.02 95.98 56.4 95.08 55.81C94.18 55.21 93.27 54.63 92.35 54.05C91.42 53.49 90.43 53.02 89.36 52.7C89.32 52.69 89.29 52.67 89.25 52.65H89.23C89.14 52.62 89.02 52.69 88.95 52.8C88.88 52.91 88.87 53.06 88.93 53.13H88.95C88.95 53.13 89.02 53.19 89.05 53.22L89.42 53.61C89.76 54.02 90.16 54.34 90.53 54.69C90.89 55.06 91.3 55.36 91.7 55.68C92.49 56.32 93.28 56.97 94.05 57.64C95.58 58.99 97.21 60.22 98.75 61.56C98.78 61.58 98.79 61.63 98.79 61.7C98.79 61.71 98.79 61.72 98.79 61.73C98.85 61.78 99.28 61.37 99.75 60.8C100.22 60.23 100.54 59.72 100.47 59.67L100.46 59.66Z" fill="#242021"/>
<path d="M97.7602 51.05C97.7602 51.05 97.7602 51.06 97.7602 51.07C97.7602 51.13 97.7502 51.17 97.7202 51.2C96.8802 51.93 96.1702 52.8 95.3902 53.62C94.6202 54.46 93.8002 55.26 93.0302 56.12L90.6902 58.7C90.3002 59.14 89.9102 59.58 89.5702 60.06L89.0502 60.78C88.9002 61.04 88.7702 61.32 88.6402 61.59C88.6202 61.63 88.5902 61.66 88.5502 61.68C88.5502 61.68 88.5402 61.69 88.5302 61.7C88.4902 61.79 88.6802 62.04 88.9602 62.25C89.2402 62.46 89.5202 62.59 89.5902 62.54C89.5902 62.54 89.6002 62.53 89.6002 62.52C89.6102 62.48 89.6402 62.44 89.6702 62.41L90.1202 62.07C90.9602 61.37 91.7202 60.6 92.5102 59.84L94.9002 57.56C95.7102 56.8 96.4802 56 97.2602 55.19C98.0302 54.38 98.8502 53.58 99.4202 52.55C99.4402 52.51 99.4802 52.49 99.5402 52.48C99.5502 52.48 99.5602 52.48 99.5602 52.46C99.6002 52.37 99.2502 51.99 98.7702 51.62C98.2902 51.25 97.8402 50.99 97.7702 51.04L97.7602 51.05Z" fill="#242021"/>
<path d="M86.4801 82.66C86.4801 82.66 86.4801 82.66 86.4801 82.67C86.5101 82.7 86.5101 82.72 86.5001 82.74C86.2101 83.07 85.9601 83.41 85.7501 83.78C85.5301 84.14 85.2801 84.49 85.0201 84.82C84.7701 85.15 84.5101 85.49 84.2201 85.78C84.0801 85.93 83.9301 86.07 83.7701 86.19C83.6101 86.32 83.4501 86.43 83.3101 86.59C83.3001 86.6 83.2801 86.59 83.2601 86.59H83.2501C83.2301 86.62 83.3301 86.92 83.4801 87.27C83.6301 87.62 83.7801 87.9 83.8301 87.89C83.8301 87.86 83.8501 87.84 83.8701 87.84L84.1401 87.79C84.6301 87.61 85.0601 87.33 85.4701 87.05C85.8701 86.75 86.2701 86.44 86.6001 86.08C86.9301 85.72 87.2401 85.34 87.5301 84.95C87.8301 84.57 88.0401 84.12 88.1801 83.65C88.1801 83.63 88.2101 83.62 88.2501 83.62H88.2601C88.2601 83.58 87.8701 83.34 87.3801 83.08C86.8901 82.83 86.4701 82.64 86.4401 82.66H86.4801Z" fill="#242021"/>
<path d="M103.72 21.22C103.83 21.37 103.69 21.57 103.46 21.77C103.38 21.84 103.13 21.91 103.07 21.87C102.96 21.8 102.85 21.73 102.75 21.65C102.7 21.6 102.11 20.73 101.87 20.44C101.63 20.16 101.51 19.85 101.38 19.53C101.1 18.9 100.93 18.24 100.77 17.58C100.73 17.43 100.72 17.28 100.74 17.13C100.79 16.6 100.7 16.09 100.56 15.59C100.54 15.51 100.54 15.42 100.44 15.35C100.27 15.24 100.04 13.85 100.09 13.66C100.19 13.19 100.24 12.73 100.32 12.28C100.33 12.21 100.29 12.15 100.39 12.08C100.62 11.92 100.56 11.79 100.57 11.65C100.59 11.46 100.63 11.26 100.7 11.07C100.74 10.97 100.87 10.87 100.97 10.77C101.06 10.68 101.41 10.71 101.45 10.73C101.57 10.81 101.73 10.73 101.87 10.71C101.92 10.71 101.98 10.7 102.02 10.7C102.09 10.7 102.87 11.72 102.85 11.83C102.85 11.84 102.93 12.23 103.01 12.63C103.1 13.03 103.19 13.45 103.22 13.53C103.25 13.62 103.21 13.71 103.18 13.81C103.16 13.86 103.5 15.04 103.5 15.09C103.5 15.35 103.63 15.58 103.46 15.86C103.43 15.92 103.45 15.97 103.46 16.01C103.56 16.44 103.55 16.88 103.58 17.32C103.59 17.55 103.67 17.76 103.7 17.98C103.7 18.02 103.69 18.07 103.68 18.11C103.68 18.16 103.66 18.22 103.68 18.27C103.75 18.8 103.75 19.34 103.87 19.86C103.89 19.98 103.77 20.62 103.82 20.76C103.83 20.84 103.66 21.16 103.71 21.22H103.72Z" fill="#231F20"/>
<path d="M112.87 25.52C112.81 25.64 112.61 25.55 112.38 25.37C112.3 25.31 112.15 25.09 112.16 25.03C112.16 24.92 112.17 24.81 112.19 24.71C112.21 24.66 112.57 23.99 112.66 23.72C112.76 23.47 112.88 23.25 113.03 23.08L114 22.08C114.07 22.01 114.16 21.96 114.26 21.93C114.63 21.86 114.91 21.65 115.15 21.39C115.19 21.35 115.25 21.32 115.23 21.21C115.21 21.03 115.93 20.42 116.08 20.41C116.45 20.41 116.77 20.33 117.11 20.29C117.16 20.29 117.18 20.23 117.27 20.29C117.5 20.45 117.55 20.37 117.64 20.33C117.76 20.28 117.9 20.24 118.05 20.24C118.13 20.24 118.27 20.32 118.39 20.38C118.5 20.43 118.7 20.77 118.7 20.81C118.72 20.94 118.87 21.06 118.96 21.19C118.99 21.23 119.03 21.29 119.06 21.33C119.11 21.41 118.9 22.41 118.84 22.46C118.84 22.46 118.65 22.68 118.45 22.91C118.26 23.13 118.07 23.36 118.01 23.43C117.97 23.49 117.88 23.47 117.8 23.47C117.77 23.47 117.15 24.11 117.12 24.13C116.95 24.2 116.85 24.38 116.57 24.29C116.51 24.27 116.49 24.3 116.46 24.33C116.22 24.53 115.9 24.61 115.59 24.71C115.43 24.76 115.31 24.86 115.17 24.94C115.14 24.95 115.1 24.94 115.07 24.94C115.03 24.94 114.98 24.94 114.95 24.96C114.79 25.06 114.61 25.13 114.44 25.21C114.25 25.27 114.07 25.33 113.91 25.43C113.83 25.47 113.33 25.48 113.25 25.54C113.2 25.57 112.9 25.46 112.88 25.52H112.87Z" fill="#231F20"/>
</svg>
