<svg width="128" height="128" viewBox="0 0 128 128" fill="none" xmlns="http://www.w3.org/2000/svg">
<path d="M16.3998 113.2C16.3998 113.2 5.72983 116.17 6.27983 118.1C6.81983 120.03 22.3498 119.59 22.3498 119.59C22.3498 119.59 14.2498 117.57 14.3498 116.73C14.4698 115.7 16.3298 112.71 16.3998 113.21V113.2Z" fill="#231F20"/>
<path d="M27.9698 117.76C19.9298 115.59 26.7198 107.61 29.6998 107.73C29.6998 107.73 26.5998 107.13 23.9598 107.76C21.3298 108.4 15.6098 113.43 15.3898 114.92C15.1698 116.41 14.6598 117.71 19.5498 118.09C24.4398 118.47 27.9598 117.75 27.9598 117.75L27.9698 117.76Z" fill="#231F20"/>
<path d="M33.1601 119.55L25.1901 119.67C23.8601 119.67 22.5301 119.73 21.1901 119.74C19.8201 119.74 18.5601 119.77 17.0301 119.66L16.7101 119.63L16.2701 119.55C15.9701 119.51 15.6801 119.42 15.4201 119.29C14.9001 119.01 14.4401 118.61 14.0801 118.14C13.7501 117.65 13.5301 117.08 13.4601 116.49C13.4401 116.2 13.4201 115.89 13.4601 115.6C13.5101 115.3 13.5501 114.99 13.6301 114.78C13.9101 113.84 14.3301 113.17 14.7501 112.53C15.1801 111.9 15.6301 111.33 16.0901 110.8C16.5101 110.3 17.1201 109.65 17.7001 109.19C18.2801 108.7 18.8901 108.3 19.5001 107.91C20.1201 107.53 20.7401 107.19 21.4001 106.87C21.7301 106.71 22.0601 106.56 22.4301 106.42C22.6101 106.35 22.8101 106.28 23.0201 106.21C23.2501 106.14 23.5701 106.07 23.8501 106.04L25.5001 105.95C29.5801 105.7 33.6401 105.45 37.7101 105.33C52.0501 104.9 66.3601 104.86 80.6801 104.84C87.0301 104.81 93.4201 104.77 99.7301 104.74C101.76 104.74 103.79 104.73 105.82 104.72L108.89 104.75C109.42 104.78 109.9 104.75 110.49 104.83C111.06 104.89 111.64 104.96 112.19 105.13C113.31 105.4 114.37 105.89 115.32 106.5C116.27 107.13 117.07 107.9 117.81 108.69C118.55 109.49 119.17 110.35 119.76 111.21C120.34 112.09 120.78 113.03 121.24 113.94C122.3 116.23 122.17 115.96 120.49 114.5C119.67 113.77 118.42 112.78 117.08 111.66C116.39 111.11 115.64 110.58 114.85 110.09C114.44 109.88 114.05 109.61 113.61 109.46C113.22 109.21 112.8 109.04 112.39 108.84C111.64 108.54 110.87 108.34 110.08 108.28C109.17 108.22 108.15 108.21 107.12 108.2L100.95 108.16C96.8201 108.14 92.6901 108.13 88.5601 108.11C80.2901 108.06 72.0001 108.01 63.6701 107.96C53.7101 107.89 43.3501 108.28 33.1901 108.71C30.1701 108.83 27.1101 109 24.1401 109.18C24.0501 109.17 23.5301 109.35 23.1401 109.53C22.7201 109.72 22.3001 109.93 21.8801 110.16C21.0501 110.62 20.2501 111.15 19.5501 111.71C18.3201 112.76 16.7201 114.64 16.4201 115.81C16.3001 116.21 16.5801 116.69 17.0001 116.76C17.1501 116.79 17.7501 116.86 18.2201 116.88L19.7201 116.96C21.7301 117.03 23.7701 117.07 25.8101 117.03C32.6901 116.93 39.6001 116.72 46.4901 116.52C56.9301 116.2 67.4401 115.95 77.8101 115.71C85.8801 115.53 93.7901 115.26 101.79 115.31C103.55 115.32 105.28 115.32 107.06 115.38C110.36 115.49 112.54 115.7 114.05 116.01C115.56 116.31 116.42 116.65 117.07 117.1C117.37 117.31 117.77 117.53 117.93 117.71C118.46 118.35 115.8 118.39 111.04 118.34C103.98 118.13 96.6801 118.18 89.2801 118.26C81.8801 118.35 74.3601 118.48 66.8301 118.68C55.6301 118.99 44.3801 119.3 33.1601 119.62L33.1401 119.55H33.1601Z" fill="#231F20"/>
<path d="M27.8499 105.93C26.1699 102.07 27.7399 97.65 29.0599 96.47C29.0599 96.47 25.4599 95.95 24.2899 98.17C23.1199 100.39 22.8299 104.54 24.0699 105.08C25.3099 105.63 27.8399 105.93 27.8399 105.93H27.8499Z" fill="#231F20"/>
<path d="M24.1799 106.93C23.4999 106.72 22.9199 106.27 22.5599 105.67C22.4699 105.52 22.3599 105.38 22.2899 105.22L22.1099 104.76C21.9999 104.49 21.9699 104.26 21.8999 104.01C21.6999 103.03 21.7099 102.15 21.7699 101.28C21.8399 100.41 22.0099 99.58 22.2699 98.74C22.3999 98.32 22.5599 97.89 22.7699 97.45C22.8899 97.25 23.0199 96.93 23.2499 96.68C23.4399 96.41 23.6899 96.19 23.9499 95.98C24.1499 95.86 24.3899 95.71 24.5599 95.64C24.7299 95.57 24.8999 95.49 25.0599 95.43C26.4299 94.95 27.6399 94.7 28.8999 94.54C31.0899 94.29 33.2399 94.29 35.3899 94.35C37.5399 94.42 39.6799 94.56 41.8199 94.85C43.7299 95.14 45.6099 95.28 47.6299 96.23C47.7899 96.31 47.9699 96.43 48.1299 96.54C48.2899 96.66 48.4899 96.84 48.6299 96.98C48.8599 97.24 49.0699 97.5 49.2699 97.79C49.6599 98.35 49.9699 98.96 50.1999 99.59C50.4399 100.22 50.5699 100.87 50.6099 101.53C50.6399 102.18 50.6599 102.82 50.5199 103.45C50.1999 104.23 50.0299 104.09 49.4599 103.48C49.1599 103.18 48.8799 102.77 48.5499 102.32C48.3899 102.1 48.2399 101.86 48.0799 101.62C47.9999 101.5 47.9399 101.38 47.8499 101.26C47.7999 101.13 47.7499 101.01 47.6899 100.88C47.5199 100.42 47.3099 100 47.0599 99.61C46.9399 99.42 46.7999 99.24 46.6599 99.07L46.5499 98.95L46.4999 98.89L46.4699 98.86C46.5999 98.74 46.1799 99.12 46.7599 98.6H46.7499L46.6899 98.66C46.6099 98.72 46.5399 98.79 46.4699 98.86C46.4499 98.88 46.4699 98.86 46.4699 98.87C46.4799 98.87 46.4599 98.86 46.4299 98.85C46.2399 98.74 45.7699 98.55 45.2899 98.42C44.7899 98.29 44.2599 98.18 43.7099 98.07C41.4899 97.65 39.1099 97.41 36.7299 97.21C33.8699 96.98 30.8499 97.3 28.0599 97.71C27.5999 97.79 27.1299 97.87 26.7099 97.99C26.3099 98.08 25.8099 98.27 25.7099 98.33C25.6299 98.39 25.5499 98.46 25.4899 98.56C25.3999 98.69 25.2999 98.92 25.2099 99.13C25.0299 99.57 24.8899 100.07 24.7899 100.57C24.5799 101.56 24.4899 102.63 24.6599 103.52C24.7499 103.96 24.8099 104.12 24.9799 104.3C25.0799 104.37 25.1899 104.41 25.2999 104.45C25.4299 104.48 25.6899 104.57 25.8999 104.6C26.8099 104.79 27.8099 104.88 28.7999 104.97C31.8199 105.25 34.9099 105.22 37.9399 105.08C40.2999 104.97 42.6099 104.7 44.9399 104.46C45.4499 104.41 45.9499 104.33 46.4699 104.34C47.4299 104.34 48.0699 104.34 48.5299 104.46C48.7599 104.55 48.9399 104.62 49.0899 104.71C49.2399 104.77 49.3599 104.84 49.4699 104.92C49.5699 104.99 49.6999 105.06 49.7599 105.12C49.8599 105.23 49.7199 105.34 49.3799 105.5C49.2099 105.56 48.9899 105.69 48.7299 105.83C48.4699 105.99 48.1599 106.02 47.8099 106.12C45.7399 106.68 43.5899 106.82 41.3999 107.04C39.2099 107.23 36.9899 107.35 34.7499 107.42L32.2499 107.47C31.4099 107.51 30.5699 107.55 29.7199 107.56C28.8699 107.57 28.0199 107.59 27.1399 107.51C26.6999 107.48 26.2599 107.43 25.7999 107.38L25.0899 107.26L24.7099 107.18C24.5599 107.16 24.3599 107.1 24.1699 107.02L24.1899 106.95L24.1799 106.93Z" fill="#231F20"/>
<path d="M34.67 46.41C34.67 46.41 35.19 40.34 38.08 41.37V38.11C38.08 38.11 35.71 37.15 34.67 39.15C33.63 41.15 33.48 46.41 33.48 46.41H34.67Z" fill="#231F20"/>
<path d="M40.9801 82.46C36.2001 84.44 32.9101 82.26 32.4201 80.89C32.4201 80.89 31.8301 84.55 32.8201 85.12C33.8101 85.7 40.9801 85.87 40.9801 85.87V82.45V82.46Z" fill="#231F20"/>
<path d="M28.3798 95.2C26.8998 90.76 30.5498 87.58 31.2398 87.08C31.2398 87.08 28.2798 85.3 26.2998 87.08C24.3198 88.86 24.2398 93.4 24.6798 94.39C25.1198 95.38 28.3698 95.2 28.3698 95.2H28.3798Z" fill="#231F20"/>
<path d="M31.8601 47.59C32.0701 45.9 32.3001 44.22 32.6401 42.51C32.6901 42.3 32.7201 42.08 32.7601 41.86L32.8201 41.54L32.8501 41.38L32.9101 41.12L33.1801 40.05C33.2601 39.69 33.3701 39.34 33.5101 39.01L33.9001 38C34.0601 37.72 34.2401 37.48 34.4001 37.22C34.5601 36.93 34.7601 36.79 34.9601 36.62C35.1501 36.45 35.3601 36.29 35.5701 36.13C35.9801 35.93 36.5601 35.74 37.1501 35.87C37.7001 36.01 38.1001 36.27 38.4701 36.64C39.2101 37.37 39.7801 38.72 40.1301 40.19C40.2201 40.57 40.3301 41.01 40.3901 41.34L40.5301 42.05L40.7801 43.45C40.9301 44.38 41.0701 45.31 41.1601 46.24C41.7601 52.79 41.8201 59.28 41.8601 65.78C41.8901 68.66 41.9101 71.56 41.9401 74.42C41.9501 76.26 41.9201 78.1 41.8501 79.94C41.7801 81.78 41.6201 83.63 41.2201 85.45C40.7401 86.57 40.7801 86.41 40.3501 85.41C40.1201 84.91 39.9301 84.22 39.7101 83.39C39.4801 82.56 39.3201 81.59 39.3101 80.54L39.1601 74.97C39.1501 73.11 39.1401 71.25 39.1301 69.39C39.1001 65.67 39.0601 61.94 39.0301 58.19C38.9801 53.71 38.4801 49.05 37.8401 44.59C37.7401 43.91 37.6301 43.23 37.5001 42.56L37.3501 41.81L37.2701 41.43C37.2101 41.18 37.1301 40.91 37.0001 40.66C36.9301 40.54 36.8401 40.41 36.7001 40.38C36.5601 40.37 36.4401 40.45 36.3601 40.55C36.0801 40.87 35.9601 41.28 35.8201 41.77C35.7701 41.9 35.6101 42.6 35.5001 43.08C35.4001 43.62 35.3001 44.15 35.2101 44.69C34.7201 47.72 34.4301 50.81 34.2001 53.91C33.8701 58.6 33.6301 63.34 33.5501 68.02C33.5401 71.66 33.5301 75.24 33.5101 78.84C33.5001 79.63 33.5101 80.41 33.4801 81.21C33.4501 81.95 33.4201 82.57 33.3701 83.09C33.3101 83.61 33.2101 84.02 33.1301 84.36C32.9701 85.04 32.7401 85.43 32.4801 85.74C32.3701 85.88 32.2701 86.07 32.1801 86.15C31.9501 86.42 31.5101 85.2 31.2601 83.03C31.0601 79.81 30.8701 76.5 30.7301 73.14C30.6401 71.46 30.6601 69.77 30.6801 68.06C30.7001 66.36 30.7401 64.65 30.7901 62.94C30.9501 57.85 31.2201 52.74 31.7601 47.6H31.8301L31.8601 47.59Z" fill="#231F20"/>
<path d="M25.64 96.85C24.92 96.66 24.29 96.22 23.8 95.69C23.65 95.44 23.5 95.21 23.36 94.96C23.25 94.66 23.15 94.39 23.11 94.17C23.01 93.7 23 93.27 23 92.86C23.04 92.06 23.19 91.34 23.39 90.66C23.59 89.98 23.86 89.35 24.17 88.72C24.49 88.09 24.81 87.5 25.35 86.85C25.52 86.64 25.78 86.38 26.04 86.19C26.53 85.89 27 85.57 27.46 85.41L28.15 85.13C28.38 85.05 28.61 85 28.83 84.94C30.8 84.45 32.71 84.39 34.61 84.39C36.5 84.42 38.38 84.57 40.24 84.87C41.9 85.15 43.55 85.4 45.24 86.21C45.51 86.34 45.78 86.48 46.06 86.72L46.47 87.05L46.76 87.36C47.14 87.78 47.5 88.24 47.8 88.76C48.44 89.77 48.62 91.12 48.4 92.22C48.08 92.91 47.91 92.77 47.35 92.25C47.05 91.99 46.77 91.66 46.44 91.34L45.96 90.87C45.87 90.8 45.82 90.71 45.73 90.64L45.56 90.38C45.37 90.05 45.12 89.73 44.84 89.41C44.71 89.26 44.53 89.07 44.4 88.96C44.28 88.92 44.28 88.87 44.12 88.8C43.57 88.48 42.58 88.26 41.69 88.03C39.82 87.6 37.8 87.35 35.78 87.17C34.57 87.06 33.32 87.11 32.1 87.28C30.88 87.44 29.68 87.7 28.66 88.07C28.28 88.17 28.02 88.37 27.73 88.49C27.62 88.55 27.24 89.03 27 89.46C26.74 89.91 26.49 90.4 26.3 90.91C25.92 91.89 25.65 93.02 25.82 93.72C25.82 93.8 25.89 93.89 25.92 93.99C26.03 94.12 26.18 94.23 26.36 94.28C26.53 94.34 26.93 94.4 27.25 94.44C27.96 94.5 28.7 94.49 29.46 94.5C32.1 94.5 34.81 94.4 37.46 94.37C39.53 94.34 41.56 94.25 43.61 94.3C44.06 94.31 44.51 94.3 44.96 94.37C45.8 94.5 46.34 94.61 46.72 94.79C46.9 94.91 47.05 95.01 47.16 95.12C47.28 95.2 47.37 95.29 47.45 95.38C47.52 95.46 47.62 95.55 47.66 95.62C47.73 95.74 47.59 95.83 47.27 95.93C47.11 95.96 46.91 96.05 46.67 96.15C46.43 96.27 46.16 96.25 45.85 96.29C45.4 96.33 44.94 96.36 44.48 96.42C44.02 96.47 43.57 96.44 43.11 96.45C42.19 96.45 41.27 96.47 40.34 96.47C38.48 96.5 36.6 96.53 34.71 96.61C34.01 96.65 33.31 96.66 32.6 96.72L30.47 96.95C29.75 97.02 29.02 97.11 28.26 97.13C27.87 97.13 27.48 97.13 27.06 97.13C26.6 97.09 26.26 97.1 25.6 96.93V96.86L25.64 96.85Z" fill="#231F20"/>
<path d="M60.87 85.64C59.96 82.26 61.45 76.92 62.91 76.92C62.91 76.92 58.56 75.69 57.6 77.96C56.64 80.23 56.85 82.89 58.23 84.18C59.61 85.47 60.88 85.65 60.88 85.65L60.87 85.64Z" fill="#231F20"/>
<path d="M60.8702 95.5C59.1902 91.22 60.3702 88.64 60.8702 87.75C60.8702 87.75 58.8102 86.64 57.2702 88.38C55.7302 90.12 56.3402 93.9 57.1202 94.83C57.9002 95.76 60.8702 95.5 60.8702 95.5Z" fill="#231F20"/>
<path d="M59.4699 105.77C57.4299 103.1 59.3899 97.27 60.2699 96.88C60.2699 96.88 57.4699 95.91 55.7599 98.13C54.0499 100.34 54.4899 103.75 55.3999 104.86C56.3199 105.97 59.4699 105.78 59.4699 105.78V105.77Z" fill="#231F20"/>
<path d="M55.9902 107C55.2502 106.81 54.5102 106.44 54.0202 105.84C53.8702 105.56 53.6802 105.32 53.5602 105C53.4302 104.65 53.3602 104.47 53.3202 104.22C53.2002 103.75 53.1602 103.32 53.1402 102.9C53.1002 102.06 53.1802 101.28 53.3102 100.51C53.4502 99.75 53.6502 99.01 53.9302 98.27C54.0802 97.9 54.2402 97.52 54.4602 97.13C54.5702 96.94 54.7102 96.68 54.9202 96.46C55.1002 96.22 55.3302 96.02 55.5602 95.84C56.0502 95.53 56.4402 95.38 56.7802 95.26C58.2202 94.79 59.4802 94.55 60.7902 94.41C63.0802 94.18 65.3302 94.2 67.5702 94.26C69.8102 94.34 72.0502 94.5 74.2902 94.78C75.2802 94.91 76.2802 95.04 77.2802 95.22C78.2902 95.42 79.2802 95.62 80.3402 96.1C80.5102 96.17 80.6802 96.26 80.8602 96.38C81.0302 96.47 81.2202 96.62 81.4102 96.8C81.7202 97.12 81.9102 97.37 82.1302 97.68C82.5402 98.28 82.8502 98.94 83.0702 99.61C83.3002 100.28 83.4102 100.97 83.4202 101.65C83.4202 102.33 83.4202 102.99 83.2702 103.64C82.9402 104.43 82.7702 104.31 82.2102 103.65C81.9102 103.33 81.6402 102.88 81.3402 102.39C81.1902 102.14 81.0402 101.89 80.9002 101.63C80.8302 101.5 80.7702 101.37 80.6902 101.24C80.6402 101.11 80.5902 100.97 80.5502 100.83C80.3902 100.34 80.1902 99.9 79.9502 99.51C79.8302 99.31 79.7002 99.13 79.5502 98.97C79.3202 98.71 79.5002 98.9 79.3202 98.78C79.0602 98.64 78.5302 98.46 78.0102 98.33C77.4702 98.2 76.9002 98.09 76.3202 97.98C73.9702 97.55 71.4702 97.32 68.9602 97.1C65.9602 96.86 62.7902 97.15 59.8402 97.54C59.3402 97.62 58.8402 97.7 58.3902 97.82C57.9602 97.91 57.4202 98.11 57.3102 98.18C57.2202 98.26 57.1602 98.29 57.0702 98.44C56.9602 98.6 56.8502 98.83 56.7502 99.06C56.5502 99.52 56.3802 100.04 56.2602 100.55C56.0102 101.57 55.8702 102.7 56.0502 103.58C56.1102 103.86 56.1302 103.91 56.2102 104.07C56.3302 104.26 56.5102 104.3 56.7802 104.38C57.1502 104.48 57.5702 104.56 57.9902 104.62C58.8402 104.75 59.7202 104.82 60.6002 104.9C63.7702 105.17 67.0102 105.16 70.1902 105.03C72.6702 104.93 75.0902 104.66 77.5302 104.44C78.0702 104.39 78.5902 104.31 79.1402 104.32C80.1502 104.32 80.8202 104.32 81.2902 104.44C81.5302 104.53 81.7202 104.61 81.8802 104.69C82.0402 104.75 82.1602 104.82 82.2802 104.9C82.3802 104.97 82.5202 105.04 82.5802 105.1C82.6802 105.21 82.5302 105.32 82.1802 105.48C82.0002 105.54 81.7702 105.67 81.5002 105.81C81.2302 105.97 80.9002 106 80.5302 106.1C78.3602 106.66 76.1002 106.79 73.8102 107C71.5202 107.18 69.1902 107.3 66.8502 107.35L64.2302 107.4C63.3502 107.44 62.4802 107.47 61.5902 107.49C60.7102 107.5 59.8102 107.52 58.9102 107.45C57.9902 107.38 57.1102 107.32 56.0202 107.07V107H55.9902Z" fill="#231F20"/>
<path d="M56.9499 96.55C56.4799 96.38 56.0999 96.05 55.7599 95.7C55.3999 95.2 55.0599 94.48 54.9999 94.08C54.8699 93.61 54.8099 93.17 54.7899 92.74C54.7399 91.88 54.7899 91.08 54.9299 90.29C55.0799 89.5 55.2799 88.74 55.6199 87.94C55.7199 87.73 55.7899 87.54 55.9299 87.32C56.0599 87.06 56.2599 86.81 56.4599 86.59C56.6599 86.37 56.8999 86.16 57.1699 86.02C57.4499 85.85 57.6699 85.75 57.8699 85.67C59.1599 85.18 60.2799 84.92 61.4499 84.77C63.4799 84.52 65.4799 84.52 67.4699 84.58C69.4599 84.65 71.4399 84.79 73.4199 85.08C74.2999 85.21 75.1799 85.34 76.0799 85.53C76.9799 85.75 77.8599 85.95 78.8199 86.5C78.9799 86.6 79.1299 86.68 79.2899 86.83L79.5199 87.04L79.6799 87.22C79.8999 87.45 80.0899 87.71 80.2799 87.96C80.6499 88.48 80.9399 89.05 81.1599 89.63C81.3899 90.21 81.5199 90.83 81.5499 91.43C81.5799 92.04 81.5899 92.64 81.4499 93.22C81.1299 93.95 80.9599 93.81 80.3899 93.25C80.0899 92.97 79.8099 92.6 79.4899 92.19C79.3299 91.99 79.1799 91.78 79.0299 91.56C78.9499 91.46 78.8999 91.34 78.8099 91.24C78.7599 91.13 78.7099 91.01 78.6599 90.9C78.4999 90.49 78.3099 90.11 78.0799 89.76C77.9599 89.59 77.8399 89.43 77.7099 89.27C77.6499 89.19 77.5699 89.12 77.4999 89.05L77.4499 88.99H77.4399V88.97C77.8199 88.61 77.5399 88.87 77.6199 88.8L77.6099 88.82L77.5099 88.91C77.4199 89 77.4399 88.98 77.4299 88.98C77.3399 88.91 76.9099 88.72 76.4999 88.6C76.0699 88.47 75.5799 88.36 75.0899 88.25C73.0799 87.83 70.8899 87.6 68.6999 87.4C66.0799 87.17 63.2899 87.49 60.7399 87.9C60.0499 88.02 59.3599 88.19 58.8499 88.39C58.6899 88.45 58.5899 88.52 58.5099 88.64C58.4799 88.67 58.3899 88.83 58.3299 88.95C58.2599 89.07 58.2099 89.23 58.1499 89.37C57.7099 90.57 57.4599 92.05 57.6599 93.22C57.6899 93.35 57.7199 93.53 57.7599 93.62C57.7799 93.68 57.8199 93.78 57.8599 93.85C57.9499 94 58.1299 94.06 58.2899 94.11C58.3499 94.11 58.5099 94.17 58.6799 94.19C58.8499 94.21 59.0099 94.25 59.1799 94.26C59.8699 94.35 60.5899 94.37 61.3099 94.4C64.0999 94.52 66.9599 94.36 69.7599 94.14C71.9399 93.97 74.0799 93.67 76.2599 93.51C76.7399 93.47 77.2199 93.42 77.7099 93.46C78.6199 93.52 79.2399 93.6 79.6699 93.79C79.8799 93.92 80.0399 94.02 80.1699 94.15C80.2999 94.24 80.3999 94.33 80.4699 94.45C80.5399 94.55 80.6299 94.65 80.6599 94.73C80.6999 94.86 80.5299 94.92 80.2299 94.98C80.0699 95.01 79.8699 95.07 79.6299 95.17C79.3899 95.28 79.1199 95.28 78.7999 95.33C76.9399 95.68 74.9899 95.8 72.9999 96.03C71.0099 96.23 68.9699 96.41 66.9199 96.56L64.6199 96.71C63.8499 96.79 63.0799 96.86 62.2999 96.92C61.5199 96.97 60.7299 97.03 59.9099 97C59.4999 97 59.0799 96.97 58.6399 96.93C58.4099 96.9 58.2099 96.89 57.9499 96.84L57.4399 96.74C57.2599 96.69 57.0899 96.62 56.9199 96.56L56.9399 96.5L56.9499 96.55Z" fill="#231F20"/>
<path d="M56.0101 85.19C55.8301 84.91 55.6201 84.65 55.5201 84.34C55.4001 84.08 55.3301 83.83 55.2701 83.59C55.1501 83.1 55.1001 82.63 55.0901 82.19C55.0701 81.29 55.1901 80.47 55.4001 79.66C55.6201 78.85 55.8901 78.08 56.4401 77.24C56.7401 76.75 57.2701 76.24 57.7601 76.03L58.4201 75.71L59.0101 75.52C60.1501 75.15 61.2001 74.91 62.2801 74.77C64.1601 74.54 66.02 74.56 67.88 74.63C69.73 74.71 71.58 74.88 73.42 75.2C74.24 75.34 75.0601 75.5 75.9101 75.75C76.3301 75.87 76.7501 76.01 77.1901 76.23C77.5901 76.37 78.1101 76.79 78.4701 77.12C80.1001 78.86 80.8401 81.28 80.3901 83.44C80.0701 84.12 79.9001 83.99 79.3301 83.47C79.0301 83.21 78.7501 82.87 78.4401 82.49C78.2901 82.3 78.1401 82.1 78.0001 81.9C77.9301 81.8 77.8701 81.69 77.7901 81.59C77.7501 81.48 77.7001 81.37 77.6601 81.26C77.3901 80.46 77.0001 79.76 76.5101 79.21L76.3201 79.01C76.3201 79.01 76.2401 78.99 76.2101 78.96C76.17 78.94 76.1701 78.92 76.1201 78.89L75.8901 78.8C75.6301 78.65 75.15 78.56 74.77 78.41C73.01 77.95 71 77.69 68.99 77.47C66.57 77.21 64.0101 77.53 61.6401 77.89C61.0001 78 60.3501 78.13 59.8001 78.31C59.6501 78.35 59.5101 78.39 59.4101 78.45C59.2901 78.5 59.1901 78.55 59.1201 78.57C58.9901 78.66 58.9601 78.69 58.8001 78.93C58.2601 79.85 57.8901 81.19 57.9101 82.32C57.9201 82.67 57.9601 83.01 58.0601 83.27C58.1201 83.48 58.2401 83.66 58.4401 83.74C58.5701 83.81 59.0001 83.94 59.3801 84.01C59.7701 84.09 60.1801 84.15 60.6001 84.21C63.1401 84.56 65.7901 84.57 68.3901 84.52C70.4201 84.48 72.4001 84.3 74.4401 84.25C74.8901 84.25 75.33 84.2 75.7801 84.27C76.6201 84.37 77.1801 84.47 77.5701 84.67C77.7501 84.79 77.9001 84.91 78.0101 85.03C78.1301 85.11 78.2101 85.21 78.2801 85.32C78.34 85.41 78.43 85.51 78.4601 85.59C78.51 85.72 78.3501 85.79 78.0501 85.86C77.9001 85.88 77.7001 85.96 77.4701 86.05C77.2301 86.16 76.9801 86.14 76.6901 86.19C74.9501 86.47 73.1401 86.48 71.2801 86.6C69.4201 86.69 67.5301 86.75 65.6201 86.77H63.4801C62.7601 86.8 62.0301 86.82 61.3001 86.82C60.5601 86.81 59.8101 86.81 59.0101 86.68C58.8101 86.66 58.6001 86.62 58.3901 86.57C58.1601 86.53 58.0101 86.48 57.6501 86.38C57.0001 86.16 56.3901 85.81 55.9901 85.26L56.0401 85.21L56.0101 85.19Z" fill="#231F20"/>
<path d="M70.5102 46.41C70.5102 46.41 70.0102 41.37 66.8202 42.15C63.9802 42.84 68.0402 36.24 69.1202 37.89C70.2102 39.54 71.1902 43.6 71.1902 43.6L70.4402 46.79" fill="#231F20"/>
<path d="M65.91 64.4C65.91 64.4 69.47 66.01 72.23 64.97C74.02 64.3 73.11 67.6 70.75 67.62C68.39 67.64 64.96 66.01 64.96 66.01L65.92 64.4H65.91Z" fill="#231F20"/>
<path d="M64.64 43.62C64.8 42.72 64.87 42.27 65.26 40.52C65.58 39.09 65.99 37.57 66.66 36.88C66.99 36.53 67.31 36.27 67.68 36.06C67.87 35.98 68.08 35.87 68.34 35.87C68.6 35.8 68.89 35.81 69.13 35.88C69.61 36.01 69.97 36.23 70.3 36.56C70.63 36.87 70.94 37.28 71.2 37.82C71.41 38.17 71.55 38.67 71.74 39.09C71.88 39.57 72.04 40.05 72.17 40.54L72.35 41.29C72.41 41.52 72.48 41.86 72.5 41.96C72.56 42.26 72.61 42.56 72.65 42.86C73.21 47.11 73.34 51.28 73.47 55.46C73.52 57.31 73.63 59.17 73.72 61C73.78 62.18 73.81 63.36 73.81 64.54C73.81 65.72 73.74 66.91 73.47 68.08C73.07 68.81 73.1 68.71 72.6 68.1C72.33 67.79 72.1 67.35 71.83 66.83C71.56 66.3 71.35 65.69 71.3 65.02C71.19 63.83 71.06 62.65 70.97 61.46L70.81 57.89C70.71 55.51 70.62 53.13 70.56 50.73C70.52 49.3 70.37 47.85 70.16 46.4C70.05 45.68 69.93 44.96 69.8 44.24C69.68 43.6 69.56 42.97 69.43 42.34C69.39 42.07 69.34 41.78 69.25 41.48C69.16 41.2 69.08 40.8 68.76 40.65C68.59 40.61 68.47 40.74 68.39 40.86C68.31 40.98 68.24 41.12 68.18 41.26C68.06 41.55 67.97 41.88 67.88 42.23C67.85 42.33 67.72 42.98 67.64 43.42L67.39 44.88C67.24 45.86 67.1 46.84 66.99 47.82C66.64 50.81 66.35 53.83 66.22 56.83C66.18 59.16 66.13 61.45 66.09 63.76C66.08 64.27 66.09 64.77 66.06 65.28C66.03 65.75 66 66.15 65.96 66.48C65.91 66.81 65.81 67.07 65.73 67.29C65.57 67.73 65.35 67.97 65.1 68.17C64.99 68.26 64.89 68.38 64.81 68.43C64.59 68.61 64.11 67.82 63.85 66.41C63.63 64.33 63.46 62.19 63.36 60.02C63.24 57.85 63.42 55.66 63.53 53.45C63.74 50.18 64.06 46.9 64.56 43.58H64.63L64.64 43.62Z" fill="#231F20"/>
<path d="M76.4199 74.37C76.4199 74.37 76.4799 74.37 76.5099 74.36C76.5299 74.34 76.5499 74.32 76.5699 74.29C76.5899 74.29 76.5999 74.17 76.6099 74.03C76.6199 73.75 76.5499 73.36 76.4299 72.97C76.2099 72.19 75.7799 71.33 75.2699 70.66C75.1699 70.52 75.0599 70.4 74.9599 70.31C74.8699 70.26 74.7899 70.2 74.6999 70.13C74.4199 70.01 74.1699 69.87 73.8099 69.76C72.6199 69.32 71.1599 69.04 69.6999 68.93C68.2399 68.81 66.7399 68.82 65.2799 68.98C63.9999 69.13 62.6799 69.48 61.7199 70.02C61.2399 70.28 60.6799 71 60.3299 71.57C60.1699 71.87 60.0199 72.14 59.8899 72.45C59.7599 72.76 59.7099 73.12 59.5699 73.56C59.2599 74.11 59.0899 74.04 58.5099 73.59C58.2099 73.36 57.9299 73.03 57.7099 72.5C57.5199 71.99 57.3899 71.21 57.7099 70.56C57.9599 69.98 58.2899 69.5 58.6199 69.06C58.7899 68.84 58.9599 68.64 59.1299 68.44C59.3399 68.22 59.6499 67.97 59.9299 67.75C60.9999 67.04 61.9799 66.71 62.9599 66.46C64.9099 66.01 66.8199 65.93 68.7299 66.07C69.8699 66.15 71.0299 66.23 72.2099 66.36C73.3899 66.5 74.6099 66.73 75.8599 67.39C76.1899 67.54 76.5599 67.84 76.8899 68.12C77.2099 68.4 77.4099 68.69 77.6299 68.97C78.0399 69.55 78.3799 70.14 78.6699 70.76C78.9499 71.39 79.1899 72.05 79.3099 72.77C79.4199 73.51 79.4999 74.24 79.1899 75.17C79.0499 75.53 78.8799 75.87 78.6399 76.16C78.3299 76.51 77.8999 76.73 77.4499 76.86C77.2199 76.91 76.9799 76.98 76.7599 76.99C76.5699 77.01 76.3999 77.03 76.2299 77.03C75.5499 77.06 74.8999 77.05 74.2699 77C71.9599 76.8 69.7199 76.51 67.4799 76.36C65.7499 76.23 64.0399 76.24 62.3499 76.27C61.9799 76.27 61.6199 76.32 61.2499 76.27C60.5699 76.21 60.1399 76.2 59.8199 76.08C59.6599 75.99 59.5299 75.92 59.4099 75.84C59.2999 75.79 59.2099 75.73 59.1199 75.66C59.0399 75.6 58.9299 75.54 58.8799 75.49C58.7799 75.39 58.8599 75.27 59.1099 75.08C59.2399 75 59.3899 74.88 59.5899 74.72C59.7799 74.56 60.0399 74.52 60.2999 74.44C60.6999 74.34 61.1099 74.25 61.5099 74.17C61.9199 74.09 62.3199 74.09 62.7299 74.07C63.5399 74.03 64.3499 74.04 65.1699 74.06C66.7899 74.1 68.4199 74.22 70.0299 74.34C70.6299 74.38 71.2299 74.44 71.8199 74.46L73.5899 74.44L75.2899 74.37C75.7799 74.37 76.5099 74.24 76.3499 74.27L76.3799 74.33L76.4199 74.37Z" fill="#231F20"/>
<path d="M36.9998 25.58C37.1698 25.67 37.0598 25.91 36.8198 26.21C36.7398 26.31 36.4498 26.49 36.3798 26.48C36.2398 26.46 36.0998 26.44 35.9798 26.4C35.9098 26.37 35.1498 25.79 34.8498 25.63C34.5598 25.47 34.3498 25.25 34.1698 25.02C33.7898 24.55 33.3898 24.1 32.9998 23.64C32.9098 23.54 32.8498 23.42 32.8098 23.29C32.6598 22.84 32.4098 22.45 32.0898 22.12C32.0398 22.06 31.9998 21.99 31.8898 21.99C31.6998 21.98 30.9398 21 30.8998 20.83C30.7998 20.41 30.6398 20.03 30.4998 19.63C30.4798 19.57 30.4098 19.55 30.4698 19.44C30.5898 19.19 30.4898 19.11 30.4398 19C30.3698 18.84 30.2898 18.68 30.2598 18.48C30.2598 18.37 30.3298 18.21 30.3698 18.07C30.4098 17.94 30.6698 17.79 30.7198 17.78C30.8498 17.78 30.9298 17.63 31.0298 17.54C31.0598 17.51 31.1098 17.47 31.1398 17.45C31.2398 17.38 32.4498 17.71 32.5098 17.81C32.5098 17.81 32.7798 18.09 33.0698 18.37C33.3498 18.65 33.6398 18.95 33.7098 19C33.7798 19.06 33.7898 19.16 33.8098 19.26C33.8198 19.3 34.6798 20.14 34.6998 20.18C34.8198 20.4 35.0398 20.54 34.9998 20.87C34.9998 20.93 35.0298 20.97 35.0598 21.01C35.3298 21.33 35.4698 21.75 35.6498 22.14C35.7398 22.34 35.8798 22.51 35.9898 22.69C36.0098 22.72 35.9998 22.77 36.0098 22.81C36.0198 22.86 36.0198 22.92 36.0498 22.96C36.3198 23.39 36.5298 23.86 36.7998 24.29C36.8598 24.39 36.9298 25.01 37.0098 25.12C37.0498 25.18 36.9398 25.55 37.0098 25.58H36.9998Z" fill="#231F20"/>
<path d="M79.8301 18.6C79.9401 18.75 79.7401 18.91 79.4001 19.11C79.2901 19.17 78.9501 19.23 78.8801 19.19C78.7601 19.11 78.6301 19.02 78.5301 18.92C78.4601 18.87 78.0101 17.84 77.8301 17.47C77.6801 17.12 77.5501 16.75 77.5601 16.39C77.5601 15.66 77.5601 14.94 77.6401 14.22C77.6501 14.06 77.7001 13.91 77.7801 13.76C78.0401 13.26 78.1501 12.74 78.2401 12.21C78.2501 12.12 78.2901 12.04 78.2201 11.93C78.0801 11.74 78.5201 10.35 78.6701 10.2C79.0401 9.84 79.3601 9.47 79.7001 9.13C79.7501 9.08 79.7601 9.01 79.9001 9.01C80.2201 9.01 80.2401 8.86 80.3401 8.75C80.5001 8.61 80.6701 8.48 80.8501 8.36C80.9401 8.3 81.1001 8.28 81.2301 8.24C81.3501 8.21 81.5501 8.36 81.5701 8.4C81.6101 8.51 81.7601 8.51 81.8601 8.55C81.9001 8.56 81.9401 8.58 81.9701 8.6C82.0001 8.62 82.0601 8.94 82.1701 9.3C82.3001 9.67 82.3801 10.01 82.3701 10.06C82.3801 10.08 82.3101 10.46 82.2501 10.85C82.1901 11.23 82.1301 11.64 82.1201 11.74C82.1201 11.83 82.0201 11.89 81.9501 11.95C81.9101 11.98 81.7601 13.14 81.7501 13.18C81.6401 13.4 81.6901 13.65 81.3801 13.81C81.3201 13.84 81.3201 13.89 81.3101 13.94C81.2301 14.34 81.0201 14.71 80.8801 15.09C80.8001 15.29 80.7901 15.49 80.7501 15.7C80.7501 15.74 80.7001 15.77 80.6801 15.8C80.6501 15.84 80.6101 15.89 80.6101 15.93C80.5901 16.17 80.5201 16.41 80.4801 16.65C80.4201 16.89 80.3601 17.13 80.3601 17.37C80.3501 17.48 80.0601 18.03 80.0901 18.16C80.0901 18.23 79.8101 18.5 79.8601 18.57L79.8301 18.6Z" fill="#231F20"/>
<path d="M97.6801 23.24C97.6801 23.43 97.4301 23.49 97.1001 23.5C96.9901 23.5 96.7301 23.39 96.7001 23.33C96.6601 23.2 96.6101 23.07 96.5801 22.94C96.5801 22.87 96.6301 21.74 96.7201 21.38C96.7801 21.02 96.8901 20.68 97.0401 20.36C97.3301 19.71 97.5901 19.03 97.9701 18.42C98.0501 18.28 98.1501 18.16 98.2801 18.05C98.7101 17.68 99.0201 17.24 99.3101 16.77C99.3601 16.69 99.4301 16.63 99.4101 16.5C99.3801 16.29 100.31 15.1 100.51 15.02C100.96 14.77 101.36 14.48 101.82 14.27C101.89 14.24 101.92 14.17 102.04 14.21C102.32 14.3 102.4 14.18 102.53 14.1C102.7 13.98 102.91 13.92 103.13 13.87C103.24 13.85 103.4 13.89 103.54 13.91C103.67 13.93 103.81 14.2 103.81 14.25C103.81 14.38 103.95 14.46 104.03 14.55C104.06 14.58 104.1 14.63 104.11 14.66C104.13 14.73 103.8 15.97 103.73 16.03C103.71 16.03 103.5 16.36 103.24 16.66C102.98 16.96 102.74 17.31 102.69 17.38C102.64 17.46 102.54 17.49 102.46 17.53C102.41 17.54 101.76 18.57 101.73 18.61C101.55 18.79 101.46 19.03 101.14 19.11C101.08 19.13 101.06 19.17 101.03 19.22C100.79 19.58 100.47 19.89 100.18 20.23C100.04 20.41 99.9301 20.6 99.7901 20.78C99.7701 20.81 99.7201 20.83 99.6801 20.86C99.6401 20.89 99.5901 20.92 99.5601 20.97C99.2701 21.42 98.9001 21.82 98.6801 22.32C98.6501 22.38 98.5301 22.51 98.4001 22.65C98.2501 22.78 98.1101 22.92 98.0801 22.98C98.0401 23.05 97.6801 23.18 97.6801 23.26V23.24Z" fill="#231F20"/>
<path d="M91.5798 94.7C90.0998 92.03 93.1798 87.07 94.1498 86.42C94.1498 86.42 90.8698 85.7 89.2998 87.24C87.7298 88.78 87.0198 93.22 88.1698 94.7C89.3098 96.18 91.5898 94.7 91.5898 94.7H91.5798Z" fill="#231F20"/>
<path d="M91.2899 104.85C90.0299 103.38 90.8799 100.03 91.9799 96.85C91.9799 96.85 89.7099 95.94 87.9299 97.93C86.1499 99.92 86.2499 104.74 87.1399 105.24C88.0299 105.75 91.2899 104.85 91.2899 104.85Z" fill="#231F20"/>
<path d="M88.61 106.27L88.15 106.22C87.95 106.2 87.77 106.17 87.59 106.12C87.41 106.06 87.22 106.05 87.06 105.96C86.91 105.87 86.75 105.79 86.6 105.68C86.01 105.25 85.64 104.6 85.36 103.88C84.99 102.65 85.04 101.68 85.16 100.71C85.3 99.75 85.57 98.86 85.97 97.96C86.2 97.5 86.37 97.09 86.88 96.51C87.12 96.25 87.38 96.01 87.71 95.84C88 95.66 88.22 95.59 88.47 95.48C89.82 94.98 91.02 94.72 92.25 94.56C94.4 94.3 96.52 94.29 98.63 94.34C100.74 94.4 102.84 94.54 104.95 94.82C106.83 95.11 108.68 95.25 110.66 96.2C110.82 96.29 110.99 96.4 111.15 96.51C111.31 96.64 111.51 96.82 111.63 96.95C111.85 97.2 112.06 97.46 112.25 97.73C112.63 98.27 112.95 98.86 113.19 99.47C113.44 100.08 113.59 100.72 113.65 101.36C113.7 102 113.73 102.64 113.6 103.26C113.28 104.04 113.11 103.89 112.54 103.3C112.24 103.01 111.95 102.62 111.62 102.19C111.46 101.98 111.3 101.75 111.14 101.53C111.06 101.42 111 101.3 110.91 101.19C110.86 101.07 110.8 100.95 110.75 100.82C110.57 100.37 110.35 99.96 110.09 99.58C109.96 99.39 109.82 99.21 109.68 99.04L109.57 98.91L109.51 98.85L109.48 98.82V98.8H109.46C109.98 98.34 109.6 98.67 109.71 98.57L109.7 98.59C109.62 98.65 109.55 98.71 109.49 98.78C109.43 98.84 109.47 98.8 109.46 98.81C109.46 98.81 109.46 98.81 109.42 98.79C109.24 98.68 108.8 98.5 108.32 98.37C107.84 98.24 107.32 98.13 106.78 98.02C104.62 97.6 102.28 97.37 99.94 97.18C97.14 96.96 94.17 97.28 91.45 97.72C90.71 97.85 89.97 98.02 89.42 98.24C89.25 98.3 89.21 98.34 89.15 98.37C89.09 98.41 89.04 98.46 88.99 98.53C88.85 98.72 88.68 99.03 88.55 99.33C88.28 99.95 88.09 100.66 87.99 101.34C87.93 101.68 87.92 102.02 87.93 102.33C87.93 102.64 88.01 102.98 88.06 103.09C88.22 103.62 88.61 103.52 89.73 103.66C90.7 103.75 91.69 103.78 92.67 103.84C95.67 104.02 98.7 104.04 101.7 103.99C104.03 103.96 106.31 103.8 108.64 103.77C109.15 103.77 109.65 103.73 110.17 103.79C111.13 103.89 111.77 103.99 112.21 104.19C112.42 104.32 112.59 104.43 112.73 104.55C112.87 104.64 112.97 104.73 113.06 104.84C113.14 104.94 113.24 105.04 113.28 105.11C113.34 105.24 113.16 105.31 112.83 105.37C112.66 105.4 112.44 105.46 112.17 105.56C111.9 105.67 111.61 105.66 111.27 105.7C109.25 105.98 107.16 105.98 105.02 106.08C102.89 106.15 100.72 106.2 98.54 106.23L96.11 106.26L93.67 106.38C92.02 106.46 90.42 106.46 88.65 106.34V106.27H88.61Z" fill="#231F20"/>
<path d="M101.63 40.85C101.63 40.85 98.96 40.04 97.63 47.44C96.62 53.03 96.82 41.07 98.44 38.77C100.07 36.47 100.82 37.87 100.82 37.87L101.63 40.84V40.85Z" fill="#231F20"/>
<path d="M96.8198 75.05C96.8198 75.05 103.24 75.92 103.83 72.68V77.12L95.5298 76.65L96.8098 75.05H96.8198Z" fill="#231F20"/>
<path d="M95.6601 45.2C95.8201 44.13 96.0101 43.06 96.2401 41.98L96.3301 41.57C96.3601 41.42 96.3901 41.35 96.4301 41.09C96.5301 40.61 96.6601 40.13 96.7701 39.66C96.8901 39.19 97.1001 38.8 97.2601 38.37C97.4301 37.94 97.6501 37.63 97.8401 37.26C98.3001 36.69 98.7601 36.24 99.3401 36C99.6401 35.89 99.9601 35.8 100.34 35.82C100.71 35.86 101.03 35.97 101.29 36.12C101.82 36.43 102.27 36.91 102.66 37.6C103.05 38.28 103.34 39.16 103.57 40.05C103.94 41.54 104.02 42.04 104.19 42.88C104.33 43.66 104.46 44.43 104.54 45.21C105.11 50.69 105.23 56.12 105.32 61.54C105.38 63.95 105.44 66.36 105.5 68.75C105.54 70.28 105.54 71.82 105.51 73.36C105.48 74.9 105.37 76.44 105.06 77.96C104.63 78.9 104.67 78.77 104.19 77.96C103.93 77.55 103.71 76.97 103.47 76.28C103.21 75.59 103.02 74.78 102.99 73.91L102.74 69.26L102.63 64.61C102.56 61.51 102.5 58.4 102.43 55.27C102.36 51.53 101.84 47.66 101.24 43.96C101.09 43 100.82 41.69 100.79 41.57C100.7 41.2 100.62 40.76 100.33 40.43C100.15 40.25 99.9201 40.4 99.8101 40.55C99.6901 40.71 99.5901 40.89 99.5101 41.09C99.4301 41.29 99.3601 41.5 99.3001 41.71L99.2501 41.88L99.1701 42.21C99.1101 42.46 99.0501 42.7 99.0101 42.96C98.5101 45.44 98.1901 48.02 97.9501 50.59C97.5901 54.49 97.3201 58.44 97.2201 62.35C97.2001 65.39 97.1801 68.37 97.1701 71.38C97.1701 72.04 97.1701 72.69 97.1501 73.36C97.1301 73.98 97.1001 74.49 97.0601 74.92C97.0101 75.35 96.9101 75.7 96.8401 75.98C96.6901 76.55 96.4701 76.88 96.2201 77.14C96.1101 77.26 96.0101 77.42 95.9301 77.49C95.7101 77.72 95.2301 76.7 94.9501 74.88C94.7101 72.18 94.5201 69.41 94.3901 66.6C94.3001 65.19 94.3301 63.78 94.3601 62.35C94.3901 60.93 94.4301 59.5 94.5001 58.07C94.6901 53.81 94.9901 49.54 95.5701 45.23H95.6401L95.6601 45.2Z" fill="#231F20"/>
<path d="M108.71 84.43C108.77 84.45 108.87 84.43 108.91 84.36C108.92 84.34 108.93 84.32 108.94 84.3C108.94 84.29 108.94 84.26 108.95 84.15C108.94 83.95 108.91 83.73 108.85 83.5C108.63 82.55 108.11 81.41 107.52 80.59C107.43 80.43 107.27 80.38 107.32 80.27C107.12 80.27 107.01 80.12 106.86 80.05C106.57 79.87 106.2 79.73 105.84 79.57C103.17 78.49 99.7898 78.12 96.6398 78.36C95.2498 78.48 93.7998 78.78 92.6998 79.34C92.5498 79.44 92.3298 79.51 92.2398 79.62C92.1198 79.73 92.0098 79.78 91.8598 79.98C91.5698 80.3 91.2998 80.63 91.0598 80.96C90.8398 81.3 90.6298 81.61 90.4398 81.93C90.2498 82.25 90.1498 82.61 89.9998 83.02C89.6798 83.55 89.5098 83.53 88.9498 83C88.6698 82.73 88.4198 82.31 88.2898 81.71C88.2298 81.41 88.2098 81.08 88.2498 80.74C88.2698 80.57 88.3098 80.4 88.3398 80.22C88.3998 80.05 88.4798 79.9 88.5598 79.75C88.8698 79.21 89.2098 78.75 89.5598 78.33L89.8298 78.02L89.9698 77.87L90.1798 77.68C90.4698 77.44 90.7998 77.14 91.0598 77.02C92.2098 76.34 93.2398 76.06 94.2998 75.84C96.3998 75.45 98.4498 75.41 100.5 75.63C101.72 75.79 102.96 75.88 104.23 76.12C105.49 76.36 106.78 76.65 108.02 77.36C108.36 77.55 108.7 77.81 109.02 78.04C109.44 78.38 109.68 78.73 109.9 79.04C110.34 79.67 110.67 80.3 110.96 80.97C111.24 81.64 111.49 82.33 111.62 83.1C111.69 83.49 111.73 83.87 111.71 84.33C111.68 84.83 111.57 85.33 111.35 85.78C111.08 86.32 110.63 86.78 110.03 86.94C109.47 87.13 108.75 87.15 108.38 87.13C107.5 87.1 106.69 87.01 105.88 86.89C103.45 86.49 101.06 86.14 98.6698 86.06C96.8098 85.99 94.9998 86.15 93.2098 86.38C92.8198 86.44 92.4298 86.52 92.0298 86.53C91.2898 86.56 90.7998 86.6 90.4298 86.51C90.2398 86.44 90.0898 86.38 89.9598 86.31C89.8398 86.27 89.7298 86.21 89.6298 86.14C89.5398 86.08 89.4298 86.03 89.3698 85.97C89.2698 85.87 89.3698 85.75 89.6198 85.57C89.7498 85.49 89.9098 85.36 90.0998 85.19C90.2898 85.01 90.5398 84.97 90.8198 84.85C91.2298 84.7 91.6498 84.57 92.0698 84.44C92.4898 84.32 92.9298 84.26 93.3598 84.19C94.2298 84.06 95.1198 83.98 96.0098 83.93C97.7998 83.84 99.5998 83.91 101.38 84.04L103.36 84.21L105.32 84.3L107.22 84.39C107.53 84.41 107.82 84.42 108.1 84.42C108.35 84.42 108.74 84.39 108.65 84.4L108.67 84.47L108.71 84.43Z" fill="#231F20"/>
<path d="M87.71 96.11C87.19 95.71 86.93 95.07 86.7 94.46C86.56 94.17 86.55 93.74 86.51 93.54L86.48 92.83C86.5 91.92 86.66 91.1 86.87 90.32C87.08 89.53 87.37 88.79 87.72 88.06C87.9 87.69 88.1 87.32 88.34 86.95C88.56 86.62 88.99 86.04 89.5 85.7C89.64 85.61 89.81 85.54 89.94 85.47C91.29 84.85 92.39 84.62 93.54 84.47C95.55 84.23 97.51 84.28 99.46 84.37C101.41 84.48 103.34 84.67 105.28 85.01C106.14 85.17 107 85.33 107.87 85.55C108.74 85.8 109.61 86.03 110.53 86.66C112.65 88.36 113.41 90.96 112.97 93.24C112.65 93.95 112.48 93.82 111.92 93.27C111.62 93 111.35 92.63 111.03 92.23C110.88 92.03 110.72 91.83 110.58 91.61C110.43 91.4 110.3 91.19 110.22 90.96C109.93 90.16 109.44 89.41 108.93 88.97C108.89 88.96 108.85 88.94 108.82 88.91C108.8 88.9 108.8 88.88 108.77 88.87L108.64 88.82C108.46 88.75 108.32 88.67 108.11 88.6C107.68 88.47 107.25 88.33 106.76 88.22C104.84 87.74 102.7 87.44 100.58 87.19C98.04 86.92 95.29 87.15 92.85 87.57L92.33 87.66L91.86 87.79C91.52 87.86 91.29 88.01 91.1 88.06C91.01 88.14 90.97 88.14 90.86 88.31C90.74 88.46 90.62 88.67 90.5 88.86C90.27 89.28 90.06 89.73 89.88 90.2C89.54 91.13 89.24 92.13 89.23 93.01C89.22 93.44 89.26 93.55 89.33 93.77C89.39 94 89.62 94.1 89.83 94.12C89.96 94.14 90.01 94.15 90.21 94.14C90.41 94.14 90.63 94.14 90.84 94.13L92.17 94.02C94.91 93.77 97.73 93.37 100.53 93.31C102.71 93.25 104.9 93.3 107.08 93.81C107.56 93.91 108.03 94.03 108.49 94.23C109.33 94.61 109.86 94.93 110.17 95.24C110.31 95.42 110.41 95.59 110.48 95.74C110.57 95.86 110.62 95.99 110.66 96.1C110.7 96.21 110.76 96.33 110.76 96.41C110.77 96.55 110.6 96.57 110.27 96.53C109.95 96.46 109.37 96.55 108.81 96.34C108.37 96.24 107.93 96.14 107.48 96.08L106.16 95.81C105.27 95.66 104.36 95.56 103.44 95.5C101.6 95.38 99.69 95.48 97.77 95.67C97.06 95.75 96.34 95.83 95.61 95.94L93.43 96.37C92.69 96.51 91.95 96.68 91.13 96.75L90.5 96.8H90.15C90 96.82 89.8 96.82 89.63 96.8C88.91 96.76 88.19 96.61 87.66 96.15L87.7 96.09L87.71 96.11Z" fill="#231F20"/>
</svg>
