<svg width="128" height="128" viewBox="0 0 128 128" fill="none" xmlns="http://www.w3.org/2000/svg">
<path d="M30.3901 71.86C30.1701 72.25 26.0902 73.6 25.8602 82.26C25.8602 82.26 24.1401 74.93 25.1601 72.28L30.4001 71.87L30.3901 71.86Z" fill="#231F20"/>
<path d="M26.2099 82.78C26.2299 83.54 26.2399 84.3 26.3399 85.06L26.4599 86.2L26.6599 87.33C26.7399 87.89 26.9099 88.42 27.0399 88.97C27.4099 90.93 27.9799 92.87 28.7799 94.71C29.1199 95.54 29.6099 96.29 30.0999 97.02C30.4599 97.45 30.7099 97.97 31.0299 98.43L31.2499 98.79L31.4199 99.2C31.5499 99.46 31.6799 99.72 31.8099 100C31.9699 100.35 31.8999 100.37 31.5199 100.32C31.2399 100.28 30.9499 100.24 30.6999 100.21C30.5299 100.18 30.3199 100.15 30.1499 100.1C30.0499 100.08 29.9699 100.04 29.8599 100.02L29.6399 99.86C29.3799 99.66 29.0999 99.46 28.8699 99.24L28.5099 98.91L28.2299 98.52C27.8299 98.01 27.5399 97.45 27.2099 96.91C26.5999 95.8 26.0999 94.64 25.7299 93.43C25.4899 92.71 25.2699 91.99 24.9699 91.28C24.6999 90.56 24.4599 89.83 24.2299 89.1C23.7999 87.47 23.5699 85.79 23.4399 84.12C23.3699 83.09 23.3199 82.06 23.3599 81.02C23.3599 80.63 23.3599 80.24 23.3799 79.85L23.4899 78.68C23.5299 78.29 23.5499 77.9 23.5899 77.51L23.7599 76.35C23.8699 75.15 24.0099 73.95 24.2299 72.75C24.2999 72.49 24.3499 72.23 24.4399 71.98C24.5699 71.49 24.8699 71.25 25.0799 71.09C25.3099 70.93 25.5599 70.9 25.8799 70.92C26.0199 70.93 26.1699 70.92 26.2899 70.95C26.6799 71.02 26.9799 71.57 27.0599 72.3C26.9899 74.34 26.6599 76.25 26.4299 78.25C26.3099 79.74 26.2099 81.25 26.3099 82.76H26.2399L26.2099 82.78Z" fill="#231F20"/>
<path d="M101.93 86.13C101.93 86.13 102.43 80.14 99.7798 77.95L104.36 78.58V83.95L101.92 86.14L101.93 86.13Z" fill="#231F20"/>
<path d="M104.75 85.62C104.51 86.73 104.26 87.83 103.94 88.92C103.84 89.32 103.8 89.73 103.65 90.13C103.42 90.83 103.14 91.51 102.84 92.17C102.51 92.83 102.17 93.47 101.81 94.1L101.35 94.94C101.2 95.22 101.08 95.51 100.88 95.77C100.65 96.11 100.44 96.45 100.2 96.77C99.97 97.11 99.55 97.31 99.23 97.57C99.01 97.72 99 97.67 98.97 97.4C98.95 97.27 98.92 97.07 98.88 96.83C98.85 96.69 98.83 96.56 98.81 96.46C98.8 96.39 98.8 96.34 98.77 96.26C98.78 96.2 98.8 96.15 98.81 96.1C98.92 95.72 98.99 95.32 99.09 94.95L99.23 94.39L99.45 93.87C99.74 93.18 100.05 92.5 100.38 91.81C100.81 90.99 100.94 90.03 101.15 89.12C101.38 88.11 101.61 87.09 101.76 86.04C101.87 85.4 101.95 84.75 102.02 84.09C102.11 83.1 102.22 82.1 102.19 81.1C102.19 80.32 101.99 79.56 101.91 78.78C101.91 78.61 101.87 78.44 101.89 78.27C101.9 78.11 101.93 77.98 101.97 77.87C102.02 77.76 102.12 77.67 102.21 77.6C102.39 77.46 102.62 77.38 102.92 77.31C103.06 77.28 103.19 77.24 103.31 77.23C103.71 77.18 104.13 77.45 104.52 77.92C104.68 78.27 104.84 78.62 104.97 78.97C105.06 79.33 105.12 79.68 105.17 80.05C105.27 80.78 105.3 81.51 105.23 82.26C105.16 83.36 104.98 84.48 104.82 85.6H104.75V85.62Z" fill="#231F20"/>
<path d="M97.9302 64.14C97.9302 64.14 98.7402 60 95.2002 54.09C95.2002 54.09 99.8102 58 100.83 60.91C101.85 63.82 101.1 65.91 101.1 65.91L97.9402 64.14H97.9302Z" fill="#231F20"/>
<path d="M35.4599 58.14C34.3699 55.24 39.8299 47.86 43.8299 45.08C43.8299 45.08 36.7199 47.05 33.9399 52.2C33.0599 53.84 32.8999 54.94 32.8999 54.94L35.4499 58.14H35.4599Z" fill="#231F20"/>
<path d="M111.02 66.49C112.15 67.93 112.53 69.41 112.72 70.9C112.75 71.45 112.87 71.99 112.8 72.55C112.73 73.52 112.43 74.49 111.98 75.37C111.52 76.26 110.82 76.99 110.04 77.55C109.69 77.8 109.31 77.99 108.95 78.19C108.57 78.36 108.17 78.46 107.79 78.6C107.3 78.75 106.79 78.81 106.29 78.89C106.04 78.93 105.79 78.89 105.53 78.84C105.28 78.81 105.03 78.74 104.79 78.62C104.49 78.47 104.54 78.42 104.78 78.15C105.03 77.86 105.43 77.29 105.9 77.14L107.08 76.7C107.41 76.48 107.8 76.36 108.07 76.12C108.75 75.83 109.26 75.37 109.77 74.82C110.37 74.12 110.46 73.04 110.43 72.05C110.4 70.94 110.11 69.77 109.57 68.83C109.26 68.3 108.76 67.78 108.17 67.34C107.31 66.68 106.28 66.16 105.26 66.16C104.46 66.13 103.76 66.46 103.14 66.91C102.99 66.98 102.88 67.13 102.74 67.23C102.21 67.61 101.98 67.72 101.53 67.53C101.43 67.49 101.32 67.47 101.23 67.42C100.92 67.27 100.91 66.85 101.21 66.26C101.69 65.42 102.46 64.59 103.56 64.12C104.1 63.88 104.7 63.72 105.29 63.69C105.89 63.69 106.48 63.76 107.03 63.92C108.68 64.39 109.96 65.27 111.08 66.44L111.04 66.49H111.02Z" fill="#231F20"/>
<path d="M27.6802 55.15C26.9802 55.32 26.2402 55.65 25.6802 56.18C25.4702 56.37 25.3502 56.62 25.2002 56.8C24.6502 57.5 24.2702 58.58 24.1902 59.68C24.1302 60.17 24.2102 60.67 24.3402 61.13C24.4202 61.42 24.5002 61.72 24.5802 62.01C24.6902 62.28 24.6202 62.65 24.6702 62.99C24.6702 63.22 24.4902 63.36 24.0902 63.41C23.8902 63.43 23.6202 63.43 23.3302 63.38C23.1902 63.35 23.0402 63.32 22.9002 63.26C22.8202 63.23 22.7502 63.2 22.6802 63.17C22.6402 63.12 22.5902 63.08 22.5502 63.03C22.2802 62.66 22.0302 62.27 21.8702 61.85C21.7402 61.43 21.6702 61 21.6302 60.56C21.5302 59.7 21.7002 58.83 22.0102 58.02C22.3802 57.07 22.6302 56 23.3402 55.1C24.1102 54.2 25.0202 53.54 26.0402 53.07C26.6602 52.77 27.3302 52.59 28.0102 52.48C29.0402 52.31 30.0902 52.44 31.0702 52.66C31.4502 52.76 31.8402 52.82 32.2102 52.93C32.6002 53.02 32.9702 53.14 33.3302 53.3C33.4902 53.37 33.6702 53.4 33.8002 53.52C34.2902 53.93 34.3302 54.21 34.0502 54.76C33.9902 54.89 33.9302 55.01 33.8602 55.13C33.6202 55.51 33.1902 55.69 32.7602 55.66C32.1102 55.64 31.6202 55.46 31.1102 55.37C30.6202 55.26 30.1702 55.16 29.7202 55.08C29.0602 54.99 28.3702 54.99 27.6802 55.21L27.6602 55.15H27.6802Z" fill="#231F20"/>
<path d="M13.0101 68.56C12.5801 67.77 12.2701 66.86 12.3201 65.96C12.2801 65.5 12.4201 65.1 12.4801 64.68C12.5701 64.27 12.7401 63.91 12.8801 63.53C13.1201 62.96 13.4301 62.38 13.8501 61.96C15.2901 60.43 17.4201 59.7 19.4301 60.02C20.3101 60.19 21.1701 60.47 21.8901 60.97C22.3301 61.3 22.7901 61.62 23.1301 62.04C23.4801 62.46 23.6801 62.97 23.8601 63.46C23.9701 63.77 23.7701 63.84 23.3801 63.79C22.9901 63.75 22.4001 63.61 21.9001 63.43C21.7001 63.33 21.5701 63.15 21.3801 63.06L20.8601 62.75C20.5001 62.59 20.1601 62.46 19.8401 62.32C19.1701 62.07 18.4401 61.98 17.6301 62.09C16.6701 62.25 15.7601 62.95 15.1901 63.73C14.8801 64.12 14.6601 64.67 14.5101 65.21C14.4601 65.48 14.3801 65.75 14.4001 66.01C14.3701 66.28 14.4301 66.53 14.4901 66.79C14.6701 67.41 15.0801 68 15.6401 68.49C16.5101 69.22 17.6201 69.77 18.7901 70.1C19.7001 70.36 20.6401 70.4 21.5701 70.49C21.7701 70.52 21.9801 70.52 22.1801 70.56C22.9401 70.66 23.1601 70.98 23.3001 71.33C23.3301 71.42 23.3801 71.5 23.4001 71.58C23.4601 71.83 23.1201 72.06 22.4901 72.28C22.0301 72.35 21.5701 72.41 21.0901 72.44C20.6201 72.42 20.1501 72.39 19.6701 72.31C18.7201 72.18 17.7601 71.91 16.8101 71.54C15.4201 70.97 13.9701 70.12 12.9501 68.59L12.9901 68.56H13.0101Z" fill="#231F20"/>
<path d="M79.8498 42.42C75.8698 40.73 71.5398 39.79 67.1498 39.61C66.3498 39.54 65.5398 39.57 64.7398 39.61L63.5298 39.65L62.3298 39.74C59.4998 39.91 56.6898 40.34 53.9498 41.09C51.2198 41.85 48.5698 42.93 46.0798 44.32C43.8798 45.56 41.7998 47.07 39.9598 48.79C39.3498 49.32 38.8098 49.93 38.2298 50.5C37.6598 51.07 37.1598 51.72 36.5798 52.29C36.0098 52.87 35.4998 53.5 34.9298 54.08C34.3898 54.69 33.6598 55.15 33.0198 55.7C32.1598 56.34 32.1898 56.2 32.3598 55.24C32.4398 54.76 32.5298 54.04 32.6498 53.16C32.8598 52.35 33.3398 51.56 33.9198 50.75C38.3998 45.33 44.5498 41.13 51.3598 39.11C55.4198 37.91 59.7298 36.95 64.0298 36.85C68.7398 36.72 73.5098 37.28 78.0198 38.72C78.7198 38.91 79.3998 39.17 80.0798 39.45C80.7498 39.73 81.4398 39.96 82.0998 40.28C83.3998 40.93 84.7198 41.54 85.9398 42.34C89.7098 44.62 92.9998 47.65 95.7098 51.05C97.7998 53.71 99.6598 56.49 101.13 59.53C101.44 60.2 101.73 60.87 102.01 61.56C103.05 64.14 102.87 65.13 102.24 65.88C102.12 66.05 102.04 66.25 101.96 66.34C101.81 66.51 101.6 66.34 101.12 65.97C100.61 65.61 100.22 64.95 99.8798 64.06C97.6698 58.88 94.7398 53.75 90.5698 49.67L90.0098 49.09L89.3998 48.56L88.1798 47.49C87.3498 46.8 86.4498 46.2 85.5798 45.55C84.6398 45.01 83.7498 44.38 82.7798 43.89C81.7998 43.43 80.8598 42.87 79.8298 42.51L79.8498 42.44V42.42Z" fill="#231F20"/>
<path d="M13.4698 67.38C13.7598 68.15 14.4698 68.91 15.4498 69.42C16.4198 69.94 17.6398 70.28 18.9298 70.46C19.8698 70.59 20.8498 70.57 21.8298 70.61C25.3198 70.74 28.9598 70.55 32.6298 70.47C34.2598 70.43 35.9098 70.4 37.5498 70.5C38.6098 70.57 39.6798 70.67 40.7398 70.91C41.7898 71.2 42.8198 71.71 43.6398 72.45C44.1498 72.92 43.9598 72.99 43.3398 73.01C43.0398 73.01 42.5998 73.06 42.1198 73.14C41.6398 73.21 41.1298 73.24 40.5798 73.24C38.7198 72.99 36.7298 73.05 34.7198 73.18C32.6998 73.21 30.6198 73.31 28.4998 73.32C25.9698 73.33 23.3198 73.72 20.6198 73.62C19.1398 73.56 17.6198 73.39 16.1098 72.97C14.6098 72.55 13.0498 71.85 11.8598 70.6C11.1198 69.87 10.5398 68.89 10.2498 67.86C9.94982 66.83 9.95982 65.75 10.1598 64.75C10.7898 61.71 13.3098 59.27 16.3298 58.78C18.6698 58.37 21.0098 59.11 22.8798 60.31C23.2998 60.57 23.7098 60.83 24.0798 61.14C25.4398 62.34 25.5498 63.01 25.1898 63.78C25.1198 63.95 25.0798 64.12 25.0098 64.24C24.8298 64.59 23.8098 64.56 22.8998 63.91C22.1998 63.44 21.5198 63 20.8298 62.61C20.1298 62.25 19.4398 61.96 18.7598 61.79C17.3998 61.45 16.1398 61.65 15.0898 62.4C14.3398 62.97 13.7398 63.82 13.4598 64.74C13.1798 65.66 13.2198 66.58 13.5398 67.33L13.4698 67.37V67.38Z" fill="#231F20"/>
<path d="M31.1399 55.06C30.0999 54.34 28.7999 54.01 27.4999 54.18C27.0299 54.25 26.5799 54.44 26.1499 54.63C24.5799 55.24 23.2799 56.67 23.1399 58.44C23.0499 59.22 23.2499 60.03 23.6099 60.77C24.1099 61.72 24.7899 62.52 25.2299 63.72C25.3799 64.09 25.2299 64.19 24.7699 64.21C24.5399 64.22 24.2099 64.21 23.8199 64.19C23.6299 64.17 23.4199 64.14 23.2299 64.08C23.0499 64 22.8799 63.9 22.7199 63.78C22.4699 63.53 22.1699 63.31 21.9599 63.01C21.7599 62.7 21.5499 62.41 21.3799 62.07C21.0299 61.41 20.7599 60.68 20.6099 59.91C20.2799 58.36 20.6799 56.63 21.5699 55.36C22.6099 53.84 23.9999 52.54 25.7099 51.93C27.5699 51.26 29.6499 51.35 31.4199 52.09C32.5099 52.55 33.4599 53.23 34.2799 54.03C35.5499 55.28 36.2699 57.07 36.3499 58.81C36.4399 60.16 36.3199 61.51 35.9299 62.78C35.8399 63.05 35.7999 63.35 35.6299 63.59C35.4899 63.82 35.3599 64 35.2399 64.15C35.1099 64.29 34.9499 64.36 34.8199 64.42C34.5599 64.54 34.2699 64.52 33.9499 64.45C33.8099 64.42 33.6799 64.41 33.5799 64.37C33.2799 64.29 32.9899 63.62 33.0299 62.9C33.0799 61.84 33.3999 61 33.4699 60.14C33.5599 59.3 33.5399 58.52 33.3299 57.82C33.0399 56.79 32.2699 55.83 31.1499 55.13L31.1799 55.07L31.1399 55.06Z" fill="#231F20"/>
<path d="M40.0001 57.75C40.7001 57.84 41.3901 58.01 41.9801 58.3C42.5801 58.55 43.1601 58.9 43.6901 59.3C43.8801 59.46 44.0701 59.6 44.2701 59.74C44.4501 59.9 44.6201 60.08 44.7801 60.27C45.3101 60.95 45.7001 61.74 45.8701 62.55C45.9901 62.95 46.0001 63.37 46.0301 63.77C46.0001 64.18 45.9801 64.58 45.8801 64.98C45.7401 65.67 45.5001 66.35 45.1401 66.95C44.8801 67.32 44.5601 67.65 44.2001 67.91C44.0001 68.02 43.7801 68.09 43.5801 68.16C43.3601 68.21 43.1401 68.23 42.9301 68.26C42.6701 68.28 42.6901 68.21 42.7901 67.95C42.8401 67.82 42.9001 67.64 42.9501 67.44C43.0101 67.25 43.0201 66.97 43.0701 66.79C43.1901 66.49 43.3001 66.24 43.3301 65.95C43.4101 65.7 43.4901 65.47 43.5401 65.22C43.6601 64.72 43.6601 64.2 43.6701 63.62C43.6701 62.9 43.1601 62.3 42.6501 61.83C42.1001 61.28 41.2901 60.89 40.4701 60.68C39.9701 60.57 39.4401 60.55 38.9301 60.65C38.1501 60.77 37.3401 61.1 36.7101 61.68C36.2301 62.14 35.9301 62.75 35.6201 63.33C35.5501 63.45 35.5101 63.6 35.4301 63.72C35.0501 64.13 34.7901 64.2 34.2301 64.08C34.1001 64.05 33.9701 64.04 33.8601 64C33.4701 63.89 33.2501 63.51 33.2201 62.93C33.2001 62.5 33.2901 62.1 33.4301 61.71C33.5601 61.31 33.7401 60.93 33.9501 60.55C34.4101 59.81 35.1001 59.19 35.8801 58.68C36.4701 58.31 37.1201 57.99 37.8301 57.82C38.5401 57.67 39.2701 57.6 39.9901 57.67V57.74L40.0001 57.75Z" fill="#231F20"/>
<path d="M94.8999 76.64C98.2099 76.83 101.55 76.87 104.84 76.66C106.04 76.58 107.22 76.39 108.36 76.22C108.86 76.14 109.35 76.04 109.8 75.92C110.02 75.86 110.23 75.79 110.38 75.72C110.5 75.68 110.53 75.64 110.61 75.59L110.9 75.1C111.03 74.91 111.12 74.7 111.2 74.48C111.28 74.26 111.39 74.06 111.45 73.83L111.62 73.15C112.01 71.32 111.62 69.28 110.54 67.68C110.04 66.99 109.41 66.41 108.69 66C107.95 65.63 107.15 65.51 106.35 65.53C105.28 65.59 104.37 66.1 103.65 66.89C103.28 67.28 103.01 67.75 102.74 68.22C102.47 68.7 102.26 69.23 102.16 69.8C102.06 70.5 101.94 70.48 101.64 69.81C101.5 69.48 101.36 68.97 101.32 68.3C101.31 67.97 101.3 67.59 101.39 67.22C101.49 66.85 101.65 66.46 101.88 66.1C102.28 65.46 102.81 64.87 103.45 64.39C104.08 63.91 104.89 63.56 105.66 63.42C107.23 63.02 108.98 63.45 110.28 64.29C112.93 66.03 114.19 69.06 114.12 71.96C114.09 72.4 114.04 72.83 114 73.27C113.91 73.7 113.81 74.13 113.7 74.56L113.23 75.8L112.91 76.39L112.75 76.69C112.67 76.81 112.63 76.94 112.51 77.07C112.14 77.6 111.46 77.91 111.06 78.09C110.63 78.26 110.21 78.38 109.8 78.49C108.98 78.69 108.19 78.82 107.39 78.93C103.91 79.34 100.49 79.38 97.0599 79.31C94.9499 79.26 92.8399 79.14 90.7299 78.93C89.1299 78.76 87.5399 78.57 85.9199 78.16C85.5099 78.06 85.1099 77.94 84.6799 77.76C84.4799 77.69 84.2399 77.55 84.0299 77.43C83.7999 77.28 83.6099 77.1 83.4399 76.92C82.7899 76.18 82.4299 75.29 82.3299 74.35C82.1699 72.87 82.8699 71.36 83.9099 70.45C84.3999 69.95 85.1499 69.53 85.8699 69.37C86.5999 69.19 87.3599 69.19 88.0899 69.34C88.7299 69.46 89.3399 69.71 89.8899 70.06C90.8899 70.78 91.2799 71.52 91.4699 72.01C91.6399 72.53 91.5899 72.88 91.4099 73.19C91.3399 73.33 91.2699 73.49 91.1899 73.58C90.8799 73.89 90.3299 73.2 89.4299 72.47C88.7399 71.96 87.9799 71.64 87.2299 71.61C86.8599 71.6 86.4999 71.65 86.1999 71.77C86.0499 71.83 85.9199 71.9 85.8099 71.98L85.6499 72.12L85.4399 72.33C84.8899 72.91 84.6899 73.48 84.7499 74.08C84.7799 74.68 85.2599 75.37 85.5099 75.4C85.9699 75.6 86.7799 75.78 87.5399 75.91C88.3199 76.04 89.1299 76.14 89.9399 76.23C91.5699 76.4 93.2399 76.48 94.9099 76.56V76.63L94.8999 76.64Z" fill="#231F20"/>
<path d="M91.6199 65.16C92.5399 64.28 93.7199 63.58 95.0199 63.28L95.7299 63.11C95.9699 63.08 96.2099 63.05 96.4499 63.05C97.2199 63.08 97.8799 63.18 98.6299 63.34C99.3599 63.49 100.11 63.77 100.79 64.22C101.38 64.62 101.97 65.11 102.33 65.72C102.78 66.5 103.04 67.36 102.77 68.19C102.7 68.45 102.53 68.42 102.23 68.28C102.03 68.18 101.83 68.07 101.67 67.99C101.45 67.88 101.23 67.77 101.14 67.62C100.75 67.08 100.3 66.87 100.02 66.6C99.6999 66.34 99.2499 66.17 98.6699 65.88C98.3199 65.71 97.9099 65.66 97.4799 65.65C97.2699 65.65 97.0499 65.65 96.8199 65.65C96.5999 65.65 96.4599 65.69 96.2799 65.68C95.5299 65.73 94.7499 66.03 94.0699 66.57C93.6699 66.92 93.2599 67.29 92.9499 67.76C92.4699 68.45 92.0399 69.24 91.8899 70.09C91.7599 70.75 91.9099 71.42 92.0399 72.03C92.0799 72.16 92.1399 72.29 92.1699 72.42C92.2299 72.91 92.0399 73.12 91.5399 73.41C91.4199 73.48 91.3199 73.55 91.2099 73.61C90.8599 73.79 90.3999 73.68 90.0199 73.22C89.1299 71.81 89.1799 69.97 89.6399 68.36C89.9799 67.14 90.6799 66.04 91.5899 65.1L91.6399 65.14L91.6199 65.16Z" fill="#231F20"/>
<path d="M74.4499 105.07L57.3199 105.46C55.2399 105.5 53.1499 105.62 51.0699 105.65C43.7199 105.73 36.3599 105.67 29.0099 105.51C25.7499 105.44 22.4599 105.37 19.2199 105.3C17.1399 105.25 15.0499 105.21 12.9599 105.04C11.9199 104.94 10.8799 104.84 9.83991 104.72C9.31991 104.68 8.80991 104.56 8.28991 104.45C7.77991 104.32 7.25991 104.27 6.75991 104.07C5.51991 103.48 5.67991 103.62 6.81991 103.21C7.38991 102.99 8.18991 102.8 9.13991 102.57C10.0899 102.39 11.1999 102.29 12.3799 102.32C13.4299 102.37 14.4799 102.32 15.5299 102.39C16.5799 102.45 17.6299 102.49 18.6799 102.52C20.7799 102.59 22.8899 102.66 24.9999 102.72C29.2299 102.82 33.4599 102.92 37.7199 103.02C42.8199 103.15 48.1199 102.84 53.3399 102.68L70.5599 102.1C74.0999 101.98 77.6399 101.86 81.1699 101.74C86.5299 101.58 91.9199 101.41 97.2399 101.25C101.39 101.14 105.45 100.86 109.61 100.94C110.53 100.98 111.43 100.94 112.37 101.04C113.23 101.11 113.96 101.2 114.56 101.34C115.16 101.48 115.63 101.71 116.01 101.93C116.39 102.17 116.67 102.36 116.88 102.58C117.1 102.81 117.25 103.04 117.36 103.26C117.47 103.46 117.62 103.66 117.65 103.8C117.72 104.04 117.38 104.11 116.76 104.18C116.46 104.21 116.07 104.25 115.61 104.31C115.38 104.34 115.14 104.35 114.88 104.36C114.62 104.36 114.32 104.43 114.04 104.4C110.59 104.13 106.87 104.23 103.12 104.27C99.3599 104.33 95.5199 104.44 91.6699 104.56C85.9399 104.76 80.1799 104.95 74.4399 105.15V105.07H74.4499Z" fill="#231F20"/>
<path d="M71.59 114.93L60.34 114.86C58.97 114.86 57.6 114.92 56.24 114.91C51.41 114.84 46.59 114.72 41.77 114.58C39.63 114.5 37.48 114.53 35.35 114.47C33.99 114.44 32.62 114.41 31.25 114.38L30.23 114.32L29.21 114.18L28.19 114.03C27.85 113.97 27.51 113.86 27.18 113.78C26.34 113.54 26.46 113.47 27.19 113.17C27.92 112.84 29.27 112.21 30.83 112.14C36.37 112.02 41.9 112.14 47.5 112.39C50.85 112.55 54.33 112.36 57.75 112.3L69.06 112.13C71.38 112.09 73.7 112.04 76.02 112C79.54 111.92 83.07 111.88 86.56 111.76C89.27 111.66 91.93 111.39 94.62 111.23C95.21 111.19 95.79 111.12 96.39 111.11C97.5 111.09 98.23 111.11 98.74 111.29C99.25 111.49 99.54 111.76 99.78 112.16C99.89 112.34 100.03 112.51 100.09 112.68C100.19 112.97 100.02 113.23 99.62 113.48C99.22 113.73 98.59 114 97.79 114.06C93.02 114.61 87.99 114.8 82.93 114.91C79.16 114.94 75.38 114.97 71.6 115V114.93H71.59Z" fill="#231F20"/>
<path d="M16.7602 82.41C16.9802 82.37 17.1702 82.53 17.3402 82.75C17.3902 82.82 17.3902 83.02 17.3202 83.06C17.1802 83.14 17.0402 83.22 16.9402 83.28C16.8602 83.32 15.6302 83.67 15.2102 83.85C14.8002 84 14.3902 84.14 13.9802 84.16L11.4802 84.42C11.2902 84.44 11.1102 84.4 10.9302 84.35C10.3002 84.17 9.67019 84.15 9.03019 84.19C8.92019 84.19 8.82019 84.18 8.71019 84.27C8.53019 84.42 6.81019 84.38 6.60019 84.29C6.06019 84.04 5.52019 83.83 4.99019 83.62C4.91019 83.59 4.83019 83.61 4.76019 83.5C4.61019 83.24 4.44019 83.23 4.28019 83.18C4.05019 83.11 3.82019 83.02 3.60019 82.88C3.49019 82.82 3.38019 82.69 3.28019 82.6C3.18019 82.51 3.26019 82.31 3.29019 82.29C3.40019 82.22 3.32019 82.11 3.32019 82.02C3.32019 81.99 3.32019 81.95 3.32019 81.92C3.32019 81.9 3.68019 81.74 4.05019 81.54C4.42019 81.37 4.81019 81.16 4.88019 81.16C4.90019 81.16 5.40019 81.1 5.93019 81.04C6.19019 81 6.46019 80.96 6.68019 80.93C6.89019 80.92 7.05019 80.91 7.12019 80.9C7.24019 80.88 7.35019 80.95 7.46019 81C7.51019 81.02 9.08019 80.93 9.14019 80.94C9.46019 80.99 9.79019 80.92 10.1002 81.16C10.1602 81.21 10.2302 81.2 10.2902 81.2C10.8402 81.2 11.4002 81.29 11.9502 81.43C12.2302 81.49 12.5202 81.49 12.8002 81.53C12.8502 81.53 12.9002 81.57 12.9502 81.59C13.0102 81.61 13.0802 81.65 13.1402 81.65C13.8102 81.7 14.4802 81.84 15.1602 81.91C15.3102 81.93 16.0602 82.22 16.2402 82.22C16.3402 82.23 16.6702 82.46 16.7602 82.44V82.41Z" fill="#231F20"/>
<path d="M111.29 82.69C111.07 82.73 110.88 82.56 110.72 82.34C110.67 82.27 110.68 82.07 110.74 82.03C110.88 81.95 111.02 81.87 111.12 81.82C111.2 81.79 112.43 81.45 112.84 81.28C113.24 81.13 113.65 81 114.05 80.98C114.87 80.89 115.68 80.78 116.49 80.68C116.67 80.66 116.85 80.68 117.03 80.73C117.65 80.88 118.26 80.87 118.88 80.79C118.98 80.78 119.09 80.79 119.18 80.69C119.34 80.54 121 80.43 121.22 80.48C121.76 80.67 122.31 80.82 122.85 80.96C122.93 80.98 123.01 80.95 123.08 81.05C123.26 81.29 123.42 81.27 123.59 81.3C123.82 81.34 124.06 81.39 124.3 81.49C124.42 81.54 124.54 81.64 124.66 81.72C124.77 81.79 124.73 82 124.7 82.03C124.6 82.11 124.7 82.21 124.71 82.3C124.71 82.33 124.72 82.37 124.72 82.4C124.72 82.43 124.39 82.63 124.05 82.89C123.71 83.11 123.35 83.37 123.27 83.39C123.25 83.39 122.76 83.52 122.23 83.65C121.97 83.72 121.7 83.79 121.48 83.84C121.27 83.88 121.1 83.9 121.04 83.91C120.92 83.94 120.8 83.88 120.68 83.84C120.62 83.84 119.04 84.05 118.97 84.04C118.64 84.01 118.31 84.1 117.98 83.88C117.92 83.84 117.85 83.85 117.78 83.85C117.22 83.87 116.65 83.81 116.09 83.69C115.8 83.64 115.52 83.64 115.23 83.61C115.18 83.61 115.13 83.57 115.08 83.55C115.02 83.53 114.95 83.5 114.89 83.49C114.21 83.45 113.54 83.31 112.86 83.23C112.7 83.21 111.97 82.91 111.79 82.91C111.69 82.9 111.36 82.66 111.28 82.68L111.29 82.69Z" fill="#231F20"/>
<path d="M31.9601 41.33C32.1501 41.42 32.1901 41.65 32.1801 41.92C32.1801 42.01 32.0501 42.16 31.9801 42.16C31.8301 42.15 31.6801 42.14 31.5701 42.13C31.4901 42.12 30.3701 41.72 29.9601 41.63C29.5701 41.52 29.1901 41.4 28.8701 41.19L26.8701 40C26.7201 39.91 26.6101 39.78 26.5101 39.64C26.1601 39.15 25.7101 38.78 25.2301 38.45C25.1501 38.4 25.0801 38.32 24.9501 38.33C24.7301 38.35 23.5001 37.36 23.4001 37.17C23.1601 36.67 22.9001 36.21 22.6401 35.75C22.6001 35.68 22.5301 35.65 22.5501 35.53C22.6001 35.24 22.4801 35.15 22.3901 35.01C22.2601 34.83 22.1501 34.63 22.0701 34.4C22.0301 34.29 22.0301 34.13 22.0001 34C21.9801 33.88 22.1601 33.76 22.2001 33.76C22.3201 33.76 22.3301 33.64 22.3901 33.56C22.4101 33.53 22.4301 33.5 22.4501 33.48C22.4701 33.46 22.8301 33.53 23.2201 33.58C23.6001 33.65 24.0101 33.7 24.0701 33.74C24.0801 33.74 24.4901 33.98 24.9201 34.23C25.1401 34.35 25.3601 34.47 25.5401 34.56C25.7001 34.67 25.8301 34.75 25.8801 34.78C25.9801 34.83 26.0101 34.95 26.0701 35.05C26.1001 35.1 27.2901 35.9 27.3301 35.94C27.5301 36.16 27.8101 36.29 27.8901 36.65C27.9101 36.72 27.9601 36.75 28.0101 36.79C28.4101 37.1 28.7601 37.48 29.0701 37.89C29.2401 38.09 29.4401 38.25 29.6301 38.44C29.6601 38.47 29.6801 38.53 29.7001 38.57C29.7301 38.62 29.7601 38.69 29.8001 38.72C30.2601 39.13 30.6601 39.61 31.1101 40.04C31.2101 40.14 31.5801 40.78 31.7101 40.88C31.7801 40.94 31.8801 41.31 31.9601 41.34V41.33Z" fill="#231F20"/>
<path d="M64.8802 28.07C64.9402 28.29 64.7702 28.49 64.5402 28.68C64.4702 28.74 64.2402 28.75 64.2002 28.68C64.1002 28.54 64.0002 28.41 63.9402 28.31C63.8902 28.23 63.4302 26.99 63.2202 26.57C63.0302 26.16 62.8702 25.75 62.8202 25.33L62.4302 22.78C62.4002 22.59 62.4302 22.4 62.4802 22.21C62.6502 21.56 62.6502 20.92 62.5802 20.27C62.5702 20.16 62.5802 20.05 62.4802 19.95C62.3102 19.78 62.2802 18.03 62.3602 17.8C62.6102 17.25 62.8202 16.69 63.0202 16.14C63.0502 16.06 63.0202 15.98 63.1402 15.91C63.4202 15.75 63.4202 15.58 63.4702 15.4C63.5402 15.16 63.6202 14.92 63.7602 14.69C63.8202 14.57 63.9602 14.46 64.0502 14.35C64.1402 14.25 64.3702 14.31 64.4002 14.35C64.4802 14.46 64.6002 14.38 64.7002 14.37C64.7402 14.37 64.7802 14.37 64.8102 14.37C64.8402 14.37 65.0302 14.73 65.2802 15.1C65.4902 15.47 65.7402 15.86 65.7502 15.93C65.7502 15.95 65.8502 16.46 65.9402 17C66.0002 17.27 66.0502 17.54 66.1002 17.76C66.1302 17.98 66.1502 18.14 66.1502 18.21C66.1702 18.33 66.1002 18.45 66.0502 18.56C66.0302 18.62 66.2002 20.21 66.1902 20.27C66.1502 20.6 66.2402 20.93 65.9802 21.25C65.9302 21.31 65.9402 21.38 65.9402 21.45C65.9502 22.02 65.8802 22.58 65.7502 23.14C65.6902 23.43 65.7002 23.72 65.6802 24.01C65.6802 24.06 65.6402 24.11 65.6202 24.17C65.6002 24.24 65.5602 24.3 65.5602 24.37C65.5302 25.05 65.4102 25.74 65.3602 26.43C65.3402 26.59 65.0602 27.35 65.0702 27.54C65.0702 27.64 64.8202 27.99 64.8502 28.08L64.8802 28.07Z" fill="#231F20"/>
<path d="M102.75 43.62C102.64 43.8 102.41 43.82 102.14 43.79C102.05 43.78 101.91 43.64 101.92 43.57C101.95 43.42 101.97 43.27 101.99 43.17C102.01 43.09 102.52 42.01 102.67 41.6C102.82 41.22 102.98 40.85 103.23 40.56C103.71 39.94 104.17 39.31 104.67 38.7C104.78 38.56 104.92 38.47 105.08 38.38C105.61 38.09 106.04 37.69 106.43 37.24C106.49 37.17 106.58 37.11 106.58 36.98C106.59 36.76 107.72 35.66 107.91 35.57C108.43 35.39 108.92 35.18 109.4 34.96C109.47 34.93 109.51 34.86 109.63 34.89C109.91 34.97 110.02 34.86 110.16 34.79C110.36 34.68 110.56 34.59 110.8 34.53C110.92 34.5 111.07 34.51 111.21 34.5C111.33 34.5 111.44 34.68 111.43 34.72C111.41 34.84 111.54 34.87 111.61 34.93C111.63 34.95 111.66 34.98 111.68 35C111.69 35.02 111.59 35.37 111.5 35.77C111.39 36.14 111.29 36.55 111.25 36.6C111.25 36.61 110.96 37 110.67 37.4C110.53 37.6 110.38 37.81 110.26 37.98C110.13 38.13 110.04 38.25 110 38.29C109.94 38.38 109.81 38.41 109.71 38.45C109.66 38.47 108.71 39.58 108.66 39.61C108.41 39.79 108.25 40.05 107.88 40.09C107.81 40.09 107.77 40.15 107.73 40.19C107.37 40.55 106.95 40.85 106.5 41.12C106.28 41.26 106.09 41.45 105.89 41.61C105.85 41.64 105.8 41.65 105.75 41.67C105.69 41.7 105.63 41.72 105.58 41.75C105.12 42.16 104.6 42.51 104.12 42.91C104.01 43 103.34 43.3 103.22 43.42C103.15 43.48 102.77 43.55 102.73 43.62H102.75Z" fill="#231F20"/>
</svg>
