<svg width="128" height="128" viewBox="0 0 128 128" fill="none" xmlns="http://www.w3.org/2000/svg">
<path d="M60.5801 28C62.4701 28.06 64.3801 28.09 66.2801 28.09H68.3601C70.8001 28.09 73.2468 28.0467 75.7001 27.96C76.7801 27.96 77.8701 27.85 78.9501 27.78C80.3301 27.73 81.7101 27.57 83.1101 27.64C83.5401 27.64 83.4901 27.64 83.1101 27.8C82.526 28.0253 81.9191 28.1862 81.3001 28.28C78.4811 28.6421 75.6423 28.8291 72.8001 28.84C71.0901 28.84 69.3101 28.95 67.5601 28.98C65.6401 28.98 63.7201 28.98 61.7901 28.98L58.2401 28.9C56.4501 28.9 54.6501 28.77 52.8801 28.68C51.4901 28.62 50.1401 28.6 48.7701 28.51L47.8601 28.46C46.7401 28.32 46.4001 28.17 46.1901 27.89C46.1403 27.8395 46.0936 27.7861 46.0501 27.73C45.9601 27.62 46.4501 27.41 47.2701 27.42C49.7001 27.49 52.2701 27.69 54.8101 27.81C56.7201 27.9 58.6401 27.98 60.5501 28.01L60.5801 28Z" fill="#231F20"/>
<path d="M58.2098 28.25L55.8799 28H54.9998C53.9998 27.89 52.9998 27.79 51.9998 27.65L50.6799 27.52C50.1106 27.4875 49.547 27.3902 48.9998 27.23C48.8098 27.17 48.8999 27.05 49.0799 26.94C49.3027 26.7863 49.5694 26.7091 49.8399 26.72C50.9911 26.7358 52.1402 26.826 53.2798 26.99C53.9698 27.1 54.6899 27.11 55.3999 27.17L57.7298 27.36L59.1698 27.48C59.8998 27.48 60.6298 27.58 61.3498 27.6C61.9098 27.6 62.4699 27.6 63.0199 27.6H63.3898C63.8398 27.6 63.9799 27.67 64.0799 27.89C64.1041 27.9382 64.1242 27.9884 64.1398 28.04C64.1398 28.21 63.9899 28.35 63.6499 28.4C62.6186 28.5339 61.5761 28.5573 60.5399 28.47C59.7599 28.47 58.9799 28.38 58.1999 28.32L58.2098 28.25Z" fill="#231F20"/>
<path d="M55.4098 88.6599C56.5577 91.6064 58.5777 94.1323 61.1998 95.8999C62.1435 96.5578 63.1481 97.1237 64.1998 97.5899C67.9506 99.3512 72.2093 99.7061 76.1998 98.5899C77.9721 98.1153 79.6592 97.3663 81.1998 96.3699C83.1362 95.0543 84.8681 93.4605 86.3398 91.6399C86.8098 91.0899 87.1098 91.3899 87.0498 92.1399C86.8936 93.295 86.3339 94.3576 85.4698 95.1399C83.5946 96.952 81.3806 98.3767 78.9543 99.3325C76.528 100.288 73.9372 100.756 71.3298 100.71C69.75 100.664 68.1787 100.46 66.6398 100.1C65.1037 99.7033 63.62 99.1259 62.2198 98.3799C59.1132 96.7732 56.5392 94.3 54.8098 91.2599C53.8196 89.3834 53.2048 87.3317 52.9998 85.2199C52.6415 82.0157 53.1455 78.774 54.4598 75.8299C55.4382 73.5722 56.8247 71.5144 58.5498 69.7599C58.9271 69.3727 59.3243 69.0056 59.7398 68.6599C61.3298 67.3799 61.9998 67.2099 62.5698 67.3499C62.7008 67.3749 62.8283 67.4151 62.9498 67.4699C63.2798 67.6899 62.6898 68.2599 61.6198 69.1199C58.3076 71.7081 55.9505 75.3247 54.9198 79.3999C54.1805 82.4675 54.3791 85.6864 55.4898 88.6399L55.4098 88.6599Z" fill="#231F20"/>
<path d="M51.72 117.14C53.56 117.27 55.41 117.36 57.25 117.42H59.25C61.6233 117.513 64 117.573 66.38 117.6C67.44 117.6 68.5 117.6 69.54 117.54C70.8717 117.447 72.2083 117.447 73.54 117.54C73.96 117.61 73.91 117.84 73.54 118.13C73.039 118.542 72.418 118.781 71.77 118.81C69.0123 118.97 66.2477 118.97 63.49 118.81C61.83 118.72 60.1 118.81 58.4 118.81C56.54 118.81 54.67 118.71 52.8 118.64L49.35 118.45C47.61 118.35 45.86 118.2 44.13 118.04C42.78 117.92 41.45 117.84 40.13 117.62C39.8257 117.584 39.5247 117.524 39.23 117.44C38.8118 117.375 38.4165 117.207 38.08 116.95C37.9816 116.88 37.9019 116.787 37.8479 116.679C37.7939 116.57 37.7671 116.451 37.77 116.33C37.7596 116.227 37.7596 116.123 37.77 116.02C37.86 115.71 38.38 115.64 39.03 115.83C41.19 116.25 43.65 116.48 46.11 116.71C47.94 116.86 49.8 117.01 51.65 117.1L51.72 117.14Z" fill="#231F20"/>
<path d="M23.72 104.17C23.49 104.09 13.72 107.17 11.47 110.88C9.22005 114.59 30.47 118.88 46.47 117.36L24 109.76L23.72 104.17Z" fill="#231F20"/>
<path d="M61.2101 36.1699C56.3901 37.9099 48.8601 34.8199 46.5401 33.4199C44.2201 32.0199 41.8901 26.2 41.8901 26.2L50.1501 26.6399C50.1501 26.6399 53.3901 35.0599 61.2101 36.1699Z" fill="#231F20"/>
<path d="M54.2601 52.5399C48.8981 56.3399 44.1871 60.9834 40.3101 66.2899C38.3079 68.925 36.4486 71.6656 34.7401 74.4999C33.0513 77.3428 31.5352 80.2848 30.2001 83.3099C28.2834 87.7235 26.8451 92.3298 25.9101 97.0499C25.7001 98.0499 25.5601 99.1399 25.3801 100.18C25.2001 101.22 25.1501 102.28 25.0301 103.33L24.8601 106.49V108.08C24.8338 108.363 24.8338 108.647 24.8601 108.93L27.2201 110C28.2201 110.47 29.2201 110.76 30.2201 111.15C32.2201 111.95 34.2201 112.45 36.3001 113.09C44.6087 115.222 53.1123 116.505 61.6801 116.92C69.287 117.329 76.9145 117.132 84.4901 116.33C94.15 115.279 103.672 113.214 112.9 110.17C115.79 109.28 115.57 109.76 113.3 111.07C112.73 111.4 112.03 111.78 111.22 112.2C110.329 112.691 109.403 113.115 108.45 113.47C107.403 113.87 106.263 114.28 105.03 114.7C104.42 114.9 103.79 115.12 103.13 115.31L101.13 115.8C91.2989 118.133 81.2342 119.341 71.1301 119.4C61.0046 119.489 50.8992 118.483 40.9901 116.4L36.5401 115.32C35.0501 114.94 33.5401 114.46 32.0901 114.03C30.6401 113.6 29.1601 113.03 27.6801 112.48C26.9401 112.24 26.2401 111.87 25.5101 111.56L22.7901 110.33C22.7394 109.999 22.7226 109.664 22.7401 109.33V108.46V107.28C22.7401 106.49 22.7401 105.7 22.7901 104.91C22.7901 103.33 23.0101 101.77 23.1501 100.2C23.5528 97.1138 24.171 94.0597 25.0001 91.0599C26.9493 84.4737 29.771 78.1778 33.3901 72.3399C35.1663 69.418 37.113 66.6031 39.2201 63.9099C41.2923 61.1932 43.5582 58.6299 46.0001 56.2399C49.0153 53.2523 52.4072 50.6705 56.0901 48.5599C57.9452 47.5091 59.8854 46.6159 61.8901 45.8899C63.918 45.1928 66.0124 44.7069 68.1401 44.4399C71.3696 44.0503 74.6425 44.2297 77.8101 44.9699C80.9787 45.7155 84.0141 46.9431 86.8101 48.6099C92.2542 51.9976 97.0051 56.3888 100.81 61.5499C103.768 65.4336 106.384 69.5657 108.63 73.8999C110.884 78.1992 112.803 82.6657 114.37 87.2599C115.05 89.2599 115.7 91.2599 116.21 93.3999C116.961 96.1546 117.423 98.9798 117.59 101.83C117.716 103.13 117.552 104.441 117.11 105.67C116.981 106.056 116.821 106.431 116.63 106.79C116.04 107.51 115.9 104.35 114.8 98.7899C113.009 90.3207 110.047 82.1421 106 74.4899C103.982 70.5718 101.64 66.8288 99.0001 63.2999C96.3813 59.7641 93.331 56.5694 89.9201 53.7899C84.9201 49.7299 78.8001 46.9199 72.4201 46.7299C66.0401 46.5399 59.7301 48.8599 54.4201 52.5799L54.2601 52.5399Z" fill="#231F20"/>
<path d="M88.87 83C88.6 104 54.6 105.53 53.57 84.17C53.4768 80.1516 54.6691 76.2084 56.9733 72.9149C59.2775 69.6214 62.5731 67.1497 66.38 65.86C77.86 62.18 88.23 71.8 88.87 83C88.94 84.28 90.94 84.29 90.87 83C90.2 71.23 80.23 61.16 68 63.42C58.45 65.17 51.21 74.53 51.61 84.19C52.61 108.19 90.61 106.59 90.91 83.02C90.9127 82.7495 90.8078 82.489 90.6184 82.2958C90.4289 82.1026 90.1706 81.9926 89.9 81.99C89.6295 81.9873 89.369 82.0922 89.1759 82.2817C88.9827 82.4711 88.8727 82.7295 88.87 83Z" fill="#231F20"/>
<path d="M73.1302 81.4598C72.5602 82.3198 71.9802 83.2098 71.3702 84.0298C71.1502 84.3298 70.9902 84.6798 70.7702 85.0298L68.4202 88.3098C68.0702 88.7998 67.8102 89.3098 67.5102 89.8598C67.3373 90.2027 67.1471 90.5364 66.9402 90.8598C66.7059 91.1907 66.4227 91.4841 66.1002 91.7298C65.8802 91.8898 65.6402 91.6598 65.4302 91.2898C65.1629 90.8895 65.0428 90.4089 65.0902 89.9298C65.632 88.4729 66.4202 87.1199 67.4202 85.9298C68.0202 85.1898 68.4202 84.2898 68.9902 83.4798C69.5602 82.6698 70.2502 81.7298 70.9202 80.9098L72.1402 79.3598C72.7502 78.5798 73.3802 77.7998 73.9402 76.9998C74.3802 76.3798 74.7402 75.7098 75.1702 75.0898C75.2702 74.9498 75.3502 74.8098 75.4602 74.6698C75.5863 74.4711 75.7717 74.3172 75.9902 74.2298C76.1386 74.1747 76.3018 74.1747 76.4502 74.2298C76.5157 74.2423 76.5795 74.2625 76.6402 74.2898C76.8202 74.3798 76.8102 74.6898 76.7002 75.1498C76.1388 76.422 75.5044 77.6608 74.8002 78.8598C74.2702 79.7698 73.7102 80.6598 73.1702 81.5698L73.1302 81.4598Z" fill="#231F20"/>
<path d="M72.5103 44.9999V41.4599C72.4809 41.1155 72.3233 40.7946 72.0686 40.5608C71.814 40.327 71.4809 40.1973 71.1353 40.1973C70.7896 40.1973 70.4565 40.327 70.2019 40.5608C69.9472 40.7946 69.7897 41.1155 69.7603 41.4599V44.9999C69.7897 45.3443 69.9472 45.6652 70.2019 45.899C70.4565 46.1328 70.7896 46.2625 71.1353 46.2625C71.4809 46.2625 71.814 46.1328 72.0686 45.899C72.3233 45.6652 72.4809 45.3443 72.5103 44.9999Z" fill="#231F20"/>
<path d="M78.2101 38.2499C74.6001 38.4199 71.0001 38.3499 67.4201 38.2499C66.1201 38.2499 64.8101 38.2499 63.5101 38.1699C59.0001 37.9999 54.1601 37.7699 49.7001 35.9999C48.7093 35.6003 47.7585 35.1081 46.8601 34.5299C45.9693 33.9597 45.1472 33.2886 44.4101 32.5299C43.4641 31.5379 42.6537 30.4249 42.0001 29.2199C41.3501 28.0499 40.9101 26.7999 40.3201 25.7299C39.9401 25.1199 40.1001 24.9899 40.7801 25.3699C41.7339 26.0909 42.5675 26.9583 43.2501 27.9399C45.9801 32.2799 50.2501 34.6399 55.4201 35.5499C58.6077 36.0204 61.8283 36.2311 65.0501 36.1799C68.6401 36.2799 72.2201 36.3799 75.7901 36.2899C77.9801 36.2899 80.1801 36.1399 82.3601 35.9399C85.658 35.779 88.9215 35.1942 92.0701 34.1999C93.223 33.8216 94.2781 33.1933 95.1601 32.3599C96.0269 31.4928 96.8134 30.5489 97.5101 29.5399L98.5101 28.1699C99.7401 26.4699 100.36 25.9999 101 25.9999C101.146 25.9845 101.294 25.9845 101.44 25.9999C101.84 26.1299 101.44 26.8999 100.63 28.1399C99.4251 30.2438 97.9492 32.1803 96.2401 33.8999C95.738 34.3575 95.1882 34.7599 94.6001 35.0999C94.3001 35.2799 93.9801 35.4199 93.6701 35.5799C93.3601 35.7399 93.0801 35.8299 92.7801 35.9299C91.5918 36.3772 90.3717 36.7348 89.1301 36.9999C87.3257 37.3662 85.5031 37.6365 83.6701 37.8099C81.8701 38.0099 80.0401 38.1699 78.2201 38.2699L78.2101 38.2499Z" fill="#231F20"/>
<path d="M61.6101 26.1C64.4101 26.2467 67.2101 26.3367 70.0101 26.37C71.0101 26.37 72.0101 26.32 73.0701 26.37C76.6801 26.37 80.2801 26.29 83.8801 26.12C85.4801 26.03 87.0801 25.87 88.6501 25.66C89.6501 25.59 90.6501 25.41 91.6501 25.3C92.1501 25.24 92.6501 25.18 93.1601 25.1C93.6701 25.02 94.1601 25.03 94.6901 24.99C95.2201 24.95 95.2701 24.99 94.7801 25.3L93.7801 25.91C93.2925 26.1634 92.7752 26.3548 92.2401 26.48C91.2401 26.7 90.1801 26.97 89.1401 27.15C88.1001 27.33 87.0501 27.45 86.0001 27.55C83.9001 27.75 81.7901 27.9 79.6701 27.91C77.1401 27.91 74.5201 28.11 71.9301 28.14C69.0901 28.14 66.2401 28.14 63.4001 28.06L58.1601 27.84C55.5101 27.71 52.8601 27.51 50.2301 27.3C48.2301 27.15 46.1701 27.06 44.1401 26.83C43.6901 26.77 43.2501 26.74 42.8001 26.67L42.2201 26.57L41.7501 26.41C41.5169 26.3216 41.2897 26.2181 41.0701 26.1C40.9206 26.0108 40.7829 25.9033 40.6601 25.78C40.5717 25.6555 40.4979 25.5213 40.4401 25.38C40.3901 25.25 40.3101 25.14 40.2901 25.06C40.2001 24.82 41.0001 24.46 42.1701 24.58C45.6701 24.91 49.3901 25.3 53.1701 25.58C54.5701 25.69 55.9701 25.79 57.3801 25.87C58.7901 25.95 60.2001 26.02 61.6101 26.08V26.1Z" fill="#231F20"/>
<path d="M73.9099 82.23C73.9117 82.6712 73.802 83.1057 73.591 83.4932C73.3801 83.8807 73.0747 84.2086 72.7031 84.4466C72.3316 84.6846 71.906 84.8249 71.4658 84.8545C71.0256 84.8841 70.585 84.8021 70.185 84.616C69.7849 84.43 69.4384 84.1459 69.1774 83.7901C68.9164 83.4344 68.7495 83.0185 68.6922 82.581C68.6348 82.1436 68.6888 81.6987 68.8493 81.2877C69.0097 80.8767 69.2713 80.5129 69.6099 80.23C69.994 79.9192 70.4576 79.7224 70.948 79.6621C71.4383 79.6018 71.9358 79.6802 72.3838 79.8886C72.8318 80.097 73.2123 80.4269 73.4821 80.8408C73.7519 81.2547 73.9001 81.736 73.9099 82.23Z" fill="#231F20"/>
<path d="M67.8203 15.63C67.9703 15.63 67.8203 15.82 67.6203 16.14C67.5037 16.2822 67.3612 16.401 67.2003 16.49C67.0874 16.5043 66.9732 16.5043 66.8603 16.49C66.5681 16.3095 66.2935 16.1019 66.0403 15.87C65.8663 15.7114 65.7238 15.5214 65.6203 15.31C65.4103 14.9 65.2003 14.49 65.0403 14.09C65.0083 13.9966 64.9914 13.8987 64.9903 13.8C64.9932 13.4767 64.9177 13.1576 64.7703 12.87C64.7703 12.82 64.7703 12.76 64.6603 12.74C64.4622 12.4605 64.332 12.1386 64.2803 11.8C64.2803 11.52 64.2803 11.25 64.2803 10.97C64.2803 10.97 64.2803 10.91 64.2803 10.85C64.3218 10.8178 64.3526 10.7739 64.3687 10.7239C64.3847 10.6739 64.3853 10.6203 64.3703 10.57C64.3553 10.4504 64.3553 10.3295 64.3703 10.21C64.3957 10.1235 64.4364 10.0422 64.4903 9.96995C64.5754 9.89457 64.6789 9.84284 64.7903 9.81995C64.8803 9.81995 64.9603 9.74995 65.0503 9.69995H65.1503C65.4591 9.82085 65.7488 9.9859 66.0103 10.19C66.0103 10.19 66.5303 11.13 66.5703 11.19C66.6103 11.25 66.5703 11.31 66.5703 11.38C66.5703 11.45 66.9303 12.12 66.9303 12.15C66.9303 12.18 67.0603 12.44 66.9303 12.64C66.9303 12.64 66.9303 12.7 66.9303 12.73C67.0107 12.9808 67.0676 13.2386 67.1003 13.5C67.1303 13.629 67.1774 13.7534 67.2403 13.87C67.2403 13.87 67.2403 13.87 67.2403 13.95C67.2403 14.03 67.2403 14.02 67.2403 14.04C67.3273 14.3255 67.4589 14.5955 67.6303 14.84C67.6303 14.89 67.6903 15.26 67.7503 15.3C67.8103 15.34 67.7603 15.62 67.8203 15.63Z" fill="#231F20"/>
<path d="M79.7299 20.75C79.7299 20.9 79.5199 20.83 79.1699 20.59C79.011 20.4742 78.8696 20.3361 78.7499 20.18C78.7499 20.07 78.6499 19.96 78.6199 19.88C78.5899 19.8 78.7499 19.35 78.7699 19.17C78.802 19.0117 78.8667 18.8619 78.9599 18.73C79.1299 18.46 79.2899 18.16 79.4599 17.87C79.4966 17.7997 79.552 17.7408 79.6199 17.7C79.8476 17.5467 80.0223 17.3266 80.1199 17.07C80.1199 17.02 80.1199 16.99 80.1199 16.92C80.1199 16.85 80.4599 16.16 80.5599 16.11C80.6599 16.06 80.9999 15.8 81.2299 15.66C81.2299 15.66 81.2299 15.59 81.3499 15.61C81.4699 15.63 81.5599 15.61 81.6199 15.53C81.7 15.4443 81.7994 15.3791 81.9099 15.34C81.9994 15.3264 82.0905 15.3264 82.1799 15.34C82.2904 15.402 82.3859 15.4873 82.4599 15.59C82.4599 15.68 82.6099 15.74 82.6999 15.82L82.7899 15.9C82.8239 16.1589 82.8239 16.4211 82.7899 16.68L82.6199 17.05C82.549 17.1954 82.4888 17.3458 82.4399 17.5C82.4399 17.55 82.3699 17.56 82.3199 17.59C82.2699 17.62 82.0899 18.23 82.0699 18.25C82.0499 18.27 81.9699 18.51 81.7599 18.54C81.7599 18.54 81.7599 18.54 81.6999 18.6C81.5862 18.8162 81.4375 19.0122 81.2599 19.18C81.1893 19.2822 81.1258 19.3891 81.0699 19.5H80.9999C80.9999 19.5 80.9399 19.5 80.9299 19.56C80.7406 19.7998 80.5701 20.0539 80.4199 20.32C80.4199 20.39 80.0299 20.56 79.9899 20.64C79.9499 20.72 79.7299 20.69 79.7299 20.75Z" fill="#231F20"/>
</svg>
