<svg width="128" height="128" viewBox="0 0 128 128" fill="none" xmlns="http://www.w3.org/2000/svg">
<path d="M112.99 40.99C113.17 41.05 113.34 41.12 113.52 41.19L113.89 41.34C114.04 41.4 114.19 41.47 114.33 41.54L115.18 41.97C115.45 42.12 115.69 42.3 115.94 42.46C116.9 43.14 117.54 43.93 117.88 44.76C118.2 45.59 118.38 46.54 117.97 47.4C117.74 47.8 117.48 48.01 117.15 48.21C116.84 48.41 116.43 48.54 115.95 48.64C114.98 48.82 113.66 48.7 112.45 48.57L111.15 48.41L110.14 48.28C108.8 48.11 107.47 47.95 106.28 47.99C105.68 47.99 105.06 48.13 104.87 48.25C104.87 48.26 104.86 48.27 104.84 48.27C104.8 48.25 104.77 48.17 104.71 48.13C104.69 48.11 104.64 48.08 104.62 48.07H104.63C104.65 48.07 104.59 48.05 104.71 48.1C104.78 48.13 104.91 48.13 104.9 48.12C104.9 48.14 104.91 48.15 104.91 48.17C104.89 48.19 104.96 48.33 104.94 48.33C104.97 48.39 104.99 48.46 105.04 48.5C105.1 48.58 105.25 48.69 105.41 48.8C105.94 49.14 106.69 49.46 107.47 49.72C108.26 49.98 109.08 50.22 109.93 50.45C111.62 50.93 113.35 51.32 115.17 52.13C115.63 52.35 116.09 52.58 116.57 52.96C117.02 53.32 117.6 53.92 117.74 54.81C117.79 55.16 117.82 55.6 117.62 56.12C117.42 56.67 116.9 57.07 116.51 57.21C115.7 57.52 115.16 57.43 114.63 57.4C112.61 57.14 110.97 56.49 109.27 55.9L107.06 55.08C106.3 54.8 105.64 54.55 105.07 54.51C104.78 54.48 104.52 54.52 104.36 54.58C104.2 54.65 104.19 54.69 104.17 54.73C104.15 54.78 104.17 54.93 104.26 55.13C104.36 55.32 104.56 55.55 104.75 55.73C104.75 55.73 104.76 55.73 104.76 55.75C104.87 55.85 105.37 56.04 105.78 56.18C106.23 56.33 106.69 56.47 107.16 56.61L110.03 57.44C111.93 58.1 113.87 58.81 115.54 60.26C115.8 60.47 115.96 60.71 116.04 60.86C116.12 61.01 116.12 61.1 116.07 61.13C115.95 61.21 115.64 61.04 115.1 60.95C114.58 60.84 113.8 60.8 112.89 60.79C111.99 60.74 110.95 60.64 109.84 60.42C108.78 60.16 107.73 59.83 106.64 59.52C106.1 59.36 105.55 59.19 104.98 59C104.69 58.9 104.4 58.79 104.08 58.66L103.55 58.41C103.32 58.27 103.08 58.11 102.87 57.95C102.41 57.52 102.07 57.17 101.75 56.57C101.45 56 101.17 55.26 101.3 54.32C101.41 53.37 102.14 52.44 102.87 52.08C103.6 51.69 104.27 51.62 104.86 51.6C105.44 51.6 105.95 51.7 106.43 51.82L107.11 52.03L107.64 52.22L109.72 52.99C111.09 53.49 112.45 54 113.75 54.34C114.37 54.51 115.07 54.62 115.36 54.61C115.4 54.61 115.41 54.61 115.41 54.61C115.51 54.87 115.53 54.99 115.63 55.14C115.75 55.38 115.86 55.39 115.75 55.35C115.63 55.29 115.6 55.31 115.38 55.28C115.29 55.28 115.2 55.28 115.12 55.28C114.94 55.28 115.03 55.28 115.01 55.28V55.27C114.76 55.32 115.36 55.2 115.29 55.21C115.27 55.21 115.25 55.21 115.23 55.23L115.18 55.26C115.18 55.26 115.07 55.31 115.05 55.32C115.11 55.3 114.77 54.97 114.37 54.77C113.96 54.54 113.45 54.34 112.92 54.15C111.86 53.78 110.7 53.49 109.53 53.19C108.35 52.89 107.15 52.58 105.91 52.15C105.29 51.92 104.66 51.67 104.01 51.28C103.69 51.08 103.35 50.85 103.03 50.52C102.67 50.18 102.41 49.72 102.24 49.25C102.16 48.88 102.08 48.67 102.08 48.3C102.01 47.75 102.24 46.93 102.71 46.42C103.18 45.88 103.71 45.67 104.16 45.51C105.07 45.23 105.85 45.21 106.6 45.2C108.1 45.2 109.5 45.37 110.88 45.54L112.46 45.74C112.74 45.78 113.03 45.81 113.34 45.82C113.49 45.82 113.65 45.82 113.8 45.78C113.96 45.76 114.09 45.63 114.06 45.47C114.06 45.18 113.91 44.9 113.7 44.69C113.44 44.43 113.1 44.24 112.74 44.07C112.64 44.02 112.15 43.83 111.79 43.72C111.41 43.59 111.02 43.47 110.62 43.36C109.83 43.13 109.01 42.93 108.19 42.73L106.95 42.42L105.55 42.06C104.05 41.65 102.6 41.11 101.74 40.38C101.3 40.02 100.91 39.62 100.69 39.1C100.44 38.58 100.47 37.92 100.65 37.33C100.88 36.91 101.17 36.85 101.46 36.74L102.5 36.45C102.96 36.3 103.55 36.21 104.12 36.2C104.68 36.16 105.16 36.05 105.71 36.04C106.92 35.98 107.58 36.04 108.38 36.07C109.16 36.11 109.93 36.18 110.68 36.24C111.2 36.28 111.71 36.32 112.19 36.34C112.43 36.34 112.66 36.34 112.84 36.33C112.88 36.33 112.93 36.33 112.95 36.31C112.96 36.31 112.98 36.31 112.98 36.31C112.98 36.32 112.97 36.28 112.98 36.34C113 36.42 113.02 36.49 113.04 36.57C113.11 36.74 113.1 36.8 113.15 36.91C113.22 37.02 113.23 37.06 113.27 37.1C113.34 37.15 113.3 37.13 113.32 37.14C113.32 37.14 113.24 37.13 113.21 37.14L112.52 37.61C111.9 36.71 110.76 35.95 109.57 35.36C108.36 34.78 107.07 34.28 105.76 33.86C104.98 33.61 104.18 33.43 103.38 33.21C100.41 32.4 99.5402 31.93 98.9402 31.07C98.8002 30.87 98.6102 30.67 98.5302 30.49C98.2302 29.92 99.6802 29.33 102.21 29.47C103.38 29.49 104.49 29.78 105.63 30.04C106.76 30.31 107.89 30.68 109.02 31.1C110.15 31.53 111.25 32.12 112.35 32.82C113.43 33.55 114.57 34.42 115.48 35.97L115.66 36.28L115.72 36.6C115.81 37.13 115.82 37.65 115.48 38.31C115.4 38.45 115.3 38.61 115.22 38.71C115.15 38.8 115.06 38.88 114.98 38.96C114.89 39.04 114.8 39.11 114.7 39.18L114.56 39.27L114.48 39.32C113.95 39.59 113.68 39.6 113.47 39.65C113.04 39.71 112.82 39.69 112.56 39.69C112.09 39.67 111.71 39.63 111.34 39.6C110.64 39.52 109.93 39.43 109.23 39.35C108.55 39.28 107.88 39.19 107.24 39.18H106.82C106.82 39.18 106.82 39.18 106.8 39.18C106.77 39.18 106.75 39.21 106.8 39.24L109.74 40C110.81 40.28 111.89 40.57 113.01 40.96L112.99 41.03V40.99Z" fill="#231F20"/>
<path d="M75.31 94.27C76.44 95.19 77.75 95.85 79.05 96.13C79.7 96.26 80.34 96.28 80.89 96.18C81.44 96.07 81.84 95.84 81.99 95.62C82.07 95.51 82.13 95.41 82.14 95.25C82.14 95.02 82.15 94.75 82.08 94.4C81.98 93.73 81.75 92.96 81.5 92.19C80.98 90.65 80.35 89.07 79.75 87.47C78.87 85.13 77.91 82.76 77.43 80.13C77.23 78.97 77.09 77.78 77.23 76.47C77.38 75.17 77.8 73.95 78.37 72.9C79.47 70.75 80.96 69.04 82.45 67.37C85.48 64.09 88.75 61.17 91.97 58.22C92.63 57.62 93.29 57.02 93.94 56.42C94.33 55.97 94.97 55.99 95.53 56.01C95.96 56.03 96.34 56.06 96.74 56.11C97.52 56.19 98.29 56.3 99.05 56.43C100.58 56.68 102.08 56.98 103.57 57.34C106.01 57.93 108.45 58.59 110.79 59.57C113.12 60.55 115.43 61.73 117.35 63.45C118.53 64.57 118.04 64.71 116.73 64.32C115.38 63.96 113.17 63.28 110.62 62.32C108.01 61.35 105.32 60.51 102.58 59.85C101.21 59.52 99.82 59.24 98.44 59C97.75 58.88 97.06 58.78 96.38 58.71C96.07 58.67 95.65 58.64 95.46 58.63C95.44 58.63 95.42 58.63 95.4 58.63C93.89 60.01 92.37 61.39 90.85 62.78C89.27 64.23 87.7 65.68 86.17 67.17C84.06 69.26 81.96 71.55 80.7 74.09C80.55 74.41 80.39 74.72 80.3 75.04L80.13 75.52L80.02 76C79.86 76.64 79.87 77.25 79.91 77.97C80.02 79.37 80.38 80.81 80.82 82.24C81.78 85.42 83.23 88.48 84.35 91.86C84.63 92.7 84.87 93.61 84.98 94.63C84.98 94.91 85 95.18 85 95.46C84.97 95.77 84.92 96.08 84.81 96.38C84.61 96.99 84.23 97.53 83.78 97.93C82.86 98.74 81.77 99.05 80.76 99.14C79.74 99.23 78.75 99.11 77.82 98.86C75.52 98.23 73.58 96.87 72.02 95.25C70.46 93.62 69.27 91.71 68.37 89.71C67.7 88.22 67.1 86.71 66.58 85.17C66.08 83.64 65.55 82.21 64.91 80.76L64.7 80.28C64.66 80.19 64.53 80.06 64.42 79.92C64.18 79.66 64.02 79.33 63.73 79.13C63.46 78.91 63.21 78.66 62.92 78.46L62 77.92C60.69 77.31 59.2 77.01 57.67 76.82C55.29 76.53 52.83 76.53 50.34 76.2C47.86 75.88 45.26 75.2 43.02 73.71L42.28 73.22C42.02 73.02 41.77 72.8 41.55 72.57C41.1 72.11 40.71 71.61 40.38 71.07C39.18 69.01 39.2 67.25 39.53 66.21C39.83 65.14 40.32 64.65 40.79 64.37C41.02 64.24 41.27 64.08 41.44 64.04C42.11 63.94 41.34 65.57 42.06 67.8C42.26 68.63 42.68 69.44 43.23 70.1C43.5 70.43 43.81 70.73 44.11 70.94L45.33 71.7C47.02 72.62 49 73.08 51.11 73.34C53.23 73.61 55.48 73.66 57.89 73.93C59.09 74.05 60.35 74.29 61.62 74.66C62.89 75.1 64.23 75.66 65.33 76.65L65.95 77.18C66.14 77.37 66.3 77.59 66.48 77.8L67.01 78.45C67.1 78.57 67.24 78.72 67.32 78.93L67.5 79.32C67.86 80.12 68.21 80.94 68.54 81.79C69.2 83.52 69.66 85.07 70.29 86.58C70.94 88.15 71.54 89.57 72.4 90.85C73.23 92.14 74.23 93.29 75.38 94.2L75.34 94.26L75.31 94.27Z" fill="#231F20"/>
<path d="M39.0802 58.15C39.2702 58.99 39.5802 59.75 40.1002 60.38C40.2902 60.61 40.5502 60.77 40.7802 60.97C41.5702 61.71 42.6802 62.3 43.8902 62.84C44.4302 63.08 45.0202 63.23 45.6102 63.4C45.9902 63.49 46.3902 63.6 46.7502 63.81C46.9302 63.92 47.1202 64 47.2702 64.17C47.4102 64.36 47.5402 64.57 47.6602 64.76C47.8002 65.02 47.6502 65.19 47.2802 65.45C47.0402 65.62 46.7902 65.79 46.5902 65.93C46.4602 66.01 46.3202 66.13 46.2002 66.19C46.0802 66.23 45.9802 66.26 45.8802 66.25C45.7102 66.23 45.5402 66.22 45.3502 66.21C45.1702 66.2 45.0202 66.11 44.8402 66.07C44.4902 65.96 44.1502 65.84 43.7802 65.71C43.0602 65.43 42.2802 65.14 41.5502 64.63C40.6902 64.04 39.6302 63.64 38.7702 62.86C37.8402 62.01 37.1502 60.91 36.7502 59.79C36.6302 59.45 36.5402 59.09 36.4402 58.75C36.3502 58.4 36.2702 57.98 36.2602 57.59C36.1802 56.37 36.6302 55.22 37.2002 54.27C37.6402 53.52 38.1302 52.78 38.8102 52.18C38.9602 52.05 39.1002 51.9 39.2702 51.8C39.6102 51.63 39.8702 51.59 40.0902 51.67C40.3302 51.8 40.4902 51.97 40.6402 52.21C40.7102 52.32 40.7802 52.42 40.8302 52.52C40.9102 52.69 40.9202 52.87 40.8902 53.1C40.8602 53.33 40.8402 53.63 40.7202 53.78C40.0802 54.75 39.4602 55.5 39.1702 56.31C39.0702 56.6 38.9902 56.89 38.9902 57.18C38.9902 57.49 38.9902 57.7 39.1502 58.15L39.0902 58.17L39.0802 58.15Z" fill="#231F20"/>
<path d="M39.1401 45.1C39.0201 45.89 39.1601 46.84 39.6401 47.72C39.8401 48.04 40.0901 48.31 40.3301 48.62C40.7201 49.19 41.2101 49.75 41.7301 50.29C42.2701 50.82 42.8701 51.3 43.4801 51.81C44.0201 52.26 44.6401 52.6 45.2501 52.93C46.0501 53.33 46.8201 53.83 47.5501 54.44C47.7701 54.64 47.6401 54.87 47.2801 55.08C46.9301 55.28 46.3201 55.54 45.7601 55.47C44.7501 55.37 43.8301 55.03 42.9301 54.59C42.4801 54.38 42.0401 54.13 41.6201 53.86C41.2201 53.55 40.8301 53.22 40.4701 52.83C39.6201 51.93 38.5101 51.23 37.7401 50.12C36.8901 48.93 36.2901 47.43 36.2601 45.9C36.1901 44.97 36.4301 43.97 36.8201 43.14C37.4101 41.85 38.4401 40.89 39.5101 40.15C40.3501 39.58 41.2001 38.98 42.1901 38.72C42.4001 38.65 42.6101 38.57 42.8401 38.55C43.2501 38.48 43.5401 38.53 43.7401 38.67C43.9401 38.84 44.0601 39.03 44.1601 39.28C44.2001 39.39 44.2601 39.5 44.2801 39.6C44.3201 39.77 44.2801 39.93 44.1601 40.13C44.0401 40.33 43.8701 40.6 43.6401 40.71C43.3101 40.94 42.9801 41.1 42.6901 41.31C42.5401 41.4 42.3901 41.51 42.2501 41.61C42.1101 41.71 41.9601 41.77 41.8201 41.87C41.2601 42.21 40.7501 42.58 40.3401 43.01C39.7101 43.63 39.3001 44.38 39.2201 45.11H39.1501L39.1401 45.1Z" fill="#231F20"/>
<path d="M100.89 40.07C100.85 39.86 100.8 39.6 100.79 39.44V38.97L100.77 38.5C100.77 38.33 100.81 38.14 100.83 37.96C100.87 37.32 101.19 36.27 101.93 35.55C102.1 35.4 102.33 35.22 102.46 35.13H102.53C102.58 35.12 102.64 35.12 102.7 35.13C102.82 35.13 102.96 35.17 103.11 35.2C103.34 35.25 103.37 35.23 103.64 35.27C103.89 35.3 104.19 35.3 104.48 35.21C104.79 35.07 104.67 34.91 104.65 34.82C104.54 34.61 104.24 34.41 103.8 34.22C103.6 34.13 103.35 34.06 103.09 34L102.7 33.93L102.5 33.9L102.2 33.85C101.63 33.74 100.91 33.68 100.29 33.56L99.3501 33.34C99.0401 33.29 98.7401 33.03 98.4301 32.91C98.0701 32.73 98.0101 32.57 98.3501 32.09C98.5201 31.86 98.7901 31.54 99.1601 31.18C99.5101 30.89 99.9401 30.73 100.38 30.68C101.16 30.59 101.89 30.74 102.62 30.81L103.36 30.91L104.35 31.08C105.04 31.21 105.77 31.36 106.43 31.55C107.76 31.92 108.91 32.43 109.64 32.93C110.41 33.43 110.75 33.93 110.96 34.37L111.34 35.2C111.4 35.36 111.45 35.52 111.48 35.74C111.51 35.95 111.48 36.27 111.36 36.44C111.17 36.82 110.9 37.04 110.64 37.26C110.36 37.46 110.13 37.5 109.86 37.56L108.81 37.74L107.97 37.88C107.78 37.91 107.69 37.95 107.43 37.96L106.71 38.01C106.15 38 105.48 37.95 104.94 37.91L104.52 37.88C104.38 37.87 104.44 37.86 104.39 37.85C104.35 37.85 104.25 37.79 104.26 37.82C104.26 37.84 104.23 37.85 104.21 37.85C104.19 37.88 104.18 37.94 104.15 37.98C104.08 38.04 104.09 38.24 104.05 38.38C104.01 38.57 104.05 38.83 104.03 39.05C104.03 39.22 104.05 39.34 104.12 39.47C104.22 39.73 104.53 40.09 104.91 40.39C106.11 41.33 107.76 42.04 109.4 42.58C110.04 42.79 110.7 42.96 111.38 43.12C112.06 43.28 112.74 43.45 113.42 43.74C113.72 43.86 114.03 43.97 114.34 44.14C115.47 44.83 115.52 45.68 115.15 46.29C115.07 46.44 114.99 46.59 114.9 46.69C114.74 46.87 114.5 46.93 114.22 46.98C113.94 47.03 113.58 47.11 113.25 47.07C111.26 46.8 108.92 45.96 106.47 44.88C105.57 44.43 104.61 44.07 103.61 43.45C103.12 43.13 102.61 42.77 102.11 42.26C101.85 42 101.62 41.71 101.37 41.34C101.13 40.94 100.94 40.52 100.83 40.07L100.91 40.05L100.89 40.07Z" fill="#231F20"/>
<path d="M62.0202 22.13C66.8702 22.22 71.6602 22.62 76.4102 23.25C78.1502 23.44 79.8802 23.65 81.6102 23.91C87.6902 24.92 93.7002 26.27 99.6202 27.95C102.25 28.68 104.89 29.47 107.48 30.29L109.96 31.17C110.37 31.32 110.79 31.46 111.2 31.63L112.41 32.17C113.21 32.55 114.03 32.88 114.79 33.34L115.89 34.13C116.25 34.4 116.56 34.75 116.89 35.05C117.68 35.86 117.45 35.9 116.38 35.92C115.26 35.98 113.44 36.05 111.68 35.31C110.89 35 110.14 34.63 109.31 34.37C108.5 34.09 107.69 33.82 106.89 33.52C105.3 32.89 103.62 32.42 102 31.84C100.34 31.33 98.6702 30.83 97.0102 30.32C95.3202 29.85 93.6402 29.38 91.9402 28.9C89.9002 28.39 87.8002 27.89 85.6602 27.56C84.5902 27.39 83.5202 27.21 82.4502 27.04C81.3802 26.89 80.3102 26.74 79.2402 26.59C74.5502 25.93 69.8302 25.37 65.1002 25.18C62.1902 25.03 59.2802 25.04 56.4002 25.22C55.3202 25.33 54.2502 25.47 53.1702 25.6L51.6202 25.96C51.1002 26.07 50.5802 26.2 50.0602 26.39C47.9902 27.09 45.9602 27.92 44.2602 29.11C42.9302 30.02 41.9102 31.23 41.3902 32.62C41.2602 32.97 41.1602 33.32 41.0802 33.69L41.0402 34.13L41.0802 34.56C41.1802 35.13 41.5102 35.72 41.9602 36.29C42.3702 36.79 42.8402 37.26 43.3402 37.76C43.8302 38.23 44.2302 38.62 44.5602 38.94C44.8902 39.29 45.1402 39.6 45.3402 39.88C45.5402 40.16 45.6702 40.4 45.7602 40.63C45.8402 40.87 45.8602 41.09 45.8802 41.3C45.8902 41.49 45.9402 41.7 45.9302 41.82C45.9102 42.03 45.6502 41.97 45.1102 41.84C44.8202 41.79 44.5302 41.65 44.1802 41.47C43.8302 41.29 43.4102 41.08 42.9802 40.79C42.3402 40.35 41.6902 39.89 41.0402 39.34C40.3902 38.8 39.7502 38.19 39.2102 37.37C38.6702 36.56 38.2002 35.5 38.1702 34.28C38.1502 33.71 38.2702 33.01 38.3902 32.61C38.5002 32.14 38.6802 31.69 38.8702 31.23C39.6602 29.41 41.0602 27.91 42.5402 26.87C44.0302 25.79 45.6102 25.04 47.1802 24.39C47.7602 24.14 48.3502 23.93 48.9402 23.72L49.8202 23.42L50.7802 23.17C51.4202 23.01 52.0702 22.85 52.7102 22.7L54.5902 22.45C55.8502 22.25 57.0802 22.21 58.3202 22.14C59.5602 22.05 60.7802 22.06 62.0102 22.06V22.13H62.0202Z" fill="#231F20"/>
<path d="M102.13 37.96L102.53 39.58L102.85 41.22C103.09 42.3 103.21 43.41 103.37 44.51C103.5 45.31 103.6 46.11 103.68 46.91C103.85 49.76 103.84 52.61 103.47 55.42C103.42 56.05 103.3 56.67 103.22 57.29C103.12 57.91 103.08 58.54 102.95 59.15C102.81 59.94 102.62 60.72 102.41 61.49C102.14 62.25 101.85 63 101.52 63.73C101.31 64.18 101.1 64.04 100.92 63.56C100.75 63.08 100.55 62.24 100.64 61.36C100.69 59.78 100.97 58.27 101.11 56.73C101.22 55.97 101.24 55.19 101.32 54.42L101.46 53.26L101.54 52.09C101.58 51.62 101.6 51.15 101.61 50.67C101.59 50.19 101.56 49.71 101.52 49.23C101.47 48.26 101.32 47.3 101.2 46.35C100.96 44.24 100.55 42.15 100.05 40.08C99.7002 38.82 99.3802 37.54 98.9202 36.31C98.2902 34.42 97.5302 32.56 96.6102 30.81C95.8602 29.47 95.0102 28.21 94.1202 26.99C93.9302 26.72 93.7501 26.45 93.5601 26.17C93.2301 25.65 93.0301 25.29 92.9901 24.97C92.9701 24.63 93.0401 24.38 93.2001 24.1C93.2701 23.97 93.3302 23.83 93.4002 23.73C93.5302 23.56 93.7302 23.54 94.0302 23.61C94.3202 23.69 94.7202 23.86 95.0502 24.21C97.1702 26.2 98.7902 28.81 99.9802 31.59C100.86 33.66 101.6 35.8 102.18 37.97L102.12 37.99L102.13 37.96Z" fill="#231F20"/>
<path d="M66.2 113.13C66.19 113.34 65.91 113.4 65.54 113.4C65.42 113.4 65.12 113.26 65.1 113.18C65.05 113.03 65 112.88 64.98 112.74C64.97 112.66 65.1 111.45 65.12 111.01C65.15 110.6 65.31 110.24 65.45 109.88C65.77 109.16 66.07 108.43 66.44 107.72C66.53 107.57 66.64 107.43 66.78 107.32C67.26 106.92 67.6 106.43 67.9 105.91C67.95 105.82 68.02 105.75 68 105.61C67.95 105.38 68.92 104.05 69.16 103.98C69.67 103.72 70.12 103.43 70.59 103.16C70.66 103.12 70.69 103.04 70.82 103.07C71.12 103.14 71.2 103 71.33 102.9C71.5 102.76 71.71 102.65 71.93 102.57C72.04 102.53 72.22 102.56 72.37 102.57C72.51 102.57 72.72 102.86 72.72 102.92C72.73 103.07 72.91 103.13 73.01 103.23C73.05 103.26 73.1 103.31 73.12 103.34C73.16 103.41 72.88 104.8 72.79 104.88C72.75 104.89 71.85 106.37 71.79 106.57C71.76 106.67 71.64 106.71 71.54 106.76C71.48 106.78 70.81 107.97 70.78 108.01C70.58 108.21 70.5 108.5 70.13 108.58C70.06 108.6 70.03 108.65 70 108.7C69.74 109.11 69.41 109.47 69.06 109.82C68.88 110 68.77 110.22 68.61 110.42C68.58 110.46 68.53 110.48 68.49 110.5C68.44 110.54 68.38 110.57 68.35 110.62C68.03 111.12 67.6 111.56 67.36 112.11C67.28 112.22 66.69 112.66 66.62 112.81C66.57 112.89 66.17 113.02 66.17 113.11L66.2 113.13Z" fill="#231F20"/>
<path d="M92.8302 116.56C93.0202 116.67 92.8902 116.94 92.6302 117.28C92.5502 117.39 92.2202 117.59 92.1302 117.57C91.9702 117.54 91.8202 117.51 91.6802 117.47C91.6102 117.44 90.7202 116.73 90.3702 116.52C90.0302 116.31 89.8302 116.02 89.6002 115.74C89.1602 115.16 88.7002 114.59 88.2602 113.99C88.1602 113.86 88.0902 113.71 88.0502 113.54C87.9102 112.97 87.6602 112.47 87.3302 112C87.2802 111.92 87.2502 111.83 87.1102 111.8C86.8802 111.75 86.1502 110.39 86.1602 110.17C86.1602 109.62 86.1102 109.11 86.0802 108.59C86.0802 108.52 86.0202 108.46 86.1002 108.36C86.3002 108.11 86.2002 107.99 86.1702 107.85C86.1102 107.65 86.1202 107.42 86.1502 107.19C86.1702 107.07 86.2602 106.92 86.3302 106.79C86.3902 106.67 86.7002 106.59 86.7502 106.6C86.8802 106.64 87.0002 106.51 87.1202 106.45C87.1602 106.43 87.2102 106.4 87.2502 106.39C87.2902 106.38 87.6002 106.57 87.9602 106.75C88.2902 106.94 88.5802 107.16 88.6102 107.22C88.6102 107.26 89.6502 108.61 89.7702 108.76C89.8402 108.84 89.8202 108.95 89.8202 109.06C89.8202 109.11 90.6102 110.19 90.6302 110.23C90.7202 110.49 90.9402 110.68 90.8502 111.04C90.8302 111.11 90.8702 111.15 90.9002 111.2C91.1702 111.59 91.2702 112.08 91.4302 112.53C91.5102 112.76 91.6502 112.97 91.7602 113.19C91.7802 113.23 91.7602 113.29 91.7802 113.33C91.7802 113.39 91.7802 113.46 91.8202 113.5C92.1002 114.01 92.2902 114.58 92.6202 115.06C92.6802 115.18 92.7502 115.9 92.8502 116.02C92.9002 116.09 92.7702 116.51 92.8502 116.56H92.8302Z" fill="#231F20"/>
<path d="M99.48 103.13C99.65 103.05 99.68 103.35 99.64 103.82C99.63 103.97 99.49 104.4 99.43 104.46C99.32 104.56 99.21 104.67 99.11 104.74C99.05 104.78 98.24 104.89 97.95 104.98C97.68 105.04 97.43 105 97.19 104.95L95.69 104.67C95.58 104.65 95.48 104.6 95.38 104.52C95.05 104.25 94.67 104.16 94.28 104.1C94.21 104.09 94.15 104.05 94.07 104.13C93.93 104.26 92.89 103.94 92.78 103.82C92.51 103.53 92.21 103.31 91.93 103.05C91.89 103.01 91.83 103.02 91.83 102.89C91.83 102.59 91.71 102.59 91.63 102.52C91.51 102.41 91.4 102.29 91.3 102.13C91.25 102.05 91.24 101.89 91.22 101.77C91.2 101.65 91.36 101.37 91.4 101.34C91.5 101.27 91.51 101.1 91.56 100.97C91.58 100.93 91.6 100.87 91.62 100.84C91.64 100.8 91.9 100.7 92.18 100.57C92.46 100.42 92.73 100.32 92.77 100.33C92.8 100.3 93.94 100.51 94.09 100.49C94.16 100.49 94.21 100.57 94.26 100.63C94.28 100.66 95.24 100.72 95.28 100.74C95.46 100.82 95.67 100.79 95.79 101.08C95.81 101.14 95.85 101.14 95.89 101.15C96.22 101.22 96.52 101.42 96.83 101.58C96.99 101.66 97.16 101.69 97.33 101.74C97.36 101.75 97.38 101.79 97.41 101.82C97.44 101.85 97.47 101.89 97.51 101.9C97.91 102.01 98.28 102.25 98.71 102.29C98.8 102.31 99.16 102.74 99.28 102.75C99.34 102.76 99.44 103.16 99.5 103.13H99.48Z" fill="#231F20"/>
<path d="M15.8601 80.39C15.8601 80.39 17.5101 79.32 17.1201 77.89C16.7301 76.46 19.0301 77.22 19.2501 78.43C19.4701 79.64 18.7001 81.32 17.5501 81.47C16.4001 81.62 15.8501 80.4 15.8501 80.4L15.8601 80.39Z" fill="#231F20"/>
<path d="M20.2702 79.02C20.3102 79.57 20.1902 80.13 19.9702 80.61C19.7102 81.1 19.4602 81.42 19.1302 81.73C18.8902 81.95 18.6602 82.18 18.3602 82.33C17.8302 82.58 17.2002 82.66 16.6402 82.55C16.0802 82.44 15.6202 82.15 15.2602 81.82C14.9502 81.52 14.6702 81.21 14.4602 80.85C14.1902 80.4 13.9602 79.78 14.2502 79.24C14.3402 79.07 14.7202 79.22 15.1002 79.38C15.4802 79.55 15.8902 79.64 15.9402 79.71C16.1102 80.02 16.4002 80.32 16.6602 80.58C16.8502 80.75 17.0702 80.57 17.2602 80.42C17.3802 80.33 17.4902 80.22 17.5802 80.08C17.6702 79.94 17.7402 79.87 17.7802 79.73C17.8102 79.63 17.8402 79.52 17.8202 79.41C17.8202 79.34 17.8002 79.27 17.7802 79.21C17.7302 79.08 17.6502 78.95 17.5402 78.84C17.4302 78.74 17.2502 78.67 17.1702 78.7C17.0402 78.72 17.0302 79.03 17.1002 79.11C17.1402 79.14 17.1002 79.11 17.0402 79.09C16.9502 79.05 16.9002 79.05 16.8802 79.05C16.8302 79.05 16.5502 79.06 16.2602 79.13C16.1202 79.16 15.9802 79.2 15.8502 79.24C15.4302 79.38 14.9102 79.26 14.7202 78.63C14.5502 77.73 15.0302 76.86 15.8202 76.41C16.2002 76.18 16.7302 76.03 17.2202 76.04C17.4502 76.04 17.6902 76.08 17.9002 76.13C18.1002 76.17 18.2702 76.24 18.4502 76.32C19.3202 76.73 19.9602 77.55 20.2302 78.45C20.2702 78.64 20.3102 78.83 20.3302 79.02H20.2702Z" fill="#231F20"/>
<path d="M14.8899 24.91C14.7099 25.86 14.1399 26.57 13.4299 27.03C13.1699 27.18 12.9299 27.39 12.6299 27.45C11.5899 27.7 10.4199 27.25 9.98985 26.3C9.76985 25.92 9.58985 25.54 9.49985 25.12C9.43985 24.85 9.40985 24.57 9.44985 24.3C9.54985 24.04 9.63985 23.78 9.88985 23.63C10.0399 23.52 10.3499 23.82 10.6899 24.11C11.0099 24.41 11.4399 24.61 11.4899 24.62C11.5599 24.62 11.3599 24.58 11.3999 25C11.4599 25.25 11.6499 25.16 11.7699 25.13C11.9299 25.11 12.1399 25.03 12.2699 24.84C12.3499 24.71 12.3899 24.64 12.3799 24.54C12.3999 24.4 12.2599 24.15 11.9999 24.09C11.7999 24.05 11.5799 24.21 11.5199 24.34C11.4999 24.37 11.4999 24.41 11.4899 24.43C11.4699 24.48 11.3699 24.31 10.9099 23.87L10.5799 23.57C10.2099 23.26 10.0199 22.82 10.2699 22.46C10.6499 21.96 11.2699 21.68 11.8699 21.64C12.4799 21.6 13.0999 21.75 13.6599 22.12C14.0699 22.39 14.4499 22.79 14.6999 23.3C14.9399 23.81 15.0099 24.4 14.9399 24.92H14.8799L14.8899 24.91Z" fill="#231F20"/>
<path d="M27.0898 14.72C27.0898 14.72 30.1298 13.21 27.9798 11.42C26.0498 9.82 30.7598 10.91 31.3698 12.44C31.9798 13.97 31.9698 14.83 30.7298 15.58C28.5898 16.85 27.0998 14.72 27.0998 14.72H27.0898Z" fill="#231F20"/>
<path d="M30.9099 10.49C31.4699 10.9 31.9399 11.42 32.2599 12.05C32.5899 12.67 32.7499 13.43 32.6499 14.16C32.5799 14.69 32.4599 15.22 32.1799 15.63C31.6899 16.36 31.0099 16.86 30.2499 17.13C29.5099 17.4 28.6299 17.44 27.8799 17.13C27.2199 16.84 26.7099 16.37 26.3699 15.82C25.9299 15.14 25.7099 14.22 26.0999 13.46C26.2199 13.22 26.4799 13.38 26.7499 13.61C27.0099 13.85 27.3599 14.08 27.4699 14.29C27.6499 14.68 27.9799 14.98 28.2599 15.1C28.5499 15.19 28.7099 15.3 29.1399 15.31C29.6499 15.31 30.0599 14.74 30.1799 14.35C30.3399 13.94 30.2899 13.39 29.8699 12.89C29.6199 12.59 29.2699 12.34 28.8899 12.24C28.3299 12.07 27.6799 12.21 27.2399 12.71C26.9199 13.1 26.7999 13.63 26.8099 14.08C26.8099 14.18 26.8099 14.27 26.7799 14.37C26.6999 14.73 26.5799 14.87 26.1499 15.1L25.8699 15.27C25.5799 15.43 25.1699 15.31 24.8799 14.8C24.7099 14.43 24.4899 13.99 24.5199 13.55C24.5199 13.11 24.5899 12.66 24.7499 12.24C25.0399 11.37 25.7299 10.61 26.6399 10.13C27.3099 9.77002 28.1499 9.62002 28.9099 9.71002C29.6699 9.79002 30.3599 10.07 30.9499 10.46L30.9199 10.51L30.9099 10.49Z" fill="#231F20"/>
</svg>
