<svg width="128" height="128" viewBox="0 0 128 128" fill="none" xmlns="http://www.w3.org/2000/svg">
<path d="M82.13 75.47C81.52 75.11 78.07 74.68 77.47 75.33C76.59 76.28 76.87 81.48 76.87 81.48C77.59 81.44 82.59 79.5 82.59 79.5C82.59 79.5 83.08 76.03 82.13 75.46V75.47Z" fill="#231F20"/>
<path d="M28.9701 22.33C28.5701 22.34 21.5701 22.48 20.4401 29.25C19.6601 33.9 18.0701 22.17 21.5001 21.63C25.1001 21.06 28.9701 22.34 28.9701 22.34V22.33Z" fill="#231F20"/>
<path d="M106.41 31.15C106.41 31.15 106.24 23.94 100.22 23.45C96.7902 23.17 106.87 22.69 107.31 25.48C107.75 28.27 106.41 31.15 106.41 31.15Z" fill="#231F20"/>
<path d="M21.6401 98.52C21.6401 98.52 21.5001 104.56 26.2601 105.33C30.0501 105.95 20.8401 106.79 20.4001 104.52C19.9601 102.25 21.6401 98.51 21.6401 98.51V98.52Z" fill="#231F20"/>
<path d="M98.3198 106.02C98.3198 106.02 103.09 105.48 103.62 99.88C104.06 95.25 104.94 106.25 103.62 106.35C102.3 106.45 98.3198 106.03 98.3198 106.03V106.02Z" fill="#231F20"/>
<path d="M34.7 31.71C33.57 31.78 30.17 31.91 30.54 39.05C30.95 47.03 32.48 48.87 32.48 48.87L28.97 47.74C28.97 47.74 26.3 37.58 27.5 33.69C28.7 29.81 33.64 30.68 33.64 30.68L34.7 31.72V31.71Z" fill="#231F20"/>
<path d="M34.3401 79.15C33.9901 79.65 30.6001 80.64 30.3901 85.44C30.2101 89.53 30.9401 95.96 33.1901 96.9C34.4001 97.41 28.0801 97.65 28.0001 95.68C27.9201 93.7 26.5101 81.41 28.4901 79.16C30.4701 76.91 34.3501 79.16 34.3501 79.16L34.3401 79.15Z" fill="#231F20"/>
<path d="M90.53 80.24C90.81 80.31 93.96 81.9 94.52 85.36C95.26 89.95 94.17 96.23 93.28 96.89C92.21 97.69 97.23 97.45 97.23 97.45C97.23 97.45 98.22 86.5 97.58 84.31C96.94 82.12 96.18 80.25 96.18 80.25H90.52L90.53 80.24Z" fill="#231F20"/>
<path d="M91.6599 31.86C91.6599 31.86 94.6999 33.02 95.1499 36.38C95.7099 40.54 95.1499 47.18 93.8399 48.52C92.4499 49.94 97.6599 48.94 98.0799 48.31C98.4999 47.68 98.6399 35.91 98.6399 35.91L97.7899 32.24L91.6499 31.87L91.6599 31.86Z" fill="#231F20"/>
<path d="M26.1401 39.19C26.1101 37.27 26.2001 35.33 26.6401 33.32C26.6701 33.19 26.6801 33.09 26.7301 32.93L26.9201 32.39L27.3001 31.32C27.7501 30.65 28.5001 30.29 29.2701 30.01C29.6601 29.89 29.8301 29.84 30.1101 29.78C30.3701 29.72 30.6001 29.68 30.8501 29.63C31.3401 29.54 31.8101 29.48 32.2901 29.41C33.6701 29.24 35.0101 29.05 36.3701 28.99C38.3901 28.91 40.4001 28.92 42.4201 29.01C43.4301 29.06 44.4401 29.13 45.4801 29.26C46.0101 29.33 46.5101 29.4 47.0801 29.54C47.4401 29.64 47.8301 29.74 48.1601 29.91C48.4801 30.1 48.7901 30.33 48.9601 30.66C49.0701 30.92 49.2001 31.16 49.2801 31.43L49.3901 31.83L49.4701 32.14C49.5301 32.53 49.6201 32.93 49.6401 33.3C49.8701 35.48 49.8901 37.57 49.9201 39.66C49.9201 41 49.8901 42.33 49.8001 43.66C49.7201 44.99 49.5501 46.32 49.1901 47.62C48.7701 48.42 48.7001 48.3 48.2001 47.56C47.9401 47.19 47.7101 46.68 47.4801 46.07C47.2401 45.46 47.0701 44.76 47.0701 44L46.9901 40.84C46.9601 39.79 46.9901 38.75 46.9901 37.71C46.9701 36.68 46.9601 35.64 46.8901 34.65C46.8601 34.15 46.8101 33.66 46.7501 33.21C46.7101 33 46.6901 32.74 46.6401 32.58C46.6401 32.54 46.6501 32.52 46.6401 32.47C46.6401 32.42 46.6101 32.38 46.5801 32.36C46.5601 32.34 46.5401 32.33 46.5201 32.32C46.5201 32.31 46.4601 32.29 46.3201 32.26C45.8601 32.15 45.3401 32.06 44.8101 31.99C41.7301 31.58 38.3401 31.88 35.1201 32.16C34.2301 32.24 33.3501 32.34 32.4901 32.47C32.0601 32.53 31.6301 32.61 31.2201 32.7C30.8401 32.77 30.3201 32.92 30.2501 32.94C30.0801 33 29.8901 33.05 29.8601 33.3L29.7601 33.62L29.6301 34.21C29.4501 35.02 29.3701 35.89 29.3101 36.76C29.1901 38.91 29.3101 41.12 29.5901 43.3C29.7001 44.13 29.8201 44.95 29.9701 45.77L30.0701 46.27L30.1501 46.63C30.1801 46.89 30.4801 46.94 30.6901 47.02C30.8401 47.07 31.3101 47.19 31.7001 47.26C32.1001 47.34 32.5101 47.4 32.9201 47.46C33.7401 47.57 34.5801 47.66 35.4101 47.73C38.0001 47.93 40.5801 47.83 43.1401 47.73C43.7001 47.7 44.2601 47.66 44.8201 47.63C45.8701 47.6 46.5601 47.61 47.0501 47.75C47.5401 47.92 47.8301 48.17 48.0801 48.55C48.1901 48.73 48.3401 48.89 48.4201 49.07C48.5401 49.36 48.4001 49.64 48.0201 49.92C47.6401 50.19 47.0201 50.47 46.2201 50.56C43.8501 50.9 41.4101 51 38.9401 50.96C36.4601 50.91 33.9901 50.75 31.3801 50.33L30.6301 50.19L30.2401 50.11C30.1001 50.08 29.8001 50.01 29.6101 49.94C29.1801 49.8 28.7501 49.66 28.3901 49.41L28.1301 49.23L27.9101 48.99C27.8301 48.92 27.8101 48.79 27.6801 48.76L27.5101 48.5C27.3401 48.1 27.1701 47.67 27.1001 47.28L26.9601 46.69L26.8901 46.33C26.7901 45.85 26.7101 45.38 26.6301 44.9C26.3301 43.01 26.1301 41.11 26.0601 39.17H26.1401V39.19Z" fill="#231F20"/>
<path d="M26.0302 87.39C26.0302 85.46 26.1202 83.52 26.4802 81.52L26.6402 80.76L26.7202 80.38C26.7702 80.22 26.8502 80.02 26.9102 79.84L27.3102 78.74C27.5202 78.42 27.7802 78.09 28.1502 77.91C28.3102 77.79 28.5002 77.71 28.6902 77.64C28.8802 77.56 29.0702 77.48 29.2602 77.44C29.4402 77.39 29.6702 77.32 29.8102 77.29L30.2102 77.22C30.7302 77.13 31.2302 77.07 31.7202 77.02C33.1502 76.89 34.5302 76.76 35.9202 76.77C38.0402 76.78 40.1302 76.89 42.2402 77.09C43.2902 77.19 44.3402 77.32 45.4102 77.5C45.9502 77.6 46.4802 77.69 47.0502 77.85C47.6902 78.02 48.6002 78.33 48.9702 79.02C49.0702 79.25 49.1802 79.47 49.2602 79.69L49.4402 80.33C49.5302 80.69 49.5602 81.02 49.6202 81.36C49.8802 83.59 49.9102 85.73 49.9402 87.85C49.9502 89.21 49.9102 90.57 49.8302 91.93C49.7502 93.29 49.5802 94.64 49.2202 95.97C48.8002 96.78 48.7302 96.66 48.2302 95.92C47.9702 95.55 47.7402 95.03 47.5102 94.41C47.2702 93.79 47.1002 93.07 47.1002 92.3C47.0602 90.2 46.9802 88.11 47.0102 86.04C46.9902 85.01 46.9802 83.98 46.9102 83C46.8802 82.51 46.8302 82.02 46.7602 81.58C46.7202 81.36 46.7002 81.12 46.6502 80.96C46.6502 80.88 46.6502 80.88 46.6502 80.83C46.6502 80.78 46.6202 80.74 46.5802 80.71C46.5602 80.69 46.5302 80.68 46.5002 80.66L46.1302 80.55C45.6002 80.41 45.0102 80.29 44.4202 80.19C41.2702 79.65 37.8102 79.77 34.5302 79.91C33.6302 79.95 32.7202 80.02 31.8602 80.12C31.4202 80.17 31.0002 80.24 30.6102 80.32C30.3402 80.38 30.2102 80.4 30.0402 80.5C29.9002 80.61 29.8902 80.86 29.8002 81.06C29.7202 81.48 29.6102 81.89 29.5402 82.33C29.4002 83.19 29.3002 84.08 29.2602 84.98C29.1302 87.19 29.2002 89.46 29.3902 91.7C29.4702 92.55 29.5502 93.4 29.6702 94.24L29.7402 94.72L29.8002 95.09C29.8302 95.36 30.1402 95.4 30.3502 95.48C30.4802 95.52 30.5602 95.54 30.7702 95.58C30.9702 95.62 31.1702 95.66 31.3802 95.7C31.7902 95.78 32.2102 95.84 32.6302 95.89C33.4702 96 34.3202 96.08 35.1702 96.14C37.8202 96.32 40.4402 96.22 43.0602 96.11C43.6402 96.08 44.2002 96.04 44.7802 96.01C45.8502 95.98 46.5502 95.98 47.0502 96.13C47.5502 96.29 47.8502 96.55 48.1002 96.93C48.2202 97.11 48.3702 97.27 48.4402 97.45C48.5702 97.74 48.4202 98.02 48.0302 98.3C47.6402 98.57 47.0102 98.85 46.2002 98.95C43.7802 99.29 41.3102 99.4 38.7902 99.37C36.2702 99.33 33.7502 99.18 31.1002 98.79L30.3402 98.66C30.1902 98.63 30.1202 98.62 29.9102 98.57L29.2702 98.41C28.8302 98.27 28.3902 98.13 28.0302 97.88L27.7602 97.69C27.6802 97.61 27.6202 97.53 27.5502 97.45C27.4702 97.38 27.4502 97.25 27.3202 97.22L27.1502 96.95C26.9902 96.55 26.8202 96.11 26.7602 95.7L26.6402 95.07L26.5702 94.66L26.3802 93.2C26.1602 91.27 26.0302 89.35 25.9902 87.4H26.0702L26.0302 87.39Z" fill="#231F20"/>
<path d="M97.2299 40.99C97.26 39.66 97.2299 38.34 97.16 37.04C97.1199 36.39 97.0599 35.75 96.9799 35.12C96.9399 34.8 96.8799 34.51 96.8299 34.2C96.8099 34.04 96.7799 33.89 96.7399 33.75C96.7099 33.62 96.7399 33.67 96.7199 33.62C96.7199 33.52 96.6499 33.45 96.5699 33.4L96.5099 33.37C96.5099 33.37 96.4999 33.37 96.3899 33.32C96.2099 33.27 96.0499 33.21 95.8599 33.16C94.7299 32.85 93.4399 32.74 92.1899 32.56C90.1299 32.28 88.0299 32.09 85.9399 32.01C84.8999 31.97 83.8499 31.96 82.8299 32.01C82.3199 32.03 81.8199 32.07 81.3599 32.14L81.1099 32.18C81.0499 32.18 80.9899 32.2 80.9399 32.22C80.8299 32.25 80.7099 32.31 80.6599 32.43C80.5699 32.57 80.5299 32.68 80.4099 33.02C79.8699 34.81 79.7499 36.91 79.6899 38.89C79.5699 41.48 79.7599 44.07 79.3799 46.68C79.0699 47.51 78.9899 47.42 78.3899 46.76C78.0799 46.43 77.7999 45.95 77.4999 45.36C77.3599 45.06 77.2099 44.74 77.1099 44.39C77.0199 44.04 76.9499 43.67 76.9199 43.29C76.7699 41.31 76.6599 39.32 76.8399 37.32C76.9199 36.31 77.0099 35.31 77.1899 34.27C77.2799 33.75 77.3699 33.23 77.5299 32.68C77.5999 32.41 77.6699 32.14 77.7899 31.84C77.9099 31.45 78.1399 31.01 78.3599 30.62C78.4799 30.5 78.5399 30.34 78.7099 30.26C78.8199 30.13 78.9499 30.02 79.0999 29.94C79.3699 29.74 79.6999 29.63 80.0299 29.52C80.1999 29.47 80.3599 29.43 80.5299 29.39C80.6699 29.36 80.7599 29.35 80.8799 29.33C81.1099 29.29 81.3099 29.28 81.5199 29.25C82.3499 29.17 83.1299 29.16 83.9099 29.17C87.2599 29.25 90.65 29.23 94.0499 29.68C94.91 29.8 95.7799 29.95 96.6699 30.18L97.3599 30.38L97.8299 30.55C97.9899 30.61 98.1399 30.69 98.2899 30.77C98.8899 31.06 99.4099 31.55 99.5799 32.2L99.8399 33.22L99.9799 33.99C100.08 34.51 100.12 35.02 100.19 35.53C100.3 36.55 100.35 37.56 100.38 38.56C100.43 40.85 100.34 43.12 100.18 45.39C100.12 46.25 100.03 47.11 99.9299 47.97C99.8399 48.58 99.7899 49.21 99.5199 49.71C99.1999 50.21 98.5999 50.39 98.0199 50.54C97.7399 50.6 97.3899 50.67 97.16 50.7L96.4899 50.78C96.0499 50.82 95.6099 50.86 95.1799 50.88C94.3099 50.93 93.4499 50.96 92.5999 50.98C89.9399 51.02 87.3199 51.07 84.6499 50.8C84.0599 50.74 83.4799 50.69 82.8899 50.59C81.7899 50.39 81.0799 50.14 80.6199 49.84C80.1699 49.5 79.9799 49.15 79.8999 48.69C79.8599 48.48 79.7999 48.27 79.8099 48.08C79.8299 47.77 80.0799 47.57 80.5099 47.47C80.9399 47.36 81.5399 47.3 82.2599 47.42C84.4199 47.69 86.6999 47.83 89.0099 47.9C91.3099 47.96 93.6999 47.97 95.9299 47.74L96.5299 47.67L96.7699 47.63C96.7699 47.63 96.7699 47.69 96.7899 47.57L96.9199 46.28C97.0699 44.53 97.1499 42.75 97.1499 40.99H97.2299Z" fill="#231F20"/>
<path d="M96.3302 89.09C96.3502 87.83 96.3302 86.57 96.2402 85.33C96.2102 84.71 96.1302 84.11 96.0602 83.5L95.9102 82.62C95.8902 82.47 95.8602 82.33 95.8202 82.2C95.8002 82.11 95.8202 82.14 95.8102 82.1C95.8202 81.98 95.7102 81.91 95.6202 81.86C95.6602 81.86 95.3602 81.76 95.1702 81.7C94.9502 81.64 94.7302 81.58 94.5002 81.52C93.3002 81.24 92.0102 81.14 90.7202 80.97C88.7502 80.72 86.7402 80.56 84.7502 80.49C83.7602 80.46 82.7602 80.45 81.7902 80.5C81.3102 80.53 80.8302 80.56 80.4002 80.64C80.2102 80.67 80.1602 80.68 80.0402 80.71C79.9302 80.74 79.8202 80.8 79.7902 80.91C79.7602 80.97 79.7202 81.03 79.6902 81.09L79.5902 81.37C79.5002 81.62 79.4402 81.91 79.3602 82.18C78.9302 84.1 78.8202 86.2 78.7802 88.23C78.6802 90.86 78.8602 93.5 78.4902 96.14C78.1802 96.98 78.1002 96.89 77.5002 96.22C77.1902 95.89 76.9102 95.4 76.6102 94.79C76.4702 94.49 76.3202 94.16 76.2202 93.81C76.1302 93.46 76.0602 93.08 76.0302 92.69C75.8602 90.56 75.7602 88.42 75.9402 86.26C76.0202 85.18 76.1102 84.1 76.3002 82.99C76.3902 82.43 76.4902 81.88 76.6402 81.29C76.7202 80.99 76.7802 80.72 76.9102 80.39C77.0202 79.99 77.2702 79.5 77.5002 79.09C77.8602 78.69 78.2802 78.27 78.8302 78.11C79.0902 78.01 79.3802 77.94 79.6502 77.88L80.2302 77.79C80.9402 77.7 81.6002 77.68 82.2702 77.68C85.6902 77.7 89.1202 77.66 92.5702 78.07C93.5302 78.19 94.4902 78.34 95.4802 78.57C95.7302 78.63 95.9802 78.69 96.2302 78.77C96.3702 78.81 96.4602 78.84 96.6502 78.9C96.8402 78.97 97.0202 79.02 97.1902 79.11C97.5302 79.27 97.8602 79.45 98.1202 79.71C98.2602 79.83 98.3602 79.99 98.4402 80.15C98.5602 80.29 98.5902 80.48 98.6702 80.64C98.9002 81.48 98.9702 81.82 99.0502 82.33C99.1402 82.81 99.2002 83.28 99.2502 83.76C99.3602 84.71 99.4202 85.64 99.4502 86.57C99.5402 88.9 99.4402 91.2 99.2902 93.5C99.2202 94.37 99.1602 95.24 99.0502 96.12L99.0102 96.46L98.9402 96.92C98.9002 97.23 98.8402 97.53 98.7502 97.81C98.7202 97.96 98.6402 98.08 98.5802 98.21C98.4702 98.31 98.3802 98.43 98.2702 98.52C98.0202 98.68 97.7502 98.8 97.4602 98.88C97.1702 98.98 96.8602 99.03 96.5602 99.09C96.2402 99.14 96.0802 99.16 95.8402 99.19C95.3902 99.24 94.9502 99.28 94.5102 99.31C93.6302 99.37 92.7602 99.4 91.8902 99.42C89.1902 99.47 86.5402 99.53 83.8302 99.26C83.2402 99.2 82.6502 99.15 82.0502 99.05C80.9402 98.84 80.2102 98.6 79.7502 98.29C79.3002 97.95 79.1002 97.6 79.0202 97.13C78.9802 96.92 78.9202 96.71 78.9302 96.52C78.9502 96.21 79.2102 96.01 79.6302 95.91C80.0602 95.81 80.6702 95.75 81.4102 95.86C83.6002 96.14 85.9102 96.27 88.2602 96.34C90.5902 96.39 93.0302 96.4 95.2702 96.15L95.8602 96.07C95.9402 96.06 95.8802 96.07 95.9002 96.07L95.9302 95.75L96.0502 94.43C96.1902 92.65 96.2602 90.85 96.2502 89.07H96.3302V89.09Z" fill="#231F20"/>
<path d="M18.2998 26.39C18.4398 25.47 18.5698 24.58 18.7798 23.58C18.9498 22.77 19.1198 21.95 19.6898 21.43L20.1798 21.12C20.3298 21.01 20.5098 20.92 20.6998 20.86L21.2598 20.66C21.4298 20.6 21.6598 20.51 21.7598 20.5C22.4898 20.33 23.1698 20.13 23.8598 20.05C26.2898 19.8 28.6598 19.82 31.0398 19.91C32.0998 19.94 33.1598 19.97 34.2098 20C34.8898 20.04 35.5798 20.04 36.2698 20.15C36.6098 20.21 36.9498 20.35 37.2798 20.52C37.5998 20.7 37.9298 20.88 38.2098 21.18C38.4898 21.69 38.3898 21.67 37.8898 22.06C37.6298 22.27 37.3598 22.45 37.0198 22.7C36.8498 22.82 36.6798 22.95 36.5098 23.03C36.3398 23.11 36.1798 23.17 35.9998 23.21C34.8198 23.15 33.5598 23.1 32.2898 23.08C31.0198 23.02 29.7198 22.91 28.4098 22.8C26.8398 22.66 25.2198 22.99 23.6998 23.25C23.2798 23.31 22.8698 23.41 22.5098 23.49C22.3498 23.52 22.1598 23.55 22.0098 23.65C21.9598 23.72 21.9298 23.8 21.8998 23.89L21.8598 24.02C21.8598 24.02 21.8398 24.11 21.8098 24.23C21.7198 24.65 21.6498 25.08 21.5798 25.52C21.4098 26.6 21.2598 27.7 21.1398 28.8C20.9698 30.47 20.7798 32.15 20.7398 33.82C20.7098 35.12 20.8898 36.4 20.9698 37.68C20.9698 37.96 21.0098 38.24 20.9998 38.52C20.9798 39.57 20.7198 39.89 20.0098 40.12C19.8498 40.17 19.6898 40.24 19.5398 40.27C19.0398 40.38 18.5198 39.94 18.2898 39.15C18.1298 38.56 17.9898 37.97 17.8698 37.37C17.7998 36.77 17.7498 36.17 17.7198 35.56C17.6598 34.34 17.6898 33.12 17.7398 31.88C17.8198 30.05 17.9998 28.22 18.1898 26.37H18.2698L18.2998 26.39Z" fill="#231F20"/>
<path d="M106.2 28.42C106.13 27.6 105.99 26.78 105.82 26.12C105.78 25.97 105.71 25.75 105.71 25.74C105.73 25.73 105.71 25.67 105.68 25.63C105.65 25.59 105.63 25.56 105.58 25.52C105.48 25.45 105.32 25.38 105.17 25.31C104.7 25.11 104.11 25.03 103.54 24.88C101.48 24.36 99.2199 24.05 96.9799 23.95C95.9899 23.92 94.9899 23.96 94.0199 24.09C93.3999 24.17 92.7899 24.3 92.1899 24.41C91.5799 24.48 90.9599 24.41 90.3099 24.32C89.8299 24.09 89.8299 24.07 89.9799 23.45C90.0499 23.12 90.2199 22.78 90.4499 22.39C90.6799 21.99 90.9999 21.63 91.3899 21.45C92.8099 21.03 94.2099 20.9 95.5999 20.83C96.9999 20.81 98.3899 20.95 99.7699 21.22C101.42 21.55 103.14 21.54 104.89 21.98C105.37 22.1 105.86 22.26 106.36 22.46C106.8 22.64 107.55 22.99 108.02 23.54C108.12 23.69 108.25 23.81 108.33 23.98L108.57 24.47C108.69 24.75 108.74 24.99 108.83 25.25C108.96 25.75 109.07 26.23 109.14 26.7C109.33 27.87 109.42 29.01 109.49 30.14C109.59 31.86 109.55 33.58 109.54 35.29C109.53 36.61 109.67 37.93 109.57 39.28C109.55 39.57 109.54 39.87 109.47 40.17C109.27 41.27 108.86 41.57 108.13 41.59C107.96 41.59 107.79 41.62 107.64 41.6C107.14 41.55 106.75 40.99 106.69 40.27L106.53 38.61C106.53 38.06 106.52 37.5 106.51 36.94C106.5 35.81 106.48 34.67 106.47 33.52C106.43 31.82 106.37 30.08 106.14 28.43H106.22L106.2 28.42Z" fill="#231F20"/>
<path d="M21.81 101C21.84 101.64 21.89 102.28 21.97 102.9C22 103.19 22.06 103.56 22.08 103.73C22.08 103.8 22.06 103.88 22.1 103.93C22.13 103.97 22.15 104.02 22.2 104.05C22.22 104.05 22.34 104.14 22.5 104.21C22.76 104.29 22.99 104.37 23.27 104.41C23.56 104.45 23.84 104.5 24.13 104.56C26.25 104.94 28.6 105.08 30.91 105.02C31.94 104.99 32.97 104.88 33.98 104.73C34.63 104.63 35.27 104.49 35.92 104.39C36.57 104.33 37.25 104.42 37.95 104.58C38.43 104.88 38.39 104.9 38.15 105.49C38.04 105.8 37.84 106.13 37.59 106.49C37.34 106.86 37.03 107.21 36.65 107.37C35.28 107.73 33.9 107.93 32.5 108.07C31.1 108.17 29.68 108.13 28.25 107.96C26.54 107.75 24.77 107.9 22.92 107.53C22.44 107.46 21.91 107.27 21.41 107.11L20.51 106.69C20.22 106.48 19.94 106.25 19.66 106.03C19.44 105.74 19.3 105.38 19.18 105.02C19.11 104.85 19.06 104.66 19.03 104.49L18.96 104.08C18.89 103.57 18.82 103.08 18.78 102.58C18.66 101.4 18.62 100.24 18.59 99.07C18.54 97.3 18.64 95.54 18.73 93.78C18.81 92.42 18.78 91.04 19 89.64C19.06 89.34 19.12 89.03 19.21 88.73C19.55 87.6 20.03 87.35 20.74 87.42C20.91 87.44 21.08 87.44 21.23 87.48C21.72 87.6 22.03 88.22 21.99 88.94C21.99 89.5 21.96 90.04 21.97 90.6C21.94 91.15 21.89 91.7 21.87 92.27C21.79 93.39 21.75 94.55 21.73 95.72C21.71 97.46 21.73 99.23 21.89 100.98H21.81V101Z" fill="#231F20"/>
<path d="M106.56 100.79C106.48 101.71 106.39 102.62 106.27 103.58L106.17 104.31C106.13 104.66 106.05 105.11 105.89 105.45C105.82 105.63 105.76 105.82 105.65 105.98C105.61 106.07 105.53 106.14 105.53 106.25L105.31 106.45C105.01 106.71 104.72 106.96 104.36 107.16C103.74 107.46 103.44 107.6 103.04 107.72C102.66 107.86 102.28 107.97 101.92 108.02C100.61 108.24 99.3798 108.27 98.1598 108.25C96.9398 108.25 95.7398 108.16 94.5398 108.07C93.4798 108.01 92.4198 107.95 91.3698 107.88C90.6898 107.85 90.0198 107.83 89.3398 107.75C88.6698 107.62 88.0098 107.34 87.3898 106.9C87.0498 106.44 87.1298 106.44 87.5698 105.98C87.7998 105.74 88.0698 105.52 88.4098 105.25C88.7498 104.98 89.0998 104.75 89.4798 104.69C90.7698 104.71 92.0698 104.8 93.3698 104.86C94.6698 104.96 95.9698 105.12 97.2898 105.28C98.8498 105.46 100.51 105.18 101.86 104.82L102.4 104.67C102.58 104.58 102.6 104.59 102.69 104.57C102.77 104.54 102.84 104.49 102.91 104.44C102.98 104.38 103 104.3 103.02 104.21C103.05 104.1 103.05 104.1 103.1 103.84L103.19 103.19L103.34 101.85C103.45 100.74 103.55 99.61 103.62 98.49C103.73 96.79 103.87 95.07 103.9 93.37C103.92 92.05 103.75 90.74 103.71 89.42C103.71 89.13 103.69 88.84 103.71 88.55C103.78 87.46 104.08 87.13 104.8 86.96C104.96 86.92 105.13 86.87 105.28 86.85C105.78 86.79 106.27 87.27 106.44 88.05C106.56 88.63 106.68 89.22 106.78 89.82C106.84 90.41 106.87 91.01 106.9 91.61C106.94 92.81 106.93 94.04 106.9 95.27C106.86 97.1 106.75 98.93 106.65 100.79H106.57H106.56Z" fill="#231F20"/>
<path d="M26.4501 57.62C25.9901 58.73 26.0901 60.31 26.4101 61.01C26.8301 61.93 31.9401 61.79 32.2901 60.94C32.5301 60.36 32.2101 57.21 31.5101 57.04C30.9401 56.9 27.0101 56.27 26.4501 57.62Z" fill="#231F20"/>
<path d="M51.6499 58.52C51.6499 58.72 44.5199 58.14 42.8999 58.87C41.6899 59.42 42.3799 61.15 42.4399 62.2C42.4899 62.98 52.4299 63.49 54.9199 62.04C56.0499 61.38 54.9699 49.61 55.7499 48.2C56.1299 47.52 66.9799 48.64 68.1799 47.42C69.0099 46.58 69.6399 37.91 68.0499 37.24C66.9899 36.79 65.9899 36.8 65.2099 37.23C64.4299 37.66 65.3799 44.1 64.4599 44.32C63.9099 44.45 53.8099 44.06 52.5099 45.36C51.1599 46.7 51.6699 56.19 51.6499 58.52Z" fill="#231F20"/>
<path d="M31.8 66.88C31.3 67.83 31.25 70.25 32.04 70.54C33.03 70.89 43.68 71.36 44.49 70.65C45.17 70.05 45.18 67.16 44.32 67.01C42.7 66.73 32.38 65.77 31.8 66.88Z" fill="#231F20"/>
<path d="M55.0598 30.51C54.7798 31.63 54.9198 33.96 55.5798 34.07C56.4298 34.21 60.1598 34.65 60.6498 34.08C61.1398 33.51 61.3098 30.37 60.4598 29.99C60.0498 29.8 55.3798 29.25 55.0598 30.51Z" fill="#231F20"/>
<path d="M76.8298 60.23C76.2898 61.38 76.4198 62.83 77.2198 63.24C78.2098 63.75 85.9498 63.08 86.1598 64.13C86.3698 65.19 85.3098 70.1 86.4898 70.62C87.5698 71.1 96.6998 71.51 97.7998 71C98.9698 70.45 98.2598 68.32 97.9698 67.94C97.1698 66.9 91.0098 67.25 90.0598 66.95C89.4698 66.76 91.0498 60.94 89.4298 60.45C87.9998 60.02 77.7498 58.24 76.8298 60.22V60.23Z" fill="#231F20"/>
<path d="M59.0499 91.01C58.5899 92.06 58.6099 93.34 59.1899 93.83C60.0499 94.55 69.6799 94.82 70.3899 94.21C71.0999 93.6 70.9999 77.93 70.0099 77.27C69.3599 76.84 67.6899 76.57 67.0299 76.9C66.3699 77.23 67.5098 89.93 66.8098 90.4C66.2098 90.8 59.6099 89.73 59.0499 91.01Z" fill="#231F20"/>
<path d="M54.4302 74.22C54.0002 74.98 54.2702 78.24 54.6402 78.49C54.8002 78.6 59.1302 78.77 59.5502 78.49C59.9702 78.21 60.0402 74.62 59.6702 74.43C58.7902 73.97 54.7902 73.59 54.4302 74.22Z" fill="#231F20"/>
</svg>
