<svg width="128" height="128" viewBox="0 0 128 128" fill="none" xmlns="http://www.w3.org/2000/svg">
<path d="M83.5801 38.22C82.9601 37.04 82.3401 35.85 81.6701 34.69C81.4301 34.27 81.1201 33.88 80.8801 33.46C80.0201 31.97 79.2701 30.39 78.3901 28.9C78.0101 28.23 77.5701 27.6 77.1301 26.98C76.8601 26.57 76.5301 26.2 76.3001 25.77C76.1001 25.31 75.9101 24.84 75.7301 24.38C75.6301 24.08 75.7801 24.02 76.1301 24.1C76.4701 24.18 77.0501 24.35 77.5601 24.68C77.6701 24.76 77.7801 24.83 77.8801 24.91L78.1201 25.2L78.5901 25.78C78.9001 26.17 79.2101 26.56 79.5001 26.97C80.0901 27.77 80.6501 28.61 81.1501 29.49C81.7501 30.54 82.5801 31.49 83.2401 32.53C83.9801 33.67 84.6901 34.83 85.3901 36L86.6701 38.16C87.3101 39.25 87.9101 40.39 88.5801 41.46C88.8501 41.87 89.1301 42.28 89.4301 42.67C89.7401 43.05 90.0301 43.46 90.2601 43.89C90.3701 44.08 90.5001 44.25 90.5901 44.45C90.9301 45.2 90.8301 45.53 90.3401 45.94C90.2301 46.03 90.1301 46.14 90.0101 46.21C89.6401 46.46 89.0901 46.36 88.6601 45.95C88.0501 45.32 87.3501 44.73 86.9101 43.99C86.4201 43.27 85.9601 42.52 85.5001 41.75C84.8201 40.62 84.1501 39.45 83.5001 38.29L83.5601 38.25L83.5801 38.22Z" fill="#231F20"/>
<path d="M98.9501 61.67C98.7801 61.97 98.6901 62.36 98.6401 62.76C98.6301 62.91 98.6701 63.05 98.6601 63.2C98.6801 63.73 98.7101 64.3 98.8801 64.84C98.9601 65.08 99.0701 65.31 99.1901 65.53C99.3301 65.82 99.5101 66.09 99.6201 66.41C99.6501 66.51 99.5501 66.58 99.3901 66.59C99.2301 66.6 98.9801 66.58 98.8101 66.44C98.2201 65.95 97.9001 65.24 97.7401 64.5C97.6501 64.06 97.5001 63.61 97.4701 63.14C97.4301 62.63 97.4901 62.09 97.6401 61.59L97.8101 61.13L98.0501 60.69C98.3201 60.27 98.6901 59.91 99.0801 59.64C99.3801 59.4 99.6801 59.19 100.02 58.98C100.09 58.95 100.16 58.9 100.24 58.87C100.53 58.77 100.65 58.84 100.78 59.19C100.81 59.27 100.84 59.35 100.86 59.43C100.93 59.71 100.87 59.97 100.73 60.09C100.28 60.42 99.8901 60.64 99.5701 60.91C99.3201 61.1 99.1201 61.36 98.9701 61.67H98.9401H98.9501Z" fill="#231F20"/>
<path d="M26.5302 67.34C29.0802 67.35 31.6402 67.4 34.2102 67.38L37.0102 67.29C40.3102 67.26 43.6102 67.23 46.9102 67.13C48.3702 67.07 49.8402 66.99 51.2902 66.9C52.2202 66.86 53.1502 66.72 54.0902 66.75C55.0302 66.79 55.9802 66.95 56.9202 67.07C57.5102 67.16 57.4302 67.11 56.9402 67.27C56.7002 67.35 56.3602 67.5 55.9502 67.71C55.5402 67.93 55.0602 68.17 54.5302 68.34C50.7602 69.1 46.9402 69.21 43.0802 69.21C40.7702 69.2 38.3802 69.44 36.0302 69.53C33.4402 69.62 30.8402 69.69 28.2502 69.69L23.4502 69.65C21.0302 69.62 18.6002 69.52 16.1802 69.42C14.3102 69.33 12.4502 69.39 10.5602 69.02C10.1402 68.93 9.73016 68.89 9.31016 68.75C7.74016 68.28 7.24016 67.69 7.30016 67.07C7.31016 66.93 7.31016 66.8 7.36016 66.7C7.44016 66.54 7.66016 66.51 7.91016 66.53C8.05016 66.54 8.20016 66.56 8.37016 66.57C8.54016 66.6 8.74016 66.64 8.99016 66.68C10.4202 66.98 12.1002 66.88 13.7302 67.01C15.3902 67.11 17.0902 67.16 18.8102 67.21C21.3602 67.27 23.9302 67.32 26.5102 67.3V67.36L26.5302 67.34Z" fill="#231F20"/>
<path d="M13.3802 76.83C14.2102 78.35 15.0802 79.86 16.0002 81.34C16.3302 81.88 16.7302 82.38 17.0702 82.92C18.2602 84.82 19.4702 86.72 20.7602 88.58C21.3402 89.4 21.9402 90.2 22.5402 90.99C22.9202 91.5 23.3502 91.98 23.6902 92.52C24.0102 93.08 24.3002 93.66 24.5902 94.25C24.7602 94.62 24.6002 94.68 24.2002 94.57C23.8002 94.45 23.0602 94.25 22.4302 93.81C22.3002 93.71 22.1502 93.61 22.0302 93.5L21.6902 93.14L21.0302 92.41C20.5902 91.92 20.1602 91.43 19.7402 90.92C18.9702 89.86 18.2402 88.76 17.5602 87.61C16.7502 86.24 15.6902 84.98 14.7802 83.64C13.7902 82.16 12.8302 80.65 11.9102 79.12C11.3402 78.18 10.7902 77.23 10.2502 76.27C9.41016 74.83 8.67017 73.33 7.87017 71.88C7.27017 70.74 6.54017 69.68 5.92017 68.54C5.78017 68.29 5.65017 68.04 5.56017 67.77C5.40017 67.26 5.33017 66.91 5.38017 66.63C5.45017 66.34 5.60017 66.14 5.83017 65.94C5.94017 65.85 6.03017 65.74 6.14017 65.68C6.32017 65.57 6.53017 65.58 6.78017 65.68C7.03017 65.79 7.34017 65.98 7.55017 66.29L8.06017 66.97C8.24017 67.19 8.42017 67.42 8.55017 67.67C8.84017 68.15 9.08016 68.65 9.37016 69.15C9.90016 70.16 10.4302 71.18 10.9702 72.2C11.7702 73.72 12.5802 75.27 13.4602 76.77L13.4102 76.8L13.3802 76.83Z" fill="#231F20"/>
<path d="M9.41024 61.12C9.83024 60.51 10.3002 59.92 10.7802 59.35C10.9702 59.15 11.1102 58.92 11.3002 58.73C11.9802 58.05 12.7002 57.44 13.4102 56.83C13.7202 56.55 14.0602 56.32 14.3702 56.05C14.7702 55.72 15.1902 55.39 15.6602 55.14C15.8102 55.06 15.8502 55.14 15.8302 55.32C15.8102 55.5 15.7602 55.82 15.6102 56.08C15.3302 56.54 15.0502 57 14.7502 57.43C14.4602 57.86 14.0302 58.16 13.6402 58.51C13.1602 58.91 12.8202 59.46 12.4402 59.96C12.0202 60.51 11.5802 61.04 11.1702 61.61C10.9302 61.97 10.6802 62.32 10.4602 62.69C10.1202 63.25 9.79024 63.82 9.54024 64.42C9.34024 64.89 9.27024 65.4 9.15024 65.89C9.13024 66 9.11024 66.11 9.07024 66.21C8.92024 66.59 8.75024 66.67 8.31024 66.6C8.21024 66.58 8.11024 66.57 8.01024 66.55C7.69024 66.47 7.48024 66.21 7.48024 65.87C7.42024 64.85 7.85024 63.95 8.26024 63.03C8.59024 62.36 8.97024 61.71 9.38024 61.08L9.42024 61.1L9.41024 61.12Z" fill="#231F20"/>
<path d="M78.7402 57.44C78.0202 59.64 77.5302 61.87 77.4702 64.17C77.4602 65.01 77.5102 65.84 77.5702 66.68C77.7102 69.63 78.3902 72.6 79.6902 75.32C80.2402 76.54 80.9702 77.68 81.7402 78.75L82.5402 79.75L83.4002 80.7C83.9502 81.35 84.4602 82.06 85.0902 82.65C85.4602 83.05 85.3802 83.05 84.9302 82.87C84.4902 82.69 83.6302 82.38 82.7102 81.82C81.3202 80.59 80.1802 79.12 79.1902 77.56C78.2002 76 77.4402 74.28 76.9402 72.49C76.3302 70.36 75.7502 68.11 75.6502 65.84C75.5502 63.34 75.8502 60.84 76.5002 58.44C76.9102 56.98 77.4002 55.54 78.0102 54.15C78.9402 52.04 80.2202 50.06 81.7702 48.36C82.9702 47.04 84.2302 45.8 85.6802 44.79C86.0002 44.57 86.3002 44.34 86.6302 44.13C87.2402 43.75 87.6702 43.55 88.0302 43.51C88.3802 43.45 88.6102 43.48 88.8302 43.57C88.9302 43.61 89.0502 43.64 89.1202 43.69C89.3602 43.85 88.9902 44.36 88.2402 45.09C85.8802 46.99 83.4802 48.88 81.7602 51.35C80.4602 53.17 79.5102 55.27 78.8002 57.47H78.7502L78.7402 57.44Z" fill="#231F20"/>
<path d="M76.21 59.03C75.69 58.9 75.17 58.78 74.65 58.68C74.46 58.65 74.27 58.68 74.08 58.63C73.41 58.46 72.72 58.28 72.04 58.18C71.74 58.12 71.43 58.12 71.13 58.12C70.94 58.12 70.75 58.16 70.55 58.13C70.35 58.09 70.16 58.01 69.96 57.9C69.84 57.82 69.84 57.58 69.92 57.28C70.01 56.98 70.17 56.55 70.39 56.39C71.18 56.05 71.99 55.95 72.81 56.21C73.3 56.36 73.8 56.22 74.3 56.24C74.85 56.28 75.39 56.35 75.93 56.42C76.26 56.46 76.6 56.51 76.93 56.55C77.44 56.6 77.94 56.7 78.45 56.68C78.84 56.66 79.24 56.54 79.63 56.47C79.72 56.46 79.8 56.41 79.89 56.46C80.2 56.62 80.28 56.91 80.3 57.38L80.32 57.7C80.32 58.04 80.17 58.36 79.91 58.67C79.72 58.9 79.54 59.03 79.37 59.09C79.19 59.17 79.02 59.23 78.84 59.27C78.48 59.39 78.14 59.32 77.78 59.31C77.26 59.26 76.74 59.15 76.21 59.08V59.02V59.03Z" fill="#231F20"/>
<path d="M16.93 87.83C14.44 84.29 12 80.7 9.69003 77.01C8.54003 75.16 7.41003 73.29 6.37003 71.31C5.85003 70.32 5.36003 69.31 4.93003 68.18C4.72003 67.61 4.52003 67.03 4.41003 66.23C4.35003 65.81 4.39003 65.26 4.49003 64.86C4.59003 64.43 4.73003 64.1 4.88003 63.78C5.32003 62.87 5.83003 62.17 6.36003 61.49C6.89003 60.82 7.43003 60.19 7.99003 59.6C9.11003 58.4 10.28 57.3 11.49 56.24C15.76 52.55 20.27 49.27 24.85 46.1C29.44 42.94 34.12 39.95 38.89 37.08C43.12 34.54 47.4 32.03 51.7 29.68C54.47 28.19 57.24 26.67 60.14 25.38C61.58 24.73 63.04 24.11 64.51 23.54C65.25 23.26 65.99 22.98 66.74 22.72C67.49 22.47 68.27 22.28 69.03 22.07C70.96 21.61 70.81 22.05 69.44 23.12C68.09 24.25 65.56 25.96 62.37 27.53C51.01 33.05 40.01 39.45 29.25 46.42C26.04 48.51 22.85 50.78 19.76 53.21C16.68 55.64 13.66 58.18 10.95 60.89C10.21 61.64 9.50003 62.4 8.87003 63.19C8.25003 63.96 7.66003 64.84 7.48003 65.47C7.29003 65.72 7.64003 66.8 8.02003 67.69C8.42003 68.62 8.90003 69.56 9.41003 70.49C11.46 74.21 13.85 77.83 16.28 81.39C19.28 85.78 22.4 90.1 25.61 94.35C27.45 96.78 29.29 99.21 31.18 101.6L32.61 103.38L33.9 104.94C34.18 105.27 34.46 105.59 34.77 105.9C34.85 105.97 34.92 106.06 35.03 106.1C35.1 106.04 35.11 105.92 35.16 105.83L35.27 105.53L35.33 105.38L35.36 105.31V105.27L35.38 105.25V105.24C35.38 105.24 35.33 105.15 35.43 105.32C35.33 105.15 35.4 105.27 35.38 105.24V105.2L35.4 105.15L35.44 105.05L35.51 104.85L35.65 104.44L36.12 103.1C36.44 102.17 36.76 101.24 37.09 100.31C39.12 94.4 40.97 88.57 42.84 82.67C43.25 81.37 43.65 80.1 44.06 78.79C45.67 73.96 46.37 72.5 47.56 71.79C47.82 71.63 48.11 71.39 48.33 71.32C49.07 71.08 48.97 73.26 47.87 76.81C46.4 81.69 44.73 86.64 43.04 91.66C42.18 94.16 41.32 96.69 40.45 99.22C40.01 100.48 39.57 101.75 39.12 103.02L38.45 104.92L37.91 106.46L37.58 107.4L37.41 107.87L37.33 108.1L37.29 108.22L37.27 108.28V108.31L37.25 108.32C37.2 108.24 37.36 108.52 37.13 108.14C37.36 108.52 37.19 108.25 37.25 108.33L37.23 108.37L37.19 108.42L37.12 108.52L36.98 108.71L36.69 109.09C36.59 109.2 36.5 109.38 36.4 109.44L36.12 109.57L35.84 109.7C35.7 109.74 35.57 109.75 35.46 109.76C35.23 109.76 34.98 109.75 34.71 109.66C34.04 109.46 33.27 108.71 32.55 107.95C32.19 107.58 31.8 107.15 31.49 106.78L30.89 106.09L28.78 103.56C27.39 101.86 26.03 100.16 24.69 98.43C22.03 94.96 19.44 91.44 16.89 87.89L16.95 87.83H16.93Z" fill="#231F20"/>
<path d="M44.7402 66.04C49.8902 66.01 55.0902 65.91 60.1302 65.38C60.7802 65.3 61.4202 65.21 62.0302 65.09L62.4702 64.99L62.6002 64.96L62.6602 64.94C62.7302 64.92 62.8202 64.88 62.8402 64.79L63.0402 64.4C63.1502 64.2 63.2302 63.94 63.3402 63.71C64.5402 60.8 65.4202 57.55 66.2702 54.36C67.1102 51.15 67.8602 47.9 68.5802 44.65C69.2102 41.76 69.7302 38.83 70.2602 35.94L70.7502 33.15L71.3202 30.37C71.6902 28.51 72.1802 26.68 72.7902 24.87C73.3702 23.78 73.2102 23.91 73.4302 24.96C73.5602 25.49 73.6402 26.22 73.7502 27.11C73.8002 27.55 73.8602 28.04 73.8702 28.54C73.8702 29.04 73.8502 29.57 73.8002 30.11L73.5002 33C73.4002 33.96 73.2102 34.91 73.0702 35.87C72.7602 37.78 72.4502 39.69 72.0502 41.59C71.2802 45.39 70.4202 49.18 69.4002 52.97C68.8302 55.16 68.2502 57.39 67.6702 59.63C67.3502 60.75 67.0602 61.88 66.6802 63.01C66.5102 63.57 66.3102 64.14 66.0802 64.71C65.9602 65 65.8802 65.27 65.7402 65.56L65.2102 66.64C65.1202 66.75 65.0402 66.87 64.9602 66.99C64.8402 67.07 64.7602 67.2 64.6302 67.27C64.2102 67.56 63.5902 67.72 63.1902 67.82C62.8302 67.91 62.4902 67.97 62.1502 68.03C61.4702 68.15 60.8002 68.23 60.1402 68.32C58.8102 68.48 57.4902 68.6 56.1802 68.7C53.5502 68.9 50.9202 69.03 48.2902 69.12C45.0502 69.23 41.8202 69.28 38.5902 69.27C33.6902 69.27 28.7702 69.09 23.9102 68.87C20.1302 68.7 16.4102 68.61 12.6402 68.18C11.8102 68.08 10.9902 68 10.1502 67.85C7.05019 67.27 6.08019 66.66 5.75019 65.62C5.67019 65.39 5.55019 65.15 5.53019 64.95C5.49019 64.31 6.80019 64.16 8.91019 64.51C12.0802 64.98 15.4202 65.23 18.8202 65.45C22.2202 65.66 25.6902 65.81 29.1702 65.9C34.3502 66.05 39.5602 66.05 44.7602 65.97V66.05L44.7402 66.04Z" fill="#231F20"/>
<path d="M55.2502 99.8499C57.4902 98.5499 59.7202 97.2099 61.9102 95.8099C62.7102 95.2999 63.4702 94.7199 64.2702 94.2199C67.0902 92.4199 69.9102 90.5899 72.6802 88.7099C73.9102 87.8699 75.1102 86.9699 76.2802 86.0799C77.0302 85.4999 77.7702 84.9099 78.5602 84.3699C78.9502 84.0999 79.3402 83.8299 79.7402 83.5699C80.1302 83.2999 80.6102 83.1399 81.0402 82.9199C81.6002 82.6799 81.6402 82.8699 81.4402 83.4399C81.3402 83.7299 81.1902 84.1199 81.0002 84.5699C80.7802 84.9999 80.4602 85.3999 80.0502 85.7699C78.6302 87.0999 77.0502 88.2299 75.4902 89.3999C73.9202 90.5499 72.3202 91.6699 70.6602 92.7199C68.6702 93.9599 66.7602 95.4899 64.7802 96.8499C62.6002 98.3399 60.3902 99.7899 58.1602 101.2C56.7902 102.07 55.3902 102.92 54.0002 103.76C51.8902 105.04 49.7102 106.23 47.5502 107.42C45.8702 108.34 44.2602 109.35 42.4602 110.17C42.0502 110.34 41.6702 110.54 41.2402 110.68C39.6202 111.12 38.9202 110.87 38.5502 110.12C38.4602 109.95 38.3602 109.78 38.3202 109.6C38.2502 109.31 38.3702 109.02 38.6002 108.78C38.8202 108.55 39.1702 108.31 39.6202 108.11C42.3502 106.85 45.4102 105.32 48.4402 103.67C50.7002 102.44 52.9702 101.16 55.2002 99.8099L55.2402 99.8699L55.2502 99.8499Z" fill="#231F20"/>
<path d="M77.6598 68.49C76.3198 61.24 78.5898 53.5 83.4198 48.12C85.1398 46.11 87.1998 44.33 89.5198 43.04C93.6498 40.82 98.3798 39.83 102.98 40.26C105.29 40.43 107.55 41.03 109.68 41.89C110.2 42.13 110.76 42.31 111.26 42.6L112.77 43.44C113.72 44.09 114.7 44.7 115.54 45.5C118.63 48.17 120.94 51.63 122.35 55.39C123.27 57.8 123.71 60.41 123.66 63C123.65 63.65 123.62 64.3 123.53 64.94L123.39 65.9C123.33 66.22 123.24 66.53 123.17 66.84L122.94 67.78L122.63 68.69C122.42 69.29 122.23 69.9 121.88 70.45C120.96 71.79 121.03 71.54 120.96 70.15C120.9 69.79 120.97 69.41 120.94 68.94C120.92 68.48 120.91 67.97 120.92 67.44C120.89 66.89 120.85 66.31 120.85 65.71C120.83 65.41 120.81 65.1 120.78 64.78C120.78 64.47 120.8 64.15 120.78 63.83C120.75 62.68 120.66 61.54 120.43 60.42C120.32 59.86 120.22 59.3 120.04 58.76L119.84 57.93L119.58 57.12C118.89 54.95 117.82 52.89 116.46 51.05C113.8 47.31 109.8 44.76 105.23 43.7C99.7698 42.43 93.4698 43.77 88.8998 47.26C88.2898 47.76 87.6298 48.21 87.0898 48.79L86.2398 49.62C85.9798 49.92 85.7298 50.24 85.4798 50.55L84.7198 51.48C84.4598 51.79 84.2098 52.1 84.0198 52.45L82.7598 54.5C81.2898 57.35 80.4698 60.53 80.4098 63.74C80.3398 67.69 81.3198 71.73 83.4498 75.11C86.5398 80.31 92.1398 84.01 98.0998 84.73C102.76 85.24 107.43 83.86 111.33 81.52C112.2 81.01 112.99 80.41 113.79 79.8C114.16 79.52 114.5 79.26 114.82 79.02C115.12 78.77 115.4 78.54 115.65 78.33C116.18 77.94 116.54 77.56 116.93 77.32C117.74 76.88 118.23 76.61 118.76 76.49C119 76.43 119.27 76.31 119.44 76.3C119.73 76.28 119.7 76.63 119.43 77.37C119.17 78.11 118.67 79.28 117.57 80.39C114.46 83.82 110.07 86.2 105.32 87.28C102.94 87.81 100.43 87.99 97.9198 87.75C97.2898 87.67 96.6598 87.62 96.0398 87.47C95.4098 87.35 94.7898 87.22 94.1998 87C93.0098 86.6 91.7898 86.27 90.6798 85.66C87.2898 84.07 84.3098 81.62 82.0598 78.64C79.7898 75.66 78.2698 72.15 77.5898 68.49L77.6698 68.47L77.6598 68.49Z" fill="#231F20"/>
<path d="M90.5799 55.68C92.1799 53.31 94.7099 51.81 97.3399 50.9C99.9799 49.89 103.16 50.06 105.63 51.33C107.45 52.24 109.05 53.53 110.19 55.2C111.18 56.66 111.9 58.38 111.97 60.26C112.06 62.14 111.3 64.08 109.87 65.38C109.14 66.03 108.17 66.48 107.16 66.59C106.14 66.69 105.1 66.43 104.28 65.89C103.43 65.39 102.82 64.55 102.4 63.86C101.97 63.16 101.59 62.45 101.23 61.75L100.55 60.44C100.48 60.32 100.42 60.19 100.35 60.07C100.33 60.04 100.31 60.01 100.29 59.99C100.26 59.99 100.22 60.01 100.19 60.01L99.9899 60.08C99.8099 60.15 99.6299 60.24 99.4699 60.35C99.3299 60.44 99.1999 60.54 99.0799 60.65C98.9499 60.75 98.8399 60.86 98.7399 60.99C98.3299 61.47 98.0499 62.05 97.9399 62.69C97.8099 63.37 97.8899 64.19 98.1399 64.68C98.4399 65.26 98.9699 65.72 99.5299 65.99C100.1 66.26 100.75 66.3 101.39 66.07C102.04 65.86 102.62 65.38 103.25 64.83C104.13 64.18 104.03 64.18 103.94 65.27C103.85 65.79 103.7 66.62 102.99 67.38C102.32 68.13 100.99 68.87 99.4499 68.63C98.7899 68.54 98.1499 68.3 97.5899 67.95C97.0299 67.6 96.5799 67.12 96.1799 66.62C95.9999 66.33 95.8399 66.14 95.6699 65.76C95.4999 65.4 95.4099 65.09 95.3399 64.78C95.1999 64.16 95.1499 63.55 95.1999 62.95C95.2699 61.74 95.7099 60.5 96.5099 59.52C96.9199 59.04 97.3799 58.61 97.8799 58.28L98.3699 57.97C98.5599 57.86 98.7599 57.79 98.9599 57.71C99.3599 57.56 99.7399 57.38 100.15 57.25L100.69 57.27H100.96L101.09 57.28H101.12C101.09 57.39 101.2 57.03 101.04 57.53H101.06L101.12 57.56C101.39 57.66 101.74 57.74 102.04 57.98C102.49 58.65 102.96 59.69 103.08 59.92C103.48 60.73 103.87 61.53 104.28 62.27C104.72 63.05 105.03 63.54 105.52 63.85C105.99 64.18 106.56 64.29 107.12 64.21C107.79 64.09 108.48 63.62 108.9 62.86C109.4 62.16 109.57 61.28 109.51 60.39C109.51 59.94 109.36 59.49 109.27 59.03C109.08 58.59 108.95 58.13 108.68 57.72C108.23 56.86 107.56 56.11 106.85 55.44C106.06 54.7 105.12 54.14 104.15 53.69C103.16 53.31 102.12 53.04 101.06 53.02C100.01 53.04 98.9499 53.2 97.9399 53.63C96.9399 54.08 96.0299 54.74 95.2099 55.48C93.1699 57.28 91.6099 59.7 91.1899 62.41C91.0299 63.43 91.0199 64.48 91.2799 65.51L91.6799 67.06L92.3299 68.5C93.3199 70.36 94.9299 71.83 96.8799 72.61C98.3899 73.19 100.03 73.44 101.64 73.28C103.24 73.1 104.81 72.69 106.23 71.97C106.56 71.84 106.83 71.61 107.12 71.44C107.4 71.25 107.72 71.1 107.98 70.87C109.03 70.12 109.59 69.51 110.12 69.18C110.36 69 110.56 68.85 110.78 68.77C111.02 68.7 111.26 68.67 111.49 68.64C111.71 68.62 111.94 68.55 112.11 68.56C112.39 68.56 112.44 68.85 112.36 69.47C112.34 69.8 112.19 70.14 111.98 70.55C111.75 70.93 111.42 71.33 111.04 71.78C110.77 72.13 110.43 72.4 110.1 72.68C109.76 72.95 109.44 73.28 109.07 73.51C108.33 73.98 107.59 74.49 106.75 74.81C105.13 75.58 103.33 75.98 101.49 76.08L100.1 76.1L98.6999 75.93C98.2299 75.89 97.7699 75.76 97.3099 75.63C96.8499 75.48 96.3799 75.41 95.9399 75.19C94.1199 74.5 92.5199 73.26 91.2099 71.8C90.7899 71.21 90.3599 70.62 89.9799 70L89.0899 68.04C88.8899 67.37 88.7199 66.69 88.5399 66.01C88.4299 65.68 88.4099 65.31 88.3399 64.95C88.2799 64.59 88.1999 64.23 88.1899 63.87C87.9399 60.95 88.7899 57.93 90.5099 55.63L90.5799 55.67V55.68Z" fill="#231F20"/>
<path d="M101.3 30.92C101.42 31.12 101.24 31.34 100.95 31.55C100.86 31.62 100.55 31.66 100.49 31.61C100.37 31.51 100.26 31.41 100.16 31.3C100.1 31.23 99.5601 30.15 99.3701 29.79C99.1801 29.44 99.0401 29.07 98.9201 28.71C98.6501 27.97 98.4501 27.21 98.2301 26.44C98.1801 26.27 98.1601 26.1 98.1601 25.92C98.1601 25.3 98.0201 24.71 97.8301 24.14C97.8001 24.04 97.7901 23.94 97.6801 23.86C97.5101 23.74 97.0901 22.14 97.1101 21.91C97.1401 21.3 97.1601 20.8 97.1801 20.26C97.1801 20.18 97.1401 20.11 97.2301 20.02C97.4501 19.81 97.3901 19.66 97.4001 19.49C97.4001 19.26 97.4201 19.02 97.4601 18.78C97.4801 18.66 97.5801 18.53 97.6501 18.41C97.7101 18.3 97.9901 18.31 98.0301 18.33C98.1401 18.42 98.2501 18.31 98.3601 18.28C98.4001 18.28 98.4501 18.26 98.4801 18.26C98.5201 18.26 98.7301 18.55 98.9801 18.85C99.2301 19.15 99.5001 19.45 99.5201 19.52C99.5701 19.54 100.16 21.33 100.23 21.53C100.28 21.63 100.24 21.76 100.23 21.87C100.23 21.92 100.72 23.36 100.72 23.42C100.76 23.73 100.91 24.02 100.77 24.37C100.74 24.44 100.77 24.5 100.79 24.56C100.93 25.08 100.97 25.63 101.03 26.17C101.06 26.45 101.15 26.71 101.2 26.98C101.2 27.03 101.2 27.08 101.19 27.14C101.19 27.21 101.17 27.27 101.19 27.33C101.3 27.98 101.3 28.65 101.46 29.29C101.49 29.44 101.41 30.2 101.44 30.37C101.46 30.47 101.24 30.84 101.29 30.91L101.3 30.92Z" fill="#231F20"/>
<path d="M107.75 32.23C107.78 32.42 107.53 32.46 107.11 32.48C106.98 32.48 106.62 32.38 106.59 32.31C106.53 32.17 106.46 32.01 106.43 31.86C106.4 31.75 106.63 30.55 106.75 30.18C106.85 29.81 107.01 29.46 107.19 29.14C107.55 28.48 107.92 27.84 108.3 27.21C108.38 27.07 108.49 26.95 108.62 26.84C109.05 26.46 109.38 26.02 109.66 25.54C109.71 25.46 109.77 25.39 109.76 25.27C109.73 25.06 110.6 23.84 110.77 23.73C111.19 23.45 111.56 23.13 111.96 22.83C112.02 22.79 112.03 22.71 112.16 22.73C112.45 22.77 112.5 22.63 112.61 22.52C112.75 22.37 112.93 22.25 113.12 22.14C113.22 22.09 113.39 22.1 113.54 22.09C113.68 22.09 113.94 22.34 113.95 22.39C113.99 22.53 114.17 22.58 114.3 22.67C114.34 22.7 114.4 22.74 114.43 22.77C114.5 22.83 114.33 24.21 114.23 24.29C114.23 24.3 113.99 24.67 113.74 25.06C113.5 25.45 113.25 25.85 113.21 25.94C113.17 26.03 113.06 26.08 112.97 26.13C112.93 26.16 112.24 27.34 112.21 27.38C112.01 27.58 111.92 27.86 111.58 27.95C111.51 27.97 111.49 28.02 111.46 28.07C111.19 28.47 110.82 28.79 110.49 29.14C110.32 29.32 110.19 29.53 110.04 29.72C110.01 29.75 109.96 29.77 109.93 29.8C109.88 29.84 109.83 29.86 109.8 29.91C109.47 30.38 109.06 30.8 108.82 31.31C108.76 31.43 108.26 31.84 108.2 31.97C108.17 32.04 107.78 32.15 107.79 32.23H107.75Z" fill="#231F20"/>
<path d="M111.09 35.45C111 35.6 110.81 35.45 110.54 35.17C110.45 35.08 110.29 34.76 110.31 34.69C110.34 34.56 110.38 34.43 110.44 34.32C110.48 34.24 111.21 33.67 111.45 33.45C111.68 33.25 111.94 33.1 112.2 32.98C112.72 32.71 113.26 32.52 113.79 32.33C113.91 32.29 114.03 32.27 114.16 32.27C114.61 32.28 115.01 32.15 115.4 31.97C115.46 31.94 115.53 31.93 115.57 31.83C115.64 31.67 116.67 31.28 116.81 31.28C117.19 31.29 117.54 31.24 117.89 31.21C117.94 31.21 117.97 31.15 118.05 31.22C118.25 31.38 118.32 31.29 118.41 31.26C118.54 31.21 118.69 31.17 118.83 31.16C118.9 31.16 119.03 31.22 119.16 31.27C119.27 31.31 119.45 31.6 119.46 31.64C119.46 31.77 119.61 31.86 119.71 31.97C119.74 32.01 119.78 32.06 119.8 32.09C119.82 32.12 119.71 32.42 119.54 32.71C119.38 32.98 119.18 33.26 119.13 33.27C119.1 33.31 117.81 34.04 117.68 34.11C117.61 34.16 117.51 34.14 117.42 34.14C117.38 34.14 116.37 34.67 116.33 34.67C116.1 34.72 115.91 34.86 115.63 34.75C115.58 34.73 115.53 34.75 115.49 34.77C115.13 34.91 114.73 34.95 114.35 35.02C114.15 35.05 113.98 35.13 113.79 35.19C113.76 35.19 113.71 35.19 113.68 35.19C113.63 35.19 113.58 35.18 113.54 35.19C113.1 35.31 112.62 35.32 112.21 35.5C112.12 35.54 111.57 35.48 111.48 35.55C111.43 35.58 111.12 35.4 111.08 35.47L111.09 35.45Z" fill="#231F20"/>
</svg>
