<svg width="128" height="128" viewBox="0 0 128 128" fill="none" xmlns="http://www.w3.org/2000/svg">
<path d="M45.1 111.18C42.73 109.78 40.48 108.17 38.37 106.41C37.59 105.78 36.82 105.14 36.08 104.47C33.54 102.02 31.26 99.34 29.15 96.55C28.23 95.31 27.25 94.09 26.36 92.84C25.24 91.22 24.03 89.64 23.44 87.69C23.29 87.06 23.34 87.13 23.86 87.41C24.44 87.65 25.37 88.18 26.13 89.01C27.35 90.58 28.62 92.08 29.71 93.72C30.86 95.31 32.03 96.91 33.24 98.48C34.69 100.36 36.51 102.05 38.3 103.67C40.26 105.47 42.35 107.13 44.58 108.6C45.25 109.07 45.97 109.47 46.67 109.91C47.36 110.31 48.08 110.66 48.83 110.96C51.08 111.87 53.59 112.35 55.99 111.95C57.85 111.64 59.53 110.8 60.93 109.63C61.24 109.38 61.54 109.12 61.81 108.81C62.07 108.54 62.3 108.32 62.49 108.15C62.66 107.95 62.81 107.8 62.95 107.68C63.22 107.45 63.45 107.36 63.7 107.34C63.82 107.34 63.95 107.3 64.04 107.31C64.35 107.34 64.17 108.01 63.47 109.02C62.36 110.44 60.86 111.71 59.08 112.51C57.31 113.33 55.3 113.63 53.35 113.6C50.46 113.55 47.51 112.73 45.08 111.22L45.1 111.18Z" fill="#231F20"/>
<path d="M105.04 96.05C104 98.96 102.77 101.85 101.11 104.55C100.46 105.51 99.8798 106.53 99.0798 107.4C97.7198 109.02 95.7698 110.26 93.7498 110.83C91.7198 111.42 89.5898 111.47 87.5798 111.12C85.7898 110.79 84.0498 110.19 82.4798 109.32C80.4398 108.25 78.6598 106.51 77.8398 104.36C77.5598 103.71 77.7098 103.75 78.2098 104.12C78.4698 104.3 78.7998 104.57 79.2298 104.84C79.4498 104.97 79.6998 105.1 79.9298 105.25C80.1498 105.41 80.3698 105.59 80.6198 105.76C81.0398 106.07 81.4498 106.37 81.8898 106.64C82.2998 106.94 82.7198 107.23 83.1798 107.46C83.4098 107.58 83.6198 107.72 83.8498 107.83L84.5598 108.13C85.0198 108.36 85.5198 108.48 85.9998 108.65C87.9598 109.23 90.0398 109.45 92.0698 109.15C93.2898 109 94.4798 108.51 95.4998 107.8C96.0298 107.47 96.4598 107.02 96.9098 106.59C97.3298 106.11 97.7298 105.57 98.1398 105.07C99.8298 102.71 101.1 99.98 102.15 97.18C102.78 95.44 103.39 93.69 103.89 91.89C104.66 89.18 105.36 86.42 105.87 83.65C106.26 81.5 106.54 79.37 106.86 77.22C106.93 76.75 106.98 76.28 107.07 75.81C107.38 74.05 107.64 73.51 108.22 73.23C108.35 73.17 108.49 73.08 108.61 73.05C109.03 72.96 109.22 73.73 109.13 75.04C108.86 78.92 108.4 83.01 107.49 87.06C106.85 90.07 106.07 93.09 105.11 96.06H105.05L105.04 96.05Z" fill="#231F20"/>
<path d="M45.6599 62.45C45.6599 62.45 49.6799 68.52 52.4699 69.88C54.1899 70.72 51.7299 66.79 51.7299 66.79L45.6499 62.44L45.6599 62.45Z" fill="#231F20"/>
<path d="M25.3301 77.98C25.1901 78.69 24.7701 84.78 27.3101 90.84C29.8501 96.9 22.6201 87.16 22.6201 87.16L25.3301 77.98Z" fill="#231F20"/>
<path d="M77.8198 56.82C77.8198 56.82 76.6198 61.81 73.9498 66.08C71.9798 69.24 72.7798 62.59 72.7798 62.59L77.8098 56.82H77.8198Z" fill="#231F20"/>
<path d="M104.67 66.94C104.67 66.94 107.92 75.44 106.36 81.62C105.22 86.15 109.31 71.35 109.31 71.35L104.66 66.94H104.67Z" fill="#231F20"/>
<path d="M55.9902 104.11C55.7102 104.69 55.2802 105.22 54.7102 105.57C54.1302 105.93 53.4802 106.09 52.8802 106.07C52.4502 106.07 52.0202 106.04 51.6302 105.88C50.9502 105.59 50.3602 105.11 50.0102 104.46C49.6302 103.83 49.6002 102.96 49.8302 102.37C50.0402 101.83 50.2802 101.3 50.7502 100.99C51.0402 100.78 51.3602 100.62 51.7002 100.53C52.0402 100.44 52.4302 100.48 52.7302 100.64C52.9202 100.74 52.8302 100.84 52.6502 100.97C52.4702 101.08 52.2502 101.33 52.1002 101.48C51.9502 101.59 51.8302 101.76 51.7902 101.98C51.7602 102.07 51.7602 102.19 51.7402 102.27C51.7002 102.34 51.6702 102.42 51.6402 102.49C51.5202 102.8 51.5402 103.02 51.5202 103.24C51.5402 103.6 52.0302 103.83 52.4302 103.88C52.9002 103.96 53.2902 103.86 53.5802 103.51C53.7702 103.3 53.9102 102.98 53.9302 102.66C53.9602 102.17 53.7802 101.69 53.3202 101.5C52.9702 101.34 52.5302 101.49 52.2602 101.67L52.1102 101.81C51.9302 101.91 51.8202 101.81 51.3102 101.36L50.9602 101.07C50.5702 100.76 50.4202 100.24 50.8202 99.81C52.0102 98.6 54.2502 98.67 55.5802 100.25C56.0702 100.83 56.3102 101.55 56.3602 102.23C56.4102 102.91 56.2902 103.56 56.0402 104.16L55.9802 104.14L55.9902 104.11Z" fill="#231F20"/>
<path d="M90.3599 103.42C89.2499 104 88.1699 103.77 87.4399 103.36C87.1599 103.21 86.8699 103.08 86.6499 102.85C86.2599 102.45 85.9599 101.9 85.8799 101.29C85.8199 100.65 86.0199 100.14 86.2699 99.74C86.4899 99.38 86.7199 99.08 86.9399 98.81C87.2299 98.47 87.5099 98.12 87.9599 98.03C88.0999 98 88.3299 98.32 88.5099 98.7C88.6799 99.08 88.8199 99.52 88.7099 99.68C88.4999 99.96 88.3499 100.21 88.2499 100.39C88.1499 100.56 88.0999 100.68 87.9899 100.73C87.8399 100.81 88.0199 100.95 88.1899 101.08C88.3799 101.24 88.6699 101.36 88.8299 101.34C88.9299 101.34 89.0399 101.3 89.1099 101.21C89.2199 101.09 89.3199 100.75 89.1499 100.47C89.0299 100.25 88.7099 100.2 88.5799 100.27C88.5499 100.27 88.5199 100.33 88.5099 100.33C88.4799 100.37 88.5199 100.19 88.4399 99.5L88.3699 99.03C88.2699 98.51 88.4299 98.02 88.9299 97.93C89.6599 97.81 90.4099 98.14 90.8999 98.61C91.3999 99.09 91.7099 99.7 91.8199 100.4C91.8999 100.91 91.8799 101.51 91.6199 102.08C91.3699 102.65 90.9299 103.16 90.4099 103.47L90.3699 103.42H90.3599Z" fill="#231F20"/>
<path d="M31.5898 101.25C27.8598 97.1 24.4198 92.68 21.4298 87.96C18.4598 83.27 15.6498 78.46 13.3898 73.32C12.5798 71.44 11.8098 69.53 11.1898 67.54C10.5898 65.56 10.1098 63.43 10.0498 61.31C9.60984 53.88 12.0098 46.56 15.8498 40.42C17.7898 37.34 20.0498 34.48 22.6798 31.96C23.9998 30.69 25.3498 29.49 27.0298 28.48C28.6498 27.56 30.4598 26.84 32.3798 26.57C34.0998 26.35 35.7898 26.45 37.4798 26.92C39.1498 27.41 40.6398 28.3 41.9198 29.38C44.4798 31.56 46.2498 34.4 47.5298 37.35C49.1598 41.17 49.9398 45.23 50.4098 49.26C50.6398 51.27 50.7898 53.28 50.9298 55.27C51.0998 57.26 51.0298 59.26 51.1198 61.24C51.1798 63.72 51.0398 63.43 50.2598 61.4C49.8798 60.38 49.3598 58.92 48.8498 57.13C48.3998 55.34 48.1298 53.23 47.8798 50.97C47.4598 46.98 46.8398 43.05 45.4798 39.45C44.1598 35.89 41.9998 32.52 39.0198 30.64C37.5298 29.7 35.9498 29.27 34.1698 29.28C32.4598 29.28 30.7698 29.8 29.1398 30.66C28.2898 31.1 27.6198 31.54 26.8398 32.14C26.0898 32.73 25.3498 33.37 24.6298 34.04C23.2098 35.4 21.8298 36.83 20.6098 38.4C19.1298 40.26 17.7598 42.25 16.6498 44.4C16.0398 45.45 15.6098 46.58 15.0998 47.68L14.4798 49.39L14.1698 50.25L13.9298 51.13L13.4598 52.89C13.3398 53.48 13.2498 54.09 13.1398 54.68C12.8798 55.87 12.8698 57.09 12.7598 58.3C12.6998 59.51 12.7898 60.73 12.8098 61.93C12.9298 63.1 13.1198 64.28 13.4098 65.45C14.7198 70.62 17.1298 75.61 19.7798 80.39C21.1098 82.78 22.5398 85.16 24.0098 87.46C25.5198 89.74 27.0898 91.99 28.7998 94.15C32.9798 99.44 37.6098 104.47 42.9098 108.58C44.9098 110.11 47.0598 111.58 49.3198 112.36C49.8698 112.59 50.4998 112.64 51.0798 112.79C51.6798 112.84 52.2898 112.95 52.8998 112.92C54.1098 112.94 55.3198 112.73 56.4698 112.33C58.7698 111.56 60.8498 110.06 62.4398 108.19C63.2298 107.28 63.7998 106.19 64.2298 105.08C64.6498 103.96 64.7998 102.76 64.7798 101.57C64.7498 99.7 64.2098 97.86 63.4398 96.13C62.6698 94.41 61.6098 92.74 60.6398 91.01C58.6898 87.58 56.8398 84.09 55.1698 80.48C54.4298 78.89 53.7398 77.32 53.0898 75.67C51.9198 72.59 51.3498 70.47 51.1498 68.93C50.9298 67.4 50.9898 66.49 51.2098 65.74C51.2998 65.4 51.3698 64.97 51.4698 64.77C51.8298 64.11 52.5198 66.64 54.0998 71C56.3898 77.51 59.7798 83.82 63.2698 90.21L64.5898 92.63C65.0498 93.47 65.4798 94.36 65.8598 95.28C66.6098 97.12 67.1898 99.13 67.2298 101.26C67.2998 103.38 66.8098 105.59 65.7698 107.47C65.4998 107.93 65.2098 108.37 64.9198 108.82C64.5998 109.26 64.2598 109.67 63.9098 110.05C63.2098 110.81 62.4498 111.5 61.6398 112.14C59.2498 114.02 56.1698 115.28 52.9998 115.28C51.4098 115.3 49.8998 115.1 48.3698 114.57C47.5698 114.34 46.9398 113.97 46.2298 113.65C45.5798 113.29 44.9298 112.93 44.3098 112.54C39.4198 109.37 35.3598 105.42 31.5198 101.29L31.5598 101.24L31.5898 101.25Z" fill="#231F20"/>
<path d="M33.1301 46.51C33.1001 46.45 33.0801 46.41 33.0901 46.39C33.2601 46.2 33.5401 45.76 33.5901 45.59C33.6301 45.44 33.6501 45.42 33.6401 45.33C33.6401 45.33 33.6301 45.27 33.6501 45.33C33.6501 45.33 33.7201 45.46 33.7901 45.51C33.8701 45.59 34.0101 45.72 34.1401 45.78L34.5601 45.83C34.4501 46 34.3101 46.21 34.2601 46.53C34.2001 46.77 34.2601 47.07 34.2401 47.36C34.1601 48.43 34.2901 49.68 34.5301 50.9C34.6501 51.44 34.8101 51.98 34.9701 52.52C35.0701 52.87 35.2101 53.2 35.2701 53.57C35.3001 53.94 35.3301 54.32 35.2501 54.72C35.2001 54.97 35.0001 54.97 34.6701 54.86C34.3401 54.74 33.8201 54.55 33.5401 54.23C33.1101 53.64 32.8401 52.97 32.5301 52.3C32.3101 51.6 32.1301 50.85 32.0601 50.07C31.9901 49.13 31.6001 48.2 31.6001 47.13C31.6001 46.36 31.7101 45.5 32.1501 44.66L32.2001 44.56V44.54C32.4101 44.28 32.7101 43.93 33.2701 43.79C33.8501 43.66 34.2801 43.87 34.5401 44.03C35.0301 44.36 35.2401 44.68 35.4601 44.99C35.6601 45.3 35.8201 45.61 35.9701 45.92C36.4101 46.85 36.6501 47.81 36.9101 48.76C37.1001 49.5 37.4101 50.23 37.5201 51.07C37.5501 51.25 37.5901 51.44 37.5901 51.64C37.5901 52 37.4301 52.24 37.2401 52.36C37.0101 52.48 36.7401 52.5 36.4001 52.47C36.2501 52.46 36.1001 52.45 35.9601 52.42C35.7301 52.37 35.5401 52.26 35.3401 52.11C35.1501 51.97 34.9101 51.79 34.8301 51.63C34.3901 50.68 34.1901 49.68 33.8801 48.61C33.6701 47.85 33.3701 46.98 33.0901 46.55L33.1401 46.5L33.1301 46.51Z" fill="#231F20"/>
<path d="M45.06 62.7C44.35 62.07 43.68 61.38 42.99 60.69C42.74 60.44 42.45 60.22 42.21 59.95C41.38 58.99 40.61 57.95 40.04 56.8C39.78 56.3 39.49 55.82 39.24 55.32C39.09 54.99 38.89 54.69 38.78 54.35C38.7 54 38.64 53.64 38.65 53.27C38.73 53.01 38.88 53.01 39.26 53.07C39.63 53.14 40.12 53.3 40.36 53.58C41.06 54.66 41.71 55.65 42.4 56.75C42.76 57.45 43.45 57.94 44.04 58.5C44.69 59.12 45.38 59.72 46.08 60.33C46.51 60.71 46.94 61.09 47.39 61.46C48.07 62.02 48.73 62.63 49.43 63.17C49.97 63.6 50.62 63.9 51.15 64.36C51.27 64.45 51.4 64.54 51.51 64.65C51.92 65.06 51.87 65.36 51.54 65.82C51.46 65.93 51.39 66.04 51.31 66.13C51.03 66.44 50.59 66.54 50.18 66.41C49.64 66.15 49.05 65.94 48.59 65.59C48.1 65.26 47.64 64.89 47.16 64.52C46.45 63.94 45.73 63.35 45.01 62.76L45.05 62.71L45.06 62.7Z" fill="#231F20"/>
<path d="M75.7002 80.51C75.1402 75.21 73.4302 69.97 71.7002 64.68C69.9802 59.38 68.1802 53.92 67.6602 48.1C67.3002 43.89 67.5002 39.5 69.0102 35.38C69.6602 33.57 70.5902 31.83 71.6802 30.27C72.7802 28.7 74.0502 27.23 75.5902 26C77.1102 24.77 78.8702 23.75 80.8402 23.22C81.8102 22.93 82.8302 22.82 83.8502 22.77C84.8502 22.78 85.9102 22.86 86.8302 23.1C88.7302 23.47 90.5002 24.2 92.2202 25.01C93.8802 25.9 95.4902 26.89 96.9402 28.06C99.8802 30.36 102.36 33.14 104.51 36.12C105.45 37.45 106.34 38.82 107.13 40.29C107.9 41.76 108.54 43.28 109.07 44.83C110.13 47.94 110.72 51.17 110.98 54.39C111.15 56.46 111.15 58.54 111.11 60.58C111.06 62.63 110.96 64.67 110.8 66.72C110.62 68.76 110.45 70.81 110.07 72.83C109.87 73.84 109.66 74.85 109.41 75.85C109.3 76.35 109.12 76.84 108.95 77.33C108.77 77.82 108.64 78.31 108.4 78.78C107.86 79.96 107.58 80.44 107.59 80.4C107.57 80.36 107.78 79.77 107.84 78.68C107.93 77.6 107.84 76.05 107.86 74.22C107.86 73.31 107.82 72.31 107.86 71.26C107.91 70.22 107.97 69.11 108.05 67.96C108.2 65.92 108.29 63.88 108.34 61.84C108.38 59.79 108.41 57.76 108.27 55.79C108.02 51.82 107.25 47.9 105.76 44.3C105.03 42.48 104.11 40.84 102.99 39.19C101.88 37.56 100.65 35.99 99.3102 34.52C96.6202 31.64 93.6202 28.96 90.1002 27.32L89.3202 26.94L88.5102 26.64C87.9702 26.43 87.4202 26.24 86.8602 26.12C85.7202 25.79 84.6702 25.66 83.5802 25.72C81.4102 25.83 79.2702 26.8 77.4902 28.29C75.7002 29.77 74.1902 31.71 73.0502 33.82C71.9202 35.91 71.2002 38.24 70.8302 40.63C69.9802 45.92 70.8302 51.4 72.3102 56.72C73.7602 62.06 75.8202 67.32 77.2402 72.85C78.1102 76.25 78.7602 79.76 78.8202 83.33C78.9102 86.92 78.2902 90.4 77.9002 93.79C77.6102 96.36 77.4702 98.88 78.0402 101.3C78.5802 103.7 79.7402 105.95 81.6002 107.53C83.4202 109.16 85.7902 110.13 88.2302 110.64C90.6502 111.18 93.2002 111.08 95.2402 109.92C96.0302 109.47 96.7202 108.91 97.2902 108.17C97.5702 107.79 97.8902 107.47 98.1302 107.05L98.8802 105.83C99.7702 104.12 100.54 102.32 101.18 100.47C102.48 96.77 103.43 92.93 104.34 89.08C104.74 87.38 105.07 85.7 105.45 83.97C106.16 80.77 106.63 78.66 107.12 77.21C107.65 75.77 108.09 74.96 108.6 74.35C108.83 74.07 109.07 73.69 109.26 73.54C109.58 73.29 109.69 73.84 109.67 75.05C109.65 76.26 109.55 78.16 109.09 80.52C108.47 84.04 107.78 87.62 106.95 91.22C106.12 94.82 105.15 98.45 103.79 102.05C103.14 103.85 102.31 105.65 101.33 107.42L100.5 108.73C100.23 109.17 99.8402 109.59 99.5102 110.01C98.8502 110.87 97.9002 111.67 96.9102 112.26C94.8902 113.47 92.5302 113.88 90.3702 113.76C88.1702 113.63 86.2202 113.13 84.2402 112.34C82.7902 111.74 81.3702 110.96 80.1002 109.94C78.8302 108.91 77.7602 107.62 76.9302 106.22C76.0702 104.81 75.5902 103.26 75.2102 101.72C75.0802 100.95 74.9402 100.17 74.8702 99.4C74.8402 98.63 74.7602 97.86 74.7902 97.1C74.8302 96.35 74.8402 95.57 74.9002 94.84C74.9602 94.11 75.0402 93.4 75.1302 92.69L75.6302 88.52C75.9502 85.78 76.0002 83.19 75.6902 80.51L75.7602 80.49L75.7002 80.51Z" fill="#231F20"/>
<path d="M75.61 56.76C76.12 55.96 76.61 55.14 77.09 54.3C77.26 53.99 77.35 53.65 77.52 53.34C78.09 52.24 78.66 51.12 79.08 49.94C79.27 49.42 79.39 48.88 79.54 48.35C79.63 48.01 79.66 47.65 79.8 47.32C79.95 46.99 80.15 46.66 80.34 46.33C80.47 46.12 80.55 46.16 80.72 46.38C80.87 46.59 81.23 47.01 81.4 47.47C81.43 47.57 81.47 47.68 81.48 47.77V48.06L81.44 48.64C81.41 49.02 81.38 49.41 81.29 49.78C81.09 50.52 80.84 51.24 80.49 51.93C80.08 52.76 79.89 53.69 79.53 54.55C79.14 55.5 78.69 56.42 78.18 57.31C77.86 57.85 77.54 58.4 77.21 58.93C76.72 59.75 76.15 60.52 75.65 61.32C75.26 61.94 74.99 62.65 74.54 63.24C74.45 63.37 74.38 63.52 74.25 63.63C73.8 64.05 73.54 64.08 73.05 63.8C72.94 63.74 72.83 63.68 72.73 63.61C72.4 63.38 72.3 62.96 72.41 62.52C72.57 61.87 72.78 61.26 73.06 60.7C73.37 60.17 73.71 59.64 74.06 59.12C74.56 58.33 75.1 57.55 75.56 56.72L75.62 56.75L75.61 56.76Z" fill="#231F20"/>
<path d="M83.9198 44.94C83.9598 44.67 83.9798 44.18 83.7798 43.85C83.6998 43.72 83.6398 43.94 83.5998 43.89C83.4298 43.7 83.2798 43.68 83.1998 44.02C83.1698 44.17 83.1998 44.45 83.2498 44.7C83.3298 45.06 83.4499 45.23 83.4099 45.51C83.3999 45.62 83.1798 45.81 82.7898 45.78C82.5098 45.78 82.3798 45.66 81.9598 45.4C81.5598 45.16 81.3198 44.72 81.1398 44.26C80.8998 43.45 80.8798 42.71 80.8398 42.02C80.8398 41.35 80.8398 40.68 80.9698 40.27C81.1498 39.3 81.5398 38.98 81.8598 38.82C82.2798 38.67 82.4298 38.02 83.0998 37.82C83.1998 37.79 83.3198 37.77 83.4398 37.76L83.8098 37.84C84.0398 37.91 84.2798 37.96 84.4598 38.1C84.8598 38.33 85.1098 38.69 85.3598 39.05C85.5098 39.28 85.6298 39.54 85.7598 39.8C85.8598 40.09 85.9798 40.35 86.0698 40.66C86.3598 41.56 86.4798 42.65 86.6298 43.66C86.6998 44.06 86.7699 44.45 86.8699 44.88C86.9199 45.07 86.9598 45.36 86.9998 45.5C87.0398 45.66 87.0698 45.82 87.0998 45.99C87.1198 46.14 87.1498 46.28 87.1298 46.44C87.0998 46.74 87.0098 46.9 86.7898 47.02C86.5898 47.13 86.3498 47.16 86.0098 47.12C85.8598 47.11 85.6998 47.1 85.5598 47.07C85.0898 46.96 84.6798 46.69 84.3998 46.4C84.2898 46.18 84.1198 45.95 84.0698 45.72L83.9799 45.37C83.9499 45.32 83.9198 45.34 83.8998 45.33C83.8098 45.32 83.7898 45.35 83.7898 45.35C83.7898 45.36 83.8599 45.25 83.8699 45.11L83.9198 44.95V44.94Z" fill="#231F20"/>
<path d="M28.9501 65.47C28.1501 67.4 27.5001 69.43 27.0001 71.5C26.8101 72.26 26.7301 73.03 26.5701 73.79C26.0001 76.48 25.5701 79.23 25.3601 82C25.2901 83.23 25.2301 84.47 25.2601 85.69C25.3001 87.26 25.4301 88.82 25.1101 90.43C24.8901 90.94 24.8101 90.89 24.3501 90.51C23.9101 90.13 23.2101 89.4 23.0301 88.47C22.8301 87.65 22.7401 86.82 22.6901 85.99C22.6301 85.16 22.5901 84.33 22.5801 83.49C22.6101 81.82 22.8301 80.16 23.1301 78.51C23.5001 76.54 23.6201 74.46 24.0101 72.45C24.4401 70.24 25.0201 68.05 25.7501 65.91C26.1901 64.59 26.7301 63.3 27.2901 62.02C28.1601 60.09 29.2601 58.25 30.4701 56.51C31.4201 55.16 32.3601 53.8 33.5801 52.61C33.8501 52.35 34.0901 52.06 34.4001 51.84C34.9501 51.4 35.3701 51.18 35.7401 51.18C36.1001 51.16 36.3901 51.29 36.7001 51.58C36.8401 51.71 37.0001 51.83 37.1201 51.97C37.5101 52.46 37.3101 53.17 36.7101 53.8C34.8901 55.62 33.2001 57.58 31.7601 59.92C30.7001 61.64 29.7701 63.52 29.0201 65.48L28.9501 65.46V65.47Z" fill="#231F20"/>
<path d="M101.41 62.18C100.13 60.45 98.7702 58.76 97.2402 57.2C96.6702 56.64 96.0902 56.1 95.5002 55.57C94.4702 54.61 93.4402 53.63 92.3302 52.75C91.2602 51.82 90.1102 50.97 88.9602 50.14C87.9502 49.38 86.8302 48.76 85.7702 48.09L84.7202 47.48C84.3702 47.28 83.9902 47.12 83.6602 46.88C82.9802 46.44 82.3202 45.95 81.7302 45.34C81.3502 44.97 81.4702 44.88 81.9902 44.82C82.2502 44.79 82.6202 44.75 83.0602 44.71C83.4902 44.7 83.9602 44.75 84.4202 44.9C84.8402 45.02 85.2302 45.18 85.6002 45.38C85.9902 45.55 86.3502 45.77 86.7302 45.97C87.4702 46.38 88.2102 46.79 88.9502 47.22C89.6702 47.67 90.3402 48.2 91.0302 48.71C91.7102 49.23 92.3902 49.74 93.0202 50.33C94.5702 51.68 96.3002 52.92 97.8502 54.34C99.5202 55.93 101.13 57.6 102.53 59.45C103.43 60.55 104.21 61.76 104.99 62.94C106.11 64.79 107.09 66.73 107.89 68.73C108.21 69.5 108.48 70.29 108.8 71.06C109.03 71.86 109.34 72.65 109.51 73.47C109.59 73.83 109.68 74.19 109.75 74.56C109.92 75.95 109.66 76.42 109.04 76.71C108.89 76.78 108.75 76.86 108.6 76.9C108.1 77.02 107.65 76.5 107.41 75.61C106.75 72.97 105.92 70.31 104.67 67.74C103.77 65.83 102.62 64.01 101.37 62.25L101.42 62.21L101.41 62.18Z" fill="#231F20"/>
<path d="M111.02 29.44C110.9 29.53 110.77 29.39 110.64 29.14C110.6 29.06 110.57 28.81 110.6 28.76C110.66 28.67 110.71 28.59 110.77 28.52C110.81 28.49 111.41 28.14 111.59 27.97C111.77 27.82 111.96 27.71 112.14 27.61C112.52 27.4 112.9 27.23 113.26 27.01C113.34 26.96 113.43 26.94 113.53 26.92C113.86 26.88 114.15 26.72 114.39 26.5C114.43 26.46 114.48 26.44 114.49 26.35C114.49 26.19 115.21 25.73 115.32 25.7C115.62 25.65 115.9 25.55 116.19 25.46C116.23 25.45 116.24 25.4 116.33 25.44C116.53 25.54 116.57 25.45 116.65 25.41C116.76 25.35 116.87 25.28 117.01 25.25C117.08 25.23 117.2 25.28 117.32 25.3C117.42 25.32 117.62 25.57 117.63 25.6C117.66 25.71 117.79 25.78 117.89 25.87C117.92 25.9 117.96 25.94 117.99 25.97C118.05 26.03 117.82 26.97 117.73 27.03C117.73 27.03 117.51 27.26 117.28 27.5C117.05 27.72 116.82 27.96 116.75 28.03C116.7 28.09 116.61 28.09 116.54 28.11C116.52 28.13 115.76 28.78 115.71 28.77C115.52 28.84 115.36 28.99 115.1 28.92C115.05 28.91 115.02 28.93 114.98 28.95C114.67 29.11 114.32 29.17 113.98 29.25C113.81 29.29 113.65 29.36 113.48 29.41C113.45 29.41 113.41 29.41 113.38 29.41C113.34 29.41 113.29 29.4 113.25 29.41C112.86 29.54 112.42 29.52 112.03 29.63C111.94 29.66 111.46 29.55 111.36 29.58C111.3 29.6 111.07 29.42 111.03 29.45L111.02 29.44Z" fill="#231F20"/>
<path d="M108.35 22.26C108.45 22.35 108.25 22.42 107.88 22.49C107.76 22.51 107.39 22.51 107.34 22.49C107.24 22.44 107.14 22.39 107.07 22.33C107.03 22.3 106.85 21.79 106.77 21.61C106.7 21.44 106.69 21.27 106.69 21.1C106.69 20.76 106.69 20.41 106.69 20.07C106.69 19.99 106.71 19.92 106.75 19.85C106.89 19.6 106.92 19.34 106.9 19.08C106.9 19.04 106.91 18.99 106.85 18.94C106.75 18.86 106.81 18.15 106.9 18.07C107.06 17.86 107.18 17.65 107.32 17.45C107.34 17.42 107.32 17.38 107.4 17.37C107.58 17.33 107.57 17.26 107.6 17.19C107.64 17.1 107.68 17.01 107.76 16.93C107.8 16.89 107.9 16.86 107.99 16.83C108.07 16.8 108.31 16.88 108.34 16.9C108.41 16.96 108.54 16.95 108.64 16.96C108.68 16.96 108.72 16.98 108.75 16.98C108.81 17 109.16 17.6 109.15 17.66C109.15 17.66 109.15 17.86 109.17 18.07C109.18 18.28 109.2 18.49 109.22 18.54C109.23 18.59 109.19 18.63 109.15 18.67C109.13 18.69 109.19 19.31 109.18 19.33C109.14 19.45 109.19 19.58 109.02 19.69C108.99 19.71 108.99 19.74 108.99 19.76C108.99 19.98 108.91 20.19 108.85 20.4C108.82 20.51 108.83 20.62 108.82 20.73C108.82 20.75 108.79 20.77 108.78 20.79C108.77 20.81 108.74 20.84 108.74 20.86C108.74 21.12 108.64 21.38 108.69 21.65C108.7 21.71 108.51 22 108.54 22.07C108.55 22.11 108.3 22.24 108.34 22.27L108.35 22.26Z" fill="#231F20"/>
<path d="M30.4098 19.76C30.5398 19.81 30.4198 19.97 30.1798 20.19C30.0998 20.26 29.8298 20.4 29.7698 20.39C29.6698 20.38 29.5598 20.36 29.4798 20.34C29.4298 20.32 28.9998 19.89 28.8398 19.75C28.6798 19.62 28.5698 19.46 28.4698 19.29L27.8398 18.3C27.7898 18.23 27.7598 18.14 27.7498 18.05C27.6998 17.74 27.5598 17.48 27.3798 17.24C27.3498 17.2 27.3298 17.15 27.2498 17.14C27.1198 17.12 26.7298 16.41 26.7298 16.3C26.7098 16.02 26.6598 15.75 26.6198 15.48C26.6198 15.44 26.5698 15.42 26.6198 15.35C26.7398 15.2 26.6698 15.14 26.6498 15.07C26.6098 14.96 26.5898 14.85 26.5898 14.73C26.5898 14.67 26.6498 14.57 26.6998 14.49C26.7398 14.41 26.9898 14.31 27.0198 14.32C27.1198 14.32 27.2098 14.23 27.2998 14.18C27.3298 14.16 27.3798 14.14 27.3998 14.13C27.4598 14.1 28.1598 14.46 28.1898 14.52C28.1898 14.52 28.3298 14.72 28.4798 14.93C28.6298 15.13 28.7798 15.34 28.8198 15.38C28.8598 15.42 28.8498 15.49 28.8498 15.55C28.8498 15.58 29.3198 16.17 29.3198 16.21C29.3698 16.36 29.4898 16.47 29.4198 16.68C29.4098 16.72 29.4198 16.75 29.4398 16.77C29.5698 17 29.6298 17.27 29.7198 17.52C29.7598 17.65 29.8398 17.77 29.8898 17.89C29.8998 17.91 29.8898 17.94 29.8898 17.97C29.8898 18 29.8898 18.04 29.8998 18.07C30.0498 18.35 30.1198 18.68 30.3098 18.94C30.3498 19 30.3698 19.39 30.4198 19.46C30.4498 19.5 30.3298 19.74 30.3798 19.76H30.4098Z" fill="#231F20"/>
<path d="M20.8401 24.2C21.0401 24.13 21.1201 24.4 21.1101 24.87C21.1101 25.02 20.9701 25.43 20.9101 25.48C20.7901 25.57 20.6601 25.66 20.5501 25.72C20.4801 25.75 19.5501 25.75 19.2301 25.8C18.9201 25.83 18.6301 25.81 18.3401 25.77C17.7501 25.71 17.1601 25.67 16.5701 25.63C16.4401 25.63 16.3101 25.59 16.1801 25.53C15.7401 25.35 15.2901 25.32 14.8301 25.37C14.7501 25.37 14.6801 25.37 14.6001 25.44C14.4801 25.56 13.2701 25.62 13.1101 25.58C12.7101 25.47 12.3001 25.41 11.8901 25.33C11.8301 25.32 11.7801 25.36 11.7101 25.27C11.5601 25.07 11.4401 25.12 11.3101 25.13C11.1301 25.13 10.9601 25.13 10.7701 25.09C10.6801 25.07 10.5701 24.96 10.4701 24.88C10.3801 24.81 10.3501 24.49 10.3801 24.45C10.4401 24.34 10.3501 24.2 10.3101 24.07C10.3001 24.03 10.2801 23.97 10.2801 23.93C10.2601 23.85 11.2301 23.09 11.3601 23.08C11.3701 23.08 11.7701 22.97 12.1901 22.86C12.6001 22.77 13.0301 22.68 13.1401 22.66C13.2301 22.63 13.3301 22.68 13.4301 22.7C13.4701 22.7 14.7601 22.49 14.8101 22.51C15.0801 22.53 15.3501 22.46 15.6101 22.66C15.6601 22.7 15.7101 22.69 15.7701 22.69C16.2301 22.69 16.6801 22.79 17.1301 22.89C17.3601 22.94 17.5901 22.94 17.8201 22.98C17.8601 22.98 17.9001 23.02 17.9401 23.04C17.9901 23.06 18.0401 23.1 18.0901 23.11C18.6301 23.19 19.1501 23.4 19.7001 23.46C19.8301 23.46 20.3601 23.84 20.5001 23.85C20.5801 23.85 20.7501 24.23 20.8301 24.2H20.8401Z" fill="#231F20"/>
</svg>
