<svg width="128" height="128" viewBox="0 0 128 128" fill="none" xmlns="http://www.w3.org/2000/svg">
<path d="M21.5503 80.68C21.6303 75.79 21.6903 70.95 21.6303 66.07L21.5203 60.74C21.4503 54.48 21.3603 48.22 21.1303 41.96C21.0303 39.18 20.8603 36.39 20.6303 33.65C20.3003 30.13 20.0103 26.58 19.7303 23.12C19.6603 22.04 19.9403 22.12 20.5003 22.93C21.4007 24.3059 21.9627 25.8753 22.1403 27.51C22.6109 31.1265 22.898 34.7645 23.0003 38.41C23.1603 42.0434 23.247 45.6867 23.2603 49.34C23.2603 53.71 23.5103 58.26 23.5903 62.73C23.6803 67.64 23.7203 72.57 23.6703 77.49C23.6703 80.49 23.6103 83.49 23.6703 86.55C23.7203 91.12 23.8003 95.71 24.1703 100.22C24.4603 103.73 24.9803 107.14 25.5703 110.56C25.7103 111.31 25.8403 112.05 25.9803 112.8C26.4703 115.62 26.5203 116.53 25.9803 117.25C25.8791 117.421 25.7619 117.581 25.6303 117.73C25.2003 118.09 24.6303 117.01 24.0903 114.95C22.678 108.56 21.8678 102.051 21.6703 95.51C21.4403 90.57 21.4803 85.62 21.4903 80.69L21.5503 80.68Z" fill="#221F1F"/>
<path d="M49.4102 104.67C54.3002 104.92 59.2102 105.02 64.1102 104.97C65.9002 104.97 67.6802 104.83 69.4702 104.8C75.7702 104.64 82.0801 104.26 88.3401 103.54C91.1201 103.21 93.9001 102.77 96.6301 102.27C98.3801 101.92 100.13 101.58 101.87 101.17C103.61 100.76 105.37 100.49 107.13 100.17C108.23 99.99 108.13 100.3 107.35 100.89C106.024 101.824 104.555 102.537 103 103C99.4202 103.92 95.7802 104.54 92.1301 105.12C88.4801 105.7 84.8001 106 81.1301 106.2C76.7001 106.47 72.1302 106.88 67.5802 107.01C62.6135 107.17 57.6368 107.17 52.6502 107.01C49.5902 106.91 46.5302 106.78 43.4702 106.59L29.6302 105.59C26.0602 105.34 22.5602 105.2 19.0202 104.92C18.2502 104.85 17.4802 104.82 16.7002 104.73C13.8002 104.42 12.9002 104.1 12.3802 103.35C12.2486 103.193 12.1346 103.022 12.0402 102.84C11.8402 102.28 13.0402 102.03 15.1802 102.16C21.4502 102.56 28.0302 103.09 34.6802 103.58C39.6302 103.94 44.5502 104.37 49.4902 104.58L49.4102 104.67Z" fill="#221F1F"/>
<path d="M34.75 75.38C34.75 78.1 34.75 80.83 34.75 83.55L34.86 86.55C34.95 90.05 35 93.55 35.35 97.01C35.35 97.37 35.44 97.74 35.51 98.08C35.51 98.2 35.51 98.27 35.58 98.36C35.65 98.45 35.65 98.54 35.75 98.55C35.8464 98.5604 35.9436 98.5604 36.04 98.55C36.2165 98.5606 36.3935 98.5606 36.57 98.55C36.94 98.55 37.34 98.55 37.72 98.55C38.72 98.48 39.66 98.33 40.63 98.2C41.6 98.07 42.63 98 43.56 97.89C44.13 97.83 44.18 98.14 43.74 98.61C43.0626 99.2948 42.2069 99.7763 41.27 100C40.27 100.17 39.33 100.32 38.34 100.43C37.84 100.43 37.34 100.52 36.82 100.53C36.5469 100.545 36.2731 100.545 36 100.53C35.777 100.515 35.556 100.478 35.34 100.42C35.12 100.36 34.9 100.31 34.68 100.23C33.79 99.82 33.68 98.23 33.68 97.96C33.61 97.4 33.56 96.85 33.52 96.3C33.45 95.21 33.42 94.13 33.41 93.04C33.41 90.57 33.19 88.04 33.13 85.52C33 82.7 33 79.94 33 77.18L33.07 72.09C33.07 70.8 33.14 69.51 33.21 68.22C33.21 67.57 33.28 66.93 33.35 66.28C33.3759 65.9071 33.426 65.5363 33.5 65.17C33.58 64.74 33.72 64.27 34.17 64.17C34.5015 64.1208 34.8385 64.1208 35.17 64.17L35.94 64.23L37.4 64.36C38.3559 64.4147 39.3141 64.4147 40.27 64.36C40.68 64.36 41.08 64.36 41.48 64.27C42.95 64.1 43.24 63.99 43.74 64.14C43.85 64.14 43.99 64.14 44.09 64.2C44.19 64.26 44.27 64.45 44.09 64.76C43.7425 65.1773 43.28 65.4833 42.76 65.64C40.9196 66.1194 39.0018 66.2248 37.12 65.95L35.74 65.83H35.13C35.08 66.24 35.04 66.69 35.01 67.14C34.86 69.81 34.82 72.58 34.82 75.32L34.75 75.38Z" fill="#221F1F"/>
<path d="M44.1304 80.37L44.0304 84.07C44.0304 84.52 44.0304 84.97 44.0304 85.42C44.0304 87 43.9204 88.59 43.9004 90.17C43.9004 90.88 43.9004 91.58 43.9704 92.28L44.0704 93.62C44.0833 94.0578 44.0599 94.496 44.0004 94.93C43.9847 94.9763 43.9571 95.0176 43.9204 95.05H43.8604L43.7304 95.1H43.6704C43.7404 95.1 43.8004 95.1 43.6704 95.1H43.5604C43.4775 95.0781 43.3994 95.0408 43.3304 94.99C42.911 94.7196 42.6079 94.3023 42.4804 93.82C42.2902 91.9824 42.2701 90.1312 42.4204 88.29C42.5104 87.18 42.4204 86.04 42.4204 84.9V81.17V78.87C42.4204 77.71 42.4204 76.55 42.4204 75.39C42.4204 74.5 42.2704 73.62 42.2004 72.73C42.2004 72.53 42.2004 72.34 42.1504 72.14C42.1504 71.4 42.2704 71.14 42.7604 71.03C42.8679 70.994 42.9783 70.9672 43.0904 70.95C43.4604 70.95 43.7604 71.21 43.8404 71.73C44.073 73.3458 44.1733 74.9778 44.1404 76.61V80.33L44.1304 80.37Z" fill="#221F1F"/>
<path d="M56.93 67.9999C56.93 71.2099 56.93 74.4299 57.02 77.6399L57.14 81.16C57.23 85.29 57.31 89.4299 57.55 93.5399C57.61 94.4599 57.68 95.3699 57.79 96.2699L57.88 96.9299L57.94 97.2599V97.4399C57.94 97.5299 57.94 97.6699 58.08 97.7099C58.1861 97.7253 58.2939 97.7253 58.4 97.7099H59.13H59.97L61.69 97.5299C62.83 97.3699 64 97.3099 65.13 97.1799C65.81 97.0999 65.85 97.4099 65.31 97.8999C64.4473 98.6173 63.4139 99.0996 62.31 99.2999C61.0739 99.5133 59.8239 99.637 58.57 99.6699H58.26C58.1101 99.6799 57.9598 99.6799 57.81 99.6699C57.533 99.6205 57.2616 99.5435 57 99.4399C56.9 99.3599 56.73 99.3499 56.68 99.1999C56.5817 99.1117 56.4883 99.0182 56.4 98.9199C56.2526 98.6761 56.1477 98.409 56.09 98.1299L56.01 97.6999V97.4499L56 96.8699L55.88 95.9999C55.69 93.5599 55.64 91.1599 55.63 88.7399C55.63 85.8399 55.42 82.8399 55.36 79.8899C55.2866 76.6433 55.2433 73.3966 55.23 70.1499V64.1499C55.23 61.1499 55.23 58.0899 55.39 55.0599C55.3983 54.3896 55.4585 53.721 55.57 53.0599C55.6004 52.867 55.672 52.6828 55.78 52.5199C55.9155 52.3943 56.0867 52.3139 56.27 52.2899C56.6687 52.2442 57.0713 52.2442 57.47 52.2899C58.63 52.3999 59.75 52.5099 60.87 52.5399C61.36 52.5399 61.87 52.5399 62.32 52.5399C63.2069 52.4088 64.1039 52.3586 65 52.3899C65.12 52.3899 65.27 52.3899 65.38 52.3899C65.49 52.3899 65.58 52.6499 65.31 52.9999C64.8801 53.4712 64.3137 53.7964 63.69 53.9299C61.45 54.4899 59.19 54.0899 57.17 53.9299C57.0295 55.3621 56.9728 56.8012 57 58.2399C57 61.4599 57 64.7099 57 67.9599L56.93 67.9999Z" fill="#221F1F"/>
<path d="M65.7403 73.72L65.6703 79C65.6703 79.64 65.6703 80.28 65.6703 80.92L65.5803 87.65C65.5803 88.65 65.5803 89.65 65.6603 90.65L65.7703 92.55C65.7817 93.1747 65.7516 93.7994 65.6803 94.42C65.6694 94.4841 65.6456 94.5454 65.6103 94.6C65.6103 94.6 65.6103 94.67 65.3203 94.74H65.4403H65.4003H65.3003C65.2102 94.7037 65.1285 94.6492 65.0603 94.58C64.6177 94.1199 64.3218 93.5386 64.2103 92.91C64.0119 90.3081 63.9785 87.6962 64.1103 85.09C64.2003 83.52 64.1103 81.9 64.1103 80.29V71.65C64.1103 70.01 64.1103 68.36 64.1103 66.73C64.1103 65.46 63.9403 64.22 63.8603 62.96C63.8603 62.69 63.8603 62.41 63.8003 62.13C63.8003 61.13 63.9203 60.74 64.4003 60.55C64.5103 60.55 64.6203 60.45 64.7303 60.42C65.1103 60.35 65.4003 60.78 65.4803 61.51C65.7372 63.8109 65.8608 66.1248 65.8503 68.44V73.72H65.7403Z" fill="#221F1F"/>
<path d="M79.38 59.1C79.38 62.9934 79.4333 66.8834 79.54 70.77L79.69 75C79.81 80 79.94 85 80.19 90C80.3 92.21 80.49 94.45 80.77 96.59C80.77 96.84 80.77 96.88 80.84 96.99C80.91 97.1 80.84 97.19 81.01 97.19H81.21H81.47H82.32C82.9 97.19 83.48 97.11 84.07 97.04C85.24 96.93 86.43 96.84 87.6 96.7C88.41 96.59 88.43 96.91 87.76 97.43C86.6763 98.1837 85.4347 98.6797 84.13 98.88C83.54 98.96 82.95 99.02 82.34 99.07C82.04 99.07 81.72 99.07 81.4 99.07C81.1425 99.0688 80.8854 99.0521 80.63 99.02C80.3631 98.9641 80.0994 98.894 79.84 98.81C79.74 98.73 79.61 98.69 79.55 98.57C79.439 98.5026 79.349 98.4057 79.29 98.29C79.1572 98.0504 79.0659 97.7901 79.02 97.52L78.93 97.09V96.84L78.87 96.39C78.79 95.79 78.72 95.21 78.68 94.62C78.58 93.45 78.52 92.28 78.46 91.12C78.36 88.78 78.3 86.45 78.28 84.12C78.28 80.62 78.02 76.99 77.93 73.42C77.83 69.5 77.77 65.57 77.73 61.64V54.39C77.73 50.73 77.73 47.05 77.9 43.39C77.9 42.51 77.97 41.64 78.04 40.75L78.1 40.09V39.75C78.1 39.59 78.16 39.43 78.19 39.27C78.2408 38.9686 78.3569 38.682 78.53 38.43C78.6216 38.3192 78.7417 38.2355 78.8774 38.1879C79.0131 38.1404 79.1592 38.1307 79.3 38.16C80.22 38.29 80.59 38.34 81.13 38.4C81.67 38.46 82.13 38.51 82.68 38.54C83.23 38.57 83.86 38.6 84.45 38.61C85.1845 38.6255 85.9192 38.5954 86.65 38.52C87.09 38.52 87.3 38.52 87.59 38.44C87.7245 38.4118 87.8554 38.3682 87.98 38.31C88.07 38.31 88.14 38.31 88.16 38.44C88.1756 38.6554 88.1115 38.8689 87.98 39.04C87.4701 39.6321 86.7561 40.0105 85.98 40.1C84.8666 40.284 83.7353 40.3343 82.61 40.25C82.05 40.25 81.5 40.15 80.95 40.08C80.4 40.01 79.59 39.88 79.78 39.93C79.78 39.93 79.78 39.93 79.78 39.99C79.78 40.05 79.78 39.99 79.78 40.07V40.59C79.71 41.29 79.68 42.03 79.64 42.78C79.58 44.26 79.55 45.78 79.53 47.3C79.53 51.19 79.53 55.13 79.53 59.05L79.38 59.1Z" fill="#221F1F"/>
<path d="M88.36 64.8199L88.27 72.2099V74.8999C88.27 78.0699 88.2 81.2399 88.16 84.4099C88.16 85.8099 88.16 87.2199 88.23 88.6199C88.23 89.5099 88.3 90.4099 88.33 91.3099C88.36 92.2099 88.33 93.1299 88.24 93.9599C88.2332 94.0515 88.2059 94.1404 88.16 94.2199L88.09 94.2999L87.92 94.3599C88.13 94.2899 88 94.3599 88.02 94.3599H87.92C87.8253 94.2961 87.7438 94.2146 87.68 94.1199C87.2183 93.4029 86.9306 92.5879 86.84 91.7399C86.67 88.0799 86.61 84.4199 86.77 80.7399C86.86 78.5299 86.77 76.2399 86.77 73.9799V66.4499V61.8699C86.77 59.5499 86.77 57.2299 86.77 54.9299C86.77 53.1499 86.6 51.3999 86.52 49.6299C86.52 49.2399 86.52 48.8599 86.46 48.4599C86.46 47.0099 86.58 46.5199 87.06 46.2299C87.18 46.1699 87.29 46.0799 87.4 46.0399C87.77 45.9299 88.05 46.5199 88.14 47.5699C88.43 50.6999 88.49 54.0299 88.51 57.3599V64.8199H88.36Z" fill="#221F1F"/>
<path d="M33.6303 86.13L33.7303 83.53L33.8803 80.93C33.8803 80.3 33.8803 79.67 33.8803 79.04C34.0203 76.8 34.1903 74.57 34.2603 72.33C34.2603 71.33 34.2603 70.33 34.1903 69.33C34.0058 68.0729 34.0464 66.7929 34.3103 65.55C34.4203 65.15 34.8903 65.17 35.4503 65.46C35.7791 65.6346 36.0848 65.8496 36.3603 66.1C36.674 66.3504 36.887 66.7054 36.9603 67.1C37.2072 68.3723 37.3808 69.6578 37.4803 70.95C37.5166 72.2515 37.4732 73.5539 37.3503 74.85C37.2956 76.4349 37.3458 78.0217 37.5003 79.6C37.5003 81.35 37.5603 83.1 37.5003 84.85V88.08C37.5003 89.71 37.4403 91.35 37.5003 92.97C37.5803 94.22 37.9203 95.45 38.0803 96.69C38.1343 96.9611 38.1743 97.2348 38.2003 97.51C38.2439 97.9077 38.1289 98.3066 37.8803 98.62C37.6092 98.8879 37.2581 99.0599 36.8803 99.11C36.6839 99.1708 36.4834 99.2176 36.2803 99.25C35.9368 99.2754 35.5939 99.1926 35.2998 99.0133C35.0057 98.8339 34.7751 98.567 34.6403 98.25C34.1851 97.1835 33.8951 96.0539 33.7803 94.9C33.6303 93.76 33.5703 92.59 33.5203 91.42C33.4603 89.69 33.5203 87.94 33.5203 86.19L33.6303 86.13Z" fill="#221F1F"/>
<path d="M56 81.05L56.08 77.6299L56.22 74.2099C56.22 73.3799 56.22 72.5499 56.22 71.7199C56.34 68.7799 56.5 65.8499 56.56 62.9099C56.56 61.6099 56.56 60.3099 56.5 59.0199C56.3378 57.3554 56.368 55.6776 56.59 54.0199C56.68 53.4999 57.09 53.5399 57.59 53.9499C57.9012 54.1986 58.1742 54.4918 58.4 54.8199C58.7223 55.1895 58.9307 55.6445 59 56.1299C59.2 57.8199 59.4 59.5099 59.47 61.2099C59.54 62.9099 59.47 64.6099 59.35 66.3199C59.2 68.3699 59.44 70.49 59.47 72.58C59.47 74.8699 59.47 77.17 59.47 79.4699L59.42 83.7099C59.42 85.8599 59.42 88.0099 59.47 90.1299C59.54 91.7799 59.84 93.3999 59.99 95.0299C59.99 95.3899 60.09 95.74 60.1 96.11C60.1509 96.6071 60.0535 97.1081 59.82 97.55C59.6307 97.8574 59.3355 98.085 58.99 98.19C58.8177 98.2649 58.6407 98.3284 58.46 98.3799C57.88 98.5099 57.36 97.9599 57.01 97C56.3008 94.0537 55.9648 91.03 56.01 88C55.96 85.7099 56.01 83.4099 56.01 81.1099L56 81.05Z" fill="#221F1F"/>
<path d="M78.4502 75.22L78.5402 70.75L78.6902 66.27C78.6902 65.19 78.6902 64.1 78.6902 63.01C78.8202 59.18 78.9802 55.35 79.0502 51.51C79.0502 49.81 79.0502 48.11 79.0502 46.42C78.895 44.2581 78.9251 42.0868 79.1402 39.93C79.2302 39.26 79.6402 39.31 80.1402 39.86C80.4425 40.2071 80.7011 40.59 80.9102 41C81.2065 41.515 81.3873 42.0882 81.4402 42.68C81.6402 44.89 81.8402 47.1 81.9002 49.32C81.9602 51.54 81.9002 53.76 81.7702 56C81.6202 58.67 81.8502 61.44 81.8802 64.18C81.8802 67.18 81.8802 70.18 81.8802 73.18L81.8302 78.72C81.8302 81.52 81.7702 84.33 81.8302 87.11C81.9002 89.27 82.2002 91.38 82.3502 93.51C82.3502 93.98 82.4402 94.44 82.4602 94.92C82.4602 96.68 82.1102 97.25 81.3502 97.63C81.1806 97.7277 81.0034 97.8113 80.8202 97.88C80.2402 98.05 79.7202 97.33 79.3702 96.06C78.6547 92.1516 78.3198 88.1831 78.3702 84.21C78.3702 81.21 78.3702 78.21 78.3702 75.21L78.4502 75.22Z" fill="#221F1F"/>
<path d="M113.37 98.22C113.427 98.2016 113.481 98.1746 113.53 98.14L113.63 98.06C113.68 98.06 113.68 98.06 113.63 98L113.47 97.92L113.35 97.86C113.35 97.86 113.03 97.75 112.86 97.69C112.25 97.5 111.63 97.35 111.03 97.13C108.93 96.36 106.89 95.46 104.86 94.54L102.13 93.36C100.889 92.9104 99.7628 92.1934 98.8301 91.26C98.5301 90.91 98.8901 90.73 99.3901 90.64C99.9717 90.5051 100.58 90.5434 101.14 90.75C103.35 91.68 105.64 92.75 107.94 93.82C109.366 94.4287 110.829 94.9464 112.32 95.37L113.22 95.65L113.67 95.79L113.92 95.86L114.31 95.96C114.84 96.07 115.31 96.22 115.86 96.31L117.45 96.58V96.85L117.15 97.27C116.94 97.55 116.75 97.79 116.55 98.04C116.35 98.29 116.06 98.63 115.79 98.91L114.92 99.73C114.42 100.17 114.06 100.45 113.62 100.81C112.33 101.81 111 102.75 109.75 103.74C108.75 104.5 107.89 105.36 106.98 106.17C106.78 106.35 106.59 106.55 106.39 106.72C105.61 107.36 105.27 107.44 104.74 107.12C104.612 107.055 104.488 106.981 104.37 106.9C104.02 106.61 104.11 106.06 104.61 105.48C106.154 103.783 107.874 102.254 109.74 100.92L111.8 99.4L112.8 98.63L113.28 98.24C113.37 98.18 113.33 98.24 113.36 98.24L113.37 98.22Z" fill="#221F1F"/>
<path d="M72.1404 35.0001C68.8671 36.7299 65.4792 38.2334 62.0004 39.5001C60.7304 39.9401 59.4904 40.5001 58.2204 40.8801C53.7209 42.2344 49.1333 43.2769 44.4904 44.0001L41.3904 44.4501C40.3904 44.5901 39.3204 44.6801 38.2904 44.7801C36.9704 44.8901 35.6404 44.9701 34.2904 44.9801C32.9494 45.0171 31.6084 44.9098 30.2904 44.6601C29.4504 44.4601 29.6304 44.3401 30.3404 44.2401C30.6904 44.2401 31.1804 44.1101 31.7804 44.0001C32.3804 43.8901 33.0504 43.8301 33.7804 43.7801C35.1004 43.7301 36.4204 43.5201 37.7804 43.3801L39.7804 43.0901C40.4404 43.0101 41.1004 42.9301 41.7804 42.8101C44.4104 42.4101 47.0404 41.9001 49.6604 41.3401C52.839 40.5894 55.9602 39.6136 59.0004 38.4201C60.6704 37.7401 62.3904 37.1701 64.0004 36.3701C65.6104 35.5701 67.3304 34.9501 68.9004 34.0501L71.9004 32.4901C72.9004 32.0001 73.8004 31.3401 74.7504 30.7701C77.6272 29.0139 80.3803 27.0627 82.9904 24.9301C83.9904 24.0501 84.8904 23.1601 85.8004 22.2601L87.1804 20.9201C87.6404 20.4701 88.0404 19.9201 88.4704 19.4901C88.9004 19.0601 89.2004 18.6401 89.5904 18.2301C91.0304 16.6901 91.5904 16.3401 92.4704 16.4701C92.659 16.491 92.8461 16.5245 93.0304 16.5701C93.5804 16.7801 93.3004 17.7101 92.3204 18.9701C90.8726 20.921 89.2491 22.7352 87.4704 24.3901C86.5604 25.2201 85.6304 26.0501 84.7004 26.8801C83.7704 27.7101 82.7004 28.3901 81.7004 29.1501L79.3904 30.8001C78.6304 31.3401 77.8004 31.8001 77.0104 32.2901C75.4104 33.2901 73.8604 34.2901 72.1704 35.1001L72.1404 35.0001Z" fill="#221F1F"/>
<path d="M96.4402 12.56V12.42V12.34C96.4402 12.29 96.4402 12.23 96.4402 12.16C96.4402 12.09 96.3602 12.16 96.3102 12.16C96.2098 12.1861 96.1126 12.223 96.0202 12.27C95.5402 12.54 95.0202 12.84 94.5602 13.08C92.7968 13.9114 90.9251 14.4905 89.0002 14.8C88.1402 14.94 87.2802 15.09 86.4302 15.19C85.3394 15.3733 84.2277 15.3969 83.1302 15.26C82.7902 15.26 82.8402 14.9 83.1302 14.56C83.4806 14.1379 83.9698 13.8543 84.5102 13.76C86.6302 13.47 88.6802 13.11 90.7702 12.68C92.0308 12.3448 93.2414 11.8438 94.3702 11.19L95.1102 10.79L96.2002 10.17C96.6002 9.95 96.9802 9.73 97.3602 9.54C97.7103 9.34093 98.0708 9.16068 98.4402 9L98.3102 10.79L98.1802 12.79L98.0702 14.18C97.944 15.6037 97.7032 17.015 97.3502 18.4C97.1151 19.4917 96.7804 20.5595 96.3502 21.59C96.2612 21.8197 96.1577 22.0435 96.0402 22.26C95.5802 23.07 95.2602 23.21 94.7602 23.08C94.6502 23.08 94.5302 23.02 94.4202 22.97C94.0702 22.8 94.0202 22.32 94.2802 21.78C95.0455 20.1268 95.6095 18.3877 95.9602 16.6C96.0802 15.91 96.2002 15.21 96.2702 14.49C96.2702 14.14 96.3402 13.77 96.3702 13.41L96.4302 12.54L96.4402 12.56Z" fill="#221F1F"/>
</svg>
