<svg width="128" height="128" viewBox="0 0 128 128" fill="none" xmlns="http://www.w3.org/2000/svg">
<path d="M79.5598 23.79C79.6798 23.74 79.8498 23.54 79.9398 23.28C79.9698 23.19 79.9398 23.1 79.9598 23.01C80.0298 22.68 79.9798 22.26 79.7398 21.92C79.6298 21.77 79.4798 21.66 79.3198 21.56C79.1098 21.44 78.8798 21.41 78.6698 21.21C78.6198 21.08 78.6398 20.93 78.7698 20.68C78.8998 20.43 79.1298 20.2 79.3398 20.22C79.7098 20.27 80.0898 20.39 80.4198 20.61C80.7398 20.84 81.0098 21.15 81.1598 21.52C81.3398 21.95 81.6098 22.37 81.6798 22.85C81.7398 23.37 81.6998 23.88 81.4798 24.4C81.3398 24.71 81.1298 25 80.8698 25.24C80.4698 25.61 79.9498 25.76 79.4998 25.86C79.1498 25.93 78.7998 26.09 78.4498 26.13C78.3698 26.13 78.2898 26.16 78.2198 26.15C77.9498 26.11 77.8898 25.94 77.9698 25.4L78.0298 25.03C78.1198 24.62 78.2898 24.29 78.4498 24.18C78.9298 23.8 79.1998 23.83 79.3098 23.78C79.3898 23.77 79.4198 23.83 79.5098 23.78L79.5498 23.8L79.5598 23.79Z" fill="#231F20"/>
<path d="M52.6801 34.0499C55.1601 33.4699 57.6301 32.9 60.3101 32.74L61.0501 32.7C61.3201 32.7 61.6101 32.7199 61.8801 32.7299C62.3801 32.7899 62.8701 32.86 63.3201 32.99C64.9401 33.41 66.4801 33.9099 68.0201 34.4399C69.5601 34.9499 71.0901 35.4599 72.6101 36.0099C73.9701 36.4799 75.3301 36.96 76.6701 37.43C77.5401 37.72 78.3901 38.08 79.2201 38.47C80.0601 38.86 80.8601 39.3299 81.6001 39.9399C82.0601 40.3199 81.9201 40.3499 81.4101 40.2799C80.9301 40.1599 79.9401 40.23 78.9701 39.91C78.1101 39.62 77.1901 39.4599 76.3401 39.1199L73.7401 38.22C72.0001 37.63 70.2501 37.0399 68.4801 36.4399C66.3901 35.7399 64.0601 35.2799 61.9401 34.9799C61.6301 34.92 61.4101 34.9299 61.1501 34.8899L60.2701 34.93C59.6801 34.96 59.0701 35.06 58.4701 35.13C57.2601 35.32 56.0401 35.56 54.8301 35.84C53.3401 36.18 51.8401 36.57 50.3601 36.99C48.1201 37.65 45.8601 38.2999 43.6501 39.0499C41.9401 39.6299 40.3101 40.35 38.6301 40.97C38.2601 41.11 37.9001 41.26 37.5201 41.38C36.1201 41.85 35.6101 41.8499 35.1801 41.5299C35.0801 41.4599 34.9601 41.4 34.8901 41.32C34.6601 41.0599 35.1301 40.5799 36.1001 40.0999C38.9601 38.6199 42.1101 37.36 45.3101 36.2C47.6901 35.34 50.1601 34.6699 52.6301 34.0099L52.6501 34.06L52.6801 34.0499Z" fill="#231F20"/>
<path d="M42.6302 72.09C44.5702 73.11 46.4802 74.15 48.3902 75.22C49.0902 75.6 49.8102 75.95 50.5002 76.34C52.9402 77.73 55.3802 79.13 57.7802 80.58C58.8602 81.21 59.9302 81.85 61.0002 82.48C62.3402 83.34 63.7402 84.11 64.9202 85.23C65.2902 85.57 65.2302 85.53 64.8302 85.37C64.4302 85.2 63.6302 85.05 62.8202 84.64C59.8702 83.32 56.9902 81.87 54.2102 80.17C52.5402 79.16 50.7102 78.29 48.9402 77.37L43.1202 74.31L39.5202 72.45C37.7002 71.53 35.8702 70.6 34.0202 69.76C32.5802 69.12 31.1402 68.55 29.7102 67.95C29.3902 67.82 29.0802 67.69 28.7602 67.56C27.5902 67.03 27.2802 66.73 27.1602 66.31C27.1302 66.21 27.0902 66.11 27.0802 66.02C27.0702 65.73 27.6402 65.73 28.5702 65.96C29.9402 66.33 31.2902 66.82 32.6702 67.32C34.0402 67.83 35.3702 68.48 36.7202 69.11C38.7102 70.05 40.6802 71.06 42.6402 72.06L42.6202 72.1L42.6302 72.09Z" fill="#231F20"/>
<path d="M72.4 82.35C71.75 82.6 71.07 82.83 70.33 82.96L69.77 83.05L69.17 83.07C68.79 83.07 68.45 83.02 68.09 82.97C67.58 82.9 67.07 82.83 66.58 82.7C64.85 82.22 63.27 81.48 61.73 80.7C61.05 80.35 60.37 80.01 59.7 79.67C58.81 79.28 58.03 78.69 57.23 78.16C56.98 77.99 57.05 77.94 57.33 77.96C57.6 77.98 58.11 78.02 58.67 78.14C60.58 78.72 62.29 79.62 64.05 80.42C65.1 80.91 66.28 81.17 67.41 81.36C68.02 81.47 68.67 81.53 69.25 81.52C69.8 81.52 70.42 81.36 71.01 81.17C71.75 80.93 72.49 80.6 73.21 80.25C74.31 79.71 75.41 79.12 76.47 78.49C77.3 78.01 78.05 77.41 78.92 76.96C79.11 76.87 79.29 76.75 79.5 76.68C80.26 76.38 80.57 76.42 80.83 76.69C80.89 76.75 80.96 76.81 81.01 76.88C81.16 77.11 80.93 77.42 80.49 77.74C79.21 78.81 77.69 79.64 76.13 80.55C74.96 81.2 73.74 81.83 72.44 82.38L72.42 82.34L72.4 82.35Z" fill="#231F20"/>
<path d="M30.8399 99.5799C31.3499 100.35 32.0099 101.04 32.6999 101.71C32.9499 101.95 33.2599 102.13 33.5199 102.37C34.4399 103.21 35.4399 104.01 36.5199 104.68C36.9999 104.98 37.4899 105.27 37.9899 105.53C38.6399 105.86 39.2899 106.18 39.8899 106.62C40.0799 106.75 40.0499 106.75 39.8499 106.74C39.6499 106.71 39.2399 106.79 38.8099 106.71C38.0799 106.51 37.3499 106.29 36.6299 106.02C36.2699 105.9 35.9299 105.71 35.5999 105.53C35.2599 105.35 34.9299 105.15 34.6199 104.93C34.2399 104.67 33.8299 104.44 33.4299 104.18C33.0199 103.94 32.6099 103.69 32.2399 103.39C31.4099 102.75 30.6599 102 29.9699 101.2C29.5599 100.7 29.1599 100.18 28.8099 99.6299C28.2499 98.8099 27.8799 97.8799 27.5199 96.9699C27.3999 96.6099 27.2599 96.2599 27.1199 95.8999L26.8099 94.7999C26.7599 94.6399 26.7199 94.4799 26.7099 94.3099C26.6699 93.6799 26.7699 93.4799 27.1499 93.3399C27.2399 93.3099 27.3199 93.2699 27.4099 93.2499C27.6999 93.1899 27.9699 93.4199 28.1199 93.8099C28.5399 94.9799 28.8799 96.1299 29.4599 97.2099C29.6499 97.6199 29.9099 97.9899 30.0999 98.3999C30.3599 98.7799 30.5599 99.1899 30.8699 99.5499L30.8399 99.5799Z" fill="#231F20"/>
<path d="M94.8599 98.6C94.3599 99.69 93.7799 100.75 93.0799 101.72C92.8399 102.09 92.5899 102.44 92.2999 102.77C91.2499 103.9 90.0499 104.84 88.7999 105.66C88.2199 105.99 87.6799 106.37 87.0899 106.66C86.7199 106.85 86.3599 107.07 85.9699 107.23C85.5899 107.41 85.1699 107.49 84.7699 107.62C84.5199 107.69 84.5399 107.65 84.6999 107.47C84.8699 107.31 85.1299 106.93 85.5099 106.66C86.8999 105.74 88.1699 104.74 89.4499 103.74C90.1999 103.12 90.8399 102.32 91.3799 101.5C92.0399 100.64 92.5999 99.69 93.0499 98.69C93.3399 98.08 93.5799 97.44 93.7999 96.79C94.1099 95.8 94.3799 94.78 94.5399 93.75C94.6699 92.95 94.6599 92.15 94.6999 91.35C94.7199 91.17 94.6999 91 94.7199 90.82C94.7899 90.16 94.9199 89.96 95.3099 89.85C95.3999 89.82 95.4899 89.79 95.5799 89.78C95.8799 89.74 96.0999 90.03 96.1699 90.53C96.4099 92.03 96.2899 93.61 95.9699 95.17C95.7199 96.33 95.3299 97.48 94.8799 98.6H94.8399H94.8599Z" fill="#231F20"/>
<path d="M108.53 104.19C108.53 104.19 110.73 96.16 112.65 97.27C114.57 98.38 117.39 103.94 117.39 103.94L108.53 104.18V104.19Z" fill="#231F20"/>
<path d="M95.3101 68.55C94.8701 68.89 94.3801 69.16 93.9201 69.45C93.7501 69.55 93.5901 69.68 93.4201 69.77C92.7901 70.09 92.1701 70.4 91.5201 70.66C91.2301 70.77 90.9501 70.9 90.6801 71.02C90.3201 71.18 89.9601 71.33 89.5701 71.39C89.4501 71.41 89.4301 71.31 89.4801 71.16C89.5301 71.02 89.6401 70.81 89.8201 70.69C90.4701 70.27 91.0601 69.79 91.7801 69.51C92.2001 69.33 92.5701 69.01 92.9501 68.74C93.3701 68.45 93.7801 68.14 94.1801 67.82C94.4201 67.62 94.6801 67.43 94.9101 67.21C95.2701 66.89 95.6101 66.55 95.9001 66.17C96.1201 65.87 96.2501 65.52 96.3801 65.19C96.4101 65.12 96.4401 65.04 96.4601 64.97C96.5801 64.71 96.7101 64.68 97.0801 64.81C97.1601 64.84 97.2501 64.86 97.3301 64.9C97.6101 65.02 97.7601 65.25 97.7101 65.5C97.5501 66.25 97.0901 66.9 96.5801 67.46C96.1901 67.87 95.7701 68.25 95.3301 68.6L95.3101 68.58V68.55Z" fill="#231F20"/>
<path d="M99.7602 64.12C100.19 64.18 100.64 64.2 101.11 64.2C101.28 64.2 101.44 64.16 101.61 64.15C102.22 64.12 102.84 64.02 103.44 63.86C103.71 63.79 103.97 63.69 104.23 63.6C104.56 63.47 104.9 63.36 105.27 63.31C105.38 63.29 105.37 63.31 105.3 63.38C105.23 63.45 105.12 63.63 104.97 63.79C104.37 64.25 103.72 64.62 102.99 64.81C102.55 64.93 102.12 65.13 101.67 65.26C101.17 65.39 100.64 65.48 100.11 65.47C99.7902 65.48 99.4602 65.44 99.1302 65.42C98.6402 65.36 98.1602 65.24 97.6802 65.12C97.3102 65.04 96.9202 64.99 96.5502 64.88C96.4702 64.86 96.3902 64.84 96.3102 64.8C96.0302 64.66 95.9902 64.52 96.1402 64.15C96.1702 64.07 96.2102 63.98 96.2502 63.9C96.3902 63.63 96.6202 63.47 96.8302 63.48C97.1402 63.51 97.4402 63.53 97.7102 63.59C97.9802 63.65 98.2402 63.76 98.5102 63.83C98.9002 63.96 99.3202 64.04 99.7502 64.1V64.13L99.7602 64.12Z" fill="#231F20"/>
<path d="M114.73 105.26C114.16 105.31 113.59 105.34 113.03 105.34C112.82 105.34 112.63 105.41 112.42 105.39C111.68 105.31 110.96 105.17 110.24 104.98C109.91 104.88 109.6 104.84 109.27 104.68C108.85 104.59 108.38 104.2 108.31 103.66C108.28 103.5 108.46 103.43 108.73 103.34C109.01 103.25 109.32 103.04 109.5 102.93C109.75 102.8 109.93 102.79 110.2 102.72C110.42 102.78 110.72 102.84 111.03 102.96C111.41 103.1 111.81 102.91 112.21 102.86C112.65 102.79 113.11 102.76 113.57 102.68C113.85 102.63 114.13 102.59 114.4 102.5C114.81 102.38 115.24 102.27 115.57 102.03C115.83 101.84 115.98 101.5 116.07 101.24C116.09 101.18 116.11 101.13 116.15 101.1C116.27 101.03 116.53 101.22 117.1 101.55L117.49 101.78C117.9 102.03 118.19 102.38 118.2 102.86C118.17 103.52 117.84 103.9 117.54 104.21C117.22 104.55 116.85 104.7 116.47 104.88C115.91 105.11 115.34 105.23 114.77 105.34L114.75 105.27L114.73 105.26Z" fill="#231F20"/>
<path d="M48.69 33.9801C50.13 33.4601 51.57 32.9101 53.03 32.4201C53.76 32.1701 54.49 31.9201 55.24 31.6901C55.98 31.4501 56.74 31.2501 57.54 31.0601L58.13 30.9201C58.36 30.8701 58.66 30.8401 58.92 30.8001C59.45 30.6801 60.03 30.8101 60.59 30.9401C61.38 31.1801 62.13 31.3901 62.86 31.6401L67.23 33.0901C69.34 33.8201 71.46 34.4901 73.55 35.2601C80.91 37.9901 88.17 40.9601 95.34 44.1201C98.52 45.5201 101.73 46.9301 104.87 48.3801C106.89 49.3101 108.89 50.3001 110.84 51.3901C111.81 51.9501 112.79 52.4801 113.73 53.0801C114.66 53.7101 115.56 54.3801 116.42 55.1001C117.49 56.0001 117.27 55.9901 116.07 55.7101C115.48 55.5601 114.6 55.4201 113.64 55.1001C113.16 54.9401 112.63 54.7901 112.08 54.6101C111.54 54.4101 110.98 54.1701 110.41 53.9001C106.36 52.0201 102.33 50.0901 98.24 48.2501C94.16 46.3901 90 44.6301 85.84 42.8201C80.86 40.6701 75.49 38.8901 70.25 37.0801C67.37 36.1001 64.48 35.1001 61.57 34.2501L60.5 33.9501L59.97 33.8001C59.85 33.7801 59.74 33.7601 59.62 33.7201C59.59 33.6901 59.56 33.7501 59.53 33.6501V33.2301V33.0201V32.9201C59.53 32.3001 59.52 33.6401 59.52 33.5401C59.51 33.7501 59.5 33.7001 59.49 33.7001H59.44L59.25 33.7501L58.85 33.8101L57.8 34.1001C56.39 34.5301 54.94 34.9801 53.51 35.4901C49.98 36.7201 46.47 38.0701 43 39.4901C37.74 41.6501 32.49 43.9401 27.45 46.4801C23.54 48.4701 19.81 50.6201 16.17 52.9301C15.36 53.4201 14.6 53.9501 13.8 54.4801C13.06 54.9601 12.44 55.3501 11.9 55.6501C11.37 55.9601 10.96 56.2201 10.57 56.3801C9.79997 56.7001 9.25997 56.7501 8.72997 56.6801C8.48997 56.6401 8.20997 56.6501 8.02997 56.5801C7.72997 56.4701 7.81997 56.1201 8.21997 55.5401C8.61997 54.9701 9.32997 54.1701 10.4 53.3601C16.76 48.6201 24.11 44.7101 31.61 41.1801C37.19 38.5501 42.88 36.1401 48.65 33.9001L48.69 33.9701V33.9801Z" fill="#231F20"/>
<path d="M52.8802 74.84L60.9502 78.85C63.6302 80.16 66.3502 81.55 68.9802 82.67L69.3502 82.81C69.4102 82.83 69.4802 82.85 69.5402 82.81L70.4702 82.18C71.3702 81.56 72.2802 80.95 73.2002 80.35C79.7202 76.15 86.4002 72.18 93.2702 68.57C94.8002 67.78 96.3102 66.95 97.8602 66.18L100.16 65C100.94 64.63 101.72 64.27 102.49 63.91C106.46 62.04 110.59 60.31 114.98 59.59C116.35 59.41 116.18 59.51 115.18 60.19C114.68 60.54 113.97 60.98 113.12 61.5C112.69 61.77 112.23 62.05 111.75 62.35C111.25 62.63 110.72 62.91 110.16 63.18C102.22 66.94 94.3902 70.98 86.5802 75.35C81.9002 77.95 77.3102 81.12 72.7502 84.17L71.8102 84.8L71.3202 85.12L70.9502 85.36C70.8202 85.44 70.6702 85.48 70.5302 85.55C70.2502 85.64 70.0002 85.82 69.7002 85.83C69.4102 85.84 69.1102 85.76 68.8102 85.68C68.1402 85.48 67.8702 85.34 67.4902 85.19C66.0502 84.58 64.6802 83.94 63.3002 83.29L55.1102 79.35C51.7602 77.73 48.4102 76.11 45.0402 74.55C39.9402 72.17 34.8102 69.77 29.6402 67.66C25.6202 66.02 21.5902 64.65 17.5302 63.33C16.6302 63.05 15.7502 62.78 14.8502 62.5C11.5202 61.41 10.5102 60.94 10.0302 59.87C9.92016 59.64 9.75016 59.39 9.71016 59.19C9.54016 58.53 11.1302 58.3 13.6802 58.96C21.2602 60.83 28.8702 63.85 36.3802 67.09C41.9602 69.5 47.4602 72.12 52.9202 74.77L52.8902 74.84H52.8802Z" fill="#231F20"/>
<path d="M46.3398 108.24C49.3698 109.17 52.4798 109.87 55.6498 110.31C58.8098 110.7 62.0198 110.95 65.2198 110.86C66.3898 110.87 67.5498 110.72 68.7098 110.65C69.8598 110.51 71.0198 110.39 72.1698 110.21C76.2098 109.61 80.1998 108.57 83.8798 106.81C85.7198 105.94 87.4798 104.92 89.1298 103.72L90.3398 102.79L91.4998 101.8L92.6198 100.77L93.1498 100.23L93.4198 99.96C93.4598 99.91 93.5398 99.89 93.5698 99.84L93.5898 99.82C93.4798 99.71 94.5798 100.66 94.0998 100.25L94.0798 100.23C94.0298 100.18 93.9698 100.13 93.9099 100.08C93.7999 100 93.6299 99.91 93.5499 99.89C93.5798 99.89 93.6798 99.68 93.7398 99.5C93.8098 99.3 93.8298 99.09 93.8598 98.87C93.9298 98.43 93.9698 97.98 94.0098 97.52C94.0898 96.6 94.1398 95.67 94.1698 94.74C94.2398 92.88 94.2598 91.01 94.2598 89.15C94.2998 84.38 94.2398 79.58 94.7398 74.79C95.0498 73.3 94.9499 73.5 95.2999 74.76C95.6999 76.02 96.2698 78.34 96.5098 81.09C96.6198 82.31 96.6898 83.54 96.7398 84.76C96.7898 85.98 96.8598 87.21 96.8698 88.44C96.8698 90.9 96.8298 93.35 96.6998 95.84C96.6298 97.1 96.5599 98.32 96.3298 99.69C96.2798 99.87 96.2998 100.04 96.2698 100.26C96.2598 100.37 96.2498 100.46 96.2298 100.59L96.1198 101.01C96.0498 101.2 95.8498 101.55 95.7498 101.68L95.6798 101.78C95.6798 101.78 95.6399 101.8 95.6599 101.85L95.6198 101.89L95.2898 102.25C94.8598 102.75 94.3998 103.2 93.9398 103.66C92.0398 105.45 89.8898 106.94 87.6198 108.18C82.1898 111.12 76.0298 113.05 69.8698 113.65C63.1098 114.31 56.2798 113.91 49.6698 112.43C45.6098 111.51 41.6298 110.19 37.8598 108.43C35.8798 107.49 33.9498 106.43 32.0998 105.24L30.7298 104.31L29.3998 103.32C28.9698 102.96 28.5398 102.62 28.1198 102.25L27.4998 101.68C27.2898 101.48 27.1098 101.28 26.8298 100.97C26.5898 100.73 26.4998 100.39 26.3998 100.07C26.3698 99.91 26.3298 99.73 26.3098 99.57L26.2598 99.18C26.2098 98.68 26.1798 98.19 26.1598 97.71C26.1298 96.75 26.0898 95.8 26.1098 94.86C26.1098 90.08 26.0998 85.4 26.0898 80.67C26.0898 79.63 26.0898 78.62 26.0898 77.57C26.1598 73.7 26.3498 72.48 27.1198 71.66C27.2898 71.47 27.4598 71.22 27.6198 71.11C28.1698 70.73 28.6998 72.33 28.8098 75.19C28.9798 79.28 28.9898 83.46 29.0298 87.69C29.0498 89.8 29.0698 91.92 29.0898 94.05C29.0898 94.58 29.1598 95.11 29.1898 95.63L29.2498 97.19C29.2798 97.7 29.3098 98.21 29.3498 98.68C29.4198 99.31 29.3998 99.06 29.3998 99.12C29.3498 99.04 29.5498 99.29 29.7398 99.45C30.7898 100.42 32.0598 101.37 33.3698 102.21C34.6698 103.07 36.0598 103.84 37.4698 104.57C40.3098 105.99 43.2598 107.22 46.3298 108.12L46.3098 108.2L46.3398 108.24Z" fill="#231F20"/>
<path d="M112.07 101.18C111.83 101.83 111.63 102.53 111.54 103.26C111.5 103.53 111.54 103.8 111.5 104.07C111.34 105.03 111.27 106.04 111.32 107.05C111.32 107.5 111.4 107.94 111.48 108.38C111.53 108.66 111.63 108.93 111.65 109.22C111.65 109.52 111.63 109.82 111.59 110.13C111.56 110.33 111.41 110.34 111.16 110.25C110.92 110.16 110.47 109.98 110.21 109.7C109.57 108.61 109.23 107.38 109.3 106.11C109.33 105.35 109.14 104.58 109.12 103.8C109.14 102.94 109.24 102.07 109.43 101.22L109.62 100.44L109.87 99.67C109.99 99.28 110.19 98.91 110.35 98.53C110.55 98.16 110.74 97.8001 110.94 97.4301C111.11 97.1501 111.24 96.8501 111.37 96.5401C111.53 96.2501 111.69 95.9501 111.87 95.6501C111.94 95.5101 112.02 95.38 112.13 95.27C112.54 94.88 112.85 94.9901 113.36 95.5401C113.48 95.6701 113.6 95.7901 113.71 95.9301C114.07 96.3801 114.2 96.9001 114.13 97.2601C113.83 98.1801 113.31 98.66 112.93 99.42C112.76 99.67 112.66 99.9801 112.49 100.26C112.37 100.57 112.23 100.87 112.14 101.2H112.08L112.07 101.18Z" fill="#231F20"/>
<path d="M115.42 102.05C115.37 102.73 115.33 103.36 115.34 103.98C115.35 104.2 115.43 104.42 115.45 104.64C115.48 105.44 115.62 106.25 115.82 107.06C115.91 107.42 116.08 107.75 116.27 108.07C116.52 108.47 116.75 108.88 116.82 109.41C116.84 109.58 116.57 109.73 116.21 109.81C115.86 109.89 115.37 109.91 115.12 109.71C114.66 109.38 114.41 108.91 114.12 108.46C113.86 107.99 113.63 107.49 113.55 106.93C113.45 106.27 113.11 105.67 112.96 105.01C112.8 104.29 112.73 103.57 112.67 102.88C112.64 102.46 112.62 102.04 112.59 101.62C112.54 101 112.52 100.38 112.35 99.7899C112.22 99.3299 111.9 98.9399 111.64 98.5399C111.58 98.4499 111.49 98.3699 111.45 98.2799C111.34 97.9199 111.56 97.7399 112.28 97.4299L112.76 97.2299C113.29 97.0299 113.86 97.0299 114.17 97.2599C115.03 97.9699 115.22 98.9699 115.37 99.9299C115.47 100.65 115.46 101.36 115.49 102.03H115.42V102.05Z" fill="#231F20"/>
<path d="M109.41 75.31C108.94 74.37 107.85 73.28 106.75 72.35C105.62 71.4 104.38 70.51 103.1 69.67C102.16 69.06 101.17 68.53 100.21 67.95C96.82 65.88 93.26 64.03 89.71 62.16C88.12 61.35 86.49 60.61 84.87 59.91C83.83 59.45 82.79 58.98 81.75 58.52C80.71 58.05 79.69 57.55 78.71 56.94C78.1 56.56 78.24 56.46 78.9 56.43C79.23 56.42 79.69 56.41 80.25 56.43C80.79 56.47 81.4 56.59 82.03 56.79C83.14 57.16 84.25 57.52 85.35 57.92C86.44 58.34 87.53 58.77 88.61 59.22C90.76 60.14 92.92 61.07 94.98 62.25C97.44 63.64 100.13 64.85 102.64 66.32C105.39 67.96 108.13 69.66 110.51 72.09C110.87 72.48 111.22 72.87 111.53 73.35C111.85 73.78 112.14 74.39 112.29 74.86C112.68 75.86 112.87 76.87 113.06 77.86C113.55 80.88 113.54 83.88 113.55 86.82C113.55 89.11 113.65 91.36 113.63 93.62C113.63 94.12 113.64 94.61 113.63 95.11C113.56 96.97 113.17 97.53 112.43 97.86C112.25 97.93 112.08 98.04 111.91 98.08C111.35 98.21 110.93 97.41 110.78 96.05C110.58 92.04 110.78 87.87 110.66 83.77C110.62 82.25 110.52 80.74 110.34 79.28C110.25 78.55 110.12 77.84 109.96 77.16C109.86 76.84 109.8 76.47 109.68 76.19C109.57 75.89 109.46 75.55 109.35 75.38L109.41 75.34V75.31Z" fill="#231F20"/>
<path d="M112.84 97.95C112.82 97.89 112.77 97.85 112.7 97.83C112.41 97.86 112.23 97.85 112.1 97.85C111.98 97.85 112.01 97.83 111.97 97.83C111.92 97.82 111.86 97.82 111.81 97.83C111.78 97.83 111.76 97.85 111.73 97.87C111.71 97.88 111.69 97.9 111.62 97.99C111.5 98.14 111.39 98.27 111.27 98.44C111.13 98.66 111.01 98.89 110.89 99.12C110.79 99.36 110.68 99.6 110.56 99.83C109.74 101.51 109.18 103.48 108.93 105.52C108.81 106.42 108.84 107.35 108.85 108.26L108.89 110.03C108.9 110.62 108.89 111.22 108.67 111.84C108.53 112.23 108.58 112.17 108.35 111.88C108.24 111.73 108 111.53 107.82 111.28C107.72 111.15 107.6 111.02 107.52 110.87C107.45 110.72 107.38 110.56 107.34 110.39C106.66 107.99 106.44 105.43 106.9 102.85C107.2 101.33 107.43 99.68 108.06 98.14C108.21 97.75 108.42 97.38 108.61 97.01C108.87 96.59 109.07 96.21 109.41 95.76C109.79 95.29 110.28 94.91 110.86 94.76C111.14 94.67 111.45 94.64 111.74 94.63H112.24C112.45 94.59 112.67 94.56 112.88 94.55C113.66 94.51 114.39 94.91 114.95 95.42C115.26 95.7 115.43 95.92 115.62 96.16C115.8 96.39 115.96 96.63 116.12 96.86C117.03 98.28 117.61 99.72 118.33 101.09C118.85 102.17 119.57 103.11 120.11 104.14C120.23 104.36 120.38 104.57 120.49 104.8C120.7 105.22 120.77 105.54 120.69 105.82C120.64 106.09 120.46 106.32 120.19 106.58C120.07 106.69 119.97 106.81 119.87 106.9C119.57 107.16 118.82 107.1 118.23 106.59C116.63 104.99 115.49 103.05 114.59 101.15C114.24 100.46 113.9 99.76 113.55 99.16C113.38 98.86 113.2 98.57 113.04 98.35L112.84 98.09C112.84 98.09 112.84 98.07 112.84 98.06L112.88 97.98L112.84 97.95Z" fill="#231F20"/>
<path d="M104.44 18.94C104.23 17.82 104.41 16.73 105.08 15.77L105.5 15.28C105.67 15.14 105.84 15.01 106.02 14.91C107.41 14.29 108.7 14.64 109.7 15.25C110.14 15.53 110.59 15.86 110.89 16.37C111.1 16.69 111.16 17.12 111.1 17.5C111.07 17.69 110.93 17.85 110.84 18C110.73 18.14 110.58 18.24 110.49 18.37C110.36 18.52 110.26 18.4 110.2 18.18C110.16 18.07 110.16 17.95 110.09 17.81C110.03 17.67 109.88 17.53 109.82 17.44L109.69 17.28C109.62 17.24 109.58 17.22 109.54 17.18C109.47 17.09 109.38 16.98 109.25 16.87C108.98 16.65 108.59 16.44 108.18 16.29C107.66 16.11 107.15 16.34 106.87 16.58C106.54 16.82 106.3 17.4 106.32 17.99C106.32 18.34 106.44 18.72 106.58 18.92C106.69 19.07 106.88 19.19 107.08 19.2C107.18 19.22 107.31 19.2 107.43 19.16C107.56 19.11 107.7 19.07 107.76 19.01C107.86 18.92 107.83 18.85 107.79 18.79C107.74 18.73 107.65 18.64 107.56 18.62C107.54 18.62 107.52 18.62 107.51 18.63C107.51 18.64 107.59 18.52 107.62 18.48C107.7 18.34 107.72 18.26 107.72 18.2C107.73 18.2 107.71 18.14 107.73 18.2C107.75 18.24 107.75 18.21 107.78 18.28C107.82 18.33 107.78 18.28 107.73 18.23C107.69 18.19 107.64 18.14 107.58 18.1C107.48 18.02 107.36 17.95 107.26 17.89C107.08 17.78 106.95 17.65 106.94 17.38C106.89 17.13 107.2 16.75 107.78 16.68C108.61 16.66 109.07 17.07 109.41 17.45C109.73 17.85 109.95 18.38 109.91 19.03C109.88 19.69 109.43 20.38 108.94 20.7C108.82 20.78 108.7 20.85 108.58 20.91C108.46 20.97 108.38 20.99 108.28 21.03C108.08 21.1 107.89 21.17 107.64 21.2C107.31 21.27 106.89 21.23 106.51 21.16C106.12 21.08 105.78 20.88 105.47 20.65C105.16 20.41 104.92 20.07 104.75 19.78C104.59 19.49 104.49 19.2 104.41 18.91L104.46 18.89L104.44 18.94Z" fill="#231F20"/>
<path d="M116.22 31.21C116.2 30.81 115.92 30.25 115.65 30.08C115.53 30 115.37 30 115.22 29.96C114.65 29.82 114.04 30.03 113.85 30.69C113.8 30.83 113.8 31.01 113.82 31.1C113.85 31.21 113.88 31.21 113.88 31.24C113.88 31.3 114.03 31.31 114.19 31.31C114.37 31.31 114.53 31.36 114.62 31.25C114.66 31.15 114.7 31.02 114.97 31.11C115.1 31.16 115.27 31.35 115.29 31.67C115.3 31.96 115.18 32.32 114.96 32.55C114.76 32.77 114.51 32.92 114.22 32.99C113.93 33.07 113.59 33.1 113.21 32.99C112.84 32.91 112.47 32.66 112.25 32.34C112.04 32.04 111.91 31.72 111.86 31.45C111.75 30.91 111.78 30.46 111.92 29.97C112.04 29.49 112.37 29.05 112.74 28.74C113.63 27.99 114.72 27.62 115.77 27.83C116.34 27.95 116.89 28.23 117.31 28.63C117.72 29.04 117.97 29.45 118.2 29.93C118.44 30.53 118.53 31.18 118.48 31.81C118.38 32.76 117.93 33.6 117.35 34.29C116.9 34.82 116.38 35.37 115.67 35.7C115.52 35.78 115.37 35.86 115.2 35.9C114.89 35.99 114.67 35.96 114.52 35.82C114.37 35.7 114.3 35.49 114.26 35.18C114.24 35.04 114.22 34.9 114.22 34.76C114.22 34.3 114.42 33.88 114.62 33.7C114.93 33.45 115.14 33.24 115.35 33.04C115.56 32.84 115.75 32.62 115.89 32.37C116.12 32 116.23 31.6 116.18 31.2L116.23 31.18L116.22 31.21Z" fill="#231F20"/>
<path d="M81.5399 25.62C80.7999 26.23 79.8999 26.41 79.1399 26.36C78.3699 26.32 77.6899 26.09 77.0799 25.76C76.6399 25.52 76.1899 25.26 75.8399 24.87C75.5499 24.53 75.2599 24.12 75.1099 23.72C74.9399 23.33 74.8199 22.92 74.7499 22.51C74.6199 21.68 74.6499 20.82 74.9799 20.05C75.2599 19.37 75.6799 18.76 76.2299 18.32C76.9199 17.74 77.7899 17.42 78.6399 17.41C78.9099 17.41 78.8799 17.56 78.7099 17.77C78.6199 17.88 78.4999 18.01 78.3599 18.13C78.2199 18.27 78.0699 18.4 77.8999 18.5C77.2899 18.88 76.8699 19.4 76.6299 19.95C76.4399 20.52 76.2999 21.09 76.3199 21.75C76.3199 22.14 76.4599 22.54 76.6699 22.89C76.8699 23.23 77.1299 23.46 77.4399 23.7C78.0899 24.23 79.0799 24.52 79.7599 24.3C80.1599 24.16 80.4699 23.87 80.6199 23.35C80.8699 22.53 80.7099 21.64 80.0699 21.51C79.9499 21.47 79.7399 21.47 79.6499 21.49C79.4899 21.52 79.3799 21.61 79.2699 21.73C79.1499 21.86 79.0599 22.04 79.0299 22.18C79.0099 22.22 79.0299 22.25 79.0299 22.28C79.0299 22.29 79.0499 22.29 79.0499 22.3C78.9999 22.3 78.8999 22.27 78.8599 22.26C78.8099 22.26 78.7499 22.26 78.6899 22.26C78.6599 22.26 78.6399 22.26 78.6099 22.26C78.5299 22.29 78.5799 22.26 78.5599 22.27C78.5299 22.29 78.6299 22.22 78.6299 22.2C78.6399 22.18 78.6499 22.17 78.6599 22.16C78.6899 22.13 78.7099 22.1 78.7299 22.07C78.7599 22.02 78.7799 21.98 78.7299 22.07C78.7099 22.11 78.6999 22.15 78.6999 22.2C78.6999 22.3 78.6799 22.42 78.6699 22.57C78.6699 22.7 78.6699 22.84 78.6699 22.97C78.6699 23.19 78.5899 23.38 78.3699 23.5C78.2599 23.56 78.1199 23.61 77.9099 23.57C77.7299 23.56 77.4199 23.44 77.1899 23.16C76.7599 22.59 76.8199 21.9 76.9299 21.51C77.0499 21.1 77.2499 20.78 77.4699 20.5C77.6999 20.23 77.9599 20 78.3099 19.77C78.6799 19.54 79.1099 19.42 79.5499 19.38C79.8899 19.38 80.0599 19.39 80.3199 19.44C80.5699 19.49 80.8199 19.56 81.0699 19.68C81.5799 19.91 82.0399 20.33 82.3199 20.8C82.8599 21.71 82.8699 22.63 82.7399 23.38C82.6299 24.09 82.2899 25.04 81.5399 25.66L81.4999 25.62H81.5399Z" fill="#231F20"/>
</svg>
