<svg width="128" height="128" viewBox="0 0 128 128" fill="none" xmlns="http://www.w3.org/2000/svg">
<path d="M89.95 102.88C90.06 102.37 90.15 101.85 90.22 101.3C90.29 100.78 90.35 100.26 90.38 99.72C90.4 99.33 90.36 98.94 90.37 98.55C90.39 97.16 90.33 95.75 90.23 94.32C90.21 93.68 90.15 93.05 90.09 92.42C90.01 91.62 89.92 90.8 90.09 89.97C90.13 89.71 90.21 89.74 90.36 89.95C90.49 90.15 90.84 90.51 90.99 90.96C91.36 92.55 91.87 94.12 91.84 95.82C91.86 96.83 92.07 97.86 92.12 98.9C92.18 100.04 92.12 101.23 92 102.35C91.93 103.05 91.81 103.76 91.64 104.47C91.39 105.55 90.88 106.6 90.3 107.52C89.85 108.24 89.46 108.99 88.93 109.61C88.82 109.75 88.71 109.89 88.59 110.03C88.12 110.51 87.88 110.55 87.44 110.33C87.34 110.28 87.24 110.24 87.15 110.17C86.85 109.97 86.82 109.56 87.04 109.12C87.38 108.48 87.68 107.81 88.07 107.26C88.44 106.7 88.8 106.16 89.07 105.6C89.48 104.8 89.74 103.89 89.89 102.86H89.94L89.95 102.88Z" fill="#231F20"/>
<path d="M59.9902 58.22C58.9902 56.63 58.1402 54.86 57.7102 52.95C57.5702 52.26 57.4102 51.56 57.4002 50.84C57.3602 49.58 57.5802 48.35 57.8502 47.2C58.1302 46.03 58.5202 44.89 59.0202 43.8C59.4602 42.83 59.9802 41.89 60.5902 41.02C60.9902 40.47 61.4502 39.95 61.9702 39.5C62.4502 39.01 63.1502 38.77 63.7502 38.5C64.1502 38.35 64.0802 38.36 63.8502 38.64C63.7402 38.78 63.5902 38.99 63.4402 39.28C63.3702 39.42 63.2902 39.57 63.2202 39.74C63.1902 39.83 63.1402 39.9 63.1102 39.99L62.9402 40.19C62.5302 40.67 62.1802 41.19 61.8402 41.7C61.4902 42.21 61.1402 42.73 60.8602 43.28C60.2602 44.38 59.8102 45.57 59.4402 46.81C58.9902 48.31 58.8702 49.93 59.0902 51.43C59.3002 53.11 59.9902 54.71 60.8802 56.22C61.4402 57.15 62.0702 58.05 62.7402 58.93C63.7502 60.27 64.8302 61.6 65.8002 63.05C66.5402 64.17 67.3202 65.37 67.5802 66.88C67.6302 67.21 67.6902 67.54 67.6702 67.88C67.6202 69.16 67.1602 69.46 66.6002 69.5C66.4602 69.5 66.3202 69.53 66.2002 69.5C65.7702 69.43 65.6202 68.91 65.5602 68.27C65.5602 67.32 65.3402 66.46 64.9002 65.55C64.4802 64.64 63.8402 63.69 63.1602 62.74C62.1302 61.32 60.9902 59.86 59.9602 58.26L60.0002 58.23L59.9902 58.22Z" fill="#231F20"/>
<path d="M96.0399 23.49C90.8199 18.43 84.1399 14.82 77.0099 13.25C73.4499 12.47 69.7799 12.2 66.1599 12.53C62.5199 12.85 59.0399 13.82 55.6599 15.31C50.7399 17.48 46.2999 20.62 42.7499 24.58C39.9399 27.65 37.7399 31.27 36.0599 35.13C34.3799 39 33.2599 43.11 32.3699 47.32C31.8899 49.44 31.5799 51.54 30.8399 53.84C30.3999 55.13 29.7199 56.03 29.0999 56.98C28.4599 57.91 27.7999 58.79 27.1299 59.67C25.7899 61.41 24.4199 63.11 23.1399 64.84C22.4999 65.7 21.8599 66.57 21.2699 67.43C20.9799 67.85 20.6699 68.29 20.4299 68.7L20.2599 68.99C20.2099 69.06 20.1999 69.1 20.1699 69.16C20.1099 69.27 20.0699 69.38 20.0499 69.5C20.0299 69.75 20.1899 69.97 20.3699 70.15C20.4199 70.19 20.5899 70.36 20.7999 70.5C20.9799 70.64 21.1899 70.78 21.4099 70.92C22.2799 71.48 23.2499 72 24.2299 72.56C25.1899 73.12 26.1799 73.71 27.1199 74.51C27.5899 74.9 28.0499 75.39 28.4399 75.98C28.8899 76.76 28.9499 77.29 29.1299 77.81C29.7399 79.92 30.3599 81.94 31.1299 83.93C32.6499 87.86 34.6899 91.72 37.7399 94.27C38.1999 94.72 38.7499 95.02 39.2699 95.37C39.7799 95.72 40.4199 96.01 41.0099 96.31C42.2099 96.89 43.4599 97.41 44.7299 97.88C47.2799 98.81 49.9699 99.63 52.5999 100.88C55.3699 102.19 57.5899 104.43 59.1499 106.89C59.9499 108.12 60.5599 109.43 61.0899 110.75C61.6099 112.08 62.0899 113.4 62.4699 114.75C62.9199 116.44 63.0199 117.19 62.8799 117.19C62.7299 117.19 62.2999 116.44 61.5199 115.17C60.7299 113.91 59.6599 112.1 58.1799 110.18C56.7399 108.25 54.9899 106.15 52.6799 104.75C51.2199 103.85 49.1999 103.19 47.2199 102.54C45.2299 101.86 43.1299 101.14 41.0599 100.23C40.0299 99.77 38.9999 99.28 37.9999 98.72C37.4799 98.41 36.9499 98.04 36.4299 97.7C35.8999 97.35 35.4799 96.92 34.9999 96.52C33.1999 94.86 31.8099 92.93 30.6499 90.93C28.3499 86.95 26.9899 82.6 25.8399 78.49L25.6299 77.81L25.7799 77.73L26.1099 77.54C26.3299 77.41 26.5499 77.28 26.7699 77.14L26.9299 77.04C27.2999 76.82 24.4399 78.52 25.6399 77.8L25.6199 77.77L25.5899 77.73L25.5299 77.65C25.3899 77.43 25.1099 77.16 24.7999 76.9C24.1499 76.36 23.2999 75.84 22.3999 75.33C21.4999 74.81 20.5399 74.3 19.5199 73.64C19.2699 73.49 19.0099 73.3 18.7399 73.09C18.6099 72.99 18.4799 72.9 18.3299 72.77C18.1799 72.63 17.9299 72.43 17.7699 72.25C17.0799 71.51 16.6999 70.58 16.6099 69.61C16.6899 68.98 16.9199 68.38 17.1299 67.78C17.2599 67.45 17.3999 67.28 17.4899 67.11C17.5899 66.94 17.6999 66.74 17.7999 66.59C18.2199 65.95 18.6399 65.35 19.0899 64.78C19.9799 63.65 20.8899 62.57 21.7899 61.5C23.5799 59.36 25.3299 57.18 26.8699 55C27.2999 54.35 27.7799 53.63 27.9899 53.08C28.2399 52.43 28.4499 51.62 28.6399 50.82C28.9999 49.14 29.3599 47.45 29.7299 45.76C30.4899 42.33 31.3899 38.86 32.7099 35.5C35.2599 28.77 39.5299 22.48 45.2799 18.03C48.3999 15.54 51.9199 13.63 55.5699 12.12C59.2399 10.61 63.2099 9.70004 67.1699 9.49004C75.1299 9.06004 83.0799 11.22 89.8799 15.18C94.0899 17.6 97.8599 20.78 100.95 24.53C104.05 28.28 106.39 32.62 107.94 37.2C109.08 40.68 109.78 44.31 110.05 47.96C110.09 48.87 110.2 49.79 110.17 50.7L110.12 53.45L109.87 56.18C109.79 57.09 109.59 57.99 109.46 58.89C108.8 62.49 107.69 66 106.13 69.31L104.85 71.73C104.41 72.53 103.89 73.28 103.42 74.06C102.41 75.6 101.25 77.01 100.07 78.36C98.2299 80.46 96.3299 82.42 94.9299 84.63C94.2299 85.73 93.6599 86.89 93.2699 88.1C93.1799 88.41 93.0799 88.71 92.9999 89.01L92.7999 89.94C92.6899 90.45 92.7199 91.11 92.7299 91.77C92.8299 94.43 93.0899 97.16 93.2599 99.89C93.3399 101.26 93.4199 102.63 93.4299 104.04C93.4299 104.74 93.4299 105.45 93.3499 106.2C93.3299 106.39 93.3199 106.57 93.2799 106.78L93.2299 107.08L93.1399 107.48C93.0599 107.74 92.9799 108 92.8399 108.24C92.7799 108.36 92.6999 108.47 92.5999 108.56C92.5399 108.69 92.4099 108.75 92.3199 108.85L92.2699 108.9L91.3899 109.54L90.6399 110.06C90.1399 110.4 89.6299 110.73 89.1199 111.06C88.0999 111.72 87.0599 112.33 85.9899 112.93C81.9699 115.14 79.1099 116.21 77.0599 116.8C74.9999 117.37 73.7399 117.45 72.7099 117.32C72.2399 117.25 71.6299 117.22 71.3499 117.11C70.3899 116.65 73.9199 115.81 79.6999 113.01C81.5399 112.12 83.3399 111.14 85.1199 110.06C86.0099 109.53 86.8999 108.96 87.7799 108.38C88.2099 108.08 88.6499 107.78 89.0799 107.48L89.7199 107.02L90.0399 106.79L90.1699 106.68C90.1699 106.68 90.2199 106.62 90.2299 106.59V106.53L90.2599 106.4C90.3099 106.05 90.3299 105.61 90.3399 105.16C90.3599 104.26 90.3299 103.32 90.2899 102.36C90.2099 100.45 90.0699 98.5 89.9399 96.52C89.8799 95.52 89.8199 94.53 89.7599 93.53C89.7099 92.5 89.6499 91.52 89.7099 90.33C89.7199 90.07 89.7799 89.56 89.8399 89.34L90.0199 88.51C90.1299 87.95 90.3399 87.42 90.4999 86.88C90.8899 85.82 91.3599 84.78 91.9299 83.82C93.0599 81.89 94.4499 80.23 95.8099 78.71C97.1799 77.17 98.5199 75.74 99.6899 74.23C101.99 71.23 103.82 67.76 105.08 64.14C107.5 57.27 107.85 49.65 106.3 42.49C104.76 35.33 101.28 28.54 95.9599 23.52L95.9999 23.45L96.0399 23.49Z" fill="#231F20"/>
<path d="M74.77 37.15C72.68 36.53 70.51 36.56 68.41 37.24C66.32 37.91 64.37 39.15 62.77 40.74C61.59 41.91 60.7 43.32 59.92 44.75C58.64 47.33 58.06 50.29 58.74 53.08C59.25 55.91 61.39 58.29 63.54 60.57C64.02 61.07 64.53 61.59 65 62.21C65.45 62.83 65.9 63.55 66.06 64.44L66.35 66.52L66.51 67.51C66.54 67.67 66.57 67.83 66.63 67.97C66.65 67.99 66.69 67.99 66.72 68C66.92 68.04 68.04 68.22 68.88 68.33C69.76 68.45 70.65 68.56 71.53 68.64L72.19 68.7L72.53 68.72C72.75 68.8 72.79 68.56 72.86 68.4L73.3 67.27C73.48 66.85 73.71 66.44 73.94 66.04C74.59 65.05 74.62 65.26 74.7 66.29C74.73 66.8 74.87 67.54 74.81 68.38C74.79 68.62 74.81 68.73 74.73 69.16C74.66 69.52 74.59 70.06 74.33 70.36C74.27 70.45 74.19 70.49 74.11 70.55L73.99 70.63L73.93 70.67L73.9 70.69C73.88 70.67 74.02 70.9 73.96 70.8H73.94C73.75 70.88 73.56 70.96 73.35 71.02C73.11 71.02 72.87 71.03 72.62 71.04C72.36 71.05 72.09 71.03 72 71.03C70.89 70.97 69.84 70.86 68.78 70.74L67.19 70.53L66.79 70.47C66.64 70.45 66.31 70.4 66.07 70.35C65.94 70.32 65.81 70.31 65.69 70.27L65.36 70.12C65.13 70.02 64.97 69.9 64.76 69.78C64.62 69.52 64.43 69.31 64.34 69C64.25 68.7 64.19 68.37 64.12 68.06L63.94 66.99L63.64 65.02C63.58 64.39 62.94 63.52 62.04 62.62C61.1 61.66 60.18 60.65 59.3 59.56C58.43 58.46 57.59 57.25 56.98 55.89C56.03 53.59 55.55 51.03 55.9 48.52C56.2 46.02 57.13 43.64 58.48 41.59C59.98 39.34 61.97 37.45 64.29 36.09C66.61 34.73 69.31 33.92 72.03 33.99C73.72 33.99 75.34 34.41 76.89 34.98C78.44 35.59 79.83 36.52 81.06 37.61C82.9 39.29 84.26 41.44 85.11 43.74C85.93 46.05 86.27 48.51 86.15 50.93C86.13 51.88 85.98 52.79 85.83 53.74C85.65 54.72 85.28 55.62 84.88 56.49C84.01 58.2 82.86 59.71 81.56 61.05C80.98 61.64 80.42 62.22 79.78 62.74C77.34 64.6 76.3 64.82 75.42 64.53C75.21 64.46 74.97 64.41 74.83 64.31C74.34 63.95 75.18 63.07 76.72 61.71C78.97 59.7 81.26 57.51 82.51 54.96C82.82 54.33 83.04 53.69 83.18 53.07C83.29 52.36 83.45 51.61 83.46 50.87C83.56 49.38 83.46 47.87 83.12 46.42C82.15 42.09 78.98 38.33 74.77 37.24V37.17V37.15Z" fill="#231F20"/>
<path d="M65.33 72.1901C65.01 72.6601 65.08 74.0201 65.19 74.3701C65.32 74.7901 73.11 75.5801 73.36 75.1701C73.63 74.7301 73.67 72.8501 73.55 72.8301C72.95 72.7401 71.17 73.0101 69.46 72.8301C67.41 72.6301 65.45 72.0001 65.32 72.1901H65.33Z" fill="#231F20"/>
<path d="M65.54 75.42C65.26 75.77 65.4 76.89 65.51 77.14C65.64 77.46 72.11 78.23 72.33 77.94C72.73 77.42 72.81 76.01 72.7 75.99C72.17 75.91 70.63 76.07 69.15 75.93C67.37 75.75 65.65 75.28 65.54 75.42Z" fill="#231F20"/>
<path d="M75.17 54.75C73.97 55.79 72.22 56.28 70.7 56.06C69.93 55.97 69.22 55.74 68.58 55.45C68.26 55.33 67.9 55.1 67.58 54.91C67.28 54.68 66.96 54.46 66.71 54.2C65.93 53.46 65.32 52.6 64.87 51.67C64.49 50.84 64.22 49.95 64.16 48.97C64.13 48.73 64.16 48.47 64.17 48.21C64.17 48.08 64.2 47.95 64.23 47.81C64.27 47.66 64.3 47.47 64.35 47.32C64.59 46.69 65.03 46.19 65.59 45.87C66.16 45.57 66.84 45.53 67.43 45.75C67.73 45.85 68 46.02 68.24 46.23C68.36 46.33 68.48 46.44 68.59 46.57C68.69 46.67 68.76 46.77 68.83 46.87C69.41 47.69 69.68 48.53 69.9 49.37C70.26 50.85 70.46 52.34 70.46 53.81C70.44 55.68 70.3 57.69 69.12 59.28C68.71 59.75 68.76 59.66 68.66 59.12C68.49 58.55 68.24 57.61 68.22 56.64C68.35 54.93 68.22 53.21 68.02 51.54C67.9 50.71 67.72 49.89 67.47 49.17C67.34 48.82 67.19 48.48 67.04 48.22C66.93 48.05 66.95 48.07 66.92 48.01C66.89 47.96 66.85 47.92 66.8 47.89C66.67 47.81 66.48 47.85 66.37 47.98C66.31 48.05 66.29 48.11 66.26 48.23C66.23 48.41 66.19 48.62 66.21 48.84C66.24 49.75 66.62 50.75 67.11 51.6C67.72 52.53 68.48 53.26 69.5 53.63C70.53 54.04 71.62 54.17 72.58 53.81C73.76 53.39 74.75 52.28 75.2 50.98C75.38 50.5 75.49 49.98 75.49 49.54C75.49 49.43 75.48 49.33 75.46 49.25L75.44 49.16C75.44 49.16 75.44 49.16 75.44 49.15C75.44 49.15 75.49 49.11 75.51 49.1C75.55 49.08 75.59 49.04 75.63 49C75.66 48.97 75.66 48.97 75.68 48.95V48.93H75.69C75.39 49.54 75.61 49.1 75.54 49.23H75.49C75.49 49.23 75.42 49.23 75.38 49.21C75.21 49.22 74.78 49.5 74.48 49.89C74.16 50.28 73.89 50.75 73.66 51.24C73.31 52 73.07 52.84 73.02 53.6C72.97 54.43 72.99 55.33 72.98 56.21C72.98 56.6 73 56.99 72.98 57.39C72.96 58.13 72.87 58.63 72.7 58.97C72.56 59.31 72.34 59.49 72.08 59.62C71.97 59.68 71.86 59.76 71.78 59.79C71.54 59.88 71.16 59.26 71 58.21C70.94 57.41 70.89 56.61 70.83 55.8C70.79 54.96 70.74 54.16 70.81 53.18C70.91 52.14 71.15 51.24 71.5 50.32C71.87 49.41 72.28 48.51 73.2 47.58C73.41 47.4 73.56 47.24 73.86 47.07C74 46.99 74.13 46.91 74.28 46.84C74.46 46.77 74.64 46.73 74.83 46.69C75.2 46.63 75.69 46.62 76.07 46.74C76.28 46.81 76.45 46.86 76.67 46.97C76.83 47.06 76.98 47.17 77.12 47.29C77.25 47.41 77.33 47.51 77.42 47.64C77.61 47.9 77.66 48.06 77.76 48.29C77.81 48.45 77.86 48.65 77.88 48.8C77.93 49.11 77.93 49.37 77.92 49.61C77.89 50.09 77.8 50.5 77.69 50.89C77.22 52.43 76.38 53.72 75.18 54.79L75.14 54.75H75.17Z" fill="#231F20"/>
<path d="M75.1298 30.87C75.1998 30.18 75.2798 29.5 75.3698 28.82L75.3198 29.21C75.4498 28.21 75.5998 27.22 75.7298 26.22C75.7798 25.81 75.7998 25.47 75.5798 25.1C75.3998 24.8 75.0598 24.51 74.7098 24.43C74.3398 24.35 73.9198 24.36 73.5898 24.58C73.2998 24.77 72.9698 25.08 72.9198 25.45C72.6798 27.26 72.3898 29.06 72.2098 30.87C72.1798 31.22 72.3998 31.66 72.6298 31.9C72.8798 32.15 73.2898 32.34 73.6598 32.32C74.0298 32.3 74.4198 32.18 74.6898 31.9C74.9598 31.6 75.0698 31.28 75.1098 30.87H75.1298Z" fill="#231F20"/>
<path d="M52.7701 35.26C54.1901 36.31 55.61 37.35 57.03 38.4C57.3101 38.61 57.8201 38.64 58.1501 38.55C58.4801 38.46 58.8501 38.2 59.0201 37.88C59.2001 37.54 59.29 37.14 59.17 36.76C59.05 36.38 58.8201 36.13 58.5001 35.89C57.0801 34.84 55.6601 33.8 54.2401 32.75C53.9601 32.54 53.45 32.51 53.12 32.6C52.79 32.69 52.4201 32.95 52.2501 33.27C52.0701 33.61 51.98 34.01 52.1 34.39C52.22 34.77 52.4501 35.02 52.7701 35.26Z" fill="#231F20"/>
<path d="M88.04 42.96C89.76 42.44 91.46 41.85 93.13 41.17C93.49 41.02 93.79 40.86 94 40.5C94.18 40.19 94.26 39.73 94.15 39.38C94.04 39.03 93.82 38.69 93.48 38.51C93.14 38.33 92.72 38.22 92.36 38.36C90.7 39.04 89 39.63 87.27 40.15C86.54 40.37 86.01 41.18 86.26 41.93C86.51 42.68 87.27 43.18 88.04 42.94V42.96Z" fill="#231F20"/>
<path d="M89.7701 55.67C91.5101 56.11 93.2701 56.48 95.0501 56.75C95.4101 56.81 95.7401 56.81 96.0701 56.62C96.3401 56.46 96.6101 56.14 96.6801 55.83C96.8201 55.2 96.4901 54.31 95.7501 54.2C93.9701 53.93 92.2101 53.56 90.4701 53.12C89.8001 52.95 89.0001 53.34 88.8401 54.05C88.6801 54.76 89.0501 55.5 89.7701 55.68V55.67Z" fill="#231F20"/>
<path d="M51.9301 48.5C51.0801 48.44 50.2201 48.37 49.3701 48.28C49.1501 48.26 48.9301 48.23 48.7101 48.2C48.6101 48.19 48.5101 48.18 48.4001 48.16C48.3601 48.16 47.9601 48.1 48.1701 48.13C48.3801 48.16 47.9701 48.1 47.9401 48.1C47.8401 48.09 47.7401 48.07 47.6301 48.06C47.3901 48.02 47.1601 47.99 46.9201 47.95C46.5601 47.89 46.2301 47.89 45.9001 48.08C45.6301 48.24 45.3601 48.56 45.2901 48.87C45.1401 49.51 45.4801 50.38 46.2201 50.5C48.1101 50.81 50.0201 51.02 51.9301 51.15C52.6201 51.2 53.2901 50.51 53.2501 49.83C53.2201 49.07 52.6701 48.55 51.9301 48.51V48.5Z" fill="#231F20"/>
</svg>
