<svg width="128" height="128" viewBox="0 0 128 128" fill="none" xmlns="http://www.w3.org/2000/svg">
<path d="M56.97 40.44L62.58 36.43C63.26 35.94 63.9 35.41 64.59 34.94C67.01 33.26 69.48 31.64 71.92 29.99C72.46 29.63 73 29.25 73.53 28.87C74.07 28.51 74.62 28.14 75.15 27.78C76.5 26.8 78 26.02 79.52 25.31C79.99 25.09 79.96 25.17 79.67 25.53C79.37 25.88 78.87 26.58 78.2 27.28C77.89 27.58 77.61 27.91 77.28 28.17L76.3 28.97C75.64 29.5 75 30.06 74.32 30.55C72.94 31.53 71.55 32.5 70.13 33.44C68.42 34.56 66.81 35.94 65.16 37.22L59.73 41.44L56.42 44.07C54.78 45.43 53.1 46.77 51.66 48.27L50.9 49.17C50.78 49.32 50.72 49.46 50.63 49.6C50.54 49.73 50.46 49.87 50.39 50.06C50.11 50.76 49.92 51.49 49.79 52.23C49.73 52.55 49.71 52.87 49.67 53.19C49.54 54.38 49.44 54.72 48.8 55.05C48.66 55.12 48.52 55.22 48.38 55.28C47.92 55.48 47.38 54.93 47.28 53.79C47.13 52.12 47.47 50.42 48.19 48.83C48.38 48.44 48.75 47.9 49.02 47.55L49.86 46.59C50.43 46.02 51 45.43 51.58 44.91C53.31 43.31 55.13 41.87 56.94 40.4L56.98 40.45L56.97 40.44Z" fill="#231F20"/>
<path d="M47.6899 52.05C47.7299 51.25 47.8999 50.46 48.1699 49.75C48.2599 49.49 48.2999 49.21 48.4299 48.98C48.6399 48.55 48.9099 48.17 49.1799 47.79C49.4899 47.45 49.7699 47.1 50.0799 46.79C50.3399 46.5 50.5699 46.2 50.7999 45.91C50.9599 45.73 51.0499 45.49 51.2799 45.37C51.3799 45.3 51.4899 45.23 51.5999 45.18C51.6399 45.18 51.6399 45.14 51.6999 45.15C51.7599 45.17 51.8299 45.19 51.8899 45.21C52.0099 45.24 52.0399 45.19 52.1099 45.18C52.2799 45.14 52.2799 45.18 52.3099 45.36C52.3499 45.48 52.2799 45.53 52.5399 45.91C52.6699 46.17 52.6399 46.3 52.6299 46.45C52.5899 46.71 52.4699 46.89 52.3499 47.07C52.2299 47.25 52.0999 47.42 51.9799 47.6C51.7399 47.95 51.4699 48.27 51.1699 48.58C50.7999 48.96 50.6799 49.47 50.4999 49.92C50.3299 50.43 50.1499 50.94 50.1199 51.48C50.0999 51.81 50.0799 52.15 50.1399 52.49C50.1999 53 50.3499 53.53 50.6099 54C50.7299 54.18 50.8799 54.33 51.0299 54.48C51.1999 54.62 51.3799 54.75 51.5199 54.9C51.5799 54.97 51.6699 55.01 51.7299 55.08C51.9499 55.34 51.8699 55.53 51.3899 56.01L51.0599 56.33C50.6799 56.68 50.2399 56.82 49.9299 56.68C48.9599 56.29 48.3899 55.42 48.0299 54.42C47.7699 53.68 47.6199 52.86 47.6299 52.05H47.6899Z" fill="#231F20"/>
<path d="M64.8801 45.38L69.4101 42.32L71.0301 41.16C72.9701 39.84 74.9401 38.56 76.9101 37.28C77.7701 36.69 78.6301 36.11 79.4901 35.52L81.1701 34.44C81.7101 34.05 82.3801 33.86 82.9501 33.52C83.3201 33.33 83.2701 33.36 83.0201 33.61C82.8501 33.79 82.6701 33.98 82.5101 34.15C82.4001 34.26 82.3501 34.47 82.2301 34.6C82.1101 34.73 81.9701 34.86 81.8301 34.98C79.8301 36.83 77.6301 38.38 75.3701 39.91C74.0101 40.81 72.6801 41.87 71.3401 42.85L66.8701 46.06L64.1101 48.03C62.7201 49.02 61.3201 50.02 59.9301 51.01C58.8601 51.79 57.8801 52.64 56.8301 53.43C56.6001 53.6 56.3801 53.78 56.1401 53.94C55.2401 54.53 54.8801 54.62 54.4501 54.39C54.3501 54.34 54.2401 54.3 54.1601 54.23C53.9001 54.02 54.1101 53.54 54.6801 53L55.9901 51.8C56.4601 51.42 56.9201 51.05 57.3901 50.67C58.3501 49.93 59.3201 49.18 60.3201 48.47C61.8201 47.43 63.3301 46.38 64.8401 45.33L64.8701 45.36L64.8801 45.38Z" fill="#231F20"/>
<path d="M49.2998 47.16C49.1298 48.42 47.3398 50.14 47.7898 52.33C48.1898 54.26 51.2998 56.75 51.2998 56.75L48.6598 58.44L44.2798 51.97L49.2898 47.17L49.2998 47.16Z" fill="#231F20"/>
<path d="M101.55 24.3099V29.9499L105.92 33.4199V37.0699L99.0698 31.4799L99.3398 23.5699L101.55 24.3099Z" fill="#231F20"/>
<path d="M114.11 62.04C114.1 60.84 113.98 59.64 113.71 58.47L113.53 57.84C113.46 57.65 113.43 57.52 113.34 57.32C112.78 56 111.76 54.64 110.75 53.4C110.29 52.84 109.78 52.33 109.31 51.79C108.69 51.11 108.05 50.43 107.5 49.68C107.33 49.44 107.42 49.41 107.68 49.5C107.93 49.6 108.38 49.78 108.8 50.1C109.54 50.69 110.32 51.24 111 51.91C111.68 52.57 112.34 53.27 112.94 54.04C113.32 54.51 113.69 54.97 114.06 55.44C114.43 55.93 114.82 56.42 115.09 57.1C115.56 58.4 115.77 59.71 115.9 61.02C115.98 61.83 116 62.64 116 63.44C116 64.66 115.85 65.87 115.78 67.06C115.71 67.99 115.72 68.9 115.66 69.81C115.65 70.01 115.65 70.21 115.63 70.41C115.55 71.16 115.4 71.38 114.98 71.49C114.88 71.51 114.79 71.55 114.69 71.56C114.37 71.59 114.15 71.26 114.11 70.7C113.98 69.05 114.05 67.36 114.06 65.7C114.04 64.46 114.11 63.24 114.06 62.03H114.11V62.04Z" fill="#231F20"/>
<path d="M93.3998 77.23C93.3998 77.23 84.5498 74.83 82.7698 80.42C81.0798 85.75 83.2298 94.2 83.2298 94.2L75.0298 88.41V71.29L94.3698 72.57L93.3998 77.23Z" fill="#231F20"/>
<path d="M92.5501 98.3201C91.8301 98.2701 91.1001 98.2301 90.3801 98.2101C90.1201 98.2101 89.85 98.2401 89.5901 98.2301C88.6501 98.1901 87.7101 98.1401 86.7701 98.1201C86.3501 98.1201 85.9401 98.1401 85.5201 98.1701C84.9801 98.1701 84.4701 98.2401 83.8401 97.9601C83.5901 97.6701 83.8001 97.7401 83.9501 97.5301C84.1001 97.3301 84.3301 97.0801 84.6101 97.0101C84.8601 96.9601 85.1201 96.8901 85.3801 96.8601C85.6401 96.8501 85.9101 96.8301 86.1701 96.8201C86.7001 96.8001 87.2401 96.8101 87.7901 96.8501C88.4401 96.9001 89.1101 96.7801 89.7801 96.7501C90.5101 96.7201 91.2501 96.7001 91.9801 96.6901C92.4301 96.6901 92.89 96.6901 93.34 96.6801C94.03 96.6701 94.7201 96.7001 95.4101 96.6601C95.9501 96.6301 96.4801 96.5101 97.0401 96.4601C97.1601 96.4501 97.2901 96.4301 97.4201 96.4301C97.9001 96.4601 98.0601 96.6901 98.0201 97.1801C98.0201 97.3001 98.0101 97.4101 97.9801 97.5201C97.8901 97.9001 97.6801 98.1601 97.4001 98.2601C96.5801 98.4801 95.6501 98.4501 94.6901 98.4301C93.9701 98.4001 93.2501 98.3801 92.5301 98.3501V98.3101L92.5501 98.3201Z" fill="#231F20"/>
<path d="M6.41992 88.08C6.41992 88.08 16.1799 85.88 18.4899 84.74C20.7999 83.6 26.3299 82.42 26.3299 82.42L28.8499 92.29L34.1299 105.02C34.1299 105.02 35.0399 109.02 34.1299 109.95C33.2199 110.88 20.4799 117.75 20.4799 117.75C20.4799 117.75 15.1599 114.81 16.9899 109.58C18.8199 104.35 14.5899 101.92 11.6299 101.68C8.66992 101.44 6.42992 94.76 7.10992 91.65C7.66992 89.12 6.42992 88.08 6.42992 88.08H6.41992Z" fill="#231F20"/>
<path d="M29.37 93.04C29 92.02 28.65 90.99 28.35 89.95C28.23 89.57 28.1 89.2 28 88.82C27.69 87.46 27.4 86.1 27.32 84.7C27.26 84.09 27.21 83.48 27.15 82.87C27.11 82.09 26.99 81.31 27.23 80.53C27.29 80.29 27.33 80.32 27.46 80.53C27.55 80.68 27.65 80.82 27.72 80.94C27.84 81.11 27.93 81.31 27.95 81.52C28.17 83.06 28.54 84.54 28.74 86.07C28.84 87 29.17 87.91 29.45 88.82C29.75 89.82 30.09 90.82 30.48 91.8C30.71 92.4 30.96 93 31.24 93.59C31.66 94.48 32.07 95.38 32.57 96.22C32.96 96.87 33.43 97.46 33.89 98.05L34.2 98.44C34.55 98.95 34.55 99.18 34.31 99.51C34.25 99.58 34.2 99.67 34.14 99.73C33.93 99.94 33.58 99.87 33.23 99.55C32.22 98.56 31.42 97.34 30.71 96.05C30.17 95.1 29.76 94.08 29.34 93.06L29.37 93.04Z" fill="#231F20"/>
<path d="M56.0298 75.69C55.5498 75.19 55.0898 74.6 54.6598 73.98C54.5098 73.75 54.3198 73.54 54.1998 73.29C53.7598 72.41 53.4698 71.5 53.3698 70.59C53.3098 70.19 53.2498 69.8 53.1798 69.41C53.0998 68.91 53.0498 68.41 53.0498 67.91C53.0498 67.75 53.0998 67.77 53.1998 67.88C53.2898 68 53.4598 68.21 53.5698 68.48C53.9298 69.44 54.3698 70.34 54.6498 71.24C54.8098 71.79 55.1598 72.27 55.4998 72.71C55.8798 73.2 56.3298 73.66 56.8198 74.12L57.7298 75C58.1998 75.44 58.6498 75.9 59.1498 76.29C59.5398 76.6 59.9898 76.82 60.4098 77.08C60.4998 77.14 60.5998 77.19 60.6798 77.26C60.9898 77.51 61.0098 77.69 60.7798 78.08C60.7298 78.17 60.6798 78.26 60.6198 78.35C60.4198 78.64 60.1098 78.75 59.8098 78.64C58.8998 78.35 58.2198 77.74 57.5098 77.13C56.9898 76.67 56.5098 76.18 55.9998 75.71L56.0298 75.68V75.69Z" fill="#231F20"/>
<path d="M79.4698 70.04C82.3298 69.99 85.1598 70.02 88.0198 70.19C89.0598 70.25 90.1098 70.25 91.1698 70.38C91.6398 70.44 92.1098 70.5 92.5898 70.59C92.8298 70.63 93.0798 70.68 93.3298 70.74C93.5298 70.79 94.0098 70.91 94.3298 71.04C94.6798 71.19 94.9998 71.37 95.2398 71.65C95.3698 71.78 95.4098 71.97 95.4998 72.13C95.5798 72.29 95.6598 72.46 95.6998 72.64C95.7498 72.81 95.7898 72.99 95.8298 73.17L95.8798 73.43L95.8998 73.62L95.9698 74.36C96.0598 76.26 95.9998 78.07 95.9398 79.89C95.8898 81.5 95.8798 83.12 95.8798 84.71C95.8998 85.73 95.8798 86.76 95.8198 87.78C95.7998 88.29 95.7498 88.8 95.6698 89.31L95.5498 90.07C95.4898 90.32 95.3998 90.58 95.2598 90.83C95.0498 91.15 94.9498 91.28 94.8998 91.28C94.8498 91.28 94.8298 91.12 94.5998 90.84C94.0998 90.2999 93.4398 89.29 93.3298 88.1C93.1398 86 93.2198 83.92 93.2898 81.85C93.3598 79.8 93.4398 77.74 93.5198 75.66C93.5298 75.06 93.5098 74.45 93.4398 73.89C93.4098 73.61 93.3898 73.39 93.1498 73.34C93.0998 73.32 93.0598 73.31 92.9898 73.3L92.5798 73.23C92.2898 73.18 91.9898 73.15 91.6898 73.12C91.0798 73.06 90.4498 73.02 89.8298 72.97C87.0698 72.8 84.2498 72.75 81.4398 72.75L78.8498 72.79L77.5598 72.84L77.1198 72.86L76.7798 72.89L76.5898 72.91C76.5298 72.91 76.4498 72.94 76.4698 73.01L76.4298 73.38L76.1798 76.28C76.0898 77.35 76.0398 78.43 75.9998 79.5C75.9398 81.53 76.0398 83.53 76.1198 85.52C76.1398 85.96 76.1698 86.39 76.1898 86.83C76.2198 87.65 76.1798 88.18 76.0098 88.56C75.8698 88.94 75.6798 89.16 75.3898 89.35C75.2598 89.44 75.1298 89.55 74.9998 89.61C74.5898 89.8 74.1198 89.13 73.8298 87.89C73.3298 84.23 73.4498 80.42 73.5598 76.59L73.5998 74.74C73.6098 74.43 73.6098 74.12 73.6398 73.82L73.7398 72.21C73.7698 72.02 73.7698 71.81 73.8198 71.64L74.0298 71.2C74.0598 71.12 74.0998 71.05 74.1498 71L74.2198 70.92V70.91C74.1998 70.89 74.3798 71.06 74.3098 70.99V70.98V70.95L74.3498 70.89C74.4098 70.72 74.5298 70.62 74.6798 70.55C75.2598 70.22 76.1198 70.18 76.8798 70.1L78.2198 70.01L79.4498 69.95V70.02L79.4698 70.04Z" fill="#231F20"/>
<path d="M104.95 27.05C104.93 26.64 104.89 26.24 104.84 25.84L104.76 25.22C104.76 25.12 104.76 25.13 104.76 25.07C104.76 25.01 104.82 24.88 104.73 24.86C104.67 24.83 104.6 24.81 104.52 24.79H104.47L104.29 24.78H103.87C103.59 24.79 103.31 24.8 103.03 24.79C102.1 24.75 100.75 24.73 100.65 24.67L100.49 24.65C100.43 24.65 100.37 24.64 100.37 24.7C100.34 24.78 100.32 24.87 100.3 24.97L100.24 25.29L100.14 26.04C100.02 26.93 99.99 27.84 99.96 28.73L99.93 30.45C99.88 31.02 99.8 31.59 99.63 32.16C99.4 32.52 99.25 32.48 98.81 32.18C98.38 31.88 97.87 31.31 97.73 30.63C97.61 29.44 97.54 28.25 97.56 27.06C97.57 26.47 97.59 25.87 97.64 25.28V25.16C97.63 25.09 97.62 25.02 97.64 24.95L97.68 24.54C97.7 24.26 97.73 24 97.81 23.76C97.91 23.23 98.19 22.92 98.35 22.56C98.8 22.39 99.3 22.17 99.94 22.18L101.42 22.13C102.16 22.1 102.9 22.06 103.64 22.07L104.47 22.1C104.9 22.11 105.35 22.13 105.77 22.19C106.18 22.27 106.57 22.35 106.82 22.63C106.98 22.73 107.01 22.93 107.1 23.07L107.25 23.67L107.43 24.81L107.54 25.61C107.67 26.62 107.74 27.65 107.77 28.66C107.83 30.19 107.72 31.72 107.69 33.21C107.69 33.79 107.69 34.37 107.72 34.95C107.76 35.53 107.76 36.11 107.72 36.68C107.7 36.93 107.72 37.18 107.67 37.44C107.49 38.37 107.22 38.64 106.6 38.76C106.47 38.79 106.34 38.83 106.24 38.84C105.92 38.89 105.43 38.4401 105.28 37.74C104.77 35.67 104.96 33.62 104.99 31.56C105.01 30.04 105.04 28.52 104.87 27.05H104.94H104.95Z" fill="#231F20"/>
<path d="M59.7101 101.85C63.0101 103.34 66.3601 104.71 69.7701 105.33C70.3901 105.42 71.0201 105.49 71.6501 105.55C72.2901 105.55 72.9201 105.57 73.5501 105.6C78.0501 105.68 82.6501 104.66 86.9901 102.98C88.9101 102.21 90.7801 101.29 92.5401 100.22C93.6801 99.54 94.7901 98.84 95.9001 98.11C96.4601 97.75 96.9801 97.36 97.5701 97.04L98.4501 96.56C98.7601 96.42 99.0701 96.29 99.4201 96.19C99.8701 96.09 100.09 96.06 100.12 96.11C100.15 96.17 100.03 96.34 99.9101 96.76C99.7801 97.17 99.6401 97.82 99.3001 98.4C99.1301 98.7 98.9701 99.05 98.7201 99.33C98.4701 99.6 98.1901 99.87 97.8701 100.12C96.7301 100.98 95.5701 101.78 94.3601 102.53L92.4901 103.55L90.5701 104.49C87.9801 105.68 85.2701 106.62 82.4501 107.23C79.1001 107.95 75.5501 108.65 71.9701 108.46C70.9901 108.44 70.0201 108.24 69.0401 108.14C68.0801 107.95 67.1201 107.75 66.2001 107.48C64.3401 106.96 62.5401 106.31 60.8001 105.58C58.6401 104.69 56.5501 103.71 54.4701 102.74C52.8901 102.01 51.3301 101.25 49.7601 100.57C48.1901 99.9 46.5901 99.26 45.0401 98.99C42.6201 98.64 40.0701 99.32 37.6801 100.07C37.1501 100.24 36.6501 100.44 36.1201 100.63C35.1501 100.97 34.5201 101.21 34.0301 101.27C33.5301 101.32 33.1801 101.22 32.8001 101.02C32.6301 100.92 32.4201 100.85 32.2901 100.74C32.0601 100.55 32.0801 100.26 32.3301 99.85C32.5901 99.44 33.0901 98.95 33.8401 98.53C36.0601 97.29 38.5101 96.39 41.1901 96.03C42.5301 95.86 43.9301 95.76 45.4501 96C46.9701 96.24 48.2001 96.71 49.4501 97.17C53.0801 98.6 56.3501 100.33 59.7201 101.79L59.6901 101.86L59.7101 101.85Z" fill="#231F20"/>
<path d="M113.73 84.3199C114 78.8099 114.11 73.2499 114.14 67.7099C114.14 65.6899 114.07 63.6599 114.06 61.6399L114.04 58.9599L114.01 57.6299L113.99 57.0499C113.99 56.9899 114 56.9099 113.97 56.8499L113.87 56.7299L113.58 56.4399L112.87 55.7499L111.42 54.3699L108.5 51.6299L102.61 46.1799C100.27 44.0399 97.8601 41.9499 95.4701 39.9099C93.9201 38.6099 92.3701 37.3099 90.8201 36.0099C90.0501 35.3499 89.3101 34.6699 88.5601 33.9899C87.8201 33.2999 87.0501 32.6499 86.4801 31.7599C86.1701 31.1499 86.0301 30.8799 86.0701 30.8699C86.1101 30.8499 86.3601 31.0299 86.9501 31.1599C88.1701 31.3599 90.0701 32.1599 91.9301 33.5899C98.3201 38.8699 104.51 44.3299 110.51 50.1299C111.41 50.9799 112.32 51.8499 113.24 52.7099L114.63 54.0099L115.34 54.6699L115.76 55.0699L116.28 55.6599C116.38 55.8899 116.42 56.1599 116.47 56.4199C116.53 56.6799 116.52 56.9799 116.54 57.0999L116.59 58.0799L116.66 60.0299C116.7 61.3199 116.73 62.6099 116.75 63.8999C116.81 69.5199 116.76 75.1299 116.61 80.7499C116.5 84.2099 116.39 87.6599 116.03 91.1599C115.95 91.8299 115.88 92.4899 115.73 93.1899C115.68 93.5299 115.5 94.0699 115.31 94.4699L115.14 94.7699C115.04 94.8399 114.97 94.9299 114.87 94.9999C114.68 95.1299 114.48 95.2599 114.26 95.3399C113.78 95.5399 113.45 95.6199 113.12 95.6999C112.78 95.7899 112.45 95.8499 112.12 95.9199C111.46 96.0399 110.8 96.1599 110.14 96.2499C107.51 96.6199 104.89 96.7999 102.28 96.9599C98.2301 97.1899 94.2501 97.4199 90.2001 97.3199C89.3101 97.2899 88.4301 97.2899 87.5301 97.2099C84.2001 96.7999 83.1701 96.2999 82.6201 95.4399C82.4901 95.2499 82.3201 95.0499 82.2601 94.8799C82.0701 94.3099 83.4501 94.1299 85.7901 94.1899C92.7401 94.3499 100.18 94.3199 107.51 93.5899C108.86 93.4499 110.22 93.3199 111.51 93.1099C111.82 93.0499 112.15 92.9999 112.43 92.9299C112.58 92.8999 112.72 92.8699 112.84 92.8299C112.94 92.7999 112.89 92.8299 112.9 92.8199H112.91L112.98 92.4699C113.39 89.9699 113.52 87.0899 113.64 84.3499H113.71L113.73 84.3199Z" fill="#231F20"/>
<path d="M51.8298 69.41C51.8198 68.6 51.8698 67.78 51.8998 66.97C51.8998 66.67 51.8498 66.38 51.8698 66.08C51.9298 65.03 52.0598 63.98 52.1998 62.94C52.2498 62.48 52.2398 62.02 52.2298 61.56C52.2298 60.98 52.0298 60.39 52.6198 59.8C52.8598 59.62 52.8198 59.64 53.1098 59.8C53.3298 59.91 53.5498 60.02 53.7198 60.11C53.9298 60.24 54.0698 60.39 54.1398 60.55C54.4198 61.72 54.4698 62.87 54.3298 64.06C54.1998 64.77 54.3598 65.5 54.3898 66.22C54.4098 67.01 54.4398 67.81 54.4398 68.61C54.4398 69.1 54.4398 69.6 54.4698 70.09C54.5098 70.84 54.5098 71.59 54.6398 72.33C54.7498 72.9 54.9498 73.45 55.0798 74.01C55.1098 74.13 55.1598 74.25 55.1698 74.38C55.1698 74.86 54.9898 75.03 54.4498 75.19C54.3298 75.23 54.2098 75.27 54.0998 75.3C53.7198 75.39 53.3098 75.24 53.0598 74.93C52.3498 73.99 52.0498 72.94 51.9498 71.86C51.8498 71.06 51.8198 70.25 51.7598 69.43H51.8298V69.41Z" fill="#231F20"/>
<path d="M51.5901 47.55C50.5501 48.37 49.5201 49.19 48.5101 50.02C48.0001 50.44 47.5101 50.86 47.0201 51.28L46.1801 52.04C46.1201 52.08 46.1201 52.14 46.1401 52.19L46.1601 52.28L46.3101 52.64C46.5301 53.17 46.8101 53.7 47.1201 54.23C47.4301 54.75 47.7701 55.27 48.1401 55.76C48.3101 55.98 48.5501 56.28 48.6701 56.41C48.7201 56.47 48.7701 56.53 48.8301 56.59C48.9101 56.73 49.0501 56.63 49.1401 56.57L49.3301 56.43L49.8801 56.01L52.1001 54.2C57.3601 49.86 62.6201 45.38 68.0101 41.1C70.4001 39.19 72.7801 37.26 75.1801 35.39C76.7201 34.19 78.2801 33 79.9201 31.92C80.7401 31.37 81.5701 30.85 82.4201 30.36C83.2501 29.84 84.2301 29.54 85.1501 29.19C86.3401 28.81 86.2101 28.94 85.5101 29.77C85.1601 30.19 84.7101 30.84 84.1501 31.58C83.5601 32.28 82.8001 32.94 81.9201 33.61C78.8401 36.01 75.6701 38.32 72.6001 40.78C69.5101 43.25 66.4201 45.72 63.3101 48.21C59.5601 51.17 55.9901 54.6 52.1401 57.74L51.4001 58.32C51.1401 58.51 50.9501 58.67 50.4701 59C50.0601 59.28 49.6301 59.54 49.1901 59.65C48.9701 59.7 48.7501 59.75 48.5201 59.67C48.3001 59.66 48.1001 59.54 47.9101 59.43C47.5801 59.19 47.2601 58.93 46.9701 58.61C46.8301 58.47 46.6501 58.28 46.5601 58.18L46.2901 57.86C45.9301 57.43 45.6001 56.98 45.2801 56.53C44.6501 55.62 44.0701 54.68 43.6101 53.62L43.5201 53.42C43.4801 53.34 43.4501 53.23 43.4101 53.13C43.3501 52.93 43.2601 52.74 43.2201 52.55L43.1201 51.96C43.1801 51.77 43.1601 51.57 43.2501 51.4C43.3801 51.04 43.7201 50.74 44.0301 50.47L44.7601 49.77C45.5501 49.04 46.3501 48.36 47.1601 47.69C49.7301 45.56 52.3401 43.52 54.9601 41.49C58.9301 38.41 62.9801 35.41 66.9401 32.39C70.0201 30.04 72.9601 27.63 76.0201 25.31C76.7001 24.8 77.3401 24.28 78.0401 23.78C79.3301 22.86 80.2301 22.31 80.9301 22.03C81.6401 21.77 82.1401 21.76 82.6201 21.9C82.8401 21.96 83.1001 22 83.2601 22.1C83.5301 22.26 83.4401 22.6 83.0801 23.08C82.7201 23.56 82.1001 24.21 81.1901 24.9C75.8701 29.09 70.1401 33.44 64.3901 37.79C60.1301 41.03 55.8201 44.27 51.6401 47.61L51.5901 47.56V47.55Z" fill="#231F20"/>
<path d="M110.98 43.63C108.79 41.6 106.59 39.59 104.36 37.61C103.55 36.89 102.67 36.24 101.87 35.5C99.0201 32.93 96.1501 30.38 93.2001 27.93C91.8901 26.85 90.5301 25.81 89.1701 24.82C87.4201 23.53 85.5501 22.44 84.0801 20.76C83.6201 20.23 83.7501 20.19 84.4201 20.23C85.0801 20.26 86.3601 20.29 87.4701 20.92C91.2401 23.36 94.8001 26.06 98.1401 29.08C100.14 30.88 102.4 32.53 104.51 34.29C106.81 36.24 109.08 38.24 111.34 40.24L115.49 43.96C117.57 45.86 119.66 47.77 121.72 49.66L122.94 50.76L123.27 51.06L123.69 51.48C123.96 51.77 124.25 52.06 124.36 52.41C124.4 52.49 124.37 52.59 124.46 52.67L124.44 52.95C124.44 53.14 124.38 53.32 124.33 53.51C124.23 53.89 124.05 54.26 123.86 54.63C123.55 55.23 123.26 55.68 122.92 56.16C122.63 56.57 122.36 56.98 122.04 57.35C121.44 58.04 121.02 58.44 120.64 58.62C120.23 58.79 119.89 58.78 119.5 58.69C119.32 58.65 119.13 58.64 118.98 58.59C118.73 58.5 118.63 58.25 118.67 57.83C118.7 57.41 118.86 56.85 119.24 56.33C119.75 55.56 120.26 54.79 120.78 54.02C120.9 53.83 121.01 53.65 121.11 53.47C121.16 53.38 121.21 53.29 121.25 53.21C121.28 53.15 121.25 53.17 121.26 53.15C121.25 53.1 121.25 53.06 121.2 53.05C121.18 53.05 121.16 53.04 121.15 53.04C121.15 53.04 121.15 53.04 121.13 53.04L120.88 52.8L119.82 51.8C119.09 51.13 118.36 50.45 117.62 49.77C115.42 47.76 113.21 45.71 110.97 43.71L111.01 43.65L110.98 43.63Z" fill="#231F20"/>
<path d="M46.4898 72.95C48.0498 72.76 49.6698 72.7 51.2998 72.9C52.9198 73.1 54.4898 73.5 55.9598 74.11C58.9298 75.28 61.4698 77.07 63.7998 78.91C65.5098 80.26 67.1798 81.59 68.7898 82.96C70.2098 84.16 71.6298 85.34 73.0798 86.44C74.4998 87.51 76.0598 88.46 77.6598 89.38C79.2598 90.32 80.9298 91.17 82.5598 92.28C82.9598 92.57 83.3698 92.87 83.7698 93.22C84.1798 93.59 84.5498 93.93 84.9398 94.57C85.2898 95.19 85.4598 95.95 85.1998 96.62C85.0998 96.96 84.8698 97.25 84.6898 97.56C84.4698 97.84 84.2698 98.07 84.0298 98.25C83.1798 98.94 82.1698 99.23 81.2398 99.33C80.2998 99.43 79.3998 99.37 78.5298 99.25C76.7898 99.01 75.1398 98.52 73.5498 97.97C71.5098 97.25 69.5198 96.4 67.5998 95.45C66.6398 94.96 65.6798 94.48 64.7798 93.9C64.3298 93.61 63.8798 93.31 63.4398 93C63.0098 92.68 62.5998 92.32 62.2098 91.93C61.2998 90.88 61.3798 91.11 62.5398 91.35C63.7198 91.57 65.8698 91.88 67.9898 92.97C69.8998 93.89 71.8398 94.72 73.7998 95.43C75.7498 96.12 77.7598 96.7 79.6398 96.83C80.5598 96.89 81.4398 96.8 81.9998 96.53C82.1298 96.46 82.2598 96.39 82.3598 96.31C82.4698 96.24 82.5598 96.1 82.5698 96.12C82.6098 96.09 82.6498 96.03 82.6398 95.96C82.6398 95.94 82.6398 95.93 82.6298 95.91C82.6498 95.92 82.6298 95.89 82.5598 95.82C82.4698 95.71 82.3198 95.58 82.1598 95.45C81.8398 95.18 81.4298 94.91 81.0098 94.65C80.1698 94.11 79.2598 93.54 78.3298 92.99C76.1098 91.65 73.6998 90.37 71.4098 88.73C69.1898 87.12 67.0798 85.39 65.0398 83.68C62.7998 81.81 60.5798 79.96 58.1798 78.5C55.7998 77.03 53.1798 76.02 50.4798 75.79C47.1298 75.55 43.6498 76.43 40.3098 77.58C35.2298 79.36 30.2498 81.73 25.2398 83.87C21.3398 85.55 17.4798 87.21 13.3298 88.31C12.4198 88.54 11.5198 88.8 10.5798 88.95C8.82977 89.22 7.63977 89.23 6.80977 89.14C5.97977 89.08 5.49977 88.79 5.11977 88.46C4.94977 88.31 4.71977 88.17 4.62977 88.04C4.30977 87.61 5.68977 87.06 8.05977 86.59C11.5798 85.8 15.1098 84.74 18.6398 83.35C22.1698 81.96 25.7198 80.41 29.3298 78.8C32.0098 77.61 34.7198 76.41 37.5498 75.35C40.3698 74.29 43.3098 73.34 46.4698 72.89L46.4898 72.96V72.95Z" fill="#231F20"/>
<path d="M32.6499 97.83C33.6699 100.15 34.7999 102.41 35.7099 104.99C35.8699 105.46 36.0399 105.95 36.1799 106.48C36.3099 107.02 36.4299 107.59 36.3299 108.34C36.1599 109.66 35.3899 110.58 34.7099 111.23C33.9999 111.89 33.2499 112.39 32.5099 112.84C31.0099 113.72 29.4799 114.39 27.9699 115.05C26.6299 115.64 25.2999 116.24 24.0099 116.86C22.3499 117.67 20.8099 118.56 19.0399 119.13C18.4999 119.34 18.4799 119.23 18.6899 118.69C18.7999 118.42 18.9599 118.03 19.1799 117.57C19.4199 117.13 19.7899 116.73 20.2199 116.37C20.4199 116.22 20.6099 116.06 20.8199 115.92L21.4499 115.55L22.7199 114.84C23.5699 114.38 24.4099 113.95 25.2599 113.54C26.9799 112.76 28.6899 112.04 30.3199 111.25C31.2799 110.78 32.2099 110.17 32.8599 109.46C33.1799 109.11 33.4099 108.74 33.5099 108.43C33.5599 108.27 33.5799 108.13 33.5799 107.99C33.5799 107.82 33.5499 107.62 33.5099 107.39C33.3399 106.37 32.8699 105.18 32.3999 104.04C31.9099 102.89 31.3799 101.72 30.8499 100.56C30.1899 99.12 29.5399 97.67 28.9099 96.21C27.9499 93.99 27.1099 91.7 26.4099 89.37C25.8999 87.56 25.2799 85.75 25.1799 83.8C25.1599 83.37 25.1199 82.95 25.1499 82.51C25.1699 82.31 25.1799 82.12 25.1899 81.96C25.2299 81.79 25.2899 81.64 25.3399 81.51C25.4399 81.24 25.5299 81.03 25.6399 80.86C25.8599 80.52 26.0799 80.35 26.3599 80.25C26.4899 80.2 26.6099 80.13 26.7299 80.12C27.1199 80.07 27.2499 80.73 27.5099 81.77C27.7599 83.29 28.0199 84.77 28.3799 86.3C28.7399 87.82 29.2099 89.37 29.7799 90.92C30.6199 93.22 31.6199 95.52 32.7099 97.81L32.6499 97.84V97.83Z" fill="#231F20"/>
<path d="M100.51 17.9599C100.62 18.0999 100.56 18.2799 100.46 18.4699C100.43 18.5299 100.28 18.5999 100.23 18.5699C100.12 18.4999 100.02 18.4399 99.9399 18.3899C99.8999 18.3499 99.1899 17.6499 98.9199 17.4399C98.6999 17.2099 98.5199 16.9499 98.3499 16.6899L97.3099 15.1199C97.2299 14.9999 97.1799 14.8799 97.1399 14.7399C97.0099 14.2699 96.7599 13.8699 96.4899 13.4699C96.4499 13.3999 96.4199 13.3299 96.3099 13.2899C96.1399 13.2399 95.4999 12.1099 95.4799 11.9399C95.4199 11.5099 95.2999 11.0999 95.2199 10.6799C95.2099 10.6199 95.1499 10.5799 95.2199 10.4899C95.3699 10.2799 95.2699 10.1799 95.2399 10.0599C95.1899 9.88994 95.1499 9.70994 95.1499 9.50994C95.1499 9.40994 95.2199 9.27994 95.2799 9.14994C95.3299 9.03994 95.6299 8.92994 95.6799 8.93994C95.8099 8.96994 95.9199 8.83994 96.0299 8.76994C96.0699 8.74994 96.1199 8.71994 96.1599 8.69994C96.2199 8.67994 97.2899 9.28994 97.3099 9.39994C97.3099 9.40994 97.5199 9.72994 97.7299 10.0799C97.9399 10.4199 98.1599 10.7699 98.2099 10.8399C98.2699 10.9099 98.2599 11.0199 98.2699 11.1099C98.2699 11.1499 98.9299 12.1599 98.9399 12.2099C99.0299 12.4399 99.1799 12.6399 99.1099 12.9499C99.0999 13.0099 99.1199 13.0499 99.1499 13.0999C99.3299 13.4899 99.4299 13.9099 99.5499 14.3299C99.6099 14.5399 99.7099 14.7299 99.7899 14.9399C99.7999 14.9799 99.7899 15.0199 99.7999 15.0599C99.7999 15.1099 99.7999 15.1699 99.8299 15.2099C100.04 15.6799 100.16 16.1899 100.41 16.6499C100.46 16.7599 100.47 17.3799 100.54 17.4999C100.56 17.5699 100.5 17.8899 100.54 17.9399L100.51 17.9599Z" fill="#231F20"/>
<path d="M106.07 17.49C106.1 17.67 105.85 17.66 105.44 17.54C105.31 17.5 104.96 17.3 104.93 17.23C104.87 17.11 104.81 16.99 104.78 16.88C104.76 16.82 104.95 16.05 104.99 15.77C105.03 15.51 105.13 15.28 105.24 15.05L105.9 13.68C105.95 13.58 106.02 13.49 106.11 13.41C106.41 13.14 106.6 12.8 106.74 12.44C106.77 12.38 106.81 12.33 106.77 12.24C106.71 12.09 107.22 11.17 107.34 11.08C107.63 10.86 107.88 10.61 108.14 10.37C108.18 10.34 108.18 10.28 108.28 10.28C108.52 10.3 108.54 10.19 108.61 10.11C108.71 10 108.81 9.89003 108.95 9.80003C109.02 9.76003 109.16 9.75003 109.27 9.74003C109.38 9.73003 109.62 9.91003 109.64 9.94003C109.69 10.04 109.84 10.07 109.95 10.13C109.99 10.15 110.04 10.17 110.07 10.19C110.13 10.23 110.22 11.24 110.18 11.32C110.18 11.32 110.06 11.62 109.94 11.92C109.82 12.22 109.7 12.54 109.68 12.61C109.66 12.68 109.58 12.72 109.52 12.77C109.49 12.79 109.16 13.72 109.14 13.75C109.02 13.91 108.98 14.12 108.71 14.2C108.66 14.22 108.65 14.26 108.63 14.29C108.47 14.6 108.23 14.86 108.01 15.13C107.9 15.27 107.83 15.43 107.73 15.58C107.71 15.61 107.67 15.62 107.65 15.64C107.62 15.67 107.57 15.69 107.56 15.72C107.36 16.09 107.06 16.4 106.91 16.79C106.87 16.88 106.46 17.18 106.43 17.28C106.41 17.34 106.06 17.37 106.07 17.45V17.49Z" fill="#231F20"/>
<path d="M110.57 20.99C110.46 21.1 110.3 20.98 110.11 20.73C110.05 20.65 109.97 20.38 110 20.33C110.05 20.23 110.11 20.13 110.18 20.05C110.22 20 110.95 19.59 111.21 19.44C111.45 19.29 111.71 19.2 111.98 19.11C112.51 18.94 113.06 18.81 113.61 18.71C113.73 18.69 113.86 18.68 113.98 18.71C114.41 18.77 114.83 18.71 115.25 18.65C115.32 18.64 115.39 18.65 115.46 18.57C115.56 18.45 116.73 18.37 116.88 18.42C117.25 18.53 117.62 18.61 117.99 18.72C118.04 18.73 118.1 18.72 118.14 18.79C118.24 18.98 118.36 18.95 118.47 18.97C118.63 18.99 118.78 19.04 118.93 19.11C119 19.15 119.07 19.26 119.14 19.35C119.2 19.43 119.14 19.71 119.11 19.74C119.03 19.82 119.08 19.96 119.07 20.08C119.07 20.12 119.07 20.17 119.07 20.2C119.05 20.27 118.17 20.67 118.09 20.67C118.09 20.67 117.77 20.69 117.44 20.71C117.11 20.74 116.78 20.77 116.71 20.79C116.64 20.81 116.56 20.76 116.49 20.74C116.45 20.72 115.49 20.89 115.45 20.89C115.25 20.88 115.05 20.95 114.84 20.82C114.8 20.79 114.76 20.8 114.72 20.81C114.38 20.86 114.02 20.84 113.67 20.85C113.49 20.85 113.32 20.9 113.14 20.92C113.11 20.92 113.07 20.91 113.04 20.9C113 20.9 112.95 20.88 112.91 20.9C112.49 20.96 112.05 20.95 111.65 21.08C111.56 21.1 111.06 21.05 110.95 21.09C110.89 21.11 110.63 20.96 110.58 21.01L110.57 20.99Z" fill="#231F20"/>
</svg>
