<svg width="128" height="128" viewBox="0 0 128 128" fill="none" xmlns="http://www.w3.org/2000/svg">
<path d="M23.4898 69.7C25.7698 70.01 28.0698 70.26 30.3798 70.48L32.9098 70.65C35.8798 70.94 38.8598 71.16 41.8398 71.49C43.1598 71.63 44.4898 71.72 45.8098 71.83C47.5098 71.89 49.1898 72.3 50.8398 72.73C51.3498 72.88 51.2698 72.91 50.8098 72.97C50.3498 73.02 49.5098 73.21 48.5298 73.3L47.2298 73.41C46.7998 73.45 46.3698 73.39 45.9398 73.4L43.3598 73.32C41.6398 73.27 39.9098 73.18 38.1798 72.95C36.1098 72.7 33.9398 72.69 31.8098 72.54C29.4698 72.37 27.1298 72.17 24.7898 71.92L20.4698 71.41C18.2898 71.14 16.1098 70.77 13.9398 70.35C12.2598 70.01 10.5698 69.76 8.8898 69.07C8.5198 68.91 8.1498 68.75 7.7798 68.55C7.0798 68.15 6.7898 67.61 6.6398 67.24C6.5298 66.83 6.5998 66.51 6.6998 66.26C6.7498 66.14 6.7798 66.02 6.8398 65.95C6.9298 65.83 7.1198 65.86 7.3998 65.92C7.6498 66 8.0898 66.03 8.4398 66.2C8.7898 66.26 9.0098 66.43 9.3198 66.54C9.6298 66.65 9.9098 66.78 10.2498 66.88C10.8798 67.1 11.5798 67.27 12.2698 67.47C13.6598 67.86 15.1298 68.22 16.6298 68.52C18.8598 68.96 21.1498 69.4 23.4598 69.64V69.69L23.4898 69.7Z" fill="#231F20"/>
<path d="M94.9102 65.04C93.2002 65.51 91.4902 66.03 89.7902 66.56C89.1702 66.76 88.5702 67.02 87.9502 67.21C85.7502 67.89 83.5602 68.59 81.3402 69.22C80.3602 69.51 79.3902 69.85 78.4302 70.18L76.5802 70.82C76.2702 70.92 75.9502 71.01 75.6402 71.09L75.1602 71.21C75.0002 71.24 74.8102 71.21 74.6402 71.21C74.2002 71.17 74.2402 71.11 74.4802 70.74C74.6002 70.57 74.7402 70.22 74.9902 70.03C75.2302 69.81 75.5202 69.6 75.8602 69.46C78.3002 68.44 80.7302 67.4 83.3002 66.64C84.8502 66.22 86.3702 65.53 87.9102 64.98C89.6102 64.37 91.3202 63.8 93.0402 63.24L96.2302 62.24C97.8402 61.73 99.4902 61.31 101.09 60.82C102.34 60.45 103.54 59.96 104.79 59.56C105.06 59.47 105.33 59.36 105.61 59.29C106.66 59.05 107.02 59.11 107.37 59.81C107.45 59.95 107.54 60.08 107.59 60.21C107.76 60.61 107.45 61.31 106.73 61.54C104.62 62.39 102.35 62.97 100.05 63.61C98.3502 64.09 96.6302 64.55 94.9202 65.08L94.9002 65.03L94.9102 65.04Z" fill="#231F20"/>
<path d="M107.85 91.4C107.16 89.76 121.15 91.29 121.23 95.8C121.29 99.19 95.1498 106.84 83.0498 110.17C80.3298 110.92 106.99 98.85 107.36 96.48C107.73 94.11 107.85 91.4 107.85 91.4Z" fill="#231F20"/>
<path d="M26.1699 77.91C26.0599 78.25 24.9299 83.59 25.8499 84.63C27.1499 86.1 35.5599 87.05 39.0999 84.87C40.6399 83.92 40.3399 91.37 37.7399 90.76C35.1399 90.15 22.3799 88.47 21.5999 87.04C20.8199 85.61 21.1499 79.1 22.3499 78.19C23.5499 77.28 26.1699 77.91 26.1699 77.91Z" fill="#231F20"/>
<path d="M45.1802 38.2C45.1802 38.2 26.0602 43.11 29.0002 48.09C32.1102 53.36 60.7902 57.98 60.7902 57.98C60.7902 57.98 9.69017 51.13 9.84017 49.79C9.84017 49.79 19.6002 44.03 26.9202 42.17C34.2502 40.31 45.1802 38.2 45.1802 38.2Z" fill="#231F20"/>
<path d="M8.1101 91.63C8.1801 91.9 8.1301 99.26 10.2801 103.4C11.6701 106.07 14.8101 107.58 17.6201 108.72C21.8901 110.45 8.8301 107.7 8.0001 105.32C7.1701 102.94 8.1101 91.63 8.1101 91.63Z" fill="#231F20"/>
<path d="M9.55992 104.75V104.77C9.55992 104.77 9.54992 104.77 9.72992 104.91C9.85992 105.02 10.1199 105.15 10.3099 105.27C10.7699 105.51 11.2499 105.75 11.7699 105.98C12.8099 106.42 13.8899 106.84 14.9999 107.22C17.2199 107.98 19.4999 108.65 21.7999 109.25C23.5099 109.69 25.2499 110.03 26.9699 110.43C33.0399 111.86 39.1899 113.1 45.3899 113.92C48.1399 114.3 50.9299 114.48 53.6699 114.63C55.4299 114.74 57.1999 114.78 58.9699 114.84L60.2899 114.88L61.6199 115.04C62.4999 115.14 63.3899 115.31 64.2799 115.41C65.3899 115.58 65.2499 115.65 64.3299 116.04C63.7899 116.28 63.1299 116.57 62.3999 116.89C61.9999 117.06 61.5599 117.22 61.0799 117.38C60.8399 117.47 60.5999 117.51 60.3499 117.61C60.0999 117.63 59.8399 117.66 59.5799 117.67C55.8799 117.83 52.1799 117.83 48.5099 117.39C44.8399 117.01 41.1899 116.46 37.5599 115.72C33.2299 114.83 28.6699 114.19 24.2699 113.13C21.8499 112.55 19.4399 111.92 17.0399 111.21C14.6399 110.48 12.2699 109.72 9.90992 108.65C9.43992 108.42 8.96992 108.21 8.48992 107.92C8.24992 107.79 8.00992 107.64 7.75992 107.45C7.47992 107.28 7.21992 106.97 6.95992 106.71C6.73992 106.39 6.60992 106.02 6.47992 105.65C6.39992 105.34 6.32992 105.06 6.28992 104.79C6.18992 104.24 6.11992 103.72 6.05992 103.19C5.93992 102.14 5.85992 101.11 5.77992 100.07C5.46992 95.44 5.33992 90.82 5.19992 86.24C5.07992 82.68 4.85992 79.2 4.78992 75.67C4.77992 74.89 4.73992 74.13 4.75992 73.34C4.75992 71.88 4.98992 70.92 5.15992 70.25C5.36992 69.58 5.62992 69.21 5.98992 68.93C6.14992 68.8 6.30992 68.63 6.45992 68.56C6.94992 68.34 7.27992 69.53 7.46992 71.62C7.81992 77.82 7.95992 84.4 8.25992 90.98C8.37992 93.42 8.46992 95.87 8.68992 98.3C8.79992 99.51 8.92992 100.72 9.08992 101.9C9.16992 102.49 9.25992 103.07 9.35992 103.62C9.44992 104.11 9.63992 104.86 9.59992 104.69L9.52992 104.73L9.55992 104.75Z" fill="#231F20"/>
<path d="M66.7498 99.79C66.7598 97.85 66.7498 95.9 66.7298 93.94C66.7098 93.23 66.6198 92.52 66.5998 91.8L66.4998 88.01C66.4998 86.74 66.4698 85.47 66.4098 84.2C66.3498 83.08 66.2398 81.95 66.1698 80.83C66.1198 80.11 66.0298 79.4 66.0298 78.67C66.0498 77.94 66.1098 77.21 66.1698 76.48C66.2198 76.02 66.3098 76.08 66.5498 76.43C66.7698 76.79 67.2698 77.43 67.6098 78.22C67.7698 78.57 67.8798 78.93 67.9598 79.29L68.2298 80.36C68.3898 81.08 68.6098 81.79 68.6898 82.52C68.8798 83.98 69.0098 85.45 69.0398 86.94C69.0698 88.72 69.3198 90.56 69.4298 92.38C69.5198 94.38 69.5698 96.39 69.5198 98.41C69.5198 99.65 69.4398 100.89 69.4098 102.12C69.3698 103.06 69.2898 103.99 69.2498 104.93C69.1698 105.87 69.0998 106.8 69.0398 107.73C68.9698 108.45 68.9498 109.17 68.9298 109.89C68.8998 110.61 68.8398 111.33 68.7798 112.05C68.7598 112.37 68.7498 112.68 68.6798 113C68.5198 113.58 68.3798 113.95 68.1798 114.19C67.9298 114.42 67.7098 114.53 67.4498 114.59C67.3298 114.62 67.2198 114.67 67.1198 114.68C66.9598 114.7 66.8398 114.58 66.6998 114.33C66.5598 114.08 66.3498 113.7 66.3598 113.28C66.2798 112.01 66.3798 110.76 66.4398 109.48C66.4898 108.2 66.5498 106.9 66.5998 105.6C66.6698 103.67 66.7098 101.71 66.6998 99.76H66.7698L66.7498 99.79Z" fill="#231F20"/>
<path d="M110.55 87.98C110.48 89.41 110.39 90.85 110.27 92.3C110.21 93.03 110.15 93.75 110.06 94.5C110.02 94.87 109.97 95.25 109.9 95.66C109.87 95.83 109.82 96.18 109.7 96.48C109.65 96.63 109.61 96.79 109.53 96.93C109.5 97 109.44 97.06 109.44 97.15C109.4 97.22 109.35 97.28 109.32 97.35C109.13 97.54 108.91 97.8 108.76 97.96C108.61 98.12 108.46 98.29 108.3 98.43L107.41 99.13C106.81 99.6 106.22 99.92 105.62 100.32C104.25 101.13 102.91 101.93 101.51 102.61C96.5901 104.95 91.5901 106.9 86.6201 108.93C84.4201 109.83 82.2201 110.77 80.0701 111.73C78.6901 112.35 77.3001 112.97 75.9201 113.59C75.2201 113.89 74.5001 114.13 73.7901 114.39L72.7101 114.76C72.3501 114.87 71.9601 114.94 71.5901 115.03C70.6401 115.22 70.6601 114.96 71.2001 114.21C71.7201 113.42 72.7901 112.19 74.3101 111.31C77.0901 109.93 79.9201 108.67 82.7501 107.42C85.6001 106.2 88.4801 105.07 91.3801 103.96C94.8501 102.63 98.2901 100.86 101.58 99.09C102.07 98.84 102.55 98.56 103.02 98.29C103.49 98.02 103.97 97.75 104.4 97.45C104.85 97.16 105.3 96.87 105.67 96.55C105.86 96.39 106.09 96.24 106.24 96.08L106.45 95.85C106.5 95.8 106.55 95.76 106.59 95.71C106.68 95.65 106.68 95.55 106.71 95.46C106.73 95.38 106.78 95.1 106.8 94.89C106.86 94.45 106.9 93.98 106.94 93.51C107.02 92.57 107.08 91.61 107.12 90.65C107.23 88.09 107.33 85.52 107.38 82.94C107.45 79.04 107.51 75.12 107.38 71.25C107.27 68.24 106.96 65.3 106.69 62.34C106.63 61.69 106.58 61.05 106.54 60.39C106.52 59.78 106.5 59.28 106.51 58.85C106.53 58.42 106.6 58.08 106.66 57.79C106.78 57.21 107 56.87 107.27 56.58C107.39 56.45 107.49 56.28 107.59 56.2C107.87 55.94 108.53 56.88 109.02 58.67C109.28 60 109.58 61.34 109.73 62.71C109.89 64.08 110.03 65.46 110.14 66.85C110.36 69.64 110.49 72.47 110.57 75.3C110.68 79.51 110.69 83.74 110.59 87.99H110.51L110.55 87.98Z" fill="#231F20"/>
<path d="M19.9802 67.33C23.5402 68 27.1602 68.57 30.7802 69.05C32.1002 69.23 33.4402 69.3 34.7602 69.47C39.4302 70.09 44.1202 70.74 48.8202 71.24C50.9002 71.47 53.0102 71.57 55.0902 71.73C56.4202 71.86 57.7602 71.89 59.0902 72.09C59.7502 72.22 60.4202 72.32 61.0802 72.51C61.7402 72.7 62.3902 72.89 63.0502 73.08C63.8702 73.33 63.7602 73.25 63.0502 73.41C62.6902 73.49 62.1802 73.65 61.5502 73.89C61.2402 74 60.9002 74.16 60.5402 74.27C60.1802 74.36 59.8102 74.45 59.4202 74.5C59.0702 74.54 58.7302 74.61 58.3802 74.64H57.3502H55.3002C53.9302 74.66 52.5702 74.51 51.2002 74.42C48.4702 74.2 45.7402 73.91 43.0002 73.51C39.7302 73.03 36.2902 72.93 32.9302 72.52C29.2402 72.09 25.5502 71.57 21.8602 70.96C19.5902 70.58 17.3302 70.16 15.0702 69.67C13.3602 69.3 11.6502 68.88 9.96024 68.33C9.11024 68.06 8.27024 67.74 7.43024 67.38C6.59024 66.97 5.74024 66.58 4.96024 65.79C4.30024 65.05 4.06024 64.35 3.81024 63.65C3.57024 62.95 3.43024 62.25 3.31024 61.56C3.09024 60.17 3.01024 58.79 3.04024 57.42C3.06024 56.82 3.06024 56.22 3.12024 55.62C3.23024 54.5 3.47024 53.78 3.71024 53.3C3.94024 52.82 4.26024 52.58 4.64024 52.42C4.81024 52.35 4.98024 52.24 5.13024 52.21C5.59024 52.11 5.93024 53.08 5.92024 54.62C5.92024 56.89 5.92024 59.23 6.37024 61.34C6.49024 61.86 6.63024 62.35 6.80024 62.79C6.89024 62.99 6.97024 63.22 7.08024 63.37L7.15024 63.49L7.18024 63.55C7.18024 63.55 6.76024 63.78 6.96024 63.67H6.97024H7.00024L7.05024 63.63L7.16024 63.58C7.25024 63.54 7.22024 63.58 7.24024 63.58C7.35024 63.64 7.43024 63.73 7.61024 63.82C7.82024 63.91 7.94024 64.04 8.18024 64.14C8.60024 64.36 9.11024 64.57 9.61024 64.77C12.7702 65.9 16.4102 66.63 19.9902 67.27V67.35L19.9802 67.33Z" fill="#231F20"/>
<path d="M34.7401 52.11L45.8601 53.99C47.2101 54.23 48.5801 54.36 49.9301 54.61C52.3101 55.05 54.6801 55.53 57.0601 56.02C59.4601 56.53 61.7601 57.05 64.2201 57.8C64.2801 57.83 64.3501 57.8 64.3901 57.88C65.1901 58.03 65.7101 58.79 66.0501 59.44C66.3401 60 66.5301 60.55 66.7001 61.09C67.0301 62.18 67.2301 63.25 67.3701 64.33C67.5501 65.75 67.6401 67.18 67.5201 68.63C67.4601 69.35 67.3101 70.07 67.1001 70.78C67.0001 71.13 66.8701 71.49 66.7201 71.83C66.5601 72.17 66.2901 72.48 66.0301 72.76C65.6601 73.1 65.4401 73.18 65.3601 73.12C65.2701 73.05 65.2901 72.8 65.2001 72.38C65.1401 71.96 64.8601 71.36 64.8001 70.79C64.7001 70.2 64.6201 69.55 64.6301 68.84C64.7301 67.23 64.6301 65.55 64.3601 63.93C64.2201 63.13 64.0401 62.32 63.8001 61.63C63.7401 61.45 63.6801 61.29 63.6101 61.14C63.5601 61.01 63.4401 60.8 63.4501 60.8C63.4501 60.75 63.4201 60.78 63.4301 60.65C63.3701 60.75 63.3801 60.67 63.3601 60.68L63.2101 60.64L62.8801 60.56L62.2101 60.39C61.7701 60.27 61.2801 60.18 60.8201 60.07C59.8901 59.85 58.9401 59.65 58.0001 59.39C54.7701 58.55 51.3001 58.16 47.9201 57.6L36.7601 55.78C34.4701 55.43 32.1701 55.06 29.8701 54.74C26.3901 54.25 22.8901 53.73 19.4201 53.37C16.7201 53.09 14.0501 53.03 11.3801 52.9C10.7901 52.87 10.2101 52.88 9.62008 52.84C8.52008 52.77 7.81008 52.64 7.32008 52.4C6.83008 52.18 6.56008 51.85 6.36008 51.43C6.27008 51.24 6.14008 51.05 6.09008 50.88C5.91008 50.35 6.86008 49.75 8.52008 49.58C13.3901 49.42 18.4501 49.85 23.5101 50.46C27.2601 50.92 31.0201 51.48 34.7701 52.02V52.1L34.7401 52.11Z" fill="#231F20"/>
<path d="M101.79 61.75C99.0102 62.87 96.2202 63.92 93.4302 64.96C92.4102 65.34 91.4202 65.8 90.4002 66.15C86.7902 67.43 83.1402 68.61 79.4802 69.74C77.8602 70.25 76.2402 70.78 74.6402 71.34C73.6102 71.67 72.5902 72.06 71.5402 72.34C71.0102 72.47 70.4702 72.56 69.9302 72.66C69.3902 72.77 68.8202 72.74 68.2802 72.79C67.5802 72.8 67.6302 72.61 68.0702 72.09C68.2902 71.83 68.6102 71.47 68.9902 71.05C69.3802 70.67 69.8702 70.33 70.4402 70.06C70.6902 69.94 70.9302 69.81 71.1902 69.71L71.9602 69.44L73.5102 68.92L76.6102 67.86C78.6802 67.14 80.7802 66.51 82.9102 65.91C85.4602 65.19 87.9802 64.06 90.5002 63.1C93.2702 62.03 96.0502 60.95 98.8002 59.82C100.49 59.12 102.18 58.42 103.84 57.66C104.46 57.37 105.1 57.09 105.71 56.79L106.63 56.34L107.07 56.11C107.18 56.05 107.27 56.02 107.35 55.96C107.54 55.88 107.62 55.68 107.67 55.5C107.72 55.35 107.8 54.96 107.84 54.66C107.94 54.01 108 53.34 108.03 52.67C108.13 50.58 107.92 48.49 107.61 46.49C107.54 46.06 107.47 45.63 107.39 45.19C107.28 44.39 107.2 43.89 107.25 43.52C107.35 43.11 107.5 42.86 107.7 42.56C107.79 42.42 107.85 42.26 107.93 42.15C108.06 41.97 108.28 41.98 108.67 42.2C108.88 42.31 109.09 42.49 109.29 42.72C109.51 42.94 109.66 43.26 109.8 43.58C110.66 45.56 110.92 47.61 111.04 49.67C111.1 50.7 111.11 51.75 111.04 52.8C111.02 53.32 110.96 53.86 110.91 54.4C110.83 54.98 110.78 55.43 110.6 56.19C110.32 56.85 110.18 57.65 109.53 58.05C109.25 58.27 108.97 58.54 108.66 58.68L108.08 58.99C107.37 59.35 106.67 59.69 105.98 60C104.59 60.63 103.2 61.23 101.81 61.82L101.78 61.75H101.79Z" fill="#231F20"/>
<path d="M99.68 39.56L103.18 40.46L106.03 41.18C106.92 41.42 107.98 41.64 108.43 41.98C108.95 42.3 109.19 42.6 109.28 42.86C109.33 43 109.37 43.09 109.4 43.26L109.07 43.72L108.38 44.63C108.41 44.77 107.76 44.96 107.37 45.12L106.05 45.63L104.16 46.38L102.43 47.03C101.69 47.3 100.96 47.59 100.21 47.83C94.94 49.55 89.63 51.05 84.38 52.68C82.05 53.4 79.73 54.21 77.46 55.04C76 55.57 74.56 56.17 73.1 56.68C72.37 56.95 71.64 57.21 70.91 57.46L69.81 57.83C69.44 57.94 69.02 57.95 68.62 58C67.59 58.04 67.73 58.04 68.33 57.34C68.64 57.01 69.01 56.36 69.61 55.95C70.19 55.49 70.91 55.04 71.74 54.68C77.65 52.18 83.75 50.27 89.91 48.49C93.6 47.45 97.32 46.01 100.99 44.69L103.83 43.7L104 43.64C104 43.64 103.93 43.6 103.9 43.58L103.63 43.49L103.05 43.32L101.74 42.96C99.17 42.33 96.59 41.7 94.02 41.06C90.11 40.08 86.19 39.1 82.31 38.13C79.29 37.39 76.28 36.81 73.28 36.07C72.62 35.91 71.97 35.75 71.31 35.54C68.86 34.78 68.16 34.23 67.96 33.26C67.9 33.06 67.8 32.88 67.78 32.74C67.74 32.51 67.99 32.42 68.53 32.26C69.08 32.08 69.78 32.19 70.68 32.37C75.99 33.44 81.54 34.92 87.15 36.32C91.32 37.37 95.51 38.42 99.7 39.48V39.55L99.68 39.56Z" fill="#231F20"/>
<path d="M27.3998 40.86C30.2098 40.03 33.0298 39.22 35.8598 38.42C36.8898 38.12 37.8898 37.75 38.9198 37.47C42.5698 36.49 46.2098 35.5 49.8798 34.6C51.5098 34.2 53.1198 33.72 54.7098 33.25C56.7698 32.71 58.8198 32.06 61.0198 32.01C61.6998 31.97 61.6198 32.03 61.1498 32.41C60.9098 32.6 60.5798 32.89 60.1898 33.25C59.9898 33.42 59.7798 33.64 59.5398 33.81C59.2898 33.96 59.0298 34.11 58.7498 34.23C57.7498 34.66 56.7498 35.13 55.7398 35.53L52.6498 36.57C50.5798 37.25 48.4998 37.87 46.3498 38.33C43.7898 38.9 41.2398 39.88 38.6798 40.66L30.2098 43.22L24.9998 44.8C22.3798 45.62 19.7298 46.41 17.1498 47.32C15.1498 48.03 13.2398 48.89 11.2898 49.68C10.8598 49.85 10.4498 50.05 10.0098 50.21C9.17983 50.45 8.60983 50.55 8.17983 50.51C7.72983 50.44 7.43982 50.27 7.15982 50.02C7.02982 49.9 6.87983 49.8 6.78983 49.69C6.63983 49.5 6.69983 49.26 6.91983 48.93C7.14983 48.61 7.51983 48.19 8.08983 47.88C8.89983 47.35 9.76982 46.97 10.6598 46.58C11.5398 46.19 12.4398 45.83 13.3498 45.48C15.1698 44.77 17.0398 44.12 18.9198 43.49C21.7098 42.55 24.5498 41.68 27.3598 40.78L27.3898 40.85L27.3998 40.86Z" fill="#231F20"/>
<path d="M23.3599 83.54C23.3699 84.07 23.4099 84.63 23.4899 85.04C23.4999 85.16 23.5199 85.25 23.5499 85.33C23.5599 85.4 23.5499 85.41 23.5499 85.44C23.5499 85.49 23.5699 85.54 23.6099 85.58C23.6299 85.6 23.6499 85.62 23.6699 85.64C23.6899 85.65 23.6699 85.64 23.6899 85.66C23.7399 85.68 23.7999 85.71 23.8599 85.73C24.0999 85.83 24.3799 85.92 24.6599 86.01C25.2199 86.19 25.8199 86.35 26.4199 86.5C27.2899 86.72 28.1999 86.81 29.0799 87C30.6399 87.33 32.2299 87.64 33.7999 87.87C34.5899 87.99 35.3699 88.08 36.1399 88.14L36.9699 88.19C37.1599 88.19 37.3599 88.19 37.5499 88.13C37.7199 88.05 37.6799 87.83 37.7299 87.68L37.7599 87.42L37.7899 87.08C37.8599 86.38 37.8899 85.67 37.8999 84.96C37.9199 84.05 37.9699 83.13 38.0199 82.21C38.0499 81.75 38.0999 81.29 38.1599 80.82C38.1799 80.7 38.1699 80.59 38.2299 80.47L38.3999 80.12L38.7099 79.43C38.9999 78.86 39.0199 78.93 39.4099 79.43C39.6099 79.68 39.9199 80.03 40.3599 80.45C40.6999 80.87 40.8599 81.37 40.9499 81.9C41.0699 82.85 41.1999 83.81 41.2599 84.78C41.2599 85.27 41.2599 85.75 41.2399 86.25L41.2099 87L41.1499 87.95C41.0899 88.41 41.0899 88.9 40.9599 89.31C40.8999 89.52 40.8599 89.75 40.7799 89.94L40.4699 90.43C39.9599 91.09 39.1399 91.39 38.2699 91.48C37.8399 91.54 37.3899 91.53 36.9499 91.53C36.7099 91.53 36.6099 91.51 36.4699 91.5L36.0799 91.46C35.5599 91.4 35.0699 91.32 34.5699 91.22C32.2299 90.76 29.8299 90.58 27.4899 90.09C26.5599 89.89 25.6299 89.68 24.6999 89.42C24.2299 89.29 23.7699 89.16 23.2899 88.99C23.0499 88.91 22.8099 88.82 22.5399 88.72C22.1699 88.57 21.8699 88.41 21.5599 88.2C21.3699 88 21.1799 87.79 20.9999 87.59L20.5999 86.87C20.3999 86.32 20.3099 85.94 20.2499 85.52C20.0199 83.7 20.2099 82.08 20.4199 80.45C20.4999 79.85 20.5899 79.33 20.7399 78.66C20.8999 77.85 21.1399 77.05 21.8099 76.69C22.0199 76.6 22.2399 76.58 22.4499 76.52C22.6599 76.46 22.8799 76.43 23.0999 76.43L23.7599 76.39H24.2699C24.9399 76.42 25.5799 76.48 26.2199 76.55C28.0999 76.76 29.9399 76.87 31.7999 77.17C32.2099 77.25 32.6199 77.28 33.0299 77.38C34.5599 77.73 35.0199 78.2 35.0099 79.07C35.0099 79.25 35.0299 79.43 34.9899 79.58C34.9299 79.83 34.7099 79.98 34.3999 80.13C34.0899 80.28 33.6699 80.33 33.1599 80.25C31.5899 80.04 30.0099 79.83 28.3999 79.61C27.5899 79.5 26.7799 79.4 25.9699 79.38C25.5699 79.36 25.1699 79.35 24.7799 79.35C24.5799 79.35 24.3999 79.35 24.2099 79.35C24.0599 79.35 23.7499 79.35 23.8099 79.35C23.7599 79.35 23.7699 79.35 23.7599 79.35C23.7599 79.35 23.7599 79.35 23.7399 79.35C23.7399 79.35 23.7399 79.33 23.7399 79.37L23.7099 79.54L23.6499 79.9L23.5599 80.63C23.4399 81.61 23.4099 82.61 23.4499 83.55H23.3699L23.3599 83.54Z" fill="#231F20"/>
<path d="M105.41 24.63C105.52 24.83 105.33 25.02 104.98 25.21C104.87 25.27 104.52 25.3 104.46 25.24C104.35 25.13 104.23 25.03 104.14 24.92C104.09 24.85 103.7 23.73 103.54 23.35C103.38 22.98 103.29 22.61 103.22 22.23L102.76 19.93C102.72 19.76 102.73 19.59 102.76 19.41C102.88 18.81 102.84 18.22 102.75 17.63C102.73 17.53 102.75 17.43 102.64 17.34C102.47 17.19 102.34 15.58 102.41 15.37C102.54 14.85 102.72 14.33 102.9 13.81C102.93 13.74 102.9 13.66 103.01 13.59C103.28 13.43 103.24 13.27 103.27 13.11C103.3 12.89 103.36 12.67 103.51 12.45C103.57 12.34 103.72 12.23 103.82 12.13C103.92 12.03 104.19 12.09 104.22 12.12C104.31 12.22 104.45 12.14 104.57 12.12C104.61 12.12 104.66 12.12 104.7 12.12C104.73 12.12 104.96 12.44 105.22 12.77C105.41 13.1 105.62 13.44 105.62 13.51C105.62 13.53 105.73 13.98 105.85 14.47C105.97 14.95 105.98 15.46 106.02 15.56C106.05 15.67 105.98 15.78 105.94 15.89C105.92 15.94 106.15 17.39 106.14 17.44C106.11 17.74 106.21 18.04 105.99 18.35C105.95 18.41 105.96 18.47 105.97 18.53C106.02 19.05 105.95 19.57 105.87 20.09C105.83 20.36 105.86 20.62 105.85 20.89C105.85 20.94 105.82 20.99 105.8 21.04C105.78 21.1 105.75 21.16 105.76 21.22C105.77 21.85 105.67 22.49 105.74 23.11C105.75 23.25 105.56 23.96 105.6 24.13C105.61 24.22 105.36 24.55 105.41 24.63Z" fill="#231F20"/>
<path d="M113.29 28.61C113.29 28.81 113.02 28.82 112.6 28.74C112.47 28.72 112.13 28.53 112.11 28.46C112.06 28.32 112 28.18 111.97 28.05C111.96 27.97 112.13 26.96 112.16 26.59C112.19 26.24 112.28 25.92 112.39 25.61C112.61 24.98 112.82 24.33 113.15 23.77C113.22 23.64 113.31 23.53 113.43 23.43C113.84 23.1 114.11 22.67 114.31 22.21C114.34 22.13 114.4 22.07 114.36 21.94C114.32 21.84 114.46 21.48 114.67 21.16C114.89 20.85 115.15 20.56 115.24 20.52C115.69 20.3 116.03 20.01 116.46 19.78C116.52 19.75 116.54 19.68 116.67 19.7C116.98 19.76 117.02 19.62 117.16 19.56C117.34 19.46 117.52 19.37 117.73 19.29C117.83 19.25 118 19.26 118.13 19.25C118.25 19.24 118.41 19.41 118.42 19.45C118.44 19.57 118.58 19.59 118.66 19.64C118.69 19.66 118.73 19.68 118.75 19.7C118.78 19.73 118.79 20.07 118.83 20.43C118.86 20.63 118.88 20.82 118.9 20.97C118.9 21.11 118.9 21.21 118.88 21.24C118.9 21.29 118.29 22.7 118.26 22.89C118.24 22.98 118.14 23.02 118.06 23.08C118.06 23.13 117.56 24.24 117.52 24.27C117.35 24.45 117.29 24.71 116.94 24.78C116.87 24.79 116.85 24.84 116.83 24.89C116.62 25.26 116.29 25.56 116 25.89C115.84 26.05 115.78 26.27 115.62 26.43C115.59 26.46 115.54 26.47 115.5 26.5C115.45 26.53 115.39 26.55 115.36 26.59C115.05 27.01 114.62 27.37 114.38 27.83C114.32 27.93 113.78 28.29 113.72 28.42C113.68 28.49 113.28 28.56 113.29 28.64V28.61Z" fill="#231F20"/>
<path d="M118.02 36.08C117.95 36.21 117.81 36 117.65 35.6C117.6 35.47 117.51 35.07 117.52 35.01C117.55 34.88 117.58 34.76 117.61 34.66C117.63 34.61 118.11 34.22 118.26 34.05C118.41 33.89 118.58 33.81 118.75 33.74C119.1 33.6 119.43 33.4 119.79 33.31C119.87 33.29 119.95 33.29 120.04 33.31C120.35 33.4 120.62 33.34 120.88 33.21C120.92 33.19 120.97 33.19 121 33.09C121.04 32.93 121.77 32.71 121.88 32.76C122.16 32.89 122.43 32.95 122.71 33.11C122.75 33.13 122.78 33.11 122.84 33.21C122.97 33.44 123.04 33.4 123.12 33.42C123.23 33.45 123.35 33.48 123.47 33.55C123.53 33.58 123.61 33.68 123.67 33.75C123.73 33.82 123.76 34.07 123.75 34.1C123.72 34.19 123.79 34.3 123.81 34.4C123.81 34.44 123.83 34.48 123.84 34.51C123.84 34.54 123.41 35.36 123.36 35.43C123.36 35.5 122.58 36.04 122.48 36.05C122.43 36.08 122.37 36.04 122.31 36.01C122.28 36 121.63 36.33 121.6 36.33C121.45 36.33 121.33 36.45 121.14 36.26C121.1 36.22 121.08 36.24 121.05 36.26C120.81 36.34 120.55 36.31 120.29 36.3C120.16 36.3 120.04 36.34 119.91 36.35C119.89 36.35 119.86 36.32 119.83 36.31C119.8 36.3 119.76 36.27 119.73 36.28C119.43 36.33 119.1 36.26 118.82 36.37C118.75 36.39 118.37 36.22 118.3 36.26C118.26 36.28 118.05 36.01 118.02 36.07V36.08Z" fill="#231F20"/>
</svg>
