<svg width="128" height="128" viewBox="0 0 128 128" fill="none" xmlns="http://www.w3.org/2000/svg">
<path d="M24.5298 41.55C23.0198 42.08 22.3998 44.65 24.6098 44.86C26.8198 45.07 23.3498 46.82 22.1598 45.84C20.9698 44.86 19.6998 43.54 20.7898 42.04C21.8798 40.54 24.5298 41.56 24.5298 41.56V41.55Z" fill="#231F20"/>
<path d="M34.06 41.57C34.06 41.57 34.25 44.64 35.9 43.59C37.73 42.42 37.17 46.16 35.27 46.04C33.37 45.92 31.38 44.93 31.51 43.69C31.64 42.45 34.06 41.58 34.06 41.58V41.57Z" fill="#231F20"/>
<path d="M44.73 42.07C44.73 42.07 44.93 44.85 47.08 43.8C48.41 43.15 43.48 48.04 42.6 44.32C42.03 41.91 44.73 42.07 44.73 42.07Z" fill="#231F20"/>
<path d="M14.69 47.16C14.69 47.89 15.04 48.57 15.11 48.54C15.13 48.54 15.1 48.56 15.16 48.58L15.38 48.65L15.6 48.73L15.89 48.79C16.26 48.88 16.67 48.96 17.09 49.02C17.7 49.11 18.33 49.11 18.97 49.17C21.21 49.4 23.52 49.5 25.82 49.6C26.84 49.65 27.87 49.63 28.89 49.6C30.19 49.53 31.52 49.53 32.83 49.91C33.24 50.03 33.18 50.19 32.83 50.47C32.48 50.74 31.86 51.26 31.12 51.41C30.46 51.59 29.8 51.63 29.14 51.68C28.48 51.73 27.81 51.77 27.14 51.8C26.47 51.83 25.8 51.85 25.13 51.84C24.46 51.82 23.78 51.76 23.1 51.7C21.48 51.53 19.79 51.65 18.1 51.53C17.17 51.44 16.24 51.38 15.26 51.12C14.76 50.97 14.26 50.87 13.61 50.38C13.35 50.15 13.15 49.86 12.98 49.6C12.87 49.33 12.72 49.06 12.65 48.8C12.29 47.51 12.31 46.33 12.38 45.16C12.52 43.4 12.93 41.7 13.39 40.04C13.75 38.75 14.07 37.46 14.6 36.2C14.71 35.92 14.81 35.64 14.96 35.37C15.5 34.38 15.93 34.2 16.54 34.38C16.68 34.42 16.83 34.45 16.96 34.51C17.39 34.72 17.47 35.3 17.21 35.97C16.85 37 16.48 38.03 16.12 39.07C15.78 40.13 15.46 41.21 15.21 42.32C14.86 43.94 14.59 45.66 14.75 47.14H14.69V47.16Z" fill="#231F20"/>
<path d="M41.1399 51.18L52.8799 51.74L57.1599 51.89L72.2499 52.72C74.4799 52.82 76.7299 52.93 78.9499 53.03C80.3699 53.09 81.7999 53.16 83.2299 53.22C84.6599 53.28 86.0799 53.44 87.4799 53.82C88.3499 54.05 88.2399 54.03 87.4799 54.21C87.0999 54.29 86.5499 54.5 85.8999 54.63C85.5699 54.7 85.2199 54.79 84.8399 54.83C84.4699 54.85 84.0699 54.86 83.6599 54.85C80.7599 54.76 77.8599 54.67 74.9499 54.58C72.0399 54.46 69.1299 54.29 66.1999 54.09C62.6999 53.85 59.0499 53.84 55.4699 53.73L43.6399 53.31C41.2099 53.21 38.7799 53.12 36.3599 53.02C32.6799 52.88 28.9899 52.72 25.3399 52.62C22.4999 52.58 19.7099 52.54 16.8999 52.51C16.2799 52.5 15.6699 52.48 15.0499 52.47C12.7399 52.36 11.9999 52.15 11.5499 51.62C11.4499 51.5 11.3099 51.37 11.2499 51.26C11.0599 50.86 12.0199 50.6 13.7099 50.58C16.2099 50.54 18.7799 50.52 21.3899 50.54C23.9999 50.58 26.6399 50.66 29.2899 50.74C33.2299 50.88 37.1799 51.01 41.1299 51.15V51.2L41.1399 51.18Z" fill="#231F20"/>
<path d="M16.8802 112.8C16.2002 112.43 15.5302 112.04 14.8802 111.54C14.2302 111.07 13.5702 110.46 13.0602 109.58L12.8202 109.05C12.7302 108.86 12.7302 108.77 12.6802 108.63C12.6002 108.37 12.5202 108.11 12.4702 107.84C12.1302 105.94 12.0602 104.04 11.9602 102.18C11.9102 101.36 11.8502 100.53 11.8002 99.72C11.7202 98.68 11.7202 97.63 11.7602 96.58C11.7802 96.25 11.8802 96.29 12.0402 96.55C12.2002 96.81 12.4602 97.3 12.6102 97.89C12.8802 98.94 13.0402 99.99 13.2002 101.03C13.3602 102.07 13.5202 103.11 13.6502 104.15C13.7802 105.41 14.2702 106.63 14.6002 107.84C14.6502 108 14.7002 108.19 14.7502 108.32C14.8002 108.41 14.8402 108.51 14.8802 108.61C15.0502 108.81 15.1802 109.03 15.4302 109.23C15.8602 109.65 16.4502 110 17.0302 110.34C17.7702 110.74 18.5502 111.11 19.3602 111.42C20.5802 111.9 21.8302 112.38 23.1202 112.69C24.1202 112.94 25.1402 113.03 26.1502 113.16C26.3702 113.19 26.6002 113.2 26.8202 113.24C27.6502 113.39 27.8702 113.6 27.9102 114.26C27.9102 114.41 27.9402 114.56 27.9302 114.71C27.9002 115.21 27.4802 115.53 26.8402 115.53C24.9402 115.53 23.0102 115.13 21.0902 114.55C19.6602 114.13 18.2602 113.57 16.8702 112.87L16.8902 112.82L16.8802 112.8Z" fill="#231F20"/>
<path d="M44.9099 49.57L58.1399 50.03C59.7499 50.08 61.3599 50.06 62.9699 50.12C68.6399 50.35 74.3099 50.57 79.9699 50.85C82.4799 50.97 85.0099 51.01 87.5099 51.05C89.1099 51.07 90.7199 51.09 92.3299 51.11L93.5299 51.14L94.7299 51.27C95.5299 51.37 96.3299 51.45 97.1299 51.59C98.1199 51.85 97.9899 51.94 97.1299 52.32C96.6999 52.52 96.0999 52.72 95.3699 52.94C94.9999 53.05 94.6099 53.16 94.1899 53.25C93.9799 53.3 93.7599 53.33 93.5399 53.39C93.3199 53.4 93.0899 53.41 92.8599 53.42C86.3099 53.44 79.7699 53.46 73.1699 53C69.2299 52.73 65.1199 52.78 61.0799 52.68L47.7599 52.31C45.0299 52.24 42.2899 52.18 39.5599 52.11C35.4199 52.03 31.2599 51.92 27.1599 51.95C23.9699 51.98 20.8399 52.17 17.6899 52.33C16.9999 52.37 16.3199 52.41 15.6199 52.45C13.0299 52.53 12.2499 52.45 11.6399 51.66C11.4999 51.5 11.3299 51.35 11.2399 51.2C10.9499 50.76 11.9899 50.03 13.9199 49.85C19.5999 49.23 25.5599 49.21 31.5399 49.24C35.9799 49.27 40.4399 49.39 44.8999 49.48V49.55L44.9099 49.57Z" fill="#231F20"/>
<path d="M11.2198 107.83C11.2198 107.83 4.1298 109.37 5.2998 111.23C6.8398 113.7 19.5098 116.17 23.9898 114.91C27.7898 113.85 13.0198 112.6 13.0198 112.6L11.2198 107.82V107.83Z" fill="#231F20"/>
<path d="M10.3799 103.32C9.64989 90.13 9.41989 76.99 9.56989 63.81C9.64989 59 9.66989 54.19 10.0099 49.37C10.1499 47.24 10.3399 45.11 10.5999 42.97C10.9099 40.81 11.1599 38.71 12.0199 36.39C12.0599 36.25 12.1299 36.1 12.2299 35.93L12.4999 35.44C12.6699 35.1 12.9799 34.73 13.3299 34.47C14.0799 33.91 14.6399 33.74 15.2299 33.53C16.3799 33.16 17.4699 32.97 18.5599 32.8C20.7299 32.48 22.8699 32.32 24.9999 32.2C33.5199 31.79 41.9799 32 50.4299 32.28C57.9299 32.55 65.4599 32.85 72.8899 33.2C82.4299 33.77 92.0199 34.23 101.48 35.71C104.43 36.23 104.03 36.19 101.48 36.38C98.9399 36.58 94.2599 37.09 88.7599 36.96L74.1599 36.45C69.2999 36.23 64.4399 36.02 59.5699 35.8C49.8399 35.41 40.0799 35.04 30.3199 35.07C27.4099 35.09 24.4599 35.19 21.5599 35.47C20.1099 35.61 18.6599 35.8 17.3099 36.11C16.6399 36.26 15.9799 36.46 15.5099 36.69C15.2699 36.82 15.2299 36.84 15.1399 36.95C15.0999 37.02 15.0699 37.1 15.0099 37.21C14.9499 37.31 14.8899 37.41 14.8399 37.58C14.3899 38.73 14.1399 40.23 13.9099 41.65C13.6999 43.1 13.5399 44.58 13.4099 46.06C13.1499 49.03 12.9899 52.03 12.8699 55.01C12.3799 68.16 12.5299 81.39 12.9899 94.58C13.1499 98.64 13.3199 102.7 13.6399 106.72C13.7199 107.72 13.8199 108.73 13.9499 109.69C14.0599 110.56 14.1999 110.6 15.1399 111.05C16.8199 111.74 18.8499 112.08 20.7999 112.37C26.8199 113.18 33.0099 113.42 39.1499 113.59C45.2999 113.75 51.4499 113.77 57.5599 113.73C67.0699 113.66 76.3799 113.33 85.7899 113.14C87.8599 113.1 89.8899 113.06 91.9799 113.02C99.7299 112.98 102.21 113.23 103.85 114.04C104.22 114.22 104.72 114.4 104.94 114.57C105.66 115.12 102.51 115.58 96.8599 115.71C80.0899 116.16 62.3699 116.73 44.5199 116.58C37.8899 116.5 31.2399 116.36 24.5299 115.81C22.8499 115.66 21.1699 115.49 19.4599 115.23C17.7499 114.95 16.0499 114.67 14.1999 113.98C13.9599 113.87 13.7399 113.8 13.4799 113.66C13.2199 113.53 13.0199 113.44 12.6699 113.2C12.0199 112.72 11.3899 112.16 11.1899 111.36C11.0199 111.01 10.9699 110.54 10.9299 110.35C10.8799 110.09 10.8599 109.89 10.8299 109.66C10.7699 109.22 10.7199 108.78 10.6799 108.36C10.5099 106.66 10.3899 105 10.2799 103.33L10.3599 103.31L10.3799 103.32Z" fill="#231F20"/>
<path d="M107.08 84.01C107.25 80.28 107.4 76.54 107.51 72.8C107.56 71.44 107.51 70.07 107.54 68.71C107.67 63.9 107.91 59.09 108.01 54.28C108.03 52.15 108.08 50 108.06 47.88C108.06 45.16 107.92 42.43 108.26 39.71C108.38 38.86 108.47 38.96 108.8 39.66C109.15 40.36 109.76 41.67 109.97 43.24C110.23 46.02 110.45 48.81 110.59 51.6C110.67 54.39 110.59 57.19 110.46 60C110.31 63.36 110.41 66.85 110.35 70.29C110.27 74.07 110.15 77.85 110.01 81.62C109.92 83.94 109.83 86.27 109.74 88.59C109.6 92.11 109.39 95.64 109.27 99.14C109.23 100.5 109.2 101.85 109.19 103.19C109.17 104.53 109.1 105.88 109.02 107.23C108.99 107.82 108.97 108.41 108.92 109C108.65 111.22 108.34 111.9 107.7 112.3C107.55 112.39 107.4 112.52 107.27 112.56C106.81 112.71 106.51 111.77 106.44 110.16C106.37 107.77 106.33 105.32 106.29 102.83C106.38 100.35 106.46 97.83 106.55 95.31C106.69 91.55 106.83 87.78 106.98 84.02H107.05L107.08 84.01Z" fill="#231F20"/>
<path d="M27.1399 44.19C26.8599 45.59 25.9199 46.9 24.3399 47.25C23.7999 47.36 23.2899 47.37 22.8399 47.25C21.2799 46.82 20.2099 45.51 19.9499 44.09C19.8399 43.45 19.9199 42.79 20.1599 42.23C20.4199 41.48 21.1499 40.9 21.9299 40.87C22.1699 40.87 22.1399 40.96 22.0299 41.16C21.9099 41.35 21.7899 41.72 21.6999 42C21.6199 42.26 21.5399 42.47 21.4799 42.68C21.4299 42.9 21.4099 43.12 21.4399 43.31C21.4799 43.68 21.6599 44.08 21.9399 44.46C22.2799 44.93 22.9699 45.12 23.4699 45.14C23.7499 45.14 23.8899 45.12 24.0899 44.98C24.2999 44.84 24.4799 44.6 24.5799 44.33C24.7099 43.99 24.7499 43.57 24.6499 43.19C24.5099 42.6 24.1499 42.06 23.5499 41.93C23.0899 41.81 22.5999 42.06 22.2699 42.28C22.1999 42.33 22.1399 42.4 22.0699 42.45C21.8399 42.63 21.6399 42.51 21.0899 42.18L20.7099 41.96C20.3099 41.73 20.1199 41.23 20.4399 40.68C20.9599 39.95 21.8299 39.4 22.7899 39.31C23.7499 39.2 24.8299 39.47 25.6899 40.15C26.9999 41.19 27.3999 42.79 27.1799 44.19H27.1199H27.1399Z" fill="#231F20"/>
<path d="M38.1902 44.19C37.9102 45.59 36.9702 46.9 35.3902 47.25C34.8502 47.36 34.3402 47.37 33.8902 47.25C32.3302 46.82 31.2602 45.51 31.0002 44.09C30.8902 43.45 30.9702 42.79 31.2102 42.23C31.4702 41.48 32.2002 40.9 32.9802 40.87C33.2202 40.87 33.1902 40.96 33.0802 41.16C32.9602 41.35 32.8402 41.72 32.7502 42C32.6702 42.26 32.5902 42.47 32.5302 42.68C32.4802 42.9 32.4602 43.12 32.4902 43.31C32.5302 43.68 32.7102 44.08 32.9902 44.46C33.3302 44.93 34.0202 45.12 34.5202 45.14C34.8002 45.14 34.9402 45.12 35.1402 44.98C35.3502 44.84 35.5302 44.6 35.6302 44.33C35.7602 43.99 35.8002 43.57 35.7002 43.19C35.5602 42.6 35.2002 42.06 34.6002 41.93C34.1402 41.81 33.6502 42.06 33.3202 42.28C33.2502 42.33 33.1902 42.4 33.1202 42.45C32.8902 42.63 32.6902 42.51 32.1402 42.18L31.7602 41.96C31.3602 41.73 31.1702 41.23 31.4902 40.68C32.0102 39.95 32.8802 39.4 33.8402 39.31C34.8002 39.2 35.8802 39.47 36.7402 40.15C38.0502 41.19 38.4502 42.79 38.2302 44.19H38.1702H38.1902Z" fill="#231F20"/>
<path d="M48.4402 44.16C48.2002 45.48 47.2202 46.56 45.9102 46.79C45.4602 46.87 45.0402 46.88 44.6602 46.79C43.3502 46.47 42.3002 45.47 41.9802 44.21C41.8402 43.65 41.9102 43.04 42.1402 42.55C42.4002 41.89 43.0802 41.44 43.7402 41.44C43.9502 41.44 43.9202 41.53 43.8202 41.7C43.7102 41.86 43.5902 42.18 43.4902 42.42C43.4102 42.64 43.3302 42.81 43.2702 42.99C43.2202 43.17 43.2102 43.34 43.2302 43.49C43.2702 43.77 43.4402 44.09 43.7102 44.4C44.0402 44.78 44.6702 44.91 45.1302 44.93C45.3902 44.93 45.5502 44.9 45.7402 44.79C45.9302 44.67 46.0902 44.48 46.1802 44.27C46.2902 44 46.3302 43.66 46.2202 43.35C46.0702 42.88 45.7202 42.45 45.1602 42.36C44.7302 42.28 44.2902 42.5 43.9802 42.69L43.7902 42.84C43.5702 42.99 43.4002 42.88 42.9402 42.57L42.6202 42.36C42.2802 42.14 42.1402 41.7 42.4402 41.23C43.4102 39.97 45.3102 39.65 46.9002 40.64C48.1102 41.39 48.6902 42.85 48.4802 44.16H48.4302H48.4402Z" fill="#231F20"/>
<path d="M37.1502 83.28L36.1902 82.54C35.7502 82.2 35.3102 81.86 34.9602 81.5C34.6302 81.13 34.4102 80.76 34.5002 80.41V80.27L34.5202 80.25C34.5202 80.25 34.2802 80.25 34.3902 80.25L34.4002 80.21L34.4202 80.14L34.5102 79.86C34.5702 79.67 34.6102 79.48 34.7702 79.3C35.0902 78.96 35.3502 78.61 35.7702 78.32L36.3502 77.87C36.5302 77.73 36.7602 77.54 36.8802 77.48C37.4602 77.12 37.9902 76.73 38.5702 76.41C40.6102 75.34 42.6602 74.41 44.6502 73.39C45.5402 72.95 46.3702 72.39 47.2102 71.9C47.7502 71.58 48.2602 71.22 48.7902 70.89L49.1802 70.64L49.6202 70.46C49.9102 70.34 50.2102 70.23 50.5102 70.1C50.8902 69.96 51.0002 70.16 50.9502 70.64C50.9302 70.88 50.8702 71.2 50.7602 71.57C50.7102 71.75 50.6402 71.93 50.5602 72.12C50.5202 72.22 50.4702 72.3 50.4302 72.4C50.3702 72.47 50.3002 72.54 50.2302 72.6C48.2002 74.42 45.8402 75.61 43.4302 76.64C41.9802 77.25 40.6402 78.17 39.3202 78.98C39.1202 79.1 38.9302 79.22 38.7402 79.34L38.4602 79.52C38.3602 79.59 38.2602 79.65 38.2402 79.65C38.0902 79.74 37.9302 79.83 37.7702 79.96C37.3002 80.2 37.7702 80.45 37.9802 80.67L38.1202 80.79L38.2002 80.86L38.3602 80.98L39.0002 81.47L40.3002 82.43C41.6202 83.39 42.9602 84.36 44.3302 85.22C45.4002 85.89 46.5402 86.41 47.6602 86.99C47.9102 87.12 48.1602 87.22 48.4002 87.36C49.3002 87.86 49.4502 88.23 49.2402 88.96C49.1902 89.12 49.1602 89.3 49.1002 89.45C48.9002 89.94 48.2602 90.15 47.5402 89.88C45.4002 89.06 43.4102 87.79 41.4402 86.45C39.9902 85.45 38.5502 84.41 37.1002 83.36L37.1402 83.31L37.1502 83.28Z" fill="#231F20"/>
<path d="M62.3101 78.46L59.82 82.63C59.52 83.14 59.29 83.68 58.98 84.19C57.91 85.97 56.8201 87.74 55.8101 89.56C55.36 90.36 54.99 91.21 54.57 92.02C54.06 93.08 53.6 94.15 52.92 95.13C52.71 95.43 52.41 95.25 52.2 94.82C51.99 94.39 51.83 93.69 52.03 93.03C52.42 91.88 52.75 90.7 53.3 89.63C53.84 88.55 54.4301 87.49 55.0801 86.46C55.8601 85.23 56.42 83.82 57.1 82.51L59.41 78.21L60.84 75.57C61.54 74.23 62.28 72.9 62.88 71.52C63.35 70.45 63.65 69.33 64 68.23C64.08 67.99 64.13 67.74 64.22 67.5C64.54 66.61 64.8601 66.43 65.6501 66.55C65.8301 66.58 66.01 66.59 66.18 66.64C66.75 66.79 67.0701 67.35 66.9401 68.07C66.5501 70.18 65.65 72.2 64.67 74.17C63.94 75.64 63.14 77.07 62.36 78.5L62.3 78.47L62.3101 78.46Z" fill="#231F20"/>
<path d="M82.52 83.09C82.6 83.09 82.74 83.06 82.87 82.99C82.98 82.92 82.87 82.87 82.84 82.79L82.75 82.67C82.68 82.6 82.75 82.63 82.46 82.4C81.95 81.98 81.39 81.62 80.88 81.19C79.11 79.65 77.34 78.1 75.52 76.62C74.71 75.97 73.89 75.32 73.06 74.71L71.46 73.53C70.92 73.15 70.48 72.61 70.01 72.13C69.73 71.81 69.9 71.66 70.36 71.61C70.81 71.58 71.65 71.5 72.36 71.82C73.56 72.47 74.75 73.14 75.9 73.87C77.05 74.59 78.08 75.49 79.12 76.39C80.34 77.49 81.83 78.34 83.16 79.36L85.32 81.02C85.56 81.21 85.79 81.4 86.02 81.58C86.16 81.67 86.2 81.78 86.26 81.88C86.32 81.98 86.39 82.09 86.43 82.18L86.7 82.72L86.77 82.85L86.8 82.91L86.82 82.95V82.97C86.86 82.97 86.72 82.97 86.92 82.97C86.9 83.1 86.87 83.21 86.83 83.32C86.72 83.5 86.62 83.68 86.5 83.85C86.36 84.02 86.22 84.18 86.03 84.34C85.45 84.86 84.62 85.35 83.97 85.73C83.46 86.01 82.95 86.28 82.44 86.54C80.9 87.34 79.33 88.05 77.84 88.88C76.68 89.52 75.65 90.32 74.55 91.02C74.31 91.18 74.09 91.35 73.84 91.5C72.93 92.04 72.54 92.02 71.95 91.46C71.82 91.33 71.67 91.22 71.55 91.08C71.16 90.62 71.29 89.96 71.89 89.39C73.67 87.69 75.83 86.48 78 85.33C79.48 84.56 80.96 83.78 82.45 83.01L82.5 83.07L82.52 83.09Z" fill="#231F20"/>
<path d="M98.3302 19.96C98.3302 19.83 98.3802 19.73 98.4402 19.64C98.4602 19.61 98.5102 19.61 98.5202 19.64C98.5402 19.72 98.5702 19.8 98.5802 19.85C98.5802 19.89 98.7202 20.58 98.7902 20.82C98.8502 21.05 98.9102 21.27 98.9002 21.5L98.9402 22.89C98.9402 22.99 98.9402 23.1 98.9202 23.2C98.8702 23.55 98.8702 23.9 98.8902 24.26C98.8902 24.32 98.8902 24.38 98.9202 24.44C98.9702 24.53 98.9902 25.5 98.9602 25.62C98.9002 25.93 98.8602 26.23 98.8102 26.54C98.8102 26.58 98.8102 26.63 98.7702 26.67C98.6702 26.76 98.6802 26.85 98.6702 26.95C98.6602 27.08 98.6402 27.21 98.6002 27.34C98.5802 27.4 98.5302 27.47 98.4802 27.53C98.4402 27.59 98.3002 27.55 98.2902 27.53C98.2502 27.47 98.1802 27.51 98.1202 27.52C98.1002 27.52 98.0802 27.52 98.0602 27.52C98.0302 27.52 97.7802 26.75 97.7802 26.66C97.7602 26.64 97.7502 25.54 97.7402 25.41C97.7402 25.34 97.7602 25.28 97.7702 25.21C97.7702 25.16 97.7502 24.3 97.7502 24.27C97.7702 24.09 97.7502 23.91 97.8302 23.73C97.8502 23.69 97.8402 23.66 97.8402 23.62C97.8402 23.31 97.8902 22.99 97.9202 22.68C97.9402 22.52 97.9302 22.36 97.9402 22.2C97.9402 22.17 97.9502 22.14 97.9602 22.11C97.9602 22.07 97.9802 22.04 97.9802 22C97.9902 21.62 98.0302 21.24 98.0902 20.86C98.1002 20.77 98.2302 20.35 98.2302 20.25C98.2302 20.19 98.3202 20.01 98.3202 19.96H98.3302Z" fill="#231F20"/>
<path d="M94.9602 23.9C94.8402 23.91 94.7402 23.82 94.6602 23.72C94.6302 23.69 94.6402 23.6 94.6702 23.58C94.7502 23.54 94.8202 23.5 94.8702 23.47C94.9302 23.45 95.0902 23.4 95.2602 23.34C95.4602 23.29 95.6802 23.26 95.7902 23.23C96.0102 23.18 96.2202 23.16 96.4402 23.15C96.8802 23.13 97.3202 23.07 97.7602 23.06C97.8602 23.06 97.9502 23.06 98.0502 23.09C98.3802 23.16 98.7202 23.16 99.0502 23.14C99.1102 23.14 99.1602 23.14 99.2202 23.1C99.3102 23.04 100.21 23.02 100.33 23.05C100.62 23.12 100.91 23.17 101.2 23.23C101.24 23.23 101.29 23.23 101.32 23.27C101.41 23.38 101.5 23.36 101.59 23.37C101.71 23.38 101.84 23.4 101.96 23.44C102.02 23.46 102.08 23.52 102.14 23.58C102.19 23.63 102.16 23.8 102.14 23.82C102.08 23.87 102.13 23.95 102.14 24.03C102.14 24.05 102.14 24.09 102.14 24.1C102.14 24.15 101.41 24.42 101.33 24.41C101.31 24.41 100.31 24.47 100.14 24.48C100.08 24.48 100.02 24.46 99.9502 24.44C99.9002 24.44 99.0802 24.48 99.0502 24.48C98.8802 24.46 98.7002 24.49 98.5302 24.4C98.5002 24.38 98.4602 24.38 98.4302 24.39C98.1302 24.39 97.8302 24.35 97.5402 24.32C97.3902 24.3 97.2402 24.3 97.0802 24.29C97.0502 24.29 97.0302 24.27 97.0002 24.27C96.9702 24.27 96.9302 24.25 96.9002 24.25C96.5402 24.23 96.1802 24.16 95.8202 24.17C95.7402 24.17 95.3402 24.07 95.2502 24.05C95.2002 24.04 95.0202 23.91 94.9802 23.92L94.9602 23.9Z" fill="#231F20"/>
<path d="M96.07 21.63C95.98 21.56 95.97 21.42 95.96 21.3C95.96 21.26 96.01 21.21 96.05 21.22C96.13 21.24 96.21 21.26 96.27 21.27C96.32 21.27 96.93 21.57 97.11 21.7C97.3 21.81 97.47 21.94 97.64 22.07L98.68 22.87C98.76 22.93 98.83 23 98.89 23.07C99.1 23.33 99.35 23.55 99.62 23.75C99.67 23.78 99.7 23.83 99.77 23.83C99.89 23.83 100.59 24.42 100.64 24.54C100.8 24.8 100.97 25.04 101.13 25.3C101.15 25.34 101.2 25.36 101.18 25.42C101.15 25.57 101.23 25.62 101.28 25.69C101.34 25.8 101.4 25.92 101.45 26.05C101.47 26.11 101.45 26.21 101.45 26.29C101.45 26.36 101.31 26.45 101.29 26.45C101.21 26.45 101.19 26.53 101.14 26.58C101.12 26.6 101.1 26.62 101.09 26.63C101.07 26.63 100.26 26.43 100.24 26.35C100.24 26.35 100.04 26.17 99.84 25.98C99.64 25.8 99.42 25.61 99.37 25.58C99.32 25.54 99.3 25.48 99.27 25.42C99.26 25.39 98.64 24.85 98.62 24.82C98.51 24.68 98.37 24.59 98.32 24.39C98.31 24.35 98.28 24.33 98.26 24.31C98.05 24.11 97.87 23.87 97.68 23.64C97.58 23.52 97.47 23.42 97.37 23.31C97.35 23.29 97.34 23.26 97.33 23.24C97.31 23.21 97.29 23.18 97.27 23.15C97.02 22.9 96.79 22.61 96.52 22.38C96.46 22.33 96.24 21.98 96.18 21.91C96.14 21.87 96.1 21.66 96.06 21.63H96.07Z" fill="#231F20"/>
<path d="M96.4201 26.44C96.3701 26.56 96.2001 26.55 96.0101 26.49C95.9501 26.47 95.8201 26.35 95.8301 26.3C95.8301 26.21 95.8401 26.12 95.8601 26.04C95.9101 25.93 96.1701 25.35 96.2701 25.12C96.3801 24.92 96.5201 24.75 96.6701 24.58L97.5601 23.55C97.6301 23.47 97.7001 23.41 97.7901 23.35C98.0901 23.16 98.3201 22.9 98.5301 22.63C98.5701 22.58 98.6101 22.55 98.6101 22.47C98.6101 22.35 99.2301 21.65 99.3401 21.58C99.6501 21.39 99.8701 21.25 100.14 21.09C100.18 21.07 100.2 21.02 100.27 21.03C100.43 21.06 100.48 20.98 100.55 20.92C100.65 20.84 100.76 20.76 100.88 20.7C100.94 20.67 101.04 20.68 101.13 20.67C101.21 20.67 101.33 20.82 101.34 20.85C101.34 20.93 101.45 20.96 101.51 21.02C101.53 21.04 101.56 21.06 101.57 21.08C101.6 21.12 101.35 21.9 101.3 21.96C101.29 21.97 100.66 22.81 100.56 22.94C100.52 22.99 100.45 23.02 100.39 23.05C100.36 23.07 99.8301 23.75 99.8001 23.77C99.6601 23.89 99.5701 24.05 99.3601 24.09C99.3201 24.09 99.3001 24.13 99.2701 24.16C99.0601 24.39 98.8101 24.58 98.5701 24.78C98.4501 24.88 98.3501 25 98.2301 25.11C98.2101 25.13 98.1801 25.14 98.1501 25.15C98.1201 25.17 98.0801 25.18 98.0601 25.21C97.8001 25.48 97.5001 25.71 97.2701 26C97.2301 26.08 96.7901 26.23 96.7301 26.31C96.6901 26.35 96.4401 26.36 96.4201 26.41V26.44Z" fill="#231F20"/>
<path d="M113.79 13.03C113.79 12.93 113.83 12.84 113.88 12.77C113.9 12.75 113.94 12.75 113.95 12.77C113.97 12.83 113.99 12.9 114 12.94C114 12.98 114.11 13.53 114.17 13.72C114.22 13.9 114.27 14.09 114.26 14.27C114.26 14.64 114.28 15.02 114.29 15.4C114.29 15.48 114.29 15.57 114.27 15.65C114.23 15.94 114.22 16.22 114.24 16.51C114.24 16.56 114.24 16.61 114.27 16.65C114.31 16.73 114.33 17.51 114.31 17.61C114.26 17.91 114.23 18.11 114.18 18.36C114.18 18.4 114.18 18.43 114.15 18.46C114.07 18.53 114.08 18.61 114.07 18.69C114.06 18.8 114.04 18.9 114.01 19.01C114 19.06 113.95 19.11 113.91 19.16C113.88 19.21 113.76 19.17 113.75 19.16C113.71 19.11 113.66 19.15 113.61 19.15C113.59 19.15 113.57 19.15 113.56 19.15C113.53 19.15 113.33 18.52 113.33 18.45C113.32 18.43 113.3 17.54 113.29 17.44C113.29 17.39 113.31 17.33 113.32 17.28C113.32 17.24 113.3 16.54 113.3 16.51C113.32 16.36 113.3 16.21 113.37 16.07C113.38 16.04 113.38 16.01 113.38 15.98C113.38 15.73 113.42 15.47 113.44 15.22C113.45 15.09 113.45 14.96 113.46 14.83C113.46 14.81 113.47 14.78 113.48 14.76C113.48 14.73 113.5 14.7 113.5 14.67C113.5 14.36 113.54 14.05 113.59 13.75C113.6 13.68 113.7 13.34 113.71 13.26C113.71 13.21 113.79 13.06 113.78 13.02L113.79 13.03Z" fill="#231F20"/>
<path d="M111.06 16.24C110.96 16.25 110.88 16.18 110.81 16.09C110.79 16.06 110.79 15.99 110.82 15.97C110.88 15.94 110.94 15.9 110.98 15.88C111.01 15.85 111.55 15.7 111.73 15.68C111.91 15.64 112.08 15.62 112.26 15.61C112.62 15.59 112.97 15.54 113.33 15.54C113.41 15.54 113.49 15.54 113.57 15.56C113.84 15.62 114.11 15.62 114.38 15.6C114.43 15.6 114.47 15.6 114.52 15.57C114.59 15.52 115.33 15.51 115.42 15.53C115.66 15.59 115.89 15.63 116.13 15.68C116.16 15.68 116.2 15.68 116.23 15.71C116.3 15.8 116.37 15.79 116.45 15.79C116.55 15.79 116.65 15.81 116.75 15.85C116.8 15.87 116.85 15.92 116.9 15.96C116.94 16 116.92 16.14 116.9 16.16C116.85 16.2 116.89 16.27 116.9 16.33C116.9 16.35 116.9 16.38 116.9 16.39C116.9 16.43 116.31 16.65 116.24 16.65C116.23 16.65 115.42 16.7 115.28 16.7C115.23 16.7 115.18 16.68 115.13 16.67C115.09 16.67 114.42 16.71 114.4 16.71C114.26 16.69 114.12 16.72 113.98 16.64C113.95 16.62 113.92 16.63 113.9 16.63C113.66 16.63 113.42 16.6 113.17 16.57C113.02 16.56 112.92 16.55 112.8 16.54C112.78 16.54 112.76 16.53 112.73 16.52C112.7 16.52 112.67 16.5 112.65 16.5C112.36 16.48 112.06 16.43 111.77 16.43C111.7 16.43 111.38 16.35 111.3 16.33C111.26 16.33 111.12 16.21 111.08 16.22L111.06 16.24Z" fill="#231F20"/>
<path d="M111.96 14.4C111.89 14.34 111.88 14.23 111.87 14.13C111.87 14.1 111.91 14.06 111.94 14.06C112.01 14.08 112.07 14.09 112.12 14.1C112.16 14.1 112.66 14.34 112.81 14.44C112.96 14.53 113.11 14.63 113.24 14.74L114.09 15.39C114.15 15.44 114.21 15.49 114.26 15.56C114.43 15.77 114.64 15.95 114.86 16.11C114.9 16.14 114.93 16.17 114.99 16.17C115.08 16.17 115.66 16.65 115.7 16.74C115.86 16.99 115.97 17.15 116.09 17.36C116.11 17.39 116.14 17.41 116.13 17.46C116.1 17.59 116.17 17.62 116.21 17.68C116.26 17.77 116.31 17.87 116.34 17.97C116.36 18.02 116.34 18.1 116.34 18.17C116.34 18.23 116.23 18.3 116.2 18.3C116.14 18.3 116.11 18.37 116.08 18.41C116.07 18.42 116.05 18.44 116.04 18.45C116.02 18.45 115.36 18.29 115.34 18.23C115.34 18.23 115.18 18.09 115.02 17.93C114.85 17.78 114.68 17.63 114.64 17.6C114.6 17.57 114.58 17.52 114.56 17.47C114.55 17.45 114.05 17.01 114.03 16.99C113.94 16.88 113.83 16.8 113.79 16.64C113.79 16.61 113.76 16.59 113.74 16.57C113.57 16.4 113.42 16.21 113.27 16.02C113.19 15.92 113.1 15.84 113.02 15.75C113 15.73 113 15.71 112.98 15.69C112.96 15.67 112.95 15.64 112.93 15.62C112.72 15.42 112.54 15.18 112.32 14.99C112.27 14.95 112.09 14.67 112.04 14.61C112.01 14.58 111.97 14.41 111.94 14.38L111.96 14.4Z" fill="#231F20"/>
<path d="M112.25 18.3C112.21 18.4 112.07 18.39 111.91 18.33C111.86 18.31 111.75 18.21 111.76 18.17C111.76 18.1 111.76 18.02 111.78 17.96C111.82 17.86 112.02 17.4 112.11 17.21C112.2 17.05 112.31 16.91 112.43 16.77L113.15 15.93C113.2 15.87 113.27 15.81 113.34 15.77C113.58 15.61 113.77 15.41 113.94 15.19C113.97 15.15 114.01 15.12 114.01 15.06C114.01 14.96 114.52 14.39 114.61 14.34C114.87 14.18 115.05 14.07 115.26 13.94C115.29 13.92 115.31 13.88 115.36 13.89C115.49 13.91 115.53 13.85 115.59 13.8C115.67 13.73 115.76 13.67 115.86 13.62C115.91 13.6 115.99 13.6 116.06 13.6C116.13 13.6 116.23 13.73 116.23 13.75C116.23 13.82 116.32 13.85 116.37 13.89C116.39 13.9 116.41 13.92 116.42 13.94C116.45 13.97 116.25 14.61 116.2 14.66C116.2 14.67 115.69 15.34 115.6 15.46C115.57 15.5 115.51 15.52 115.47 15.55C115.44 15.58 115.01 16.12 114.99 16.14C114.88 16.23 114.8 16.36 114.63 16.4C114.6 16.4 114.58 16.43 114.56 16.45C114.39 16.64 114.19 16.79 113.99 16.95C113.89 17.03 113.81 17.13 113.72 17.22C113.7 17.24 113.68 17.24 113.66 17.26C113.63 17.28 113.6 17.29 113.58 17.31C113.37 17.53 113.12 17.71 112.94 17.95C112.91 18.02 112.55 18.14 112.5 18.2C112.47 18.23 112.26 18.24 112.25 18.28V18.3Z" fill="#231F20"/>
<path d="M56.4702 21.03C56.4702 20.92 56.5102 20.83 56.5602 20.75C56.5802 20.72 56.6202 20.73 56.6302 20.75C56.6502 20.82 56.6702 20.88 56.6802 20.93C56.6802 20.97 56.7902 21.56 56.8502 21.76C56.9002 21.95 56.9502 22.15 56.9402 22.34C56.9402 22.73 56.9602 23.13 56.9702 23.53C56.9702 23.62 56.9702 23.71 56.9502 23.79C56.9102 24.09 56.9002 24.39 56.9202 24.69C56.9202 24.74 56.9202 24.79 56.9502 24.84C56.9902 24.92 57.0102 25.74 56.9902 25.85C56.9402 26.16 56.9102 26.38 56.8602 26.64C56.8602 26.68 56.8602 26.72 56.8302 26.75C56.7502 26.83 56.7602 26.91 56.7502 26.99C56.7402 27.1 56.7202 27.21 56.6902 27.33C56.6802 27.39 56.6302 27.44 56.5902 27.49C56.5602 27.54 56.4402 27.5 56.4302 27.49C56.3902 27.44 56.3402 27.48 56.2902 27.48C56.2702 27.48 56.2502 27.48 56.2402 27.48C56.2102 27.48 56.0102 26.82 56.0102 26.75C56.0002 26.73 55.9902 25.79 55.9702 25.69C55.9702 25.63 55.9902 25.58 56.0002 25.52C56.0002 25.47 55.9802 24.74 55.9802 24.71C56.0002 24.55 55.9802 24.4 56.0502 24.25C56.0602 24.22 56.0602 24.19 56.0602 24.16C56.0602 23.89 56.1002 23.63 56.1302 23.36C56.1402 23.22 56.1402 23.09 56.1502 22.95C56.1502 22.93 56.1602 22.9 56.1702 22.88C56.1702 22.85 56.1902 22.82 56.1902 22.79C56.1902 22.47 56.2302 22.14 56.2802 21.82C56.2902 21.75 56.3902 21.39 56.4002 21.3C56.4002 21.25 56.4802 21.09 56.4702 21.05V21.03Z" fill="#231F20"/>
<path d="M53.5899 24.39C53.4899 24.4 53.4099 24.33 53.3299 24.24C53.3099 24.21 53.3099 24.14 53.3399 24.12C53.4099 24.09 53.4699 24.05 53.5099 24.03C53.5499 24 54.1099 23.85 54.2999 23.83C54.4799 23.79 54.6699 23.77 54.8499 23.76C55.2199 23.74 55.5999 23.69 55.9699 23.69C56.0499 23.69 56.1399 23.69 56.2199 23.71C56.4999 23.77 56.7899 23.77 57.0699 23.75C57.1199 23.75 57.1699 23.75 57.2099 23.72C57.2899 23.67 58.0599 23.66 58.1599 23.68C58.4099 23.74 58.6599 23.78 58.8999 23.83C58.9399 23.83 58.9699 23.83 59.0099 23.86C59.0799 23.95 59.1599 23.94 59.2399 23.94C59.3499 23.94 59.4499 23.96 59.5599 24C59.6099 24.02 59.6599 24.07 59.7099 24.11C59.7599 24.15 59.7299 24.29 59.7099 24.31C59.6599 24.35 59.6999 24.42 59.7099 24.48C59.7099 24.5 59.7099 24.53 59.7099 24.54C59.7099 24.58 59.0899 24.8 59.0199 24.8C59.0099 24.8 58.1499 24.85 58.0099 24.85C57.9599 24.85 57.8999 24.83 57.8499 24.82C57.8099 24.82 57.0999 24.86 57.0799 24.86C56.9299 24.84 56.7799 24.87 56.6399 24.79C56.6099 24.77 56.5799 24.78 56.5499 24.78C56.2899 24.78 56.0399 24.75 55.7899 24.72C55.6399 24.71 55.5299 24.7 55.3999 24.69C55.3799 24.69 55.3499 24.68 55.3299 24.67C55.2999 24.67 55.2699 24.65 55.2399 24.65C54.9299 24.63 54.6199 24.58 54.3199 24.58C54.2499 24.58 53.9099 24.5 53.8299 24.48C53.7799 24.48 53.6399 24.36 53.5999 24.37L53.5899 24.39Z" fill="#231F20"/>
<path d="M54.5302 22.46C54.4502 22.4 54.4402 22.28 54.4302 22.18C54.4302 22.15 54.4702 22.11 54.5002 22.11C54.5702 22.13 54.6402 22.15 54.6902 22.16C54.7402 22.16 55.2502 22.42 55.4102 22.53C55.5702 22.62 55.7202 22.73 55.8602 22.85L56.7502 23.54C56.8202 23.59 56.8702 23.65 56.9302 23.71C57.1102 23.93 57.3302 24.12 57.5602 24.29C57.6002 24.32 57.6302 24.35 57.6902 24.36C57.7902 24.36 58.3902 24.87 58.4302 24.97C58.6002 25.23 58.7102 25.4 58.8502 25.61C58.8702 25.64 58.9102 25.66 58.9002 25.71C58.8702 25.84 58.9402 25.88 58.9902 25.94C59.0502 26.04 59.0902 26.14 59.1302 26.24C59.1502 26.29 59.1302 26.37 59.1402 26.44C59.1402 26.5 59.0302 26.57 59.0002 26.57C58.9402 26.57 58.9102 26.64 58.8802 26.68C58.8702 26.69 58.8502 26.71 58.8402 26.72C58.8202 26.72 58.1402 26.54 58.1202 26.47C58.1202 26.47 57.9502 26.32 57.7802 26.16C57.6102 26 57.4202 25.84 57.3802 25.81C57.3402 25.78 57.3202 25.72 57.2902 25.68C57.2802 25.66 56.7502 25.19 56.7302 25.17C56.6402 25.05 56.5202 24.97 56.4702 24.81C56.4702 24.78 56.4402 24.76 56.4202 24.74C56.2402 24.57 56.0902 24.36 55.9202 24.17C55.8402 24.07 55.7402 23.98 55.6502 23.89C55.6302 23.87 55.6202 23.85 55.6102 23.83C55.5902 23.8 55.5802 23.78 55.5602 23.76C55.3402 23.55 55.1502 23.3 54.9202 23.1C54.8702 23.06 54.6802 22.76 54.6202 22.7C54.5902 22.67 54.5502 22.49 54.5202 22.47L54.5302 22.46Z" fill="#231F20"/>
<path d="M54.82 26.56C54.77 26.66 54.64 26.65 54.47 26.6C54.42 26.58 54.31 26.48 54.32 26.44C54.32 26.37 54.33 26.29 54.34 26.22C54.39 26.12 54.6 25.64 54.69 25.44C54.79 25.27 54.91 25.12 55.03 24.98L55.79 24.1C55.85 24.04 55.91 23.98 55.99 23.93C56.24 23.76 56.44 23.55 56.62 23.31C56.65 23.27 56.69 23.24 56.69 23.18C56.69 23.08 57.23 22.48 57.32 22.42C57.59 22.25 57.77 22.13 58 22C58.03 21.98 58.05 21.94 58.11 21.95C58.25 21.97 58.29 21.9 58.35 21.85C58.44 21.78 58.53 21.71 58.63 21.66C58.68 21.63 58.77 21.64 58.84 21.63C58.91 21.63 59.01 21.76 59.01 21.78C59.01 21.85 59.1 21.88 59.15 21.92C59.17 21.93 59.19 21.95 59.2 21.97C59.23 22 59.01 22.66 58.96 22.71C58.96 22.72 58.41 23.43 58.32 23.55C58.29 23.6 58.23 23.62 58.18 23.65C58.15 23.69 57.69 24.25 57.68 24.27C57.56 24.37 57.48 24.51 57.3 24.55C57.27 24.55 57.25 24.58 57.23 24.61C57.05 24.81 56.84 24.97 56.64 25.14C56.54 25.23 56.45 25.33 56.35 25.43C56.33 25.45 56.31 25.45 56.28 25.47C56.25 25.49 56.22 25.5 56.2 25.52C55.98 25.75 55.72 25.95 55.52 26.2C55.49 26.27 55.12 26.4 55.06 26.47C55.02 26.5 54.81 26.52 54.8 26.56H54.82Z" fill="#231F20"/>
<path d="M118.27 41.42C118.26 41.27 118.32 41.15 118.38 41.03C118.4 40.99 118.46 41 118.48 41.04C118.51 41.13 118.54 41.23 118.56 41.29C118.57 41.34 118.75 42.16 118.84 42.44C118.92 42.71 119 42.98 118.99 43.25L119.06 44.91C119.06 45.03 119.06 45.16 119.04 45.28C118.98 45.7 118.98 46.12 118.99 46.54C118.99 46.61 118.99 46.68 119.02 46.75C119.08 46.86 119.08 48.01 119.05 48.15C118.97 48.57 118.91 48.88 118.84 49.24C118.83 49.29 118.84 49.35 118.79 49.39C118.67 49.49 118.68 49.61 118.67 49.72C118.65 49.88 118.62 50.03 118.57 50.19C118.55 50.27 118.48 50.34 118.43 50.41C118.38 50.48 118.22 50.43 118.21 50.41C118.16 50.34 118.08 50.39 118.02 50.39C118 50.39 117.97 50.39 117.95 50.39C117.91 50.39 117.66 49.47 117.66 49.37C117.64 49.34 117.66 48.03 117.65 47.88C117.65 47.8 117.67 47.72 117.7 47.65C117.7 47.59 117.7 46.56 117.7 46.52C117.72 46.3 117.7 46.09 117.8 45.87C117.82 45.83 117.82 45.78 117.82 45.74C117.82 45.37 117.87 45 117.91 44.62C117.93 44.43 117.92 44.24 117.93 44.05C117.93 44.02 117.94 43.98 117.95 43.95C117.95 43.91 117.97 43.86 117.97 43.82C117.97 43.37 118 42.92 118.06 42.46C118.07 42.36 118.2 41.86 118.2 41.74C118.2 41.67 118.3 41.45 118.29 41.39L118.27 41.42Z" fill="#231F20"/>
<path d="M114.24 46.11C114.1 46.13 113.98 46.02 113.88 45.9C113.85 45.86 113.85 45.76 113.9 45.73C113.99 45.68 114.08 45.64 114.14 45.6C114.2 45.58 114.39 45.52 114.61 45.45C114.85 45.39 115.11 45.36 115.24 45.32C115.5 45.27 115.75 45.24 116.01 45.23C116.53 45.2 117.06 45.14 117.58 45.13C117.7 45.13 117.81 45.13 117.93 45.16C118.33 45.24 118.72 45.24 119.12 45.21C119.19 45.21 119.25 45.21 119.32 45.17C119.43 45.1 120.51 45.08 120.64 45.12C120.99 45.2 121.33 45.26 121.68 45.33C121.73 45.34 121.78 45.33 121.83 45.38C121.93 45.51 122.04 45.49 122.15 45.5C122.3 45.51 122.45 45.53 122.6 45.58C122.67 45.6 122.74 45.68 122.82 45.74C122.88 45.8 122.85 46 122.82 46.02C122.75 46.08 122.8 46.18 122.81 46.26C122.81 46.29 122.81 46.32 122.81 46.35C122.81 46.4 121.94 46.72 121.85 46.71C121.83 46.71 120.62 46.78 120.43 46.79C120.36 46.79 120.28 46.77 120.21 46.75C120.16 46.75 119.17 46.8 119.13 46.8C118.92 46.78 118.72 46.82 118.51 46.7C118.47 46.68 118.43 46.68 118.39 46.68C118.03 46.68 117.68 46.63 117.32 46.59C117.14 46.57 116.96 46.56 116.78 46.55C116.75 46.55 116.71 46.53 116.68 46.52C116.64 46.51 116.6 46.49 116.56 46.49C116.13 46.47 115.7 46.39 115.27 46.4C115.17 46.4 114.7 46.29 114.59 46.26C114.53 46.25 114.32 46.09 114.26 46.11H114.24Z" fill="#231F20"/>
<path d="M115.56 43.41C115.45 43.32 115.44 43.17 115.43 43.02C115.43 42.97 115.49 42.92 115.53 42.93C115.63 42.96 115.72 42.98 115.79 43C115.85 43 116.58 43.36 116.79 43.51C117.02 43.64 117.22 43.79 117.42 43.95L118.66 44.91C118.75 44.98 118.83 45.06 118.91 45.15C119.16 45.46 119.46 45.72 119.79 45.96C119.84 46 119.89 46.05 119.97 46.06C120.11 46.06 120.94 46.77 121.01 46.9C121.2 47.21 121.41 47.5 121.6 47.8C121.63 47.84 121.68 47.87 121.67 47.94C121.63 48.12 121.73 48.18 121.79 48.26C121.87 48.39 121.94 48.53 121.99 48.69C122.02 48.76 122 48.88 122 48.97C122 49.06 121.84 49.15 121.81 49.15C121.72 49.15 121.69 49.24 121.64 49.3C121.62 49.32 121.6 49.34 121.58 49.36C121.55 49.37 120.6 49.11 120.57 49.02C120.57 49.02 120.34 48.8 120.09 48.58C119.85 48.36 119.59 48.14 119.54 48.1C119.48 48.06 119.45 47.98 119.42 47.91C119.4 47.88 118.67 47.23 118.65 47.2C118.52 47.04 118.35 46.92 118.29 46.69C118.28 46.65 118.25 46.62 118.22 46.59C117.97 46.35 117.75 46.06 117.53 45.79C117.41 45.65 117.28 45.53 117.16 45.4C117.14 45.38 117.12 45.34 117.11 45.31C117.09 45.27 117.07 45.24 117.04 45.21C116.74 44.91 116.47 44.57 116.15 44.29C116.07 44.23 115.81 43.82 115.74 43.73C115.69 43.69 115.64 43.44 115.6 43.4L115.56 43.41Z" fill="#231F20"/>
<path d="M115.97 49.13C115.9 49.27 115.71 49.26 115.48 49.19C115.41 49.17 115.26 49.03 115.27 48.97C115.27 48.87 115.29 48.76 115.3 48.66C115.36 48.53 115.67 47.84 115.79 47.57C115.92 47.33 116.09 47.13 116.27 46.93L117.33 45.7C117.41 45.61 117.5 45.53 117.6 45.46C117.95 45.23 118.23 44.93 118.49 44.6C118.53 44.55 118.59 44.5 118.59 44.41C118.59 44.27 119.34 43.43 119.47 43.36C119.84 43.13 120.1 42.96 120.41 42.77C120.46 42.74 120.48 42.69 120.56 42.7C120.75 42.73 120.81 42.63 120.9 42.56C121.02 42.46 121.15 42.37 121.29 42.29C121.36 42.25 121.48 42.26 121.58 42.25C121.67 42.25 121.82 42.43 121.82 42.46C121.82 42.56 121.94 42.59 122.02 42.66C122.05 42.68 122.08 42.71 122.1 42.73C122.14 42.77 121.83 43.7 121.77 43.77C121.76 43.79 121 44.79 120.88 44.94C120.84 45 120.76 45.03 120.68 45.07C120.65 45.09 120.01 45.91 119.98 45.93C119.82 46.07 119.7 46.26 119.46 46.32C119.41 46.33 119.39 46.37 119.36 46.4C119.12 46.67 118.82 46.9 118.53 47.14C118.38 47.26 118.26 47.41 118.13 47.54C118.11 47.56 118.07 47.57 118.04 47.59C118 47.61 117.96 47.63 117.93 47.66C117.63 47.98 117.26 48.25 116.99 48.61C116.94 48.71 116.42 48.89 116.35 48.99C116.3 49.03 116.01 49.06 115.98 49.11L115.97 49.13Z" fill="#231F20"/>
</svg>
