<svg width="128" height="128" viewBox="0 0 128 128" fill="none" xmlns="http://www.w3.org/2000/svg">
<path d="M33.0099 36.47C31.6199 36.26 25.0399 44.21 20.7099 53.96C15.9899 64.59 13.3099 88.17 30.6799 104.41C49.1599 121.69 77.9999 121.01 94.3399 105.77C94.3399 105.77 95.6199 104.41 98.0599 101.78C100.51 99.14 88.6399 108.45 81.2499 110.25C73.8599 112.06 71.7099 115.14 59.0999 112.68C46.6099 110.24 32.4499 105.86 24.5099 86.3C16.5699 66.74 21.5299 57.55 23.0699 53.5C24.6099 49.45 33.0099 36.48 33.0099 36.48V36.47Z" fill="#231F20"/>
<path d="M33.2199 101.58C22.6599 91.35 17.6999 76.06 19.7699 61.66L20.0599 59.69L20.4599 57.74C20.6999 56.43 21.1099 55.17 21.4499 53.89C22.2599 51.37 23.1799 48.87 24.4099 46.52C28.5799 38.17 35.2899 31.06 43.4999 26.61C51.6899 22.09 61.2499 20.42 70.4599 21.39C74.5599 21.83 78.5699 22.92 82.3999 24.42L85.2299 25.65L87.9399 27.11C88.8599 27.56 89.6799 28.2 90.5499 28.74L91.8299 29.58C92.2399 29.88 92.6399 30.21 93.0399 30.52C97.1999 33.71 100.83 37.64 103.6 42.13L104.62 43.82C104.95 44.39 105.2 45 105.49 45.59L106.33 47.38C106.6 47.98 106.79 48.61 107.02 49.23L107.67 51.09C107.86 51.72 107.97 52.37 108.12 53.01L108.54 54.93C108.66 55.57 108.72 56.23 108.79 56.88C109.1 60.13 108.73 59.68 107.76 57.12C106.82 54.55 104.91 50.03 102.07 45.16C97.1299 36.43 88.9099 29.64 79.4299 26.32C74.6999 24.62 69.6599 23.81 64.5999 23.87C59.5299 23.95 54.4499 24.81 49.6899 26.67C46.8299 27.72 44.0799 29.18 41.5099 30.93C38.9499 32.69 36.4999 34.67 34.3599 36.98C30.0499 41.56 26.6699 47.08 24.5799 53.01C22.2299 59.51 21.3399 66.56 22.1599 73.45C22.5499 76.89 23.3499 80.29 24.5199 83.56C25.6899 86.83 27.3099 89.94 29.1799 92.87C31.5199 96.45 34.4299 99.64 37.8099 102.29C39.4699 103.65 41.2799 104.8 43.1199 105.9C44.9999 106.92 46.9199 107.9 48.9299 108.65C61.0299 113.39 75.2599 112.96 86.8199 107.11C89.0699 105.99 91.1699 104.62 93.1499 103.13C95.1199 101.62 96.8999 99.89 98.5599 98.07C101.8 94.36 104.29 90.04 106.03 85.44C106.78 83.4 107.41 81.37 107.9 79.24C108.15 78.26 108.31 77.34 108.5 76.51C108.65 75.67 108.78 74.91 108.91 74.21C109.14 72.81 109.33 71.69 109.48 70.76C109.66 69.83 109.76 69.09 109.93 68.48C110.11 67.87 110.27 67.38 110.45 66.94C110.62 66.54 110.78 66.01 110.93 65.77C111.18 65.37 111.4 66.02 111.62 67.55C111.81 69.08 111.88 71.52 111.51 74.62C111.2 76.91 110.77 79.21 110.17 81.48C109.55 83.75 108.79 86 107.86 88.2C106.9 90.39 105.78 92.53 104.48 94.58C103.17 96.63 101.66 98.56 99.9899 100.36C93.2999 107.58 83.9199 112.22 74.1599 113.76C66.8999 114.92 59.3799 114.48 52.2899 112.44C45.2099 110.41 38.5399 106.76 33.1899 101.63L33.2199 101.57V101.58Z" fill="#231F20"/>
<path d="M76.5098 69.93C75.9598 66.92 76.1398 64.25 76.0898 62.02C69.5398 61.56 47.2598 58.79 47.2598 57.95C47.2698 57.43 68.4498 53.62 75.5698 51.21C75.1298 45.74 75.6398 43.18 75.6398 43.06C77.7098 44.3 90.1598 53.37 93.0998 54.81C94.0798 55.29 76.8098 71.57 76.5098 69.92V69.93Z" fill="#231F20"/>
<path d="M55.0198 91.64C55.5698 88.63 55.3898 85.96 55.4398 83.73C61.9898 83.27 84.2698 80.5 84.2698 79.66C84.2598 79.14 63.0798 75.33 55.9598 72.92C56.3998 67.45 55.8898 64.89 55.8898 64.77C53.8198 66.01 41.3698 75.08 38.4298 76.52C37.4498 77 54.7198 93.28 55.0198 91.63V91.64Z" fill="#231F20"/>
<path d="M86.3399 19.49C86.5099 19.55 86.4199 19.78 86.1799 20.11C86.0999 20.22 85.8099 20.44 85.7399 20.44C85.5999 20.43 85.4599 20.41 85.3399 20.38C85.2599 20.37 84.52 19.71 84.26 19.48C84 19.26 83.8199 19 83.6399 18.74C83.2999 18.2 82.9499 17.65 82.6399 17.09C82.5699 16.97 82.53 16.83 82.51 16.69C82.45 16.2 82.2399 15.77 82.0199 15.33C81.9799 15.26 81.97 15.18 81.86 15.13C81.67 15.06 81.24 13.83 81.26 13.65C81.3 13.2 81.2599 12.78 81.3099 12.34C81.3099 12.28 81.27 12.22 81.36 12.14C81.57 11.96 81.4999 11.84 81.4999 11.71C81.4799 11.53 81.5399 11.34 81.6399 11.14C81.6899 11.04 81.79 10.93 81.87 10.83C81.94 10.74 82.16 10.73 82.19 10.75C82.28 10.81 82.38 10.72 82.47 10.69C82.5 10.69 82.5399 10.67 82.5699 10.66C82.5999 10.66 82.86 10.85 83.19 11.03C83.48 11.22 83.6799 11.44 83.7099 11.49C83.7599 11.51 84.2999 12.79 84.3899 12.92C84.4399 12.99 84.4099 13.09 84.3899 13.18C84.3899 13.23 84.9099 14.21 84.9199 14.25C84.9699 14.47 85.12 14.66 84.98 14.95C84.95 15.01 84.9799 15.05 84.9999 15.09C85.1499 15.45 85.1899 15.85 85.2799 16.24C85.3199 16.44 85.4199 16.61 85.4899 16.8C85.4999 16.83 85.4899 16.88 85.4899 16.92C85.4899 16.97 85.4899 17.02 85.4999 17.06C85.6999 17.48 85.8 17.96 86.08 18.34C86.14 18.43 86.2099 18.98 86.3099 19.07C86.3499 19.12 86.2499 19.47 86.3199 19.49H86.3399Z" fill="#231F20"/>
<path d="M94.2701 23.22C94.2701 23.39 94.0301 23.34 93.6401 23.17C93.5101 23.11 93.2001 22.87 93.1701 22.8C93.1201 22.67 93.0801 22.54 93.0601 22.43C93.0601 22.36 93.3101 21.62 93.3801 21.35C93.4501 21.09 93.5701 20.87 93.7101 20.67C93.9901 20.25 94.2201 19.81 94.5301 19.44C94.6001 19.36 94.6801 19.29 94.7801 19.23C95.1301 19.04 95.3501 18.75 95.5301 18.44C95.5601 18.39 95.6101 18.35 95.5801 18.26C95.5501 18.12 96.0501 17.31 96.2001 17.26C96.5201 17.1 96.7801 16.88 97.0601 16.67C97.1001 16.64 97.1001 16.59 97.2001 16.59C97.4101 16.59 97.4401 16.5 97.5101 16.42C97.6001 16.31 97.7301 16.22 97.8601 16.14C97.9301 16.1 98.0401 16.08 98.1401 16.05C98.2301 16.02 98.3901 16.14 98.4001 16.17C98.4301 16.26 98.5401 16.26 98.6201 16.29C98.6501 16.3 98.6801 16.32 98.7001 16.33C98.7201 16.34 98.9001 17.38 98.8301 17.45C98.8301 17.45 98.7401 17.77 98.6401 18.1C98.5501 18.43 98.4401 18.77 98.4301 18.85C98.4101 18.93 98.3301 18.96 98.2601 19.01C98.2401 19.03 97.8301 19.98 97.8001 20.01C97.6601 20.17 97.6101 20.39 97.3401 20.44C97.2901 20.45 97.2701 20.49 97.2501 20.53C97.0701 20.83 96.8001 21.07 96.5601 21.31C96.4401 21.43 96.3501 21.59 96.2301 21.72C96.2101 21.74 96.1701 21.75 96.1301 21.76C96.0901 21.78 96.0401 21.79 96.0201 21.82C95.7601 22.14 95.4101 22.38 95.2001 22.73C95.1501 22.81 94.7001 23.02 94.6501 23.12C94.6201 23.17 94.2701 23.15 94.2701 23.22Z" fill="#231F20"/>
<path d="M97.19 26.72C97.06 26.82 96.94 26.62 96.82 26.25C96.78 26.13 96.78 25.77 96.82 25.72C96.89 25.61 96.96 25.51 97.04 25.43C97.09 25.39 97.81 25.12 98.05 24.99C98.28 24.88 98.52 24.82 98.75 24.78L100.12 24.5C100.22 24.48 100.32 24.48 100.42 24.5C100.78 24.58 101.11 24.5 101.42 24.36C101.47 24.34 101.53 24.33 101.56 24.24C101.6 24.1 102.47 23.76 102.63 23.79C102.98 23.83 103.32 23.8 103.67 23.79C103.72 23.79 103.76 23.74 103.83 23.81C104 23.96 104.09 23.91 104.19 23.9C104.34 23.88 104.49 23.87 104.65 23.9C104.73 23.9 104.84 23.99 104.93 24.04C105.02 24.09 105.09 24.35 105.08 24.39C105.05 24.49 105.15 24.59 105.2 24.69C105.22 24.72 105.24 24.77 105.25 24.8C105.26 24.84 104.75 25.74 104.66 25.78C104.66 25.78 104.39 25.95 104.1 26.12C103.82 26.29 103.51 26.48 103.46 26.52C103.4 26.57 103.31 26.55 103.23 26.55C103.21 26.56 102.25 27.02 102.2 27.02C101.98 27.05 101.78 27.18 101.52 27.04C101.47 27.01 101.43 27.04 101.39 27.04C101.02 27.14 100.64 27.12 100.27 27.11C100.08 27.11 99.9 27.15 99.72 27.16C99.69 27.16 99.65 27.14 99.62 27.13C99.58 27.12 99.53 27.09 99.49 27.1C99.06 27.12 98.63 27.03 98.22 27.09C98.12 27.1 97.66 26.9 97.55 26.93C97.49 26.93 97.28 26.68 97.22 26.72H97.19Z" fill="#231F20"/>
</svg>
