<?xml version="1.0" encoding="UTF-8"?><svg id="Layer_1" xmlns="http://www.w3.org/2000/svg" width="128" height="128" viewBox="0 0 128 128"><defs><style>.cls-1{fill:#231f20;stroke-width:0px;}</style></defs><path class="cls-1" d="M91.53,15.1c.19,0,.19-.12.11-.2-.03-.05-.08-.09-.15-.14-.02-.01-.02-.02-.07-.04l-.24-.1-.52-.22c-.53-.19-1.07-.33-1.62-.5-1.9-.65-3.9-1.1-5.9-1.48-.89-.15-1.8-.2-2.7-.22-1.15.04-2.26.07-3.46-.17-.38-.07-.36-.17-.09-.47.13-.15.33-.36.57-.61.12-.12.26-.27.42-.36.15-.08.32-.15.5-.19,1.26-.4,2.53-.32,3.79-.3,1.25.07,2.5.21,3.71.59,1.44.43,2.98.64,4.45,1.11.4.14.81.27,1.21.43l.6.25c.18.06.55.23.8.38l.84.44c.25.16.44.35.66.52.24.17.38.36.53.56.07.1.16.19.22.29l.11.33c0,.31-.14.46-.26.67-.16.19-.39.39-.7.58-.62.35-1.43.71-1.96,1-.31.16-.64.34-.89.5-.17.1-.35.22-.48.38-.15.18-.12.44.01.61.06.09.13.18.21.25.09.09.13.13.3.25.87.66,1.96,1.08,3.02,1.69.24.13.49.26.71.46.83.7,1.01,1.52.48,1.93-.12.09-.25.17-.38.2-.22.04-.43-.03-.61,0-.18.02-.34.02-.57-.09-.76-.27-1.66-.81-2.61-1.36-.47-.29-.96-.61-1.46-1.01l-.19-.16c-.09-.07-.21-.18-.3-.27-.19-.19-.39-.38-.54-.6-.33-.42-.55-.89-.61-1.38-.08-.44.03-.9.19-1.3.26-.57.78-1.04,1.34-1.44l.2-.14.13-.08.25-.16.5-.29.25-.13h0s.03,0,.03,0c.02,0,.04,0,.07-.01l.09.02Z"/><path class="cls-1" d="M73.32,54.19c3.35.85,5.73-1.55,4.88-4.66-.59-2.18-3.49-3.11-6.36-3.11,0,0,3.66-1.12,6.85.71,3.18,1.83,2.54,4.42,2.07,5.47s-3.22,2.29-4.09,2.43-3.35-.85-3.35-.85Z"/><path class="cls-1" d="M105.77,71.92c.04-1.63-.06-3.27-.25-4.9-.09-.59-.22-1.17-.31-1.77-.36-2.08-.87-4.14-1.54-6.17-.32-.89-.66-1.78-1.06-2.63l-.73-1.67c-.27-.54-.48-1.12-.69-1.7-.12-.37-.07-.34.2-.12.24.23.83.59,1.24,1.17,1.53,2.05,2.6,4.41,3.18,6.92.35,1.49.84,3.01,1.11,4.56.33,1.69.48,3.41.57,5.13.02,1.06.06,2.12,0,3.17l-.05,1.2-.13,1.19c-.07.8-.21,1.58-.31,2.37-.18,1.22-.31,2.43-.57,3.63-.06.26-.08.53-.16.79-.25.98-.57,1.22-.98,1.31-.1.02-.19.05-.27.06-.14,0-.23-.11-.3-.32-.07-.21-.14-.52-.08-.87.3-2.1.65-4.26.84-6.45.08-1.63.3-3.26.25-4.9h.04Z"/><path class="cls-1" d="M58.69,73.78l-.21,1.61-.3,1.6c-.08.39-.09.79-.18,1.17-.33,1.37-.73,2.72-1.21,4.05-.26.58-.42,1.19-.68,1.77-.14.38-.3.76-.52,1.12-.12.17-.23.35-.39.5-.15.15-.3.31-.56.36-.38.01-.3.02-.45-.35-.07-.19-.21-.46-.24-.67-.05-.22-.06-.42-.02-.63.48-1.29.8-2.69,1.4-4.11.34-.86.38-1.83.52-2.76.17-1.03.29-2.07.44-3.11.09-.64.17-1.29.23-1.94.09-.98.17-1.97.21-2.95.01-.76-.09-1.51-.13-2.27,0-.17-.03-.33-.03-.5.02-.62.19-.82.61-.95.09-.03.19-.07.27-.09.28-.06.6.19.76.65.43,1.36.62,2.79.7,4.25,0,1.08-.09,2.16-.16,3.25h-.06Z"/><path class="cls-1" d="M49.55,94.51c-.89.91-1.8,1.8-2.78,2.62-.36.29-.67.64-1.04.92-1.29,1-2.67,1.89-4.08,2.7-.64.34-1.27.69-1.92,1-.82.42-1.7.79-2.67.78-.3,0-.27-.08-.1-.32.12-.17.25-.34.35-.48.15-.18.34-.32.54-.47,1.53-.88,2.98-1.84,4.58-2.71.94-.55,1.77-1.32,2.61-2.05.92-.81,1.84-1.62,2.69-2.51.54-.53,1.04-1.1,1.54-1.67.74-.88,1.45-1.79,2.05-2.75.44-.76.78-1.56,1.09-2.37l.19-.53c.25-.65.43-.82.93-.79.11,0,.21,0,.3,0,.28.03.54.45.38,1-.38,1.64-1.21,3.22-2.22,4.63-.73,1.07-1.57,2.05-2.43,3.02l-.03-.03Z"/><path class="cls-1" d="M22.16,75.74s1.61-8.44,6.1-16.6c4.63-8.43,12.25-16.56,20.05-14.78,9.82,2.24,9.72,22.6,9.72,22.6l-24.04-7.81-4.54,11.99-2.32,6.43-4.97-1.82Z"/><path class="cls-1" d="M71.56,97.93l-.13-3.89-.02-.99v-.53s0-.17,0-.17v-.14s.03-.14.05-.23l.04-.14.03-.07c.06-.14.16-.36.45-.59.28-.25.83-.37,1.17-.28.35.08.53.22.64.31.2.18.36.42.39.49.06.12.11.22.13.28.2.58.21.87.27,1.25.05.36.08.7.11,1.03.08.98.2,1.94.22,2.89.07,3.37-.11,6.72-.23,10.06-.06,1.48-.12,2.97-.18,4.45-.04.95-.08,1.9-.17,2.85-.17.95-.38,1.89-.82,2.84-.09.14-.17.26-.3.32-.12.06-.15.03-.16,0,0-.05.11-.19.03-.45-.08-.51-.46-1.44-.67-2.51-.06-1.9-.12-3.79-.17-5.7,0-1.91.12-3.82.22-5.75.14-2.3-.07-4.7-.17-7.03-.03-.64-.07-1.28-.12-1.9-.03-.31-.06-.62-.1-.9-.02-.14-.04-.28-.07-.39l-.03-.12v-.02s.19-.07.27-.12c.1-.05.2-.11.29-.17.07-.03.13-.07.18-.12l.04-.04h0s.12-.14.12-.14h0s.02.03.03.02c.08.02.22.08.34.08.08,0,.33.02.54.04h.16s0,.01,0,.01h0s0,.05,0,.07v.22s-.02.47-.02.47v.97s.01,1.95.01,1.95c0,1.61.04,3.21.09,4.82.06,2.44.11,4.88.17,7.3.06,1.88.25,3.72.3,5.62.01.42.04.83.02,1.25-.1,1.57-.43,2.16-1.12,2.34-.15.04-.32.09-.46.07-.46-.11-.64-.57-.72-1.64-.21-3.17-.35-6.66-.46-10.14-.09-2.59-.13-5.2-.25-7.8h.06Z"/><path class="cls-1" d="M39.69,78.19c-.51.17-1.01.33-1.52.5-.18.06-.34.17-.53.23-.66.19-1.32.39-1.96.64-.28.11-.53.28-.78.43-.34.18-.61.45-1.07.44-.15-.02-.25-.2-.33-.5-.09-.32-.13-.73.03-.9.53-.65,1.24-1.04,2.02-1.29.47-.14.84-.49,1.27-.72.47-.26.97-.46,1.46-.68.3-.13.6-.27.9-.4.45-.21.92-.39,1.32-.67.32-.21.56-.55.82-.84.06-.06.1-.15.17-.2.23-.21.42-.08.81.48l.27.37c.27.42.4.89.27,1.14-.39.72-1.01,1.09-1.65,1.4-.48.23-.98.41-1.48.62l-.03-.05Z"/><path class="cls-1" d="M49.27,78.45c.19.48.38.96.59,1.44.08.17.21.31.27.5.22.65.45,1.31.66,1.95.12.28.24.55.36.83.07.18.15.35.21.54.08.18.03.41.03.62-.02.14-.14.17-.37.16-.2-.02-.61-.03-.79-.16-.27-.27-.56-.52-.77-.82-.18-.32-.33-.65-.44-1.02-.13-.44-.49-.78-.73-1.17-.24-.45-.48-.91-.73-1.37-.15-.29-.3-.57-.44-.86-.24-.43-.43-.88-.71-1.29-.21-.32-.55-.57-.83-.87-.06-.07-.14-.12-.19-.19-.16-.28,0-.47.54-.77l.37-.21c.42-.21.85-.26,1.11-.16.67.35.95.89,1.27,1.47.23.43.42.9.65,1.36l-.05.03Z"/><path class="cls-1" d="M32.4,105.71c-3.92,1.43-8.13,2.46-12.49,2.23-1.58-.11-3.19-.32-4.73-.85-.67-.27-1.33-.5-1.99-.92-.68-.33-1.25-.85-1.82-1.34-1.05-1.08-1.94-2.36-2.35-3.77-.98-2.8-.65-5.71.08-8.3.64-2.33,1.64-4.53,2.82-6.55.37-.66.74-1.32,1.19-1.92.44-.61.84-1.26,1.34-1.82.49-.57.94-1.17,1.48-1.69.57-.48,1.15-.97,1.73-1.45.74-.58.71-.42.4.35-.18.46-.4.99-.63,1.57-.14.32-.27.67-.43,1.02-.18.34-.38.68-.62,1.02-1.6,2.43-3.08,4.92-4.09,7.55-.99,2.62-1.58,5.4-1.27,8.02.18,1.57.88,3.07,2.04,4.12.32.23.59.51.93.71.36.18.68.39,1.06.55.4.14.79.31,1.19.44.41.1.81.24,1.23.33,3.68.8,7.7.22,11.48-.91,2.34-.71,4.63-1.64,6.85-2.72,3.36-1.64,6.61-3.6,9.6-5.84,2.31-1.75,4.39-3.71,6.33-5.77.42-.46.82-.92,1.23-1.39.77-.86,1.27-1.42,1.7-1.74.45-.32.8-.43,1.24-.43.2,0,.42-.04.59,0,.29.05.39.34.3.84-.09.5-.37,1.19-.91,1.93-3.2,4.4-7.59,7.97-12.28,11.06-3.5,2.28-7.25,4.23-11.2,5.76l-.03-.06Z"/><path class="cls-1" d="M94.08,44.16c.49.16.96.31,1.47.52.25.09.5.19.78.34l.41.2c.16.1.35.23.52.35.08.06.18.13.24.19l.13.14.26.28.52.55,1.04,1.11.52.55c.16.19.3.4.45.6l.9,1.21c.29.41.61.8.88,1.22l.76,1.3c2.03,3.45,3.43,7.2,4.35,11.02.62,2.8,1.16,5.61,1.36,8.46.15,2.51.18,5.02.01,7.53-.06.63-.09,1.25-.17,1.89l-.12.95-.09.53-.07.38-.13.34c-.11.21-.14.48-.33.64-.17.18-.39.3-.6.42-.2.14-.45.23-.67.32-.16.06-.32.12-.47.17-.62.21-1.23.38-1.83.54-4.83,1.24-9.65,2.12-14.5,2.99-4.3.75-8.62,1.53-12.9,2.18-5.5.81-11.04,1.75-16.65,1.59-1.75-.09-1.51-.23-.07-.66,1.44-.48,4.05-1.29,7.19-1.77,5.58-.75,11.14-1.75,16.72-2.68,5.57-.97,11.16-1.97,16.69-3.17,1.64-.36,3.34-.77,4.85-1.3l.18-.07.09-.04c.06-.03.14-.05.15-.12.02-.06.03-.13.05-.2.01-.08.06-.35.08-.54.1-.83.15-1.68.19-2.53.13-3.42-.1-6.89-.55-10.27-.52-3.72-1.41-7.38-2.81-10.85-1.43-3.45-3.4-6.66-5.92-9.36l-1.18-1.24c-.11-.13-.18-.17-.24-.2-.05-.04-.12-.1-.25-.15-.22-.11-.44-.22-.71-.31-1.03-.39-2.15-.71-3.28-1-2.26-.58-4.56-1.06-6.87-1.49-7.01-1.3-14.13-2.31-21.19-2.98-5.49-.5-10.9-.71-16.32-.71-1.19.02-2.36.05-3.56.07-2.22.04-3.67.09-4.7.03-1.03-.08-1.64-.26-2.15-.55-.24-.13-.54-.25-.69-.39-.25-.23.06-.5.87-.83.8-.33,2.1-.63,3.77-.78,4.96-.44,10.04-.37,15.16-.11,5.12.27,10.3.77,15.46,1.41,3.84.48,7.67,1.04,11.5,1.7,3.84.69,7.63,1.38,11.51,2.52v.07Z"/><path class="cls-1" d="M41.07,62.44c-1.1-.33-2.21-.64-3.32-.93l-1.67-.42-.83-.19c-.19-.04-.13-.04-.19-.05l-.1-.03s-.1-.03-.15-.03c-.05,0-.06.07-.09.1-.02.05-.05.1-.07.15l-.17.33c-1.27,2.55-2.43,5.36-3.54,8.13-.49,1.23-.9,2.5-1.34,3.75-.58,1.59-1.06,3.24-1.99,4.71-.29.46-.6.25-.84-.32-.23-.57-.46-1.52-.19-2.45.86-3.32,1.97-6.57,3.35-9.79.42-.96.78-1.97,1.14-2.99.18-.51.36-1.03.57-1.55.1-.26.21-.52.33-.78l.25-.54c.1-.2.22-.37.33-.56.11-.17.21-.35.32-.51l.46-.4.06-.05h.01s0-.01,0-.01c-.05-.11.07.15.06.12h0s0,0,0,0h.03s.14-.05.14-.05l.28-.07c.18-.07.4-.06.62-.04.21,0,.44.07.66.11.52.11.7.16.99.23l.82.21,3.24.88,4.18,1.21c2.11.63,4.2,1.34,6.28,2.02,1.62.53,3.25.94,4.87,1.57.36.14.72.26,1.07.43,1.31.65,1.63,1.16,1.42,1.92-.05.18-.08.36-.16.51-.28.52-.94.56-1.79.24-2.6-.93-5.52-1.86-8.45-2.8-2.19-.68-4.4-1.37-6.64-1.97v-.07Z"/><path class="cls-1" d="M48.78,76.61l-2.19.7-1.19.37-.96.24c-.31.06-.59.01-.88.02-.23.09-.37-.14-.54-.25-.17-.14-.33-.32-.49-.48-.18-.16-.29-.35-.43-.53-.13-.17-.3-.4-.35-.49-1.06-1.67-2.06-3.36-3.04-5.07-.43-.76-.96-1.46-1.41-2.19-.58-.95-1.27-1.82-1.56-2.97-.11-.35-.03-.34.29-.21.23.09.47.18.68.26.14.06.3.11.44.19.13.09.25.19.36.3,1.65,1.58,3.05,3.33,4.24,5.27.33.6.73,1.16,1.15,1.71l.64.82.32.41.14.2.11.18s.07.15.14.12c.13-.02.25-.05.42-.09l2.15-.74,2.65-.95c1.33-.5,2.69-.97,3.98-1.55,1-.45,1.92-1.05,2.88-1.59.21-.12.41-.26.62-.37.81-.39,1.14-.32,1.62.34.11.15.23.29.31.44.29.5.16,1.14-.38,1.54-1.6,1.21-3.47,2.04-5.38,2.8-1.42.57-2.87,1.08-4.32,1.61l-.03-.06Z"/><path class="cls-1" d="M57.1,74.67c.58-6.58.24-13.37-1.64-19.68-.69-2.3-1.68-4.48-2.89-6.48-2.09-3.53-5.3-6.41-9.3-7.2-.49-.07-1.02-.21-1.47-.22-.23,0-.46-.04-.69-.02l-.7.07c-.93.16-1.86.5-2.75.96-1.76.99-3.38,2.37-4.82,3.93-2.56,2.78-4.64,6.07-6.39,9.44-2.19,4.35-4.12,8.94-5.24,13.58-.41,1.41-.42,1.33-.84-.05-.2-.69-.26-1.69-.2-2.87.04-1.19.26-2.55.73-3.95,1.59-4.96,3.93-9.63,6.93-13.94,1.5-2.15,3.2-4.2,5.24-6.01,1.04-.89,2.16-1.7,3.42-2.37,1.26-.66,2.69-1.14,4.2-1.23.45-.06.91,0,1.36.01.46.02.84.13,1.26.19.41.06.83.15,1.23.28.4.12.82.21,1.21.36,1.61.55,3.1,1.42,4.44,2.44,1.35,1.02,2.5,2.27,3.5,3.6,1.01,1.32,1.83,2.76,2.52,4.23,1.53,3.24,2.44,6.68,3.03,10.14.58,3.46.81,6.97.75,10.46-.08,4.29-.56,8.58-1.57,12.77-.12.56-.28,1.11-.43,1.66-.08.28-.14.55-.24.83l-.35,1.09-.29.61c-.1.18-.31.32-.52.38-.42.15-.9.13-1.38.1-.22-.02-.51-.06-.67-.09l-.51-.09-1-.22c-1.32-.31-2.6-.67-3.87-1.05-2.55-.75-5.06-1.56-7.55-2.37-4.71-1.49-9.34-2.96-14-4.44-1.02-.33-2.03-.65-3.06-.98-3.81-1.3-4.95-1.9-5.51-2.89-.13-.23-.32-.47-.37-.67-.17-.67,1.53-.58,4.36.25,8.39,2.44,17.07,5.51,25.81,8.19,1.42.43,2.85.84,4.25,1.19l1.04.24.51.1.4.07s.02.01.03,0h0s0,0,0,0c0,0,0,0,0,0l.03-.08c.07-.22.14-.44.2-.66l.36-1.34c.22-.9.43-1.81.6-2.73.34-1.83.6-3.69.77-5.56h.07Z"/><path class="cls-1" d="M77.26,8.98c.65-.17.95-.17,1.31-.21.36-.03.7-.04,1.04-.04.68,0,1.33.02,1.97.07,1.29.1,2.54.27,3.77.47,2.48.41,4.9.96,7.31,1.62.88.25,1.76.49,2.64.78.54.17,1.4.48,2.02.8.66.32,1.25.67,1.6,1.07.29.31.47.6.57.99.02.1.04.22.02.33-.01.11-.05.15-.07.22-.06.12-.12.25-.23.38-.24.23-.44.52-.85.77-.45.24-.98.46-1.47.68l-1.37.6c-.28.12-.56.26-.83.39l-.41.2-.18.08-.29.14c-.1.05-.2.1-.3.17-.08.05-.25.17-.13.25.21.16.45.3.71.46l2.21,1.2c1.06.57,2.16,1.16,2.9,1.73.34.28.6.55.77.8.09.12.17.24.25.37.06.13.17.24.11.47-.41.34-.81.64-1.65.84-.79.21-1.84.31-2.87.39-1.55.08-3.1.17-4.64.25-1.76.11-3.52.25-5.25.41-1.73.18-3.43.41-5.13.68-1.07.15-1.06-.12-.31-.87.37-.4.97-.82,1.72-1.3.77-.42,1.72-.75,2.77-.94,1.86-.33,3.71-.52,5.54-.58l2.73-.1.67-.02h.34c.06-.01.02,0,.04,0,.01,0,.03.01.06.02.05.03.52.06.36-.07-.03-.05-.1-.13-.22-.23,0,0-.06-.04-.09-.06-.04-.02-.06-.04-.18-.11l-.6-.34-1.66-.93c-.44-.26-.89-.52-1.21-.81-.29-.3-.43-.6-.62-.88-.12-.77.26-1.34,1.07-1.93.4-.28.86-.54,1.33-.78.22-.11.49-.26.68-.34l.43-.21c.6-.28,1.2-.56,1.79-.85.06-.06.27-.08.19-.2-.06-.09-.16-.14-.26-.2-.19-.1-.39-.18-.6-.26l-.18-.07-.39-.13-.85-.27c-.57-.17-1.15-.34-1.73-.49-1.16-.31-2.34-.59-3.52-.84-2.36-.49-4.76-.89-7.12-1.02-.72-.04-1.44-.04-2.13.01-.17.01-.34.03-.5.06-.11.02-.18.03-.28.05-.16.05-.4.07-.43.28-.05.2-.08.31-.14.66l-.17,1.1-.28,2.23c-.5,4.53-.88,9.11-1.05,13.65-.13,3.52-.06,6.99.04,10.46.03.76.07,1.51.1,2.28.12,2.84-.06,3.73-.61,4.4-.13.15-.26.35-.39.44-.43.33-.99-.82-1.3-2.96-.69-6.32-.53-12.96-.18-19.6.14-2.47.3-4.94.52-7.41.11-1.24.23-2.48.38-3.73l.12-.95.07-.48.15-.83c.06-.27.17-.55.28-.81l.25-.31.13-.16.03-.04h0s0-.01,0-.01c-.13-.12-.03-.04-.06-.06l.02-.02.08-.07c.41-.37.97-.58,1.54-.74l.03.06Z"/><path class="cls-1" d="M77.97,53.44c.24-.08.37-.27.58-.38.12-.19.34-.32.43-.55.27-.4.42-.98.44-1.48.04-.39-.09-.74-.2-1.12-.35-1.35-1.81-2.64-3.45-2.82-.84-.08-1.68.01-2.47.19-1.04.22-1.91.7-2.96,1.11-.32.14-.42-.02-.37-.43.02-.21.09-.48.21-.8.12-.32.32-.64.63-.86,1.08-.81,2.4-1.34,3.7-1.47.67-.07,1.22-.12,2.06-.04.76.11,1.47.37,2.1.74.74.46,1.44.99,2.05,1.65.6.66,1.11,1.46,1.35,2.36.28.98.25,2.04-.02,2.98-.1.47-.36.93-.56,1.37-.26.42-.56.84-.91,1.18-.86.89-2.01,1.35-3.1,1.57-1.68.32-3.36.05-4.87-.58-1.17-.46-2.35-1.08-3.26-2.12-.22-.21-.39-.45-.55-.72-.33-.48-.28-.91-.22-1.19.07-.29.24-.48.52-.66.13-.08.24-.17.37-.23.41-.18.95.07,1.4.44.68.53,1.16,1,1.82,1.37.64.38,1.38.63,2.13.78.56.14,1.13.12,1.68.1.52-.1,1.06-.19,1.42-.46l.04.06Z"/><path class="cls-1" d="M109.86,16.14c-.1.16-.32.03-.6-.26-.09-.09-.25-.43-.23-.5.03-.14.07-.27.12-.39.03-.06.73-.71.95-.96.22-.24.46-.41.71-.58.51-.35,1.04-.64,1.55-.96.12-.07.24-.12.38-.14.47-.08.88-.3,1.27-.57.06-.04.14-.07.17-.18.04-.19,1.13-.82,1.31-.83.43-.03.82-.16,1.26-.19.06,0,.1-.06.2.01.22.18.32.08.44.05.17-.05.34-.09.54-.09.09,0,.24.1.37.16.12.06.24.41.24.46-.02.14.12.27.19.4.03.05.06.11.07.14.04.1-.55,1.14-.65,1.19-.01.04-1.24.83-1.38.93-.07.06-.17.04-.27.04-.04,0-1.02.65-1.06.66-.23.07-.41.25-.73.16-.06-.02-.1.01-.14.04-.36.2-.78.29-1.18.42-.2.06-.39.17-.58.26-.04.02-.08,0-.12,0-.05,0-.11,0-.15.02-.45.22-.97.31-1.4.57-.1.06-.7.09-.81.16-.06.04-.41-.11-.45-.04Z"/><path class="cls-1" d="M105.89,21.24c-.17-.06-.17-.27-.09-.55.03-.09.2-.27.26-.27.12,0,.24,0,.35.03.06.02.92.44,1.24.56.3.12.57.27.83.44.54.32,1.06.67,1.56,1.04.11.08.21.18.29.29.28.39.65.69,1.06.94.07.04.12.1.24.09.09-.01.4.17.69.38.28.22.54.47.59.55.21.39.46.73.68,1.1.03.05.1.07.07.18-.06.26.06.31.14.41.12.14.22.28.3.46.04.09.02.24.02.37,0,.12-.25.34-.3.35-.13.03-.18.19-.27.3-.03.04-.07.09-.09.11-.06.05-1.22-.16-1.31-.23-.01,0-.33-.22-.66-.44-.33-.22-.68-.45-.75-.49-.08-.04-.11-.14-.16-.22-.04-.02-1-.73-1.03-.76-.16-.19-.38-.31-.44-.62-.01-.06-.05-.09-.09-.12-.32-.28-.57-.63-.85-.96-.14-.17-.31-.3-.46-.46-.03-.03-.04-.07-.06-.11-.03-.04-.04-.1-.08-.13-.35-.37-.65-.81-1.03-1.15-.09-.08-.37-.61-.48-.69-.06-.05-.1-.38-.17-.4Z"/></svg>