<svg width="128" height="128" viewBox="0 0 128 128" fill="none" xmlns="http://www.w3.org/2000/svg">
<path d="M105.61 55.71C105.79 55.7303 105.971 55.7303 106.15 55.71L106.23 55.78C106.27 55.7677 106.305 55.7432 106.33 55.71C106.417 55.6269 106.482 55.524 106.52 55.41C106.555 55.2926 106.555 55.1675 106.52 55.05C106.488 54.9759 106.471 54.8959 106.471 54.815C106.471 54.7342 106.488 54.6542 106.52 54.58C106.659 54.4637 106.83 54.3907 107.01 54.37C107.26 54.32 107.57 54.37 107.66 54.46C107.805 54.6721 107.892 54.9182 107.913 55.1741C107.934 55.4301 107.889 55.6872 107.78 55.92C107.652 56.2962 107.44 56.6382 107.16 56.92C106.878 57.1152 106.558 57.2481 106.22 57.31L105.7 57.39C105.455 57.4072 105.211 57.4407 104.97 57.49C104.796 57.5648 104.637 57.6697 104.5 57.8C104.465 57.8242 104.431 57.8509 104.4 57.88C104.28 57.93 104.24 57.88 104.08 57.4L103.97 57.11C103.916 56.989 103.888 56.8577 103.888 56.725C103.888 56.5923 103.916 56.4611 103.97 56.34C104.219 56.0329 104.578 55.8355 104.97 55.79C105.189 55.7534 105.409 55.7301 105.63 55.72L105.61 55.71Z" fill="#231F20"/>
<path d="M105.91 61.94C106.09 61.9501 106.27 61.9501 106.45 61.94L106.52 62.02C106.54 62.0178 106.559 62.0113 106.576 62.0009C106.594 61.9905 106.608 61.9766 106.62 61.96C106.707 61.8731 106.772 61.7669 106.81 61.65C106.844 61.5359 106.844 61.4141 106.81 61.3C106.777 61.2241 106.761 61.1425 106.761 61.06C106.761 60.9775 106.777 60.8958 106.81 60.82C106.952 60.7105 107.121 60.6414 107.3 60.62C107.55 60.62 107.86 60.62 107.95 60.7C108.095 60.9139 108.182 61.1617 108.203 61.4192C108.224 61.6768 108.178 61.9354 108.07 62.17C107.939 62.545 107.728 62.8865 107.45 63.17C107.17 63.3684 106.848 63.4986 106.51 63.55L105.99 63.64C105.744 63.6572 105.501 63.6906 105.26 63.74C105.086 63.8147 104.927 63.9197 104.79 64.05C104.754 64.0742 104.721 64.1009 104.69 64.13C104.57 64.13 104.53 64.13 104.37 63.65L104.26 63.36C104.205 63.2389 104.177 63.1077 104.177 62.975C104.177 62.8423 104.205 62.7111 104.26 62.59C104.374 62.4399 104.516 62.3139 104.679 62.2195C104.843 62.1251 105.023 62.064 105.21 62.04C105.427 61.9984 105.648 61.975 105.87 61.97L105.91 61.94Z" fill="#231F20"/>
<path d="M21.2297 97.8201C21.2297 97.8201 22.3397 97.8201 22.5097 97.1101C22.7597 96.0501 22.7897 90.1801 22.7897 90.1801C49.8697 91.4401 49.3897 91.4701 56.6497 90.6801C57.1097 90.6301 58.3697 89.1201 56.6997 89.1201C55.5197 89.1201 22.2297 88.3901 22.2297 88.3901C22.2297 88.3901 20.9997 87.2601 20.7797 90.5201C20.6997 92.0901 21.2297 97.8201 21.2297 97.8201Z" fill="#231F20"/>
<path d="M86.56 29.36C86.7946 28.5997 87.0683 27.8521 87.38 27.12C87.49 26.85 87.57 26.57 87.7 26.31C88.1492 25.3868 88.6921 24.5123 89.32 23.7C89.6 23.35 89.87 22.98 90.16 22.64C90.5024 22.1692 90.9256 21.7629 91.41 21.44C91.72 21.25 91.94 22.21 91.55 22.65C90.82 23.45 90.2 24.33 89.55 25.21C89.1609 25.7669 88.8386 26.3677 88.59 27C88.2895 27.6957 88.0258 28.4066 87.8 29.13C87.66 29.58 87.53 30.03 87.42 30.49C87.2472 31.1853 87.1137 31.8897 87.02 32.6C86.95 33.15 87.02 33.7 87.02 34.25C87.02 34.37 87.02 34.49 87.02 34.61C87.02 35.06 86.84 35.19 86.58 35.26L86.39 35.32C86.2 35.32 86.03 35.15 85.94 34.8C85.794 33.7701 85.8142 32.7235 86 31.7C86.14 30.91 86.32 30.13 86.53 29.36H86.56Z" fill="#231F20"/>
<path d="M78.35 38.4C74.41 38.2 70.4667 38.04 66.52 37.92L62.21 37.86C57.14 37.72 52.06 37.53 46.99 37.53C44.74 37.53 42.48 37.6 40.26 37.69C37.42 37.84 34.48 38.06 31.8 38.31C31.6753 38.3417 31.5447 38.3417 31.42 38.31C31.42 38.26 31.34 38.23 31.28 38.18C31.2451 38.1499 31.2205 38.1095 31.2097 38.0647C31.1989 38.0198 31.2025 37.9727 31.22 37.93C31.2971 37.7613 31.4097 37.6112 31.55 37.49C32.6169 36.6192 33.9264 36.0988 35.3 36C41.1841 35.4662 47.0972 35.3259 53 35.58C56.55 35.71 60.23 35.58 63.86 35.67C67.86 35.75 71.86 35.88 75.81 36.03L83.16 36.34L94.27 36.88L102.79 37.14C103.42 37.14 104.03 37.14 104.66 37.21C105.492 37.2377 106.317 37.3619 107.12 37.58C107.531 37.7152 107.884 37.9869 108.12 38.35C108.229 38.4863 108.323 38.6338 108.4 38.79C108.49 39.02 108.28 39.21 107.84 39.35C107.189 39.5309 106.515 39.6085 105.84 39.58C100.84 39.51 95.51 39.25 90.18 38.99C86.18 38.8 82.24 38.6 78.26 38.45L78.35 38.4Z" fill="#231F20"/>
<path d="M9.46998 51.05L10.38 49.87C10.7 49.48 11.04 49.12 11.38 48.74C12.02 47.98 12.75 47.29 13.46 46.6C13.9445 46.0775 14.4587 45.5834 15 45.12C15.9878 44.3123 17.023 43.5643 18.1 42.88C18.65 42.55 19.22 42.25 19.77 41.94L20.6 41.47L21.47 41.09C21.98 40.87 22.47 40.63 23 40.39C23.53 40.15 24 39.98 24.56 39.77C25.2086 39.4854 25.877 39.2481 26.56 39.06C27.2599 38.8967 27.9725 38.793 28.69 38.75C29.13 38.75 29.12 38.98 28.83 39.37C28.5402 39.7443 28.2042 40.0803 27.83 40.37L27.6 40.55L27.33 40.65C24.74 41.5572 22.2311 42.6812 19.83 44.01C18.3725 44.8762 17.0288 45.921 15.83 47.12C15.11 47.72 14.5 48.44 13.83 49.12C13.16 49.8 12.58 50.56 12 51.3C11.2779 52.2168 10.6101 53.1751 9.99998 54.17C9.04479 55.6607 8.23124 57.2376 7.56998 58.88C7.1156 60.1504 6.76119 61.4544 6.50998 62.78C6.43998 63.07 6.39998 63.36 6.32998 63.64C6.00998 64.64 5.63998 64.96 5.07998 65.09C4.96173 65.124 4.84151 65.1507 4.71998 65.17C4.37998 65.17 4.06998 64.68 3.97998 63.77C3.98729 62.4444 4.21715 61.1295 4.65998 59.88C5.09121 58.6031 5.61597 57.3597 6.22998 56.16C7.15495 54.3582 8.22164 52.6328 9.41998 51L9.46998 51.05Z" fill="#231F20"/>
<path d="M89.9997 51.0701C90.7197 50.3601 91.4397 49.6401 92.2297 49.0001L93.3797 48.0001L94.5797 47.0801C95.1399 46.5996 95.7275 46.1522 96.3397 45.7401C98.4859 44.2856 100.77 43.0462 103.16 42.0401C103.68 41.8001 104.16 41.5701 104.74 41.3701C105.269 41.1389 105.81 40.9353 106.36 40.7601C107.749 40.1922 109.256 39.9725 110.75 40.1201C111.22 40.1201 111.14 40.4301 110.75 40.7701C110.252 41.2189 109.685 41.5837 109.07 41.8501C106.383 42.6664 103.765 43.6929 101.24 44.9201C100.463 45.307 99.7145 45.7481 98.9997 46.2401C98.2697 46.7401 97.5797 47.3001 96.8497 47.8001C96.1197 48.3001 95.3397 49.0001 94.5897 49.6101C93.8397 50.2201 93.1097 50.8701 92.4297 51.6101C91.575 52.4303 90.7639 53.2948 89.9997 54.2001L89.1197 55.2001L88.3197 56.3001L87.5297 57.4101L86.8497 58.5801C86.2123 59.8049 85.6578 61.071 85.1897 62.3701C85.1149 62.6613 85.0248 62.9483 84.9197 63.2301C84.5097 64.2301 84.1797 64.5401 83.6397 64.6301C83.5097 64.6301 83.3897 64.6301 83.2797 64.6301C82.9297 64.6301 82.7397 64.0801 82.8597 63.1901C83.3446 60.4843 84.4426 57.9256 86.0697 55.7101C87.2462 54.0333 88.5608 52.4578 89.9997 51.0001V51.0701Z" fill="#231F20"/>
<path d="M9.26993 66.08C15.2699 66.28 21.2899 66.4533 27.3299 66.6L33.9199 66.67L57.1499 67.12C60.5899 67.12 64.0399 67.12 67.4499 67.02C71.8099 66.9 76.2299 66.72 80.5299 66.45C81.8499 66.32 81.7499 66.52 80.6499 67C79.8926 67.3261 79.11 67.5903 78.3099 67.79C77.198 68.1115 76.0548 68.3127 74.8999 68.39C65.8999 69.1 56.9599 69.21 47.8999 69.06C42.4999 68.89 36.8999 68.93 31.3599 68.83C25.2799 68.71 19.2099 68.54 13.1399 68.36L6.82993 68.15H6.55993C6.47993 68.15 6.46993 68.31 6.43993 68.4L6.37993 68.68V69.11C6.29993 69.85 6.24993 70.61 6.19993 71.37C5.93993 76.98 5.97993 82.67 6.19993 88.27C6.28993 90.11 6.44993 91.94 6.65993 93.75C6.75993 94.65 6.87993 95.55 7.02993 96.43C7.09993 96.87 7.17993 97.31 7.27993 97.72L7.34993 98.02V98.16C7.38124 98.2491 7.42501 98.3332 7.47993 98.41C7.61494 98.4658 7.75584 98.506 7.89993 98.53L8.80993 98.71C9.71993 98.87 10.6299 98.98 11.5599 99.11C15.0399 99.52 16.0499 99.92 16.7899 100.49C16.9599 100.63 17.1799 100.72 17.3199 100.83C17.4599 100.94 17.4199 101.02 17.3199 101.14C17.0973 101.3 16.8461 101.415 16.5799 101.48C15.5717 101.739 14.5283 101.834 13.4899 101.76C12.3199 101.68 11.1499 101.56 9.95993 101.4C9.36993 101.31 8.76993 101.22 8.15993 101.11L7.20993 100.91C6.67382 100.783 6.16543 100.56 5.70993 100.25C5.29533 99.764 5.02513 99.1717 4.92993 98.54C4.83993 98.14 4.77993 97.78 4.72993 97.41C4.61993 96.68 4.54993 95.97 4.48993 95.25C4.36993 93.82 4.28993 92.4 4.23993 90.96L4.11993 88.8L3.99993 86.65C3.92993 85.21 3.89993 83.77 3.86993 82.33C3.86993 79.72 3.80993 77.11 3.86993 74.49C3.86993 73.17 3.93993 71.86 4.01993 70.49C4.01993 69.8 4.10993 69.19 4.20993 68.41C4.25838 67.8132 4.42494 67.2319 4.69993 66.7C4.83866 66.4642 5.04878 66.2786 5.29993 66.17L6.07993 66H9.25993L9.26993 66.08Z" fill="#231F20"/>
<path d="M85.6199 90.7601C85.5299 93.1501 85.4099 95.5401 85.1499 97.9701L85.0799 98.7901L84.9999 100C84.9559 100.267 84.8498 100.521 84.69 100.74C84.5302 100.959 84.3212 101.137 84.0799 101.26C83.7859 101.408 83.4776 101.525 83.1599 101.61L82.7499 101.7L82.4499 101.76C82.0499 101.84 81.6499 101.9 81.2599 101.95C80.4799 102.06 79.7099 102.13 78.9399 102.2C77.3999 102.34 75.8599 102.43 74.3299 102.52L70.2599 102.8C68.5212 102.98 66.7686 102.98 65.0299 102.8C64.4799 102.72 64.5699 102.29 65.0299 101.86C65.6507 101.296 66.4356 100.946 67.2699 100.86C70.7299 100.5 74.1999 100.27 77.7099 100.11C78.7643 100.047 79.8133 99.9134 80.8499 99.7101C81.3499 99.6201 81.9199 99.4801 82.3099 99.3701C82.4499 99.3701 82.7099 99.2901 82.6699 99.0801V98.9401L82.7299 98.5201L82.8099 97.6501C82.8699 97.0801 82.8899 96.4901 82.9399 95.9001C83.0099 94.7201 83.0499 93.5401 83.0799 92.3501C83.0799 90.8901 83.1399 89.4301 83.1399 87.9601C83.1399 85.7401 83.1399 83.5101 83.0599 81.3001C83.0099 79.5801 82.7499 77.9001 82.6999 76.1901C82.6999 75.8101 82.6399 75.4401 82.6499 75.0601C82.6499 73.6401 82.8799 73.1801 83.4799 72.9101C83.6096 72.8353 83.7471 72.7749 83.8899 72.7301C84.3399 72.6201 84.7199 73.2001 84.8899 74.2001C85.3991 77.3018 85.6766 80.4371 85.7199 83.5801C85.7799 85.9701 85.7199 88.3801 85.7199 90.7901L85.6199 90.7601Z" fill="#231F20"/>
<path d="M112.16 70.9101V64.3101L112.1 61.9001C112.1 59.0701 112.1 56.2401 112.1 53.4101C112.1 52.1601 112 50.9001 111.89 49.6601C111.78 48.0801 111.63 46.4401 111.61 44.9401C111.61 44.5101 111.79 44.4101 112.16 44.7601C112.709 45.3271 113.077 46.0439 113.22 46.8201C113.36 47.6401 113.51 48.4601 113.61 49.2801C113.71 50.1001 113.76 50.9201 113.81 51.7401C113.92 53.3901 113.95 55.0301 113.93 56.6901C113.93 58.6901 114.09 60.6901 114.15 62.7401C114.21 64.9667 114.243 67.1901 114.25 69.4101V73.5201C114.25 75.5901 114.25 77.6701 114.25 79.7301C114.25 81.3301 114.45 82.9001 114.53 84.4901C114.53 84.8401 114.59 85.1801 114.59 85.5401C114.59 86.8601 114.4 87.2801 113.79 87.5401C113.658 87.6046 113.521 87.6581 113.38 87.7001C112.92 87.7901 112.53 87.2401 112.44 86.3101C112.14 83.5201 112.08 80.5601 112.06 77.5901C112.06 75.3801 112.06 73.1601 112.06 70.9401L112.16 70.9101Z" fill="#231F20"/>
<path d="M98.1897 95.1001C99.4897 94.5201 100.79 93.9201 102.07 93.2801L103.45 92.5501C105.096 91.7301 106.736 90.8867 108.37 90.0201C109.08 89.6201 109.79 89.1901 110.46 88.7401C110.9 88.4601 111.31 88.1501 111.75 87.8701C112.19 87.5901 112.65 87.3401 113.08 87.1001C113.35 86.9601 113.5 87.1601 113.46 87.5501C113.363 88.0799 113.092 88.5623 112.69 88.9201C110.953 90.2088 109.098 91.3305 107.15 92.2701C105.97 92.8301 104.84 93.5601 103.67 94.1801C102.5 94.8001 101.08 95.5001 99.7597 96.1801L97.3197 97.3101C96.0897 97.8701 94.8297 98.3901 93.5897 98.9401C92.5897 99.3601 91.7097 99.8501 90.7397 100.26C90.5317 100.362 90.318 100.452 90.0997 100.53C89.2697 100.78 88.9697 100.74 88.6797 100.39C88.6197 100.31 88.5397 100.23 88.4897 100.15C88.3397 99.8601 88.5997 99.5001 89.1397 99.2101C90.7497 98.3801 92.4997 97.6701 94.2497 96.8801C95.5597 96.3101 96.8697 95.7301 98.1697 95.1001H98.1897Z" fill="#231F20"/>
<path d="M113.66 80.0701C116.458 80.099 119.213 80.7587 121.72 82.0001C125.48 84.0001 121.09 87.0001 119.52 88.0001C116.6 89.7001 99.3902 98.2001 92.9102 97.8101C92.9102 97.8101 113 88.5901 113.5 87.2601C114 85.9301 113.66 80.0701 113.66 80.0701Z" fill="#231F20"/>
<path d="M60.8 96.36C60.85 95.81 60.89 95.25 60.96 94.7C60.96 94.5 60.96 94.3 60.96 94.1C61.04 93.38 61.14 92.67 61.21 91.95C61.23 91.637 61.23 91.323 61.21 91.01C61.1201 90.6117 61.1201 90.1984 61.21 89.8C61.3 89.55 62.53 89.86 62.59 90.31C62.6999 91.1196 62.6999 91.9404 62.59 92.75C62.5401 93.2488 62.5401 93.7513 62.59 94.25C62.59 94.81 62.59 95.36 62.59 95.92V96.92C62.59 97.44 62.59 97.92 62.59 98.48C62.59 99.04 62.76 99.27 62.79 99.67C62.7949 99.76 62.7949 99.8501 62.79 99.94C62.79 100.27 62.65 100.38 62.25 100.44H61.97C61.8361 100.454 61.701 100.429 61.5806 100.369C61.4602 100.309 61.3594 100.215 61.29 100.1C60.9459 99.4518 60.7543 98.7335 60.73 98C60.73 97.45 60.73 96.9 60.73 96.34L60.8 96.36Z" fill="#231F20"/>
<path d="M35.6101 87.6L41.6701 87.87C42.4101 87.87 43.1501 87.87 43.8801 87.87C46.4801 87.96 49.0801 88.12 51.6901 88.25C52.8401 88.25 54.0001 88.25 55.1501 88.31C56.6464 88.2453 58.1449 88.3697 59.6101 88.68C60.0801 88.79 59.9601 89.02 59.5401 89.26C58.9405 89.6058 58.2772 89.8269 57.5901 89.91C56.8494 89.9882 56.1048 90.0216 55.3601 90.01H53.1101C51.6101 90.01 50.1101 90.01 48.5901 89.87C46.7801 89.75 44.8901 89.87 43.0401 89.8L36.9201 89.64L33.1501 89.52C31.2501 89.52 29.3401 89.37 27.4501 89.35C25.9801 89.35 24.5301 89.43 23.0701 89.42C22.7501 89.42 22.4301 89.42 22.0701 89.42C21.6337 89.4412 21.1994 89.3481 20.8101 89.15C20.5667 89.0214 20.3836 88.8024 20.3001 88.54C20.2466 88.4262 20.1998 88.3094 20.1601 88.19C20.0901 87.82 20.6101 87.51 21.4801 87.35C24.1437 87.1844 26.8143 87.1644 29.4801 87.29L35.5801 87.5L35.6101 87.6Z" fill="#231F20"/>
<path d="M20.1099 95.12C20.1099 94.65 20.1799 94.12 20.2199 93.7C20.2199 93.53 20.2199 93.36 20.2199 93.19C20.2199 92.57 20.3199 91.95 20.3299 91.34C20.345 91.0669 20.345 90.7931 20.3299 90.52C20.2548 90.1673 20.2548 89.8027 20.3299 89.45C20.3899 89.23 21.2399 89.51 21.3299 89.88C21.4172 90.5836 21.4239 91.2949 21.3499 92C21.3435 92.4378 21.3669 92.8754 21.4199 93.31C21.4199 93.8 21.4199 94.31 21.4199 94.77C21.4199 95.07 21.4199 95.38 21.4199 95.67L21.3299 97C21.3299 97.36 21.3999 97.72 21.3999 98.1C21.4049 98.1833 21.4049 98.2667 21.3999 98.35C21.3199 98.66 21.1999 98.74 20.8399 98.69H20.6199C20.5091 98.6643 20.4064 98.6116 20.3209 98.5365C20.2354 98.4615 20.1698 98.3665 20.1299 98.26C19.9781 97.6932 19.934 97.103 19.9999 96.52C19.9999 96.06 20.0499 95.59 20.0699 95.12H20.1099Z" fill="#231F20"/>
<path d="M50.8801 105.53C51.7691 104.888 52.6113 104.182 53.4001 103.42C53.6901 103.15 53.9201 102.81 54.1901 102.52C55.1791 101.499 56.0481 100.369 56.7801 99.1501C57.0878 98.5947 57.3519 98.0163 57.5701 97.4201C57.8086 96.6421 58.089 95.8777 58.4101 95.1301C58.5301 94.9001 58.7601 94.9901 58.9601 95.2701C59.2079 95.6366 59.3112 96.0819 59.2501 96.5201C58.8545 98.2494 58.1092 99.8795 57.0601 101.31C56.4581 102.212 55.8105 103.084 55.1201 103.92C54.3268 104.798 53.464 105.611 52.5401 106.35C51.9801 106.81 51.4101 107.24 50.8201 107.66C49.9301 108.29 49.0001 108.86 48.1001 109.45C47.4101 109.92 46.7501 110.45 46.1001 110.9C45.9501 111 45.8101 111.11 45.6501 111.21C45.0701 111.56 44.8001 111.53 44.4701 111.21C44.3856 111.134 44.3086 111.051 44.2401 110.96C44.0201 110.67 44.1201 110.27 44.4901 109.96C45.6588 109.046 46.8846 108.208 48.1601 107.45C49.0801 106.84 50.0201 106.23 50.8901 105.55L50.8801 105.53Z" fill="#231F20"/>
<path d="M23.5301 110.63L28.5301 110.9C29.1401 110.9 29.7501 110.9 30.3501 110.9C32.4901 111.04 34.6301 111.203 36.7701 111.39C37.7701 111.47 38.6801 111.52 39.6301 111.57C40.8717 111.519 42.1089 111.748 43.2501 112.24C43.6101 112.39 43.5301 112.52 43.1701 112.72L42.4601 113.12C42.1449 113.261 41.8052 113.339 41.4601 113.35C40.8539 113.385 40.2462 113.385 39.6401 113.35L37.8201 113.26C36.5901 113.26 35.3701 113.1 34.1301 112.96C32.6501 112.78 31.1301 112.85 29.5901 112.81L24.5901 112.65L21.5001 112.54C19.9401 112.54 18.3701 112.43 16.8201 112.43C15.6101 112.43 14.4201 112.55 13.2001 112.56C12.9303 112.575 12.6599 112.575 12.3901 112.56C12.0083 112.566 11.6319 112.469 11.3001 112.28C11.1907 112.203 11.0993 112.103 11.0319 111.988C10.9646 111.872 10.9231 111.743 10.9101 111.61C10.9004 111.5 10.9004 111.39 10.9101 111.28C10.9338 111.189 10.9775 111.104 11.038 111.031C11.0985 110.958 11.1744 110.9 11.2601 110.86C11.4798 110.698 11.7387 110.598 12.0101 110.57C14.0101 110.39 16.2801 110.39 18.5201 110.42L23.5201 110.56L23.5301 110.63Z" fill="#231F20"/>
<path d="M16.2497 104.06C17.2497 103.31 18.2497 102.54 19.1797 101.71C19.5297 101.42 19.8397 101.08 20.1797 100.77C21.3985 99.7195 22.5539 98.5975 23.6397 97.4101C24.1129 96.8775 24.5441 96.3091 24.9297 95.7101C25.3897 94.9401 25.9297 94.2001 26.3697 93.4601C26.5397 93.2301 26.7897 93.3501 26.9697 93.7001C27.0865 93.9254 27.154 94.173 27.1678 94.4265C27.1816 94.6799 27.1414 94.9334 27.0497 95.1701C26.6828 96.0981 26.1659 96.9596 25.5197 97.7201C24.9109 98.4854 24.2421 99.201 23.5197 99.8601C22.6597 100.65 21.8797 101.56 21.0197 102.38C20.1597 103.2 19.0797 104.1 18.0697 104.92C17.4397 105.41 16.8197 105.92 16.1897 106.39C15.1897 107.13 14.1897 107.82 13.2797 108.54C12.5397 109.1 11.8697 109.74 11.1297 110.3C10.9697 110.42 10.8097 110.55 10.6397 110.66C9.98972 111.05 9.63972 111.02 9.32972 110.75C9.24972 110.68 9.15972 110.62 9.08972 110.55C8.86972 110.32 8.97972 109.92 9.33972 109.48C10.5161 108.293 11.8094 107.228 13.1997 106.3C14.1997 105.55 15.1997 104.82 16.1997 104.03L16.2497 104.06Z" fill="#231F20"/>
<path d="M85.2898 28.3301C85.6279 27.3661 86.0185 26.4214 86.4598 25.5001C86.6198 25.1701 86.7398 24.8201 86.9198 24.5001C87.5474 23.3586 88.2594 22.2656 89.0498 21.2301C89.3998 20.7801 89.7198 20.3001 90.0498 19.8501C90.4375 19.2228 90.9316 18.6678 91.5098 18.2101C91.8898 17.9401 92.4398 19.2101 91.9998 19.8801C91.1598 21.0001 90.4098 22.1601 89.4898 23.2701C88.9865 23.981 88.5639 24.7457 88.2298 25.5501C87.8113 26.4171 87.4375 27.3049 87.1098 28.2101C86.9098 28.7701 86.7198 29.3301 86.5698 29.9101C86.3217 30.7771 86.1477 31.6636 86.0498 32.5601C86.0047 33.2493 86.0047 33.9408 86.0498 34.6301C86.0498 34.7801 86.0498 34.9301 86.0498 35.0801C86.07 35.1748 86.071 35.2726 86.0526 35.3677C86.0342 35.4627 85.9968 35.5531 85.9426 35.6334C85.8885 35.7137 85.8187 35.7822 85.7375 35.8349C85.6562 35.8876 85.5652 35.9234 85.4698 35.9401L85.1898 36.0301C84.8998 36.0301 84.6298 35.8501 84.4598 35.4101C84.1645 34.0695 84.1645 32.6807 84.4598 31.3401C84.644 30.3248 84.8945 29.3226 85.2098 28.3401L85.2898 28.3301Z" fill="#231F20"/>
<path d="M55 14.21C58.1 14.1 61.06 14.21 64.07 14.27C65.17 14.27 66.26 14.27 67.35 14.32C71.2 14.48 75.04 14.72 78.89 14.96C80.59 15.07 82.31 15.15 84 15.23C86.198 15.2493 88.3899 15.4635 90.55 15.87C91.23 16.03 91.06 16.44 90.43 16.79C89.5299 17.2536 88.5199 17.4611 87.51 17.39C83.13 17.13 78.71 16.96 74.25 16.56C71.59 16.33 68.81 16.37 66.08 16.31C63.08 16.25 60.08 16.19 57.08 16.24L55.36 16.29C55.09 16.29 54.79 16.29 54.53 16.36H54.33H54.22C54.1477 16.3697 54.079 16.3972 54.02 16.44L53.32 17.01C53.09 17.23 52.87 17.47 52.64 17.7C50.8784 19.762 49.6309 22.2124 49 24.85C48.5053 26.8884 48.2271 28.9733 48.17 31.07C48.17 31.53 48.17 31.99 48.17 32.45C48.17 34.17 47.95 34.71 47.34 35.08C47.2126 35.1778 47.0752 35.2616 46.93 35.33C46.5 35.5 46.06 34.77 45.93 33.45C45.6935 29.2956 46.3764 25.1402 47.93 21.28C48.4778 20.0336 49.1478 18.8444 49.93 17.73C50.3338 17.1651 50.7783 16.6303 51.26 16.13C51.51 15.89 51.74 15.62 52.01 15.4L52.93 14.65L53.09 14.55C53.16 14.55 53.2 14.55 53.26 14.49C53.3717 14.4367 53.4891 14.3965 53.61 14.37C53.8125 14.3064 54.0198 14.2595 54.23 14.23L55.07 14.16L55 14.21Z" fill="#231F20"/>
<path d="M66.35 20L63.78 19.9H62.84L59.52 19.78C59.03 19.78 58.52 19.78 58.05 19.78C57.4231 19.8233 56.7936 19.8066 56.17 19.73C55.78 19.67 56.27 18.87 56.99 18.81C58.2643 18.7001 59.5457 18.7001 60.82 18.81C61.59 18.87 62.39 18.81 63.18 18.81H65.78H67.38C68.19 18.81 69.01 18.87 69.81 18.86C70.43 18.86 71.05 18.8 71.67 18.77C71.8065 18.76 71.9435 18.76 72.08 18.77C72.59 18.77 72.74 18.88 72.84 19.18C72.84 19.25 72.84 19.32 72.9 19.38C72.9 19.61 72.72 19.79 72.35 19.86C71.2205 20.0172 70.0785 20.0641 68.94 20H66.35Z" fill="#231F20"/>
<path d="M59.8998 22.5401L61.3598 22.6401C61.5298 22.6401 61.7098 22.6401 61.8898 22.6401C62.5098 22.7101 63.1298 22.7801 63.7598 22.8301C64.0298 22.8301 64.3098 22.8301 64.5898 22.8301C64.942 22.7903 65.2976 22.7903 65.6498 22.8301C65.8698 22.8301 65.5898 23.3901 65.1798 23.4301C64.4579 23.4951 63.7317 23.4951 63.0098 23.4301C62.5798 23.4301 62.1298 23.4301 61.6798 23.4301L60.2198 23.3701H59.3198C58.8598 23.3701 58.4098 23.3701 57.9498 23.3701L56.9498 23.4401H56.7198C56.4398 23.4401 56.3498 23.3601 56.2798 23.1701V23.0401C56.2798 22.9101 56.3698 22.7601 56.5798 22.7001C57.2041 22.5055 57.856 22.4143 58.5098 22.4301L59.9798 22.4901L59.8998 22.5401Z" fill="#231F20"/>
<path d="M28.8998 107L26.3298 106.89H25.3898L22.0698 106.76C21.5798 106.76 21.0698 106.76 20.5998 106.76C19.9746 106.82 19.345 106.82 18.7198 106.76C18.3298 106.69 18.8198 105.84 19.5398 105.76C20.8139 105.645 22.0957 105.645 23.3698 105.76C24.1398 105.83 24.9398 105.76 25.7298 105.76H28.3298H29.9298C30.7398 105.76 31.5498 105.82 32.3598 105.82C32.9798 105.82 33.5998 105.74 34.2198 105.71C34.3563 105.7 34.4933 105.7 34.6298 105.71C35.1398 105.71 35.2898 105.83 35.3898 106.15C35.4144 106.219 35.4344 106.289 35.4498 106.36C35.4498 106.61 35.2598 106.8 34.8898 106.87C33.7654 107.044 32.6256 107.098 31.4898 107.03L28.8998 107Z" fill="#231F20"/>
<path d="M28.2697 103.46L29.7297 103.57C29.8997 103.57 30.0797 103.57 30.2597 103.57C30.8797 103.64 31.4997 103.71 32.1297 103.75C32.3997 103.75 32.6797 103.75 32.9497 103.75C33.3022 103.715 33.6573 103.715 34.0097 103.75C34.2297 103.75 33.9497 104.31 33.5497 104.35C32.8276 104.41 32.1018 104.41 31.3797 104.35C30.9367 104.325 30.4927 104.325 30.0497 104.35H28.5897H27.6897C27.2297 104.35 26.7697 104.35 26.3197 104.35L25.3197 104.42H25.0897C24.7997 104.42 24.7097 104.34 24.6497 104.15C24.5897 103.96 24.6497 104.06 24.6497 104.02C24.6497 103.98 24.7397 103.74 24.9497 103.67C25.5735 103.474 26.2263 103.386 26.8797 103.41H28.3497L28.2697 103.46Z" fill="#231F20"/>
<path d="M68.7198 55.1301C69.2598 54.4901 69.8198 53.8601 70.3998 53.2501C70.5998 53.0301 70.7898 52.7801 71.0098 52.5701C71.805 51.828 72.6651 51.1587 73.5798 50.5701C73.7914 50.4462 73.9951 50.3093 74.1898 50.1601L74.8398 49.7901C75.4006 49.393 76.086 49.2118 76.7698 49.2801C76.9898 49.2801 76.9298 49.7001 76.7698 50.1001C76.6098 50.5001 76.4998 50.8801 76.2798 50.9701C75.3173 51.398 74.3909 51.9029 73.5098 52.4801C72.9523 52.8923 72.4455 53.369 71.9998 53.9001C71.4498 54.4701 70.9198 55.0601 70.4098 55.6801C70.0898 56.0601 69.7898 56.4501 69.4998 56.8501C69.0532 57.4493 68.6521 58.0811 68.2998 58.7401C68.0725 59.2548 67.8755 59.7824 67.7098 60.3201C67.6812 60.4322 67.6375 60.5398 67.5798 60.6401C67.3698 61.0301 67.2598 61.1101 66.9098 61.1501H66.6898C66.4498 61.1501 66.2898 60.9301 66.2498 60.4901C66.209 59.3067 66.5606 58.143 67.2498 57.1801C67.6906 56.454 68.1714 55.753 68.6898 55.0801L68.7198 55.1301Z" fill="#231F20"/>
<path d="M22.9101 55.11C23.4501 54.44 24.0201 53.79 24.6101 53.11C24.8201 52.88 25.0101 52.62 25.2401 52.4C26.0504 51.6171 26.9422 50.9232 27.9001 50.33L29.1501 49.5C29.4301 49.34 29.7001 49.16 29.9801 49.01C30.2758 48.869 30.594 48.781 30.9201 48.75C31.1301 48.75 31.2401 49.16 31.2401 49.63C31.2401 50.1 31.1501 50.63 30.8901 50.73C29.8901 51.24 29.0501 51.86 28.0101 52.43C27.4076 52.8676 26.8778 53.3975 26.4401 54C25.8801 54.57 25.3501 55.18 24.8301 55.82C24.5201 56.22 24.2001 56.61 23.9101 57.03C23.4701 57.65 23.0201 58.29 22.6301 58.95C22.2401 59.61 22.1601 60.04 21.8501 60.55C21.7932 60.6688 21.7263 60.7825 21.6501 60.89C21.3601 61.29 21.1701 61.36 20.8101 61.26C20.7288 61.2459 20.6485 61.2259 20.5701 61.2C20.3301 61.11 20.2301 60.82 20.2801 60.43C20.4264 59.3017 20.8116 58.2176 21.4101 57.25C21.8501 56.52 22.3601 55.82 22.8701 55.13L22.9101 55.11Z" fill="#231F20"/>
<path d="M30.8499 66.9L40.5699 67.38L44.1199 67.48L50.3699 67.77L56.6199 68.1C58.4699 68.18 60.3299 68.19 62.1699 68.19C64.5308 68.1117 66.8941 68.1584 69.2499 68.33C69.9899 68.4 69.8999 68.57 69.2499 68.85C68.9499 68.98 68.5099 69.15 67.9699 69.33C67.3769 69.5369 66.7573 69.6582 66.1299 69.69C61.2917 69.9817 56.4411 70.0084 51.5999 69.77C48.6899 69.56 45.6599 69.56 42.6799 69.44L32.8999 69L26.8999 68.7C23.8499 68.56 20.7899 68.41 17.7699 68.31C15.4199 68.31 13.1099 68.45 10.7699 68.49H9.23995C7.32995 68.55 6.72995 68.17 6.32995 67.64C6.23495 67.5262 6.14806 67.4059 6.06995 67.28C5.97995 67.08 6.12995 66.91 6.48995 66.74C6.99019 66.4922 7.53336 66.3429 8.08995 66.3C10.2163 66.1429 12.3503 66.1162 14.4799 66.22L17.7499 66.4C18.8399 66.4 19.9399 66.4 21.0399 66.46L30.8699 66.83L30.8499 66.9Z" fill="#231F20"/>
<path d="M51.7 106.05C52.5013 105.506 53.2694 104.915 54 104.28C54.27 104.06 54.49 103.79 54.75 103.55C55.677 102.713 56.5209 101.789 57.27 100.79C57.5975 100.341 57.8885 99.8658 58.14 99.3699C58.46 98.7399 58.75 98.0899 59.14 97.4799C59.26 97.2899 59.42 97.3799 59.52 97.6299C59.6436 97.9759 59.6436 98.354 59.52 98.6999C58.9736 100.127 58.1704 101.442 57.15 102.58C56.54 103.26 55.97 104.02 55.3 104.67C54.5629 105.385 53.7814 106.053 52.96 106.67C52.46 107.04 51.96 107.4 51.44 107.75C50.66 108.28 49.84 108.75 49.06 109.25L47.27 110.47C47.13 110.55 47.01 110.65 46.87 110.72C46.36 111.02 46.14 111.01 45.87 110.72C45.8051 110.665 45.7449 110.605 45.69 110.54C45.52 110.33 45.63 110.02 45.96 109.75C47.0089 108.984 48.097 108.273 49.22 107.62C50.04 107.1 50.87 106.62 51.66 106.01L51.7 106.05Z" fill="#231F20"/>
<path d="M108.46 55.1101V55.6901V55.9801V56.4601C108.53 56.5701 108.46 56.6401 108.46 56.7301V56.8001H108.39L108.32 56.9101C108.276 56.9841 108.214 57.0459 108.14 57.0901C108.075 57.1594 107.992 57.2081 107.9 57.2301C107.47 57.4001 107.38 57.4401 107.13 57.5201C106.88 57.6001 106.36 57.7201 105.97 57.8001C105.525 57.9172 105.069 57.9909 104.61 58.0201C104.07 58.0201 103.97 57.2901 103.91 56.9201C103.834 56.4978 103.8 56.069 103.81 55.6401C103.81 55.5501 103.99 55.4601 104.22 55.5301C104.344 55.5732 104.456 55.6458 104.547 55.7415C104.637 55.8372 104.704 55.9534 104.74 56.0801L104.86 56.7301V56.8801V56.9401C104.86 56.9401 104.97 56.9401 105.07 56.9401H105.39C105.911 56.8184 106.42 56.6476 106.91 56.4301L107.12 56.3501H107.22H107.32C107.32 56.3501 107.32 56.2801 107.32 56.2601C107.297 56.0674 107.297 55.8727 107.32 55.6801C107.32 55.5201 107.32 55.2501 107.32 55.1801C107.32 55.1101 107.32 54.9801 107.32 54.8801V54.7601C107.32 54.7601 107.32 54.6601 107.32 54.6801C107.25 54.6704 107.179 54.6704 107.11 54.6801H106.88L106.5 54.7701C106.06 54.8801 105.65 55.0501 105.2 55.1601L104.9 55.2301C104.52 55.2801 104.39 55.1601 104.31 54.8301C104.31 54.7501 104.31 54.6801 104.31 54.6201C104.303 54.4994 104.333 54.3795 104.395 54.276C104.457 54.1725 104.55 54.0903 104.66 54.0401C105 53.9101 105.35 53.8001 105.71 53.7001L107.09 53.3501C108.4 52.9401 108.75 53.9001 108.66 55.1101H108.46Z" fill="#231F20"/>
<path d="M108.76 61.3401V62.2801V62.6901L108.67 63.0401C108.48 63.0401 108.53 63.2101 108.41 63.2801C108.319 63.3694 108.21 63.4376 108.09 63.4801C107.66 63.6501 107.57 63.6901 107.32 63.7701C107.07 63.8501 106.55 63.9701 106.16 64.0501C105.714 64.1624 105.259 64.236 104.8 64.2701C104.26 64.2701 104.16 63.5301 104.1 63.1701C104.025 62.7478 103.991 62.319 104 61.8901C104 61.8001 104.18 61.7101 104.41 61.7801C104.537 61.8183 104.652 61.8893 104.743 61.9858C104.835 62.0823 104.899 62.201 104.93 62.3301L105 63.0001V63.1501C104.995 63.1592 104.992 63.1696 104.992 63.1801C104.992 63.1906 104.995 63.201 105 63.2101C105 63.2101 105.11 63.2101 105.21 63.2101L105.53 63.1601C106.052 63.035 106.561 62.8609 107.05 62.6401L107.25 62.5701H107.33C107.33 62.5701 107.47 62.5701 107.47 62.4901V61.8401C107.47 61.6801 107.47 61.4201 107.47 61.3501C107.47 61.2801 107.47 61.1401 107.47 61.0401V60.9001C107.47 60.9001 107.47 60.8101 107.47 60.8201H107.26H107.03L106.65 60.9101C106.21 61.0201 105.8 61.1901 105.35 61.2901L105.05 61.3701C104.67 61.3701 104.54 61.3001 104.46 60.9601C104.46 60.8901 104.46 60.8201 104.46 60.7501C104.454 60.6308 104.484 60.5125 104.546 60.4107C104.609 60.3089 104.701 60.2285 104.81 60.1801C105.15 60.0501 105.5 59.9401 105.81 59.8401L107.19 59.4901C108.5 59.0801 108.85 60.0401 108.76 61.2501V61.3401Z" fill="#231F20"/>
</svg>
