<svg width="128" height="128" viewBox="0 0 128 128" fill="none" xmlns="http://www.w3.org/2000/svg">
<path d="M25.8502 103.95C26.0902 105.11 26.6502 106.26 27.5302 107.16C27.8502 107.49 28.2502 107.73 28.6202 107.99C29.9002 108.89 31.6802 109.36 33.3902 109.23C34.1602 109.19 34.9002 108.93 35.5402 108.57C35.7502 108.46 35.9502 108.33 36.1302 108.18C36.3302 108.06 36.5202 107.92 36.7102 107.77C37.0602 107.46 37.5702 107.27 37.9702 106.91C38.2502 106.71 38.3502 106.79 38.4302 107.18C38.4902 107.54 38.6802 108.4 38.2802 109.11C37.5302 110.29 36.2102 110.91 34.9602 111.29C33.6902 111.67 32.3502 111.66 31.1102 111.37C29.6502 111.01 28.0802 110.64 26.8002 109.67C25.4302 108.65 24.3702 107.25 23.7802 105.67C23.4102 104.7 23.2202 103.68 23.2002 102.65C23.1702 101.09 23.6002 99.57 24.2902 98.22C24.8202 97.16 25.5302 96.12 26.4502 95.35C26.6502 95.18 26.8602 95.03 27.0802 94.89C27.5002 94.66 27.8002 94.56 28.0502 94.57C28.3102 94.61 28.5002 94.72 28.7002 94.91C28.7902 95 28.8902 95.07 28.9602 95.16C29.0802 95.31 29.0902 95.49 29.0302 95.71C28.9702 95.93 28.8502 96.23 28.6302 96.44C28.0302 97.16 27.4702 97.75 27.0602 98.37C26.6402 98.99 26.3902 99.68 26.1002 100.47C25.7402 101.56 25.6302 102.75 25.9102 103.91L25.8502 103.93V103.95Z" fill="#231F20"/>
<path d="M87.03 16.12C86.74 16.19 76.83 20.24 76.8 22.08C76.77 24.13 73.96 20.86 73.96 20.86L84.45 16.24L87.03 16.13V16.12Z" fill="#231F20"/>
<path d="M82.08 28.44C79.65 28.9 75.34 24.91 72.81 24.8C70.88 24.72 59.76 26.49 51.96 41.99L50.27 41C50.27 41 56.66 29.8 59.39 27.97C62.12 26.14 74.73 20.14 74.73 20.14L78.04 25.37C78.04 25.37 82.07 28.44 82.07 28.43L82.08 28.44Z" fill="#231F20"/>
<path d="M46.0601 78.78C45.8901 78.67 38.1801 72.08 42.1601 66.8C43.8801 64.52 49.9201 71.98 55.4801 73.1C59.3201 73.87 50.6901 68.92 48.7701 66.41C46.8501 63.9 42.4701 59.91 42.4701 59.91L38.8501 70.15L39.1601 73.52L46.0501 78.79L46.0601 78.78Z" fill="#231F20"/>
<path d="M65.8399 90.2L64.1199 89.52L62.3299 86.1L61.8799 84.74L69.4299 76.03L76.2999 69.44L77.3999 74.05C77.3999 74.05 68.8399 79.36 65.2899 84.2C64.2099 85.67 64.2699 88.42 65.8399 90.19V90.2Z" fill="#231F20"/>
<path d="M39.4902 67.97C39.4902 67.97 36.7102 69.75 36.4302 68.27L32.9702 68.4L30.1602 67.61C30.3602 67.64 35.4102 68.11 37.0402 65.86C39.0602 63.09 41.7502 57.06 42.6802 50.21L46.3602 49.05L39.5002 67.96L39.4902 67.97Z" fill="#231F20"/>
<path d="M79.2699 24.45C79.9199 25.03 80.5899 25.63 81.3399 26.13C81.6199 26.31 81.9099 26.44 82.1999 26.61C83.1799 27.24 84.2399 27.78 85.3499 28.22C85.8499 28.39 86.3699 28.52 86.8799 28.63C87.2099 28.7 87.5399 28.76 87.8699 28.83C88.1999 28.92 88.5199 29.08 88.8399 29.25C89.0399 29.37 88.9899 29.6 88.7799 29.88C88.5699 30.15 88.1699 30.57 87.7199 30.69C87.3299 30.74 86.9599 30.69 86.5799 30.68C86.1999 30.66 85.8199 30.64 85.4599 30.5C84.7299 30.29 84.0299 29.97 83.3599 29.61C82.5699 29.14 81.6699 28.89 80.8599 28.44C79.9799 27.93 79.1199 27.39 78.3399 26.73C77.8499 26.35 77.4099 25.89 76.9499 25.47C76.2899 24.79 75.6699 24.06 75.1099 23.3C74.8799 23.01 74.6399 22.73 74.4099 22.44C74.2899 22.29 74.1599 22.16 74.0499 22C73.9499 21.84 73.8599 21.67 73.7699 21.51C73.6899 21.36 73.5899 21.23 73.5399 21.07C73.4599 20.76 73.4799 20.54 73.5899 20.35C73.6799 20.17 73.8099 20.05 73.9999 19.94C74.0799 19.89 74.1599 19.83 74.2399 19.79C74.4799 19.67 74.8599 19.81 75.2899 20.05C76.2699 20.83 76.7799 21.71 77.5299 22.58C78.0599 23.23 78.6699 23.84 79.3299 24.42L79.2899 24.47L79.2699 24.45Z" fill="#231F20"/>
<path d="M49.8601 66.51C50.3501 66.99 50.8801 67.42 51.4001 67.89C51.9401 68.32 52.5001 68.74 53.0701 69.16C53.5001 69.44 53.9601 69.65 54.3901 69.94C55.9101 70.93 57.4901 71.86 59.1601 72.62C59.8901 72.97 60.6801 73.22 61.4501 73.43C62.4601 73.65 63.4201 73.94 64.3601 74.48C64.6601 74.65 64.6201 74.79 64.3201 75.05C64.1701 75.18 63.9401 75.35 63.6601 75.54C63.5201 75.63 63.3501 75.75 63.2001 75.8C63.0401 75.85 62.8801 75.87 62.7101 75.88C62.4201 75.88 62.1101 75.89 61.8201 75.88C61.5301 75.86 61.2601 75.77 60.9801 75.72C60.4201 75.6 59.8801 75.43 59.3401 75.26C58.2701 74.9 57.2301 74.46 56.2601 73.86C55.6701 73.52 55.0601 73.22 54.4401 72.92C53.8101 72.64 53.1801 72.34 52.5901 71.99C51.9301 71.62 51.2901 71.21 50.6701 70.78C50.0301 70.37 49.4301 69.9 48.8301 69.43C48.0701 68.89 47.4101 68.19 46.7101 67.58L45.2501 66C44.8101 65.43 44.3601 64.87 43.9201 64.31C43.6101 63.84 43.2601 63.4 42.9101 62.96C42.5901 62.49 42.3201 61.98 42.0501 61.47C41.9201 61.25 41.8001 61.03 41.7501 60.77C41.5901 60.31 41.7201 59.95 41.8301 59.71C41.9501 59.46 42.1301 59.31 42.3801 59.17C42.4901 59.11 42.6001 59.04 42.7101 59C43.0501 58.87 43.5201 59.15 44.0601 59.59C45.1501 60.96 45.9201 62.31 47.1101 63.63C47.9301 64.63 48.9001 65.56 49.9201 66.47L49.8801 66.53L49.8601 66.51Z" fill="#231F20"/>
<path d="M22.5502 62.69C23.3502 61.65 24.1502 60.63 25.0002 59.64C25.8602 58.67 26.7302 57.71 27.6202 56.76C28.2602 56.06 28.8502 55.32 29.5202 54.64C30.7102 53.44 31.9102 52.28 33.3202 51.19C33.7202 50.92 34.0302 50.65 34.5502 50.38C34.7902 50.24 35.0402 50.14 35.2802 50.06L35.9302 49.87C36.7602 49.65 37.5702 49.46 38.3702 49.27C39.8002 48.93 41.2102 48.52 42.5902 48.08C43.4802 47.81 44.3302 47.44 45.2302 47.23C46.1202 46.99 46.9802 46.73 47.9402 46.7C48.6202 46.87 48.5802 46.88 48.3402 47.59C48.2302 47.97 47.9902 48.36 47.6902 48.81C47.3702 49.22 46.9502 49.58 46.4402 49.82C45.9902 50.02 45.5502 50.25 45.0802 50.4L43.6902 50.83C42.7602 51.11 41.8402 51.36 40.9102 51.59C39.9802 51.82 39.0502 52.04 38.1302 52.25C37.2402 52.46 36.1802 52.64 35.7802 52.84C35.0102 53.22 34.1202 54.06 33.3302 54.85C32.5302 55.67 31.7502 56.54 30.9602 57.39C29.2002 59.24 27.5402 61.21 25.8102 63.1L24.3702 64.75C24.2802 64.89 24.1002 65.02 24.1202 65.21C24.1702 65.38 24.3302 65.49 24.4902 65.57C24.6202 65.65 24.7602 65.71 24.9102 65.77C24.9902 65.81 25.0302 65.82 25.1602 65.87L25.5702 66C26.1202 66.17 26.6902 66.32 27.2702 66.45C28.4202 66.71 29.5902 66.92 30.7702 67.06C32.6002 67.29 34.4202 67.29 36.2302 67.3C36.6302 67.3 37.0202 67.28 37.4202 67.28C38.1602 67.28 38.6302 67.32 38.9602 67.45C39.2902 67.6 39.4902 67.82 39.6602 68.15C39.7402 68.3 39.8502 68.44 39.9002 68.59C39.9902 68.84 39.9002 69.07 39.6102 69.3C39.3302 69.52 38.8702 69.73 38.2902 69.78C34.8702 70.13 31.3702 69.79 27.8302 69.14C26.6702 68.91 25.5402 68.65 24.3202 68.25C23.7702 68.09 23.2402 67.89 22.7602 67.65C22.3002 67.38 21.8802 67.09 21.6102 66.72C21.4502 66.55 21.3702 66.34 21.2702 66.14L21.1602 65.8C21.1502 65.68 21.1302 65.56 21.1302 65.45C21.1202 65.23 21.1702 65.01 21.2302 64.8C21.2602 64.59 21.3702 64.37 21.4902 64.14L21.9902 63.37L22.2602 62.98L22.5002 62.66L22.5602 62.7L22.5502 62.69Z" fill="#231F20"/>
<path d="M70.1702 95.52C70.1702 95.52 70.1802 95.52 70.2002 95.47L70.3102 95.25L70.5202 94.81L70.9302 93.92L71.7402 92.11L73.3102 88.44C73.6902 87.54 73.9702 86.61 74.3502 85.72L76.3502 81.01L76.5402 80.54C76.5702 80.46 76.5802 80.39 76.5802 80.29C76.5802 80.18 76.5802 79.96 76.5502 79.76C76.5402 79.56 76.5102 79.36 76.4902 79.15C76.3902 78.32 76.2602 77.47 76.1302 76.61C75.9002 75.09 75.5802 73.58 75.2902 72.06C75.1502 71.08 74.9902 70.1 74.9102 69.09C74.8802 68.59 74.9302 68.07 74.9602 67.57C75.0002 67.06 75.1902 66.55 75.3402 66.04C75.5702 65.42 75.7002 65.53 76.0902 66.04C76.2902 66.3 76.5702 66.65 76.9402 67.05C77.2502 67.45 77.5402 67.92 77.7102 68.44L78.3902 71.24C78.6002 72.18 78.7402 73.15 78.9102 74.12C79.0802 75.09 79.2302 76.07 79.3802 77.07C79.4502 77.57 79.5202 78.07 79.5702 78.6C79.6002 78.85 79.6202 79.13 79.6402 79.41C79.6502 79.66 79.6902 80.01 79.6602 80.47C79.6602 80.99 79.4202 81.56 79.3302 81.79L78.9902 82.67C78.7802 83.25 78.5602 83.84 78.3502 84.42C77.9402 85.59 77.5002 86.76 77.0202 87.9C75.9702 90.41 74.8502 92.88 73.6502 95.35L73.1102 96.43L72.7802 97.08L72.3602 97.86C72.0702 98.36 71.7602 98.83 71.4002 99.15C71.2202 99.3 71.0502 99.46 70.8102 99.51C70.6902 99.58 70.5702 99.5 70.4602 99.5C70.3402 99.48 70.2202 99.46 70.1202 99.42L69.8402 99.27C69.4802 99.08 69.1502 98.77 68.8102 98.53C68.5002 98.19 68.1902 97.85 67.8902 97.5L67.2502 96.65L66.6902 95.85C65.9702 94.78 65.2802 93.69 64.6402 92.59C63.6402 90.88 62.6102 89.21 61.8202 87.36C61.6402 86.95 61.4902 86.54 61.3502 86.11C61.1302 85.3 61.0402 84.74 61.1102 84.33C61.2202 83.91 61.4002 83.66 61.6702 83.44C61.7902 83.34 61.9102 83.23 62.0302 83.17C62.2302 83.07 62.4502 83.17 62.7002 83.41C62.9602 83.65 63.2202 84.01 63.4502 84.51C64.8402 87.42 66.4402 90.49 68.3902 93.34C68.8402 94 69.3302 94.65 69.8202 95.24C69.9902 95.44 69.9602 95.42 69.9602 95.42V95.44C69.9602 95.44 69.9602 95.47 69.9802 95.48C70.0102 95.55 70.0402 95.5 70.0802 95.46L70.1502 95.5L70.1702 95.52Z" fill="#231F20"/>
<path d="M75.31 42.29C74.63 43.37 73.38 44.14 71.81 44.16C71.03 44.16 70.24 43.96 69.58 43.54C67.61 42.29 67.07 39.53 68.44 37.63C70.08 35.35 73.22 35.96 74.89 37.9C76.1 39.31 76.11 41.02 75.31 42.29Z" fill="#231F20"/>
<path d="M66.14 81.17C65.25 82.04 64.35 82.91 63.37 83.74C62.89 84.16 62.38 84.57 61.82 84.97C61.54 85.17 61.26 85.37 60.91 85.56C60.63 85.74 60.11 85.96 59.68 86.08C58.05 86.43 56.64 86.18 55.34 85.88C54.04 85.56 52.82 85.09 51.66 84.56C49.33 83.49 47.18 82.18 45.15 80.69C43.13 79.19 41.23 77.54 39.55 75.53C38.95 74.78 38.37 73.99 37.93 73.01C37.71 72.52 37.53 71.97 37.47 71.32C37.41 70.6 37.58 70.06 37.68 69.6C38.16 67.77 38.74 66.1 39.36 64.42C41.57 58.52 44.04 52.75 46.72 47.06C48.06 44.22 49.45 41.4 50.94 38.62C52.44 35.85 53.99 33.1 55.85 30.48C56.71 29.33 57.57 28.17 58.84 27.18C60.02 26.32 61.2 25.59 62.39 24.84C64.78 23.37 67.22 22 69.67 20.71C72.83 19.05 76.05 17.49 79.38 16.15C82.71 14.82 86.15 13.67 89.75 13.21C92.02 13.04 91.74 13.48 90.06 14.49C89.22 14.98 88.04 15.65 86.62 16.36C85.2 17.07 83.52 17.78 81.66 18.5C75.09 21.05 68.68 24.32 62.64 28C61.89 28.46 61.16 28.94 60.48 29.41C59.97 29.8 59.42 30.37 58.89 31.01C57.83 32.29 56.85 33.77 55.92 35.27C54.05 38.29 52.34 41.46 50.68 44.67C48.7 48.51 46.88 52.55 45.14 56.64C43.42 60.73 41.73 64.91 40.35 69.05C40.17 69.61 40 70.19 39.89 70.69C39.84 70.92 39.84 71.07 39.86 71.25C39.88 71.44 39.95 71.66 40.02 71.88C40.39 72.79 41.06 73.75 41.82 74.61C43.36 76.35 45.23 77.87 47.18 79.23C49.15 80.58 51.23 81.77 53.41 82.65C54.5 83.09 55.61 83.44 56.71 83.62C57.26 83.7 57.81 83.74 58.31 83.69C58.57 83.69 58.8 83.62 59.04 83.58C59.22 83.5 59.38 83.45 59.61 83.29C60.7 82.6 61.81 81.53 62.85 80.51C63.9 79.47 64.9 78.36 65.92 77.27C67.93 75.06 69.88 72.77 71.79 70.46C74.67 66.94 77.49 63.35 80.22 59.71C81.58 57.89 82.91 56.05 84.19 54.18C84.83 53.25 85.44 52.3 86.03 51.36C86.32 50.88 86.6 50.41 86.86 49.93C86.97 49.7 87.11 49.45 87.19 49.24L87.32 48.92L87.44 48.52C89.46 41.86 90.51 35.03 90.89 28.19C90.92 27.44 90.95 26.69 90.97 25.94C90.97 25.19 90.98 24.44 90.99 23.69C90.98 18.07 90.91 16.29 91.6 14.99C91.75 14.69 91.89 14.3 92.05 14.12C92.32 13.81 92.64 14.22 92.98 15.24C93.15 15.75 93.33 16.42 93.49 17.23C93.62 18.04 93.76 18.98 93.87 20.05C94.32 26.4 93.9 32.97 92.71 39.48C92.12 42.74 91.35 45.98 90.37 49.22L90.18 49.83C90.1 50.06 89.97 50.39 89.86 50.63C89.65 51.08 89.43 51.5 89.21 51.88C88.77 52.66 88.32 53.37 87.86 54.09C86.94 55.51 85.99 56.88 85.03 58.25C82.16 62.29 79.16 66.2 76.02 70.03C72.87 73.85 69.7 77.64 66.18 81.21L66.12 81.17H66.14Z" fill="#231F20"/>
<path d="M78.49 37.28L78.85 38.03L79.02 38.41L79.12 38.82C79.19 39.09 79.25 39.36 79.3 39.63L79.33 40.46C79.31 41.56 79.01 42.63 78.45 43.5C78.27 43.84 78.06 44.14 77.82 44.43C77.6 44.74 77.34 45 77.05 45.25C76.05 46.11 74.79 46.64 73.49 46.77C72.17 46.9 70.91 46.5 69.81 45.94C68.85 45.42 67.89 44.58 67.41 43.53C67.11 42.86 66.93 42.17 66.87 41.49C66.86 40.8 67.03 40.14 67.24 39.53C67.38 39.14 67.62 39.23 67.96 39.57C68.28 39.91 68.84 40.49 69.15 41.04C69.31 41.54 69.46 41.99 69.68 42.33C69.92 42.66 70.05 42.97 70.32 43.23C70.58 43.48 70.94 43.78 71.38 43.95C71.79 44.18 72.23 44.33 72.7 44.45C73.84 44.68 75.11 44.09 75.92 43.18C76.39 42.68 76.67 42.05 76.86 41.42C76.98 40.77 76.99 40.1 76.77 39.46C76.47 38.7 75.98 37.94 75.23 37.39C74.24 36.51 72.81 36.2 71.57 36.66C71.09 36.84 70.68 37.15 70.34 37.5C70.02 37.88 69.75 38.28 69.55 38.71C69.43 38.88 69.4 39.1 69.29 39.27C69.19 39.44 69.14 39.6 69.06 39.71C68.97 39.82 68.86 39.91 68.77 39.98C68.59 40.13 68.3 40.18 67.96 40.21C67.81 40.22 67.67 40.26 67.55 40.27C67.22 40.31 66.65 39.78 66.69 38.86C66.73 38.53 66.78 38.19 66.88 37.86C66.97 37.52 67.09 37.19 67.26 36.86C67.61 36.23 68.11 35.66 68.69 35.18C69.87 34.23 71.44 33.69 73.02 33.78C74.19 33.83 75.36 34.24 76.3 34.91C76.76 35.24 77.11 35.6 77.51 35.95C77.87 36.34 78.21 36.79 78.52 37.24L78.47 37.28H78.49Z" fill="#231F20"/>
<path d="M48.8898 113.04C53.1098 113.18 57.7898 105.04 48.2598 100.44C48.2598 100.44 51.7598 101.07 53.3698 102.3C54.9798 103.53 56.3398 106.7 56.1098 107.95C55.8798 109.2 54.7498 111.5 54.0098 112.02C53.2698 112.54 48.8898 113.04 48.8898 113.04Z" fill="#231F20"/>
<path d="M24.5998 94.8C19.7798 93.51 19.4898 89.86 20.0198 88.62C20.7998 86.81 23.0698 85.9 25.4498 86.85L25.0498 85.44C25.0498 85.44 21.5698 84.55 19.5498 85.72C17.5298 86.89 17.6398 88.88 17.5198 89.96C17.3998 91.03 19.0698 93.63 19.0698 93.63L24.5898 94.8H24.5998Z" fill="#231F20"/>
<path d="M34.7198 85.13C34.1998 85.68 33.6398 86.2 33.0898 86.73C32.8898 86.92 32.7198 87.15 32.5098 87.33C31.7598 87.98 30.8798 88.49 30.0298 89C29.6298 89.21 29.2798 89.47 28.8898 89.69C28.6298 89.82 28.3598 89.92 28.0798 90C27.7998 90.07 27.4598 90 27.1698 89.96C26.9798 89.92 26.9898 89.81 27.0698 89.58C27.1598 89.35 27.2698 88.92 27.4198 88.61C27.5898 88.39 27.7698 88.27 27.9298 88.07C28.0998 87.9 28.3198 87.83 28.5098 87.68C28.9098 87.43 29.3298 87.16 29.7798 86.91C30.0498 86.76 30.2898 86.55 30.4998 86.32L31.1698 85.64C31.6798 85.16 32.1898 84.65 32.6798 84.13C32.9798 83.8 33.2798 83.48 33.5698 83.13C33.9998 82.61 34.4498 82.09 34.7998 81.52C35.0898 81.09 35.2798 80.6 35.5298 80.14C35.5798 80.04 35.6198 79.93 35.7098 79.85C35.8598 79.69 36.0098 79.62 36.1898 79.62C36.3498 79.61 36.4898 79.62 36.6498 79.68C36.7198 79.7 36.7898 79.71 36.8498 79.74C37.0298 79.81 37.1398 80.09 37.2398 80.53C37.2998 81.13 37.0898 81.57 36.9398 82.07C36.8498 82.31 36.7598 82.55 36.6498 82.77C36.5198 82.98 36.3698 83.19 36.2298 83.4C35.7898 84.01 35.2898 84.59 34.7998 85.17L34.7598 85.14L34.7198 85.13Z" fill="#231F20"/>
<path d="M18.8399 94.6C18.1599 94.01 17.5599 93.31 17.1199 92.5C16.6899 91.68 16.3999 90.77 16.3499 89.82C16.3199 89.13 16.3499 88.42 16.5899 87.76C16.9999 86.6 17.8399 85.67 18.7699 85.04C19.6999 84.4 20.7799 84.03 21.8999 83.92C22.8799 83.82 23.9299 83.92 24.8499 84.34C25.1499 84.46 25.4399 84.61 25.7099 84.8C25.9899 84.97 26.2499 85.17 26.4499 85.42C26.6699 85.66 26.8099 85.94 26.9299 86.24C27.0499 86.54 27.0699 86.87 27.1299 87.16C27.1799 87.54 27.0199 87.55 26.6099 87.46C26.3999 87.42 26.1099 87.37 25.7899 87.33C25.6299 87.31 25.4299 87.33 25.2899 87.3C25.1499 87.27 25.0199 87.23 24.9199 87.17C24.8199 87.13 24.7099 87.1 24.6199 87.06C24.5399 87.01 24.4799 86.93 24.3999 86.89C24.2399 86.81 24.0999 86.68 23.9299 86.64C23.6199 86.47 23.2699 86.44 22.9199 86.34C22.2099 86.21 21.3399 86.26 20.4899 86.57C19.4399 86.93 18.7799 87.92 18.5599 88.9C18.4399 89.45 18.4599 90.04 18.6299 90.62C18.8199 91.19 19.1599 91.74 19.5999 92.22C20.1199 92.8 20.8299 93.3 21.5899 93.71C22.7199 94.33 23.9799 94.71 25.2699 94.7C26.2799 94.7 27.2399 94.38 28.2199 94.14C28.4399 94.09 28.6499 94.02 28.8699 93.98C29.2899 93.9 29.5699 93.87 29.7899 93.94C30.0199 94.04 30.1899 94.17 30.3399 94.37C30.4099 94.46 30.4899 94.53 30.5399 94.61C30.6299 94.75 30.5999 94.9 30.4899 95.11C30.3799 95.31 30.1999 95.6 29.8999 95.76C29.4599 96.03 28.9999 96.28 28.5199 96.51C28.0299 96.74 27.4999 96.87 26.9499 96.98C25.8599 97.22 24.6399 97.21 23.4699 96.95C22.5999 96.78 21.7499 96.46 20.9799 96.06C20.1899 95.65 19.5199 95.22 18.7999 94.65L18.8299 94.6H18.8399Z" fill="#231F20"/>
<path d="M50.7301 112.18C52.0501 111.73 53.2001 110.84 53.8601 109.6C54.1001 109.15 54.1801 108.68 54.2601 108.2C54.5501 106.51 53.8001 104.43 52.3001 103.12C51.6601 102.53 50.8601 102.08 50.0201 101.9C49.7501 101.84 49.4901 101.82 49.2201 101.76C48.9501 101.72 48.6801 101.76 48.4101 101.73C48.2701 101.71 48.1401 101.75 48.0001 101.76L47.5701 101.73C47.4201 101.71 47.2801 101.73 47.1301 101.74C46.9801 101.74 46.8001 101.68 46.6201 101.67C46.1601 101.58 46.2201 101.64 46.4201 101.25C46.5201 101.07 46.6301 100.65 46.8801 100.35C47.0001 100.18 47.1501 100.05 47.3201 99.9C47.4101 99.82 47.5001 99.77 47.6001 99.68C47.7001 99.64 47.8101 99.59 47.9201 99.56C48.3101 99.46 48.7301 99.42 49.1401 99.35C49.5501 99.33 49.9701 99.35 50.3901 99.38C50.7901 99.47 51.1901 99.6 51.5801 99.72C51.9501 99.88 52.3201 100.06 52.6801 100.24C54.1001 101.03 55.1601 102.31 55.8001 103.72C56.5401 105.39 57.1301 107.36 56.6401 109.3C56.0501 111.38 54.6101 113.03 52.8501 114C51.7501 114.56 50.5701 114.93 49.3701 115.02C47.5501 115.19 45.7101 114.73 44.1401 113.85C42.8901 113.21 41.8201 112.27 40.9601 111.15C40.7901 110.89 40.6001 110.65 40.4401 110.38C39.9901 109.31 40.1701 108.86 40.5801 108.49C40.6701 108.41 40.7401 108.32 40.8101 108.26C40.9401 108.17 41.1001 108.21 41.3601 108.31C41.6301 108.41 41.9001 108.6 42.1101 108.87C43.3901 110.49 44.7801 111.73 46.5901 112.23C47.9101 112.6 49.3801 112.56 50.6901 112.1L50.7201 112.16L50.7301 112.18Z" fill="#231F20"/>
<path d="M47.2302 96.73C47.6202 96.18 48.0302 95.64 48.4302 95.12C48.5702 94.93 48.6802 94.71 48.8302 94.53C49.3802 93.88 49.9502 93.25 50.5202 92.64C50.7702 92.37 51.0002 92.08 51.2302 91.8C51.3802 91.63 51.5202 91.43 51.6902 91.27C51.8702 91.12 52.0702 90.98 52.2802 90.86C52.4102 90.79 52.4802 90.88 52.5202 91.08C52.5502 91.27 52.5902 91.6 52.5002 91.85C52.0702 92.66 51.5902 93.4 51.0202 94.11C50.6702 94.53 50.4902 95.08 50.2402 95.57C49.9702 96.11 49.6902 96.66 49.4402 97.21C49.2802 97.55 49.1202 97.89 48.9902 98.25C48.7802 98.78 48.5302 99.31 48.4202 99.87C48.3302 100.31 48.4002 100.78 48.4302 101.24C48.4302 101.34 48.4702 101.45 48.4302 101.54C48.3202 101.88 48.1002 101.94 47.4002 101.84L46.9402 101.78C46.4602 101.7 46.0102 101.43 45.8802 101.1C45.6202 100.6 45.7102 100.18 45.7702 99.74C45.8502 99.31 46.0102 98.88 46.1802 98.47C46.4302 97.85 46.8002 97.27 47.1602 96.7L47.2102 96.72L47.2302 96.73Z" fill="#231F20"/>
<path d="M43.3398 90.69C43.0598 91.05 42.7798 91.42 42.5398 91.8C42.4498 91.94 42.4198 92.11 42.3298 92.25C41.9598 92.73 41.5998 93.23 41.3298 93.77C41.1998 94.01 41.1498 94.27 41.0598 94.52C40.9498 94.84 40.8498 95.16 40.6198 95.46C40.5498 95.55 40.3798 95.51 40.1898 95.38C40.0098 95.25 39.7598 95.03 39.7098 94.81C39.4998 94.02 39.7098 93.3 40.0598 92.63C40.2898 92.24 40.2998 91.76 40.4798 91.34C40.6798 90.88 40.9198 90.44 41.1698 90.01C41.3298 89.75 41.4798 89.48 41.6298 89.22C41.8498 88.81 42.1498 88.45 42.3598 88.05C42.5298 87.74 42.5798 87.37 42.7198 87.03C42.7498 86.96 42.7698 86.88 42.8098 86.81C42.9598 86.56 43.2198 86.62 43.6298 86.83L43.9198 86.98C44.2198 87.16 44.4298 87.44 44.4998 87.72C44.5798 88.47 44.3298 89 44.0998 89.56C43.9398 89.98 43.6098 90.3 43.3798 90.69L43.3298 90.67L43.3398 90.69Z" fill="#231F20"/>
<path d="M111.51 47.92C111.14 48.57 110.4 48.91 109.74 48.99C109.5 49.01 109.25 49.06 109.01 48.99C108.16 48.78 107.66 47.99 107.61 47.27C107.59 46.95 107.57 46.64 107.66 46.33C107.72 45.97 107.91 45.51 108.36 45.41C108.5 45.38 108.66 45.74 108.84 46.08C109 46.42 109.27 46.7 109.3 46.71C109.42 46.83 109.24 46.68 109.13 46.97C109.08 47.15 109.24 47.15 109.34 47.17C109.45 47.21 109.62 47.2 109.76 47.11C109.85 47.06 109.93 46.96 109.95 46.85C110 46.68 109.95 46.47 109.8 46.35C109.68 46.28 109.49 46.26 109.37 46.27C109.34 46.27 109.32 46.29 109.3 46.29C109.22 46.27 109.18 46.16 109.05 45.86L108.96 45.66C108.86 45.45 108.88 45.19 109.12 45.03C109.48 44.82 109.94 44.8 110.34 44.92C110.78 45 111.22 45.36 111.49 45.78C111.89 46.4 112.02 47.3 111.57 47.94L111.52 47.92H111.51Z" fill="#231F20"/>
<path d="M101.45 52.43C101.09 53.04 100.58 53.39 100.01 53.5C99.8001 53.54 99.6101 53.62 99.3801 53.58C98.9901 53.54 98.6001 53.36 98.3401 53.09C98.0801 52.83 97.9301 52.53 97.8601 52.25C97.8001 52 97.7401 51.76 97.7301 51.51C97.7001 51.21 97.7401 50.78 98.1101 50.61C98.2301 50.56 98.4701 50.85 98.7401 51.11C98.8801 51.24 99.0201 51.36 99.1501 51.44C99.2401 51.49 99.1901 51.46 99.2101 51.48C99.2301 51.48 99.2401 51.49 99.2501 51.5C99.3401 51.54 99.4901 51.53 99.4701 51.53C99.4701 51.53 99.3301 51.59 99.2701 51.66C99.2301 51.7 99.2201 51.74 99.2301 51.71C99.2401 51.69 99.2301 51.56 99.2401 51.59C99.2501 51.59 99.3601 51.62 99.4401 51.61C99.4901 51.61 99.5401 51.6 99.5601 51.57C99.6101 51.55 99.6201 51.41 99.5101 51.34C99.4301 51.28 99.2901 51.34 99.2601 51.41C99.2601 51.42 99.2401 51.45 99.2401 51.45C99.2401 51.36 99.2001 51.2 99.0701 50.82L98.9701 50.57C98.8601 50.3 98.8601 50 99.0901 49.77C99.4401 49.42 99.9101 49.46 100.31 49.55C100.72 49.65 101.1 49.91 101.34 50.31C101.74 50.86 101.8 51.81 101.46 52.46L101.41 52.44L101.45 52.43Z" fill="#231F20"/>
<path d="M102.25 71.65C102.07 72.32 101.52 72.81 100.96 73.05C100.75 73.12 100.56 73.28 100.33 73.26C100.08 73.26 99.8398 73.21 99.6198 73.11C99.3898 73.02 99.2098 72.85 99.0198 72.73C98.8598 72.57 98.7398 72.37 98.6498 72.18C98.5398 71.92 98.4098 71.69 98.3898 71.42C98.3498 71.26 98.3298 71.09 98.3198 70.91C98.3498 70.74 98.4198 70.57 98.5798 70.46C98.6798 70.39 98.9598 70.57 99.2898 70.76C99.6098 70.95 99.9598 71.06 99.9698 71.05H100.06C100.06 71.05 100.04 71.05 100.01 71.06C99.9798 71.09 99.9298 71.15 99.9198 71.28C99.9198 71.34 99.9398 71.37 99.9698 71.39C100.02 71.4 100.07 71.39 100.13 71.39C100.23 71.39 100.35 71.35 100.44 71.25C100.5 71.19 100.54 71.1 100.54 71C100.54 70.85 100.47 70.7 100.34 70.6C100.23 70.5 100.08 70.48 99.9498 70.47C99.9198 70.47 99.8898 70.47 99.8698 70.47C99.7698 70.45 99.7198 70.4 99.6098 70.23L99.5398 70.12C99.4698 70 99.4898 69.84 99.6498 69.72C99.8898 69.54 100.22 69.44 100.55 69.45C100.72 69.45 100.89 69.49 101.06 69.55C101.16 69.56 101.2 69.65 101.36 69.64C101.45 69.7 101.54 69.76 101.62 69.83C102.12 70.24 102.4 70.96 102.29 71.66H102.24L102.25 71.65Z" fill="#231F20"/>
<path d="M50.1598 23.75C49.8898 24.43 49.3598 24.93 48.7898 25.21C48.5798 25.31 48.3798 25.45 48.1498 25.48C47.2698 25.61 46.3898 25.23 45.9498 24.46C45.7598 24.12 45.6498 23.69 45.6898 23.33C45.7098 23.09 45.7598 22.84 45.8998 22.62C46.0398 22.4 46.2998 22.21 46.5898 22.2C46.7898 22.2 46.8298 22.66 46.9698 23.09C46.9998 23.18 47.0698 23.33 47.0898 23.36V23.38C47.0898 23.38 47.1498 23.43 47.1798 23.45C47.2498 23.5 47.3098 23.52 47.3098 23.51C47.3098 23.51 47.2398 23.51 47.1798 23.53L47.1398 23.55L47.2898 23.47C47.2898 23.47 47.3298 23.44 47.3498 23.42C47.3898 23.39 47.4598 23.25 47.4498 23.28C47.4198 23.36 47.4598 23.39 47.4898 23.39C47.5098 23.39 47.5498 23.37 47.6098 23.37C47.7398 23.37 47.8898 23.32 48.0098 23.19C48.0798 23.11 48.1398 23.01 48.1498 22.89C48.1698 22.72 48.1198 22.51 47.9498 22.4C47.8198 22.31 47.6198 22.37 47.5098 22.43C47.4898 22.45 47.4598 22.47 47.4398 22.48C47.3698 22.52 47.3398 22.37 47.2098 21.92L47.1098 21.62C47.0598 21.46 47.0298 21.3 47.0598 21.14C47.0898 20.98 47.1598 20.8 47.2898 20.72C48.1198 20.11 49.3798 20.69 49.9298 21.55C50.3598 22.2 50.4298 23.03 50.2198 23.73L50.1698 23.71L50.1598 23.75Z" fill="#231F20"/>
</svg>
