<svg width="128" height="128" viewBox="0 0 128 128" fill="none" xmlns="http://www.w3.org/2000/svg">
<path d="M28.7802 52.84L23.7602 47.62C23.1502 46.98 22.4702 46.41 21.8602 45.76C20.7902 44.61 19.7502 43.44 18.7302 42.24L18.3502 41.79C18.1602 41.59 17.9402 41.34 17.7902 41.11L16.7902 39.74L16.3002 39.07L16.1802 38.9C16.1902 38.85 16.2602 38.8 16.3002 38.75L16.5702 38.44C16.9502 38.04 17.2702 37.6 17.7202 37.2C18.5802 36.38 19.0002 36.1 19.5602 35.6C20.0902 35.14 20.6202 34.69 21.1702 34.27C21.8602 33.72 22.5402 33.14 23.2402 32.62C23.6002 32.36 24.0102 32.17 24.4002 31.97C24.7902 31.75 25.2902 31.69 25.7302 31.54C26.3202 31.4 26.3702 31.57 26.3002 32.24C26.2602 32.69 26.2102 33.16 26.1702 33.62C26.0802 34.15 25.8702 34.65 25.5702 35.08C24.9502 35.74 24.2702 36.31 23.6202 36.92C23.2902 37.21 22.9702 37.52 22.6302 37.8L21.5902 38.59L21.0702 38.98L20.8102 39.18C20.7602 39.22 20.7702 39.19 20.7502 39.2C20.7002 39.2 20.6402 39.21 20.5502 39.24C20.5102 39.25 20.4402 39.27 20.4202 39.29C20.4202 39.31 20.4102 39.34 20.4002 39.37C20.4002 39.43 20.4002 39.52 20.4302 39.63C20.4502 39.67 20.4302 39.67 20.5002 39.77L20.7502 40.09L21.2702 40.71C21.6202 41.12 22.0102 41.51 22.3902 41.91C23.1702 42.69 23.9502 43.47 24.7202 44.25L29.8102 49.47L32.9402 52.72C34.5302 54.35 36.0502 56.07 37.6202 57.71C38.8202 59 40.1102 60.18 41.2902 61.49C41.5502 61.78 41.8302 62.04 42.0802 62.34C42.5502 62.89 42.7202 63.37 42.8002 63.73C42.8402 64.12 42.7602 64.41 42.6102 64.72C42.5402 64.86 42.4902 65.01 42.4202 65.11C42.2902 65.29 42.0702 65.31 41.7402 65.24C41.4102 65.16 40.9402 65.02 40.5402 64.68C39.3402 63.69 38.2502 62.58 37.1102 61.49C35.9802 60.39 34.8602 59.25 33.7602 58.08C32.1002 56.37 30.4302 54.63 28.7002 52.92L28.7502 52.86L28.7802 52.84Z" fill="#231F20"/>
<path d="M51.21 84.48C51.18 84.61 51.07 84.75 51.86 84.98C52.11 85.04 52.37 85.02 52.65 85.05C53.62 85.18 54.75 85.05 55.84 84.73C56.34 84.61 56.8 84.39 57.25 84.16C57.82 83.84 58.44 83.6 59.13 83.42C59.35 83.37 59.45 83.55 59.47 83.88C59.48 84.2 59.44 84.75 59.18 85.11C58.74 85.78 58.13 86.23 57.47 86.61C56.83 87.03 56.07 87.24 55.28 87.34C54.34 87.45 53.41 87.8 52.37 87.8C51.78 87.77 51.27 87.74 50.62 87.53C50.31 87.45 49.98 87.28 49.65 87.11C49.33 86.94 49.04 86.72 48.82 86.46C48.23 85.82 48.09 84.88 48.34 84.08C48.47 83.78 48.56 83.47 48.75 83.21C48.84 83.08 48.92 82.93 49 82.81L49.25 82.52C49.58 82.14 49.91 81.8 50.24 81.47C50.75 80.96 51.16 80.36 51.69 79.88C51.82 79.79 51.93 79.68 52.06 79.6C52.56 79.3 52.89 79.47 53.25 79.8C53.34 79.88 53.43 79.95 53.5 80.03C53.73 80.29 53.74 80.71 53.6 81.18C53.46 81.48 53.32 81.77 53.19 82.06C53.01 82.29 52.85 82.53 52.66 82.74C52.32 83.18 51.95 83.59 51.68 83.98C51.56 84.13 51.5 84.25 51.4 84.38C51.37 84.41 51.38 84.38 51.36 84.4C51.33 84.4 51.3 84.42 51.29 84.46L51.21 84.49V84.48Z" fill="#231F20"/>
<path d="M66.0598 70.29L61.5898 65.88L71.0098 65.54C71.0098 65.54 63.9298 68.62 66.0698 70.29H66.0598Z" fill="#231F20"/>
<path d="M99.6802 109.76C99.8602 111.08 100.44 112.63 101.01 114.15C101.29 114.95 101.61 115.66 101.84 116.74C101.87 116.87 101.89 117.07 101.9 117.26C101.9 117.39 101.9 117.52 101.88 117.65C101.84 117.86 101.79 118.05 101.65 118.29C101.46 118.59 101.2 118.83 100.89 118.94C100.76 119 100.52 119.05 100.47 119.05H100.25C99.9402 119.07 99.7202 119 99.4902 118.93C98.6902 118.6 98.3402 118.18 97.9902 117.82C97.0702 116.72 96.4502 115.69 95.8402 114.63C95.3302 113.71 94.8302 112.75 94.3202 112.02C94.2602 111.94 94.2002 111.86 94.1502 111.8L94.0902 111.74C94.0902 111.74 94.0702 111.72 94.0902 111.73C94.1402 111.68 94.2202 111.55 94.2602 111.45C94.4902 111.11 94.3602 110.88 94.4402 111.03L94.7902 111.49L94.8102 111.51C94.8102 111.51 94.8302 111.53 94.8402 111.53C94.8402 111.53 94.8602 111.54 94.9002 111.58C94.8402 111.6 94.7802 112.09 94.8302 112.51C94.8702 112.97 94.9402 113.4 95.0902 113.97C95.2802 114.8 95.5002 115.62 95.7202 116.41C95.9402 117.2 96.1402 117.97 96.2502 118.59C96.3602 119.22 96.3902 119.7 96.3802 120.1C96.3802 120.45 96.3602 120.78 96.3102 121.1C96.2802 121.26 96.2402 121.43 96.1402 121.6C96.0602 121.78 95.7802 121.94 95.5402 121.94C95.0302 121.99 94.7702 121.74 94.5202 121.56C94.2702 121.35 94.0502 121.15 93.7902 120.91C93.4702 120.6 93.0702 120.19 92.6002 119.45C92.1202 118.72 91.6202 117.77 91.1202 116.94C90.9902 116.73 90.8702 116.52 90.7302 116.32L90.4002 115.82C90.2202 115.55 90.1002 115.35 89.9402 115.13C89.7902 114.92 89.6302 114.73 89.4702 114.58C89.3202 114.41 89.2102 114.24 89.0502 114.12C88.8402 113.95 88.6402 113.93 88.6302 113.84C88.6202 113.77 88.7002 113.6 89.0902 113.38C89.4602 113.17 90.2802 113.09 90.9202 113.42C91.2502 113.56 91.5702 113.75 91.8702 113.98C92.0102 114.09 92.1902 114.23 92.2802 114.33L92.4302 114.49C92.4302 114.49 92.4402 114.49 92.4502 114.5C92.4802 114.48 92.3902 114.47 92.5802 114.75C92.6602 114.82 92.7102 114.88 92.7602 114.84C92.7802 114.82 92.8002 114.78 92.8102 114.7L92.8302 114.56V114.47V114.42L92.8002 114.18C92.7002 113.39 92.5702 112.59 92.7002 111.56L92.7902 111.15C92.8402 111 92.9002 110.85 92.9602 110.7C93.0602 110.54 93.1402 110.38 93.2702 110.23C93.3402 110.15 93.4102 110.08 93.4902 110.01C93.5302 109.97 93.5502 109.95 93.6202 109.9C93.7102 109.84 93.8202 109.78 93.9202 109.74C94.1302 109.64 94.3502 109.64 94.5702 109.65C94.7702 109.67 94.8802 109.72 95.0402 109.78C95.2502 109.88 95.4202 110 95.5202 110.1C95.7602 110.3 95.9002 110.48 96.0502 110.66C97.0902 112.02 97.7902 113.31 98.5902 114.54C99.0202 115.2 99.4702 115.87 99.9202 116.33C100.03 116.44 100.13 116.54 100.21 116.59C100.25 116.62 100.28 116.64 100.28 116.64C100.29 116.59 100.2 116.93 100.22 116.94C100.22 116.96 100.22 116.97 100.22 116.99V117.02L100.27 117.39V117.41C100.27 117.41 100.27 117.46 100.29 117.48C100.31 117.5 100.27 117.45 100.26 117.45C100.26 117.46 100.1 117.35 100 117.36C99.9102 117.36 99.5702 117.29 99.4802 117.32C99.4802 117.3 99.4802 117.14 99.4302 116.98C99.0602 115.58 98.3502 113.97 97.8402 112.36C97.5402 111.34 97.2102 110.32 97.2402 109.06C97.2602 108.74 97.3002 108.41 97.4402 108.05C97.5802 107.7 97.8202 107.32 98.1702 107.08L98.3002 106.99C98.4002 106.93 98.5502 106.87 98.6902 106.85C98.8402 106.82 98.9302 106.84 99.0502 106.85C99.1602 106.87 99.2802 106.9 99.3302 106.93C99.6102 107.07 99.7402 107.2 99.8702 107.32C100.12 107.57 100.26 107.79 100.43 108.02C100.66 108.37 100.87 108.71 101.07 109.05L101.73 110.03L102.91 112.02C103.3 112.68 103.66 113.35 104.06 113.96C104.26 114.27 104.47 114.57 104.68 114.82C104.78 114.95 104.89 115.06 104.98 115.13C105.03 115.18 105.05 115.18 105.08 115.2C105.08 115.2 105.08 115.16 105.06 115.22C105.03 115.28 105.01 115.33 104.99 115.4C104.96 115.54 104.94 115.53 104.94 115.62C104.94 115.7 104.94 115.65 104.94 115.67C104.86 115.52 105.05 115.88 105.03 115.84V115.82L105.01 115.79C105.01 115.79 104.91 115.71 104.82 115.67C104.75 115.66 104.58 115.58 104.44 115.55C104.4 115.55 104.44 115.44 104.42 115.34C104.4 115.12 104.36 114.85 104.3 114.58C104.19 114.05 104.02 113.5 103.85 112.96C103.5 111.87 103.08 110.8 102.65 109.73C102.45 109.26 102.25 108.81 102.05 108.34C101.75 107.44 101.58 106.85 101.55 106.38C101.55 105.91 101.64 105.59 101.83 105.27C101.92 105.13 101.99 104.96 102.08 104.85C102.24 104.67 102.48 104.72 102.83 104.96C103.17 105.2 103.61 105.63 103.99 106.26C104.6 107.18 105.06 108.18 105.49 109.21C105.92 110.24 106.3 111.29 106.63 112.4C106.79 112.96 106.94 113.53 107.06 114.16C107.12 114.48 107.17 114.8 107.2 115.22C107.2 115.43 107.22 115.67 107.16 116.05C107.14 116.17 107.11 116.29 107.07 116.41C107.03 116.54 106.91 116.79 106.8 116.96C106.77 117.02 106.62 117.21 106.48 117.33C106.34 117.46 106.18 117.58 106.03 117.66C105.83 117.76 105.6 117.84 105.37 117.88C105.13 117.93 104.96 117.92 104.76 117.91C104.58 117.9 104.35 117.85 104.24 117.81C104.03 117.74 103.73 117.6 103.62 117.52C103.31 117.32 103.13 117.16 102.96 116.99C102.66 116.69 102.43 116.4 102.23 116.14C101.83 115.6 101.52 115.1 101.21 114.6C100.73 113.87 100.4 113.09 100.05 112.34C99.8802 111.96 99.7002 111.59 99.5502 111.21C99.4002 110.83 99.2802 110.44 99.1002 110.09C98.8902 109.76 98.6702 109.45 98.4802 109.2C98.3802 109.08 98.2902 108.98 98.2602 108.96L98.3802 108.83C98.4602 108.73 98.5302 108.63 98.5902 108.53C98.7102 108.37 98.7902 108.27 98.8402 108.1C98.8902 107.98 98.9102 107.93 98.9002 107.85C98.7802 107.66 99.9402 109.49 99.4502 108.71C99.4502 108.71 99.3802 108.63 99.4402 108.69C99.4602 108.7 99.4702 108.71 99.4902 108.72C99.5202 108.74 99.5802 108.78 99.6202 108.8C99.7502 108.85 99.7402 108.85 99.7302 108.87C99.7302 108.87 99.7302 108.92 99.7202 108.95C99.7102 109.11 99.7202 109.4 99.7602 109.72H99.7002L99.6802 109.76Z" fill="#231F20"/>
<path d="M97.18 96.01C96.19 92.87 95.28 89.75 94.22 86.7C93.82 85.59 93.35 84.52 92.94 83.42C92.59 82.45 92.22 81.49 91.81 80.54C91.43 79.58 90.99 78.65 90.55 77.72C89.7 75.84 88.68 74.07 87.52 72.38C86.51 70.86 85.25 69.54 84 68.27C83.19 67.45 82.29 66.75 81.39 66.05C80.51 65.32 79.58 64.64 78.56 64.09C77.93 63.73 78.07 63.55 78.77 63.48C79.13 63.44 79.63 63.42 80.23 63.48C80.84 63.53 81.52 63.69 82.22 63.98C82.52 64.12 82.82 64.25 83.12 64.41C83.4 64.58 83.67 64.76 83.94 64.94C84.49 65.3 85 65.7 85.51 66.1C86.01 66.51 86.51 66.93 86.96 67.39C87.41 67.86 87.82 68.34 88.23 68.84C89.85 70.83 91.21 72.98 92.31 75.27C93.58 78 95.04 80.74 96.14 83.58C97.31 86.71 98.27 89.89 99.24 93.04C99.83 94.98 100.45 96.9 101.09 98.8C102.09 101.67 103.19 104.53 104.58 107.19C105.14 108.21 105.7 109.23 106.37 110.17L107.34 111.6L108.38 112.98C108.68 113.38 109 113.76 109.26 114.2C110.35 115.74 110.51 116.39 110.36 117.04C110.33 117.19 110.32 117.36 110.27 117.47C110.19 117.66 109.97 117.65 109.61 117.47C109.26 117.3 108.76 116.99 108.23 116.48C107.84 116.11 107.41 115.75 107.04 115.35C106.66 114.95 106.34 114.51 105.98 114.09C105.27 113.24 104.65 112.31 104.02 111.38C102.77 109.51 101.71 107.48 100.72 105.43C99.3 102.36 98.14 99.19 97.1 96.03L97.17 96L97.18 96.01Z" fill="#231F20"/>
<path d="M52.3498 82.16C52.1298 82.24 52.0298 82.28 51.6998 82.39C51.4098 82.47 51.1198 82.55 50.8298 82.59C50.2498 82.67 49.6998 82.64 49.1698 82.57C48.1098 82.43 47.2398 81.82 46.7798 80.93C46.6598 80.63 46.5498 80.33 46.5398 80.01C46.5298 79.62 46.5598 79.23 46.7298 78.83L47.1998 77.89L47.4898 77.44L47.6898 77.15C47.9498 76.8 48.2098 76.45 48.4798 76.11C49.0198 75.43 49.5898 74.77 50.1698 74.13C50.6798 73.55 51.1798 72.98 51.6798 72.41C52.0098 72.06 52.2898 71.64 52.6798 71.35C53.0898 71.07 53.5498 70.85 54.0398 70.68C54.3498 70.58 54.5598 70.87 54.6898 71.38C54.8098 71.88 54.9598 72.68 54.7898 73.22C54.7398 73.33 54.7098 73.46 54.6598 73.56L54.4498 73.83L54.0398 74.36L53.2098 75.41C52.6098 76.07 51.9298 76.68 51.2398 77.32C50.8198 77.7 50.4998 78.16 50.1998 78.64L49.8198 79.29C49.8198 79.29 49.7898 79.34 49.7898 79.37C49.6898 79.6 49.8498 79.82 50.0398 79.92C50.2398 80.02 50.4898 80.06 50.7598 80.01C50.8698 79.99 50.8898 79.99 51.0698 79.93C51.2298 79.87 51.3898 79.8 51.5498 79.73C51.8698 79.58 52.1898 79.39 52.5098 79.18C53.4898 78.52 54.5398 77.86 55.4898 77.12C56.2398 76.56 56.8198 75.79 57.5398 75.2C57.6998 75.08 57.8398 74.93 58.0198 74.82C58.1798 74.72 58.3198 74.64 58.4498 74.6C58.5898 74.56 58.7298 74.58 58.8498 74.6C59.0998 74.65 59.3098 74.77 59.5498 74.98C59.6598 75.08 59.7798 75.16 59.8698 75.26C60.1698 75.57 60.1698 76.11 59.9298 76.74C59.6898 77.12 59.4298 77.48 59.1698 77.84C58.9098 78.2 58.5498 78.43 58.2198 78.71C57.5398 79.24 56.8098 79.72 56.0598 80.18C55.5098 80.52 54.9498 80.85 54.3798 81.18C53.7898 81.52 53.1398 81.89 52.3998 82.22L52.3698 82.16H52.3498Z" fill="#231F20"/>
<path d="M74.8798 45.22C74.9298 42.75 74.9298 40.27 74.9098 37.78C74.9098 36.87 74.8098 35.97 74.8098 35.06C74.8098 31.85 74.8098 28.64 74.8098 25.44C74.8098 24.02 74.7898 22.58 74.7398 21.17C74.7098 20.26 74.6898 19.35 74.6598 18.44C74.6698 17.98 74.7498 17.53 74.8098 17.07C74.8598 16.61 75.0598 16.16 75.1798 15.71C75.3698 15.15 75.4898 15.23 75.8398 15.71C76.0698 16.03 76.3298 16.37 76.5698 16.7C76.8298 17.11 77.0198 17.59 77.1298 18.1C77.2698 19.93 77.3098 21.76 77.3698 23.6C77.4098 25.44 77.3298 27.29 77.2498 29.15C77.1298 31.38 77.3698 33.69 77.4198 35.97C77.4798 38.48 77.5098 40.99 77.5098 43.51L77.4698 48.16C77.4498 50.51 77.3198 52.87 77.2698 55.2C77.2098 57.01 77.2898 58.81 77.2398 60.61C77.2398 61.01 77.2498 61.4 77.2098 61.8C77.0398 63.28 76.6798 63.71 76.0198 63.94C75.8698 63.99 75.7198 64.07 75.5698 64.09C75.1098 64.17 74.7298 63.51 74.5798 62.43C74.3798 59.25 74.6198 55.98 74.6698 52.65C74.7298 50.18 74.7998 47.69 74.7898 45.2H74.8598L74.8798 45.22Z" fill="#231F20"/>
<path d="M64.86 64C65.61 64.06 66.37 64.12 67.13 64.15C67.41 64.16 67.68 64.09 67.96 64.11C68.95 64.17 69.96 64.27 70.97 64.45C71.41 64.51 71.86 64.5 72.3 64.58C72.87 64.65 73.44 64.75 73.98 65.02C74.15 65.11 74.1 65.29 73.94 65.52C73.77 65.74 73.49 66.09 73.18 66.21L72.37 66.51C72.1 66.61 71.84 66.73 71.57 66.72C71.04 66.77 70.5 66.78 69.94 66.7C69.27 66.55 68.58 66.74 67.9 66.76C67.14 66.79 66.37 66.79 65.6 66.8C65.12 66.8 64.64 66.8 64.17 66.8C63.44 66.78 62.71 66.71 61.98 66.74C61.42 66.74 60.85 66.95 60.28 66.92C60.15 66.92 60.03 66.94 59.9 66.92C59.43 66.85 59.3 66.61 59.27 66.07C59.27 65.95 59.25 65.83 59.25 65.71C59.25 65.34 59.49 64.95 59.81 64.78C60.28 64.58 60.76 64.27 61.22 64.2C61.69 64.1 62.16 64.05 62.64 64C63.36 63.92 64.09 63.89 64.84 63.92V63.99L64.86 64Z" fill="#231F20"/>
<path d="M26.8302 36.33L22.8602 29.59L22.6302 28.46V28.39L22.6102 28.37V28.36C22.7202 28.38 22.3502 28.3 22.8702 28.41V28.37L22.9002 28.24L22.9602 27.99C22.9702 27.91 23.0002 27.82 23.0402 27.73C23.0702 27.64 23.0902 27.55 23.2002 27.48C23.8402 26.94 24.9602 26.33 25.2402 26.14C26.2902 25.44 27.2902 24.67 28.3302 23.98L29.5702 23.17L30.8602 22.43L33.4202 20.93L35.9502 19.39L38.3502 17.87C38.4402 17.82 38.5202 17.75 38.5602 17.66L38.6402 17.52L38.7702 17.24C39.1702 16.29 39.8202 15.19 40.7802 14.43C40.9102 14.33 41.0002 14.25 41.1602 14.15C41.3402 14.03 41.5102 13.94 41.6702 13.88C41.9902 13.75 42.2702 13.67 42.5502 13.6C43.1102 13.47 43.6302 13.4 44.1502 13.35L45.0602 13.28C45.1302 13.28 45.1902 13.24 45.2502 13.2L45.5002 13.05C45.9902 12.77 46.4602 12.42 46.9702 12.1L48.4902 11.09C48.9902 10.73 49.6002 10.49 50.1702 10.18C50.9402 9.83 50.9602 10.09 50.7402 10.85C50.6302 11.23 50.4702 11.76 50.2502 12.39C50.0002 12.98 49.5902 13.57 49.0402 14.11C48.6702 14.46 48.2902 14.81 47.8502 15.11C47.6402 15.27 47.4102 15.42 47.1802 15.57L46.8202 15.79C46.6602 15.9 46.4202 16.01 46.2102 16.09C45.9902 16.17 45.7902 16.31 45.5502 16.31L45.0002 16.36L44.3802 16.43C43.9702 16.48 43.5802 16.56 43.2602 16.64C43.1102 16.68 42.9702 16.73 42.9202 16.76C42.9002 16.74 42.9202 16.82 42.8702 16.72C42.8002 16.55 42.7002 16.38 42.5902 16.23L42.5002 16.11C42.4002 15.97 43.3602 17.3 42.9502 16.74V16.75L42.9102 16.78L42.8302 16.84C42.6302 17.02 42.4602 17.22 42.2902 17.46C42.1402 17.72 41.9502 17.99 41.7802 18.38L41.6302 18.7C41.5502 18.89 41.4502 19.09 41.3402 19.29C41.1202 19.69 40.8202 20.03 40.4502 20.28L40.0902 20.52L39.8802 20.65L39.4602 20.91L38.6102 21.42L36.8802 22.41C34.1402 23.9 31.5602 25.85 28.7102 27.26C27.8902 27.7 27.0602 28.11 26.2602 28.57L25.7802 28.84C25.5302 28.91 25.7002 29.1 25.7802 29.24L26.1102 29.83L26.7202 30.87L27.9502 32.95L31.2402 38.44C32.9302 41.2 34.6002 43.98 36.3302 46.69C37.6802 48.79 39.1202 50.78 40.5102 52.83C40.8202 53.28 41.1402 53.71 41.3902 54.2C41.8802 55.1 42.1602 55.71 42.2602 56.2C42.3202 56.71 42.2602 57.05 42.1202 57.39C42.0502 57.54 42.0102 57.72 41.9402 57.83C41.8102 58.01 41.5802 57.97 41.2102 57.75C40.8502 57.53 40.3202 57.17 39.8802 56.58C38.4002 54.91 37.2202 52.99 35.9502 51.09C34.7002 49.17 33.4702 47.2 32.2502 45.22C30.4402 42.27 28.6202 39.3 26.8102 36.34L26.8602 36.3L26.8302 36.33Z" fill="#231F20"/>
<path d="M87.63 116.4C87.22 115.42 86.83 114.42 86.38 113.44C86.21 113.08 85.97 112.77 85.8 112.42C85.21 111.16 84.54 109.94 83.85 108.71C83.54 108.17 83.17 107.67 82.79 107.18C82.32 106.54 81.92 105.84 81.56 105.09C81.46 104.85 81.58 104.78 81.88 104.79C82.17 104.81 82.72 104.85 83.16 105.09C83.54 105.31 83.93 105.53 84.27 105.79C84.58 106.08 84.86 106.39 85.14 106.71C85.7 107.34 86.21 108.03 86.55 108.82C86.98 109.75 87.68 110.55 88.19 111.46C88.76 112.45 89.27 113.47 89.74 114.51L90.54 116.45C90.94 117.43 91.28 118.44 91.66 119.41C91.94 120.17 92.33 120.88 92.62 121.65C92.68 121.82 92.77 121.97 92.82 122.15C92.92 122.82 92.79 123.07 92.36 123.33C92.26 123.39 92.16 123.46 92.07 123.5C91.74 123.65 91.35 123.48 91.01 123.09C90.5 122.52 90.18 121.89 89.8 121.28C89.45 120.65 89.08 120.04 88.83 119.37C88.41 118.4 88.03 117.4 87.57 116.43L87.63 116.4Z" fill="#231F20"/>
<path d="M99.7398 108.15C99.2998 108.62 98.8598 109.09 98.3898 109.52C97.8898 109.91 97.4398 110.36 96.9098 110.7C96.5298 110.95 96.2198 111.3 95.8198 111.51C94.4298 112.31 92.9098 112.84 91.3798 113.21C91.0398 113.28 90.6998 113.37 90.3598 113.46C90.0098 113.52 89.6598 113.58 89.3198 113.63C89.0998 113.67 88.8698 113.69 88.6398 113.69C88.4098 113.69 88.1798 113.73 87.9498 113.67C87.4998 113.59 87.0498 113.3 86.6598 113.09C86.4098 112.94 86.4998 112.79 86.7698 112.54C87.0398 112.3 87.4798 111.85 87.8798 111.6C87.9698 111.55 88.0598 111.47 88.1498 111.44L88.4098 111.39C88.5798 111.35 88.7498 111.35 88.9298 111.29C89.1098 111.24 89.2798 111.19 89.4498 111.15C89.6298 111.12 89.8098 111.12 89.9798 111.07C90.3398 110.98 90.6998 110.93 91.0698 110.85C91.4398 110.75 91.8098 110.66 92.1998 110.59C92.6498 110.45 93.0898 110.26 93.4998 110.01C93.8898 109.73 94.3098 109.47 94.6898 109.19C95.1098 108.87 95.5698 108.59 95.9498 108.22L96.5498 107.7C96.7398 107.51 96.9098 107.31 97.0998 107.12C97.5798 106.66 97.9198 106.11 98.3098 105.58C98.5298 105.14 98.7998 104.72 98.9898 104.27C99.1298 103.8 99.3598 103.35 99.3898 102.86C99.4198 102.48 99.4498 102.11 99.3898 101.74L99.1598 100.67C99.1498 100.51 99.0198 100.38 99.0298 100.22C98.9698 99.65 99.1498 99.42 99.7898 99.12C99.9398 99.05 100.08 98.97 100.22 98.91C100.71 98.71 101.19 98.88 101.52 99.4C102.55 100.94 102.32 103 101.74 104.71C101.33 106.03 100.56 107.16 99.7798 108.21L99.7198 108.17L99.7398 108.15Z" fill="#231F20"/>
<path d="M50.8202 23.47C50.5102 24.96 49.1202 24.88 47.9402 24.21C48.4502 24.92 49.2502 26.02 49.2502 26.02C49.2502 26.02 45.7202 26.21 46.0702 26.09C46.2602 26.02 46.7202 25.02 47.0802 24.44C45.7602 25.14 44.1202 24.92 44.0802 23.49C44.0302 21.83 47.3102 18.78 47.3202 18.78C47.4802 19.24 51.1502 21.92 50.8202 23.47Z" fill="#231F20"/>
<path d="M24.8402 39.54C23.2502 39.01 22.4902 40.31 23.1502 41.1C23.9102 42.03 26.9902 42.18 27.0002 42.17C26.5602 41.5 27.5402 38.88 26.6202 38.19C25.7402 37.53 24.6502 38.21 24.8402 39.54Z" fill="#231F20"/>
<path d="M65.5001 41.1C64.6801 43.83 62.1001 43.46 60.0001 42.03C60.8501 43.44 62.0701 45.32 62.0701 45.32C62.0701 45.32 55.4501 45.12 56.1101 44.94C56.4701 44.84 57.5901 43.34 58.3401 42.32C55.7601 43.42 52.7201 42.75 52.8901 40.06C53.0601 36.94 59.6801 31.77 59.6901 31.77C59.9101 32.66 66.3501 38.24 65.5001 41.1Z" fill="#231F20"/>
<path d="M66.27 57.19C66.58 55.7 67.97 55.78 69.15 56.44C68.64 55.73 67.84 54.64 67.84 54.64C67.84 54.64 71.37 54.44 71.02 54.57C70.83 54.64 70.37 55.64 70.02 56.22C71.34 55.52 72.98 55.73 73.02 57.17C73.07 58.83 69.8 61.88 69.79 61.88C69.63 61.42 65.96 58.75 66.28 57.19H66.27Z" fill="#231F20"/>
<path d="M29.4502 28.18L29.2002 32.26L32.7402 33.88L33.0302 29.96L29.4502 28.18Z" fill="#231F20"/>
<path d="M87.98 24.33C87.75 24.36 87.6 24.18 87.47 23.92C87.43 23.83 87.47 23.6 87.54 23.57C87.67 23.52 87.8 23.46 87.93 23.43C88.01 23.41 89.23 23.37 89.65 23.33C90.05 23.29 90.45 23.3 90.85 23.32L93.28 23.41C93.46 23.41 93.64 23.45 93.81 23.5C94.4 23.68 95.01 23.72 95.63 23.73C95.73 23.73 95.83 23.76 95.94 23.69C96.12 23.58 97.77 23.76 97.98 23.85C98.49 24.05 99 24.25 99.51 24.48C99.58 24.51 99.67 24.5 99.72 24.61C99.85 24.87 100.01 24.85 100.17 24.92C100.39 25.01 100.61 25.11 100.82 25.23C100.93 25.29 101.02 25.43 101.12 25.53C101.21 25.63 101.12 25.88 101.08 25.9C100.97 25.97 101.03 26.11 101.02 26.22C101.02 26.26 101.02 26.31 101 26.34C100.99 26.37 100.64 26.49 100.26 26.63C100.06 26.71 99.87 26.78 99.73 26.84C99.58 26.88 99.46 26.9 99.43 26.9C99.41 26.9 98.92 26.9 98.4 26.9C97.89 26.87 97.35 26.83 97.24 26.83C97.12 26.83 97.02 26.76 96.91 26.71C96.86 26.69 95.32 26.6 95.26 26.58C94.95 26.51 94.63 26.49 94.35 26.24C94.29 26.19 94.23 26.18 94.17 26.17C93.63 26.07 93.11 25.88 92.58 25.71C92.31 25.63 92.03 25.58 91.76 25.52C91.71 25.51 91.66 25.47 91.62 25.45C91.56 25.42 91.5 25.39 91.44 25.38C90.79 25.25 90.15 25.03 89.5 24.94C89.35 24.91 88.66 24.62 88.48 24.6C88.38 24.59 88.09 24.34 88 24.35L87.98 24.33Z" fill="#231F20"/>
<path d="M85.2098 15.06C85.2498 15.29 84.9198 15.3 84.3998 15.2C84.2298 15.17 83.7998 14.94 83.7598 14.86C83.6798 14.7 83.5998 14.55 83.5598 14.41C83.5398 14.33 83.6998 13.25 83.7198 12.87C83.7398 12.5 83.8398 12.17 83.9598 11.85C84.2098 11.2 84.4898 10.57 84.7598 9.93C84.8198 9.79 84.9098 9.66 85.0298 9.55C85.4298 9.16 85.6598 8.69 85.8298 8.18C85.8598 8.1 85.9098 8.02 85.8598 7.9C85.7198 7.67 86.4998 6.46 86.6598 6.34C87.0898 6.04 87.3698 5.66 87.7998 5.37C87.8598 5.33 87.8698 5.25 87.9998 5.25C88.2898 5.24 88.3298 5.1 88.4298 4.99C88.5598 4.84 88.7098 4.69 88.8698 4.55C88.9498 4.48 89.0998 4.45 89.2298 4.4C89.3398 4.36 89.5598 4.52 89.5698 4.56C89.6098 4.68 89.7598 4.67 89.8598 4.71C89.8998 4.72 89.9398 4.74 89.9698 4.76C89.9998 4.78 90.1298 6.12 90.1298 6.25C90.1098 6.25 90.0998 6.72 89.9698 7.15C89.8598 7.59 89.7498 8.05 89.7398 8.15C89.7298 8.25 89.6398 8.32 89.5598 8.39C89.5398 8.41 89.4698 8.75 89.3898 9.1C89.2998 9.44 89.1798 9.76 89.1598 9.79C88.9998 10.02 88.9698 10.31 88.6198 10.44C88.5498 10.47 88.5398 10.52 88.5198 10.57C88.3398 11.01 88.0298 11.38 87.7598 11.77C87.6198 11.97 87.5398 12.2 87.4198 12.41C87.3998 12.45 87.3498 12.47 87.3098 12.5C87.2698 12.54 87.2098 12.57 87.1898 12.62C86.9598 13.15 86.5298 13.57 86.3298 14.11C86.2798 14.23 85.7298 14.66 85.6798 14.81C85.6498 14.89 85.1898 14.97 85.2098 15.07V15.06Z" fill="#231F20"/>
<path d="M45.6599 65.21C45.6599 65.21 46.0199 60.63 49.8599 59.05C49.8599 59.05 52.2799 58.47 53.4299 59.79C54.4999 61.03 48.9199 60.63 49.1799 62.43C49.4399 64.23 49.8499 65.72 49.8499 65.72L45.6499 65.2L45.6599 65.21Z" fill="#231F20"/>
<path d="M38.96 38.17C38.88 33.53 38.84 28.88 38.96 24.22C38.97 22.52 39.04 20.82 39.03 19.1C39.01 18.77 39.07 18.44 39.08 18.11C39.09 17.92 39.11 17.82 39.11 17.57L39.13 16.72C39.29 16.49 39.29 16.21 39.38 15.96C39.51 15.88 39.48 15.71 39.58 15.61C39.67 15.51 39.75 15.4 39.86 15.31C40.07 15.14 40.28 14.97 40.54 14.86C40.78 14.72 41.04 14.62 41.3 14.53L41.69 14.39L41.96 14.32C42.14 14.27 42.32 14.22 42.49 14.18C42.84 14.1 43.18 14.02 43.52 13.96C44.88 13.7 46.22 13.52 47.56 13.36C50.23 13.06 52.89 12.85 55.56 12.73C58.21 12.58 60.87 12.44 63.5 12.29C65.19 12.19 66.88 12.13 68.58 12.13C70.28 12.15 71.98 12.09 73.66 12.76C74.7 13.13 74.56 13.18 73.66 13.65C73.21 13.87 72.57 14.32 71.82 14.68C71.06 15 70.18 15.16 69.22 15.22C62.44 15.56 55.67 15.9 48.82 16.25C47.41 16.34 45.98 16.5 44.59 16.76C43.91 16.89 43.21 17.04 42.61 17.23C42.48 17.27 42.37 17.31 42.27 17.38C42.16 17.44 42.1 17.56 42.18 17.7L42.16 17.86L42.13 18.3C42.1 18.62 42.11 18.94 42.05 19.26C41.93 19.89 41.94 20.54 41.91 21.18C41.7 25.79 41.66 30.44 41.71 35.08C41.76 37.94 41.81 40.8 41.93 43.66C42.09 47.99 42.28 52.35 42.63 56.63C42.77 58.3 42.95 59.94 43.16 61.58L43.32 62.8L43.4 63.41L43.46 63.74L43.52 64.02L43.55 64.14C43.55 64.14 43.64 64.15 43.68 64.16C43.88 64.19 43.99 64.15 44.24 64.16C44.96 64.25 45.67 64.31 46.39 64.47C49.05 65.03 49.87 65.4 50.36 66.07C50.47 66.22 50.63 66.38 50.69 66.52C50.89 66.98 49.74 67.18 47.72 67.13C46.97 67.11 46.22 67.09 45.46 67.06C45.08 67.06 44.7 67 44.33 66.97L43.76 66.91L42.73 66.77C42.33 66.76 42.11 66.58 41.82 66.46L41.4 66.26L41.3 66.21L41.26 66.1L41.18 65.88C40.95 65.31 40.86 64.63 40.69 64L40.63 63.76L40.61 63.61L40.57 63.32L40.5 62.74L40.36 61.58C40.01 58.49 39.76 55.37 39.56 52.23C39.25 47.57 39.07 42.88 38.92 38.19H38.99L38.96 38.17Z" fill="#231F20"/>
<path d="M60.9301 81.68C58.7401 78.02 55.8601 74.76 53.0001 71.34C51.9601 70.09 50.8601 68.87 49.8701 67.53L49.2301 66.64C49.0001 66.33 48.7801 65.96 48.5601 65.6C48.3401 65.24 48.1301 64.85 47.9601 64.41C47.8801 64.19 47.8001 63.96 47.7401 63.7C47.6501 63.42 47.6401 63.1 47.6201 62.8C47.6201 62.19 47.8001 61.59 48.1201 61.08C48.2001 60.95 48.2901 60.83 48.3801 60.72C48.4701 60.62 48.5501 60.54 48.6301 60.45C48.7901 60.28 48.9601 60.11 49.1601 59.96C49.9201 59.33 50.9401 58.92 51.9101 58.87C53.8701 58.79 55.3801 59.58 56.7001 60.35C58.0201 61.16 59.1701 62.11 60.2601 63.09C62.1901 64.85 63.9701 66.69 65.7501 68.41C66.8801 69.5 68.0501 70.49 69.3101 71.2C69.9401 71.55 70.5701 71.87 71.2301 72.16C71.5601 72.32 71.9101 72.42 72.2501 72.54C72.6001 72.64 72.9401 72.9 73.3201 73.02C74.2501 73.43 74.1801 73.47 73.2801 73.95C73.0501 74.08 72.7701 74.22 72.4301 74.38C72.0801 74.63 71.7001 74.62 71.2601 74.71C70.8201 74.79 70.3401 74.77 69.8301 74.74C69.5701 74.7 69.3101 74.66 69.0501 74.62C68.8001 74.54 68.5501 74.43 68.3001 74.32C66.5301 73.47 65.0901 72.26 63.8301 71.08C62.5801 69.89 61.4901 68.72 60.3501 67.55C59.2401 66.4 58.1201 65.3 56.9401 64.32C55.7801 63.35 54.5301 62.46 53.3401 62.02C52.6301 61.77 51.9901 61.72 51.5101 61.95C51.2601 62.07 51.0101 62.22 50.7901 62.49C50.6101 62.67 50.5901 62.78 50.5801 62.96C50.5801 63.06 50.6101 63.43 50.7501 63.8C50.8701 64.17 51.0801 64.56 51.3501 64.9C51.9301 65.69 52.5401 66.49 53.1601 67.26C55.8701 70.7 58.9601 73.99 61.5801 77.73C63.2001 80.03 64.5401 82.47 65.9101 84.84C66.9501 86.63 67.9901 88.41 69.1701 90.06C70.3501 91.73 71.6501 93.22 73.2601 94.39C75.7401 96.24 78.6301 97.38 81.5801 98.07C82.2401 98.2 82.8801 98.32 83.5401 98.43C85.9901 98.87 86.7601 99.1 87.3001 99.74C87.4201 99.89 87.5901 100.03 87.6601 100.17C87.9101 100.61 86.8201 101.06 84.7901 101.1C81.8001 101.05 78.7501 100.27 75.8801 98.98C73.0201 97.67 70.2801 95.74 68.1901 93.16C65.1801 89.48 63.2001 85.35 60.8801 81.69L60.9301 81.65V81.68Z" fill="#231F20"/>
</svg>
