<svg width="128" height="128" viewBox="0 0 128 128" fill="none" xmlns="http://www.w3.org/2000/svg">
<path d="M103.36 68.74C104.933 71.7733 106.577 74.7733 108.29 77.74C108.93 78.81 109.6 79.86 110.29 80.92C112.55 84.69 114.94 88.39 117.51 91.92C118.64 93.51 119.88 95.03 121.08 96.55C121.86 97.55 122.7 98.43 123.49 99.39C123.89 99.87 124.29 100.33 124.68 100.89C124.959 101.396 125.295 101.869 125.68 102.3C126.18 102.71 126.07 102.95 125.3 102.82C124.802 102.674 124.341 102.421 123.95 102.08L123.25 101.51C122.976 101.308 122.724 101.076 122.5 100.82C121.64 99.82 120.76 98.93 119.91 97.96C119.06 96.99 118.25 95.96 117.45 94.96C115.91 92.9 114.45 90.8 113.02 88.62C111.35 86.02 109.5 83.39 107.82 80.71C106 77.71 104.24 74.71 102.58 71.71C101.58 69.84 100.58 67.94 99.5799 66.05C98.0899 63.18 96.6999 60.24 95.2899 57.36C94.2751 55.1815 92.9514 53.1607 91.3599 51.36C91.0634 51.0445 90.7273 50.7689 90.3599 50.54C90.2462 50.4844 90.1214 50.4554 89.9949 50.4554C89.8683 50.4554 89.7435 50.4844 89.6299 50.54L89.2499 50.65L88.7499 50.75C88.578 50.7857 88.4045 50.8124 88.2299 50.83C87.9699 50.83 87.8299 50.6 87.8399 50.13C87.8489 49.9896 87.8793 49.8513 87.9299 49.72C87.9796 49.5336 88.0682 49.3598 88.1899 49.21C88.4797 48.7499 88.9337 48.4174 89.4599 48.28C89.9125 48.1652 90.389 48.186 90.8299 48.34C91.0606 48.4058 91.2822 48.4998 91.4899 48.62C91.6717 48.73 91.8425 48.8573 91.9999 49C92.5353 49.383 93.0222 49.8296 93.4499 50.33C94.2402 51.2481 94.9464 52.2354 95.5599 53.28C96.1699 54.28 96.7299 55.37 97.2399 56.43L98.7399 59.55C100.25 62.64 101.74 65.73 103.41 68.76L103.36 68.74Z" fill="#231F20"/>
<path d="M84.3098 49.88C83.9469 49.1149 83.5361 48.3734 83.0798 47.66C82.9098 47.41 82.6898 47.19 82.5098 46.93L81.9998 46.26C81.8945 46.1068 81.7582 45.9773 81.5998 45.88C81.191 45.5728 80.7396 45.3269 80.2598 45.15C79.8577 45.0006 79.4257 44.9492 78.9998 45C78.8114 45.0266 78.6344 45.1064 78.4898 45.23C78.3757 45.3604 78.2844 45.5092 78.2198 45.67C78.1398 45.8 77.7598 45.83 77.4098 45.61C77.2013 45.4861 77.0449 45.2906 76.9698 45.06C76.9271 44.9057 76.9221 44.7435 76.9552 44.5869C76.9882 44.4303 77.0584 44.2839 77.1598 44.16C77.3563 43.9129 77.6013 43.7087 77.8798 43.56C78.1177 43.444 78.3698 43.3599 78.6298 43.31C79.0666 43.2352 79.513 43.2352 79.9498 43.31C80.7077 43.4258 81.4351 43.6909 82.0898 44.09C82.5498 44.3356 82.9794 44.6343 83.3698 44.98C83.6719 45.2718 83.959 45.5789 84.2298 45.9C84.8123 46.6138 85.3468 47.3655 85.8298 48.15C86.1298 48.62 86.4098 49.15 86.6898 49.6C87.1098 50.35 87.4498 51.14 87.8398 51.89C88.1498 52.48 88.5498 53.02 88.8398 53.61C88.9098 53.74 88.9898 53.87 89.0498 54.01C89.2398 54.53 89.0498 54.76 88.5198 55.01L88.1398 55.18C87.9602 55.25 87.7651 55.2703 87.575 55.2386C87.3849 55.2069 87.2069 55.1245 87.0598 55C86.3694 54.1423 85.8069 53.189 85.3898 52.17C85.0198 51.44 84.6598 50.68 84.2598 49.94L84.3098 49.88Z" fill="#231F20"/>
<path d="M76.6197 46.6599C76.1692 45.6523 75.6269 44.6882 74.9997 43.7799C74.7597 43.4899 74.4897 43.1899 74.2297 42.9299C74.0142 42.6794 73.7802 42.4454 73.5297 42.2299C73.303 42.0111 73.0513 41.8197 72.7797 41.6599C72.2445 41.3339 71.6261 41.1706 70.9997 41.1899C70.4506 41.2125 69.9254 41.4204 69.5097 41.7799C69.0077 42.2986 68.6433 42.9346 68.4497 43.6299C68.3597 43.8499 68.0397 43.8199 67.7597 43.5399C67.5656 43.3613 67.428 43.1298 67.364 42.8739C67.3001 42.6179 67.3125 42.3489 67.3997 42.0999C67.5858 41.549 67.8898 41.0454 68.2905 40.6239C68.6912 40.2025 69.1789 39.8736 69.7197 39.6599C70.7835 39.2809 71.9511 39.3166 72.9897 39.7599C74.1321 40.2258 75.1568 40.9397 75.9897 41.8499C76.8107 42.7887 77.5157 43.8228 78.0897 44.9299C78.4497 45.5799 78.7797 46.2599 79.0897 46.9299C79.5597 47.9299 79.9697 48.9899 80.4297 49.9999C80.7797 50.7799 81.2397 51.4999 81.6297 52.2599C81.7197 52.4299 81.8197 52.5799 81.8897 52.7499C82.1697 53.3899 82.1197 53.6399 81.5997 53.9899C81.4945 54.0733 81.3843 54.1501 81.2697 54.2199C81.0692 54.3235 80.8368 54.3471 80.6196 54.2858C80.4024 54.2245 80.2165 54.083 80.0997 53.8899C79.2677 52.595 78.5643 51.2218 77.9997 49.7899C77.5497 48.7299 77.0997 47.6799 76.5897 46.6799L76.6197 46.6599Z" fill="#231F20"/>
<path d="M64.52 55.57L66.44 58.86L67.44 60.49L68.01 61.42C68.31 61.92 68.63 62.42 69.01 62.93C69.15 63.24 69.31 63.57 69.42 63.85V64.5C69.3939 64.7362 69.304 64.9609 69.16 65.15C68.9983 65.3342 68.801 65.4838 68.58 65.59C68.0262 65.8163 67.4216 65.8889 66.83 65.8C66.47 65.8 66.1 65.71 65.72 65.64C65.53 65.64 65.35 65.56 65.16 65.52L64.67 65.4C62.98 64.98 61.36 64.47 59.75 63.92C58.96 63.65 58.12 63.34 57.37 63.06C56.62 62.78 55.84 62.55 55.05 62.33C53.5115 61.8626 51.9357 61.528 50.34 61.33C49.6135 61.2287 48.8765 61.2287 48.15 61.33C47.8982 61.3679 47.6567 61.4563 47.44 61.59C47.3902 61.6208 47.3487 61.6634 47.3191 61.7139C47.2894 61.7644 47.2726 61.8214 47.27 61.88C47.09 62.94 47.88 64.23 48.99 65.3C51.097 67.2339 53.4549 68.8753 56 70.18C58.59 71.57 61.26 72.79 64 74.18C64.7346 74.5335 65.4344 74.9553 66.09 75.44C66.6785 75.9603 67.2362 76.5146 67.76 77.1L70.76 80.41C72.7013 82.5618 74.7861 84.5798 77 86.45C77.9814 87.2439 79.0401 87.9374 80.16 88.52C80.7164 88.7999 81.2872 89.0503 81.87 89.27C82.5201 89.5072 83.1576 89.7775 83.78 90.08C86.1897 91.3071 88.4398 92.8251 90.48 94.6C93.0737 96.8072 95.5035 99.2002 97.75 101.76C99.9987 104.279 102.112 106.916 104.08 109.66C105.31 111.36 104.86 111.37 103.38 110.3C102.64 109.76 101.64 108.95 100.47 107.94C99.3 106.93 98.08 105.65 96.79 104.24C94.5427 101.731 92.1626 99.3443 89.66 97.09C87.2799 94.8718 84.5411 93.073 81.56 91.77C80.93 91.49 79.85 91.13 79.05 90.7C78.2223 90.2735 77.4239 89.7924 76.66 89.26C75.1934 88.2111 73.8124 87.0474 72.53 85.78C70 83.3 67.89 80.47 65.62 78C65.3079 77.6461 64.9739 77.3121 64.62 77C64.2542 76.7279 63.8661 76.4871 63.46 76.28C62.58 75.8 61.64 75.34 60.7 74.88C58.82 74 56.89 73.06 55 72.05C53.0619 71.0521 51.2001 69.9123 49.43 68.64C48.5148 67.9749 47.6673 67.2213 46.9 66.39C46.03 65.4892 45.4127 64.3751 45.11 63.16C45.0378 62.8112 45.001 62.4561 45 62.1C45 61.92 45 61.75 45 61.56C45.0442 61.339 45.1147 61.1241 45.21 60.92C45.3984 60.5163 45.692 60.1709 46.06 59.92C46.3644 59.7032 46.7022 59.5377 47.06 59.43C48.2616 59.1394 49.5087 59.0884 50.73 59.28C52.9756 59.5786 55.1863 60.0977 57.33 60.83C59.45 61.6 61.44 62.3 63.54 62.9C64.06 63.05 64.54 63.19 65.09 63.31C65.33 63.37 65.55 63.42 65.79 63.46C65.9064 63.4702 66.0236 63.4702 66.14 63.46C66.25 63.46 66.43 63.46 66.44 63.33C66.3469 63.114 66.2294 62.9094 66.09 62.72L65.58 61.89C62.73 57 59.91 52 57 47C54.7355 43.2389 52.9547 39.207 51.7 35C51.37 33.95 51.07 32.9 50.81 31.84C50.5127 30.7618 50.3021 29.6616 50.18 28.55C50.0254 27.4152 50.0254 26.2647 50.18 25.13C50.2354 24.8185 50.3225 24.5136 50.44 24.22C50.5783 23.8665 50.7896 23.5462 51.06 23.28C51.3478 23.0306 51.6967 22.8622 52.0709 22.7919C52.4452 22.7217 52.8313 22.752 53.19 22.88C54.0867 23.1799 54.9038 23.679 55.58 24.34C56.2194 24.9525 56.8018 25.6219 57.32 26.34C58.3018 27.7163 59.1968 29.1524 60 30.64C61.56 33.49 63.41 36.24 65.19 39.01L67.57 42.65C70.57 47.24 71.27 48.84 71.35 50.15C71.3734 50.4428 71.3734 50.7371 71.35 51.03C71.2 51.72 69.77 50.03 67.55 46.7C65.91 44.25 64.22 41.77 62.55 39.22C61.7233 37.9533 60.9 36.6633 60.08 35.35C59.27 34.07 58.45 32.64 57.74 31.35C57.0465 30.0438 56.2681 28.7844 55.41 27.58C54.7182 26.5238 53.7636 25.6657 52.64 25.09H52.51C52.4318 25.2756 52.378 25.4705 52.35 25.67C52.2973 25.9807 52.2672 26.2949 52.26 26.61C52.2463 28.0373 52.4246 29.4601 52.79 30.84C53.8467 35.2456 55.442 39.5044 57.54 43.52L64.54 55.6L64.52 55.57Z" fill="#231F20"/>
<path d="M112.18 101.63C111.62 102.09 110.99 102.47 110.39 102.88C109.761 103.247 109.113 103.581 108.45 103.88C107.96 104.07 107.45 104.34 107 104.5C106.113 104.758 105.207 104.938 104.29 105.04C103.84 105.04 103.39 105.17 102.94 105.17H101.59C100.79 105.17 100.01 105.08 99.2196 105.08C98.2118 105.097 97.2124 104.895 96.2896 104.49C95.9996 104.36 96.1096 104.03 96.4396 103.69C96.8056 103.284 97.2997 103.016 97.8396 102.93L100.63 103.05C101.1 103.05 101.55 103.05 102.01 103.05C102.476 103.08 102.943 103.08 103.41 103.05C104.548 102.978 105.663 102.696 106.7 102.22C107.286 102.005 107.854 101.744 108.4 101.44C108.67 101.28 108.96 101.14 109.23 100.97L110 100.43C110.326 100.209 110.633 99.9612 110.92 99.69C111.223 99.4418 111.51 99.1746 111.78 98.89C112.631 98.036 113.376 97.0824 114 96.05C114.405 95.2196 114.739 94.3566 115 93.47C115.07 93.27 115.11 93.07 115.19 92.88C115.55 92.21 115.88 92.08 116.44 92.13H116.76C117 92.13 117.36 92.64 117.36 93.29C117.1 95.1769 116.345 96.9611 115.17 98.46C114.3 99.6415 113.293 100.716 112.17 101.66L112.18 101.63Z" fill="#231F20"/>
<path d="M116.42 104C116.37 103.869 116.299 103.748 116.21 103.64C116.162 103.571 116.091 103.521 116.01 103.5C115.977 103.502 115.945 103.512 115.915 103.527C115.886 103.543 115.86 103.564 115.84 103.59C115.794 103.642 115.762 103.706 115.748 103.774C115.734 103.843 115.738 103.914 115.76 103.98C115.786 104.061 115.823 104.138 115.87 104.21L115.93 104.33V104.43V104.5L116.01 104.72C116.211 105.225 116.299 105.767 116.27 106.31C116.27 106.57 116.19 106.85 116.13 107.09C116.06 107.359 115.956 107.618 115.82 107.86C115.605 108.294 115.254 108.645 114.82 108.86C114.325 109.055 113.775 109.055 113.28 108.86C112.797 108.654 112.361 108.351 112 107.97C111.87 107.84 111.76 107.71 111.65 107.59L111.49 107.4C111.49 107.34 111.49 107.4 111.49 107.34L111.36 107.14L111.07 106.66C110.956 106.475 110.826 106.301 110.68 106.14C110.594 106.068 110.49 106.02 110.379 106.001C110.269 105.981 110.155 105.991 110.05 106.03C109.96 106.068 109.885 106.135 109.836 106.22C109.787 106.305 109.768 106.403 109.78 106.5C109.821 106.698 109.888 106.89 109.98 107.07L110.28 107.7L110.35 107.88L110.46 108.18C110.52 108.389 110.56 108.603 110.58 108.82C110.595 108.953 110.595 109.087 110.58 109.22C110.548 109.394 110.501 109.564 110.44 109.73C110.287 110.03 110.042 110.272 109.74 110.42C109.613 110.476 109.483 110.522 109.35 110.56H109.06C108.847 110.59 108.632 110.59 108.42 110.56C108.216 110.516 108.018 110.449 107.83 110.36C107.286 110.06 106.798 109.668 106.39 109.2C105.99 108.79 105.74 108.45 105.39 108.12C105.27 107.982 105.132 107.861 104.98 107.76C104.91 107.711 104.824 107.689 104.74 107.7C104.64 107.7 104.59 107.84 104.54 107.91C104.455 108.248 104.502 108.605 104.67 108.91L105.07 109.78C105.087 109.818 105.096 109.859 105.096 109.9C105.096 109.941 105.087 109.982 105.07 110.02C105.068 110.065 105.054 110.108 105.03 110.145C105.005 110.182 104.97 110.211 104.93 110.23C104.75 110.23 104.53 110.23 104.01 109.95C103.223 109.415 102.545 108.736 102.01 107.95C101.714 107.535 101.485 107.076 101.33 106.59C101.227 106.229 101.207 105.85 101.27 105.48C101.392 104.949 101.651 104.46 102.02 104.06C102.154 103.936 102.298 103.822 102.45 103.72C102.604 103.633 102.769 103.566 102.94 103.52C103.18 103.467 103.429 103.467 103.67 103.52C104.301 103.633 104.879 103.945 105.32 104.41C106.101 105.2 106.838 106.031 107.53 106.9L108.08 107.49L108.35 107.77C108.479 107.886 108.616 107.993 108.76 108.09C108.76 108.14 108.85 107.99 108.76 108.38C108.76 108.5 108.76 108.63 108.7 108.68V108.76C108.7 109.37 108.7 107.93 108.7 108.08C108.716 108.196 108.743 108.309 108.78 108.42C108.792 108.513 108.792 108.607 108.78 108.7C108.78 108.76 108.78 108.83 108.85 108.9C108.886 108.968 108.93 109.032 108.98 109.09C108.98 109.09 108.91 109.04 108.88 109.04C108.834 109.031 108.786 109.031 108.74 109.04H108.67H108.5C108.294 109.025 108.087 109.049 107.89 109.11C107.89 109.11 107.89 109.05 107.89 108.96C107.798 108.715 107.688 108.478 107.56 108.25L107.16 107.49C106.665 106.68 106.326 105.784 106.16 104.85C106.099 104.307 106.16 103.756 106.34 103.24C106.503 102.819 106.767 102.444 107.11 102.15C107.482 101.828 107.941 101.623 108.43 101.56C108.839 101.506 109.255 101.568 109.63 101.74C109.983 101.901 110.318 102.099 110.63 102.33C111.559 103.217 112.397 104.195 113.13 105.25L113.46 105.64L113.64 105.83C113.76 105.95 113.88 106.08 113.98 106.16C114.044 106.217 114.115 106.267 114.19 106.31C114.108 106.496 114.047 106.69 114.01 106.89C114.01 107.02 114.01 107.07 114.01 107.01L113.9 106.88C113.821 106.804 113.738 106.734 113.65 106.67L113.47 106.56C113.503 106.459 113.53 106.355 113.55 106.25C113.565 106.161 113.565 106.069 113.55 105.98C113.561 105.931 113.561 105.879 113.55 105.83V105.74L113.43 105.55C113.041 104.966 112.683 104.362 112.36 103.74C112.127 103.236 111.972 102.7 111.9 102.15C111.775 101.108 111.996 100.054 112.53 99.15C112.652 98.9236 112.822 98.7261 113.027 98.5709C113.232 98.4156 113.469 98.3062 113.72 98.25C114.163 98.2217 114.606 98.3262 114.99 98.55C115.528 98.8547 116.014 99.2429 116.43 99.7C116.968 100.294 117.462 100.925 117.91 101.59L118.61 102.59C118.82 102.88 118.94 103.04 119.1 103.24C119.157 103.321 119.221 103.398 119.29 103.47C119.29 103.39 119.15 103.62 119.07 103.78C118.991 103.875 118.936 103.989 118.91 104.11C118.91 104.11 118.91 104.11 118.91 104.17C118.88 104.162 118.849 104.162 118.82 104.17C118.717 104.157 118.613 104.157 118.51 104.17C118.446 104.167 118.383 104.167 118.32 104.17H118.13L118.03 103.91C117.84 103.49 117.56 103.01 117.29 102.54L116.29 100.89C115.521 99.6862 114.935 98.3754 114.55 97C114.405 96.4794 114.374 95.9336 114.46 95.4C114.52 95.0941 114.659 94.8091 114.862 94.5726C115.066 94.336 115.327 94.156 115.62 94.05C115.946 93.9539 116.293 93.9539 116.62 94.05C116.855 94.1192 117.075 94.2311 117.27 94.38C117.867 94.6773 118.427 95.0431 118.94 95.47C119.62 96.11 120.33 96.81 121.07 97.47C121.5 97.85 121.7 98.01 121.94 98.21L122.67 98.81L123.97 99.81C125.58 101.08 125.97 101.57 125.88 102.46C125.89 102.663 125.89 102.867 125.88 103.07C125.78 103.68 124.65 103.65 123.29 102.78C121.48 101.7 118.71 99.27 119.29 99.96C119.22 99.96 119.29 100.15 119.29 100.13L119.42 100.37L120.09 101.6C120.357 102.087 120.591 102.591 120.79 103.11L120.88 103.42C120.921 103.574 120.951 103.731 120.97 103.89C120.98 104.03 120.98 104.17 120.97 104.31V104.42C120.97 104.49 120.97 104.56 120.97 104.63C120.97 104.7 120.88 104.9 120.83 105.03C120.665 105.372 120.409 105.663 120.09 105.87C119.678 106.124 119.187 106.22 118.71 106.14C118.49 106.099 118.277 106.025 118.08 105.92C118.015 105.891 117.955 105.854 117.9 105.81L117.78 105.73C117.668 105.642 117.562 105.549 117.46 105.45C117.338 105.324 117.225 105.19 117.12 105.05C116.93 104.81 116.8 104.62 116.66 104.41L116.54 104.24V104.17L116.42 104Z" fill="#231F20"/>
<path d="M8.69967 41.9999L8.13967 42.1799C7.84757 42.268 7.55034 42.3382 7.24967 42.3899C6.93967 42.3899 6.62967 42.3899 6.30967 42.4599C6.02389 42.4525 5.73938 42.419 5.45967 42.3599C5.32878 42.3001 5.20473 42.2264 5.08967 42.1399L4.90967 41.9999L4.99967 41.9199L4.91967 41.8499C4.68967 41.6799 4.69967 41.3699 4.67967 41.0499C4.70014 40.6886 4.77082 40.3318 4.88967 39.9899C4.91382 39.7812 4.95056 39.5742 4.99967 39.3699L5.14967 38.9199C5.44967 38.0999 5.77967 37.3199 6.14967 36.5299L7.14967 34.1999L7.59967 32.9999L7.75967 32.6799L7.57967 32.5699L6.86967 32.1499C6.11967 31.6999 5.35967 31.2399 4.61967 30.7199C4.24967 30.4499 3.87967 30.1799 3.51967 29.8599C3.33759 29.7097 3.16399 29.5494 2.99967 29.3799C2.90809 29.2878 2.82131 29.191 2.73967 29.0899C2.64072 28.9699 2.55048 28.8429 2.46967 28.7099C2.14147 28.226 1.94817 27.6634 1.90967 27.0799C1.92494 26.8214 2.00395 26.5706 2.13967 26.3499C2.31243 26.1411 2.52705 25.9708 2.76967 25.8499C3.02432 25.7128 3.2924 25.6022 3.56967 25.5199L3.77967 25.4499H3.90967L4.17967 25.3799C4.88967 25.1899 5.57967 25.0599 6.26967 24.9299C6.95967 24.7999 7.65967 24.6899 8.34967 24.5899L9.34967 24.4399L9.96967 24.3599C10.011 24.3084 10.0446 24.2511 10.0697 24.1899L10.2897 23.7799L10.7997 22.7799C11.1497 22.1199 11.4997 21.4699 11.8697 20.7799C12.2397 20.0899 12.6097 19.4799 13.0197 18.8399C13.2197 18.5199 13.4297 18.1999 13.6497 17.8399L13.9997 17.3699C14.1297 17.2199 14.2297 17.0699 14.4497 16.8499C14.7587 16.4707 15.1839 16.2037 15.6597 16.0899C15.8986 16.0709 16.1363 16.1384 16.3297 16.2799C16.5411 16.405 16.736 16.5562 16.9097 16.7299C17.1996 17.0099 17.4609 17.3181 17.6897 17.6499C17.9097 17.9399 18.0997 18.2299 18.2897 18.5199C19.0173 19.6747 19.6849 20.8663 20.2897 22.0899C20.6897 22.8599 21.0697 23.6399 21.4397 24.4299L21.6797 24.9499C21.6797 25.0199 21.7297 25.1399 21.8097 25.1699L22.7297 25.3199C24.4197 25.6099 26.1097 25.9399 27.7297 26.3199C29.8197 26.8199 26.8197 28.1099 22.9297 27.4199L21.6297 27.1799L20.4397 26.9999C20.2227 26.6266 20.0387 26.2352 19.8897 25.8299C19.5097 24.9399 19.1897 24.2399 18.8097 23.4399C18.0928 21.9122 17.2778 20.4324 16.3697 19.0099L15.9997 18.5799L15.8197 18.3599C15.8197 18.3599 15.8197 18.2899 15.7497 18.3099C15.6797 18.3299 15.7997 18.1999 15.4597 18.6199C15.1197 19.0399 14.9797 19.2699 14.7397 19.6199C13.8197 21.0199 12.9597 22.5499 12.1197 24.0799L11.7397 24.7899L11.4597 25.3299C11.3497 25.5399 11.2397 25.7399 11.1197 25.9399L9.63967 26.1299L8.63967 26.2799C7.95967 26.3799 7.28967 26.4999 6.63967 26.6299C5.98967 26.7599 5.30967 26.9099 4.63967 27.0799L4.23967 27.1999L4.06967 27.2599C3.97967 27.2599 3.82967 27.3699 3.88967 27.4899C3.91272 27.5663 3.95004 27.6375 3.99967 27.6999L4.06967 27.7999L4.23967 28.0099C4.54401 28.3437 4.87879 28.6483 5.23967 28.9199C5.87765 29.4232 6.54554 29.8874 7.23967 30.3099L8.33967 30.9999L10.0897 31.9999L8.84967 34.6999L7.93967 36.7799C7.63967 37.4799 7.35967 38.1799 7.07967 38.8699L6.73967 39.7799C6.73967 39.9299 6.62967 40.0999 6.58967 40.2699C6.54967 40.4399 6.58967 40.4299 6.58967 40.4699H6.79967C6.94567 40.4897 7.09367 40.4897 7.23967 40.4699H7.46967C7.61525 40.4344 7.75879 40.391 7.89967 40.3399C8.48743 40.136 9.06189 39.8955 9.61967 39.6199C10.7589 39.0373 11.852 38.3687 12.8897 37.6199C14.0029 36.8603 15.0439 36.0001 15.9997 35.0499C16.4197 35.4599 16.8897 35.8999 17.2897 36.2599L18.1897 37.0499C18.7997 37.5799 19.4297 38.0499 20.0697 38.5499C20.7107 39.0306 21.3785 39.4747 22.0697 39.8799C22.3997 40.0899 22.7497 40.2499 23.0697 40.4299L23.5897 40.6599C23.7399 40.7218 23.8935 40.7752 24.0497 40.8199C24.2747 40.8961 24.5133 40.9234 24.7497 40.8999C24.8497 40.8999 25.0197 40.8999 25.0097 40.7499C25.0078 40.6283 24.991 40.5074 24.9597 40.3899L24.8697 40.0599L24.7097 39.6199C24.5797 39.2299 24.4297 38.8399 24.2797 38.4499C23.9697 37.6799 23.6497 36.9099 23.2797 36.1399L22.1197 33.4399C21.9197 32.9599 21.6997 32.4399 21.5197 31.9599L23.5197 31.6399L25.4197 31.2899L26.5697 31.1099C27.0463 31.019 27.5382 31.05 27.9997 31.1999C28.1692 31.2398 28.3362 31.2899 28.4997 31.3499C28.7197 31.4399 28.5997 31.7399 28.1297 32.0699C27.4309 32.4987 26.6679 32.8127 25.8697 32.9999L24.4397 33.3499L24.1597 33.4599C24.1597 33.5199 24.2397 33.5799 24.2697 33.6299L24.3197 33.6999C24.3224 33.7198 24.3224 33.74 24.3197 33.7599L24.4197 33.9799L25.1997 35.7799C25.4597 36.3799 25.7097 36.9899 25.9497 37.6199L26.3097 38.6199L26.4797 39.1099L26.5597 39.3599L26.6797 39.7699C27.0697 41.0199 27.1497 42.3199 26.0297 42.6399L25.6797 42.7899C25.5399 42.8004 25.3995 42.8004 25.2597 42.7899C24.9633 42.8099 24.666 42.8099 24.3697 42.7899C24.0287 42.7514 23.6932 42.6742 23.3697 42.5599C23.1811 42.5087 22.9971 42.4418 22.8197 42.3599C21.4963 41.7818 20.2473 41.0465 19.0997 40.1699C18.3897 39.6499 17.7097 39.1699 17.0497 38.5599L16.0497 37.7099L15.9997 37.6099C15.6997 37.8799 15.3797 38.1199 15.0597 38.3799C14.4197 38.8699 13.7697 39.3799 13.0597 39.7699C11.6978 40.6678 10.2426 41.4155 8.71967 41.9999H8.69967Z" fill="#231F20"/>
<path d="M90.4299 38.63L90.6499 39.41C90.7628 39.7801 90.8496 40.1577 90.9099 40.54C90.988 40.8381 90.9962 41.1503 90.9337 41.4522C90.8713 41.754 90.7399 42.0373 90.5499 42.28C90.299 42.4324 90.0303 42.5533 89.7499 42.64C89.4169 42.6608 89.0829 42.6608 88.7499 42.64C88.4121 42.5841 88.0781 42.5073 87.7499 42.41C87.4438 42.3422 87.148 42.2346 86.8699 42.09C86.2598 41.8264 85.6714 41.5155 85.1099 41.16C84.1872 40.5255 83.3024 39.8377 82.4599 39.1C82.0199 38.76 81.5999 38.3933 81.1999 38L80.5999 37.44L80.4099 37.24L80.2699 37.1C80.2017 37.0185 80.1282 36.9417 80.0499 36.87L79.6599 37.24L79.2799 37.58L78.8499 37.95C77.9367 38.8221 76.8816 39.5322 75.7299 40.05C74.9899 40.31 74.8599 38.12 75.9299 37.39C76.4899 37 77.0299 36.6 77.5699 36.19L77.9599 35.89C78.1099 35.77 78.1599 35.74 78.4899 35.45L79.9999 34L81.9999 36L83.0999 37.13C84.18 38.1712 85.39 39.0686 86.6999 39.8C87.0219 39.9972 87.3559 40.1742 87.6999 40.33L87.9699 40.46C88.0446 40.4892 88.1215 40.5126 88.1999 40.53C88.2892 40.5453 88.3805 40.5453 88.4699 40.53C88.5399 40.53 88.6899 40.53 88.6999 40.46C88.7288 40.2912 88.7288 40.1188 88.6999 39.95V39.78C88.6999 39.71 88.6999 39.69 88.6299 39.54L88.4099 38.81C88.2599 38.32 88.0899 37.81 87.9199 37.35L87.1099 35.14L85.9699 32.28C85.9699 32.28 85.8999 32.15 85.9199 32.11C86.7299 31.98 87.5599 31.83 88.3899 31.63C88.9399 31.48 89.4799 31.31 90.0199 31.15L90.7399 30.9C91.6299 30.61 91.8699 30.64 92.2799 31.05C92.3699 31.15 92.4899 31.23 92.5799 31.33C92.8999 31.63 92.5799 32.22 91.8799 32.58C91.1127 32.948 90.3125 33.2426 89.4899 33.46L88.8699 33.62H88.7299C89.3599 35.17 89.9699 36.78 90.5099 38.45L90.4299 38.63Z" fill="#231F20"/>
<path d="M71.8896 24.33L73.1596 24.16L73.7596 24.08H73.8796L73.9396 24.01L74.2096 23.49L74.8196 22.36C75.2196 21.6 75.6396 20.85 76.0796 20.11C76.5394 19.2652 77.0469 18.4472 77.5996 17.66C77.7296 17.48 77.8796 17.29 78.0296 17.11C78.1796 16.93 78.2096 16.9 78.3396 16.77C78.463 16.6363 78.5967 16.5125 78.7396 16.4C78.9892 16.1709 79.2972 16.0152 79.6296 15.95C79.9536 15.9034 80.2835 15.9744 80.5596 16.15C80.7596 16.3 80.9396 16.48 81.1296 16.64C81.2915 16.792 81.4419 16.9558 81.5796 17.13C81.7896 17.4 81.9696 17.67 82.1496 17.93C82.4996 18.47 82.8096 19.01 83.0996 19.55C83.6896 20.64 84.2196 21.75 84.7296 22.86L85.6296 24.86L85.7696 25.18V25.3C85.7696 25.3 85.8496 25.3 85.8896 25.3L86.7196 25.43C88.5597 25.6425 90.3837 25.9766 92.1796 26.43C93.2896 26.76 91.5296 28.27 89.4296 27.91L86.6396 27.4L84.7596 27.04L84.4696 27C84.4129 26.898 84.366 26.7909 84.3296 26.68L84.0596 26.03L83.7396 25.24C83.0296 23.54 82.2796 21.82 81.4596 20.17C81.2206 19.6945 80.9534 19.2337 80.6596 18.79C80.5201 18.5791 80.3699 18.3755 80.2096 18.18C80.1458 18.1131 80.0754 18.0528 79.9996 18C79.9828 17.9824 79.9626 17.9685 79.9403 17.9589C79.918 17.9494 79.8939 17.9445 79.8696 17.9445C79.8453 17.9445 79.8213 17.9494 79.799 17.9589C79.7766 17.9685 79.7564 17.9824 79.7396 18C79.6542 18.0601 79.5798 18.1346 79.5196 18.22C79.1632 18.6628 78.8294 19.1234 78.5196 19.6C77.9296 20.52 77.3696 21.5 76.8296 22.48L75.0496 25.8L73.8196 25.96C72.2796 26.17 70.7196 26.4 69.2196 26.73L68.3796 26.95C68.2058 26.9944 68.0354 27.0512 67.8696 27.12C67.7196 27.17 67.5496 27.28 67.6196 27.46C67.6399 27.6244 67.6981 27.7819 67.7896 27.92C67.9117 28.1159 68.056 28.2971 68.2196 28.46C68.4085 28.6618 68.6125 28.849 68.8296 29.02C69.2679 29.3868 69.7325 29.7211 70.2196 30.02C70.5996 30.27 70.9896 30.49 71.3896 30.71L72.6796 31.38L73.6196 31.86L73.8496 31.99L73.9996 32C73.9996 32 73.9996 32.08 73.9996 32.12L73.8096 32.6L73.1796 34.26C73.0396 34.64 72.9196 35.01 72.7696 35.38C72.2096 36.76 71.9096 37.15 71.3196 37.26C71.1882 37.293 71.0545 37.3164 70.9196 37.33C70.5096 37.33 70.4496 36.64 70.7796 35.58C71.0296 34.79 71.2896 34 71.5696 33.21L71.6796 32.92V32.83C71.6796 32.83 71.5896 32.83 71.5696 32.83H71.4996L71.3496 32.75L70.9996 32.55L70.4296 32.23C70.0396 32.01 69.6596 31.79 69.2796 31.55C68.4602 31.0599 67.6958 30.4833 66.9996 29.83C66.8696 29.69 66.7296 29.56 66.5996 29.4L66.3996 29.15C66.3095 29.0279 66.226 28.9011 66.1496 28.77C65.8172 28.2642 65.6335 27.6751 65.6196 27.07V26.66C65.6996 26.55 65.6996 26.39 65.7796 26.28C65.9308 26.0486 66.1283 25.8512 66.3596 25.7C66.6279 25.5461 66.909 25.4156 67.1996 25.31L67.6196 25.16L67.8896 25.09C69.1784 24.7564 70.4834 24.4894 71.7996 24.29L71.8896 24.33Z" fill="#231F20"/>
<path d="M36.7198 28.0799L36.5198 28.1399H36.4198C36.4198 28.1399 36.3298 28.1399 36.3398 28.2099C36.3306 28.2392 36.3306 28.2706 36.3398 28.2999V28.3599L36.5198 28.5899C36.8268 28.9302 37.1613 29.2445 37.5198 29.5299C38.3273 30.1513 39.1722 30.7223 40.0498 31.2399L40.4298 31.4599L40.9898 31.7799L42.3798 32.5499L41.5098 34.4699C40.7698 36.0599 40.0298 37.6599 39.3498 39.2699L38.9998 40.3999C38.9229 40.5715 38.8594 40.7486 38.8098 40.9299C38.8001 40.9795 38.8001 41.0304 38.8098 41.0799C38.8098 41.1299 38.8898 41.0799 38.9298 41.1299C39.0192 41.1452 39.1105 41.1452 39.1998 41.1299C39.2964 41.1349 39.3932 41.1349 39.4898 41.1299L39.9098 41.0299C41.3432 40.5469 42.7157 39.8992 43.9998 39.0999C45.6698 38.0999 47.2598 36.8899 48.7898 35.7599C49.2498 35.4099 49.5598 35.7599 49.4898 36.4899C49.4056 36.9827 49.2233 37.4535 48.9536 37.8744C48.6839 38.2952 48.3323 38.6576 47.9198 38.9399C46.1951 40.1857 44.341 41.2418 42.3898 42.0899C41.8898 42.2899 41.3898 42.4899 40.8498 42.6599C40.7198 42.6599 40.5898 42.7499 40.4498 42.7799L39.9498 42.9099C39.4957 43.0085 39.034 43.0687 38.5698 43.0899C38.3764 43.0888 38.1842 43.0585 37.9998 42.9999C37.8098 42.9999 37.5798 42.9999 37.4698 42.8399L37.2498 42.6999L37.1498 42.6299C37.0898 42.6299 37.2198 42.5599 37.1498 42.5699H37.0998C37.0348 42.5207 36.9802 42.4592 36.939 42.3888C36.8978 42.3185 36.8709 42.2407 36.8598 42.1599C36.8307 41.3216 37.0129 40.4894 37.3898 39.7399L38.8798 36.2299L39.6298 34.4799L39.9698 33.6999L40.1098 33.4099L39.8198 33.2399L38.9998 32.6999C38.4098 32.3399 37.8298 31.9599 37.2498 31.5599C36.6577 31.1478 36.0962 30.6932 35.5698 30.1999C35.2727 29.8998 35.0141 29.5639 34.7998 29.1999C34.5139 28.7811 34.3417 28.2953 34.2998 27.7899V27.6299C34.2998 26.9799 34.9898 26.6999 35.5798 26.4699L36.0098 26.3299L36.3398 26.2399L36.9798 26.0899C37.8398 25.8899 38.6898 25.7399 39.5298 25.5999L41.0698 25.3599L42.3298 25.1899L43.4198 23.4299L44.6898 21.4299C45.2398 20.5799 45.7798 19.7399 46.3798 18.9199C46.5298 18.7199 46.6898 18.5099 46.8598 18.3099L47.1298 17.9899C47.2598 17.8499 47.3998 17.7299 47.5398 17.5899C47.807 17.3423 48.1241 17.1547 48.4698 17.0399C48.6329 16.9912 48.8058 16.9849 48.9721 17.0216C49.1383 17.0584 49.2924 17.137 49.4198 17.2499C49.6683 17.4799 49.8928 17.7346 50.0898 18.0099L50.5398 18.5699C51.5398 19.8499 51.7198 20.3299 51.5398 20.9199C51.5055 21.056 51.462 21.1897 51.4098 21.3199C51.1998 21.6899 50.5598 21.3199 49.7498 20.4599L48.8698 19.4599C48.6698 19.2299 48.6898 19.2799 48.6498 19.2499C48.6098 19.2199 48.5898 19.2499 48.5598 19.2499C48.5298 19.2499 48.4598 19.3499 48.4398 19.3899L48.3498 19.4999L48.1498 19.7299L47.7598 20.2399C46.7598 21.6299 45.7598 23.1899 44.7598 24.7499L43.4598 26.9099L41.2898 27.2199L39.7298 27.4699C38.7197 27.6287 37.7184 27.839 36.7298 28.0999L36.7198 28.0799Z" fill="#231F20"/>
<path d="M12.3598 40.91C11.4486 41.4833 10.5035 42.0009 9.52982 42.46C9.03982 42.68 8.52982 42.9 8.01982 43.08C7.74982 43.17 7.48982 43.26 7.20982 43.33L6.78982 43.44C6.63982 43.44 6.54982 43.44 6.27982 43.53C5.80207 43.5957 5.31758 43.5957 4.83982 43.53L4.40982 43.3C4.40982 43.2 4.40982 43.23 4.34982 43.18L4.25982 43.09C4.25982 43.02 4.16982 42.97 4.15982 42.89C4.06961 42.5255 4.06961 42.1445 4.15982 41.78C4.2313 41.3636 4.33154 40.9526 4.45982 40.55L4.74982 39.55L5.37982 37.64L6.69982 33.9L6.82982 33.55C6.63982 33.43 5.56982 32.85 4.82982 32.4C4.14181 32.0076 3.48933 31.5559 2.87982 31.05C2.16803 30.4895 1.69901 29.6768 1.56982 28.78C1.56982 28.15 1.99982 28.35 2.42982 28.63C2.95779 28.9038 3.45126 29.2395 3.89982 29.63C4.49699 30.1439 5.13963 30.6025 5.81982 31L6.90982 31.67L8.77982 32.77L8.15982 34.5L7.79982 35.42L7.08982 37.26C6.75018 38.1273 6.45644 39.0119 6.20982 39.91C6.07982 40.36 5.95982 40.82 5.85982 41.26L5.77982 41.63C5.76946 41.7097 5.76946 41.7904 5.77982 41.87C5.77982 41.94 5.86982 41.92 5.90982 41.94C5.99283 41.9505 6.07682 41.9505 6.15982 41.94C6.31516 41.9214 6.4689 41.8913 6.61982 41.85C7.0528 41.7453 7.47732 41.6082 7.88982 41.44C8.74814 41.0978 9.58035 40.6934 10.3798 40.23C11.4731 39.615 12.5193 38.9198 13.5098 38.15C13.7698 37.95 13.9898 37.76 14.2498 37.54C14.5098 37.32 14.9398 36.9 15.2498 36.59L16.2498 37.59L16.9798 38.24C17.4598 38.66 17.9798 39.07 18.4598 39.46C19.6125 40.3346 20.8605 41.076 22.1798 41.67C22.4598 41.81 22.7398 41.87 23.0198 41.99C23.2998 42.11 23.4898 42.12 23.6598 42.19C23.7991 42.2246 23.9361 42.268 24.0698 42.32C24.262 42.4138 24.4272 42.5548 24.5498 42.73C24.6198 42.82 24.7198 42.91 24.7798 43C24.8398 43.09 24.8298 43.31 24.5698 43.46C24.1876 43.6547 23.7528 43.7213 23.3298 43.65C21.8979 43.3512 20.5387 42.7736 19.3298 41.95C18.1236 41.1733 16.9771 40.3076 15.8998 39.36L15.2498 38.8L15.1598 38.88C14.8698 39.14 14.5598 39.37 14.2598 39.61C13.6498 40.08 13.0198 40.52 12.3798 40.94L12.3598 40.91Z" fill="#231F20"/>
<path d="M39.3098 37.8699L38.3098 39.9499L37.8398 40.9499L37.6198 41.4699L37.5098 41.7299V41.7899C37.5098 41.8999 37.3898 42.0999 37.5698 42.0899H37.7498H37.9998H38.3398C38.8144 42.0392 39.2853 41.959 39.7498 41.8499C40.7045 41.651 41.6436 41.3836 42.5598 41.0499C43.3689 40.7687 44.1519 40.4173 44.8998 39.9999C45.8998 39.4399 46.7198 38.7699 47.5898 38.1999C47.8598 38.0199 48.1398 38.3299 48.1898 38.8199C48.2165 39.1319 48.1614 39.4454 48.0298 39.7295C47.8983 40.0136 47.6949 40.2584 47.4398 40.4399C45.4191 41.8063 43.1438 42.7517 40.7498 43.2199L38.8698 43.5899C38.5298 43.5899 38.2298 43.6999 37.8698 43.7199C37.3718 43.7599 36.8707 43.7329 36.3798 43.6399L35.9998 43.4499L35.8398 43.3599C35.8398 43.2599 35.7698 43.2499 35.7498 43.1899C35.4998 42.7699 35.7498 42.1099 35.9198 41.5099C36.0398 41.1499 36.0898 41.0599 36.1698 40.8499L36.4098 40.2999C36.7198 39.5699 37.0598 38.8499 37.4098 38.1399L38.6798 35.5199L39.1198 34.6399L39.3698 34.1499L37.6898 33.1499C36.6583 32.6116 35.6747 31.986 34.7498 31.2799C34.5328 31.1014 34.332 30.904 34.1498 30.6899C33.8711 30.3893 33.6959 30.0073 33.6498 29.5999C33.6388 29.476 33.6665 29.3516 33.7292 29.2441C33.7919 29.1366 33.8865 29.0513 33.9998 28.9999C34.0829 28.9328 34.1779 28.8819 34.2798 28.8499C34.6198 28.7899 34.8498 29.0599 35.1398 29.4099C35.752 30.044 36.4526 30.5862 37.2198 31.0199C37.6298 31.2799 38.0598 31.5299 38.5098 31.7799L40.0098 32.6399L41.4898 33.4599L39.3698 37.8499L39.3098 37.8699Z" fill="#231F20"/>
<path d="M70.5897 33.34C70.8097 33.4 69.9297 32.84 69.4297 32.49C69.2197 32.34 68.9897 32.24 68.7897 32.09C68.0639 31.5471 67.3757 30.9557 66.7297 30.32C66.4397 30.03 66.1197 29.76 65.8297 29.43C65.5909 29.2293 65.4024 28.9756 65.2791 28.6891C65.1558 28.4027 65.1012 28.0913 65.1197 27.78C65.1197 27.56 65.5797 27.64 65.9897 27.72C66.3997 27.8 66.7997 27.8 66.8597 27.92C67.3097 28.611 67.8291 29.2544 68.4097 29.84C68.8447 30.2506 69.3283 30.6066 69.8497 30.9L70.6797 31.46L71.0997 31.75L71.3097 31.88L71.6397 32.09L72.4397 32.58L72.5397 32.64V32.7L72.4397 32.92L72.2397 33.35L71.7397 34.42C71.6097 34.71 71.4797 35 71.3697 35.29C71.2209 35.763 71.0973 36.2437 70.9997 36.73C70.9997 36.83 70.9997 36.94 70.9297 37.04C70.7997 37.42 70.6497 37.49 70.2197 37.41H69.9297C69.7834 37.379 69.6532 37.2961 69.5631 37.1766C69.4731 37.0572 69.4292 36.9092 69.4397 36.76C69.5439 35.8537 69.7902 34.9695 70.1697 34.14L70.3797 33.67L70.4797 33.44L70.5897 33.34Z" fill="#231F20"/>
</svg>
