<svg width="128" height="128" viewBox="0 0 128 128" fill="none" xmlns="http://www.w3.org/2000/svg">
<path d="M62 109C60.0661 108.982 58.1416 108.727 56.27 108.24C55.5617 108.06 54.8693 107.823 54.2 107.53C52.9827 106.976 51.8932 106.176 51 105.18C50.5697 104.687 50.1911 104.15 49.87 103.58C49.5237 102.964 49.3092 102.283 49.24 101.58C49.1629 100.961 49.207 100.332 49.37 99.7299C49.5443 99.1367 49.8146 98.576 50.17 98.0699C50.6158 97.4507 51.2105 96.9539 51.8992 96.6253C52.5878 96.2967 53.3482 96.147 54.11 96.1899C54.57 96.1899 54.5 96.4499 54.21 96.8099C53.8471 97.2823 53.4457 97.7238 53.01 98.1299C52.6271 98.4559 52.2906 98.8327 52.01 99.2499C51.7483 99.6119 51.5737 100.029 51.5 100.47C51.3778 100.903 51.3607 101.359 51.45 101.8C51.579 102.326 51.7954 102.826 52.09 103.28C52.4865 103.894 52.9995 104.424 53.6 104.84C54.2309 105.24 54.9011 105.575 55.6 105.84C57.2445 106.437 58.9718 106.774 60.72 106.84C61.829 106.905 62.9409 106.905 64.05 106.84C65.7427 106.775 67.4214 106.506 69.05 106.04C70.2627 105.681 71.4303 105.185 72.53 104.56C72.78 104.43 73 104.28 73.24 104.14C74.13 103.62 74.46 103.52 74.86 103.67C74.9519 103.694 75.0421 103.724 75.13 103.76C75.35 103.87 75.19 104.38 74.57 104.96C73.6317 105.832 72.5786 106.573 71.44 107.16C70.8602 107.463 70.2624 107.73 69.65 107.96C69.02 108.16 68.38 108.32 67.74 108.46C65.8403 108.836 63.9062 109.01 61.97 108.98L62 109Z" fill="#231F20"/>
<path d="M67.1199 109.72C66.0951 109.985 65.057 110.195 64.0099 110.35L62.8599 110.5C61.4995 110.605 60.1318 110.565 58.7799 110.38C58.1799 110.3 57.5799 110.2 56.9899 110.07C56.2153 109.93 55.4771 109.634 54.8199 109.2C54.6199 109.05 54.8199 108.87 55.0699 108.76C55.3942 108.65 55.7456 108.65 56.0699 108.76C57.4517 109.235 58.8914 109.521 60.3499 109.61C61.2697 109.656 62.1917 109.603 63.0999 109.45C64.1109 109.324 65.1129 109.133 66.0999 108.88C66.7099 108.73 67.3099 108.53 67.9099 108.34L69.2699 107.86L70.5799 107.3C71.2499 106.97 71.8599 106.58 72.5099 106.23L72.9999 106C73.5299 105.71 73.7399 105.69 73.9999 105.78L74.1399 105.84C74.2599 105.92 74.1399 106.15 73.7599 106.46C72.6966 107.379 71.4995 108.131 70.2099 108.69C69.2432 109.142 68.2395 109.51 67.2099 109.79L67.1199 109.72Z" fill="#231F20"/>
<path d="M69.1203 116.17C69.4608 115.856 69.7508 115.492 69.9803 115.09C70.0803 114.94 70.1102 114.75 70.2002 114.6C70.524 114.01 70.8145 113.402 71.0703 112.78C71.2003 112.51 71.3003 112.21 71.4103 111.92C71.5035 111.491 71.7354 111.104 72.0703 110.82C72.1903 110.72 72.3202 110.91 72.4502 111.14C72.5802 111.37 72.7203 111.58 72.6803 111.77C72.5551 112.519 72.3157 113.244 71.9703 113.92C71.7203 114.34 71.6203 114.85 71.4003 115.32C71.1572 115.845 70.8624 116.344 70.5202 116.81C70.2885 117.097 70.027 117.358 69.7402 117.59L69.4202 117.86L69.0403 118.06C68.7968 118.199 68.5385 118.309 68.2702 118.39C68.0743 118.483 67.8701 118.556 67.6603 118.61C67.4512 118.682 67.2374 118.739 67.0202 118.78C66.9272 118.79 66.8333 118.79 66.7402 118.78C66.3902 118.78 66.2903 118.63 66.2603 118.28C66.2603 118.2 66.2603 118.13 66.2603 118.06C66.2676 117.941 66.3043 117.826 66.3671 117.725C66.43 117.623 66.5169 117.539 66.6203 117.48C67.2503 117.17 67.7103 117.07 68.1603 116.85C68.5082 116.667 68.8253 116.431 69.1003 116.15L69.1203 116.17Z" fill="#231F20"/>
<path d="M53.37 98.5199C53.0819 98.6219 52.8093 98.7632 52.56 98.9399C52.47 99.0099 52.42 99.1099 52.32 99.1899C51.9728 99.4538 51.6662 99.7671 51.41 100.12C51.3202 100.278 51.2752 100.458 51.28 100.64C51.28 100.87 51.36 101 51.18 101.18C50.9115 101.34 50.6111 101.439 50.3 101.47C49.89 101.54 49.3 101.34 49.3 101.06C49.2063 100.63 49.2518 100.182 49.43 99.7799C49.5756 99.4259 49.7975 99.1083 50.08 98.8499C50.41 98.5499 50.56 98.1499 50.85 97.8499C51.1749 97.5246 51.5374 97.2392 51.93 96.9999C52.1822 96.8514 52.4465 96.7243 52.72 96.6199C52.92 96.5299 53.16 96.4899 53.37 96.4199C53.58 96.3499 53.83 96.3499 54.06 96.3299C54.29 96.3099 54.43 96.2799 54.62 96.2799C54.8145 96.2767 55.0089 96.2934 55.2 96.3299C55.2854 96.3378 55.366 96.3728 55.43 96.4299C55.68 96.6199 55.69 96.7999 55.51 97.1599C55.4727 97.2398 55.4292 97.3167 55.38 97.3899C55.2413 97.6112 55.0486 97.7936 54.82 97.9199C54.26 98.2299 54.23 98.3199 54 98.3799C53.791 98.4257 53.5891 98.4997 53.4 98.5999L53.37 98.5199Z" fill="#231F20"/>
<path d="M36.2202 81.71C33.7943 78.954 31.6845 75.9352 29.9302 72.71C29.6002 72.12 29.3102 71.51 29.0302 70.9C28.7288 70.2989 28.4617 69.6813 28.2302 69.05C26.4682 64.6294 25.7363 59.8656 26.0902 55.12C26.1502 54.12 26.3202 53.03 26.4502 51.99C26.5802 50.95 26.8002 49.93 27.0902 48.93C27.6478 46.3015 28.7219 43.81 30.2502 41.6C30.7402 40.92 30.7802 41.09 30.5402 41.76C30.3002 42.43 29.8802 43.6 29.3302 45C29.0802 45.61 28.8702 46.23 28.6802 46.86C28.4902 47.49 28.3502 48.14 28.1602 48.78C27.9748 49.4146 27.8246 50.0589 27.7102 50.71C27.5902 51.36 27.4202 52 27.3502 52.71C26.9425 55.3573 26.8786 58.0463 27.1602 60.71C27.5253 63.9352 28.4313 67.0759 29.8402 70C31.3562 73.2916 33.2705 76.3848 35.5402 79.21C36.9207 80.9594 38.3998 82.6288 39.9702 84.21C42.344 86.6425 44.8406 88.9522 47.4502 91.13C49.4502 92.83 51.4502 94.4 53.5202 96.04C53.9602 96.41 54.4102 96.75 54.8402 97.14C56.4602 98.56 56.8402 99.14 57.0502 99.61C57.0984 99.7134 57.1385 99.8204 57.1702 99.93C57.1702 100.18 56.4702 99.68 55.2602 98.7C51.6602 95.82 47.7502 92.83 44.0402 89.55C41.2549 87.118 38.6357 84.5022 36.2002 81.72L36.2202 81.71Z" fill="#231F20"/>
<path d="M31.4502 39.67C33.0272 37.5901 34.858 35.7156 36.9002 34.09C38.9611 32.5238 41.1837 31.1829 43.5302 30.09C49.9575 27.124 57.1627 26.2834 64.1002 27.69C65.0102 27.87 65.9302 28.09 66.8302 28.36C67.7302 28.63 68.6202 29 69.5102 29.36C72.5801 30.7251 75.3115 32.7497 77.5102 35.29C79.6794 37.7923 81.3739 40.6694 82.5102 43.78C84.7176 49.9322 85.3703 56.5346 84.4102 63C84.0485 65.8368 83.4837 68.644 82.7202 71.4C81.9612 74.1212 81.0532 76.7985 80.0002 79.42C78.6952 82.8036 77.1617 86.0945 75.4102 89.27C73.6864 92.4511 71.7486 95.5115 69.6102 98.43C68.2802 100.25 68.2202 99.82 68.9702 98.05C69.3502 97.17 69.9002 95.93 70.5902 94.46C71.2802 92.99 72.0902 91.28 73.0402 89.46C74.7302 86.25 76.1802 82.93 77.5602 79.6C78.947 76.2755 80.0966 72.857 81.0002 69.37C82.931 62.4529 83.1472 55.1695 81.6302 48.15C81.1211 46.0582 80.3903 44.0267 79.4502 42.09C78.4962 40.1512 77.2779 38.3541 75.8302 36.75C74.3968 35.1323 72.7077 33.7608 70.8302 32.69C68.9477 31.6371 66.9285 30.8496 64.8302 30.35C60.1306 29.2376 55.2383 29.2199 50.5309 30.2984C45.8234 31.3768 41.4267 33.5226 37.6802 36.57C35.3953 38.4394 33.4704 40.7099 32.0002 43.27C31.6702 43.93 31.3202 44.58 31.0002 45.27L30.2402 47.34C29.8124 48.77 29.4784 50.2265 29.2402 51.7L29.1002 52.53L29.0302 53.38L28.9002 55.07V57.61L28.9802 58.45C29.158 60.7123 29.5942 62.9469 30.2802 65.11C30.9649 67.2787 31.8452 69.3806 32.9102 71.39C33.9932 73.3936 35.2058 75.3243 36.5402 77.17C40.7202 82.89 45.8602 87.65 51.1402 92.31C52.3002 93.31 53.4602 94.31 54.6202 95.39C58.9402 99.3 60.1102 101.02 60.3302 102.39C60.3911 102.683 60.418 102.981 60.4102 103.28C60.4102 103.44 60.2902 103.43 60.1202 103.28C59.9502 103.13 59.7602 102.87 59.3902 102.51C58.7002 101.8 57.5602 100.68 55.9802 99.29C51.2402 95.22 46.1402 91.09 41.4802 86.29C36.5863 81.5136 32.5687 75.9154 29.6102 69.75C28.5518 67.3729 27.7408 64.8932 27.1902 62.35C26.6636 59.7786 26.4554 57.1522 26.5702 54.53C26.7005 51.9114 27.1368 49.3171 27.8702 46.8C28.6673 44.2461 29.8546 41.8309 31.3902 39.64L31.4502 39.67Z" fill="#231F20"/>
<path d="M57.3 107.39C59.9208 107.84 62.5992 107.84 65.22 107.39C66.22 107.22 67.16 106.95 68.09 106.75C69.7188 106.293 71.2793 105.62 72.73 104.75C74.1859 103.913 75.4634 102.799 76.49 101.47C76.8988 100.939 77.1432 100.3 77.193 99.6319C77.2427 98.9637 77.0957 98.2956 76.77 97.71C76.2528 96.9518 75.5686 96.3223 74.77 95.87C73.9414 95.3718 73.0675 94.9533 72.16 94.62C71.59 94.43 71.67 94.24 72.26 94.08C73.2379 93.8325 74.2698 93.9097 75.2 94.3C76.3223 94.7599 77.3171 95.4837 78.1 96.41C78.518 96.9455 78.8364 97.5518 79.04 98.2C79.2289 98.8778 79.2529 99.591 79.11 100.28C78.8389 101.521 78.2417 102.667 77.38 103.6C76.6247 104.453 75.7487 105.191 74.78 105.79C73.6642 106.531 72.5018 107.199 71.3 107.79C70.6875 108.086 70.0599 108.349 69.42 108.58C69.11 108.7 68.76 108.79 68.42 108.89L67.42 109.1C64.5951 109.767 61.686 110.007 58.79 109.81C56.9869 109.658 55.2135 109.258 53.52 108.62C52.229 108.068 51.0393 107.304 50 106.36C48.9171 105.419 48.1144 104.197 47.68 102.83C47.3449 101.718 47.3449 100.532 47.68 99.42C48.0777 98.3424 48.7457 97.385 49.62 96.64C49.989 96.3184 50.3837 96.0274 50.8 95.77C51.3441 95.4295 51.9542 95.208 52.59 95.12C52.7568 95.0983 52.9263 95.1111 53.088 95.1576C53.2497 95.204 53.4001 95.2831 53.53 95.39C53.6459 95.4605 53.7504 95.5481 53.84 95.65C54.08 95.97 53.52 96.44 52.59 97.03C51.2636 97.7289 50.2468 98.899 49.74 100.31C49.5699 100.932 49.5699 101.588 49.74 102.21C49.9507 102.895 50.2901 103.533 50.74 104.09C52.4785 105.88 54.7742 107.027 57.25 107.34L57.3 107.39Z" fill="#231F20"/>
<path d="M54.63 102.66C56.1021 103.26 57.6501 103.654 59.23 103.83C59.82 103.9 60.41 103.89 61 103.91C63.1137 104.022 65.2325 103.827 67.29 103.33C68.1967 103.092 69.0751 102.756 69.91 102.33C70.9251 101.801 71.8581 101.127 72.68 100.33C72.94 100.09 73.13 100.23 73.17 100.66C73.1907 100.987 73.1366 101.315 73.0118 101.618C72.8871 101.921 72.695 102.192 72.45 102.41C70.3673 104.156 67.7898 105.205 65.08 105.41C63.4921 105.625 61.8923 105.738 60.29 105.75C58.5096 105.722 56.7421 105.443 55.04 104.92C53.9841 104.584 52.9758 104.113 52.04 103.52C51.3139 103.051 50.666 102.47 50.12 101.8C49.85 101.456 49.6123 101.088 49.41 100.7C49.1422 100.256 49.0005 99.7482 49 99.23C49.0286 98.4916 49.268 97.7767 49.69 97.17C50.0777 96.5974 50.5655 96.0994 51.13 95.7C51.3741 95.5156 51.6353 95.3548 51.91 95.22C52.98 94.74 53.47 94.93 53.71 95.35C53.7716 95.4402 53.822 95.5376 53.86 95.64C53.94 95.96 53.59 96.26 53.08 96.54C52.2883 96.9536 51.6219 97.5717 51.15 98.33C50.9754 98.6016 50.8818 98.9172 50.88 99.24C50.8899 99.345 50.9205 99.4469 50.97 99.54C50.97 99.65 51.17 99.89 51.26 100.07C52.099 101.24 53.2746 102.126 54.63 102.61V102.66Z" fill="#231F20"/>
<path d="M60.39 111.81C61.7622 112.109 63.1733 112.187 64.57 112.04C65.0947 111.98 65.6156 111.89 66.13 111.77C67.9984 111.453 69.8194 110.902 71.55 110.13C72.3129 109.776 73.0368 109.344 73.71 108.84C74.5347 108.199 75.304 107.49 76.01 106.72C76.25 106.5 76.46 106.63 76.57 107.05C76.6276 107.317 76.6276 107.593 76.57 107.86C76.4812 108.185 76.3319 108.49 76.13 108.76C74.5217 110.577 72.4467 111.919 70.13 112.64C68.7577 113.126 67.3588 113.534 65.94 113.86C64.3452 114.161 62.7162 114.239 61.1 114.09C60.0773 113.979 59.0707 113.751 58.1 113.41C56.6728 112.869 55.3674 112.05 54.26 111C53.3605 110.222 52.5968 109.299 52 108.27C51.88 108.03 51.76 107.8 51.66 107.56C51.37 106.56 51.54 106.25 51.94 105.96C52.0218 105.89 52.1087 105.827 52.2 105.77C52.48 105.62 52.9 105.91 53.27 106.42C53.81 107.18 54.27 107.9 54.82 108.56C55.3611 109.221 55.9982 109.797 56.71 110.27C57.8266 110.997 59.0725 111.503 60.38 111.76L60.39 111.81Z" fill="#231F20"/>
<path d="M71.8901 116C71.3534 116.816 70.6763 117.53 69.8901 118.11C69.5846 118.345 69.2481 118.537 68.8901 118.68C68.2565 118.936 67.5653 119.015 66.8901 118.91C66.2721 118.812 65.6763 118.605 65.1301 118.3C64.6701 118.05 64.2201 117.8 63.7901 117.52C63.5201 117.34 63.2401 117.16 62.9901 116.96C62.7517 116.733 62.5463 116.474 62.3801 116.19C62.2701 116.01 62.4601 115.86 62.7701 115.77C63.096 115.67 63.4442 115.67 63.7701 115.77C64.6729 116.423 65.6497 116.966 66.6801 117.39C66.9728 117.479 67.2817 117.502 67.5844 117.457C67.8871 117.412 68.176 117.3 68.4301 117.13C69.0776 116.739 69.6335 116.214 70.0601 115.59C70.3555 115.176 70.6259 114.746 70.8701 114.3C71.2401 113.61 71.6201 112.9 71.9401 112.16C72.1901 111.59 72.3601 110.98 72.6301 110.39C72.6901 110.26 72.7401 110.13 72.8101 110C73.1001 109.55 73.3401 109.5 73.7601 109.67C73.8501 109.67 73.9401 109.73 74.0101 109.77C74.1467 109.862 74.2522 109.994 74.3129 110.147C74.3736 110.301 74.3865 110.469 74.3501 110.63C74.0809 111.695 73.6813 112.723 73.1601 113.69C72.7701 114.45 72.3401 115.24 71.8401 116.03L71.8901 116Z" fill="#231F20"/>
<path d="M54.8803 50.43C54.8452 49.9173 54.8452 49.4027 54.8803 48.89L54.9403 48.08L55.0003 47.5C55.0603 47.28 55.1403 47.08 55.2003 46.87C55.3223 46.486 55.5439 46.1412 55.8426 45.8707C56.1412 45.6001 56.5062 45.4136 56.9003 45.33C57.2962 45.2644 57.7019 45.2917 58.0854 45.4097C58.4689 45.5277 58.8198 45.7332 59.1103 46.01C59.2672 46.1568 59.4141 46.3138 59.5503 46.48C59.6721 46.615 59.7794 46.7625 59.8703 46.92C60.0222 47.158 60.1591 47.4051 60.2803 47.66C60.5078 48.1255 60.7017 48.6068 60.8603 49.1C61.1868 50.0753 61.4179 51.08 61.5503 52.1C62.0666 56.0502 61.4275 60.0653 59.7103 63.66C59.389 64.3206 59.0179 64.9557 58.6003 65.56C58.3751 65.8838 58.1313 66.1943 57.8703 66.49C57.5815 66.7834 57.2706 67.0542 56.9403 67.3C56.2622 67.7678 55.4941 68.0893 54.685 68.2442C53.8758 68.3992 53.0433 68.3841 52.2403 68.2C50.9456 67.9106 49.713 67.3925 48.6003 66.67C47.5192 65.9827 46.5282 65.163 45.6503 64.23C44.7802 63.2596 44.0498 62.1724 43.4803 61C42.8733 59.8665 42.4354 58.6503 42.1803 57.39C41.8749 56.0538 41.9938 54.6555 42.5203 53.39C42.8201 52.7298 43.2644 52.1454 43.8203 51.68C44.4429 51.2011 45.2159 50.96 46.0003 51C47.3923 51.1374 48.6813 51.7944 49.6103 52.84C50.5034 53.7439 51.2855 54.751 51.9403 55.84C54.2703 59.57 55.5803 63.76 56.8103 67.78C57.6567 70.3985 58.3249 73.0713 58.8103 75.78C59.2442 78.4754 59.3081 81.2174 59.0003 83.93C58.8003 85.64 58.5403 85.37 58.2803 83.93L57.7303 81C57.4703 79.81 57.2003 78.43 56.9503 76.94C56.4567 74.279 55.7886 71.6533 54.9503 69.08C54.1603 66.44 53.3803 63.82 52.4203 61.32C51.5661 58.8341 50.2797 56.5186 48.6203 54.48C48.2289 54.0238 47.7859 53.6144 47.3003 53.26C46.9009 52.9743 46.4302 52.8047 45.9403 52.77C45.7304 52.7666 45.522 52.8076 45.329 52.8903C45.136 52.973 44.9626 53.0956 44.8203 53.25C44.4507 53.6265 44.1764 54.086 44.0203 54.59C43.7089 56.0393 43.8846 57.5509 44.5203 58.89C45.1118 60.3669 45.9693 61.7227 47.0503 62.89C48.1707 64.0362 49.4884 64.9712 50.9403 65.65C51.5826 65.9889 52.2873 66.193 53.0113 66.2497C53.7352 66.3065 54.4631 66.2147 55.1503 65.98C55.8479 65.6536 56.4478 65.1503 56.8903 64.52C57.3869 63.7979 57.8154 63.0313 58.1703 62.23C58.8747 60.5862 59.333 58.8475 59.5303 57.07C59.7462 55.2925 59.6957 53.4926 59.3803 51.73C59.2084 50.8666 58.9608 50.02 58.6403 49.2C58.4807 48.8152 58.2901 48.444 58.0703 48.09C57.9682 47.8794 57.8042 47.705 57.6003 47.59C57.5419 47.5608 57.4778 47.5444 57.4125 47.5418C57.3472 47.5393 57.2821 47.5507 57.2215 47.5753C57.161 47.5999 57.1064 47.6371 57.0613 47.6845C57.0163 47.7319 56.9818 47.7883 56.9603 47.85C56.9055 47.9672 56.8684 48.0919 56.8503 48.22C56.79 48.466 56.7532 48.7171 56.7403 48.97C56.6977 50.0731 56.785 51.1773 57.0003 52.26C57.202 53.352 57.5136 54.4207 57.9303 55.45C58.2629 56.4347 58.8493 57.3143 59.6303 58C60.222 58.3826 60.9358 58.5289 61.6303 58.41C62.3705 58.2503 63.0584 57.9063 63.6303 57.41C64.8752 56.3531 65.7971 54.9668 66.2903 53.41C66.5026 52.6556 66.5504 51.8644 66.4303 51.09C66.3622 50.3749 66.0639 49.7012 65.5803 49.17C65.4809 49.0772 65.3637 49.0057 65.2357 48.9597C65.1077 48.9138 64.9717 48.8945 64.836 48.9029C64.7002 48.9113 64.5677 48.9473 64.4463 49.0087C64.325 49.0701 64.2175 49.1556 64.1303 49.26C63.5885 49.836 63.1699 50.5166 62.9003 51.26C62.6804 51.8234 62.5131 52.4059 62.4003 53C62.2289 53.6585 62.0953 54.3262 62.0003 55C61.8073 56.2918 61.6937 57.5943 61.6603 58.9C61.6011 61.5131 61.7987 64.1256 62.2503 66.7C62.4603 67.83 62.7003 68.93 62.9903 70.05C63.5003 72.14 63.9903 73.48 64.1903 74.45C64.403 75.1283 64.4778 75.8423 64.4103 76.55C64.3931 76.792 64.3597 77.0325 64.3103 77.27C64.1503 77.82 62.9103 76.37 61.8003 73.27C60.1423 68.5089 59.3992 63.4772 59.6103 58.44C59.6748 57.1471 59.8083 55.8586 60.0103 54.58C60.1303 53.94 60.2103 53.28 60.3603 52.64L60.5703 51.64C60.6703 51.27 60.7803 50.94 60.9003 50.64C61.1578 49.9381 61.4933 49.2672 61.9003 48.64C62.4187 47.7722 63.2313 47.1193 64.1903 46.8C64.7999 46.6335 65.4476 46.6757 66.0303 46.92C66.5723 47.1225 67.0492 47.4681 67.4103 47.92C67.9881 48.6089 68.3775 49.4358 68.5403 50.32C68.7832 51.4692 68.7662 52.6582 68.4903 53.8C68.191 54.8699 67.718 55.8834 67.0903 56.8C66.4772 57.7057 65.7285 58.5118 64.8703 59.19C63.9228 59.9558 62.7725 60.4284 61.5603 60.55C61.2277 60.5812 60.8929 60.5812 60.5603 60.55C60.2303 60.5 59.9203 60.4 59.5603 60.32C59.2003 60.24 58.9803 60.06 58.7003 59.92C58.4005 59.7386 58.122 59.5239 57.8703 59.28C57.1171 58.4567 56.5297 57.4958 56.1403 56.45C55.3897 54.5738 54.9278 52.5947 54.7703 50.58L54.8803 50.43Z" fill="#231F20"/>
<path d="M94.5001 52.85C94.5001 53.02 94.2401 52.95 93.8801 52.74C93.7243 52.6263 93.5919 52.4837 93.4901 52.32C93.476 52.1937 93.476 52.0662 93.4901 51.94C93.6799 51.5965 93.8869 51.2627 94.1101 50.94C94.2583 50.6987 94.4479 50.4854 94.6701 50.31C95.0988 49.9443 95.5533 49.6101 96.0301 49.31C96.1406 49.2397 96.2624 49.1889 96.3901 49.16C96.8148 49.0456 97.2195 48.8668 97.5901 48.63C97.6601 48.63 97.7301 48.57 97.7701 48.47C98.1728 48.1706 98.6375 47.9656 99.1301 47.87C99.5364 47.8446 99.9438 47.8446 100.35 47.87C100.41 47.87 100.46 47.87 100.53 47.87C100.57 47.9283 100.627 47.9725 100.694 47.9959C100.76 48.0193 100.833 48.0207 100.9 48C101.069 47.9987 101.238 48.0223 101.4 48.07C101.495 48.1288 101.58 48.2032 101.65 48.29C101.694 48.4232 101.694 48.5668 101.65 48.7C101.59 48.8 101.65 48.93 101.65 49.06C101.655 49.1031 101.655 49.1468 101.65 49.19C101.405 49.4495 101.137 49.6871 100.85 49.9C100.85 49.9 100.57 50.01 100.3 50.11C100.089 50.1893 99.8849 50.2863 99.6901 50.4C99.6301 50.4 99.5501 50.4 99.4801 50.4C99.4101 50.4 98.6701 50.86 98.6401 50.88C98.4601 50.94 98.3301 51.08 98.0801 51.01C98.0801 51.01 98.0001 51.01 97.9701 51.01C97.6841 51.1686 97.3866 51.3057 97.0801 51.42C96.9273 51.4979 96.7832 51.5918 96.6501 51.7H96.5501C96.5136 51.6942 96.4765 51.6942 96.4401 51.7C96.0822 51.9039 95.747 52.1452 95.4401 52.42C95.3801 52.48 94.9101 52.63 94.8401 52.72C94.7701 52.81 94.5001 52.78 94.5001 52.85Z" fill="#231F20"/>
<path d="M84.8601 30.5699C84.8601 30.7499 84.5901 30.6699 84.2201 30.4499C84.0558 30.3358 83.9163 30.1895 83.8101 30.0199C83.7964 29.887 83.7964 29.7529 83.8101 29.6199C83.8101 29.5499 84.2401 28.7799 84.3901 28.4999C84.5273 28.2392 84.7063 28.0027 84.9201 27.7999C85.3401 27.3999 85.7801 27.0299 86.2201 26.6699C86.3202 26.59 86.4361 26.532 86.5601 26.4999C86.9687 26.3702 87.3418 26.1478 87.6501 25.8499C87.7101 25.7999 87.7701 25.7699 87.7801 25.6699C87.7901 25.5699 88.6901 24.8299 88.8301 24.7999C89.2001 24.7199 89.5401 24.5899 89.8901 24.4799C89.9501 24.4799 89.9701 24.4099 90.0701 24.4799C90.1701 24.5499 90.3601 24.4799 90.4601 24.4799C90.6032 24.4088 90.7543 24.3551 90.9101 24.3199C91.0307 24.3253 91.1493 24.3524 91.2601 24.3999C91.3701 24.3999 91.5501 24.7099 91.5601 24.7499C91.5701 24.7899 91.7101 24.9699 91.8001 25.0699L91.9001 25.1799C91.8322 25.595 91.7078 25.9987 91.5301 26.3799C91.5301 26.3799 90.5301 27.3199 90.4201 27.4399C90.3101 27.5599 90.2701 27.5099 90.1801 27.5199C90.0901 27.5299 89.3701 28.2699 89.3301 28.2799C89.1401 28.3799 89.0101 28.5699 88.7201 28.5199C88.6601 28.5199 88.6301 28.5199 88.6001 28.5699C88.287 28.7823 87.9517 28.96 87.6001 29.0999C87.4401 29.1899 87.3101 29.3199 87.1601 29.4199C87.127 29.4244 87.0933 29.4244 87.0601 29.4199C87.0172 29.4113 86.973 29.4113 86.9301 29.4199C86.5803 29.6508 86.2462 29.9046 85.9301 30.1799C85.7112 30.2676 85.4975 30.3677 85.2901 30.4799C85.2901 30.4799 84.8701 30.4899 84.8601 30.5699Z" fill="#231F20"/>
<path d="M58.4002 19.23C58.5102 19.39 58.2902 19.53 57.9002 19.66C57.7157 19.6997 57.5248 19.6997 57.3402 19.66C57.2288 19.5834 57.125 19.4963 57.0302 19.4C56.9802 19.35 56.6802 18.5 56.5302 18.23C56.4121 17.9676 56.3248 17.6925 56.2702 17.41C56.1502 16.85 55.9802 16.31 55.8802 15.76C55.8602 15.6341 55.8602 15.5058 55.8802 15.38C55.9484 14.9492 55.9036 14.5082 55.7502 14.1C55.7502 14.03 55.7502 13.95 55.6202 13.9C55.3727 13.4785 55.2416 12.9988 55.2402 12.51C55.3328 12.1084 55.3963 11.7007 55.4302 11.29C55.4302 11.23 55.4302 11.18 55.4302 11.11C55.4302 11.04 55.5602 10.84 55.5702 10.71C55.573 10.5305 55.5999 10.3522 55.6502 10.18C55.7102 10.08 55.8302 9.95996 55.9002 9.85996C55.9434 9.82525 55.993 9.79944 56.0462 9.78399C56.0994 9.76854 56.1552 9.76378 56.2102 9.76996C56.3102 9.82996 56.4002 9.76996 56.4902 9.70996H56.5902C57.0044 9.92128 57.3744 10.2098 57.6802 10.56C57.6802 10.56 57.8302 10.9 57.9902 11.26C58.0984 11.5334 58.2219 11.8005 58.3602 12.06C58.4102 12.14 58.3602 12.24 58.3602 12.33C58.3602 12.42 58.7502 13.47 58.7502 13.52C58.7502 13.76 58.8802 13.99 58.7502 14.26C58.738 14.2831 58.7316 14.3088 58.7316 14.335C58.7316 14.3611 58.738 14.3869 58.7502 14.41C58.807 14.8241 58.8237 15.2427 58.8002 15.66C58.8002 15.88 58.8002 16.08 58.8002 16.3C58.8031 16.3399 58.8031 16.38 58.8002 16.42C58.797 16.4666 58.797 16.5134 58.8002 16.56C58.8002 17.06 58.7402 17.56 58.8002 18.06C58.8002 18.18 58.6002 18.73 58.6302 18.86C58.6602 18.99 58.3502 19.17 58.4002 19.23Z" fill="#231F20"/>
<path d="M26.0001 21C25.7901 21 25.9001 20.68 26.2101 20.26C26.3727 20.0794 26.5614 19.9243 26.7701 19.8L27.2101 19.74C27.2801 19.74 28.0101 20.14 28.2901 20.22C28.5335 20.312 28.7599 20.4438 28.9601 20.61L30.2401 21.51C30.3426 21.5759 30.4283 21.665 30.4901 21.77C30.7401 22.1221 31.0878 22.3933 31.4901 22.55C31.5601 22.55 31.6101 22.63 31.7101 22.6C32.1681 22.7308 32.5938 22.9556 32.9601 23.26C33.2005 23.5768 33.4575 23.8805 33.7301 24.17C33.7301 24.17 33.8401 24.17 33.8301 24.33C33.8201 24.49 33.9301 24.61 34.0201 24.69C34.1564 24.7932 34.2747 24.9182 34.3701 25.06C34.4136 25.1752 34.4373 25.2969 34.4401 25.42C34.4401 25.54 34.2301 25.82 34.1901 25.84C34.1501 25.86 34.0401 26.07 33.9701 26.2C33.9494 26.2467 33.9225 26.2904 33.8901 26.33C33.4825 26.4142 33.0647 26.4378 32.6501 26.4L32.0001 26.11C31.6601 25.97 31.3001 25.83 31.2201 25.81C31.1401 25.79 31.0901 25.7 31.0401 25.63C30.9901 25.56 29.9501 25.2 29.9101 25.16C29.8701 25.12 29.4801 24.97 29.3901 24.66C29.3901 24.61 29.3301 24.59 29.2901 24.57C28.926 24.356 28.5901 24.0973 28.2901 23.8C28.1268 23.6646 27.9566 23.5377 27.7801 23.42C27.7801 23.42 27.7801 23.35 27.7101 23.32C27.6956 23.2703 27.6679 23.2254 27.6301 23.19C27.2301 22.88 26.9301 22.46 26.5101 22.19C26.4001 22.13 26.1901 21.55 26.0801 21.47C25.9701 21.39 26.1001 21 26.0001 21Z" fill="#231F20"/>
</svg>
