<svg width="128" height="128" viewBox="0 0 128 128" fill="none" xmlns="http://www.w3.org/2000/svg">
<path d="M19.8001 67.51C19.8001 67.51 20.3201 61.48 16.6901 56.85C14.1901 53.66 30.9301 80.85 30.9301 80.85L19.7901 67.51H19.8001Z" fill="#231F20"/>
<path d="M26.0101 87.43C25.4501 86.2 24.8701 84.98 24.2501 83.77C24.0301 83.33 23.7701 82.91 23.5401 82.47C22.7401 80.92 21.9701 79.35 21.0901 77.85C20.7101 77.18 20.2801 76.53 19.8601 75.88C19.2801 75.08 18.8001 74.21 18.3401 73.33C18.2001 73.05 18.2701 73.05 18.5101 73.2C18.7401 73.36 19.1801 73.64 19.5901 74.05C19.9701 74.41 20.2601 74.82 20.5501 75.24C20.8501 75.65 21.1301 76.08 21.4101 76.5C21.9701 77.35 22.5101 78.22 22.9901 79.12C23.5801 80.2 24.2901 81.26 24.8801 82.37C25.5301 83.59 26.1501 84.82 26.7501 86.06L27.8301 88.36C28.3501 89.53 28.8801 90.71 29.4001 91.87C29.8201 92.77 30.2101 93.66 30.5701 94.57C30.6501 94.77 30.7401 94.96 30.8101 95.17C31.0801 95.93 31.0801 96.2 30.9601 96.44C30.9301 96.49 30.9101 96.56 30.8801 96.59C30.7801 96.71 30.5101 96.46 30.2101 95.95C29.3401 94.43 28.3701 92.86 27.6901 91.16C27.1401 89.92 26.5801 88.67 25.9901 87.44L26.0201 87.42L26.0101 87.43Z" fill="#231F20"/>
<path d="M90.3502 60.59C90.3502 60.59 90.5402 63.4 88.9402 66.35C87.5002 69 84.5002 71.77 80.4702 72.73C80.4702 72.73 92.1902 72.38 94.2502 65.1C95.5702 60.43 94.2502 59.98 94.2502 59.98L90.3502 60.59Z" fill="#231F20"/>
<path d="M102.31 50.79C101.73 52.17 100.95 53.48 100.11 54.73C99.77 55.17 99.48 55.64 99.14 56.07C97.84 57.53 96.29 58.73 94.62 59.65C93.84 59.99 93.13 60.47 92.31 60.68C91.8 60.84 91.31 61.08 90.78 61.17C90.24 61.24 89.7 61.23 89.17 61.23C88.84 61.22 88.86 61.09 89.09 60.82C89.32 60.57 89.72 60.09 90.22 59.78C90.69 59.62 91.13 59.37 91.57 59.16L92.23 58.85C92.44 58.7299 92.64 58.59 92.86 58.49C93.75 58.1 94.57 57.59 95.42 57.06C96.41 56.38 97.21 55.41 97.92 54.41L98.52 53.59L99.04 52.71C99.42 52.14 99.67 51.5 99.98 50.88C100.3 50.1 100.65 49.32 100.88 48.49C101.27 47.26 101.61 45.99 101.78 44.7C101.89 43.7 101.91 42.71 101.93 41.72L101.95 41.07C102.07 40.26 102.24 39.99 102.54 39.81C102.61 39.77 102.68 39.71 102.74 39.69C102.95 39.6 103.17 39.94 103.38 40.57C103.92 42.43 103.95 44.47 103.61 46.46C103.37 47.94 102.95 49.41 102.34 50.81L102.29 50.79H102.31Z" fill="#231F20"/>
<path d="M62.9699 109.34C63.6799 108.92 64.3399 108.45 64.9499 107.96C65.5499 107.44 66.1399 106.88 66.6799 106.27C67.0799 105.82 67.4199 105.32 67.7899 104.85C69.1099 103.17 70.2699 101.33 71.3199 99.42C71.7899 98.57 72.2099 97.7 72.5999 96.81C73.1099 95.68 73.4599 94.49 74.3499 93.51C74.6199 93.2 74.6299 93.26 74.7099 93.64C74.7499 93.83 74.8099 94.11 74.8899 94.45C74.9399 94.78 74.9199 95.13 74.8399 95.49C74.0799 97.95 72.9799 100.32 71.4899 102.48C70.6099 103.77 69.8099 105.2 68.8099 106.48C67.7199 107.88 66.4599 109.21 64.9599 110.24C64.0699 110.87 63.1399 111.45 62.1499 111.94C60.6499 112.69 58.9899 113.17 57.3299 113.33C56.0399 113.47 54.7599 113.52 53.4799 113.39C53.1999 113.37 52.9299 113.33 52.6499 113.27C51.6199 113.05 51.3499 112.79 51.2499 112.32C51.2299 112.21 51.1899 112.1 51.1899 111.99C51.1899 111.64 51.6599 111.47 52.3799 111.5C53.4599 111.5 54.5199 111.57 55.5699 111.56C56.6199 111.55 57.6399 111.44 58.6399 111.2C60.1299 110.86 61.5699 110.19 62.9399 109.3L62.9699 109.34Z" fill="#231F20"/>
<path d="M108.65 110.9C110.05 110.19 111.35 109.26 112.48 108.12C112.9 107.69 113.27 107.22 113.67 106.78C115.08 105.23 116.11 103.44 116.93 101.44C117.3 100.56 117.6 99.64 117.9 98.74L118.49 96.99C118.59 96.7 118.7 96.41 118.82 96.13C118.92 95.84 119.17 95.6 119.34 95.33C119.59 95.01 119.67 95.09 119.8 95.48C119.89 95.75 119.98 96.03 120.07 96.28C120.14 96.6 120.1 96.93 120.01 97.27C119.35 99.68 118.52 102.08 117.21 104.38C116.41 105.74 115.53 107.16 114.47 108.34C113.35 109.65 111.98 110.88 110.49 111.81C109.56 112.38 108.59 112.88 107.58 113.26C106.06 113.86 104.46 114.24 102.88 114.53C101.65 114.74 100.45 115 99.2201 115.07C98.9501 115.08 98.6901 115.11 98.4101 115.12C97.4001 115.09 97.0801 114.94 96.8601 114.62C96.8101 114.54 96.7501 114.47 96.7201 114.4C96.6301 114.16 97.0301 113.93 97.7401 113.75C99.8601 113.23 102.02 112.91 104.13 112.45C105.69 112.08 107.23 111.61 108.62 110.85L108.64 110.89L108.65 110.9Z" fill="#231F20"/>
<path d="M97.7898 89.41C99.4198 89.51 101.05 89.58 102.68 89.61C103.28 89.62 103.87 89.58 104.46 89.58C106.56 89.6 108.66 89.59 110.76 89.49C111.69 89.45 112.62 89.35 113.54 89.24C114.13 89.16 114.72 89.12 115.32 89.07C115.92 89.04 116.5 88.94 117.12 89.04C117.5 89.1 117.47 89.2 117.18 89.45C116.9 89.74 116.36 90.11 115.68 90.26C115.08 90.39 114.48 90.52 113.87 90.62C113.26 90.69 112.65 90.74 112.04 90.79C110.82 90.88 109.58 90.94 108.35 90.93C106.87 90.93 105.34 91.07 103.83 91.11C102.17 91.14 100.51 91.13 98.8498 91.09L95.7898 90.99C94.2498 90.91 92.6898 90.83 91.1598 90.74C89.9698 90.67 88.7898 90.7 87.6098 90.65C87.3498 90.65 87.0898 90.65 86.8298 90.6C85.8698 90.43 85.5798 90.27 85.3998 89.91C85.3598 89.83 85.3098 89.75 85.2898 89.67C85.2198 89.42 85.6398 89.23 86.3598 89.13C87.4298 88.94 88.4998 88.99 89.5898 88.98C90.6798 88.99 91.7798 89 92.8798 89.06C94.5098 89.16 96.1498 89.28 97.7998 89.35V89.39L97.7898 89.41Z" fill="#231F20"/>
<path d="M30.98 87.68C29.41 84.79 27.81 81.92 26.14 79.11C25.53 78.08 24.84 77.1 24.23 76.08C22.04 72.48 19.72 68.97 17.21 65.6C16.09 64.11 14.86 62.7 13.59 61.36C12.78 60.5 11.88 59.72 11.08 58.86C10.24 58.02 9.41995 57.2 8.69995 56.18C8.24995 55.55 8.31995 55.61 8.98995 55.78C9.32995 55.86 9.81995 55.96 10.46 56.07C11.07 56.21 11.62 56.57 12.22 56.97C13.29 57.67 14.16 58.59 15.05 59.47C15.91 60.39 16.77 61.3 17.56 62.27C19.18 64.18 20.65 66.2 21.98 68.32C23.58 70.84 25.38 73.36 26.98 75.94C28.73 78.78 30.39 81.68 32.02 84.59L34.98 89.98C36.46 92.71 37.85 95.49 39.36 98.17C40.52 100.25 41.82 102.2 43.09 104.17C43.36 104.61 43.63 105.03 43.91 105.47C44.91 107.11 45.07 107.73 44.87 108.37C44.82 108.51 44.8 108.68 44.73 108.79C44.62 108.97 44.4 108.94 44.06 108.74C43.73 108.53 43.27 108.16 42.82 107.59C42.14 106.76 41.47 105.9 40.82 105.01C40.21 104.1 39.61 103.17 39.04 102.23C37.89 100.34 36.8 98.38 35.72 96.42C34.12 93.5 32.59 90.59 30.94 87.71L30.99 87.68H30.98Z" fill="#231F20"/>
<path d="M91.0302 70.4C89.7602 71.45 88.3902 72.37 86.9202 73.04C86.3902 73.3 85.8902 73.61 85.3302 73.78C83.3902 74.49 81.3402 74.79 79.3502 74.84C78.9102 74.88 78.4702 74.88 78.0202 74.89C77.5802 74.9 77.1402 74.94 76.7002 74.89C76.1402 74.83 75.5802 74.81 75.0302 74.71C74.4802 74.55 73.9502 74.35 73.4202 74.16C73.0902 74.03 73.1502 73.99 73.4602 73.87C73.7702 73.77 74.3302 73.47 74.9502 73.31C77.1302 72.84 79.1502 72.85 81.2602 72.57C82.5302 72.44 83.7302 71.87 84.9102 71.37C86.1602 70.74 87.4302 70.08 88.5002 69.14C88.8502 68.87 89.1802 68.59 89.4802 68.27C89.7802 67.95 90.1202 67.67 90.3902 67.32C91.2202 66.29 92.0502 65.2 92.5602 63.96C93.0102 63.02 93.1202 61.97 93.3402 60.98C93.3702 60.76 93.3602 60.53 93.4302 60.31C93.5402 59.91 93.6502 59.65 93.8502 59.5C94.0802 59.35 94.3302 59.29 94.6502 59.26C94.8002 59.25 94.9402 59.22 95.0702 59.22C95.2902 59.22 95.4602 59.32 95.6302 59.53C95.8002 59.73 96.0002 60.04 95.9902 60.39C96.1502 61.47 95.8702 62.5 95.6002 63.56C95.4802 64.09 95.2202 64.59 95.0202 65.1L94.6802 65.86L94.2602 66.59L93.6102 67.66C93.3602 68 93.0902 68.32 92.8302 68.64C92.3302 69.31 91.6802 69.86 91.1002 70.46L91.0502 70.41L91.0302 70.4Z" fill="#231F20"/>
<path d="M33.79 83.96L37.58 92.4C38.85 95.22 40.11 97.92 41.67 100.48C42.78 102.36 44.11 104.07 45.5 105.69C47.93 108.55 50.93 110.97 54.41 111.96C55.28 112.19 56.16 112.38 57.06 112.41C57.95 112.48 58.8 112.41 59.66 112.2C61.37 111.81 62.97 110.88 64.4 109.69C66.95 107.57 68.92 104.66 70.5 101.66C71.51 99.72 72.36 97.68 73.15 95.63C73.56 94.61 73.87 93.55 74.3 92.53L75.57 89.44C76.17 88.16 76.14 88.32 76.32 89.58C76.4 90.21 76.54 91.12 76.55 92.2C76.55 92.74 76.58 93.34 76.5 93.94C76.4 94.54 76.25 95.17 76.06 95.8C75.35 98.05 74.5 100.27 73.42 102.4C72.35 104.53 71.11 106.6 69.6 108.54C68.08 110.45 66.3 112.29 64.02 113.58C62.89 114.23 61.64 114.74 60.33 115.03C59.03 115.32 57.62 115.36 56.36 115.2C53.28 114.83 50.39 113.57 47.92 111.83C45.46 110.07 43.36 107.9 41.61 105.56C39.68 102.98 38.1 100.21 36.72 97.36C35.35 94.52 34.11 91.69 32.83 88.85C31.26 85.37 29.7 81.88 28.05 78.46C25.55 73.27 22.93 68.09 19.91 63.25C17.55 59.5 14.91 56.03 12.03 52.8C11.38 52.1 10.77 51.39 10.11 50.71C7.73001 48.08 6.97001 47.25 6.83001 46.22C6.79001 46 6.70001 45.74 6.70001 45.58C6.66001 45.07 8.14001 45.62 10.33 47.3C11.1 47.97 11.86 48.64 12.64 49.32C13.38 50.03 14.05 50.81 14.76 51.57C15.48 52.32 16.1 53.15 16.77 53.95L17.75 55.17L18.68 56.44C21.18 59.81 23.39 63.43 25.46 67.12C28.54 72.59 31.25 78.27 33.87 83.92L33.81 83.96H33.79Z" fill="#231F20"/>
<path d="M28.4702 95.14C27.2702 92.81 26.0102 90.56 24.7302 88.23C24.2702 87.39 23.7502 86.58 23.3002 85.74C21.7102 82.77 20.1502 79.81 18.3002 77.03C17.4902 75.79 16.5702 74.63 15.6102 73.54C15.0402 72.8 14.4102 72.1 13.8002 71.4C13.2002 70.68 12.6402 69.9 12.0002 69.19C11.6202 68.73 11.7102 68.73 12.2102 68.91C12.7102 69.09 13.7302 69.34 14.7702 69.91C15.6002 70.5 16.3702 71.17 17.1202 71.85C17.5202 72.18 17.7902 72.61 18.1202 72.99C18.4402 73.38 18.7402 73.78 19.0402 74.19C20.2302 75.81 21.2802 77.51 22.2302 79.26C23.3602 81.35 24.7102 83.41 25.9002 85.5L29.8402 92.38L32.2102 96.64C33.4202 98.77 34.6502 100.9 36.0902 102.83C37.2102 104.33 38.5102 105.63 39.8602 106.84C40.1602 107.11 40.4602 107.36 40.7702 107.61C41.3302 108.1 41.6702 108.44 41.8602 108.75C42.0402 109.08 42.0602 109.37 41.9802 109.74C41.9502 109.9 41.9402 110.08 41.8802 110.23C41.7902 110.47 41.5602 110.58 41.2102 110.55C40.8702 110.52 40.3802 110.39 39.8902 110.05C36.9102 108.08 34.5102 105.15 32.5102 102.12C31.0202 99.86 29.7002 97.52 28.4402 95.19L28.4902 95.16L28.4702 95.14Z" fill="#231F20"/>
<path d="M35.3099 43.77C38.6799 43.73 42.0699 43.63 45.4499 43.53C46.6899 43.49 47.9199 43.37 49.1499 43.33L62.2399 42.96C64.1799 42.88 66.1299 42.81 68.0499 42.73C69.2899 42.7 70.5299 42.6 71.7699 42.67C73.0099 42.74 74.2599 42.95 75.4899 43.2C76.2599 43.36 76.1399 43.45 75.4899 43.68C75.0799 43.83 74.6199 44 74.1399 44.17C73.5799 44.4 72.9399 44.6 72.2399 44.73C67.2699 45.29 62.2699 45.38 57.1899 45.42C54.1499 45.42 51.0099 45.76 47.8999 45.92C44.4899 46.1 41.0699 46.23 37.6399 46.31L31.3099 46.41C28.1099 46.44 24.8999 46.37 21.7099 46.27C19.2299 46.18 16.7899 46.17 14.2799 45.81C13.7299 45.71 13.1799 45.65 12.6299 45.49C10.5799 44.88 9.98991 44.2 9.94991 43.46C9.93991 43.29 9.89991 43.11 9.92991 42.96C9.97991 42.72 10.2399 42.63 10.6199 42.62C10.8199 42.62 11.0099 42.65 11.2799 42.69C11.5499 42.72 11.8399 42.77 12.1499 42.85C16.0999 43.51 20.6099 43.71 25.1299 43.77C28.4899 43.82 31.8999 43.8 35.2999 43.7V43.77H35.3099Z" fill="#231F20"/>
<path d="M93.6599 88.28C95.7599 88.28 97.8799 88.24 99.9999 88.12C100.77 88.08 101.54 87.97 102.32 87.93C105.06 87.81 107.81 87.65 110.58 87.6C111.8 87.57 113.04 87.52 114.26 87.45L116.61 87.35C117 87.35 117.4 87.42 117.79 87.47C118.18 87.52 118.57 87.59 118.96 87.75C119.44 87.94 119.37 88.08 118.96 88.45C118.54 88.86 117.79 89.42 116.92 89.58C115.36 89.72 113.81 89.81 112.24 89.92C111.46 89.96 110.67 90 109.88 90.05C109.09 90.05 108.29 90.05 107.49 90.04C105.58 90 103.6 90.3 101.64 90.43C99.4799 90.56 97.3199 90.66 95.1499 90.69C93.8099 90.73 92.4699 90.69 91.1399 90.69C89.1099 90.64 87.0799 90.5 85.0699 90.35C84.2899 90.28 83.5099 90.26 82.7399 90.22L80.4099 90.04C80.0699 90.02 79.7299 89.98 79.3899 89.92C78.1299 89.66 77.7799 89.33 77.6399 88.73C77.6099 88.6 77.5499 88.46 77.5399 88.35C77.4999 87.99 78.1099 87.64 79.0299 87.61C80.3899 87.63 81.7599 87.73 83.1399 87.84C84.5299 87.91 85.9199 88.05 87.3299 88.09C89.4199 88.21 91.5299 88.25 93.6499 88.23V88.29L93.6599 88.28Z" fill="#231F20"/>
<path d="M94.5402 113.13C97.9102 113.07 101.29 112.92 104.58 112.51C105.17 112.42 105.76 112.31 106.36 112.2C106.93 112.06 107.49 111.9 108.06 111.78C109.96 111.29 111.71 110.29 113.08 108.78C114.47 107.29 115.52 105.43 116.38 103.47C116.77 102.6 117.09 101.69 117.4 100.78C117.72 99.87 118.03 98.95 118.32 98.04C119.1 95.69 119.85 93.28 121.02 91.04C121.4 90.35 121.37 90.46 121.31 91.13C121.26 91.81 121.22 93.06 120.98 94.46L120.31 98.22C120.02 99.46 119.77 100.74 119.35 101.97C118.5 104.43 117.41 106.92 115.73 109.11C114.7 110.4 113.5 111.63 112.07 112.62L110.96 113.3C110.58 113.51 110.16 113.65 109.77 113.83C108.96 114.21 108.17 114.35 107.37 114.58C103.87 115.39 100.39 115.62 96.9201 115.77C94.7801 115.86 92.6502 115.89 90.5301 115.91C87.3102 115.93 84.0701 115.86 80.8801 115.84C78.4001 115.84 75.9602 115.96 73.5002 115.99C72.9602 115.99 72.4301 116.03 71.8801 116C70.8701 115.94 70.2102 115.87 69.7502 115.69C69.2902 115.51 69.0401 115.22 68.8401 114.88C68.7501 114.73 68.6302 114.59 68.5802 114.47C68.5002 114.27 68.6602 114.1 69.0402 113.85C69.4202 113.58 70.0001 113.44 70.7401 113.38C72.9301 113.14 75.1702 113.13 77.4302 113.11C79.7002 113.09 81.9902 113.12 84.2902 113.13C87.7002 113.15 91.1302 113.19 94.5402 113.07V113.14V113.13Z" fill="#231F20"/>
<path d="M95.8299 79.05C96.0099 79.66 96.1899 80.2699 96.4099 80.8799C96.4899 81.0999 96.6199 81.2899 96.6999 81.5199C96.9599 82.3099 97.2299 83.1099 97.4599 83.9299C97.5699 84.2899 97.7299 84.6299 97.8799 84.9599C98.1199 85.3699 98.2099 85.8499 98.2299 86.3599C98.2299 86.5199 98.0499 86.5799 97.7799 86.5599C97.5199 86.5399 97.1199 86.4699 96.8999 86.2799C96.4699 85.9599 96.2999 85.5299 96.0499 85.1299C95.8299 84.7199 95.6099 84.2999 95.4899 83.8199C95.3599 83.2499 94.9899 82.76 94.7299 82.23C94.4599 81.64 94.1999 81.0299 93.9499 80.4199C93.7999 80.0399 93.6499 79.6599 93.4999 79.2899C93.2599 78.7199 93.0999 78.1199 92.8499 77.5599C92.6599 77.1299 92.3599 76.7399 92.1199 76.3199C92.0699 76.2299 92.0099 76.1399 91.9799 76.0399C91.8599 75.6699 91.9799 75.5 92.4499 75.26C92.5599 75.21 92.6599 75.1499 92.7699 75.0999C93.1399 74.9399 93.5199 74.9799 93.7599 75.1799C94.4899 75.7699 94.8299 76.52 95.2099 77.26C95.5099 77.8 95.6399 78.43 95.8699 79.01L95.8199 79.0399L95.8299 79.05Z" fill="#231F20"/>
<path d="M103.6 50.45C103.24 51.37 102.92 52.3 102.42 53.16C102.18 53.59 101.98 54.04 101.71 54.46L100.88 55.69C100.51 56.31 100.02 56.85 99.5599 57.4C97.7899 59.24 95.5699 60.63 93.1899 61.37C92.6499 61.5 92.1399 61.73 91.5899 61.81C91.0499 61.91 90.5099 62.02 89.9799 62.12C89.2899 62.22 88.5799 62.18 87.8899 62.16C87.1999 62.1 86.5199 61.86 85.8699 61.65C85.4599 61.5 85.5399 61.41 85.9099 61.2C86.1599 61.06 86.4199 60.91 86.6599 60.78C86.9599 60.6 87.2999 60.44 87.6599 60.39C87.9799 60.32 88.2799 60.21 88.5899 60.12L89.0399 59.98L89.4999 59.93C90.0999 59.8 90.6799 59.64 91.2699 59.52C91.8399 59.32 92.3999 59.11 92.9799 58.94C93.5299 58.69 94.1099 58.49 94.6699 58.24C95.2999 57.86 95.9899 57.51 96.4999 56.93L97.3199 56.12C97.5599 55.81 97.7899 55.51 98.0399 55.22L98.4499 54.74L98.7999 54.2L99.4999 53.13L100.07 51.97C100.27 51.58 100.46 51.2 100.59 50.78L101.13 49.26L101.5 47.68C101.83 46.08 102.03 44.41 101.96 42.76C101.96 42.12 101.84 41.49 101.71 40.87C101.56 40.25 101.49 39.63 101.35 39.01C101.29 38.74 101.2 38.48 101.15 38.2C100.99 37.18 101.19 36.81 101.82 36.45C101.97 36.37 102.11 36.27 102.25 36.21C102.74 36 103.25 36.35 103.63 37.11C104.77 39.37 104.92 42.03 104.81 44.66C104.71 45.64 104.59 46.62 104.42 47.59C104.16 48.56 104 49.53 103.66 50.47L103.59 50.45H103.6Z" fill="#231F20"/>
<path d="M56.2799 90.3101C55.2599 90.2301 54.2299 90.1901 53.1999 90.1601C52.8199 90.1601 52.4499 90.2201 52.0699 90.2101C50.7299 90.1701 49.3799 90.1301 48.0399 90.1001C47.4399 90.1001 46.8399 90.1401 46.2499 90.1201C45.8699 90.1101 45.4899 90.1501 45.0999 90.1001C44.7099 90.0301 44.3299 89.9201 43.9499 89.8001C43.7099 89.7201 43.7399 89.5801 43.9399 89.3401C44.1399 89.1201 44.4899 88.7001 44.9099 88.4801C45.2799 88.2701 45.6599 88.2501 46.0299 88.1301C46.4099 88.0601 46.7799 87.9101 47.1599 87.9201C47.9199 87.9101 48.6899 87.9201 49.4799 88.0101C50.4199 88.1101 51.3699 87.9101 52.3299 87.8701C53.3799 87.8201 54.4399 87.8101 55.4999 87.8101L57.4599 87.8401C58.4499 87.8601 59.4499 87.9601 60.4399 87.9701C61.2099 87.9801 61.9799 87.8701 62.7599 87.9001C62.9299 87.9001 63.0999 87.8701 63.2699 87.9401C63.8899 88.1401 64.0499 88.3601 64.0799 88.9101C64.0799 89.0301 64.0999 89.1601 64.0999 89.2701C64.0799 89.6601 63.7699 89.9601 63.3099 90.1301C61.9499 90.6301 60.6799 90.5001 59.3299 90.4901C58.3299 90.4901 57.3199 90.4201 56.2999 90.3901V90.3301L56.2799 90.3101Z" fill="#231F20"/>
<path d="M49.0501 82.5C48.4601 82.41 47.8701 82.33 47.2801 82.23C47.0601 82.2 46.8501 82.23 46.6301 82.2C45.8601 82.09 45.0801 82 44.3001 81.99C43.9601 81.99 43.6101 82.03 43.2701 82.04C42.8301 82.08 42.4001 82.13 41.9401 82.08C41.8001 82.06 41.7901 81.92 41.8701 81.72C41.9501 81.53 42.1201 81.26 42.3601 81.13C42.7901 80.93 43.2201 80.72 43.6701 80.61C44.1301 80.53 44.5901 80.48 45.0601 80.5C45.6201 80.53 46.1901 80.36 46.7501 80.31C47.3701 80.26 48.0001 80.25 48.6301 80.31C49.0101 80.34 49.4001 80.36 49.7801 80.39C50.3601 80.42 50.9401 80.51 51.5201 80.5C51.9701 80.5 52.4201 80.35 52.8701 80.3C52.9701 80.3 53.0701 80.26 53.1701 80.27C53.5401 80.29 53.6401 80.46 53.6401 81.07C53.6401 81.21 53.6401 81.34 53.6401 81.48C53.6201 81.94 53.4301 82.3 53.1601 82.43C52.3601 82.85 51.5901 82.77 50.8001 82.73C50.2201 82.67 49.6301 82.61 49.0401 82.55V82.5H49.0501Z" fill="#231F20"/>
<path d="M49.9499 73.78C49.4199 73.72 48.8799 73.6 48.3499 73.55C48.1499 73.53 47.9599 73.55 47.7699 73.53C47.0799 73.44 46.3899 73.35 45.6999 73.32C45.3899 73.3 45.0899 73.34 44.7899 73.35C44.3999 73.35 44.0099 73.36 43.6099 73.28C43.4899 73.25 43.4899 73.13 43.5699 72.97C43.6599 72.81 43.8199 72.58 44.0399 72.48C44.7999 72.08 45.5999 72.03 46.4099 72.06C46.8999 72.09 47.3899 71.95 47.8799 71.91C48.4199 71.87 48.9599 71.85 49.4999 71.83C49.8299 71.83 50.1699 71.83 50.4999 71.83C51.0099 71.83 51.5099 71.83 52.0099 71.83C52.3999 71.82 52.7799 71.7 53.1599 71.64C53.2399 71.62 53.3299 71.63 53.4099 71.64C53.7299 71.71 53.8299 71.84 53.9099 72.19C53.9299 72.27 53.9499 72.35 53.9599 72.42C53.9999 72.67 53.8699 72.91 53.6499 73.09C53.3199 73.38 52.9699 73.54 52.6299 73.64C52.2799 73.75 51.9299 73.85 51.5699 73.9C51.0399 73.9 50.4999 73.83 49.9699 73.8V73.75L49.9499 73.78Z" fill="#231F20"/>
<path d="M81.2801 50.84C80.1101 52.24 78.9301 53.62 77.8701 55.12C77.3301 55.86 76.7701 56.58 76.2501 57.34L74.7301 59.64C73.9701 60.75 73.3801 61.95 72.6801 63.1C72.0701 64.11 71.4501 65.12 70.8901 66.17C70.3201 67.21 69.7101 68.23 69.1501 69.28C68.0601 71.39 66.9701 73.51 66.0101 75.69C65.1101 77.6 64.3901 79.61 63.6401 81.57C62.7801 84.13 61.9601 86.7 60.6201 89.11C60.0801 89.83 60.1601 89.74 60.0301 88.95C59.9601 88.55 59.9201 88.01 59.8601 87.34C59.7901 86.67 59.7901 85.91 59.9501 85.13C61.3101 79.69 63.4001 74.45 66.0701 69.46C67.6401 66.47 69.1601 63.29 70.9401 60.32C71.9001 58.68 73.0001 57.11 74.0301 55.51C75.1701 53.98 76.2401 52.4 77.4501 50.93L79.6801 48.21L82.0601 45.62L82.9601 44.64L83.9301 43.72L85.8701 41.89C87.1901 40.7 88.6001 39.61 89.9301 38.46C91.0401 37.66 92.1201 36.82 93.1901 35.98C94.3001 35.19 95.4701 34.49 96.6201 33.75L97.3801 33.26C97.6401 33.11 97.9101 32.98 98.1901 32.85C99.2301 32.4 99.9301 32.14 100.46 32.07C101 32 101.37 32.12 101.7 32.31C101.85 32.39 102.03 32.45 102.13 32.53C102.3 32.67 102.21 32.9 101.94 33.3C101.68 33.71 101.21 34.15 100.54 34.57C99.5601 35.22 98.5301 35.78 97.5801 36.5C96.6201 37.2 95.5901 37.8 94.6401 38.53C93.6801 39.26 92.7101 39.97 91.7301 40.68C90.8001 41.46 89.8701 42.24 88.9401 43.03C88.2201 43.59 87.6001 44.25 86.9401 44.88C86.2901 45.51 85.6101 46.13 84.9701 46.78L83.1101 48.8C82.4801 49.47 81.8701 50.15 81.3101 50.88L81.2501 50.84H81.2801Z" fill="#231F20"/>
<path d="M99.31 25.9601C99.51 26.1201 99.41 26.3901 99.15 26.7401C99.07 26.8501 98.74 27.0301 98.65 27.0001C98.49 26.9401 98.33 26.8701 98.19 26.7901C98.11 26.7401 97.22 25.7001 96.9 25.3601C96.59 25.0301 96.34 24.6601 96.11 24.2801C95.65 23.5101 95.15 22.7501 94.74 21.9601C94.65 21.7801 94.59 21.5901 94.56 21.3901C94.44 20.7001 94.18 20.0701 93.87 19.4701C93.82 19.3701 93.79 19.2601 93.66 19.1901C93.44 19.0901 92.74 17.3601 92.73 17.1001C92.73 16.4601 92.68 15.8501 92.65 15.2301C92.65 15.1401 92.59 15.0601 92.67 14.9601C92.86 14.7101 92.77 14.5501 92.75 14.3601C92.72 14.1001 92.72 13.8301 92.81 13.5501C92.85 13.4101 92.93 13.2601 93.02 13.1101C93.1 12.9801 93.28 12.9901 93.33 13.0201C93.44 13.1101 93.52 12.9901 93.6 12.9601C93.63 12.9501 93.67 12.9301 93.7 12.9301C93.75 12.9301 94.06 13.2101 94.43 13.4901C94.75 13.7801 95.02 14.1001 95.04 14.1701C95.03 14.2201 96.01 16.0201 96.11 16.2301C96.17 16.3301 96.16 16.4701 96.16 16.6001C96.16 16.6601 96.92 18.1201 96.94 18.1801C97.03 18.5101 97.25 18.7901 97.16 19.1901C97.14 19.2701 97.18 19.3301 97.21 19.3901C97.46 19.9201 97.62 20.4901 97.78 21.0601C97.85 21.3501 97.99 21.6201 98.09 21.9101C98.11 21.9601 98.09 22.0201 98.11 22.0801C98.11 22.1501 98.11 22.2301 98.14 22.2901C98.42 22.9401 98.59 23.6501 98.94 24.2701C99.01 24.4101 99.15 25.2301 99.25 25.3801C99.3 25.4701 99.2 25.9201 99.29 25.9801L99.31 25.9601Z" fill="#231F20"/>
<path d="M106.86 28.1C106.84 28.33 106.53 28.29 106.06 28.09C105.91 28.03 105.55 27.72 105.53 27.63C105.5 27.46 105.47 27.29 105.47 27.14C105.47 27.05 105.97 26.04 106.12 25.68C106.27 25.33 106.48 25.04 106.7 24.75L108.03 23.01C108.13 22.88 108.25 22.77 108.39 22.68C108.87 22.37 109.23 21.95 109.54 21.49C109.59 21.41 109.66 21.35 109.65 21.22C109.63 21 110.55 19.83 110.75 19.75C111.21 19.52 111.59 19.22 112.07 19.01C112.14 18.98 112.16 18.9 112.29 18.93C112.59 19 112.66 18.87 112.78 18.77C112.94 18.64 113.12 18.52 113.32 18.43C113.42 18.38 113.59 18.4 113.74 18.39C113.88 18.39 114.12 18.65 114.13 18.7C114.16 18.84 114.34 18.89 114.45 18.98C114.49 19.01 114.54 19.05 114.57 19.08C114.62 19.13 114.41 20.53 114.34 20.65C114.34 20.65 114.28 20.76 114.2 20.92C114.11 21.07 114.02 21.3 113.88 21.48C113.62 21.87 113.34 22.28 113.3 22.37C113.25 22.47 113.13 22.5 113.03 22.55C112.98 22.58 112.18 23.72 112.13 23.76C111.91 23.95 111.78 24.22 111.41 24.27C111.34 24.28 111.31 24.33 111.27 24.37C110.95 24.75 110.54 25.04 110.16 25.36C109.96 25.52 109.81 25.72 109.64 25.9C109.61 25.93 109.55 25.94 109.51 25.97C109.46 26 109.4 26.02 109.36 26.06C108.97 26.5 108.47 26.86 108.14 27.35C108.06 27.46 107.44 27.78 107.36 27.92C107.31 28 106.87 27.99 106.86 28.09V28.1Z" fill="#231F20"/>
<path d="M109.89 33.12C109.82 33.28 109.62 33.1 109.35 32.74C109.26 32.63 109.09 32.24 109.1 32.17C109.12 32.03 109.14 31.89 109.18 31.77C109.2 31.7 109.82 31.12 110.02 30.9C110.22 30.69 110.44 30.54 110.68 30.44L112.13 29.87C112.24 29.83 112.35 29.82 112.47 29.83C112.89 29.86 113.25 29.75 113.6 29.59C113.66 29.56 113.72 29.56 113.76 29.45C113.82 29.28 114.78 28.95 114.93 28.97C115.29 29.03 115.63 29.02 115.97 29.04C116.02 29.04 116.06 28.99 116.13 29.08C116.3 29.28 116.38 29.21 116.48 29.19C116.62 29.17 116.76 29.16 116.92 29.19C117 29.2 117.11 29.31 117.22 29.4C117.31 29.48 117.42 29.84 117.41 29.89C117.39 30.02 117.5 30.17 117.57 30.32C117.59 30.37 117.62 30.43 117.63 30.47C117.66 30.57 117.08 31.45 116.98 31.47C116.98 31.47 116.69 31.61 116.39 31.77C116.09 31.92 115.78 32.07 115.72 32.11C115.66 32.15 115.57 32.11 115.49 32.11C115.45 32.11 114.58 32.56 114.54 32.57C114.34 32.6 114.18 32.74 113.93 32.59C113.88 32.56 113.85 32.59 113.81 32.59C113.5 32.72 113.15 32.73 112.81 32.78C112.64 32.8 112.49 32.88 112.32 32.93C112.29 32.93 112.25 32.92 112.22 32.91C112.18 32.91 112.13 32.89 112.1 32.91C111.73 33.07 111.31 33.07 110.95 33.24C110.87 33.28 110.37 33.19 110.28 33.24C110.23 33.27 109.93 33.05 109.9 33.11L109.89 33.12Z" fill="#231F20"/>
</svg>
