<svg width="128" height="128" viewBox="0 0 128 128" fill="none" xmlns="http://www.w3.org/2000/svg">
<path d="M52.8202 43.01C53.8102 43.82 54.5702 44.69 55.3402 45.53C55.6102 45.84 55.9302 46.11 56.2002 46.42C57.1302 47.51 58.0302 48.61 59.0502 49.54C59.4902 49.96 59.9902 50.31 60.5002 50.59C60.6602 50.7 60.8402 50.74 61.0002 50.82C61.1602 50.9 61.3202 51.02 61.4802 51.08C61.8102 51.25 62.1302 51.4 62.5002 51.62C62.7302 51.77 62.7202 51.82 62.4902 52.01C62.3802 52.1 62.2102 52.25 61.9702 52.41C61.7302 52.57 61.4702 52.61 61.1802 52.61C60.1202 52.66 59.2702 52.09 58.5102 51.61C57.7202 51.12 57.1502 50.43 56.5802 49.77C55.9302 48.95 55.1202 48.28 54.4202 47.54C53.6502 46.73 52.9102 45.91 52.1102 45.21C51.6202 44.76 51.1102 44.41 50.5802 44.12C49.7502 43.72 48.7702 43.48 48.0002 43.73C47.3802 43.93 47.1402 44.46 47.0402 44.99C47.0202 45.12 47.0002 45.24 46.9702 45.37C46.8602 45.86 46.7302 46.04 46.1602 46.16C46.0302 46.19 45.9102 46.23 45.7802 46.25C45.3602 46.32 45.0002 46.04 44.8802 45.44C44.8202 44.99 44.8002 44.5 44.9302 43.98C45.0902 43.47 45.3802 42.94 45.8202 42.51C46.7102 41.63 47.9902 41.35 48.9802 41.43C50.5002 41.51 51.7902 42.18 52.8402 42.97L52.8102 43.02L52.8202 43.01Z" fill="#231F20"/>
<path d="M76.5602 36.5099C76.9602 36.4099 77.3702 36.3199 77.9602 36.3199C78.3002 36.3199 78.4102 36.3699 78.6302 36.3999C78.8202 36.4299 79.0202 36.4799 79.2202 36.5199C79.5102 36.5899 79.8002 36.6099 80.0902 36.7399C81.0902 37.1199 82.0802 38.0099 82.3402 39.0499C82.4802 39.4999 82.5502 39.9299 82.6002 40.3599C82.6302 40.9099 82.5602 41.4399 82.3502 41.9299C82.2802 42.0799 82.1502 42.0399 81.9902 41.8899C81.8302 41.7399 81.6202 41.4899 81.5202 41.2299C81.4602 40.9999 81.3602 40.7799 81.2902 40.5799C81.2202 40.3799 81.1602 40.1899 81.0802 40.0199C80.9302 39.6699 80.7402 39.4399 80.5802 39.1399C80.3702 38.7599 79.8602 38.6499 79.3702 38.5499C79.1002 38.4899 78.8002 38.4399 78.5002 38.4199C78.3402 38.4099 78.1802 38.3899 78.1202 38.3999C78.0202 38.3999 77.9002 38.4199 77.7602 38.4599C77.4202 38.5399 77.0502 38.6799 76.6902 38.8499C76.1402 39.0899 75.5702 39.3499 75.0902 39.7199C74.7102 40.0099 74.4102 40.3799 74.1302 40.7199C74.0702 40.7899 74.0302 40.8799 73.9602 40.9499C73.7202 41.1899 73.5902 41.1399 73.1102 40.8899L72.7802 40.7199C72.4102 40.5399 72.2502 40.1499 72.4002 39.7799C72.8402 38.7199 73.5302 37.9399 74.4202 37.4299C75.0602 37.0199 75.7602 36.7099 76.5602 36.4799L76.5802 36.5299L76.5602 36.5099Z" fill="#231F20"/>
<path d="M31.67 21.84C31.65 22.05 31.67 22.28 31.69 22.51C31.75 22.74 31.76 22.98 31.87 23.21C31.94 23.38 32.04 23.53 32.12 23.7C32.26 24 32.4 24.3 32.59 24.58C32.76 24.88 32.95 25.17 33.18 25.43C33.39 25.66 33.64 25.83 33.89 25.99C34.22 26.19 34.55 26.32 34.91 26.5C35.02 26.57 35.02 26.73 34.9 26.92C34.78 27.1 34.49 27.37 34.17 27.37C33.63 27.34 33.05 27.26 32.6 26.98C32.15 26.71 31.77 26.35 31.47 25.94C31.16 25.41 30.73 24.97 30.44 24.42C30.15 23.81 29.91 23.17 29.84 22.47C29.8 22.26 29.79 22.05 29.8 21.83C29.82 21.61 29.79 21.4 29.84 21.19C29.92 20.87 29.96 20.54 30.12 20.25L30.33 19.8C30.41 19.66 30.51 19.53 30.6 19.4C30.85 18.96 31.17 18.59 31.51 18.21C31.59 18.14 31.66 18.06 31.76 18.01C32.12 17.82 32.29 17.87 32.54 18.22C32.6 18.3 32.66 18.37 32.71 18.46C32.87 18.74 32.88 19.06 32.76 19.28C32.36 19.91 32.1 20.33 31.91 20.75C31.89 20.83 31.86 20.91 31.82 20.99C31.79 21.07 31.8 21.17 31.77 21.25C31.7 21.42 31.72 21.62 31.7 21.82H31.65L31.67 21.84Z" fill="#231F20"/>
<path d="M111.7 21.75C111.56 22.29 111.28 22.81 110.99 23.23C110.88 23.39 110.81 23.56 110.69 23.7C110.26 24.19 109.77 24.59 109.29 24.95C109.06 25.1 108.86 25.26 108.65 25.42C108.39 25.63 108.14 25.84 107.81 25.95C107.71 25.99 107.61 25.85 107.56 25.66C107.51 25.47 107.48 25.19 107.59 25.03C107.98 24.47 108.29 23.92 108.86 23.62C109.18 23.41 109.35 23.06 109.54 22.77C109.76 22.44 109.95 22.11 110.06 21.75C110.14 21.53 110.19 21.29 110.21 21.06C110.24 20.7 110.23 20.33 110.09 20.01C109.98 19.76 109.74 19.6 109.54 19.48C109.5 19.45 109.44 19.44 109.4 19.42C109.28 19.3 109.35 19.12 109.52 18.77L109.64 18.53C109.77 18.28 110.01 18.13 110.34 18.14C111.18 18.37 111.66 19.25 111.8 20.02C111.92 20.61 111.87 21.2 111.76 21.75H111.72H111.7Z" fill="#231F20"/>
<path d="M10.59 60.84C11.2 60.75 11.81 60.73 12.4 60.76C12.61 60.76 12.83 60.73 13.04 60.77C13.79 60.94 14.5 61.19 15.15 61.49C15.43 61.63 15.74 61.71 16.01 61.86C16.36 62.04 16.69 62.26 16.96 62.56C17.04 62.65 16.98 62.73 16.83 62.8C16.68 62.87 16.42 62.97 16.21 62.96C15.42 62.96 14.8 62.85 14.15 62.64C13.76 62.5 13.32 62.62 12.92 62.66C12.47 62.66 12.02 62.7 11.57 62.79C11.29 62.85 11.02 62.91 10.75 63.02C10.34 63.16 9.94997 63.36 9.59997 63.61C9.33997 63.82 9.17997 64.15 9.00997 64.44C8.96997 64.5 8.92997 64.56 8.87997 64.61C8.67997 64.78 8.49997 64.72 8.05997 64.42L7.75997 64.21C7.43997 63.97 7.26997 63.65 7.30997 63.34C7.33997 62.85 7.55997 62.49 7.82997 62.18C8.10997 61.87 8.42997 61.58 8.79997 61.39C9.35997 61.1 9.96997 60.92 10.58 60.79L10.6 60.84H10.59Z" fill="#231F20"/>
<path d="M25.35 103.83C25.41 104.13 25.54 104.52 25.83 104.87C25.92 105.01 26.06 105.1 26.17 105.23C26.55 105.72 27.06 106.16 27.59 106.58C27.82 106.78 28.1 106.91 28.36 107.04C28.7 107.21 29.03 107.44 29.34 107.72C29.44 107.81 29.39 107.91 29.24 108.02C29.1 108.13 28.82 108.31 28.56 108.34C28.33 108.34 28.09 108.37 27.87 108.35C27.66 108.3 27.45 108.23 27.24 108.16C26.83 108.01 26.43 107.81 26.12 107.47C25.73 107.1 25.23 106.85 24.81 106.47C24.36 106.04 23.96 105.52 23.71 104.88C23.62 104.69 23.55 104.49 23.52 104.28C23.48 104.07 23.42 103.86 23.44 103.64L23.46 103.15C23.49 102.99 23.54 102.84 23.58 102.69C23.64 102.37 23.8 102.12 23.92 101.85C24 101.62 24.11 101.44 24.2 101.23C24.3 101.03 24.38 100.79 24.51 100.62C24.56 100.54 24.6 100.45 24.67 100.37C24.93 100.12 25.12 100.15 25.49 100.46C25.57 100.53 25.66 100.6 25.74 100.68C26 100.94 26.12 101.26 26.08 101.52C25.89 102.22 25.63 102.66 25.48 103.04C25.42 103.31 25.34 103.52 25.41 103.81L25.36 103.83H25.35Z" fill="#231F20"/>
<path d="M119.73 97.87C119.69 98.53 119.52 99.1899 119.22 99.7699C119.11 99.9799 119.04 100.22 118.87 100.39C118.6 100.7 118.34 100.92 118.01 101.18C117.69 101.42 117.3 101.63 116.92 101.71C116.58 101.79 116.26 101.84 115.95 101.86C115.56 101.9 115.17 101.91 114.8 101.77C114.68 101.73 114.7 101.56 114.8 101.37C114.89 101.18 115.06 100.94 115.25 100.87C115.59 100.75 115.9 100.62 116.14 100.49C116.37 100.34 116.54 100.29 116.78 100.18C117.06 100.07 117.27 99.59 117.4 99.33C117.59 99.02 117.73 98.66 117.78 98.26C117.8 98.01 117.82 97.7499 117.78 97.4999C117.72 97.1099 117.62 96.7 117.38 96.37C117.19 96.12 116.9 95.9599 116.65 95.8099C116.59 95.7799 116.52 95.77 116.48 95.72C116.32 95.56 116.35 95.42 116.6 94.97L116.76 94.6699C116.95 94.3399 117.24 94.1499 117.56 94.1999C118.48 94.3699 119.11 95.1099 119.43 95.9199C119.68 96.5299 119.79 97.1899 119.79 97.8599H119.74L119.73 97.87Z" fill="#231F20"/>
<path d="M16.0901 83.1C16.5701 83.94 17.2301 84.73 18.0001 85.44C18.2801 85.69 18.6101 85.89 18.9101 86.12C19.9701 86.95 21.1001 87.79 22.4001 88.34C22.9701 88.58 23.5801 88.73 24.1801 88.87C24.9601 89.03 25.7401 89.11 26.5401 89.35C26.7901 89.43 26.7601 89.77 26.5401 90.13C26.3201 90.48 25.8601 90.92 25.3401 90.97C24.4201 91.02 23.4501 91.07 22.5501 90.8C21.6501 90.55 20.7901 90.18 19.9901 89.69C19.0401 89.11 17.9901 88.65 17.0901 87.94C16.1101 87.17 15.2401 86.28 14.4701 85.27C14.0101 84.64 13.6201 83.97 13.2801 83.28C12.7701 82.23 12.4301 81.09 12.3101 79.88C12.2101 78.96 12.1501 77.95 12.4901 76.96C12.5701 76.75 12.6101 76.52 12.7401 76.32C13.2501 75.62 13.6501 75.63 14.1501 75.91C14.2701 75.98 14.3901 76.04 14.4901 76.12C14.8301 76.39 14.9301 76.86 14.8701 77.28C14.8701 77.62 14.8101 77.87 14.7901 78.13C14.7701 78.39 14.7501 78.63 14.7601 78.88C14.7701 79.38 14.8401 79.92 15.0001 80.49C15.2301 81.33 15.6101 82.24 16.1401 83.06L16.0901 83.1Z" fill="#231F20"/>
<path d="M21.5799 49.76C21.4599 50.35 21.4199 51.02 21.5799 51.74C21.6199 52 21.7499 52.24 21.8399 52.5C22.1199 53.43 22.5599 54.39 23.1899 55.24C23.4399 55.64 23.7799 55.97 24.0999 56.31C24.3299 56.5 24.5299 56.73 24.7299 56.96C24.9299 57.19 25.1199 57.43 25.2999 57.7C25.4099 57.87 25.2899 58.01 25.0099 58.1C24.7399 58.18 24.2799 58.28 23.8899 58.15C23.5799 58 23.2099 57.91 22.9499 57.69C22.6699 57.49 22.4099 57.26 22.1599 57.03C21.8899 56.81 21.6799 56.53 21.4799 56.25C21.2699 55.97 21.0999 55.66 20.9399 55.35C20.5599 54.61 20.0199 53.91 19.6799 53.09C19.3399 52.18 19.0799 51.2 19.1799 50.18L19.2099 49.72L19.3099 49.26C19.3799 48.96 19.4299 48.65 19.5699 48.37L19.8499 47.73C19.9599 47.52 20.0999 47.34 20.2299 47.15C20.4699 46.75 20.7799 46.43 21.0699 46.1C21.2799 45.82 21.5099 45.57 21.7399 45.32C21.9599 45.06 22.1999 44.8 22.4799 44.63C22.5999 44.55 22.7099 44.46 22.8499 44.39C23.0899 44.25 23.2799 44.22 23.4599 44.29C23.6299 44.34 23.7699 44.45 23.9199 44.61C23.9899 44.69 24.0599 44.75 24.1099 44.83C24.2899 45.07 24.2499 45.45 24.1099 45.87C23.9599 46.11 23.8099 46.34 23.6599 46.56C23.5299 46.8 23.4199 47.03 23.2399 47.18C23.0699 47.35 22.9099 47.51 22.7899 47.69C22.6699 47.86 22.4899 48.01 22.3799 48.19C22.0499 48.7 21.7499 49.19 21.6699 49.78H21.6099L21.5799 49.76Z" fill="#231F20"/>
<path d="M85.7502 52.57C85.9302 53.71 85.7202 54.68 85.4602 55.59C85.3602 55.92 85.2802 56.25 85.1502 56.55C84.6902 57.62 84.1002 58.57 83.5302 59.53C83.2902 59.96 83.0502 60.38 82.8102 60.81C82.5102 61.36 82.2002 61.89 81.8602 62.42C81.7502 62.58 81.7402 62.55 81.7702 62.38C81.8002 62.21 81.8402 61.9 81.9502 61.55C82.3402 60.33 82.7202 59.12 83.2102 57.97C83.5102 57.28 83.7002 56.53 83.8702 55.81C84.0402 55.05 84.1502 54.25 84.0402 53.54C83.9802 53.1 83.8602 52.68 83.6202 52.35C83.2802 51.83 82.7102 51.45 82.0402 51.24C81.5102 51.09 80.9402 51.15 80.3802 51.21C80.2602 51.22 80.1302 51.26 80.0102 51.26C79.5502 51.27 79.4102 51.05 79.3102 50.46C79.2902 50.32 79.2602 50.19 79.2402 50.05C79.1902 49.6 79.4002 49.22 79.8102 49.03C81.0002 48.64 82.4302 48.76 83.8102 49.58C84.8102 50.21 85.6202 51.4 85.8002 52.54H85.7502V52.57Z" fill="#231F20"/>
<path d="M113.55 54.72C113.64 55.84 113.42 56.94 113.03 57.9C112.89 58.25 112.78 58.6 112.6 58.92C111.98 60.07 111.08 60.97 110.2 61.81C109.81 62.18 109.42 62.55 109.04 62.92C108.52 63.36 107.97 63.77 107.36 64.08C107.17 64.18 107.12 64.08 107.16 63.84C107.21 63.62 107.31 63.24 107.53 62.92L108.12 62.1C108.32 61.84 108.55 61.61 108.77 61.36C109.19 60.89 109.61 60.41 110.05 59.91C110.56 59.33 110.88 58.59 111.18 57.89C111.52 57.11 111.72 56.33 111.71 55.52C111.71 55.02 111.64 54.53 111.47 54.05C111.23 53.33 110.84 52.61 110.3 52.03C109.87 51.58 109.31 51.28 108.79 50.95C108.67 50.88 108.54 50.83 108.43 50.76C108.01 50.48 107.96 50.28 108.2 49.74C108.25 49.62 108.3 49.49 108.36 49.37C108.56 48.97 108.95 48.8 109.38 48.94C110.63 49.35 111.72 50.31 112.5 51.55C113.09 52.46 113.49 53.56 113.6 54.69H113.55V54.72Z" fill="#231F20"/>
<path d="M115.51 83.65C114.99 84.61 114.36 85.46 113.67 86.23C113.42 86.51 113.2 86.82 112.93 87.07C111.99 88 110.89 88.73 109.76 89.35C109.26 89.63 108.76 89.9 108.26 90.16C107.61 90.47 106.96 90.82 106.21 90.84C105.98 90.86 105.99 90.79 106.12 90.6C106.22 90.47 106.31 90.34 106.39 90.24C106.5 90.08 106.63 89.94 106.81 89.85C108.03 89.16 109.11 88.34 110.22 87.53C110.89 87.04 111.46 86.39 111.99 85.74C112.58 85.03 113.13 84.28 113.56 83.48C113.82 82.98 114.05 82.47 114.2 81.94C114.43 81.14 114.55 80.3 114.39 79.49C114.27 78.87 113.92 78.32 113.54 77.89C113.46 77.79 113.35 77.72 113.28 77.62C112.97 77.29 113.01 77.1 113.36 76.59C113.44 76.47 113.51 76.35 113.6 76.24C113.87 75.87 114.35 75.75 114.79 76.07C116.06 77.06 116.57 78.81 116.48 80.38C116.42 81.58 116.04 82.68 115.56 83.67L115.52 83.65H115.51Z" fill="#231F20"/>
<path d="M84.6098 51.3799C84.8698 51.9599 85.0198 52.5299 85.0898 53.0899C85.1298 53.2899 85.1898 53.4899 85.1898 53.6899C85.2298 54.4099 85.1298 55.1099 84.9998 55.7799C84.9498 56.0799 84.8798 56.3799 84.7998 56.6799C84.6998 57.0599 84.5698 57.4599 84.2498 57.7499C84.1498 57.8399 83.9898 57.6899 83.8498 57.4899C83.7098 57.2799 83.5598 57.0499 83.5898 56.8899C83.6398 56.5899 83.6698 56.2699 83.6998 55.9599C83.7498 55.6399 83.8198 55.3199 83.8798 54.9899C83.9698 54.5799 83.8398 54.1599 83.7698 53.7599C83.6798 53.3199 83.5698 52.8799 83.3898 52.4899L83.2098 52.1299L82.9798 51.8199C82.8598 51.6599 82.7098 51.5599 82.5798 51.4199C82.4098 51.3499 82.2698 51.2099 82.0798 51.2099C81.7998 51.1399 81.5098 51.2999 81.2698 51.3999C81.2098 51.4399 81.1598 51.4899 81.1098 51.5199C80.8998 51.5799 80.7898 51.4599 80.5898 50.9999L80.4498 50.6899C80.2998 50.3399 80.3298 50.0099 80.5598 49.8099C81.2098 49.2199 82.4098 49.2799 83.2698 49.8099C83.6198 49.9799 83.8498 50.2599 84.1098 50.5099C84.3098 50.7799 84.5198 51.0599 84.6598 51.3399L84.6298 51.3599L84.6098 51.3799Z" fill="#231F20"/>
<path d="M22.04 50.09C21.87 50.68 21.89 51.31 21.96 51.94C22.01 52.17 22.11 52.38 22.15 52.61C22.39 53.39 22.68 54.23 23.21 54.93C23.43 55.25 23.73 55.51 24.03 55.75C24.44 56.04 24.81 56.35 25.22 56.69C25.34 56.81 25.26 56.95 25.06 57.06C24.86 57.17 24.49 57.29 24.15 57.2C23.88 57.08 23.56 57.01 23.31 56.83C23.07 56.65 22.83 56.46 22.6 56.26C22.39 56.04 22.19 55.82 21.99 55.59C21.82 55.34 21.66 55.08 21.51 54.82C21.37 54.48 21.16 54.18 21 53.85C20.86 53.51 20.68 53.18 20.61 52.81C20.38 52.03 20.38 51.19 20.44 50.39C20.54 49.9 20.61 49.41 20.8 48.95C20.9 48.59 21.09 48.27 21.26 47.94C21.41 47.6 21.65 47.32 21.84 47.02C21.98 46.77 22.15 46.55 22.31 46.33C22.48 46.11 22.62 45.85 22.81 45.65C22.89 45.56 22.97 45.46 23.06 45.38C23.4 45.07 23.58 45.05 23.89 45.31C23.96 45.37 24.04 45.42 24.1 45.49C24.31 45.71 24.33 46.02 24.17 46.28C23.64 47.01 23.16 47.71 22.71 48.41C22.44 48.96 22.16 49.51 22.08 50.11H22.04V50.09Z" fill="#231F20"/>
<path d="M112.77 54.22C112.87 55.28 112.78 56.33 112.55 57.33C112.47 57.69 112.4 58.06 112.27 58.41C111.8 59.64 111.05 60.72 110.21 61.61C109.84 62 109.47 62.39 109.1 62.78C108.86 63.02 108.65 63.28 108.38 63.5C108.1 63.7 107.81 63.89 107.59 64.14C107.44 64.29 107.42 64.24 107.49 64.06C107.52 63.97 107.57 63.85 107.64 63.7C107.7 63.55 107.73 63.34 107.81 63.15C108.11 62.49 108.56 61.98 108.92 61.41C109.1 61.14 109.29 60.87 109.48 60.59C109.67 60.34 109.87 60.08 110.07 59.82C110.54 59.2 110.74 58.42 110.91 57.67C111.09 56.84 111.16 55.98 111.08 55.13C111.03 54.61 110.93 54.09 110.76 53.59C110.5 52.84 110.16 52.08 109.64 51.47C109.24 50.99 108.7 50.67 108.18 50.37C108.07 50.3 107.95 50.25 107.84 50.18C107.44 49.91 107.38 49.73 107.52 49.23C107.55 49.12 107.58 49 107.62 48.89C107.75 48.52 108.12 48.34 108.57 48.46C109.96 48.78 111.03 49.92 111.79 51.15C112.36 52.08 112.68 53.16 112.81 54.23H112.77V54.22Z" fill="#231F20"/>
<path d="M86.4301 68.88C85.6701 69.17 84.8001 69.36 83.9101 69.31C83.6801 69.29 83.4801 69.3 83.2301 69.25C82.9801 69.2 82.7401 69.14 82.5001 69.07C82.0301 68.96 81.4701 68.68 81.0401 68.36C80.1501 67.69 79.6601 66.6 79.6601 65.49C79.6701 64.23 79.9301 63.67 80.1501 62.97C80.6301 61.67 81.2201 60.58 81.7901 59.51C82.3601 58.44 82.9401 57.42 83.4601 56.4C83.7201 55.89 83.9701 55.39 84.1901 54.89C84.3001 54.64 84.4101 54.38 84.5001 54.15C84.5701 53.94 84.66 53.73 84.7101 53.51C84.9601 52.66 84.9101 51.79 84.6601 51.18C84.5401 50.88 84.37 50.67 84.2001 50.56C84.0201 50.45 83.9201 50.39 83.5701 50.4C82.8501 50.41 82.0601 50.71 81.2501 51.28C79.6301 52.42 78.1501 54.24 76.7101 56.05C75.2701 57.88 73.8501 59.82 72.2901 61.69C70.7301 63.56 69.0401 65.41 66.9701 66.96C65.9401 67.73 64.8201 68.43 63.5901 68.96C62.3601 69.49 61.0301 69.84 59.6801 69.98C57.7101 70.16 55.7201 69.9 53.8701 69.21C52.0201 68.53 50.4001 67.41 49.0101 66.17C46.2201 63.67 44.2401 60.57 42.4101 57.69C40.7701 55.16 39.0701 52.72 37.0301 50.7C35.0001 48.69 32.5901 47.15 29.8601 46.45C27.3601 45.73 24.2801 46.16 22.2901 47.69C21.8101 48.08 21.3901 48.52 21.0601 49.01C20.7601 49.51 20.5001 50.09 20.4001 50.61L20.3201 51L20.3401 51.37C20.3101 51.62 20.4401 51.84 20.4801 52.08C20.6901 52.54 20.9401 53.03 21.4101 53.47C22.2701 54.38 23.4901 55.18 24.7601 55.92C26.0401 56.67 27.4001 57.37 28.7701 58.25C31.4901 60.07 33.7301 62.25 35.8301 64.61C36.8701 65.79 37.8301 67.06 38.6801 68.42C39.5201 69.78 40.2901 71.22 40.7501 72.87C40.9701 73.69 41.1201 74.58 41.0501 75.52C40.9901 76.45 40.6601 77.44 40.0501 78.22C38.9601 79.61 37.4401 80.63 35.7301 81.08C34.2101 81.46 32.6901 81.38 31.2701 81.12C29.8501 80.85 28.5101 80.43 27.2101 79.95C24.6201 79.03 22.1401 77.86 19.6601 77.35C17.3901 76.83 14.3201 77.58 13.9501 79.42C13.7001 80.32 13.9601 81.58 14.4301 82.62C14.8901 83.69 15.6701 84.61 16.5601 85.4C17.7301 86.41 19.1401 87.21 20.6501 87.74C22.1501 88.27 23.8201 88.58 25.5101 88.91C27.2101 89.24 28.9701 89.56 30.7101 90.16C31.5801 90.46 32.4401 90.82 33.2801 91.29C34.1501 91.79 34.8901 92.41 35.5601 93.04C36.8901 94.32 37.9801 95.7 39.1001 96.95C39.6601 97.58 40.2301 98.18 40.8201 98.7C41.4201 99.22 42.1001 99.73 42.7801 100.19C45.5101 102.06 48.6201 103.4 51.9101 104.07C53.9601 104.55 54.9001 104.62 54.8301 104.74C54.7701 104.83 53.7301 104.98 51.8601 105.03C50.0001 105.07 47.2901 104.78 44.1701 103.64C42.6101 103.07 41.0101 102.21 39.4201 101.12C37.7201 99.91 36.4001 98.4 35.0601 96.99C33.8901 95.75 32.7101 94.61 31.5601 94.04C30.2401 93.35 28.7201 92.9 27.0901 92.55C25.4501 92.2 23.6901 91.93 21.8701 91.5C20.9701 91.29 20.0001 91.03 19.0601 90.66C18.1301 90.3 17.2201 89.85 16.3501 89.32C14.6001 88.28 13.0101 86.77 11.9501 84.83C11.4201 83.87 11.0501 82.79 10.8701 81.7C10.6901 80.61 10.6401 79.28 11.2301 77.97C11.5001 77.32 11.9501 76.74 12.4301 76.26C12.9301 75.79 13.4801 75.45 14.0301 75.19C15.1401 74.7 16.2301 74.5 17.2701 74.44C19.5101 74.35 21.4401 74.91 23.1701 75.51C24.9101 76.12 26.5401 76.8 28.1501 77.38C29.7501 77.95 31.3401 78.43 32.8301 78.55C34.3201 78.67 35.6401 78.41 36.6801 77.6C36.9501 77.41 37.1901 77.17 37.4301 76.92C37.5301 76.8 37.7001 76.64 37.7501 76.55C37.8101 76.45 37.8901 76.36 37.9301 76.26C38.1401 75.87 38.2101 75.35 38.1201 74.71C37.9601 73.43 37.2501 71.95 36.3901 70.59C35.5201 69.22 34.4801 67.89 33.3801 66.61C32.2701 65.33 31.0801 64.12 29.8201 62.99C29.1901 62.43 28.5401 61.89 27.8801 61.4C27.2301 60.91 26.5501 60.5 25.8001 60.06C24.0101 59 22.0301 58.02 20.1601 56.47C19.2401 55.7 18.2801 54.73 17.7201 53.34C17.4701 52.64 17.3101 51.89 17.3501 51.14C17.3201 50.76 17.4301 50.42 17.4901 50.06L17.6101 49.54L17.8001 49.07C18.2601 47.8 19.0901 46.7 20.0901 45.86C21.0901 45.02 22.2401 44.44 23.4101 44.06C25.7601 43.34 28.2401 43.17 30.6401 43.85C32.9101 44.46 35.0901 45.52 36.9401 46.95C38.8201 48.36 40.3801 50.08 41.7801 51.85C43.1801 53.63 44.4001 55.49 45.5901 57.32C46.7601 59.12 47.9601 60.88 49.3401 62.41C50.8301 64.11 52.5601 65.54 54.5101 66.38C55.4901 66.78 56.5101 67.04 57.5601 67.14C58.6201 67.21 59.6701 67.14 60.7001 66.9C62.7501 66.4 64.6501 65.22 66.34 63.72C68.0401 62.23 69.5501 60.45 71.0101 58.6C72.4701 56.75 73.8701 54.81 75.4201 52.91C76.2001 51.96 77.01 51.03 77.9501 50.15C78.8901 49.28 79.9301 48.43 81.2701 47.89C81.94 47.64 82.6701 47.42 83.4301 47.43C84.1801 47.37 85.1501 47.59 85.8501 48.09C87.3101 49.11 87.8101 50.76 87.8501 52.17C87.8801 52.9 87.7801 53.61 87.6001 54.28C87.5201 54.62 87.4001 54.94 87.2801 55.27C87.16 55.57 87.0401 55.86 86.9101 56.15C86.4001 57.3 85.8301 58.37 85.2601 59.43C84.5601 60.73 83.8501 62.01 83.2901 63.27C83.0201 63.89 82.7901 64.55 82.7101 65.05C82.6501 65.39 82.7101 65.78 83.0101 65.98C83.2601 66.16 83.73 66.25 84.2701 66.24C84.79 66.22 85.34 66.01 85.8901 65.73C86.9901 65.14 88.0001 64.16 88.9601 63.12C89.9201 62.07 90.8101 60.92 91.7701 59.76C92.7501 58.6 93.7901 57.5 94.8801 56.47C97.0601 54.4 99.4201 52.51 102.04 50.95C104.02 49.79 106.17 48.77 108.6 48.41C110.98 48.02 113.93 48.67 115.5 51.09C116.2 52.31 116.36 53.63 116.31 54.86C116.25 56.1 115.99 57.29 115.52 58.44C114.5 60.75 112.84 62.45 111.14 63.99C107.67 67.02 103.73 69.22 100.14 71.73C99.2501 72.36 98.37 73 97.59 73.7C96.83 74.39 96.0801 75.18 95.8501 75.93C95.73 76.3 95.73 76.62 95.8501 76.96C95.9601 77.14 96.0501 77.32 96.1401 77.51L96.5501 77.97C97.1801 78.52 98.1301 78.81 99.1201 78.91C100.68 79.05 102.35 78.86 103.96 78.51C104.77 78.33 105.57 78.11 106.36 77.85C107.15 77.6 107.86 77.29 108.65 76.94C110.2 76.26 111.79 75.45 113.74 75.18C114.7 75.06 115.83 75.15 116.8 75.68C117.26 75.95 117.73 76.26 118.11 76.75C118.47 77.22 118.7 77.75 118.84 78.27C119.11 79.31 119.06 80.32 118.88 81.28C118.79 81.76 118.66 82.23 118.47 82.69C118.28 83.12 118.07 83.53 117.87 83.95C117 85.59 115.82 87.03 114.46 88.24C111.69 90.62 108.41 92.12 105.13 93.25C102.24 94.27 99.3501 94.99 96.5301 95.84C91.2901 97.42 88.2201 99.19 86.2101 100.58C84.2001 101.99 83.1501 102.96 82.1701 103.69C81.7001 104.01 81.2101 104.56 80.8901 104.74C80.6201 104.9 80.5501 104.76 80.6601 104.34C80.7101 104.13 80.8101 103.85 80.9601 103.5C81.1201 103.16 81.3501 102.76 81.6201 102.29C82.2101 101.4 83.05 100.28 84.2701 99.15C85.48 98.02 87.0601 96.89 88.9501 95.87C91.7501 94.36 94.7601 93.28 97.7501 92.4C100.72 91.51 103.62 90.65 106.36 89.49C107.72 88.9 109.02 88.23 110.25 87.49C111.45 86.72 112.55 85.84 113.5 84.86C114.41 83.85 115.12 82.7 115.64 81.51C115.84 80.99 115.99 80.4 116 79.86C116.03 79.32 115.92 78.85 115.8 78.64C115.71 78.52 115.75 78.51 115.55 78.39C115.48 78.33 115.41 78.28 115.32 78.25C115.25 78.21 115.17 78.17 115.07 78.15C114.72 78.04 114.22 78.03 113.63 78.15C112.43 78.37 111.04 79 109.55 79.64C108.82 79.95 107.93 80.31 107.12 80.54C106.3 80.79 105.48 81 104.64 81.17C102.98 81.56 101.25 81.83 99.3601 81.76C98.4201 81.72 97.4101 81.58 96.3701 81.16C95.3301 80.8 94.2501 79.94 93.59 78.86C93.43 78.59 93.2801 78.31 93.1501 78.02C93.0401 77.67 92.9101 77.31 92.8701 76.92C92.7701 76.15 92.91 75.38 93.1401 74.78C93.6101 73.55 94.3101 72.77 94.9601 72.08C96.2901 70.73 97.6601 69.76 99.0101 68.79C100.36 67.84 101.71 66.95 103.03 66.06C105 64.75 106.87 63.38 108.62 61.98C109.49 61.28 110.3 60.54 111 59.76C111.69 59 112.33 58.13 112.68 57.36C113.05 56.54 113.27 55.56 113.3 54.66C113.34 53.76 113.15 52.91 112.85 52.52C112.76 52.39 112.42 52.06 112.11 51.88C111.79 51.68 111.45 51.53 111.06 51.45C110.3 51.25 109.37 51.29 108.4 51.5C106.45 51.92 104.44 52.95 102.56 54.17C100.67 55.4 98.8801 56.84 97.2001 58.4C96.3601 59.18 95.5601 60 94.8001 60.84C94.0501 61.67 93.3301 62.59 92.5501 63.54C91.7801 64.49 90.9901 65.48 90.0401 66.42C89.0901 67.35 88.0001 68.3 86.4701 68.94L86.4101 68.88H86.4301Z" fill="#231F20"/>
<path d="M69.8301 48.63C69.3001 49.49 68.7201 50.35 67.9701 51.16C67.2301 51.96 66.2601 52.75 65.0101 53.15C63.7601 53.54 62.4401 53.53 61.2401 53.08C60.0401 52.63 59.1201 51.84 58.4001 51.05C57.8701 50.47 57.4201 49.89 57.0001 49.33C56.5601 48.76 56.1801 48.18 55.8301 47.61C54.5801 45.63 53.2901 43.67 51.6501 42.44C50.8301 41.85 49.9601 41.48 49.0901 41.57C48.1401 41.65 47.5001 42.02 47.1401 42.84C46.8201 43.57 46.7901 44.54 46.9201 45.5C47.0501 46.46 47.3301 47.43 47.6901 48.36C48.5901 50.79 49.9901 52.99 51.3501 55.26C51.8001 55.94 51.5201 56.11 50.6901 55.89C50.2801 55.77 49.7301 55.55 49.1201 55.2C48.8201 55.02 48.4901 54.82 48.2001 54.56C47.9201 54.29 47.6401 53.99 47.4001 53.65C46.5401 52.44 45.7701 51.15 45.1701 49.76C44.6301 48.34 44.2001 46.86 44.0901 45.2C44.0401 44.37 44.0701 43.5 44.3201 42.57C44.5601 41.65 45.1001 40.64 45.9701 39.93C46.8501 39.21 47.8801 38.96 48.8001 38.86C49.7501 38.81 50.7401 38.95 51.5401 39.33C52.5301 39.75 53.3501 40.34 54.0701 40.97C54.8001 41.6 55.4201 42.29 56.0101 42.98C57.1801 44.37 58.1901 45.86 59.1101 47.24C60.1001 48.79 61.1001 50.2 62.4001 50.63C63.0501 50.84 63.7802 50.87 64.4102 50.58C65.0501 50.31 65.6701 49.78 66.2101 49.14C67.5401 47.52 68.5101 45.41 69.4901 43.33C70.2301 41.74 70.9701 40.12 71.8901 38.55C72.3401 37.76 72.8701 36.99 73.4802 36.27C74.0902 35.55 74.8201 34.86 75.7501 34.39C77.1801 33.62 78.9601 33.6 80.4101 34.04C81.2301 34.28 82.0401 34.8 82.6101 35.5C83.1801 36.2 83.5301 37.02 83.7001 37.81C83.8501 38.51 83.9601 39.19 83.9301 39.87C83.9201 40.5 83.8401 41.01 83.7401 41.43C83.6201 41.85 83.4701 42.16 83.3001 42.41C83.1401 42.66 82.9701 42.84 82.7801 42.97C82.5601 43.09 82.3301 43.16 82.1201 43.21C81.9201 43.26 81.7401 43.34 81.6201 43.35C81.3001 43.42 80.8001 42.3 80.8401 40.91C80.9001 39.87 80.8101 38.82 80.5301 38.06C80.3801 37.69 80.2001 37.43 80.0201 37.25C79.8401 37.06 79.6401 37.01 79.2901 36.9C78.4001 36.66 77.7501 36.71 77.1001 37C76.4501 37.32 75.7401 37.99 75.1101 38.86C74.1701 40.17 73.3301 41.79 72.5301 43.46C71.7201 45.14 70.9202 46.89 69.9102 48.64L69.8501 48.61L69.8301 48.63Z" fill="#231F20"/>
<path d="M25.35 102.19C24.33 102.31 23.69 103.07 23.86 103.88C23.93 104.19 24.15 104.5 24.44 104.81C24.94 105.39 25.74 105.85 26.67 106.23C27.13 106.42 27.63 106.59 28.14 106.77C28.71 106.97 29.24 107.24 29.75 107.53C30.64 108.07 31.5 108.64 32.22 109.37C33.11 110.3 33.98 111.39 34.1 112.75C34.15 113.16 33.94 113.16 33.55 112.98C33.3 112.87 33.04 112.75 32.81 112.64C32.5 112.52 32.23 112.36 32.02 112.14C31.26 111.36 30.36 110.78 29.53 110.16C29.1 109.87 28.65 109.61 28.19 109.39C27.96 109.27 27.73 109.19 27.49 109.08L26.61 108.72C25.9 108.41 25.11 108.14 24.32 107.73C23.53 107.33 22.73 106.77 22.15 105.95C21.81 105.52 21.59 104.96 21.44 104.4C21.33 103.82 21.33 103.2 21.5 102.63C21.84 101.48 22.7 100.61 23.68 100.18C24.28 99.9201 24.92 99.7801 25.55 99.7901C26.14 99.7901 26.68 99.8301 27.23 99.9101C28.91 100.16 30.51 100.87 31.86 101.86C32.92 102.61 33.91 103.5 34.69 104.57C34.85 104.81 35.06 105.03 35.19 105.29C35.4 105.79 35.48 106.14 35.42 106.43C35.34 106.72 35.19 106.92 34.96 107.11C34.86 107.2 34.76 107.3 34.66 107.36C34.49 107.47 34.29 107.45 34.05 107.36C33.8 107.27 33.49 107.11 33.29 106.85C32.91 106.49 32.64 106.11 32.34 105.75C32.04 105.39 31.73 105.06 31.41 104.73C30.76 104.09 30.05 103.55 29.24 103.13C28.64 102.82 28 102.58 27.33 102.42C26.99 102.34 26.65 102.29 26.3 102.25L25.77 102.22C25.62 102.22 25.51 102.24 25.38 102.25V102.19H25.35Z" fill="#231F20"/>
<path d="M6.85004 65.0201C6.45004 64.3301 6.25004 63.5601 6.37004 62.8101C6.49004 62.0601 6.94004 61.4001 7.51004 60.9201C7.96004 60.5001 8.24004 60.3601 8.56004 60.1401C8.90004 59.9601 9.25004 59.8001 9.60004 59.6501L10.56 59.3301C10.88 59.2201 11.21 59.1901 11.54 59.1501C13.91 58.9901 16.04 59.9301 17.59 61.2601C18.29 61.8401 18.97 62.4301 19.56 63.1001C20.34 63.9301 20.97 64.9401 21.19 66.0801C21.26 66.4301 20.95 66.4901 20.5 66.4001C20.06 66.2901 19.45 66.0901 19.04 65.7201C18.31 65.0701 17.63 64.4401 16.89 63.8901C16.16 63.3201 15.36 62.9101 14.58 62.4501C13.63 61.8701 12.46 61.8901 11.48 62.0901C11.14 62.2001 10.77 62.2501 10.45 62.4401C10.29 62.5301 10.1 62.5601 9.94003 62.6701L9.70004 62.8201C9.63004 62.8501 9.63004 62.8901 9.55004 62.8801C9.38004 63.0001 9.19004 63.1901 9.21004 63.4401C9.21004 63.6401 9.31003 63.8401 9.44003 64.0101C9.49003 64.0801 9.61004 64.2201 9.75004 64.3501C9.88004 64.4801 10.03 64.5901 10.18 64.7001C10.6 65.0101 11.23 65.2401 11.84 65.4201C12.46 65.6001 13.1 65.7301 13.77 65.8101C14.8 65.9401 15.88 65.8901 17.01 66.0301C17.26 66.0701 17.51 66.0901 17.76 66.1601C18.7 66.4201 18.87 66.8801 18.75 67.5301C18.72 67.6901 18.71 67.8401 18.66 67.9801C18.5 68.4501 18.01 68.6801 17.42 68.7401C16.58 68.7201 15.74 68.6801 14.81 68.5801C13.88 68.4801 12.88 68.3601 11.81 68.1001C11 67.9101 10.24 67.6401 9.35004 67.2401C8.88004 67.0201 8.46004 66.7501 8.06004 66.4401C7.85004 66.2601 7.71004 66.1501 7.45004 65.8801C7.20004 65.6201 6.98004 65.3401 6.80004 65.0301L6.86004 65.0001L6.85004 65.0201Z" fill="#231F20"/>
<path d="M32.9502 19.44C32.3602 19.4 31.7502 19.5 31.3402 19.71C31.1502 19.81 30.9902 19.91 30.8102 20.11C30.6702 20.29 30.5402 20.48 30.4702 20.71C30.3602 21.04 30.4002 21.42 30.4602 21.82C30.5702 22.53 30.9202 23.3 31.4602 23.89C31.9902 24.48 32.7102 24.88 33.6202 25.16C34.4202 25.41 35.3302 25.5 36.2502 25.73C36.8402 25.87 37.4402 26.05 38.0202 26.31C38.6002 26.56 39.1402 26.95 39.3702 27.67C39.5302 28.09 39.4602 28.06 39.0102 28.18C38.7902 28.23 38.4302 28.4 38.1002 28.5C37.9302 28.55 37.7402 28.64 37.6002 28.65C37.4602 28.65 37.3202 28.64 37.1902 28.59C36.2802 28.25 35.3102 28.15 34.1702 27.82C33.6002 27.67 32.9702 27.5 32.3302 27.24C31.6902 26.98 31.0202 26.59 30.4702 26.08C29.8102 25.48 29.2502 24.81 28.8102 24.05C28.3702 23.3 28.0602 22.42 28.0502 21.48C28.0102 20.46 28.4002 19.35 29.1002 18.6C29.2702 18.41 29.4502 18.23 29.6802 18.08C29.9002 17.92 30.1102 17.76 30.3402 17.68C30.7902 17.45 31.2602 17.34 31.7202 17.25C32.8502 17.07 33.9502 17.17 34.9902 17.48C36.5802 17.9 37.9502 18.9 39.0202 20.09C39.8702 21 40.5802 22.05 41.0702 23.21C41.1702 23.47 41.2702 23.72 41.3402 23.99C41.5402 24.99 41.3002 25.35 40.7602 25.61C40.6302 25.67 40.5102 25.74 40.3802 25.78C39.9502 25.9 39.5002 25.57 39.1802 25.01C38.7402 24.17 38.3502 23.4 37.9302 22.68C37.4902 21.97 36.9402 21.35 36.3202 20.83C35.3802 20.09 34.1702 19.54 32.9602 19.53V19.47L32.9502 19.44Z" fill="#231F20"/>
<path d="M110.57 22.27C110.9 21.9 111.16 21.55 111.26 21.28C111.37 21.02 111.38 20.75 111.21 20.35C111.15 20.23 111.03 20.14 111.03 20.03C110.93 20.02 110.89 19.97 110.82 19.94C110.75 19.91 110.76 19.9 110.61 19.87C110.46 19.85 110.3 19.84 110.13 19.85C109.8 19.85 109.44 19.92 109.09 20.04C108.37 20.27 107.66 20.7 107.01 21.23C106.43 21.7 105.97 22.31 105.54 22.92C105.26 23.31 105.04 23.74 104.82 24.16C104.58 24.57 104.28 24.96 104.04 25.39C103.88 25.65 103.68 25.6 103.47 25.26C103.26 24.93 102.98 24.26 103.07 23.57C103.75 21.33 105.25 19.37 107.48 18.26C108.15 17.94 108.85 17.62 109.66 17.45C110.08 17.34 110.42 17.3 110.97 17.31C111.51 17.34 112.06 17.47 112.51 17.76C112.66 17.86 112.82 17.97 112.92 18.13C113.11 18.29 113.22 18.48 113.36 18.63C113.5 18.79 113.62 18.97 113.71 19.19C113.81 19.4 113.92 19.59 114 19.81C114.06 20.04 114.12 20.27 114.17 20.5C114.3 21.46 114.06 22.38 113.68 23.1C113.15 24.06 112.45 24.77 111.75 25.4C110.67 26.35 109.49 27.06 108.34 27.8C107.48 28.37 106.72 29.04 105.98 29.62C105.82 29.75 105.68 29.9 105.51 30.02C104.9 30.46 104.6 30.42 103.97 29.96C103.83 29.85 103.67 29.76 103.54 29.65C103.1 29.28 103.03 28.66 103.43 28.06C104.03 27.2 104.79 26.49 105.54 25.88C105.93 25.6 106.33 25.35 106.72 25.11L107.8 24.42C108.84 23.73 109.89 22.99 110.51 22.21L110.57 22.25V22.27Z" fill="#231F20"/>
<path d="M118.38 98.75C118.74 98.27 118.86 97.85 118.46 97.22C118.31 97.01 118.09 96.85 117.88 96.68C117.14 96.02 115.72 95.85 114.41 96.19C113.82 96.32 113.28 96.61 112.75 96.89C112.06 97.26 111.54 97.8 110.76 98.19C110.53 98.33 110.51 98.28 110.51 98C110.51 97.86 110.52 97.66 110.54 97.41C110.56 97.29 110.56 97.15 110.61 97.02C110.66 96.91 110.72 96.79 110.81 96.68C111.95 95.14 113.78 94.18 115.77 94.1C116.37 94.09 116.99 94.08 117.63 94.18C118.26 94.27 118.95 94.5 119.51 94.89C120.13 95.31 120.63 95.93 120.94 96.66C121.25 97.39 121.3 98.27 121.09 99.01C120.83 99.93 120.29 100.65 119.66 101.22C118.68 102.09 117.53 102.48 116.5 102.84C115.69 103.11 115 103.56 114.33 103.84C114.18 103.91 114.05 103.99 113.91 104.05C113.38 104.27 113.16 104.21 112.72 103.83C112.62 103.74 112.51 103.66 112.42 103.57C112.12 103.28 112.13 102.78 112.54 102.32C113.14 101.66 113.86 101.05 114.59 100.75C115.31 100.41 115.98 100.15 116.54 99.89C117.4 99.56 117.99 99.21 118.33 98.7L118.39 98.73L118.38 98.75Z" fill="#231F20"/>
<path d="M95.7298 30.0701C95.4498 30.6101 94.9498 30.9501 94.4598 31.0901C94.2798 31.1401 94.0998 31.2101 93.9098 31.2101C93.5698 31.2101 93.2198 31.1201 92.9298 30.9101C92.6398 30.7301 92.4298 30.3501 92.3898 30.0501C92.3498 29.7701 92.3498 29.5101 92.4198 29.2501C92.4698 28.9101 92.8498 28.6101 93.1898 28.6301C93.2998 28.6301 93.2898 28.7501 93.2798 28.8901C93.2498 29.0301 93.2998 29.2501 93.3398 29.3201C93.3398 29.3401 93.3398 29.3501 93.3598 29.3701C93.3898 29.4001 93.4198 29.4301 93.4098 29.4301V29.5001C93.4098 29.5001 93.4098 29.6001 93.4298 29.6401C93.4498 29.7401 93.4598 29.7701 93.4598 29.8401C93.4998 29.9801 93.6898 29.9601 93.8598 29.9301C94.0598 29.9001 94.2698 29.8001 94.3998 29.6501C94.4798 29.5601 94.5398 29.4301 94.5598 29.3001C94.5998 29.1201 94.5098 28.9201 94.4498 28.9401C94.3898 28.9301 94.2598 29.0801 94.3198 29.1501C94.2898 29.1201 94.2498 29.0801 94.2098 29.0601C94.1498 29.0201 94.1298 29.0301 94.1398 29.0301C94.1398 29.0301 94.1398 29.0301 94.1498 29.0301C94.1498 29.0301 94.0298 29.0501 93.9398 29.0801C93.8498 29.1001 93.7698 29.1401 93.6798 29.1701C93.4198 29.3001 93.0598 29.2401 93.0498 28.7801C93.0898 28.1301 93.5498 27.7501 94.0198 27.6001C94.2598 27.5201 94.5598 27.5001 94.8698 27.6001C95.0298 27.6501 95.1798 27.7201 95.3198 27.8301C95.4498 27.9301 95.5398 28.0201 95.6298 28.1301C96.1398 28.8301 96.0098 29.5601 95.7698 30.0801H95.7398L95.7298 30.0701Z" fill="#231F20"/>
<path d="M94.8001 16.35C94.4801 16.97 93.9501 17.3 93.4301 17.45C93.2401 17.5 93.0501 17.57 92.8401 17.56C92.0901 17.56 91.4101 16.97 91.2701 16.38C91.1901 16.12 91.1301 15.87 91.1201 15.61C91.1001 15.29 91.1601 14.88 91.4901 14.68C91.5901 14.62 91.7601 14.81 91.9301 15.01C92.0901 15.21 92.3101 15.38 92.3201 15.43C92.3501 15.64 92.4501 15.82 92.4601 16.02C92.4801 16.17 92.6401 16.13 92.7801 16.11C92.9401 16.1 93.1401 16.01 93.2501 15.89C93.3301 15.83 93.3401 15.69 93.4001 15.68C93.5101 15.66 93.5301 15.64 93.5101 15.65C93.5001 15.65 93.4401 15.76 93.4501 15.72C93.4401 15.7 93.3601 15.69 93.3201 15.72C93.2901 15.74 93.2701 15.93 93.2801 16.09C93.2801 16.13 93.2901 16.17 93.2801 16.21C93.2501 16.36 93.1301 16.4 92.7001 16.31L92.4101 16.25C92.0801 16.17 91.8301 16.02 91.7901 15.82C91.7401 15.53 91.7701 15.16 92.0501 14.76C92.1201 14.66 92.2101 14.57 92.3001 14.48C92.4201 14.38 92.5701 14.28 92.7101 14.23C92.9901 14.11 93.2801 14.06 93.5901 14.09C93.8201 14.11 94.0701 14.18 94.3201 14.34C94.5701 14.49 94.8101 14.77 94.9201 15.07C95.0401 15.37 95.0201 15.64 95.0001 15.84C94.9701 16.03 94.9201 16.2 94.8501 16.36H94.8101L94.8001 16.35Z" fill="#231F20"/>
<path d="M47.9099 28.34L47.8799 28.8C47.8599 28.95 47.7899 29.07 47.7499 29.21C47.6999 29.36 47.6499 29.44 47.5899 29.53C47.5399 29.61 47.4799 29.73 47.4299 29.77L46.9499 30.34C46.8699 30.28 46.7999 30.25 46.7499 30.22C46.6699 30.18 46.6299 30.22 46.4499 30.1C46.1699 29.93 46.0499 29.75 45.9199 29.6C45.7899 29.43 45.6899 29.26 45.6099 29.08C45.5299 28.91 45.4699 28.78 45.3899 28.62C45.2999 28.42 45.2099 28.2 45.2999 27.97C45.3299 27.9 45.5299 27.91 45.7499 27.94C45.9599 27.97 46.1799 28.01 46.2099 28.07C46.3299 28.3 46.4499 28.5 46.5599 28.76C46.5899 28.84 46.6599 28.9 46.7299 28.93C46.7999 28.97 46.8099 28.97 46.8499 29C46.8699 28.98 46.8899 28.96 46.9099 28.92C46.9299 28.89 46.9499 28.84 46.9699 28.78C46.9799 28.71 46.9899 28.63 46.9699 28.55C46.9499 28.42 46.8199 28.28 46.6899 28.29C46.5899 28.29 46.5599 28.41 46.5699 28.5C46.5699 28.52 46.5999 28.54 46.6099 28.54C46.4699 28.47 46.3499 28.42 46.2399 28.36C46.2499 28.36 46.2599 28.36 46.2599 28.36C46.2599 28.36 46.2799 28.36 46.2999 28.36C46.2599 28.36 46.2099 28.38 46.1499 28.39C46.0499 28.41 45.9599 28.45 45.8599 28.48C45.5599 28.6 45.1999 28.59 45.1499 28.17C45.1499 27.84 45.2299 27.67 45.2799 27.54C45.3399 27.4 45.4499 27.28 45.5699 27.18C45.8099 26.97 46.1799 26.89 46.5199 26.9C46.7899 26.9 47.0099 27.01 47.2499 27.14C47.4699 27.3 47.8199 27.52 47.9599 28.33L47.9299 28.35L47.9099 28.34Z" fill="#231F20"/>
<path d="M56.4201 20.9699C56.5201 21.5899 56.2601 22.2399 55.8101 22.6499C55.6501 22.8099 55.4801 22.9399 55.2701 23.0299C54.9001 23.1599 54.5101 23.1099 54.1901 22.9899C53.8601 22.8399 53.6601 22.6299 53.5001 22.3899C53.3601 22.1799 53.2501 21.9799 53.1801 21.7499C53.0801 21.4699 53.0201 21.1199 53.2301 20.8399C53.2901 20.7499 53.4901 20.8699 53.6901 20.9899C53.8901 21.1199 54.1101 21.2099 54.1401 21.2599C54.2201 21.4699 54.3701 21.6499 54.4601 21.8199C54.5001 21.9499 54.6301 21.8899 54.7101 21.8599C54.8101 21.8199 54.9301 21.7299 54.9801 21.5699C55.0101 21.4799 55.0101 21.3599 54.9601 21.2699C54.9601 21.2199 54.8401 21.1299 54.6701 21.2099C54.5501 21.2699 54.5101 21.4599 54.5801 21.4999L54.5101 21.4699C54.4501 21.4699 54.4901 21.4699 54.4901 21.4699C54.5301 21.4699 54.4701 21.4699 54.4001 21.4899C54.3301 21.5099 54.2501 21.5299 54.1501 21.5599L53.8701 21.6599C53.5801 21.7799 53.2401 21.7499 53.1501 21.4099C53.0201 20.8899 53.2801 20.3699 53.6001 20.0799C53.9201 19.7699 54.3501 19.6099 54.8401 19.6199C55.2001 19.6199 55.6501 19.7699 55.9701 20.0699C56.1301 20.2099 56.2701 20.4199 56.3001 20.5099C56.3801 20.6499 56.4301 20.7999 56.4601 20.9599H56.4201V20.9699Z" fill="#231F20"/>
<path d="M119.93 67.3C119.49 67.8 118.99 67.9 118.54 67.89C118.37 67.89 118.2 67.89 118.03 67.82C117.37 67.54 117.19 66.92 117.2 66.49C117.2 66.29 117.2 66.11 117.24 65.92C117.27 65.69 117.33 65.41 117.59 65.3C117.67 65.26 117.85 65.46 118.04 65.66C118.22 65.86 118.43 66.03 118.43 66.07C118.43 66.22 118.44 66.31 118.35 66.43C118.31 66.48 118.36 66.48 118.35 66.51C118.37 66.48 118.36 66.47 118.38 66.48C118.41 66.5 118.53 66.5 118.57 66.48C118.57 66.47 118.66 66.51 118.62 66.5C118.83 66.5 118.73 66.47 118.69 66.53C118.69 66.53 118.67 66.5 118.62 66.5C118.59 66.5 118.55 66.53 118.54 66.57C118.54 66.67 118.53 66.52 118.47 66.45C118.47 66.43 118.43 66.39 118.43 66.39C118.43 66.39 118.58 66.42 118.29 66.37C118.19 66.36 118.09 66.35 117.99 66.35C117.66 66.35 117.34 66.21 117.4 65.84C117.52 65.28 118.05 64.98 118.43 64.92C118.83 64.85 119.23 64.92 119.63 65.2C119.93 65.4 120.22 65.82 120.25 66.27C120.3 66.68 120.17 67.04 119.96 67.32L119.93 67.3Z" fill="#231F20"/>
</svg>
