<svg width="128" height="128" viewBox="0 0 128 128" fill="none" xmlns="http://www.w3.org/2000/svg">
<path d="M53.16 40.25L49.75 52.3C49.75 52.3 63.97 63.9 81.54 57.12C81.54 57.12 81.54 50.01 78.13 41.17C78.13 41.17 68.16 47.26 58.94 42.23C54.31 39.71 53.16 40.25 53.16 40.25Z" fill="#231F20"/>
<path d="M42.1899 72.76L36.4399 89.33C36.4399 89.33 59.4699 106.86 89.1899 95.96C89.1899 95.96 90.4399 90.99 86.8599 79.01C86.8599 79.01 69.0999 84.19 58.7399 80.39C48.0499 76.48 42.1899 72.76 42.1899 72.76Z" fill="#231F20"/>
<path d="M73.5201 82.37C70.6301 82.57 67.7301 82.59 64.8501 82.41C63.8001 82.36 62.7401 82.31 61.6901 82.2C57.9901 81.71 54.3401 80.79 50.9101 79.28C49.3801 78.63 47.8901 77.87 46.4801 76.99C44.6901 75.87 42.9401 74.43 42.0301 72.44C41.7201 71.85 41.9601 71.8 42.5801 72C42.8901 72.1 43.3001 72.25 43.7501 72.44C43.9601 72.55 44.2501 72.61 44.4801 72.73C44.7101 72.86 44.9301 73.01 45.1401 73.18C46.7101 74.33 48.3201 75.39 50.0801 76.28C51.8401 77.17 53.7101 77.9 55.6601 78.52C57.9901 79.27 60.5601 79.52 63.0701 79.74C65.8401 79.98 68.6401 80.03 71.4301 79.88C73.1501 79.78 74.8701 79.64 76.5801 79.38C79.1601 79 81.7501 78.5 84.2101 77.7C86.1101 77.06 87.8801 76.17 89.4901 75.15C89.8201 74.91 90.1501 74.67 90.4901 74.43C91.7301 73.57 92.0601 73.41 92.8401 73.59C93.0101 73.62 93.1801 73.62 93.3201 73.66C93.5501 73.72 93.6301 73.93 93.6001 74.35C93.6001 74.81 93.2901 75.28 92.8501 75.84C91.4301 77.36 89.6501 78.31 87.8501 79.14C86.0301 79.94 84.1401 80.55 82.2101 81.02C79.3601 81.74 76.4401 82.15 73.5301 82.42V82.35L73.5201 82.37Z" fill="#231F20"/>
<path d="M74.1101 100.84C70.6701 101.07 67.23 101 63.82 100.67C63.2 100.6 62.5701 100.55 61.9501 100.51C61.33 100.44 60.7101 100.36 60.09 100.26C55.73 99.54 51.5001 98.19 47.4901 96.4C46.6001 96 45.7301 95.56 44.84 95.16C43.97 94.71 43.12 94.24 42.28 93.77C40.17 92.48 37.9701 91.19 36.4901 89.1C36.0301 88.46 36.24 88.39 37.01 88.48C37.81 88.54 39.11 88.76 40.3 89.4C42.27 90.76 44.42 91.78 46.51 92.91C48.62 94.03 50.84 94.95 53.1 95.84C55.82 96.89 58.8501 97.35 61.8101 97.72C65.0701 98.13 68.3801 98.3 71.68 98.15C73.71 98.05 75.7501 97.88 77.7601 97.57C80.8101 97.11 83.8501 96.41 86.6901 95.31C88.8901 94.45 90.92 93.26 92.64 91.87C93 91.56 93.3601 91.24 93.68 90.91C94.9201 89.74 95.24 89.52 96.03 89.37C96.2 89.33 96.3701 89.25 96.5101 89.23C96.7401 89.19 96.8801 89.37 96.9801 89.86C97.0501 90.11 97.0401 90.43 96.9401 90.75C96.8501 91.08 96.7301 91.5 96.5101 91.85C95.9001 93.03 94.9501 93.81 94.0401 94.61C93.1001 95.36 92.08 96 91.03 96.55C88.93 97.67 86.69 98.49 84.43 99.14C81.0601 100.09 77.59 100.65 74.13 100.95V100.88L74.1101 100.84Z" fill="#231F20"/>
<path d="M71.4799 44.52C69.7999 44.54 68.1299 44.45 66.4599 44.3C65.8499 44.25 65.2399 44.25 64.6399 44.16C62.5099 43.82 60.3899 43.3 58.3699 42.46C57.4799 42.09 56.5499 41.72 55.7199 41.17C55.1899 40.82 54.6499 40.43 54.1999 39.93L53.8699 39.55C53.7899 39.4 53.7099 39.24 53.6399 39.09C53.4799 38.79 53.3999 38.45 53.3299 38.13C53.2499 37.71 53.5599 37.69 54.0399 37.79C54.3199 37.86 54.6099 37.92 54.8599 37.98C55.1699 38.06 55.4899 38.09 55.6899 38.26C55.8799 38.4 56.0499 38.55 56.2699 38.67C56.4699 38.8 56.6699 38.92 56.8999 39.03C57.1099 39.15 57.3399 39.25 57.5799 39.36C57.7999 39.49 58.0199 39.61 58.2599 39.72C59.1999 40.19 60.2299 40.6 61.3099 41C62.6099 41.48 64.0799 41.54 65.4899 41.67C67.0499 41.82 68.6399 41.89 70.2299 41.87C71.2099 41.85 72.1899 41.83 73.1599 41.74C74.6299 41.6 76.1199 41.43 77.5299 41.03C78.6199 40.72 79.6199 40.19 80.5099 39.64C80.6999 39.52 80.8799 39.38 81.0499 39.25C81.7099 38.79 81.9399 38.87 82.5799 39.23C82.7299 39.32 82.8899 39.38 83.0299 39.47C83.2699 39.62 83.3999 39.84 83.3999 40.13C83.3999 40.44 83.2499 40.81 82.9499 41.13C81.1099 42.93 78.7899 43.55 76.5499 44.05C74.8699 44.38 73.1699 44.53 71.4799 44.62V44.55V44.52Z" fill="#231F20"/>
<path d="M72.7698 59.87C70.6398 59.96 68.5198 59.9 66.4098 59.65C65.6398 59.55 64.8698 59.54 64.1098 59.39C61.4198 58.91 58.8098 58.09 56.3298 56.99C55.2398 56.47 54.1298 55.99 53.0898 55.39C51.7998 54.58 50.3898 53.78 49.6498 52.33C49.3898 51.91 49.6098 51.8 50.1398 51.81C50.4098 51.81 50.7598 51.83 51.1498 51.87C51.3398 51.9 51.5598 51.9 51.7498 51.95C51.9398 52.01 52.1098 52.09 52.2798 52.19C52.5698 52.39 52.8798 52.55 53.1898 52.72C53.4998 52.89 53.7998 53.06 54.1198 53.21C54.7398 53.54 55.3498 53.87 55.9898 54.18C57.2698 54.78 58.5898 55.32 59.9498 55.83C61.5898 56.45 63.4398 56.6 65.2198 56.78C67.1898 56.97 69.1798 57.04 71.1798 56.99C72.4098 56.96 73.6398 56.86 74.8598 56.7C76.6998 56.45 78.5598 56.11 80.2898 55.49C81.6298 55 82.8398 54.26 83.8898 53.46L84.5298 52.91C85.3998 52.38 85.7098 52.36 86.4798 52.66C86.6398 52.71 86.7898 52.73 86.8998 52.77C87.0898 52.84 87.1798 53.01 87.2598 53.4C87.3698 53.82 87.1998 54.24 86.9098 54.71C86.6798 55.03 86.4698 55.4 86.1698 55.64C85.8798 55.88 85.5898 56.16 85.2798 56.36C84.6598 56.81 84.0198 57.19 83.3498 57.51C82.0098 58.17 80.6098 58.63 79.1898 59C77.0798 59.53 74.9298 59.8 72.7798 59.95V59.88L72.7698 59.87Z" fill="#231F20"/>
<path d="M25.1602 113.13C24.7202 113.05 24.2702 112.93 23.8202 112.87C23.6602 112.85 23.4902 112.87 23.3302 112.85C22.7502 112.77 22.1502 112.7 21.5602 112.7C21.3002 112.7 21.0402 112.75 20.7802 112.78C20.4502 112.81 20.1202 112.86 19.7602 112.79C19.6502 112.77 19.6302 112.62 19.6802 112.42C19.7302 112.23 19.8502 111.97 20.0302 111.86C20.6602 111.45 21.3702 111.37 22.0902 111.4C22.5202 111.43 22.9502 111.29 23.3902 111.26C23.8702 111.22 24.3502 111.23 24.8302 111.24C25.1302 111.25 25.4202 111.29 25.7102 111.31C26.1502 111.34 26.6002 111.42 27.0402 111.41C27.2102 111.41 27.3802 111.38 27.5602 111.34C27.7302 111.32 27.9002 111.3 28.0702 111.29C28.1502 111.29 28.2202 111.27 28.2902 111.28C28.5702 111.31 28.6402 111.45 28.6502 111.91V112.22C28.6502 112.57 28.5002 112.85 28.2902 112.96C27.9802 113.12 27.6702 113.26 27.3702 113.34C27.0702 113.37 26.7702 113.34 26.4702 113.32C26.0302 113.27 25.5802 113.22 25.1402 113.17V113.12L25.1602 113.13Z" fill="#231F20"/>
<path d="M30.06 114.91C29.5 114.8 28.94 114.69 28.38 114.61C28.17 114.58 27.97 114.61 27.77 114.59C27.04 114.5 26.3 114.36 25.56 114.29C25.23 114.26 24.91 114.29 24.58 114.31C24.17 114.36 23.75 114.31 23.32 114.19C23.19 114.15 23.19 114.02 23.28 113.84C23.37 113.66 23.54 113.37 23.77 113.24C24.17 112.98 24.59 112.9 25.02 112.82C25.44 112.75 25.87 112.71 26.31 112.74C26.83 112.77 27.36 112.65 27.89 112.62C28.47 112.6 29.06 112.61 29.65 112.62C30.01 112.63 30.37 112.65 30.73 112.68C31.27 112.71 31.82 112.79 32.35 112.76C32.77 112.73 33.18 112.61 33.59 112.54C33.68 112.53 33.77 112.49 33.86 112.49C34.2 112.58 34.3 112.77 34.36 113.26C34.37 113.37 34.39 113.48 34.4 113.59C34.42 113.95 34.28 114.27 34.03 114.49C33.29 115.05 32.53 115.11 31.77 115.09C31.2 115.07 30.64 115.05 30.08 114.97V114.91H30.06Z" fill="#231F20"/>
<path d="M37.2498 116.89C36.6198 116.82 35.9698 116.78 35.2798 116.79C35.0298 116.79 34.7898 116.86 34.5298 116.86C33.6298 116.86 32.6898 116.84 31.7598 116.72C31.3498 116.67 30.9398 116.68 30.5298 116.66C30.0098 116.69 29.4798 116.53 28.9998 116.27C28.8498 116.19 28.9098 116 29.0698 115.77C29.2298 115.55 29.5098 115.23 29.7798 115.14C30.2698 114.93 30.7198 114.97 31.1998 114.89C31.6698 114.85 32.1398 114.82 32.6398 114.85C33.2398 114.93 33.8398 114.71 34.4698 114.63C35.1598 114.55 35.8698 114.48 36.5998 114.45C37.0498 114.43 37.5098 114.45 37.9598 114.45C38.6498 114.5 39.3398 114.6 40.0198 114.72C40.5498 114.8 41.0898 114.82 41.6298 114.91C41.7498 114.93 41.8498 114.99 41.9498 115.05C42.3198 115.31 42.3798 115.52 42.2798 115.96C42.2598 116.06 42.2398 116.16 42.2098 116.25C42.1098 116.56 41.8398 116.77 41.4998 116.88C40.9898 117.07 40.5698 117.12 40.1698 117.11C39.7598 117.13 39.3798 117.14 38.9998 117.08C38.4398 116.99 37.8498 116.96 37.2398 116.92V116.86L37.2498 116.89Z" fill="#231F20"/>
<path d="M25.0598 112.14C24.5498 112.06 24.0398 111.98 23.5398 111.9C23.3598 111.87 23.1698 111.89 22.9898 111.86C22.3398 111.76 21.6798 111.67 21.0398 111.57C20.7498 111.53 20.4598 111.52 20.1798 111.52C19.8098 111.52 19.4498 111.54 19.0798 111.45C18.8498 111.4 19.1098 110.76 19.5398 110.64C20.2998 110.51 21.0598 110.38 21.8298 110.53C22.2898 110.62 22.7598 110.55 23.2298 110.57C23.7398 110.6 24.2498 110.63 24.7598 110.66C25.0698 110.68 25.3898 110.7 25.6998 110.72C26.1798 110.74 26.6498 110.78 27.1198 110.77C27.4898 110.76 27.8398 110.65 28.1998 110.62C28.2798 110.62 28.3598 110.59 28.4298 110.59C28.7198 110.59 28.8198 110.69 28.8998 111.02C28.9198 111.1 28.9398 111.17 28.9498 111.25C28.9898 111.5 28.8798 111.73 28.6598 111.84C28.3298 112 27.9898 112.15 27.6498 112.22C27.2998 112.28 26.9598 112.3 26.6098 112.32C26.0898 112.3 25.5798 112.22 25.0698 112.17V112.13L25.0598 112.14Z" fill="#231F20"/>
<path d="M23.2501 111.07C22.7401 111.01 22.2201 110.96 21.7201 110.9C21.5301 110.88 21.3501 110.92 21.1601 110.9C20.5001 110.83 19.8401 110.64 19.1901 110.56C18.9001 110.52 18.6101 110.53 18.3201 110.54C17.9501 110.57 17.5801 110.59 17.2001 110.42C17.0801 110.36 17.0901 110.07 17.1801 109.76C17.2701 109.45 17.4401 109.1 17.6501 109.03C18.4001 108.8 19.1601 108.85 19.9201 109C20.3801 109.1 20.8501 108.99 21.3201 109.03C21.8301 109.07 22.3501 109.11 22.8601 109.15C23.1801 109.17 23.5001 109.2 23.8101 109.22C24.2901 109.23 24.7701 109.3 25.2401 109.28C25.6101 109.28 25.9701 109.12 26.3301 109.11C26.4101 109.11 26.4901 109.09 26.5701 109.11C26.8701 109.15 26.9701 109.27 27.0501 109.62C27.0701 109.7 27.0901 109.78 27.1001 109.86C27.1401 110.12 27.0201 110.35 26.8101 110.5C26.1701 111.02 25.4901 111.06 24.8001 111.15C24.2901 111.22 23.7701 111.13 23.2601 111.13V111.08L23.2501 111.07Z" fill="#231F20"/>
<path d="M21.37 108.87C20.96 108.83 20.5599 108.78 20.1499 108.72C19.9999 108.7 19.85 108.72 19.7 108.69C19.18 108.61 18.6499 108.52 18.1299 108.46C17.8999 108.43 17.66 108.44 17.4299 108.44C17.1299 108.44 16.84 108.49 16.54 108.39C16.36 108.33 16.5899 107.59 16.9299 107.55C17.54 107.49 18.1399 107.48 18.7499 107.59C19.1099 107.66 19.49 107.59 19.87 107.59C20.28 107.59 20.6899 107.61 21.0999 107.65C21.3499 107.67 21.61 107.69 21.86 107.71C22.24 107.73 22.6299 107.77 23.0099 107.75C23.3099 107.74 23.5899 107.65 23.8899 107.6C23.9499 107.59 24.0199 107.56 24.0799 107.56C24.3199 107.54 24.4 107.62 24.45 107.95L24.4799 108.17C24.4999 108.42 24.4099 108.63 24.2299 108.7C23.7099 108.92 23.16 108.95 22.61 108.95C22.2 108.95 21.7899 108.92 21.3799 108.9V108.87H21.37Z" fill="#231F20"/>
<path d="M74.3198 113.17C70.3698 113.37 66.3498 113.54 62.3398 113.35C60.8798 113.27 59.4098 113.26 57.9598 113.08C52.8198 112.54 47.7598 111.38 42.9098 109.69C40.7498 108.95 38.6098 108.13 36.5298 107.24C35.8498 106.97 35.1998 106.65 34.5398 106.35C33.8698 106.06 33.2198 105.73 32.5898 105.36C31.3298 104.62 30.0398 103.95 28.9698 102.92C28.2898 102.3 28.4998 102.21 29.3498 102.25C30.2498 102.23 31.6898 102.49 33.1698 103.14L35.1398 104.03L37.0798 104.96C38.3898 105.54 39.6998 106.12 41.0398 106.64C43.7098 107.69 46.4498 108.61 49.2398 109.39C52.5898 110.32 56.2198 110.71 59.7698 110.96C63.6898 111.24 67.6098 111.2 71.5698 110.98C74.0098 110.85 76.4498 110.7 78.8698 110.47C82.5298 110.11 86.2198 109.66 89.7498 108.78C92.4998 108.1 95.0998 107.12 97.5898 105.94C98.1298 105.67 98.6598 105.4 99.2098 105.12C101.2 104.05 101.94 103.94 102.7 104.22C102.87 104.28 103.06 104.3 103.17 104.36C103.51 104.48 103.03 105.52 101.58 106.57C97.1498 109.44 91.7398 111 86.3798 111.94C82.3798 112.65 78.3398 112.97 74.3398 113.25V113.19L74.3198 113.17Z" fill="#231F20"/>
<path d="M91.0702 74.78C90.1002 70.91 89.1002 67.05 88.0102 63.2C87.6202 61.79 87.1402 60.41 86.7502 59.01C85.3802 54.05 83.9902 49.08 82.6702 44.09C82.0802 41.88 81.4202 39.67 80.7802 37.49C80.3602 36.09 79.9602 34.68 79.6102 33.26L79.3602 32.19L79.1902 31.1C79.1002 30.37 78.9602 29.65 78.9302 28.9C79.0402 27.93 79.0202 28.06 79.6402 28.7C79.9602 29.01 80.3102 29.48 80.7302 30.05C80.9302 30.34 81.1502 30.65 81.3502 30.99C81.4602 31.16 81.5402 31.34 81.6602 31.51C81.7302 31.7 81.8102 31.89 81.8802 32.09C82.3302 33.5 82.9002 34.88 83.2702 36.32L84.4902 40.6C85.2802 43.46 86.0902 46.33 86.7802 49.25C87.6102 52.74 88.8502 56.27 89.8802 59.8C91.0102 63.68 92.1002 67.58 93.1302 71.49C93.7802 73.9 94.3602 76.32 94.9702 78.74C95.8202 82.42 96.6002 86.13 97.3702 89.8C97.9902 92.65 98.6502 95.43 99.2302 98.25C99.3602 98.87 99.4902 99.48 99.5902 100.11C99.7802 101.28 99.8802 102.06 99.8302 102.62C99.7502 103.19 99.5802 103.53 99.3602 103.82C99.2602 103.95 99.1702 104.12 99.0902 104.2C98.9402 104.34 98.7602 104.18 98.4802 103.79C98.2002 103.4 97.8702 102.77 97.6802 101.93C96.4802 96.94 95.2202 91.73 93.9502 86.49C93.0102 82.6 91.9802 78.71 91.0102 74.81L91.0802 74.79L91.0702 74.78Z" fill="#231F20"/>
<path d="M35.01 106.49L33.54 105.69L33.33 105.58L32.99 105.42L32.32 105.1C32.12 104.98 31.82 104.91 31.7 104.75L31.25 104.3L31.03 104.08L30.92 103.97L30.86 103.91C31.44 103.66 31.02 103.84 31.15 103.78V103.75L31.13 103.72L30.91 103.18C30.84 102.99 30.83 102.75 30.79 102.54C30.82 102.31 30.9 102.06 30.96 101.82L31.31 100.6L31.55 99.82L33.52 93.69L37.56 81.51C38.55 78.55 39.45 75.57 40.46 72.62C44.03 62.22 47.69 51.86 51.47 41.53C52.31 39.24 53.15 36.94 53.99 34.64C54.42 33.49 54.86 32.34 55.29 31.2L55.96 29.48L56.32 28.62L56.51 28.18C56.58 28.03 56.69 27.78 56.79 27.59C56.92 27.32 57.07 27.06 57.24 26.83C57.31 26.7 57.42 26.61 57.52 26.51L57.59 26.44L57.61 26.42C57.66 26.49 57.64 26.42 57.66 26.44L57.7 26.41C57.76 26.37 57.82 26.34 57.88 26.3C58.38 26.05 59.01 26.06 59.61 26.02C60.43 25.99 61.2 25.98 61.99 25.97H66.63C69.67 25.93 72.7 25.88 75.73 25.83C77.59 25.82 77.5 25.87 76.05 26.99C75.32 27.51 74.19 28.23 72.76 28.71C72.05 28.96 71.27 29.21 70.44 29.37C69.61 29.51 68.72 29.6 67.81 29.62C66.19 29.67 64.58 29.67 62.99 29.66C62.19 29.66 61.4 29.63 60.63 29.61H59.7V29.59L59.28 30.48C58.97 31.17 58.65 31.88 58.36 32.6L56.65 36.99C54.43 42.92 52.2 48.87 49.96 54.84C47.27 61.99 44.91 69.6 42.44 77.01C39.74 85.16 36.98 93.34 34.47 101.52C34.33 102.01 34.26 102.19 34.19 102.52C34.4 102.73 34.6 102.83 35.03 103.07C36.16 103.68 37.28 104.34 38.5 104.79L40.29 105.54C40.89 105.8 41.48 106.05 42.11 106.23L45.83 107.42C53.46 109.47 61.47 110.36 69.35 110.28C75.48 110.18 81.48 109.4 87.33 108.07C88.6 107.72 89.84 107.38 91.12 107.03C91.7 106.85 92.23 106.68 92.72 106.53C93.21 106.4 93.67 106.29 94.08 106.19C94.87 105.94 95.52 105.74 96.08 105.64C96.66 105.57 97.09 105.48 97.48 105.43C97.87 105.39 98.21 105.4 98.53 105.43C98.82 105.45 99.18 105.41 99.37 105.43C99.69 105.48 99.46 105.82 98.78 106.55C98.44 106.91 97.97 107.4 97.35 107.8C96.74 108.22 95.96 108.61 95.09 109.05C92.47 110.18 89.69 110.93 86.89 111.54C84.08 112.15 81.22 112.57 78.32 112.87C72.53 113.45 66.62 113.5 60.73 113.04C59.63 113 58.54 112.82 57.45 112.71C56.36 112.57 55.26 112.49 54.17 112.29C52 111.9 49.81 111.59 47.66 111.01C43.33 110.05 39.1 108.52 35.06 106.57L35.08 106.5L35.01 106.49Z" fill="#231F20"/>
<path d="M80.3202 120.25C74.0502 120.72 67.7602 120.89 61.4602 120.5C59.1702 120.35 56.8802 120.22 54.6002 119.93C46.5902 118.89 38.6502 117.14 31.1002 114.14C29.4302 113.46 27.7702 112.72 26.1702 111.83C24.5902 110.9 22.9802 109.95 21.6902 108.39C21.4902 108.13 21.2802 107.88 21.1202 107.56C21.0402 107.41 20.9502 107.26 20.8702 107.1L20.6902 106.58C20.5502 106.25 20.5402 105.84 20.4902 105.46C20.5102 105.13 20.5102 104.79 20.5602 104.46C20.7502 103.12 21.4202 101.8 22.4002 100.89C22.8902 100.43 23.4302 100.03 24.0002 99.73C24.5802 99.44 25.1902 99.25 25.7902 99.09C27.0002 98.81 28.2302 98.72 29.4102 98.9C30.1402 99.12 30.4402 99.27 30.4202 99.36C30.4002 99.45 30.0402 99.53 29.4502 99.81C28.8802 100.13 28.0802 100.41 27.2402 100.91C26.8302 101.16 26.4002 101.42 26.0002 101.71C25.8102 101.88 25.5902 102 25.4202 102.18C25.2202 102.31 25.0202 102.45 24.8402 102.6C24.1602 103.1 23.7302 103.73 23.5302 104.43C23.4602 104.6 23.4602 104.8 23.4102 104.97C23.4102 105.15 23.3702 105.4 23.4002 105.51C23.4002 105.7 23.4702 105.97 23.6402 106.29C23.9802 106.94 24.7002 107.65 25.5002 108.27C26.3102 108.91 27.2302 109.46 28.2002 109.96C32.0902 111.99 36.4502 113.43 40.8502 114.69C46.1402 116.18 51.8402 116.98 57.4402 117.5C63.6002 118.1 69.8002 118.14 76.0102 117.75C79.8302 117.51 83.6402 117.14 87.4202 116.57C90.2802 116.14 93.1302 115.61 95.9302 114.92C98.7302 114.23 101.49 113.38 104.05 112.21C106.02 111.3 107.92 110.16 109.18 108.66C109.81 107.92 110.21 107.09 110.26 106.3C110.32 105.52 110.07 104.94 109.45 104.34C108.92 103.83 108.19 103.44 107.41 103.1C105.93 102.51 104.88 102.2 104.16 101.95C103.43 101.65 103.01 101.43 102.6 101.1C102.42 100.97 102.16 100.85 102.02 100.73C101.78 100.53 102.01 100.21 102.75 99.9C103.48 99.6 104.69 99.36 106.18 99.61C107.29 99.75 108.37 100.1 109.44 100.61C110.5 101.14 111.58 101.85 112.44 103.05C112.63 103.38 112.84 103.69 112.99 104.05C113.11 104.43 113.28 104.8 113.32 105.21C113.44 106.05 113.38 106.78 113.21 107.49C112.86 108.93 112.05 110.1 111.19 111.02C109.42 112.82 107.4 113.93 105.38 114.86C103.35 115.79 101.27 116.49 99.1802 117.09C92.9602 118.84 86.6302 119.72 80.3102 120.29V120.22L80.3202 120.25Z" fill="#231F20"/>
<path d="M42.6402 30.03C42.8602 29.97 42.8402 30.3 42.6902 30.87C42.6402 31.05 42.3902 31.54 42.3102 31.59C42.1602 31.69 42.0102 31.78 41.8702 31.84C41.7902 31.87 40.8402 31.75 40.5002 31.74C40.1702 31.73 39.8902 31.63 39.6102 31.52L37.9102 30.87C37.7802 30.82 37.6702 30.74 37.5802 30.63C37.2502 30.26 36.8202 30.09 36.3902 29.92C36.3202 29.89 36.2602 29.84 36.1402 29.9C35.9502 30 34.8402 29.42 34.7402 29.27C34.4802 28.89 34.1702 28.62 33.9102 28.24C33.8802 28.18 33.8102 28.18 33.8202 28.03C33.8502 27.7 33.7302 27.67 33.6402 27.57C33.5102 27.44 33.3902 27.3 33.2902 27.13C33.2402 27.04 33.2302 26.88 33.2002 26.74C33.1802 26.61 33.3702 26.34 33.4102 26.31C33.5302 26.25 33.5502 26.07 33.6002 25.95C33.6202 25.91 33.6502 25.85 33.6702 25.82C33.7002 25.78 34.9702 25.47 35.0902 25.46C35.1702 25.37 36.5502 25.83 36.7302 25.84C36.8202 25.84 36.8702 25.95 36.9302 26.03C36.9602 26.07 38.1202 26.34 38.1602 26.36C38.3702 26.48 38.6202 26.51 38.7102 26.87C38.7302 26.94 38.7802 26.95 38.8202 26.97C39.2002 27.14 39.5102 27.44 39.8402 27.7C40.0102 27.83 40.2102 27.91 40.3902 28.02C40.4202 28.04 40.4402 28.09 40.4602 28.13C40.4902 28.17 40.5202 28.23 40.5602 28.25C41.0102 28.47 41.3802 28.84 41.8602 28.99C41.9702 29.03 42.3202 29.54 42.4602 29.57C42.5302 29.59 42.5702 30.06 42.6602 30.03H42.6402Z" fill="#231F20"/>
<path d="M47.7302 18.77C47.9402 18.88 47.7302 19.13 47.2802 19.46C47.1402 19.57 46.6502 19.76 46.5602 19.74C46.3902 19.7 46.2202 19.66 46.0802 19.61C46.0002 19.58 45.3502 18.76 45.1102 18.49C44.8702 18.23 44.7202 17.93 44.5802 17.63L43.7302 15.79C43.6702 15.65 43.6402 15.51 43.6302 15.35C43.6102 14.81 43.4202 14.33 43.2302 13.86C43.2002 13.78 43.1902 13.69 43.0702 13.64C42.8802 13.56 42.4802 12.22 42.5002 12.03C42.5302 11.55 42.5302 11.07 42.5502 10.6C42.5502 10.53 42.5102 10.48 42.5902 10.39C42.7702 10.19 42.7202 10.06 42.7102 9.92C42.7102 9.72 42.7102 9.52 42.7402 9.31C42.7602 9.21 42.8402 9.08 42.9002 8.97C42.9502 8.87 43.2102 8.83 43.2502 8.85C43.3602 8.91 43.4602 8.8 43.5602 8.76C43.5902 8.75 43.6402 8.73 43.6702 8.72C43.7002 8.72 43.9402 8.93 44.2202 9.14C44.4902 9.36 44.8002 9.57 44.8102 9.63C44.8202 9.65 45.6102 11.01 45.7202 11.2C45.7802 11.28 45.7602 11.38 45.7602 11.48C45.7602 11.53 46.4302 12.62 46.4502 12.67C46.5202 12.92 46.7302 13.12 46.5902 13.45C46.5602 13.51 46.5902 13.56 46.6102 13.61C46.7902 14.02 46.8402 14.48 46.9302 14.92C46.9802 15.15 47.0802 15.35 47.1602 15.57C47.1702 15.61 47.1602 15.66 47.1602 15.7C47.1602 15.76 47.1502 15.82 47.1602 15.86C47.3702 16.36 47.4402 16.92 47.7202 17.39C47.7802 17.5 47.7602 18.15 47.8402 18.27C47.8802 18.34 47.6402 18.72 47.7302 18.77Z" fill="#231F20"/>
</svg>
