<svg width="128" height="128" viewBox="0 0 128 128" fill="none" xmlns="http://www.w3.org/2000/svg">
<path d="M18.8601 54.34C18.8601 54.34 16.7401 56.12 18.8601 56.44C20.9801 56.77 10.4601 61.86 12.4501 59.42C14.4401 56.98 18.8601 54.34 18.8601 54.34Z" fill="#231F20"/>
<path d="M96.46 112L97.48 110.67C97.86 110.17 98.08 109.55 98.09 108.92L98.13 106.65L99.68 113.14L96.47 112H96.46Z" fill="#231F20"/>
<path d="M44.6002 65.99C43.7602 66.99 42.8402 67.93 41.9802 68.93C41.6602 69.29 41.4002 69.69 41.0802 70.05C39.9402 71.31 38.8202 72.58 37.6402 73.81C37.1302 74.36 36.6402 74.94 36.1702 75.52C35.5102 76.22 34.8202 76.9 34.0602 77.5C33.8202 77.69 33.8002 77.61 33.8602 77.34C33.9302 77.07 34.0402 76.55 34.2802 76.05L34.9502 74.73C35.1902 74.3 35.4802 73.92 35.7602 73.52C36.3302 72.74 36.8802 71.94 37.5602 71.23C38.3602 70.37 38.9902 69.32 39.7002 68.35C40.4902 67.29 41.3002 66.25 42.1202 65.21L43.6702 63.31C44.4402 62.35 45.2502 61.4 45.9802 60.42C46.5402 59.65 46.9902 58.81 47.4902 57.99C47.6002 57.81 47.6902 57.62 47.8302 57.46C48.3302 56.86 48.6602 56.82 49.2502 57.09C49.3802 57.15 49.5202 57.2 49.6402 57.27C50.0202 57.49 50.1702 58.03 49.9702 58.59C49.6902 59.44 49.2102 60.14 48.7302 60.87C48.2402 61.59 47.7002 62.28 47.1602 62.97C46.3302 63.98 45.5002 65 44.6702 66.02L44.6202 65.98L44.6002 65.99Z" fill="#231F20"/>
<path d="M87.9902 97.74C87.9902 97.74 92.9902 97.28 91.6402 95.48C90.2902 93.69 94.6002 99.57 94.6002 99.57L87.9902 97.74Z" fill="#231F20"/>
<path d="M68.8901 87.17L75.2001 82.28C75.3401 81.92 76.5701 76.11 76.5701 76.11L68.8901 87.17Z" fill="#231F20"/>
<path d="M100.74 116.06C100.63 116.15 100.53 116.28 100.37 116.38C100.2 116.45 99.9301 116.41 99.5801 116.24C99.4201 116.18 99.2101 116.03 99.0101 115.9L98.4101 115.55C97.9801 115.25 97.5401 114.89 97.1001 114.53L93.2401 111.42C92.5701 110.88 91.8401 110.42 91.1701 109.89C88.7901 108.02 86.3701 106.19 83.8401 104.56C82.7301 103.82 81.5601 103.14 80.3801 102.54C80.0001 102.35 79.6201 102.17 79.2301 101.99L78.1101 101.38C77.7401 101.17 77.3601 100.99 77.0001 100.74C76.6401 100.49 76.2801 100.25 75.9101 100.01C75.4501 99.7 75.5501 99.63 76.0701 99.51C76.3301 99.45 76.7101 99.37 77.1601 99.3C77.3901 99.27 77.6401 99.22 77.8901 99.22C78.1401 99.22 78.3901 99.26 78.6501 99.32C79.1001 99.43 79.5501 99.54 80.0001 99.66C80.4501 99.78 80.8501 99.99 81.2701 100.17C82.1001 100.54 82.9201 100.94 83.7201 101.37C84.5201 101.79 85.3001 102.26 86.0301 102.79C86.7701 103.31 87.5001 103.85 88.2001 104.42C89.8901 105.77 91.8001 106.93 93.5501 108.26C94.4901 108.97 95.5001 109.76 96.3601 110.45L97.5701 111.53C97.8501 111.77 98.1501 112.06 98.4901 112.3L98.2201 111.37L98.0901 110.96C97.9701 110.53 97.7901 110.06 97.6101 109.51C97.3101 108.59 97.0001 107.68 96.6701 106.77C96.0801 105.15 95.3601 103.62 94.7001 102.05C94.5501 101.7 94.3901 101.37 94.2501 101.02C94.1301 100.69 94.0301 100.42 93.9701 100.18C93.9201 99.94 93.9401 99.72 93.9601 99.55C94.0101 99.19 94.1401 98.94 94.3801 98.7C94.4901 98.59 94.5801 98.46 94.6901 98.38C95.0401 98.11 95.6201 98.51 96.2501 99.38C97.6801 102.09 98.8001 105.09 99.8601 108.13L100.81 110.9C101.21 112.03 101.53 113.11 101.98 114.27L101.55 115.51L101.35 116.14L101.3 116.3V116.32C100.66 115.4 101.12 116.07 100.98 115.86L100.96 115.89L100.92 115.94L100.78 116.11L100.74 116.05V116.06Z" fill="#231F20"/>
<path d="M90.5702 38.45C91.1602 37.81 91.7602 37.16 92.3202 36.47C92.5302 36.22 92.6702 35.92 92.8802 35.68C93.6202 34.8 94.4502 33.97 95.2202 33.09C95.5702 32.71 95.8202 32.25 96.1502 31.85C96.3502 31.59 96.5302 31.31 96.7502 31.06C96.9902 30.83 97.2902 30.64 97.6102 30.47C97.8202 30.37 98.0502 30.58 98.2602 30.95C98.4602 31.31 98.7302 31.9 98.6802 32.31C98.2902 33.63 97.4502 34.64 96.4402 35.57C95.8402 36.13 95.4502 36.87 94.9402 37.53C94.3702 38.24 93.7802 38.95 93.1802 39.64C92.8102 40.07 92.4302 40.49 92.0502 40.91C91.4702 41.54 90.8502 42.15 90.3102 42.8C89.8902 43.31 89.5802 43.9 89.1302 44.38C89.0402 44.49 88.9502 44.6 88.8402 44.7C88.4402 45.07 88.1802 45.05 87.7602 44.79C87.6602 44.73 87.5602 44.67 87.4702 44.61C87.1802 44.39 87.1002 44 87.2202 43.59C87.4402 43.02 87.6302 42.42 87.9202 41.91C88.2202 41.41 88.5702 40.94 88.9102 40.47C89.4302 39.78 89.9402 39.07 90.5002 38.4L90.5602 38.44L90.5702 38.45Z" fill="#231F20"/>
<path d="M64.05 38.38L73.03 35.6C74.12 35.26 75.18 34.83 76.26 34.49C80.09 33.29 83.92 32.07 87.69 30.7C89.35 30.07 91.02 29.41 92.63 28.7C93.68 28.26 94.69 27.76 95.73 27.3C96.25 27.08 96.81 26.93 97.34 26.74L98.16 26.48C98.44 26.4 98.74 26.37 99.02 26.31C99.76 26.2 99.71 26.31 99.33 26.9C98.97 27.52 98.26 28.63 97.17 29.43C95.11 30.58 92.97 31.57 90.82 32.5C88.63 33.35 86.41 34.12 84.14 34.79C81.43 35.6 78.73 36.74 76.02 37.68C73.03 38.7 70.02 39.68 67.01 40.64L64.26 41.52L62.91 41.97L62.26 42.21C62.13 42.26 62.07 42.28 62.02 42.3C61.96 42.33 61.9 42.35 61.85 42.38H61.84C61.77 42.46 61.72 42.51 61.63 42.63C61.53 42.76 61.42 42.88 61.32 43.03L60.69 43.9L59.45 45.7C58.63 46.91 57.83 48.15 57.06 49.38C55.86 51.31 54.83 53.29 53.68 55.24C53.43 55.67 53.2 56.11 52.9 56.51C52.36 57.27 51.94 57.74 51.56 58C51.16 58.25 50.8 58.3 50.44 58.27C50.27 58.26 50.1 58.27 49.98 58.25C49.77 58.2 49.71 57.98 49.71 57.56C49.71 57.14 49.82 56.6 50.11 55.99C50.89 54.13 51.93 52.38 52.95 50.56C53.99 48.76 55.08 46.95 56.21 45.14C56.72 44.33 57.24 43.51 57.77 42.7C58.05 42.29 58.31 41.89 58.62 41.47C58.77 41.26 58.91 41.06 59.09 40.82C59.17 40.73 59.27 40.57 59.44 40.39L59.94 39.89C60.2 39.74 60.47 39.58 60.74 39.45C61.02 39.31 61.11 39.3 61.29 39.23L62.22 38.89L64.01 38.27L64.04 38.34L64.05 38.38Z" fill="#231F20"/>
<path d="M42.72 53.81L39.66 50.81C39.29 50.45 38.86 50.15 38.49 49.78C37.21 48.47 35.93 47.15 34.65 45.84C34.07 45.27 33.45 44.75 32.84 44.22C32.45 43.89 32.03 43.57 31.65 43.23C31.47 43.05 31.35 42.79 31.2 42.56C31.05 42.34 31.01 41.99 30.91 41.72C30.82 41.34 30.88 41.33 31.31 41.26C31.53 41.22 31.85 41.15 32.25 41.05C32.62 40.98 32.99 40.98 33.32 41.05C34.21 41.63 35.03 42.3 35.81 43.01C36.56 43.76 37.27 44.55 37.94 45.4C38.74 46.41 39.82 47.19 40.77 48.08L43.87 51.04C44.51 51.65 45.14 52.26 45.8 52.84C46.79 53.73 47.76 54.66 48.8 55.47C49.6 56.12 50.47 56.63 51.31 57.22C51.49 57.35 51.69 57.46 51.86 57.6C52.16 57.89 52.34 58.11 52.39 58.35C52.43 58.61 52.39 58.83 52.29 59.1C52.25 59.22 52.21 59.34 52.16 59.44C52.07 59.61 51.92 59.7 51.68 59.75C51.45 59.8 51.11 59.83 50.81 59.71C49.87 59.42 49.07 58.91 48.24 58.43C47.83 58.18 47.42 57.92 47.03 57.64L45.9 56.73C44.8 55.81 43.74 54.83 42.67 53.86L42.71 53.8L42.72 53.81Z" fill="#231F20"/>
<path d="M19.7602 53.49L18.7102 54.59L18.1902 55.14L18.0702 55.26L18.0402 55.28L17.9802 55.32C17.8202 55.43 17.6202 55.6 17.3802 55.82C17.2002 55.99 17.2102 56.06 17.0002 56.26C16.9202 56.34 16.7702 56.46 16.7202 56.54C16.7502 56.56 16.7902 56.57 16.8402 56.58C16.9302 56.59 17.0602 56.6 17.2302 56.58C17.4002 56.57 17.6002 56.54 17.8402 56.51L18.2302 56.44L18.4402 56.4C18.5202 56.38 18.5602 56.38 18.7502 56.33C19.8802 56.04 21.0002 55.67 22.1002 55.29C23.5102 54.82 24.9002 54.14 26.5602 54.49C27.0702 54.59 27.0502 54.84 26.7802 55.38C26.6002 55.74 26.4102 56.11 26.2302 56.46C25.9902 56.84 25.6802 57.13 25.3002 57.34C25.1302 57.42 24.9602 57.52 24.7902 57.59L24.2602 57.76L23.1902 58.1C22.4702 58.33 21.7502 58.55 21.0302 58.75L19.9402 59.05L19.3002 59.22L18.2602 59.53C16.8902 59.94 15.5302 60.33 14.3502 60.58C14.0202 60.63 13.6702 60.7 13.4102 60.7C13.1402 60.7 12.9202 60.68 12.6902 60.68C12.2402 60.66 11.9502 60.56 11.7102 60.47L11.3702 60.32C11.3202 60.29 11.2702 60.29 11.2002 60.22V60.04L11.2202 59.67C11.2202 59.55 11.2202 59.43 11.3102 59.21L11.5302 58.55L11.6502 58.22C11.6902 58.11 11.9102 57.9 12.0302 57.75C12.6102 57.08 13.1402 56.43 13.7302 55.79L16.6502 52.59L19.2602 49.81C20.5802 48.4 21.9402 47.03 23.2202 45.61C24.2102 44.5 25.0802 43.31 26.0102 42.17C26.2202 41.92 26.3902 41.65 26.6602 41.45C27.1202 41.05 27.4702 40.84 27.7802 40.75C27.9302 40.71 28.0802 40.69 28.2202 40.71C28.3802 40.74 28.5302 40.79 28.6702 40.84C28.8002 40.89 28.9402 40.91 29.0202 40.96C29.2702 41.05 29.3902 41.87 28.9502 42.66L28.4802 43.57C28.3202 43.87 28.0902 44.11 27.9002 44.39C27.5002 44.92 27.0702 45.44 26.6402 45.96C25.7702 46.99 24.8502 48.01 23.9302 49.03C22.5502 50.53 21.1602 52.04 19.7702 53.54L19.7102 53.49H19.7602Z" fill="#231F20"/>
<path d="M92.4599 60.13C90.2999 62.31 88.1899 64.54 86.1099 66.81C85.3599 67.64 84.6799 68.54 83.9299 69.36C81.2899 72.3 78.6799 75.28 76.1699 78.34C75.0499 79.69 73.9899 81.11 72.9699 82.52C71.6499 84.33 70.5499 86.3 68.7399 87.77C68.1299 88.2 68.0699 88.04 68.0499 87.31C68.0499 86.95 67.9599 86.37 68.0899 85.84C68.1899 85.29 68.3699 84.68 68.6799 84.1C71.2199 80.24 73.9299 76.49 77.1399 73.1C79.0399 71.06 80.7599 68.73 82.6299 66.59C84.6799 64.23 86.8099 61.94 88.9499 59.66L92.9599 55.51C94.9899 53.42 97.1099 51.41 99.1399 49.35C100.73 47.76 102.17 46.08 103.75 44.5C104.1 44.16 104.42 43.8 104.8 43.48C106.19 42.28 106.76 42.05 107.53 42.33C107.7 42.4 107.9 42.44 108.04 42.53C108.53 42.83 108.27 43.67 107.43 44.71C106.79 45.47 106.15 46.24 105.5 47.01C104.8 47.74 104.1 48.47 103.4 49.2C101.96 50.64 100.49 52.11 99.0299 53.57C96.8599 55.76 94.6499 57.92 92.5299 60.18L92.4699 60.13H92.4599Z" fill="#231F20"/>
<path d="M85.8002 99.12C81.4802 98.12 77.1002 97.22 72.7102 96.32C71.1102 95.99 69.4902 95.75 67.8902 95.41C62.2502 94.2 56.6202 92.9 51.0302 91.38C48.5502 90.7 46.0502 90.05 43.5902 89.29C42.0202 88.79 40.4402 88.25 38.8902 87.59C37.3602 86.91 35.8002 86.08 34.7502 84.6C34.1102 83.69 34.3202 83.75 35.2902 83.87C35.7502 83.96 36.5202 83.87 37.2402 83.98C37.6202 84.02 38.0502 84.02 38.4402 84.11C38.8102 84.23 39.2402 84.34 39.6402 84.52C45.4902 86.84 51.9002 88.57 58.3002 90.37C62.1402 91.45 66.2601 92.11 70.2701 92.93C74.6801 93.83 79.1102 94.71 83.5302 95.67L87.6102 96.59L89.6502 97.09L90.7602 97.4L91.0002 97.47C91.2602 97.54 91.5202 97.64 91.7902 97.72C91.9202 97.76 92.0602 97.82 92.1902 97.87L92.3902 97.95L92.4902 97.99C92.4902 97.99 92.4701 97.94 92.4602 97.91C92.1902 97.48 91.8702 97.05 91.5502 96.6L91.0602 95.92L90.8102 95.57C90.6601 95.37 90.5401 95.15 90.3801 94.95C89.7602 94.16 89.1302 93.37 88.5102 92.58C86.5002 90.03 84.3202 87.7 82.3302 85.18C81.8902 84.63 81.4302 84.11 81.0002 83.54C80.2602 82.45 79.8001 81.69 79.5901 81.09C79.4202 80.45 79.4402 80.01 79.5102 79.61C79.5402 79.43 79.5402 79.23 79.5702 79.11C79.6302 78.91 79.8702 79 80.3602 79.23C80.8602 79.46 81.5502 79.88 82.2102 80.59C83.2502 81.59 84.1902 82.7 85.1301 83.82C86.0802 84.93 87.0302 86.08 87.8801 87.3C88.7602 88.51 89.6202 89.73 90.4902 90.97L91.7802 92.84C92.0002 93.15 92.1902 93.48 92.4402 93.77L92.6301 93.98C92.7001 94.05 92.7402 94.09 92.8902 94.27C93.1702 94.54 93.4202 94.85 93.6902 95.15C93.9202 95.41 94.1202 95.67 94.3801 95.94C94.6301 96.21 94.9002 96.48 95.0802 96.76C95.4902 97.31 95.8902 97.87 96.2302 98.39C96.5302 98.9 96.6602 99.32 96.5102 99.55L95.9402 99.95L95.5402 100.24V100.25C96.8802 101.25 95.9102 100.53 96.2102 100.75V100.77L96.2202 100.82L96.2402 100.91L96.2701 101.09L96.3302 101.45V101.54C96.3302 101.54 96.3702 101.61 96.3002 101.6H96.0102L95.4202 101.63L94.8302 101.65C94.5502 101.59 94.1802 101.45 93.8602 101.36C92.8802 101.04 91.8302 100.66 90.9802 100.46L89.6402 100.1L88.9902 99.93L88.6402 99.85C87.7102 99.62 86.7702 99.41 85.8202 99.2V99.13L85.8002 99.12Z" fill="#231F20"/>
<path d="M38.1098 72.3C42.4398 67.03 46.8798 61.87 51.4098 56.79C53.0698 54.94 54.6598 53.03 56.3798 51.21C57.1398 50.41 57.8898 49.62 58.7198 48.81L59.0398 48.5C59.1398 48.4 59.2398 48.3 59.4498 48.13C59.6398 47.99 59.8198 47.83 60.0198 47.73C60.2298 47.65 60.4498 47.57 60.6598 47.5C60.8898 47.42 61.0198 47.39 61.1598 47.36L61.5698 47.26L62.3898 47.06C64.5498 46.58 66.6798 46.15 68.8298 45.71L81.6599 43.12C85.4499 42.35 89.2499 41.48 92.9799 40.59C97.7799 39.47 102.52 38.03 107.42 37.37C108.99 37.32 108.9 37.79 107.84 38.88C107.31 39.43 106.5 40.04 105.49 40.62C104.48 41.22 103.25 41.76 101.87 42.08C92.0499 44.48 82.1898 46.56 72.1698 48.28C69.1798 48.8 66.1398 49.44 63.1398 50.15L62.0498 50.43L61.7898 50.5C61.7898 50.5 61.7098 50.53 61.6798 50.53C61.6098 50.54 61.5398 50.56 61.4998 50.61C61.4698 50.64 61.4698 50.63 61.4098 50.69L61.2198 50.88L60.8298 51.26L60.0398 52.09C58.9898 53.23 57.9398 54.36 56.8898 55.49C52.2898 60.5 47.7898 65.64 43.3998 70.85C42.0798 72.43 40.7598 74.01 39.4598 75.61L37.5198 78.01L36.2398 79.63L34.8398 81.45L34.6798 81.57L32.9398 82.88C33.1198 82.21 32.9898 82.69 33.0198 82.54H33.0098L32.9898 82.51L32.9598 82.47L32.9098 82.39L32.7998 82.23C32.7298 82.13 32.6498 82.02 32.5598 81.92C32.4798 81.8 32.3598 81.75 32.2798 81.57C32.1998 81.39 32.1298 81.18 32.0798 80.93C31.8898 79.86 31.7998 78.64 31.6698 77.5L31.3998 74.88C31.0698 71.71 30.7398 68.54 30.4098 65.4C29.8698 60.51 29.1798 55.73 28.5898 50.9C28.4598 49.84 28.3098 48.8 28.1998 47.72C27.8098 43.73 28.1998 42.41 28.7898 41.51C28.9298 41.3 29.0398 41.04 29.1598 40.91C29.3598 40.7 29.5798 41 29.8998 41.7C30.2198 42.4 30.5798 43.51 30.8498 44.96C32.2498 53.54 33.1598 62.64 34.1498 71.77L34.4898 74.89L34.6498 76.37C34.6498 76.44 34.6498 76.4 34.6498 76.42C34.6498 76.44 34.6298 76.55 34.6698 76.49C34.6798 76.49 34.6898 76.49 34.7098 76.47H34.7198L34.9698 76.15L35.5898 75.36L38.0798 72.23L38.1498 72.27L38.1098 72.3Z" fill="#231F20"/>
<path d="M4.15988 75.49C3.95988 75.64 3.70988 75.49 3.44988 75.21C3.36988 75.12 3.27988 74.79 3.31988 74.72C3.39988 74.58 3.47988 74.44 3.56988 74.32C3.63988 74.27 4.56988 73.52 4.82988 73.17C5.09988 72.87 5.37988 72.6 5.66988 72.36C6.30988 71.93 6.92988 71.46 7.55988 70.97C7.69988 70.86 7.85988 70.78 8.02988 70.72C8.61988 70.51 9.12988 70.15 9.58988 69.72C9.66988 69.65 9.75988 69.6 9.77988 69.45C9.77988 69.18 11.2399 68.22 11.4899 68.18C12.0899 68.05 12.6399 67.85 13.2199 67.7C13.2999 67.68 13.3599 67.6 13.4899 67.68C13.7899 67.85 13.9299 67.74 14.0999 67.68C14.3299 67.58 14.6099 67.59 14.8899 67.6C15.0299 67.6 15.1999 67.69 15.3499 67.73C15.4899 67.77 15.5499 68.05 15.5299 68.1C15.4799 68.23 15.6099 68.32 15.6699 68.43C15.6899 68.47 15.7199 68.51 15.7299 68.55C15.7399 68.59 15.5399 68.93 15.3699 69.34C15.1899 69.72 14.9899 70.07 14.9299 70.11C14.9299 70.13 14.5499 70.43 14.1699 70.75C13.7899 71.08 13.3899 71.44 13.3199 71.53C13.2399 71.62 13.1099 71.63 12.9999 71.66C12.9699 71.66 12.6799 71.95 12.3899 72.23C12.0799 72.49 11.7599 72.75 11.7399 72.76C11.4499 72.9 11.2199 73.16 10.7999 73.13C10.7199 73.13 10.6699 73.17 10.6199 73.21C10.1599 73.54 9.60988 73.76 9.07988 74.01C8.80988 74.14 8.55988 74.31 8.29988 74.45C8.24988 74.48 8.18988 74.47 8.12988 74.49C8.05988 74.51 7.98988 74.51 7.92988 74.55C7.32988 74.93 6.59988 75.1 5.93988 75.39C5.78988 75.46 4.92988 75.5 4.75988 75.57C4.65988 75.61 4.22988 75.45 4.14988 75.51L4.15988 75.49Z" fill="#231F20"/>
<path d="M16.2498 84.34C16.3198 84.53 16.0798 84.64 15.6798 84.69C15.5498 84.71 15.1998 84.63 15.1498 84.57C15.0598 84.46 14.9798 84.34 14.9198 84.23C14.8898 84.16 14.7998 83.2 14.7198 82.88C14.6498 82.56 14.6498 82.26 14.6498 81.95C14.6498 81.33 14.6098 80.7 14.6698 80.07C14.6698 79.93 14.7098 79.79 14.7698 79.65C14.9598 79.17 15.0098 78.68 15.0098 78.17C15.0098 78.08 15.0298 78 14.9598 77.91C14.8298 77.76 15.0098 76.35 15.1298 76.19C15.3698 75.77 15.5498 75.35 15.8098 74.95C15.8498 74.89 15.8398 74.82 15.9498 74.79C16.2098 74.72 16.2198 74.58 16.2798 74.46C16.3598 74.29 16.4598 74.12 16.6298 73.98C16.7098 73.91 16.8598 73.86 16.9798 73.81C17.0898 73.76 17.3298 73.89 17.3598 73.93C17.4198 74.04 17.5698 74.02 17.6798 74.05C17.7198 74.06 17.7698 74.07 17.7998 74.09C17.8298 74.1 17.9398 74.41 18.0598 74.73C18.1298 75.03 18.2298 75.34 18.2098 75.39C18.2098 75.43 18.0498 76.85 18.0698 77.01C18.0698 77.1 18.0098 77.17 17.9598 77.25C17.9298 77.29 17.9298 78.44 17.9298 78.49C17.8698 78.72 17.9298 78.98 17.6998 79.2C17.6598 79.24 17.6598 79.29 17.6598 79.34C17.6498 79.77 17.5198 80.19 17.4298 80.62C17.3798 80.84 17.3998 81.07 17.3498 81.29C17.3498 81.33 17.3098 81.37 17.2898 81.41C17.2598 81.46 17.2298 81.51 17.2198 81.56C17.1398 82.09 16.9398 82.62 16.8998 83.16C16.8998 83.29 16.5598 83.84 16.5498 83.98C16.5498 84.06 16.2198 84.27 16.2498 84.35V84.34Z" fill="#231F20"/>
<path d="M107.61 24.19C107.68 24.38 107.44 24.51 107.06 24.6C106.94 24.63 106.58 24.58 106.53 24.52C106.44 24.41 106.34 24.29 106.27 24.18C106.24 24.11 106.03 23.07 105.92 22.72C105.82 22.37 105.78 22.04 105.76 21.7L105.69 20.67C105.69 20.33 105.69 19.99 105.71 19.65C105.71 19.5 105.75 19.35 105.81 19.21C106.02 18.72 106.07 18.2 106.04 17.68C106.04 17.59 106.06 17.51 105.96 17.41C105.89 17.33 105.84 16.94 105.88 16.56C105.94 16.18 106.03 15.79 106.08 15.7C106.35 15.28 106.54 14.85 106.76 14.42C106.79 14.36 106.76 14.29 106.9 14.24C107.2 14.14 107.19 14 107.26 13.86C107.34 13.68 107.43 13.49 107.56 13.31C107.62 13.22 107.77 13.14 107.88 13.06C107.98 12.99 108.26 13.06 108.29 13.1C108.37 13.2 108.52 13.14 108.64 13.15C108.68 13.15 108.73 13.15 108.77 13.16C108.81 13.17 109.5 14.36 109.55 14.49C109.59 14.52 109.68 16.16 109.74 16.35C109.76 16.45 109.69 16.54 109.65 16.63C109.67 16.68 109.71 17.98 109.68 18.03C109.6 18.29 109.66 18.57 109.38 18.8C109.32 18.85 109.33 18.9 109.32 18.96C109.28 19.42 109.12 19.86 108.98 20.31C108.91 20.54 108.91 20.78 108.86 21.01C108.85 21.05 108.81 21.09 108.78 21.13C108.75 21.18 108.71 21.23 108.7 21.28C108.59 21.83 108.35 22.36 108.3 22.92C108.28 23.05 107.94 23.62 107.93 23.77C107.93 23.85 107.6 24.09 107.63 24.17L107.61 24.19Z" fill="#231F20"/>
<path d="M112.6 26.45C112.52 26.6 112.28 26.5 111.98 26.31C111.89 26.25 111.7 26.01 111.71 25.94C111.72 25.81 111.74 25.66 111.77 25.53C111.79 25.47 112.32 24.52 112.57 24.3C112.78 24.03 113.04 23.85 113.3 23.66C113.84 23.32 114.35 22.91 114.92 22.65C115.04 22.59 115.18 22.55 115.33 22.53C115.83 22.48 116.26 22.29 116.67 22.06C116.74 22.02 116.82 22 116.85 21.9C116.91 21.72 118.07 21.22 118.25 21.22C118.68 21.22 119.09 21.15 119.52 21.14C119.58 21.14 119.63 21.09 119.71 21.16C119.91 21.33 120.01 21.25 120.13 21.22C120.3 21.18 120.47 21.15 120.66 21.16C120.75 21.16 120.88 21.25 121 21.31C121.11 21.36 121.2 21.68 121.19 21.72C121.16 21.85 121.28 21.96 121.34 22.09C121.36 22.13 121.39 22.19 121.4 22.22C121.42 22.29 120.74 23.25 120.64 23.3C120.63 23.3 120.31 23.51 119.98 23.72C119.64 23.91 119.29 24.12 119.23 24.17C119.16 24.22 119.06 24.21 118.97 24.21C118.92 24.21 117.95 24.83 117.91 24.84C117.68 24.91 117.51 25.08 117.21 24.99C117.15 24.97 117.11 25 117.07 25.02C116.72 25.21 116.32 25.31 115.94 25.43C115.75 25.5 115.57 25.59 115.38 25.67C115.35 25.68 115.3 25.67 115.26 25.67C115.21 25.67 115.15 25.67 115.11 25.69C114.69 25.9 114.2 26.01 113.83 26.3C113.75 26.37 113.18 26.42 113.06 26.47C113 26.5 112.63 26.37 112.6 26.44V26.45Z" fill="#231F20"/>
<path d="M112.26 31.77C112.02 31.77 111.94 31.5 111.91 31.1C111.91 30.97 112.03 30.65 112.11 30.62C112.26 30.56 112.42 30.51 112.56 30.47C112.65 30.46 113.9 30.56 114.35 30.56C114.77 30.57 115.2 30.6 115.57 30.74L117.9 31.51C118.07 31.57 118.23 31.66 118.38 31.77C118.89 32.16 119.47 32.38 120.06 32.58C120.16 32.61 120.25 32.67 120.38 32.62C120.6 32.54 122.14 33.22 122.31 33.38C122.72 33.78 123.17 34.1 123.58 34.51C123.64 34.57 123.73 34.57 123.74 34.71C123.77 35.02 123.93 35.08 124.06 35.19C124.24 35.34 124.42 35.51 124.58 35.7C124.66 35.8 124.7 35.97 124.75 36.12C124.8 36.25 124.61 36.51 124.56 36.53C124.42 36.58 124.43 36.75 124.38 36.87C124.36 36.91 124.34 36.97 124.32 37C124.3 37.03 123.91 37.06 123.51 37.1C123.1 37.14 122.67 37.21 122.61 37.17C122.59 37.17 122.13 37.02 121.63 36.87C121.15 36.71 120.64 36.54 120.53 36.52C120.42 36.5 120.34 36.39 120.25 36.31C120.21 36.27 118.73 35.84 118.68 35.81C118.4 35.66 118.09 35.6 117.9 35.25C117.86 35.18 117.8 35.16 117.74 35.14C117.24 34.94 116.78 34.62 116.31 34.34C116.07 34.19 115.81 34.11 115.55 33.99C115.5 33.97 115.47 33.92 115.43 33.88C115.38 33.84 115.33 33.78 115.27 33.76C114.66 33.52 114.1 33.14 113.5 32.87C113.36 32.81 112.8 32.26 112.63 32.21C112.54 32.17 112.35 31.77 112.25 31.78L112.26 31.77Z" fill="#231F20"/>
</svg>
