<svg width="128" height="128" viewBox="0 0 128 128" fill="none" xmlns="http://www.w3.org/2000/svg">
<path d="M58.2401 27.48C62.2701 27.13 66.3101 27.15 70.3101 27.45C71.7701 27.56 73.2401 27.64 74.6901 27.84C79.8001 28.56 84.8401 29.78 89.6801 31.59C91.8201 32.4 93.9701 33.24 96.0201 34.28C97.3301 34.95 98.6601 35.64 99.8601 36.61C100.43 37.11 101.03 37.64 101.45 38.33C101.66 38.68 101.84 39.05 101.98 39.44C102.12 39.84 102.08 40.3 102.08 40.7C102.08 41.21 101.94 41.4 101.93 41.38C101.87 41.37 101.89 41.12 101.68 40.79C101.51 40.44 100.9 40.18 100.37 39.92C100.09 39.79 99.7401 39.7 99.4401 39.55C99.1501 39.39 98.8501 39.21 98.5501 39.01C96.4101 37.54 93.9101 36.19 91.3001 35.12C88.6901 34.03 85.9801 33.09 83.2101 32.2C79.9001 31.15 76.2901 30.65 72.7601 30.25C68.8701 29.81 64.9501 29.64 61.0301 29.83C58.6201 29.95 56.2101 30.18 53.8301 30.57C50.2301 31.17 46.6401 32.06 43.2701 33.4C40.6501 34.45 38.2201 35.79 35.9001 37.29C35.3801 37.62 34.9001 37.97 34.3801 38.29C32.4501 39.49 31.8101 39.85 31.0601 39.69C30.9001 39.67 30.7101 39.67 30.6001 39.64C30.2501 39.56 30.6901 38.56 32.0201 37.43C33.9401 35.68 36.2201 34.24 38.6201 32.98C41.0201 31.72 43.5801 30.67 46.2101 29.85C50.1101 28.61 54.1601 27.84 58.2201 27.42V27.48H58.2401Z" fill="#231F20"/>
<path d="M63.27 37.95C62.53 38.2 61.78 38.32 60.98 38.19C60.18 38.07 59.48 37.73 58.94 37.35C57.89 36.56 57.22 35.75 56.45 35.2C56.17 34.99 55.89 34.84 55.59 34.71C55.29 34.61 54.98 34.55 54.67 34.51C53.56 34.41 52.23 34.71 51.01 35.18C49.77 35.65 48.57 36.29 47.44 37.03C46.43 37.69 45.49 38.46 44.65 39.31C44.1 39.84 43.64 40.46 43.1 40.99L42.33 41.82C42.22 41.97 42.06 42.09 41.9 42.2C41.74 42.32 41.61 42.45 41.45 42.58C41.06 42.89 40.9 42.75 40.78 42.19C40.72 41.91 40.66 41.49 40.67 41.03C40.7 40.57 40.87 40.12 41.15 39.71C41.4 39.34 41.65 38.99 41.95 38.67C42.26 38.36 42.58 38.07 42.89 37.78C43.54 37.22 44.21 36.69 44.91 36.2C46.32 35.23 47.83 34.41 49.45 33.81C50.42 33.45 51.41 33.1 52.48 32.87C53.01 32.74 53.56 32.68 54.13 32.65C54.72 32.65 55.32 32.7 55.88 32.9C57.14 33.27 58.14 34.04 58.99 34.71C59.85 35.37 60.61 35.95 61.36 35.98C62.38 36.08 63.29 35.43 64.3 34.5C65.05 33.82 66 33.03 67.2 32.74C67.79 32.59 68.4 32.56 68.97 32.62C69.55 32.65 70.17 32.83 70.68 33.06C72.3 33.81 73.61 34.9 74.72 36.18C74.97 36.46 75.21 36.74 75.42 37.06C76.21 38.24 76.14 38.8 75.58 39.32C75.45 39.44 75.33 39.57 75.2 39.66C74.75 39.94 74.12 39.66 73.61 38.99C72.86 37.99 72.01 37.01 71.09 36.21C70.64 35.81 70.15 35.47 69.69 35.26C69.46 35.16 69.24 35.07 69.05 35.04C68.87 35 68.56 34.98 68.35 34.98C67.67 35 67.13 35.23 66.37 35.84C65.61 36.41 64.78 37.42 63.27 38L63.25 37.95H63.27Z" fill="#231F20"/>
<path d="M74.5298 36.86C74.5298 36.86 76.8498 35.04 79.7798 35.55C82.5498 36.03 84.8898 40.33 84.8898 40.33L81.9998 42.01C81.9998 42.01 80.6898 37.91 79.2198 37.94C77.7498 37.97 74.9898 39.1 74.9898 39.1L74.5298 36.87V36.86Z" fill="#231F20"/>
<path d="M83.21 42.92C82.78 43.14 82.36 43.29 81.94 43.2L81.62 43.14C81.53 43.09 81.42 43.05 81.34 42.98C81.16 42.87 81.01 42.72 80.86 42.55C80.58 42.2 80.36 41.72 80.18 41.29L79.88 40.6C79.48 39.72 79.01 39.12 78.44 39C78.04 38.9 77.35 39.07 76.75 39.3C74.56 40.1 72.76 42.29 71.44 44.55C70.84 45.57 70.31 46.65 69.87 47.75C69.32 49.17 68.89 50.62 68.13 52.02C67.9 52.46 67.91 52.4 67.83 51.97C67.79 51.75 67.7 51.43 67.6 51.04C67.53 50.65 67.5 50.2 67.56 49.74C68.15 46.52 69.46 43.38 71.78 40.86C72.14 40.49 72.46 40.1 72.85 39.74L73.42 39.19L74.05 38.68C74.45 38.32 74.96 38.07 75.42 37.78C75.94 37.56 76.44 37.3 77.01 37.22C77.59 37.07 78.32 37 79.03 37.2C79.75 37.39 80.34 37.88 80.75 38.38C81.16 38.89 81.44 39.42 81.68 39.94L81.85 40.32L81.97 40.6C82.01 40.71 82.06 40.82 82.12 40.93C82.18 41.09 82.37 41.13 82.5 41.04C82.64 40.97 82.75 40.9 82.92 40.78C83.46 40.39 84.03 39.98 84.66 39.64C85.6 39.12 86.73 38.8 87.86 38.82C88.99 38.86 90.07 39.2 91.01 39.7C92.48 40.48 93.75 41.46 94.89 42.58C95.14 42.83 95.4 43.05 95.63 43.32C96.08 43.79 96.23 44.22 96.32 44.53C96.4 44.84 96.36 45.08 96.23 45.34C96.17 45.46 96.13 45.59 96.06 45.68C95.83 45.99 95.26 45.77 94.53 45.2C93.51 44.33 92.61 43.36 91.6 42.57C90.6 41.79 89.53 41.14 88.48 40.93C87.7 40.77 86.93 40.85 86.13 41.17C85.73 41.33 85.33 41.55 84.93 41.81C84.73 41.94 84.52 42.08 84.31 42.24C84.18 42.32 83.65 42.74 83.24 42.98L83.22 42.93L83.21 42.92Z" fill="#231F20"/>
<path d="M75.3302 123.12C37.8002 127 23.1602 116.2 23.7402 112.83C24.4402 108.79 35.0802 108.2 36.1502 109.26L37.3402 116.24C37.3402 116.24 47.4802 123.5 65.9402 122.6L75.3202 121.91V123.11L75.3302 123.12Z" fill="#231F20"/>
<path d="M60.0001 54.09C57.4101 53.73 54.8301 53.24 52.3001 52.58C51.3701 52.35 50.4501 52.12 49.5301 51.84C46.3201 50.82 43.2001 49.53 40.2201 47.99C38.8901 47.31 37.5601 46.63 36.2801 45.88C35.4601 45.4 34.6401 44.91 33.8501 44.38C33.0801 43.82 32.2501 43.33 31.7501 42.42C31.4201 41.89 31.4501 41.98 32.0001 42.07C32.5801 42.13 33.6901 42.12 34.5401 42.74C37.7401 44.7 41.0001 46.55 44.4401 48.2C46.5001 49.19 48.7801 49.88 51.0201 50.53C53.4801 51.25 55.9901 51.85 58.5401 52.28C60.1001 52.55 61.6801 52.77 63.2601 52.92C65.6601 53.15 68.0801 53.3 70.4701 53.25C72.3301 53.22 74.1501 53.03 75.9801 52.84C76.3801 52.8 76.7701 52.74 77.1801 52.71C78.6901 52.62 79.1801 52.65 79.5401 52.97C79.6201 53.04 79.7301 53.09 79.7801 53.15C79.9501 53.34 79.3601 53.67 78.2601 53.91C74.9801 54.6 71.4401 54.72 67.9001 54.67C65.2701 54.64 62.6201 54.45 60.0001 54.12V54.08V54.09Z" fill="#231F20"/>
<path d="M53.4399 119.89C54.6499 120.11 55.8499 120.36 57.0699 120.5L58.8999 120.75L60.7399 120.91C61.6399 120.99 62.5399 121.03 63.4399 121.06C66.6099 121.26 69.7899 121.26 72.9699 121.12C74.3799 121.06 75.7999 120.92 77.1899 120.77C78.9799 120.56 80.7499 120.22 82.5899 120.31C83.1699 120.33 83.0799 120.28 82.6299 120.45C82.3999 120.54 82.0899 120.69 81.7099 120.92C81.3199 121.11 80.8599 121.28 80.3499 121.41C78.5299 121.81 76.6699 121.94 74.8199 122.12C73.8899 122.17 72.9599 122.23 72.0299 122.28C71.0999 122.29 70.1599 122.3 69.2299 122.32C68.1099 122.32 66.9699 122.3 65.8199 122.32C64.6699 122.32 63.5199 122.28 62.3699 122.25C61.1099 122.17 59.8499 122.09 58.5999 121.98C57.3499 121.82 56.0899 121.74 54.8399 121.53L52.5399 121.17C51.7799 121.03 51.0199 120.85 50.2599 120.7C47.9499 120.22 45.6899 119.51 43.4799 118.74C41.7799 118.09 40.0799 117.48 38.4599 116.62C38.1099 116.43 37.7199 116.31 37.3899 116.06C36.7599 115.64 36.3699 115.32 36.1499 115.03C35.9199 114.75 35.8699 114.5 35.8799 114.23C35.8799 114.11 35.8699 113.98 35.8799 113.89C35.9399 113.6 36.6699 113.65 37.5899 114.12C40.2499 115.65 43.1699 117.03 46.2999 118.06C47.4699 118.42 48.6399 118.78 49.8299 119.09C51.0299 119.35 52.2199 119.7 53.4499 119.88V119.92L53.4399 119.89Z" fill="#231F20"/>
<path d="M71.5801 42.84C71.1601 43.54 70.7501 44.27 70.4001 45.03C70.2701 45.31 70.2001 45.61 70.0701 45.89C69.6501 46.89 69.2201 47.9 68.8901 48.95C68.7301 49.41 68.6401 49.89 68.5401 50.37C68.4401 50.98 68.2301 51.58 68.0301 52.18C67.9601 52.37 67.9001 52.33 67.8201 52.16C67.7401 51.98 67.5901 51.65 67.5501 51.28C67.5501 50.95 67.4601 50.61 67.5201 50.29C67.5601 49.97 67.6001 49.65 67.6501 49.32C67.7601 48.68 67.9001 48.04 68.1101 47.41C68.3601 46.66 68.5301 45.86 68.7801 45.1C69.0601 44.26 69.4101 43.44 69.8001 42.63C70.0501 42.14 70.3201 41.66 70.6101 41.18C71.0501 40.47 71.5401 39.78 72.1001 39.13C72.3001 38.87 72.5101 38.61 72.7401 38.36C72.9501 38.09 73.2001 37.85 73.4801 37.64C73.6001 37.54 73.7201 37.45 73.8601 37.38C74.4101 37.16 74.6801 37.32 74.8801 37.57C74.9301 37.63 74.9801 37.69 75.0101 37.75C75.1201 37.95 75.0101 38.26 74.8101 38.59C74.7301 38.69 74.6401 38.76 74.5701 38.88C74.5001 38.99 74.4301 39.1 74.3401 39.17C74.1701 39.32 74.0101 39.5 73.8501 39.69C73.6801 39.86 73.5201 40.04 73.3701 40.24C73.2101 40.44 73.0401 40.62 72.9001 40.84C72.4401 41.46 72.0001 42.14 71.6201 42.86L71.5801 42.84Z" fill="#231F20"/>
<path d="M36.1398 92.78C36.7598 99.61 37.3998 106.44 38.2398 113.23L38.4798 115.09L38.5398 115.51C38.5398 115.51 38.5998 115.56 38.6298 115.58L38.7998 115.69L39.5298 116.18L40.2998 116.62C40.8098 116.93 41.3398 117.2 41.8798 117.46C45.6698 119.34 49.9098 120.37 54.1998 121C58.4998 121.62 62.8798 121.82 67.2498 121.72C71.1298 121.63 75.0398 121.25 78.8498 120.66C83.7398 119.86 88.6098 118.81 93.2898 117.41C94.6798 116.88 94.6398 117.08 93.5898 117.99C93.0598 118.43 92.2498 118.99 91.2298 119.61C90.1998 120.18 88.9298 120.7 87.5198 121.1C85.0298 121.85 82.4898 122.36 79.9298 122.76C77.3798 123.17 74.8098 123.48 72.2298 123.69C67.0698 124.1 61.8598 124.14 56.6598 123.55C53.5498 123.2 50.3898 122.71 47.2498 121.91C44.1198 121.09 41.0098 119.94 38.2098 118.2L36.9398 117.33L36.4998 117.03C36.4398 116.97 36.3298 116.95 36.3098 116.86L36.2698 116.59L36.1398 115.59L35.8098 113.01C35.5798 111.29 35.3998 109.57 35.1898 107.85C34.7998 104.41 34.4398 100.96 34.0998 97.52C33.6898 93.28 33.2798 89.04 32.8798 84.8C32.2698 78.38 31.7098 71.93 31.0198 65.57C30.4798 60.63 29.7798 55.8 29.0698 50.95C28.8998 49.89 28.7398 48.84 28.5698 47.77C28.2698 45.78 28.0798 44.48 28.0498 43.57C28.0798 42.62 28.2098 42.1 28.3998 41.59C28.4898 41.36 28.5398 41.07 28.6098 40.92C28.7298 40.67 28.9698 40.9 29.4398 41.58C29.5498 41.75 29.6998 41.95 29.8098 42.18C29.9098 42.41 30.0098 42.65 30.1198 42.93C30.3498 43.47 30.4998 44.14 30.6698 44.87C31.5798 49.23 32.1998 53.72 32.7598 58.27C33.3198 62.82 33.7898 67.45 34.2498 72.08C34.8998 78.96 35.5498 85.87 36.1998 92.76H36.1398V92.78Z" fill="#231F20"/>
<path d="M102 73.08C101.48 76.47 100.96 79.86 100.49 83.26L100.04 86.99L98.06 100.1C97.76 102.04 97.51 103.99 97.27 105.92C96.97 108.4 96.67 110.89 96.14 113.34C95.98 114.11 95.9 113.99 95.81 113.32C95.74 112.65 95.53 111.41 95.57 109.96C95.86 104.86 96.03 99.75 96.85 94.67C97.31 91.63 97.48 88.42 97.89 85.3C98.32 81.86 98.78 78.43 99.25 75L100.14 68.67C100.59 65.47 101.1 62.27 101.52 59.09C101.86 56.62 102.07 54.18 102.38 51.73C102.44 51.19 102.52 50.66 102.62 50.13C102.81 49.13 103.01 48.49 103.22 48.05C103.47 47.62 103.7 47.38 103.97 47.21C104.09 47.13 104.21 47.02 104.31 46.98C104.48 46.91 104.6 47.09 104.71 47.48C104.82 47.87 104.96 48.48 104.93 49.22C104.93 51.44 104.71 53.69 104.46 55.96C104.24 58.23 103.89 60.52 103.56 62.82C103.06 66.23 102.56 69.66 102.05 73.08H101.99H102Z" fill="#231F20"/>
<path d="M57.7198 49.7C61.7398 50.19 65.8198 50.32 69.9098 50.18C71.3998 50.15 72.8798 49.93 74.3698 49.83C79.5998 49.34 84.8398 48.42 89.8598 46.79C92.0698 46.05 94.2598 45.15 96.2698 44.02C96.9098 43.65 97.5298 43.26 98.1498 42.86C98.7298 42.42 99.3498 42.02 99.8998 41.55L100.75 40.87L101.51 40.11C101.78 39.86 101.98 39.58 102.24 39.32L102.61 38.91L102.88 38.45C103.37 37.68 103.36 37.75 103.28 38.59C103.25 38.8 103.26 39.08 103.19 39.37C103.11 39.69 103.02 40.03 102.93 40.38C102.84 40.79 102.59 41.09 102.37 41.47C102.14 41.85 101.88 42.23 101.54 42.55C101.25 42.84 100.97 43.16 100.66 43.44L99.6798 44.18C99.0398 44.7 98.3298 45.08 97.6498 45.52C96.9598 45.94 96.2498 46.29 95.5398 46.68L93.3698 47.68C90.4398 48.93 87.3998 49.84 84.3098 50.49C80.6098 51.27 76.7698 52.09 72.9198 52.48C68.6998 52.91 64.4298 53.01 60.1898 52.68C58.8798 52.6 57.5798 52.42 56.2898 52.29C54.9998 52.07 53.6998 51.94 52.4198 51.65C48.5298 50.9 44.6898 49.71 41.0798 48.08C38.2798 46.82 35.5498 45.4 33.1398 43.41C32.5798 43.01 32.0798 42.56 31.5898 42.07C31.1498 41.6 30.7898 41.2 30.5298 40.84C30.2898 40.46 30.0998 40.15 29.9898 39.86C29.7698 39.28 29.7398 38.88 29.8398 38.48C29.8798 38.3 29.8998 38.09 29.9698 37.96C30.0898 37.74 30.3798 37.77 30.8198 37.98C31.2598 38.2 31.8598 38.57 32.4598 39.17C32.9498 39.58 33.4898 39.94 33.9498 40.37C34.4098 40.81 34.9398 41.17 35.4498 41.55C36.4398 42.36 37.5798 43 38.6598 43.72C40.9298 45.02 43.3598 46.12 45.8898 47.02C49.6698 48.32 53.6698 49.17 57.7198 49.61V49.68V49.7Z" fill="#231F20"/>
<path d="M43.0799 75.71C43.1999 77.53 43.3799 79.34 43.5499 81.16C43.6099 81.82 43.7499 82.47 43.8099 83.14C44.0599 85.47 44.3499 87.81 44.7599 90.13C44.9399 91.16 45.1899 92.18 45.4099 93.19L45.8799 95.13C46.0399 95.78 46.1799 96.43 46.1799 97.12C46.1899 97.55 46.0499 97.53 45.7299 97.25C45.5699 97.11 45.3599 96.91 45.1199 96.66C44.9099 96.4 44.7399 96.08 44.6099 95.71C44.1899 94.4 43.7499 93.1 43.4599 91.75C43.1599 90.41 42.9099 89.05 42.7299 87.68C42.5099 86.04 42.1099 84.36 41.8499 82.69C41.5499 80.85 41.3599 79 41.1899 77.15L40.8999 73.73C40.7599 72 40.6799 70.27 40.5299 68.56C40.3999 67.24 40.2599 65.93 40.1299 64.61C40.0999 64.32 40.0599 64.04 40.0699 63.74C40.0899 62.65 40.2299 62.3 40.6099 62.05C40.6999 61.99 40.7899 61.92 40.8699 61.89C41.1599 61.78 41.4399 62.21 41.6499 62.99C42.2499 65.31 42.5299 67.75 42.6899 70.22C42.8199 72.05 42.9299 73.89 43.1099 75.71H43.0599H43.0799Z" fill="#231F20"/>
<path d="M50.7598 77.87C50.7698 79.35 50.7898 80.84 50.8398 82.34C50.8498 82.88 50.9398 83.42 50.9598 83.97C51.0298 85.89 51.1498 87.81 51.2998 89.74C51.3498 90.59 51.4698 91.45 51.5798 92.29L51.8098 93.91C51.8498 94.46 51.8398 95.01 51.8398 95.56C51.8298 95.91 51.7298 95.88 51.5198 95.62C51.3198 95.36 50.9398 94.88 50.6898 94.29C50.3998 93.2 50.1598 92.11 49.9498 91C49.7298 89.9 49.5898 88.78 49.5598 87.64C49.4998 86.29 49.2498 84.9 49.1198 83.52C48.9898 82 48.8898 80.48 48.8598 78.96C48.8298 78.02 48.8298 77.08 48.8198 76.15C48.8198 74.73 48.8398 73.3 48.8498 71.89C48.8698 70.79 48.8198 69.72 48.8498 68.63C48.8498 68.39 48.8498 68.16 48.8798 67.92C48.9598 67.03 49.2398 66.77 49.5498 66.6C49.6298 66.56 49.6998 66.51 49.7698 66.49C49.9898 66.42 50.1998 66.81 50.3798 67.46C50.5298 68.43 50.6098 69.41 50.6798 70.4C50.7798 71.39 50.7898 72.39 50.7798 73.39C50.7798 74.88 50.7698 76.38 50.8098 77.87H50.7598Z" fill="#231F20"/>
<path d="M50.76 76.87C49.61 76.58 48.46 76.25 47.32 75.92C46.9 75.79 46.48 75.7 46.07 75.57C44.62 75.07 43.18 74.53 41.8 73.86C41.19 73.55 40.56 73.29 39.96 72.97C39.57 72.78 39.17 72.59 38.81 72.34C38.44 72.1 38.13 71.77 37.82 71.46C37.63 71.26 37.75 71.17 38.05 71.14C38.35 71.11 38.82 71.12 39.28 71.26C40.06 71.56 40.79 71.95 41.58 72.25C42.35 72.58 43.15 72.87 43.93 73.25C44.87 73.68 45.92 73.92 46.95 74.19C48.07 74.51 49.2 74.79 50.34 75.06C51.04 75.22 51.75 75.37 52.45 75.51C53.52 75.72 54.6 75.93 55.68 76.05C56.52 76.15 57.36 76.11 58.19 76.14C58.37 76.15 58.55 76.14 58.74 76.16C59.42 76.22 59.63 76.36 59.74 76.79C59.77 76.89 59.8 76.98 59.81 77.08C59.85 77.4 59.54 77.64 59.03 77.71C57.49 77.96 55.89 77.78 54.3 77.56C53.12 77.39 51.94 77.17 50.77 76.9V76.86L50.76 76.87Z" fill="#231F20"/>
<path d="M49.9702 87.68C49.0502 87.45 48.1402 87.2 47.2402 86.92C46.9102 86.81 46.5702 86.75 46.2502 86.63C45.1002 86.22 44.0102 85.66 42.9602 85.06C42.4902 84.8 42.0202 84.53 41.5702 84.25C41.0002 83.87 40.4802 83.4 40.0602 82.86C39.9302 82.69 40.0102 82.65 40.2302 82.67C40.4502 82.69 40.8102 82.75 41.1502 82.9C41.7802 83.15 42.3502 83.42 42.9202 83.72C43.5002 84 44.1002 84.27 44.6902 84.56C45.4102 84.89 46.2202 85.09 47.0102 85.3C47.8802 85.54 48.7502 85.77 49.6402 85.93C50.1802 86.05 50.7402 86.13 51.2902 86.22C52.1302 86.32 52.9702 86.47 53.8202 86.49C54.4802 86.52 55.1202 86.4 55.7702 86.37C55.9102 86.37 56.0502 86.35 56.1902 86.35C56.7202 86.35 56.8902 86.48 57.0102 86.87C57.0402 86.96 57.0702 87.05 57.0902 87.13C57.1502 87.43 56.9302 87.68 56.5302 87.81C55.3402 88.25 54.0602 88.22 52.7902 88.15C51.8402 88.11 50.9002 87.9 49.9702 87.72V87.68Z" fill="#231F20"/>
<path d="M51.8601 19.72C51.9901 19.88 51.8601 20.11 51.6801 20.35C51.6201 20.43 51.3901 20.51 51.3301 20.48C51.1901 20.4 51.0601 20.33 50.9701 20.27C50.9301 20.25 50.7301 20.02 50.4701 19.78C50.2101 19.54 49.9001 19.28 49.7901 19.14C49.5301 18.87 49.3201 18.58 49.1301 18.28L48.5201 17.38L47.9801 16.45C47.9001 16.31 47.8501 16.16 47.8101 16C47.7001 15.45 47.4401 14.97 47.1201 14.52C47.0701 14.45 47.0301 14.36 46.9101 14.33C46.7101 14.27 45.9301 13.03 45.8901 12.83C45.8101 12.33 45.7101 11.83 45.6001 11.35C45.5901 11.28 45.5201 11.23 45.5801 11.12C45.7301 10.86 45.6401 10.74 45.5901 10.6C45.5401 10.39 45.4501 10.2 45.4701 9.94C45.4701 9.82 45.5401 9.66 45.5701 9.52C45.6001 9.39 45.8201 9.31 45.8601 9.32C45.9801 9.35 46.0401 9.22 46.1201 9.16C46.1501 9.14 46.1901 9.11 46.2101 9.1C46.2301 9.1 46.3201 9.13 46.4601 9.17C46.6001 9.22 46.8201 9.27 46.9701 9.36C47.3101 9.53 47.6801 9.7 47.7201 9.75C47.7301 9.76 48.0301 10.11 48.3501 10.48C48.6801 10.84 48.9701 11.24 49.0401 11.32C49.1101 11.4 49.1101 11.53 49.1201 11.64C49.1301 11.69 49.9701 12.86 49.9901 12.92C50.1001 13.2 50.3101 13.42 50.2401 13.79C50.2301 13.86 50.2601 13.91 50.2901 13.96C50.5401 14.4 50.6801 14.9 50.8501 15.38C50.9301 15.63 51.0701 15.85 51.1701 16.09C51.1901 16.13 51.1701 16.19 51.1701 16.24C51.1701 16.3 51.1701 16.37 51.1901 16.43C51.4201 17 51.5301 17.62 51.8001 18.17C51.8801 18.29 51.8401 19.04 51.8901 19.19C51.9101 19.28 51.7701 19.66 51.8301 19.72H51.8601Z" fill="#231F20"/>
<path d="M61.98 15.14C62.02 15.33 61.84 15.46 61.59 15.58C61.51 15.62 61.28 15.58 61.25 15.53C61.19 15.42 61.13 15.31 61.08 15.2C61.06 15.13 60.9 14.08 60.81 13.72C60.72 13.37 60.75 13.03 60.76 12.69L60.88 10.61C60.89 10.46 60.92 10.3 60.98 10.16C61.16 9.66 61.23 9.13 61.26 8.6C61.26 8.51 61.29 8.42 61.22 8.33C61.11 8.17 61.37 6.75 61.47 6.58C61.7 6.16 61.89 5.73 62.15 5.31C62.18 5.25 62.18 5.18 62.28 5.14C62.52 5.05 62.52 4.91 62.58 4.78C62.68 4.6 62.75 4.42 62.93 4.26C63.01 4.18 63.15 4.11 63.25 4.04C63.34 3.97 63.52 4.07 63.54 4.1C63.59 4.2 63.7 4.16 63.79 4.17C63.82 4.17 63.86 4.18 63.88 4.19C63.89 4.19 63.92 4.28 63.98 4.4C64.03 4.52 64.12 4.69 64.16 4.85C64.28 5.18 64.35 5.51 64.34 5.57C64.34 5.58 64.32 6 64.3 6.43C64.25 6.86 64.2 7.31 64.21 7.4C64.21 7.5 64.14 7.58 64.09 7.67C64.06 7.71 63.99 9.01 63.95 9.05C63.86 9.3 63.87 9.58 63.63 9.8C63.58 9.84 63.58 9.9 63.57 9.95C63.49 10.4 63.32 10.84 63.18 11.28C63.11 11.51 63.08 11.74 63.03 11.97C63.03 12.01 62.99 12.05 62.97 12.09C62.95 12.14 62.92 12.19 62.91 12.24C62.81 12.79 62.65 13.33 62.58 13.88C62.55 14.01 62.25 14.59 62.24 14.74C62.23 14.82 61.98 15.07 62 15.15L61.98 15.14Z" fill="#231F20"/>
<path d="M71.6998 20.61C71.7198 20.81 71.4298 20.74 70.9698 20.51C70.8198 20.44 70.4398 20.12 70.4098 20.05C70.3598 19.9 70.3098 19.75 70.2898 19.63C70.2798 19.55 70.6098 18.76 70.7098 18.47C70.8098 18.19 70.9698 17.97 71.1398 17.76L72.1798 16.45C72.2598 16.35 72.3598 16.28 72.4698 16.21C72.8698 16 73.1498 15.68 73.3998 15.34C73.4398 15.28 73.4998 15.24 73.4898 15.13C73.4598 14.95 74.2398 14.1 74.3898 14.03C74.8098 13.84 75.1198 13.7 75.4798 13.54C75.5298 13.52 75.5498 13.46 75.6498 13.49C75.8898 13.56 75.9398 13.46 76.0398 13.4C76.1698 13.31 76.3098 13.23 76.4898 13.18C76.5698 13.15 76.7098 13.18 76.8298 13.19C76.9398 13.19 77.0998 13.42 77.1098 13.46C77.1198 13.57 77.2598 13.63 77.3398 13.7C77.3698 13.73 77.4098 13.76 77.4298 13.79C77.4698 13.84 77.2898 14.91 77.2198 14.98C77.2198 14.98 77.0398 15.28 76.8598 15.58C76.6998 15.9 76.4698 16.18 76.4398 16.25C76.3998 16.32 76.3098 16.34 76.2398 16.37C76.1998 16.38 75.6398 17.27 75.6098 17.29C75.4498 17.43 75.3698 17.64 75.0798 17.67C75.0198 17.67 74.9998 17.71 74.9798 17.75C74.7598 18.04 74.4598 18.27 74.1798 18.51C74.0398 18.63 73.9398 18.79 73.8098 18.93C73.7898 18.96 73.7398 18.96 73.7098 18.98C73.6698 19 73.6198 19.02 73.5898 19.05C73.3198 19.4 72.9498 19.67 72.7298 20.07C72.6798 20.16 72.1898 20.39 72.1398 20.5C72.1098 20.56 71.7098 20.52 71.7198 20.6L71.6998 20.61Z" fill="#231F20"/>
</svg>
