<svg width="128" height="128" viewBox="0 0 128 128" fill="none" xmlns="http://www.w3.org/2000/svg">
<path d="M91.5299 15.1C91.7199 15.1 91.7199 14.98 91.6399 14.9C91.6099 14.85 91.5599 14.81 91.4899 14.76C91.4699 14.75 91.4699 14.74 91.4199 14.72L91.1799 14.62L90.6599 14.4C90.1299 14.21 89.5899 14.07 89.0399 13.9C87.1399 13.25 85.1399 12.8 83.1399 12.42C82.2499 12.27 81.3399 12.22 80.4399 12.2C79.2899 12.24 78.1799 12.27 76.9799 12.03C76.5999 11.96 76.6199 11.86 76.8899 11.56C77.0199 11.41 77.2199 11.2 77.4599 10.95C77.5799 10.83 77.7199 10.68 77.8799 10.59C78.0299 10.51 78.1999 10.44 78.3799 10.4C79.6399 9.99996 80.9099 10.08 82.1699 10.1C83.4199 10.17 84.6699 10.31 85.8799 10.69C87.3199 11.12 88.8599 11.33 90.3299 11.8C90.7299 11.94 91.1399 12.07 91.5399 12.23L92.1399 12.48C92.3199 12.54 92.6899 12.71 92.9399 12.86L93.7799 13.3C94.0299 13.46 94.2199 13.65 94.4399 13.82C94.6799 13.99 94.8199 14.18 94.9699 14.38C95.0399 14.48 95.1299 14.57 95.1899 14.67L95.2999 15C95.2999 15.31 95.1599 15.46 95.0399 15.67C94.8799 15.86 94.6499 16.06 94.3399 16.25C93.7199 16.6 92.9099 16.96 92.3799 17.25C92.0699 17.41 91.7399 17.59 91.4899 17.75C91.3199 17.85 91.1399 17.97 91.0099 18.13C90.8599 18.31 90.8899 18.57 91.0199 18.74C91.0799 18.83 91.1499 18.92 91.2299 18.99C91.3199 19.08 91.3599 19.12 91.5299 19.24C92.3999 19.9 93.4899 20.32 94.5499 20.93C94.7899 21.06 95.0399 21.19 95.2599 21.39C96.0899 22.09 96.2699 22.91 95.7399 23.32C95.6199 23.41 95.4899 23.49 95.3599 23.52C95.1399 23.56 94.9299 23.49 94.7499 23.52C94.5699 23.54 94.4099 23.54 94.1799 23.43C93.4199 23.16 92.5199 22.62 91.5699 22.07C91.0999 21.78 90.6099 21.46 90.1099 21.06L89.9199 20.9C89.8299 20.83 89.7099 20.72 89.6199 20.63C89.4299 20.44 89.2299 20.25 89.0799 20.03C88.7499 19.61 88.5299 19.14 88.4699 18.65C88.3899 18.21 88.4999 17.75 88.6599 17.35C88.9199 16.78 89.4399 16.31 89.9999 15.91L90.1999 15.77L90.3299 15.69L90.5799 15.53L91.0799 15.24L91.3299 15.11H91.3599C91.3799 15.11 91.3999 15.11 91.4299 15.1L91.5199 15.12L91.5299 15.1Z" fill="#231F20"/>
<path d="M73.3198 54.1899C76.6698 55.0399 79.0498 52.6399 78.1998 49.5299C77.6098 47.3499 74.7098 46.4199 71.8398 46.4199C71.8398 46.4199 75.4998 45.2999 78.6898 47.1299C81.8699 48.9599 81.2298 51.5499 80.7598 52.5999C80.2898 53.6499 77.5398 54.8899 76.6698 55.0299C75.7998 55.1699 73.3198 54.1799 73.3198 54.1799V54.1899Z" fill="#231F20"/>
<path d="M105.77 71.92C105.81 70.29 105.71 68.65 105.52 67.02C105.43 66.43 105.3 65.85 105.21 65.25C104.85 63.17 104.34 61.11 103.67 59.08C103.35 58.19 103.01 57.3 102.61 56.45L101.88 54.78C101.61 54.24 101.4 53.66 101.19 53.08C101.07 52.71 101.12 52.74 101.39 52.96C101.63 53.19 102.22 53.55 102.63 54.13C104.16 56.18 105.23 58.54 105.81 61.05C106.16 62.54 106.65 64.06 106.92 65.61C107.25 67.3 107.4 69.02 107.49 70.74C107.51 71.8 107.55 72.86 107.49 73.91L107.44 75.11L107.31 76.3C107.24 77.1 107.1 77.88 107 78.67C106.82 79.89 106.69 81.1 106.43 82.3C106.37 82.56 106.35 82.83 106.27 83.09C106.02 84.07 105.7 84.31 105.29 84.4C105.19 84.42 105.1 84.45 105.02 84.46C104.88 84.46 104.79 84.35 104.72 84.14C104.65 83.93 104.58 83.62 104.64 83.27C104.94 81.17 105.29 79.01 105.48 76.82C105.56 75.19 105.78 73.56 105.73 71.92H105.77Z" fill="#231F20"/>
<path d="M58.69 73.78L58.48 75.39L58.18 76.99C58.1 77.38 58.09 77.78 58 78.16C57.67 79.53 57.27 80.88 56.79 82.21C56.53 82.79 56.37 83.4 56.11 83.98C55.97 84.36 55.81 84.74 55.59 85.1C55.47 85.27 55.36 85.45 55.2 85.6C55.05 85.75 54.9 85.91 54.64 85.96C54.26 85.97 54.34 85.98 54.19 85.61C54.12 85.42 53.98 85.15 53.95 84.94C53.9 84.72 53.89 84.52 53.93 84.31C54.41 83.02 54.73 81.62 55.33 80.2C55.67 79.34 55.71 78.37 55.85 77.44C56.02 76.41 56.14 75.37 56.29 74.33C56.38 73.69 56.46 73.04 56.52 72.39C56.61 71.41 56.69 70.42 56.73 69.44C56.74 68.68 56.64 67.93 56.6 67.17C56.6 67 56.57 66.84 56.57 66.67C56.59 66.05 56.76 65.85 57.18 65.72C57.27 65.69 57.37 65.65 57.45 65.63C57.73 65.57 58.05 65.82 58.21 66.28C58.64 67.64 58.83 69.07 58.91 70.53C58.91 71.61 58.82 72.69 58.75 73.78H58.69Z" fill="#231F20"/>
<path d="M49.5502 94.51C48.6602 95.42 47.7502 96.31 46.7702 97.13C46.4102 97.42 46.1002 97.77 45.7302 98.05C44.4402 99.05 43.0602 99.94 41.6502 100.75C41.0102 101.09 40.3802 101.44 39.7302 101.75C38.9102 102.17 38.0302 102.54 37.0602 102.53C36.7602 102.53 36.7902 102.45 36.9602 102.21C37.0802 102.04 37.2102 101.87 37.3102 101.73C37.4602 101.55 37.6502 101.41 37.8502 101.26C39.3802 100.38 40.8302 99.42 42.4302 98.55C43.3702 98 44.2002 97.23 45.0402 96.5C45.9602 95.69 46.8802 94.88 47.7302 93.99C48.2702 93.46 48.7702 92.89 49.2702 92.32C50.0102 91.44 50.7202 90.53 51.3202 89.57C51.7602 88.81 52.1002 88.01 52.4102 87.2L52.6002 86.67C52.8502 86.02 53.0302 85.85 53.5302 85.88C53.6402 85.88 53.7402 85.88 53.8302 85.88C54.1102 85.91 54.3702 86.33 54.2102 86.88C53.8302 88.52 53.0002 90.1 51.9902 91.51C51.2602 92.58 50.4202 93.56 49.5602 94.53L49.5302 94.5L49.5502 94.51Z" fill="#231F20"/>
<path d="M22.1602 75.74C22.1602 75.74 23.7702 67.3 28.2602 59.14C32.8902 50.71 40.5102 42.58 48.3102 44.36C58.1302 46.6 58.0302 66.96 58.0302 66.96L33.9902 59.15L29.4502 71.14L27.1302 77.57L22.1602 75.75V75.74Z" fill="#231F20"/>
<path d="M71.5602 97.93L71.4302 94.04L71.4102 93.05V92.52V92.35V92.21C71.4102 92.21 71.4402 92.07 71.4602 91.98L71.5002 91.84L71.5302 91.77C71.5902 91.63 71.6902 91.41 71.9802 91.18C72.2602 90.93 72.8102 90.81 73.1502 90.9C73.5002 90.98 73.6802 91.12 73.7902 91.21C73.9902 91.39 74.1502 91.63 74.1802 91.7C74.2402 91.82 74.2902 91.92 74.3102 91.98C74.5102 92.56 74.5202 92.85 74.5802 93.23C74.6302 93.59 74.6602 93.93 74.6902 94.26C74.7702 95.24 74.8902 96.2 74.9102 97.15C74.9802 100.52 74.8002 103.87 74.6802 107.21C74.6202 108.69 74.5602 110.18 74.5002 111.66C74.4602 112.61 74.4202 113.56 74.3302 114.51C74.1602 115.46 73.9502 116.4 73.5102 117.35C73.4202 117.49 73.3402 117.61 73.2102 117.67C73.0902 117.73 73.0602 117.7 73.0502 117.67C73.0502 117.62 73.1602 117.48 73.0802 117.22C73.0002 116.71 72.6202 115.78 72.4102 114.71C72.3502 112.81 72.2902 110.92 72.2402 109.01C72.2402 107.1 72.3602 105.19 72.4602 103.26C72.6002 100.96 72.3902 98.56 72.2902 96.23C72.2602 95.59 72.2202 94.95 72.1702 94.33C72.1402 94.02 72.1102 93.71 72.0702 93.43C72.0502 93.29 72.0302 93.15 72.0002 93.04L71.9702 92.92V92.9C71.9702 92.9 72.1602 92.83 72.2402 92.78C72.3402 92.73 72.4402 92.67 72.5302 92.61C72.6002 92.58 72.6602 92.54 72.7102 92.49L72.7502 92.45L72.8702 92.31C72.8702 92.31 72.8902 92.34 72.9002 92.33C72.9802 92.35 73.1202 92.41 73.2402 92.41C73.3202 92.41 73.5702 92.43 73.7802 92.45H73.9402V92.46C73.9402 92.46 73.9402 92.51 73.9402 92.53V92.75L73.9202 93.22V94.19L73.9302 96.14C73.9302 97.75 73.9701 99.35 74.0201 100.96C74.0801 103.4 74.1302 105.84 74.1902 108.26C74.2502 110.14 74.4402 111.98 74.4902 113.88C74.5002 114.3 74.5302 114.71 74.5102 115.13C74.4102 116.7 74.0802 117.29 73.3902 117.47C73.2402 117.51 73.0702 117.56 72.9302 117.54C72.4702 117.43 72.2902 116.97 72.2102 115.9C72.0002 112.73 71.8602 109.24 71.7502 105.76C71.6602 103.17 71.6202 100.56 71.5002 97.96H71.5602V97.93Z" fill="#231F20"/>
<path d="M39.6902 78.19C39.1802 78.36 38.6802 78.52 38.1702 78.69C37.9902 78.75 37.8302 78.86 37.6402 78.92C36.9802 79.11 36.3202 79.31 35.6802 79.56C35.4002 79.67 35.1502 79.84 34.9002 79.99C34.5602 80.17 34.2902 80.44 33.8302 80.43C33.6802 80.41 33.5802 80.23 33.5002 79.93C33.4102 79.61 33.3702 79.2 33.5302 79.03C34.0602 78.38 34.7702 77.99 35.5502 77.74C36.0202 77.6 36.3902 77.25 36.8202 77.02C37.2902 76.76 37.7902 76.56 38.2802 76.34C38.5802 76.21 38.8802 76.07 39.1802 75.94C39.6302 75.73 40.1002 75.55 40.5002 75.27C40.8202 75.06 41.0602 74.72 41.3202 74.43C41.3802 74.37 41.4202 74.28 41.4902 74.23C41.7202 74.02 41.9102 74.15 42.3002 74.71L42.5702 75.08C42.8402 75.5 42.9702 75.97 42.8402 76.22C42.4502 76.94 41.8302 77.31 41.1902 77.62C40.7102 77.85 40.2102 78.03 39.7102 78.24L39.6802 78.19H39.6902Z" fill="#231F20"/>
<path d="M49.2701 78.45C49.4601 78.93 49.6501 79.4101 49.8601 79.8901C49.9401 80.0601 50.0702 80.2001 50.1302 80.3901C50.3502 81.0401 50.5802 81.7 50.7902 82.34C50.9102 82.62 51.0302 82.89 51.1502 83.17C51.2202 83.35 51.3001 83.5201 51.3601 83.7101C51.4401 83.8901 51.3901 84.1201 51.3901 84.3301C51.3701 84.4701 51.2501 84.5 51.0201 84.49C50.8201 84.47 50.4101 84.4601 50.2301 84.3301C49.9601 84.0601 49.6701 83.8101 49.4601 83.5101C49.2801 83.1901 49.1301 82.86 49.0201 82.49C48.8901 82.05 48.5302 81.7101 48.2902 81.3201C48.0502 80.8701 47.8102 80.41 47.5602 79.95C47.4102 79.66 47.2601 79.38 47.1201 79.09C46.8801 78.66 46.6901 78.2101 46.4101 77.8001C46.2001 77.4801 45.8602 77.2301 45.5802 76.9301C45.5202 76.8601 45.4401 76.81 45.3901 76.74C45.2301 76.46 45.3901 76.2701 45.9301 75.9701L46.3001 75.7601C46.7201 75.5501 47.1501 75.5 47.4101 75.6C48.0801 75.95 48.3601 76.4901 48.6801 77.0701C48.9101 77.5001 49.1002 77.9701 49.3302 78.4301L49.2801 78.4601L49.2701 78.45Z" fill="#231F20"/>
<path d="M32.3999 105.71C28.4799 107.14 24.2699 108.17 19.9099 107.94C18.3299 107.83 16.7199 107.62 15.1799 107.09C14.5099 106.82 13.8499 106.59 13.1899 106.17C12.5099 105.84 11.9399 105.32 11.3699 104.83C10.3199 103.75 9.42995 102.47 9.01995 101.06C8.03995 98.26 8.36995 95.35 9.09995 92.76C9.73995 90.43 10.7399 88.23 11.9199 86.21C12.2899 85.55 12.6599 84.89 13.1099 84.29C13.5499 83.68 13.9499 83.03 14.4499 82.47C14.9399 81.9 15.3899 81.3 15.9299 80.78C16.4999 80.3 17.0799 79.81 17.6599 79.33C18.3999 78.75 18.3699 78.91 18.0599 79.68C17.8799 80.14 17.6599 80.67 17.4299 81.25C17.2899 81.57 17.1599 81.92 16.9999 82.27C16.8199 82.61 16.6199 82.95 16.3799 83.29C14.7799 85.72 13.2999 88.21 12.2899 90.84C11.2999 93.46 10.7099 96.24 11.0199 98.86C11.1999 100.43 11.8999 101.93 13.0599 102.98C13.3799 103.21 13.6499 103.49 13.9899 103.69C14.3499 103.87 14.6699 104.08 15.0499 104.24C15.4499 104.38 15.8399 104.55 16.2399 104.68C16.6499 104.78 17.0499 104.92 17.4699 105.01C21.1499 105.81 25.1699 105.23 28.9499 104.1C31.2899 103.39 33.5799 102.46 35.7999 101.38C39.1599 99.74 42.4099 97.78 45.3999 95.54C47.7099 93.79 49.7899 91.83 51.7299 89.77C52.1499 89.31 52.5499 88.85 52.9599 88.38C53.7299 87.52 54.2299 86.96 54.6599 86.64C55.1099 86.32 55.4599 86.21 55.8999 86.21C56.0999 86.21 56.32 86.17 56.4899 86.21C56.7799 86.26 56.8799 86.55 56.7899 87.05C56.6999 87.55 56.4199 88.24 55.8799 88.98C52.6799 93.38 48.2899 96.95 43.5999 100.04C40.0999 102.32 36.3499 104.27 32.3999 105.8L32.3699 105.74L32.3999 105.71Z" fill="#231F20"/>
<path d="M94.08 44.16C94.57 44.32 95.04 44.47 95.55 44.68C95.8 44.77 96.05 44.87 96.33 45.02L96.74 45.22C96.9 45.32 97.09 45.45 97.26 45.57C97.34 45.63 97.44 45.7 97.5 45.76L97.63 45.9L97.89 46.18L98.41 46.73L99.45 47.84L99.97 48.39C100.13 48.58 100.27 48.79 100.42 48.99L101.32 50.2C101.61 50.61 101.93 51 102.2 51.42L102.96 52.72C104.99 56.17 106.39 59.92 107.31 63.74C107.93 66.54 108.47 69.35 108.67 72.2C108.82 74.71 108.85 77.22 108.68 79.73C108.62 80.36 108.59 80.98 108.51 81.62L108.39 82.57L108.3 83.1L108.23 83.48L108.1 83.82C107.99 84.03 107.96 84.3 107.77 84.46C107.6 84.64 107.38 84.76 107.17 84.88C106.97 85.02 106.72 85.11 106.5 85.2C106.34 85.26 106.18 85.32 106.03 85.37C105.41 85.58 104.8 85.75 104.2 85.91C99.37 87.15 94.55 88.03 89.7 88.9C85.4 89.65 81.08 90.43 76.8 91.08C71.3 91.89 65.76 92.83 60.15 92.67C58.4 92.58 58.64 92.44 60.08 92.01C61.52 91.53 64.13 90.72 67.27 90.24C72.85 89.49 78.41 88.49 83.99 87.56C89.56 86.59 95.15 85.59 100.68 84.39C102.32 84.03 104.02 83.62 105.53 83.09L105.71 83.02L105.8 82.98C105.86 82.95 105.94 82.93 105.95 82.86C105.97 82.8 105.98 82.73 106 82.66C106.01 82.58 106.06 82.31 106.08 82.12C106.18 81.29 106.23 80.44 106.27 79.59C106.4 76.17 106.17 72.7 105.72 69.32C105.2 65.6 104.31 61.94 102.91 58.47C101.48 55.02 99.51 51.81 96.99 49.11L95.81 47.87C95.7 47.74 95.63 47.7 95.57 47.67C95.52 47.63 95.45 47.57 95.32 47.52C95.1 47.41 94.88 47.3 94.61 47.21C93.58 46.82 92.46 46.5 91.33 46.21C89.07 45.63 86.77 45.15 84.46 44.72C77.45 43.42 70.33 42.41 63.27 41.74C57.78 41.24 52.37 41.03 46.95 41.03C45.76 41.05 44.59 41.08 43.39 41.1C41.17 41.14 39.72 41.19 38.69 41.13C37.66 41.05 37.05 40.87 36.54 40.58C36.3 40.45 36 40.33 35.85 40.19C35.6 39.96 35.91 39.69 36.72 39.36C37.52 39.03 38.82 38.73 40.49 38.58C45.45 38.14 50.53 38.21 55.65 38.47C60.77 38.74 65.95 39.24 71.11 39.88C74.95 40.36 78.78 40.92 82.61 41.58C86.45 42.27 90.24 42.96 94.12 44.1V44.17L94.08 44.16Z" fill="#231F20"/>
<path d="M41.07 62.4401C39.97 62.1101 38.86 61.8001 37.75 61.5101L36.08 61.0901L35.25 60.9001C35.06 60.8601 35.12 60.8601 35.06 60.8501L34.96 60.8201C34.96 60.8201 34.86 60.7901 34.81 60.7901C34.76 60.7901 34.75 60.8601 34.72 60.8901C34.7 60.9401 34.67 60.9901 34.65 61.0401L34.48 61.3701C33.21 63.9201 32.05 66.7301 30.94 69.5001C30.45 70.7301 30.04 72.0001 29.6 73.2501C29.02 74.8401 28.54 76.4901 27.61 77.9601C27.32 78.4201 27.01 78.2101 26.77 77.6401C26.54 77.0701 26.31 76.1201 26.58 75.1901C27.44 71.8701 28.55 68.6201 29.93 65.4001C30.35 64.4401 30.71 63.4301 31.07 62.4101C31.25 61.9001 31.43 61.3801 31.64 60.8601C31.74 60.6001 31.85 60.3401 31.97 60.0801L32.22 59.5401C32.32 59.3401 32.44 59.1701 32.55 58.9801C32.66 58.8101 32.76 58.6301 32.87 58.4701L33.33 58.0701L33.39 58.0201H33.4V58.0101C33.35 57.9001 33.47 58.1601 33.46 58.1301H33.49L33.63 58.0801L33.91 58.0101C34.09 57.9401 34.31 57.9501 34.53 57.9701C34.74 57.9701 34.97 58.0401 35.19 58.0801C35.71 58.1901 35.89 58.2401 36.18 58.3101L37 58.5201L40.24 59.4001L44.42 60.6101C46.53 61.2401 48.62 61.9501 50.7 62.6301C52.32 63.1601 53.95 63.5701 55.57 64.2001C55.93 64.3401 56.29 64.4601 56.64 64.6301C57.95 65.2801 58.27 65.7901 58.06 66.5501C58.01 66.7301 57.98 66.9101 57.9 67.0601C57.62 67.5801 56.96 67.6201 56.11 67.3001C53.51 66.3701 50.59 65.4401 47.66 64.5001C45.47 63.8201 43.26 63.1301 41.02 62.5301V62.4601L41.07 62.4401Z" fill="#231F20"/>
<path d="M48.78 76.61L46.59 77.31L45.4 77.68L44.44 77.92C44.13 77.98 43.85 77.93 43.56 77.94C43.33 78.03 43.19 77.8 43.02 77.69C42.85 77.55 42.69 77.37 42.53 77.21C42.35 77.05 42.24 76.86 42.1 76.68C41.97 76.51 41.8 76.28 41.75 76.19C40.69 74.52 39.69 72.83 38.71 71.12C38.28 70.36 37.75 69.66 37.3 68.93C36.72 67.98 36.03 67.11 35.74 65.96C35.63 65.61 35.71 65.62 36.03 65.75C36.26 65.84 36.5 65.93 36.71 66.01C36.85 66.07 37.01 66.12 37.15 66.2C37.28 66.29 37.4 66.39 37.51 66.5C39.16 68.08 40.56 69.83 41.75 71.77C42.08 72.37 42.48 72.93 42.9 73.48L43.54 74.3L43.86 74.71L44 74.91L44.11 75.09C44.11 75.09 44.18 75.24 44.25 75.21C44.38 75.19 44.5 75.16 44.67 75.12L46.82 74.38L49.47 73.43C50.8 72.93 52.16 72.46 53.45 71.88C54.45 71.43 55.37 70.83 56.33 70.29C56.54 70.17 56.74 70.03 56.95 69.92C57.76 69.53 58.09 69.6 58.57 70.26C58.68 70.41 58.8 70.55 58.88 70.7C59.17 71.2 59.04 71.84 58.5 72.24C56.9 73.45 55.03 74.28 53.12 75.04C51.7 75.61 50.25 76.12 48.8 76.65L48.77 76.59L48.78 76.61Z" fill="#231F20"/>
<path d="M57.0999 74.6699C57.6799 68.0899 57.3399 61.2999 55.4599 54.99C54.7699 52.6899 53.7799 50.5099 52.5699 48.5099C50.4799 44.9799 47.2699 42.0999 43.2699 41.3099C42.7799 41.2399 42.2499 41.0999 41.7999 41.0899C41.5699 41.0899 41.3399 41.0499 41.1099 41.0699L40.4099 41.1399C39.4799 41.2999 38.5499 41.6399 37.6599 42.0999C35.8999 43.0899 34.2799 44.4699 32.8399 46.0299C30.2799 48.8099 28.1999 52.0999 26.4499 55.4699C24.2599 59.82 22.3299 64.41 21.2099 69.05C20.7999 70.46 20.7899 70.3799 20.3699 68.9999C20.1699 68.3099 20.1099 67.3099 20.1699 66.1299C20.2099 64.9399 20.4299 63.5799 20.8999 62.1799C22.4899 57.2199 24.8299 52.5499 27.8299 48.2399C29.3299 46.0899 31.0299 44.0399 33.0699 42.2299C34.1099 41.3399 35.2299 40.5299 36.4899 39.8599C37.7499 39.1999 39.1799 38.7199 40.6899 38.6299C41.1399 38.5699 41.5999 38.6299 42.0499 38.6399C42.5099 38.6599 42.8899 38.7699 43.3099 38.8299C43.7199 38.8899 44.1399 38.9799 44.5399 39.1099C44.9399 39.2299 45.3599 39.3199 45.7499 39.4699C47.3599 40.0199 48.8499 40.8899 50.1899 41.9099C51.5399 42.9299 52.6899 44.1799 53.6899 45.5099C54.6999 46.8299 55.5199 48.2699 56.2099 49.7399C57.7399 52.9799 58.6499 56.4199 59.2399 59.8799C59.8199 63.34 60.0499 66.8499 59.9899 70.3399C59.9099 74.6299 59.4299 78.9199 58.4199 83.1099C58.2999 83.6699 58.1399 84.2199 57.9899 84.7699C57.9099 85.0499 57.8499 85.3199 57.7499 85.5999L57.3999 86.6899L57.1099 87.2999C57.0099 87.4799 56.7999 87.6199 56.5899 87.6799C56.1699 87.8299 55.6899 87.8099 55.2099 87.7799C54.9899 87.7599 54.6999 87.7199 54.5399 87.6899L54.0299 87.5999L53.0299 87.3799C51.7099 87.0699 50.4299 86.7099 49.1599 86.3299C46.6099 85.5799 44.0999 84.7699 41.6099 83.9599C36.8999 82.4699 32.2699 80.9999 27.6099 79.5199C26.5899 79.1899 25.5799 78.8699 24.5499 78.5399C20.7399 77.2399 19.5999 76.6399 19.0399 75.6499C18.9099 75.4199 18.7199 75.18 18.6699 74.9799C18.4999 74.31 20.1999 74.3999 23.0299 75.2299C31.4199 77.6699 40.0999 80.7399 48.8399 83.4199C50.2599 83.8499 51.6899 84.2599 53.0899 84.6099L54.1299 84.8499L54.6399 84.9499L55.0399 85.0199C55.0399 85.0199 55.0599 85.0299 55.0699 85.0199L55.0999 84.9399C55.1699 84.7199 55.2399 84.4999 55.2999 84.2799L55.6599 82.9399C55.8799 82.0399 56.0899 81.1299 56.2599 80.2099C56.5999 78.3799 56.8599 76.5199 57.0299 74.6499H57.0999V74.6699Z" fill="#231F20"/>
<path d="M77.2601 8.97998C77.9101 8.80998 78.2101 8.80998 78.5701 8.76998C78.9301 8.73998 79.2701 8.72998 79.6101 8.72998C80.2901 8.72998 80.9401 8.74998 81.5801 8.79998C82.8701 8.89998 84.1201 9.06998 85.3501 9.26998C87.8301 9.67998 90.2501 10.23 92.6601 10.89C93.5401 11.14 94.4201 11.38 95.3001 11.67C95.8401 11.84 96.7001 12.15 97.3201 12.47C97.9801 12.79 98.5701 13.14 98.9201 13.54C99.2101 13.85 99.3901 14.14 99.4901 14.53C99.5101 14.63 99.5301 14.75 99.5101 14.86C99.5001 14.97 99.4601 15.01 99.4401 15.08C99.3801 15.2 99.3201 15.33 99.2101 15.46C98.9701 15.69 98.7701 15.98 98.3601 16.23C97.9101 16.47 97.3801 16.69 96.8901 16.91L95.5201 17.51C95.2401 17.63 94.9601 17.77 94.6901 17.9L94.2801 18.1L94.1001 18.18L93.8101 18.32C93.7101 18.37 93.6101 18.42 93.5101 18.49C93.4301 18.54 93.2601 18.66 93.3801 18.74C93.5901 18.9 93.8301 19.04 94.0901 19.2L96.3001 20.4C97.3601 20.97 98.4601 21.56 99.2001 22.13C99.5401 22.41 99.8001 22.68 99.9701 22.93C100.06 23.05 100.14 23.17 100.22 23.3C100.28 23.43 100.39 23.54 100.33 23.77C99.9201 24.11 99.5201 24.41 98.6801 24.61C97.8901 24.82 96.8401 24.92 95.8101 25C94.2601 25.08 92.7101 25.17 91.1701 25.25C89.4101 25.36 87.6501 25.5 85.9201 25.66C84.1901 25.84 82.4901 26.07 80.7901 26.34C79.7201 26.49 79.7301 26.22 80.4801 25.47C80.8501 25.07 81.4501 24.65 82.2001 24.17C82.9701 23.75 83.9201 23.42 84.9701 23.23C86.8301 22.9 88.6801 22.71 90.5101 22.65L93.2401 22.55L93.9101 22.53H94.2501C94.3101 22.52 94.2701 22.53 94.2901 22.53C94.3001 22.53 94.3201 22.54 94.3501 22.55C94.4001 22.58 94.8701 22.61 94.7101 22.48C94.6801 22.43 94.6101 22.35 94.4901 22.25C94.4901 22.25 94.4301 22.21 94.4001 22.19C94.3601 22.17 94.3401 22.15 94.2201 22.08L93.6201 21.74L91.9601 20.81C91.5201 20.55 91.0701 20.29 90.7501 20C90.4601 19.7 90.3201 19.4 90.1301 19.12C90.0101 18.35 90.3901 17.78 91.2001 17.19C91.6001 16.91 92.0601 16.65 92.5301 16.41C92.7501 16.3 93.0201 16.15 93.2101 16.07L93.6401 15.86C94.2401 15.58 94.8401 15.3 95.4301 15.01C95.4901 14.95 95.7001 14.93 95.6201 14.81C95.5601 14.72 95.4601 14.67 95.3601 14.61C95.1701 14.51 94.9701 14.43 94.7601 14.35L94.5801 14.28L94.1901 14.15L93.3401 13.88C92.7701 13.71 92.1901 13.54 91.6101 13.39C90.4501 13.08 89.2701 12.8 88.0901 12.55C85.7301 12.06 83.3301 11.66 80.9701 11.53C80.2501 11.49 79.5301 11.49 78.8401 11.54C78.6701 11.55 78.5001 11.57 78.3401 11.6C78.2301 11.62 78.1601 11.63 78.0601 11.65C77.9001 11.7 77.6601 11.72 77.6301 11.93C77.5801 12.13 77.5501 12.24 77.4901 12.59L77.3201 13.69L77.0401 15.92C76.5401 20.45 76.1601 25.03 75.9901 29.57C75.8601 33.09 75.9301 36.56 76.0301 40.03C76.0601 40.79 76.1001 41.54 76.1301 42.31C76.2501 45.15 76.0701 46.04 75.5201 46.71C75.3901 46.86 75.2601 47.06 75.1301 47.15C74.7001 47.48 74.1401 46.33 73.8301 44.19C73.1401 37.87 73.3001 31.23 73.6501 24.59C73.7901 22.12 73.9501 19.65 74.1701 17.18C74.2801 15.94 74.4001 14.7 74.5501 13.45L74.6701 12.5L74.7401 12.02L74.8901 11.19C74.9501 10.92 75.0601 10.64 75.1701 10.38L75.4201 10.07L75.5501 9.90998L75.5801 9.86998V9.85998C75.4501 9.73998 75.5501 9.81998 75.5201 9.79998L75.5401 9.77998L75.6201 9.70998C76.0301 9.33998 76.5901 9.12998 77.1601 8.96998L77.1901 9.02998L77.2601 8.97998Z" fill="#231F20"/>
<path d="M77.9699 53.44C78.2099 53.36 78.3399 53.17 78.5499 53.06C78.6699 52.87 78.8899 52.74 78.9799 52.51C79.2499 52.11 79.3999 51.53 79.4199 51.03C79.4599 50.64 79.3299 50.29 79.2199 49.91C78.8699 48.56 77.4099 47.27 75.7699 47.09C74.9299 47.01 74.0899 47.1 73.2999 47.28C72.2599 47.5 71.3899 47.98 70.3399 48.39C70.0199 48.53 69.9199 48.37 69.9699 47.96C69.9899 47.75 70.0599 47.48 70.1799 47.16C70.2999 46.84 70.4999 46.52 70.8099 46.3C71.8899 45.49 73.2099 44.96 74.5099 44.83C75.1799 44.76 75.7299 44.71 76.5699 44.79C77.3299 44.9 78.0399 45.16 78.6699 45.53C79.4099 45.99 80.1099 46.52 80.7199 47.18C81.3199 47.84 81.8299 48.64 82.0699 49.54C82.3499 50.52 82.3199 51.58 82.0499 52.52C81.9499 52.99 81.6899 53.45 81.4899 53.89C81.2299 54.31 80.9299 54.73 80.5799 55.07C79.7199 55.96 78.5699 56.42 77.4799 56.64C75.7999 56.96 74.1199 56.69 72.6099 56.06C71.4399 55.6 70.2599 54.98 69.3499 53.94C69.1299 53.73 68.9599 53.49 68.7999 53.22C68.4699 52.74 68.5199 52.31 68.5799 52.03C68.6499 51.74 68.8199 51.55 69.0999 51.37C69.2299 51.29 69.3399 51.2 69.4699 51.14C69.8799 50.96 70.4199 51.21 70.8699 51.58C71.5499 52.11 72.0299 52.58 72.6899 52.95C73.3299 53.33 74.0699 53.58 74.8199 53.73C75.3799 53.87 75.9499 53.85 76.4999 53.83C77.0199 53.73 77.5599 53.64 77.9199 53.37L77.9599 53.43L77.9699 53.44Z" fill="#231F20"/>
<path d="M109.86 16.14C109.76 16.3 109.54 16.17 109.26 15.88C109.17 15.79 109.01 15.45 109.03 15.38C109.06 15.24 109.1 15.11 109.15 14.99C109.18 14.93 109.88 14.28 110.1 14.03C110.32 13.79 110.56 13.62 110.81 13.45C111.32 13.1 111.85 12.81 112.36 12.49C112.48 12.42 112.6 12.37 112.74 12.35C113.21 12.27 113.62 12.05 114.01 11.78C114.07 11.74 114.15 11.71 114.18 11.6C114.22 11.41 115.31 10.78 115.49 10.77C115.92 10.74 116.31 10.61 116.75 10.58C116.81 10.58 116.85 10.52 116.95 10.59C117.17 10.77 117.27 10.67 117.39 10.64C117.56 10.59 117.73 10.55 117.93 10.55C118.02 10.55 118.17 10.65 118.3 10.71C118.42 10.77 118.54 11.12 118.54 11.17C118.52 11.31 118.66 11.44 118.73 11.57C118.76 11.62 118.79 11.68 118.8 11.71C118.84 11.81 118.25 12.85 118.15 12.9C118.14 12.94 116.91 13.73 116.77 13.83C116.7 13.89 116.6 13.87 116.5 13.87C116.46 13.87 115.48 14.52 115.44 14.53C115.21 14.6 115.03 14.78 114.71 14.69C114.65 14.67 114.61 14.7 114.57 14.73C114.21 14.93 113.79 15.02 113.39 15.15C113.19 15.21 113 15.32 112.81 15.41C112.77 15.43 112.73 15.41 112.69 15.41C112.64 15.41 112.58 15.41 112.54 15.43C112.09 15.65 111.57 15.74 111.14 16C111.04 16.06 110.44 16.09 110.33 16.16C110.27 16.2 109.92 16.05 109.88 16.12L109.86 16.14Z" fill="#231F20"/>
<path d="M105.89 21.24C105.72 21.18 105.72 20.97 105.8 20.69C105.83 20.6 106 20.42 106.06 20.42C106.18 20.42 106.3 20.42 106.41 20.45C106.47 20.47 107.33 20.89 107.65 21.01C107.95 21.13 108.22 21.28 108.48 21.45C109.02 21.77 109.54 22.12 110.04 22.49C110.15 22.57 110.25 22.67 110.33 22.78C110.61 23.17 110.98 23.47 111.39 23.72C111.46 23.76 111.51 23.82 111.63 23.81C111.72 23.8 112.03 23.98 112.32 24.19C112.6 24.41 112.86 24.66 112.91 24.74C113.12 25.13 113.37 25.47 113.59 25.84C113.62 25.89 113.69 25.91 113.66 26.02C113.6 26.28 113.72 26.33 113.8 26.43C113.92 26.57 114.02 26.71 114.1 26.89C114.14 26.98 114.12 27.13 114.12 27.26C114.12 27.38 113.87 27.6 113.82 27.61C113.69 27.64 113.64 27.8 113.55 27.91C113.52 27.95 113.48 28 113.46 28.02C113.4 28.07 112.24 27.86 112.15 27.79C112.14 27.79 111.82 27.57 111.49 27.35C111.16 27.13 110.81 26.9 110.74 26.86C110.66 26.82 110.63 26.72 110.58 26.64C110.54 26.62 109.58 25.91 109.55 25.88C109.39 25.69 109.17 25.57 109.11 25.26C109.1 25.2 109.06 25.17 109.02 25.14C108.7 24.86 108.45 24.51 108.17 24.18C108.03 24.01 107.86 23.88 107.71 23.72C107.68 23.69 107.67 23.65 107.65 23.61C107.62 23.57 107.61 23.51 107.57 23.48C107.22 23.11 106.92 22.67 106.54 22.33C106.45 22.25 106.17 21.72 106.06 21.64C106 21.59 105.96 21.26 105.89 21.24Z" fill="#231F20"/>
</svg>
