<svg width="128" height="128" viewBox="0 0 128 128" fill="none" xmlns="http://www.w3.org/2000/svg">
<path d="M74.0398 29.42C73.5498 29.83 71.8098 31.9 72.8898 33.31C73.9798 34.72 71.0998 34.84 71.0998 34.84C71.0998 34.84 68.5298 32.94 69.2498 31.28C69.9698 29.62 71.7598 27.5 72.8898 27.99C74.0198 28.47 74.0398 29.42 74.0398 29.42Z" fill="#231F20"/>
<path d="M88.1798 90.53C88.1798 90.53 84.7998 92.68 85.2098 93.73C85.6198 94.78 88.1798 93.95 88.1798 93.95L90.9398 90.53H88.1798Z" fill="#231F20"/>
<path d="M50.3202 90.53L52.3502 90.45C52.3502 90.45 55.0502 91.45 55.2302 93.14C55.4002 94.84 52.0802 94.73 52.0802 94.73L49.4702 91.16L50.3202 90.53Z" fill="#231F20"/>
<path d="M102.64 107.92C100.97 107.9 99.2902 107.89 97.6102 107.9C97.0002 107.9 96.3802 107.95 95.7702 107.94C93.6002 107.89 91.4302 107.85 89.2602 107.8C88.3002 107.75 87.3302 107.75 86.3802 107.74C85.7702 107.73 85.1502 107.74 84.5402 107.7C83.9302 107.64 83.3102 107.55 82.7002 107.46C82.3202 107.4 82.3702 107.37 82.7002 107.27C83.0202 107.17 83.6102 106.92 84.3102 106.75C85.5502 106.51 86.7902 106.44 88.0302 106.31C88.6502 106.26 89.2702 106.19 89.9002 106.18C90.5202 106.18 91.1502 106.2 91.7802 106.21C93.2802 106.26 94.8402 106.07 96.3802 106C98.0702 105.93 99.7702 105.91 101.47 105.89L104.61 105.86C106.19 105.85 107.79 105.88 109.36 105.84C110.58 105.83 111.78 105.63 113 105.63C113.27 105.63 113.53 105.61 113.8 105.62C114.79 105.71 115.1 105.99 115.3 106.39C115.34 106.49 115.4 106.58 115.43 106.67C115.51 106.97 115.1 107.24 114.37 107.48C112.21 108.02 109.98 107.94 107.72 107.96C106.04 107.96 104.35 107.96 102.67 107.96V107.91L102.64 107.92Z" fill="#231F20"/>
<path d="M52.17 107.38L47.06 107.36C46.44 107.36 45.82 107.4 45.19 107.39C42.99 107.34 40.8 107.2 38.6 107.08C37.63 107.01 36.65 107 35.68 106.95C35.06 106.93 34.44 106.9 33.82 106.82L32.89 106.69C32.58 106.65 32.28 106.5 31.98 106.41C31.61 106.27 31.66 106.24 32 106.1C32.17 106.03 32.41 105.91 32.7 105.76C32.99 105.65 33.32 105.59 33.67 105.58C34.3 105.59 34.93 105.5 35.55 105.54L37.43 105.6C38.68 105.64 39.94 105.69 41.21 105.77C42.72 105.87 44.3 105.73 45.85 105.72L50.98 105.66L54.15 105.61C55.75 105.59 57.36 105.57 58.95 105.54C60.19 105.5 61.41 105.43 62.66 105.46C62.94 105.48 63.21 105.47 63.49 105.53C64.52 105.71 64.83 105.97 64.96 106.35C64.99 106.44 65.04 106.53 65.04 106.62C65.07 106.9 64.62 107.06 63.91 107.11C61.8 107.31 59.57 107.35 57.28 107.37C55.58 107.39 53.86 107.41 52.16 107.43V107.39L52.17 107.38Z" fill="#231F20"/>
<path d="M113.29 106.81C106.74 106.71 105.14 99.5 105.9 94.73H119.65C120.16 98.83 119.19 106.9 113.29 106.81Z" fill="#231F20"/>
<path d="M63.4399 106.81C56.8899 106.54 55.2899 99.5 56.0499 94.73H70.8899C71.3999 98.83 70.5099 107.1 63.4399 106.81Z" fill="#231F20"/>
<path d="M71.1901 27.16C72.6001 26.53 74.1301 26.71 75.2701 27.19C75.6901 27.37 76.1301 27.49 76.4901 27.76C77.1401 28.2 77.6601 28.77 78.1001 29.39C78.3201 29.7 78.4901 30.05 78.6701 30.38C78.7901 30.76 78.9701 31.09 79.0101 31.49C79.1201 32.17 79.1901 32.9 79.0101 33.59C78.9501 33.81 78.9101 34.04 78.8301 34.25C78.7401 34.45 78.6101 34.64 78.4801 34.82C78.2501 35.21 77.8501 35.43 77.3501 35.46C76.9301 35.34 77.0201 35.35 76.8401 34.88C76.7401 34.64 76.6501 34.38 76.5101 34.08C76.3901 33.82 76.4001 33.65 76.3701 33.51C76.3701 33.07 76.4601 32.89 76.4201 32.58C76.4201 32.51 76.3801 32.42 76.3801 32.34C76.3801 32.26 76.3601 32.17 76.3401 32.07C76.3201 31.97 76.3101 31.86 76.3001 31.74C76.2601 31.63 76.2301 31.51 76.2001 31.38C76.0101 30.77 75.3801 30.39 74.8401 30.09C74.2301 29.75 73.5601 29.57 72.9701 29.68C72.6001 29.73 72.2401 29.9 71.9101 30.18C71.3801 30.62 70.9201 31.31 70.8301 31.98C70.7401 32.52 71.0501 32.96 71.2701 33.26C71.3201 33.33 71.3801 33.39 71.4301 33.46C71.4601 33.54 71.4801 33.61 71.4901 33.68C71.4901 33.76 71.4601 33.87 71.4401 33.96C71.4001 34.14 71.3201 34.34 71.2101 34.57L71.0701 34.88C70.9901 35.04 70.8601 35.14 70.6501 35.21C70.4501 35.27 70.1501 35.33 69.8301 35.23C69.3901 35.07 69.0101 34.75 68.6701 34.36C68.3401 33.96 68.1701 33.46 68.0701 32.96C67.8701 31.95 68.0701 30.96 68.4001 30.12C68.6601 29.49 69.0101 28.94 69.4301 28.45C69.9201 27.94 70.4601 27.4 71.1701 27.07L71.2101 27.14L71.1901 27.16Z" fill="#231F20"/>
<path d="M90.5199 39.65C87.0999 38.17 83.4499 37.18 79.7299 36.66C75.9999 36.14 72.1799 36.05 68.4599 36.5C65.7399 36.87 63.0599 37.49 60.4899 38.41C58.2299 39.24 55.9899 40.18 53.9199 41.44C53.3899 41.73 52.8699 42.04 52.3699 42.39C51.8699 42.73 51.3499 43.05 50.8499 43.4C49.8799 44.13 48.8899 44.84 47.9799 45.65C46.1099 47.21 44.3799 48.96 42.7799 50.82C41.1599 52.67 39.6999 54.65 38.3399 56.71C35.9199 60.36 33.9699 64.35 32.4099 68.41C30.3999 73.65 29.1599 79.13 28.1899 84.61C27.8099 86.32 27.7799 86.13 27.3599 84.61C27.1799 83.85 26.8799 82.73 26.8699 81.4C26.8599 80.07 26.9399 78.51 27.2899 76.87C28.4999 71.06 30.5899 65.48 33.3199 60.21C34.6999 57.58 36.2399 55.03 38.0199 52.62C39.7999 50.22 41.7899 47.97 43.9699 45.91C46.5799 43.45 49.4699 41.16 52.6399 39.27C55.7999 37.37 59.2499 35.88 62.8099 34.95C66.7299 33.92 70.7899 33.53 74.7999 33.63C78.8099 33.74 82.8199 34.32 86.6799 35.44C91.4399 36.81 95.9399 39.04 99.91 41.97C105.94 46.42 110.62 52.53 113.88 59.12C116.45 64.24 118.29 69.61 119.4 75.18C119.65 76.41 119.86 77.61 120.02 78.87C120.17 80.03 120.23 81 120.28 81.81C120.3 82.62 120.29 83.28 120.25 83.82C120.19 84.9 119.9 85.53 119.54 86.03C119.38 86.26 119.23 86.55 119.09 86.68C118.85 86.9 118.62 86.54 118.34 85.72C118.18 85.31 118.09 84.79 117.99 84.16C117.88 83.53 117.77 82.81 117.69 81.99C117.05 77.14 116.01 72.24 114.38 67.47C112.78 62.7 110.51 58.1 107.63 53.93C105.45 50.87 102.95 48.03 100.06 45.62C97.1699 43.23 93.9699 41.2 90.4999 39.75L90.5199 39.68V39.65Z" fill="#231F20"/>
<path d="M26.9201 95.14L25.9601 95.04C25.7901 95.01 25.6301 95 25.4501 94.96C25.2001 94.93 24.9201 94.85 24.6701 94.78C24.1601 94.63 23.6801 94.41 23.3601 94.05C23.0001 93.69 22.8901 93.19 22.8701 92.71C22.8801 92.44 22.9401 92.17 22.9701 91.91C23.0201 91.65 23.1301 91.39 23.2001 91.13C23.2401 91.02 23.3001 90.91 23.3501 90.81L23.4801 90.55L23.8001 90.08C24.0301 89.79 24.2901 89.53 24.5701 89.32C26.6001 87.93 28.7301 87.85 30.7301 87.89C31.6201 87.92 32.5101 87.92 33.3801 88.04C34.4901 88.16 35.6501 88.35 36.6201 89.06C36.9201 89.29 36.8101 89.34 36.4801 89.39C36.1501 89.42 35.5701 89.67 34.9801 89.7C33.9301 89.65 32.8701 89.76 31.8301 89.8C30.7901 89.84 29.7501 89.91 28.7401 90.03C27.5201 90.11 26.3001 90.65 25.6501 91.35C25.4901 91.49 25.3501 91.73 25.2901 91.83C25.2301 91.93 25.1901 92.05 25.1601 92.17C25.1001 92.34 25.1801 92.53 25.3501 92.59C25.4301 92.63 25.5101 92.66 25.6001 92.68C25.6601 92.69 25.6601 92.7 25.7601 92.72C25.8501 92.74 25.9501 92.75 26.0501 92.76C26.9001 92.86 27.8301 92.87 28.7401 92.87C30.1301 92.86 31.5501 92.85 32.9701 92.79C34.0701 92.75 35.1601 92.57 36.3201 92.56C36.5701 92.56 36.8301 92.54 37.0901 92.56C37.5701 92.63 37.8901 92.77 38.0701 92.99C38.2501 93.19 38.3201 93.45 38.3101 93.78C38.3101 93.93 38.3101 94.08 38.2901 94.22C38.2001 94.68 37.7601 94.97 37.1701 95.12C35.4501 95.3 33.5401 95.29 31.5301 95.3C30.0401 95.3 28.5201 95.29 26.9201 95.2V95.14Z" fill="#231F20"/>
<path d="M47.4198 98.84C47.0898 99.7 46.4698 100.36 45.6098 100.7C45.3098 100.81 44.9598 100.96 44.5998 100.92C43.9798 100.86 43.4798 100.58 43.1098 100.18C42.7098 99.8 42.5798 99.1 42.6898 98.64C42.7798 98.2 42.9698 97.86 43.2298 97.65C43.5398 97.36 43.9098 97.22 44.2998 97.22C44.4198 97.22 44.4298 97.28 44.4198 97.43C44.3998 97.57 44.4198 97.86 44.4198 98.06C44.3998 98.23 44.4198 98.39 44.4498 98.51C44.4698 98.57 44.4998 98.63 44.5398 98.66C44.5598 98.68 44.5798 98.7 44.5798 98.7H44.5898L44.5398 98.68C44.3998 98.63 44.3298 98.65 44.3798 98.64C44.3798 98.64 44.1498 98.69 44.2598 98.67L44.2898 98.66C44.3198 98.65 44.3498 98.63 44.3798 98.6C44.4198 98.57 44.4498 98.52 44.4698 98.49C44.4898 98.44 44.4598 98.56 44.4798 98.64V98.65L44.4398 98.49V98.48C44.4398 98.48 44.4398 98.48 44.4498 98.48C44.4598 98.48 44.4798 98.48 44.5098 98.48C44.5598 98.47 44.6198 98.42 44.6798 98.36C44.7098 98.32 44.7398 98.28 44.7598 98.24C44.7798 98.22 44.7898 98.19 44.7898 98.14C44.7898 98.08 44.7898 97.99 44.7598 97.95C44.7598 97.93 44.7398 97.92 44.7398 97.92C44.7898 97.85 44.7998 97.81 44.8098 97.79C44.8098 97.79 44.8098 97.77 44.8098 97.86C44.8098 97.85 44.8098 97.89 44.8398 97.95C44.8598 98 44.9298 98.15 44.9798 98.21C44.9998 98.24 45.0098 98.27 45.0098 98.31C45.0098 98.34 45.0298 98.4 45.0098 98.43C44.8898 98.5 44.6498 98.43 44.0398 98.04L43.6298 97.78C43.1798 97.48 42.8598 97.12 42.8098 96.76C42.7698 96.48 42.8398 96.23 42.9898 95.97C43.1498 95.71 43.4098 95.39 43.8598 95.21C44.2998 95.02 44.8498 94.95 45.4098 95.07C45.9598 95.19 46.4198 95.48 46.7398 95.8C47.2098 96.28 47.4298 96.79 47.5298 97.3C47.5798 97.56 47.5998 97.82 47.5898 98.09C47.5898 98.36 47.5298 98.65 47.4598 98.86H47.3898L47.4198 98.84Z" fill="#231F20"/>
<path d="M74.0498 95.3C72.1998 95.23 70.3498 95.18 68.4998 95.16C67.8198 95.16 67.1498 95.21 66.4698 95.2C64.0798 95.15 61.6798 95.09 59.2898 95.04C58.2198 95.04 57.1498 95.02 56.0898 95.02C55.4098 95.01 54.7198 95.01 54.0298 94.96C53.6898 94.92 53.3398 94.91 52.9998 94.81C52.6598 94.71 52.3198 94.54 52.0098 94.33C51.6198 94.06 51.6898 94.07 52.0798 93.85C52.2798 93.75 52.5598 93.5 52.8698 93.34C53.0198 93.26 53.1998 93.14 53.3698 93.08C53.5398 93.04 53.7198 93.01 53.9098 93.01C55.2298 93.01 56.5798 92.93 57.9398 92.93C59.2998 92.95 60.6798 92.99 62.0598 93.08C63.7198 93.19 65.4398 93.01 67.1398 92.97C69.0098 92.93 70.8798 92.93 72.7598 92.93L76.2198 92.95C77.9698 92.95 79.7198 93.02 81.4598 93.01C82.8098 92.99 84.1398 92.85 85.4798 92.77C85.7798 92.76 86.0698 92.72 86.3598 92.72C86.9098 92.72 87.2698 92.76 87.5198 92.91C87.7698 93.09 87.8998 93.32 87.9998 93.64C88.0498 93.79 88.1098 93.93 88.1298 94.07C88.1698 94.31 88.0698 94.51 87.8698 94.71C87.6598 94.91 87.3398 95.12 86.9398 95.16C84.5698 95.5 82.0998 95.51 79.5998 95.49C77.7498 95.49 75.8898 95.4 74.0198 95.39V95.33L74.0498 95.3Z" fill="#231F20"/>
<path d="M97.6602 97.91C97.3502 98.73 96.7902 99.22 96.1302 99.54C95.8902 99.65 95.6502 99.8 95.3502 99.83C94.8402 99.88 94.2802 99.75 93.9202 99.45C93.5502 99.17 93.2602 98.78 93.1302 98.34C93.0302 97.94 93.0602 97.52 93.2002 97.21C93.3502 96.8 93.7602 96.45 94.2102 96.51C94.3502 96.53 94.3402 96.7 94.3602 96.92C94.3602 97.13 94.4902 97.44 94.5902 97.53C94.8102 97.72 94.7302 97.59 94.5902 97.63C94.6402 97.63 94.7802 97.53 94.8202 97.45C94.8402 97.41 94.8202 97.42 94.8202 97.49V97.54V97.55V97.56V97.44V97.42C94.8702 97.47 95.0402 97.44 95.1402 97.36C95.2002 97.33 95.2602 97.24 95.2802 97.2C95.2802 97.18 95.3002 97.17 95.3102 97.17C95.3502 97.15 95.3802 97.12 95.3802 97.13C95.3802 97.12 95.3802 97.15 95.3502 97.16C95.3002 97.18 95.2302 97.39 95.2002 97.53C95.1902 97.55 95.1902 97.6 95.1702 97.61C95.1002 97.65 94.9802 97.53 94.5002 97.11L94.1702 96.83C93.8002 96.52 93.5802 96.15 93.6802 95.82C93.7502 95.59 93.8602 95.37 94.0202 95.17C94.2002 95 94.4102 94.86 94.6802 94.76C95.1902 94.56 96.0402 94.53 96.7902 95.04C97.3202 95.38 97.6802 96 97.7802 96.53C97.8902 97.07 97.8302 97.52 97.7102 97.93H97.6502L97.6602 97.91Z" fill="#231F20"/>
<path d="M121.22 89.18L122.38 89.48C122.91 89.63 123.45 89.79 123.92 90C124.9 90.39 125.58 90.91 125.94 91.49C126.12 91.78 126.27 92.1 126.29 92.51C126.32 92.93 126.19 93.32 126.01 93.63C125.84 93.97 125.54 94.21 125.27 94.46C124.94 94.68 124.58 94.89 124.17 95.05L123.12 95.33C122.76 95.44 122.44 95.5 122.14 95.53L121.2 95.66L120.97 95.69H120.8L120.47 95.72C117.33 95.9 114.27 95.77 111.19 95.64C109.83 95.57 108.46 95.55 107.11 95.51C106.24 95.48 105.37 95.44 104.5 95.37C103.63 95.31 102.76 95.14 101.93 94.8C101.43 94.41 101.51 94.44 102.01 94.07C102.26 93.87 102.6 93.71 103.01 93.53C103.21 93.45 103.43 93.34 103.66 93.29C103.89 93.25 104.12 93.23 104.36 93.24C107.82 93.28 111.29 93.45 114.8 93.61C115.85 93.66 116.92 93.63 117.99 93.55L119.58 93.4L120.97 93.23C121.39 93.18 121.55 93.16 121.78 93.12C122 93.08 122.25 93.02 122.44 92.84C122.54 92.76 122.59 92.63 122.55 92.52C122.5 92.42 122.42 92.34 122.33 92.28C122.14 92.15 121.92 92.06 121.67 91.97C121.5 91.91 121.41 91.88 121.11 91.8C120.81 91.72 120.43 91.63 120.09 91.55C119.39 91.39 118.68 91.25 117.97 91.13C115.8 90.77 113.6 90.46 111.4 90.31C109.69 90.19 108.01 90.25 106.32 90.26C105.95 90.26 105.58 90.29 105.21 90.28C104.51 90.28 104.06 90.14 103.75 90.01C103.59 89.94 103.47 89.85 103.37 89.74C103.27 89.61 103.19 89.47 103.12 89.32C103.06 89.19 102.97 89.06 102.94 88.96C102.82 88.66 103.41 88.08 104.45 87.95C107.52 87.58 110.75 87.75 113.99 88.03C116.4 88.26 118.81 88.59 121.27 89.12V89.18H121.22Z" fill="#231F20"/>
<path d="M79.8501 90.07C77.3301 90.01 74.8001 89.97 72.2701 89.97L69.5001 90.02C66.2401 90 62.9801 89.98 59.7201 89.96C58.2701 89.95 56.8201 89.98 55.3801 89.99C53.5401 89.99 51.6401 90.18 49.8201 89.41C49.2701 89.13 49.3501 89.18 49.8701 89.01C50.1201 88.94 50.4901 88.7 50.9001 88.6C51.3101 88.49 51.8001 88.35 52.3201 88.31C56.0101 88.33 59.7701 88.24 63.5501 88.34C65.8201 88.4 68.1701 88.22 70.4901 88.16C73.0401 88.1 75.5901 88.07 78.1501 88.05H82.8701C85.2501 88.06 87.6501 88.15 90.0201 88.23C91.8701 88.3 93.6901 88.28 95.5601 88.49C95.9701 88.53 96.3801 88.59 96.8001 88.66C97.1901 88.74 97.5201 88.85 97.7801 88.94C98.0401 89.05 98.2501 89.22 98.4001 89.34C98.7101 89.59 98.8401 89.91 98.8401 90.2C98.8401 90.34 98.8701 90.48 98.8401 90.59C98.7901 90.77 98.5901 90.85 98.3101 90.88C98.0601 90.89 97.6401 90.92 97.1601 90.88C95.7101 90.65 94.0901 90.56 92.4601 90.48C90.8201 90.4 89.1301 90.34 87.4401 90.31C84.9201 90.25 82.3801 90.15 79.8401 90.14V90.09L79.8501 90.07Z" fill="#231F20"/>
<path d="M49.2901 52.07C50.0301 51.41 50.8201 50.82 51.6401 50.27C51.9401 50.07 52.1901 49.81 52.5001 49.63C53.5701 48.96 54.7001 48.37 55.8501 47.86C56.3701 47.63 56.8801 47.41 57.3901 47.19C58.0401 46.88 58.8101 46.75 59.5801 46.94C59.8101 46.99 59.7701 47.08 59.6001 47.26C59.4201 47.43 59.1901 47.77 58.9101 48.06C58.7801 48.15 58.6701 48.3 58.5301 48.38L58.1101 48.61L57.2801 49.12C56.7301 49.49 56.1401 49.78 55.5001 50.05C54.7501 50.39 54.1201 50.98 53.4501 51.49C52.7101 52.05 52.0001 52.64 51.2801 53.23C50.8501 53.6 50.4001 53.97 50.0101 54.38C49.7001 54.68 49.3901 54.99 49.1001 55.31C48.8001 55.63 48.5201 55.96 48.2801 56.31C47.8801 56.85 47.6301 57.46 47.3301 58.03C47.2601 58.16 47.2301 58.3 47.1401 58.41C46.8301 58.84 46.6201 58.92 46.1801 58.83C46.0801 58.81 45.9801 58.8 45.8801 58.77C45.5701 58.67 45.4301 58.34 45.4801 57.88C45.5201 57.17 45.8101 56.57 46.0801 55.95C46.3701 55.34 46.7601 54.78 47.1901 54.25C47.8201 53.46 48.5301 52.75 49.2501 52.06L49.2901 52.1V52.07Z" fill="#231F20"/>
<path d="M19.0099 67.42C18.8499 67.45 18.7299 67.3 18.6199 67.11C18.5799 67.05 18.5899 66.88 18.6399 66.85C18.7399 66.78 18.8399 66.71 18.9099 66.67C18.9599 66.61 19.8299 66.4 20.1299 66.32C20.4199 66.24 20.7099 66.17 20.9899 66.18H22.7399C22.8699 66.19 22.9899 66.21 23.1099 66.25C23.5299 66.38 23.9399 66.4 24.3499 66.36C24.4199 66.35 24.4899 66.36 24.5499 66.3C24.6499 66.21 25.7699 66.18 25.9299 66.22C26.2999 66.32 26.6799 66.38 27.0599 66.47C27.1099 66.48 27.1699 66.46 27.2199 66.53C27.3499 66.69 27.4599 66.65 27.5799 66.68C27.7399 66.71 27.9099 66.75 28.0799 66.8C28.1599 66.83 28.2499 66.91 28.3299 66.96C28.4099 67.01 28.3799 67.19 28.3599 67.21C28.2899 67.27 28.3599 67.36 28.3699 67.43C28.3699 67.46 28.3799 67.49 28.3699 67.51C28.3699 67.53 28.1399 67.67 27.9099 67.84C27.6699 68.02 27.4199 68.18 27.3699 68.18C27.3599 68.18 27.0099 68.26 26.6399 68.35C26.2799 68.41 25.8999 68.48 25.7999 68.5C25.7199 68.52 25.6299 68.48 25.5499 68.46C25.5199 68.46 24.3599 68.62 24.3099 68.61C24.0699 68.57 23.8199 68.61 23.5899 68.44C23.5499 68.41 23.4999 68.41 23.4499 68.41C23.0399 68.39 22.6599 68.28 22.2799 68.19C22.0899 68.15 21.8899 68.14 21.6999 68.12C21.6699 68.12 21.6299 68.09 21.5999 68.08C21.5599 68.06 21.5099 68.04 21.4699 68.04C21.0099 68.01 20.5499 67.89 20.0899 67.86C19.9799 67.86 19.4799 67.64 19.3499 67.64C19.2799 67.64 19.0599 67.44 18.9999 67.45L19.0099 67.42Z" fill="#231F20"/>
<path d="M11.54 74.69C11.32 74.72 11.15 74.52 10.99 74.28C10.94 74.2 10.95 74 11.01 73.95C11.15 73.86 11.28 73.76 11.38 73.7C11.46 73.59 12.65 73.33 13.06 73.22C13.45 73.09 13.85 73.06 14.24 73.06L16.65 72.98C16.83 72.98 17.01 72.99 17.19 73.03C17.8 73.17 18.42 73.18 19.04 73.15C19.14 73.15 19.25 73.15 19.35 73.09C19.52 72.94 21.19 73.09 21.4 73.18C21.92 73.37 22.45 73.5 22.97 73.66C23.04 73.68 23.13 73.66 23.19 73.76C23.33 73.97 23.5 73.96 23.66 74C23.88 74.05 24.11 74.11 24.33 74.2C24.44 74.24 24.54 74.36 24.65 74.44C24.74 74.52 24.67 74.77 24.63 74.79C24.52 74.86 24.59 74.99 24.59 75.09C24.59 75.13 24.59 75.17 24.59 75.2C24.57 75.25 23.23 75.68 23.08 75.69C23.06 75.7 22.57 75.7 22.06 75.72C21.55 75.73 21.02 75.76 20.91 75.77C20.8 75.78 20.69 75.73 20.58 75.7C20.53 75.7 19.01 75.78 18.95 75.76C18.64 75.71 18.33 75.76 18.03 75.57C17.97 75.53 17.91 75.54 17.84 75.54C17.3 75.54 16.77 75.44 16.23 75.38C15.95 75.35 15.68 75.36 15.4 75.35C15.35 75.35 15.3 75.32 15.25 75.31C15.19 75.29 15.12 75.27 15.06 75.27C14.4 75.24 13.83 75.21 13.09 75.17C12.94 75.17 12.22 74.92 12.04 74.93C11.94 74.94 11.63 74.67 11.54 74.68V74.69Z" fill="#231F20"/>
<path d="M3.91984 84.54C3.62984 84.56 3.40984 84.37 3.21984 84.15C3.15984 84.08 3.17984 83.88 3.26984 83.85C3.44984 83.78 3.62984 83.71 3.75984 83.66C3.85984 83.64 4.23984 83.56 4.68984 83.47C5.14984 83.42 5.66984 83.36 5.92984 83.32C6.43984 83.25 6.93984 83.21 7.44984 83.2C8.47984 83.15 9.50984 83.08 10.5298 83.08C10.7598 83.08 10.9898 83.09 11.2198 83.13C11.9998 83.25 12.7898 83.24 13.5698 83.19C13.6998 83.19 13.8298 83.19 13.9598 83.12C14.1698 83.01 16.2898 82.93 16.5698 82.97C17.2598 83.08 17.9498 83.13 18.6398 83.21C18.7398 83.22 18.8398 83.19 18.9298 83.27C19.1398 83.46 19.3498 83.42 19.5698 83.43C19.8698 83.44 20.1598 83.46 20.4598 83.52C20.6098 83.55 20.7498 83.65 20.8998 83.73C21.0298 83.8 20.9698 84.09 20.9298 84.12C20.7998 84.21 20.9098 84.34 20.9298 84.46C20.9298 84.5 20.9398 84.55 20.9298 84.58C20.9198 84.65 19.2398 85.22 19.0498 85.23C19.0098 85.23 16.5498 85.46 16.2398 85.48C16.0898 85.5 15.9398 85.46 15.7898 85.43C15.7098 85.43 13.7298 85.58 13.6498 85.59C13.2398 85.57 12.8198 85.64 12.4098 85.48C12.3298 85.45 12.2398 85.46 12.1598 85.46C11.4498 85.49 10.7398 85.42 10.0298 85.37C9.66984 85.34 9.29984 85.37 8.93984 85.34C8.86984 85.34 8.80984 85.31 8.73984 85.29C8.65984 85.27 8.57984 85.25 8.48984 85.24C7.62984 85.2 6.76984 85.07 5.90984 85.06C5.70984 85.06 4.76984 84.82 4.54984 84.82C4.41984 84.8 4.01984 84.53 3.90984 84.54H3.91984Z" fill="#231F20"/>
<path d="M101.84 30.32C101.97 30.46 101.84 30.64 101.59 30.86C101.51 30.93 101.23 31.01 101.17 30.98C101.06 30.92 100.95 30.85 100.86 30.78C100.81 30.73 100.32 29.91 100.13 29.64C99.9499 29.38 99.8099 29.1 99.6899 28.81C99.4499 28.23 99.1599 27.67 98.9399 27.08C98.8899 26.95 98.8699 26.81 98.8599 26.67C98.8299 26.18 98.6899 25.73 98.4899 25.29C98.4599 25.22 98.4399 25.14 98.3499 25.09C98.1999 25.01 97.7599 23.79 97.7599 23.61C97.7599 23.18 97.7099 22.75 97.6999 22.32C97.6999 22.26 97.6499 22.21 97.7199 22.13C97.8799 21.95 97.8099 21.84 97.7899 21.71C97.7499 21.53 97.7399 21.35 97.7899 21.15C97.8299 21.04 97.8699 20.94 97.9999 20.81C98.0999 20.7 98.2499 20.69 98.2999 20.71C98.3999 20.76 98.4899 20.67 98.5699 20.63C98.5999 20.62 98.6299 20.6 98.6599 20.6C98.7499 20.58 99.0099 20.77 99.2599 20.97C99.4799 21.18 99.6899 21.41 99.7099 21.47C99.7099 21.48 99.8699 21.83 100.04 22.2C100.2 22.57 100.36 22.95 100.4 23.03C100.44 23.11 100.42 23.21 100.42 23.3C100.42 23.34 100.91 24.44 100.92 24.49C100.97 24.73 101.11 24.95 101.01 25.24C100.99 25.3 101.01 25.34 101.03 25.39C101.17 25.79 101.23 26.22 101.31 26.64C101.34 26.86 101.41 27.06 101.46 27.28C101.46 27.32 101.46 27.36 101.46 27.41C101.46 27.46 101.45 27.52 101.46 27.56C101.6 28.06 101.64 28.58 101.82 29.07C101.86 29.18 101.84 29.78 101.9 29.91C101.93 29.98 101.78 30.29 101.84 30.34V30.32Z" fill="#231F20"/>
<path d="M111.15 35.22C111.17 35.4 110.92 35.4 110.53 35.3C110.4 35.27 110.08 35.08 110.05 35.01C110 34.88 109.96 34.75 109.94 34.64C109.93 34.57 110.2 33.71 110.3 33.41C110.38 33.12 110.53 32.86 110.69 32.62C111.02 32.13 111.35 31.62 111.72 31.15C111.8 31.04 111.9 30.95 112.01 30.88C112.4 30.63 112.71 30.3 112.99 29.94C113.04 29.88 113.1 29.83 113.1 29.73C113.07 29.53 114.03 28.73 114.19 28.68C114.59 28.54 114.96 28.38 115.35 28.24C115.4 28.22 115.44 28.16 115.53 28.2C115.75 28.3 115.83 28.21 115.94 28.16C116.09 28.09 116.26 28.04 116.43 28.01C116.52 28 116.64 28.04 116.76 28.07C116.86 28.09 116.97 28.34 116.97 28.37C116.96 28.48 117.07 28.55 117.14 28.64C117.16 28.67 117.19 28.71 117.2 28.74C117.21 28.79 116.81 29.76 116.76 29.84C116.73 29.84 115.85 30.77 115.78 30.9C115.74 30.97 115.65 30.98 115.58 31.01C115.54 31.03 114.93 31.84 114.89 31.85C114.72 31.97 114.62 32.16 114.34 32.18C114.29 32.18 114.26 32.22 114.23 32.25C114 32.52 113.69 32.73 113.42 32.97C113.28 33.09 113.18 33.25 113.05 33.38C113.03 33.4 112.99 33.41 112.96 33.43C112.92 33.45 112.88 33.47 112.85 33.5C112.58 33.85 112.24 34.14 112.04 34.54C111.99 34.63 111.56 34.92 111.51 35.04C111.48 35.1 111.14 35.14 111.15 35.22Z" fill="#231F20"/>
<path d="M38.22 95.91C37.63 97.93 38.08 100.26 39.48 101.94C39.98 102.55 40.63 103.02 41.31 103.43C42.51 104.14 43.95 104.53 45.38 104.4C46.81 104.31 48.23 103.73 49.36 102.79C50.36 101.95 51.09 100.77 51.41 99.52C51.85 97.89 51.6 96.24 51.16 94.64C51.03 94.14 51.57 93.9 52.3 94.14C53.05 94.35 53.94 95.23 54.09 96.52C54.34 98.78 53.71 101.12 52.36 102.94C51.01 104.77 48.95 106.01 46.78 106.38C44.21 106.83 41.34 106.38 39.21 104.74C38.06 103.85 37.12 102.68 36.52 101.37C35.93 100.06 35.65 98.61 35.72 97.18C35.78 96.3 35.96 95.44 36.25 94.62C36.56 93.8 36.98 93.04 37.49 92.33C39.07 90.21 41.62 88.93 44.2 88.8C46.2 88.68 48.24 89.16 49.96 90.3C50.34 90.55 50.7 90.81 51.03 91.13C52.24 92.35 52.27 93.02 51.92 93.57C51.83 93.7 51.76 93.85 51.65 93.95C51.27 94.29 50.71 93.91 50.03 93.25C48.01 91.26 44.94 90.45 42.31 91.46C41.34 91.84 40.46 92.42 39.76 93.18C39.05 93.94 38.55 94.89 38.27 95.9H38.21L38.22 95.91Z" fill="#231F20"/>
<path d="M88.8801 95.27C88.0101 97.18 88.1201 99.56 89.2801 101.42C89.6901 102.1 90.2701 102.66 90.8801 103.16C91.9701 104.03 93.3401 104.61 94.7801 104.69C95.5001 104.75 96.2301 104.69 96.9301 104.5C97.6401 104.32 98.3401 104.05 98.9501 103.65C100.06 102.97 100.91 101.89 101.36 100.68C101.96 99.11 101.9 97.4 101.79 95.69C101.76 95.16 102.34 95.05 103.01 95.43C103.69 95.79 104.4 96.76 104.37 98.02C104.33 100.22 103.52 102.52 101.91 104.19C100.31 105.87 98.1001 106.77 95.9001 106.85C93.2901 106.94 90.5001 106.11 88.6301 104.17C86.5501 102.1 85.6701 99 86.2301 96.19C86.5801 94.46 87.4401 92.86 88.6701 91.64C90.5301 89.76 93.2401 88.85 95.8001 89.06C97.7901 89.18 99.7701 89.84 101.36 91.22L101.87 91.69C102.02 91.86 102.18 92.04 102.32 92.22C102.59 92.57 102.75 92.89 102.89 93.16C103 93.44 103.07 93.68 103.1 93.89C103.15 94.3 103.01 94.58 102.77 94.82C102.66 94.93 102.55 95.06 102.43 95.13C102.22 95.25 101.98 95.19 101.74 95.01C101.52 94.82 101.26 94.53 101 94.14C99.4001 91.92 96.3401 90.84 93.5801 91.46C91.5501 91.91 89.7601 93.34 88.9501 95.3L88.9001 95.28L88.8801 95.27Z" fill="#231F20"/>
</svg>
