<svg width="128" height="128" viewBox="0 0 128 128" fill="none" xmlns="http://www.w3.org/2000/svg">
<path d="M52.2098 33.54C50.2598 33.34 48.3098 33.11 46.3298 32.68C45.6098 32.52 44.8598 32.4 44.1198 32.11C43.8798 32.01 43.6398 31.94 43.3798 31.81L42.9398 31.6L42.4598 31.27C41.8298 30.8 41.4698 30.15 41.3698 29.45C41.3198 28.83 41.6098 28.26 42.0698 27.84C42.2898 27.62 42.5598 27.44 42.8198 27.27C42.9698 27.17 43.0598 27.12 43.1498 27.07L43.4298 26.92C44.1798 26.53 44.9098 26.22 45.6298 25.9C46.6398 25.47 47.6298 24.99 48.5498 24.46C49.7298 23.74 50.8098 23.04 52.0398 22.36C52.4098 22.13 52.4498 22.21 52.3798 22.65C52.3498 22.87 52.2798 23.19 52.1698 23.57C52.0798 23.97 51.8798 24.37 51.5698 24.69C51.0498 25.3 50.4198 25.75 49.7898 26.16C49.1598 26.58 48.5098 26.95 47.8698 27.3C47.2298 27.66 46.5698 27.97 45.9198 28.23C45.3298 28.49 44.7398 28.75 44.1498 29.01C44.0098 29.04 43.7698 29.14 43.7798 29.35C43.7998 29.54 43.9698 29.67 44.1298 29.76C44.2598 29.83 44.5298 29.97 44.7598 30.05C44.9998 30.14 45.2598 30.22 45.5198 30.29C47.2698 30.78 49.1898 31.03 51.0998 31.23C52.2798 31.35 53.4698 31.45 54.6598 31.52C56.4598 31.63 58.2798 31.74 60.0798 31.76C61.4798 31.8 62.8598 31.6 64.2498 31.68C64.5598 31.69 64.8598 31.68 65.1598 31.71C66.2998 31.83 66.6598 32.05 66.8698 32.5C66.9198 32.6 66.9898 32.71 67.0098 32.8C67.0998 33.12 66.6098 33.38 65.7798 33.55C63.2998 34.07 60.7198 34 58.0998 33.92C56.1498 33.86 54.1898 33.74 52.2198 33.59V33.53L52.2098 33.54Z" fill="#231F20"/>
<path d="M46.1698 59.52L45.0698 71.5C45.0698 71.5 58.1298 66.45 62.6798 59.52H46.1698Z" fill="#231F20"/>
<path d="M77.5599 59.51C63.6199 76.23 43.3999 84.11 43.3999 84.11L39.6899 102.56C39.6899 102.56 68.8599 91.44 82.6899 72.45L80.8799 59.63L77.5599 59.51Z" fill="#231F20"/>
<path d="M86.1 88.49C76.55 101.68 48.23 114.87 48.23 114.87C48.23 114.87 72.81 116.65 75.79 115.77C75.79 115.77 88.48 106.43 89.07 104.54C89.66 102.65 86.1 88.49 86.1 88.49Z" fill="#231F20"/>
<path d="M57.3401 66.24C56.3901 66.85 55.4301 67.43 54.4501 67.98C54.1001 68.19 53.7801 68.44 53.4101 68.63C52.1301 69.3 50.8101 69.89 49.4901 70.45C48.9101 70.71 48.3301 70.97 47.7501 71.23C47.0101 71.56 46.2801 71.96 45.3901 71.9C45.0801 71.77 45.0801 71.66 45.1501 71.23C45.2301 70.82 45.4101 70.22 45.7901 69.98C46.4801 69.61 47.1701 69.24 47.8701 68.89C48.6001 68.59 49.3401 68.31 50.1101 68.04C51.0301 67.72 51.8401 67.12 52.6901 66.63C53.6201 66.08 54.5501 65.52 55.4601 64.92C56.0201 64.55 56.5701 64.18 57.1101 63.78C57.9201 63.18 58.7401 62.56 59.4601 61.86C60.0401 61.33 60.5301 60.75 61.0501 60.19C61.1601 60.07 61.2701 59.94 61.4001 59.83C61.8901 59.43 62.1401 59.37 62.4901 59.5C62.5701 59.53 62.6501 59.54 62.7101 59.57C62.9101 59.66 62.9401 60.04 62.7501 60.51C62.5101 61.26 62.0701 61.87 61.6501 62.52C61.4301 62.83 61.2101 63.16 60.9601 63.45L60.1101 64.22C59.2401 64.96 58.3201 65.63 57.3901 66.28L57.3601 66.24H57.3401Z" fill="#231F20"/>
<path d="M65.6399 72.28C63.9499 73.52 62.2399 74.74 60.4799 75.89C59.8499 76.32 59.2299 76.78 58.5699 77.16C56.2499 78.55 53.8499 79.8 51.4099 80.95C50.3299 81.47 49.2499 81.98 48.1799 82.5C46.7599 83.06 45.3699 83.73 43.7999 83.84C43.3199 83.9 43.3499 83.77 43.6499 83.42C43.7999 83.24 44.0099 83 44.2699 82.72C44.3999 82.59 44.5399 82.43 44.6999 82.3C44.8599 82.19 45.0399 82.08 45.2299 81.99C46.5699 81.28 47.8999 80.58 49.2699 79.95C50.6199 79.28 51.9799 78.61 53.3499 77.92C54.9999 77.11 56.5399 75.97 58.0899 74.92C59.7999 73.76 61.5199 72.61 63.1699 71.36C64.1999 70.61 65.2099 69.82 66.2099 69.03C67.7199 67.82 69.2199 66.58 70.6299 65.27C71.7199 64.24 72.6899 63.13 73.6899 62.04C73.9099 61.8 74.1099 61.55 74.3399 61.31C74.7499 60.86 75.1299 60.67 75.3999 60.55C75.6799 60.44 75.9399 60.47 76.2199 60.57C76.3499 60.61 76.4799 60.64 76.5699 60.68C76.8599 60.81 76.8399 61.5 76.3299 62.27C74.7399 64.46 72.6799 66.4 70.5599 68.28C68.9799 69.68 67.3199 70.99 65.6499 72.3L65.6099 72.26L65.6399 72.28Z" fill="#231F20"/>
<path d="M68.7 87.75C66.46 89.41 64.2 91.02 61.85 92.51C61.01 93.07 60.17 93.65 59.29 94.15C56.21 95.97 53.03 97.59 49.78 99.05C48.36 99.73 46.89 100.34 45.46 101C44.53 101.39 43.6 101.78 42.64 102.1C42.16 102.27 41.67 102.39 41.18 102.53C40.7 102.68 40.16 102.66 39.66 102.73C39.02 102.78 39.08 102.68 39.5 102.26C39.77 101.97 40.06 101.66 40.34 101.35C40.7 101.01 41.16 100.75 41.67 100.52C42.58 100.08 43.48 99.64 44.42 99.29L47.18 98.09C49.01 97.26 50.84 96.42 52.68 95.53C54.89 94.49 56.99 93.06 59.09 91.73L62.52 89.46C63.63 88.66 64.79 87.91 65.87 87.07L67.9 85.55L69.88 83.96C71.86 82.34 73.81 80.65 75.63 78.86C77.02 77.45 78.27 75.97 79.52 74.47C79.79 74.14 80.06 73.81 80.33 73.48C80.89 72.91 81.28 72.55 81.64 72.37C82.02 72.21 82.31 72.18 82.6 72.2C82.73 72.21 82.88 72.2 82.98 72.22C83.15 72.26 83.17 72.45 83.11 72.79C83.05 73.13 82.93 73.64 82.59 74.14C82.14 74.93 81.59 75.65 81 76.35C80.41 77.05 79.83 77.76 79.19 78.44C78.55 79.11 77.9 79.78 77.25 80.46C76.57 81.11 75.88 81.75 75.2 82.4C74.18 83.36 73.09 84.25 72.03 85.17C70.93 86.05 69.85 86.95 68.74 87.8L68.7 87.76V87.75Z" fill="#231F20"/>
<path d="M72.0701 101.89C69.8801 103.4 67.6601 104.84 65.4001 106.24C64.5801 106.75 63.7801 107.3 62.9401 107.78C59.9901 109.49 56.9501 111.06 53.8301 112.46C52.4501 113.08 51.0401 113.69 49.6301 114.25C48.7101 114.57 47.7801 114.88 46.8101 115.11C46.3201 115.2 45.8401 115.33 45.3401 115.36C44.8401 115.43 44.3201 115.28 43.8301 115.24C43.2101 115.14 43.3101 115.02 43.8001 114.73C44.0401 114.57 44.3801 114.42 44.7501 114.06C44.9301 113.9 45.1501 113.84 45.3601 113.74C45.5801 113.64 45.8201 113.54 46.0701 113.47C49.5701 112.27 53.1201 110.79 56.6501 109.13C58.7701 108.15 60.8201 106.82 62.8601 105.57C65.1001 104.19 67.3201 102.76 69.4901 101.26C70.8201 100.33 72.1501 99.4 73.4501 98.42C75.4101 96.94 77.3701 95.42 79.1701 93.79C80.5801 92.52 81.8101 91.12 83.0301 89.75C83.3101 89.46 83.5901 89.17 83.8701 88.88C84.3901 88.34 84.8201 88.05 85.1201 87.84C85.4201 87.63 85.6301 87.54 85.8501 87.49C85.9501 87.47 86.0601 87.42 86.1401 87.42C86.2701 87.42 86.2701 87.56 86.2101 87.86C86.1501 88.17 86.0001 88.63 85.7401 89.18C85.3701 90 84.8501 90.73 84.3501 91.48C83.7701 92.16 83.1701 92.82 82.5301 93.45C81.2601 94.72 79.9101 95.92 78.5201 97.08C76.4501 98.79 74.2901 100.39 72.1101 101.95L72.0801 101.91L72.0701 101.89Z" fill="#231F20"/>
<path d="M83.5599 110.31C82.6299 111 81.6599 111.65 80.6999 112.29C80.3499 112.53 80.0199 112.79 79.6599 113.01C78.3799 113.78 77.0599 114.49 75.7099 115.13C75.1299 115.44 74.4999 115.69 73.9199 115.98C73.1799 116.39 72.2999 116.51 71.4499 116.61C71.1799 116.64 71.1899 116.55 71.3499 116.33C71.5099 116.12 71.7699 115.69 72.1399 115.38C73.4499 114.27 74.9299 113.67 76.4699 112.97C77.3899 112.57 78.2199 111.92 79.0699 111.34C80.0099 110.72 80.9299 110.06 81.8399 109.38C82.3899 108.95 82.9599 108.54 83.4899 108.08C84.2999 107.4 85.1199 106.72 85.8499 105.96C86.4199 105.37 86.8799 104.71 87.3599 104.06C87.4699 103.92 87.5499 103.76 87.6799 103.64C88.1399 103.17 88.3799 103.1 88.8199 103.3C88.9199 103.34 89.0299 103.38 89.1199 103.43C89.4199 103.61 89.4699 104.01 89.2499 104.49C88.5899 105.9 87.4399 106.99 86.2999 108.08C85.4299 108.87 84.5199 109.61 83.5999 110.33L83.5699 110.3L83.5599 110.31Z" fill="#231F20"/>
<path d="M81.9501 116.18C77.7701 116.61 73.6001 116.9 69.4101 117.06C65.2301 117.24 60.9801 117.16 56.8101 116.86C53.7601 116.65 50.7201 116.44 47.6901 116.07C45.8301 115.84 43.9801 115.59 42.1201 115.27C41.1901 115.11 40.2601 114.94 39.3201 114.73L38.5401 114.53C38.1601 114.42 37.7901 114.31 37.4601 114.15C37.1301 113.98 36.8501 113.79 36.6801 113.49C36.5301 113.21 36.6201 112.84 36.5801 112.49L38.7901 101.85C39.4801 98.44 40.1501 95.03 40.7901 91.61C41.6601 86.96 42.4001 82.26 43.0601 77.61C43.9401 71.64 44.4801 65.6 45.7401 59.67C46.1901 57.83 46.2301 58.09 46.3801 59.71C46.4401 60.52 46.6601 61.69 46.6301 63.06C46.6301 64.44 46.5801 66.05 46.4001 67.79C45.0301 80.07 42.9601 92.3 40.3901 104.47C40.1201 105.78 39.8501 107.11 39.5801 108.44C39.4501 109.11 39.3101 109.78 39.1801 110.45L38.9801 111.46L38.8901 111.9C38.8901 111.95 38.8501 112.01 38.8701 112.06C38.8301 112.11 38.8401 112.16 38.8301 112.2C38.8101 112.25 38.8301 112.3 38.8701 112.32C38.9501 112.37 39.0501 112.39 39.1401 112.42L39.3201 112.47L39.7401 112.56L40.6001 112.73C41.7701 112.94 42.9601 113.11 44.1601 113.27C46.5601 113.58 48.9801 113.82 51.3901 114.04C55.5301 114.41 59.6901 114.69 63.8201 114.71C67.9601 114.71 72.1301 114.47 76.2701 114.14C78.8201 113.93 81.3801 113.68 83.9101 113.35C85.1701 113.18 86.4401 113 87.6501 112.74L87.9701 112.67L88.2101 112.61C88.3601 112.56 88.5401 112.53 88.6501 112.41C88.6501 112.25 88.6101 112.09 88.5901 111.92L88.4801 111.21C87.3101 103.52 85.7401 95.87 84.1001 88.29C82.8301 82.4 81.5801 76.59 80.7101 70.67C80.5301 69.36 80.3201 68.09 80.1601 66.77C79.9001 64.32 79.7401 62.71 79.8201 61.56C79.9401 60.41 80.1501 59.73 80.4301 59.18C80.5601 58.93 80.6601 58.6 80.7701 58.46C80.9501 58.21 81.1701 58.58 81.5101 59.44C81.8601 60.3 82.2501 61.66 82.4701 63.43C83.2201 68.67 84.0901 74.02 85.1101 79.41C86.1101 84.81 87.3201 90.27 88.4401 95.81C89.2701 99.92 90.0401 104.07 90.7101 108.23L91.2101 111.48L91.3301 112.24L91.3901 112.62L91.3601 112.96C91.3301 113.17 91.3501 113.44 91.2701 113.61C91.2101 113.78 91.0801 114 90.9401 114.15C90.4101 114.8 89.2401 115.07 88.3601 115.27C86.1601 115.72 84.0801 115.96 81.9701 116.21L81.9501 116.15V116.18Z" fill="#231F20"/>
<path d="M62.6802 52.01C59.9702 49.19 59.9702 36.83 70.7302 36.15C70.7302 36.15 63.8102 30.04 58.1802 34.98C52.5502 39.92 53.3602 44.9 53.8702 47.82C54.3802 50.74 55.8902 52.15 55.8902 52.15L62.6702 52L62.6802 52.01Z" fill="#231F20"/>
<path d="M52.8101 121.83C50.8801 121.69 48.9501 121.54 47.0301 121.3C46.3301 121.2 45.6301 121.16 44.9301 121.04C42.4701 120.66 40.0301 120.17 37.5901 119.69C36.5101 119.44 35.4201 119.25 34.3501 119.01C33.6701 118.85 32.9601 118.78 32.3001 118.51C31.6301 118.27 30.9701 118 30.3201 117.74C29.9101 117.57 29.9801 117.54 30.3701 117.5C30.7601 117.47 31.4901 117.33 32.3101 117.33C32.6701 117.35 33.0401 117.3 33.3901 117.37L34.4401 117.54L36.5401 117.89C37.9401 118.11 39.3301 118.45 40.7301 118.77C42.4101 119.15 44.1901 119.31 45.9301 119.55C47.8501 119.78 49.7501 120.11 51.6701 120.34C52.8501 120.49 54.0401 120.63 55.2201 120.74C57.0101 120.92 58.8201 121.07 60.6101 121.15C61.9901 121.19 63.3601 121.22 64.7401 121.26C65.0401 121.26 65.3401 121.28 65.6401 121.28C66.7701 121.32 67.1301 121.37 67.3801 121.48C67.4401 121.5 67.5101 121.53 67.5401 121.55C67.6501 121.63 67.1901 121.7 66.3601 121.78C65.1301 121.88 63.8501 121.98 62.5701 122.03C61.2801 122.06 59.9701 122.07 58.6601 122.06C56.7101 122.04 54.7601 121.96 52.8101 121.86V121.83Z" fill="#231F20"/>
<path d="M33.5301 114.17C33.5301 114.17 22.9301 115.05 26.5301 116.99C30.1301 118.94 46.8501 120.87 46.8501 120.87L33.5301 116.1V114.16V114.17Z" fill="#231F20"/>
<path d="M46.6701 44.38C46.7901 43.44 46.9001 42.48 46.9401 41.52C46.9501 41.17 46.9001 40.82 46.9101 40.47C46.9701 39.23 46.9701 37.97 46.9301 36.72C46.9101 36.16 46.8401 35.61 46.7401 35.07C46.5501 34.39 46.5901 33.66 46.6701 32.91C46.7101 32.67 46.9101 32.66 47.2101 32.78C47.5001 32.91 47.9901 33.16 48.2501 33.54L48.5601 34.05C48.6601 34.22 48.6801 34.41 48.7401 34.59C48.8401 34.95 48.9201 35.32 48.9901 35.69C49.1601 36.43 49.1601 37.19 49.1001 37.96C49.0301 38.88 49.2201 39.8 49.2401 40.73C49.2501 41.75 49.2301 42.77 49.1501 43.79C49.1101 44.42 49.0501 45.04 48.9801 45.67C48.8601 46.62 48.6901 47.56 48.5501 48.5C48.4601 49.23 48.4301 49.98 48.2301 50.72C48.1901 50.88 48.1701 51.05 48.1101 51.21C47.9601 51.49 47.8001 51.66 47.6301 51.74C47.4301 51.81 47.2501 51.82 47.0501 51.8C46.9601 51.79 46.8701 51.79 46.7901 51.77C46.6601 51.74 46.5701 51.65 46.4701 51.49C46.3701 51.33 46.2301 51.11 46.2201 50.9C46.0901 50.24 46.1501 49.66 46.1201 49.03C46.1401 48.42 46.2501 47.82 46.3101 47.2C46.4301 46.28 46.5001 45.34 46.6101 44.39H46.6701V44.38Z" fill="#231F20"/>
<path d="M78.3798 45.09C78.4198 43.98 78.4698 42.87 78.5498 41.76C78.5898 41.36 78.5498 40.95 78.5998 40.55C78.7998 39.13 79.0498 37.72 79.3198 36.32C79.4398 35.7 79.5598 35.08 79.6698 34.46C79.7898 33.66 80.1398 32.9 80.5498 32.18C80.6798 31.96 80.7998 32.02 80.9698 32.27C81.1198 32.52 81.4198 32.97 81.5098 33.43C81.8898 35.08 81.6098 36.56 81.2498 38.12C81.0298 39.05 81.1298 40.05 81.0998 41.02C81.0798 42.09 80.9998 43.16 80.9898 44.24C80.9698 44.9 80.9698 45.57 80.9898 46.23C81.0198 47.24 81.0298 48.25 81.1798 49.24C81.2898 50.01 81.5698 50.75 81.7798 51.49C81.8298 51.65 81.9098 51.81 81.9098 51.98C81.9498 52.61 81.7898 52.84 81.1698 53.06C81.0298 53.11 80.9098 53.17 80.7798 53.21C80.3798 53.33 79.8598 53.14 79.5998 52.7C79.1198 52.06 78.9798 51.35 78.7998 50.63C78.6398 49.91 78.5398 49.17 78.4698 48.43C78.3598 47.32 78.3498 46.2 78.3198 45.09H78.3898H78.3798Z" fill="#231F20"/>
<path d="M69.0499 36.79C67.4799 35.34 65.2999 34.77 63.0899 35.06L62.4899 35.16C62.2899 35.18 62.0899 35.23 61.9099 35.32C61.5399 35.47 61.1699 35.6 60.7899 35.73C59.5199 36.29 58.3899 37.2 57.4899 38.37C56.5699 39.53 55.9899 41 55.5799 42.5C55.1999 43.84 55.1799 45.27 55.2599 46.64C55.3399 47.52 55.5099 48.39 55.6899 49.23L55.9999 50.47L56.1199 51.11C56.1699 51.32 56.2499 51.51 56.3199 51.72C56.4699 52.24 56.2399 52.42 55.5899 52.23C55.2799 52.14 54.7899 51.96 54.3699 51.63C54.1599 51.47 53.8999 51.28 53.6999 51.05C53.5199 50.81 53.3999 50.55 53.2799 50.26C52.4599 48.2 52.4299 46.03 52.6499 43.94C52.8999 41.84 53.5499 39.76 54.7199 37.92C55.4499 36.85 56.2199 35.75 57.2499 34.87L58.0199 34.2C58.2999 34.01 58.5999 33.84 58.8899 33.66C59.1899 33.49 59.4699 33.29 59.7799 33.16L60.7299 32.82C61.4199 32.53 62.1499 32.47 62.8699 32.36C63.5799 32.2 64.3299 32.31 65.0499 32.31C65.7799 32.33 66.4999 32.57 67.2099 32.7L68.2299 33.11C68.57 33.25 68.9099 33.37 69.2099 33.59L70.3399 34.31L71.3299 35.19C71.6799 35.46 71.9299 35.83 72.2199 36.15C72.4999 36.48 72.7899 36.81 72.9999 37.19C74.4599 39.38 75.1799 41.94 75.3699 44.48C75.4399 44.97 75.4299 45.47 75.4299 45.97C75.4299 46.47 75.4599 46.97 75.3899 47.46C75.3299 47.95 75.3099 48.46 75.2199 48.95C75.1099 49.44 74.9799 49.93 74.8299 50.41C74.6999 50.84 74.5099 51.23 74.3099 51.64C73.9899 52.42 73.4799 52.76 73.1499 53C72.7899 53.21 72.4999 53.26 72.1799 53.23C72.0399 53.22 71.8899 53.23 71.7799 53.19C71.5899 53.13 71.5199 52.92 71.5099 52.59C71.5099 52.26 71.5299 51.79 71.6799 51.3C71.7999 50.52 72.1099 49.85 72.1799 49.09C72.2099 48.71 72.3199 48.37 72.3899 48.01C72.4199 47.64 72.4699 47.27 72.5199 46.91C72.6199 45.44 72.6 43.93 72.2299 42.47C71.75 40.3 70.6099 38.27 68.9999 36.89L69.0399 36.83L69.0499 36.79Z" fill="#231F20"/>
<path d="M46.8501 60.22C45.9801 60.1 45.1101 59.97 44.2101 59.79C43.7701 59.71 43.3001 59.59 42.8301 59.47C42.5901 59.4 42.3201 59.31 42.0701 59.22C41.7901 59.11 41.4501 58.95 41.1401 58.74C40.4601 58.29 39.9801 57.58 39.7501 56.91C39.5101 56.24 39.4601 55.6 39.4801 55.01C39.5001 54.42 39.6201 53.86 39.8001 53.32C39.9401 52.86 40.3101 52.06 40.7801 51.48L40.9801 51.29C40.9801 51.29 41.0301 51.2 41.1001 51.22L41.2101 51.13C41.3601 51.02 41.5101 50.92 41.6801 50.85C42.0201 50.71 42.4001 50.64 42.7701 50.58C43.1701 50.53 43.3001 50.52 43.5701 50.5L44.2501 50.46C45.1501 50.43 46.0101 50.43 46.8801 50.43C48.7801 50.45 50.6601 50.43 52.5301 50.51L62.3801 50.95C65.6301 51.06 68.9501 51.08 72.2301 51.12C75.1501 51.16 78.0901 51.12 81.0101 51.12C81.9501 51.12 82.8901 51.11 83.8401 51.17C84.3301 51.2 84.7901 51.22 85.3101 51.3C85.4401 51.32 85.5501 51.33 85.7101 51.36L86.2001 51.48C86.5001 51.61 86.7801 51.71 87.0601 51.9C87.6301 52.23 88.1101 52.84 88.3401 53.47C88.5801 54.11 88.6001 54.76 88.5001 55.33C88.4201 55.9 88.2201 56.43 87.9601 56.89C87.6901 57.35 87.4501 57.82 87.0201 58.16C86.4701 58.56 86.1601 58.63 86.1101 58.55C86.0501 58.46 86.2101 58.18 86.2501 57.64C86.2801 57.1 86.3501 56.4 86.2301 55.67C86.1701 55.32 86.1301 54.98 86.0101 54.74C85.9001 54.5 85.7801 54.42 85.7001 54.38C85.6701 54.07 83.2801 54.3 81.5101 54.18C79.6201 54.15 77.7401 54.13 75.8501 54.1C72.0501 54.06 68.2401 53.99 64.3901 53.83C59.7501 53.62 54.9801 53.55 50.3101 53.42C48.8901 53.38 47.4801 53.34 46.0801 53.34C45.3801 53.34 44.6901 53.35 44.0201 53.39C43.7201 53.4 43.2701 53.45 43.2201 53.46C43.0901 53.48 42.9301 53.5 42.8501 53.63C42.7801 53.73 42.7301 53.81 42.6701 53.94C42.5801 54.13 42.5201 54.35 42.4601 54.56C42.3501 54.99 42.3001 55.43 42.3501 55.79C42.3901 56.17 42.5201 56.37 42.7001 56.53C42.8401 56.59 42.9801 56.68 43.2401 56.76C43.4601 56.85 43.7301 56.91 43.9801 56.98C46.9201 57.67 50.1301 57.95 53.2501 58.23C58.0201 58.62 62.8401 58.83 67.5901 58.85C71.2901 58.85 74.9201 58.65 78.5401 58.37C79.3301 58.29 80.1101 58.22 80.9101 58.14C82.3801 58.01 83.3401 57.92 84.0001 57.95C84.6801 58.03 85.0601 58.18 85.4501 58.37C85.6401 58.47 85.8201 58.47 85.9901 58.51C86.1201 58.55 86.1701 58.61 86.1101 58.77C86.0801 58.85 86.0201 58.95 85.9101 59.07C85.8101 59.18 85.7201 59.26 85.5801 59.37C85.0401 59.81 84.1601 60.23 83.0301 60.4C79.6901 60.99 76.3101 61.2 72.8601 61.33C69.4201 61.45 65.9301 61.42 62.4401 61.33C59.8501 61.26 57.2501 61.13 54.6501 60.97C52.0401 60.81 49.4401 60.62 46.8101 60.3V60.23L46.8501 60.22Z" fill="#231F20"/>
<path d="M71.71 121.9C67.78 122.04 63.85 122.03 59.93 121.92C58.5 121.87 57.07 121.88 55.64 121.79C50.6 121.48 45.57 120.95 40.59 119.85C39.49 119.6 38.39 119.32 37.29 118.98C36.2 118.62 35.1 118.27 34.05 117.58C33.88 117.47 33.71 117.37 33.55 117.24L33.08 116.78C33 116.7 32.92 116.63 32.85 116.53C32.78 116.42 32.69 116.3 32.65 116.19C32.54 115.96 32.47 115.74 32.41 115.52C32.21 114.64 32.28 113.77 32.54 112.99C32.8 112.21 33.2 111.51 33.67 110.89C34.12 110.24 34.82 109.84 35.46 109.46C36.31 109.03 36.23 109.18 35.93 109.95C35.78 110.33 35.64 110.92 35.51 111.55C35.35 112.15 35.09 112.73 34.89 113.33C34.78 113.59 34.73 113.85 34.68 114.1C34.62 114.35 34.58 114.59 34.59 114.8C34.59 115.01 34.63 115.22 34.65 115.29C34.65 115.29 34.65 115.31 34.59 115.34L34.56 115.36C34.56 115.36 34.72 115.25 34.64 115.3H34.65L34.75 115.42C34.82 115.5 34.86 115.58 34.95 115.66C35.75 116.35 37.05 116.95 38.37 117.31C41.02 118.12 43.87 118.59 46.71 119.05C50.13 119.58 53.75 119.71 57.29 119.86C61.19 120.01 65.11 120.05 69.02 119.95C71.43 119.88 73.83 119.79 76.23 119.59C79.86 119.31 83.51 118.91 87.01 118.11C88.35 117.77 89.69 117.39 90.9 116.83C91.5 116.57 92.05 116.19 92.47 115.79C92.86 115.48 93.04 115.06 93.16 114.56C93.25 114.12 93.21 113.66 93.12 113.2C92.93 112.34 92.65 111.8 92.53 111.35C92.38 110.91 92.42 110.54 92.52 110.14C92.56 109.96 92.57 109.75 92.62 109.61C92.71 109.37 92.97 109.36 93.47 109.54C93.96 109.72 94.55 110.25 95.06 111.14C95.74 112.49 96.05 114.23 95.35 115.93C95.17 116.35 94.94 116.76 94.6 117.14C94.45 117.33 94.23 117.51 94.06 117.66L93.53 117.96C93.17 118.17 92.83 118.31 92.48 118.43C92.15 118.58 91.82 118.76 91.5 118.88C88.89 119.93 86.23 120.44 83.57 120.87C79.62 121.46 75.64 121.76 71.68 121.94V121.89L71.71 121.9Z" fill="#231F20"/>
<path d="M33.3099 10.1C33.5799 9.99 33.8699 9.88 34.0599 10.04C34.1699 10.14 34.3499 10.13 34.4899 10.18C35.4499 10.51 36.4299 10.8 37.3199 11.25C37.7099 11.42 38.1399 11.54 38.5399 11.69C39.2399 11.91 39.9199 12.19 40.5699 12.51C40.9099 12.67 41.1999 12.92 41.5399 13.08C42.2199 13.4 42.9199 13.67 43.5999 14C43.9299 14.19 44.2399 14.44 44.5399 14.71C44.6499 14.82 44.7899 14.85 44.8999 14.94C44.9499 14.98 44.9899 15.02 44.9999 15.13C44.9999 15.45 44.7399 16.06 44.3599 16.58C44.0699 16.98 43.8199 17.26 43.6899 17.24C43.3799 17.17 43.0699 17.11 42.7999 16.96C42.5199 16.83 42.2399 16.71 41.9699 16.56C41.7499 16.45 41.4799 16.42 41.2599 16.3C40.9199 16.11 40.5899 15.88 40.2599 15.67C39.7699 15.37 39.2799 15.05 38.7599 14.78C38.1599 14.49 37.5799 14.16 37.0099 13.81C36.8299 13.7 36.6499 13.58 36.4799 13.46C35.9399 13.07 35.3599 12.75 34.8799 12.26C34.3599 11.78 33.8499 11.3 33.3599 10.79C33.3199 10.75 33.2899 10.71 33.2599 10.67C33.1399 10.49 33.1499 10.42 33.3099 10.1Z" fill="#231F20"/>
<path d="M22.3902 28.74C22.6202 28.43 22.8502 28.18 23.0602 28.29C23.1802 28.36 23.3402 28.27 23.4802 28.26C24.4202 28.21 25.3602 28.09 26.2802 28.17C26.6802 28.17 27.0902 28.13 27.4902 28.1C28.1702 28.07 28.8702 27.96 29.5602 27.98C29.9102 27.98 30.2702 28.1 30.6302 28.11L31.7102 28.13C32.0702 28.18 32.4302 28.22 32.8002 28.3C32.9902 28.34 33.1702 28.39 33.3502 28.45C33.5402 28.54 33.7202 28.62 33.9002 28.71C34.0302 28.77 34.1802 28.77 34.3102 28.82C34.3702 28.84 34.4202 28.86 34.4702 28.94C34.5902 29.17 34.5702 29.65 34.4302 30.09C34.3202 30.43 34.2002 30.7 34.0802 30.72C33.8002 30.76 33.5102 30.82 33.2202 30.88L32.3602 30.93C32.1302 30.95 31.8902 31.06 31.6602 31.07C31.2902 31.09 30.9302 30.99 30.5602 30.96C30.0202 30.9 29.4802 30.86 28.9302 30.82C28.3002 30.78 27.6702 30.75 27.0302 30.71C26.8302 30.7 26.6302 30.67 26.4302 30.65L25.4802 30.52C25.3202 30.5 25.1602 30.48 25.0102 30.44L24.5402 30.29C23.8902 30.08 23.2502 29.85 22.6302 29.57C22.5802 29.55 22.5402 29.53 22.4902 29.49C22.3202 29.35 22.3102 29.27 22.3902 28.77V28.74Z" fill="#231F20"/>
<path d="M92.7601 10.23C92.9701 10.69 93.0501 11.08 92.7901 11.16C92.6401 11.2 92.6001 11.38 92.4901 11.49C91.7801 12.17 91.0801 12.85 90.2801 13.36C89.9401 13.58 89.6301 13.85 89.3001 14.09C88.7401 14.49 88.2101 14.92 87.6301 15.26C87.3301 15.43 86.9801 15.52 86.6901 15.68C86.0901 16.02 85.5301 16.41 84.9501 16.74C84.8001 16.83 84.6401 16.89 84.4801 16.95C84.3301 17.02 84.1601 17.07 83.9801 17.1C83.8501 17.13 83.7801 17.24 83.6701 17.29C83.6201 17.31 83.5801 17.33 83.4801 17.27C83.2201 17.1 82.7801 16.51 82.4801 15.88C82.2501 15.4 82.1201 15.03 82.2201 14.94C82.6501 14.49 83.1801 14.25 83.6701 13.96C83.8701 13.84 84.0201 13.64 84.2301 13.53C84.5501 13.36 84.8901 13.23 85.2201 13.08C85.7001 12.86 86.1801 12.64 86.6401 12.39C87.1701 12.12 87.6801 11.8 88.1901 11.51L88.6801 11.24L89.4501 10.83C89.7201 10.72 89.9901 10.61 90.2601 10.49C90.8101 10.25 91.3501 9.98 91.8501 9.7C91.8901 9.68 91.9201 9.66 91.9701 9.65C92.1701 9.62 92.2501 9.68 92.7601 10.19V10.23Z" fill="#231F20"/>
<path d="M105.64 29.93C105.51 30.26 105.35 30.55 105.13 30.51C105 30.48 104.87 30.59 104.73 30.63L103.4 30.98L102.07 31.12C101.69 31.16 101.31 31.26 100.94 31.34C100.3 31.45 99.6702 31.64 99.0502 31.68C98.7302 31.71 98.4102 31.63 98.0902 31.66C97.4502 31.71 96.8302 31.9 96.2202 31.92C95.9002 31.89 95.5902 31.87 95.2602 31.75C95.1402 31.7 95.0302 31.75 94.9102 31.71C94.8602 31.7 94.8102 31.68 94.7502 31.58C94.5802 31.28 94.4002 30.59 94.3602 29.91C94.3302 29.38 94.3502 28.96 94.4602 28.89L94.8702 28.65C95.0102 28.56 95.1602 28.58 95.3002 28.54L96.1602 28.39C96.3902 28.39 96.6102 28.26 96.8402 28.26C97.2002 28.26 97.5602 28.32 97.9202 28.35C98.4402 28.39 98.9602 28.45 99.4702 28.46C100.05 28.49 100.64 28.52 101.22 28.55L101.77 28.6C102.34 28.67 102.91 28.73 103.48 28.82L105.25 29.26C105.25 29.26 105.34 29.28 105.38 29.31C105.56 29.4 105.58 29.48 105.64 29.95V29.93Z" fill="#231F20"/>
<path d="M25.8402 46.41C25.6902 45.94 25.6102 45.53 25.8502 45.45C25.9902 45.41 26.0302 45.21 26.1302 45.09C26.7502 44.27 27.5802 43.74 28.3302 43.1C28.6702 42.84 28.9402 42.49 29.2902 42.25C29.8602 41.82 30.4402 41.38 31.0402 40.99C31.3502 40.79 31.7202 40.7 32.0302 40.5C32.6502 40.11 33.3302 39.82 34.0002 39.53C34.3602 39.41 34.7202 39.29 35.1202 39.27C35.2702 39.27 35.3902 39.2 35.5402 39.18C35.6002 39.18 35.6602 39.18 35.7502 39.24C36.0102 39.44 36.3202 39.97 36.5002 40.55C36.6402 41 36.7202 41.36 36.6402 41.47C36.2702 42.03 35.7002 42.17 35.2402 42.53C35.0402 42.66 34.9002 42.88 34.7102 43.01C34.4002 43.2 34.0802 43.37 33.7302 43.49C33.2402 43.7 32.7302 43.9 32.2702 44.16C31.7302 44.46 31.2302 44.82 30.7202 45.15L30.2002 45.41C29.6502 45.67 29.1002 45.94 28.5502 46.22L28.1302 46.44L27.6702 46.61L26.7502 46.96C26.7502 46.96 26.6602 46.99 26.6002 47C26.3702 47 26.2902 46.94 25.8502 46.41H25.8402Z" fill="#231F20"/>
<path d="M100.57 47.09C100.26 47.35 99.9401 47.57 99.7701 47.41C99.6701 47.31 99.4901 47.36 99.3501 47.33C98.8701 47.24 98.4401 47.08 98.0001 46.92L96.6901 46.45C96.3201 46.3 95.9501 46.15 95.5801 46.01C94.9601 45.75 94.3401 45.5 93.7301 45.21C93.4201 45.07 93.1801 44.79 92.8801 44.63C92.2801 44.3 91.6501 44.02 91.0601 43.69C90.9101 43.6 90.7701 43.5 90.6301 43.38C90.5001 43.25 90.3901 43.1 90.2501 42.98C90.1501 42.89 90.0101 42.88 89.9001 42.81C89.8601 42.78 89.8101 42.75 89.8201 42.63C89.8501 42.3 90.2301 41.54 90.6901 40.9C91.0401 40.41 91.3301 40.08 91.4401 40.13L92.2301 40.44L92.9601 40.85C93.1601 40.96 93.4101 40.97 93.6101 41.08C93.9201 41.26 94.2001 41.49 94.4901 41.68C94.9301 41.96 95.3501 42.27 95.7901 42.55C96.3001 42.86 96.8401 43.12 97.3601 43.41L97.8501 43.7C98.3301 44.05 98.7701 44.47 99.2401 44.85C99.7301 45.23 100.18 45.69 100.62 46.17C100.65 46.2 100.69 46.24 100.71 46.29C100.81 46.48 100.79 46.57 100.56 47.09H100.57Z" fill="#231F20"/>
<path d="M77.9802 33.93L69.1802 34.03L60.3802 34.24C58.2302 34.28 56.0702 34.38 53.9102 34.33C52.0002 34.29 50.0902 34.21 48.1702 34.04C46.2502 33.85 44.3202 33.63 42.3502 33.06L41.6102 32.81C41.3702 32.74 41.1402 32.61 40.7302 32.43L40.2102 32.18C40.0502 32.08 39.9102 31.96 39.7702 31.86C39.4802 31.64 39.1602 31.44 39.0002 31.13C38.8002 30.86 38.5802 30.58 38.5102 30.25C38.4302 29.92 38.4602 29.57 38.5302 29.23C38.7302 28.58 39.2602 28.07 39.8302 27.62C40.1302 27.43 40.4602 27.17 40.7302 27.04C40.9502 26.92 41.1802 26.79 41.4002 26.69C41.8402 26.46 42.2802 26.26 42.7102 26.06L45.2902 24.89C48.3002 23.51 51.1902 21.89 53.6302 19.83C55.2002 18.51 56.5602 16.98 57.7102 15.33C58.8802 13.67 59.6602 11.84 60.5202 9.95C60.8902 9.38 61.1102 9.13 61.2102 9.17C61.3202 9.21 61.3502 9.54 61.5402 10.18C61.6602 10.51 61.6902 10.88 61.7102 11.31C61.7202 11.74 61.7602 12.25 61.7102 12.78C61.5902 13.84 61.2402 15.06 60.5602 16.23C59.4002 18.32 57.8302 20.16 56.0602 21.69C54.3002 23.24 52.3602 24.51 50.3802 25.63C48.4002 26.74 46.3502 27.67 44.3802 28.56C43.8902 28.78 43.4102 29.01 42.9502 29.23C42.7202 29.34 42.4902 29.46 42.2902 29.57C42.1502 29.65 42.1602 29.63 42.1302 29.64L42.0602 29.67C41.9702 29.71 41.8502 29.77 41.8002 29.88C41.7502 30 41.8302 30.1 41.9102 30.19C41.9602 30.23 42.0302 30.31 42.0802 30.33C42.0802 30.33 42.1902 30.39 42.3302 30.45L42.7402 30.59C43.0102 30.69 43.3002 30.78 43.6002 30.85C43.9002 30.92 44.1902 31.01 44.5102 31.06C45.7402 31.32 47.0602 31.43 48.3602 31.53C50.9902 31.7 53.6802 31.7 56.3502 31.69C59.2902 31.67 62.2202 31.59 65.1802 31.48C68.1502 31.38 71.1102 31.33 74.0602 31.29L79.5002 31.18C80.4002 31.15 81.3102 31.12 82.2002 31.07L83.5402 30.98L84.7202 30.86C85.0802 30.81 85.4402 30.77 85.7902 30.63C85.9602 30.57 86.1502 30.43 86.0902 30.23C86.0902 30.05 85.9902 29.88 85.8902 29.73C85.6702 29.43 85.3702 29.21 85.0502 29.01C84.5602 28.69 83.9302 28.35 83.3402 28.04C80.9202 26.8 78.3902 25.59 76.0202 24.1C72.3502 21.8 68.9602 18.9 66.6202 15.11C66.1102 14.28 65.6102 13.46 65.2402 12.55C64.5202 10.88 64.2602 9.7 64.1702 8.86C64.0702 8.03 64.2302 7.5 64.4802 7.06C64.5902 6.86 64.6902 6.61 64.8102 6.49C65.0102 6.28 65.2902 6.5 65.6602 7.04C66.0202 7.59 66.4102 8.46 66.9002 9.56C68.4102 12.81 70.4002 15.81 73.0902 18.25C75.7802 20.7 79.0102 22.59 82.4902 24.39C83.8002 25.08 85.0902 25.69 86.5502 26.62C87.7602 27.42 88.8802 28.4 89.2202 29.51C89.4502 30.05 89.4402 30.62 89.3902 31.19C89.2402 31.78 88.9602 32.2 88.5302 32.54C88.1202 32.89 87.4902 33.12 86.8302 33.32C86.4802 33.39 86.1302 33.47 85.7802 33.53L84.7902 33.67C84.0002 33.76 83.2402 33.81 82.4802 33.85C80.9602 33.94 79.4702 33.98 77.9802 34.02V33.95V33.93Z" fill="#231F20"/>
</svg>
