<svg width="128" height="128" viewBox="0 0 128 128" fill="none" xmlns="http://www.w3.org/2000/svg">
<path d="M65.2998 85.69C66.2898 85.84 67.2698 86.02 68.2398 86.27C68.5898 86.36 68.9598 86.39 69.2998 86.52C70.5298 86.92 71.6998 87.46 72.8198 88.06C73.3198 88.31 73.8298 88.58 74.3098 88.86C74.6098 89.06 74.9198 89.24 75.2198 89.45C75.5298 89.64 75.6998 90.02 75.9198 90.32C76.0398 90.52 75.9198 90.62 75.6298 90.7C75.4798 90.74 75.2898 90.79 75.0698 90.83C74.9598 90.85 74.8498 90.87 74.7398 90.88C74.6798 90.88 74.6298 90.88 74.5698 90.9C74.5298 90.88 74.4798 90.87 74.4398 90.85L73.5298 90.45C73.2298 90.32 72.9098 90.22 72.6398 90.04C72.0698 89.73 71.4898 89.42 70.8798 89.09C70.1598 88.69 69.3098 88.57 68.4998 88.38C67.5998 88.18 66.6998 87.96 65.7798 87.85C65.2098 87.76 64.6398 87.71 64.0598 87.66C63.1898 87.62 62.2998 87.56 61.4398 87.65C60.7598 87.71 60.1198 87.92 59.4598 88.09C59.3198 88.12 59.1798 88.18 59.0298 88.21C58.4898 88.32 58.2998 88.2 58.0998 87.64C58.0498 87.51 57.9998 87.39 57.9698 87.26C57.8498 86.82 58.0298 86.43 58.4298 86.25C59.6198 85.71 60.9598 85.55 62.2998 85.52C63.2998 85.49 64.3098 85.58 65.3098 85.66V85.71L65.2998 85.69Z" fill="#231F20"/>
<path d="M74.6 92.47C74.21 92.07 73.8 91.67 73.35 91.32C73.19 91.19 73.01 91.09 72.84 90.97C72.25 90.53 71.62 90.13 70.95 89.8C70.65 89.65 70.34 89.53 70.03 89.43C69.64 89.27 69.21 89.23 68.85 88.94C68.73 88.86 68.76 88.84 68.89 88.79C69.01 88.77 69.28 88.58 69.52 88.64C70.39 88.8 71.27 89.02 72.07 89.45C72.55 89.7 73.08 89.89 73.57 90.14C74.11 90.43 74.62 90.75 75.12 91.11C75.43 91.32 75.72 91.56 76.01 91.79C76.45 92.15 76.84 92.56 77.26 92.93C77.59 93.21 77.97 93.43 78.31 93.7C78.38 93.76 78.46 93.81 78.53 93.88C78.77 94.14 78.76 94.3 78.53 94.61C78.48 94.68 78.43 94.76 78.37 94.82C78.17 95.04 77.89 95.11 77.64 95C76.87 94.72 76.36 94.16 75.79 93.67C75.37 93.3 74.99 92.89 74.59 92.49L74.61 92.46L74.6 92.47Z" fill="#231F20"/>
<path d="M28.02 105.36C27.81 104.88 27.53 104.41 27.2 103.96C27.07 103.8 26.91 103.68 26.79 103.51C26.34 102.95 25.83 102.42 25.27 101.92C25.02 101.7 24.74 101.53 24.46 101.37C24.28 101.27 24.09 101.18 23.9 101.08C23.73 100.95 23.59 100.76 23.42 100.59C23.32 100.47 23.35 100.44 23.51 100.36C23.66 100.3 23.97 100.11 24.29 100.05C25.21 100.28 26.1 100.68 26.76 101.36C27.15 101.77 27.66 102.07 28.08 102.48C28.54 102.92 28.95 103.42 29.31 103.94C29.54 104.26 29.74 104.61 29.93 104.95C30.22 105.49 30.44 106.05 30.63 106.64C30.8 107.09 31.02 107.56 31.09 108.08C31.11 108.19 31.16 108.31 31.14 108.43C31.07 108.86 30.89 108.98 30.36 108.94C30.24 108.94 30.12 108.93 30 108.91C29.61 108.84 29.29 108.63 29.16 108.43C28.76 107.82 28.67 107.38 28.5 106.77C28.37 106.33 28.2 105.85 27.95 105.39L27.99 105.36H28.02Z" fill="#231F20"/>
<path d="M107.58 103.28C108.01 102.85 108.47 102.45 108.94 102.07C109.1 101.92 109.25 101.76 109.43 101.63C110.06 101.17 110.78 100.82 111.51 100.52C111.84 100.4 112.15 100.23 112.49 100.13C112.9 99.95 113.42 99.85 113.88 100.07C114.02 100.13 113.96 100.34 113.84 100.59C113.71 100.84 113.57 101.11 113.42 101.23C112.83 101.44 112.24 101.81 111.54 102.14C111.12 102.34 110.8 102.72 110.43 103.04C110.03 103.39 109.64 103.76 109.26 104.15C109.04 104.4 108.8 104.64 108.6 104.91C108.29 105.31 107.95 105.7 107.72 106.15C107.53 106.5 107.47 106.89 107.37 107.27C107.34 107.35 107.34 107.44 107.32 107.52C107.22 107.81 107.07 107.86 106.61 107.75L106.3 107.68C105.95 107.58 105.73 107.35 105.72 107.06C105.7 106.21 106.02 105.43 106.43 104.71C106.71 104.16 107.15 103.71 107.55 103.26L107.59 103.29L107.58 103.28Z" fill="#231F20"/>
<path d="M71.2202 99.3C70.3502 99.61 69.4802 99.94 68.6102 100.29C68.2902 100.42 68.0102 100.6 67.6902 100.72C66.5602 101.15 65.4202 101.58 64.2902 102.01C63.7802 102.19 63.2902 102.42 62.8002 102.64C62.1902 102.96 61.5202 103.19 60.7902 103.22C60.5602 103.22 60.5102 102.98 60.5702 102.63C60.6402 102.29 60.8002 101.82 61.1002 101.58C62.2302 100.82 63.4302 100.21 64.7902 99.82C65.6002 99.58 66.3302 99.1 67.1002 98.73C67.9502 98.33 68.8202 97.95 69.6902 97.57L71.3002 96.88C72.1202 96.53 72.9602 96.24 73.7602 95.87C74.3902 95.59 74.9602 95.18 75.6002 94.91C75.7402 94.85 75.8702 94.76 76.0202 94.71C76.5802 94.54 76.8002 94.63 77.0502 95.14C77.1102 95.25 77.1702 95.37 77.2202 95.48C77.3702 95.88 77.2502 96.28 76.9302 96.53C75.9902 97.3 74.9202 97.79 73.7902 98.28C72.9602 98.65 72.1002 99 71.2402 99.35L71.2102 99.3H71.2202Z" fill="#231F20"/>
<path d="M88.6001 91.68C89.2501 91.44 89.8901 91.2 90.5401 90.96C90.7701 90.87 91.0001 90.76 91.2401 90.68C92.0801 90.4 92.9301 90.14 93.7801 89.89C94.1601 89.77 94.5301 89.65 94.8901 89.51C95.1201 89.43 95.3601 89.34 95.6001 89.26C95.8401 89.2 96.1001 89.18 96.3601 89.17C96.5201 89.17 96.5401 89.3 96.4601 89.5C96.3801 89.69 96.2201 89.98 95.9701 90.13C95.0401 90.49 94.1001 90.82 93.1301 91.08C92.5401 91.24 91.9801 91.54 91.4101 91.78C90.7801 92.04 90.1501 92.3 89.5201 92.56C89.1301 92.73 88.7401 92.89 88.3601 93.06C87.7801 93.32 87.1801 93.57 86.6201 93.86C86.1801 94.09 85.7901 94.39 85.3601 94.63C85.2701 94.68 85.1801 94.75 85.0801 94.8C84.7201 94.98 84.5601 94.95 84.3501 94.69C84.3001 94.63 84.2501 94.57 84.2101 94.51C84.0701 94.3 84.1301 94.04 84.3601 93.84C85.0301 93.23 85.8501 92.82 86.7001 92.44C87.3201 92.16 87.9701 91.9 88.6101 91.63V91.66L88.6001 91.68Z" fill="#231F20"/>
<path d="M36.8898 89.24C36.3898 89.04 35.8998 88.84 35.3898 88.66C35.2098 88.59 35.0098 88.56 34.8298 88.49C34.1798 88.26 33.5498 87.95 32.8998 87.73C32.6098 87.62 32.3098 87.55 32.0198 87.49C31.8298 87.44 31.6298 87.43 31.4498 87.35C31.2698 87.26 31.0998 87.15 30.9198 87.03C30.8098 86.95 30.8398 86.9 30.9598 86.82C31.0798 86.74 31.3198 86.56 31.5698 86.49C32.3998 86.49 33.1698 86.73 33.9298 87.02C34.3798 87.2 34.8898 87.28 35.3598 87.44C35.8798 87.61 36.3898 87.8 36.8998 87.99C37.2198 88.11 37.5298 88.23 37.8398 88.34C38.3198 88.52 38.7798 88.73 39.2598 88.89C39.6298 89.02 40.0098 89.08 40.3898 89.19C40.4698 89.21 40.5598 89.23 40.6398 89.26C40.9398 89.36 41.0098 89.48 40.9898 89.73C40.9898 89.79 40.9898 89.85 40.9798 89.9C40.9398 90.08 40.7698 90.19 40.5198 90.18C39.8098 90.13 39.0998 89.97 38.3998 89.79C37.8798 89.66 37.3698 89.48 36.8698 89.29V89.26L36.8898 89.24Z" fill="#231F20"/>
<path d="M57.8699 81.67L57.7099 81.57L57.6699 81.54L57.6299 81.5C57.6299 81.5 57.5599 81.43 57.5199 81.39C57.4599 81.33 57.2299 81.14 57.2599 81.29C57.2599 81.32 57.2599 81.36 57.2799 81.4C57.2999 81.45 57.3099 81.5 57.3099 81.54V81.65V81.71V81.74L57.3399 81.85C57.4199 82.15 57.4999 82.46 57.5899 82.76C57.7699 83.36 57.9899 83.95 58.2199 84.54C58.4399 85.05 58.7099 85.54 59.0299 85.98C59.4499 86.54 59.8799 87.06 60.3099 87.61C60.4399 87.79 60.2899 87.96 59.9899 88.04C59.6799 88.12 59.1599 88.1 58.7799 87.8C57.5399 86.66 56.7599 85.21 56.3399 83.69C56.2199 83.23 56.0699 82.78 55.9199 82.33C55.7299 81.73 55.4399 80.84 55.3899 80.22C55.3899 80.13 55.3599 80.04 55.3599 79.96L55.3999 79.56C55.4199 79.44 55.4699 79.36 55.5099 79.26C55.5599 79.19 55.5799 79.05 55.7199 79.04C55.8199 79.02 55.9199 79.02 56.0299 79.03C56.2499 79.04 56.5199 79.09 56.8399 79.25L57.8199 79.76C58.0299 79.86 58.2499 79.97 58.4499 80.08L58.8599 80.3C59.1299 80.44 59.4099 80.58 59.6899 80.71C60.5299 81.09 61.3699 81.49 62.2499 81.69C62.9199 81.84 63.6199 81.81 64.1799 81.67C64.2999 81.64 64.4199 81.59 64.5199 81.55C64.8999 81.41 65.0499 81.52 65.4099 81.86L65.6599 82.08C65.7899 82.21 65.8499 82.36 65.8099 82.56C65.7799 82.75 65.6499 83.01 65.3899 83.17C64.6099 83.66 63.7199 83.72 62.9399 83.66C62.1499 83.6 61.4099 83.39 60.7199 83.14C59.6799 82.78 58.7599 82.22 57.8499 81.7L57.8699 81.66V81.67Z" fill="#231F20"/>
<path d="M54.02 35.17C54.76 33.87 55.55 32.6 56.38 31.37C56.68 30.92 56.95 30.44 57.28 30.01C58.45 28.48 59.73 27.03 61.16 25.71C61.8 25.13 62.43 24.53 63.15 24.01C63.63 23.69 64.11 23.36 64.69 23.16C64.97 23.04 65.29 22.98 65.59 22.94C65.92 22.94 66.24 22.94 66.55 23.06C66.95 23.18 66.78 23.5 66.49 23.86C66.18 24.17 65.91 24.77 65.53 24.92C64.08 25.7 62.54 27.12 61.04 28.57C60.13 29.45 59.44 30.6 58.72 31.67C57.91 32.85 57.13 34.07 56.41 35.32C55.97 36.09 55.53 36.87 55.14 37.67C54.54 38.88 53.96 40.11 53.54 41.37C53.21 42.35 53.05 43.37 52.87 44.37L52.78 45.03C52.62 45.84 52.45 46.06 51.86 46.14C51.73 46.16 51.59 46.19 51.46 46.19C51.01 46.2 50.72 45.79 50.71 45.11C50.73 43.12 51.3 41.13 52.05 39.24C52.61 37.83 53.28 36.48 53.98 35.14L54.03 35.16L54.02 35.17Z" fill="#231F20"/>
<path d="M39.5201 55.39C40.2401 54.33 40.9802 53.29 41.7402 52.27C42.0202 51.9 42.2502 51.49 42.5402 51.13C43.5501 49.83 44.6402 48.6 45.7501 47.39C46.2401 46.85 46.7401 46.31 47.2301 45.78C47.8701 45.11 48.4502 44.33 49.3802 43.97C49.6502 43.84 49.7701 44.06 49.7801 44.45C49.7801 44.65 49.7801 44.89 49.7301 45.14C49.7001 45.41 49.6001 45.64 49.4201 45.82C48.1701 47.11 46.9901 48.49 45.6601 49.8C44.8701 50.6 44.2501 51.58 43.5701 52.5C42.8301 53.52 42.1002 54.54 41.4002 55.59C40.9702 56.23 40.5401 56.88 40.1401 57.54C39.5201 58.54 38.9102 59.55 38.3802 60.59C37.9802 61.4 37.6701 62.24 37.3501 63.08L37.1502 63.63C36.8702 64.31 36.6702 64.47 36.2002 64.44C36.0902 64.44 35.9802 64.44 35.8802 64.41C35.5402 64.34 35.4002 63.95 35.5402 63.4C35.9402 61.78 36.6702 60.21 37.4902 58.68C38.1102 57.55 38.8002 56.46 39.4902 55.37L39.5301 55.39H39.5201Z" fill="#231F20"/>
<path d="M89.6902 55.18C89.0702 54.47 88.4402 53.77 87.8002 53.08C87.5602 52.84 87.3202 52.6 87.0702 52.35C86.2402 51.47 85.4502 50.55 84.5902 49.7C84.2102 49.33 83.8002 48.98 83.3902 48.67C83.2602 48.57 83.1202 48.48 82.9902 48.4C82.9302 48.36 82.8602 48.32 82.8102 48.3C82.7802 48.27 82.7702 48.31 82.7702 48.26C82.8102 48.09 82.7702 48 82.7702 48.01C82.7702 48.01 82.8402 48.05 82.8702 48.04C82.9202 48.04 83.0802 48.04 83.0402 48.04C83.0402 48.03 83.0402 48.08 83.0402 48.1C83.0602 48.16 83.0802 48.23 83.1102 48.3C83.1702 48.45 83.2302 48.59 83.2902 48.76C83.3702 48.96 83.2102 49.03 82.9502 48.97C82.8202 48.94 82.6702 48.88 82.5102 48.77C82.3602 48.63 82.2002 48.57 82.1002 48.14C82.1002 48.07 82.0802 48.05 82.1002 47.93C82.1302 47.79 82.1402 47.7 82.2702 47.55C82.3302 47.48 82.4202 47.42 82.5002 47.38C82.5802 47.34 82.6102 47.34 82.6702 47.33C82.7902 47.31 82.8902 47.33 82.9302 47.33C83.0502 47.35 83.1302 47.38 83.1902 47.4C83.2602 47.42 83.3102 47.45 83.3702 47.47C83.5802 47.56 83.7402 47.66 83.9002 47.77C84.2202 47.98 84.5102 48.2 84.7902 48.42C85.3502 48.87 85.8702 49.36 86.3602 49.88C86.9502 50.5 87.6302 51.07 88.2402 51.68C88.9102 52.36 89.5702 53.05 90.2302 53.74L91.4302 55.03C92.0302 55.68 92.6202 56.36 93.2402 56.99C93.7202 57.48 94.2402 57.91 94.7402 58.39C94.8502 58.5 94.9702 58.59 95.0702 58.71C95.1702 58.82 95.2402 58.92 95.3002 59.02C95.3302 59.07 95.3502 59.12 95.3802 59.18L95.4202 59.3L95.4502 59.39V59.44C95.4802 59.52 95.4802 59.63 95.4402 59.74C95.4002 59.85 95.3302 59.93 95.2702 59.99C95.2202 60.03 95.1602 60.06 95.0902 60.08C94.9702 60.13 94.7802 60.09 94.7502 60.08C94.7202 60.06 94.6902 60.03 94.6602 60.01C94.6002 59.96 94.6102 59.93 94.5902 59.89C94.5702 59.81 94.5902 59.73 94.6102 59.64C94.6302 59.56 94.6502 59.47 94.6802 59.4C94.7402 59.28 94.8502 59.21 94.9802 59.18C95.0102 59.18 95.0402 59.16 95.0702 59.15C95.0802 59.15 95.1102 59.14 95.0802 59.14C95.0402 59.21 95.0102 59.28 94.9802 59.36C94.9602 59.45 94.9302 59.52 94.9102 59.54C94.9002 59.59 94.9502 59.61 94.8902 59.59C94.8702 59.59 94.8702 59.61 94.8402 59.61C94.8002 59.61 94.7602 59.63 94.7202 59.64C94.6402 59.67 94.5702 59.71 94.5002 59.76C94.3702 59.84 94.3902 59.81 94.3902 59.82C94.3702 59.82 94.3402 59.8 94.3102 59.77C93.4402 59.07 92.4802 58.17 91.6002 57.28C90.9402 56.6 90.2702 55.93 89.6302 55.23L89.6502 55.2L89.6902 55.18Z" fill="#231F20"/>
<path d="M110.88 112.7C110.88 112.7 124.31 113.61 124.3 111.74C124.3 110.91 118.53 109.73 118.53 109.73L110.87 112.7H110.88Z" fill="#231F20"/>
<path d="M9.06999 107.79C9.11999 107.25 2.03 109.23 4.07 110.19C8.45 112.25 20.12 110.64 20.12 110.64L11.56 109.55L9.06999 107.8V107.79Z" fill="#231F20"/>
<path d="M27.3501 109.57C27.3501 109.57 30.7201 110.95 35.8701 110.48C37.9701 110.29 41.4901 110.03 54.1101 109.73C56.2201 109.68 60.4401 109.73 63.0101 109.73C64.2501 109.73 67.7601 110.12 70.6001 110.33C83.8801 111.32 106.35 112.96 106.35 112.24C106.35 111.68 92.2301 109.63 80.0101 107.05C68.7001 104.66 59.2201 101.68 59.2201 101.68L27.3501 109.57Z" fill="#231F20"/>
<path d="M29.7599 88.39C29.5299 88.49 29.2799 88.6 29.0699 88.75C28.9899 88.8 28.9599 88.89 28.8799 88.94C28.5899 89.12 28.3099 89.35 28.0599 89.63C27.9499 89.76 27.8999 89.91 27.8699 90.06C27.8499 90.16 27.8699 90.27 27.7999 90.36C27.7799 90.41 27.7399 90.46 27.6999 90.5C27.6799 90.52 27.6599 90.54 27.6299 90.57C27.5999 90.59 27.5099 90.61 27.4599 90.63C27.2899 90.68 27.2099 90.67 26.9399 90.57C26.6099 90.47 26.2099 90.29 26.1399 90.12C26.0599 89.96 26.0699 89.81 26.0799 89.67C26.0799 89.52 26.1199 89.38 26.1599 89.23C26.2399 88.94 26.3799 88.67 26.6299 88.46C26.9099 88.21 27.0099 87.86 27.2399 87.59C27.4999 87.3 27.8099 87.06 28.1099 86.86C28.2999 86.73 28.4999 86.62 28.6799 86.5C28.9699 86.33 29.2699 86.2 29.5299 86.01C29.7299 85.86 29.8599 85.59 30.0699 85.45C30.1099 85.41 30.1499 85.36 30.1999 85.34C30.3799 85.25 30.5099 85.37 30.7699 85.83L30.9399 86.14C31.1099 86.48 31.1899 86.84 31.1499 87.04C31.0699 87.31 30.9999 87.58 30.8799 87.73C30.7599 87.87 30.5999 87.97 30.4599 88.06C30.2399 88.18 30.0099 88.3 29.7899 88.43L29.7499 88.39H29.7599Z" fill="#231F20"/>
<path d="M104.48 88.92C104.68 89.26 104.88 89.6 105.04 89.95C105.1 90.07 105.2 90.17 105.25 90.3C105.43 90.77 105.54 91.24 105.67 91.68C105.72 91.88 105.83 92.04 105.89 92.23C105.99 92.46 106.11 92.68 106.05 92.98C106.03 93.07 105.8 93.16 105.53 93.21C105.26 93.26 104.92 93.29 104.81 93.2C104.63 93.03 104.4 92.88 104.31 92.68C104.21 92.48 104.14 92.26 104.1 92.02C104.06 91.73 103.81 91.55 103.65 91.34C103.48 91.1 103.32 90.84 103.13 90.6C103.02 90.45 102.9 90.3 102.77 90.16C102.57 89.96 102.37 89.73 102.11 89.59C101.92 89.47 101.65 89.47 101.43 89.39C101.39 89.36 101.34 89.35 101.31 89.31C101.24 89.25 101.23 89.15 101.27 89.01C101.3 88.88 101.36 88.74 101.44 88.56L101.55 88.33C101.67 88.1 101.89 87.9 102.17 87.73C102.34 87.68 102.51 87.62 102.67 87.59C102.81 87.59 102.94 87.61 103.07 87.64C103.2 87.67 103.32 87.71 103.44 87.77C103.54 87.84 103.64 87.92 103.74 88.01C104.03 88.26 104.27 88.58 104.51 88.89L104.47 88.93L104.48 88.92Z" fill="#231F20"/>
<path d="M99.36 89.74C99.49 90 99.63 90.25 99.76 90.5C99.81 90.59 99.9 90.65 99.94 90.74C100.1 91.08 100.22 91.44 100.35 91.78C100.4 91.93 100.5 92.05 100.59 92.17C100.71 92.32 100.88 92.45 100.84 92.7C100.82 92.85 99.66 93.38 99.49 93.27C99.22 93.03 98.98 92.81 98.94 92.41C98.9 92.17 98.69 92.07 98.56 91.91C98.41 91.72 98.26 91.53 98.12 91.34C98.03 91.22 97.93 91.1 97.82 90.98C97.66 90.81 97.52 90.61 97.31 90.48C97.15 90.38 96.89 90.39 96.7 90.32C96.66 90.31 96.6 90.31 96.56 90.29C96.43 90.21 96.5 90.06 96.88 89.61L97.15 89.3C97.46 88.96 97.76 88.73 97.94 88.7C98.47 88.59 98.72 88.79 98.94 89.05C99.1 89.24 99.24 89.48 99.4 89.7L99.37 89.74H99.36Z" fill="#231F20"/>
<path d="M93.3501 88.78C95.4301 88.32 97.5301 87.91 99.6701 87.62C100.45 87.51 101.23 87.37 102.04 87.33C103.45 87.27 104.89 87.27 106.37 87.63C107.1 87.81 107.84 88.08 108.52 88.51C108.69 88.59 108.87 88.73 109.04 88.88L109.45 89.27C109.7 89.53 109.94 89.78 110.18 90.04C110.99 90.98 111.77 91.94 112.49 92.95C112.95 93.6 113.4 94.27 113.73 95.04C114.07 95.78 114.33 96.74 113.89 97.67C113.4 98.16 113.51 97.96 113.23 97.51C113.1 97.3 112.88 97.06 112.65 96.85C112.39 96.63 112.15 96.4 112.02 96.07C111.43 94.9 110.49 93.72 109.54 92.6C109.06 92.05 108.57 91.5 108.09 90.95L107.74 90.58C107.64 90.48 107.6 90.42 107.45 90.34C107.2 90.18 106.97 89.99 106.65 89.89C105.19 89.24 103.24 89.39 101.41 89.58C99.3701 89.79 97.3101 90.17 95.2601 90.61C94.0001 90.88 92.7401 91.19 91.4801 91.52C89.5801 92.03 87.6701 92.54 85.8201 93.16C84.3801 93.64 83.0101 94.25 81.6101 94.8C81.3001 94.92 81.0101 95.07 80.6901 95.18C79.5201 95.57 79.0701 95.49 78.6501 95.06C78.5501 94.96 78.4401 94.87 78.3701 94.76C78.1301 94.41 78.5001 93.91 79.3001 93.43C81.7201 92.15 84.4201 91.27 87.1601 90.42C89.1901 89.79 91.2701 89.26 93.3501 88.73L93.3701 88.78H93.3501Z" fill="#231F20"/>
<path d="M95.3299 95.18C97.3899 95.61 99.4399 96.06 101.49 96.55C102.24 96.72 103 96.85 103.74 97.03C106.37 97.69 108.98 98.41 111.58 99.21C112.73 99.57 113.91 99.88 115.05 100.27C115.78 100.52 116.52 100.79 117.24 101.12C117.96 101.45 118.67 101.89 119.19 102.59C119.38 103.16 119.34 103.03 118.82 103.03C118.57 103.03 118.24 103.03 117.9 103.01C117.51 103.03 117.15 102.97 116.76 102.82C113.99 101.87 111.02 100.99 108.06 100.03C106.28 99.46 104.36 99.13 102.49 98.72L96.3099 97.37L92.4999 96.58C90.5699 96.2 88.6299 95.81 86.6999 95.5C85.1999 95.26 83.7099 95.14 82.2199 94.95C81.8899 94.9 81.5699 94.87 81.2399 94.8C80.0199 94.57 79.6599 94.33 79.4799 93.88C79.4399 93.77 79.3799 93.67 79.3599 93.57C79.2999 93.24 79.8499 93.05 80.7599 93.05C81.4399 93.07 82.1199 93.09 82.8099 93.13C83.4999 93.19 84.1899 93.27 84.8799 93.36C86.2699 93.54 87.6699 93.76 89.0699 93.99C91.1499 94.34 93.2399 94.74 95.3199 95.14V95.19L95.3299 95.18Z" fill="#231F20"/>
<path d="M93.4101 108.91C95.6101 109.3 97.8201 109.66 100.02 109.95C101.12 110.09 102.22 110.23 103.3 110.3L104.29 110.35C104.35 110.35 104.42 110.35 104.47 110.31C104.49 110.26 104.47 110.19 104.47 110.13V110.01L104.52 109.47C104.77 107.41 105.83 105.48 107.35 104.2C110.02 101.88 113.62 101.12 116.9 101.59C117.85 101.72 118.85 102.19 119.5 102.95C120.17 103.7 120.5 104.64 120.61 105.55C120.83 107.37 120.17 109.19 118.94 110.49C118.39 111.04 117.69 111.53 117.02 111.82C116.35 112.13 115.67 112.38 114.97 112.58C113.57 112.94 112.11 113.25 110.52 112.87C110.02 112.75 109.48 112.52 109.02 112.1C108.54 111.7 108.27 111.08 108.17 110.5C107.98 109.26 108.67 108.12 109.45 107.49C110.25 106.82 111.17 106.41 112.16 106.23C112.65 106.12 113.17 106.14 113.68 106.23C114.18 106.36 114.73 106.51 115.1 106.94C115.34 107.19 115.4 107.44 115.45 107.58C115.49 107.72 115.49 107.79 115.45 107.8C115.37 107.85 115.17 107.58 114.7 107.51C114.25 107.44 113.69 107.48 113.08 107.77C112.48 108.01 111.8 108.35 111.19 108.78C110.63 109.15 110.32 109.68 110.32 109.97C110.29 110.05 110.36 110.11 110.33 110.19C110.39 110.24 110.37 110.34 110.42 110.36C110.46 110.45 110.57 110.51 110.77 110.59C111.2 110.75 111.94 110.79 112.68 110.72C113.43 110.65 114.22 110.47 114.97 110.22C115.72 109.98 116.48 109.64 116.94 109.29C117.46 108.91 117.87 108.38 118.13 107.76C118.67 106.54 118.57 104.92 117.74 104.18C117.61 104.09 117.5 103.95 117.33 103.9C117.19 103.81 117.01 103.76 116.83 103.72C116.68 103.66 116.38 103.65 116.15 103.63C115.9 103.61 115.65 103.57 115.4 103.58C114.4 103.55 113.4 103.69 112.44 103.94C110.54 104.49 108.76 105.61 107.71 107.19C107.36 107.68 107.12 108.21 106.92 108.77C106.85 109.05 106.77 109.34 106.72 109.62L106.68 110.06V110.17C106.65 110.31 106.66 110.34 106.66 110.43L106.68 110.86L106.53 111.76C106.53 111.92 106.42 112.03 106.3 112.13C106.18 112.23 106.05 112.3 105.91 112.35C105.36 112.58 104.55 112.57 103.96 112.56C103.05 112.53 102.18 112.44 101.31 112.34C99.5701 112.14 97.8501 111.88 96.1401 111.61C93.1901 111.13 90.2501 110.58 87.3201 110.02C82.8801 109.16 78.4501 108.18 74.0701 107.2C70.6701 106.44 67.3101 105.76 63.9601 104.88C63.2201 104.69 62.4901 104.51 61.7601 104.28C59.0201 103.44 58.2401 102.86 57.8401 102.2C57.7501 102.04 57.6201 101.87 57.5901 101.74C57.4801 101.3 58.6501 101.45 60.6401 101.91C66.5301 103.4 72.8301 104.81 79.1701 106.14C83.8801 107.12 88.6301 108.06 93.3801 108.85V108.91H93.4101Z" fill="#231F20"/>
<path d="M34.6601 63.43C36.0701 60.01 37.8701 56.84 39.7901 53.77C40.5001 52.66 41.1701 51.52 41.9201 50.44C42.9001 49.04 43.9101 47.66 44.9501 46.32L46.5301 44.31C47.3101 43.36 48.0701 42.38 48.9201 41.4L49.3401 40.96L49.5501 40.74L49.6901 40.7L50.2601 40.54L50.4001 40.5C50.5001 40.21 50.2701 40.9 50.2901 40.82L50.3001 40.84L50.3201 40.87L50.3501 40.93L50.4801 41.15C50.5701 41.3 50.6901 41.45 50.8401 41.63C51.0101 42.1 50.9501 43.03 50.9701 43.8V45.93C50.9701 46.94 51.0101 47.95 51.0701 48.94C51.1401 50.22 51.3001 51.49 51.4601 52.74C51.6201 53.97 51.9101 55.26 52.4601 56.08C52.6801 56.3 52.8801 56.29 52.8701 56.35C52.8701 56.38 52.7001 56.52 52.2801 56.47C51.8801 56.42 51.2301 56.11 50.8401 55.54C50.4201 54.99 50.0701 54.3 49.8401 53.54C49.4701 52.34 49.2701 51.14 49.1301 49.94C48.9801 48.74 48.8801 47.55 48.8101 46.36L48.7701 45.55L48.7901 45.5C48.7901 45.5 48.8201 45.4 48.8401 45.32L48.8701 45.17C48.8701 45.17 48.9001 45.01 48.8701 45.04C48.8401 45.04 48.8001 45.04 48.7301 45.08C48.6901 45.1 48.6701 45.11 48.6101 45.16L48.3801 45.37L48.2201 45.53L47.8601 45.97L47.1101 46.91C46.6301 47.55 46.1401 48.2 45.6701 48.87C44.7301 50.19 43.8301 51.56 42.9401 52.91C40.9801 55.88 39.1801 58.95 37.6701 62.15C36.7701 64.12 35.9601 66.17 35.4901 68.22C34.8501 71.32 35.2001 74.7 36.2501 77.74C37.0701 80.11 38.3501 82.26 39.9401 84.09C40.2801 84.5 40.6501 84.87 41.0301 85.24C42.4301 86.63 42.8701 87.02 42.8501 87.83C42.8501 88.01 42.8701 88.21 42.8501 88.37C42.8001 88.64 42.5401 88.73 42.1101 88.64C41.6801 88.55 41.0601 88.3 40.4101 87.78C38.4401 86.29 36.8201 84.29 35.6101 82.06C34.4001 79.83 33.5501 77.36 33.1101 74.8C32.8001 72.9 32.7201 70.93 32.9801 68.96C33.0301 68.47 33.1301 67.98 33.2501 67.49C33.3501 66.99 33.4901 66.53 33.6301 66.08C33.9001 65.17 34.2301 64.29 34.5601 63.41L34.6201 63.43H34.6601Z" fill="#231F20"/>
<path d="M32.86 87.91C30.86 87.51 28.86 87.15 26.84 86.86C26.1 86.75 25.36 86.73 24.63 86.63L23.67 86.51L23.21 86.46C23.14 86.45 23.06 86.46 23 86.43C22.98 86.47 22.96 86.45 22.94 86.46C22.75 86.45 22.19 86.71 21.75 87.06C20.8 87.74 19.92 88.68 19.16 89.68C18.49 90.58 17.93 91.58 17.54 92.61C17.27 93.27 17.1 93.94 16.95 94.61C16.86 95.28 16.77 95.89 16.63 96.59C16.53 97.05 16.46 97.07 16.04 96.77C15.84 96.62 15.42 96.36 15.23 95.98C15.12 95.79 14.98 95.56 14.91 95.32C14.87 95.09 14.85 94.84 14.86 94.58C15 92.77 15.6 91.18 16.43 89.74C17.26 88.3 18.27 86.99 19.57 85.87C19.76 85.7 19.96 85.53 20.18 85.37C20.4 85.21 20.58 85.04 20.84 84.89C21.1 84.74 21.29 84.58 21.61 84.45C21.91 84.32 22.18 84.18 22.63 84.13C23.1 84.05 23.3 84.1 23.57 84.11L24.3 84.16C24.78 84.2 25.26 84.24 25.73 84.31C27.81 84.57 29.88 84.91 31.94 85.29C33.21 85.52 34.47 85.78 35.73 86.04C37.64 86.42 39.54 86.92 41.43 87.36C42.89 87.73 44.38 87.93 45.82 88.38C46.14 88.48 46.46 88.56 46.77 88.67C47.93 89.14 48.23 89.46 48.25 90.07C48.25 90.21 48.28 90.36 48.25 90.48C48.18 90.91 47.58 91.06 46.72 90.9C44.14 90.52 41.56 89.8 38.88 89.21C36.9 88.77 34.89 88.33 32.87 87.98V87.92L32.86 87.91Z" fill="#231F20"/>
<path d="M71.0499 79.43L70.8899 78.95L70.7499 78.56C70.7499 78.56 70.7299 78.47 70.7099 78.42C70.6899 78.37 70.6699 78.31 70.6199 78.28C70.5599 78.25 70.5399 78.32 70.4999 78.35C70.4499 78.4 70.4399 78.41 70.3599 78.51C70.1499 78.81 69.9399 79.12 69.7099 79.43C69.2599 80.04 68.7899 80.64 68.2299 81.21C67.8299 81.63 67.3999 82.04 66.8899 82.42C66.3499 82.79 65.8199 83.09 64.8199 83.29C64.6499 83.33 64.4899 83.23 64.3199 83.2L63.8899 83.07C63.6899 83.01 63.4899 82.93 63.2899 82.86C62.8899 82.72 62.5099 82.56 62.1299 82.39C61.3699 82.06 60.6399 81.69 59.9299 81.29C59.2199 80.9 58.5299 80.48 57.8499 80.06L56.9399 79.49L56.4999 79.19L56.1699 78.98C56.0699 78.91 55.8899 78.77 55.8999 78.97C55.8599 79.33 55.9299 79.73 55.9999 80.12C56.0199 80.17 56.0599 80.43 56.0999 80.61L56.2399 81.19C56.3399 81.57 56.4499 81.95 56.5699 82.32C57.2199 84.23 58.2199 85.93 59.5999 87.28C60.0499 87.69 59.9599 87.81 59.2999 87.81C58.6499 87.83 57.3499 87.45 56.4899 86.36C55.3499 84.85 54.6399 83.16 54.1499 81.43L53.9799 80.78L53.8699 80.28C53.8199 80.08 53.7999 79.87 53.7599 79.67C53.6399 78.87 53.5599 78.05 53.6699 77.43C53.7999 76.82 54.0299 76.52 54.4499 76.28C54.6399 76.24 54.7799 76.14 54.9999 76.15C55.2899 76.24 55.5699 76.28 55.8699 76.42C56.5999 76.85 57.3199 77.29 58.0499 77.73L59.1999 78.48C60.2599 79.17 61.3899 79.78 62.5499 80.27C63.1299 80.51 63.7199 80.72 64.3199 80.9L64.6499 80.99C64.6499 80.99 64.7499 81.01 64.7999 80.99C64.8499 80.99 65.1399 80.86 65.3399 80.74C66.3299 80.18 67.2699 79.09 68.1099 77.99L68.4199 77.57L68.7999 77.02C69.1299 76.54 69.4699 76.1 69.8199 75.82L70.3199 75.49L70.3999 75.45C70.3999 75.45 70.4299 75.45 70.4399 75.42H70.4799C70.5399 75.44 70.5999 75.44 70.6599 75.46C70.7699 75.49 70.8799 75.53 70.9799 75.57C71.3699 75.77 71.6899 76.14 71.9799 76.59C72.3099 77.12 72.6299 77.9 72.7499 78.24C72.9099 78.68 73.0499 79.11 73.1899 79.55C73.4599 80.42 73.6899 81.29 73.9199 82.16L74.1799 83.14C74.2299 83.31 74.2399 83.52 74.4199 83.6C74.5899 83.69 74.7299 83.73 74.9699 83.73C75.2399 83.73 75.5399 83.7 75.8499 83.64C76.4599 83.53 77.0899 83.34 77.7199 83.13C78.3699 82.93 78.8899 82.7 79.9299 82.45C80.2899 82.36 80.6299 82.34 80.9499 82.35C81.2699 82.37 81.6099 82.43 81.8099 82.71C82.1699 83.24 82.1699 83.94 82.0499 84.69C82.0099 84.88 81.9799 85.06 81.9199 85.25C81.8699 85.45 81.8199 85.62 81.7799 85.74C81.6999 86.01 81.5999 86.27 81.4899 86.53C81.2799 87.05 81.0199 87.55 80.7299 88.03C80.4699 88.45 80.1999 88.87 79.8699 89.25C78.5799 90.64 77.8499 90.76 77.2499 90.46C77.1099 90.39 76.9499 90.32 76.8399 90.23C76.4899 89.89 76.9099 89.3 77.6299 88.49C78.1599 87.87 78.6299 87.2 79.0199 86.48C79.2099 86.12 79.3899 85.74 79.5299 85.37C79.5999 85.19 79.6699 84.98 79.7199 84.81C79.7199 84.78 79.7199 84.77 79.7099 84.76C79.6899 84.71 79.6399 84.73 79.6199 84.76L78.9699 84.98C78.5099 85.13 78.0299 85.29 77.5299 85.43C76.7699 85.64 75.9999 85.85 74.9799 85.86C74.7699 85.88 74.3099 85.8 73.9899 85.73C73.8199 85.69 73.6699 85.59 73.5099 85.52C73.3499 85.45 73.1899 85.38 73.0599 85.26C72.9299 85.15 72.7799 85.05 72.6599 84.93C72.5699 84.79 72.4699 84.65 72.3899 84.5C72.3299 84.33 72.2699 84.17 72.2199 83.99L72.1099 83.59C71.7499 82.17 71.4199 80.79 70.9799 79.48L71.0299 79.46L71.0499 79.43Z" fill="#231F20"/>
<path d="M92.3602 54.48C94.0702 56.83 95.7702 59.24 97.2302 61.85C97.7502 62.81 98.3102 63.75 98.7302 64.77C100.28 68.31 100.79 72.49 99.8102 76.24C99.3802 77.9 98.7102 79.5 97.8502 80.95C96.7602 82.81 95.2702 84.46 93.4902 85.63C92.9402 86 92.9702 85.88 93.2902 85.41C93.6202 84.94 94.1702 84.06 94.8502 83.12C96.0902 81.47 96.9502 79.6 97.4802 77.69C97.9502 75.76 98.3402 73.82 98.2302 71.8C98.2102 70.6 97.9502 69.39 97.5302 68.21C97.1702 67.01 96.6102 65.86 96.0702 64.71C94.8302 62.21 93.2302 59.84 91.5202 57.53C90.4602 56.11 89.3702 54.7 88.2602 53.3L86.4502 50.95L86.0102 50.35L85.7302 49.95L85.2502 49.27C85.0102 48.92 84.7802 48.58 84.5402 48.24C84.5202 48.18 84.4902 48.24 84.5002 48.28V48.4V48.64L84.5302 49.12C84.5502 49.44 84.5702 49.75 84.5702 50.03V50.13V50.18V50.2V50.21C84.5702 50.21 84.5702 50.21 84.5002 50.28L84.4302 50.35L84.3902 50.38L84.3702 50.4C84.4602 50.58 83.5702 48.9 83.9502 49.61C83.9902 49.7 84.0402 49.76 84.1202 49.81C84.2602 49.9 84.4602 49.91 84.6402 49.84C84.9002 49.89 84.7702 49.88 84.8002 49.88V49.92L84.7802 50.07L84.7202 50.82L84.5702 52.38C84.5302 52.85 84.5002 53.31 84.4202 53.78C84.1202 55.54 83.6102 56.17 82.8702 56.21C82.7002 56.21 82.5202 56.24 82.3802 56.19C81.9202 55.98 81.9002 55.44 82.0402 54.32C82.1502 53.53 82.2002 52.69 82.2602 51.83C82.2802 50.28 82.3102 48.72 82.3302 47.14C82.2802 46.39 82.3302 45.81 82.4802 45.52C82.6102 45.2 82.6902 44.87 82.8102 44.71C83.0402 44.37 83.2702 44.37 83.4502 44.38H83.5902C83.5902 44.38 83.7602 44.38 83.8302 44.39L84.3402 44.42L84.8502 44.45C84.8502 44.45 84.8902 44.45 84.9202 44.46L85.0202 44.56L85.2202 44.76L85.6302 45.17C85.8802 45.53 86.1302 45.89 86.3802 46.26C86.8102 46.88 87.2202 47.5 87.6602 48.09L88.4802 49.21L89.7702 50.94L92.4102 54.42L92.3602 54.46V54.48Z" fill="#231F20"/>
<path d="M67.0799 31.33C66.8699 30.85 66.6999 30.35 66.5199 29.86C66.3499 29.36 66.1299 28.88 66.0299 28.36L65.6599 26.82C65.5999 26.56 65.5299 26.31 65.5099 26.04L65.4699 25.65C65.4599 25.54 65.4699 25.57 65.4699 25.52C65.4699 25.4 65.4699 25.31 65.4699 25.22C65.4699 25.08 65.3299 25.13 65.2599 25.15C65.2099 25.15 65.1699 25.17 65.1199 25.19C65.0499 25.22 65.1199 25.17 64.8599 25.29C64.4699 25.49 64.0899 25.7 63.7199 25.93C62.6099 26.59 61.6599 27.52 60.7299 28.47C57.4499 31.88 55.2099 36.43 53.7199 41.12C53.0599 43.21 52.6499 45.39 52.4399 47.55C52.2099 50.33 52.3199 53.11 53.0099 55.71C53.1599 56.56 53.1499 56.52 52.4399 56.02C52.1099 55.76 51.5899 55.34 51.2599 54.7C50.8899 54.08 50.5999 53.29 50.4399 52.42C49.9199 49.33 50.2099 46.27 50.7499 43.29C51.3099 40.31 52.2299 37.4 53.6399 34.68C55.2899 31.45 57.1599 28.07 60.0099 25.45C60.7899 24.74 61.6499 24.09 62.5599 23.53C63.0599 23.27 63.4399 23.02 64.0599 22.78C64.4399 22.61 64.8099 22.45 65.1699 22.36L66.1899 22.21C67.8499 21.79 67.8599 23.88 68.0099 25.26C68.0399 25.49 68.0399 25.73 68.0799 25.96L68.2299 26.65L68.5299 28.03C69.1799 30.26 70.2599 32.37 71.5499 34.36C73.5399 37.37 75.9299 40.2 78.1799 43.13C79.9299 45.41 81.6499 47.74 82.8199 50.47C82.9599 50.77 83.0899 51.06 83.2199 51.35C83.3199 51.66 83.4199 51.97 83.5199 52.28C83.6899 52.87 83.8299 53.36 83.9099 53.78C83.9499 54.21 83.9499 54.56 83.9199 54.85C83.8699 55.43 83.6999 55.78 83.3999 56.06C83.2599 56.19 83.1399 56.35 82.9899 56.43C82.5199 56.68 81.9299 55.81 81.4899 54.3C79.9599 49.82 77.0099 45.84 73.7099 41.67C71.2899 38.59 68.7599 35.26 67.0399 31.38L67.0899 31.35L67.0799 31.33Z" fill="#231F20"/>
<path d="M25.1399 92.65C29.8199 91.54 34.52 90.68 39.2199 89.9C40.9399 89.61 42.65 89.29 44.36 89.03C50.43 88.17 56.5099 87.47 62.6199 86.93L64.6699 86.76C65.41 86.7 66.0999 86.74 66.8099 86.76C68.2099 86.85 69.62 87.04 70.98 87.39C72.72 87.86 74.4599 88.54 75.9699 89.61C77.4599 90.69 78.7299 92.15 79.3699 93.88C79.4599 94.48 79.46 94.73 79.41 94.73C79.35 94.74 79.2 94.51 78.7999 94.22C78.3699 93.95 77.8799 93.54 77.2099 93.17C76.5499 92.79 75.8099 92.38 75.0599 91.91C74.3899 91.5 73.6999 91.13 72.9999 90.76C72.2899 90.42 71.5499 90.11 70.7799 89.88C69.25 89.4 67.6299 89.15 65.9899 89.09C65.57 89.06 65.1899 89.07 64.8099 89.09L63.5299 89.18L60.91 89.39C59.15 89.54 57.3899 89.7 55.63 89.85C51.4 90.22 47.0499 90.98 42.77 91.67C38.06 92.43 33.3699 93.25 28.7199 94.27C27.2899 94.59 25.8599 94.9 24.4499 95.28C23.0299 95.62 21.6299 96.03 20.2399 96.46C19.1699 96.75 18.1599 97.17 17.1199 97.52C16.0799 97.87 15.1799 98.34 14.2899 98.93C13.4099 99.52 12.5899 100.21 11.8899 100.98C11.2099 101.76 10.5999 102.61 10.4599 103.52C10.3999 103.89 10.3099 104.26 10.3599 104.62C10.3799 104.79 10.3499 104.98 10.4099 105.15L10.5599 105.64C10.8399 106.25 11.2399 106.83 11.8799 107.21C13.0699 108.05 14.6899 108.36 16.2499 108.48C16.9499 108.54 17.6399 108.5 18.3499 108.48C19.6699 108.42 20.5299 108.29 21.1499 108.29C21.7799 108.31 22.1599 108.38 22.5299 108.6C22.6999 108.7 22.9099 108.78 23.0299 108.89C23.2299 109.07 23.0799 109.33 22.6199 109.64C22.1599 109.96 21.3699 110.3 20.2999 110.51C18.7199 110.82 17.0599 110.94 15.3599 110.78C13.6699 110.59 11.8699 110.18 10.2299 108.94C9.80995 108.67 9.45995 108.23 9.09995 107.83C8.92995 107.62 8.79995 107.36 8.65995 107.12C8.51995 106.87 8.37995 106.63 8.30995 106.35C8.22995 106.08 8.14995 105.81 8.07995 105.53C8.00995 105.26 8.02995 104.99 8.00995 104.71C7.95995 104.15 8.03995 103.65 8.13995 103.14C8.19995 102.66 8.39995 102.07 8.61995 101.61C8.83995 101.13 9.10995 100.72 9.38995 100.32C9.94995 99.54 10.5799 98.88 11.2499 98.28C12.2499 97.39 13.3299 96.63 14.5299 96C15.7999 95.35 16.9299 95.05 18.0999 94.6C19.2699 94.19 20.4399 93.88 21.6099 93.51L25.1399 92.57L25.1599 92.63L25.1399 92.65Z" fill="#231F20"/>
<path d="M46.9598 105.57C42.5398 106.7 38.1198 107.82 33.6498 108.85L31.1998 109.42L30.5798 109.56L29.8698 109.71C29.1998 109.84 28.4198 109.99 27.8098 109.95C27.3198 109.89 26.8798 109.78 26.6898 109.4L26.5098 108.89C26.4898 108.66 26.5398 108.33 26.5498 108.06C26.6398 107.76 26.6498 107.51 26.6898 107.24L26.7498 106.84C26.7698 106.71 26.7498 106.69 26.7498 106.61C26.7598 106.34 26.7298 106.09 26.7098 105.83C26.6298 105.32 26.4598 104.84 26.2098 104.39C25.7098 103.49 24.8198 102.76 23.7898 102.2C23.5298 102.07 23.2698 101.93 22.9898 101.81L22.5798 101.63L22.2098 101.51C21.6898 101.36 21.0998 101.29 20.5198 101.28C19.3498 101.25 18.1398 101.43 17.0698 101.86C16.5398 102.08 16.0198 102.35 15.5998 102.72C15.4798 102.8 15.3798 102.9 15.2898 103C15.2398 103.05 15.1798 103.1 15.1298 103.16C15.0498 103.29 14.8898 103.4 14.9298 103.57C14.9598 103.73 15.0798 103.85 15.1898 103.95C15.3098 104.05 15.4098 104.12 15.6898 104.3C16.1798 104.6 16.7298 104.84 17.2898 105.03C17.9598 105.25 18.6498 105.39 19.3198 105.42C19.4898 105.42 19.6498 105.42 19.8098 105.42C19.9598 105.42 20.1698 105.39 20.1998 105.37C20.3598 105.34 20.4998 105.28 20.6298 105.2C20.6998 105.15 20.7798 105.1 20.8198 105.02C20.8598 104.94 20.8198 104.84 20.7798 104.77C20.6798 104.62 20.5398 104.52 20.3898 104.42L20.2698 104.35L20.0198 104.21C19.8498 104.12 19.6598 104.03 19.4798 103.96C19.1098 103.8 18.7198 103.71 18.3398 103.62C17.4798 103.46 17.4298 103.21 18.3698 102.77C18.8498 102.58 19.5798 102.49 20.4498 102.62C20.6798 102.66 20.8598 102.69 21.1598 102.8C21.5098 102.95 21.8798 103.11 22.2398 103.35C22.9098 103.83 23.4398 104.49 23.3798 105.25C23.3798 105.8 23.0798 106.27 22.6998 106.64C22.1698 107.09 21.4698 107.43 20.6798 107.58C20.4398 107.62 20.3198 107.64 20.1998 107.65L19.8098 107.68C19.5598 107.68 19.3098 107.68 19.0598 107.68C18.0798 107.62 17.1798 107.42 16.2998 107.11C15.8598 106.96 15.4398 106.78 15.0098 106.56C14.7998 106.45 14.5898 106.33 14.3798 106.21L14.0398 105.99C13.8798 105.87 13.7198 105.75 13.5698 105.62C12.9598 105.11 12.5198 104.47 12.4498 103.75C12.4198 103.39 12.4398 103.02 12.6698 102.72C12.8698 102.41 13.0198 102.08 13.2598 101.78C13.3798 101.63 13.5498 101.48 13.6698 101.35C13.7598 101.26 13.8498 101.17 13.9498 101.09L14.5498 100.63C14.9698 100.36 15.3898 100.11 15.8398 99.92C16.7198 99.53 17.6298 99.29 18.5398 99.17C19.4498 99.05 20.3698 99.03 21.2898 99.13C21.7498 99.18 22.2198 99.27 22.6898 99.4C22.9198 99.46 23.1798 99.56 23.3998 99.64L24.0098 99.91C25.3798 100.57 26.7698 101.47 27.7798 102.86C28.2698 103.56 28.6298 104.37 28.8098 105.21C28.8998 105.63 28.9598 106.06 28.9598 106.48V106.8C28.9598 106.89 28.9598 106.89 28.9598 106.94C28.9598 107.01 28.9598 107.1 28.9398 107.15C28.9298 107.26 28.8998 107.36 28.8798 107.46C28.8398 107.53 28.9198 107.55 28.9698 107.54C29.0198 107.54 29.0798 107.54 29.1298 107.53L29.4498 107.48L30.1298 107.35C34.5598 106.41 39.0198 105.26 43.4598 104.12C46.1898 103.4 48.9198 102.68 51.6498 101.96C55.7698 100.84 59.9198 99.73 63.9898 98.52C67.1498 97.58 70.2098 96.52 73.3198 95.51C73.9998 95.28 74.6698 95.06 75.3598 94.83C77.9298 94.05 78.8098 94.01 79.5298 94.41C79.6898 94.5 79.8998 94.58 80.0098 94.69C80.3798 95.05 79.4398 95.73 77.6098 96.46C72.1398 98.53 66.2398 100.28 60.2998 101.98C55.8898 103.24 51.4398 104.44 46.9898 105.63L46.9698 105.58L46.9598 105.57Z" fill="#231F20"/>
<path d="M76.8801 32.39C76.9201 32.2 77.0701 32.09 77.2501 32.02C77.3101 32 77.4201 32.06 77.4301 32.11C77.4301 32.23 77.4301 32.35 77.4401 32.43C77.4101 32.49 77.3501 33.45 77.4401 33.75C77.4801 34.05 77.5001 34.33 77.5501 34.6C77.5901 34.88 77.6901 35.13 77.8001 35.36C77.8601 35.47 77.9201 35.57 77.9901 35.65C78.0601 35.74 78.0201 35.68 78.0301 35.7C78.0301 35.7 78.0301 35.71 78.0301 35.75C78.0501 35.87 78.2301 35.89 78.1901 35.78C78.1901 35.77 78.1901 35.76 78.1301 35.73C78.0601 35.68 78.0801 35.74 78.0101 35.65C77.9401 35.54 77.8701 35.42 77.8101 35.33C77.7301 35.2 77.6701 35.1 77.6601 35.06C77.5401 34.63 77.3701 34.18 77.2301 33.73C77.2101 33.66 77.1601 33.61 77.1901 33.52C77.2501 33.33 77.1901 33.2 77.1401 33.05C77.0801 32.86 77.0501 32.63 77.0301 32.42C77.0301 32.3 77.0701 32.18 77.1001 32.08C77.1301 31.98 77.2801 32.02 77.3101 32.04C77.3801 32.12 77.4301 32.04 77.4901 32.02C77.5101 32.02 77.5401 32.01 77.5601 32.01C77.5901 32.01 77.7101 32.23 77.9201 32.42C78.1201 32.62 78.3601 32.8 78.4001 32.85C78.4001 32.85 78.4601 32.94 78.5501 33.06C78.6401 33.18 78.7601 33.34 78.8901 33.51C79.1601 33.83 79.4301 34.2 79.4801 34.29C79.5401 34.37 79.5601 34.48 79.5901 34.58C79.6001 34.6 79.6501 34.7 79.7301 34.86C79.7701 34.94 79.8201 35.04 79.8801 35.14C79.9401 35.27 80.0001 35.41 80.0601 35.55C80.3001 36.13 80.1901 36.65 80.1901 36.69C80.1201 36.88 80.0201 37.07 79.8801 37.23C79.8201 37.33 79.7101 37.35 79.6201 37.41C79.5301 37.47 79.4301 37.5 79.3101 37.49C79.2201 37.49 79.1401 37.52 79.0701 37.55C78.3801 37.74 77.4901 37.41 76.9901 36.72C76.7301 36.39 76.6401 36.18 76.5201 35.9C76.5001 35.85 76.5001 35.8 76.4901 35.75C76.4801 35.69 76.4701 35.62 76.4601 35.56C76.2801 34.93 76.3101 34.3 76.3401 33.69C76.3401 33.54 76.6201 32.92 76.6601 32.78C76.6901 32.7 76.9001 32.46 76.9101 32.39H76.8801Z" fill="#231F20"/>
<path d="M76.9 15.13C77.04 15 77.24 15.02 77.43 15.07C77.49 15.09 77.5501 15.2 77.5101 15.25C77.4401 15.35 77.37 15.46 77.32 15.53C77.22 15.65 76.6401 16.33 76.4101 16.59C76.2401 16.79 76.15 16.91 76.03 17.05C76.02 17.06 76.0301 17.06 76.0501 17.05C76.0501 17.05 76.02 17.07 75.97 17.14C75.8 17.37 75.93 17.45 76 17.37C76.01 17.36 76.02 17.37 76.04 17.25C76.07 17.04 76.04 17.08 76.08 17.09C76.1 17.1 76.11 17.11 76.13 17.1C76.15 17.07 76.18 17.04 76.2 17C76.27 16.87 76.3601 16.6 76.4401 16.39C76.4601 16.33 76.47 16.26 76.54 16.21C76.7 16.11 76.73 15.97 76.79 15.83C76.88 15.65 76.97 15.46 77.09 15.29C77.15 15.2 77.24 15.13 77.31 15.06C77.38 14.99 77.45 15.08 77.45 15.11C77.45 15.2 77.52 15.16 77.56 15.17C77.57 15.17 77.59 15.17 77.6 15.19C77.62 15.2 77.56 15.47 77.57 15.77C77.57 16.06 77.61 16.38 77.6 16.44C77.62 16.47 77.5501 16.84 77.4801 17.29C77.3801 17.94 77.15 18.85 77.08 18.96C77.02 19.11 76.9501 19.27 76.8701 19.33C76.8601 19.35 76.8 19.44 76.7 19.6C76.6 19.73 76.47 19.87 76.31 19.99C76.17 20.12 75.98 20.21 75.84 20.28C75.68 20.31 75.5701 20.33 75.5501 20.33C75.2101 20.33 74.8 20.37 74.52 20.12C74.46 20.08 74.39 20.06 74.33 20.03C73.74 19.81 73.41 19.16 73.46 18.69C73.46 18.45 73.48 18.2 73.59 17.9C73.61 17.85 73.6601 17.79 73.6901 17.73C73.7401 17.65 73.78 17.57 73.82 17.52C73.95 17.33 74.08 17.14 74.24 16.95L74.77 16.41L75.25 15.98C75.36 15.89 75.46 15.8 75.59 15.69C75.69 15.6 76.27 15.3 76.42 15.24C76.5 15.2 76.8201 15.17 76.8701 15.12L76.9 15.13Z" fill="#231F20"/>
<path d="M53.5601 25.21C53.6701 25.06 53.8301 25.03 54.0701 25.04C54.1501 25.04 54.2801 25.15 54.2701 25.21C54.2401 25.33 54.2101 25.46 54.1601 25.58C54.1401 25.66 53.4001 26.58 53.0901 26.81C52.8101 27.06 52.5201 27.26 52.2301 27.45C51.9301 27.64 51.6601 27.83 51.4301 28.01C51.2901 28.14 51.3401 28.09 51.3301 28.1C51.3301 28.1 51.3101 28.1 51.2901 28.11C51.2801 28.11 51.2801 28.11 51.2801 28.11C51.2801 28.11 51.2401 28.09 51.2601 28.13C51.2801 28.16 51.2901 28.23 51.3101 28.24C51.3501 28.27 51.3801 28.34 51.4201 28.36C51.4901 28.39 51.5301 28.42 51.6301 28.37C51.6601 28.35 51.7001 28.37 51.7301 28.3C51.7301 28.27 51.7901 28.22 51.8601 28.18C51.9401 28.11 52.0401 28.03 52.1501 27.92C52.3701 27.71 52.5801 27.43 52.6301 27.38C52.9301 27.11 53.1501 26.76 53.3901 26.41C53.4201 26.36 53.4201 26.3 53.4901 26.26C53.6501 26.18 53.6701 26.04 53.7001 25.93C53.7601 25.76 53.7801 25.6 53.8301 25.43C53.8401 25.35 53.8901 25.27 53.9301 25.17C53.9601 25.08 54.1101 25.07 54.1401 25.1C54.2001 25.18 54.2601 25.09 54.3201 25.06C54.3401 25.06 54.3701 25.04 54.3801 25.04C54.3901 25.04 54.4301 25.12 54.5001 25.25C54.5801 25.39 54.6001 25.55 54.6401 25.74C54.7001 26.1 54.7001 26.49 54.6701 26.56C54.6701 26.56 54.6401 26.69 54.6001 26.88C54.5401 27.05 54.5001 27.31 54.3901 27.54C54.2101 28.01 53.9201 28.48 53.8601 28.57C53.8001 28.67 53.7101 28.75 53.6201 28.83C53.5801 28.84 53.3701 29.19 53.0101 29.49C52.6901 29.81 52.1601 30.04 52.1001 30.03C51.6801 30.18 51.0501 30.17 50.6601 29.84C50.5001 29.73 50.5001 29.73 50.4301 29.68C50.2901 29.58 50.1201 29.46 50.0201 29.34C49.9001 29.18 49.7801 29.01 49.6601 28.84C49.6101 28.74 49.5801 28.63 49.5501 28.52C49.5301 28.41 49.4701 28.31 49.4801 28.19C49.4701 27.96 49.5301 27.74 49.6301 27.54C49.7501 27.35 49.8701 27.17 50.0401 27.02C50.1101 26.94 50.2101 26.86 50.2901 26.81L50.4801 26.68C50.4801 26.68 50.5801 26.64 50.6201 26.62C50.6801 26.6 50.7401 26.58 50.7901 26.55C51.3301 26.23 51.8701 26.05 52.3301 25.73C52.4301 25.65 53.0301 25.47 53.1301 25.38C53.2001 25.34 53.5001 25.29 53.5401 25.23L53.5601 25.21Z" fill="#231F20"/>
</svg>
