<svg width="128" height="128" viewBox="0 0 128 128" fill="none" xmlns="http://www.w3.org/2000/svg">
<path d="M63.9999 112.24L55.4099 112.04L52.2799 111.98C48.5999 111.82 44.9299 111.61 41.2499 111.37C39.6199 111.26 37.9799 111.16 36.3599 111.05C34.2899 110.86 32.1699 110.82 30.1599 110.11C29.5399 109.89 29.6199 109.95 30.1799 109.94C30.4599 109.94 30.8599 109.87 31.3299 109.87C31.7999 109.86 32.3699 109.74 32.9599 109.81C35.0599 109.97 37.1699 110.04 39.2899 110.13C41.4099 110.22 43.5299 110.35 45.6599 110.47C48.2099 110.63 50.8799 110.6 53.4899 110.65L62.1199 110.8L67.4299 110.83C70.1099 110.82 72.8099 110.81 75.4699 110.72C77.5399 110.64 79.5599 110.47 81.5999 110.3C82.0499 110.26 82.4899 110.21 82.9399 110.21C83.7799 110.18 84.3299 110.19 84.7299 110.25C85.1199 110.33 85.3599 110.43 85.5499 110.58C85.6399 110.64 85.7499 110.7 85.7999 110.76C85.8899 110.86 85.7599 110.96 85.4699 111.09C85.1699 111.22 84.6999 111.39 84.0899 111.48C83.1799 111.65 82.2499 111.8 81.3199 111.85C80.3799 111.93 79.4299 112.01 78.4799 112.05C76.5699 112.16 74.6299 112.21 72.6899 112.24C69.8099 112.29 66.9099 112.27 64.0199 112.26V112.22L63.9999 112.24Z" fill="#231F20"/>
<path d="M72.8301 78.47C71.7801 72.4 66.2701 70.46 66.2701 70.46C66.2701 70.46 65.4201 73.92 64.7601 75.01C64.1001 76.11 62.0401 77.94 62.4301 81.36C62.8201 84.78 68.0601 85.46 69.6201 84.76C71.1801 84.05 73.4201 81.77 72.8401 78.46L72.8301 78.47ZM69.3801 79.92C68.8501 80.83 67.3401 81.8 66.5401 80.39C65.7401 79 66.8601 77.62 68.3401 77.65C69.4301 77.4 69.9501 78.95 69.3801 79.92Z" fill="#231F20"/>
<path d="M14.8998 81.6L14.0798 73.86L13.6998 71.05C13.3198 67.74 12.9698 64.42 12.5098 61.12C12.3198 59.65 12.0398 58.19 11.7598 56.75C11.5698 55.83 11.4098 54.9 11.2498 53.97C11.0998 53.04 10.9198 52.11 11.1098 51.11C11.2198 50.49 11.1698 50.58 11.5098 51.02C11.8598 51.46 12.7398 52.22 12.9398 53.3C13.1698 54.24 13.4098 55.18 13.5998 56.13C13.7698 57.08 13.9098 58.04 14.0598 59C14.3398 60.92 14.5698 62.85 14.7398 64.8C14.9498 67.13 15.3598 69.52 15.6498 71.88C15.9598 74.48 16.2398 77.09 16.5098 79.69L17.0098 84.5C17.2698 86.93 17.4998 89.37 17.7998 91.77C18.0298 93.64 18.3798 95.45 18.6598 97.29C18.7098 97.7 18.7798 98.09 18.8198 98.5C19.0098 100.02 18.7798 100.54 18.5098 100.9C18.4398 100.98 18.3798 101.09 18.3198 101.14C18.1198 101.31 17.7798 100.72 17.4198 99.64C17.2198 98.83 17.0198 98 16.8398 97.16C16.6898 96.32 16.5498 95.47 16.4198 94.61C16.1598 92.9 15.9398 91.15 15.7298 89.41C15.4298 86.81 15.1398 84.21 14.8398 81.61H14.8898L14.8998 81.6Z" fill="#231F20"/>
<path d="M35.6398 28.81C34.2498 28.99 32.8598 29.23 31.4798 29.53C30.9798 29.64 30.4898 29.81 29.9898 29.93C28.2298 30.35 26.4498 30.82 24.7698 31.46C24.1898 31.71 23.3698 32.01 23.3698 32.26L23.2398 32.56C23.0198 33 22.8598 33.42 22.7698 33.87C22.6198 34.31 22.5198 34.78 22.4798 35.31C22.4398 35.64 22.4498 35.61 22.2398 35.38C22.0298 35.16 21.5198 34.68 21.3198 33.92C21.2598 33.48 21.3198 33.04 21.3998 32.62C21.4398 32.41 21.4898 32.2 21.5498 32.01C21.5798 31.91 21.5998 31.82 21.6398 31.73C21.6798 31.64 21.6898 31.61 21.7698 31.4C21.8998 31.07 22.1698 30.84 22.4298 30.61C22.7498 30.4 22.8598 30.36 23.0598 30.25C23.4098 30.07 23.7698 29.94 24.1298 29.82C24.8398 29.57 25.5398 29.38 26.2598 29.21C27.5398 28.92 28.8198 28.45 30.1098 28.14C31.5398 27.8 32.9798 27.53 34.4198 27.3C35.3098 27.16 36.1998 27.05 37.0998 26.95C38.4598 26.8 39.8298 26.73 41.1798 26.67C42.2298 26.62 43.2698 26.52 44.3398 26.54C44.5698 26.54 44.7998 26.54 45.0398 26.56C45.8998 26.72 46.1498 26.94 46.2698 27.33C46.2998 27.42 46.3398 27.51 46.3398 27.59C46.3698 27.85 45.9798 28.07 45.3698 28.13C44.4598 28.28 43.5698 28.22 42.6398 28.27C41.7198 28.31 40.7898 28.34 39.8498 28.41C38.4598 28.51 37.0498 28.65 35.6498 28.87V28.83L35.6398 28.81Z" fill="#231F20"/>
<path d="M98.06 50.44C97.26 50.37 96.45 50.29 95.65 50.22C95.35 50.2 95.07 50.19 94.77 50.17C93.74 50.06 92.7 49.95 91.67 49.84C91.21 49.79 90.75 49.77 90.29 49.76C90 49.76 89.7 49.74 89.41 49.74C89.12 49.7 88.83 49.62 88.54 49.55C88.36 49.5 88.39 49.39 88.54 49.26C88.7 49.13 88.99 48.91 89.34 48.83C90.54 48.79 91.74 48.83 92.94 48.99C93.66 49.11 94.41 49.09 95.15 49.14C95.96 49.2 96.77 49.26 97.58 49.32C98.08 49.36 98.58 49.39 99.08 49.43C99.84 49.48 100.59 49.54 101.34 49.56C101.91 49.56 102.5 49.55 103.08 49.54C103.21 49.54 103.33 49.54 103.46 49.54C103.93 49.59 104.08 49.73 104.17 49.92C104.19 49.97 104.22 50.01 104.23 50.05C104.27 50.19 104.07 50.32 103.72 50.44C102.68 50.67 101.59 50.72 100.5 50.65C99.69 50.6 98.88 50.55 98.06 50.49V50.46V50.44Z" fill="#231F20"/>
<path d="M25.84 69.19L26.93 59.29L27.32 55.68C27.51 54.18 27.71 52.68 27.94 51.18C28.07 50.43 28.16 49.68 28.32 48.93L28.54 47.8C28.57 47.62 28.63 47.42 28.69 47.22L28.91 46.48C29 46.28 29.18 46.14 29.38 46.05C29.6 45.98 29.86 45.97 30.09 45.95C30.42 45.93 30.73 45.93 31.05 45.93L32.93 45.96C34.82 46.03 36.73 46.1 38.61 46.16C41.02 46.25 43.45 46.17 45.83 46.54C46.57 46.72 46.49 46.82 45.85 47.15C45.21 47.51 44.01 47.91 42.62 47.89C40.37 47.82 38.13 47.7 35.89 47.57C34.77 47.5 33.65 47.46 32.54 47.36L30.88 47.25L30.13 47.22C30.13 47.22 30.01 47.19 30 47.26L29.97 47.34L29.88 47.62C29.81 47.8 29.77 48.02 29.72 48.24C29.09 51.08 28.8 54.18 28.44 57.19C28.05 60.5 27.68 63.82 27.34 67.15L26.73 73.29C26.44 76.39 26.15 79.51 25.86 82.58C25.63 84.97 25.54 87.33 25.26 89.69C25.2 90.21 25.16 90.72 25.09 91.25C24.85 93.2 24.6 93.8 24.39 94.19C24.34 94.28 24.28 94.4 24.24 94.45C24.1 94.62 24.09 93.81 24.1 92.38C24.19 88.13 24.42 83.66 24.84 79.18C25.17 75.86 25.49 72.52 25.82 69.18H25.85L25.84 69.19Z" fill="#231F20"/>
<path d="M14.9901 71.16L16.2501 80.56C16.4001 81.7 16.6401 82.83 16.7901 83.97L18.4001 96.06C18.6401 97.85 18.9601 99.63 19.2801 101.39C19.4901 102.52 19.7101 103.65 19.9201 104.78C20.0801 105.92 20.1501 107.08 20.1001 108.26C20.0701 108.99 19.9401 108.92 19.5201 108.38C19.2601 108.04 18.9701 107.65 18.6701 107.26C18.3501 106.79 18.0601 106.22 17.8401 105.59C17.2901 103.3 16.8301 101 16.3901 98.69C15.9601 96.38 15.5801 94.05 15.3501 91.68C15.0501 88.86 14.4201 85.97 13.9701 83.11C13.4801 79.96 13.0101 76.8 12.5901 73.64L11.7901 67.81C11.3801 64.87 11.0101 61.9 10.5401 58.99C10.1701 56.73 9.71013 54.52 9.32013 52.29C9.23013 51.8 9.12013 51.32 9.07013 50.82C8.87013 48.96 8.98013 48.35 9.47013 47.88C9.58013 47.77 9.69013 47.64 9.81013 47.57C10.2001 47.34 10.6601 48.04 11.0601 49.36C12.2301 53.28 12.9801 57.47 13.6301 61.7C14.1001 64.84 14.5701 68 15.0401 71.15H14.9701L14.9901 71.16Z" fill="#231F20"/>
<path d="M25.4899 76.31L27.0799 63.6C27.2799 62.05 27.3999 60.5 27.6199 58.95C28.0199 56.22 28.4199 53.5 28.9499 50.77C29.0899 50.09 29.1899 49.41 29.3699 48.72L29.6699 47.43C29.7099 47.14 29.8299 46.94 29.9399 46.74L30.0999 46.43L30.1199 46.39V46.37C30.0399 46.27 30.2499 46.5 30.2299 46.48V46.47C30.2499 46.45 30.2799 46.43 30.2999 46.42L30.4399 46.33C30.7599 46.03 31.3699 46.05 31.8899 46.02H33.0399L35.1099 46.04C37.5499 46.05 39.9999 46.07 42.4199 46.08C43.9699 46.1 45.5299 46.06 47.0899 46.13C47.8699 46.18 48.6499 46.23 49.4199 46.31C49.8099 46.32 50.1999 46.42 50.5799 46.53L51.7399 46.82C52.6999 47.09 52.5699 47.04 51.7399 47.29C51.3299 47.42 50.7399 47.64 50.0299 47.97C49.3199 48.23 48.4999 48.36 47.6099 48.44C46.8199 48.52 46.0299 48.54 45.2399 48.55L42.8699 48.59C41.2899 48.61 39.7099 48.64 38.1299 48.61C36.5499 48.59 34.9799 48.57 33.3899 48.55H32.2599C32.1999 48.53 32.1299 48.51 32.0499 48.5C31.9699 48.5 31.9799 48.6 31.9299 48.66C31.9199 48.68 31.9099 48.69 31.8999 48.73L31.8199 49.01L31.6699 49.57C30.7699 53.21 30.4099 57.19 29.8899 61.04L28.2899 73.82C27.9699 76.45 27.6499 79.08 27.3299 81.7C26.8299 85.68 26.3299 89.68 25.8299 93.63C25.4599 96.71 25.1799 99.74 24.7499 102.79C24.6699 103.46 24.5599 104.13 24.4399 104.8C23.9299 107.29 23.3599 108.03 22.7199 108.4C22.5699 108.48 22.4099 108.61 22.2699 108.64C21.8399 108.76 21.6899 107.65 21.9199 105.87C22.4999 100.51 23.2399 94.84 23.8999 89.12C24.3999 84.86 24.8899 80.59 25.3899 76.32H25.4499L25.4899 76.31Z" fill="#231F20"/>
<path d="M65.3299 113.82C61.7399 113.72 58.1599 113.6 54.5699 113.44C53.2599 113.38 51.9499 113.4 50.6499 113.32C46.0399 113.04 41.4399 112.73 36.8399 112.26C34.7999 112.11 32.7499 111.82 30.7299 111.63C28.1299 111.33 25.5099 110.9 23.0499 109.92C22.2799 109.64 22.3799 109.69 23.0899 109.67C23.4399 109.66 23.9499 109.61 24.5599 109.53C24.8599 109.5 25.1999 109.43 25.5399 109.41C25.8799 109.41 26.2399 109.41 26.6099 109.43L28.5999 109.48C29.2599 109.5 29.9099 109.59 30.5599 109.65L34.5099 109.94C37.1399 110.2 39.7799 110.46 42.4399 110.72C45.6199 111.06 48.9499 111.06 52.2199 111.18C55.8099 111.3 59.4099 111.4 63.0099 111.47C65.2299 111.5 67.4399 111.53 69.6599 111.56C73.0199 111.58 76.3899 111.61 79.7199 111.52C82.3099 111.45 84.8499 111.24 87.4099 111.08C87.9699 111.05 88.5199 110.99 89.0899 110.97C91.1999 110.92 91.8899 111.12 92.3399 111.69C92.4399 111.81 92.5799 111.93 92.6399 112.03C92.8399 112.36 91.9899 112.86 90.4599 113.06C85.8999 113.62 81.0599 113.76 76.1999 113.84C72.5899 113.89 68.9599 113.88 65.3399 113.84V113.78L65.3299 113.82Z" fill="#231F20"/>
<path d="M94.2899 47.4C95.2499 47.49 96.2099 47.57 97.1699 47.64C97.5199 47.67 97.8699 47.64 98.2299 47.67C99.4699 47.79 100.72 47.92 101.98 48C102.54 48.03 103.1 48.04 103.65 48.04C104.01 48.04 104.36 48.01 104.73 48.07C105.1 48.14 105.45 48.24 105.85 48.43C106.1 48.57 105.96 48.69 105.74 48.88C105.54 49.05 105.2 49.4 104.82 49.55C103.44 49.85 102 49.94 100.54 49.75C99.6699 49.64 98.7599 49.79 97.8699 49.79C96.8899 49.81 95.8999 49.73 94.9099 49.67L93.0899 49.55C92.1699 49.49 91.2499 49.4 90.3299 49.36C89.6199 49.36 88.9099 49.41 88.1899 49.4C88.0299 49.4 87.8799 49.4 87.7199 49.38C87.1299 49.31 86.9799 49.09 86.9299 48.58C86.9299 48.46 86.8999 48.34 86.8999 48.23C86.8999 47.85 87.1899 47.55 87.6199 47.42C88.2399 47.3 88.8699 47.19 89.5099 47.13C90.1399 47.09 90.7799 47.14 91.4099 47.17C92.3699 47.23 93.3299 47.29 94.2899 47.35V47.41V47.4Z" fill="#231F20"/>
<path d="M104.83 70.12L102.73 78.27C102.48 79.26 102.31 80.27 102.05 81.26C101.11 84.74 100.13 88.22 99.2198 91.71C98.8298 93.26 98.4398 94.82 98.0898 96.37C97.6098 98.35 97.3598 100.39 96.3098 102.25C95.9998 102.83 95.9598 102.74 95.7998 102.15C95.7198 101.86 95.5898 101.44 95.4198 100.93C95.2998 100.43 95.2598 99.87 95.2898 99.27C95.5798 97.2 95.9398 95.15 96.3298 93.09C96.7698 91.05 97.3298 89.03 97.9298 87.01C98.6598 84.6 99.0698 82.01 99.6798 79.52L101.72 71.29L102.97 66.22C103.58 63.66 104.23 61.09 104.76 58.53C105.18 56.54 105.37 54.54 105.75 52.57C105.83 52.13 105.89 51.7 105.98 51.27C106.07 50.87 106.16 50.53 106.25 50.26C106.35 49.99 106.48 49.78 106.6 49.61C106.72 49.44 106.84 49.32 106.98 49.22C107.13 49.13 107.3 49.07 107.46 49.01C107.6 48.96 107.73 48.88 107.83 48.86C108.09 48.76 108.61 49.57 108.6 50.81C108.45 54.46 107.67 58.17 106.85 61.88C106.24 64.63 105.56 67.39 104.91 70.14H104.84L104.83 70.12Z" fill="#231F20"/>
<path d="M23.14 58.13L24.6 48.14C24.79 46.92 24.88 45.7 25.03 44.47L25.26 42.85L25.41 42.04L25.59 41.1C25.64 40.87 25.73 40.68 25.8 40.48C25.9 40.29 25.92 40.05 26.07 39.91C26.32 39.55 26.73 39.39 27.16 39.28C27.37 39.22 27.6 39.19 27.82 39.14L28.27 39.08L29.12 39C31.35 38.83 33.52 38.82 35.7 38.85C37.63 38.86 39.57 38.88 41.49 38.89C43.94 38.96 46.44 38.96 48.84 39.79C49.58 40.07 49.47 40.11 48.8 40.34C48.12 40.59 46.91 41.13 45.51 41.22L41.8 41.31L38.09 41.27C35.63 41.26 33.16 41.25 30.66 41.24C29.93 41.24 29.18 41.28 28.48 41.37L28.16 41.41C28.1 41.42 28.04 41.43 27.98 41.45C27.84 41.48 27.87 41.65 27.83 41.76C27.59 43.23 27.34 44.71 27.1 46.18L25.69 56.24L24.84 62.44C24.42 65.57 23.95 68.71 23.58 71.83C23.28 74.25 23.12 76.64 22.87 79.05C22.81 79.58 22.78 80.1 22.71 80.64C22.36 82.6 22.06 83.2 21.42 83.52C21.28 83.59 21.13 83.7 21 83.73C20.58 83.85 20.3 82.98 20.35 81.53C20.53 77.23 21.15 72.75 21.72 68.23C22.17 64.88 22.62 61.51 23.07 58.15H23.13L23.14 58.13Z" fill="#231F20"/>
<path d="M15.7102 38.01C15.2602 37.98 14.8002 37.95 14.3502 37.94C14.1902 37.94 14.0302 38 13.8602 37.99C13.2802 37.99 12.6802 37.95 12.0902 37.96C11.8302 37.96 11.5702 38.03 11.3202 38.1C11.1602 38.14 11.0002 38.21 10.8402 38.24C10.6702 38.26 10.4902 38.24 10.3002 38.18C10.1802 38.14 10.1402 37.85 10.1602 37.52C10.1802 37.19 10.2502 36.78 10.4102 36.66C11.0202 36.39 11.7102 36.19 12.4402 36.23C12.8802 36.27 13.2902 36.1 13.7202 36.06C14.1902 36.01 14.6702 35.99 15.1402 35.97C15.4302 35.96 15.7202 35.95 16.0102 35.94C16.4502 35.91 16.8902 35.94 17.3202 35.88C17.6502 35.85 17.9602 35.6 18.3002 35.6C18.3702 35.6 18.4402 35.57 18.5202 35.57C18.8002 35.59 18.8902 35.73 18.9802 36.16L19.0402 36.45C19.0902 36.77 19.0002 37.06 18.8102 37.24C18.2702 37.86 17.6802 37.94 17.0702 38.02C16.6202 38.09 16.1702 38.06 15.7202 38.06V38.01H15.7102Z" fill="#231F20"/>
<path d="M63.86 36.94L57.34 36.78L54.08 36.71L50.3 36.65L49.56 36.42L49.38 36.36H49.36L49.47 36.23H49.46L49.42 36.2L49.35 36.15L49.07 35.92C48.88 35.67 48.83 35.27 48.76 34.91L48.62 33.94L48.44 32.66L48.11 30.13L48.01 29.33L47.91 28.63C47.89 28.5 47.9 28.27 47.7 28.31C47.53 28.29 47.47 28.27 47.21 28.25L46.31 28.19C45.71 28.14 45.1 28.15 44.49 28.12C43.27 28.1 42.05 28.12 40.82 28.15C38.37 28.22 35.91 28.39 33.46 28.62C30.81 28.88 28.15 29.28 25.58 29.82C24.92 29.95 24.27 30.12 23.61 30.27C22.99 30.44 22.23 30.64 21.95 30.76C21.9 30.78 21.86 30.8 21.81 30.82C21.79 30.87 21.81 30.92 21.81 30.97L21.87 31.34L22.11 32.85C22.27 33.87 22.43 34.88 22.52 35.93C22.56 36.48 22.47 36.75 22.34 36.73C22.21 36.72 22.03 36.47 21.79 36.05C21.33 35.21 20.59 33.71 20.14 31.74L20.1 31.53L20.03 31.15C19.99 30.88 19.94 30.6 19.95 30.34C19.97 30.09 20 29.84 20.2 29.7L20.23 29.67L20.25 29.65C20.14 29.57 20.22 29.63 20.19 29.61L20.26 29.55L20.4 29.44L20.68 29.23L21.61 28.85C21.79 28.77 21.86 28.75 21.97 28.72L22.27 28.62C22.67 28.49 23.08 28.35 23.47 28.25C24.27 28.01 25.08 27.85 25.88 27.68C27.49 27.36 29.1 27.1 30.72 26.89C33.95 26.47 37.2 26.19 40.48 26.11C41.75 26.09 43.03 26.06 44.33 26.04C44.98 26.04 45.63 26.03 46.29 26.05L47.28 26.08C47.41 26.08 47.71 26.1 47.93 26.12L48.65 26.17L49.11 26.33L49.34 26.41C49.34 26.53 49.47 26.52 49.51 26.58C49.74 26.8 49.85 27.15 49.94 27.49C50.15 28.31 50.18 28.63 50.26 29.1C50.41 29.98 50.53 30.85 50.65 31.72L50.93 33.79C50.97 34 50.91 34.4 51.25 34.3L60.82 34.44C63.74 34.49 66.65 34.54 69.56 34.59C73.97 34.66 78.41 34.77 82.79 34.79C86.2 34.83 89.53 34.72 92.92 34.76C93.29 34.76 93.67 34.78 94.04 34.79C94.28 34.81 94.63 34.79 94.88 34.89L95.24 35.09L95.28 35.12C95.28 35.12 95.41 34.91 95.35 35.01L95.37 35.03L95.44 35.09C95.44 35.09 95.54 35.17 95.58 35.24C95.76 35.44 95.87 35.71 95.99 35.95C96.07 36.1 96.15 36.25 96.23 36.39C96.37 36.65 96.49 36.88 96.6 37.09C96.82 37.53 96.98 37.9 97.09 38.22C97.31 38.86 97.32 39.32 97.19 39.7C97.13 39.88 97.06 40.09 96.94 40.17C96.75 40.26 96.61 40.14 96.32 39.81C96.03 39.46 95.56 38.86 94.97 38.05L94.3 37.12C94.24 37.04 94.23 37.04 94.19 37C94.17 36.96 94.14 36.94 94.08 36.96L93.91 36.98L93.35 37.01L92.21 37.07C90.67 37.11 89.12 37.15 87.56 37.19C84.43 37.26 81.25 37.29 78.07 37.23C73.34 37.15 68.59 37.06 63.85 36.98V36.92L63.86 36.94Z" fill="#231F20"/>
<path d="M51.2501 51.74C51.3801 51.59 51.5201 51.45 51.6701 51.33C51.7101 51.29 51.7601 51.26 51.8001 51.22C51.7701 51.25 51.6001 51.37 51.7301 51.28C51.8101 51.23 51.8801 51.18 51.9601 51.13C52.1301 51.03 52.3001 50.93 52.4801 50.85C52.6601 50.77 52.5101 50.85 52.4201 50.87C52.4601 50.86 52.5101 50.84 52.5501 50.82C52.6501 50.78 52.7501 50.75 52.8501 50.72C53.0401 50.66 53.2401 50.61 53.4401 50.56C53.5401 50.54 53.6301 50.52 53.7301 50.5C53.7801 50.5 53.8301 50.48 53.8801 50.48C53.9101 50.48 54.1501 50.44 53.9401 50.47C53.7501 50.5 53.9401 50.47 53.9701 50.47C54.0201 50.47 54.0701 50.46 54.1201 50.45C54.2301 50.44 54.3501 50.43 54.4601 50.42C54.6901 50.41 54.9201 50.4 55.1501 50.4C55.7601 50.4 56.3501 49.86 56.3201 49.23C56.2901 48.6 55.8001 48.05 55.1501 48.06C53.1501 48.06 50.9701 48.52 49.5901 50.09C49.1801 50.55 49.1001 51.3 49.5901 51.75C50.0401 52.16 50.8201 52.24 51.2501 51.75V51.74Z" fill="#231F20"/>
<path d="M86.8302 52.63C86.5102 52.02 86.0902 51.45 85.6102 50.95C84.9402 50.26 84.0902 49.69 83.1402 49.47C82.8302 49.4 82.5102 49.43 82.2302 49.59C81.9902 49.73 81.7502 50.01 81.6902 50.29C81.6202 50.59 81.6402 50.93 81.8102 51.2C81.9702 51.45 82.2102 51.67 82.5102 51.74C82.7002 51.78 82.8902 51.84 83.0702 51.92L82.7902 51.8C83.0902 51.93 83.3702 52.1 83.6402 52.3L83.4002 52.12C83.7602 52.4 84.0802 52.74 84.3602 53.1L84.1802 52.86C84.4102 53.16 84.6202 53.48 84.7902 53.81C85.0702 54.36 85.8802 54.56 86.4002 54.23C86.9602 53.87 87.1202 53.21 86.8202 52.62L86.8302 52.63Z" fill="#231F20"/>
<path d="M84.2199 55.1C83.8899 54.43 83.4999 53.77 82.9699 53.24C82.3799 52.64 81.6299 52.21 80.8699 51.87C80.5699 51.74 80.2899 51.66 79.9599 51.75C79.6899 51.83 79.3899 52.04 79.2599 52.29C79.1199 52.56 79.0399 52.89 79.1399 53.2C79.2299 53.47 79.4099 53.78 79.6799 53.9C80.1899 54.13 80.6999 54.39 81.1499 54.73L80.9099 54.55C81.1799 54.76 81.4099 54.99 81.6199 55.26L81.4399 55.02C81.7399 55.41 81.9699 55.85 82.1899 56.29C82.3199 56.54 82.6299 56.76 82.8899 56.83C83.1699 56.91 83.5499 56.87 83.7999 56.71C84.0499 56.55 84.2699 56.31 84.3399 56.01C84.4099 55.69 84.3699 55.4 84.2199 55.1Z" fill="#231F20"/>
<path d="M81.4099 58.31C81.1399 57.45 80.6999 56.64 80.0099 56.05C79.3199 55.46 78.5899 55.08 77.8399 54.64C77.3099 54.32 76.5299 54.5 76.2299 55.06C75.9299 55.62 76.0899 56.33 76.6499 56.67C77.2499 57.03 77.8799 57.35 78.4299 57.78L78.1899 57.6C78.4199 57.78 78.6399 57.98 78.8199 58.21L78.6399 57.97C78.8199 58.2 78.9599 58.46 79.0799 58.73L78.9599 58.45C79.0299 58.61 79.0799 58.77 79.1299 58.93C79.2199 59.22 79.4099 59.48 79.6699 59.63C79.9299 59.78 80.2899 59.84 80.5799 59.75C81.1699 59.56 81.5999 58.93 81.3999 58.3L81.4099 58.31Z" fill="#231F20"/>
<path d="M78.6701 60.74C78.3701 60.15 78.0101 59.55 77.4901 59.13C76.9201 58.66 76.2801 58.31 75.6601 57.92C75.1401 57.59 74.3401 57.8 74.0501 58.34C73.7401 58.92 73.9201 59.59 74.4701 59.95C74.9801 60.27 75.5201 60.56 76.0001 60.93L75.7601 60.75C75.9601 60.9 76.1301 61.08 76.2801 61.27L76.1001 61.03C76.3201 61.31 76.4901 61.62 76.6401 61.94C76.7701 62.19 77.08 62.41 77.34 62.48C77.62 62.56 78.0001 62.52 78.2501 62.36C78.5001 62.2 78.7201 61.96 78.7901 61.66C78.8601 61.34 78.8201 61.05 78.6701 60.75V60.74Z" fill="#231F20"/>
<path d="M76.4802 63.77C75.8802 62.47 74.6502 61.64 73.4202 61C73.1402 60.85 72.8202 60.8 72.5102 60.88C72.2402 60.96 71.9402 61.17 71.8102 61.42C71.6702 61.69 71.5902 62.02 71.6902 62.33C71.7802 62.61 71.9602 62.89 72.2302 63.03C72.7202 63.29 73.2102 63.57 73.6602 63.9L73.4202 63.72C73.7102 63.94 73.9702 64.19 74.2002 64.48L74.0202 64.24C74.1902 64.46 74.3402 64.7 74.4502 64.96C74.5602 65.22 74.9002 65.43 75.1502 65.5C75.4302 65.58 75.8102 65.54 76.0602 65.38C76.3102 65.22 76.5302 64.98 76.6002 64.68L76.6402 64.37C76.6402 64.16 76.5902 63.96 76.4802 63.78V63.77Z" fill="#231F20"/>
<path d="M55.3101 54.49C55.4001 54.41 55.5001 54.34 55.5901 54.26L55.3501 54.44C55.8401 54.06 56.3701 53.72 56.9401 53.48L56.6601 53.6C57.0301 53.45 57.4201 53.34 57.8201 53.28L57.5101 53.32C57.7501 53.29 57.9901 53.28 58.2301 53.28C58.8401 53.28 59.4301 52.74 59.4001 52.11C59.3701 51.48 58.8801 50.93 58.2301 50.94C57.5801 50.95 56.8701 51.03 56.2401 51.27C55.2701 51.63 54.4401 52.18 53.6501 52.84C53.4301 53.02 53.3101 53.4 53.3101 53.67C53.3101 53.96 53.4401 54.3 53.6501 54.5C53.8601 54.7 54.1701 54.86 54.4801 54.84C54.8101 54.83 55.0601 54.7 55.3101 54.5V54.49Z" fill="#231F20"/>
<path d="M59.54 57.8C59.62 57.73 59.7 57.67 59.79 57.6L59.55 57.78C59.96 57.47 60.4 57.19 60.87 56.99L60.59 57.11C60.93 56.97 61.28 56.86 61.65 56.81L61.34 56.85C61.59 56.82 61.83 56.81 62.08 56.84C62.36 56.86 62.72 56.69 62.91 56.5C63.1 56.31 63.27 55.96 63.25 55.67C63.23 55.38 63.14 55.05 62.91 54.84C62.68 54.63 62.4 54.52 62.08 54.5C60.51 54.36 59.04 55.17 57.88 56.15C57.66 56.33 57.54 56.71 57.54 56.98C57.54 57.27 57.67 57.61 57.88 57.81C58.09 58.01 58.4 58.17 58.71 58.15C59.02 58.13 59.29 58.02 59.54 57.81V57.8Z" fill="#231F20"/>
<path d="M61.5601 61.37C61.6201 61.32 61.6801 61.26 61.7501 61.21C61.7801 61.18 61.8101 61.16 61.8401 61.13L61.7001 61.24C61.8101 61.15 61.9301 61.07 62.0501 60.99C62.2701 60.85 62.5101 60.72 62.7501 60.62L62.4701 60.74C62.9301 60.55 63.4101 60.43 63.9101 60.36L63.6001 60.4C63.9501 60.35 64.3001 60.33 64.6501 60.32C65.2601 60.3 65.8501 59.79 65.8201 59.15C65.7901 58.51 65.3001 57.95 64.6501 57.98C63.8201 58.01 62.9701 58.09 62.1801 58.36C61.3201 58.65 60.5901 59.11 59.9101 59.71C59.4501 60.12 59.4601 60.96 59.9101 61.37C60.4001 61.82 61.0801 61.81 61.5701 61.37H61.5601Z" fill="#231F20"/>
<path d="M63.8298 64.25C63.8998 64.19 63.9698 64.13 64.0498 64.08L63.8098 64.26C64.1298 64.02 64.4698 63.81 64.8398 63.65L64.5598 63.77C64.9198 63.62 65.2998 63.52 65.6798 63.47L65.3698 63.51C65.6698 63.47 65.9698 63.46 66.2698 63.46C66.8798 63.46 67.4698 62.92 67.4398 62.29C67.4098 61.66 66.9198 61.11 66.2698 61.12C65.6198 61.13 64.8698 61.19 64.2198 61.41C63.4498 61.67 62.7998 62.09 62.1798 62.6C61.9598 62.78 61.8398 63.16 61.8398 63.43C61.8398 63.72 61.9698 64.06 62.1798 64.26C62.3898 64.46 62.6998 64.62 63.0098 64.6C63.3198 64.58 63.5898 64.47 63.8398 64.26L63.8298 64.25Z" fill="#231F20"/>
<path d="M67.7799 86.1C67.1599 86.1 66.4499 86.01 65.8099 85.82C65.1799 85.62 64.5699 85.35 64.0099 84.97C62.8899 84.26 61.9499 83.02 61.7099 81.64C61.5099 80.64 61.6199 79.66 61.8699 78.78C62.1199 78.01 62.4599 77.31 62.8499 76.67L63.4599 75.74C63.6499 75.48 63.8199 75.2 63.9999 74.92C64.6799 73.79 65.2399 72.55 65.6899 71.27C65.8899 70.7 66.0599 70.12 66.1999 69.53C66.3399 68.9 66.4299 68.51 66.5999 67.41V67.38C66.6299 67.22 66.6699 67.1 66.7299 67L66.8899 66.67L66.9299 66.59L66.9499 66.55C67.1399 66.82 66.9999 66.62 67.0499 66.68L67.0699 66.66L67.2199 66.58C67.3199 66.53 67.4199 66.46 67.5399 66.41C67.8099 66.37 68.1099 66.41 68.4199 66.42H68.6499C68.7299 66.42 68.8099 66.4 68.8499 66.41L69.1399 66.44L70.2699 66.57C70.6399 66.62 70.9999 66.64 71.3699 66.79C71.8299 67.05 71.8399 67.18 71.4499 67.73C71.0599 68.31 70.1699 68.84 69.2099 68.82C68.9899 68.81 68.7199 68.82 68.5499 68.78C68.5499 68.78 68.5499 68.75 68.5499 68.8L68.4999 69.02L68.2699 69.91C68.1099 70.5 67.9199 71.09 67.7299 71.67C67.3199 72.83 66.8299 73.97 66.1899 75.05C65.6999 75.93 65.0399 76.88 64.6199 77.63C64.1999 78.43 63.8299 79.27 63.7199 80.08C63.5599 80.97 63.7599 81.8 64.2699 82.49C64.7799 83.17 65.6299 83.68 66.5399 83.88C67.6299 84.12 68.9499 84.02 69.9199 83.47C70.6699 83.06 71.2799 82.38 71.6799 81.57C72.0899 80.79 72.1599 79.92 71.9599 79.02C71.6799 77.61 70.8199 76.29 70.4699 74.54C70.3799 74.16 70.3299 73.76 70.3599 73.34C70.4399 72.56 70.6599 72.07 70.8799 71.78C71.1399 71.5 71.4399 71.43 71.7199 71.42C71.8399 71.41 71.9599 71.38 72.0299 71.38C72.2299 71.36 72.4999 72.12 72.5099 72.82C72.5499 73.38 72.6999 73.88 72.8399 74.44C73.0199 75 73.2599 75.61 73.5199 76.28C73.7799 76.94 74.0599 77.7 74.2099 78.57C74.3599 79.43 74.4099 80.45 74.1299 81.43C74.0299 81.78 73.8799 82.13 73.7399 82.47C73.5899 82.77 73.4199 83.07 73.2199 83.36C72.8299 83.94 72.3299 84.47 71.7499 84.9C70.5899 85.78 69.1299 86.16 67.8199 86.16V86.11L67.7799 86.1Z" fill="#231F20"/>
<path d="M64.77 90.21C65.53 90.48 66.35 90.58 67.14 90.66C67.93 90.74 68.71 90.76 69.49 90.71C70.05 90.68 70.59 90.24 70.57 89.63C70.55 89.08 70.1 88.52 69.49 88.55C68.73 88.59 67.97 88.57 67.21 88.5C67.03 88.48 66.84 88.46 66.66 88.44C66.75 88.45 66.88 88.47 66.71 88.44C66.67 88.44 66.62 88.43 66.58 88.42C66.49 88.41 66.41 88.39 66.32 88.38C65.99 88.32 65.66 88.24 65.34 88.12C64.81 87.93 64.14 88.33 64.02 88.87C63.88 89.47 64.2 89.99 64.77 90.19V90.21Z" fill="#231F20"/>
<path d="M64.4702 93.51C65.2302 93.78 66.0502 93.88 66.8402 93.96C67.6302 94.04 68.4102 94.06 69.1902 94.01C69.7502 93.98 70.2902 93.54 70.2702 92.93C70.2502 92.38 69.8002 91.82 69.1902 91.85C68.4302 91.89 67.6702 91.87 66.9102 91.8C66.7302 91.78 66.5402 91.76 66.3602 91.74C66.4502 91.75 66.5802 91.77 66.4102 91.74C66.3702 91.74 66.3202 91.73 66.2802 91.72C66.1902 91.71 66.1102 91.69 66.0202 91.68C65.6902 91.62 65.3602 91.54 65.0402 91.42C64.5102 91.23 63.8402 91.63 63.7202 92.17C63.5802 92.77 63.9002 93.29 64.4702 93.49V93.51Z" fill="#231F20"/>
<path d="M63.4199 97.67C64.1799 97.94 64.9999 98.04 65.7899 98.12C66.5799 98.2 67.3599 98.22 68.1399 98.17C68.6999 98.14 69.2399 97.7 69.2199 97.09C69.1999 96.54 68.7499 95.98 68.1399 96.01C67.3799 96.05 66.6199 96.03 65.8599 95.96C65.6799 95.94 65.4899 95.92 65.3099 95.9C65.3999 95.91 65.5299 95.93 65.3599 95.9C65.3199 95.9 65.27 95.89 65.23 95.88C65.14 95.87 65.0599 95.85 64.9699 95.84C64.6399 95.78 64.3099 95.7 63.9899 95.58C63.4599 95.39 62.7899 95.79 62.6699 96.33C62.5299 96.93 62.8499 97.45 63.4199 97.65V97.67Z" fill="#231F20"/>
<path d="M63.0498 101.71C63.8098 101.98 64.6298 102.08 65.4198 102.16C66.2098 102.24 66.9898 102.26 67.7698 102.21C68.3298 102.18 68.8698 101.74 68.8498 101.13C68.8298 100.58 68.3798 100.02 67.7698 100.05C67.0098 100.09 66.2498 100.07 65.4898 100C65.3098 99.98 65.1198 99.96 64.9398 99.94C65.0298 99.95 65.1598 99.97 64.9898 99.94C64.9498 99.94 64.8998 99.93 64.8598 99.92C64.7698 99.91 64.6898 99.89 64.5998 99.88C64.2698 99.82 63.9398 99.74 63.6198 99.62C63.0898 99.43 62.4198 99.83 62.2998 100.37C62.1598 100.97 62.4798 101.49 63.0498 101.69V101.71Z" fill="#231F20"/>
<path d="M101.44 26.46C101.54 26.63 101.37 26.81 101.07 26.99C100.97 27.05 100.67 27.08 100.62 27.04C100.51 26.95 100.4 26.87 100.32 26.77C100.27 26.71 99.83 25.77 99.63 25.45C99.45 25.14 99.32 24.83 99.22 24.51L98.77 22.54C98.74 22.39 98.73 22.24 98.75 22.09C98.81 21.57 98.73 21.06 98.58 20.57C98.55 20.49 98.56 20.4 98.46 20.33C98.3 20.22 98.13 18.84 98.17 18.66C98.27 18.2 98.32 17.74 98.44 17.27C98.45 17.2 98.42 17.14 98.51 17.07C98.72 16.9 98.67 16.77 98.68 16.63C98.68 16.44 98.74 16.23 98.82 16.03C98.86 15.93 98.96 15.82 99.03 15.72C99.1 15.63 99.32 15.64 99.36 15.66C99.45 15.73 99.55 15.65 99.65 15.63C99.68 15.63 99.72 15.61 99.75 15.61C99.78 15.61 99.99 15.86 100.26 16.11C100.5 16.37 100.69 16.65 100.71 16.71C100.71 16.72 100.86 17.11 101.02 17.52C101.14 17.93 101.27 18.37 101.31 18.45C101.35 18.54 101.31 18.64 101.29 18.74C101.28 18.79 101.7 20.02 101.7 20.07C101.7 20.34 101.81 20.59 101.63 20.88C101.59 20.94 101.61 20.99 101.63 21.04C101.71 21.49 101.67 21.96 101.67 22.42C101.67 22.66 101.72 22.88 101.74 23.12C101.74 23.16 101.72 23.21 101.71 23.25C101.7 23.31 101.68 23.36 101.69 23.41C101.79 23.95 101.69 24.53 101.76 25.07C101.77 25.2 101.6 25.84 101.63 25.98C101.64 26.06 101.41 26.37 101.46 26.43L101.44 26.46Z" fill="#231F20"/>
<path d="M108.26 27.95C108.17 28.15 107.9 28.12 107.56 28C107.45 27.96 107.23 27.74 107.24 27.66C107.26 27.51 107.27 27.36 107.3 27.22C107.33 27.15 107.92 26.06 108.15 25.72C108.37 25.38 108.63 25.09 108.91 24.81C109.48 24.25 110.05 23.68 110.66 23.15C110.79 23.03 110.94 22.93 111.11 22.86C111.7 22.63 112.2 22.29 112.68 21.91C112.76 21.85 112.85 21.8 112.89 21.68C112.95 21.47 114.35 20.57 114.59 20.56C115.15 20.47 115.68 20.32 116.21 20.21C116.29 20.19 116.35 20.14 116.45 20.19C116.69 20.31 116.82 20.2 116.98 20.17C117.2 20.12 117.44 20.08 117.67 20.06C117.79 20.06 117.93 20.1 118.06 20.13C118.18 20.15 118.23 20.38 118.21 20.42C118.15 20.53 118.27 20.6 118.32 20.68C118.34 20.71 118.36 20.75 118.37 20.77C118.37 20.8 118.16 21.07 117.94 21.38C117.83 21.54 117.72 21.71 117.64 21.83C117.55 21.94 117.47 22.02 117.44 22.04C117.4 22.04 115.98 23.16 115.85 23.32C115.77 23.39 115.65 23.4 115.54 23.43C115.48 23.43 114.38 24.35 114.34 24.38C114.08 24.52 113.89 24.75 113.53 24.75C113.46 24.75 113.42 24.79 113.37 24.83C112.98 25.16 112.51 25.37 112.06 25.61C111.83 25.73 111.64 25.91 111.42 26.06C111.38 26.09 111.33 26.09 111.28 26.11C111.22 26.13 111.16 26.15 111.11 26.18C110.63 26.56 110.07 26.86 109.64 27.31C109.55 27.42 108.86 27.68 108.74 27.8C108.67 27.86 108.26 27.87 108.23 27.96L108.26 27.95Z" fill="#231F20"/>
</svg>
