<svg width="128" height="128" viewBox="0 0 128 128" fill="none" xmlns="http://www.w3.org/2000/svg">
<path d="M64.73 46.55C60.41 54.09 52.64 49.98 52.64 46.09C52.64 46.09 51.49 46.76 51.87 48.7C52.25 50.64 54.99 55.64 60.41 54.08C65.83 52.53 65.47 49.93 65.47 49.93L64.72 46.54L64.73 46.55Z" fill="#231F20"/>
<path d="M71.56 75.77C63.36 73.95 65.24 63.12 71.56 63.04C71.56 63.04 66.53 61.25 64.1 64.34C61.67 67.43 62.3 69.95 63.12 72.06C63.94 74.18 66.77 76.22 69.04 76.45C71.32 76.69 71.55 75.76 71.55 75.76L71.56 75.77Z" fill="#231F20"/>
<path d="M44.5498 82.59C49.5898 82.57 52.4198 91.18 44.9198 91.57C44.9198 91.57 43.9798 92.2 45.6098 92.98C47.2398 93.76 50.8698 93.23 52.5698 89.88C54.0198 87.02 52.8598 85.05 51.6298 83.33C50.3998 81.6 47.3898 81.09 46.0198 81.52C44.6498 81.95 44.5498 82.58 44.5498 82.58V82.59Z" fill="#231F20"/>
<path d="M98.8999 61.14C98.8999 61.14 89.2699 41.78 67.4899 37.07C52.4999 33.83 46.5799 31.28 45.6099 29.43C44.6399 27.58 67.2199 33.16 74.9499 36.95C82.6799 40.73 89.2499 45.93 93.0499 51.37C96.8599 56.81 98.8899 61.14 98.8899 61.14H98.8999Z" fill="#231F20"/>
<path d="M32.8902 73.36C33.7202 69.8 34.6802 66.28 35.6802 62.77C36.0402 61.49 36.3302 60.19 36.7102 58.92C38.0302 54.43 39.4202 49.97 40.6902 45.49C41.2502 43.5 41.7402 41.48 42.1702 39.49C42.4402 38.21 42.6902 36.92 42.8802 35.64C42.9402 35.32 42.9902 35 43.0202 34.68C43.0802 34.37 43.1602 34.05 43.2102 33.73C43.3102 33.1 43.4102 32.48 43.4902 31.86C43.5502 31.1 43.6102 31.1 44.0502 31.76C44.4802 32.41 45.0802 33.86 44.9602 35.45C44.2902 40.98 42.8202 46.16 41.2002 51.37C40.2202 54.47 39.4802 57.77 38.6402 60.99C37.7102 64.52 36.8202 68.05 35.9502 71.59C35.4202 73.77 34.9202 75.96 34.4802 78.15C33.8102 81.47 33.1902 84.83 32.8602 88.17C32.6002 90.77 32.5702 93.33 32.6602 95.89C32.6602 96.45 32.7202 97 32.7402 97.57C32.6802 99.67 32.5902 100.33 31.9802 100.84C31.8502 100.95 31.7202 101.1 31.5802 101.18C31.1402 101.43 30.6802 100.58 30.3502 98.98C29.5902 94.23 30.0602 89.19 30.7402 84.26C31.2702 80.59 32.0202 76.96 32.8102 73.36H32.8702H32.8902Z" fill="#231F20"/>
<path d="M68.6901 14.53C75.3001 16.33 81.7001 18.9 87.6201 22.36C93.5601 25.78 99.0101 30.08 103.67 35.15C107.04 38.87 110.01 42.99 112.27 47.49C112.76 48.48 113.28 49.47 113.68 50.5C114.09 51.53 114.58 52.53 114.9 53.59L115.44 55.16C115.6 55.72 115.82 56.04 115.96 57.12C115.98 57.9 115.88 58.54 115.75 59.14C115.62 59.75 115.44 60.32 115.24 60.88C114.4 63.1 113.2 65.17 111.47 66.87C109.76 68.56 107.49 69.84 105.03 70.21C104.73 70.26 104.42 70.26 104.11 70.29L103.65 70.32C103.55 70.32 103.66 70.32 103.6 70.32H103.53L102.99 70.54C102.76 70.64 102.53 70.71 102.3 70.83C101.38 71.25 100.46 71.73 99.5601 72.25C97.7501 73.28 95.9801 74.46 94.2201 75.66C90.7101 78.08 87.2501 80.64 83.7401 83.14C77.5201 87.59 71.1601 92 64.4101 95.63C62.2601 96.83 60.0001 97.84 57.7201 98.79C55.4401 99.74 53.1101 100.6 50.7301 101.3C48.3401 101.97 45.9201 102.55 43.4501 102.85C42.2201 103.05 40.9801 103.11 39.7401 103.2C39.1201 103.26 38.5001 103.18 37.8801 103.17C37.2601 103.13 36.6401 103.16 36.0201 103.05C32.9501 102.61 33.4201 102.5 35.9801 102.03C37.2601 101.79 39.0401 101.32 41.1401 100.87C42.1901 100.67 43.3201 100.32 44.5201 100.05C45.7101 99.7 46.9701 99.4 48.2701 99C50.5801 98.35 52.8501 97.51 55.0701 96.58C57.3101 95.67 59.4201 94.46 61.5801 93.36C65.8901 91.13 70.0701 88.59 74.1501 85.85C78.2401 83.13 82.2501 80.22 86.3001 77.31C90.3801 74.43 94.4401 71.46 99.0501 69C99.7301 68.62 100.47 68.31 101.19 67.96L102.35 67.5L102.78 67.33C102.94 67.31 103.1 67.31 103.27 67.29L103.9 67.25C105.16 67.18 106.41 66.83 107.5 66.15C109.71 64.83 111.43 62.44 112.34 59.83C112.55 59.19 112.76 58.51 112.81 57.91C112.84 57.75 112.84 57.63 112.84 57.5V57.32C112.84 57.32 112.83 57.26 112.83 57.23C112.83 57.19 112.84 57.19 112.81 57.11L112.72 56.86L112.53 56.33L111.79 54.21C111.54 53.51 111.21 52.83 110.93 52.14C110.38 50.75 109.66 49.43 109 48.1C108.66 47.43 108.26 46.81 107.89 46.16C107.51 45.52 107.15 44.86 106.72 44.26C104.98 41.48 102.88 38.95 100.65 36.54C98.4201 34.13 95.9401 31.94 93.3201 29.94C88.0901 25.92 82.2201 22.72 76.0701 20.22C72.2801 18.7 68.3801 17.43 64.3901 16.55C62.4001 16.09 60.3901 15.74 58.3701 15.5C56.3601 15.27 54.3101 15.15 52.4001 15.35C52.0201 15.37 51.7101 15.47 51.3701 15.52C51.0701 15.63 50.8201 15.68 50.5001 15.87C49.8901 16.2 49.3201 16.61 48.8201 17.09C47.8201 18.06 47.0901 19.33 46.7101 20.68C46.3501 22.06 46.1701 23.61 46.3001 25C46.3301 25.34 46.4001 25.69 46.4801 25.9C46.6401 26.12 46.7101 26.39 46.9601 26.59C47.3401 27.05 47.9801 27.38 48.6101 27.69C49.9301 28.29 51.4401 28.66 52.9401 29.02C54.4501 29.37 55.9801 29.68 57.5201 30.01C60.5901 30.65 63.6701 31.34 66.6901 32.24C71.3901 33.63 75.9501 35.46 80.1601 37.93C82.2801 39.14 84.2701 40.57 86.2101 42.06C88.1001 43.61 89.9301 45.25 91.5801 47.06C92.3101 47.85 93.0501 48.63 93.7201 49.47C94.4001 50.3 95.1001 51.11 95.7101 52.01C98.0901 55.27 99.3001 57.65 100.07 59.34C100.86 61.02 101 62.14 101.02 63.07C101.02 63.49 101.09 64.03 101.04 64.29C100.95 64.74 100.45 64.29 99.6001 63.14C99.1501 62.57 98.7101 61.78 98.1201 60.87C97.5101 59.97 96.9001 58.87 96.1101 57.7C93.8501 54.18 91.2301 50.84 88.2101 47.87C85.2001 44.9 81.7901 42.3 78.0801 40.15C74.3401 38.04 70.3301 36.36 66.1301 35.12C61.9301 33.84 57.5801 33.02 53.0801 32.06C51.4001 31.68 49.7001 31.3 47.8901 30.58C47.0001 30.22 46.0401 29.74 45.1201 28.91C44.8901 28.68 44.6701 28.45 44.4601 28.22C44.2701 27.93 44.0901 27.63 43.9201 27.33C43.5301 26.61 43.4701 25.98 43.3901 25.47C43.2701 24.41 43.3001 23.46 43.3901 22.5C43.5001 21.52 43.6301 20.67 43.9401 19.63C44.5401 17.67 45.6701 15.86 47.2801 14.5C47.6801 14.16 48.1001 13.85 48.5501 13.58C49.0201 13.3 49.3901 13.07 50.0401 12.85C51.2301 12.44 52.1401 12.39 53.1001 12.31C54.9701 12.21 56.7201 12.34 58.4801 12.52C61.9801 12.88 65.3801 13.56 68.7301 14.46V14.54L68.6901 14.53Z" fill="#231F20"/>
<path d="M63.1202 54.43C60.7102 55.56 58.0202 55.5 55.6402 54.55C54.7602 54.22 53.9202 53.73 53.2002 53.08C52.5702 52.45 52.1402 51.79 51.7402 51.1C51.5702 50.73 51.3902 50.37 51.2402 50C51.1302 49.61 51.0002 49.23 50.9102 48.84C50.5902 47.25 50.8102 45.59 51.5002 44.18C51.6502 43.87 51.8002 43.55 52.0002 43.27C52.1902 42.98 52.3702 42.68 52.6002 42.43C53.0402 41.9 53.5702 41.46 54.1202 41.08C54.4802 40.85 54.8402 40.6 55.2402 40.44L55.8302 40.18L56.4502 40.01C57.2802 39.8 58.1602 39.85 58.9602 40.12C59.4602 40.27 59.3602 40.39 58.9602 40.71C58.5502 41 57.9202 41.72 57.2802 42.05C56.0802 42.55 55.1702 43.38 54.4902 44.29C53.8002 45.2 53.3702 46.31 53.3402 47.53C53.3402 48.27 53.6002 49.01 54.0102 49.69C54.2402 50 54.4802 50.37 54.7502 50.62C55.0002 50.89 55.3002 51.11 55.5902 51.33C56.9702 52.25 58.9302 52.49 60.7002 52.1C61.7802 51.87 62.8602 51.39 63.5502 50.59C63.8202 50.29 64.0302 49.96 64.2102 49.6C64.3802 49.21 64.5102 48.8 64.5902 48.37C64.7502 47.52 64.6902 46.62 64.4102 45.78C64.2102 45.13 63.8602 44.53 63.4302 44.02C63.0202 43.5 62.5102 43.06 61.9802 42.68C61.7502 42.51 61.5202 42.35 61.2802 42.18C60.8602 41.85 60.5602 41.66 60.4102 41.39C60.2802 41.07 60.2202 40.82 60.2102 40.53C60.2102 40.39 60.1802 40.25 60.1902 40.13C60.2102 39.93 60.3602 39.8 60.6502 39.73C60.8302 39.7 61.0102 39.66 61.2202 39.62C61.4602 39.56 61.6702 39.66 61.9202 39.73C62.3002 39.84 62.6602 40 63.0302 40.17C63.4102 40.32 63.7402 40.56 64.0702 40.81C64.7002 41.34 65.3102 41.94 65.7802 42.66C66.7602 44.07 67.2902 45.83 67.3002 47.64C67.3302 48.31 67.2402 48.99 67.0902 49.66C67.0302 50 66.8902 50.32 66.7902 50.65C66.6602 50.98 66.4702 51.33 66.3002 51.66C65.5202 52.96 64.3602 53.87 63.1602 54.47L63.1202 54.41V54.43Z" fill="#231F20"/>
<path d="M64.9401 75.99C62.9101 74.28 61.7701 71.81 61.6301 69.2C61.5801 68.73 61.6301 68.24 61.6301 67.76C61.7101 67.28 61.7401 66.79 61.9401 66.33L62.1701 65.72C62.2601 65.53 62.3601 65.36 62.4601 65.18C62.6601 64.83 62.8301 64.47 63.1001 64.15C63.5701 63.49 64.1501 62.9 64.7901 62.41C66.0901 61.42 67.6901 60.88 69.2701 60.86C69.6201 60.84 69.9701 60.86 70.3101 60.9L70.8301 60.95L71.3401 61.06C71.6801 61.13 72.0101 61.23 72.3201 61.38C72.6401 61.51 72.9601 61.63 73.2501 61.82C73.6301 62.03 74.0101 62.25 74.3401 62.54C74.7001 62.79 75.0001 63.1 75.2901 63.42C75.8601 64.07 76.2301 64.87 76.3701 65.71C76.4701 66.23 76.3201 66.2 75.8501 65.99C75.4001 65.75 74.4601 65.53 73.8701 65.1C72.8501 64.24 71.6801 63.8 70.5301 63.61C69.3801 63.36 68.1701 63.52 67.0301 64.03C66.3801 64.38 65.7501 64.89 65.3501 65.61C65.1001 65.93 64.9901 66.35 64.7901 66.7C64.6801 67.06 64.5601 67.41 64.5201 67.8C64.2501 69.46 64.8701 71.36 66.0001 72.84C66.6801 73.76 67.6001 74.51 68.6301 74.89C69.4101 75.17 70.2101 75.2 71.1401 75.02C72.0301 74.86 72.8901 74.52 73.6001 73.99C74.7201 73.17 75.3401 71.93 75.5401 70.67C75.5801 70.39 75.6401 70.12 75.6701 69.84C75.7801 69.32 75.8001 68.96 75.9701 68.7C76.1901 68.43 76.3801 68.26 76.6401 68.11C76.7601 68.04 76.8701 67.95 76.9901 67.9C77.1801 67.82 77.3601 67.9 77.5601 68.13C77.7401 68.36 78.1401 68.74 78.1501 69.27C78.2801 70.05 78.3301 70.91 78.1301 71.75C77.9201 72.59 77.5601 73.42 77.0501 74.18C76.5301 74.92 75.8701 75.57 75.1401 76.1C74.4001 76.64 73.5801 76.99 72.7601 77.32C72.1401 77.54 71.5101 77.72 70.8601 77.81C70.7001 77.83 70.5401 77.86 70.3701 77.88L69.8001 77.9C69.4201 77.92 69.0501 77.89 68.6801 77.82C67.2001 77.58 65.9301 76.9 64.8901 76.05L64.9301 75.99H64.9401Z" fill="#231F20"/>
<path d="M53.8001 86.89C53.9301 89.25 52.6101 91.44 50.8001 92.66C50.1501 93.13 49.4501 93.51 48.7001 93.73C47.4301 94.08 46.0501 94.14 44.7401 93.82C43.4401 93.5 42.2401 92.78 41.3801 91.79C41.0101 91.34 40.6701 90.87 40.4001 90.36C40.1501 89.84 39.9601 89.3 39.8701 88.74C39.7201 88.03 39.7001 87.3 39.8001 86.6C39.9201 85.9 40.2301 85.24 40.7101 84.72C40.9901 84.39 41.0801 84.51 41.2401 84.92C41.3801 85.34 41.8501 86.06 41.9001 86.63C41.9301 87.69 42.2901 88.57 42.7501 89.32C43.1501 90.11 43.8101 90.75 44.6901 91.18C45.7501 91.75 47.2001 91.41 48.3401 90.93C49.5801 90.38 50.5301 89.25 50.8501 87.91C51.0801 87.09 51.0201 86.18 50.6601 85.4C50.3901 84.8 49.9701 84.28 49.3901 83.81C48.8401 83.34 48.2001 83 47.5301 82.89C46.4801 82.71 45.5101 83.13 44.7101 83.78C44.5301 83.92 44.3501 84.06 44.1601 84.2C43.8001 84.45 43.5501 84.62 43.2901 84.65C42.9801 84.65 42.7501 84.6 42.5001 84.5C42.3801 84.45 42.2501 84.42 42.1501 84.37C41.9801 84.28 41.9101 84.11 41.9201 83.85C41.9401 83.6 41.9101 83.13 42.2001 82.82C42.3801 82.55 42.5801 82.29 42.8101 82.04C43.0201 81.77 43.2901 81.55 43.5801 81.35C44.1701 80.96 44.8501 80.63 45.6301 80.46C46.4001 80.29 47.2301 80.28 48.0201 80.44C48.8201 80.58 49.5201 80.94 50.1901 81.28C50.6801 81.55 51.1201 81.87 51.5301 82.21C51.9301 82.55 52.3901 83.01 52.7201 83.51C53.4101 84.5 53.8101 85.7 53.8801 86.89H53.8101H53.8001Z" fill="#231F20"/>
<path d="M54.2002 26.57C54.2802 25.73 54.4802 24.91 54.6802 24.11C54.7602 23.82 54.8102 23.52 54.9002 23.24C55.2702 22.24 55.8002 21.33 56.3902 20.5C56.6302 20.12 56.8702 19.74 57.1302 19.38C57.4202 18.89 57.8602 18.5 58.3202 18.17C58.4702 18.07 58.5602 18.18 58.6102 18.42C58.6602 18.65 58.7102 19.02 58.6102 19.32L58.4602 19.7C58.4302 19.84 58.3802 19.96 58.3202 20.08C58.2002 20.31 58.0902 20.54 57.9702 20.77C57.7702 21.24 57.5202 21.69 57.2802 22.15C56.9802 22.7 56.8702 23.35 56.7602 23.97C56.6002 24.65 56.5202 25.34 56.4702 26.05C56.4702 26.48 56.4302 26.92 56.4802 27.35C56.5302 28.01 56.6002 28.67 56.8102 29.29C56.9002 29.53 57.0402 29.74 57.1702 29.95C57.3302 30.15 57.4802 30.34 57.6202 30.54C57.6802 30.62 57.7702 30.69 57.8102 30.78C57.9102 31.15 57.8102 31.34 57.4302 31.73L57.1802 31.99C56.8902 32.26 56.5002 32.31 56.0802 32.12C54.8902 31.49 54.5402 30.27 54.2602 29.16C54.0802 28.31 54.0602 27.44 54.1302 26.59H54.1902L54.2002 26.57Z" fill="#231F20"/>
<path d="M48.54 26.2C48.61 25.53 48.76 24.88 48.93 24.26C49 24.03 49.01 23.8 49.09 23.58C49.39 22.8 49.81 22.1 50.27 21.46C50.45 21.16 50.63 20.88 50.81 20.59C51.01 20.2 51.35 19.9 51.71 19.64C51.83 19.56 51.93 19.67 52.02 19.87C52.1 20.07 52.21 20.38 52.17 20.62C52.09 21.05 51.98 21.42 51.81 21.76C51.69 22.13 51.51 22.46 51.34 22.8C51.12 23.21 51.07 23.7 51 24.16C50.9 24.66 50.84 25.18 50.82 25.69C50.81 26.01 50.82 26.33 50.85 26.65C50.91 27.13 50.95 27.63 51.15 28.07C51.3 28.42 51.64 28.66 51.86 28.92C51.91 28.97 51.98 29.01 52.02 29.07C52.08 29.35 51.97 29.52 51.6 29.91L51.35 30.17C51.07 30.44 50.71 30.55 50.32 30.45C49.23 30.08 48.9 29.11 48.64 28.24C48.45 27.58 48.45 26.87 48.48 26.2H48.54Z" fill="#231F20"/>
<path d="M61.5901 29.05C61.7101 28.33 61.9001 27.63 62.1301 26.95C62.2001 26.7 62.2401 26.44 62.3501 26.2C62.6801 25.34 63.2601 24.57 63.8301 23.88C64.1101 23.59 64.3201 23.26 64.6201 22.99C64.9401 22.6 65.4101 22.35 65.8801 22.18C66.0301 22.13 66.0901 22.27 66.1001 22.49C66.1001 22.71 66.1001 23.06 65.9801 23.28C65.8401 23.45 65.8101 23.71 65.6701 23.86C65.5501 24.03 65.4301 24.19 65.3401 24.37C65.1201 24.71 64.9301 25.07 64.6801 25.42C64.5401 25.64 64.4701 25.89 64.3801 26.13C64.3101 26.38 64.2801 26.65 64.2001 26.91C64.0601 27.48 63.9501 28.06 63.8901 28.66C63.8701 29.03 63.8201 29.4 63.8501 29.77C63.8701 30.33 63.8701 30.9 64.0401 31.43C64.1601 31.85 64.5001 32.16 64.7001 32.46C64.7501 32.52 64.8201 32.55 64.8601 32.61C64.8901 32.76 64.8601 32.84 64.7901 32.95C64.7201 33.07 64.6101 33.22 64.4401 33.44L64.2301 33.74C64.0001 34.06 63.6401 34.2 63.1501 33.99C62.8401 33.88 62.5901 33.65 62.4101 33.44C62.2201 33.24 62.0601 32.99 61.9601 32.75C61.7301 32.27 61.6101 31.77 61.5201 31.27C61.4001 30.53 61.4501 29.78 61.5401 29.05H61.6001H61.5901Z" fill="#231F20"/>
<path d="M81.3399 59.41C83.6599 59.23 85.9799 59.27 88.2899 59.51C89.0099 59.58 89.6999 58.82 89.6699 58.13C89.6299 57.32 89.0599 56.84 88.2899 56.75C85.9799 56.51 83.6499 56.48 81.3399 56.65C80.6199 56.7 79.9299 57.24 79.9599 58.03C79.9899 58.73 80.5699 59.46 81.3399 59.41Z" fill="#231F20"/>
<path d="M49.8998 66.68C48.7798 64.84 47.7498 62.95 46.7898 61.01C46.4698 60.36 45.4998 60.13 44.9098 60.52C44.2498 60.95 44.0798 61.71 44.4198 62.4C45.3698 64.33 46.4098 66.23 47.5298 68.07C47.8998 68.68 48.7798 68.97 49.4098 68.56C50.0398 68.15 50.2998 67.34 49.8998 66.68Z" fill="#231F20"/>
<path d="M59.3398 86.44C61.1198 86.73 62.9198 86.87 64.7298 86.8C65.4498 86.77 66.1398 86.19 66.1098 85.42C66.0798 84.7 65.4998 84.02 64.7298 84.04C63.9098 84.07 63.0798 84.06 62.2598 84.01C61.8598 83.99 61.4498 83.95 61.0498 83.91C60.9498 83.9 60.8598 83.89 60.7598 83.88C60.6998 83.88 60.6298 83.86 60.5698 83.86L60.7398 83.88C60.5198 83.87 60.2898 83.81 60.0698 83.78C59.6898 83.72 59.3498 83.72 59.0098 83.92C58.7198 84.09 58.4498 84.41 58.3798 84.74C58.2298 85.4 58.5798 86.31 59.3398 86.43V86.44Z" fill="#231F20"/>
<path d="M97.62 52.38C98.14 52.35 98.66 52.28 99.17 52.14C99.35 52.08 99.52 51.99 99.7 51.92C100.35 51.71 100.98 51.4 101.55 50.98C101.83 50.82 102.03 50.58 102.25 50.35C102.48 50.02 102.79 49.76 103.15 49.49C103.27 49.41 103.4 49.51 103.51 49.71C103.62 49.91 103.75 50.25 103.69 50.54C103.59 51.05 103.28 51.43 102.99 51.82C102.69 52.21 102.27 52.49 101.83 52.71C101.3 52.97 100.84 53.36 100.31 53.61C99.72 53.87 99.1 54.08 98.48 54.2C98.1 54.29 97.71 54.34 97.32 54.38C96.73 54.43 96.15 54.43 95.58 54.45C95.13 54.48 94.69 54.59 94.24 54.65C94.14 54.66 94.04 54.69 93.94 54.67C93.57 54.62 93.48 54.46 93.48 53.96C93.48 53.85 93.48 53.73 93.48 53.62C93.51 53.24 93.69 52.94 93.95 52.82C94.7 52.49 95.38 52.51 96.08 52.46C96.6 52.45 97.11 52.38 97.62 52.34V52.39V52.38Z" fill="#231F20"/>
<path d="M93.6602 47.22C94.0102 47.19 94.3702 47.16 94.7102 47.05C94.8402 47.02 94.9402 46.93 95.0702 46.89C95.5202 46.75 95.9702 46.56 96.4102 46.32C96.6102 46.21 96.7802 46.08 96.9402 45.93C97.1502 45.74 97.3302 45.52 97.6302 45.41C97.7202 45.38 97.8702 45.54 97.9802 45.75C98.0902 45.96 98.1702 46.25 98.0802 46.41C97.7402 46.93 97.3502 47.47 96.7102 47.7C96.3402 47.85 96.0602 48.14 95.7002 48.33C95.3102 48.53 94.8902 48.69 94.4702 48.81C94.2102 48.89 93.9502 48.94 93.6902 48.99C93.2902 49.06 92.9002 49.08 92.5202 49.16C92.2202 49.23 91.9502 49.38 91.6602 49.49C91.6002 49.52 91.5302 49.53 91.4702 49.53C91.2202 49.52 91.1402 49.39 91.0602 48.98L91.0102 48.7C90.9702 48.39 91.0502 48.12 91.2002 47.96C91.4302 47.7 91.6602 47.58 91.9002 47.51C92.1302 47.43 92.3802 47.39 92.6102 47.34C92.9602 47.29 93.3002 47.22 93.6502 47.19V47.23L93.6602 47.22Z" fill="#231F20"/>
<path d="M85.5801 105.45C86.4201 107.25 85.9401 108.59 84.3901 108.98C82.4901 109.46 81.2201 107.95 81.2201 107.95C81.2201 107.95 80.9001 112.23 84.3801 111.68C87.8501 111.14 87.6901 109.32 87.4901 107.95C87.2901 106.58 85.5901 105.45 85.5901 105.45H85.5801Z" fill="#231F20"/>
<path d="M87.8501 109.96C87.4201 110.71 86.7801 111.26 86.1101 111.67C85.4201 112.06 84.6601 112.24 83.8901 112.3C83.3401 112.35 82.7501 112.35 82.1801 112.19C81.1801 111.9 80.2901 111.17 79.8201 110.3C79.2901 109.45 79.2701 108.41 79.4301 107.55C79.5801 106.77 79.9201 106.04 80.4401 105.46C81.0701 104.69 82.2001 104.22 83.1401 104.53C83.4401 104.61 83.3201 104.88 83.1001 105.17C82.8601 105.45 82.5901 105.82 82.3601 105.99C81.4801 106.59 81.3501 107.87 81.6201 108.77C81.7501 109.43 82.3801 109.72 83.0301 109.78C83.7801 109.87 84.6501 109.58 85.3001 109.08C85.7001 108.76 85.9501 108.34 86.1101 107.83C86.3101 107.03 86.1101 106.02 85.2201 105.77C84.5701 105.56 83.8001 105.75 83.1801 106.09C83.0401 106.17 82.9101 106.25 82.7801 106.34C82.3001 106.67 82.1401 106.76 81.8401 106.69C81.7701 106.67 81.7001 106.67 81.6401 106.64C81.4601 106.58 81.4701 106.21 81.8501 105.79C82.4101 105.17 83.1801 104.75 84.0801 104.52C84.9701 104.28 86.1301 104.42 87.1001 105.21C87.8101 105.81 88.1601 106.66 88.3101 107.45C88.4701 108.28 88.3501 109.24 87.9001 110L87.8401 109.97L87.8501 109.96Z" fill="#231F20"/>
<path d="M66.7198 115.04C65.7798 115.43 64.7298 115.45 63.7998 115.18C63.4598 115.08 63.1198 114.98 62.8398 114.75C62.5598 114.6 62.3398 114.31 62.1798 114.02C62.0098 113.74 61.8898 113.43 61.7898 113.1C61.7198 112.99 61.7298 112.8 61.6898 112.67C61.6598 112.53 61.5898 112.42 61.5998 112.26C61.5698 111.97 61.6098 111.68 61.6898 111.4C61.6798 111.2 61.7998 110.95 61.9198 110.76C62.0498 110.55 62.0098 110.43 62.1898 110.24C62.2398 110.13 62.4398 110.02 62.5598 109.9C62.6898 109.78 62.7898 109.66 62.9198 109.54C63.1098 109.43 63.4398 109.34 63.6998 109.25C63.9698 109.17 64.2098 109.18 64.4498 109.16C64.7598 109.13 64.6898 109.31 64.6898 109.5C64.6598 109.69 64.7898 109.83 64.8298 109.82C64.8298 109.82 64.8398 109.81 64.7498 109.85C64.6598 109.89 64.4698 110.02 64.2698 110.36L64.2398 110.42V110.45L64.2198 110.47C64.2198 110.48 64.2398 110.45 64.1698 110.53C64.1698 110.63 64.1698 110.77 64.2298 110.84C64.2798 110.92 64.3598 110.96 64.4298 111.05C64.5998 111.27 64.8798 111.47 65.2098 111.48C65.4098 111.49 65.6298 111.45 65.7598 111.29C65.9798 111.08 66.1098 110.74 65.9798 110.35C65.8798 110.04 65.5598 109.77 65.3598 109.66C65.3098 109.63 65.2498 109.62 65.2198 109.6C65.0998 109.51 65.1798 109.44 65.3798 108.97L65.5198 108.66C65.5998 108.49 65.7198 108.37 65.8798 108.3C65.9598 108.26 66.0698 108.26 66.1898 108.26C66.3498 108.22 66.4398 108.3 66.5698 108.36C66.9298 108.56 67.3798 108.81 67.6398 109.18C67.7998 109.37 67.9598 109.55 68.1198 109.73C68.2198 109.93 68.3298 110.13 68.4098 110.34C68.7298 111.17 68.7498 111.99 68.5998 112.71C68.4698 113.23 68.2898 113.77 67.9098 114.11C67.5798 114.5 67.1998 114.88 66.7298 115.1L66.6998 115.03L66.7198 115.04Z" fill="#231F20"/>
<path d="M14.8999 81.55C14.8999 81.55 19.0799 82.09 17.7799 77C17.7799 77 19.3699 76.63 19.7599 78.78C20.1499 80.93 19.5999 82.06 18.3499 82.51C17.0899 82.97 14.8999 81.55 14.8999 81.55Z" fill="#231F20"/>
<path d="M20.68 79.48C20.62 80.72 20.14 81.97 19.1 82.9C18.91 83.06 18.69 83.21 18.49 83.36C18.27 83.49 18.02 83.59 17.78 83.67C16.88 83.89 16.07 83.69 15.4 83.44C14.75 83.16 14.09 82.76 13.64 82.14C13.24 81.6 12.98 80.92 12.97 80.25C12.95 79.39 13.34 78.55 14 78.15C14.2 78.02 14.39 78.28 14.54 78.63C14.68 78.98 14.84 79.4 14.82 79.63C14.75 80.05 14.89 80.31 15.03 80.51C15.1 80.62 15.22 80.7 15.33 80.83C15.43 80.97 15.6 81.11 15.78 81.27C16.02 81.44 16.32 81.52 16.57 81.52C16.83 81.52 17.02 81.45 17.19 81.37C17.57 81.21 17.97 80.67 18.09 79.99C18.17 79.58 18.2 79.13 18.09 78.73C17.92 78.11 17.62 77.64 16.95 77.44C16.46 77.28 15.88 77.44 15.66 77.63C15.62 77.68 15.59 77.73 15.59 77.76C15.57 77.81 15.54 77.77 15.38 77.71C15.24 77.66 15.04 77.61 14.74 77.53L14.33 77.45C14.11 77.4 13.93 77.3 13.81 77.09C13.69 76.89 13.64 76.56 13.81 76.2C14.1 75.7 14.59 75.35 15.07 75.15C15.55 74.95 16.03 74.88 16.48 74.88C17.39 74.9 18.21 75.14 19.05 75.74C19.7 76.24 20.15 76.89 20.39 77.54C20.66 78.19 20.74 78.84 20.76 79.48H20.7H20.68Z" fill="#231F20"/>
</svg>
