<svg width="128" height="128" viewBox="0 0 128 128" fill="none" xmlns="http://www.w3.org/2000/svg">
<path d="M17.7699 108.66C8.34988 107.45 7.67988 97.38 8.49988 92.08C8.49988 92.08 6.56988 98.53 6.64988 101.4C6.72988 104.27 7.31988 106.2 9.61988 107.28C11.9199 108.36 17.7699 108.66 17.7699 108.66Z" fill="#231F20"/>
<path d="M35.76 110.94C39.7201 111.35 43.6901 111.68 47.6701 111.92C49.1201 112.01 50.5801 112 52.0301 112.07C57.1601 112.31 62.2901 112.47 67.4201 112.4C69.7001 112.35 71.9801 112.25 74.2301 112.06C75.6701 111.94 77.1101 111.77 78.5401 111.59C79.9801 111.48 81.41 111.4 82.84 111.27C83.72 111.18 83.6901 111.37 83.0401 111.93C82.3901 112.49 81.0601 113.37 79.3801 113.86C76.3801 114.41 73.3701 114.67 70.3701 114.85C67.3601 114.99 64.3501 114.95 61.3301 114.82C57.7201 114.66 53.9701 114.75 50.2801 114.62C46.2301 114.46 42.18 114.21 38.1401 113.84C35.6501 113.62 33.1701 113.35 30.6901 113.05C26.9301 112.6 23.18 112 19.4701 111.29C16.5901 110.73 13.7401 110.23 10.9101 109.18C10.2901 108.94 9.67005 108.71 9.05005 108.37C7.91005 107.75 7.21005 107.09 6.87005 106.5C6.54005 105.89 6.53005 105.4 6.74005 105C6.84005 104.81 6.93005 104.61 7.05005 104.51C7.26005 104.33 7.57005 104.44 7.87005 104.63C8.21005 104.82 8.62005 105.08 9.22005 105.47C11.0801 106.59 13.5901 107.26 16.0701 107.87C18.5801 108.47 21.2001 108.95 23.8301 109.37C27.7501 109.99 31.7401 110.49 35.7301 110.85V110.92L35.76 110.94Z" fill="#231F20"/>
<path d="M54.3502 30.75C53.8802 30.23 53.3802 29.72 52.8402 29.25C52.6402 29.08 52.4002 28.98 52.2102 28.79C51.5302 28.14 50.8302 27.5 50.0702 26.95C49.7202 26.72 49.3602 26.5 49.0002 26.3C48.5302 26.04 48.0402 25.87 47.6802 25.35C47.5602 25.19 47.6302 25.07 47.8502 24.89C48.0702 24.72 48.5102 24.36 48.8402 24.41C49.4602 24.44 50.0202 24.61 50.5802 24.79C51.1002 25.06 51.5802 25.38 52.0202 25.77C52.5402 26.24 53.2302 26.49 53.8102 26.9C54.4402 27.37 55.0302 27.88 55.6002 28.41C55.9602 28.73 56.2902 29.09 56.6402 29.42C57.1602 29.94 57.6202 30.51 58.1402 31.04C58.5302 31.46 59.0002 31.82 59.4002 32.28C59.4902 32.38 59.6002 32.46 59.6602 32.58C59.9102 33.02 59.8102 33.25 59.2702 33.61C59.1502 33.69 59.0302 33.78 58.9002 33.85C58.4702 34.08 58.0102 34.11 57.7202 33.96C56.9002 33.48 56.2702 32.97 55.6902 32.29C55.2502 31.8 54.7902 31.29 54.2902 30.8L54.3302 30.75H54.3502Z" fill="#231F20"/>
<path d="M56.6798 27.57C57.1498 27.33 57.6198 27.03 58.0698 26.7C58.2398 26.58 58.3398 26.4 58.5098 26.28C59.0998 25.82 59.7098 25.36 60.2998 24.9C60.5498 24.68 60.7698 24.43 61.0198 24.2C61.1798 24.06 61.2898 23.87 61.5198 23.78C61.7398 23.68 61.9498 23.57 62.1498 23.46C62.2798 23.4 62.3098 23.44 62.3398 23.61C62.3698 23.78 62.4198 24.08 62.4698 24.43C62.4698 24.56 62.4998 24.73 62.4698 24.84L62.3698 25.17C62.2898 25.38 62.2398 25.62 62.1098 25.8C61.8598 26.16 61.5698 26.51 61.2098 26.79C60.7398 27.1 60.4598 27.61 60.0598 28C59.6198 28.44 59.1398 28.84 58.6398 29.23C58.3298 29.47 58.0098 29.68 57.6698 29.89C57.1698 30.22 56.6198 30.46 56.1098 30.77C55.7098 31 55.3298 31.31 54.8798 31.49C54.7798 31.53 54.6898 31.6 54.5898 31.62C54.1998 31.71 54.0298 31.52 53.8698 31.03C53.8298 30.92 53.7898 30.81 53.7698 30.7C53.6798 30.33 53.7698 29.96 53.9198 29.71C54.1798 29.42 54.4098 29.14 54.6398 28.9C54.8798 28.69 55.1498 28.54 55.4198 28.36C55.8198 28.09 56.2498 27.84 56.6598 27.52L56.6998 27.57H56.6798Z" fill="#231F20"/>
<path d="M114.08 91C114.08 91 119.5 89.22 121.12 90.54C123.08 92.14 111.96 99.56 110.96 99.76C109.96 99.96 115.07 94.64 114.57 93.55C114.07 92.45 114.08 91.01 114.08 91.01V91Z" fill="#231F20"/>
<path d="M112.44 83.16C112.7 84.38 112.93 85.61 113.14 86.84C113.22 87.29 113.34 87.73 113.41 88.18C113.63 89.77 113.77 91.38 113.83 93C113.86 93.72 113.92 94.44 113.87 95.18C113.85 95.65 113.82 96.14 113.69 96.64C113.53 97.1 113.19 97.7 112.52 97.88C112.1 97.93 112.23 97.72 112.32 97.43C112.43 97.11 112.17 96.75 112.09 96.36C112.17 95.7 112.07 94.82 112.07 93.98C112.06 93.11 112.05 92.23 112.04 91.32C112.03 90.23 111.74 89.13 111.55 88.04C111.34 86.84 111.1 85.63 110.83 84.43C110.67 83.69 110.49 82.96 110.3 82.23C110 81.13 109.73 80 109.34 78.94C109.05 78.1 108.6 77.35 108.28 76.55L108.07 76.02C107.83 75.35 107.86 75.09 108.08 74.81C108.13 74.75 108.17 74.68 108.22 74.63C108.37 74.48 108.72 74.63 109.09 75.07C110.25 76.32 110.84 77.94 111.44 79.52C111.88 80.7 112.19 81.93 112.49 83.16H112.45H112.44Z" fill="#231F20"/>
<path d="M38.98 38.34C40.39 37.34 41.84 36.39 43.32 35.48C43.86 35.15 44.37 34.76 44.93 34.47C46.91 33.42 48.96 32.48 51.12 31.79C52.07 31.48 53.06 31.19 54.07 31.01C54.71 30.86 55.41 30.87 56.08 30.94C56.25 30.96 56.42 31.01 56.59 31.04C56.75 31.12 56.91 31.17 57.07 31.27C57.38 31.45 57.66 31.64 57.91 31.88C58.22 32.17 58.14 32.16 57.76 32.2C57.57 32.22 57.32 32.25 57.02 32.39C56.87 32.45 56.72 32.51 56.57 32.58C56.49 32.63 56.42 32.65 56.34 32.71C56.27 32.71 56.2 32.73 56.12 32.73C55.86 32.74 55.59 32.79 55.34 32.83L54.94 32.92C54.81 32.92 54.67 32.94 54.54 32.97C54 33.05 53.44 33.17 52.89 33.33C51.77 33.64 50.64 34.05 49.48 34.48C48.09 35 46.81 35.89 45.51 36.69C44.07 37.55 42.64 38.47 41.25 39.44C40.39 40.03 39.54 40.65 38.71 41.28C37.45 42.25 36.19 43.22 35.03 44.29C34.13 45.12 33.35 46.05 32.51 46.91C32.33 47.1 32.16 47.3 31.97 47.49C31.25 48.18 30.93 48.3 30.41 48.08C30.29 48.03 30.16 47.99 30.06 47.93C29.71 47.72 29.76 47.19 30.19 46.56C30.83 45.64 31.52 44.72 32.31 43.88C33.11 43.05 33.98 42.27 34.86 41.5C36.18 40.37 37.56 39.3 38.96 38.26L39 38.3L38.98 38.34Z" fill="#231F20"/>
<path d="M51.9102 102.43C39.1602 99.42 44.2602 84.05 49.4702 81.53C49.4702 81.53 45.1202 75.12 43.6902 75.06C42.2602 75 34.0702 81.95 31.5202 86.9C28.9702 91.85 26.7302 99.57 27.1902 100.5C27.6502 101.43 34.6102 103.06 38.7002 103.6C42.7902 104.13 51.9102 103.62 51.9102 103.62V102.43Z" fill="#231F20"/>
<path d="M76.43 57.04C78.34 61.32 79.92 65.74 81.35 70.19C81.9 71.8 82.39 73.44 82.86 75.07C84.39 80.88 85.6 86.77 86.18 92.75C86.37 94.06 86.44 95.4 86.58 96.73C86.71 98.06 86.86 99.38 86.89 100.7L87.02 103.25C87.07 104.1 87.02 104.96 86.98 105.82C86.88 107.52 86.81 109.27 86.11 110.9C85.69 111.91 85.57 111.72 85.18 110.77C85.01 110.3 84.63 109.62 84.52 108.87C84.44 108.49 84.4 108.09 84.34 107.67C84.27 107.24 84.22 106.79 84.21 106.32C84.22 99.69 83.39 92.99 82.36 86.25C82.21 85.24 82.07 84.22 81.85 83.2C81.61 82.19 81.36 81.17 81.12 80.15C80.65 78.1 79.99 76.1 79.42 74.09C78.15 69.67 76.6 65.33 74.88 61.06C74.37 59.74 73.73 58.47 73.16 57.17C72.57 55.88 72.02 54.57 71.32 53.34C69.36 49.53 67.21 45.77 64.7 42.33C63.69 41.02 62.71 39.7 61.63 38.49C60.51 37.31 59.39 36.14 58.27 34.96C57.8 34.42 57.23 34 56.71 33.51C54.77 31.69 54.33 30.92 54.44 29.93C54.46 29.71 54.44 29.46 54.5 29.28C54.66 28.69 55.86 29.02 57.48 30.28C59.96 32.07 62.03 34.42 64.18 36.74C65.18 37.96 66.12 39.24 67.09 40.51C67.56 41.16 68.08 41.77 68.5 42.45L69.79 44.47L71.69 47.49L73.38 50.63C73.93 51.68 74.53 52.71 75.02 53.79L76.51 57.02L76.44 57.06L76.43 57.04Z" fill="#231F20"/>
<path d="M14.6602 68.65C16.9602 64.21 19.5502 59.94 22.4002 55.84C23.4602 54.36 24.4402 52.82 25.5802 51.4C26.5402 50.12 27.6102 48.91 28.6402 47.68C29.7302 46.5 30.7702 45.27 31.9202 44.15C34.1502 41.84 36.5602 39.69 39.0902 37.71C41.3202 35.93 43.7502 34.38 46.2002 32.93L48.6302 31.65C49.4602 31.27 50.3102 30.91 51.1602 30.56C52.0102 30.22 52.9102 30 53.7902 29.74C54.0102 29.68 54.2302 29.6 54.4602 29.57L55.1502 29.49C55.6102 29.45 56.0602 29.37 56.5302 29.37C57.7002 29.45 57.5302 29.46 56.7102 30.11C55.8702 30.72 54.4502 31.84 52.6202 32.57C49.4002 33.96 46.3602 35.74 43.5002 37.82C40.6602 39.92 37.8402 42.12 35.1902 44.58C32.0002 47.52 29.2202 51.11 26.6002 54.7C23.7102 58.65 21.0802 62.81 18.7202 67.11C17.2402 69.75 15.9102 72.47 14.6402 75.21C12.7602 79.39 11.0802 83.69 9.87024 88.07C8.93024 91.47 8.36024 94.9 8.09024 98.32C8.02024 99.07 8.01024 99.81 7.97024 100.56C7.85024 101.96 7.89024 102.86 7.74024 103.52C7.68024 104.16 7.47024 104.55 7.16024 104.9C7.03024 105.06 6.90024 105.26 6.78024 105.36C6.57024 105.53 6.35024 105.34 6.06024 104.82C5.74024 104.3 5.54024 103.44 5.43024 102.34C5.07024 99.04 5.46024 95.68 6.06024 92.37C6.68024 89.06 7.61024 85.78 8.69024 82.56C10.3202 77.78 12.3502 73.14 14.6102 68.63L14.6802 68.66L14.6602 68.65Z" fill="#231F20"/>
<path d="M98.3602 56.03C102.16 60.98 105.44 66.29 108.22 71.85L109.7 74.91C110.23 75.91 110.59 77 111.02 78.05C111.56 79.46 112.15 80.86 112.55 82.32C112.97 83.78 113.5 85.2 113.82 86.68C114.15 88.16 114.5 89.64 114.8 91.12L115.11 93.38L115.26 94.51L115.34 95.07L115.38 95.36C115.39 95.49 115.44 95.63 115.42 95.76C115.5 96.13 115.33 96.49 115.15 96.8C114.94 97.1 114.65 97.4 114.47 97.55C114.07 97.9 113.68 98.21 113.27 98.5C112.47 99.08 111.65 99.61 110.83 100.12C107.82 101.97 104.72 103.67 101.6 105.24C99.6002 106.25 97.5602 107.21 95.4602 108.03C94.4102 108.44 93.3502 108.83 92.2602 109.16C91.1802 109.51 90.0502 109.68 88.9302 109.86C87.5102 110.01 87.6902 109.79 88.7502 109.2C89.2802 108.89 90.0102 108.46 90.8702 107.91C91.7502 107.41 92.7902 106.91 93.9502 106.41C97.5002 104.87 101.02 103.18 104.45 101.32C106.16 100.39 107.86 99.43 109.51 98.41C110.33 97.9 111.14 97.37 111.9 96.83C112.29 96.56 112.64 96.28 112.97 96C113.03 95.95 113.15 95.84 113.15 95.84C113.17 95.83 113.18 95.81 113.2 95.8C113.24 95.77 113.23 95.73 113.28 95.69C113.23 95.67 113.21 95.27 113.17 95L113.05 94.12L112.82 92.35C111.98 87.03 110.06 81.7 107.85 76.64C105.32 71.1 102.26 65.8 98.7302 60.82C96.5502 57.76 94.1602 54.84 91.6202 52.07L88.6502 48.99C87.6402 47.99 86.5502 47.07 85.5002 46.1L83.9102 44.68L82.2202 43.38C81.0802 42.53 80.0002 41.61 78.8102 40.85C75.1502 38.44 71.3502 36.37 67.3302 34.84C66.4502 34.49 65.5802 34.18 64.6902 33.82C61.3502 32.7 60.3402 32.16 59.7902 31.24C59.6602 31.05 59.4702 30.86 59.4002 30.73C59.1302 30.36 60.7302 30.08 63.3802 30.71C71.1902 32.71 78.7202 37.07 85.2702 42.44C90.1102 46.49 94.4802 51.08 98.4002 56L98.3502 56.05L98.3602 56.03Z" fill="#231F20"/>
<path d="M42.3501 49.34C43.0801 48.43 43.8601 47.56 44.6401 46.7C44.9301 46.39 45.1701 46.04 45.4701 45.74C46.5301 44.69 47.6501 43.71 48.7801 42.77C49.3101 42.36 49.8301 41.96 50.3501 41.56C51.0101 41.03 51.7901 40.62 52.6201 40.41C52.8801 40.35 52.9001 40.47 52.7901 40.73C52.6801 40.98 52.4901 41.42 52.1901 41.78C51.0701 42.93 50.1101 44.18 48.7501 45.18C47.9701 45.8 47.3701 46.64 46.7201 47.41C46.0001 48.25 45.3001 49.12 44.6401 50.01C44.2301 50.56 43.8201 51.11 43.4501 51.68C42.8801 52.54 42.3101 53.43 41.8701 54.36C41.5401 55.09 41.3501 55.87 41.0701 56.61C41.0101 56.77 40.9701 56.94 40.9001 57.1C40.6601 57.7 40.4101 57.82 39.8601 57.76C39.7401 57.75 39.6101 57.74 39.4901 57.72C39.1101 57.64 38.8601 57.25 38.8901 56.72C38.9601 55.95 39.0701 55.16 39.3301 54.42C39.6101 53.69 39.9701 52.98 40.3501 52.29C40.9301 51.26 41.6001 50.29 42.2801 49.33L42.3301 49.36L42.3501 49.34Z" fill="#231F20"/>
<path d="M59.0598 53.02C58.9898 52.25 58.8898 51.46 58.7398 50.69C58.6798 50.41 58.5798 50.14 58.5198 49.86C58.3298 48.85 58.0798 47.85 57.8398 46.85C57.7198 46.41 57.5298 45.99 57.3798 45.56C57.1798 45.01 56.9798 44.46 56.8698 43.86C56.8398 43.67 56.9598 43.63 57.1898 43.69C57.4098 43.75 57.7798 43.89 58.0298 44.15C58.9498 45.06 59.4698 46.19 59.7798 47.39C59.9298 48.12 60.2898 48.81 60.5198 49.53C60.7598 50.33 60.9698 51.14 61.1398 51.96C61.2498 52.46 61.3398 52.97 61.4198 53.48C61.5698 54.25 61.6098 55.05 61.6998 55.84C61.7398 56.46 61.9598 57.08 61.8998 57.77C61.8798 57.92 61.8798 58.07 61.8398 58.22C61.6698 58.79 61.3898 58.92 60.8798 58.8C60.7598 58.77 60.6398 58.75 60.5298 58.71C60.1598 58.57 59.8998 58.25 59.8098 57.98C59.3998 57.13 59.3998 56.28 59.2398 55.29C59.1598 54.57 59.1398 53.8 59.0198 53.03H59.0698L59.0598 53.02Z" fill="#231F20"/>
<path d="M84.7301 51.49C86.3701 53.59 87.9301 55.73 89.3901 57.95C89.9001 58.77 90.5101 59.53 90.9901 60.37C92.7301 63.31 94.2501 66.38 95.5701 69.52C95.8401 70.23 96.1901 70.9 96.4301 71.63C96.6901 72.35 96.9501 73.06 97.2001 73.77L97.6201 75.17C97.7801 75.63 97.8901 76.11 97.9301 76.61C97.9901 77.1 98.0501 77.59 98.1001 78.08C98.1001 78.58 97.9901 79.09 97.9401 79.57C97.8401 80.18 97.7601 80.08 97.4601 79.6C97.3101 79.36 97.1001 79.02 96.8401 78.64C96.6401 78.26 96.3601 77.81 96.1901 77.32C95.8901 76.46 95.5401 75.59 95.2501 74.71C94.9401 73.84 94.5401 72.98 94.2101 72.11C93.8501 71.24 93.4901 70.36 93.1301 69.49C92.7301 68.62 92.3501 67.75 91.9701 66.86C91.4701 65.83 90.9101 64.79 90.2901 63.78C89.6401 62.79 89.0201 61.78 88.3601 60.8C86.9201 58.64 85.4801 56.47 83.8701 54.42L82.3901 52.52L80.8301 50.68C79.2401 48.84 77.5801 47.04 75.8101 45.4C74.4701 44.08 72.9401 43.04 71.5101 41.87C71.1801 41.63 70.8401 41.41 70.5201 41.16C69.3401 40.21 69.1101 39.71 69.1301 39.13C69.1301 38.99 69.1301 38.85 69.1501 38.73C69.2401 38.36 69.9301 38.48 70.9801 39C72.5101 39.8 73.9101 40.84 75.3301 41.93C76.0501 42.46 76.7201 43.04 77.4001 43.64C78.0701 44.24 78.7701 44.82 79.4001 45.46C80.3301 46.43 81.2701 47.38 82.1601 48.39C83.0301 49.41 83.9301 50.41 84.7701 51.45L84.7201 51.49H84.7301Z" fill="#231F20"/>
<path d="M31.1502 103.52L29.9502 103.34C29.5502 103.25 29.1602 103.12 28.7502 102.98C28.4902 102.91 28.1002 102.74 27.7902 102.62C27.4702 102.48 27.1602 102.31 26.8902 102.13L26.5202 101.82L26.2502 101.43C26.1902 101.37 26.1902 101.28 26.0902 101.24L26.0402 101.01C26.0102 100.85 25.9502 100.71 25.9502 100.54C25.9202 99.88 25.9402 99.18 26.1002 98.52C26.1802 98.1 26.2802 97.7 26.3902 97.31C26.5902 96.51 26.8402 95.75 27.0802 94.98C27.4602 93.87 27.7802 92.74 28.2602 91.67C29.8702 87.88 32.1102 84.36 34.8002 81.26L35.6902 80.22L36.6402 79.23L37.5802 78.23L38.5902 77.31C39.0202 76.92 39.4402 76.51 39.9102 76.16L41.3502 75.15L42.0802 74.67C42.3502 74.55 42.6302 74.45 42.9102 74.35L43.7502 74.05C44.0302 73.96 44.3402 73.93 44.6302 73.86C45.3702 73.75 45.3102 73.87 44.9902 74.53C44.6802 75.24 44.1602 76.45 43.2802 77.28C42.4702 77.99 41.6102 78.63 40.8702 79.41L39.6602 80.47L38.5302 81.63C37.7402 82.36 37.0902 83.25 36.3502 84.05C35.6802 84.92 34.9602 85.75 34.3202 86.67C32.7002 88.8 31.6102 91.4 30.6202 93.95C30.1002 95.36 29.5802 96.79 29.2302 98.23C29.1802 98.41 29.1402 98.59 29.1002 98.77L29.0102 99.17C28.9802 99.32 28.9302 99.49 28.9302 99.65C28.9302 99.83 29.1302 99.89 29.2602 99.97C29.4402 100.05 29.4702 100.07 29.9002 100.21C31.6102 100.85 33.4902 101.25 35.3502 101.58C38.1802 102.08 41.0502 102.49 43.9002 102.65C46.1202 102.77 48.3002 102.64 50.4402 102.42C50.9102 102.37 51.3702 102.29 51.8302 102.24C52.7002 102.15 53.2502 102.07 53.6702 102.17C54.1002 102.32 54.3802 102.52 54.6402 102.79C54.7602 102.91 54.9002 103 54.9802 103.1C55.1102 103.27 55.0202 103.47 54.7402 103.8C54.4602 104.14 53.9702 104.55 53.2702 104.68C49.1602 105.69 44.8502 105.53 40.6002 105.14C37.4402 104.83 34.3002 104.33 31.1502 103.61V103.54V103.52Z" fill="#231F20"/>
<path d="M51.5798 91.82C51.3998 91.06 51.1798 90.31 50.9798 89.54C50.7398 88.79 50.4898 88.04 50.2198 87.3C49.9998 86.76 49.7198 86.26 49.5098 85.72C48.7198 83.84 47.8298 81.99 46.7698 80.22C46.5398 79.82 46.2898 79.44 46.0398 79.06L45.2098 77.98C44.5698 76.99 43.7198 76.19 43.2098 75.07C43.0698 74.7 43.1798 74.66 43.5798 74.71C44.0198 74.73 44.7098 74.89 45.2598 75.33C46.2598 76.1 47.1298 77.01 47.8798 78.01C48.2498 78.52 48.6098 79.03 48.9498 79.55C49.2898 80.08 49.5298 80.67 49.8098 81.23C50.1398 81.91 50.4998 82.58 50.8598 83.26C51.2398 83.93 51.6098 84.61 51.9098 85.31L52.4198 86.47L52.8598 87.66C53.1698 88.44 53.4098 89.25 53.6498 90.06C53.8098 90.55 53.9398 91.05 54.0498 91.56C54.1598 92.07 54.3098 92.56 54.3998 93.07C54.6998 94.61 54.9298 96.17 55.0498 97.73C55.1698 98.94 55.3098 100.15 55.2698 101.41C55.2298 101.69 55.2098 101.96 55.1498 102.24C55.0698 102.76 54.8898 103.09 54.6998 103.29C54.5098 103.49 54.2998 103.56 54.0198 103.56C53.8898 103.56 53.7598 103.57 53.6398 103.56C53.2498 103.48 53.0398 102.99 53.0398 102.37C52.9098 100.47 52.8598 98.48 52.5198 96.42C52.2998 94.9 51.9598 93.36 51.5298 91.85L51.5898 91.83L51.5798 91.82Z" fill="#231F20"/>
<path d="M115.5 55.54C115.44 55.45 115.48 55.34 115.53 55.23C115.55 55.19 115.63 55.16 115.66 55.18C115.72 55.23 115.78 55.28 115.83 55.31C115.86 55.34 116.26 55.83 116.42 55.99C116.54 56.16 116.64 56.33 116.72 56.51C116.89 56.88 117.09 57.24 117.24 57.61C117.27 57.69 117.29 57.78 117.3 57.87C117.33 58.18 117.42 58.47 117.54 58.75C117.56 58.8 117.57 58.85 117.63 58.88C117.72 58.94 117.99 59.72 117.99 59.83C117.99 60.16 118 60.38 118.01 60.65C118.01 60.69 118.04 60.72 118 60.77C117.91 60.88 117.95 60.95 117.96 61.04C117.98 61.15 117.99 61.27 117.98 61.39C117.98 61.45 117.93 61.52 117.89 61.59C117.86 61.65 117.69 61.67 117.67 61.66C117.6 61.63 117.54 61.69 117.48 61.71C117.46 61.71 117.43 61.73 117.41 61.73C117.37 61.73 116.86 61.21 116.84 61.14C116.84 61.14 116.74 60.91 116.63 60.68C116.52 60.45 116.43 60.2 116.4 60.15C116.37 60.1 116.39 60.04 116.39 59.98C116.39 59.95 116.09 59.25 116.09 59.22C116.06 59.07 115.98 58.93 116.03 58.75C116.04 58.71 116.03 58.69 116.02 58.66C115.93 58.41 115.89 58.14 115.84 57.87C115.82 57.73 115.78 57.6 115.75 57.47C115.75 57.45 115.75 57.42 115.75 57.39C115.75 57.36 115.75 57.32 115.75 57.29C115.67 56.98 115.63 56.65 115.51 56.35C115.49 56.28 115.51 55.89 115.48 55.81C115.47 55.76 115.52 55.57 115.49 55.54H115.5Z" fill="#231F20"/>
<path d="M119.55 57.28C119.64 57.22 119.75 57.24 119.86 57.28C119.9 57.29 119.93 57.36 119.9 57.39C119.85 57.45 119.8 57.51 119.77 57.55C119.68 57.62 119.25 57.99 119.07 58.13C118.9 58.25 118.72 58.35 118.54 58.44C118.17 58.63 117.8 58.82 117.42 58.99C117.34 59.02 117.25 59.05 117.15 59.06C116.84 59.11 116.54 59.22 116.25 59.35C116.2 59.37 116.15 59.38 116.11 59.44C116.05 59.53 115.26 59.83 115.15 59.84C114.82 59.88 114.59 59.9 114.32 59.93C114.28 59.93 114.25 59.96 114.2 59.93C114.09 59.86 114.02 59.9 113.93 59.93C113.82 59.96 113.7 59.98 113.58 59.98C113.52 59.98 113.45 59.95 113.38 59.92C113.32 59.9 113.3 59.76 113.31 59.74C113.34 59.68 113.28 59.63 113.26 59.58C113.26 59.56 113.24 59.54 113.24 59.52C113.24 59.48 113.78 59 113.85 58.98C113.85 58.98 114.08 58.87 114.32 58.76C114.56 58.64 114.81 58.55 114.86 58.52C114.91 58.49 114.98 58.5 115.04 58.49C115.08 58.47 115.79 58.17 115.81 58.16C115.97 58.12 116.11 58.04 116.29 58.07C116.33 58.07 116.36 58.07 116.39 58.05C116.65 57.95 116.92 57.89 117.19 57.83C117.33 57.8 117.46 57.75 117.6 57.71C117.62 57.71 117.65 57.71 117.68 57.71C117.71 57.71 117.75 57.71 117.78 57.7C118.1 57.6 118.43 57.53 118.74 57.41C118.81 57.38 119.2 57.37 119.28 57.33C119.33 57.32 119.51 57.33 119.55 57.31V57.28Z" fill="#231F20"/>
<path d="M119.03 59.42C119.12 59.43 119.16 59.53 119.19 59.65C119.19 59.69 119.17 59.77 119.14 59.78C119.07 59.8 119.01 59.81 118.96 59.82C118.93 59.82 118.39 59.82 118.2 59.85C118.03 59.85 117.86 59.81 117.7 59.76C117.38 59.67 117.04 59.6 116.73 59.49C116.66 59.46 116.6 59.42 116.54 59.38C116.34 59.21 116.11 59.11 115.87 59.03C115.83 59.02 115.79 58.99 115.74 59.02C115.65 59.06 115.02 58.79 114.96 58.72C114.76 58.52 114.63 58.39 114.47 58.23C114.45 58.21 114.41 58.21 114.41 58.15C114.41 58.01 114.34 58 114.28 57.96C114.2 57.91 114.13 57.84 114.07 57.76C114.04 57.72 114.03 57.64 114.01 57.57C113.99 57.51 114.09 57.37 114.11 57.36C114.17 57.33 114.18 57.25 114.2 57.18C114.21 57.16 114.22 57.13 114.23 57.11C114.25 57.08 114.88 57.02 114.93 57.05C114.93 57.05 115.12 57.11 115.33 57.17C115.53 57.22 115.73 57.31 115.78 57.32C115.83 57.33 115.85 57.38 115.89 57.41C115.91 57.43 116.5 57.63 116.52 57.64C116.63 57.71 116.76 57.73 116.83 57.88C116.84 57.91 116.87 57.92 116.89 57.93C117.09 58.02 117.28 58.14 117.46 58.27C117.55 58.34 117.65 58.38 117.75 58.44C117.77 58.45 117.78 58.47 117.79 58.49C117.81 58.51 117.83 58.53 117.85 58.55C118.08 58.67 118.3 58.85 118.55 58.94C118.6 58.97 118.82 59.22 118.88 59.25C118.91 59.27 118.99 59.43 119.03 59.43V59.42Z" fill="#231F20"/>
<path d="M117.88 56.27C117.91 56.18 118.01 56.16 118.13 56.15C118.17 56.15 118.25 56.19 118.25 56.22C118.25 56.29 118.27 56.36 118.27 56.4C118.27 56.43 118.2 56.96 118.19 57.16C118.16 57.33 118.1 57.49 118.04 57.64C117.9 57.95 117.79 58.27 117.64 58.57C117.6 58.63 117.56 58.69 117.5 58.74C117.3 58.91 117.16 59.12 117.05 59.35C117.03 59.39 117 59.42 117.02 59.48C117.05 59.58 116.69 60.16 116.61 60.21C116.39 60.38 116.23 60.49 116.05 60.62C116.02 60.64 116.02 60.68 115.96 60.67C115.82 60.65 115.8 60.72 115.75 60.77C115.68 60.84 115.61 60.9 115.52 60.95C115.47 60.97 115.39 60.97 115.32 60.98C115.26 60.98 115.13 60.87 115.12 60.85C115.1 60.78 115.01 60.76 114.95 60.73C114.93 60.72 114.9 60.7 114.89 60.69C114.86 60.66 114.89 60.03 114.92 59.98C114.92 59.98 115.01 59.8 115.1 59.6C115.18 59.4 115.3 59.22 115.31 59.18C115.33 59.14 115.38 59.12 115.42 59.09C115.44 59.08 115.72 58.52 115.74 58.5C115.83 58.4 115.86 58.27 116.03 58.23C116.06 58.23 116.07 58.2 116.09 58.17C116.21 57.98 116.36 57.82 116.51 57.66C116.59 57.58 116.65 57.48 116.73 57.4C116.74 57.38 116.77 57.38 116.79 57.36C116.81 57.34 116.84 57.33 116.85 57.31C117.01 57.1 117.21 56.91 117.34 56.68C117.37 56.63 117.66 56.46 117.7 56.4C117.73 56.37 117.89 56.31 117.9 56.28L117.88 56.27Z" fill="#231F20"/>
<path d="M12.14 44.99C12.08 44.9 12.12 44.79 12.18 44.67C12.2 44.63 12.28 44.6 12.31 44.62C12.37 44.67 12.44 44.71 12.48 44.75C12.51 44.78 12.92 45.27 13.08 45.43C13.2 45.6 13.3 45.77 13.39 45.95C13.57 46.32 13.76 46.68 13.92 47.05C13.95 47.13 13.97 47.22 13.98 47.31C14 47.62 14.1 47.91 14.22 48.19C14.24 48.24 14.25 48.29 14.31 48.32C14.41 48.37 14.68 49.15 14.68 49.27C14.68 49.6 14.68 49.82 14.69 50.09C14.69 50.13 14.72 50.16 14.68 50.21C14.58 50.32 14.62 50.39 14.64 50.48C14.66 50.59 14.67 50.71 14.66 50.83C14.66 50.89 14.6 50.96 14.57 51.03C14.54 51.09 14.37 51.12 14.34 51.1C14.27 51.07 14.21 51.13 14.14 51.16C14.12 51.16 14.09 51.18 14.07 51.18C14.03 51.18 13.51 50.66 13.49 50.59C13.49 50.59 13.39 50.36 13.28 50.13C13.16 49.9 13.08 49.65 13.05 49.6C13.02 49.55 13.04 49.49 13.04 49.43C13.04 49.4 12.74 48.7 12.74 48.67C12.71 48.51 12.63 48.38 12.68 48.2C12.69 48.16 12.68 48.14 12.67 48.11C12.58 47.86 12.54 47.59 12.5 47.32C12.48 47.18 12.44 47.05 12.41 46.92C12.41 46.9 12.41 46.87 12.41 46.84C12.41 46.81 12.41 46.77 12.41 46.74C12.33 46.43 12.29 46.1 12.18 45.8C12.16 45.73 12.18 45.34 12.16 45.26C12.15 45.21 12.2 45.02 12.18 44.99H12.14Z" fill="#231F20"/>
<path d="M16.2001 46.73C16.2901 46.67 16.4001 46.69 16.5101 46.73C16.5501 46.74 16.5801 46.81 16.5501 46.84C16.5001 46.9 16.4501 46.96 16.4201 47C16.3301 47.07 15.9001 47.44 15.7201 47.58C15.5501 47.7 15.3701 47.8 15.1901 47.89C14.8201 48.08 14.4501 48.27 14.0701 48.44C13.9901 48.47 13.9001 48.5 13.8001 48.51C13.4901 48.56 13.1901 48.67 12.9001 48.79C12.8501 48.81 12.8001 48.82 12.7601 48.88C12.7001 48.97 11.9101 49.27 11.8001 49.28C11.4701 49.32 11.2401 49.34 10.9701 49.37C10.9301 49.37 10.9001 49.4 10.8501 49.37C10.7401 49.3 10.6701 49.34 10.5801 49.37C10.4701 49.4 10.3501 49.42 10.2301 49.42C10.1701 49.42 10.1001 49.39 10.0301 49.36C9.97014 49.34 9.95014 49.2 9.96014 49.18C9.99014 49.12 9.93014 49.07 9.91014 49.02C9.91014 49 9.89014 48.98 9.89014 48.96C9.89014 48.92 10.4301 48.44 10.5001 48.42C10.5001 48.42 10.7301 48.31 10.9701 48.2C11.2001 48.08 11.4601 47.99 11.5101 47.96C11.5601 47.93 11.6301 47.94 11.6901 47.93C11.7301 47.91 12.4401 47.61 12.4601 47.6C12.6201 47.56 12.7601 47.48 12.9401 47.51C12.9801 47.51 13.0101 47.51 13.0401 47.49C13.3001 47.39 13.5701 47.33 13.8401 47.27C13.9801 47.24 14.1101 47.19 14.2501 47.15C14.2701 47.15 14.3001 47.15 14.3301 47.15C14.3601 47.15 14.4001 47.15 14.4301 47.14C14.7501 47.04 15.0801 46.97 15.3901 46.85C15.4601 46.82 15.8501 46.81 15.9301 46.77C15.9801 46.76 16.1601 46.77 16.2001 46.75V46.73Z" fill="#231F20"/>
<path d="M15.6699 48.89C15.7599 48.91 15.7999 48.99 15.8399 49.09C15.8499 49.12 15.8199 49.19 15.7999 49.2C15.7399 49.21 15.6699 49.22 15.6299 49.23C15.5999 49.23 15.0799 49.21 14.8899 49.21C14.7199 49.19 14.5599 49.15 14.3999 49.11C14.0799 49.01 13.7499 48.93 13.4399 48.82C13.3699 48.79 13.3099 48.76 13.2499 48.71C13.0499 48.55 12.8199 48.45 12.5799 48.36C12.5399 48.35 12.4999 48.32 12.4499 48.34C12.3599 48.37 11.7399 48.09 11.6699 48.03C11.4699 47.85 11.3299 47.72 11.1599 47.58C11.1399 47.56 11.0999 47.55 11.0899 47.5C11.0799 47.38 11.0099 47.36 10.9499 47.32C10.8699 47.27 10.7999 47.21 10.7299 47.13C10.6999 47.09 10.6799 47.02 10.6599 46.96C10.6399 46.91 10.7199 46.79 10.7399 46.79C10.7999 46.77 10.7999 46.7 10.8199 46.64C10.8199 46.62 10.8399 46.6 10.8499 46.59C10.8699 46.56 11.4699 46.55 11.5199 46.58C11.5299 46.58 12.2299 46.82 12.3599 46.87C12.4099 46.88 12.4399 46.93 12.4699 46.96C12.4899 46.98 13.0699 47.19 13.0899 47.2C13.1999 47.27 13.3299 47.29 13.4099 47.43C13.4299 47.46 13.4499 47.46 13.4699 47.47C13.6699 47.56 13.8599 47.68 14.0399 47.8C14.1299 47.87 14.2399 47.91 14.3299 47.97C14.3499 47.98 14.3599 48 14.3799 48.02C14.3999 48.04 14.4199 48.06 14.4399 48.07C14.6799 48.19 14.8999 48.35 15.1499 48.45C15.2099 48.48 15.4299 48.71 15.4899 48.73C15.5199 48.75 15.6099 48.89 15.6499 48.89H15.6699Z" fill="#231F20"/>
<path d="M14.5601 45.74C14.5901 45.66 14.6801 45.62 14.7801 45.6C14.8101 45.6 14.8801 45.63 14.8801 45.66C14.8801 45.73 14.8801 45.79 14.8801 45.83C14.8801 45.86 14.7801 46.37 14.7601 46.56C14.7201 46.73 14.6601 46.88 14.5901 47.03C14.4501 47.33 14.3201 47.64 14.1701 47.94C14.1301 48 14.0901 48.06 14.0301 48.11C13.8401 48.29 13.7101 48.5 13.5901 48.72C13.5701 48.76 13.5401 48.79 13.5501 48.84C13.5601 48.93 13.2001 49.51 13.1301 49.56C12.9201 49.74 12.7801 49.85 12.6101 50C12.5801 50.02 12.5801 50.06 12.5201 50.05C12.4001 50.05 12.3701 50.11 12.3301 50.16C12.2701 50.23 12.2001 50.3 12.1101 50.35C12.0701 50.38 12.0001 50.38 11.9301 50.39C11.8701 50.4 11.7701 50.3 11.7701 50.28C11.7601 50.22 11.6801 50.21 11.6401 50.18C11.6201 50.17 11.6001 50.16 11.5901 50.15C11.5601 50.13 11.6401 49.53 11.6801 49.48C11.6801 49.48 12.0301 48.81 12.0901 48.69C12.1101 48.65 12.1601 48.62 12.1901 48.59C12.2101 48.58 12.5001 48.03 12.5201 48.01C12.6001 47.91 12.6501 47.79 12.7901 47.73C12.8201 47.72 12.8301 47.69 12.8401 47.67C12.9601 47.48 13.1001 47.32 13.2501 47.15C13.3301 47.07 13.3901 46.97 13.4601 46.88C13.4701 46.86 13.4901 46.85 13.5101 46.84C13.5301 46.82 13.5601 46.81 13.5701 46.79C13.7301 46.57 13.9201 46.38 14.0501 46.15C14.0801 46.1 14.3501 45.91 14.3801 45.85C14.4001 45.82 14.5501 45.75 14.5601 45.72V45.74Z" fill="#231F20"/>
<path d="M91.7698 14.75C91.7298 14.68 91.7499 14.6 91.7899 14.52C91.7999 14.49 91.8598 14.47 91.8798 14.48C91.9298 14.52 91.9699 14.55 91.9999 14.58C92.0599 14.65 92.3299 14.96 92.4399 15.09C92.5299 15.22 92.5999 15.35 92.6699 15.48C92.7999 15.75 92.9398 16.02 93.0598 16.3C93.0798 16.36 93.0999 16.43 93.0999 16.5C93.1199 16.73 93.1899 16.95 93.2799 17.16C93.2899 17.2 93.2998 17.23 93.3398 17.26C93.4098 17.3 93.6099 17.89 93.6099 17.97C93.6099 18.22 93.6198 18.38 93.6298 18.58C93.6298 18.61 93.6498 18.63 93.6298 18.67C93.5598 18.75 93.5899 18.81 93.5999 18.87C93.6099 18.95 93.6199 19.04 93.6199 19.13C93.6199 19.17 93.5798 19.23 93.5598 19.28C93.5398 19.33 93.4199 19.34 93.3999 19.33C93.3499 19.3 93.3099 19.35 93.2599 19.37C93.2399 19.37 93.2199 19.38 93.2099 19.39C93.1799 19.39 92.7999 19 92.7899 18.95C92.7899 18.95 92.5099 18.32 92.4599 18.21C92.4399 18.17 92.4498 18.12 92.4498 18.08C92.4398 18.04 92.2299 17.53 92.2199 17.51C92.1999 17.39 92.1399 17.29 92.1699 17.16C92.1699 17.13 92.1699 17.11 92.1599 17.09C92.0899 16.9 92.0599 16.7 92.0299 16.5C92.0199 16.4 91.9799 16.3 91.9599 16.2C91.9599 16.18 91.9599 16.16 91.9599 16.14C91.9599 16.12 91.9599 16.09 91.9599 16.07C91.8999 15.84 91.8699 15.59 91.7799 15.36C91.7599 15.31 91.7799 15.02 91.7599 14.96C91.7599 14.93 91.7899 14.78 91.7599 14.76L91.7698 14.75Z" fill="#231F20"/>
<path d="M94.7898 16.04C94.8598 15.99 94.9398 16.02 95.0298 16.05C95.0598 16.06 95.0898 16.12 95.0698 16.14C95.0298 16.19 94.9998 16.24 94.9698 16.27C94.8998 16.33 94.5898 16.62 94.4598 16.74C94.3298 16.84 94.1998 16.92 94.0598 16.99C93.7798 17.13 93.5098 17.29 93.2298 17.42C93.1698 17.45 93.0998 17.46 93.0298 17.47C92.7898 17.5 92.5698 17.58 92.3598 17.68C92.3198 17.7 92.2898 17.71 92.2598 17.75C92.2198 17.82 91.6298 18.05 91.5398 18.05C91.2898 18.07 91.1198 18.08 90.9098 18.1C90.8798 18.1 90.8498 18.12 90.8198 18.1C90.7298 18.04 90.6798 18.07 90.6198 18.08C90.5298 18.1 90.4498 18.11 90.3498 18.11C90.2998 18.11 90.2498 18.08 90.1998 18.05C90.1498 18.03 90.1298 17.91 90.1398 17.89C90.1598 17.84 90.1098 17.8 90.0898 17.75C90.0898 17.73 90.0698 17.71 90.0698 17.7C90.0698 17.67 90.4598 17.27 90.5098 17.26C90.5098 17.26 90.6798 17.18 90.8598 17.09C91.0298 17 91.2298 16.93 91.2598 16.9C91.2998 16.88 91.3498 16.89 91.3898 16.88C91.4298 16.86 91.9498 16.64 91.9698 16.63C92.0898 16.6 92.1898 16.54 92.3298 16.57C92.3598 16.57 92.3798 16.57 92.3998 16.56C92.5898 16.49 92.7998 16.44 92.9998 16.4C93.1098 16.38 93.1998 16.34 93.3098 16.32C93.3298 16.32 93.3498 16.32 93.3698 16.32C93.3998 16.32 93.4198 16.32 93.4398 16.32C93.6798 16.25 93.9298 16.21 94.1598 16.11C94.2098 16.09 94.5098 16.1 94.5698 16.07C94.6098 16.07 94.7498 16.09 94.7798 16.07L94.7898 16.04Z" fill="#231F20"/>
<path d="M94.4101 17.65C94.4801 17.66 94.5101 17.73 94.5301 17.82C94.5301 17.85 94.5101 17.91 94.4901 17.91C94.4401 17.92 94.3901 17.93 94.3601 17.94C94.3401 17.94 93.9401 17.94 93.7901 17.96C93.6601 17.96 93.5401 17.93 93.4201 17.89C93.1801 17.82 92.9301 17.77 92.6901 17.69C92.6401 17.67 92.5901 17.64 92.5501 17.6C92.4001 17.47 92.2301 17.4 92.0501 17.34C92.0201 17.34 91.9901 17.31 91.9501 17.33C91.8801 17.36 91.4101 17.15 91.3601 17.1C91.2101 16.95 91.1101 16.86 90.9901 16.74C90.9701 16.72 90.9501 16.72 90.9401 16.68C90.9401 16.58 90.8801 16.57 90.8401 16.54C90.7801 16.5 90.7301 16.45 90.6801 16.39C90.6601 16.36 90.6501 16.3 90.6401 16.25C90.6301 16.2 90.7001 16.1 90.7101 16.1C90.7601 16.08 90.7601 16.02 90.7801 15.97C90.7801 15.95 90.8001 15.93 90.8001 15.92C90.8201 15.89 91.2801 15.86 91.3201 15.88C91.3201 15.88 91.8501 16.05 91.9501 16.08C91.9801 16.08 92.0101 16.12 92.0301 16.15C92.0401 16.16 92.4801 16.31 92.5001 16.32C92.5801 16.37 92.6801 16.39 92.7301 16.5C92.7401 16.52 92.7601 16.53 92.7801 16.53C92.9301 16.6 93.0701 16.69 93.2101 16.79C93.2801 16.84 93.3601 16.88 93.4301 16.92C93.4401 16.92 93.4501 16.94 93.4601 16.96C93.4701 16.97 93.4901 16.99 93.5001 17C93.6801 17.09 93.8401 17.22 94.0201 17.29C94.0601 17.31 94.2201 17.5 94.2701 17.52C94.3001 17.54 94.3601 17.65 94.3801 17.65H94.4101Z" fill="#231F20"/>
<path d="M93.5598 15.3C93.5798 15.24 93.6598 15.22 93.7398 15.21C93.7698 15.21 93.8198 15.24 93.8298 15.26C93.8298 15.31 93.8298 15.36 93.8398 15.39C93.8398 15.41 93.7798 15.81 93.7698 15.95C93.7398 16.08 93.6998 16.19 93.6498 16.31C93.5498 16.54 93.4598 16.78 93.3498 17C93.3198 17.05 93.2898 17.09 93.2398 17.13C93.0898 17.26 92.9898 17.42 92.9098 17.59C92.8998 17.62 92.8698 17.64 92.8798 17.69C92.8998 17.76 92.6298 18.2 92.5698 18.24C92.3998 18.37 92.2898 18.45 92.1598 18.55C92.1398 18.56 92.1398 18.59 92.0898 18.59C91.9898 18.58 91.9698 18.63 91.9398 18.67C91.8898 18.72 91.8398 18.77 91.7698 18.81C91.7398 18.83 91.6798 18.83 91.6298 18.83C91.5798 18.83 91.4898 18.75 91.4898 18.73C91.4798 18.68 91.4098 18.67 91.3698 18.64C91.3598 18.64 91.3398 18.62 91.3298 18.61C91.3098 18.59 91.3298 18.12 91.3598 18.09C91.3598 18.09 91.5998 17.59 91.6498 17.49C91.6598 17.46 91.6998 17.44 91.7298 17.42C91.7398 17.41 91.9598 16.99 91.9698 16.98C92.0298 16.91 92.0598 16.81 92.1798 16.78C92.1998 16.78 92.2098 16.75 92.2198 16.74C92.3098 16.6 92.4198 16.48 92.5398 16.36C92.5998 16.3 92.6498 16.23 92.6998 16.16C92.6998 16.15 92.7298 16.14 92.7398 16.13C92.7598 16.12 92.7798 16.11 92.7898 16.09C92.9098 15.93 93.0598 15.79 93.1498 15.62C93.1698 15.58 93.3898 15.45 93.4098 15.41C93.4298 15.39 93.5498 15.34 93.5598 15.32V15.3Z" fill="#231F20"/>
<path d="M96.8402 37.67C96.8002 37.6 96.8202 37.52 96.8602 37.44C96.8702 37.41 96.9302 37.39 96.9502 37.4C97.0002 37.44 97.0402 37.47 97.0702 37.5C97.1302 37.57 97.4002 37.88 97.5102 38.01C97.6002 38.14 97.6702 38.27 97.7402 38.4C97.8702 38.67 98.0102 38.94 98.1302 39.22C98.1502 39.28 98.1702 39.35 98.1702 39.42C98.1902 39.65 98.2602 39.87 98.3502 40.08C98.3602 40.12 98.3702 40.15 98.4102 40.18C98.4802 40.22 98.6802 40.81 98.6802 40.89C98.6802 41.14 98.6902 41.3 98.7002 41.5C98.7002 41.53 98.7202 41.55 98.7002 41.59C98.6302 41.67 98.6602 41.73 98.6702 41.79C98.6802 41.87 98.6902 41.96 98.6902 42.05C98.6902 42.09 98.6502 42.15 98.6302 42.2C98.6102 42.25 98.4902 42.26 98.4702 42.25C98.4202 42.22 98.3802 42.27 98.3302 42.29C98.3102 42.29 98.2902 42.3 98.2802 42.31C98.2502 42.31 97.8702 41.92 97.8602 41.87C97.8602 41.87 97.5802 41.24 97.5302 41.13C97.5102 41.09 97.5202 41.05 97.5302 41C97.5202 40.96 97.3102 40.45 97.3002 40.43C97.2802 40.31 97.2202 40.21 97.2502 40.08C97.2502 40.05 97.2502 40.03 97.2402 40.01C97.1702 39.82 97.1402 39.62 97.1102 39.42C97.1002 39.32 97.0602 39.22 97.0402 39.12C97.0402 39.1 97.0402 39.08 97.0402 39.06C97.0402 39.04 97.0402 39.01 97.0402 38.99C96.9802 38.76 96.9502 38.51 96.8602 38.28C96.8402 38.23 96.8602 37.94 96.8402 37.88C96.8402 37.85 96.8702 37.7 96.8402 37.68V37.67Z" fill="#231F20"/>
<path d="M99.8601 38.96C99.9301 38.91 100.01 38.94 100.1 38.97C100.13 38.98 100.16 39.04 100.14 39.06C100.1 39.11 100.07 39.16 100.04 39.19C99.9701 39.25 99.6601 39.54 99.5301 39.66C99.4001 39.76 99.2701 39.84 99.1301 39.91C98.8501 40.05 98.5801 40.21 98.3001 40.34C98.2401 40.37 98.1701 40.38 98.1001 40.39C97.8601 40.42 97.6401 40.5 97.4301 40.6C97.3901 40.62 97.3601 40.63 97.3301 40.67C97.2901 40.74 96.7001 40.97 96.6101 40.97C96.3601 40.99 96.1901 41 95.9801 41.02C95.9501 41.02 95.9201 41.04 95.8901 41.02C95.8001 40.96 95.7501 40.99 95.6901 41C95.6001 41.02 95.5201 41.03 95.4201 41.03C95.3701 41.03 95.3201 41 95.2701 40.97C95.2201 40.95 95.2001 40.83 95.2101 40.81C95.2301 40.76 95.1801 40.72 95.1601 40.67C95.1601 40.65 95.1401 40.63 95.1401 40.62C95.1401 40.59 95.5301 40.19 95.5801 40.18C95.5801 40.18 95.7501 40.1 95.9301 40C96.1001 39.91 96.3001 39.84 96.3301 39.81C96.3701 39.79 96.4201 39.8 96.4601 39.79C96.5001 39.77 97.0201 39.55 97.0401 39.54C97.1601 39.51 97.2601 39.45 97.4001 39.48C97.4301 39.48 97.4501 39.48 97.4701 39.47C97.6601 39.4 97.8701 39.35 98.0701 39.31C98.1801 39.29 98.2701 39.25 98.3801 39.23C98.4001 39.23 98.4201 39.23 98.4401 39.23C98.4701 39.23 98.4901 39.23 98.5101 39.23C98.7501 39.16 99.0001 39.12 99.2301 39.02C99.2801 39 99.5801 39.01 99.6401 38.98C99.6801 38.98 99.8201 39 99.8501 38.98L99.8601 38.96Z" fill="#231F20"/>
<path d="M99.48 40.57C99.55 40.58 99.58 40.65 99.6 40.74C99.6 40.77 99.58 40.83 99.56 40.83C99.51 40.84 99.46 40.85 99.43 40.86C99.41 40.86 99.01 40.86 98.86 40.88C98.73 40.88 98.61 40.85 98.49 40.81C98.25 40.74 98 40.69 97.76 40.61C97.71 40.59 97.66 40.56 97.62 40.52C97.47 40.39 97.3 40.32 97.12 40.26C97.09 40.26 97.06 40.23 97.02 40.25C96.95 40.28 96.48 40.07 96.43 40.02C96.28 39.87 96.18 39.78 96.06 39.66C96.04 39.64 96.02 39.64 96.01 39.6C96.01 39.5 95.95 39.49 95.91 39.46C95.85 39.42 95.8 39.37 95.75 39.31C95.73 39.28 95.72 39.22 95.71 39.17C95.7 39.12 95.77 39.02 95.78 39.02C95.83 39 95.83 38.94 95.85 38.89C95.85 38.87 95.87 38.85 95.87 38.84C95.89 38.81 96.35 38.78 96.39 38.8C96.39 38.8 96.92 38.97 97.02 39C97.05 39 97.08 39.04 97.1 39.07C97.11 39.08 97.55 39.23 97.57 39.24C97.65 39.29 97.75 39.31 97.8 39.42C97.81 39.44 97.83 39.45 97.85 39.45C98 39.51 98.14 39.61 98.28 39.71C98.35 39.76 98.43 39.8 98.5 39.84C98.51 39.84 98.52 39.86 98.53 39.88C98.54 39.89 98.56 39.91 98.57 39.92C98.75 40.01 98.91 40.14 99.09 40.21C99.13 40.23 99.29 40.42 99.34 40.44C99.37 40.46 99.43 40.57 99.45 40.57H99.48Z" fill="#231F20"/>
<path d="M98.6301 38.22C98.6501 38.16 98.7301 38.14 98.8101 38.13C98.8401 38.13 98.8901 38.16 98.9001 38.18C98.9001 38.23 98.9001 38.28 98.9101 38.31C98.9101 38.33 98.8501 38.73 98.8401 38.87C98.8101 39 98.7701 39.11 98.7201 39.23C98.6201 39.46 98.5301 39.7 98.4201 39.92C98.3901 39.97 98.3601 40.01 98.3101 40.05C98.1601 40.18 98.0601 40.34 97.9801 40.51C97.9701 40.54 97.9401 40.56 97.9501 40.61C97.9701 40.68 97.7001 41.12 97.6401 41.16C97.4701 41.29 97.3601 41.37 97.2301 41.47C97.2101 41.48 97.2101 41.51 97.1601 41.51C97.0601 41.5 97.0401 41.55 97.0101 41.59C96.9601 41.64 96.9101 41.69 96.8401 41.73C96.8101 41.75 96.7501 41.75 96.7001 41.75C96.6501 41.75 96.5601 41.67 96.5601 41.65C96.5501 41.6 96.4801 41.59 96.4401 41.56C96.4301 41.56 96.4101 41.54 96.4001 41.53C96.3801 41.51 96.4001 41.04 96.4301 41.01C96.4301 41.01 96.6701 40.51 96.7201 40.41C96.7301 40.38 96.7701 40.36 96.8001 40.34C96.8101 40.33 97.0301 39.91 97.0401 39.9C97.1001 39.83 97.1301 39.73 97.2501 39.7C97.2701 39.7 97.2801 39.67 97.2901 39.66C97.3801 39.52 97.4901 39.4 97.6101 39.28C97.6701 39.22 97.7201 39.15 97.7701 39.08C97.7701 39.07 97.8001 39.06 97.8101 39.05C97.8301 39.04 97.8501 39.03 97.8601 39.01C97.9801 38.85 98.1301 38.71 98.2201 38.54C98.2401 38.5 98.4601 38.37 98.4801 38.33C98.5001 38.31 98.6201 38.26 98.6301 38.24V38.22Z" fill="#231F20"/>
<path d="M32.8399 24.65C32.8699 24.58 32.9499 24.55 33.0399 24.53C33.0699 24.53 33.1299 24.56 33.1199 24.58C33.1199 24.64 33.1199 24.7 33.1199 24.74C33.0999 24.83 32.9999 25.23 32.9599 25.39C32.9099 25.54 32.8499 25.67 32.7799 25.8C32.6299 26.07 32.4999 26.34 32.3499 26.6C32.3099 26.66 32.2699 26.71 32.2199 26.75C32.0399 26.9 31.9099 27.09 31.7899 27.28C31.7699 27.31 31.7399 27.34 31.7499 27.39C31.7499 27.47 31.3999 27.98 31.3399 28.03C31.1399 28.18 31.0099 28.28 30.8499 28.41C30.8299 28.43 30.8199 28.46 30.7699 28.46C30.6599 28.46 30.6399 28.51 30.5899 28.55C30.5299 28.61 30.4699 28.67 30.3899 28.72C30.3499 28.74 30.2899 28.75 30.2299 28.76C30.1799 28.76 30.0999 28.68 30.0899 28.66C30.0899 28.61 30.0199 28.6 29.9699 28.57C29.9599 28.57 29.9399 28.55 29.9299 28.54C29.9099 28.52 30.0099 27.98 30.0399 27.94C30.0399 27.94 30.3799 27.35 30.4499 27.24C30.4699 27.2 30.5099 27.18 30.5499 27.16C30.5699 27.13 30.8699 26.66 30.8799 26.64C30.9599 26.55 31.0099 26.44 31.1399 26.4C31.1699 26.4 31.1799 26.37 31.1899 26.35C31.2999 26.18 31.4499 26.04 31.5899 25.89C31.6699 25.82 31.7199 25.73 31.7899 25.66C31.7999 25.65 31.8199 25.64 31.8399 25.63C31.8599 25.62 31.8799 25.6 31.8999 25.58C32.0499 25.39 32.2299 25.22 32.3699 25.02C32.3999 24.98 32.6499 24.82 32.6799 24.76C32.6999 24.73 32.8399 24.68 32.8499 24.65H32.8399Z" fill="#231F20"/>
<path d="M33.5801 27.85C33.6601 27.88 33.6901 27.96 33.7101 28.05C33.7101 28.08 33.6901 28.14 33.6601 28.14C33.6001 28.14 33.5401 28.14 33.5001 28.14C33.4101 28.12 32.9901 28.04 32.8201 28C32.6701 27.95 32.5201 27.89 32.3901 27.82C32.1101 27.68 31.8201 27.55 31.5501 27.4C31.4901 27.36 31.4401 27.32 31.3901 27.27C31.2201 27.1 31.0301 26.96 30.8201 26.85C30.7901 26.83 30.7601 26.8 30.7101 26.81C30.6301 26.81 30.0901 26.47 30.0401 26.41C29.8701 26.22 29.7601 26.09 29.6301 25.93C29.6101 25.91 29.5801 25.9 29.5801 25.85C29.5801 25.74 29.5201 25.72 29.4701 25.68C29.4001 25.62 29.3401 25.56 29.2901 25.48C29.2601 25.44 29.2601 25.38 29.2401 25.32C29.2301 25.27 29.3101 25.18 29.3301 25.18C29.3801 25.18 29.3901 25.1 29.4201 25.06C29.4201 25.05 29.4401 25.03 29.4501 25.02C29.4701 25 30.0301 25.08 30.0701 25.11C30.0701 25.11 30.2401 25.2 30.4201 25.29C30.6001 25.38 30.7701 25.49 30.8101 25.5C30.8501 25.52 30.8701 25.56 30.9001 25.6C30.9301 25.62 31.4301 25.91 31.4401 25.92C31.5301 26 31.6501 26.04 31.7001 26.18C31.7101 26.21 31.7301 26.22 31.7501 26.23C31.9201 26.34 32.0801 26.48 32.2301 26.62C32.3101 26.69 32.4001 26.75 32.4801 26.82C32.4901 26.83 32.5001 26.85 32.5201 26.87C32.5401 26.89 32.5501 26.91 32.5701 26.93C32.7701 27.08 32.9501 27.26 33.1601 27.39C33.2101 27.42 33.3801 27.66 33.4401 27.7C33.4701 27.72 33.5301 27.86 33.5601 27.87L33.5801 27.85Z" fill="#231F20"/>
<path d="M32.05 28.5C32.08 28.56 32.04 28.63 31.99 28.7C31.97 28.72 31.91 28.74 31.89 28.72C31.85 28.69 31.81 28.65 31.79 28.63C31.77 28.61 31.54 28.29 31.44 28.18C31.37 28.07 31.32 27.96 31.27 27.84C31.18 27.6 31.08 27.37 31 27.13C30.99 27.08 30.98 27.02 30.99 26.96C31 26.76 30.97 26.58 30.91 26.4C30.91 26.37 30.9 26.34 30.86 26.31C30.8 26.27 30.68 25.77 30.7 25.7C30.73 25.49 30.75 25.36 30.77 25.19C30.77 25.17 30.76 25.14 30.79 25.12C30.87 25.06 30.85 25.01 30.85 24.96C30.85 24.89 30.85 24.82 30.88 24.74C30.89 24.7 30.93 24.66 30.97 24.62C31 24.58 31.12 24.58 31.14 24.59C31.18 24.61 31.24 24.59 31.29 24.57C31.31 24.57 31.33 24.57 31.34 24.57C31.37 24.57 31.68 24.92 31.68 24.97C31.68 24.97 31.86 25.5 31.89 25.6C31.9 25.63 31.89 25.67 31.89 25.71C31.89 25.73 32.03 26.17 32.03 26.19C32.03 26.29 32.08 26.38 32.03 26.48C32.02 26.5 32.03 26.52 32.03 26.54C32.07 26.7 32.07 26.87 32.07 27.03C32.07 27.12 32.09 27.2 32.09 27.28C32.09 27.3 32.09 27.31 32.09 27.33C32.09 27.35 32.08 27.37 32.09 27.39C32.12 27.59 32.11 27.79 32.16 27.98C32.16 28.02 32.11 28.27 32.12 28.32C32.12 28.35 32.07 28.47 32.08 28.49L32.05 28.5Z" fill="#231F20"/>
<path d="M33.4401 26.42C33.5001 26.4 33.5601 26.45 33.6201 26.51C33.6401 26.53 33.6501 26.59 33.6201 26.61C33.5801 26.64 33.5401 26.68 33.5201 26.7C33.5001 26.71 33.1501 26.9 33.0301 26.98C32.9101 27.03 32.7901 27.07 32.6701 27.09C32.4201 27.14 32.1801 27.21 31.9301 27.25C31.8801 27.25 31.8201 27.25 31.7601 27.25C31.5701 27.21 31.3801 27.22 31.1901 27.25C31.1601 27.25 31.1301 27.25 31.1001 27.29C31.0501 27.35 30.5401 27.38 30.4801 27.36C30.2801 27.3 30.1501 27.26 29.9801 27.21C29.9601 27.21 29.9301 27.21 29.9101 27.18C29.8601 27.09 29.8101 27.11 29.7601 27.1C29.6901 27.1 29.6201 27.08 29.5501 27.04C29.5201 27.02 29.4801 26.98 29.4501 26.94C29.4201 26.91 29.4301 26.78 29.4501 26.77C29.4801 26.73 29.4501 26.67 29.4501 26.62C29.4501 26.6 29.4501 26.58 29.4501 26.57C29.4501 26.54 29.8501 26.29 29.8901 26.29C29.8901 26.29 30.4401 26.19 30.5401 26.17C30.5701 26.17 30.6101 26.18 30.6401 26.19C30.6601 26.19 31.1201 26.12 31.1401 26.12C31.2401 26.12 31.3301 26.1 31.4301 26.17C31.4501 26.18 31.4701 26.18 31.4901 26.17C31.6501 26.16 31.8201 26.17 31.9901 26.2C32.0801 26.21 32.1601 26.2 32.2401 26.21C32.2601 26.21 32.2701 26.22 32.2901 26.23C32.3101 26.23 32.3301 26.25 32.3501 26.25C32.5501 26.25 32.7501 26.29 32.9501 26.26C33.0001 26.26 33.2201 26.35 33.2801 26.35C33.3101 26.35 33.4201 26.42 33.4401 26.41V26.42Z" fill="#231F20"/>
</svg>
