<svg width="128" height="128" viewBox="0 0 128 128" fill="none" xmlns="http://www.w3.org/2000/svg">
<path d="M66.6097 116C66.2397 116.09 66.0297 115.85 65.6097 115.62C65.4797 115.54 65.2897 115.25 65.4197 115.14C65.5438 115.028 65.6777 114.928 65.8197 114.84L66.2197 114.63C67.3876 114.416 68.5809 114.379 69.7597 114.52C70.5636 114.629 71.3521 114.83 72.1097 115.12C72.901 115.417 73.6697 115.772 74.4097 116.18C74.8025 116.387 75.1743 116.631 75.5197 116.91C75.7111 117.038 75.8917 117.182 76.0597 117.34L76.4197 117.7C76.5659 117.827 76.6998 117.968 76.8197 118.12C77.0065 118.371 77.1641 118.643 77.2897 118.93C77.4444 119.182 77.5623 119.455 77.6397 119.74C77.6397 120.21 77.7997 120.62 77.8397 121.1L77.9197 121.8C77.9335 121.976 77.9335 122.153 77.9197 122.33C76.8406 122.439 75.7753 122.657 74.7397 122.98L74.3897 123.09C74.2974 123.128 74.2126 123.182 74.1397 123.25C73.5626 123.528 72.9597 123.749 72.3397 123.91C71.8997 124.02 71.4797 124.25 71.1197 124.35C70.8718 124.426 70.6174 124.48 70.3597 124.51C69.2508 124.58 68.1386 124.58 67.0297 124.51C66.8697 124.51 66.6997 124.51 66.5497 124.4C66.257 124.193 65.908 124.082 65.5497 124.08C65.0614 124.01 64.5901 123.851 64.1597 123.61C63.9397 123.5 63.7797 123.21 63.6097 123.03C63.4397 122.85 63.6597 122.64 63.7397 122.61C63.8197 122.58 63.8597 122.38 63.8897 122.27C63.8841 122.227 63.8841 122.183 63.8897 122.14C64.0297 122.083 64.1733 122.037 64.3197 122C64.6005 121.96 64.8779 121.9 65.1497 121.82C65.7397 121.72 66.3297 121.53 66.4497 121.52L66.9797 121.45C67.2897 121.45 67.6997 121.37 68.1397 121.28C68.8146 121.152 69.4822 120.988 70.1397 120.79C70.3486 120.76 70.5608 120.76 70.7697 120.79C70.9321 120.774 71.0927 120.744 71.2497 120.7L72.2497 120.38L73.7097 119.87C73.7697 119.87 73.8997 119.81 73.8697 119.87C73.8397 119.93 73.8697 119.87 74.0397 119.97C74.0264 119.924 74.0264 119.876 74.0397 119.83V119.74C74.0397 119.68 74.0997 119.74 73.9097 119.56C73.5803 119.259 73.2219 118.991 72.8397 118.76C72.7693 118.708 72.7055 118.647 72.6497 118.58C72.5694 118.505 72.4823 118.438 72.3897 118.38C71.3938 117.778 70.3206 117.313 69.1997 117C68.9397 117 67.7597 116.34 67.4497 116.34C67.3011 116.284 67.16 116.21 67.0297 116.12C66.899 116.053 66.7562 116.012 66.6097 116Z" fill="#231F20"/>
<path d="M45.3597 30.18C44.9192 29.7251 44.6505 29.1312 44.5997 28.5C44.5954 28.4511 44.6044 28.402 44.6259 28.3579C44.6473 28.3138 44.6804 28.2764 44.7215 28.2497C44.7626 28.2229 44.8103 28.2079 44.8593 28.2062C44.9083 28.2045 44.9568 28.2162 44.9997 28.24C45.3467 28.4748 45.6806 28.7285 45.9997 29C46.5576 29.569 47.0818 30.17 47.5697 30.8C48.269 31.6652 48.8663 32.6081 49.3497 33.61C50.0226 34.9844 50.2753 36.5267 50.076 38.0439C49.8768 39.5611 49.2346 40.9859 48.2297 42.14C47.273 43.2208 46.1362 44.1275 44.8697 44.82C44.3697 45.13 43.8697 45.39 43.4097 45.64C42.6605 46.0192 41.9835 46.5269 41.4097 47.14C40.911 47.7109 40.6187 48.4329 40.5797 49.19C40.5346 49.4782 40.5346 49.7718 40.5797 50.06C40.5987 50.4231 40.5987 50.7869 40.5797 51.15C40.5836 51.9174 40.52 52.6837 40.3897 53.44C40.2089 54.3047 39.8699 55.1285 39.3897 55.87C39.1016 56.2965 38.7661 56.689 38.3897 57.04C37.649 57.664 36.8484 58.2133 35.9997 58.68C35.2052 59.1498 34.3722 59.5512 33.5097 59.88C33.2729 60.0032 33.0151 60.0812 32.7497 60.11C32.1793 60.1581 31.6159 60.2688 31.0697 60.44C30.2863 60.6215 29.4765 60.6588 28.6797 60.55C28.2864 60.4744 27.9059 60.3431 27.5497 60.16C27.2297 60.02 27.4797 59.77 27.5497 59.75C27.8897 59.75 27.6497 59.52 27.6397 59.4C27.6291 59.3573 27.6291 59.3127 27.6397 59.27C27.8508 59.2291 28.0648 59.2057 28.2797 59.2L28.9197 59.09C29.1497 59.04 29.3897 58.95 29.6297 58.9C30.3564 58.6774 31.0651 58.4 31.7497 58.07C31.7497 58.07 32.1097 57.92 32.6097 57.67C33.2193 57.3657 33.8043 57.0146 34.3597 56.62C34.9389 56.2225 35.4841 55.7777 35.9897 55.29C36.2496 55.0375 36.4749 54.7517 36.6597 54.44C36.8097 54.2 36.9997 53.99 37.1397 53.75C37.4085 53.0871 37.5346 52.3749 37.5097 51.66C37.5097 50.49 37.5797 48.99 37.6197 48.89C37.7065 48.2737 37.8539 47.6674 38.0597 47.08C38.1882 46.7629 38.3455 46.4583 38.5297 46.17C38.7161 45.9013 38.9307 45.6532 39.1697 45.43C39.3597 45.27 39.5097 45.05 39.6897 44.89C41.0759 43.6629 42.6154 42.6209 44.2697 41.79C44.9372 41.3887 45.5462 40.8974 46.0797 40.33C46.1686 40.2227 46.2655 40.1224 46.3697 40.03C46.5036 39.9194 46.6184 39.7877 46.7097 39.64C47.2124 38.8954 47.5206 38.0367 47.6062 37.1423C47.6918 36.248 47.552 35.3465 47.1997 34.52C47.1297 34.32 46.9397 33.71 46.6997 33.08C46.509 32.5691 46.2713 32.077 45.9897 31.61C45.8073 31.1217 45.597 30.6442 45.3597 30.18Z" fill="#231F20"/>
<path d="M82.2798 59.58C81.6983 59.0479 81.0191 58.6336 80.2798 58.36C80.0398 58.26 80.0698 58.01 80.3898 57.98C81.0505 57.8884 81.7236 57.9747 82.3398 58.23C82.7656 58.4406 83.1383 58.7449 83.4299 59.12C83.6995 59.5242 83.8815 59.9803 83.9642 60.4591C84.0469 60.9379 84.0284 61.4288 83.9099 61.9C83.6538 62.8956 83.1399 63.8062 82.4198 64.54C81.8642 65.0975 81.2185 65.5572 80.5099 65.9C79.6399 66.37 79.5998 66.49 79.3598 67.22C79.1738 68.0136 79.0732 68.8249 79.0598 69.64C79.1173 71.6574 78.9157 73.6739 78.4598 75.64C78.2752 76.203 78.0269 76.7432 77.7199 77.25C77.5602 77.5077 77.3796 77.7519 77.1798 77.98L76.8699 78.32L76.5799 78.59C75.8277 79.3195 74.9997 79.9666 74.1098 80.52C73.3396 81.0076 72.5221 81.4164 71.6698 81.74C68.7945 82.8559 65.7522 83.4812 62.6698 83.59C62.1598 83.59 61.6699 83.59 61.1299 83.65C59.3997 83.668 57.6789 83.3942 56.0399 82.84C54.9177 82.4277 53.8855 81.803 52.9999 81C52.471 80.5055 52.0133 79.9401 51.6398 79.32C50.833 78.0028 50.4426 76.4727 50.5199 74.93L50.5899 74.34C50.5899 74.15 50.6899 73.95 50.7499 73.75C50.8597 73.3555 51.0175 72.976 51.2199 72.62C51.6329 71.9538 52.1773 71.3788 52.8198 70.93C53.1385 70.6768 53.4921 70.4714 53.8698 70.32C54.641 70.0797 55.3931 69.7822 56.1198 69.43C57.0705 69.049 57.9788 68.5697 58.8299 68C59.0199 67.86 59.2199 67.72 59.3999 67.57C59.5985 67.4313 59.7712 67.2586 59.9099 67.06C60.1999 66.72 60.3099 67.06 60.2499 67.19C60.0799 67.66 60.3798 67.37 60.5098 67.37C60.6398 67.37 60.5999 67.37 60.6099 67.37C60.5812 67.4727 60.5445 67.5731 60.4999 67.67C60.3774 67.9187 60.2335 68.1562 60.0698 68.38C59.5443 69.0159 58.9196 69.563 58.2199 70C57.4799 70.47 56.7298 70.89 56.1398 71.22C55.5498 71.55 55.1398 71.82 55.0298 71.9C54.6458 72.1211 54.2841 72.379 53.9499 72.67C53.6713 72.9269 53.432 73.2234 53.2399 73.55C53.1799 73.74 53.0798 73.91 53.0298 74.12C52.988 74.3315 52.9579 74.5451 52.9398 74.76C52.9077 75.6763 53.1403 76.5824 53.6099 77.37C53.8754 77.8574 54.2125 78.3024 54.6099 78.69C54.9299 79.01 55.2499 79.32 55.6099 79.62C55.9316 79.8146 56.2657 79.9883 56.6099 80.14C57.3177 80.4239 58.0559 80.6252 58.8099 80.74C60.0197 80.9335 61.2453 81.0106 62.4699 80.97C63.8899 80.97 65.2999 80.76 66.7199 80.64C67.0018 80.6128 67.28 80.5559 67.5499 80.47C69.911 79.9156 72.1378 78.8957 74.0998 77.47C74.3498 77.3 74.5498 77.07 74.7798 76.88C74.9911 76.6981 75.1853 76.4973 75.3598 76.28C75.6461 75.843 75.862 75.3638 75.9998 74.86C75.9998 74.66 76.1399 74.48 76.1899 74.28C76.2666 74.0214 76.3234 73.7572 76.3598 73.49C76.5499 72.06 76.4999 70.49 76.6499 68.83C76.7135 67.9436 76.9055 67.0712 77.2199 66.24C77.4138 65.7402 77.7063 65.2845 78.0799 64.9C78.4498 64.5492 78.8801 64.268 79.3498 64.07C80.0315 63.845 80.6704 63.5069 81.2398 63.07C81.7933 62.6267 82.2009 62.0275 82.4099 61.35C82.5104 61.0503 82.5611 60.7361 82.5598 60.42C82.5584 60.1173 82.4603 59.823 82.2798 59.58Z" fill="#231F20"/>
<path d="M44.5699 21.1C39.6772 23.1668 35.2699 26.2322 31.6299 30.1C28.0034 33.9789 25.1793 38.5362 23.3199 43.51C19.5363 53.5136 19.7332 64.5872 23.8699 74.45C25.9396 79.3213 28.9466 83.7384 32.7199 87.45C40.3285 94.971 50.506 99.3272 61.1999 99.64C66.5066 99.7839 71.7896 98.8803 76.7468 96.9808C81.704 95.0813 86.2381 92.2232 90.0899 88.57C93.9321 84.9041 96.9935 80.4992 99.0899 75.62C101.183 70.7474 102.304 65.5126 102.39 60.21C102.479 54.9146 101.583 49.6487 99.7499 44.68C97.9783 39.6794 95.2624 35.0657 91.7499 31.09C88.2043 27.1386 83.8941 23.9476 79.0799 21.71C69.3849 17.2459 58.3795 16.5333 48.1899 19.71C45.3699 20.58 46.3499 22.95 48.9399 22.12C58.5471 19.1136 68.9287 19.7836 78.0699 24C82.5768 26.0891 86.6119 29.0729 89.9299 32.77C93.2115 36.5096 95.744 40.8448 97.3899 45.54C99.1122 50.2186 99.9564 55.175 99.8799 60.16C99.797 65.139 98.744 70.054 96.7799 74.63C94.8126 79.1953 91.9455 83.3173 88.3499 86.75C84.7399 90.1745 80.4897 92.8532 75.8429 94.6327C71.1961 96.4121 66.2439 97.2574 61.2699 97.12C56.2906 96.9941 51.3791 95.9358 46.7899 94C37.5311 90.1024 30.146 82.7639 26.1899 73.53C22.3059 64.2623 22.1234 53.8582 25.6799 44.46C27.4222 39.7973 30.0697 35.5253 33.4699 31.89C36.8706 28.2707 40.9881 25.3997 45.5599 23.46C45.9299 23.3421 46.2403 23.0861 46.4265 22.7453C46.6127 22.4045 46.6605 22.0051 46.5599 21.63C46.3799 21 45.6199 20.62 44.5699 21.1Z" fill="#232020"/>
<path d="M47.6299 10.64C39.2523 12.7294 31.5827 17.013 25.4099 23.05C25.1799 23.25 26.8499 24.92 27.0399 24.72C32.9213 18.9694 40.2285 14.8895 48.2099 12.9C48.4199 12.84 47.8499 10.56 47.6299 10.64Z" fill="#232020"/>
<path d="M18.6999 31.2699C15.4537 36.2779 13.1367 41.83 11.8599 47.6599C12.5644 48.0194 13.3496 48.1916 14.1399 48.1599C15.3618 42.6069 17.5664 37.3171 20.6499 32.5399C20.0911 31.9907 19.4281 31.5589 18.6999 31.2699Z" fill="#232020"/>
<path d="M10.6998 56.9099C10.5339 62.154 11.1781 67.3923 12.6098 72.4399C13.3987 72.3999 14.168 72.181 14.8598 71.7999C13.475 66.9931 12.8474 61.9999 12.9998 56.9999C12.2444 56.835 11.4658 56.8045 10.6998 56.9099Z" fill="#232020"/>
<path d="M17.0697 83.1499C20.3566 88.9958 24.8126 94.1019 30.1597 98.1499C35.4893 102.174 41.5474 105.128 47.9997 106.85C54.4635 108.557 61.1925 109.022 67.8297 108.22L70.3097 107.89C71.1397 107.8 71.9397 107.55 72.7597 107.39L75.1997 106.85C75.9997 106.63 76.7897 106.35 77.5797 106.1C80.778 105.148 83.8629 103.851 86.7797 102.23C87.5997 101.79 86.4097 99.7399 85.6597 100.23C82.8732 101.78 79.9257 103.02 76.8697 103.93C76.1097 104.16 75.3597 104.43 74.5897 104.64L72.2597 105.16C71.4797 105.31 70.7197 105.55 69.9197 105.64L67.5597 105.95C61.2012 106.726 54.7532 106.285 48.5597 104.65C42.4091 102.99 36.6369 100.158 31.5597 96.3099C26.471 92.4456 22.2329 87.5743 19.1097 81.9999C18.7497 81.4199 16.6797 82.5199 17.0697 83.1499Z" fill="#232020"/>
<path d="M23.3198 57.6799C23.3198 58.3099 23.3198 58.9299 23.3998 59.5599V60.0199V60.3999C23.3998 60.3999 23.3998 60.4999 23.3998 60.5099L23.7899 60.6699C24.0499 60.7899 24.3298 60.8799 24.6098 60.9799C25.1703 61.1637 25.7458 61.2976 26.3298 61.3799C28.7197 61.7206 31.1568 61.3411 33.3299 60.2899C34.1109 59.8752 34.8627 59.4074 35.5799 58.8899L36.5799 58.0499C36.9299 57.7699 37.2099 57.4399 37.5799 57.1399C38.64 56.0682 39.4077 54.7427 39.8099 53.2899C40.1207 51.7029 40.2548 50.0864 40.2098 48.4699L40.2899 47.7699C40.2899 47.5199 40.3898 47.2699 40.4598 47.0099C40.5597 46.7209 40.7012 46.448 40.8799 46.1999C41.0639 45.9545 41.2909 45.7444 41.5498 45.5799C42.3698 45.0699 43.0898 44.7399 43.7998 44.3299C45.1959 43.6254 46.403 42.5967 47.3198 41.3299C48.8798 39.0799 48.6898 35.9499 47.7598 33.3299C47.117 31.6287 46.1943 30.0469 45.0298 28.6499C43.9369 27.2503 42.5774 26.0811 41.0298 25.2099C40.7898 25.0899 40.6398 25.0499 40.5298 24.9799C40.4198 24.9099 40.3798 24.8499 40.3898 24.7699C40.3998 24.6899 40.4599 24.6299 40.6098 24.5599C40.8142 24.469 41.0362 24.4246 41.2598 24.4299C43.112 24.5953 44.8301 25.4651 46.0599 26.8599C47.5098 28.3741 48.672 30.1396 49.4899 32.0699C50.3135 34.0686 50.6395 36.2374 50.4398 38.3899C50.2085 40.6413 49.1373 42.7229 47.4398 44.2199C46.643 44.9207 45.7711 45.5311 44.8398 46.0399L43.5198 46.7299C43.3099 46.8399 43.0998 46.9499 42.9298 47.0599C42.7598 47.1699 42.5898 47.2699 42.5298 47.2999C42.4698 47.3299 42.4398 47.4499 42.3598 47.6199C42.2927 47.8414 42.2491 48.0693 42.2298 48.2999C42.1698 48.7899 42.2298 49.3899 42.1698 49.9799C42.2047 51.2565 42.0839 52.5326 41.8099 53.7799C41.485 55.0673 40.933 56.2864 40.1798 57.3799C39.8007 57.9097 39.3793 58.408 38.9198 58.8699C38.6898 59.0999 38.4698 59.3399 38.2298 59.5499L37.4899 60.1499C36.9544 60.5879 36.3898 60.9888 35.7998 61.3499C35.2176 61.7434 34.5979 62.0783 33.9499 62.3499C32.6541 62.9075 31.2823 63.2681 29.8798 63.4199C28.4866 63.5818 27.0767 63.5279 25.6999 63.2599C25.0188 63.1383 24.3496 62.9576 23.6999 62.7199C23.3599 62.5999 23.0499 62.4699 22.6999 62.3199L21.9998 61.9999L21.6598 61.8299C21.5898 61.8299 21.5898 61.7399 21.5798 61.6799V61.4899C21.5298 61.1899 21.4799 60.8499 21.4499 60.5799L21.3798 59.9999C21.3798 59.5899 21.3099 59.1699 21.2899 58.7599C21.2899 57.9299 21.2299 57.0999 21.2899 56.2799C21.308 54.6293 21.4416 52.9819 21.6898 51.3499C22.0578 48.8712 22.6846 46.4379 23.5598 44.0899L24.2799 42.3599C24.5398 41.7899 24.8298 41.2299 25.0998 40.6699C25.3698 40.1099 25.6998 39.5799 26.0098 39.0399L26.4898 38.2299C26.5898 38.0799 26.7298 37.7399 26.8798 37.4699C28.6054 34.0435 30.8259 30.8897 33.4699 28.1099C34.06 27.4917 34.6879 26.9106 35.3498 26.3699C35.8761 25.9444 36.427 25.5504 36.9998 25.1899C37.5098 24.9299 37.9198 24.7299 38.2698 24.5899C38.7828 24.3735 39.3542 24.3382 39.8898 24.4899C40.0786 24.5321 40.2627 24.5923 40.4398 24.6699C40.6598 24.8199 40.5098 25.1099 40.0998 25.4999C39.8389 25.7256 39.5651 25.9359 39.2798 26.1299C38.9598 26.3999 38.5799 26.6899 38.1499 26.9899C36.8735 27.9635 35.6795 29.0404 34.5799 30.2099C33.4602 31.431 32.4214 32.7237 31.4698 34.0799C30.5023 35.4541 29.6206 36.8869 28.8298 38.3699L28.5498 38.9199V38.9799C28.5326 39.0294 28.5091 39.0765 28.4798 39.1199L28.3398 39.3599L28.1798 39.6299L27.5399 40.7099C27.0999 41.4199 26.7698 42.1999 26.3798 42.9499C24.2948 47.5715 23.2698 52.6009 23.3798 57.6699L23.3198 57.6799Z" fill="#231F20"/>
<path d="M61.8401 20.19C61.7102 20.1815 61.5799 20.1815 61.4501 20.19C61.3901 20.19 61.3001 20.19 61.2501 20.19C61.2823 20.2246 61.324 20.249 61.3701 20.26L61.7201 20.39L62.6301 20.7C63.0823 20.8603 63.5233 21.0507 63.9501 21.27C64.4743 21.5093 64.9465 21.849 65.3401 22.27C65.6199 22.547 65.8023 22.9072 65.86 23.2967C65.9177 23.6861 65.8475 24.0838 65.6601 24.43L65.4201 24.82C65.3485 24.9323 65.2647 25.0363 65.1701 25.13C64.9865 25.3491 64.7666 25.5352 64.5201 25.68C64.0771 25.9313 63.5867 26.088 63.0801 26.14C62.7006 26.1328 62.3253 26.2206 61.9882 26.3952C61.6512 26.5698 61.3631 26.8258 61.1501 27.14C60.6582 27.8039 60.3542 28.588 60.2701 29.41C60.2494 30.1412 60.4238 30.8646 60.7753 31.5061C61.1268 32.1476 61.6427 32.6839 62.2701 33.06C62.9244 33.5096 63.6378 33.8663 64.3901 34.12C65.147 34.3573 65.9369 34.4721 66.7301 34.46C68.4381 34.408 70.1413 34.2511 71.8301 33.99C72.7525 33.8644 73.6877 33.8644 74.6101 33.99C75.1326 34.0777 75.6284 34.2828 76.0601 34.59C76.417 34.8699 76.7514 35.1775 77.0601 35.51C78.1901 36.62 79.2101 37.76 80.3301 38.78C81.4046 39.821 82.6449 40.676 84.0001 41.31C84.8226 41.6487 85.7132 41.7892 86.6001 41.72C87.5542 41.6463 88.5027 41.5127 89.4401 41.32C90.3708 41.1332 91.2892 40.8894 92.1901 40.59C93.0433 40.3456 93.8483 39.9566 94.5701 39.44L94.7401 39.29C94.7401 39.29 94.8101 39.29 94.8201 39.29C94.8301 39.29 94.9501 39.29 95.0201 39.22C95.0901 39.15 95.1901 39.22 95.3101 39.35C95.3294 39.4558 95.3294 39.5642 95.3101 39.67C95.2833 39.8102 95.2431 39.9475 95.1901 40.08C94.6301 41.26 92.7801 42.45 90.4701 42.99C89.4417 43.2247 88.3997 43.3951 87.3501 43.5L86.5601 43.56C86.3001 43.56 85.9601 43.56 85.6701 43.56C85.3665 43.5469 85.065 43.5033 84.7701 43.43C84.4793 43.384 84.1944 43.3069 83.9201 43.2C82.8382 42.8415 81.8241 42.304 80.9201 41.61C80.0776 40.9714 79.2822 40.2729 78.5401 39.52C77.8001 38.8 77.1101 38.05 76.4301 37.33C75.8962 36.6875 75.2487 36.1485 74.5201 35.74C73.6527 35.596 72.7675 35.596 71.9001 35.74C70.9001 35.84 69.9001 35.98 68.9001 36.06C67.615 36.2197 66.3151 36.2197 65.0301 36.06C63.6885 35.8277 62.4148 35.3019 61.3001 34.52C60.098 33.7371 59.2013 32.565 58.7601 31.2C58.5371 30.2102 58.5727 29.1797 58.8634 28.2077C59.1542 27.2356 59.6903 26.3548 60.4201 25.65C60.8931 25.2298 61.4695 24.9433 62.0901 24.82C62.5446 24.759 62.9954 24.6722 63.4401 24.56C63.587 24.5006 63.7223 24.416 63.8401 24.31L64.0001 24.12C64.0368 24.0524 64.0804 23.9887 64.1301 23.93C64.178 23.8648 64.2038 23.7859 64.2038 23.705C64.2038 23.624 64.178 23.5452 64.1301 23.48C63.8869 23.2552 63.6103 23.0697 63.3101 22.93C62.9509 22.746 62.5801 22.5857 62.2001 22.45L61.6101 22.24L60.8201 21.99C59.6455 21.7252 58.5025 21.3363 57.4101 20.83C57.1737 20.659 56.9467 20.4754 56.7301 20.28C56.6706 20.221 56.6201 20.1536 56.5801 20.08C56.5801 19.96 56.5801 19.98 56.6501 19.92C56.7287 19.838 56.8022 19.7511 56.8701 19.66L56.9901 19.5C57.5101 19.38 57.9901 19.25 58.5901 19.14C59.1901 19.03 59.7201 18.93 60.3201 18.85L61.2201 18.73L61.9901 18.66C62.4001 18.66 62.8101 18.6 63.2201 18.59C64.8689 18.5099 66.5215 18.5701 68.1601 18.77C70.7424 19.0562 73.2634 19.748 75.6301 20.82C77.9222 21.9607 80.1105 23.2991 82.1701 24.82C85.4066 27.0294 88.4507 29.5082 91.2701 32.23C91.8701 32.85 92.4701 33.46 93.0401 34.14C95.1101 36.68 95.4001 37.84 95.2801 38.63C95.2678 38.8133 95.2342 38.9945 95.1801 39.17C94.9201 39.56 94.3801 38.44 93.0101 36.67C90.825 33.9847 88.3425 31.5558 85.6101 29.43C82.8198 27.1858 79.887 25.1248 76.8301 23.26C74.5802 21.9628 72.1192 21.0725 69.5601 20.63C68.2687 20.3951 66.9619 20.2548 65.6501 20.21C64.9901 20.21 64.3301 20.21 63.6501 20.21H62.6501L61.8101 20.28L61.8401 20.19Z" fill="#231F20"/>
<path d="M53.9999 81.0499C55.9299 82.1399 58.5299 82.3699 61.1099 82.5599C63.6458 82.8035 66.2023 82.7296 68.7199 82.3399C70.4884 82.0166 72.1829 81.3727 73.7199 80.4399C74.3897 80.0379 75.0192 79.5725 75.5999 79.0499C76.1862 78.5465 76.722 77.9872 77.1999 77.3799C78.0548 76.0966 78.5835 74.624 78.7399 73.0899C78.8599 72.2899 78.9399 71.4599 79.0199 70.6099C79.019 69.6721 79.1538 68.7391 79.4199 67.8399C79.5376 67.5456 79.7069 67.2747 79.9199 67.0399C80.111 66.8479 80.3223 66.6769 80.5499 66.5299L81.6199 65.8099C82.315 65.3598 82.9828 64.8689 83.6199 64.3399C84.71 63.513 85.5368 62.3875 85.9999 61.0999C86.1896 60.5614 86.1645 59.9704 85.9299 59.4499C85.6427 58.9097 85.2185 58.4545 84.6999 58.1299C84.3422 57.8933 83.964 57.6891 83.5699 57.5199C83.3699 57.4299 83.1599 57.3499 82.9599 57.2799L82.6499 57.1799C82.5734 57.1716 82.4963 57.1716 82.4199 57.1799C81.6057 57.074 80.778 57.1701 80.0099 57.4599C78.3726 58.1355 76.902 59.1591 75.6999 60.4599C75.2999 60.8599 75.0499 60.9599 74.8799 60.8099C74.7099 60.6599 74.6499 60.2699 74.7799 59.6999C75.0466 58.7713 75.5134 57.9123 76.1474 57.1833C76.7814 56.4543 77.5673 55.8729 78.4499 55.4799C79.551 54.9658 80.7548 54.7093 81.9699 54.7299L82.9099 54.8399C83.2524 54.9015 83.5876 54.9987 83.9099 55.1299C84.4449 55.3322 84.9632 55.5762 85.4599 55.8599C85.967 56.1874 86.4365 56.5697 86.8599 56.9999C87.3411 57.4727 87.7279 58.0326 87.9999 58.6499C88.2762 59.3412 88.3692 60.0921 88.2699 60.8299C88.1801 61.4686 87.9911 62.0894 87.7099 62.6699C86.612 64.6044 85.0303 66.2205 83.1199 67.3599C82.3299 67.9099 81.2299 68.5299 81.3299 68.6399C81.2108 68.9809 81.1467 69.3387 81.1399 69.6999C81.1399 70.1599 81.0499 70.7699 80.9899 71.2199C80.8708 72.4592 80.6838 73.6911 80.4299 74.9099C80.1436 76.2281 79.6035 77.478 78.8399 78.5899C78.448 79.1273 78.0096 79.6292 77.5299 80.0899C77.073 80.5519 76.5888 80.986 76.0799 81.3899C75.0525 82.2012 73.9228 82.8736 72.7199 83.3899C70.118 84.4062 67.3429 84.9056 64.5499 84.8599C63.1799 84.8599 61.8299 84.7999 60.4899 84.6999C59.1244 84.6147 57.7653 84.4478 56.4199 84.1999C54.6622 83.9047 53.0154 83.1452 51.6499 81.9999C50.9496 81.3703 50.4112 80.5814 50.0799 79.6999C49.9271 79.2805 49.7969 78.8532 49.6899 78.4199C49.5958 77.9883 49.5323 77.5505 49.4999 77.1099C49.3707 75.74 49.6052 74.3602 50.1799 73.1099C50.7557 71.8788 51.6286 70.8101 52.7199 69.9999C53.781 69.2101 54.9772 68.6205 56.2499 68.2599C56.5299 68.1799 56.9699 68.0799 57.0499 68.0299C57.2958 67.91 57.5331 67.773 57.7599 67.6199C58.214 67.3057 58.6301 66.94 58.9999 66.5299C59.5935 65.895 60.0527 65.1467 60.3499 64.3299C60.6611 63.3786 61.0735 62.4633 61.5799 61.5999C62.1403 60.6663 62.9371 59.8971 63.8899 59.3699C64.8262 58.881 65.842 58.5627 66.8899 58.4299C67.7614 58.3116 68.6405 58.2581 69.5199 58.2699C70.7162 58.2854 71.8982 58.5333 72.9999 58.9999C73.5422 59.1993 73.9865 59.6006 74.2399 60.1199C74.3414 60.2922 74.4093 60.4823 74.4399 60.6799C74.4399 61.2199 73.3299 60.8199 71.2499 60.5599C69.6855 60.3857 68.1037 60.4532 66.5599 60.7599C65.8873 60.8653 65.2474 61.1216 64.688 61.5095C64.1286 61.8974 63.6643 62.407 63.3299 62.9999C62.9311 63.7017 62.5964 64.438 62.3299 65.1999C61.9379 66.1927 61.3762 67.1097 60.6699 67.9099C59.9603 68.714 59.1181 69.3905 58.1799 69.9099L57.9999 69.9999L57.6999 70.1399L57.2299 70.2699L56.6599 70.4199C56.2952 70.5425 55.938 70.6861 55.5899 70.8499C54.5985 71.2871 53.7146 71.9355 52.9999 72.7499C52.3116 73.5616 51.8616 74.5481 51.6999 75.5999C51.576 76.6963 51.7131 77.8065 52.0999 78.8399C52.4434 79.7706 53.1206 80.5404 53.9999 80.9999V81.0499Z" fill="#231F20"/>
<path d="M67.1996 114.91V108.16C66.425 108.08 65.6442 108.08 64.8696 108.16V114.91C65.6451 114.97 66.4241 114.97 67.1996 114.91Z" fill="#232020"/>
<path d="M71.3997 121.46C72.3997 121.34 73.3997 121.21 74.3997 121.06C74.8997 120.99 75.3997 120.9 75.8797 120.84L76.6297 120.74C76.6297 120.74 76.7397 120.74 76.7697 120.74C76.7997 120.74 77.0197 120.74 77.0297 120.65C77.0313 120.554 77.0034 120.46 76.9497 120.38C76.9078 120.319 76.861 120.263 76.8097 120.21C76.6535 120.027 76.4865 119.853 76.3097 119.69C75.9597 119.36 75.5897 119.03 75.1997 118.69C73.8365 117.551 72.2524 116.706 70.5469 116.209C68.8415 115.711 67.0516 115.572 65.2897 115.8C63.7256 116.083 62.2454 116.715 60.9597 117.65C59.3251 118.92 57.848 120.38 56.5597 122C56.1397 122.5 55.8897 122.24 55.9197 121.57C56.0161 120.542 56.4243 119.569 57.0897 118.78C58.5915 116.952 60.5318 115.535 62.7297 114.66C64.9621 113.803 67.3997 113.632 69.7297 114.17C72.5276 114.777 75.1379 116.05 77.3397 117.88C77.6634 118.158 77.9706 118.456 78.2597 118.77C78.6888 119.214 79.0494 119.72 79.3297 120.27C79.4598 120.508 79.5402 120.77 79.566 121.04C79.5918 121.309 79.5625 121.582 79.4797 121.84C79.2597 122.38 78.6797 122.45 78.1997 122.7L76.7397 123.02L75.7397 123.23L73.6597 123.56C71.8497 123.84 70.0297 124.05 68.1997 124.22C66.8097 124.35 65.4097 124.42 64.0097 124.44C62.5988 124.449 61.1889 124.362 59.7897 124.18C57.6397 123.91 55.5697 123.63 53.5197 123.45L52.1897 123.37C50.5397 123.24 50.0497 123.13 49.6697 122.45C49.577 122.302 49.4935 122.148 49.4197 121.99C49.2297 121.48 49.9497 120.99 51.2997 120.92C55.2997 120.73 59.1997 121.92 62.8297 122C65.6903 122 68.5473 121.8 71.3797 121.4L71.3997 121.46Z" fill="#231F20"/>
<path d="M79.8199 4.85995C79.6699 4.73995 79.8199 4.56995 80.1799 4.34995C80.3465 4.26036 80.531 4.20912 80.7199 4.19995C80.8399 4.24236 80.9541 4.29946 81.0599 4.36995C81.1199 4.36995 81.5399 5.16995 81.6899 5.36995C81.8265 5.61899 81.9307 5.88447 81.9999 6.15995L82.4399 7.78995C82.4601 7.91246 82.4601 8.03744 82.4399 8.15995C82.4238 8.58735 82.4847 9.01417 82.6199 9.41995C82.6263 9.49493 82.658 9.56549 82.7099 9.61995C82.9094 10.0555 83.0313 10.5225 83.0699 11C83.0699 11.38 83.0099 11.76 82.9899 12.13C82.9899 12.19 82.9899 12.24 82.9899 12.3C82.9899 12.36 82.8899 12.55 82.8999 12.67C82.9192 12.8294 82.9192 12.9905 82.8999 13.15C82.8675 13.2486 82.8166 13.3403 82.7499 13.42C82.7499 13.5 82.4499 13.52 82.4199 13.5C82.3899 13.48 82.2299 13.5 82.1299 13.56H82.0299C81.7473 13.2997 81.4957 13.0078 81.2799 12.69C81.2799 12.69 80.8399 11.39 80.7699 11.25C80.75 11.1712 80.75 11.0887 80.7699 11.01C80.7699 11.01 80.3999 10.01 80.3999 9.92995C80.3999 9.70995 80.2599 9.50995 80.3999 9.26995C80.4145 9.22442 80.4145 9.17548 80.3999 9.12995C80.3199 8.76464 80.2697 8.39341 80.2499 8.01995C80.1753 7.84583 80.0919 7.67561 79.9999 7.50995C79.9953 7.47678 79.9953 7.44312 79.9999 7.40995C80.005 7.36342 80.005 7.31648 79.9999 7.26995C79.9502 6.84069 79.8666 6.41604 79.7499 5.99995C79.7646 5.75684 79.7646 5.51306 79.7499 5.26995C79.6799 5.17995 79.8799 4.89995 79.8199 4.85995Z" fill="#231F20"/>
<path d="M111.28 28.7999C111.17 28.9799 110.95 28.7999 110.66 28.4099C110.544 28.212 110.463 27.9955 110.42 27.7699C110.451 27.6276 110.491 27.4873 110.54 27.3499C110.54 27.2899 111.25 26.7299 111.47 26.5099C111.679 26.314 111.914 26.149 112.17 26.0199C112.67 25.7499 113.17 25.4399 113.68 25.1499C113.796 25.0814 113.926 25.0371 114.06 25.0199C114.516 24.9245 114.948 24.7374 115.33 24.4699C115.39 24.4699 115.47 24.3999 115.5 24.2899C115.899 23.942 116.371 23.6859 116.88 23.5399C117.33 23.5399 117.76 23.4599 118.2 23.4299C118.26 23.4299 118.31 23.3799 118.39 23.4299C118.47 23.4799 118.69 23.5199 118.82 23.4999C119.002 23.4695 119.188 23.4695 119.37 23.4999C119.488 23.5368 119.597 23.5981 119.69 23.6799C119.79 23.7399 119.84 24.0799 119.83 24.1199C119.82 24.1599 119.89 24.3799 119.93 24.5099V24.6499C119.714 24.9973 119.455 25.3165 119.16 25.5999L118.96 25.7099L118.54 25.9499C118.305 26.0866 118.078 26.2369 117.86 26.3999C117.8 26.4499 117.7 26.3999 117.61 26.3999C117.52 26.3999 116.61 27.0199 116.61 27.0399C116.4 27.1099 116.23 27.2899 115.93 27.2199C115.87 27.2199 115.84 27.2199 115.8 27.2199C115.441 27.4057 115.066 27.5596 114.68 27.6799C114.488 27.7632 114.301 27.8567 114.12 27.9599H114C113.95 27.9542 113.9 27.9542 113.85 27.9599C113.42 28.1999 112.92 28.3199 112.5 28.6099C112.4 28.6799 111.8 28.6999 111.68 28.7799C111.56 28.8599 111.32 28.7299 111.28 28.7999Z" fill="#231F20"/>
<path d="M86.9996 104.78L81.0996 92.22C80.2201 92.4603 79.3881 92.8493 78.6396 93.37L84.5097 105.92C85.3896 105.66 86.228 105.276 86.9996 104.78Z" fill="#232020"/>
<path d="M48.31 21.64L43 9.85999C42.1002 10.0908 41.2474 10.4766 40.48 11L45.85 22.81C46.7188 22.5323 47.5463 22.1387 48.31 21.64Z" fill="#232020"/>
<path d="M64.5897 24.2699C64.7897 23.8699 65.0897 23.5199 65.3797 23.0399C65.4023 23.0033 65.4352 22.9741 65.4743 22.956C65.5133 22.9378 65.5569 22.9316 65.5994 22.938C65.642 22.9444 65.6818 22.9631 65.7138 22.9919C65.7459 23.0207 65.7688 23.0582 65.7797 23.0999C65.9094 23.51 65.947 23.9436 65.8897 24.3699C65.8285 24.6655 65.7059 24.9449 65.5297 25.1899C65.2039 25.6279 64.8087 26.0096 64.3597 26.3199C63.9197 26.6599 63.4697 26.9699 63.1497 27.2499C62.895 27.4625 62.6697 27.708 62.4797 27.9799C62.2219 28.2526 62.0416 28.5891 61.9572 28.9547C61.8728 29.3203 61.8875 29.7018 61.9997 30.0599C62.0686 30.2257 62.1558 30.3834 62.2597 30.5299L62.7397 31.0799C62.8869 31.2625 63.0585 31.424 63.2497 31.5599C63.4137 31.7106 63.595 31.8415 63.7897 31.9499C64.5606 32.442 65.4664 32.6798 66.3797 32.6299C66.8197 32.6299 67.2697 32.6299 67.7497 32.6299C69.3797 32.5599 71.0897 32.0399 73.0197 31.8199C73.3545 31.8098 73.6884 31.7797 74.0197 31.7299C74.4345 31.6751 74.8548 31.6751 75.2697 31.7299C75.5897 31.7999 75.9697 31.9099 76.3497 32.0299C76.7318 32.1844 77.0999 32.3717 77.4497 32.5899C78.4028 33.2581 79.215 34.1077 79.8397 35.0899C80.1853 35.723 80.5798 36.3282 81.0197 36.8999C81.4573 37.434 81.9537 37.9171 82.4997 38.3399C82.6681 38.4432 82.8226 38.5676 82.9597 38.7099C83.2456 39.0483 83.6246 39.2952 84.0497 39.4199C84.6119 39.6703 85.1898 39.8841 85.7797 40.0599L86.6897 40.3599C86.9697 40.4399 86.8197 40.6299 86.6897 40.6599C86.3897 40.7199 86.6297 40.8299 86.6897 40.9199C86.6989 40.9492 86.6989 40.9806 86.6897 41.0099H86.4997C86.3445 41.0406 86.1875 41.0607 86.0297 41.0699C85.5403 41.1046 85.049 41.1046 84.5597 41.0699C83.7217 41.014 82.9013 40.8038 82.1397 40.4499C82.1397 40.4499 81.7497 40.2599 81.2297 39.9399C80.6054 39.5386 80.0225 39.0764 79.4897 38.5599C78.9438 38.0267 78.4484 37.4442 78.0097 36.8199C77.7824 36.5072 77.5388 36.2068 77.2797 35.9199C77.0797 35.6999 76.9297 35.4599 76.7597 35.2499C76.3217 34.826 75.7858 34.5168 75.1997 34.3499C74.5899 34.2111 73.9615 34.1739 73.3397 34.2399C72.5397 34.2399 71.6997 34.5099 70.7797 34.5299C70.597 34.5412 70.4161 34.5713 70.2397 34.6199C68.5783 35.0662 66.8455 35.1818 65.1397 34.9599C64.6648 34.8846 64.1991 34.7606 63.7497 34.5899C63.3028 34.4484 62.876 34.2501 62.4797 33.9999C62.3289 33.9088 62.1939 33.794 62.0797 33.6599C61.9297 33.5099 61.7797 33.3399 61.6197 33.1999C61.244 32.819 60.9088 32.4001 60.6197 31.9499C60.2579 31.4477 60.0151 30.8698 59.9097 30.2599C59.8256 29.6469 59.8711 29.023 60.0434 28.4287C60.2157 27.8344 60.5108 27.2829 60.9097 26.8099C61.2973 26.3727 61.7532 26.0013 62.2597 25.7099C62.8697 25.3499 63.4397 25.0699 63.6197 24.9299C63.7997 24.7899 64.5397 24.4799 64.5897 24.2699Z" fill="#231F20"/>
</svg>
