<svg width="128" height="128" viewBox="0 0 128 128" fill="none" xmlns="http://www.w3.org/2000/svg">
<path d="M54.4698 111.74C52.4198 109.58 50.7898 107.02 49.7798 104.19C49.4298 103.14 49.1198 102.12 48.9198 101.08C48.2098 97.39 48.3498 93.48 49.5498 89.92C50.0798 88.34 50.7598 86.82 51.5698 85.39C51.8498 84.94 52.1098 84.48 52.3898 84.04L53.2898 82.74C53.6298 82.33 53.9998 81.96 54.3598 81.58C54.7198 81.2 55.1998 80.93 55.6098 80.6C56.1498 80.22 56.1398 80.34 55.9598 80.91C55.8498 81.28 55.7298 81.68 55.6098 82.09C55.4498 82.55 55.2398 83.06 54.9298 83.54C52.5498 86.78 50.8798 90.42 50.4098 94.42C50.0998 96.82 50.5198 99.35 51.1198 101.77C51.4398 103.1 51.8698 104.36 52.4998 105.57C53.0998 106.79 53.8598 107.93 54.7198 108.99C55.7798 110.3 56.9798 111.52 58.3298 112.54C60.3498 114.13 62.6698 115.37 65.1198 116.12C66.0698 116.4 67.0398 116.6 68.0098 116.69L69.5198 116.85C70.0298 116.91 70.5098 116.96 70.9798 116.99C71.3898 117.01 71.7798 117.02 72.1798 117.01C73.6398 116.91 74.1798 116.9 74.6398 117.15C74.7398 117.21 74.8798 117.25 74.9498 117.31C75.1898 117.48 74.6898 118.06 73.4198 118.56C72.4698 118.86 71.3798 119.01 70.3898 118.91C69.8898 118.87 69.4198 118.82 68.9798 118.77L68.3098 118.71L67.5698 118.62C65.5898 118.37 63.6198 117.79 61.7698 116.97C59.0398 115.71 56.5198 113.96 54.4398 111.78L54.4698 111.74Z" fill="#231F20"/>
<path d="M50.13 48.13C50.66 50.81 51.23 53.48 51.85 56.15C52.08 57.12 52.37 58.08 52.6 59.05C53.39 62.5 54.17 65.95 54.96 69.39C55.3 70.93 55.7 72.46 56.01 74.01C56.2 75.01 56.42 76 56.51 77.05C56.55 78.08 56.51 79.22 55.85 80.24C55.32 80.84 55.36 80.56 55.34 80.02C55.29 79.73 55.18 79.38 54.96 78.96C54.77 78.55 54.59 78.1 54.45 77.58C54.17 75.72 53.64 73.77 53.22 71.81C52.79 69.84 52.34 67.85 51.94 65.84C51.47 63.43 50.67 60.99 50.04 58.55C49.35 55.87 48.71 53.17 48.1 50.46L47.02 45.45C46.48 42.92 46.04 40.35 45.58 37.82C45.22 35.85 44.72 33.94 44.46 31.98C44.4 31.55 44.32 31.13 44.27 30.69C44.12 29.06 44.3 28.52 44.76 28.13C44.87 28.04 44.97 27.93 45.08 27.87C45.44 27.68 45.84 28.31 46.18 29.45C46.42 30.3 46.65 31.16 46.87 32.03C47.11 32.9 47.33 33.77 47.5 34.66C47.87 36.43 48.24 38.23 48.61 40.03C49.14 42.71 49.63 45.42 50.22 48.11L50.16 48.13H50.13Z" fill="#231F20"/>
<path d="M42.1198 23.14C41.9598 20.96 42.1398 18.76 42.6998 16.59C43.2498 14.43 44.3098 12.27 46.0198 10.53C47.7398 8.79 50.1898 7.71 52.5498 7.61C53.1398 7.53 53.7698 7.62 54.3798 7.64C54.9898 7.7 55.5998 7.88 56.1998 8.01C57.3598 8.43 58.4698 8.99 59.3698 9.75C60.7198 10.82 61.7698 12.1 62.6098 13.43C63.4598 14.76 64.1498 16.15 64.6898 17.56C65.6598 20.05 66.2698 22.62 66.8598 25.06L68.6498 32.47C69.8098 37.42 70.8798 42.39 71.8898 47.37C72.7898 51.79 73.7098 56.22 74.6498 60.57C75.2698 63.36 75.8898 66.16 76.5698 68.93C77.2398 71.71 77.9198 74.47 78.4398 77.28C78.6698 79.06 78.2698 78.95 77.2198 77.68C76.6898 77.05 76.0498 76.11 75.3898 74.93C74.7498 73.75 74.2098 72.3 73.7698 70.68C73.0298 67.82 72.3498 64.94 71.7298 62.07C71.1498 59.2 70.5698 56.33 69.9998 53.45C68.8798 47.71 67.7198 41.98 66.4998 36.22C65.7698 32.78 64.9098 29.29 63.9198 25.82C63.4298 24.07 62.9698 22.34 62.3798 20.71C61.7998 19.07 61.1098 17.48 60.2798 16.03C59.3698 14.45 58.2498 13 56.8798 12.11C55.5098 11.22 53.9398 10.9 52.2898 11.18C51.4598 11.28 50.6998 11.57 49.9698 11.91C49.2598 12.3 48.5998 12.79 48.0398 13.42C46.9098 14.66 46.1698 16.34 45.7298 18.11C45.2198 20.31 45.1998 22.63 45.5898 24.92L46.8498 32.13C48.1498 39.41 49.5398 46.72 50.9298 53.93C52.0198 59.54 53.2198 65.02 54.1798 70.62C54.3798 71.86 54.6198 73.06 54.7798 74.31C55.0898 76.63 55.1998 78.19 55.1398 79.28C55.0498 80.38 54.7698 81.03 54.4298 81.55C54.2798 81.79 54.1398 82.09 54.0098 82.23C53.6498 82.68 52.7698 80.86 52.2698 77.54C50.6398 67.69 48.4698 57.3 46.4498 46.82C45.6898 42.93 44.9298 39.02 44.1598 35.12L43.0298 29.25L42.4798 26.31C42.3098 25.38 42.0798 24.25 42.0098 23.14L42.0898 23.12L42.1198 23.14Z" fill="#231F20"/>
<path d="M88.9701 112.13C86.5901 114.75 83.6001 116.69 80.4201 118C77.2301 119.31 73.8201 119.97 70.4201 120.03H68.5601L66.7001 119.9L65.7701 119.83L64.8401 119.67C64.2201 119.56 63.6001 119.45 63.0001 119.26C58.7001 118.11 54.8401 115.63 51.8701 112.41C48.8801 109.19 46.8801 105.07 46.2101 100.73C45.6701 96.88 46.0101 92.95 47.2601 89.29C48.0701 86.96 49.2101 84.68 50.8701 82.79C51.7001 81.86 52.6101 80.98 53.6201 80.25C54.6101 79.5 55.6701 78.82 56.8801 78.51C57.6601 78.35 58.0201 78.36 58.0601 78.5C58.1101 78.65 57.8601 78.97 57.5101 79.58C56.8201 80.86 55.5101 82.64 54.0201 84.48C53.6801 84.89 53.3501 85.3 53.0601 85.74L52.5801 86.37L52.1501 87.04C51.5701 87.93 51.1201 88.89 50.6901 89.86C49.9001 91.84 49.4301 93.96 49.2701 96.12C49.1201 98.3 49.3101 100.45 49.8501 102.54C50.4001 104.63 51.3201 106.65 52.5601 108.5C54.0501 110.7 56.0701 112.66 58.4601 114.06C60.8301 115.47 63.4901 116.42 66.2101 116.82C72.2701 117.69 78.7801 116.44 83.7401 112.79C86.7701 110.55 89.1901 107.45 90.3501 103.85C91.2601 101.13 91.4301 98.19 91.1801 95.31C90.9501 92.39 90.0901 89.59 88.6201 87.14C86.3501 83.3 82.6401 80.63 78.5901 79.1C77.6801 78.79 76.7901 78.51 75.8501 78.28C75.0001 78.02 74.2601 77.92 73.6601 77.74C73.0501 77.6 72.5601 77.5 72.1601 77.35C71.7601 77.19 71.4401 77.06 71.1801 76.89C70.9201 76.71 70.7101 76.51 70.5201 76.28C70.3501 76.07 70.1201 75.87 70.0201 75.69C69.8501 75.38 70.1501 75.14 70.8901 74.9C71.6201 74.63 72.7801 74.56 74.2401 74.72C78.5601 75.27 83.0001 76.96 86.6201 80.01C90.2401 83.03 92.9001 87.42 93.8601 92.14C94.5101 95.58 94.6401 99.17 93.8601 102.68C93.1001 106.18 91.4101 109.52 89.0101 112.17L88.9501 112.13H88.9701Z" fill="#231F20"/>
<path d="M79.3402 96.11C80.0002 100.95 77.4802 105.09 71.8302 106.04C66.8002 106.9 62.7602 103.81 61.6902 99.44C60.8302 95.89 62.2402 92.51 65.0802 90.51C65.5502 90.18 65.7702 89.6 65.6602 89.04C62.2902 72.32 53.0402 26.43 52.5102 23.55C52.3302 22.56 52.7902 21.55 53.7002 21.36C54.6502 21.16 55.3702 22.02 55.5902 22.94C56.4902 26.63 66.7402 70.39 70.6802 87.65C70.8202 88.24 71.3002 88.69 71.9102 88.77C75.6202 89.29 78.8202 92.34 79.3302 96.13L79.3402 96.11Z" fill="#231F20"/>
<path d="M73.2202 21.83C75.7602 21.31 78.2902 20.78 80.8302 20.26L81.9102 20.04C82.8702 19.84 83.5202 18.65 83.2202 17.73C82.8902 16.71 81.9402 16.21 80.9102 16.42C78.3702 16.94 75.8402 17.47 73.3002 17.99L72.2202 18.21C71.2602 18.41 70.6102 19.6 70.9102 20.52C71.2402 21.54 72.1902 22.04 73.2202 21.83Z" fill="#231F20"/>
<path d="M26.5098 31.46C29.0498 30.94 31.5798 30.41 34.1198 29.89L35.1998 29.67C36.1598 29.47 36.8098 28.28 36.5098 27.36C36.1798 26.34 35.2298 25.84 34.1998 26.05C31.6598 26.57 29.1298 27.1 26.5898 27.62L25.5098 27.84C24.5498 28.04 23.8998 29.23 24.1998 30.15C24.5298 31.17 25.4798 31.67 26.5098 31.46Z" fill="#231F20"/>
<path d="M83.44 66.7C85.98 66.18 88.51 65.65 91.05 65.13L92.1299 64.91C93.0899 64.71 93.74 63.52 93.44 62.6C93.11 61.58 92.1599 61.08 91.1299 61.29C88.5899 61.81 86.0599 62.34 83.5199 62.86L82.44 63.08C81.48 63.28 80.8299 64.47 81.1299 65.39C81.4599 66.41 82.41 66.91 83.44 66.7Z" fill="#231F20"/>
<path d="M36.7202 76.33C39.2602 75.81 41.7902 75.28 44.3302 74.76L45.4102 74.54C46.3702 74.34 47.0202 73.15 46.7202 72.23C46.3902 71.21 45.4402 70.71 44.4102 70.92C41.8702 71.44 39.3402 71.97 36.8002 72.49L35.7202 72.71C34.7602 72.91 34.1102 74.1 34.4102 75.02C34.7402 76.04 35.6902 76.54 36.7202 76.33Z" fill="#231F20"/>
<path d="M75.94 32.89C77.49 32.57 79.0399 32.25 80.5899 31.93L81.25 31.79C82.21 31.59 82.86 30.4 82.5599 29.48C82.2299 28.46 81.28 27.96 80.25 28.17C78.7 28.49 77.15 28.81 75.6 29.13L74.94 29.27C73.98 29.47 73.3299 30.66 73.6299 31.58C73.9599 32.6 74.91 33.1 75.94 32.89Z" fill="#231F20"/>
<path d="M32.6099 41.83C34.1599 41.51 35.7099 41.19 37.2599 40.87L37.9199 40.73C38.8799 40.53 39.5299 39.34 39.2299 38.42C38.8999 37.4 37.9499 36.9 36.9199 37.11C35.3699 37.43 33.8199 37.75 32.2699 38.07L31.6099 38.21C30.6499 38.41 29.9999 39.6 30.2999 40.52C30.6299 41.54 31.5799 42.04 32.6099 41.83Z" fill="#231F20"/>
<path d="M78.2402 44.04C80.7802 43.52 83.3102 42.99 85.8502 42.47L86.9302 42.25C87.8902 42.05 88.5402 40.86 88.2402 39.94C87.9102 38.92 86.9602 38.42 85.9302 38.63C83.3902 39.15 80.8602 39.68 78.3202 40.2L77.2402 40.42C76.2802 40.62 75.6302 41.81 75.9302 42.73C76.2602 43.75 77.2102 44.25 78.2402 44.04Z" fill="#231F20"/>
<path d="M31.8501 53.61C34.3901 53.09 36.9201 52.56 39.4601 52.04L40.5401 51.82C41.5001 51.62 42.1501 50.43 41.8501 49.51C41.5201 48.49 40.5701 47.99 39.5401 48.2C37.0001 48.72 34.4701 49.25 31.9301 49.77L30.8501 49.99C29.8901 50.19 29.2401 51.38 29.5401 52.3C29.8701 53.32 30.8201 53.82 31.8501 53.61Z" fill="#231F20"/>
<path d="M80.54 55.19C82.09 54.87 83.64 54.55 85.19 54.23L85.85 54.09C86.81 53.89 87.46 52.7 87.16 51.78C86.83 50.76 85.88 50.26 84.85 50.47C83.3 50.79 81.75 51.11 80.2 51.43L79.54 51.57C78.58 51.77 77.93 52.96 78.23 53.88C78.56 54.9 79.51 55.4 80.54 55.19Z" fill="#231F20"/>
<path d="M37.6802 64.02C39.2302 63.7 40.7802 63.38 42.3302 63.06L42.9902 62.92C43.9502 62.72 44.6002 61.53 44.3002 60.61C43.9702 59.59 43.0202 59.09 41.9902 59.3C40.4402 59.62 38.8902 59.94 37.3402 60.26L36.6802 60.4C35.7202 60.6 35.0702 61.79 35.3702 62.71C35.7002 63.73 36.6502 64.23 37.6802 64.02Z" fill="#231F20"/>
<path d="M32.1401 101.57C31.8901 102.42 31.4401 103.2 30.8201 103.84C30.2001 104.49 29.3601 104.97 28.4501 105.15C27.7901 105.29 27.1101 105.36 26.4801 105.21C25.3801 104.95 24.4601 104.33 23.7801 103.5C23.0901 102.68 22.7901 101.52 22.9301 100.48C23.0701 99.58 23.3901 98.74 23.9701 98.13C24.6601 97.33 25.7401 96.77 26.8001 96.97C27.1301 97.04 27.0401 97.27 26.8401 97.58C26.6301 97.87 26.4001 98.35 26.1901 98.62C25.9801 98.86 25.8301 99.14 25.7401 99.41C25.6901 99.55 25.6701 99.69 25.6301 99.81C25.5901 99.93 25.5501 100.05 25.5301 100.16C25.4501 100.63 25.4901 100.89 25.6401 101.37C25.7901 102.01 26.6501 102.33 27.2401 102.36C27.5801 102.39 27.9001 102.34 28.2301 102.16C28.5601 102 28.8901 101.72 29.1401 101.35C29.4401 100.9 29.6201 100.34 29.5801 99.81C29.5301 99.37 29.4601 99.06 29.2101 98.87C29.0801 98.77 28.9301 98.73 28.7701 98.71C28.6901 98.71 28.6101 98.71 28.5301 98.71C28.4201 98.71 28.3001 98.73 28.1801 98.75C27.4401 98.87 26.8101 99.3 26.2901 99.77C26.1701 99.88 26.0801 100 25.9601 100.1C25.8501 100.2 25.7601 100.27 25.6701 100.33C25.5701 100.38 25.4601 100.4 25.3701 100.42C25.1701 100.45 25.0001 100.44 24.7801 100.39C24.6801 100.37 24.5801 100.36 24.5001 100.33C24.2401 100.26 24.1001 99.83 24.2601 99.15C24.6401 98.26 25.3601 97.49 26.2601 96.94C26.7101 96.67 27.2201 96.45 27.7601 96.31C28.1801 96.2 29.1501 96.08 29.9201 96.33C30.4901 96.51 31.0201 96.83 31.4101 97.3C31.8001 97.74 32.0801 98.38 32.1901 98.79C32.4701 99.73 32.4401 100.69 32.2201 101.57L32.1501 101.55L32.1401 101.57Z" fill="#231F20"/>
<path d="M38.6901 113.3C38.2001 115.66 34.4401 114.67 34.8701 112.47C35.3001 110.27 39.1801 110.93 38.6901 113.3Z" fill="#231F20"/>
<path d="M105.03 91.69C105.54 92.52 105.32 93.58 104.83 94.4C104.75 94.53 104.68 94.66 104.6 94.8C104.53 94.91 104.45 95.01 104.36 95.11C104.03 95.43 103.64 95.72 103.14 95.91C102.64 96.1 102 96.1 101.51 95.8C101.04 95.54 100.78 95.09 100.72 94.66C100.61 94.14 100.78 93.47 101.33 93.23C101.5 93.16 101.56 93.35 101.63 93.58C101.69 93.81 101.89 94.04 101.96 94.12C102.01 94.2 102.08 94.27 102.15 94.31C102.18 94.33 102.22 94.34 102.25 94.34C102.26 94.34 102.28 94.34 102.29 94.34C102.31 94.34 102.25 94.37 102.24 94.38C102.19 94.42 102.16 94.46 102.15 94.48L102.21 94.31C102.21 94.31 102.21 94.38 102.29 94.41C102.49 94.48 102.73 94.14 102.91 93.84L103 93.72C103 93.72 103.03 93.69 103.05 93.66C103.08 93.62 103.12 93.58 103.15 93.53C103.21 93.43 103.27 93.31 103.28 93.18C103.29 93.01 103.2 92.85 103.04 92.78C102.81 92.67 102.55 92.59 102.13 92.73C101.84 92.84 101.64 93.12 101.47 93.32C101.44 93.37 101.41 93.43 101.37 93.47C101.33 93.51 101.3 93.53 101.26 93.54C101.21 93.54 101.13 93.51 101.07 93.49C100.93 93.44 100.78 93.36 100.58 93.25L100.32 93.11C100.06 92.96 99.8701 92.65 99.8701 92.21C100.04 91.72 100.38 91.27 100.83 90.98C101.29 90.71 101.83 90.55 102.39 90.53C103.49 90.48 104.56 90.86 105.09 91.69L105.05 91.72L105.03 91.69Z" fill="#231F20"/>
</svg>
