<svg width="128" height="128" viewBox="0 0 128 128" fill="none" xmlns="http://www.w3.org/2000/svg">
<path d="M28.8202 56.77C29.5902 55.91 30.3802 55.07 31.2002 54.25C31.5002 53.95 31.7502 53.62 32.0602 53.34C33.1402 52.33 34.2802 51.38 35.4502 50.49C35.9602 50.08 36.4702 49.68 36.9802 49.28L37.9702 48.52C38.2902 48.25 38.7302 48.16 39.1202 47.99C39.3702 47.9 39.4102 48.03 39.3502 48.31C39.2702 48.58 39.1802 49.14 38.8702 49.48C37.6302 50.55 36.4902 51.7 35.1602 52.69C34.3702 53.29 33.7202 54.1 33.0402 54.84C32.2902 55.66 31.5402 56.49 30.8402 57.36C30.4002 57.89 29.9802 58.43 29.5702 58.98C28.9602 59.83 28.3102 60.66 27.7902 61.55C27.3802 62.25 27.1002 63 26.7902 63.73C26.7202 63.89 26.6702 64.06 26.5902 64.22C26.2802 64.8 26.0202 64.89 25.5102 64.78C25.4002 64.76 25.2802 64.74 25.1802 64.71C24.8602 64.61 24.6502 64.2 24.7402 63.68C25.0802 62.2 25.8502 60.83 26.6802 59.52C27.2902 58.53 28.0402 57.62 28.7702 56.72L28.8102 56.75L28.8202 56.77Z" fill="#231F20"/>
<path d="M98.6802 54.2001C99.5602 55.2501 100.42 56.3301 101.22 57.4401C101.51 57.8501 101.86 58.2101 102.13 58.6401C103.11 60.1101 103.95 61.6801 104.69 63.2801C105 64.0001 105.32 64.7101 105.63 65.4301C106 66.3501 106.4 67.3001 106.26 68.3601C106.23 68.6901 106.18 68.6501 105.92 68.4601C105.79 68.3601 105.59 68.2301 105.34 68.0801C105.12 67.9201 104.95 67.7201 104.8 67.4801C104.51 67.0801 104.31 66.6501 104.11 66.2101L103.46 64.9401C102.98 64.1101 102.62 63.2301 102.21 62.3401C101.72 61.2701 100.95 60.3301 100.24 59.3601C99.4502 58.3001 98.6502 57.2501 97.7702 56.2501C97.2402 55.6201 96.6902 55.0201 96.1302 54.4201C95.2702 53.5301 94.4002 52.6301 93.4502 51.8301C92.7102 51.2101 91.9102 50.7101 91.1202 50.1701C90.9502 50.0501 90.7602 49.9601 90.6002 49.8201C90.0002 49.3201 89.9002 49.0501 90.0602 48.5701C90.1002 48.4601 90.1202 48.3401 90.1702 48.2501C90.3302 47.9201 90.7702 47.8801 91.3302 48.1201C92.9702 48.8301 94.3802 50.0301 95.7702 51.2501C96.8002 52.1601 97.7502 53.1701 98.7002 54.1701L98.6602 54.2101L98.6802 54.2001Z" fill="#231F20"/>
<path d="M3.4502 53.32C3.4502 53.32 13.2502 63.75 16.3502 64.86C19.4502 65.97 22.9102 63.77 22.9102 63.77L31.4602 53.32C31.4602 53.32 39.2902 47.24 40.5602 47.41C41.8302 47.58 35.7702 38.35 35.7702 38.35L27.9602 29.92C27.9602 29.92 22.5202 31.43 22.3702 37.51C22.2202 43.59 20.5002 45.9 17.2402 45.66C13.9802 45.42 12.9402 51.47 9.6802 52.36C7.7002 52.9 3.4502 53.33 3.4502 53.33V53.32Z" fill="#231F20"/>
<path d="M52.4102 60.3801C52.1602 60.6701 51.9202 60.9701 51.6902 61.2901C51.6002 61.4001 51.5602 61.5401 51.4802 61.6501C51.1702 62.0501 50.8502 62.4701 50.6402 62.8801C50.5402 63.0701 50.5202 63.2701 50.4802 63.4601C50.4202 63.7001 50.3902 63.9301 50.3002 64.2101C50.2702 64.3001 50.1402 64.3401 49.9402 64.3101C49.7502 64.28 49.4602 64.1601 49.3602 63.9501C48.9202 63.1701 49.2702 62.4001 49.6202 61.8801C49.8502 61.5601 49.9202 61.1701 50.0902 60.8301C50.2702 60.4501 50.5102 60.1001 50.7402 59.7501C50.8902 59.5401 51.0402 59.3201 51.1802 59.1101C51.4002 58.7901 51.6502 58.4901 51.8402 58.1501C51.9902 57.8901 52.0502 57.5701 52.1602 57.2801C52.1802 57.2201 52.1902 57.1401 52.2202 57.0801C52.3602 56.8701 52.5502 56.9201 52.9502 57.1801L53.2202 57.3601C53.5002 57.5601 53.7102 57.8501 53.7202 58.0701C53.7202 58.6901 53.4202 59.0801 53.1402 59.5001C52.9102 59.8001 52.6802 60.1101 52.4502 60.4101L52.4102 60.3901V60.3801Z" fill="#231F20"/>
<path d="M61.9999 62.79C62.9799 62.75 63.9599 62.73 64.9399 62.77C65.2999 62.77 65.6499 62.73 66.0099 62.77C67.2699 62.87 68.5299 63.07 69.7499 63.4C70.2999 63.54 70.8399 63.67 71.3799 63.8C72.0799 63.97 72.7399 64.34 73.2299 64.94C73.3799 65.14 73.3399 65.13 73.0999 65.22C72.8499 65.32 72.3999 65.56 71.9999 65.6C71.2699 65.71 70.6699 65.54 70.0299 65.42C69.3899 65.33 68.7499 65.17 68.0999 64.97C67.3099 64.74 66.4599 64.81 65.6299 64.79C64.7099 64.77 63.7899 64.77 62.8599 64.83C62.2899 64.86 61.7199 64.9 61.1499 64.98C60.2899 65.09 59.4099 65.18 58.5799 65.4C57.9299 65.56 57.3299 65.89 56.7099 66.1C56.5699 66.15 56.4399 66.21 56.2999 66.25C55.7799 66.4 55.5699 66.32 55.3199 65.92C55.2599 65.83 55.1899 65.74 55.1499 65.65C54.9899 65.34 55.1099 64.98 55.4599 64.72C56.4999 63.89 57.7699 63.48 59.0599 63.18C60.0199 62.94 61.0099 62.84 61.9899 62.75V62.8L61.9999 62.79Z" fill="#231F20"/>
<path d="M55.34 86.55C55.17 86.3 55.05 86.02 54.92 85.76C54.87 85.66 54.8 85.58 54.77 85.48C54.64 85.13 54.55 84.77 54.46 84.41C54.42 84.26 54.36 84.11 54.33 83.96C54.28 83.77 54.22 83.57 54.28 83.36C54.3 83.29 54.43 83.28 54.6 83.29C54.76 83.31 54.96 83.35 55.02 83.43C55.28 83.73 55.39 84.03 55.44 84.4C55.47 84.62 55.64 84.79 55.76 84.97C55.89 85.17 56.02 85.38 56.16 85.57C56.24 85.69 56.33 85.82 56.43 85.93C56.58 86.1 56.74 86.28 56.93 86.4C57.08 86.49 57.28 86.5 57.45 86.54C57.48 86.55 57.52 86.56 57.56 86.58C57.68 86.65 57.67 86.75 57.56 87.05L57.48 87.25C57.39 87.47 57.24 87.62 57.08 87.65C56.59 87.77 56.25 87.49 55.94 87.25C55.71 87.06 55.51 86.82 55.32 86.58L55.34 86.56V86.55Z" fill="#231F20"/>
<path d="M62.5902 94.19C62.5202 93.97 62.4702 93.75 62.4102 93.53C62.3902 93.45 62.3302 93.4 62.3202 93.31C62.2602 93.03 62.2702 92.73 62.2702 92.45C62.2702 92.33 62.2402 92.22 62.2102 92.11C62.1702 91.97 62.1102 91.83 62.1802 91.67C62.2102 91.57 62.9202 91.51 63.0502 91.61C63.2402 91.82 63.4002 92.01 63.4102 92.28C63.4102 92.44 63.5302 92.56 63.6002 92.7C63.6602 92.85 63.7302 93.02 63.8002 93.18C63.8402 93.28 63.8902 93.38 63.9502 93.47C64.0402 93.61 64.1102 93.76 64.2402 93.86C64.3502 93.93 64.5002 93.95 64.6302 93.99C64.6602 93.99 64.7002 93.99 64.7202 94.01C64.8002 94.06 64.7502 94.17 64.4902 94.5L64.3102 94.73C64.1102 94.98 63.9002 95.16 63.7502 95.18C63.3402 95.23 63.0302 95.09 62.8702 94.82C62.7402 94.64 62.6402 94.42 62.5502 94.22L62.5802 94.2L62.5902 94.19Z" fill="#231F20"/>
<path d="M66.79 103.8C66.76 103.52 66.76 103.24 66.77 102.97C66.77 102.87 66.73 102.79 66.75 102.69C66.83 102.34 66.95 102.02 67.07 101.72C67.12 101.59 67.13 101.45 67.14 101.32C67.16 101.15 67.14 100.96 67.33 100.84C67.44 100.77 68.46 101.21 68.51 101.34C68.56 101.59 68.57 101.79 68.42 102.04C68.33 102.19 68.45 102.34 68.47 102.48C68.47 102.64 68.47 102.82 68.5 102.99C68.51 103.1 68.53 103.21 68.56 103.31C68.61 103.46 68.65 103.63 68.77 103.74C68.88 103.82 69.04 103.84 69.15 103.89C69.17 103.9 69.21 103.89 69.23 103.92C69.27 104 69.2 104.13 68.92 104.47L68.73 104.7C68.52 104.95 68.29 105.13 68.1 105.17C67.81 105.23 67.61 105.17 67.39 105.09C67.21 104.99 67.11 104.82 67.01 104.65C66.87 104.4 66.8 104.11 66.73 103.84L66.77 103.82L66.79 103.8Z" fill="#231F20"/>
<path d="M82.1401 77.5401C82.4401 78.0201 82.7401 78.5101 83.0301 78.9901C83.1501 79.1601 83.2801 79.3201 83.3701 79.5101C83.6801 80.1901 83.9801 80.8701 84.3101 81.5301C84.4501 81.8301 84.6601 82.0701 84.7801 82.3701C84.9601 82.7401 85.1101 83.1401 85.2101 83.5501C85.2401 83.6801 85.2101 83.6801 85.0701 83.6401C84.9501 83.5901 84.6801 83.5301 84.4701 83.4001L83.9101 83.0501C83.8201 82.9901 83.7201 82.9401 83.6401 82.8701L83.4401 82.6401C83.1701 82.3401 82.9301 82.0201 82.7301 81.6601C82.4901 81.2301 82.0701 80.9201 81.7301 80.5501C81.3801 80.1301 81.0901 79.6501 80.7601 79.2101C80.5601 78.9301 80.3601 78.6501 80.1501 78.3901C79.8301 77.9801 79.5301 77.5601 79.1601 77.2001C78.8601 76.9301 78.5001 76.7301 78.1801 76.4901C78.1101 76.4401 78.0201 76.4001 77.9801 76.3201C77.7901 76.0501 77.8601 75.8401 78.1801 75.4701C78.2501 75.3801 78.3201 75.3001 78.3901 75.2201C78.6201 74.9701 78.9701 74.8301 79.2701 74.8801C80.1601 75.0301 80.6901 75.5701 81.1701 76.1501C81.5301 76.5801 81.8501 77.0501 82.1901 77.5101L82.1501 77.5501L82.1401 77.5401Z" fill="#231F20"/>
<path d="M103.52 34.64C102.85 34.96 95.1598 41.95 93.6798 43.87C92.1998 45.79 91.1498 48.03 92.7898 49.65C94.4298 51.27 102.25 58.86 103.52 61.58C104.79 64.3 109.15 69.31 110.37 68.6C111.59 67.89 122.25 59.25 123.07 58.44C123.89 57.63 123.6 52.78 119.6 52.33C115.6 51.89 112.19 49.49 112.93 46.08C113.67 42.67 111.74 38.37 107.67 39.19C103.6 40.01 103.51 34.62 103.51 34.62L103.52 34.64Z" fill="#231F20"/>
<path d="M74.2402 18.82C73.1602 22.04 68.6202 27.98 68.0202 30.06C67.4202 32.14 66.5902 35.31 66.5902 35.31L64.4002 34.37C64.3302 34.35 64.2702 34.23 64.2502 34.07L54.1602 31.52C54.6302 31.44 62.1302 34.02 64.3002 31.65C66.0602 29.72 68.5902 24.42 68.5902 21.62C68.5902 16.46 63.4902 16.58 61.0502 21.62C59.9102 23.97 60.2702 15.25 63.3702 13.92C66.4602 12.59 69.1202 10.18 70.9802 12.1C72.8302 14.01 75.3202 15.62 74.2402 18.83V18.82Z" fill="#231F20"/>
<path d="M100.32 76.61C99.82 77.31 99.37 78.04 99.02 78.73L98.79 79.25L98.52 79.94L97.97 81.28C97.7 81.92 97.5 82.59 97.19 83.22C96.13 85.44 94.89 87.59 93.51 89.64C92.89 90.55 92.25 91.46 91.55 92.33L90.85 93.16C90.58 93.41 90.34 93.7 90.03 93.91C89.73 94.13 89.38 94.3 89.03 94.45C88.69 94.6 88.27 94.65 87.9 94.69C87.39 94.64 87.47 94.6 87.65 94.12C87.75 93.83 87.86 93.52 87.96 93.25C88.01 93.07 88.05 92.86 88.11 92.69C88.18 92.53 88.26 92.38 88.35 92.25C89.88 90.46 91.3 88.28 92.8 86.02C93.7 84.66 94.24 83.04 94.86 81.49C95.2 80.64 95.53 79.78 95.84 78.92L96.07 78.26C96.17 78.01 96.26 77.75 96.36 77.51C96.58 77.04 96.8 76.58 97.05 76.15C97.66 75.08 98.32 74.08 99.05 73.13C100.16 71.69 101.42 70.37 102.74 69.13C103.78 68.18 104.79 67.15 106.14 66.41C106.45 66.27 106.72 66.08 107.07 65.99C108.33 65.61 108.86 65.9 109.12 66.57C109.18 66.73 109.26 66.88 109.29 67.04C109.38 67.58 108.98 68.06 108.43 68.38C106.84 69.51 105.16 70.83 103.61 72.57C102.46 73.83 101.37 75.22 100.4 76.65L100.33 76.61H100.32Z" fill="#231F20"/>
<path d="M90.1102 75.65C90.1502 75.59 90.1102 75.54 90.0702 75.47L90.0302 75.42L90.0102 75.39L89.9302 75.32L89.1702 74.83C88.1302 74.18 87.0202 73.57 85.9002 72.98C85.0802 72.55 84.2202 72.2 83.3902 71.77L74.5602 67.25C73.2402 66.59 71.9202 65.93 70.6102 65.28C68.9202 64.46 67.1902 63.61 65.8502 62.17C65.4502 61.7 65.6002 61.63 66.2002 61.61C66.5002 61.6 66.9102 61.59 67.3902 61.59C67.8602 61.61 68.3502 61.71 68.8502 61.89C72.3202 63.3 75.7402 64.88 79.1102 66.76C81.1202 67.88 83.3702 68.72 85.5102 69.74C86.6802 70.3 87.8502 70.88 89.0202 71.5C89.6002 71.81 90.1802 72.13 90.7602 72.47L91.6802 73.05C92.1002 73.33 92.5202 73.61 92.8702 73.94C93.3102 74.33 93.6202 74.76 93.7902 75.23C93.8702 75.46 93.9102 75.75 93.8302 76C93.7302 76.24 93.5902 76.46 93.4802 76.69C93.3102 76.92 93.0902 77.1 92.9002 77.3L92.6002 77.59L92.2302 77.82C91.9802 77.97 91.7502 78.14 91.4802 78.27C91.2002 78.39 90.9002 78.49 90.7102 78.56C89.3802 78.98 88.0402 79 86.7602 78.91C85.4702 78.82 84.2302 78.55 83.0202 78.23C81.1502 77.72 79.3102 77.14 77.5702 76.29C77.1802 76.12 76.8102 75.93 76.4402 75.7C75.7402 75.32 75.4302 74.85 75.2202 74.52C75.0202 74.17 74.9902 73.86 75.0602 73.49C75.0902 73.32 75.1002 73.15 75.1602 73C75.3402 72.53 76.1102 72.52 77.1702 72.85C78.7202 73.35 80.1002 74.07 81.6002 74.57C83.0802 75.07 84.5702 75.53 86.0602 75.76C87.0602 75.9 88.0602 75.98 88.9602 75.86C89.1802 75.83 89.3802 75.78 89.6002 75.74C89.7102 75.73 89.7902 75.68 89.8902 75.65C89.9502 75.63 89.9002 75.65 89.9202 75.65C89.9402 75.65 89.9802 75.65 90.0002 75.63C90.0102 75.63 90.0302 75.62 90.0402 75.61H90.1502L90.1102 75.65Z" fill="#231F20"/>
<path d="M86.6801 91.47C85.9501 89.32 84.8301 87.23 83.5301 85.24C83.0501 84.51 82.5001 83.84 81.9701 83.15C80.1401 80.67 78.0701 78.33 75.8001 76.19C74.7901 75.24 73.7101 74.36 72.6301 73.5C71.9101 72.99 71.2201 72.43 70.5401 71.85C69.8401 71.31 69.1801 70.69 68.5401 70.04C68.1401 69.63 68.3001 69.52 68.8501 69.54C69.1301 69.54 69.5101 69.58 69.9701 69.64C70.4301 69.69 70.9401 69.81 71.4101 70.04C74.8401 71.65 77.6701 74.22 80.1401 77.08C81.5901 78.82 83.2801 80.46 84.6801 82.31C86.2101 84.36 87.5601 86.55 88.6101 88.92C89.2501 90.38 89.7901 91.9 90.0601 93.51C90.2901 94.72 90.3501 96 90.1901 97.24C90.0301 98.48 89.6901 99.68 89.2101 100.82C88.4801 102.58 87.5101 104.24 86.2301 105.65C85.9601 105.97 85.6701 106.26 85.3401 106.53C84.1001 107.49 83.5101 107.49 82.9001 107.14C82.7601 107.06 82.6101 107 82.5101 106.91C82.1701 106.63 82.4101 105.91 83.0401 105.1C83.9601 103.9 84.9101 102.82 85.6601 101.6C86.4201 100.4 86.9901 99.11 87.2601 97.75C87.4901 96.75 87.5101 95.72 87.4001 94.69C87.2601 93.64 87.0101 92.56 86.6001 91.5L86.6601 91.47H86.6801Z" fill="#231F20"/>
<path d="M37.5598 93.7399C37.7598 94.2299 37.9398 94.7699 38.1598 95.2199L38.4898 95.8899C38.5998 96.1099 38.7198 96.2199 38.8298 96.3999C39.0298 96.7299 39.4898 97.1399 39.8698 97.5099C40.2698 97.8899 40.6998 98.2699 41.1298 98.6499C42.8498 100.18 44.6598 101.69 46.4798 103.21C47.8098 104.33 49.1798 105.35 50.4898 106.55C52.1398 108.05 53.6098 109.77 54.8098 111.68C55.4098 112.61 55.9298 113.65 56.3798 114.55C56.5098 114.81 56.5698 114.98 56.7198 115.13C56.8798 115.3 57.1198 115.19 57.2898 115.09C57.3698 115.05 57.4498 115.01 57.5298 114.94C57.6698 114.84 57.8298 114.72 57.9598 114.59C58.2298 114.34 58.4698 114.06 58.6598 113.75C59.0498 113.14 59.2698 112.41 59.3198 111.63C59.4098 110.48 59.1498 109.25 58.7098 108.08C58.2798 106.9 57.6898 105.76 56.9998 104.69C56.1098 103.32 55.0398 102.04 53.8998 100.86C52.7898 99.6399 51.6198 98.4899 50.4298 97.2899C49.7798 96.3799 49.8198 96.5099 50.8698 96.5599C51.3998 96.5799 52.1098 96.7299 52.9498 96.9899C53.7798 97.2599 54.6598 97.7399 55.4898 98.3999C58.0098 100.74 60.1098 103.54 61.4198 106.93C62.0098 108.64 62.3998 110.56 62.0298 112.62C61.8398 113.64 61.4298 114.66 60.7898 115.53L60.2798 116.14L59.7098 116.68C59.4998 116.87 59.3498 116.96 59.0598 117.18C58.7798 117.4 58.4398 117.56 58.1298 117.74C57.6898 117.97 57.2298 118.06 56.7798 118.1C56.3098 118.13 55.8498 117.94 55.4798 117.69C54.7898 117.22 54.3598 116.24 54.0398 115.65C53.8098 115.16 53.5898 114.7 53.3398 114.25C52.8598 113.35 52.3098 112.5 51.6698 111.71C51.0398 110.91 50.3198 110.18 49.5798 109.46C48.8198 108.77 48.0298 108.09 47.1898 107.41L41.6598 102.92C40.7398 102.16 39.8098 101.4 38.9098 100.59C38.4598 100.18 38.0098 99.7699 37.5698 99.3299C37.3498 99.1099 37.1298 98.8799 36.9098 98.6399C36.6898 98.3999 36.4798 98.0699 36.2698 97.7899C35.3898 96.3399 34.8898 94.9299 34.4198 93.4999C33.9598 92.0699 33.5798 90.6499 33.1998 89.2199C32.0798 84.9099 31.1898 80.5399 29.9198 76.3799C29.4298 74.7599 28.8398 73.1999 28.1298 71.7599L27.5598 70.7299L26.8898 69.6199L25.6298 67.4299C25.2598 66.8099 24.8698 66.2399 24.4898 65.6799C23.7898 64.6299 23.2798 64.0299 22.9498 63.5299C22.6198 63.0399 22.5098 62.6199 22.4998 62.1499C22.4998 61.9399 22.4398 61.6999 22.4698 61.5199C22.5098 61.2199 22.8198 61.1399 23.4098 61.2499C23.9898 61.3699 24.7998 61.7999 25.6498 62.5899C26.9298 63.7399 27.8398 65.1999 28.6398 66.5599C29.0198 67.2299 29.4098 67.8899 29.7998 68.5699C29.9998 68.9199 30.1698 69.1599 30.3798 69.5799L30.9898 70.7599C32.3698 73.8799 33.1898 77.0099 34.0098 80.1299C34.5798 82.4299 35.1498 84.7399 35.7198 87.0499C36.2898 89.3299 36.8798 91.6199 37.6398 93.7199L37.5698 93.7499L37.5598 93.7399Z" fill="#231F20"/>
<path d="M58.0201 105.89C57.5001 105.06 57.0301 104.03 56.7301 103.21C56.6101 102.9 56.4301 102.66 56.3101 102.39C55.8801 101.4 55.5401 100.86 54.4201 100.17C53.9401 99.8799 53.4401 99.4699 53.0601 99.0299C52.8101 98.7499 52.5601 98.4599 52.4001 98.1199C52.2501 97.7699 52.1501 97.3999 52.1201 97.0299C52.1101 96.7899 52.2501 96.7799 52.5201 96.8399C52.7801 96.9099 53.2601 96.9899 53.5901 97.1399C54.1301 97.4499 54.6001 97.7099 55.0801 97.8699C55.4501 98.1499 56.0901 98.4599 56.7701 99.0799C57.5801 99.8399 58.2401 100.65 58.6601 101.46C59.1201 102.36 59.4001 103.15 59.8201 103.89C60.0801 104.35 60.3801 104.82 60.7001 105.29C61.1901 106 61.6801 106.76 62.1601 107.55C62.5401 108.16 62.9901 108.75 63.2801 109.5C63.3401 109.66 63.4201 109.82 63.4601 110C63.5101 110.67 63.3001 110.91 62.6701 111.01C62.5301 111.03 62.4001 111.06 62.2801 111.07C61.8801 111.09 61.4101 110.87 61.1901 110.61C60.5501 109.83 60.1401 109.08 59.5201 108.18C59.0101 107.44 58.4901 106.69 57.9801 105.95L58.0301 105.91L58.0201 105.89Z" fill="#231F20"/>
<path d="M75.11 97.3C74.44 95.36 73.42 93.46 72.23 91.67C71.79 91.01 71.26 90.43 70.78 89.79C69.1 87.56 67.21 85.42 65.15 83.45C64.22 82.59 63.22 81.8 62.2 81.08L60.22 79.69C59.89 79.45 59.56 79.22 59.24 78.97C58.91 78.73 58.66 78.37 58.37 78.07C58.03 77.66 58.19 77.51 58.77 77.38C59.06 77.32 59.46 77.25 59.94 77.2C60.39 77.2 60.84 77.31 61.28 77.53C62.04 77.94 62.8 78.35 63.53 78.81C64.24 79.3 64.94 79.8 65.62 80.34C66.97 81.41 68.25 82.59 69.41 83.89C70.77 85.46 72.35 86.95 73.66 88.64C75.1 90.49 76.37 92.5 77.38 94.66C78 95.99 78.51 97.38 78.86 98.82C79.39 101.01 79.47 103.36 78.94 105.61C78.85 106.05 78.74 106.48 78.61 106.91C78.5 107.35 78.36 107.74 78.19 108.18C77.87 109.04 77.34 109.92 76.62 110.62C76.3 110.93 75.99 111.23 75.62 111.46C74.93 111.89 74.43 112.03 74.04 111.98C73.65 111.96 73.38 111.74 73.12 111.41C73 111.26 72.87 111.12 72.78 110.97C72.5 110.47 72.86 109.77 73.46 109.2C73.93 108.81 74.3 108.4 74.56 107.98C74.83 107.56 75.01 107.13 75.24 106.6C75.69 105.45 75.99 104.32 76.06 103.08C76.15 101.25 75.81 99.27 75.05 97.35L75.12 97.32L75.11 97.3Z" fill="#231F20"/>
<path d="M81.5499 95.3C81.1299 93.3 80.3599 91.33 79.2799 89.48C78.8399 88.83 78.3999 88.19 77.9099 87.57C76.3199 85.28 74.4099 83.13 72.2899 81.16C71.3599 80.27 70.3099 79.51 69.2999 78.73L67.3299 77.24C66.6799 76.73 66.0399 76.2 65.5699 75.44C65.2699 74.97 65.4399 74.86 66.0499 74.77C66.3499 74.73 66.7999 74.64 67.2399 74.67C67.4599 74.68 67.7099 74.69 67.9399 74.75C68.1599 74.82 68.3799 74.91 68.5899 75.03C71.5699 76.72 74.2599 78.95 76.6099 81.61C77.9899 83.2 79.6099 84.72 80.8899 86.5C82.2999 88.45 83.4099 90.66 84.1499 92.98C84.4099 93.68 84.5599 94.42 84.7099 95.15C84.8999 95.88 84.9499 96.62 85.0399 97.37C85.2299 99.63 85.1499 101.87 84.5999 104.12C84.1899 105.85 83.4399 107.65 82.0499 109.02C81.7299 109.29 81.4499 109.62 81.0899 109.84C79.7799 110.72 79.1699 110.57 78.6099 109.95C78.4799 109.81 78.3399 109.67 78.2499 109.52C77.9399 109.01 78.2499 108.31 78.8799 107.75C79.8399 106.92 80.4999 106.01 80.9399 104.98C81.4099 103.97 81.7099 102.77 81.8499 101.43C81.9699 100.43 81.9199 99.39 81.9399 98.37L81.7899 96.84C81.7399 96.33 81.5899 95.84 81.4999 95.33L81.5799 95.31L81.5499 95.3Z" fill="#231F20"/>
<path d="M44.9398 51.82C45.6498 52.49 46.4598 53.09 47.2998 53.64C47.5998 53.85 47.9698 53.95 48.2798 54.14C49.4098 54.79 50.5598 55.48 51.7998 55.98C52.3498 56.21 52.9298 56.34 53.5098 56.47C54.2398 56.69 54.9998 56.7 55.6898 57.19C55.9098 57.34 55.8398 57.66 55.5698 58.03C55.3098 58.4 54.8298 58.94 54.3498 58.92C52.6398 59.02 51.0098 58.45 49.5298 57.63C48.6398 57.14 47.6498 56.82 46.7398 56.32C45.7498 55.78 44.8098 55.12 43.9098 54.43C43.3798 53.97 42.8298 53.55 42.3398 53.05C41.9498 52.69 41.5798 52.32 41.2398 51.91C40.8798 51.53 40.5398 51.12 40.2198 50.71C39.6798 50.1 39.1398 49.5 38.6298 48.85C38.5298 48.7 38.4198 48.56 38.3498 48.39C38.0998 47.76 38.1698 47.49 38.5898 47.14C38.6898 47.06 38.7798 46.98 38.8798 46.91C39.2098 46.7 39.6498 46.78 40.0398 47.06C41.1498 47.92 41.9598 48.86 42.8898 49.76C43.5398 50.45 44.1998 51.17 44.9798 51.77L44.9398 51.82Z" fill="#231F20"/>
<path d="M71.6499 20.4401C72.0999 19.5801 72.3699 18.7501 72.4299 17.9601C72.4699 17.18 72.2899 16.3801 71.8499 15.5701C71.6699 15.2901 71.4799 14.9601 71.2799 14.8101C71.1799 14.7101 71.0899 14.6101 71.0099 14.5001C70.8999 14.4301 70.7899 14.3501 70.6899 14.2701C69.9599 13.6801 68.8399 13.4301 67.6699 13.6401C66.4999 13.8301 65.3399 14.4601 64.3799 15.3201C63.5099 16.0801 62.8799 17.1001 62.4199 18.1801C62.3399 18.3501 62.2599 18.5201 62.1899 18.7001L62.0299 19.2501C61.9299 19.6201 61.7899 19.9801 61.7499 20.3601L61.6399 20.9301C61.5799 21.1201 61.5099 21.3101 61.4699 21.5101C61.3899 21.9101 61.3099 22.3101 61.2299 22.71C61.1099 23.22 60.9399 23.1901 60.6099 22.7601C60.4399 22.5501 60.2199 22.2401 59.9799 21.8401C59.8699 21.6401 59.7099 21.4201 59.6399 21.1701C59.5899 21.0501 59.5699 20.9201 59.5099 20.7901C59.4999 20.6601 59.4899 20.5301 59.4799 20.39C59.4499 19.9101 59.4399 19.4201 59.5099 18.9301C59.5799 18.4501 59.5799 17.9401 59.7299 17.4601C59.8699 16.9801 59.9599 16.4701 60.1799 16.0101C60.4299 15.5601 60.6599 15.1101 60.9499 14.6801C62.0899 12.9601 63.8499 11.6401 65.8799 11.0801C67.0699 10.7001 68.3799 10.5701 69.7099 10.6901C71.0499 10.7901 72.3999 11.4701 73.3599 12.4401C73.5999 12.7201 73.8899 13.0001 74.0699 13.2801C74.2499 13.5701 74.4399 13.8301 74.5999 14.1401C74.9199 14.7401 75.2099 15.3801 75.3699 16.0701C75.7499 17.4401 75.6099 18.9201 75.2299 20.1801C74.7399 21.7401 73.9499 23.0401 73.1699 24.2701C71.9799 26.1301 70.6599 27.8201 69.7099 29.6601C68.9699 31.0801 68.4999 32.5801 68.1999 34.0501C68.1199 34.3701 68.0799 34.6901 68.0199 35.0201C67.7699 36.2201 67.5699 36.5901 66.8299 36.8401C66.6599 36.9001 66.4999 36.98 66.3299 37.01C65.7999 37.1301 65.3199 36.5501 65.2099 35.4301C65.1299 34.6101 65.1499 33.7701 65.2299 32.92C65.3599 32.09 65.5499 31.2501 65.8199 30.4501C66.3099 28.8101 67.1699 27.3601 68.0299 26.0001C69.2999 23.9901 70.7199 22.18 71.5699 20.4101L71.6499 20.4401Z" fill="#231F20"/>
<path d="M23.0502 60.71C25.4902 57.76 27.9302 54.54 30.8702 51.71C31.9402 50.68 33.0402 49.63 34.3002 48.76C35.0702 48.25 35.8702 47.76 36.7202 47.36C37.1302 47.14 37.5902 46.98 38.0202 46.8C38.2402 46.71 38.4702 46.65 38.6902 46.57C38.8402 46.52 38.8402 46.53 38.9302 46.5C39.0502 46.45 39.2602 46.5 39.3202 46.36C39.3602 46.23 39.3202 46.08 39.2802 45.95C39.2802 45.85 38.8602 44.94 38.5002 44.28C37.7402 42.88 36.8502 41.51 35.9202 40.17C34.6602 38.36 33.2802 36.62 31.8102 34.99C29.9002 32.92 27.9702 30.91 25.9802 28.96C25.3302 28.4 25.4702 28.31 26.3002 28.43C26.7102 28.5 27.2802 28.64 27.9602 28.86C28.2902 28.98 28.6702 29.1 29.0202 29.28C29.3702 29.47 29.7102 29.7 30.0502 29.96C31.2502 30.89 32.3802 31.88 33.3902 32.98C34.4202 34.06 35.4002 35.18 36.3402 36.33C37.2902 37.48 38.1502 38.69 38.9802 39.95C39.8002 41.21 40.5802 42.5 41.2602 43.92L41.4802 44.4C41.5402 44.54 41.6902 44.87 41.7902 45.11C42.0002 45.63 42.1602 46.15 42.2002 46.65C42.2302 47.14 42.1802 47.63 41.8702 48.04C41.7402 48.23 41.5002 48.31 41.2802 48.43L40.6302 48.77C40.4002 48.83 40.1702 48.9 39.9402 48.97L39.4502 49.15C39.2102 49.23 38.9802 49.34 38.7402 49.45C38.2702 49.65 37.8202 49.92 37.3602 50.18C36.4602 50.72 35.6102 51.37 34.7702 52.03C31.8602 54.39 29.4002 57.42 26.9502 60.5C26.1902 61.45 25.4302 62.41 24.6202 63.35C23.8002 64.29 22.9802 65.24 21.8502 66.07C21.4202 66.38 20.9402 66.68 20.2602 66.83C19.9402 66.92 19.5802 66.91 19.2702 66.88L18.4602 66.71C17.4602 66.41 16.5702 65.99 15.7302 65.52C14.0602 64.58 12.5302 63.48 11.0602 62.34C8.79024 60.55 6.59024 58.76 4.59024 56.67C4.17024 56.19 3.73024 55.74 3.33024 55.23C2.97024 54.74 2.67024 54.35 2.46024 53.98C2.26024 53.61 2.13024 53.28 2.04024 53.01C1.87024 52.45 1.91024 52.05 2.06024 51.68C2.13024 51.51 2.18024 51.32 2.26024 51.2C2.58024 50.81 3.31024 51.44 4.48024 52.56C7.84024 55.94 11.6602 59.51 15.8502 62.18C16.6202 62.68 17.4102 63.11 18.1602 63.46C18.3602 63.57 18.5302 63.61 18.7102 63.68C18.8802 63.73 19.0902 63.85 19.2202 63.85C19.3602 63.87 19.5502 63.93 19.5902 63.94C19.5902 63.93 19.5902 63.96 19.6002 63.94C19.6802 63.9 19.9602 63.78 20.2402 63.55C20.5302 63.33 20.8302 63.04 21.1402 62.74C21.7502 62.11 22.3602 61.39 22.9702 60.64L23.0302 60.68L23.0502 60.71Z" fill="#231F20"/>
<path d="M63.6602 55.02C61.9602 55.7 60.2802 56.65 58.6902 57.71C57.0902 58.76 55.5902 59.99 54.2802 61.33C53.8002 61.82 53.3702 62.34 52.9902 62.86C52.6202 63.37 52.2802 63.95 52.1102 64.36C52.0402 64.5 51.9802 64.68 52.0602 64.85C52.1602 65.01 52.2902 65.09 52.5502 65.14C52.9002 65.21 53.2602 65.17 53.7602 65C54.2502 64.83 54.8102 64.55 55.3802 64.27C57.6902 63.09 60.1902 62.03 62.7202 61.33C63.8402 60.98 65.1302 60.75 66.3102 60.69C67.5102 60.62 68.7002 60.66 69.8702 60.77C71.3702 60.91 72.8602 61.15 74.3102 61.53C75.0402 61.71 75.7602 61.96 76.4402 62.28C76.7902 62.43 77.1202 62.61 77.4602 62.78C77.7902 62.97 78.0902 63.23 78.3902 63.46C79.1202 64.12 78.9202 64.12 78.0802 64.13C77.1902 64.2 75.7102 64.36 74.1702 64.05C71.4502 63.41 68.5802 63.1 65.9602 63.38C65.3002 63.44 64.6902 63.58 64.0902 63.74L62.0602 64.4C60.7002 64.85 59.3802 65.36 58.0602 65.95C57.2602 66.3 56.4902 66.71 55.6002 67.14C55.1602 67.35 54.6602 67.57 54.1002 67.74C53.5202 67.89 52.8402 67.99 52.1902 67.89C51.4902 67.8 50.6902 67.53 50.1202 67.06C49.5202 66.6 49.1702 65.88 49.1202 65.14C49.0702 64.77 49.1502 64.39 49.2102 64.01C49.3302 63.65 49.4402 63.24 49.5702 63.02C49.8202 62.49 50.1102 62.06 50.4102 61.64C51.7502 59.84 53.3302 58.48 54.9702 57.19C56.6102 55.9 58.3402 54.76 60.1702 53.77C61.3002 53.17 62.4802 52.62 63.7302 52.21C64.9702 51.77 66.3902 51.62 67.6402 51.57C71.4602 51.46 75.1902 51.64 78.8402 51.21C81.6702 50.89 84.3902 50.2 86.9002 49.11C87.4402 48.85 87.9602 48.57 88.5002 48.32C90.4302 47.24 91.0202 46.91 91.8702 47.19C92.0502 47.24 92.2602 47.26 92.4002 47.32C92.6302 47.43 92.6202 47.69 92.4002 48.14C92.3002 48.37 92.1102 48.61 91.8702 48.88C91.6402 49.16 91.3302 49.44 90.9402 49.69C88.7102 51.3 86.0402 52.35 83.3302 53C80.6002 53.65 77.8002 53.92 75.0402 54.04C72.9902 54.14 70.9402 54.13 68.9702 54.16C68.0002 54.19 67.0002 54.21 66.1902 54.34C65.3902 54.44 64.5402 54.73 63.6902 55.08L63.6602 55.02Z" fill="#231F20"/>
<path d="M69.9902 108.96C70.4502 108.64 70.8202 108.25 71.0202 107.89C71.2102 107.53 71.2602 107.21 71.1202 106.88C71.0202 106.65 70.7502 106.48 70.4402 106.28C69.8802 105.93 69.0602 105.73 68.2202 105.7C67.3802 105.66 66.5102 105.78 65.6802 106.02C64.9402 106.24 64.2602 106.63 63.7202 107.12C63.3902 107.45 63.0602 107.77 62.7802 108.13C62.6502 108.31 62.5102 108.5 62.3802 108.69C62.2802 108.89 62.0202 109.06 61.8702 109.28C61.6002 109.54 61.5702 109.53 61.3302 109.18C61.2002 109 61.0402 108.74 60.8902 108.38C60.7802 108.03 60.7902 107.64 60.9402 107.26C61.0602 106.93 61.2302 106.61 61.4102 106.31C61.5002 106.16 61.6002 106.01 61.7002 105.87C61.8202 105.75 61.9402 105.61 62.0702 105.5C62.5802 105.03 63.1402 104.65 63.7302 104.35C64.9102 103.75 66.1902 103.47 67.4702 103.49C68.2302 103.5 69.0102 103.52 69.8002 103.65C70.5902 103.79 71.4302 104.02 72.1702 104.6C72.9902 105.21 73.5902 106.3 73.5802 107.37C73.6002 108.46 73.1002 109.37 72.5602 110.07C71.8702 110.93 71.0102 111.54 70.1202 112.04C68.7402 112.75 67.2202 113.12 65.6402 113.13C64.4302 113.14 63.0802 112.93 61.9402 112.13C61.7102 111.94 61.4602 111.76 61.2802 111.52C60.6102 110.6 60.9202 110.07 61.2802 109.7C61.3702 109.61 61.4502 109.52 61.5302 109.45C61.6702 109.34 61.8502 109.35 62.0902 109.39C62.3302 109.44 62.6502 109.51 62.9002 109.63C63.1002 109.72 63.2702 109.79 63.4202 109.88C63.6002 109.93 63.7302 110.01 63.8702 110.06C64.1402 110.19 64.4202 110.27 64.7202 110.32C65.3102 110.44 66.0202 110.44 66.7602 110.3C67.8602 110.1 69.0302 109.6 69.9202 108.93L69.9702 108.98L69.9902 108.96Z" fill="#231F20"/>
<path d="M66.5702 99.6701C66.8702 99.0301 67.0802 98.3501 67.1002 97.7401C67.1302 97.4301 67.0802 97.1601 67.0302 96.9101C66.9802 96.8001 66.9602 96.6701 66.9002 96.5701C66.8502 96.4701 66.8602 96.4501 66.8102 96.4001C66.7502 96.3401 66.7102 96.3301 66.5602 96.2901C66.4002 96.2801 66.2202 96.2501 65.9902 96.2601C65.1902 96.2701 64.2102 96.5301 63.3002 96.9201C62.3902 97.3201 61.5102 97.8701 60.7802 98.5501C60.1202 99.1601 59.6202 99.9101 59.2702 100.69C59.0502 101.2 58.9702 101.73 58.8602 102.26C58.7402 102.79 58.6102 103.36 58.5902 103.98C58.5602 104.37 58.4402 104.38 58.0902 104.12C57.9102 103.99 57.6702 103.8 57.4102 103.51C57.1302 103.23 56.9002 102.84 56.8102 102.39C56.7802 102.19 56.7202 101.99 56.7202 101.79L56.7702 101.19C56.8302 100.79 56.9002 100.4 57.0202 100.02C57.2602 99.2701 57.5802 98.5401 58.0502 97.9301C58.9702 96.7001 60.1602 95.7801 61.4602 95.1301C63.0302 94.4101 64.6002 93.4901 66.7802 93.7301C67.3502 93.8101 68.1102 94.1001 68.5902 94.6301C69.1002 95.2001 69.2902 95.7101 69.4402 96.2701C69.7202 97.3901 69.5802 98.4401 69.3002 99.3801C68.9602 100.55 68.4002 101.58 67.7502 102.53C66.7402 103.95 65.4302 105.17 63.7902 105.97C63.1402 106.26 62.4402 106.49 61.6802 106.55C60.9202 106.61 60.1102 106.48 59.3902 106.13C59.0902 105.96 58.7702 105.83 58.5202 105.6C58.0102 105.21 57.8202 104.85 57.7602 104.55C57.7102 104.25 57.7902 104.01 57.9602 103.75C58.0402 103.63 58.1102 103.51 58.2002 103.41C58.5102 103.09 59.0502 103.24 59.6302 103.51C60.4102 104.01 61.0802 104.13 61.7102 104C62.3502 103.88 63.1002 103.51 63.8402 102.96C64.9202 102.12 65.9202 100.91 66.5002 99.6101L66.5602 99.6301L66.5702 99.6701Z" fill="#231F20"/>
<path d="M60.77 91.2C60.93 90.52 60.99 89.82 60.89 89.33C60.85 89.08 60.78 88.91 60.72 88.82C60.68 88.76 60.68 88.74 60.6 88.68C60.52 88.62 60.44 88.58 60.36 88.55C60.12 88.45 59.8 88.52 59.4 88.63C58.68 88.83 57.8 89.33 57.06 90C56.3 90.66 55.61 91.47 55.04 92.35C54.54 93.13 54.18 94.01 53.99 94.88C53.84 95.43 53.8 95.99 53.81 96.49C53.81 96.74 53.79 96.98 53.8 97.23C53.82 97.34 53.82 97.47 53.84 97.59C53.86 97.7 53.8 97.89 53.83 98.02C53.83 98.42 53.8 98.51 53.25 98.49C53.1 98.49 52.93 98.47 52.73 98.42C52.48 98.4 52.33 98.27 52.14 98.14C51.77 97.87 51.42 97.43 51.28 96.94C50.95 95.16 51.38 93.62 52.01 92.28C52.65 90.94 53.5 89.74 54.58 88.73C55.22 88.13 55.87 87.51 56.62 86.94C57.37 86.38 58.26 85.85 59.4 85.71C60.01 85.63 60.7 85.68 61.31 85.92C61.63 86.02 61.9 86.2 62.18 86.37C62.47 86.58 62.73 86.82 62.93 87.1C63.74 88.22 63.8 89.4 63.76 90.4C63.69 91.66 63.33 92.8 62.91 93.89C62.24 95.53 61.25 97.02 59.98 98.3C59.48 98.79 58.94 99.26 58.3 99.66C57.67 100.05 56.9 100.33 56.09 100.4C55.74 100.44 55.38 100.44 55.02 100.4C54.36 100.28 53.97 100.07 53.76 99.82C53.6 99.48 53.57 99.21 53.61 98.91C53.63 98.77 53.64 98.62 53.68 98.5C53.75 98.3 53.92 98.17 54.16 98.07C54.4 97.99 54.76 97.78 55.02 97.83C55.88 97.84 56.47 97.55 57.09 97.11C57.73 96.68 58.37 96.02 58.94 95.23C59.77 94.06 60.45 92.62 60.71 91.22H60.78L60.77 91.2Z" fill="#231F20"/>
<path d="M46.47 83.39C46.85 82.66 47.29 81.94 47.94 81.25C48.28 80.91 48.65 80.57 49.17 80.29C49.72 79.95 50.38 79.84 51 79.84C51.85 79.89 52.67 80.15 53.38 80.62C54.28 81.24 54.92 82.07 55.27 82.92C55.85 84.42 55.94 85.88 55.82 87.26C55.7 88.65 55.4 89.98 54.96 91.26C54.56 92.4 54.1 93.54 53.33 94.55C52.84 95.19 52.23 95.85 51.33 96.2C50.88 96.36 50.38 96.43 49.92 96.34C49.45 96.29 49.01 96.09 48.73 95.75C48.36 95.34 48.52 95.31 49 95.12C49.23 95.06 49.56 94.78 49.79 94.65C49.9 94.55 50 94.46 50.1 94.38C50.18 94.26 50.25 94.22 50.33 94.13C50.6 93.94 50.9 93.62 51.17 93.16C51.45 92.71 51.65 92.15 51.91 91.6C52.4 90.47 52.77 89.21 53.03 87.91C53.33 86.37 53.03 84.62 52.38 83.57C52.04 82.98 51.59 82.7 50.96 82.6C50.75 82.6 50.62 82.61 50.34 82.8C50.07 82.97 49.8 83.26 49.55 83.6C48.92 84.43 48.45 85.5 48.11 86.58C47.6 88.23 47.37 90.05 47.68 91.68C47.81 92.3 48.07 92.88 48.41 93.29C48.76 93.71 49.15 93.92 49.55 94.01C49.63 94.04 49.73 94.05 49.83 94.04C49.93 94.04 50.01 94.06 50.13 94.04C50.52 94.04 50.82 94.02 51.06 94.15C51.31 94.23 51.5 94.43 51.71 94.72C51.8 94.85 51.92 94.97 52 95.1C52.13 95.31 52.11 95.54 51.95 95.82C51.79 96.1 51.47 96.38 50.94 96.55C50.18 96.77 49.22 96.88 48.24 96.52C47.25 96.2 46.44 95.42 45.95 94.63C44.96 93 44.83 91.36 44.85 89.83C44.96 87.56 45.44 85.42 46.41 83.32L46.47 83.35V83.39Z" fill="#231F20"/>
<path d="M96.3902 50.41C99.1702 52.94 101.78 55.65 104.14 58.6C105 59.68 105.89 60.74 106.65 61.91C107.32 62.94 107.95 64 108.5 65.11C108.78 65.66 109.04 66.24 109.28 66.8C109.38 67.06 109.41 67.22 109.49 67.45C109.67 67.57 109.9 67.44 110.1 67.37C110.22 67.34 110.82 67 111.29 66.72C112.26 66.13 113.22 65.48 114.16 64.79C115.84 63.6 117.46 62.26 118.98 60.89C119.99 60.03 120.96 59.13 121.95 58.24C122.93 57.34 123.92 56.47 125.11 55.77C125.85 55.33 125.82 55.45 125.59 56.2C125.47 56.57 125.36 57.16 125.11 57.77C124.98 58.07 124.86 58.42 124.68 58.74C124.49 59.05 124.26 59.36 124.01 59.65C123.1 60.7 122.15 61.72 121.18 62.72C120.19 63.7 119.13 64.6 118.06 65.5C116.99 66.4 115.86 67.24 114.66 68C114.06 68.38 113.45 68.76 112.82 69.12C112.5 69.3 112.18 69.47 111.84 69.64C111.42 69.86 110.81 70.15 110.28 70.33C109.62 70.56 109.01 70.62 108.43 70.44C108.1 70.35 107.94 70.12 107.76 69.9C107.56 69.73 107.44 69.36 107.29 69.06C107.14 68.75 107.02 68.4 106.89 68.07L106.64 67.48C106.47 67.12 106.3 66.76 106.11 66.41C105.36 64.99 104.44 63.63 103.5 62.3C101.41 59.38 98.9702 56.65 96.3502 54.11C94.7402 52.55 93.0502 51.03 91.3002 49.65L90.8802 49.33L90.6102 49.13L90.4502 49.01C90.4502 49.01 90.3502 49.01 90.4202 48.92L90.5702 48.69L90.8602 48.23C90.8602 48.18 90.8002 48.17 90.7702 48.14L90.5502 47.99C90.4002 47.9 90.2602 47.78 90.0802 47.72C90.0702 47.72 90.0702 47.72 90.0702 47.72C89.8402 47.66 89.6702 47.61 89.2402 47.55C89.2802 47.33 89.3502 47.13 89.4202 46.92C89.5202 46.71 89.6002 46.5 89.7302 46.3C89.9602 45.89 90.2602 45.45 90.4302 45.23C90.8302 44.68 91.2602 44.15 91.6902 43.64C92.5602 42.62 93.4602 41.65 94.3802 40.7C96.2702 38.77 98.1602 36.89 100.38 35.28C100.87 34.93 101.35 34.58 101.89 34.27C102.89 33.7 103.65 33.46 104.23 33.44C104.8 33.41 105.15 33.51 105.45 33.73C105.58 33.83 105.74 33.92 105.82 34.02C106.06 34.38 105.3 34.78 104.12 35.66C102.28 36.79 100.49 38.29 98.7702 39.9C97.0602 41.52 95.3902 43.27 93.8802 45.11C93.4602 45.62 93.0602 46.15 92.6902 46.67L92.4402 47.03C92.4402 47.03 92.4402 47.03 92.4302 47.03V47.05C92.4302 47.05 92.3902 47.02 92.5502 47.15C93.0102 47.5 93.4502 47.84 93.8902 48.2C94.7702 48.91 95.6302 49.63 96.4702 50.38L96.4302 50.44L96.3902 50.41Z" fill="#231F20"/>
<path d="M50.1899 32C49.0399 31.44 47.9299 30.72 46.9299 29.83C45.9199 28.94 45.1099 27.8 44.5599 26.52C44.1699 25.58 43.8699 24.53 43.9599 23.41C44.0399 22.44 44.3899 21.45 44.9599 20.67C45.5299 19.88 46.2599 19.29 47.0199 18.86C48.5499 18.03 50.2999 17.69 51.9499 17.86C53.4199 17.99 54.8299 18.5 56.0499 19.25C57.6299 20.19 58.8199 21.87 59.0899 23.65C59.1799 24.21 58.9299 24.16 58.4999 23.86C58.0999 23.53 57.3599 23.08 56.7399 22.57C55.5599 21.71 54.3599 21.08 53.0499 20.77C52.3999 20.65 51.7499 20.51 51.0799 20.52C50.4199 20.55 49.7599 20.62 49.1099 20.84C48.3399 21.12 47.6199 21.57 47.2099 22.17C46.8199 22.78 46.6499 23.49 46.7499 24.27C46.8199 25.13 47.2399 26.03 47.7999 26.83C48.1099 27.21 48.4099 27.61 48.8199 27.93L49.3999 28.43L50.0599 28.86C51.1599 29.54 52.4099 30.06 53.7199 30.45C55.7199 31.04 57.8299 31.48 59.9499 31.93C61.5899 32.29 63.2799 32.56 64.9399 33.24C65.2999 33.41 65.6799 33.51 66.0099 33.75C66.3199 33.97 66.5599 34.16 66.7499 34.34C66.9399 34.52 67.0299 34.75 67.1199 34.91C67.2699 35.26 67.2799 35.55 67.1999 35.85C67.1599 35.99 67.1399 36.14 67.0899 36.25C66.9099 36.62 66.2199 36.54 65.3299 36.31C64.0599 35.89 62.8299 35.47 61.4699 35.12C60.1099 34.77 58.6599 34.46 57.1499 34.15C54.8999 33.66 52.5199 33.14 50.1599 32.07L50.1799 32.01L50.1899 32Z" fill="#231F20"/>
</svg>
