<?xml version="1.0" encoding="UTF-8"?><svg id="Layer_1" xmlns="http://www.w3.org/2000/svg" width="128" height="128" viewBox="0 0 128 128"><defs><style>.cls-1{fill:#231f20;stroke-width:0px;}</style></defs><path class="cls-1" d="M81.93,60.21c-4.8,1.12-7.82-.13-10.35-3.15-3.2-3.82-3.62-13.08-3.29-16.24,0,0-2.49,18.94.68,20.99,7.13,4.61,12.97-1.6,12.97-1.6Z"/><path class="cls-1" d="M47.58,62.57c.19,0,5.48.73,7.8-4,1.45-2.95.57-4.94-.77-8l3.89.52s1.15,4.33,1.05,6.96-1.24,5.25-2.93,5.26-9.04-.74-9.04-.74Z"/><path class="cls-1" d="M82.33,73.39c-.63.23-5.15-.19-8.44,3.67-1.38,1.62-2.22,5.74-.53,7.61l.45.81-3.27-1.49s-1.79-1.42-1.57-5.2,1.86-4.51,3.16-5.4c1.31-.89,7.22-1.65,7.22-1.65l2.97,1.65Z"/><path class="cls-1" d="M59.44,88.45c-.38-5.32-.85-10.35-4.38-12.33-3.4-1.91-7.48-1.04-8.71.19,0,0,.68-4.14,3.59-4.43s7.85.38,8.58,1.02,2.27,4.53,2.07,5.9-1.15,9.66-1.15,9.66Z"/><path class="cls-1" d="M22.14,85.84c-1.98-1.74-2.86-4.95-1.34-8.05,1.84-3.74,8.53-4.13,10.52-2.89,0,0-6.45-4.99-10.8-1.27-3.7,3.17-3.2,5.7-2.86,8.19s4.48,4.02,4.48,4.02Z"/><path class="cls-1" d="M54.06,33.72c-1.5-3.25-6.31-5.65-9.88-3.62-2.43,1.37-4.84,5.21-1.32,8.89,0,0-4.75-2.96-3.91-6.45.85-3.48,3.85-6.29,5.65-6.24s5.48-.5,7.45,1.49,2.01,5.92,2.01,5.92Z"/><path class="cls-1" d="M105.09,60.68c3.29-2.16,2.64-7.24.85-9.03-2.21-2.21-5.51-2.45-9.41-.49,0,0,3.01-4.31,6.44-3.72s4.28,1.3,5.22,3.06,2.01,3.69,1.38,5.48-1.76,3.95-2.07,4.47-2.42.23-2.42.23Z"/><path class="cls-1" d="M77.77,99.25c.21.17,5.29,2.26,5.08,7.69-.09,2.36-2.19,5.01-5.67,5.58,0,0,3.99.4,6.21-.51,2.21-.91,2.61-2.74,3.01-4.22s.35-4.35-.59-4.87-4.02-3.88-4.24-3.95-3.81.28-3.81.28Z"/><path class="cls-1" d="M68.82,47.98c.08,2.59.23,5.19.54,7.71.15,1.25.34,2.52.65,3.59.15.52.36,1.02.45,1.07.22.23.7.51,1.18.72,1.48.63,3.3.8,4.94.69.74-.05,1.43-.21,2.09-.43.32-.13.63-.26.9-.44.26-.15.18-.09.36-.39.27-.55.49-1.34.65-2.11.16-.79.3-1.6.4-2.42.43-3.29.6-6.67.7-10.03.07-2.99,0-6.01-.14-8.98-.11-3.83-.71-7.61-.3-11.47.12-1.21.22-1.07.76-.11.63.95,1.65,2.75,1.89,4.98.35,3.94.52,7.88.5,11.84-.02,3.96-.16,7.93-.63,11.92-.15,1.2-.29,2.41-.49,3.64-.22,1.24-.4,2.46-1,3.86-.15.34-.46.84-.84,1.16-.39.34-.66.46-.98.67-.64.33-1.3.6-1.98.78-1.35.36-2.71.45-4.03.35-1.46-.13-2.89-.4-4.31-1.05-.7-.33-1.43-.7-2.11-1.57-.56-.82-.75-1.52-.97-2.23-.74-2.77-.94-5.44-1.14-8.13-.21-3.3-.26-6.6-.24-9.89.06-4.99.28-9.98.93-14.94.14-.97.29-1.93.55-2.93.15-.5.29-1.04.63-1.58.33-.53.77-.96,1.24-1.3.94-.67,1.95-1.04,2.95-1.31,1.01-.26,2.03-.39,3.05-.44.9-.04,1.79-.04,2.7.11,1.68.27,2.81.74,3.49,1.33.66.62.89,1.25.82,1.77-.02.24-.08.5-.18.63-.2.21-.46.05-.87-.06-.42-.13-1.09-.24-2.03-.47-1.42-.29-3.01-.32-4.52-.2-1.49.13-3.07.54-3.86,1.19-.18.15-.32.3-.38.43l-.13.31-.15.48c-.19.7-.31,1.54-.43,2.36-.22,1.67-.35,3.41-.46,5.16-.28,5.2-.33,10.49-.13,15.72h-.08Z"/><path class="cls-1" d="M59.17,87.12c0-2.56-.07-5.11-.27-7.61-.1-1.24-.24-2.49-.48-3.61-.12-.53-.29-1.12-.44-1.37-.06-.14-.05-.11-.22-.24-.11-.11-.38-.22-.57-.34-1.41-.64-3.23-.87-4.9-.88-1.47.02-3,.23-4.04.95-.28.16-.48.37-.7.58-.12.12-.11.13-.19.26-.06.13-.13.25-.18.42-.23.64-.4,1.43-.53,2.21-.5,3.18-.63,6.52-.7,9.83-.05,2.94.04,5.91.2,8.84.12,3.77.73,7.51.19,11.32-.17,1.19-.27,1.04-.77.08-.59-.95-1.56-2.73-1.79-4.91-.31-3.87-.51-7.74-.52-11.63,0-3.89.09-7.8.58-11.76.16-1.19.32-2.39.6-3.64.17-.64.31-1.27.69-2.01.12-.19.25-.42.38-.57l.39-.42c.26-.29.56-.51.86-.72,1.22-.84,2.57-1.25,3.88-1.46,1.32-.2,2.63-.21,3.91-.06,1.42.18,2.79.47,4.22,1.19.35.17.73.41,1.1.76.17.2.39.39.51.59.12.21.24.4.33.6.32.75.52,1.44.66,2.13.58,2.73.71,5.37.8,8.02.1,3.26.05,6.5-.06,9.73-.2,4.9-.55,9.8-1.27,14.68-.15.95-.31,1.89-.61,2.9-.16.51-.46,1.12-.88,1.57-.41.46-.89.79-1.37,1.05-1.96,1.01-3.99,1.19-5.99,1.18-.88-.02-1.75-.07-2.63-.26-1.63-.35-2.71-.88-3.35-1.46-.62-.63-.83-1.24-.75-1.75.02-.23.08-.5.18-.62.19-.21.45-.06.87.06.43.14,1.1.26,2.02.54,1.39.36,2.95.48,4.46.46,1.49-.03,3.07-.3,4.02-.86.23-.14.38-.28.49-.4.05-.06.08-.11.1-.16.03-.07.08-.19.13-.33.19-.62.34-1.46.46-2.26.24-1.64.41-3.36.55-5.07.39-5.12.59-10.33.55-15.48h.08Z"/><path class="cls-1" d="M45.16,62.41c2.49-.08,4.99-.21,7.42-.5,1.2-.14,2.41-.32,3.45-.61.5-.14.98-.34,1.03-.43.22-.22.51-.65.73-1.12.64-1.41.91-3.13.82-4.67-.05-1.37-.56-2.62-1.41-3.34-.03-.01-.05-.03-.07-.05l-.18-.08c-.11-.06-.29-.11-.45-.16-.33-.1-.69-.19-1.07-.26-.75-.15-1.54-.25-2.32-.35-3.17-.35-6.43-.48-9.67-.53-2.88-.05-5.78.04-8.64.19-3.68.12-7.33.69-11.04.27-1.15-.12-1.04-.22-.11-.76.91-.63,2.65-1.64,4.79-1.87,3.79-.33,7.58-.51,11.38-.51,3.8,0,7.62.09,11.47.48,1.15.12,2.32.24,3.51.41.6.09,1.2.18,1.83.32.64.17,1.23.23,2.12.81,1.24.93,1.99,2.26,2.35,3.59.37,1.34.41,2.67.28,3.96-.16,1.41-.52,2.78-1.17,4.12-.37.67-.68,1.34-1.56,2-.79.52-1.47.71-2.15.92-2.68.72-5.25.91-7.84,1.08-3.18.2-6.35.24-9.52.23-4.8-.05-9.6-.27-14.37-.74-.93-.11-1.85-.2-2.79-.36-.47-.08-.94-.16-1.44-.3-.24-.05-.52-.17-.78-.26-.26-.14-.51-.29-.77-.45-.96-.7-1.57-1.68-1.97-2.66-.4-.99-.56-2.01-.65-3.03-.03-.9-.05-1.79.17-2.7.36-1.68,1.06-2.77,1.78-3.33.19-.13.37-.24.53-.32.18-.07.36-.11.52-.14.31-.06.57-.04.82.08.22.09.45.17.56.29.18.19,0,.52-.24.84-.22.43-.41.95-.72,1.74-.41,1.2-.48,2.67-.31,4.01.15,1.34.77,2.6,1.4,2.91.21.18.96.35,1.72.49.76.14,1.58.21,2.4.3,1.64.16,3.33.26,5.02.34,5.02.21,10.11.26,15.15.07v.08Z"/><path class="cls-1" d="M82.88,73.51c-2.46.03-4.93.14-7.3.42-1.17.13-2.38.33-3.25.64-.45.19-.45.17-.73.53-.25.34-.46.82-.65,1.3-.5,1.46-.6,3.15-.3,4.59.11.65.36,1.23.68,1.73l.26.37.31.31c.11.14.18.16.24.21.1.05.23.12.37.18.59.24,1.35.41,2.1.55.75.15,1.53.25,2.31.35,3.14.37,6.35.52,9.55.6,2.85.06,5.72,0,8.54-.14,3.64-.09,7.25-.66,10.93-.12,1.15.17,1.01.26.09.76-.92.59-2.64,1.56-4.75,1.78-3.74.29-7.49.45-11.25.43-3.76-.01-7.53-.14-11.33-.56-1.14-.13-2.29-.26-3.46-.42-1.18-.18-2.35-.35-3.64-.8-.34-.14-.68-.27-1.08-.55-.34-.25-.56-.48-.84-.73-.25-.26-.45-.56-.68-.84-.19-.3-.36-.61-.53-.92-.61-1.27-.83-2.62-.84-3.91,0-1.43.24-2.82.74-4.18.26-.68.56-1.35,1.11-2.03.12-.17.28-.34.48-.5.19-.18.38-.31.57-.4.4-.24.73-.34,1.09-.49,2.72-.85,5.24-.97,7.82-1.13,3.15-.15,6.29-.15,9.41-.08,4.74.12,9.48.43,14.18.93.91.1,1.82.2,2.74.34.93.14,1.82.25,2.84.58l.39.14c.15.08.31.16.45.25.28.19.52.41.72.64.4.47.66.96.87,1.45.41.98.61,1.96.74,2.93.11.86.18,1.69.12,2.56-.1,1.59-.39,2.66-.8,3.37-.45.69-.97,1.05-1.51,1.1-.24.03-.53,0-.63-.13-.09-.1-.06-.23-.08-.35-.02-.11-.06-.24-.06-.42,0-.37-.04-1.13.07-2.07.1-1.43,0-2.96-.23-4.36-.12-.69-.32-1.36-.56-1.82-.12-.23-.25-.4-.32-.45-.03-.03-.06-.01-.04-.04-.09,0-.19-.06-.33-.1-.6-.18-1.4-.33-2.17-.45-.78-.13-1.6-.21-2.41-.29-1.64-.16-3.3-.29-4.97-.38-4.96-.28-10-.42-14.97-.3v-.08Z"/><path class="cls-1" d="M37.5,35.42c-.44-1.88-.06-3.88.78-5.49.85-1.62,2.06-2.88,3.56-3.83,1.09-.67,2.28-1.21,3.54-1.41,2.22-.35,4.49.11,6.35,1.22.93.54,1.79,1.23,2.46,2.07.36.39.65.88.91,1.3.24.42.48.85.69,1.28.77,1.53,1.44,3.11,1.97,4.69.17.51.34,1.01.5,1.52.14.51.26,1.03.37,1.54.11.52.2,1.03.28,1.55.11.51-.04,1.08-.04,1.61-.07.69-.15.62-.65.19-.35-.28-.74-.58-1.12-.88-.41-.38-.7-.88-.94-1.43l-.59-1.46c-.2-.48-.33-.97-.5-1.44-.33-.95-.68-1.87-1.08-2.76-.4-.89-.84-1.75-1.33-2.58-.12-.23-.24-.4-.35-.56-.11-.17-.22-.34-.36-.49-.25-.32-.55-.61-.86-.89-.77-.66-1.8-1.07-2.86-1.19-1.06-.14-2.14-.05-3.14.28-1.1.35-2.09.99-2.9,1.88-.82.87-1.4,1.93-1.55,3.06-.09.7-.01,1.41.19,2.1.22.69.62,1.32,1.1,1.91.76.86,1.78,1.54,2.93,1.97.57.2,1.18.4,1.75.49.6.08,1.23.12,1.88.12,2.02,0,4.05-.36,6.25-.29.48,0,.98.03,1.48.11.94.16,1.58.44,1.95.78.18.17.31.32.37.53.05.22.04.45.02.66-.02.2-.03.39-.07.53-.08.24-.34.35-.72.49-.39.16-.74.09-1.25.05-1.47-.19-3.23-.04-5.08.07-.93.06-1.9.12-2.93.12-1.01,0-2.15-.02-3.36-.33-1.65-.39-3.3-1.14-4.72-2.32-1.41-1.17-2.54-2.84-2.99-4.75l.08-.02Z"/><path class="cls-1" d="M103.77,45.58c1.88.26,3.6,1.24,4.81,2.55,1.22,1.31,2.01,2.86,2.4,4.57.26,1.24.37,2.52.14,3.76-.38,2.18-1.58,4.14-3.21,5.52-.82.68-1.73,1.27-2.74,1.63-1.01.36-2.03.56-3.05.59-1.81.06-3.52-.27-5.09-.53-1.01-.15-1.98-.26-2.91-.31-.47-.01-.93,0-1.38.06-.44.08-.97-.03-1.47.08-.65.05-.64-.01-.28-.57.17-.29.44-.71.86-1.19.44-.42,1.07-.7,1.77-.83.62-.1,1.24-.15,1.84-.15.6,0,1.17.09,1.72.16,1.09.16,2.09.34,3.03.43,1.86.18,3.52-.03,5.01-.9,1.81-1.07,2.83-3.35,2.9-5.45.04-1.18-.25-2.34-.83-3.41-.56-1.08-1.39-1.98-2.42-2.53-.64-.31-1.34-.51-2.08-.54-.73,0-1.48.11-2.19.41-1.08.43-2.06,1.18-2.84,2.12-.78.93-1.42,2.06-1.96,3.25-.85,1.84-1.43,3.8-2.17,5.73-.16.43-.3.86-.48,1.28-.71,1.57-1.11,2-2.02,1.92-.19,0-.37.02-.51,0-.42-.05-.79-1.01-.35-2.12.55-1.72,1.13-3.47,1.81-5.27.7-1.8,1.43-3.63,2.62-5.5.9-1.42,2.14-2.71,3.71-3.64,1.55-.93,3.48-1.42,5.39-1.21v.08Z"/><path class="cls-1" d="M88.26,105.52c.2,1.89-.35,3.8-1.33,5.28-.99,1.49-2.31,2.63-3.88,3.41-1.14.55-2.36.95-3.62,1.02-2.21.14-4.4-.56-6.13-1.82-.86-.64-1.64-1.39-2.23-2.28-.59-.89-1.02-1.85-1.29-2.83-.48-1.75-.56-3.49-.68-5.08-.09-1.02-.21-1.99-.38-2.91-.1-.46-.22-.9-.38-1.33-.19-.41-.2-.95-.42-1.42-.2-.62-.14-.62.49-.41.33.1.79.26,1.36.56.51.33.93.88,1.22,1.53.25.58.43,1.17.58,1.76.14.58.18,1.16.24,1.71.1,1.1.15,2.12.29,3.05.26,1.86.85,3.41,2.05,4.66,1.47,1.51,3.92,1.96,5.98,1.54,1.15-.24,2.22-.79,3.12-1.61.92-.8,1.6-1.82,1.89-2.95.15-.7.17-1.43.03-2.15-.18-.71-.46-1.41-.92-2.03-.67-.95-1.64-1.72-2.74-2.26-1.07-.52-2.4-.91-3.66-1.29-1.97-.57-3.94-.87-5.92-1.07-.43-.03-.86-.07-1.3-.1-1.62-.17-2.12-.3-2.43-1.17-.07-.17-.17-.33-.21-.47-.15-.39.59-1.16,1.88-1.14,1.92-.08,3.9.11,5.85.5.98.19,1.94.44,2.89.71l1.41.42.7.22c.22.07.46.14.74.25,1.59.54,3.14,1.44,4.41,2.74,1.27,1.29,2.2,3.04,2.45,4.96h-.07Z"/><path class="cls-1" d="M20.68,88.31c-1.74-.81-3.06-2.34-3.8-3.98-.74-1.65-.98-3.38-.8-5.14.15-1.26.45-2.53,1.08-3.63,1.09-1.95,2.85-3.44,4.86-4.21,1-.4,2.06-.64,3.13-.66.53-.04,1.08.03,1.58.08.48.07.96.15,1.44.26,1.69.35,3.33.86,4.88,1.45,1,.37,1.98.76,2.9,1.24l1.38.7c.46.21.84.65,1.27.96.52.44.43.47-.21.63-.43.12-.9.25-1.38.37-.55.09-1.14.02-1.73-.14l-1.54-.46c-.5-.15-.97-.36-1.45-.53-.95-.35-1.89-.67-2.82-.93-.93-.26-1.87-.45-2.82-.58-.9-.13-1.65-.13-2.51.04-1,.2-1.97.76-2.72,1.52-.77.75-1.37,1.66-1.73,2.65-.4,1.09-.52,2.27-.32,3.46.18,1.19.65,2.31,1.46,3.13.49.51,1.11.89,1.78,1.16.68.25,1.43.33,2.19.32,1.15-.07,2.32-.45,3.37-1.09.51-.32,1.04-.68,1.47-1.07.44-.43.86-.89,1.26-1.41,1.26-1.58,2.23-3.4,3.65-5.07.3-.37.63-.75,1-1.09.71-.64,1.32-.96,1.81-1.04.24-.04.44-.04.64.03.2.1.37.23.52.38.14.14.29.25.37.38.14.21.06.47-.07.85-.12.4-.4.62-.75,1-1.07,1.04-2.05,2.51-3.12,4.03-.53.77-1.09,1.56-1.72,2.37-.63.79-1.35,1.66-2.33,2.42-1.32,1.05-2.92,1.87-4.71,2.25-1.78.38-3.78.23-5.54-.59l.03-.07Z"/><path class="cls-1" d="M95.19,25.92c.11.19-.14.34-.58.47-.14.04-.55.03-.61-.03-.12-.11-.23-.22-.32-.34-.05-.07-.32-1.15-.45-1.53-.12-.36-.16-.72-.18-1.08l-.06-1.1.04-1.1c0-.16.05-.32.12-.48.23-.53.3-1.08.31-1.64,0-.09.03-.18-.06-.29-.15-.17.04-1.67.16-1.85.27-.44.47-.9.71-1.34.03-.06,0-.14.14-.18.31-.08.29-.23.35-.38.07-.2.16-.39.3-.56.06-.09.28-.14.44-.2.15-.06.54.09.58.13.11.12.33.1.5.13.06.01.14.03.18.04.17.06.59,1.32.57,1.43,0,.01-.04.43-.09.87-.04.44-.07.9-.06.99,0,.1-.08.18-.14.27-.03.04-.06,1.37-.07,1.42-.08.26-.03.54-.31.78-.06.05-.05.1-.06.16-.04.47-.2.92-.32,1.38-.06.23-.06.48-.09.71,0,.04-.05.08-.07.12-.03.05-.07.1-.08.16-.08.56-.29,1.12-.29,1.69,0,.13-.32.74-.3.9,0,.08-.33.35-.29.43Z"/><path class="cls-1" d="M99.18,31.81c-.12.18-.36.05-.67-.21-.1-.08-.28-.4-.26-.48.04-.15.09-.29.16-.42.03-.08.92-.86,1.24-1.12.3-.28.64-.46,1.01-.6.73-.28,1.48-.56,2.25-.74.17-.04.35-.06.53-.04.61.05,1.2-.03,1.79-.12.1-.02.2,0,.3-.1.15-.19,1.81-.21,2.02-.11.51.21,1.02.37,1.51.59.07.03.16,0,.2.13.1.29.26.28.41.32.21.06.41.17.6.3.09.07.15.25.22.39.06.13-.11.51-.15.55-.13.1-.11.31-.15.47-.01.06-.03.13-.05.17-.05.09-1.27.47-1.37.44-.03-.03-1.58-.11-1.75-.06-.09.02-.18-.05-.27-.1-.04-.04-1.28.11-1.32.12-.26-.03-.5.07-.78-.13-.05-.04-.11-.02-.16-.02-.44.07-.89.04-1.34.06-.23,0-.45.09-.68.13-.04,0-.09-.01-.13-.02-.06,0-.11-.02-.16,0-.52.15-1.08.23-1.58.45-.12.04-.78.06-.9.14-.07.03-.45-.1-.5-.02Z"/></svg>