<svg width="128" height="128" viewBox="0 0 128 128" fill="none" xmlns="http://www.w3.org/2000/svg">
<path d="M46.01 56.78C49.26 52.99 52.7 49.36 56.33 45.94C57.69 44.73 58.95 43.41 60.38 42.27L62.23 40.73C62.86 40.23 63.5 39.75 64.15 39.26C65.42 38.27 66.75 37.37 68.09 36.48C70.75 34.68 73.53 33.05 76.46 31.68C79.06 30.48 81.78 29.42 84.65 28.97C86.47 28.64 88.38 28.6 90.24 28.9C91.18 29.02 92.08 29.34 92.97 29.64C93.82 30.04 94.68 30.44 95.39 31.07C96.2 31.95 96.06 31.8 95.05 31.66C94.78 31.65 94.51 31.56 94.19 31.48C93.88 31.39 93.49 31.37 93.11 31.29C92.36 31.1 91.47 30.98 90.55 30.78C87.21 30.19 83.72 30.9 80.43 32.14C78.77 32.74 77.15 33.49 75.55 34.33C73.95 35.15 72.38 36.07 70.83 37.03C67.13 39.36 63.61 42.28 60.24 45.23C56.53 48.48 53.05 52.01 49.75 55.7C48.72 56.82 47.73 57.98 46.76 59.16C45.77 60.32 44.82 61.51 43.9 62.72C41.08 66.38 38.33 70.13 35.98 74.07C34.13 77.12 32.53 80.23 30.96 83.37C30.63 84.07 30.3 84.75 29.97 85.46C28.65 88.04 28.22 88.87 27.79 89.37C27.69 89.49 27.58 89.64 27.52 89.71C27.3 89.93 27.62 88.78 28.25 86.71C29.21 83.65 30.56 80.66 31.98 77.64C33.52 74.68 35.18 71.74 37.02 68.9C38.36 66.77 39.8 64.7 41.29 62.67L43.6 59.68L46 56.75L46.04 56.78H46.01Z" fill="#231F20"/>
<path d="M67.3802 104.67C68.3102 105.39 69.2702 106.07 70.2202 106.78C71.2102 107.42 72.1802 108.09 73.1902 108.71C73.9402 109.14 74.7102 109.52 75.4502 109.96C78.1102 111.43 80.8302 112.81 83.6902 113.84C84.9602 114.26 86.2602 114.69 87.5702 114.88L88.8302 115.1L90.0902 115.2L90.7202 115.27C90.9302 115.32 91.1402 115.35 91.3402 115.36L91.9602 115.43C92.1702 115.46 92.3902 115.65 92.6102 115.71C93.1602 115.92 93.1102 115.96 92.6702 116.31C92.2602 116.75 91.3202 117.59 90.2402 117.51C86.4102 117.31 82.8102 116.21 79.5302 114.5C78.5502 113.99 77.5202 113.55 76.5202 113.04C75.5102 112.55 74.4802 112.08 73.5202 111.5L71.9202 110.58L70.3702 109.58C69.3302 108.93 68.3302 108.21 67.3402 107.48C66.0902 106.62 64.9602 105.61 63.7702 104.68L61.2102 102.38C60.4002 101.57 59.5902 100.75 58.7902 99.95C58.2002 99.29 57.5902 98.66 56.9702 98.03C56.3702 97.39 55.8202 96.69 55.2502 96.01C55.0002 95.71 54.7302 95.43 54.5702 95.06C53.9102 93.73 53.8102 93.26 54.1402 92.74C54.2002 92.63 54.2302 92.51 54.2802 92.44C54.3802 92.24 55.1702 92.48 55.8202 93.25C56.8602 94.35 57.8202 95.51 58.8302 96.67C59.3602 97.23 59.8902 97.8 60.4102 98.38C60.9502 98.94 61.5302 99.48 62.0902 100.03C63.7702 101.66 65.5802 103.19 67.4502 104.64L67.4202 104.69L67.3802 104.67Z" fill="#231F20"/>
<path d="M105.29 81.98C102.71 83.98 99.8999 85.41 97.0599 86.65C96.0199 87.11 94.9999 87.59 93.9399 87.97C90.1999 89.33 86.3799 90.35 82.5099 91.15C80.7899 91.5 79.0699 91.84 77.3499 92.12C75.1399 92.4 72.8499 92.63 70.5899 92.2C69.8899 92.02 70.0399 91.77 70.6399 91.47C71.2399 91.19 72.2699 90.78 73.4899 90.62C74.5699 90.49 75.6499 90.28 76.7199 90.08C77.7999 89.87 78.8899 89.73 79.9699 89.51C82.1399 89.1 84.3199 88.63 86.4999 88.11C89.1099 87.49 91.7099 86.44 94.2299 85.38C96.9899 84.21 99.7099 82.9 102.14 81.21C103.63 80.18 105.04 79.01 106.04 77.61C106.43 77.09 106.72 76.52 106.95 75.94C107.06 75.65 107.09 75.38 107.16 75.09C107.14 74.8 107.2 74.51 107.15 74.21C107.01 73.01 106.38 71.82 105.56 70.79C104.29 69.17 102.51 68 100.74 66.99C100.34 66.78 99.9499 66.58 99.5499 66.37C98.0699 65.6 97.6599 65.25 97.5099 64.51C97.4799 64.34 97.4099 64.16 97.4099 64.01C97.4099 63.75 97.5999 63.58 97.9799 63.5C98.3699 63.42 98.9499 63.44 99.6399 63.62C100.65 63.91 101.66 64.29 102.62 64.78C103.57 65.29 104.47 65.91 105.34 66.61C106.19 67.33 107.03 68.1 107.73 69.05C108.45 69.97 109.08 71.04 109.48 72.3C109.81 73.2 109.91 74.28 109.83 75.34C109.66 76.45 109.29 77.4 108.81 78.17C107.85 79.77 106.62 80.98 105.34 82.03L105.3 81.98H105.29Z" fill="#231F20"/>
<path d="M98.1099 88.16C92.6099 90.39 86.9499 91.87 81.2499 93.03C78.3999 93.61 75.5199 94.07 72.6099 94.42C69.6799 94.77 66.7899 94.91 63.9099 95.06C59.6899 95.24 55.4699 95.38 51.2499 95.26C43.8099 95.03 36.3599 94.37 29.0199 92.86C25.3599 92.09 21.7099 91.13 18.1899 89.68C16.4299 88.97 14.6999 88.14 13.0599 87.1C11.4299 86.06 9.85993 84.83 8.59993 83.24C7.47993 81.84 6.63992 80.11 6.38992 78.27C6.10992 76.44 6.43992 74.5 7.21992 72.86C7.98992 71.2 9.13993 69.82 10.3899 68.64C11.6499 67.45 13.0199 66.44 14.4399 65.55C18.0999 63.27 22.0499 61.62 26.0999 60.34C30.1499 59.06 34.3399 58.23 38.5999 58.08C39.9299 58.07 40.5199 58.24 40.4799 58.41C40.4399 58.6 39.7999 58.81 38.7399 59.17C37.6599 59.54 36.1799 60.05 34.4299 60.65C33.5499 60.95 32.5999 61.31 31.5899 61.65C30.5699 61.97 29.4999 62.32 28.3899 62.67C24.4399 63.91 20.5699 65.47 17.0999 67.53C15.3799 68.56 13.7599 69.73 12.3999 71.06C11.0899 72.41 10.0099 73.88 9.62992 75.45C9.45992 76.23 9.34992 77.02 9.50992 77.82C9.51992 78.23 9.68992 78.6 9.77992 79C9.93992 79.37 10.0699 79.76 10.2999 80.13C11.1299 81.6 12.4999 82.91 14.1099 84C17.3499 86.18 21.3099 87.62 25.3099 88.77C30.1299 90.14 35.2599 90.95 40.4399 91.43C45.6299 91.92 50.8799 92.07 56.0799 92.07C58.9399 92.07 61.8099 91.98 64.6699 91.85C67.5499 91.71 70.3799 91.54 73.1899 91.16C78.8299 90.41 84.4599 89.23 89.9299 87.64C93.2899 86.65 96.6099 85.48 99.7199 83.97C102.79 82.42 105.76 80.55 107.19 77.69C107.71 76.64 107.92 75.53 107.7 74.44C107.49 73.35 106.92 72.27 106.14 71.3C105.37 70.33 104.42 69.4 103.43 68.63C102.45 67.85 101.33 67.17 100.17 66.58C95.4999 64.19 90.3199 62.69 85.1799 61.49C77.1399 59.66 69.0499 58.73 60.9399 58.37C59.1499 58.29 57.3999 58.3 55.6099 58.28C48.9499 58.32 46.9699 58.59 45.3999 57.96C45.0499 57.83 44.5799 57.73 44.3399 57.58C43.9399 57.33 44.3699 56.89 45.5899 56.4C46.7999 55.92 48.7699 55.5 51.2999 55.3C58.7999 54.75 66.4399 55.28 74.1199 56.33C81.7899 57.43 89.4999 59.05 97.0499 61.83C98.4499 62.37 99.8399 62.93 101.22 63.62C102.6 64.28 103.96 65.08 105.28 66.07C105.96 66.58 106.53 67.1 107.11 67.65C107.68 68.21 108.24 68.81 108.76 69.48C109.77 70.81 110.75 72.46 110.96 74.48C111.21 76.49 110.53 78.48 109.63 79.95C109.17 80.71 108.7 81.37 108.08 82L107.19 82.94L106.24 83.72C103.68 85.73 100.93 87.05 98.1699 88.24L98.1299 88.17L98.1099 88.16Z" fill="#231F20"/>
<path d="M24.0099 57.15C22.7899 54.13 21.7199 51.02 21.0399 47.77C20.3499 44.54 19.9999 41.16 20.3399 37.75C20.4899 36.06 20.8599 34.28 21.5999 32.59C21.9799 31.74 22.4599 30.93 23.0399 30.16C23.6499 29.41 24.3599 28.72 25.1799 28.17C26.8299 27.07 28.7999 26.56 30.6299 26.55C32.4899 26.52 34.2399 26.91 35.8499 27.42C38.2199 28.18 40.3999 29.23 42.4899 30.38C44.5799 31.54 46.5699 32.81 48.4899 34.17C55.2299 39 61.3399 44.51 67.1299 50.31C72.9699 56.08 78.1999 62.5 82.9499 69.15C87.1599 75.08 91.1399 81.23 94.4499 87.68C96.5599 91.82 98.5199 96.09 99.7499 100.68C100.35 102.97 100.8 105.34 100.72 107.8C100.69 108.41 100.62 109.03 100.52 109.64C100.37 110.25 100.28 110.87 100.03 111.46C99.6399 112.66 98.8999 113.79 97.9599 114.64C97.6499 114.89 97.3999 115.13 97.1399 115.25C96.8899 115.38 96.67 115.48 96.5099 115.54C96.17 115.67 96.0099 115.68 95.9899 115.59C95.9699 115.5 96.0799 115.31 96.2999 115.03C96.41 114.89 96.5499 114.73 96.6999 114.56C96.8499 114.37 96.9799 114.13 97.1499 113.89C97.7899 112.9 98.3299 111.4 98.3199 109.52C98.3199 107.65 97.9099 105.42 97.3399 102.98C96.2899 98.65 94.4199 94.41 92.3399 90.31C90.2399 86.21 87.8499 82.23 85.3599 78.31C80.3099 70.51 74.6999 63 68.3899 56.11C64.6099 51.97 60.4599 47.98 56.0999 44.22C51.7299 40.48 47.1299 36.92 42.2999 33.98C39.6399 32.39 36.8699 30.95 34.0199 30.17C31.2099 29.37 28.2299 29.53 26.2999 31.33C25.3199 32.19 24.6399 33.43 24.1799 34.77C23.7299 36.12 23.5299 37.61 23.4499 39.12C23.2899 42.14 23.7099 45.22 24.4399 48.23C26.2899 55.66 29.8699 62.68 34.0099 69.23C40.3499 79.15 48.0699 88.32 56.7199 96.23C63.4599 102.34 70.7199 107.72 78.6999 111.59C80.4599 112.43 82.2199 113.13 84.0599 113.73C87.4599 114.85 89.7299 115.05 91.2899 115.14C92.8499 115.21 93.7599 115.22 94.6299 115.37C95.0299 115.44 95.5299 115.4 95.8199 115.5C96.0599 115.57 96.09 115.74 95.8999 115.99C95.7099 116.24 95.2899 116.62 94.6099 116.95C93.27 117.67 90.8399 118.18 87.9199 117.81C83.5899 117.26 79.57 115.64 75.7599 113.71C71.9499 111.77 68.34 109.43 64.8699 106.89C57.93 101.79 51.5799 95.82 45.6699 89.44C36.9499 79.93 29.1399 69.32 23.9699 57.19L24.0399 57.14L24.0099 57.15Z" fill="#231F20"/>
<path d="M67.02 76.29C67.02 79.42 64.85 82.34 61.26 82.97C54.39 84.18 49.6 75.73 54.71 70.71C58.08 67.41 63.14 68.56 65.71 72.23C66.6 73.51 67.02 74.92 67.02 76.28V76.29Z" fill="#231F20"/>
<path d="M23.0401 96.55C24.8801 90.58 27.3001 84.91 30.0101 79.38C31.3701 76.62 32.8201 73.91 34.3901 71.23C35.9701 68.6 37.6001 65.99 39.3301 63.45C41.8501 59.73 44.4701 56.08 47.4101 52.67C52.5701 46.64 58.4601 41.21 64.9701 36.67C68.2401 34.41 71.5601 32.3 75.1401 30.5C78.7101 28.73 82.5001 27.16 86.6901 26.84C88.5301 26.71 90.4701 26.83 92.2901 27.53C94.0901 28.21 95.7701 29.35 96.9401 30.93C98.1201 32.5 98.7501 34.37 99.0401 36.19C99.3301 38.02 99.3101 39.85 99.1401 41.63C98.6701 46.2 97.3201 50.55 95.6401 54.71C93.9601 58.88 91.8201 62.84 89.2501 66.51C88.4201 67.64 87.9401 68.04 87.8201 67.91C87.6901 67.77 87.9101 67.1 88.2901 65.97C88.6701 64.84 89.2501 63.28 89.9201 61.41C90.26 60.48 90.61 59.46 91.0201 58.4C91.44 57.35 91.8901 56.24 92.3501 55.08C94.0101 51.01 95.3601 46.79 95.9301 42.58C96.5101 38.44 96.0901 34.05 93.4701 31.81C92.1601 30.67 90.4001 30.05 88.4901 29.97C86.5701 29.88 84.5201 30.26 82.5101 30.88C78.4601 32.15 74.5501 34.29 70.7301 36.61C66.1501 39.36 61.8101 42.71 57.7901 46.44C53.7901 50.2 50.0901 54.33 46.7301 58.67C44.8701 61.05 43.1101 63.51 41.4301 66.03C39.7401 68.54 38.1401 71.13 36.6201 73.73C33.6201 78.97 30.9601 84.46 28.7201 90.07C27.3501 93.53 26.1201 97.05 25.2501 100.63C25.0501 101.53 24.8101 102.42 24.6801 103.32C24.5201 104.22 24.3701 105.12 24.3101 106.02C24.0901 107.83 24.2001 109.6 24.5501 111.28C25.1501 113.81 26.7501 116.03 29.1401 116.89C31.5001 117.82 34.3001 117.44 36.9301 116.7C42.2301 115.17 47.0701 112.08 51.4801 108.68C54.91 106.02 58.0201 103 61.0901 99.95C64.1401 96.89 67.07 93.73 69.8801 90.46C71.1201 89.02 72.2801 87.57 73.4901 86.09C77.91 80.55 79.2901 78.78 80.9001 78.04C81.2601 77.87 81.6901 77.6 81.9701 77.55C82.9101 77.35 81.7801 80.14 78.6901 84.47C74.0901 90.86 68.7101 96.94 62.8501 102.65C61.3901 104.09 59.8901 105.48 58.3701 106.88C56.8201 108.28 55.2301 109.64 53.5701 110.93C50.2401 113.51 46.6901 115.86 42.7801 117.76C41.32 118.45 39.8201 119.08 38.2301 119.56C36.6501 120.07 35.0201 120.41 33.26 120.56C31.49 120.7 29.5901 120.51 27.7901 119.79C26.0001 119.08 24.3501 117.8 23.2701 116.22C21.0201 113.04 20.8201 109.23 21.0701 105.99C21.3501 102.69 22.0801 99.58 22.9701 96.55H23.0501H23.0401Z" fill="#231F20"/>
<path d="M99.27 23.6C99.33 23.83 99.1 24.02 98.76 24.18C98.65 24.23 98.34 24.22 98.29 24.15C98.19 24.02 98.09 23.88 98 23.74C97.95 23.66 97.56 22.33 97.49 21.88C97.38 21.44 97.35 21 97.34 20.57C97.34 19.69 97.25 18.79 97.33 17.9C97.34 17.7 97.38 17.51 97.45 17.32C97.69 16.67 97.77 16.01 97.79 15.33C97.79 15.22 97.82 15.11 97.74 14.98C97.59 14.78 97.82 12.95 97.94 12.73C98.23 12.19 98.46 11.63 98.73 11.09C98.77 11.01 98.74 10.92 98.89 10.87C99.23 10.77 99.21 10.58 99.27 10.41C99.34 10.17 99.47 9.93997 99.64 9.72997C99.68 9.67997 99.75 9.62997 99.85 9.58997C99.9 9.56997 99.94 9.54997 99.99 9.52997C100.06 9.51997 100.14 9.49997 100.21 9.48997C100.46 9.43997 100.65 9.54997 100.72 9.60997C100.83 9.74997 101.03 9.70997 101.16 9.72997C101.21 9.72997 101.27 9.74997 101.32 9.76997C101.34 9.76997 101.56 9.92997 101.6 10.08C101.67 10.24 101.74 10.44 101.81 10.64C101.94 11.05 102.03 11.46 102.01 11.53C102.01 11.55 101.94 12.05 101.86 12.59C101.8 13.12 101.73 13.68 101.73 13.8C101.73 13.92 101.64 14.02 101.57 14.13C101.53 14.18 101.42 15.79 101.41 15.85C101.31 16.17 101.35 16.51 101.04 16.8C100.98 16.86 100.98 16.93 100.97 16.99C100.91 17.56 100.71 18.11 100.57 18.67C100.5 18.96 100.47 19.25 100.41 19.54C100.4 19.59 100.36 19.64 100.33 19.69C100.3 19.75 100.26 19.82 100.25 19.88C100.15 20.57 99.93 21.25 99.92 21.95C99.9 22.11 99.61 22.86 99.58 23.05C99.56 23.15 99.23 23.48 99.26 23.58L99.27 23.6Z" fill="#231F20"/>
<path d="M106.88 33.65C106.68 33.76 106.44 33.64 106.2 33.44C106.12 33.38 106.06 33.15 106.11 33.09C106.21 32.98 106.31 32.86 106.42 32.75C106.48 32.69 107.66 31.98 108.07 31.71C108.46 31.44 108.89 31.31 109.32 31.16C110.19 30.89 111.08 30.59 112 30.52C112.2 30.49 112.41 30.5 112.61 30.54C113.31 30.67 114 30.66 114.7 30.6C114.82 30.6 114.93 30.6 115.05 30.5C115.24 30.3 117.16 30.39 117.4 30.51C117.69 30.65 117.98 30.77 118.27 30.89C118.56 31.02 118.83 31.18 119.11 31.33C119.19 31.37 119.29 31.36 119.33 31.51C119.43 31.86 119.62 31.86 119.79 31.93C120.03 32.03 120.26 32.15 120.47 32.33C120.57 32.42 120.64 32.62 120.72 32.79C120.79 32.94 120.6 33.35 120.55 33.39C120.4 33.5 120.43 33.72 120.38 33.91C120.36 33.97 120.34 34.05 120.33 34.1C120.27 34.2 118.77 34.67 118.65 34.65C118.65 34.65 118.52 34.63 118.33 34.63C118.14 34.63 117.89 34.61 117.64 34.6C117.14 34.56 116.61 34.52 116.5 34.53C116.39 34.54 116.29 34.45 116.18 34.38C116.13 34.33 114.61 34.37 114.56 34.36C114.25 34.29 113.94 34.36 113.63 34.1C113.57 34.05 113.5 34.06 113.44 34.06C112.9 34.07 112.35 33.96 111.8 33.91C111.52 33.88 111.24 33.93 110.96 33.91C110.91 33.91 110.85 33.87 110.8 33.86C110.73 33.84 110.67 33.81 110.6 33.81C109.93 33.81 109.24 33.75 108.57 33.86C108.41 33.86 107.62 33.72 107.44 33.77C107.34 33.77 106.95 33.61 106.87 33.67L106.88 33.65Z" fill="#231F20"/>
</svg>
