<svg width="128" height="128" viewBox="0 0 128 128" fill="none" xmlns="http://www.w3.org/2000/svg">
<path d="M34.0902 25.27C34.0902 25.27 27.4202 20.47 32.9502 19.72C37.3002 19.13 19.6802 19.72 19.6802 19.72L34.0902 25.27Z" fill="#231F20"/>
<path d="M14.5601 26.32C14.7001 25.49 14.8701 24.66 15.0701 23.83C15.1501 23.53 15.1801 23.21 15.2801 22.91C15.6501 21.85 16.1001 20.8 16.8201 19.84C17.1601 19.43 17.4501 18.98 17.8901 18.61C18.1201 18.33 18.4601 18.15 18.8101 18.01C18.9001 17.98 18.9801 17.93 19.0701 17.92L19.3701 17.97C19.5601 18.01 19.7501 18.06 19.9301 18.12C20.1501 18.21 20.1201 18.41 20.0101 18.76C19.9601 18.94 19.9001 19.16 19.8501 19.4C19.8201 19.53 19.8001 19.65 19.7801 19.74C19.7801 19.8 19.7601 19.83 19.7501 19.9C19.7301 19.91 19.7201 19.95 19.7001 19.97C19.4901 20.29 19.1901 20.35 18.9201 20.69C18.7701 20.83 18.6201 20.98 18.4801 21.19C18.3201 21.37 18.1601 21.57 18.0101 21.8C17.8101 22.06 17.6901 22.37 17.6001 22.7C17.5001 23.02 17.4501 23.37 17.3601 23.71C17.1701 24.45 16.9901 25.22 16.8601 26C16.7701 26.48 16.7001 26.97 16.6501 27.46C16.5701 28.2 16.5101 28.95 16.4801 29.7C16.4801 30.28 16.5801 30.85 16.6301 31.43C16.6401 31.56 16.6701 31.68 16.6701 31.81C16.6701 32.29 16.5401 32.44 16.0801 32.54C15.9801 32.56 15.8701 32.59 15.7701 32.61C15.4201 32.66 15.1201 32.46 14.9901 32.12C14.6001 31.09 14.3701 29.99 14.3301 28.87C14.3401 28.04 14.4301 27.2 14.5201 26.36H14.5801L14.5601 26.32Z" fill="#231F20"/>
<path d="M16.9499 101.4C16.7399 100.67 16.5499 99.94 16.3999 99.21C16.3399 98.95 16.2499 98.69 16.1999 98.42C16.0499 97.47 15.9599 96.52 15.9599 95.57C15.9399 95.15 15.9199 94.73 15.8899 94.32C15.8599 93.79 15.8199 93.26 15.9299 92.73C15.9599 92.56 16.1499 92.59 16.3399 92.73C16.5299 92.87 16.7699 93.11 16.8199 93.4C16.9999 94.43 17.2299 95.42 17.3199 96.46C17.3299 97.09 17.5699 97.7 17.7299 98.31C17.9099 98.98 18.0999 99.66 18.3399 100.32C18.4799 100.73 18.6299 101.13 18.8099 101.53C19.0699 102.13 19.3499 102.73 19.7099 103.27C20.0099 103.68 20.3699 104.04 20.6899 104.41C20.7599 104.49 20.8399 104.56 20.9099 104.65C21.1399 104.99 21.0999 105.17 20.8199 105.51C20.7499 105.59 20.6899 105.67 20.6299 105.74C20.3999 105.97 20.0799 106 19.7699 105.83C19.2999 105.58 18.9399 105.22 18.5799 104.86C18.2499 104.47 18.0099 104.01 17.7799 103.55C17.4399 102.87 17.1699 102.14 16.9199 101.43L16.9599 101.41L16.9499 101.4Z" fill="#231F20"/>
<path d="M92.0799 112.55C91.4099 113.17 90.6599 113.59 89.8899 113.89C89.6099 114 89.3499 114.15 89.0699 114.22C88.0299 114.43 87.0399 114.38 86.0999 114.33C85.6799 114.3 85.2799 114.26 84.8699 114.23C84.3499 114.2 83.8399 114.15 83.3399 113.97C83.1799 113.91 83.2099 113.75 83.3499 113.56C83.4899 113.38 83.7499 113.13 84.0399 113.06C84.5399 112.95 85.0399 112.85 85.5399 112.74C86.0299 112.65 86.4999 112.69 86.9799 112.68C87.5699 112.7 88.0899 112.42 88.5899 112.23C89.1499 112.02 89.6999 111.75 90.1599 111.38C90.4399 111.15 90.6999 110.89 90.8899 110.59C91.1799 110.15 91.3699 109.62 91.4299 108.98C91.4799 108.49 91.3699 107.96 91.4099 107.36C91.4199 107.23 91.4199 107.09 91.4599 106.96C91.6799 106.48 91.9599 106.4 92.4799 106.59C92.5999 106.63 92.7199 106.67 92.8399 106.73C93.2199 106.92 93.4499 107.22 93.5699 107.49C93.7599 107.9 93.7499 108.21 93.7399 108.65C93.7199 109.07 93.6599 109.58 93.5199 110.14C93.3199 111 92.7699 111.94 92.1299 112.58L92.0899 112.55H92.0799Z" fill="#231F20"/>
<path d="M108.48 71.83C108.6 71.31 108.62 70.78 108.58 70.23C108.56 70.03 108.47 69.85 108.44 69.65C108.31 68.96 108.18 68.1999 107.82 67.5199C107.64 67.2399 107.46 66.9399 107.25 66.6699C106.98 66.3199 106.68 66.0099 106.44 65.5999C106.37 65.4699 106.48 65.36 106.69 65.3C106.9 65.24 107.24 65.2 107.51 65.33C107.95 65.59 108.43 65.8399 108.78 66.2399C109.12 66.6299 109.39 67.0999 109.58 67.5899C109.8 68.1799 110.17 68.7399 110.29 69.3899C110.46 70.0799 110.48 70.81 110.44 71.51C110.41 71.94 110.34 72.3699 110.24 72.7899C110.1 73.4199 109.87 74.0299 109.62 74.6099C109.52 74.8299 109.44 75.06 109.36 75.3C109.26 75.52 109.17 75.75 109.07 75.98C109.03 76.08 108.97 76.17 108.91 76.26C108.65 76.57 108.48 76.6 108.11 76.41C108.03 76.37 107.94 76.3299 107.87 76.2799C107.61 76.1199 107.5 75.83 107.53 75.55C107.59 75.13 107.66 74.75 107.77 74.4C107.85 74.04 107.94 73.6899 108.04 73.3599C108.22 72.8699 108.38 72.3799 108.45 71.8599H108.5L108.48 71.83Z" fill="#231F20"/>
<path d="M67.6902 40.7801C68.0002 41.5801 68.2302 42.3801 68.4102 43.1901C68.4902 43.4801 68.5802 43.7601 68.6302 44.0601C68.7902 45.1001 68.8502 46.1401 68.8402 47.1601C68.8502 47.6101 68.8602 48.0701 68.8802 48.5101C68.8802 49.0801 68.8202 49.6601 68.6402 50.2201C68.5802 50.3901 68.4302 50.3501 68.2502 50.1901C68.0802 50.0301 67.8402 49.7501 67.7702 49.4401C67.7202 49.1601 67.6402 48.8901 67.6002 48.6201C67.5802 48.3501 67.5602 48.0801 67.5402 47.8001C67.5002 47.2601 67.4702 46.7101 67.4502 46.1601C67.4402 45.4901 67.1802 44.8401 66.9902 44.2001C66.7802 43.5001 66.5302 42.8001 66.2202 42.1401L65.9302 41.5301L65.6002 40.9401C65.2602 40.3501 64.8602 39.7801 64.3702 39.3101C64.1702 39.1401 63.9502 38.9901 63.7302 38.8501C63.5002 38.7301 63.2602 38.6101 63.0302 38.5001C62.9302 38.4501 62.8402 38.3901 62.7402 38.3301C62.4002 38.1001 62.4302 37.8001 62.5502 37.4001C62.5802 37.3101 62.6002 37.2101 62.6402 37.1201C62.7502 36.8401 63.0502 36.6901 63.4902 36.6801C64.1002 36.7201 64.6102 37.0101 65.0902 37.3401C65.5602 37.6901 65.9902 38.0901 66.3702 38.5501C66.9302 39.2201 67.4202 39.9501 67.7402 40.7501L67.7002 40.7701L67.6902 40.7801Z" fill="#231F20"/>
<path d="M62.3402 18.67C68.4702 18.86 74.6002 18.97 80.7402 19.03C82.9802 19.05 85.2202 18.98 87.4802 19.03L88.9802 19.07L89.7302 19.1L90.2702 19.12C90.4702 19.12 90.6702 19.14 90.8802 19.17C91.7302 19.24 92.4202 19.54 92.7902 20.07C92.8602 20.22 92.9102 20.39 92.9602 20.58C92.9902 20.77 93.0902 20.93 93.0702 21.15C93.0702 21.58 93.1002 22 93.0702 22.42L93.0002 28.45L92.8202 40.3C92.7802 43.8 92.8202 47.33 92.9102 50.8C92.9602 55.27 93.1602 59.73 92.9502 64.2C92.7702 65.6 92.7902 65.42 92.3502 64.27C92.1202 63.69 91.8802 62.87 91.5902 61.87C91.4502 61.37 91.3002 60.82 91.1802 60.24C91.0802 59.66 91.0002 59.04 90.9402 58.39C90.7502 56.1 90.5602 53.82 90.4502 51.53C90.3802 49.24 90.3402 46.96 90.3102 44.67C90.2602 40.09 90.2902 35.51 90.4302 30.91C90.4702 29.53 90.4902 28.15 90.4902 26.75C90.4902 26.05 90.4902 25.35 90.4802 24.65L90.4602 23.6V23.08L90.4402 22.82V22.7V22.66L90.4202 22.32C90.4202 22.22 90.4302 22.05 90.2802 22.07C90.0102 22.05 90.0202 22.05 89.1202 22.04C87.7102 22.04 86.3102 22.04 84.9102 22.04C78.7302 22.04 72.5202 22.02 66.3302 21.92C62.5102 21.87 58.7002 21.76 54.8802 21.65C49.1002 21.48 43.3002 21.17 37.5702 20.86C33.1102 20.62 28.7302 20.49 24.3102 20.11C23.3402 20.03 22.3802 19.97 21.4002 19.85C17.7702 19.4 16.6502 18.96 16.0302 17.97C15.8902 17.75 15.6902 17.51 15.6302 17.31C15.4102 16.61 16.9502 16.33 19.5702 16.54C27.3402 17.12 35.5402 17.64 43.8202 18.01C49.9602 18.28 56.1502 18.49 62.3302 18.6V18.68L62.3402 18.67Z" fill="#231F20"/>
<path d="M91.2401 111.32L91.1901 102.67C91.1901 101.62 91.0901 100.57 91.0901 99.51C91.1101 95.8 91.2301 92.08 91.2801 88.36C91.2801 86.71 91.2801 85.0499 91.2801 83.4199C91.2801 82.3699 91.2601 81.31 91.3001 80.26C91.3201 79.73 91.3201 79.2 91.4001 78.68C91.4901 78.15 91.5501 77.6299 91.6901 77.0999C91.9701 76.4499 92.0501 76.5499 92.4501 77.0999C92.6601 77.3799 92.8701 77.78 93.0901 78.25C93.3201 78.7199 93.5001 79.2799 93.5301 79.8799C93.6601 81.9999 93.8601 84.1399 93.9001 86.2699C93.9001 88.4099 93.8501 90.5499 93.7401 92.7099C93.6101 95.2899 93.8401 97.97 93.8501 100.61L93.9001 109.33V112.02C93.9001 112.24 93.9201 112.67 93.9001 112.96L93.7801 113.87C93.7701 114.03 93.7401 114.17 93.7001 114.3L93.6501 114.5C93.5701 114.51 93.5101 114.55 93.4401 114.58C93.1801 114.68 92.9201 114.77 92.6001 114.83C92.1801 114.95 91.5901 114.97 91.1901 115L90.1601 115.05L88.1101 115.11C86.7501 115.13 85.3901 115.16 84.0301 115.18C81.9301 115.22 79.8601 115.39 77.7601 115.41C77.3001 115.41 76.8401 115.45 76.3701 115.43C74.6401 115.29 74.1101 114.99 73.8401 114.17C73.7801 114 73.6901 113.84 73.6501 113.7C73.5401 113.29 74.3101 112.65 75.5301 112.6C79.1701 112.33 82.9901 112.43 86.8401 112.37C88.2601 112.35 89.7101 112.33 91.1001 112.27C91.1001 112.27 91.1601 112.3 91.1601 112.27C91.1601 112.26 91.1701 112.25 91.1801 112.23V111.32H91.2301H91.2401Z" fill="#231F20"/>
<path d="M98.1501 72.03C96.2901 71.95 94.4101 71.85 92.5401 71.82C91.8601 71.8 91.1701 71.87 90.4901 71.85C88.0701 71.78 85.6501 71.71 83.2301 71.69C82.1601 71.69 81.0801 71.73 80.0101 71.79C78.6401 71.85 77.2601 72.05 75.8901 71.6C75.4601 71.47 75.5201 71.25 75.8701 70.88C76.0501 70.69 76.3001 70.46 76.6001 70.21C76.9001 69.99 77.2601 69.85 77.6501 69.79C78.3401 69.66 79.0301 69.62 79.7301 69.59L81.8101 69.5C83.2001 69.46 84.6001 69.45 86.0101 69.51C87.7001 69.59 89.4401 69.36 91.1701 69.3C93.0701 69.24 94.9701 69.21 96.8701 69.21L100.39 69.25C102.17 69.26 103.95 69.37 105.72 69.37C107.09 69.38 108.45 69.23 109.83 69.19C110.13 69.19 110.43 69.13 110.74 69.15C111.87 69.21 112.19 69.64 112.34 70.39C112.37 70.56 112.42 70.73 112.44 70.89C112.46 71.16 112.34 71.39 112.12 71.61C111.89 71.83 111.56 72.05 111.15 72.12C108.76 72.48 106.31 72.32 103.8 72.26C101.94 72.2 100.07 72.11 98.1901 72.08V72.01L98.1501 72.03Z" fill="#231F20"/>
<path d="M13.8898 51.34L13.8498 35.86C13.8498 33.28 13.8698 30.7 13.8498 28.12L13.7998 24.25L13.7798 19.17L14.4098 17.66C14.4698 17.54 14.4898 17.39 14.6398 17.33C14.7598 17.27 14.8698 17.23 14.9898 17.2C15.2298 17.13 15.4898 17.09 15.7998 17.1C16.4098 17.1 17.1698 17.39 17.8898 17.65L18.9798 18.07L19.7098 18.37L24.5698 20.42C29.2098 22.38 33.8398 24.34 38.4798 26.3C43.2298 28.32 47.9898 30.31 52.7798 32.2C55.1798 33.14 57.5798 34.06 59.9998 34.93C61.2098 35.36 62.4198 35.79 63.6298 36.19L65.4498 36.78L67.5598 37.42C69.0498 37.75 69.1298 40.02 69.2498 40.66C69.3698 41.62 69.4498 42.56 69.5098 43.5C69.6398 45.37 69.7198 47.23 69.7798 49.09C69.8998 52.81 69.9598 56.52 70.0098 60.23C70.0798 68.11 70.1398 76.04 70.2098 83.86C70.1398 93.9 70.3698 103.99 69.4598 114.02C69.1498 117.14 69.1498 116.72 68.7998 114.07C68.3698 111.42 67.6098 106.54 67.4798 100.75L67.2698 85.38C67.2498 80.26 67.2298 75.13 67.2198 70C67.1998 64.87 67.1698 59.74 67.0798 54.61C67.0398 52.05 66.9798 49.48 66.8798 46.93C66.8298 45.65 66.7698 44.38 66.6798 43.12C66.6298 42.49 66.5798 41.86 66.5198 41.26C66.4898 40.95 66.4498 40.66 66.3998 40.37C66.3598 40.18 66.3798 40.25 66.3698 40.18C66.3698 40.14 66.3598 40.1 66.3498 40.06C66.3498 39.96 66.2598 39.91 66.1698 39.89L64.3198 39.31L62.1398 38.59C60.6898 38.1 59.2398 37.6 57.7898 37.08C54.8998 36.04 52.0098 34.96 49.1198 33.85C43.3498 31.62 37.5998 29.29 31.9298 26.9L22.8098 23.04L18.2598 21.16L17.7198 20.94L17.2798 20.77C17.2098 20.74 17.1298 20.72 17.0498 20.7C17.0098 20.7 16.9698 20.68 16.9298 20.7C16.9198 20.73 16.9298 20.78 16.9298 20.81V21.28L16.8498 25.83C16.8198 27.66 16.7898 29.48 16.7898 31.31V42.26C16.8098 50.82 16.8598 59.38 16.9798 67.93C17.0698 74.41 17.1698 80.9 17.3298 87.38C17.4098 90.62 17.4898 93.85 17.6198 97.08L17.7298 99.49L17.7998 100.69L17.8398 101.28L17.8598 101.57L17.8798 101.75C17.8798 102.01 18.0698 102.12 18.2598 102.33C18.5198 102.57 18.7998 102.8 19.1198 103.02C19.7298 103.47 20.3998 103.87 21.0798 104.26C25.3798 106.6 30.0398 108.34 34.6398 110.04C39.2698 111.72 43.9298 113.27 48.6198 114.82C50.6898 115.49 52.7098 116.16 54.7998 116.84C62.5198 119.41 64.9198 120.44 66.3198 121.71C66.6398 122 67.0798 122.33 67.2398 122.57C67.7798 123.37 64.5098 122.71 58.8198 120.96C50.3798 118.35 41.6998 115.63 32.9998 112.43C28.6498 110.79 24.2998 109.14 19.9998 106.84C18.9198 106.24 17.8498 105.62 16.7598 104.73L16.3498 104.37C16.1998 104.26 15.9998 103.98 15.8298 103.77C15.4198 103.35 15.2698 102.8 15.1398 102.24C15.0998 102.11 15.0698 101.95 15.0698 101.84L15.0498 101.6L15.0098 101.14L14.9498 100.24C14.7998 97.87 14.6998 95.53 14.6098 93.19C14.1098 79.27 13.9498 65.3 13.7998 51.36L13.8698 51.34H13.8898Z" fill="#231F20"/>
<path d="M109.75 72.09C109.9 71.95 110.01 71.8201 110.13 71.6901C110.26 71.5501 110.37 71.4201 110.45 71.3001C110.56 71.1501 110.57 71.1701 110.6 71.1301C110.63 71.1001 110.66 71.0701 110.68 71.0201C110.7 70.97 110.69 70.9101 110.68 70.8501C110.67 70.8201 110.66 70.8001 110.64 70.7601L110.61 70.7101L110.49 70.5801C110.18 70.2301 109.76 69.9301 109.4 69.5701C108.09 68.2901 106.67 67.01 105.23 65.7701C104.59 65.22 103.93 64.6901 103.25 64.1801C102.83 63.8401 102.36 63.5501 101.97 63.1601C101.57 62.7801 101.19 62.3701 100.97 61.7901C100.88 61.3801 101 61.3301 101.49 61.2201C101.73 61.1601 102.04 61.1101 102.39 61.0701C102.72 61.0501 103.03 61.1001 103.31 61.2301C105.18 62.2701 106.92 63.5701 108.48 65.2001C109.42 66.1701 110.6 66.89 111.66 67.84L112.19 68.34L112.45 68.6101L112.58 68.7501L112.76 68.9501C113 69.2101 113.22 69.5201 113.4 69.8301C113.56 70.1401 113.65 70.5001 113.64 70.8501C113.56 71.7301 113.06 72.6401 112.73 73.1101C112.12 73.9601 111.42 74.6201 110.73 75.2901C109.68 76.2801 108.54 77.1401 107.45 78.0301C106.61 78.7301 105.86 79.5201 105.01 80.2301C104.82 80.3901 104.66 80.5701 104.45 80.7101C103.68 81.2101 103.25 81.0901 102.74 80.5001C102.62 80.3601 102.49 80.23 102.39 80.09C102.06 79.6101 102.12 78.9901 102.5 78.4801C103.71 77.0701 105.22 75.9401 106.67 74.7401C107.75 73.8701 108.85 72.9801 109.71 72.0501L109.77 72.1001L109.75 72.09Z" fill="#231F20"/>
<path d="M60.5399 73.73C60.9199 73.94 61.2899 74.16 61.6899 74.43L61.9999 74.64L62.1699 74.77L62.2499 74.83L62.3899 74.94L62.4399 74.99C62.4399 74.99 62.5299 75.08 62.5699 75.14C62.6199 75.2 62.6599 75.26 62.6899 75.33C62.7099 75.38 62.7099 75.37 62.7499 75.46C62.7899 75.56 62.8199 75.68 62.8299 75.8C62.8599 76.05 62.7899 76.32 62.7199 76.48C62.6499 76.63 62.5299 76.79 62.3899 76.91C62.3199 76.97 62.2399 77.02 62.1799 77.06L62.1099 77.09C62.1099 77.09 62.0099 77.13 61.9699 77.15C61.9199 77.17 61.8699 77.18 61.8299 77.19H61.7699L61.6599 77.21C61.5499 77.21 61.4799 77.21 61.4299 77.21C61.3199 77.21 61.2499 77.19 61.1799 77.18L60.8199 77.1C60.4899 77.02 60.1799 76.99 59.8899 76.89C58.8399 76.55 57.8699 76.05 56.8799 75.6C56.4399 75.41 55.9999 75.21 55.5699 74.99C55.2899 74.85 55.0099 74.7 54.7499 74.51C54.4999 74.3 54.1899 74.1 54.0799 73.61C54.0999 73.31 54.2699 73.42 54.4699 73.49C54.6799 73.54 54.9599 73.4 55.2499 73.47C55.7599 73.58 56.3499 73.64 56.9199 73.73C57.4699 73.89 58.0199 74.08 58.5699 74.31C59.2299 74.58 59.9699 74.67 60.6599 74.82L61.2099 74.94L61.4399 74.98H61.4699V75.16C61.4699 75.28 61.4699 75.41 61.4899 75.53C61.4899 75.73 61.5499 75.93 61.5799 75.93C61.5799 75.93 61.5199 75.95 61.4799 76.01C61.4499 76.04 61.4199 76.07 61.3999 76.11L61.3799 76.14V76.16C61.6999 75.68 60.9399 76.81 61.0099 76.7C60.7999 76.54 60.4299 76.33 60.0999 76.15C59.6699 75.92 59.2299 75.71 58.7699 75.51C58.0799 75.21 57.3899 74.89 56.6599 74.69C56.0999 74.53 55.4999 74.52 54.9199 74.45C54.7899 74.44 54.6599 74.45 54.5399 74.42C54.3099 74.37 54.1799 74.31 54.1099 74.15C54.0499 73.98 54.0499 73.75 54.0899 73.43C54.1099 73.28 54.1099 73.13 54.1399 72.99C54.1799 72.75 54.2699 72.55 54.4099 72.38C54.5499 72.21 54.7499 72.06 54.9399 72.05C56.1099 71.93 57.2099 72.2 58.2599 72.62C59.0399 72.93 59.8099 73.3 60.5799 73.68L60.5599 73.74L60.5399 73.73Z" fill="#231F20"/>
<path d="M97.1502 14.07C97.2402 14.21 97.0502 14.33 96.7202 14.45C96.6202 14.49 96.3002 14.5 96.2502 14.45C96.1502 14.37 96.0502 14.3 95.9802 14.22C95.9402 14.17 95.6302 13.39 95.5002 13.13C95.3702 12.87 95.3002 12.61 95.2502 12.35C95.1202 11.82 95.0802 11.29 95.0202 10.75C95.0102 10.63 95.0202 10.51 95.0602 10.39C95.1902 9.98998 95.1802 9.57998 95.1202 9.16998C95.1102 9.09998 95.1202 9.02998 95.0302 8.95998C94.8502 8.84998 94.9002 7.72998 94.9802 7.58998C95.1702 7.23998 95.3002 6.88998 95.4602 6.53998C95.4802 6.48998 95.4602 6.42998 95.5602 6.39998C95.8202 6.30998 95.7802 6.19998 95.8102 6.08998C95.8502 5.93998 95.9002 5.78998 96.0002 5.64998C96.0502 5.57998 96.2002 5.51998 96.3202 5.45998C96.4302 5.39998 96.8002 5.47998 96.8302 5.50998C96.9402 5.58998 97.1202 5.54998 97.2702 5.56998C97.3202 5.56998 97.3902 5.56998 97.4302 5.58998C97.5202 5.60998 98.0802 6.49998 98.0702 6.57998C98.0702 6.57998 98.1002 6.89998 98.1302 7.22998C98.1702 7.55998 98.2102 7.89998 98.2302 7.96998C98.2502 8.03998 98.1902 8.10998 98.1502 8.17998C98.1502 8.20998 98.3002 9.18998 98.2702 9.22998C98.2202 9.42998 98.2902 9.62998 98.0602 9.82998C98.0202 9.86998 98.0202 9.90998 98.0202 9.94998C98.0202 10.3 97.9202 10.65 97.8402 11C97.8002 11.18 97.8202 11.36 97.8002 11.54C97.8002 11.57 97.7702 11.6 97.7502 11.64C97.7302 11.68 97.7002 11.72 97.7002 11.76C97.6802 12.18 97.5202 12.61 97.5502 13.04C97.5502 13.14 97.3202 13.61 97.3402 13.73C97.3402 13.79 97.0902 14.01 97.1302 14.07H97.1502Z" fill="#231F20"/>
<path d="M100.64 17.85C100.62 18.02 100.4 17.91 100.04 17.68C99.93 17.61 99.66 17.32 99.65 17.25C99.65 17.11 99.64 16.97 99.66 16.84C99.67 16.74 100.25 16.05 100.44 15.8C100.62 15.57 100.85 15.39 101.08 15.24C101.55 14.93 102 14.61 102.47 14.33C102.58 14.27 102.69 14.23 102.82 14.22C103.25 14.17 103.62 13.99 103.96 13.76C104.02 13.72 104.08 13.7 104.11 13.6C104.15 13.43 105.12 12.93 105.26 12.92C105.64 12.9 105.98 12.82 106.35 12.8C106.4 12.8 106.43 12.75 106.52 12.81C106.72 12.96 106.79 12.88 106.89 12.85C107.03 12.81 107.18 12.77 107.33 12.77C107.41 12.77 107.53 12.84 107.64 12.89C107.74 12.93 107.88 13.22 107.88 13.26C107.88 13.38 108 13.48 108.08 13.59C108.11 13.63 108.14 13.68 108.16 13.71C108.2 13.78 107.68 14.76 107.6 14.81C107.6 14.81 107.32 15.04 107.03 15.23C106.74 15.43 106.44 15.62 106.38 15.67C106.32 15.72 106.23 15.71 106.15 15.71C106.11 15.71 105.27 16.3 105.23 16.31C105.03 16.37 104.88 16.54 104.61 16.45C104.56 16.43 104.52 16.46 104.49 16.48C104.18 16.66 103.83 16.75 103.49 16.86C103.31 16.91 103.16 17.01 103 17.08C102.97 17.09 102.93 17.08 102.89 17.08C102.85 17.08 102.8 17.08 102.76 17.1C102.39 17.29 101.97 17.4 101.65 17.65C101.58 17.71 101.08 17.76 101.02 17.84C100.98 17.88 100.65 17.76 100.64 17.84V17.85Z" fill="#231F20"/>
<path d="M100.83 22.57C100.66 22.63 100.52 22.45 100.41 22.17C100.37 22.08 100.39 21.82 100.44 21.78C100.53 21.7 100.63 21.62 100.72 21.55C100.78 21.53 101.68 21.22 101.98 21.15C102.27 21.06 102.57 21.02 102.86 20.98L104.67 20.75C104.81 20.73 104.94 20.74 105.08 20.76C105.55 20.84 106.02 20.81 106.5 20.73C106.58 20.72 106.66 20.73 106.74 20.64C106.86 20.5 108.18 20.39 108.35 20.53C108.77 20.72 109.19 20.86 109.61 21.02C109.67 21.04 109.74 21.02 109.78 21.12C109.89 21.33 110.02 21.31 110.15 21.34C110.33 21.38 110.5 21.44 110.67 21.53C110.75 21.57 110.83 21.69 110.9 21.78C110.97 21.86 110.9 22.12 110.86 22.14C110.77 22.21 110.82 22.34 110.81 22.45C110.81 22.49 110.81 22.54 110.8 22.56C110.78 22.61 109.76 23.03 109.66 23.05C109.63 23.03 108.23 23.25 108.07 23.32C107.99 23.35 107.9 23.32 107.82 23.28C107.78 23.26 106.65 23.38 106.6 23.37C106.36 23.34 106.13 23.4 105.88 23.22C105.83 23.18 105.78 23.19 105.74 23.2C105.33 23.22 104.91 23.15 104.49 23.1C104.28 23.08 104.06 23.1 103.85 23.1C103.81 23.1 103.77 23.07 103.73 23.06C103.68 23.05 103.63 23.02 103.58 23.02C103.07 23.02 102.56 22.94 102.04 22.98C101.92 23 101.35 22.8 101.22 22.78C101.14 22.78 100.9 22.53 100.83 22.56V22.57Z" fill="#231F20"/>
</svg>
