<svg width="128" height="128" viewBox="0 0 128 128" fill="none" xmlns="http://www.w3.org/2000/svg">
<path d="M59.6599 119.31C56.7099 119.92 42.0599 119.68 43.2299 117.13C44.0599 115.32 51.0599 113.97 52.5699 113.31C52.8099 113.2 50.1499 117.1 50.9599 117.69C51.7699 118.28 59.6599 119.3 59.6599 119.3V119.31Z" fill="#231F20"/>
<path d="M108.48 66C107.2 63.56 105.9 61.13 104.58 58.71C104.1 57.83 103.54 56.98 103.07 56.1L98.07 46.68C97.34 45.28 96.54 43.91 95.74 42.57L94.19 39.98C93.95 39.54 93.76 39.07 93.56 38.6L93.28 37.89C93.19 37.65 93.16 37.38 93.1 37.13C92.99 36.47 93.22 36.44 93.89 36.68C94.62 36.88 95.68 37.4 96.38 38.33C98.52 41.81 100.57 45.34 102.31 49.11C103.37 51.35 104.78 53.51 106.02 55.71L110.05 63.03L112.5 67.55C113.74 69.83 114.94 72.15 116.2 74.41C117.18 76.16 118.28 77.81 119.28 79.54C119.5 79.92 119.75 80.28 119.96 80.67C120.15 81.04 120.29 81.35 120.39 81.62C120.48 81.89 120.5 82.14 120.5 82.35C120.51 82.76 120.34 83.08 120.08 83.39C119.96 83.53 119.87 83.69 119.76 83.79C119.43 84.11 118.55 83.77 117.81 82.82C115.87 79.88 114.14 76.64 112.39 73.36C111.07 70.93 109.75 68.49 108.43 66.05L108.49 66.01L108.48 66Z" fill="#231F20"/>
<path d="M77.6498 66.11C78.5398 63.99 79.4298 61.86 80.2598 59.7C80.5598 58.91 80.7898 58.1 81.1098 57.32C82.2498 54.57 83.3998 51.81 84.4998 49.03C84.9998 47.8 85.4598 46.55 85.8898 45.31C86.3998 43.7 87.0598 42.13 88.1498 40.73C88.4898 40.29 88.4798 40.37 88.5498 40.87C88.5898 41.12 88.6598 41.48 88.7698 41.93C88.8498 42.36 88.8798 42.85 88.8298 43.34C88.7698 43.77 88.7798 44.23 88.6598 44.64L88.3098 45.88C88.0698 46.7 87.8298 47.53 87.5698 48.35C87.0898 50 86.3798 51.58 85.6898 53.18C84.8398 55.08 84.2898 57.18 83.5798 59.19C82.7598 61.38 81.8998 63.57 81.0198 65.74L79.3698 69.75C78.5298 71.77 77.6298 73.77 76.8098 75.79C76.1498 77.34 75.7598 78.99 75.0298 80.49C74.8798 80.83 74.7398 81.16 74.5698 81.49C74.2498 82.1 73.9798 82.47 73.6798 82.68C73.3998 82.9 73.1398 82.97 72.8198 82.98C72.6798 82.98 72.5298 83.01 72.3998 82.99C71.9998 82.94 71.8898 82.26 72.0098 81.22C72.5298 78.21 73.7598 75.4 74.9398 72.52C75.8198 70.39 76.7198 68.25 77.5698 66.09L77.6398 66.11H77.6498Z" fill="#231F20"/>
<path d="M18.3599 64.31C19.7899 61.96 21.1999 59.6 22.5799 57.22C23.0799 56.35 23.5099 55.44 24.0199 54.58C25.7899 51.52 27.5799 48.47 29.2699 45.37C30.0399 44 30.7199 42.58 31.3899 41.18C32.2399 39.37 32.9199 37.48 34.2899 35.91C34.7499 35.44 34.8999 35.6 35.0799 36.26C35.3099 36.95 35.4699 38.11 35.1199 39.22C33.4799 42.99 31.6399 46.67 29.4099 50.17C28.0899 52.27 26.9999 54.6 25.7599 56.81C24.3999 59.24 22.9999 61.64 21.5899 64.04L18.9799 68.46C17.6699 70.69 16.2999 72.91 15.0299 75.15C14.0499 76.89 13.2199 78.68 12.2999 80.44C12.0999 80.83 11.9199 81.22 11.7099 81.61C11.5099 81.96 11.3299 82.25 11.1599 82.48C10.9799 82.7 10.7899 82.85 10.6299 82.97C10.2999 83.21 9.95985 83.25 9.56985 83.21C9.39985 83.19 9.21985 83.21 9.07985 83.17C8.64985 83.08 8.47985 82.19 8.88985 81.05C10.3299 77.82 12.1999 74.63 14.0999 71.44C15.4999 69.06 16.9099 66.67 18.3199 64.28L18.3799 64.31H18.3599Z" fill="#231F20"/>
<path d="M28.3301 34.46C27.7201 34.38 27.1101 34.31 26.5001 34.26C26.2801 34.25 26.0601 34.29 25.8301 34.26C25.0401 34.21 24.2301 34.09 23.4301 34.04C23.0701 34.02 22.7201 34.04 22.3701 34.08C21.9201 34.08 21.4701 34.19 20.9901 33.88C20.8401 33.8 20.8501 33.72 20.9601 33.53C21.0401 33.39 21.1101 33.25 21.1701 33.14C21.2601 32.96 21.3701 32.83 21.4901 32.79C21.7101 32.7 21.9401 32.6 22.1601 32.54C22.3901 32.5 22.6201 32.47 22.8501 32.44C23.3101 32.39 23.7701 32.38 24.2501 32.43C24.8101 32.48 25.3901 32.37 25.9601 32.34C26.5901 32.32 27.2301 32.34 27.8601 32.36C28.2501 32.37 28.6401 32.39 29.0301 32.4C29.6201 32.41 30.2101 32.47 30.7901 32.45C31.2401 32.43 31.6801 32.28 32.1301 32.18C32.2301 32.16 32.3201 32.12 32.4201 32.11C32.7901 32.17 32.9001 32.34 32.9701 32.86C32.9901 32.98 33.0101 33.09 33.0201 33.2C33.0501 33.55 32.9001 33.93 32.6301 34.12C31.8301 34.63 31.0001 34.59 30.1701 34.62C29.5501 34.62 28.9401 34.53 28.3201 34.5V34.45L28.3301 34.46Z" fill="#231F20"/>
<path d="M98.3899 32.8C98.9499 32.91 99.5099 33.01 100.07 33.09C100.28 33.12 100.48 33.09 100.68 33.12C101.4 33.24 102.14 33.36 102.86 33.48C103.18 33.53 103.5 33.53 103.82 33.54C104.23 33.54 104.64 33.53 105.05 33.68C105.18 33.73 105.15 33.93 105.05 34.15C104.94 34.37 104.75 34.63 104.52 34.69C103.71 34.87 102.91 35.05 102.08 34.98C101.58 34.91 101.07 35.05 100.57 35.09C100.01 35.12 99.4499 35.13 98.8899 35.14C98.5399 35.14 98.1899 35.14 97.8499 35.14C97.3199 35.14 96.7899 35.09 96.2499 35.13C95.8199 35.15 95.4299 35.38 94.8299 35.3C94.7499 35.29 94.6699 35.27 94.5899 35.26C94.4999 35.25 94.3599 35.16 94.2699 35.1C94.1299 35 93.9699 34.84 93.8799 34.66C93.7499 34.42 93.7199 34.11 93.7699 33.97C93.7999 33.81 93.8899 33.62 93.9499 33.57C94.0099 33.52 94.0699 33.48 94.1199 33.45C94.3499 33.34 94.4999 33.47 94.7099 33.6C94.7999 33.67 94.8899 33.74 94.9699 33.81C95.0999 33.94 95.1899 34.09 95.2899 34.22C95.3199 34.27 95.4499 34.42 95.2599 34.23C95.1499 34.13 94.9499 34.04 94.8999 34.03C94.8399 34.03 94.8799 34.03 94.8799 34.03C94.8799 34.03 94.9199 34 94.9399 33.98C94.9799 33.94 94.9899 33.91 95.0199 33.86C95.0699 33.79 95.1199 33.71 95.1499 33.63C95.1899 33.5 95.2999 33.24 95.3699 32.99C95.3899 32.9 95.3899 32.92 95.3899 32.91V32.89L95.4199 32.86C95.4899 32.77 95.6399 32.7 95.7799 32.69C96.0699 32.64 96.4199 32.63 96.7699 32.63C97.2999 32.63 97.8499 32.66 98.4099 32.74V32.8H98.3899Z" fill="#231F20"/>
<path d="M66.8702 27.64C59.9902 28.1 60.6802 22.92 61.5102 21.5C61.5102 21.5 60.2802 21.8 59.6202 23.1C58.9102 24.49 59.2102 27.08 60.6302 28.06C62.0502 29.04 64.3502 28.66 65.3802 28.68C66.4102 28.7 66.8802 27.65 66.8802 27.65L66.8702 27.64Z" fill="#231F20"/>
<path d="M89.02 37.13C89.02 37.13 94.01 35.18 90.91 32.32C88.63 30.21 91.25 30.03 92.58 30.87C93.91 31.71 95.86 32.63 95.26 35.18C94.66 37.73 93.21 38.26 91.66 38.26C90.11 38.26 89.02 37.13 89.02 37.13Z" fill="#231F20"/>
<path d="M38.9299 30.28C37.3099 29.72 34.1399 34.03 36.7799 35.75C38.9699 37.17 38.2399 37.2 37.2799 37.11C36.3199 37.02 31.8299 36.4 32.1899 33.65C32.5499 30.9 33.6299 29.88 35.8299 29.51C38.0299 29.14 38.9299 30.27 38.9299 30.27V30.28Z" fill="#231F20"/>
<path d="M66.4201 103.9C62.4901 104.66 52.1901 113.86 58.7601 117.56C62.8501 119.87 48.5901 118.75 49.8401 115.89C51.0901 113.03 56.8001 105.64 59.6601 104.55C62.5201 103.46 66.4201 103.9 66.4201 103.9Z" fill="#231F20"/>
<path d="M88.7199 79.93C88.6899 79.46 88.7199 78.99 88.7499 78.54C88.7699 78.38 88.7499 78.21 88.7699 78.05C88.8699 77.48 89.0199 76.93 89.2099 76.39C89.2999 76.15 89.3399 75.91 89.4399 75.66C89.5499 75.36 89.6799 75.01 90.0299 74.82C90.1299 74.76 90.2899 74.94 90.4399 75.16C90.5899 75.39 90.7599 75.59 90.7499 75.73C90.7299 76.19 90.5499 76.65 90.3299 77.18C90.1899 77.49 90.2499 77.85 90.2499 78.18C90.2399 78.55 90.2499 78.93 90.2899 79.3C90.3099 79.53 90.3599 79.75 90.3999 79.98C90.4899 80.31 90.5899 80.65 90.7899 80.91C90.8799 81.01 90.9599 81.1 91.0599 81.18C91.1699 81.25 91.2799 81.31 91.3799 81.37C91.4199 81.4 91.4799 81.41 91.5199 81.44C91.6699 81.54 91.6299 81.67 91.3999 82.06L91.2499 82.33C91.0699 82.63 90.8199 82.79 90.5699 82.73C89.8499 82.56 89.2499 82.01 89.0399 81.36C88.8299 80.89 88.7599 80.4 88.6899 79.92H88.7299L88.7199 79.93Z" fill="#231F20"/>
<path d="M97.05 80.82C97.16 80.62 97.25 80.4 97.32 80.17C97.34 80.09 97.32 80.01 97.34 79.92C97.42 79.62 97.51 79.3 97.52 78.99C97.53 78.85 97.51 78.71 97.46 78.59C97.43 78.51 97.39 78.44 97.37 78.36C97.37 78.28 97.37 78.18 97.45 78.12C97.63 78.18 97.68 78.13 97.68 78.03C97.68 77.94 97.66 77.81 97.85 77.79C98.11 77.71 98.46 77.7 98.61 77.8C98.92 78.21 99.09 78.65 98.95 79.13C98.88 79.41 98.99 79.67 98.98 79.94C98.98 80.24 98.93 80.54 98.87 80.83C98.83 81.01 98.79 81.19 98.73 81.36C98.66 81.63 98.53 81.87 98.48 82.14C98.42 82.34 98.51 82.59 98.44 82.79C98.43 82.84 98.44 82.89 98.41 82.93C98.34 83.09 98.2 83.09 97.81 82.93L97.55 82.82C97.26 82.69 97.04 82.52 96.97 82.37C96.87 82.16 96.77 81.97 96.77 81.83C96.77 81.68 96.8 81.55 96.82 81.41C96.88 81.21 96.93 81.01 97 80.8H97.04L97.05 80.82Z" fill="#231F20"/>
<path d="M102.84 81.57C102.93 81.43 103.05 81.28 103.11 81.11C103.13 81.04 103.13 80.98 103.15 80.91C103.23 80.67 103.29 80.39 103.31 80.11C103.31 79.97 103.32 79.87 103.33 79.73C103.33 79.57 103.34 79.41 103.41 79.24C103.43 79.19 103.49 79.19 103.58 79.23C103.66 79.27 103.79 79.33 103.84 79.42C103.93 79.57 104.01 79.72 104.08 79.87C104.1 80.03 104.11 80.19 104.08 80.36C104.05 80.56 104.13 80.78 104.13 81C104.13 81.25 104.08 81.5 104.02 81.74C103.97 81.89 103.9 82.02 103.84 82.16C103.74 82.36 103.61 82.55 103.53 82.74C103.47 82.89 103.43 83.06 103.36 83.21C103.34 83.24 103.34 83.28 103.32 83.31C103.25 83.42 103.13 83.39 102.92 83.29L102.78 83.22C102.63 83.13 102.53 83 102.49 82.87C102.47 82.7 102.46 82.54 102.46 82.39C102.46 82.24 102.54 82.14 102.58 82.03C102.66 81.87 102.75 81.72 102.81 81.57H102.84Z" fill="#231F20"/>
<path d="M100.28 77.03C98.3998 76.76 96.4898 76.56 94.5898 76.45C93.8898 76.41 93.1998 76.46 92.5098 76.45C91.2898 76.43 90.0698 76.36 88.8598 76.4C87.6698 76.44 86.4398 76.55 85.4398 76.91C85.2198 76.99 85.0298 77.09 84.8898 77.2C84.7898 77.27 84.5998 77.46 84.4398 77.66C84.1398 78.04 83.8698 78.45 83.7298 78.89C83.5298 79.45 83.5298 80.06 83.6498 80.68C83.6798 80.84 83.7298 80.99 83.7698 81.15C83.7998 81.32 83.8298 81.48 83.8798 81.65C83.9698 81.99 84.0798 82.33 84.2198 82.66C84.3698 83.09 84.3898 83 84.1098 82.74C83.9698 82.61 83.7398 82.45 83.4398 82.23C83.2898 82.13 83.1298 82 82.9598 81.86C82.8698 81.79 82.8098 81.7 82.6998 81.63C82.6398 81.54 82.5798 81.44 82.5198 81.33C82.1098 80.59 81.8998 79.65 81.9898 78.71C82.0798 77.77 82.4498 76.89 82.9198 76.16C82.9898 76.06 83.0098 75.99 83.1198 75.86C83.2198 75.73 83.3398 75.63 83.4598 75.51C83.6898 75.32 83.9098 75.18 84.1398 75.04C84.5798 74.81 84.9898 74.65 85.3998 74.53C86.2098 74.28 86.9898 74.18 87.7598 74.11C89.5998 73.97 91.4398 73.69 93.2598 73.74C95.2598 73.77 97.2498 73.91 99.2298 74.12C100.45 74.25 101.66 74.41 102.88 74.58C103.8 74.72 104.72 74.88 105.64 75.08C106.1 75.19 106.56 75.29 107.04 75.43C107.27 75.49 107.52 75.58 107.77 75.67C108.04 75.78 108.3 75.92 108.56 76.1C109.35 76.65 109.85 77.51 110.1 78.32C110.36 79.15 110.43 79.99 110.36 80.82C110.33 81.19 110.31 81.56 110.16 81.91C109.64 83.21 108.96 83.55 108.3 83.27C108.15 83.21 108 83.15 107.89 83.06C107.71 82.91 107.65 82.67 107.58 82.44C107.51 82.2 107.49 81.94 107.5 81.62C107.51 81.38 107.5 81.13 107.48 80.88C107.46 80.63 107.48 80.4 107.48 80.16C107.46 79.69 107.39 79.24 107.27 78.91C107.14 78.57 107 78.43 106.9 78.37C106.83 78.34 106.83 78.31 106.57 78.23C106.36 78.16 106.09 78.08 105.81 78.01C104.11 77.6 102.18 77.3 100.29 77.08V77.01L100.28 77.03Z" fill="#231F20"/>
<path d="M99.28 11.95C99.16 12.63 98.79 13.48 98.08 14.02C97.39 14.54 96.66 14.68 96.03 14.73C95.56 14.76 95.13 14.79 94.7 14.72C93.94 14.59 93.16 14.31 92.5 13.79C91.83 13.27 91.32 12.52 91.24 11.65C91.15 10.88 91.41 10.11 91.82 9.59C92.34 8.9 92.99 8.46 93.69 8.2C93.91 8.12 94.01 8.33 93.99 8.65C93.97 8.97 93.87 9.42 93.64 9.7C93.21 10.2 92.99 10.71 93.04 11C93.04 11.14 93.09 11.26 93.16 11.41C93.24 11.55 93.28 11.77 93.41 11.95C93.71 12.43 94.49 12.56 95.22 12.59C95.62 12.61 96 12.59 96.3 12.48C96.6 12.37 96.77 12.27 96.93 12.02C97.12 11.68 97.2 11.19 97.11 10.74C96.99 10.05 96.52 9.36 95.86 9.16C95.35 9.01 94.77 9.22 94.39 9.5C94.3 9.56 94.23 9.63 94.15 9.68C93.87 9.89 93.73 9.89 93.24 9.74L92.9 9.65C92.54 9.56 92.34 9.12 92.65 8.55C92.88 8.15 93.21 7.79 93.61 7.52C94.02 7.27 94.48 7.11 94.96 7.04C95.92 6.88 97.09 7.21 97.87 7.9C99.05 8.91 99.55 10.44 99.32 11.94H99.26L99.28 11.95Z" fill="#231F20"/>
<path d="M114.13 21.38C114.07 21.69 113.9 22.12 113.65 22.39C113.45 22.62 113.19 22.79 112.91 22.89C112.65 22.98 112.41 23.02 112.18 23.03C111.91 23.04 111.66 23.07 111.42 23.02C110.99 22.94 110.54 22.77 110.16 22.46C109.78 22.15 109.48 21.72 109.45 21.2C109.4 20.75 109.56 20.3 109.8 20.01C110.1 19.62 110.46 19.38 110.86 19.26C110.99 19.22 111.06 19.37 111.07 19.57C111.08 19.77 111.05 20.06 110.94 20.22C110.72 20.5 110.65 20.77 110.7 20.85C110.74 20.92 110.78 21 110.84 21.22C110.95 21.46 111.35 21.52 111.72 21.54C111.89 21.55 112.05 21.54 112.18 21.52C112.31 21.49 112.37 21.48 112.46 21.41C112.49 21.38 112.52 21.35 112.54 21.32C112.62 21.2 112.69 20.93 112.64 20.72C112.59 20.37 112.36 20.02 112.03 19.93C111.78 19.86 111.49 20 111.32 20.14C111.28 20.17 111.25 20.21 111.21 20.23C111.09 20.32 111 20.29 110.67 20.17L110.44 20.1C110.2 20.03 110.04 19.76 110.22 19.41C110.7 18.36 112.31 18.13 113.3 18.99C114 19.6 114.29 20.5 114.16 21.39H114.12L114.13 21.38Z" fill="#231F20"/>
<path d="M110.03 11.9C109.59 12.4 109.35 13.04 109.53 13.64C109.76 14.44 110.97 14.73 111.69 14.73C112.5 14.73 113.38 14.38 113.58 13.51C113.78 12.64 113.31 11.54 112.45 11.14C111.66 10.77 110.65 11.19 110.04 11.9H110.03Z" fill="#231F20"/>
<path d="M62.3698 74.67L62.3098 62.87C62.2998 61.43 62.1998 60 62.1998 58.57L62.2498 43.38C62.2598 41.13 62.2198 38.87 62.1598 36.64C62.1298 35.2 62.0598 33.77 62.1498 32.32C62.1998 31.6 62.1898 30.88 62.3098 30.16C62.4398 29.44 62.6198 28.72 62.8098 28.01C63.0698 27.13 63.1498 27.26 63.4898 28.03C63.6498 28.42 63.9398 28.96 64.1998 29.61C64.3198 29.93 64.4998 30.28 64.6098 30.66C64.6898 31.03 64.7598 31.42 64.7798 31.83C65.0598 34.72 64.9898 37.63 65.0498 40.55C65.0798 43.47 65.0498 46.4 64.9198 49.34C64.7798 52.86 65.0198 56.53 65.0798 60.13L65.2198 72.02C65.2498 74.46 65.2698 76.9 65.2998 79.34C65.3498 83.04 65.3198 86.75 65.3998 90.42C65.4598 93.27 65.6698 96.07 65.7498 98.9C65.7698 99.52 65.8098 100.13 65.8198 100.76C65.7598 103.09 65.3498 103.83 64.8498 104.31C64.7298 104.42 64.6098 104.57 64.4998 104.63C64.3198 104.74 64.1498 104.55 63.9698 104.13C63.7898 103.71 63.5898 103.04 63.4598 102.2C62.9098 97.19 62.7598 91.9 62.5598 86.58C62.3998 82.63 62.3498 78.66 62.2898 74.69H62.3598L62.3698 74.67Z" fill="#231F20"/>
<path d="M69.1801 34.67C66.8101 34.57 64.4301 34.51 62.0601 34.47C61.1901 34.45 60.3301 34.52 59.4601 34.5C56.4001 34.44 53.3301 34.39 50.2701 34.33C48.9101 34.31 47.5401 34.35 46.1901 34.41C44.4601 34.47 42.7201 34.68 40.9801 34.27C40.4401 33.96 40.5101 33.88 40.9601 33.39C41.1901 33.13 41.5101 32.91 41.9001 32.68C42.2901 32.48 42.7401 32.22 43.2401 32.22C46.7601 32.07 50.2901 31.97 53.8601 32.18C56.0001 32.3 58.2101 32.12 60.4001 32.11C62.8001 32.09 65.2101 32.11 67.6101 32.14L72.0501 32.23C74.2901 32.3 76.5501 32.37 78.7701 32.43C80.5001 32.47 82.2101 32.37 83.9401 32.38C84.3201 32.38 84.6901 32.35 85.0801 32.38C86.5001 32.48 86.9401 32.67 87.1601 33.43C87.2101 33.59 87.2901 33.75 87.3101 33.9C87.3901 34.36 86.7601 34.88 85.7401 34.91C82.7001 35.09 79.5401 34.99 76.3401 34.91C73.9601 34.85 71.5701 34.8 69.1801 34.74V34.68V34.67Z" fill="#231F20"/>
<path d="M36.0301 28.35C37.7601 28.11 39.4001 28.61 40.6201 29.67C41.0701 30.04 41.5101 30.48 41.8001 31.02C42.3501 31.99 42.3101 33.21 42.0201 34.14C41.6901 35.11 41.2301 35.78 40.5801 36.46C40.2901 36.75 39.9701 37.01 39.6101 37.23C39.2401 37.43 38.8601 37.59 38.4601 37.67C37.9601 37.77 37.4501 37.83 36.9701 37.75C36.4901 37.64 36.0501 37.47 35.6501 37.23C35.4001 37.08 35.4901 36.93 35.7701 36.75C36.0401 36.58 36.5101 36.26 36.9301 36.1C37.3001 35.94 37.6201 35.93 37.8801 35.78C38.1501 35.66 38.3201 35.48 38.5201 35.34C38.9001 35.07 39.3401 34.55 39.6501 33.95C40.0601 33.28 39.7801 32.63 39.3901 32.11C38.9601 31.49 38.0701 31.02 37.2001 31C36.6601 30.96 36.1301 31.11 35.7001 31.41C35.0501 31.85 34.5501 32.67 34.4301 33.61C34.3901 33.9 34.4901 34.14 34.6501 34.35C34.8001 34.57 35.0001 34.76 35.2301 34.93C35.3301 35.01 35.4601 35.06 35.5601 35.14C35.6601 35.21 35.7201 35.28 35.7501 35.39C35.7801 35.49 35.8101 35.57 35.8001 35.69C35.7801 35.95 35.7101 36.2 35.6201 36.52L35.5101 36.93C35.4401 37.14 35.3001 37.3 35.0501 37.43C34.8101 37.56 34.4201 37.7 34.0801 37.6C33.5401 37.49 33.1101 37.16 32.6701 36.78C32.2501 36.39 31.8501 35.87 31.6001 35.22C31.3701 34.57 31.3001 33.77 31.4401 33.07C31.5801 32.54 31.6901 32.03 31.9301 31.51C32.1401 31.12 32.3201 30.74 32.5801 30.38C32.8801 30.04 33.1601 29.67 33.5301 29.39C34.2601 28.82 35.1201 28.39 36.0101 28.26L36.0301 28.33V28.35Z" fill="#231F20"/>
<path d="M47.9901 67C47.2501 64.81 46.4901 62.63 45.7001 60.45C45.4101 59.66 45.0501 58.89 44.7901 58.09C43.8501 55.26 42.9001 52.42 41.9601 49.59C41.5401 48.33 41.0801 47.08 40.6101 45.85C39.9701 44.29 39.4501 42.67 39.3401 40.91C39.3001 40.36 39.3401 40.42 39.7101 40.76C39.8901 40.93 40.1801 41.16 40.5301 41.44C40.8601 41.72 41.1801 42.08 41.4601 42.49C41.6801 42.86 41.9801 43.21 42.1501 43.6L42.6801 44.77L43.7101 47.13C44.4101 48.7 44.8901 50.36 45.4101 52.02C46.0001 54.01 46.9401 55.96 47.7101 57.94C48.5301 60.13 49.3101 62.33 50.0901 64.54L51.5301 68.62C52.2701 70.67 52.9401 72.76 53.7101 74.79C54.2601 76.38 55.0901 77.84 55.5801 79.44C55.7001 79.79 55.8301 80.12 55.9301 80.48C56.3201 81.8 56.1101 82.32 55.7201 82.75C55.6201 82.85 55.5401 82.97 55.4401 83.04C55.1301 83.27 54.6101 82.84 54.0101 81.99C53.3001 80.67 52.4301 79.37 51.9301 77.92C51.3601 76.5 50.8201 75.04 50.2901 73.58C49.5001 71.4 48.7101 69.21 47.9201 67.02L47.9801 66.99L47.9901 67Z" fill="#231F20"/>
<path d="M38.1001 83.96C35.4001 83.87 32.7001 83.77 29.9902 83.72C29.0002 83.7 28.0202 83.77 27.0302 83.74C23.5502 83.66 20.0802 83.52 16.6002 83.5C15.0602 83.48 13.5101 83.56 11.9802 83.65C11.0002 83.71 10.0202 83.76 9.03015 83.79C8.05015 83.84 7.06015 83.78 6.07015 83.56C5.44015 83.26 5.52015 83.13 6.01015 82.57C6.26015 82.28 6.61015 82 7.05015 81.71C7.27015 81.57 7.50015 81.42 7.76015 81.32C8.01015 81.23 8.29015 81.17 8.57015 81.14C9.57015 81.04 10.5802 80.94 11.5802 80.88C12.5902 80.84 13.5902 80.83 14.6002 80.82C16.6202 80.81 18.6402 80.86 20.6802 80.98C23.1102 81.13 25.6302 80.95 28.1202 80.97C30.8502 80.99 33.5802 81.04 36.3102 81.1L41.3501 81.21C43.8901 81.25 46.4501 81.35 48.9701 81.33C50.9301 81.32 52.8601 81.13 54.8001 81.03C55.2301 81.01 55.6502 80.96 56.0802 80.95C56.8801 81.01 57.4002 81.1 57.7701 81.28C58.1401 81.49 58.3401 81.73 58.5101 82.04C58.5801 82.18 58.6801 82.32 58.7301 82.44C58.8001 82.65 58.6702 82.84 58.3801 83.06C58.0901 83.27 57.6301 83.54 57.0401 83.64C56.1702 83.87 55.2901 83.93 54.4101 84C53.5201 84.07 52.6301 84.11 51.7301 84.14C49.9301 84.2 48.1002 84.2 46.2701 84.18C43.5501 84.13 40.8201 84.09 38.1001 84.04V83.97V83.96Z" fill="#231F20"/>
<path d="M90.5098 32.22C90.4198 32.22 90.3398 32.21 90.2498 32.19C90.1698 32.19 90.1098 32.2 90.0298 32.2C89.9398 32.2 89.9098 32.22 89.8598 32.23C89.8298 32.23 89.8098 32.23 89.7698 32.24L89.6298 32.32C89.2598 32.52 88.9098 32.8 88.6598 33.14C88.4698 33.38 88.4098 33.67 88.3198 33.92C88.1698 34.37 88.1198 34.85 88.3398 35.36C88.5598 35.86 89.0098 36.35 89.5998 36.68C90.1198 36.97 90.7398 37.13 91.3298 37.18C91.7098 37.21 92.0798 37.15 92.4298 37.1C92.7898 37.05 93.1398 36.97 93.4898 36.76C93.7098 36.64 93.8498 36.72 93.8798 37.07C93.9298 37.41 93.7698 38.13 93.1698 38.58C90.9498 39.86 88.3298 39.13 86.8098 37.17C86.3798 36.57 85.9898 35.87 85.8198 35.09C85.6398 34.32 85.6998 33.49 85.9598 32.79C86.2398 32.01 86.7098 31.36 87.2598 30.82C87.5298 30.55 87.8398 30.32 88.1498 30.11C88.4698 29.91 88.9498 29.67 89.3298 29.6C90.3198 29.36 91.2498 29.46 92.1198 29.69C93.4198 30.07 94.6798 30.87 95.4098 32.21C95.5698 32.46 95.6698 32.73 95.7698 33.01C95.8898 33.29 95.9498 33.57 95.9898 33.87L96.0498 34.32L96.0298 34.75C96.0098 35.03 96.0098 35.35 95.9298 35.61C95.8698 35.84 95.8298 36.09 95.7498 36.32C95.3898 37.14 94.7898 37.09 94.1898 36.89C94.0498 36.84 93.9098 36.8 93.7898 36.75C93.5898 36.65 93.4498 36.49 93.3098 36.26C93.1698 36.03 92.9898 35.71 92.9898 35.47C92.9798 35.08 92.9398 34.81 92.9598 34.54C92.8898 34.3 92.8998 34.07 92.7998 33.94C92.7198 33.66 92.6698 33.49 92.4198 33.2C92.0698 32.77 91.2198 32.34 90.4998 32.3V32.23L90.5098 32.22Z" fill="#231F20"/>
<path d="M89.8802 81.14C92.5802 81.23 95.2802 81.31 97.9902 81.36C98.9802 81.38 99.9602 81.31 100.95 81.34C104.43 81.43 107.92 81.59 111.41 81.72C112.96 81.77 114.52 81.77 116.05 81.75C118.02 81.79 120.02 81.62 121.97 82.24C122.57 82.59 122.48 82.71 121.94 83.23C121.67 83.5 121.29 83.75 120.84 84.01C120.61 84.13 120.37 84.26 120.11 84.34C119.85 84.41 119.58 84.45 119.3 84.46C118.3 84.49 117.3 84.54 116.3 84.55L113.3 84.48C111.3 84.42 109.29 84.32 107.26 84.16C104.84 83.97 102.32 84.14 99.8402 84.12L91.6502 84.01L86.6002 83.9C84.0502 83.85 81.4902 83.73 78.9602 83.71C76.9902 83.69 75.0602 83.82 73.1002 83.84C72.6702 83.85 72.2502 83.88 71.8102 83.86C71.0102 83.76 70.4902 83.64 70.1302 83.45C69.7702 83.22 69.5802 82.97 69.4302 82.65C69.3602 82.51 69.2702 82.37 69.2402 82.24C69.1802 82.02 69.3202 81.84 69.6202 81.64C69.9202 81.44 70.4002 81.19 70.9802 81.12C71.8502 80.93 72.7302 80.91 73.6102 80.87C74.4902 80.83 75.3802 80.83 76.2802 80.82C78.0702 80.8 79.8902 80.85 81.7102 80.88C84.4202 80.94 87.1402 81 89.8602 81.05V81.12L89.8802 81.14Z" fill="#231F20"/>
<path d="M49.5299 117.3C49.3699 116.7 49.3999 116.06 49.5299 115.39C49.6299 115.06 49.7199 114.72 49.8499 114.4L50.2699 113.47C50.6799 112.69 51.1399 111.99 51.6199 111.32C52.5799 109.99 53.6299 108.77 54.7499 107.62C55.5699 106.78 56.3799 105.92 57.3099 105.18C58.9699 103.91 60.7899 102.69 63.1399 102.2C63.7199 102.09 64.3699 102.03 64.9899 102.09C65.2899 102.13 65.5999 102.15 65.8899 102.22L66.7499 102.45C67.8599 102.84 68.8099 103.43 69.6699 104.08C71.1599 105.26 72.4299 106.61 73.5499 108.01C74.8999 109.86 76.3599 111.71 76.6599 114.09C76.7399 114.83 76.6099 114.78 75.9599 114.46C75.2499 114.17 73.9999 113.65 73.2299 112.7C72.5999 111.82 71.9499 110.96 71.2699 110.17C70.5999 109.36 69.9499 108.55 69.2399 107.85C67.8299 106.44 66.2699 105.32 64.7199 105.16C63.8499 105.05 62.6799 105.51 61.6199 106.14C60.5299 106.76 59.5099 107.6 58.4999 108.45C57.3999 109.4 56.3499 110.44 55.3999 111.55C54.9199 112.1 54.4599 112.68 54.0399 113.26C53.8299 113.55 53.6199 113.85 53.4399 114.15C53.3499 114.3 53.2499 114.45 53.1699 114.6L52.9599 114.96C52.8499 115.17 52.7399 115.4 52.6899 115.65C52.6699 115.77 52.6499 115.91 52.7099 116.03C52.7599 116.16 52.8899 116.19 53.0199 116.23C53.2099 116.27 53.3899 116.31 53.6599 116.34L54.0399 116.38L54.6499 116.42C56.0499 116.52 57.4799 116.58 58.9099 116.64C60.3399 116.72 61.7699 116.79 63.1899 116.78C65.3999 116.78 67.5699 116.63 69.7899 116.62C70.2799 116.62 70.7599 116.58 71.2499 116.65C73.0799 116.77 73.6799 117.41 73.9599 117.92C74.0199 118.05 74.1099 118.17 74.1299 118.27C74.1699 118.44 73.9899 118.55 73.6499 118.67C73.3399 118.77 72.8099 118.98 72.1799 119.05C68.3699 119.45 64.2699 119.3 60.1299 119.47C58.7899 119.56 57.4399 119.54 56.0799 119.49C55.3999 119.47 54.7099 119.44 54.0199 119.41C53.8999 119.41 53.5199 119.37 53.2499 119.34L52.3699 119.25C52.0699 119.25 51.7899 119.16 51.5099 119.06L50.6599 118.8C50.1999 118.44 49.6899 117.95 49.4899 117.3L49.5599 117.26L49.5299 117.3Z" fill="#231F20"/>
<path d="M68.2001 28.39C66.8601 29.96 65.0201 30.37 63.4001 30.24C62.8001 30.15 62.1901 30.07 61.6301 29.79C61.1401 29.57 60.6601 29.24 60.2501 28.88L59.7001 28.32C59.5301 28.12 59.3901 27.88 59.2501 27.66C58.7201 26.73 58.4401 25.67 58.5101 24.65C58.5601 23.75 58.7901 22.88 59.2701 22.15C59.5501 21.67 59.9601 21.27 60.4101 20.95C60.8901 20.67 61.4101 20.46 61.9501 20.47C62.2901 20.47 62.2601 20.73 62.1001 21.08C61.9301 21.42 61.7301 21.9 61.5201 22.22C61.0701 22.74 60.9601 23.41 60.9201 23.97C60.9001 24.55 60.9801 25.1 61.2401 25.67C61.3101 25.84 61.4201 26.01 61.5601 26.15C61.6601 26.32 61.8501 26.45 62.0001 26.6C62.3001 26.84 62.6701 26.99 63.0801 27.13C63.3001 27.21 63.5301 27.26 63.7701 27.31C64.0001 27.38 64.2501 27.42 64.4901 27.44C64.9801 27.48 65.4801 27.42 65.9001 27.24C66.4001 26.97 66.7201 26.62 66.9001 25.92C67.1401 24.98 67.0401 23.86 66.3601 23C65.8501 22.33 65.0101 22 64.2401 21.84C64.0701 21.79 63.8901 21.81 63.7101 21.78C63.5501 21.75 63.4101 21.76 63.3001 21.73C63.1901 21.7 63.1001 21.65 63.0201 21.61C62.8701 21.52 62.7801 21.4 62.6901 21.21C62.6501 21.13 62.6001 21.04 62.5701 20.96C62.4801 20.71 62.7801 20.41 63.4201 20.31C64.3601 20.28 65.3301 20.58 66.1901 21.09C66.4001 21.22 66.6101 21.38 66.8101 21.53L67.0901 21.79C67.2001 21.86 67.3101 21.94 67.4101 22.03C67.8201 22.37 68.2001 22.78 68.4901 23.28C68.7001 23.64 68.9101 24.04 69.0001 24.47C69.1001 24.9 69.1201 25.34 69.1001 25.78C69.0801 26.22 69.0001 26.64 68.8901 27.06C68.7701 27.51 68.5301 28.01 68.2301 28.42L68.1801 28.38L68.2001 28.39Z" fill="#231F20"/>
</svg>
