<svg width="128" height="128" viewBox="0 0 128 128" fill="none" xmlns="http://www.w3.org/2000/svg">
<path d="M105.07 53.84C103.616 47.165 100.733 40.8843 96.6201 35.43C92.5585 29.9536 87.1879 25.5835 81.0001 22.72C78.7525 21.6915 76.4074 20.8909 74.0001 20.33C71.5835 19.7462 69.1211 19.3714 66.6401 19.21C57.7961 18.6556 48.9775 20.6364 41.2201 24.92C33.3396 29.0596 26.8659 35.4462 22.6201 43.27C19.1281 50.3577 17.3894 58.1804 17.5501 66.08C17.6623 71.0963 18.6016 76.0596 20.3301 80.77C22.0475 85.4521 24.5762 89.7951 27.8001 93.6C29.8001 95.94 29.0901 96.19 26.7301 94.65C26.0111 94.2008 25.3408 93.678 24.7301 93.09L23.6101 92L23.0101 91.39L22.4501 90.71C21.6007 89.7159 20.8317 88.6559 20.1501 87.54C19.7901 86.94 19.4301 86.32 19.0601 85.67C18.6901 85.02 18.4301 84.32 18.1201 83.61C17.0628 81.0916 16.2295 78.4848 15.6301 75.82C15.3801 74.48 15.1001 73.14 14.9401 71.82C14.7801 70.5 14.5901 69.12 14.5901 67.76C14.3629 62.3269 14.9665 56.8909 16.3801 51.64C17.1125 49.0294 18.035 46.4759 19.1401 44C20.2646 41.4996 21.6524 39.1262 23.2801 36.92C26.5022 32.5052 30.468 28.6848 35.0001 25.63C40.4385 21.8915 46.5153 19.1801 52.9301 17.63C59.436 16.0817 66.1985 15.9487 72.7601 17.24C79.9653 18.6581 86.6741 21.9367 92.2201 26.75C97.7301 31.5376 102.059 37.5335 104.87 44.27C106.62 48.373 107.83 52.6856 108.47 57.1C110.071 68.2975 107.715 79.7026 101.81 89.35C98.3127 95.122 93.6001 100.063 88.0001 103.83C79.3401 109.68 68.8501 112.02 58.6101 111.57C57.4701 111.51 56.3601 111.42 55.2301 111.34C54.1001 111.26 53.0001 111.09 51.8701 110.9C48.9091 110.456 46.0008 109.712 43.1901 108.68C42.4448 108.389 41.7169 108.055 41.0101 107.68C40.5323 107.395 40.0864 107.06 39.6801 106.68C39.3448 106.411 39.0337 106.113 38.7501 105.79C38.4801 105.39 39.1901 105.37 40.6501 105.69L47.2801 107.27C55.8901 109.15 65.1501 109.54 73.9001 107.18C82.7579 104.874 90.6157 99.7277 96.2701 92.53C100.485 87.1393 103.466 80.8888 105 74.22C106.525 67.5224 106.525 60.5676 105 53.87L105.07 53.84Z" fill="#221F1F"/>
<path d="M41.2199 94.8101C37.4899 98.5501 33.7299 102.28 29.8199 105.88C28.3899 107.2 26.9899 108.54 25.4899 109.79C22.8666 112.095 19.9997 114.107 16.9399 115.79C15.3094 116.712 13.4727 117.207 11.5999 117.23C10.5849 117.228 9.58821 116.959 8.70991 116.45C8.25059 116.166 7.85231 115.793 7.53817 115.354C7.22402 114.914 7.00028 114.417 6.87991 113.89C6.58267 112.253 6.6856 110.569 7.17991 108.98C7.59601 107.483 8.13104 106.022 8.77991 104.61C10.3319 100.974 12.5271 97.6472 15.2599 94.7901C16.1999 93.9401 16.4699 94.5401 16.2599 95.6601C15.8511 97.3161 15.1464 98.8846 14.1799 100.29C13.1371 101.864 12.1919 103.5 11.3499 105.19C10.4992 106.819 9.82857 108.536 9.34991 110.31C8.93991 112 8.96991 113.75 9.75991 114.31C10.3128 114.717 10.9837 114.931 11.6699 114.92C12.4987 114.956 13.3269 114.834 14.1099 114.56C16.2548 113.756 18.2594 112.619 20.0499 111.19C21.9599 109.78 23.7899 108.19 25.5899 106.62C29.5299 103.13 33.3199 99.4101 37.0799 95.6201L43.9799 88.6201C47.4599 85.0801 50.9799 81.5601 54.5599 78.1401C57.2588 75.4161 60.1351 72.8739 63.1699 70.5301C63.8646 70.0143 64.5892 69.5401 65.3399 69.1101C68.2499 67.5101 69.8999 67.8301 70.4599 68.5801C70.6025 68.738 70.7145 68.9211 70.7899 69.1201C70.7899 69.4001 70.5399 69.5201 70.0899 69.6401C69.3842 69.8216 68.6951 70.0625 68.0299 70.3601C66.6023 71.0563 65.2601 71.9154 64.0299 72.9201C62.6999 73.9201 61.4099 75.0401 60.1199 76.2001C57.5299 78.5201 54.9999 81.0001 52.4699 83.4901C48.7299 87.2201 44.9999 91.0001 41.2699 94.8501L41.2199 94.8101Z" fill="#221F1F"/>
<path d="M66.4497 58.67L66.8797 59.18L67.2298 59.55L67.7098 60.03C67.7233 60.3645 67.7032 60.6995 67.6498 61.03C67.5898 61.19 67.5197 61.36 67.4497 61.52L67.1498 61.97C66.8637 62.3248 66.5529 62.659 66.2198 62.97C66.1322 63.0383 66.0518 63.1154 65.9798 63.2C65.9198 63.2 65.9798 63.31 65.9798 63.33C66.0353 63.3683 66.1025 63.386 66.1697 63.38C66.3157 63.4 66.4638 63.4 66.6098 63.38C66.7679 63.3742 66.9252 63.3541 67.0798 63.32C67.7675 63.1888 68.4384 62.9808 69.0798 62.7C70.4093 62.096 71.687 61.3835 72.8998 60.57C74.4098 59.57 75.8997 58.44 77.2697 57.3C79.7897 55.3 82.1998 53.13 84.5298 50.88C86.8767 48.6724 89.0405 46.2779 90.9998 43.72C91.4218 43.2639 91.6918 42.6879 91.7724 42.0717C91.8531 41.4554 91.7403 40.8294 91.4497 40.28C90.9797 39.28 89.4498 39.73 88.2798 40.28C86.6802 41.1038 85.169 42.0889 83.7697 43.22C82.3297 44.33 80.9298 45.5 79.5298 46.67C77.8098 48.17 78.7498 44.96 82.1598 42.24C83.6686 41.0115 85.289 39.9268 86.9998 39C87.9613 38.4671 89.0178 38.1274 90.1098 38C90.8305 37.9626 91.5406 38.1863 92.1098 38.63C92.6249 39.08 92.9968 39.671 93.1798 40.33C93.337 40.9181 93.3747 41.5318 93.2905 42.1347C93.2064 42.7376 93.0021 43.3175 92.6898 43.84C92.2001 44.7146 91.6346 45.5444 90.9998 46.32C89.6998 47.79 88.3698 49.16 86.9998 50.5C83.7069 53.8071 80.2208 56.9159 76.5597 59.81C74.8869 61.108 73.1185 62.278 71.2697 63.31C70.3177 63.8438 69.3122 64.2762 68.2697 64.6C67.7236 64.7698 67.16 64.8771 66.5897 64.92C66.4371 64.9399 66.2824 64.9399 66.1297 64.92C65.9383 64.9178 65.7475 64.8977 65.5597 64.86C65.1888 64.7507 64.8303 64.6032 64.4897 64.42C64.2184 64.2505 64.0244 63.9811 63.9498 63.67C63.9324 63.3508 64.028 63.0357 64.2198 62.78C64.4198 62.495 64.6513 62.2334 64.9098 62L65.4398 61.49C65.6399 61.3427 65.8272 61.1788 65.9998 61C66.0698 60.89 66.1698 60.72 66.0698 60.61L65.8198 60.34L65.3797 59.83C65.0875 59.4792 64.8202 59.1082 64.5798 58.72C64.3018 58.2943 64.0989 57.8242 63.9798 57.33C63.9022 57.0271 63.9087 56.7087 63.9985 56.4091C64.0884 56.1096 64.2582 55.8402 64.4897 55.63C64.7594 55.5291 65.0424 55.4684 65.3298 55.45C65.5694 55.4305 65.8102 55.4305 66.0498 55.45C66.4733 55.4758 66.8945 55.5326 67.3097 55.62C67.6197 55.69 67.9198 55.77 68.2298 55.86L68.6297 55.98L68.8598 56.07C68.9398 56.13 68.9798 56 69.0398 55.97L69.2498 55.77L69.8898 55.13L71.9598 53.13L70.9598 52.64L69.3998 51.81C68.3692 51.2443 67.3679 50.6268 66.3998 49.96C65.7849 49.5325 65.2152 49.0433 64.6997 48.5C64.394 48.2215 64.1519 47.8804 63.9898 47.5C63.9037 47.273 63.8825 47.0265 63.9284 46.7882C63.9743 46.5498 64.0856 46.3288 64.2498 46.15C64.7073 45.6753 65.2628 45.3059 65.8776 45.0676C66.4924 44.8293 67.1517 44.7277 67.8097 44.77C68.9745 44.7826 70.137 44.8728 71.2898 45.04C72.0898 45.14 72.8698 45.24 73.6698 45.36C76.6698 45.81 77.5298 46.04 78.0998 46.56C78.2351 46.6669 78.3621 46.7839 78.4798 46.91C78.7198 47.28 77.4798 47.38 75.2898 47.14C73.4898 46.94 71.6697 46.68 69.8797 46.49C69.0169 46.3899 68.1471 46.3632 67.2798 46.41C66.9168 46.4327 66.5594 46.5102 66.2198 46.64C66.0748 46.7008 65.9372 46.7779 65.8097 46.87L65.6198 47.01L65.5398 47.1L65.6498 47.24C65.7416 47.354 65.8419 47.461 65.9497 47.56C66.4595 48.029 67.0081 48.4539 67.5897 48.83C68.8417 49.6191 70.1334 50.3434 71.4598 51L72.7998 51.67L74.6297 52.53L69.9998 57.19L69.5798 57.61C69.4298 57.74 69.3098 57.96 69.1098 57.81L67.9998 57.43C67.6714 57.3197 67.3376 57.2263 66.9998 57.15C66.6709 57.0737 66.3365 57.0236 65.9998 57H65.6098C65.6098 57 65.6098 57.16 65.7098 57.26C65.9435 57.7354 66.2321 58.1818 66.5698 58.59L66.4497 58.67Z" fill="#221F1F"/>
<path d="M84.2999 62.51C84.4711 61.8991 84.5816 61.2727 84.6299 60.64C84.6999 59.97 84.7299 59.28 84.7499 58.64C84.7499 58.14 84.7499 57.64 84.7499 57.13C84.7499 56.26 84.7499 55.3 84.6699 54.52C84.6834 54.3303 84.6834 54.1398 84.6699 53.95C84.6596 53.8385 84.6395 53.7281 84.6099 53.62C84.6099 53.62 84.5499 53.5 84.4999 53.51C84.4648 53.5384 84.4345 53.5722 84.4099 53.61C84.3099 53.74 84.2099 53.91 84.0999 54.07C84.047 54.1646 83.9868 54.2548 83.9199 54.34C83.7877 54.516 83.6441 54.683 83.4899 54.84C83.2963 55.0541 83.0819 55.2484 82.8499 55.42C82.6484 55.5878 82.4381 55.7447 82.2199 55.89C81.7908 56.2015 81.3237 56.4569 80.8299 56.65C80.6899 56.65 80.5099 56.65 80.5399 56.48C80.5008 56.4596 80.4691 56.4273 80.4493 56.3878C80.4296 56.3483 80.4228 56.3036 80.4299 56.26C80.4152 56.1539 80.4152 56.0462 80.4299 55.94C80.4502 55.682 80.526 55.4315 80.652 55.2054C80.7779 54.9793 80.9512 54.7831 81.1599 54.63C81.5473 54.3765 81.9212 54.1028 82.2799 53.81C82.438 53.6713 82.5821 53.5172 82.7099 53.35C82.9999 53 83.2999 52.5 83.5799 52.08C83.694 51.8692 83.8352 51.6742 83.9999 51.5C84.116 51.4339 84.2405 51.3834 84.3699 51.35C84.5899 51.35 84.7499 51.12 85.0799 51.35C85.2122 51.4036 85.3316 51.4848 85.4299 51.5883C85.5282 51.6918 85.6032 51.8151 85.6499 51.95C85.7975 52.3532 85.8949 52.773 85.9399 53.2C86.0899 54.49 86.0799 54.9 86.1399 55.61C86.1999 56.32 86.2299 56.92 86.2299 57.61C86.2445 59.0786 86.1476 60.5461 85.9399 62C85.8733 62.4908 85.7352 62.9693 85.5299 63.42C85.4171 63.7174 85.2155 63.9728 84.9525 64.1517C84.6895 64.3306 84.3779 64.4243 84.0599 64.42C83.6229 64.3501 83.218 64.1476 82.8999 63.84C82.6329 63.5959 82.3886 63.3282 82.1699 63.04C81.7647 62.4853 81.3972 61.904 81.0699 61.3C80.5402 60.3968 80.0885 59.4501 79.7199 58.47C79.6334 58.2454 79.5632 58.0148 79.5099 57.78C79.2999 56.89 79.5699 56.31 80.0599 56.3C80.1613 56.2945 80.2621 56.3189 80.3499 56.37C80.5499 56.66 80.7299 56.65 80.8299 57.1C81.3418 58.7025 82.072 60.2268 82.9999 61.63C83.1671 61.882 83.3508 62.1225 83.5499 62.35C83.6957 62.5114 83.8565 62.6587 84.0299 62.79C84.0299 62.79 84.1199 62.7 84.1899 62.48L84.2999 62.51Z" fill="#221F1F"/>
<path d="M68.9199 62.3599C68.7122 62.6164 68.4659 62.839 68.1899 63.0199C68.0035 63.1351 67.8014 63.2227 67.5899 63.2799C67.1779 63.3798 66.7526 63.4136 66.3299 63.3799C66.0499 63.3799 65.6599 62.9699 65.8299 62.6799L66.6899 61.3199L66.7599 61.2299V61.15C66.8076 61.0793 66.851 61.0058 66.8899 60.9299C66.9191 60.8873 66.9372 60.838 66.9425 60.7866C66.9478 60.7353 66.9401 60.6833 66.9203 60.6356C66.9004 60.588 66.8689 60.546 66.8287 60.5135C66.7885 60.4811 66.7408 60.4593 66.6899 60.4499C66.6899 60.4499 66.6299 60.4499 66.5999 60.4H66.5499L66.3599 60.2699C66.0999 60.0899 65.8299 59.9099 65.5499 59.6999C65.3848 59.5806 65.2278 59.4503 65.0799 59.3099C64.9763 59.2133 64.8794 59.1098 64.7899 58.9999C64.7193 58.9153 64.6557 58.825 64.5999 58.7299C64.5534 58.671 64.5132 58.6073 64.4799 58.5399C64.4799 58.4199 64.3799 58.2999 64.3399 58.1799V57.9999C64.3242 57.8504 64.3242 57.6995 64.3399 57.5499C64.3494 57.1973 64.4492 56.8529 64.6299 56.5499C64.8342 56.2066 65.1327 55.9289 65.4899 55.7499C65.6449 55.6693 65.8096 55.6088 65.9799 55.5699H66.2099H66.3099C66.4894 55.5501 66.6705 55.5501 66.8499 55.5699C66.9786 55.5861 67.1057 55.6129 67.2299 55.65C67.3675 55.6658 67.5003 55.7101 67.6199 55.7799C67.9864 55.9699 68.3719 56.1207 68.7699 56.2299L69.0299 56.2999H69.0999L69.8399 55.5999C70.3799 55.0599 70.9099 54.4899 71.3999 53.9099L72.0899 53.0499L71.7799 52.9099L71.2699 52.6999L70.7699 52.4999L70.2299 52.2499L69.3099 51.7899C68.6233 51.4461 67.9557 51.0655 67.3099 50.65C66.8094 50.3258 66.3667 49.9202 65.9999 49.4499C65.8741 49.2921 65.7605 49.125 65.6599 48.9499C65.606 48.8639 65.5592 48.7736 65.5199 48.6799C65.4662 48.5605 65.4227 48.4367 65.3899 48.3099C65.3347 48.1454 65.3043 47.9735 65.2999 47.7999C65.2799 47.6005 65.2799 47.3994 65.2999 47.1999C65.3615 46.8632 65.4907 46.5425 65.6797 46.2572C65.8688 45.9718 66.1138 45.7278 66.3999 45.5399C66.6438 45.3788 66.91 45.2541 67.1899 45.1699C67.6838 45.0278 68.1961 44.9604 68.7099 44.9699C69.1099 44.9699 69.4699 44.9699 69.8199 45.0299C70.5199 45.0899 71.1899 45.1699 71.8199 45.2499C72.2506 45.3398 72.6929 45.36 73.1299 45.3099C74.8992 45.3826 76.659 45.6068 78.3899 45.9799H78.4399C78.5485 45.9503 78.6527 45.9066 78.7499 45.8499C78.9671 45.7245 79.1774 45.5877 79.3799 45.4399C79.7099 45.2199 80.1899 44.8199 80.6199 44.4399L81.9699 43.3799C82.8909 42.6635 83.8489 41.9959 84.8399 41.3799C85.1084 41.1634 85.4179 41.0035 85.7499 40.9099C86.5357 40.7574 87.2942 40.4877 87.9999 40.1099C89.0427 39.6154 90.2038 39.4248 91.3499 39.5599C91.9645 39.6755 92.5216 39.9964 92.9299 40.4699C93.2999 40.8399 92.7599 41.09 92.6199 41.08C92.1699 41.02 92.3699 41.4 92.2799 41.58C92.2515 41.6477 92.2146 41.7116 92.1699 41.7699C92.1074 41.7845 92.0424 41.7845 91.9799 41.7699H91.7999H91.5499C91.0833 41.8077 90.63 41.9441 90.2199 42.1699C89.4296 42.6479 88.6774 43.1862 87.9699 43.7799C87.9699 43.7799 87.5599 44.0799 86.9699 44.5199C86.3799 44.9599 85.6699 45.5999 84.9699 46.2899C84.2699 46.9799 83.4999 47.7299 82.8799 48.3699C82.3499 48.9153 81.7595 49.3984 81.1199 49.8099C80.4267 50.2296 79.6302 50.4478 78.8199 50.4399C78.4485 50.4673 78.075 50.4437 77.7099 50.3699C77.3399 50.3099 75.9199 50.0999 74.5199 49.9499C73.1199 49.7999 71.7999 49.6899 71.6899 49.6899C71.0699 49.6899 70.4499 49.6899 69.8699 49.6899H68.9999C68.8969 49.7013 68.793 49.7013 68.6899 49.6899H68.5999C68.5999 49.6899 68.5999 49.7499 68.5999 49.5899C68.562 49.3731 68.5085 49.1592 68.4399 48.9499C68.4399 48.7999 68.3499 48.6599 68.3099 48.5199C68.2664 48.3926 68.2129 48.2689 68.1499 48.15C68.1177 48.0542 68.0667 47.9658 67.9999 47.8899C67.9299 47.8099 67.9399 47.78 67.8799 47.74C67.7999 47.74 67.8199 47.7 67.8799 47.74C67.947 47.7344 68.0119 47.7139 68.0699 47.6799L68.5899 47.3899L68.6799 47.3399C68.9719 47.1411 69.2374 46.9059 69.4699 46.6399C69.4699 46.6399 69.4699 46.6399 69.5599 46.6399L69.9999 46.8899C70.3699 47.0799 70.8299 47.28 71.3499 47.49L72.2199 47.8899L72.9299 48.2299L73.7599 48.65L74.2399 48.9C74.4799 49.03 74.6899 49.1699 74.9199 49.3099C75.7772 49.8222 76.4709 50.568 76.9199 51.4599C77.1105 51.908 77.1961 52.3937 77.1699 52.8799C77.1679 53.12 77.1204 53.3576 77.0299 53.58C76.9627 53.8197 76.8688 54.0511 76.7499 54.2699C76.5804 54.6043 76.3612 54.9111 76.0999 55.1799C75.9506 55.3692 75.7903 55.5495 75.6199 55.7199L75.2199 56.15C74.2254 57.1551 73.1483 58.075 71.9999 58.9L71.5299 59.2299C71.4699 59.2899 71.3099 59.3599 71.1899 59.4499L70.8099 59.6899C70.5473 59.8115 70.2767 59.9151 69.9999 59.9999C69.7087 60.0499 69.4111 60.0499 69.1199 59.9999C67.7299 59.7799 67.2599 59.4499 66.5699 59.3599H66.3499C66.3499 59.3599 66.2699 59.3599 66.2399 59.3599L66.3099 59.08C66.473 58.5978 66.5343 58.087 66.4899 57.58C66.5229 57.5873 66.557 57.5873 66.5899 57.58L66.9399 57.4C67.1084 57.2953 67.2688 57.1784 67.4199 57.0499L67.7199 56.8099C67.7999 56.7299 67.9399 56.5899 67.8999 56.6399L67.9999 56.7599C68.1699 56.9399 68.4399 57.1699 68.7099 57.4099L68.9299 57.6099C69.0373 57.7023 69.1376 57.8026 69.2299 57.9099C69.4399 58.0999 69.5999 58.2999 69.7599 58.4699C69.9082 58.6751 70.0387 58.8926 70.1499 59.1199C70.2335 59.2667 70.3038 59.4207 70.3599 59.58C70.4087 59.854 70.402 60.135 70.3401 60.4065C70.2783 60.6779 70.1626 60.9341 69.9999 61.1599C69.6874 61.6003 69.325 62.0029 68.9199 62.3599Z" fill="#221F1F"/>
<path d="M44.2597 15.62C45.1751 14.6227 46.2973 13.8374 47.5479 13.3192C48.7985 12.801 50.1473 12.5624 51.4997 12.62C52.6397 12.68 54.0397 11 52.3697 10.92C50.4891 10.8115 48.6074 11.1131 46.8548 11.8037C45.1023 12.4944 43.5207 13.5577 42.2197 14.92C41.1397 15.99 43.5197 16.31 44.2197 15.58L44.2597 15.62Z" fill="#221F1F"/>
<path d="M111.67 47.16C112.877 48.2203 113.747 49.6121 114.17 51.1624C114.593 52.7127 114.551 54.3532 114.05 55.88C113.64 56.97 115.67 56.95 115.98 56.11C116.59 54.4105 116.682 52.5682 116.244 50.8164C115.806 49.0647 114.858 47.4824 113.52 46.27C112.86 45.64 110.95 46.48 111.67 47.16Z" fill="#221F1F"/>
<path d="M116.62 43.57C117.534 44.1041 118.28 44.8838 118.773 45.8207C119.267 46.7576 119.487 47.8141 119.41 48.87C119.41 49.76 121.41 49.38 121.41 48.64C121.503 47.4217 121.25 46.202 120.68 45.1211C120.111 44.0402 119.247 43.1421 118.19 42.53C117.58 42.14 115.73 43 116.58 43.53L116.62 43.57Z" fill="#221F1F"/>
<path d="M41.4399 40.62C41.6399 43.29 36.5499 43.46 37.0099 40.32C37.3199 38.12 40.7299 37.98 41.3499 40.14C41.3974 40.2962 41.4275 40.4572 41.4399 40.62Z" fill="#221F1F"/>
<path d="M31.3801 50.19C31.5001 51.78 28.4501 51.89 28.7201 50C28.7879 49.7127 28.9481 49.4556 29.176 49.268C29.4039 49.0804 29.687 48.9727 29.982 48.9613C30.277 48.95 30.5676 49.0356 30.8093 49.2052C31.0509 49.3747 31.2303 49.6188 31.3201 49.9C31.3496 49.9945 31.3697 50.0916 31.3801 50.19Z" fill="#221F1F"/>
<path d="M80.7797 98.6799C80.8997 100.28 77.8397 100.38 78.1197 98.4899C78.1875 98.2026 78.3477 97.9455 78.5756 97.7579C78.8035 97.5703 79.0867 97.4625 79.3817 97.4512C79.6766 97.4398 79.9672 97.5255 80.2089 97.695C80.4505 97.8646 80.63 98.1087 80.7197 98.3899C80.7482 98.4846 80.7683 98.5817 80.7797 98.6799Z" fill="#221F1F"/>
</svg>
