<svg width="128" height="128" viewBox="0 0 128 128" fill="none" xmlns="http://www.w3.org/2000/svg">
<path d="M35.1598 60.19C35.8098 55.69 37.5798 51.4 40.1198 47.71C41.0398 46.36 42.0198 45.04 43.1498 43.86C45.1398 41.77 47.3898 39.96 49.8598 38.51C52.3198 37.04 54.9798 35.91 57.7598 35.23C60.2198 34.61 62.7798 34.32 65.3098 34.42C66.9298 34.46 68.5598 34.71 70.1198 35.2C70.5098 35.31 70.8998 35.43 71.2798 35.59C71.6498 35.76 72.0498 35.85 72.3998 36.08L73.4398 36.72C73.7898 36.93 74.0798 37.23 74.3998 37.48C75.1598 38.15 75.0298 38.08 74.1698 37.95C73.7398 37.88 73.1098 37.85 72.3798 37.81C72.0098 37.78 71.6298 37.76 71.2398 37.73C70.8498 37.67 70.4598 37.57 70.0498 37.47C67.1398 36.81 64.1598 36.62 61.1898 37.03C59.6998 37.21 58.2398 37.59 56.7898 38.02C55.3298 38.45 53.9098 39.01 52.5198 39.68C49.1798 41.27 46.1898 43.87 43.7798 46.79C41.1098 49.99 39.0898 53.77 38.0698 57.84C37.4398 60.34 37.1998 62.94 37.2898 65.53L37.3798 67C37.4098 67.49 37.5098 67.97 37.5698 68.46C37.6798 69.44 37.9398 70.39 38.1598 71.35C38.7198 73.23 39.3398 75.11 40.2898 76.82C41.6998 79.52 43.6398 81.83 45.8398 83.84L46.5698 84.5C46.8198 84.7 47.0798 84.91 47.3398 85.11C47.5798 85.31 47.7998 85.48 47.9898 85.65C48.1998 85.8 48.3898 85.93 48.5698 86.06C48.9098 86.32 49.1898 86.53 49.4198 86.7C49.8898 87.02 50.1498 87.26 50.3298 87.51C50.4098 87.62 50.5398 87.75 50.5798 87.83C50.6498 87.97 50.4398 87.97 49.9798 87.85C49.5198 87.73 48.7898 87.52 47.9398 87.08C45.3698 85.84 42.9298 84.01 40.9898 81.7C39.0598 79.37 37.4998 76.68 36.4298 73.78C35.6298 71.62 35.2198 69.34 34.9698 67.06C34.7398 64.77 34.8398 62.46 35.1098 60.19H35.1698H35.1598Z" fill="#231F20"/>
<path d="M96.81 53.75C96.81 53.75 96.82 53.75 96.83 53.73C96.85 53.67 96.88 53.64 96.92 53.63C97.94 53.42 98.88 53 99.83 52.6L102.64 51.33C103.57 50.89 104.53 50.52 105.43 50.02C106.34 49.55 107.24 49.04 108.08 48.42C108.11 48.39 108.14 48.37 108.18 48.37C108.18 48.37 108.19 48.37 108.2 48.36C108.24 48.25 108.16 47.9 108.03 47.62C107.9 47.34 107.7 47.04 107.59 47H107.57C107.54 47.02 107.5 47.04 107.46 47.03C107.27 47.01 107.12 47.09 106.96 47.12C106.48 47.24 105.99 47.34 105.52 47.48L104.12 47.93C103.2 48.26 102.3 48.64 101.39 48.99L98.66 50.06C97.77 50.45 96.86 50.81 96.03 51.38C96 51.4 95.96 51.4 95.91 51.38C95.9 51.38 95.89 51.38 95.88 51.38C95.81 51.43 95.96 51.99 96.22 52.63C96.48 53.27 96.75 53.77 96.83 53.76L96.81 53.75Z" fill="#242021"/>
<path d="M86.8802 38.3699C86.8802 38.3699 86.8802 38.3599 86.8802 38.3499C86.8802 38.2899 86.8802 38.25 86.9202 38.22C87.7602 37.6 88.4302 36.82 89.1202 36.06L91.1302 33.72C91.7902 32.93 92.5002 32.19 93.1102 31.36C93.7402 30.55 94.3402 29.71 94.8402 28.79C94.8502 28.75 94.8702 28.72 94.9102 28.7C94.9102 28.7 94.9202 28.69 94.9202 28.68C94.9202 28.56 94.6902 28.28 94.4502 28.08C94.2202 27.88 93.9102 27.7 93.7902 27.7C93.7902 27.7 93.7802 27.6999 93.7702 27.7099C93.7502 27.7499 93.7202 27.77 93.6802 27.79C93.5002 27.85 93.4002 27.99 93.2602 28.08C92.8802 28.39 92.4702 28.69 92.1102 29.02L91.0302 30.02C90.3302 30.71 89.6802 31.43 89.0002 32.13L86.9802 34.25C86.3302 34.98 85.6602 35.6899 85.1602 36.5499C85.1402 36.5799 85.1002 36.6 85.0502 36.59C85.0402 36.59 85.0302 36.59 85.0302 36.59C84.9902 36.66 85.3702 37.11 85.8602 37.58C86.3602 38.05 86.8202 38.3999 86.8902 38.3499L86.8802 38.3699Z" fill="#242021"/>
<path d="M93.5699 82.63C93.5699 82.63 93.5799 82.63 93.5899 82.63C93.6499 82.61 93.6899 82.61 93.7199 82.63C94.5299 83.28 95.4599 83.72 96.3699 84.2L99.1499 85.54C100.08 85.97 100.98 86.47 101.94 86.84C102.89 87.24 103.85 87.6 104.87 87.85C104.91 87.85 104.95 87.87 104.97 87.89C104.97 87.89 104.98 87.89 104.99 87.89C105.1 87.85 105.31 87.56 105.45 87.29C105.58 87.01 105.68 86.66 105.64 86.55C105.64 86.55 105.63 86.54 105.62 86.54C105.58 86.54 105.55 86.51 105.52 86.47C105.41 86.31 105.26 86.25 105.13 86.14C104.73 85.85 104.34 85.53 103.93 85.27L102.68 84.48C101.84 83.98 100.97 83.54 100.11 83.06L97.5399 81.66C96.6699 81.23 95.8099 80.76 94.8399 80.49C94.7999 80.48 94.7799 80.45 94.7699 80.39C94.7699 80.38 94.7699 80.37 94.7499 80.37C94.6699 80.35 94.3399 80.83 94.0099 81.43C93.6899 82.03 93.4699 82.57 93.5299 82.62L93.5699 82.63Z" fill="#242021"/>
<path d="M83.1699 93.62C83.1699 93.62 83.1799 93.63 83.1899 93.63C83.2499 93.63 83.2899 93.65 83.3099 93.69C83.7999 94.61 84.4699 95.39 85.1199 96.19L87.1399 98.52C87.8299 99.29 88.4499 100.1 89.1899 100.83C89.8999 101.57 90.6399 102.29 91.4799 102.92C91.5199 102.94 91.5399 102.96 91.5599 103C91.5599 103 91.5599 103.01 91.5799 103.02C91.6999 103.02 92.0099 102.85 92.2399 102.65C92.4699 102.45 92.6999 102.17 92.7099 102.05C92.7099 102.05 92.7099 102.03 92.6999 102.03C92.6699 102.01 92.6399 101.97 92.6399 101.93C92.6099 101.74 92.4899 101.63 92.4099 101.47C92.1599 101.04 91.9199 100.6 91.6499 100.19L90.8199 98.97C90.2399 98.18 89.6299 97.42 89.0299 96.65L87.2299 94.34C86.5999 93.59 85.9999 92.83 85.2199 92.2C85.1899 92.18 85.1799 92.14 85.1899 92.08C85.1899 92.07 85.1899 92.06 85.1899 92.05C85.1199 92 84.6299 92.3 84.0899 92.73C83.5499 93.16 83.1399 93.56 83.1799 93.64L83.1699 93.62Z" fill="#242021"/>
<path d="M44.1698 93.4C44.1698 93.4 44.1698 93.41 44.1698 93.42C44.1798 93.48 44.1698 93.52 44.1498 93.55C43.3798 94.25 42.8098 95.09 42.1998 95.91L40.4698 98.43C39.9098 99.28 39.2798 100.08 38.7698 100.97C38.2298 101.84 37.7298 102.73 37.3298 103.71C37.3298 103.75 37.2998 103.78 37.2698 103.81C37.2698 103.81 37.2598 103.82 37.2598 103.83C37.2798 103.95 37.5198 104.22 37.7698 104.4C38.0098 104.59 38.3398 104.75 38.4498 104.73C38.4498 104.73 38.4598 104.73 38.4698 104.71C38.4798 104.67 38.5098 104.64 38.5498 104.62C38.7198 104.54 38.7998 104.39 38.9398 104.29C39.2898 103.94 39.6598 103.6 39.9898 103.23L40.9598 102.11C41.5798 101.35 42.1598 100.55 42.7698 99.77L44.5698 97.42C45.1398 96.61 45.7398 95.83 46.1498 94.92C46.1698 94.89 46.1998 94.87 46.2598 94.86C46.2698 94.86 46.2798 94.86 46.2798 94.85C46.3098 94.77 45.8798 94.39 45.3198 94C44.7598 93.61 44.2498 93.34 44.1798 93.39L44.1698 93.4Z" fill="#242021"/>
<path d="M34.7 81.6799C34.7 81.6799 34.69 81.6799 34.68 81.6999C34.66 81.7599 34.63 81.79 34.59 81.8C33.57 82.01 32.64 82.4299 31.7 82.8199L28.92 84.08C28 84.52 27.05 84.8899 26.15 85.3799C25.24 85.8499 24.35 86.35 23.5 86.98C23.47 87.01 23.44 87.0299 23.4 87.0299C23.4 87.0299 23.39 87.0299 23.38 87.0399C23.34 87.15 23.41 87.5099 23.52 87.7899C23.63 88.0799 23.83 88.3799 23.93 88.4299H23.95C23.98 88.4099 24.02 88.39 24.06 88.4C24.25 88.42 24.39 88.3399 24.56 88.3099C25.04 88.1899 25.53 88.0899 26 87.9499L27.41 87.4899C28.34 87.1599 29.25 86.7799 30.17 86.4199L32.92 85.3399C33.82 84.9399 34.74 84.58 35.56 84.01C35.59 83.99 35.63 83.99 35.69 84.01C35.7 84.01 35.71 84.01 35.72 84.01C35.79 83.96 35.61 83.4099 35.33 82.7799C35.05 82.1599 34.75 81.6599 34.67 81.6699L34.7 81.6799Z" fill="#242021"/>
<path d="M32.3201 50.66C32.3201 50.66 32.3101 50.66 32.3001 50.66C32.2501 50.69 32.2001 50.69 32.1701 50.66C31.3101 50.07 30.3601 49.7 29.4301 49.3L26.5901 48.18C25.6401 47.82 24.7101 47.4 23.7301 47.1C22.7601 46.77 21.7801 46.48 20.7401 46.32C20.7001 46.32 20.6601 46.32 20.6301 46.29C20.6301 46.29 20.6201 46.29 20.6101 46.29C20.5001 46.34 20.2901 46.63 20.1701 46.91C20.0401 47.19 19.9601 47.54 20.0001 47.65C20.0001 47.65 20.0101 47.66 20.0201 47.66C20.0601 47.66 20.1001 47.68 20.1201 47.72C20.2301 47.87 20.4001 47.92 20.5301 48.02C20.9501 48.28 21.3601 48.57 21.8001 48.8L23.1101 49.49C23.9901 49.93 24.9001 50.31 25.8001 50.72L28.4901 51.94C29.4001 52.31 30.3001 52.72 31.2801 52.91C31.3201 52.91 31.3401 52.95 31.3601 53.01C31.3601 53.02 31.3601 53.03 31.3801 53.03C31.4601 53.04 31.7401 52.53 31.9901 51.9C32.2401 51.27 32.3901 50.7 32.3301 50.65L32.3201 50.66Z" fill="#242021"/>
<path d="M44.1498 36.34C44.1498 36.34 44.1398 36.34 44.1298 36.34C44.0698 36.34 44.0298 36.33 44.0098 36.29C43.4598 35.4 42.7398 34.69 42.0498 33.94L39.8998 31.77C39.1698 31.06 38.4898 30.3 37.7198 29.63C36.9698 28.94 36.1798 28.28 35.2998 27.71C35.2598 27.7 35.2298 27.67 35.2198 27.64C35.2198 27.64 35.2198 27.63 35.1998 27.62C35.0798 27.62 34.7698 27.81 34.5398 28.01C34.3098 28.22 34.0898 28.5 34.0898 28.62C34.0898 28.62 34.0898 28.63 34.0998 28.64C34.1298 28.66 34.1598 28.69 34.1698 28.74C34.2098 28.92 34.3398 29.03 34.4298 29.18C34.7098 29.59 34.9698 30.02 35.2698 30.41L36.1898 31.57C36.8198 32.33 37.4998 33.04 38.1498 33.78L40.1198 35.98C40.8098 36.69 41.4698 37.42 42.2898 38C42.3198 38.02 42.3298 38.06 42.3298 38.12C42.3298 38.13 42.3298 38.14 42.3298 38.15C42.3998 38.2 42.8598 37.84 43.3398 37.36C43.8298 36.88 44.1898 36.43 44.1498 36.35V36.34Z" fill="#242021"/>
<path d="M65.9099 30.63C65.9099 30.63 65.9099 30.61 65.9099 30.6C65.8699 30.54 65.8599 30.48 65.8699 30.42C66.0499 29.65 66.0299 28.87 66.0399 28.09L66.0199 25.76C66.0199 24.2 65.9099 22.65 65.8099 21.09L65.4499 16.45C65.4099 15.68 65.2399 14.91 65.1399 14.14C64.9999 13.37 64.9699 12.6 64.6799 11.84C64.6699 11.78 64.6499 11.73 64.6499 11.67C64.6499 11.66 64.6499 11.65 64.6499 11.63C64.5899 11.51 64.3299 11.42 64.0799 11.43C63.8299 11.44 63.5799 11.55 63.5299 11.68C63.5299 11.69 63.5299 11.7 63.5299 11.71C63.5299 11.77 63.5299 11.83 63.5099 11.89L63.3499 12.65L63.2199 14.88L63.1599 16V17.11L63.1799 21.54C63.1699 23.01 63.1299 24.48 63.1499 25.95C63.1899 27.42 63.0299 28.9 63.2799 30.38C63.2899 30.44 63.2799 30.49 63.2399 30.55C63.2399 30.56 63.2299 30.57 63.2399 30.59C63.3899 30.71 64.1299 30.82 64.5899 30.83C65.0599 30.83 65.7899 30.74 65.9499 30.62L65.9099 30.63Z" fill="#242021"/>
<path d="M63.7198 96.38C63.7198 96.38 63.7198 96.4 63.7198 96.42C63.7598 96.48 63.7698 96.55 63.7598 96.61C63.5798 97.42 63.5998 98.24 63.5898 99.06L63.6098 101.51C63.6098 103.15 63.7198 104.78 63.8198 106.41L64.1698 111.29C64.2098 112.1 64.3798 112.91 64.4798 113.72C64.6198 114.53 64.6498 115.34 64.9498 116.14C64.9598 116.2 64.9798 116.26 64.9798 116.32C64.9798 116.33 64.9798 116.34 64.9798 116.36C65.0398 116.49 65.2998 116.58 65.5498 116.57C65.7998 116.56 66.0498 116.44 66.0998 116.31C66.0998 116.3 66.0998 116.29 66.0998 116.27C66.0998 116.21 66.0998 116.14 66.1198 116.08L66.2798 115.28L66.4098 112.93L66.4698 111.76V110.59L66.4598 105.93C66.4698 104.38 66.5098 102.83 66.4898 101.28C66.4498 99.73 66.6098 98.18 66.3598 96.62C66.3498 96.56 66.3598 96.5 66.3998 96.44C66.3998 96.43 66.4098 96.42 66.3998 96.4C66.2498 96.27 65.5098 96.16 65.0498 96.15C64.5798 96.15 63.8498 96.24 63.6898 96.37L63.7198 96.38Z" fill="#242021"/>
<path d="M96.07 68.83C96.07 68.83 96.09 68.83 96.11 68.83C96.17 68.79 96.2401 68.78 96.3001 68.79C97.1101 68.97 97.93 68.95 98.75 68.96L101.2 68.94C102.84 68.94 104.47 68.83 106.1 68.73L110.98 68.38C111.79 68.34 112.6 68.17 113.41 68.07C114.22 67.93 115.03 67.9 115.83 67.6C115.89 67.59 115.95 67.57 116.01 67.57C116.02 67.57 116.03 67.57 116.05 67.57C116.18 67.51 116.27 67.25 116.26 67C116.25 66.75 116.13 66.5 116 66.45C115.99 66.45 115.98 66.45 115.96 66.45C115.9 66.45 115.83 66.45 115.77 66.43L114.97 66.27L112.62 66.14L111.45 66.08H110.28L105.62 66.09C104.07 66.08 102.52 66.04 100.97 66.06C99.42 66.1 97.87 65.94 96.31 66.19C96.25 66.2 96.19 66.19 96.13 66.15C96.12 66.15 96.11 66.14 96.09 66.15C95.96 66.3 95.85 67.04 95.84 67.5C95.83 67.96 95.93 68.7 96.06 68.86L96.07 68.83Z" fill="#242021"/>
<path d="M31.8998 66.5C31.8998 66.5 31.8798 66.5 31.8598 66.5C31.7998 66.54 31.7398 66.56 31.6698 66.54C30.8598 66.38 30.0498 66.4 29.2398 66.4H26.8198C25.2098 66.39 23.5898 66.44 21.9798 66.45H17.1198C16.3098 66.4 15.4898 66.5 14.6798 66.53C13.8598 66.59 13.0498 66.56 12.2298 66.78C12.1698 66.78 12.1098 66.8 12.0498 66.8C12.0398 66.8 12.0298 66.8 12.0098 66.8C11.8798 66.85 11.7598 67.1 11.7498 67.35C11.7398 67.6 11.8298 67.85 11.9598 67.92C11.9698 67.92 11.9798 67.92 11.9998 67.92C12.0598 67.92 12.1198 67.94 12.1898 67.95L12.9698 68.18L15.2998 68.52L16.4598 68.68L17.6298 68.77L22.3198 69.1C23.8898 69.2 25.4598 69.29 27.0198 69.29C28.5898 69.27 30.1598 69.42 31.7198 69.14C31.7798 69.13 31.8398 69.14 31.8998 69.18C31.9098 69.18 31.9198 69.19 31.9398 69.18C32.0698 69.02 32.1698 68.29 32.1598 67.82C32.1598 67.35 32.0398 66.62 31.9098 66.47L31.8998 66.5Z" fill="#242021"/>
<path d="M45.3 86.3301C37.78 80.5601 33.59 70.8601 34.46 61.5201C34.72 58.1201 35.52 54.7601 36.93 51.6701C39.34 46.2201 43.38 41.4701 48.36 38.2401C53.34 35.0301 59.31 33.2001 65.26 33.5901C67.89 33.7301 70.48 34.2701 72.96 35.0801C75.44 35.8901 77.82 36.9801 80.04 38.3201C82.87 40.0701 85.5 42.2501 87.55 44.9401C88.56 46.2901 89.46 47.7401 90.13 49.2801C90.85 50.8001 91.36 52.4501 91.4 54.1401C91.47 56.2401 91.35 55.9101 90.46 54.3901C90.08 53.6101 89.18 52.6601 88.53 51.4601C88.11 50.8901 87.72 50.2601 87.28 49.6201C86.78 49.0101 86.36 48.3001 85.82 47.6401C82.2 42.7801 76.76 39.2501 70.83 37.5501C67.86 36.7001 64.79 36.3601 61.74 36.5701C58.68 36.7701 55.65 37.6501 52.8 38.9301C49.41 40.5401 46.27 42.9401 43.81 45.9301C42.57 47.4201 41.47 49.0201 40.58 50.7701C40.09 51.6101 39.74 52.5201 39.32 53.4001C38.99 54.3101 38.6 55.2101 38.36 56.1401C37.09 60.2001 36.86 64.5601 37.66 68.7301C38.44 72.9201 40.36 76.8701 43.08 80.1601C46.43 84.2201 51.07 87.2101 56.17 88.6601C60.03 89.7501 64.14 90.07 68.17 89.59C72.18 89.1501 76.03 87.7601 79.27 85.4301C84.28 81.7701 87.75 76.3801 89.5 70.5601C89.73 69.93 89.86 69.2801 90.01 68.6301C90.16 67.98 90.33 67.3401 90.41 66.6801C91.16 61.7601 91.04 60.2301 91.77 59.0401C91.91 58.7701 92.01 58.4101 92.12 58.2401C92.31 57.9501 92.55 58.3201 92.98 59.2601C93.22 59.7301 93.42 60.3601 93.5 61.1201C93.59 61.8801 93.75 62.7901 93.68 63.7901C93.59 66.7801 93.03 69.7901 92 72.6701C90.98 75.5501 89.61 78.3601 87.79 80.9201C85.95 83.4701 83.72 85.7801 81.12 87.7001C78.51 89.6001 75.49 90.9501 72.35 91.7901C69.97 92.3401 67.65 92.68 65.28 92.7001C62.92 92.73 60.54 92.6101 58.2 92.1401C53.53 91.2501 49.01 89.3201 45.24 86.3601L45.28 86.3001L45.3 86.3301Z" fill="#231F20"/>
<path d="M76.4598 44.97C77.2798 45.5 78.0498 46.11 78.7798 46.75C79.0398 47 79.3198 47.21 79.5698 47.46C80.4098 48.39 81.1598 49.4 81.7598 50.47C82.0098 50.96 82.2898 51.43 82.5098 51.93C82.8498 52.54 82.9698 53.27 82.9398 53.97C82.9398 54.19 82.8198 54.18 82.6098 54.04C82.4098 53.9 82.0798 53.67 81.8498 53.38C81.7498 53.25 81.6198 53.13 81.5598 52.99C81.4898 52.85 81.4198 52.72 81.3298 52.59C81.1498 52.33 81.0198 52.06 80.8298 51.81C80.4698 51.31 80.1298 50.79 79.7798 50.24C79.3498 49.6 78.7098 49.09 78.0898 48.6C77.4298 48.04 76.7298 47.5 75.9998 47.01C75.5398 46.73 75.0798 46.42 74.5898 46.19C73.8498 45.82 73.0998 45.46 72.2998 45.26C71.6798 45.09 71.0298 45.11 70.4098 45.06C70.2698 45.05 70.1298 45.08 69.9998 45.06C69.4898 45.01 69.3598 44.84 69.3098 44.26C69.3098 44.13 69.2798 43.99 69.2798 43.86C69.2798 43.41 69.5498 43.09 69.9798 43.02C71.2698 42.79 72.5998 43.1 73.8398 43.58C74.7698 43.93 75.6498 44.4 76.4898 44.91L76.4698 44.95L76.4598 44.97Z" fill="#231F20"/>
<path d="M107.27 22.92C109.36 22.92 109.36 19.67 107.27 19.67C105.18 19.67 105.18 22.92 107.27 22.92Z" fill="#231F20"/>
<path d="M110.28 30.92C111.73 30.92 111.73 28.67 110.28 28.67C108.83 28.67 108.83 30.92 110.28 30.92Z" fill="#231F20"/>
<path d="M52.5001 19.37C54.5901 19.37 54.5901 16.12 52.5001 16.12C50.4101 16.12 50.4101 19.37 52.5001 19.37Z" fill="#231F20"/>
<path d="M45.3102 25.7C46.7602 25.7 46.7602 23.45 45.3102 23.45C43.8602 23.45 43.8602 25.7 45.3102 25.7Z" fill="#231F20"/>
<path d="M18.0602 29.13C19.5102 29.13 19.5102 26.88 18.0602 26.88C16.6102 26.88 16.6102 29.13 18.0602 29.13Z" fill="#231F20"/>
<path d="M52.5001 109.47C53.9501 109.47 53.9501 107.22 52.5001 107.22C51.0501 107.22 51.0501 109.47 52.5001 109.47Z" fill="#231F20"/>
<path d="M20.1598 81.36C22.2498 81.36 22.2498 78.11 20.1598 78.11C18.0698 78.11 18.0698 81.36 20.1598 81.36Z" fill="#231F20"/>
<path d="M106.05 99.05C107.82 99.05 107.82 96.3 106.05 96.3C104.28 96.3 104.28 99.05 106.05 99.05Z" fill="#231F20"/>
<path d="M43.3402 114.05C45.1102 114.05 45.1102 111.3 43.3402 111.3C41.5702 111.3 41.5702 114.05 43.3402 114.05Z" fill="#231F20"/>
</svg>
