<svg width="128" height="128" viewBox="0 0 128 128" fill="none" xmlns="http://www.w3.org/2000/svg">
<path d="M81.9301 60.2099C77.1301 61.3299 74.1101 60.0799 71.5801 57.0599C68.3801 53.2399 67.9601 43.9799 68.2901 40.8199C68.2901 40.8199 65.8001 59.7599 68.9701 61.8099C76.1001 66.4199 81.9401 60.2099 81.9401 60.2099H81.9301Z" fill="#231F20"/>
<path d="M47.5801 62.5699C47.7701 62.5699 53.0601 63.2999 55.3801 58.5699C56.8301 55.6199 55.9501 53.6299 54.6101 50.5699L58.5001 51.0899C58.5001 51.0899 59.6501 55.4199 59.5501 58.0499C59.4501 60.6799 58.3101 63.2999 56.6201 63.3099C54.9301 63.3199 47.5801 62.5699 47.5801 62.5699Z" fill="#231F20"/>
<path d="M82.3299 73.39C81.6999 73.62 77.1799 73.2 73.8899 77.06C72.5099 78.68 71.6699 82.8 73.3599 84.67L73.8099 85.48L70.5399 83.99C70.5399 83.99 68.7499 82.57 68.9699 78.79C69.1899 75.01 70.8299 74.28 72.1299 73.39C73.4399 72.5 79.3499 71.74 79.3499 71.74L82.3199 73.39H82.3299Z" fill="#231F20"/>
<path d="M59.4401 88.45C59.0601 83.13 58.5901 78.1 55.0601 76.12C51.6601 74.21 47.5801 75.08 46.3501 76.31C46.3501 76.31 47.0301 72.17 49.9401 71.88C52.8501 71.59 57.7901 72.26 58.5201 72.9C59.2501 73.54 60.7901 77.43 60.5901 78.8C60.3901 80.17 59.4401 88.46 59.4401 88.46V88.45Z" fill="#231F20"/>
<path d="M22.1399 85.84C20.1599 84.1 19.2799 80.89 20.7999 77.79C22.6399 74.05 29.3299 73.66 31.3199 74.9C31.3199 74.9 24.8699 69.91 20.5199 73.63C16.8199 76.8 17.3199 79.33 17.6599 81.82C17.9999 84.31 22.1399 85.84 22.1399 85.84Z" fill="#231F20"/>
<path d="M54.0602 33.7199C52.5602 30.4699 47.7502 28.0699 44.1802 30.0999C41.7502 31.4699 39.3402 35.3099 42.8602 38.9899C42.8602 38.9899 38.1102 36.0299 38.9502 32.5399C39.8002 29.0599 42.8002 26.2499 44.6002 26.2999C46.4002 26.3499 50.0802 25.7999 52.0502 27.7899C54.0202 29.7799 54.0602 33.7099 54.0602 33.7099V33.7199Z" fill="#231F20"/>
<path d="M105.09 60.68C108.38 58.52 107.73 53.44 105.94 51.65C103.73 49.44 100.43 49.2 96.5298 51.16C96.5298 51.16 99.5398 46.85 102.97 47.44C106.4 48.03 107.25 48.74 108.19 50.5C109.13 52.26 110.2 54.19 109.57 55.98C108.94 57.77 107.81 59.93 107.5 60.45C107.19 60.97 105.08 60.68 105.08 60.68H105.09Z" fill="#231F20"/>
<path d="M77.7702 99.2499C77.9802 99.4199 83.0602 101.51 82.8502 106.94C82.7602 109.3 80.6602 111.95 77.1802 112.52C77.1802 112.52 81.1702 112.92 83.3902 112.01C85.6002 111.1 86.0002 109.27 86.4002 107.79C86.8002 106.31 86.7502 103.44 85.8102 102.92C84.8702 102.4 81.7902 99.0399 81.5702 98.9699C81.3502 98.8999 77.7602 99.2499 77.7602 99.2499H77.7702Z" fill="#231F20"/>
<path d="M68.8201 47.98C68.9001 50.57 69.0501 53.17 69.3601 55.69C69.5101 56.94 69.7001 58.21 70.0101 59.28C70.1601 59.8 70.3701 60.3 70.4601 60.35C70.6801 60.58 71.1601 60.86 71.6401 61.07C73.1201 61.7 74.9401 61.87 76.5801 61.76C77.3201 61.71 78.0101 61.55 78.6701 61.33C78.9901 61.2 79.3001 61.07 79.5701 60.89C79.8301 60.74 79.7501 60.8 79.9301 60.5C80.2001 59.95 80.4201 59.16 80.5801 58.39C80.7401 57.6 80.8801 56.79 80.9801 55.97C81.4101 52.68 81.5801 49.3 81.6801 45.94C81.7501 42.95 81.6801 39.93 81.5401 36.96C81.4301 33.13 80.8301 29.35 81.2401 25.49C81.3601 24.28 81.4601 24.42 82.0001 25.38C82.6301 26.33 83.6501 28.13 83.8901 30.36C84.2401 34.3 84.4101 38.24 84.3901 42.2C84.3701 46.16 84.2301 50.13 83.7601 54.12C83.6101 55.32 83.4701 56.53 83.2701 57.76C83.0501 59 82.8701 60.22 82.2701 61.62C82.1201 61.96 81.8101 62.46 81.4301 62.78C81.0401 63.12 80.7701 63.24 80.4501 63.45C79.8101 63.78 79.1501 64.05 78.4701 64.23C77.1201 64.59 75.7601 64.68 74.4401 64.58C72.9801 64.45 71.5501 64.18 70.1301 63.53C69.4301 63.2 68.7001 62.83 68.0201 61.96C67.4601 61.14 67.2701 60.44 67.0501 59.73C66.3101 56.96 66.1101 54.29 65.9101 51.6C65.7001 48.3 65.6501 45 65.6701 41.71C65.7301 36.72 65.9501 31.73 66.6001 26.77C66.7401 25.8 66.8901 24.84 67.1501 23.84C67.3001 23.34 67.4401 22.8 67.7801 22.26C68.1101 21.73 68.5501 21.3 69.0201 20.96C69.9601 20.29 70.9701 19.92 71.9701 19.65C72.9801 19.39 74.0001 19.26 75.0201 19.21C75.9201 19.17 76.8101 19.17 77.7201 19.32C79.4001 19.59 80.5301 20.06 81.2101 20.65C81.8701 21.27 82.1001 21.9 82.0301 22.42C82.0101 22.66 81.9501 22.92 81.8501 23.05C81.6501 23.26 81.3901 23.1 80.9801 22.99C80.5601 22.86 79.8901 22.75 78.9501 22.52C77.5301 22.23 75.9401 22.2 74.4301 22.32C72.9401 22.45 71.3601 22.86 70.5701 23.51C70.3901 23.66 70.2501 23.81 70.1901 23.94L70.0601 24.25L69.9101 24.73C69.7201 25.43 69.6001 26.27 69.4801 27.09C69.2601 28.76 69.1301 30.5 69.0201 32.25C68.7401 37.45 68.6901 42.74 68.8901 47.97H68.8101L68.8201 47.98Z" fill="#231F20"/>
<path d="M59.1698 87.12C59.1698 84.56 59.0998 82.01 58.8998 79.51C58.7998 78.27 58.6598 77.02 58.4198 75.9C58.2998 75.37 58.1298 74.78 57.9798 74.53C57.9198 74.39 57.9298 74.42 57.7598 74.29C57.6498 74.18 57.3798 74.07 57.1898 73.95C55.7798 73.31 53.9598 73.08 52.2898 73.07C50.8198 73.09 49.2898 73.3 48.2498 74.02C47.9698 74.18 47.7698 74.39 47.5498 74.6C47.4298 74.72 47.4398 74.73 47.3598 74.86C47.2998 74.99 47.2298 75.11 47.1798 75.28C46.9498 75.92 46.7798 76.71 46.6498 77.49C46.1498 80.67 46.0198 84.01 45.9498 87.32C45.8998 90.26 45.9898 93.23 46.1498 96.16C46.2698 99.93 46.8798 103.67 46.3398 107.48C46.1698 108.67 46.0698 108.52 45.5698 107.56C44.9798 106.61 44.0098 104.83 43.7798 102.65C43.4698 98.78 43.2698 94.91 43.2598 91.02C43.2598 87.13 43.3498 83.22 43.8398 79.26C43.9998 78.07 44.1598 76.87 44.4398 75.62C44.6098 74.98 44.7498 74.35 45.1298 73.61C45.2498 73.42 45.3798 73.19 45.5098 73.04L45.8998 72.62C46.1598 72.33 46.4598 72.11 46.7598 71.9C47.9798 71.06 49.3298 70.65 50.6398 70.44C51.9598 70.24 53.2698 70.23 54.5498 70.38C55.9698 70.56 57.3398 70.85 58.7698 71.57C59.1198 71.74 59.4998 71.98 59.8698 72.33C60.0398 72.53 60.2598 72.72 60.3798 72.92C60.4998 73.13 60.6198 73.32 60.7098 73.52C61.0298 74.27 61.2298 74.96 61.3698 75.65C61.9498 78.38 62.0798 81.02 62.1698 83.67C62.2698 86.93 62.2198 90.17 62.1098 93.4C61.9098 98.3 61.5598 103.2 60.8398 108.08C60.6898 109.03 60.5298 109.97 60.2298 110.98C60.0698 111.49 59.7698 112.1 59.3498 112.55C58.9398 113.01 58.4598 113.34 57.9798 113.6C56.0198 114.61 53.9898 114.79 51.9898 114.78C51.1098 114.76 50.2398 114.71 49.3598 114.52C47.7298 114.17 46.6498 113.64 46.0098 113.06C45.3898 112.43 45.1798 111.82 45.2598 111.31C45.2798 111.08 45.3398 110.81 45.4398 110.69C45.6298 110.48 45.8898 110.63 46.3098 110.75C46.7398 110.89 47.4098 111.01 48.3298 111.29C49.7198 111.65 51.2798 111.77 52.7898 111.75C54.2798 111.72 55.8598 111.45 56.8098 110.89C57.0398 110.75 57.1898 110.61 57.2998 110.49C57.3498 110.43 57.3798 110.38 57.3998 110.33C57.4298 110.26 57.4798 110.14 57.5298 110C57.7198 109.38 57.8698 108.54 57.9898 107.74C58.2298 106.1 58.3998 104.38 58.5398 102.67C58.9298 97.55 59.1298 92.34 59.0898 87.19H59.1698V87.12Z" fill="#231F20"/>
<path d="M45.1602 62.41C47.6502 62.33 50.1502 62.2 52.5802 61.91C53.7802 61.77 54.9902 61.59 56.0302 61.3C56.5302 61.16 57.0102 60.96 57.0602 60.87C57.2802 60.65 57.5702 60.22 57.7902 59.75C58.4302 58.34 58.7002 56.62 58.6102 55.08C58.5602 53.71 58.0502 52.46 57.2002 51.74C57.1702 51.73 57.1502 51.71 57.1302 51.69L56.9502 51.61C56.8402 51.55 56.6602 51.5 56.5002 51.45C56.1702 51.35 55.8102 51.26 55.4302 51.19C54.6802 51.04 53.8902 50.94 53.1102 50.84C49.9402 50.49 46.6802 50.36 43.4402 50.31C40.5602 50.26 37.6602 50.35 34.8002 50.5C31.1202 50.62 27.4702 51.19 23.7602 50.77C22.6102 50.65 22.7202 50.55 23.6502 50.01C24.5602 49.38 26.3002 48.37 28.4402 48.14C32.2302 47.81 36.0202 47.63 39.8202 47.63C43.6202 47.63 47.4402 47.72 51.2902 48.11C52.4402 48.23 53.6102 48.35 54.8002 48.52C55.4002 48.61 56.0002 48.7 56.6302 48.84C57.2702 49.01 57.8602 49.07 58.7502 49.65C59.9902 50.58 60.7402 51.91 61.1002 53.24C61.4702 54.58 61.5102 55.91 61.3802 57.2C61.2202 58.61 60.8602 59.98 60.2102 61.32C59.8402 61.99 59.5302 62.66 58.6502 63.32C57.8602 63.84 57.1802 64.03 56.5002 64.24C53.8202 64.96 51.2502 65.15 48.6602 65.32C45.4802 65.52 42.3102 65.56 39.1402 65.55C34.3402 65.5 29.5402 65.28 24.7702 64.81C23.8402 64.7 22.9202 64.61 21.9802 64.45C21.5102 64.37 21.0402 64.29 20.5402 64.15C20.3002 64.1 20.0202 63.98 19.7602 63.89C19.5002 63.75 19.2502 63.6 18.9902 63.44C18.0302 62.74 17.4202 61.76 17.0202 60.78C16.6202 59.79 16.4602 58.77 16.3702 57.75C16.3402 56.85 16.3202 55.96 16.5402 55.05C16.9002 53.37 17.6002 52.28 18.3202 51.72C18.5102 51.59 18.6902 51.48 18.8502 51.4C19.0302 51.33 19.2102 51.29 19.3702 51.26C19.6802 51.2 19.9402 51.22 20.1902 51.34C20.4102 51.43 20.6402 51.51 20.7502 51.63C20.9302 51.82 20.7502 52.15 20.5102 52.47C20.2902 52.9 20.1002 53.42 19.7902 54.21C19.3802 55.41 19.3102 56.88 19.4802 58.22C19.6302 59.56 20.2502 60.82 20.8802 61.13C21.0902 61.31 21.8402 61.48 22.6002 61.62C23.3602 61.76 24.1802 61.83 25.0002 61.92C26.6402 62.08 28.3302 62.18 30.0202 62.26C35.0402 62.47 40.1302 62.52 45.1702 62.33V62.41H45.1602Z" fill="#231F20"/>
<path d="M82.8799 73.51C80.4199 73.54 77.9499 73.65 75.5799 73.93C74.4099 74.06 73.1999 74.26 72.3299 74.57C71.8799 74.76 71.8799 74.74 71.5999 75.1C71.3499 75.44 71.1399 75.92 70.9499 76.4C70.4499 77.86 70.3499 79.55 70.6499 80.99C70.7599 81.64 71.0099 82.22 71.3299 82.72L71.5899 83.09L71.8999 83.4C72.0099 83.54 72.0799 83.56 72.1399 83.61C72.2399 83.66 72.3699 83.73 72.5099 83.79C73.0999 84.03 73.8599 84.2 74.6099 84.34C75.3599 84.49 76.1399 84.59 76.9199 84.69C80.0599 85.06 83.2699 85.21 86.4699 85.29C89.3199 85.35 92.1899 85.29 95.0099 85.15C98.6499 85.06 102.26 84.49 105.94 85.03C107.09 85.2 106.95 85.29 106.03 85.79C105.11 86.38 103.39 87.35 101.28 87.57C97.5399 87.86 93.7899 88.02 90.0299 88C86.2699 87.99 82.4999 87.86 78.6999 87.44C77.5599 87.31 76.4099 87.18 75.2399 87.02C74.0599 86.84 72.8899 86.67 71.5999 86.22C71.2599 86.08 70.9199 85.95 70.5199 85.67C70.1799 85.42 69.9599 85.19 69.6799 84.94C69.4299 84.68 69.2299 84.38 68.9999 84.1C68.8099 83.8 68.6399 83.49 68.4699 83.18C67.8599 81.91 67.6399 80.56 67.6299 79.27C67.6299 77.84 67.8699 76.45 68.3699 75.09C68.6299 74.41 68.9299 73.74 69.4799 73.06C69.5999 72.89 69.7599 72.72 69.9599 72.56C70.1499 72.38 70.3399 72.25 70.5299 72.16C70.9299 71.92 71.2599 71.82 71.6199 71.67C74.3399 70.82 76.8599 70.7 79.4399 70.54C82.5899 70.39 85.7299 70.39 88.8499 70.46C93.5899 70.58 98.3299 70.89 103.03 71.39C103.94 71.49 104.85 71.59 105.77 71.73C106.7 71.87 107.59 71.98 108.61 72.31L109 72.45C109.15 72.53 109.31 72.61 109.45 72.7C109.73 72.89 109.97 73.11 110.17 73.34C110.57 73.81 110.83 74.3 111.04 74.79C111.45 75.77 111.65 76.75 111.78 77.72C111.89 78.58 111.96 79.41 111.9 80.28C111.8 81.87 111.51 82.94 111.1 83.65C110.65 84.34 110.13 84.7 109.59 84.75C109.35 84.78 109.06 84.75 108.96 84.62C108.87 84.52 108.9 84.39 108.88 84.27C108.86 84.16 108.82 84.03 108.82 83.85C108.82 83.48 108.78 82.72 108.89 81.78C108.99 80.35 108.89 78.82 108.66 77.42C108.54 76.73 108.34 76.06 108.1 75.6C107.98 75.37 107.85 75.2 107.78 75.15C107.75 75.12 107.72 75.14 107.74 75.11C107.65 75.11 107.55 75.05 107.41 75.01C106.81 74.83 106.01 74.68 105.24 74.56C104.46 74.43 103.64 74.35 102.83 74.27C101.19 74.11 99.5299 73.98 97.8599 73.89C92.8999 73.61 87.8599 73.47 82.8899 73.59V73.51H82.8799Z" fill="#231F20"/>
<path d="M37.5002 35.42C37.0602 33.54 37.4402 31.54 38.2802 29.93C39.1302 28.31 40.3402 27.05 41.8402 26.1C42.9302 25.43 44.1202 24.89 45.3802 24.69C47.6002 24.34 49.8702 24.8 51.7302 25.91C52.6602 26.45 53.5202 27.14 54.1902 27.98C54.5502 28.37 54.8402 28.86 55.1002 29.28C55.3402 29.7 55.5802 30.13 55.7902 30.56C56.5602 32.09 57.2302 33.67 57.7602 35.25C57.9302 35.76 58.1002 36.26 58.2602 36.77C58.4002 37.28 58.5202 37.8 58.6302 38.31C58.7402 38.83 58.8302 39.34 58.9102 39.86C59.0202 40.37 58.8702 40.94 58.8702 41.47C58.8002 42.16 58.7202 42.09 58.2202 41.66C57.8702 41.38 57.4802 41.08 57.1002 40.78C56.6902 40.4 56.4002 39.9 56.1602 39.35L55.5702 37.89C55.3702 37.41 55.2402 36.92 55.0702 36.45C54.7402 35.5 54.3902 34.58 53.9902 33.69C53.5902 32.8 53.1502 31.94 52.6602 31.11C52.5402 30.88 52.4202 30.71 52.3102 30.55C52.2002 30.38 52.0902 30.21 51.9502 30.06C51.7002 29.74 51.4002 29.45 51.0902 29.17C50.3202 28.51 49.2902 28.1 48.2302 27.98C47.1702 27.84 46.0902 27.93 45.0902 28.26C43.9902 28.61 43.0002 29.25 42.1902 30.14C41.3702 31.01 40.7902 32.07 40.6402 33.2C40.5502 33.9 40.6302 34.61 40.8302 35.3C41.0502 35.99 41.4502 36.62 41.9302 37.21C42.6902 38.07 43.7102 38.75 44.8602 39.18C45.4302 39.38 46.0402 39.58 46.6102 39.67C47.2102 39.75 47.8402 39.79 48.4902 39.79C50.5102 39.79 52.5402 39.43 54.7402 39.5C55.2202 39.5 55.7202 39.53 56.2202 39.61C57.1602 39.77 57.8002 40.05 58.1702 40.39C58.3502 40.56 58.4802 40.71 58.5402 40.92C58.5902 41.14 58.5802 41.37 58.5602 41.58C58.5402 41.78 58.5302 41.97 58.4902 42.11C58.4102 42.35 58.1502 42.46 57.7702 42.6C57.3802 42.76 57.0302 42.69 56.5202 42.65C55.0502 42.46 53.2902 42.61 51.4402 42.72C50.5102 42.78 49.5402 42.84 48.5102 42.84C47.5002 42.84 46.3602 42.82 45.1502 42.51C43.5002 42.12 41.8502 41.37 40.4302 40.19C39.0202 39.02 37.8902 37.35 37.4402 35.44L37.5202 35.42H37.5002Z" fill="#231F20"/>
<path d="M103.77 45.5801C105.65 45.8401 107.37 46.8201 108.58 48.1301C109.8 49.4401 110.59 50.9901 110.98 52.7001C111.24 53.9401 111.35 55.2201 111.12 56.4601C110.74 58.6401 109.54 60.6001 107.91 61.9801C107.09 62.6601 106.18 63.2501 105.17 63.6101C104.16 63.9701 103.14 64.1701 102.12 64.2001C100.31 64.2601 98.5998 63.9301 97.0298 63.6701C96.0198 63.5201 95.0498 63.4101 94.1198 63.3601C93.6498 63.3501 93.1898 63.3601 92.7398 63.4201C92.2998 63.5001 91.7698 63.3901 91.2698 63.5001C90.6198 63.5501 90.6298 63.4901 90.9898 62.9301C91.1598 62.6401 91.4298 62.2201 91.8498 61.7401C92.2898 61.3201 92.9198 61.0401 93.6198 60.9101C94.2398 60.8101 94.8598 60.7601 95.4598 60.7601C96.0598 60.7601 96.6298 60.8501 97.1798 60.9201C98.2698 61.0801 99.2698 61.2601 100.21 61.3501C102.07 61.5301 103.73 61.3201 105.22 60.4501C107.03 59.3801 108.05 57.1001 108.12 55.0001C108.16 53.8201 107.87 52.6601 107.29 51.5901C106.73 50.5101 105.9 49.6101 104.87 49.0601C104.23 48.7501 103.53 48.5501 102.79 48.5201C102.06 48.5201 101.31 48.6301 100.6 48.9301C99.5198 49.3601 98.5398 50.1101 97.7598 51.0501C96.9798 51.9801 96.3398 53.1101 95.7998 54.3001C94.9498 56.1401 94.3698 58.1001 93.6298 60.0301C93.4698 60.4601 93.3298 60.8901 93.1498 61.3101C92.4398 62.8801 92.0398 63.3101 91.1298 63.2301C90.9398 63.2301 90.7598 63.2501 90.6198 63.2301C90.1998 63.1801 89.8298 62.2201 90.2698 61.1101C90.8198 59.3901 91.3998 57.6401 92.0798 55.8401C92.7798 54.0401 93.5098 52.2101 94.6998 50.3401C95.5998 48.9201 96.8398 47.6301 98.4098 46.7001C99.9598 45.7701 101.89 45.2801 103.8 45.4901V45.5701L103.77 45.5801Z" fill="#231F20"/>
<path d="M88.2599 105.52C88.4599 107.41 87.9098 109.32 86.9298 110.8C85.9398 112.29 84.6199 113.43 83.0499 114.21C81.9099 114.76 80.6898 115.16 79.4298 115.23C77.2198 115.37 75.0299 114.67 73.2999 113.41C72.4399 112.77 71.6598 112.02 71.0698 111.13C70.4798 110.24 70.0498 109.28 69.7798 108.3C69.2998 106.55 69.2198 104.81 69.0998 103.22C69.0098 102.2 68.8898 101.23 68.7198 100.31C68.6198 99.85 68.4998 99.41 68.3398 98.98C68.1498 98.57 68.1398 98.03 67.9198 97.56C67.7198 96.94 67.7799 96.94 68.4099 97.15C68.7399 97.25 69.1998 97.41 69.7698 97.71C70.2798 98.04 70.6998 98.59 70.9898 99.24C71.2398 99.82 71.4198 100.41 71.5698 101C71.7098 101.58 71.7498 102.16 71.8098 102.71C71.9098 103.81 71.9598 104.83 72.0998 105.76C72.3598 107.62 72.9499 109.17 74.1499 110.42C75.6199 111.93 78.0698 112.38 80.1298 111.96C81.2798 111.72 82.3498 111.17 83.2498 110.35C84.1698 109.55 84.8498 108.53 85.1398 107.4C85.2898 106.7 85.3098 105.97 85.1698 105.25C84.9898 104.54 84.7098 103.84 84.2498 103.22C83.5798 102.27 82.6099 101.5 81.5099 100.96C80.4399 100.44 79.1098 100.05 77.8498 99.67C75.8798 99.1 73.9098 98.8 71.9298 98.6C71.4998 98.57 71.0698 98.53 70.6298 98.5C69.0098 98.33 68.5098 98.2 68.1998 97.33C68.1298 97.16 68.0298 97 67.9898 96.86C67.8398 96.47 68.5799 95.7 69.8699 95.72C71.7899 95.64 73.7698 95.83 75.7199 96.22C76.6999 96.41 77.6598 96.66 78.6098 96.93L80.0198 97.35L80.7198 97.57C80.9398 97.64 81.1798 97.71 81.4598 97.82C83.0498 98.36 84.5999 99.26 85.8699 100.56C87.1399 101.85 88.0698 103.6 88.3198 105.52H88.2498H88.2599Z" fill="#231F20"/>
<path d="M20.68 88.3099C18.94 87.5 17.62 85.97 16.88 84.33C16.14 82.68 15.9 80.95 16.08 79.19C16.23 77.93 16.53 76.6599 17.16 75.5599C18.25 73.6099 20.01 72.12 22.02 71.35C23.02 70.95 24.08 70.71 25.15 70.69C25.68 70.65 26.23 70.7199 26.73 70.7699C27.21 70.8399 27.69 70.92 28.17 71.03C29.86 71.38 31.5 71.89 33.05 72.48C34.05 72.85 35.03 73.24 35.95 73.72L37.33 74.4199C37.79 74.6299 38.17 75.0699 38.6 75.3799C39.12 75.8199 39.03 75.85 38.39 76.01C37.96 76.13 37.49 76.2599 37.01 76.3799C36.46 76.4699 35.87 76.3999 35.28 76.2399L33.74 75.78C33.24 75.63 32.77 75.42 32.29 75.25C31.34 74.9 30.4 74.58 29.47 74.32C28.54 74.06 27.6 73.8699 26.65 73.7399C25.75 73.6099 25 73.61 24.14 73.78C23.14 73.98 22.17 74.54 21.42 75.3C20.65 76.05 20.05 76.9599 19.69 77.9499C19.29 79.0399 19.17 80.22 19.37 81.41C19.55 82.6 20.02 83.72 20.83 84.54C21.32 85.05 21.94 85.4299 22.61 85.6999C23.29 85.9499 24.04 86.0299 24.8 86.0199C25.95 85.9499 27.12 85.57 28.17 84.93C28.68 84.61 29.21 84.25 29.64 83.86C30.08 83.43 30.5 82.9699 30.9 82.4499C32.16 80.8699 33.13 79.0499 34.55 77.3799C34.85 77.0099 35.18 76.63 35.55 76.29C36.26 75.65 36.87 75.33 37.36 75.25C37.6 75.21 37.8 75.21 38 75.28C38.2 75.38 38.37 75.51 38.52 75.66C38.66 75.8 38.81 75.91 38.89 76.04C39.03 76.25 38.95 76.51 38.82 76.89C38.7 77.29 38.42 77.51 38.07 77.89C37 78.93 36.02 80.4 34.95 81.9199C34.42 82.6899 33.86 83.48 33.23 84.29C32.6 85.08 31.88 85.95 30.9 86.71C29.58 87.76 27.98 88.58 26.19 88.96C24.41 89.34 22.41 89.19 20.65 88.37L20.68 88.3V88.3099Z" fill="#231F20"/>
<path d="M95.1902 25.92C95.3002 26.11 95.0502 26.26 94.6102 26.39C94.4702 26.43 94.0602 26.42 94.0002 26.36C93.8802 26.25 93.7702 26.14 93.6802 26.02C93.6302 25.95 93.3602 24.87 93.2302 24.49C93.1102 24.13 93.0702 23.77 93.0502 23.41L92.9902 22.31L93.0302 21.21C93.0302 21.05 93.0802 20.89 93.1502 20.73C93.3802 20.2 93.4502 19.65 93.4602 19.09C93.4602 19 93.4902 18.91 93.4002 18.8C93.2502 18.63 93.4402 17.13 93.5602 16.95C93.8302 16.51 94.0302 16.05 94.2702 15.61C94.3002 15.55 94.2702 15.47 94.4102 15.43C94.7202 15.35 94.7002 15.2 94.7602 15.05C94.8302 14.85 94.9202 14.66 95.0602 14.49C95.1202 14.4 95.3402 14.35 95.5002 14.29C95.6502 14.23 96.0402 14.38 96.0802 14.42C96.1902 14.54 96.4102 14.52 96.5802 14.55C96.6402 14.56 96.7202 14.58 96.7602 14.59C96.9302 14.65 97.3502 15.91 97.3302 16.02C97.3302 16.03 97.2902 16.45 97.2402 16.89C97.2002 17.33 97.1702 17.79 97.1802 17.88C97.1802 17.98 97.1002 18.06 97.0402 18.15C97.0102 18.19 96.9802 19.52 96.9702 19.57C96.8902 19.83 96.9402 20.11 96.6602 20.35C96.6002 20.4 96.6102 20.45 96.6002 20.51C96.5602 20.98 96.4002 21.43 96.2802 21.89C96.2202 22.12 96.2202 22.37 96.1902 22.6C96.1902 22.64 96.1402 22.68 96.1202 22.72C96.0902 22.77 96.0502 22.82 96.0402 22.88C95.9602 23.44 95.7502 24 95.7502 24.57C95.7502 24.7 95.4302 25.31 95.4502 25.47C95.4502 25.55 95.1202 25.82 95.1602 25.9L95.1902 25.92Z" fill="#231F20"/>
<path d="M99.1801 31.81C99.0601 31.99 98.8201 31.86 98.5101 31.6C98.4101 31.52 98.2301 31.2 98.2501 31.12C98.2901 30.97 98.3401 30.83 98.4101 30.7C98.4401 30.62 99.3301 29.84 99.6501 29.58C99.9501 29.3 100.29 29.12 100.66 28.98C101.39 28.7 102.14 28.42 102.91 28.24C103.08 28.2 103.26 28.18 103.44 28.2C104.05 28.25 104.64 28.17 105.23 28.08C105.33 28.06 105.43 28.08 105.53 27.98C105.68 27.79 107.34 27.77 107.55 27.87C108.06 28.08 108.57 28.24 109.06 28.46C109.13 28.49 109.22 28.46 109.26 28.59C109.36 28.88 109.52 28.87 109.67 28.91C109.88 28.97 110.08 29.08 110.27 29.21C110.36 29.28 110.42 29.46 110.49 29.6C110.55 29.73 110.38 30.11 110.34 30.15C110.21 30.25 110.23 30.46 110.19 30.62C110.18 30.68 110.16 30.75 110.14 30.79C110.09 30.88 108.87 31.26 108.77 31.23C108.74 31.2 107.19 31.12 107.02 31.17C106.93 31.19 106.84 31.12 106.75 31.07C106.71 31.03 105.47 31.18 105.43 31.19C105.17 31.16 104.93 31.26 104.65 31.06C104.6 31.02 104.54 31.04 104.49 31.04C104.05 31.11 103.6 31.08 103.15 31.1C102.92 31.1 102.7 31.19 102.47 31.23C102.43 31.23 102.38 31.22 102.34 31.21C102.28 31.21 102.23 31.19 102.18 31.21C101.66 31.36 101.1 31.44 100.6 31.66C100.48 31.7 99.8201 31.72 99.7001 31.8C99.6301 31.83 99.2501 31.7 99.2001 31.78L99.1801 31.81Z" fill="#231F20"/>
</svg>
