<svg width="128" height="128" viewBox="0 0 128 128" fill="none" xmlns="http://www.w3.org/2000/svg">
<path d="M63.8601 70.32C63.6501 70.32 50.2101 71.16 47.7001 74.77C44.1701 79.83 44.8601 88.93 44.8601 88.93L42.8301 82.04C42.8301 82.04 44.3801 73.08 46.5701 71.38C48.7601 69.69 58.1601 69.51 58.1601 69.51L63.8701 70.32H63.8601Z" fill="#231F20"/>
<path d="M43.8198 113.1C36.8598 112.7 33.2798 111.48 31.8898 110.08C30.9698 109.15 30.2898 104.16 30.2898 101.66L29.2598 108.48L29.6398 113.94L41.1098 114.19L43.8198 113.1Z" fill="#231F20"/>
<path d="M68.81 105.41C68.81 105.41 54.5 105.18 52.92 109.16C51.7 112.24 52.92 114.6 52.92 114.6H48.84C48.84 114.6 47.75 108.33 49.44 106.45C51.13 104.57 61.3 103.72 61.3 103.72H68.82V105.41H68.81Z" fill="#231F20"/>
<path d="M29.2602 96.65C29.2602 96.65 24.0502 96.23 22.9902 99.83C21.6402 104.41 22.5502 111.53 22.5502 111.53L20.8502 110.84C20.8502 110.84 20.0502 104.28 20.8502 99.26C21.6502 94.24 23.1602 93.63 24.1002 93.5C25.0402 93.37 29.2602 94.04 29.2602 94.04V96.65Z" fill="#231F20"/>
<path d="M116.8 109.22C117.36 96.87 113.4 96.66 110.24 97.5V93.76C110.24 93.76 114.05 92.56 115.68 93.76C117.31 94.96 117.98 96.51 117.93 99.2C117.88 101.89 118.22 109.22 118.22 109.22H116.81H116.8Z" fill="#231F20"/>
<path d="M31.3198 29.03C31.1798 29.31 30.0498 32.7 33.1498 31.78C35.3498 31.13 33.2898 35.03 31.3198 34.82C29.3498 34.61 27.4398 33.5 27.7198 31.23C27.9998 28.96 30.0198 28.62 30.0198 28.62L31.3298 29.03H31.3198Z" fill="#231F20"/>
<path d="M100.25 31.23C100.25 31.23 104.31 31.72 103.17 28.42C102.46 26.37 105.58 28.33 105.72 29.53C105.86 30.73 106.14 32.72 104.73 33.8C103.32 34.88 101.06 34.44 100.49 33.55C99.9199 32.66 100.24 31.23 100.24 31.23H100.25Z" fill="#231F20"/>
<path d="M119.29 98.72C119.48 100.41 119.42 102.04 119.36 103.65C119.33 104.24 119.39 104.82 119.33 105.4C119.25 106.43 119.12 107.44 119 108.45L118.91 109.2L118.86 109.57L118.84 109.75C118.83 109.86 118.81 109.95 118.81 110.05L118.79 110.64C118.75 110.82 118.74 110.98 118.69 111.13C118.54 111.47 118.23 111.69 117.91 111.85C117.62 111.99 117.29 112.09 116.96 112.16C116.63 112.24 116.26 112.29 116.06 112.32C115.58 112.39 115.11 112.43 114.64 112.46C113.45 112.54 112.17 112.65 111.06 111.87C110.73 111.58 110.87 111.35 111.26 110.96C111.67 110.51 112.23 109.98 112.82 109.91C113.85 109.83 114.93 109.85 115.89 109.7C115.94 109.72 115.99 109.77 116.11 109.76C116.15 109.75 116.17 109.72 116.21 109.67V109.65C116.21 109.65 116.24 109.65 116.24 109.6L116.27 109.37C116.29 109.22 116.32 109.07 116.35 108.92C116.64 107.52 116.59 106.08 116.66 104.67C116.74 103.12 116.79 101.58 116.71 100.06C116.68 99.12 116.58 98.2 116.39 97.32C116.22 96.68 116.03 96.02 115.71 95.55C115.63 95.44 115.55 95.3 115.47 95.21C115.38 95.14 115.31 95.06 115.18 95C114.96 94.86 114.65 94.78 114.35 94.72C113.37 94.54 112.29 94.74 111.24 94.94C111.01 94.98 110.78 95.06 110.54 95.09C109.65 95.11 109.32 94.94 109.06 94.28C109 94.13 108.93 94 108.89 93.86C108.78 93.42 109.07 92.89 109.74 92.59C110.23 92.33 110.76 92.22 111.31 92.13C111.86 92.04 112.43 91.99 113.02 91.99C113.62 91.99 114.24 92.05 114.91 92.19C115.57 92.35 116.34 92.59 117.11 93.26C118.07 94.19 118.53 95.17 118.8 96.06L119.01 96.74L119.15 97.39C119.25 97.83 119.32 98.26 119.38 98.68H119.31L119.29 98.72Z" fill="#231F20"/>
<path d="M19.07 106.57C19.07 104.86 19.16 103.16 19.29 101.45C19.33 100.83 19.3 100.2 19.39 99.57C19.54 98.46 19.74 97.35 20.1 96.21C20.27 95.64 20.5 95.05 20.85 94.43C21.27 93.74 21.83 93.24 22.48 92.91C23.64 92.34 24.81 92.22 25.87 92.24C26.55 92.25 27.21 92.35 27.84 92.5C28.15 92.59 28.46 92.65 28.74 92.81C29.02 92.98 29.28 93.17 29.54 93.36C29.85 93.61 29.72 93.99 29.27 94.44C29.05 94.66 28.74 94.91 28.41 95.16C28.24 95.27 28.06 95.41 27.89 95.48C27.73 95.53 27.56 95.56 27.4 95.55C26.84 95.51 26.31 95.51 25.83 95.51C25.36 95.48 24.94 95.49 24.6 95.53C24.26 95.58 24.05 95.64 23.84 95.75C23.71 95.8 23.69 95.87 23.56 95.92C23.45 96.03 23.32 96.25 23.18 96.42C22.56 97.51 22.51 99.05 22.35 100.48C22.17 102.08 22.08 103.72 22.05 105.35C22.03 106.36 22.04 107.37 22.1 108.36C22.13 108.73 22.15 109.1 22.19 109.45C22.22 109.74 22.22 109.9 22.31 110.11C22.44 110.29 22.66 110.38 22.86 110.47C23.05 110.53 23.48 110.63 23.81 110.67C24.92 110.82 26.08 110.67 27.27 110.62C27.54 110.61 27.79 110.6 28.07 110.62C28.57 110.67 28.92 110.74 29.15 110.93C29.37 111.15 29.5 111.39 29.55 111.68C29.58 111.81 29.62 111.93 29.62 112.04C29.62 112.23 29.51 112.37 29.32 112.55C29.14 112.71 28.87 112.97 28.54 113.02C27.54 113.31 26.44 113.5 25.28 113.56C24.69 113.59 24.09 113.61 23.43 113.55C23.11 113.54 22.76 113.46 22.4 113.39C22.25 113.35 21.94 113.29 21.69 113.18L20.93 112.84C20.55 112.58 20.18 112.29 19.87 111.94C19.73 111.63 19.58 111.32 19.49 110.98C19.4 110.66 19.25 110.29 19.24 110C19.18 109.6 19.14 109.2 19.12 108.83C19.06 108.07 19.02 107.33 19 106.59H19.07V106.57Z" fill="#231F20"/>
<path d="M93.4802 44.29L95.3801 41.49C95.6101 41.15 95.7702 40.77 96.0002 40.43C96.8202 39.23 97.6602 38.04 98.4202 36.8C98.7502 36.25 99.0401 35.67 99.3401 35.1C99.5301 34.74 99.6702 34.35 99.9002 34C100.15 33.66 100.43 33.35 100.75 33.04C100.95 32.86 101.19 33.01 101.41 33.36C101.62 33.71 101.92 34.3 101.89 34.81C101.89 35.04 101.82 35.25 101.74 35.45L101.52 36.05C101.36 36.44 101.22 36.85 101.01 37.22C100.58 37.96 100.11 38.67 99.5602 39.35C98.9102 40.16 98.5202 41.16 97.9802 42.05C97.3902 43.04 96.7602 44 96.1202 44.96L94.9402 46.73C94.3602 47.63 93.7302 48.5 93.2102 49.43C92.7902 50.14 92.5501 50.94 92.1301 51.64C92.0401 51.8 91.9702 51.96 91.8702 52.11C91.4502 52.64 91.0402 52.63 90.6202 52.53C90.5202 52.5 90.4202 52.49 90.3302 52.46C90.0602 52.36 89.9302 51.95 89.9102 51.36C89.9102 50.93 90.0602 50.59 90.1402 50.21C90.2402 49.83 90.3502 49.47 90.5302 49.14C90.8602 48.46 91.2402 47.8 91.6202 47.15C92.2002 46.18 92.8202 45.23 93.4202 44.27L93.4802 44.3V44.29Z" fill="#231F20"/>
<path d="M39.1198 47.29L37.0098 44.1C36.7498 43.71 36.4298 43.37 36.1698 42.98C35.2798 41.59 34.4898 40.13 33.6198 38.73C33.2298 38.11 32.8098 37.51 32.4098 36.9C31.8298 36.17 31.4598 35.29 31.1298 34.38C31.0398 34.09 31.2198 34.01 31.5898 34.05C31.9498 34.1 32.5698 34.21 33.0298 34.53C33.8898 35.08 34.4298 35.84 35.0698 36.53C35.6098 37.3 36.1098 38.1 36.5598 38.95C37.0998 39.96 37.9398 40.81 38.5898 41.78L40.7598 44.96L42.0998 46.92C42.7998 47.89 43.4398 48.92 44.1498 49.87C44.7098 50.61 45.3598 51.25 45.9598 51.96C46.0898 52.11 46.2198 52.27 46.3298 52.44C46.5298 52.76 46.6398 52.99 46.6298 53.21C46.5998 53.45 46.5098 53.63 46.3598 53.83C46.2898 53.92 46.2398 54.02 46.1698 54.09C46.0598 54.21 45.8998 54.25 45.6898 54.24C45.4698 54.23 45.1698 54.18 44.9498 54C44.2298 53.52 43.6098 52.94 43.0298 52.32C42.4398 51.71 41.8798 51.06 41.3198 50.41C40.4798 49.45 39.8098 48.35 39.0398 47.33L39.0898 47.29H39.1198Z" fill="#231F20"/>
<path d="M46.5001 51.02C55.0001 46.86 64.5201 45.78 73.6501 46.57C76.9901 46.86 80.3301 47.33 83.5901 48.19C89.2901 49.73 94.9301 52.09 99.5401 56.13C101.86 58.16 103.57 60.77 104.96 63.4L105.91 65.43C106.23 66.11 106.44 66.82 106.71 67.51C107.26 68.89 107.62 70.32 108.03 71.73C109.36 76.78 110.07 81.95 110.49 87.05C110.75 90.33 110.89 93.62 110.92 96.91C110.9 98.55 110.92 100.2 110.79 101.83C110.65 103.47 110.59 105.1 110.13 106.72C109.71 107.72 109.53 108.15 109.46 108.11C109.39 108.08 109.38 107.58 109.03 106.7C108.8 106.26 108.72 105.74 108.52 105.13C108.3 104.53 108.21 103.85 108.06 103.11C107.93 102.37 107.77 101.58 107.7 100.73C107.64 99.89 107.59 98.99 107.59 98.07C107.58 94.79 107.5 91.51 107.26 88.25C107.17 86.62 107.01 85 106.87 83.37L106.58 80.95C106.49 80.14 106.38 79.34 106.23 78.54C105.76 75.33 105 72.19 104.02 69.16C103.06 66.11 101.64 63.25 99.7901 60.78C98.7501 59.23 97.3001 58.01 95.7601 56.86C94.2101 55.72 92.4901 54.75 90.6801 53.94C87.0901 52.26 83.1701 51.2 79.2601 50.43C70.6301 48.85 61.5401 49.06 53.1301 51.65C48.0001 53.29 43.1401 55.93 39.3901 59.78C38.7101 60.53 38.0001 61.26 37.4201 62.09C36.7701 62.87 36.2501 63.75 35.7101 64.61C35.1901 65.48 34.8001 66.42 34.3401 67.32C33.9401 68.26 33.6301 69.24 33.2701 70.2C32.0301 74.13 31.3401 78.25 30.8801 82.36C30.2101 88.76 30.2201 95.11 30.4201 101.48C30.4801 102.88 30.5401 104.26 30.6001 105.67C30.7201 108.29 30.6901 110.03 30.6201 111.25C30.5801 111.86 30.5201 112.35 30.4201 112.75C30.3001 113.16 30.1501 113.48 30.0101 113.77C29.8801 114.03 29.7701 114.38 29.6801 114.53C29.4501 115.04 28.5801 112.95 28.2401 109.08C27.6901 103.34 27.4601 97.41 27.6001 91.37C27.7601 85.33 28.2301 79.18 29.5701 73.05L30.4601 69.65C30.8601 68.53 31.2201 67.4 31.6601 66.28C32.6701 64.06 33.7901 61.89 35.3201 60C36.8001 58.08 38.4901 56.32 40.3901 54.84C42.2701 53.33 44.3001 52.03 46.4301 50.97L46.4801 51.03L46.5001 51.02Z" fill="#231F20"/>
<path d="M41.82 85.44C41.76 83.8 41.88 82.23 42.09 80.66C42.3 79.1 42.61 77.54 43.08 76C43.58 74.46 44.14 72.89 45.39 71.41C45.6 71.1 46.28 70.54 46.67 70.36C47.12 70.1 47.53 69.95 47.93 69.79C48.74 69.5 49.51 69.3 50.29 69.12C52.54 68.63 54.74 68.26 56.95 68.05C64.75 67.38 72.53 67.43 80.31 68.28C82.03 68.48 83.76 68.71 85.5 69.06C86.37 69.23 87.23 69.43 88.1 69.69C88.97 69.96 89.84 70.26 90.71 70.79C90.98 70.98 91.26 71.14 91.53 71.42C91.66 71.55 91.8 71.68 91.92 71.81L92.21 72.2C92.59 72.72 92.87 73.26 93.12 73.8C93.61 74.88 93.96 75.98 94.23 77.09C94.75 79.3 95.06 81.54 94.76 83.82C94.61 84.53 94.43 84.83 94.32 84.8C94.19 84.77 94.11 84.42 93.82 83.86C93.54 83.3 93.23 82.53 92.8 81.63C92.41 80.72 92.04 79.67 91.69 78.54C91.39 77.54 91.03 76.57 90.61 75.69C90.4 75.25 90.17 74.83 89.93 74.49C89.71 74.13 89.4 73.82 89.28 73.77C89.07 73.64 88.73 73.44 88.33 73.26C88.16 73.16 87.91 73.09 87.7 73C87.49 72.91 87.26 72.83 87.02 72.76C86.09 72.45 85.05 72.23 84.03 72.02C79.85 71.23 75.44 70.88 71.02 70.62C65.73 70.31 60.17 70.69 54.84 71.34C53.38 71.53 51.92 71.76 50.53 72.09C49.83 72.25 49.16 72.45 48.57 72.69C47.94 72.96 47.77 73.09 47.34 73.63C46.6 74.63 46.04 75.97 45.62 77.33C45.2 78.7 44.89 80.13 44.71 81.58C44.5 83.34 44.37 85.2 44.63 86.84C44.69 87.26 44.8 87.63 44.89 87.79C44.99 88.03 45.2 88.09 45.48 88.17C46.25 88.38 47.17 88.48 48.07 88.57C53.59 88.98 59.27 88.92 64.84 88.82C69.18 88.73 73.43 88.48 77.74 88.41C78.69 88.39 79.62 88.36 80.58 88.37C82.36 88.37 83.54 88.5 84.36 88.72C85.18 88.92 85.64 89.19 85.99 89.53C86.15 89.68 86.36 89.83 86.45 89.96C86.73 90.36 85.28 90.66 82.73 90.81C75.14 90.97 67.07 91.32 58.92 91.39C55.89 91.43 52.86 91.46 49.77 91.33C49 91.3 48.22 91.25 47.42 91.18C46.62 91.11 45.83 91.02 44.91 90.81C44.72 90.76 44.31 90.67 44.01 90.49C43.85 90.41 43.68 90.34 43.53 90.24L43.1 89.91C42.85 89.65 42.66 89.33 42.47 89.02C42.36 88.87 42.34 88.69 42.27 88.53L42.13 88.13C41.88 87.17 41.79 86.32 41.75 85.49H41.82V85.44Z" fill="#231F20"/>
<path d="M63.4599 102.78C66.3999 102.71 69.3399 102.73 72.2699 102.78C73.3399 102.8 74.4099 102.74 75.4799 102.78C77.3699 102.86 79.2599 102.99 81.1499 103.17C83.0399 103.38 84.9299 103.53 86.8699 104.03C87.2999 104.13 87.7399 104.27 88.1899 104.42C88.4299 104.52 88.6699 104.61 88.9299 104.76C89.1799 104.95 89.4699 105.09 89.6399 105.37C89.8399 105.61 89.9899 105.89 90.1099 106.18C90.2099 106.47 90.2899 106.68 90.3399 106.92C90.4599 107.38 90.5299 107.83 90.5899 108.27C90.7299 109.4 90.7699 110.51 90.7099 111.62C90.6699 112.17 90.5299 112.72 90.3799 113.26C90.3199 113.54 90.1999 113.8 90.0399 114.05C89.9099 114.31 89.7499 114.56 89.5899 114.81C89.1199 115.41 89.1499 115.25 89.0299 114.65C88.9499 114.34 88.7799 113.91 88.5099 113.42C88.2899 112.93 88.1599 112.41 88.0599 111.83C88.0199 110.84 88.0099 109.82 87.8699 108.88C87.7999 108.42 87.7199 107.96 87.6099 107.59C87.5899 107.48 87.5499 107.43 87.5199 107.35C87.5199 107.31 87.5199 107.31 87.5199 107.31C87.5199 107.31 87.5199 107.29 87.5199 107.27C87.5599 107.27 87.4099 107.23 87.2699 107.16C87.0599 107.11 86.8799 107.04 86.6599 106.99C86.2099 106.88 85.7199 106.79 85.2299 106.71C84.2299 106.52 83.1899 106.32 82.1299 106.15C79.5999 105.73 76.8999 105.82 74.2599 105.75C71.3499 105.69 68.4399 105.67 65.5199 105.73C63.7299 105.77 61.9299 105.82 60.1499 105.93C57.4599 106.11 54.6899 106.27 52.1799 106.88C51.8599 106.96 51.4899 107.08 51.2899 107.17C51.1099 107.25 50.9299 107.36 50.8699 107.54C50.8299 107.62 50.7999 107.71 50.7799 107.79C50.7299 107.91 50.6999 108.06 50.6599 108.19C50.5899 108.47 50.5399 108.77 50.4899 109.07C50.3999 109.68 50.3599 110.32 50.3299 110.97C50.3199 111.42 50.3099 111.85 50.2999 112.3C50.2499 113.14 50.1899 113.71 49.9899 114.11C49.7499 114.5 49.4799 114.71 49.1399 114.87C48.9899 114.94 48.8399 115.04 48.7099 115.08C48.4899 115.14 48.2999 114.99 48.0899 114.67C47.8799 114.35 47.6099 113.85 47.5799 113.23C47.4799 112.17 47.3899 111.05 47.4199 109.87C47.4399 109.27 47.4899 108.66 47.5999 108.01C47.7499 107.33 47.8499 106.77 48.4599 105.68C48.9799 105.1 49.6499 104.54 50.3999 104.32C50.6699 104.22 50.9199 104.14 51.1499 104.08C51.3799 104.02 51.6299 103.94 51.8499 103.9C52.7599 103.69 53.6299 103.55 54.5099 103.42C57.5199 103 60.4899 102.85 63.4499 102.71V102.79L63.4599 102.78Z" fill="#231F20"/>
<path d="M106.76 31.85C106.33 33.54 105 34.76 103.44 35.15C102.87 35.28 102.27 35.37 101.69 35.24C100.76 35.02 99.8599 34.51 99.2699 33.72C98.6499 32.95 98.5299 31.99 98.5599 31.19C98.5999 30.47 98.7199 29.78 98.9999 29.16C99.3499 28.37 99.9699 27.67 100.76 27.37C101 27.27 101.04 27.43 101.02 27.72C100.98 28 100.97 28.46 100.89 28.81C100.65 30.08 100.77 31.14 101.05 31.81C101.1 32.31 101.82 32.44 102.27 32.46C102.76 32.48 103.43 32.23 103.76 31.67C103.98 31.34 104.07 30.95 104 30.52C103.89 29.93 103.43 29.33 102.73 29.21C102.2 29.11 101.7 29.36 101.4 29.63C101.32 29.67 101.3 29.79 101.22 29.83C100.97 30.02 100.77 30.01 100.13 29.77L99.6899 29.62C99.2299 29.45 98.9499 28.98 99.1999 28.33C99.5799 27.37 100.6 26.62 101.71 26.37C102.84 26.11 104.03 26.45 105.02 27.12C105.75 27.63 106.34 28.4 106.64 29.26C106.95 30.1 107.02 31 106.82 31.87H106.75L106.76 31.85Z" fill="#231F20"/>
<path d="M27.3902 34.13C26.3902 32.7 26.3302 30.9 27.0502 29.46C27.3202 28.94 27.6502 28.43 28.1202 28.08C28.9002 27.52 29.8702 27.17 30.8502 27.23C31.8402 27.26 32.6502 27.8 33.2302 28.34C33.7502 28.84 34.1902 29.38 34.4802 29.99C34.8502 30.77 34.9802 31.69 34.6902 32.49C34.6002 32.74 34.4602 32.67 34.2602 32.46C34.0802 32.25 33.7302 31.94 33.5202 31.66C32.7102 30.65 31.8302 30.05 31.1402 29.83C30.7302 29.54 30.1602 30 29.8502 30.33C29.5202 30.69 29.2702 31.36 29.4802 31.97C29.5902 32.35 29.8302 32.68 30.2002 32.9C30.7202 33.21 31.4702 33.24 32.0202 32.79C32.4402 32.45 32.5802 31.91 32.5702 31.51C32.5902 31.42 32.5202 31.33 32.5302 31.25C32.5402 30.94 32.6902 30.79 33.2902 30.46L33.6902 30.23C34.1202 29.99 34.6602 30.08 34.9902 30.71C35.4702 31.63 35.3702 32.89 34.8402 33.89C34.3002 34.91 33.2602 35.6 32.1202 35.91C31.2602 36.13 30.2902 36.07 29.4402 35.75C28.6002 35.43 27.8802 34.91 27.3402 34.19L27.4002 34.14L27.3902 34.13Z" fill="#231F20"/>
<path d="M63.6402 82.4C64.5102 82.05 64.4102 78.79 63.6202 78.22C62.4402 77.37 53.2802 77.67 51.8002 78.31C50.6702 78.8 50.3902 82.12 51.4502 82.55C52.3502 82.91 61.4502 83.31 63.6502 82.41L63.6402 82.4Z" fill="#231F20"/>
<path d="M86.1001 82.4C86.9701 82.05 86.8701 78.79 86.0801 78.22C84.9001 77.37 75.7401 77.67 74.2601 78.31C73.1301 78.8 72.8501 82.12 73.9101 82.55C74.8101 82.91 83.9101 83.31 86.1101 82.41L86.1001 82.4Z" fill="#231F20"/>
<path d="M48.1302 113.11C53.1702 113.2 58.2002 113.27 63.2402 113.24L68.7502 113.11C75.2302 113.07 81.7102 112.98 88.1902 112.75C91.0702 112.65 93.9502 112.43 96.8002 112.2C98.6302 112.05 100.45 111.82 102.29 111.7C103.21 111.67 104.12 111.59 105.05 111.61L106.43 111.66C106.89 111.69 107.37 111.86 107.83 111.92C108.99 112.12 108.85 112.3 107.93 112.89C107.01 113.57 105.32 114.82 103.21 115.03C99.4702 115.47 95.7102 115.6 91.9502 115.78C88.1902 115.92 84.4102 115.98 80.6202 115.94C76.0802 115.89 71.3802 116.2 66.7402 116.27C61.6402 116.33 56.5402 116.34 51.4502 116.27C48.3102 116.22 45.1802 116.18 42.0402 116.13C37.2902 116.01 32.5202 115.89 27.8102 115.77C24.1502 115.7 20.5502 115.79 16.9202 115.77C16.1202 115.77 15.3402 115.79 14.5302 115.76C11.5502 115.65 10.6102 115.41 10.0202 114.49C9.89022 114.29 9.70022 114.09 9.63022 113.91C9.38022 113.32 10.6302 112.71 12.8102 112.66C19.2802 112.44 26.0702 112.6 32.8902 112.74C37.9502 112.86 43.0402 112.96 48.1202 113.01V113.09L48.1302 113.11Z" fill="#231F20"/>
<path d="M97.9798 19.95C98.0898 20.04 97.9598 20.2 97.7498 20.39C97.6798 20.45 97.4398 20.55 97.3898 20.53C97.2898 20.5 97.1898 20.46 97.0998 20.42C97.0498 20.39 96.5298 19.85 96.3198 19.67C96.1098 19.5 95.9898 19.3 95.8998 19.09L95.2898 17.8C95.2498 17.7 95.2198 17.6 95.2198 17.49C95.2198 17.11 95.1198 16.77 94.9698 16.44C94.9398 16.38 94.9398 16.32 94.8498 16.29C94.6998 16.24 94.3998 15.3 94.4298 15.16C94.4698 14.82 94.4898 14.49 94.5598 14.15C94.5598 14.1 94.5298 14.06 94.6098 14C94.7798 13.86 94.7498 13.77 94.7698 13.67C94.7898 13.53 94.8198 13.38 94.8698 13.24C94.8898 13.17 94.9998 13.08 95.0598 13C95.1198 12.93 95.2998 12.92 95.3298 12.93C95.4098 12.97 95.4898 12.9 95.5698 12.88C95.5998 12.88 95.6298 12.86 95.6598 12.86C95.6898 12.86 95.9098 13 96.1198 13.15C96.3298 13.3 96.5998 13.45 96.5898 13.49C96.5898 13.49 96.7298 13.74 96.8698 14.01C96.9898 14.27 97.1098 14.55 97.1398 14.61C97.1798 14.67 97.1398 14.74 97.1398 14.81C97.1398 14.84 97.5198 15.62 97.5298 15.66C97.5498 15.84 97.6798 15.99 97.5598 16.21C97.5398 16.25 97.5598 16.29 97.5598 16.32C97.6798 16.6 97.6698 16.93 97.7198 17.24C97.7398 17.4 97.7998 17.54 97.8398 17.69C97.8398 17.72 97.8398 17.75 97.8298 17.78C97.8298 17.82 97.8198 17.86 97.8298 17.89C97.9298 18.26 97.9898 18.49 98.1198 18.98C98.1398 19.06 98.0698 19.53 98.1198 19.62C98.1398 19.67 97.9898 19.93 98.0298 19.96L97.9798 19.95Z" fill="#231F20"/>
<path d="M104.4 18.22C104.45 18.32 104.26 18.35 103.97 18.35C103.88 18.35 103.62 18.29 103.58 18.25C103.51 18.18 103.44 18.12 103.39 18.05C103.35 18.01 103.23 17.47 103.2 17.29C103.16 17.11 103.16 16.94 103.18 16.78C103.22 16.44 103.26 16.1 103.29 15.77C103.29 15.69 103.34 15.63 103.4 15.57C103.59 15.36 103.67 15.12 103.71 14.87C103.71 14.83 103.74 14.79 103.69 14.73C103.61 14.63 103.8 13.96 103.9 13.9C104.13 13.75 104.3 13.58 104.49 13.42C104.52 13.4 104.51 13.36 104.59 13.36C104.78 13.36 104.79 13.3 104.85 13.25C104.92 13.18 105 13.11 105.1 13.05C105.15 13.02 105.25 13.02 105.34 13C105.42 12.99 105.6 13.09 105.62 13.11C105.67 13.18 105.78 13.19 105.86 13.22C105.89 13.23 105.93 13.25 105.95 13.26C105.97 13.28 106.3 13.97 106.29 14.03C106.29 14.03 106.27 14.23 106.25 14.44C106.25 14.64 106.23 14.85 106.23 14.91C106.23 14.96 106.17 14.98 106.13 15.01C106.11 15.03 106.04 15.63 106.03 15.65C105.97 15.76 105.99 15.9 105.79 15.96C105.75 15.97 105.75 16 105.75 16.02C105.7 16.23 105.58 16.41 105.45 16.59C105.39 16.68 105.36 16.79 105.32 16.89C105.32 16.91 105.28 16.92 105.26 16.94C105.24 16.96 105.21 16.98 105.2 17C105.11 17.24 104.94 17.46 104.91 17.72C104.9 17.78 104.65 18.01 104.65 18.08C104.64 18.12 104.38 18.18 104.4 18.23V18.22Z" fill="#231F20"/>
<path d="M111.72 25.48C111.63 25.58 111.48 25.48 111.3 25.31C111.24 25.25 111.15 25.05 111.17 25C111.2 24.91 111.23 24.81 111.27 24.73C111.3 24.69 111.8 24.17 111.96 23.96C112.11 23.76 112.31 23.66 112.51 23.54L113.71 22.85C113.8 22.8 113.9 22.77 114.01 22.77C114.38 22.75 114.7 22.63 115.01 22.46C115.06 22.43 115.12 22.42 115.15 22.34C115.2 22.2 116.08 21.84 116.21 21.86C116.54 21.91 116.87 21.92 117.19 21.94C117.24 21.94 117.27 21.91 117.33 21.98C117.47 22.14 117.55 22.09 117.65 22.08C117.78 22.06 117.91 22.06 118.06 22.1C118.13 22.12 118.22 22.2 118.3 22.27C118.37 22.33 118.42 22.59 118.41 22.63C118.38 22.73 118.46 22.84 118.49 22.94C118.5 22.98 118.52 23.02 118.52 23.05C118.52 23.12 117.99 23.82 117.92 23.84C117.9 23.84 116.98 24.37 116.87 24.42C116.82 24.46 116.74 24.42 116.68 24.42C116.65 24.42 115.91 24.8 115.87 24.81C115.7 24.84 115.56 24.96 115.34 24.85C115.3 24.83 115.27 24.85 115.23 24.86C114.96 24.98 114.66 25.01 114.35 25.05C114.2 25.07 114.06 25.14 113.91 25.18C113.88 25.18 113.85 25.18 113.82 25.18C113.78 25.18 113.74 25.17 113.71 25.18C113.37 25.3 113 25.35 112.68 25.5C112.6 25.52 112.15 25.49 112.06 25.53C112.01 25.55 111.76 25.43 111.73 25.48H111.72Z" fill="#231F20"/>
</svg>
