<svg width="128" height="128" viewBox="0 0 128 128" fill="none" xmlns="http://www.w3.org/2000/svg">
<path d="M16.8198 52C15.0598 55.13 13.8598 58.61 13.3798 62.24C13.2198 63.56 13.2198 64.91 13.1098 66.24C12.9398 70.96 13.8498 75.71 15.8198 80.09C16.6998 82.03 17.7598 83.9 18.9498 85.67C19.6898 86.82 20.5398 87.9 21.3498 89.01C22.1398 90.14 22.9698 91.24 23.7298 92.41C24.0898 93.24 23.9898 93.18 23.2298 92.86C22.4798 92.54 21.2598 91.79 20.1298 90.61C18.1998 88.47 16.4998 86.1 15.0098 83.57C13.5698 81.02 12.4498 78.24 11.7898 75.34C10.9898 71.89 10.4098 68.21 10.6598 64.6L10.7498 63.11C10.7698 62.61 10.8098 62.12 10.9098 61.63L11.4198 58.69L12.2398 55.82C12.5298 54.87 12.9598 53.97 13.3198 53.04C13.5298 52.46 13.8198 51.93 14.1198 51.39L14.9898 49.77C15.6498 48.74 16.3198 47.72 17.0398 46.74C19.2698 43.79 22.0998 41.31 25.1698 39.35C27.5798 37.84 30.0598 36.51 32.8098 35.66C33.4198 35.5 33.9998 35.26 34.6398 35.17C36.9898 34.76 37.8098 35.08 38.2898 35.74C38.3998 35.9 38.5398 36.05 38.5998 36.21C38.7898 36.76 37.8898 37.19 36.3998 37.5C34.1698 38 31.9598 38.86 29.8298 39.89C28.7498 40.38 27.7398 41.03 26.6998 41.63L25.2198 42.67C24.7098 43 24.2498 43.39 23.7898 43.78C21.0298 46.06 18.6298 48.84 16.9098 52.02L16.8498 51.99L16.8198 52Z" fill="#231F20"/>
<path d="M87.4899 109.99C86.9099 109.86 86.3499 109.64 85.7899 109.43L84.1199 108.81C83.0499 108.3 81.9499 107.83 80.9199 107.24C80.1799 106.79 79.3799 106.44 78.6699 105.95C76.1499 104.22 73.9499 102.05 72.1799 99.59C71.3699 98.52 70.6299 97.39 69.9999 96.21C69.6099 95.45 69.2899 94.64 68.9599 93.86C68.7799 93.47 68.7599 93.02 68.6599 92.6C68.5799 92.18 68.5199 91.75 68.5299 91.31C68.5599 90.76 68.6599 90.82 69.0999 91.16C69.5699 91.49 70.2699 92.08 70.6999 92.87C71.1299 93.55 71.5099 94.24 71.8999 94.92C72.1299 95.24 72.3699 95.55 72.5899 95.88L73.1899 96.89C73.6599 97.52 74.1199 98.16 74.5699 98.82C75.0799 99.43 75.6099 100.03 76.0999 100.68C76.7499 101.39 77.4899 102.07 78.2699 102.68L79.4999 103.53C79.9099 103.82 80.3199 104.1 80.7599 104.34L82.1799 105.18C82.6499 105.47 83.1699 105.67 83.6599 105.92C84.1599 106.15 84.6499 106.42 85.1699 106.61L86.7299 107.18C87.3599 107.44 88.0299 107.6 88.6899 107.77C89.3599 107.92 90.0099 108.16 90.6899 108.24C92.7299 108.59 94.8199 108.83 96.8899 108.68C97.6899 108.6 98.4799 108.57 99.2599 108.37L101.56 107.82C101.9 107.74 102.21 107.59 102.54 107.49C103.78 107.13 104.22 107.21 104.69 107.74C104.8 107.86 104.92 107.98 105 108.1C105.27 108.53 104.86 109.06 103.92 109.49C101.14 110.78 97.8599 111.2 94.6199 111.12L92.8099 111.04L91.0199 110.79C89.8199 110.66 88.6499 110.33 87.4799 110.04V109.98L87.4899 109.99Z" fill="#231F20"/>
<path d="M51.8802 34.12C51.8802 34.12 49.3402 33.2 47.6402 31.98C46.0902 30.86 45.3202 29.5 46.2702 28.33C46.9502 27.49 51.4102 30.41 52.8202 33.42C53.5502 34.99 51.4602 24.86 48.9702 24.1C46.4802 23.34 41.3902 22.33 40.8602 21.94C40.3302 21.55 39.4802 24.8 41.1502 27.53C42.8202 30.26 45.7402 33.81 47.7202 34.79C49.7002 35.77 51.8802 34.13 51.8802 34.13V34.12Z" fill="#231F20"/>
<path d="M43.6802 24.31C43.2302 24.19 42.8102 24.12 42.3502 23.96L42.0102 23.84L41.8402 23.78L41.7602 23.75C41.7602 23.75 41.8102 23.76 41.8002 23.75L41.7202 23.69C41.7202 23.69 41.6302 23.62 41.5702 23.57L41.4902 23.5C41.4902 23.5 41.4602 23.54 41.4502 23.56C41.4202 23.65 41.3902 23.78 41.3902 23.92C41.3902 23.94 41.3902 23.96 41.3902 23.99L41.4202 24.25C41.4402 24.42 41.4702 24.59 41.5102 24.76C41.5802 25.1 41.6602 25.43 41.7302 25.76C42.2702 28.11 43.6402 30.28 45.6702 31.74C46.5602 32.4 47.6002 32.86 48.6502 33.25C50.0102 33.74 51.4402 33.92 52.8402 34.56C53.2502 34.94 53.2002 34.93 52.7502 35.3C52.5202 35.5 52.2102 35.65 51.8202 35.81C51.6302 35.89 51.4202 35.95 51.2002 35.99C51.0902 36.01 50.9702 36.03 50.8602 36.05C50.7502 36.05 50.6402 36.03 50.5202 36.01C48.9102 35.73 47.2702 35.3 45.7802 34.45C44.3002 33.6 42.9602 32.45 41.9702 31.03C40.7902 29.36 39.7902 27.45 39.4302 25.41C39.3902 25.18 39.3502 24.95 39.3302 24.72L39.2902 24.37L39.2602 23.93C39.2202 23.23 39.2302 22.54 39.3202 21.95C39.3602 21.65 39.4402 21.38 39.5502 21.18C39.6102 20.91 39.9602 21.02 39.9802 20.77C40.3702 20.82 40.5802 20.68 41.3702 21.2C41.6502 21.36 41.9202 21.52 42.1902 21.66C42.2602 21.69 42.3102 21.72 42.4302 21.75L42.5502 21.79L42.7902 21.87C43.9102 22.21 45.1802 22.34 46.4902 22.59C47.4802 22.76 48.5102 23.06 49.4602 23.58C49.6902 23.72 49.9302 23.85 50.1602 23.99L50.7902 24.5L51.1002 24.76L51.3602 25.06L51.8802 25.66C52.3402 26.32 52.8402 26.98 53.1602 27.7C53.3302 28.05 53.5402 28.4 53.6902 28.77L54.1002 29.87C54.2102 30.2 54.3802 30.51 54.4402 30.85C54.7202 32.09 54.6102 32.53 54.0202 32.88C53.8802 32.96 53.7502 33.06 53.6102 33.11C53.1402 33.29 52.6402 32.87 52.3302 32.06L52.0302 31.15L51.6802 30.27L51.3502 29.39L50.9502 28.57C50.4202 27.49 49.8102 26.52 48.9502 25.93C48.3102 25.49 47.5802 25.14 46.6702 24.92C45.7602 24.7 44.7502 24.55 43.6602 24.36V24.31H43.6802Z" fill="#231F20"/>
<path d="M54.5599 42.87C54.5599 42.87 52.4199 41.99 50.3199 41.39C48.2199 40.79 46.8699 40.38 45.0499 41.23C42.6799 42.34 48.9099 43.6 50.5599 43.92C52.2099 44.24 54.5599 42.87 54.5599 42.87Z" fill="#231F20"/>
<path d="M51.8901 32.96C52.5101 31.61 53.2301 30.31 54.0301 29.07C54.3101 28.61 54.5301 28.12 54.8501 27.69C55.3901 26.91 55.9901 26.18 56.5801 25.45C57.2301 24.76 57.8601 24.07 58.5301 23.42C59.1101 22.83 59.6801 22.24 60.2501 21.65C61.0201 20.94 61.6901 20.1 62.7601 19.75C63.1101 19.66 63.1101 19.74 63.0701 20.12C63.0701 20.54 62.9801 21.19 62.6101 21.62C61.2701 23.16 60.0901 24.77 58.7701 26.32C57.9501 27.23 57.3801 28.38 56.7601 29.45C56.0901 30.64 55.4501 31.86 54.8801 33.12C54.5101 33.89 54.2001 34.68 53.9001 35.48C53.6801 36.09 53.5001 36.71 53.3001 37.32C53.1401 37.95 52.9701 38.57 52.8701 39.2C52.8001 39.69 52.7801 40.19 52.7601 40.68C52.7801 41.18 52.7801 41.67 52.7601 42.16C52.7601 42.38 52.7401 42.58 52.7101 42.8C52.5301 43.59 52.2101 43.83 51.6801 43.98C51.5501 44.01 51.4301 44.06 51.3201 44.08C50.9401 44.14 50.6001 43.79 50.3001 43.13C49.4901 41.19 49.9401 39.16 50.3801 37.2C50.7301 35.74 51.2601 34.32 51.8101 32.93L51.8801 32.95L51.8901 32.96Z" fill="#231F20"/>
<path d="M48.6201 42.32C49.3401 42.55 50.1201 42.7 50.9201 42.75C51.2101 42.77 51.5001 42.71 51.7901 42.72C52.8201 42.74 53.8901 42.7 54.9001 42.42C55.3401 42.29 55.7701 42.08 56.1401 41.83C56.3701 41.66 56.6001 41.49 56.8301 41.32C57.0501 41.15 57.2701 40.99 57.5901 40.88C57.7901 40.81 57.9501 40.94 58.0901 41.27C58.1601 41.43 58.2201 41.66 58.2501 41.91C58.2501 42.14 58.1901 42.36 58.0601 42.54C57.5801 43.16 56.9301 43.59 56.2601 43.9C55.5901 44.21 54.8901 44.41 54.1801 44.49C53.3301 44.58 52.4901 44.85 51.6301 44.87C50.6901 44.9 49.7401 44.82 48.8101 44.64C48.2401 44.52 47.6701 44.38 47.1201 44.18C46.2801 43.89 45.4801 43.45 44.7301 42.9C44.1501 42.49 43.5301 42.02 43.1201 41.34C43.0301 41.19 42.9101 41.06 42.8601 40.89C42.7301 40.59 42.7801 40.35 42.8601 40.19C42.9501 40.02 43.1201 39.92 43.3701 39.82C43.4801 39.78 43.6001 39.73 43.7101 39.7C44.0901 39.6 44.4701 39.75 44.7501 39.96C45.1301 40.28 45.4001 40.52 45.7201 40.73C46.0001 40.97 46.3101 41.21 46.6901 41.44C47.2501 41.77 47.9101 42.08 48.6501 42.26V42.32H48.6201Z" fill="#231F20"/>
<path d="M98.0698 110.92C98.0698 110.92 114.18 110.23 115.06 109.33C116.82 107.52 107.59 106.75 107.59 106.75L98.0698 110.92Z" fill="#231F20"/>
<path d="M64.9599 109.32C61.5199 109.25 28.0699 109.78 25.9999 107.61C23.9299 105.44 36.2599 104.08 36.2599 104.08C36.2599 104.08 43.3299 107.84 45.3899 107.51C47.4499 107.18 54.2299 105.2 56.0199 105.47C57.8099 105.74 63.0799 107.51 63.0799 107.51C63.0799 107.51 65.8399 109.33 64.9599 109.31V109.32Z" fill="#231F20"/>
<path d="M11.9599 65.08C12.1999 71.84 14.5999 78.59 18.1399 84.56C19.3899 86.74 21.0099 88.66 22.6699 90.61C25.5999 94.03 28.8999 97.16 32.4399 99.94C35.9999 102.64 39.9399 105.04 44.2199 105.89C46.1299 106.27 47.9899 106.22 49.8799 105.72C51.7999 105.25 53.7899 104.43 56.1499 104.43C56.8999 104.43 57.6899 104.57 58.4299 104.85L59.3499 105.21C59.6299 105.31 59.9299 105.41 60.2199 105.5C61.4099 105.87 62.6499 106.16 63.8499 106.31C64.4499 106.39 65.0299 106.42 65.5599 106.37C66.1099 106.33 66.6599 106.18 67.2099 106.02C68.3199 105.67 69.4099 105.09 70.4099 104.41C71.0499 104 71.3899 103.87 71.5299 104.03C71.6599 104.19 71.5899 104.66 71.2499 105.36C70.9099 106.06 70.2499 106.95 69.1799 107.78C68.6399 108.19 67.9999 108.6 67.2299 108.89C66.4799 109.18 65.5099 109.36 64.5799 109.32C62.9999 109.26 61.6099 108.96 60.2099 108.6C59.5099 108.41 58.8399 108.21 58.1099 107.93L57.5599 107.7L57.2599 107.59C57.0499 107.53 56.8499 107.47 56.6299 107.45C55.7499 107.32 54.6499 107.51 53.4499 107.83C52.2399 108.15 50.9499 108.58 49.4599 108.88C46.3899 109.47 43.2899 108.99 40.5799 108.03C37.8399 107.08 35.3599 105.68 33.0499 104.11C27.5599 100.31 22.4799 95.68 18.2799 90.36C15.9399 87.4 14.1499 84.09 12.6199 80.71C11.0899 77.32 9.98994 73.72 9.31994 70.05C8.57994 65.52 8.55994 60.77 9.84994 56.29C10.7899 52.87 12.5399 49.74 14.6899 47.01C16.8499 44.27 19.4199 41.9 22.2799 39.96C23.3499 39.15 24.5599 38.57 25.6999 37.87L27.5099 37.02L28.4199 36.6C28.7299 36.48 29.0499 36.38 29.3599 36.26L31.2499 35.6C31.8899 35.42 32.5499 35.29 33.1999 35.13C34.4999 34.76 35.8399 34.7 37.1799 34.52C38.3599 34.41 39.5299 34.46 40.7299 34.46C45.1699 34.86 46.4499 35.7 47.1199 36.64C47.2699 36.87 47.4799 37.11 47.5499 37.31C47.6499 37.65 47.2499 37.83 46.4599 37.87C46.0699 37.89 45.5799 37.87 45.0099 37.81C44.7199 37.78 44.4199 37.74 44.0899 37.69C43.7599 37.64 43.4099 37.65 43.0399 37.61C38.6799 37.15 34.1999 37.68 30.0199 39.26C25.8299 40.81 22.0499 43.52 18.8999 46.79C16.6099 49.26 14.6999 52.13 13.5199 55.2L13.0899 56.35L12.7699 57.56C12.5199 58.36 12.4399 59.2 12.2699 60.01C12.0699 61.67 11.9399 63.36 12.0399 65.06H11.9599V65.08Z" fill="#231F20"/>
<path d="M91.0698 55.95C90.4598 52.38 89.2498 48.9 87.3398 45.84L86.1998 44.23C85.7998 43.71 85.3398 43.25 84.9298 42.74C84.7398 42.52 84.5698 42.29 84.3698 42.08L83.7398 41.48C83.3098 41.09 82.9298 40.66 82.4698 40.3C81.5498 39.61 80.6498 38.86 79.6198 38.32C78.6398 37.68 77.5498 37.26 76.4898 36.77C75.9498 36.53 75.3798 36.41 74.8198 36.22C74.2598 36.06 73.6998 35.84 73.1098 35.77C72.0798 35.61 71.0498 35.35 69.9898 35.36C68.9398 35.32 67.8798 35.25 66.8398 35.38C64.1198 35.43 61.5798 36.42 58.7498 36.4C57.8598 36.39 57.9198 36.23 58.5098 35.63C58.8098 35.33 59.2398 34.92 59.7798 34.43C60.0498 34.19 60.3798 34.02 60.7198 33.83C60.8898 33.74 61.0698 33.65 61.2598 33.57C61.4498 33.52 61.6498 33.47 61.8598 33.43C63.3198 33.17 64.7698 32.86 66.2698 32.81C67.0198 32.78 67.7598 32.66 68.5098 32.71L70.7598 32.81C73.7498 33.12 76.7498 33.86 79.4498 35.28C82.6498 36.96 85.7498 39.22 88.0398 42.12C90.5798 45.28 92.2398 49.02 93.2598 52.85C93.5098 54.05 93.8598 55.21 93.9998 56.44C94.1798 57.66 94.2598 58.88 94.2898 60.1C94.3598 63.8 93.7698 67.46 92.8398 70.97C92.1298 73.7 91.2898 76.37 90.0798 78.93C89.7998 79.49 89.5498 80.04 89.2498 80.6C88.6498 81.6 88.2098 82.24 87.7198 82.55C87.2698 82.89 86.8898 83 86.4798 82.99C86.2898 82.99 86.0898 83.02 85.9398 82.99C85.4498 82.88 85.5998 81.85 86.2198 80.38C88.3398 76.18 90.0098 71.55 90.8798 66.72C91.5198 63.15 91.6598 59.45 91.0398 55.94L91.1098 55.92L91.0698 55.95Z" fill="#231F20"/>
<path d="M83.9401 109.99C80.8701 108.99 77.9301 107.45 75.4301 105.37C72.9301 103.29 70.8901 100.82 69.1401 98.18C68.5301 97.2 67.8501 96.26 67.2601 95.27C66.9501 94.74 66.7201 94.44 66.2301 93.4C66.0401 92.97 65.7901 92.51 65.6501 92.1V91.04L65.6401 91.01C65.7501 91.05 65.4001 90.9 65.8801 91.1V91.08C65.8801 91.08 65.9001 91.04 65.9001 91.02L65.9401 90.92L66.0201 90.73C66.0601 90.59 66.1501 90.46 66.2401 90.34C66.5201 90.14 66.9101 89.99 67.3101 89.86C67.7101 89.73 68.1201 89.62 68.5401 89.51L69.3801 89.3C70.3501 89.06 71.3201 88.85 72.2901 88.64C74.2301 88.23 76.1701 87.86 78.1201 87.52C82.0201 86.84 85.9301 86.29 89.8601 85.86C93.3401 85.48 96.8501 85.13 100.34 84.92C102.58 84.76 104.83 84.72 107.08 84.79C108.2 84.82 109.33 84.89 110.45 85C111.57 85.09 112.68 85.39 113.78 85.63C115.15 85.99 114.92 86.18 113.72 86.49C113.05 86.66 112.21 86.88 111.26 87.13C110.25 87.34 109.09 87.44 107.84 87.47C106.73 87.49 105.61 87.53 104.5 87.59L102.83 87.69L101.16 87.75C98.9301 87.84 96.7001 87.99 94.4601 88.18C89.9901 88.56 85.5101 89.08 81.0101 89.71C78.3201 90.09 75.6001 90.62 72.9001 91.26L70.8801 91.76L69.3401 92.17L69.0201 92.27C68.9701 92.29 68.9101 92.3 68.8601 92.33C68.8601 92.38 68.9001 92.43 68.9201 92.48L69.3001 93.28C70.5301 96.01 72.2501 98.49 74.2201 100.71C75.2101 101.82 76.2901 102.84 77.4301 103.76C78.5901 104.66 79.8401 105.45 81.1501 106.12C84.4001 107.74 88.0301 108.67 91.7101 108.85C97.2401 109.1 103.16 108.19 107.47 104.77C109.15 103.47 110.58 101.88 111.72 100.11C112.88 98.35 113.8 96.45 114.57 94.47C114.89 93.59 115.18 92.72 115.45 91.82C116.47 88.47 116.76 87.39 117.64 86.78C117.83 86.64 118.02 86.44 118.19 86.37C118.71 86.12 118.99 87.68 118.42 90.33C117.56 94.24 116.14 98.27 113.63 101.84C113.04 102.75 112.3 103.57 111.59 104.42C110.79 105.19 110.04 106.02 109.12 106.67C108.67 107 108.25 107.39 107.76 107.67L106.31 108.55C105.83 108.85 105.29 109.04 104.78 109.29C104.26 109.51 103.76 109.78 103.21 109.92C101.6 110.45 100.03 110.86 98.4201 111.08C96.8201 111.34 95.1901 111.46 93.5701 111.47C91.9401 111.51 90.3201 111.35 88.7001 111.15C87.0901 110.89 85.4901 110.57 83.9301 110.06V110L83.9401 109.99Z" fill="#231F20"/>
<path d="M99.3301 105.33C96.9801 106.01 94.5101 106.19 92.1101 105.94C91.6701 105.92 91.2401 105.84 90.8001 105.78C90.3701 105.7 89.9201 105.68 89.5001 105.55C86.5001 104.78 83.7301 103.32 81.3601 101.44C80.8501 100.99 80.3301 100.58 79.8301 100.12C79.3601 99.64 78.8601 99.19 78.4101 98.7C77.8501 98.05 77.2301 97.45 76.7801 96.71C76.5601 96.34 76.3001 96 76.1201 95.61C75.9201 95.23 75.8401 94.78 75.6901 94.38C75.5401 93.86 75.6201 93.91 76.0401 94.17C76.2501 94.3 76.5601 94.48 76.9401 94.67C77.1301 94.77 77.2701 94.91 77.4301 95.05C77.6001 95.19 77.7801 95.33 77.9401 95.5C80.0201 98 82.4001 100.17 85.1701 101.93C86.8501 102.96 88.8401 103.55 90.8001 103.9C92.9601 104.29 95.2001 104.28 97.3701 103.84C98.7001 103.55 100.02 103.13 101.25 102.55C103.1 101.67 104.74 100.33 105.96 98.67C106.92 97.38 107.57 95.92 108.21 94.45C108.34 94.12 108.48 93.8 108.61 93.47C108.75 93.17 108.86 92.91 108.97 92.71C109.09 92.51 109.23 92.37 109.34 92.25C109.57 92.01 109.81 91.92 110.08 91.88C110.2 91.86 110.32 91.82 110.41 91.81C110.67 91.78 110.87 92.47 110.66 93.47C109.81 96.31 108.35 99.33 105.88 101.72C104.97 102.6 103.93 103.35 102.82 103.95C101.71 104.57 100.53 104.97 99.3701 105.37L99.3501 105.33H99.3301Z" fill="#231F20"/>
<path d="M94.2099 94.98C93.3599 95 92.2999 96.09 91.9199 96.67C90.8399 98.3 90.9599 99.43 91.9999 99.68C92.9599 99.91 94.2299 98.37 94.7199 97.72C95.1399 97.16 96.2999 94.92 94.2099 94.98Z" fill="#231F20"/>
<path d="M85.0599 92.88C84.4299 92.9 83.6399 93.71 83.3599 94.14C82.5499 95.35 82.6499 96.19 83.4199 96.38C84.1399 96.55 85.0799 95.4 85.4399 94.92C85.7599 94.5 86.6099 92.84 85.0599 92.88Z" fill="#231F20"/>
<path d="M99.96 93.17C100.81 93.15 101.92 94.18 102.34 94.73C103.51 96.3 103.45 97.43 102.42 97.74C101.47 98.03 100.12 96.55 99.6 95.94C99.15 95.4 97.87 93.23 99.96 93.17Z" fill="#231F20"/>
<path d="M91.9898 26.88C92.1498 27.02 91.8998 27.21 91.5198 27.42C91.3998 27.49 90.9998 27.56 90.9298 27.53C90.7898 27.46 90.6498 27.4 90.5298 27.32C90.4698 27.27 90.0298 26.42 89.8498 26.14C89.6798 25.87 89.5798 25.58 89.4998 25.28C89.3398 24.68 89.1098 24.1 88.9898 23.5C88.9598 23.37 88.9498 23.23 88.9698 23.08C89.0298 22.59 88.9398 22.13 88.7998 21.68C88.7798 21.61 88.7698 21.52 88.6798 21.47C88.5198 21.38 88.2398 20.13 88.2698 19.96C88.3398 19.53 88.3498 19.11 88.3998 18.68C88.3998 18.62 88.3698 18.56 88.4598 18.49C88.6698 18.32 88.6098 18.2 88.5998 18.08C88.5998 17.9 88.6298 17.71 88.6798 17.53C88.7098 17.44 88.8098 17.33 88.8898 17.22C88.9598 17.13 89.2598 17.11 89.2998 17.13C89.4098 17.19 89.5398 17.1 89.6598 17.06C89.6998 17.05 89.7498 17.03 89.7898 17.03C89.8398 17.03 90.7498 17.87 90.7598 17.98C90.7898 18 91.2498 19.41 91.3298 19.57C91.3698 19.65 91.3298 19.75 91.3198 19.84C91.3198 19.88 91.7298 21 91.7398 21.05C91.7598 21.29 91.8998 21.52 91.7398 21.8C91.7098 21.85 91.7398 21.9 91.7398 21.95C91.8598 22.36 91.8598 22.78 91.8898 23.21C91.9098 23.42 91.9598 23.63 91.9998 23.85C91.9998 23.89 91.9798 23.93 91.9798 23.97C91.9798 24.02 91.9498 24.08 91.9598 24.12C92.0598 24.62 92.0398 25.14 92.1998 25.63C92.2298 25.74 92.1098 26.34 92.1598 26.47C92.1898 26.54 91.9298 26.85 91.9898 26.9V26.88Z" fill="#231F20"/>
<path d="M95.0802 28.89C95.0002 29.03 94.8202 29.01 94.5902 28.92C94.5202 28.89 94.3802 28.73 94.3902 28.68C94.4102 28.58 94.4302 28.47 94.4602 28.38C94.4802 28.33 94.9402 27.61 95.0802 27.34C95.2202 27.09 95.4102 26.9 95.6002 26.7L96.7402 25.5C96.8302 25.41 96.9202 25.34 97.0302 25.27C97.4002 25.06 97.7002 24.77 97.9802 24.45C98.0302 24.4 98.0902 24.36 98.1002 24.27C98.1102 24.12 98.9402 23.34 99.0802 23.27C99.4302 23.11 99.7502 22.92 100.08 22.74C100.13 22.72 100.15 22.66 100.24 22.68C100.44 22.74 100.5 22.64 100.6 22.57C100.73 22.48 100.87 22.4 101.03 22.35C101.11 22.32 101.24 22.35 101.35 22.35C101.45 22.35 101.6 22.58 101.6 22.62C101.6 22.73 101.73 22.78 101.8 22.86C101.83 22.89 101.86 22.92 101.88 22.94C101.92 23 101.58 23.97 101.49 24.01C101.49 24.01 101.25 24.26 101.01 24.52C100.77 24.78 100.52 25.05 100.47 25.11C100.42 25.17 100.34 25.19 100.26 25.23C100.23 25.25 99.5202 26.03 99.4802 26.06C99.3002 26.19 99.1702 26.36 98.9002 26.39C98.8502 26.39 98.8202 26.43 98.7902 26.46C98.5102 26.71 98.1802 26.9 97.8702 27.11C97.7102 27.22 97.5702 27.35 97.4202 27.47C97.3902 27.49 97.3502 27.5 97.3202 27.51C97.2802 27.53 97.2302 27.54 97.2002 27.57C96.8502 27.86 96.4602 28.1 96.1402 28.42C96.0602 28.48 95.5602 28.67 95.4702 28.75C95.4202 28.79 95.1302 28.8 95.1002 28.86L95.0802 28.89Z" fill="#231F20"/>
<path d="M96.4101 33.2C96.2501 33.27 96.1201 33.09 96.0101 32.81C95.9701 32.72 95.9901 32.45 96.0301 32.41C96.1201 32.33 96.2101 32.25 96.3001 32.19C96.3601 32.16 97.2201 31.91 97.5101 31.78C97.7901 31.67 98.0701 31.58 98.3501 31.56C98.9201 31.5 99.4901 31.42 100.06 31.34C100.19 31.32 100.31 31.33 100.44 31.35C100.88 31.43 101.32 31.39 101.74 31.28C101.81 31.26 101.89 31.26 101.95 31.18C102.05 31.03 103.22 30.88 103.37 30.91C103.76 31.01 104.15 31.04 104.55 31.1C104.61 31.1 104.66 31.07 104.72 31.16C104.87 31.36 104.98 31.31 105.1 31.31C105.27 31.31 105.44 31.32 105.61 31.37C105.7 31.39 105.8 31.5 105.89 31.58C105.98 31.65 105.99 31.96 105.97 32C105.91 32.11 106 32.24 106.03 32.37C106.03 32.41 106.05 32.47 106.06 32.5C106.06 32.57 105.2 33.3 105.09 33.32C105.07 33.32 103.71 33.69 103.51 33.75C103.43 33.78 103.34 33.75 103.25 33.72C103.21 33.73 102.08 33.99 102.03 33.97C101.79 33.96 101.55 34.04 101.3 33.87C101.25 33.84 101.2 33.85 101.16 33.85C100.75 33.89 100.34 33.83 99.9301 33.79C99.7201 33.77 99.5101 33.79 99.3001 33.79C99.2601 33.79 99.2201 33.76 99.1901 33.75C99.1401 33.74 99.0901 33.71 99.0501 33.71C98.5601 33.73 98.0601 33.63 97.5701 33.62C97.4601 33.62 96.9201 33.39 96.7901 33.4C96.7201 33.4 96.4801 33.17 96.4201 33.2H96.4101Z" fill="#231F20"/>
<path d="M25.7701 53.64C25.8101 53.81 25.5901 53.9 25.2701 53.99C25.1701 54.02 24.8801 53.98 24.8401 53.92C24.7701 53.81 24.6901 53.69 24.6301 53.57C24.6301 53.54 24.5501 53.24 24.5401 52.91C24.5201 52.58 24.5601 52.21 24.5801 52.02C24.6001 51.64 24.7301 51.3 24.8601 50.96C25.1601 50.29 25.5001 49.61 26.0001 49.06C26.1101 48.93 26.2301 48.82 26.3801 48.74C26.8701 48.44 27.2901 48.09 27.7101 47.73C27.7801 47.67 27.8701 47.63 27.9001 47.51C27.9201 47.41 28.2501 47.14 28.6401 46.95C29.0301 46.76 29.4401 46.62 29.5501 46.61C30.0701 46.58 30.5701 46.54 31.0601 46.56C31.1301 46.56 31.2001 46.53 31.2701 46.6C31.4501 46.77 31.5801 46.72 31.7301 46.72C31.9301 46.71 32.1301 46.74 32.3301 46.8C32.4301 46.83 32.5301 46.93 32.6201 47.01C32.7001 47.08 32.6601 47.36 32.6301 47.39C32.5501 47.48 32.6201 47.61 32.6301 47.72C32.6301 47.76 32.6301 47.81 32.6301 47.84C32.6301 47.87 32.3801 48.03 32.1601 48.18C31.9301 48.34 31.7101 48.52 31.6701 48.53C31.6601 48.53 31.3501 48.65 31.0401 48.8C30.7401 48.97 30.4301 49.15 30.3801 49.21C30.3201 49.26 30.2401 49.26 30.1601 49.26C30.1101 49.26 29.3401 49.93 29.3201 49.95C29.1301 50.04 29.0201 50.23 28.7401 50.22C28.6801 50.22 28.6601 50.25 28.6301 50.28C28.3801 50.54 28.0701 50.74 27.7901 50.99C27.6401 51.11 27.5601 51.29 27.4301 51.42C27.4101 51.45 27.3601 51.46 27.3301 51.48C27.2901 51.5 27.2501 51.53 27.2201 51.56C26.9701 51.93 26.6301 52.27 26.5201 52.72C26.4701 52.81 26.1301 53.23 26.1001 53.35C26.0701 53.41 25.7501 53.58 25.7801 53.65L25.7701 53.64Z" fill="#231F20"/>
</svg>
