<svg width="128" height="128" viewBox="0 0 128 128" fill="none" xmlns="http://www.w3.org/2000/svg">
<path d="M43.5298 27.5199C44.2998 25.9799 44.7498 25.6199 45.2498 25.5899C46.8698 25.5199 48.5298 25.4199 50.1798 25.3999C51.5998 25.3999 53.0298 25.5399 54.4598 25.5499C56.9198 25.5499 59.3898 25.4899 61.8598 25.4299C62.5898 25.4299 63.3198 25.4299 64.0398 25.3799C64.7598 25.3299 65.4398 25.2499 66.1398 25.2199C66.2498 25.2199 66.3798 25.1399 66.4898 25.2199C66.6547 25.5088 66.7553 25.8299 66.7846 26.1613C66.814 26.4927 66.7714 26.8265 66.6598 27.1399C66.6598 27.2999 66.5598 27.5699 66.4998 27.5699C65.9598 27.6199 65.4998 28.8999 64.9598 28.8999C63.8913 28.9342 62.8276 29.058 61.7798 29.2699C61.3546 29.3197 60.925 29.3197 60.4998 29.2699C59.9598 29.1999 59.4198 29.0299 58.8798 28.9599C58.1298 28.8699 54.6398 28.8099 51.2798 28.6899C49.5998 28.6299 47.9498 28.5499 46.6898 28.4499C45.9447 28.4202 45.2028 28.3366 44.4698 28.1999C44.1296 28.0128 43.8139 27.7844 43.5298 27.5199Z" fill="#231F20"/>
<path d="M47 37.3199C47.63 35.7499 48 35.3999 48.35 35.3199C49.47 35.3199 50.59 35.1799 51.73 35.1599C52.73 35.1599 53.73 35.3099 54.73 35.3099C56.45 35.3099 58.17 35.2299 59.9 35.1699C60.41 35.1699 60.9 35.1699 61.43 35.1699C61.9036 35.0899 62.3808 35.0331 62.86 34.9999C62.94 34.9999 63.03 34.9199 63.11 34.9999C63.3479 35.612 63.3898 36.2829 63.23 36.9199C63.23 37.0799 63.16 37.3499 63.12 37.3599C62.74 37.3599 62.45 38.6799 62.05 38.6799C61.2947 38.7077 60.5457 38.8286 59.82 39.0399C59.5254 39.0899 59.2246 39.0899 58.93 39.0399C58.55 38.9699 58.17 38.7999 57.78 38.7299C57.39 38.6599 54.78 38.5999 52.44 38.4799C51.25 38.4199 50.07 38.3299 49.17 38.2199C48.6354 38.1789 48.1061 38.0851 47.59 37.9399C47.41 37.8499 47.25 37.5899 47 37.3199Z" fill="#231F20"/>
<path d="M14.3399 22.7198C14.4275 22.4361 14.6242 22.1988 14.8867 22.06C15.1492 21.9212 15.4561 21.8924 15.7399 21.9798C18.6599 22.8798 13.3899 25.7798 14.3399 22.7198Z" stroke="#231F20" stroke-width="0.95" stroke-miterlimit="10"/>
<path d="M85.1798 31.5799C85.2673 31.2962 85.464 31.0589 85.7266 30.9201C85.9891 30.7813 86.296 30.7525 86.5798 30.8399C89.4998 31.7499 84.2298 34.6499 85.1798 31.5799Z" stroke="#231F20" stroke-width="0.95" stroke-miterlimit="10"/>
<path d="M97.15 38.0499C97.2376 37.7662 97.4342 37.5288 97.6968 37.3901C97.9593 37.2513 98.2662 37.2225 98.55 37.3099C101.47 38.2199 96.2 41.1199 97.15 38.0499Z" fill="#231F20"/>
<path d="M45.9399 69.17C46.0073 69.0393 46.1001 68.9232 46.2129 68.8286C46.3256 68.734 46.456 68.6627 46.5965 68.619C46.737 68.5753 46.8848 68.5599 47.0313 68.5738C47.1778 68.5877 47.3201 68.6306 47.4499 68.7C50.1599 70.11 44.4499 72 45.9399 69.17Z" stroke="#231F20" stroke-width="0.95" stroke-miterlimit="10"/>
<path d="M21.9998 55.0799C22.1383 54.8178 22.3741 54.6207 22.6566 54.5309C22.939 54.4411 23.2454 54.4659 23.5098 54.5999C26.1898 55.9999 20.4898 57.9199 21.9998 55.0799Z" fill="#231F20"/>
<path d="M76.1698 74.67L72.8298 69.5C72.4198 68.88 71.9598 68.29 71.5698 67.65C70.1798 65.41 68.8298 63.15 67.4198 60.93C66.7998 59.93 66.1098 59 65.4198 58.08C64.495 56.9104 63.6846 55.6546 62.9998 54.33C62.8098 53.91 63.0898 53.75 63.6398 53.81C63.9828 53.8483 64.3191 53.9324 64.6398 54.06C65.0482 54.1865 65.4146 54.4215 65.6998 54.74C66.2098 55.32 66.6998 55.9 67.2098 56.49C67.7198 57.08 68.0898 57.73 68.5198 58.36C69.3598 59.64 70.1498 60.94 70.8998 62.29C71.8498 63.9 72.9998 65.4 74.0698 67L77.4498 72.16C78.1498 73.22 78.8498 74.28 79.5698 75.31C80.6598 76.89 81.7398 78.48 82.9298 79.95C83.8573 81.0605 84.8596 82.1063 85.9298 83.08C86.1587 83.2806 86.3757 83.4943 86.5798 83.72C86.7478 83.8769 86.8987 84.0512 87.0298 84.24C87.1285 84.3594 87.2063 84.4946 87.2598 84.64C87.2991 84.8818 87.3258 85.1255 87.3398 85.37C87.3611 85.4801 87.3946 85.5874 87.4398 85.69C87.7098 85.99 86.5898 86.34 85.6698 85.82C84.4147 85.0865 83.3033 84.1309 82.3898 83C81.3898 82 80.5698 80.86 79.7298 79.75C78.4698 78.09 77.2998 76.37 76.1198 74.67H76.1698Z" fill="#231F20"/>
<path d="M87.73 80.0698C88.1169 81.0776 88.4245 82.1141 88.65 83.1698C88.7823 83.7703 88.8194 84.3878 88.76 84.9998C88.73 85.1992 88.6865 85.3963 88.63 85.5898C88.5391 85.8112 88.4251 86.0223 88.29 86.2198C88.0317 86.5712 87.6873 86.8502 87.29 87.0298C86.8825 87.1995 86.4356 87.2515 86 87.1798C85.6533 87.1258 85.3164 87.0213 85 86.8698C84.4714 86.597 83.9778 86.2613 83.53 85.8698C82.7154 85.1803 81.9595 84.4244 81.27 83.6098C80.27 82.4498 79.33 81.2798 78.46 80.0698C75.36 75.9098 72.53 71.4598 69.78 67.0698C68.56 65.0698 67.29 63.1798 66.01 61.2798C64.39 58.8298 62.73 56.3998 61.31 53.8198C60.88 52.9998 61.07 53.0098 61.76 53.4698C62.8937 54.2051 63.9059 55.1127 64.76 56.1598C66.6113 58.5428 68.3241 61.0303 69.89 63.6098C71.4567 66.1698 73.0367 68.7332 74.63 71.2998C76.49 74.3798 78.82 77.2998 80.96 80.2998C82.086 81.912 83.4059 83.3797 84.89 84.6698C85.62 85.2498 86.48 85.5698 86.73 85.2398C87.14 85.0598 87.03 84.0198 86.8 83.1098C86.0951 80.7574 85.1536 78.4824 83.99 76.3198C82.28 72.9598 80.41 69.6398 78.46 66.4198C76.95 63.9198 75.28 61.5798 73.69 59.1698L72.62 57.5898C71.32 55.5898 71.13 54.8198 71.3 54.1098C71.3245 53.9464 71.3647 53.7856 71.42 53.6298C71.64 53.2198 72.42 53.8398 73.59 55.1998C76.8338 59.5406 79.7773 64.0979 82.4 68.8398C84.4386 72.4537 86.2359 76.1986 87.78 80.0498L87.73 80.0698Z" fill="#231F20"/>
<path d="M60.5201 52.8599C63.7164 52.1516 66.6964 50.6874 69.2101 48.5899C71.7335 46.4693 73.7409 43.8018 75.0801 40.7899C76.0438 38.563 76.6642 36.2029 76.9201 33.7899C77.1119 31.6733 77.0481 29.5413 76.7301 27.4399C76.3323 25.3441 75.6599 23.3099 74.7301 21.3899C73.7372 19.5142 72.4812 17.7901 71.0001 16.2699C69.4581 14.7785 67.7103 13.5157 65.8101 12.5199C64.1041 11.6386 62.2976 10.967 60.4301 10.5199C58.5648 10.1048 56.661 9.88692 54.7501 9.86994C49.8655 9.89908 45.0924 11.3328 41.0001 13.9999C39.7401 14.8199 39.5201 14.3099 40.2901 13.0799C41.6932 11.1293 43.7 9.69532 46.0001 8.99994C51.1806 7.2854 56.759 7.18081 62.0001 8.69994C67.3082 10.1412 71.9218 13.4417 75.0001 17.9999C76.8281 20.754 78.0799 23.8494 78.6801 27.0999C79.3037 30.5275 79.1958 34.0483 78.3634 37.4312C77.5311 40.8142 75.993 43.983 73.8501 46.7299C72.7146 48.1404 71.4306 49.4245 70.0201 50.5599C68.5919 51.6746 67.042 52.624 65.4001 53.3899C61.3279 55.22 56.8221 55.8647 52.4001 55.2499C46.4653 54.5302 41.0161 51.6115 37.1282 47.0701C33.2403 42.5288 31.1965 36.6947 31.4001 30.7199C31.4258 29.5899 31.5361 28.4635 31.7301 27.3499C31.9746 25.8632 32.4291 24.4188 33.0801 23.0599C33.3562 22.4185 33.8109 21.87 34.3901 21.4799C34.5781 21.3439 34.7791 21.2267 34.9901 21.1299C35.5901 21.0099 34.9901 22.5699 34.2901 25.3299C33.1992 29.5148 33.2823 33.9192 34.5301 38.0599C35.7905 42.264 38.3364 45.9674 41.8101 48.6499C44.433 50.6655 47.4653 52.0823 50.6941 52.801C53.923 53.5197 57.27 53.5227 60.5001 52.8099L60.5201 52.8599Z" fill="#231F20"/>
<path d="M90.7299 69.4599C90.2162 68.3526 89.5752 67.3089 88.8199 66.3499C88.5366 66.0396 88.2326 65.7489 87.9099 65.4799C87.4384 65.0113 86.8575 64.6676 86.2199 64.4799C85.5542 64.3157 84.8536 64.3683 84.2199 64.6299C83.5947 64.8784 83.0316 65.2607 82.5699 65.7499C81.9299 66.3599 81.4599 67.1299 80.7599 67.7499C80.5499 67.9099 80.0699 67.5899 79.7599 67.0499C79.5866 66.7891 79.4941 66.483 79.4941 66.1699C79.4941 65.8568 79.5866 65.5507 79.7599 65.2899C80.4669 64.381 81.3304 63.6055 82.3099 62.9999C83.388 62.3522 84.6509 62.0813 85.8999 62.2299C86.6554 62.3368 87.3884 62.5665 88.0699 62.9099C88.3899 63.0799 88.6699 63.2799 88.9699 63.4699C89.2699 63.6599 89.4999 63.9099 89.7499 64.1299C90.7405 65.1476 91.5791 66.3028 92.2399 67.5599C92.6499 68.2999 93.0099 69.0599 93.3499 69.8199C93.8699 70.9799 94.2899 72.1699 94.7299 73.3399C95.0699 74.2499 95.4999 75.1199 95.8299 76.0399C95.9136 76.2394 95.987 76.443 96.0499 76.6499C96.2699 77.4299 96.1399 77.7299 95.5899 77.9899C95.4645 78.0567 95.3341 78.1136 95.1999 78.1599C94.9746 78.2199 94.7348 78.191 94.5302 78.0794C94.3255 77.9677 94.1715 77.7818 94.0999 77.5599C93.3799 76.0799 92.8299 74.4899 92.2099 72.8999C91.7633 71.7261 91.2526 70.5777 90.6799 69.4599H90.7299Z" fill="#231F20"/>
<path d="M100.28 73.9199C99.8908 72.9404 99.4296 71.9911 98.8999 71.0799C98.6999 70.7499 98.4499 70.4699 98.2299 70.1599C97.5758 69.0731 96.6483 68.1767 95.5399 67.5599C95.0703 67.3591 94.5514 67.3034 94.0499 67.3999C93.4237 67.6245 92.8095 67.8815 92.2099 68.1699C91.9899 68.2299 91.6299 67.7699 91.4899 67.1699C91.3798 66.887 91.3682 66.5751 91.4571 66.2848C91.546 65.9945 91.7302 65.7426 91.9799 65.5699C93.0007 65.0392 94.1733 64.8767 95.2999 65.1099C96.3356 65.3542 97.2754 65.9006 97.9999 66.6799C98.8158 67.4515 99.5683 68.2875 100.25 69.1799C100.92 70.1547 101.506 71.1851 102 72.2599C102.3 72.9099 102.56 73.5699 102.82 74.2599C103.21 75.2599 103.52 76.2599 103.82 77.2599C104.08 78.0499 104.44 78.7899 104.7 79.6099C104.764 79.7866 104.817 79.9669 104.86 80.1499C105.01 80.8499 104.86 81.1499 104.26 81.2999C104.12 81.2999 103.99 81.3799 103.85 81.3999C103.644 81.4187 103.437 81.3729 103.258 81.269C103.078 81.1652 102.936 81.0082 102.85 80.8199C102.31 79.6199 101.85 78.2799 101.39 76.9299C101.04 75.9299 100.68 74.9299 100.24 73.9299L100.28 73.9199Z" fill="#231F20"/>
<path d="M111.9 95.2899C111.76 93.2399 111.56 91.1999 111.24 89.1699C111.12 88.4399 110.94 87.7099 110.8 86.9799C110.398 84.4133 109.648 81.9136 108.57 79.5499C108.12 78.5754 107.432 77.7295 106.57 77.0899C106.084 76.7762 105.518 76.6095 104.94 76.6099C104.653 76.6288 104.368 76.6757 104.09 76.7499C103.95 76.7499 103.8 76.8099 103.65 76.8599L103.19 77.0299C102.8 77.1499 102.48 76.6699 102.58 76.0299C102.633 75.6146 102.815 75.2264 103.1 74.9199C103.479 74.5146 103.997 74.268 104.55 74.2299C105.66 74.1295 106.771 74.4195 107.69 75.0499C108.113 75.3391 108.502 75.6745 108.85 76.0499C109.156 76.3917 109.44 76.7524 109.7 77.1299C110.625 78.5483 111.301 80.1141 111.7 81.7599C112.19 83.6399 112.79 85.5299 113.15 87.4499C113.54 89.5499 113.8 91.6699 114 93.7799C114.11 95.0799 114.21 96.3799 114.28 97.6799C114.39 99.6799 114.41 101.68 114.46 103.6C114.46 105.12 114.63 106.6 114.64 108.14C114.64 108.48 114.64 108.8 114.64 109.14C114.58 110.4 114.35 110.79 113.73 110.98C113.593 111.029 113.453 111.069 113.31 111.1C112.84 111.1 112.52 110.61 112.48 109.73C112.32 107.11 112.29 104.36 112.2 101.59C112.12 99.5299 112.04 97.4499 111.85 95.3899L111.9 95.2899Z" fill="#231F20"/>
<path d="M83.2698 100.34C80.8404 97.8023 78.623 95.0699 76.6398 92.17C75.9163 91.1124 75.2487 90.0175 74.6398 88.89C73.4821 86.8502 72.7443 84.5993 72.4698 82.27C72.3823 81.6146 72.4256 80.9484 72.5972 80.3098C72.7689 79.6713 73.0654 79.0732 73.4698 78.55C73.9644 78.0017 74.6379 77.6472 75.3698 77.55C76.062 77.492 76.7563 77.6343 77.3698 77.96C78.2995 78.4587 79.1573 79.081 79.9198 79.81C80.6698 80.5 81.3798 81.2 82.0398 81.91C82.9098 82.83 83.7598 83.74 84.6098 84.61C85.0498 85.04 85.4698 85.46 85.8998 85.84C86.2651 86.1919 86.6923 86.4733 87.1598 86.67C87.2472 86.6872 87.3315 86.7175 87.4098 86.76C87.4743 86.8038 87.5233 86.8668 87.5498 86.94C87.5498 87.06 87.5498 87.38 87.0998 87.55C86.5332 87.7282 85.9227 87.707 85.3698 87.49C84.6778 87.26 84.041 86.8888 83.4998 86.4C81.4998 84.58 79.8998 82.64 78.1698 81C77.5108 80.2771 76.6618 79.7538 75.7198 79.49C75.5629 79.4806 75.406 79.5082 75.2618 79.5708C75.1176 79.6333 74.9901 79.729 74.8898 79.85C74.5968 80.173 74.3994 80.5712 74.3198 81C74.1601 82.3969 74.3957 83.8105 74.9998 85.08C75.5507 86.4874 76.2197 87.8456 76.9998 89.14C78.7891 92.0185 80.8774 94.7 83.2298 97.14C84.6695 98.6779 86.1882 100.14 87.7798 101.52C90.1886 103.634 92.7487 105.569 95.4398 107.31C97.6419 108.836 99.2659 111.058 100.05 113.62C100.225 114.166 100.362 114.724 100.46 115.29C100.612 116.02 100.643 116.77 100.55 117.51C100.521 117.716 100.457 117.916 100.36 118.1C100.257 118.251 100.139 118.391 100.01 118.52C99.8898 118.63 99.7898 118.77 99.6998 118.84C99.4298 119.1 98.6998 118.27 98.4598 116.84C98.1111 114.842 97.3369 112.943 96.1898 111.27C95.596 110.486 94.892 109.792 94.0998 109.21L93.4798 108.77L92.7498 108.27C92.2498 107.943 91.7598 107.61 91.2798 107.27C88.3927 105.204 85.6954 102.885 83.2198 100.34H83.2698Z" fill="#231F20"/>
<path d="M34.7599 48.9099C37.0757 51.7375 40.0538 53.9496 43.4299 55.3499C44.0399 55.6299 44.6899 55.7999 45.3199 56.0199C45.9499 56.2399 46.6099 56.3699 47.2599 56.5299C51.9179 57.6494 56.8082 57.3001 61.2599 55.5299C63.2264 54.7325 65.058 53.6363 66.6899 52.2799C68.7195 50.4721 70.559 48.4617 72.1799 46.2799C72.7299 45.6299 73.1799 46.0099 73.1799 46.9199C73.176 47.4994 73.0746 48.0741 72.8799 48.6199C72.5974 49.3439 72.2026 50.0189 71.7099 50.6199C67.756 55.3108 62.1558 58.3095 56.0599 58.9999C52.4223 59.4439 48.7331 59.1721 45.1999 58.1999C41.3329 57.0667 37.8008 55.0071 34.9099 52.1999C33.1427 50.4795 31.6669 48.4835 30.5399 46.2899C29.6806 44.6191 29.0515 42.8396 28.6699 40.9999C28.5567 40.5525 28.4732 40.0982 28.4199 39.6399C28.3599 39.1799 28.2799 38.7199 28.2299 38.2599C28.1466 37.3357 28.1232 36.4071 28.1599 35.4799C28.258 32.6152 28.9207 29.798 30.1099 27.1899C30.3727 26.6159 30.6699 26.0582 30.9999 25.5199C32.2499 23.5199 32.9999 23.0699 33.6899 23.0699C33.8559 23.049 34.0238 23.049 34.1899 23.0699C34.6599 23.2299 34.2699 24.0699 33.4499 25.4399C30.8648 29.4873 29.8016 34.3214 30.4499 39.0799C30.9768 42.6719 32.4778 46.0508 34.7899 48.8499L34.7599 48.9099Z" fill="#231F20"/>
</svg>
