<svg width="128" height="128" viewBox="0 0 128 128" fill="none" xmlns="http://www.w3.org/2000/svg">
<path d="M50.2499 112.79C46.5499 112.79 40.1399 112.08 40.1399 104.4C40.1399 97.48 47.7199 93.86 52.4999 95.09C52.4999 95.09 46.3899 93.12 43.4499 94.66C40.5099 96.2 38.0299 99.44 37.5199 102.54C37.0099 105.64 37.5999 108.75 39.4699 110.32C41.3299 111.89 46.1299 113.61 46.1299 113.61L50.2499 112.79Z" fill="#231F20"/>
<path d="M101.41 113.37C97.71 113.37 91.3 112.66 91.3 104.98C91.3 98.06 98.88 94.44 103.66 95.67C103.66 95.67 97.55 93.7 94.61 95.24C91.67 96.78 89.19 100.02 88.68 103.12C88.17 106.22 88.76 109.33 90.63 110.9C92.49 112.47 97.29 114.19 97.29 114.19L101.41 113.37Z" fill="#231F20"/>
<path d="M63.5402 72.72C62.2402 68.23 59.1402 66.8 54.9002 67.5C46.1202 68.95 47.5802 86.07 47.7402 91.05L46.5502 88.88C46.5502 88.88 44.8702 68.48 48.2002 64.91C51.5402 61.34 60.6502 61.76 60.6502 61.76C60.6502 61.76 62.1302 62.81 63.0802 67.24C64.0302 71.67 63.5302 72.73 63.5302 72.73L63.5402 72.72Z" fill="#231F20"/>
<path d="M97.3098 89.53C97.5198 86.71 98.9298 77.71 95.8598 71.64C92.0298 64.05 82.2798 66.98 81.0698 74.25C81.0698 74.25 82.4598 63.27 83.9898 62.14C85.5198 61.01 94.0198 62.93 95.5998 64.87C97.1798 66.81 97.2998 67.21 97.6698 71.66C98.0398 76.11 98.6898 87.38 98.6898 87.38L97.3098 89.53Z" fill="#231F20"/>
<path d="M81.9499 69.22C81.6099 67.71 77.4099 64.98 71.7299 64.98C65.6199 64.98 63.4199 67.66 63.4199 67.66C63.4199 67.66 62.1799 61.56 61.1299 61.2C60.0799 60.84 71.7299 60.74 71.7299 60.74L83.9999 62.14L81.9599 69.22H81.9499Z" fill="#231F20"/>
<path d="M38.6602 97.88C32.8402 100.68 26.7102 95.63 31.2102 94.22C31.2102 94.22 24.6002 93.94 24.3702 96.26C24.1402 98.58 30.1702 99.18 30.1702 99.18L38.6502 97.88H38.6602Z" fill="#231F20"/>
<path d="M58.3199 95.08C58.3199 95.08 59.7899 95.6 60.6599 98.39C61.5299 101.18 57.2899 99.17 57.2899 99.17L53.8799 95.08H58.3299H58.3199Z" fill="#231F20"/>
<path d="M109.93 95.08C109.93 95.08 112.31 96.69 112.72 99.95L108.09 100.44L105 95.87L109.93 95.08Z" fill="#231F20"/>
<path d="M31.7201 61.51C32.4901 57.25 33.5901 53.03 35.1001 48.94L35.9701 46.7C36.2801 45.96 36.6201 45.24 36.9701 44.52C38.2701 42.01 39.7601 39.62 41.4801 37.4C43.2101 35.19 45.1301 33.13 47.2301 31.28C49.0801 29.62 51.1201 28.14 53.2601 26.89C53.9601 26.51 54.6401 26.08 55.3801 25.77C56.1101 25.44 56.8301 25.08 57.6101 24.86L58.7601 24.5C59.1501 24.4 59.5501 24.34 59.9501 24.26C60.3501 24.19 60.7401 24.1 61.1401 24.07C61.5501 24.06 61.9601 24.12 62.3601 24.16C63.3701 24.35 63.2101 24.33 62.4501 24.82C61.6901 25.39 60.3901 26.14 58.8401 26.77C56.0701 27.85 53.4701 29.39 51.0701 31.23C48.6401 33.04 46.4101 35.16 44.3601 37.48C41.9001 40.27 39.9801 43.69 38.4501 47.15C36.7701 50.96 35.6601 55.09 34.7301 59.23C34.1801 61.79 33.7101 64.37 33.3801 66.97C32.8601 70.91 32.4701 74.89 32.3801 78.85C32.3101 81.92 32.4401 84.93 32.6401 87.96C32.6701 88.63 32.7501 89.28 32.7901 89.95C32.9401 92.44 32.9001 93.24 32.4601 93.82C32.3601 93.95 32.2701 94.12 32.1701 94.21C31.8301 94.49 31.4401 93.49 31.1301 91.66C30.3301 86.21 30.0801 80.37 30.2901 74.53C30.4201 70.19 30.9001 65.83 31.6501 61.53H31.7101L31.7201 61.51Z" fill="#231F20"/>
<path d="M69.3398 52.83C71.1298 52.76 72.8998 52.8 74.6698 52.9C75.3098 52.93 75.9598 52.9 76.6098 52.97C77.7498 53.08 78.8798 53.26 80.0198 53.51C80.5898 53.64 81.1598 53.78 81.7398 53.97C82.0398 54.07 82.3298 54.17 82.6398 54.32C82.9598 54.46 83.3898 54.71 83.6498 55.01C83.7498 55.15 83.8598 55.28 83.9398 55.43C84.0998 55.79 84.1798 55.96 84.2598 56.2C84.3498 56.42 84.4298 56.66 84.4998 56.89C84.6298 57.36 84.7398 57.84 84.7898 58.31C84.8698 59 84.9198 59.7 84.8298 60.36C84.7198 61.02 84.5698 61.64 84.3498 62.22C84.2098 62.58 83.9098 62.54 83.5198 62.18C83.1298 61.82 82.6598 61.11 82.5498 60.44C82.4398 59.7 82.4398 59.05 82.2798 58.44C82.1998 58.14 82.1198 57.84 82.0098 57.55C81.9698 57.4 81.9198 57.25 81.8698 57.11C81.8398 57.04 81.8198 56.96 81.7898 56.89L81.7698 56.83C81.7798 56.8 81.7698 56.77 81.7698 56.74C81.7498 56.72 81.7898 56.72 81.7198 56.68L81.4898 56.56C81.1298 56.4 80.7098 56.25 80.2698 56.1C78.8798 55.66 77.2898 55.66 75.7598 55.53C74.0698 55.4 72.3498 55.33 70.6498 55.35C69.5998 55.37 68.5498 55.41 67.5098 55.52C66.7298 55.6 65.9498 55.72 65.1898 55.87C64.4498 56.02 63.6798 56.26 63.1898 56.62C63.0598 56.7 63.0198 56.79 62.9298 56.85C62.8398 57.04 62.6798 57.64 62.5898 58.11C62.4898 58.61 62.4098 59.11 62.3298 59.62C62.2898 59.88 62.2698 60.14 62.2298 60.4C62.0798 61.37 61.8698 61.62 61.3298 61.79C61.2098 61.83 61.0798 61.89 60.9698 61.91C60.5898 62.01 60.2098 61.51 60.1798 60.7C60.1598 59.9 60.1998 59.11 60.2998 58.3C60.3498 57.89 60.4098 57.49 60.5098 57.06C60.5498 56.85 60.6098 56.63 60.6798 56.4C60.7298 56.2 60.9098 55.73 61.1398 55.45C61.5998 54.83 62.0998 54.53 62.5298 54.28C62.9698 54.03 63.3998 53.86 63.8098 53.71C64.7598 53.36 65.6798 53.19 66.5998 53.06C67.5198 52.93 68.4298 52.84 69.3298 52.78V52.84L69.3398 52.83Z" fill="#231F20"/>
<path d="M64.7001 71.79C64.8201 73.28 64.8801 74.77 64.8801 76.25C64.8801 76.79 64.9601 77.33 64.9301 77.87C64.9001 79.78 64.6201 81.68 64.3801 83.56C64.2701 84.4 64.1501 85.23 64.0401 86.07C63.8901 87.13 63.8601 88.24 63.1301 89.19C62.8701 89.48 62.8801 89.43 62.6701 89.1C62.3901 88.76 62.0201 88.17 61.9601 87.56C61.9901 86.5 62.0601 85.44 62.1201 84.38C62.1201 83.85 62.2401 83.33 62.3201 82.8C62.4001 82.27 62.4901 81.74 62.5901 81.21C62.8001 79.93 62.7601 78.59 62.8201 77.28C62.8601 75.83 62.8901 74.38 62.8301 72.93C62.8001 72.04 62.7501 71.14 62.6301 70.26C62.4601 68.92 62.2401 67.58 61.8901 66.29C61.5901 65.3 61.1501 64.37 60.6801 63.48C60.5801 63.28 60.4801 63.09 60.3701 62.9C60.1701 62.54 60.0901 62.29 60.1301 62.05C60.1601 61.82 60.2701 61.64 60.4701 61.44C60.5601 61.35 60.6401 61.24 60.7301 61.17C61.0301 60.92 61.5001 61.07 61.9801 61.59C63.1401 63.24 63.7801 65.26 64.1601 67.27C64.3101 68.02 64.4001 68.77 64.5101 69.53C64.5801 70.29 64.6601 71.04 64.7501 71.79H64.7001Z" fill="#231F20"/>
<path d="M82.12 72.4C81.95 73.77 81.83 75.16 81.81 76.56C81.83 77.07 81.84 77.58 81.86 78.09C81.82 79.9 81.87 81.73 82.06 83.55C82.17 84.35 82.28 85.16 82.46 85.94C82.72 86.94 82.89 87.95 82.86 89.05C82.83 89.4 82.75 89.38 82.45 89.19C82.13 89.01 81.54 88.65 81.19 88.1C80.86 87.62 80.64 87.1 80.49 86.57C80.32 86.04 80.14 85.51 80.02 84.98C79.79 83.9 79.72 82.79 79.69 81.68C79.69 80.35 79.43 79 79.38 77.64C79.37 76.15 79.43 74.66 79.59 73.17L79.74 71.8L79.96 70.44C80.18 69.06 80.56 67.71 80.94 66.37C81.28 65.34 81.52 64.28 81.99 63.27C82.09 63.05 82.15 62.81 82.3 62.6C82.81 61.83 83.1 61.67 83.68 61.89C83.81 61.94 83.94 61.97 84.05 62.03C84.41 62.22 84.56 62.78 84.35 63.31C83.77 64.93 83.23 66.57 82.86 68.35C82.71 69 82.59 69.68 82.45 70.34C82.36 71.02 82.24 71.7 82.18 72.39H82.12V72.4Z" fill="#231F20"/>
<path d="M78.57 95.86L71.34 95.67C70.46 95.65 69.58 95.71 68.7 95.69C65.6 95.61 62.49 95.53 59.39 95.46C58.01 95.44 56.63 95.46 55.26 95.5C54.38 95.52 53.5 95.57 52.61 95.57C51.72 95.57 50.84 95.54 49.94 95.16C49.36 94.91 49.51 94.72 49.99 94.34C50.23 94.15 50.56 93.84 50.95 93.62C51.15 93.51 51.36 93.38 51.58 93.3C51.81 93.24 52.05 93.2 52.29 93.19C54.06 93.12 55.85 93.06 57.64 93.04C59.43 93.04 61.23 93.11 63.04 93.23C65.2 93.38 67.45 93.21 69.66 93.21L76.96 93.27L81.46 93.37C83.73 93.41 86.01 93.51 88.27 93.53C90.03 93.55 91.75 93.44 93.52 93.48C93.91 93.48 94.3 93.48 94.69 93.51C95.43 93.56 95.91 93.76 96.25 93.95C96.57 94.14 96.75 94.41 96.81 94.73C96.84 94.88 96.88 95.03 96.87 95.16C96.79 95.59 96.27 95.77 95.29 95.86C92.34 95.98 89.09 95.98 85.85 95.97C83.43 95.95 81 95.94 78.58 95.92V95.86H78.57Z" fill="#231F20"/>
<path d="M68.1998 98.54C69.7698 98.61 71.3498 98.65 72.9298 98.68C73.5098 98.68 74.0798 98.63 74.6598 98.64C76.6998 98.69 78.7398 98.74 80.7798 98.79C81.6898 98.81 82.5898 98.76 83.4898 98.71C84.0698 98.66 84.6498 98.66 85.2198 98.69L85.6598 98.72L86.0998 98.84C86.3898 98.92 86.6698 99 86.9698 99.09C87.3298 99.21 87.2898 99.27 86.9898 99.49C86.7798 99.66 86.5598 99.83 86.3798 99.99C86.2298 100.11 86.0998 100.22 85.9698 100.32C85.8998 100.38 85.8198 100.42 85.7398 100.49L85.4998 100.55L84.6298 100.73L84.1898 100.82L83.7498 100.85L81.9898 100.94C80.8198 100.97 79.6298 100.99 78.4398 100.88C77.0098 100.77 75.5398 100.94 74.0898 100.96C72.4898 100.98 70.8898 100.97 69.2898 100.96L66.3298 100.91C64.8298 100.87 63.3198 100.83 61.8398 100.79C60.6798 100.78 59.5198 100.88 58.3198 100.83C58.0598 100.83 57.7798 100.82 57.5098 100.78C57.0098 100.7 56.6698 100.61 56.4498 100.37C56.2498 100.13 56.1998 99.87 56.2398 99.54C56.2498 99.39 56.2598 99.24 56.2898 99.11C56.3498 98.88 56.5198 98.71 56.7398 98.57C56.9698 98.43 57.2098 98.3 57.4798 98.32C59.2998 98.28 61.3798 98.32 63.4698 98.38C65.0298 98.42 66.6098 98.49 68.1998 98.49V98.55V98.54Z" fill="#231F20"/>
<path d="M60.82 60.2C66.45 59.7 72.05 59.71 77.65 60.03C79.69 60.15 81.74 60.25 83.77 60.5C85.56 60.72 87.36 61 89.14 61.37C90.93 61.74 92.71 62.19 94.48 62.92C95.36 63.3 96.26 63.72 97.1 64.52C97.31 64.72 97.51 64.96 97.69 65.25C97.89 65.59 97.94 65.79 98.03 66.01C98.19 66.46 98.36 66.9 98.51 67.35C99.02 69.15 99.34 70.96 99.54 72.77C99.9 75.98 100 79.2 99.93 82.38C99.9 84.42 99.74 86.47 99.48 88.5L99.24 90.02C99.13 90.52 99 91.03 98.88 91.53C98.76 92.03 98.58 92.53 98.43 93.02C98.38 93.27 98.2 93.5 98.07 93.74C97.93 93.97 97.82 94.21 97.66 94.43C96.77 95.49 97.01 95.32 97.1 94.24C97.03 93.09 96.77 91.14 96.96 88.9C97.18 86.92 97.22 84.9 97.32 82.9C97.41 80.89 97.41 78.88 97.32 76.88C97.26 74.88 97.06 72.89 96.75 70.94C96.66 70.46 96.6 69.96 96.48 69.5L96.13 68.09L95.68 66.75C95.68 66.75 95.64 66.62 95.63 66.6C95.63 66.59 95.61 66.57 95.61 66.55C95.61 66.52 95.55 66.46 95.53 66.42C95.45 66.32 95.34 66.2 95.2 66.07C94.49 65.48 93.36 65 92.24 64.64C91.1 64.27 89.9 63.99 88.68 63.75C86.24 63.28 83.72 62.99 81.23 62.76C75.74 62.25 70.18 62.11 64.65 62.37C61.26 62.55 57.85 62.85 54.57 63.59C53.34 63.87 52.11 64.22 51.01 64.72C50.46 64.97 49.94 65.27 49.55 65.62C49.35 65.8 49.2 65.99 49.1 66.17L48.77 66.98C48.02 69.33 47.71 71.93 47.51 74.46C47.24 78.43 47.35 82.35 47.65 86.25C47.7 87.11 47.83 87.95 47.9 88.81C48.26 92 48.33 92.99 47.95 93.8C47.87 93.98 47.82 94.21 47.75 94.32C47.57 94.7 46.73 93.5 46.19 91.1C45.48 87.54 45.12 83.84 45.05 80.08C45 76.31 45.19 72.52 45.91 68.63C45.99 68.27 46.06 67.91 46.14 67.54L46.45 66.42C46.57 66.04 46.75 65.64 46.9 65.25C47.12 64.77 47.51 64.23 47.86 63.93C48.59 63.24 49.34 62.84 50.07 62.5C50.8 62.17 51.52 61.92 52.24 61.7C55.11 60.85 57.96 60.46 60.8 60.16V60.22L60.82 60.2Z" fill="#231F20"/>
<path d="M72.69 17.4C72.69 19.13 72.5 20.84 72.61 22.57C72.66 23.29 73.2099 23.98 73.9899 23.95C74.6999 23.92 75.41 23.34 75.37 22.57C75.26 20.84 75.4499 19.13 75.4499 17.4C75.4499 16.68 74.82 15.99 74.07 16.02C73.32 16.05 72.7 16.62 72.69 17.4Z" fill="#231F20"/>
<path d="M38.2101 110.31C38.2101 110.31 29.4601 111.74 30.2301 113.36C31.6401 116.3 48.7501 114.94 48.7501 114.94L40.2301 112.46L38.2101 110.31Z" fill="#231F20"/>
<path d="M91.3599 110.67C91.3599 110.67 82.6198 112.09 83.3798 113.72C85.0898 117.35 101.9 115.3 101.9 115.3L93.3798 112.82L91.3599 110.67Z" fill="#231F20"/>
<path d="M67.02 16.6C71.66 17.01 76.33 17.12 80.98 16.94C82.9 16.87 82.91 13.87 80.98 13.94C76.32 14.12 71.66 14 67.02 13.6C66.21 13.53 65.52 14.34 65.52 15.1C65.52 15.97 66.21 16.53 67.02 16.6Z" fill="#231F20"/>
<path d="M51.9402 26.94C56.3202 24.57 61.1302 23.04 66.0102 22.32C67.2302 22.16 68.4602 22.04 69.6802 21.92C70.9102 21.84 72.1302 21.84 73.3602 21.8C75.8102 21.78 78.2702 21.95 80.7202 22.28C84.2702 22.8 87.8102 23.61 91.1602 24.98C97.0702 27.34 102.37 31.26 106.32 36.24C108.28 38.72 109.93 41.57 111.01 44.5L111.46 45.59L111.84 46.7L112.59 48.92C112.97 50.43 113.46 51.92 113.74 53.45C114.91 58.85 115.5 64.37 115.69 69.81C115.91 76.8 115.72 83.84 114.47 90.69C113.96 92.81 113.78 92.51 113.36 90.63C113.14 89.69 112.95 88.37 112.76 86.79C112.61 85.21 112.55 83.38 112.61 81.4C112.95 74.41 112.94 67.42 112.09 60.55C111.63 57.13 111.06 53.7 110.08 50.4C109.89 49.56 109.56 48.76 109.31 47.94C109.05 47.12 108.78 46.3 108.43 45.52C107.78 43.91 107.14 42.36 106.24 40.92C105.22 39.17 103.98 37.51 102.54 36.01C101.85 35.23 101.06 34.54 100.3 33.83C99.4902 33.17 98.6902 32.48 97.8302 31.88C94.4002 29.44 90.5102 27.6 86.4602 26.43C82.0002 25.15 77.3102 24.62 72.6302 24.74C67.9502 24.84 63.2602 25.47 58.8202 26.96C56.0802 27.83 53.4602 29.07 51.0102 30.58C48.5602 32.08 46.3002 33.91 44.3002 35.98C41.2602 39.13 38.7502 42.8 37.2002 46.88C35.6202 50.98 34.6002 55.33 33.8102 59.66C32.6402 66.42 32.1402 73.16 32.0602 79.92C32.0202 81.41 32.1002 82.87 32.0902 84.37C32.1202 85.76 32.1402 86.91 32.1602 87.87C32.1902 88.83 32.2102 89.61 32.1602 90.25C32.0602 91.54 31.9302 92.3 31.6702 92.93C31.5602 93.22 31.4602 93.59 31.3502 93.77C31.1602 94.07 30.9202 93.66 30.5902 92.65C30.4302 92.15 30.2302 91.5 30.0802 90.71C29.9102 89.93 29.8302 89 29.7202 87.96C29.2702 81.79 29.3602 75.44 29.9702 69.03C30.5802 62.63 31.5902 56.16 33.4702 49.78C33.7902 48.59 34.2502 47.43 34.6402 46.25L35.3602 44.5C35.5902 43.92 35.8502 43.34 36.1602 42.77C36.4602 42.2 36.7502 41.62 37.0702 41.07C37.4102 40.54 37.7202 39.99 38.0902 39.47C38.7902 38.42 39.5402 37.41 40.3402 36.44C41.9402 34.5 43.7102 32.68 45.6802 31.1C47.6402 29.52 49.7002 28.04 51.9202 26.86L51.9602 26.91L51.9402 26.94Z" fill="#231F20"/>
<path d="M26.36 99.55C26.04 99.44 25.71 99.32 25.38 99.16C25.24 99.1 24.96 98.95 24.73 98.82C24.5 98.68 24.28 98.53 24.07 98.37C23.66 98.04 23.35 97.63 23.15 97.18C22.98 96.72 22.9 96.23 22.93 95.74C23.05 94.89 23.54 94.11 24.34 93.68C24.57 93.54 24.8 93.41 25.04 93.32C25.3 93.2 25.47 93.14 25.64 93.08C25.98 92.96 26.32 92.87 26.65 92.82C28.99 92.47 31.17 92.59 33.36 92.68C34.33 92.72 35.29 92.76 36.25 92.79C37.47 92.86 38.73 92.76 39.89 93.51C40.25 93.71 40.19 93.75 39.85 93.96C39.51 94.13 38.86 94.82 38.17 94.89C36.96 94.93 35.75 94.96 34.53 95C33.32 94.97 32.11 94.93 30.89 94.87C29.44 94.8 27.93 95.11 26.66 95.48C26.23 95.62 26.13 95.65 25.98 95.72C25.84 95.79 25.68 95.91 25.66 96.09C25.58 96.41 25.84 96.7 26.14 96.87C26.84 97.23 27.87 97.48 28.83 97.62C30.32 97.84 31.88 97.97 33.43 97.95C34.63 97.94 35.81 97.75 37.04 97.66C37.31 97.64 37.58 97.6 37.87 97.6C38.4 97.65 38.78 97.76 39.09 97.98C39.25 98.1 39.4 98.24 39.53 98.48C39.61 98.62 39.66 98.76 39.65 98.95C39.65 99.12 39.54 99.24 39.45 99.3C39.27 99.38 39.11 99.33 38.99 99.26C38.89 99.19 38.82 99.1 38.74 99.03C38.64 98.96 38.86 99.1 38.87 99.12C38.9 99.14 38.94 99.16 38.98 99.16H39.02C39 99.16 39.02 99.16 38.96 99.2C38.94 99.22 38.92 99.23 38.91 99.26C38.88 99.29 38.85 99.33 38.83 99.37C38.8 99.44 38.73 99.56 38.66 99.7L38.59 99.88L38.57 99.91C38.52 99.97 38.4 100.02 38.25 100.05C37.33 100.29 36.22 100.34 35.11 100.42C34 100.48 32.85 100.47 31.68 100.42C29.94 100.32 28.19 100.16 26.31 99.62V99.56L26.36 99.55Z" fill="#231F20"/>
<path d="M114.78 94.38C115.6 94.48 116.43 94.61 117.3 94.82C117.52 94.87 117.73 94.93 117.96 95C118.21 95.07 118.34 95.12 118.7 95.26L119.6 95.75C119.87 95.94 120.14 96.14 120.34 96.38C120.97 97.04 121.33 97.94 121.19 98.83C121.08 99.61 120.57 100.24 119.87 100.65C119.53 100.87 119.12 101.01 118.72 101.13C118.52 101.2 118.32 101.25 118.11 101.28C117.95 101.31 117.82 101.33 117.68 101.35C116.57 101.5 115.53 101.49 114.49 101.48C113.57 101.46 112.66 101.43 111.75 101.41C110.6 101.37 109.42 101.41 108.31 100.85C107.97 100.63 108.03 100.55 108.36 100.27C108.69 99.93 109.27 99.5 109.92 99.41C112.21 99.23 114.47 99.19 116.63 99.16C116.93 99.16 117.31 99.1 117.52 99.05C117.63 99.04 117.75 99.01 117.85 98.96C118.07 98.87 118.22 98.64 118.16 98.4C118.12 98.14 117.88 97.96 117.6 97.83C117 97.58 116.27 97.4 115.54 97.27C114.63 97.1 113.68 96.98 112.72 96.9C111.27 96.78 109.79 96.66 108.32 96.63C107.17 96.61 106.04 96.72 104.85 96.67C104.59 96.67 104.33 96.65 104.06 96.6C103.81 96.56 103.61 96.49 103.44 96.43C103.27 96.35 103.15 96.24 103.05 96.14C102.86 95.94 102.79 95.69 102.79 95.4C102.79 95.26 102.78 95.13 102.79 95.01C102.87 94.61 103.32 94.39 103.95 94.25C105.79 94.07 107.83 94.09 109.95 94.09C111.52 94.1 113.13 94.17 114.79 94.31V94.38H114.78Z" fill="#231F20"/>
<path d="M50.9698 114.67C47.2998 115.72 43.1898 115.16 40.1398 112.74C39.0498 111.87 38.0698 110.78 37.4498 109.53C35.2898 105.11 36.2898 99.71 39.4998 96.3C40.9198 94.81 42.8198 93.63 44.8098 93.19C46.0798 92.89 47.3798 92.73 48.6698 92.82C49.3198 92.87 49.9598 92.98 50.5798 93.14C51.1998 93.3 51.8298 93.5 52.3498 93.94C52.6498 94.28 52.7498 94.45 52.7198 94.51C52.6798 94.58 52.4698 94.58 52.0898 94.72C51.3098 95.04 50.1598 95.35 48.9398 95.41C46.7698 95.47 44.5998 95.88 42.9598 96.89C41.2698 97.92 39.9298 99.67 39.2098 101.73C38.3398 104.2 38.8598 107.22 40.3898 109.3C41.2298 110.44 42.4098 111.35 43.7898 111.89C45.1698 112.42 46.6998 112.64 48.2198 112.52C50.0698 112.35 51.9098 111.65 53.2698 110.43C55.3098 108.52 56.7698 105.59 56.3698 102.81C56.2398 101.71 55.8798 100.66 55.3598 99.74C54.8198 98.82 54.1498 98.01 53.3598 97.3C53.0198 96.99 52.6298 96.74 52.2598 96.45C51.5398 95.94 51.0498 95.64 50.7498 95.3C50.4498 94.96 50.3198 94.65 50.2698 94.26C50.2498 94.08 50.1898 93.9 50.1898 93.74C50.1898 93.48 50.4198 93.34 50.8498 93.3C51.0598 93.28 51.3298 93.29 51.6398 93.32C51.9498 93.36 52.2698 93.49 52.6398 93.64C54.7498 94.57 56.9198 96.24 58.0598 98.66C58.6398 99.85 58.9998 101.14 59.1498 102.45C59.2998 103.71 59.2098 105.21 58.8298 106.49C58.2798 108.41 57.3198 110.11 55.9998 111.57C55.3398 112.29 54.5598 112.98 53.6798 113.5C52.8298 114.04 51.9198 114.41 50.9898 114.71L50.9598 114.65L50.9698 114.67Z" fill="#231F20"/>
<path d="M97.81 115.53C93.96 115.26 90.29 113.02 88.51 109.58C87.86 108.34 87.39 106.99 87.29 105.6C86.94 100.68 89.93 96.05 94.19 94.1C96.08 93.25 98.28 92.88 100.3 93.23C101.59 93.44 102.86 93.78 104.02 94.36C104.6 94.65 105.15 95 105.67 95.39C106.19 95.77 106.69 96.2 107.01 96.81C107.16 97.24 107.19 97.43 107.13 97.48C107.07 97.53 106.87 97.45 106.47 97.44C105.62 97.44 104.44 97.29 103.29 96.88C101.26 96.1 99.09 95.66 97.18 95.97C95.22 96.29 93.31 97.4 91.87 99.04C90.13 101 89.47 103.98 90.11 106.53C90.74 109.36 93.11 111.73 96.02 112.55C97.79 113.08 99.77 113.02 101.51 112.42C104.14 111.42 106.64 109.3 107.33 106.57C107.96 104.41 107.58 102.2 106.67 100.32C106.47 99.9 106.21 99.52 105.97 99.11C105.5 98.37 105.16 97.89 105.01 97.47C104.86 97.04 104.86 96.71 104.96 96.33C105.01 96.16 105.02 95.96 105.09 95.82C105.2 95.58 105.46 95.54 105.87 95.66C106.07 95.72 106.32 95.83 106.59 95.98C106.86 96.14 107.11 96.38 107.4 96.65C109 98.32 110.37 100.7 110.5 103.37C110.58 104.69 110.42 106.03 110.05 107.3C109.7 108.52 109.04 109.89 108.19 110.92C106.93 112.48 105.38 113.66 103.61 114.51C102.73 114.92 101.75 115.27 100.77 115.42C100.29 115.51 99.8 115.58 99.31 115.59C98.82 115.64 98.33 115.61 97.84 115.59V115.52L97.81 115.53Z" fill="#231F20"/>
<path d="M50.2498 103.93C50.2498 106.6 46.1998 107.13 45.3398 104.71C44.1198 101.31 50.2498 100.19 50.2498 103.93Z" fill="#231F20"/>
<path d="M101.15 103.97C101.15 106.64 97.1002 107.17 96.2402 104.75C95.0202 101.35 101.15 100.23 101.15 103.97Z" fill="#231F20"/>
<path d="M106.61 23.45C106.6 23.64 106.42 23.76 106.2 23.86C106.13 23.89 105.97 23.85 105.95 23.79C105.91 23.66 105.87 23.53 105.84 23.44C105.84 23.37 105.74 22.27 105.64 21.88C105.59 21.51 105.66 21.17 105.7 20.83L106 18.72C106.02 18.56 106.07 18.41 106.13 18.27C106.35 17.77 106.46 17.24 106.5 16.7C106.5 16.61 106.54 16.52 106.47 16.42C106.37 16.25 106.59 14.8 106.69 14.63C106.96 14.15 107.17 13.78 107.4 13.36C107.43 13.3 107.42 13.22 107.53 13.19C107.8 13.11 107.79 12.96 107.84 12.83C107.93 12.64 108.03 12.46 108.16 12.29C108.23 12.2 108.38 12.14 108.5 12.07C108.61 12.01 108.91 12.14 108.94 12.18C109.02 12.29 109.19 12.26 109.32 12.29C109.37 12.29 109.42 12.31 109.46 12.32C109.52 12.35 109.96 13.65 109.9 13.76C109.9 13.77 109.85 14.2 109.8 14.65C109.76 15.1 109.68 15.56 109.67 15.66C109.67 15.76 109.58 15.84 109.52 15.93C109.49 15.97 109.27 17.3 109.25 17.35C109.14 17.61 109.13 17.89 108.87 18.11C108.82 18.15 108.81 18.21 108.8 18.26C108.69 18.72 108.48 19.16 108.29 19.61C108.2 19.84 108.15 20.08 108.07 20.31C108.06 20.35 108.02 20.39 108 20.43C107.97 20.48 107.93 20.53 107.92 20.58C107.76 21.14 107.53 21.68 107.41 22.24C107.35 22.36 106.93 22.92 106.89 23.07C106.86 23.15 106.58 23.38 106.58 23.46L106.61 23.45Z" fill="#231F20"/>
<path d="M113.26 28.3C113.11 28.43 112.92 28.25 112.7 27.94C112.63 27.84 112.56 27.51 112.59 27.44C112.66 27.32 112.74 27.19 112.82 27.09C112.87 27.03 113.77 26.5 114.07 26.28C114.36 26.07 114.67 25.94 114.99 25.81C115.63 25.59 116.28 25.38 116.94 25.19C117.09 25.15 117.24 25.13 117.39 25.15C117.92 25.2 118.42 25.1 118.92 24.93C119 24.9 119.09 24.9 119.16 24.78C119.22 24.68 119.59 24.55 119.97 24.46C120.36 24.38 120.76 24.38 120.85 24.41C121.32 24.59 121.78 24.64 122.24 24.83C122.31 24.86 122.37 24.83 122.44 24.95C122.6 25.24 122.73 25.18 122.87 25.24C123.07 25.31 123.26 25.39 123.46 25.5C123.56 25.56 123.66 25.69 123.75 25.79C123.84 25.88 123.81 26.18 123.78 26.21C123.7 26.31 123.78 26.46 123.79 26.58C123.79 26.62 123.8 26.68 123.79 26.71C123.79 26.75 123.53 26.97 123.26 27.25C123.12 27.4 122.99 27.55 122.89 27.66C122.78 27.75 122.7 27.82 122.67 27.82C122.64 27.88 121.14 28.26 120.98 28.34C120.89 28.38 120.8 28.32 120.7 28.29C120.66 28.31 119.46 28.55 119.41 28.55C119.15 28.52 118.91 28.64 118.63 28.41C118.57 28.37 118.52 28.38 118.47 28.39C118.04 28.45 117.59 28.39 117.14 28.37C116.91 28.36 116.69 28.41 116.47 28.43C116.43 28.43 116.38 28.41 116.34 28.4C116.29 28.39 116.23 28.37 116.18 28.37C115.66 28.46 115.1 28.37 114.58 28.5C114.46 28.52 113.83 28.38 113.69 28.43C113.61 28.45 113.29 28.23 113.23 28.28L113.26 28.3Z" fill="#231F20"/>
<path d="M4.77996 97.27C4.54996 97.28 4.36996 97.13 4.20996 96.97C4.15996 96.92 4.16996 96.78 4.23996 96.76C4.38996 96.7 4.52996 96.64 4.62996 96.6C4.70996 96.6 5.96996 96.23 6.38996 96.12C6.79996 96.05 7.20996 96.02 7.61996 96.01L10.11 95.88C10.29 95.88 10.48 95.88 10.66 95.91C11.29 96.02 11.92 96.05 12.55 96.01C12.65 96.01 12.76 96.01 12.86 95.95C13.03 95.84 14.74 95.82 14.96 95.87C15.51 96 16.06 96.07 16.61 96.17C16.69 96.18 16.77 96.15 16.85 96.24C17.02 96.43 17.19 96.4 17.36 96.41C17.6 96.43 17.84 96.49 18.07 96.56C18.19 96.6 18.31 96.71 18.42 96.79C18.53 96.87 18.47 97.13 18.44 97.16C18.33 97.25 18.42 97.37 18.44 97.48C18.44 97.52 18.44 97.57 18.44 97.6C18.44 97.66 17.07 98.29 16.92 98.26C16.89 98.26 14.92 98.44 14.65 98.46C14.53 98.48 14.41 98.43 14.29 98.4C14.22 98.4 12.63 98.52 12.56 98.53C12.23 98.5 11.89 98.57 11.57 98.4C11.51 98.37 11.44 98.37 11.37 98.38C10.8 98.41 10.23 98.28 9.65996 98.2C9.36996 98.16 9.07996 98.16 8.78996 98.13C8.73996 98.13 8.68996 98.1 8.62996 98.08C8.55996 98.06 8.49996 98.04 8.42996 98.03C7.73996 97.99 7.05996 97.86 6.36996 97.86C6.20996 97.9 5.46996 97.52 5.28996 97.52C5.18996 97.5 4.85996 97.27 4.76996 97.29L4.77996 97.27Z" fill="#231F20"/>
<path d="M14.6701 89.57C14.4901 89.58 14.3501 89.44 14.2301 89.28C14.1901 89.23 14.2001 89.09 14.2601 89.07C14.3701 89.01 14.4801 88.95 14.5601 88.91C14.6201 88.91 15.6101 88.53 15.9401 88.42C16.2601 88.34 16.5801 88.32 16.9001 88.31L18.8301 88.19C18.9701 88.19 19.1101 88.19 19.2501 88.22C19.7301 88.33 20.2201 88.37 20.7001 88.32C20.7801 88.32 20.8601 88.32 20.9401 88.26C21.0701 88.15 22.3901 88.13 22.5601 88.17C22.9901 88.3 23.4201 88.37 23.8501 88.47C23.9101 88.48 23.9801 88.45 24.0301 88.54C24.1601 88.73 24.2901 88.7 24.4301 88.71C24.6101 88.73 24.8001 88.79 24.9801 88.86C25.0701 88.9 25.1601 89.01 25.2601 89.09C25.3401 89.17 25.3001 89.43 25.2801 89.46C25.2001 89.55 25.2701 89.67 25.2801 89.78C25.2801 89.82 25.2801 89.87 25.2801 89.9C25.2801 89.96 24.2201 90.59 24.1101 90.56C24.1001 90.56 23.7001 90.6 23.2901 90.65C22.8801 90.7 22.4401 90.74 22.3501 90.76C22.2601 90.78 22.1601 90.73 22.0701 90.71C22.0301 90.7 20.7701 90.85 20.7201 90.84C20.4601 90.81 20.2001 90.88 19.9401 90.7C19.8901 90.67 19.8401 90.67 19.7801 90.68C19.3301 90.71 18.8901 90.57 18.4501 90.5C18.2201 90.46 18.0001 90.45 17.7701 90.43C17.7301 90.43 17.6901 90.4 17.6501 90.38C17.6001 90.36 17.5501 90.34 17.5001 90.33C16.9701 90.29 16.4401 90.15 15.9001 90.16C15.7801 90.2 15.2101 89.82 15.0601 89.82C14.9801 89.8 14.7301 89.58 14.6601 89.59L14.6701 89.57Z" fill="#231F20"/>
</svg>
