<svg width="128" height="128" viewBox="0 0 128 128" fill="none" xmlns="http://www.w3.org/2000/svg">
<path d="M47.73 59.31C47.73 59.31 51.03 61.59 56.37 63.5C66.5 67.13 81.56 71.22 83.1 75.07C84.22 77.86 70.41 82.94 67.02 84.84C63.63 86.74 51.21 93.64 50.84 92.57C50.66 92.04 50.74 84.27 50.24 76.51C49.74 68.63 48.2 60.92 48.2 60.92L47.73 59.31Z" fill="#231F20"/>
<path d="M69.2799 119.36C17.6999 119.38 7.46994 81.73 16.1199 58.22C25.9899 31.41 48.5799 27.51 53.6899 26.38L46.1499 30.09C46.1499 30.09 33.0199 33.83 25.2699 45.65C17.5199 57.47 15.7799 70.03 16.5799 75.89C17.3799 81.75 18.8799 91.56 25.1199 99.93C31.3599 108.3 46.1499 116.43 46.1499 116.43L64.8799 119.24L69.2699 119.35L69.2799 119.36Z" fill="#231F20"/>
<path d="M28.0602 45.18C19.4902 56.09 16.2602 71.04 19.7302 84.53C21.0102 89.44 23.1202 94.14 26.0502 98.24C31.2102 105.47 38.8002 110.98 47.4102 113.68C51.6902 115.07 56.1702 115.88 60.6902 116.17C65.2202 116.39 69.7702 116.06 74.2402 115.26C82.2102 113.94 89.5902 110.08 95.4202 104.64C102.9 97.61 107.75 87.99 109.22 77.84C109.61 76.26 109.79 75.54 109.85 75.59C109.92 75.64 109.93 76.43 110.21 77.84C110.42 78.56 110.42 79.41 110.47 80.41C110.58 81.42 110.5 82.54 110.33 83.77C110.25 84.38 110.18 85.03 110.07 85.69C109.91 86.34 109.75 87.01 109.58 87.71C109.28 89.12 108.69 90.51 108.11 91.98C105.87 97.1 102.64 101.76 98.7402 105.77C94.8402 109.77 90.1702 113.09 84.9902 115.32C82.4102 116.42 79.6902 117.34 76.9702 117.9C74.2702 118.53 71.5102 118.91 68.7502 119.18C63.2202 119.66 57.5902 119.34 52.1502 118.12C45.6402 116.71 39.2402 114.05 33.6202 110.11C27.9602 106.23 23.3402 100.79 20.2702 94.69C18.5002 91.37 17.3602 87.78 16.4502 84.15C16.0902 82.31 15.6802 80.49 15.5402 78.62C15.2702 76.77 15.2802 74.89 15.2402 73.03C15.3502 69.3 15.6802 65.56 16.6502 61.95L16.9702 60.59L17.3902 59.26C17.6802 58.37 17.9502 57.48 18.2502 56.6C18.9802 54.89 19.5902 53.12 20.4902 51.49C24.5102 43.24 31.0002 36.32 38.6902 31.43C44.5702 27.82 51.2102 25.32 58.0902 24.49C64.9502 23.7 72.0102 24.31 78.4902 26.63C83.5402 28.36 88.2402 30.96 92.3802 34.23C93.3802 35.09 94.4502 35.89 95.4002 36.79C96.3602 37.68 97.3102 38.6 98.2102 39.55C100.03 41.46 101.73 43.5 103.24 45.7C104.57 47.63 105.78 49.62 106.74 51.81C107.22 52.81 107.54 53.78 107.88 54.64C108.15 55.53 108.43 56.33 108.6 57.08C108.77 57.83 108.93 58.51 109.03 59.14C109.11 59.77 109.18 60.33 109.23 60.84C109.37 62.89 109.15 64.08 108.71 65.03C108.52 65.46 108.34 66.01 108.15 66.25C107.83 66.66 107.5 65.99 107.16 64.51C107 63.77 106.75 62.83 106.54 61.71C106.4 61.16 106.26 60.56 106.1 59.92C105.95 59.28 105.72 58.61 105.53 57.9C103.01 49.45 96.9402 42.09 89.7702 36.33C82.5402 30.7 73.4202 27.37 64.1102 27.29L61.5202 27.31L58.9402 27.55C58.0802 27.6 57.2202 27.76 56.3702 27.92C55.5202 28.09 54.6602 28.19 53.8202 28.41C52.1502 28.88 50.4602 29.26 48.8502 29.92C48.0402 30.24 47.2002 30.47 46.4202 30.86L44.0602 31.96C43.2502 32.29 42.5402 32.8 41.7702 33.21C41.0302 33.67 40.2302 34.03 39.5402 34.56C38.1202 35.57 36.6502 36.51 35.3502 37.68C32.6202 39.86 30.2602 42.45 28.1102 45.19L28.0402 45.16L28.0602 45.18Z" fill="#231F20"/>
<path d="M42.4602 41.14C39.2502 43.35 36.3202 46.03 33.9802 49.2C33.5702 49.79 33.1502 50.37 32.7702 50.98C32.4102 51.6 32.0502 52.22 31.6702 52.83C30.4202 55.03 29.3902 57.35 28.5602 59.76C27.8002 62.19 27.2002 64.68 26.8702 67.23C26.7202 68.36 26.6702 69.51 26.6002 70.64C26.6102 71.78 26.6002 72.93 26.6502 74.06C26.7402 75.52 26.8402 76.97 27.0402 78.42C27.1402 79.14 27.1702 79.88 27.2802 80.6C27.3702 81.33 27.5002 82.05 27.3502 82.83C27.1802 83.33 27.0902 83.56 27.0402 83.55C26.9802 83.55 26.9002 83.34 26.5402 83.01C25.8402 82.35 24.9102 81.02 24.6302 79.28C23.4802 73.17 23.7202 66.67 25.6502 60.63C26.8002 57.03 28.2102 53.33 30.2802 50.05C32.5202 46.43 35.4702 43.3 38.7602 40.67C40.8102 39.07 43.0102 37.68 45.3102 36.5C48.8102 34.73 52.5602 33.46 56.3702 32.71C59.3302 32.12 62.3002 31.72 65.3302 31.76C66.0002 31.79 66.6502 31.76 67.3202 31.83C69.8102 32.09 70.5602 32.52 70.8902 33.37C70.9702 33.56 71.0802 33.76 71.1102 33.93C71.2002 34.52 70.1302 34.82 68.4602 34.67C63.4602 34.31 58.1802 34.74 53.1102 36.22C49.3402 37.27 45.7302 38.99 42.4802 41.21L42.4402 41.16L42.4602 41.14Z" fill="#231F20"/>
<path d="M82.6202 77.68C79.9802 79.52 77.2802 81.13 74.5602 82.71C71.8402 84.28 69.0902 85.79 66.3302 87.27C64.3102 88.35 62.3202 89.46 60.2702 90.47L57.5502 91.79C56.6502 92.24 55.7402 92.69 54.8102 93.12L53.3102 93.78C52.5502 94.18 51.7002 94.55 50.9902 94.58C50.6302 94.62 50.3402 94.56 50.0602 94.48C49.9302 94.44 49.7602 94.36 49.6602 94.24C49.6102 94.09 49.6202 93.9 49.5902 93.73L49.3802 91.65C49.3502 91.32 49.3002 90.92 49.2902 90.66V89.91L49.3202 88.42V85.44C49.2802 83.45 49.2202 81.46 49.1002 79.48C48.9002 75.96 48.4802 72.43 47.8902 68.98C47.6902 67.87 47.5002 66.77 47.2602 65.66L46.6202 62.34C46.1702 60.13 45.7202 57.93 45.4502 55.67C45.5302 54.92 45.5902 54.59 45.6702 54.59C45.7602 54.59 45.9102 54.9 46.3702 55.4C46.8402 55.89 47.3002 56.66 47.8202 57.59C48.0702 58.06 48.3502 58.57 48.5802 59.14C48.8002 59.71 49.0002 60.31 49.1702 60.95C49.7602 63.22 50.3002 65.51 50.6302 67.84C51.0002 70.16 51.2902 72.49 51.5002 74.83C51.9402 79.51 52.0502 84.22 51.9102 88.93C51.8902 89.57 51.8702 90.22 51.8502 90.86L51.8002 91.67C51.7802 91.76 51.8502 91.76 51.9002 91.76C51.9502 91.76 52.0002 91.74 52.0602 91.73C52.1602 91.7 52.2702 91.67 52.3702 91.63L52.8702 91.43L53.8302 91.02C56.4202 89.9 58.9302 88.5 61.4202 87.14C66.8902 84.14 72.3202 81 77.5302 77.59C79.1202 76.54 80.7102 75.46 82.1602 74.29L82.6902 73.85L83.1502 73.45C83.3202 73.29 83.5002 73.12 83.6402 72.91C83.7002 72.81 83.7702 72.68 83.7102 72.57C83.6402 72.47 83.5902 72.36 83.5002 72.27C83.4202 72.18 83.3502 72.08 83.2402 72L83.1102 71.88C83.0302 71.81 82.9502 71.74 82.8602 71.68C80.6602 70.12 78.0002 68.82 75.3802 67.6C72.7402 66.38 70.0502 65.24 67.3702 64.12C63.2002 62.37 59.0402 60.78 54.9702 58.72C54.0802 58.26 53.1902 57.82 52.3102 57.29C50.6702 56.32 49.7202 55.42 49.1302 54.74C48.8402 54.38 48.6502 54.06 48.5302 53.76C48.4102 53.46 48.3902 53.14 48.3802 52.86C48.3802 52.6 48.3402 52.31 48.3802 52.12C48.5602 51.51 49.9402 52.12 52.1502 53.38C55.4502 55.26 59.1102 56.9 62.8802 58.51C66.6502 60.12 70.5102 61.76 74.4102 63.47C77.3002 64.77 80.2002 66.06 83.1002 67.84C83.8302 68.33 84.5002 68.8 85.2702 69.51C85.9302 70.04 86.2602 70.66 86.7102 71.24C86.8202 71.56 87.0002 71.86 87.0602 72.19C87.1602 72.52 87.1102 72.88 87.0302 73.2C86.8702 73.85 86.4402 74.47 85.9302 75.03C85.6802 75.29 85.3702 75.62 85.1502 75.8L84.6502 76.23C83.9902 76.78 83.3302 77.27 82.6602 77.75L82.6102 77.69L82.6202 77.68Z" fill="#231F20"/>
<path d="M102.91 30.9C102.74 31.04 102.5 30.87 102.23 30.59C102.15 30.5 102.04 30.18 102.08 30.11C102.15 29.97 102.23 29.82 102.31 29.7C102.36 29.64 103.3 28.84 103.59 28.49C103.74 28.34 103.88 28.18 104.04 28.07C104.21 27.97 104.38 27.89 104.55 27.81L106.63 26.78C106.78 26.71 106.95 26.66 107.13 26.65C107.73 26.61 108.27 26.39 108.8 26.14C108.89 26.1 108.99 26.08 109.04 25.94C109.12 25.71 110.61 25.15 110.83 25.17C111.38 25.2 111.91 25.17 112.47 25.22C112.55 25.22 112.61 25.16 112.72 25.27C112.97 25.53 113.1 25.43 113.27 25.42C113.5 25.42 113.71 25.36 113.99 25.5C114.12 25.56 114.29 25.7 114.43 25.79C114.56 25.87 114.61 26.16 114.59 26.21C114.53 26.34 114.66 26.47 114.71 26.58C114.73 26.62 114.75 26.68 114.76 26.71C114.76 26.73 114.71 26.83 114.64 27C114.57 27.16 114.49 27.42 114.36 27.57C114.13 27.93 113.89 28.28 113.82 28.3C113.81 28.3 113.4 28.56 112.97 28.82C112.53 29.04 112.07 29.28 111.98 29.34C111.89 29.41 111.76 29.37 111.64 29.36C111.58 29.36 110.28 30.07 110.22 30.08C109.92 30.14 109.67 30.36 109.29 30.17C109.21 30.13 109.16 30.17 109.1 30.18C108.61 30.35 108.06 30.38 107.53 30.45C107.26 30.49 107.01 30.59 106.75 30.65C106.7 30.66 106.64 30.64 106.59 30.63C106.52 30.63 106.45 30.61 106.4 30.63C106.1 30.72 105.78 30.78 105.47 30.85C105.16 30.93 104.85 30.99 104.54 31.06C104.4 31.09 103.62 30.96 103.46 31.02C103.37 31.04 102.97 30.82 102.9 30.89L102.91 30.9Z" fill="#231F20"/>
<path d="M86.38 19.09C86.48 19.25 86.28 19.43 85.96 19.62C85.86 19.68 85.54 19.73 85.47 19.69C85.35 19.61 85.23 19.53 85.13 19.45C85.1 19.42 84.96 19.19 84.79 18.92C84.6 18.66 84.42 18.36 84.34 18.2C84.16 17.9 84.06 17.6 83.97 17.28C83.8 16.65 83.56 16.02 83.42 15.38C83.39 15.24 83.39 15.09 83.42 14.94C83.52 14.42 83.44 13.93 83.3 13.45C83.28 13.37 83.28 13.28 83.17 13.22C83.08 13.17 82.97 12.81 82.89 12.44C82.84 12.07 82.82 11.68 82.85 11.59C82.99 11.13 83.06 10.69 83.15 10.24C83.16 10.18 83.12 10.11 83.22 10.05C83.47 9.89 83.43 9.76 83.45 9.62C83.48 9.43 83.51 9.24 83.58 9.04C83.62 8.94 83.74 8.83999 83.83 8.74C83.91 8.64999 84.23 8.66 84.27 8.68C84.38 8.75 84.53 8.67 84.66 8.64C84.7 8.64 84.76 8.62 84.8 8.62C84.85 8.62 85.78 9.57999 85.85 9.68999C85.85 9.69999 85.98 10.08 86.11 10.48C86.24 10.88 86.39 11.29 86.43 11.37C86.47 11.46 86.43 11.55 86.41 11.65C86.43 11.69 86.79 12.88 86.79 12.93C86.79 13.19 86.92 13.43 86.71 13.71C86.67 13.77 86.69 13.82 86.7 13.87C86.79 14.3 86.76 14.75 86.74 15.19C86.72 15.42 86.76 15.64 86.77 15.86C86.77 15.9 86.74 15.95 86.73 15.99C86.71 16.04 86.69 16.1 86.69 16.15C86.74 16.68 86.65 17.23 86.77 17.75C86.78 17.81 86.74 18 86.7 18.18C86.64 18.37 86.59 18.56 86.6 18.63C86.6 18.71 86.33 19.02 86.38 19.08V19.09Z" fill="#231F20"/>
</svg>
