<svg width="128" height="128" viewBox="0 0 128 128" fill="none" xmlns="http://www.w3.org/2000/svg">
<path d="M26.6299 19.5701C26.6526 19.3949 26.7133 19.2269 26.8078 19.0777C26.9023 18.9286 27.0283 18.8019 27.177 18.7066C27.3256 18.6113 27.4933 18.5497 27.6683 18.5261C27.8433 18.5025 28.0214 18.5175 28.19 18.5701C31.44 19.8001 25.5699 23.6901 26.6299 19.5701Z" stroke="#231F20" stroke-miterlimit="10"/>
<path d="M36.3702 22.4701C36.3947 22.2968 36.4562 22.1309 36.5505 21.9836C36.6448 21.8362 36.7697 21.7108 36.9167 21.616C37.0638 21.5211 37.2295 21.459 37.4026 21.4338C37.5757 21.4087 37.7522 21.421 37.9202 21.4701C41.1802 22.7001 35.3102 26.5901 36.3702 22.4701Z" fill="#231F20"/>
<path d="M103 112.16C102.892 112.297 102.756 112.41 102.601 112.49C102.446 112.57 102.275 112.616 102.101 112.625C101.926 112.633 101.752 112.604 101.59 112.539C101.427 112.475 101.281 112.376 101.16 112.25C98.9 109.59 105.93 109.1 103 112.16Z" stroke="#231F20" stroke-miterlimit="10"/>
<path d="M104.39 25.1201C104.506 25.2496 104.594 25.4023 104.647 25.5682C104.7 25.7341 104.717 25.9094 104.697 26.0823C104.677 26.2553 104.621 26.4221 104.532 26.5717C104.443 26.7213 104.323 26.8503 104.18 26.9501C101.2 28.7301 101.84 21.7201 104.39 25.1201Z" stroke="#231F20" stroke-miterlimit="10"/>
<path d="M91.68 107.56C91.592 107.668 91.4823 107.757 91.3579 107.821C91.2335 107.884 91.0972 107.921 90.9578 107.928C90.8183 107.936 90.6789 107.914 90.5484 107.864C90.4179 107.815 90.2992 107.738 90.2 107.64C88.42 105.51 94 105.12 91.68 107.56Z" fill="#231F20"/>
<path d="M98.2503 28.94C98.3419 29.0449 98.4106 29.1679 98.452 29.3009C98.4933 29.434 98.5064 29.5742 98.4904 29.7126C98.4744 29.851 98.4296 29.9845 98.359 30.1046C98.2884 30.2247 98.1934 30.3287 98.0803 30.41C95.7003 31.83 96.2103 26.22 98.2503 28.94Z" fill="#231F20"/>
<path d="M42.9401 32.63C42.8338 31.1602 42.9553 29.6828 43.3001 28.25C43.6659 26.8586 44.1963 25.5158 44.8801 24.25C46.2768 21.7975 48.1341 19.6379 50.3501 17.89C51.9367 16.5864 53.7097 15.528 55.6101 14.75C58.9881 13.485 62.6465 13.162 66.1939 13.8155C69.7414 14.469 73.0445 16.0744 75.7501 18.46C78.162 20.5486 79.9018 23.3043 80.7501 26.38C81.2556 28.3374 81.448 30.3625 81.3201 32.38C81.2645 33.401 81.0728 34.4099 80.7501 35.38C80.4601 36.38 80.1001 37.22 79.7501 38.1C79.3801 39.2 79.1701 39.04 79.0301 37.96C78.9684 36.2923 79.0118 34.6223 79.1601 32.96C79.2496 31.1394 79.0846 29.3151 78.6701 27.54C78.2381 25.8259 77.4884 24.2079 76.4601 22.77C74.0422 19.4275 70.4913 17.0782 66.4694 16.1602C62.4475 15.2421 58.2289 15.8178 54.6001 17.78C52.3754 18.9997 50.3982 20.6242 48.7701 22.57C47.1117 24.4761 45.9536 26.7649 45.4001 29.23C45.11 30.7396 45.11 32.2905 45.4001 33.8C45.6602 35.342 46.1525 36.8356 46.8601 38.23C47.9422 40.323 49.6054 42.0591 51.6501 43.23C53.7459 44.3958 56.0552 45.127 58.4401 45.38C62.169 45.696 65.9231 45.5313 69.6101 44.89C70.0201 44.89 70.4401 44.78 70.8801 44.74C71.3201 44.7 72.2801 44.62 72.7101 45.14C72.7689 45.1949 72.8225 45.2552 72.8701 45.32C73.2901 45.9 73.4101 46.12 73.5901 46.41C73.7701 46.7 73.9101 46.95 74.0301 47.19C74.2477 47.5838 74.4317 47.9953 74.5801 48.42C74.687 48.7092 74.751 49.0124 74.7701 49.32C74.7613 49.565 74.7175 49.8075 74.6401 50.04C74.5987 50.2238 74.5349 50.4018 74.4501 50.57C74.2401 50.86 73.4501 50.01 72.2301 48.14L71.7401 47.43L71.4901 47.07C71.3901 46.94 71.4101 46.99 71.3701 46.94C71.3301 46.89 71.2001 46.94 71.1301 46.94L70.1301 47.07L67.7801 47.39C66.1542 47.5992 64.5188 47.7261 62.8801 47.77C59.4277 47.9265 55.9784 47.3998 52.7301 46.22C49.9402 45.1637 47.5326 43.2926 45.8201 40.85C44.9674 39.6181 44.294 38.2713 43.8201 36.85C43.5917 36.1644 43.4014 35.4667 43.2501 34.76C43.1601 34.41 43.1101 34.05 43.0401 33.7L42.9101 32.59L42.9401 32.63Z" fill="#231F20"/>
<path d="M36.07 74.77C33.9897 73.6563 31.6695 73.0659 29.31 73.05C26.9161 73.0232 24.5395 73.4578 22.31 74.33C20.6681 74.9868 19.1184 75.854 17.7 76.91C15.1281 78.6619 13.1229 81.1258 11.93 84C11.3699 85.4255 11.1013 86.9489 11.14 88.48C11.2039 90.0306 11.5425 91.5576 12.14 92.99C12.4286 93.633 12.7628 94.2546 13.14 94.85C13.4753 95.4555 13.867 96.0281 14.31 96.56C15.2237 97.603 16.2769 98.515 17.44 99.27C18.9478 100.242 20.5835 100.999 22.3 101.52C24.0145 102.074 25.7917 102.41 27.59 102.52C28.71 102.52 28.59 102.81 27.65 103.25C25.9853 103.91 24.1642 104.07 22.41 103.71C20.4111 103.265 18.4944 102.509 16.73 101.47C14.8739 100.451 13.2603 99.0417 12 97.34C10.785 95.6321 9.89044 93.7177 9.35997 91.69C8.83545 89.6296 8.80461 87.4745 9.26997 85.4C9.84225 82.939 10.9559 80.6365 12.53 78.66C15.0404 75.5594 18.3798 73.2357 22.1595 71.9592C25.9392 70.6828 30.0038 70.5062 33.88 71.45C34.6895 71.6797 35.4815 71.9671 36.25 72.31C37.0109 72.6661 37.7431 73.0806 38.44 73.55C39.8296 74.481 41.0732 75.6134 42.13 76.91C43.7532 78.8411 44.9494 81.0937 45.64 83.52C45.9802 84.7382 46.1617 85.9953 46.18 87.26C46.1649 88.5286 45.9662 89.7884 45.59 91C45.1183 92.8565 44.4021 94.6422 43.46 96.31C42.4946 97.9659 41.2842 99.4662 39.87 100.76C39.5997 101.017 39.3427 101.287 39.1 101.57C38.99 101.71 38.92 101.81 38.95 101.96C38.9674 102.022 38.9909 102.082 39.02 102.14C39.0557 102.247 39.1062 102.348 39.17 102.44C39.2702 102.617 39.3911 102.781 39.53 102.93C39.7801 103.175 40.0438 103.405 40.32 103.62C40.5522 103.788 40.7637 103.982 40.95 104.2C41.0946 104.393 41.2123 104.605 41.3 104.83C41.3782 105.001 41.4288 105.183 41.45 105.37C41.45 105.59 41.18 105.55 40.66 105.52C40.3149 105.501 39.9761 105.42 39.66 105.28C39.1096 105.072 38.5989 104.771 38.15 104.39C37.7329 104.028 37.3928 103.586 37.15 103.09C36.9957 102.773 36.8847 102.437 36.82 102.09C36.7704 101.733 36.8082 101.369 36.93 101.03C37.0609 100.69 37.2504 100.375 37.49 100.1C37.67 99.9 37.83 99.71 37.99 99.56L38.88 98.66C39.9881 97.5768 40.9405 96.345 41.71 95C42.4888 93.6048 43.0869 92.1162 43.49 90.57C43.58 90.18 43.7 89.77 43.77 89.39C43.8443 89.0233 43.8977 88.6527 43.93 88.28C43.9904 87.52 43.9703 86.7558 43.87 86C43.5171 83.6736 42.6194 81.4635 41.25 79.55C39.9228 77.588 38.1381 75.9784 36.05 74.86L36.07 74.77Z" fill="#231F20"/>
<path d="M93.6601 56.8C95.2516 57.654 96.9272 58.341 98.6601 58.85C99.8401 59.21 101.32 59.85 102.58 59.53C102.995 59.4562 103.378 59.2594 103.679 58.9652C103.98 58.6709 104.186 58.2928 104.27 57.8801C104.703 55.9072 104.954 53.8988 105.02 51.8801C105.09 50.9701 102.9 51.3701 102.84 52.1401C102.75 53.3101 102.63 54.4801 102.47 55.6501C102.4 56.1901 102.33 56.7201 102.24 57.2501C102.18 57.6101 101.83 58.4101 102.24 58.2501C101.77 58.4801 99.8301 57.6101 99.3401 57.4501C97.9588 56.9955 96.6203 56.4199 95.3401 55.7301C94.6901 55.3801 92.7001 56.3101 93.6201 56.8101L93.6601 56.8Z" fill="#231F20"/>
<path d="M57.6102 103.77C55.7131 103.94 53.8748 104.517 52.2202 105.46C51.1502 105.97 48.8201 106.95 48.7601 108.38C48.7001 109.81 50.6402 111.11 51.5702 111.84C52.5533 112.625 53.5853 113.346 54.6602 114C55.4202 114.46 57.9202 113.29 57.3802 113C55.5707 112.003 53.9194 110.742 52.4802 109.26C51.6402 108.26 51.3502 107.7 52.4802 106.92C53.634 106.028 54.9913 105.437 56.4302 105.2C57.3202 105.2 59.5602 103.83 57.6302 103.85L57.6102 103.77Z" fill="#231F20"/>
<path d="M39.5902 50.3701C40.4403 48.7454 40.8959 46.9435 40.9202 45.1101C41.0202 43.7801 41.1602 41.9901 39.6102 41.5201C37.0702 40.7401 33.5302 42.6001 31.2902 43.6801C30.0402 44.2801 31.1502 45.4301 32.2002 44.9201C33.9302 44.0901 36.1002 42.9201 38.0602 42.9201C39.3302 42.9201 38.9202 44.6801 38.8302 45.5901C38.8101 47.0185 38.4863 48.4264 37.8802 49.7201C37.1702 50.8001 39.0602 51.1501 39.5902 50.3501V50.3701Z" fill="#231F20"/>
<path d="M98.3703 64.34C101.17 64.2027 103.969 64.6312 106.6 65.6C109.241 66.5387 111.647 68.04 113.65 70C115.104 71.4419 116.283 73.1362 117.13 75C118.657 78.2019 119.345 81.7392 119.13 85.28C119 87.0572 118.557 88.7973 117.82 90.42C117.069 92.0332 116.005 93.4812 114.69 94.68C112.353 96.7572 109.456 98.0998 106.36 98.54C102.447 99.1935 98.4282 98.4577 95.0003 96.46C94.0003 95.81 94.2803 95.66 95.3203 95.77C96.3603 95.88 98.1503 96.18 100.16 96.5C103.704 97.1905 107.377 96.706 110.62 95.12C112.178 94.3199 113.543 93.1904 114.62 91.81C115.7 90.3875 116.454 88.7456 116.83 87C117.83 82.75 116.45 77.93 114.09 74.14C112.686 72.0991 110.857 70.3858 108.729 69.1172C106.601 67.8487 104.224 67.0548 101.76 66.79C98.6986 66.3406 95.5724 66.7887 92.7603 68.08C90.6633 69.0718 88.8887 70.635 87.6403 72.59C86.4261 74.5933 85.6554 76.8336 85.3803 79.16C84.9503 82.77 86.2803 86.16 87.9103 89.47L88.4603 90.57L88.6003 91.11V91.25C88.5403 91.25 88.7303 91.25 88.4703 91.25V91.36L88.4203 91.63C88.389 91.8219 88.306 92.0017 88.1803 92.15L87.8203 92.63C85.8203 95.17 84.5903 95.63 83.7103 95.42C83.5116 95.3979 83.3186 95.3403 83.1403 95.25C82.9403 95.1 83.0903 94.86 83.4103 94.46C83.7303 94.06 84.2203 93.46 84.9203 92.65C85.2603 92.25 85.5903 91.83 85.9203 91.4L86.0403 91.23V91.17C86.044 91.1367 86.044 91.1032 86.0403 91.07C86.0403 91.07 86.0403 91.07 86.0403 90.99L86.1303 91C86.0503 90.9 85.6303 90 85.3503 89.42C85.0703 88.84 84.7503 88.09 84.4803 87.42C83.9033 85.9887 83.4939 84.4954 83.2603 82.97C82.8401 79.7861 83.3037 76.5481 84.6003 73.61C85.7429 70.8794 87.6801 68.5555 90.1603 66.94C92.6263 65.3907 95.4511 64.5054 98.3603 64.37L98.3703 64.34Z" fill="#231F20"/>
<path d="M27.7801 66.2C29.1022 58.2216 32.9222 50.8686 38.6901 45.2C39.1801 44.71 36.8901 44.98 36.4601 45.4C30.6095 51.1311 26.7208 58.5655 25.3501 66.64C25.2601 67.18 27.6801 66.78 27.7801 66.2Z" fill="#231F20"/>
<path d="M79.9999 106.79C72.2144 110.12 63.5108 110.63 55.3899 108.23C54.3899 107.97 51.9799 109.37 53.6199 109.83C62.7325 112.419 72.4603 111.772 81.1499 108C82.9999 107.21 81.3199 106.22 79.9999 106.78V106.79Z" fill="#231F20"/>
<path d="M84.2598 41.3301C90.6498 44.8201 95.7998 49.2501 99.1598 55.8001C99.4798 56.4301 101.63 55.6701 101.39 55.2101C97.9998 48.6001 92.8098 44.0601 86.3898 40.5301C85.7898 40.2001 83.9098 41.1101 84.2998 41.3301H84.2598Z" fill="#231F20"/>
<path d="M57.1401 28.32C57.8525 30.1983 58.3686 32.1454 58.6801 34.13C58.8801 35.07 60.3201 34.67 60.1301 33.73C59.7814 31.6194 59.2116 29.5513 58.4301 27.56C58.0501 26.68 56.7601 27.44 57.1401 28.32Z" fill="#231F20"/>
<path d="M62.16 27.67C62.7465 29.2326 63.1558 30.8561 63.38 32.51C63.59 33.45 65.04 33.05 64.83 32.11C64.5673 30.3302 64.1043 28.5858 63.45 26.91C63.04 26.04 61.75 26.8 62.16 27.67Z" fill="#231F20"/>
<path d="M60.2698 30.8501C60.9417 30.5787 61.6432 30.3874 62.3598 30.2801C62.5521 30.227 62.7154 30.0998 62.8139 29.9263C62.9123 29.7528 62.9378 29.5473 62.8848 29.3551C62.8318 29.1628 62.7045 28.9994 62.531 28.901C62.3576 28.8025 62.1521 28.777 61.9598 28.8301C61.1175 28.9773 60.2953 29.2223 59.5098 29.5601C58.6598 30.0101 59.4198 31.3101 60.2698 30.8501Z" fill="#231F20"/>
<path d="M66.4602 27.1701C66.8602 28.4001 67.2202 29.6501 67.5902 30.8901C67.6432 31.0823 67.7705 31.2457 67.944 31.3441C68.1174 31.4426 68.3229 31.4681 68.5152 31.4151C68.7075 31.362 68.8708 31.2348 68.9693 31.0613C69.0677 30.8878 69.0932 30.6823 69.0402 30.4901C68.6702 29.2501 68.3002 28.0001 67.9002 26.7701C67.6002 25.8501 66.1502 26.2501 66.4602 27.1701Z" fill="#231F20"/>
<path d="M21.6299 86.67C19.9999 88.61 21.83 92.4 24.42 92.26C26 92.18 26.65 90.41 26.51 89.05C26.32 87.34 25.14 85.65 23.27 85.72C22.7989 85.7047 22.3331 85.8229 21.9263 86.061C21.5196 86.299 21.1884 86.6472 20.9709 87.0653C20.7535 87.4835 20.6587 87.9545 20.6974 88.4243C20.7362 88.894 20.9069 89.3431 21.19 89.72C21.76 90.49 23.06 89.72 22.49 88.96C22.14 88.48 21.98 87.96 22.49 87.54C22.7357 87.3619 23.0314 87.266 23.3349 87.266C23.6385 87.266 23.9342 87.3619 24.18 87.54C24.92 88.1 25.52 90.04 24.61 90.72C24.07 91.11 23.34 90.38 23.04 89.99C22.59 89.43 22.15 88.43 22.68 87.79C23.21 87.15 22.25 85.99 21.62 86.73L21.6299 86.67Z" fill="#231F20"/>
<path d="M27.67 86.29C28.2586 87.1634 28.7994 88.0681 29.29 89C29.3968 89.1584 29.56 89.2701 29.7463 89.3123C29.9326 89.3544 30.128 89.3239 30.2926 89.227C30.4572 89.13 30.5785 88.9739 30.6319 88.7905C30.6854 88.6071 30.6668 88.4102 30.58 88.24C30.1026 87.3088 29.5752 86.4042 29 85.53C28.43 84.76 27.13 85.53 27.7 86.29H27.67Z" fill="#231F20"/>
<path d="M30.0999 83.8601C30.7147 85.3562 31.4159 86.8153 32.1999 88.2301C32.7399 89.0201 34.0399 88.2301 33.4999 87.4701C32.7047 86.0596 32 84.6 31.3899 83.1001C30.9499 82.2401 29.6599 83.0001 30.0999 83.8601Z" fill="#231F20"/>
<path d="M30.4801 87.69L31.6101 87.2C31.7751 87.1 31.8952 86.9403 31.9455 86.7541C31.9957 86.5679 31.9723 86.3694 31.8801 86.2C31.7769 86.0387 31.6172 85.9216 31.4323 85.8717C31.2474 85.8218 31.0505 85.8426 30.8801 85.93L29.7501 86.41C29.587 86.5116 29.4685 86.6713 29.4184 86.8569C29.3683 87.0424 29.3903 87.2401 29.4801 87.41C29.5834 87.5713 29.743 87.6883 29.9279 87.7383C30.1128 87.7882 30.3097 87.7674 30.4801 87.68V87.69Z" fill="#231F20"/>
<path d="M96.3199 82.64C97.7199 80.64 98.6599 78.38 99.9699 76.33C100.49 75.51 99.1899 74.76 98.6699 75.57C97.3599 77.62 96.4199 79.88 95.0299 81.89C94.4799 82.68 95.7799 83.43 96.3199 82.64Z" fill="#231F20"/>
<path d="M98.8801 84.49C99.9701 82.8299 100.904 81.0724 101.67 79.24C102.11 78.39 100.82 77.63 100.37 78.48C99.5201 80.12 98.9701 81.96 97.8201 83.48C97.2301 84.24 98.2901 85.3 98.8801 84.54V84.49Z" fill="#231F20"/>
<path d="M97.5802 80.1201C98.078 80.533 98.6137 80.898 99.1802 81.2101C100.03 81.6701 100.79 80.3801 99.9402 79.9201C99.4803 79.6757 99.045 79.3877 98.6402 79.0601C98.4971 78.9243 98.3074 78.8486 98.1102 78.8486C97.913 78.8486 97.7233 78.9243 97.5802 79.0601C97.4397 79.2007 97.3608 79.3913 97.3608 79.5901C97.3608 79.7888 97.4397 79.9794 97.5802 80.1201Z" fill="#231F20"/>
<path d="M104.1 85.8C104.56 84.8 105.29 83.89 105.8 82.89C106.31 81.89 104.94 81.26 104.5 82.13C104.06 83 103.26 84 102.8 85C102.41 85.88 103.7 86.64 104.1 85.76V85.8Z" fill="#231F20"/>
<path d="M77.7 108.63C71.0545 111.087 63.8026 111.381 56.98 109.47C56.27 109.28 54.42 110.34 55.65 110.67C63.2139 112.72 71.2321 112.328 78.56 109.55C79.99 109.04 78.69 108.27 77.7 108.63Z" fill="#231F20"/>
<path d="M26.5602 64.81C28.3002 57.59 32.4502 51.35 37.5602 46.03C37.9002 45.68 36.2802 45.87 35.9902 46.18C30.8502 51.54 26.6202 57.83 24.8602 65.12C24.7802 65.47 26.4702 65.24 26.5802 64.81H26.5602Z" fill="#231F20"/>
<path d="M86.2502 41.34C92.0402 44.56 96.2502 49.34 99.5702 55C99.8702 55.51 101.36 55 100.99 54.37C97.5702 48.66 93.3102 43.79 87.4502 40.53C86.9402 40.24 85.5502 40.95 86.2502 41.34Z" fill="#231F20"/>
<path d="M56.9998 14.5601C41.2898 18.5601 37.5198 33.5601 44.2998 42.7101C49.0998 49.1901 57.2998 49.7801 64.7698 49.0301L67.1698 46.9201C67.1698 46.9201 51.3298 49.2801 46.4598 39.1401C46.4598 39.1401 42.1898 33.7401 45.4598 26.0201C48.7298 18.3001 56.9998 14.5601 56.9998 14.5601Z" fill="#231F20"/>
<path d="M19.28 73.16C7.00005 77 4.07005 93 13.16 100.9C15.3838 103.038 18.3084 104.296 21.39 104.44L24.3 103.36C24.3 103.36 14.12 100.44 12.22 95.05C10.32 89.66 8.60005 81.41 19.28 73.16Z" fill="#231F20"/>
<path d="M115.3 73.16C119.59 78.05 121.81 86.5 118.71 92.25C115.77 97.72 109.8 101.01 102.2 99.95L99.2002 98C99.2002 98 107.81 99.14 112.78 95.24C117.57 91.52 120.81 85.91 115.3 73.16Z" fill="#231F20"/>
</svg>
