<svg width="128" height="128" viewBox="0 0 128 128" fill="none" xmlns="http://www.w3.org/2000/svg">
<path d="M60.5902 60.42C60.6059 59.9071 60.8054 59.4169 61.1524 59.0387C61.4993 58.6606 61.9706 58.4197 62.4802 58.36C62.8702 58.3 63.4802 58.99 63.5902 59.08C63.6874 59.5482 63.7509 60.0227 63.7802 60.5C63.7802 60.74 63.1602 65.77 62.7802 67.7C62.7102 68.05 62.6302 68.4 62.5202 68.77C62.4447 69.0348 62.3545 69.2952 62.2502 69.55C62.1346 69.8365 62.0044 70.1168 61.8602 70.39C61.5709 70.9211 61.1721 71.3846 60.6902 71.75C60.1814 72.0623 59.6123 72.2634 59.0202 72.34L58.0202 72.42L57.4602 72.48C56.6602 72.58 55.8602 72.7 55.0602 72.84C54.6702 72.91 54.2402 72.99 53.8902 73.07C53.8435 73.0791 53.8011 73.1037 53.7702 73.14C53.7596 73.1725 53.7596 73.2075 53.7702 73.24C53.7897 73.2698 53.8133 73.2968 53.8402 73.32L53.9402 73.38L54.1302 73.5C54.6602 73.83 55.2102 74.13 55.7602 74.41C56.3102 74.69 56.8802 74.96 57.4502 75.2C57.6102 75.27 58.3102 75.56 58.8702 75.74C59.4457 75.8282 59.9818 76.0858 60.4102 76.48C60.5202 76.59 60.6102 76.7 60.6802 76.78C60.7776 76.9129 60.8583 77.0573 60.9202 77.21C61.0473 77.5355 61.1509 77.8697 61.2302 78.21C61.2976 79.163 61.1995 80.1205 60.9402 81.04L60.8102 81.69C60.8102 81.78 60.8102 81.69 60.8102 81.75C60.8102 81.75 60.8102 81.83 60.6802 81.97C60.5646 82.1392 60.461 82.3163 60.3702 82.5C60.3242 82.5685 60.2967 82.6477 60.2902 82.73C60.2902 82.83 60.3902 82.85 60.5702 82.83H60.6902C60.7602 82.83 60.8302 82.69 60.9102 82.83C61.1302 83.14 61.4702 82.83 61.9102 82.56C62.6899 81.9993 63.4977 81.4787 64.3302 81C64.7934 80.7957 65.2758 80.6383 65.7702 80.53C66.2102 80.41 66.3402 81 66.2502 81.14C66.0002 81.54 66.4402 81.55 66.6102 81.71C66.6727 81.7663 66.7237 81.8343 66.7602 81.91C66.1358 82.6775 65.468 83.4087 64.7602 84.1L63.9902 84.9L63.8002 85.1L63.5702 85.32L63.0102 85.83C62.3302 86.45 61.6102 87.09 61.4102 87.24L60.8902 87.65C60.5102 87.98 59.8902 88.46 58.8402 89.41L57.8402 90.3C57.7416 90.3961 57.6345 90.4831 57.5202 90.56L57.2602 90.68L56.6902 90.94C56.5924 90.9852 56.4923 91.0252 56.3902 91.06H56.1602L55.6902 91.15C55.5088 91.1341 55.3323 91.0831 55.1702 91L55.0702 90.92C55.0002 90.92 54.8702 90.83 54.8002 90.79C54.632 90.7023 54.4904 90.5711 54.3902 90.41C54.2909 90.2405 54.2136 90.0591 54.1602 89.87C54.0902 89.7 54.0102 89.6 53.9802 89.52C53.8243 88.8206 53.8908 88.0899 54.1702 87.43L55.6702 80.98L55.7802 80.44L55.8402 80.14C55.8402 80.06 55.8402 79.9 55.8402 79.89L55.6302 79.8C54.9663 79.5174 54.3413 79.1511 53.7702 78.71C53.5372 78.5444 53.2854 78.4068 53.0202 78.3L52.1902 77.9L51.7802 77.68L51.2502 77.39C50.3114 76.8816 49.4122 76.3033 48.5602 75.66C47.837 75.1329 47.2422 74.4492 46.8202 73.66C46.6672 73.3442 46.5627 73.007 46.5102 72.66C46.4946 72.4804 46.4946 72.2997 46.5102 72.12C46.5102 71.92 46.6502 71.71 46.6402 71.53C46.7409 71.1815 46.9345 70.867 47.2002 70.62L47.5802 70.22C47.6788 70.1355 47.7861 70.0618 47.9002 70L48.4502 69.65C48.6402 69.54 48.8902 69.45 49.1102 69.35C49.5876 69.1455 50.0788 68.9751 50.5802 68.84C50.9656 68.7413 51.3562 68.6645 51.7502 68.61L53.0702 68.39C53.9002 68.21 54.7402 68.07 55.5802 67.96L56.8502 67.81L57.4902 67.75H57.7502C57.8093 67.7653 57.8712 67.7653 57.9302 67.75C57.9842 67.7109 58.023 67.6544 58.0402 67.59C58.0691 67.5333 58.0893 67.4727 58.1002 67.41C58.1602 67.21 58.2402 66.94 58.3002 66.68C58.4502 66.17 59.5302 63.3 59.6302 62.53C59.6902 62.05 60.5902 60.82 60.5902 60.42Z" fill="#231F20"/>
<path d="M56.2304 92.36C55.9904 92.36 55.7404 92.36 55.5004 92.36C55.2691 92.3188 55.0417 92.2586 54.8204 92.18C54.6004 92.1 54.4003 91.96 54.1903 91.86C54.0129 91.7073 53.852 91.5364 53.7104 91.35C53.4563 90.9392 53.2926 90.479 53.2304 90C53.2304 89.75 53.2304 89.51 53.1604 89.26V88.77C53.2042 87.6185 53.3346 86.4719 53.5504 85.34C53.7403 84.24 53.9604 83.16 54.2104 82.09L54.6003 80.49L54.6804 80.17V80.1L54.7304 79.95C54.7304 79.95 54.6504 79.89 54.6104 79.86H54.5404L54.3904 79.8L52.8204 79.2C51.7263 78.7873 50.6607 78.3029 49.6304 77.75C48.6293 77.2149 47.6817 76.5854 46.8004 75.87C46.35 75.5032 45.9225 75.1091 45.5204 74.69L45.0004 74C44.7304 73.7 44.4704 73.27 44.2004 72.91C43.9974 72.5302 43.8813 72.1101 43.8604 71.68C43.9406 71.267 44.1238 70.8808 44.393 70.5575C44.6622 70.2341 45.0087 69.9839 45.4004 69.83C46.0102 69.5267 46.6505 69.2887 47.3104 69.12C48.3679 68.8381 49.4393 68.6111 50.5204 68.44C51.5904 68.27 52.6504 68.13 53.7204 68.03C54.2504 67.98 54.7904 67.93 55.3304 67.9H55.9203H56.2104L58.0904 62.62C58.8304 60.62 59.5503 58.62 60.5103 56.68L60.6903 56.32C60.7703 56.17 60.8704 56.02 60.9704 55.87C61.1443 55.5733 61.3837 55.3202 61.6703 55.13C62.2061 54.8821 62.8133 54.8359 63.3804 55C63.6735 55.0883 63.9504 55.2233 64.2003 55.4C64.4052 55.5271 64.5992 55.6709 64.7803 55.83C65.4364 56.4001 66.042 57.0257 66.5903 57.7C67.6603 58.99 68.5903 60.29 69.5903 61.57C70.2003 62.37 70.8304 63.15 71.4604 63.93L72.4604 65.08C72.6404 65.29 72.7903 65.46 72.9604 65.63L73.3304 65.45L74.2003 65.08C74.8603 64.81 75.5203 64.56 76.2003 64.35C77.6017 63.8502 79.0831 63.6129 80.5704 63.65C80.9279 63.6561 81.2757 63.7674 81.5704 63.97C81.7603 64.11 81.8104 64.23 81.7504 64.34C81.6903 64.45 81.1504 64.67 80.5804 64.96C79.4304 65.5 77.5804 66.55 75.1504 67.56L74.7104 67.74L74.0004 68C73.4004 68.27 72.8004 68.57 72.2104 68.85L71.0004 67.47L70.4104 66.76L70.0903 66.37C69.6703 65.84 69.2503 65.32 68.8503 64.79L66.5004 61.61C65.7104 60.61 64.9304 59.52 64.1404 58.61C63.7962 58.1988 63.4146 57.8205 63.0004 57.48C62.8804 57.41 62.9303 57.42 62.9203 57.42C62.9112 57.4147 62.9009 57.412 62.8904 57.412C62.8798 57.412 62.8695 57.4147 62.8604 57.42L62.7204 57.68C62.5304 58.05 62.3404 58.47 62.1504 58.89C61.7804 59.72 61.4304 60.59 61.0804 61.46C60.3904 63.21 59.7204 64.99 59.0804 66.77L58.5004 68L57.8204 70C56.464 70.0082 55.1089 70.085 53.7603 70.23C52.6703 70.35 51.5803 70.51 50.5103 70.71C49.4504 70.8934 48.4045 71.1507 47.3804 71.48L47.0204 71.61L46.8804 71.66C46.7982 71.697 46.7209 71.744 46.6504 71.8C46.5804 71.85 46.5003 71.92 46.5103 72.01C46.5203 72.1 46.5904 72.17 46.6304 72.25C46.7056 72.3685 46.7927 72.4791 46.8904 72.58C47.0694 72.8029 47.2596 73.0165 47.4604 73.22C48.6871 74.43 50.1194 75.412 51.6903 76.12C52.4903 76.5 53.3103 76.84 54.1703 77.12L55.5704 77.65C56.2397 77.9099 56.8772 78.2454 57.4704 78.65L57.0004 80.38L56.7104 81.55C56.5403 82.24 56.3804 82.94 56.2304 83.64C55.9267 85.0163 55.6997 86.4085 55.5504 87.81C55.522 88.2629 55.522 88.7171 55.5504 89.17C55.5314 89.4089 55.5988 89.6466 55.7404 89.84C55.8395 89.9063 55.9538 89.9466 56.0727 89.9571C56.1915 89.9676 56.3111 89.9479 56.4203 89.9C56.4859 89.8878 56.5497 89.8676 56.6104 89.84L56.8904 89.71C57.0803 89.63 57.2804 89.49 57.4804 89.39C59.1047 88.3067 60.5777 87.012 61.8604 85.54C62.5804 84.77 63.2503 83.96 63.9203 83.13L64.9203 81.88L66.2003 80L68.0804 81.12L69.3704 81.88C70.2304 82.38 71.1004 82.88 71.9704 83.33C72.8404 83.78 73.7104 84.26 74.6003 84.68C75.0403 84.9 75.4804 85.1 75.9304 85.29C76.1504 85.4 76.3703 85.47 76.5903 85.57L76.9203 85.69L77.1404 85.77C77.3038 85.8249 77.4709 85.8683 77.6404 85.9C77.7904 85.9 78.0004 85.97 78.0704 85.78C78.2049 85.4862 78.2534 85.1603 78.2104 84.84C78.111 83.75 77.8585 82.6795 77.4604 81.66C77.0616 80.6038 76.594 79.5749 76.0603 78.58C75.7903 78.08 75.5104 77.58 75.2204 77.09C75.1204 76.91 74.8004 76.39 74.6003 76.02L74.4404 75.72C74.4404 75.61 74.2904 75.51 74.4404 75.41L74.7604 74.8L75.0804 74.27L75.3604 73.84C75.5204 73.62 75.6803 73.39 75.8503 73.17C76.1789 72.7612 76.5294 72.3707 76.9004 72C77.9311 70.9381 79.1751 70.1065 80.5504 69.56C81.1801 69.282 81.8862 69.2291 82.5504 69.41C82.777 69.4647 82.9955 69.5488 83.2003 69.66C83.7003 70.08 82.2603 70.66 80.2003 72.22C79.4291 72.8041 78.7278 73.4752 78.1104 74.22C77.8004 74.59 77.5103 74.98 77.2403 75.37L77.1504 75.52V75.58C77.1363 75.5949 77.1284 75.6145 77.1284 75.635C77.1284 75.6555 77.1363 75.6751 77.1504 75.69C77.1504 75.69 77.1504 75.69 77.2604 75.86C77.3704 76.03 77.5404 76.34 77.6804 76.58C77.9604 77.06 78.2204 77.58 78.4704 78.07C78.9988 79.0984 79.4501 80.1647 79.8204 81.26C80.0246 81.8294 80.1949 82.4104 80.3304 83C80.4004 83.3 80.4504 83.61 80.5004 83.92V84.41C80.5056 84.4933 80.5056 84.5767 80.5004 84.66V85C80.5733 86.0141 80.2668 87.0191 79.6404 87.82L79.4004 88.09L79.2803 88.22H79.1104C78.8913 88.281 78.667 88.3212 78.4404 88.34C77.9441 88.3548 77.4484 88.2941 76.9704 88.16C76.2967 87.986 75.6379 87.7586 75.0004 87.48C74.4704 87.25 73.9404 87.01 73.4304 86.76C72.4304 86.26 71.4304 85.76 70.4304 85.2L68.0004 83.85L66.9104 83.22L65.5903 84.92C64.8303 85.92 64.0004 86.81 63.1604 87.72C62.287 88.6389 61.3586 89.5038 60.3804 90.31C59.8632 90.7276 59.3223 91.1149 58.7603 91.47C58.4503 91.64 58.1603 91.82 57.7603 91.98C57.5483 92.0908 57.3232 92.1748 57.0904 92.23L56.2603 92.43L56.2304 92.36Z" fill="#221F1F"/>
<path d="M111.88 50C111.88 50.19 111.59 50.15 111.24 50C111.13 49.95 110.88 49.7 110.88 49.63C110.87 49.4968 110.87 49.3631 110.88 49.23C110.88 49.16 111.44 48.34 111.64 48.06C111.818 47.7875 112.034 47.5417 112.28 47.33C112.77 46.9 113.28 46.45 113.76 46.05C113.874 45.9556 114.002 45.8812 114.14 45.83C114.594 45.6253 115.018 45.3595 115.4 45.04C115.46 44.99 115.54 44.95 115.57 44.85C115.961 44.4553 116.427 44.1425 116.94 43.93C117.4 43.85 117.8 43.69 118.25 43.63C118.32 43.63 118.37 43.63 118.46 43.63C118.527 43.6696 118.603 43.6905 118.68 43.6905C118.758 43.6905 118.834 43.6696 118.9 43.63C119.092 43.5986 119.288 43.5986 119.48 43.63C119.592 43.6519 119.703 43.6819 119.81 43.72C119.91 43.72 119.94 43.92 119.92 43.95C119.9 43.98 119.92 44.1 120.01 44.17V44.24C120.01 44.24 119.84 44.51 119.69 44.81C119.572 45.0002 119.438 45.1808 119.29 45.35C119.29 45.4 118.08 46.22 117.97 46.35C117.895 46.3972 117.809 46.4247 117.72 46.43L116.72 47.17C116.5 47.27 116.34 47.45 116.05 47.44C115.998 47.4426 115.948 47.4639 115.91 47.5C115.567 47.7279 115.209 47.935 114.84 48.12C114.66 48.23 114.5 48.37 114.33 48.49H114.22C114.171 48.5038 114.124 48.524 114.08 48.55C113.67 48.8325 113.282 49.1468 112.92 49.49C112.84 49.57 112.31 49.8 112.23 49.91C112.15 50.02 111.89 49.93 111.88 50Z" fill="#231F20"/>
<path d="M111.62 71.7699C111.43 71.8799 111.31 71.63 111.17 71.16C111.113 70.9437 111.113 70.7162 111.17 70.4999C111.285 70.3861 111.413 70.2855 111.55 70.1999C112.128 70.1056 112.715 70.0721 113.3 70.0999C113.703 70.1113 114.101 70.1855 114.48 70.3199C115.232 70.5725 115.97 70.8663 116.69 71.1999C116.849 71.2755 116.994 71.3768 117.12 71.4999C117.566 71.8939 118.06 72.2299 118.59 72.4999C118.669 72.5655 118.768 72.601 118.87 72.5999C119.472 72.8487 120.025 73.2045 120.5 73.6499C120.827 74.0629 121.131 74.4935 121.41 74.9399C121.41 74.9999 121.53 75.0299 121.52 75.1399C121.52 75.3999 121.64 75.4699 121.74 75.5899C121.878 75.7595 122.002 75.9401 122.11 76.1299C122.162 76.2468 122.193 76.3722 122.2 76.4999C122.2 76.6099 122.02 76.7599 121.98 76.7599C121.94 76.7599 121.84 76.8899 121.78 76.9699L121.71 77.05C121.71 77.05 120.41 76.7299 120.3 76.6799L120.04 76.5399L119.49 76.2599C119.06 76.0799 118.69 75.7999 118.59 75.7799C118.49 75.7599 118.45 75.64 118.39 75.55C118.33 75.46 117.16 74.9099 117.12 74.8899C116.9 74.7099 116.62 74.6499 116.49 74.3399C116.49 74.2799 116.41 74.26 116.36 74.23C115.95 74.02 115.58 73.73 115.18 73.48C114.976 73.3586 114.762 73.2549 114.54 73.1699C114.54 73.1699 114.48 73.1099 114.44 73.0799C114.404 73.0382 114.36 73.0042 114.31 72.98C113.818 72.7352 113.298 72.5537 112.76 72.4399C112.64 72.4399 112.11 72.0699 111.96 72.0899C111.81 72.1099 111.7 71.7099 111.62 71.7699Z" fill="#231F20"/>
<path d="M10.08 99.67C9.98 99.89 9.71 99.67 9.32 99.32C9.16668 99.1183 9.05763 98.8866 9 98.64C9.02739 98.4685 9.07436 98.3007 9.14 98.14C9.55668 97.7595 9.99401 97.4023 10.45 97.07C10.7549 96.8339 11.0915 96.642 11.45 96.5L13.56 95.57C13.7154 95.501 13.8808 95.4571 14.05 95.44C14.6307 95.3587 15.1926 95.1759 15.71 94.9C15.8068 94.8718 15.8913 94.8119 15.95 94.73C16.4874 94.4025 17.0704 94.1565 17.68 94C18.2 94 18.68 93.86 19.21 93.78C19.29 93.78 19.35 93.78 19.45 93.78C19.53 93.8228 19.6193 93.8453 19.71 93.8453C19.8007 93.8453 19.89 93.8228 19.97 93.78C20.1878 93.7373 20.4084 93.7106 20.63 93.7C20.7593 93.7122 20.8868 93.739 21.01 93.78C21.13 93.78 21.17 94.03 21.15 94.07C21.13 94.11 21.21 94.25 21.26 94.33V94.42C20.954 94.8514 20.6199 95.2623 20.26 95.65C20.26 95.75 18.63 96.57 18.46 96.65C18.3606 96.699 18.2508 96.723 18.14 96.72C18.09 96.72 16.82 97.46 16.77 97.48C16.48 97.58 16.24 97.77 15.89 97.71C15.82 97.71 15.77 97.71 15.72 97.71C15.2467 97.9188 14.7588 98.0927 14.26 98.23C14.01 98.31 13.78 98.44 13.54 98.54C13.4935 98.5455 13.4465 98.5455 13.4 98.54C13.3401 98.5345 13.2799 98.5345 13.22 98.54C12.6433 98.7546 12.082 99.0085 11.54 99.3C11.42 99.38 10.71 99.45 10.54 99.55C10.37 99.65 10.13 99.58 10.08 99.67Z" fill="#231F20"/>
<path d="M14.5702 70.84C14.7402 70.77 14.7902 71.01 14.7802 71.44C14.7599 71.6358 14.7022 71.8259 14.6102 72C14.5132 72.0818 14.4095 72.1554 14.3002 72.22C14.2302 72.22 13.4302 72.22 13.1602 72.22C12.9075 72.2346 12.6541 72.2075 12.4102 72.14C11.9102 72.04 11.4102 71.97 10.9502 71.92C10.8415 71.9064 10.7363 71.8725 10.6402 71.82C10.3053 71.6677 9.93647 71.6057 9.57021 71.64C9.53758 71.6333 9.50378 71.6354 9.47218 71.6459C9.44059 71.6564 9.41232 71.6751 9.39021 71.7C9.0171 71.7886 8.63305 71.8223 8.25021 71.8C7.92489 71.7 7.58952 71.6363 7.25021 71.61C7.25021 71.61 7.16021 71.61 7.10021 71.61C7.04021 71.61 6.87021 71.52 6.77021 71.53C6.67021 71.54 6.50021 71.53 6.34021 71.53C6.24724 71.501 6.15691 71.4642 6.07021 71.42C6.02183 71.3495 5.9973 71.2654 6.00021 71.18C6.00021 71.08 5.93021 71 5.89021 70.91C5.881 70.8807 5.881 70.8493 5.89021 70.82C6.08546 70.5104 6.32846 70.2336 6.61021 70C7.10509 69.7661 7.61647 69.5689 8.14021 69.41C8.22584 69.391 8.31458 69.391 8.40021 69.41C8.79994 69.3231 9.20378 69.2563 9.61021 69.21C9.85021 69.21 10.0902 69.21 10.3002 69.36C10.3002 69.36 10.3902 69.36 10.4402 69.36C10.8288 69.398 11.2114 69.4819 11.5802 69.61C11.7681 69.6595 11.9583 69.6996 12.1502 69.73L12.2402 69.79L12.3602 69.85C12.8102 69.93 13.2202 70.13 13.6702 70.18C13.7702 70.18 14.1902 70.51 14.3102 70.51C14.4302 70.51 14.5002 70.87 14.5702 70.84Z" fill="#231F20"/>
<path d="M20.5303 56.28C20.7603 56.28 20.7303 56.61 20.5303 57.02C20.4108 57.2019 20.2497 57.3528 20.0603 57.46C19.9171 57.469 19.7735 57.469 19.6303 57.46C19.5803 57.46 18.7003 57 18.3903 56.87C18.0927 56.7348 17.811 56.5671 17.5503 56.37C17.0203 55.98 16.4603 55.62 15.9103 55.25C15.791 55.1607 15.6805 55.0603 15.5803 54.95C15.245 54.542 14.8341 54.2025 14.3703 53.95C14.3243 53.9391 14.2765 53.9379 14.23 53.9465C14.1835 53.9552 14.1393 53.9734 14.1003 54C13.5738 53.7802 13.0846 53.48 12.6503 53.11C12.3603 52.74 12.0303 52.42 11.7103 52.11C11.7103 52.11 11.6003 52.05 11.5903 51.95C11.5803 51.85 11.4503 51.67 11.3403 51.58C11.1858 51.459 11.045 51.3215 10.9203 51.17C10.8567 51.0664 10.8158 50.9506 10.8003 50.83C10.8003 50.72 10.9503 50.52 10.9903 50.51C11.0303 50.5 11.1203 50.34 11.1703 50.24C11.1858 50.2042 11.2059 50.1705 11.2303 50.14C11.6867 50.1434 12.1407 50.2073 12.5803 50.33L13.3703 50.71L14.2603 51.13C14.3603 51.13 14.4103 51.25 14.4803 51.33C14.5503 51.41 15.6903 51.95 15.7303 51.98C15.9403 52.15 16.2103 52.24 16.3403 52.54C16.3526 52.5639 16.3695 52.585 16.3901 52.6022C16.4107 52.6194 16.4346 52.6322 16.4603 52.64C16.8542 52.8981 17.2256 53.1892 17.5703 53.51C17.7503 53.66 17.9603 53.78 18.1503 53.92C18.1856 53.9495 18.2131 53.9873 18.2303 54.03C18.2651 54.0749 18.3054 54.1152 18.3503 54.15C18.8203 54.47 19.2203 54.88 19.7203 55.15C19.8403 55.22 20.2103 55.77 20.3403 55.86C20.4703 55.95 20.4403 56.27 20.5303 56.28Z" fill="#231F20"/>
<path d="M42.93 17.33C43.77 18.81 44.63 20.26 45.56 21.68C46.49 23.1 47.51 24.46 48.56 25.79C49.61 27.12 50.73 28.41 51.82 29.71C52.91 31.01 54.06 32.26 55.23 33.48C55.3658 33.6232 55.4718 33.7919 55.5419 33.9764C55.612 34.1609 55.6447 34.3574 55.6382 34.5547C55.6317 34.7519 55.586 34.9459 55.5039 35.1253C55.4219 35.3048 55.3049 35.4661 55.16 35.6C55.0232 35.7488 54.8571 35.8676 54.672 35.9489C54.487 36.0302 54.2871 36.0721 54.085 36.0721C53.8829 36.0721 53.683 36.0302 53.4979 35.9489C53.3129 35.8676 53.1467 35.7488 53.01 35.6C51.81 34.3 50.68 32.95 49.6 31.6C48.5246 30.2104 47.5232 28.7651 46.6 27.27C45.6 25.79 44.76 24.27 43.95 22.7C43.0886 21.1167 42.4333 19.4297 42 17.68C41.9933 17.5691 42.0223 17.459 42.0827 17.3658C42.1432 17.2725 42.2319 17.2011 42.3359 17.162C42.4399 17.1229 42.5536 17.1181 42.6606 17.1483C42.7675 17.1785 42.8619 17.2422 42.93 17.33Z" fill="#231F20"/>
<path d="M76.5004 16.43C75.9222 17.6301 75.4211 18.866 75.0004 20.13C74.5704 21.41 74.2004 22.73 73.8904 24.07C73.2529 26.6999 72.815 29.3742 72.5804 32.07C72.5104 32.8 71.5804 33.07 70.6504 33.07C69.7204 33.07 68.8304 32.5 68.9604 31.64C69.5354 28.7957 70.3517 26.0056 71.4004 23.3C71.9053 21.9499 72.4896 20.631 73.1504 19.35C73.7607 17.9962 74.6188 16.7684 75.6804 15.73C76.0004 15.49 76.5704 16 76.5004 16.43Z" fill="#231F20"/>
<path d="M94.0804 19.2799C93.4604 20.8599 92.9504 22.5199 92.4304 24.1799L90.8804 29.1799C90.3504 30.8599 89.7904 32.5399 89.1404 34.1799C88.4918 35.9152 87.6886 37.5886 86.7404 39.1799C86.6133 39.3862 86.4351 39.5561 86.2232 39.6735C86.0113 39.7908 85.7727 39.8516 85.5304 39.8499C85.0719 39.8357 84.6345 39.6543 84.3004 39.3399C83.6104 38.6999 83.1704 37.7899 83.6704 37.0899C84.6174 35.7522 85.4503 34.3372 86.1604 32.8599C86.9304 31.3399 87.6304 29.7599 88.3304 28.1799L90.4204 23.3699C91.1304 21.7599 91.8504 20.1499 92.7204 18.5699C93.0004 18.1999 94.2004 18.8099 94.0804 19.2799Z" fill="#231F20"/>
<path d="M29.0003 87.07C31.3274 92.783 34.9306 97.8878 39.5342 101.994C44.1377 106.1 49.6196 109.099 55.5603 110.76C59.9109 111.879 64.4346 112.161 68.8903 111.59C76.8437 110.588 84.3272 107.271 90.4103 102.05C96.5878 96.9015 100.92 89.8806 102.75 82.05C104.285 75.0532 103.968 67.7768 101.83 60.94C100.481 56.6112 98.3524 52.565 95.5503 49C92.7328 45.4317 89.3109 42.3855 85.4403 40C83.0703 38.48 83.6803 38 86.2003 38.59C86.9519 38.7849 87.6929 39.0185 88.4203 39.29C89.2403 39.64 90.1203 40.13 91.0903 40.67C91.5603 40.96 92.0903 41.23 92.5603 41.58C93.0303 41.93 93.5603 42.33 94.0203 42.74C94.4803 43.15 95.0203 43.58 95.5203 44.03C96.0203 44.48 96.4503 45.03 96.9203 45.57C100.219 49.3824 102.749 53.7968 104.37 58.57C105.987 63.2962 106.779 68.2654 106.71 73.26C106.679 78.2618 105.762 83.2185 104 87.9C102.169 92.5723 99.4522 96.8472 96.0003 100.49C91.887 104.905 86.9514 108.476 81.4703 111C75.9189 113.579 69.8612 114.884 63.7403 114.82C60.3966 114.718 57.0783 114.204 53.8603 113.29C50.6714 112.3 47.6025 110.959 44.7103 109.29C41.8368 107.582 39.1548 105.57 36.7103 103.29C34.3011 101.007 32.1514 98.465 30.3003 95.71C28.0388 92.3172 26.2868 88.6111 25.1003 84.71C23.9374 80.7953 23.3942 76.7227 23.4903 72.64C23.5533 69.5527 23.9864 66.4841 24.7803 63.5C25.1815 62.0099 25.6588 60.5413 26.2103 59.1L27.1803 57C27.4803 56.29 27.8803 55.63 28.1803 54.94C29.6364 52.2332 31.3762 49.6889 33.3703 47.35C35.3787 45.046 37.6095 42.9458 40.0303 41.08C43.7652 38.1946 47.9381 35.9259 52.3903 34.36C56.8474 32.7566 61.5538 31.9575 66.2903 32H67.8403L69.3903 32.12C69.9103 32.12 70.3903 32.18 70.9403 32.26L72.5003 32.51C73.3871 32.6456 74.2652 32.8326 75.1303 33.07C75.8606 33.2305 76.579 33.441 77.2803 33.7L79.0203 34.33C79.4843 34.52 79.9382 34.7336 80.3803 34.97C81.5469 35.4582 82.5767 36.2236 83.3803 37.2C83.6454 37.51 83.8799 37.8449 84.0803 38.2C84.2603 38.63 83.6003 38.6 82.3003 38.2C81.9803 38.1 81.6203 37.97 81.2203 37.82L79.8703 37.39L78.3003 36.86L76.4803 36.35C68.6815 34.1858 60.3988 34.5357 52.8103 37.35C48.9348 38.7442 45.2908 40.7128 42.0003 43.19C40.354 44.4362 38.8 45.7997 37.3503 47.27C35.9012 48.7557 34.5642 50.3467 33.3503 52.03C31.5717 54.5128 30.0947 57.1984 28.9503 60.03C27.8487 62.9169 27.1129 65.9303 26.7603 69C26.3603 72.0503 26.3603 75.1398 26.7603 78.19C27.1453 81.2166 27.9288 84.1789 29.0903 87L29.0003 87.07Z" fill="#231F20"/>
<path d="M26.5101 20.08C27.6001 21.83 28.8201 23.5 30.0201 25.18C31.2201 26.86 32.5201 28.48 33.7601 30.12C36.2901 33.38 38.9201 36.56 41.6701 39.58C43.2001 41.33 40.0001 44.21 38.4001 42.3C35.8401 38.91 33.5001 35.41 31.2801 31.83C30.1601 30.05 29.1501 28.2 28.1501 26.35C27.1501 24.5 26.2401 22.6 25.3701 20.68C25.1501 20.13 26.1501 19.61 26.5101 20.08Z" fill="#231F20"/>
<path d="M31.36 32C32.94 33.73 34.55 35.43 36.23 37C37.07 37.78 37.95 38.51 38.86 39.29C39.77 40.07 40.64 40.92 41.48 41.77C42.41 42.77 40.41 44.47 39.57 43.47C38.73 42.47 38.11 41.71 37.33 40.87C36.55 40.03 35.71 39.17 34.93 38.26C34.15 37.35 33.44 36.38 32.74 35.42C32.04 34.46 31.4 33.42 30.74 32.49C30.58 32.14 31.11 31.73 31.36 32Z" fill="#231F20"/>
<path d="M76.2902 16.69C76.2102 16.87 75.9902 16.85 75.6602 16.69C75.5602 16.69 75.3502 16.44 75.3602 16.37C75.385 16.2337 75.4218 16.0998 75.4702 15.97C75.8189 15.5208 76.2297 15.1235 76.6902 14.79C76.9925 14.5474 77.3296 14.3519 77.6902 14.21C78.444 13.9272 79.23 13.7391 80.0302 13.65C80.2022 13.6199 80.3782 13.6199 80.5502 13.65C81.1502 13.71 81.7402 13.71 82.3202 13.73C82.4158 13.7502 82.5146 13.7502 82.6102 13.73C83.2584 13.7023 83.9069 13.78 84.5302 13.96L85.9302 14.55C86.0002 14.55 86.0802 14.55 86.1202 14.66C86.1602 14.77 86.3802 14.85 86.5202 14.91C86.7216 14.9815 86.9158 15.0719 87.1002 15.18C87.193 15.2457 87.277 15.323 87.3502 15.41C87.4202 15.48 87.3502 15.63 87.2802 15.64C87.2102 15.65 87.2202 15.77 87.2102 15.84C87.2002 15.91 87.2102 15.89 87.2102 15.91C87.2102 15.93 86.0002 16 85.8702 16L85.0002 15.81C84.669 15.7583 84.3351 15.7249 84.0002 15.71C83.9032 15.6987 83.8086 15.6717 83.7202 15.63C83.2484 15.5817 82.7744 15.5584 82.3002 15.56C82.0295 15.5544 81.7606 15.5141 81.5002 15.44C81.4479 15.425 81.3925 15.425 81.3402 15.44C80.8802 15.44 80.4302 15.44 79.9702 15.44C79.7411 15.4646 79.5139 15.5046 79.2902 15.56H79.1602C79.1073 15.5502 79.0531 15.5502 79.0002 15.56C78.4747 15.6743 77.9715 15.8735 77.5102 16.15C77.2392 16.2485 76.978 16.3724 76.7302 16.52C76.6502 16.59 76.3202 16.6 76.2902 16.69Z" fill="#231F20"/>
<path d="M43.0002 18C43.1702 18.1 43.1402 18.32 43.0002 18.56C42.9097 18.6557 42.7902 18.7189 42.6602 18.74C42.5578 18.7188 42.4574 18.6887 42.3602 18.65C42.0975 18.4217 41.7961 18.2422 41.4702 18.12C41.2602 18.03 41.0302 17.98 40.8202 17.89C40.3247 17.7558 39.8135 17.6885 39.3002 17.69C39.181 17.7098 39.0594 17.7098 38.9402 17.69C38.5178 17.6051 38.0827 17.6051 37.6602 17.69C37.5859 17.6896 37.5131 17.7104 37.4502 17.75C36.9767 17.8828 36.4908 17.9666 36.0002 18H34.7902C34.7302 18 34.6702 18 34.6102 18C34.4955 17.9331 34.3599 17.9117 34.2302 17.94C34.0537 17.95 33.8767 17.95 33.7002 17.94C33.6074 17.919 33.517 17.8889 33.4302 17.85C33.3502 17.85 33.3702 17.68 33.4302 17.66C33.4902 17.64 33.4302 17.54 33.4302 17.49C33.4262 17.4702 33.4262 17.4498 33.4302 17.43C33.5769 17.3232 33.7306 17.2263 33.8902 17.14C34.0631 17.0278 34.2436 16.9275 34.4302 16.84L34.6502 16.76C34.7902 16.7 34.9702 16.65 35.1502 16.59L35.9902 16.34C36.0796 16.3251 36.1708 16.3251 36.2602 16.34C36.2602 16.34 37.3502 16 37.4102 16C37.6566 15.9398 37.9138 15.9398 38.1602 16C38.2097 16.0099 38.2607 16.0099 38.3102 16C38.7511 15.9537 39.1966 15.9773 39.6302 16.07C39.8602 16.07 40.0902 16.07 40.3202 16.16L40.4402 16.21L40.6002 16.26C41.1561 16.3975 41.6885 16.6165 42.1802 16.91C42.3068 17.0016 42.424 17.1054 42.5302 17.22C42.6209 17.3506 42.7212 17.4742 42.8302 17.59C42.9102 17.64 43.0002 18 43.0002 18Z" fill="#231F20"/>
<path d="M34.7901 84.84C36.7482 89.6329 39.775 93.9153 43.6397 97.3605C47.5043 100.806 52.1048 103.323 57.0901 104.72C60.742 105.661 64.5395 105.899 68.2801 105.42C74.9537 104.58 81.2335 101.798 86.3401 97.42C91.5371 93.0839 95.1721 87.166 96.6901 80.57C97.9789 74.7003 97.7135 68.5958 95.9201 62.86C94.7796 59.2327 92.987 55.8439 90.6301 52.86C88.2597 49.8863 85.3862 47.3513 82.1401 45.37C80.1401 44.1 80.6601 43.69 82.7601 44.22C83.2901 44.36 83.9101 44.56 84.6201 44.81C85.3301 45.06 86.0001 45.52 86.8501 46C87.2401 46.24 87.6801 46.47 88.0801 46.77L89.3001 47.77C89.7068 48.11 90.1268 48.47 90.5601 48.85C90.9601 49.25 91.3401 49.69 91.7301 50.14C97.2038 56.5974 100.121 64.837 99.9301 73.3C99.8987 77.4687 99.1302 81.599 97.6601 85.5C96.1391 89.4152 93.8779 93.0006 91.0001 96.06C87.5344 99.7486 83.3839 102.727 78.7801 104.83C74.1323 106.982 69.0614 108.065 63.9401 108C61.1347 107.915 58.3504 107.485 55.6501 106.72C52.9885 105.908 50.4233 104.808 48.0001 103.44C45.611 102.011 43.3787 100.336 41.3401 98.44C39.3357 96.5228 37.5452 94.3936 36.0001 92.09C32.1493 86.3783 30.1552 79.6173 30.2901 72.73C30.3423 70.142 30.7083 67.5699 31.3801 65.07C32.0235 62.5659 32.9741 60.1509 34.2101 57.88C35.4284 55.6105 36.8868 53.4783 38.5601 51.52C40.2407 49.5856 42.1099 47.8236 44.1401 46.26C47.2751 43.8491 50.7716 41.949 54.5001 40.63C58.2244 39.2804 62.1589 38.6032 66.1201 38.63H67.4201L68.7201 38.73C69.5926 38.7825 70.4609 38.8894 71.3201 39.05C73.6133 39.4109 75.8407 40.1084 77.9301 41.12C78.884 41.5441 79.7236 42.1884 80.3801 43C80.6016 43.2499 80.8022 43.5175 80.9801 43.8C81.1301 44.15 80.5801 44.13 79.4901 43.8C78.9501 43.62 78.2801 43.37 77.4901 43.12L76.1701 42.67L74.6501 42.24C68.0994 40.4279 61.1446 40.7218 54.7701 43.08C51.54 44.2675 48.5063 45.9327 45.7701 48.02C42.9888 50.0951 40.5522 52.5958 38.5501 55.43C37.0466 57.5246 35.8041 59.7947 34.8501 62.19C33.9102 64.5884 33.272 67.0943 32.9501 69.65C32.3048 74.7945 32.9936 80.0186 34.9501 84.82L34.7901 84.84Z" fill="#231F20"/>
</svg>
