<svg width="128" height="128" viewBox="0 0 128 128" fill="none" xmlns="http://www.w3.org/2000/svg">
<path d="M22.15 16.95C28.35 17.14 33.81 19.53 38.78 22.2C40.58 23.18 42.35 24.09 44.07 24.94C45.59 25.69 47.12 26.34 48.69 26.71C50.26 27.11 51.91 27.3 53.56 27.29C56.88 27.27 60.25 26.43 63.36 25.02C66.12 23.77 68.66 21.96 70.94 19.93C72.39 18.61 73.8 17.23 75.16 15.79C75.85 15.08 76.5 14.33 77.21 13.63L79.36 11.52C80.26 10.64 80.36 10.92 80.04 12.02C79.88 12.57 79.63 13.34 79.28 14.23C79.1 14.68 78.91 15.17 78.65 15.65C78.38 16.12 78.05 16.59 77.69 17.06C77.03 17.88 76.37 18.7 75.66 19.5C75.31 19.9 74.95 20.29 74.59 20.68L73.43 21.79C71.85 23.23 70.17 24.59 68.34 25.77C64.69 28.14 60.48 29.8 56.06 30.25C53.43 30.51 50.68 30.49 47.98 29.88C45.27 29.31 42.79 28.19 40.51 27C38 25.67 35.66 24.34 33.17 23.28C30.7 22.2 28.14 21.37 25.55 20.9C22.37 20.37 19.07 20.45 16.16 21.69C13.96 22.59 11.96 24.06 10.45 25.91C8.93997 27.77 7.94997 30.07 7.66997 32.44C7.22997 36.13 8.59997 39.88 11.27 42.12C11.57 42.36 11.86 42.6 12.16 42.83C12.48 43.03 12.83 43.2 13.15 43.4C13.74 43.81 14.31 44 14.77 44.22C15.22 44.44 15.55 44.74 15.88 44.87C16.5 45.2 16.83 45.59 17.09 46.05C17.21 46.26 17.38 46.46 17.45 46.63C17.56 46.92 17.28 47.09 16.62 47.24C16.28 47.32 15.86 47.34 15.35 47.34C14.84 47.37 14.25 47.25 13.61 47.06C13.14 46.9 12.65 46.77 12.2 46.56L10.85 45.84C10.63 45.71 10.39 45.6 10.18 45.45L9.56997 44.97C9.16997 44.64 8.73997 44.33 8.35997 43.96C6.87997 42.45 5.69997 40.6 4.97997 38.55C3.61997 34.44 4.05997 29.76 6.16997 25.92C7.68997 23.04 10.1 20.68 12.9 19.06C15.73 17.43 19.04 16.81 22.14 16.82V16.91L22.15 16.95Z" fill="#231F20"/>
<path d="M21.9598 53.47C21.8698 53.19 25.3498 47.11 20.8298 44.86C17.2098 43.05 22.3898 43.71 24.0498 44.48C25.7098 45.25 28.3798 46.6 26.4098 50.15C24.4398 53.7 21.9598 53.47 21.9598 53.47Z" fill="#231F20"/>
<path d="M59.62 56.88C62.47 58.04 65.38 59.07 68.28 60.09C69.21 60.42 70.37 59.72 70.59 58.78C70.83 57.73 70.27 56.82 69.28 56.47C66.38 55.45 63.47 54.42 60.62 53.26C59.71 52.89 58.52 53.66 58.31 54.57C58.06 55.66 58.64 56.48 59.62 56.88Z" fill="#231F20"/>
<path d="M55.4301 69.31C58.2801 70.47 61.19 71.5 64.09 72.52C65.02 72.85 66.1801 72.15 66.4001 71.21C66.6401 70.16 66.08 69.25 65.09 68.9C62.19 67.88 59.2801 66.85 56.4301 65.69C55.5201 65.32 54.33 66.09 54.12 67C53.87 68.09 54.4501 68.91 55.4301 69.31Z" fill="#231F20"/>
<path d="M58.1399 55.94C58.1399 55.94 49.6199 43 37.4699 44.5C24.4899 46.11 25.2599 60.2 29.1499 64.63C29.1499 64.63 21.7499 61.58 24.1499 50.43C26.5499 39.28 38.9599 41.02 46.9099 43.63C54.8599 46.24 60.6399 48.43 60.6399 48.43L58.1299 55.94H58.1399Z" fill="#231F20"/>
<path d="M14.7099 48.58C14.6299 46.75 15.3899 44.98 16.7199 43.78C17.1999 43.35 17.7299 42.92 18.3399 42.66C18.8999 42.42 19.4199 42.31 19.9299 42.23C20.4599 42.18 20.9699 42.22 21.4699 42.27C22.4599 42.44 23.3399 42.79 24.1499 43.17C24.8499 43.5 25.5499 43.83 26.2499 44.15C26.6899 44.36 27.0899 44.63 27.4699 44.91C27.8199 45.24 28.0899 45.69 28.3399 46.12C28.4899 46.41 28.2699 46.66 27.8099 46.92C27.3599 47.16 26.5699 47.56 25.9799 47.58C25.5299 47.49 25.1099 47.37 24.7099 47.25L23.6499 46.72C22.9599 46.37 22.3099 46.05 21.6499 45.77C21.2499 45.6 20.8399 45.54 20.4399 45.57C20.0199 45.6 19.6699 45.62 19.3699 45.77C18.6899 46.07 18.0599 46.8 17.8799 47.7C17.8099 47.97 17.8099 48.26 17.8099 48.54C17.8399 48.68 17.8299 48.83 17.8699 48.96C17.8899 49.09 17.9199 49.16 17.9699 49.25C18.0799 49.46 18.4899 49.83 18.9299 50.14C19.3699 50.45 19.8599 50.73 20.3699 50.96C21.1599 51.32 22.0399 51.47 22.8799 51.66C23.0699 51.7 23.2599 51.72 23.4399 51.77C23.5999 51.83 23.7299 51.91 23.8299 51.98C23.9299 52.07 23.9799 52.21 24.0299 52.32C24.1199 52.56 24.1399 52.81 24.1199 53.13C24.1199 53.28 24.1199 53.42 24.0999 53.54C24.0599 53.95 23.6299 54.3 22.9399 54.53C22.0199 54.61 21.1799 54.38 20.3199 54.13C19.4699 53.86 18.6399 53.5 17.7999 53.03C17.4899 52.86 17.1699 52.66 16.8499 52.44C16.4999 52.18 16.2499 51.99 15.7799 51.53C15.3799 51.06 15.0199 50.52 14.8699 49.95C14.7299 49.5 14.6499 49.04 14.6099 48.57H14.6899L14.7099 48.58Z" fill="#231F20"/>
<path d="M24.7499 46.98C26.4799 44.32 29.1599 42.14 32.1399 41.15C35.0599 40.03 38.1899 39.88 41.0599 40.18C43.1599 40.42 45.2299 40.71 47.1699 41.31C49.5899 42.03 51.8899 42.91 54.1399 43.8L57.4799 45.11C58.0299 45.31 58.5799 45.54 59.1199 45.77L59.9499 46.11C60.4299 46.31 60.8399 46.44 61.2899 46.6L62.1899 47.1C62.3299 47.19 62.5099 47.24 62.6199 47.37C62.7399 47.51 62.7799 47.68 62.8399 47.83C63.0399 48.46 62.9999 49.21 62.8699 49.98C62.8099 50.36 62.7199 50.75 62.6299 51.13L62.4099 51.99L61.9899 53.48C61.1099 56.43 60.2099 59.35 59.2899 62.23C58.6999 64.08 58.1299 65.94 57.4799 67.77C57.1499 68.68 56.7299 69.57 56.3199 70.45L55.6699 71.76C55.4299 72.19 55.1199 72.59 54.8099 72.99C54.3799 73.47 54.1199 73.65 53.9899 73.58C53.8499 73.51 53.8099 73.17 53.6699 72.57C53.3199 71.34 53.0799 69.27 53.5999 67.12C54.6999 63.74 55.7999 60.36 56.8999 56.98C57.4499 55.29 57.9899 53.61 58.4799 51.94L58.8299 50.7C58.8699 50.56 58.8599 50.62 58.8699 50.59L58.8899 50.55L58.9399 50.46C58.9699 50.39 59.0099 50.31 59.0299 50.22C59.0299 50.12 58.9299 50.14 58.8699 50.09L58.8099 50.01C58.8099 50.01 58.7799 49.99 58.7599 49.99V49.97L58.6399 49.93L57.5899 49.61C55.2799 48.76 53.0499 47.81 50.7699 47.05C48.4999 46.27 46.2299 45.6 43.9999 45.09C41.5499 44.54 39.0799 44.26 36.7199 44.53C34.3699 44.81 32.0599 45.55 30.2799 47.03C28.0599 48.83 26.5399 51.6 26.2399 54.53C26.0099 56.75 26.4899 58.97 27.6699 60.93C28.8399 62.89 30.5599 64.56 32.4899 65.92C35.5199 68.03 39.0199 69.27 42.5699 70.26C43.3599 70.46 44.1199 70.67 44.9299 70.85C46.3999 71.23 47.3599 71.51 48.0099 71.87C48.3199 72.1 48.5599 72.31 48.7399 72.55C48.9199 72.79 49.0599 73.06 49.1699 73.31C49.2799 73.54 49.4399 73.76 49.4899 73.93C49.5799 74.22 49.2999 74.4 48.6499 74.67C47.9999 74.95 47.0299 75.12 45.8699 74.91C42.3999 74.39 38.8699 73.43 35.4299 71.89C33.7199 71.09 32.0099 70.21 30.4099 69.06C29.5799 68.54 28.8199 67.88 28.0399 67.25C27.2999 66.55 26.5399 65.87 25.8799 65.05C24.8499 63.9 24.0099 62.5 23.3299 61.03C22.6999 59.52 22.2799 57.88 22.1999 56.2C22.0199 52.93 22.9199 49.69 24.6599 46.95L24.7499 47V46.98Z" fill="#231F20"/>
<path d="M102.73 109.1C96.9599 110.03 91.1099 109.52 85.6399 107.85C83.6299 107.24 81.7499 106.6 79.8799 105.88C76.6099 104.6 73.4099 103.33 70.1399 102.44C68.5099 102.02 66.8599 101.64 65.2099 101.5C63.5599 101.31 61.9099 101.35 60.2999 101.6L59.2299 101.8C58.8699 101.86 58.5399 102.01 58.1999 102.11C57.8599 102.23 57.4999 102.31 57.1799 102.47L56.1999 102.94L55.7099 103.17L55.2799 103.44C54.9799 103.61 54.7299 103.83 54.4599 104.04C54.1899 104.24 53.9599 104.5 53.6999 104.73C53.4699 104.99 53.2399 105.24 53.0199 105.51C52.4699 106.2 52.0399 106.99 51.6799 107.8C51.3499 108.63 51.0999 109.48 50.9499 110.36C50.7799 112.1 50.4899 113.93 50.8899 115.82C51.1099 116.99 50.9199 116.97 50.0899 116.15C49.8699 115.95 49.6499 115.68 49.3899 115.35C49.1199 115.03 48.8499 114.64 48.5799 114.18C48.2799 113.73 48.1099 113.19 47.8899 112.61C47.7899 112.32 47.7499 112.01 47.6499 111.69C47.6199 111.37 47.6199 111.04 47.6499 110.71C47.7799 108.34 48.5599 106 49.9099 103.99C50.5699 102.98 51.4099 102.07 52.3699 101.28C52.8499 100.89 53.3799 100.56 53.9299 100.24C54.4599 99.97 54.9799 99.75 55.5099 99.5C57.6399 98.62 59.9199 98.13 62.1599 98.08C64.3999 98.04 66.5799 98.33 68.6799 98.81C73.6699 99.99 78.4999 101.79 83.1499 103.48C84.4299 103.95 85.6899 104.39 86.9399 104.76C88.2099 105.11 89.4899 105.42 90.7899 105.64C93.3899 106.08 96.0399 106.25 98.6699 106.1C101.9 105.89 105.13 105.24 108.07 103.91C110.3 102.92 112.38 101.61 114.15 99.93C115.93 98.26 117.44 96.29 118.52 94.13C119.36 92.46 119.9 90.67 120.07 88.9C120.2 87.14 119.98 85.41 119.23 83.98C118.9 83.35 118.5 82.8 118.04 82.27C117.21 81.26 116.45 80.73 116.01 80.21C115.56 79.68 115.34 79.23 115.22 78.7C115.17 78.45 115.06 78.19 115.05 77.97C115.03 77.61 115.37 77.44 116.06 77.45C116.74 77.45 117.79 77.68 118.95 78.42C119.82 78.96 120.62 79.66 121.35 80.46C122.06 81.29 122.6 82.27 123.02 83.3C123.83 85.38 123.97 87.64 123.66 89.74C123.03 93.96 120.95 97.64 118.3 100.7C116.33 102.98 113.86 104.91 111.18 106.31C108.5 107.72 105.63 108.67 102.72 109.18L102.7 109.1H102.73Z" fill="#231F20"/>
<path d="M107.67 80.69C107.67 80.69 109.04 72.33 114.73 75.06C117.26 76.28 109.33 71.35 107.88 72.17C104.4 74.15 107.68 80.69 107.68 80.69H107.67Z" fill="#231F20"/>
<path d="M113.01 79.74H113.06C113.06 79.74 113.13 79.73 113.17 79.7C113.2 79.66 113.19 79.73 113.24 79.59L113.38 79.25C113.56 78.78 113.71 78.28 113.84 77.8C113.89 77.62 113.91 77.37 113.92 77.25C113.92 77.19 113.92 77.14 113.95 77.08C114.02 76.92 114.1 76.6 113.88 76.49C113.86 76.45 113.82 76.43 113.79 76.4L113.74 76.36L113.59 76.27L113 75.91C112.6 75.68 112.19 75.45 111.78 75.25C111.15 74.94 110.48 74.75 109.82 74.61C109.39 74.52 108.98 74.4 108.58 74.28C108.18 74.11 107.8 73.84 107.4 73.6C107.15 73.43 107.16 73.1 107.43 72.64C107.69 72.19 108.27 71.47 108.94 71.24C109.5 71.16 110.04 71.17 110.56 71.22C111.07 71.34 111.56 71.48 112.03 71.65C112.98 71.99 113.88 72.45 114.72 73.02C114.87 73.12 114.95 73.18 115.17 73.3C115.41 73.43 115.63 73.57 115.86 73.68C116.44 74.03 116.94 74.53 117.16 75.18C117.38 75.83 117.23 76.61 117.17 77.3C117.16 77.43 117.13 77.56 117.11 77.68L117.06 77.95C117.03 78.13 116.98 78.29 116.94 78.47C116.85 78.81 116.75 79.14 116.64 79.47C116.53 79.8 116.41 80.12 116.28 80.45L116.18 80.7C116.12 80.81 116.08 80.93 116.03 81.04C115.94 81.27 115.83 81.49 115.71 81.69C115.59 81.88 115.45 82.05 115.3 82.22C114.9 82.47 114.48 82.68 114.01 82.72C113.77 82.75 113.55 82.79 113.31 82.78H112.95C112.86 82.78 112.77 82.78 112.68 82.76C111.37 82.65 110.18 82.34 108.97 82.07C108.04 81.85 107.08 81.76 106.09 81.43C105.87 81.37 105.64 81.3 105.42 81.19C105.23 81.08 105.07 80.95 104.96 80.81C104.85 80.66 104.82 80.49 104.79 80.36C104.74 80.04 104.82 79.78 104.99 79.51C105.07 79.39 105.14 79.27 105.22 79.17C105.37 79.01 105.56 78.94 105.79 78.85C106.01 78.78 106.26 78.66 106.54 78.61C107.82 78.69 109.32 79.13 110.82 79.38C111.37 79.48 111.93 79.57 112.45 79.62C112.69 79.65 113.06 79.65 112.93 79.67C112.94 79.67 112.96 79.69 112.99 79.7L113.04 79.77L113.01 79.74Z" fill="#231F20"/>
<path d="M92.81 84.88C101 85.63 108.85 71.99 98.93 64.17C88.74 56.15 75.75 63.02 75.75 63.02L78.98 54.67C78.98 54.67 95.98 57.41 101.79 63.19C107.59 68.97 108.25 71.48 106.37 77.33C104.49 83.18 101.45 85.09 98.16 85.63C94.87 86.17 92.82 84.88 92.82 84.88H92.81Z" fill="#231F20"/>
<path d="M104.84 73.98C104.9 71.93 104.39 69.92 103.14 68.22C101.95 66.47 100.3 64.95 98.3002 63.75C96.8302 62.88 95.2102 62.24 93.5302 61.61C91.4602 60.8 89.2802 60.12 87.0502 59.44L83.6702 58.41C83.1002 58.24 82.5402 58.06 81.9702 57.81L81.1702 57.49C81.0802 57.46 80.9602 57.41 80.8502 57.38L80.5602 57.23C80.5102 57.21 80.4602 57.17 80.4102 57.16C80.3602 57.16 80.3202 57.2 80.2802 57.24C80.1502 57.39 80.0502 57.57 79.9502 57.76L79.8102 58.05L79.7302 58.24L79.5902 58.57L79.0602 59.91C78.0402 62.62 77.2302 65.46 76.4702 68.27C75.9902 70.07 75.5702 71.9 75.1102 73.71C74.8702 74.61 74.5602 75.5 74.2602 76.39L73.8002 77.72C73.6202 78.16 73.3902 78.58 73.1402 79C72.4202 80.03 72.4102 79.88 71.9502 78.76C71.7402 78.2 71.3502 77.39 71.2402 76.48C71.1002 75.56 71.0302 74.51 71.1802 73.42C71.9202 69.96 72.8502 66.55 73.9002 63.15C74.4402 61.45 75.0202 59.77 75.6802 58.06L76.2302 56.73C76.5202 56.04 76.8802 55.23 77.2802 54.58C77.7002 53.92 78.1702 53.42 78.7702 53.16C79.0802 52.96 79.4402 53.06 79.7702 53.08L80.7802 53.17L81.6202 53.44C81.7602 53.49 81.9102 53.51 82.0502 53.55L82.4502 53.67L83.3802 53.95C87.6002 55.47 92.4902 56.3 97.1002 58.28C99.6202 59.38 102.11 60.8 104.23 62.8C104.78 63.26 105.24 63.85 105.71 64.4C106.21 64.93 106.56 65.59 106.97 66.19C107.76 67.43 108.33 68.85 108.66 70.28C109.48 73.84 108.82 77.6 107 80.64C105.65 82.96 103.46 84.87 101.03 85.87C98.5902 86.91 96.0202 87.29 93.5102 87.38C89.6002 87.52 85.8002 87.1 82.0802 86.25C81.2702 86.04 80.4402 85.92 79.6402 85.65C78.1502 85.18 77.1802 84.82 76.5902 84.33C76.3102 84.06 76.1002 83.81 75.9602 83.55C75.8102 83.28 75.7302 83 75.6602 82.74C75.6002 82.5 75.4802 82.26 75.4602 82.09C75.4202 81.79 75.7402 81.66 76.4002 81.48C77.0702 81.28 77.9802 81.26 79.0302 81.56C82.1702 82.33 85.3602 83.03 88.5602 83.4C91.7302 83.74 95.0102 83.8 97.8002 82.92C98.8602 82.64 99.7902 82.17 100.66 81.66C101.49 81.1 102.23 80.46 102.82 79.69C104.05 78.09 104.71 76 104.74 73.98H104.84Z" fill="#231F20"/>
</svg>
