<svg width="128" height="128" viewBox="0 0 128 128" fill="none" xmlns="http://www.w3.org/2000/svg">
<path d="M34.8001 47.77C32.5401 47.77 19.1201 47.77 13.4701 55.66C7.62015 63.83 9.81015 82.79 9.81015 82.79L9.53015 56.51L13.4501 49.09L34.8001 47.77Z" fill="#231F20"/>
<path d="M10.77 99.93C10.52 98.92 10.36 97.9 10.23 96.89C10.17 96.52 10.08 96.16 10.05 95.79C9.92002 94.49 9.87002 93.19 9.85002 91.9C9.87002 91.32 9.83002 90.75 9.82002 90.19C9.82002 89.83 9.78002 89.46 9.82002 89.1C9.87002 88.73 9.95002 88.37 10.02 88.01C10.07 87.78 10.12 87.82 10.24 88.01C10.35 88.2 10.59 88.55 10.74 88.95C10.95 89.67 10.99 90.39 11.13 91.11C11.25 91.83 11.3 92.55 11.29 93.28C11.3 94.16 11.53 95.04 11.69 95.92C11.87 96.88 12.06 97.84 12.31 98.78C12.48 99.35 12.61 99.94 12.82 100.5C13.1 101.36 13.47 102.18 13.95 102.92C14.16 103.18 14.37 103.44 14.61 103.66C14.87 103.84 15.1 104.08 15.37 104.21C15.49 104.27 15.61 104.31 15.7 104.4C16.08 104.66 16.17 104.8 16.14 105.26C16.14 105.36 16.14 105.47 16.13 105.56C16.1 105.88 15.78 106.05 15.23 105.97C14.81 105.92 14.47 105.73 14.12 105.53C13.79 105.32 13.51 105.05 13.21 104.78C12.95 104.5 12.72 104.2 12.49 103.89C12.28 103.58 12.1 103.25 11.92 102.93C11.42 101.96 11.05 100.95 10.76 99.94L10.8 99.92L10.77 99.93Z" fill="#231F20"/>
<path d="M57.9198 21.52C59.5498 21.52 60.8799 25.59 57.5799 27C54.2799 28.41 53.0499 26.15 54.5799 23.75C56.1099 21.35 57.9198 21.51 57.9198 21.51V21.52Z" fill="#231F20"/>
<path d="M108.86 74.88C108.62 77.51 108.34 80.13 107.96 82.74C107.83 83.69 107.76 84.65 107.59 85.6C107.02 88.94 106.32 92.25 105.57 95.54C105.27 97.01 104.9 98.46 104.6 99.92C104.13 101.77 103.89 103.68 102.89 105.39C102.62 105.93 102.54 105.83 102.41 105.28C102.32 104.92 102.23 104.53 102.13 104.15C102.08 103.92 102 103.66 101.98 103.4C101.98 103.15 102 102.88 102.04 102.62C102.33 100.72 102.63 98.82 102.92 96.91C103.26 95.02 103.71 93.14 104.14 91.25C104.68 88.99 104.86 86.57 105.15 84.22C105.45 81.63 105.79 79.04 106 76.44C106.14 74.84 106.26 73.24 106.32 71.63C106.43 69.2 106.49 66.76 106.38 64.34C106.27 62.47 105.97 60.64 105.68 58.82C105.62 58.42 105.53 58.03 105.49 57.62C105.34 56.11 105.49 55.61 106.15 55.2C106.3 55.11 106.45 54.99 106.6 54.92C107.11 54.71 107.63 55.27 107.97 56.39C108.53 58.03 108.72 59.77 108.93 61.53C109.01 62.41 109.07 63.3 109.13 64.19C109.15 65.08 109.17 65.98 109.2 66.88C109.22 68.21 109.17 69.55 109.14 70.88C109.06 72.21 109.01 73.55 108.92 74.88H108.85H108.86Z" fill="#231F20"/>
<path d="M50.1501 34.84C49.1401 35.8101 48.1401 36.8001 47.1601 37.8101C46.8001 38.1801 46.5201 38.6001 46.1501 38.9701C44.8801 40.2601 43.5901 41.5401 42.3701 42.8801C41.8101 43.4601 41.3101 44.0901 40.8201 44.7201C40.2001 45.5301 39.6601 46.4201 38.7101 46.9701C38.3501 47.0901 38.1801 46.9101 37.9701 46.4001C37.7801 45.9101 37.5901 45.13 37.8701 44.6C39.0001 42.82 40.2301 41.11 41.8601 39.71C42.8101 38.85 43.5401 37.74 44.3901 36.76C45.3301 35.69 46.3001 34.64 47.2701 33.59L49.0801 31.67C49.9801 30.69 50.9601 29.7701 51.8201 28.7701C52.5001 28.0001 53.0301 27.11 53.6601 26.3C53.8101 26.13 53.9301 25.9401 54.0901 25.7801C54.3901 25.4901 54.6201 25.32 54.8801 25.3C55.1501 25.3 55.4101 25.4 55.7101 25.59C55.8501 25.67 55.9901 25.75 56.1101 25.84C56.3101 25.99 56.4301 26.2 56.4801 26.47C56.5301 26.74 56.5501 27.0901 56.4001 27.3601C56.1901 27.7801 55.9801 28.2001 55.7501 28.6101C55.5001 29.0001 55.2201 29.36 54.9401 29.73C54.3701 30.46 53.7501 31.1601 53.1201 31.8601C52.2001 32.9101 51.1801 33.89 50.2101 34.91L50.1501 34.8601V34.84Z" fill="#231F20"/>
<path d="M71.2301 42.32C70.6301 41.43 70.0201 40.54 69.3901 39.66C69.1601 39.34 68.8601 39.07 68.6401 38.75C67.8401 37.61 67.0701 36.42 66.3201 35.23C65.9801 34.7 65.5601 34.24 65.2301 33.72C64.7301 33.11 64.3801 32.36 64.1401 31.56C64.0701 31.31 64.2001 31.25 64.5101 31.27C64.8101 31.3 65.4101 31.32 65.8501 31.54C66.2201 31.75 66.5901 31.96 66.8901 32.23C67.2001 32.49 67.5301 32.73 67.7601 33.06C68.2601 33.68 68.7301 34.32 69.1501 35.02C69.6201 35.88 70.3601 36.57 70.9801 37.35C71.6501 38.21 72.3001 39.09 72.9601 39.97L74.1701 41.6C74.7901 42.41 75.3601 43.28 76.0001 44.07C76.4901 44.69 77.1001 45.21 77.6501 45.8C77.7701 45.93 77.9101 46.04 78.0101 46.18C78.2101 46.44 78.2901 46.65 78.2401 46.86C78.2201 46.96 78.1701 47.06 78.1001 47.17C78.0201 47.28 77.9001 47.4 77.7901 47.52C77.6801 47.63 77.5901 47.74 77.5001 47.82C77.2301 48.06 76.5301 48.21 76.1201 47.94C74.9501 47.11 74.0401 46.05 73.1201 44.95C72.4601 44.12 71.8601 43.23 71.2001 42.37L71.2501 42.32H71.2301Z" fill="#231F20"/>
<path d="M36.02 65.68C36.82 68.73 37.38 71.87 37.45 75.03C37.5 77.42 37.35 80.16 35.94 82.2C35.1 83.41 33.8 84.03 32.58 84.08C31.82 84.11 31.18 84.06 30.63 83.95C30.28 83.88 29.93 83.79 29.59 83.69C29.4 83.63 29.21 83.57 29.03 83.5C28.98 83.48 28.45 83.27 28.73 83.39C27.98 83.07 27.13 83.17 26.68 83.93C26.31 84.56 26.47 85.67 27.22 85.98C29.97 87.14 33.2 87.65 35.94 86.16C39.96 83.98 40.59 78.64 40.44 74.55C40.32 71.29 39.75 68.03 38.92 64.88C38.43 63.01 35.54 63.81 36.03 65.68H36.02Z" fill="#231F20"/>
<path d="M59.3901 64.09C54.2201 62.57 50.2901 67.4 48.7201 71.75C47.0701 76.32 47.4901 82.48 51.4901 85.75C54.7501 88.41 59.1701 88.34 62.2801 85.47C65.6901 82.33 66.2201 77.35 65.5701 73.01C65.2401 70.79 64.4901 68.61 63.0701 66.84C61.4301 64.79 58.9301 63.89 56.3501 63.91C54.4201 63.92 54.4201 66.92 56.3501 66.91C58.0401 66.9 59.5701 67.37 60.7001 68.67C61.6501 69.76 62.1401 71.19 62.4501 72.58C63.1501 75.72 63.1001 79.48 61.1501 82.26C59.6001 84.46 56.9301 85.43 54.6301 84.27C51.1901 82.52 50.3801 78.27 51.0301 74.76C51.6401 71.45 54.3701 65.75 58.6001 66.99C60.4601 67.54 61.2501 64.64 59.4001 64.1L59.3901 64.09Z" fill="#231F20"/>
<path d="M75.0901 85.36C74.9901 81.41 74.5101 77.47 74.0501 73.54C73.8601 71.96 73.6701 70.3699 73.5301 68.7799C73.4901 68.2699 73.4401 67.76 73.4401 67.26C73.4401 67.16 73.4901 66.91 73.4601 66.82C73.5701 67.12 73.0601 67.6399 72.9301 67.7399C72.8101 67.8299 72.6701 67.7999 73.0301 67.7399C73.1901 67.7099 73.3501 67.67 73.5101 67.64C73.9201 67.56 73.3701 67.6399 73.8301 67.5999C74.1101 67.5799 74.3901 67.55 74.6801 67.54C75.8401 67.48 77.1901 67.54 78.2101 67.69C79.4501 67.88 80.6701 68.1899 81.6601 68.7699C82.4801 69.2599 83.0201 69.7999 83.0901 70.7399C83.1301 71.2299 82.9101 71.5399 82.5901 71.8099C82.0601 72.2499 81.4701 72.46 80.8501 72.65C79.5601 73.04 78.5701 73.19 77.2501 73.18L77.6501 76.1299C77.3701 76.1699 77.7101 76.1299 77.8101 76.1299C78.0001 76.1299 78.1801 76.1299 78.3701 76.1399C78.7501 76.16 78.9501 76.1899 79.3501 76.2699C80.2701 76.4499 81.1701 76.71 82.0401 77.04C83.4101 77.55 85.2401 78.43 86.0201 79.55C86.3501 80.03 86.3901 80.1799 86.2001 80.82C86.0401 81.36 85.7101 81.7999 85.1601 82.2099C83.8801 83.1799 81.9701 83.6 80.3501 83.83C78.1201 84.15 75.8301 84.11 73.6001 83.86C72.7901 83.77 72.1001 84.61 72.1001 85.36C72.1001 86.25 72.7901 86.77 73.6001 86.86C76.0501 87.13 78.5101 87.09 80.9501 86.75C83.2201 86.43 85.5701 85.7799 87.3501 84.2699C88.8901 82.9699 89.7901 80.69 88.9801 78.75C88.1701 76.8099 86.0201 75.51 84.1301 74.68C81.8801 73.69 79.3201 72.88 76.8401 73.22C75.1301 73.46 75.6001 76.1599 77.2401 76.1699C80.0301 76.1799 83.9701 75.52 85.5201 72.91C86.4001 71.43 86.2001 69.4899 85.2501 68.0899C84.3001 66.6899 82.9301 65.9299 81.4301 65.39C78.7401 64.42 75.5201 64.2499 72.7101 64.7399C71.5401 64.9499 70.5901 65.46 70.4601 66.76C70.3401 67.96 70.5501 69.22 70.6801 70.41C71.2201 75.39 71.9501 80.36 72.0801 85.37C72.1301 87.3 75.1301 87.3 75.0801 85.37L75.0901 85.36Z" fill="#231F20"/>
<path d="M14.2701 50.77C13.6401 50.99 13.0401 51.42 13.1001 51.41C12.5501 52.26 12.1201 53.55 11.7901 54.79C11.4501 56.05 11.2401 57.4 11.0301 58.75C10.6501 61.46 10.4801 64.24 10.3801 67.02C10.1901 72.59 10.3601 78.22 10.7001 83.82C10.9801 88.21 11.4201 92.59 12.0101 96.92C12.1801 98.15 12.3701 99.36 12.5801 100.56C12.8001 101.66 13.1001 103.26 13.2401 103.18L13.2801 103.2L13.3801 103.27C13.5001 103.34 13.6701 103.38 13.8101 103.44C14.0901 103.57 14.4401 103.65 14.7901 103.73C15.1201 103.83 15.5001 103.88 15.8701 103.93C16.2401 103.99 16.6101 104.04 17.0001 104.07C18.5401 104.22 20.1401 104.23 21.7401 104.22C24.9601 104.17 28.2101 103.96 31.4601 103.74C37.9701 103.28 44.5101 102.76 51.0701 102.44C58.0001 102.09 64.9901 101.87 71.9001 102.01C76.3401 102.09 80.7901 102.32 85.2201 102.83C89.6501 103.33 94.0701 104.06 98.3401 105.35C100.97 106.31 100.5 106.53 98.0801 106.74C97.4701 106.82 96.7601 106.8 95.9301 106.83C95.1101 106.86 94.1901 106.87 93.1901 106.85C91.1901 106.82 88.9001 106.64 86.4101 106.37C77.5901 105.41 68.6901 105.14 59.7501 105.31C50.8001 105.47 41.8301 106.1 32.7501 106.63C29.3601 106.82 25.9201 107.05 22.4201 107.13C20.6701 107.18 18.8901 107.18 17.0801 107.05C16.1701 106.99 15.2501 106.88 14.3001 106.68C13.8201 106.56 13.3501 106.49 12.8501 106.28C12.6001 106.19 12.3601 106.1 12.1101 105.99C11.9001 105.88 11.4901 105.62 11.1701 105.43L10.9301 105.22C10.9101 105.1 10.8101 105.04 10.7601 104.95C10.6101 104.79 10.5501 104.57 10.4501 104.39C10.3601 104.2 10.2501 103.99 10.2101 103.8L10.0901 103.35C9.95013 102.79 9.84013 102.25 9.74013 101.72C9.54013 100.65 9.39013 99.6 9.24013 98.54C8.96013 96.43 8.72013 94.33 8.50013 92.24C7.89013 86.12 7.52013 79.99 7.43013 73.84C7.38013 67.69 7.45013 61.52 8.66013 55.33C9.07013 53.49 9.54013 51.64 10.6301 49.83C11.3201 48.88 12.1101 48.55 12.8101 48.2C13.5301 47.88 14.2501 47.65 14.9601 47.43C16.3901 47.02 17.8101 46.73 19.2401 46.49C22.1001 46.01 24.9501 45.71 27.8101 45.46C39.2201 44.48 50.7101 44.56 62.0301 45.06C70.8301 45.48 79.4701 46.08 88.1201 47.33C90.0301 47.61 91.8901 47.88 93.8101 48.24C97.3501 48.92 99.6701 49.5 101.24 50.08C102.8 50.71 103.66 51.24 104.29 51.81C104.58 52.07 104.98 52.35 105.13 52.56C105.38 52.91 104.78 52.98 103.47 52.86C102.16 52.76 100.14 52.53 97.6101 52C90.0701 50.54 82.2201 49.53 74.2301 48.82C66.2401 48.11 58.1001 47.69 49.9401 47.61C43.8801 47.55 37.8001 47.65 31.7601 48.03C30.2501 48.13 28.7401 48.24 27.2401 48.38C25.7401 48.55 24.2401 48.72 22.7601 48.94C21.2801 49.16 19.8101 49.41 18.3701 49.72C16.9401 50.02 15.5101 50.37 14.3101 50.86L14.2701 50.8V50.77Z" fill="#231F20"/>
<path d="M59.8102 19.2999C60.8102 19.4399 61.7802 19.8199 62.5902 20.4599C63.3802 21.1199 63.9902 22.0199 64.2702 23.0099C64.4902 23.7199 64.6002 24.4799 64.4702 25.1799L64.3702 25.6299C64.3202 25.7899 64.2602 25.9499 64.2002 26.0999C64.0902 26.4199 63.9102 26.6899 63.7402 26.9499C63.3802 27.4699 62.9402 27.8499 62.4902 28.1799C61.5702 28.8099 60.5602 29.1399 59.5502 29.2599C58.6502 29.3599 57.7202 29.3299 56.8302 29.0699C55.6302 28.8399 54.6902 27.7499 54.5202 26.6299C54.4502 26.2899 54.6202 26.2699 55.0102 26.3299C55.2602 26.3599 55.5102 26.3899 55.7302 26.4199C55.8702 26.4199 56.0202 26.4199 56.1602 26.4199C56.2302 26.4199 56.2902 26.4199 56.3702 26.4199C56.4202 26.4399 56.4702 26.4499 56.5202 26.4699C56.9002 26.5499 57.2102 26.5699 57.4802 26.6799C57.7702 26.7499 58.0802 26.8199 58.4202 26.7999C59.0802 26.7999 59.8302 26.6799 60.4902 26.3899C60.9102 26.2299 61.2002 25.8999 61.3702 25.5899C61.4602 25.4299 61.4802 25.2699 61.5202 25.1299C61.5202 24.9399 61.5502 24.7499 61.5202 24.5699C61.5002 23.7899 60.9502 23.1199 60.0902 22.6999C59.5602 22.4699 58.9202 22.3899 58.3002 22.5299C57.3802 22.7399 56.2802 23.3699 55.8502 24.2099C55.6802 24.5399 55.6102 24.8899 55.6502 25.2099C55.7002 25.5299 55.8302 25.7999 55.9802 26.0499C56.0602 26.1599 56.1502 26.2499 56.2402 26.3499C56.5102 26.7699 56.5002 27.0799 56.1602 27.7199C56.0902 27.8599 56.0302 28.0199 55.9502 28.1499C55.8202 28.3799 55.6302 28.5199 55.3602 28.5699C55.1002 28.6199 54.7302 28.6099 54.4002 28.3699C53.3502 27.7899 52.5802 26.3399 52.6302 24.8299C52.6802 23.3099 53.4702 21.9899 54.4002 21.0899C55.1302 20.4099 55.8602 19.9599 56.7902 19.5999C57.7302 19.2399 58.7702 19.0899 59.8002 19.1999V19.2799L59.8102 19.2999Z" fill="#231F20"/>
<path d="M107.86 46.31C107.98 46.49 107.78 46.69 107.45 46.89C107.34 46.95 107.01 47 106.94 46.96C106.82 46.87 106.7 46.77 106.59 46.67C106.55 46.61 105.99 45.58 105.84 45.22C105.67 44.88 105.57 44.52 105.49 44.16C105.31 43.44 105.17 42.7 105.07 41.97C105.05 41.81 105.05 41.64 105.07 41.47C105.17 40.89 105.11 40.33 105 39.77C104.98 39.68 104.99 39.58 104.89 39.5C104.72 39.36 104.57 37.82 104.63 37.62C104.77 37.11 104.84 36.61 104.96 36.11C104.98 36.04 104.94 35.96 105.05 35.9C105.31 35.74 105.25 35.63 105.28 35.34C105.31 35.16 105.36 34.89 105.58 34.6C105.68 34.47 105.83 34.34 106.1 34.23C106.34 34.15 106.54 34.17 106.71 34.22C106.88 34.27 107.02 34.38 107.14 34.53C107.25 34.68 107.34 34.92 107.29 35.14C107.24 35.33 107.11 35.3 107.02 35.27C106.93 35.23 106.84 35.19 106.82 35.18C106.78 35.13 106.65 35.2 106.69 35.18C106.69 35.18 106.68 35.15 106.6 35.28C106.57 35.33 106.59 35.34 106.58 35.28C106.58 35.25 106.56 35.22 106.56 35.21C106.54 35.18 106.77 35.44 106.67 35.33L106.69 35.35C106.74 35.38 106.88 35.45 107.13 35.49L107.37 35.52L107.54 35.54C107.54 35.54 107.57 35.56 107.59 35.57C107.65 35.66 107.69 35.78 107.69 35.8C107.69 35.81 107.75 36.24 107.8 36.7C107.86 37.15 107.94 37.62 107.96 37.72C107.99 37.82 107.93 37.93 107.9 38.03C107.88 38.08 108.15 39.43 108.15 39.49C108.14 39.78 108.25 40.05 108.05 40.35C108.01 40.41 108.03 40.47 108.04 40.52C108.11 41.01 108.06 41.5 108.05 42C108.05 42.25 108.1 42.5 108.12 42.75C108.12 42.8 108.1 42.84 108.09 42.89C108.09 42.95 108.05 43.01 108.06 43.07C108.11 43.66 108.04 44.27 108.16 44.85C108.2 44.98 108.01 45.67 108.04 45.83C108.05 45.92 107.79 46.25 107.85 46.32L107.86 46.31Z" fill="#231F20"/>
<path d="M112.72 47.47C112.71 47.66 112.46 47.6 112.06 47.42C111.93 47.36 111.63 47.1 111.61 47.03C111.58 46.89 111.55 46.75 111.55 46.63C111.55 46.55 111.94 45.72 112.06 45.43C112.18 45.14 112.35 44.91 112.54 44.68C112.93 44.24 113.33 43.8 113.75 43.38C113.84 43.29 113.95 43.21 114.08 43.16C114.51 42.97 114.85 42.68 115.16 42.35C115.21 42.3 115.28 42.26 115.28 42.14C115.28 41.95 116.23 41.16 116.4 41.12C116.82 41.01 117.2 40.86 117.6 40.76C117.66 40.74 117.69 40.68 117.79 40.74C118.02 40.89 118.1 40.78 118.22 40.74C118.38 40.68 118.56 40.64 118.75 40.64C118.85 40.64 118.98 40.72 119.11 40.78C119.22 40.83 119.35 41.17 119.35 41.21C119.34 41.34 119.47 41.47 119.54 41.59C119.57 41.63 119.6 41.69 119.61 41.73C119.63 41.77 119.52 42.04 119.42 42.32C119.32 42.61 119.21 42.87 119.16 42.88C119.16 42.88 118.91 43.09 118.65 43.31C118.4 43.53 118.13 43.77 118.09 43.84C118.04 43.9 117.95 43.9 117.86 43.91C117.82 43.91 117.1 44.66 117.07 44.69C116.88 44.79 116.77 44.99 116.47 44.97C116.41 44.97 116.38 45 116.35 45.03C116.08 45.28 115.74 45.46 115.43 45.66C115.27 45.76 115.14 45.91 115 46.03C114.97 46.05 114.93 46.05 114.89 46.07C114.85 46.09 114.8 46.1 114.77 46.13C114.46 46.45 114.04 46.66 113.77 47.02C113.7 47.1 113.19 47.29 113.13 47.4C113.09 47.45 112.72 47.42 112.72 47.5V47.47Z" fill="#231F20"/>
</svg>
