<svg width="128" height="128" viewBox="0 0 128 128" fill="none" xmlns="http://www.w3.org/2000/svg">
<path d="M87.4802 36.14C102.04 37.71 95.3202 28.38 92.6802 25.05L105.32 36.3601L87.4702 36.14H87.4802Z" fill="#231F20"/>
<path d="M75.3098 21.48L76.6098 21.81C77.0398 21.92 77.4698 22.04 77.9098 22.06L80.5298 22.37L81.4998 22.47C81.8898 22.52 82.6098 22.57 82.9798 22.81C83.0798 22.87 83.1698 22.94 83.2398 23.04L83.3498 23.32C83.3998 23.39 83.3898 23.54 83.3698 23.7L83.3298 24.15C83.6398 25.89 84.3798 27.7 85.0998 29.46C85.4798 30.38 85.9198 31.27 86.3498 32.16L87.1998 33.88C87.4298 34.48 87.6598 35.08 87.7298 35.76C87.7698 36.18 87.5998 36.17 87.2298 35.95C86.8498 35.74 86.2498 35.35 85.8498 34.74C84.7098 32.45 83.5598 30.11 82.6998 27.58C82.3898 26.61 81.9398 25.59 81.7498 24.5C81.7498 24.46 81.7298 24.41 81.7398 24.37C81.7398 24.33 81.7898 24.26 81.7298 24.25C81.6398 24.23 81.5498 24.21 81.4598 24.2L81.2198 24.17L80.8998 24.13L80.2498 24.06L78.9498 23.93C78.0798 23.85 77.2098 23.75 76.3298 23.78C75.2498 23.81 74.1698 23.67 73.0898 23.6C71.4598 23.5 69.8198 23.33 68.1898 23.27C66.9298 23.22 65.6798 23.33 64.4298 23.36C64.1498 23.36 63.8798 23.38 63.6098 23.37C62.5798 23.33 62.2598 23.14 62.0698 22.54C62.0298 22.4 61.9698 22.27 61.9498 22.13C61.8798 21.67 62.3098 21.32 63.0698 21.19C65.3298 20.78 67.6798 20.86 70.0498 20.94C71.8098 21.01 73.5598 21.26 75.3198 21.42V21.48H75.3098Z" fill="#231F20"/>
<path d="M34.2398 107.28C34.3798 108.34 34.5398 109.4 34.7398 110.45C34.8398 110.97 34.9398 111.49 35.0598 111.99C35.0998 112.22 35.2198 112.53 35.2598 112.67C35.2898 112.77 35.2998 112.82 35.3198 112.89C35.3398 113.01 35.4598 113 35.5598 112.95C35.5998 112.95 35.5898 112.93 35.6598 112.92L35.9598 112.9L36.5498 112.87C39.3498 112.77 42.1498 112.66 44.9398 112.56C46.1798 112.51 47.4198 112.39 48.6498 112.27L49.8298 112.14C50.2298 112.11 50.6198 112.1 51.0198 112.09C51.8098 112.06 52.6098 112.08 53.4298 112.23C53.9398 112.32 53.8898 112.46 53.5098 112.78C53.3198 112.94 53.0498 113.16 52.7098 113.41C52.3698 113.63 51.9698 113.81 51.5198 113.92L50.3298 114.19C49.9298 114.28 49.5198 114.29 49.1198 114.34L46.6898 114.56C45.0698 114.69 43.4398 114.76 41.7898 114.76C39.8298 114.76 37.8098 115.05 35.8098 115.19C35.3798 115.22 34.8998 115.29 34.5098 115.19C34.4098 115.17 34.2998 115.18 34.2098 115.14C34.1298 115.06 34.0598 114.98 33.9898 114.91C33.8498 114.76 33.7398 114.57 33.6198 114.4C33.4598 113.98 33.3198 113.51 33.2398 113.18L33.0498 112.34C32.7998 111.23 32.5998 110.14 32.4298 109.04C32.2198 107.69 32.0498 106.34 31.8898 104.98C31.6498 102.93 31.4998 100.87 31.3298 98.8301C31.1998 97.2401 30.9798 95.6901 30.9898 94.1001C30.9898 93.7501 30.9698 93.4101 30.9898 93.0601C31.0298 91.7501 31.3498 91.3501 31.7298 91.1001C31.8198 91.0401 31.9098 90.9701 31.9998 90.9401C32.2798 90.8401 32.4998 91.3801 32.6898 92.3101C32.8298 93.6801 33.0698 95.0801 33.2098 96.5001C33.3198 97.9301 33.4398 99.3701 33.5498 100.81C33.7398 102.96 33.9598 105.12 34.2898 107.26H34.2398V107.28Z" fill="#231F20"/>
<path d="M52.5898 73.1801C52.0498 75.4301 51.8798 77.7701 52.0698 80.1001C52.1298 80.9501 52.3298 81.7801 52.4698 82.6201C53.0698 85.5501 54.2298 88.4001 56.0298 90.8801C56.4198 91.4401 56.8698 91.9501 57.3198 92.4601C57.5498 92.7101 57.7998 92.9401 58.0398 93.1801C58.2698 93.4301 58.4998 93.6801 58.7498 93.9101C59.3698 94.5201 60.0498 95.0801 60.7098 95.6601C61.0498 95.9401 61.3598 96.2701 61.6798 96.5801C61.9998 96.8901 62.3498 97.1701 62.6798 97.4701C63.0998 97.8501 62.9998 97.8601 62.5098 97.7601C62.0298 97.6401 61.0698 97.5 60.0498 97.09C59.2098 96.64 58.4098 96.1201 57.6398 95.5501C56.8298 95.0201 56.1298 94.3501 55.5098 93.6101C54.2198 92.1701 53.1198 90.5401 52.3098 88.7701C51.3598 86.6501 50.4898 84.3901 50.1098 82.0501C49.6898 79.4901 49.7098 76.8801 50.1698 74.3501C50.4298 72.7901 50.8798 71.2601 51.4598 69.8001C52.3398 67.5801 53.5498 65.5101 54.9898 63.6501C56.0898 62.1901 57.2798 60.8301 58.6498 59.6201C58.9398 59.3401 59.2398 59.0801 59.5598 58.8401C60.1498 58.3701 60.6098 58.1601 60.9498 58.0601C61.2998 57.9601 61.5398 57.9901 61.7998 58.1001C61.9198 58.1501 62.0498 58.1901 62.1398 58.2601C62.4298 58.4801 62.0898 59.0601 61.3298 59.7601C59.0698 61.8101 56.8498 64.0501 55.2298 66.7501C53.9998 68.7201 53.1198 70.9101 52.6298 73.1901H52.5798L52.5898 73.1801Z" fill="#231F20"/>
<path d="M88.9898 92.88C90.6098 91.64 91.9598 90.04 93.1598 88.3C93.5698 87.66 93.9198 87.01 94.2498 86.33C95.4598 83.97 96.1398 81.29 96.2998 78.56C96.3798 77.35 96.2998 76.12 96.1598 74.92C96.0898 74.15 95.9698 73.37 95.8398 72.6C95.6798 71.84 95.6898 71.04 95.5698 70.25C95.5198 69.76 95.6498 69.78 95.9598 70.13C96.2398 70.49 96.8598 71.14 97.1598 72.04C97.3798 72.84 97.5698 73.66 97.7098 74.49C97.8498 75.32 97.8998 76.16 97.9198 77C97.9598 78.68 97.8298 80.38 97.4498 82.04C96.9998 84.01 96.4798 86.1 95.4598 87.94C94.8698 88.95 94.2698 89.89 93.5598 90.78C92.8798 91.68 92.1098 92.53 91.2798 93.32C90.2698 94.3 89.1198 95.13 87.9098 95.83C86.0698 96.9 84.0498 97.61 82.0198 98.05C80.4398 98.39 78.8798 98.72 77.2898 98.82C76.9398 98.83 76.5998 98.86 76.2398 98.86C74.9298 98.81 74.5198 98.65 74.2498 98.31C74.1898 98.23 74.1098 98.15 74.0798 98.08C73.9698 97.84 74.4998 97.59 75.4198 97.45C76.1098 97.37 76.7898 97.2 77.4798 97.08C78.1698 97.01 78.8498 96.85 79.5398 96.75C80.8998 96.47 82.2698 96.17 83.5698 95.71C85.5198 95.09 87.3598 94.15 88.9398 92.85L88.9698 92.88H88.9898Z" fill="#231F20"/>
<path d="M89.8799 96.48C90.0399 96.71 90.1599 96.96 90.3399 97.17C92.0599 99.18 93.8799 101.11 95.6099 103.13L100.83 109.17L106.06 115.24L108.69 118.28C109.63 119.24 110.54 120.23 111.52 121.15L112.21 121.68C113.13 122.17 114.3 121.13 113.94 120.17L113.51 119.42C112.74 118.33 111.91 117.29 111.12 116.21L108.58 113.12L103.5 106.92C101.81 104.85 100.08 102.79 98.2999 100.78C96.5099 98.78 94.7699 96.72 92.8399 94.82C92.6399 94.62 92.3899 94.48 92.1699 94.3C91.3199 93.76 89.3999 95.61 89.8699 96.47L89.8799 96.48Z" fill="#242021"/>
<path d="M73.19 20.91C75.96 20.83 78.72 20.75 81.5 20.72L82.26 20.7C82.57 20.7 82.87 20.72 83.16 20.76C83.72 20.88 84.3 20.88 84.53 21.43C84.89 21.83 85.03 22.5 85.21 23.09L85.51 24.23L86.54 28.27C87.07 30.22 87.67 32.16 88.21 34.09L88.42 34.84L88.49 35.1C88.51 35.17 88.52 35.24 88.55 35.31C88.61 35.33 88.68 35.31 88.75 35.31H88.91L89.42 35.28L90.59 35.24C90.98 35.26 91.37 35.15 91.76 35.12C92.15 35.06 92.54 35.1 92.93 35.1C94.49 35.12 96.04 35.22 97.58 35.41C98.35 35.5 99.12 35.6 99.88 35.7L100.29 35.76L100.53 35.8L101.02 35.89L102.07 36.09C102.25 36.12 102.44 36.16 102.63 36.19C102.79 36.23 102.67 36.11 102.63 36.06L102.49 35.86C102.37 35.68 102.21 35.51 102.06 35.33C101.87 35.11 101.64 34.86 101.41 34.64C101.14 34.38 101.06 34.31 100.45 33.77C99.45 32.9 98.45 32.02 97.46 31.16C95.95 29.81 94.37 28.49 92.99 26.93C92.65 26.54 92.32 26.14 92 25.72C91.69 25.3 91.35 24.91 91.1 24.44C90.82 24 90.55 23.55 90.31 23.08C90.06 22.62 89.82 22.16 89.62 21.68C89.11 20.48 89.36 20.58 90.21 21.3C90.62 21.67 91.26 22.14 91.98 22.69C92.75 23.21 93.6 23.83 94.43 24.56C95.36 25.3 96.2 26.12 97.11 26.91C98.01 27.7 98.94 28.48 99.88 29.26C100.83 30.04 101.76 30.86 102.67 31.74L103.1 32.15C103.32 32.35 103.53 32.57 103.73 32.78L104.92 34.04C105.11 34.25 105.33 34.46 105.5 34.66L105.98 35.26L106.95 36.46C107.07 36.87 107.25 37.32 107.33 37.7C107.24 37.97 107.19 38.23 107.08 38.52C106.94 38.72 106.82 38.87 106.54 39.02C106.41 39.1 106.21 39.14 106.01 39.2C105.82 39.26 105.58 39.31 105.27 39.31C104.65 39.31 103.81 39.14 103.06 39.03L100.78 38.69L97.91 38.3C96.36 38.11 94.79 38 93.21 37.93L92.02 37.91C91.62 37.87 91.22 37.8 90.83 37.79L89.64 37.85L89.01 37.89L87.98 37.98C87.8 37.98 87.6 37.99 87.44 37.96L86.99 37.83L86.93 37.81C86.83 37.96 87.06 37.6 87.04 37.64H87.03L87 37.62L86.91 37.56L86.73 37.43C86.6 37.35 86.5 37.21 86.38 37.1C86.08 36.47 85.84 35.53 85.74 35.23C85.49 34.34 85.24 33.46 84.99 32.57C84.27 29.87 83.53 27.16 82.75 24.5L82.57 23.87C82.52 23.75 82.53 23.56 82.41 23.5H81.99H81.88H81.65L81.13 23.54C79.74 23.62 78.34 23.71 76.94 23.76C73.5 23.9 70.05 24.01 66.6 24.09C61.38 24.22 56.13 24.22 50.94 24.17C46.9 24.13 42.93 24.19 38.88 23.86C37.99 23.8 37.11 23.72 36.21 23.6C32.86 23.07 31.8 22.35 31.45 21.27C31.37 21.03 31.25 20.77 31.25 20.56C31.25 20.21 31.61 20.03 32.2 19.99C32.49 19.99 32.87 19.98 33.31 19.99C33.74 20.02 34.24 20.08 34.8 20.16C38.15 20.62 41.73 20.77 45.37 20.9C49.01 21.02 52.73 21.07 56.46 21.07C62 21.07 67.59 20.99 73.16 20.79V20.87L73.19 20.91Z" fill="#231F20"/>
<path d="M106.15 65.07C106.07 68.12 106.06 71.18 106.12 74.25L106.27 77.6C106.36 81.55 106.38 85.52 106.4 89.49C106.44 91.25 106.48 93.02 106.52 94.77C106.52 95.89 106.52 97.02 106.52 98.15C106.54 99.28 106.28 100.41 106.03 101.52C105.86 102.22 105.75 102.12 105.46 101.52C105.2 100.92 104.46 99.83 104.36 98.55C103.98 94.02 103.81 89.5 103.85 84.89C103.85 82.13 103.61 79.27 103.5 76.45C103.41 73.34 103.34 70.23 103.37 67.1C103.37 65.18 103.44 63.26 103.48 61.34C103.58 58.43 103.78 55.52 103.99 52.63C104.11 50.38 104.23 48.18 104.35 45.95C104.38 45.46 104.41 44.98 104.49 44.49C104.75 42.67 105.1 42.14 105.84 41.87C106.01 41.81 106.19 41.72 106.35 41.7C106.9 41.62 107.24 42.43 107.26 43.76C107.18 47.69 106.78 51.74 106.56 55.85C106.36 58.89 106.26 61.97 106.22 65.04H106.15V65.07Z" fill="#231F20"/>
<path d="M32.9298 85.36C33.0898 93.45 33.1898 101.57 33.5798 109.61C33.6198 110.34 33.6698 111.07 33.7598 111.79L33.8998 112.86L33.9798 113.44C34.0098 113.58 34.0098 113.88 34.2398 113.77L35.5398 113.6C45.9198 112.32 56.3398 111.36 66.7998 111.01C71.4398 110.85 76.1098 110.73 80.7398 110.83C83.7098 110.91 86.6998 110.98 89.6698 111.4C92.6298 111.81 95.6398 112.37 98.3998 113.7C100.01 114.79 99.7398 114.66 98.0898 114.7C96.4398 114.74 93.6198 114.81 90.3398 114.49C78.6598 113.37 66.6498 114.02 54.6098 114.64C50.9998 114.84 47.3298 115.2 43.6498 115.64C41.8098 115.87 39.9598 116.11 38.1198 116.34L35.3598 116.71L34.4898 116.83C34.0998 116.89 33.7298 116.91 33.3498 116.95C32.9498 117.03 32.6598 116.91 32.3398 116.86C32.2098 116.82 32.0498 116.75 31.9398 116.62C31.8198 116.51 31.7298 116.38 31.6498 116.24C31.2698 115.64 31.1598 114.71 31.0798 113.89L31.0298 113.38L30.9998 112.99L30.9498 112.21L30.7898 109.12C30.6898 107.07 30.6198 105.02 30.5598 102.98L30.2798 90.72C30.1898 85.7 30.0898 80.67 29.9998 75.65C29.8398 68.04 29.7098 60.4 29.3898 52.86C29.1398 47 28.7098 41.26 28.2598 35.48C28.1498 34.21 28.0498 32.97 27.9398 31.68C27.5898 26.93 27.5998 25.42 28.2898 24.33C28.4298 24.08 28.5598 23.76 28.6998 23.62C29.1198 23.12 29.9198 25.01 30.2998 28.51C31.5098 38.87 31.9798 49.82 32.3298 60.81C32.6098 68.97 32.7798 77.17 32.9798 85.34H32.9098L32.9298 85.36Z" fill="#231F20"/>
<path d="M59.5101 117.63C62.1701 117.58 64.8301 117.54 67.4901 117.55C68.4601 117.55 69.4301 117.48 70.4001 117.5C73.8201 117.56 77.2401 117.77 80.6501 117.98C82.1601 118.06 83.6801 118.14 85.1901 118.18C87.1201 118.29 89.0701 118.34 90.9501 118.96C91.5401 119.13 91.4501 119.24 90.9201 119.45C90.5801 119.58 90.2001 119.73 89.8301 119.87C89.6101 119.95 89.3601 120.05 89.1101 120.1C88.8601 120.14 88.5901 120.17 88.3101 120.17C86.3501 120.26 84.4001 120.15 82.4501 120.06C80.5001 119.98 78.5401 119.87 76.5701 119.75C74.2101 119.58 71.7601 119.75 69.3401 119.74C66.6801 119.75 64.0301 119.78 61.3701 119.85C59.7301 119.89 58.1001 119.94 56.4601 120.02C53.9801 120.14 51.4901 120.25 49.0401 120.48C47.1301 120.66 45.2801 120.98 43.4001 121.26C42.9901 121.32 42.5801 121.36 42.1601 121.39C40.6001 121.48 40.0901 121.35 39.7101 120.87C39.6201 120.76 39.5101 120.65 39.4601 120.54C39.2701 120.17 39.8801 119.78 41.0001 119.47C41.8301 119.27 42.6701 118.98 43.5301 118.86C44.3901 118.72 45.2601 118.6 46.1401 118.49C47.9001 118.28 49.6901 118.12 51.4801 117.99C54.1501 117.8 56.8301 117.69 59.5101 117.58V117.64V117.63Z" fill="#231F20"/>
<path d="M82.74 99.59C80.91 100.09 79.03 100.24 77.18 100.3C76.72 100.3 76.25 100.38 75.79 100.33L74.39 100.22L73 100.11C72.54 100.07 72.08 99.94 71.62 99.85C67.95 99.16 64.43 97.6 61.49 95.29C60.48 94.38 59.38 93.56 58.52 92.51C57.55 91.55 56.8 90.41 56.04 89.29C53.51 85.22 52.35 80.41 52.48 75.71C52.58 70.98 54.15 66.38 56.78 62.48C58.04 60.82 59.39 59.2 61.05 57.92C62.68 56.63 64.47 55.52 66.38 54.75C68.81 53.72 71.4 53.02 74.03 52.83L76 52.76C76.66 52.77 77.31 52.82 77.96 52.86C78.62 52.86 79.26 53.07 79.89 53.24C80.53 53.39 81.15 53.58 81.77 53.78C83.3 54.3 83.05 54.34 81.68 54.5C81.32 54.55 80.91 54.61 80.46 54.67C79.99 54.79 79.46 54.9 78.9 55.08C78.34 55.22 77.75 55.28 77.12 55.38C76.81 55.42 76.49 55.46 76.16 55.48C75.83 55.53 75.5 55.58 75.16 55.62C72.76 55.92 70.42 56.44 68.23 57.31C66.02 58.17 64.04 59.46 62.29 60.97C58.79 64.01 56.4 68.42 55.6 73.22C54.47 78.97 56.4 85.33 60.16 89.91C62.23 92.45 64.92 94.48 67.96 95.76C71 97.05 74.37 97.49 77.7 97.28C81.81 97.14 85.84 95.73 89.02 93.19C93.89 89.34 96.49 82.92 96.33 76.71C96.28 74.29 95.83 71.91 94.99 69.7C94.14 67.49 92.96 65.45 91.52 63.62C90.89 62.81 90.17 62.1 89.43 61.39C88.04 60.07 87.01 59.33 86.33 58.71C86 58.37 85.74 58.11 85.53 57.87C85.32 57.63 85.16 57.39 85.03 57.17C84.91 56.97 84.72 56.75 84.65 56.61C84.54 56.37 84.88 56.37 85.68 56.48C86.48 56.57 87.69 56.93 89.07 57.74C93.16 60.13 96.6 64.21 98.15 69.03C99.78 73.82 99.91 79.14 98.51 84.1C98.01 85.95 97.25 87.73 96.29 89.41C95.34 91.09 94.17 92.66 92.78 94.03C91.4 95.4 89.86 96.62 88.15 97.54C86.46 98.49 84.65 99.22 82.79 99.67L82.76 99.6L82.74 99.59Z" fill="#231F20"/>
<path d="M44.9299 31.28L48.9699 31.34C49.4599 31.34 49.9499 31.28 50.4399 31.29C52.1799 31.32 53.9199 31.38 55.6599 31.38C56.4299 31.39 57.2099 31.38 57.9699 31.34C58.9499 31.24 59.9499 31.34 60.9399 31.54C61.2499 31.61 61.2099 31.77 60.9599 32.01C60.7099 32.24 60.2499 32.64 59.6999 32.83C57.7299 33.34 55.7399 33.46 53.6999 33.33C52.4899 33.25 51.2399 33.44 49.9999 33.49C48.6399 33.55 47.2799 33.57 45.9099 33.57H43.3899C42.1199 33.6 40.8399 33.57 39.5699 33.61C38.5799 33.64 37.6099 33.81 36.5899 33.84C36.3699 33.85 36.1499 33.88 35.8999 33.86C35.0599 33.74 34.6799 33.39 34.7299 32.81C34.7299 32.68 34.7299 32.54 34.7599 32.42C34.8899 32.01 35.2599 31.73 35.7199 31.61C37.2899 31.29 39.0799 31.29 40.8699 31.25C42.2099 31.24 43.5699 31.23 44.9199 31.22V31.28H44.9299Z" fill="#231F20"/>
<path d="M41.9799 40.78C42.9399 40.84 43.9199 40.89 44.8899 40.92C45.2499 40.93 45.5999 40.89 45.9499 40.9L47.8399 41C48.4699 41.06 49.0999 41.12 49.7299 41.18C50.2899 41.23 50.8499 41.29 51.4099 41.34C52.1199 41.41 52.8399 41.53 53.5299 41.77C53.7399 41.84 53.6999 41.89 53.4999 41.95C53.2999 42.02 52.9499 42.13 52.5499 42.2C51.8399 42.32 51.1399 42.43 50.4299 42.55C49.7199 42.67 49.0099 42.64 48.2899 42.63C47.4299 42.58 46.5299 42.69 45.6399 42.74L42.6999 42.8H40.8799C39.9599 42.82 39.0299 42.78 38.1099 42.8C37.3899 42.83 36.6599 42.89 35.8999 42.84C35.7299 42.82 35.5399 42.81 35.3699 42.75C35.2099 42.7 35.0799 42.64 34.9799 42.58C34.8599 42.5 34.7799 42.41 34.7199 42.32C34.6099 42.15 34.5999 41.96 34.6699 41.73C34.6999 41.62 34.7299 41.52 34.7699 41.42C34.9299 41.12 35.3099 40.93 35.5699 40.86C35.8699 40.78 36.1099 40.73 36.3899 40.7C36.6899 40.65 36.9499 40.63 37.2599 40.6C37.5599 40.54 37.8599 40.57 38.1599 40.58L39.0999 40.61C40.0499 40.65 41.0199 40.68 41.9699 40.72V40.77L41.9799 40.78Z" fill="#231F20"/>
<path d="M39.6198 46.54C40.1698 46.62 40.7198 46.67 41.2798 46.73C41.4798 46.76 41.6898 46.73 41.8898 46.76C42.6198 46.87 43.3498 46.99 44.0798 47.06C44.4098 47.09 44.7298 47.1 45.0498 47.09C45.4698 47.09 45.8798 47.04 46.3398 47.24C46.4798 47.3 46.4198 47.54 46.2898 47.8C46.1598 48.06 45.9998 48.35 45.7698 48.42C45.3898 48.52 44.9798 48.62 44.5698 48.69C44.1598 48.75 43.7398 48.72 43.3198 48.67C42.8098 48.59 42.2898 48.74 41.7798 48.77C41.2098 48.81 40.6298 48.76 40.0598 48.74C39.6998 48.72 39.3498 48.7 38.9898 48.68C38.4498 48.66 37.9098 48.58 37.3598 48.59C37.1398 48.59 36.9298 48.62 36.6998 48.65C36.4698 48.67 36.2298 48.69 35.9798 48.69C35.8598 48.68 35.7398 48.68 35.6198 48.65C35.5098 48.62 35.4298 48.59 35.3498 48.54C35.2598 48.47 35.1998 48.39 35.1698 48.31C35.1098 48.14 35.1598 47.95 35.3098 47.7C35.3798 47.58 35.4498 47.47 35.5298 47.37C35.8198 47.03 36.1598 46.76 36.1998 46.63C36.6498 46.33 37.3298 46.33 38.0198 46.38C38.5498 46.42 39.0898 46.46 39.6298 46.5V46.55L39.6198 46.54Z" fill="#231F20"/>
<path d="M62.5 70.73H63.1C64.07 70.78 65.03 70.73 65.99 70.7L68.89 70.62C70.82 70.58 72.75 70.56 74.69 70.56L80.5 70.46C82.44 70.43 84.38 70.45 86.33 69.96L86.95 69.81C87.66 69.58 87.66 69.02 86.96 68.77L86.35 68.61C84.42 68.08 82.47 68.04 80.53 67.97L74.69 67.79C72.74 67.79 70.79 67.79 68.84 67.81L65.91 67.87C64.93 67.89 63.96 67.91 62.98 68.03L62.38 68.09C61.68 68.23 61.8 70.65 62.5 70.73Z" fill="#242021"/>
<path d="M66.3998 77.85L66.8298 77.87C68.2098 77.9 69.5898 77.78 70.9698 77.74C72.3498 77.67 73.7298 77.64 75.1098 77.54L79.2398 77.22C80.6198 77.18 81.9798 76.85 83.3398 76.45L83.7698 76.35C84.2598 76.2 84.2398 75.93 83.7398 75.82L83.2998 75.75C81.9098 75.45 80.5198 75.22 79.1498 75.27L75.0298 75.24C73.6598 75.24 72.2898 75.3 70.9198 75.33C69.5498 75.39 68.1798 75.36 66.8098 75.49L66.3898 75.54C65.8898 75.62 65.9298 77.78 66.4298 77.83L66.3998 77.85Z" fill="#242021"/>
<path d="M69.65 85.87H69.87C71.32 85.9 72.76 85.73 74.21 85.67C74.93 85.65 75.65 85.53 76.37 85.45C77.09 85.36 77.81 85.31 78.53 85.07C78.61 85.05 78.68 85.03 78.76 84.98C79.01 84.77 78.99 84.22 78.72 84.03C78.64 83.98 78.5599 83.97 78.49 83.96C77.76 83.78 77.03 83.79 76.31 83.76C75.59 83.74 74.86 83.69 74.14 83.73C72.69 83.8 71.24 83.76 69.8 83.91L69.58 83.93C69.32 83.96 69.4 85.87 69.66 85.87H69.65Z" fill="#242021"/>
<path d="M30.2701 15.51C30.3901 15.65 30.1901 15.81 29.8301 15.99C29.7201 16.05 29.3601 16.1 29.3001 16.06C29.1801 15.99 29.0601 15.92 28.9601 15.85C28.9101 15.8 28.4501 15.03 28.2401 14.78C28.0601 14.53 27.9001 14.28 27.8601 14.01C27.7301 13.47 27.5601 12.93 27.4101 12.4C27.3801 12.28 27.3701 12.16 27.3801 12.03C27.4301 11.58 27.3301 11.17 27.1601 10.78C27.1301 10.71 27.1301 10.64 27.0201 10.6C26.8601 10.53 26.4901 9.45997 26.5101 9.29997C26.5701 8.90997 26.5101 8.53997 26.5701 8.13997C26.5701 8.07997 26.5301 8.03997 26.6201 7.95997C26.8301 7.76997 26.7501 7.67997 26.7401 7.55997C26.7201 7.39997 26.7101 7.23997 26.7401 7.05997C26.7501 6.96997 26.8501 6.84997 26.9201 6.73997C26.9801 6.63997 27.3201 6.53997 27.3601 6.54997C27.4901 6.57997 27.6201 6.45997 27.7501 6.39997C27.7901 6.37997 27.8501 6.34997 27.8901 6.33997C27.9601 6.30997 28.9601 6.97997 29.0101 7.07997C29.0801 7.07997 29.6901 8.39997 29.7501 8.54997C29.8001 8.61997 29.7601 8.71997 29.7501 8.81997C29.7501 8.85997 30.2201 9.90997 30.2201 9.95997C30.2501 10.2 30.3801 10.4 30.2201 10.68C30.1901 10.73 30.2201 10.78 30.2201 10.82C30.3401 11.2 30.3401 11.61 30.3601 12.02C30.3701 12.23 30.4401 12.42 30.4701 12.62C30.4701 12.66 30.4501 12.7 30.4501 12.74C30.4501 12.79 30.4201 12.84 30.4301 12.88C30.5301 13.35 30.5301 13.84 30.6001 14.31C30.6201 14.42 30.4301 14.99 30.4601 15.11C30.4701 15.18 30.2101 15.46 30.2601 15.51H30.2701Z" fill="#231F20"/>
<path d="M25.5398 19.73C25.7398 19.65 25.8398 19.96 25.8998 20.34C25.9198 20.46 25.8498 20.79 25.7798 20.84C25.6598 20.93 25.5398 21.04 25.4098 21.12C25.3398 21.15 24.3098 21.28 23.9498 21.38C23.6098 21.46 23.2698 21.48 22.9398 21.48C22.2598 21.51 21.6098 21.44 20.9398 21.41C20.7898 21.41 20.6498 21.36 20.5098 21.3C20.0298 21.08 19.5198 21.03 19.0098 21.04C18.9198 21.04 18.8398 21.02 18.7498 21.11C18.6698 21.18 18.2898 21.21 17.9098 21.18C17.5298 21.14 17.1498 21.07 17.0598 21.02C16.6398 20.77 16.2098 20.6 15.7898 20.4C15.7298 20.37 15.6598 20.4 15.6098 20.28C15.4998 20 15.3598 20.03 15.2298 19.99C15.0398 19.94 14.8598 19.87 14.6798 19.76C14.5898 19.7 14.5098 19.54 14.4298 19.41C14.3598 19.29 14.4398 18.91 14.4698 18.87C14.5698 18.76 14.5198 18.57 14.5198 18.4C14.5198 18.35 14.5198 18.27 14.5298 18.23C14.5498 18.13 15.7198 17.53 15.8398 17.55C15.8498 17.55 16.2698 17.53 16.7098 17.51C17.1498 17.49 17.6098 17.46 17.6998 17.44C17.7998 17.42 17.8898 17.49 17.9798 17.54C18.0298 17.54 19.3398 17.51 19.3898 17.54C19.6498 17.62 19.9298 17.57 20.1698 17.84C20.2198 17.89 20.2698 17.89 20.3298 17.9C20.7898 17.94 21.2398 18.11 21.6898 18.25C21.9198 18.32 22.1598 18.34 22.3898 18.38C22.4298 18.38 22.4698 18.43 22.5098 18.45C22.5598 18.48 22.6098 18.52 22.6598 18.53C23.2098 18.64 23.7398 18.91 24.2998 18.98C24.4298 19 24.9898 19.38 25.1398 19.39C25.2198 19.4 25.4398 19.75 25.5198 19.72L25.5398 19.73Z" fill="#231F20"/>
<path d="M16.4901 29.3701C16.3901 29.4801 16.2401 29.3301 16.0801 29.0401C16.0301 28.9501 15.9601 28.6401 15.9801 28.5901C16.0201 28.4901 16.0601 28.3801 16.1101 28.3001C16.1401 28.2601 16.6901 27.8701 16.8601 27.6901C17.0301 27.5301 17.2001 27.4201 17.3801 27.3301C17.7501 27.1301 18.1001 26.8901 18.4301 26.6601C18.5101 26.6101 18.5901 26.5701 18.6901 26.5701C19.0301 26.5501 19.3101 26.4001 19.5501 26.1901C19.5901 26.1601 19.6401 26.1401 19.6501 26.0401C19.6601 25.8901 20.3401 25.4001 20.4601 25.3801C20.7601 25.3401 21.0301 25.2501 21.3201 25.1801C21.3601 25.1801 21.3701 25.1201 21.4601 25.1801C21.6601 25.3101 21.7101 25.2201 21.7801 25.1801C21.8901 25.1201 22.0001 25.0701 22.1401 25.0501C22.2101 25.0401 22.3401 25.1001 22.4601 25.1401C22.5601 25.1801 22.7701 25.4601 22.7801 25.5101C22.8101 25.6301 22.9501 25.7301 23.0501 25.8301C23.0801 25.8701 23.1301 25.9201 23.1501 25.9501C23.2101 26.0201 22.9801 26.9601 22.9001 27.0101C22.9001 27.0101 22.6801 27.2201 22.4601 27.4401C22.2401 27.6401 22.0101 27.8601 21.9401 27.9201C21.8901 27.9701 21.8101 27.9701 21.7301 27.9801C21.7001 27.9901 20.9801 28.5901 20.9401 28.6001C20.7601 28.6701 20.6201 28.8201 20.3601 28.7401C20.3101 28.7201 20.2801 28.7501 20.2501 28.7701C19.9701 28.9401 19.6301 29.0001 19.3001 29.0601C19.1301 29.0901 18.9801 29.1601 18.8201 29.2101C18.7901 29.2101 18.7501 29.2101 18.7201 29.2101C18.6801 29.2101 18.6301 29.2001 18.6001 29.2101C18.2301 29.3401 17.8201 29.3601 17.4701 29.5101C17.3901 29.5401 16.9201 29.4701 16.8301 29.5101C16.7801 29.5301 16.5301 29.3501 16.4901 29.4001V29.3701Z" fill="#231F20"/>
</svg>
