<svg width="128" height="128" viewBox="0 0 128 128" fill="none" xmlns="http://www.w3.org/2000/svg">
<path d="M35.5699 59.8C36.1391 60.3303 36.6611 60.9091 37.1299 61.53C37.2999 61.76 37.4899 61.96 37.6499 62.2C38.197 63.0164 38.7011 63.8609 39.1599 64.73C39.3699 65.12 39.5799 65.49 39.7899 65.87C40.0643 66.3489 40.3114 66.843 40.5299 67.35C40.6499 67.67 40.0299 67.51 39.7099 66.96C39.1499 65.96 38.6499 64.96 38.1199 64.01C37.7918 63.4148 37.4173 62.8463 36.9999 62.31C36.5558 61.7052 36.0643 61.1367 35.5299 60.61C35.2127 60.2925 34.8789 59.992 34.5299 59.71C33.9692 59.299 33.3574 58.9628 32.7099 58.71C32.4625 58.6201 32.2083 58.5499 31.9499 58.5L31.1699 58.39C31.0599 58.39 30.9399 58.39 30.8299 58.39C30.3999 58.39 30.2699 58.33 30.1699 58.13C30.144 58.0896 30.1238 58.0459 30.1099 58C30.1099 57.86 30.2499 57.75 30.5999 57.73C31.6681 57.6768 32.7303 57.919 33.6699 58.43C34.3934 58.7935 35.0658 59.2508 35.6699 59.79L35.5699 59.8Z" fill="#231F20"/>
<path d="M101.54 60.2699C101.158 60.6473 100.804 61.0517 100.48 61.4799C100.37 61.6499 100.26 61.8099 100.16 61.9799C99.7704 62.5577 99.4356 63.1703 99.1596 63.8099C99.0315 64.0929 98.931 64.3876 98.8596 64.6899C98.7836 65.0811 98.6766 65.4657 98.5396 65.8399C98.4496 66.0799 98.0296 65.6999 98.0596 65.1999C98.2084 64.3494 98.5099 63.5329 98.9496 62.7899C99.2296 62.3499 99.4596 61.8699 99.7596 61.4399C100.083 60.9651 100.444 60.517 100.84 60.0999C101.08 59.8407 101.334 59.5937 101.6 59.3599C102.005 58.992 102.44 58.6576 102.9 58.3599C103.242 58.1296 103.607 57.9353 103.99 57.7799L104.25 57.6799C104.59 57.6799 104.71 57.6799 104.8 57.7399L104.86 57.8099C104.86 57.8799 104.78 57.9799 104.57 58.0899C103.952 58.4155 103.357 58.783 102.79 59.1899C102.359 59.507 101.954 59.8581 101.58 60.2399L101.54 60.2699Z" fill="#231F20"/>
<path d="M39.5999 39.7499C39.7499 40.3299 39.8799 40.9199 39.9999 41.5199C39.9999 41.7299 40.1099 41.9399 40.1499 42.1599C40.2699 42.9299 40.3599 43.6999 40.4499 44.4699L40.5699 45.4699C40.6351 45.9108 40.6351 46.359 40.5699 46.7999C40.5699 47.0699 40.1399 46.7099 40.0399 46.2399C39.8899 45.3899 39.7099 44.5399 39.6399 43.6599C39.5602 43.1233 39.4466 42.5922 39.2999 42.0699C39.1799 41.4899 39.0499 40.8999 38.9099 40.3199C38.8099 39.9699 38.7299 39.6099 38.6199 39.2599C38.4599 38.7299 38.2999 38.1899 38.0899 37.6799C37.9213 37.2957 37.7241 36.9246 37.4999 36.5699L37.3599 36.3399C37.1999 36.0499 37.2099 35.9199 37.3599 35.7499C37.3807 35.7093 37.4077 35.6722 37.4399 35.6399C37.5299 35.5299 37.7099 35.5899 37.9299 35.7799C38.4605 36.4338 38.8519 37.1893 39.0799 37.9999C39.2899 38.5799 39.4599 39.1699 39.6199 39.7599L39.5999 39.7499Z" fill="#231F20"/>
<path d="M80.7901 45.3999C80.6126 44.8052 80.4691 44.2009 80.3601 43.5899L80.2301 42.9399C80.1201 42.1499 80.0701 41.3699 80.0001 40.5899C80.0001 40.2499 79.9401 39.8999 79.9001 39.5899C79.8436 39.1522 79.8168 38.7112 79.8201 38.2699C79.8201 37.9899 80.3101 38.2699 80.3701 38.8099C80.4601 39.6999 80.5501 40.5799 80.6001 41.4799C80.6533 42.0241 80.7368 42.565 80.8501 43.0999C80.9493 43.693 81.0795 44.2804 81.2401 44.8599C81.3501 45.2199 81.4601 45.5699 81.5901 45.9099C81.7954 46.4323 82.036 46.9401 82.3101 47.4299C82.5201 47.8099 82.7701 48.1699 83.0001 48.5399L83.1501 48.7799C83.3301 49.0999 83.3401 49.2199 83.2201 49.3599C83.1991 49.3974 83.1721 49.4312 83.1401 49.4599C83.0401 49.5499 82.8801 49.4599 82.7301 49.2599C82.2618 48.5989 81.8439 47.9036 81.4801 47.1799C81.2014 46.6157 80.9674 46.0306 80.7801 45.4299L80.7901 45.3999Z" fill="#231F20"/>
<path d="M18.2901 52.2899C19.5301 54.6999 20.9101 57.0899 22.2901 59.4699C23.6701 61.8499 25.1101 64.2299 26.2901 66.7799C27.1801 68.5999 28.0901 70.4099 28.8801 72.2899C30.3155 75.6063 31.3948 79.0657 32.1001 82.6099C32.448 84.3906 32.6519 86.1965 32.7101 88.0099C32.741 89.8215 32.6407 91.6329 32.4101 93.4299C31.9957 96.5947 31.303 99.7168 30.3401 102.76C29.189 106.661 27.528 110.393 25.4001 113.86C24.7301 114.93 24.4801 114.59 24.6301 113.47C24.9221 111.706 25.4257 109.983 26.1301 108.34C27.7953 104.699 29.0917 100.9 30.0001 96.9999C30.9129 93.1066 31.1764 89.0892 30.7801 85.1099C30.2601 80.3199 28.3701 75.5399 26.3101 70.9999C25.7368 69.7399 25.1468 68.4899 24.5401 67.2499C23.9501 66.0099 23.2801 64.8299 22.6001 63.6199L18.4601 56.3699C17.8001 55.1899 17.1501 53.9999 16.5401 52.7699C16.2401 52.1499 15.9401 51.5399 15.6701 50.8899C15.5401 50.5599 15.4201 50.2299 15.3101 49.8899C15.1623 49.4521 15.1623 48.9778 15.3101 48.5399C15.6155 47.7073 16.1934 47.0025 16.9501 46.5399C17.6207 46.1694 18.3872 46.0092 19.1501 46.0799C19.858 46.142 20.5525 46.3105 21.2101 46.5799C22.4627 47.1254 23.6074 47.8908 24.5901 48.8399C26.5349 50.6867 28.0005 52.9795 28.8601 55.5199L29.0601 56.1299C29.1101 56.2999 29.1601 56.4799 29.2001 56.6499C29.2053 56.7116 29.2278 56.7705 29.2649 56.8201C29.3021 56.8696 29.3524 56.9076 29.4101 56.9299L29.5901 57.0199L29.8801 57.1399L31.1201 57.6399C31.9711 57.9837 32.7995 58.3812 33.6001 58.8299C36.0162 60.2181 38.0237 62.2186 39.4201 64.6299C40.03 65.6682 40.4848 66.79 40.7701 67.9599C40.9392 68.5003 40.9392 69.0795 40.7701 69.6199C40.7197 69.7991 40.6528 69.9732 40.5701 70.1399C40.2901 70.5299 39.6901 69.3099 38.7601 67.2499C37.7784 65.107 36.3216 63.2159 34.5001 61.7199C33.5765 60.9761 32.5698 60.3418 31.5001 59.8299C30.9501 59.5599 30.3901 59.3399 29.8001 59.0799C29.5001 58.9599 29.1901 58.8399 28.8001 58.6699C28.514 58.5381 28.248 58.3664 28.0101 58.1599C27.8878 58.0574 27.7918 57.9271 27.7301 57.7799C27.6515 57.6459 27.5846 57.5054 27.5301 57.3599L27.4001 56.7999C27.4001 56.6699 27.3301 56.5499 27.2901 56.4299C27.2501 56.3099 27.1501 55.9399 27.0601 55.6999C26.8893 55.218 26.6889 54.7471 26.4601 54.2899C26.0139 53.3567 25.4673 52.4748 24.8301 51.6599C23.7368 50.1818 22.2983 48.9939 20.6401 48.1999C19.9375 47.8522 19.1426 47.7367 18.3701 47.8699C18.0713 47.9411 17.798 48.0934 17.5801 48.3099C17.46 48.4155 17.3586 48.5406 17.2801 48.6799C17.2801 48.7499 17.1901 48.8199 17.1501 48.8999L17.0001 48.9999C17.0185 49.115 17.0452 49.2287 17.0801 49.3399C17.1801 49.6299 17.3001 49.9499 17.4401 50.2699C17.7201 50.9099 18.0401 51.5699 18.3801 52.2699L18.2901 52.2899Z" fill="#231F20"/>
<path d="M115 58.5299C113.62 60.4099 112.21 62.2599 111 64.1599C110.7 64.6299 110.4 65.1599 110.14 65.5899C109.873 66.0632 109.656 66.5625 109.49 67.0799C109.081 68.1248 108.747 69.1975 108.49 70.2899C108.278 71.0833 108.112 71.8878 107.99 72.6999L107.68 75.1499C107.46 78.0756 107.521 81.0157 107.86 83.9299C108.217 86.8711 108.788 89.7822 109.57 92.6399C110.254 95.1857 111.075 97.6927 112.03 100.15C113.23 103.3 114.66 106.37 115.7 109.61C116.03 110.61 115.7 110.61 114.96 109.93C113.904 108.813 113.051 107.52 112.44 106.11C109.79 99.7099 107.44 93.0499 106.44 86.0099C105.731 81.712 105.633 77.3352 106.15 73.0099C106.499 70.6085 107.137 68.2581 108.05 66.0099C108.52 64.8895 109.11 63.8233 109.81 62.8299C110.47 61.8299 111.16 60.8799 111.86 59.9299L114.42 56.4399C115.27 55.3536 116.036 54.2035 116.71 52.9999C116.796 52.8232 116.867 52.6391 116.92 52.4499C116.952 52.3952 116.968 52.3331 116.968 52.2699C116.968 52.2067 116.952 52.1446 116.92 52.0899C116.86 52.0199 116.72 51.7999 116.59 51.6599C116.46 51.5199 116.28 51.3799 116.12 51.2699C115.96 51.1599 115.75 51.0699 115.56 50.9899L114.95 50.8199C114.07 50.7109 113.177 50.8351 112.36 51.1799C110.654 51.9024 109.198 53.1087 108.17 54.6499C107.968 54.9277 107.784 55.2183 107.62 55.5199C107.435 55.8091 107.274 56.1135 107.14 56.4299C107.01 56.7399 106.84 57.0399 106.74 57.3599L106.37 58.3599L106.25 58.5999C106.17 58.5999 106.14 58.7399 106.07 58.7899C105.943 58.9108 105.798 59.0119 105.64 59.0899L105.03 59.4599C104.63 59.6999 104.26 59.9699 103.89 60.2399C103.172 60.799 102.503 61.4179 101.89 62.0899C101.431 62.6136 101.003 63.1646 100.61 63.7399C99.1501 65.8999 98.8701 66.7399 98.1501 67.0299C98.0098 67.1211 97.8627 67.2013 97.7101 67.2699C97.5101 67.3299 97.4501 67.0799 97.5001 66.5499C97.6242 65.7563 97.8883 64.9911 98.2801 64.2899C99.0573 62.7764 100.07 61.3958 101.28 60.1999C101.898 59.5841 102.567 59.022 103.28 58.5199C103.64 58.2699 104.01 58.0299 104.38 57.8099L104.84 57.5399C104.872 57.4127 104.915 57.2889 104.97 57.1699L105.17 56.6199C105.31 56.2499 105.51 55.8999 105.68 55.5399C105.855 55.1941 106.052 54.8601 106.27 54.5399C106.472 54.1904 106.699 53.8562 106.95 53.5399C107.908 52.1976 109.143 51.0758 110.57 50.2499C111.755 49.5427 113.11 49.1727 114.49 49.1799C115.244 49.1951 115.984 49.3869 116.65 49.7399C117.017 49.9038 117.355 50.1268 117.65 50.3999C117.809 50.5167 117.947 50.6585 118.06 50.8199L118.5 51.3899C118.615 51.6461 118.686 51.92 118.71 52.1999C118.711 52.477 118.674 52.753 118.6 53.0199C118.497 53.3647 118.363 53.6994 118.2 54.0199C117.92 54.5837 117.603 55.1282 117.25 55.6499C116.59 56.6499 115.9 57.6499 115.2 58.5999L115 58.5299Z" fill="#231F20"/>
<path d="M30.5299 26.13C30.0645 25.5301 29.5309 24.9864 28.9398 24.51C28.6612 24.3012 28.367 24.114 28.0598 23.95C27.9328 23.8925 27.8026 23.8424 27.6698 23.8H27.5098C27.4697 23.8048 27.4319 23.8218 27.4015 23.8485C27.3712 23.8753 27.3497 23.9107 27.3398 23.95C27.2442 24.2299 27.1969 24.5241 27.1998 24.82C27.1984 25.5981 27.2687 26.3747 27.4098 27.14C27.5098 27.72 27.6398 28.3 27.7798 28.89C27.9198 29.48 28.0798 30.12 28.1998 30.69C29.1298 34.87 30.1998 39.11 30.9598 43.4C31.3098 45.3 31.6199 47.23 31.8598 49.14C32.1199 51.59 32.4098 54.2 31.4798 56.68C31.1998 57.45 30.8598 57.17 30.6199 56.45C30.3052 55.4228 30.1468 54.3542 30.1498 53.28C30.1505 50.8608 29.9498 48.4458 29.5498 46.06C29.1698 43.63 28.7098 41.19 28.2498 38.72C27.6998 35.78 26.7599 32.72 26.1199 29.72C25.6548 28.009 25.4227 26.243 25.4298 24.47C25.4439 23.9074 25.5986 23.3574 25.8798 22.87C26.052 22.5815 26.3045 22.3494 26.6063 22.202C26.9082 22.0546 27.2465 21.9983 27.5798 22.04C28.5701 22.2208 29.4928 22.6666 30.2498 23.33C31.8611 24.7847 33.2136 26.5025 34.2498 28.41C35.8426 31.1905 37.1814 34.1089 38.2498 37.13C39.1204 39.416 39.8485 41.7538 40.4298 44.13C40.5398 44.66 40.6499 45.19 40.7399 45.73C40.8434 46.4563 40.8434 47.1936 40.7399 47.92C40.6919 48.3027 40.5115 48.6565 40.2298 48.92C40.1449 49.0149 40.0548 49.1051 39.9598 49.19C39.7198 49.35 39.3298 48.55 39.0898 47.19C38.2251 42.921 36.9423 38.7476 35.2598 34.73C34.6372 33.2016 33.9362 31.7063 33.1598 30.25C32.7898 29.51 32.3398 28.84 31.9298 28.13C31.4955 27.4588 31.0213 26.8143 30.5098 26.2L30.5299 26.13Z" fill="#231F20"/>
<path d="M42.06 26.9199C41.5902 25.5972 41.0392 24.3047 40.41 23.0499C39.8066 21.8313 39.0395 20.7009 38.13 19.6899C37.6631 19.0976 36.9865 18.7074 36.24 18.5999C36.1598 18.6082 36.0824 18.6339 36.0133 18.6754C35.9442 18.7169 35.885 18.7731 35.84 18.8399C35.7449 19.1368 35.7076 19.449 35.73 19.7599C35.7703 20.6406 35.8807 21.5167 36.06 22.3799C36.4 24.1699 36.86 25.9799 37.31 27.7999C37.71 29.4099 38.14 31.0299 38.51 32.6599C38.7553 33.7136 38.929 34.7828 39.03 35.8599C39.1564 36.9834 39.0475 38.1209 38.71 39.1999C38.41 39.8899 38.18 39.6199 38.01 39.0299C37.7203 38.1681 37.4964 37.2856 37.34 36.3899C36.68 32.3899 35.34 28.2599 34.5 23.9299C34.1971 22.5762 33.99 21.2028 33.88 19.8199C33.8636 19.4064 33.904 18.9925 34 18.5899C34.101 18.056 34.4013 17.5805 34.84 17.2599C35.2456 16.9337 35.7495 16.754 36.27 16.7499C36.7372 16.7434 37.1995 16.8462 37.62 17.0499C38.3833 17.4238 39.0635 17.9475 39.62 18.5899C40.1347 19.1674 40.5966 19.7899 41 20.4499C41.8082 21.722 42.5073 23.0601 43.09 24.4499C43.7969 26.141 44.3981 27.8743 44.89 29.6399C45.6177 32.2941 46.1887 34.9887 46.6 37.7099C46.93 39.7999 47.29 41.8599 47.5 43.9499C47.56 44.4099 47.61 44.8599 47.64 45.3299C47.77 47.0599 47.64 47.6099 47.11 47.9899C47.0032 48.0862 46.8858 48.1701 46.76 48.2399C46.38 48.3999 46.02 47.7099 45.88 46.4799C45.41 42.8199 45 38.9999 44.25 35.1999C43.724 32.3904 42.9715 29.6281 42 26.9399L42.06 26.9199Z" fill="#231F20"/>
<path d="M53.1697 38.7399C53.0497 37.7399 52.9097 36.7399 52.7397 35.7999C52.5697 34.8599 52.3897 33.7999 52.1797 32.7999C52.0297 32.0899 51.8097 31.3999 51.6397 30.6899C51.354 29.4591 50.9933 28.2468 50.5597 27.0599C50.3537 26.4909 50.0959 25.9419 49.7897 25.4199C49.5749 24.9861 49.2235 24.6347 48.7897 24.4199C48.7217 24.4047 48.6513 24.4031 48.5827 24.4151C48.5141 24.4271 48.4485 24.4525 48.3897 24.4899C48.216 24.5979 48.0607 24.733 47.9297 24.8899C47.6421 25.2859 47.4441 25.7397 47.3497 26.2199C47.0497 27.5499 47.1997 29.0299 46.6797 30.5499C46.4997 31.0299 46.2597 30.8599 46.0297 30.4299C45.6707 29.8204 45.4584 29.1357 45.4097 28.4299C45.4132 27.6267 45.4734 26.8247 45.5897 26.0299C45.7156 25.0515 46.1418 24.1361 46.8097 23.4099C47.0201 23.2091 47.2514 23.0314 47.4997 22.8799C47.807 22.7063 48.148 22.6006 48.4997 22.5699C48.8351 22.5606 49.169 22.6187 49.4816 22.7406C49.7942 22.8626 50.0792 23.0459 50.3197 23.2799C50.9471 23.9227 51.4341 24.6889 51.7497 25.5299C52.4714 27.3003 53.0826 29.1138 53.5797 30.9599C54.0897 32.9599 54.4797 34.9599 54.8297 37.0099C55.0397 38.2699 55.1997 39.5299 55.3297 40.7899C55.5197 42.6999 55.5997 44.6299 55.6697 46.5399C55.6697 48.0199 55.8197 49.4799 55.7897 50.9599C55.8105 51.2929 55.8105 51.6269 55.7897 51.9599C55.6797 53.1799 55.3797 53.5399 54.8897 53.7199C54.7829 53.7655 54.6725 53.8023 54.5597 53.8299C54.3897 53.8299 54.2597 53.7399 54.1397 53.4999C53.9943 53.1866 53.9193 52.8453 53.9197 52.4999C53.8197 49.9599 53.8497 47.3299 53.6797 44.6499C53.5597 42.6499 53.3797 40.6499 53.0997 38.6499L53.1697 38.7399Z" fill="#231F20"/>
<path d="M59.7798 70.5099C59.8898 67.2599 59.6198 63.9499 59.4998 60.5899C59.4998 59.3599 59.3898 58.1299 59.4398 56.8899C59.6298 52.5999 59.7398 48.3399 59.5198 44.0999C59.4628 42.2488 59.1944 40.4102 58.7198 38.6199C58.6498 38.3651 58.5561 38.1173 58.4398 37.8799C58.4078 37.7983 58.3602 37.7235 58.2998 37.6599C58.2596 37.6064 58.2085 37.5621 58.1498 37.5299C58.0978 37.4959 58.037 37.4778 57.9748 37.4778C57.9127 37.4778 57.8518 37.4959 57.7998 37.5299C57.7456 37.5643 57.6953 37.6046 57.6498 37.6499C57.5625 37.7259 57.4821 37.8096 57.4098 37.8999C56.7749 38.85 56.2987 39.897 55.9998 40.9999C55.6898 41.7299 55.4698 41.5199 55.3498 40.8299C55.2561 40.3658 55.2092 39.8934 55.2098 39.4199C55.1819 38.6773 55.3658 37.9421 55.7398 37.2999C55.9552 36.9286 56.2248 36.5916 56.5398 36.2999L56.8998 36.0099C57.0298 35.9299 57.1698 35.8799 57.2998 35.8099C57.5619 35.6756 57.8562 35.6168 58.1498 35.6399C58.4439 35.6637 58.7292 35.7522 58.985 35.8991C59.2409 36.0461 59.4611 36.2478 59.6298 36.4899L59.8998 36.8499L60.0498 37.1199C60.1462 37.2887 60.2266 37.4661 60.2898 37.6499C60.7174 38.9146 60.9828 40.2284 61.0798 41.5599C61.2862 44.0746 61.3229 46.6003 61.1898 49.1199C61.1898 50.6299 61.0998 52.1199 61.0598 53.6899C61.0198 55.2599 60.9998 56.7999 60.9998 58.2899C60.9998 61.5999 61.3398 64.9499 61.3898 68.3399C61.4442 70.4406 61.3137 72.5421 60.9998 74.6199C60.7611 76.2091 60.3417 77.7659 59.7498 79.2599C59.1382 80.7375 58.3705 82.1455 57.4598 83.4599C56.7655 84.4724 55.9967 85.4317 55.1598 86.3299C54.3279 87.2417 53.414 88.0752 52.4298 88.8199C51.9998 89.1599 51.5498 89.4499 51.0898 89.7599C49.3098 90.7599 48.5798 90.8199 48.0298 90.5299C47.8978 90.4764 47.7734 90.4058 47.6598 90.3199C47.3698 90.0299 48.0298 89.5199 49.2098 88.8399C52.8759 86.7562 55.8332 83.6212 57.6998 79.8399C59.0403 76.9205 59.7231 73.7423 59.6998 70.5299L59.7798 70.5099Z" fill="#231F20"/>
<path d="M51.9999 99.8899C51.8399 101.24 51.6499 102.58 51.5399 103.89C51.5399 104.38 51.4899 104.89 51.4599 105.37C51.3099 107.12 51.1799 108.87 51.1299 110.62C51.1299 111.39 51.1299 112.18 51.1299 112.94C51.1299 113.94 51.2499 114.94 51.2199 115.84C51.2199 116.07 50.9899 116.21 50.6699 115.99C50.2606 115.67 49.9916 115.204 49.9199 114.69C49.6633 112.643 49.6365 110.573 49.8399 108.52C49.9499 107.29 49.9099 106.01 49.9699 104.75C50.0299 103.49 50.1499 101.98 50.2799 100.6L50.5899 98.0599C50.7499 96.7699 50.9899 95.4899 51.1799 94.2199C51.3599 93.2199 51.4399 92.2199 51.6699 91.2199C51.6987 90.9973 51.7421 90.7768 51.7999 90.5599C52.0999 89.7599 52.3599 89.5599 52.7999 89.5599C52.8898 89.5549 52.9799 89.5549 53.0699 89.5599C53.3399 89.6099 53.4599 90.0199 53.4199 90.5599C53.1699 92.2199 52.8099 93.9499 52.5699 95.7599C52.3599 97.0899 52.1799 98.4399 52.0399 99.7599L51.9999 99.8899Z" fill="#231F20"/>
<path d="M36.4997 105.46C37.7848 105.916 39.0933 106.303 40.4197 106.62C40.9097 106.72 41.4197 106.78 41.8897 106.87C43.594 107.242 45.3355 107.417 47.0797 107.39C47.8436 107.363 48.6019 107.249 49.3397 107.05C50.2797 106.78 51.1497 106.42 52.0497 106.05C52.3397 105.95 52.4897 106.23 52.4197 106.65C52.3649 106.929 52.2461 107.192 52.0726 107.418C51.8991 107.643 51.6756 107.825 51.4197 107.95C50.4106 108.446 49.3195 108.755 48.1997 108.86C47.1106 108.995 46.0089 108.995 44.9197 108.86C43.6297 108.71 42.2997 108.66 41.0097 108.42C39.6058 108.163 38.217 107.829 36.8497 107.42C35.9997 107.16 35.1797 106.87 34.3497 106.59C33.0997 106.14 31.8697 105.59 30.6597 105.12C29.7097 104.73 28.7397 104.42 27.7997 103.97C27.5904 103.875 27.3868 103.768 27.1897 103.65C26.4597 103.15 26.3097 102.78 26.4597 102.35C26.4928 102.255 26.5364 102.165 26.5897 102.08C26.7897 101.85 27.1297 101.86 27.6597 102.02C29.2397 102.55 30.8897 103.36 32.5997 104.02C33.8697 104.53 35.1497 105.02 36.4597 105.44L36.4997 105.46Z" fill="#231F20"/>
<path d="M72.5196 54.9999C73.0696 56.5699 73.6396 58.1299 74.2896 59.6699C74.9396 61.2099 75.6496 62.8099 76.1596 64.4499C76.5496 65.6399 76.9396 66.8299 77.2596 68.0199C77.8196 70.1299 78.3296 72.2299 79.0096 74.2399C79.6645 76.2587 80.5574 78.1924 81.6696 79.9999C82.6524 81.5843 83.885 82.9992 85.3196 84.1899C87.1828 85.6298 89.3143 86.6837 91.5896 87.2899C92.2696 87.6299 92.1796 87.7899 91.4596 88.0599C90.9886 88.2429 90.4844 88.3247 89.9796 88.2999C89.6449 88.2883 89.3111 88.2582 88.9796 88.2099C88.6408 88.1252 88.307 88.0217 87.9796 87.8999C85.4979 86.8182 83.3255 85.1339 81.6596 82.9999C80.0508 80.9224 78.7941 78.5948 77.9396 76.1099C76.9396 73.1699 76.1096 70.11 75.2096 67.19C74.751 65.5882 74.1966 64.0153 73.5496 62.4799C72.8996 60.9299 72.1496 59.3599 71.5496 57.7599C71.1596 56.7599 70.7896 55.7599 70.4596 54.7599C70.1296 53.7599 69.8096 52.7599 69.5196 51.7599C69.2996 50.9899 69.1496 50.1899 68.9596 49.4099C68.7696 48.6299 68.6496 47.8299 68.5696 47.0199C68.3249 45.3898 68.3553 43.7301 68.6596 42.1099C68.788 41.4397 69.0316 40.7969 69.3796 40.2099C69.5647 39.8136 69.8843 39.4957 70.2816 39.3126C70.6788 39.1296 71.1281 39.0932 71.5496 39.2099C71.9412 39.3852 72.2844 39.6528 72.5496 39.9899C72.7655 40.2573 72.9594 40.5415 73.1296 40.8399C73.4514 41.3829 73.7419 41.9438 73.9996 42.5199L74.6496 43.9999C75.0196 44.8999 75.2696 45.4399 75.3996 45.7999C75.4988 46.0652 75.5463 46.3469 75.5396 46.6299C75.566 46.7664 75.6205 46.8958 75.6996 47.0099C75.7154 47.0315 75.7262 47.0563 75.7313 47.0825C75.7363 47.1087 75.7354 47.1357 75.7287 47.1616C75.722 47.1874 75.7097 47.2114 75.6925 47.2319C75.6754 47.2524 75.6539 47.2688 75.6296 47.2799C75.5304 47.3238 75.4231 47.3464 75.3146 47.3464C75.2062 47.3464 75.0989 47.3238 74.9996 47.2799C74.3718 46.9832 73.8664 46.4778 73.5696 45.8499C72.9996 44.8499 72.5696 43.8499 72.1196 42.8499C71.9065 42.3926 71.666 41.9485 71.3996 41.5199C71.3028 41.367 71.1924 41.223 71.0696 41.0899C71.0696 41.0899 71.1296 41.0299 70.9896 41.2299C70.7841 41.6013 70.6389 42.003 70.5596 42.4199C70.3734 43.4085 70.323 44.4178 70.4096 45.4199C70.7145 48.6929 71.4405 51.9128 72.5696 54.9999H72.5196Z" fill="#231F20"/>
<path d="M75.1099 32.44C75.0521 34.4782 75.1089 36.5181 75.2799 38.55C75.3399 39.3 75.4699 40.04 75.5499 40.78C75.818 43.4256 76.2219 46.0558 76.7599 48.66C77.0199 49.81 77.3199 50.96 77.6599 52.07C77.8799 52.79 78.1399 53.49 78.3999 54.18C78.6284 54.8599 78.8921 55.5274 79.1899 56.18C79.3799 56.54 79.1899 56.7 78.7399 56.52C78.0619 56.195 77.505 55.6626 77.1499 55C76.4847 53.5573 75.9395 52.0622 75.5199 50.53C75.1198 49.0027 74.8092 47.4534 74.5899 45.89C74.3299 44.03 73.8899 42.11 73.5899 40.2C73.3063 38.0914 73.1526 35.9674 73.1299 33.84C73.1056 32.5037 73.1724 31.1672 73.3299 29.84C73.4384 28.8109 73.6874 27.8015 74.0699 26.84C74.3011 26.3053 74.6417 25.825 75.0699 25.43C75.5405 24.9976 76.1511 24.7491 76.7899 24.73C77.06 24.7323 77.3269 24.7893 77.5744 24.8976C77.8218 25.0059 78.0448 25.1632 78.2299 25.36C78.5383 25.695 78.7975 26.0721 78.9999 26.48C79.3177 27.1903 79.5948 27.9181 79.8299 28.66C79.9399 28.97 80.0599 29.27 80.1599 29.58C80.5399 30.73 80.4799 31.13 80.0699 31.58C79.9902 31.6828 79.8997 31.7767 79.7999 31.86C79.6399 31.9666 79.4499 31.9366 79.2299 31.77C78.9372 31.5348 78.7099 31.2283 78.5699 30.88C78.0099 29.65 77.5699 28.22 77.1399 27.2C77.0681 27.0163 76.9592 26.8495 76.8199 26.71C76.6399 26.71 76.4899 26.77 76.2399 27.14C75.8212 27.8758 75.5558 28.6888 75.4599 29.53C75.3022 30.5224 75.2186 31.5252 75.2099 32.53L75.1099 32.44Z" fill="#231F20"/>
<path d="M85.1701 22.1399C85.1007 21.4487 84.9804 20.7635 84.8101 20.0899C84.7753 19.9365 84.7285 19.786 84.6701 19.6399L84.5801 19.4199C84.5801 19.3699 84.5201 19.3099 84.4601 19.3199C84.3839 19.32 84.3087 19.337 84.2401 19.3699C84.0919 19.4048 83.9478 19.4551 83.8101 19.5199C83.5224 19.6765 83.2623 19.8792 83.0401 20.1199C82.5417 20.7084 82.1614 21.3875 81.9201 22.1199C81.5653 23.2054 81.324 24.3247 81.2001 25.4599C80.7342 29.6454 80.8081 33.8733 81.4201 38.0399C81.6687 39.9011 82.0192 41.7472 82.4701 43.5699C83.0801 45.8899 83.7901 48.1699 84.4701 50.4399C84.7001 51.1499 84.4201 51.1899 83.8401 50.7499C82.9362 50.0276 82.245 49.0738 81.8401 47.9899C81.0075 45.6172 80.3917 43.1738 80.0001 40.6899C79.5548 38.2059 79.2941 35.6924 79.2201 33.1699C79.0239 30.056 79.1412 26.9303 79.5701 23.8399C79.7956 22.4741 80.2485 21.1559 80.9101 19.9399C81.2753 19.2852 81.7644 18.7078 82.3501 18.2399C82.6569 18.012 82.9933 17.827 83.3501 17.6899C83.5366 17.6194 83.7269 17.5594 83.9201 17.5099L84.6401 17.4299C84.9402 17.4248 85.2356 17.5047 85.4922 17.6604C85.7488 17.8162 85.9561 18.0413 86.0901 18.3099C86.2222 18.5336 86.3359 18.7678 86.4301 19.0099C86.5101 19.2199 86.5701 19.4299 86.6301 19.6299C87.115 21.693 87.3831 23.8011 87.4301 25.9199C87.5101 27.4999 87.4301 29.0799 87.5201 30.6199C87.5523 32.1592 87.6758 33.6953 87.8901 35.2199C88.2523 37.5354 88.8521 39.8074 89.6801 41.9999L90.2401 43.4399C90.9401 45.2299 91.0001 45.8699 90.7001 46.4399C90.6425 46.5731 90.5722 46.7004 90.4901 46.8199C90.2201 47.1399 89.5901 46.5299 88.9201 45.2299C87.9518 43.2344 87.1847 41.1475 86.6301 38.9999C86.0918 36.7512 85.7571 34.4586 85.6301 32.1499C85.5101 30.4399 85.5301 28.6999 85.4901 27.0899C85.4501 25.4799 85.3201 23.7999 85.1401 22.1999L85.1701 22.1399Z" fill="#231F20"/>
<path d="M97.1499 33.46C97.0099 31.86 96.8599 30.28 96.6699 28.7C96.5141 27.163 96.2332 25.6413 95.8299 24.15C95.7234 23.797 95.5686 23.4605 95.3699 23.15C95.3424 23.1005 95.2975 23.063 95.244 23.0446C95.1905 23.0261 95.1321 23.028 95.0799 23.05C94.9833 23.087 94.8924 23.1375 94.8099 23.2C94.137 23.7062 93.6318 24.403 93.3599 25.2C93.0054 26.1044 92.7441 27.0425 92.5799 28C92.2502 29.9827 92.0896 31.99 92.0999 34C92.1026 35.8085 92.2162 37.6153 92.4399 39.41C92.5899 40.55 92.7699 41.7 92.9299 42.84C93.0899 43.98 93.2999 45.1 93.4499 46.24C93.5699 46.93 93.3199 46.94 92.8199 46.44C92.5151 46.1158 92.2406 45.7643 91.9999 45.39C91.6883 44.8387 91.456 44.2462 91.3099 43.63C90.7784 41.2576 90.4737 38.84 90.3999 36.41C90.2776 33.9577 90.3948 31.4994 90.7499 29.07C90.9394 27.6903 91.2438 26.3289 91.6599 25C91.9058 24.2931 92.242 23.6208 92.6599 23L93.0299 22.52C93.1699 22.37 93.3299 22.23 93.4799 22.08C93.645 21.9454 93.8187 21.8218 93.9999 21.71C94.0889 21.6463 94.1866 21.5958 94.2899 21.56L94.7099 21.38C95.0599 21.2596 95.44 21.2596 95.7899 21.38C96.0961 21.5069 96.3671 21.7059 96.5799 21.96C96.7641 22.1752 96.9188 22.4139 97.0399 22.67C97.2356 23.0755 97.3962 23.497 97.5199 23.93C97.7454 24.7359 97.9257 25.5539 98.0599 26.38C98.3399 28.01 98.5199 29.62 98.6899 31.23L99.2699 37.17C99.5599 40.17 99.8099 43.17 100.27 46.11C100.658 48.3493 101.216 50.5557 101.94 52.71C102.11 53.18 102.29 53.62 102.47 54.08C103.16 55.76 103.47 56.22 103.27 56.8C103.253 56.9293 103.223 57.0567 103.18 57.18C103.06 57.53 102.28 57.06 101.57 55.76C99.5699 51.91 98.9299 47.5 98.2199 43.19C97.9699 41.58 97.7599 39.97 97.5599 38.36C97.3599 36.75 97.2399 35.13 97.0799 33.53L97.1499 33.46Z" fill="#231F20"/>
<path d="M93 104.07C92.7 102.91 92.38 101.75 92 100.6C91.87 100.17 91.69 99.7699 91.57 99.3499C91.14 97.8599 90.68 96.3499 90.19 94.8999C89.98 94.2499 89.71 93.6099 89.44 92.9799C89.0563 92.1984 88.7223 91.3935 88.44 90.5699C88.36 90.3199 88.64 90.1899 89.02 90.2599C89.2504 90.3056 89.4681 90.4007 89.658 90.5389C89.8479 90.677 90.0056 90.8548 90.12 91.0599C90.9737 92.6665 91.6446 94.3638 92.12 96.1199C92.4 97.1799 92.87 98.2199 93.23 99.2699C93.59 100.32 93.98 101.61 94.32 102.79L95 105C95.29 106.12 95.58 107.23 95.86 108.34C96.07 109.2 96.39 110.02 96.57 110.91C96.57 111.1 96.66 111.29 96.69 111.49C96.75 112.25 96.63 112.49 96.22 112.67C96.1289 112.709 96.0354 112.743 95.94 112.77C95.63 112.84 95.34 112.55 95.18 112.08C94.66 110.68 94.29 109.16 93.88 107.61C93.57 106.45 93.28 105.28 92.95 104.12L93 104.07Z" fill="#231F20"/>
<path d="M105.77 103.64C104.685 104.11 103.561 104.481 102.41 104.75C102 104.86 101.59 104.97 101.17 105.05C99.6982 105.286 98.2101 105.403 96.7198 105.4C96.0698 105.4 95.4098 105.4 94.7198 105.4C93.873 105.438 93.0255 105.34 92.2098 105.11C91.9598 105.02 92.0498 104.72 92.3098 104.44C92.4521 104.279 92.6256 104.148 92.8197 104.055C93.0139 103.962 93.2248 103.909 93.4398 103.9H98.2798C98.7804 103.905 99.2801 103.854 99.7698 103.75C100.26 103.67 100.77 103.54 101.24 103.43C102.312 103.196 103.365 102.882 104.39 102.49C105.018 102.241 105.63 101.95 106.22 101.62C106.667 101.375 107.098 101.101 107.51 100.8C107.934 100.509 108.326 100.173 108.68 99.7999C109.217 99.2506 109.696 98.6474 110.11 97.9999C110.2 97.8599 110.26 97.6999 110.35 97.5599C110.67 97.0199 110.9 96.9299 111.35 96.9799H111.62C111.89 97.0499 111.97 97.3999 111.81 97.9099C111.245 99.4379 110.248 100.769 108.94 101.74C108.466 102.111 107.965 102.445 107.44 102.74L106.65 103.2L105.83 103.58L105.77 103.64Z" fill="#231F20"/>
<path d="M46.3098 53.35C45.6436 53.3142 44.976 53.3142 44.3098 53.35C44.0698 53.35 43.8298 53.41 43.5898 53.43C42.7404 53.4976 41.8956 53.6144 41.0598 53.78C40.6924 53.8642 40.3315 53.9745 39.9798 54.11C39.5405 54.3153 39.0858 54.4859 38.6198 54.62C38.3198 54.69 38.3498 53.86 38.8698 53.62C39.8117 53.1448 40.8251 52.8272 41.8698 52.68C42.4898 52.6 43.1198 52.45 43.7498 52.37C44.3798 52.29 45.1398 52.26 45.8298 52.25H47.1098L48.9998 52.3C49.4998 52.3 49.9998 52.3 50.4698 52.3H50.7998C51.1998 52.3 51.3198 52.42 51.3798 52.71C51.3798 52.78 51.3798 52.84 51.3798 52.91C51.3798 53.14 51.2098 53.31 50.9198 53.35C50.0351 53.4688 49.1419 53.5123 48.2498 53.48C47.5898 53.48 46.9198 53.42 46.2498 53.42L46.3098 53.35Z" fill="#231F20"/>
<path d="M84.7199 53.13C85.2699 52.81 85.8499 52.51 86.4399 52.24C86.6499 52.13 86.8599 52.01 87.0799 51.92C87.8706 51.5981 88.6962 51.3699 89.5399 51.24C89.9099 51.19 90.2799 51.12 90.6599 51.09C91.1498 51.0155 91.6506 51.0742 92.1099 51.26C92.2599 51.32 92.1799 51.56 92.0199 51.8C91.8599 52.04 91.6199 52.28 91.3999 52.29C90.5899 52.38 89.7899 52.4 88.9099 52.55C88.3801 52.6658 87.871 52.8614 87.3999 53.13C86.8425 53.3854 86.2984 53.6691 85.7699 53.98C85.4399 54.17 85.1099 54.37 84.7699 54.58C84.273 54.8835 83.7955 55.2174 83.3399 55.58C82.9999 55.86 82.6899 56.19 82.3399 56.47C82.2599 56.54 82.1999 56.61 82.1199 56.67C81.8299 56.9 81.6699 56.88 81.4499 56.75C81.4499 56.75 81.3499 56.69 81.3099 56.65C81.2699 56.61 81.1799 56.31 81.3099 56.06C81.5436 55.7096 81.8009 55.3755 82.0799 55.06C82.3963 54.7604 82.7302 54.4799 83.0799 54.22C83.5932 53.8249 84.1273 53.4577 84.6799 53.12L84.7199 53.13Z" fill="#231F20"/>
<path d="M16.53 13.7899C18.48 15.1299 20.61 16.3799 21.87 18.4499C22.52 19.5199 24.21 18.5399 23.55 17.4499C22.11 15.0799 19.75 13.6199 17.55 12.0799C16.55 11.3699 15.55 13.0799 16.55 13.7699L16.53 13.7899Z" fill="#231F20"/>
<path d="M8.99986 30.8299C11.4799 30.4699 13.9999 30.8299 16.4999 30.7199C16.7208 30.6696 16.9181 30.5457 17.0594 30.3685C17.2007 30.1914 17.2777 29.9715 17.2777 29.7449C17.2777 29.5183 17.2007 29.2984 17.0594 29.1213C16.9181 28.9442 16.7208 28.8203 16.4999 28.7699C13.8099 28.8599 11.1599 28.5599 8.49986 28.9499C7.25986 29.1299 7.78986 31.0099 9.01986 30.8299H8.99986Z" fill="#231F20"/>
<path d="M106.5 11.3099C104.98 13.4499 103.32 15.5599 102.78 18.1999C102.53 19.4199 104.41 19.9499 104.66 18.7199C105.17 16.2599 106.76 14.2899 108.18 12.2899C108.91 11.2899 107.18 10.2899 106.5 11.2899V11.3099Z" fill="#231F20"/>
<path d="M119 22.9399C116.45 23.4699 114.13 24.6599 111.66 25.4699C110.48 25.8699 110.99 27.7499 112.18 27.3499C114.65 26.5399 116.97 25.3499 119.52 24.8199C120.75 24.5699 120.23 22.6899 119 22.9399Z" fill="#231F20"/>
<path d="M38.5597 113.36C38.5982 113.281 38.6251 113.197 38.6397 113.11C38.6397 113.01 38.5697 112.95 38.5197 112.96C38.4697 112.97 38.3597 113.05 38.2697 113.18L38.1397 113.39C38.0008 113.603 37.8803 113.827 37.7797 114.06C37.4924 114.624 37.1578 115.162 36.7797 115.67C36.4933 116.082 36.0989 116.407 35.6397 116.61C35.4212 116.699 35.1851 116.737 34.9497 116.72C34.7032 116.714 34.4622 116.645 34.2497 116.52C34.1516 116.471 34.0579 116.415 33.9697 116.35L33.7997 116.19C33.6992 116.089 33.6087 115.978 33.5297 115.86C33.4597 115.74 33.3697 115.61 33.3197 115.5L33.1297 115.1C32.9715 114.541 32.9715 113.949 33.1297 113.39C33.2183 112.986 33.3352 112.588 33.4797 112.2C33.7497 111.48 34.0497 110.82 34.3297 110.2C34.6064 109.628 34.8306 109.032 34.9997 108.42C35.0054 108.32 35.0054 108.22 34.9997 108.12C34.9997 108.06 34.9997 108.12 34.9997 108.12C35.0813 108.103 35.1615 108.079 35.2397 108.05C35.2864 108.038 35.3306 108.018 35.3697 107.99H35.4197C35.4197 107.99 35.4197 107.99 35.4197 108.08L35.3097 108.34C35.3097 108.34 35.2097 108.34 35.1597 108.34C35.1032 108.336 35.0465 108.344 34.9932 108.362C34.9398 108.381 34.891 108.411 34.8497 108.45C34.7588 108.514 34.675 108.588 34.5997 108.67C34.5067 108.765 34.423 108.869 34.3497 108.98C34.0138 109.502 33.7355 110.058 33.5197 110.64L32.7997 112.56C32.6697 112.89 32.5397 113.23 32.3597 113.56C32.133 114.014 31.7874 114.397 31.3597 114.67C31.1367 114.782 30.9061 114.879 30.6697 114.96C30.5436 115.005 30.4127 115.035 30.2797 115.05C30.1078 115.082 29.9316 115.082 29.7597 115.05C29.5197 115.027 29.2911 114.937 29.0997 114.79C28.9098 114.64 28.7674 114.439 28.6897 114.21C28.5821 113.923 28.5444 113.614 28.5797 113.31C28.6831 112.485 28.888 111.675 29.1897 110.9C29.6197 109.69 30.0697 108.51 30.4497 107.35C30.6306 106.818 30.7514 106.268 30.8097 105.71V105.56C30.805 105.53 30.805 105.5 30.8097 105.47L30.9497 105.38C30.9429 105.406 30.9429 105.434 30.9497 105.46V105.55C30.9069 105.54 30.8625 105.54 30.8197 105.55C30.3389 106.011 29.9636 106.57 29.7197 107.19C29.3897 107.88 29.0897 108.62 28.7797 109.36C28.4697 110.1 28.1697 110.85 27.7797 111.6C27.5809 111.983 27.3536 112.351 27.0997 112.7C26.8105 113.113 26.4309 113.455 25.9897 113.7C25.8293 113.787 25.6518 113.838 25.4697 113.85C25.3563 113.848 25.2443 113.824 25.1397 113.78C24.9697 113.69 24.9197 113.6 24.9397 113.51C24.9597 113.42 25.3497 113.21 25.4697 112.82C25.7469 111.519 26.1043 110.237 26.5397 108.98C27.087 107.519 27.777 106.115 28.5997 104.79C28.9235 104.324 29.3427 103.932 29.8297 103.64C30.0052 103.536 30.1934 103.455 30.3897 103.4C30.6152 103.343 30.8472 103.316 31.0797 103.32C31.3733 103.332 31.6609 103.408 31.923 103.54C32.1852 103.673 32.4159 103.861 32.5997 104.09C32.756 104.305 32.8744 104.545 32.9497 104.8C32.9958 104.981 33.0292 105.164 33.0497 105.35C33.076 105.623 33.076 105.897 33.0497 106.17C32.9951 106.599 32.9082 107.024 32.7897 107.44C32.3897 108.98 31.7897 110.3 31.2697 111.62C31.0381 112.183 30.8671 112.77 30.7597 113.37C30.7597 113.37 30.7597 113.45 30.7597 113.43L30.4297 113.51C30.3422 113.521 30.2575 113.548 30.1797 113.59C30.1383 113.617 30.0948 113.64 30.0497 113.66C29.9897 113.74 30.0497 113.66 30.0497 113.66C30.0581 113.634 30.0581 113.606 30.0497 113.58C30.0856 113.491 30.1027 113.396 30.0997 113.3C30.0997 113.21 30.0997 113.14 30.0997 112.96H30.2097H30.3697H30.4697C30.5397 112.96 30.5497 112.96 30.7297 112.65C30.9097 112.34 31.0097 112.07 31.1497 111.74C31.5197 110.86 31.8597 109.89 32.3197 108.91C32.5681 108.381 32.8697 107.878 33.2197 107.41C33.4428 107.118 33.7092 106.862 34.0097 106.65L34.5797 106.37L35.1997 106.21C35.4097 106.21 35.6297 106.21 35.8397 106.21C36.0943 106.243 36.3376 106.335 36.5497 106.48C36.8288 106.658 37.0482 106.916 37.1797 107.22C37.2819 107.45 37.3395 107.698 37.3497 107.95C37.3583 108.601 37.2464 109.249 37.0197 109.86C36.6597 110.86 36.2297 111.86 35.8797 112.75C35.5997 113.45 35.2997 114.29 35.4297 114.41V114.51C35.4297 114.51 35.4897 114.64 35.4797 114.6C35.3971 114.681 35.3202 114.768 35.2497 114.86C35.1917 114.912 35.153 114.983 35.1397 115.06C35.1412 114.989 35.1202 114.919 35.0797 114.86C35.0797 114.78 34.9297 114.53 34.9197 114.56C34.9741 114.526 35.0216 114.482 35.0597 114.43C35.1773 114.291 35.2843 114.144 35.3797 113.99C35.5997 113.66 35.8097 113.28 36.0197 112.89L36.9297 111.12C37.3975 109.999 38.0203 108.948 38.7797 108C39.0395 107.704 39.3351 107.442 39.6597 107.22C39.9772 106.974 40.3678 106.84 40.7697 106.84C40.9578 106.84 41.144 106.878 41.3162 106.954C41.4884 107.03 41.6429 107.141 41.7697 107.28C41.9628 107.508 42.0783 107.792 42.0997 108.09C42.1538 108.692 42.1133 109.3 41.9797 109.89C41.7797 110.815 41.5021 111.722 41.1497 112.6C40.9641 113.088 40.8039 113.585 40.6697 114.09C40.6018 114.362 40.5649 114.64 40.5597 114.92C40.5597 115 40.5597 115.07 40.5597 115.12C40.5786 115.174 40.6056 115.224 40.6397 115.27C40.6397 115.38 40.7497 115.27 40.5197 115.53C40.4597 115.58 40.4497 115.73 40.4497 115.66C40.4642 115.608 40.4642 115.552 40.4497 115.5C40.4497 115.44 40.3997 115.5 40.3497 115.34L40.4097 115.28C40.4721 115.217 40.5259 115.147 40.5697 115.07C40.6987 114.877 40.8156 114.677 40.9197 114.47C41.3797 113.58 41.7597 112.67 42.2297 111.64C42.5287 110.996 42.8626 110.368 43.2297 109.76C43.5436 109.24 43.9197 108.759 44.3497 108.33C44.7201 107.945 45.2103 107.699 45.7397 107.63C46.0279 107.634 46.3111 107.706 46.5664 107.84C46.8218 107.974 47.0421 108.165 47.2097 108.4C47.4851 109.188 47.5234 110.04 47.3197 110.85C47.2397 111.36 47.0897 111.91 46.9597 112.47L46.6197 113.86C46.533 114.188 46.4728 114.522 46.4397 114.86C46.4346 114.923 46.4346 114.987 46.4397 115.05H46.3297C46.2473 115.064 46.1667 115.087 46.0897 115.12C45.8697 115.12 45.7597 115.35 45.8297 115.22C45.8402 115.137 45.8402 115.053 45.8297 114.97C45.8148 114.834 45.7846 114.699 45.7397 114.57L45.9697 114.39C46.0709 114.315 46.1588 114.224 46.2297 114.12C46.4182 113.877 46.576 113.612 46.6997 113.33C46.9409 112.736 47.1479 112.128 47.3197 111.51C47.5439 110.525 47.9733 109.598 48.5797 108.79C48.7033 108.65 48.8407 108.523 48.9897 108.41C49.1278 108.318 49.2753 108.241 49.4297 108.18C49.6824 108.093 49.9569 108.093 50.2097 108.18C50.3847 108.251 50.5394 108.364 50.6597 108.51C50.7797 108.72 50.5297 108.92 50.4297 109.19C50.3297 109.46 50.2097 109.82 49.9997 110.69C49.8497 111.31 49.6897 112 49.4797 112.69C49.2711 113.499 48.962 114.278 48.5597 115.01C48.2925 115.458 47.9548 115.86 47.5597 116.2C47.326 116.393 47.0749 116.563 46.8097 116.71C46.7254 116.752 46.6386 116.789 46.5497 116.82L46.1797 116.93C45.9738 116.955 45.7656 116.955 45.5597 116.93C45.2565 116.879 44.9691 116.76 44.7197 116.58C44.5049 116.408 44.3278 116.193 44.1997 115.95C44.1997 115.85 44.1097 115.75 44.0697 115.65L44.0197 115.45C43.9802 115.242 43.9601 115.031 43.9597 114.82C43.9663 114.555 43.993 114.291 44.0397 114.03C44.1048 113.619 44.1916 113.212 44.2997 112.81L44.4097 112.38L43.6897 114C43.4697 114.53 43.2497 115.06 42.9597 115.63C42.8083 115.956 42.6276 116.267 42.4197 116.56C42.3536 116.656 42.2801 116.746 42.1997 116.83C42.1094 116.945 42.0053 117.05 41.8897 117.14C41.6929 117.33 41.4591 117.478 41.2028 117.575C40.9465 117.671 40.6732 117.714 40.3997 117.7C40.0448 117.687 39.6996 117.58 39.3997 117.39C39.2908 117.33 39.1928 117.252 39.1097 117.16C39.0347 117.092 38.9645 117.018 38.8997 116.94C38.7036 116.717 38.5448 116.464 38.4297 116.19C38.2231 115.697 38.1407 115.162 38.1897 114.63C38.2014 114.435 38.2247 114.242 38.2597 114.05V113.78V113.72C38.2597 113.72 38.3197 113.61 38.3597 113.54L38.5597 113.36Z" fill="#231F20"/>
<path d="M105.42 104.4C105.379 104.276 105.329 104.156 105.27 104.04C105.38 103.961 105.475 103.863 105.55 103.75C105.616 103.693 105.667 103.621 105.7 103.54C105.704 103.51 105.704 103.48 105.7 103.45C105.691 103.483 105.691 103.517 105.7 103.55V103.46C105.753 103.519 105.818 103.567 105.89 103.6C105.996 103.667 106.11 103.721 106.23 103.76C106.226 103.813 106.226 103.867 106.23 103.92C106.219 104.086 106.219 104.253 106.23 104.42C106.23 104.52 106.23 104.62 106.23 104.72V105.21L106.56 107.72C106.662 108.425 106.703 109.138 106.68 109.85C106.669 110.287 106.588 110.719 106.44 111.13C106.341 111.421 106.196 111.695 106.01 111.94C105.9 112.084 105.765 112.206 105.61 112.3C105.393 112.424 105.15 112.496 104.9 112.51C104.663 112.494 104.436 112.407 104.25 112.26C104.099 112.169 103.958 112.061 103.83 111.94C103.389 111.478 103.048 110.93 102.83 110.33C102.51 109.46 102.21 108.33 101.94 107.33C101.8 106.87 101.62 106.33 101.48 106.01C101.406 105.827 101.312 105.653 101.2 105.49L101.11 105.38C101.13 105.324 101.157 105.27 101.19 105.22C101.19 105.22 101.19 105.08 101.19 105.13C101.186 105.163 101.186 105.197 101.19 105.23C101.19 105.3 101.26 105.38 101.19 105.36L101.07 105.45L100.98 105.55L100.93 105.6L100.39 105.17C100.419 105.177 100.45 105.177 100.48 105.17C100.581 105.203 100.685 105.23 100.79 105.25H100.99V105.34C101.013 105.569 101.05 105.796 101.1 106.02C101.375 107.099 101.579 108.194 101.71 109.3C101.805 110.049 101.694 110.809 101.39 111.5C101.21 111.83 100.944 112.104 100.62 112.292C100.295 112.481 99.925 112.577 99.5498 112.57C99.3416 112.578 99.1342 112.54 98.9424 112.459C98.7506 112.377 98.579 112.255 98.4398 112.1C98.0026 111.518 97.739 110.825 97.6798 110.1C97.5998 109.56 97.5498 109.04 97.4898 108.54C97.4298 108.04 97.3698 107.54 97.2698 107.08C97.2039 106.68 97.0539 106.298 96.8298 105.96C96.7939 105.906 96.7447 105.862 96.6869 105.832C96.6292 105.802 96.5647 105.788 96.4998 105.79V105.66C96.5519 105.708 96.6131 105.745 96.6798 105.77C96.6798 105.77 96.6798 105.77 96.6798 105.83C96.6712 106.39 96.7384 106.948 96.8798 107.49C97.035 108.15 97.1552 108.817 97.2398 109.49C97.2755 109.852 97.2755 110.217 97.2398 110.58C97.2315 111.033 97.0693 111.471 96.7798 111.82C96.7018 111.91 96.6049 111.982 96.496 112.03C96.3871 112.079 96.2689 112.102 96.1498 112.1C96.0098 112.1 95.9598 112.1 95.9498 111.98C95.9398 111.86 96.1898 111.64 96.2198 111.34C96.2198 110.81 95.5898 109.85 95.1498 108.4C95.0098 107.94 94.8798 107.46 94.7698 106.92C94.7037 106.621 94.6668 106.316 94.6598 106.01C94.6199 105.454 94.7994 104.905 95.1598 104.48C95.4237 104.192 95.7751 103.999 96.1598 103.93C96.3059 103.912 96.4536 103.912 96.5998 103.93C96.7275 103.937 96.8546 103.953 96.9798 103.98C97.4814 104.08 97.9372 104.34 98.2798 104.72C98.7261 105.259 99.0288 105.902 99.1598 106.59C99.3442 107.582 99.4711 108.583 99.5398 109.59V109.92V110.06V110.15C99.5382 110.176 99.5439 110.202 99.5562 110.225C99.5686 110.248 99.5871 110.267 99.6098 110.28C99.634 110.289 99.6601 110.293 99.686 110.291C99.7119 110.288 99.737 110.28 99.7592 110.266C99.7814 110.253 99.8002 110.234 99.8142 110.213C99.8281 110.191 99.8369 110.166 99.8398 110.14C99.8442 110.09 99.8442 110.04 99.8398 109.99C99.8398 109.84 99.8398 109.67 99.8398 109.5C99.8398 109.17 99.7598 108.81 99.6998 108.5C99.5798 107.73 99.3798 106.98 99.2198 106.06C99.1556 105.73 99.1556 105.39 99.2198 105.06C99.2688 104.89 99.3541 104.733 99.4698 104.6L99.5998 104.45C99.6982 104.338 99.8089 104.237 99.9298 104.15C100.241 103.88 100.638 103.728 101.05 103.72C101.482 103.728 101.894 103.904 102.2 104.21C102.413 104.41 102.598 104.639 102.75 104.89L102.93 105.21L103.04 105.41C103.04 105.54 103.14 105.66 103.18 105.79C103.22 105.92 103.34 106.3 103.42 106.59C103.5 106.88 103.51 106.91 103.58 107.08C103.65 107.25 103.72 107.48 103.91 107.44C104.1 107.4 104.12 107.23 104.14 107.1C104.155 106.95 104.155 106.8 104.14 106.65C104.14 106.34 104.08 106.01 104.05 105.65V105.38V104.99C104.009 104.453 104.053 103.913 104.18 103.39C104.24 103.153 104.349 102.932 104.5 102.74C104.706 102.479 105.002 102.305 105.33 102.25C105.652 102.202 105.98 102.277 106.25 102.46C106.448 102.592 106.618 102.762 106.75 102.96C107.09 103.506 107.34 104.104 107.49 104.73C107.81 105.84 108.03 106.93 108.33 107.98C108.511 108.712 108.793 109.416 109.17 110.07C109.37 110.32 109.48 110.39 109.6 110.38C109.72 110.37 109.68 110.51 109.76 110.21C109.734 109.473 109.571 108.747 109.28 108.07C109 107.32 108.64 106.56 108.28 105.78C107.996 105.155 107.749 104.514 107.54 103.86C107.403 103.441 107.368 102.995 107.44 102.56C107.482 102.394 107.55 102.236 107.64 102.09C107.758 101.935 107.904 101.803 108.07 101.7C108.263 101.592 108.468 101.505 108.68 101.44C108.938 101.364 109.209 101.342 109.476 101.377C109.743 101.411 109.999 101.501 110.23 101.64C110.604 101.881 110.925 102.198 111.17 102.57C111.557 103.156 111.892 103.775 112.17 104.42L112.88 105.92C113.77 107.71 113.98 107.77 113.97 108.61C113.97 108.78 114.05 108.96 114.06 109.12C114.07 109.28 113.85 109.54 113.3 109.47C112.557 109.279 111.918 108.805 111.52 108.15C110.852 107.112 110.289 106.009 109.84 104.86C109.656 104.423 109.431 104.005 109.17 103.61L109.06 103.5C109 103.5 109.17 103.33 109.19 103.24C109.185 103.28 109.185 103.32 109.19 103.36C109.174 103.432 109.174 103.507 109.19 103.58H109.12C108.29 102.05 108.89 103.15 108.71 102.81C108.65 102.75 108.77 102.87 108.85 102.88C108.997 102.924 109.148 102.957 109.3 102.98H109.59C109.59 102.98 109.59 102.98 109.59 103.05C109.609 103.141 109.632 103.231 109.66 103.32C109.834 103.823 110.034 104.317 110.26 104.8L111.03 106.45C111.307 107.064 111.544 107.695 111.74 108.34C111.94 108.929 112.042 109.547 112.04 110.17C112.027 110.723 111.85 111.259 111.53 111.71C111.325 111.972 111.066 112.187 110.771 112.34C110.476 112.494 110.152 112.582 109.82 112.6C109.256 112.656 108.689 112.523 108.21 112.22C107.845 111.987 107.529 111.684 107.28 111.33C106.942 110.836 106.682 110.293 106.51 109.72C106.218 108.798 105.981 107.86 105.8 106.91C105.649 106.084 105.445 105.269 105.19 104.47L105.42 104.4Z" fill="#231F20"/>
</svg>
