<svg width="128" height="128" viewBox="0 0 128 128" fill="none" xmlns="http://www.w3.org/2000/svg">
<path d="M88.04 50.19C88.04 50.19 92.05 50.62 92.44 49.61C92.83 48.59 92.41 46.73 93.08 46.12C93.75 45.51 94.14 53.34 93.34 53.14C92.54 52.94 88.04 50.2 88.04 50.2V50.19Z" fill="#231F20"/>
<path d="M64.3702 53.14C64.3702 53.14 65.4602 55.4 66.2402 54.93C67.0202 54.46 68.8502 50.35 70.6202 49.49C71.6902 48.97 66.5002 58.11 65.9602 58.18C65.4202 58.25 62.8102 53.89 63.1202 53.14C63.4302 52.39 64.3702 53.14 64.3702 53.14Z" fill="#231F20"/>
<path d="M40.2998 48.2C40.2998 48.2 40.0498 50.55 41.3198 50.81C42.4498 51.04 44.4798 49.72 44.5398 49.66C44.5998 49.6 39.0698 54.91 39.0698 54.91L40.3098 48.19L40.2998 48.2Z" fill="#231F20"/>
<path d="M74.7101 100L73.9001 103.15C73.8001 103.53 73.7601 103.93 73.6601 104.32C73.3001 105.68 72.9501 107.04 72.6401 108.42C72.4801 109.03 72.3501 109.64 72.2201 110.25C72.1001 111.04 71.8201 111.8 71.5201 112.56C71.4201 112.79 71.3701 112.75 71.2901 112.52C71.2201 112.29 71.0501 111.87 71.0001 111.4C70.8701 109.74 70.9901 108.12 71.4701 106.54C71.7301 105.59 71.8001 104.56 71.9801 103.57C72.1701 102.48 72.4201 101.4 72.6901 100.32L73.2001 98.33C73.4401 97.32 73.7601 96.33 74.0601 95.34C74.2901 94.57 74.4201 93.78 74.7001 93.02C74.7701 92.86 74.8301 92.69 74.9101 92.53C75.2501 91.95 75.4501 91.8 75.7601 91.8C75.8301 91.8 75.9101 91.79 75.9701 91.8C76.1801 91.84 76.2401 92.16 76.2001 92.63C76.1501 92.98 76.1501 93.34 76.1301 93.7C76.0601 94.04 76.0001 94.39 75.9401 94.74C75.8101 95.44 75.6701 96.14 75.5401 96.85C75.3201 97.9 75.0001 98.94 74.7701 100H74.7201H74.7101Z" fill="#231F20"/>
<path d="M80.7102 100.03C79.7202 101.22 78.7602 102.44 77.8302 103.68C77.4902 104.13 77.2002 104.62 76.8602 105.07C75.6502 106.66 74.4302 108.25 73.3002 109.9C72.7902 110.63 72.3402 111.4 71.9002 112.16C71.3302 113.14 70.7302 114.1 69.8702 114.91C69.6102 115.17 69.5302 115.07 69.4902 114.7C69.4702 114.51 69.4502 114.26 69.4302 113.95C69.4302 113.8 69.4302 113.63 69.4302 113.47C69.4302 113.38 69.4502 113.3 69.4402 113.21C69.4702 113.13 69.4902 113.05 69.5202 112.98C69.7502 112.44 69.9702 111.89 70.2302 111.36L71.1502 109.87C71.7902 108.89 72.4602 107.93 73.1902 107C74.0702 105.89 74.7802 104.61 75.6302 103.45C76.5602 102.17 77.5202 100.91 78.5002 99.66L80.3402 97.38C81.2902 96.25 82.3002 95.16 83.2602 94.05C84.0102 93.19 84.7302 92.33 85.5202 91.52C85.7002 91.34 85.8502 91.16 86.0402 90.99C86.7502 90.38 87.0602 90.28 87.3602 90.31C87.4302 90.31 87.5102 90.31 87.5602 90.34C87.7402 90.4 87.5702 90.78 87.2002 91.35C86.0302 92.98 84.8702 94.71 83.5802 96.35L82.1902 98.22L80.7402 100.05L80.7002 100.02L80.7102 100.03Z" fill="#231F20"/>
<path d="M40.2798 84.55C42.3698 86.85 44.4998 89.13 46.6498 91.4L49.0198 93.86C51.7498 96.81 54.4598 99.8 57.0398 102.9C58.1998 104.26 59.3398 105.65 60.4798 107.01C61.1898 107.9 61.8798 108.82 62.5598 109.74C63.1898 110.7 63.8698 111.62 64.3698 112.66C64.6798 113.31 64.5098 113.3 63.9398 112.97C63.3398 112.65 62.4198 111.97 61.6198 110.95L59.4098 108.31C58.7198 107.39 57.9598 106.52 57.2498 105.62C55.7898 103.84 54.3098 102.06 52.7998 100.28C51.0098 98.14 48.9398 96.1 46.9698 94.03L40.4698 87.18C39.1398 85.77 37.8298 84.33 36.5398 82.89C35.5398 81.81 34.5998 80.67 33.6298 79.57C32.6798 78.44 31.7398 77.32 30.7998 76.2C30.0898 75.31 29.3698 74.45 28.6298 73.59L26.5298 70.94C26.2098 70.55 25.9298 70.16 25.6698 69.73C25.1798 68.94 24.8698 68.41 24.7298 67.99C24.5998 67.56 24.5998 67.28 24.6698 67C24.6998 66.87 24.7198 66.73 24.7598 66.64C24.8398 66.49 25.0298 66.54 25.3298 66.74C25.6298 66.95 26.0498 67.3 26.4598 67.83C27.0698 68.61 27.7198 69.38 28.3498 70.18C28.9598 70.99 29.5798 71.8 30.1998 72.62C30.8298 73.43 31.4698 74.25 32.1098 75.07C32.7698 75.88 33.4298 76.69 34.0898 77.51C35.0798 78.71 36.1298 79.87 37.1498 81.06C38.2098 82.22 39.2398 83.4 40.3098 84.54L40.2798 84.57V84.55Z" fill="#231F20"/>
<path d="M85.98 61.6C85.98 61.6 93.92 59.54 99.45 58.94C102.58 58.6 108.05 58.42 107.34 57.77C107.21 57.65 105.76 56.11 105.55 56.02C104.3 55.5 90.47 58.94 90.47 58.94L85.99 61.6H85.98Z" fill="#231F20"/>
<path d="M68.1 64.62C66.7 64.75 65.29 64.85 63.87 64.91C63.36 64.94 62.84 65 62.33 65.01C60.51 65.04 58.69 65.01 56.87 64.88C56.06 64.84 55.25 64.79 54.45 64.75L52.91 64.56C52.78 64.54 52.66 64.51 52.53 64.49L52.16 64.32C51.92 64.21 51.69 64.09 51.44 63.97C51.14 63.82 51.18 63.86 51.46 63.79C51.6 63.75 51.81 63.68 52.06 63.56C52.21 63.49 52.34 63.43 52.46 63.37C52.53 63.33 52.6 63.32 52.68 63.26C52.75 63.26 52.82 63.26 52.89 63.26C54.93 63.2 56.93 63.39 59.01 63.51C60.25 63.6 61.53 63.44 62.8 63.36C64.19 63.27 65.59 63.16 66.98 63.04C67.84 62.96 68.7 62.88 69.56 62.77C70.86 62.61 72.17 62.46 73.45 62.24C74.45 62.06 75.41 61.79 76.39 61.56C76.61 61.51 76.82 61.47 77.04 61.44C77.86 61.35 78.14 61.44 78.37 61.79C78.42 61.87 78.49 61.95 78.52 62.03C78.64 62.3 78.34 62.6 77.77 62.83C76.92 63.2 76.03 63.43 75.12 63.61C74.21 63.8 73.27 63.96 72.33 64.11C70.93 64.32 69.52 64.49 68.11 64.65V64.61L68.1 64.62Z" fill="#231F20"/>
<path d="M20.8301 58.95C20.8301 58.95 22.0201 60.42 22.8201 60.8C23.3901 61.07 26.9601 61.4 31.1301 61.45C35.3001 61.5 39.9201 61.61 41.2401 61.61C42.9701 61.61 44.9101 61.33 44.9101 61.33L20.8301 58.95Z" fill="#231F20"/>
<path d="M51.3402 50.26L53.4302 46.56C53.6802 46.11 53.8802 45.63 54.1302 45.17C55.0202 43.57 55.9202 41.96 56.7702 40.34C57.1502 39.62 57.5302 38.89 57.8902 38.17C58.3102 37.22 58.9202 36.35 59.5402 35.5C59.7402 35.24 59.7802 35.31 59.7902 35.61C59.7902 35.91 59.8202 36.49 59.6902 37.09C59.2102 39.2 58.3302 41.11 57.2602 42.97C56.6202 44.08 56.1602 45.33 55.5902 46.51C54.9702 47.81 54.3102 49.1 53.6202 50.36L52.3302 52.7C51.6602 53.87 50.9902 55.05 50.3302 56.21C49.8202 57.12 49.4202 58.07 48.9302 58.99C48.8202 59.19 48.7402 59.41 48.6102 59.6C48.0702 60.27 47.8002 60.41 47.2502 60.24C47.1402 60.21 47.0302 60.2 46.9402 60.17C46.7002 60.1 46.4702 59.51 46.6902 58.93C47.2902 57.18 48.3102 55.62 49.2202 53.95C49.9102 52.72 50.6302 51.5 51.3002 50.24L51.3502 50.26H51.3402Z" fill="#231F20"/>
<path d="M29.7398 45.74C33.5798 41.97 37.5098 38.3 41.6098 34.79L43.8598 32.87L44.4298 32.4C44.6398 32.23 44.7398 32.14 45.1498 31.83C45.5098 31.65 45.9598 31.53 46.3298 31.52L47.0898 31.49C54.0198 31.43 60.8698 31.53 67.7598 31.53C70.8098 31.53 73.8798 31.45 76.8998 31.34C78.8398 31.26 80.7898 31.17 82.7298 31.13L85.6498 31.06C86.6198 31.02 87.5998 31.11 88.5698 31.11C89.7898 31.15 89.6398 31.26 88.6298 31.59C88.0498 31.78 87.3398 32.01 86.5398 32.27C85.6698 32.51 84.6398 32.68 83.5198 32.8C79.5498 33.24 75.5598 33.31 71.5698 33.44C67.5798 33.53 63.5898 33.58 59.5798 33.5C57.1798 33.45 54.7298 33.46 52.2798 33.5C51.0498 33.52 49.8198 33.54 48.5898 33.57L46.7698 33.62L46.3898 33.64C46.3898 33.64 46.2898 33.64 46.2398 33.66L45.7198 34.07C41.5698 37.43 37.6098 41.08 33.7398 44.81C31.3598 47.11 29.0198 49.45 26.7298 51.85C25.6098 53.02 24.4998 54.21 23.4298 55.41L22.8298 56.09L22.3898 56.61C22.3198 56.7 22.2498 56.79 22.1798 56.89C22.1098 56.97 22.0198 57.14 22.1998 57.1L22.8698 57.14C24.4598 57.26 26.0398 57.38 27.6098 57.5C31.4898 57.83 35.2998 58.16 39.1298 58.78C39.9698 58.93 40.7998 59.04 41.6498 59.23C43.2198 59.54 44.2198 59.94 44.8998 60.24C45.5798 60.55 45.9298 60.87 46.1798 61.21C46.2898 61.37 46.4498 61.54 46.4998 61.68C46.6498 62.15 45.3498 62.04 43.1098 61.68C39.7898 61.09 36.3598 60.56 32.8498 60.18C31.0998 59.98 29.3298 59.8 27.5398 59.65L24.8598 59.44L20.8098 59.18H20.7798L19.8398 58.56L19.5998 58.4L19.4798 58.32L19.4198 58.18C19.3598 58.02 19.3098 57.88 19.3098 57.69C19.1898 56.98 20.2298 55.79 21.0598 54.81L21.9198 53.82L22.6098 53.06L23.9998 51.56C25.8598 49.58 27.7598 47.64 29.6798 45.72L29.7198 45.75L29.7398 45.74Z" fill="#231F20"/>
<path d="M76.5898 50.61C76.2198 49.39 75.8198 48.18 75.4598 46.94C75.3198 46.49 75.1198 46.06 74.9798 45.61L74.2698 43.21L73.6198 40.78C73.4198 40.06 73.1698 39.36 72.9398 38.66C72.7898 38.21 72.6298 37.77 72.4898 37.32C72.3798 36.86 72.3298 36.37 72.2698 35.9C72.2398 35.6 72.3398 35.61 72.5798 35.79C72.8098 35.98 73.2498 36.31 73.5798 36.76C74.4298 38.48 75.2498 40.2 75.8498 42.03C76.2098 43.13 76.7198 44.22 77.1598 45.32C77.6298 46.54 78.0698 47.77 78.4398 49.04L79.1298 51.37C79.4598 52.55 79.7798 53.74 80.1098 54.92C80.3598 55.83 80.7398 56.7 80.9798 57.62C81.0398 57.82 81.0998 58.02 81.1298 58.22C81.1598 58.41 81.1798 58.57 81.1798 58.71C81.1798 58.85 81.1198 58.97 81.0698 59.07C80.9698 59.27 80.8398 59.39 80.6498 59.51C80.5598 59.56 80.4798 59.62 80.3998 59.66C80.1398 59.77 79.7898 59.52 79.4098 59.03C78.6198 57.53 78.2098 55.91 77.6898 54.28C77.3198 53.07 76.9498 51.85 76.5298 50.64L76.5798 50.62L76.5898 50.61Z" fill="#231F20"/>
<path d="M68.1301 63.4L63.2601 63.42C62.6701 63.42 62.0801 63.47 61.4801 63.45C59.3901 63.38 57.3001 63.25 55.2101 63.05C54.2901 62.96 53.3501 62.89 52.4301 62.79C51.8401 62.74 51.2501 62.65 50.6601 62.5C50.3701 62.43 50.0801 62.37 49.7901 62.27C49.5001 62.18 49.2401 62 48.9701 61.87C48.6401 61.68 48.7001 61.64 49.0501 61.54C49.2901 61.46 49.5401 61.38 49.7601 61.31C50.0401 61.25 50.3501 61.23 50.6801 61.23L51.5501 61.28C51.8401 61.28 52.1401 61.29 52.4201 61.33C53.0001 61.4 53.5801 61.44 54.1701 61.49C55.3401 61.58 56.5201 61.68 57.7201 61.77C59.1501 61.9 60.6401 61.77 62.1101 61.76C63.7201 61.73 65.3401 61.7 66.9601 61.64C67.9601 61.6 68.9501 61.57 69.9501 61.51C71.4601 61.43 72.9801 61.36 74.4701 61.2C75.6301 61.09 76.7601 60.87 77.9101 60.7C78.1601 60.66 78.4101 60.61 78.6601 60.58C79.1301 60.51 79.4501 60.53 79.6801 60.65C79.9101 60.75 80.0501 60.89 80.1701 61.09C80.2201 61.18 80.2901 61.27 80.3301 61.36C80.4401 61.64 80.0801 61.98 79.4101 62.27C77.3801 62.78 75.2201 63.08 73.0301 63.2C71.4101 63.31 69.7701 63.36 68.1301 63.42V63.38V63.4Z" fill="#231F20"/>
<path d="M103.91 48.65L106.21 51.87L107.81 54.14C108.13 54.61 108.44 55.1 108.52 55.5C108.61 55.91 108.59 56.17 108.47 56.5L107.84 56.91C107.61 57.04 107.53 57.22 107.01 57.24L104.56 57.37C101.27 57.55 97.96 58.04 94.73 58.87C93.3 59.24 91.89 59.73 90.5 60.21C89.61 60.53 88.74 60.9 87.86 61.24C86.97 61.56 86.04 61.82 85.13 62.11C84.55 62.28 84.55 62.09 84.88 61.63C85.22 61.18 85.87 60.35 86.81 59.7C88.56 58.75 90.38 57.91 92.28 57.26C94.19 56.67 96.15 56.21 98.15 55.92C99.34 55.73 100.55 55.54 101.77 55.35C102.38 55.26 102.99 55.17 103.61 55.09L104.44 55L104.74 54.98H104.84H105.2H105.39C105.46 54.97 105.39 54.89 105.37 54.86C105.27 54.68 105.15 54.49 105.02 54.28C104.99 54.21 104.49 53.51 104.15 53.03L103.04 51.48L100.16 47.53C98.69 45.54 97.22 43.54 95.77 41.57C94.63 40.04 93.41 38.61 92.27 37.1C92.01 36.77 91.78 36.43 91.55 36.08C91.13 35.42 90.9 34.95 90.81 34.58C90.71 34.21 90.72 33.96 90.79 33.71C90.82 33.6 90.84 33.47 90.88 33.39C91.02 33.13 91.58 33.51 92.44 34.29C93.64 35.49 94.77 36.79 95.88 38.13C96.99 39.48 98.14 40.83 99.2 42.25C100.79 44.36 102.38 46.49 103.97 48.61L103.92 48.65H103.91Z" fill="#231F20"/>
<path d="M37.23 81.79C39.69 84.53 42.19 87.24 44.71 89.94C45.63 90.92 46.6 91.86 47.52 92.85C50.73 96.36 53.93 99.9 56.99 103.55C58.36 105.16 59.74 106.78 61.1 108.38C61.97 109.41 62.84 110.46 63.67 111.53C64.45 112.64 65.14 113.83 65.69 115.08C66.04 115.86 65.84 115.85 65.16 115.46C64.49 115.06 63.19 114.4 62.14 113.3C58.75 109.09 55.15 105.03 51.59 100.82C49.48 98.29 47 95.9 44.67 93.45L37.01 85.32C35.45 83.64 33.9 81.94 32.37 80.23C30.04 77.64 27.8 74.95 25.65 72.22C23.98 70.1 22.3 68.02 20.88 65.69C20.55 65.19 20.25 64.67 19.97 64.13C19 62.07 19.09 61.23 19.53 60.6C19.62 60.46 19.7 60.29 19.78 60.2C20.05 59.91 20.8 60.6 21.59 61.89C23.85 65.78 26.81 69.63 29.98 73.4C32.33 76.21 34.77 78.99 37.28 81.71L37.24 81.76L37.23 81.79Z" fill="#231F20"/>
<path d="M59.9899 97.61C58.9999 94.99 57.9999 92.38 56.9599 89.79C56.5899 88.84 56.1299 87.93 55.7599 86.98C54.4399 83.64 53.1299 80.29 51.6399 77.03C50.9899 75.57 50.2499 74.15 49.5099 72.76C49.0099 71.88 48.5599 70.97 48.1199 70.05C47.6399 69.15 47.2799 68.19 46.9299 67.22C46.7199 66.61 46.9099 66.6 47.4199 66.93C47.6799 67.09 48.0199 67.34 48.4099 67.65C48.8199 67.95 49.2299 68.35 49.5499 68.85C49.8499 69.28 50.1199 69.73 50.4099 70.17L50.8399 70.83L51.2099 71.52C51.7099 72.44 52.1599 73.39 52.6199 74.33C53.5299 76.22 54.3799 78.14 55.1499 80.11C56.0699 82.46 57.2499 84.8 58.2199 87.19C59.2899 89.81 60.3099 92.45 61.3199 95.09L63.1699 99.97C64.0999 102.43 65.0199 104.91 65.9999 107.33C66.7699 109.21 67.6299 111 68.4599 112.83C68.6399 113.23 68.8299 113.62 69.0099 114.03C69.3499 114.78 69.5099 115.3 69.5399 115.71C69.5799 116.11 69.5299 116.37 69.3999 116.61C69.3399 116.72 69.2999 116.86 69.2299 116.94C69.0199 117.2 68.4799 116.7 67.8099 115.67C66.0899 112.49 64.5699 109.02 63.1199 105.51C62.0399 102.9 60.9899 100.28 59.9499 97.65L59.9999 97.63L59.9899 97.61Z" fill="#231F20"/>
<path d="M73.48 96.48C74.18 93.96 74.89 91.44 75.56 88.91L76.23 86.13C77.1 82.88 77.98 79.63 78.85 76.38C79.23 74.94 79.53 73.46 79.82 72.01C80 71.07 80.2 70.14 80.42 69.22C80.54 68.76 80.61 68.29 80.8 67.84C80.99 67.39 81.2 66.95 81.45 66.51C81.77 65.97 81.79 66.05 81.99 66.61C82.08 66.89 82.29 67.29 82.44 67.76C82.51 68 82.62 68.26 82.65 68.52C82.67 68.78 82.66 69.05 82.63 69.32C82.5 70.29 82.37 71.26 82.2 72.23C81.99 73.19 81.76 74.14 81.53 75.09C81.06 76.99 80.53 78.88 79.92 80.76C79.17 83 78.63 85.39 77.97 87.71C77.23 90.25 76.46 92.79 75.69 95.32L74.25 99.99C73.53 102.35 72.75 104.7 72.11 107.06C71.59 108.89 71.18 110.71 70.71 112.53C70.61 112.93 70.52 113.33 70.4 113.73C70.18 114.47 70.02 114.96 69.82 115.27C69.59 115.57 69.39 115.73 69.15 115.83C69.04 115.88 68.93 115.95 68.84 115.96C68.69 115.99 68.61 115.84 68.55 115.53C68.5 115.22 68.45 114.74 68.6 114.2C69.29 110.9 70.35 107.54 71.36 104.13C72.05 101.59 72.74 99.03 73.42 96.48H73.46H73.48Z" fill="#231F20"/>
<path d="M83.5201 93.81L89.8601 85.35L92.1301 82.24C94.8601 78.63 97.6101 75.04 100.23 71.37C101.41 69.75 102.55 68.09 103.61 66.42C104.3 65.35 104.95 64.25 105.62 63.17C106.34 62.11 107.02 61.05 107.83 60.03C108.33 59.39 108.31 59.5 108.19 60.19C108.13 60.54 108.06 61.04 107.98 61.67C107.88 62.29 107.66 62.95 107.35 63.64C106.85 64.88 106.09 65.98 105.42 67.11C104.74 68.25 104.02 69.35 103.29 70.45C101.86 72.66 100.24 74.75 98.6001 76.82C96.6401 79.3 94.7801 82.01 92.8501 84.59L86.4601 93.1L82.5701 98.36C80.6301 101.03 78.6901 103.72 76.8801 106.45C75.4701 108.57 74.2101 110.73 72.9301 112.89C72.6501 113.37 72.3801 113.84 72.1101 114.32C70.9801 116.05 70.5002 116.53 69.9102 116.69C69.7802 116.73 69.6301 116.8 69.5201 116.8C69.1801 116.83 69.3501 115.94 69.9901 114.55C71.9501 110.44 74.6101 106.46 77.2901 102.5C79.2901 99.56 81.3901 96.67 83.4701 93.79L83.5101 93.81H83.5201Z" fill="#231F20"/>
<path d="M40.2799 51.07C40.1399 52.14 40.1299 51.86 40.0699 52.11L39.9999 52.38C39.9699 52.47 39.9399 52.65 40.0299 52.59C40.1199 52.55 40.2299 52.39 40.3199 52.34C40.4099 52.28 40.4899 52.24 40.6499 52.12L41.7499 51.14C42.4899 50.49 43.2299 49.85 43.9899 49.21C44.6599 48.64 45.3299 48.06 46.0199 47.52C46.9099 46.86 47.7999 45.96 49.1099 45.99C49.5199 46.04 49.4699 46.11 49.3199 46.5C49.1799 46.93 48.9999 47.62 48.5599 47.98C47.7299 48.57 46.9199 49.27 46.0999 49.98C45.2399 50.66 44.3799 51.35 43.4999 52.05C42.9699 52.46 42.4699 52.94 41.9799 53.43L40.7599 54.65C40.3499 55.04 39.9199 55.43 39.5699 55.6C39.2899 55.76 39.0699 55.81 38.8499 55.85C38.7499 55.86 38.6399 55.87 38.5299 55.86C38.4299 55.87 38.2199 55.78 38.2099 55.69L37.9999 55.08L37.9499 54.92V54.65L37.9199 54.12L38.1699 51.91L38.2799 51.1L38.3899 50.39L38.6299 48.98C38.8899 47.55 39.2899 46.13 39.7499 44.76C40.1099 43.7 40.4899 42.65 40.9599 41.64C41.0699 41.42 41.1599 41.2 41.2999 40.99C41.8099 40.23 42.0799 40.06 42.4799 40.07C42.5699 40.07 42.6699 40.07 42.7399 40.08C42.9999 40.14 43.0199 40.57 42.8399 41.21C42.3099 43.09 41.6999 44.9 41.1699 46.75C40.7899 48.12 40.5299 49.55 40.3399 51.03H40.2899L40.2799 51.07Z" fill="#231F20"/>
<path d="M68.5799 55.75L66.6599 58.62C66.6099 58.87 66.4999 58.91 66.4099 59.03C66.3099 59.17 66.2499 59.14 66.1699 59.19L65.7199 59.41C65.2699 59.46 64.8699 59.03 64.4599 58.4C64.1099 57.89 63.7799 57.03 63.6899 56.77L63.2599 55.6L62.4399 53.26C62.2099 52.57 61.9299 51.89 61.6499 51.22C61.4799 50.79 61.2499 50.38 61.1299 49.92C61.0599 49.7 60.9899 49.47 60.9399 49.24C60.8699 49.02 60.9199 48.75 60.8999 48.5C60.9099 48.18 61.0099 48.19 61.3199 48.33C61.5499 48.43 61.7799 48.53 61.9799 48.61C62.2199 48.74 62.4099 48.93 62.5699 49.15C62.8499 49.55 63.0499 49.98 63.2399 50.41L63.8099 51.71C64.1899 52.58 64.4899 53.48 64.7399 54.41C64.8899 54.96 65.1099 55.5 65.3499 56.03L65.5799 56.53L65.6999 56.8L65.7699 56.97C65.7699 56.97 65.7999 57.03 65.8199 57.05C65.8399 57.05 65.8499 57.02 65.8699 57.01C65.9299 56.95 65.9899 56.84 66.0799 56.78L66.2799 56.43L66.7899 55.63L68.0699 53.63C68.6999 52.61 69.3599 51.6 69.9499 50.57C70.4099 49.77 70.7699 48.93 71.1799 48.1C71.2699 47.92 71.3399 47.73 71.4399 47.56C71.7899 46.89 72.0299 46.76 72.5099 46.85C72.6099 46.87 72.7099 46.87 72.7899 46.89C73.0099 46.94 73.2399 47.43 73.0199 47.94C72.4399 49.5 71.5799 50.99 70.6899 52.48C70.0299 53.58 69.3199 54.67 68.6399 55.76L68.5999 55.74L68.5799 55.75Z" fill="#231F20"/>
<path d="M94.6901 50.91V51.84C94.6901 52.32 94.6301 52.78 94.4901 53.16C94.3401 53.53 94.1301 53.82 93.7701 53.98C93.4401 54.09 93.0501 54 92.6501 53.92L91.7501 53.56C91.4701 53.43 91.3701 53.39 91.1801 53.28C90.0101 52.6 88.8801 51.92 87.8101 51.14C87.3301 50.8 86.8301 50.49 86.3401 50.18C85.7001 49.79 85.1301 49.27 84.6301 48.71C84.4701 48.53 84.5501 48.48 84.7901 48.49C85.0201 48.5 85.4501 48.52 85.8601 48.65C86.6001 48.86 87.2501 49.22 87.9101 49.56C88.5601 49.91 89.2301 50.24 89.8401 50.69C90.5801 51.21 91.4501 51.56 92.2601 51.94C92.4601 52.04 92.5901 52.16 92.8201 52.18C92.9701 52.06 92.9601 51.83 93.0001 51.61C93.0201 51.06 93.0101 50.4 92.9801 49.79C92.9201 48.85 92.8601 47.89 92.7301 46.96C92.6201 46.23 92.4201 45.53 92.3101 44.81C92.2801 44.65 92.2501 44.5 92.2301 44.34C92.1901 43.74 92.3201 43.53 92.6001 43.37C92.6701 43.33 92.7301 43.29 92.7901 43.26C93.0001 43.18 93.2301 43.4 93.4401 43.81C93.7101 44.43 93.9201 45.07 94.0801 45.73C94.2301 46.39 94.3401 47.07 94.4401 47.76C94.5901 48.78 94.6901 49.82 94.7501 50.89H94.7101L94.6901 50.91Z" fill="#231F20"/>
<path d="M42.7501 75.25L45.0601 79.21C45.3501 79.69 45.6801 80.13 45.9601 80.62C46.9401 82.32 47.9501 84.01 48.9101 85.74C49.3401 86.5 49.8001 87.25 50.2601 87.98C50.8901 88.9 51.3501 89.93 51.7901 90.96C51.9201 91.29 51.8101 91.3 51.5201 91.13C51.2401 90.96 50.7101 90.65 50.2601 90.18C49.4201 89.38 48.8301 88.42 48.1501 87.51C47.4901 86.59 46.8601 85.65 46.3301 84.63C45.6801 83.43 44.8001 82.31 44.0301 81.14L41.5301 77.26L40.0001 74.86C39.2501 73.64 38.5401 72.38 37.7601 71.18C37.1701 70.24 36.4601 69.4 35.8901 68.46C35.7601 68.26 35.6201 68.06 35.5101 67.85C35.0601 67.07 35.1201 66.7 35.2901 66.37C35.3301 66.29 35.3701 66.2 35.4201 66.15C35.5801 65.96 35.9701 66.15 36.5001 66.6C37.9101 68.02 39.1001 69.68 40.2801 71.36L41.5801 73.25C42.0001 73.89 42.3701 74.56 42.7801 75.22L42.7401 75.25H42.7501Z" fill="#231F20"/>
<path d="M68.9802 77.65C69.0002 78.7 69.0102 79.76 68.9902 80.81C68.9902 81.19 69.0402 81.58 69.0302 81.96C69.0102 83.32 68.9902 84.67 69.0002 86.03C68.9802 86.63 69.0002 87.23 69.0302 87.83C69.0402 88.21 69.0602 88.6 69.0702 88.98C69.0602 89.36 69.0002 89.75 68.9602 90.14C68.9302 90.38 68.8902 90.35 68.7802 90.16C68.6802 89.97 68.4302 89.61 68.2702 89.18C67.9502 87.64 67.6302 86.1 67.7102 84.51C67.7302 83.57 67.5702 82.59 67.5102 81.63C67.4402 80.57 67.3802 79.52 67.3602 78.46L67.2902 76.51C67.2402 75.52 67.2202 74.53 67.1202 73.56C67.0602 72.8 66.9202 72.06 66.8302 71.32C66.8102 71.16 66.7702 71 66.7802 70.83C66.7502 70.21 66.9602 70 67.2202 69.85C67.2802 69.81 67.3502 69.77 67.4002 69.75C67.5902 69.68 67.8202 69.91 68.0502 70.35C68.3202 71 68.4602 71.69 68.6102 72.38C68.7702 73.07 68.8402 73.78 68.8802 74.49C68.9502 75.55 68.9802 76.61 69.0302 77.67H68.9902L68.9802 77.65Z" fill="#231F20"/>
<path d="M93.6398 75.95C92.9898 76.82 92.3498 77.7 91.7198 78.59C91.4798 78.91 91.2898 79.25 91.0498 79.57C90.2098 80.69 89.3798 81.82 88.5798 82.97C88.2098 83.47 87.8698 84 87.5398 84.52L86.8998 85.52C86.6698 85.84 86.3998 86.15 86.1498 86.46C85.9898 86.65 85.9798 86.61 86.0198 86.39C86.0598 86.17 86.0798 85.74 86.1998 85.28C86.8398 83.78 87.4498 82.25 88.4598 80.95C89.0298 80.15 89.4898 79.24 90.0198 78.39C90.5998 77.45 91.2498 76.56 91.8698 75.65L93.0398 73.98C93.6198 73.14 94.2298 72.3 94.7898 71.45C95.2398 70.8 95.6098 70.11 96.0298 69.46C96.1198 69.31 96.1998 69.17 96.3098 69.03C96.7498 68.55 96.9698 68.45 97.2698 68.5C97.3398 68.51 97.4098 68.51 97.4698 68.53C97.6698 68.59 97.6698 68.91 97.5398 69.39C97.3498 70.11 96.9898 70.73 96.6798 71.39C96.3598 72.05 95.9998 72.69 95.5698 73.29C94.9398 74.18 94.3098 75.08 93.6798 75.97L93.6398 75.95Z" fill="#231F20"/>
<path d="M33.03 29.58C33.24 29.63 33.3 29.86 33.3 30.15C33.3 30.24 33.17 30.45 33.1 30.45C32.96 30.45 32.83 30.47 32.7 30.47C32.62 30.46 31.52 30.16 31.12 30.11C30.74 30.05 30.38 29.95 30.04 29.83C29.32 29.63 28.66 29.3 27.96 29.05C27.81 28.99 27.67 28.91 27.54 28.8C27.09 28.44 26.58 28.22 26.04 28.06C25.95 28.03 25.87 27.98 25.75 28.03C25.53 28.14 24.15 27.53 24.01 27.37C23.65 27 23.23 26.73 22.86 26.36C22.81 26.31 22.73 26.3 22.71 26.18C22.67 25.89 22.52 25.86 22.39 25.77C22.21 25.65 22.04 25.52 21.88 25.36C21.8 25.28 21.76 25.12 21.7 24.98C21.65 24.86 21.82 24.58 21.86 24.56C21.99 24.5 21.97 24.33 22.02 24.2C22.03 24.16 22.05 24.1 22.07 24.07C22.1 24.01 23.51 23.84 23.65 23.87C23.7 23.83 25.45 24.35 25.66 24.4C25.77 24.42 25.84 24.52 25.93 24.6C25.95 24.62 26.32 24.71 26.67 24.85C27.02 24.99 27.37 25.13 27.4 25.15C27.65 25.32 27.95 25.4 28.12 25.73C28.15 25.8 28.21 25.82 28.27 25.84C28.73 26.07 29.14 26.4 29.56 26.71C29.78 26.87 30.01 26.98 30.24 27.12C30.28 27.14 30.31 27.19 30.34 27.23C30.38 27.27 30.42 27.33 30.48 27.36C31.02 27.68 31.47 28.14 32.01 28.45C32.13 28.53 32.6 29.08 32.75 29.15C32.83 29.2 32.98 29.55 33.06 29.56L33.03 29.58Z" fill="#231F20"/>
<path d="M38.5601 23.87C38.7201 23.98 38.6301 24.2 38.4301 24.48C38.3701 24.57 38.1001 24.73 38.0401 24.71C37.9101 24.67 37.7801 24.63 37.6701 24.58C37.6001 24.55 36.8701 23.81 36.5901 23.57C36.3301 23.34 36.1201 23.07 35.9301 22.79C35.5501 22.23 35.1401 21.68 34.7701 21.1C34.7001 20.97 34.6501 20.82 34.6301 20.67C34.5501 20.14 34.3401 19.68 34.0801 19.23C34.0401 19.16 34.0201 19.07 33.9001 19.03C33.7101 18.97 33.1401 17.68 33.1401 17.48C33.1401 16.93 33.1501 16.51 33.1601 16.04C33.1601 15.97 33.1101 15.92 33.1901 15.83C33.3701 15.63 33.3201 15.5 33.3101 15.36C33.3101 15.16 33.3101 14.96 33.3401 14.75C33.3601 14.65 33.4501 14.52 33.5101 14.41C33.5701 14.31 33.8401 14.28 33.8801 14.3C33.9901 14.36 34.1001 14.26 34.2001 14.22C34.2401 14.21 34.2801 14.19 34.3201 14.19C34.3501 14.19 34.5901 14.4 34.8501 14.6C35.1101 14.81 35.4101 15.01 35.4201 15.07C35.4201 15.11 36.2401 16.41 36.3001 16.57C36.3501 16.65 36.3301 16.75 36.3201 16.85C36.3201 16.9 36.9101 17.96 36.9301 18.01C36.9901 18.26 37.1701 18.45 37.0701 18.77C37.0501 18.83 37.0701 18.88 37.1001 18.92C37.2801 19.31 37.4001 19.73 37.4901 20.17C37.5401 20.39 37.6401 20.59 37.7101 20.8C37.7201 20.84 37.7101 20.89 37.7101 20.93C37.7101 20.98 37.7101 21.04 37.7301 21.09C37.9301 21.58 38.0401 22.11 38.3101 22.57C38.3701 22.68 38.4401 23.29 38.5301 23.41C38.5701 23.48 38.4801 23.83 38.5501 23.87H38.5601Z" fill="#231F20"/>
<path d="M47.1901 19.38C47.2401 19.52 47.0801 19.62 46.8501 19.71C46.7701 19.74 46.5601 19.72 46.5201 19.68C46.4601 19.6 46.3901 19.52 46.3401 19.44C46.3201 19.39 46.1101 18.63 46.0101 18.36C45.9101 18.11 45.8601 17.86 45.8201 17.61C45.7101 17.1 45.6801 16.59 45.6701 16.09C45.6701 15.98 45.6801 15.87 45.7201 15.76C45.8501 15.38 45.8601 15 45.8101 14.61C45.8101 14.55 45.8101 14.48 45.7401 14.41C45.6101 14.3 45.5801 13.26 45.6801 13.13C45.8601 12.8 45.9701 12.48 46.1201 12.15C46.1401 12.1 46.1201 12.05 46.2101 12.01C46.4301 11.92 46.4001 11.82 46.4201 11.71C46.4501 11.57 46.4901 11.43 46.5701 11.29C46.6101 11.22 46.7301 11.16 46.8301 11.09C46.9201 11.03 47.2301 11.09 47.2701 11.11C47.3701 11.18 47.5201 11.14 47.6501 11.14C47.6901 11.14 47.7501 11.14 47.7901 11.14C47.8701 11.15 48.3801 12.01 48.3801 12.1C48.3801 12.1 48.4101 12.42 48.4501 12.74C48.4901 13.06 48.5301 13.4 48.5501 13.47C48.5701 13.54 48.5201 13.61 48.4801 13.68C48.4601 13.71 48.5201 14.68 48.5101 14.72C48.4601 14.92 48.5101 15.12 48.3101 15.31C48.2701 15.35 48.2801 15.39 48.2701 15.43C48.2601 15.77 48.1501 16.11 48.0701 16.45C48.0301 16.62 48.0301 16.8 48.0101 16.97C48.0101 17 47.9801 17.03 47.9601 17.06C47.9401 17.1 47.9101 17.14 47.9001 17.18C47.8201 17.59 47.6601 18 47.6301 18.41C47.6201 18.51 47.3801 18.95 47.3801 19.06C47.3801 19.12 47.1601 19.31 47.1801 19.37L47.1901 19.38Z" fill="#231F20"/>
</svg>
