<svg width="128" height="128" viewBox="0 0 128 128" fill="none" xmlns="http://www.w3.org/2000/svg">
<path d="M105.23 50.65C89.4501 48.83 93.1201 31.28 105.63 32.86C105.63 32.86 100.36 29.04 96.1801 30.77C92.0001 32.5 89.0901 35.87 88.6101 38.22C88.1301 40.57 88.1201 46.79 91.2501 49.39C94.3801 51.99 99.4401 52.81 99.4401 52.81L105.24 50.66L105.23 50.65Z" fill="#231F20"/>
<path d="M70.2699 29.54C57.6199 31.48 58.4999 15.61 66.7899 16.73C66.7899 16.73 62.9599 12.9 58.5099 15.62C54.0599 18.34 52.4099 24.2 54.3099 28.21C56.1999 32.21 60.1899 33.85 61.4099 33.39C62.6299 32.93 70.2799 29.55 70.2799 29.55L70.2699 29.54Z" fill="#231F20"/>
<path d="M33.2701 54.03C23.7501 53.26 25.4601 44.03 28.8501 42.01C28.8501 42.01 24.8501 39.93 20.9301 43.31C17.0101 46.68 17.0401 51.27 18.7101 53.83C20.3801 56.39 22.7301 58.42 25.2801 58.21C27.8301 58 33.2701 54.03 33.2701 54.03Z" fill="#231F20"/>
<path d="M32.0102 83.61C24.7702 84.73 25.6102 77.48 25.9902 76.66C25.9902 76.66 21.6102 75.72 20.0302 80.02C18.4402 84.32 20.4402 87.91 22.6202 88.78C24.8002 89.65 27.3702 89.58 29.1602 88.78C30.9502 87.98 32.0202 83.61 32.0202 83.61H32.0102Z" fill="#231F20"/>
<path d="M59.2502 107.34C53.3302 107.09 54.2502 102.49 54.3502 102.18C54.3502 102.18 50.0502 101.16 49.1402 105.34C48.2302 109.52 50.0202 112.95 52.4902 112.97C54.9602 112.99 58.1602 113.22 59.2402 111.61C60.3202 110 59.2402 107.33 59.2402 107.33L59.2502 107.34Z" fill="#231F20"/>
<path d="M91.29 95.24C91.19 95.65 91.04 98.44 96.12 97.66C96.12 97.66 98.06 102.53 94.47 103.73C90.88 104.93 86.92 102.62 87.35 100.03C87.78 97.44 88.03 95.78 89.66 95.24C91.29 94.7 91.29 95.24 91.29 95.24Z" fill="#231F20"/>
<path d="M104.46 73.06C104.46 73.06 106.1 70.9 107.78 72.02C109.46 73.14 111 75.06 110.08 76.44C109.17 77.82 106.85 78.52 105.63 78.01C104.41 77.5 103.04 75.57 104.45 73.06H104.46Z" fill="#231F20"/>
<path d="M70.2102 27.67C71.6402 25.56 71.6902 22.5 70.3402 20.04C69.8502 19.14 69.1402 18.39 68.3802 17.74C67.0202 16.57 65.2402 15.81 63.3802 15.68C61.5202 15.54 59.5802 16.02 58.0102 17.1C56.6102 18.05 55.5902 19.52 55.0102 21.13C54.6002 22.15 54.3902 23.26 54.3202 24.35C54.2802 25.46 54.3102 26.5 54.3002 27.73C54.4602 28.44 54.4302 28.39 53.9702 27.89C53.8502 27.76 53.7002 27.62 53.4902 27.44C53.2102 27.29 53.1102 27.03 52.8902 26.78C52.6902 26.52 52.4802 26.22 52.3402 25.88C52.2202 25.54 52.1702 25.16 52.1202 24.77C52.0302 23.38 52.1902 22 52.5702 20.66C52.9702 19.33 53.6402 18.07 54.5502 16.96C56.3902 14.72 59.1502 13.36 61.9502 13.23C65.2702 13.01 68.8202 14.1 71.2202 16.6C73.8002 19.31 74.9202 23.35 73.8402 26.98C73.1702 29.21 71.7502 31.1 69.9302 32.44C67.1602 34.5 63.5102 35.02 60.2802 34.25C59.0202 33.95 57.8002 33.48 56.6602 32.8C55.5302 32.12 54.4802 31.21 53.7302 30.07L53.2702 29.3C53.1402 29.04 53.0202 28.76 52.9002 28.49C52.1502 26.38 52.5502 25.62 53.1402 25.14C53.2802 25.03 53.4202 24.89 53.5602 24.82C54.0402 24.6 54.5602 25.35 55.1202 26.47C55.5402 27.3 56.0702 28.02 56.6702 28.61C57.2202 29.24 57.8702 29.76 58.6002 30.18C60.0602 31.03 61.8502 31.44 63.6002 31.32C64.9002 31.23 66.1702 30.88 67.3102 30.27C68.4502 29.66 69.4202 28.75 70.1102 27.63L70.1802 27.67H70.2102Z" fill="#231F20"/>
<path d="M107.3 46.2C108.82 43.6 108.79 40.02 107.3 37.13C106.76 36.07 105.97 35.17 105.11 34.4C103.58 33.01 101.55 32.11 99.43 32C97.31 31.87 95.12 32.54 93.4 33.89C91.85 35.05 90.8099 36.86 90.1999 38.73C89.7799 39.93 89.57 41.2 89.51 42.47C89.48 43.75 89.53 44.96 89.54 46.36C89.71 47.18 89.68 47.1 89.19 46.52C89.07 46.37 88.89 46.2 88.68 46C88.39 45.81 88.27 45.53 88.04 45.24C87.83 44.94 87.6 44.6 87.46 44.22C87.32 43.83 87.27 43.42 87.22 42.98C87.1 41.43 87.26 39.88 87.63 38.37C88.03 36.87 88.72 35.43 89.64 34.13C91.53 31.48 94.59 29.75 97.78 29.47C101.57 29.1 105.64 30.47 108.24 33.39C111.05 36.55 112.18 41.03 111.17 45.11C110.55 47.63 109.09 49.88 107.13 51.52C104.14 54.04 99.98 54.87 96.24 53.88C93.38 53.05 90.8 51.34 89.1 48.81C88.76 48.24 88.42 47.68 88.19 47.05C87.31 44.71 87.71 43.83 88.32 43.28C88.47 43.15 88.61 42.99 88.75 42.92C89.24 42.67 89.8099 43.51 90.4499 44.8C90.9299 45.76 91.55 46.62 92.25 47.36C92.89 48.14 93.64 48.82 94.47 49.38C95.3 49.93 96.21 50.39 97.13 50.63C97.99 50.87 99.02 50.94 100.01 50.86C101.47 50.7 102.93 50.27 104.18 49.47C105.45 48.68 106.51 47.54 107.24 46.19L107.31 46.22L107.3 46.2Z" fill="#231F20"/>
<path d="M32.5099 52.37C33.4099 50.35 33.0999 47.69 31.7199 45.66C31.2199 44.92 30.5299 44.34 29.8299 43.83C28.5699 42.93 26.9599 42.44 25.3599 42.55C23.7599 42.65 22.1699 43.34 20.9899 44.52C19.9299 45.54 19.3199 47.01 19.0499 48.5C18.8499 49.45 18.8199 50.44 18.8999 51.41C19.0099 52.38 19.1499 53.29 19.2199 54.4C19.4099 55.02 19.3799 54.97 18.9099 54.6C18.6999 54.4 18.1499 54.2 17.7699 53.77C17.5599 53.56 17.3099 53.33 17.1399 53.05C16.9799 52.76 16.8799 52.44 16.7899 52.1C16.5199 50.89 16.4599 49.65 16.5899 48.41C16.7399 47.18 17.1399 45.97 17.7399 44.83C18.9699 42.52 21.2399 40.84 23.7499 40.31C26.7199 39.65 30.0699 40.28 32.4399 42.32C34.9899 44.53 36.3499 47.94 35.9499 51.28C35.6999 53.34 34.7699 55.24 33.3799 56.73C31.2699 59.02 28.0399 60.03 25.0499 59.68C22.7599 59.42 20.3599 58.48 18.7699 56.56C18.4299 56.14 18.1299 55.71 17.8799 55.23C17.0199 53.43 17.2999 52.71 17.8499 52.2C17.9799 52.08 18.0999 51.94 18.2299 51.86C18.6699 51.6 19.2799 52.19 19.9299 53.09C20.4099 53.76 20.9499 54.33 21.5399 54.78C22.0799 55.27 22.6699 55.65 23.3199 55.93C24.6199 56.51 26.1599 56.67 27.5799 56.36C29.6799 55.9 31.6199 54.49 32.4599 52.34L32.5299 52.36L32.5099 52.37Z" fill="#231F20"/>
<path d="M31.38 83.72C31.85 82.1 31.31 80.09 29.97 78.71C29.48 78.21 28.87 77.86 28.26 77.57C27.16 77.04 25.85 76.87 24.61 77.16C23.36 77.43 22.2 78.16 21.4 79.22C20.69 80.15 20.37 81.36 20.35 82.57C20.31 83.34 20.41 84.12 20.6 84.87C20.81 85.62 21.03 86.3 21.19 87.21C21.42 87.69 21.39 87.66 20.94 87.44C20.74 87.32 20.23 87.26 19.84 86.98C19.63 86.85 19.38 86.7 19.19 86.5C19.01 86.29 18.89 86.04 18.76 85.78C18.37 84.83 18.14 83.83 18.08 82.81C18.04 81.79 18.21 80.75 18.56 79.74C19.3 77.7 20.94 76.06 22.91 75.32C25.23 74.41 28.01 74.41 30.24 75.71C32.64 77.11 34.25 79.7 34.34 82.48C34.39 84.19 33.87 85.85 32.92 87.23C31.49 89.34 29.02 90.55 26.57 90.71C24.69 90.83 22.61 90.48 21.02 89.16C20.68 88.87 20.37 88.57 20.1 88.21C19.13 86.87 19.29 86.23 19.73 85.71C19.83 85.59 19.93 85.45 20.04 85.37C20.41 85.08 21.03 85.44 21.69 86.03C22.17 86.47 22.69 86.81 23.21 87.04C23.69 87.32 24.19 87.51 24.73 87.63C25.8 87.87 26.99 87.78 28.04 87.35C29.59 86.72 30.92 85.46 31.32 83.72H31.39H31.38Z" fill="#231F20"/>
<path d="M58.8599 108.82C59.4599 107.56 59.3199 105.8 58.4399 104.43C58.1199 103.93 57.6699 103.55 57.2199 103.21C56.4099 102.59 55.3599 102.24 54.2999 102.28C53.2399 102.32 52.1699 102.77 51.3699 103.56C50.6499 104.24 50.2499 105.25 50.0799 106.27C49.9499 106.92 49.9299 107.6 49.9799 108.26C50.0499 108.93 50.1199 109.53 50.0699 110.36C50.1699 110.81 50.1499 110.78 49.7799 110.54C49.6199 110.41 49.1499 110.3 48.8299 110.01C48.6499 109.87 48.4399 109.71 48.2999 109.51C48.1699 109.3 48.0899 109.07 48.0199 108.82C47.7999 107.94 47.7399 107.04 47.8099 106.14C47.8999 105.24 48.1899 104.36 48.6199 103.52C49.5099 101.8 51.1899 100.55 53.0499 100.18C55.2399 99.72 57.6999 100.17 59.4199 101.68C61.2699 103.31 62.2199 105.79 61.9399 108.22C61.7599 109.72 61.0899 111.11 60.0899 112.2C58.5699 113.88 56.2099 114.61 54.0399 114.35C52.3799 114.16 50.6099 113.5 49.4399 112.09C49.1899 111.78 48.9699 111.47 48.7899 111.11C48.1799 109.79 48.4399 109.26 48.9699 108.86C49.0999 108.77 49.2099 108.66 49.3399 108.6C49.7499 108.4 50.2999 108.78 50.7899 109.36C51.1499 109.79 51.5499 110.14 51.9499 110.4C52.3099 110.69 52.6799 110.91 53.0899 111.08C53.9099 111.41 54.8499 111.51 55.7299 111.31C57.0099 111.01 58.2399 110.2 58.7999 108.81L58.8699 108.83L58.8599 108.82Z" fill="#231F20"/>
<path d="M94.6099 100.67C95.0699 99.79 95.0099 98.48 94.3899 97.44C94.1599 97.06 93.8299 96.78 93.5099 96.52C92.9399 96.04 92.1799 95.75 91.3899 95.76C90.5999 95.76 89.7999 96.1 89.1899 96.7C88.6499 97.21 88.3499 98 88.2299 98.78C88.1299 99.28 88.1199 99.81 88.1499 100.32C88.1999 100.84 88.2399 101.29 88.0999 101.98C88.1499 102.35 88.1399 102.33 87.8099 102.15C87.6699 102.05 87.2299 102 86.9299 101.77C86.7699 101.66 86.5599 101.54 86.4399 101.38C86.3199 101.21 86.2499 101.02 86.1799 100.82C85.9799 100.1 85.9199 99.36 85.9599 98.62C86.0199 97.88 86.2499 97.15 86.5999 96.44C87.3099 94.99 88.7199 93.92 90.2799 93.62C92.1199 93.25 94.1599 93.62 95.5799 94.9C97.0899 96.28 97.8399 98.3 97.6099 100.29C97.4699 101.53 96.9299 102.67 96.1199 103.58C94.8899 104.99 92.9299 105.6 91.1499 105.37C89.7799 105.22 88.3099 104.67 87.3299 103.5C87.1299 103.24 86.9399 102.98 86.7999 102.69C86.3099 101.59 86.5699 101.15 87.1199 100.8C87.2499 100.72 87.3699 100.63 87.4999 100.57C87.9099 100.39 88.4499 100.68 88.8799 101.09C89.1899 101.4 89.5199 101.64 89.8399 101.79C90.1099 101.98 90.3699 102.12 90.6499 102.22C91.2099 102.42 91.8399 102.48 92.4199 102.35C93.2499 102.14 94.1199 101.64 94.5299 100.65L94.5999 100.67H94.6099Z" fill="#231F20"/>
<path d="M108.74 75.96C109.06 75.43 109.06 74.57 108.65 73.87C108.5 73.62 108.27 73.44 108.06 73.27C107.31 72.6 105.96 72.52 105.09 73.33C104.71 73.66 104.49 74.19 104.4 74.73C104.32 75.07 104.31 75.43 104.33 75.78C104.37 76.13 104.38 76.44 104.25 76.94C104.28 77.2 104.27 77.19 104.02 77.08C103.92 77.02 103.58 76.99 103.35 76.83C103.23 76.76 103.07 76.67 102.97 76.56C102.88 76.44 102.82 76.3 102.78 76.16C102.64 75.64 102.59 75.11 102.62 74.57C102.67 74.03 102.85 73.51 103.12 73.01C103.68 71.98 104.7 71.25 105.82 71.06C107.13 70.82 108.58 71.06 109.61 71.95C110.71 72.92 111.27 74.38 111.08 75.82C110.96 76.71 110.55 77.52 109.95 78.15C109.04 79.13 107.66 79.52 106.39 79.38C105.43 79.28 104.35 78.95 103.62 78.11C103.47 77.93 103.33 77.74 103.23 77.53C102.86 76.74 103.07 76.41 103.51 76.15C103.61 76.09 103.71 76.02 103.81 75.98C104.14 75.85 104.55 76.04 104.87 76.3C105.1 76.5 105.34 76.63 105.55 76.71C105.73 76.82 105.91 76.89 106.09 76.94C106.46 77.05 106.87 77.08 107.26 76.99C107.81 76.85 108.38 76.57 108.67 75.94L108.72 75.96H108.74Z" fill="#231F20"/>
</svg>
