<svg width="128" height="128" viewBox="0 0 128 128" fill="none" xmlns="http://www.w3.org/2000/svg">
<path d="M102.45 16.48C102.457 16.337 102.494 16.1971 102.557 16.0686C102.62 15.9401 102.708 15.8257 102.816 15.7322C102.925 15.6388 103.051 15.5683 103.187 15.5249C103.324 15.4816 103.468 15.4663 103.61 15.48C106.52 15.79 102.16 19.54 102.45 16.48Z" stroke="#231F20" stroke-miterlimit="10"/>
<path d="M118.28 25.71C118.29 25.5672 118.329 25.4277 118.393 25.2998C118.458 25.1719 118.547 25.0581 118.656 24.9651C118.765 24.872 118.891 24.8015 119.027 24.7577C119.164 24.714 119.307 24.6977 119.45 24.71C122.36 25 118 28.76 118.28 25.71Z" stroke="#231F20" stroke-miterlimit="10"/>
<path d="M114 56.81C114.008 56.6676 114.046 56.5283 114.109 56.4005C114.173 56.2726 114.261 56.1588 114.369 56.0656C114.477 55.9724 114.603 55.9018 114.739 55.8579C114.874 55.814 115.018 55.7977 115.16 55.81C118.11 56.12 113.75 59.87 114 56.81Z" stroke="#231F20" stroke-miterlimit="10"/>
<path d="M13.1401 86.93C13.3501 86.64 13.5501 86.35 13.7101 86.08C13.7853 85.9649 13.8521 85.8446 13.9101 85.72V85.63C14.063 85.6771 14.2206 85.7073 14.3801 85.72C14.443 85.7299 14.5071 85.7299 14.5701 85.72H14.7201C14.7201 85.72 14.5701 85.72 14.6501 85.72C14.8701 85.72 14.9901 85.54 14.9001 85.72C14.8357 85.9692 14.8357 86.2307 14.9001 86.48C14.9023 86.5233 14.9023 86.5667 14.9001 86.61V86.69L14.7401 86.75C14.4422 86.8953 14.1519 87.0555 13.8701 87.23L13.4201 87.52L12.7901 87.95L11.2001 89.1C10.6998 89.4632 10.179 89.7971 9.64009 90.1C9.28429 90.2901 8.89883 90.4186 8.50009 90.48H7.89009C7.74356 90.4751 7.5986 90.4481 7.46009 90.4C7.25132 90.3156 7.0685 90.1776 6.93009 90C6.74441 89.7018 6.67003 89.3476 6.72009 89C6.78362 88.5098 6.93612 88.0354 7.17009 87.6C7.53026 86.943 7.94505 86.3174 8.41009 85.73L9.87009 83.9L10.7801 82.77C11.3722 82.0391 11.9167 81.2708 12.4101 80.47C12.8843 79.8001 13.174 79.0172 13.2501 78.2C13.2422 78.0508 13.2048 77.9046 13.1401 77.77L13.0001 77.3L13.6601 77.4C13.67 77.403 13.6804 77.4038 13.6907 77.4023C13.7009 77.4007 13.7107 77.397 13.7193 77.3912C13.7279 77.3855 13.7351 77.3779 13.7404 77.3691C13.7458 77.3602 13.7491 77.3503 13.7501 77.34C13.7501 77.34 13.7501 77.42 13.7501 77.43C13.7501 77.61 13.9801 77.79 14.0801 77.92L14.0001 78C13.9101 78.11 13.8101 78.26 13.7101 78.4L13.1001 79.3C12.6901 79.92 12.2801 80.55 11.8301 81.16C11.151 82.1467 10.3247 83.0235 9.38009 83.76C8.82621 84.1728 8.1816 84.4471 7.50009 84.56C6.76154 84.668 6.00922 84.4969 5.39009 84.08C4.68009 83.53 5.25009 83.23 5.95009 83.08C6.30531 82.9796 6.6427 82.8244 6.95009 82.62C7.20903 82.3993 7.47941 82.1923 7.76009 82C8.70679 81.3273 9.52908 80.4949 10.1901 79.54C10.5801 79.04 10.9501 78.54 11.3401 77.95L11.9501 77.1L12.3401 76.6C12.4496 76.4795 12.5665 76.3659 12.6901 76.26C12.7877 76.1962 12.8915 76.1425 13.0001 76.1L13.1401 76.03H13.2201C13.2936 75.9994 13.371 75.9792 13.4501 75.97C13.7883 75.8932 14.1428 75.9392 14.4501 76.1C14.7385 76.2531 14.9699 76.4951 15.1101 76.79L15.0001 76.6C15.3788 77.2741 15.5063 78.0607 15.3601 78.82C15.2544 79.3865 15.0693 79.9352 14.8101 80.45C14.3532 81.3281 13.8106 82.1588 13.1901 82.93L11.0901 85.55C10.9501 85.73 10.8201 85.9 10.6901 86.09C10.5413 86.2763 10.4508 86.5024 10.4301 86.74C10.4301 86.9 10.6301 86.86 10.7301 86.81C11.1267 86.5955 11.5107 86.3585 11.8801 86.1L12.4801 85.72C12.7601 85.53 13.0601 85.34 13.3701 85.16C13.7156 84.9568 14.0808 84.7893 14.4601 84.66C14.6081 84.6233 14.7585 84.5965 14.9101 84.58C15.0297 84.5658 15.1505 84.5658 15.2701 84.58C15.4405 84.6272 15.5978 84.7127 15.7301 84.83C15.8371 84.9304 15.9231 85.051 15.9832 85.1849C16.0433 85.3188 16.0762 85.4633 16.0801 85.61C16.0851 85.7754 16.0649 85.9406 16.0201 86.1C15.8433 86.629 15.587 87.128 15.2601 87.58C14.9801 88 14.7001 88.39 14.4101 88.77C13.8501 89.52 13.2401 90.31 12.7501 91C12.5901 91.22 12.4301 91.46 12.2801 91.71C12.1301 91.96 11.9401 92.24 12.0501 92.53C12.1169 92.6355 12.213 92.7191 12.3267 92.7707C12.4405 92.8222 12.5668 92.8393 12.6901 92.82C12.9326 92.7646 13.1609 92.659 13.3601 92.51C13.5678 92.3641 13.765 92.2037 13.9501 92.03L15.0001 91C15.5113 90.4992 16.1356 90.1287 16.8201 89.92C16.9696 89.8644 17.1301 89.8454 17.2884 89.8646C17.4467 89.8837 17.5982 89.9404 17.7301 90.03C17.9282 90.2436 18.0662 90.5058 18.1301 90.79C18.2079 91.1175 18.2448 91.4534 18.2401 91.79C18.2401 92.18 18.1901 92.66 18.2401 92.99C18.2365 93.1448 18.2673 93.2985 18.3301 93.44C18.3758 93.539 18.4532 93.6199 18.5501 93.67C18.7501 93.73 18.8301 93.67 19.2101 93.61C19.9101 93.44 20.4401 93.22 20.8401 93.16C21.1815 93.0805 21.5405 93.1379 21.8401 93.32C21.9811 93.3824 22.1152 93.4595 22.2401 93.55C22.5901 93.85 22.1501 94.55 20.8601 95.2C20.3326 95.475 19.766 95.6672 19.1801 95.77C18.7517 95.8595 18.3075 95.8385 17.8894 95.7091C17.4713 95.5796 17.093 95.3459 16.7901 95.03C16.495 94.6762 16.2953 94.2528 16.2101 93.8C16.1601 93.55 16.1401 93.36 16.1201 93.19V92.95C16.1201 92.95 16.1201 92.89 16.0701 92.88C16.0201 92.87 15.9701 92.95 15.9801 92.96L15.8501 93.09L15.5701 93.37L15.1501 93.76C14.467 94.4068 13.6657 94.9161 12.7901 95.26C12.2713 95.4142 11.7189 95.4142 11.2001 95.26C10.6664 95.0874 10.1918 94.7687 9.83009 94.34C9.61878 94.0444 9.48472 93.7006 9.44009 93.34C9.40122 92.9461 9.45605 92.5486 9.60009 92.18C9.77351 91.6956 10.0017 91.2326 10.2801 90.8C10.4301 90.56 10.5701 90.32 10.7301 90.09L11.1301 89.52C11.8101 88.52 12.5201 87.66 13.1301 86.77L13.1401 86.93Z" fill="#221F1F"/>
<path d="M46.28 115.47C43.746 116.495 40.9966 116.873 38.28 116.57C37.2972 116.479 36.3259 116.292 35.38 116.01C34.98 115.86 34.57 115.73 34.18 115.55L33.59 115.29L32.95 114.94C32.2132 114.471 31.5234 113.932 30.89 113.33C29.7186 112.202 28.6103 111.01 27.57 109.76C26.65 108.68 25.71 107.62 24.78 106.57C23.5222 105.299 22.3903 103.909 21.4 102.42C20.81 101.42 23.71 100.86 25.04 102.42C27.38 105.2 29.56 108.06 31.86 110.73C32.5237 111.514 33.3066 112.189 34.18 112.73C34.6155 112.96 35.0706 113.151 35.54 113.3C36.03 113.47 36.54 113.61 37.02 113.73C39.2508 114.262 41.5825 114.196 43.78 113.54C45.1405 113.171 46.4334 112.587 47.61 111.81C47.9854 111.55 48.2967 111.208 48.52 110.81L48.69 110.52C48.7291 110.42 48.7593 110.316 48.78 110.21L48.87 109.9V109.58C48.7952 108.613 48.389 107.702 47.72 107C46.5207 105.77 45.1777 104.689 43.72 103.78C43.41 103.56 43.07 103.35 42.72 103.11C41.55 102.19 41.28 101.59 41.61 100.89C41.6737 100.726 41.7541 100.568 41.85 100.42C41.9432 100.318 42.0611 100.241 42.1924 100.197C42.3237 100.154 42.464 100.144 42.6 100.17C42.9856 100.239 43.3511 100.393 43.67 100.62C45.0549 101.466 46.3904 102.391 47.67 103.39C48.3905 103.968 49.0597 104.607 49.67 105.3C50.3831 106.092 50.9275 107.021 51.27 108.03C51.4169 108.472 51.4978 108.934 51.51 109.4C51.51 109.64 51.51 109.89 51.51 110.13C51.4754 110.37 51.4253 110.607 51.36 110.84C51.3033 111.077 51.2332 111.311 51.15 111.54L50.83 112.14C50.6258 112.54 50.3629 112.908 50.05 113.23C48.9737 114.274 47.6842 115.072 46.27 115.57L46.28 115.47Z" fill="#221F1F"/>
<path d="M25.0999 97.76L17.1899 98.66L16.1899 98.77L15.5699 98.83C15.3407 98.8566 15.1091 98.8566 14.8799 98.83C14.1448 98.7578 13.4161 98.6307 12.6999 98.45C11.9671 98.2791 11.2535 98.0345 10.5699 97.72C10.2272 97.5729 9.89326 97.4059 9.56989 97.22L8.56989 96.61C7.3198 95.7327 6.2616 94.6099 5.45989 93.31C4.66075 92.0479 4.09508 90.6524 3.78989 89.19C3.45116 87.7597 3.3398 86.285 3.45989 84.82C3.48189 84.4473 3.52866 84.0765 3.59989 83.71C3.64384 83.3373 3.72081 82.9692 3.82989 82.61C3.91455 82.2339 4.03165 81.8659 4.17989 81.51L4.48989 80.74C4.68871 80.5313 4.90262 80.3374 5.12989 80.16C8.04989 77.67 10.8799 75.06 13.7299 72.47C23.8099 63.3 33.6599 53.9 43.5799 44.57L56.7199 32.09C62.3299 26.82 67.8999 21.4 74.2299 16.86C76.2299 15.45 76.3399 16.22 75.1499 17.98C74.3208 19.1366 73.4225 20.242 72.4599 21.29C71.8699 21.94 71.2199 22.62 70.4599 23.29C69.6999 23.96 68.9999 24.75 68.1999 25.48C56.5199 35.88 45.1999 46.82 33.5199 57.48C26.5199 63.88 19.5199 70.81 12.2399 77.3C11.2399 78.19 10.2399 79.09 9.23989 79.96L7.69989 81.31L6.93989 82L6.72989 82.18C6.67989 82.18 6.67989 82.28 6.64989 82.34C6.23387 83.4295 6.01381 84.5839 5.99989 85.75C5.99826 86.9681 6.16998 88.1803 6.50989 89.35C6.85935 90.5022 7.40023 91.5874 8.10989 92.56C8.84255 93.4977 9.74908 94.2854 10.7799 94.88C11.3074 95.1671 11.8556 95.4144 12.4199 95.62L13.2999 95.86C13.5913 95.9586 13.8934 96.0224 14.1999 96.05L15.1199 96.18C15.2699 96.18 15.4299 96.18 15.4799 96.18H15.8999L17.8999 95.96C24.4199 95.22 30.9299 94.4167 37.4299 93.55C47.2699 92.23 57.1499 90.83 66.8599 89.1C74.3899 87.75 81.7399 86.17 89.0299 84.25C90.6299 83.82 92.1799 83.35 93.7699 82.87C96.7099 81.98 98.5899 81.3 99.8899 80.87C100.777 80.5195 101.694 80.2517 102.63 80.07C102.78 80.07 102.96 79.98 103.13 79.93C103.273 79.8683 103.42 79.8148 103.57 79.77C103.78 79.77 103.87 79.83 103.8 80.11C103.652 80.5674 103.386 80.9778 103.03 81.3C101.635 82.4914 100.026 83.4076 98.2899 84C95.0232 85.2564 91.6838 86.3149 88.2899 87.17C84.9999 88.08 81.5099 88.87 77.9999 89.6C71.0599 91.05 63.9999 92.28 56.8799 93.41C46.3199 95.08 35.6999 96.5 25.0799 97.82L25.0999 97.76Z" fill="#221F1F"/>
<path d="M26.1399 95.7901C23.6887 94.8399 21.4665 93.3812 19.6199 91.5101C17.7161 89.6133 16.2873 87.2937 15.4499 84.74C14.6156 82.1587 14.4201 79.4136 14.8799 76.74C15.3101 74.0862 16.2912 71.5519 17.7599 69.3001C18.1999 68.5401 20.0299 69.72 19.6799 70.42L18.8399 72.0001C18.6199 72.5601 18.4099 73.13 18.1499 73.67C17.8899 74.21 17.7699 74.8101 17.5599 75.3701C17.3674 75.9368 17.2235 76.5189 17.1299 77.1101C16.6477 79.4485 16.7024 81.8658 17.2899 84.1801C17.9325 86.5151 19.0986 88.6731 20.6999 90.49C22.3452 92.3376 24.2888 93.8959 26.4499 95.1C27.3799 95.7001 27.2199 96.1601 26.1399 95.7901Z" fill="#221F1F"/>
<path d="M92.2097 26.84C90.2776 24.0629 87.9146 21.612 85.2097 19.58C84.5814 19.1363 83.9116 18.7545 83.2097 18.44C82.6556 18.2002 82.0519 18.0973 81.4497 18.14C81.285 18.1609 81.1329 18.2387 81.0197 18.36C80.9197 18.36 80.7197 18.83 80.5597 19.11C80.3756 19.4219 80.2375 19.7587 80.1497 20.11C80.0897 20.29 80.0197 20.46 79.9697 20.64L79.8797 21.23C79.5842 23.6476 79.7162 26.0982 80.2697 28.47C80.6667 30.6806 81.2113 32.8622 81.8997 35C82.5797 37.14 83.3897 39.26 84.2497 41.36C85.9949 45.5609 87.9542 49.6696 90.1197 53.67C92.0397 57.23 94.1197 60.67 96.4097 64.03C97.8497 66.16 99.4097 68.24 100.95 70.27C101.73 71.27 102.53 72.27 103.35 73.27C104.123 74.224 104.965 75.1198 105.87 75.95C106.059 76.1068 106.23 76.2846 106.38 76.48C106.413 76.5432 106.43 76.6136 106.43 76.685C106.43 76.7565 106.413 76.8268 106.38 76.89C106.334 76.9652 106.271 77.0287 106.196 77.0756C106.122 77.1224 106.037 77.1513 105.95 77.16C105.622 77.2447 105.278 77.2447 104.95 77.16C102.605 76.381 100.568 74.8791 99.1297 72.87C95.8408 68.6117 92.8503 64.131 90.1797 59.46C87.5077 54.7929 85.1298 49.9635 83.0597 45C81.8197 42 80.5697 39 79.4997 35.81C78.3584 32.6357 77.567 29.3462 77.1397 26C76.9161 24.0839 76.9869 22.1448 77.3497 20.25C77.4597 19.76 77.6497 19.25 77.7997 18.8C77.9815 18.3161 78.2092 17.8506 78.4797 17.41C78.5497 17.29 78.5997 17.18 78.6797 17.06L79.0097 16.68C79.1187 16.5528 79.2356 16.4326 79.3597 16.32L79.7897 16.05C80.3456 15.7288 80.9777 15.563 81.6197 15.57C82.6889 15.585 83.74 15.8486 84.6897 16.34C85.5643 16.7599 86.3951 17.2658 87.1697 17.85C88.6632 18.9686 90.0432 20.2314 91.2897 21.62C94.3015 24.9672 96.8909 28.6716 98.9997 32.65C102.148 38.6409 104.581 44.9811 106.25 51.54C107.603 56.5203 108.606 61.5894 109.25 66.71C109.37 67.84 109.53 68.95 109.63 70.09C109.763 71.6071 109.763 73.133 109.63 74.65C109.573 75.3756 109.309 76.0696 108.87 76.65C108.71 76.85 108.56 77.11 108.43 77.27C108.3 77.43 107.83 77.16 107.65 76.35C107.548 75.8617 107.478 75.3674 107.44 74.87C107.44 74.29 107.31 73.71 107.22 72.87C106.445 63.5749 104.572 54.4043 101.64 45.55C99.4356 38.8839 96.2361 32.5894 92.1497 26.88L92.2097 26.84Z" fill="#221F1F"/>
<path d="M83.1297 39.3C89.5197 33.35 98.0697 49.86 93.3897 58.05C91.8197 60.8 80.9297 41.35 83.1297 39.3Z" fill="#221F1F"/>
<path d="M108 24.06C107.89 24.33 107.59 24.34 107.18 24.22C107.04 24.22 106.79 23.91 106.8 23.82C106.828 23.6442 106.869 23.4705 106.92 23.3C106.92 23.21 107.86 22.01 108.15 21.59C108.453 21.1903 108.787 20.8158 109.15 20.47C109.85 19.77 110.56 19.06 111.28 18.37C111.44 18.2139 111.614 18.0733 111.8 17.95C112.433 17.5217 113.022 17.0327 113.56 16.49C113.661 16.4125 113.743 16.3134 113.8 16.2C114.359 15.5658 114.99 14.9987 115.68 14.51C116.28 14.19 116.84 13.84 117.42 13.51C117.5 13.46 117.56 13.38 117.68 13.38C117.897 13.3704 118.104 13.2814 118.26 13.13C118.498 12.9719 118.749 12.8347 119.01 12.72C119.158 12.6761 119.308 12.6427 119.46 12.62C119.6 12.62 119.66 12.77 119.64 12.82C119.62 12.87 119.73 12.96 119.79 13.01C119.795 13.0331 119.795 13.0569 119.79 13.08C119.503 13.6438 119.168 14.1824 118.79 14.69C118.79 14.69 118.35 15.13 117.9 15.57C117.45 16.01 116.98 16.48 116.9 16.57C116.792 16.6637 116.671 16.7411 116.54 16.8C116.48 16.8 115.16 18.17 115.1 18.21C114.829 18.4923 114.511 18.7257 114.16 18.9C114.1 18.9211 114.045 18.9552 114 19C113.53 19.46 113 19.87 112.48 20.29C112.22 20.51 111.98 20.76 111.74 21L111.58 21.1C111.512 21.1351 111.448 21.1788 111.39 21.23C110.82 21.81 110.18 22.31 109.64 22.92C109.52 23.06 108.75 23.56 108.64 23.73C108.53 23.9 108.06 24 108 24.06Z" fill="#221F1F"/>
<path d="M113.43 49.85C113.29 49.93 113.2 49.77 113.08 49.46C113.045 49.3154 113.045 49.1645 113.08 49.02C113.162 48.9409 113.249 48.8674 113.34 48.8C113.4 48.8 114.23 48.64 114.5 48.59C114.766 48.56 115.034 48.56 115.3 48.59L116.88 48.7C116.998 48.7147 117.113 48.7485 117.22 48.8C117.589 48.9543 117.981 49.0456 118.38 49.07C118.449 49.0892 118.521 49.0892 118.59 49.07C119.033 49.0504 119.475 49.1045 119.9 49.23C120.224 49.4154 120.558 49.5823 120.9 49.73C120.9 49.73 121 49.73 121.03 49.82C121.06 49.91 121.21 49.99 121.31 50.03C121.461 50.0789 121.6 50.157 121.72 50.26C121.79 50.3244 121.851 50.3985 121.9 50.48C121.96 50.54 121.9 50.67 121.9 50.68C121.9 50.69 121.9 50.8 121.9 50.86C121.905 50.8831 121.905 50.9069 121.9 50.93C121.742 51.0108 121.578 51.081 121.41 51.14C121.236 51.2086 121.055 51.2589 120.87 51.29H119.45C119.376 51.2872 119.306 51.259 119.25 51.21C119.25 51.21 118.25 51.21 118.18 51.15C117.98 51.1 117.77 51.15 117.59 50.95C117.573 50.9426 117.554 50.9387 117.535 50.9387C117.516 50.9387 117.497 50.9426 117.48 50.95C117.139 50.8992 116.805 50.8154 116.48 50.7C116.305 50.6595 116.128 50.6294 115.95 50.61L115.86 50.56H115.75C115.341 50.469 114.927 50.4022 114.51 50.36C114.41 50.36 113.97 50.16 113.87 50.17C113.77 50.18 113.48 49.82 113.43 49.85Z" fill="#221F1F"/>
<path d="M107.94 37.61C107.898 37.654 107.846 37.687 107.788 37.7062C107.731 37.7254 107.67 37.7301 107.61 37.72C107.464 37.6817 107.324 37.6281 107.19 37.56C107.08 37.51 106.88 37.28 106.94 37.19C107.038 37.0232 107.155 36.8688 107.29 36.73C107.37 36.63 108.71 35.9 109.16 35.66C109.59 35.4256 110.038 35.225 110.5 35.06C111.43 34.7 112.36 34.35 113.29 34.06C113.498 33.988 113.712 33.9344 113.93 33.9C114.675 33.7638 115.405 33.5562 116.11 33.28C116.232 33.2486 116.347 33.1944 116.45 33.12C117.216 32.7844 118.009 32.5135 118.82 32.31C119.48 32.23 120.12 32.1 120.82 32.01C120.913 31.9747 121.016 31.9747 121.11 32.01C121.31 32.0852 121.53 32.0852 121.73 32.01C122.006 31.9457 122.287 31.9022 122.57 31.88C122.722 31.8795 122.874 31.9031 123.02 31.95C123.16 31.95 123.16 32.23 123.12 32.27C123.08 32.31 123.12 32.46 123.19 32.55C123.192 32.5833 123.192 32.6167 123.19 32.65C122.69 33.0236 122.161 33.3579 121.61 33.65L119.11 34.56C118.974 34.6067 118.833 34.6337 118.69 34.64C118.63 34.64 116.87 35.32 116.8 35.33C116.432 35.4743 116.044 35.5587 115.65 35.58C115.574 35.5861 115.5 35.6029 115.43 35.63C114.79 35.85 114.14 36 113.49 36.17C113.16 36.26 112.85 36.38 112.49 36.48C112.426 36.4856 112.363 36.4856 112.3 36.48H112.07C111.31 36.73 110.52 36.91 109.78 37.23C109.61 37.3 108.78 37.44 108.54 37.54C108.3 37.64 108 37.54 107.94 37.61Z" fill="#221F1F"/>
</svg>
