<svg width="128" height="128" viewBox="0 0 128 128" fill="none" xmlns="http://www.w3.org/2000/svg">
<path d="M88.2898 103.11C88.2298 102.74 88.1598 102.37 88.0998 102C88.0798 101.87 88.0098 101.75 87.9898 101.61C87.9198 101.13 87.9898 100.62 87.9698 100.15C87.9698 99.9401 87.9198 99.73 87.8998 99.52C87.8898 99.25 87.8798 98.98 87.9898 98.7C88.0198 98.61 88.1498 98.6101 88.3098 98.6601C88.4698 98.7101 88.7098 98.8001 88.8098 98.9301C89.2098 99.3801 89.2798 99.8501 89.3098 100.37C89.3098 100.68 89.4998 100.96 89.5498 101.27C89.6198 101.61 89.6998 101.95 89.7698 102.29C89.8198 102.5 89.8698 102.71 89.9298 102.92C90.0098 103.24 90.0598 103.57 90.1898 103.87C90.2898 104.1 90.4498 104.3 90.5698 104.52C90.5998 104.57 90.6298 104.61 90.6498 104.66C90.7298 104.85 90.6798 104.95 90.4498 105.11L90.2898 105.22C90.1098 105.33 89.9098 105.34 89.7498 105.24C89.3098 104.94 88.9198 104.56 88.6698 104.13C88.5698 103.97 88.4798 103.81 88.3898 103.64C88.3198 103.47 88.2798 103.28 88.2298 103.1L88.2698 103.08L88.2898 103.11Z" fill="#231F20"/>
<path d="M90.2398 103.43C90.6298 104.19 91.0298 104.96 91.4198 105.72C91.5598 106 91.7598 106.24 91.8898 106.53C92.3698 107.53 92.8198 108.54 93.3298 109.51C93.5498 109.95 93.8498 110.34 94.0998 110.75C94.4298 111.28 94.8598 111.74 94.9398 112.43C94.9698 112.64 94.7198 112.77 94.3398 112.82C93.9798 112.85 93.3498 112.9 93.1198 112.62C92.1898 111.71 91.5198 110.64 91.0098 109.44C90.7098 108.72 90.1598 108.13 89.7398 107.47C89.2698 106.75 88.8598 105.99 88.4298 105.24L87.6398 103.86C87.2198 103.17 86.8398 102.47 86.3598 101.83C85.9898 101.33 85.4898 100.93 85.0898 100.47C84.9998 100.37 84.8898 100.28 84.8098 100.17C84.5098 99.76 84.5698 99.54 85.0498 99.1C85.1598 99 85.2698 98.89 85.3798 98.8C85.7698 98.49 86.2298 98.44 86.5798 98.65C87.0798 98.98 87.5498 99.35 87.9298 99.78C88.2998 100.22 88.6298 100.69 88.9498 101.18C89.4198 101.9 89.8398 102.66 90.2798 103.4L90.2298 103.43H90.2398Z" fill="#231F20"/>
<path d="M19.6401 44.37C20.6601 46.11 21.8101 47.86 23.1501 49.18C23.2701 49.31 23.3901 49.37 23.5101 49.47C23.6301 49.57 23.7601 49.66 23.8301 49.67C23.9401 49.77 24.2601 49.79 24.5701 49.83C25.7301 49.92 27.0901 49.85 28.3901 49.72C29.7101 49.59 31.0301 49.4 32.3501 49.16C33.5201 48.95 34.6801 48.64 35.8201 48.37C37.3001 48.01 38.7001 47.46 40.2801 47.4C40.7801 47.4 40.7001 47.35 40.3801 47.64C40.0701 47.96 39.5201 48.66 38.7001 49.05C37.2201 49.62 35.7401 50.19 34.2001 50.56C32.6601 50.93 31.1001 51.23 29.5101 51.41C28.5401 51.53 27.5701 51.64 26.5901 51.76C26.1001 51.83 25.5801 51.84 25.0601 51.85L24.2501 51.82C23.9501 51.76 23.6701 51.75 23.3601 51.63C23.0001 51.48 22.6201 51.3 22.4201 51.11C22.1801 50.92 21.9101 50.73 21.7301 50.52C21.3101 50.12 20.9401 49.69 20.6001 49.26C19.9001 48.4 19.3001 47.5 18.7101 46.6C18.0101 45.47 17.3501 44.32 16.7501 43.15C15.8201 41.38 15.0301 39.54 14.3201 37.69C13.7501 36.26 13.1801 34.84 12.7701 33.34C12.7001 33.01 12.6201 32.68 12.5601 32.34C12.3801 31.07 12.5601 30.63 12.9101 30.34C13.0001 30.27 13.0801 30.19 13.1601 30.15C13.4401 30.02 13.7701 30.49 14.0401 31.33C14.4701 32.57 14.9001 33.82 15.3401 35.08C15.8101 36.34 16.2901 37.62 16.8601 38.88C17.6901 40.75 18.6101 42.6 19.6801 44.35L19.6401 44.38V44.37Z" fill="#231F20"/>
<path d="M89.1701 27.26C89.1201 28.09 88.9501 28.95 88.5501 29.73C88.4101 30.01 88.2701 30.3 88.0501 30.54C87.6801 30.97 87.2401 31.25 86.8501 31.5C86.4501 31.75 86.0501 31.99 85.6401 32.22C85.2801 32.42 84.9401 32.65 84.5701 32.83C84.1001 33.06 83.6101 33.26 83.1001 33.39C82.9401 33.43 82.9501 33.39 83.0501 33.28C83.1501 33.17 83.3101 32.94 83.5301 32.74C84.2901 31.98 85.1201 31.43 85.9501 30.84C86.4701 30.48 86.8701 30.03 87.0801 29.58C87.3401 29.08 87.4401 28.47 87.4301 27.84C87.4101 27.45 87.3901 27.05 87.3301 26.65C87.2301 26.04 87.0701 25.4 86.8601 24.78C86.7101 24.29 86.4601 23.82 86.3101 23.3C86.2801 23.18 86.2401 23.07 86.2301 22.95C86.1801 22.5 86.2901 22.33 86.6301 22.21C86.7101 22.18 86.7801 22.15 86.8601 22.13C87.1201 22.07 87.3601 22.22 87.5201 22.47C87.7701 22.85 88.0101 23.21 88.2101 23.61C88.4201 24.01 88.6501 24.42 88.7801 24.91C88.9901 25.6 89.1901 26.41 89.2201 27.25H89.1801L89.1701 27.26Z" fill="#231F20"/>
<path d="M113.05 108.24L107.49 97.08C107.49 97.08 89.9699 104.3 88.0799 107.64C86.1899 110.98 86.1899 111.98 87.0499 113.67C87.9099 115.36 91.6199 121.28 91.9199 121.74C92.2199 122.2 93.2299 115.71 96.9399 116.4C99.8499 116.94 105.61 117.95 106.26 114.71C107.11 110.47 111.45 108.52 112.53 109.22C113.61 109.92 113.06 108.25 113.06 108.25L113.05 108.24Z" fill="#231F20"/>
<path d="M101.12 73.96C101.93 77.14 102.81 80.33 103.78 83.49C104.13 84.64 104.57 85.77 104.94 86.91C106.22 90.96 107.62 94.97 109.18 98.92C109.87 100.68 110.68 102.39 111.51 104.05C112.63 106.17 113.78 108.25 114.79 110.46C115.05 111.19 115.05 111.07 114.52 110.67C113.95 110.3 112.86 109.58 112.03 108.42C111.66 107.91 111.23 107.43 110.92 106.88L109.97 105.26C109.32 104.18 108.78 103.06 108.2 101.95C107.65 100.83 107.13 99.69 106.62 98.55C106.13 97.4 105.7 96.22 105.28 95.04C104.3 92.21 103.06 89.35 102.03 86.47C100.92 83.3 99.8899 80.1 98.9199 76.88C98.3199 74.89 97.7999 72.91 97.3099 70.84C96.6599 67.93 95.5099 65.05 93.8099 62.59C92.5099 60.68 90.8099 59.09 88.9599 58.11C88.5599 57.88 88.1299 57.78 87.7299 57.61C86.2099 57.14 85.7899 57.17 85.2999 56.38C85.1899 56.21 85.0399 56.05 84.9499 55.89C84.7999 55.61 84.9099 55.34 85.2899 55.07C85.4799 54.93 85.7499 54.81 86.0799 54.71C86.4099 54.66 86.7999 54.64 87.2499 54.65C88.5299 54.77 89.8299 55.17 90.8999 55.82C92.0199 56.43 92.9699 57.24 93.8599 58.09C95.5799 59.85 96.9199 61.89 98.0099 64.04C98.7999 65.65 99.4499 67.33 99.9199 69.1L100.52 71.54C100.72 72.33 100.94 73.13 101.17 73.92L101.1 73.94L101.12 73.96Z" fill="#231F20"/>
<path d="M86.1198 55.6L86.6498 56.23L87.1098 56.89C87.4298 57.32 87.6898 57.77 87.9498 58.23C88.1498 58.56 88.3598 58.86 88.5298 59.2C89.0998 60.4 89.5598 61.62 90.0098 62.81C90.2298 63.34 90.4398 63.86 90.6598 64.38C90.9398 65.04 91.2398 65.69 91.3498 66.42C91.3798 66.65 91.1098 66.74 90.7498 66.69C90.3898 66.64 89.9098 66.48 89.6698 66.14C89.2498 65.54 88.8398 64.93 88.4798 64.32C88.1798 63.67 87.9198 63.01 87.6898 62.33C87.4198 61.51 86.8598 60.81 86.4098 60.09C85.9098 59.29 85.3998 58.52 84.8198 57.79C84.4498 57.37 84.0898 56.92 83.6498 56.58C83.0198 56.01 82.2998 55.57 81.5298 55.31C81.2198 55.25 80.8998 55.23 80.5998 55.22C80.2898 55.25 79.9898 55.3 79.6898 55.32C79.5598 55.32 79.4298 55.38 79.2998 55.4C78.8198 55.48 78.6498 55.32 78.4098 54.7C78.3598 54.56 78.2898 54.42 78.2498 54.28C78.0998 53.81 78.2698 53.37 78.7398 53.15C79.4298 52.79 80.2498 52.68 81.0698 52.7C81.4698 52.76 81.8798 52.84 82.2898 52.94C82.6798 53.07 83.0498 53.25 83.4298 53.41C84.4998 53.97 85.4098 54.74 86.1598 55.56L86.1198 55.6Z" fill="#231F20"/>
<path d="M77.23 52.3C78.17 53.09 78.9 54.01 79.6 54.9C79.86 55.23 80.13 55.53 80.37 55.87C81.14 57.11 81.74 58.4 82.33 59.67C82.6 60.23 82.91 60.77 83.18 61.31C83.52 62.02 83.97 62.67 84.04 63.5C84.07 63.76 83.85 63.83 83.47 63.79C83.1 63.75 82.5 63.64 82.25 63.27C81.78 62.64 81.27 62.03 80.88 61.37C80.49 60.71 80.14 60.02 79.8 59.32C79.42 58.47 78.72 57.79 78.17 57.06C77.56 56.24 76.89 55.49 76.18 54.8C75.72 54.41 75.26 54 74.74 53.7C74.37 53.43 73.94 53.28 73.53 53.07C73.11 52.91 72.67 52.8 72.23 52.73C71.88 52.72 71.54 52.74 71.21 52.79C70.87 52.9 70.55 52.98 70.23 53.05C70.09 53.07 69.96 53.16 69.81 53.2C69.28 53.34 69.08 53.2 68.75 52.54C68.68 52.39 68.59 52.25 68.53 52.1C68.31 51.6 68.44 51.1 68.92 50.81C69.6 50.35 70.44 50.09 71.31 50C71.75 50 72.19 50.02 72.63 50.06C73.07 50.11 73.5 50.25 73.93 50.36C74.56 50.54 75.14 50.85 75.71 51.15C76.24 51.5 76.8 51.82 77.25 52.23L77.21 52.28L77.23 52.3Z" fill="#231F20"/>
<path d="M32.2501 40.5C31.9601 38.57 31.4901 36.67 31.1801 34.74C30.9901 33.57 30.8401 32.43 30.7701 31.24C30.7401 30.69 30.7201 30.13 30.7301 29.57C30.7401 29.01 30.7801 28.47 30.8501 28.15C30.8901 27.93 30.9401 27.72 31.0001 27.51C31.0201 27.43 31.0501 27.35 31.0801 27.27C31.2001 26.9 30.9501 27.49 31.1201 27.16C31.2001 26.99 31.2901 26.83 31.4001 26.68C31.1901 26.96 31.6801 26.4 31.4601 26.63C31.5101 26.58 31.6101 26.53 31.6801 26.5C31.3301 26.65 31.6301 26.53 31.6401 26.52C31.6401 26.52 32.1201 26.34 31.6401 26.5C31.6401 26.5 31.8101 26.48 31.8301 26.5C32.0101 26.65 31.5901 26.45 31.8501 26.5C31.9101 26.51 31.9801 26.53 32.0501 26.56C32.3801 26.69 31.7901 26.42 32.1201 26.59C32.2201 26.64 32.3301 26.7 32.4301 26.76C32.5101 26.81 32.9301 27.1 32.7801 26.99C32.9701 27.13 33.1401 27.3 33.3201 27.46C33.7501 27.86 34.1501 28.29 34.5301 28.73C35.3301 29.65 36.0601 30.62 36.7801 31.6C38.2801 33.63 39.7301 36.01 41.8301 37.47C42.4401 37.89 43.3601 37.58 43.7101 36.98C44.1101 36.3 43.8301 35.52 43.2201 35.1C43.1801 35.07 42.9001 34.85 43.1501 35.05C43.0601 34.97 42.9701 34.89 42.8801 34.81C42.7201 34.66 42.5601 34.51 42.4101 34.35C41.9901 33.91 41.5901 33.43 41.2101 32.95C40.4101 31.95 39.6501 30.88 38.8801 29.84C37.4301 27.89 35.8401 25.44 33.6201 24.27C31.4001 23.1 29.3001 24.22 28.4701 26.44C27.6401 28.66 27.9601 31.38 28.2701 33.71C28.6101 36.24 29.2301 38.72 29.6001 41.24C29.7101 41.98 30.6401 42.38 31.2901 42.2C32.0801 41.98 32.3601 41.25 32.2501 40.51V40.5Z" fill="#231F20"/>
<path d="M30.29 36.26C33.16 35.33 35.85 33.96 38.63 32.78C39.3 32.5 39.49 31.47 39.12 30.9C38.67 30.21 37.95 30.11 37.24 30.41C35.93 30.97 34.64 31.57 33.33 32.15C33.03 32.29 32.72 32.42 32.42 32.55C32.65 32.45 32.17 32.65 32.13 32.67C31.98 32.73 31.83 32.79 31.69 32.85C30.99 33.13 30.28 33.38 29.57 33.61C28.86 33.84 28.37 34.57 28.61 35.3C28.83 35.98 29.57 36.5 30.3 36.26H30.29Z" fill="#231F20"/>
<path d="M50.7502 32.91C49.6002 30.65 48.7402 28.49 47.8402 26.12C47.4402 25.07 47.0502 24.02 46.7002 22.95C46.5902 22.61 46.4802 22.27 46.3802 21.93C46.3502 21.82 46.3302 21.7 46.3002 21.59C46.2202 21.35 46.3202 21.82 46.3202 21.79C46.3202 21.59 46.2202 22.21 46.2802 22.07L45.9302 22.68C45.6502 23.01 45.8002 22.83 45.9802 22.7C46.1502 22.58 45.9202 22.73 45.8802 22.74C45.9502 22.72 46.0202 22.69 46.0902 22.67C46.2302 22.63 46.3602 22.59 46.5002 22.56C46.5802 22.54 46.6702 22.53 46.7502 22.51C47.1102 22.44 46.5602 22.51 46.8602 22.49C47.6502 22.44 48.4202 22.42 49.2102 22.49C49.3102 22.49 49.8702 22.56 49.6602 22.54C49.8402 22.57 50.0302 22.59 50.2102 22.63C50.6702 22.71 51.1302 22.81 51.5902 22.93C52.0502 23.05 52.4902 23.19 52.9302 23.35C53.4402 23.54 53.4402 23.53 53.9502 23.8C54.2802 23.97 54.6002 24.17 54.9102 24.38C54.9602 24.41 55.1302 24.53 54.9102 24.38C55.0002 24.45 55.0902 24.53 55.1702 24.6C55.3102 24.72 55.4302 24.86 55.5602 24.99C55.8002 25.23 55.4602 24.83 55.5802 25C55.6302 25.07 55.6802 25.14 55.7202 25.21C55.7902 25.32 55.8502 25.44 55.9102 25.57C55.7502 25.22 55.9602 25.82 55.9902 25.93C56.0502 26.2 55.9902 26 55.9902 25.94C56.0002 26.09 55.9902 26.23 55.9902 26.37C55.9902 26.44 55.9502 26.71 55.9902 26.43C55.9802 26.51 55.9602 26.59 55.9402 26.67C55.8802 26.87 55.8302 27.07 55.7502 27.26C55.8502 27.03 55.6502 27.44 55.6102 27.51C55.4802 27.74 55.3302 27.97 55.1702 28.18C55.2802 28.03 54.9502 28.44 54.9002 28.5C54.7602 28.66 54.6102 28.82 54.4602 28.97C54.1102 29.32 53.7402 29.65 53.3602 29.96C52.1102 30.98 50.3902 31.95 48.9202 32.96C48.3102 33.38 48.0302 34.17 48.4302 34.84C48.7802 35.44 49.7002 35.76 50.3102 35.33C52.7202 33.67 55.4002 32.3 57.2402 29.95C58.3102 28.58 58.9602 26.99 58.6202 25.23C58.3402 23.75 57.2802 22.64 56.0602 21.83C53.6002 20.21 50.1902 19.5 47.2702 19.67C46.1202 19.74 43.9702 19.95 43.5902 21.31C43.3502 22.16 43.8902 23.29 44.1602 24.07C45.3502 27.53 46.6902 31 48.3502 34.26C48.6902 34.92 49.6202 35.11 50.2302 34.75C50.9002 34.36 51.0602 33.53 50.7202 32.87L50.7502 32.91Z" fill="#231F20"/>
<path d="M65.8398 30.35C68.5598 30.92 71.6598 30.11 73.7598 28.3C75.8598 26.49 76.1898 23.31 73.9998 21.46C72.2098 19.95 69.7598 20.35 67.6298 20.65C67.5198 20.67 67.4098 20.68 67.2998 20.7C67.2298 20.7 66.9498 20.75 67.2098 20.71C66.9598 20.74 66.7098 20.77 66.4498 20.8C65.9798 20.84 65.5198 20.86 65.0498 20.83C64.6898 20.81 65.3398 20.9 64.9898 20.83C64.8898 20.81 64.7898 20.78 64.6898 20.76C64.6098 20.74 64.3198 20.61 64.6498 20.76C64.5898 20.73 64.4998 20.66 64.4398 20.65C64.3598 20.63 64.1898 20.44 64.4398 20.67C64.3698 20.6 64.2998 20.54 64.2298 20.47C64.4598 20.71 64.2498 20.5 64.2098 20.42C64.0298 20.11 64.1898 20.45 64.1198 20.23C64.0798 20.11 64.0498 19.99 64.0198 19.86C63.9298 19.46 64.0198 20.1 63.9898 19.66C63.9598 19.22 63.9398 19.27 64.0698 18.87C64.2298 18.41 64.6898 17.84 65.1498 17.44C66.2998 16.45 67.8798 15.97 69.3598 16.39C71.0598 16.88 71.7898 14.23 70.0898 13.74C67.0098 12.85 63.2398 14.43 61.7598 17.31C60.6198 19.53 61.3598 22.67 63.9398 23.41C64.8598 23.68 65.8598 23.63 66.7998 23.52C68.0998 23.37 68.7198 23.22 69.9098 23.14C70.3598 23.11 70.8098 23.11 71.2498 23.16C70.9298 23.12 71.5498 23.24 71.6598 23.27C71.7298 23.29 71.7998 23.32 71.8698 23.34C71.5498 23.21 71.9598 23.41 72.0298 23.44C72.0998 23.47 72.3298 23.7 72.0998 23.48C72.1798 23.56 72.2598 23.63 72.3398 23.72C72.5798 23.99 72.2198 23.5 72.4098 23.82C72.4698 23.93 72.5398 24.03 72.5898 24.15C72.7498 24.5 72.7898 24.89 72.6598 25.22C72.5098 25.62 72.7898 25 72.5998 25.39C72.5398 25.51 72.4698 25.63 72.3898 25.74C72.1498 26.09 72.5498 25.59 72.2598 25.91C72.1298 26.06 71.9898 26.19 71.8398 26.32C71.5398 26.58 70.8198 27.01 70.3998 27.19C69.7398 27.47 69.0098 27.67 68.2998 27.76C67.8198 27.82 66.9398 27.8 66.5298 27.71C65.7998 27.56 65.0398 27.92 64.8398 28.67C64.6498 29.35 65.0698 30.21 65.7998 30.36L65.8398 30.35Z" fill="#231F20"/>
<path d="M24.9502 18.24C33.2302 14.95 41.6502 12.19 50.1602 9.69998C53.2702 8.79998 56.3602 7.85998 59.5102 7.08998C62.2902 6.40998 65.0802 5.79998 67.9202 5.28998C69.3402 5.03998 70.7702 4.81998 72.2202 4.65998C73.6802 4.50998 75.1402 4.38998 76.7402 4.50998C77.1402 4.54998 77.5602 4.59998 78.0002 4.70998C78.2302 4.76998 78.4602 4.83998 78.7001 4.93998C78.9602 5.05998 79.2301 5.19998 79.3801 5.31998C80.1102 5.78998 80.6702 6.34998 81.2102 6.91998C82.2602 8.05998 83.1102 9.28998 83.8801 10.54C85.4101 13.05 86.6402 15.66 87.7402 18.32C88.7102 20.68 89.6002 23.08 90.3002 25.57C90.4802 26.19 90.6301 26.83 90.7701 27.48C90.8401 27.81 90.8902 28.15 90.9302 28.51C90.9702 28.87 90.9801 29.43 90.8401 29.86C90.4801 30.82 89.9302 31.36 89.4102 31.86C88.8702 32.35 88.3102 32.73 87.7402 33.09C84.8102 34.86 81.7202 35.91 78.6402 36.91L76.3202 37.61L73.9702 38.2L71.6202 38.76C70.8402 38.94 70.0202 39 69.2402 39.16C67.2702 39.51 67.4802 39.31 68.9702 38.39C70.4402 37.39 73.2102 35.72 76.6402 34.47C79.6802 33.41 82.7102 32.22 85.3401 30.83C85.9801 30.48 86.6002 30.09 87.0802 29.69C87.5602 29.32 87.9002 28.8 87.8002 28.94C87.8002 28.92 87.8002 28.96 87.8002 28.9C87.8002 28.79 87.7701 28.62 87.7502 28.47C87.7001 28.14 87.6201 27.78 87.5302 27.42C87.3502 26.69 87.1402 25.94 86.9102 25.19C85.9702 22.19 84.8301 19.17 83.4902 16.29C82.1502 13.45 80.6201 10.53 78.6301 8.46998C78.3401 8.16998 78.0302 7.91998 77.7302 7.70998C77.6102 7.60998 77.3302 7.51998 76.9402 7.44998C76.1602 7.32998 75.2102 7.32998 74.2702 7.37998C72.3702 7.49998 70.4102 7.80998 68.4502 8.17998C64.5302 8.92998 60.6102 9.92998 56.7402 10.97C48.2202 13.26 39.7602 15.93 31.4702 18.98C28.9202 19.92 26.3802 20.91 23.8902 21.96C21.4002 23.02 18.9202 24.13 16.6302 25.46C16.0702 25.8 15.5202 26.14 15.0302 26.52C14.8002 26.7 14.5502 26.91 14.4102 27.07C14.2902 27.2 14.1802 27.36 14.1602 27.54C14.1602 27.62 14.1102 27.82 14.1102 28.02C14.1102 28.21 14.0802 28.4 14.0802 28.6C14.0802 29 14.0902 29.4 14.1302 29.81C14.2002 30.63 14.3102 31.45 14.4802 32.28C14.8002 33.93 15.2802 35.57 15.8102 37.19C16.8802 40.42 18.2302 43.58 19.8402 46.53C20.4402 47.61 21.0802 48.66 21.8002 49.6C22.4802 50.5 23.4302 51.52 23.9502 51.43C24.7402 51.39 25.7302 51.29 26.6202 51.11C27.5302 50.95 28.4502 50.74 29.3602 50.52C31.1802 50.07 32.9902 49.53 34.8002 48.96C36.1102 48.52 37.3802 48.09 38.7002 47.64C41.1402 46.81 42.7602 46.28 43.9302 46.01C45.1102 45.76 45.8402 45.74 46.4802 45.87C46.7702 45.93 47.1402 45.95 47.3302 46.04C47.6502 46.19 47.3602 46.55 46.5502 47.09C45.7402 47.62 44.4202 48.34 42.6302 49.04C39.7502 50.19 36.7902 51.27 33.7302 52.21C32.2002 52.68 30.6302 53.11 29.0202 53.48C28.2202 53.66 27.3902 53.82 26.5502 53.96C26.1302 54.03 25.6902 54.07 25.2602 54.13C25.0502 54.16 24.8202 54.17 24.5902 54.18L23.8102 54.22C23.4902 54.16 23.1602 54.15 22.8502 54.05C22.5502 53.93 22.2202 53.82 21.9802 53.64C21.7302 53.48 21.5302 53.34 21.3602 53.19C21.1902 53.04 21.0002 52.89 20.8702 52.75C20.2602 52.16 19.8102 51.57 19.3702 50.97C18.5102 49.77 17.7902 48.55 17.1202 47.31C15.7902 44.83 14.6702 42.27 13.6902 39.64C12.9902 37.71 12.3502 35.75 11.8702 33.7C11.6102 32.68 11.3702 31.65 11.2202 30.55C11.1402 30 11.0802 29.45 11.0502 28.86C11.0302 28.58 11.0302 28.27 11.0502 27.96C11.0502 27.63 11.0902 27.41 11.1602 26.84C11.3302 26.27 11.5402 25.69 11.9602 25.24C12.1602 24.98 12.3402 24.82 12.4802 24.68C12.6402 24.52 12.7802 24.41 12.9302 24.28C13.5202 23.8 14.0902 23.42 14.6602 23.07C15.8002 22.37 16.9302 21.78 18.0602 21.22C20.3302 20.11 22.6202 19.12 24.9102 18.18L24.9502 18.25V18.24Z" fill="#231F20"/>
<path d="M52.6901 69.18C55.5101 69.91 58.0001 70.87 60.5401 71.59C61.7901 71.94 63.0501 72.27 64.1801 72.37C64.7401 72.44 65.2801 72.41 65.5701 72.33C65.7401 72.3 65.8301 72.22 65.8801 72.09L65.9301 71.94L65.9802 71.69C66.0002 71.52 66.0301 71.34 66.0301 71.15C66.0501 70.77 66.0101 70.36 65.9501 69.93C65.8301 69.08 65.5901 68.19 65.2901 67.3C64.4701 64.89 63.2101 62.53 61.9701 60.18C59.7701 56.01 57.2501 51.97 54.9401 47.74C54.3601 46.68 53.8001 45.6 53.2801 44.48C52.7601 43.36 52.2701 42.22 51.9701 40.86C51.9001 40.54 51.8401 40.02 51.8501 39.57C51.8801 39.11 51.9801 38.66 52.1901 38.26C52.6201 37.45 53.5401 37.02 54.4501 37.02C55.4201 36.93 56.1001 37.22 56.7601 37.46C57.3901 37.75 57.9701 38.09 58.4901 38.47C60.3501 39.81 61.8201 41.43 63.2301 43.08C64.6301 44.73 65.9101 46.45 67.1301 48.19C68.7101 50.42 70.1701 52.73 71.5201 55.09C72.9001 57.44 74.0901 59.9 75.0401 62.47C75.5401 64.13 75.1901 64 74.1301 62.94C73.5901 62.42 72.9001 61.64 72.0901 60.7C71.6901 60.23 71.2501 59.72 70.8401 59.16C70.4301 58.59 70.0201 57.98 69.6201 57.32C68.2201 54.99 66.6801 52.75 65.2001 50.49C63.6801 48.26 62.1001 46.07 60.3701 44.09C59.5101 43.1 58.6001 42.16 57.6601 41.37C57.1901 40.96 56.7101 40.63 56.2301 40.34C56.0001 40.21 55.7601 40.08 55.5401 40L55.2201 39.88L55.0001 39.83C54.8401 39.79 54.7901 39.78 54.6901 39.85C54.6501 39.88 54.6301 39.93 54.6201 39.99C54.6201 40.02 54.6201 40.03 54.6201 40.08V40.16L54.6501 40.34C54.8401 41.41 55.3901 42.67 55.9401 43.88C58.7501 49.73 62.8701 55.4 65.9901 61.58C66.8301 63.26 67.6101 64.98 68.2201 66.82C68.5201 67.74 68.7801 68.7 68.9201 69.72C69.0401 70.77 69.1002 71.79 68.7302 73.06C68.4601 73.77 68.0101 74.43 67.3401 74.81C66.6401 75.19 65.9701 75.33 65.4001 75.37C64.2301 75.46 63.2101 75.29 62.2201 75.1C60.2501 74.7 58.4101 74.12 56.5901 73.54C55.4901 73.19 54.4001 72.84 53.3201 72.53C52.2901 72.22 50.9701 71.92 50.6301 71.92C50.3601 71.91 50.0101 71.92 49.8801 72.19C49.8201 72.32 49.8301 72.47 49.8501 72.61C49.8701 72.75 49.8501 72.9 49.9001 73.04C49.9401 73.2 49.9601 73.22 50.0301 73.5C50.1101 73.72 50.2401 73.93 50.3401 74.15C50.4301 74.37 50.5801 74.57 50.7301 74.78C50.8901 74.98 51.0001 75.2 51.1901 75.38C52.2201 76.56 53.6101 77.55 55.0301 78.48C56.4701 79.4 57.9801 80.26 59.4801 81.14C62.5001 82.89 65.5501 84.66 68.3801 86.74C70.5901 88.32 72.7101 89.98 74.8001 91.6C76.9002 93.21 78.9901 94.8 81.1901 95.98C81.6701 96.26 82.1701 96.43 82.6501 96.66C83.1501 96.83 83.6401 97.01 84.1401 97.14C86.0101 97.62 87.2701 97.52 88.1901 97.51C89.1101 97.52 89.6901 97.57 90.2501 97.81C90.5001 97.92 90.8301 98 91.0101 98.13C91.3201 98.35 91.0901 98.71 90.3501 99.18C90.1601 99.3 89.9501 99.42 89.7001 99.55C89.4401 99.66 89.1501 99.75 88.8301 99.85C88.1901 100.09 87.3901 100.19 86.4901 100.26C83.7601 100.38 81.0701 99.36 78.8401 98.07C76.5701 96.76 74.6101 95.2 72.6501 93.67C70.7001 92.14 68.7901 90.61 66.8001 89.19C64.8302 87.77 62.7801 86.48 60.6401 85.23L55.7901 82.44C54.1501 81.48 52.4801 80.49 50.8501 79.2C50.4501 78.85 50.0401 78.52 49.6501 78.15C49.2701 77.74 48.8601 77.4 48.5101 76.91C48.1501 76.44 47.7901 75.99 47.5301 75.41C47.4001 75.13 47.2301 74.87 47.1301 74.57C47.0501 74.35 46.8801 73.75 46.7501 73.31C46.6701 72.87 46.7001 72.45 46.7101 72.03L46.7401 70.77C46.8801 70.42 47.0601 70.07 47.3201 69.75C47.6101 69.47 47.9201 69.22 48.2801 69.05C49.6201 68.32 52.1001 68.91 52.7201 69.06V69.14L52.6901 69.18Z" fill="#231F20"/>
<path d="M96.61 103.86C94.73 104.82 92.87 105.85 91.16 107.04C90.54 107.47 89.99 107.99 89.43 108.45C88.93 108.85 88.46 109.28 88.09 109.71C87.7 110.14 87.43 110.53 87.42 110.75C87.38 111.14 87.5 111.78 87.69 112.38C87.88 112.99 88.13 113.62 88.4 114.24C88.89 115.34 89.47 116.42 90.1 117.46C90.93 118.78 91.76 120.12 92.27 121.69C92.43 122.18 92.32 122.17 91.87 121.98C91.56 121.85 91.24 121.71 90.93 121.57C90.56 121.39 90.18 121.13 89.84 120.81C89.55 120.51 89.23 120.24 88.98 119.91L88.23 118.93C87.74 118.26 87.27 117.58 86.82 116.87C86.35 116.17 86 115.39 85.66 114.59C85.34 113.77 85.02 112.96 84.87 111.95C84.81 111.67 84.8 111.3 84.77 110.98C84.79 110.6 84.79 110.13 84.94 109.78C85.19 109.03 85.54 108.51 85.89 108.05C86.62 107.13 87.4 106.39 88.22 105.73C90.04 104.3 91.96 103.15 93.91 102.07C95.11 101.41 96.34 100.79 97.56 100.19C99.42 99.28 101.34 98.49 103.23 97.68C104.7 97.06 106.11 96.33 107.64 95.77C107.98 95.65 108.3 95.5 108.65 95.4C109.95 95.03 110.46 95.28 110.84 95.95C110.93 96.1 111.03 96.25 111.09 96.4C111.27 96.89 110.85 97.48 110.04 97.88C107.53 98.96 104.98 100.05 102.39 101.17C100.46 102.03 98.51 102.94 96.64 103.95L96.6 103.89L96.61 103.86Z" fill="#231F20"/>
<path d="M96.0701 32.43C95.8301 32.41 95.7901 32.13 95.8601 31.71C95.8801 31.58 96.0901 31.25 96.1701 31.24C96.3301 31.21 96.4901 31.18 96.6401 31.18C96.7301 31.18 97.8701 31.59 98.2801 31.71C98.6701 31.83 99.0201 32 99.3701 32.18L101.51 33.28C101.67 33.36 101.81 33.46 101.95 33.59C102.41 34.01 102.93 34.31 103.49 34.56C103.58 34.6 103.67 34.66 103.8 34.64C104.01 34.6 105.48 35.37 105.62 35.54C105.97 35.98 106.37 36.36 106.74 36.75C106.79 36.81 106.88 36.82 106.89 36.94C106.91 37.22 107.06 37.27 107.19 37.38C107.37 37.52 107.55 37.67 107.7 37.86C107.77 37.95 107.8 38.12 107.85 38.26C107.89 38.39 107.68 38.63 107.63 38.64C107.49 38.67 107.48 38.84 107.42 38.96C107.4 39 107.37 39.05 107.35 39.08C107.3 39.14 105.85 39 105.72 38.93C105.69 38.92 103.94 38.18 103.7 38.08C103.59 38.04 103.53 37.93 103.45 37.84C103.41 37.8 102.03 37.12 101.99 37.08C101.74 36.88 101.43 36.78 101.27 36.44C101.24 36.37 101.18 36.35 101.12 36.32C100.65 36.05 100.23 35.69 99.8001 35.35C99.5801 35.18 99.3301 35.05 99.1001 34.89C99.0601 34.86 99.0301 34.81 98.9901 34.77C98.9401 34.72 98.9001 34.67 98.8501 34.63C98.2901 34.29 97.7801 33.85 97.1901 33.56C97.0501 33.49 96.5501 32.93 96.3901 32.86C96.3001 32.82 96.1701 32.41 96.0801 32.41L96.0701 32.43Z" fill="#231F20"/>
<path d="M98.0401 29.7C97.8601 29.84 97.6701 29.62 97.4701 29.21C97.4101 29.08 97.3601 28.66 97.4101 28.6C97.5001 28.47 97.6001 28.34 97.7001 28.24C97.7601 28.19 98.8001 27.79 99.1401 27.62C99.4701 27.46 99.8201 27.37 100.16 27.3C100.86 27.15 101.56 26.96 102.25 26.79C102.4 26.75 102.56 26.74 102.73 26.75C103.29 26.79 103.82 26.68 104.33 26.5C104.42 26.47 104.51 26.46 104.57 26.35C104.69 26.17 106.07 25.76 106.27 25.79C106.76 25.87 107.24 25.88 107.72 25.9C107.79 25.9 107.84 25.85 107.93 25.94C108.14 26.17 108.26 26.08 108.4 26.05C108.6 26.02 108.8 26.03 109.01 26.05C109.12 26.06 109.26 26.17 109.39 26.25C109.51 26.32 109.61 26.68 109.59 26.73C109.55 26.87 109.68 27.01 109.75 27.16C109.77 27.21 109.8 27.27 109.81 27.31C109.85 27.4 108.89 28.57 108.74 28.57C108.73 28.57 108.29 28.75 107.83 28.94C107.37 29.13 106.9 29.31 106.8 29.34C106.7 29.38 106.58 29.34 106.47 29.32C106.42 29.32 105.04 29.74 104.99 29.73C104.69 29.74 104.42 29.87 104.09 29.69C104.03 29.65 103.97 29.67 103.91 29.69C103.42 29.78 102.9 29.76 102.39 29.76C102.13 29.76 101.88 29.82 101.63 29.84C101.58 29.84 101.53 29.82 101.49 29.81C101.43 29.8 101.37 29.78 101.31 29.79C100.71 29.87 100.1 29.83 99.5101 29.96C99.3701 29.99 98.6901 29.84 98.5301 29.88C98.4401 29.9 98.1101 29.63 98.0401 29.69V29.7Z" fill="#231F20"/>
<path d="M98.2702 22.57C98.3002 22.8 98.0202 22.85 97.5502 22.84C97.4002 22.84 97.0102 22.68 96.9802 22.6C96.9202 22.44 96.8702 22.27 96.8502 22.1C96.8202 21.98 97.2202 20.71 97.3502 20.28C97.4902 19.87 97.6702 19.48 97.9002 19.12C98.3402 18.38 98.7902 17.66 99.2702 16.95C99.3702 16.79 99.5102 16.65 99.6602 16.53C100.16 16.11 100.6 15.63 100.99 15.11C101.06 15.02 101.14 14.95 101.15 14.82C101.15 14.59 102.37 13.29 102.61 13.19C102.89 13.03 103.15 12.9 103.4 12.76C103.66 12.61 103.92 12.47 104.22 12.37C104.3 12.34 104.36 12.26 104.48 12.3C104.77 12.39 104.89 12.26 105.07 12.18C105.31 12.07 105.53 11.96 105.82 11.92C105.96 11.9 106.13 11.95 106.28 11.98C106.42 12.01 106.49 12.33 106.47 12.37C106.42 12.51 106.56 12.61 106.62 12.72C106.64 12.76 106.67 12.81 106.68 12.84C106.69 12.89 106.5 13.16 106.34 13.48C106.17 13.8 106.02 14.13 105.98 14.19C105.96 14.19 105.69 14.56 105.36 14.92C105.03 15.26 104.71 15.68 104.65 15.76C104.59 15.85 104.47 15.89 104.37 15.94C104.31 15.96 103.44 17.17 103.4 17.22C103.17 17.43 103.04 17.73 102.67 17.82C102.6 17.84 102.57 17.89 102.53 17.94C102.2 18.36 101.77 18.7 101.38 19.08C101.18 19.27 101.02 19.5 100.85 19.71C100.82 19.75 100.76 19.77 100.72 19.8C100.67 19.84 100.61 19.87 100.57 19.92C100.18 20.44 99.7102 20.9 99.4102 21.47C99.3502 21.6 98.7702 22.08 98.7202 22.24C98.6902 22.32 98.2702 22.46 98.2702 22.55V22.57Z" fill="#231F20"/>
</svg>
