<?xml version="1.0" encoding="UTF-8"?><svg id="Layer_1" xmlns="http://www.w3.org/2000/svg" width="128" height="128" viewBox="0 0 128 128"><defs><style>.cls-1{fill:#231f20;stroke-width:0px;}</style></defs><path class="cls-1" d="M66.16,44.31c.01-1.03.03-2.05.04-3.08,0-.37-.03-.75-.01-1.12.04-1.32.14-2.63.27-3.94.04-.58.06-1.17.08-1.74.04-.74-.03-1.49.25-2.22.07-.23.15-.19.29,0,.07.1.16.24.27.41.12.17.19.37.19.58.08,1.5.15,3,.07,4.51-.07.9.01,1.85.03,2.77l.07,3.05.07,1.88c.04.95.07,1.9.18,2.84.09.73.26,1.43.4,2.14.03.16.07.31.1.47.09.59.02.79-.32.97-.08.04-.16.09-.24.12-.27.1-.53-.11-.68-.54-.44-1.26-.68-2.63-.85-4.01-.12-1.03-.22-2.06-.25-3.09h.04Z"/><path class="cls-1" d="M81.04,69.19c-1.55-4.77-2.9-9.58-4.23-14.38-.48-1.75-1.03-3.48-1.49-5.24-1.58-6.19-2.88-12.5-4.68-18.49-.21-.65-.43-1.33-.69-1.9-.14-.32-.29-.63-.51-.89-.1-.13-.23-.25-.37-.33-.18.02-.28.19-.37.33-.16.31-.25.64-.32.95l-.25,1.09c-.09.43-.17.86-.25,1.3-.15.87-.28,1.75-.4,2.64-.23,1.78-.45,3.55-.68,5.34-.33,1.11-.28.97-.66.01-.35-.96-.82-2.76-.81-4.89.05-1.89.15-3.77.48-5.72l.03-.19s.02-.1.01-.17l.04-.17.14-.69c.14-.44.29-.87.45-1.29.32-.85.8-1.4,1.3-1.74.26-.14.53-.27.85-.31.35-.07.66-.07.96-.07.28.18.57.39.84.62l.41.34c.13.13.25.31.38.46.12.16.25.31.37.48l.33.56c.21.37.47.73.63,1.15.24.52.4.94.6,1.41.35.91.66,1.82.94,2.72.53,1.82.94,3.65,1.34,5.48.93,4.37,2.29,8.79,3.39,13.2,1.23,4.84,2.47,9.67,3.92,14.44.88,2.93,1.82,5.85,2.89,8.71.82,2.16,1.66,4.32,2.64,6.41.98,2.12,1.96,4.22,3.04,6.25,1.68,3.14,3.62,6.06,5.92,8.61.5.57,1.04,1.07,1.57,1.6.5.48.93.85,1.25,1.23.35.33.63.6.83.86.41.52.64.85.76,1.27.05.18.16.39.17.53.03.25-.25.29-.82.16-.28-.07-.65-.16-1.06-.33-.4-.18-.85-.43-1.34-.73-2.79-1.95-4.99-4.65-6.9-7.48-1.9-2.85-3.49-5.91-4.96-8.95-2.29-4.5-4.14-9.35-5.75-14.12l.07-.03Z"/><path class="cls-1" d="M64.06,43.44c.12-.91.23-1.83.3-2.75.03-.34.02-.67.04-1.01l.13-1.78c.06-.6.1-1.19.13-1.79.03-.53.01-1.06,0-1.59-.02-.67-.03-1.35-.02-2.03,0-.21.05-.19.13-.01.07.17.2.49.28.88.25,1.37.46,2.75.46,4.15.01.88.02,1.71.03,2.57-.01.94-.06,1.88-.12,2.82-.04.58-.09,1.16-.13,1.73-.08.87-.19,1.75-.25,2.62-.05.67-.02,1.35-.04,2.02,0,.15,0,.3,0,.44-.04.55-.18.71-.56.78-.09.02-.18.04-.26.04-.29.01-.5-.24-.54-.65-.1-1.2,0-2.43.11-3.68.09-.92.17-1.85.28-2.77h.03Z"/><path class="cls-1" d="M66.06,72.16c-.18.71-.36,1.41-.51,2.13-.06.26-.06.52-.12.78-.21.92-.38,1.84-.55,2.76-.08.41-.11.83-.14,1.24-.02.53-.07,1.06-.22,1.58-.05.16-.18.14-.34,0-.15-.14-.37-.41-.43-.72-.15-1.1-.19-2.19.01-3.28.13-.65.1-1.34.16-2.01.07-.74.17-1.47.27-2.2.07-.45.14-.9.21-1.35.1-.68.25-1.36.31-2.04.04-.53,0-1.06.03-1.59,0-.12,0-.23,0-.35.06-.43.21-.55.7-.56.11,0,.22-.01.33,0,.37.02.65.25.72.57.11.49.16.98.17,1.46.02.49-.09.97-.16,1.45-.14.71-.27,1.43-.41,2.15h-.05Z"/><path class="cls-1" d="M86.89,107.85c-.31.45,8.3,11.19,11.9,11.04,3.6-.15,8.25-6.37,11.21-7.95,2.96-1.59,1.92-3.53,1.92-3.53,0,0-6.85-8.65-10.03-8.87s-8.35,2.65-9.54,3.64-5.46,5.67-5.46,5.67Z"/><path class="cls-1" d="M46.17,69.17c2.73-5.88,5.13-11.93,7.24-18.09.77-2.25,1.43-4.53,2.14-6.8,1.26-4.02,2.38-7.97,3.21-12.09.22-1.03.43-2.06.69-3.13.13-.53.28-1.08.47-1.63.05-.12.1-.31.18-.51l.27-.56c.16-.39.39-.71.61-1.04.21-.34.49-.57.73-.86.27-.22.54-.5.83-.65.29-.13.57-.33.88-.38.31-.07.69-.03.98.13,1.11.6,1.61,2.08,1.91,3.68l.09.53.06.38.09.72.15,1.43c.09.95.15,1.9.21,2.85.1,1.89.15,3.77.18,5.64.03,2.4.11,4.79.03,7.19-.1,2.39-.23,4.78-.61,7.15-.45,1.48-.39,1.29-.92.02-.28-.63-.55-1.53-.86-2.62-.28-1.08-.49-2.35-.58-3.72l-.11-1.82-.03-1.82-.07-3.63c-.05-2.41-.16-4.82-.26-7.19-.06-1.18-.14-2.36-.27-3.5-.03-.28-.09-.65-.06-.57v-.09c0-.07,0-.15-.03-.24-.02-.1-.13-.14-.19-.1-.07.02-.14.07-.21.15-.03.04-.07.08-.1.13-.02.03-.03.04-.05.1l-.14.36c-.18.51-.34,1.06-.49,1.63-.7,2.77-1.3,5.81-2.07,8.75-.77,2.97-1.64,5.86-2.54,8.75-2.01,6.33-4.28,12.58-6.91,18.69-1.61,3.76-3.36,7.47-5.26,11.1-1.46,2.74-2.98,5.45-4.65,8.08-1.68,2.64-3.56,5.14-5.62,7.47-3.18,3.64-6.75,6.85-10.77,9.53-.88.59-1.77,1.13-2.7,1.68-3.52,1.86-4.81,2.09-5.91,1.57-.24-.1-.54-.16-.69-.27-.27-.18-.07-.52.45-1.08.5-.61,1.48-1.04,2.66-1.76,3.57-1.97,7.02-4.31,10.17-7.08,3.14-2.78,5.98-5.97,8.43-9.48,1.81-2.6,3.43-5.43,5-8.28,1.56-2.86,3.02-5.78,4.36-8.76l.07.02Z"/><path class="cls-1" d="M64.29,75.86c.13-.57.27-1.14.44-1.7.08-.28.16-.57.26-.85l.14-.43c.02-.06.02-.05.03-.07.02.11-.03-.5-.05-.87l-.07-1.23-.12-2.46c-.07-1.64-.11-3.28-.12-4.93-.01-1.61-.07-3.23.02-4.86.09-1.44.2-2.88.47-4.37.06-.37.16-.75.25-1.14.05-.16.16-.57.26-.8.11-.27.25-.52.37-.77.5-.99,1.54-1.59,2.61-1.43,1.07.11,1.97.87,2.6,1.8.16.28.28.45.36.63l.26.55c.14.36.29.72.39,1.08.46,1.43.76,2.82,1.01,4.22.45,2.47.92,4.91,1.61,7.24.43,1.49.96,2.95,1.61,4.31.31.69.64,1.35,1.02,1.98.19.31.39.62.62.9.2.32.41.6.62.94.51.86.55.72-.41.57-.46-.1-1.21-.25-1.88-.74-.66-.48-1.38-1.16-1.9-2.02-1.71-3.12-2.43-6.41-3.21-9.57-.38-1.56-.76-3.11-1.14-4.68-.18-.76-.36-1.51-.59-2.2-.11-.35-.23-.68-.36-.99-.07-.14-.13-.32-.2-.43-.02-.06-.02-.08-.05-.14-.08-.22-.43-.49-.68-.28-.11.1-.17.24-.23.39l-.04.12c-.04.09-.06.21-.08.32-.05.21-.11.43-.14.66-.35,1.82-.38,3.82-.43,5.77-.04,2.08,0,4.18.07,6.28l.14,3.15.09,1.57.13,1.8-.23.65c-.79,2.46-1.28,5.08-1.42,7.68-.17,3.94.44,8.02,2.42,11.4,1.46,2.63,3.89,4.57,6.33,6.34.55.39,1.1.73,1.67,1.1,2.1,1.35,2.73,1.8,2.94,2.61.05.18.14.37.15.52.05.49-1.14.47-2.89-.42-2.58-1.31-5.06-2.97-7.3-5.1-1.11-1.06-2.2-2.3-3.02-3.71-.4-.7-.83-1.38-1.13-2.14l-.48-1.11c-.14-.38-.26-.76-.38-1.14-1.48-4.58-1.33-9.43-.41-13.96h.07Z"/><path class="cls-1" d="M91.02,100.7c1.68-1.28,3.45-2.44,5.56-3.27,1.06-.4,2.21-.75,3.68-.68.37.02.76.1,1.16.22l.78.29c.51.21,1,.44,1.48.68,1.4.73,2.75,1.52,3.94,2.5,2.1,1.75,3.87,3.69,5.36,6.03.57.85,1.11,1.76,1.24,2.57.02.1.02.2.03.3-.04.09-.07.18-.13.28v.02s-.02,0-.02,0h0s.19.06.1.04l-.03.03-.06.05-.11.1-.23.2-.46.4c-.08.07-.15.13-.23.2l-.33.16-1.3.62-.81.43c-.54.3-1.07.6-1.59.93-1.86,1.15-3.6,2.54-5.16,4.05-1.02.96-1.93,2.03-2.84,3.08-.47.52-.91,1.06-1.36,1.59l-.66.81c-.25.25-.52.49-.83.72-.41.26-.61.37-.66.33-.05-.05.02-.26,0-.71-.13-.97.15-2.54,1.14-3.99.85-1.29,1.91-2.41,2.96-3.53,1.07-1.1,2.21-2.13,3.42-3.08,1.21-.95,2.47-1.84,3.81-2.61l1.02-.55.12-.07h.04s.08-.04.08-.04l.16-.05c.17-.05.47-.05.37-.25-.01-.09-.05-.2-.1-.31-.02-.04-.01-.04-.06-.1l-.18-.26-.38-.5c-.52-.67-1.09-1.31-1.68-1.93-1.18-1.24-2.5-2.36-3.87-3.33-.76-.53-1.54-1.01-2.36-1.41-.41-.2-.82-.39-1.24-.55l-.32-.12c-.07-.02-.12-.03-.18-.05-.13-.02-.27-.05-.45-.04-.68-.02-1.55.25-2.38.57-.83.33-1.66.78-2.47,1.27-1.97,1.23-3.83,2.74-5.45,4.45-.86.92-1.67,1.89-2.38,2.92-.34.52-.68,1.04-.95,1.59-.15.27-.26.55-.39.82l-.15.4c-.04.09-.06.18-.09.27-.01.07-.07.15-.05.22,0,.08.06.14.09.21.03.07.08.13.12.2.03.06.08.13.17.25.28.42.6.84.93,1.24,1.74,2.16,3.91,3.9,6.17,5.35.52.29,1.01.6,1.53.86.48.26.87.48,1.2.67.32.19.57.4.76.59.4.35.58.69.69,1.1.05.19.14.38.16.53.03.26-.2.4-.7.47-.5.08-1.25.04-2.12-.26-2.45-.92-4.67-2.44-6.68-4.19-1-.89-1.93-1.85-2.84-2.86-.45-.51-.89-1.04-1.31-1.61-.11-.15-.2-.29-.33-.44l-.48-.82c-.14-.28-.16-.59-.22-.88l-.02-.22v-.03s0-.01,0-.01c-.04,0,.1-.01-.1,0h0s0-.06,0-.06v-.11s.03-.45.03-.45c.1-.39.25-.92.35-1.16.81-2.23,2.07-4.03,3.44-5.69,1.38-1.65,2.91-3.12,4.58-4.45l.05.06Z"/><path class="cls-1" d="M61.57,77.2l-.2-1.14-.1-.6-.06-.37-.06-.55c.04-.47.09-.77.14-.99.05-.25.09-.47.15-.7l.35-1.33.69-2.63c.45-1.75.87-3.5,1.24-5.25.34-1.55.57-3.12.83-4.66.2-1.2.36-2.41.44-3.59l.03-.87v-.71c-.01-.21-.04-.42-.12-.65-.06-.13-.13-.28-.27-.33-.14-.06-.28.02-.39.11-.11.1-.2.21-.29.33l-.13.19-.2.33c-.73,1.32-1.38,2.76-2.03,4.2-1.02,2.3-1.98,4.66-3.06,6.96-.69,1.48-1.42,2.96-2.34,4.37-.46.7-1.05,1.34-1.65,1.95-.33.29-.64.59-1.01.84-.36.26-.83.38-1.24.54-1.14.21-.91.1-.38-.62.12-.2.24-.45.36-.73.06-.37.26-.56.38-.91.29-.62.58-1.37.98-2.11,1.61-2.56,2.91-5.52,4.21-8.5.68-1.48,1.35-2.99,2.09-4.49.37-.76.75-1.51,1.18-2.27.11-.19.21-.38.33-.57l.25-.42c.1-.16.2-.31.31-.45.22-.28.41-.59.64-.84.24-.21.45-.49.7-.64.52-.39,1.06-.59,1.71-.55.66.08,1.18.5,1.58.98.16.23.3.47.42.74l.18.39.13.45c.09.29.17.6.2.93.04.31.11.69.11.86.07.86.05,1.69.02,2.51-.07,1.64-.25,3.24-.5,4.82-.71,4.46-1.87,8.85-2.94,13.08-.04.17-.08.27-.06.34-.01.08.04.42.07.74l.11.96c.07.64.13,1.3.19,1.95.14,1.3.2,2.61.23,3.92.04,4.22-.58,8.68-2.96,12.41-1.91,2.89-4.7,4.81-7.4,6.5-.6.37-1.17.75-1.77,1.1-2.21,1.31-2.79,1.62-3.7,1.4-.2-.04-.43-.05-.59-.1-.27-.1-.28-.39-.04-.92.23-.53.82-1.11,1.62-1.71,2.39-1.73,4.92-3.07,6.99-4.81,1.03-.86,1.94-1.8,2.62-2.84.65-1.1,1.24-2.27,1.59-3.57,1.1-3.84,1.1-8.21.37-12.45l.07-.02Z"/><path class="cls-1" d="M16.84,105.71s9.59-10.06,13.08-8.8c3.49,1.26,6.75,2.98,9.1,5.73s3.18,3.84,3.71,4.66c1.05,1.62-9.46,11.29-12.15,11.58-2.68.28-5.41-6.15-8.52-7.94s-5.22-5.22-5.22-5.22Z"/><path class="cls-1" d="M20,98.83c1.78-1.33,3.68-2.6,6.08-3.26,2.55-.64,5.04-.05,7.11.96,1.53.73,2.92,1.63,4.15,2.69,2.15,1.88,3.97,4.03,5.53,6.33.79,1.15,1.51,2.33,2.17,3.57.33.62.64,1.24.92,1.92l.2.52c.08.24.17.49.21.74.11.51-.05,1-.37,1.41l-.33.47-.29.37c-.19.25-.38.5-.59.73-.4.48-.83.94-1.26,1.39-.87.89-1.81,1.71-2.78,2.46-2.5,1.9-5.17,3.63-8.18,4.48-1.02.08-.92-.01-.42-.83.48-.86,1.54-2.02,2.98-2.93,2.61-1.53,5.08-3.22,7.05-5.33.5-.52.96-1.08,1.4-1.64.06-.07.11-.14.16-.22l.07-.1h0s.03-.02.04-.03c.01-.02.01-.04.01-.06,0-.04.02,0-.06-.21-.49-1.27-1.24-2.65-2.01-3.94-1.88-3.11-4.49-6.01-7.42-8.13-1.6-1.17-3.4-2.04-5.24-2.26-.46-.07-.93-.06-1.37-.04-.43.03-.88.13-1.33.26-.9.27-1.79.72-2.65,1.23-2.11,1.29-4.07,2.98-5.82,4.82-.5.54-.63.68-.86.95-.08.13-.27.27-.25.41l.41.28,1.32.92,1.66,1.2c1.09.82,2.16,1.67,3.2,2.55,2.36,2.01,4.58,4.17,6.41,6.73.37.58.81,1.11,1.14,1.72,1.29,2.25,1.32,3.15.87,3.9-.1.17-.17.37-.27.49-.33.38-1.2-.36-2.12-1.83-2.67-4.43-6.43-8.26-10.92-11.52l-1.54-1.1-.79-.54-1.6-1.06-.45-.68-.23-.34-.11-.17v-.02s-.02,0-.02,0c.19-.03.05-.01.09-.02h0s0-.02,0-.02l-.03-.05-.05-.09c-.11-.48.15-1.08.58-1.64.21-.28.44-.56.68-.84l.6-.68.8-.84c1.08-1.1,2.22-2.14,3.45-3.1l.05.05Z"/><path class="cls-1" d="M49.47,33.52c.23-.07.4.18.54.55.04.12,0,.46-.06.51-.13.1-.26.2-.4.28-.04.03-.37.1-.74.22-.37.13-.78.23-.99.27-.4.1-.8.14-1.19.16-.81.04-1.61.12-2.41.21-.18.02-.36,0-.53-.03-.61-.13-1.23-.08-1.83.04-.1.02-.21.02-.3.13-.15.19-1.79.38-2.01.33-.54-.13-1.09-.19-1.64-.27-.08-.01-.15.04-.24-.08-.2-.27-.35-.2-.52-.2-.23,0-.47,0-.71-.07-.12-.03-.26-.19-.39-.31-.12-.11-.13-.57-.1-.63.08-.16-.03-.36-.07-.55-.01-.06-.03-.15-.03-.2-.01-.12,1.25-1.05,1.41-1.05.03,0,1.99-.41,2.25-.46.12-.04.24.03.37.06.06,0,1.66-.28,1.73-.25.34.03.67-.06,1.01.18.07.05.14.03.2.03.58-.03,1.15.08,1.73.16.29.04.59.03.88.04.05,0,.11.04.16.05.07.02.13.05.2.06.69.02,1.38.18,2.07.15.08,0,.31.07.54.14.23.1.46.19.55.19.1,0,.42.35.51.32Z"/><path class="cls-1" d="M56.64,20.98c.23.1.14.44-.1.86-.08.14-.42.41-.51.42-.18,0-.37,0-.53,0-.08-.04-1.26-.49-1.6-.67-.36-.16-.67-.37-.97-.6-.61-.45-1.25-.87-1.91-1.28-.14-.09-.27-.21-.37-.35-.36-.5-.87-.81-1.39-1.09-.09-.05-.16-.12-.3-.08-.23.06-1.59-.8-1.72-.99-.32-.46-.69-.86-1.05-1.28-.05-.06-.14-.06-.13-.22.03-.36-.14-.39-.26-.51-.17-.16-.33-.33-.47-.54-.07-.11-.07-.32-.09-.5-.02-.16.26-.53.32-.55.16-.07.2-.3.29-.47.03-.06.07-.13.1-.17.05-.08,1.68-.19,1.8-.09.02,0,.47.22.96.44.48.22.99.46,1.1.49.12.04.17.17.25.27.04.04,1.5.72,1.55.77.26.21.58.33.68.76.02.08.08.11.14.15.47.33.85.78,1.24,1.21.2.21.44.39.66.59.04.04.05.1.08.15.04.06.06.13.11.18.53.46.94,1.04,1.49,1.47.06.05.18.27.3.48.11.22.19.48.26.54.07.08,0,.6.1.63Z"/><path class="cls-1" d="M66.26,17.15c.08.22-.21.37-.64.48-.14.04-.53,0-.6-.07-.12-.12-.24-.25-.34-.37-.03-.04-.13-.34-.27-.69-.11-.34-.17-.71-.24-.9-.11-.37-.14-.73-.15-1.09-.03-.74-.1-1.47-.17-2.2-.01-.16,0-.33.04-.49.15-.56.11-1.12,0-1.68-.02-.09-.01-.19-.13-.27-.21-.14-.32-1.64-.26-1.84.16-.5.23-1,.33-1.51.02-.07-.03-.14.09-.22.28-.18.21-.33.22-.49.01-.22.04-.43.11-.66.03-.11.18-.24.29-.36.1-.11.5-.12.55-.09.14.08.32-.03.48-.06.06-.01.13-.03.17-.03.09,0,1.05,1.14,1.08,1.28.05.03.46,1.86.53,2.07.04.11-.02.23-.05.34,0,.05.32,1.53.29,1.6-.03.31.07.62-.18.94-.05.06-.04.13-.03.19.03.53-.08,1.07-.15,1.6-.04.27-.02.54-.04.81,0,.05-.04.1-.06.15-.02.06-.06.12-.06.18-.01.64-.18,1.28-.14,1.92,0,.15-.29.84-.31,1-.01.09-.42.38-.38.46Z"/><path class="cls-1" d="M75.86,21.9c-.09.23-.37.21-.75.06-.12-.05-.37-.31-.37-.39.01-.16.02-.32.05-.46.03-.08.66-1.13.85-1.52.19-.37.42-.69.66-1.01l1.47-1.95c.11-.14.24-.27.39-.38.52-.37.92-.84,1.29-1.36.06-.09.14-.16.14-.3-.03-.26,1.18-1.48,1.4-1.59.27-.12.52-.26.77-.4l.38-.2c.14-.05.29-.09.44-.14.08-.03.13-.1.27-.05.32.11.43-.02.59-.1.22-.11.44-.21.7-.27.13-.03.3,0,.45.01.14,0,.27.27.27.32-.02.14.13.2.22.29.03.03.07.07.08.1.01.05-.44,1.51-.5,1.64,0,0-.07.12-.17.28-.09.17-.22.39-.4.56-.33.38-.66.78-.72.87-.06.1-.19.12-.3.17-.05.02-.97,1.24-1.04,1.25-.26.18-.43.46-.83.51-.08,0-.12.06-.16.11-.38.39-.85.69-1.3,1.03-.23.17-.41.38-.62.57-.04.03-.1.05-.14.07-.06.03-.13.06-.17.1-.48.47-1.04.85-1.48,1.36-.1.11-.79.48-.9.62-.07.08-.5.11-.53.2Z"/><path class="cls-1" d="M81.98,35.07c-.19.11-.37-.07-.56-.41-.06-.1-.08-.39-.03-.46.1-.15.21-.22.33-.31.07-.05,1.22-.37,1.61-.49.38-.12.76-.17,1.14-.2.77-.09,1.54-.09,2.3-.11.17,0,.34.01.51.06.57.14,1.15.15,1.72.1.1,0,.19,0,.29-.07.16-.12,1.7-.16,1.89-.11.49.14.98.21,1.47.31.07.01.14-.02.21.07.16.22.3.17.46.17.21.01.42.03.63.08.11.03.22.15.33.25.1.09.09.44.06.48-.09.12,0,.28.03.42,0,.05.02.11.02.15,0,.1-1.24.77-1.39.76-.03,0-1.86.18-2.11.21-.11.02-.22-.04-.33-.07-.07,0-1.52.09-1.58.1-.3-.04-.6.03-.9-.17-.06-.04-.12-.03-.18-.03-.52,0-1.03-.09-1.54-.15-.26-.03-.52-.02-.78-.03-.05,0-.09-.03-.14-.04-.06-.02-.12-.04-.18-.04-.61,0-1.23-.15-1.84-.09-.14,0-.82-.19-.98-.16-.09.01-.4-.23-.48-.18Z"/></svg>