<svg width="128" height="128" viewBox="0 0 128 128" fill="none" xmlns="http://www.w3.org/2000/svg">
<path d="M82.3 23.69C81.92 24.45 81.51 25.19 81.08 25.92C80.92 26.18 80.8 26.47 80.63 26.73C80.01 27.64 79.26 28.46 78.48 29.22C78.12 29.55 77.79 29.9 77.41 30.2C76.95 30.61 76.42 30.96 75.84 31.17C75.49 31.32 75.73 30.71 76.16 30.23C76.98 29.41 77.54 28.42 78.29 27.52C78.73 26.97 79.01 26.28 79.38 25.66C79.78 24.97 80.15 24.26 80.5 23.53C80.72 23.09 80.91 22.62 81.11 22.17C81.38 21.47 81.67 20.76 81.85 20.03C82 19.46 82 18.87 82.09 18.3C82.11 18.18 82.11 18.05 82.14 17.92C82.24 17.46 82.39 17.34 82.85 17.33C82.96 17.33 83.06 17.32 83.16 17.33C83.51 17.36 83.75 17.61 83.79 17.99C83.95 19.12 83.66 20.24 83.29 21.32C83.02 22.13 82.68 22.91 82.33 23.69H82.29H82.3Z" fill="#231F20"/>
<path d="M32.8702 41.47C33.0202 41.47 32.7102 41.42 32.8102 41.45C32.8402 41.46 32.9502 41.5 32.8202 41.45C32.6502 41.38 32.8402 41.48 32.8502 41.48C32.8302 41.48 32.7002 41.34 32.7902 41.44C32.8202 41.47 32.8502 41.51 32.8802 41.53C32.9602 41.6 32.7902 41.39 32.8402 41.48C32.8802 41.55 32.9302 41.61 32.9602 41.68C32.9802 41.72 33.0002 41.76 33.0202 41.8C33.0702 41.9 32.9602 41.63 32.9902 41.74C33.0102 41.82 33.0402 41.89 33.0602 41.97C33.0802 42.05 33.0902 42.15 33.1202 42.23C33.1102 42.2 33.1002 42.03 33.1102 42.15C33.1102 42.19 33.1102 42.24 33.1202 42.28C33.1202 42.36 33.1202 42.44 33.1202 42.52C33.1202 42.56 33.1202 42.59 33.1202 42.63C33.1202 42.67 33.1002 42.82 33.1202 42.67C33.1402 42.53 33.1202 42.65 33.1202 42.68C33.1202 42.72 33.1002 42.77 33.0902 42.81C33.0702 42.89 33.0502 42.96 33.0302 43.04C33.0202 43.07 33.0102 43.11 33.0002 43.14C32.9502 43.27 32.9802 43.16 33.0202 43.1C32.9802 43.17 32.9502 43.24 32.9102 43.31C32.8702 43.38 32.8302 43.45 32.7902 43.51C32.7702 43.54 32.7502 43.57 32.7302 43.6C32.8402 43.41 32.7802 43.53 32.7302 43.59C32.4302 43.93 32.3702 44.49 32.7302 44.83C33.0602 45.13 33.6502 45.2 33.9702 44.83C34.6102 44.1 34.9802 43.11 34.8602 42.13C34.7402 41.07 34.1302 39.71 32.8602 39.74C32.4002 39.75 31.9602 40.13 31.9902 40.61C32.0202 41.09 32.3702 41.5 32.8602 41.48L32.8702 41.47Z" fill="#231F20"/>
<path d="M99.0298 63.25C100.38 63.03 101.59 61.87 101.87 60.53C102.17 59.05 101.52 57.53 100.25 56.73C99.8598 56.48 99.2698 56.64 99.0498 57.04C98.8198 57.47 98.9498 57.97 99.3598 58.24C99.4198 58.28 99.4798 58.32 99.5398 58.36C99.4398 58.29 99.4898 58.32 99.5498 58.38C99.6398 58.46 99.7098 58.55 99.7998 58.63C99.8698 58.7 99.7198 58.51 99.8098 58.65C99.8498 58.71 99.8898 58.77 99.9298 58.83C99.9598 58.88 99.9898 58.93 100.02 58.99C100.06 59.07 100.08 59.12 100.04 59.01C100.08 59.12 100.12 59.23 100.15 59.35C100.17 59.42 100.18 59.49 100.2 59.56C100.24 59.73 100.2 59.46 100.2 59.57C100.2 59.69 100.21 59.8 100.2 59.92C100.2 59.98 100.2 60.04 100.19 60.1C100.21 59.88 100.19 60.1 100.17 60.15C100.14 60.26 100.1 60.37 100.07 60.48C100.13 60.3 100.08 60.45 100.07 60.49C100.04 60.54 100.02 60.59 99.9898 60.64C99.9498 60.7 99.9198 60.76 99.8798 60.82C99.7898 60.96 99.9398 60.76 99.8798 60.84C99.7998 60.93 99.7298 61.01 99.6398 61.09C99.5998 61.13 99.5498 61.17 99.5098 61.21C99.3398 61.36 99.6498 61.12 99.4698 61.24C99.3698 61.3 99.2798 61.36 99.1698 61.42C99.1298 61.44 98.9298 61.51 99.1298 61.45C99.0898 61.46 99.0398 61.48 98.9998 61.5C98.8698 61.54 98.7298 61.57 98.5998 61.6C98.1498 61.67 97.8498 62.26 97.9898 62.68C98.1498 63.17 98.5798 63.37 99.0698 63.29L99.0298 63.25Z" fill="#231F20"/>
<path d="M99.31 11.68C99.36 11.74 99.45 11.9 99.31 11.66C99.34 11.71 99.38 11.75 99.4 11.8C99.45 11.88 99.49 11.97 99.54 12.06C99.4 11.83 99.5 11.96 99.53 12.05C99.54 12.09 99.56 12.13 99.57 12.17C99.6 12.28 99.62 12.39 99.64 12.5L99.61 12.27C99.64 12.49 99.64 12.72 99.61 12.94L99.64 12.71C99.63 12.81 99.61 12.9 99.58 13C99.57 13.05 99.55 13.11 99.53 13.16C99.52 13.19 99.45 13.37 99.51 13.21C99.57 13.05 99.5 13.23 99.48 13.26C99.46 13.3 99.43 13.35 99.41 13.39C99.39 13.43 99.36 13.47 99.33 13.51C99.25 13.63 99.48 13.33 99.33 13.5C99.03 13.84 98.97 14.4 99.33 14.74C99.66 15.04 100.24 15.11 100.57 14.74C101.64 13.53 101.63 11.66 100.55 10.46C100.24 10.12 99.62 10.12 99.31 10.46C98.98 10.82 98.98 11.33 99.31 11.7V11.68Z" fill="#231F20"/>
<path d="M108.39 25.89C108.37 25.96 108.35 26.03 108.33 26.09L108.42 25.88C108.37 26 108.3 26.11 108.23 26.22L108.37 26.04C108.29 26.14 108.2 26.23 108.09 26.31L108.27 26.17C108.17 26.24 108.07 26.3 107.96 26.35L108.17 26.26C108.06 26.31 107.94 26.34 107.82 26.35L108.05 26.32C107.93 26.33 107.8 26.33 107.68 26.32L107.91 26.35C107.79 26.33 107.67 26.3 107.55 26.25L107.76 26.34C107.63 26.29 107.52 26.22 107.41 26.14L107.59 26.28C107.5 26.21 107.43 26.13 107.36 26.04C107.23 25.88 106.94 25.78 106.74 25.78C106.53 25.78 106.27 25.88 106.12 26.04C105.97 26.2 105.85 26.43 105.86 26.66L105.89 26.89C105.93 27.04 106.01 27.17 106.12 27.28C106.65 27.95 107.61 28.22 108.43 28.02C109.25 27.82 109.89 27.15 110.08 26.35C110.19 25.91 109.94 25.38 109.47 25.27C109 25.16 108.51 25.41 108.39 25.88V25.89Z" fill="#231F20"/>
<path d="M39.4798 61.81C39.5398 61.36 39.6498 60.91 39.7798 60.48L40.1498 59.18C40.5098 58.35 40.8098 57.5 41.2498 56.73C41.5698 56.17 41.8098 55.56 42.1598 55.02C42.8298 54.1 43.4498 53.16 44.2398 52.35C44.6198 51.94 44.9698 51.5 45.3698 51.12L46.6098 50.01C47.3098 49.33 48.1098 48.75 48.8398 48.12C49.0798 47.92 49.3098 47.71 49.5498 47.52C49.8098 47.35 50.0798 47.19 50.3398 47.02C50.8698 46.69 51.4198 46.39 51.9898 46.15C52.3498 46 52.3098 46.04 52.1298 46.34C51.9398 46.64 51.6798 47.29 51.1998 47.79C50.3598 48.72 49.4998 49.55 48.6298 50.4C48.1898 50.81 47.8198 51.29 47.3898 51.72C46.9798 52.16 46.5198 52.56 46.1198 53.01C45.0798 54.03 44.3198 55.35 43.6198 56.63C43.2498 57.35 42.8498 58.05 42.5898 58.81C42.4498 59.19 42.2798 59.55 42.1598 59.94L41.8398 61.1C41.6798 61.57 41.6398 62.07 41.5598 62.56L41.4498 63.3L41.4298 64.04C41.3298 65.54 41.5698 67.06 42.0198 68.48C42.4298 69.57 43.0098 70.56 43.6998 71.45C43.8498 71.65 44.0098 71.83 44.1498 72.03C44.7298 72.74 44.8198 73.04 44.5398 73.58C44.4798 73.7 44.4298 73.83 44.3498 73.94C44.1098 74.31 43.5798 74.23 42.9698 73.72C42.0798 72.95 41.3198 71.98 40.7098 70.9C40.1198 69.81 39.7298 68.6 39.4698 67.37C39.3398 66.92 39.3398 66.45 39.2798 65.98C39.2298 65.52 39.1798 65.05 39.1998 64.58L39.2298 63.18L39.4198 61.8H39.4698L39.4798 61.81Z" fill="#231F20"/>
<path d="M82.6802 25.5499C81.8702 26.6899 80.9802 27.7699 79.9802 28.7399C79.6302 29.0999 79.3202 29.4999 78.9402 29.8299C78.2902 30.4299 77.5902 30.9899 76.8802 31.5099C76.1402 31.9999 75.4202 32.4999 74.6602 32.9399C74.0102 33.3599 73.3302 33.7399 72.6802 34.1399L71.3302 34.7499C70.8702 34.9299 70.4002 35.0699 69.9302 35.2199C69.6402 35.3099 69.6602 35.2599 69.8602 35.0699C70.0602 34.8899 70.3902 34.4999 70.8202 34.1399L71.9302 33.1699C72.3002 32.8599 72.6902 32.5799 73.0702 32.2899C73.8102 31.7099 74.5602 31.1299 75.3302 30.5299C76.2402 29.8299 77.0402 28.9199 77.8202 28.0499C78.6802 27.0799 79.4902 26.0799 80.2502 25.0299C80.7302 24.3899 81.1602 23.7099 81.5802 23.0299C81.8702 22.4999 82.1702 21.9699 82.4502 21.4299C82.7002 20.8799 82.9702 20.3299 83.1602 19.7599C83.3102 19.3099 83.4302 18.8599 83.5202 18.4099C83.5902 17.9499 83.6902 17.4999 83.8002 17.0499C83.8502 16.8499 83.8702 16.6499 83.9202 16.4499C84.1102 15.7199 84.3202 15.5199 84.8802 15.4699C85.0102 15.4599 85.1402 15.4399 85.2602 15.4399C85.6802 15.4399 85.9402 15.8399 85.9602 16.4499C85.9902 17.3599 85.9602 18.2999 85.7302 19.2099C85.4702 20.1099 85.1702 21.0099 84.7702 21.8699C84.2102 23.1699 83.4702 24.3799 82.7202 25.5699L82.6702 25.5399L82.6802 25.5499Z" fill="#231F20"/>
<path d="M75.2899 96.95C76.4499 97.85 77.5399 98.87 78.5599 99.93C78.9499 100.31 79.3199 100.7 79.6799 101.1C80.8899 102.57 82.0099 104.16 82.7599 105.93C82.9099 106.33 83.0699 106.72 83.2299 107.12C83.3799 107.52 83.4899 107.93 83.6199 108.33C83.9099 109.37 84.0599 110.48 83.8199 111.55C83.7199 111.88 83.7599 111.83 83.6099 111.56C83.4099 111.29 83.1399 110.81 82.9699 110.27C82.5899 109.31 82.2799 108.38 81.8499 107.47C81.4099 106.57 80.9199 105.7 80.4499 104.78C80.1499 104.24 79.7999 103.71 79.3699 103.24C78.9699 102.74 78.5199 102.28 78.0799 101.82C77.1299 100.78 76.0699 99.84 74.9999 98.89C74.3199 98.34 73.6499 97.76 72.9299 97.26C71.8599 96.47 70.7499 95.7 69.5899 95.05C68.6999 94.52 67.7699 94.11 66.8599 93.65C66.6599 93.55 66.4499 93.47 66.2499 93.36C65.4999 92.97 65.3099 92.76 65.2999 92.38C65.2999 92.29 65.2799 92.2 65.2999 92.12C65.3399 91.86 65.7399 91.82 66.3499 92.01C68.1399 92.57 69.9799 93.35 71.6599 94.41C72.9199 95.18 74.1499 96.02 75.3199 96.93L75.2999 96.96L75.2899 96.95Z" fill="#231F20"/>
<path d="M41.9001 103.73C42.9001 102.34 44.0001 101.04 45.1801 99.81C45.5901 99.35 45.9801 98.87 46.4201 98.44C47.9901 96.93 49.6601 95.52 51.3901 94.24C52.1401 93.64 52.9301 93.09 53.6901 92.52L55.2001 91.48C55.7401 91.19 56.3201 90.96 56.8901 90.74C57.2501 90.61 57.3201 90.83 57.2001 91.25C57.0801 91.66 56.8201 92.33 56.3501 92.83C55.4501 93.61 54.5501 94.38 53.6501 95.16C52.7201 95.89 51.7801 96.62 50.8301 97.37C49.6701 98.24 48.7501 99.44 47.7801 100.54C47.2301 101.14 46.7401 101.78 46.2101 102.39C45.7201 103.04 45.2001 103.66 44.7201 104.31C44.1301 105.12 43.5401 105.93 43.0201 106.78C42.2101 108.06 41.4501 109.39 40.8401 110.77C40.4001 111.86 40.1301 112.99 39.8701 114.11L39.7101 114.85C39.4701 115.76 39.2101 115.99 38.4301 115.97C38.2501 115.97 38.0701 115.97 37.9001 115.96C37.3201 115.89 36.9901 115.37 37.0601 114.62C37.2701 112.4 38.0801 110.18 39.1401 108.12C39.9301 106.58 40.8501 105.11 41.8301 103.69L41.8901 103.72L41.9001 103.73Z" fill="#231F20"/>
<path d="M72.3999 19.1299C70.7399 19.0099 69.0699 18.8599 67.3999 18.7699C66.7899 18.7299 66.1799 18.7699 65.5699 18.7299C63.4099 18.5899 61.2599 18.4499 59.0999 18.3099C58.1399 18.2399 57.1799 18.2299 56.2299 18.2199C55.0099 18.1999 53.7799 18.2799 52.5599 17.9699C52.1799 17.8799 52.2399 17.5999 52.5599 17.2599C52.8899 16.9499 53.4799 16.4499 54.1799 16.4199C55.4199 16.3199 56.6599 16.2399 57.8999 16.1999C58.5199 16.1799 59.1399 16.1699 59.7699 16.1799C60.3899 16.2099 61.0199 16.2499 61.6499 16.3099C63.1499 16.4599 64.7099 16.3099 66.2499 16.3199C67.9399 16.3299 69.6299 16.3799 71.3299 16.4299L74.4599 16.5799C76.0399 16.6499 77.6199 16.7799 79.1999 16.8099C80.4198 16.8399 81.6299 16.7199 82.8599 16.7099C83.1299 16.7099 83.3999 16.6699 83.6699 16.6899C84.6799 16.7299 84.9699 16.9999 85.0999 17.7499C85.1299 17.9199 85.1699 18.0899 85.1799 18.2499C85.2099 18.7899 84.7499 19.2699 84.0299 19.3599C81.8899 19.6299 79.6799 19.5299 77.4399 19.4399C75.7699 19.3599 74.0999 19.2799 72.4299 19.1999V19.1299H72.3999Z" fill="#231F20"/>
<path d="M72.59 25.42C71.29 25.3 69.97 25.21 68.66 25.14C68.18 25.11 67.7 25.16 67.22 25.12C65.52 24.98 63.82 24.83 62.12 24.73C61.37 24.68 60.61 24.7 59.86 24.69C58.9 24.64 57.93 24.74 56.97 24.41C56.67 24.31 56.71 24.2 56.97 23.99C57.1 23.88 57.28 23.74 57.49 23.57C57.71 23.43 57.96 23.34 58.24 23.3C60.19 22.98 62.14 22.95 64.11 23.07C65.29 23.15 66.52 22.99 67.73 22.96C69.06 22.96 70.4 22.99 71.73 23.02L74.2 23.11C75.45 23.15 76.7 23.26 77.94 23.27C78.91 23.29 79.87 23.16 80.84 23.11C81.05 23.1 81.27 23.06 81.48 23.07C82.27 23.1 82.51 23.31 82.58 24.07C82.6 24.24 82.63 24.42 82.63 24.59C82.63 25.17 82.26 25.61 81.69 25.71C80 25.99 78.28 25.87 76.53 25.76C75.23 25.68 73.92 25.55 72.61 25.49V25.43L72.59 25.42Z" fill="#231F20"/>
<path d="M52.5902 56.23C54.1702 56.3 55.7602 56.34 57.3602 56.35C57.9402 56.35 58.5202 56.28 59.1002 56.29C61.1602 56.34 63.2202 56.39 65.2802 56.43C66.1902 56.45 67.1102 56.37 68.0202 56.35C69.1802 56.33 70.3502 56.16 71.5302 56.59C71.9002 56.77 71.8502 56.87 71.5602 57.22C71.2702 57.63 70.7202 58.15 70.0602 58.29C67.7202 58.78 65.3602 58.82 62.9602 58.69C61.5202 58.62 60.0402 58.78 58.5702 58.82C56.9602 58.85 55.3402 58.84 53.7202 58.83L50.7302 58.78C49.2202 58.76 47.7002 58.67 46.2002 58.67C45.0302 58.66 43.8802 58.79 42.7102 58.81C42.4502 58.81 42.2002 58.85 41.9402 58.83C40.9802 58.79 40.7002 58.51 40.5702 57.82C40.5402 57.66 40.5002 57.5 40.4902 57.34C40.4602 56.81 40.9002 56.4 41.5802 56.27C43.6202 55.99 45.7102 56 47.8302 56.05C49.4102 56.08 51.0002 56.15 52.6002 56.15V56.22L52.5902 56.23Z" fill="#231F20"/>
<path d="M69.32 66.26C67.6 66.21 65.87 66.18 64.14 66.16C63.51 66.16 62.88 66.22 62.25 66.21C60.02 66.15 57.79 66.09 55.56 66.03C54.57 66.01 53.58 66.03 52.6 66.06C51.34 66.12 50.07 66.12 48.81 65.74C48.42 65.6 48.48 65.47 48.81 65.18C49.15 64.86 49.76 64.44 50.47 64.32C51.11 64.18 51.74 64.16 52.38 64.15L54.29 64.1C55.57 64.08 56.85 64.09 58.14 64.14C59.69 64.22 61.28 64.01 62.86 63.96L68.08 63.84L71.3 63.8C72.93 63.77 74.56 63.8 76.18 63.76C77.44 63.73 78.68 63.55 79.93 63.48C80.21 63.46 80.48 63.41 80.76 63.42C81.8 63.42 82.12 63.63 82.29 64.36C82.33 64.53 82.38 64.69 82.4 64.86C82.46 65.42 82.01 65.86 81.28 65.98C79.09 66.33 76.81 66.35 74.5 66.37C72.78 66.36 71.04 66.34 69.31 66.33V66.27L69.32 66.26Z" fill="#231F20"/>
<path d="M52.5899 72.58C53.7899 72.62 54.9999 72.65 56.2099 72.66C56.6498 72.66 57.0899 72.59 57.5299 72.6C59.0998 72.67 60.6799 72.75 62.2399 72.82C62.9399 72.84 63.6399 72.85 64.3299 72.85C64.7799 72.87 65.2198 72.8 65.6698 72.91C66.1199 73.01 66.5599 73.14 66.9999 73.28C67.2699 73.38 67.2298 73.51 66.9898 73.74C66.7498 73.95 66.3098 74.36 65.8098 74.55C64.0398 75.06 62.2899 74.99 60.4799 74.85C59.3999 74.74 58.2798 74.96 57.1698 74.98C55.9498 75.01 54.7199 75.01 53.4899 75.02H51.2199C50.0699 74.99 48.9098 74.97 47.7598 74.94C46.8698 74.94 45.9699 75.08 45.0599 75.03C44.8599 75.03 44.6599 75.03 44.4599 75.02C43.6999 74.92 43.5199 74.59 43.4899 74.01C43.4899 73.87 43.4699 73.73 43.4799 73.6C43.5099 73.17 43.8799 72.83 44.3999 72.69C45.1499 72.59 45.8998 72.49 46.6698 72.46C47.4298 72.46 48.2198 72.46 49.0098 72.47C50.1798 72.49 51.3899 72.52 52.5899 72.51V72.57V72.58Z" fill="#231F20"/>
<path d="M70.5402 104.83C69.0902 104.71 67.6302 104.61 66.1602 104.53C65.6302 104.5 65.0902 104.55 64.5602 104.52C62.6702 104.41 60.7802 104.28 58.8902 104.2C58.0502 104.16 57.2102 104.2 56.3702 104.23C55.3002 104.24 54.2202 104.38 53.1502 104.04C52.8202 103.91 52.8602 103.57 53.1502 103.13C53.4302 102.66 53.9502 102.15 54.5602 102.1C55.1002 102.05 55.6502 101.99 56.1902 101.97C56.7302 101.97 57.2802 101.97 57.8202 101.98C58.9102 102.01 60.0002 102.07 61.1102 102.2C62.4302 102.35 63.8002 102.22 65.1502 102.23C66.6302 102.25 68.1202 102.3 69.6102 102.37L72.3602 102.5C73.7502 102.56 75.1402 102.7 76.5202 102.73C77.5902 102.77 78.6602 102.67 79.7302 102.65C79.9702 102.65 80.2002 102.62 80.4402 102.63C81.3202 102.68 81.5802 102.88 81.6802 103.59C81.7002 103.75 81.7402 103.91 81.7402 104.07C81.7602 104.61 81.3502 105 80.7202 105.09C78.8302 105.34 76.9002 105.24 74.9402 105.15C73.4802 105.06 72.0202 104.97 70.5602 104.89V104.83H70.5402Z" fill="#231F20"/>
<path d="M71.29 112.61C69.38 112.53 67.46 112.44 65.53 112.4C64.83 112.38 64.13 112.44 63.43 112.42C60.95 112.35 58.46 112.28 55.99 112.2C54.89 112.16 53.78 112.17 52.69 112.18C51.29 112.21 49.87 112.26 48.47 111.82C48.03 111.69 48.09 111.59 48.47 111.34C48.73 111.17 48.99 110.99 49.23 110.83C49.55 110.65 49.92 110.52 50.32 110.44C51.03 110.29 51.74 110.24 52.45 110.21L54.59 110.1C56.02 110.02 57.45 110.06 58.9 110.17C60.63 110.29 62.42 110.12 64.19 110.1C66.13 110.08 68.08 110.1 70.03 110.14L73.63 110.24C75.45 110.29 77.27 110.41 79.08 110.45C80.48 110.49 81.87 110.4 83.27 110.4C83.58 110.4 83.88 110.37 84.19 110.4C85.34 110.47 85.69 110.68 85.85 111.39C85.89 111.55 85.94 111.71 85.96 111.87C86.01 112.41 85.5 112.8 84.67 112.86C82.21 113.06 79.66 112.94 77.08 112.86C75.17 112.79 73.24 112.7 71.31 112.66V112.6L71.29 112.61Z" fill="#231F20"/>
<path d="M77.8702 56.01C76.5302 54.05 74.8302 52.15 73.0402 50.49C71.2202 48.83 69.1902 47.36 67.0602 46C65.5002 45.01 63.8602 44.14 62.2402 43.22C59.3802 41.59 56.4302 40.01 53.5702 38.25C50.7002 36.5 47.8702 34.58 45.4002 32.19C43.1902 30.1 41.2702 27.63 39.8902 24.9C39.0202 23.14 38.3502 21.28 37.9402 19.36C37.8302 18.88 37.7702 18.4 37.6902 17.92C37.6202 17.44 37.5302 16.96 37.5502 16.47V15.01C37.5802 14.52 37.7102 14.04 37.8202 13.56C38.2202 12.37 38.1202 12.55 38.6302 13.52C39.2102 14.51 40.1702 16.19 40.5302 18.16C41.2602 21.67 42.7102 24.93 44.9002 27.74C47.0702 30.57 49.9802 32.91 53.0902 35.05C56.8402 37.61 61.2502 39.57 65.4002 41.93C67.6902 43.23 69.9502 44.61 72.1002 46.2C74.2502 47.78 76.2502 49.63 78.0102 51.62C80.1702 54.09 82.1402 56.92 83.0502 60.24C83.7602 62.73 83.7302 65.45 83.0502 67.92C82.3602 70.41 81.1802 72.63 79.8702 74.73C77.8002 77.97 75.3502 80.88 72.5802 83.48C71.9702 84.05 71.3602 84.6 70.7002 85.12C68.2502 87.04 67.2502 87.34 66.2802 87.09C66.0602 87.03 65.8002 87 65.6402 86.91C65.0902 86.61 65.8302 85.49 67.4502 84.02C69.8302 81.81 72.2102 79.55 74.3502 77.08C76.4702 74.62 78.3502 71.86 79.5602 68.93C80.0302 67.87 80.2902 66.77 80.4802 65.68C80.6402 64.58 80.6302 63.48 80.4902 62.38C80.3102 61.28 79.9902 60.2 79.5502 59.13C79.0702 58.08 78.5002 57.04 77.8102 56.06L77.8702 56.01Z" fill="#231F20"/>
<path d="M81.94 26.93C80.91 28.37 79.81 29.76 78.56 31C78.13 31.48 77.7 31.95 77.23 32.38C75.54 33.88 73.71 35.2 71.77 36.29C70.92 36.79 70.06 37.28 69.21 37.75C68.1 38.31 66.98 38.96 65.66 38.99C65.22 38.92 65.26 38.86 65.44 38.42C65.53 38.19 65.67 37.93 65.83 37.62C66.01 37.34 66.25 37.11 66.55 36.94C67.57 36.27 68.64 35.75 69.67 35.14C70.2 34.86 70.7 34.53 71.22 34.22C71.75 33.92 72.25 33.6 72.76 33.26C73.39 32.88 73.95 32.4 74.49 31.88C75.05 31.39 75.53 30.8 76.06 30.28C76.63 29.7 77.15 29.06 77.69 28.45C78.17 27.79 78.73 27.18 79.18 26.48C79.46 26.06 79.77 25.65 80.04 25.22L80.82 23.91C81.2 23.24 81.54 22.54 81.89 21.85C82.19 21.14 82.52 20.43 82.76 19.7C82.94 19.13 83.08 18.55 83.21 17.98L83.49 16.23C83.54 15.98 83.55 15.72 83.6 15.46C83.79 14.52 84.05 14.26 84.8 14.2C84.97 14.19 85.14 14.16 85.31 14.16C85.87 14.18 86.23 14.67 86.23 15.44C86.27 17.74 85.54 20.04 84.58 22.24C83.88 23.88 82.97 25.43 82 26.93L81.94 26.9V26.93Z" fill="#231F20"/>
<path d="M44.4101 74.08C47.5401 77.88 51.6601 81.04 55.9401 83.96C57.5201 85.03 59.1501 86.02 60.7301 87C63.5401 88.75 66.5201 90.31 69.4601 92.04C72.4001 93.76 75.3101 95.66 77.9601 97.88C80.3001 99.85 82.5401 102.12 84.1101 104.81C85.1301 106.53 85.9001 108.41 86.3701 110.34C86.8101 112.29 86.9101 114.29 86.6701 116.23C86.3601 117.44 86.3801 117.26 85.9401 116.27C85.5101 115.27 84.7601 113.52 84.1601 111.56C83.3001 108.02 81.5101 104.85 78.9201 102.28C76.3401 99.7 73.2001 97.5 69.9301 95.48C65.9901 93.07 61.4801 91.04 57.3301 88.37C52.8901 85.48 48.4001 82.47 44.5101 78.63C42.1601 76.26 39.9601 73.58 38.6701 70.36C37.6701 67.96 37.2001 65.25 37.5501 62.64C37.8301 60 38.9501 57.56 40.3301 55.44C42.5301 52.14 45.2601 49.4 48.1301 46.9C48.7601 46.35 49.3801 45.8 50.0301 45.27C52.4701 43.32 53.3901 42.94 54.4101 43.17C54.6401 43.22 54.9001 43.23 55.0701 43.31C55.6201 43.54 54.9901 44.81 53.2801 46.3C50.7601 48.52 48.1701 50.71 45.8601 53.12C43.5901 55.52 41.5801 58.21 40.8201 61.15C40.2001 63.3 40.2801 65.66 40.9501 67.84C41.6201 70.04 42.9001 72.13 44.4801 74.01L44.4301 74.06L44.4101 74.08Z" fill="#231F20"/>
<path d="M103.41 60.19C103.28 61.37 102.59 62.43 101.63 62.99C101.29 63.19 100.92 63.39 100.55 63.44C99.9199 63.6 99.1899 63.55 98.5699 63.29C97.9399 63.03 97.4299 62.55 97.1499 61.97C96.8999 61.47 96.7699 60.88 96.8899 60.3C96.9899 59.94 97.1599 59.55 97.4999 59.34C97.7999 59.1 98.1799 59.01 98.5199 59.02C98.7399 59.02 98.7099 59.2 98.5899 59.43C98.5299 59.54 98.4599 59.66 98.3799 59.77C98.3199 59.9 98.2499 60 98.1799 60.07C97.7299 60.54 98.0499 61.52 98.7499 61.97C99.1799 62.28 99.8199 62.11 100.36 61.89C100.92 61.66 101.35 61.17 101.5 60.55C101.59 60.18 101.59 59.77 101.46 59.4C101.27 58.85 100.83 58.29 100.25 58.06C99.7999 57.87 99.3299 57.98 99.0999 58.16C99.0399 58.19 98.9999 58.25 98.9599 58.3C98.7799 58.43 98.6099 58.37 98.1199 58.06L97.7799 57.86C97.4199 57.64 97.2499 57.2 97.5799 56.72C98.0799 56.02 99.1199 55.65 100.01 55.76C100.91 55.86 101.63 56.33 102.21 56.88C103.06 57.69 103.59 58.98 103.46 60.19H103.41Z" fill="#231F20"/>
<path d="M109.87 28.87C109.49 29.16 109.04 29.36 108.57 29.45C108.09 29.54 107.58 29.48 107.16 29.33C106.85 29.22 106.55 29.1 106.31 28.89C105.47 28.18 105.17 26.97 105.51 26.04C105.65 25.64 105.85 25.27 106.12 24.97C106.44 24.56 106.95 24.28 107.47 24.3C107.64 24.3 107.63 24.49 107.57 24.71C107.51 24.92 107.45 25.22 107.34 25.36C106.94 25.87 106.75 26.35 106.77 26.83C106.78 27.16 107.13 27.41 107.4 27.56C107.71 27.74 108.02 27.78 108.37 27.61C108.58 27.51 108.77 27.33 108.89 27.12C109.07 26.8 109.09 26.45 108.88 26.15C108.72 25.91 108.38 25.84 108.15 25.83C108.1 25.83 108.05 25.85 108 25.85C107.84 25.85 107.81 25.74 107.64 25.27L107.51 24.96C107.37 24.62 107.46 24.23 107.88 24.09C109.11 23.72 110.65 24.49 111 26.06C111.22 27.26 110.63 28.3 109.9 28.9L109.87 28.87Z" fill="#231F20"/>
<path d="M100.22 13.36C100.48 13.27 100.71 13.05 100.79 12.8C100.82 12.71 100.78 12.62 100.78 12.51C100.8 12.1 100.53 11.58 100.06 11.48C99.8499 11.43 99.5999 11.51 99.3999 11.64C99.1799 11.85 98.9299 11.98 98.6999 12.28C98.6199 12.37 98.4599 12.36 98.2799 12.2C98.0999 12.05 97.8899 11.68 97.9999 11.31C98.1699 10.64 98.7899 10.25 99.3999 10.06C100.04 9.85998 100.84 10.01 101.34 10.42C101.93 10.9 102.48 11.46 102.64 12.23C102.81 13.09 102.5 13.96 101.99 14.54C101.68 14.91 101.28 15.18 100.85 15.37C100.18 15.65 99.4399 15.66 98.7199 15.41C98.1799 15.23 97.5299 14.8 97.2999 14.12C97.2499 13.97 97.1899 13.82 97.1899 13.65C97.1999 13 97.5399 12.81 98.0299 13.01C98.1499 13.05 98.2599 13.1 98.3699 13.16C98.7199 13.38 98.9799 13.63 99.1399 13.64C99.2399 13.66 99.3399 13.66 99.4099 13.64C99.4799 13.62 99.4299 13.63 99.3599 13.69L99.3099 13.74L99.4599 13.55L99.5099 13.47C99.5099 13.47 99.5499 13.47 99.5899 13.47C99.7299 13.47 99.9299 13.47 100.17 13.36L100.21 13.4L100.22 13.36Z" fill="#231F20"/>
<path d="M91.59 38.1C91.39 38.12 91.19 38.24 91.09 38.4C91.06 38.46 91.09 38.52 91.07 38.6C90.99 38.9 91.13 39.35 91.48 39.48C91.64 39.54 91.84 39.51 92.01 39.42C92.2 39.27 92.41 39.21 92.65 39.01C92.73 38.95 92.88 38.97 93.03 39.13C93.19 39.27 93.35 39.63 93.22 39.94C93.01 40.51 92.44 40.77 91.9 40.88C91.34 40.99 90.66 40.78 90.27 40.38C89.81 39.91 89.38 39.39 89.32 38.7C89.25 37.94 89.62 37.22 90.11 36.79C90.41 36.51 90.78 36.32 91.16 36.2C91.76 36.04 92.38 36.11 92.97 36.38C93.42 36.58 93.95 37 94.09 37.62C94.12 37.75 94.16 37.89 94.14 38.05C94.07 38.62 93.74 38.75 93.31 38.51C93.21 38.46 93.11 38.4 93.01 38.33C92.73 38.09 92.43 37.83 92.43 37.87C92.36 37.85 92.25 37.84 92.21 37.85C92.17 37.85 92.2 37.85 92.25 37.82L92.29 37.79L92.14 37.94C92.14 37.94 92.09 38 92.07 38.04C92 38.18 92.03 38.13 92 38.14C91.93 38.14 91.8 38.09 91.61 38.14L91.58 38.1H91.59Z" fill="#231F20"/>
<path d="M34.5302 45.1C34.0302 45.29 33.4902 45.37 32.9602 45.31C32.4202 45.25 31.9002 45.01 31.5102 44.7C31.2302 44.47 30.9602 44.23 30.7902 43.93C30.1902 42.9 30.2802 41.5 31.0602 40.68C31.3802 40.32 31.7602 40.04 32.1802 39.85C32.4402 39.7 32.7502 39.69 33.0402 39.7C33.3302 39.7 33.6202 39.78 33.8702 39.93C34.0302 40.02 33.9402 40.15 33.7802 40.29C33.6102 40.42 33.3902 40.65 33.2102 40.75C33.0202 40.79 32.9302 41.07 32.7802 41.08C32.6402 41.15 32.5102 41.24 32.4002 41.34C32.1802 41.54 32.0202 41.74 31.9202 42.02C31.7902 42.38 32.0402 42.82 32.3002 43.08C32.5902 43.39 32.9302 43.52 33.3602 43.43C33.6202 43.37 33.8802 43.23 34.0702 43.03C34.3302 42.72 34.5102 42.35 34.3202 41.96C34.1902 41.65 33.8102 41.52 33.5602 41.47C33.5002 41.46 33.4402 41.47 33.4002 41.45C33.2302 41.4 33.2202 41.28 33.1202 40.74L33.0402 40.38C32.9502 39.99 33.1202 39.59 33.6302 39.51C35.1302 39.3 36.5402 40.63 36.5402 42.39C36.5302 43.05 36.3002 43.68 35.9202 44.14C35.5402 44.6 35.0802 44.93 34.5802 45.15L34.5602 45.11L34.5302 45.1Z" fill="#231F20"/>
<path d="M20.1598 29.99C19.6898 29.92 19.2298 29.75 18.8298 29.46C18.4698 29.17 18.2198 28.81 18.0398 28.45C17.9198 28.19 17.7798 27.95 17.7198 27.68C17.5198 26.76 17.6898 25.85 18.0898 25.11C18.2698 24.79 18.4598 24.47 18.7298 24.21C19.0698 23.89 19.5698 23.63 20.0498 23.74C20.1998 23.77 20.1698 23.91 20.0898 24.09C19.9998 24.26 19.9198 24.52 19.8298 24.64C19.5298 25.11 19.2898 25.58 19.1298 26.15C19.0298 26.51 19.2098 26.9 19.3698 27.19C19.5598 27.51 19.8298 27.7 20.0598 27.81C20.2398 27.87 20.4398 27.9 20.5998 27.87C20.7998 27.83 21.0298 27.71 21.1198 27.5C21.1398 27.44 21.1598 27.38 21.1598 27.31C21.1598 27.09 20.9698 26.89 20.7798 26.62C20.7398 26.56 20.6798 26.51 20.6398 26.45C20.5198 26.2 20.6098 26.05 21.0598 25.74L21.3698 25.53C21.7198 25.31 22.0898 25.26 22.3498 25.43C22.6998 25.66 22.9698 25.99 23.1698 26.48C23.3798 26.97 23.4398 27.77 23.1798 28.38C23.1198 28.5 23.0598 28.63 22.9898 28.75C22.4098 29.7 21.1798 30.16 20.1698 30.04V29.99H20.1598Z" fill="#231F20"/>
</svg>
