<svg width="128" height="128" viewBox="0 0 128 128" fill="none" xmlns="http://www.w3.org/2000/svg">
<path d="M56.9902 46.56C56.7102 47.24 56.4302 47.93 56.1402 48.61C56.0302 48.86 55.9802 49.12 55.8702 49.37C55.4602 50.23 55.0002 51.07 54.4702 51.89C54.2502 52.27 54.0302 52.63 53.8102 53C53.6502 53.24 53.5102 53.48 53.2502 53.67C53.1302 53.77 53.0102 53.86 52.8802 53.94C52.7202 54.01 52.5602 54.06 52.4102 54.1C52.2102 54.15 52.1802 53.93 52.1802 53.64C52.1902 53.34 52.1202 53.04 52.1902 52.78C52.2302 52.67 52.2702 52.6 52.3002 52.48C52.3202 52.36 52.3602 52.25 52.4302 52.17C52.5502 52 52.6402 51.76 52.7602 51.56C52.9802 51.14 53.2202 50.7 53.4902 50.26C53.8202 49.73 53.9702 49.09 54.1802 48.49C54.4202 47.83 54.6702 47.16 54.8902 46.49C55.0302 46.07 55.1702 45.66 55.2802 45.24C55.4502 44.6 55.6702 43.96 55.7702 43.31C55.8502 42.81 55.8002 42.29 55.7902 41.78C55.7902 41.67 55.7902 41.56 55.8202 41.45C55.8702 41.05 56.2502 40.97 56.6102 40.92C56.7002 40.91 56.7802 40.89 56.8602 40.89C56.9902 40.89 57.1002 40.93 57.2302 41.02C57.3602 41.11 57.5502 41.26 57.6402 41.44C57.8702 41.96 57.9002 42.46 57.8702 42.95C57.8502 43.45 57.7702 43.94 57.6802 44.43C57.5502 45.16 57.2702 45.86 57.0502 46.56H57.0002H56.9902Z" fill="#231F20"/>
<path d="M33.9399 71.88C34.2799 72.53 34.5699 73.2 34.8499 73.87C34.9599 74.11 35.0899 74.33 35.1799 74.58C35.4999 75.45 35.7099 76.35 35.9699 77.22C36.0799 77.61 36.2499 77.97 36.3599 78.36C36.5199 78.84 36.6799 79.33 36.7299 79.85C36.7399 80.01 36.5899 80.05 36.3699 79.99C36.1499 79.93 35.8399 79.78 35.6699 79.54C35.0299 78.68 34.6699 77.73 34.3999 76.73C34.2399 76.13 33.8799 75.59 33.6399 75.02C33.3699 74.39 33.0799 73.77 32.7599 73.17C32.5599 72.8 32.3599 72.43 32.1299 72.08C31.7899 71.55 31.4299 71.02 30.9999 70.56C30.6499 70.22 30.2299 69.97 29.8299 69.72C29.7399 69.67 29.6399 69.61 29.5599 69.56C29.2799 69.29 29.3199 69.05 29.4899 68.69C29.5299 68.61 29.5599 68.52 29.5999 68.45C29.6699 68.33 29.7699 68.25 29.9099 68.19C30.0499 68.14 30.2399 68.09 30.4099 68.14C31.4199 68.41 32.1399 69.2 32.7799 69.98C33.2499 70.57 33.6399 71.22 34.0099 71.86L33.9699 71.88H33.9399Z" fill="#231F20"/>
<path d="M57.1101 100.92C56.3201 100.56 55.5101 100.25 54.6801 99.95C54.3801 99.85 54.0601 99.79 53.7601 99.68C52.6901 99.32 51.6001 98.99 50.5001 98.68C50.0101 98.54 49.5101 98.45 49.0201 98.36C48.3901 98.23 47.7601 98.05 47.1401 97.82C46.9501 97.75 46.9801 97.69 47.1701 97.61C47.3501 97.54 47.6901 97.4 48.0801 97.37C48.4201 97.35 48.7601 97.32 49.1001 97.33C49.4301 97.37 49.7601 97.41 50.0901 97.45C50.7501 97.56 51.4101 97.67 52.0501 97.88C52.8201 98.13 53.6501 98.25 54.4501 98.46C55.3301 98.69 56.1901 98.98 57.0501 99.28C57.5801 99.48 58.1001 99.68 58.6201 99.89C59.4101 100.21 60.1801 100.59 60.9401 100.95C61.5301 101.24 62.1501 101.46 62.7401 101.76C62.8701 101.83 63.0101 101.88 63.1301 101.95C63.5801 102.26 63.6201 102.5 63.5001 102.86C63.4701 102.95 63.4501 103.03 63.4101 103.11C63.2901 103.37 62.9601 103.45 62.5701 103.37C61.4801 103.02 60.4601 102.55 59.4401 102.03C58.6801 101.65 57.9001 101.27 57.0901 100.94V100.9L57.1101 100.92Z" fill="#231F20"/>
<path d="M78.1 60.69C77.86 60.93 77.63 61.18 77.37 61.39C77.28 61.47 77.2 61.57 77.11 61.65C76.77 61.91 76.41 62.19 76.08 62.44C75.93 62.56 75.8 62.7 75.66 62.82C75.47 62.97 75.27 63.11 75.04 63.21C74.97 63.24 74.92 63.18 74.91 63.06C74.89 62.95 74.88 62.76 74.94 62.63C75.12 62.12 75.5 61.84 75.89 61.54C76.13 61.37 76.29 61.11 76.49 60.89C76.7 60.65 76.94 60.42 77.17 60.19C77.31 60.05 77.45 59.9 77.58 59.75C77.78 59.52 77.99 59.3 78.15 59.05C78.29 58.86 78.38 58.65 78.5 58.45C78.53 58.41 78.55 58.36 78.58 58.32C78.69 58.16 78.79 58.16 78.97 58.22L79.09 58.27C79.22 58.33 79.28 58.46 79.27 58.63C79.18 59.08 79.08 59.57 78.78 59.91C78.58 60.19 78.36 60.44 78.14 60.7L78.12 60.68L78.1 60.69Z" fill="#231F20"/>
<path d="M17.9799 75.5101C17.9799 75.5101 28.07 68.8101 28.93 69.4701C29.79 70.1301 33.77 77.4001 35.25 80.8401C36.7299 84.2801 37.6999 86.8601 36.0099 88.7401C34.3199 90.6201 26.3799 97.2501 26.3799 97.2501C26.3799 97.2501 22.16 94.4101 22.87 89.7501C23.58 85.0901 24.71 82.6701 21.03 82.8201C17.35 82.9701 17.9799 75.5101 17.9799 75.5101Z" fill="#231F20"/>
<path d="M100.8 65.98C100.82 66.53 100.49 67.13 100.18 67.7C99.99 67.98 99.78 68.26 99.58 68.52L99.28 68.87L99.08 69.09C98.54 69.66 97.99 70.19 97.42 70.69C97.01 71.06 96.64 71.46 96.21 71.8C94.7 73 93.1 74.06 91.44 75.01C90.7 75.43 89.97 75.87 89.22 76.26C88.74 76.53 88.23 76.72 87.7 76.88C87.17 77.03 86.61 77.14 86.04 77.08C85.69 77.05 85.73 76.93 85.96 76.67C86.2 76.42 86.56 75.92 87.04 75.65C87.88 75.08 88.76 74.6 89.63 74.06C90.49 73.5 91.36 72.94 92.25 72.37C93.32 71.69 94.24 70.73 95.16 69.84C95.67 69.35 96.16 68.85 96.64 68.33C96.87 68.07 97.1 67.81 97.32 67.55C97.45 67.38 97.48 67.36 97.54 67.29C97.59 67.23 97.65 67.17 97.7 67.1C97.82 66.93 97.97 66.74 98.01 66.51C98.03 66.39 97.95 66.3 97.86 66.24C97.78 66.17 97.68 66.12 97.57 66.08C97.41 66.02 97.24 65.98 97.06 65.98C96.87 65.97 96.71 65.98 96.37 66.03C95.77 66.13 95.14 66.32 94.53 66.55C93.58 66.92 92.71 67.49 91.8 67.99C91.6 68.1 91.41 68.24 91.2 68.32C90.41 68.65 90.08 68.58 89.66 68.05C89.56 67.93 89.46 67.81 89.38 67.69C89.11 67.26 89.27 66.74 89.77 66.32C90.5 65.67 91.34 65.2 92.22 64.74C93.11 64.29 94.05 63.89 95.15 63.58C95.36 63.53 95.55 63.47 95.78 63.43L96.12 63.37L96.29 63.34L96.55 63.32C96.9 63.3 97.25 63.25 97.6 63.3L98.13 63.34L98.62 63.46C98.97 63.52 99.22 63.71 99.52 63.83C99.76 64.02 100.04 64.18 100.22 64.41C100.66 64.79 100.9 65.42 100.87 65.96L100.8 65.98Z" fill="#231F20"/>
<path d="M105.85 49.19C106.64 49.08 107.19 49.22 107.66 49.46C107.88 49.57 108.18 49.82 108.36 50.11L108.53 50.53C108.57 50.68 108.59 50.83 108.62 50.99C108.66 51.64 108.5 52.35 108.22 53.1C107.9 53.86 107.43 54.67 106.8 55.42C106.59 55.7 106.37 55.97 106.13 56.24L105.86 56.56L105.65 56.8C105.37 57.12 105.07 57.42 104.76 57.7C102.55 59.65 100.22 61.27 97.8601 62.85C96.8101 63.54 95.7901 64.28 94.7801 65C93.4801 65.93 92.2101 66.89 90.6901 67.49C90.2001 67.65 90.1801 67.52 90.3501 67.03C90.4901 66.5 90.8601 65.68 91.5301 65.05C92.7201 63.92 94.0301 62.98 95.2801 61.97C96.5401 60.97 97.8401 60.02 99.1801 59.13C100.77 58.04 102.18 56.61 103.47 55.22L103.96 54.69C104.03 54.63 104.09 54.55 104.16 54.48C104.3 54.33 104.44 54.16 104.57 53.96C104.7 53.77 104.83 53.54 104.91 53.29C104.94 53.17 105 53.02 104.96 52.9C104.89 52.79 104.77 52.81 104.66 52.81C104.11 52.88 103.61 53.08 102.85 53.41C101.03 54.28 99.1801 55.2 97.4301 56.22C96.0601 57.02 94.8101 57.95 93.5001 58.82C93.2101 59.01 92.9401 59.22 92.6401 59.4C91.5001 60.04 91.0301 60.05 90.4501 59.53C90.3201 59.41 90.1701 59.3 90.0601 59.17C89.7001 58.73 89.9501 58.08 90.6701 57.47C92.8201 55.66 95.3301 54.1 97.9301 52.62C98.8901 52.07 99.8901 51.56 100.91 51.06L101.7 50.68C102.19 50.43 102.68 50.22 103.17 50.01C103.66 49.78 104.13 49.63 104.61 49.44C105.06 49.32 105.53 49.15 105.92 49.12L105.88 49.21L105.85 49.19Z" fill="#231F20"/>
<path d="M111.27 43.31C111.25 44.06 110.85 44.88 110.21 45.65C109.9 46.04 109.54 46.4 109.17 46.75C108.92 46.98 108.72 47.15 108.49 47.34C107.6 48.07 106.71 48.73 105.8 49.37C105.14 49.84 104.52 50.35 103.85 50.79C101.49 52.33 99.0801 53.77 96.6301 55.12C95.5501 55.73 94.4901 56.39 93.4401 57.02C92.7701 57.43 92.0901 57.85 91.4101 58.24C90.7101 58.62 89.9901 58.94 89.2601 59.27C88.8001 59.47 88.8201 59.36 89.0901 59.01C89.3701 58.67 89.8601 58.01 90.5401 57.39C93.1001 55.44 95.6501 53.5 98.3701 51.77C100.04 50.8 101.6 49.53 103.16 48.35C104.02 47.7 104.87 47.05 105.69 46.38C106.47 45.75 107.45 44.83 107.63 44.65C107.83 44.43 108.11 44.16 108.11 43.81C108.09 43.62 107.92 43.56 107.78 43.5C107.63 43.46 107.46 43.42 107.29 43.42C107.16 43.42 107.03 43.4 106.9 43.42L106.41 43.45C105.93 43.52 105.45 43.57 104.96 43.67C103.99 43.84 103.02 44.1 102.07 44.38C100.59 44.83 99.2101 45.48 97.8201 46.11C97.5201 46.25 97.2301 46.41 96.9201 46.54C95.7801 47.03 95.3801 46.98 94.8301 46.48C94.7101 46.36 94.5601 46.26 94.4501 46.14C94.0701 45.74 94.3901 45.06 95.2201 44.5C96.4501 43.7 97.7701 43.08 99.1501 42.53C100.53 41.98 101.98 41.53 103.48 41.19C104.04 41.06 104.61 40.95 105.19 40.86L106.08 40.74L106.73 40.69C107.02 40.66 107.28 40.65 107.54 40.66C108.05 40.68 108.53 40.77 109.02 40.82C109.28 40.82 109.43 40.96 109.64 41.03C109.83 41.12 110.05 41.18 110.22 41.29C110.51 41.56 110.85 41.76 111.04 42.15C111.24 42.53 111.34 42.94 111.33 43.32L111.26 43.34L111.27 43.31Z" fill="#231F20"/>
<path d="M88.0898 39.1999C87.3298 41.4799 86.4098 43.6599 85.4598 45.8099C85.1098 46.5899 84.8298 47.4099 84.4498 48.1699C83.1398 50.8999 81.5898 53.4899 80.0598 56.0699C79.3798 57.2099 78.7298 58.3799 78.0698 59.5299C77.1698 60.9699 76.3898 62.5199 74.9298 63.5799C74.4598 63.8899 74.4398 63.7899 74.4298 63.2299C74.3898 62.6599 74.3298 61.6399 74.7298 60.7799L75.8798 58.5299C76.2698 57.7799 76.6998 57.0499 77.0998 56.3099C77.9198 54.8299 78.7598 53.3499 79.6298 51.8799C80.6698 50.1099 81.4398 48.1199 82.2898 46.2099C83.2198 44.1099 84.1198 41.9899 84.8698 39.8199C85.3398 38.4899 85.7598 37.1499 86.0698 35.7899C86.2998 34.7699 86.4998 33.7299 86.5598 32.7199C86.5598 32.4699 86.5898 32.2199 86.5798 31.9699V31.6799C86.5698 31.5999 86.5598 31.5299 86.5398 31.4499C86.4998 31.1399 86.4098 30.8399 86.2398 30.5899C86.2298 30.5699 86.2098 30.5499 86.1898 30.5299C86.1098 30.4599 86.0398 30.3599 85.9298 30.3299C85.8198 30.2999 85.6998 30.3399 85.5998 30.3899C85.3898 30.5099 85.2198 30.6599 85.0798 30.8199C85.0098 30.8999 84.9498 30.9799 84.8798 31.0599C84.8198 31.1299 84.7798 31.1999 84.6398 31.3699C84.3998 31.6599 84.1698 31.9599 83.9398 32.2699C83.7398 32.5499 83.5498 32.8399 83.3498 33.1199C82.9898 33.6599 82.5898 33.8899 82.2998 34.0399C82.1398 34.1099 81.9898 34.1499 81.8298 34.1499C81.6498 34.1499 81.4698 34.1099 81.2898 34.0699C81.1198 34.0399 80.9598 34.0299 80.8398 33.9999C80.4998 33.9399 80.1698 33.0199 80.6298 32.0299C81.1098 30.9399 81.8298 29.9999 82.6698 29.0299C82.9798 28.6799 83.4498 28.3099 83.8498 27.9599L84.5098 27.5299C84.7298 27.3899 84.9598 27.3099 85.1898 27.2199C85.4198 27.1299 85.6498 27.1099 85.8698 27.0499C86.0998 27.0499 86.3298 27.0199 86.5598 27.0699C86.7998 27.0999 87.0198 27.1999 87.2298 27.3199C87.4698 27.3399 87.6398 27.5299 87.8498 27.6299L88.5198 28.3999C88.7098 28.6999 88.8498 29.0399 89.0198 29.3599C89.2298 30.0899 89.4798 30.8699 89.4798 31.6599C89.5398 33.0999 89.3398 34.3699 89.0898 35.5999C88.8398 36.8299 88.5098 38.0099 88.1498 39.1699L88.0798 39.1499L88.0898 39.1999Z" fill="#231F20"/>
<path d="M85.1602 27.35C84.4202 30.37 83.5502 33.31 82.4402 36.16C82.0402 37.2 81.7202 38.27 81.2902 39.3C79.7502 42.91 78.1102 46.47 76.2202 49.91C75.3802 51.44 74.5802 52.99 73.7102 54.49C73.1502 55.45 72.6202 56.44 71.9302 57.34C71.2202 58.22 70.4302 59.07 69.4502 59.72C68.7002 59.98 68.8202 59.91 68.9502 59.24C69.0002 58.89 69.1202 58.47 69.2402 57.95C69.3602 57.44 69.5102 56.87 69.7802 56.33L70.1202 55.6L70.5202 54.9L71.3002 53.48C71.8102 52.52 72.3002 51.55 72.7902 50.56C73.7602 48.59 74.7102 46.6 75.7902 44.64C77.0502 42.28 77.9402 39.63 78.8902 37.08C79.4202 35.68 79.9202 34.26 80.4302 32.85C80.9402 31.44 81.4302 30.02 81.8602 28.59C82.3902 26.83 82.8702 25.05 83.1402 23.27C83.2402 22.6 83.3102 21.92 83.2902 21.29C83.2702 20.87 83.2802 20.46 82.9802 20.17C82.8202 20.03 82.6102 20.06 82.4102 20.09C82.2102 20.1 82.0202 20.19 81.8402 20.27C81.6702 20.37 81.3602 20.54 81.1402 20.74C80.8902 20.91 80.6702 21.15 80.4502 21.38C79.0602 22.86 78.2102 24.84 77.1302 26.7C76.9002 27.12 76.6902 27.54 76.4202 27.95C76.1902 28.33 75.9602 28.65 75.7602 28.9C75.5502 29.14 75.3102 29.31 75.1302 29.43C74.9402 29.56 74.7602 29.64 74.5802 29.68C74.3802 29.71 74.1902 29.7 74.0302 29.69C73.8802 29.69 73.7302 29.71 73.6402 29.69C73.4102 29.69 73.2802 28.7 73.7402 27.53C74.5302 25.84 75.2602 23.97 76.4002 22.18C76.9702 21.28 77.6002 20.37 78.4202 19.49C78.6402 19.27 78.8502 19.06 79.0802 18.84L79.8602 18.23C80.0102 18.13 80.1702 18.05 80.3202 17.96C80.5002 17.88 80.7202 17.71 80.9502 17.64C81.4102 17.48 81.9102 17.33 82.3802 17.28H83.4302C83.7802 17.28 84.0902 17.43 84.3902 17.59C84.9802 17.95 85.4102 18.49 85.6702 19.16C85.7802 19.5 85.8902 19.85 85.9302 20.23C85.9502 20.42 85.9902 20.6 86.0002 20.79L86.0202 21.26C86.0202 21.72 86.0002 22.16 85.9602 22.58C85.8502 24.27 85.5602 25.82 85.2302 27.37H85.1602V27.35Z" fill="#231F20"/>
<path d="M87.1202 61.06C85.5702 65.37 83.7602 69.54 81.7502 73.63C81.0102 75.12 80.3102 76.63 79.4902 78.09C78.7602 79.37 77.9702 80.65 77.1102 81.86L74.6302 85.41C72.9902 87.78 71.3902 90.18 69.8602 92.61C68.5002 94.77 67.2502 97.01 66.1302 99.27C65.4202 100.73 64.7202 102.18 64.0802 103.65C63.7702 104.39 63.4402 105.11 63.0602 105.83C62.8702 106.19 62.7302 106.56 62.5502 106.92C62.3702 107.28 62.1702 107.64 62.0202 108.01C61.5702 108.93 61.5802 108.83 61.4402 107.9C61.3602 107.44 61.2102 106.75 61.2102 105.94C61.1902 105.53 61.2102 105.1 61.2402 104.63C61.2502 104.4 61.2902 104.17 61.3002 103.92C61.3602 103.69 61.4402 103.47 61.5202 103.23C61.8102 102.41 62.1202 101.61 62.4502 100.81C62.7602 100 63.1402 99.24 63.5302 98.48C64.3202 96.97 65.1402 95.48 66.0202 94.03C67.7602 91.12 69.6402 88.31 71.6202 85.56C72.8102 83.92 73.9602 82.21 75.1202 80.49C76.2402 78.83 77.2102 77.05 78.1602 75.24C80.2302 71.28 82.0802 67.16 83.7002 62.97C84.6902 60.39 85.6002 57.77 86.3102 55.12C86.7102 53.59 87.0602 52.05 87.2402 50.52C87.3002 50.14 87.3102 49.76 87.3402 49.38C87.3502 49.19 87.3402 49.01 87.3402 48.82C87.3402 48.67 87.3402 48.57 87.3302 48.46C87.3002 48.02 87.2202 47.53 86.8802 47.2C86.7802 47.11 86.6502 46.99 86.5002 47.06C86.3702 47.12 86.2502 47.21 86.1502 47.31C85.9502 47.51 85.7702 47.74 85.6102 47.98C85.5202 48.11 85.2702 48.49 85.0602 48.82C84.8502 49.16 84.6502 49.5 84.4502 49.85C84.0602 50.54 83.6802 51.25 83.3102 51.96C82.5802 53.38 81.8102 54.79 81.0302 56.21C80.6802 56.83 80.3602 57.46 79.9802 58.08C79.2802 59.24 78.6702 59.93 78.1802 60.38C77.6902 60.83 77.2402 60.98 76.8202 60.98C76.6402 60.99 76.4202 61 76.3302 60.95C76.1702 60.85 76.2702 60.68 76.3902 60.24C76.5002 59.78 76.8402 59.17 77.2302 58.31C78.3702 56 79.4802 53.51 80.7202 51.02C81.3902 49.79 82.0702 48.56 82.8602 47.33L83.1602 46.86L83.3502 46.58C83.4402 46.44 83.5502 46.3 83.6602 46.17C84.0702 45.61 84.5102 45.09 84.9702 44.68C85.4402 44.29 85.9202 44.01 86.4002 43.94C86.5202 43.92 86.6502 43.91 86.7702 43.9C86.9002 43.9 87.0302 43.95 87.1602 43.97L87.3602 44.03H87.4102C87.4502 43.94 87.4502 44.03 87.4702 44.01L87.5602 44.05L87.9302 44.2C88.2302 44.45 88.5202 44.64 88.7702 44.91C88.9802 45.24 89.2702 45.48 89.3902 45.92L89.6602 46.62C89.7302 46.87 89.7602 47.16 89.8102 47.42C89.8502 47.69 89.9102 47.96 89.9402 48.24C89.9602 48.53 89.9502 48.79 89.9502 48.92C89.9502 49.58 89.9102 50.21 89.8302 50.82C89.6902 52.05 89.4502 53.22 89.1802 54.37C88.6402 56.67 87.9502 58.89 87.1902 61.07L87.1302 61.05L87.1202 61.06Z" fill="#231F20"/>
<path d="M53.23 34.17C53.03 33.5 52.87 32.83 52.61 32.31C52.48 32.07 52.34 31.82 52.2 31.67C52.12 31.57 52.06 31.53 52.04 31.5C52 31.47 51.96 31.44 51.92 31.43C51.77 31.34 51.65 31.5 51.57 31.6C51.55 31.57 51.24 32.09 51.05 32.51C50.84 32.94 50.66 33.41 50.49 33.88C50.15 34.83 49.88 35.81 49.67 36.81C49.49 37.7 49.4 38.61 49.35 39.51C49.27 40.67 49.41 41.8 49.31 42.96C49.26 43.33 49.1 43.33 48.77 43.07C48.4 42.82 47.95 42.26 47.85 41.54C47.49 39.02 47.64 36.49 48.34 34.05C48.55 33.3 48.76 32.55 48.97 31.8C49.1 31.39 49.19 31.07 49.42 30.58C49.69 30.02 50.02 29.45 50.49 29.11C50.75 28.93 51.06 28.81 51.38 28.78C51.7 28.78 52.03 28.78 52.34 28.87C52.67 28.91 52.96 29.09 53.27 29.19C53.58 29.37 53.78 29.5 53.99 29.69C54.83 30.41 55.29 31.27 55.68 32.09C56.13 33.12 56.37 34.16 56.6 35.19C56.93 36.75 57.07 38.31 57.29 39.83C57.46 41.01 57.78 42.17 57.95 43.35C57.99 43.61 58.06 43.86 58.07 44.12C58.1 45.1 57.87 45.41 57.1 45.63C56.92 45.68 56.75 45.75 56.58 45.78C55.99 45.88 55.48 45.5 55.23 44.82C54.85 43.81 54.62 42.79 54.43 41.75C54.27 40.71 54.15 39.67 54.01 38.64C53.8 37.11 53.6 35.58 53.18 34.23L53.25 34.2L53.23 34.17Z" fill="#231F20"/>
<path d="M103.37 37.81C104.02 37.18 104.62 36.51 105.09 35.84C105.15 35.76 105.21 35.67 105.25 35.59C105.3 35.51 105.36 35.41 105.37 35.4C105.4 35.36 105.43 35.32 105.45 35.27C105.5 35.18 105.53 35.05 105.47 34.94C105.45 34.9 105.41 34.87 105.37 34.86C105.24 34.84 105.12 34.9 105 34.91C103.95 35.14 102.73 35.54 101.6 35.95C100.45 36.37 99.3102 36.83 98.1902 37.33C97.2002 37.78 96.2302 38.3 95.2802 38.81C94.6702 39.14 94.0802 39.51 93.4902 39.86L92.6102 40.38C92.3302 40.57 91.9602 40.64 91.6502 40.79C91.2502 40.96 91.2002 40.86 91.3002 40.4C91.3502 40.17 91.4402 39.85 91.5802 39.46C91.7402 39.11 92.0102 38.81 92.3302 38.54C93.5202 37.63 94.7302 36.8 96.0102 36.1C97.3202 35.44 98.6602 34.85 100.05 34.36C100.88 34.07 101.71 33.72 102.56 33.39C102.98 33.22 103.42 33.06 103.86 32.9L104.2 32.79C104.26 32.77 104.3 32.76 104.38 32.73L104.65 32.66C105.01 32.56 105.37 32.5 105.72 32.47C106.12 32.44 106.46 32.53 106.81 32.65C107.05 32.83 107.35 32.99 107.51 33.26C107.61 33.38 107.68 33.52 107.74 33.67C107.81 33.81 107.86 33.96 107.88 34.11C107.99 34.72 107.88 35.39 107.6 36C107.53 36.15 107.48 36.33 107.4 36.45L107.22 36.77C107.1 36.98 106.96 37.16 106.84 37.36C106.57 37.73 106.29 38.09 106.01 38.43C105.19 39.39 104.3 40.24 103.4 41.06C102.02 42.31 100.54 43.41 99.0602 44.5C97.9002 45.34 96.8102 46.24 95.5402 47C95.2602 47.16 94.9902 47.35 94.6802 47.48C93.5302 47.99 92.9802 47.88 92.6202 47.22C92.5402 47.07 92.4402 46.92 92.3902 46.76C92.2502 46.21 92.5602 45.75 93.1702 45.39C95.0402 44.27 97.1202 42.86 99.1202 41.37C100.6 40.25 102.07 39.07 103.34 37.76L103.39 37.8L103.37 37.81Z" fill="#231F20"/>
<path d="M22.6099 71.55C23.5699 71.13 24.5299 70.7 25.4699 70.22C25.8099 70.05 26.1199 69.82 26.4699 69.65C27.6899 69.04 28.9199 68.43 30.1499 67.83C30.6899 67.55 31.2099 67.23 31.7099 66.9C32.3399 66.46 33.0099 66.05 33.7999 65.86C34.0599 65.82 34.1399 66 34.1299 66.36C34.1299 66.73 34.0299 67.27 33.7099 67.6C33.1699 68.21 32.4999 68.63 31.8499 69.09C31.1899 69.53 30.5199 69.96 29.7799 70.28C28.8899 70.66 28.0999 71.28 27.2499 71.77C26.3099 72.3 25.3499 72.81 24.3799 73.3L22.5899 74.19C21.6799 74.64 20.7499 75.04 19.8599 75.5C19.1699 75.86 18.5499 76.35 17.8799 76.76C17.7299 76.85 17.5999 76.96 17.4399 77.04C16.8699 77.32 16.6099 77.24 16.2299 76.66C16.1399 76.53 16.0499 76.4 15.9799 76.26C15.7299 75.79 15.7999 75.29 16.1599 74.98C17.2199 74.04 18.4599 73.45 19.7299 72.85C20.6699 72.41 21.6399 71.99 22.5799 71.53L22.6099 71.58V71.55Z" fill="#231F20"/>
<path d="M64.31 36.62C62.4 40.39 60.51 44.2 58.39 47.95C57.3 49.81 56.24 51.7 54.86 53.52C54.13 54.42 53.43 55.35 52.09 56.13C51.77 56.32 51.27 56.5 50.82 56.58C50.6 56.6 50.32 56.63 50.15 56.61L49.68 56.58C49.07 56.54 48.43 56.43 47.8 56.25C46.88 55.98 45.98 55.54 45.21 54.93C44.45 54.32 43.84 53.59 43.35 52.85C42.37 51.35 41.79 49.79 41.31 48.26C40.7 46.35 40.31 44.39 39.85 42.6C39.61 41.7 39.36 40.82 39.03 40.07C38.86 39.73 38.67 39.36 38.48 39.18C38.36 39.01 38.24 38.97 38.08 38.92C37.67 38.92 37.51 38.97 37.2 39.43C36.92 39.9 36.73 40.66 36.63 41.43C36.42 43 36.48 44.72 36.62 46.42C36.9 49.83 37.51 53.27 38.19 56.69C38.66 59.05 39.2 61.38 39.7 63.79C39.96 65.08 40.05 66.23 40.24 67.43C40.41 68.62 40.58 69.79 40.79 70.96C41.31 73.95 42.03 76.88 43.18 79.6C44.31 82.33 45.84 84.86 47.67 87.24C48.6 88.92 48.44 88.8 46.83 88.06C46.39 87.91 45.99 87.59 45.49 87.25C44.99 86.91 44.48 86.47 43.94 85.96C42.9 84.92 41.69 83.58 40.91 81.84C39.46 78.8 38.62 75.56 38.04 72.39C37.75 70.8 37.51 69.22 37.31 67.65L37 65.3C36.92 64.68 36.75 63.89 36.59 63.15C35.93 60.1 35.25 56.99 34.72 53.84C34.2 50.68 33.75 47.49 33.73 44.16C33.74 42.76 33.77 41.33 34.16 39.78C34.36 39.01 34.67 38.17 35.37 37.37C35.72 36.97 36.22 36.63 36.76 36.43C37.03 36.36 37.32 36.27 37.58 36.24C37.83 36.24 38.11 36.23 38.41 36.24C38.67 36.28 38.92 36.35 39.17 36.43C39.4 36.55 39.65 36.65 39.86 36.81C40.31 37.14 40.6 37.51 40.83 37.84C41.3 38.52 41.56 39.17 41.82 39.81C42.31 41.09 42.63 42.34 42.96 43.57C43.59 45.99 44.25 48.39 45.3 50.41C46.19 52.12 47.4 53.28 49.14 53.59C49.36 53.62 49.57 53.68 49.8 53.69C50.01 53.69 50.32 53.75 50.36 53.72C50.47 53.72 50.52 53.69 50.66 53.64C50.8 53.57 50.96 53.47 51.12 53.35C51.78 52.84 52.42 52.05 53.02 51.25C54.22 49.61 55.25 47.77 56.22 45.91C57.2 44.04 58.12 42.14 59.03 40.22C61.28 35.5 63.4 30.7 65.81 26C66.82 24.06 67.87 22.13 69.11 20.25C69.74 19.32 70.39 18.39 71.25 17.53C71.47 17.31 71.68 17.12 71.98 16.89C72.29 16.66 72.62 16.44 72.97 16.29C73.66 15.97 74.49 15.93 75.17 16.27C75.44 16.45 75.75 16.57 75.98 16.79C76.21 17.02 76.45 17.23 76.67 17.46C76.85 17.74 77.02 18.03 77.15 18.27C77.28 18.53 77.34 18.79 77.43 19.05C77.73 20.08 77.79 21.09 77.76 22.05C77.69 23.98 77.33 25.8 76.89 27.58C75.33 33.65 73.11 39.31 70.48 44.83C69.9 46.04 69.34 47.24 68.7 48.44C67.52 50.67 66.61 52.08 65.83 52.98C65.07 53.9 64.44 54.31 63.8 54.53C63.52 54.63 63.18 54.79 62.99 54.79C62.66 54.78 62.75 54.39 63 53.53C63.24 52.65 63.83 51.39 64.58 49.75C66.91 44.95 69.04 39.85 71 34.7C71.98 32.13 72.91 29.52 73.59 26.9C73.93 25.6 74.21 24.29 74.34 23.04C74.48 21.82 74.47 20.55 74.18 19.87L74.13 19.72C74.13 19.72 74.08 19.67 74.06 19.64C74.06 19.62 74.08 19.64 74.07 19.64L73.91 19.79C73.45 20.24 72.9 20.91 72.41 21.62C71.41 23.06 70.49 24.7 69.6 26.36C67.86 29.71 66.1 33.14 64.39 36.6L64.31 36.57V36.62Z" fill="#231F20"/>
<path d="M36.4401 79.14C36.9101 80.1 37.3401 81.09 37.7301 82.13C37.9301 82.64 38.0701 83.21 38.2401 83.74L38.4201 84.62C38.4801 84.91 38.5401 85.2 38.5401 85.54L38.5801 86.25C38.6101 86.43 38.5601 86.9 38.5001 87.15C38.3601 87.75 38.1201 88.18 37.8701 88.57C36.9501 89.89 35.9101 90.77 34.8601 91.66C33.7901 92.51 32.6901 93.26 31.6101 94.03C30.6501 94.71 29.7101 95.41 28.7801 96.1C27.6301 97.04 26.3301 97.79 25.0701 98.57C24.6801 98.82 24.6801 98.74 24.8801 98.36C25.0801 98 25.4301 97.28 25.9801 96.58C26.4601 95.95 27.0101 95.43 27.5701 94.92L29.2401 93.38C30.3601 92.37 31.4801 91.38 32.6101 90.43C33.2801 89.85 33.9401 89.25 34.4901 88.57C35.0401 87.92 35.5301 87.17 35.7101 86.64C35.7301 86.58 35.7401 86.52 35.7601 86.46C35.7601 86.4 35.7901 86.43 35.7701 86.3L35.7401 85.71C35.6901 85.3 35.5901 84.85 35.4801 84.41C35.2101 83.51 34.8601 82.6 34.4401 81.71C33.9401 80.6 33.3401 79.51 32.7201 78.43C31.7601 76.8 30.7601 75.18 29.6501 73.64C28.7901 72.44 27.8001 71.37 26.8801 70.21C26.6801 69.95 26.4601 69.71 26.2601 69.44C25.5501 68.42 25.5601 67.88 26.0801 67.32C26.2001 67.19 26.3101 67.04 26.4501 66.94C26.9101 66.6 27.5301 66.78 28.1501 67.36C29.9201 69.18 31.7301 71.31 33.2701 73.64C34.4301 75.37 35.5001 77.2 36.5001 79.1L36.4401 79.14Z" fill="#231F20"/>
<path d="M42.3699 22.04C42.6199 22.1 42.6999 22.37 42.6999 22.73C42.6999 22.85 42.5399 23.1 42.4599 23.11C42.2999 23.12 42.1299 23.14 41.9699 23.14C41.8799 23.13 40.5499 22.78 40.0699 22.72C39.6199 22.64 39.1799 22.55 38.7899 22.35C37.9699 22 37.1499 21.68 36.3199 21.37C36.1399 21.3 35.9599 21.2 35.7999 21.09C35.2399 20.7 34.6299 20.41 33.9899 20.18C33.8799 20.14 33.7799 20.08 33.6499 20.12C33.4299 20.18 31.7499 19.49 31.5499 19.34C31.0699 18.96 30.5599 18.65 30.0499 18.32C29.9799 18.27 29.8799 18.27 29.8499 18.15C29.7699 17.86 29.5799 17.84 29.4099 17.76C29.1799 17.65 28.9699 17.49 28.7599 17.32C28.6499 17.25 28.5999 17.03 28.5099 16.88C28.4399 16.74 28.5799 16.51 28.6299 16.49C28.7699 16.44 28.7299 16.27 28.7599 16.16C28.7599 16.12 28.7799 16.07 28.7999 16.04C28.8599 15.88 30.4999 15.72 30.6499 15.8C30.6899 15.8 32.7899 16.37 33.0599 16.44C33.1899 16.46 33.2899 16.57 33.3999 16.65C33.4499 16.68 35.1599 17.15 35.2199 17.19C35.5499 17.35 35.9199 17.41 36.1599 17.76C36.2099 17.83 36.2799 17.85 36.3499 17.88C36.9199 18.13 37.4399 18.5 37.9699 18.84C38.2399 19.01 38.5299 19.14 38.8099 19.3C38.8599 19.33 38.8999 19.38 38.9399 19.42C38.9999 19.47 39.0499 19.53 39.1099 19.56C39.7799 19.91 40.3999 20.35 41.0499 20.74C41.1999 20.83 41.7899 21.47 41.9699 21.56C42.0699 21.62 42.2499 22.03 42.3499 22.05L42.3699 22.04Z" fill="#231F20"/>
<path d="M45.6199 18.17C45.7899 18.29 45.7199 18.55 45.5699 18.85C45.5199 18.95 45.2899 19.11 45.2199 19.09C45.0799 19.05 44.9299 19.02 44.7999 18.98C44.6499 18.88 43.7099 18.29 43.3499 18.06C43.0199 17.83 42.7499 17.56 42.4899 17.28C41.9399 16.72 41.4899 16.1 41.0399 15.46C40.9399 15.32 40.8699 15.16 40.8199 14.99C40.6599 14.41 40.3599 13.91 39.9999 13.43C39.9399 13.35 39.8999 13.26 39.7699 13.22C39.5399 13.17 38.7099 11.8 38.7399 11.55C38.7099 10.99 38.6099 10.47 38.5399 9.93997C38.5399 9.85997 38.4699 9.80997 38.5399 9.69997C38.7299 9.43997 38.6099 9.32997 38.6099 9.15997C38.5899 8.92997 38.5899 8.68997 38.6099 8.44997C38.6099 8.32997 38.7299 8.16997 38.7799 8.02997C38.8399 7.89997 39.0899 7.84997 39.1399 7.86997C39.2599 7.91997 39.3599 7.79997 39.4599 7.73997C39.4999 7.71997 39.5399 7.69997 39.5699 7.68997C39.6099 7.67997 39.9599 7.85997 40.2999 8.05997C40.4899 8.14997 40.6799 8.24997 40.8299 8.31997C40.9499 8.40997 41.0299 8.47997 41.0499 8.50997C41.0499 8.50997 41.1199 8.60997 41.2099 8.75997C41.3099 8.89997 41.4399 9.08997 41.5699 9.27997C41.8399 9.65997 42.1299 10.05 42.2099 10.12C42.2799 10.2 42.2799 10.31 42.2899 10.43C42.2899 10.49 43.0899 11.62 43.1099 11.67C43.2099 11.94 43.4199 12.15 43.3499 12.52C43.3299 12.59 43.3699 12.64 43.3999 12.69C43.6599 13.11 43.8099 13.59 44.0099 14.05C44.1099 14.29 44.2599 14.49 44.3799 14.71C44.3999 14.75 44.3999 14.81 44.4099 14.85C44.4199 14.91 44.4299 14.98 44.4599 15.02C44.7399 15.55 44.9299 16.15 45.2799 16.64C45.3699 16.74 45.4499 17.5 45.5599 17.62C45.5999 17.7 45.5399 18.11 45.6099 18.16L45.6199 18.17Z" fill="#231F20"/>
<path d="M50.4 16.9C50.51 17.03 50.31 17.16 49.94 17.3C49.82 17.35 49.46 17.38 49.4 17.34C49.29 17.27 49.18 17.2 49.09 17.13C49.04 17.09 48.71 16.31 48.58 16.04C48.45 15.78 48.38 15.51 48.37 15.25C48.33 14.71 48.28 14.16 48.27 13.61C48.27 13.49 48.29 13.37 48.34 13.25C48.5 12.84 48.53 12.44 48.51 12.02C48.51 11.95 48.53 11.88 48.45 11.8C48.39 11.74 48.37 11.42 48.4 11.11C48.44 10.8 48.51 10.48 48.56 10.42C48.68 10.26 48.77 10.09 48.87 9.92998C48.99 9.76998 49.1 9.61998 49.22 9.44998C49.25 9.40998 49.24 9.34998 49.35 9.31998C49.6 9.26998 49.59 9.15998 49.64 9.04998C49.71 8.90998 49.79 8.77998 49.9 8.64998C49.96 8.58998 50.09 8.54998 50.2 8.49998C50.3 8.45998 50.57 8.56998 50.59 8.59998C50.66 8.68998 50.81 8.66998 50.93 8.69998C50.97 8.69998 51.02 8.71998 51.05 8.72998C51.1 8.75998 51.48 9.69998 51.49 9.77998C51.49 9.77998 51.5 10.1 51.53 10.42C51.53 10.74 51.53 11.06 51.54 11.13C51.55 11.2 51.49 11.26 51.45 11.32C51.44 11.35 51.46 12.29 51.45 12.32C51.39 12.5 51.45 12.7 51.22 12.87C51.18 12.9 51.18 12.94 51.18 12.98C51.17 13.31 51.06 13.63 50.98 13.96C50.94 14.13 50.96 14.3 50.94 14.47C50.94 14.5 50.91 14.53 50.89 14.56C50.87 14.6 50.85 14.64 50.85 14.68C50.85 15.08 50.75 15.49 50.79 15.89C50.79 15.98 50.58 16.44 50.61 16.55C50.61 16.61 50.35 16.83 50.4 16.88V16.9Z" fill="#231F20"/>
<path d="M99.7201 100.57C99.8601 100.79 99.6901 101.05 99.3901 101.31C99.2901 101.39 98.9701 101.47 98.9001 101.42C98.7601 101.31 98.6201 101.21 98.5001 101.1C98.4401 101.03 97.6801 99.84 97.3501 99.46C97.0501 99.09 96.7801 98.71 96.6501 98.29C96.3201 97.45 95.9501 96.63 95.6001 95.79C95.5201 95.6 95.4801 95.41 95.4601 95.2C95.4501 94.48 95.2401 93.82 94.9701 93.18C94.9201 93.07 94.91 92.95 94.77 92.88C94.65 92.82 94.45 92.34 94.27 91.84C94.11 91.34 94.0201 90.8 94.0301 90.67C94.1001 90.01 94.0501 89.39 94.1001 88.74C94.1001 88.65 94.0501 88.57 94.1501 88.46C94.3801 88.21 94.2901 88.03 94.2801 87.84C94.2501 87.58 94.2501 87.31 94.2801 87.03C94.2901 86.89 94.4001 86.73 94.4801 86.58C94.5501 86.44 94.91 86.42 94.95 86.44C95.09 86.52 95.2301 86.39 95.3701 86.34C95.4201 86.32 95.48 86.3 95.52 86.3C95.59 86.3 96.7101 87.52 96.7901 87.66C96.7901 87.66 96.8601 87.8 96.9601 87.99C97.0601 88.18 97.2001 88.43 97.3201 88.69C97.5701 89.21 97.8501 89.75 97.9201 89.86C97.9901 89.97 97.9701 90.11 97.9701 90.24C98.0001 90.29 98.7101 91.87 98.7301 91.94C98.8001 92.29 99.0101 92.6 98.8601 93.02C98.8301 93.1 98.8601 93.17 98.8901 93.24C99.1301 93.81 99.1801 94.45 99.2601 95.08C99.3001 95.4 99.4101 95.7 99.4801 96.01C99.4901 96.07 99.4801 96.13 99.4701 96.19C99.4701 96.27 99.4501 96.35 99.4701 96.42C99.6701 97.15 99.7501 97.92 99.8901 98.66C99.9201 98.83 99.8001 99.73 99.8601 99.92C99.8801 100.03 99.6601 100.47 99.7201 100.55V100.57Z" fill="#231F20"/>
<path d="M107.99 93.17C108.16 93.3 108.13 93.55 108.04 93.82C108.01 93.91 107.82 94.05 107.75 94.03C107.62 93.99 107.48 93.95 107.35 93.91C107.29 93.87 106.28 93.25 105.91 93.07C105.57 92.88 105.27 92.66 104.98 92.44C104.4 91.97 103.76 91.58 103.17 91.15C103.05 91.05 102.94 90.92 102.86 90.78C102.56 90.29 102.14 89.92 101.66 89.62C101.58 89.57 101.52 89.5 101.38 89.52C101.16 89.55 99.9302 88.67 99.8402 88.45C99.5902 87.98 99.2702 87.57 98.9702 87.13C98.9302 87.07 98.8402 87.05 98.8602 86.92C98.9102 86.61 98.7702 86.54 98.6602 86.42C98.5102 86.26 98.3902 86.06 98.2902 85.83C98.2602 85.69 98.2702 85.5 98.2602 85.34C98.2502 85.2 98.4202 85.05 98.4702 85.04C98.6002 85.03 98.6102 84.88 98.6702 84.79C98.6902 84.76 98.7102 84.72 98.7402 84.7C98.7502 84.69 98.8602 84.68 99.0302 84.65C99.2102 84.61 99.4002 84.62 99.6102 84.62C100.01 84.63 100.41 84.69 100.48 84.72C100.49 84.72 100.91 84.96 101.35 85.2C101.79 85.44 102.25 85.69 102.36 85.73C102.47 85.77 102.52 85.89 102.58 85.99C102.61 86.03 103.88 86.86 103.92 86.92C104.13 87.16 104.43 87.3 104.5 87.7C104.51 87.78 104.57 87.81 104.62 87.85C105.03 88.21 105.36 88.65 105.67 89.1C105.82 89.34 106.01 89.54 106.18 89.76C106.21 89.8 106.22 89.86 106.24 89.91C106.27 89.97 106.28 90.04 106.32 90.09C106.73 90.6 107.03 91.19 107.45 91.68C107.56 91.79 107.77 92.53 107.88 92.65C107.94 92.73 107.93 93.13 108.01 93.18L107.99 93.17Z" fill="#231F20"/>
<path d="M111.57 80.55C111.74 80.49 111.88 80.7 111.98 81C112.01 81.1 111.98 81.38 111.93 81.42C111.83 81.51 111.74 81.6 111.64 81.67C111.61 81.69 111.37 81.77 111.11 81.88C110.85 82.01 110.56 82.13 110.42 82.2C110.14 82.35 109.87 82.42 109.59 82.5C109.03 82.65 108.46 82.72 107.87 82.85C107.74 82.88 107.6 82.87 107.46 82.85C106.97 82.76 106.5 82.83 106.01 82.94C105.93 82.96 105.84 82.95 105.77 83.05C105.66 83.22 104.23 83.34 104.04 83.24C103.58 83.06 103.14 82.85 102.72 82.64C102.66 82.61 102.59 82.63 102.55 82.51C102.46 82.25 102.32 82.25 102.19 82.19C102.02 82.11 101.85 82.01 101.69 81.88C101.61 81.82 101.55 81.67 101.49 81.55C101.43 81.44 101.55 81.15 101.58 81.12C101.68 81.04 101.65 80.88 101.68 80.75C101.68 80.71 101.7 80.65 101.71 80.62C101.72 80.58 102 80.46 102.28 80.32C102.56 80.19 102.84 80 102.89 80.02C102.92 80.06 104.23 79.85 104.36 79.85C104.44 79.83 104.51 79.89 104.59 79.93C104.63 79.96 105.65 79.75 105.7 79.75C105.92 79.77 106.14 79.67 106.39 79.86C106.44 79.9 106.49 79.88 106.53 79.88C106.93 79.81 107.35 79.86 107.78 79.88C108 79.88 108.22 79.84 108.44 79.83C108.48 79.83 108.52 79.86 108.57 79.87C108.62 79.88 108.68 79.91 108.73 79.9C109.26 79.83 109.8 80.02 110.33 79.98C110.46 79.96 111.04 80.27 111.17 80.27C111.25 80.27 111.49 80.57 111.56 80.54L111.57 80.55Z" fill="#231F20"/>
<path d="M33.4199 109.4L41.2299 96.65C41.2299 96.65 52.6499 98.49 57.7999 101.58C62.9399 104.68 64.4599 107.18 64.5399 108.4C64.6199 109.62 61.5799 120.16 61.5799 120.16C61.5799 120.16 57.0099 112.45 53.1599 113.86C48.1699 115.69 43.2799 114.01 42.4999 111.88C41.2299 108.4 33.4199 109.4 33.4199 109.4Z" fill="#231F20"/>
<path d="M36.6102 101.94C37.3202 100.95 37.9802 99.91 38.6202 98.87C38.8702 98.5 39.0202 98.08 39.2602 97.7C40.0802 96.35 40.8402 94.94 41.4502 93.46C41.7102 92.8 41.9402 92.13 42.1302 91.45L42.4902 90.14C42.5502 89.92 42.6102 89.7 42.6802 89.49C42.7402 89.27 42.8302 89.06 42.9902 88.86C43.1802 88.61 43.2502 88.66 43.4302 88.95C43.6602 89.24 43.8802 89.75 43.8202 90.29C43.7002 91.23 43.5602 92.18 43.3302 93.11C43.0902 94.03 42.7702 94.94 42.3602 95.81C41.8802 96.85 41.5502 98.01 41.0702 99.09C40.5602 100.28 39.9002 101.4 39.2202 102.49C38.8102 103.17 38.3702 103.83 37.9402 104.49C37.2902 105.49 36.5702 106.45 35.9402 107.45C35.4502 108.22 35.0602 109.05 34.6002 109.84C34.5002 110.02 34.4202 110.2 34.3102 110.37C33.8902 110.99 33.5902 111.06 32.9602 110.78C32.8202 110.72 32.6702 110.66 32.5302 110.59C32.0802 110.33 31.9102 109.83 32.0902 109.29C32.6602 107.73 33.4802 106.28 34.4602 104.94C35.1702 103.93 35.9002 102.94 36.5602 101.91L36.6202 101.94H36.6102Z" fill="#231F20"/>
<path d="M55.3 99.08C57.26 100.01 59.18 101.06 61.03 102.3C61.71 102.73 62.4301 103.17 63.0601 103.73C63.3401 103.98 63.6 104.27 63.8601 104.54L64.25 104.95L64.6101 105.44L64.96 105.93L65.13 106.17L65.3001 106.51C65.5501 106.97 65.6401 107.41 65.7301 107.85C65.8501 108.7 65.81 109.49 65.68 110.22C65.57 110.96 65.4 111.65 65.2 112.33C64.85 113.53 64.5001 114.71 64.0801 115.84C63.6101 117.32 62.86 118.69 62.01 119.98C61.74 120.38 61.6101 120.26 61.5201 119.79C61.4401 119.32 61.3 118.47 61.41 117.58C61.48 117.19 61.5 116.79 61.59 116.43L61.87 115.32L62.4001 113.15C62.7401 111.73 63.0301 110.3 63.09 109.06V108.54L62.98 108.1L62.8 107.78L62.41 107.35C61.89 106.77 61.17 106.26 60.4501 105.74C58.9001 104.57 57.1 103.55 55.2701 102.64C54.13 102.08 52.97 101.55 51.78 101.08C49.98 100.36 48.1501 99.68 46.2901 99.2C44.8401 98.83 43.3601 98.7 41.9001 98.54C41.5801 98.49 41.2601 98.49 40.9501 98.43C39.7701 98.23 39.47 97.93 39.3 97.09C39.26 96.9 39.21 96.71 39.19 96.52C39.14 95.9 39.7101 95.44 40.7001 95.32C42.1301 95.22 43.5801 95.32 44.9901 95.6C46.4101 95.85 47.82 96.24 49.21 96.67C51.28 97.32 53.3001 98.13 55.3101 99L55.28 99.08H55.3Z" fill="#231F20"/>
</svg>
