<svg width="128" height="128" viewBox="0 0 128 128" fill="none" xmlns="http://www.w3.org/2000/svg">
<path d="M68.89 100.28C64.66 100.76 54.83 99.71 53.98 97.41C53.14 95.13 60.29 92.37 65.09 88.06L43.73 96.94C43.73 96.94 55.03 102.45 60.13 101.91C65.23 101.37 68.88 100.29 68.88 100.29L68.89 100.28Z" fill="#231F20"/>
<path d="M73.9799 82.48C71.8499 84.1 69.6999 85.68 67.5099 87.22C66.7099 87.78 65.9599 88.4 65.1399 88.94C62.2999 90.88 59.3499 92.67 56.3299 94.34C55.6499 94.7 54.9799 95.07 54.3099 95.44C53.6399 95.81 52.9399 96.14 52.2699 96.49C51.4099 96.96 50.4999 97.35 49.5899 97.73L48.9099 98.01C48.6699 98.07 48.4099 98.1 48.1699 98.14C47.6799 98.21 47.1899 98.28 46.6899 98.35C46.0799 98.42 46.1299 98.27 46.5499 97.87C46.8199 97.62 47.1099 97.35 47.3899 97.08C47.5599 96.92 47.7499 96.76 47.9499 96.6C48.0499 96.51 48.1599 96.46 48.2499 96.34C48.3599 96.28 48.4799 96.21 48.5999 96.16C52.0999 94.65 55.4099 92.61 58.8699 90.72C59.8899 90.12 60.8999 89.47 61.8999 88.79C62.8899 88.08 63.8799 87.37 64.8599 86.67C67.0199 85.11 69.1699 83.54 71.2799 81.91C72.5799 80.9 73.8799 79.9 75.1399 78.86C77.0699 77.29 78.9999 75.7 80.8299 74.04C82.2499 72.75 83.5599 71.38 84.8799 70.03C85.1699 69.73 85.4499 69.43 85.7499 69.14C86.3099 68.6 86.6899 68.25 87.0499 68.1C87.4499 67.99 87.7399 68 88.0199 68.05C88.1499 68.08 88.2899 68.08 88.3899 68.11C88.5499 68.17 88.5599 68.35 88.4799 68.69C88.3999 69.02 88.2699 69.54 87.8699 69.95C85.6499 72.58 83.0399 75.07 80.2799 77.42C78.2299 79.17 76.1299 80.86 74.0099 82.52L73.9699 82.48H73.9799Z" fill="#231F20"/>
<path d="M51.14 94.21C40.65 95.62 28.51 84.18 24.23 72.97L25.21 79.43C25.21 79.43 30.01 89.41 36.41 93.64C42.81 97.88 46.2 98.16 46.2 98.16L51.14 94.21Z" fill="#231F20"/>
<path d="M31.0901 90.32C28.8701 88.01 26.9101 85.37 25.3901 82.62C24.9601 81.96 24.6501 81.23 24.2901 80.52C23.9501 79.81 23.5701 79.11 23.2601 78.38L22.3901 76.17C22.2501 75.8 22.0901 75.44 21.9701 75.06L21.6301 73.92L20.9601 71.64L20.4701 69.32L20.2301 68.16L20.0801 66.98L19.7901 64.63L19.6901 62.26L19.6401 61.08L19.6901 59.9L19.7901 57.53L20.0801 55.18C20.7201 50.62 22.0301 46.13 24.1201 42.03C25.9801 38.42 28.3101 35.05 31.1201 32.14C33.9401 29.23 37.1401 26.72 40.6301 24.7C47.5901 20.61 55.8101 18.74 63.8201 19.4C67.3801 19.65 70.9001 20.52 74.2201 21.81L75.4601 22.3C75.8801 22.45 76.2901 22.63 76.6801 22.85L79.0601 24.07C79.8401 24.5 80.5601 25.01 81.3201 25.48L82.4401 26.2L83.5001 26.98C87.0901 29.71 90.4001 32.85 93.1301 36.51C93.8001 37.43 94.4601 38.36 95.0401 39.35C95.3301 39.84 95.6101 40.34 95.8601 40.86C96.1101 41.38 96.3901 41.88 96.6001 42.42C97.0701 43.47 97.4401 44.56 97.7701 45.67C97.9201 46.23 98.0001 46.8 98.1101 47.37C98.1601 47.95 98.2601 48.52 98.2601 49.09C98.2201 50.54 98.0901 51.14 97.9701 51.11C97.8301 51.08 97.6501 50.39 97.2201 49.3C96.7201 48.21 95.9901 46.76 95.0201 45.11C94.8001 44.69 94.5101 44.28 94.2501 43.84C93.9901 43.4 93.7001 42.96 93.3801 42.51C93.0701 42.06 92.7801 41.59 92.4201 41.13C92.1001 40.65 91.7901 40.16 91.4301 39.67C89.0201 36.15 85.9601 33.01 82.6001 30.29C79.2301 27.59 75.5501 25.42 71.4901 24.07C63.4101 21.32 54.3001 21.83 46.2601 25.19C41.4601 27.21 36.9501 30.29 33.3001 34.25C29.6601 38.21 26.8101 42.9 24.9801 47.94C21.0101 59.04 22.3201 71.96 28.6001 82.11C32.2501 88.42 38.2401 93.19 44.9501 96.16L45.9001 96.6L46.8801 96.97L48.8401 97.72L50.8401 98.32L51.8401 98.62L52.8601 98.85C55.5701 99.56 58.3601 99.85 61.1301 100.02C63.9101 100.11 66.6901 99.9 69.4001 99.39C72.0701 98.79 74.7101 97.84 77.2401 96.72C85.0401 93.11 91.6601 87.24 95.5001 79.8C95.9701 79.01 96.2801 78.15 96.6401 77.31C96.8101 76.89 97.0101 76.48 97.1601 76.05C97.3001 75.61 97.4401 75.18 97.5901 74.74C98.1901 73.13 98.4301 71.72 98.7501 70.57C99.0301 69.41 99.1301 68.44 99.3601 67.67C99.8201 66.11 100 65.18 100.43 64.43C100.61 64.09 100.8 63.63 100.97 63.43C101.26 63.09 101.49 63.64 101.66 64.98C101.72 65.65 101.88 66.51 101.87 67.55C101.87 68.07 101.84 68.63 101.79 69.23C101.72 69.83 101.73 70.48 101.57 71.14C100.97 75.15 99.5501 79.11 97.5001 82.76C95.4401 86.41 92.7101 89.73 89.5201 92.55C86.3401 95.39 82.6801 97.69 78.7801 99.48C77.8001 99.91 76.8001 100.31 75.8101 100.72C74.7901 101.06 73.7901 101.44 72.7501 101.75C71.6801 102.01 70.6201 102.35 69.5301 102.52L67.9101 102.78C67.3701 102.88 66.8301 102.95 66.2801 102.97C59.8101 103.56 53.3601 102.52 47.3301 100.4C44.3001 99.36 41.4101 97.94 38.6401 96.33C35.9001 94.64 33.3401 92.66 31.0201 90.4L31.0601 90.33L31.0901 90.32Z" fill="#231F20"/>
<path d="M86.52 71.96C80.93 76.66 75.01 80.95 68.9 84.89C66.67 86.33 64.46 87.79 62.16 89.13C58.11 91.48 53.97 93.67 49.72 95.64C45.46 97.6 41.1 99.36 36.57 100.68C34.56 101.26 32.51 101.76 30.41 102.1C28.31 102.43 26.15 102.64 23.94 102.33C22.53 102.13 21.04 101.69 19.75 100.75C19.11 100.33 18.48 99.63 18.05 98.85C17.66 98.03 17.49 97.14 17.52 96.29C17.63 94.63 18.23 93.21 18.99 92C19.78 90.81 20.64 89.7 21.79 88.91C22.6 88.5 22.99 88.39 23.06 88.49C23.14 88.6 22.94 88.98 22.81 89.77C22.67 90.55 22.42 91.57 22.09 92.65C21.8 93.74 21.41 94.92 21.18 95.9C21.09 96.33 21.06 96.72 21.13 96.97C21.18 97.25 21.25 97.45 21.47 97.68C21.93 98.21 22.81 98.72 23.83 98.98C25.92 99.51 28.48 99.39 30.97 98.99C35.99 98.1 41.01 96.29 45.93 94.29C51.84 91.86 57.62 88.49 63.2 85.05C69.34 81.27 75.28 77.15 80.93 72.66C84.39 69.88 87.75 66.96 90.93 63.88C95.72 59.2 100.32 54.16 103.66 48.47C104.97 46.28 105.99 43.94 106.53 41.58C106.87 40.39 106.93 39.25 106.76 38.2C106.67 37.68 106.51 37.2 106.27 36.82C106.05 36.44 105.71 36.11 105.43 36C104.83 35.69 103.79 35.66 102.8 35.69C101.85 35.73 101.04 35.85 100.36 35.96C99.68 36.05 99.11 36.12 98.64 36.16C97.7 36.26 97.09 36.16 96.54 35.95C96.29 35.86 95.97 35.8 95.8 35.7C95.51 35.53 95.72 35.18 96.38 34.64C97.04 34.1 98.2 33.52 99.81 33.07C101.02 32.78 102.26 32.56 103.62 32.55C104.3 32.55 105.02 32.61 105.78 32.79C106.17 32.9 106.57 33.03 106.99 33.26C107.4 33.47 107.86 33.83 108.13 34.12C109.4 35.41 109.86 37.11 109.96 38.57C110.01 39.32 109.97 40.04 109.88 40.75C109.79 41.48 109.59 42.07 109.44 42.74C108.75 45.32 107.65 47.68 106.36 49.87C105.1 52.1 103.61 54.14 102.1 56.15C99.8 59.09 97.29 61.84 94.7 64.49C92.07 67.1 89.36 69.61 86.55 72.01L86.49 71.96H86.52Z" fill="#231F20"/>
<path d="M70.76 44.14C66.67 45.27 63.56 39.86 67.3 38.59C67.3 38.59 64.75 36.27 62.18 39.22C59.61 42.17 61.24 45.08 62.49 46.42C63.74 47.76 65.63 47.83 66.49 47.83C69.74 47.83 70.76 44.14 70.76 44.14Z" fill="#231F20"/>
<path d="M62.3102 48.09C60.5702 46.86 59.4202 44.81 59.5302 42.61C59.5502 41.83 59.6702 41.06 59.9702 40.38C60.5102 39.18 61.3502 38.15 62.4502 37.47C63.5202 36.77 64.9402 36.46 66.1502 36.65C67.1902 36.79 68.3702 37.12 69.1502 37.89C70.2402 38.79 70.6402 40.11 70.8402 41.3C70.9002 41.68 70.8002 41.66 70.4802 41.47C70.1902 41.26 69.5502 40.96 69.0102 40.6C68.7802 40.44 68.5502 40.3 68.3202 40.18C68.0902 40.07 67.9202 39.93 67.7302 39.85C67.5402 39.76 67.3502 39.7 67.1802 39.65C67.0302 39.56 66.8602 39.5 66.6902 39.44C66.3702 39.33 65.8902 39.26 65.5302 39.25C65.1902 39.23 64.8202 39.28 64.4202 39.41C63.4502 39.75 62.7102 40.83 62.4302 41.86C62.0602 42.98 62.3602 44.24 63.2002 45.26C63.7202 45.87 64.4202 46.33 65.2002 46.53C66.3802 46.84 67.7802 46.57 68.7002 45.67C69.4102 44.99 69.7302 43.93 69.8402 43.05C69.8702 42.85 69.8602 42.65 69.8602 42.45C69.8902 41.69 69.9502 41.37 70.2602 41.05C70.3202 40.98 70.3702 40.9 70.4202 40.85C70.5202 40.71 71.0902 40.89 71.4802 41.65C71.7802 42.21 71.8902 42.88 71.9202 43.57C71.9302 44.26 71.7302 44.93 71.4902 45.54C71.0102 46.79 69.9402 48 68.6002 48.65C66.6102 49.69 64.0702 49.4 62.2602 48.16L62.3002 48.1L62.3102 48.09Z" fill="#231F20"/>
<path d="M50.7201 62.43C50.7201 62.43 52.0701 62.68 52.3201 61.83C52.5701 60.98 53.9201 61.22 53.8301 62.47C53.7401 63.72 51.4601 65.28 50.7201 64.19C49.9901 63.1 49.6001 62.86 49.6001 62.86L50.7201 62.44V62.43Z" fill="#231F20"/>
<path d="M54.3202 60.98C54.5502 61.45 54.6802 61.96 54.6902 62.46C54.6702 62.97 54.5302 63.46 54.2702 63.89C54.1702 64.04 54.0902 64.2 53.9702 64.33C53.8702 64.48 53.7402 64.6 53.5702 64.7C53.0202 65.06 52.3102 65.23 51.6202 65.15C50.9302 65.07 50.2502 64.71 49.8402 64.13C49.7402 64.01 49.6502 63.89 49.5902 63.74C49.5302 63.6 49.4302 63.47 49.4002 63.32C49.3102 63.01 49.3502 62.72 49.3802 62.49C49.4502 61.86 49.8402 61.31 50.3502 61.08C50.5102 61.01 50.5202 61.08 50.5002 61.24C50.4702 61.4 50.5202 61.71 50.5802 61.95C50.6102 62.16 50.6902 62.34 50.7902 62.47C50.8302 62.53 50.9202 62.6 50.9302 62.61C50.9502 62.63 50.9302 62.62 50.9302 62.64C50.9002 62.67 50.8702 62.8 51.0002 62.98C51.1902 63.21 51.4102 63.08 51.5902 63C51.8402 62.92 52.0502 62.63 52.0202 62.32C52.0202 62.13 51.9502 61.92 51.8002 61.77C51.5802 61.54 51.1802 61.45 50.8602 61.64C50.6002 61.79 50.5002 62.13 50.5202 62.34C50.5202 62.39 50.5402 62.43 50.5402 62.48C50.5402 62.52 50.5402 62.55 50.5102 62.57C50.4802 62.59 50.4102 62.63 50.3402 62.66C50.2102 62.71 50.0502 62.76 49.8402 62.8L49.5602 62.87C49.2902 62.93 48.9602 62.8 48.7102 62.33C48.5502 61.58 48.9502 60.7 49.5502 60.13C50.1602 59.55 50.9902 59.27 51.7502 59.28C52.3202 59.3 52.8602 59.48 53.3102 59.78C53.7502 60.1 54.1302 60.5 54.3802 60.97L54.3302 60.99L54.3202 60.98Z" fill="#231F20"/>
<path d="M20.2302 20.57C16.5602 22.17 16.7602 25.77 16.1502 26.85C14.8702 24.42 15.3002 22.97 10.7202 21.41C10.7202 21.41 14.3602 21.41 14.7502 15.07C16.2302 21.03 20.2302 20.56 20.2302 20.56V20.57Z" fill="#231F20"/>
<path d="M117.28 84.75C113.61 86 113.53 89.49 112.86 90.49C111.82 88.05 112.35 86.69 108.05 84.82C108.05 84.82 111.56 85.1 112.43 79.03C113.39 84.89 117.29 84.75 117.29 84.75H117.28Z" fill="#231F20"/>
<path d="M104.37 108.27C101.7 109.48 101.89 112.12 101.45 112.92C100.49 111.16 100.78 110.09 97.4102 108.99C97.4102 108.99 100.08 108.94 100.29 104.3C101.44 108.65 104.37 108.27 104.37 108.27Z" fill="#231F20"/>
</svg>
