<svg width="128" height="128" viewBox="0 0 128 128" fill="none" xmlns="http://www.w3.org/2000/svg">
<path d="M59.8699 118C55.8699 118.68 51.7899 119.46 47.6299 119.85C43.415 120.368 39.1423 120.155 34.9999 119.22C31.8273 118.483 28.9391 116.836 26.6899 114.48C24.8132 112.344 23.4758 109.789 22.7899 107.03C22.1669 104.424 21.6795 101.787 21.3299 99.1301C20.6099 93.8701 20.2399 88.6101 19.7799 83.3801C19.4114 78.7523 18.8073 74.1463 17.9699 69.5801C17.4399 66.6701 16.8399 63.7701 16.0899 60.9201C15.8999 60.2101 15.7099 59.5001 15.4999 58.7901C15.2899 58.0801 15.1299 57.3701 14.9499 56.6601C14.5299 55.2501 14.0799 53.8501 13.5699 52.4601C12.8699 50.7701 13.0099 50.9401 14.0099 52.2101C15.673 54.3497 16.9798 56.7439 17.8799 59.3001C18.7858 62.2597 19.5401 65.2636 20.1399 68.3001C20.7099 71.3001 21.1399 74.3601 21.5099 77.4101C22.2199 83.5101 22.5099 89.6001 23.1899 95.6301C23.5571 99.274 24.2023 102.884 25.1199 106.43C25.5995 108.12 26.3311 109.728 27.2899 111.2C28.2534 112.634 29.4862 113.866 30.9199 114.83C34.0899 116.93 38.1199 117.64 42.1099 117.69C46.1727 117.659 50.225 117.271 54.2199 116.53L61.6999 115.24C64.1699 114.78 66.6398 114.24 69.0898 113.65C72.7998 112.74 76.4999 111.72 80.0899 110.56C83.7124 109.442 87.2512 108.068 90.6799 106.45C91.9727 105.829 93.2164 105.11 94.3999 104.3C95.5044 103.612 96.4243 102.664 97.0799 101.54C97.5626 100.264 97.8721 98.9286 97.9999 97.5701C98.1537 96.1824 98.1971 94.7846 98.1299 93.3901C98.0599 92.1601 97.9199 90.9501 97.7499 89.7101C97.0999 85.1201 96.6099 83.7601 97.2599 82.4701C97.3348 82.1908 97.4283 81.9168 97.5399 81.6501C97.7699 81.0401 99.4499 82.6501 100.31 86.2301C100.643 87.5684 100.903 88.9237 101.09 90.2901C101.259 91.6836 101.343 93.0863 101.34 94.4901C101.318 95.9378 101.188 97.3818 100.95 98.8101L100.72 99.9001L100.42 101C100.184 101.822 99.8486 102.611 99.4199 103.35C98.4609 104.682 97.2475 105.81 95.8499 106.67C94.6208 107.462 93.3414 108.174 92.0199 108.8C89.4457 109.998 86.8046 111.046 84.1099 111.94C80.1099 113.28 76.1099 114.39 72.1099 115.39C68.1099 116.39 63.9999 117.39 59.8799 118.05L59.8699 118Z" fill="#231F20"/>
<path d="M87.4697 31.43C85.875 31.0597 84.2219 31.0155 82.6096 31.3C80.8767 31.6286 79.1639 32.056 77.4797 32.58C74.0297 33.58 70.5996 34.81 67.1796 36.02L59.6996 38.76C55.2896 40.32 50.8596 41.86 46.3797 43.29C41.9044 44.7531 37.3587 45.9913 32.7596 47C30.7014 47.4393 28.622 47.7731 26.5296 48C24.4099 48.2949 22.2594 48.2949 20.1396 48L19.1396 47.79C18.7996 47.7 18.4596 47.57 18.1396 47.46C17.791 47.3426 17.4557 47.1884 17.1396 47C16.9796 46.91 16.8196 46.83 16.6596 46.73C16.4886 46.6142 16.328 46.4837 16.1796 46.34C15.8635 46.0618 15.6082 45.7214 15.4296 45.34C15.2391 44.919 15.1402 44.4622 15.1396 44C15.1615 43.2311 15.3527 42.4765 15.6996 41.79C16.3322 40.536 17.1705 39.3969 18.1796 38.42C19.1431 37.4398 20.2248 36.5833 21.3996 35.87C22.1496 35.44 22.5896 35.41 22.5996 35.54C22.6096 35.67 22.3096 35.98 21.8396 36.54C20.3031 38.1658 18.9423 39.949 17.7796 41.86C17.1796 42.86 16.9096 44.07 17.2296 44.54C17.4696 44.8864 17.8235 45.1377 18.2296 45.25L18.5796 45.45L18.9896 45.58C19.2593 45.6876 19.5368 45.7745 19.8196 45.84C22.3246 46.2927 24.8889 46.3096 27.3996 45.89C32.6783 45.0429 37.8911 43.8265 42.9996 42.25C49.2396 40.45 55.5696 38.02 61.8297 35.75C65.2797 34.51 68.7296 33.26 72.2197 32.08C73.9697 31.49 75.7197 30.93 77.4996 30.4C79.2946 29.8294 81.1344 29.4113 82.9996 29.15C85.4068 28.7414 87.8816 29.1165 90.0596 30.22C91.1207 30.8559 92.0424 31.6994 92.7696 32.7C93.4426 33.6952 93.9743 34.7788 94.3496 35.92C95.3104 39.2806 95.7654 42.7655 95.6996 46.26C95.6996 49.71 95.6096 53.12 95.6996 56.49C95.6996 57.8234 95.7796 59.1134 95.9397 60.36C96.0063 60.9856 96.1098 61.6067 96.2496 62.22C96.3096 62.53 96.4097 62.82 96.4797 63.11L96.5497 63.33L96.6597 63.65C96.7297 63.86 96.7896 64.08 96.8396 64.3C96.9098 64.5208 96.911 64.7578 96.8432 64.9793C96.7753 65.2009 96.6415 65.3964 96.4596 65.54C96.092 65.8595 95.6634 66.101 95.1996 66.25C94.5465 66.4617 93.8778 66.6222 93.1996 66.73C91.8796 66.95 90.5797 67.09 89.2796 67.23L85.8896 67.61C81.6696 68.05 80.4996 68.33 79.5396 68.41C79.3196 68.41 79.0497 68.52 78.8997 68.53C78.7496 68.54 78.7396 68.47 78.8196 68.3C78.9828 68.0336 79.201 67.8051 79.4596 67.63C80.5234 66.9331 81.7065 66.4381 82.9496 66.17C85.276 65.6629 87.63 65.2923 89.9996 65.06C91.1696 64.9 92.3497 64.75 93.4397 64.51C93.7096 64.46 93.9697 64.39 94.2197 64.32C94.3262 64.2931 94.43 64.2562 94.5296 64.21C94.5296 64.21 94.5896 64.21 94.5296 64.05C94.5244 64.0102 94.5244 63.9698 94.5296 63.93L94.3997 63.44C94.3045 63.1112 94.2277 62.7774 94.1696 62.44C94.0296 61.79 93.9596 61.15 93.8796 60.51C93.7496 59.23 93.6796 57.97 93.6597 56.72C93.5997 54.22 93.6597 51.72 93.6597 49.3C93.7818 45.7348 93.5406 42.1664 92.9397 38.65C92.6211 36.9958 91.9898 35.4176 91.0797 34C90.2332 32.7327 88.947 31.8242 87.4697 31.45V31.43Z" fill="#231F20"/>
<path d="M91.6199 78.84C92.8699 78.59 94.1099 78.2901 95.3399 77.9801L97.1799 77.4701L98.8099 77.0001H98.9799C98.9952 76.9444 98.9952 76.8857 98.9799 76.8301V76.5501V75.8201C98.9553 75.3671 98.9553 74.9131 98.9799 74.4601L99.1099 73.2001L99.3499 70.7301C99.4899 69.0901 99.5999 67.4401 99.6399 65.7901C99.6873 64.344 99.6238 62.8964 99.4499 61.4601C99.3438 60.5822 99.1358 59.7197 98.8299 58.8901C98.7037 58.5488 98.5059 58.2385 98.2499 57.9801C98.1433 57.877 98.0102 57.8056 97.8654 57.7739C97.7206 57.7421 97.5698 57.7511 97.4299 57.8001C96.9999 57.9401 96.7999 57.6601 97.1699 57.1101C97.3299 56.9162 97.5375 56.7673 97.7724 56.6778C98.0073 56.5884 98.2615 56.5616 98.5099 56.6001C98.8652 56.6668 99.2009 56.8131 99.4918 57.0278C99.7827 57.2425 100.021 57.5202 100.19 57.8401C100.684 58.8039 101.021 59.8402 101.19 60.9101C101.365 61.9024 101.482 62.9041 101.54 63.9101C101.649 65.8747 101.592 67.845 101.37 69.8001C101.26 70.9601 101.19 72.15 101.13 73.34C101.13 73.9501 101.05 74.5401 101.06 75.0601C101.06 75.3301 101.06 75.6101 101.06 75.8901L101.13 76.8901C101.172 77.4085 101.104 77.93 100.93 78.4201C100.5 78.6701 99.9999 78.8601 99.5399 79.0701C98.8399 79.3201 98.2599 79.5101 97.6199 79.7101C96.3599 80.1034 95.0899 80.4634 93.8099 80.7901C92.2399 81.2001 90.6599 81.5601 89.0599 81.8701C87.8403 82.1105 86.6084 82.284 85.3699 82.3901C84.7321 82.4555 84.0905 82.4755 83.4499 82.4501C82.7083 82.4513 81.9774 82.2729 81.3199 81.9301C80.4588 81.3144 79.7338 80.5281 79.1899 79.6201C78.6561 78.7839 78.2008 77.9001 77.8299 76.9801C77.6499 76.584 77.4962 76.1764 77.3699 75.7601C77.174 75.1988 77.1057 74.601 77.1699 74.0101C77.2119 73.833 77.2917 73.6671 77.4039 73.5238C77.5161 73.3805 77.658 73.2633 77.8199 73.1801C77.9487 73.0845 78.09 73.0071 78.2399 72.9501C78.3681 72.9266 78.5004 72.9406 78.621 72.9902C78.7416 73.0398 78.8453 73.1231 78.9199 73.2301C79.2065 73.534 79.4188 73.9002 79.5399 74.3001C80.0262 75.7526 80.6701 77.1476 81.4599 78.4601C81.7671 78.996 82.1745 79.4679 82.6599 79.8501L82.4599 80.1601L82.5299 80.0601L82.6599 79.8601C82.7299 79.8601 82.8999 79.8601 83.0199 79.9301C83.1399 80.0001 83.3599 79.9301 83.5199 79.9301C83.6997 79.9401 83.88 79.9401 84.0599 79.9301C85.2776 79.8804 86.4905 79.7468 87.6899 79.5301C88.9299 79.3301 90.1799 79.0601 91.4299 78.7801L91.6199 78.84Z" fill="#231F20"/>
<path d="M76.9997 19.5499C76.6536 18.8448 76.2054 18.1945 75.6697 17.6199C75.4597 17.4299 75.2197 17.3099 75.0097 17.1399C74.2517 16.5278 73.304 16.1989 72.3297 16.2099C71.8402 16.2466 71.3602 16.3649 70.9098 16.5599C70.3253 16.8755 69.6739 17.047 69.0097 17.0599C68.5597 17.0599 68.3297 14.6799 69.1297 14.4299C69.8211 14.2088 70.5259 14.0317 71.2397 13.8999C71.6677 13.848 72.0991 13.8312 72.5297 13.8499C72.9664 13.8835 73.3967 13.9743 73.8097 14.1199C74.8016 14.3731 75.7421 14.796 76.5897 15.3699C77.4295 16.0104 78.136 16.8086 78.6697 17.7199C78.9916 18.2474 79.2789 18.7952 79.5297 19.3599C79.9297 20.1899 80.1698 21.0699 80.4798 21.9099C80.7098 22.5699 81.0497 23.1899 81.2797 23.8599C81.351 23.9971 81.4079 24.1412 81.4497 24.2899C81.5797 24.8599 81.4497 25.0599 80.8297 25.2899L80.3997 25.4299C80.1948 25.4919 79.9754 25.4865 79.7738 25.4145C79.5722 25.3425 79.399 25.2077 79.2797 25.0299C78.7459 24.0183 78.3041 22.9607 77.9597 21.8699C77.6834 21.0959 77.3491 20.3438 76.9597 19.6199L76.9997 19.5499Z" fill="#231F20"/>
<path d="M27.21 34.7701C27.49 35.5601 27.78 36.3601 28.1 37.1501C28.21 37.4401 28.37 37.7101 28.48 38.0001L29.64 41.0901C29.81 41.5501 30.02 42.0001 30.23 42.4401C30.5391 42.9893 30.7618 43.583 30.89 44.2001C30.95 44.5901 29.55 44.6101 29.24 43.9901C28.6716 42.8667 28.2032 41.6955 27.84 40.4901C27.577 39.7587 27.2698 39.0441 26.92 38.3501C26.58 37.5601 26.25 36.7501 25.92 35.9501C25.73 35.4501 25.53 34.9501 25.34 34.4601C25.04 33.7101 24.79 32.9401 24.48 32.1901C24.25 31.6101 23.93 31.0701 23.69 30.4901C23.6214 30.3691 23.5644 30.2418 23.52 30.1101C23.36 29.6201 23.43 29.4301 23.82 29.2201L24.09 29.0701C24.2433 29.0067 24.4149 29.0034 24.5706 29.0608C24.7262 29.1183 24.8546 29.2323 24.93 29.3801C25.5068 30.3263 25.9796 31.3321 26.34 32.3801C26.63 33.1601 26.94 33.9501 27.24 34.7401L27.21 34.7701Z" fill="#231F20"/>
<path d="M48.9997 17.22C46.9197 18.05 44.8197 18.83 42.7297 19.62C41.9697 19.91 41.2297 20.25 40.4597 20.53C37.7697 21.53 35.0597 22.53 32.3897 23.53C31.1997 24 29.9997 24.48 28.8797 25C27.4297 25.68 25.9297 26.41 24.6197 27.08C24.3497 27.24 23.9897 27.08 24.1197 26.45C24.385 25.6695 24.9448 25.0236 25.6797 24.65C28.6566 23.1033 31.7533 21.7991 34.9397 20.75C36.8397 20.1 38.7297 19.23 40.6197 18.47L46.8897 16C48.1697 15.49 49.4597 15 50.7297 14.44C52.6597 13.62 54.5997 12.81 56.4597 11.9C57.9097 11.2 59.2597 10.38 60.6497 9.61002L61.5597 9.11002C62.7097 8.50002 63.1397 8.43002 63.5597 8.62002C63.6594 8.65236 63.7563 8.69248 63.8497 8.74002C64.0897 8.88002 63.7797 9.42002 63.0097 10.05C60.6272 11.8907 58.0194 13.4197 55.2497 14.6C53.1897 15.54 51.0897 16.41 49.0097 17.28L48.9997 17.22Z" fill="#231F20"/>
<path d="M67.6799 24.3701C67.3399 23.3701 66.9799 22.2801 66.6099 21.2501C66.4699 20.8701 66.2699 20.5201 66.1299 20.1401L64.7399 16.0801C64.5263 15.4866 64.2793 14.9056 63.9999 14.3401C63.5516 13.6431 63.2551 12.8594 63.1299 12.0401C63.1299 11.5101 65.5099 11.3301 65.8399 12.1401C66.4935 13.6376 67.0122 15.1904 67.3899 16.7801C67.6858 17.7494 68.0535 18.6954 68.4899 19.6101C68.8899 20.6601 69.2699 21.7101 69.6399 22.7701L70.3299 24.7701C70.6799 25.7701 70.9799 26.7701 71.3299 27.7701C71.6099 28.5401 72.0199 29.2401 72.3299 30.0001C72.4115 30.163 72.485 30.3299 72.5499 30.5001C72.7499 31.1501 72.6499 31.4001 72.0499 31.6801C71.9199 31.7401 71.7899 31.8101 71.6499 31.8601C71.4359 31.9359 71.2024 31.9365 70.988 31.862C70.7735 31.7875 70.5908 31.6422 70.4699 31.4501C69.7548 30.2098 69.1684 28.8997 68.7199 27.5401C68.3499 26.5401 67.9799 25.5401 67.5999 24.4601L67.6799 24.3701Z" fill="#231F20"/>
<path d="M59.8801 20.5199H59.8001L59.2101 20.6899C58.8001 20.7999 58.4001 20.9399 57.9901 21.0699C57.1801 21.3499 56.3701 21.6499 55.5601 21.9799C54.9601 22.2199 54.4001 22.5199 53.7901 22.7599C51.6801 23.6099 49.4901 24.4199 47.2701 25.0999L44.3301 26.0999C43.0928 26.592 41.7806 26.8694 40.4501 26.9199C39.6301 26.9199 40.2901 24.4399 41.6401 24.1499C44.0901 23.5699 46.5001 22.8899 49.0301 22.1499C50.5536 21.6339 52.0432 21.0227 53.4901 20.3199C55.1591 19.592 56.8647 18.9512 58.6001 18.3999L59.1301 18.2499L59.8801 18.0399L61.3701 17.6599L62.0001 19.3999C62.5601 21.0299 63.1301 22.6599 63.6801 24.2799C64.1201 25.4899 64.6801 26.6499 65.1201 27.8699C65.2201 28.1399 65.3301 28.3999 65.4201 28.6799C65.7201 29.6799 65.6301 30.0899 65.0501 30.4399C64.9248 30.5298 64.7908 30.6068 64.6501 30.6699C64.1901 30.8699 63.7101 30.5399 63.3901 29.8599C62.4501 27.8599 61.6701 25.6299 60.8701 23.3999L60.1401 21.3299L60.0001 20.7999V20.6699V20.6099L59.8801 20.5199Z" fill="#231F20"/>
<path d="M32.9099 35.7101L33.3299 37.1301C33.3799 37.3101 33.4799 37.4601 33.5199 37.6401C33.6899 38.2701 33.8399 38.9001 34.0199 39.5301C34.1074 39.8073 34.2143 40.0779 34.3399 40.3401C34.5512 40.6541 34.6691 41.0217 34.6799 41.4001C34.6799 41.6501 33.3099 41.7801 33.1499 41.4001C32.8377 40.7394 32.6158 40.0398 32.4899 39.3201C32.3677 38.8884 32.2036 38.4698 31.9999 38.0701C31.8099 37.6001 31.6799 37.0701 31.5299 36.6201L31.2599 35.7101C31.1099 35.2601 31.0199 34.7901 30.8599 34.3401C30.6999 33.8901 30.5499 33.6801 30.4199 33.3401C30.3829 33.2709 30.356 33.1968 30.3399 33.1201C30.2799 32.8201 30.3399 32.7001 30.6299 32.5601L30.8099 32.4701C30.9149 32.4312 31.0291 32.4248 31.1379 32.4515C31.2466 32.4782 31.3448 32.537 31.4199 32.6201C31.854 33.1249 32.1928 33.7043 32.4199 34.3301C32.6299 34.7701 32.7499 35.2501 32.9199 35.7101H32.9099Z" fill="#231F20"/>
<path d="M33.6998 35.8999C33.8298 36.2999 33.9498 36.6999 34.0698 37.0999C34.0698 37.2499 34.1998 37.3799 34.2398 37.5299C34.3798 38.0499 34.5198 38.5999 34.6598 39.1199C34.7317 39.3487 34.8186 39.5725 34.9198 39.7899C35.0888 40.0579 35.1885 40.3638 35.2098 40.6799C35.2098 40.8899 34.0798 40.9999 33.9498 40.6799C33.6936 40.1465 33.5086 39.5816 33.3998 38.9999C33.3082 38.613 33.174 38.2374 32.9998 37.8799C32.8498 37.4899 32.7298 37.0799 32.5998 36.6699L32.3598 35.9199C32.2198 35.5399 32.1298 35.1499 31.9898 34.7799C31.8498 34.4099 31.6998 34.2399 31.5898 33.9599C31.5572 33.8993 31.5304 33.8356 31.5098 33.7699C31.4498 33.5299 31.5098 33.4299 31.7198 33.2999L31.8698 33.2199C31.953 33.1811 32.0463 33.1698 32.1363 33.1878C32.2262 33.2058 32.3081 33.2521 32.3698 33.3199C32.7674 33.7259 33.0831 34.2046 33.2998 34.7299C33.4705 35.1082 33.6207 35.4955 33.7498 35.8899L33.6998 35.8999Z" fill="#231F20"/>
<path d="M85.3298 74.0801C85.5798 74.0201 85.7798 73.9501 85.8498 73.6401C85.8533 73.5057 85.826 73.3723 85.7698 73.2501L85.7098 72.8801C85.66 72.7555 85.589 72.6405 85.4998 72.5401C85.284 72.2692 85.0014 72.059 84.6798 71.9301C84.5589 71.8752 84.4277 71.8467 84.2948 71.8467C84.162 71.8467 84.0308 71.8752 83.9099 71.9301C83.6999 72.0801 83.6898 72.2201 83.4898 72.6201C83.4198 72.7301 83.0398 72.7801 82.6498 72.6201C82.4392 72.5384 82.2508 72.4082 82.0998 72.2401C82.0303 72.1372 81.9836 72.0206 81.9629 71.8981C81.9422 71.7757 81.948 71.6502 81.9799 71.5301C82.1324 71.0193 82.4622 70.5796 82.9099 70.2901C83.3006 70.0407 83.7474 69.8928 84.2098 69.8601C84.9736 69.7834 85.7396 69.982 86.3699 70.4201C86.7545 70.6852 87.1128 70.9866 87.4398 71.3201C87.7387 71.6781 87.9814 72.0793 88.1599 72.5101C88.3303 73.0115 88.3756 73.5468 88.292 74.0697C88.2083 74.5925 87.9982 75.087 87.6798 75.5101C87.2989 75.99 86.7941 76.3565 86.2198 76.5701C85.7867 76.7503 85.3202 76.8364 84.8512 76.8226C84.3823 76.8088 83.9217 76.6955 83.4998 76.4901C82.8232 76.1749 82.2883 75.6187 81.9998 74.9301C81.9253 74.7641 81.8716 74.5894 81.8398 74.4101C81.8398 73.8301 82.0498 73.6401 82.7498 73.6101C82.9098 73.6101 83.0699 73.6101 83.2299 73.6101C83.6431 73.6257 84.0414 73.7689 84.3699 74.0201C84.4299 74.0801 84.4898 74.1501 84.5398 74.1901H84.6698C84.7293 74.2015 84.7904 74.2015 84.8498 74.1901C84.9298 74.1901 84.9298 74.1201 84.9298 74.1201C84.9298 74.1201 84.9298 74.1201 84.9898 74.1201C85.1038 74.1031 85.2128 74.0622 85.3098 74.0001L85.3298 74.0801Z" fill="#231F20"/>
<path d="M84.86 74.27C84.98 74.27 85.01 74 84.95 73.78C84.89 73.56 84.85 73.67 84.82 73.59C84.7546 73.23 84.6112 72.8887 84.4 72.59C84.3674 72.5465 84.3251 72.5112 84.2765 72.4869C84.2279 72.4626 84.1743 72.45 84.12 72.45C84.07 72.45 84.01 72.61 83.87 72.55C83.6563 72.3403 83.4834 72.0928 83.36 71.82C83.14 71.42 83.09 70.9 83.36 70.75C83.463 70.6859 83.574 70.6355 83.69 70.6C83.836 70.5798 83.984 70.5798 84.13 70.6C84.3622 70.5679 84.5978 70.5679 84.83 70.6C85.1944 70.6773 85.5241 70.8702 85.77 71.15C86.03 71.46 86.43 71.58 86.68 71.9C86.9668 72.2541 87.187 72.6573 87.33 73.09C87.4386 73.4118 87.4894 73.7504 87.48 74.09C87.4597 74.3752 87.3819 74.6533 87.2513 74.9076C87.1206 75.162 86.9399 75.3873 86.72 75.57C86.45 75.82 86.21 76.16 85.94 76.37C85.8812 76.4254 85.8176 76.4756 85.75 76.52C85.63 76.52 85.54 76.52 85.44 76.35C85.3814 76.2235 85.3312 76.0932 85.29 75.96C85.29 75.86 85.22 75.74 85.18 75.61L85.09 75.28C85.0501 75.0991 85.0266 74.915 85.02 74.73V74.32C84.9962 74.2151 84.9894 74.107 85 74C85.0623 73.8237 85.0862 73.6362 85.07 73.45C85.1536 73.6049 85.2506 73.7521 85.36 73.89L85.51 74.05C85.5387 74.082 85.5725 74.109 85.61 74.13C85.78 74.21 85.47 74.04 84.88 74.25L84.86 74.27Z" fill="#231F20"/>
<path d="M88 81.4501C88.8484 81.3878 89.6928 81.281 90.53 81.1301C90.84 81.1301 91.14 80.9601 91.45 80.9001C92.54 80.6901 93.64 80.4401 94.73 80.1501C95.2149 80.0157 95.6922 79.8555 96.16 79.6701C96.7389 79.3904 97.3611 79.2112 98 79.1401C98.41 79.1401 98.25 80.4001 97.61 80.7001C96.4012 81.2163 95.1407 81.6018 93.85 81.8501C93.06 81.9901 92.3 82.3201 91.5 82.5201C90.6235 82.7495 89.7356 82.9331 88.84 83.0701C88.28 83.1401 87.72 83.2201 87.15 83.2501C86.58 83.2801 86.3 83.2501 85.86 83.2501C85.422 83.245 84.9846 83.215 84.55 83.1601C84.2129 83.1338 83.8785 83.0803 83.55 83.0001C83.38 83.0001 83.2 82.9401 83.03 82.8901L82.53 82.6601C82.39 82.5801 82.23 82.5301 82.1 82.4401C81.63 82.0201 81.57 81.8001 81.76 81.4401C81.76 81.3601 81.85 81.2801 81.9 81.2101C82.0077 81.1054 82.1436 81.0345 82.2911 81.0061C82.4386 80.9776 82.5911 80.993 82.73 81.0501C83.6672 81.2609 84.6206 81.3914 85.58 81.4401C85.9729 81.4653 86.3671 81.4653 86.76 81.4401C87.1736 81.4547 87.5876 81.4447 88 81.4101V81.4501Z" fill="#231F20"/>
<path d="M26.49 53.1399L25.36 53.25C25.22 53.25 25.09 53.25 24.95 53.25C24.45 53.25 23.95 53.25 23.47 53.25H22.82C22.5395 53.2674 22.2583 53.2335 21.99 53.15C21.82 53.09 22.11 52.66 22.4 52.65C22.92 52.65 23.4 52.65 23.99 52.65C24.3274 52.6399 24.6627 52.5929 24.99 52.5099L26.09 52.3499L26.77 52.2299C27.11 52.1599 27.46 52.1099 27.77 52.0099C28.08 51.9099 28.28 51.8399 28.54 51.7599L28.71 51.7C28.92 51.7 29 51.6999 29.09 51.8899C29.1141 51.9313 29.1342 51.9748 29.15 52.02C29.1781 52.092 29.1783 52.1719 29.1506 52.244C29.1228 52.3162 29.0691 52.3753 29 52.41C28.5843 52.6933 28.1144 52.8873 27.62 52.9799L26.5 53.1699L26.49 53.1399Z" fill="#231F20"/>
<path d="M76.4398 40L75.2698 40.15L74.8398 40.23C74.3398 40.29 73.8398 40.35 73.3298 40.44C73.0998 40.44 72.8898 40.54 72.6698 40.6C72.3986 40.6974 72.1165 40.7613 71.8298 40.79C71.6398 40.79 71.7398 40.3 72.0498 40.17C72.5943 39.9477 73.1608 39.7835 73.7398 39.68C74.0963 39.6045 74.4472 39.5043 74.7898 39.38C75.1698 39.28 75.5698 39.2 75.9598 39.12L76.6798 38.97L77.7798 38.75C78.0598 38.7 78.3298 38.58 78.6098 38.51H78.7898C79.0198 38.46 79.1098 38.51 79.1898 38.73C79.2141 38.7782 79.2341 38.8283 79.2498 38.88C79.2727 38.9604 79.2684 39.0461 79.2377 39.1238C79.207 39.2015 79.1515 39.267 79.0798 39.31C78.6239 39.5784 78.1274 39.7709 77.6098 39.88L76.4498 40H76.4398Z" fill="#231F20"/>
<path d="M44.5701 49.4301L43.8001 49.5001H43.5201C43.1901 49.5001 42.8501 49.5601 42.5201 49.6101C42.3747 49.6339 42.2311 49.6673 42.0901 49.7101C41.9126 49.7716 41.7276 49.8086 41.5401 49.8201C41.4201 49.8201 41.4801 49.4801 41.6801 49.4001C42.0394 49.2515 42.4155 49.1474 42.8001 49.0901C43.0335 49.0442 43.264 48.9841 43.4901 48.9101C43.7401 48.8401 44.0001 48.8001 44.2601 48.7501L44.7401 48.6701L45.4601 48.5401C45.6401 48.5401 45.8201 48.4301 46.0001 48.3801H46.1201C46.2701 48.3801 46.3201 48.3801 46.3801 48.5401V48.6401C46.3978 48.6952 46.3965 48.7547 46.3766 48.809C46.3567 48.8634 46.3192 48.9095 46.2701 48.9401C45.9622 49.1257 45.6235 49.2544 45.2701 49.3201L44.5101 49.4201L44.5701 49.4301Z" fill="#231F20"/>
<path d="M99.4897 91.0001C99.4897 91.0001 111.67 90.1201 114.43 95.7701C118.37 103.77 88.7097 111.15 80.4897 112.77C71.0497 114.62 73.0597 114.36 73.0597 114.36C73.0597 114.36 93.5597 108.96 96.4897 104.95C99.4197 100.94 100.21 93.0801 99.4897 91.0001Z" fill="#231F20"/>
<path d="M54.6299 40.7301C50.7499 42.0101 46.8299 43.2301 42.8799 44.3301C41.4299 44.7301 39.9899 45.1601 38.5299 45.5101C35.9426 46.1286 33.3215 46.5961 30.6799 46.9101C27.9847 47.3093 25.2408 47.2383 22.5699 46.7001C21.9607 46.5477 21.3627 46.3539 20.7799 46.1201C20.1705 45.8462 19.6018 45.4895 19.0899 45.0601C18.5372 44.5357 18.2047 43.8207 18.1599 43.0601C18.125 42.3765 18.241 41.6937 18.4999 41.0601C19.1076 39.5957 20.0096 38.2717 21.1499 37.1701C22.2235 36.0518 23.4777 35.1222 24.8599 34.4201C25.8099 34.0301 25.7499 34.4201 25.2499 35.0801C24.5018 36.1206 23.7008 37.1219 22.8499 38.0801C21.9257 39.0859 21.148 40.217 20.5399 41.4401C20.2935 41.9222 20.1731 42.4589 20.1899 43.0001C20.2129 43.1812 20.2796 43.3541 20.3841 43.5039C20.4886 43.6537 20.6278 43.7759 20.7899 43.8601C21.9262 44.5199 23.1989 44.91 24.5099 45.0001C25.9509 45.1577 27.4027 45.1945 28.8499 45.1101C32.5108 44.8046 36.132 44.1347 39.6599 43.1101C43.5999 42.1101 47.5099 40.8901 51.4099 39.6201C53.7999 38.8301 56.1999 38.0301 58.5799 37.1901C62.1799 35.9101 65.8099 34.6301 69.3699 33.3001C72.1299 32.3001 74.8099 31.1301 77.5799 30.1601C78.1899 29.9401 78.7899 29.7201 79.4099 29.5201C81.7399 28.8301 82.5699 28.9101 83.1699 29.1601C83.309 29.2063 83.443 29.2667 83.5699 29.3401C83.8599 29.5801 82.9799 30.0801 81.3899 30.8201C78.9999 31.8201 76.5199 32.8201 73.9999 33.8201L66.2999 36.7101C62.4532 38.1167 58.5699 39.4934 54.6499 40.8401L54.6299 40.7301Z" fill="#231F20"/>
<path d="M29.5797 115.23C30.548 116.097 31.6442 116.808 32.8297 117.34C33.2497 117.57 33.7297 117.66 34.1697 117.85C35.7648 118.458 37.463 118.75 39.1697 118.71C39.9529 118.676 40.7339 118.603 41.5097 118.49C42.5329 118.311 43.5752 118.268 44.6097 118.36C44.9297 118.36 44.8797 118.7 44.6097 119.02C44.2869 119.411 43.8376 119.676 43.3397 119.77C41.2646 120.24 39.1275 120.375 37.0097 120.17C35.6715 120.008 34.3499 119.73 33.0597 119.34C31.663 118.867 30.3425 118.193 29.1397 117.34C28.7797 117.06 28.4197 116.78 28.0697 116.49C27.7197 116.2 27.3997 115.88 27.0697 115.56C26.1116 114.572 25.3061 113.446 24.6797 112.22C24.1416 111.302 23.728 110.317 23.4497 109.29C23.3997 109.06 23.3397 108.84 23.2997 108.6C23.1997 107.72 23.3797 107.43 23.7597 107.24C23.8502 107.196 23.9438 107.16 24.0397 107.13C24.3397 107.05 24.6397 107.38 24.8097 107.91C24.9797 108.44 25.1197 108.7 25.2497 109.09L25.7697 110.23C26.1253 110.983 26.5469 111.702 27.0297 112.38C27.735 113.438 28.583 114.394 29.5497 115.22L29.5797 115.23Z" fill="#231F20"/>
</svg>
