<svg width="128" height="128" viewBox="0 0 128 128" fill="none" xmlns="http://www.w3.org/2000/svg">
<path d="M16.0004 103.87L15.7404 98.6499C15.7404 98.0099 15.6004 97.3799 15.5704 96.7399C15.4604 94.4999 15.3504 92.2499 15.2004 89.9999C15.1204 88.9999 15.0104 87.9999 14.9004 86.9999C14.6868 85.7383 14.593 84.4593 14.6204 83.1799C14.6204 82.7799 15.0204 82.7999 15.4304 83.0999C15.9495 83.483 16.3063 84.0468 16.4304 84.6799C16.6404 85.9599 16.8504 87.2299 17.0104 88.5199C17.1704 89.8099 17.2704 91.0999 17.3204 92.4099C17.3704 93.9799 17.7004 95.5799 17.8904 97.1799C18.0804 98.7799 18.2504 100.68 18.3904 102.44L18.6404 105.7C18.7804 107.34 18.8504 108.99 19.0104 110.62C19.1304 111.89 19.4104 113.13 19.5904 114.39C19.6384 114.665 19.6718 114.942 19.6904 115.22C19.6904 116.27 19.5304 116.61 18.8204 116.83C18.6633 116.889 18.5031 116.939 18.3404 116.98C17.8004 117.08 17.3404 116.66 17.1304 115.92C16.6014 113.683 16.3065 111.398 16.2504 109.1C16.1404 107.36 16.0404 105.61 15.9304 103.86L16.0004 103.87Z" fill="#231F20"/>
<path d="M37.1803 115.42C40.4903 115.54 43.8003 115.67 47.1003 115.73H50.7203C54.9803 115.82 59.2403 115.9 63.4903 115.81C65.3703 115.81 67.2603 115.67 69.1203 115.53C70.3203 115.44 71.5103 115.31 72.6903 115.18C73.8703 115.05 75.0803 114.94 76.1303 114.71C76.7803 114.59 76.9403 114.95 76.4603 115.56C76.3091 115.741 76.1417 115.909 75.9603 116.06C75.1974 116.614 74.3186 116.986 73.3903 117.15C70.9003 117.58 68.3903 117.84 65.9503 118.02C63.5103 118.2 60.9503 118.15 58.4903 118.09C55.4903 118.01 52.4203 118.2 49.3803 118.22C46.0303 118.22 42.6803 118.22 39.3803 118.15L33.1703 118C30.0503 117.93 26.9303 117.82 23.8303 117.78C21.4203 117.78 19.0503 117.86 16.6503 117.78C16.1203 117.78 15.6503 117.73 15.0703 117.66C13.0703 117.42 12.4903 117.12 12.1503 116.49C12.0634 116.357 11.9898 116.217 11.9303 116.07C11.8103 115.62 12.6503 115.38 14.0603 115.31C18.2703 114.95 22.6803 115.13 27.1703 115.17L37.1703 115.38L37.1803 115.42Z" fill="#231F20"/>
<path d="M82.85 88.56L82.92 94.76C82.92 95.51 83.02 96.26 83.03 97.02C83.03 99.68 83.09 102.34 83.17 105.02C83.17 106.2 83.31 107.38 83.43 108.54C83.6242 110.012 83.7111 111.496 83.69 112.98C83.6881 113.065 83.6562 113.146 83.6 113.21L83.51 113.28C83.51 113.28 83.51 113.28 83.4 113.28H83.3H83.36H83.1C82.9672 113.247 82.8417 113.189 82.73 113.11C82.1015 112.641 81.6815 111.945 81.56 111.17C81.337 109.642 81.2035 108.103 81.16 106.56C81.08 105.02 81.06 103.48 81.1 101.92C81.1 100.06 80.91 98.14 80.83 96.25L80.61 90L80.5 86.15C80.43 84.21 80.4 82.25 80.3 80.33C80.21 78.83 79.99 77.33 79.85 75.87C79.85 75.54 79.77 75.22 79.77 74.87C79.77 73.64 79.97 73.22 80.55 72.98C80.671 72.914 80.7983 72.8604 80.93 72.82C81.33 72.72 81.73 73.22 81.93 74.09C82.4125 76.7847 82.6833 79.513 82.74 82.25C82.84 84.33 82.85 86.42 82.92 88.5L82.85 88.56Z" fill="#231F20"/>
<path d="M99.3805 99.2699C100.38 98.3999 101.38 97.5299 102.38 96.6899C102.75 96.3299 102.58 96.6899 102.64 95.7899V93.7899V90.9399C102.64 87.5899 102.55 84.2299 102.45 80.8699C102.45 79.3699 102.31 77.8699 102.21 76.3999C102.09 74.4999 101.92 72.5899 101.98 70.6799C101.98 69.4899 103.18 70.9399 103.41 73.1199C103.74 76.9799 104.12 80.8499 104.13 84.7799C104.13 87.1299 104.36 89.57 104.42 91.9799C104.42 93.2999 104.42 94.6199 104.42 95.9799V96.5399C104.436 96.7997 104.436 97.0602 104.42 97.3199L103.42 98.1899L102 99.5199C100.8 100.6 99.6005 101.7 98.4205 102.8L93.0205 107.8C91.6305 109.1 90.3205 110.45 88.9205 111.72C88.6105 112 88.3205 112.3 87.9905 112.56C87.5861 112.952 87.1064 113.258 86.5805 113.46C86.2848 113.576 85.9562 113.576 85.6605 113.46C85.5338 113.423 85.4101 113.376 85.2905 113.32C84.9805 113.14 85.2905 112.43 86.0205 111.62C88.4105 109.34 91.0205 107 93.5705 104.62L99.3805 99.2499V99.2699Z" fill="#231F20"/>
<path d="M97.45 66.7C99.05 65.92 100.63 65.1 102.15 64.21C102.43 64.04 102.69 63.86 102.95 63.68L103.31 63.43L103.53 63.21C104.206 62.4653 104.672 61.5542 104.88 60.57C105.152 59.5197 105.24 58.4303 105.14 57.35C105.057 56.3813 104.789 55.4376 104.35 54.57C103.785 53.4961 103.002 52.5524 102.05 51.8C101.78 51.54 101.96 51.28 102.42 51.2C102.722 51.1672 103.027 51.1909 103.32 51.27C103.692 51.4024 104.032 51.6101 104.32 51.88C105.324 52.9765 106.058 54.2928 106.463 55.7236C106.867 57.1544 106.931 58.66 106.65 60.12C106.513 61.0087 106.271 61.8781 105.93 62.71C105.57 63.6206 104.964 64.4133 104.18 65C102.63 66 101.04 66.94 99.43 67.81C98.43 68.34 97.43 68.81 96.43 69.36C94.92 70.12 93.36 70.83 91.85 71.58C90.67 72.15 89.57 72.82 88.4 73.42C88.15 73.55 87.91 73.69 87.64 73.82C86.64 74.25 86.29 74.24 85.87 73.82C85.7686 73.7243 85.6749 73.6206 85.59 73.51C85.33 73.13 85.59 72.63 86.26 72.22C88.3071 71.0273 90.4205 69.9522 92.59 69C94.2 68.24 95.83 67.48 97.43 66.65L97.45 66.7Z" fill="#231F20"/>
<path d="M8.53024 67.52C8.64792 66.3741 8.94488 65.2538 9.41024 64.2C9.88646 63.0599 10.6391 62.0564 11.6002 61.28C11.7402 61.18 11.8202 61.09 12.0002 60.98C12.2121 60.8573 12.4327 60.7504 12.6602 60.66C13.0202 60.55 13.3002 60.5 13.6602 60.43C14.2202 60.36 14.7702 60.3 15.2902 60.27C16.3402 60.2 17.3602 60.2 18.3802 60.2C22.4502 60.2 26.4502 60.44 30.4602 60.63L39.2202 61.04C49.5002 61.59 59.7902 62.19 70.0502 62.04C72.3202 61.98 74.6002 61.87 76.8502 61.64C77.4202 61.64 77.9802 61.52 78.5402 61.45C78.8002 61.45 79.1302 61.39 79.3502 61.34L79.6202 61.25L79.9802 61.09C80.9802 60.64 81.9802 60.09 82.9802 59.55C88.0002 56.71 93.1002 53.71 98.6902 51.74C100.47 51.17 100.35 51.74 99.0802 52.66C97.0079 54.1854 94.8214 55.5494 92.5402 56.74C89.9302 58.12 87.3502 59.57 84.7202 60.99C83.3902 61.7 82.1402 62.41 80.6202 63.08C80.1687 63.2794 79.6902 63.4108 79.2002 63.47L78.0602 63.6C77.3102 63.69 76.5502 63.74 75.7902 63.81C69.7806 64.1882 63.7547 64.2316 57.7402 63.94C50.5502 63.65 43.0702 63.44 35.7402 63.09C31.7402 62.9 27.6802 62.7 23.6502 62.57C21.6502 62.5 19.6502 62.46 17.6502 62.48C16.6502 62.48 15.6502 62.53 14.7102 62.61L14.0002 62.7C13.8002 62.7 13.5702 62.79 13.4202 62.84C13.3713 62.8547 13.3192 62.8547 13.2702 62.84C13.2006 62.9143 13.1235 62.9813 13.0402 63.04C12.8728 63.1675 12.7187 63.3115 12.5802 63.47C11.1402 65.03 10.6702 67.47 10.8002 69.8C10.8758 70.9649 11.1045 72.1148 11.4802 73.22C11.5626 73.4976 11.6663 73.7684 11.7902 74.03C11.8966 74.2962 12.0237 74.5536 12.1702 74.8C12.2954 75.0525 12.4426 75.2934 12.6102 75.52L12.8502 75.87C12.9218 75.9516 12.9986 76.0284 13.0802 76.1C13.7346 76.5852 14.4844 76.926 15.2802 77.1C16.1737 77.3559 17.0821 77.5563 18.0002 77.7C19.8202 77.97 21.6802 78.1 23.5502 78.19C27.2802 78.36 31.0302 78.34 34.7502 78.25C40.5502 78.11 46.2202 77.66 51.9602 77.4C53.2302 77.34 54.4702 77.26 55.7402 77.22C60.4802 77.09 62.0102 77.29 63.0202 77.96C63.2522 78.0954 63.473 78.2492 63.6802 78.42C64.1202 78.95 62.2002 79.32 58.7702 79.53C48.5602 80.18 37.7702 80.9 26.7702 80.75C24.7702 80.75 22.6802 80.63 20.6102 80.46C18.4736 80.3175 16.3565 79.9624 14.2902 79.4L13.4602 79.11C13.1702 79 12.8802 78.85 12.6002 78.72C12.3202 78.59 12.0002 78.35 11.7102 78.16L11.2602 77.73C11.1272 77.6018 11.0066 77.4611 10.9002 77.31C10.1951 76.3634 9.63866 75.3146 9.25024 74.2C8.50306 72.061 8.23674 69.7836 8.47024 67.53L8.53024 67.52Z" fill="#231F20"/>
<path d="M23.9303 55.79C25.1203 55.53 26.3103 55.24 27.4903 54.91C27.9203 54.78 28.3303 54.61 28.7603 54.48L33.3503 53.14C34.0203 52.94 34.6903 52.69 35.3503 52.44C36.1697 52.0498 37.0426 51.7836 37.9403 51.65C38.2303 51.65 38.2803 51.88 38.1703 52.24C38.0224 52.7043 37.7231 53.1057 37.3203 53.38C35.6638 54.2001 33.9368 54.8694 32.1603 55.38C31.0703 55.65 30.0203 56.15 28.9403 56.52C27.8603 56.89 26.5403 57.28 25.3303 57.63L23.0803 58.22C21.9503 58.51 20.7903 58.74 19.6703 59.04C18.8003 59.28 17.9703 59.6 17.1003 59.82C16.9103 59.82 16.7303 59.93 16.5303 59.97C15.8103 60.1 15.5303 59.97 15.3103 59.59C15.2464 59.5013 15.1896 59.4077 15.1403 59.31C15.0103 58.98 15.2403 58.62 15.7303 58.37C17.1859 57.6038 18.7358 57.0322 20.3403 56.67L23.9103 55.78L23.9303 55.79Z" fill="#231F20"/>
<path d="M83.9003 47.55L86.9703 47.92C87.3403 47.92 87.7203 47.92 88.0903 47.99L92.0903 48.5C92.6703 48.57 93.2603 48.59 93.8403 48.61C94.595 48.5703 95.3512 48.6513 96.0803 48.85C96.3103 48.93 96.2803 49.18 96.0803 49.46C95.8494 49.8133 95.4913 50.064 95.0803 50.16C93.5325 50.2809 91.9761 50.2272 90.4403 50C89.5047 49.8863 88.5628 49.8329 87.6203 49.84L84.5203 49.61L82.6103 49.47C81.6103 49.4 80.6803 49.31 79.7203 49.3C78.9703 49.3 78.2403 49.4 77.5003 49.4C77.3403 49.4 77.1803 49.4 77.0203 49.4C76.4103 49.4 76.2303 49.22 76.1103 48.77C76.1103 48.67 76.0503 48.57 76.0403 48.47C75.9903 48.13 76.2503 47.85 76.7003 47.73C78.0283 47.3321 79.4171 47.1762 80.8003 47.27C81.8003 47.27 82.8703 47.39 83.9003 47.49V47.55Z" fill="#231F20"/>
<path d="M29.9304 80.41C32.4504 80.41 34.9904 80.41 37.5204 80.34L40.3004 80.19C43.5604 80.08 46.8404 79.99 50.1104 79.84C51.5604 79.77 53.0204 79.67 54.4604 79.57C56.3026 79.411 58.1519 79.3509 60.0004 79.39C60.5804 79.39 60.5004 79.66 60.0004 79.92C59.2404 80.2814 58.4198 80.4984 57.5804 80.56C53.8304 80.86 50.0804 81.24 46.2704 81.41C43.9904 81.5 41.6304 81.8 39.2704 81.93C36.7004 82.08 34.1304 82.19 31.5504 82.23C29.9704 82.23 28.3804 82.23 26.7904 82.23C24.3712 82.193 21.9565 82.0059 19.5604 81.67C18.6216 81.5349 17.6903 81.3513 16.7704 81.12C15.7794 80.8981 14.8416 80.4835 14.0104 79.9C13.808 79.7593 13.6204 79.5985 13.4504 79.42L13.1204 79C12.7033 78.6769 12.3272 78.3042 12.0004 77.89C11.867 77.73 11.7939 77.5283 11.7939 77.32C11.7939 77.1117 11.867 76.9099 12.0004 76.75C12.0919 76.6313 12.2125 76.5383 12.3504 76.48C12.5704 76.41 12.7604 76.55 12.9404 76.61C13.2226 76.6507 13.4923 76.7531 13.7304 76.91C14.1754 77.1526 14.5775 77.4668 14.9204 77.84C15.1438 78.0484 15.3885 78.2327 15.6504 78.39C16.2785 78.7421 16.9512 79.0078 17.6504 79.18C19.21 79.5944 20.8027 79.8721 22.4104 80.01C24.8804 80.25 27.4104 80.35 29.9704 80.36L29.9304 80.41Z" fill="#231F20"/>
<path d="M98.3204 69.93C97.6404 70.26 96.9304 70.53 96.2404 70.82C95.9904 70.91 95.7504 71.05 95.4904 71.14L92.7904 72.06C92.3926 72.1925 92.002 72.346 91.6204 72.52C91.1454 72.7598 90.6458 72.9476 90.1304 73.08C89.8004 73.16 89.8504 72.25 90.3704 71.91C91.3097 71.3406 92.3178 70.8936 93.3704 70.58C93.9973 70.3577 94.6058 70.0869 95.1904 69.77C95.8504 69.47 96.5004 69.16 97.1904 68.83C97.5804 68.63 97.9804 68.43 98.3704 68.2C98.9597 67.8732 99.5275 67.5091 100.07 67.11C100.5 66.81 100.84 66.4 101.24 66.11L101.49 65.89C101.84 65.64 102.01 65.64 102.29 65.83L102.48 65.97C102.67 66.13 102.66 66.41 102.48 66.7C102.224 67.1387 101.908 67.5393 101.54 67.89C101.186 68.2667 100.79 68.6021 100.36 68.89C99.716 69.3107 99.0483 69.6946 98.3604 70.04L98.3204 69.93Z" fill="#231F20"/>
<path d="M47.1101 100.09L47.0001 95.7799C47.0001 95.2499 46.9101 94.7799 46.9001 94.2099C46.9001 92.3499 46.9001 90.4899 46.9001 88.6199V86.1399C46.8156 85.0455 46.9447 83.9451 47.2801 82.8999C47.4101 82.5599 47.7101 82.7299 48.0001 83.0699C48.3432 83.4556 48.5597 83.9373 48.6201 84.4499C48.6201 85.4499 48.7501 86.4499 48.8201 87.5299C48.8901 88.6099 48.8201 89.6299 48.8201 90.6999C48.8379 92.0046 48.9347 93.307 49.1101 94.5999L49.4001 98.9199L49.5901 101.58C49.6901 102.93 49.7601 104.28 49.9301 105.58C50.0501 106.58 50.3401 107.58 50.4901 108.66C50.5415 108.884 50.5816 109.111 50.6101 109.34C50.6901 110.2 50.4701 110.49 49.8501 110.69C49.7101 110.69 49.5901 110.79 49.4701 110.81C49.2108 110.835 48.9508 110.768 48.7365 110.62C48.5222 110.471 48.3676 110.252 48.3001 110C47.7623 108.184 47.4434 106.311 47.3501 104.42C47.2301 102.98 47.1601 101.54 47.0501 100.09H47.1101Z" fill="#231F20"/>
<path d="M53.4201 95.4899C50.7201 95.4899 48.0234 95.5266 45.3301 95.5999C44.3301 95.5999 43.3301 95.7199 42.3801 95.7399C38.9101 95.8199 35.4401 95.8999 31.9701 96.0799C30.4301 96.1699 28.8901 96.3099 27.3801 96.4799C25.4401 96.6999 23.4601 97.0399 21.5901 97.1199C21.0301 97.1199 20.9501 96.7799 21.3701 96.2599C21.6518 95.9371 21.9909 95.6693 22.3701 95.4699C22.8316 95.1913 23.3457 95.0109 23.8801 94.9399C27.8972 94.3805 31.9448 94.0666 36.0001 93.9999C38.4301 93.9999 40.9401 93.6999 43.4201 93.5799C46.1401 93.4666 48.8668 93.3833 51.6001 93.3299L56.6001 93.2499L64.2201 93.1799C66.2201 93.1799 68.1101 92.9899 70.0601 92.9299C70.4901 92.9299 70.9101 92.9299 71.3401 92.9299C72.9501 92.9299 73.4601 93.1499 73.7701 93.7599C73.8489 93.8938 73.9158 94.0344 73.9701 94.1799C74.0901 94.6399 73.4201 94.9999 72.2601 95.0899C70.5501 95.2199 68.7801 95.3499 66.9901 95.3599C65.2001 95.3699 63.3901 95.3599 61.5601 95.4399C58.8601 95.4399 56.1301 95.4399 53.4101 95.5299L53.4201 95.4899Z" fill="#231F20"/>
<path d="M97.08 83.6499V87.6499C97.08 88.1399 97.14 88.6499 97.14 89.0999C97.14 90.8099 97.09 92.5199 97.14 94.2299C97.14 94.9899 97.14 95.7499 97.23 96.4999C97.3049 97.4718 97.3049 98.448 97.23 99.4199C97.16 100.02 96.33 99.2699 96.11 98.1899C95.6928 96.2557 95.5148 94.2776 95.58 92.2999C95.58 91.1099 95.41 89.8899 95.34 88.6699C95.27 87.4499 95.23 85.9999 95.19 84.6699L95.12 82.1999C95.12 80.9499 95.12 79.6899 94.99 78.4499C94.93 77.4499 94.77 76.5499 94.68 75.5799C94.6653 75.3669 94.6653 75.153 94.68 74.9399C94.68 74.1299 94.96 73.8699 95.42 73.7399L95.71 73.6499C95.7958 73.6426 95.882 73.6571 95.9607 73.692C96.0394 73.727 96.108 73.7813 96.16 73.8499C96.3364 74.0302 96.4607 74.2548 96.52 74.4999C96.731 75.3179 96.855 76.1559 96.89 76.9999C96.99 77.8699 97.02 78.7499 97.05 79.6399C97.05 80.9699 97.05 82.3099 97.13 83.6399L97.08 83.6499Z" fill="#231F20"/>
<path d="M93.0003 88C93.7403 87.52 94.4803 87 95.1903 86.47C95.4503 86.27 95.6703 86.03 95.9303 85.83L98.6803 83.65C99.0803 83.32 99.4703 82.97 99.8503 82.65C100.319 82.1707 100.843 81.7478 101.41 81.39C101.77 81.17 101.88 82.13 101.41 82.68C100.518 83.6901 99.5559 84.6358 98.5303 85.51C97.8703 86 97.3103 86.64 96.6803 87.2C96.0503 87.76 95.2503 88.4 94.5003 88.96C94.0403 89.3 93.5703 89.6333 93.0903 89.96C92.3603 90.45 91.5803 90.86 90.8203 91.3C90.2203 91.62 89.6603 92.02 89.0303 92.3C88.9011 92.3826 88.7592 92.4434 88.6103 92.48C88.4043 92.5593 88.1763 92.5593 87.9703 92.48C87.8208 92.397 87.6991 92.2718 87.6203 92.12C87.572 92.0532 87.5286 91.983 87.4903 91.91C87.3903 91.68 87.5503 91.36 87.8403 91.03C88.7711 90.3993 89.7509 89.8442 90.7703 89.37C91.538 88.9216 92.2823 88.4343 93.0003 87.91V88Z" fill="#231F20"/>
<path d="M104 87.8299C104 87.8299 115.84 87.7399 117.85 93.1899C120.28 99.7499 102.59 109.6 86.7305 112.33L103.66 96.9999L104 87.8299Z" fill="#231F20"/>
<path d="M62.4003 24.2199C62.449 24.0594 62.5296 23.9103 62.6371 23.7815C62.7447 23.6528 62.877 23.547 63.0263 23.4705C63.1756 23.394 63.3388 23.3483 63.5061 23.3362C63.6735 23.324 63.8415 23.3457 64.0003 23.3999C67.2503 24.4099 61.3303 27.6699 62.4003 24.2199Z" fill="#231F20"/>
<path d="M50.2104 11.76C50.2582 11.6021 50.337 11.4553 50.4422 11.3283C50.5474 11.2013 50.6769 11.0965 50.8231 11.0202C50.9693 10.9438 51.1293 10.8974 51.2937 10.8836C51.458 10.8698 51.6235 10.889 51.7804 10.94C55.0604 12 49.1404 15.21 50.2104 11.76Z" stroke="#231F20" stroke-miterlimit="10"/>
<path d="M26.2202 31.3799C26.2691 31.2228 26.3486 31.0769 26.4541 30.9506C26.5596 30.8243 26.689 30.72 26.8349 30.6439C26.9807 30.5677 27.1402 30.521 27.3041 30.5066C27.4681 30.4922 27.6332 30.5103 27.7902 30.5599C31.0702 31.5699 25.1502 34.8299 26.2202 31.3799Z" stroke="#231F20" stroke-miterlimit="10"/>
<path d="M93.2504 24.22C93.2994 24.0629 93.3789 23.917 93.4844 23.7907C93.5899 23.6644 93.7193 23.5601 93.8651 23.4839C94.011 23.4078 94.1705 23.3611 94.3344 23.3467C94.4983 23.3323 94.6635 23.3504 94.8204 23.4C98.1004 24.41 92.1804 27.67 93.2504 24.22Z" stroke="#231F20" stroke-miterlimit="10"/>
<path d="M38.24 48.3599C37.6768 46.9592 37.3686 45.4691 37.33 43.9599C37.2506 42.2565 37.8227 40.5867 38.93 39.2899C39.765 38.359 40.858 37.6976 42.07 37.3899C43.0968 37.1552 44.1633 37.1552 45.19 37.3899C46.1215 37.6231 47.0141 37.9902 47.84 38.4799C49.3966 39.4363 50.7992 40.6231 52 41.9999C53.0514 43.1215 54.0364 44.3035 54.95 45.5399C56.2561 47.0782 57.1689 48.9108 57.61 50.8799C57.7 51.5499 56.96 51.5899 56.15 51.3399C55.2423 51.1058 54.4608 50.5286 53.97 49.7299C52.328 46.5762 50.1019 43.763 47.41 41.4399C46.6295 40.7889 45.7032 40.336 44.71 40.1199C43.8254 39.9233 42.9006 40.0252 42.08 40.4099C41.6424 40.5976 41.254 40.8838 40.9452 41.2464C40.6364 41.6089 40.4156 42.0379 40.3 42.4999C40.0679 43.6011 40.0953 44.7412 40.38 45.8299C40.7197 47.2687 41.3679 48.6165 42.28 49.7799C43.725 51.6051 45.5508 53.0931 47.63 54.1399C49.2558 54.9349 50.9668 55.5422 52.73 55.9499L53.89 56.2299C55.32 56.6199 55.73 56.8999 55.89 57.7199C55.9307 57.9043 55.9574 58.0915 55.97 58.2799C55.97 58.8699 55.24 59.1999 54.09 59.0499C50.4517 58.5539 46.9795 57.215 43.95 55.1399C41.4578 53.4941 39.4845 51.174 38.26 48.4499L38.24 48.3599Z" fill="#221F1F"/>
<path d="M73.11 42.2199C73.6216 40.9755 73.8538 39.6339 73.79 38.2899C73.7697 37.9122 73.6092 37.5557 73.34 37.2899C72.9415 37.0384 72.4669 36.9357 72 36.9999C71.5162 37.0394 71.041 37.1506 70.59 37.3299L69.89 37.5699L69.19 37.9099C67.4717 38.7757 65.9048 39.9137 64.55 41.2799C63.1155 42.6792 61.8225 44.2167 60.69 45.8699C59.6698 47.3448 58.7956 48.9156 58.08 50.5599C57.15 52.6499 56.54 54.8399 55.75 56.9399C55.5 57.5899 54.75 57.3899 54.25 56.6199C53.9091 56.1094 53.6903 55.5273 53.6106 54.9186C53.5308 54.3099 53.5922 53.6911 53.79 53.1099C55.4203 48.326 58.1185 43.976 61.68 40.3899C62.7723 39.2947 63.9205 38.2566 65.12 37.2799C66.3622 36.2292 67.7763 35.4004 69.3 34.8299C70.1816 34.4986 71.1093 34.3063 72.05 34.2599C72.6059 34.1941 73.1694 34.2457 73.7041 34.4113C74.2387 34.5769 74.7327 34.8529 75.154 35.2215C75.5753 35.59 75.9146 36.0428 76.1499 36.5507C76.3852 37.0586 76.5113 37.6103 76.52 38.1699C76.5931 39.0872 76.5325 40.0102 76.34 40.9099C75.8864 42.9815 75.0959 44.9645 74 46.7799C72.373 49.4874 70.2044 51.8296 67.63 53.6599C65.69 55.0899 63.72 56.3499 61.8 57.5899L60.55 58.4199C58.97 59.4199 58.4 59.5899 57.64 59.1799C57.4626 59.1008 57.292 59.0072 57.13 58.8999C56.65 58.5299 57.02 57.6699 58.13 56.7699C61.49 54.0799 65.44 52.2899 68.23 49.5399C69.2831 48.5108 70.2219 47.3709 71.03 46.1399C71.8706 44.9224 72.5433 43.5972 73.03 42.1999L73.11 42.2199Z" fill="#221F1F"/>
</svg>
