<svg width="128" height="128" viewBox="0 0 128 128" fill="none" xmlns="http://www.w3.org/2000/svg">
<path d="M66.1601 44.31C66.1701 43.28 66.1901 42.26 66.2001 41.23C66.2001 40.86 66.1701 40.48 66.1901 40.11C66.2301 38.79 66.3301 37.48 66.4601 36.17C66.5001 35.59 66.5201 35 66.5401 34.43C66.5801 33.69 66.5101 32.94 66.7901 32.21C66.8601 31.98 66.9401 32.02 67.0801 32.21C67.1501 32.31 67.2401 32.45 67.3501 32.62C67.4701 32.79 67.5401 32.99 67.5401 33.2C67.6201 34.7 67.6901 36.2 67.6101 37.71C67.5401 38.61 67.6201 39.56 67.6401 40.48L67.7101 43.53L67.7801 45.41C67.8201 46.36 67.8501 47.31 67.9601 48.25C68.0501 48.98 68.2201 49.68 68.3601 50.39C68.3901 50.55 68.4301 50.7 68.4601 50.86C68.5501 51.45 68.4801 51.65 68.1401 51.83C68.0601 51.87 67.9801 51.92 67.9001 51.95C67.6301 52.05 67.3701 51.84 67.2201 51.41C66.7801 50.15 66.5401 48.78 66.3701 47.4C66.2501 46.37 66.1501 45.34 66.1201 44.31H66.1601Z" fill="#231F20"/>
<path d="M81.0402 69.19C79.4902 64.42 78.1402 59.61 76.8102 54.81C76.3302 53.06 75.7802 51.33 75.3202 49.57C73.7402 43.38 72.4402 37.07 70.6402 31.08C70.4302 30.43 70.2102 29.75 69.9502 29.18C69.8102 28.86 69.6602 28.55 69.4402 28.29C69.3402 28.16 69.2102 28.04 69.0702 27.96C68.8902 27.98 68.7902 28.15 68.7002 28.29C68.5402 28.6 68.4502 28.93 68.3802 29.24L68.1302 30.33C68.0402 30.76 67.9602 31.19 67.8802 31.63C67.7302 32.5 67.6002 33.38 67.4802 34.27C67.2502 36.05 67.0302 37.82 66.8002 39.61C66.4702 40.72 66.5202 40.58 66.1402 39.62C65.7902 38.66 65.3202 36.86 65.3302 34.73C65.3802 32.84 65.4802 30.96 65.8102 29.01L65.8402 28.82C65.8402 28.82 65.8602 28.72 65.8502 28.65L65.8902 28.48L66.0302 27.79C66.1702 27.35 66.3202 26.92 66.4802 26.5C66.8002 25.65 67.2802 25.1 67.7802 24.76C68.0402 24.62 68.3102 24.49 68.6302 24.45C68.9802 24.38 69.2902 24.38 69.5902 24.38C69.8702 24.56 70.1602 24.77 70.4302 25L70.8402 25.34C70.9702 25.47 71.0902 25.65 71.2202 25.8C71.3402 25.96 71.4702 26.11 71.5902 26.28L71.9202 26.84C72.1302 27.21 72.3902 27.57 72.5502 27.99C72.7902 28.51 72.9502 28.93 73.1502 29.4C73.5002 30.31 73.8102 31.22 74.0902 32.12C74.6202 33.94 75.0302 35.77 75.4302 37.6C76.3602 41.97 77.7202 46.39 78.8202 50.8C80.0502 55.64 81.2902 60.47 82.7402 65.24C83.6202 68.17 84.5602 71.09 85.6302 73.95C86.4502 76.11 87.2902 78.27 88.2702 80.36C89.2502 82.48 90.2302 84.58 91.3102 86.61C92.9902 89.75 94.9302 92.67 97.2302 95.22C97.7302 95.79 98.2702 96.29 98.8002 96.82C99.3002 97.3 99.7302 97.67 100.05 98.05C100.4 98.38 100.68 98.65 100.88 98.91C101.29 99.43 101.52 99.76 101.64 100.18C101.69 100.36 101.8 100.57 101.81 100.71C101.84 100.96 101.56 101 100.99 100.87C100.71 100.8 100.34 100.71 99.9302 100.54C99.5302 100.36 99.0802 100.11 98.5902 99.81C95.8002 97.86 93.6002 95.16 91.6902 92.33C89.7902 89.48 88.2002 86.42 86.7302 83.38C84.4402 78.88 82.5902 74.03 80.9802 69.26L81.0502 69.23L81.0402 69.19Z" fill="#231F20"/>
<path d="M64.0598 43.44C64.1798 42.53 64.2898 41.61 64.3598 40.69C64.3898 40.35 64.3798 40.02 64.3998 39.68L64.5298 37.9C64.5898 37.3 64.6298 36.71 64.6598 36.11C64.6898 35.58 64.6698 35.05 64.6598 34.52C64.6398 33.85 64.6298 33.17 64.6398 32.49C64.6398 32.28 64.6898 32.3 64.7698 32.48C64.8398 32.65 64.9698 32.97 65.0498 33.36C65.2998 34.73 65.5098 36.11 65.5098 37.51C65.5198 38.39 65.5298 39.22 65.5398 40.08C65.5298 41.02 65.4798 41.96 65.4198 42.9C65.3798 43.48 65.3298 44.06 65.2898 44.63C65.2098 45.5 65.0998 46.38 65.0398 47.25C64.9898 47.92 65.0198 48.6 64.9998 49.27C64.9998 49.42 64.9998 49.57 64.9998 49.71C64.9598 50.26 64.8198 50.42 64.4398 50.49C64.3498 50.51 64.2598 50.53 64.1798 50.53C63.8898 50.54 63.6798 50.29 63.6398 49.88C63.5398 48.68 63.6398 47.45 63.7498 46.2C63.8398 45.28 63.9198 44.35 64.0298 43.43H64.0598V43.44Z" fill="#231F20"/>
<path d="M66.06 72.16C65.88 72.87 65.7 73.57 65.55 74.29C65.49 74.55 65.49 74.81 65.43 75.07C65.22 75.99 65.05 76.91 64.88 77.83C64.8 78.24 64.77 78.66 64.74 79.07C64.72 79.6 64.67 80.13 64.52 80.65C64.47 80.81 64.34 80.79 64.18 80.65C64.03 80.51 63.81 80.24 63.75 79.93C63.6 78.83 63.56 77.74 63.76 76.65C63.89 76 63.86 75.31 63.92 74.64C63.99 73.9 64.09 73.17 64.19 72.44C64.26 71.99 64.33 71.54 64.4 71.09C64.5 70.41 64.65 69.73 64.71 69.05C64.75 68.52 64.71 67.99 64.74 67.46C64.74 67.34 64.74 67.23 64.74 67.11C64.8 66.68 64.95 66.56 65.44 66.55C65.55 66.55 65.66 66.54 65.77 66.55C66.14 66.57 66.42 66.8 66.49 67.12C66.6 67.61 66.65 68.1 66.66 68.58C66.68 69.07 66.57 69.55 66.5 70.03C66.36 70.74 66.23 71.46 66.09 72.18H66.04L66.06 72.16Z" fill="#231F20"/>
<path d="M86.89 107.85C86.58 108.3 95.19 119.04 98.79 118.89C102.39 118.74 107.04 112.52 110 110.94C112.96 109.35 111.92 107.41 111.92 107.41C111.92 107.41 105.07 98.7601 101.89 98.5401C98.71 98.3201 93.54 101.19 92.35 102.18C91.16 103.17 86.89 107.85 86.89 107.85Z" fill="#231F20"/>
<path d="M46.1701 69.1699C48.9001 63.2899 51.3001 57.2399 53.4101 51.0799C54.1801 48.8299 54.8401 46.5499 55.5501 44.2799C56.8101 40.2599 57.9301 36.3099 58.7601 32.1899C58.9801 31.1599 59.1901 30.1299 59.4501 29.0599C59.5801 28.5299 59.7301 27.9799 59.9201 27.4299C59.9701 27.3099 60.0201 27.1199 60.1001 26.9199L60.3701 26.3599C60.5301 25.9699 60.7601 25.6499 60.9801 25.3199C61.1901 24.9799 61.4701 24.7499 61.7101 24.4599C61.9801 24.2399 62.2501 23.9599 62.5401 23.8099C62.8301 23.6799 63.1101 23.4799 63.4201 23.4299C63.7301 23.3599 64.1101 23.3999 64.4001 23.5599C65.5101 24.1599 66.0101 25.6399 66.3101 27.2399L66.4001 27.7699L66.4601 28.1499L66.5501 28.8699L66.7001 30.2999C66.7901 31.2499 66.8501 32.1999 66.9101 33.1499C67.0101 35.0399 67.0601 36.9199 67.0901 38.7899C67.1201 41.1899 67.2001 43.5799 67.1201 45.9799C67.0201 48.3699 66.8901 50.7599 66.5101 53.1299C66.0601 54.6099 66.1201 54.4199 65.5901 53.1499C65.3101 52.5199 65.0401 51.6199 64.7301 50.5299C64.4501 49.4499 64.2401 48.1799 64.1501 46.8099L64.0401 44.9899L64.0101 43.1699L63.9401 39.5399C63.8901 37.1299 63.7801 34.7199 63.6801 32.3499C63.6201 31.1699 63.5401 29.9899 63.4101 28.8499C63.3801 28.5699 63.3201 28.1999 63.3501 28.2799V28.1899C63.3501 28.1199 63.3501 28.0399 63.3201 27.9499C63.3001 27.8499 63.1901 27.8099 63.1301 27.8499C63.0601 27.8699 62.9901 27.9199 62.9201 27.9999C62.8901 28.0399 62.8501 28.0799 62.8201 28.1299C62.8001 28.1599 62.7901 28.1699 62.7701 28.2299L62.6301 28.5899C62.4501 29.0999 62.2901 29.6499 62.1401 30.2199C61.4401 32.9899 60.8401 36.0299 60.0701 38.9699C59.3001 41.9399 58.4301 44.8299 57.5301 47.7199C55.5201 54.0499 53.2501 60.2999 50.6201 66.4099C49.0101 70.1699 47.2601 73.8799 45.3601 77.5099C43.9001 80.2499 42.3801 82.9599 40.7101 85.5899C39.0301 88.2299 37.1501 90.7299 35.0901 93.0599C31.9101 96.6999 28.3401 99.9099 24.3201 102.59C23.4401 103.18 22.5501 103.72 21.6201 104.27C18.1001 106.13 16.8101 106.36 15.7101 105.84C15.4701 105.74 15.1701 105.68 15.0201 105.57C14.7501 105.39 14.9501 105.05 15.4701 104.49C15.9701 103.88 16.9501 103.45 18.1301 102.73C21.7001 100.76 25.1501 98.4199 28.3001 95.6499C31.4401 92.8699 34.2801 89.6799 36.7301 86.1699C38.5401 83.5699 40.1601 80.7399 41.7301 77.8899C43.2901 75.0299 44.7501 72.1099 46.0901 69.1299L46.1601 69.1499L46.1701 69.1699Z" fill="#231F20"/>
<path d="M64.2901 75.86C64.4201 75.29 64.5601 74.72 64.7301 74.16C64.8101 73.88 64.8901 73.59 64.9901 73.31L65.1301 72.88C65.1501 72.82 65.1501 72.83 65.1601 72.81C65.1801 72.92 65.1301 72.31 65.1101 71.94L65.0401 70.71L64.9201 68.25C64.8501 66.61 64.8101 64.97 64.8001 63.32C64.7901 61.71 64.7301 60.09 64.8201 58.46C64.9101 57.02 65.0201 55.58 65.2901 54.09C65.3501 53.72 65.4501 53.34 65.5401 52.95C65.5901 52.79 65.7001 52.38 65.8001 52.15C65.9101 51.88 66.0501 51.63 66.1701 51.38C66.6701 50.39 67.7101 49.79 68.7801 49.95C69.8501 50.06 70.7501 50.82 71.3801 51.75C71.5401 52.03 71.6601 52.2 71.7401 52.38L72.0001 52.93C72.1401 53.29 72.2901 53.65 72.3901 54.01C72.8501 55.44 73.1501 56.83 73.4001 58.23C73.8501 60.7 74.3201 63.14 75.0101 65.47C75.4401 66.96 75.9701 68.42 76.6201 69.78C76.9301 70.47 77.2601 71.13 77.6401 71.76C77.8301 72.07 78.0301 72.38 78.2601 72.66C78.4601 72.98 78.6701 73.26 78.8801 73.6C79.3901 74.46 79.4301 74.32 78.4701 74.17C78.0101 74.07 77.2601 73.92 76.5901 73.43C75.9301 72.95 75.2101 72.27 74.6901 71.41C72.9801 68.29 72.2601 65 71.4801 61.84C71.1001 60.28 70.7201 58.73 70.3401 57.16C70.1601 56.4 69.9801 55.65 69.7501 54.96C69.6401 54.61 69.5201 54.28 69.3901 53.97C69.3201 53.83 69.2601 53.65 69.1901 53.54C69.1701 53.48 69.1701 53.46 69.1401 53.4C69.0601 53.18 68.7101 52.91 68.4601 53.12C68.3501 53.22 68.2901 53.36 68.2301 53.51L68.1901 53.63C68.1501 53.72 68.1301 53.84 68.1101 53.95C68.0601 54.16 68.0001 54.38 67.9701 54.61C67.6201 56.43 67.5901 58.43 67.5401 60.38C67.5001 62.46 67.5401 64.56 67.6101 66.66L67.7501 69.81L67.8401 71.38L67.9701 73.18L67.7401 73.83C66.9501 76.29 66.4601 78.91 66.3201 81.51C66.1501 85.45 66.7601 89.53 68.7401 92.91C70.2001 95.54 72.6301 97.48 75.0701 99.25C75.6201 99.64 76.1701 99.98 76.7401 100.35C78.8401 101.7 79.4701 102.15 79.6801 102.96C79.7301 103.14 79.8201 103.33 79.8301 103.48C79.8801 103.97 78.6901 103.95 76.9401 103.06C74.3601 101.75 71.8801 100.09 69.6401 97.96C68.5301 96.9 67.4401 95.66 66.6201 94.25C66.2201 93.55 65.7901 92.87 65.4901 92.11L65.0101 91C64.8701 90.62 64.7501 90.24 64.6301 89.86C63.1501 85.28 63.3001 80.43 64.2201 75.9H64.2901V75.86Z" fill="#231F20"/>
<path d="M91.0198 100.7C92.6998 99.4199 94.4698 98.2599 96.5798 97.4299C97.6398 97.0299 98.7898 96.6799 100.26 96.7499C100.63 96.7699 101.02 96.8499 101.42 96.9699L102.2 97.2599C102.71 97.4699 103.2 97.6999 103.68 97.9399C105.08 98.6699 106.43 99.4599 107.62 100.44C109.72 102.19 111.49 104.13 112.98 106.47C113.55 107.32 114.09 108.23 114.22 109.04C114.24 109.14 114.24 109.24 114.25 109.34C114.21 109.43 114.18 109.52 114.12 109.62V109.64H114.1C114.1 109.64 114.29 109.7 114.2 109.68L114.17 109.71L114.11 109.76L114 109.86L113.77 110.06L113.31 110.46C113.23 110.53 113.16 110.59 113.08 110.66L112.75 110.82L111.45 111.44L110.64 111.87C110.1 112.17 109.57 112.47 109.05 112.8C107.19 113.95 105.45 115.34 103.89 116.85C102.87 117.81 101.96 118.88 101.05 119.93C100.58 120.45 100.14 120.99 99.6898 121.52L99.0298 122.33C98.7798 122.58 98.5098 122.82 98.1998 123.05C97.7898 123.31 97.5898 123.42 97.5398 123.38C97.4898 123.33 97.5598 123.12 97.5398 122.67C97.4098 121.7 97.6898 120.13 98.6798 118.68C99.5298 117.39 100.59 116.27 101.64 115.15C102.71 114.05 103.85 113.02 105.06 112.07C106.27 111.12 107.53 110.23 108.87 109.46L109.89 108.91L110.01 108.84H110.05L110.13 108.8L110.29 108.75C110.46 108.7 110.76 108.7 110.66 108.5C110.65 108.41 110.61 108.3 110.56 108.19C110.54 108.15 110.55 108.15 110.5 108.09L110.32 107.83L109.94 107.33C109.42 106.66 108.85 106.02 108.26 105.4C107.08 104.16 105.76 103.04 104.39 102.07C103.63 101.54 102.85 101.06 102.03 100.66C101.62 100.46 101.21 100.27 100.79 100.11L100.47 99.9899C100.4 99.9699 100.35 99.9599 100.29 99.9399C100.16 99.9199 100.02 99.8899 99.8398 99.8999C99.1598 99.8799 98.2898 100.15 97.4598 100.47C96.6298 100.8 95.7998 101.25 94.9898 101.74C93.0198 102.97 91.1598 104.48 89.5398 106.19C88.6798 107.11 87.8698 108.08 87.1598 109.11C86.8198 109.63 86.4798 110.15 86.2098 110.7C86.0598 110.97 85.9498 111.25 85.8198 111.52L85.6698 111.92C85.6298 112.01 85.6098 112.1 85.5798 112.19C85.5698 112.26 85.5098 112.34 85.5298 112.41C85.5298 112.49 85.5898 112.55 85.6198 112.62C85.6498 112.69 85.6998 112.75 85.7398 112.82C85.7698 112.88 85.8198 112.95 85.9098 113.07C86.1898 113.49 86.5098 113.91 86.8398 114.31C88.5798 116.47 90.7498 118.21 93.0098 119.66C93.5298 119.95 94.0198 120.26 94.5398 120.52C95.0198 120.78 95.4098 121 95.7398 121.19C96.0598 121.38 96.3098 121.59 96.4998 121.78C96.8998 122.13 97.0798 122.47 97.1898 122.88C97.2398 123.07 97.3298 123.26 97.3498 123.41C97.3798 123.67 97.1498 123.81 96.6498 123.88C96.1498 123.96 95.3998 123.92 94.5298 123.62C92.0798 122.7 89.8598 121.18 87.8498 119.43C86.8498 118.54 85.9198 117.58 85.0098 116.57C84.5598 116.06 84.1198 115.53 83.6998 114.96C83.5898 114.81 83.4998 114.67 83.3698 114.52L82.8898 113.7C82.7498 113.42 82.7298 113.11 82.6698 112.82L82.6498 112.6V112.57V112.56C82.6098 112.56 82.7498 112.55 82.5498 112.56V112.5V112.39L82.5798 111.94C82.6798 111.55 82.8298 111.02 82.9298 110.78C83.7398 108.55 84.9998 106.75 86.3698 105.09C87.7498 103.44 89.2798 101.97 90.9498 100.64L90.9998 100.7H91.0198Z" fill="#231F20"/>
<path d="M61.5699 77.1999L61.3699 76.0599L61.2699 75.46L61.2099 75.0899L61.1499 74.54C61.1899 74.07 61.2399 73.77 61.2899 73.55C61.3399 73.3 61.3799 73.08 61.4399 72.85L61.7899 71.5199L62.4799 68.89C62.9299 67.14 63.3499 65.39 63.7199 63.64C64.0599 62.09 64.2899 60.52 64.5499 58.98C64.7499 57.78 64.9099 56.57 64.9899 55.39L65.0199 54.52V53.81C65.0099 53.6 64.9799 53.39 64.8999 53.16C64.8399 53.03 64.7699 52.88 64.6299 52.83C64.4899 52.77 64.3499 52.85 64.2399 52.94C64.1299 53.04 64.0399 53.15 63.9499 53.27L63.8199 53.46L63.6199 53.79C62.8899 55.11 62.2399 56.55 61.5899 57.99C60.5699 60.29 59.6099 62.6499 58.5299 64.9499C57.8399 66.4299 57.1099 67.91 56.1899 69.32C55.7299 70.02 55.1399 70.6599 54.5399 71.2699C54.2099 71.5599 53.8999 71.86 53.5299 72.11C53.1699 72.37 52.6999 72.49 52.2899 72.65C51.1499 72.86 51.3799 72.75 51.9099 72.03C52.0299 71.83 52.1499 71.58 52.2699 71.3C52.3299 70.93 52.5299 70.74 52.6499 70.39C52.9399 69.77 53.2299 69.02 53.6299 68.28C55.2399 65.72 56.5399 62.76 57.8399 59.78C58.5199 58.3 59.1899 56.79 59.9299 55.29C60.2999 54.53 60.6799 53.78 61.1099 53.02C61.2199 52.83 61.3199 52.64 61.4399 52.45L61.6899 52.03C61.7899 51.87 61.8899 51.72 61.9999 51.58C62.2199 51.3 62.4099 50.99 62.6399 50.74C62.8799 50.53 63.0899 50.25 63.3399 50.1C63.8599 49.71 64.3999 49.51 65.0499 49.55C65.7099 49.63 66.2299 50.05 66.6299 50.53C66.7899 50.76 66.9299 51 67.0499 51.27L67.2299 51.66L67.3599 52.11C67.4499 52.4 67.5299 52.71 67.5599 53.04C67.5999 53.35 67.6699 53.73 67.6699 53.9C67.7399 54.76 67.7199 55.59 67.6899 56.41C67.6199 58.05 67.4399 59.65 67.1899 61.23C66.4799 65.69 65.3199 70.08 64.2499 74.3099C64.2099 74.4799 64.1699 74.58 64.1899 74.65C64.1799 74.73 64.2299 75.07 64.2599 75.39L64.3699 76.35C64.4399 76.99 64.4999 77.65 64.5599 78.3C64.6999 79.6 64.7599 80.91 64.7899 82.22C64.8299 86.44 64.2099 90.8999 61.8299 94.6299C59.9199 97.5199 57.1299 99.4399 54.4299 101.13C53.8299 101.5 53.2599 101.88 52.6599 102.23C50.4499 103.54 49.8699 103.85 48.9599 103.63C48.7599 103.59 48.5299 103.58 48.3699 103.53C48.0999 103.43 48.0899 103.14 48.3299 102.61C48.5599 102.08 49.1499 101.5 49.9499 100.9C52.3399 99.17 54.8699 97.8299 56.9399 96.0899C57.9699 95.2299 58.8799 94.29 59.5599 93.25C60.2099 92.15 60.7999 90.9799 61.1499 89.68C62.2499 85.84 62.2499 81.47 61.5199 77.23L61.5899 77.21L61.5699 77.1999Z" fill="#231F20"/>
<path d="M16.8398 105.71C16.8398 105.71 26.4298 95.65 29.9198 96.91C33.4098 98.17 36.6698 99.89 39.0198 102.64C41.3698 105.39 42.1998 106.48 42.7298 107.3C43.7798 108.92 33.2698 118.59 30.5798 118.88C27.8998 119.16 25.1698 112.73 22.0598 110.94C18.9498 109.15 16.8398 105.72 16.8398 105.72V105.71Z" fill="#231F20"/>
<path d="M20.0001 98.83C21.7801 97.5 23.6801 96.23 26.0801 95.57C28.6301 94.93 31.1201 95.52 33.1901 96.53C34.7201 97.26 36.1101 98.16 37.3401 99.22C39.4901 101.1 41.3101 103.25 42.8701 105.55C43.6601 106.7 44.3801 107.88 45.0401 109.12C45.3701 109.74 45.6801 110.36 45.9601 111.04L46.1601 111.56C46.2402 111.8 46.3301 112.05 46.3701 112.3C46.4801 112.81 46.3201 113.3 46.0001 113.71L45.6701 114.18L45.3801 114.55C45.1901 114.8 45.0001 115.05 44.7901 115.28C44.3902 115.76 43.9601 116.22 43.5301 116.67C42.6601 117.56 41.7201 118.38 40.7501 119.13C38.2501 121.03 35.5801 122.76 32.5701 123.61C31.5501 123.69 31.6502 123.6 32.1502 122.78C32.6301 121.92 33.6901 120.76 35.1301 119.85C37.7402 118.32 40.2101 116.63 42.1801 114.52C42.6801 114 43.1402 113.44 43.5802 112.88C43.6402 112.81 43.6902 112.74 43.7402 112.66L43.8102 112.56C43.8102 112.56 43.8401 112.54 43.8501 112.53C43.8601 112.51 43.8601 112.49 43.8601 112.47C43.8601 112.43 43.8801 112.47 43.8001 112.26C43.3101 110.99 42.5602 109.61 41.7901 108.32C39.9102 105.21 37.3001 102.31 34.3701 100.19C32.7701 99.02 30.9701 98.15 29.1301 97.93C28.6701 97.86 28.2001 97.87 27.7601 97.89C27.3301 97.92 26.8801 98.02 26.4301 98.15C25.5301 98.42 24.6401 98.87 23.7801 99.38C21.6701 100.67 19.7101 102.36 17.9601 104.2C17.4601 104.74 17.3301 104.88 17.1001 105.15C17.0201 105.28 16.8301 105.42 16.8501 105.56L17.2601 105.84L18.5801 106.76L20.2401 107.96C21.3301 108.78 22.4001 109.63 23.4401 110.51C25.8001 112.52 28.0201 114.68 29.8501 117.24C30.2201 117.82 30.6601 118.35 30.9901 118.96C32.2801 121.21 32.3102 122.11 31.8601 122.86C31.7601 123.03 31.6901 123.23 31.5901 123.35C31.2601 123.73 30.3901 122.99 29.4701 121.52C26.8001 117.09 23.0401 113.26 18.5501 110L17.0101 108.9L16.2201 108.36L14.6201 107.3L14.1701 106.62L13.9401 106.28L13.8301 106.11V106.09H13.8101C14.0001 106.06 13.8601 106.08 13.9001 106.07V106.05L13.8701 106L13.8201 105.91C13.7101 105.43 13.9701 104.83 14.4001 104.27C14.6101 103.99 14.8401 103.71 15.0801 103.43L15.6801 102.75L16.4801 101.91C17.5601 100.81 18.7001 99.77 19.9301 98.81L19.9801 98.86L20.0001 98.83Z" fill="#231F20"/>
<path d="M49.4702 33.52C49.7002 33.45 49.8702 33.7 50.0102 34.07C50.0502 34.19 50.0102 34.53 49.9502 34.58C49.8202 34.68 49.6902 34.78 49.5502 34.86C49.5102 34.89 49.1802 34.96 48.8102 35.08C48.4402 35.21 48.0302 35.31 47.8202 35.35C47.4202 35.45 47.0202 35.49 46.6302 35.51C45.8202 35.55 45.0202 35.63 44.2202 35.72C44.0402 35.74 43.8602 35.72 43.6902 35.69C43.0802 35.56 42.4602 35.61 41.8602 35.73C41.7602 35.75 41.6502 35.75 41.5602 35.86C41.4102 36.05 39.7702 36.24 39.5502 36.19C39.0102 36.06 38.4602 36 37.9102 35.92C37.8302 35.91 37.7602 35.96 37.6702 35.84C37.4702 35.57 37.3202 35.64 37.1502 35.64C36.9202 35.64 36.6802 35.64 36.4402 35.57C36.3202 35.54 36.1802 35.38 36.0502 35.26C35.9302 35.15 35.9202 34.69 35.9502 34.63C36.0302 34.47 35.9202 34.27 35.8802 34.08C35.8702 34.02 35.8502 33.93 35.8502 33.88C35.8402 33.76 37.1002 32.83 37.2602 32.83C37.2902 32.83 39.2502 32.42 39.5102 32.37C39.6302 32.33 39.7502 32.4 39.8802 32.43C39.9402 32.43 41.5402 32.15 41.6102 32.18C41.9502 32.21 42.2802 32.12 42.6202 32.36C42.6902 32.41 42.7602 32.39 42.8202 32.39C43.4002 32.36 43.9702 32.47 44.5502 32.55C44.8402 32.59 45.1402 32.58 45.4302 32.59C45.4802 32.59 45.5402 32.63 45.5902 32.64C45.6602 32.66 45.7202 32.69 45.7902 32.7C46.4802 32.72 47.1702 32.88 47.8602 32.85C47.9402 32.85 48.1702 32.92 48.4002 32.99C48.6302 33.09 48.8602 33.18 48.9502 33.18C49.0502 33.18 49.3702 33.53 49.4602 33.5L49.4702 33.52Z" fill="#231F20"/>
<path d="M56.6398 20.98C56.8698 21.08 56.7798 21.42 56.5398 21.84C56.4598 21.98 56.1198 22.25 56.0298 22.26C55.8498 22.26 55.6598 22.26 55.4998 22.26C55.4198 22.22 54.2398 21.77 53.8998 21.59C53.5398 21.43 53.2298 21.22 52.9298 20.99C52.3198 20.54 51.6798 20.12 51.0198 19.71C50.8798 19.62 50.7498 19.5 50.6498 19.36C50.2898 18.86 49.7798 18.55 49.2598 18.27C49.1698 18.22 49.0998 18.15 48.9598 18.19C48.7298 18.25 47.3698 17.39 47.2398 17.2C46.9198 16.74 46.5498 16.34 46.1898 15.92C46.1398 15.86 46.0498 15.86 46.0598 15.7C46.0898 15.34 45.9198 15.31 45.7998 15.19C45.6298 15.03 45.4698 14.86 45.3298 14.65C45.2598 14.54 45.2598 14.33 45.2398 14.15C45.2198 13.99 45.4998 13.62 45.5598 13.6C45.7198 13.53 45.7598 13.3 45.8498 13.13C45.8798 13.07 45.9198 13 45.9498 12.96C45.9998 12.88 47.6298 12.77 47.7498 12.87C47.7698 12.87 48.2198 13.09 48.7098 13.31C49.1898 13.53 49.6998 13.77 49.8098 13.8C49.9298 13.84 49.9798 13.97 50.0598 14.07C50.0998 14.11 51.5598 14.79 51.6098 14.84C51.8698 15.05 52.1898 15.17 52.2898 15.6C52.3098 15.68 52.3698 15.71 52.4298 15.75C52.8998 16.08 53.2798 16.53 53.6698 16.96C53.8698 17.17 54.1098 17.35 54.3298 17.55C54.3698 17.59 54.3798 17.65 54.4098 17.7C54.4498 17.76 54.4698 17.83 54.5198 17.88C55.0498 18.34 55.4598 18.92 56.0098 19.35C56.0698 19.4 56.1898 19.62 56.3098 19.83C56.4198 20.05 56.4998 20.31 56.5698 20.37C56.6398 20.45 56.5698 20.97 56.6698 21L56.6398 20.98Z" fill="#231F20"/>
<path d="M66.2602 17.15C66.3402 17.37 66.0502 17.52 65.6202 17.63C65.4802 17.67 65.0902 17.63 65.0202 17.56C64.9002 17.44 64.7802 17.31 64.6802 17.19C64.6502 17.15 64.5502 16.85 64.4102 16.5C64.3002 16.16 64.2402 15.79 64.1702 15.6C64.0602 15.23 64.0302 14.87 64.0202 14.51C63.9902 13.77 63.9202 13.04 63.8502 12.31C63.8402 12.15 63.8502 11.98 63.8902 11.82C64.0402 11.26 64.0002 10.7 63.8902 10.14C63.8702 10.05 63.8802 9.94999 63.7602 9.86999C63.5502 9.72999 63.4402 8.22998 63.5002 8.02998C63.6602 7.52998 63.7302 7.02999 63.8302 6.51999C63.8502 6.44999 63.8002 6.37999 63.9202 6.29999C64.2002 6.11999 64.1302 5.96999 64.1402 5.80999C64.1502 5.58999 64.1802 5.37999 64.2502 5.14999C64.2802 5.03999 64.4302 4.90999 64.5402 4.78999C64.6402 4.67999 65.0402 4.66999 65.0902 4.69999C65.2302 4.77999 65.4102 4.66999 65.5702 4.63999C65.6302 4.62999 65.7002 4.60999 65.7402 4.60999C65.8302 4.60999 66.7902 5.74999 66.8202 5.88999C66.8702 5.91999 67.2802 7.74999 67.3502 7.95999C67.3902 8.06999 67.3302 8.18999 67.3002 8.29999C67.3002 8.34999 67.6202 9.82998 67.5902 9.89998C67.5602 10.21 67.6602 10.52 67.4102 10.84C67.3602 10.9 67.3702 10.97 67.3802 11.03C67.4102 11.56 67.3002 12.1 67.2302 12.63C67.1902 12.9 67.2102 13.17 67.1902 13.44C67.1902 13.49 67.1502 13.54 67.1302 13.59C67.1102 13.65 67.0702 13.71 67.0702 13.77C67.0602 14.41 66.8902 15.05 66.9302 15.69C66.9302 15.84 66.6402 16.53 66.6202 16.69C66.6102 16.78 66.2002 17.07 66.2402 17.15H66.2602Z" fill="#231F20"/>
<path d="M75.8602 21.9C75.7702 22.13 75.4902 22.11 75.1102 21.96C74.9902 21.91 74.7402 21.65 74.7402 21.57C74.7502 21.41 74.7602 21.25 74.7902 21.11C74.8202 21.03 75.4502 19.98 75.6402 19.59C75.8302 19.22 76.0602 18.9 76.3002 18.58L77.7702 16.63C77.8802 16.49 78.0102 16.36 78.1602 16.25C78.6802 15.88 79.0802 15.41 79.4502 14.89C79.5102 14.8 79.5902 14.73 79.5902 14.59C79.5602 14.33 80.7702 13.11 80.9902 13C81.2602 12.88 81.5102 12.74 81.7602 12.6L82.1402 12.4C82.2802 12.35 82.4302 12.31 82.5802 12.26C82.6602 12.23 82.7102 12.16 82.8502 12.21C83.1702 12.32 83.2802 12.19 83.4402 12.11C83.6602 12 83.8802 11.9 84.1402 11.84C84.2702 11.81 84.4402 11.84 84.5902 11.85C84.7302 11.85 84.8602 12.12 84.8602 12.17C84.8402 12.31 84.9902 12.37 85.0802 12.46C85.1102 12.49 85.1502 12.53 85.1602 12.56C85.1702 12.61 84.7202 14.07 84.6602 14.2C84.6602 14.2 84.5902 14.32 84.4902 14.48C84.4002 14.65 84.2702 14.87 84.0902 15.04C83.7602 15.42 83.4302 15.82 83.3702 15.91C83.3102 16.01 83.1802 16.03 83.0702 16.08C83.0202 16.1 82.1002 17.32 82.0302 17.33C81.7702 17.51 81.6002 17.79 81.2002 17.84C81.1202 17.84 81.0802 17.9 81.0402 17.95C80.6602 18.34 80.1902 18.64 79.7402 18.98C79.5102 19.15 79.3302 19.36 79.1202 19.55C79.0802 19.58 79.0202 19.6 78.9802 19.62C78.9202 19.65 78.8502 19.68 78.8102 19.72C78.3302 20.19 77.7702 20.57 77.3302 21.08C77.2302 21.19 76.5402 21.56 76.4302 21.7C76.3602 21.78 75.9302 21.81 75.9002 21.9H75.8602Z" fill="#231F20"/>
<path d="M81.9802 35.07C81.7902 35.18 81.6102 35 81.4202 34.66C81.3602 34.56 81.3402 34.27 81.3902 34.2C81.4902 34.05 81.6002 33.98 81.7202 33.89C81.7902 33.84 82.9402 33.52 83.3302 33.4C83.7102 33.28 84.0902 33.23 84.4702 33.2C85.2402 33.11 86.0102 33.11 86.7702 33.09C86.9402 33.09 87.1102 33.1 87.2802 33.15C87.8502 33.29 88.4302 33.3 89.0002 33.25C89.1002 33.25 89.1902 33.25 89.2902 33.18C89.4502 33.06 90.9902 33.02 91.1802 33.07C91.6702 33.21 92.1602 33.28 92.6502 33.38C92.7202 33.39 92.7902 33.36 92.8602 33.45C93.0202 33.67 93.1602 33.62 93.3202 33.62C93.5302 33.63 93.7402 33.65 93.9502 33.7C94.0602 33.73 94.1702 33.85 94.2802 33.95C94.3802 34.04 94.3702 34.39 94.3402 34.43C94.2502 34.55 94.3402 34.71 94.3702 34.85C94.3702 34.9 94.3902 34.96 94.3902 35C94.3902 35.1 93.1502 35.77 93.0002 35.76C92.9702 35.76 91.1402 35.94 90.8902 35.97C90.7802 35.99 90.6702 35.93 90.5602 35.9C90.4902 35.9 89.0402 35.99 88.9802 36C88.6802 35.96 88.3802 36.03 88.0802 35.83C88.0202 35.79 87.9602 35.8 87.9002 35.8C87.3802 35.8 86.8702 35.71 86.3602 35.65C86.1002 35.62 85.8402 35.63 85.5802 35.62C85.5302 35.62 85.4902 35.59 85.4402 35.58C85.3802 35.56 85.3202 35.54 85.2602 35.54C84.6502 35.54 84.0302 35.39 83.4202 35.45C83.2802 35.45 82.6002 35.26 82.4402 35.29C82.3502 35.3 82.0402 35.06 81.9602 35.11L81.9802 35.07Z" fill="#231F20"/>
</svg>
