<svg width="128" height="128" viewBox="0 0 128 128" fill="none" xmlns="http://www.w3.org/2000/svg">
<path d="M9.83018 90.43C9.32018 90.56 3.80018 93.41 5.59018 95.02C8.97018 98.04 16.8202 100.89 16.8202 100.89C16.8202 100.89 11.3402 96.11 11.0502 94.43C10.7602 92.74 9.83018 90.43 9.83018 90.43Z" fill="#231F20"/>
<path d="M116.21 96.16C117.56 95.71 123.62 97.28 122.66 98.3C120.14 100.98 110.89 105.89 110.89 105.89L115.9 100.94L116.2 96.17L116.21 96.16Z" fill="#231F20"/>
<path d="M11.0301 89.96L10.7801 85.66C10.7501 85.14 10.6801 84.62 10.6601 84.1C10.5701 82.26 10.5401 80.42 10.5501 78.58C10.5501 77.76 10.5201 76.94 10.5001 76.13C10.4901 75.09 10.5501 74.04 10.6701 73.01C10.7101 72.69 10.7701 72.73 10.8701 73.01C10.9701 73.28 11.1501 73.79 11.2401 74.38C11.3101 74.91 11.4101 75.43 11.4701 75.96L11.5701 77.54C11.6301 78.59 11.6801 79.65 11.7001 80.71C11.7001 81.98 11.8601 83.3 11.9501 84.6L12.2701 88.89C12.3401 89.77 12.4201 90.64 12.5701 91.49C12.7901 92.78 13.1101 94.06 13.7101 95.18C14.1701 96.06 14.8601 96.75 15.5501 97.37C15.7001 97.51 15.8701 97.62 16.0301 97.74C16.6301 98.19 16.8001 98.37 16.7901 98.79C16.7901 98.89 16.7901 98.99 16.7901 99.08C16.7501 99.37 16.3101 99.46 15.6701 99.18C14.7401 98.76 13.8501 98.1 13.2401 97.23C12.6101 96.38 12.1301 95.41 11.8101 94.41C11.3301 92.93 11.1601 91.42 11.0001 89.96H11.0301Z" fill="#231F20"/>
<path d="M67.9999 41.94C43.5399 33.73 71.0299 22.94 76.8199 24.39L69.7299 22.12L42.9199 32.75L56.2499 38.01L68.0099 41.95L67.9999 41.94Z" fill="#231F20"/>
<path d="M46.7601 63.16C48.5001 70.35 37.3301 70.35 30.8901 69.25L51.1201 76.93L64.0301 70.35L46.7501 63.16H46.7601Z" fill="#231F20"/>
<path d="M87.43 85.07C70.55 79.38 93.84 65.79 99.07 66.72L92.81 63.72L75 74.01L69.63 72.2L62.75 75.94L87.44 85.06L87.43 85.07Z" fill="#231F20"/>
<path d="M60.2801 75.95C60.2301 75.97 58.1501 77.61 58.1401 78.23L58.1901 107.42L61.3201 105.44L60.2901 75.95H60.2801Z" fill="#231F20"/>
<path d="M51.2998 102.31C51.2998 102.31 53.2498 110.45 59.9798 105.12C63.5698 102.28 53.5898 110.35 51.8998 110.12C50.2098 109.89 51.3098 102.3 51.3098 102.3L51.2998 102.31Z" fill="#231F20"/>
<path d="M95.3402 115.03C95.0302 115.12 94.7702 115.08 94.5902 114.91C94.2702 114.95 94.2202 114.65 94.0702 114.43C93.9702 114.12 93.9602 113.72 93.9002 113.38C93.8702 113.22 93.8602 112.99 93.8602 112.88L93.8402 112.58L93.7802 111.39C93.7702 110.96 93.7002 110.54 93.7002 110.11C93.6702 108.61 93.7002 107.1 93.7202 105.6C93.7202 104.93 93.7402 104.26 93.7702 103.6C93.7802 103.17 93.8002 102.75 93.8502 102.32C93.9302 101.89 94.0502 101.47 94.2302 101.06C94.3402 100.81 94.3502 100.86 94.3802 101.09C94.3902 101.32 94.5502 101.75 94.6402 102.22C94.7002 103.06 94.7702 103.9 94.8302 104.75C94.8802 105.6 94.8702 106.46 94.8702 107.32C94.8502 108.35 95.0202 109.42 95.1002 110.47L95.2302 112.02L95.3002 112.76L95.3202 113.11C95.3202 113.17 95.3202 113.22 95.3402 113.28C95.3402 113.4 95.4702 113.32 95.5302 113.32C95.6102 113.3 95.6802 113.27 95.7602 113.24L96.0502 113.12L96.5302 112.89C97.4902 112.41 98.4702 111.91 99.3902 111.35C100.1 110.91 100.78 110.43 101.47 109.98C101.62 109.88 101.77 109.77 101.92 109.68C102.5 109.33 102.73 109.3 103.03 109.49C103.1 109.53 103.17 109.57 103.23 109.62C103.42 109.79 103.29 110.11 102.91 110.46C101.79 111.49 100.51 112.42 99.1202 113.19C98.6102 113.49 98.0902 113.77 97.5702 114.05L96.7702 114.46L96.1002 114.79C95.8502 114.9 95.5802 115.03 95.3402 115.08V115.04V115.03Z" fill="#231F20"/>
<path d="M91.0299 113.96C91.0299 113.96 91.0799 113.96 91.0999 113.95C91.1199 113.94 91.1399 113.95 91.1999 113.76C91.2599 113.63 91.2999 113.46 91.3399 113.29C91.4299 112.95 91.4899 112.57 91.5399 112.19C91.5899 111.84 91.5699 111.47 91.5999 111.11C91.7099 109.83 91.8499 108.51 91.9299 107.19C91.9699 106.6 91.9599 106.01 91.9499 105.43C91.9699 105.05 91.9899 104.67 92.0299 104.3C92.0399 103.92 92.2799 103.54 92.4299 103.18C92.5499 102.96 92.5699 103 92.6899 103.21C92.7499 103.32 92.8399 103.47 92.9599 103.64C93.0399 103.75 93.0999 103.84 93.1599 103.92C93.1999 103.97 93.2199 104.02 93.2599 104.07C93.2699 104.12 93.2799 104.17 93.2899 104.22L93.4699 105.33C93.5099 105.7 93.4999 106.08 93.5199 106.45C93.5299 107.21 93.5199 107.97 93.4399 108.74C93.3599 109.66 93.4399 110.63 93.3699 111.59C93.3299 112.12 93.2799 112.65 93.1899 113.2C93.0599 113.78 93.0399 114.24 92.6099 114.99L92.5799 115.04C92.2799 115.4 91.8599 115.67 91.3899 115.73C90.9999 115.8 90.6499 115.79 90.3099 115.79C89.2699 115.73 88.3099 115.5 87.3499 115.31C86.6099 115.16 85.8499 115.11 85.1199 114.92C84.9599 114.88 84.7899 114.86 84.6299 114.81C84.0399 114.62 83.8899 114.42 83.9299 113.95C83.9299 113.84 83.9299 113.73 83.9599 113.63C84.0299 113.29 84.3599 113.1 84.7999 113.12C85.4499 113.17 86.1199 113.19 86.7599 113.32C87.3999 113.44 88.0399 113.57 88.6799 113.69C89.1499 113.77 89.6199 113.85 90.0599 113.89C90.2899 113.92 90.4799 113.92 90.6799 113.92L90.9299 113.9C91.0199 113.88 90.9799 113.9 90.9899 113.9L91.0099 113.94L91.0299 113.96Z" fill="#231F20"/>
<path d="M77.4102 71.94C77.1502 71.98 76.9102 71.98 76.5702 72C76.1702 71.93 75.7502 71.9 75.4002 71.71C75.2602 71.55 75.1602 71.37 75.0502 71.2C74.9602 71.01 74.9502 70.76 74.8902 70.54L74.8202 69.71C74.7902 69.35 74.7402 68.99 74.7202 68.63C74.7002 67.99 74.7002 67.36 74.7002 66.73C74.7402 66.1 74.7802 65.46 74.8302 64.83C74.8702 64.27 74.9202 63.71 74.9602 63.16C75.0402 62.45 75.1402 61.74 75.3502 61.06C75.4602 60.63 75.4302 61.21 75.4902 62.02C75.4902 63.45 75.6902 64.86 75.7502 66.29C75.7602 67.15 75.8902 68.03 76.0002 68.9L76.1402 69.96L76.1802 70.22V70.33C76.2102 70.4 76.1902 70.5 76.2602 70.54C76.3602 70.59 76.4502 70.6 76.5902 70.6C77.0902 70.58 77.6802 70.43 78.2302 70.27C79.0802 70.02 79.9402 69.73 80.7502 69.35C81.3802 69.06 81.9402 68.65 82.5302 68.29C82.6602 68.21 82.7802 68.12 82.9102 68.05C83.4102 67.79 83.6002 67.82 83.9202 68.17C83.9902 68.25 84.0802 68.32 84.1502 68.4C84.3902 68.67 84.2902 69.06 83.9602 69.36C82.9802 70.27 81.7302 70.76 80.4602 71.22C79.5002 71.55 78.5202 71.82 77.4402 71.98V71.94H77.4102Z" fill="#231F20"/>
<path d="M85.72 51.79C86.12 51.19 86.53 50.6 86.94 50C87.08 49.78 87.22 49.56 87.36 49.34C87.88 48.58 88.42 47.81 88.94 47.05C89.17 46.71 89.37 46.35 89.59 46C89.87 45.56 90.16 45.12 90.5 44.71C90.61 44.58 90.66 44.64 90.67 44.81C90.67 44.98 90.67 45.27 90.56 45.55C90.2 46.58 89.6 47.47 89 48.36C88.63 48.89 88.33 49.49 87.99 50.06C87.61 50.68 87.24 51.3 86.85 51.91C86.61 52.29 86.37 52.67 86.13 53.04C85.77 53.61 85.4 54.18 85.08 54.77C84.83 55.23 84.64 55.71 84.39 56.16C84.34 56.26 84.29 56.36 84.23 56.46C84.01 56.82 83.88 56.9 83.63 56.86C83.57 56.85 83.51 56.85 83.46 56.83C83.28 56.77 83.24 56.54 83.33 56.24C83.48 55.79 83.63 55.33 83.84 54.9C84.06 54.47 84.31 54.05 84.56 53.63C84.94 53.02 85.33 52.4 85.72 51.78H85.74L85.72 51.79Z" fill="#231F20"/>
<path d="M89.6701 54.26C89.8801 53.93 90.1001 53.61 90.3101 53.28C90.3901 53.16 90.4302 53.03 90.5102 52.91C90.7902 52.49 91.0801 52.08 91.3401 51.66C91.4601 51.47 91.5402 51.27 91.6502 51.08C91.7802 50.83 91.8801 50.57 92.1001 50.36C92.2301 50.23 92.7401 50.73 92.6701 51.06C92.5401 51.63 92.2601 52.14 91.8801 52.59C91.6601 52.87 91.5402 53.21 91.3702 53.52C91.1802 53.86 90.9801 54.2 90.7901 54.54C90.6702 54.75 90.5501 54.96 90.4301 55.17C90.2601 55.49 90.0701 55.8 89.9201 56.13C89.8101 56.39 89.7501 56.67 89.6701 56.93C89.6501 56.99 89.6402 57.05 89.6202 57.11C89.5302 57.32 89.4301 57.35 89.1401 57.26L88.9402 57.2C88.7202 57.12 88.5901 56.95 88.6001 56.77C88.6301 56.23 88.8201 55.75 89.0401 55.27C89.2101 54.92 89.4302 54.59 89.6202 54.25H89.6502L89.6701 54.26Z" fill="#231F20"/>
<path d="M103.94 94.55C104.35 93.89 104.76 93.24 105.17 92.58C105.32 92.34 105.43 92.08 105.59 91.84C106.13 91 106.7 90.18 107.26 89.35C107.51 88.98 107.75 88.61 107.99 88.24C108.3 87.77 108.58 87.27 109.02 86.9C109.16 86.78 109.26 86.88 109.33 87.11C109.39 87.33 109.44 87.69 109.29 87.97C109.03 88.47 108.78 88.97 108.51 89.47C108.23 89.96 107.9 90.42 107.57 90.88C107.16 91.43 106.89 92.09 106.55 92.71C106.18 93.38 105.81 94.06 105.44 94.74C105.21 95.16 104.98 95.58 104.76 96C104.43 96.64 104.05 97.27 103.73 97.91C103.48 98.41 103.32 98.94 103.06 99.44C103.01 99.55 102.97 99.66 102.89 99.76C102.62 100.13 102.45 100.2 102.16 100.15C102.09 100.14 102.02 100.13 101.97 100.11C101.77 100.05 101.7 99.79 101.74 99.44C101.84 98.38 102.29 97.47 102.74 96.54C103.08 95.85 103.51 95.2 103.89 94.53L103.92 94.55H103.94Z" fill="#231F20"/>
<path d="M106.82 98.74C107.06 98.33 107.31 97.91 107.55 97.5C107.64 97.35 107.69 97.18 107.78 97.03C108.11 96.5 108.46 95.96 108.79 95.44C108.93 95.2 109.07 94.96 109.2 94.72C109.37 94.41 109.51 94.08 109.81 93.84C109.98 93.69 110.61 94.41 110.5 94.78C110.38 95.1 110.25 95.42 110.11 95.73C109.93 96.02 109.74 96.31 109.52 96.6C109.25 96.94 109.14 97.37 108.95 97.76C108.74 98.19 108.52 98.62 108.3 99.05C108.16 99.31 108.01 99.58 107.87 99.84C107.66 100.24 107.42 100.63 107.24 101.04C107.09 101.36 107.02 101.71 106.9 102.05C106.87 102.12 106.86 102.2 106.82 102.27C106.69 102.53 106.56 102.56 106.21 102.42C106.13 102.39 106.05 102.36 105.97 102.32C105.71 102.19 105.56 101.97 105.59 101.75C105.67 101.12 105.92 100.56 106.18 99.99C106.39 99.57 106.6 99.15 106.8 98.73H106.83L106.82 98.74Z" fill="#231F20"/>
<path d="M20.8101 53L25.6501 50.44C26.2401 50.12 26.7801 49.73 27.3701 49.42C28.4201 48.88 29.4701 48.35 30.5501 47.83L32.1901 47.06C32.4801 46.93 32.7401 46.82 33.0801 46.68C33.5001 46.51 33.9301 46.38 34.3701 46.39C34.7301 46.46 35.2101 46.58 35.4101 46.65L36.1901 46.87C36.7101 47.01 37.2201 47.16 37.7201 47.33C38.3701 47.54 39.0201 47.73 39.6501 47.97C39.9701 48.08 40.2801 48.24 40.5601 48.45C40.7001 48.55 40.8501 48.65 40.9901 48.76C41.1301 48.88 41.2301 49.08 41.3501 49.23C41.6601 49.67 41.4501 49.81 40.9301 50.13C40.3701 50.52 39.4801 51.09 38.7601 50.93C37.5201 50.54 36.2301 50.25 35.0401 49.78L34.5901 49.62C34.5301 49.6 34.4101 49.56 34.4001 49.55V49.53C34.4001 49.53 34.3301 49.47 34.2801 49.45C34.2901 49.43 34.1101 49.49 33.9701 49.53L33.5301 49.69L32.6001 50.03C31.0801 50.59 29.6901 51.57 28.2301 52.37L23.3801 54.99L20.3901 56.61C18.8901 57.44 17.3501 58.23 15.8801 59.1C14.7401 59.78 13.6901 60.59 12.5801 61.31C12.3301 61.47 12.1001 61.65 11.8501 61.79C11.3701 62.05 11.0301 62.19 10.7301 62.16C10.4201 62.11 10.1801 61.94 9.92011 61.64C9.80011 61.51 9.67011 61.38 9.57011 61.24C9.41011 61.01 9.38011 60.74 9.45011 60.44C9.53011 60.14 9.69011 59.81 10.0001 59.58C11.8001 58.1 13.8701 56.85 15.9901 55.63C17.5801 54.74 19.1801 53.84 20.7701 52.94L20.8101 53Z" fill="#231F20"/>
<path d="M48.9801 99.49L49.2601 90.21C49.3001 89.08 49.2501 87.95 49.3001 86.83C49.3901 84.84 49.5001 82.85 49.6301 80.86C49.7001 79.86 49.7701 78.87 49.8701 77.84C49.9101 77.45 49.9501 77.06 50.0601 76.71C50.1501 76.34 50.4801 76.11 50.7701 75.9C50.9201 75.79 51.1001 75.71 51.2701 75.62C51.4401 75.52 51.6301 75.44 51.7201 75.4L52.4101 75.09C54.0401 74.37 55.6301 73.62 57.1901 72.84C58.1901 72.34 59.2201 71.89 60.2401 71.43C60.7601 71.21 61.2501 70.96 61.7901 70.79C62.3301 70.62 62.8801 70.46 63.4301 70.31C64.1301 70.14 64.0801 70.23 63.7001 70.78C63.5101 71.05 63.2601 71.47 62.9201 71.92C62.7501 72.14 62.5701 72.41 62.3501 72.63C62.1201 72.84 61.8801 73.04 61.6001 73.23C60.6301 73.87 59.6601 74.53 58.6601 75.1C57.6301 75.62 56.6001 76.13 55.5601 76.62L54.0101 77.35L53.2501 77.71L52.8801 77.89C52.7901 77.93 52.8201 77.9 52.7901 77.91C52.6901 77.91 52.6301 77.96 52.5901 78.08L52.3801 79.75C52.0601 82.48 52.1601 85.36 52.0801 88.18L51.8401 97.49C51.8001 99.4 51.7601 101.31 51.7601 103.22V107.55C51.7801 107.95 51.7801 108.37 51.8201 108.79L51.8401 108.94C51.8401 108.94 51.8401 108.99 51.8601 109.01C51.8801 109.03 51.9101 109 51.9301 109L52.2101 108.87L52.7701 108.61C53.6601 108.19 54.5501 107.78 55.4301 107.36L58.4501 105.97C58.8801 105.77 59.3101 105.56 59.7401 105.36C61.3501 104.63 61.9101 104.49 62.5601 104.91C62.7001 105 62.8701 105.07 62.9801 105.17C63.3301 105.47 62.9101 106.27 61.7201 106.97C59.9501 108.05 58.0701 108.87 56.2401 109.72L54.8501 110.36L54.0701 110.72L52.6201 111.47L51.8901 111.84C51.7501 111.93 51.6901 111.89 51.6001 111.89L51.3501 111.86L50.3601 111.76L50.1101 111.73C50.0201 111.73 49.9601 111.64 49.9001 111.6C49.7801 111.51 49.6701 111.4 49.5701 111.26C49.3701 110.99 49.2101 110.59 49.1501 110.11C49.0501 109.4 48.9901 108.64 48.9401 107.86L48.9101 107.44V107.14L48.8901 106.55L48.8701 104.2V99.51H48.9501L48.9801 99.49Z" fill="#231F20"/>
<path d="M110.87 103.1C111.98 102.24 113.13 101.34 114.1 100.44C114.23 100.3 114.22 100.33 114.25 100.3C114.27 100.28 114.31 100.26 114.31 100.22C114.32 100.17 114.33 100.17 114.34 100.08L114.39 99.57C114.46 98.9 114.49 98.16 114.53 97.46C114.58 96.41 114.53 95.36 114.59 94.31C114.81 90.59 115.01 86.86 115.13 83.13C115.17 81.47 115.2 79.81 115.18 78.16C115.17 76.05 115.18 73.92 115.82 71.81C116.05 71.15 116 71.24 116.26 71.8C116.54 72.36 117.27 73.38 117.53 74.59C118.28 78.9 118.09 83.22 117.74 87.58C117.51 90.19 117.66 92.9 117.55 95.58C117.48 97.06 117.4 98.51 117.25 100.04C117.23 100.22 117.22 100.4 117.15 100.72L117.06 101.14L117.02 101.35V101.4C116.95 101.4 116.98 101.43 116.96 101.44L116.91 101.53C116.76 101.77 116.64 102.03 116.41 102.23C116.2 102.45 116.09 102.55 115.94 102.69C115.37 103.21 114.8 103.69 114.22 104.17C112.8 105.33 111.33 106.41 109.86 107.49C107.63 109.11 105.3 110.61 102.99 112.08C101.18 113.21 99.4501 114.41 97.5501 115.43C97.1401 115.66 96.7201 115.88 96.2801 116.08C95.4801 116.46 94.8901 116.61 94.4501 116.61C94.0101 116.61 93.7101 116.44 93.4201 116.12C93.2901 115.98 93.1301 115.85 93.0401 115.7C92.7401 115.23 93.2101 114.43 94.2801 113.92C97.3901 112.17 100.64 110.24 103.84 108.11C106.22 106.54 108.57 104.86 110.8 103.07L110.85 103.12L110.87 103.1Z" fill="#231F20"/>
<path d="M66.3502 105.54C70.6302 107.25 74.9302 108.92 79.2602 110.51C80.8402 111.07 82.4402 111.61 84.0102 112.19C85.4002 112.7 86.7802 113.21 88.1702 113.68C88.8602 113.91 89.5602 114.14 90.2502 114.35C90.5902 114.45 90.9402 114.55 91.2802 114.64C91.4002 114.67 91.5302 114.71 91.6702 114.74C91.7402 114.75 91.8102 114.76 91.8802 114.77C91.9502 114.77 92.0502 114.76 92.0302 114.68C92.0302 114.55 92.0602 114.41 92.0302 114.27L92.0102 114.05V113.49L92.0602 112.37L92.1702 107.91C92.2502 105.27 92.1702 102.62 92.2302 100C92.2502 98.32 92.2602 96.63 92.2802 94.95C92.3402 93.26 92.3102 91.58 92.7702 89.9C93.0402 88.85 93.0002 88.99 93.3202 89.88C93.6902 90.77 94.4602 92.4 94.4902 94.34L94.7002 99.5C94.7302 100.36 94.7702 101.22 94.7802 102.08L94.7402 104.66C94.7002 106.38 94.6502 108.1 94.6102 109.83L94.5102 112.42L94.4502 113.72L94.4202 114.62C94.3902 115 94.4302 115.43 94.3502 115.75L94.1902 116.3C94.1602 116.39 94.1402 116.49 94.1102 116.57L93.9902 116.76C93.7802 117.05 93.3802 117.18 93.0202 117.23C92.6402 117.29 92.2102 117.25 91.7802 117.2L91.1302 117.09L90.5802 116.97C89.5002 116.72 88.4702 116.43 87.4302 116.14C85.3602 115.55 83.3002 114.92 81.2802 114.24C76.8602 112.71 72.5102 110.99 68.1602 109.28L64.1602 107.67L62.1602 106.84L61.1402 106.41C60.6702 106.19 60.1002 106.03 59.8602 105.63L59.7902 105.55V105.53L59.7102 105.59V105.56V105.5L59.6502 105.27C59.6202 105.11 59.5802 104.97 59.5502 104.8C59.5202 100.58 59.4802 96.35 59.4502 92.17C59.4202 88.81 59.2902 85.51 59.3102 82.18C59.3102 81.45 59.3102 80.72 59.3302 79.98C59.4602 77.23 59.6802 76.36 60.4902 75.84C60.6502 75.72 60.8002 75.56 60.9302 75.49C61.3102 75.27 61.9102 76.43 61.8602 78.4C61.9402 84.31 62.0102 90.5 62.0902 96.73L62.1602 100.57L62.2502 103.84C62.2502 103.84 62.2502 103.87 62.2502 103.88L63.4602 104.37L66.3702 105.5L66.3502 105.57V105.54Z" fill="#231F20"/>
<path d="M86.9201 84.13L90.3501 85.28L91.7401 85.72C91.7401 85.72 91.8301 85.73 91.8701 85.72L92.0701 85.61L92.4501 85.39C94.5101 84.18 96.5901 82.87 98.6501 81.58C100.16 80.64 101.63 79.63 103.15 78.7C104.94 77.61 106.74 76.53 108.54 75.47L111.27 73.89L112.58 73.15C112.75 73.05 112.96 72.96 113.13 72.86L113.76 72.55C113.76 72.55 113.82 72.53 113.83 72.5C113.82 72.48 113.79 72.46 113.77 72.45L113.63 72.38L113.34 72.25L112.71 72L111.58 71.58C108.97 70.64 106.31 69.79 103.68 68.94C102 68.38 100.3 67.84 98.6201 67.26C96.9301 66.7 95.2801 66.02 93.7001 65.17C92.7901 64.44 92.8901 64.6 93.9101 64.53C94.4201 64.48 95.1101 64.52 95.9501 64.55C96.3601 64.58 96.8201 64.59 97.2801 64.67C97.7401 64.76 98.2101 64.87 98.7001 65.02C101.97 66 105.24 66.97 108.49 68.07C110.17 68.65 111.86 69.22 113.55 69.8C114.32 70.06 115.13 70.32 115.86 70.62C116.65 70.9 117.05 71.31 117.26 71.65C117.37 71.82 117.43 71.98 117.47 72.14C117.57 72.33 117.33 72.54 117.23 72.71C116.96 73.08 116.69 73.44 116.41 73.79C115.74 74.13 115.13 74.49 114.5 74.83C113.92 75.15 113.34 75.47 112.75 75.8L111.32 76.62C110.37 77.19 109.42 77.76 108.48 78.36C106.6 79.56 104.7 80.77 102.82 81.97L96.6001 85.91C95.5601 86.57 94.5201 87.22 93.4401 87.87L92.9101 88.17C92.7001 88.28 92.4701 88.36 92.2501 88.44C92.0301 88.53 91.7901 88.43 91.5601 88.42C91.3401 88.4 91.0701 88.33 90.9101 88.28C90.2801 88.11 89.7101 87.92 89.1101 87.75C86.2101 86.84 83.3401 85.87 80.4701 84.9C76.1401 83.39 71.8001 81.84 67.5401 80.23C66.7201 79.9 65.8801 79.61 65.0601 79.3L63.8201 78.84C63.6501 78.78 63.3401 78.65 63.0401 78.53L62.1501 78.16C61.5601 77.91 60.8501 77.67 60.6001 77.35L60.0701 76.89C59.9201 76.72 59.6301 76.62 59.7201 76.31C59.8201 75.85 60.0801 75.49 60.4601 75.09C60.6701 74.9 60.8701 74.7 61.1501 74.52C61.4001 74.33 61.6701 74.15 61.9801 73.99C62.2401 73.84 62.4901 73.68 62.7701 73.54L63.4801 73.18C63.8301 73 64.1901 72.83 64.5601 72.67C67.2801 71.5 68.2601 71.51 69.0901 72.05C69.2701 72.15 69.4901 72.22 69.6001 72.31C69.7901 72.46 69.6301 72.7 69.2401 73.15C68.8501 73.63 68.1401 74.04 67.2001 74.47C66.5101 74.79 65.8101 75.11 65.1401 75.45L64.6301 75.71C64.5601 75.75 64.4301 75.81 64.4101 75.83L64.3701 75.87C64.3201 75.92 64.2801 75.96 64.2501 76C64.2101 76.08 64.1301 76.14 64.2301 76.19L64.5301 76.25C64.3201 76.14 65.4301 76.58 66.1001 76.85C66.8401 77.16 67.6201 77.42 68.3801 77.68C69.9301 78.18 71.4601 78.76 73.0101 79.3C77.6101 80.92 82.2601 82.52 86.8901 84.09L86.8701 84.16L86.9201 84.13Z" fill="#231F20"/>
<path d="M59.7398 55.77C59.3698 55.63 58.9998 55.49 58.6398 55.36C58.4998 55.31 58.3598 55.32 58.2198 55.27C57.7398 55.09 57.2598 54.81 56.7898 54.57C56.5798 54.46 56.3598 54.39 56.1298 54.31C55.8398 54.21 55.5098 54.13 55.3298 53.81C55.2698 53.71 55.4898 53.44 55.7398 53.18C55.9998 52.92 56.2598 52.66 56.3698 52.68C56.7898 52.77 57.2398 52.87 57.7198 53.16C57.9998 53.33 58.3498 53.31 58.6798 53.38C59.0398 53.47 59.4098 53.57 59.7798 53.66C60.0098 53.72 60.2398 53.78 60.4698 53.83C60.8198 53.91 61.1798 54.01 61.5398 54.07C61.8198 54.11 62.1298 54.04 62.4498 54.05C62.5198 54.05 62.5898 54.03 62.6598 54.05C62.9198 54.11 62.9498 54.28 62.8098 54.79L62.7098 55.14C62.5798 55.52 62.3798 55.81 62.2098 55.9C61.7198 56.15 61.2798 56.18 60.8098 56.13C60.4598 56.06 60.1098 55.93 59.7398 55.83V55.78V55.77Z" fill="#231F20"/>
<path d="M73.3201 64.2C73.3601 62.91 73.4001 61.61 73.4101 60.31C73.4101 59.84 73.3501 59.36 73.3601 58.89C73.4201 57.21 73.4501 55.53 73.5601 53.85C73.6001 53.1 73.5801 52.36 73.5601 51.62C73.4901 50.67 73.5901 49.72 73.8201 48.77C73.9001 48.48 74.1501 48.52 74.4601 48.77C74.7601 49.02 75.1701 49.48 75.3001 50.01C75.5701 50.96 75.5401 51.91 75.6201 52.87C75.6501 53.82 75.6901 54.78 75.5701 55.75C75.4501 56.91 75.6301 58.11 75.6701 59.29L75.7501 63.21L75.7801 65.63C75.8101 66.85 75.7801 68.08 75.8301 69.3C75.8701 70.25 76.0601 71.18 76.1501 72.12C76.1701 72.33 76.2201 72.53 76.2201 72.74C76.2001 73.52 75.9101 73.76 75.3201 73.89C75.1801 73.92 75.0401 73.96 74.9101 73.98C74.4601 74.03 74.0701 73.7 73.8401 73.14C73.3701 71.5 73.3401 69.81 73.2701 68.07C73.2201 66.78 73.2701 65.48 73.2501 64.18H73.3101L73.3201 64.2Z" fill="#231F20"/>
<path d="M54.55 39.28L49.13 37.29L46.42 36.3L41.97 34.74L41.04 33.75L40.8 33.51L40.68 33.39L40.62 33.33L40.59 33.3C40.57 33.3 40.74 33.3 40.67 33.3V33.28C40.59 33.17 40.64 33.1 40.67 33.02C40.7 32.94 40.73 32.86 40.77 32.77C40.93 32.43 41.27 32.01 42 31.62C42.74 31.24 43.59 30.88 44.41 30.53L47.93 29.05C48.92 28.63 49.92 28.22 50.93 27.83C54.47 26.46 58.03 25.15 61.61 23.87C63.4 23.24 65.19 22.6 67 22.01L68.36 21.56L69.12 21.31L69.64 21.14C69.73 21.09 69.81 21.14 69.9 21.16L70.16 21.24L73.01 22.23C76.19 23.34 79.4 24.39 82.56 25.45C86.65 26.79 90.63 28.29 94.64 29.82C95.89 30.3 95.66 30.44 94.49 30.42C93.9 30.42 93.08 30.38 92.08 30.3C91.58 30.26 91.05 30.21 90.48 30.13C90.19 30.09 89.9 30.05 89.61 30.01C89.32 29.94 89.02 29.87 88.72 29.79C84.42 28.72 80.32 27.28 76.17 25.91C74.1 25.21 72.02 24.51 69.94 23.81C69.85 23.78 69.84 23.77 69.84 23.77L69.82 23.75C69.82 23.75 69.79 23.73 69.77 23.73H69.72L69.36 23.85L67.8 24.36L64.67 25.39C59.67 27.02 54.61 29.13 49.61 31.13L46.03 32.58C45.74 32.7 45.43 32.82 45.13 32.97C45.11 32.98 45.01 33.02 45.07 33.04L45.17 33.08L45.38 33.16L45.82 33.32L48.17 34.18L51.8 35.49C55.23 36.73 58.67 37.98 62.1 39.22C64.7 40.16 67.31 41.1 69.91 42.03L71.86 42.72L72.83 43.05C73.15 43.15 73.51 43.27 73.64 43.3C73.9 43.33 74.68 43 75.3 42.8L77.23 42.1C81.21 40.61 85.02 38.89 88.8 37.1C89.63 36.69 90.44 36.3 91.27 35.89C94.35 34.37 95.4 34.04 96.32 34.17C96.53 34.2 96.79 34.21 96.94 34.27C97.43 34.46 96.39 35.52 94.19 36.87C90.88 38.78 87.36 40.49 83.73 42.08C81.92 42.87 80.07 43.64 78.2 44.37C77.26 44.73 76.33 45.09 75.36 45.43L74.99 45.56L74.47 45.73L73.75 45.86C73.51 45.84 73.27 45.79 73.03 45.74C72.9 45.73 72.8 45.69 72.69 45.66L72.5 45.6L72.12 45.48L71.39 45.25C65.7 43.41 60.14 41.33 54.54 39.34L54.56 39.28H54.55Z" fill="#231F20"/>
<path d="M79.1002 72.42C77.8402 73.13 76.6302 73.83 75.2702 74.53L74.8802 74.72C74.7302 74.81 74.5702 74.83 74.4102 74.88L73.9402 75C73.7802 75.04 73.6202 75 73.4602 74.97L72.9802 74.87C72.8402 74.83 72.6302 74.76 72.5502 74.74L72.0202 74.56L69.9802 73.82L61.9402 70.75C59.9902 70 58.0102 69.31 56.0702 68.54C52.6402 67.18 49.2302 65.81 45.8202 64.4L43.2602 63.34L41.9802 62.79L41.3402 62.51L40.6302 62.19C39.9602 61.91 39.3402 61.52 39.2702 60.78C39.1902 60.46 39.2002 60.03 39.1702 59.77L39.1502 59.06C39.1302 58.12 39.1402 57.2 39.1502 56.27C39.1902 52.99 39.2102 49.7 39.2902 46.45C39.4202 42.28 39.4002 38.08 40.3002 33.94C40.6002 32.65 40.8702 32.87 41.2202 34C41.5702 35.13 42.1602 37.18 42.1602 39.56C42.0402 43.78 42.0102 48.02 41.8202 52.25C41.7502 54.36 41.6902 56.49 41.6702 58.58V59.35L41.6802 59.71V59.78C41.6402 59.88 41.7002 59.94 41.7902 59.98L43.1502 60.61L44.6102 61.26C49.2802 63.33 54.3202 65.1 59.2002 66.98L67.2702 70.06L71.3102 71.56L73.3202 72.27C73.5302 72.33 73.6402 72.43 73.8002 72.34L74.0602 72.22L74.5202 71.98C77.5902 70.3 80.6702 68.47 83.7502 66.72C86.0902 65.38 88.4502 64.07 90.8302 62.8C92.0202 62.17 93.2302 61.54 94.4302 60.94L94.9402 60.69C94.9902 60.53 94.9702 60.32 94.9902 60.14L95.0802 58.19C95.2602 54.05 95.2802 49.98 95.3602 45.88C95.3802 44.98 95.3902 44.09 95.4002 43.18C95.5302 39.81 95.7402 38.74 96.5402 38.06C96.7102 37.9 96.8702 37.69 97.0202 37.6C97.4902 37.3 98.0402 38.7 98.0302 41.17C98.0802 44.84 98.0302 48.6 97.9102 52.42C97.8402 54.33 97.7602 56.25 97.6902 58.18C97.6302 59.44 97.5702 60.71 97.5102 61.97L97.4902 62.33C97.4002 62.4 97.2802 62.44 97.1802 62.5L96.5302 62.82L95.4102 63.38L94.1402 64.03C89.1002 66.66 84.1102 69.55 79.1102 72.45L79.0702 72.4L79.1002 72.42Z" fill="#231F20"/>
<path d="M32.5501 86.34C32.5501 86.34 32.6301 86.36 32.6502 86.31C32.6702 86.27 32.7501 86.28 32.7801 86.19C32.8401 86.03 32.9601 85.88 32.9701 85.66C33.0602 85.26 33.0301 84.82 32.7901 84.35C32.7301 84.17 32.6102 84.01 32.4701 83.85C32.3502 83.69 32.2101 83.53 32.0602 83.36C31.0702 82.12 29.4801 81.15 27.9401 80.23C27.2301 79.84 26.4801 79.52 25.7401 79.22C24.7801 78.82 23.7601 78.6 22.8801 77.92C22.6001 77.73 22.6601 77.67 22.9801 77.57C23.2101 77.5 23.4401 77.43 23.6401 77.36C23.7801 77.32 23.9301 77.26 24.0801 77.25C24.2301 77.25 24.3801 77.25 24.5301 77.29C26.6501 77.73 28.8401 78.24 30.7501 79.5C31.8701 80.27 33.1801 80.91 34.2301 82.08C34.8101 82.7 35.2701 83.52 35.5301 84.43C35.7701 85.37 35.6701 86.33 35.3501 87.25C35.2001 87.54 35.0501 87.83 34.8601 88.09C34.6201 88.32 34.3901 88.59 34.1201 88.76C33.5601 89.11 32.9601 89.28 32.4101 89.33C30.7201 89.48 29.3301 88.94 28.0001 88.48C26.9601 88.11 25.9001 87.83 24.9001 87.34C24.6801 87.23 24.4501 87.15 24.2501 87.01C23.4801 86.5 23.3701 86.12 23.7101 85.41C23.7801 85.25 23.8401 85.09 23.9301 84.95C24.2001 84.5 24.8301 84.25 25.3801 84.42C27.1401 84.78 28.7101 85.56 30.2701 85.95C30.8502 86.11 31.3601 86.2 31.8001 86.28C32.2501 86.34 32.4302 86.28 32.4902 86.29L32.5401 86.34H32.5501Z" fill="#231F20"/>
<path d="M31.4299 98.33C30.1399 98.31 29.0099 98.04 27.9199 97.72C26.8299 97.39 25.7899 96.98 24.7799 96.5L23.7899 96.02C23.4299 95.82 23.1999 95.73 22.6399 95.32L22.4699 95.16C22.4399 95.08 22.3699 95.04 22.3199 94.98C21.9799 94.54 21.8399 93.8 21.7999 93.5C21.7399 93.12 21.7099 92.76 21.6799 92.4C21.6299 91.69 21.6199 91 21.6099 90.31C21.6099 88.93 21.6499 87.57 21.6999 86.21C21.7399 85 21.7799 83.79 21.8199 82.6C21.8999 81.07 21.8199 79.5 22.3499 78C22.5099 77.53 22.8099 77.64 23.1599 78.08C23.3299 78.3 23.5199 78.6 23.6999 78.96C23.8599 79.31 23.9399 79.72 23.9399 80.15C23.9399 81.68 23.9399 83.21 23.9399 84.75C23.9099 86.29 23.8299 87.83 23.7599 89.37C23.7199 90.2 23.7599 91.03 23.8499 91.85C23.8999 92.26 23.9499 92.66 24.0399 93.03L24.0999 93.28L24.1299 93.38C24.1499 93.45 24.1799 93.51 24.2399 93.55L24.3199 93.6L24.5399 93.73C26.2099 94.65 28.1999 95.38 30.1099 95.67C31.2699 95.85 32.5199 95.81 33.1699 95.29C33.4099 95.1 33.5799 94.85 33.6799 94.51C33.7799 94.17 33.7899 93.74 33.7399 93.45C33.5999 92.76 33.0499 92 32.4099 91.38C31.3899 90.4 30.0999 89.7 28.8199 89.05C28.5399 88.9 28.2399 88.8 27.9699 88.65C26.9499 88.07 26.7199 87.78 26.6899 87.14C26.6899 86.99 26.6499 86.84 26.6499 86.7C26.6299 86.23 27.3499 86.02 28.3099 86.25C29.0299 86.4 29.7099 86.67 30.3799 86.98C31.0499 87.29 31.6999 87.65 32.3399 88.06C32.9799 88.48 33.6099 88.94 34.2099 89.51C34.8099 90.09 35.3999 90.7 35.8899 91.61C36.0799 91.9 36.2199 92.35 36.3399 92.73C36.4199 93.15 36.4999 93.71 36.4499 94.06C36.4099 94.8 36.2099 95.69 35.6599 96.48C35.1099 97.27 34.2799 97.8 33.5299 98.05C32.7699 98.31 32.0699 98.37 31.4199 98.38V98.32L31.4299 98.33Z" fill="#231F20"/>
<path d="M60.3901 50.92C60.0901 49.44 59.4501 48.23 58.4101 47.78C58.1601 47.68 57.9701 47.69 57.6001 47.87C56.9401 48.16 56.2101 49 55.6401 49.87C55.0301 50.75 54.5301 51.75 54.0801 52.77C53.6901 53.68 53.4001 54.64 53.1401 55.59C52.8501 56.82 52.5801 58.06 52.2101 59.28C51.9601 59.65 52.0101 59.62 51.7701 59.25C51.5501 58.89 51.3101 58.2 51.3201 57.42C51.5501 54.71 52.1501 52.04 53.4701 49.54C53.8701 48.8 54.3001 48.04 54.8501 47.29C55.4101 46.57 56.0901 45.74 57.2901 45.38C57.9301 45.18 58.6901 45.23 59.2801 45.44C59.8201 45.63 60.3401 45.9 60.7801 46.26C61.6801 46.96 62.2601 47.89 62.6801 48.79C63.2001 49.92 63.4601 51.08 63.6501 52.22C63.9401 53.96 63.9301 55.69 63.9601 57.38C63.9801 58.7 64.1401 60.01 64.0801 61.34C64.0701 61.63 64.0801 61.92 64.0401 62.22C63.8701 63.31 63.4601 63.64 62.6601 63.66C62.4701 63.66 62.2901 63.68 62.1101 63.66C61.5201 63.57 61.1501 63.09 60.9901 62.35C60.8301 61.26 60.7601 60.14 60.7301 59.02C60.7301 57.91 60.7701 56.78 60.7601 55.67C60.7201 54.03 60.6801 52.38 60.3301 50.92L60.4001 50.9L60.3901 50.92Z" fill="#231F20"/>
<path d="M71.3801 98.88C70.6901 96.98 70.9801 95.02 71.5601 93.45C71.7301 92.88 71.9701 92.19 72.3501 91.63C73.7501 89.59 76.2601 88.63 78.5001 88.98C79.4901 89.15 80.4701 89.51 81.2701 90.14C81.5101 90.35 81.7501 90.58 81.9801 90.8C82.1701 91.06 82.3601 91.32 82.5401 91.58C82.6701 91.87 82.7601 92.18 82.8401 92.48C82.9001 92.78 82.9101 93.1 82.9201 93.4C82.9201 93.78 82.6101 93.76 82.1801 93.58C81.9601 93.49 81.7101 93.36 81.4701 93.22C81.2401 93.07 80.9401 92.96 80.7901 92.78C80.2801 92.12 79.6901 91.71 78.9701 91.5C78.2601 91.33 77.4601 91.27 76.6101 91.41C76.0901 91.47 75.6401 91.79 75.2301 92.12C74.8701 92.51 74.5401 92.92 74.3201 93.41C73.7901 94.52 73.4001 95.92 73.5901 97.12C73.6601 97.88 74.0101 98.58 74.5001 99.2C75.2601 100.12 76.4101 100.83 77.6601 101.18C78.6401 101.44 79.6601 101.44 80.6401 101.46C80.8601 101.48 81.0701 101.44 81.2901 101.45C82.1101 101.5 82.3701 101.6 82.6201 102.13C82.6801 102.25 82.7501 102.36 82.7901 102.48C82.9301 102.87 82.6101 103.25 81.9101 103.51C80.8901 103.83 79.7701 104.06 78.6301 103.97C77.5001 103.83 76.3501 103.55 75.2501 103.01C73.6201 102.27 72.0501 100.82 71.3101 98.91L71.3701 98.88H71.3801Z" fill="#231F20"/>
<path d="M12.2002 63.8L12.1702 63.89C12.1702 63.89 12.1602 63.91 12.1502 63.95L12.1002 64.42C12.0202 65.14 11.9302 65.86 11.8702 66.59C11.7302 68.04 11.6402 69.51 11.5602 70.98C11.4002 73.92 11.3502 76.87 11.3602 79.82C11.3602 81.97 11.5102 84.12 11.5902 86.27C11.6902 88.16 11.8602 90.04 12.0702 91.89C12.1902 92.81 12.3202 93.73 12.4902 94.57L12.6202 95.1C12.6502 95.18 12.6802 95.25 12.7402 95.31C12.9002 95.48 13.2302 95.78 13.5802 96.02C15.0002 97.02 16.7202 97.88 18.4002 98.71C20.1002 99.53 21.8302 100.31 23.5802 101.07C26.6802 102.41 29.8702 103.62 33.0202 104.79C35.0502 105.54 37.0702 106.33 39.0802 107.12L40.5902 107.73L42.0602 108.44C43.0302 108.93 44.0202 109.39 44.9702 109.93C46.1102 110.71 45.9002 110.75 44.6602 110.8C44.0302 110.83 43.1802 110.8 42.1602 110.71C41.6502 110.67 41.1002 110.61 40.5302 110.53C40.2402 110.49 39.9502 110.43 39.6502 110.39C39.3602 110.3 39.0702 110.22 38.7702 110.12C36.6802 109.41 34.5702 108.73 32.4902 107.97C30.4302 107.16 28.3702 106.34 26.3202 105.48C22.2202 103.74 18.1302 101.99 14.1302 99.67C13.5302 99.32 12.9302 98.94 12.3202 98.54C12.0102 98.32 11.7102 98.12 11.4002 97.85C11.1002 97.6 10.7602 97.32 10.4102 96.81C10.2402 96.59 10.1202 96.31 10.0202 96.06L9.8502 95.44C9.7402 95.05 9.6902 94.7 9.6202 94.34C9.4702 93.62 9.4202 92.93 9.3202 92.23C9.0102 89.45 8.8702 86.68 8.7502 83.93C8.5402 77.89 8.5802 71.86 9.0902 65.81L9.2302 64.41L9.3002 63.71L9.3502 63.22C9.3702 63.05 9.4302 62.92 9.4602 62.76L9.9502 60.99L10.0702 60.55V60.5L10.0902 60.47V60.46C10.0302 60.36 10.1802 60.59 10.1602 60.57C10.1602 60.57 10.2202 60.52 10.2402 60.5L10.4002 60.43C10.6102 60.32 10.9002 60.34 11.2002 60.39C11.8202 60.49 12.4902 60.77 13.1402 61L14.5302 61.54L17.1102 62.57C22.3002 64.68 27.4502 66.9 32.6102 68.92C36.6202 70.49 40.6202 71.86 44.6302 73.26C45.5202 73.56 46.3802 73.85 47.2802 74.15C48.9202 74.74 50.0002 75.15 50.7102 75.56C51.4002 76.02 51.7602 76.4 52.0102 76.84C52.1202 77.04 52.2902 77.26 52.3302 77.43C52.4102 77.72 52.0802 77.85 51.4002 77.86C50.7202 77.86 49.6802 77.8 48.4502 77.41C41.0602 75.3 33.5502 72.39 26.0602 69.4C23.2902 68.28 20.5002 67.15 17.7202 66.03L13.5702 64.34L12.5402 63.93C12.2902 63.83 12.4102 63.88 12.3702 63.86H12.3502C12.3502 63.86 12.2602 63.79 12.2602 63.84L12.2002 63.77V63.8Z" fill="#231F20"/>
<path d="M100.83 24.1C100.92 24.3 100.69 24.47 100.33 24.62C100.22 24.67 99.8699 24.67 99.8199 24.62C99.7099 24.51 99.5999 24.4 99.5099 24.29C99.4599 24.22 99.0699 23.12 98.9699 22.74C98.8499 22.37 98.7999 22.01 98.7599 21.64L98.5399 19.4C98.5199 19.23 98.5599 19.07 98.6099 18.9C98.7899 18.34 98.7999 17.77 98.7499 17.2C98.7499 17.1 98.7599 17.01 98.6699 16.91C98.5199 16.75 98.5199 15.21 98.6299 15.01C98.8599 14.53 99.0199 14.04 99.2099 13.56C99.2399 13.49 99.2099 13.41 99.3299 13.36C99.5999 13.23 99.5699 13.08 99.6099 12.92C99.6799 12.71 99.7199 12.5 99.8799 12.3C99.9499 12.2 100.11 12.11 100.23 12.02C100.34 11.94 100.64 12.02 100.67 12.05C100.77 12.15 100.92 12.09 101.05 12.09C101.09 12.09 101.15 12.09 101.19 12.09C101.21 12.09 101.46 12.42 101.64 12.75C101.82 13.08 101.97 13.42 101.96 13.49C101.96 13.51 102 13.95 102.04 14.42C102.09 14.88 102.14 15.36 102.16 15.48C102.18 15.58 102.11 15.68 102.06 15.79C102.04 15.84 102.15 17.24 102.14 17.29C102.09 17.58 102.17 17.87 101.92 18.15C101.87 18.2 101.88 18.26 101.88 18.32C101.88 18.82 101.79 19.31 101.67 19.8C101.62 20.05 101.62 20.31 101.6 20.56C101.6 20.61 101.56 20.65 101.54 20.7C101.52 20.76 101.48 20.81 101.48 20.87C101.45 21.47 101.3 22.07 101.34 22.68C101.34 22.82 101.1 23.48 101.09 23.64C101.09 23.73 100.78 24.03 100.82 24.11L100.83 24.1Z" fill="#231F20"/>
<path d="M105.81 25.14C105.79 25.31 105.54 25.23 105.18 25.04C105.07 24.98 104.79 24.72 104.77 24.65C104.74 24.52 104.71 24.38 104.7 24.27C104.7 24.2 104.96 23.42 105.01 23.12C105.08 22.84 105.22 22.64 105.37 22.43C105.68 22.02 105.95 21.56 106.31 21.17C106.39 21.08 106.49 21.01 106.6 20.96C107.01 20.78 107.3 20.5 107.56 20.18C107.6 20.13 107.66 20.09 107.65 19.98C107.63 19.79 108.46 19.03 108.61 19C109 18.91 109.32 18.75 109.7 18.67C109.75 18.66 109.78 18.6 109.88 18.67C110.12 18.81 110.18 18.71 110.28 18.67C110.42 18.61 110.56 18.56 110.73 18.54C110.81 18.53 110.95 18.59 111.07 18.64C111.18 18.68 111.36 18.97 111.36 19.01C111.37 19.14 111.52 19.23 111.61 19.34C111.64 19.38 111.68 19.43 111.7 19.46C111.74 19.53 111.5 20.57 111.45 20.63C111.45 20.68 110.65 21.56 110.59 21.68C110.55 21.74 110.46 21.74 110.39 21.76C110.35 21.76 109.8 22.52 109.77 22.54C109.61 22.64 109.54 22.84 109.25 22.81C109.19 22.81 109.17 22.84 109.15 22.87C108.94 23.12 108.65 23.3 108.38 23.5C108.24 23.6 108.13 23.73 108 23.85C107.98 23.87 107.93 23.87 107.9 23.88C107.86 23.9 107.81 23.9 107.78 23.93C107.49 24.23 107.11 24.45 106.87 24.8C106.8 24.87 106.27 25.01 106.21 25.11C106.17 25.16 105.8 25.09 105.79 25.17L105.81 25.14Z" fill="#231F20"/>
<path d="M109.6 33.41C109.48 33.51 109.34 33.35 109.18 33.05C109.13 32.95 109.07 32.65 109.1 32.6C109.16 32.5 109.22 32.39 109.28 32.31C109.32 32.26 110.03 31.87 110.28 31.71C110.52 31.56 110.77 31.47 111.02 31.39C111.53 31.25 112.05 31.08 112.57 30.96C112.69 30.94 112.81 30.96 112.93 30.99C113.34 31.12 113.74 31.1 114.14 31.03C114.21 31.02 114.28 31.03 114.34 30.94C114.45 30.77 115.55 30.79 115.69 30.88C116.03 31.07 116.38 31.2 116.71 31.36C116.76 31.38 116.81 31.36 116.85 31.46C116.93 31.71 117.04 31.68 117.14 31.71C117.28 31.75 117.43 31.81 117.56 31.91C117.63 31.96 117.68 32.11 117.74 32.23C117.79 32.34 117.71 32.7 117.68 32.74C117.6 32.85 117.63 33.03 117.61 33.18C117.61 33.23 117.59 33.3 117.59 33.34C117.57 33.43 116.71 33.96 116.63 33.96C116.63 33.96 116.33 33.98 116.02 34.01C115.71 34.04 115.4 34.08 115.33 34.11C115.26 34.13 115.2 34.07 115.13 34.03C115.1 34.02 114.19 34.18 114.16 34.17C113.97 34.13 113.79 34.21 113.6 34C113.56 33.96 113.52 33.97 113.49 33.97C113.17 33.99 112.84 33.94 112.51 33.85C112.34 33.81 112.18 33.83 112.01 33.81C111.98 33.81 111.95 33.78 111.92 33.76C111.88 33.74 111.84 33.72 111.8 33.72C111.4 33.72 110.99 33.62 110.6 33.69C110.51 33.69 110.04 33.54 109.94 33.57C109.88 33.58 109.65 33.36 109.6 33.41Z" fill="#231F20"/>
</svg>
