<svg width="520" height="391" viewBox="0 0 520 391" fill="none" xmlns="http://www.w3.org/2000/svg">
<path d="M86 289L94 284L132.5 288L139.5 276.5L145.5 269.5H149L151 271V284L166 269.5L170 271L166 289L172 308H179L182 314.5L177.5 321L172 322.5V327L168 340.5L155 349.5L149 351L145.5 354.5V361.5L142 365L134.5 363.5L131.5 354.5L119 356L107 354.5L105 363.5L100.5 366.5H94L91.5 361.5V352.5L86 347L79 335.5L75 322.5L77 301.5L86 289Z" fill="#BDC4CC"/>
<path d="M348.44 328C335.49 329.64 324.8 331.23 320.38 333.84C310.05 339.94 299.66 341.84 288.68 344.32C286.09 344.9 276.6 349.06 269.22 347.47" stroke="#221F1F" stroke-width="2.5" stroke-linecap="round" stroke-linejoin="round"/>
<path d="M168.509 222.88C177.419 218.68 187.559 211.61 190.589 201.8C190.739 201.31 187.949 201.62 187.729 202.33C184.849 211.68 175.389 218.54 166.859 222.57C165.139 223.38 167.859 223.19 168.509 222.88Z" fill="#221F1F"/>
<path d="M289.65 17.28C310.4 18.28 336.81 35.22 336.8 45.73C336.8 61.9 295.44 70.59 273.28 57.27C255.09 46.35 262.11 15.91 289.65 17.28Z" fill="#221F1F"/>
<path d="M286.59 60C295.761 62.141 305.288 62.2604 314.51 60.35C317.844 59.6469 321.098 58.6048 324.22 57.24C326.907 56.1231 329.399 54.5836 331.6 52.68C332.599 51.7433 333.455 50.6651 334.14 49.48C334.737 48.3297 335.078 47.0642 335.14 45.77C335.103 44.4782 334.761 43.2136 334.14 42.08C333.459 40.8 332.634 39.6022 331.68 38.51C329.699 36.2337 327.483 34.1723 325.07 32.36C320.724 29.0968 316 26.3704 311 24.24C304.63 21.5659 297.947 19.711 291.11 18.72C289.01 18.45 289.28 17.5 291.24 16.72C294.412 15.6944 297.818 15.6422 301.02 16.57C308.233 18.4714 315.124 21.4301 321.47 25.35C324.668 27.3003 327.681 29.5396 330.47 32.04C331.909 33.3143 333.246 34.6985 334.47 36.18C335.769 37.7058 336.844 39.4097 337.66 41.24C338.218 42.4333 338.556 43.717 338.66 45.03C338.724 46.3558 338.555 47.6827 338.16 48.95C337.369 51.3624 335.963 53.527 334.08 55.23C332.325 56.8525 330.365 58.2377 328.25 59.35C326.206 60.4552 324.068 61.3755 321.86 62.1C317.068 63.6578 312.106 64.6315 307.08 65C302.104 65.4303 297.095 65.3297 292.14 64.7C285.996 63.9755 280.03 62.164 274.52 59.35C272.387 58.2629 270.423 56.8717 268.69 55.22C266.957 53.5376 265.517 51.5772 264.43 49.42C262.279 45.0887 261.578 40.1804 262.43 35.42C263.056 31.7803 264.514 28.3342 266.69 25.35C267.795 23.881 269.059 22.5394 270.46 21.35C271.885 20.1785 273.439 19.1721 275.09 18.35C276.534 17.6039 278.048 17.0011 279.61 16.55C280.839 16.2086 282.093 15.9678 283.36 15.83C284.219 15.7232 285.087 15.7031 285.95 15.77C286.961 15.7629 287.944 16.0977 288.74 16.72C289.031 16.9167 289.296 17.1485 289.53 17.41C289.78 17.8 289.32 18.15 288.31 18.41C287.81 18.55 287.17 18.63 286.42 18.8C285.67 18.97 284.79 19.06 283.82 19.28C280.961 19.8157 278.212 20.83 275.69 22.28C273.218 23.7527 271.074 25.7164 269.39 28.05C267.711 30.408 266.575 33.1091 266.065 35.9588C265.555 38.8085 265.683 41.7358 266.44 44.53C267.611 48.691 270.246 52.2887 273.86 54.66C275.772 55.9046 277.806 56.95 279.93 57.78C282.083 58.655 284.304 59.3539 286.57 59.87L286.59 60Z" fill="#221F1F"/>
<path d="M355.72 95.53C355.92 94.61 355.19 87.2 352.85 85.53C346.78 81.25 342.36 89.78 342.36 89.78C329.97 83.69 340.72 48.37 340.95 48.27C364.93 37.56 391.47 86.59 355.72 95.53Z" fill="#221F1F"/>
<path d="M359.46 53.49C357.07 51.4605 354.238 50.0187 351.19 49.28C350.448 49.1025 349.692 48.9888 348.93 48.94L347.79 48.86C347.41 48.86 347.04 48.86 346.66 48.93C346.278 48.938 345.898 48.9714 345.52 49.03L344.4 49.26C344.024 49.3165 343.655 49.4138 343.3 49.55L342.78 49.74H342.64C342.5 49.74 342.47 49.86 342.43 49.97L342.37 50.17L342.22 50.64L341.95 51.64L341.45 53.56L340.51 57.43C339.392 61.9666 338.606 66.5789 338.16 71.23C337.946 73.5236 337.906 75.8303 338.04 78.13C338.145 80.3562 338.607 82.5509 339.41 84.63C339.608 85.0828 339.839 85.5206 340.1 85.94L340.49 86.55C340.561 86.6444 340.638 86.7346 340.72 86.82L340.9 87.03C341.071 87.2325 341.266 87.4138 341.48 87.57C341.589 87.6503 341.702 87.7237 341.82 87.79C341.94 87.79 342.07 87.99 342.11 87.79C342.15 87.59 342.37 87.37 342.51 87.17C342.581 87.0624 342.658 86.9589 342.74 86.86C342.91 86.65 343.07 86.43 343.26 86.23C343.997 85.3632 344.868 84.6204 345.84 84.03C347.282 83.1003 349.019 82.7436 350.71 83.03C351.535 83.1869 352.326 83.4846 353.05 83.91C353.453 84.1121 353.826 84.3678 354.16 84.67C354.503 84.9931 354.802 85.3595 355.05 85.76C355.823 87.0752 356.355 88.5178 356.62 90.02C356.911 91.4179 357.059 92.842 357.06 94.27C357.065 94.6158 356.989 94.958 356.84 95.27C356.7 95.58 356.51 95.68 356.33 95.61C355.825 95.2874 355.386 94.8697 355.04 94.38C354.425 93.5587 353.883 92.6854 353.42 91.77C352.88 90.77 352.35 89.49 351.87 88.45C351.754 88.146 351.584 87.865 351.37 87.62C351.37 87.62 351.42 87.62 351.46 87.5C351.512 87.4374 351.559 87.3705 351.6 87.3C351.16 87.92 351.47 87.47 351.38 87.61H351.31L351.18 87.54C351 87.45 350.82 87.31 350.65 87.24C350.062 86.9525 349.388 86.8954 348.76 87.08C347.96 87.352 347.237 87.8115 346.65 88.42C346.47 88.58 346.3 88.78 346.13 88.95C345.871 89.2403 345.627 89.544 345.4 89.86C344.69 90.86 344.04 92.12 343.4 93.29C342.88 92.99 342.22 92.58 341.64 92.23C341.042 91.8725 340.465 91.4819 339.91 91.06C339.309 90.6889 338.769 90.2267 338.31 89.69L337.77 89.05C337.618 88.8715 337.481 88.6808 337.36 88.48C336.393 87.002 335.69 85.3679 335.28 83.65C334.561 80.5074 334.315 77.2752 334.55 74.06C334.982 67.1564 336.05 60.3074 337.74 53.6C338.02 52.54 338.31 51.49 338.62 50.44L339.14 48.72C339.209 48.5157 339.296 48.3182 339.4 48.13C339.471 47.9332 339.576 47.7504 339.71 47.59L339.9 47.36V47.3L339.81 47.21L340 47L340.53 46.68C341.7 46.26 342.21 46.05 342.93 45.84L345.07 45.39C346.505 45.1985 347.957 45.1616 349.4 45.28C352.247 45.5522 355.01 46.3885 357.53 47.74C359.658 48.8796 361.631 50.2878 363.4 51.93C365.146 53.5607 366.727 55.3594 368.12 57.3C370.205 60.249 371.817 63.5047 372.9 66.95C374.007 70.402 374.445 74.0337 374.19 77.65C373.981 80.4789 373.224 83.2402 371.96 85.78C370.647 88.3232 368.794 90.5485 366.53 92.3C366.03 92.67 365.53 93.07 365.05 93.44C364.57 93.81 363.99 94.08 363.44 94.44C359.3 96.59 357.7 96.44 356.55 95.85C356.276 95.7193 356.018 95.5583 355.78 95.37C355.49 95.06 355.73 94.62 356.39 94.12C356.798 93.8324 357.225 93.5751 357.67 93.35C358.21 93.11 358.8 92.78 359.47 92.43L360.96 91.68L362.35 90.79L363.05 90.35C363.28 90.19 363.48 90.01 363.69 89.84L364.97 88.84C366.54 87.3747 367.855 85.6578 368.86 83.76C370.682 79.697 371.084 75.139 370 70.82C368.521 64.0313 364.775 57.948 359.38 53.57L359.46 53.49Z" fill="#221F1F"/>
<path d="M298.31 150.28C298.86 153.23 299.14 156.35 299.41 159.43C299.68 162.51 299.85 165.63 300.01 168.73C300.31 174.95 300.48 181.18 300.56 187.42C300.56 187.85 303.41 187.81 303.38 187.42C303.3 181.16 303.14 174.9 302.83 168.63C302.67 165.5 302.48 162.37 302.22 159.24C301.96 156.11 301.67 152.98 301.08 149.78C301 149.39 298.24 150 298.31 150.28Z" fill="#232020"/>
<path d="M326.17 179.61C326.17 171.52 326.06 163.45 325.87 155.38C325.68 147.31 325.44 139.24 325.06 131.16C325.06 130.6 322.19 130.75 322.24 131.3C322.61 139.3 322.85 147.39 323.05 155.44C323.25 163.49 323.39 171.56 323.34 179.59C323.34 180 326.17 180.06 326.17 179.61Z" fill="#232020"/>
<path d="M324.27 144.3C322.32 147.75 304.47 155.7 299.65 149.76C299.46 148.15 299.26 147.66 299.05 146.29C309.95 146.96 323.48 133.01 323.68 132.81C323.84 135.8 324 139.69 324.27 144.3Z" fill="#221F1F"/>
<path d="M312 144.41C311.16 144.85 310.33 145.3 309.44 145.66L308.13 146.24L306.76 146.72C305.841 147.045 304.903 147.312 303.95 147.52C303.469 147.632 302.981 147.712 302.49 147.76L301.75 147.86H301.57H301.47C301.58 147.86 301.55 147.86 301.54 147.86H301.46C301.31 147.86 301.1 147.86 301.02 147.86C301.058 148.014 301.081 148.171 301.09 148.33V148.41V148.75V149C301.49 149.468 302.013 149.815 302.6 150C303.446 150.3 304.333 150.472 305.23 150.51C307.204 150.563 309.176 150.345 311.09 149.86C313.034 149.4 314.922 148.73 316.72 147.86C317.858 147.304 318.966 146.69 320.04 146.02C321.055 145.411 322.033 144.743 322.97 144.02C323.19 143.84 323.42 143.88 323.71 144.02C323.89 144.14 324.039 144.302 324.143 144.492C324.248 144.681 324.305 144.894 324.31 145.11C324.317 145.836 324.137 146.552 323.786 147.187C323.436 147.823 322.928 148.358 322.31 148.74C319.882 150.23 317.274 151.406 314.55 152.24C311.802 153.141 308.922 153.577 306.03 153.53C304.712 153.509 303.402 153.324 302.13 152.98C301.429 152.791 300.756 152.509 300.13 152.14C299.777 151.939 299.443 151.709 299.13 151.45C298.78 151.13 298.44 150.75 298.13 150.4L297.98 149.22L297.91 148.81L297.8 148.21C297.63 147.4 297.52 146.62 297.4 145.85L297.32 145.31V145.03C297.32 145.03 297.27 144.92 297.32 144.92H297.46H298.59L300.82 144.86H301H301.13H301.19H301.34H301.65L302.27 144.77L302.89 144.69L303.51 144.54L304.75 144.22C305.17 144.11 305.57 143.94 305.98 143.8C306.805 143.513 307.613 143.179 308.4 142.8C310.378 141.876 312.278 140.793 314.08 139.56C315.47 138.64 316.81 137.64 318.08 136.56C319.762 135.2 321.368 133.747 322.89 132.21L324.43 130.62C324.51 130.62 324.5 130.86 324.52 131.03L324.57 131.58L324.66 132.68L324.88 134.96L325.1 137.36L325.28 138.99C325.34 139.56 325.43 140.11 325.47 140.69C325.64 142.81 325.47 143.5 324.63 144C324.449 144.125 324.258 144.235 324.06 144.33C323.41 144.57 322.82 143.73 322.55 142.18C322.41 141.43 322.29 140.67 322.18 139.9C322.07 139.13 321.99 138.42 321.89 137.67C321.78 137.51 321.73 137.53 321.69 137.58V137.67L321.61 137.74L321.53 137.82L321.31 138.01C318.443 140.481 315.337 142.661 312.04 144.52L312 144.41Z" fill="#221F1F"/>
<path d="M324.759 179.93C324.389 223.02 320.609 281.04 318.509 304.81C318.389 306.22 310.739 310.73 307.589 310.73C301.419 310.73 298.779 307.73 293.209 308.99C293.079 309.019 292.944 309.014 292.816 308.976C292.688 308.939 292.571 308.869 292.477 308.774C292.384 308.679 292.315 308.562 292.279 308.434C292.243 308.306 292.239 308.17 292.269 308.04C294.629 298.74 300.929 250.42 301.839 211.21C302.029 203.04 302.059 195.08 301.979 187.72C306.114 188.149 310.293 187.674 314.226 186.329C318.159 184.984 321.753 182.801 324.759 179.93Z" fill="#221F1F"/>
<path d="M298.62 279.44C297.953 284.733 297.22 290.01 296.42 295.27C296.01 297.91 295.58 300.55 295.11 303.18L294.72 305.18L294.53 306.18L294.46 306.48C294.46 306.65 294.32 306.87 294.39 306.96C294.46 307.05 294.62 306.96 294.74 306.96H295.05H296.05C296.719 306.982 297.387 307.045 298.05 307.15C299.257 307.372 300.449 307.669 301.62 308.04C302.672 308.357 303.74 308.621 304.82 308.83C305.34 308.91 305.82 308.98 306.39 309.02C306.649 309.035 306.91 309.035 307.17 309.02H307.57H307.85C308.725 308.893 309.58 308.647 310.39 308.29C311.286 307.915 312.158 307.484 313 307C313.866 306.533 314.704 306.015 315.51 305.45C315.9 305.17 316.26 304.89 316.58 304.61C316.73 304.44 316.75 304.45 316.79 304.39C316.828 304.342 316.85 304.282 316.85 304.22L317.2 300.31C318.926 280.79 320.363 261.24 321.51 241.66C322.01 232.97 322.38 224.23 322.65 215.6C323 204.52 323.08 193.39 323.55 182.32C323.71 178.87 324.55 179.32 325.29 182.32C326.366 187.162 326.816 192.123 326.63 197.08C326.1 219.78 324.85 242.42 323.02 265.21C322.49 271.66 322.02 278.21 321.55 284.85C321.3 288.16 321.06 291.47 320.81 294.79L320.41 299.79C320.26 301.5 320.12 303.21 319.97 304.91C319.92 305.06 319.97 305.24 319.84 305.36C319.795 305.513 319.742 305.663 319.68 305.81C319.524 306.077 319.346 306.331 319.15 306.57C318.823 306.931 318.469 307.265 318.09 307.57C316.38 308.853 314.532 309.94 312.58 310.81C311.594 311.273 310.57 311.651 309.52 311.94C308.923 312.11 308.309 312.207 307.69 312.23C307.1 312.23 306.59 312.23 306.04 312.17C303.942 311.943 301.874 311.497 299.87 310.84C298.967 310.566 298.044 310.362 297.11 310.23C296.669 310.166 296.225 310.135 295.78 310.14H295.44C295.3 310.129 295.159 310.129 295.02 310.14L293.9 310.29C293.55 310.29 293.26 310.29 292.9 310.29C292.601 310.32 292.299 310.279 292.02 310.17C291.745 310.045 291.507 309.85 291.332 309.604C291.156 309.358 291.049 309.071 291.02 308.77L291.29 306.83L291.42 305.83C291.42 305.65 291.42 305.54 291.48 305.44L291.55 305.1C291.9 303.34 292.22 301.55 292.55 299.76C293.15 296.18 293.68 292.58 294.19 288.97C295.49 279.637 296.616 270.26 297.57 260.84C299.02 246.61 300.16 232.27 300.67 218.08C300.74 215.53 300.83 212.99 300.84 210.45C300.85 207.91 300.84 205.39 300.84 202.87C300.84 200.35 300.79 197.87 300.77 195.31V191.53V186.33C302.04 186.43 303.44 186.51 304.55 186.54C306.832 186.536 309.105 186.254 311.32 185.7C314.252 184.96 317.071 183.826 319.7 182.33C320.57 181.84 321.29 181.49 321.88 181.19C322.408 180.941 322.953 180.727 323.51 180.55C323.946 180.384 324.394 180.25 324.85 180.15C325.4 180.15 325.08 180.79 323.97 182.09C322.143 183.968 320.009 185.521 317.66 186.68C315.268 187.86 312.729 188.711 310.11 189.21C308.772 189.461 307.419 189.621 306.06 189.69C305.72 189.69 305.38 189.69 305.06 189.69H304.31H303.98C303.98 189.76 303.98 189.84 303.98 189.89V190V190.44V193.23V198.86C303.98 202.627 303.98 206.42 303.98 210.24C303.87 217.88 303.53 225.6 303.05 233.31C302.05 248.69 300.57 264.09 298.7 279.42L298.62 279.44Z" fill="#221F1F"/>
<path d="M249.41 220.39C251.51 214.19 253.6 207.96 255.84 201.77C256.65 199.5 257.41 197.22 258.29 194.98C261.43 187.1 264.91 179.26 269.85 172.19C272.015 168.993 274.609 166.109 277.56 163.62C279.52 162.013 281.734 160.742 284.11 159.86C286.514 158.988 289.089 158.686 291.63 158.98C293.21 159.17 292.85 159.98 291.58 160.71C289.806 161.669 287.936 162.436 286 163C281.86 164.22 278.27 167.1 275.24 170.56C272.196 174.198 269.539 178.143 267.31 182.33C264.584 187.607 262.244 193.074 260.31 198.69C258.02 204.84 255.9 211.09 253.8 217.35C252.467 221.197 251.17 225.05 249.91 228.91C247.91 234.75 245.79 240.58 243.5 246.28C241.816 250.732 239.856 255.073 237.63 259.28C237.13 260.2 236.63 261.11 236.04 262.01C233.83 265.32 232.71 266.12 231.53 266.17C231.264 266.204 230.995 266.204 230.73 266.17C230 265.96 230.73 264.52 232.18 262.24C234.397 258.696 236.343 254.988 238 251.15C239.76 247.24 241.37 243.15 242.89 239.04C245.16 232.91 247.27 226.66 249.34 220.38L249.41 220.39Z" fill="#221F1F"/>
<path d="M170 225.62V225.68L170.1 225.87L170.77 227.22L172.08 229.93L174.6 235.36L179.48 246.23C182.72 253.47 186.01 260.67 189.48 267.75C192.04 272.91 194.8 277.97 197.66 282.95C200.18 287.34 202.85 291.64 205.77 295.74C208.625 299.855 211.877 303.68 215.48 307.16C219.08 310.54 223.22 313.46 227.87 314.64C229.024 314.924 230.203 315.094 231.39 315.15C231.98 315.15 232.57 315.15 233.16 315.1C233.45 315.1 233.77 315.1 234.03 315.01L234.77 314.84C236.939 313.903 238.875 312.5 240.44 310.73C243.486 307.463 246.227 303.925 248.63 300.16C251.11 296.41 253.39 292.53 255.63 288.64C261.26 278.64 266.25 268.16 271.63 257.97C274.95 251.59 273.84 261.17 267.82 273.1C265.13 278.37 262.37 283.61 259.45 288.78C256.53 293.95 253.45 299.04 250.01 303.97C248.29 306.467 246.43 308.864 244.44 311.15C242.391 313.646 239.895 315.738 237.08 317.32L235.8 317.83C235.33 317.95 234.8 318.06 234.37 318.15C233.553 318.24 232.731 318.28 231.91 318.27C230.272 318.255 228.643 318.037 227.06 317.62C225.512 317.199 224.008 316.629 222.57 315.92C221.18 315.21 219.843 314.401 218.57 313.5C215.562 311.329 212.793 308.845 210.31 306.09C207.807 303.359 205.469 300.48 203.31 297.47C199.041 291.471 195.159 285.205 191.69 278.71C184.04 264.56 177.69 249.81 171.1 235.29C170.28 233.5 169.44 231.71 168.59 229.95L167.28 227.31L166.8 226.4L166.27 225.4L165.73 224.4L165.46 223.9C165.38 223.74 165.25 223.55 165.29 223.46L167.06 223.07C167.64 222.92 168.17 222.74 168.72 222.58L169.79 222.15C170.11 222.01 170.42 221.85 170.74 221.7C171.39 221.42 171.98 221.03 172.61 220.7C173.24 220.37 173.81 219.94 174.4 219.55C176.742 217.898 178.883 215.979 180.78 213.83L181.69 212.83L182.54 211.76C183.1 211.04 183.7 210.35 184.2 209.58L185.76 207.32L187.17 204.96L187.53 204.37L187.7 204.08L187.92 203.66L188.84 201.89L189.75 200.13L190.21 199.26C190.36 199.04 190.5 198.4 190.68 198.96L192.73 202.47L193.24 203.34L193.65 204.07L194.32 205.3C197.93 211.86 201.32 218.48 204.73 225.05C210 235.28 215.18 245.3 220.39 255.41L223.79 262.07C227.96 270.45 229.07 273.23 229.18 275.41C229.234 275.888 229.25 276.369 229.23 276.85C229.03 277.95 226.88 274.76 223.69 268.69C218.97 259.69 214.2 250.41 209.38 241C204.56 231.59 199.7 222 194.66 212.56C193.75 210.86 192.84 209.15 191.9 207.48L190.69 205.29C190.69 205.24 190.63 205.39 190.61 205.43L190.55 205.54L190.08 206.32L188.54 208.91C187.99 209.75 187.4 210.57 186.84 211.41C184.494 214.751 181.728 217.775 178.61 220.41C177.85 221.09 176.98 221.66 176.16 222.29C175.34 222.92 174.44 223.44 173.51 223.93C172.597 224.453 171.652 224.917 170.68 225.32L170.31 225.47L170.12 225.55C170.17 225.55 170.06 225.55 170.12 225.55H170.04C170.04 225.55 170.04 225.55 170.04 225.61L170 225.62Z" fill="#221F1F"/>
<path d="M152.909 177C151.517 176.432 150.083 175.974 148.619 175.63C147.961 175.501 147.291 175.437 146.619 175.44C146.269 175.44 145.909 175.44 145.549 175.44L144.459 175.57C141.451 176.067 138.542 177.039 135.839 178.45C133.82 179.509 131.869 180.695 129.999 182C129.169 182.56 128.349 183.15 127.569 183.74L127.449 183.84L127.379 183.9L127.099 184.15L126.529 184.67L125.389 185.67C123.889 187.06 122.389 188.47 120.959 189.92C120.239 190.64 119.519 191.37 118.829 192.11L117.829 193.24L116.969 194.24C116.659 194.585 116.384 194.96 116.149 195.36C116.01 195.562 115.94 195.804 115.949 196.05C115.949 196.32 116.309 196.33 116.519 196.33C116.949 196.275 117.364 196.136 117.739 195.92L118.369 195.56C118.743 195.333 119.113 195.093 119.479 194.84C120.949 193.84 122.359 192.68 123.729 191.51C124.349 190.97 124.949 190.43 125.549 189.87L126.439 189.04L127.439 188.04L129.739 187.04L131.849 186.14C133.259 185.55 134.679 185 136.129 184.5C138.899 183.5 136.709 187.85 131.739 190.01L129.389 191.01L128.149 192.15L126.589 193.5C125.589 194.39 124.469 195.26 123.349 196.1C122.789 196.51 122.219 196.92 121.629 197.32L120.739 197.91L120.279 198.19L120.039 198.33L119.659 198.55C119.149 198.86 118.569 199.14 117.989 199.42C117.454 199.663 116.898 199.861 116.329 200.01C115.433 200.26 114.486 200.26 113.589 200.01C113.11 199.846 112.68 199.564 112.339 199.19C112.009 198.805 111.809 198.326 111.769 197.82C111.74 196.666 112.091 195.534 112.769 194.6C113.472 193.544 114.25 192.542 115.099 191.6C115.673 190.973 116.253 190.363 116.839 189.77C118.919 187.67 121.043 185.583 123.209 183.51L124.839 181.96L125.259 181.58C125.499 181.36 125.609 181.28 125.769 181.15L126.689 180.44C127.919 179.53 129.169 178.66 130.469 177.87C133.32 176.075 136.366 174.612 139.549 173.51C141.174 172.97 142.849 172.595 144.549 172.39C145.415 172.283 146.287 172.236 147.159 172.25C148.053 172.298 148.941 172.432 149.809 172.65C153.762 173.765 157.578 175.314 161.189 177.27C163.929 178.65 166.589 180.17 169.189 181.77C171.832 183.347 174.373 185.087 176.799 186.98C177.269 187.34 177.729 187.8 178.189 188.22C178.438 188.478 178.666 188.755 178.869 189.05C179.054 189.3 179.218 189.564 179.359 189.84C179.929 190.84 180.519 191.84 181.119 192.84C182.309 194.84 183.539 196.75 184.779 198.69L186.429 201.23C188.429 204.43 188.929 205.55 188.659 206.7C188.624 206.964 188.557 207.222 188.459 207.47C188.109 208.14 186.789 207.13 185.139 204.85C182.689 201.46 180.369 197.85 178.139 194.12C177.589 193.18 177.039 192.24 176.509 191.27C176.379 191.04 176.229 190.74 176.159 190.72C176.117 190.681 176.08 190.638 176.049 190.59C176.007 190.521 175.953 190.46 175.889 190.41C175.539 190.11 175.289 189.8 174.889 189.49C173.253 188.19 171.544 186.984 169.769 185.88C164.422 182.412 158.761 179.456 152.859 177.05L152.909 177Z" fill="#221F1F"/>
<path d="M146.69 196.56C145.511 196.053 144.363 195.479 143.25 194.84C142.69 194.53 142.15 194.19 141.61 193.84C141.36 193.69 141.03 193.45 140.86 193.33L140.71 193.19C140.66 193.19 140.59 193.19 140.53 193.19H140.44L140.29 193.27C140.09 193.37 139.9 193.47 139.7 193.59L138.48 194.29C135.48 195.95 132.48 197.8 129.22 199.29C127.723 200.061 126.123 200.613 124.47 200.93C123.17 201.11 121.851 200.788 120.78 200.03C120.099 199.562 119.631 198.843 119.48 198.03C119.416 197.56 119.486 197.082 119.68 196.65C119.77 196.467 119.877 196.293 120 196.13C120.12 195.99 120.24 195.85 120.36 195.73C121.04 195.18 121.36 196.01 121.69 196.85C121.771 197.054 121.875 197.249 122 197.43C122.053 197.506 122.121 197.57 122.2 197.62C122.2 197.62 122.34 197.67 122.26 197.62H122.14C122.01 197.62 122.06 197.62 122.24 197.56L122.43 197.48L122.64 197.34L122.76 197.25V197.2C122.921 197.322 123.1 197.42 123.29 197.49C123.487 197.568 123.698 197.606 123.91 197.6C124.661 197.543 125.399 197.374 126.1 197.1C127.78 196.52 129.55 195.66 131.35 194.82C133.53 193.82 135.51 192.28 137.77 191.03L138.4 190.7C138.64 190.58 138.78 190.51 139.12 190.36C139.77 190.063 140.461 189.864 141.17 189.77L142.09 190.44L142.78 190.92L143.89 191.63L145.03 192.29L146.2 192.89C147.64 193.607 149.143 194.19 150.69 194.63C153.015 195.327 155.451 195.578 157.87 195.37L159.22 195.11C159.45 195.05 159.67 195.02 159.89 194.95L160.53 194.71L161.79 194.21C162.2 194.04 162.58 193.78 162.98 193.58C163.38 193.38 163.65 193.18 163.98 193C165.19 192.16 165.7 192.11 166.48 192.62C166.666 192.726 166.843 192.846 167.01 192.98C167.54 193.42 167.29 194.23 166.32 195.07C163.175 197.591 159.202 198.846 155.18 198.59C152.211 198.434 149.294 197.757 146.56 196.59L146.69 196.56Z" fill="#221F1F"/>
<path d="M164 200.35C168.445 206.402 172.083 213.007 174.82 220C175.31 221.32 178.19 220.51 177.71 219.22C174.936 212.047 171.238 205.266 166.71 199.05C165.94 197.97 163.18 199.1 164.05 200.33L164 200.35Z" fill="#221F1F"/>
<path d="M417 288.58C415.07 282.2 412.72 275.89 410.21 269.66C407.7 263.43 405.01 257.24 402.21 251.1C400.21 246.62 397.99 242.2 395.87 237.77C388.377 222.123 380.48 206.67 372.18 191.41C370.33 188.03 368.44 184.66 366.5 181.34C365.5 179.68 364.55 178.02 363.55 176.4C363.05 175.6 362.55 174.76 362.02 174.07C361.49 173.38 360.9 172.58 360.27 171.91C357.176 168.312 353.258 165.516 348.85 163.76C344.361 162.076 339.638 161.101 334.85 160.87C331.85 160.69 332.22 159.87 334.85 159.13C336.664 158.678 338.53 158.466 340.4 158.5C343.101 158.507 345.782 158.953 348.34 159.82C353.454 161.569 358.057 164.554 361.74 168.51L363.06 170.01C363.49 170.52 363.88 171.06 364.29 171.58C364.715 172.117 365.109 172.678 365.47 173.26L366.47 174.91C367.78 177.09 369.03 179.28 370.27 181.48C375.22 190.28 379.93 199.21 384.49 208.27C389.94 219.1 395.79 230.27 401.1 241.5C406.92 253.84 412.48 266.33 417.1 279.21C418.51 283.21 419.85 287.21 420.94 291.27C421.5 293.32 421.99 295.39 422.39 297.48C422.804 299.594 423.051 301.737 423.13 303.89C423.212 305.608 422.992 307.328 422.48 308.97C422.315 309.399 422.121 309.817 421.9 310.22C421.659 310.613 421.385 310.984 421.08 311.33L420.22 312.26C419.92 312.55 419.61 312.83 419.3 313.11C416.791 315.234 413.967 316.954 410.93 318.21C405.002 320.632 398.839 322.432 392.54 323.58C382.87 325.5 373.31 326.77 363.67 327.83C361.55 328.06 359.47 328.31 357.33 328.51C349.39 329.25 346.85 329.24 345.07 328.51C344.665 328.381 344.27 328.22 343.89 328.03C343.07 327.44 346.26 326.6 352.06 325.91C360.66 324.91 369.48 323.97 378.35 322.73C382.78 322.1 387.23 321.41 391.64 320.52C396.037 319.681 400.379 318.573 404.64 317.2C407.738 316.206 410.724 314.892 413.55 313.28C414.26 312.9 414.87 312.43 415.55 312.01C416.169 311.556 416.763 311.068 417.33 310.55C417.918 310.069 418.476 309.551 419 309C419.143 308.793 419.27 308.576 419.38 308.35L419.56 307.96L419.69 307.5C420.018 306.065 420.122 304.587 420 303.12C419.899 301.505 419.692 299.898 419.38 298.31C418.745 295.04 417.927 291.808 416.93 288.63L417 288.58Z" fill="#221F1F"/>
<path d="M265.56 342.69C265.803 342.589 266.071 342.564 266.329 342.619C266.586 342.675 266.82 342.808 267 343C267.16 343.12 267.26 343.58 267.13 343.69C266.881 343.894 266.617 344.077 266.34 344.24C265.03 344.698 263.695 345.079 262.34 345.38C262.1 345.44 261.85 345.48 261.6 345.52C261.35 345.56 260.71 345.61 260.28 345.63C259.485 345.689 258.688 345.562 257.95 345.26C257.643 345.12 257.37 344.915 257.15 344.66C256.952 344.373 256.787 344.065 256.66 343.74L256.76 343.24L256.82 342.98L257.02 342.69C257.2 342.3 257.83 341.89 258.27 341.49C258.71 341.09 259.27 340.77 259.83 340.4L260.75 339.82C261.12 339.587 261.504 339.376 261.9 339.19C263.26 338.55 264.55 337.83 265.82 337.08C266.041 336.967 266.246 336.826 266.43 336.66C267.814 335.781 269.25 334.986 270.73 334.28C271.94 333.8 273.12 333.28 274.31 332.79C274.47 332.695 274.646 332.63 274.83 332.6C275.235 332.564 275.625 332.434 275.97 332.22C276.47 331.99 276.97 331.77 277.49 331.58C277.76 331.496 278.038 331.442 278.32 331.42C278.58 331.42 278.59 331.7 278.53 331.77C278.47 331.84 278.59 332 278.67 332.1C278.703 332.128 278.725 332.167 278.73 332.21C277.814 332.974 276.856 333.685 275.86 334.34L273.73 335.55C272.66 336.15 271.56 336.8 271.34 336.95C271.098 337.079 270.847 337.193 270.59 337.29C270.46 337.29 267.32 339.24 267.19 339.29C266.557 339.686 265.887 340.021 265.19 340.29C265.05 340.346 264.916 340.416 264.79 340.5C263.68 341.18 262.53 341.79 261.42 342.45C261.267 342.53 261.122 342.628 260.99 342.74H260.88C260.832 342.747 260.787 342.768 260.75 342.8L260.7 342.86C260.7 343 260.89 343.02 261.02 343.04H261.24L261.94 342.93C262.28 342.88 263.99 342.81 264.39 342.68C264.56 342.64 265.37 342.79 265.56 342.69Z" fill="#221F1F"/>
<path d="M337.59 310C330.39 312.18 323.16 314.28 315.85 316.2C313.19 316.9 310.53 317.64 307.85 318.2C305.48 318.73 303.09 319.2 300.7 319.67L297.11 320.31L295.31 320.6L294.41 320.74L293.6 320.89C291.332 321.456 289.112 322.199 286.96 323.11C284.75 324 282.56 324.97 280.39 325.99C276.556 327.821 272.824 329.857 269.21 332.09C266.91 333.52 264.67 335.09 262.56 336.66C261.525 337.437 260.54 338.279 259.61 339.18C259.228 339.559 258.892 339.982 258.61 340.44C258.56 340.54 258.54 340.6 258.52 340.64C258.447 340.629 258.373 340.629 258.3 340.64C258.24 340.64 258.3 340.64 258.43 340.53C258.56 340.42 258.43 340.53 258.51 340.61C258.91 340.84 259.3 341.11 259.2 341.43C259.1 341.75 258.72 342.15 257.74 342.16C257.424 342.136 257.121 342.029 256.86 341.85C256.473 341.553 256.213 341.121 256.13 340.64C256.024 339.768 256.188 338.885 256.6 338.11C257.337 336.682 258.378 335.433 259.65 334.45C261.921 332.678 264.303 331.051 266.78 329.58C269.21 328.11 271.69 326.74 274.21 325.45C279.255 322.794 284.509 320.557 289.92 318.76C290.76 318.5 291.6 318.26 292.49 318.05C292.93 317.94 293.4 317.85 293.87 317.77L295.13 317.57C296.8 317.3 298.48 316.98 300.13 316.64C303.49 315.96 306.84 315.16 310.13 314.36C317.44 312.58 324.7 310.49 331.93 308.36L345.28 304.27L365.48 298.01C370.68 296.39 375.75 294.68 380.94 293.16C382.08 292.83 383.19 292.46 384.36 292.16C388.66 291.02 390.12 290.99 391.22 291.6C391.485 291.713 391.734 291.861 391.96 292.04C392.51 292.59 390.86 293.5 387.78 294.41C378.63 297.19 369 300.18 359.3 303.23L337.61 310.02L337.59 310Z" fill="#221F1F"/>
<path d="M337.88 308.5C347.33 313.97 345.52 326.5 341.67 334.78C340.76 336.78 344.56 336.78 345.28 335.25C349.56 326.02 351.17 312.31 340.77 306.25C339.31 305.4 336.03 307.39 337.88 308.46V308.5Z" fill="#221F1F"/>
<path d="M376.92 262.5L379.86 268.33C380.22 269.04 380.66 269.7 381.01 270.41C382.243 272.93 383.47 275.45 384.69 277.97C385.24 279.08 385.87 280.16 386.49 281.23C387.418 282.552 388.153 284 388.67 285.53C388.8 286.05 388.07 286.26 387.22 286.19C386.785 286.162 386.358 286.057 385.96 285.88C385.541 285.711 385.19 285.408 384.96 285.02C383.396 282.2 381.997 279.292 380.77 276.31C380.04 274.49 378.94 272.79 378.02 271.02L375.02 265.19L373.15 261.6C372.15 259.81 371.25 257.98 370.21 256.24C369.41 254.89 368.46 253.65 367.58 252.37C367.39 252.08 367.17 251.82 366.99 251.53C366.31 250.44 366.28 249.99 366.82 249.36C366.939 249.213 367.066 249.073 367.2 248.94C367.66 248.53 368.35 248.73 368.97 249.46C370.799 251.713 372.416 254.13 373.8 256.68C374.88 258.59 375.9 260.53 376.95 262.46L376.92 262.5Z" fill="#221F1F"/>
<path d="M125.63 204.2C125.63 211.2 115.93 212.76 114.16 205.79C111.94 197.09 125.63 195 125.63 204.2Z" fill="#221F1F"/>
<path d="M116.87 201.74C116.409 202.196 116.075 202.764 115.899 203.388C115.724 204.012 115.714 204.671 115.87 205.3C116.003 205.793 116.198 206.267 116.45 206.71C116.815 207.498 117.44 208.137 118.22 208.52C119.077 208.938 120.053 209.044 120.98 208.82C121.821 208.613 122.572 208.14 123.12 207.47C123.674 206.539 124.079 205.527 124.32 204.47C124.47 204.14 125.32 204.12 126.2 204.55C126.649 204.779 127.029 205.125 127.3 205.55C127.436 205.78 127.522 206.036 127.553 206.301C127.584 206.566 127.559 206.835 127.48 207.09C127.178 208.046 126.687 208.932 126.036 209.695C125.385 210.458 124.587 211.082 123.69 211.53C122.828 211.974 121.885 212.24 120.918 212.312C119.95 212.384 118.979 212.261 118.06 211.95C117.522 211.764 117 211.533 116.5 211.26C116.25 211.12 116 210.99 115.76 210.84L115.08 210.31C114.639 209.945 114.24 209.533 113.89 209.08C113.58 208.618 113.306 208.133 113.07 207.63C112.869 207.078 112.705 206.514 112.58 205.94C112.471 205.373 112.417 204.797 112.42 204.22C112.42 203.011 112.734 201.822 113.33 200.77C114.057 199.511 115.163 198.513 116.49 197.92C117.447 197.482 118.481 197.237 119.533 197.199C120.585 197.161 121.634 197.332 122.62 197.7C123.407 197.988 124.143 198.399 124.8 198.92C125.473 199.469 126.028 200.15 126.43 200.92C126.619 201.236 126.773 201.571 126.89 201.92C127.26 203.27 126.96 203.74 126.06 204.01C125.857 204.081 125.65 204.137 125.44 204.18C125.11 204.217 124.777 204.146 124.491 203.979C124.204 203.811 123.979 203.556 123.85 203.25C123.517 202.484 122.99 201.819 122.32 201.32C121.707 200.883 120.982 200.633 120.23 200.6C119.622 200.549 119.01 200.629 118.436 200.834C117.862 201.039 117.338 201.365 116.9 201.79L116.87 201.74Z" fill="#221F1F"/>
<path d="M61.9397 312.66C61.5752 313.153 61.3266 313.722 61.2124 314.325C61.0981 314.927 61.1211 315.548 61.2797 316.14C61.4278 316.563 61.6514 316.956 61.9397 317.3C62.8197 318.63 64.8097 319.39 66.9397 319.46C67.888 319.486 68.8349 319.371 69.7497 319.12C70.9213 318.7 72.13 318.392 73.3597 318.2C74.1797 318.2 74.2497 321.41 72.6797 321.9C71.2931 322.328 69.8589 322.584 68.4097 322.66C66.8715 322.748 65.3312 322.527 63.8797 322.01C62.9575 321.674 62.0672 321.255 61.2197 320.76C60.3218 320.218 59.5619 319.475 58.9997 318.59C58.4396 317.632 58.1117 316.555 58.0423 315.447C57.9728 314.34 58.1637 313.231 58.5997 312.21C59.1153 310.943 60.0416 309.887 61.2297 309.21C61.696 308.95 62.2033 308.77 62.7297 308.68C63.2537 308.605 63.7857 308.605 64.3097 308.68C64.8719 308.77 65.4076 308.982 65.8797 309.3C66.342 309.638 66.7187 310.08 66.9797 310.59C67.3719 311.342 67.5615 312.183 67.5297 313.03C67.5131 313.948 67.1852 314.833 66.5997 315.54C66.3231 315.881 65.9836 316.166 65.5997 316.38C65.3455 316.538 65.059 316.638 64.7613 316.671C64.4636 316.704 64.1623 316.669 63.8797 316.57C63.7151 316.485 63.5775 316.355 63.4821 316.197C63.3868 316.038 63.3375 315.855 63.3397 315.67C63.3251 315.47 63.3251 315.27 63.3397 315.07C63.4448 314.535 63.744 314.058 64.1797 313.73C64.3175 313.591 64.3993 313.406 64.4097 313.21C64.4325 312.997 64.4325 312.783 64.4097 312.57C64.3927 312.369 64.3312 312.174 64.2297 312C64.1856 311.941 64.1314 311.89 64.0697 311.85C63.9467 311.837 63.8227 311.837 63.6997 311.85C63.4993 311.846 63.2997 311.876 63.1097 311.94C62.6704 312.095 62.2967 312.395 62.0497 312.79L61.9397 312.66Z" fill="#221F1F"/>
<path d="M178.49 317.37C178.964 316.306 179.275 315.177 179.41 314.02C179.47 313.58 179.41 313.14 179.41 312.71C179.44 312.157 179.44 311.603 179.41 311.05C179.41 310.79 179.41 310.53 179.32 310.3C179.296 310.144 179.259 309.99 179.21 309.84C179.105 309.639 178.931 309.483 178.72 309.4C178.497 309.311 178.256 309.278 178.018 309.302C177.779 309.327 177.55 309.408 177.35 309.54C176.8 309.89 176.62 310.45 176.05 311.01C175.86 311.17 175.05 310.94 174.42 310.39C174.057 310.157 173.797 309.794 173.693 309.376C173.589 308.958 173.649 308.516 173.86 308.14C175.47 305.8 179.53 305.03 181.62 307.9C181.818 308.235 181.973 308.595 182.08 308.97C182.26 309.81 182.34 310.47 182.43 311.17C182.525 311.832 182.561 312.501 182.54 313.17C182.473 314.634 182.214 316.083 181.77 317.48C181.482 318.357 181.096 319.199 180.62 319.99C179.861 321.29 178.678 322.29 177.27 322.82C176.183 323.248 175.014 323.426 173.85 323.34C173.605 323.334 173.36 323.307 173.12 323.26C172.22 323.06 172.05 322.7 172.21 321.86C172.242 321.668 172.286 321.477 172.34 321.29C172.414 321.017 172.571 320.774 172.79 320.595C173.009 320.416 173.278 320.309 173.56 320.29C174.23 320.273 174.898 320.21 175.56 320.1C176.021 320.017 176.458 319.833 176.84 319.56C177.551 318.987 178.085 318.224 178.38 317.36L178.49 317.37Z" fill="#221F1F"/>
<path d="M138.86 282.18C140.04 278.18 143.08 273.18 146.51 270.74C146.844 270.502 147.195 270.288 147.56 270.1C147.23 270.26 146.84 269.73 147.17 269.96C147.486 270.201 147.754 270.5 147.96 270.84C149.34 273.06 148.52 276.22 147.87 278.5C147.45 279.98 151.26 279.5 151.65 278.08C152.8 274.02 153.02 265.97 146.58 268.16C141.09 270.03 136.58 277.3 135.08 282.6C134.65 284.06 138.46 283.6 138.86 282.18Z" fill="#221F1F"/>
<path d="M111.43 296.49C117.43 298.95 124.17 298.32 130.29 296.71C130.78 296.58 133.29 295.86 132.94 295C132.59 294.14 130.32 294.7 129.79 294.84C125.311 296.138 120.527 295.913 116.19 294.2C114.89 293.67 109.67 295.77 111.43 296.49Z" fill="#221F1F"/>
<path d="M161.999 304.58C159.869 305.87 158.799 302.7 158.949 301.23C159.024 300.639 159.274 300.084 159.666 299.635C160.057 299.186 160.574 298.864 161.149 298.71C163.919 298.21 163.519 303.66 161.999 304.58Z" fill="#221F1F"/>
<path d="M415 321.74H503C504.27 321.74 509.57 319.31 506.74 319.31H418.74C417.47 319.31 412.17 321.74 415 321.74Z" fill="#221F1F"/>
<path d="M185.4 322.19H275.64C277.84 322.19 281.09 318.87 277.57 318.87H187.33C185.13 318.87 181.89 322.19 185.4 322.19Z" fill="#221F1F"/>
<path d="M14.1798 322.1H51.9998C54.0798 322.1 57.4898 318.96 53.9998 318.96H16.1598C14.0798 318.96 10.6698 322.1 14.1598 322.1H14.1798Z" fill="#221F1F"/>
<path d="M311.47 143.18C307.109 145.656 302.203 147.013 297.19 147.13C294.638 147.137 292.103 146.7 289.7 145.84C287.324 144.942 285.114 143.654 283.16 142.03C280.38 139.678 278.093 136.799 276.43 133.56C275.021 130.75 273.963 127.778 273.28 124.71C272.586 121.687 272.197 118.601 272.12 115.5C272.03 113.96 272.12 112.43 272.12 110.89C272.12 109.35 272.29 107.82 272.51 106.3C272.61 105.54 272.69 104.78 272.8 104.02L273.2 101.76C273.31 101.01 273.48 100.26 273.65 99.51C273.82 98.76 273.98 98.02 274.18 97.28C275.52 92.04 277.18 86.93 278.84 81.89C279.84 78.65 280.9 75.41 281.84 72.17C282.83 69.0106 283.598 65.7861 284.14 62.52C284.3 60.61 285.14 60.68 285.88 62.59C286.62 64.5 286.68 68.13 285.57 71.97C283.57 78.76 281.18 85.26 279.1 91.82C278.029 95.0499 277.131 98.3346 276.41 101.66C275.74 104.992 275.309 108.367 275.12 111.76C274.908 115.881 275.279 120.012 276.22 124.03C277.141 128.047 278.807 131.856 281.13 135.26C282.409 137.069 283.933 138.692 285.66 140.08C287.395 141.413 289.352 142.429 291.44 143.08C295.73 144.363 300.319 144.233 304.53 142.71C309.853 140.818 314.73 137.854 318.86 134C325.309 128.188 330.693 121.295 334.77 113.63C335.36 112.5 335.93 111.36 336.45 110.21C336.71 109.63 336.97 109.05 337.2 108.47L337.39 108.02L337.64 107.38L338.13 106.06L340.39 105.98C340.886 105.975 341.38 105.935 341.87 105.86C342.84 105.744 343.802 105.567 344.75 105.33C346.593 104.843 348.332 104.023 349.88 102.91C350.407 102.52 350.902 102.089 351.36 101.62C351.798 101.143 352.196 100.632 352.55 100.09C353.493 98.671 354.126 97.0697 354.41 95.39C354.56 94.84 354.61 94.39 354.74 94C354.855 93.6583 354.992 93.3243 355.15 93C355.277 92.6988 355.428 92.408 355.6 92.13C355.88 91.79 356.24 92.13 356.66 93.19C357.181 94.8457 357.213 96.6169 356.75 98.29C356.229 100.129 355.333 101.84 354.118 103.315C352.903 104.79 351.395 105.997 349.69 106.86C348.016 107.744 346.22 108.374 344.36 108.73C343.442 108.921 342.514 109.058 341.58 109.14C341.35 109.155 341.12 109.155 340.89 109.14H340.38H340.31C340.316 109.166 340.316 109.194 340.31 109.22V109.34L340.1 109.84C339.82 110.51 339.51 111.17 339.21 111.84C338.59 113.15 337.94 114.46 337.21 115.73C335.81 118.291 334.278 120.778 332.62 123.18C329.849 127.163 326.712 130.88 323.25 134.28C319.766 137.751 315.839 140.747 311.57 143.19L311.47 143.18Z" fill="#221F1F"/>
<path d="M319.7 185.66C317.921 186.391 316.089 186.986 314.22 187.44C313.565 187.65 312.896 187.817 312.22 187.94C309.807 188.331 307.357 188.438 304.92 188.26L301.71 188.13C300.309 188.183 298.914 187.92 297.63 187.36C297.19 187.12 297.56 186.36 298.09 185.68C298.62 185 299.36 184.37 300.04 184.48C302.48 184.86 304.97 185.12 307.56 185.32C308.345 185.37 309.133 185.329 309.91 185.2C310.69 185.1 311.46 184.85 312.24 184.73C313.944 184.373 315.616 183.878 317.24 183.25L318 183L318.74 182.65L320.2 181.93C320.576 181.762 320.938 181.561 321.28 181.33L322.33 180.67L323.38 180C323.712 179.756 324.029 179.492 324.33 179.21C325.285 178.375 326.143 177.436 326.89 176.41C327.07 176.19 327.21 175.95 327.4 175.74C328.08 174.97 328.47 174.89 329.26 175.3C329.44 175.4 329.63 175.48 329.8 175.59C329.937 175.685 330.052 175.809 330.139 175.951C330.226 176.094 330.282 176.253 330.304 176.419C330.325 176.585 330.312 176.753 330.265 176.913C330.218 177.074 330.138 177.222 330.03 177.35C329.71 177.87 329.36 178.35 329.03 178.9C328.669 179.42 328.253 179.899 327.79 180.33C327.33 180.78 326.85 181.21 326.37 181.64C325.89 182.081 325.375 182.482 324.83 182.84C324.03 183.39 323.22 183.92 322.39 184.43L319.78 185.76L319.7 185.66Z" fill="#221F1F"/>
<path d="M272.84 281.1C273.36 278.72 273.71 276.3 274.14 273.9C274.57 271.5 274.91 269.07 275.26 266.65C275.52 264.89 275.67 263.11 275.88 261.34C276.72 255.11 277.36 248.84 277.88 242.56C278.07 239.78 278.19 236.97 278.22 234.19C278.28 230.63 278.11 227.05 278.46 223.51C278.66 221.29 281.8 224.08 281.76 228.26C281.69 235.618 281.176 242.964 280.22 250.26C279.91 252.45 279.7 254.7 279.5 256.95C279.3 259.2 279.03 261.48 278.79 263.72L277.79 271.11C277.42 273.57 276.97 276.01 276.57 278.47C276.05 281.47 275.39 284.47 274.83 287.47C274.323 289.73 273.807 291.99 273.28 294.25C272.78 296.52 272.11 298.74 271.57 300.97C271.36 301.84 271.16 302.71 270.95 303.57C270.74 304.43 270.48 305.29 270.25 306.14C269.78 307.85 269.37 309.57 268.86 311.28C268.61 312.02 268.4 312.76 268.13 313.5C267.13 316.26 266.59 317.06 265.58 317.31C265.36 317.39 265.132 317.443 264.9 317.47C264.19 317.47 264.11 316.16 264.67 314.14C265.08 312.64 265.56 311.14 266.01 309.62C266.46 308.1 266.82 306.53 267.26 304.97C267.48 304.2 267.71 303.42 267.93 302.64C268.15 301.86 268.33 301.06 268.52 300.26C268.93 298.68 269.33 297.08 269.74 295.49C270.31 293.11 270.81 290.71 271.36 288.32C271.91 285.93 272.31 283.49 272.79 281.08L272.84 281.1Z" fill="#221F1F"/>
<path d="M356.79 272.92L357.05 267.86L357.22 262.79C357.22 261.56 357.22 260.33 357.22 259.1C357.31 254.75 357.37 250.4 357.28 246.05C357.28 244.12 357.1 242.18 356.94 240.28C356.602 237.834 356.428 235.369 356.42 232.9C356.42 231.98 357.23 232.21 358 232.76C358.489 233.136 358.896 233.609 359.194 234.149C359.491 234.689 359.674 235.286 359.73 235.9C360.19 240.966 360.311 246.058 360.09 251.14C359.95 254.2 360.14 257.37 360.09 260.49C360.05 263.917 359.95 267.347 359.79 270.78C359.71 272.89 359.58 274.99 359.46 277.1C359.32 280.29 359.01 283.49 358.87 286.65C358.7 289.11 358.77 291.54 358.65 293.98C358.65 294.52 358.65 295.05 358.59 295.59C358.45 297.59 358.19 298.21 357.37 298.59C357.189 298.678 357.002 298.751 356.81 298.81C356.19 298.94 355.81 298.07 355.74 296.61C355.64 292.25 355.93 287.72 356.18 283.15C356.38 279.76 356.57 276.35 356.72 272.95L356.79 272.92Z" fill="#221F1F"/>
<path d="M288.329 80.2C289.139 80.79 289.57 81.25 289.19 81.55C288.97 81.72 289.06 82.01 288.98 82.24C288.444 83.6437 288.186 85.1379 288.22 86.64C288.29 87.17 288.509 87.4 288.649 87.45C288.666 87.4457 288.683 87.4457 288.7 87.45H288.79C288.86 87.45 288.88 87.5 288.98 87.45C289.08 87.4 289.32 87.45 289.48 87.45C289.841 87.3794 290.183 87.2291 290.48 87.0099C290.891 86.729 291.261 86.3925 291.579 86.0099C292.247 85.0889 292.782 84.0792 293.17 83.0099C293.38 82.4599 293.669 81.9299 293.839 81.3699C293.879 81.1622 293.899 80.9514 293.899 80.74C293.898 80.6948 293.91 80.6501 293.933 80.6112C293.956 80.5723 293.989 80.5407 294.03 80.52C294.641 80.353 295.29 80.3881 295.88 80.6199C296.43 80.8199 296.79 81.08 296.73 81.33C296.463 82.4422 296.102 83.5295 295.649 84.58C295.479 85 295.35 85.4499 295.14 85.8699C294.775 86.5211 294.346 87.1342 293.859 87.7C293.112 88.6922 292.129 89.4827 291 90C290.647 90.1589 290.273 90.2666 289.89 90.32C289.498 90.3798 289.101 90.3798 288.709 90.32C288.28 90.2912 287.858 90.1933 287.459 90.03C287.024 89.8299 286.636 89.5402 286.32 89.1799C286.117 88.9709 285.948 88.7314 285.82 88.47C285.69 88.2372 285.593 87.9884 285.53 87.73C285.328 87.0493 285.246 86.3386 285.29 85.63C285.317 85.0092 285.387 84.391 285.5 83.78C285.716 82.5835 286.016 81.4038 286.399 80.25C286.42 80.1634 286.457 80.0817 286.51 80.0099C286.79 79.7799 286.999 79.8 288.329 80.2Z" fill="black"/>
<path d="M307.67 83.22C308.49 83.81 308.96 84.16 308.62 84.47C308.28 84.78 308.54 84.92 308.49 85.14C308.179 86.6928 308.085 88.2813 308.21 89.86C308.26 90.3703 308.417 90.8643 308.67 91.31C308.67 91.31 308.67 91.31 308.73 91.31C308.79 91.31 308.9 91.31 309.01 91.31C309.12 91.3002 309.23 91.3002 309.34 91.31C309.448 91.2673 309.558 91.2306 309.67 91.2C309.786 91.1253 309.906 91.0585 310.03 91C310.443 90.7376 310.817 90.4177 311.14 90.05C311.841 89.1178 312.438 88.1119 312.92 87.05C313.21 86.49 313.57 85.95 313.92 85.36C314.03 85.14 314.08 84.87 314.19 84.63C314.208 84.574 314.238 84.5226 314.277 84.4794C314.317 84.4361 314.366 84.4022 314.42 84.38C314.8 84.25 315.54 84.62 316.12 85.14C316.7 85.66 316.83 85.84 316.73 86.01C316.26 86.86 315.8 87.85 315.3 88.82C315.1 89.21 314.96 89.66 314.73 90.05C314.346 90.6835 313.908 91.2824 313.42 91.84C312.637 92.8217 311.599 93.569 310.42 94L309.8 94.17H309.15C308.938 94.2003 308.722 94.2003 308.51 94.17H308.19L307.8 94.1C307.367 93.9344 306.973 93.6797 306.644 93.3524C306.315 93.0252 306.058 92.6326 305.89 92.2C305.719 91.7845 305.591 91.3521 305.51 90.91C305.302 89.6951 305.235 88.4603 305.31 87.23C305.346 85.9744 305.503 84.7252 305.78 83.5C305.798 83.4002 305.835 83.3049 305.89 83.22C306.13 82.82 306.32 82.82 307.67 83.22Z" fill="black"/>
<path d="M294.409 90.83C291.019 92.59 286.629 94.94 284.689 98.37C281.689 103.71 290.539 103.25 293.399 103C295.249 102.84 296.169 100.5 293.779 100.71C292.239 100.85 290.109 101.21 288.629 100.71C286.969 100.15 287.839 98.65 288.709 97.71C290.789 95.622 293.215 93.91 295.879 92.65C297.989 91.55 296.079 89.99 294.409 90.86V90.83Z" fill="black"/>
<path d="M291.69 119.7C291.315 119.797 290.934 119.871 290.55 119.92C290.137 119.95 289.723 119.95 289.31 119.92C288.989 119.897 288.671 119.843 288.36 119.76C287.85 119.554 287.388 119.246 287.002 118.853C286.617 118.461 286.317 117.994 286.12 117.48C285.961 117.112 285.833 116.73 285.74 116.34C285.628 115.856 285.652 115.351 285.81 114.88C285.87 114.73 285.81 114.76 285.88 114.88C286.078 115.029 286.285 115.166 286.5 115.29C287.142 115.617 287.732 116.039 288.25 116.54C288.292 116.601 288.347 116.651 288.411 116.687C288.475 116.724 288.547 116.745 288.62 116.75H288.83C288.909 116.735 288.991 116.735 289.07 116.75C289.26 116.798 289.454 116.829 289.65 116.84C289.886 116.86 290.124 116.86 290.36 116.84C290.697 116.835 291.032 116.795 291.36 116.72C291.889 116.635 292.406 116.488 292.9 116.28C293.092 116.201 293.277 116.104 293.45 115.99C293.639 115.891 293.837 115.807 294.04 115.74L294.32 115.65C294.525 115.612 294.732 115.592 294.94 115.59H294.99C294.919 115.715 294.865 115.85 294.83 115.99C294.65 116.4 294.51 116.89 294.33 117.37C294.126 117.808 293.853 118.21 293.52 118.56C293.021 119.089 292.414 119.505 291.74 119.78L291.69 119.7Z" fill="black"/>
<path d="M292.36 69.4C293.002 69.3492 293.64 69.2556 294.27 69.12C294.527 69.0748 294.781 69.0113 295.03 68.93C295.242 68.8471 295.459 68.777 295.68 68.72C295.965 68.6332 296.262 68.5894 296.56 68.59C296.995 68.5646 297.432 68.5949 297.86 68.68C298.112 68.7912 298.384 68.8491 298.66 68.85C298.91 68.85 299.12 68.85 299.19 68.91C299.549 68.8072 299.93 68.8072 300.29 68.91C300.695 69.0468 301.045 69.3096 301.29 69.66C301.61 70.19 302.08 69.95 302.5 69.66C303.35 69.02 303.36 69.04 303.66 68.53C303.96 68.02 303.94 68.01 303.94 68.01C303.515 67.8088 303.126 67.5385 302.79 67.21L301.47 66.45C300.906 66.1901 300.324 65.9696 299.73 65.79C298.4 65.4397 297.018 65.3279 295.65 65.46C294.424 65.5924 293.219 65.871 292.06 66.29C291.363 66.4694 290.691 66.7348 290.06 67.08C289.6 67.17 289.17 67.8 288.74 67.92C288 68.11 287.82 68.2 288.4 69.1C288.63 69.58 288.99 70.01 289.11 69.98C289.5 70.47 289.59 70.45 289.95 70.21C290.665 69.7274 291.498 69.4475 292.36 69.4Z" fill="#161616"/>
<path d="M314.46 71.74C315.39 71.91 316.2 72.02 316.78 72.11L317.71 72.22C317.71 72.22 317.98 72.22 318.52 72.3C319.38 72.4588 320.185 72.8339 320.86 73.39C321.28 73.92 322.01 74.24 322.11 74.45C322.565 74.6569 322.961 74.9768 323.258 75.3793C323.556 75.7818 323.746 76.2536 323.81 76.75C323.9 77.52 324.41 77.61 324.94 77.56C325.99 77.45 325.99 77.46 326.5 77.14C327.01 76.82 327 76.8 327 76.8C326.735 76.3297 326.511 75.838 326.33 75.33C325.79 74.1007 325.046 72.9715 324.13 71.99C322.951 70.7517 321.479 69.8301 319.85 69.31C318.391 68.8547 316.867 68.6452 315.34 68.69C314.464 68.6315 313.584 68.6819 312.72 68.84C312.18 68.79 311.44 69.28 310.93 69.26C310.42 69.24 310.25 69.26 310.28 69.31C310.31 69.36 310.21 69.66 310.18 70.17C310.15 70.68 309.99 71.32 310.29 71.33C310.47 71.95 310.74 71.95 311.29 71.83C312.327 71.57 313.409 71.5393 314.46 71.74Z" fill="#161616"/>
<path d="M259.69 33.28C259.826 36.2298 260.529 39.1259 261.76 41.81C262.876 44.4695 264.281 46.9981 265.95 49.35C267.592 51.6861 269.581 53.7568 271.85 55.49C274.226 57.2408 276.839 58.6449 279.61 59.66C276.466 59.7596 273.354 58.9989 270.61 57.46C267.802 55.9072 265.387 53.7315 263.55 51.1C261.693 48.5219 260.336 45.6184 259.55 42.54C259.155 41.016 258.927 39.4534 258.87 37.88C258.811 36.3056 259.09 34.7369 259.69 33.28Z" fill="#221F1F"/>
<path d="M339.68 49.75C339.507 48.9012 339.63 48.0186 340.03 47.25C340.23 46.8554 340.471 46.4832 340.75 46.14C341.03 45.8081 341.334 45.4973 341.66 45.21C342.991 44.1169 344.565 43.359 346.25 43C347.91 42.6286 349.629 42.6013 351.3 42.92C352.959 43.198 354.505 43.94 355.76 45.06C354.248 44.6826 352.698 44.4846 351.14 44.47C349.647 44.4681 348.158 44.6291 346.7 44.95C345.256 45.2565 343.865 45.7719 342.57 46.48C341.221 47.1564 340.185 48.328 339.68 49.75Z" fill="#221F1F"/>
<path d="M84.5202 367C80.6602 364.24 89.1102 361.9 92.3702 361.13C93.3702 364.18 95.0102 366.81 97.8902 366.81C98.8651 367.076 99.8953 367.06 100.862 366.764C101.828 366.469 102.691 365.906 103.35 365.14C105.09 370 87.6802 369.25 84.5202 367Z" fill="#221F1F"/>
<path d="M144.05 364.62C144.51 368.98 128.17 368.17 125.12 366C121.12 363.18 130.12 360.79 133.12 360.07C134.03 362.83 135.78 365.57 139.12 365.94C139.986 366.154 140.893 366.145 141.755 365.914C142.617 365.683 143.406 365.238 144.05 364.62Z" fill="#221F1F"/>
<path d="M73.4495 314C73.4495 312.84 73.7095 311.69 73.8295 310.54C73.9495 309.39 74.1895 308.25 74.4895 307.13C74.9979 304.863 75.6833 302.64 76.5395 300.48C77.405 298.309 78.452 296.215 79.6695 294.22C80.9246 292.218 82.3751 290.346 83.9995 288.63C85.6759 286.925 87.5727 285.452 89.6395 284.25C90.1695 283.97 90.6395 283.66 91.2295 283.4L93.2295 282.56C93.3409 282.504 93.4583 282.46 93.5795 282.43L93.9495 282.5L94.6895 282.65L95.5095 282.81L97.1295 283.11C101.47 283.88 105.84 284.49 110.21 284.98C116.592 285.667 123.01 285.981 129.43 285.92H132.06C132.94 285.92 133.81 285.83 134.69 285.78C135.57 285.73 136.44 285.7 137.31 285.63L139.91 285.35C141.66 285.22 143.36 284.86 145.08 284.59C145.935 284.456 146.783 284.276 147.62 284.05L149.62 283.56L150.92 281.65C151.48 280.85 152.04 280.07 152.63 279.3C153.8 277.75 155.01 276.23 156.32 274.78C157.633 273.297 159.061 271.92 160.59 270.66C162.218 269.217 164.216 268.254 166.36 267.88C166.989 267.819 167.624 267.863 168.24 268.01C168.55 268.09 168.83 268.25 169.24 268.36C169.596 268.459 169.911 268.669 170.14 268.96C170.384 269.243 170.58 269.564 170.72 269.91C170.79 270.07 170.84 270.28 170.9 270.47C170.947 270.62 170.98 270.774 171 270.93C171 271.21 171.09 271.5 171.12 271.77V272.57C171.091 274.561 170.863 276.544 170.44 278.49C170.07 280.4 169.62 282.28 169.11 284.13C168.85 285.06 168.61 285.99 168.33 286.91L167.62 289.26L168.02 290.34C169.766 295.168 171.183 300.11 172.26 305.13C173.37 310.142 173.999 315.248 174.14 320.38C174.223 323.706 173.952 327.032 173.33 330.3C172.709 333.631 171.529 336.833 169.84 339.77C168.084 342.734 165.693 345.271 162.84 347.2C159.98 349.019 156.816 350.31 153.5 351.01C149.38 351.76 149.91 350.81 153.01 349.33C154.55 348.57 156.66 347.47 159.01 346.02C161.555 344.304 163.798 342.179 165.65 339.73C165.973 339.34 166.261 338.922 166.51 338.48L167.3 337.19L167.96 335.81L168.3 335.12L168.56 334.39L169.1 332.94L169.52 331.44C169.83 330.44 169.97 329.39 170.19 328.37C170.829 324.13 170.943 319.828 170.53 315.56C170.13 311.21 169.411 306.895 168.38 302.65C167.86 300.51 167.283 298.387 166.65 296.28C166.33 295.23 165.99 294.18 165.65 293.14L165.11 291.59L164.83 290.82L164.28 289.42L165.4 285.71C165.71 284.71 165.97 283.71 166.26 282.71C166.8 280.71 167.26 278.65 167.64 276.63C167.828 275.639 167.955 274.637 168.02 273.63V272.9V272.23C168.011 272.022 167.991 271.815 167.96 271.61C167.967 271.523 167.967 271.436 167.96 271.35C167.949 271.294 167.923 271.243 167.884 271.202C167.845 271.161 167.795 271.133 167.74 271.12C167.622 271.066 167.497 271.029 167.37 271.01C167.223 270.972 167.071 270.955 166.92 270.96C166.112 271.006 165.328 271.242 164.63 271.65C161.986 273.29 159.645 275.374 157.71 277.81C156.65 279.04 155.64 280.33 154.71 281.65C154.22 282.32 153.71 282.99 153.27 283.65L152.58 284.65L152.15 285.3L151.59 286.19L147.49 287.19C146.898 287.352 146.297 287.479 145.69 287.57L143.88 287.88L142.07 288.2L140.25 288.4C139.03 288.52 137.82 288.71 136.6 288.77C131.751 289.123 126.886 289.196 122.03 288.99C113.013 288.58 104.035 287.551 95.1595 285.91L94.3295 285.75L94.0995 285.7C94.0495 285.7 93.9895 285.7 93.9395 285.7L92.7895 286.19C92.3095 286.39 91.8695 286.69 91.3995 286.93C90.9336 287.174 90.4858 287.452 90.0595 287.76C88.257 288.942 86.628 290.369 85.2195 292C82.4125 295.299 80.2607 299.104 78.8795 303.21C78.0179 305.744 77.3886 308.352 76.9995 311C76.6201 313.649 76.4629 316.325 76.5295 319C76.607 321.692 76.9418 324.371 77.5295 327C78.0664 329.632 78.8706 332.202 79.9295 334.67C81.2187 337.715 82.8778 340.59 84.8695 343.23C85.3559 343.897 85.8766 344.537 86.4295 345.15C86.9795 345.76 87.4895 346.41 88.0995 346.97C88.7095 347.53 89.2495 348.14 89.8795 348.68L91.9995 350.59C91.9995 351.1 91.9995 351.72 91.9995 352.11L92.0695 353.18C92.0695 353.89 92.1895 354.61 92.2795 355.31C92.4553 356.712 92.7361 358.1 93.1195 359.46C93.4622 360.767 94.0271 362.005 94.7895 363.12C95.1027 363.624 95.5324 364.045 96.0423 364.347C96.5522 364.65 97.1274 364.826 97.7195 364.86C97.8842 364.873 98.0479 364.896 98.2095 364.93C99.0112 365.114 99.8479 365.076 100.63 364.82C101.41 364.557 102.102 364.083 102.63 363.45C102.892 363.11 103.136 362.757 103.36 362.39C103.54 361.98 103.75 361.6 103.91 361.18L104.31 359.87L104.57 358.5C104.653 358.064 104.706 357.623 104.73 357.18L104.85 355.76C104.85 355.09 104.85 354.43 104.85 353.76V351.91V351.85C105.63 352.13 106.45 352.44 107.24 352.67C107.64 352.79 108.03 352.93 108.43 353.02L109.32 353.25C110.39 353.49 111.47 353.7 112.55 353.86C114.703 354.188 116.881 354.331 119.06 354.29C121.219 354.272 123.372 354.051 125.49 353.63C126.556 353.431 127.611 353.174 128.65 352.86C129.04 352.78 130 352.42 130.81 352.14L132.06 351.7L132.69 351.48L133 351.37L133.16 351.32H133.27L133.38 353.79C133.38 354.21 133.46 354.58 133.5 354.98C133.5 355.17 133.5 355.4 133.57 355.55L133.63 355.9C133.788 356.803 134.015 357.692 134.31 358.56C134.676 359.728 135.263 360.814 136.04 361.76C136.734 362.59 137.689 363.161 138.75 363.38L139.2 363.48H139.26H139.44C139.634 363.519 139.831 363.542 140.03 363.55C140.249 363.57 140.47 363.57 140.69 363.55C140.9 363.55 141.09 363.47 141.29 363.45L141.83 363.26C142.463 362.962 143.01 362.508 143.42 361.94C143.607 361.662 143.781 361.375 143.94 361.08C144.08 360.78 144.21 360.48 144.33 360.21C144.5 359.59 144.73 359.06 144.83 358.53C144.93 358 145.05 357.53 145.17 357.09C145.29 356.65 145.31 356.24 145.39 355.88C145.58 355.14 145.73 354.54 145.9 353.99C146.037 353.475 146.211 352.97 146.42 352.48C146.72 351.95 147.06 352.73 147.42 354.69C147.499 355.25 147.542 355.814 147.55 356.38C147.55 356.7 147.55 357.04 147.55 357.38C147.55 357.72 147.55 358.12 147.47 358.51C147.384 360.47 146.739 362.365 145.61 363.97C144.83 365.019 143.759 365.816 142.53 366.26C142.229 366.389 141.913 366.48 141.59 366.53C141.261 366.605 140.926 366.648 140.59 366.66C140.257 366.681 139.923 366.681 139.59 366.66C139.229 366.633 138.872 366.58 138.52 366.5L138.8 366.55C137.223 366.372 135.733 365.739 134.51 364.73C133.398 363.739 132.505 362.526 131.89 361.17C131.292 359.915 130.849 358.592 130.57 357.23C130.47 356.7 130.37 356.18 130.26 355.65C130.26 355.65 130.13 355.7 130.08 355.72C130.03 355.74 130.2 355.72 129.42 355.92C128.314 356.249 127.193 356.519 126.06 356.73C123.753 357.183 121.41 357.417 119.06 357.43C116.717 357.464 114.375 357.3 112.06 356.94C110.9 356.76 109.73 356.53 108.57 356.26L107.91 356.1V356.01V356.12V356.41L107.8 357.58C107.646 359.208 107.29 360.81 106.74 362.35C106.086 364.145 104.908 365.702 103.36 366.82C102.926 367.108 102.468 367.355 101.99 367.56C101.502 367.738 101 367.871 100.49 367.96C99.4734 368.136 98.432 368.102 97.4295 367.86H97.2795H97.0295C96.8613 367.844 96.6943 367.817 96.5295 367.78C96.1873 367.717 95.8522 367.62 95.5295 367.49C94.8966 367.246 94.3035 366.909 93.7695 366.49C92.8394 365.728 92.0681 364.79 91.4995 363.73C90.4505 361.73 89.7377 359.571 89.3895 357.34C89.1995 356.28 89.0595 355.23 88.9595 354.17C88.8995 353.64 88.8595 353.11 88.8295 352.58V351.98L88.5795 351.77L87.5795 350.88C86.8895 350.27 86.2595 349.61 85.5795 348.98C84.2993 347.666 83.1067 346.27 82.0095 344.8C79.8132 341.867 78.0018 338.664 76.6195 335.27C73.9307 328.52 72.8191 321.245 73.3695 314H73.4495Z" fill="#221F1F"/>
<path d="M383.16 322.2C387.77 321.54 392.36 320.76 396.88 319.73C401.363 318.76 405.748 317.381 409.98 315.61L411.53 314.92L413.01 314.13C413.98 313.604 414.921 313.027 415.83 312.4C416.29 312.1 416.68 311.73 417.11 311.4C417.541 311.083 417.939 310.725 418.3 310.33C418.66 309.95 419.06 309.55 419.38 309.19L419.69 308.72C419.78 308.52 419.86 308.33 419.96 308.13C420.52 306.113 420.659 304.003 420.37 301.93C420.132 299.668 419.748 297.423 419.22 295.21C417.528 288.634 415.424 282.171 412.92 275.86C408.64 264.62 403.73 253.59 398.6 242.67C393.47 231.75 388 221 382.45 210.24C377.45 200.74 372.29 191.29 366.94 182.11C366.08 180.64 365.21 179.17 364.33 177.72C363.5 176.273 362.578 174.88 361.57 173.55C357.593 168.222 351.969 164.355 345.57 162.55C342.362 161.657 339.072 161.094 335.75 160.87C331.59 160.63 332.08 159.87 335.75 159.13C338.304 158.726 340.901 158.673 343.47 158.97C347.238 159.365 350.883 160.533 354.18 162.4C357.427 164.272 360.332 166.683 362.77 169.53C363.4 170.21 363.93 170.96 364.51 171.69C364.65 171.88 364.79 172.04 364.93 172.25C365.07 172.46 365.23 172.67 365.35 172.86L366.08 174.02C367.02 175.54 367.91 177.02 368.79 178.57C372.32 184.64 375.7 190.77 379.03 196.95C385.66 209.3 392.03 221.83 398.03 234.58C401.63 242.22 405.29 250.01 408.8 257.94C412.31 265.87 415.69 273.94 418.51 282.13C420.119 286.652 421.455 291.267 422.51 295.95C423.032 298.34 423.367 300.768 423.51 303.21C423.585 304.482 423.531 305.759 423.35 307.02C423.185 308.422 422.676 309.762 421.87 310.92C421.678 311.197 421.457 311.451 421.21 311.68L420.55 312.37L419.89 313.06L419.16 313.65C418.67 314.05 418.16 314.46 417.69 314.83L416.13 315.83C415.619 316.176 415.088 316.489 414.54 316.77L412.91 317.63C411.8 318.13 410.7 318.63 409.57 319.1C405.076 320.807 400.451 322.145 395.74 323.1C384.22 325.54 372.55 326.68 360.93 327.71C352.13 328.49 343.29 329.08 334.54 330.05C330.201 330.466 325.899 331.205 321.67 332.26C320.664 332.539 319.683 332.903 318.74 333.35C317.79 333.78 316.74 334.35 315.79 334.83C313.79 335.83 311.79 336.69 309.69 337.51C303.318 339.946 296.769 341.889 290.1 343.32C288.45 343.69 286.79 344.04 285.1 344.32C283.41 344.6 281.85 345.03 280.2 345.39C278.55 345.75 276.89 346.1 275.2 346.39C274.36 346.55 273.52 346.69 272.67 346.82L271.39 347H271.06L270.56 347.05C270.23 347.05 269.88 347.13 269.56 347.14C268.467 347.245 267.367 347.221 266.28 347.07C265.474 346.976 264.705 346.684 264.04 346.22C263.721 345.984 263.472 345.666 263.32 345.3C263.235 345.09 263.194 344.866 263.2 344.64C263.185 344.537 263.185 344.433 263.2 344.33C263.223 344.262 263.25 344.195 263.28 344.13C263.406 343.861 263.571 343.611 263.77 343.39C264 343.071 264.277 342.788 264.59 342.55C265.447 341.98 266.347 341.475 267.28 341.04L269.66 339.9L272.57 338.57C274.34 337.79 275.78 337.19 276.99 336.74C278.626 336.041 280.359 335.592 282.13 335.41C282.687 335.338 283.249 335.311 283.81 335.33C285.04 335.53 281.09 337.74 273.81 341.33L271.81 342.33C271.2 342.63 270.23 343.11 270.29 343.1C270.012 343.255 269.744 343.429 269.49 343.62C269.35 343.7 269.49 343.93 269.7 343.93C269.866 343.955 270.034 343.955 270.2 343.93L270.61 343.87H270.7L271.06 343.82L272.16 343.66C275.16 343.2 278.16 342.55 281.16 341.88C284.16 341.21 287.29 340.65 290.32 339.94C296.386 338.638 302.346 336.884 308.15 334.69C311.03 333.578 313.842 332.296 316.57 330.85C316.87 330.68 317.36 330.47 317.77 330.28C318.178 330.079 318.599 329.905 319.03 329.76C319.85 329.48 320.69 329.19 321.5 329C322.31 328.81 323.13 328.58 323.93 328.42C324.73 328.26 325.55 328.08 326.36 327.95C331.14 327.13 335.89 326.64 340.63 326.18C345.37 325.72 350.11 325.36 354.84 324.96C364.29 324.17 373.73 323.35 383.04 321.96L383.16 322.2Z" fill="#221F1F"/>
</svg>
