<svg width="128" height="128" viewBox="0 0 128 128" fill="none" xmlns="http://www.w3.org/2000/svg">
<g clip-path="url(#clip0_383_2899)">
<path d="M72.7198 49.64C72.8798 49.32 73.1398 49.04 73.3698 48.75C73.6298 48.48 73.9498 48.23 74.2298 47.97C74.3998 47.82 74.4598 47.79 74.5598 47.71L74.8398 47.51C75.0298 47.37 75.2198 47.24 75.3998 47.13C76.1398 46.65 76.8798 46.2 77.6298 45.78C79.1398 44.94 80.6798 44.18 82.2798 43.51C83.4598 43.05 84.6098 42.51 85.8898 42.2C86.9898 41.9 88.1598 41.71 89.3798 41.69C90.0098 41.72 90.6198 41.72 91.2798 41.9C91.9698 42.01 92.4398 42.28 93.0098 42.48C95.1698 43.41 96.9898 44.83 98.5798 46.38C99.9898 47.77 101.28 49.25 102.44 50.79C103.19 51.78 103.9 52.8 104.51 53.87C105.12 54.94 105.73 56.03 105.84 57.34C105.93 58.15 105.88 58.05 105.25 57.66C104.6 57.27 103.24 56.7 102.55 55.56C101.14 53.63 99.7998 51.69 98.2598 49.94C96.7398 48.18 95.0298 46.64 93.1098 45.47L92.2198 45C91.9098 44.87 91.5998 44.76 91.2798 44.64C90.9598 44.52 90.6998 44.52 90.4098 44.45C90.1098 44.41 89.7798 44.45 89.4698 44.43C88.1598 44.51 86.7498 44.87 85.3798 45.31C82.3598 46.29 79.3598 47.77 76.6498 49.52L76.0598 49.93L75.7498 50.16C75.5598 50.32 75.4198 50.53 75.2698 50.74C75.1498 50.95 74.9898 51.24 75.1498 51.47C75.3098 51.68 75.5998 51.7 75.8498 51.69C76.0498 51.69 76.2398 51.62 76.4398 51.58L76.7498 51.5L77.2398 51.36C77.9298 51.15 78.6998 50.9 79.4298 50.66C80.8998 50.16 82.3698 49.64 83.8198 49.09C84.5398 48.81 85.2498 48.53 85.9598 48.25L87.0298 47.82C87.4098 47.69 87.7098 47.51 88.3498 47.43C89.0098 47.43 89.3798 47.49 89.8698 47.57C90.3298 47.64 90.7598 47.75 91.1998 47.85C91.7298 47.99 92.2598 48.12 92.7798 48.31C94.7298 49 95.2798 49.76 95.2098 50.54C95.1998 50.72 95.1998 50.9 95.1498 51C95.0598 51.19 94.8298 51.18 94.4798 51.18C94.1198 51.18 93.6398 51.09 93.0198 50.86C92.2598 50.6 91.4498 50.37 90.6398 50.18C90.2298 50.09 89.8198 50 89.4198 49.94C89.2198 49.9 89.0298 49.88 88.8398 49.86L88.5798 49.84C88.4698 49.83 88.4398 49.84 88.4598 49.84C87.3998 50.25 86.3298 50.66 85.2498 51.07C84.0298 51.54 82.7798 52.01 81.5298 52.46L79.1298 53.3L77.8398 53.72L77.0498 53.98L75.8498 54.31C75.0898 54.42 74.3498 54.47 73.7398 54.29C73.1598 54.09 72.6498 53.81 72.2898 53.28C71.5398 52.16 71.7998 50.91 72.5998 49.62H72.6698L72.7198 49.64Z" fill="#231F20"/>
<path d="M46.3398 42.23C47.5698 41.84 48.8998 41.6 50.2698 41.56H50.7798C50.8698 41.56 50.9298 41.55 51.0598 41.56L51.4598 41.6C51.9398 41.68 52.2798 41.8 52.6098 41.92C53.2598 42.16 53.8298 42.44 54.3798 42.72C55.1898 43.13 55.9998 43.5 56.7498 43.97C59.3898 45.62 61.8498 47.49 64.1698 49.54C65.1898 50.46 66.2698 51.33 67.2098 52.38C67.7998 53.06 68.4498 53.74 68.8398 54.67C69.0198 55.14 69.1498 55.68 69.1098 56.27C69.1098 56.87 68.6698 57.47 68.2398 57.74C67.6298 58.05 67.7098 57.8 67.7998 57.31C67.8498 57.06 67.7698 56.71 67.5498 56.52C67.3098 56.3 67.0998 56.19 66.8398 55.93C66.7598 55.83 66.5898 55.71 66.4898 55.6C66.3998 55.47 66.2698 55.33 66.1698 55.2C65.9298 54.93 65.6798 54.65 65.3898 54.38L63.6298 52.73C62.4298 51.61 61.1198 50.52 59.8198 49.39C58.2598 48.04 56.3598 47.01 54.5398 46C53.5498 45.45 52.5098 44.9 51.5598 44.57C51.3298 44.49 51.1098 44.44 51.0198 44.42H50.2598C49.9998 44.42 49.7298 44.48 49.4698 44.5C49.1998 44.52 48.9398 44.57 48.6698 44.63C47.3598 44.9 46.0398 45.37 44.7598 45.96C42.8298 46.87 40.9098 47.94 39.0998 49.16C37.6898 50.09 36.4498 51.24 35.0598 52.2C34.7598 52.42 34.4698 52.65 34.1498 52.85C32.9398 53.54 32.4398 53.59 31.8698 53.25C31.7398 53.17 31.5998 53.12 31.4998 53.03C31.1798 52.77 31.4098 52.09 32.1198 51.33C34.1798 49.04 36.7798 47.23 39.5298 45.46C41.5998 44.18 43.7998 42.99 46.2998 42.17L46.3298 42.24L46.3398 42.23Z" fill="#231F20"/>
<path d="M113.37 102.66C113.47 103.03 113.5 103.4 113.38 103.76C113.33 103.94 113.24 104.12 113.1 104.24C112.95 104.36 112.77 104.41 112.63 104.38C112.44 104.36 112.5 104.24 112.65 104.18C112.92 104.04 112.82 103.69 112.71 103.33C112.71 103.23 112.43 102.26 111.99 101.13C111.78 100.56 111.55 99.95 111.39 99.34C111.31 98.98 111.19 98.37 111.3 98C111.38 97.6 111.6 97.34 111.83 97.18C112.29 96.87 112.89 96.93 113.45 97.12C113.71 97.21 113.98 97.48 114.17 97.66L114.56 98.06L115.91 99.53L116.32 99.97H116.33C116.31 99.93 116.33 100.01 116.3 99.89L115.78 98.23C115.69 97.93 115.61 97.63 115.55 97.31L115.5 97.06C115.46 96.93 115.46 96.77 115.43 96.63C115.4 96.35 115.33 96.04 115.35 95.79C115.23 93.95 116.58 92.9 117.84 94.02C118.18 94.31 118.54 94.64 118.88 94.95L119.52 95.54L120.09 96.04L120.37 96.28L120.42 96.31C120.42 96.31 120.5 96.38 120.51 96.31C120.52 96.27 120.55 96.21 120.51 96.17V96.15C120.45 96.06 120.41 95.97 120.36 95.89C120.28 95.73 120.2 95.57 120.13 95.42C119.83 94.82 119.64 94.3 119.58 94.1C119.54 94 119.47 93.75 119.43 93.55L119.29 92.93C119.22 92.53 119.22 92.15 119.21 91.78C119.27 91.08 119.44 90.48 119.83 90.11C120.04 89.92 120.37 89.77 120.64 89.75C120.92 89.73 121.18 89.78 121.46 89.88C122.01 90.07 122.61 90.6 123.14 91.15L123.58 91.6C123.67 91.7 123.75 91.8 123.8 91.92C124.04 92.45 124.43 92.82 124.79 93.2C125.02 93.46 125.3 93.72 125.47 93.82C125.49 93.83 125.49 93.83 125.5 93.84C125.5 93.8 125.49 93.97 125.5 93.99C125.5 94.01 125.52 94.06 125.5 94.02L125.41 93.92H125.42C125.42 93.92 125.47 93.94 125.48 93.8C125.48 93.54 125.35 93.13 125.32 92.69C125.33 92.27 125.53 92.51 125.57 92.61C125.71 92.93 125.72 92.63 125.8 92.61C125.82 92.6 125.85 92.58 125.88 92.59C125.88 92.59 125.97 92.78 126.2 93.17C126.29 93.38 126.49 93.61 126.45 94.15C126.43 94.29 126.38 94.42 126.3 94.55C126.22 94.67 126.16 94.76 125.98 94.88C125.65 95.09 125.27 95.05 125.05 94.99C124.6 94.86 124.31 94.67 124.03 94.5C123.75 94.33 123.52 94.15 123.33 93.99C122.93 93.67 122.66 93.43 122.57 93.34C122.56 93.33 122.48 93.25 122.34 93.12C122.28 93.07 122.22 93 122.14 92.93C122.12 92.91 122.1 92.89 122.07 92.87C121.97 92.81 121.84 92.67 121.73 92.77C121.69 92.94 121.76 93.08 121.8 93.15C121.78 93.08 121.95 93.49 122.03 93.65C122.13 93.85 122.2 94 122.24 94.07C122.42 94.41 122.52 94.67 122.71 95.15C122.66 95.23 124.45 97.81 123.27 98.99C122.59 99.78 121.94 99.72 121.2 99.47C120.45 99.15 119.85 98.64 119.78 98.59C118.78 97.77 118.59 97.56 118.15 97.15L117.86 96.86L117.72 96.71C117.72 96.71 117.61 96.6 117.63 96.61C117.61 96.57 117.63 96.56 117.62 96.5C117.61 96.45 117.59 96.44 117.58 96.44C117.55 96.4 117.51 96.44 117.5 96.48C117.5 96.52 117.5 96.56 117.5 96.6V96.64L117.56 96.92L117.7 97.56L118.03 98.88L118.18 99.43L118.42 100.39C118.56 101.01 118.7 101.65 118.68 102.12C118.68 102.39 118.59 102.54 118.53 102.74C118.44 102.86 118.39 102.96 118.23 103.06C117.98 103.2 117.82 103.16 117.63 103.15C117.4 103.12 117.13 103.03 116.81 102.81C116.49 102.59 116.13 102.25 115.79 101.9C115.62 101.72 115.44 101.54 115.28 101.35L114.9 100.92L114.35 100.28L113.27 99.02L113.04 98.77C113.04 98.77 112.99 98.73 112.97 98.71C112.92 98.69 112.86 98.68 112.82 98.7C112.8 98.7 112.75 98.73 112.73 98.78C112.72 98.81 112.72 98.84 112.71 98.88C112.71 98.92 112.71 98.98 112.74 99.18C112.84 99.87 113.04 100.61 113.12 100.9C113.22 101.21 113.33 102.33 113.4 102.63L113.37 102.66Z" fill="#231F20"/>
<path d="M3.42984 98.56C2.96984 99.17 2.43984 99.47 1.81984 99.84C1.62984 99.96 1.36984 99.84 1.39984 99.56C1.44984 99.03 1.67984 98.55 1.90984 98.08C1.95984 97.92 2.77984 96.87 3.91984 95.97C4.47984 95.51 5.09984 95.07 5.66984 94.7C5.74984 94.65 5.78984 94.62 5.90984 94.55C6.04984 94.47 6.16984 94.42 6.29984 94.36C6.54984 94.24 6.80984 94.17 7.04984 94.11C7.52984 94.01 7.94984 94.02 8.25984 94.1C8.71984 94.2 9.13984 94.47 9.43984 94.84C9.74984 95.25 9.89984 95.75 9.89984 96.3C9.89984 96.58 9.87984 96.86 9.79984 97.14C9.76984 97.28 9.73984 97.42 9.68984 97.58L9.59984 97.86C9.37984 98.54 9.09984 99.11 8.79984 99.66L8.25984 100.67L8.15984 100.86V100.89C8.16984 100.89 8.17984 100.87 8.17984 100.87L8.37984 100.72L8.83984 100.38C9.38984 99.98 9.96984 99.58 10.6198 99.23C10.8998 99.08 11.1798 98.93 11.4998 98.8C11.6598 98.73 11.7898 98.68 12.0998 98.57C12.3598 98.51 12.6198 98.42 12.8798 98.41C13.3898 98.35 13.8898 98.44 14.3198 98.69C14.7198 98.96 15.0698 99.34 15.1898 99.84C15.2598 100.08 15.3198 100.33 15.3298 100.59C15.3498 100.83 15.3398 101.17 15.3298 101.3C15.3098 101.64 15.2698 101.96 15.2198 102.27C15.1098 102.89 14.9798 103.46 14.8498 104.04L14.7798 104.32C14.7598 104.4 14.7198 104.55 14.7298 104.52C14.7298 104.54 14.7298 104.57 14.7798 104.58C14.8198 104.59 14.8298 104.63 14.8698 104.61C14.8998 104.61 14.9098 104.57 14.9298 104.57C15.2098 104.22 15.4598 103.91 15.6598 103.65C15.8998 103.36 16.0798 103.13 16.1698 103.03C16.8998 102.27 17.5698 101.41 18.9198 100.78C19.2598 100.65 19.7198 100.5 20.1798 100.55C20.6298 100.58 21.0698 100.72 21.4398 100.98C21.7998 101.21 22.1298 101.57 22.2998 102.02C22.4698 102.45 22.4998 102.85 22.4798 103.2C22.4598 103.59 22.4298 103.97 22.2698 104.25C21.9098 104.88 21.7098 105.47 21.4698 106.06C21.1398 106.86 20.6398 107.59 20.4298 108.28C20.3798 108.62 20.1798 108.75 20.5098 108.93C20.8198 109.04 20.6598 109.16 20.5098 109.18C20.1098 109.15 20.3898 109.31 20.4398 109.39C20.4498 109.42 20.4598 109.45 20.4398 109.47C20.4398 109.47 20.3298 109.47 20.1298 109.44C19.9298 109.4 19.5798 109.16 19.4498 108.79C19.2398 108.07 19.4098 107.38 19.5098 106.69C19.5998 106 19.7898 105.35 19.9198 104.86C20.0498 104.36 20.1098 104.01 20.1398 103.9C20.1398 103.89 20.1698 103.78 20.2098 103.62C20.2398 103.46 20.2798 103.23 20.2698 103.06C20.2698 102.98 20.2498 102.91 20.2398 102.9C20.2398 102.89 20.2398 102.88 20.1898 102.85C20.0998 102.81 20.0398 102.8 19.9298 102.85C19.7498 102.9 19.4498 103.12 19.1898 103.39C18.9198 103.66 18.6498 103.96 18.4198 104.26C17.9598 104.84 17.5998 105.34 17.4798 105.51C17.1998 105.88 17.0198 106.08 16.3598 106.77C16.2998 106.81 15.8198 107.43 15.0798 107.9C14.3498 108.37 13.4398 108.57 12.4498 108C12.2498 107.8 12.1298 107.68 11.9998 107.53C11.8998 107.36 11.7998 107.19 11.7798 106.94C11.6698 106.49 11.7698 105.86 11.8398 105.32C11.9298 104.77 12.0698 104.27 12.1498 103.91C12.1998 103.72 12.2198 103.59 12.2298 103.56C12.3798 102.99 12.4998 102.43 12.6098 101.9C12.6598 101.65 12.7198 101.4 12.7798 101.15L12.8098 100.99C12.8098 100.99 12.8198 100.99 12.8298 100.99C12.8398 100.99 12.8598 100.97 12.8798 100.95C12.9098 100.91 12.8898 100.89 12.8698 100.88C12.8198 100.85 12.7698 100.88 12.7298 100.88C12.7598 100.87 12.5798 100.94 12.5098 100.98C12.4198 101.02 12.3198 101.08 12.2198 101.13C12.0198 101.24 11.8198 101.35 11.6198 101.48C11.2098 101.73 10.7998 102.01 10.3898 102.29L8.72984 103.46C7.94984 104.01 7.14984 104.47 6.56984 104.56C6.27984 104.61 6.02984 104.6 5.77984 104.54C5.64984 104.52 5.52984 104.44 5.39984 104.34C5.25984 104.23 5.11984 104.14 5.04984 103.99C4.93984 103.8 4.85984 103.62 4.84984 103.4C4.78984 103.16 4.84984 102.84 4.84984 102.55C4.87984 101.84 5.27984 100.88 5.75984 99.98L6.59984 98.36C6.83984 97.87 7.08984 97.39 7.26984 96.95C7.33984 96.74 7.34984 96.68 7.28984 96.57C7.25984 96.54 7.21984 96.52 7.17984 96.52C7.14984 96.52 7.10984 96.5 7.03984 96.5C7.00984 96.5 6.96984 96.5 6.92984 96.5C6.88984 96.51 6.92984 96.5 6.83984 96.53L6.56984 96.66C5.85984 97 5.15984 97.42 4.92984 97.61C4.64984 97.81 3.59984 98.32 3.42984 98.59V98.56Z" fill="#231F20"/>
<path d="M54.6302 47.26C57.7602 48.45 60.7002 49.99 63.4602 51.84C64.8402 52.78 66.1702 53.79 67.4002 55.01C68.0102 55.63 68.6202 56.27 69.1402 57.1C69.2702 57.31 69.4002 57.52 69.5102 57.77C69.6202 57.98 69.7502 58.35 69.8302 58.7C69.9702 59.41 69.8702 60.13 69.5502 60.75C69.1002 61.54 68.0702 61.92 67.2502 62.03C66.5802 62.12 65.9802 62.1 65.3902 62.05C64.2302 61.94 63.1402 61.72 62.0902 61.43C59.9802 60.87 57.9802 60.12 56.0102 59.32C55.1002 58.95 54.2002 58.57 53.3102 58.17L52.6402 57.88C52.4402 57.8 52.1302 57.64 52.0702 57.66C51.9702 57.64 51.8702 57.58 51.6902 57.6C51.5302 57.6 51.3802 57.57 51.1902 57.63C49.6902 57.83 48.0702 58.83 46.7302 59.94C45.5302 60.94 44.4902 62.14 43.6402 63.46C42.8102 64.79 42.2202 66.25 41.8602 67.76L41.6302 68.91L41.5302 70.08C41.4802 70.48 41.5002 70.84 41.5302 71.18C41.5202 71.54 41.6402 71.87 41.6902 72.22C42.0002 73.59 42.9102 74.79 44.0302 75.82C45.1802 76.83 46.5702 77.64 48.0402 78.31C48.4102 78.48 48.7802 78.64 49.1702 78.8C49.5602 78.95 49.9802 79.14 50.3702 79.32C51.1602 79.68 51.9502 80.03 52.7402 80.41C55.8402 81.97 58.9202 83.81 61.3202 86.65C62.3602 87.91 63.2102 89.52 63.3302 91.37C63.3602 92.3 63.2602 93.2 62.7402 94.17C62.4402 94.66 62.0602 95.06 61.5502 95.35C61.0502 95.63 60.5102 95.76 60.0102 95.81C59.0102 95.87 58.1602 95.66 57.3802 95.41C56.5902 95.16 55.8602 94.86 55.1502 94.54C53.7302 93.9 52.3902 93.21 51.0602 92.57C49.3602 91.76 47.6102 90.95 45.9402 90.59C44.3902 90.27 42.5302 90.66 40.6502 91.01C38.7602 91.37 36.7202 91.71 34.6402 91.53C33.6002 91.46 32.5702 91.2 31.5902 90.85C31.1002 90.66 30.6602 90.38 30.2002 90.14C29.7802 89.83 29.3402 89.57 28.9702 89.22C28.0902 88.29 27.7802 87.87 27.8602 87.82C27.9502 87.76 28.4902 88.07 29.4402 88.44C30.4402 88.73 31.8002 89.06 33.3602 89.15C34.9302 89.23 36.7002 88.94 38.7602 88.5L41.6402 87.86C42.6402 87.65 43.7202 87.46 44.9302 87.46C45.5202 87.44 46.1602 87.53 46.8002 87.64C47.3802 87.76 47.9002 87.91 48.4202 88.08C49.4502 88.43 50.4102 88.84 51.3402 89.26C53.1902 90.11 54.9402 91.03 56.6302 91.77C57.4602 92.13 58.3102 92.45 59.0102 92.59C59.3602 92.66 59.6602 92.68 59.8302 92.67C60.0102 92.65 60.0002 92.64 60.0302 92.63C60.0502 92.76 60.3302 92.09 60.2802 91.51C60.2602 90.91 60.0802 90.24 59.6902 89.57C58.9702 88.22 57.6602 86.95 56.2102 85.86C54.7802 84.73 53.1102 83.8 51.4402 82.89L48.8502 81.63C48.0102 81.25 47.0002 80.83 46.0802 80.33C43.8702 79.15 41.6202 77.59 40.1602 75.17C39.4302 73.97 39.0102 72.53 38.9802 71.12C38.9502 69.72 39.1302 68.47 39.4302 67.17C40.0302 64.6 41.3102 62.22 43.0102 60.25C44.7102 58.27 46.8002 56.63 49.3602 55.71C50.2302 55.41 51.2002 55.2 52.3102 55.36C52.5902 55.43 52.9202 55.52 53.1502 55.61L53.7102 55.86L54.8202 56.35C56.3102 57 57.8102 57.61 59.3302 58.16C60.8502 58.7 62.3802 59.19 63.9102 59.51C64.6802 59.68 65.4402 59.77 66.1602 59.8C66.3302 59.8 66.5302 59.81 66.6802 59.79C66.8502 59.77 67.0302 59.76 67.0802 59.74C67.2302 59.71 67.4102 59.65 67.4902 59.5C67.5902 59.32 67.5702 59.09 67.4902 58.9C67.3602 58.59 67.1302 58.19 66.8502 57.84C66.3002 57.11 65.5802 56.44 64.8302 55.82C63.3102 54.57 61.6302 53.47 59.8802 52.5C57.0802 50.94 54.0902 49.66 51.0202 48.88C49.5002 48.52 47.9102 48.24 46.4502 48.35C44.9902 48.46 43.4702 48.95 42.0102 49.55C39.8002 50.49 37.6702 51.7 35.6202 53.02C33.5902 54.34 31.5802 55.82 29.9002 57.47C28.2902 59.13 26.9802 61.24 25.7502 63.34C24.5302 65.46 23.3902 67.65 22.2702 69.84C18.8002 76.66 15.7702 83.58 11.7302 90.15C10.8402 91.6 9.92021 93 8.89021 94.39C6.89021 96.91 5.25021 98.37 3.98021 99.22C2.67021 100.03 1.78021 100.29 1.01021 100.33C0.660211 100.34 0.230211 100.41 0.0102108 100.36C-0.359789 100.28 -0.0197892 99.85 0.780211 99.12C1.56021 98.34 2.72021 97.13 4.13021 95.48C8.21021 90.45 11.4802 84.37 14.6302 78.13C16.2102 74.98 17.7902 71.8 19.3802 68.61C21.0102 65.41 22.6802 62.19 24.7402 59.04C25.5302 57.87 26.3602 56.71 27.4002 55.59C27.6702 55.32 27.9502 55.02 28.2302 54.77L29.0302 54.06C29.5702 53.61 30.1202 53.16 30.6702 52.74C32.9002 51.05 35.2202 49.52 37.7402 48.28C38.9902 47.65 40.2902 47.08 41.6502 46.6C43.0102 46.12 44.4202 45.7 46.0202 45.56C47.6802 45.44 49.0902 45.67 50.5202 45.96C51.9302 46.26 53.2802 46.68 54.6002 47.17V47.24L54.6302 47.26Z" fill="#231F20"/>
<path d="M26.6201 99.74C26.0801 100.64 25.5801 101.58 25.1101 102.54C24.9301 102.88 24.8301 103.26 24.6501 103.61C24.0301 104.84 23.4301 106.09 22.9501 107.38C22.7201 107.95 22.6001 108.56 22.4301 109.14C22.2301 109.9 22.1901 110.68 21.6901 111.38C21.5401 111.6 21.2701 111.52 20.9501 111.24C20.7901 111.1 20.6201 110.92 20.4601 110.7C20.2901 110.48 20.1901 110.24 20.2201 110C20.3201 109.17 20.4001 108.33 20.6601 107.54C20.9101 106.75 21.2201 105.97 21.6001 105.22C22.0601 104.32 22.3001 103.31 22.6901 102.37C23.1101 101.33 23.6401 100.34 24.1601 99.35C24.4901 98.75 24.8201 98.14 25.1701 97.55C25.6901 96.65 26.2601 95.76 26.8301 94.9C27.2701 94.22 27.6201 93.5 28.0901 92.83C28.1901 92.68 28.2901 92.53 28.4201 92.4C28.9101 91.93 29.1701 91.87 29.5901 92.08C29.6901 92.13 29.7901 92.17 29.8701 92.22C30.1501 92.41 30.1901 92.81 30.0301 93.26C29.8901 93.58 29.8101 93.94 29.6601 94.25C29.5101 94.56 29.3601 94.87 29.2101 95.18C28.8901 95.79 28.6101 96.43 28.2501 97.03C27.7301 97.93 27.1601 98.82 26.6701 99.76L26.6201 99.74Z" fill="#231F20"/>
<path d="M16.9601 101.75C15.8901 101.41 14.8401 101.03 13.8401 100.52C13.4701 100.36 13.0701 100.23 12.7201 100.02C11.4701 99.29 10.3201 98.35 9.38012 97.25C8.94012 96.79 8.53012 96.3 8.10012 95.83C7.85012 95.51 7.62012 95.17 7.40012 94.83C7.32012 94.64 7.22012 94.46 7.18012 94.25C7.15012 94.04 7.13012 93.82 7.12012 93.61C7.12012 93.34 7.42012 93.24 7.89012 93.23C8.13012 93.23 8.41012 93.23 8.70012 93.25C8.84012 93.26 9.00012 93.27 9.11012 93.3C9.22012 93.34 9.30012 93.39 9.37012 93.46C9.60012 93.71 9.88012 93.91 10.0901 94.15C10.2701 94.42 10.5201 94.63 10.7201 94.89C11.1501 95.38 11.5801 95.88 12.0601 96.4C12.6001 97.07 13.4501 97.38 14.2101 97.79C15.0701 98.23 15.9601 98.63 16.9101 98.93C17.4901 99.12 18.0801 99.29 18.6801 99.42C19.5901 99.61 20.5301 99.78 21.4601 99.79C22.1901 99.78 22.9001 99.6 23.6001 99.45C23.7501 99.42 23.9101 99.4 24.0601 99.38C24.6401 99.36 24.8401 99.56 25.0301 100.19C25.0701 100.33 25.1201 100.47 25.1501 100.62C25.2501 101.09 25.0401 101.54 24.5901 101.78C23.9301 102.19 23.2001 102.33 22.4701 102.41C21.7401 102.48 20.9901 102.47 20.2401 102.41C19.1301 102.32 18.0201 102.09 16.9301 101.82V101.75H16.9601Z" fill="#231F20"/>
<path d="M81.9399 52.42C79.8499 53.31 77.7999 54.36 75.8699 55.58C74.9099 56.19 73.9799 56.83 73.1099 57.52C72.2599 58.21 71.4299 58.96 70.8799 59.7L70.6999 59.97C70.6399 60.06 70.6099 60.15 70.6099 60.13C70.5899 60.17 70.5599 60.22 70.5599 60.27C70.5399 60.38 70.6099 60.48 70.6999 60.54C70.7199 60.55 70.8499 60.64 71.0199 60.7C71.1699 60.76 71.3699 60.81 71.5799 60.84C71.9999 60.91 72.4899 60.91 72.9999 60.88C75.0799 60.71 77.3499 60.01 79.6099 59.35C81.2799 58.86 82.9299 58.29 84.8399 57.96C85.8799 57.78 87.1099 57.85 88.1399 58.26C89.1899 58.65 90.0899 59.29 90.8199 60.02C92.0999 61.32 92.9199 62.87 93.4899 64.46C94.0399 66.06 94.3399 67.71 94.3699 69.39C94.4099 71.06 94.1599 72.76 93.5799 74.37C93.2799 75.17 92.8999 75.95 92.4199 76.68C91.9399 77.37 91.4199 78.05 90.7999 78.64C89.5899 79.85 88.1099 80.72 86.6599 81.38C85.2099 82.05 83.7799 82.57 82.4099 83.17C79.7099 84.34 77.1699 85.93 75.0499 87.92C74.2999 88.64 73.5999 89.42 73.0999 90.25C72.8699 90.67 72.6599 91.09 72.5699 91.5C72.5299 91.7 72.4799 91.91 72.4999 92.09C72.4799 92.25 72.5199 92.37 72.5499 92.5C72.5899 92.69 72.7399 92.85 72.9199 92.92C73.1299 93 73.2299 93.01 73.5899 93.01C73.9099 93 74.2499 92.96 74.5899 92.87C74.9499 92.78 75.3099 92.69 75.6599 92.57C77.0499 92.13 78.3399 91.26 79.8699 90.52C80.2799 90.32 80.6999 90.14 81.1199 89.97C81.5599 89.81 82.0199 89.67 82.4699 89.53C83.3799 89.31 84.2899 89.17 85.1799 89.08C86.9599 88.91 88.6899 88.88 90.3499 88.7C91.9999 88.51 93.5899 88.2 95.0299 87.56C96.4799 86.92 97.6799 85.87 98.8599 84.7C99.6199 83.98 99.9999 83.65 100.05 83.72C100.11 83.79 99.8899 84.25 99.6199 85.2C99.3099 86.12 98.6699 87.42 97.3799 88.62C96.1099 89.82 94.1599 90.92 91.9999 91.24C88.2099 91.91 84.5699 91.49 81.9099 92.67C81.1699 92.97 80.4699 93.34 79.6899 93.75C78.9199 94.16 78.0399 94.64 77.0699 94.99C76.0799 95.34 75.1999 95.62 73.9699 95.72C73.6499 95.73 73.3899 95.74 72.9899 95.71C72.5599 95.66 72.1299 95.57 71.7299 95.4C70.9399 95.07 70.2999 94.43 70.0099 93.63C69.9299 93.21 69.7699 92.79 69.7599 92.38V91.82C69.7599 91.64 69.7699 91.48 69.8099 91.32C69.9099 90.66 70.1199 90.1 70.3499 89.57C70.8399 88.54 71.4699 87.74 72.1199 86.99C73.4499 85.53 74.9199 84.35 76.4699 83.31C78.0099 82.27 79.6999 81.38 81.3899 80.66C83.0699 79.94 84.7399 79.37 86.2099 78.65C87.9799 77.81 89.4099 76.59 90.4099 74.94C91.3799 73.36 91.7799 71.37 91.7099 69.39C91.6499 67.41 91.1199 65.41 90.1799 63.72C89.2399 62.04 87.7799 60.72 86.1899 60.63C85.3999 60.56 84.1899 60.87 83.0999 61.16C81.9799 61.47 80.8399 61.82 79.6899 62.17C77.3699 62.84 75.0399 63.61 72.3199 63.66C71.6399 63.66 70.9099 63.59 70.1699 63.34C69.4699 63.13 68.5399 62.54 68.0499 61.76C67.4999 60.97 67.6099 59.93 67.9899 59.08C68.2199 58.59 68.3799 58.38 68.5999 58.06C68.8099 57.78 69.0199 57.52 69.2499 57.27C71.0499 55.35 73.0999 53.99 75.1999 52.71C77.7999 51.17 80.5299 49.88 83.4099 48.91C84.8499 48.43 86.3299 48.04 87.8699 47.82C88.6499 47.73 89.4299 47.66 90.2499 47.72C90.6499 47.72 91.0799 47.81 91.4699 47.87C91.8399 47.96 92.2199 48.03 92.5799 48.13C97.0299 49.27 101.3 51.45 104.53 54.81C106.15 56.49 107.42 58.41 108.59 60.33C109.76 62.27 110.79 64.26 111.78 66.25C113.32 69.35 114.75 72.45 116.3 75.45C117.07 76.96 117.88 78.43 118.73 79.87C119.61 81.32 120.49 82.77 121.37 84.22C122.14 85.51 122.9 86.76 123.67 88.06C125.09 90.46 125.99 92.03 126.57 93.16C127.17 94.27 127.42 94.96 127.59 95.59C127.66 95.89 127.85 96.21 127.9 96.41C127.94 96.58 127.85 96.63 127.62 96.57C127.38 96.51 127.02 96.32 126.57 95.99C125.67 95.34 124.57 94.06 123.37 92.35C121.66 89.77 120.1 87.11 118.47 84.47L117.25 82.49C116.84 81.81 116.41 81.12 116.02 80.42C115.22 79.02 114.48 77.6 113.76 76.17C110.87 70.46 108.47 64.49 104.97 59.42C102.5 55.69 98.8199 53.01 94.5899 51.47C93.5299 51.1 92.4499 50.81 91.3499 50.59C90.7499 50.46 90.4199 50.43 89.8999 50.42C89.4199 50.42 88.8999 50.46 88.3799 50.53C86.2699 50.82 84.0799 51.57 81.9799 52.45L81.9399 52.39V52.42Z" fill="#231F20"/>
<path d="M108.52 98.93C108.17 98.05 107.81 97.16 107.37 96.31C107.22 96 107 95.72 106.84 95.41C106.28 94.32 105.64 93.26 104.96 92.22C104.66 91.76 104.28 91.36 103.91 90.95C103.44 90.44 102.98 89.91 102.58 89.3C102.46 89.11 102.61 88.98 102.9 88.94C103.19 88.9 103.66 88.91 104.05 89.12C104.37 89.32 104.7 89.53 105.01 89.76C105.29 90.01 105.55 90.29 105.81 90.56C106.31 91.12 106.81 91.7 107.16 92.38C107.6 93.18 108.21 93.89 108.7 94.68C109.22 95.55 109.69 96.45 110.13 97.36C110.4 97.92 110.65 98.49 110.9 99.05C111.28 99.91 111.6 100.79 111.98 101.64C112.27 102.3 112.62 102.93 112.91 103.58C112.98 103.72 113.06 103.86 113.1 104.01C113.22 104.28 113.11 104.52 113.06 104.68C112.98 104.85 112.86 104.97 112.68 105.09C112.6 105.15 112.52 105.21 112.45 105.25C112.2 105.39 111.85 105.25 111.45 104.94C110.97 104.45 110.67 103.89 110.33 103.34C109.97 102.8 109.76 102.2 109.53 101.6C109.19 100.71 108.86 99.81 108.48 98.94L108.53 98.91L108.52 98.93Z" fill="#231F20"/>
<path d="M119.42 91.28C118.79 92.26 118.02 93.13 117.23 93.97C116.93 94.27 116.66 94.59 116.35 94.87C115.19 95.81 113.88 96.53 112.53 97.07L111.62 97.39C111.32 97.51 111.02 97.62 110.71 97.7C110.32 97.8 109.94 97.98 109.53 97.99C109.12 98.01 108.7 97.99 108.3 97.91C108.04 97.86 108.05 97.53 108.21 97.12C108.37 96.72 108.63 96.17 108.99 95.97C110.28 95.31 111.47 94.89 112.83 94.4C113.22 94.23 113.61 94.02 113.92 93.72C114.26 93.44 114.57 93.13 114.87 92.81C115.58 92.16 116.19 91.38 116.77 90.58C117.09 90.06 117.44 89.55 117.69 88.99C118.11 88.16 118.48 87.28 118.7 86.37C118.85 85.66 118.79 84.92 118.78 84.22L118.8 83.76C118.86 83.19 119.07 83.02 119.71 82.92C119.86 82.9 120 82.86 120.14 82.85C120.62 82.81 121.01 83.08 121.18 83.58C121.31 83.95 121.41 84.33 121.47 84.72C121.49 85.1 121.51 85.49 121.46 85.87C121.4 86.64 121.22 87.4 121 88.16C120.64 89.27 120.11 90.33 119.5 91.33L119.44 91.3L119.42 91.28Z" fill="#231F20"/>
<path d="M56.4002 27.49C56.6202 27.58 56.5202 27.86 56.2402 28.25C56.1502 28.37 55.7902 28.63 55.7102 28.62C55.5402 28.61 55.3802 28.59 55.2402 28.55C55.1602 28.52 54.2802 27.83 53.9502 27.63C53.6402 27.42 53.3802 27.18 53.1402 26.92C52.6402 26.4 52.1202 25.9 51.6002 25.4C51.4802 25.29 51.4002 25.16 51.3302 25C51.1002 24.47 50.7402 24.06 50.3302 23.7C50.2602 23.64 50.2102 23.56 50.0802 23.56C49.8702 23.56 48.8302 22.5 48.7502 22.32C48.5502 21.86 48.2902 21.44 48.0502 21C48.0202 20.93 47.9502 20.9 47.9902 20.78C48.0802 20.48 47.9502 20.4 47.8602 20.28C47.7502 20.1 47.6102 19.95 47.5602 19.69C47.5302 19.57 47.5602 19.39 47.5602 19.24C47.5602 19.1 47.8102 18.92 47.8602 18.91C48.0002 18.91 48.0502 18.74 48.1302 18.64C48.1602 18.61 48.2002 18.56 48.2202 18.54C48.2402 18.53 48.6502 18.54 49.0302 18.61C49.4002 18.69 49.7802 18.79 49.8302 18.83C49.8902 18.81 51.2702 19.98 51.4502 20.09C51.5402 20.15 51.5702 20.27 51.6202 20.37C51.6502 20.41 52.7702 21.33 52.8002 21.38C52.9802 21.62 53.2502 21.78 53.2702 22.16C53.2702 22.23 53.3202 22.27 53.3702 22.31C53.7302 22.67 54.0002 23.12 54.2602 23.57C54.4002 23.8 54.5702 23.99 54.7302 24.2C54.7602 24.24 54.7602 24.3 54.7802 24.34C54.8002 24.4 54.8102 24.47 54.8502 24.51C55.2302 25 55.5102 25.56 55.9302 26.02C56.0302 26.13 56.2302 26.82 56.3502 26.94C56.4102 27.01 56.3302 27.44 56.4202 27.48L56.4002 27.49Z" fill="#231F20"/>
<path d="M85.6601 26.28C85.6601 26.5 85.3701 26.52 84.9301 26.46C84.7901 26.44 84.4301 26.25 84.4101 26.17C84.3601 26.02 84.3001 25.86 84.2801 25.72C84.2701 25.64 84.5001 24.51 84.5601 24.1C84.6201 23.71 84.7301 23.35 84.9101 23.02C85.2601 22.36 85.6101 21.68 86.0001 21.03C86.0901 20.89 86.1901 20.76 86.3301 20.65C86.8001 20.28 87.1501 19.84 87.4601 19.35C87.5101 19.27 87.5801 19.2 87.5601 19.07C87.5201 18.85 88.4901 17.62 88.7101 17.54C89.2101 17.31 89.6401 17.03 90.1101 16.79C90.1801 16.76 90.2101 16.68 90.3401 16.72C90.6401 16.8 90.7201 16.67 90.8401 16.58C91.0001 16.44 91.2301 16.38 91.4701 16.32C91.5901 16.29 91.7601 16.32 91.9001 16.32C92.0301 16.32 92.1901 16.56 92.1901 16.61C92.1901 16.74 92.3401 16.79 92.4301 16.87C92.4601 16.9 92.5001 16.93 92.5201 16.96C92.5401 16.99 92.4701 17.34 92.4501 17.75C92.4001 18.13 92.3001 18.47 92.2701 18.53C92.2701 18.54 92.0301 18.9 91.7901 19.28C91.5501 19.66 91.3301 20.07 91.2801 20.16C91.2401 20.25 91.1201 20.28 91.0301 20.33C90.9801 20.35 90.3101 21.5 90.2801 21.54C90.0801 21.73 90.0001 22.01 89.6401 22.08C89.5701 22.09 89.5501 22.15 89.5201 22.19C89.2801 22.59 88.8901 22.89 88.5601 23.24C88.3901 23.41 88.2701 23.63 88.1201 23.82C88.0901 23.85 88.0401 23.87 88.0001 23.9C87.9501 23.93 87.8901 23.96 87.8601 24.01C87.5501 24.49 87.1201 24.9 86.8401 25.4C86.7701 25.51 86.2001 25.92 86.1401 26.06C86.1001 26.14 85.6801 26.23 85.6801 26.32L85.6601 26.28Z" fill="#231F20"/>
</g>
<defs>
<clipPath id="clip0_383_2899">
<rect width="128" height="128" fill="white"/>
</clipPath>
</defs>
</svg>
