<svg width="451" height="613" viewBox="0 0 451 613" fill="none" xmlns="http://www.w3.org/2000/svg">
<path d="M353.158 544.089C352.388 543.809 351.648 543.376 350.938 542.906C350.678 542.74 350.498 542.499 350.298 542.32C349.948 542.015 349.678 541.646 349.468 541.137C349.278 540.628 349.158 540.005 349.118 539.331C349.088 538.733 349.178 538.122 349.298 537.524C349.368 537.13 349.488 536.761 349.558 536.366C349.608 535.959 349.648 535.539 349.678 535.107C349.688 534.84 349.568 534.802 349.328 534.916C349.098 535.031 348.678 535.26 348.398 535.667C347.968 536.417 347.718 537.282 347.508 538.211C347.338 539.14 347.218 540.209 347.498 541.265C347.788 542.486 348.278 543.86 349.068 544.687C349.888 545.577 350.748 546.086 351.668 546.57C352.228 546.862 352.798 547.079 353.368 547.282C354.238 547.588 355.138 547.727 356.008 547.906C356.688 548.033 357.368 548.287 358.068 548.376C358.228 548.402 358.378 548.44 358.538 548.44C359.118 548.44 359.288 548.173 359.308 547.346C359.308 547.155 359.328 546.964 359.308 546.773C359.278 546.137 359.008 545.654 358.648 545.527C357.568 545.119 356.538 545.005 355.488 544.763C354.708 544.585 353.928 544.369 353.178 544.025L353.158 544.089Z" fill="#242021"/>
<path d="M341.018 546.455C342.218 546.354 343.438 545.972 344.628 545.387C345.058 545.17 345.508 544.992 345.918 544.674C346.628 544.114 347.288 543.389 347.748 542.499C348.218 541.621 348.538 540.692 348.788 539.789C349.008 538.975 349.188 538.173 349.348 537.384C349.498 536.354 349.568 535.323 349.538 534.28C349.528 533.962 349.438 533.975 349.258 534.204C349.088 534.433 348.768 534.853 348.538 535.374C348.348 535.845 348.158 536.29 347.968 536.723C347.788 537.168 347.658 537.613 347.488 538.021C347.168 538.86 346.828 539.624 346.458 540.336C345.988 541.176 345.268 541.697 344.498 542.13C343.658 542.613 342.688 542.919 341.668 543.059C341.038 543.16 340.398 543.224 339.748 543.211C338.748 543.211 337.718 543.148 336.688 543.059C335.888 542.982 335.088 542.753 334.238 542.715C334.048 542.715 333.868 542.677 333.678 542.69C332.978 542.766 332.768 543.046 332.748 543.822C332.748 544 332.728 544.178 332.748 544.356C332.788 544.954 333.108 545.361 333.538 545.489C334.828 545.845 336.118 546.163 337.588 546.379C338.668 546.506 339.818 546.595 341.048 546.544V546.455H341.018Z" fill="#242021"/>
<path d="M293.508 118.335C295.438 121.77 297.688 133.042 293.508 138.92C289.328 144.785 281.488 141.999 281.488 141.999C281.488 141.999 281.468 173.08 281.778 177.367C282.088 181.655 284.568 191.998 287.698 193.245C290.828 194.491 303.248 196.985 304.418 185.471C305.588 173.945 305.288 147.979 305.618 144.798C305.948 141.617 305.028 127.941 303.668 125.422C302.308 122.903 293.518 118.335 293.518 118.335H293.508Z" fill="#BDC4CC"/>
<path d="M301.579 163.373C302.009 163.449 302.459 163.551 302.879 163.704C303.039 163.767 303.159 163.894 303.309 163.958C303.849 164.212 304.359 164.581 304.819 165.078C305.029 165.294 305.179 165.574 305.309 165.854C305.439 166.248 305.639 166.579 305.879 166.973C305.959 167.1 306.069 167.062 306.209 166.897C306.349 166.731 306.569 166.401 306.609 166.057C306.659 165.739 306.609 165.446 306.539 165.167C306.479 164.887 306.389 164.607 306.289 164.352C306.189 164.085 306.059 163.843 305.919 163.627C305.759 163.411 305.579 163.245 305.389 163.08C304.939 162.711 304.579 162.202 304.109 161.846C303.599 161.464 303.059 161.197 302.499 161.045C302.159 160.943 301.819 160.866 301.489 160.803C300.979 160.701 300.469 160.676 299.979 160.574C299.599 160.497 299.229 160.281 298.849 160.154C298.769 160.129 298.689 160.078 298.599 160.078C298.289 160.039 298.189 160.23 298.109 160.879L298.059 161.324C298.029 161.833 298.139 162.253 298.349 162.431C298.969 162.991 299.599 163.042 300.209 163.169C300.659 163.246 301.109 163.296 301.539 163.424V163.36L301.579 163.373Z" fill="#242021"/>
<path d="M284.307 182.723C283.547 178.868 283.127 174.759 282.847 170.65C282.747 169.148 282.757 167.635 282.677 166.121C282.547 163.449 282.457 160.777 282.387 158.093C282.297 155.408 282.217 152.724 282.197 150.027C282.197 147.635 282.207 145.23 282.227 142.864C282.227 139.811 282.447 136.745 281.907 133.666C281.707 132.712 281.727 132.852 281.497 133.653C281.237 134.455 280.677 135.918 280.477 137.648C280.217 140.739 279.937 143.844 279.737 146.961C279.647 150.09 279.617 153.22 279.717 156.388C279.857 160.167 279.777 164.098 279.917 167.978C280.107 172.24 280.397 176.502 281.027 180.764C281.417 183.385 281.907 185.993 282.787 188.55C283.137 189.504 283.527 190.471 284.087 191.349L284.517 191.998L285.037 192.583C285.377 193.003 285.757 193.219 286.127 193.537C287.617 194.568 289.167 195.178 290.727 195.649C291.947 196.018 293.167 196.273 294.407 196.425C295.647 196.578 296.927 196.603 298.217 196.323C298.787 196.222 299.347 196.069 299.917 195.815C300.447 195.586 300.867 195.267 301.207 195.038C301.537 194.733 301.777 194.428 301.947 194.161C302.297 193.626 302.327 193.066 302.227 192.545C302.177 192.303 302.147 192.049 302.067 191.858C301.917 191.54 301.617 191.451 301.237 191.489C301.047 191.502 300.857 191.591 300.627 191.654C300.387 191.718 300.137 191.807 299.867 191.934C298.207 192.596 296.297 192.647 294.347 192.507C293.367 192.405 292.377 192.252 291.407 191.972C290.437 191.718 289.467 191.362 288.597 190.904C287.947 190.573 287.337 190.153 286.937 189.746C286.567 189.441 286.217 188.728 285.867 188.054C285.207 186.553 284.727 184.657 284.367 182.736H284.297L284.307 182.723Z" fill="#242021"/>
<path d="M375.998 383.991C378.858 362.643 381.617 341.282 384.127 319.858C385.037 312.033 386.018 304.234 386.778 296.372C387.098 292.899 387.427 289.438 387.627 285.876L387.667 284.489L387.688 283.79C387.688 283.548 387.658 283.141 387.638 282.835C387.598 282.517 387.598 282.136 387.498 281.869L387.228 281.054C387.038 280.507 386.847 280.189 386.667 279.744C385.907 278.141 385.107 276.703 384.287 275.266C381.007 269.591 377.557 264.197 374.077 258.79C367.117 248.027 360.008 237.455 352.868 226.908C346.528 217.57 340.147 208.168 333.847 198.893C325.707 187.036 317.688 174.95 308.618 164.161C305.828 160.765 306.167 161.248 308.097 164.632C309.067 166.311 310.337 168.818 311.957 171.757C312.767 173.22 313.618 174.861 314.588 176.502C315.578 178.131 316.647 179.835 317.787 181.578L320.827 186.196L323.927 190.738L330.128 199.835C334.268 205.903 338.398 211.972 342.548 218.041C350.858 230.152 359.177 242.302 367.438 254.605C372.347 261.971 377.307 269.604 381.857 277.543C382.407 278.535 382.977 279.54 383.467 280.545C383.737 281.054 383.967 281.55 384.177 282.034C384.287 282.276 384.418 282.543 384.458 282.708L384.557 282.988L384.588 283.052V283.09L384.607 283.103C383.857 283.395 385.637 282.721 385.397 282.823L384.857 283.064L384.607 283.166V283.243C384.597 283.421 384.608 283.497 384.618 283.739L384.588 284.617C384.578 285.189 384.548 285.787 384.498 286.398C384.418 287.606 384.327 288.828 384.217 290.062C383.787 294.973 383.278 299.896 382.748 304.794C380.408 326.346 377.688 347.872 374.868 369.36C373.118 382.579 371.307 395.797 369.417 408.99C366.557 428.964 363.588 449.015 360.338 468.734C357.808 484.065 355.017 499.014 352.097 514.026C351.437 517.334 350.788 520.553 350.128 523.886C347.718 536.239 347.077 540.209 347.397 543.147C347.467 543.822 347.498 544.674 347.628 545.094C348.028 546.506 349.687 541.672 351.677 532.664C357.567 505.909 362.287 477.271 366.767 448.468C370.077 427.081 373.138 405.53 376.088 384.004L376.017 383.965L375.998 383.991Z" fill="#242021"/>
<path d="M351.349 240.814L341.629 226.603C340.449 224.873 339.319 223.079 338.129 221.374C333.889 215.344 329.659 209.313 325.279 203.461C323.349 200.853 321.459 198.156 319.539 195.573C318.279 193.945 317.019 192.303 315.759 190.662L314.789 189.466L313.769 188.334L311.729 186.069C310.879 185.141 311.009 185.242 311.559 186.235C311.839 186.731 312.209 187.456 312.639 188.359C312.859 188.83 313.089 189.314 313.339 189.822C313.459 190.09 313.599 190.331 313.719 190.624C313.869 190.878 314.029 191.133 314.189 191.387C316.459 195.051 318.659 198.792 321.129 202.227C323.549 205.725 325.939 209.25 328.489 212.659C331.529 216.73 334.379 221.323 337.299 225.7L346.949 240.139L352.899 249.032C355.889 253.536 358.939 258.014 361.859 262.531C364.129 266.042 366.239 269.617 368.439 273.154C368.919 273.93 369.379 274.719 369.879 275.482C370.819 276.907 371.469 277.798 372.029 278.319C372.609 278.815 373.059 278.968 373.559 278.93C373.789 278.917 374.039 278.955 374.219 278.892C374.529 278.777 374.579 278.345 374.419 277.632C374.259 276.92 373.899 275.927 373.259 274.846C369.539 268.332 365.309 261.831 361.029 255.292C357.829 250.47 354.619 245.61 351.409 240.776L351.349 240.826V240.814Z" fill="#242021"/>
<path d="M344.339 547.957L351.109 548.058C351.929 548.084 352.749 548.224 353.569 548.237C356.479 548.313 359.379 548.376 362.289 548.453C363.579 548.504 364.869 548.669 366.139 548.822C366.949 548.949 367.779 549.025 368.599 549.063C369.419 549.114 370.249 549.127 371.089 548.898C371.619 548.682 371.559 548.656 371.159 548.211C370.959 547.982 370.679 547.689 370.329 547.321C369.979 547.002 369.559 546.761 369.099 546.595C367.459 545.972 365.799 545.692 364.119 545.438C362.449 545.183 360.769 544.992 359.069 544.967C357.029 544.967 354.949 544.534 352.879 544.343C350.599 544.14 348.329 543.975 346.039 543.86L341.829 543.682C339.709 543.567 337.569 543.542 335.459 543.338C333.819 543.186 332.229 542.791 330.609 542.511C330.249 542.448 329.909 542.346 329.549 542.308C328.219 542.168 327.779 542.562 327.469 543.644C327.399 543.898 327.309 544.14 327.259 544.382C327.109 545.17 327.639 545.985 328.599 546.354C331.459 547.295 334.479 547.511 337.519 547.728C339.779 547.842 342.049 547.957 344.319 548.058V547.957H344.339Z" fill="#242021"/>
<path d="M301.328 158.653C299.958 159.034 298.598 159.352 297.218 159.518C296.718 159.581 296.208 159.518 295.708 159.556C293.928 159.683 292.108 159.81 290.298 159.556C289.498 159.454 288.708 159.2 287.918 159.022L286.408 158.564C285.908 158.385 285.358 158.411 284.828 158.335C284.488 158.322 284.478 158.487 284.668 158.882C284.758 159.085 284.898 159.352 285.068 159.658C285.248 159.925 285.438 160.357 285.728 160.51C286.218 160.841 286.728 161.159 287.238 161.452C287.748 161.744 288.268 162.024 288.818 162.164C289.898 162.507 291.018 162.698 292.138 162.736C293.478 162.787 294.858 163.105 296.228 163.093C297.728 163.093 299.228 162.915 300.708 162.673C301.608 162.52 302.528 162.317 303.378 162.164C303.718 162.1 304.108 161.922 304.488 162.024C304.588 162.075 304.578 162.215 304.598 162.329L304.628 162.686C304.648 162.927 304.658 163.169 304.658 163.423V164.314C304.638 164.632 304.618 164.963 304.588 165.281C304.538 165.93 304.478 166.566 304.458 167.189C304.448 167.469 304.408 167.736 304.408 168.016C304.388 169.034 304.548 169.301 305.128 169.645C305.258 169.734 305.388 169.836 305.518 169.912C305.948 170.205 306.468 169.747 306.728 168.894C307.098 167.647 307.398 166.401 307.488 165.128L307.558 164.174L307.578 163.691V163.449L307.588 163.042V161.172C307.578 160.854 307.518 160.574 307.488 160.268C307.468 159.95 307.328 159.772 307.258 159.53C307.018 158.945 306.488 158.373 305.918 158.144C305.348 157.877 304.628 157.877 303.918 157.966L303.378 158.067L302.908 158.169L302.368 158.296L301.318 158.538V158.64L301.328 158.653Z" fill="#242021"/>
<path d="M288.998 140.04C286.538 139.429 283.918 139.582 281.478 140.447C280.848 140.676 280.088 140.167 279.938 139.34C279.788 138.513 280.138 137.623 280.808 137.381C283.698 136.35 286.718 136.236 289.658 136.974C290.318 137.139 290.698 138.144 290.528 138.933C290.338 139.811 289.658 140.205 288.988 140.04H288.998Z" fill="#242021"/>
<path d="M289.327 146.375C286.597 146.579 283.867 146.63 281.137 146.541C280.487 146.515 279.857 145.828 279.887 144.951C279.917 144.073 280.437 143.335 281.137 143.36C283.867 143.449 286.607 143.386 289.327 143.195C289.977 143.144 290.607 143.958 290.577 144.785C290.547 145.688 290.027 146.325 289.327 146.375Z" fill="#242021"/>
<path d="M288.757 152.762L280.567 152.317C279.917 152.279 279.287 151.604 279.317 150.727C279.347 149.9 279.867 149.098 280.567 149.136L288.757 149.582C289.407 149.62 290.037 150.294 290.007 151.172C289.977 151.999 289.457 152.8 288.757 152.762Z" fill="#242021"/>
<path d="M288.187 196.82C290.157 197.367 292.127 197.532 294.087 197.405C296.047 197.265 298.007 196.871 299.937 195.993C300.897 195.573 301.857 194.975 302.777 194.186C303.237 193.817 303.657 193.257 304.087 192.774C304.307 192.431 304.607 191.922 304.727 191.578C304.847 191.235 304.987 190.878 305.077 190.548C305.757 188.003 306.027 185.7 306.317 183.334C306.707 179.912 307.037 176.515 307.207 173.105C307.497 167.1 307.607 161.095 307.547 155.09C307.487 149.085 307.257 143.093 306.717 137.088C306.467 134.429 306.167 131.758 305.677 129.086C305.417 127.75 305.137 126.414 304.667 125.078C304.457 124.417 304.147 123.743 303.807 123.094C303.427 122.547 303.097 121.923 302.657 121.465C300.537 118.806 297.667 117.521 294.887 117.14C293.487 116.987 292.067 116.974 290.687 117.318C289.997 117.483 289.327 117.738 288.667 118.018C288.007 118.336 287.407 118.819 286.817 119.277C286.107 119.913 285.837 120.218 285.867 120.231C285.907 120.269 286.277 120.028 286.977 119.875C287.687 119.722 288.717 119.824 289.867 119.926C290.447 119.989 291.067 120.104 291.697 120.206C292.337 120.269 292.997 120.371 293.677 120.473C294.887 120.651 296.067 121.045 297.147 121.618C298.227 122.178 299.257 122.801 300.107 123.692L300.707 124.391C300.907 124.62 301.057 124.9 301.237 125.155C301.437 125.409 301.517 125.651 301.637 125.893C301.767 126.109 301.857 126.491 301.977 126.783C302.407 128.106 302.737 129.658 302.997 131.249C304.037 137.686 304.387 144.582 304.677 151.426C304.977 159.645 304.597 168.258 303.977 176.617C303.807 178.907 303.607 181.209 303.327 183.461C303.187 184.594 303.027 185.7 302.837 186.795C302.637 187.85 302.417 188.983 302.117 189.759L302.067 189.912L302.027 189.988C302.027 189.988 301.977 190.09 301.957 190.153C301.847 190.293 301.687 190.459 301.567 190.611C301.327 190.955 300.967 191.196 300.647 191.476C299.977 191.998 299.197 192.405 298.397 192.749C296.787 193.41 295.037 193.728 293.297 193.792C291.167 193.868 288.957 193.614 287.037 192.647C286.067 192.214 285.197 191.527 284.647 190.688C284.097 189.975 283.857 188.601 283.607 187.265C282.917 183.156 282.617 178.792 282.337 174.492C282.087 170.179 281.937 165.841 281.867 161.541C281.757 154.849 281.957 148.284 282.217 141.681C282.287 140.231 282.357 138.819 282.437 137.355C282.667 131.948 282.647 130.269 281.857 128.984C281.687 128.692 281.537 128.323 281.367 128.132C280.847 127.496 279.927 129.671 279.577 133.717C279.017 139.696 278.787 145.829 278.707 152.05C278.637 158.271 278.737 164.581 279.067 170.917C279.307 175.624 279.627 180.332 280.247 185.115C280.407 186.311 280.587 187.52 280.837 188.766C280.967 189.403 281.097 190.013 281.307 190.713C281.487 191.311 281.817 192.303 282.267 192.889C283.117 194.301 284.157 194.988 285.147 195.662C285.647 195.929 286.147 196.184 286.657 196.4C287.157 196.565 287.657 196.769 288.157 196.909L288.187 196.82Z" fill="#242021"/>
<path d="M277.468 106.745C277.378 107.076 277.618 107.343 278.008 107.585C278.128 107.661 278.498 107.636 278.558 107.547C278.658 107.356 278.768 107.153 278.848 106.962C278.898 106.847 279.138 104.913 279.228 104.239C279.328 103.59 279.328 102.941 279.318 102.305C279.258 101.008 279.108 99.71 278.928 98.425C278.888 98.1451 278.818 97.8652 278.718 97.5981C278.378 96.6821 278.178 95.7279 278.018 94.761C277.988 94.5956 277.938 94.4429 277.988 94.2521C278.098 93.934 277.418 91.3514 277.238 91.0715C276.838 90.3336 276.388 89.6466 275.958 88.9596C275.898 88.8578 275.878 88.7306 275.738 88.6924C275.408 88.6034 275.348 88.3489 275.238 88.1326C275.088 87.8146 274.878 87.5474 274.648 87.293C274.538 87.1658 274.348 87.1021 274.188 87.0131C274.038 86.9367 273.798 87.2166 273.778 87.2803C273.748 87.4838 273.558 87.4711 273.438 87.5347C273.398 87.5601 273.338 87.5856 273.308 87.6238C273.258 87.6874 273.288 89.9138 273.368 90.0792C273.368 90.0919 273.428 90.27 273.488 90.5372C273.548 90.8043 273.628 91.1606 273.718 91.5295C273.848 92.2801 274.088 93.0053 274.098 93.1707C274.128 93.3361 274.238 93.4633 274.318 93.6033C274.378 93.6669 274.798 95.8806 274.818 95.9569C274.968 96.3895 274.988 96.8729 275.318 97.2419C275.378 97.3182 275.388 97.4072 275.408 97.4963C275.548 98.2851 275.808 99.0357 276.008 99.8118C276.118 100.206 276.148 100.626 276.218 101.033C276.228 101.109 276.278 101.173 276.298 101.237C276.328 101.326 276.368 101.415 276.378 101.504C276.478 102.483 276.798 103.425 276.838 104.417C276.868 104.646 277.208 105.702 277.198 105.969C277.198 106.122 277.528 106.58 277.488 106.72L277.468 106.745Z" fill="#242021"/>
<path d="M270.287 114.188C270.387 114.493 270.697 114.443 271.117 114.214C271.247 114.137 271.527 113.768 271.517 113.654C271.507 113.425 271.487 113.196 271.457 112.992C271.437 112.878 270.717 111.376 270.487 110.829C270.277 110.282 269.967 109.888 269.657 109.494C269.017 108.692 268.387 107.865 267.727 107.089C267.577 106.911 267.417 106.771 267.227 106.656C266.597 106.262 266.067 105.715 265.577 105.104C265.497 105.003 265.397 104.926 265.367 104.735C265.337 104.417 263.887 102.916 263.637 102.814C263.037 102.56 262.497 102.229 261.907 101.975C261.817 101.936 261.767 101.835 261.627 101.924C261.307 102.127 261.177 101.949 261.007 101.847C260.777 101.707 260.527 101.593 260.257 101.529C260.127 101.504 259.927 101.593 259.757 101.657C259.597 101.707 259.417 102.216 259.427 102.293C259.447 102.522 259.257 102.674 259.157 102.852C259.117 102.916 259.077 102.992 259.057 103.056C259.017 103.171 259.767 105.015 259.877 105.143C259.877 105.219 261.497 106.847 261.647 107.076C261.727 107.191 261.877 107.204 261.997 107.254C262.057 107.267 263.277 108.692 263.327 108.73C263.627 108.946 263.837 109.303 264.257 109.303C264.337 109.303 264.387 109.366 264.437 109.43C264.887 109.913 265.417 110.257 265.917 110.664C266.177 110.868 266.387 111.135 266.627 111.364C266.667 111.402 266.737 111.415 266.787 111.44C266.857 111.478 266.927 111.504 266.977 111.555C267.527 112.14 268.127 112.636 268.637 113.259C268.757 113.399 269.547 113.794 269.667 113.972C269.747 114.061 270.227 114.061 270.257 114.188H270.287Z" fill="#242021"/>
<path d="M269.157 124.595C269.397 124.595 269.497 124.277 269.527 123.832C269.527 123.692 269.407 123.335 269.327 123.31C269.177 123.272 269.027 123.221 268.887 123.208C268.807 123.208 267.607 123.526 267.197 123.577C266.797 123.641 266.417 123.755 266.037 123.895C265.267 124.15 264.487 124.379 263.707 124.57C263.537 124.62 263.367 124.684 263.207 124.786C262.657 125.117 262.057 125.282 261.457 125.358C261.357 125.358 261.257 125.409 261.147 125.333C260.957 125.218 259.347 125.486 259.147 125.587C258.597 125.88 258.147 126.122 257.657 126.389C257.587 126.427 257.497 126.389 257.447 126.542C257.327 126.872 257.157 126.847 256.997 126.898C256.777 126.974 256.557 127.05 256.337 127.19C256.227 127.254 256.137 127.445 256.037 127.597C255.947 127.737 256.037 128.183 256.077 128.234C256.197 128.361 256.127 128.59 256.137 128.781C256.137 128.844 256.137 128.933 256.147 128.984C256.167 129.099 257.597 129.684 257.747 129.646C257.767 129.646 258.277 129.608 258.817 129.582C259.357 129.557 259.907 129.429 260.027 129.429C260.147 129.429 260.257 129.315 260.367 129.239C260.417 129.226 262.017 128.895 262.077 128.857C262.387 128.704 262.727 128.679 262.997 128.323C263.047 128.259 263.117 128.246 263.177 128.221C263.727 128.03 264.247 127.712 264.777 127.419C265.047 127.267 265.327 127.165 265.597 127.038C265.647 127.012 265.687 126.961 265.737 126.923C265.797 126.872 265.847 126.821 265.907 126.796C266.557 126.503 267.167 126.084 267.817 125.804C267.967 125.74 268.597 125.155 268.767 125.091C268.867 125.053 269.077 124.608 269.177 124.608L269.157 124.595Z" fill="#242021"/>
<path d="M253.948 235.854C255.559 235.104 257.156 234.366 258.711 233.548C259.275 233.24 259.826 232.931 260.377 232.609C262.331 231.523 264.231 230.33 266.021 228.989C266.778 228.359 267.507 227.675 268.209 226.991C268.65 226.535 269.104 226.106 269.545 225.636C269.944 225.154 270.343 224.698 270.77 224.188C271.031 223.893 271.045 223.96 270.935 224.282C270.811 224.604 270.605 225.207 270.26 225.878C269.971 226.481 269.558 227.004 269.187 227.581C268.994 227.849 268.829 228.157 268.595 228.412L267.879 229.123C266.929 230.088 265.842 230.906 264.727 231.657C263.35 232.502 261.974 233.468 260.528 234.259C258.945 235.13 257.335 235.921 255.724 236.699L252.751 238.134C251.264 238.872 249.764 239.596 248.387 240.467C247.836 240.789 247.341 241.165 246.845 241.527C246.336 241.875 245.854 242.264 245.4 242.666L244.78 243.189C244.078 243.887 243.762 244.034 243.376 243.994C243.294 243.994 243.184 243.994 243.115 243.967C242.881 243.9 243.005 243.458 243.486 242.814C243.831 242.318 244.244 241.902 244.67 241.473C245.083 241.03 245.537 240.628 246.019 240.239C246.474 239.824 246.997 239.488 247.52 239.18C248.043 238.858 248.566 238.536 249.103 238.255C250.686 237.37 252.324 236.605 253.934 235.814V235.841L253.948 235.854Z" fill="#231F20"/>
<path opacity="0.55" d="M96.461 360C96.461 360 74.6039 356.355 74.0082 348.57C73.4976 341.961 97 350.186 97 350.186L96.461 359.987V360Z" fill="#231F20"/>
<path d="M82.9469 345.088C84.6414 345.197 86.2795 345.429 87.8893 345.784C88.4682 345.92 89.0754 345.947 89.6544 346.111C91.6737 346.67 93.6365 347.393 95.5146 348.252C96.3336 348.675 97.195 348.989 98.014 349.398C99.0731 349.889 100.062 350.585 100.881 351.444C101.135 351.717 100.965 351.853 100.542 351.921C100.118 351.989 99.4544 352.058 98.8189 351.921L97.1526 351.539C96.6302 351.348 96.1218 351.144 95.5852 350.967C95.0627 350.776 94.5403 350.571 94.0178 350.38C93.4953 350.162 93.0011 349.889 92.4786 349.657C91.2359 349.071 89.8238 348.839 88.4682 348.539C86.9714 348.225 85.4746 347.939 83.9495 347.83L82.5515 347.734L81.1535 347.775C80.4475 347.775 79.7697 347.939 79.0636 348.021C78.3717 348.143 77.7221 348.375 77.0726 348.566C76.6066 348.798 76.1688 349.071 75.7311 349.343C75.3075 349.63 75.0109 350.039 74.6014 350.325C74.4178 350.435 74.2484 350.585 74.1072 350.735C73.5 351.267 73.1611 351.348 72.6386 351.212C72.5115 351.185 72.3844 351.157 72.2856 351.13C71.9325 351.007 71.9043 350.544 72.215 349.821C72.4409 349.303 72.681 348.73 73.0763 348.28C73.5 347.884 73.9095 347.393 74.432 347.079C74.9403 346.766 75.4769 346.452 76.0135 346.152C76.5783 345.934 77.1432 345.729 77.7221 345.538C78.5835 345.279 79.4732 345.211 80.3487 345.074C81.21 345.047 82.0855 344.979 82.9469 345.006V345.074V345.088Z" fill="#231F20"/>
<path d="M190.939 557.383C189.385 557.196 187.832 557.039 186.265 556.967C185.686 556.938 185.121 556.995 184.556 556.967C182.537 556.838 180.504 556.866 178.457 556.795C177.553 556.78 176.649 556.852 175.76 556.924C174.616 557.053 173.444 556.981 172.272 556.895C171.905 556.852 171.933 556.752 172.215 556.508C172.498 556.292 173.006 555.833 173.642 555.546C174.206 555.345 174.771 555.001 175.364 554.915C175.943 554.786 176.536 554.671 177.115 554.556C178.287 554.369 179.473 554.183 180.687 554.269C182.128 554.326 183.61 554.082 185.079 554.025C186.703 553.982 188.312 553.996 189.936 554.054C190.939 554.068 191.927 554.154 192.93 554.226C194.44 554.326 195.951 554.527 197.448 554.628C198.027 554.671 198.606 554.671 199.199 554.656C199.778 554.671 200.357 554.685 200.95 554.728C201.204 554.743 201.458 554.728 201.712 554.786C202.658 554.972 202.912 555.302 202.969 556.077C202.969 556.249 203.011 556.436 202.997 556.594C202.969 557.153 202.503 557.569 201.797 557.727C200.766 557.885 199.735 557.971 198.705 558C197.674 557.971 196.643 557.885 195.612 557.799C194.073 557.67 192.52 557.541 190.953 557.44V557.354L190.939 557.383Z" fill="#231F20"/>
<path d="M192.205 340.95C192.366 341.953 192.54 342.955 192.701 343.944C192.768 344.302 192.888 344.66 192.928 345.018C193.076 346.307 193.236 347.624 193.384 348.913C193.437 349.486 193.558 350.059 193.665 350.618C193.826 351.334 193.973 352.05 194 352.795C194 353.024 193.826 353.053 193.571 352.924C193.317 352.795 192.942 352.537 192.741 352.15C192.406 351.477 192.084 350.804 191.803 350.116C191.669 349.773 191.535 349.429 191.428 349.071C191.348 348.713 191.294 348.341 191.241 347.968C191.133 347.066 190.758 346.221 190.531 345.333C190.289 344.359 190.129 343.356 189.914 342.383C189.794 341.781 189.66 341.165 189.539 340.564C189.352 339.647 189.137 338.73 188.91 337.828C188.736 337.126 188.427 336.482 188.2 335.809C188.146 335.666 188.079 335.522 188.039 335.365C187.918 334.792 188.079 334.534 188.494 334.262C188.588 334.205 188.682 334.133 188.776 334.076C189.097 333.904 189.459 334.033 189.78 334.377C190.571 335.451 191.214 336.668 191.602 337.971C191.857 338.945 192.044 339.962 192.259 340.95H192.192H192.205Z" fill="#231F20"/>
<path opacity="0.45" d="M111.592 561.363C111.592 561.363 132.127 574.386 139.488 573.991C146.85 573.597 148.26 573.653 146.039 571.031C142.645 567.015 121.343 557.966 121.343 557.966L121.915 545.916L110 545L111.592 561.377V561.363Z" fill="#231F20"/>
<path opacity="0.45" d="M179 533.446L180.957 547.242C180.957 547.242 202.583 558.244 210.253 557.996C217.924 557.748 217.181 556.316 212.325 553.466C207.468 550.616 191.227 541.804 191.227 541.804L190.156 532L179 533.432V533.446Z" fill="#231F20"/>
<path d="M118.493 547.894C117.874 547.849 117.255 547.82 116.635 547.775C116.411 547.775 116.187 547.82 115.95 547.805C115.133 547.73 114.303 547.596 113.486 547.417C113.104 547.357 112.761 547.312 112.392 547.268C111.931 547.193 111.417 547.193 111.035 546.79C110.943 546.567 111.035 546.283 111.285 545.836C111.523 545.403 111.812 544.985 112.036 545C112.445 545.015 112.84 545.03 113.236 545.09C113.631 545.179 114.039 545.299 114.474 545.433C114.988 545.612 115.542 545.478 116.082 545.478C116.688 545.478 117.307 545.478 117.914 545.478C118.296 545.478 118.691 545.478 119.06 545.478C119.653 545.478 120.246 545.478 120.826 545.478C121.287 545.478 121.748 545.314 122.209 545.314C122.315 545.314 122.407 545.314 122.512 545.358C122.881 545.493 122.987 545.687 123 546.164C123 546.268 123 546.373 123 546.477C122.987 546.82 122.789 547.104 122.526 547.283C122.315 547.417 122.117 547.551 121.946 547.67C121.761 547.745 121.577 547.775 121.392 547.835C121.023 547.909 120.641 548.013 120.259 547.999C119.666 547.999 119.073 547.984 118.48 547.969V547.909L118.493 547.894Z" fill="#231F20"/>
<path d="M186.419 534.867C185.897 534.867 185.36 534.9 184.837 534.917C184.648 534.917 184.46 535 184.271 535C183.574 534.95 182.863 534.883 182.181 534.833C181.876 534.8 181.572 534.9 181.267 534.9C180.875 534.9 180.468 535.05 180.077 534.65C179.96 534.533 179.989 534.149 180.077 533.682C180.178 533.215 180.338 532.581 180.527 532.498C181.194 532.064 181.876 532.08 182.66 532.281C183.124 532.414 183.56 532.164 184.024 532.114C184.532 532.047 185.055 532.047 185.563 531.997C185.882 531.98 186.201 531.947 186.521 531.914C187 531.847 187.493 531.83 187.972 531.68C188.335 531.563 188.669 531.28 189.032 531.13C189.119 531.096 189.191 531.029 189.264 531.013C189.583 530.946 189.699 531.13 189.859 531.847L189.96 532.331C190.047 532.881 189.989 533.365 189.801 533.599C189.525 533.932 189.249 534.199 188.944 534.399C188.64 534.55 188.306 534.65 187.972 534.716C187.479 534.833 186.956 534.867 186.434 534.95V534.883L186.419 534.867Z" fill="#231F20"/>
<path d="M170.92 308C170.92 308 167.614 326.952 167.515 336.159C167.402 348.153 170.355 362.31 169.945 365.11C169.535 367.911 156.96 367.713 156.96 367.713C156.96 367.713 121.51 360.853 112.651 356.412C110.108 355.139 96.9396 350.741 96.9396 350.741C96.9396 350.741 98.8612 361.051 96.9396 365.11C95.0181 369.169 85.0853 431.004 84.0256 449.178C82.9659 467.352 82.217 502.455 84.4494 519.455C85.8482 530.077 86.2862 536.936 89.1827 540.359C90.9206 542.41 93.5627 542.339 97.8298 543.626C97.8298 543.626 126.3 546.893 140.655 545.762C155.01 544.63 166.611 539.482 166.611 539.482C166.611 539.482 162.202 530.473 159.207 525.254C156.211 520.035 153.951 500.97 153.244 494.252C152.538 487.534 152.397 459.912 152.397 459.912C152.397 459.912 156.169 478.878 158.006 489.033C159.843 499.188 166.709 527.432 172.799 531.449C178.889 535.466 204.674 528.069 204.674 528.069C204.674 528.069 226.363 518.494 225.995 513.996C225.628 509.499 212.332 486.516 207.076 472.726C201.82 458.937 189.019 428.118 187.041 418.954C185.049 409.789 174.721 373.115 174.721 373.115L171.287 331.138L170.92 308.014V308Z" fill="#231F20"/>
<path d="M233.601 242.264C234.044 243.197 234.487 244.129 234.824 245.09C234.965 245.435 235.143 245.779 235.231 246.137C235.621 247.386 235.852 248.677 235.887 249.982C235.94 250.556 235.94 251.13 235.994 251.704C236.029 252.435 235.923 253.181 235.586 253.87C235.479 254.085 235.196 254.014 234.895 253.798C234.593 253.583 234.221 253.21 234.185 252.823C234.008 252.134 234.061 251.474 234.026 250.786C233.991 250.126 233.955 249.451 233.92 248.72C233.902 247.873 233.547 247.027 233.281 246.195C232.98 245.277 232.626 244.359 232.218 243.44C231.97 242.881 231.704 242.321 231.403 241.776C230.959 240.944 230.481 240.126 229.931 239.337C229.506 238.735 228.992 238.175 228.496 237.602C228.389 237.472 228.265 237.358 228.194 237.214C227.893 236.698 227.981 236.44 228.194 236.21C228.247 236.153 228.283 236.095 228.318 236.052C228.425 235.937 228.85 236.009 229.275 236.296C229.967 236.698 230.339 237.272 230.8 237.802C231.243 238.362 231.633 238.936 232.023 239.538C232.59 240.428 233.104 241.332 233.618 242.25H233.583L233.601 242.264Z" fill="#231F20"/>
<path d="M155.416 283.096C153.083 281.592 150.835 279.975 148.615 278.357C147.81 277.755 146.975 277.197 146.17 276.581C143.37 274.391 140.67 272.1 138.026 269.752C136.853 268.707 135.637 267.705 134.506 266.645C133.771 265.958 133.021 265.3 132.314 264.598C131.607 263.882 130.929 263.152 130.25 262.407C129.826 261.949 129.967 261.906 130.476 262.135C130.971 262.365 131.89 262.794 132.823 263.467C134.449 264.684 136.103 265.872 137.658 267.175C139.2 268.478 140.741 269.781 142.31 271.112C144.162 272.702 146.24 274.162 148.276 275.594C150.496 277.197 152.772 278.729 155.062 280.218C156.49 281.091 157.918 282.008 159.388 282.824C161.594 284.112 163.842 285.329 166.146 286.389C167.956 287.162 169.752 287.849 171.561 288.522C171.957 288.665 172.353 288.808 172.763 288.951C174.219 289.596 174.643 289.939 174.855 290.412C174.898 290.526 174.969 290.641 174.997 290.727C175.053 291.042 174.361 291.07 173.159 290.884C169.639 290.269 166.076 288.98 162.725 287.291C160.223 286.045 157.777 284.671 155.43 283.153L155.458 283.096H155.416Z" fill="#231F20"/>
<path d="M163.402 239.262C161.961 237.379 160.547 235.468 159.16 233.556L157.596 231.5C155.815 229.038 154.075 226.547 152.212 224.172C151.382 223.115 150.498 222.116 149.642 221.117C148.472 219.886 147.412 218.553 146.229 217.322C145.875 216.931 145.943 216.931 146.351 217.134C146.746 217.351 147.548 217.67 148.377 218.22C151.301 220.248 153.49 223.086 155.57 225.953C156.808 227.691 158.235 229.357 159.527 231.08L163.824 236.757C164.708 237.915 165.619 239.059 166.543 240.16C167.944 241.854 169.399 243.505 170.936 245.025C172.132 246.198 173.397 247.241 174.702 248.211C174.988 248.414 175.246 248.675 175.531 248.892C176.592 249.703 176.864 250.079 176.946 250.543C176.959 250.644 177 250.76 177 250.847C177 251.122 176.429 251.021 175.491 250.586C174.063 250.007 172.785 249.066 171.547 248.081C170.936 247.574 170.31 247.067 169.712 246.532C169.127 245.981 168.583 245.388 168.012 244.808C166.394 243.042 164.857 241.173 163.375 239.291L163.402 239.262Z" fill="#231F20"/>
<path d="M172.167 52.4987C172.167 52.4987 210.897 38.1785 229.972 58.8177C241.473 71.2577 237.941 83.6836 235.553 89.1686C233.9 92.9854 223.373 103.248 216.11 105.326C199.31 110.133 182.171 100.803 179.147 97.1556C176.124 93.5084 172.732 89.2392 172.732 89.2392C172.732 89.2392 165.385 99.0358 158.292 102.315C151.199 105.595 148.429 107.97 148.429 107.97C148.429 107.97 150.634 117.738 149.616 120.905C148.599 124.071 147.681 124.637 145.561 122.403C143.456 120.17 136.334 110.614 133.678 109.878C131.022 109.143 124.805 109.836 123.123 114.133C121.442 118.431 124.423 125.923 128.153 127.45C131.884 128.991 136.914 129.217 136.914 129.217C136.914 129.217 140.969 149.135 150.789 158.79C160.609 168.446 171.701 171.004 177.014 169.591C182.326 168.177 196.272 156.119 197.12 151.044C197.12 151.044 204.199 162.862 208.551 166.495C212.903 170.142 219.502 175.627 219.276 178.285C219.049 180.942 219.092 184.787 214.415 185.706C209.738 186.625 189.773 184.278 185.265 184.293C180.772 184.293 177.014 182.285 176.943 185.084C176.872 187.883 180.009 194.004 178.992 195.899C177.975 197.793 172.167 200.761 168.607 197.637C165.046 194.513 151.114 186.752 148.571 182.299C146.027 177.846 146.96 176.574 141.379 179.02C135.798 181.465 124.988 195.899 124.988 195.899C124.988 195.899 115.479 194.23 114.193 187.869C112.908 181.508 110.802 174.383 107.736 173.747C104.656 173.111 80.4941 172.361 76.0574 166.311C71.6207 160.261 71.1544 145.219 71.1544 145.219C71.1544 145.219 57.8584 146.209 53.8738 138.9C49.8893 131.592 48.1796 128.044 52.6587 123.464C57.1519 118.883 61.4049 114.685 68.8089 110.161C76.2128 105.637 87.7285 101.029 89.7773 94.2011C97.591 68.1336 116.638 46.2504 142.424 44.3137C156.752 43.2393 160.553 44.6812 172.125 52.4704L172.167 52.4987Z" fill="#231F20"/>
<path d="M112.929 554.26C112.972 555.619 113.058 557.005 113.173 558.378C113.216 558.877 113.346 559.376 113.389 559.875C113.504 561.664 113.662 563.466 113.72 565.282C113.763 566.087 113.849 566.891 113.95 567.681C114.094 568.693 113.907 569.747 113.662 570.773C113.576 571.092 113.418 571.05 113.144 570.801C112.886 570.537 112.397 570.08 112.138 569.525L111.793 568.79L111.62 568.43L111.563 568.055C111.476 567.556 111.404 567.071 111.318 566.572C111.174 565.574 111.045 564.561 111.045 563.522C111.045 562.274 110.657 561.026 110.455 559.778C110.239 558.392 110.053 556.991 109.894 555.591L109.635 552.984C109.492 551.667 109.477 550.322 109.391 549.005C109.333 547.979 109.103 546.953 109.046 545.899C109.031 545.664 108.96 545.442 109.031 545.206C109.204 544.347 109.463 544.097 110.297 544.042C110.484 544.042 110.657 544 110.815 544C111.332 544 111.922 544.43 112.095 545.012C112.44 545.886 112.497 546.717 112.598 547.591C112.684 548.451 112.756 549.324 112.814 550.211C112.871 551.529 112.886 552.887 113.001 554.26H112.929Z" fill="#231F20"/>
<path d="M138.59 564.451C140.015 565.176 141.426 565.928 142.823 566.795C143.55 567.25 144.151 567.633 144.947 568.216C146.023 568.997 147.015 569.92 147.979 570.843C148.286 571.142 148.398 571.454 148.594 571.753C148.831 572.065 148.831 572.335 148.901 572.605C148.971 572.903 149.041 573.088 148.971 573.4C148.943 573.727 148.761 574.082 148.552 574.31C147.993 575.02 147.099 575.418 145.981 575.687C145.408 575.801 144.821 575.929 144.165 575.957L143.187 576H142.698L142.376 575.986C136.774 575.46 131.548 573.898 126.518 571.781C124.311 570.787 122.117 569.735 120.049 568.5C118.736 567.69 117.381 566.894 116.263 565.786C115.075 564.764 114.181 563.414 113.315 562.136C112.812 561.298 112.91 561.397 113.622 561.823C113.971 562.036 114.502 562.306 115.159 562.576C115.508 562.718 115.858 562.86 116.221 563.002C116.417 563.073 116.584 563.158 116.808 563.215C116.975 563.329 117.171 563.4 117.353 563.514C117.981 563.897 118.68 564.181 119.295 564.565C119.91 564.948 120.538 565.318 121.181 565.659C122.466 566.355 123.794 566.98 125.135 567.562C127.846 568.684 130.598 569.792 133.448 570.716C135.153 571.27 136.941 571.653 138.758 571.895C139.666 572.008 140.574 572.108 141.468 572.15L143.243 572.221C143.564 572.221 143.941 572.236 144.277 572.065C144.486 571.951 144.346 571.753 144.249 571.639C144.165 571.497 144.039 571.369 143.927 571.241C143.787 571.085 143.634 570.957 143.452 570.801L143.131 570.545L142.474 570.091C141.58 569.508 140.658 568.954 139.694 568.429C137.486 567.235 135.181 566.142 132.847 565.119L127.51 562.775C125.722 561.965 123.947 561.212 122.173 560.175C121.796 559.948 121.46 559.735 121.041 559.394C120.594 559.025 120.245 558.57 120.063 558.03C119.896 557.15 119.924 556.624 119.896 556.042L119.854 554.351C119.826 553.229 119.826 552.121 119.826 551.013C119.826 550.345 119.812 549.692 119.826 549.024C119.882 547.788 119.965 546.964 120.175 546.41C120.427 545.856 120.748 545.558 121.195 545.317C121.405 545.217 121.6 545.075 121.782 545.018C122.103 544.933 122.369 545.146 122.606 545.615C122.83 546.084 123.053 546.808 123.053 547.703C123.095 549.351 123.081 551.013 123.053 552.689C123.053 553.527 123.025 554.351 123.011 555.204C123.011 555.615 123.011 556.027 123.011 556.425L123.039 556.993C123.039 557.093 123.039 557.036 123.053 557.064C123.067 557.064 123.053 557.064 123.081 557.064C123.081 557.064 123.053 557.036 123.263 557.178C123.556 557.391 123.975 557.633 124.395 557.86C125.261 558.314 126.211 558.769 127.175 559.195C130.891 560.857 134.804 562.462 138.632 564.337L138.604 564.409L138.59 564.451Z" fill="#231F20"/>
<path d="M182.215 540.379C182.331 541.629 182.521 542.907 182.724 544.185C182.797 544.643 182.972 545.101 183.03 545.574C183.263 547.24 183.524 548.921 183.641 550.63C183.714 551.38 183.83 552.13 183.932 552.88C184.106 553.838 183.917 554.825 183.684 555.783C183.597 556.089 183.437 556.047 183.175 555.811C182.913 555.575 182.433 555.144 182.171 554.644C182.07 554.422 181.939 554.199 181.837 553.977L181.662 553.644L181.604 553.31C181.517 552.852 181.429 552.408 181.328 551.949C181.167 551.032 180.993 550.116 180.935 549.157C180.877 548.004 180.411 546.879 180.135 545.726C179.829 544.462 179.553 543.171 179.305 541.865C179.145 541.059 179.014 540.254 178.883 539.434C178.665 538.198 178.592 536.948 178.461 535.698C178.374 534.725 178.127 533.767 178.054 532.767C178.025 532.545 177.967 532.322 178.025 532.114C178.185 531.308 178.447 531.072 179.262 531.031C179.436 531.031 179.611 530.989 179.771 531.003C180.28 531.003 180.862 531.406 181.051 531.947C181.4 532.753 181.473 533.517 181.589 534.295C181.706 535.073 181.779 535.864 181.88 536.67C181.982 537.865 182.07 539.115 182.273 540.365H182.2L182.215 540.379Z" fill="#231F20"/>
<path d="M210.124 549.824C211.189 550.446 212.24 551.096 213.276 551.816L214.054 552.369L214.932 553.061L216.127 554.113C216.472 554.472 216.803 554.846 217.12 555.206C217.437 555.69 217.869 556.188 217.883 556.603C217.941 556.838 218.013 557.032 217.998 557.212C217.998 557.391 217.969 557.654 217.854 557.903C217.725 558.138 217.552 558.332 217.408 558.512C217.206 558.664 217.034 558.816 216.818 558.955C216.4 559.218 215.853 559.411 215.249 559.55C214.716 559.702 214.155 559.84 213.521 559.896C213.219 559.937 212.888 559.937 212.571 559.951C212.197 559.951 212.067 559.992 211.851 559.992C211.06 559.992 210.282 560.034 209.519 559.923C204.135 559.204 199.011 557.696 194.131 555.648C191.986 554.694 189.855 553.684 187.84 552.508C186.559 551.747 185.249 550.986 184.155 549.962C183.003 548.994 182.139 547.748 181.304 546.559C180.815 545.784 180.916 545.867 181.607 546.268C181.952 546.462 182.47 546.711 183.118 546.96L184.155 547.347C184.342 547.403 184.515 547.499 184.731 547.541C184.889 547.652 185.076 547.721 185.263 547.818C185.882 548.177 186.559 548.44 187.163 548.814C187.768 549.173 188.387 549.519 189.006 549.851C190.258 550.515 191.54 551.11 192.849 551.664C195.484 552.729 198.161 553.808 200.94 554.721C204.251 555.842 207.95 556.229 211.434 556.492L212.283 556.561H212.614C212.845 556.575 213.075 556.561 213.32 556.534C213.521 556.506 213.924 556.423 213.809 556.16C213.694 555.98 213.55 555.8 213.392 555.621C213.291 555.524 213.19 555.413 213.075 555.302L212.902 555.15L212.6 554.915C212.038 554.472 211.419 554.071 210.815 553.67C208.785 552.369 206.626 551.207 204.409 550.114C201.069 548.44 197.629 546.891 194.231 545.161C193.569 544.815 192.907 544.456 192.245 544.041C191.914 543.833 191.583 543.612 191.252 543.307C190.863 543.003 190.561 542.533 190.373 542.048C189.87 540.596 189.495 539.281 189.193 537.843C189.063 537.22 188.92 536.597 188.848 535.947C188.545 533.54 189.02 532.737 189.898 532.309C190.1 532.212 190.302 532.073 190.489 532.018C190.805 531.935 191.079 532.143 191.324 532.544C191.554 532.959 191.827 533.568 191.899 534.356C192.058 535.491 192.259 536.625 192.518 537.773C192.648 538.341 192.777 538.922 192.921 539.489L193.152 540.347L193.382 541.121C193.382 541.121 193.382 541.121 193.454 541.163C193.497 541.204 193.584 541.274 193.684 541.343C193.771 541.412 193.872 541.481 194.001 541.564C194.447 541.869 195.009 542.187 195.585 542.477C196.736 543.086 197.974 543.681 199.212 544.262C202.825 545.978 206.554 547.693 210.181 549.741L210.153 549.81L210.124 549.824Z" fill="#231F20"/>
<path d="M178.074 533.833C176.197 533.677 174.249 533.422 172.258 532.474C171.76 532.177 171.262 531.95 170.807 531.511C170.594 531.313 170.309 531.101 170.167 530.917L169.712 530.365L167.935 528.157C167.423 527.378 166.953 526.586 166.456 525.793C166.214 525.397 165.958 525 165.73 524.604L165.133 523.372L163.953 520.895L162.971 518.362C162.459 517.144 162.075 515.885 161.677 514.639C161.265 513.393 160.867 512.148 160.582 510.874C158.364 501.957 157.084 492.982 155.832 484.037C155.263 480.073 154.581 476.11 153.855 472.204C153.344 469.712 152.945 467.179 152.419 464.687L152.049 462.805L151.765 460.908C151.552 459.648 151.338 458.389 151.125 457.129C150.869 455.558 150.997 455.742 151.594 456.973C151.95 457.695 152.376 458.558 152.846 459.535C153.102 460.073 153.4 460.653 153.671 461.276C153.813 461.588 153.927 461.913 154.083 462.239C154.183 462.578 154.296 462.932 154.396 463.286C155.15 465.82 155.804 468.353 156.43 470.915C156.956 473.477 157.496 476.054 157.951 478.63C158.876 483.796 159.772 488.948 160.468 494.143C161.336 500.357 162.772 506.713 164.578 512.771C165.09 514.427 165.588 516.097 166.228 517.696C166.541 518.503 166.783 519.338 167.167 520.103L168.247 522.438C168.574 523.245 169.072 523.925 169.485 524.675C169.94 525.382 170.309 526.175 170.864 526.812L172.428 528.794C172.912 529.289 173.438 529.714 174.192 530.011C175.927 530.804 178.103 531.058 180.193 531.115C182.312 531.172 184.46 531.016 186.607 530.775C193.092 529.983 199.548 528.397 205.72 526.26C210.513 524.59 215.035 522.495 219.415 520.131C220.368 519.579 221.293 519.041 222.245 518.489C225.73 516.38 226.967 515.927 228.076 515.955C228.332 515.955 228.645 515.941 228.83 515.998C229.441 516.139 228.389 517.597 225.915 519.522C218.292 524.774 209.205 528.44 199.833 531.044C196.349 532.007 192.793 532.771 189.181 533.323C185.569 533.847 181.886 534.187 178.074 533.889V533.819V533.833Z" fill="#231F20"/>
<path d="M80.5849 464.571C81.1268 454.907 82.0203 445.271 83.1335 435.664C83.529 432.161 83.8806 428.645 84.3493 425.156C86.0484 412.834 88.3041 400.61 90.5891 388.414C91.5997 382.999 92.5518 377.555 93.416 372.167C93.9873 368.707 94.456 365.233 94.9687 361.786C95.5106 358.34 96.0233 354.894 96.4041 351.518C96.8728 349.422 96.8875 349.591 97.7663 351.447C98.5866 353.304 99.2896 356.919 98.8795 360.999C98.5866 364.628 97.8981 368.158 97.3269 371.703C96.697 375.234 96.0672 378.765 95.4374 382.295C94.1045 389.329 92.7569 396.376 91.4093 403.466C89.7835 411.934 88.6703 420.824 87.5424 429.559C86.2974 439.152 85.2867 448.788 84.5983 458.438C84.3639 461.406 84.2321 464.388 84.0417 467.356C83.9245 470.324 83.778 473.306 83.7194 476.274C83.4704 485.291 83.5437 494.35 84.1149 503.282C84.276 506.756 84.7008 510.175 85.0231 513.593C85.4771 516.997 85.8287 520.401 86.3413 523.805C86.561 525.296 86.7807 526.759 87.0151 528.278C87.7768 533.877 87.8061 535.691 87.1909 537.028C87.0737 537.323 86.9858 537.717 86.8833 537.9C86.605 538.505 85.4771 536.338 84.525 532.245C83.1335 526.182 82.2107 519.852 81.4637 513.424C80.8192 506.982 80.3359 500.441 80.1601 493.871C79.8379 484.123 80.0283 474.319 80.497 464.557H80.5849V464.571Z" fill="#231F20"/>
<path d="M191.003 436.38C187.139 425.392 184.004 414.136 181.232 402.823C180.267 398.676 179.119 394.585 178.391 390.396C175.494 375.698 173.422 360.873 172.078 345.992C171.308 339.419 170.986 332.677 171 326.089C171.07 317.612 171.504 309.05 173.464 300.784C174.136 298.217 174.136 298.584 174.248 300.841C174.486 303.126 174.682 307.245 174.472 312.055C173.94 320.574 173.954 329.08 174.626 337.571C174.934 341.789 175.438 346.091 175.843 350.365C176.067 352.509 176.221 354.653 176.487 356.797C176.753 358.941 177.005 361.085 177.271 363.229C178.419 373.512 180.673 384.049 182.856 394.388C185.376 405.729 188.357 416.985 191.856 428.072L195.272 438.256L198.995 448.327C202.942 458.427 207.253 468.442 211.914 478.146C215.582 485.678 219.445 492.914 223.406 500.193C224.274 501.787 225.128 503.367 226.01 504.975C229.229 510.984 230.097 512.987 229.985 514.707C229.985 515.088 230.027 515.568 229.971 515.822C229.817 516.654 227.871 514.538 225.394 510.194C217.947 497.358 210.697 483.45 204.118 469.119C199.261 458.469 194.866 447.523 190.933 436.436L191.017 436.394L191.003 436.38Z" fill="#231F20"/>
<path d="M174.848 185.034L174.989 184.223L175.059 183.817C175.087 183.692 175.115 183.51 175.129 183.496L177.414 182.782C177.764 182.67 178.255 182.587 178.564 182.517C178.802 182.461 179.04 182.419 179.279 182.405C180.232 182.279 181.157 182.223 182.069 182.209C183.891 182.181 185.644 182.321 187.368 182.503C190.817 182.88 194.154 183.468 197.476 183.985C200 184.377 202.524 184.643 205.005 184.852C207.192 185.048 209.365 185.118 211.398 184.838C213.431 184.573 215.324 183.915 216.445 182.573C216.768 182.265 216.95 181.859 217.202 181.482C217.371 181.062 217.595 180.628 217.651 180.237C217.833 179.44 217.735 178.586 217.399 177.719C216.712 175.957 215.212 174.306 213.655 172.782C210.851 170.054 207.557 167.663 204.542 164.963C202.608 163.215 200.659 161.383 199.117 159.103C198.36 157.956 197.687 156.725 197.28 155.354C196.86 153.983 196.846 152.501 197.112 151.116C197.701 149.41 197.911 149.843 198.444 151.186C198.612 151.522 198.78 151.899 198.977 152.319C199.201 152.725 199.439 153.158 199.734 153.592C200.238 154.473 200.855 155.438 201.528 156.515C202.72 158.445 204.444 160.222 206.295 161.9C208.146 163.592 210.164 165.201 212.169 166.921C214.174 168.642 216.221 170.418 218.072 172.614C218.983 173.733 219.866 174.978 220.455 176.516C221.058 178.027 221.226 179.971 220.623 181.621C220.034 183.426 218.731 185.174 217.076 186.223C215.436 187.3 213.627 187.804 211.889 188.083C208.398 188.615 205.033 188.363 201.767 188.013C198.177 187.594 194.672 186.978 191.182 186.489C187.705 185.999 184.214 185.538 180.891 185.776C180.316 185.832 179.741 185.873 179.209 185.999C178.956 186.027 178.662 186.125 178.381 186.209C178.241 186.475 178.241 186.908 178.283 187.272C178.353 187.93 178.55 188.629 178.76 189.328C179.209 190.755 179.839 192.196 180.232 193.902C180.4 194.811 180.54 195.874 180.134 197.007C180.008 197.273 179.882 197.552 179.727 197.804C179.545 198.028 179.349 198.252 179.152 198.462C178.746 198.839 178.283 199.133 177.821 199.357C175.9 200.21 173.993 200.056 172.269 199.79C168.778 199.175 165.651 197.748 162.707 196.112C158.179 193.51 154.029 190.377 150.538 186.503C149.767 185.65 149.01 184.81 148.379 183.845C147.762 182.964 147.313 182.181 146.963 181.524C146.64 180.852 146.43 180.265 146.29 179.789C145.995 178.824 145.967 178.209 146.023 177.677C146.052 177.439 146.052 177.146 146.094 176.992C146.262 176.474 147.313 177.873 149.304 180.069C152.08 183.426 155.136 186.629 158.726 189.314C162.273 192.014 166.282 194.266 170.376 195.622C171.876 196.112 173.432 196.406 174.75 196.378C175.409 196.378 175.97 196.238 176.306 196.07C176.671 195.832 176.699 195.818 176.727 195.72C176.797 195.594 176.783 195.021 176.587 194.322C176.419 193.622 176.138 192.839 175.83 191.986C175.535 191.147 175.213 190.223 174.961 189.23C174.834 188.685 174.736 188.265 174.652 187.552C174.568 187.118 174.596 186.699 174.652 186.293C174.694 185.873 174.708 185.468 174.75 185.048L174.834 185.076L174.848 185.034Z" fill="#231F20"/>
<path d="M164.71 165.627C167.329 166.49 170.088 167.055 172.777 166.73C175.523 166.476 178.339 165.768 180.902 164.623C181.845 164.198 182.732 163.661 183.633 163.166C184.464 162.557 185.351 162.02 186.182 161.397C189.138 159.247 191.673 156.447 193.799 153.363L194.616 152.217L195.348 151.001C195.826 150.18 196.333 149.388 196.77 148.54C197.6 146.828 198.502 145.159 199.177 143.363L200.121 141L200.895 138.567C201.149 137.747 201.416 136.941 201.641 136.12C201.839 135.3 202.05 134.465 202.247 133.645C202.824 131.551 203.092 129.373 203.641 127.251C204.204 125.144 204.429 122.965 205.471 120.9C206.133 119.613 205.908 119.769 206.161 120.971C206.457 122.187 207.273 124.493 206.907 127.053C206.612 129.331 206.274 131.58 205.626 133.8L204.753 137.125L203.683 140.406C202.176 144.763 200.318 149.063 197.727 152.981C197.023 154.183 196.108 155.287 195.32 156.475C194.461 157.621 193.531 158.724 192.616 159.827C191.574 160.846 190.659 161.977 189.504 162.883L187.829 164.283L186.013 165.514C180.606 168.894 174.129 170.705 167.681 169.743C163.766 169.107 160.162 167.452 156.923 165.386C151.953 162.26 147.94 157.875 144.772 153.08C142.337 149.332 140.253 145.399 139 141.085C138.648 140.166 138.479 139.204 138.253 138.242C138.127 137.323 138 136.573 138 135.936C138 135.286 138.042 134.762 138.099 134.338C138.183 133.475 138.394 132.98 138.634 132.57C138.746 132.386 138.831 132.145 138.901 132.046C139.112 131.693 139.859 133.107 140.52 135.554C140.76 136.46 141.21 137.337 141.421 138.256L141.802 139.614L142.294 140.944C142.646 141.821 142.886 142.754 143.308 143.603C143.702 144.466 144.097 145.343 144.491 146.22C146.251 149.629 148.377 152.882 150.897 155.81C154.671 160.082 159.345 163.774 164.696 165.514V165.599L164.71 165.627Z" fill="#231F20"/>
<path d="M237.256 56.7099C240.222 60.7984 241.869 65.606 242.636 70.3995C243.402 75.2493 242.962 80.3248 241.287 84.9491C240.123 88.3327 238.363 91.5189 236.077 94.2399C232.089 99.0616 226.907 102.713 221.229 105.124C218.376 106.35 215.338 107.041 212.314 107.563C210.781 107.69 209.262 107.972 207.729 107.944L205.43 108L203.144 107.873C197.75 107.507 192.342 106.365 187.43 104.109C184.25 102.727 181.269 100.796 178.686 98.4131C176.088 96.0727 173.973 92.9429 173.334 89.4747C172.894 87.3317 173.206 87.6278 174.399 89.0376C174.711 89.4042 175.066 89.813 175.463 90.2642C175.974 90.673 176.415 91.1806 176.926 91.6881C177.167 91.956 177.422 92.2239 177.692 92.4917C177.99 92.7455 178.317 92.9852 178.586 93.2812C179.154 93.8593 179.651 94.5219 180.332 95.0999C182.462 97.3698 185.159 99.1603 188.04 100.57C189.446 101.346 190.993 101.853 192.498 102.445C194.059 102.896 195.592 103.418 197.211 103.7C198.801 104.109 200.433 104.236 202.051 104.475C203.684 104.546 205.316 104.729 206.963 104.645C208.609 104.673 210.228 104.447 211.874 104.306C213.478 103.996 215.125 103.799 216.672 103.291C224.239 101.219 231.251 95.7767 235.424 89.0517C237.738 85.3438 239.172 81.1002 239.342 76.7438C239.527 72.4015 238.718 67.9182 236.986 63.886C234.885 58.8952 231.18 54.6374 226.467 51.8459C219.313 47.56 210.469 46.2912 202.094 46.9115C195.536 47.3767 189.219 49.0545 183.143 51.2961C181.795 51.7755 180.517 52.3535 179.183 52.8751C176.713 53.8902 175.109 54.6092 173.902 54.9194C172.653 55.1732 171.872 55.2155 171.148 55.0745C170.822 55.004 170.41 54.9899 170.183 54.8771C169.799 54.6938 170.027 54.2427 170.793 53.5378C171.176 53.1994 171.673 52.7482 172.298 52.2548C172.908 51.7614 173.732 51.3666 174.626 50.8732C185.358 45.4312 198.261 42.0616 211.449 43.2318C216.318 43.697 221.215 44.8672 225.757 47.0525C230.286 49.2236 234.431 52.4663 237.383 56.6112L237.312 56.6817L237.256 56.7099Z" fill="#231F20"/>
<path d="M85.4918 167.889C89.5184 169.229 93.9251 169.843 98.3881 170.234C100.021 170.388 101.669 170.388 103.358 170.541C104.104 170.611 104.85 170.695 105.639 170.806C106.455 170.96 107.159 170.988 108.342 171.518C108.666 171.658 108.792 171.77 108.976 171.895L109.496 172.258C109.848 172.482 110.158 172.789 110.482 173.054C111.116 173.626 111.693 174.269 112.186 174.953C113.171 176.363 113.776 177.954 114.114 179.49C114.466 181.026 114.593 182.519 114.762 183.915C115.044 186.414 115.804 188.592 117.578 189.863C118.718 190.686 120.154 191.133 121.647 191.566C122.379 191.789 123.167 191.943 123.941 192.11C124.336 192.166 124.73 192.292 125.11 192.431L126.307 192.766C127.306 193.074 127.166 193.325 126.264 193.813C125.814 194.051 125.152 194.4 124.336 194.707C123.519 194.986 122.562 195.056 121.52 194.958C119.676 194.777 117.761 194.218 115.959 193.046C114.143 191.943 112.65 189.946 112.017 188.02C110.721 184.125 111.101 180.886 110.06 178.317C109.764 177.549 109.327 176.851 108.75 176.237C108.469 175.93 108.145 175.637 107.793 175.372C107.638 175.232 107.427 175.12 107.244 174.995L106.962 174.813L106.892 174.771L106.864 174.743H106.85C106.751 174.897 106.976 174.52 106.948 174.576V174.604L106.906 174.646L106.836 174.743H106.821H106.793C106.751 174.743 106.737 174.715 106.667 174.687L106.385 174.632C106.216 174.576 105.991 174.548 105.766 174.52C105.329 174.45 104.808 174.408 104.329 174.366C103.302 174.297 102.274 174.227 101.26 174.157C96.6987 173.85 91.9963 173.459 87.3925 172.37C84.5626 171.7 81.7609 170.765 79.1281 169.369C75.1438 167.302 71.7507 163.673 70.3569 159.373C69.2024 156.092 68.7519 152.63 69.132 149.279C69.1743 148.539 69.301 147.827 69.4277 147.087C69.8782 144.351 70.6385 143.653 71.4128 143.262C71.5959 143.179 71.7789 143.039 71.9197 143.011C72.1731 142.941 72.328 143.206 72.4687 143.723C72.5955 144.253 72.7503 145.049 72.6377 145.985C72.5673 146.683 72.5955 147.395 72.5673 148.093C72.5391 148.791 72.5251 149.489 72.5814 150.187C72.6236 151.583 72.7926 152.937 72.9193 154.277C73.2712 156.944 74.1441 159.415 75.6365 161.453C77.861 164.468 81.4652 166.576 85.534 167.833L85.5059 167.931L85.4918 167.889Z" fill="#231F20"/>
<path d="M159.2 233.054C160.306 234.368 161.397 235.724 162.574 236.967C163.709 238.266 164.928 239.481 166.176 240.668C167.055 241.572 168.104 242.278 169.025 243.111C172.371 245.979 175.987 248.592 179.943 250.64C180.808 251.106 181.729 251.487 182.637 251.897C183.544 252.306 184.437 252.702 185.387 252.984C186.578 253.394 187.783 253.761 188.974 254.199C189.57 254.397 190.179 254.595 190.775 254.821L191.668 255.16C191.966 255.287 192.235 255.484 192.533 255.64C193.242 256.092 193.114 256.205 192.349 256.473C191.569 256.826 190.165 257.151 188.662 256.925C183.374 255.866 178.326 253.62 173.889 250.484C173.222 250.004 172.556 249.552 171.861 249.1C171.181 248.648 170.528 248.14 169.848 247.659C168.472 246.727 167.154 245.71 165.906 244.637C164.488 243.507 163.241 242.179 161.908 240.964C160.674 239.651 159.384 238.379 158.222 237.009C156.747 235.357 155.358 233.648 153.968 231.953C151.884 229.354 149.941 226.642 147.928 224.043C146.383 222.009 144.667 220.159 143.136 218.167C142.796 217.729 142.427 217.32 142.101 216.868C141.789 216.444 141.548 216.091 141.364 215.78C141.193 215.455 141.122 215.144 141.066 214.89C140.952 214.382 140.995 214 141.123 213.633C141.179 213.464 141.208 213.28 141.278 213.153C141.491 212.757 142.384 213.153 143.689 214.071C145.291 215.695 146.921 217.362 148.382 219.198C149.871 221.006 151.303 222.885 152.763 224.749C154.932 227.518 157.045 230.3 159.299 232.97L159.242 233.026L159.2 233.054Z" fill="#231F20"/>
<path d="M180.749 227.761C180.537 225.047 180.413 222.318 180.272 219.575C180.219 218.569 180.077 217.578 180.042 216.573C179.953 213.026 179.989 209.478 180.307 205.917C180.413 204.337 180.59 202.757 180.802 201.177C180.979 200.172 181.138 199.152 181.421 198.162C181.669 197.156 182.27 196.208 182.889 195.318C183.296 194.758 183.632 194.988 183.897 195.62C184.021 195.935 184.145 196.352 184.233 196.826C184.304 197.3 184.498 197.86 184.286 198.363C183.296 202.111 183.066 206.06 182.907 210.082C182.801 212.494 183.19 215.008 183.455 217.478L184.286 225.678L184.711 230.762C184.905 233.333 184.994 235.933 184.994 238.532C184.994 240.543 185.082 242.568 184.604 244.665C184.498 245.124 184.375 245.584 184.145 246.043C183.314 247.738 182.482 248.126 181.51 247.968C181.28 247.939 181.05 247.91 180.855 247.853C180.537 247.738 180.378 247.465 180.325 247.12C180.289 246.776 180.36 246.374 180.484 245.871C181.156 242.927 181.315 239.466 181.174 235.875C181.085 233.218 180.908 230.49 180.643 227.761H180.732H180.749Z" fill="#231F20"/>
<path d="M170.303 320.312C170.021 322.156 169.764 324 169.533 325.844C169.353 327.702 169.096 329.546 168.993 331.419C168.916 332.78 168.89 334.142 168.826 335.504C168.595 340.298 168.621 345.12 168.968 349.929C169.224 352.042 169.366 354.198 169.764 356.269C169.995 357.602 170.226 358.95 170.457 360.283C170.766 361.602 170.92 362.964 171.074 364.354C171.164 365.219 171.01 365.148 170.573 364.538C170.355 364.226 170.059 363.786 169.712 363.247C169.353 362.708 168.993 362.042 168.749 361.276C166.99 355.872 166.168 350.141 166.155 344.383C166.155 340.936 165.924 337.376 166.026 333.872C166.103 331.943 166.155 330.014 166.335 328.099L166.566 325.22L166.887 322.355C167.118 320 167.516 317.674 167.837 315.334C168.402 311.802 169.122 308.299 169.815 304.838C170.059 303.49 170.303 302.143 170.547 300.795C170.779 299.448 171.01 298.114 171.305 296.781C171.434 296.185 171.523 295.604 171.665 295.022C171.909 293.93 172.307 293.278 172.602 292.838C172.911 292.398 173.27 292.214 173.707 292.129C173.9 292.086 174.092 292.001 174.246 292.001C174.734 291.959 175.12 293.065 174.966 294.696C174.323 299.49 173.206 304.341 172.307 309.291C171.947 311.121 171.652 312.965 171.318 314.809C170.945 316.653 170.714 318.511 170.406 320.355H170.329L170.303 320.312Z" fill="#231F20"/>
<path d="M123.614 362.007C117.697 359.872 111.892 357.5 106.101 355.17L99.7494 352.728C96.0336 351.263 92.3318 349.825 88.56 348.695C86.6811 348.137 84.7881 347.663 82.8952 347.439C81.0303 347.216 79.1233 347.188 77.595 347.802C76.9219 348.067 76.347 348.458 75.9124 348.988C75.6319 349.379 75.5057 349.853 75.5899 350.495C75.8423 351.793 76.8098 353.188 77.9595 354.29C79.4739 355.714 81.2406 356.956 83.1616 357.932C85.0966 358.881 87.1298 359.704 89.2891 360.29C90.6212 360.667 90.4529 360.89 89.191 361.142C88.8825 361.211 88.4899 361.281 88.0412 361.351C87.5925 361.393 87.1017 361.421 86.5409 361.448C85.4191 361.504 84.0871 361.407 82.755 360.946C82.152 360.779 81.5631 360.542 80.9742 360.304C80.3853 360.081 79.8104 359.802 79.2355 359.509C78.6606 359.244 78.1138 358.895 77.5529 358.56C77.0201 358.197 76.5293 357.751 76.0245 357.332C75.043 356.453 74.1176 355.463 73.3604 354.235C72.6173 353.035 71.8881 351.584 72.0143 349.588C72.0564 349.1 72.2106 348.57 72.3649 348.081C72.5892 347.607 72.9117 347.118 73.2062 346.728C73.767 346.128 74.412 345.584 75.1131 345.193C76.5293 344.384 78.0156 344.091 79.3757 344.021C82.11 343.881 84.5358 344.467 86.8774 345.081C92.444 346.644 97.9406 348.598 103.283 350.677C109.144 352.993 114.935 355.393 120.796 357.583C124.4 358.923 128.031 360.207 131.705 361.337C137.258 363.039 142.936 364.518 148.643 365.258C153.074 365.83 157.477 365.858 161.81 365.425C162.763 365.327 163.689 365.188 164.642 365.048C168.162 364.504 169.297 364.504 170.279 365.146C170.489 365.272 170.77 365.369 170.91 365.481C171.358 365.746 170.125 367.002 167.404 367.755C159.3 369.765 150.382 369.123 141.969 367.379C135.687 366.081 129.56 364.183 123.558 362.09V362.007H123.614Z" fill="#231F20"/>
<path d="M189.828 341.204C188.8 338.124 187.908 335.003 187.029 331.895C186.732 330.752 186.353 329.624 186.069 328.481C185.136 324.411 184.312 320.314 183.811 316.147C183.608 314.308 183.392 312.454 183.216 310.615C183.149 309.43 183.014 308.246 183 307.061C183.041 306.462 183.054 305.863 183.176 305.277C183.311 304.692 183.446 304.107 183.581 303.508C183.798 302.783 183.771 302.88 184.041 303.508C184.176 303.814 184.379 304.26 184.65 304.79C184.771 305.054 184.947 305.333 185.055 305.626C185.136 305.919 185.204 306.239 185.244 306.56C185.461 307.716 185.542 308.873 185.677 310.03C185.758 311.186 186.029 312.329 186.164 313.486C186.299 314.642 186.529 315.785 186.705 316.956C186.853 318.126 186.989 319.297 187.178 320.468C187.557 323.283 188.435 326.112 189.22 328.913C190.044 331.993 191.018 335.059 192.018 338.097C192.667 339.964 193.303 341.831 193.992 343.671L195.601 347.866L196.494 350.054C196.724 350.987 197.508 352.13 196.494 352.688C196.264 352.966 195.899 353.175 195.561 353.398L194.709 353.956L193.316 354.917C192.41 355.572 191.559 356.297 190.734 357.008C190.369 357.328 190.031 357.635 189.652 357.941C188.99 358.485 188.557 358.819 188.178 358.945C187.773 359.056 187.435 358.987 186.975 358.847C186.772 358.777 186.529 358.75 186.34 358.68C186.015 358.555 185.853 358.262 185.893 357.76C185.948 357.245 186.204 356.603 186.718 356.032C187.489 355.196 188.26 354.402 189.152 353.802C190.017 353.161 190.964 352.66 191.843 352.06L193.181 351.21L193.506 351.001C193.506 351.001 193.506 351.001 193.519 350.973V350.959L193.506 350.946L193.249 350.346C191.978 347.378 190.801 344.312 189.72 341.232L189.787 341.204H189.828Z" fill="#231F20"/>
<path d="M240.086 221.422C240.367 220.415 240.55 218.884 240.774 217.532C240.999 216.139 241.252 214.719 241.603 213.312C241.856 212.278 242.08 211.229 242.431 210.236C242.74 209.354 243.105 208.485 243.484 207.63L243.821 206.912L244.327 205.919C244.678 205.285 245.043 204.664 245.436 204.168C246.209 203.12 246.967 202.499 247.753 202.168C248.146 202.03 248.624 201.892 249.143 202.126L249.326 202.209C249.326 202.209 249.368 202.264 249.396 202.292L249.48 202.499C249.537 202.637 249.621 202.802 249.691 202.94C249.761 203.12 249.902 203.313 250 203.506C250 204.485 249.972 205.478 249.93 206.485C249.874 207.395 249.831 208.305 249.775 209.202C249.663 211.243 249.424 213.422 248.02 215.215C247.599 215.767 247.515 215.601 247.36 214.995C247.29 214.691 247.149 214.264 246.967 213.767C246.883 213.519 246.77 213.257 246.7 212.995C246.658 212.733 246.63 212.471 246.63 212.181C246.56 211.009 246.742 209.864 246.812 208.692V208.471C246.812 208.471 246.826 208.457 246.841 208.443V208.416C246.841 208.416 246.869 208.402 246.883 208.374C246.911 208.333 246.925 208.305 246.967 208.195C246.967 208.14 247.135 207.836 247.037 207.685C246.967 207.561 246.883 207.505 246.756 207.533C246.658 207.547 246.546 207.657 246.447 207.809C246.391 207.878 246.349 207.961 246.293 208.057C246.265 208.112 246.265 208.112 246.209 208.223L246.026 208.636C245.549 209.754 245.155 210.926 244.79 212.098C244.004 214.65 243.653 217.353 243.26 220.167C243.204 220.567 243.133 220.98 243.049 221.408C242.951 221.849 242.909 222.249 242.614 222.842C242.122 223.739 241.603 224.497 241.069 225.283C239.539 227.49 237.825 229.545 236.014 231.518C234.61 233.035 233.22 234.593 231.436 235.807C231.043 236.069 230.664 236.345 230.215 236.538C228.53 237.227 227.828 237.021 227.364 236.717C227.252 236.634 227.125 236.579 227.055 236.497C226.816 236.234 227.378 235.738 228.235 234.952C228.881 234.4 229.47 233.766 230.116 233.242L231.043 232.359C231.338 232.042 231.647 231.738 231.97 231.449C233.22 230.249 234.441 228.938 235.607 227.545C237.194 225.67 238.794 223.532 239.974 221.546L240.016 221.394H240.086V221.422Z" fill="#231F20"/>
<path d="M261.536 197.504C262.208 196.461 262.923 195.335 263.523 194.82C264.123 194.264 264.552 194.167 264.923 194.056C265.109 194.014 265.266 194 265.466 194C265.566 194 265.681 194 265.881 194.083C266.009 194.167 266.081 194.264 266.181 194.362C266.266 194.459 266.381 194.542 266.452 194.667L266.624 195.071L266.795 195.474C266.838 195.627 266.852 195.822 266.867 196.002L266.981 196.767C267.024 197.017 266.981 197.393 266.981 197.699C266.952 198.338 266.981 198.95 266.752 199.784C266.595 200.48 266.467 201.147 266.281 201.829C266.181 202.176 266.066 202.51 265.952 202.858L265.709 203.525C265.409 204.331 265.066 205.138 264.709 205.917C263.994 207.488 263.18 209.004 262.265 210.464C261.465 211.771 260.636 213.064 259.722 214.288L258.793 215.456C258.45 215.817 258.064 216.151 257.692 216.498C256.921 217.152 256.035 217.736 254.977 217.931C254.348 218.084 254.434 218 254.734 217.513C255.077 217.055 255.349 215.984 256.006 215.275C257.035 213.801 258.193 212.41 259.164 210.825C260.165 209.268 261.022 207.599 261.922 205.931C262.465 204.929 262.894 203.859 263.251 202.76L263.437 202.162L263.508 201.884L263.651 201.3C263.766 200.841 263.894 200.285 263.823 199.659C263.837 199.423 263.651 199.52 263.608 199.59C263.537 199.659 263.466 199.743 263.394 199.826C263.251 199.993 263.108 200.188 262.951 200.396L262.337 201.258L261.922 201.842L261.251 202.871C259.907 204.943 258.464 206.973 257.006 208.976C255.878 210.547 254.763 212.104 253.191 213.439C252.848 213.731 252.491 214.023 252.076 214.274C251.319 214.76 250.604 214.83 250.147 214.802C249.676 214.774 249.39 214.566 249.204 214.315C249.118 214.19 249.033 214.079 249.004 213.982C248.947 213.634 249.518 213.398 250.161 212.8C251.219 211.951 252.219 210.686 253.148 209.351C254.134 208.044 255.22 206.723 256.235 205.319L258.493 202.148L259.607 200.535L261.508 197.435L261.536 197.518V197.504Z" fill="#231F20"/>
<path d="M264.323 213.846C264.794 212.875 265.197 211.849 265.573 210.808C265.708 210.428 265.761 210.034 265.896 209.64C266.34 208.29 266.716 206.912 267.038 205.505C267.173 204.886 267.254 204.239 267.307 203.606C267.321 202.79 267.509 201.989 267.737 201.173C267.818 200.92 268.006 200.962 268.248 201.187C268.477 201.412 268.799 201.848 268.894 202.34C269.095 203.226 268.961 204.084 268.894 204.942C268.786 205.8 268.665 206.672 268.369 207.502C268.047 208.501 267.912 209.584 267.617 210.597C267.307 211.722 266.891 212.819 266.474 213.902C266.192 214.563 265.923 215.224 265.614 215.871C265.17 216.856 264.632 217.798 264.148 218.755C263.759 219.486 263.476 220.274 263.1 221.033C263.019 221.202 262.966 221.385 262.845 221.511C262.629 221.779 262.468 221.933 262.28 221.99C262.065 222.018 261.877 221.99 261.648 221.891C261.554 221.849 261.447 221.821 261.366 221.779C261.231 221.708 261.151 221.568 261.084 221.371C261.03 221.174 260.949 220.879 261.043 220.653C261.42 219.205 262.226 218.051 262.858 216.729C263.355 215.773 263.866 214.802 264.283 213.804H264.337L264.323 213.846Z" fill="#231F20"/>
<path d="M269.789 210.04C269.963 209.561 270.119 209.068 270.241 208.576C270.293 208.389 270.276 208.216 270.328 208.03C270.467 207.39 270.624 206.738 270.78 206.085C270.85 205.792 270.85 205.5 270.867 205.207C270.867 204.834 270.867 204.461 270.954 204.088C270.989 203.848 271.494 204.128 271.65 204.567C271.842 205.326 272.068 206.099 271.981 206.884C271.876 207.35 271.929 207.843 271.876 208.323C271.824 208.855 271.72 209.375 271.598 209.894C271.511 210.213 271.442 210.533 271.355 210.853C271.233 211.332 271.059 211.811 270.902 212.291C270.78 212.664 270.746 213.05 270.641 213.423C270.624 213.502 270.606 213.596 270.572 213.676C270.433 213.982 270.276 214.035 269.841 213.982C269.737 213.969 269.65 213.955 269.545 213.942C269.232 213.875 269.023 213.676 269.006 213.449C268.971 212.77 269.093 212.131 269.25 211.478C269.406 211.012 269.597 210.533 269.737 210.04H269.771H269.789Z" fill="#231F20"/>
<path d="M150.384 478.302C149.934 470.122 149.89 461.928 149.658 453.847C149.6 452.383 149.542 450.905 149.426 449.441C149.295 447.976 149.179 446.512 149.106 445.034C148.438 434.672 146.928 424.353 145.243 414.019C144.516 409.429 143.674 404.812 142.991 400.222L142.381 395.773C142.265 394.267 142.033 392.788 142.018 391.268C141.946 388.255 142.047 385.172 143.122 382.258C143.63 380.441 143.63 380.709 143.921 382.314C144.066 383.116 144.415 384.243 144.807 385.566C144.996 386.228 145.243 386.932 145.373 387.678C145.475 388.424 145.635 389.212 145.707 390.043C146.579 401.742 149.397 413.611 150.704 425.803C151.561 433.081 152.708 440.656 153.1 448.174C153.478 456.48 153.26 464.646 153.507 472.825C153.609 477.865 153.856 482.891 154.248 487.903C154.858 495.492 155.904 503.08 157.777 510.401C159.23 516.089 161.191 521.523 163.674 526.746C164.168 527.915 164.807 528.999 165.374 530.153C165.896 531.223 166.332 532.11 166.695 532.842C167.087 533.574 167.378 534.166 167.581 534.686C167.785 535.193 167.915 535.63 167.988 535.996C168.017 536.39 167.988 536.742 167.959 537.052C167.93 537.347 167.959 537.685 167.915 537.868C167.886 538.431 166.056 537.192 164.183 534.095C161.437 529.506 159.128 524.508 157.283 519.27C155.497 514.019 154.146 508.557 153.129 503.052C151.692 494.858 150.791 486.58 150.312 478.316H150.399L150.384 478.302Z" fill="#231F20"/>
<path d="M138.55 546.836C136.54 546.94 134.531 546.94 132.522 547C130.512 546.97 128.503 547 126.508 546.925C125.046 546.866 123.585 546.911 122.124 546.851C116.981 546.508 111.866 545.972 106.779 545.197C104.517 544.854 102.255 544.526 100.02 544.183C98.5872 543.915 97.1399 543.781 95.7206 543.393C95.0181 543.185 94.3014 543.006 93.627 542.738C92.9525 542.455 92.264 542.171 91.5754 541.873C90.7324 541.501 90.8588 541.471 91.6738 541.352C92.0813 541.292 92.6574 541.173 93.3459 541.039C93.6832 540.979 94.0626 540.875 94.456 540.845C94.8354 540.83 95.2429 540.845 95.6504 540.86C96.3811 540.949 97.1258 540.905 97.8424 541.039L100.006 541.382C101.44 541.635 102.887 541.799 104.334 542.022C105.782 542.246 107.229 542.44 108.676 542.618C110.123 542.812 111.585 543.066 113.046 543.23C116.545 543.721 120.227 543.736 123.824 543.796C125.805 543.826 127.786 543.87 129.768 543.826C131.749 543.826 133.73 543.751 135.711 543.647C138.156 543.557 140.587 543.319 143.018 543.08C146.686 542.633 150.381 542.171 153.936 541.247C154.625 541.069 155.313 540.875 156.002 540.696C156.676 540.472 157.337 540.234 157.997 539.996L159.978 539.28L161.917 538.46C162.494 538.222 163.028 537.954 163.618 537.745C164.672 537.298 165.36 537.015 165.922 537C166.498 537.03 166.92 537.224 167.327 537.551C167.51 537.7 167.721 537.82 167.861 537.954C168.086 538.192 168.03 538.52 167.749 539.012C167.482 539.489 166.962 540.07 166.161 540.502C161.51 543.185 156.1 544.63 150.69 545.569L147.669 546.061L144.634 546.404C142.611 546.672 140.573 546.747 138.55 546.925V546.836Z" fill="#231F20"/>
<path d="M77.4586 104.062C79.6179 102.727 81.5655 101.109 83.2167 99.2066C84.8821 97.3044 86.251 95.104 87.4224 92.7333C89.7511 87.9918 91.3317 82.6258 93.1523 77.2313C94.4789 73.299 95.8338 69.2816 97.7814 65.4771C101.112 58.734 106.08 52.7433 111.937 48.158C117.737 43.4592 124.568 40.0947 131.78 38.306L132.979 37.9937L134.207 37.795L136.649 37.3833C138.286 37.142 139.951 37.1278 141.588 37C143.24 37.0852 144.905 37.071 146.542 37.2555L148.984 37.6246L150.211 37.8092C150.607 37.8943 151.002 38.0079 151.411 38.1215L154.473 38.9306L157.437 40.0805C157.931 40.2793 158.439 40.4496 158.905 40.6768L160.302 41.4291C161.22 41.9402 162.193 42.3945 163.082 42.9765C164.804 44.2115 166.611 45.333 168.064 46.8804C168.826 47.6186 169.603 48.3284 170.322 49.0808C170.986 49.9041 171.522 50.8269 172.129 51.6786C173.554 53.879 173.202 53.6518 171.282 52.502C170.774 52.2181 170.195 51.8774 169.532 51.5083C169.363 51.4231 169.208 51.3095 168.996 51.2385C168.841 51.125 168.671 51.0114 168.502 50.8978C168.149 50.6707 167.754 50.472 167.373 50.2306C166.582 49.7764 165.764 49.2511 164.917 48.6833C164.508 48.3852 164.042 48.1296 163.576 47.8741C163.125 47.5902 162.673 47.3063 162.207 46.9939C160.641 45.7873 158.82 45.0633 157.127 44.098C155.292 43.445 153.542 42.579 151.623 42.1957L150.211 41.8266C149.746 41.6847 149.266 41.5853 148.786 41.5427L145.907 41.131C144.947 41.0316 143.959 41.0458 143 41.0033C142.52 41.0033 142.026 40.9465 141.546 40.9607L140.092 41.06C139.119 41.1594 138.145 41.1168 137.171 41.3014L134.264 41.784C133.29 41.9544 132.358 42.2667 131.399 42.4938L129.973 42.8629L128.576 43.374C124.794 44.5948 121.266 46.5397 117.864 48.6691C116.876 49.3647 115.874 50.0461 114.886 50.7559C113.955 51.5508 113.023 52.3458 112.092 53.1408C110.271 54.7875 108.564 56.5762 107.068 58.5494C104.005 62.4533 101.677 66.8967 99.8137 71.5529C97.7391 76.6635 96.2572 82.1005 94.3943 87.5518C92.5596 92.9746 90.0616 98.5678 85.9264 102.997C83.4284 105.751 80.3236 107.88 77.0917 109.513C73.8739 111.06 70.8396 112.466 67.8476 114.169C63.3597 116.71 58.9423 119.549 55.4564 123.184C53.7487 124.986 52.2245 127.017 51.6317 129.231C51.3354 130.338 51.2648 131.46 51.4624 132.539C51.6176 133.632 52.2104 134.64 52.8313 135.719C53.7487 137.38 55.0753 138.757 56.4443 140.006C57.9403 141.113 59.5209 142.135 61.3133 142.703C64.8133 143.952 68.6662 144.222 72.3497 143.555C73.1541 143.37 73.9586 143.228 74.7489 143.015C75.5251 142.76 76.3155 142.518 77.1058 142.263C79.9707 141.127 81.8619 140.332 83.1885 139.693C84.5857 139.168 85.3901 138.813 86.2228 138.728C86.5898 138.686 87.0414 138.558 87.3095 138.572C87.7611 138.6 87.5353 139.126 86.745 140.134C86.3498 140.63 85.8418 141.283 85.0797 141.922C84.3458 142.561 83.4849 143.342 82.3699 143.995C79.1381 146.082 75.3275 147.303 71.3618 147.814C67.396 148.282 63.1762 147.899 59.2387 146.309C58.2366 145.954 57.3334 145.372 56.3596 144.903C55.4423 144.336 54.5531 143.711 53.6922 143.058C52.9019 142.306 52.0269 141.624 51.3354 140.787L50.3051 139.509L49.7971 138.856L49.3737 138.16C48.8232 137.195 48.2164 136.386 47.7648 135.122C47.4966 134.555 47.3837 133.902 47.2144 133.277C47.1156 132.638 47.0168 131.985 47.0027 131.332C46.9462 128.706 47.793 126.264 48.922 124.277C50.6156 121.324 52.8737 119.081 55.1882 117.122C57.5169 115.163 59.9726 113.474 62.4706 111.926C64.9827 110.393 67.5371 108.988 70.1339 107.696C71.4323 107.043 72.7449 106.418 74.0291 105.822C75.2288 105.24 76.3437 104.658 77.4304 103.976L77.501 104.062H77.4586Z" fill="#231F20"/>
<path d="M151.001 116.751C151.126 117.514 151.237 118.291 151.32 119.068L151.417 120.254L151.444 120.862C151.472 121.215 151.458 121.554 151.444 121.907C151.444 123.292 151.167 124.577 150.517 125.368C150.212 125.764 149.686 126.131 149.188 126.216L148.412 126.244C148.163 126.272 147.859 126.117 147.582 126.06C147.305 126.004 147.014 125.877 146.737 125.735C146.46 125.594 146.17 125.509 145.893 125.297L145.076 124.761C144.813 124.577 144.536 124.309 144.397 124.21C143.761 123.645 143.207 123.037 142.695 122.43C141.67 121.215 140.812 119.986 139.953 118.785C138.721 117.034 137.42 115.409 136.077 113.997C134.9 112.753 133.585 111.751 132.187 111.298C130.789 110.846 129.238 110.974 127.701 111.524C126.441 111.962 125.375 113.163 124.891 114.646C124.379 116.13 124.379 117.853 124.739 119.548C125.389 122.599 126.968 125.467 129.529 126.865C131.149 127.784 133.059 128.137 134.97 128.165C136.894 128.222 138.832 127.981 140.895 127.77C142.293 127.911 142.127 127.798 141.324 128.9C140.923 129.465 140.244 130.072 139.317 130.736C138.389 131.343 137.171 131.81 135.786 131.965C133.336 132.134 130.733 131.697 128.366 130.482C127.175 129.903 126.109 129.055 125.14 128.123C124.226 127.134 123.437 126.046 122.856 124.888C122.26 123.701 121.831 122.585 121.513 121.356C121.194 120.141 120.987 118.856 121.001 117.528C120.973 114.915 121.831 112.005 123.977 110.055C124.6 109.476 125.32 108.982 126.137 108.643C126.94 108.318 127.591 108.134 128.38 107.979C129.889 107.668 131.564 107.682 133.114 108.162C136.243 109.151 138.403 111.426 140.133 113.587C142.044 116.002 143.608 118.545 145.422 120.636C145.657 120.89 145.879 121.144 146.114 121.37C146.322 121.596 146.668 121.879 146.723 121.935C146.959 122.119 147.208 122.303 147.499 122.416C147.637 122.458 147.817 122.571 147.942 122.458C148.066 122.359 148.108 122.19 148.135 122.048C148.205 121.738 148.205 121.413 148.205 121.074C148.039 117.599 147.236 114.011 146.28 110.55L145.699 108.572C145.588 108.134 145.63 107.795 145.588 107.4C145.713 107.061 145.948 106.806 146.336 106.609C146.696 106.411 147.139 106.255 147.568 106.1L148.634 105.719L152.067 104.433C154.352 103.586 156.525 102.441 158.588 101.212C162.132 99.0653 165.247 96.3531 167.78 93.2171C168.334 92.5249 168.819 91.8044 169.331 91.084C170.272 89.7279 170.799 88.7956 171.325 88.2164C171.865 87.6514 172.308 87.3689 172.847 87.2135C173.083 87.1428 173.346 87.0157 173.54 87.0016C173.886 86.9733 174.024 87.3265 173.997 88.0469C173.955 88.7532 173.734 89.8268 173.083 91.0134C171.228 94.5732 168.445 97.7092 165.261 100.28C162.077 102.865 158.449 104.871 154.767 106.594C153.396 107.315 151.998 108.035 150.531 108.544L149.451 108.939L149.312 108.982H149.298C149.285 108.982 149.271 108.982 149.271 108.996C149.271 109.038 149.243 108.939 149.285 109.095L149.589 110.168L150.157 112.344C150.517 113.799 150.821 115.268 151.084 116.765L151.001 116.794V116.751Z" fill="#231F20"/>
<path d="M105.129 234.95C101.213 243.467 97.8365 252.224 94.7292 261.106C93.5941 264.353 92.6293 267.642 91.5793 270.903C87.8761 282.428 84.6552 294.107 81.6472 305.871C80.3135 311.086 79.0791 316.356 77.8021 321.571C76.9792 324.916 76.1562 328.275 75.163 331.606C74.0989 334.909 73.1057 338.31 70.6085 341.205C69.6578 342.007 69.0193 342.077 69.0051 341.95C68.9484 341.796 69.374 341.374 69.6436 340.489C69.899 339.603 70.2254 338.423 70.5233 336.933C70.8071 335.443 71.1902 333.714 71.7861 331.873C73.7725 325.281 75.3333 318.436 77.0217 311.634C78.696 304.817 80.4412 297.986 82.3851 291.17C84.712 283.018 86.8828 274.458 89.4936 266.166C92.3597 257.058 95.6089 248.049 99.3547 239.237C101.639 233.812 104.15 228.471 106.846 223.228C110.933 215.287 115.615 207.585 120.822 200.375C124.88 194.781 129.123 189.44 134.003 184.563C135.096 183.509 136.132 182.427 137.281 181.429C141.679 177.817 143.425 177.086 144.914 177.086C145.241 177.072 145.624 176.988 145.837 177.002C146.504 177.016 145.099 178.969 142.148 181.71C137.849 185.856 133.521 190.157 129.577 194.936C125.618 199.7 121.915 204.788 118.524 210.115C113.487 218.014 109.06 226.391 105.186 235.006L105.101 234.978L105.129 234.95Z" fill="#231F20"/>
<path d="M182.668 288.528C184.916 288.612 187.363 288.134 189.753 287.459C192.157 286.77 194.532 285.841 196.851 284.786C201.518 282.662 206.001 280.059 210.286 277.147C213.425 275.036 216.395 272.687 219.28 270.267C221.825 268.129 224.3 265.906 226.563 263.5C227.694 262.305 228.783 261.067 229.801 259.772C230.282 259.125 230.805 258.478 231.243 257.803C231.455 257.465 231.71 257.141 231.908 256.79L232.36 256.03V255.116C232.36 254.708 232.36 254.3 232.332 253.892C232.318 253.076 232.233 252.26 232.162 251.444C231.993 249.826 231.724 248.208 231.328 246.632C230.522 243.495 229.207 240.456 227.213 237.938C226.775 237.375 226.294 236.855 225.799 236.348L225.318 235.912C225.247 235.8 225.148 235.87 225.064 235.884C224.979 235.912 224.894 235.926 224.809 235.968L223.932 236.348L222.942 236.841C222.278 237.164 221.627 237.53 220.977 237.882C218.361 239.317 215.773 240.822 213.185 242.299C209.862 244.213 206.524 246.098 203.045 247.786C199.581 249.474 196.045 251.12 192.171 251.866C189.696 252.147 190.092 251.936 191.973 251.247C192.892 250.825 194.165 250.192 195.635 249.291C197.12 248.447 198.874 247.462 200.783 246.421C204.177 244.578 207.514 242.581 210.908 240.681C214.302 238.754 217.639 236.77 221.146 234.885L222.49 234.196C222.702 234.083 222.971 233.971 223.211 233.858L223.579 233.689C223.706 233.633 223.932 233.506 224.144 233.45L225.502 233.084L225.841 233L226.096 233.211L226.591 233.633L227.567 234.463L228.118 235.04C229.589 236.587 230.791 238.346 231.738 240.203C233.619 243.945 234.538 248.025 234.849 252.063C234.948 253.273 234.991 254.497 234.991 255.706V256.396C234.991 256.522 235.019 256.649 234.977 256.776L234.793 257.099L234.241 258.056C233.93 258.605 233.563 259.111 233.237 259.632C231.837 261.686 230.268 263.585 228.613 265.414C225.29 269.043 221.655 272.378 217.837 275.402C213.637 278.736 209.211 281.761 204.559 284.462C199.906 287.135 195.013 289.513 189.724 291.004C188.084 291.426 186.415 291.806 184.676 291.933C182.951 292.101 181.098 291.933 179.5 291.651C176.177 291.117 172.938 290.216 169.827 289.063C160.353 285.489 152.023 279.665 144.387 273.447C138.448 268.593 132.862 263.557 127.488 258.239C126.3 257.071 125.126 255.946 123.967 254.736C119.781 250.149 118.607 248.658 118.324 247.054C118.24 246.717 118.056 246.323 118.013 246.098C117.787 245.394 120.474 246.393 123.755 249.573C126.286 251.824 128.69 254.215 131.151 256.593C133.611 258.97 136.114 261.334 138.674 263.669C143.793 268.326 149.153 272.842 154.866 276.795C159.122 279.707 163.534 282.394 168.201 284.462C170.534 285.489 172.91 286.404 175.357 287.065C176.573 287.445 177.803 287.67 179.033 287.951C180.235 288.12 181.593 288.401 182.625 288.43V288.514L182.668 288.528Z" fill="#231F20"/>
<path d="M160.113 200.369C161.124 200.984 162.193 201.569 163.291 202.092C163.701 202.276 164.126 202.369 164.536 202.538C165.986 203.138 167.494 203.599 169.032 203.968C169.72 204.122 170.423 204.23 171.111 204.26C172.005 204.337 172.898 204.307 173.791 204.445C174.069 204.491 174.055 204.768 173.835 205.076C173.615 205.383 173.161 205.768 172.62 205.845C170.701 206.045 168.71 206.168 166.85 205.46C165.737 205.076 164.536 204.922 163.408 204.507C162.163 204.091 160.963 203.538 159.806 202.892C159.103 202.461 158.4 202.046 157.741 201.569C156.73 200.861 155.764 200.077 154.87 199.216C154.153 198.585 153.45 197.939 152.791 197.247C152.644 197.093 152.513 196.939 152.381 196.755C151.927 196.093 151.912 195.786 152.161 195.401C152.22 195.309 152.264 195.217 152.337 195.14C152.557 194.894 152.967 194.986 153.406 195.309C154.621 196.355 155.881 197.339 157.17 198.293C157.638 198.662 158.107 199.031 158.605 199.339C159.088 199.692 159.601 200 160.128 200.292L160.099 200.338L160.113 200.369Z" fill="#231F20"/>
<path d="M169 124.717C169 126.063 169.358 127.48 169.859 128.728C170.56 130.485 171.605 132.157 173.28 133.164C175.055 134.212 177.388 134.297 179.206 133.291C180.881 132.356 181.855 130.627 182.513 128.898C183.143 127.268 183.429 125.553 183.93 123.881C184.489 121.996 181.525 121.188 180.967 123.073C180.581 124.377 180.337 125.709 179.937 126.999C179.836 127.339 179.707 127.679 179.579 128.019C179.55 128.104 179.521 128.175 179.493 128.26C179.407 128.473 179.593 128.033 179.493 128.246C179.407 128.43 179.321 128.628 179.221 128.813C179.063 129.124 178.892 129.422 178.691 129.705C178.648 129.776 178.605 129.833 178.548 129.904C178.748 129.635 178.591 129.847 178.534 129.904C178.405 130.046 178.276 130.187 178.133 130.315C178.076 130.372 178.018 130.414 177.961 130.471C178.276 130.301 177.789 130.613 177.961 130.471C177.832 130.542 177.703 130.627 177.56 130.712C177.489 130.754 177.417 130.783 177.346 130.811C177.646 130.669 177.46 130.768 177.388 130.783C177.188 130.839 177.002 130.896 176.802 130.938C176.415 131.024 177.016 130.938 176.759 130.938C176.673 130.938 176.587 130.938 176.487 130.938C176.286 130.938 176.072 130.938 175.871 130.91C176.2 130.953 175.714 130.868 175.628 130.839C175.513 130.811 174.969 130.584 175.284 130.74C175.141 130.669 174.984 130.598 174.855 130.513C174.769 130.457 174.683 130.4 174.597 130.343C174.554 130.315 174.354 130.159 174.511 130.287C174.64 130.386 174.268 130.074 174.211 130.003C174.067 129.861 173.939 129.705 173.795 129.55C173.753 129.493 173.624 129.323 173.795 129.564C173.753 129.493 173.695 129.436 173.652 129.365C173.552 129.209 173.452 129.054 173.352 128.898C173.166 128.586 172.994 128.26 172.851 127.92C172.751 127.693 172.98 128.26 172.851 127.891C172.822 127.792 172.779 127.707 172.751 127.608C172.679 127.424 172.622 127.239 172.564 127.055C172.45 126.715 172.364 126.361 172.278 126.007C172.249 125.851 172.207 125.681 172.178 125.525C172.178 125.454 172.149 125.369 172.135 125.298C172.078 125.029 172.149 125.596 172.135 125.411C172.135 125.17 172.092 124.929 172.078 124.688C172.063 122.733 168.986 122.719 169 124.688V124.717Z" fill="#231F20"/>
<path d="M195.044 126.094C194.779 126.781 194.514 127.468 194.249 128.155C194.18 128.33 194.11 128.505 194.026 128.694C193.901 129.017 194.082 128.586 193.957 128.856C193.831 129.125 193.692 129.421 193.538 129.691C193.385 129.96 193.246 130.203 193.078 130.459C193.051 130.513 192.73 130.93 192.939 130.661C192.855 130.755 192.786 130.849 192.688 130.944C192.493 131.159 192.27 131.361 192.047 131.55C191.908 131.658 191.908 131.658 192.047 131.55C191.977 131.604 191.894 131.658 191.824 131.698C191.726 131.765 191.629 131.819 191.531 131.873C191.434 131.927 191.322 131.968 191.225 132.021C191.601 131.846 191.266 131.994 191.169 132.021C191.057 132.048 190.946 132.062 190.834 132.102C190.556 132.197 191.169 132.102 190.793 132.102C190.681 132.102 190.556 132.102 190.444 132.102C190.388 132.102 189.984 132.048 190.235 132.102C190.486 132.156 190.068 132.062 190.026 132.048C189.914 132.021 189.789 131.968 189.677 131.941C189.58 131.9 189.608 131.914 189.789 131.981C189.719 131.954 189.65 131.914 189.594 131.887C189.482 131.819 189.371 131.752 189.245 131.685C188.925 131.496 189.329 131.792 189.12 131.59C189.008 131.496 188.897 131.402 188.799 131.294C188.688 131.186 188.59 131.078 188.493 130.957C188.674 131.159 188.381 130.796 188.339 130.742C188.116 130.418 187.935 130.082 187.768 129.731C187.419 129.017 186.374 128.842 185.719 129.206C184.966 129.637 184.841 130.472 185.175 131.186C186.193 133.301 188.27 135.187 190.834 134.985C193.274 134.797 195.128 133.018 196.187 130.998C196.898 129.664 197.386 128.223 197.929 126.821C198.208 126.108 197.623 125.205 196.884 125.043C196.034 124.855 195.337 125.299 195.044 126.054V126.094Z" fill="#231F20"/>
<path d="M191.445 116.835C190.227 118.508 189.266 120.449 188.657 122.573C188.414 123.333 188.346 124.149 188.183 124.95C187.615 127.763 187.561 130.731 187.791 133.699C187.899 135.021 188.143 136.329 188.454 137.595C188.671 138.411 188.887 139.227 189.144 140.014L189.32 140.619L189.415 141.252C189.483 141.674 189.55 142.096 189.618 142.532C189.686 143.081 189.456 143.109 188.982 142.813C188.738 142.673 188.427 142.448 188.075 142.166C187.764 141.871 187.263 141.548 187.128 141.055C185.801 137.694 184.813 134.051 185.03 130.309C185.138 128.087 185.057 125.78 185.504 123.516C185.977 121.04 186.816 118.621 188.089 116.441C188.495 115.78 188.887 115.104 189.388 114.514L190.092 113.599L190.89 112.77C192.433 111.054 194.612 109.731 196.927 109.281C198.713 108.902 200.568 108.902 202.327 109.31C202.72 109.394 203.099 109.464 203.478 109.605C204.168 109.872 204.56 110.182 204.763 110.533C204.966 110.871 205.021 111.18 204.994 111.574C204.98 111.757 204.994 111.94 204.953 112.08C204.831 112.587 204.127 112.756 203.139 112.756C200.419 112.235 197.983 111.926 195.844 112.981C195.046 113.36 194.288 113.881 193.57 114.57L192.487 115.667L191.54 116.891L191.472 116.849L191.445 116.835Z" fill="#231F20"/>
<path d="M184.803 107.544C183.628 104.952 180.779 104.015 178.12 104C175.433 104 172.716 104.688 170.219 105.596C169.382 105.904 168.809 106.709 169.059 107.617C169.279 108.422 170.249 109.067 171.086 108.774C172.143 108.393 173.23 108.056 174.331 107.793C174.919 107.646 175.506 107.529 176.094 107.441C176.152 107.441 176.593 107.368 176.299 107.412C176.461 107.397 176.622 107.368 176.784 107.353C177.078 107.324 177.357 107.309 177.65 107.295C177.944 107.28 178.223 107.295 178.502 107.295C178.634 107.295 178.752 107.295 178.884 107.309C178.928 107.309 179.383 107.353 179.178 107.339C178.958 107.309 179.339 107.368 179.383 107.383C179.516 107.412 179.662 107.441 179.795 107.47C180.044 107.529 180.279 107.617 180.514 107.69C180.705 107.763 180.279 107.558 180.544 107.705C180.661 107.763 180.779 107.822 180.896 107.895C181.014 107.968 181.116 108.042 181.219 108.115C181.043 107.983 181.116 108.027 181.234 108.144C181.307 108.217 181.381 108.305 181.469 108.378C181.748 108.642 181.337 108.129 181.542 108.466C181.689 108.7 181.836 108.935 181.954 109.198C182.321 110.004 183.496 110.209 184.215 109.784C185.052 109.301 185.17 108.349 184.803 107.529V107.544Z" fill="#231F20"/>
<path d="M183.161 154.973C182.34 156.388 181.327 157.304 180.209 157.665C179.807 157.804 179.353 157.998 178.882 157.998C178.061 158.026 177.118 157.776 176.664 157.235C176.192 156.763 176.052 156.194 176 155.514C176 155.195 176 154.89 176.105 154.557C176.157 154.39 176.157 154.237 176.192 154.085C176.262 153.918 176.314 153.752 176.402 153.599C176.524 153.391 176.559 153.183 176.681 152.989C176.803 152.808 177.013 152.572 177.1 152.447C177.31 152.198 177.589 151.976 177.921 151.809C178.131 151.712 178.375 151.92 178.585 152.225C178.777 152.531 179.039 152.919 178.987 153.169C178.987 153.211 178.969 153.308 178.952 153.308C178.987 153.308 178.934 153.294 178.952 153.308C178.952 153.308 178.917 153.308 178.882 153.349C178.812 153.405 178.672 153.544 178.533 153.918C178.375 154.432 178.847 154.362 179.056 154.321C179.336 154.307 179.545 154.126 179.773 153.877C179.912 153.724 180.069 153.53 180.139 153.294C180.279 152.961 180.244 152.461 179.807 152.239C179.738 152.198 179.598 152.17 179.598 152.212C179.598 152.212 179.58 152.239 179.563 152.253L179.615 151.962V151.99V152.031C179.615 152.156 179.79 152.364 179.738 152.309C179.72 152.295 179.65 152.239 179.546 152.212C179.353 152.128 179.214 152.142 179.196 152.156C179.196 152.156 179.231 152.156 179.161 152.156C179.074 152.184 178.969 152.225 178.864 152.267C178.672 152.35 178.515 152.447 178.34 152.545C178.061 152.697 177.781 152.808 177.397 152.739C177.03 152.683 176.524 152.364 176.489 151.865C176.384 151.143 176.664 150.505 177.17 150.019C177.659 149.533 178.428 149.103 179.528 149.006C180.663 148.951 181.484 149.284 181.921 149.506C182.445 149.769 182.899 150.116 183.231 150.546C183.737 151.171 184.017 151.934 183.999 152.725C183.999 153.516 183.667 154.321 183.266 155.028L183.178 155.001L183.161 154.973Z" fill="#231F20"/>
</svg>
