<svg width="769" height="389" viewBox="0 0 769 389" fill="none" xmlns="http://www.w3.org/2000/svg">
<g clip-path="url(#clip0_389_3140)">
<path d="M418.801 366.49C428.741 373.64 440.611 371.85 448.801 368.9L444.801 376.46L449.201 378.15C449.201 378.15 451.991 371.43 455.291 365.15L449.661 360C438.021 365.3 412.841 362.2 418.801 366.49Z" fill="#221F1F"/>
<path d="M454.341 362.4L456.081 364C456.471 364.42 457.261 364.78 456.691 365.31L455.911 366.8C455.291 367.98 454.731 369.07 454.161 370.22C453.031 372.51 451.941 374.81 450.901 377.14L449.901 379.56L444.411 377.45L443.351 377.03L445.991 372.17L446.371 371.47L446.561 371.17C446.671 370.96 446.841 370.7 446.941 370.5C446.671 370.57 446.381 370.66 446.061 370.73L443.971 371.24C442.221 371.613 440.452 371.887 438.671 372.06C435.689 372.351 432.683 372.27 429.721 371.82C427.816 371.532 425.946 371.046 424.141 370.37C423.24 370.023 422.364 369.612 421.521 369.14C421.101 368.9 420.681 368.66 420.271 368.41L419.101 367.56C418.101 366.84 418.611 366.5 419.731 366.56C421.344 366.801 422.918 367.255 424.411 367.91C425.221 368.3 426.101 368.53 426.941 368.84C427.781 369.15 428.671 369.34 429.571 369.47C431.353 369.823 433.164 370.011 434.981 370.03C436.82 370.054 438.658 369.944 440.481 369.7L441.861 369.5L443.231 369.25C443.691 369.18 444.141 369.06 444.601 368.96L445.341 368.79L446.581 368.43C448.081 368 449.511 367.53 450.981 367.05L446.291 375.89L447.861 376.51L448.761 376.87L449.761 374.61L451.201 371.51L452.701 368.44L453.471 366.92L454.151 365.63C454.221 365.45 454.461 365.22 454.231 365.13L453.641 364.58L451.881 363L450.131 361.39L449.551 360.85C449.481 360.78 449.371 360.85 449.281 360.92L448.911 361.06C444.251 362.79 439.351 363.28 434.581 363.77L423.581 364.77C422.781 364.86 422.011 364.97 421.231 365.08C420.451 365.19 419.921 365.28 419.471 365.38C419.021 365.48 418.711 365.62 418.671 365.58C418.391 365.3 418.261 365.37 418.421 365.36C418.421 365.36 418.701 365.29 418.601 365.36C418.594 365.386 418.594 365.414 418.601 365.44C418.588 365.623 418.588 365.807 418.601 365.99C418.601 366.18 418.691 366.4 418.691 366.56C418.691 366.72 418.371 366.89 417.771 366.56C417.571 366.44 417.4 366.276 417.271 366.08C417.152 365.917 417.073 365.729 417.041 365.53C417.003 365.255 417.052 364.975 417.181 364.73C417.381 364.36 417.693 364.063 418.071 363.88C418.351 363.727 418.646 363.603 418.951 363.51C420.628 363.064 422.342 362.766 424.071 362.62C425.751 362.44 427.451 362.3 429.151 362.16C432.551 361.89 435.971 361.62 439.351 361.16C441.836 360.846 444.291 360.328 446.691 359.61L447.561 359.32L447.991 359.17L448.581 358.93L449.461 358.56L449.901 358.37C450.021 358.45 450.131 358.58 450.251 358.68L451.471 359.79L454.341 362.41V362.4Z" fill="#221F1F"/>
<path d="M532.792 340.42C532.314 339.817 531.706 339.33 531.013 338.996C530.32 338.661 529.561 338.488 528.792 338.49C527.019 338.579 525.291 339.075 523.742 339.94C522.524 340.607 521.354 341.359 520.242 342.19C516.176 345.196 512.436 348.618 509.082 352.4C507.552 354.07 506.132 355.85 504.762 357.64C503.012 359.94 501.432 362.37 499.512 364.55C498.332 365.92 497.512 362.55 499.512 359.81C503.053 354.917 507.073 350.388 511.512 346.29C514.191 343.675 517.066 341.268 520.112 339.09C521.877 337.89 523.812 336.959 525.852 336.33C526.928 336.009 528.049 335.864 529.172 335.9C530.339 335.934 531.482 336.238 532.512 336.79C533.721 337.487 534.749 338.46 535.512 339.63C536.246 340.723 536.837 341.906 537.272 343.15C538.44 346.8 539.139 350.584 539.352 354.41C539.602 357.33 539.842 360.18 539.922 363.07C539.922 363.71 539.982 364.33 539.982 364.97C539.982 367.35 539.732 368.09 538.982 368.57C538.83 368.691 538.666 368.795 538.492 368.88C537.932 369.08 537.492 368.1 537.422 366.38C537.092 361.31 537.022 355.97 536.302 350.78C536.057 348.885 535.662 347.012 535.122 345.18C534.656 343.467 533.85 341.865 532.752 340.47L532.792 340.42Z" fill="#221F1F"/>
<path d="M555.182 54.7001C554.862 55.8801 554.112 58.9401 552.472 58.8001C550.472 58.6301 551.692 55.1601 551.962 54.0501C552.232 52.9401 550.122 53.3201 549.902 54.2101C549.468 55.4724 549.288 56.808 549.372 58.1401C549.492 58.8009 549.86 59.3908 550.401 59.7887C550.942 60.1866 551.615 60.3624 552.282 60.2801C555.352 60.2001 556.552 57.0401 557.282 54.5401C557.542 53.6001 555.472 53.8301 555.222 54.7001H555.182Z" fill="#221F1F"/>
<path d="M542.851 55C542.541 56.11 542.021 58.75 540.671 59.1C539.891 59.3 539.671 58.95 539.561 58.28C539.528 57.1455 539.565 56.01 539.671 54.88C539.671 53.88 537.671 54.14 537.671 55.04C537.621 56.35 537.251 58.04 537.671 59.37C538.041 60.48 539.551 60.68 540.561 60.56C543.381 60.23 544.291 57.15 544.931 54.84C545.191 53.89 543.121 54.12 542.881 55H542.851Z" fill="#221F1F"/>
<path d="M201.601 68.4101C200.225 68.3216 198.885 67.9353 197.673 67.278C196.461 66.6206 195.407 65.7078 194.582 64.6028C193.758 63.4978 193.183 62.2269 192.898 60.8779C192.613 59.529 192.624 58.1342 192.931 56.7901C194.251 49.9101 199.261 51.0201 203.771 54.0201C203.711 49.8701 202.491 45.6901 204.121 41.5301C206.941 34.3801 215.121 35.6401 220.871 38.0901C256.801 53.4001 269.981 13.6001 242.081 4.0901C242.081 4.0901 208.501 -7.10989 190.891 16.9301C190.231 17.7001 166.451 15.2101 164.661 42.5301C161.981 83.6701 201.301 85.7801 201.601 68.4101Z" fill="#221F1F"/>
<path d="M195.431 9.31011C198.508 6.73001 201.965 4.64194 205.681 3.12012C209.379 1.65776 213.252 0.682906 217.201 0.220116C225.018 -0.638323 232.926 -0.0347166 240.521 2.00012C243.373 2.73747 246.094 3.90774 248.591 5.47012C251.154 7.03981 253.364 9.12363 255.081 11.5901C256.601 13.7765 257.653 16.2538 258.169 18.8663C258.685 21.4788 258.655 24.1698 258.081 26.7701C257.508 29.3465 256.424 31.7818 254.894 33.9322C253.363 36.0826 251.418 37.9045 249.171 39.2901C246.963 40.6773 244.519 41.6468 241.961 42.1501C239.448 42.6814 236.871 42.8464 234.311 42.6401C233.043 42.5653 231.781 42.415 230.531 42.1901C229.291 41.9601 228.061 41.6601 226.841 41.3501C225.621 41.0401 224.421 40.6401 223.251 40.1801L219.801 38.8101C217.884 38.0138 215.864 37.492 213.801 37.2601C211.84 36.9938 209.845 37.3432 208.091 38.2601C206.456 39.293 205.287 40.9211 204.831 42.8001C204.348 44.7824 204.236 46.8371 204.501 48.8601L204.631 50.1701L204.811 52.1701L204.911 54.1701V55.1701V55.6801C204.931 55.7385 204.931 55.8018 204.911 55.8601V55.9901L202.421 54.4501L201.151 53.7501C200.803 53.572 200.446 53.4118 200.081 53.2701C199.178 52.8923 198.196 52.7413 197.221 52.8301C196.812 52.8961 196.422 53.0489 196.077 53.2783C195.732 53.5077 195.44 53.8084 195.221 54.1601C194.72 55.0245 194.381 55.9735 194.221 56.9601C193.819 58.9998 194.122 61.1157 195.081 62.9601C196.051 64.792 197.676 66.1915 199.631 66.8801L201.241 67.4201C201.591 67.5601 201.751 67.7101 201.721 67.8501C201.691 67.9901 200.801 68.5101 199.211 68.4201C198.068 68.3119 196.958 67.9777 195.945 67.4369C194.932 66.8962 194.037 66.1597 193.311 65.2701C192.245 64.0667 191.481 62.6271 191.081 61.0701C190.657 59.3053 190.657 57.4649 191.081 55.7001C191.359 54.3012 191.966 52.9885 192.851 51.8701C193.116 51.5589 193.407 51.2711 193.721 51.0101C194.035 50.7506 194.37 50.5165 194.721 50.3101C195.109 50.1399 195.506 49.993 195.911 49.8701C196.302 49.7735 196.7 49.71 197.101 49.6801C198.52 49.6309 199.932 49.8902 201.241 50.4401L201.401 50.5101C201.401 50.7701 201.341 49.8501 201.301 49.3401C201.261 48.8301 201.211 48.1601 201.191 47.5501C200.99 44.936 201.469 42.3143 202.581 39.9401C203.183 38.6528 204.062 37.5141 205.154 36.6049C206.247 35.6958 207.526 35.0386 208.901 34.6801C211.437 34.0828 214.08 34.1137 216.601 34.7701C217.797 35.048 218.973 35.4054 220.121 35.8401L223.321 37.1301C223.831 37.3301 224.321 37.5501 224.861 37.7301L226.431 38.2301C227.47 38.5775 228.529 38.8646 229.601 39.0901C230.661 39.335 231.732 39.5253 232.811 39.6601C233.347 39.7448 233.888 39.7949 234.431 39.8101C234.971 39.8101 235.511 39.9001 236.051 39.9101C238.207 39.9338 240.356 39.6886 242.451 39.1801C245.569 38.3965 248.42 36.7947 250.711 34.5401C251.008 34.2656 251.282 33.968 251.531 33.6501C251.781 33.3401 252.061 33.0501 252.301 32.7201C252.775 32.0826 253.206 31.4145 253.591 30.7201C254.375 29.3037 254.938 27.7762 255.261 26.1901C255.585 24.5985 255.686 22.9695 255.561 21.3501C255.403 19.7326 255.012 18.1463 254.401 16.6401C253.186 13.6121 251.171 10.9714 248.571 9.00012C248.226 8.70794 247.858 8.44377 247.471 8.21011L246.321 7.47012C245.521 7.04012 244.711 6.62012 243.891 6.23012C243.071 5.84012 242.171 5.52012 241.341 5.23012C240.511 4.94012 239.551 4.71011 238.641 4.49011C234.975 3.60117 231.237 3.03897 227.471 2.81011C219.971 2.37011 212.281 3.26012 205.471 6.37012C203.356 7.30273 201.345 8.45577 199.471 9.81011C198.993 10.1178 198.532 10.4517 198.091 10.8101C197.651 11.1801 197.201 11.5301 196.761 11.9101C195.941 12.7001 195.061 13.4501 194.311 14.3301C193.931 14.7501 193.511 15.1601 193.151 15.6101L192.081 17.0001C191.947 17.184 191.8 17.3578 191.641 17.5201L191.411 17.7401C191.291 17.7401 191.221 17.8401 191.111 17.8701L190.821 17.9801H190.491C190.292 18.0137 190.092 18.0371 189.891 18.0501L188.131 18.1901C185.84 18.3821 183.577 18.8213 181.381 19.5001C178.078 20.504 175.062 22.2796 172.581 24.6801C170.142 27.1393 168.313 30.1362 167.241 33.4301C166.146 36.7577 165.547 40.2281 165.461 43.7301C165.277 47.2522 165.485 50.7839 166.081 54.2601C166.841 59.5687 168.96 64.591 172.231 68.8401C175.431 72.9767 179.977 75.8635 185.081 77.0001C187.27 77.4628 189.526 77.5069 191.731 77.1301C193.416 76.8559 195.029 76.2436 196.471 75.3301C196.991 74.9895 197.486 74.6118 197.951 74.2001C198.311 73.7801 198.701 73.4501 198.951 73.0801C199.209 72.7598 199.449 72.426 199.671 72.0801C199.861 71.7501 200.041 71.4601 200.221 71.2001C200.469 70.7043 200.747 70.2234 201.051 69.7601C201.241 69.3449 201.455 68.9409 201.691 68.5501C201.861 68.3401 202.001 68.4001 202.101 68.7501C202.171 68.9881 202.214 69.2328 202.231 69.4801C202.287 69.8614 202.287 70.2488 202.231 70.6301C202.129 71.7937 201.789 72.9239 201.231 73.9501C200.468 75.4241 199.347 76.6826 197.971 77.6101C195.715 79.1579 193.082 80.0667 190.351 80.2401C187.653 80.4556 184.938 80.157 182.351 79.3601C177.126 77.7202 172.568 74.4418 169.351 70.0101C166.164 65.5923 164.067 60.4832 163.231 55.1001C163.131 54.4401 162.991 53.7701 162.911 53.1001L162.711 51.1001C162.541 49.7601 162.571 48.4301 162.511 47.1001C162.476 44.4256 162.633 41.7521 162.981 39.1001C163.253 37.0668 163.695 35.0598 164.301 33.1001C164.946 31.1293 165.79 29.2294 166.821 27.4301C168.979 23.7798 172.09 20.786 175.821 18.7701C179.478 16.8534 183.485 15.6968 187.601 15.3701L189.791 15.1801C189.551 15.5101 190.491 14.3101 191.061 13.5901C191.631 12.8701 192.421 12.0901 193.121 11.3601C193.821 10.6301 194.571 9.94012 195.361 9.30012L195.431 9.31011Z" fill="#221F1F"/>
<path d="M195.981 80.2803C195.017 85.1245 193.293 89.7855 190.871 94.0903C190.171 95.2703 192.671 95.2903 193.221 94.3703C195.714 89.9161 197.489 85.097 198.481 80.0903C198.741 78.9003 196.231 79.2003 195.981 80.2803Z" fill="#221F1F"/>
<path d="M270.531 178.35C265.971 182.45 260.531 187.43 260.071 193.95C259.981 195.26 262.761 194.8 262.841 193.69C263.291 187.51 268.471 182.9 272.841 179.02C274.081 177.91 271.381 177.63 270.571 178.35H270.531Z" fill="#221F1F"/>
<path d="M240.431 169.1C239.634 168.687 238.892 168.176 238.221 167.58C237.614 166.986 237.055 166.344 236.551 165.66C235.599 164.349 234.788 162.941 234.131 161.46C232.902 158.606 231.899 155.661 231.131 152.65C230.551 150.48 229.941 148.33 229.461 146.16C227.751 138.5 226.401 130.81 224.371 123.32C223.493 120.007 222.349 116.77 220.951 113.64C220.045 111.689 218.974 109.819 217.751 108.05C216.549 106.344 215.084 104.838 213.411 103.59C212.411 102.85 212.741 102.35 214.081 102.47C215.145 102.652 216.162 103.044 217.073 103.625C217.983 104.205 218.768 104.962 219.381 105.85C220.811 107.75 222.019 109.806 222.981 111.98C223.938 114.094 224.763 116.264 225.451 118.48C226.803 122.857 227.901 127.307 228.741 131.81C229.801 137.17 231.051 142.69 232.361 148.07C233.081 151.07 233.861 153.95 234.841 156.8C235.743 159.624 237.094 162.285 238.841 164.68C239.121 165.01 239.431 165.32 239.721 165.68C240.036 165.975 240.37 166.249 240.721 166.5C241.422 166.992 242.204 167.357 243.031 167.58C244.776 168.122 246.572 168.484 248.391 168.66C253.991 169.2 259.751 169.17 265.391 169.55C269.821 169.708 274.217 170.379 278.491 171.55C279.421 171.87 280.351 172.17 281.291 172.55C284.681 174.1 285.511 175.09 285.801 176C285.884 176.202 285.941 176.414 285.971 176.63C285.971 176.92 285.591 176.95 284.971 176.75C284.583 176.626 284.206 176.472 283.841 176.29C283.411 176.08 282.921 175.81 282.331 175.58C275.541 172.42 267.421 171.87 259.271 171.58C256.271 171.48 253.151 171.41 250.021 171.17C248.461 171.06 246.881 170.87 245.301 170.61C243.639 170.336 242.019 169.848 240.481 169.16L240.431 169.1Z" fill="#221F1F"/>
<path d="M193.321 111.07C198.501 114.24 210.491 122.78 217.121 118.19C220.011 116.19 219.521 111.87 217.411 109.46C216.671 108.62 214.041 109.66 214.881 110.62C216.111 112.03 217.281 115.41 215.611 116.92C213.941 118.43 210.541 116.99 208.891 116.44C204.141 114.84 199.731 112.2 195.471 109.59C194.561 109.03 192.081 110.31 193.321 111.07Z" fill="#221F1F"/>
<path d="M199.931 193.27C201.498 194.089 203.234 194.534 205.001 194.57H205.131C221.001 195.78 237.021 196.21 252.991 196.08C259.551 196.08 266.111 195.78 272.651 195.53C278.431 195.29 284.201 194.99 289.961 194.53C291.401 194.42 292.851 194.35 294.281 194.2L297.281 193.94L298.031 193.89H298.421H298.611C298.681 193.89 298.781 193.89 298.681 193.89C298.281 193.64 297.861 193.38 297.401 193.15L297.051 192.97L296.411 192.68C295.761 192.39 295.121 192.09 294.461 191.82C293.131 191.3 291.811 190.75 290.461 190.3C287.771 189.3 285.011 188.55 282.241 187.8C276.681 186.36 271.011 185.25 265.321 184.35C255.187 182.839 244.979 181.878 234.741 181.47C231.481 181.33 228.215 181.237 224.941 181.19H220.031H218.421C218.273 181.169 218.126 181.139 217.981 181.1C217.735 181.062 217.494 180.998 217.261 180.91C216.378 180.604 215.548 180.162 214.801 179.6C213.402 178.523 212.151 177.266 211.081 175.86C210.033 174.542 209.067 173.159 208.191 171.72C206.463 168.884 204.929 165.934 203.601 162.89C202.771 161 202.601 160.09 202.891 160.04C203.181 159.99 203.891 160.79 204.891 162.21C205.891 163.63 207.281 165.67 208.891 168.08C210.682 170.807 212.688 173.385 214.891 175.79C215.813 176.808 216.955 177.602 218.231 178.11C218.341 178.11 218.541 178.17 218.571 178.19H220.201H222.731C226.091 178.19 229.461 178.34 232.821 178.49C239.541 178.8 246.251 179.27 252.961 179.99C259.671 180.71 266.361 181.67 272.961 182.99C276.295 183.657 279.605 184.42 282.891 185.28C286.181 186.18 289.451 187.19 292.661 188.39L295.531 189.54L296.941 190.18L297.651 190.5L298.161 190.73L298.741 191.02L303.071 193.39L305.211 194.64L306.271 195.26L306.541 195.42H306.601H306.531H306.381L305.791 195.49L303.421 195.78C302.631 195.88 301.871 195.98 300.961 196.06L296.171 196.5C294.111 196.71 292.051 196.87 289.981 197.02C281.701 197.71 273.361 198.1 265.091 198.38C246.911 198.89 228.701 198.64 210.541 197.53C208.631 197.41 206.721 197.28 204.801 197.12H204.881C202.388 197.058 199.95 196.37 197.791 195.12C195.714 193.891 193.83 192.361 192.201 190.58C189.091 187.094 186.474 183.197 184.421 179C180.625 171.342 177.767 163.254 175.911 154.91C173.954 146.632 172.904 138.166 172.781 129.66C172.764 126.367 172.968 123.076 173.391 119.81C173.797 116.522 174.631 113.302 175.871 110.23C177.105 107.002 179.332 104.25 182.231 102.37C185.341 100.698 188.971 100.275 192.381 101.19C193.108 101.346 193.825 101.539 194.531 101.77C195.241 102 195.911 102.28 196.601 102.53C197.94 103.126 199.245 103.794 200.511 104.53C202.397 105.627 204.347 106.609 206.351 107.47C207.588 108.019 208.919 108.325 210.271 108.37C211.704 108.285 213.046 107.643 214.011 106.58C214.191 106.4 214.401 106.17 214.591 105.96C214.731 105.769 214.889 105.592 215.061 105.43C215.281 105.24 215.381 105.35 215.351 105.77C215.256 106.515 215.012 107.233 214.631 107.88C214.257 108.524 213.755 109.084 213.156 109.528C212.558 109.972 211.876 110.289 211.151 110.46C209.226 110.787 207.248 110.555 205.451 109.79C202.711 108.655 200.039 107.359 197.451 105.91C195.03 104.613 192.382 103.791 189.651 103.49C188.357 103.367 187.051 103.468 185.791 103.79C184.572 104.134 183.431 104.712 182.431 105.49C181.407 106.318 180.526 107.308 179.821 108.42C179.086 109.546 178.473 110.746 177.991 112C176.994 114.697 176.323 117.504 175.991 120.36C175.608 123.288 175.421 126.238 175.431 129.19C175.471 135.193 176.023 141.181 177.081 147.09C178.569 155.921 181.069 164.551 184.531 172.81C186.241 176.898 188.354 180.804 190.841 184.47C193.341 188.04 196.341 191.36 199.991 193.2L199.931 193.27Z" fill="#221F1F"/>
<path d="M338.901 349.27C337.281 353.55 317.441 361.97 317.441 361.97C312.941 353.88 281.631 260.14 281.631 260.14C252.631 254.21 194.961 259.91 182.631 240.54C179.851 236.16 179.041 222.75 179.051 208.24C194.991 211.97 215.051 206.76 231.451 198.24L236.801 214.88C261.581 221.45 293.931 228.41 298.951 231.21C311.321 238.11 336.961 343.9 338.901 349.27Z" fill="#221F1F"/>
<path d="M230.531 200.72V200.64L230.431 200.69L230.011 200.89C229.261 201.27 228.481 201.62 227.711 201.97C226.181 202.69 224.611 203.34 223.051 203.97C219.901 205.21 216.721 206.39 213.461 207.33C210.207 208.314 206.898 209.108 203.551 209.71C201.891 210.05 200.191 210.25 198.551 210.49C196.911 210.73 195.151 210.84 193.441 210.88C189.983 211.08 186.513 210.942 183.081 210.47L181.801 210.3L180.901 210.12L180.651 210.06C180.651 210.06 180.551 210.01 180.551 210.06V210.26V213.94C180.533 220.545 180.991 227.142 181.921 233.68C182.125 234.84 182.388 235.988 182.711 237.12L182.961 237.94C183.061 238.21 183.171 238.45 183.271 238.71C183.363 238.957 183.476 239.195 183.611 239.42C183.728 239.661 183.869 239.888 184.031 240.1C185.336 241.986 187.006 243.591 188.941 244.82C189.908 245.47 190.91 246.068 191.941 246.61C192.471 246.87 193.021 247.11 193.551 247.36C194.088 247.621 194.639 247.851 195.201 248.05L196.871 248.7L198.581 249.27C199.711 249.67 200.891 249.95 202.051 250.27C210.419 252.278 218.938 253.592 227.521 254.2C236.131 254.96 244.791 255.41 253.461 255.96C262.17 256.378 270.85 257.27 279.461 258.63L281.301 258.98L281.921 259.1C282.111 259.16 282.411 259.1 282.411 259.38L282.811 260.58L283.871 263.76L285.871 269.93L290.081 282.32C294.981 296.92 300.011 311.56 305.081 325.97C308.361 335.22 311.671 344.49 315.161 353.66C315.581 354.81 316.051 355.94 316.501 357.07L317.181 358.77C317.381 359.29 317.741 360 317.771 360.09C317.801 360.18 317.921 360.66 318.201 360.43L319.201 359.97L322.531 358.45C326.964 356.481 331.236 354.171 335.311 351.54C336.167 350.965 336.977 350.323 337.731 349.62C338.151 349.21 338.291 349.05 338.421 349.12C338.551 349.19 338.561 349.58 338.221 350.24C337.691 351.145 337.016 351.956 336.221 352.64C333.493 355.045 330.504 357.138 327.311 358.88C325.311 360 323.201 361.14 320.881 362.27C320.231 362.59 319.961 362.73 318.531 363.37L316.741 364.16L316.511 364.26H316.461V364.2V364.09L316.251 363.65L315.821 362.76C315.551 362.18 315.271 361.6 314.991 361.01C314.841 360.68 314.661 360.34 314.531 360.01C314.271 359.36 314.001 358.71 313.741 358.01C310.021 348.6 306.741 339.15 303.411 329.67C300.081 320.19 296.851 310.67 293.641 301.19L284.081 272.62L281.721 265.44L280.541 261.85L280.451 261.55C280.451 261.47 280.381 261.48 280.331 261.46L278.881 261.18C273.991 260.29 269.001 259.75 263.991 259.29C251.991 258.21 239.651 257.81 227.251 256.75C221.051 256.23 214.821 255.54 208.641 254.43C202.461 253.32 196.301 251.76 190.581 248.85C187.344 247.277 184.514 244.977 182.311 242.13C182.051 241.75 181.761 241.42 181.521 240.99C181.283 240.574 181.073 240.144 180.891 239.7C180.545 238.862 180.261 238 180.041 237.12C179.618 235.435 179.297 233.725 179.081 232C178.289 225.193 177.918 218.343 177.971 211.49V206.95C178.308 206.977 178.643 207.03 178.971 207.11L180.971 207.51L182.401 207.79L183.631 207.95C184.461 208.04 185.281 208.19 186.111 208.22C189.44 208.487 192.786 208.463 196.111 208.15C202.807 207.503 209.404 206.08 215.771 203.91C217.081 203.45 218.391 203.02 219.681 202.51L221.621 201.77L223.541 200.97C224.821 200.45 226.071 199.85 227.341 199.28C227.981 199 228.571 198.69 229.231 198.37L232.091 196.95C233.918 202.704 235.751 208.45 237.591 214.19L244.821 216.08L252.551 218.08C264.831 221.17 277.201 224.08 289.481 227.35C291.011 227.76 292.541 228.21 294.071 228.66C295.628 229.112 297.157 229.653 298.651 230.28C299.47 230.617 300.212 231.117 300.831 231.75C301.414 232.352 301.946 233.001 302.421 233.69C303.339 235.021 304.174 236.407 304.921 237.84C307.74 243.524 310.208 249.375 312.311 255.36C315.661 264.57 318.631 273.8 321.501 283.04C324.371 292.28 327.061 301.52 329.691 310.82L333.081 323C337.241 338.37 338.321 343.32 338.551 346.79C338.551 347.58 338.721 348.61 338.711 349.09C338.711 349.93 338.011 348.78 337.081 346.04C336.151 343.3 334.821 338.95 333.251 333.34C328.591 316.71 323.801 299.63 318.521 282.45C315.871 273.86 313.101 265.25 310.021 256.74C308.471 252.49 306.851 248.25 305.021 244.14C304.111 242.14 303.151 240.06 302.081 238.14C301.57 237.186 301.006 236.261 300.391 235.37C299.869 234.554 299.236 233.814 298.511 233.17C297.545 232.568 296.498 232.107 295.401 231.8C294.151 231.4 292.891 230.99 291.591 230.63C289.021 229.88 286.401 229.2 283.791 228.52C278.561 227.17 273.291 225.88 268.021 224.58L252.181 220.68L244.271 218.68L235.441 216.37C233.768 211.184 232.101 205.984 230.441 200.77L230.531 200.72Z" fill="#221F1F"/>
<path d="M180.401 208.09C180.481 193 183.581 176.51 179.961 161.67C179.741 160.75 177.121 161.42 177.351 162.37C180.941 177.09 177.871 193.42 177.791 208.37C177.791 209.47 180.401 208.94 180.401 208.06V208.09Z" fill="#221F1F"/>
<path d="M283.231 279.68L240.141 356.81L217.861 343.61L266.711 262.13L277.491 263.21L283.231 279.68Z" fill="#221F1F"/>
<path d="M281.791 279.92L244.081 347.36L238.661 357.06L241.461 356.31L231.611 350.47L224.961 346.53C223.761 345.81 220.481 344.61 219.701 343.41C219.121 342.5 219.441 343.89 219.511 342.94C219.511 342.37 220.511 341.34 220.761 340.86L225.681 332.64L258.771 277.44L268.101 261.89L265.731 262.75L273.441 263.52C276.151 263.79 276.031 263.09 276.631 265.38C277.911 270.38 280.051 275.22 281.741 280.06C281.981 280.77 284.851 279.91 284.631 279.29L278.901 262.83C278.841 262.64 278.541 262.62 278.391 262.6L267.601 261.52C267.167 261.478 266.729 261.533 266.319 261.682C265.909 261.831 265.537 262.069 265.231 262.38L222.501 333.73L216.431 343.85C216.409 343.894 216.403 343.945 216.416 343.994C216.429 344.042 216.459 344.083 216.501 344.11L238.771 357.32C239.262 357.468 239.783 357.476 240.278 357.344C240.773 357.211 241.221 356.943 241.571 356.57L279.241 289.13L284.661 279.43C284.891 279 282.211 279.17 281.791 279.92Z" fill="#221F1F"/>
<path d="M355.551 379.57C345.331 381.93 327.181 371.76 320.361 361.57C322.101 360.84 326.051 359.13 330.041 357.09C339.081 367.57 363.001 377.85 355.551 379.57Z" fill="#221F1F"/>
<path d="M330.571 359.64C329.491 358.54 329.841 358.71 329.571 358.75L326.701 360.08L323.701 361.38L322.381 361.94L322.031 362.06L322.161 362.26L322.441 362.65L322.511 362.74V362.79L322.601 362.9L322.991 363.34C323.531 363.93 323.991 364.56 324.591 365.11C326.533 367.177 328.666 369.056 330.961 370.72C333.24 372.435 335.666 373.944 338.211 375.23C340.441 376.394 342.787 377.319 345.211 377.99C348.249 378.849 351.414 379.167 354.561 378.93C355.561 378.86 355.561 379.4 354.781 380.06C353.494 381.036 351.874 381.467 350.271 381.26C346.788 380.901 343.385 379.986 340.191 378.55C337.033 377.175 334.035 375.458 331.251 373.43C327.774 371.048 324.589 368.266 321.761 365.14L321.141 364.42C321.031 364.29 320.951 364.2 320.821 364.03L320.401 363.46L318.751 361.18L322.131 359.77L324.391 358.77L326.631 357.77L327.741 357.25L329.021 356.63L329.751 356.27C329.871 356.27 330.001 356.11 330.101 356.13L330.371 356.43L331.371 357.54C331.845 358.04 332.325 358.53 332.811 359.01C333.811 359.95 334.811 360.86 335.911 361.73C339.193 364.356 342.611 366.806 346.151 369.07C348.881 370.86 351.661 372.44 354.351 374.34C354.96 374.757 355.544 375.207 356.101 375.69C356.592 376.11 357.02 376.598 357.371 377.14C357.558 377.412 357.676 377.724 357.718 378.051C357.76 378.378 357.723 378.71 357.611 379.02C357.52 379.224 357.381 379.403 357.208 379.544C357.034 379.685 356.83 379.783 356.611 379.83C356.381 379.866 356.145 379.835 355.931 379.74C355.758 379.676 355.596 379.585 355.451 379.47C355.271 379.28 355.451 379.05 355.761 378.76C355.833 378.694 355.897 378.62 355.951 378.54C355.978 378.516 355.995 378.485 356.001 378.45H356.071C356.032 378.445 355.991 378.445 355.951 378.45H355.891L355.701 378.19C355.289 377.724 354.83 377.302 354.331 376.93C353.791 376.52 353.211 376.11 352.611 375.71C351.421 374.9 350.181 374.11 348.921 373.3C346.401 371.7 343.821 370.06 341.281 368.3C337.406 365.757 333.777 362.858 330.441 359.64H330.571Z" fill="#221F1F"/>
<path d="M239.431 384.46C223.521 376.02 223.431 355.46 224.141 346.73L232.751 351.83C233.001 366.55 252.841 391.58 239.431 384.46Z" fill="#221F1F"/>
<path d="M231.911 356.1C231.791 355.49 231.701 354.87 231.621 354.25L231.531 353.31C231.531 353.02 231.531 352.56 231.531 352.64C231.542 352.626 231.549 352.608 231.549 352.59C231.549 352.572 231.542 352.554 231.531 352.54H231.451L231.071 352.31L229.551 351.37L226.501 349.51L225.741 349.04L225.551 348.91L225.381 348.79C225.381 348.79 225.221 348.64 225.231 348.79V349.09V349.73C225.231 350.58 225.231 351.44 225.171 352.29C225.112 355.299 225.29 358.309 225.701 361.29C226.09 364.271 226.831 367.195 227.911 370L228.261 370.93L228.691 371.83C228.981 372.42 229.261 373.03 229.581 373.61C230.235 374.754 230.974 375.847 231.791 376.88C233.9 379.501 236.444 381.741 239.311 383.5C240.161 384.11 239.811 384.5 238.751 384.5C237.085 384.412 235.498 383.767 234.241 382.67C231.373 380.274 229.025 377.317 227.341 373.98C225.689 370.684 224.569 367.147 224.021 363.5C223.281 359.121 222.976 354.679 223.111 350.24L223.161 349.33V348.68L223.211 347.94L223.321 346.48L223.381 345.75V345.38C223.381 345.38 223.381 345.21 223.381 345.25L223.541 345.35L227.861 347.94L230.931 349.82L232.471 350.76C232.863 350.975 233.241 351.216 233.601 351.48V352.18C233.601 352.41 233.601 352.68 233.601 352.79C233.851 355.667 234.47 358.5 235.441 361.22C236.909 365.419 238.625 369.526 240.581 373.52L242.821 378.17C243.628 379.732 244.297 381.362 244.821 383.04C244.956 383.482 245.033 383.939 245.051 384.4C245.106 385.004 244.935 385.606 244.571 386.09C244.232 386.409 243.812 386.628 243.357 386.723C242.902 386.818 242.429 386.786 241.991 386.63C241.548 386.514 241.124 386.336 240.731 386.1C240.275 385.872 239.92 385.484 239.731 385.01C239.649 384.842 239.588 384.664 239.551 384.48C239.551 384.23 239.831 384.15 240.341 384.23C240.851 384.31 241.631 384.55 242.431 384.69C242.513 384.711 242.599 384.711 242.681 384.69H242.831C242.87 384.667 242.902 384.633 242.923 384.592C242.944 384.551 242.954 384.506 242.951 384.46C242.934 384.309 242.907 384.158 242.871 384.01C242.796 383.672 242.703 383.338 242.591 383.01C242.121 381.65 241.471 380.24 240.821 378.82C239.481 375.98 238.061 373.08 236.731 370.11C234.619 365.667 232.999 361.006 231.901 356.21L231.911 356.1Z" fill="#221F1F"/>
<path d="M154.081 247C157.331 260.56 168.741 269.91 181.341 272.75C223.211 282.19 241.861 261.75 241.341 261.75C224.091 260.26 206.691 258.83 190.481 252.29C181.061 248.49 177.481 241.75 175.861 235.14C175.841 235.11 148.931 225.39 154.081 247Z" fill="#221F1F"/>
<path d="M152.661 247.4C158.271 268.66 179.051 275.47 198.901 276.24C212.371 276.76 226.771 274.18 237.971 266.24C239.081 265.46 242.701 263.33 242.791 261.66C242.901 259.52 235.681 260.14 234.431 260.03C227.661 259.41 220.881 258.69 214.181 257.54C202.701 255.54 186.691 252.98 180.181 242.07C178.971 240.07 178.411 235.53 176.621 234.12C175.781 233.45 173.831 233.27 172.851 233.03C168.131 231.88 162.621 231.03 157.981 232.95C151.841 235.44 151.431 241.63 152.681 247.4C152.971 248.72 155.881 247.97 155.581 246.62C154.311 240.77 154.981 234.9 161.881 234.08C165.672 233.703 169.499 234.182 173.081 235.48C173.441 235.62 174.241 235.65 174.531 235.93C175.311 236.66 173.931 235.43 174.661 236.6C176.371 239.36 176.791 242.6 178.871 245.37C183.951 252.03 192.431 254.65 200.171 256.78C209.855 259.279 219.734 260.952 229.701 261.78C231.961 262 235.771 263 238.021 262.54C238.771 262.38 240.201 260.98 239.751 261.82C239.118 262.612 238.354 263.288 237.491 263.82C228.881 270.66 217.381 273.53 206.601 274.07C185.831 275.07 161.531 269.28 155.541 246.59C155.211 245.3 152.311 246.07 152.661 247.4Z" fill="#221F1F"/>
<path d="M174.081 201.23C172.511 210.71 161.291 229 153.881 221.65C148.401 216.21 142.081 125.14 150.771 109.4C158.871 94.7601 169.481 112.15 169.481 112.15C168.801 123.51 169.561 147.45 172.821 164.74C174.984 176.781 175.408 189.069 174.081 201.23Z" fill="#221F1F"/>
<path d="M172.671 201.47C171.781 206.06 161.671 229.22 155.131 221.01C153.001 218.35 152.771 213.35 152.251 210.14C149.711 194.76 148.781 179.03 148.251 163.46C147.691 148.09 147.031 131.95 149.901 116.76C150.247 114.543 150.844 112.372 151.681 110.29C152.301 108.646 153.274 107.157 154.531 105.93C157.941 103.05 160.771 104.71 163.531 107.13C164.911 108.34 167.531 110.64 168.041 112.48C168.441 113.93 167.911 116.26 167.881 117.78C167.821 120.78 167.881 123.87 167.881 126.9C168.171 141.1 169.881 154.9 172.041 168.9C173.767 179.664 173.986 190.616 172.691 201.44C172.581 202.26 175.461 201.73 175.561 200.97C176.834 190.374 176.673 179.654 175.081 169.1C172.961 154.27 170.991 139.74 170.761 124.72C170.701 120.83 172.011 114.67 170.561 111.16C169.441 108.43 165.961 105.45 163.461 104.1C157.081 100.66 150.921 105.38 148.561 111.41C146.201 117.44 145.881 124.5 145.481 130.88C144.871 140.69 144.921 150.54 145.191 160.36C145.701 178.36 146.471 196.8 149.991 214.47C150.941 219.28 152.041 224.83 158.351 223.86C167.751 222.42 173.961 209.16 175.541 201C175.691 200.22 172.821 200.69 172.671 201.47Z" fill="#221F1F"/>
<path d="M590.641 246.46C581.381 270.34 524.771 256.05 525.361 256C544.361 254.53 565.281 246.75 568.361 234.77C568.351 234.77 598.201 226.94 590.641 246.46Z" fill="#221F1F"/>
<path d="M589.201 246.68C583.541 260.28 564.621 260.15 552.291 259.38C546.407 258.987 540.55 258.253 534.751 257.18C532.811 256.83 530.861 256.44 528.941 256C528.141 255.81 526.771 255.28 526.811 255.61L524.761 256.69C534.671 255.83 544.611 253.78 553.701 249.62C557.669 247.907 561.336 245.568 564.561 242.69C565.918 241.443 567.102 240.021 568.081 238.46C568.411 237.93 569.671 234.17 568.621 235.31C569.241 234.64 572.111 234.59 572.961 234.46C575.75 233.978 578.585 233.813 581.411 233.97C589.191 234.56 591.811 239.46 589.201 246.68C588.941 247.4 591.771 247.07 592.071 246.23C594.071 240.82 593.731 235.41 587.621 233.41C582.801 231.82 577.171 232.49 572.271 233.35C570.907 233.459 569.562 233.745 568.271 234.2C565.861 235.41 565.411 239.02 563.541 241.2C554.761 251.2 538.541 254.28 526.001 255.36C525.501 255.36 523.861 255.65 523.951 256.43C523.971 256.491 524.007 256.544 524.054 256.587C524.101 256.629 524.159 256.658 524.221 256.67C527.321 257.91 531.111 258.26 534.371 258.82C541.731 260.143 549.185 260.872 556.661 261C569.021 261.14 586.591 259.47 592.071 246.27C592.361 245.56 589.541 245.85 589.201 246.68Z" fill="#221F1F"/>
<path d="M572.731 226.21C608.431 217.52 628.851 145.62 622.571 128.96C617.571 115.62 601.121 128.76 601.121 128.77C599.721 141.96 593.681 155.29 585.931 169.98C585.931 170 578.631 215.05 572.731 226.21Z" fill="#221F1F"/>
<path d="M572.951 227C589.311 222.76 600.621 208.14 608.381 194C616.751 178.72 622.861 161.27 624.741 143.9C625.311 138.67 625.911 132.31 623.521 127.41C620.011 120.24 611.931 121.66 605.991 124.64C604.241 125.52 601.331 126.73 600.121 128.34C599.071 129.73 599.291 131.97 598.961 133.69C598.286 137.223 597.367 140.704 596.211 144.11C593.401 152.094 589.967 159.845 585.941 167.29C584.969 168.974 584.325 170.827 584.041 172.75C582.551 181.56 580.911 190.35 579.041 199.08C577.141 208.02 575.541 217.93 571.361 226.15C570.701 227.45 573.601 227.22 574.081 226.29C577.021 220.5 578.461 213.88 579.961 207.6C581.881 199.6 583.491 191.46 584.961 183.34C585.771 178.99 586.061 174.19 587.311 169.94C588.081 167.35 590.031 164.7 591.241 162.26C592.741 159.21 594.241 156.13 595.531 153.01C598.117 147.204 600.126 141.158 601.531 134.96C601.821 133.58 601.811 129.83 602.421 128.96C603.169 128.245 604.031 127.66 604.971 127.23C608.441 125.09 613.561 122.45 617.551 124.74C622.851 127.74 622.421 136.23 622.061 141.39C620.981 156.8 615.981 172.32 609.481 186.24C602.091 202.07 590.561 220.73 572.481 225.41C570.761 225.86 571.181 227.47 572.951 227Z" fill="#221F1F"/>
<path d="M160.991 217.67L164.571 235.47" stroke="#221F1F" stroke-width="3" stroke-miterlimit="10"/>
<path d="M192.082 332C191.992 327.58 191.912 323.15 191.812 318.73C191.812 317.12 191.652 315.51 191.622 313.9C191.512 308.21 191.462 302.53 191.342 296.84C191.282 294.32 191.142 291.79 190.992 289.29C190.68 286.084 190.553 282.862 190.612 279.64C190.722 277.64 193.662 280.05 193.852 283.75C194.182 290.31 194.342 296.87 194.222 303.5C194.152 307.5 194.452 311.58 194.572 315.63C194.692 320.08 194.792 324.53 194.902 328.98C194.972 331.73 195.032 334.47 195.122 337.21C195.252 341.35 195.342 345.52 195.552 349.64C195.722 352.84 196.062 355.96 196.332 359.12C196.392 359.82 196.472 360.5 196.522 361.2C196.682 363.8 196.522 364.64 195.762 365.2C195.599 365.344 195.425 365.474 195.242 365.59C194.642 365.87 194.102 364.83 193.842 362.93C193.072 357.3 192.742 351.34 192.472 345.35C192.282 340.9 192.162 336.43 192.012 331.97L192.082 332Z" fill="#221F1F"/>
<path d="M200.361 355C199.475 354.06 198.336 353.397 197.081 353.09C196.5 353.008 195.908 353.06 195.35 353.242C194.792 353.424 194.283 353.731 193.861 354.14C193.096 354.845 192.424 355.645 191.861 356.52C189.763 359.894 188.166 363.556 187.121 367.39C186.615 369.112 186.207 370.861 185.901 372.63C185.491 374.89 185.281 377.18 184.671 379.4C184.301 380.8 181.971 378.64 182.401 375.94C183.143 371.149 184.47 366.468 186.351 362C187.531 359.33 188.591 356.43 190.531 353.92C191.612 352.414 193.126 351.273 194.871 350.65C195.821 350.373 196.824 350.335 197.791 350.54C198.692 350.749 199.548 351.114 200.321 351.62C201.215 352.186 202.038 352.858 202.771 353.62C203.487 354.357 204.155 355.139 204.771 355.96C206.542 358.424 208.129 361.014 209.521 363.71C210.631 365.71 211.771 367.71 212.821 369.77C213.051 370.22 213.301 370.66 213.511 371.12C214.311 372.83 214.361 373.46 213.861 374.12C213.762 374.274 213.648 374.417 213.521 374.55C213.081 374.92 212.361 374.39 211.691 373.2C209.691 369.68 207.811 365.87 205.691 362.25C204.251 359.593 202.444 357.152 200.321 355H200.361Z" fill="#221F1F"/>
<path d="M185.081 384.14C185.831 389.44 178.271 390.66 177.941 385.14C177.821 383.14 178.431 380.94 180.461 380.66C180.993 380.584 181.535 380.614 182.056 380.748C182.576 380.881 183.065 381.117 183.494 381.44C183.924 381.764 184.285 382.169 184.557 382.632C184.83 383.095 185.008 383.608 185.081 384.14Z" fill="#221F1F"/>
<path d="M218.081 380.08C218.831 385.38 211.271 386.6 210.951 381.08C210.831 379.08 211.441 376.88 213.471 376.59C214.546 376.442 215.634 376.726 216.499 377.381C217.363 378.035 217.933 379.006 218.081 380.08Z" fill="#221F1F"/>
<path d="M535.731 374.38C534.991 379.69 542.541 380.9 542.871 375.38C542.991 373.38 542.381 371.18 540.351 370.9C539.819 370.824 539.277 370.854 538.757 370.987C538.236 371.121 537.747 371.357 537.318 371.68C536.889 372.003 536.527 372.408 536.255 372.872C535.983 373.335 535.805 373.848 535.731 374.38Z" fill="#221F1F"/>
<path d="M491.171 370.07C490.431 375.38 497.991 376.59 498.311 371.07C498.431 369.07 497.821 366.87 495.791 366.59C495.259 366.514 494.717 366.544 494.197 366.677C493.676 366.811 493.187 367.047 492.758 367.37C492.329 367.693 491.967 368.098 491.695 368.562C491.423 369.025 491.245 369.538 491.171 370.07Z" fill="#221F1F"/>
<path d="M229.631 210.1H354.961L355.651 197.11H229.341L229.631 210.1Z" fill="#221F1F"/>
<path d="M324.301 195.44L357.191 195.64L356.461 208.23L356.281 211.49H341.441L286.921 211.08C278.861 211.03 270.751 211.08 262.751 211.08C252.471 211.14 242.151 211.33 231.881 211.08C225.471 210.9 233.601 208.32 245.441 208.3C266.441 208.3 287.441 208.36 308.581 208.73C321.241 208.95 334.411 208.84 347.361 208.89H353.831L354.461 198.22L333.541 198.1L307.251 198C293.981 197.95 280.641 197.87 267.471 197.91C257.231 197.91 247.191 198.12 237.071 198.24L230.951 198.33H230.591C230.591 199.72 230.591 200.87 230.591 201.84C230.591 203.15 230.591 204.22 230.531 205.11C230.52 206.364 230.314 207.609 229.921 208.8C229.801 209.209 229.648 209.607 229.461 209.99C228.931 210.8 228.401 207.41 228.101 201.32C228.101 200.64 228.041 199.96 228.001 199.26C228.001 198.11 227.921 196.93 227.881 195.73L242.031 195.49L255.031 195.36L281.461 195.28L324.241 195.37L324.301 195.44Z" fill="#221F1F"/>
<path d="M341.782 304.14C341.882 296.6 341.982 289.063 342.082 281.53C342.082 278.78 342.082 276.03 342.082 273.28C342.222 263.59 342.412 253.9 342.532 244.21C342.582 239.91 342.532 235.58 342.532 231.32C342.462 225.84 342.252 220.32 342.532 214.85C342.722 211.44 345.532 215.77 345.592 222.09C345.592 233.28 345.512 244.47 345.112 255.76C344.862 262.51 344.992 269.53 344.932 276.44C344.865 284.027 344.785 291.62 344.692 299.22C344.638 303.887 344.592 308.553 344.552 313.22C344.552 320.29 344.422 327.4 344.462 334.42C344.462 339.89 344.692 345.24 344.822 350.64C344.822 351.82 344.912 352.99 344.922 354.19C344.972 358.63 344.772 360.04 343.992 361C343.832 361.227 343.651 361.438 343.452 361.63C342.852 362.05 342.352 360.24 342.172 356.99C341.642 347.34 341.572 337.16 341.562 326.99C341.562 319.4 341.632 311.78 341.672 304.17L341.782 304.14Z" fill="#221F1F"/>
<path d="M302.341 198.3H317.341H332.851C333.001 198.3 333.221 198.36 333.191 198.14L333.381 197.22L333.761 195.38L340.011 165.21L352.151 106.48C352.471 105.14 346.891 103.87 346.651 105.23L334.481 164.08L328.561 192.69H302.341C301.251 192.64 301.251 198.32 302.341 198.3Z" fill="#232020"/>
<path d="M543.081 86.0001C540.787 83.5871 538.971 80.7604 537.731 77.6701L537.041 76.0301C536.831 75.4801 536.621 74.9201 536.441 74.3701C535.272 70.4288 534.446 66.3938 533.971 62.3101C533.731 60.5201 533.481 58.7301 533.241 56.9501C532.852 54.6868 532.641 52.3964 532.611 50.1001C532.611 48.6701 535.111 50.2701 535.371 52.8701C535.851 57.4901 536.291 62.0601 536.921 66.6601C537.365 69.4381 538.096 72.1627 539.101 74.7901C540.095 77.6706 541.547 80.3719 543.401 82.7901C544.566 84.239 545.961 85.4857 547.531 86.4801C548.727 87.2245 550.014 87.8095 551.361 88.2201C552.727 88.6025 554.134 88.8174 555.551 88.8601C557.741 88.8735 559.92 88.5669 562.021 87.9501C562.481 87.8201 562.931 87.6801 563.401 87.5601C565.131 87.0501 565.711 87.0101 566.291 87.5601C566.432 87.66 566.563 87.7739 566.681 87.9001C567.011 88.3201 566.401 88.9001 565.111 89.4601C561.004 91.1718 556.489 91.658 552.111 90.8601L550.851 90.5801C550.431 90.4601 550.021 90.3101 549.611 90.1701C548.793 89.8922 547.994 89.5581 547.221 89.1701C545.696 88.3317 544.293 87.2888 543.051 86.0701L543.081 86.0001Z" fill="#221F1F"/>
<path d="M560.001 89.94C562.121 93.27 564.001 97.1 563.661 101.15C563.561 102.31 566.061 101.9 566.141 100.91C566.511 96.55 564.561 92.5 562.271 88.91C561.741 88.08 559.371 88.91 560.001 89.91V89.94Z" fill="#221F1F"/>
<path d="M563.081 1.25992C496.781 2.93992 515.391 55.6799 531.081 51.6999C542.301 48.8699 553.941 15.5199 576.901 46.5899C576.901 46.5899 582.731 38.8199 586.801 47.0899C590.871 55.3599 582.361 59.8599 579.261 59.9899C578.661 59.9899 561.101 115.55 607.551 105.38C619.651 102.73 630.421 85.4499 610.971 62.0199C610.971 62.0199 604.021 55.1799 603.971 40.0199C603.921 24.8599 596.311 1.18992 563.081 1.25992Z" fill="#221F1F"/>
<path d="M596.781 108.45C594.141 108.439 591.516 108.059 588.981 107.32C586.373 106.569 583.954 105.273 581.885 103.516C579.816 101.759 578.145 99.5823 576.981 97.13C575.843 94.7529 575.042 92.2286 574.601 89.63C573.795 84.5827 573.738 79.4441 574.431 74.38C574.732 71.8734 575.159 69.3836 575.711 66.92C575.981 65.69 576.281 64.47 576.611 63.25C576.778 62.6434 576.958 62.0334 577.151 61.42L577.501 60.42C577.591 60.17 577.681 59.91 577.791 59.67L577.971 59.32L578.271 59.1L578.411 59.01H578.481L578.381 58.89L578.701 58.78C578.916 58.6936 579.136 58.6234 579.361 58.57C579.546 58.546 579.73 58.5126 579.911 58.47L580.161 58.41L580.681 58.24C581.031 58.13 581.371 57.95 581.681 57.81C582.355 57.4696 582.991 57.0608 583.581 56.59C584.777 55.6912 585.653 54.4331 586.081 53C586.457 51.638 586.39 50.1918 585.891 48.87C585.448 47.5047 584.667 46.2734 583.621 45.29C583.258 44.9899 582.813 44.8064 582.343 44.7636C581.874 44.7207 581.403 44.8206 580.991 45.05C580.446 45.3153 579.938 45.6515 579.481 46.05C579.278 46.223 579.085 46.4066 578.901 46.6C578.657 46.8266 578.43 47.0706 578.221 47.33L576.941 49L576.811 48.89L576.671 48.71L576.391 48.34L575.841 47.62L574.731 46.19L573.941 45.19C573.739 44.9122 573.522 44.6452 573.291 44.39C572.411 43.39 571.521 42.31 570.561 41.39C568.728 39.4484 566.61 37.7962 564.281 36.49C562.045 35.2507 559.488 34.7108 556.941 34.94C554.362 35.345 551.921 36.3749 549.831 37.94C545.381 41.01 541.831 45.38 537.521 49.2C536.424 50.1957 535.228 51.0769 533.951 51.83C532.576 52.6575 531.006 53.106 529.401 53.13C527.807 53.101 526.246 52.6711 524.861 51.88C523.539 51.1257 522.344 50.1673 521.321 49.04C513.371 40.04 513.071 25.77 520.191 16.39C522.442 13.4038 525.205 10.8407 528.351 8.82004C531.474 6.82086 534.833 5.21852 538.351 4.05004C545.305 1.7818 552.558 0.565036 559.871 0.440043C564.401 0.360043 563.781 1.15004 560.041 2.02004C556.301 2.89004 549.481 4.12004 541.791 6.34004C535.011 8.34004 528.501 11.55 523.981 16.68C521.74 19.178 520.068 22.1327 519.081 25.34C518.128 28.6073 517.882 32.0404 518.361 35.41C518.822 38.7861 520.02 42.0193 521.871 44.88C522.764 46.249 523.875 47.4619 525.161 48.47C526.316 49.4185 527.732 49.9938 529.221 50.12C531.921 50.32 534.781 47.87 537.361 45.43C539.941 42.99 542.531 40.19 545.471 37.74C547.895 35.5604 550.712 33.8634 553.771 32.74C555.383 32.2091 557.075 31.9654 558.771 32.02C560.485 32.0963 562.174 32.4544 563.771 33.08C566.795 34.3894 569.543 36.259 571.871 38.59L573.571 40.31C574.121 40.89 574.571 41.51 575.151 42.11L575.941 43.02L576.621 43.89C576.781 44.07 576.931 44.37 577.081 44.43L577.311 44.17L577.441 44.05L577.501 43.99L577.621 43.89C578.254 43.3518 578.949 42.8918 579.691 42.52C580.527 42.1077 581.449 41.8987 582.381 41.91C582.871 41.9184 583.357 42.0028 583.821 42.16C584.272 42.3253 584.704 42.5364 585.111 42.79C586.428 43.8206 587.461 45.1697 588.111 46.71C588.81 48.1836 589.185 49.7895 589.211 51.42C589.171 52.6375 588.891 53.8349 588.386 54.9436C587.882 56.0522 587.163 57.0502 586.271 57.88C585.002 59.0796 583.515 60.0265 581.891 60.67L581.081 61C580.937 61.0472 580.79 61.084 580.641 61.11H580.441C580.358 61.1045 580.274 61.1045 580.191 61.11C580.144 61.1848 580.107 61.2655 580.081 61.35C580.081 61.35 579.851 62 579.731 62.42C579.451 63.34 579.191 64.27 578.951 65.2C578.481 67.08 578.071 68.97 577.741 70.88C577.055 74.6812 576.72 78.5375 576.741 82.4C576.712 86.2117 577.324 90.0013 578.551 93.61C579.173 95.3644 580.042 97.0211 581.131 98.53C582.235 100.018 583.589 101.304 585.131 102.33C587.585 103.898 590.36 104.892 593.251 105.24C596.206 105.615 599.196 105.615 602.151 105.24C603.641 105.08 605.151 104.82 606.601 104.52C607.319 104.383 608.027 104.199 608.721 103.97C609.413 103.78 610.083 103.519 610.721 103.19C613.342 101.933 615.599 100.03 617.281 97.66C619.826 93.9884 621.033 89.5548 620.701 85.1C620.561 83.99 620.491 82.87 620.291 81.77L619.481 78.49L618.301 75.3C617.891 74.3 617.301 73.3 616.821 72.24C616.561 71.73 616.341 71.24 616.041 70.72L615.131 69.27C614.511 68.32 613.961 67.32 613.271 66.41L611.191 63.68C610.841 63.24 610.501 62.73 610.191 62.36C609.786 61.9032 609.409 61.4223 609.061 60.92C606.404 56.9684 604.63 52.4898 603.861 47.79C603.731 46.89 603.571 45.98 603.471 45.08C603.371 44.18 603.281 43.27 603.241 42.36L603.151 39.66C603.151 38.79 603.091 37.92 603.031 37.05C602.77 33.5894 602.099 30.1721 601.031 26.87C599.021 20.2865 595.03 14.4828 589.601 10.25C587.209 8.45538 584.59 6.98589 581.811 5.88004C579.613 4.99167 577.345 4.28595 575.031 3.77004C573.111 3.33004 571.541 3.05004 570.241 2.84004C568.941 2.63004 567.901 2.45004 567.041 2.26004C566.181 2.07004 565.501 1.89004 564.881 1.69004C564.324 1.5317 563.777 1.34138 563.241 1.12004C562.681 0.800043 563.591 0.550043 565.741 0.370043C569.052 0.198202 572.372 0.443456 575.621 1.10004C582.237 2.29005 588.41 5.24005 593.491 9.64004C598.578 14.3203 602.247 20.3355 604.081 27C605.045 30.3114 605.641 33.7185 605.861 37.16C605.921 38.02 605.951 38.89 605.961 39.75L606.041 42.16C606.126 43.7448 606.296 45.3238 606.551 46.89C607.055 50.0048 607.99 53.034 609.331 55.89C609.997 57.2691 610.798 58.5788 611.721 59.8C611.944 60.0943 612.185 60.3748 612.441 60.64C612.533 60.7402 612.616 60.8472 612.691 60.96L612.891 61.22L613.281 61.73L614.861 63.79C618.034 67.9219 620.507 72.5467 622.181 77.48C622.551 78.74 622.831 80.05 623.181 81.33C623.531 82.61 623.511 83.99 623.661 85.33V87.33C623.673 87.9995 623.626 88.6687 623.521 89.33C623.365 90.6882 623.077 92.0279 622.661 93.33C621.878 95.9824 620.56 98.4463 618.788 100.57C617.017 102.694 614.83 104.433 612.361 105.68C611.731 105.97 611.101 106.27 610.461 106.53L608.461 107.12C607.151 107.45 605.931 107.67 604.641 107.87C602.074 108.298 599.474 108.506 596.871 108.49L596.781 108.45Z" fill="#221F1F"/>
<path d="M589.881 145.38C591.314 141.648 592.549 137.842 593.581 133.98C594.638 130.181 595.246 126.271 595.391 122.33C595.513 119.637 594.86 116.965 593.511 114.63C592.874 113.724 592.032 112.98 591.054 112.459C590.076 111.938 588.989 111.654 587.881 111.63C587.286 111.58 586.687 111.58 586.091 111.63C585.503 111.629 584.917 111.689 584.341 111.81C583.165 112.056 582.026 112.453 580.951 112.99C578.712 114.159 576.612 115.578 574.691 117.22C572.691 118.85 570.751 120.59 568.691 122.22C566.856 123.785 564.842 125.128 562.691 126.22C561.558 126.767 560.347 127.135 559.101 127.31C558.437 127.389 557.766 127.389 557.101 127.31C556.364 127.246 555.655 126.995 555.041 126.58C554.234 126.014 553.664 125.17 553.441 124.21C553.237 123.38 553.173 122.521 553.251 121.67C553.4 120.109 553.735 118.571 554.251 117.09C555.224 114.233 556.512 111.493 558.091 108.92C559.091 107.32 559.551 107.92 559.381 109.58C559.007 112.146 558.336 114.659 557.381 117.07C556.885 118.367 556.507 119.705 556.251 121.07C555.979 122.065 556.053 123.123 556.461 124.07C556.555 124.191 556.673 124.292 556.807 124.366C556.941 124.44 557.089 124.486 557.241 124.5C557.358 124.512 557.475 124.512 557.591 124.5H557.991C558.289 124.496 558.587 124.473 558.881 124.43C560.158 124.237 561.387 123.803 562.501 123.15C564.994 121.665 567.338 119.944 569.501 118.01C571.824 115.969 574.272 114.075 576.831 112.34C578.457 111.257 580.21 110.381 582.051 109.73C583.026 109.407 584.031 109.185 585.051 109.07C585.561 109.01 586.051 109.07 586.551 109C587.057 108.955 587.566 108.955 588.071 109C590.209 109.077 592.264 109.841 593.931 111.18C595.532 112.573 596.676 114.417 597.211 116.47C597.778 118.564 598.014 120.733 597.911 122.9L597.851 124.48C597.851 125.01 597.751 125.53 597.691 126.05C597.601 127.1 597.421 128.13 597.251 129.16C596.498 133.232 595.445 137.243 594.101 141.16C592.491 145.97 590.601 150.67 588.571 155.29C585.501 162.29 582.001 169.14 578.441 175.84C575.681 181.04 572.991 186.16 570.091 191.21C569.461 192.33 568.841 193.42 568.181 194.54C565.721 198.66 564.721 199.84 563.591 200.33C563.348 200.466 563.09 200.573 562.821 200.65C562.111 200.74 562.761 198.85 564.471 195.8C569.521 186.74 574.901 177.26 579.831 167.49C583.557 160.266 586.896 152.849 589.831 145.27L589.881 145.38Z" fill="#221F1F"/>
<path d="M554.751 166.79C555.811 164.79 556.891 162.71 557.941 160.67C558.321 159.92 558.651 159.15 559.041 158.41C560.411 155.79 561.831 153.19 563.191 150.57C563.801 149.4 564.341 148.2 564.871 147.01C565.461 145.439 566.194 143.926 567.061 142.49C567.651 141.62 569.181 143.81 568.371 145.56C566.941 148.676 565.345 151.714 563.591 154.66C562.521 156.43 561.691 158.41 560.741 160.29C559.741 162.35 558.631 164.41 557.571 166.47C556.921 167.74 556.271 169.01 555.631 170.28C554.631 172.21 553.631 174.14 552.771 176.08C552.081 177.6 551.521 179.14 550.911 180.67C550.781 181.01 550.671 181.35 550.521 181.67C549.971 182.91 549.641 183.23 548.941 183.22C548.781 183.23 548.621 183.23 548.461 183.22C547.951 183.12 547.821 182.44 548.121 181.49C549.084 178.58 550.254 175.743 551.621 173C552.621 170.92 553.621 168.84 554.691 166.76L554.751 166.79Z" fill="#221F1F"/>
<path d="M500.951 189.4C502.951 189.02 504.891 188.71 506.871 188.35L509.821 187.84L512.821 187.39C514.261 187.17 515.701 186.87 517.141 186.66C522.271 186.05 527.391 185.49 532.561 185.28C533.701 185.2 534.851 185.18 536.001 185.12C537.151 185.06 538.301 185.02 539.441 185.01C542.371 185.01 545.371 184.87 548.341 185.86C548.801 186.03 548.991 186.32 548.871 186.56C548.639 186.868 548.333 187.112 547.981 187.27C546.772 187.865 545.423 188.117 544.081 188C538.27 187.718 532.446 187.775 526.641 188.17C525.751 188.17 524.861 188.28 523.961 188.36C523.061 188.44 522.161 188.58 521.261 188.7C519.461 188.96 517.641 189.2 515.851 189.5L509.921 190.43L504.081 191.5C501.651 191.91 499.241 192.45 496.821 192.94C493.161 193.67 489.501 194.54 485.911 195.44C483.111 196.13 480.431 197.07 477.701 197.91C477.101 198.1 476.521 198.3 475.911 198.48C473.661 199.13 472.911 199.14 472.221 198.59C472.055 198.476 471.901 198.345 471.761 198.2C471.401 197.73 472.211 197.05 473.831 196.45C476.241 195.56 478.741 194.75 481.301 193.99C483.861 193.23 486.501 192.6 489.131 191.99C493.031 190.99 497.011 190.24 500.961 189.38L500.951 189.4Z" fill="#221F1F"/>
<path d="M534.891 152.57C536.441 148.86 538.121 145.22 539.841 141.57C540.481 140.26 541.051 138.91 541.701 137.57C544.061 132.99 546.538 128.477 549.131 124.03C550.271 122.03 551.391 120.03 552.501 118.08C553.835 115.481 555.38 112.996 557.121 110.65C558.271 109.24 559.121 112.56 557.421 115.36L548.331 130.52C547.401 132.04 546.551 133.64 545.751 135.28C544.951 136.92 544.141 138.55 543.361 140.2C542.581 141.85 541.601 143.78 540.791 145.61C539.981 147.44 539.101 149.23 538.351 151.08C537.401 153.35 536.401 155.6 535.571 157.91C534.931 159.66 534.201 161.38 533.631 163.16C533.061 164.94 532.451 166.69 531.901 168.45C531.521 169.84 531.201 171.23 530.901 172.61C530.601 173.99 530.241 175.36 530.011 176.76C529.891 177.37 529.811 177.98 529.681 178.59C529.201 180.87 528.861 181.59 528.051 181.9C527.876 181.994 527.691 182.071 527.501 182.13C526.911 182.24 526.681 181.21 526.911 179.48C527.081 178.21 527.281 176.91 527.501 175.61C527.721 174.31 528.071 173.02 528.381 171.71C528.691 170.4 529.041 169.09 529.381 167.78L530.611 163.89L531.611 161L532.671 158.15C533.381 156.25 534.081 154.35 534.881 152.48L534.891 152.57Z" fill="#221F1F"/>
<path d="M503.361 172.28C507.397 171.607 511.375 170.628 515.261 169.35C521.488 166.943 526.901 162.816 530.871 157.45C532.277 155.572 533.569 153.612 534.741 151.58C536.261 148.99 537.591 146.28 539.241 143.76C540.241 142.17 541.481 145.5 539.761 148.61C538.241 151.34 536.601 154.01 534.811 156.61C532.989 159.252 530.883 161.686 528.531 163.87C527.091 165.202 525.579 166.454 524.001 167.62C522.385 168.767 520.672 169.771 518.881 170.62C514.943 172.308 510.822 173.533 506.601 174.27C504.071 174.8 501.601 175.27 499.081 175.92C495.334 176.798 491.705 178.121 488.271 179.86C485.688 181.26 483.264 182.937 481.041 184.86C480.531 185.25 480.091 185.71 479.591 186.12C477.761 187.67 477.131 188.12 476.241 187.92C476.041 187.895 475.844 187.852 475.651 187.79C475.091 187.55 475.531 186.54 476.791 185.2C478.76 183.192 480.928 181.39 483.261 179.82C485.687 178.214 488.266 176.854 490.961 175.76C494.975 174.215 499.118 173.03 503.341 172.22L503.361 172.28Z" fill="#221F1F"/>
<path d="M495.511 186.1C492.511 190.57 488.961 196.1 491.261 201.64C491.641 202.55 494.351 201.71 494.011 200.9C491.811 195.63 495.191 190.4 498.061 186.12C498.731 185.12 495.991 185.38 495.511 186.12V186.1Z" fill="#221F1F"/>
<path d="M491.131 174.05C494.441 178.13 501.191 184.62 507.081 183.68C508.341 183.48 509.401 181.97 507.491 182.28C505.061 182.67 501.841 180.23 500.021 178.93C497.658 177.246 495.532 175.251 493.701 173C493.151 172.32 490.501 173.27 491.131 174.05Z" fill="#221F1F"/>
<path d="M577.442 192.22C574.022 210.64 568.042 232.73 558.272 241.04C542.362 254.6 482.672 256.68 474.332 255.64L530.212 356.25C522.842 359.9 511.542 362.5 511.542 362.5C488.602 329.01 432.542 248.65 454.402 235.18C468.732 226.33 495.012 219.99 520.172 215.42L525.082 204C537.642 202.65 563.992 212.44 577.442 192.22Z" fill="#221F1F"/>
<path d="M476.421 305.85C483.661 318.03 491.361 329.94 499.241 341.74C503.181 347.64 507.158 353.52 511.171 359.38L512.171 360.84C512.241 360.84 512.351 360.84 512.431 360.84L513.661 360.53C515.361 360.09 517.051 359.617 518.731 359.11C520.411 358.61 522.081 358.06 523.731 357.48C524.541 357.18 525.361 356.88 526.171 356.55C526.571 356.4 526.981 356.23 527.371 356.06L528.021 355.78L528.231 355.68H528.281V355.63L528.221 355.53L527.741 354.65L525.851 351.25L522.081 344.4L514.551 330.81C500.551 305.337 486.551 279.87 472.551 254.41C474.131 254.56 475.951 254.75 477.311 254.78C478.131 254.78 478.521 254.78 479.041 254.78H480.551C482.551 254.78 484.551 254.78 486.551 254.71C490.551 254.603 494.581 254.417 498.641 254.15C506.701 253.61 514.771 252.8 522.751 251.56C530.669 250.451 538.475 248.654 546.081 246.19C548.488 245.371 550.828 244.368 553.081 243.19C555.316 242.087 557.346 240.609 559.081 238.82C559.521 238.39 559.891 237.88 560.301 237.41L560.901 236.7L561.441 235.93L562.521 234.39L563.521 232.76C564.201 231.7 564.721 230.53 565.331 229.42C565.941 228.31 566.421 227.12 566.931 225.95C570.931 216.52 573.461 206.49 575.681 196.46C577.001 190.19 577.511 191.14 577.121 196.63C576.8 200.405 576.259 204.158 575.501 207.87C574.452 213.209 572.967 218.453 571.061 223.55C569.452 227.897 567.405 232.068 564.951 236C563.67 238.008 562.163 239.863 560.461 241.53C559.592 242.381 558.656 243.16 557.661 243.86C556.673 244.519 555.652 245.127 554.601 245.68C550.485 247.77 546.153 249.403 541.681 250.55C537.291 251.77 532.851 252.71 528.391 253.5C519.481 255.06 510.501 256.05 501.501 256.72C496.991 257.04 492.501 257.28 487.961 257.41C485.701 257.483 483.434 257.513 481.161 257.5H479.451H477.851H477.321H477.041C477.082 257.614 477.133 257.724 477.191 257.83L477.361 258.14L477.931 259.2C478.701 260.6 479.461 262.01 480.231 263.42L484.851 271.89C497.011 294.23 509.971 317.32 522.561 340.1L527.751 349.49L530.371 354.24L531.441 356.17L531.701 356.66L531.831 356.9C531.831 356.9 531.831 356.9 531.831 356.95H531.761L531.641 357.01L530.641 357.48L529.641 357.95L529.141 358.18L528.711 358.36C528.291 358.54 527.871 358.73 527.451 358.9C524.085 360.23 520.65 361.378 517.161 362.34L514.541 363.05L513.231 363.39L511.231 363.86C511.151 363.86 511.041 363.93 510.981 363.86L510.821 363.64L510.521 363.2L509.901 362.3L509.121 361.15L507.611 358.94C499.591 347 491.591 335.13 483.911 323C479.191 315.55 474.581 308 470.191 300.37C465.801 292.74 461.601 285 457.861 277C454.958 270.937 452.527 264.658 450.591 258.22C449.623 254.959 448.99 251.609 448.701 248.22C448.565 246.497 448.608 244.764 448.831 243.05C449.064 241.289 449.638 239.591 450.521 238.05C451.459 236.503 452.777 235.222 454.351 234.33L456.551 233.07C457.281 232.66 458.041 232.3 458.791 231.91C460.281 231.11 461.841 230.48 463.361 229.77C464.881 229.06 466.451 228.46 468.021 227.9C474.281 225.53 480.661 223.59 487.071 221.9C492.571 220.43 498.071 219.12 503.561 217.9C506.301 217.28 509.051 216.72 511.791 216.16L519.491 214.64L521.991 208.78L523.341 205.62L524.171 203.68C524.271 203.49 524.311 203.22 524.471 203.11L525.081 203L526.341 202.9C531.071 202.7 535.611 203.31 540.141 203.64C544.526 204.048 548.935 204.121 553.331 203.86C556.738 203.639 560.101 202.967 563.331 201.86C565.495 201.097 567.565 200.091 569.501 198.86C570.77 198.018 571.992 197.107 573.161 196.13L575.551 194.13C576.191 193.61 576.921 192.81 577.341 192.52C577.761 192.23 577.731 192.44 577.471 193.01C577 194.007 576.416 194.946 575.731 195.81C575.193 196.528 574.615 197.216 574.001 197.87C573.225 198.667 572.4 199.415 571.531 200.11C569.306 201.864 566.824 203.264 564.171 204.26C560.062 205.716 555.749 206.519 551.391 206.64C547.07 206.767 542.745 206.624 538.441 206.21C536.301 206.04 534.161 205.84 532.051 205.71C530.991 205.64 529.941 205.6 528.891 205.57C528.381 205.57 527.891 205.57 527.341 205.57H526.581H526.281C526.171 205.57 526.171 205.62 526.151 205.67L525.551 207.08L524.261 210.08C523.288 212.36 522.311 214.643 521.331 216.93L512.941 218.54C510.441 219.03 507.941 219.54 505.451 220.09C500.451 221.15 495.451 222.317 490.451 223.59C480.531 226.17 470.601 229.13 461.381 233.45C460.581 233.81 459.821 234.23 459.041 234.62C458.261 235.01 457.501 235.43 456.751 235.87C455.348 236.508 454.115 237.468 453.151 238.67C451.421 241.02 451.031 244.42 451.241 247.75C451.522 251.187 452.176 254.584 453.191 257.88C454.195 261.271 455.369 264.608 456.711 267.88C459.381 274.44 462.511 280.88 465.841 287.15C469.171 293.42 472.711 299.66 476.371 305.8L476.421 305.85Z" fill="#221F1F"/>
<path d="M581.161 167.55C581.161 167.55 578.431 181.79 575.551 197.24" stroke="#221F1F" stroke-width="2" stroke-miterlimit="10"/>
<path d="M495.881 259.39L517.641 258.15L500.451 293.91L489.001 273.47L495.881 259.39Z" fill="#221F1F"/>
<path d="M495.881 259.39L517.641 258.15L500.451 293.91L489.001 273.47L495.881 259.39Z" stroke="#221F1F" stroke-width="2" stroke-miterlimit="10"/>
<path d="M470.381 306.39L481.781 325.5L460.601 366.1L444.891 357.61L470.381 306.39Z" fill="#221F1F"/>
<path d="M470.381 306.39L481.781 325.5L460.601 366.1L444.891 357.61L470.381 306.39Z" stroke="#221F1F" stroke-width="2" stroke-miterlimit="10"/>
<path d="M503.751 387.38C515.351 383.48 521.381 375 522.621 365.59L527.081 372L531.011 369.41C528.387 365.856 526.062 362.089 524.061 358.15L516.581 359.77C514.081 372.37 496.791 389.72 503.751 387.38Z" fill="#221F1F"/>
<path d="M520.821 357.52L522.631 357.15L524.341 356.8L524.551 356.75H524.651C524.651 356.75 524.721 356.75 524.731 356.75L524.911 357.11L525.281 357.83L526.281 359.83L527.161 361.43C527.751 362.49 528.371 363.54 529.011 364.57L530.011 366.11L530.521 366.87L531.111 367.73C531.511 368.31 532.111 369.05 532.561 369.73L527.811 372.85L526.731 373.55L523.951 369.36L523.731 369.02L523.641 368.88L523.471 368.6C523.358 368.39 523.227 368.189 523.081 368C522.864 369.02 522.573 370.022 522.211 371C521.588 372.678 520.812 374.295 519.891 375.83C518.373 378.303 516.484 380.529 514.291 382.43C511.528 384.903 508.259 386.743 504.711 387.82C503.611 388.15 503.601 387.57 504.301 386.74C505.4 385.592 506.68 384.632 508.091 383.9C511.152 382.273 513.868 380.069 516.091 377.41C517.198 376.066 518.163 374.612 518.971 373.07L519.551 371.9L520.061 370.69C520.251 370.29 520.361 369.86 520.521 369.45L520.741 368.82C520.821 368.53 520.911 368.06 521.001 367.69C521.371 366.15 521.661 364.55 521.941 362.91L527.231 370.66L528.761 369.66L529.511 369.18L528.241 367.29C527.631 366.37 527.051 365.45 526.491 364.51C525.931 363.57 525.381 362.62 524.851 361.66C524.321 360.7 523.711 359.53 523.561 359.21C523.561 359.21 523.561 359.09 523.481 359.09H523.361L523.101 359.14L522.101 359.35L519.851 359.81L517.601 360.27L517.281 360.33H517.131H517.061C517.061 360.33 517.061 360.33 517.061 360.39L516.871 361.15C515.561 365.76 513.141 369.84 510.761 373.79C508.881 376.79 507.031 379.79 505.161 382.79C504.761 383.45 504.391 384.11 504.011 384.79C503.631 385.47 503.401 385.9 503.211 386.3C503.121 386.49 503.051 386.66 503.001 386.78C502.982 386.826 502.965 386.872 502.951 386.92C502.881 386.92 502.781 386.92 502.711 386.92C502.411 387 502.521 387.07 502.581 386.86C502.587 386.81 502.587 386.76 502.581 386.71C502.581 386.71 502.581 386.76 502.651 386.77C502.809 386.872 502.973 386.965 503.141 387.05C503.301 387.15 503.511 387.21 503.641 387.31C503.771 387.41 503.721 387.76 503.141 388.05C502.945 388.138 502.735 388.192 502.521 388.21C502.346 388.225 502.17 388.208 502.001 388.16C501.73 388.068 501.496 387.893 501.331 387.66C501.098 387.269 501.016 386.807 501.101 386.36C501.15 386.046 501.23 385.738 501.341 385.44C501.985 383.902 502.761 382.423 503.661 381.02C504.511 379.62 505.391 378.25 506.271 376.86C508.031 374.1 509.801 371.32 511.361 368.44C512.546 366.346 513.55 364.155 514.361 361.89C514.551 361.34 514.721 360.77 514.871 360.21L515.271 358.45L517.061 358.06L520.721 357.3L520.821 357.52Z" fill="#221F1F"/>
<path d="M576.011 234.14L582.421 218.42C581.631 217.89 580.738 217.529 579.801 217.36L573.401 233.07C574.208 233.566 575.089 233.927 576.011 234.14Z" fill="#232020"/>
<path d="M418.051 198.5L563.991 199.91V212.44H418.051V198.5Z" fill="#221F1F"/>
<path d="M527.901 210.77L562.531 210.97L562.601 201.3L546.251 201.12L483.741 200.12C474.501 199.98 465.201 199.91 456.031 199.87C444.241 199.81 432.401 199.87 420.631 199.49C413.291 199.24 422.631 196.75 436.211 196.86C460.281 197.05 484.341 197.39 508.601 198C523.111 198.36 538.221 198.39 553.061 198.59L565.191 198.75L565.081 213.56L538.441 213.45L508.301 213.32C493.081 213.32 477.791 213.2 462.691 213.23C450.951 213.23 439.441 213.45 427.831 213.57L420.201 213.66H416.781C416.781 212.24 416.781 210.93 416.781 209.72C416.781 208.887 416.781 208.127 416.781 207.44C416.781 206.05 416.851 204.91 416.921 203.97C416.967 202.613 417.192 201.268 417.591 199.97C417.724 199.509 417.887 199.058 418.081 198.62C418.631 197.7 419.081 201.62 419.251 208.62C419.251 209.25 419.251 209.87 419.251 210.51V210.85V211.09H419.721H421.561L425.261 211.03L432.731 210.92L447.861 210.78L478.651 210.69L527.721 210.79L527.901 210.77Z" fill="#221F1F"/>
<path d="M472.861 196.67L440.531 196.43L420.891 109.88C420.611 108.46 415.031 109.72 415.381 111.13L436.011 202.05L472.821 202.31C473.961 202.34 474.001 196.66 472.861 196.67Z" fill="#232020"/>
<path d="M535.131 314.16C536.324 310.16 537.508 306.14 538.681 302.1C539.111 300.63 539.461 299.1 539.891 297.68C541.431 292.52 543.011 287.37 544.531 282.2C545.201 279.91 545.791 277.58 546.361 275.28C546.982 272.289 547.79 269.34 548.781 266.45C549.461 264.67 551.571 267.73 550.691 271.13C549.121 277.13 547.391 283.13 545.361 289.07C544.161 292.63 543.261 296.43 542.211 300.12C541.051 304.18 539.861 308.23 538.691 312.28C537.971 314.78 537.241 317.28 536.531 319.77C535.461 323.55 534.351 327.34 533.381 331.12C532.621 334.06 532.041 336.99 531.381 339.92C531.241 340.56 531.121 341.2 530.961 341.85C530.371 344.24 529.961 344.95 529.081 345.26C528.885 345.346 528.68 345.413 528.471 345.46C527.821 345.53 527.601 344.46 527.901 342.64C528.781 337.32 530.181 331.84 531.651 326.36C532.741 322.29 533.911 318.22 535.051 314.14L535.131 314.16Z" fill="#221F1F"/>
<path d="M422.551 304.5C422.758 297.26 422.961 290.02 423.161 282.78C423.231 280.14 423.221 277.5 423.291 274.86C423.571 265.56 423.891 256.25 424.151 246.95C424.271 242.82 424.301 238.67 424.311 234.57C424.311 229.3 424.181 224.02 424.581 218.76C424.821 215.48 427.581 219.68 427.531 225.76C427.431 236.51 427.151 247.26 426.591 258.09C426.251 264.57 426.281 271.32 426.121 277.95C425.951 285.24 425.751 292.53 425.571 299.82C425.451 304.314 425.338 308.8 425.231 313.28C425.091 320.08 424.901 326.91 424.841 333.65C424.841 338.9 424.931 344.04 424.981 349.23C424.981 350.37 425.031 351.48 425.031 352.64C425.031 356.9 424.801 358.26 424.031 359.16C423.874 359.38 423.693 359.581 423.491 359.76C422.881 360.16 422.401 358.41 422.271 355.29C421.881 346.01 421.941 336.29 422.081 326.43C422.181 319.14 422.361 311.82 422.511 304.51L422.551 304.5Z" fill="#221F1F"/>
<path d="M186.761 208.2C182.951 208.151 179.205 207.213 175.821 205.46C174.821 204.96 172.381 206.34 173.691 206.99C177.422 208.959 181.563 210.024 185.781 210.1C187.041 210.1 188.621 208.22 186.781 208.2H186.761Z" fill="#221F1F"/>
<path d="M235.421 50.6903C235.76 51.5415 235.973 52.4376 236.052 53.3503C236.112 54.1103 235.882 56.4403 234.662 55.4503C233.222 54.2803 232.732 51.6103 232.452 49.8603C232.292 48.9203 230.262 49.4303 230.452 50.4103C230.822 52.6503 231.722 56.8603 234.452 57.2203C235.32 57.2994 236.186 57.0364 236.863 56.4874C237.541 55.9383 237.978 55.1465 238.081 54.2803C238.215 52.8728 237.998 51.4542 237.452 50.1503C237.092 49.2203 235.072 49.7903 235.452 50.6903H235.421Z" fill="#221F1F"/>
<path d="M240.421 40.2202C241.534 41.8002 242.102 43.6989 242.041 45.6302C242.171 48.7302 242.431 51.8302 242.731 54.9402V55.2302V55.3702C242.731 55.3702 243.111 55.6602 243.381 55.8702C243.991 56.3502 244.621 56.8702 245.251 57.3502C245.881 57.8302 246.491 58.3502 247.091 58.9702C247.772 59.5944 248.352 60.3196 248.811 61.1202C249.047 61.5073 249.172 61.9519 249.172 62.4052C249.172 62.8585 249.047 63.3031 248.811 63.6902C248.385 64.3191 247.783 64.8093 247.081 65.1002C246.534 65.3198 245.958 65.4612 245.371 65.5202C244.837 65.578 244.299 65.6014 243.761 65.5902H243.641C243.641 65.0102 243.641 67.3802 243.541 68.7802C243.504 69.5602 243.427 70.3379 243.311 71.1102L243.161 72.2802L242.921 73.4402C242.465 75.8634 241.567 78.182 240.271 80.2802C238.949 82.382 237.222 84.2005 235.191 85.6302C231.117 88.2338 226.523 89.9163 221.731 90.5602L219.651 90.8502L218.651 91.0002C218.415 91.0486 218.184 91.1189 217.961 91.2102C216.893 91.745 215.958 92.51 215.221 93.4502C213.647 95.426 212.324 97.5891 211.281 99.8902C211.123 100.284 210.943 100.667 210.741 101.04C210.441 101.51 210.161 101.71 209.911 101.71C209.661 101.71 209.431 101.51 209.381 101.04C209.327 100.82 209.327 100.59 209.381 100.37C210.211 98.5102 210.281 96.6802 211.491 94.8002C212.599 92.9928 213.974 91.3642 215.571 89.9702L216.261 89.4702C216.521 89.3202 216.801 89.1802 217.071 89.0502C217.36 88.9083 217.666 88.8041 217.981 88.7402L218.451 88.6202L218.811 88.5602L221.691 88.0602C223.201 87.7102 224.691 87.4602 226.201 87.0602C228.099 86.6054 229.945 85.9587 231.711 85.1302C232.113 84.9284 232.504 84.7047 232.881 84.4602L233.691 83.9802C233.981 83.8002 234.261 83.5502 234.571 83.3202C236.111 82.1733 237.414 80.7405 238.411 79.1002C239.691 77.0209 240.538 74.7046 240.901 72.2902C241.051 71.6602 241.081 70.9902 241.171 70.2902C241.256 69.6266 241.307 68.959 241.321 68.2902C241.355 67.624 241.355 66.9564 241.321 66.2902C241.321 65.1902 241.321 64.1002 241.321 63.0102L242.711 63.2102C242.936 63.2479 243.163 63.2712 243.391 63.2802C243.591 63.2802 243.881 63.2802 243.941 63.2802C244.366 63.2929 244.791 63.2695 245.211 63.2102C245.586 63.1719 245.952 63.081 246.301 62.9402C246.519 62.8607 246.717 62.7344 246.881 62.5702C246.901 62.5406 246.912 62.5058 246.912 62.4702C246.912 62.4346 246.901 62.3998 246.881 62.3702C246.842 62.28 246.795 62.193 246.741 62.1102C246.666 61.9849 246.582 61.8647 246.491 61.7502C246.077 61.2284 245.619 60.7432 245.121 60.3002C244.121 59.3802 243.051 58.5402 242.031 57.7302C241.731 57.4902 241.441 57.2402 241.141 57.0102L240.821 56.7302L240.661 56.5902V56.3802C240.661 56.1002 240.661 55.8302 240.591 55.5602C240.591 54.9502 240.491 54.3502 240.451 53.7702C240.371 52.6102 240.291 51.5402 240.231 50.5502C240.001 46.5502 240.031 44.1002 240.041 43.8202C240.1 42.614 240.226 41.412 240.421 40.2202Z" fill="#221F1F"/>
<path d="M240.081 74.74C239.981 74.74 239.851 74.74 240.201 74.74H239.891C239.605 74.765 239.317 74.765 239.031 74.74C238.555 74.6931 238.095 74.5392 237.686 74.2899C237.278 74.0406 236.931 73.7022 236.671 73.3C236.041 72.38 233.671 73.3 234.411 74.38C235.122 75.2775 236.082 75.9458 237.17 76.3015C238.258 76.6571 239.427 76.6845 240.531 76.38C241.011 76.27 241.691 75.78 241.531 75.21C241.371 74.64 240.531 74.59 240.081 74.69V74.74Z" fill="#221F1F"/>
<path d="M237.892 43C233.512 41.18 227.112 41 225.152 46.23C224.542 47.85 227.452 47.95 227.942 46.65C229.262 43.14 233.432 43.9 236.242 45.07C237.562 45.62 239.612 43.72 237.892 43Z" fill="#221F1F"/>
<path d="M545.582 56.6502C545.936 55.2341 546.118 53.7801 546.122 52.3202C546.11 51.8117 546.07 51.3042 546.002 50.8002C545.967 50.0532 545.665 49.3435 545.152 48.8002C544.533 48.2962 543.76 48.0207 542.962 48.0202C542.145 48.0037 541.333 48.1324 540.562 48.4002C539.562 48.7302 538.562 49.2802 537.562 49.5302C537.402 49.5802 537.412 49.3602 537.212 49.2002C537.103 49.1003 537.018 48.9776 536.963 48.841C536.908 48.7045 536.883 48.5574 536.892 48.4102C536.868 48.0473 536.95 47.6853 537.128 47.3678C537.305 47.0503 537.57 46.7907 537.892 46.6202C539.083 46.0957 540.347 45.7584 541.642 45.6202C543.096 45.4444 544.568 45.75 545.832 46.4902C546.634 47.003 547.289 47.7166 547.732 48.5602C548.123 49.3325 548.355 50.1761 548.412 51.0402C548.486 52.7007 548.375 54.3642 548.082 56.0002C547.908 56.991 547.67 57.9697 547.372 58.9302C546.928 60.3729 546.376 61.7802 545.722 63.1402C545.232 64.2002 544.822 65.2802 544.272 66.3102C544.142 66.5302 544.032 66.7702 543.902 66.9902C543.362 67.7902 543.012 67.9402 542.402 67.6802C542.256 67.6291 542.116 67.5655 541.982 67.4902C541.772 67.3377 541.629 67.1094 541.584 66.8538C541.54 66.5981 541.596 66.3351 541.742 66.1202C542.522 64.3602 543.442 62.6202 544.172 60.7902C544.743 59.4428 545.182 58.0428 545.482 56.6102L545.582 56.6502Z" fill="#221F1F"/>
<path d="M553.291 48.3203C553.864 47.8064 554.512 47.3817 555.211 47.0603C557.401 46.0603 559.071 46.5403 560.781 48.2403C561.681 49.1303 565.231 49.1003 563.721 47.6003C559.951 43.8503 554.041 43.0103 549.961 46.8103C548.911 47.8103 552.301 49.2403 553.291 48.3203Z" fill="#221F1F"/>
<path d="M548.591 77.89C548.311 77.992 548.018 78.0526 547.721 78.07C547.419 78.1046 547.114 78.1046 546.811 78.07C546.593 78.0857 546.373 78.0655 546.161 78.01C545.447 77.7746 544.806 77.3577 544.301 76.8C544.085 76.5992 543.881 76.3855 543.691 76.16C543.454 75.8707 543.293 75.5271 543.221 75.16C543.221 75.08 543.221 75.03 543.221 75.16C543.411 75.176 543.602 75.176 543.791 75.16C544.405 75.1328 545.016 75.2673 545.561 75.55C545.694 75.6319 545.846 75.6768 546.001 75.68C546.151 75.6601 546.302 75.6601 546.451 75.68C546.621 75.6705 546.791 75.6705 546.961 75.68H547.511C547.753 75.6607 547.993 75.6273 548.231 75.58C548.626 75.5042 549.007 75.3693 549.361 75.18C549.641 75.04 549.871 74.84 550.181 74.7L550.381 74.61C550.641 74.51 550.791 74.54 550.841 74.5C550.794 74.6004 550.767 74.7091 550.761 74.82C550.661 75.15 550.601 75.54 550.491 75.93C550.349 76.2866 550.161 76.6228 549.931 76.93C549.554 77.3734 549.073 77.7169 548.531 77.93L548.591 77.89Z" fill="#221F1F"/>
</g>
<defs>
<clipPath id="clip0_389_3140">
<rect width="769" height="389" fill="white"/>
</clipPath>
</defs>
</svg>
