<svg width="387" height="551" viewBox="0 0 387 551" fill="none" xmlns="http://www.w3.org/2000/svg">
<path d="M321.158 513.089C320.388 512.809 319.648 512.377 318.938 511.906C318.678 511.74 318.498 511.499 318.298 511.321C317.948 511.015 317.678 510.646 317.468 510.137C317.278 509.629 317.158 509.005 317.118 508.331C317.088 507.733 317.178 507.122 317.298 506.524C317.368 506.13 317.488 505.761 317.558 505.367C317.608 504.959 317.648 504.54 317.678 504.107C317.688 503.84 317.568 503.802 317.328 503.916C317.098 504.031 316.678 504.26 316.398 504.667C315.968 505.417 315.718 506.283 315.508 507.211C315.338 508.14 315.218 509.209 315.498 510.265C315.788 511.486 316.278 512.86 317.068 513.687C317.888 514.578 318.748 515.086 319.668 515.57C320.228 515.862 320.798 516.079 321.368 516.282C322.238 516.588 323.138 516.728 324.008 516.906C324.688 517.033 325.368 517.287 326.068 517.376C326.228 517.402 326.378 517.44 326.538 517.44C327.118 517.44 327.288 517.173 327.308 516.346C327.308 516.155 327.328 515.964 327.308 515.773C327.278 515.137 327.008 514.654 326.648 514.527C325.568 514.12 324.538 514.005 323.488 513.763C322.708 513.585 321.928 513.369 321.178 513.025L321.158 513.089Z" fill="#242021"/>
<path d="M309.019 515.455C310.219 515.354 311.439 514.972 312.629 514.387C313.059 514.17 313.509 513.992 313.919 513.674C314.629 513.114 315.289 512.389 315.749 511.499C316.219 510.621 316.539 509.692 316.789 508.789C317.009 507.975 317.189 507.173 317.349 506.384C317.499 505.354 317.569 504.323 317.539 503.28C317.529 502.962 317.439 502.975 317.259 503.204C317.089 503.433 316.769 503.853 316.539 504.374C316.349 504.845 316.159 505.29 315.969 505.723C315.789 506.168 315.659 506.613 315.489 507.02C315.169 507.86 314.829 508.623 314.459 509.336C313.989 510.176 313.269 510.697 312.499 511.13C311.659 511.613 310.689 511.918 309.669 512.058C309.039 512.16 308.399 512.224 307.749 512.211C306.749 512.211 305.719 512.147 304.689 512.058C303.889 511.982 303.089 511.753 302.239 511.715C302.049 511.715 301.869 511.677 301.679 511.689C300.979 511.766 300.769 512.046 300.749 512.822C300.749 513 300.729 513.178 300.749 513.356C300.789 513.954 301.109 514.361 301.539 514.488C302.829 514.845 304.119 515.163 305.589 515.379C306.669 515.506 307.819 515.595 309.049 515.544V515.455H309.019Z" fill="#242021"/>
<path d="M261.509 87.3356C263.439 90.7706 265.689 102.043 261.509 107.92C257.329 113.785 249.489 110.999 249.489 110.999C249.489 110.999 249.469 142.08 249.779 146.367C250.089 150.655 252.569 160.998 255.699 162.245C258.829 163.492 271.249 165.985 272.419 154.471C273.589 142.945 273.289 116.979 273.619 113.798C273.949 110.617 273.029 96.9409 271.669 94.4219C270.309 91.9029 261.519 87.3356 261.519 87.3356H261.509Z" fill="#BDC4CC"/>
<path d="M269.579 132.373C270.009 132.449 270.459 132.551 270.879 132.703C271.039 132.767 271.159 132.894 271.309 132.958C271.849 133.212 272.359 133.581 272.819 134.077C273.029 134.294 273.179 134.574 273.309 134.854C273.439 135.248 273.639 135.579 273.879 135.973C273.959 136.1 274.069 136.062 274.209 135.897C274.349 135.731 274.569 135.401 274.609 135.057C274.659 134.739 274.609 134.446 274.539 134.167C274.479 133.887 274.389 133.607 274.289 133.352C274.189 133.085 274.059 132.843 273.919 132.627C273.759 132.411 273.579 132.245 273.389 132.08C272.939 131.711 272.579 131.202 272.109 130.846C271.599 130.464 271.059 130.197 270.499 130.044C270.159 129.943 269.819 129.866 269.489 129.803C268.979 129.701 268.469 129.676 267.979 129.574C267.599 129.497 267.229 129.281 266.849 129.154C266.769 129.128 266.689 129.078 266.599 129.078C266.289 129.039 266.189 129.23 266.109 129.879L266.059 130.324C266.029 130.833 266.139 131.253 266.349 131.431C266.969 131.991 267.599 132.042 268.209 132.169C268.659 132.245 269.109 132.296 269.539 132.424V132.36L269.579 132.373Z" fill="#242021"/>
<path d="M252.308 151.723C251.548 147.868 251.128 143.759 250.848 139.65C250.748 138.149 250.758 136.635 250.678 135.121C250.548 132.449 250.458 129.777 250.388 127.093C250.298 124.408 250.218 121.724 250.198 119.027C250.198 116.635 250.208 114.231 250.228 111.864C250.228 108.811 250.448 105.745 249.908 102.666C249.708 101.712 249.728 101.852 249.498 102.653C249.238 103.455 248.678 104.918 248.478 106.648C248.218 109.74 247.938 112.844 247.738 115.961C247.648 119.091 247.618 122.22 247.718 125.388C247.858 129.167 247.778 133.098 247.918 136.978C248.108 141.24 248.398 145.502 249.028 149.764C249.418 152.385 249.908 154.993 250.788 157.55C251.138 158.504 251.528 159.471 252.088 160.349L252.518 160.998L253.038 161.583C253.378 162.003 253.758 162.219 254.128 162.537C255.618 163.568 257.168 164.179 258.728 164.649C259.948 165.018 261.168 165.273 262.408 165.425C263.648 165.578 264.928 165.603 266.218 165.324C266.788 165.222 267.348 165.069 267.918 164.815C268.448 164.586 268.868 164.268 269.208 164.039C269.538 163.733 269.778 163.428 269.948 163.161C270.298 162.626 270.328 162.067 270.228 161.545C270.178 161.303 270.148 161.049 270.068 160.858C269.918 160.54 269.618 160.451 269.238 160.489C269.048 160.502 268.858 160.591 268.628 160.654C268.388 160.718 268.138 160.807 267.868 160.934C266.208 161.596 264.298 161.647 262.348 161.507C261.368 161.405 260.378 161.252 259.408 160.973C258.438 160.718 257.468 160.362 256.598 159.904C255.948 159.573 255.338 159.153 254.938 158.746C254.568 158.441 254.218 157.728 253.868 157.054C253.208 155.553 252.728 153.657 252.368 151.736H252.298L252.308 151.723Z" fill="#242021"/>
<path d="M343.998 352.991C346.858 331.643 349.618 310.282 352.128 288.858C353.038 281.033 354.018 273.235 354.778 265.372C355.098 261.899 355.428 258.438 355.628 254.876L355.668 253.489L355.688 252.79C355.688 252.548 355.658 252.141 355.638 251.836C355.598 251.518 355.598 251.136 355.498 250.869L355.228 250.054C355.038 249.507 354.848 249.189 354.668 248.744C353.908 247.141 353.108 245.703 352.288 244.266C349.008 238.592 345.558 233.197 342.078 227.79C335.118 217.027 328.008 206.455 320.868 195.908C314.528 186.57 308.148 177.168 301.848 167.894C293.708 156.036 285.688 143.95 276.618 133.161C273.828 129.765 274.168 130.248 276.098 133.632C277.068 135.312 278.338 137.818 279.958 140.757C280.768 142.22 281.618 143.861 282.588 145.502C283.578 147.131 284.648 148.835 285.788 150.578L288.828 155.197L291.928 159.738L298.128 168.835C302.268 174.904 306.398 180.972 310.548 187.041C318.858 199.152 327.178 211.302 335.438 223.605C340.348 230.971 345.308 238.604 349.858 246.543C350.408 247.535 350.978 248.54 351.468 249.546C351.738 250.054 351.968 250.551 352.178 251.034C352.288 251.276 352.418 251.543 352.458 251.708L352.558 251.988L352.588 252.052V252.09L352.608 252.103C351.858 252.395 353.638 251.721 353.398 251.823L352.858 252.065L352.608 252.166V252.243C352.598 252.421 352.608 252.497 352.618 252.739L352.588 253.617C352.578 254.189 352.548 254.787 352.498 255.398C352.418 256.606 352.328 257.828 352.218 259.062C351.788 263.973 351.278 268.896 350.748 273.794C348.408 295.346 345.688 316.872 342.868 338.36C341.118 351.579 339.308 364.797 337.418 377.99C334.558 397.964 331.588 418.015 328.338 437.735C325.808 453.065 323.018 468.014 320.098 483.026C319.438 486.334 318.788 489.553 318.128 492.886C315.718 505.239 315.078 509.209 315.398 512.148C315.468 512.822 315.498 513.674 315.628 514.094C316.028 515.506 317.688 510.672 319.678 501.664C325.568 474.909 330.288 446.271 334.768 417.468C338.078 396.082 341.138 374.53 344.088 353.004L344.018 352.966L343.998 352.991Z" fill="#242021"/>
<path d="M319.349 209.814L309.629 195.603C308.449 193.873 307.319 192.079 306.129 190.374C301.889 184.343 297.659 178.313 293.279 172.461C291.349 169.853 289.459 167.156 287.539 164.573C286.279 162.944 285.019 161.303 283.759 159.662L282.789 158.466L281.769 157.334L279.729 155.069C278.879 154.141 279.009 154.242 279.559 155.235C279.839 155.731 280.209 156.456 280.639 157.359C280.859 157.83 281.089 158.314 281.339 158.822C281.459 159.09 281.599 159.331 281.719 159.624C281.869 159.878 282.029 160.133 282.189 160.387C284.459 164.051 286.659 167.792 289.129 171.227C291.549 174.725 293.939 178.249 296.489 181.659C299.529 185.73 302.379 190.323 305.299 194.699L314.949 209.139L320.899 218.032C323.889 222.536 326.939 227.014 329.859 231.531C332.129 235.042 334.239 238.617 336.439 242.154C336.919 242.93 337.379 243.719 337.879 244.482C338.819 245.907 339.469 246.797 340.029 247.319C340.609 247.815 341.059 247.968 341.559 247.93C341.789 247.917 342.039 247.955 342.219 247.892C342.529 247.777 342.579 247.345 342.419 246.632C342.259 245.92 341.899 244.927 341.259 243.846C337.539 237.332 333.309 230.831 329.029 224.292C325.829 219.47 322.619 214.61 319.409 209.775L319.349 209.826V209.814Z" fill="#242021"/>
<path d="M312.339 516.957L319.109 517.058C319.929 517.084 320.749 517.224 321.569 517.236C324.479 517.313 327.379 517.376 330.289 517.453C331.579 517.504 332.869 517.669 334.139 517.822C334.949 517.949 335.779 518.025 336.599 518.063C337.419 518.114 338.249 518.127 339.089 517.898C339.619 517.682 339.559 517.656 339.159 517.211C338.959 516.982 338.679 516.689 338.329 516.32C337.979 516.002 337.559 515.761 337.099 515.595C335.459 514.972 333.799 514.692 332.119 514.438C330.449 514.183 328.769 513.992 327.069 513.967C325.029 513.967 322.949 513.534 320.879 513.343C318.599 513.14 316.329 512.974 314.039 512.86L309.829 512.682C307.709 512.567 305.569 512.542 303.459 512.338C301.819 512.186 300.229 511.791 298.609 511.511C298.249 511.448 297.909 511.346 297.549 511.308C296.219 511.168 295.779 511.562 295.469 512.644C295.399 512.898 295.309 513.14 295.259 513.382C295.109 514.17 295.639 514.985 296.599 515.354C299.459 516.295 302.479 516.511 305.519 516.728C307.779 516.842 310.049 516.957 312.319 517.058V516.957H312.339Z" fill="#242021"/>
<path d="M269.329 127.653C267.959 128.034 266.599 128.352 265.219 128.518C264.719 128.581 264.209 128.518 263.709 128.556C261.929 128.683 260.109 128.81 258.299 128.556C257.499 128.454 256.709 128.2 255.919 128.022L254.409 127.564C253.909 127.386 253.359 127.411 252.829 127.335C252.489 127.322 252.479 127.487 252.669 127.882C252.759 128.085 252.899 128.352 253.069 128.658C253.249 128.925 253.439 129.357 253.729 129.51C254.219 129.841 254.729 130.159 255.239 130.452C255.749 130.744 256.269 131.024 256.819 131.164C257.899 131.508 259.019 131.698 260.139 131.737C261.479 131.787 262.859 132.106 264.229 132.093C265.729 132.093 267.229 131.915 268.709 131.673C269.609 131.52 270.529 131.317 271.379 131.164C271.719 131.1 272.109 130.922 272.489 131.024C272.589 131.075 272.579 131.215 272.599 131.329L272.629 131.686C272.649 131.927 272.659 132.169 272.659 132.424V133.314C272.639 133.632 272.619 133.963 272.589 134.281C272.539 134.93 272.479 135.566 272.459 136.189C272.449 136.469 272.409 136.736 272.409 137.016C272.389 138.034 272.549 138.301 273.129 138.645C273.259 138.734 273.389 138.836 273.519 138.912C273.949 139.205 274.469 138.747 274.729 137.894C275.099 136.647 275.399 135.401 275.489 134.128L275.559 133.174L275.579 132.691V132.449L275.589 132.042V130.172C275.579 129.854 275.519 129.574 275.489 129.268C275.469 128.95 275.329 128.772 275.259 128.531C275.019 127.945 274.489 127.373 273.919 127.144C273.349 126.877 272.629 126.877 271.919 126.966L271.379 127.067L270.909 127.169L270.369 127.296L269.319 127.538V127.64L269.329 127.653Z" fill="#242021"/>
<path d="M256.999 109.04C254.539 108.429 251.919 108.582 249.479 109.447C248.849 109.676 248.089 109.167 247.939 108.34C247.789 107.513 248.139 106.623 248.809 106.381C251.699 105.35 254.719 105.236 257.659 105.974C258.319 106.139 258.699 107.144 258.529 107.933C258.339 108.811 257.659 109.205 256.989 109.04H256.999Z" fill="#242021"/>
<path d="M257.329 115.376C254.599 115.579 251.869 115.63 249.139 115.541C248.489 115.516 247.859 114.829 247.889 113.951C247.919 113.073 248.439 112.335 249.139 112.36C251.869 112.449 254.609 112.386 257.329 112.195C257.979 112.144 258.609 112.958 258.579 113.785C258.549 114.689 258.029 115.325 257.329 115.376Z" fill="#242021"/>
<path d="M256.759 121.762L248.569 121.317C247.919 121.279 247.289 120.605 247.319 119.727C247.349 118.9 247.869 118.098 248.569 118.136L256.759 118.582C257.409 118.62 258.039 119.294 258.009 120.172C257.979 120.999 257.459 121.8 256.759 121.762Z" fill="#242021"/>
<path d="M256.189 165.82C258.159 166.367 260.129 166.532 262.089 166.405C264.049 166.265 266.009 165.871 267.939 164.993C268.899 164.573 269.859 163.975 270.779 163.186C271.239 162.817 271.659 162.257 272.089 161.774C272.309 161.43 272.609 160.922 272.729 160.578C272.849 160.235 272.989 159.878 273.079 159.548C273.759 157.003 274.029 154.7 274.319 152.334C274.709 148.912 275.039 145.515 275.209 142.105C275.499 136.1 275.609 130.095 275.549 124.09C275.489 118.085 275.259 112.093 274.719 106.088C274.469 103.429 274.169 100.758 273.679 98.0859C273.419 96.7501 273.139 95.4142 272.669 94.0783C272.459 93.4168 272.149 92.7425 271.809 92.0937C271.429 91.5466 271.099 90.9232 270.659 90.4652C268.539 87.8062 265.669 86.5213 262.889 86.1396C261.489 85.9869 260.069 85.9742 258.689 86.3177C257.999 86.4831 257.329 86.7376 256.669 87.0174C256.009 87.3355 255.409 87.819 254.819 88.277C254.109 88.9131 253.839 89.2184 253.869 89.2311C253.909 89.2693 254.279 89.0276 254.979 88.8749C255.689 88.7222 256.719 88.824 257.869 88.9258C258.449 88.9894 259.069 89.1039 259.699 89.2057C260.339 89.2693 260.999 89.3711 261.679 89.4729C262.889 89.651 264.069 90.0454 265.149 90.6179C266.229 91.1776 267.259 91.801 268.109 92.6916L268.709 93.3913C268.909 93.6203 269.059 93.9002 269.239 94.1547C269.439 94.4091 269.519 94.6509 269.639 94.8926C269.769 95.1089 269.859 95.4905 269.979 95.7831C270.409 97.1063 270.739 98.6584 270.999 100.249C272.039 106.686 272.389 113.582 272.679 120.426C272.979 128.645 272.599 137.258 271.979 145.617C271.809 147.907 271.609 150.209 271.329 152.461C271.189 153.594 271.029 154.7 270.839 155.794C270.639 156.85 270.419 157.983 270.119 158.759L270.069 158.911L270.029 158.988C270.029 158.988 269.979 159.09 269.959 159.153C269.849 159.293 269.689 159.459 269.569 159.611C269.329 159.955 268.969 160.196 268.649 160.476C267.979 160.998 267.199 161.405 266.399 161.749C264.789 162.41 263.039 162.728 261.299 162.792C259.169 162.868 256.959 162.614 255.039 161.647C254.069 161.214 253.199 160.527 252.649 159.688C252.099 158.975 251.859 157.601 251.609 156.265C250.919 152.156 250.619 147.792 250.339 143.492C250.089 139.179 249.939 134.841 249.869 130.541C249.759 123.849 249.959 117.284 250.219 110.681C250.289 109.231 250.359 107.818 250.439 106.355C250.669 100.948 250.649 99.2691 249.859 97.9841C249.689 97.6915 249.539 97.3226 249.369 97.1317C248.849 96.4956 247.929 98.6711 247.579 102.717C247.019 108.696 246.789 114.828 246.709 121.05C246.639 127.271 246.739 133.581 247.069 139.917C247.309 144.624 247.629 149.332 248.249 154.115C248.409 155.311 248.589 156.52 248.839 157.766C248.969 158.403 249.099 159.013 249.309 159.713C249.489 160.311 249.819 161.303 250.269 161.888C251.119 163.301 252.159 163.988 253.149 164.662C253.649 164.929 254.149 165.184 254.659 165.4C255.159 165.565 255.659 165.769 256.159 165.909L256.189 165.82Z" fill="#242021"/>
<path d="M245.469 75.7455C245.379 76.0762 245.619 76.3434 246.009 76.5851C246.129 76.6615 246.499 76.636 246.559 76.547C246.659 76.3561 246.769 76.1526 246.849 75.9617C246.899 75.8472 247.139 73.9134 247.229 73.2391C247.329 72.5903 247.329 71.9415 247.319 71.3054C247.259 70.0077 247.109 68.71 246.929 67.425C246.889 67.1451 246.819 66.8652 246.719 66.5981C246.379 65.6821 246.179 64.7279 246.019 63.761C245.989 63.5956 245.939 63.4429 245.989 63.2521C246.099 62.934 245.419 60.3514 245.239 60.0715C244.839 59.3336 244.389 58.6466 243.959 57.9596C243.899 57.8578 243.879 57.7306 243.739 57.6924C243.409 57.6034 243.349 57.3489 243.239 57.1326C243.089 56.8146 242.879 56.5474 242.649 56.293C242.539 56.1658 242.349 56.1021 242.189 56.0131C242.039 55.9367 241.799 56.2166 241.779 56.2803C241.749 56.4838 241.559 56.4711 241.439 56.5347C241.399 56.5601 241.339 56.5856 241.309 56.6238C241.259 56.6874 241.289 58.9138 241.369 59.0792C241.369 59.0919 241.429 59.27 241.489 59.5372C241.549 59.8043 241.629 60.1606 241.719 60.5295C241.849 61.2801 242.089 62.0053 242.099 62.1707C242.129 62.3361 242.239 62.4633 242.319 62.6033C242.379 62.6669 242.799 64.8806 242.819 64.9569C242.969 65.3895 242.989 65.8729 243.319 66.2419C243.379 66.3182 243.389 66.4072 243.409 66.4963C243.549 67.2851 243.809 68.0357 244.009 68.8118C244.119 69.2062 244.149 69.626 244.219 70.0331C244.229 70.1095 244.279 70.1731 244.299 70.2367C244.329 70.3257 244.369 70.4148 244.379 70.5038C244.479 71.4835 244.799 72.4249 244.839 73.4173C244.869 73.6463 245.209 74.7022 245.199 74.9694C245.199 75.1221 245.529 75.5801 245.489 75.72L245.469 75.7455Z" fill="#242021"/>
<path d="M238.288 83.188C238.388 83.4934 238.698 83.4425 239.118 83.2135C239.248 83.1371 239.528 82.7682 239.518 82.6537C239.508 82.4247 239.488 82.1957 239.458 81.9921C239.438 81.8776 238.718 80.3764 238.488 79.8293C238.278 79.2823 237.968 78.8879 237.658 78.4935C237.018 77.692 236.388 76.865 235.728 76.089C235.578 75.9108 235.418 75.7709 235.228 75.6564C234.598 75.262 234.068 74.7149 233.578 74.1043C233.498 74.0025 233.398 73.9262 233.368 73.7353C233.338 73.4173 231.888 71.916 231.638 71.8142C231.038 71.5598 230.498 71.229 229.908 70.9746C229.818 70.9364 229.768 70.8346 229.628 70.9237C229.308 71.1272 229.178 70.9491 229.008 70.8474C228.778 70.7074 228.528 70.5929 228.258 70.5293C228.128 70.5039 227.928 70.5929 227.758 70.6565C227.598 70.7074 227.418 71.2163 227.428 71.2926C227.448 71.5216 227.258 71.6743 227.158 71.8524C227.118 71.916 227.078 71.9924 227.058 72.056C227.018 72.1705 227.768 74.0152 227.878 74.1424C227.878 74.2188 229.498 75.8472 229.648 76.0762C229.728 76.1907 229.878 76.2035 229.998 76.2544C230.058 76.2671 231.278 77.692 231.328 77.7301C231.628 77.9464 231.838 78.3027 232.258 78.3027C232.338 78.3027 232.388 78.3663 232.438 78.4299C232.888 78.9133 233.418 79.2568 233.918 79.6639C234.178 79.8675 234.388 80.1347 234.628 80.3637C234.668 80.4018 234.738 80.4146 234.788 80.44C234.858 80.4782 234.928 80.5036 234.978 80.5545C235.528 81.1397 236.128 81.6359 236.638 82.2593C236.758 82.3992 237.548 82.7936 237.668 82.9718C237.748 83.0608 238.228 83.0608 238.258 83.188H238.288Z" fill="#242021"/>
<path d="M237.158 93.5949C237.398 93.5949 237.498 93.2768 237.528 92.8315C237.528 92.6916 237.408 92.3354 237.328 92.3099C237.178 92.2717 237.028 92.2209 236.888 92.2081C236.808 92.2081 235.608 92.5262 235.198 92.5771C234.798 92.6407 234.418 92.7552 234.038 92.8951C233.268 93.1496 232.488 93.3786 231.708 93.5694C231.538 93.6203 231.368 93.6839 231.208 93.7857C230.658 94.1165 230.058 94.2819 229.458 94.3582C229.358 94.3582 229.258 94.4091 229.148 94.3328C228.958 94.2183 227.348 94.4854 227.148 94.5872C226.598 94.8798 226.148 95.1215 225.658 95.3887C225.588 95.4269 225.498 95.3887 225.448 95.5414C225.328 95.8722 225.158 95.8467 224.998 95.8976C224.778 95.974 224.558 96.0503 224.338 96.1902C224.228 96.2538 224.138 96.4447 224.038 96.5973C223.948 96.7373 224.038 97.1826 224.078 97.2335C224.198 97.3607 224.128 97.5897 224.138 97.7805C224.138 97.8441 224.138 97.9332 224.148 97.9841C224.168 98.0986 225.598 98.6838 225.748 98.6456C225.768 98.6456 226.278 98.6075 226.818 98.582C227.358 98.5566 227.908 98.4294 228.028 98.4294C228.148 98.4294 228.258 98.3149 228.368 98.2385C228.418 98.2258 230.018 97.895 230.078 97.8569C230.388 97.7042 230.728 97.6787 230.998 97.3225C231.048 97.2589 231.118 97.2462 231.178 97.2207C231.728 97.0299 232.248 96.7118 232.778 96.4192C233.048 96.2666 233.328 96.1648 233.598 96.0376C233.648 96.0121 233.688 95.9612 233.738 95.9231C233.798 95.8722 233.848 95.8213 233.908 95.7958C234.558 95.5032 235.168 95.0834 235.818 94.8035C235.968 94.7399 236.598 94.1547 236.768 94.0911C236.868 94.0529 237.078 93.6076 237.178 93.6076L237.158 93.5949Z" fill="#242021"/>
<path d="M221.948 204.854C223.559 204.104 225.156 203.366 226.711 202.548C227.275 202.24 227.826 201.931 228.377 201.609C230.331 200.523 232.231 199.33 234.021 197.989C234.778 197.359 235.507 196.675 236.209 195.991C236.65 195.535 237.104 195.106 237.545 194.636C237.944 194.154 238.343 193.698 238.77 193.188C239.031 192.893 239.045 192.96 238.935 193.282C238.811 193.604 238.605 194.207 238.26 194.878C237.971 195.481 237.558 196.004 237.187 196.581C236.994 196.849 236.829 197.157 236.595 197.412L235.879 198.123C234.929 199.088 233.842 199.906 232.727 200.657C231.35 201.502 229.974 202.468 228.528 203.259C226.945 204.13 225.335 204.921 223.724 205.699L220.751 207.134C219.264 207.872 217.764 208.596 216.387 209.467C215.836 209.789 215.341 210.165 214.845 210.527C214.336 210.875 213.854 211.264 213.4 211.666L212.78 212.189C212.078 212.887 211.762 213.034 211.376 212.994C211.294 212.994 211.184 212.994 211.115 212.967C210.881 212.9 211.005 212.458 211.486 211.814C211.831 211.318 212.244 210.902 212.67 210.473C213.083 210.03 213.537 209.628 214.019 209.239C214.474 208.824 214.997 208.488 215.52 208.18C216.043 207.858 216.566 207.536 217.103 207.255C218.686 206.37 220.324 205.605 221.934 204.814V204.841L221.948 204.854Z" fill="#231F20"/>
<path opacity="0.55" d="M64.461 329C64.461 329 42.6039 325.355 42.0082 317.57C41.4976 310.961 65 319.186 65 319.186L64.461 328.987V329Z" fill="#231F20"/>
<path d="M50.9469 314.088C52.6414 314.197 54.2795 314.429 55.8893 314.784C56.4682 314.92 57.0754 314.947 57.6544 315.111C59.6737 315.67 61.6365 316.393 63.5146 317.252C64.3336 317.675 65.195 317.989 66.014 318.398C67.0731 318.889 68.0616 319.585 68.8806 320.444C69.1347 320.717 68.9653 320.853 68.5417 320.921C68.1181 320.989 67.4544 321.058 66.8189 320.921L65.1526 320.539C64.6302 320.348 64.1218 320.144 63.5852 319.967C63.0627 319.776 62.5403 319.571 62.0178 319.38C61.4953 319.162 61.0011 318.889 60.4786 318.657C59.2359 318.071 57.8238 317.839 56.4682 317.539C54.9714 317.225 53.4746 316.939 51.9495 316.83L50.5515 316.734L49.1535 316.775C48.4475 316.775 47.7697 316.939 47.0636 317.021C46.3717 317.143 45.7221 317.375 45.0726 317.566C44.6066 317.798 44.1688 318.071 43.7311 318.343C43.3075 318.63 43.0109 319.039 42.6014 319.325C42.4178 319.435 42.2484 319.585 42.1072 319.735C41.5 320.267 41.1611 320.348 40.6386 320.212C40.5115 320.185 40.3844 320.157 40.2856 320.13C39.9325 320.007 39.9043 319.544 40.215 318.821C40.4409 318.303 40.681 317.73 41.0763 317.28C41.5 316.884 41.9095 316.393 42.432 316.079C42.9403 315.766 43.4769 315.452 44.0135 315.152C44.5783 314.934 45.1432 314.729 45.7221 314.538C46.5835 314.279 47.4732 314.211 48.3487 314.074C49.21 314.047 50.0855 313.979 50.9469 314.006V314.074V314.088Z" fill="#231F20"/>
<path d="M158.939 526.383C157.385 526.196 155.832 526.039 154.265 525.967C153.686 525.938 153.121 525.995 152.556 525.967C150.537 525.838 148.504 525.866 146.457 525.795C145.553 525.78 144.649 525.852 143.76 525.924C142.616 526.053 141.444 525.981 140.272 525.895C139.905 525.852 139.933 525.752 140.215 525.508C140.498 525.292 141.006 524.833 141.642 524.546C142.206 524.345 142.771 524.001 143.364 523.915C143.943 523.786 144.536 523.671 145.115 523.556C146.287 523.369 147.473 523.183 148.687 523.269C150.128 523.326 151.61 523.082 153.079 523.025C154.703 522.982 156.312 522.996 157.936 523.054C158.939 523.068 159.927 523.154 160.93 523.226C162.44 523.326 163.951 523.527 165.448 523.628C166.027 523.671 166.606 523.671 167.199 523.656C167.778 523.671 168.357 523.685 168.95 523.728C169.204 523.743 169.458 523.728 169.712 523.786C170.658 523.972 170.912 524.302 170.969 525.077C170.969 525.249 171.011 525.436 170.997 525.594C170.969 526.153 170.503 526.569 169.797 526.727C168.766 526.885 167.735 526.971 166.705 527C165.674 526.971 164.643 526.885 163.612 526.799C162.073 526.67 160.52 526.541 158.953 526.44V526.354L158.939 526.383Z" fill="#231F20"/>
<path d="M160.205 309.95C160.366 310.953 160.54 311.955 160.701 312.944C160.768 313.302 160.888 313.66 160.928 314.018C161.076 315.307 161.236 316.624 161.384 317.913C161.437 318.486 161.558 319.059 161.665 319.618C161.826 320.334 161.973 321.05 162 321.795C162 322.024 161.826 322.053 161.571 321.924C161.317 321.795 160.942 321.537 160.741 321.15C160.406 320.477 160.084 319.804 159.803 319.116C159.669 318.773 159.535 318.429 159.428 318.071C159.348 317.713 159.294 317.341 159.241 316.968C159.133 316.066 158.758 315.221 158.531 314.333C158.289 313.359 158.129 312.356 157.914 311.383C157.794 310.781 157.66 310.165 157.539 309.564C157.352 308.647 157.137 307.73 156.91 306.828C156.736 306.126 156.427 305.482 156.2 304.809C156.146 304.666 156.079 304.522 156.039 304.365C155.918 303.792 156.079 303.534 156.494 303.262C156.588 303.205 156.682 303.133 156.776 303.076C157.097 302.904 157.459 303.033 157.78 303.377C158.571 304.451 159.214 305.668 159.602 306.971C159.857 307.945 160.044 308.962 160.259 309.95H160.192H160.205Z" fill="#231F20"/>
<path opacity="0.45" d="M79.5924 530.363C79.5924 530.363 100.127 543.386 107.488 542.991C114.85 542.597 116.26 542.653 114.039 540.031C110.645 536.015 89.3426 526.966 89.3426 526.966L89.9154 514.916L78 514L79.5924 530.377V530.363Z" fill="#231F20"/>
<path opacity="0.45" d="M147 502.446L148.957 516.242C148.957 516.242 170.583 527.244 178.253 526.996C185.924 526.748 185.181 525.316 180.325 522.466C175.468 519.616 159.227 510.804 159.227 510.804L158.156 501L147 502.432V502.446Z" fill="#231F20"/>
<path d="M86.4933 516.894C85.874 516.849 85.2547 516.82 84.6354 516.775C84.4113 516.775 84.1873 516.82 83.9501 516.805C83.1331 516.73 82.303 516.596 81.486 516.417C81.1038 516.357 80.7612 516.312 80.3923 516.268C79.9311 516.193 79.4172 516.193 79.035 515.79C78.9428 515.567 79.035 515.283 79.2854 514.836C79.5226 514.403 79.8125 513.985 80.0365 514C80.445 514.015 80.8403 514.03 81.2356 514.09C81.6309 514.179 82.0394 514.299 82.4743 514.433C82.9882 514.612 83.5417 514.478 84.0819 514.478C84.6881 514.478 85.3074 514.478 85.9136 514.478C86.2957 514.478 86.691 514.478 87.06 514.478C87.653 514.478 88.2459 514.478 88.8257 514.478C89.2869 514.478 89.7481 514.314 90.2094 514.314C90.3148 514.314 90.407 514.314 90.5124 514.358C90.8814 514.493 90.9868 514.687 91 515.164C91 515.268 91 515.373 91 515.477C90.9868 515.82 90.7892 516.104 90.5256 516.283C90.3148 516.417 90.1171 516.551 89.9458 516.67C89.7613 516.745 89.5769 516.775 89.3924 516.835C89.0234 516.909 88.6413 517.013 88.2591 516.999C87.6661 516.999 87.0732 516.984 86.4802 516.969V516.909L86.4933 516.894Z" fill="#231F20"/>
<path d="M154.419 503.867C153.897 503.867 153.36 503.9 152.837 503.917C152.648 503.917 152.46 504 152.271 504C151.574 503.95 150.863 503.883 150.181 503.833C149.876 503.8 149.572 503.9 149.267 503.9C148.875 503.9 148.468 504.05 148.077 503.65C147.96 503.533 147.989 503.149 148.077 502.682C148.178 502.215 148.338 501.581 148.527 501.498C149.194 501.064 149.876 501.08 150.66 501.281C151.124 501.414 151.56 501.164 152.024 501.114C152.532 501.047 153.055 501.047 153.563 500.997C153.882 500.98 154.201 500.947 154.521 500.914C155 500.847 155.493 500.83 155.972 500.68C156.335 500.563 156.669 500.28 157.032 500.13C157.119 500.096 157.191 500.029 157.264 500.013C157.583 499.946 157.699 500.13 157.859 500.847L157.96 501.331C158.047 501.881 157.989 502.365 157.801 502.599C157.525 502.932 157.249 503.199 156.944 503.399C156.64 503.55 156.306 503.65 155.972 503.716C155.479 503.833 154.956 503.867 154.434 503.95V503.883L154.419 503.867Z" fill="#231F20"/>
<path d="M138.92 277C138.92 277 135.614 295.952 135.515 305.159C135.402 317.153 138.355 331.31 137.945 334.11C137.535 336.911 124.96 336.713 124.96 336.713C124.96 336.713 89.5102 329.853 80.6512 325.412C78.108 324.139 64.9396 319.741 64.9396 319.741C64.9396 319.741 66.8612 330.051 64.9396 334.11C63.0181 338.169 53.0853 400.004 52.0256 418.178C50.9659 436.352 50.217 471.455 52.4494 488.455C53.8482 499.077 54.2862 505.936 57.1827 509.359C58.9206 511.41 61.5627 511.339 65.8298 512.626C65.8298 512.626 94.3 515.893 108.655 514.762C123.01 513.63 134.611 508.482 134.611 508.482C134.611 508.482 130.202 499.473 127.207 494.254C124.211 489.035 121.951 469.97 121.244 463.252C120.538 456.534 120.397 428.912 120.397 428.912C120.397 428.912 124.169 447.878 126.006 458.033C127.843 468.188 134.709 496.432 140.799 500.449C146.889 504.466 172.674 497.069 172.674 497.069C172.674 497.069 194.363 487.494 193.995 482.996C193.628 478.499 180.332 455.516 175.076 441.726C169.82 427.937 157.019 397.118 155.041 387.954C153.049 378.789 142.721 342.115 142.721 342.115L139.287 300.138L138.92 277.014V277Z" fill="#231F20"/>
<path d="M201.601 211.264C202.044 212.197 202.487 213.129 202.824 214.09C202.965 214.435 203.143 214.779 203.231 215.137C203.621 216.386 203.852 217.677 203.887 218.982C203.94 219.556 203.94 220.13 203.994 220.704C204.029 221.435 203.923 222.181 203.586 222.87C203.479 223.085 203.196 223.014 202.895 222.798C202.593 222.583 202.221 222.21 202.185 221.823C202.008 221.134 202.061 220.474 202.026 219.786C201.991 219.126 201.955 218.451 201.92 217.72C201.902 216.873 201.547 216.027 201.281 215.195C200.98 214.277 200.626 213.359 200.218 212.44C199.97 211.881 199.704 211.321 199.403 210.776C198.959 209.944 198.481 209.126 197.931 208.337C197.506 207.735 196.992 207.175 196.496 206.602C196.389 206.472 196.265 206.358 196.194 206.214C195.893 205.698 195.981 205.44 196.194 205.21C196.247 205.153 196.283 205.095 196.318 205.052C196.425 204.937 196.85 205.009 197.275 205.296C197.967 205.698 198.339 206.272 198.8 206.802C199.243 207.362 199.633 207.936 200.023 208.538C200.59 209.428 201.104 210.332 201.618 211.25H201.583L201.601 211.264Z" fill="#231F20"/>
<path d="M123.416 252.096C121.083 250.592 118.835 248.975 116.615 247.357C115.81 246.755 114.975 246.197 114.17 245.581C111.37 243.391 108.67 241.1 106.026 238.752C104.853 237.707 103.637 236.705 102.506 235.645C101.771 234.958 101.021 234.3 100.314 233.598C99.6075 232.882 98.9288 232.152 98.2502 231.407C97.8261 230.949 97.9674 230.906 98.4764 231.135C98.9712 231.365 99.8902 231.794 100.823 232.467C102.449 233.684 104.103 234.872 105.658 236.175C107.2 237.478 108.741 238.781 110.31 240.112C112.162 241.702 114.24 243.162 116.276 244.594C118.496 246.197 120.772 247.729 123.062 249.218C124.49 250.091 125.918 251.008 127.388 251.824C129.594 253.112 131.842 254.329 134.146 255.389C135.956 256.162 137.752 256.849 139.561 257.522C139.957 257.665 140.353 257.808 140.763 257.951C142.219 258.596 142.643 258.939 142.855 259.412C142.898 259.526 142.969 259.641 142.997 259.727C143.053 260.042 142.361 260.07 141.159 259.884C137.639 259.269 134.076 257.98 130.725 256.291C128.223 255.045 125.777 253.671 123.43 252.153L123.458 252.096H123.416Z" fill="#231F20"/>
<path d="M131.402 208.262C129.961 206.379 128.547 204.468 127.16 202.556L125.596 200.5C123.815 198.038 122.075 195.547 120.212 193.172C119.382 192.115 118.498 191.116 117.642 190.117C116.472 188.886 115.412 187.553 114.229 186.322C113.875 185.931 113.943 185.931 114.351 186.134C114.746 186.351 115.548 186.67 116.377 187.22C119.301 189.248 121.49 192.086 123.57 194.953C124.808 196.691 126.235 198.357 127.527 200.08L131.824 205.757C132.708 206.915 133.619 208.059 134.543 209.16C135.944 210.854 137.399 212.505 138.936 214.025C140.132 215.198 141.397 216.241 142.702 217.211C142.988 217.414 143.246 217.675 143.531 217.892C144.592 218.703 144.864 219.079 144.946 219.543C144.959 219.644 145 219.76 145 219.847C145 220.122 144.429 220.021 143.491 219.586C142.063 219.007 140.785 218.066 139.547 217.081C138.936 216.574 138.31 216.067 137.712 215.532C137.127 214.981 136.583 214.388 136.012 213.808C134.394 212.042 132.857 210.173 131.375 208.291L131.402 208.262Z" fill="#231F20"/>
<path d="M140.167 21.4987C140.167 21.4987 178.897 7.17848 197.972 27.8177C209.473 40.2577 205.941 52.6836 203.553 58.1686C201.9 61.9854 191.373 72.2484 184.11 74.3265C167.31 79.1329 150.171 69.8028 147.147 66.1556C144.124 62.5084 140.732 58.2392 140.732 58.2392C140.732 58.2392 133.385 68.0358 126.292 71.3154C119.199 74.5951 116.429 76.97 116.429 76.97C116.429 76.97 118.634 86.7383 117.616 89.9048C116.599 93.0714 115.681 93.6368 113.561 91.4033C111.456 89.1697 104.334 79.6135 101.678 78.8784C99.0217 78.1433 92.8047 78.836 91.1232 83.1335C89.4418 87.431 92.4232 94.9233 96.1534 96.45C99.8836 97.9909 104.914 98.217 104.914 98.217C104.914 98.217 108.969 118.135 118.789 127.79C128.609 137.446 139.701 140.004 145.014 138.591C150.326 137.177 164.272 125.119 165.12 120.044C165.12 120.044 172.199 131.862 176.551 135.495C180.903 139.142 187.502 144.627 187.276 147.285C187.049 149.942 187.092 153.787 182.415 154.706C177.738 155.625 157.773 153.278 153.265 153.293C148.772 153.293 145.014 151.285 144.943 154.084C144.872 156.883 148.009 163.004 146.992 164.899C145.975 166.793 140.167 169.761 136.607 166.637C133.046 163.513 119.114 155.752 116.571 151.299C114.027 146.846 114.96 145.574 109.379 148.02C103.798 150.465 92.9884 164.899 92.9884 164.899C92.9884 164.899 83.4791 163.23 82.1933 156.869C80.9075 150.508 78.8022 143.383 75.7361 142.747C72.6558 142.111 48.4941 141.361 44.0574 135.311C39.6207 129.261 39.1544 114.219 39.1544 114.219C39.1544 114.219 25.8584 115.209 21.8738 107.9C17.8893 100.592 16.1796 97.0437 20.6587 92.4635C25.1519 87.8833 29.4049 83.6848 36.8089 79.1612C44.2128 74.6375 55.7285 70.029 57.7773 63.2011C65.591 37.1336 84.6377 15.2504 110.424 13.3137C124.752 12.2393 128.553 13.6812 140.125 21.4704L140.167 21.4987Z" fill="#231F20"/>
<path d="M80.9288 523.26C80.9719 524.619 81.0582 526.005 81.1733 527.378C81.2164 527.877 81.3458 528.376 81.389 528.875C81.504 530.664 81.6622 532.466 81.7197 534.282C81.7629 535.087 81.8492 535.891 81.9498 536.681C82.0936 537.693 81.9067 538.747 81.6622 539.773C81.5759 540.092 81.4177 540.05 81.1445 539.801C80.8856 539.537 80.3967 539.08 80.1378 538.525L79.7926 537.79L79.6201 537.43L79.5626 537.055C79.4763 536.556 79.4044 536.071 79.3181 535.572C79.1743 534.574 79.0448 533.561 79.0448 532.522C79.0448 531.274 78.6565 530.026 78.4552 528.778C78.2395 527.392 78.0525 525.991 77.8943 524.591L77.6355 521.984C77.4916 520.667 77.4773 519.322 77.391 518.005C77.3335 516.979 77.1034 515.953 77.0458 514.899C77.0315 514.664 76.9595 514.442 77.0314 514.206C77.204 513.347 77.4629 513.097 78.297 513.042C78.484 513.042 78.6565 513 78.8147 513C79.3325 513 79.9221 513.43 80.0947 514.012C80.4398 514.886 80.4973 515.717 80.598 516.591C80.6843 517.451 80.7562 518.324 80.8137 519.211C80.8712 520.529 80.8856 521.887 81.0007 523.26H80.9288Z" fill="#231F20"/>
<path d="M106.59 533.451C108.015 534.176 109.426 534.928 110.823 535.795C111.55 536.25 112.151 536.633 112.947 537.216C114.023 537.997 115.015 538.92 115.979 539.843C116.286 540.142 116.398 540.454 116.594 540.753C116.831 541.065 116.831 541.335 116.901 541.605C116.971 541.903 117.041 542.088 116.971 542.4C116.943 542.727 116.761 543.082 116.552 543.31C115.993 544.02 115.099 544.418 113.981 544.687C113.408 544.801 112.821 544.929 112.165 544.957L111.187 545H110.698L110.376 544.986C104.774 544.46 99.5481 542.898 94.5182 540.781C92.3107 539.787 90.1171 538.735 88.0493 537.5C86.7359 536.69 85.3806 535.894 84.2629 534.786C83.0753 533.764 82.1811 532.414 81.3148 531.136C80.8118 530.298 80.9096 530.397 81.6222 530.823C81.9715 531.036 82.5024 531.306 83.1591 531.576C83.5084 531.718 83.8577 531.86 84.221 532.002C84.4166 532.073 84.5842 532.158 84.8078 532.215C84.9754 532.329 85.1711 532.4 85.3527 532.514C85.9814 532.897 86.68 533.181 87.2948 533.565C87.9095 533.948 88.5383 534.318 89.181 534.659C90.4664 535.355 91.7937 535.98 93.135 536.562C95.8456 537.684 98.598 538.792 101.448 539.716C103.153 540.27 104.941 540.653 106.758 540.895C107.666 541.008 108.574 541.108 109.468 541.15L111.243 541.221C111.564 541.221 111.941 541.236 112.277 541.065C112.486 540.951 112.346 540.753 112.249 540.639C112.165 540.497 112.039 540.369 111.927 540.241C111.787 540.085 111.634 539.957 111.452 539.801L111.131 539.545L110.474 539.091C109.58 538.508 108.658 537.954 107.694 537.429C105.486 536.235 103.181 535.142 100.847 534.119L95.5103 531.775C93.7219 530.965 91.9474 530.212 90.173 529.175C89.7957 528.948 89.4604 528.735 89.0413 528.394C88.5942 528.025 88.2449 527.57 88.0632 527.03C87.8956 526.15 87.9235 525.624 87.8956 525.042L87.8537 523.351C87.8257 522.229 87.8257 521.121 87.8257 520.013C87.8257 519.345 87.8117 518.692 87.8257 518.024C87.8816 516.788 87.9654 515.964 88.175 515.41C88.4265 514.856 88.7479 514.558 89.195 514.317C89.4045 514.217 89.6001 514.075 89.7818 514.018C90.1031 513.933 90.3686 514.146 90.6061 514.615C90.8297 515.084 91.0532 515.808 91.0532 516.703C91.0951 518.351 91.0812 520.013 91.0532 521.689C91.0532 522.527 91.0253 523.351 91.0113 524.204C91.0113 524.615 91.0113 525.027 91.0113 525.425L91.0393 525.993C91.0393 526.093 91.0392 526.036 91.0532 526.064C91.0672 526.064 91.0532 526.064 91.0812 526.064C91.0812 526.064 91.0532 526.036 91.2628 526.178C91.5562 526.391 91.9754 526.633 92.3945 526.86C93.2608 527.314 94.2109 527.769 95.1749 528.195C98.8914 529.857 102.804 531.462 106.632 533.337L106.604 533.409L106.59 533.451Z" fill="#231F20"/>
<path d="M150.215 509.379C150.331 510.629 150.521 511.907 150.724 513.185C150.797 513.643 150.972 514.101 151.03 514.574C151.263 516.24 151.524 517.921 151.641 519.63C151.714 520.38 151.83 521.13 151.932 521.88C152.106 522.838 151.917 523.825 151.684 524.783C151.597 525.089 151.437 525.047 151.175 524.811C150.913 524.575 150.433 524.144 150.171 523.644C150.07 523.422 149.939 523.199 149.837 522.977L149.662 522.644L149.604 522.31C149.517 521.852 149.429 521.408 149.328 520.949C149.167 520.032 148.993 519.116 148.935 518.157C148.877 517.004 148.411 515.879 148.135 514.726C147.829 513.462 147.553 512.171 147.305 510.865C147.145 510.059 147.014 509.254 146.883 508.434C146.665 507.198 146.592 505.948 146.461 504.698C146.374 503.725 146.127 502.767 146.054 501.767C146.025 501.545 145.967 501.322 146.025 501.114C146.185 500.308 146.447 500.072 147.262 500.031C147.436 500.031 147.611 499.989 147.771 500.003C148.28 500.003 148.862 500.406 149.051 500.947C149.4 501.753 149.473 502.517 149.589 503.295C149.706 504.073 149.779 504.864 149.88 505.67C149.982 506.865 150.07 508.115 150.273 509.365H150.2L150.215 509.379Z" fill="#231F20"/>
<path d="M178.124 518.824C179.189 519.446 180.24 520.096 181.276 520.816L182.054 521.369L182.932 522.061L184.127 523.113C184.472 523.472 184.803 523.846 185.12 524.206C185.437 524.69 185.869 525.188 185.883 525.603C185.941 525.838 186.013 526.032 185.998 526.212C185.998 526.391 185.969 526.654 185.854 526.903C185.725 527.138 185.552 527.332 185.408 527.512C185.206 527.664 185.034 527.816 184.818 527.955C184.4 528.218 183.853 528.411 183.249 528.55C182.716 528.702 182.155 528.84 181.521 528.896C181.219 528.937 180.888 528.937 180.571 528.951C180.197 528.951 180.067 528.992 179.851 528.992C179.06 528.992 178.282 529.034 177.519 528.923C172.135 528.204 167.011 526.696 162.131 524.648C159.986 523.694 157.855 522.684 155.84 521.508C154.559 520.747 153.249 519.986 152.155 518.962C151.003 517.994 150.139 516.748 149.304 515.559C148.815 514.784 148.916 514.867 149.607 515.268C149.952 515.462 150.47 515.711 151.118 515.96L152.155 516.347C152.342 516.403 152.515 516.499 152.731 516.541C152.889 516.652 153.076 516.721 153.263 516.818C153.882 517.177 154.559 517.44 155.163 517.814C155.768 518.173 156.387 518.519 157.006 518.851C158.258 519.515 159.54 520.11 160.849 520.664C163.484 521.729 166.161 522.808 168.94 523.721C172.251 524.842 175.95 525.229 179.434 525.492L180.283 525.561H180.614C180.845 525.575 181.075 525.561 181.32 525.534C181.521 525.506 181.924 525.423 181.809 525.16C181.694 524.98 181.55 524.8 181.392 524.621C181.291 524.524 181.19 524.413 181.075 524.302L180.902 524.15L180.6 523.915C180.038 523.472 179.419 523.071 178.815 522.67C176.785 521.369 174.626 520.207 172.409 519.114C169.069 517.44 165.629 515.891 162.231 514.161C161.569 513.815 160.907 513.456 160.245 513.041C159.914 512.833 159.583 512.612 159.252 512.307C158.863 512.003 158.561 511.533 158.373 511.048C157.87 509.596 157.495 508.281 157.193 506.843C157.063 506.22 156.92 505.597 156.848 504.947C156.545 502.54 157.02 501.737 157.898 501.309C158.1 501.212 158.302 501.073 158.489 501.018C158.805 500.935 159.079 501.143 159.324 501.544C159.554 501.959 159.827 502.568 159.899 503.356C160.058 504.491 160.259 505.625 160.518 506.773C160.648 507.341 160.777 507.922 160.921 508.489L161.152 509.347L161.382 510.121C161.382 510.121 161.382 510.121 161.454 510.163C161.497 510.204 161.584 510.274 161.684 510.343C161.771 510.412 161.872 510.481 162.001 510.564C162.447 510.869 163.009 511.187 163.585 511.477C164.736 512.086 165.974 512.681 167.212 513.262C170.825 514.978 174.554 516.693 178.181 518.741L178.153 518.81L178.124 518.824Z" fill="#231F20"/>
<path d="M146.074 502.833C144.197 502.677 142.249 502.422 140.258 501.474C139.76 501.177 139.262 500.95 138.807 500.511C138.594 500.313 138.309 500.101 138.167 499.917L137.712 499.365L135.935 497.157C135.423 496.378 134.953 495.586 134.456 494.793C134.214 494.397 133.958 494 133.73 493.604L133.133 492.372L131.953 489.895L130.971 487.362C130.459 486.144 130.075 484.885 129.677 483.639C129.265 482.393 128.867 481.148 128.582 479.874C126.364 470.957 125.084 461.982 123.832 453.037C123.263 449.073 122.581 445.11 121.855 441.204C121.344 438.712 120.945 436.179 120.419 433.687L120.049 431.805L119.765 429.908C119.552 428.648 119.338 427.389 119.125 426.129C118.869 424.558 118.997 424.742 119.594 425.973C119.95 426.695 120.376 427.558 120.846 428.535C121.102 429.073 121.4 429.653 121.671 430.276C121.813 430.588 121.927 430.913 122.083 431.239C122.183 431.578 122.296 431.932 122.396 432.286C123.15 434.82 123.804 437.353 124.43 439.915C124.956 442.477 125.496 445.054 125.951 447.63C126.876 452.796 127.772 457.948 128.468 463.143C129.336 469.357 130.772 475.713 132.578 481.771C133.09 483.427 133.588 485.097 134.228 486.696C134.541 487.503 134.783 488.338 135.167 489.103L136.247 491.438C136.574 492.245 137.072 492.925 137.485 493.675C137.94 494.382 138.309 495.175 138.864 495.812L140.428 497.794C140.912 498.289 141.438 498.714 142.192 499.011C143.927 499.804 146.103 500.058 148.193 500.115C150.312 500.172 152.46 500.016 154.607 499.775C161.092 498.983 167.548 497.397 173.72 495.26C178.513 493.59 183.035 491.495 187.415 489.131C188.368 488.579 189.293 488.041 190.245 487.489C193.73 485.38 194.967 484.927 196.076 484.955C196.332 484.955 196.645 484.941 196.83 484.998C197.441 485.139 196.389 486.597 193.915 488.522C186.292 493.774 177.205 497.44 167.833 500.044C164.349 501.007 160.793 501.771 157.181 502.323C153.569 502.847 149.886 503.187 146.074 502.889V502.819V502.833Z" fill="#231F20"/>
<path d="M48.5849 433.571C49.1268 423.907 50.0203 414.271 51.1335 404.664C51.529 401.161 51.8806 397.645 52.3493 394.156C54.0484 381.834 56.3041 369.61 58.5891 357.414C59.5997 351.999 60.5518 346.555 61.416 341.167C61.9873 337.707 62.456 334.233 62.9687 330.786C63.5106 327.34 64.0233 323.894 64.4041 320.518C64.8728 318.422 64.8875 318.591 65.7663 320.447C66.5866 322.304 67.2896 325.919 66.8795 329.999C66.5866 333.628 65.8981 337.158 65.3269 340.703C64.697 344.234 64.0672 347.765 63.4374 351.295C62.1045 358.329 60.7569 365.376 59.4093 372.466C57.7835 380.934 56.6703 389.824 55.5424 398.559C54.2974 408.152 53.2867 417.788 52.5983 427.438C52.3639 430.406 52.2321 433.388 52.0417 436.356C51.9245 439.324 51.778 442.306 51.7194 445.274C51.4704 454.291 51.5437 463.35 52.1149 472.282C52.276 475.756 52.7008 479.175 53.0231 482.593C53.4771 485.997 53.8287 489.401 54.3413 492.805C54.561 494.296 54.7807 495.759 55.0151 497.278C55.7768 502.877 55.8061 504.691 55.1909 506.028C55.0737 506.323 54.9858 506.717 54.8833 506.9C54.605 507.505 53.4771 505.338 52.525 501.245C51.1335 495.182 50.2107 488.852 49.4637 482.424C48.8192 475.982 48.3359 469.441 48.1601 462.871C47.8379 453.123 48.0283 443.319 48.497 433.557H48.5849V433.571Z" fill="#231F20"/>
<path d="M159.003 405.38C155.139 394.392 152.004 383.136 149.232 371.823C148.267 367.676 147.119 363.585 146.391 359.396C143.494 344.698 141.422 329.873 140.078 314.992C139.308 308.419 138.986 301.677 139 295.089C139.07 286.612 139.504 278.05 141.464 269.784C142.136 267.217 142.136 267.584 142.248 269.841C142.486 272.126 142.682 276.245 142.472 281.055C141.94 289.574 141.954 298.08 142.626 306.571C142.934 310.789 143.438 315.091 143.843 319.365C144.067 321.509 144.221 323.653 144.487 325.797C144.753 327.941 145.005 330.085 145.271 332.229C146.419 342.512 148.673 353.049 150.856 363.388C153.376 374.729 156.357 385.985 159.856 397.072L163.272 407.256L166.995 417.327C170.942 427.427 175.253 437.442 179.914 447.146C183.582 454.678 187.445 461.914 191.406 469.193C192.274 470.787 193.128 472.367 194.01 473.975C197.229 479.984 198.097 481.987 197.985 483.707C197.985 484.088 198.027 484.568 197.971 484.822C197.817 485.654 195.871 483.538 193.394 479.194C185.947 466.358 178.697 452.45 172.118 438.119C167.261 427.469 162.866 416.523 158.933 405.436L159.017 405.394L159.003 405.38Z" fill="#231F20"/>
<path d="M142.848 154.034L142.989 153.223L143.059 152.817C143.087 152.692 143.115 152.51 143.129 152.496L145.414 151.782C145.764 151.67 146.255 151.587 146.564 151.517C146.802 151.461 147.04 151.419 147.279 151.405C148.232 151.279 149.157 151.223 150.069 151.209C151.891 151.181 153.644 151.321 155.368 151.503C158.817 151.88 162.154 152.468 165.476 152.985C168 153.377 170.524 153.643 173.005 153.852C175.192 154.048 177.365 154.118 179.398 153.838C181.431 153.573 183.324 152.915 184.445 151.573C184.768 151.265 184.95 150.859 185.202 150.482C185.371 150.062 185.595 149.628 185.651 149.237C185.833 148.44 185.735 147.586 185.399 146.719C184.712 144.957 183.212 143.306 181.655 141.782C178.851 139.054 175.557 136.663 172.542 133.963C170.608 132.215 168.659 130.383 167.117 128.103C166.36 126.956 165.687 125.725 165.28 124.354C164.86 122.983 164.846 121.501 165.112 120.116C165.701 118.41 165.911 118.843 166.444 120.186C166.612 120.522 166.78 120.899 166.977 121.319C167.201 121.725 167.439 122.158 167.734 122.592C168.238 123.473 168.855 124.438 169.528 125.515C170.72 127.445 172.444 129.222 174.295 130.9C176.146 132.592 178.164 134.201 180.169 135.921C182.174 137.642 184.221 139.418 186.072 141.614C186.983 142.733 187.866 143.978 188.455 145.516C189.058 147.027 189.226 148.971 188.623 150.621C188.034 152.426 186.731 154.174 185.076 155.223C183.436 156.3 181.627 156.804 179.889 157.083C176.398 157.615 173.033 157.363 169.767 157.013C166.177 156.594 162.672 155.978 159.182 155.489C155.705 154.999 152.214 154.538 148.891 154.776C148.316 154.832 147.741 154.873 147.209 154.999C146.956 155.027 146.662 155.125 146.381 155.209C146.241 155.475 146.241 155.908 146.283 156.272C146.353 156.93 146.55 157.629 146.76 158.328C147.209 159.755 147.839 161.196 148.232 162.902C148.4 163.811 148.54 164.874 148.134 166.007C148.008 166.273 147.882 166.552 147.727 166.804C147.545 167.028 147.349 167.252 147.152 167.462C146.746 167.839 146.283 168.133 145.821 168.357C143.9 169.21 141.993 169.056 140.269 168.79C136.778 168.175 133.651 166.748 130.707 165.112C126.179 162.51 122.029 159.377 118.538 155.503C117.767 154.65 117.01 153.81 116.379 152.845C115.762 151.964 115.313 151.181 114.963 150.524C114.64 149.852 114.43 149.265 114.29 148.789C113.995 147.824 113.967 147.209 114.023 146.677C114.052 146.439 114.052 146.146 114.094 145.992C114.262 145.474 115.313 146.873 117.304 149.069C120.08 152.426 123.136 155.629 126.726 158.314C130.273 161.014 134.282 163.266 138.376 164.622C139.876 165.112 141.432 165.406 142.75 165.378C143.409 165.378 143.97 165.238 144.306 165.07C144.671 164.832 144.699 164.818 144.727 164.72C144.797 164.594 144.783 164.021 144.587 163.322C144.419 162.622 144.138 161.839 143.83 160.986C143.535 160.147 143.213 159.223 142.961 158.23C142.834 157.685 142.736 157.265 142.652 156.552C142.568 156.118 142.596 155.699 142.652 155.293C142.694 154.873 142.708 154.468 142.75 154.048L142.834 154.076L142.848 154.034Z" fill="#231F20"/>
<path d="M132.71 134.627C135.329 135.49 138.088 136.055 140.777 135.73C143.523 135.476 146.339 134.768 148.902 133.623C149.845 133.198 150.732 132.661 151.633 132.166C152.464 131.557 153.351 131.02 154.182 130.397C157.138 128.247 159.673 125.447 161.799 122.363L162.616 121.217L163.348 120.001C163.826 119.18 164.333 118.388 164.77 117.54C165.6 115.828 166.502 114.159 167.177 112.363L168.121 110L168.895 107.567C169.149 106.747 169.416 105.941 169.641 105.12C169.839 104.3 170.05 103.465 170.247 102.645C170.824 100.551 171.092 98.373 171.641 96.2513C172.204 94.1437 172.429 91.9653 173.471 89.9001C174.133 88.6129 173.908 88.7685 174.161 89.9709C174.457 91.1873 175.273 93.493 174.907 96.0532C174.612 98.3306 174.274 100.58 173.626 102.8L172.753 106.125L171.683 109.406C170.176 113.763 168.318 118.063 165.727 121.981C165.023 123.183 164.108 124.287 163.32 125.475C162.461 126.621 161.531 127.724 160.616 128.827C159.574 129.846 158.659 130.977 157.504 131.883L155.829 133.283L154.013 134.514C148.606 137.894 142.129 139.705 135.681 138.743C131.766 138.107 128.162 136.452 124.923 134.386C119.953 131.26 115.94 126.875 112.772 122.08C110.337 118.332 108.253 114.399 107 110.085C106.648 109.166 106.479 108.204 106.253 107.242C106.127 106.323 106 105.573 106 104.936C106 104.286 106.042 103.762 106.099 103.338C106.183 102.475 106.394 101.98 106.634 101.57C106.746 101.386 106.831 101.145 106.901 101.046C107.112 100.693 107.859 102.107 108.52 104.554C108.76 105.46 109.21 106.337 109.421 107.256L109.802 108.614L110.294 109.944C110.646 110.821 110.886 111.754 111.308 112.603C111.702 113.466 112.097 114.343 112.491 115.22C114.251 118.629 116.377 121.882 118.897 124.81C122.671 129.082 127.345 132.774 132.696 134.514V134.599L132.71 134.627Z" fill="#231F20"/>
<path d="M205.256 25.7099C208.222 29.7984 209.869 34.606 210.636 39.3995C211.402 44.2493 210.962 49.3248 209.287 53.9491C208.123 57.3327 206.363 60.5189 204.077 63.2399C200.089 68.0616 194.907 71.7131 189.229 74.1239C186.376 75.3505 183.338 76.0413 180.314 76.5629C178.781 76.6898 177.262 76.9718 175.729 76.9436L173.43 77L171.144 76.8731C165.75 76.5066 160.342 75.3646 155.43 73.1088C152.25 71.7272 149.269 69.7957 146.686 67.4131C144.088 65.0727 141.973 61.9429 141.334 58.4747C140.894 56.3317 141.206 56.6278 142.399 58.0376C142.711 58.4042 143.066 58.813 143.463 59.2642C143.974 59.673 144.415 60.1806 144.926 60.6881C145.167 60.956 145.422 61.2239 145.692 61.4917C145.99 61.7455 146.317 61.9852 146.586 62.2812C147.154 62.8593 147.651 63.5219 148.332 64.0999C150.462 66.3698 153.159 68.1603 156.04 69.5701C157.446 70.3455 158.993 70.8531 160.498 71.4452C162.059 71.8964 163.592 72.418 165.211 72.7C166.801 73.1088 168.433 73.2357 170.051 73.4754C171.684 73.5459 173.316 73.7292 174.963 73.6446C176.609 73.6728 178.228 73.4472 179.874 73.3062C181.478 72.996 183.125 72.7987 184.672 72.2911C192.239 70.2187 199.251 64.7767 203.424 58.0517C205.738 54.3438 207.172 50.1002 207.342 45.7438C207.527 41.4015 206.718 36.9182 204.986 32.886C202.885 27.8952 199.18 23.6374 194.467 20.8459C187.313 16.56 178.469 15.2912 170.094 15.9115C163.536 16.3767 157.219 18.0545 151.143 20.2961C149.795 20.7755 148.517 21.3535 147.183 21.8751C144.713 22.8902 143.109 23.6092 141.902 23.9194C140.653 24.1732 139.872 24.2155 139.148 24.0745C138.822 24.004 138.41 23.9899 138.183 23.8771C137.799 23.6938 138.027 23.2427 138.793 22.5378C139.176 22.1994 139.673 21.7482 140.298 21.2548C140.908 20.7614 141.732 20.3666 142.626 19.8732C153.358 14.4312 166.261 11.0616 179.449 12.2318C184.318 12.697 189.215 13.8672 193.757 16.0525C198.286 18.2236 202.431 21.4663 205.383 25.6112L205.312 25.6817L205.256 25.7099Z" fill="#231F20"/>
<path d="M53.4918 136.889C57.5184 138.229 61.9251 138.843 66.3881 139.234C68.0213 139.388 69.6685 139.388 71.358 139.541C72.1042 139.611 72.8504 139.695 73.6388 139.806C74.4554 139.96 75.1593 139.988 76.342 140.518C76.6658 140.658 76.7925 140.77 76.9755 140.895L77.4964 141.258C77.8484 141.482 78.1581 141.789 78.482 142.054C79.1155 142.626 79.6928 143.269 80.1855 143.953C81.171 145.363 81.7764 146.954 82.1143 148.49C82.4663 150.026 82.593 151.519 82.762 152.915C83.0436 155.414 83.8038 157.592 85.5778 158.863C86.7182 159.686 88.1542 160.133 89.6466 160.566C90.3787 160.789 91.1671 160.943 91.9415 161.11C92.3357 161.166 92.7299 161.292 93.11 161.431L94.3067 161.766C95.3063 162.074 95.1655 162.325 94.2645 162.813C93.814 163.051 93.1523 163.4 92.3357 163.707C91.5191 163.986 90.5617 164.056 89.5199 163.958C87.6755 163.777 85.7608 163.218 83.9587 162.046C82.1425 160.943 80.6501 158.946 80.0166 157.02C78.7213 153.125 79.1014 149.886 78.0596 147.317C77.7639 146.549 77.3275 145.851 76.7502 145.237C76.4687 144.93 76.1449 144.637 75.7929 144.372C75.638 144.232 75.4268 144.12 75.2438 143.995L74.9622 143.813L74.8918 143.771L74.8637 143.743H74.8496C74.751 143.897 74.9763 143.52 74.9481 143.576V143.604L74.9059 143.646L74.8355 143.743H74.8214H74.7933C74.751 143.743 74.737 143.715 74.6666 143.687L74.385 143.632C74.216 143.576 73.9908 143.548 73.7655 143.52C73.3291 143.45 72.8081 143.408 72.3294 143.366C71.3017 143.297 70.2739 143.227 69.2602 143.157C64.6987 142.85 59.9963 142.459 55.3925 141.37C52.5626 140.7 49.7609 139.765 47.1281 138.369C43.1438 136.302 39.7507 132.673 38.3569 128.373C37.2024 125.092 36.7519 121.63 37.132 118.279C37.1743 117.539 37.301 116.827 37.4277 116.087C37.8782 113.351 38.6385 112.653 39.4128 112.262C39.5959 112.179 39.7789 112.039 39.9197 112.011C40.1731 111.941 40.328 112.206 40.4687 112.723C40.5955 113.253 40.7503 114.049 40.6377 114.985C40.5673 115.683 40.5955 116.395 40.5673 117.093C40.5391 117.791 40.5251 118.489 40.5814 119.187C40.6236 120.583 40.7926 121.937 40.9193 123.277C41.2712 125.944 42.1441 128.415 43.6365 130.453C45.861 133.468 49.4652 135.576 53.534 136.833L53.5059 136.931L53.4918 136.889Z" fill="#231F20"/>
<path d="M127.2 202.054C128.306 203.368 129.397 204.724 130.574 205.967C131.709 207.266 132.928 208.481 134.176 209.668C135.055 210.572 136.104 211.278 137.025 212.111C140.371 214.979 143.987 217.592 147.943 219.64C148.808 220.106 149.729 220.487 150.637 220.897C151.544 221.306 152.437 221.702 153.387 221.984C154.578 222.394 155.783 222.761 156.974 223.199C157.57 223.397 158.179 223.595 158.775 223.821L159.668 224.16C159.966 224.287 160.235 224.484 160.533 224.64C161.242 225.092 161.114 225.205 160.349 225.473C159.569 225.826 158.165 226.151 156.662 225.925C151.374 224.866 146.326 222.62 141.889 219.484C141.222 219.004 140.556 218.552 139.861 218.1C139.181 217.648 138.528 217.14 137.848 216.659C136.472 215.727 135.154 214.71 133.906 213.637C132.488 212.507 131.241 211.179 129.908 209.964C128.674 208.651 127.384 207.379 126.222 206.009C124.747 204.357 123.358 202.648 121.968 200.953C119.884 198.354 117.941 195.642 115.928 193.043C114.383 191.009 112.667 189.159 111.136 187.167C110.796 186.729 110.427 186.32 110.101 185.868C109.789 185.444 109.548 185.091 109.364 184.78C109.193 184.455 109.122 184.144 109.066 183.89C108.952 183.382 108.995 183 109.123 182.633C109.179 182.464 109.208 182.28 109.278 182.153C109.491 181.757 110.384 182.153 111.689 183.071C113.291 184.695 114.921 186.362 116.382 188.198C117.871 190.006 119.303 191.885 120.763 193.749C122.932 196.518 125.045 199.3 127.299 201.97L127.242 202.026L127.2 202.054Z" fill="#231F20"/>
<path d="M148.749 196.761C148.537 194.047 148.413 191.318 148.272 188.575C148.219 187.569 148.077 186.578 148.042 185.573C147.953 182.026 147.989 178.478 148.307 174.917C148.413 173.337 148.59 171.757 148.802 170.177C148.979 169.172 149.138 168.152 149.421 167.162C149.669 166.156 150.27 165.208 150.889 164.318C151.296 163.758 151.632 163.988 151.897 164.62C152.021 164.935 152.145 165.352 152.233 165.826C152.304 166.3 152.498 166.86 152.286 167.363C151.296 171.111 151.066 175.06 150.907 179.082C150.801 181.494 151.19 184.008 151.455 186.478L152.286 194.678L152.711 199.762C152.905 202.333 152.994 204.933 152.994 207.532C152.994 209.543 153.082 211.568 152.604 213.665C152.498 214.124 152.375 214.584 152.145 215.043C151.314 216.738 150.482 217.126 149.51 216.968C149.28 216.939 149.05 216.91 148.855 216.853C148.537 216.738 148.378 216.465 148.325 216.12C148.289 215.776 148.36 215.374 148.484 214.871C149.156 211.927 149.315 208.466 149.174 204.875C149.085 202.218 148.908 199.49 148.643 196.761H148.732H148.749Z" fill="#231F20"/>
<path d="M138.303 289.312C138.021 291.156 137.764 293 137.533 294.844C137.353 296.702 137.096 298.546 136.993 300.419C136.916 301.78 136.89 303.142 136.826 304.504C136.595 309.298 136.621 314.12 136.968 318.929C137.224 321.042 137.366 323.198 137.764 325.269C137.995 326.602 138.226 327.95 138.457 329.283C138.766 330.602 138.92 331.964 139.074 333.354C139.164 334.219 139.01 334.148 138.573 333.538C138.355 333.226 138.059 332.786 137.712 332.247C137.353 331.708 136.993 331.042 136.749 330.276C134.99 324.872 134.168 319.141 134.155 313.383C134.155 309.936 133.924 306.376 134.026 302.872C134.103 300.943 134.155 299.014 134.335 297.099L134.566 294.22L134.887 291.355C135.118 289 135.516 286.674 135.837 284.334C136.402 280.802 137.122 277.299 137.815 273.838C138.059 272.49 138.303 271.143 138.547 269.795C138.779 268.448 139.01 267.114 139.305 265.781C139.434 265.185 139.523 264.604 139.665 264.022C139.909 262.93 140.307 262.278 140.602 261.838C140.911 261.398 141.27 261.214 141.707 261.129C141.9 261.086 142.092 261.001 142.246 261.001C142.734 260.959 143.12 262.065 142.966 263.696C142.323 268.49 141.206 273.341 140.307 278.291C139.947 280.121 139.652 281.965 139.318 283.809C138.945 285.653 138.714 287.511 138.406 289.355H138.329L138.303 289.312Z" fill="#231F20"/>
<path d="M91.6144 331.007C85.6972 328.872 79.8922 326.5 74.1012 324.17L67.7494 321.728C64.0336 320.263 60.3318 318.825 56.56 317.695C54.6811 317.137 52.7881 316.663 50.8952 316.439C49.0303 316.216 47.1233 316.188 45.595 316.802C44.9219 317.067 44.347 317.458 43.9124 317.988C43.6319 318.379 43.5057 318.853 43.5899 319.495C43.8423 320.793 44.8098 322.188 45.9595 323.29C47.4739 324.714 49.2406 325.956 51.1616 326.932C53.0966 327.881 55.1298 328.704 57.2891 329.29C58.6212 329.667 58.4529 329.89 57.191 330.142C56.8825 330.211 56.4899 330.281 56.0412 330.351C55.5925 330.393 55.1017 330.421 54.5409 330.448C53.4191 330.504 52.0871 330.407 50.755 329.946C50.152 329.779 49.5631 329.542 48.9742 329.304C48.3853 329.081 47.8104 328.802 47.2355 328.509C46.6606 328.244 46.1138 327.895 45.5529 327.56C45.0201 327.197 44.5293 326.751 44.0245 326.332C43.043 325.453 42.1176 324.463 41.3604 323.235C40.6173 322.035 39.8881 320.584 40.0143 318.588C40.0564 318.1 40.2106 317.57 40.3649 317.081C40.5892 316.607 40.9117 316.118 41.2062 315.728C41.767 315.128 42.412 314.584 43.1131 314.193C44.5293 313.384 46.0156 313.091 47.3757 313.021C50.11 312.881 52.5358 313.467 54.8774 314.081C60.444 315.644 65.9406 317.598 71.2829 319.677C77.1439 321.993 82.9349 324.393 88.796 326.583C92.3996 327.923 96.0312 329.207 99.7049 330.337C105.258 332.039 110.936 333.518 116.643 334.258C121.074 334.83 125.477 334.858 129.81 334.425C130.763 334.327 131.689 334.188 132.642 334.048C136.162 333.504 137.297 333.504 138.279 334.146C138.489 334.272 138.77 334.369 138.91 334.481C139.358 334.746 138.125 336.002 135.404 336.755C127.3 338.765 118.382 338.123 109.969 336.379C103.687 335.081 97.5596 333.183 91.5583 331.09V331.007H91.6144Z" fill="#231F20"/>
<path d="M157.828 310.204C156.8 307.124 155.908 304.003 155.029 300.895C154.732 299.752 154.353 298.624 154.069 297.481C153.136 293.411 152.312 289.314 151.811 285.147C151.608 283.308 151.392 281.454 151.216 279.615C151.149 278.43 151.014 277.246 151 276.061C151.041 275.462 151.054 274.863 151.176 274.277C151.311 273.692 151.446 273.107 151.581 272.508C151.798 271.783 151.771 271.88 152.041 272.508C152.176 272.814 152.379 273.26 152.65 273.79C152.771 274.054 152.947 274.333 153.055 274.626C153.136 274.919 153.204 275.239 153.244 275.56C153.461 276.716 153.542 277.873 153.677 279.03C153.758 280.186 154.029 281.329 154.164 282.486C154.299 283.642 154.529 284.785 154.705 285.956C154.853 287.126 154.989 288.297 155.178 289.468C155.557 292.283 156.435 295.112 157.22 297.913C158.044 300.993 159.018 304.059 160.018 307.097C160.667 308.964 161.303 310.831 161.992 312.671L163.601 316.866L164.494 319.054C164.724 319.987 165.508 321.13 164.494 321.688C164.264 321.966 163.899 322.175 163.561 322.398L162.709 322.956L161.316 323.917C160.41 324.572 159.559 325.297 158.734 326.008C158.369 326.328 158.031 326.635 157.652 326.941C156.99 327.485 156.557 327.819 156.178 327.945C155.773 328.056 155.435 327.987 154.975 327.847C154.772 327.777 154.529 327.75 154.34 327.68C154.015 327.555 153.853 327.262 153.893 326.76C153.948 326.245 154.204 325.603 154.718 325.032C155.489 324.196 156.26 323.402 157.152 322.802C158.017 322.161 158.964 321.66 159.843 321.06L161.181 320.21L161.506 320.001C161.506 320.001 161.506 320.001 161.519 319.973V319.959L161.506 319.946L161.249 319.346C159.978 316.378 158.801 313.312 157.72 310.232L157.787 310.204H157.828Z" fill="#231F20"/>
<path d="M208.086 190.422C208.367 189.415 208.55 187.884 208.774 186.532C208.999 185.139 209.252 183.719 209.603 182.312C209.856 181.278 210.08 180.229 210.431 179.236C210.74 178.354 211.105 177.485 211.484 176.63L211.821 175.912L212.327 174.919C212.678 174.285 213.043 173.664 213.436 173.168C214.209 172.12 214.967 171.499 215.753 171.168C216.146 171.03 216.624 170.892 217.143 171.126L217.326 171.209C217.326 171.209 217.368 171.264 217.396 171.292L217.48 171.499C217.537 171.637 217.621 171.802 217.691 171.94C217.761 172.12 217.902 172.313 218 172.506C218 173.485 217.972 174.478 217.93 175.485C217.874 176.395 217.831 177.305 217.775 178.202C217.663 180.243 217.424 182.422 216.02 184.215C215.599 184.767 215.515 184.601 215.36 183.995C215.29 183.691 215.149 183.264 214.967 182.767C214.883 182.519 214.77 182.257 214.7 181.995C214.658 181.733 214.63 181.471 214.63 181.181C214.56 180.009 214.742 178.864 214.812 177.692V177.471C214.812 177.471 214.826 177.457 214.841 177.443V177.416C214.841 177.416 214.869 177.402 214.883 177.374C214.911 177.333 214.925 177.305 214.967 177.195C214.967 177.14 215.135 176.836 215.037 176.685C214.967 176.561 214.883 176.505 214.756 176.533C214.658 176.547 214.546 176.657 214.447 176.809C214.391 176.878 214.349 176.961 214.293 177.057C214.265 177.112 214.265 177.112 214.209 177.223L214.026 177.636C213.549 178.754 213.155 179.926 212.79 181.098C212.004 183.65 211.653 186.353 211.26 189.167C211.204 189.567 211.133 189.98 211.049 190.408C210.951 190.849 210.909 191.249 210.614 191.842C210.122 192.739 209.603 193.497 209.069 194.283C207.539 196.49 205.825 198.545 204.014 200.518C202.61 202.035 201.22 203.593 199.436 204.807C199.043 205.069 198.664 205.345 198.215 205.538C196.53 206.227 195.828 206.021 195.364 205.717C195.252 205.634 195.125 205.579 195.055 205.497C194.816 205.234 195.378 204.738 196.235 203.952C196.881 203.4 197.47 202.766 198.116 202.242L199.043 201.359C199.338 201.042 199.647 200.738 199.97 200.449C201.22 199.249 202.441 197.938 203.607 196.545C205.194 194.67 206.794 192.532 207.974 190.546L208.016 190.394H208.086V190.422Z" fill="#231F20"/>
<path d="M229.536 166.504C230.208 165.461 230.923 164.335 231.523 163.82C232.123 163.264 232.552 163.167 232.923 163.056C233.109 163.014 233.266 163 233.466 163C233.566 163 233.681 163 233.881 163.083C234.009 163.167 234.081 163.264 234.181 163.362C234.266 163.459 234.381 163.542 234.452 163.667L234.624 164.071L234.795 164.474C234.838 164.627 234.852 164.822 234.867 165.002L234.981 165.767C235.024 166.017 234.981 166.393 234.981 166.699C234.952 167.338 234.981 167.95 234.752 168.784C234.595 169.48 234.467 170.147 234.281 170.829C234.181 171.176 234.066 171.51 233.952 171.858L233.709 172.525C233.409 173.331 233.066 174.138 232.709 174.917C231.994 176.488 231.18 178.004 230.265 179.464C229.465 180.771 228.636 182.064 227.722 183.288L226.793 184.456C226.45 184.817 226.064 185.151 225.692 185.498C224.921 186.152 224.035 186.736 222.977 186.931C222.348 187.084 222.434 187 222.734 186.513C223.077 186.055 223.349 184.984 224.006 184.275C225.035 182.801 226.193 181.41 227.164 179.825C228.165 178.268 229.022 176.599 229.922 174.931C230.465 173.929 230.894 172.859 231.251 171.76L231.437 171.162L231.508 170.884L231.651 170.3C231.766 169.841 231.894 169.285 231.823 168.659C231.837 168.423 231.651 168.52 231.608 168.59C231.537 168.659 231.466 168.743 231.394 168.826C231.251 168.993 231.108 169.188 230.951 169.396L230.337 170.258L229.922 170.842L229.251 171.871C227.907 173.943 226.464 175.973 225.006 177.976C223.878 179.547 222.763 181.104 221.191 182.439C220.848 182.731 220.491 183.023 220.076 183.274C219.319 183.76 218.604 183.83 218.147 183.802C217.676 183.774 217.39 183.566 217.204 183.315C217.118 183.19 217.033 183.079 217.004 182.982C216.947 182.634 217.518 182.398 218.161 181.8C219.219 180.951 220.219 179.686 221.148 178.351C222.134 177.044 223.22 175.723 224.235 174.319L226.493 171.148L227.607 169.535L229.508 166.435L229.536 166.518V166.504Z" fill="#231F20"/>
<path d="M232.323 182.846C232.794 181.875 233.197 180.849 233.573 179.808C233.708 179.428 233.761 179.034 233.896 178.64C234.34 177.29 234.716 175.912 235.038 174.505C235.173 173.886 235.254 173.239 235.307 172.606C235.321 171.79 235.509 170.989 235.737 170.173C235.818 169.92 236.006 169.962 236.248 170.187C236.477 170.412 236.799 170.848 236.894 171.34C237.095 172.226 236.961 173.084 236.894 173.942C236.786 174.8 236.665 175.672 236.369 176.502C236.047 177.501 235.912 178.584 235.617 179.597C235.307 180.722 234.891 181.819 234.474 182.902C234.192 183.563 233.923 184.224 233.614 184.871C233.17 185.856 232.632 186.798 232.148 187.755C231.759 188.486 231.476 189.274 231.1 190.033C231.019 190.202 230.966 190.385 230.845 190.511C230.629 190.779 230.468 190.933 230.28 190.99C230.065 191.018 229.877 190.99 229.648 190.891C229.554 190.849 229.447 190.821 229.366 190.779C229.231 190.708 229.151 190.568 229.084 190.371C229.03 190.174 228.949 189.879 229.043 189.653C229.42 188.205 230.226 187.051 230.858 185.729C231.355 184.773 231.866 183.802 232.283 182.804H232.337L232.323 182.846Z" fill="#231F20"/>
<path d="M237.789 179.04C237.963 178.561 238.119 178.068 238.241 177.576C238.293 177.389 238.276 177.216 238.328 177.03C238.467 176.39 238.624 175.738 238.78 175.085C238.85 174.792 238.85 174.5 238.867 174.207C238.867 173.834 238.867 173.461 238.954 173.088C238.989 172.848 239.494 173.128 239.65 173.567C239.842 174.326 240.068 175.099 239.981 175.884C239.876 176.35 239.929 176.843 239.876 177.323C239.824 177.855 239.72 178.375 239.598 178.894C239.511 179.213 239.442 179.533 239.355 179.853C239.233 180.332 239.059 180.811 238.902 181.291C238.78 181.664 238.746 182.05 238.641 182.423C238.624 182.502 238.606 182.596 238.572 182.676C238.433 182.982 238.276 183.035 237.841 182.982C237.737 182.969 237.65 182.955 237.545 182.942C237.232 182.875 237.023 182.676 237.006 182.449C236.971 181.77 237.093 181.131 237.25 180.478C237.406 180.012 237.597 179.533 237.737 179.04H237.771H237.789Z" fill="#231F20"/>
<path d="M118.384 447.302C117.934 439.122 117.89 430.928 117.658 422.847C117.6 421.383 117.542 419.905 117.426 418.441C117.295 416.976 117.179 415.512 117.106 414.034C116.438 403.672 114.928 393.353 113.243 383.019C112.516 378.429 111.674 373.812 110.991 369.222L110.381 364.773C110.265 363.267 110.033 361.788 110.018 360.268C109.946 357.255 110.047 354.172 111.122 351.258C111.63 349.441 111.63 349.709 111.921 351.314C112.066 352.116 112.415 353.243 112.807 354.566C112.996 355.228 113.243 355.932 113.373 356.678C113.475 357.424 113.635 358.212 113.707 359.043C114.579 370.742 117.397 382.611 118.704 394.803C119.561 402.081 120.708 409.656 121.1 417.174C121.478 425.48 121.26 433.646 121.507 441.825C121.609 446.865 121.856 451.891 122.248 456.903C122.858 464.492 123.904 472.08 125.777 479.401C127.23 485.089 129.191 490.523 131.674 495.746C132.168 496.915 132.807 497.999 133.374 499.153C133.896 500.223 134.332 501.11 134.695 501.842C135.087 502.574 135.378 503.166 135.581 503.686C135.785 504.193 135.915 504.63 135.988 504.996C136.017 505.39 135.988 505.742 135.959 506.052C135.93 506.347 135.959 506.685 135.915 506.868C135.886 507.431 134.056 506.192 132.183 503.095C129.437 498.506 127.128 493.508 125.283 488.27C123.497 483.019 122.146 477.557 121.129 472.052C119.692 463.858 118.791 455.58 118.312 447.316H118.399L118.384 447.302Z" fill="#231F20"/>
<path d="M106.55 515.836C104.54 515.94 102.531 515.94 100.522 516C98.5123 515.97 96.5029 516 94.5076 515.925C93.0462 515.866 91.5849 515.911 90.1235 515.851C84.9806 515.508 79.8659 514.972 74.7792 514.197C72.5169 513.854 70.2546 513.526 68.0204 513.183C66.5872 512.915 65.1399 512.781 63.7206 512.393C63.0181 512.185 62.3014 512.006 61.627 511.738C60.9525 511.455 60.264 511.171 59.5754 510.873C58.7324 510.501 58.8588 510.471 59.6738 510.352C60.0813 510.292 60.6574 510.173 61.3459 510.039C61.6832 509.979 62.0626 509.875 62.456 509.845C62.8354 509.83 63.2429 509.845 63.6504 509.86C64.3811 509.949 65.1258 509.905 65.8424 510.039L68.0064 510.382C69.4396 510.635 70.8869 510.799 72.3342 511.022C73.7815 511.246 75.2289 511.44 76.6762 511.618C78.1235 511.812 79.5848 512.066 81.0462 512.23C84.545 512.721 88.2265 512.736 91.8237 512.796C93.805 512.826 95.7863 512.87 97.7675 512.826C99.7488 512.826 101.73 512.751 103.711 512.647C106.156 512.557 108.587 512.319 111.018 512.08C114.686 511.633 118.381 511.171 121.936 510.247C122.625 510.069 123.313 509.875 124.002 509.696C124.676 509.472 125.337 509.234 125.997 508.996L127.978 508.28L129.917 507.46C130.494 507.222 131.028 506.954 131.618 506.745C132.672 506.298 133.36 506.015 133.922 506C134.498 506.03 134.92 506.224 135.327 506.551C135.51 506.7 135.721 506.82 135.861 506.954C136.086 507.192 136.03 507.52 135.749 508.012C135.482 508.489 134.962 509.07 134.161 509.502C129.51 512.185 124.1 513.63 118.69 514.569L115.669 515.061L112.634 515.404C110.611 515.672 108.573 515.747 106.55 515.925V515.836Z" fill="#231F20"/>
<path d="M45.4586 73.0617C47.6179 71.7272 49.5655 70.1089 51.2167 68.2066C52.8821 66.3044 54.251 64.104 55.4224 61.7333C57.7511 56.9918 59.3317 51.6258 61.1523 46.2313C62.4789 42.299 63.8338 38.2816 65.7814 34.4771C69.1121 27.734 74.0799 21.7433 79.9368 17.158C85.7372 12.4592 92.568 9.09472 99.7797 7.30603L100.979 6.99372L102.207 6.79498L104.649 6.38329C106.286 6.14196 107.951 6.12776 109.588 6C111.24 6.08518 112.905 6.07098 114.542 6.25553L116.984 6.62463L118.211 6.80917C118.607 6.89434 119.002 7.00791 119.411 7.12148L122.473 7.93065L125.437 9.08052C125.931 9.27927 126.439 9.44962 126.905 9.67675L128.302 10.4291C129.22 10.9402 130.193 11.3945 131.082 11.9765C132.804 13.2115 134.611 14.333 136.064 15.8804C136.826 16.6186 137.603 17.3284 138.322 18.0808C138.986 18.9041 139.522 19.8269 140.129 20.6786C141.554 22.879 141.202 22.6518 139.282 21.502C138.774 21.2181 138.195 20.8774 137.532 20.5083C137.363 20.4231 137.208 20.3095 136.996 20.2385C136.841 20.125 136.671 20.0114 136.502 19.8978C136.149 19.6707 135.754 19.472 135.373 19.2306C134.582 18.7764 133.764 18.2511 132.917 17.6833C132.508 17.3852 132.042 17.1296 131.576 16.8741C131.125 16.5902 130.673 16.3063 130.207 15.9939C128.641 14.7873 126.82 14.0633 125.127 13.098C123.292 12.445 121.542 11.579 119.623 11.1957L118.211 10.8266C117.746 10.6847 117.266 10.5853 116.786 10.5427L113.907 10.131C112.947 10.0316 111.959 10.0458 111 10.0033C110.52 10.0033 110.026 9.94647 109.546 9.96067L108.092 10.06C107.119 10.1594 106.145 10.1168 105.171 10.3014L102.264 10.784C101.29 10.9544 100.358 11.2667 99.3987 11.4938L97.9732 11.8629L96.5761 12.374C92.7938 13.5948 89.2655 15.5397 85.8643 17.6691C84.8764 18.3647 83.8743 19.0461 82.8864 19.7559C81.955 20.5508 81.0235 21.3458 80.092 22.1408C78.2714 23.7875 76.5638 25.5762 75.0678 27.5494C72.0052 31.4533 69.6766 35.8967 67.8137 40.5529C65.7391 45.6635 64.2572 51.1005 62.3943 56.5518C60.5596 61.9746 58.0616 67.5678 53.9264 71.997C51.4284 74.751 48.3236 76.8804 45.0917 78.5129C41.8739 80.0603 38.8396 81.4657 35.8476 83.1692C31.3597 85.7102 26.9423 88.5494 23.4564 92.1836C21.7487 93.9865 20.2245 96.0165 19.6317 98.2311C19.3354 99.3384 19.2648 100.46 19.4624 101.539C19.6176 102.632 20.2104 103.64 20.8313 104.719C21.7487 106.38 23.0753 107.757 24.4443 109.006C25.9403 110.113 27.5209 111.135 29.3133 111.703C32.8133 112.952 36.6662 113.222 40.3497 112.555C41.1541 112.37 41.9586 112.228 42.7489 112.015C43.5251 111.76 44.3155 111.518 45.1058 111.263C47.9707 110.127 49.8619 109.332 51.1885 108.693C52.5857 108.168 53.3901 107.813 54.2228 107.728C54.5898 107.686 55.0414 107.558 55.3095 107.572C55.7611 107.6 55.5353 108.126 54.745 109.134C54.3498 109.63 53.8418 110.283 53.0797 110.922C52.3458 111.561 51.4849 112.342 50.3699 112.995C47.1381 115.082 43.3275 116.303 39.3618 116.814C35.396 117.282 31.1762 116.899 27.2387 115.309C26.2366 114.954 25.3334 114.372 24.3596 113.903C23.4423 113.336 22.5531 112.711 21.6922 112.058C20.9019 111.306 20.0269 110.624 19.3354 109.787L18.3051 108.509L17.7971 107.856L17.3737 107.16C16.8232 106.195 16.2164 105.386 15.7648 104.122C15.4966 103.555 15.3837 102.902 15.2144 102.277C15.1156 101.638 15.0168 100.985 15.0027 100.332C14.9462 97.7058 15.793 95.2641 16.922 93.2767C18.6156 90.3239 20.8737 88.081 23.1882 86.1219C25.5169 84.1629 27.9726 82.4736 30.4706 80.9262C32.9827 79.393 35.5371 77.9877 38.1339 76.6958C39.4323 76.0428 40.7449 75.4182 42.0291 74.822C43.2288 74.2399 44.3437 73.6579 45.4304 72.9765L45.501 73.0617H45.4586Z" fill="#231F20"/>
<path d="M119.001 85.7511C119.126 86.514 119.237 87.2909 119.32 88.0678L119.417 89.2544L119.444 89.8618C119.472 90.215 119.458 90.554 119.444 90.9072C119.444 92.2915 119.167 93.577 118.517 94.3681C118.212 94.7636 117.686 95.1309 117.188 95.2156L116.412 95.2439C116.163 95.2721 115.859 95.1168 115.582 95.0603C115.305 95.0037 115.014 94.8766 114.737 94.7353C114.46 94.5941 114.17 94.5093 113.893 94.2974L113.076 93.7606C112.813 93.577 112.536 93.3086 112.397 93.2097C111.761 92.6447 111.207 92.0373 110.695 91.4298C109.67 90.215 108.812 88.986 107.953 87.7853C106.721 86.0337 105.42 84.4092 104.077 82.9966C102.9 81.7535 101.585 80.7505 100.187 80.2985C98.7886 79.8464 97.238 79.9736 95.7013 80.5245C94.4415 80.9624 93.3754 82.1631 92.8909 83.6464C92.3787 85.1296 92.3787 86.853 92.7386 88.5481C93.3893 91.5994 94.9675 94.467 97.5287 95.8654C99.1485 96.7836 101.059 97.1368 102.97 97.165C104.894 97.2215 106.832 96.9814 108.895 96.7695C110.293 96.9108 110.127 96.7978 109.324 97.8996C108.923 98.4646 108.244 99.0721 107.317 99.736C106.389 100.343 105.171 100.81 103.786 100.965C101.336 101.134 98.7332 100.697 96.3658 99.4817C95.1752 98.9026 94.1092 98.055 93.1401 97.1227C92.2264 96.1338 91.4372 95.0461 90.8558 93.8878C90.2605 92.7012 89.8313 91.5852 89.5129 90.3563C89.1945 89.1414 88.9868 87.8559 89.0007 86.5281C88.973 83.9148 89.8313 81.0048 91.9772 79.0554C92.6002 78.4762 93.3201 77.9818 94.1369 77.6428C94.9398 77.3179 95.5905 77.1342 96.3797 76.9788C97.8887 76.6681 99.5638 76.6822 101.114 77.1625C104.243 78.1513 106.403 80.4256 108.133 82.5869C110.044 85.0025 111.608 87.5452 113.422 89.6358C113.657 89.8901 113.879 90.1444 114.114 90.3704C114.322 90.5964 114.668 90.8789 114.723 90.9354C114.959 91.1191 115.208 91.3027 115.499 91.4157C115.637 91.4581 115.817 91.5711 115.942 91.4581C116.066 91.3592 116.108 91.1897 116.135 91.0484C116.205 90.7377 116.205 90.4128 116.205 90.0737C116.039 86.5987 115.236 83.0107 114.28 79.5498L113.699 77.5721C113.588 77.1342 113.63 76.7952 113.588 76.3997C113.713 76.0606 113.948 75.8064 114.336 75.6086C114.696 75.4108 115.139 75.2554 115.568 75.1001L116.634 74.7187L120.067 73.4332C122.352 72.5856 124.525 71.4414 126.588 70.2124C130.132 68.0653 133.247 65.3531 135.78 62.2171C136.334 61.5249 136.819 60.8044 137.331 60.084C138.272 58.7279 138.799 57.7956 139.325 57.2164C139.865 56.6514 140.308 56.3689 140.847 56.2135C141.083 56.1428 141.346 56.0157 141.54 56.0016C141.886 55.9733 142.024 56.3265 141.997 57.0469C141.955 57.7532 141.734 58.8268 141.083 60.0134C139.228 63.5732 136.445 66.7092 133.261 69.2801C130.077 71.8652 126.449 73.8711 122.767 75.5945C121.396 76.3149 119.998 77.0353 118.531 77.5439L117.451 77.9394L117.312 77.9818H117.298C117.285 77.9818 117.271 77.9818 117.271 77.9959C117.271 78.0383 117.243 77.9394 117.285 78.0948L117.589 79.1684L118.157 81.3438C118.517 82.7988 118.821 84.2679 119.084 85.7653L119.001 85.7935V85.7511Z" fill="#231F20"/>
<path d="M73.1295 203.95C69.2134 212.467 65.8365 221.224 62.7292 230.106C61.5941 233.353 60.6293 236.642 59.5793 239.903C55.8761 251.428 52.6552 263.107 49.6472 274.871C48.3135 280.086 47.0791 285.356 45.8021 290.571C44.9792 293.916 44.1562 297.275 43.163 300.606C42.0989 303.909 41.1057 307.31 38.6085 310.205C37.6578 311.007 37.0193 311.077 37.0051 310.95C36.9484 310.796 37.374 310.374 37.6436 309.489C37.899 308.603 38.2254 307.423 38.5233 305.933C38.8071 304.443 39.1902 302.714 39.7861 300.873C41.7725 294.281 43.3333 287.436 45.0217 280.634C46.696 273.817 48.4412 266.986 50.3851 260.17C52.712 252.018 54.8828 243.458 57.4936 235.166C60.3597 226.058 63.6089 217.049 67.3547 208.237C69.6391 202.812 72.1504 197.471 74.8463 192.228C78.9326 184.287 83.6149 176.585 88.8221 169.375C92.8801 163.781 97.1225 158.44 102.003 153.563C103.096 152.509 104.132 151.427 105.281 150.429C109.679 146.817 111.425 146.086 112.914 146.086C113.241 146.072 113.624 145.988 113.837 146.002C114.504 146.016 113.099 147.969 110.148 150.71C105.849 154.856 101.521 159.157 97.5765 163.936C93.6179 168.7 89.9147 173.788 86.5236 179.115C81.4866 187.014 77.0597 195.391 73.1862 204.006L73.1011 203.978L73.1295 203.95Z" fill="#231F20"/>
<path d="M150.668 257.528C152.916 257.612 155.363 257.134 157.753 256.459C160.157 255.77 162.532 254.841 164.851 253.786C169.518 251.662 174.001 249.059 178.286 246.147C181.425 244.036 184.395 241.687 187.28 239.267C189.825 237.129 192.3 234.906 194.563 232.5C195.694 231.305 196.783 230.067 197.801 228.772C198.282 228.125 198.805 227.478 199.243 226.803C199.455 226.465 199.71 226.141 199.908 225.79L200.36 225.03V224.116C200.36 223.708 200.36 223.3 200.332 222.892C200.318 222.076 200.233 221.26 200.162 220.444C199.993 218.826 199.724 217.208 199.328 215.632C198.522 212.495 197.207 209.456 195.213 206.938C194.775 206.375 194.294 205.855 193.799 205.348L193.318 204.912C193.247 204.8 193.148 204.87 193.064 204.884C192.979 204.912 192.894 204.926 192.809 204.968L191.932 205.348L190.942 205.841C190.278 206.164 189.627 206.53 188.977 206.882C186.361 208.317 183.773 209.822 181.185 211.299C177.862 213.213 174.524 215.098 171.045 216.786C167.581 218.474 164.045 220.12 160.171 220.866C157.696 221.147 158.092 220.936 159.973 220.247C160.892 219.825 162.165 219.192 163.635 218.291C165.12 217.447 166.874 216.462 168.783 215.421C172.177 213.578 175.514 211.581 178.908 209.681C182.302 207.754 185.639 205.77 189.146 203.885L190.49 203.196C190.702 203.083 190.971 202.971 191.211 202.858L191.579 202.689C191.706 202.633 191.932 202.506 192.144 202.45L193.502 202.084L193.841 202L194.096 202.211L194.591 202.633L195.567 203.463L196.118 204.04C197.589 205.587 198.791 207.346 199.738 209.203C201.619 212.945 202.538 217.025 202.849 221.063C202.948 222.273 202.991 223.497 202.991 224.706V225.396C202.991 225.522 203.019 225.649 202.977 225.776L202.793 226.099L202.241 227.056C201.93 227.605 201.563 228.111 201.237 228.632C199.837 230.686 198.268 232.585 196.613 234.414C193.29 238.043 189.655 241.378 185.837 244.402C181.637 247.736 177.211 250.761 172.559 253.462C167.906 256.135 163.013 258.513 157.724 260.004C156.084 260.426 154.415 260.806 152.676 260.933C150.951 261.101 149.098 260.933 147.5 260.651C144.177 260.117 140.938 259.216 137.827 258.063C128.353 254.489 120.023 248.665 112.387 242.447C106.448 237.593 100.862 232.557 95.488 227.239C94.3002 226.071 93.1264 224.946 91.9668 223.736C87.781 219.149 86.6072 217.658 86.3244 216.054C86.2396 215.717 86.0557 215.323 86.0133 215.098C85.7871 214.394 88.4739 215.393 91.7547 218.573C94.286 220.824 96.69 223.215 99.1506 225.593C101.611 227.97 104.114 230.334 106.674 232.669C111.793 237.326 117.153 241.842 122.866 245.795C127.122 248.707 131.534 251.394 136.201 253.462C138.534 254.489 140.91 255.404 143.357 256.065C144.573 256.445 145.803 256.67 147.033 256.951C148.235 257.12 149.593 257.401 150.625 257.43V257.514L150.668 257.528Z" fill="#231F20"/>
<path d="M128.113 169.369C129.124 169.984 130.193 170.569 131.291 171.092C131.701 171.276 132.126 171.369 132.536 171.538C133.986 172.138 135.494 172.599 137.032 172.968C137.72 173.122 138.423 173.23 139.111 173.26C140.005 173.337 140.898 173.307 141.791 173.445C142.069 173.491 142.055 173.768 141.835 174.076C141.615 174.383 141.161 174.768 140.62 174.845C138.701 175.045 136.71 175.168 134.85 174.46C133.737 174.076 132.536 173.922 131.408 173.507C130.163 173.091 128.963 172.538 127.806 171.892C127.103 171.461 126.4 171.046 125.741 170.569C124.73 169.861 123.764 169.077 122.87 168.216C122.153 167.585 121.45 166.939 120.791 166.247C120.644 166.093 120.513 165.939 120.381 165.755C119.927 165.093 119.912 164.786 120.161 164.401C120.22 164.309 120.264 164.217 120.337 164.14C120.557 163.894 120.967 163.986 121.406 164.309C122.621 165.355 123.881 166.339 125.17 167.293C125.638 167.662 126.107 168.031 126.605 168.339C127.088 168.692 127.601 169 128.128 169.292L128.099 169.338L128.113 169.369Z" fill="#231F20"/>
<path d="M137 93.7168C137 95.0632 137.358 96.4804 137.859 97.7276C138.56 99.485 139.605 101.157 141.28 102.164C143.055 103.212 145.388 103.297 147.206 102.291C148.881 101.356 149.855 99.6267 150.513 97.8977C151.143 96.2678 151.429 94.553 151.93 92.8807C152.489 90.9957 149.525 90.1879 148.967 92.0728C148.581 93.3767 148.337 94.7089 147.937 95.9986C147.836 96.3387 147.707 96.6788 147.579 97.019C147.55 97.104 147.521 97.1749 147.493 97.2599C147.407 97.4725 147.593 97.0332 147.493 97.2457C147.407 97.43 147.321 97.6284 147.221 97.8126C147.063 98.1244 146.892 98.422 146.691 98.7055C146.648 98.7764 146.605 98.833 146.548 98.9039C146.748 98.6346 146.591 98.8472 146.534 98.9039C146.405 99.0456 146.276 99.1874 146.133 99.3149C146.076 99.3716 146.018 99.4141 145.961 99.4708C146.276 99.3007 145.789 99.6125 145.961 99.4708C145.832 99.5417 145.703 99.6267 145.56 99.7117C145.489 99.7542 145.417 99.7826 145.346 99.8109C145.646 99.6692 145.46 99.7684 145.388 99.7826C145.188 99.8393 145.002 99.896 144.802 99.9385C144.415 100.024 145.016 99.9385 144.759 99.9385C144.673 99.9385 144.587 99.9385 144.487 99.9385C144.286 99.9385 144.072 99.9385 143.871 99.9101C144.2 99.9527 143.714 99.8676 143.628 99.8393C143.513 99.8109 142.969 99.5842 143.284 99.7401C143.141 99.6692 142.984 99.5983 142.855 99.5133C142.769 99.4566 142.683 99.3999 142.597 99.3432C142.554 99.3149 142.354 99.159 142.511 99.2866C142.64 99.3858 142.268 99.074 142.211 99.0031C142.067 98.8614 141.939 98.7055 141.795 98.5496C141.753 98.4929 141.624 98.3228 141.795 98.5638C141.753 98.4929 141.695 98.4362 141.652 98.3654C141.552 98.2095 141.452 98.0536 141.352 97.8977C141.166 97.5859 140.994 97.2599 140.851 96.9198C140.751 96.693 140.98 97.2599 140.851 96.8914C140.822 96.7922 140.779 96.7072 140.751 96.608C140.679 96.4237 140.622 96.2395 140.564 96.0553C140.45 95.7151 140.364 95.3608 140.278 95.0065C140.249 94.8506 140.207 94.6805 140.178 94.5247C140.178 94.4538 140.149 94.3688 140.135 94.2979C140.078 94.0286 140.149 94.5955 140.135 94.4113C140.135 94.1703 140.092 93.9294 140.078 93.6885C140.063 91.7327 136.986 91.7185 137 93.6885V93.7168Z" fill="#231F20"/>
<path d="M163.044 95.094C162.779 95.7811 162.514 96.4681 162.249 97.1551C162.18 97.3303 162.11 97.5054 162.026 97.694C161.901 98.0173 162.082 97.5862 161.957 97.8557C161.831 98.1251 161.692 98.4215 161.538 98.6909C161.385 98.9603 161.246 99.2028 161.078 99.4587C161.051 99.5126 160.73 99.9302 160.939 99.6608C160.855 99.7551 160.786 99.8494 160.688 99.9437C160.493 100.159 160.27 100.361 160.047 100.55C159.908 100.658 159.908 100.658 160.047 100.55C159.977 100.604 159.894 100.658 159.824 100.698C159.726 100.765 159.629 100.819 159.531 100.873C159.434 100.927 159.322 100.968 159.225 101.021C159.601 100.846 159.266 100.994 159.169 101.021C159.057 101.048 158.946 101.062 158.834 101.102C158.556 101.197 159.169 101.102 158.793 101.102C158.681 101.102 158.556 101.102 158.444 101.102C158.388 101.102 157.984 101.048 158.235 101.102C158.486 101.156 158.068 101.062 158.026 101.048C157.914 101.021 157.789 100.968 157.677 100.941C157.58 100.9 157.608 100.914 157.789 100.981C157.719 100.954 157.65 100.914 157.594 100.887C157.482 100.819 157.371 100.752 157.245 100.685C156.925 100.496 157.329 100.792 157.12 100.59C157.008 100.496 156.897 100.402 156.799 100.294C156.688 100.186 156.59 100.078 156.493 99.9572C156.674 100.159 156.381 99.7955 156.339 99.7417C156.116 99.4183 155.935 99.0816 155.768 98.7313C155.419 98.0173 154.374 97.8422 153.719 98.2059C152.966 98.637 152.841 99.4722 153.175 100.186C154.193 102.301 156.27 104.187 158.834 103.985C161.274 103.797 163.128 102.018 164.187 99.9976C164.898 98.6639 165.386 97.2225 165.929 95.8215C166.208 95.1075 165.623 94.2049 164.884 94.0433C164.034 93.8547 163.337 94.2992 163.044 95.0536V95.094Z" fill="#231F20"/>
<path d="M159.445 85.8345C158.227 87.5083 157.266 89.4494 156.657 91.5732C156.414 92.3328 156.346 93.1486 156.183 93.9503C155.615 96.7634 155.561 99.7312 155.791 102.699C155.899 104.021 156.143 105.329 156.454 106.595C156.671 107.411 156.887 108.227 157.144 109.014L157.32 109.619L157.415 110.252C157.483 110.674 157.55 111.096 157.618 111.532C157.686 112.081 157.456 112.109 156.982 111.813C156.738 111.673 156.427 111.448 156.075 111.166C155.764 110.871 155.263 110.548 155.128 110.055C153.801 106.694 152.813 103.051 153.03 99.3092C153.138 97.0869 153.057 94.7802 153.504 92.5156C153.977 90.0401 154.816 87.6209 156.089 85.4407C156.495 84.7796 156.887 84.1045 157.388 83.5137L158.092 82.5995L158.89 81.7696C160.433 80.0536 162.612 78.7315 164.927 78.2814C166.713 77.9016 168.568 77.9016 170.327 78.3095C170.72 78.3939 171.099 78.4643 171.478 78.6049C172.168 78.8722 172.56 79.1816 172.763 79.5332C172.966 79.8708 173.021 80.1802 172.994 80.5741C172.98 80.7569 172.994 80.9398 172.953 81.0804C172.831 81.5868 172.127 81.7556 171.139 81.7556C168.419 81.2351 165.983 80.9257 163.844 81.9806C163.046 82.3604 162.288 82.8808 161.57 83.57L160.487 84.6671L159.54 85.8908L159.472 85.8486L159.445 85.8345Z" fill="#231F20"/>
<path d="M152.803 76.5437C151.628 73.9518 148.779 73.0146 146.12 73C143.433 73 140.716 73.6882 138.219 74.5961C137.382 74.9036 136.809 75.709 137.059 76.6169C137.279 77.4223 138.249 78.0665 139.086 77.7737C140.143 77.393 141.23 77.0562 142.331 76.7926C142.919 76.6462 143.506 76.529 144.094 76.4412C144.152 76.4412 144.593 76.3679 144.299 76.4119C144.461 76.3972 144.622 76.3679 144.784 76.3533C145.078 76.324 145.357 76.3094 145.65 76.2947C145.944 76.2801 146.223 76.2947 146.502 76.2947C146.634 76.2947 146.752 76.2947 146.884 76.3094C146.928 76.3094 147.383 76.3533 147.178 76.3387C146.958 76.3094 147.339 76.3679 147.383 76.3826C147.516 76.4119 147.662 76.4412 147.795 76.4704C148.044 76.529 148.279 76.6169 148.514 76.6901C148.705 76.7633 148.279 76.5583 148.544 76.7047C148.661 76.7633 148.779 76.8219 148.896 76.8951C149.014 76.9683 149.116 77.0415 149.219 77.1147C149.043 76.983 149.116 77.0269 149.234 77.144C149.307 77.2172 149.381 77.3051 149.469 77.3783C149.748 77.6419 149.337 77.1294 149.542 77.4662C149.689 77.7005 149.836 77.9348 149.954 78.1983C150.321 79.0037 151.496 79.2087 152.215 78.7841C153.052 78.3008 153.17 77.349 152.803 76.529V76.5437Z" fill="#231F20"/>
<path d="M151.161 123.973C150.34 125.388 149.327 126.304 148.209 126.665C147.807 126.804 147.353 126.998 146.882 126.998C146.061 127.026 145.118 126.776 144.664 126.235C144.192 125.763 144.052 125.194 144 124.514C144 124.195 144 123.89 144.105 123.557C144.157 123.39 144.157 123.237 144.192 123.085C144.262 122.918 144.314 122.752 144.402 122.599C144.524 122.391 144.559 122.183 144.681 121.989C144.803 121.808 145.013 121.572 145.1 121.447C145.31 121.198 145.589 120.976 145.921 120.809C146.131 120.712 146.375 120.92 146.585 121.225C146.777 121.531 147.039 121.919 146.987 122.169C146.987 122.211 146.969 122.308 146.952 122.308C146.987 122.308 146.934 122.294 146.952 122.308C146.952 122.308 146.917 122.308 146.882 122.349C146.812 122.405 146.672 122.544 146.533 122.918C146.375 123.432 146.847 123.362 147.056 123.321C147.336 123.307 147.545 123.126 147.773 122.877C147.912 122.724 148.069 122.53 148.139 122.294C148.279 121.961 148.244 121.461 147.807 121.239C147.738 121.198 147.598 121.17 147.598 121.212C147.598 121.212 147.58 121.239 147.563 121.253L147.615 120.962V120.99V121.031C147.615 121.156 147.79 121.364 147.738 121.309C147.72 121.295 147.65 121.239 147.546 121.212C147.353 121.128 147.214 121.142 147.196 121.156C147.196 121.156 147.231 121.156 147.161 121.156C147.074 121.184 146.969 121.225 146.864 121.267C146.672 121.35 146.515 121.447 146.34 121.545C146.061 121.697 145.781 121.808 145.397 121.739C145.03 121.683 144.524 121.364 144.489 120.865C144.384 120.143 144.664 119.505 145.17 119.019C145.659 118.533 146.428 118.103 147.528 118.006C148.663 117.951 149.484 118.284 149.921 118.506C150.445 118.769 150.899 119.116 151.231 119.546C151.737 120.171 152.017 120.934 151.999 121.725C151.999 122.516 151.667 123.321 151.266 124.028L151.178 124.001L151.161 123.973Z" fill="#231F20"/>
</svg>
