<svg width="769" height="445" viewBox="0 0 769 445" fill="none" xmlns="http://www.w3.org/2000/svg">
<path d="M418.802 387.49C428.742 394.64 440.612 392.85 448.802 389.9L444.802 397.46L449.202 399.15C449.202 399.15 451.992 392.43 455.292 386.15L449.662 381C438.022 386.3 412.842 383.2 418.802 387.49Z" fill="#242021"/>
<path d="M454.342 383.4L456.082 385C456.472 385.42 457.262 385.78 456.692 386.31L455.912 387.8C455.292 388.98 454.732 390.07 454.162 391.22C453.032 393.51 451.942 395.81 450.902 398.14L449.902 400.56L444.412 398.45L443.352 398.03L445.992 393.17L446.372 392.47L446.562 392.17C446.672 391.96 446.842 391.7 446.942 391.5C446.672 391.57 446.382 391.66 446.062 391.73L443.972 392.24C442.222 392.613 440.453 392.887 438.672 393.06C435.69 393.351 432.684 393.27 429.722 392.82C427.817 392.532 425.947 392.046 424.142 391.37C423.241 391.023 422.365 390.612 421.522 390.14C421.102 389.9 420.682 389.66 420.272 389.41L419.102 388.56C418.102 387.84 418.612 387.5 419.732 387.56C421.345 387.801 422.919 388.255 424.412 388.91C425.222 389.3 426.102 389.53 426.942 389.84C427.782 390.15 428.672 390.34 429.572 390.47C431.354 390.823 433.165 391.011 434.982 391.03C436.821 391.054 438.659 390.944 440.482 390.7L441.862 390.5L443.232 390.25C443.692 390.18 444.142 390.06 444.602 389.96L445.342 389.79L446.582 389.43C448.082 389 449.512 388.53 450.982 388.05L446.292 396.89L447.862 397.51L448.762 397.87L449.762 395.61L451.202 392.51L452.702 389.44L453.472 387.92L454.152 386.63C454.222 386.45 454.462 386.22 454.232 386.13L453.642 385.58L451.882 384L450.132 382.39L449.552 381.85C449.482 381.78 449.372 381.85 449.282 381.92L448.912 382.06C444.252 383.79 439.352 384.28 434.582 384.77L423.582 385.77C422.782 385.86 422.012 385.97 421.232 386.08C420.452 386.19 419.922 386.28 419.472 386.38C419.022 386.48 418.712 386.62 418.672 386.58C418.392 386.3 418.262 386.37 418.422 386.36C418.422 386.36 418.702 386.29 418.602 386.36C418.595 386.386 418.595 386.414 418.602 386.44C418.589 386.623 418.589 386.807 418.602 386.99C418.602 387.18 418.692 387.4 418.692 387.56C418.692 387.72 418.372 387.89 417.772 387.56C417.572 387.44 417.401 387.276 417.272 387.08C417.153 386.917 417.074 386.729 417.042 386.53C417.004 386.255 417.053 385.975 417.182 385.73C417.382 385.36 417.693 385.063 418.072 384.88C418.352 384.727 418.647 384.603 418.952 384.51C420.629 384.064 422.343 383.766 424.072 383.62C425.752 383.44 427.452 383.3 429.152 383.16C432.552 382.89 435.972 382.62 439.352 382.16C441.837 381.846 444.292 381.328 446.692 380.61L447.562 380.32L447.992 380.17L448.582 379.93L449.462 379.56L449.902 379.37C450.022 379.45 450.132 379.58 450.252 379.68L451.472 380.79L454.342 383.41V383.4Z" fill="#242021"/>
<path d="M532.792 361.42C532.315 360.817 531.707 360.33 531.014 359.996C530.321 359.661 529.562 359.488 528.792 359.49C527.02 359.579 525.292 360.075 523.743 360.94C522.525 361.607 521.355 362.359 520.243 363.19C516.177 366.196 512.437 369.618 509.082 373.4C507.552 375.07 506.132 376.85 504.762 378.64C503.012 380.94 501.432 383.37 499.512 385.55C498.332 386.92 497.512 383.55 499.512 380.81C503.054 375.917 507.074 371.388 511.512 367.29C514.192 364.675 517.067 362.268 520.112 360.09C521.878 358.89 523.813 357.959 525.852 357.33C526.929 357.009 528.05 356.864 529.172 356.9C530.34 356.934 531.483 357.238 532.512 357.79C533.722 358.487 534.75 359.46 535.512 360.63C536.247 361.723 536.838 362.906 537.272 364.15C538.441 367.8 539.14 371.584 539.352 375.41C539.602 378.33 539.842 381.18 539.922 384.07C539.922 384.71 539.982 385.33 539.982 385.97C539.982 388.35 539.732 389.09 538.982 389.57C538.831 389.691 538.667 389.795 538.493 389.88C537.932 390.08 537.492 389.1 537.422 387.38C537.092 382.31 537.022 376.97 536.302 371.78C536.058 369.885 535.663 368.012 535.123 366.18C534.657 364.467 533.851 362.865 532.753 361.47L532.792 361.42Z" fill="#242021"/>
<path d="M555.182 75.7001C554.862 76.8801 554.112 79.9401 552.472 79.8001C550.472 79.6301 551.692 76.1601 551.962 75.0501C552.232 73.9401 550.122 74.3201 549.902 75.2101C549.468 76.4724 549.288 77.808 549.372 79.1401C549.492 79.8009 549.86 80.3908 550.401 80.7887C550.942 81.1866 551.615 81.3624 552.282 81.2801C555.352 81.2001 556.552 78.0401 557.282 75.5401C557.542 74.6001 555.472 74.8301 555.222 75.7001H555.182Z" fill="#242021"/>
<path d="M542.851 76C542.541 77.11 542.021 79.75 540.671 80.1C539.891 80.3 539.671 79.95 539.561 79.28C539.528 78.1455 539.565 77.01 539.671 75.88C539.671 74.88 537.671 75.14 537.671 76.04C537.621 77.35 537.251 79.04 537.671 80.37C538.041 81.48 539.551 81.68 540.561 81.56C543.381 81.23 544.291 78.15 544.931 75.84C545.191 74.89 543.121 75.12 542.881 76H542.851Z" fill="#242021"/>
<path d="M201.6 89.4101C200.224 89.3216 198.884 88.9353 197.672 88.278C196.46 87.6206 195.406 86.7078 194.581 85.6028C193.757 84.4978 193.182 83.2269 192.897 81.8779C192.612 80.529 192.623 79.1342 192.93 77.7901C194.25 70.9101 199.26 72.0201 203.77 75.0201C203.71 70.8701 202.49 66.6901 204.12 62.5301C206.94 55.3801 215.12 56.6401 220.87 59.0901C256.8 74.4001 269.98 34.6001 242.08 25.0901C242.08 25.0901 208.5 13.8901 190.89 37.9301C190.23 38.7001 166.45 36.2101 164.66 63.5301C161.98 104.67 201.3 106.78 201.6 89.4101Z" fill="#242021"/>
<path d="M195.431 30.3101C198.507 27.73 201.965 25.6419 205.681 24.1201C209.379 22.6578 213.251 21.6829 217.201 21.2201C225.017 20.3617 232.925 20.9653 240.521 23.0001C243.372 23.7375 246.094 24.9077 248.591 26.4701C251.154 28.0398 253.363 30.1236 255.081 32.5901C256.601 34.7765 257.652 37.2538 258.169 39.8663C258.685 42.4788 258.655 45.1698 258.081 47.7701C257.507 50.3465 256.424 52.7818 254.893 54.9322C253.363 57.0826 251.417 58.9045 249.171 60.2901C246.963 61.6773 244.519 62.6468 241.961 63.1501C239.448 63.6814 236.871 63.8464 234.311 63.6401C233.043 63.5653 231.781 63.415 230.531 63.1901C229.291 62.9601 228.061 62.6601 226.841 62.3501C225.621 62.0401 224.421 61.6401 223.251 61.1801L219.801 59.8101C217.884 59.0138 215.864 58.492 213.801 58.2601C211.84 57.9938 209.844 58.3432 208.091 59.2601C206.456 60.293 205.287 61.9211 204.831 63.8001C204.347 65.7824 204.235 67.8371 204.501 69.8601L204.631 71.1701L204.811 73.1701L204.911 75.1701V76.1701V76.6801C204.93 76.7385 204.93 76.8018 204.911 76.8601V76.9901L202.421 75.4501L201.151 74.7501C200.802 74.572 200.445 74.4118 200.081 74.2701C199.178 73.8923 198.196 73.7413 197.221 73.8301C196.812 73.8961 196.421 74.0489 196.077 74.2783C195.732 74.5077 195.44 74.8084 195.221 75.1601C194.719 76.0245 194.38 76.9735 194.221 77.9601C193.818 79.9998 194.121 82.1157 195.081 83.9601C196.051 85.792 197.675 87.1915 199.631 87.8801L201.241 88.4201C201.591 88.5601 201.751 88.7101 201.721 88.8501C201.691 88.9901 200.801 89.5101 199.211 89.4201C198.068 89.3119 196.958 88.9777 195.945 88.4369C194.932 87.8962 194.037 87.1597 193.311 86.2701C192.245 85.0667 191.481 83.6271 191.081 82.0701C190.656 80.3053 190.656 78.4649 191.081 76.7001C191.359 75.3012 191.966 73.9885 192.851 72.8701C193.115 72.5589 193.406 72.2711 193.721 72.0101C194.035 71.7506 194.369 71.5165 194.721 71.3101C195.108 71.1399 195.506 70.993 195.911 70.8701C196.301 70.7735 196.699 70.71 197.101 70.6801C198.519 70.6309 199.932 70.8902 201.241 71.4401L201.401 71.5101C201.401 71.7701 201.341 70.8501 201.301 70.3401C201.261 69.8301 201.211 69.1601 201.191 68.5501C200.989 65.936 201.468 63.3143 202.581 60.9401C203.183 59.6528 204.061 58.5141 205.154 57.6049C206.246 56.6958 207.525 56.0386 208.901 55.6801C211.436 55.0828 214.08 55.1137 216.601 55.7701C217.797 56.048 218.972 56.4054 220.121 56.8401L223.321 58.1301C223.831 58.3301 224.321 58.5501 224.861 58.7301L226.431 59.2301C227.47 59.5775 228.528 59.8646 229.601 60.0901C230.66 60.335 231.732 60.5253 232.811 60.6601C233.347 60.7448 233.888 60.7949 234.431 60.8101C234.971 60.8101 235.511 60.9001 236.051 60.9101C238.206 60.9338 240.356 60.6886 242.451 60.1801C245.568 59.3965 248.42 57.7947 250.711 55.5401C251.007 55.2656 251.281 54.968 251.531 54.6501C251.781 54.3401 252.061 54.0501 252.301 53.7201C252.774 53.0826 253.205 52.4145 253.591 51.7201C254.374 50.3037 254.937 48.7761 255.261 47.1901C255.585 45.5985 255.686 43.9695 255.561 42.3501C255.402 40.7326 255.011 39.1463 254.401 37.6401C253.186 34.6121 251.17 31.9714 248.571 30.0001C248.226 29.7079 247.858 29.4438 247.471 29.2101L246.321 28.4701C245.521 28.0401 244.711 27.6201 243.891 27.2301C243.071 26.8401 242.171 26.5201 241.341 26.2301C240.511 25.9401 239.551 25.7101 238.641 25.4901C234.974 24.6012 231.236 24.039 227.471 23.8101C219.971 23.3701 212.281 24.2601 205.471 27.3701C203.355 28.3027 201.344 29.4558 199.471 30.8101C198.993 31.1178 198.532 31.4517 198.091 31.8101C197.651 32.1801 197.201 32.5301 196.761 32.9101C195.941 33.7001 195.061 34.4501 194.311 35.3301C193.931 35.7501 193.511 36.1601 193.151 36.6101L192.081 38.0001C191.947 38.184 191.8 38.3578 191.641 38.5201L191.411 38.7401C191.291 38.7401 191.221 38.8401 191.111 38.8701L190.821 38.9801H190.491C190.292 39.0137 190.092 39.0371 189.891 39.0501L188.131 39.1901C185.84 39.3821 183.577 39.8213 181.381 40.5001C178.078 41.504 175.061 43.2796 172.581 45.6801C170.141 48.1393 168.312 51.1362 167.241 54.4301C166.146 57.7577 165.546 61.2281 165.461 64.7301C165.277 68.2522 165.485 71.7839 166.081 75.2601C166.841 80.5687 168.959 85.591 172.231 89.8401C175.43 93.9767 179.976 96.8635 185.081 98.0001C187.269 98.4628 189.526 98.5069 191.731 98.1301C193.416 97.8559 195.028 97.2436 196.471 96.3301C196.99 95.9895 197.485 95.6118 197.951 95.2001C198.311 94.7801 198.701 94.4501 198.951 94.0801C199.208 93.7598 199.449 93.426 199.671 93.0801C199.861 92.7501 200.041 92.4601 200.221 92.2001C200.469 91.7043 200.746 91.2234 201.051 90.7601C201.241 90.3449 201.454 89.9409 201.691 89.5501C201.861 89.3401 202.001 89.4001 202.101 89.7501C202.17 89.9881 202.214 90.2328 202.231 90.4801C202.286 90.8614 202.286 91.2488 202.231 91.6301C202.129 92.7937 201.789 93.9239 201.231 94.9501C200.468 96.4241 199.347 97.6826 197.971 98.6101C195.714 100.158 193.081 101.067 190.351 101.24C187.652 101.456 184.938 101.157 182.351 100.36C177.126 98.7202 172.568 95.4418 169.351 91.0101C166.163 86.5923 164.066 81.4832 163.231 76.1001C163.131 75.4401 162.991 74.7701 162.911 74.1001L162.711 72.1001C162.541 70.7601 162.571 69.4301 162.511 68.1001C162.476 65.4256 162.633 62.7521 162.981 60.1001C163.252 58.0668 163.694 56.0598 164.301 54.1001C164.945 52.1293 165.79 50.2294 166.821 48.4301C168.979 44.7798 172.09 41.786 175.821 39.7701C179.478 37.8534 183.485 36.6968 187.601 36.3701L189.791 36.1801C189.551 36.5101 190.491 35.3101 191.061 34.5901C191.631 33.8701 192.421 33.0901 193.121 32.3601C193.821 31.6301 194.571 30.9401 195.361 30.3001L195.431 30.3101Z" fill="#242021"/>
<path d="M195.981 101.28C195.017 106.124 193.292 110.785 190.871 115.09C190.171 116.27 192.671 116.29 193.221 115.37C195.713 110.916 197.488 106.097 198.481 101.09C198.741 99.9003 196.231 100.2 195.981 101.28Z" fill="#242021"/>
<path d="M270.53 199.35C265.97 203.45 260.53 208.43 260.07 214.95C259.98 216.26 262.76 215.8 262.84 214.69C263.29 208.51 268.47 203.9 272.84 200.02C274.08 198.91 271.38 198.63 270.57 199.35H270.53Z" fill="#242021"/>
<path d="M240.43 190.1C239.633 189.687 238.891 189.176 238.22 188.58C237.613 187.986 237.054 187.344 236.55 186.66C235.598 185.349 234.787 183.941 234.13 182.46C232.901 179.606 231.898 176.661 231.13 173.65C230.55 171.48 229.94 169.33 229.46 167.16C227.75 159.5 226.4 151.81 224.37 144.32C223.492 141.007 222.348 137.77 220.95 134.64C220.044 132.689 218.973 130.819 217.75 129.05C216.548 127.344 215.083 125.838 213.41 124.59C212.41 123.85 212.74 123.35 214.08 123.47C215.144 123.652 216.161 124.044 217.072 124.625C217.982 125.205 218.767 125.962 219.38 126.85C220.81 128.75 222.018 130.806 222.98 132.98C223.937 135.094 224.762 137.264 225.45 139.48C226.802 143.857 227.9 148.307 228.74 152.81C229.8 158.17 231.05 163.69 232.36 169.07C233.08 172.07 233.86 174.95 234.84 177.8C235.742 180.624 237.093 183.285 238.84 185.68C239.12 186.01 239.43 186.32 239.72 186.68C240.035 186.975 240.369 187.249 240.72 187.5C241.421 187.992 242.203 188.357 243.03 188.58C244.775 189.122 246.571 189.484 248.39 189.66C253.99 190.2 259.75 190.17 265.39 190.55C269.82 190.708 274.216 191.379 278.49 192.55C279.42 192.87 280.35 193.17 281.29 193.55C284.68 195.1 285.51 196.09 285.8 197C285.883 197.202 285.94 197.414 285.97 197.63C285.97 197.92 285.59 197.95 284.97 197.75C284.582 197.626 284.205 197.472 283.84 197.29C283.41 197.08 282.92 196.81 282.33 196.58C275.54 193.42 267.42 192.87 259.27 192.58C256.27 192.48 253.15 192.41 250.02 192.17C248.46 192.06 246.88 191.87 245.3 191.61C243.638 191.336 242.018 190.848 240.48 190.16L240.43 190.1Z" fill="#242021"/>
<path d="M193.321 132.07C198.501 135.24 210.491 143.78 217.121 139.19C220.011 137.19 219.521 132.87 217.411 130.46C216.671 129.62 214.041 130.66 214.881 131.62C216.111 133.03 217.281 136.41 215.611 137.92C213.941 139.43 210.541 137.99 208.891 137.44C204.141 135.84 199.731 133.2 195.471 130.59C194.561 130.03 192.081 131.31 193.321 132.07Z" fill="#242021"/>
<path d="M199.932 214.27C201.499 215.089 203.235 215.534 205.002 215.57H205.132C221.002 216.78 237.022 217.21 252.992 217.08C259.552 217.08 266.112 216.78 272.652 216.53C278.432 216.29 284.202 215.99 289.962 215.53C291.402 215.42 292.852 215.35 294.282 215.2L297.282 214.94L298.032 214.89H298.422H298.612C298.682 214.89 298.782 214.89 298.682 214.89C298.282 214.64 297.862 214.38 297.402 214.15L297.052 213.97L296.412 213.68C295.762 213.39 295.122 213.09 294.462 212.82C293.132 212.3 291.812 211.75 290.462 211.3C287.772 210.3 285.012 209.55 282.242 208.8C276.682 207.36 271.012 206.25 265.322 205.35C255.188 203.839 244.98 202.878 234.742 202.47C231.482 202.33 228.216 202.237 224.942 202.19H220.032H218.422C218.274 202.169 218.127 202.139 217.982 202.1C217.736 202.062 217.495 201.998 217.262 201.91C216.379 201.604 215.549 201.162 214.802 200.6C213.403 199.523 212.152 198.266 211.082 196.86C210.034 195.542 209.068 194.159 208.192 192.72C206.464 189.884 204.93 186.934 203.602 183.89C202.772 182 202.602 181.09 202.892 181.04C203.182 180.99 203.892 181.79 204.892 183.21C205.892 184.63 207.282 186.67 208.892 189.08C210.683 191.807 212.689 194.385 214.892 196.79C215.814 197.808 216.956 198.602 218.232 199.11C218.342 199.11 218.542 199.17 218.572 199.19H220.202H222.732C226.092 199.19 229.462 199.34 232.822 199.49C239.542 199.8 246.252 200.27 252.962 200.99C259.672 201.71 266.362 202.67 272.962 203.99C276.296 204.657 279.606 205.42 282.892 206.28C286.182 207.18 289.452 208.19 292.662 209.39L295.532 210.54L296.942 211.18L297.652 211.5L298.162 211.73L298.742 212.02L303.072 214.39L305.212 215.64L306.272 216.26L306.542 216.42H306.602H306.532H306.382L305.792 216.49L303.422 216.78C302.632 216.88 301.872 216.98 300.962 217.06L296.172 217.5C294.112 217.71 292.052 217.87 289.982 218.02C281.702 218.71 273.362 219.1 265.092 219.38C246.912 219.89 228.702 219.64 210.542 218.53C208.632 218.41 206.722 218.28 204.802 218.12H204.882C202.389 218.058 199.951 217.37 197.792 216.12C195.715 214.891 193.831 213.361 192.202 211.58C189.092 208.094 186.475 204.197 184.422 200C180.625 192.342 177.768 184.254 175.912 175.91C173.955 167.632 172.905 159.166 172.782 150.66C172.765 147.367 172.969 144.076 173.392 140.81C173.798 137.522 174.632 134.302 175.872 131.23C177.106 128.002 179.333 125.25 182.232 123.37C185.341 121.698 188.972 121.275 192.382 122.19C193.109 122.346 193.826 122.539 194.532 122.77C195.242 123 195.912 123.28 196.602 123.53C197.941 124.126 199.246 124.794 200.512 125.53C202.398 126.627 204.348 127.609 206.352 128.47C207.589 129.019 208.92 129.325 210.272 129.37C211.705 129.285 213.047 128.643 214.012 127.58C214.192 127.4 214.402 127.17 214.592 126.96C214.732 126.769 214.89 126.592 215.062 126.43C215.282 126.24 215.382 126.35 215.352 126.77C215.257 127.515 215.012 128.233 214.632 128.88C214.257 129.524 213.756 130.084 213.157 130.528C212.559 130.972 211.877 131.289 211.152 131.46C209.227 131.787 207.249 131.555 205.452 130.79C202.712 129.655 200.04 128.359 197.452 126.91C195.031 125.613 192.383 124.791 189.652 124.49C188.358 124.367 187.052 124.468 185.792 124.79C184.573 125.134 183.432 125.712 182.432 126.49C181.408 127.318 180.527 128.308 179.822 129.42C179.087 130.545 178.474 131.746 177.992 133C176.995 135.697 176.324 138.504 175.992 141.36C175.609 144.288 175.422 147.238 175.432 150.19C175.472 156.193 176.024 162.181 177.082 168.09C178.57 176.921 181.07 185.551 184.532 193.81C186.242 197.898 188.355 201.804 190.842 205.47C193.342 209.04 196.342 212.36 199.992 214.2L199.932 214.27Z" fill="#242021"/>
<path d="M338.901 370.27C337.281 374.55 317.441 382.97 317.441 382.97C312.941 374.88 281.631 281.14 281.631 281.14C252.631 275.21 194.961 280.91 182.631 261.54C179.851 257.16 179.041 243.75 179.051 229.24C194.991 232.97 215.051 227.76 231.451 219.24L236.801 235.88C261.581 242.45 293.931 249.41 298.951 252.21C311.321 259.11 336.961 364.9 338.901 370.27Z" fill="#242021"/>
<path d="M230.532 221.72V221.64L230.432 221.69L230.012 221.89C229.262 222.27 228.482 222.62 227.712 222.97C226.182 223.69 224.612 224.34 223.052 224.97C219.902 226.21 216.722 227.39 213.462 228.33C210.207 229.314 206.898 230.108 203.552 230.71C201.892 231.05 200.192 231.25 198.552 231.49C196.912 231.73 195.152 231.84 193.442 231.88C189.983 232.08 186.514 231.942 183.082 231.47L181.802 231.3L180.902 231.12L180.652 231.06C180.652 231.06 180.552 231.01 180.552 231.06V231.26V234.94C180.533 241.545 180.991 248.142 181.922 254.68C182.125 255.84 182.389 256.988 182.712 258.12L182.962 258.94C183.062 259.21 183.172 259.45 183.272 259.71C183.363 259.957 183.477 260.195 183.612 260.42C183.728 260.661 183.869 260.888 184.032 261.1C185.337 262.986 187.006 264.591 188.942 265.82C189.909 266.47 190.91 267.068 191.942 267.61C192.472 267.87 193.022 268.11 193.552 268.36C194.089 268.621 194.639 268.851 195.202 269.05L196.872 269.7L198.582 270.27C199.712 270.67 200.892 270.95 202.052 271.27C210.42 273.278 218.938 274.592 227.522 275.2C236.132 275.96 244.792 276.41 253.462 276.96C262.171 277.378 270.85 278.27 279.462 279.63L281.302 279.98L281.922 280.1C282.112 280.16 282.412 280.1 282.412 280.38L282.812 281.58L283.872 284.76L285.872 290.93L290.082 303.32C294.982 317.92 300.012 332.56 305.082 346.97C308.362 356.22 311.672 365.49 315.162 374.66C315.582 375.81 316.052 376.94 316.502 378.07L317.182 379.77C317.382 380.29 317.742 381 317.772 381.09C317.802 381.18 317.922 381.66 318.202 381.43L319.202 380.97L322.532 379.45C326.964 377.481 331.237 375.171 335.312 372.54C336.168 371.965 336.977 371.323 337.732 370.62C338.152 370.21 338.292 370.05 338.422 370.12C338.552 370.19 338.562 370.58 338.222 371.24C337.692 372.145 337.016 372.956 336.222 373.64C333.493 376.045 330.505 378.138 327.312 379.88C325.312 381 323.202 382.14 320.882 383.27C320.232 383.59 319.962 383.73 318.532 384.37L316.742 385.16L316.512 385.26H316.462V385.2V385.09L316.252 384.65L315.822 383.76C315.552 383.18 315.272 382.6 314.992 382.01C314.842 381.68 314.662 381.34 314.532 381.01C314.272 380.36 314.002 379.71 313.742 379.01C310.022 369.6 306.742 360.15 303.412 350.67C300.082 341.19 296.852 331.67 293.642 322.19L284.082 293.62L281.722 286.44L280.542 282.85L280.452 282.55C280.452 282.47 280.382 282.48 280.332 282.46L278.882 282.18C273.992 281.29 269.002 280.75 263.992 280.29C251.992 279.21 239.652 278.81 227.252 277.75C221.052 277.23 214.822 276.54 208.642 275.43C202.462 274.32 196.302 272.76 190.582 269.85C187.345 268.277 184.515 265.977 182.312 263.13C182.052 262.75 181.762 262.42 181.522 261.99C181.284 261.574 181.073 261.144 180.892 260.7C180.546 259.862 180.262 259 180.042 258.12C179.618 256.435 179.297 254.725 179.082 253C178.289 246.193 177.918 239.343 177.972 232.49V227.95C178.309 227.977 178.643 228.03 178.972 228.11L180.972 228.51L182.402 228.79L183.632 228.95C184.462 229.04 185.282 229.19 186.112 229.22C189.441 229.487 192.787 229.463 196.112 229.15C202.807 228.503 209.405 227.08 215.772 224.91C217.082 224.45 218.392 224.02 219.682 223.51L221.622 222.77L223.542 221.97C224.822 221.45 226.072 220.85 227.342 220.28C227.982 220 228.572 219.69 229.232 219.37L232.092 217.95C233.919 223.704 235.752 229.45 237.592 235.19L244.822 237.08L252.552 239.08C264.832 242.17 277.202 245.08 289.482 248.35C291.012 248.76 292.542 249.21 294.072 249.66C295.628 250.112 297.157 250.653 298.652 251.28C299.471 251.617 300.213 252.117 300.832 252.75C301.415 253.352 301.946 254.001 302.422 254.69C303.34 256.021 304.174 257.407 304.922 258.84C307.741 264.524 310.209 270.375 312.312 276.36C315.662 285.57 318.632 294.8 321.502 304.04C324.372 313.28 327.062 322.52 329.692 331.82L333.082 344C337.242 359.37 338.322 364.32 338.552 367.79C338.552 368.58 338.722 369.61 338.712 370.09C338.712 370.93 338.012 369.78 337.082 367.04C336.152 364.3 334.822 359.95 333.252 354.34C328.592 337.71 323.802 320.63 318.522 303.45C315.872 294.86 313.102 286.25 310.022 277.74C308.472 273.49 306.852 269.25 305.022 265.14C304.112 263.14 303.152 261.06 302.082 259.14C301.57 258.186 301.006 257.261 300.392 256.37C299.869 255.554 299.237 254.814 298.512 254.17C297.545 253.568 296.498 253.107 295.402 252.8C294.152 252.4 292.892 251.99 291.592 251.63C289.022 250.88 286.402 250.2 283.792 249.52C278.562 248.17 273.292 246.88 268.022 245.58L252.182 241.68L244.272 239.68L235.442 237.37C233.769 232.184 232.102 226.984 230.442 221.77L230.532 221.72Z" fill="#242021"/>
<path d="M180.402 229.09C180.482 214 183.582 197.51 179.962 182.67C179.742 181.75 177.122 182.42 177.352 183.37C180.942 198.09 177.872 214.42 177.792 229.37C177.792 230.47 180.402 229.94 180.402 229.06V229.09Z" fill="#242021"/>
<path d="M283.231 300.68L240.141 377.81L217.861 364.61L266.711 283.13L277.491 284.21L283.231 300.68Z" fill="#242021"/>
<path d="M281.79 300.92L244.08 368.36L238.66 378.06L241.46 377.31L231.61 371.47L224.96 367.53C223.76 366.81 220.48 365.61 219.7 364.41C219.12 363.5 219.44 364.89 219.51 363.94C219.51 363.37 220.51 362.34 220.76 361.86L225.68 353.64L258.77 298.44L268.1 282.89L265.73 283.75L273.44 284.52C276.15 284.79 276.03 284.09 276.63 286.38C277.91 291.38 280.05 296.22 281.74 301.06C281.98 301.77 284.85 300.91 284.63 300.29L278.9 283.83C278.84 283.64 278.54 283.62 278.39 283.6L267.6 282.52C267.166 282.478 266.728 282.533 266.318 282.682C265.908 282.831 265.536 283.069 265.23 283.38L222.5 354.73L216.43 364.85C216.408 364.894 216.402 364.945 216.415 364.994C216.428 365.042 216.458 365.083 216.5 365.11L238.77 378.32C239.261 378.468 239.783 378.476 240.277 378.344C240.772 378.211 241.22 377.943 241.57 377.57L279.24 310.13L284.66 300.43C284.89 300 282.21 300.17 281.79 300.92Z" fill="#242021"/>
<path d="M355.551 400.57C345.331 402.93 327.181 392.76 320.361 382.57C322.101 381.84 326.051 380.13 330.041 378.09C339.081 388.57 363.001 398.85 355.551 400.57Z" fill="#242021"/>
<path d="M330.572 380.64C329.492 379.54 329.842 379.71 329.572 379.75L326.702 381.08L323.702 382.38L322.382 382.94L322.032 383.06L322.162 383.26L322.442 383.65L322.512 383.74V383.79L322.602 383.9L322.992 384.34C323.532 384.93 323.992 385.56 324.592 386.11C326.533 388.177 328.666 390.056 330.962 391.72C333.241 393.435 335.667 394.944 338.212 396.23C340.441 397.394 342.788 398.319 345.212 398.99C348.249 399.849 351.414 400.167 354.562 399.93C355.562 399.86 355.562 400.4 354.782 401.06C353.494 402.036 351.874 402.467 350.272 402.26C346.789 401.901 343.386 400.986 340.192 399.55C337.034 398.175 334.036 396.458 331.252 394.43C327.775 392.048 324.59 389.266 321.762 386.14L321.142 385.42C321.032 385.29 320.952 385.2 320.822 385.03L320.402 384.46L318.752 382.18L322.132 380.77L324.392 379.77L326.632 378.77L327.742 378.25L329.022 377.63L329.752 377.27C329.872 377.27 330.002 377.11 330.102 377.13L330.372 377.43L331.372 378.54C331.845 379.04 332.325 379.53 332.812 380.01C333.812 380.95 334.812 381.86 335.912 382.73C339.194 385.356 342.612 387.806 346.152 390.07C348.882 391.86 351.662 393.44 354.352 395.34C354.96 395.757 355.545 396.207 356.102 396.69C356.593 397.11 357.02 397.598 357.372 398.14C357.558 398.412 357.677 398.724 357.719 399.051C357.76 399.378 357.724 399.71 357.612 400.02C357.52 400.224 357.382 400.403 357.208 400.544C357.035 400.685 356.83 400.783 356.612 400.83C356.381 400.866 356.145 400.835 355.932 400.74C355.759 400.676 355.597 400.585 355.452 400.47C355.272 400.28 355.452 400.05 355.762 399.76C355.833 399.694 355.897 399.62 355.952 399.54C355.978 399.516 355.996 399.485 356.002 399.45H356.072C356.032 399.445 355.992 399.445 355.952 399.45H355.892L355.702 399.19C355.29 398.724 354.831 398.302 354.332 397.93C353.792 397.52 353.212 397.11 352.612 396.71C351.422 395.9 350.182 395.11 348.922 394.3C346.402 392.7 343.822 391.06 341.282 389.3C337.407 386.757 333.778 383.858 330.442 380.64H330.572Z" fill="#242021"/>
<path d="M239.431 405.46C223.521 397.02 223.431 376.46 224.141 367.73L232.751 372.83C233.001 387.55 252.841 412.58 239.431 405.46Z" fill="#242021"/>
<path d="M231.911 377.1C231.791 376.49 231.701 375.87 231.621 375.25L231.531 374.31C231.531 374.02 231.531 373.56 231.531 373.64C231.542 373.626 231.549 373.608 231.549 373.59C231.549 373.572 231.542 373.554 231.531 373.54H231.451L231.071 373.31L229.551 372.37L226.501 370.51L225.741 370.04L225.551 369.91L225.381 369.79C225.381 369.79 225.221 369.64 225.231 369.79V370.09V370.73C225.231 371.58 225.231 372.44 225.171 373.29C225.112 376.299 225.29 379.309 225.701 382.29C226.09 385.271 226.831 388.195 227.911 391L228.261 391.93L228.691 392.83C228.981 393.42 229.261 394.03 229.581 394.61C230.235 395.754 230.974 396.847 231.791 397.88C233.9 400.501 236.444 402.741 239.311 404.5C240.161 405.11 239.811 405.5 238.751 405.5C237.085 405.412 235.498 404.767 234.241 403.67C231.373 401.274 229.025 398.317 227.341 394.98C225.689 391.684 224.569 388.147 224.021 384.5C223.281 380.121 222.976 375.679 223.111 371.24L223.161 370.33V369.68L223.211 368.94L223.321 367.48L223.381 366.75V366.38C223.381 366.38 223.381 366.21 223.381 366.25L223.541 366.35L227.861 368.94L230.931 370.82L232.471 371.76C232.863 371.975 233.241 372.216 233.601 372.48V373.18C233.601 373.41 233.601 373.68 233.601 373.79C233.851 376.667 234.47 379.5 235.441 382.22C236.909 386.419 238.625 390.526 240.581 394.52L242.821 399.17C243.628 400.732 244.297 402.362 244.821 404.04C244.956 404.482 245.033 404.939 245.051 405.4C245.106 406.004 244.935 406.606 244.571 407.09C244.232 407.409 243.812 407.628 243.357 407.723C242.902 407.818 242.429 407.786 241.991 407.63C241.548 407.514 241.124 407.336 240.731 407.1C240.275 406.872 239.92 406.484 239.731 406.01C239.649 405.842 239.588 405.664 239.551 405.48C239.551 405.23 239.831 405.15 240.341 405.23C240.851 405.31 241.631 405.55 242.431 405.69C242.513 405.711 242.599 405.711 242.681 405.69H242.831C242.87 405.667 242.902 405.633 242.923 405.592C242.944 405.551 242.954 405.506 242.951 405.46C242.934 405.309 242.907 405.158 242.871 405.01C242.796 404.672 242.703 404.338 242.591 404.01C242.121 402.65 241.471 401.24 240.821 399.82C239.481 396.98 238.061 394.08 236.731 391.11C234.619 386.667 232.999 382.006 231.901 377.21L231.911 377.1Z" fill="#242021"/>
<path d="M154.081 268C157.331 281.56 168.741 290.91 181.341 293.75C223.211 303.19 241.861 282.75 241.341 282.75C224.091 281.26 206.691 279.83 190.481 273.29C181.061 269.49 177.481 262.75 175.861 256.14C175.841 256.11 148.931 246.39 154.081 268Z" fill="#242021"/>
<path d="M152.662 268.4C158.272 289.66 179.052 296.47 198.902 297.24C212.372 297.76 226.772 295.18 237.972 287.24C239.082 286.46 242.702 284.33 242.792 282.66C242.902 280.52 235.682 281.14 234.432 281.03C227.662 280.41 220.882 279.69 214.182 278.54C202.702 276.54 186.692 273.98 180.182 263.07C178.972 261.07 178.412 256.53 176.622 255.12C175.782 254.45 173.832 254.27 172.852 254.03C168.132 252.88 162.622 252.03 157.982 253.95C151.842 256.44 151.432 262.63 152.682 268.4C152.972 269.72 155.882 268.97 155.582 267.62C154.312 261.77 154.982 255.9 161.882 255.08C165.673 254.703 169.5 255.182 173.082 256.48C173.442 256.62 174.242 256.65 174.532 256.93C175.312 257.66 173.932 256.43 174.662 257.6C176.372 260.36 176.792 263.6 178.872 266.37C183.952 273.03 192.432 275.65 200.172 277.78C209.856 280.279 219.734 281.952 229.702 282.78C231.962 283 235.772 284 238.022 283.54C238.772 283.38 240.202 281.98 239.752 282.82C239.119 283.612 238.354 284.288 237.492 284.82C228.882 291.66 217.382 294.53 206.602 295.07C185.832 296.07 161.532 290.28 155.542 267.59C155.212 266.3 152.312 267.07 152.662 268.4Z" fill="#242021"/>
<path d="M174.082 222.23C172.512 231.71 161.292 250 153.882 242.65C148.402 237.21 142.082 146.14 150.772 130.4C158.872 115.76 169.482 133.15 169.482 133.15C168.802 144.51 169.562 168.45 172.822 185.74C174.984 197.781 175.408 210.069 174.082 222.23Z" fill="#242021"/>
<path d="M172.671 222.47C171.781 227.06 161.671 250.22 155.131 242.01C153.001 239.35 152.771 234.35 152.251 231.14C149.711 215.76 148.781 200.03 148.251 184.46C147.691 169.09 147.031 152.95 149.901 137.76C150.247 135.543 150.844 133.372 151.681 131.29C152.301 129.646 153.274 128.157 154.531 126.93C157.941 124.05 160.771 125.71 163.531 128.13C164.911 129.34 167.531 131.64 168.041 133.48C168.441 134.93 167.911 137.26 167.881 138.78C167.821 141.78 167.881 144.87 167.881 147.9C168.171 162.1 169.881 175.9 172.041 189.9C173.767 200.664 173.986 211.616 172.691 222.44C172.581 223.26 175.461 222.73 175.561 221.97C176.834 211.374 176.673 200.654 175.081 190.1C172.961 175.27 170.991 160.74 170.761 145.72C170.701 141.83 172.011 135.67 170.561 132.16C169.441 129.43 165.961 126.45 163.461 125.1C157.081 121.66 150.921 126.38 148.561 132.41C146.201 138.44 145.881 145.5 145.481 151.88C144.871 161.69 144.921 171.54 145.191 181.36C145.701 199.36 146.471 217.8 149.991 235.47C150.941 240.28 152.041 245.83 158.351 244.86C167.751 243.42 173.961 230.16 175.541 222C175.691 221.22 172.821 221.69 172.671 222.47Z" fill="#242021"/>
<path d="M590.64 267.46C581.38 291.34 524.77 277.05 525.36 277C544.36 275.53 565.28 267.75 568.36 255.77C568.35 255.77 598.2 247.94 590.64 267.46Z" fill="#242021"/>
<path d="M589.201 267.68C583.541 281.28 564.621 281.15 552.291 280.38C546.406 279.987 540.55 279.253 534.751 278.18C532.811 277.83 530.861 277.44 528.941 277C528.141 276.81 526.771 276.28 526.811 276.61L524.761 277.69C534.671 276.83 544.611 274.78 553.701 270.62C557.669 268.907 561.336 266.568 564.561 263.69C565.917 262.443 567.101 261.021 568.081 259.46C568.411 258.93 569.671 255.17 568.621 256.31C569.241 255.64 572.111 255.59 572.961 255.46C575.75 254.978 578.585 254.813 581.411 254.97C589.191 255.56 591.811 260.46 589.201 267.68C588.941 268.4 591.771 268.07 592.071 267.23C594.071 261.82 593.731 256.41 587.621 254.41C582.801 252.82 577.171 253.49 572.271 254.35C570.906 254.459 569.562 254.745 568.271 255.2C565.861 256.41 565.411 260.02 563.541 262.2C554.761 272.2 538.541 275.28 526.001 276.36C525.501 276.36 523.861 276.65 523.951 277.43C523.971 277.491 524.006 277.544 524.054 277.587C524.101 277.629 524.159 277.658 524.221 277.67C527.321 278.91 531.111 279.26 534.371 279.82C541.73 281.143 549.184 281.872 556.661 282C569.021 282.14 586.591 280.47 592.071 267.27C592.361 266.56 589.541 266.85 589.201 267.68Z" fill="#242021"/>
<path d="M572.73 247.21C608.43 238.52 628.85 166.62 622.57 149.96C617.57 136.62 601.12 149.76 601.12 149.77C599.72 162.96 593.68 176.29 585.93 190.98C585.93 191 578.63 236.05 572.73 247.21Z" fill="#242021"/>
<path d="M572.951 248C589.311 243.76 600.621 229.14 608.381 215C616.751 199.72 622.861 182.27 624.741 164.9C625.311 159.67 625.911 153.31 623.521 148.41C620.011 141.24 611.931 142.66 605.991 145.64C604.241 146.52 601.331 147.73 600.121 149.34C599.071 150.73 599.291 152.97 598.961 154.69C598.286 158.223 597.367 161.704 596.211 165.11C593.401 173.094 589.967 180.845 585.941 188.29C584.969 189.974 584.324 191.827 584.041 193.75C582.551 202.56 580.911 211.35 579.041 220.08C577.141 229.02 575.541 238.93 571.361 247.15C570.701 248.45 573.601 248.22 574.081 247.29C577.021 241.5 578.461 234.88 579.961 228.6C581.881 220.6 583.491 212.46 584.961 204.34C585.771 199.99 586.061 195.19 587.311 190.94C588.081 188.35 590.031 185.7 591.241 183.26C592.741 180.21 594.241 177.13 595.531 174.01C598.116 168.204 600.126 162.158 601.531 155.96C601.821 154.58 601.811 150.83 602.421 149.96C603.168 149.245 604.03 148.66 604.971 148.23C608.441 146.09 613.561 143.45 617.551 145.74C622.851 148.74 622.421 157.23 622.061 162.39C620.981 177.8 615.981 193.32 609.481 207.24C602.091 223.07 590.561 241.73 572.481 246.41C570.761 246.86 571.181 248.47 572.951 248Z" fill="#242021"/>
<path d="M160.992 238.67L164.572 256.47" stroke="#242021" stroke-width="3" stroke-miterlimit="10"/>
<path d="M192.082 353C191.992 348.58 191.912 344.15 191.812 339.73C191.812 338.12 191.652 336.51 191.622 334.9C191.512 329.21 191.462 323.53 191.342 317.84C191.282 315.32 191.142 312.79 190.992 310.29C190.68 307.084 190.553 303.862 190.612 300.64C190.722 298.64 193.662 301.05 193.852 304.75C194.182 311.31 194.342 317.87 194.222 324.5C194.152 328.5 194.452 332.58 194.572 336.63C194.692 341.08 194.792 345.53 194.902 349.98C194.972 352.73 195.032 355.47 195.122 358.21C195.252 362.35 195.342 366.52 195.552 370.64C195.722 373.84 196.062 376.96 196.332 380.12C196.392 380.82 196.472 381.5 196.522 382.2C196.682 384.8 196.522 385.64 195.762 386.2C195.599 386.344 195.425 386.474 195.242 386.59C194.642 386.87 194.102 385.83 193.842 383.93C193.072 378.3 192.742 372.34 192.472 366.35C192.282 361.9 192.162 357.43 192.012 352.97L192.082 353Z" fill="#242021"/>
<path d="M200.36 376C199.474 375.06 198.335 374.397 197.08 374.09C196.499 374.008 195.907 374.06 195.349 374.242C194.791 374.424 194.282 374.731 193.86 375.14C193.095 375.845 192.423 376.645 191.86 377.52C189.762 380.894 188.165 384.556 187.12 388.39C186.614 390.112 186.206 391.861 185.9 393.63C185.49 395.89 185.28 398.18 184.67 400.4C184.3 401.8 181.97 399.64 182.4 396.94C183.142 392.149 184.469 387.468 186.35 383C187.53 380.33 188.59 377.43 190.53 374.92C191.611 373.414 193.125 372.273 194.87 371.65C195.82 371.373 196.823 371.335 197.79 371.54C198.691 371.749 199.547 372.114 200.32 372.62C201.214 373.186 202.037 373.858 202.77 374.62C203.486 375.357 204.154 376.139 204.77 376.96C206.541 379.424 208.128 382.014 209.52 384.71C210.63 386.71 211.77 388.71 212.82 390.77C213.05 391.22 213.3 391.66 213.51 392.12C214.31 393.83 214.36 394.46 213.86 395.12C213.761 395.274 213.647 395.417 213.52 395.55C213.08 395.92 212.36 395.39 211.69 394.2C209.69 390.68 207.81 386.87 205.69 383.25C204.25 380.593 202.443 378.152 200.32 376H200.36Z" fill="#242021"/>
<path d="M185.082 405.14C185.832 410.44 178.272 411.66 177.942 406.14C177.822 404.14 178.432 401.94 180.462 401.66C180.994 401.584 181.536 401.614 182.057 401.748C182.577 401.881 183.066 402.117 183.495 402.44C183.925 402.764 184.286 403.169 184.558 403.632C184.83 404.095 185.009 404.608 185.082 405.14Z" fill="#242021"/>
<path d="M218.082 401.08C218.832 406.38 211.272 407.6 210.952 402.08C210.832 400.08 211.442 397.88 213.472 397.59C214.546 397.442 215.635 397.726 216.499 398.381C217.364 399.035 217.933 400.006 218.082 401.08Z" fill="#242021"/>
<path d="M535.731 395.38C534.991 400.69 542.541 401.9 542.871 396.38C542.991 394.38 542.381 392.18 540.351 391.9C539.819 391.824 539.277 391.854 538.756 391.987C538.236 392.121 537.747 392.357 537.317 392.68C536.888 393.003 536.527 393.408 536.255 393.872C535.982 394.335 535.804 394.848 535.731 395.38Z" fill="#242021"/>
<path d="M491.172 391.07C490.432 396.38 497.992 397.59 498.312 392.07C498.432 390.07 497.822 387.87 495.792 387.59C495.26 387.514 494.718 387.544 494.198 387.677C493.677 387.811 493.188 388.047 492.759 388.37C492.33 388.693 491.968 389.098 491.696 389.562C491.424 390.025 491.246 390.538 491.172 391.07Z" fill="#242021"/>
<path d="M229.632 231.1H354.962L355.652 218.11H229.342L229.632 231.1Z" fill="#242021"/>
<path d="M324.301 216.44L357.191 216.64L356.461 229.23L356.281 232.49H341.441L286.921 232.08C278.861 232.03 270.751 232.08 262.751 232.08C252.471 232.14 242.151 232.33 231.881 232.08C225.471 231.9 233.601 229.32 245.441 229.3C266.441 229.3 287.441 229.36 308.581 229.73C321.241 229.95 334.411 229.84 347.361 229.89H353.831L354.461 219.22L333.541 219.1L307.251 219C293.981 218.95 280.641 218.87 267.471 218.91C257.231 218.91 247.191 219.12 237.071 219.24L230.951 219.33H230.591C230.591 220.72 230.591 221.87 230.591 222.84C230.591 224.15 230.591 225.22 230.531 226.11C230.52 227.364 230.314 228.609 229.921 229.8C229.801 230.209 229.647 230.607 229.461 230.99C228.931 231.8 228.401 228.41 228.101 222.32C228.101 221.64 228.041 220.96 228.001 220.26C228.001 219.11 227.921 217.93 227.881 216.73L242.031 216.49L255.031 216.36L281.461 216.28L324.241 216.37L324.301 216.44Z" fill="#242021"/>
<path d="M341.783 325.14C341.883 317.6 341.983 310.063 342.083 302.53C342.083 299.78 342.083 297.03 342.083 294.28C342.223 284.59 342.413 274.9 342.533 265.21C342.583 260.91 342.533 256.58 342.533 252.32C342.463 246.84 342.253 241.32 342.533 235.85C342.723 232.44 345.532 236.77 345.592 243.09C345.592 254.28 345.513 265.47 345.113 276.76C344.863 283.51 344.993 290.53 344.933 297.44C344.866 305.027 344.786 312.62 344.693 320.22C344.639 324.887 344.593 329.553 344.553 334.22C344.553 341.29 344.423 348.4 344.463 355.42C344.463 360.89 344.693 366.24 344.823 371.64C344.823 372.82 344.913 373.99 344.923 375.19C344.973 379.63 344.773 381.04 343.993 382C343.833 382.227 343.652 382.438 343.452 382.63C342.852 383.05 342.353 381.24 342.173 377.99C341.643 368.34 341.572 358.16 341.562 347.99C341.562 340.4 341.633 332.78 341.673 325.17L341.783 325.14Z" fill="#242021"/>
<path d="M302.341 219.3H317.341H332.851C333.001 219.3 333.221 219.36 333.191 219.14L333.381 218.22L333.761 216.38L340.011 186.21L352.151 127.48C352.471 126.14 346.891 124.87 346.651 126.23L334.481 185.08L328.561 213.69H302.341C301.251 213.64 301.251 219.32 302.341 219.3Z" fill="#232020"/>
<path d="M543.081 107C540.787 104.587 538.971 101.76 537.731 98.6701L537.041 97.0301C536.831 96.4801 536.621 95.9201 536.441 95.3701C535.272 91.4288 534.446 87.3938 533.971 83.3101C533.731 81.5201 533.481 79.7301 533.241 77.9501C532.852 75.6868 532.641 73.3964 532.611 71.1001C532.611 69.6701 535.111 71.2701 535.371 73.8701C535.851 78.4901 536.291 83.0601 536.921 87.6601C537.365 90.4381 538.096 93.1627 539.101 95.7901C540.095 98.6706 541.547 101.372 543.401 103.79C544.566 105.239 545.961 106.486 547.531 107.48C548.727 108.224 550.014 108.809 551.361 109.22C552.727 109.603 554.134 109.817 555.551 109.86C557.741 109.873 559.92 109.567 562.021 108.95C562.481 108.82 562.931 108.68 563.401 108.56C565.131 108.05 565.711 108.01 566.291 108.56C566.432 108.66 566.563 108.774 566.681 108.9C567.011 109.32 566.401 109.9 565.111 110.46C561.004 112.172 556.489 112.658 552.111 111.86L550.851 111.58C550.431 111.46 550.021 111.31 549.611 111.17C548.793 110.892 547.994 110.558 547.221 110.17C545.696 109.332 544.293 108.289 543.051 107.07L543.081 107Z" fill="#242021"/>
<path d="M560.002 110.94C562.122 114.27 564.002 118.1 563.662 122.15C563.562 123.31 566.062 122.9 566.142 121.91C566.512 117.55 564.562 113.5 562.272 109.91C561.742 109.08 559.372 109.91 560.002 110.91V110.94Z" fill="#242021"/>
<path d="M563.081 22.2599C496.781 23.9399 515.391 76.6799 531.081 72.6999C542.301 69.8699 553.941 36.5199 576.901 67.5899C576.901 67.5899 582.731 59.8199 586.801 68.0899C590.871 76.3599 582.361 80.8599 579.261 80.9899C578.661 80.9899 561.101 136.55 607.551 126.38C619.651 123.73 630.421 106.45 610.971 83.0199C610.971 83.0199 604.021 76.1799 603.971 61.0199C603.921 45.8599 596.311 22.1899 563.081 22.2599Z" fill="#242021"/>
<path d="M596.781 129.45C594.141 129.439 591.515 129.059 588.981 128.32C586.372 127.569 583.954 126.273 581.885 124.516C579.816 122.759 578.144 120.582 576.981 118.13C575.843 115.753 575.041 113.229 574.601 110.63C573.795 105.583 573.738 100.444 574.431 95.38C574.732 92.8734 575.159 90.3836 575.711 87.92C575.981 86.69 576.281 85.47 576.611 84.25C576.777 83.6434 576.957 83.0334 577.151 82.42L577.501 81.42C577.591 81.17 577.681 80.91 577.791 80.67L577.971 80.32L578.271 80.1L578.411 80.01H578.481L578.381 79.89L578.701 79.78C578.915 79.6936 579.136 79.6234 579.361 79.57C579.546 79.546 579.729 79.5126 579.911 79.47L580.161 79.41L580.681 79.24C581.031 79.13 581.371 78.95 581.681 78.81C582.354 78.4696 582.991 78.0608 583.581 77.59C584.776 76.6912 585.652 75.4331 586.081 74C586.456 72.638 586.39 71.1918 585.891 69.87C585.447 68.5047 584.667 67.2734 583.621 66.29C583.258 65.9899 582.812 65.8064 582.343 65.7636C581.874 65.7207 581.402 65.8206 580.991 66.05C580.446 66.3153 579.938 66.6515 579.481 67.05C579.278 67.223 579.084 67.4066 578.901 67.6C578.657 67.8266 578.43 68.0706 578.221 68.33L576.941 70L576.811 69.89L576.671 69.71L576.391 69.34L575.841 68.62L574.731 67.19L573.941 66.19C573.738 65.9122 573.521 65.6452 573.291 65.39C572.411 64.39 571.521 63.31 570.561 62.39C568.727 60.4484 566.61 58.7962 564.281 57.49C562.044 56.2507 559.487 55.7108 556.941 55.94C554.361 56.345 551.921 57.3749 549.831 58.94C545.381 62.01 541.831 66.38 537.521 70.2C536.423 71.1957 535.227 72.0769 533.951 72.83C532.575 73.6575 531.006 74.106 529.401 74.13C527.807 74.101 526.245 73.6711 524.861 72.88C523.539 72.1257 522.344 71.1673 521.321 70.04C513.371 61.04 513.071 46.77 520.191 37.39C522.441 34.4038 525.204 31.8407 528.351 29.82C531.473 27.8209 534.832 26.2185 538.351 25.05C545.304 22.7818 552.558 21.565 559.871 21.44C564.401 21.36 563.781 22.15 560.041 23.02C556.301 23.89 549.481 25.12 541.791 27.34C535.011 29.34 528.501 32.55 523.981 37.68C521.74 40.178 520.068 43.1327 519.081 46.34C518.127 49.6073 517.882 53.0404 518.361 56.41C518.821 59.7861 520.02 63.0193 521.871 65.88C522.763 67.249 523.875 68.4619 525.161 69.47C526.316 70.4184 527.732 70.9938 529.221 71.12C531.921 71.32 534.781 68.87 537.361 66.43C539.941 63.99 542.531 61.19 545.471 58.74C547.894 56.5604 550.711 54.8634 553.771 53.74C555.382 53.2091 557.075 52.9654 558.771 53.02C560.484 53.0963 562.174 53.4544 563.771 54.08C566.794 55.3894 569.542 57.259 571.871 59.59L573.571 61.31C574.121 61.89 574.571 62.51 575.151 63.11L575.941 64.02L576.621 64.89C576.781 65.07 576.931 65.37 577.081 65.43L577.311 65.17L577.441 65.05L577.501 64.99L577.621 64.89C578.253 64.3518 578.948 63.8918 579.691 63.52C580.527 63.1077 581.449 62.8987 582.381 62.91C582.871 62.9184 583.357 63.0028 583.821 63.16C584.271 63.3253 584.704 63.5364 585.111 63.79C586.428 64.8206 587.46 66.1697 588.111 67.71C588.809 69.1836 589.184 70.7895 589.211 72.42C589.171 73.6375 588.89 74.8349 588.386 75.9436C587.881 77.0522 587.162 78.0502 586.271 78.88C585.001 80.0796 583.515 81.0265 581.891 81.67L581.081 82C580.937 82.0472 580.79 82.084 580.641 82.11H580.441C580.358 82.1045 580.274 82.1045 580.191 82.11C580.144 82.1848 580.107 82.2655 580.081 82.35C580.081 82.35 579.851 83 579.731 83.42C579.451 84.34 579.191 85.27 578.951 86.2C578.481 88.08 578.071 89.97 577.741 91.88C577.054 95.6812 576.72 99.5375 576.741 103.4C576.711 107.212 577.323 111.001 578.551 114.61C579.172 116.364 580.041 118.021 581.131 119.53C582.235 121.018 583.588 122.304 585.131 123.33C587.584 124.898 590.36 125.892 593.251 126.24C596.206 126.615 599.196 126.615 602.151 126.24C603.641 126.08 605.151 125.82 606.601 125.52C607.319 125.383 608.027 125.199 608.721 124.97C609.413 124.78 610.083 124.519 610.721 124.19C613.341 122.933 615.599 121.03 617.281 118.66C619.825 114.988 621.032 110.555 620.701 106.1C620.561 104.99 620.491 103.87 620.291 102.77L619.481 99.49L618.301 96.3C617.891 95.3 617.301 94.3 616.821 93.24C616.561 92.73 616.341 92.24 616.041 91.72L615.131 90.27C614.511 89.32 613.961 88.32 613.271 87.41L611.191 84.68C610.841 84.24 610.501 83.73 610.191 83.36C609.785 82.9032 609.408 82.4223 609.061 81.92C606.403 77.9684 604.629 73.4898 603.861 68.79C603.731 67.89 603.571 66.98 603.471 66.08C603.371 65.18 603.281 64.27 603.241 63.36L603.151 60.66C603.151 59.79 603.091 58.92 603.031 58.05C602.77 54.5894 602.098 51.1721 601.031 47.87C599.021 41.2865 595.029 35.4828 589.601 31.25C587.209 29.4554 584.589 27.9859 581.811 26.88C579.613 25.9917 577.345 25.286 575.031 24.77C573.111 24.33 571.541 24.05 570.241 23.84C568.941 23.63 567.901 23.45 567.041 23.26C566.181 23.07 565.501 22.89 564.881 22.69C564.324 22.5317 563.776 22.3414 563.241 22.12C562.681 21.8 563.591 21.55 565.741 21.37C569.052 21.1982 572.371 21.4435 575.621 22.1C582.236 23.29 588.409 26.24 593.491 30.64C598.577 35.3203 602.247 41.3355 604.081 48C605.044 51.3114 605.641 54.7185 605.861 58.16C605.921 59.02 605.951 59.89 605.961 60.75L606.041 63.16C606.125 64.7448 606.295 66.3238 606.551 67.89C607.054 71.0048 607.99 74.034 609.331 76.89C609.996 78.2691 610.797 79.5788 611.721 80.8C611.944 81.0943 612.184 81.3748 612.441 81.64C612.532 81.7402 612.616 81.8472 612.691 81.96L612.891 82.22L613.281 82.73L614.861 84.79C618.034 88.9219 620.507 93.5467 622.181 98.48C622.551 99.74 622.831 101.05 623.181 102.33C623.531 103.61 623.511 104.99 623.661 106.33V108.33C623.672 109 623.625 109.669 623.521 110.33C623.365 111.688 623.077 113.028 622.661 114.33C621.877 116.982 620.559 119.446 618.788 121.57C617.017 123.694 614.829 125.433 612.361 126.68C611.731 126.97 611.101 127.27 610.461 127.53L608.461 128.12C607.151 128.45 605.931 128.67 604.641 128.87C602.073 129.298 599.474 129.506 596.871 129.49L596.781 129.45Z" fill="#242021"/>
<path d="M589.881 166.38C591.314 162.648 592.549 158.842 593.581 154.98C594.638 151.181 595.246 147.271 595.391 143.33C595.513 140.637 594.86 137.965 593.511 135.63C592.874 134.724 592.032 133.98 591.054 133.459C590.076 132.938 588.989 132.654 587.881 132.63C587.286 132.58 586.687 132.58 586.091 132.63C585.503 132.629 584.917 132.689 584.341 132.81C583.165 133.056 582.026 133.453 580.951 133.99C578.712 135.159 576.612 136.578 574.691 138.22C572.691 139.85 570.751 141.59 568.691 143.22C566.856 144.785 564.842 146.128 562.691 147.22C561.558 147.767 560.347 148.135 559.101 148.31C558.437 148.389 557.766 148.389 557.101 148.31C556.364 148.246 555.655 147.995 555.041 147.58C554.234 147.014 553.664 146.17 553.441 145.21C553.237 144.38 553.173 143.521 553.251 142.67C553.4 141.109 553.735 139.571 554.251 138.09C555.224 135.233 556.512 132.493 558.091 129.92C559.091 128.32 559.551 128.92 559.381 130.58C559.007 133.146 558.336 135.659 557.381 138.07C556.885 139.367 556.507 140.705 556.251 142.07C555.979 143.065 556.053 144.123 556.461 145.07C556.555 145.191 556.673 145.292 556.807 145.366C556.941 145.44 557.089 145.486 557.241 145.5C557.358 145.512 557.475 145.512 557.591 145.5H557.991C558.289 145.496 558.587 145.473 558.881 145.43C560.158 145.237 561.387 144.803 562.501 144.15C564.994 142.665 567.338 140.944 569.501 139.01C571.824 136.969 574.272 135.075 576.831 133.34C578.457 132.257 580.21 131.381 582.051 130.73C583.026 130.407 584.031 130.185 585.051 130.07C585.561 130.01 586.051 130.07 586.551 130C587.057 129.955 587.566 129.955 588.071 130C590.209 130.077 592.264 130.841 593.931 132.18C595.532 133.573 596.676 135.417 597.211 137.47C597.778 139.564 598.014 141.733 597.911 143.9L597.851 145.48C597.851 146.01 597.751 146.53 597.691 147.05C597.601 148.1 597.421 149.13 597.251 150.16C596.498 154.232 595.445 158.243 594.101 162.16C592.491 166.97 590.601 171.67 588.571 176.29C585.501 183.29 582.001 190.14 578.441 196.84C575.681 202.04 572.991 207.16 570.091 212.21C569.461 213.33 568.841 214.42 568.181 215.54C565.721 219.66 564.721 220.84 563.591 221.33C563.348 221.466 563.09 221.573 562.821 221.65C562.111 221.74 562.761 219.85 564.471 216.8C569.521 207.74 574.901 198.26 579.831 188.49C583.557 181.266 586.896 173.849 589.831 166.27L589.881 166.38Z" fill="#242021"/>
<path d="M554.752 187.79C555.812 185.79 556.892 183.71 557.942 181.67C558.322 180.92 558.652 180.15 559.042 179.41C560.412 176.79 561.832 174.19 563.192 171.57C563.802 170.4 564.342 169.2 564.872 168.01C565.462 166.439 566.195 164.926 567.062 163.49C567.652 162.62 569.182 164.81 568.372 166.56C566.942 169.676 565.346 172.714 563.592 175.66C562.522 177.43 561.692 179.41 560.742 181.29C559.742 183.35 558.632 185.41 557.572 187.47C556.922 188.74 556.272 190.01 555.632 191.28C554.632 193.21 553.632 195.14 552.772 197.08C552.082 198.6 551.522 200.14 550.912 201.67C550.782 202.01 550.672 202.35 550.522 202.67C549.972 203.91 549.642 204.23 548.942 204.22C548.782 204.23 548.622 204.23 548.462 204.22C547.952 204.12 547.822 203.44 548.122 202.49C549.085 199.58 550.255 196.743 551.622 194C552.622 191.92 553.622 189.84 554.692 187.76L554.752 187.79Z" fill="#242021"/>
<path d="M500.952 210.4C502.952 210.02 504.892 209.71 506.872 209.35L509.822 208.84L512.822 208.39C514.262 208.17 515.702 207.87 517.142 207.66C522.272 207.05 527.392 206.49 532.562 206.28C533.702 206.2 534.852 206.18 536.002 206.12C537.152 206.06 538.302 206.02 539.442 206.01C542.372 206.01 545.372 205.87 548.342 206.86C548.802 207.03 548.992 207.32 548.872 207.56C548.64 207.868 548.334 208.112 547.982 208.27C546.773 208.865 545.424 209.117 544.082 209C538.27 208.718 532.447 208.775 526.642 209.17C525.752 209.17 524.862 209.28 523.962 209.36C523.062 209.44 522.162 209.58 521.262 209.7C519.462 209.96 517.642 210.2 515.852 210.5L509.922 211.43L504.082 212.5C501.652 212.91 499.242 213.45 496.822 213.94C493.162 214.67 489.502 215.54 485.912 216.44C483.112 217.13 480.432 218.07 477.702 218.91C477.102 219.1 476.522 219.3 475.912 219.48C473.662 220.13 472.912 220.14 472.222 219.59C472.056 219.476 471.902 219.345 471.762 219.2C471.402 218.73 472.212 218.05 473.832 217.45C476.242 216.56 478.742 215.75 481.302 214.99C483.862 214.23 486.502 213.6 489.132 212.99C493.032 211.99 497.012 211.24 500.962 210.38L500.952 210.4Z" fill="#242021"/>
<path d="M534.892 173.57C536.442 169.86 538.122 166.22 539.842 162.57C540.482 161.26 541.052 159.91 541.702 158.57C544.062 153.99 546.539 149.477 549.132 145.03C550.272 143.03 551.392 141.03 552.502 139.08C553.836 136.481 555.381 133.996 557.122 131.65C558.272 130.24 559.122 133.56 557.422 136.36L548.332 151.52C547.402 153.04 546.552 154.64 545.752 156.28C544.952 157.92 544.142 159.55 543.362 161.2C542.582 162.85 541.602 164.78 540.792 166.61C539.982 168.44 539.102 170.23 538.352 172.08C537.402 174.35 536.402 176.6 535.572 178.91C534.932 180.66 534.202 182.38 533.632 184.16C533.062 185.94 532.452 187.69 531.902 189.45C531.522 190.84 531.202 192.23 530.902 193.61C530.602 194.99 530.242 196.36 530.012 197.76C529.892 198.37 529.812 198.98 529.682 199.59C529.202 201.87 528.862 202.59 528.052 202.9C527.877 202.994 527.692 203.071 527.502 203.13C526.912 203.24 526.682 202.21 526.912 200.48C527.082 199.21 527.282 197.91 527.502 196.61C527.722 195.31 528.072 194.02 528.382 192.71C528.692 191.4 529.042 190.09 529.382 188.78L530.612 184.89L531.612 182L532.672 179.15C533.382 177.25 534.082 175.35 534.882 173.48L534.892 173.57Z" fill="#242021"/>
<path d="M503.361 193.28C507.397 192.607 511.375 191.628 515.261 190.35C521.488 187.943 526.901 183.816 530.871 178.45C532.277 176.572 533.569 174.612 534.741 172.58C536.261 169.99 537.591 167.28 539.241 164.76C540.241 163.17 541.481 166.5 539.761 169.61C538.241 172.34 536.601 175.01 534.811 177.61C532.989 180.252 530.883 182.686 528.531 184.87C527.091 186.202 525.579 187.454 524.001 188.62C522.385 189.767 520.672 190.771 518.881 191.62C514.943 193.308 510.822 194.533 506.601 195.27C504.071 195.8 501.601 196.27 499.081 196.92C495.334 197.798 491.705 199.121 488.271 200.86C485.688 202.26 483.264 203.937 481.041 205.86C480.531 206.25 480.091 206.71 479.591 207.12C477.761 208.67 477.131 209.12 476.241 208.92C476.041 208.895 475.844 208.852 475.651 208.79C475.091 208.55 475.531 207.54 476.791 206.2C478.76 204.192 480.928 202.39 483.261 200.82C485.687 199.214 488.266 197.854 490.961 196.76C494.975 195.215 499.118 194.03 503.341 193.22L503.361 193.28Z" fill="#242021"/>
<path d="M495.51 207.1C492.51 211.57 488.96 217.1 491.26 222.64C491.64 223.55 494.35 222.71 494.01 221.9C491.81 216.63 495.19 211.4 498.06 207.12C498.73 206.12 495.99 206.38 495.51 207.12V207.1Z" fill="#242021"/>
<path d="M491.131 195.05C494.441 199.13 501.191 205.62 507.081 204.68C508.341 204.48 509.401 202.97 507.491 203.28C505.061 203.67 501.841 201.23 500.021 199.93C497.658 198.246 495.532 196.251 493.701 194C493.151 193.32 490.501 194.27 491.131 195.05Z" fill="#242021"/>
<path d="M577.442 213.22C574.022 231.64 568.042 253.73 558.272 262.04C542.362 275.6 482.672 277.68 474.332 276.64L530.212 377.25C522.842 380.9 511.542 383.5 511.542 383.5C488.602 350.01 432.542 269.65 454.402 256.18C468.732 247.33 495.012 240.99 520.172 236.42L525.082 225C537.642 223.65 563.992 233.44 577.442 213.22Z" fill="#242021"/>
<path d="M476.421 326.85C483.661 339.03 491.361 350.94 499.241 362.74C503.181 368.64 507.157 374.52 511.171 380.38L512.171 381.84C512.241 381.84 512.351 381.84 512.431 381.84L513.661 381.53C515.361 381.09 517.051 380.617 518.731 380.11C520.411 379.61 522.081 379.06 523.731 378.48C524.541 378.18 525.361 377.88 526.171 377.55C526.571 377.4 526.981 377.23 527.371 377.06L528.021 376.78L528.231 376.68H528.281V376.63L528.221 376.53L527.741 375.65L525.851 372.25L522.081 365.4L514.551 351.81C500.551 326.337 486.551 300.87 472.551 275.41C474.131 275.56 475.951 275.75 477.311 275.78C478.131 275.78 478.521 275.78 479.041 275.78H480.551C482.551 275.78 484.551 275.78 486.551 275.71C490.551 275.603 494.581 275.417 498.641 275.15C506.701 274.61 514.771 273.8 522.751 272.56C530.669 271.451 538.475 269.654 546.081 267.19C548.487 266.371 550.828 265.368 553.081 264.19C555.316 263.087 557.345 261.609 559.081 259.82C559.521 259.39 559.891 258.88 560.301 258.41L560.901 257.7L561.441 256.93L562.521 255.39L563.521 253.76C564.201 252.7 564.721 251.53 565.331 250.42C565.941 249.31 566.421 248.12 566.931 246.95C570.931 237.52 573.461 227.49 575.681 217.46C577.001 211.19 577.511 212.14 577.121 217.63C576.799 221.405 576.258 225.158 575.501 228.87C574.452 234.209 572.967 239.453 571.061 244.55C569.452 248.897 567.405 253.068 564.951 257C563.669 259.008 562.163 260.863 560.461 262.53C559.592 263.381 558.655 264.16 557.661 264.86C556.673 265.519 555.652 266.127 554.601 266.68C550.485 268.77 546.152 270.403 541.681 271.55C537.291 272.77 532.851 273.71 528.391 274.5C519.481 276.06 510.501 277.05 501.501 277.72C496.991 278.04 492.501 278.28 487.961 278.41C485.701 278.483 483.434 278.513 481.161 278.5H479.451H477.851H477.321H477.041C477.082 278.614 477.132 278.724 477.191 278.83L477.361 279.14L477.931 280.2C478.701 281.6 479.461 283.01 480.231 284.42L484.851 292.89C497.011 315.23 509.971 338.32 522.561 361.1L527.751 370.49L530.371 375.24L531.441 377.17L531.701 377.66L531.831 377.9C531.831 377.9 531.831 377.9 531.831 377.95H531.761L531.641 378.01L530.641 378.48L529.641 378.95L529.141 379.18L528.711 379.36C528.291 379.54 527.871 379.73 527.451 379.9C524.085 381.23 520.65 382.378 517.161 383.34L514.541 384.05L513.231 384.39L511.231 384.86C511.151 384.86 511.041 384.93 510.981 384.86L510.821 384.64L510.521 384.2L509.901 383.3L509.121 382.15L507.611 379.94C499.591 368 491.591 356.13 483.911 344C479.191 336.55 474.581 329 470.191 321.37C465.801 313.74 461.601 306 457.861 298C454.957 291.937 452.527 285.658 450.591 279.22C449.623 275.959 448.989 272.609 448.701 269.22C448.564 267.497 448.608 265.764 448.831 264.05C449.063 262.289 449.637 260.591 450.521 259.05C451.458 257.503 452.777 256.222 454.351 255.33L456.551 254.07C457.281 253.66 458.041 253.3 458.791 252.91C460.281 252.11 461.841 251.48 463.361 250.77C464.881 250.06 466.451 249.46 468.021 248.9C474.281 246.53 480.661 244.59 487.071 242.9C492.571 241.43 498.071 240.12 503.561 238.9C506.301 238.28 509.051 237.72 511.791 237.16L519.491 235.64L521.991 229.78L523.341 226.62L524.171 224.68C524.271 224.49 524.311 224.22 524.471 224.11L525.081 224L526.341 223.9C531.071 223.7 535.611 224.31 540.141 224.64C544.525 225.048 548.935 225.121 553.331 224.86C556.738 224.639 560.101 223.967 563.331 222.86C565.494 222.097 567.564 221.091 569.501 219.86C570.77 219.018 571.992 218.107 573.161 217.13L575.551 215.13C576.191 214.61 576.921 213.81 577.341 213.52C577.761 213.23 577.731 213.44 577.471 214.01C577 215.007 576.416 215.946 575.731 216.81C575.192 217.528 574.615 218.216 574.001 218.87C573.225 219.667 572.4 220.415 571.531 221.11C569.306 222.864 566.823 224.264 564.171 225.26C560.061 226.716 555.749 227.519 551.391 227.64C547.069 227.767 542.744 227.624 538.441 227.21C536.301 227.04 534.161 226.84 532.051 226.71C530.991 226.64 529.941 226.6 528.891 226.57C528.381 226.57 527.891 226.57 527.341 226.57H526.581H526.281C526.171 226.57 526.171 226.62 526.151 226.67L525.551 228.08L524.261 231.08C523.287 233.36 522.311 235.643 521.331 237.93L512.941 239.54C510.441 240.03 507.941 240.54 505.451 241.09C500.451 242.15 495.451 243.317 490.451 244.59C480.531 247.17 470.601 250.13 461.381 254.45C460.581 254.81 459.821 255.23 459.041 255.62C458.261 256.01 457.501 256.43 456.751 256.87C455.348 257.508 454.115 258.468 453.151 259.67C451.421 262.02 451.031 265.42 451.241 268.75C451.521 272.187 452.175 275.584 453.191 278.88C454.194 282.271 455.369 285.608 456.711 288.88C459.381 295.44 462.511 301.88 465.841 308.15C469.171 314.42 472.711 320.66 476.371 326.8L476.421 326.85Z" fill="#242021"/>
<path d="M581.161 188.55C581.161 188.55 578.431 202.79 575.551 218.24" stroke="#242021" stroke-width="2" stroke-miterlimit="10"/>
<path d="M495.882 280.39L517.642 279.15L500.452 314.91L489.002 294.47L495.882 280.39Z" fill="#242021"/>
<path d="M495.882 280.39L517.642 279.15L500.452 314.91L489.002 294.47L495.882 280.39Z" stroke="#242021" stroke-width="2" stroke-miterlimit="10"/>
<path d="M470.381 327.39L481.781 346.5L460.601 387.1L444.891 378.61L470.381 327.39Z" fill="#242021"/>
<path d="M470.381 327.39L481.781 346.5L460.601 387.1L444.891 378.61L470.381 327.39Z" stroke="#242021" stroke-width="2" stroke-miterlimit="10"/>
<path d="M503.751 408.38C515.351 404.48 521.381 396 522.621 386.59L527.081 393L531.011 390.41C528.387 386.856 526.062 383.089 524.061 379.15L516.581 380.77C514.081 393.37 496.791 410.72 503.751 408.38Z" fill="#242021"/>
<path d="M520.821 378.52L522.631 378.15L524.341 377.8L524.551 377.75H524.651C524.651 377.75 524.721 377.75 524.731 377.75L524.911 378.11L525.281 378.83L526.281 380.83L527.161 382.43C527.751 383.49 528.371 384.54 529.011 385.57L530.011 387.11L530.521 387.87L531.111 388.73C531.511 389.31 532.111 390.05 532.561 390.73L527.811 393.85L526.731 394.55L523.951 390.36L523.731 390.02L523.641 389.88L523.471 389.6C523.358 389.39 523.227 389.189 523.081 389C522.864 390.02 522.573 391.022 522.211 392C521.588 393.678 520.812 395.295 519.891 396.83C518.373 399.303 516.484 401.529 514.291 403.43C511.528 405.903 508.259 407.743 504.711 408.82C503.611 409.15 503.601 408.57 504.301 407.74C505.4 406.592 506.68 405.632 508.091 404.9C511.152 403.273 513.868 401.069 516.091 398.41C517.198 397.066 518.163 395.612 518.971 394.07L519.551 392.9L520.061 391.69C520.251 391.29 520.361 390.86 520.521 390.45L520.741 389.82C520.821 389.53 520.911 389.06 521.001 388.69C521.371 387.15 521.661 385.55 521.941 383.91L527.231 391.66L528.761 390.66L529.511 390.18L528.241 388.29C527.631 387.37 527.051 386.45 526.491 385.51C525.931 384.57 525.381 383.62 524.851 382.66C524.321 381.7 523.711 380.53 523.561 380.21C523.561 380.21 523.561 380.09 523.481 380.09H523.361L523.101 380.14L522.101 380.35L519.851 380.81L517.601 381.27L517.281 381.33H517.131H517.061C517.061 381.33 517.061 381.33 517.061 381.39L516.871 382.15C515.561 386.76 513.141 390.84 510.761 394.79C508.881 397.79 507.031 400.79 505.161 403.79C504.761 404.45 504.391 405.11 504.011 405.79C503.631 406.47 503.401 406.9 503.211 407.3C503.121 407.49 503.051 407.66 503.001 407.78C502.982 407.826 502.965 407.872 502.951 407.92C502.881 407.92 502.781 407.92 502.711 407.92C502.411 408 502.521 408.07 502.581 407.86C502.587 407.81 502.587 407.76 502.581 407.71C502.581 407.71 502.581 407.76 502.651 407.77C502.809 407.872 502.973 407.965 503.141 408.05C503.301 408.15 503.511 408.21 503.641 408.31C503.771 408.41 503.721 408.76 503.141 409.05C502.945 409.138 502.735 409.192 502.521 409.21C502.346 409.225 502.17 409.208 502.001 409.16C501.73 409.068 501.496 408.893 501.331 408.66C501.098 408.269 501.016 407.807 501.101 407.36C501.15 407.046 501.23 406.738 501.341 406.44C501.985 404.902 502.761 403.423 503.661 402.02C504.511 400.62 505.391 399.25 506.271 397.86C508.031 395.1 509.801 392.32 511.361 389.44C512.546 387.346 513.55 385.155 514.361 382.89C514.551 382.34 514.721 381.77 514.871 381.21L515.271 379.45L517.061 379.06L520.721 378.3L520.821 378.52Z" fill="#242021"/>
<path d="M576.012 255.14L582.422 239.42C581.631 238.89 580.739 238.529 579.802 238.36L573.402 254.07C574.209 254.566 575.09 254.927 576.012 255.14Z" fill="#232020"/>
<path d="M418.051 219.5L563.991 220.91V233.44H418.051V219.5Z" fill="#242021"/>
<path d="M527.901 231.77L562.531 231.97L562.601 222.3L546.251 222.12L483.741 221.12C474.501 220.98 465.201 220.91 456.031 220.87C444.241 220.81 432.401 220.87 420.631 220.49C413.291 220.24 422.631 217.75 436.211 217.86C460.281 218.05 484.341 218.39 508.601 219C523.111 219.36 538.221 219.39 553.061 219.59L565.191 219.75L565.081 234.56L538.441 234.45L508.301 234.32C493.081 234.32 477.791 234.2 462.691 234.23C450.951 234.23 439.441 234.45 427.831 234.57L420.201 234.66H416.781C416.781 233.24 416.781 231.93 416.781 230.72C416.781 229.887 416.781 229.127 416.781 228.44C416.781 227.05 416.851 225.91 416.921 224.97C416.967 223.613 417.192 222.268 417.591 220.97C417.724 220.509 417.887 220.058 418.081 219.62C418.631 218.7 419.081 222.62 419.251 229.62C419.251 230.25 419.251 230.87 419.251 231.51V231.85V232.09H419.721H421.561L425.261 232.03L432.731 231.92L447.861 231.78L478.651 231.69L527.721 231.79L527.901 231.77Z" fill="#242021"/>
<path d="M472.861 217.67L440.531 217.43L420.891 130.88C420.611 129.46 415.031 130.72 415.381 132.13L436.011 223.05L472.821 223.31C473.961 223.34 474.001 217.66 472.861 217.67Z" fill="#232020"/>
<path d="M535.132 335.16C536.325 331.16 537.508 327.14 538.682 323.1C539.112 321.63 539.462 320.1 539.892 318.68C541.432 313.52 543.012 308.37 544.532 303.2C545.202 300.91 545.792 298.58 546.362 296.28C546.983 293.289 547.791 290.34 548.782 287.45C549.462 285.67 551.572 288.73 550.692 292.13C549.122 298.13 547.392 304.13 545.362 310.07C544.162 313.63 543.262 317.43 542.212 321.12C541.052 325.18 539.862 329.23 538.692 333.28C537.972 335.78 537.242 338.28 536.532 340.77C535.462 344.55 534.352 348.34 533.382 352.12C532.622 355.06 532.042 357.99 531.382 360.92C531.242 361.56 531.122 362.2 530.962 362.85C530.372 365.24 529.962 365.95 529.082 366.26C528.885 366.346 528.681 366.413 528.472 366.46C527.822 366.53 527.602 365.46 527.902 363.64C528.782 358.32 530.182 352.84 531.652 347.36C532.742 343.29 533.912 339.22 535.052 335.14L535.132 335.16Z" fill="#242021"/>
<path d="M422.551 325.5C422.758 318.26 422.961 311.02 423.161 303.78C423.231 301.14 423.221 298.5 423.291 295.86C423.571 286.56 423.891 277.25 424.151 267.95C424.271 263.82 424.301 259.67 424.311 255.57C424.311 250.3 424.181 245.02 424.581 239.76C424.821 236.48 427.581 240.68 427.531 246.76C427.431 257.51 427.151 268.26 426.591 279.09C426.251 285.57 426.281 292.32 426.121 298.95C425.951 306.24 425.751 313.53 425.571 320.82C425.451 325.314 425.338 329.8 425.231 334.28C425.091 341.08 424.901 347.91 424.841 354.65C424.841 359.9 424.931 365.04 424.981 370.23C424.981 371.37 425.031 372.48 425.031 373.64C425.031 377.9 424.801 379.26 424.031 380.16C423.874 380.38 423.693 380.581 423.491 380.76C422.881 381.16 422.401 379.41 422.271 376.29C421.881 367.01 421.941 357.29 422.081 347.43C422.181 340.14 422.361 332.82 422.511 325.51L422.551 325.5Z" fill="#242021"/>
<path d="M186.762 229.2C182.952 229.151 179.206 228.213 175.822 226.46C174.822 225.96 172.382 227.34 173.692 227.99C177.423 229.959 181.564 231.024 185.782 231.1C187.042 231.1 188.622 229.22 186.782 229.2H186.762Z" fill="#242021"/>
<path d="M235.422 71.6903C235.761 72.5415 235.973 73.4376 236.052 74.3503C236.112 75.1103 235.882 77.4403 234.662 76.4503C233.222 75.2803 232.732 72.6103 232.452 70.8603C232.292 69.9203 230.262 70.4303 230.452 71.4103C230.822 73.6503 231.722 77.8603 234.452 78.2203C235.321 78.2994 236.186 78.0364 236.864 77.4874C237.542 76.9383 237.979 76.1465 238.082 75.2803C238.215 73.8728 237.999 72.4542 237.452 71.1503C237.092 70.2203 235.072 70.7903 235.452 71.6903H235.422Z" fill="#242021"/>
<path d="M240.421 61.2202C241.533 62.8002 242.102 64.6989 242.041 66.6302C242.171 69.7302 242.431 72.8302 242.731 75.9402V76.2302V76.3702C242.731 76.3702 243.111 76.6602 243.381 76.8702C243.991 77.3502 244.621 77.8702 245.251 78.3502C245.881 78.8302 246.491 79.3502 247.091 79.9702C247.771 80.5944 248.351 81.3196 248.811 82.1202C249.047 82.5073 249.171 82.9519 249.171 83.4052C249.171 83.8585 249.047 84.3031 248.811 84.6902C248.384 85.3191 247.783 85.8093 247.081 86.1002C246.533 86.3198 245.958 86.4612 245.371 86.5202C244.836 86.578 244.298 86.6014 243.761 86.5902H243.641C243.641 86.0102 243.641 88.3802 243.541 89.7802C243.503 90.5602 243.427 91.3379 243.311 92.1102L243.161 93.2802L242.921 94.4402C242.464 96.8634 241.566 99.182 240.271 101.28C238.948 103.382 237.221 105.201 235.191 106.63C231.117 109.234 226.523 110.916 221.731 111.56L219.651 111.85L218.651 112C218.415 112.049 218.184 112.119 217.961 112.21C216.893 112.745 215.957 113.51 215.221 114.45C213.647 116.426 212.323 118.589 211.281 120.89C211.123 121.284 210.943 121.667 210.741 122.04C210.441 122.51 210.161 122.71 209.911 122.71C209.661 122.71 209.431 122.51 209.381 122.04C209.326 121.82 209.326 121.59 209.381 121.37C210.211 119.51 210.281 117.68 211.491 115.8C212.598 113.993 213.974 112.364 215.571 110.97L216.261 110.47C216.521 110.32 216.801 110.18 217.071 110.05C217.36 109.908 217.665 109.804 217.981 109.74L218.451 109.62L218.811 109.56L221.691 109.06C223.201 108.71 224.691 108.46 226.201 108.06C228.098 107.605 229.944 106.959 231.711 106.13C232.113 105.928 232.503 105.705 232.881 105.46L233.691 104.98C233.981 104.8 234.261 104.55 234.571 104.32C236.11 103.173 237.414 101.741 238.411 100.1C239.691 98.0209 240.538 95.7047 240.901 93.2902C241.051 92.6602 241.081 91.9902 241.171 91.2902C241.256 90.6266 241.306 89.959 241.321 89.2902C241.355 88.624 241.355 87.9564 241.321 87.2902C241.321 86.1902 241.321 85.1002 241.321 84.0102L242.711 84.2102C242.936 84.2479 243.163 84.2712 243.391 84.2802C243.591 84.2802 243.881 84.2802 243.941 84.2802C244.365 84.2929 244.79 84.2695 245.211 84.2102C245.585 84.1719 245.952 84.081 246.301 83.9402C246.519 83.8607 246.717 83.7344 246.881 83.5702C246.901 83.5406 246.911 83.5058 246.911 83.4702C246.911 83.4346 246.901 83.3998 246.881 83.3702C246.841 83.28 246.794 83.193 246.741 83.1102C246.665 82.9849 246.582 82.8647 246.491 82.7502C246.077 82.2284 245.618 81.7432 245.121 81.3002C244.121 80.3802 243.051 79.5402 242.031 78.7302C241.731 78.4902 241.441 78.2402 241.141 78.0102L240.821 77.7302L240.661 77.5902V77.3802C240.661 77.1002 240.661 76.8302 240.591 76.5602C240.591 75.9502 240.491 75.3502 240.451 74.7702C240.371 73.6102 240.291 72.5402 240.231 71.5502C240.001 67.5502 240.031 65.1002 240.041 64.8202C240.099 63.614 240.226 62.412 240.421 61.2202Z" fill="#242021"/>
<path d="M240.081 95.74C239.981 95.74 239.851 95.74 240.201 95.74H239.891C239.605 95.765 239.317 95.765 239.031 95.74C238.555 95.6931 238.095 95.5392 237.686 95.2899C237.278 95.0406 236.931 94.7022 236.671 94.3C236.041 93.38 233.671 94.3 234.411 95.38C235.122 96.2775 236.082 96.9458 237.17 97.3015C238.258 97.6571 239.427 97.6845 240.531 97.38C241.011 97.27 241.691 96.78 241.531 96.21C241.371 95.64 240.531 95.59 240.081 95.69V95.74Z" fill="#242021"/>
<path d="M237.892 64C233.512 62.18 227.112 62 225.152 67.23C224.542 68.85 227.452 68.95 227.942 67.65C229.262 64.14 233.432 64.9 236.242 66.07C237.562 66.62 239.612 64.72 237.892 64Z" fill="#242021"/>
<path d="M545.581 77.6502C545.936 76.2341 546.117 74.7801 546.121 73.3202C546.109 72.8117 546.069 72.3042 546.001 71.8002C545.966 71.0532 545.664 70.3435 545.151 69.8002C544.532 69.2962 543.759 69.0207 542.961 69.0202C542.144 69.0037 541.332 69.1324 540.561 69.4002C539.561 69.7302 538.561 70.2802 537.561 70.5302C537.401 70.5802 537.411 70.3602 537.211 70.2002C537.102 70.1003 537.018 69.9776 536.962 69.841C536.907 69.7045 536.882 69.5574 536.891 69.4102C536.867 69.0473 536.949 68.6853 537.127 68.3678C537.304 68.0503 537.569 67.7907 537.891 67.6202C539.082 67.0957 540.347 66.7584 541.641 66.6202C543.095 66.4444 544.567 66.75 545.831 67.4902C546.633 68.003 547.288 68.7166 547.731 69.5602C548.122 70.3325 548.354 71.1761 548.411 72.0402C548.485 73.7007 548.374 75.3642 548.081 77.0002C547.907 77.991 547.669 78.9697 547.371 79.9302C546.927 81.3729 546.375 82.7802 545.721 84.1402C545.231 85.2002 544.821 86.2802 544.271 87.3102C544.141 87.5302 544.031 87.7702 543.901 87.9902C543.361 88.7902 543.011 88.9402 542.401 88.6802C542.255 88.6291 542.115 88.5655 541.981 88.4902C541.771 88.3377 541.628 88.1094 541.583 87.8538C541.539 87.5981 541.595 87.3351 541.741 87.1202C542.521 85.3602 543.441 83.6202 544.171 81.7902C544.742 80.4427 545.181 79.0428 545.481 77.6102L545.581 77.6502Z" fill="#242021"/>
<path d="M553.291 69.3203C553.864 68.8064 554.512 68.3817 555.211 68.0603C557.401 67.0603 559.071 67.5403 560.781 69.2403C561.681 70.1303 565.231 70.1003 563.721 68.6003C559.951 64.8503 554.041 64.0103 549.961 67.8103C548.911 68.8103 552.301 70.2403 553.291 69.3203Z" fill="#242021"/>
<path d="M548.591 98.89C548.311 98.992 548.018 99.0526 547.721 99.07C547.418 99.1046 547.113 99.1046 546.811 99.07C546.592 99.0857 546.373 99.0655 546.161 99.01C545.446 98.7746 544.805 98.3577 544.301 97.8C544.085 97.5992 543.881 97.3855 543.691 97.16C543.454 96.8707 543.292 96.5271 543.221 96.16C543.221 96.08 543.221 96.03 543.221 96.16C543.41 96.176 543.601 96.176 543.791 96.16C544.405 96.1328 545.015 96.2673 545.561 96.55C545.693 96.6319 545.845 96.6768 546.001 96.68C546.15 96.6601 546.301 96.6601 546.451 96.68C546.621 96.6705 546.791 96.6705 546.961 96.68H547.511C547.752 96.6607 547.993 96.6273 548.231 96.58C548.625 96.5042 549.006 96.3693 549.361 96.18C549.641 96.04 549.871 95.84 550.181 95.7L550.381 95.61C550.641 95.51 550.791 95.54 550.841 95.5C550.793 95.6004 550.766 95.7091 550.761 95.82C550.661 96.15 550.601 96.54 550.491 96.93C550.349 97.2866 550.161 97.6228 549.931 97.93C549.553 98.3734 549.073 98.7169 548.531 98.93L548.591 98.89Z" fill="#242021"/>
</svg>
