<svg width="849" height="334" viewBox="0 0 849 334" fill="none" xmlns="http://www.w3.org/2000/svg">
<path d="M711 198.393C711 198.393 721.98 238.167 739.731 245.546C752.393 250.818 762.276 208.788 759.542 192.386C756.808 175.985 757.451 169 757.451 169C757.451 169 730.753 188.201 721.63 192.577C712.506 196.952 711 198.379 711 198.379V198.393Z" fill="#242021"/>
<path d="M742.679 77.5181C744.76 82.3858 746.407 87.3745 748.024 92.3498C748.577 94.1786 749.206 95.9805 749.73 97.7958C751.452 104.264 752.904 110.772 754.146 117.294C754.73 120.185 755.284 123.089 755.793 125.967C756.451 129.664 757.14 133.362 756.975 137.168C757.05 138.338 756.96 138.19 756.571 137.248C756.391 136.778 756.017 136.119 755.538 135.326C755.119 134.532 754.745 133.578 754.415 132.542C754.161 131.614 753.802 130.713 753.577 129.786L752.889 127.002L751.496 121.449C750.748 117.724 750 113.986 749.251 110.221C748.802 107.975 748.233 105.689 747.545 103.443C746.886 101.171 746.167 98.9118 745.434 96.6797C743.922 91.7313 742.126 86.8636 740.209 82.0362C738.922 79.1048 737.71 76.1331 736.198 73.2958C735.644 72.2201 735.105 71.1175 734.536 70.0417L732.71 66.8548C731.557 64.7034 730.105 62.7132 728.743 60.6962C726.482 57.6304 723.938 54.8469 721.228 52.1844C720.629 51.5928 720.076 51.0011 719.432 50.4498C717.216 48.2715 716.767 47.3705 717.097 46.1738C717.171 45.9048 717.216 45.5956 717.336 45.367C717.74 44.6005 719.207 45.0577 721.153 46.5234C726.872 50.9608 731.527 56.8774 735.434 63.0629C738.234 67.7154 740.703 72.5428 742.784 77.4643L742.694 77.5046L742.679 77.5181Z" fill="#242021"/>
<path d="M690.325 74C691.358 73.5394 685.809 31.2607 698.751 24.8532C711.103 18.7302 728 47.5707 728 47.5707L690.325 74Z" fill="#242021"/>
<path d="M195.58 224.426C196.104 221.651 196.698 218.889 197.319 216.142C197.554 215.139 197.665 214.122 197.955 213.133C198.894 209.63 199.915 206.155 200.979 202.706C201.462 201.182 201.959 199.643 202.442 198.132C203.05 196.181 203.74 194.244 204.597 192.376C204.859 191.799 204.969 191.923 204.997 192.499C205.011 193.076 204.983 194.093 204.762 195.247C203.892 199.3 203.423 203.407 202.139 207.377C201.448 209.768 201.103 212.35 200.62 214.837C200.054 217.584 199.501 220.318 199.018 223.079C198.728 224.783 198.424 226.472 198.203 228.176C197.844 230.759 197.513 233.355 197.389 235.938C197.306 237.943 197.471 239.921 197.637 241.872C197.651 242.298 197.692 242.724 197.692 243.164C197.72 243.96 197.637 244.496 197.471 244.881C197.25 245.265 196.988 245.499 196.643 245.705C196.491 245.801 196.339 245.911 196.201 245.966C195.966 246.062 195.745 245.952 195.469 245.664C195.207 245.375 194.848 244.922 194.696 244.304C194.157 242.477 193.964 240.581 194.005 238.671C193.978 236.762 194.13 234.839 194.295 232.915C194.599 230.072 195.027 227.242 195.497 224.426H195.58Z" fill="#242021"/>
<path d="M201.317 204.793C201.948 202.142 202.77 199.532 203.489 196.894C204.311 194.284 205.147 191.687 206.042 189.104C206.732 187.228 207.275 185.311 207.979 183.449C210.591 176.91 213.614 170.507 217.018 164.308C217.811 162.948 218.574 161.575 219.337 160.202C220.158 158.856 220.965 157.51 221.772 156.178C222.271 155.308 222.829 154.465 223.387 153.636C223.944 152.793 224.531 151.977 225.133 151.162C226.321 149.53 227.759 148.048 229.109 146.539C229.975 145.615 230.151 145.941 229.887 147.042C229.623 148.13 229.007 150.02 227.921 151.991C227.451 152.875 227.026 153.785 226.512 154.642C226.013 155.512 225.456 156.328 225.015 157.225C224.106 158.992 223.108 160.705 222.213 162.486C221.347 164.267 220.452 166.048 219.513 167.802C218.603 169.582 217.693 171.363 216.783 173.158C214.67 177.481 213.115 182.212 211.618 186.848L210.371 190.681C209.96 191.959 209.623 193.264 209.241 194.542C208.463 197.112 207.774 199.708 207.113 202.318C206.673 203.909 206.321 205.527 205.969 207.145C205.631 208.762 205.22 210.366 204.942 211.998C204.032 216.919 203.166 221.868 202.77 226.816C202.638 228.733 202.55 230.65 202.55 232.553C202.594 234.456 202.608 236.36 202.608 238.249C202.594 239.078 202.682 239.908 202.682 240.751C202.638 243.877 202.168 244.856 200.789 245.522C200.466 245.672 200.158 245.876 199.85 245.957C198.808 246.256 197.942 244.965 197.575 242.613C197.062 239.133 196.93 235.557 197.032 231.928C197.238 228.311 197.517 224.641 198.074 220.984C198.265 219.624 198.441 218.265 198.676 216.919L199.439 212.868C199.908 210.163 200.583 207.484 201.17 204.793H201.302H201.317Z" fill="#242021"/>
<path d="M123.296 109.044C121.829 112.966 120.473 116.942 119.257 120.973C118.796 122.444 118.531 123.956 118.097 125.426C116.602 130.629 115.275 135.899 114.073 141.21C113.514 143.566 113.164 145.963 112.731 148.319C112.452 149.831 112.214 151.356 111.907 152.868C111.585 154.379 111.152 155.877 110.719 157.375C110.425 158.301 110.174 158.138 109.866 157.28C109.573 156.422 109.07 154.842 109 153.031C109.126 149.858 109.293 146.685 109.866 143.566C110.369 140.434 110.97 137.302 111.879 134.224C112.899 130.533 113.542 126.598 114.52 122.798C115.582 118.617 116.84 114.491 118.195 110.392C119.09 107.886 119.984 105.38 120.962 102.902C122.387 99.1295 124.12 95.4662 125.741 91.8028C126.398 90.3865 127.041 88.9838 127.628 87.5539C128.243 86.1376 128.983 84.7758 129.682 83.4003C130.004 82.8011 130.255 82.1747 130.674 81.6163C131.387 80.5541 131.96 79.914 132.505 79.5463C133.022 79.1786 133.455 79.0424 133.944 79.0288C134.168 79.0288 134.406 78.9743 134.587 79.0152C135.174 79.1105 135.104 80.2817 134.573 82.0657C133.595 84.5987 132.491 87.1181 131.401 89.6647C130.814 90.9176 130.241 92.1841 129.654 93.4643C129.095 94.7444 128.522 96.0381 127.963 97.3183C126.342 101.172 124.735 105.081 123.394 109.071L123.282 109.044H123.296Z" fill="#242021"/>
<path d="M164 234.613C164 234.613 162.533 296 146.706 296C132.756 296 109.802 258.218 109.802 232.97C109.802 207.723 108 210.057 108 210.057L164 234.613Z" fill="#242021"/>
<path d="M177 103C177 103 176.21 35.9732 163.544 36C146.008 36.0402 126 85.1906 126 85.1906L162.769 101.391L177 103Z" fill="#242021"/>
<path opacity="0.25" d="M306.772 145L360.438 163.231C360.438 163.231 396.882 144.065 402.681 145.908C408.48 147.75 399.672 163.353 399.672 163.353C399.672 163.353 394.326 173.037 403.323 174.514C412.336 175.99 431.471 156.581 431.471 156.581C431.471 156.581 458.8 163.976 463.84 168.811C468.879 173.633 486.466 183.223 490.176 189.697C493.901 196.172 483.793 210.637 483.793 210.637C483.793 210.637 482.77 225.726 477.409 228.475C472.049 231.225 470.062 243.334 465.855 245.122C453.513 250.377 428.476 230.331 428.476 230.331C428.476 230.331 428.243 223.261 424.036 224.507C419.829 225.753 415.827 228.489 415.827 228.489C415.827 228.489 408.67 212.019 406.522 212.899C404.375 213.78 397.846 218.845 397.846 218.845C397.846 218.845 392.222 209.608 390.265 208.064C388.308 206.52 380.741 213.644 380.741 213.644L373.102 228.99C373.102 228.99 358.597 218.75 355.311 220.945C352.024 223.139 349.322 224.371 349.322 224.371C349.322 224.371 334.467 211.369 329.34 212.263C324.198 213.156 271 214.389 271 214.389C271 214.389 281.984 182.668 290.325 170.328C298.665 157.989 306.743 145.041 306.743 145.041L306.772 145Z" fill="#242021"/>
<path d="M347 160C347 160 351.333 164.517 350.5 165.813C349.667 167.109 354 161.232 354 161.232L347 160.013V160Z" fill="#242021"/>
<path d="M323.367 153C323.367 153 330.345 131.38 324.959 128.439C318.174 124.742 307 145.606 307 145.606L323.352 152.986L323.367 153Z" fill="#242021"/>
<path d="M298.986 213C298.986 213 285.549 250.014 275.436 250C268.056 250 268.487 230.772 269.681 223.396C270.875 216.021 276.256 214.497 276.256 214.497L299 213H298.986Z" fill="#242021"/>
<path d="M565.398 147.6C567.246 150.27 569.009 152.995 570.619 155.816C571.234 156.816 571.878 157.816 572.424 158.856C574.328 162.554 575.951 166.402 577.211 170.332C577.533 171.195 577.799 172.072 578.079 172.934C578.358 173.811 578.694 174.66 578.946 175.523C579.464 177.782 580.43 180.001 579.786 182.466C579.702 183.205 579.646 183.11 579.184 182.589C578.96 182.329 578.526 181.973 578.051 181.548C577.827 181.329 577.505 181.124 577.309 180.864C577.155 180.603 577.015 180.316 576.903 180.015C576.525 178.933 576.049 177.892 575.657 176.824L574.538 173.619C574.202 172.537 573.768 171.483 573.376 170.415C573.012 169.333 572.592 168.265 572.186 167.196C571.276 164.581 569.681 162.157 568.253 159.719C567.484 158.363 566.602 157.063 565.79 155.734C564.894 154.447 564.054 153.118 563.117 151.859L561.395 149.517L559.576 147.244C557.714 144.97 555.783 142.711 553.697 140.643C552.06 139.04 550.254 137.685 548.477 136.274C548.085 135.959 547.679 135.685 547.301 135.357C545.944 134.083 545.734 133.467 546.279 132.316C546.391 132.07 546.475 131.796 546.615 131.591C547.021 130.892 548.225 130.755 549.443 131.495C551.318 132.522 552.956 133.878 554.621 135.275C555.433 135.987 556.231 136.726 557.014 137.493C557.798 138.26 558.526 139.082 559.268 139.89C560.373 141.095 561.395 142.382 562.445 143.628C563.439 144.929 564.474 146.203 565.426 147.545L565.342 147.613L565.398 147.6Z" fill="#242021"/>
<path d="M555 189.223C555.555 191.297 573.151 232.688 584.287 225.064C597.045 216.327 579.859 183 579.859 183L555 189.223Z" fill="#242021"/>
<path d="M536.57 137C536.57 137 530.787 121.203 536.57 120.072C542.353 118.942 550 131.403 550 131.403L536.57 137Z" fill="#242021"/>
<path d="M301.874 210.122C306.437 210.068 311.029 210.162 315.607 210.487C317.274 210.608 318.956 210.608 320.638 210.811C326.517 211.554 332.337 212.933 337.88 214.961C340.337 215.88 342.779 216.839 345.076 218.042C348.044 219.529 350.852 221.476 352.71 224.165C353.295 224.99 352.973 225.084 351.949 224.949C350.94 224.774 349.054 224.652 347.474 223.895C345.997 223.314 344.651 222.611 343.262 221.989L339.021 220.218C336.184 219.043 333.2 218.042 330.129 217.11C326.444 215.988 322.349 215.772 318.371 215.42C313.983 215.028 309.538 214.906 305.077 214.934C302.328 214.947 299.578 215.028 296.829 215.19C292.661 215.434 288.463 215.717 284.339 216.258C281.136 216.677 278.036 217.421 274.877 218.002C274.175 218.123 273.502 218.299 272.8 218.394C270.168 218.732 269.276 218.394 268.559 217.245C268.398 216.975 268.194 216.718 268.077 216.447C267.711 215.542 268.676 214.623 270.533 214.014C276.062 212.325 282.058 211.541 288.156 210.892C292.69 210.433 297.282 210.176 301.889 210V210.122H301.874Z" fill="#242021"/>
<path d="M201.554 104.39C212.102 105.669 222.738 106.581 233.402 107.276C237.301 107.534 241.2 107.602 245.1 107.834C258.848 108.65 272.626 109.358 286.419 110.447C292.544 110.937 298.713 111.4 304.809 112.19C308.723 112.707 312.651 113.374 316.521 114.545C318.442 115.116 320.377 115.838 322.181 116.872C323.927 117.934 325.731 119.241 326.691 121.16C326.967 121.759 326.967 122.263 326.996 122.549C327.011 122.848 326.982 122.984 326.895 122.998C326.691 123.039 326.342 122.494 325.411 121.977C324.523 121.446 323.301 120.874 321.759 120.439C321.017 120.194 320.129 120.03 319.242 119.799C318.354 119.554 317.394 119.323 316.419 119.023C312.855 118.057 309.057 117.485 305.216 117.022C301.375 116.491 297.476 116.096 293.563 115.742C285.721 115.048 277.762 114.558 269.775 113.959C260.216 113.224 250.206 113.143 240.371 112.653C229.561 112.108 218.737 111.387 207.941 110.338C201.292 109.699 194.658 108.895 188.053 107.943C178.043 106.472 168.062 104.458 158.358 101.803C150.821 99.748 143.431 97.4475 136.389 94.0581C134.861 93.2549 133.333 92.5471 131.864 91.6214C126.364 88.2456 125.186 86.4079 125.07 84.6383C125.055 84.2299 124.953 83.7535 125.026 83.4404C125.317 82.3378 127.732 83.3996 131.5 85.5776C142.819 91.9209 156.146 96.2496 170.026 99.2171C180.327 101.422 190.919 103.029 201.554 104.24V104.376V104.39Z" fill="#242021"/>
<path d="M168.96 232.876C176.829 235.95 184.801 238.809 192.89 241.358C195.844 242.301 198.857 243.03 201.812 243.92C212.255 247.061 222.845 249.92 233.625 251.848C238.408 252.711 243.264 253.358 248.062 253.722C251.148 254.006 254.249 254.019 257.321 254.113C258.871 254.181 260.407 254.181 261.943 254.208L266.579 254.14C268.525 254.14 268.349 254.41 266.799 255.192C265.278 256.055 262.25 257.282 258.52 257.741C245.327 258.712 232.294 256.864 219.715 253.736C212.197 251.835 204.269 250.284 196.678 248.046C188.341 245.619 180.106 242.881 171.988 239.901C167 238.054 162.042 236.153 157.127 234.157C149.667 231.15 142.325 227.86 135.085 224.556C129.468 221.981 123.837 219.648 118.337 216.938C117.108 216.358 115.924 215.792 114.724 215.158C110.307 212.744 109.195 211.531 109.078 209.845C109.049 209.454 108.961 209.036 109.02 208.699C109.239 207.566 111.506 207.836 114.841 209.319C119.829 211.45 124.787 213.837 129.892 216.129C134.997 218.435 140.145 220.794 145.382 223.046C153.119 226.444 160.974 229.748 168.946 232.755L168.902 232.89L168.96 232.876Z" fill="#242021"/>
<path d="M326.912 151.392C329.587 152.572 332.334 153.6 335.139 154.53C336.166 154.863 337.236 155.058 338.262 155.391C341.905 156.516 345.621 157.613 349.351 158.696C351.014 159.154 352.706 159.543 354.383 159.89C355.438 160.195 356.523 160.445 357.578 160.779C358.648 161.056 359.617 161.681 360.629 162.167C361.236 162.514 361.063 162.792 360.369 163.111C360.022 163.278 359.544 163.458 358.981 163.653C358.706 163.75 358.402 163.833 358.084 163.903C357.925 163.944 357.766 163.958 357.607 164C357.462 164 357.303 164 357.144 163.972L353.805 163.611C352.706 163.458 351.621 163.181 350.537 162.959C348.368 162.473 346.185 161.917 344.031 161.223C341.457 160.348 338.638 159.932 335.949 159.168C332.985 158.362 330.05 157.363 327.173 156.293C325.394 155.613 323.645 154.919 321.91 154.169C319.264 153.072 316.705 151.781 314.131 150.614C312.122 149.725 310.054 149.003 308.016 148.184C307.567 147.99 307.119 147.851 306.686 147.629C305.066 146.837 304.777 146.24 305.139 144.949C305.225 144.657 305.283 144.352 305.399 144.074C305.804 143.144 306.873 142.783 308.146 143.13C311.847 144.31 315.36 146.004 318.917 147.726C321.577 148.948 324.223 150.225 326.956 151.295L326.912 151.406V151.392Z" fill="#242021"/>
<path d="M522.486 146.804C518.427 147.991 514.309 148.985 510.221 149.924C508.717 150.256 507.257 150.711 505.768 151.029C500.467 152.078 495.138 152.921 489.823 153.749C487.472 154.108 485.107 154.522 482.785 154.923C479.807 155.503 476.784 155.931 473.732 156C472.783 156.014 472.813 155.503 473.499 154.812C474.185 154.122 475.499 153.169 477.178 152.672C483.136 151.084 489.122 149.897 495.269 149.054C498.934 148.53 502.614 147.411 506.264 146.472C508.264 145.947 510.279 145.464 512.265 144.884C514.266 144.346 516.251 143.766 518.208 143.144C520.661 142.44 523.041 141.598 525.435 140.769L530.794 138.684C532.532 137.897 534.284 137.138 535.948 136.254C537.219 135.536 538.445 134.763 539.657 133.976C540.825 133.147 541.949 132.264 543.088 131.421C543.599 131.062 544.052 130.648 544.534 130.248C546.359 128.826 547.177 128.687 548.52 129.488C548.827 129.668 549.162 129.833 549.44 130.041C550.36 130.759 550.141 132.029 548.827 133.341C544.943 137.221 539.847 140.134 534.561 142.426C530.648 144.194 526.574 145.561 522.53 146.914L522.486 146.804Z" fill="#242021"/>
<path d="M539.784 198.264C534.617 201.092 529.581 204.219 524.649 207.522C522.858 208.732 521.169 210.078 519.393 211.329C513.124 215.707 507.017 220.357 500.734 224.884C497.93 226.869 495.141 228.922 492.205 230.798C490.311 231.995 488.329 233.123 486.141 233.966C485.04 234.374 483.895 234.741 482.662 234.904C481.444 235.081 480.137 235.013 478.933 234.7C477.421 234.184 477.935 233.844 479.139 233.531C480.401 233.178 482.031 232.239 484.042 231.274C485.862 230.431 487.624 229.276 489.371 228.052C491.133 226.869 492.88 225.578 494.612 224.272C496.359 222.94 498.106 221.608 499.853 220.275C501.659 218.97 503.465 217.665 505.27 216.36C509.66 213.26 513.844 209.589 518.292 206.312C523.181 202.71 528.216 199.256 533.531 196.143C536.79 194.226 540.137 192.418 543.543 190.732C548.725 188.176 554.172 186.041 559.677 184.247C563.949 182.846 568.221 181.514 572.684 180.671C573.667 180.494 574.622 180.263 575.635 180.154C579.378 179.733 580.611 180.181 581.419 181.419C581.61 181.704 581.845 181.99 581.947 182.275C582.3 183.268 580.861 184.083 578.351 184.6C570.893 186 563.288 187.917 555.889 190.773C550.399 192.88 545.025 195.422 539.858 198.359L539.784 198.264Z" fill="#242021"/>
<path d="M611.11 92.8785C621.616 90.7152 632.064 88.3761 642.381 85.6585C646.141 84.6579 649.842 83.4816 653.573 82.3865C666.702 78.5601 679.715 74.247 691.971 68.4466C697.377 65.8506 702.652 62.9301 707.563 59.6987C710.725 57.6165 713.698 55.318 716.685 53.033L718.885 51.2888L721.042 49.4906C722.441 48.2467 724.029 47.165 725.414 45.9076C727.235 44.4068 727.323 44.8259 726.507 46.7323C726.113 47.6923 725.472 49.0173 724.612 50.5722C724.19 51.3699 723.578 52.1001 722.951 52.8978C722.31 53.6955 721.596 54.4932 720.765 55.2639C717.909 58.0492 714.761 60.5505 711.468 62.8355C708.175 65.134 704.765 67.2838 701.268 69.2714C694.2 73.1789 686.754 76.3968 679.132 79.1685C670.01 82.4676 660.568 85.9424 651.037 88.6601C640.574 91.6617 629.966 94.2036 619.357 96.5426C612.815 97.9758 606.257 99.3279 599.714 100.653C589.805 102.681 579.794 104.533 570.031 106.737C562.453 108.468 555.094 110.51 548.012 112.97C546.453 113.511 544.996 114.147 543.48 114.728C540.697 115.85 539.065 116.675 537.899 117.135C536.704 117.594 536.005 117.743 534.999 117.784C534.591 117.811 534.096 117.973 533.702 118C533.367 118 533.134 117.878 533.046 117.554C532.959 117.243 532.974 116.648 533.28 116.04C533.819 114.728 535.334 113.133 537.491 111.848C540.697 109.915 544.048 108.576 547.473 107.373C550.897 106.183 554.366 105.182 557.877 104.236C564.901 102.37 572.042 100.842 579.197 99.3414C589.82 97.124 600.486 95.0689 611.066 92.7703L611.11 92.8921V92.8785Z" fill="#242021"/>
<path d="M699.085 206.461C690.1 210.046 680.998 213.329 671.838 216.431C668.484 217.535 665.204 218.831 661.821 219.838C649.917 223.478 637.898 226.705 625.776 229.56C620.376 230.746 614.99 232.07 609.605 233.173C606.164 233.918 602.68 234.566 599.182 235.09C595.683 235.655 592.141 235.959 588.585 236C586.349 235.821 586.654 235.793 588.41 234.966C589.281 234.538 590.544 234.069 592.04 233.463C592.794 233.173 593.607 232.828 594.478 232.552C595.349 232.29 596.293 232.056 597.266 231.822C598.993 231.408 600.72 231.022 602.448 230.594L605.032 229.932C605.903 229.739 606.759 229.56 607.63 229.339C611.085 228.526 614.54 227.684 617.981 226.816C621.421 225.933 624.876 225.05 628.331 224.168C631.801 223.313 635.27 222.458 638.754 221.589C647.101 219.52 655.521 216.542 663.824 213.742C672.97 210.695 682.057 207.454 691.014 203.937C696.545 201.8 702.003 199.497 707.418 197.125C715.591 193.47 723.706 189.595 731.312 185.141C737.221 181.666 742.664 177.749 747.702 173.488C748.253 173.019 748.805 172.55 749.342 172.081C749.865 171.599 750.387 171.102 750.924 170.633C751.433 170.192 751.897 169.792 752.333 169.434C752.739 169.061 753.117 168.717 753.465 168.413C754.162 167.806 754.771 167.351 755.309 167.007C756.296 166.262 757.152 166.041 758.125 166.041C758.56 166.041 759.054 165.958 759.417 166.027C760.026 166.138 760.143 166.745 759.838 167.82C759.547 168.91 758.691 170.371 757.297 171.971C753.218 176.812 748.123 180.852 742.752 184.507C737.366 188.161 731.661 191.416 725.825 194.463C717.159 198.959 708.187 202.903 699.158 206.626L699.085 206.502V206.461Z" fill="#242021"/>
<path d="M755.632 170.788C755.224 150.909 753.342 130.935 749.548 111.396C748.104 104.284 746.12 97.2809 743.975 90.3458C740.182 78.1105 735.295 66.1477 729.051 54.8389C725.943 49.1845 722.398 43.7481 718.488 38.5842C714.549 33.4612 710.129 28.6243 704.993 24.6866C702.703 22.9699 700.266 21.4439 697.684 20.313C695.116 19.1821 692.33 18.46 689.689 18.4872C688.391 18.4327 687.165 18.8006 685.969 19.1958C684.831 19.7271 683.678 20.3266 682.73 21.2123C680.731 22.8881 679.185 25.1635 677.945 27.5752C676.325 30.6817 675.158 34.0607 674.283 37.5351C673.408 40.9958 672.809 44.552 672.386 48.1217C671.949 51.6915 671.599 55.2885 671.482 58.8855C671.365 62.4825 671.307 66.1068 671.642 69.6902C672.124 74.132 671.847 73.6823 670.329 69.9763C669.629 68.1097 668.812 65.3983 668.068 62.0465C667.397 58.6948 666.959 54.7026 667.003 50.3699C667.12 46.5276 667.616 42.6853 668.316 38.8567C669.031 35.0281 670.067 31.1994 671.642 27.4253C672.007 26.4851 672.503 25.545 672.955 24.6185C673.495 23.7056 673.977 22.7791 674.619 21.8799C675.815 20.0814 677.288 18.3237 679.185 16.825C681.052 15.3126 683.387 14.0591 685.969 13.446L687.924 13.1054C688.58 13.0372 689.222 13.0372 689.879 13.01C690.55 12.9691 691.119 13.0645 691.732 13.1054C692.33 13.1735 692.957 13.1871 693.526 13.3234C698.238 14.1681 702.323 16.1301 705.898 18.4328C709.472 20.7626 712.623 23.4468 715.483 26.3217C721.187 32.085 725.943 38.448 730.014 45.1242C739.73 61.1064 747.389 78.8054 752.35 96.8722C753.721 101.832 754.844 106.846 755.866 111.873C756.858 116.915 757.645 121.942 758.375 126.997C759.819 137.107 760.782 147.258 761.395 157.422C762.11 169.943 762.226 182.492 761.555 195.013C761.03 204.496 760.067 214.007 758.258 223.394C757.339 228.095 756.289 232.768 754.815 237.36C753.356 241.952 751.606 246.489 749.169 250.794C747.273 254.119 745.026 257.375 741.875 260.032C741.058 260.659 740.211 261.272 739.365 261.885C738.446 262.403 737.498 262.907 736.55 263.37C735.528 263.711 734.507 264.12 733.457 264.392C732.931 264.501 732.406 264.624 731.866 264.719L730.262 264.924C725.914 265.291 721.639 264.297 717.861 262.675C714.068 261.027 710.698 258.779 707.707 256.217C705.052 253.969 702.703 251.557 700.543 248.873C696.604 243.873 694.795 240.085 693.818 237.374C692.855 234.649 692.84 232.891 693.205 231.433C693.38 230.766 693.497 229.921 693.745 229.512C694.183 228.817 694.956 229.58 696.152 231.379C697.378 233.177 698.939 236.066 701.258 239.581C704.716 244.772 709.02 249.623 714.097 253.356C716.621 255.223 719.363 256.776 722.179 257.784C725.009 258.765 727.898 259.215 730.597 258.792C733.311 258.384 735.645 257.266 737.833 255.386C740.007 253.56 741.816 251.026 743.392 248.342C746.558 242.919 748.615 236.611 750.249 230.234C752.627 220.71 753.94 210.791 754.713 200.831C755.501 190.871 755.647 180.816 755.442 170.788L755.603 170.761L755.632 170.788Z" fill="#242021"/>
<path d="M279.783 185.16C281.704 181.501 283.697 177.868 285.835 174.332C286.601 173.035 287.294 171.696 288.132 170.427C291.021 165.948 294.285 161.687 297.593 157.495C299.066 155.638 300.54 153.768 301.999 151.924C303.905 149.576 306.043 147.377 308.34 145.356C309.047 144.728 309.134 144.974 308.845 145.752C308.542 146.531 307.921 147.91 306.91 149.289C305.22 151.829 303.327 154.191 301.507 156.608C299.702 159.052 297.911 161.496 296.091 163.954C294.979 165.415 294.025 167.013 293.029 168.597C292.075 170.208 291.136 171.833 290.14 173.403C288.031 176.913 285.965 180.463 284.059 184.095L282.311 187.454L280.679 190.854C279.061 194.309 277.544 197.818 276.244 201.355C275.767 202.747 275.363 204.126 274.959 205.519L273.861 209.698C273.702 210.312 273.557 210.913 273.399 211.527C272.792 213.808 272.359 214.477 271.42 214.791C271.203 214.859 270.986 214.968 270.784 214.996C270.105 215.078 269.845 214.012 270.091 212.251C270.784 207.008 272.489 201.682 274.583 196.493C275.334 194.554 276.201 192.67 277.024 190.758C277.934 188.874 278.786 186.976 279.725 185.119L279.797 185.146L279.783 185.16Z" fill="#242021"/>
<path opacity="0.8" d="M230.5 228C234.642 228 238 225.09 238 221.5C238 217.91 234.642 215 230.5 215C226.358 215 223 217.91 223 221.5C223 225.09 226.358 228 230.5 228Z" fill="#242021"/>
<path d="M371.712 234.705C371.6 235.45 371.517 236.208 371.489 236.981C371.489 237.262 371.545 237.529 371.517 237.81C371.42 238.794 371.364 239.805 371.42 240.803C371.42 241.253 371.475 241.688 371.545 242.124C371.642 242.672 371.739 243.22 371.712 243.824C371.712 244.007 371.517 244.035 371.267 243.965C371.017 243.88 370.627 243.712 370.433 243.431C369.765 242.405 369.126 241.309 369.182 240.086C369.182 239.356 368.876 238.653 368.751 237.937C368.653 237.136 368.612 236.335 368.598 235.52C368.598 235.028 368.598 234.522 368.584 234.03C368.584 233.286 368.612 232.527 368.556 231.796C368.514 231.22 368.264 230.658 368.111 230.068C368.083 229.941 368.014 229.815 368 229.688C368.083 229.211 368.334 229.084 369.251 229.028L369.793 229C370.308 229 371.058 229.225 371.295 229.548C371.739 230.04 371.781 230.532 371.906 231.023C371.99 231.515 372.017 232.007 371.99 232.499C371.92 233.243 371.864 233.988 371.795 234.733H371.712V234.705Z" fill="#242021"/>
<path d="M409.471 238.247C409.894 237.3 410.33 236.365 410.792 235.457C410.951 235.115 411.083 234.772 411.268 234.443C411.915 233.298 412.615 232.179 413.355 231.126C413.686 230.639 414.003 230.179 414.32 229.705C414.531 229.415 414.73 229.099 414.967 228.823C415.232 228.56 415.496 228.31 415.787 228.073C415.958 227.928 416.011 228.007 415.998 228.244C415.985 228.468 415.945 228.889 415.787 229.27C415.1 230.547 414.399 231.771 413.673 233.022C413.223 233.759 412.959 234.641 412.655 235.457C412.312 236.365 411.994 237.286 411.704 238.221C411.532 238.8 411.36 239.366 411.215 239.958C411.003 240.84 410.752 241.735 410.647 242.63C410.554 243.328 410.7 244.052 410.673 244.75C410.673 244.908 410.673 245.052 410.647 245.21C410.554 245.776 410.316 245.934 409.695 245.974C409.55 245.974 409.405 246 409.273 246C408.81 246 408.44 245.71 408.282 245.263C407.727 243.894 408.11 242.538 408.427 241.196C408.678 240.195 409.061 239.221 409.431 238.247H409.484H409.471Z" fill="#242021"/>
<path d="M386.576 233.072C386.875 231.754 387.203 230.436 387.63 229.144C387.773 228.665 387.83 228.186 388.015 227.72C388.656 226.082 389.525 224.511 390.48 223.047C390.879 222.381 391.306 221.728 391.677 221.05C391.933 220.623 392.246 220.224 392.574 219.838C392.745 219.652 392.944 219.492 393.144 219.319C393.229 219.226 393.386 219.186 393.543 219.146C393.685 219.106 393.828 219.066 393.985 219.026C394.369 218.946 394.412 219.039 394.554 219.479C394.626 219.705 394.74 220.011 394.925 220.397C395.039 220.743 395.01 221.01 394.925 221.236C394.64 222.115 394.127 222.807 393.671 223.552C393.201 224.298 392.717 225.044 392.218 225.829C391.577 226.748 391.434 227.906 391.092 228.958C390.75 230.143 390.423 231.341 390.195 232.566C390.038 233.325 389.924 234.083 389.839 234.856C389.71 236.014 389.582 237.199 389.653 238.37C389.696 239.276 389.953 240.168 390.138 241.06C390.181 241.259 390.252 241.446 390.28 241.646C390.337 242.378 389.995 242.631 389.155 242.844C388.955 242.897 388.77 242.95 388.571 242.977C387.93 243.083 387.345 242.817 386.989 242.271C386.177 240.647 385.921 238.863 386.02 237.066C386.063 235.734 386.263 234.376 386.462 233.045H386.548L386.576 233.072Z" fill="#242021"/>
<path d="M405.054 153.377C404.624 154.151 404.209 154.939 403.822 155.742C403.679 156.039 403.622 156.352 403.478 156.649C402.991 157.69 402.333 158.671 401.846 159.727C401.617 160.188 401.473 160.679 401.33 161.17C401.244 161.482 401.173 161.809 401.015 162.092C400.886 162.389 400.7 162.672 400.399 162.924C400.213 163.073 400.041 162.999 399.784 162.731C399.526 162.464 399.025 161.973 399.025 161.586C398.924 160.843 399.153 160.218 399.311 159.564C399.497 158.909 399.726 158.285 400.056 157.675C400.428 156.946 400.557 156.099 400.858 155.326C401.187 154.478 401.545 153.63 401.903 152.798C402.132 152.277 402.361 151.757 402.576 151.251C402.906 150.463 403.292 149.704 403.564 148.887C403.793 148.262 403.779 147.518 404.023 146.849C404.066 146.7 404.123 146.537 404.209 146.388C404.338 146.106 404.638 146.046 404.867 146.002C405.111 145.987 405.354 146.076 405.655 146.269C405.798 146.358 405.927 146.433 406.042 146.522C406.428 146.834 406.658 147.325 406.872 147.727C407.059 148.381 407.03 148.901 406.858 149.437C406.701 149.957 406.486 150.493 406.257 151.028C405.913 151.816 405.498 152.604 405.125 153.407L405.054 153.377Z" fill="#242021"/>
<path d="M427.507 168.079C426.034 169.43 424.488 170.711 422.825 171.837C422.221 172.259 421.691 172.752 421.043 173.118C418.835 174.483 416.464 175.581 414.02 176.439C412.96 176.862 411.812 177.129 410.737 177.481C410.016 177.65 409.309 177.805 408.573 177.945C408.22 178.03 407.837 178.002 407.454 177.959C407.086 177.917 406.718 177.875 406.335 177.833C405.879 177.762 405.923 177.622 406.261 177.298C406.497 177.073 406.747 176.847 406.939 176.65C407.101 176.51 407.248 176.383 407.38 176.256C407.454 176.186 407.542 176.144 407.616 176.059C407.704 176.031 407.793 175.989 407.881 175.975L409.824 175.299L411.709 174.525C412.327 174.244 412.96 174.004 413.608 173.779C414.256 173.554 414.874 173.258 415.537 173.019C416.332 172.738 417.039 172.259 417.76 171.823C418.467 171.358 419.144 170.809 419.851 170.345C421.352 169.219 422.825 168.065 424.223 166.798C425.092 166.038 425.917 165.208 426.712 164.377C427.315 163.73 427.875 163.068 428.464 162.407C429.008 161.717 429.553 161.027 430.039 160.31C430.76 159.17 431.305 157.959 431.953 156.805L432.35 156.031C432.91 155.102 433.455 154.975 434.058 155.003C434.206 155.003 434.353 155.003 434.471 155.017C434.839 155.074 435.06 155.679 434.986 156.566C434.78 157.847 434.264 159.043 433.764 160.267C433.116 161.407 432.38 162.533 431.57 163.589C430.378 165.194 428.994 166.657 427.58 168.093L427.521 168.037L427.507 168.079Z" fill="#242021"/>
<path d="M553.74 126.141C555.561 128.162 557.279 130.239 558.967 132.343C559.584 133.099 560.274 133.8 560.876 134.584C562.858 137.416 564.694 140.318 566.471 143.247C567.278 144.525 568.101 145.818 568.82 147.138C569.833 148.788 570.523 150.63 570.964 152.514C571.096 153.106 570.861 153.105 570.332 152.789C569.833 152.459 568.864 151.895 568.101 151.084C567.41 150.369 566.735 149.668 566.162 148.898C565.575 148.142 564.9 147.44 564.386 146.643C563.328 145.062 562.286 143.467 561.273 141.817C560.083 139.823 558.307 138.118 556.809 136.275C555.164 134.24 553.461 132.233 551.699 130.28C550.612 129.084 549.496 127.901 548.322 126.774C546.559 125.069 544.753 123.364 542.756 121.961C541.2 120.875 539.453 120.119 537.808 119.445L536.721 119.087C536.075 118.84 535.708 118.689 535.488 118.386C535.282 118.029 535.194 117.657 535.121 117.121C535.091 116.874 535.018 116.64 535.003 116.42C534.974 116.048 535.136 115.746 535.532 115.457C535.738 115.32 536.002 115.182 536.325 115.072C536.633 114.962 536.956 115.003 537.338 115.031C541.64 115.622 544.871 117.96 547.793 120.339C549.966 122.126 551.919 124.106 553.828 126.072L553.755 126.141H553.74Z" fill="#242021"/>
<path d="M354.677 224.73C354.491 224.773 354.362 224.845 354.191 224.888C354.019 224.931 353.919 225.061 353.762 225.118C353.433 225.32 353.018 225.737 352.732 226.083C352.102 226.817 351.73 227.666 351.587 228.659C351.487 229.379 351.63 230.142 351.773 230.933C352.217 233.769 354.019 236.806 356.494 239.008C357.581 240.001 358.897 240.793 360.242 241.282C361.114 241.628 361.987 241.901 362.902 242.089C363.803 242.247 364.748 242.535 365.735 242.549C366.35 242.592 366.364 242.794 365.892 243.283C365.663 243.542 365.305 243.859 364.833 244.176C364.59 244.348 364.318 244.507 364.018 244.636C363.861 244.708 363.703 244.751 363.546 244.852C363.389 244.881 363.217 244.924 363.045 244.924C361.829 245.054 360.585 245.025 359.383 244.78C358.21 244.478 357.08 244.032 356.022 243.456C353.89 242.362 352.059 240.736 350.743 238.72C349.184 236.374 347.41 233.841 347.067 230.66C346.881 228.947 347.067 227.09 347.811 225.464C348.183 224.658 348.626 223.88 349.184 223.218C349.456 222.873 349.728 222.556 350.042 222.268L350.5 221.822C350.672 221.678 350.886 221.534 351.072 221.405C353.003 220.009 355.335 219.836 357.281 220.109C360.27 220.599 362.831 221.966 365.119 223.564C366.908 224.787 368.681 226.04 370.198 227.666C370.555 228.011 370.884 228.357 371.185 228.746C371.743 229.465 372 230.027 372 230.516C372 230.991 371.771 231.394 371.299 231.84C371.084 232.042 370.884 232.272 370.655 232.445C369.854 233.006 368.824 232.819 368.066 232.027C366.85 230.89 365.663 229.796 364.419 228.774C363.16 227.767 361.829 226.846 360.456 226.126C359.441 225.579 358.382 225.161 357.366 224.931C356.365 224.687 355.378 224.643 354.72 224.845L354.677 224.73Z" fill="#242021"/>
<path d="M463.88 247.2C463.171 247.559 462.462 247.919 461.65 248.181C461.252 248.319 460.883 248.471 460.455 248.568L459.17 248.83C458.757 248.927 458.299 248.955 457.856 248.969C457.398 248.982 456.97 249.01 456.498 248.996C456.011 248.941 455.523 248.872 455.066 248.789L453.885 248.457C452.792 248.098 451.759 247.808 450.843 247.338C449.234 246.482 447.728 245.556 446.281 244.589C444.82 243.636 443.417 242.627 442.059 241.591C440.848 240.68 439.578 239.823 438.368 238.925C436.773 237.834 435.267 236.563 434.13 234.919C433.791 234.407 434.145 234.242 434.839 234.269C435.518 234.325 436.625 234.435 437.6 234.905C438.471 235.319 439.283 235.803 440.095 236.3L442.561 237.737C444.199 238.704 445.853 239.657 447.403 240.776C449.278 242.089 451.567 242.931 453.634 243.733C454.756 244.161 455.907 244.562 456.719 244.575C457.221 244.52 457.723 244.575 458.24 244.423C458.506 244.354 458.771 244.327 459.022 244.244L459.805 243.94C461.089 243.415 462.389 242.655 463.525 241.674C465.268 240.237 466.892 238.524 468.073 236.59C468.959 235.071 469.534 233.427 469.933 231.865C470.022 231.52 470.036 231.175 470.125 230.843C470.42 229.627 470.73 229.448 472.103 229.199C472.413 229.144 472.723 229.061 473.033 229.02C473.55 228.95 474.023 229.061 474.377 229.406C474.731 229.738 475.012 230.36 474.997 231.009C475.041 232.998 474.584 234.877 473.875 236.632C473.152 238.386 472.03 239.975 470.819 241.481C468.973 243.705 466.744 245.708 463.939 247.297L463.865 247.2H463.88Z" fill="#242021"/>
<path d="M477.011 231.092C476.008 231.537 474.869 231.889 473.656 231.97C473.057 231.997 472.458 232.037 471.859 231.929L470.96 231.781C470.69 231.727 470.496 231.646 470.256 231.578C468.458 231.024 467.14 230.349 465.792 229.674C464.804 229.188 463.815 228.782 462.886 228.256C459.666 226.378 456.655 224.339 453.585 222.394C452.222 221.53 450.799 220.76 449.391 220.004C448.492 219.518 447.548 219.072 446.665 218.559C445.796 218.005 444.927 217.465 444.178 216.763C443.804 216.168 444.013 215.993 444.867 215.682C445.706 215.385 447.009 215.223 448.162 215.615C452.102 217.249 455.831 219.167 459.366 221.395C461.478 222.732 463.935 223.718 466.227 224.771C467.485 225.366 468.743 225.906 469.971 226.392C470.585 226.608 471.185 226.811 471.709 226.946C471.993 227.027 472.128 227 472.353 227.067C472.563 227.067 472.772 227.067 472.982 227.027C474.015 226.892 475.199 226.149 476.202 225.095C477.715 223.475 478.928 221.354 479.602 219.14C480.112 217.411 480.097 215.588 479.977 213.926C479.947 213.562 479.857 213.211 479.827 212.86C479.662 211.604 480.112 211.441 481.49 210.753C481.804 210.604 482.104 210.402 482.403 210.239C482.928 209.969 483.467 209.902 484.051 210.172C484.605 210.429 485.13 210.982 485.399 211.685C486.088 213.751 486.103 215.736 485.849 217.694C485.579 219.653 484.98 221.57 484.111 223.448C483.452 224.839 482.643 226.216 481.565 227.553C480.471 228.877 479.138 230.227 477.116 231.2L477.041 231.092H477.011Z" fill="#242021"/>
<path d="M369.838 232.051C370.719 227.862 372.084 223.836 373.919 219.947C374.579 218.532 375.211 217.077 376.091 215.717C377.647 213.35 379.511 211.038 382.124 209.216C383.43 208.332 384.942 207.57 386.645 207.203C387.511 207.067 388.362 206.945 389.242 207.026C389.639 207.026 390.182 207.121 390.696 207.257C391.209 207.353 391.65 207.665 392.105 207.883C393.616 208.876 394.277 210.222 394.761 211.419C395.216 212.643 395.525 213.854 395.686 215.05C396.141 218.097 396.229 221.184 395.07 224.081C394.644 224.979 394.615 224.829 394.189 224.027C393.675 223.211 392.897 221.769 392.604 220.164C392.295 218.736 392.222 217.335 391.884 216.002C391.576 214.683 391.165 213.391 390.622 212.453C390.49 212.235 390.343 212.045 390.211 211.854C390.064 211.759 389.947 211.528 389.844 211.514C389.624 211.31 389.609 211.433 389.375 211.338C388.362 211.31 387.305 211.338 386.16 211.841C384.78 212.385 383.503 213.541 382.417 214.86C381.331 216.193 380.421 217.716 379.584 219.267C377.706 222.68 376.267 226.42 375.269 230.242C374.667 232.595 374.198 234.988 374.051 237.368C373.978 238.538 373.978 239.694 374.095 240.796C374.154 241.34 374.256 241.87 374.418 242.319C374.55 242.809 374.726 242.999 375.005 243.271C375.886 243.924 377.001 244.427 378.043 244.481C379.232 244.563 380.436 244.101 381.581 243.407C382.726 242.713 383.812 241.789 384.927 240.85C385.426 240.429 385.881 239.98 386.41 239.545C388.362 237.94 389.492 237.845 390.637 238.538C390.901 238.701 391.209 238.837 391.415 239.028C392.119 239.694 391.752 240.809 390.593 242.101C388.714 243.91 386.806 245.937 383.694 247.609C382.153 248.412 380.084 249.119 377.779 248.983C377.207 248.956 376.634 248.902 376.106 248.752C375.563 248.616 375.005 248.494 374.535 248.262C374.066 248.045 373.523 247.854 373.126 247.582C372.686 247.31 372.363 247.106 371.791 246.712L371.747 246.671C371.394 246.29 370.969 245.964 370.675 245.529C370.426 245.107 370.044 244.631 369.927 244.25C369.574 243.461 369.427 242.809 369.281 242.142C369.061 240.864 368.987 239.694 369.002 238.552C369.016 236.267 369.31 234.118 369.692 231.983H369.809L369.838 232.051Z" fill="#242021"/>
<path d="M234.461 230.909C232.949 231.691 231.129 232.13 229.35 231.966C227.572 231.828 225.864 231.156 224.533 230.127C223.567 229.372 222.671 228.521 222.083 227.478C221.103 225.653 220.809 223.471 221.117 221.728C221.383 219.944 221.957 218.229 222.909 216.719C223.735 215.374 224.814 214.125 226.172 213.247C227.88 212.039 230.135 211.737 232.011 212.218C232.613 212.355 232.445 212.849 231.955 213.384C231.717 213.659 231.395 213.933 231.045 214.208C230.709 214.523 230.331 214.729 229.967 214.908C229.631 215.045 229.308 215.182 229.028 215.388C228.72 215.539 228.468 215.731 228.202 215.896C227.698 216.294 227.236 216.719 226.858 217.254C226.088 218.311 225.542 219.642 225.192 221.083C224.996 221.948 225.01 222.894 225.192 223.649C225.388 224.432 225.808 225.118 226.284 225.708C227.362 227.011 229.126 227.643 230.877 227.204C231.395 227.053 231.997 226.847 232.431 226.531C232.879 226.257 233.285 225.872 233.635 225.392C234.699 223.951 235.26 221.838 234.98 219.944C234.77 218.448 233.705 217.295 232.893 217.035C232.725 216.925 232.501 217.021 232.361 216.925C231.731 216.815 231.423 216.582 230.975 215.292C230.877 215.004 230.737 214.715 230.639 214.441C230.485 213.961 230.499 213.494 230.793 213.11C231.101 212.753 231.619 212.314 232.445 212.273C233.061 212.273 233.705 212.19 234.363 212.41C234.685 212.492 235.022 212.588 235.344 212.712C235.666 212.835 235.946 213.014 236.24 213.192C237.444 213.919 238.228 214.99 238.83 216.047C239.965 218.201 240.147 220.424 239.909 222.551C239.698 224.13 239.208 225.694 238.382 227.19C237.57 228.658 236.142 230.127 234.517 231.005L234.447 230.909H234.461Z" fill="#242021"/>
<path d="M386.568 153.408C383.304 154.551 380.039 155.789 376.789 157.069C375.607 157.531 374.484 158.13 373.288 158.579C369.093 160.226 364.823 161.737 360.584 163.342C358.693 164.037 356.876 164.867 355.029 165.602C352.651 166.513 350.302 167.575 347.687 167.97C346.875 168.106 346.845 167.779 347.274 167.099C347.48 166.758 347.805 166.323 348.219 165.847C348.618 165.357 349.135 164.88 349.785 164.554C354.246 161.982 358.959 159.967 363.848 158.117C366.788 157.014 369.624 155.476 372.535 154.17C375.74 152.741 378.975 151.339 382.255 149.992C384.264 149.162 386.302 148.359 388.356 147.556C391.473 146.358 394.649 145.283 398.091 144.507C399.45 144.235 400.809 143.895 402.567 144.031C403.645 144.194 403.956 144.262 404.546 144.303C405.108 144.358 405.713 144.385 406.437 144.48C407.058 144.562 407.796 144.643 408.55 144.943C409.953 145.501 410.662 146.263 410.899 146.834C411.12 147.433 410.972 147.95 410.515 148.522C410.308 148.781 410.116 149.066 409.865 149.284C409.023 150.033 407.796 149.788 406.969 149.584C406.349 149.434 405.906 149.475 404.798 149.407C404.266 149.379 403.616 149.325 402.907 149.216C402.552 149.162 402.168 149.08 401.799 148.998C401.592 148.985 401.666 149.026 401.548 148.998C401.119 149.012 400.233 149.121 399.287 149.352C398.342 149.57 397.323 149.842 396.289 150.182C393.186 151.135 389.877 152.224 386.642 153.476L386.583 153.367L386.568 153.408Z" fill="#242021"/>
<path d="M478.241 175.377C481.005 177.252 483.696 179.249 486.313 181.368C487.6 182.495 488.916 183.555 490.113 184.859L491.03 185.797C491.326 186.123 491.621 186.53 491.902 186.897L492.76 188.025C493.041 188.405 493.248 188.881 493.484 189.302C494.815 191.842 495.303 194.763 494.815 197.385C493.972 202.031 491.488 205.835 488.561 209.109C488.176 209.517 487.807 209.924 487.407 210.305L486.786 210.916C486.52 211.201 486.18 211.473 485.855 211.704L484.894 212.451C484.569 212.682 484.199 212.831 483.8 212.913C483.001 213.09 482.173 212.981 481.39 212.736C480.621 212.465 479.882 212.084 479.202 211.609C478.832 211.337 478.655 211.228 478.418 211.038L477.767 210.508C476.91 209.802 476.141 209.082 475.357 208.375C472.637 205.849 469.887 203.471 467.004 201.338C463.278 198.58 459.301 196.434 454.983 194.559C453.623 193.975 453.786 193.88 455.19 193.635C456.55 193.391 459.389 193.038 462.243 194.07C467.166 196.026 471.513 198.879 475.269 202.004C477.087 203.512 478.906 205.033 480.739 206.541C481.168 206.881 481.612 207.221 481.996 207.492C482.055 207.574 482.114 207.655 482.218 207.723C482.306 207.805 482.44 207.873 482.573 207.859C482.691 207.832 482.809 207.764 482.942 207.696L483.016 207.642L483.194 207.492L483.563 207.166C483.8 206.949 484.036 206.704 484.258 206.46C484.731 205.998 485.145 205.468 485.574 204.966C486.387 203.919 487.112 202.805 487.718 201.664C488.886 199.368 489.596 196.896 489.433 194.654C489.344 193.418 489.063 192.223 488.398 191.163C487.733 190.076 486.831 189.016 485.722 187.957C485.219 187.413 484.643 186.897 484.036 186.394C483.445 185.892 482.868 185.362 482.247 184.873C480.976 183.908 479.763 182.889 478.433 181.979C475.239 179.643 471.853 177.482 468.438 175.377C463.219 172.239 457.852 169.223 452.322 166.628C448.034 164.604 443.599 163.028 439.178 161.56C438.202 161.248 437.241 160.949 436.25 160.637C432.628 159.441 431.637 158.843 431.253 157.268C431.164 156.914 431.016 156.548 431.001 156.221C430.972 155.664 431.401 155.298 432.243 155.121C433.057 154.958 434.328 154.917 435.777 155.27C444.471 157.213 452.81 160.936 460.868 165.066C466.841 168.163 472.652 171.586 478.285 175.282L478.211 175.39L478.241 175.377Z" fill="#242021"/>
<path d="M387.13 244.942C387.216 240.107 388.224 235.681 389.506 231.31C389.981 229.716 390.369 228.109 391.017 226.557C392.126 223.819 393.451 221.15 395.193 218.617C396.057 217.35 397.065 216.138 398.275 215.008C398.88 214.45 399.542 213.905 400.32 213.442C400.694 213.183 401.097 213.02 401.5 212.843C401.918 212.679 402.264 212.448 402.753 212.366C404.28 211.848 406.195 211.876 407.764 212.475C409.334 213.088 410.601 214.068 411.465 215.185C413.682 218.059 414.791 221.286 414.993 224.555C415.05 225.576 414.762 225.481 414.129 224.773C413.74 224.337 413.294 223.846 412.847 223.356C412.3 222.784 411.738 222.131 411.292 221.395C409.723 218.794 407.246 216.615 405.892 216.479C405.23 216.397 404.438 216.656 403.3 217.16C402.364 217.636 401.284 218.59 400.32 219.679C397.958 222.376 396.547 226.162 395.294 229.771C393.912 233.775 392.861 237.955 392.457 242.136C392.342 243.417 392.285 244.697 392.342 245.936C392.4 247.162 392.587 248.401 393.005 249.327C393.149 249.654 393.264 249.845 393.422 250.035C393.595 250.226 393.797 250.376 394.041 250.457C395.251 250.893 396.763 251.152 398.116 250.989C399.499 250.866 400.824 250.267 402.033 249.477C403.257 248.673 404.308 247.611 405.244 246.426C406.195 245.269 407.044 244.002 407.879 242.722C408.254 242.15 408.571 241.564 408.959 240.992C410.399 238.882 411.22 238.378 412.631 238.609C412.962 238.664 413.308 238.677 413.596 238.786C414.575 239.113 414.69 240.42 413.884 242.191C412.646 244.792 411.105 247.393 408.931 249.913C407.851 251.166 406.583 252.378 404.999 253.44C403.473 254.516 401.544 255.415 399.398 255.782L398.476 255.946L397.54 255.987C396.907 256 396.273 256.028 395.669 255.919C395.064 255.823 394.43 255.782 393.869 255.619L392.011 255.074C391.694 254.952 391.406 254.747 391.089 254.611C390.773 254.461 390.485 254.298 390.226 254.066C389.678 253.644 389.246 253.14 388.858 252.582C388.109 251.465 387.85 250.635 387.59 249.749C387.144 248.033 387.014 246.494 387 244.996H387.13V244.942Z" fill="#242021"/>
<path d="M533.609 124.947C533.364 125.692 533.17 126.477 533.037 127.288C532.976 127.589 533.006 127.889 532.955 128.19C532.792 129.25 532.679 130.348 532.679 131.447C532.659 131.944 532.71 132.428 532.751 132.912C532.832 133.527 532.945 134.128 532.914 134.782C532.904 134.992 532.669 135.044 532.383 134.965C532.107 134.887 531.759 134.665 531.626 134.311C531.207 133.043 530.9 131.696 531.043 130.296C531.105 129.472 530.982 128.622 531.002 127.772C531.033 126.843 531.125 125.915 531.268 124.999C531.36 124.437 531.473 123.874 531.606 123.325C531.79 122.488 532.076 121.677 532.301 120.853C532.495 120.212 532.567 119.506 532.761 118.826C532.802 118.669 532.822 118.512 532.884 118.368C533.129 117.871 533.415 117.897 533.967 118.329C534.09 118.433 534.223 118.525 534.346 118.629C534.744 118.996 534.98 119.506 535 119.911C534.959 121.036 534.601 121.821 534.315 122.776C534.09 123.469 533.855 124.188 533.681 124.96H533.62L533.609 124.947Z" fill="#242021"/>
<path d="M578.346 165.795C581.949 173.541 584.994 181.504 587.347 189.658C588.2 192.631 589.112 195.618 589.701 198.672C590.686 204.058 591.318 209.567 590.833 215.199C590.554 218.008 590.024 220.899 588.597 223.667C587.891 225.044 586.906 226.394 585.582 227.485C585.244 227.744 584.876 227.99 584.523 228.235L583.361 228.862L582.17 229.34C581.758 229.462 581.346 229.585 580.934 229.681C577.949 230.362 574.933 229.872 572.345 228.972C569.741 228.044 567.417 226.722 565.358 225.181C560.093 221.24 555.768 216.113 553.812 210.099C553.268 208.204 553.827 208.367 554.989 209.622C555.636 210.29 556.46 211.122 557.401 212.09C557.901 212.581 558.431 213.113 558.99 213.658C559.563 214.204 560.152 214.776 560.696 215.417C562.696 217.654 564.961 219.658 567.417 221.335C569.874 222.972 572.477 224.39 575.051 225.003C577.596 225.617 580.008 225.303 581.64 224.09C583.302 222.999 584.538 220.572 585.17 217.872C585.95 214.613 585.891 210.945 585.45 207.317C585.023 203.676 584.2 200.022 583.347 196.395C581.42 188.431 578.655 180.577 575.331 172.941C573.271 168.236 571.021 163.6 568.506 159.1C564.696 152.268 560.446 145.586 555.415 139.586C551.503 134.923 547.017 130.846 542.178 127.341C541.119 126.564 540.016 125.882 538.927 125.173C536.898 123.837 535.53 123.032 534.677 122.282C533.824 121.519 533.441 120.85 533.25 120.005C533.162 119.623 533 119.2 533 118.86C533 118.273 533.574 117.987 534.677 118C535.78 118 537.383 118.382 539.236 119.241C544.708 121.791 549.547 125.5 553.827 129.646C558.122 133.805 561.902 138.427 565.329 143.227C570.418 150.373 574.698 157.968 578.463 165.727L578.331 165.795H578.346Z" fill="#242021"/>
<path d="M426.78 141.244C423.475 142.129 420.256 143.883 417.315 146.046C414.373 148.236 411.665 150.793 409.248 153.582C407.471 155.622 405.971 157.853 404.515 160.07C403.03 162.328 401.748 164.681 400.772 167.062C400.321 168.245 399.942 169.456 399.797 170.558C399.739 171.102 399.709 171.632 399.797 171.986C399.797 172.204 399.942 172.476 400.146 172.639L400.438 172.843C400.598 172.911 400.758 172.979 400.904 173.061C401.238 173.169 401.588 173.292 401.996 173.346C402.797 173.455 403.699 173.469 404.631 173.306C406.51 173.061 408.461 172.353 410.34 171.524C414.242 169.728 417.897 167.198 421.174 164.423C425.353 160.791 429.066 156.751 432.387 152.426C433.697 151.188 433.464 151.269 433.45 152.875C433.45 153.677 433.217 154.765 432.853 156.071C432.445 157.35 431.76 158.764 430.799 160.138C429.096 162.587 427.086 164.818 424.887 166.885C422.717 168.966 420.358 170.898 417.81 172.653C415.203 174.326 412.422 175.836 409.248 176.91C407.66 177.427 405.971 177.849 404.093 177.971C402.243 178.094 400.103 177.849 398.18 176.801C397.991 176.706 397.831 176.584 397.642 176.461C397.423 176.312 397.205 176.162 396.986 176.012C396.506 175.482 395.938 175.019 395.661 174.353C395.312 173.768 395.152 172.952 395.05 172.408C394.948 171.279 395.006 170.245 395.195 169.306C395.545 167.416 396.142 165.729 396.826 164.083C398.224 160.818 399.986 157.771 402.025 154.929C404.369 151.691 407.02 148.644 410.019 145.896C413.005 143.135 416.325 140.646 420.125 138.755C422.455 137.599 424.989 136.688 427.683 136.252C430.392 135.803 433.188 136.007 435.692 136.443C439.551 137.082 443.235 138.157 446.847 139.354C450.458 140.537 453.968 141.925 457.419 143.366C462.778 145.624 468.034 147.923 473.058 150.807C474.18 151.405 475.243 152.086 476.335 152.779C478.315 154.112 479.509 155.146 480.208 156.017C480.878 156.928 481.067 157.622 480.98 158.397C480.936 158.751 480.951 159.145 480.834 159.431C480.412 160.397 478.505 159.717 475.752 157.975C467.525 152.861 458.045 148.359 448.216 144.808C444.56 143.53 440.833 142.36 437.134 141.557C436.216 141.367 435.284 141.163 434.382 141.054L433.027 140.864L431.746 140.782C430.071 140.7 428.484 140.891 426.824 141.34L426.78 141.231V141.244Z" fill="#242021"/>
<path d="M413.266 254.324C411.56 251.633 411.189 248.968 411.026 246.457C410.922 243.931 411.13 241.489 411.59 239.088C411.916 237.34 412.213 235.592 412.806 233.899C413.888 230.929 415.208 228.001 417.729 225.393C418.397 224.754 419.123 224.13 420.102 223.644C421.081 223.2 422.282 222.895 423.498 223.034C424.684 223.186 425.767 223.672 426.553 224.324C427.354 224.976 427.902 225.726 428.347 226.461C429.83 229.112 430.349 231.776 430.779 234.398C431.284 237.756 431.536 241.17 430.676 244.514C430.32 245.555 430.32 245.388 429.993 244.514C429.578 243.626 428.866 242.058 428.481 240.212C427.858 236.965 427.265 233.705 426.093 230.874C425.544 229.486 424.759 228.196 424.032 227.627C423.676 227.335 423.439 227.294 423.201 227.252C423.009 227.21 422.727 227.28 422.237 227.502C421.036 228.043 419.805 229.667 418.975 231.359C418.13 233.08 417.492 234.981 416.988 236.882C416.424 238.977 416.024 241.128 415.89 243.265C415.742 245.402 415.846 247.567 416.395 249.509C416.736 250.703 417.255 251.799 417.981 252.59C418.797 253.436 419.865 254.172 421.036 254.616C424.64 256.031 429.252 255.268 433.286 253.811C436.474 252.659 439.366 250.953 442.332 249.274C442.984 248.899 443.607 248.496 444.289 248.15C446.825 246.831 447.967 246.734 449.064 247.719C449.316 247.941 449.598 248.15 449.791 248.399C450.369 249.274 449.732 250.328 448.071 251.424C443.044 254.671 437.141 258.016 429.875 259.528C427.176 260.041 424.18 260.263 421.081 259.528C419.553 259.153 418.041 258.529 416.691 257.683L415.712 257.016L414.823 256.267C414.229 255.74 413.607 255.032 413.177 254.38L413.28 254.311L413.266 254.324Z" fill="#242021"/>
<path d="M290.303 172.612C285.115 181.909 280.595 191.382 277.189 201.332C275.943 204.953 274.972 208.642 274.016 212.317C272.335 218.796 271.075 225.397 270.872 231.972C270.77 235.252 270.944 238.532 271.669 241.622C272.031 243.16 272.524 244.644 273.248 245.991L273.828 246.958L274.494 247.843L275.248 248.632C275.494 248.768 275.682 249.027 275.929 249.095C276.74 249.53 277.87 249.517 279.131 249.027C280.377 248.564 281.623 247.788 282.783 246.89C285.101 245.079 287.231 242.915 289.173 240.629C291.679 237.688 293.896 234.517 295.968 231.264C297.012 229.644 298.026 227.997 298.968 226.336C299.446 225.506 299.895 224.662 300.33 223.818C300.765 222.974 301.286 222.158 301.663 221.3C302.605 219.177 302.735 219.395 302.793 221.572C302.764 222.634 302.793 224.227 302.3 225.996C301.866 227.779 301.17 229.807 300.113 231.863C298.185 235.483 295.997 238.954 293.476 242.289C290.911 245.597 288.216 248.863 284.275 251.504C283.304 252.171 282.188 252.77 280.928 253.26C279.624 253.723 278.146 254.117 276.392 253.968C274.639 253.818 272.886 252.933 271.785 251.912C270.828 251.014 270.002 250.034 269.365 249C266.815 244.848 266.177 240.479 266.032 236.327C265.873 231.332 266.322 226.377 267.032 221.45C267.785 216.536 268.829 211.65 270.205 206.899C273.234 196.473 277.392 186.36 282.42 176.696C285.478 170.761 288.767 164.922 292.273 159.191C297.649 150.562 303.532 142.082 310.937 134.759C313.849 131.955 316.95 129.246 320.906 127.381C322.891 126.483 325.209 125.843 327.701 126.034C328.933 126.156 330.194 126.456 331.295 127.014C331.57 127.163 331.846 127.272 332.135 127.449C332.425 127.653 332.744 127.858 333.019 128.089C333.266 128.334 333.526 128.579 333.744 128.838L334.323 129.641C335.454 131.574 335.83 133.452 335.961 135.29C336.135 138.692 335.7 140.789 335.28 142.245C334.801 143.688 334.251 144.464 333.512 145.022C333.179 145.28 332.831 145.634 332.541 145.757C331.527 146.192 331.295 143.538 331.338 139.182C331.338 137.576 331.251 135.984 330.962 134.541C330.701 133.125 330.107 131.819 329.556 131.465C329.411 131.383 329.368 131.329 329.02 131.192L328.629 131.002L328.209 130.893C327.672 130.716 327.093 130.702 326.499 130.689C325.282 130.757 323.92 131.179 322.543 131.859C321.166 132.526 319.804 133.438 318.486 134.473C317.167 135.494 315.878 136.637 314.646 137.862C312.168 140.285 309.85 142.966 307.662 145.77C301.141 154.101 295.49 163.275 290.39 172.667L290.274 172.626L290.303 172.612Z" fill="#242021"/>
<path d="M104.355 201.462C103.78 190.184 103.928 178.905 104.62 167.668C104.841 164.855 104.988 162.07 105.254 159.229C105.519 156.389 105.872 153.577 106.285 150.777C107.095 145.165 108.126 139.622 109.304 134.092C111.013 126.036 112.854 118.007 115.138 110.087C119.218 96.1464 124.05 82.3691 130.089 69.0015C133.124 62.3246 136.453 55.7432 140.327 49.3802C142.256 46.1988 144.348 43.0856 146.646 40.0816C148.929 37.0777 151.448 34.1693 154.321 31.5067C156.869 29.1582 159.727 26.9735 163.071 25.3349C166.385 23.6964 170.318 22.6723 174.339 23.0956C178.39 23.4779 182.132 25.5261 184.665 28.1068C187.273 30.6738 189.158 33.6368 190.602 36.6544C192.443 40.5459 193.784 44.5739 194.726 48.6429C195.669 52.7119 196.361 56.8219 196.686 60.9455C197.024 65.0691 197.083 69.2064 196.892 73.33C196.803 75.3918 196.627 77.4399 196.406 79.5017C196.155 81.5499 195.728 83.5844 195.271 85.5916C194.697 88.104 194.181 89.1417 193.931 89.0325C193.651 88.9096 193.592 87.6397 193.401 85.4687C192.929 81.1266 192.104 73.4255 191.132 64.3044C190.896 62.2973 190.617 60.3037 190.293 58.3375C189.998 56.3576 189.63 54.3914 189.202 52.4388C188.363 48.5473 187.199 44.7378 185.667 41.1876C184.135 37.6648 182.132 34.3605 179.613 32.0802C178.346 30.9605 177.006 30.1549 175.592 29.718C174.177 29.2811 172.719 29.1718 171.055 29.3903C167.814 29.7453 164.426 31.4657 161.377 33.8279C158.298 36.1901 155.514 39.1531 152.936 42.2936C147.795 48.6429 143.509 55.8114 139.59 63.1848C134.95 72.0191 131.047 81.4816 127.644 91.1352C124.241 100.802 121.324 110.675 118.747 120.533C115.933 131.375 113.547 142.325 112.015 153.344C111.632 156.103 111.322 158.847 111.087 161.605L110.498 169.962C110.38 172.747 110.218 175.533 110.129 178.318C110.085 181.104 109.982 183.903 109.997 186.688C109.997 193.556 110.247 200.425 110.719 207.279C111.249 214.12 112.015 220.961 113.075 227.747C114.769 238.015 117.053 248.242 120.338 258.155C121.928 263.125 123.873 267.986 126.053 272.724C128.248 277.462 130.737 282.064 133.698 286.338C135.981 289.669 138.603 292.769 141.564 295.404C144.495 298.039 148.046 300.088 151.596 300.511C152.465 300.497 153.334 300.566 154.159 300.333L154.777 300.224L155.455 300.006C155.912 299.869 156.354 299.719 156.781 299.514C158.519 298.804 160.139 297.807 161.598 296.619C164.529 294.23 166.827 291.089 168.683 287.717C170.333 284.74 171.555 281.613 172.69 278.35C174.752 272.274 175.665 268.096 176.578 265.214C177.433 262.32 178.243 260.681 179.259 259.398C179.716 258.811 180.187 258.019 180.57 257.691C181.219 257.131 181.602 258.21 181.719 260.668C181.852 263.125 181.484 266.921 180.453 271.769C178.847 278.91 176.593 286.188 172.277 293.028C170.097 296.415 167.298 299.692 163.542 302.259C161.656 303.515 159.521 304.566 157.252 305.263L156.398 305.522C156.074 305.59 155.735 305.659 155.396 305.713C154.718 305.823 154.026 305.986 153.349 306C152.671 306 151.993 306 151.301 305.973C150.609 305.973 150.005 305.795 149.342 305.686C148.001 305.508 146.897 305.017 145.703 304.621C144.613 304.129 143.523 303.624 142.522 303.037C140.562 301.849 138.78 300.511 137.189 299.064C134.007 296.183 131.341 293.001 129.029 289.683C124.359 283.047 120.868 275.933 117.863 268.696C109.187 247.081 105.474 224.21 104.119 201.49L104.267 201.449L104.355 201.462Z" fill="#242021"/>
<g opacity="0.45">
<path d="M689.921 100.836C693.426 102.992 697.369 104.616 701.429 105.584C702.539 105.857 703.809 105.721 704.802 105.175C705.708 104.684 706.584 103.701 706.818 102.732C707.343 100.604 706.131 98.27 703.751 97.6969C702.071 97.2875 700.436 96.7689 698.829 96.1412L699.881 96.5506C697.938 95.7727 696.098 94.8448 694.331 93.7667C693.411 93.2072 691.995 93.0844 690.958 93.3573C689.921 93.6302 688.84 94.3535 688.344 95.2405C687.19 97.2875 687.876 99.5801 689.921 100.836Z" fill="#242021"/>
</g>
<g opacity="0.45">
<path d="M622.581 200.018L627.488 194.655C627.911 194.286 628.218 193.849 628.393 193.331C628.671 192.84 628.788 192.321 628.773 191.748C628.802 191.188 628.671 190.656 628.393 190.165C628.218 189.66 627.911 189.223 627.488 188.841C626.655 188.132 625.56 187.599 624.392 187.64C623.223 187.681 622.041 188.022 621.296 188.841L616.389 194.204C615.965 194.573 615.659 195.009 615.483 195.528C615.206 196.019 615.089 196.538 615.104 197.111C615.074 197.67 615.206 198.203 615.483 198.694C615.659 199.199 615.965 199.636 616.389 200.018C617.221 200.727 618.317 201.259 619.485 201.219C620.653 201.178 621.836 200.836 622.581 200.018Z" fill="#242021"/>
</g>
<path d="M699.667 161.804L703.277 156.687C703.661 156.183 703.868 155.626 703.9 155.04C704.06 154.455 704.028 153.87 703.804 153.271C703.645 152.7 703.341 152.196 702.878 151.761C702.511 151.284 702.031 150.903 701.424 150.617C700.226 150.073 698.757 149.801 697.431 150.168C696.106 150.536 695.035 151.189 694.333 152.196L690.723 157.313C690.339 157.817 690.132 158.374 690.1 158.96C689.94 159.545 689.972 160.13 690.196 160.729C690.355 161.3 690.659 161.804 691.122 162.239C691.489 162.716 691.969 163.097 692.576 163.383C693.774 163.927 695.243 164.199 696.569 163.832C697.894 163.464 698.965 162.811 699.667 161.804Z" fill="#242021"/>
<path d="M610.193 138.27C614.551 140.315 618.894 142.359 623.253 144.403C624.369 144.922 625.515 145.188 626.737 144.848C627.792 144.566 628.923 143.766 629.436 142.803C630.507 140.818 630.1 137.796 627.807 136.73C623.449 134.685 619.106 132.641 614.747 130.597C613.631 130.078 612.485 129.812 611.263 130.152C610.208 130.434 609.077 131.234 608.564 132.197C607.493 134.182 607.9 137.204 610.193 138.27Z" fill="#242021"/>
<path d="M383.686 74.2132C382.96 74.037 382.873 73.2506 383.134 72.1389C383.222 71.7864 383.889 71 384.136 71C384.63 71 385.124 71 385.574 71.0813C385.85 71.1085 389.349 72.871 390.583 73.454C391.774 74.0234 392.848 74.7284 393.879 75.4741C395.984 77.0333 398.104 78.5925 400.108 80.355C400.558 80.7346 400.935 81.1956 401.269 81.6701C402.431 83.3242 403.767 84.8155 405.204 86.2798C405.451 86.5103 405.625 86.8086 406.017 86.9441C406.322 87.0526 407.382 88.1779 408.253 89.4388C409.182 90.6726 409.908 92.0148 410.039 92.3537C410.504 94.062 411.157 95.6483 411.491 97.3431C411.549 97.5871 411.738 97.7769 411.564 98.0887C411.157 98.8073 411.477 99.2276 411.636 99.7157C411.869 100.394 411.941 101.126 411.999 101.858C412.014 102.224 411.825 102.671 411.723 103.078C411.622 103.458 410.794 103.593 410.663 103.525C410.286 103.336 410.025 103.715 409.72 103.864C409.618 103.919 409.473 103.986 409.386 104C409.241 104 405.582 101.261 405.451 100.882C405.349 100.787 402.228 96.0822 401.763 95.6754C401.531 95.4314 401.502 95.0789 401.414 94.74C401.4 94.6586 400.659 93.7773 399.919 92.9096C399.149 92.069 398.38 91.2149 398.322 91.1471C397.843 90.3878 397.146 89.7777 397.001 88.7473C396.972 88.544 396.826 88.4084 396.71 88.2728C395.65 87.1068 394.75 85.7781 393.705 84.5308C393.196 83.88 392.529 83.3513 391.933 82.7683C391.832 82.6598 391.774 82.5107 391.686 82.3751C391.585 82.2124 391.498 82.0362 391.352 81.9006C389.857 80.5855 388.507 79.067 386.808 77.9146C386.416 77.657 385.022 75.8402 384.543 75.5555C384.281 75.3928 383.962 74.2268 383.657 74.159L383.686 74.2132Z" fill="#242021"/>
<path d="M440.19 89.8484C440.363 90.5045 439.601 90.8255 438.292 90.9931C437.874 91.0489 436.738 90.7558 436.609 90.5464C436.378 90.1276 436.148 89.7088 436.019 89.304C435.918 89.0527 436.249 85.4791 436.407 84.2367C436.508 83.0362 436.867 81.9055 437.241 80.7887C438.061 78.5413 438.91 76.2798 439.989 74.1161C440.219 73.6275 440.521 73.1808 440.881 72.7621C442.118 71.3382 443.053 69.7747 443.93 68.1554C444.074 67.8902 444.276 67.639 444.247 67.276C444.204 66.9689 444.909 65.7684 445.7 64.5958C446.505 63.4372 447.44 62.3204 447.699 62.111C448.404 61.6224 449.066 61.1059 449.727 60.5894C450.404 60.0869 451.094 59.5983 451.785 59.1237C451.972 58.9841 452.087 58.7468 452.446 58.7887C453.266 58.9004 453.554 58.4816 453.942 58.1745C454.474 57.7278 455.093 57.3648 455.769 57.0856C456.1 56.946 456.603 57.0158 457.049 57.0298C457.452 57.0437 457.97 57.9232 457.956 58.0628C457.927 58.4955 458.416 58.691 458.704 58.9981C458.804 59.0958 458.934 59.2354 458.991 59.3331C459.063 59.4448 458.675 60.394 458.258 61.3153C457.855 62.2646 457.452 63.2138 457.308 63.3394C457.294 63.3534 457.049 63.5907 456.747 63.9816C456.431 64.3724 456.014 64.8889 455.582 65.4194C454.777 66.5222 453.942 67.6669 453.827 67.9461C453.683 68.2113 453.367 68.3648 453.108 68.5463C452.935 68.6021 450.936 72.1897 450.85 72.3293C450.289 72.9854 450.044 73.823 449.109 74.2697C448.922 74.3534 448.864 74.521 448.778 74.6745C448.088 75.9727 447.167 77.1453 446.361 78.4017C445.93 79.0298 445.685 79.7557 445.34 80.4258C445.283 80.5514 445.139 80.6352 445.052 80.7468C444.937 80.8864 444.779 81.0121 444.722 81.1656C444.017 82.8128 443.01 84.3623 442.593 86.1212C442.478 86.5121 441.255 88.2012 441.197 88.6898C441.154 88.955 440.075 89.5692 440.162 89.8484H440.19Z" fill="#242021"/>
</svg>
