<svg width="734" height="391" viewBox="0 0 734 391" fill="none" xmlns="http://www.w3.org/2000/svg">
<path d="M193 289L201 284L239.5 288L246.5 276.5L252.5 269.5H256L258 271V284L273 269.5L277 271L273 289L279 308H286L289 314.5L284.5 321L279 322.5V327L275 340.5L262 349.5L256 351L252.5 354.5V361.5L249 365L241.5 363.5L238.5 354.5L226 356L214 354.5L212 363.5L207.5 366.5H201L198.5 361.5V352.5L193 347L186 335.5L182 322.5L184 301.5L193 289Z" fill="#BDC4CC"/>
<path d="M455.44 328C442.49 329.64 431.8 331.23 427.38 333.84C417.05 339.94 406.66 341.84 395.68 344.32C393.09 344.9 383.6 349.06 376.22 347.47" stroke="#221F1F" stroke-width="2.5" stroke-linecap="round" stroke-linejoin="round"/>
<path d="M275.509 222.88C284.419 218.68 294.559 211.61 297.589 201.8C297.739 201.31 294.949 201.62 294.729 202.33C291.849 211.68 282.389 218.54 273.859 222.57C272.139 223.38 274.859 223.19 275.509 222.88Z" fill="#221F1F"/>
<path d="M396.65 17.2801C417.4 18.2801 443.81 35.2201 443.8 45.7301C443.8 61.9001 402.44 70.5901 380.28 57.2701C362.09 46.3501 369.11 15.9101 396.65 17.2801Z" fill="#221F1F"/>
<path d="M393.59 60C402.761 62.1411 412.288 62.2605 421.51 60.35C424.844 59.6469 428.098 58.6049 431.22 57.24C433.907 56.1231 436.399 54.5837 438.6 52.68C439.599 51.7433 440.455 50.6652 441.14 49.48C441.737 48.3298 442.078 47.0643 442.14 45.77C442.103 44.4783 441.761 43.2136 441.14 42.08C440.459 40.8001 439.634 39.6023 438.68 38.51C436.699 36.2338 434.483 34.1724 432.07 32.36C427.724 29.0969 423 26.3705 418 24.24C411.63 21.5659 404.947 19.7111 398.11 18.72C396.01 18.45 396.28 17.5 398.24 16.72C401.412 15.6945 404.818 15.6422 408.02 16.57C415.233 18.4714 422.124 21.4302 428.47 25.35C431.668 27.3003 434.681 29.5397 437.47 32.04C438.909 33.3144 440.246 34.6985 441.47 36.18C442.769 37.7059 443.844 39.4098 444.66 41.24C445.218 42.4333 445.556 43.717 445.66 45.03C445.724 46.3559 445.555 47.6828 445.16 48.95C444.369 51.3625 442.963 53.5271 441.08 55.23C439.325 56.8526 437.365 58.2377 435.25 59.35C433.206 60.4552 431.068 61.3756 428.86 62.1C424.068 63.6579 419.106 64.6316 414.08 65C409.104 65.4303 404.095 65.3298 399.14 64.7C392.996 63.9756 387.03 62.164 381.52 59.35C379.387 58.263 377.423 56.8718 375.69 55.22C373.957 53.5377 372.517 51.5773 371.43 49.42C369.279 45.0888 368.578 40.1804 369.43 35.42C370.056 31.7803 371.514 28.3342 373.69 25.35C374.795 23.8811 376.059 22.5395 377.46 21.35C378.885 20.1786 380.439 19.1722 382.09 18.35C383.534 17.604 385.048 17.0011 386.61 16.55C387.839 16.2086 389.093 15.9678 390.36 15.83C391.219 15.7233 392.087 15.7031 392.95 15.77C393.961 15.763 394.944 16.0978 395.74 16.72C396.031 16.9168 396.296 17.1485 396.53 17.41C396.78 17.8 396.32 18.15 395.31 18.41C394.81 18.55 394.17 18.63 393.42 18.8C392.67 18.97 391.79 19.06 390.82 19.28C387.961 19.8158 385.212 20.83 382.69 22.28C380.218 23.7528 378.074 25.7165 376.39 28.05C374.711 30.4081 373.575 33.1092 373.065 35.9588C372.555 38.8085 372.683 41.7358 373.44 44.53C374.611 48.6911 377.246 52.2888 380.86 54.66C382.772 55.9046 384.806 56.9501 386.93 57.78C389.083 58.655 391.304 59.354 393.57 59.87L393.59 60Z" fill="#221F1F"/>
<path d="M462.72 95.53C462.92 94.61 462.19 87.2 459.85 85.53C453.78 81.25 449.36 89.78 449.36 89.78C436.97 83.69 447.72 48.37 447.95 48.27C471.93 37.56 498.47 86.59 462.72 95.53Z" fill="#221F1F"/>
<path d="M466.46 53.4901C464.07 51.4606 461.238 50.0188 458.19 49.2801C457.448 49.1027 456.692 48.9889 455.93 48.9401L454.79 48.8601C454.41 48.8601 454.04 48.8601 453.66 48.9301C453.278 48.9381 452.898 48.9715 452.52 49.0301L451.4 49.2601C451.024 49.3166 450.655 49.4139 450.3 49.5501L449.78 49.7401H449.64C449.5 49.7401 449.47 49.8601 449.43 49.9701L449.37 50.1701L449.22 50.6401L448.95 51.6401L448.45 53.5601L447.51 57.4301C446.392 61.9667 445.606 66.579 445.16 71.2301C444.946 73.5237 444.906 75.8304 445.04 78.1301C445.145 80.3563 445.607 82.5511 446.41 84.6301C446.608 85.0829 446.839 85.5207 447.1 85.9401L447.49 86.5501C447.561 86.6446 447.638 86.7347 447.72 86.8201L447.9 87.0301C448.071 87.2326 448.266 87.4139 448.48 87.5701C448.589 87.6504 448.702 87.7239 448.82 87.7901C448.94 87.7901 449.07 87.9901 449.11 87.7901C449.15 87.5901 449.37 87.3701 449.51 87.1701C449.581 87.0626 449.658 86.9591 449.74 86.8601C449.91 86.6501 450.07 86.4301 450.26 86.2301C450.997 85.3633 451.868 84.6205 452.84 84.0301C454.282 83.1005 456.019 82.7438 457.71 83.0301C458.535 83.1871 459.326 83.4847 460.05 83.9101C460.453 84.1123 460.826 84.3679 461.16 84.6701C461.503 84.9932 461.802 85.3596 462.05 85.7601C462.823 87.0753 463.355 88.5179 463.62 90.0201C463.911 91.418 464.059 92.8421 464.06 94.2701C464.065 94.6159 463.989 94.9581 463.84 95.2701C463.7 95.5801 463.51 95.6801 463.33 95.6101C462.825 95.2875 462.386 94.8698 462.04 94.3801C461.425 93.5588 460.883 92.6855 460.42 91.7701C459.88 90.7701 459.35 89.4901 458.87 88.4501C458.754 88.1461 458.584 87.8651 458.37 87.6201C458.37 87.6201 458.42 87.6201 458.46 87.5001C458.512 87.4375 458.559 87.3706 458.6 87.3001C458.16 87.9201 458.47 87.4701 458.38 87.6101H458.31L458.18 87.5401C458 87.4501 457.82 87.3101 457.65 87.2401C457.062 86.9526 456.388 86.8955 455.76 87.0801C454.96 87.3521 454.237 87.8116 453.65 88.4201C453.47 88.5801 453.3 88.7801 453.13 88.9501C452.871 89.2404 452.627 89.5442 452.4 89.8601C451.69 90.8601 451.04 92.1201 450.4 93.2901C449.88 92.9901 449.22 92.5801 448.64 92.2301C448.042 91.8726 447.465 91.482 446.91 91.0601C446.309 90.689 445.769 90.2269 445.31 89.6901L444.77 89.0501C444.618 88.8716 444.481 88.6809 444.36 88.4801C443.393 87.0021 442.69 85.368 442.28 83.6501C441.561 80.5075 441.315 77.2753 441.55 74.0601C441.982 67.1565 443.05 60.3076 444.74 53.6001C445.02 52.5401 445.31 51.4901 445.62 50.4401L446.14 48.7201C446.209 48.5159 446.296 48.3184 446.4 48.1301C446.471 47.9333 446.576 47.7505 446.71 47.5901L446.9 47.3601V47.3001L446.81 47.2101L447 47.0001L447.53 46.6801C448.7 46.2601 449.21 46.0501 449.93 45.8401L452.07 45.3901C453.505 45.1986 454.957 45.1618 456.4 45.2801C459.247 45.5523 462.01 46.3886 464.53 47.7401C466.658 48.8798 468.631 50.2879 470.4 51.9301C472.146 53.5608 473.727 55.3595 475.12 57.3001C477.205 60.2492 478.817 63.5048 479.9 66.9501C481.007 70.4021 481.445 74.0338 481.19 77.6501C480.981 80.4791 480.224 83.2404 478.96 85.7801C477.647 88.3233 475.794 90.5486 473.53 92.3001C473.03 92.6701 472.53 93.0701 472.05 93.4401C471.57 93.8101 470.99 94.0801 470.44 94.4401C466.3 96.5901 464.7 96.4401 463.55 95.8501C463.276 95.7194 463.018 95.5584 462.78 95.3701C462.49 95.0601 462.73 94.6201 463.39 94.1201C463.798 93.8326 464.225 93.5752 464.67 93.3501C465.21 93.1101 465.8 92.7801 466.47 92.4301L467.96 91.6801L469.35 90.7901L470.05 90.3501C470.28 90.1901 470.48 90.0101 470.69 89.8401L471.97 88.8401C473.54 87.3749 474.855 85.658 475.86 83.7601C477.682 79.6971 478.084 75.1391 477 70.8201C475.521 64.0315 471.775 57.9482 466.38 53.5701L466.46 53.4901Z" fill="#221F1F"/>
<path d="M405.31 150.28C405.86 153.23 406.14 156.35 406.41 159.43C406.68 162.51 406.85 165.63 407.01 168.73C407.31 174.95 407.48 181.18 407.56 187.42C407.56 187.85 410.41 187.81 410.38 187.42C410.3 181.16 410.14 174.9 409.83 168.63C409.67 165.5 409.48 162.37 409.22 159.24C408.96 156.11 408.67 152.98 408.08 149.78C408 149.39 405.24 150 405.31 150.28Z" fill="#232020"/>
<path d="M433.17 179.61C433.17 171.52 433.06 163.45 432.87 155.38C432.68 147.31 432.44 139.24 432.06 131.16C432.06 130.6 429.19 130.75 429.24 131.3C429.61 139.3 429.85 147.39 430.05 155.44C430.25 163.49 430.39 171.56 430.34 179.59C430.34 180 433.17 180.06 433.17 179.61Z" fill="#232020"/>
<path d="M431.27 144.3C429.32 147.75 411.47 155.7 406.65 149.76C406.46 148.15 406.26 147.66 406.05 146.29C416.95 146.96 430.48 133.01 430.68 132.81C430.84 135.8 431 139.69 431.27 144.3Z" fill="#221F1F"/>
<path d="M419 144.41C418.16 144.85 417.33 145.3 416.44 145.66L415.13 146.24L413.76 146.72C412.841 147.045 411.903 147.313 410.95 147.52C410.469 147.632 409.981 147.712 409.49 147.76L408.75 147.86H408.57H408.47C408.58 147.86 408.55 147.86 408.54 147.86H408.46C408.31 147.86 408.1 147.86 408.02 147.86C408.058 148.014 408.081 148.172 408.09 148.33V148.41V148.75V149C408.49 149.469 409.013 149.815 409.6 150C410.446 150.3 411.333 150.472 412.23 150.51C414.204 150.563 416.176 150.345 418.09 149.86C420.034 149.4 421.922 148.73 423.72 147.86C424.858 147.305 425.966 146.69 427.04 146.02C428.055 145.411 429.033 144.743 429.97 144.02C430.19 143.84 430.42 143.88 430.71 144.02C430.89 144.14 431.039 144.302 431.143 144.492C431.248 144.682 431.305 144.894 431.31 145.11C431.317 145.836 431.137 146.552 430.786 147.188C430.436 147.823 429.928 148.358 429.31 148.74C426.882 150.23 424.274 151.406 421.55 152.24C418.802 153.141 415.922 153.577 413.03 153.53C411.712 153.509 410.402 153.324 409.13 152.98C408.429 152.791 407.756 152.509 407.13 152.14C406.777 151.94 406.443 151.709 406.13 151.45C405.78 151.13 405.44 150.75 405.13 150.4L404.98 149.22L404.91 148.81L404.8 148.21C404.63 147.4 404.52 146.62 404.4 145.85L404.32 145.31V145.03C404.32 145.03 404.27 144.92 404.32 144.92H404.46H405.59L407.82 144.86H408H408.13H408.19H408.34H408.65L409.27 144.77L409.89 144.69L410.51 144.54L411.75 144.22C412.17 144.11 412.57 143.94 412.98 143.8C413.805 143.513 414.613 143.18 415.4 142.8C417.378 141.877 419.278 140.793 421.08 139.56C422.47 138.64 423.81 137.64 425.08 136.56C426.762 135.2 428.368 133.747 429.89 132.21L431.43 130.62C431.51 130.62 431.5 130.86 431.52 131.03L431.57 131.58L431.66 132.68L431.88 134.96L432.1 137.36L432.28 138.99C432.34 139.56 432.43 140.11 432.47 140.69C432.64 142.81 432.47 143.5 431.63 144C431.449 144.125 431.258 144.235 431.06 144.33C430.41 144.57 429.82 143.73 429.55 142.18C429.41 141.43 429.29 140.67 429.18 139.9C429.07 139.13 428.99 138.42 428.89 137.67C428.78 137.51 428.73 137.53 428.69 137.58V137.67L428.61 137.74L428.53 137.82L428.31 138.01C425.443 140.481 422.337 142.662 419.04 144.52L419 144.41Z" fill="#221F1F"/>
<path d="M431.759 179.93C431.389 223.02 427.609 281.04 425.509 304.81C425.389 306.22 417.739 310.73 414.589 310.73C408.419 310.73 405.779 307.73 400.209 308.99C400.079 309.019 399.944 309.014 399.816 308.976C399.688 308.939 399.571 308.869 399.477 308.774C399.384 308.679 399.315 308.562 399.279 308.434C399.243 308.305 399.239 308.17 399.269 308.04C401.629 298.74 407.929 250.42 408.839 211.21C409.029 203.04 409.059 195.08 408.979 187.72C413.114 188.149 417.293 187.674 421.226 186.329C425.159 184.984 428.753 182.801 431.759 179.93Z" fill="#221F1F"/>
<path d="M405.62 279.44C404.953 284.733 404.22 290.01 403.42 295.27C403.01 297.91 402.58 300.55 402.11 303.18L401.72 305.18L401.53 306.18L401.46 306.48C401.46 306.65 401.32 306.87 401.39 306.96C401.46 307.05 401.62 306.96 401.74 306.96H402.05H403.05C403.719 306.982 404.387 307.045 405.05 307.15C406.257 307.372 407.449 307.67 408.62 308.04C409.672 308.358 410.74 308.621 411.82 308.83C412.34 308.91 412.82 308.98 413.39 309.02C413.649 309.035 413.91 309.035 414.17 309.02H414.57H414.85C415.725 308.893 416.58 308.648 417.39 308.29C418.286 307.915 419.158 307.485 420 307C420.866 306.533 421.704 306.015 422.51 305.45C422.9 305.17 423.26 304.89 423.58 304.61C423.73 304.44 423.75 304.45 423.79 304.39C423.828 304.342 423.85 304.282 423.85 304.22L424.2 300.31C425.926 280.79 427.363 261.24 428.51 241.66C429.01 232.97 429.38 224.23 429.65 215.6C430 204.52 430.08 193.39 430.55 182.32C430.71 178.87 431.55 179.32 432.29 182.32C433.366 187.163 433.816 192.123 433.63 197.08C433.1 219.78 431.85 242.42 430.02 265.21C429.49 271.66 429.02 278.21 428.55 284.85C428.3 288.16 428.06 291.47 427.81 294.79L427.41 299.79C427.26 301.5 427.12 303.21 426.97 304.91C426.92 305.06 426.97 305.24 426.84 305.36C426.795 305.513 426.742 305.663 426.68 305.81C426.524 306.077 426.346 306.331 426.15 306.57C425.823 306.931 425.469 307.265 425.09 307.57C423.38 308.853 421.532 309.94 419.58 310.81C418.594 311.273 417.57 311.651 416.52 311.94C415.923 312.11 415.309 312.207 414.69 312.23C414.1 312.23 413.59 312.23 413.04 312.17C410.942 311.943 408.874 311.498 406.87 310.84C405.967 310.566 405.044 310.362 404.11 310.23C403.669 310.166 403.225 310.136 402.78 310.14H402.44C402.3 310.129 402.159 310.129 402.02 310.14L400.9 310.29C400.55 310.29 400.26 310.29 399.9 310.29C399.601 310.32 399.299 310.279 399.02 310.17C398.745 310.045 398.507 309.85 398.332 309.604C398.156 309.358 398.049 309.071 398.02 308.77L398.29 306.83L398.42 305.83C398.42 305.65 398.42 305.54 398.48 305.44L398.55 305.1C398.9 303.34 399.22 301.55 399.55 299.76C400.15 296.18 400.68 292.58 401.19 288.97C402.49 279.637 403.616 270.26 404.57 260.84C406.02 246.61 407.16 232.27 407.67 218.08C407.74 215.53 407.83 212.99 407.84 210.45C407.85 207.91 407.84 205.39 407.84 202.87C407.84 200.35 407.79 197.87 407.77 195.31V191.53V186.33C409.04 186.43 410.44 186.51 411.55 186.54C413.832 186.536 416.105 186.254 418.32 185.7C421.252 184.96 424.071 183.826 426.7 182.33C427.57 181.84 428.29 181.49 428.88 181.19C429.408 180.941 429.953 180.727 430.51 180.55C430.946 180.384 431.394 180.25 431.85 180.15C432.4 180.15 432.08 180.79 430.97 182.09C429.143 183.968 427.009 185.521 424.66 186.68C422.268 187.86 419.729 188.711 417.11 189.21C415.772 189.461 414.419 189.621 413.06 189.69C412.72 189.69 412.38 189.69 412.06 189.69H411.31H410.98C410.98 189.76 410.98 189.84 410.98 189.89V190V190.44V193.23V198.86C410.98 202.627 410.98 206.42 410.98 210.24C410.87 217.88 410.53 225.6 410.05 233.31C409.05 248.69 407.57 264.09 405.7 279.42L405.62 279.44Z" fill="#221F1F"/>
<path d="M356.41 220.39C358.51 214.19 360.6 207.96 362.84 201.77C363.65 199.5 364.41 197.22 365.29 194.98C368.43 187.1 371.91 179.26 376.85 172.19C379.015 168.993 381.609 166.11 384.56 163.62C386.52 162.013 388.734 160.742 391.11 159.86C393.514 158.988 396.089 158.687 398.63 158.98C400.21 159.17 399.85 159.98 398.58 160.71C396.806 161.669 394.936 162.436 393 163C388.86 164.22 385.27 167.1 382.24 170.56C379.196 174.198 376.539 178.143 374.31 182.33C371.584 187.607 369.244 193.075 367.31 198.69C365.02 204.84 362.9 211.09 360.8 217.35C359.467 221.197 358.17 225.05 356.91 228.91C354.91 234.75 352.79 240.58 350.5 246.28C348.816 250.732 346.856 255.073 344.63 259.28C344.13 260.2 343.63 261.11 343.04 262.01C340.83 265.32 339.71 266.12 338.53 266.17C338.264 266.205 337.995 266.205 337.73 266.17C337 265.96 337.73 264.52 339.18 262.24C341.397 258.696 343.343 254.988 345 251.15C346.76 247.24 348.37 243.15 349.89 239.04C352.16 232.91 354.27 226.66 356.34 220.38L356.41 220.39Z" fill="#221F1F"/>
<path d="M277 225.62V225.68L277.1 225.87L277.77 227.22L279.08 229.93L281.6 235.36L286.48 246.23C289.72 253.47 293.01 260.67 296.48 267.75C299.04 272.91 301.8 277.97 304.66 282.95C307.18 287.34 309.85 291.64 312.77 295.74C315.625 299.855 318.877 303.68 322.48 307.16C326.08 310.54 330.22 313.46 334.87 314.64C336.024 314.924 337.203 315.094 338.39 315.15C338.98 315.15 339.57 315.15 340.16 315.1C340.45 315.1 340.77 315.1 341.03 315.01L341.77 314.84C343.939 313.903 345.875 312.5 347.44 310.73C350.486 307.463 353.227 303.925 355.63 300.16C358.11 296.41 360.39 292.53 362.63 288.64C368.26 278.64 373.25 268.16 378.63 257.97C381.95 251.59 380.84 261.17 374.82 273.1C372.13 278.37 369.37 283.61 366.45 288.78C363.53 293.95 360.45 299.04 357.01 303.97C355.29 306.467 353.43 308.864 351.44 311.15C349.391 313.646 346.895 315.738 344.08 317.32L342.8 317.83C342.33 317.95 341.8 318.06 341.37 318.15C340.553 318.24 339.731 318.28 338.91 318.27C337.272 318.255 335.643 318.037 334.06 317.62C332.512 317.199 331.008 316.629 329.57 315.92C328.18 315.21 326.843 314.401 325.57 313.5C322.562 311.329 319.793 308.845 317.31 306.09C314.807 303.359 312.469 300.48 310.31 297.47C306.041 291.471 302.159 285.205 298.69 278.71C291.04 264.56 284.69 249.81 278.1 235.29C277.28 233.5 276.44 231.71 275.59 229.95L274.28 227.31L273.8 226.4L273.27 225.4L272.73 224.4L272.46 223.9C272.38 223.74 272.25 223.55 272.29 223.46L274.06 223.07C274.64 222.92 275.17 222.74 275.72 222.58L276.79 222.15C277.11 222.01 277.42 221.85 277.74 221.7C278.39 221.42 278.98 221.03 279.61 220.7C280.24 220.37 280.81 219.94 281.4 219.55C283.742 217.898 285.883 215.979 287.78 213.83L288.69 212.83L289.54 211.76C290.1 211.04 290.7 210.35 291.2 209.58L292.76 207.32L294.17 204.96L294.53 204.37L294.7 204.08L294.92 203.66L295.84 201.89L296.75 200.13L297.21 199.26C297.36 199.04 297.5 198.4 297.68 198.96L299.73 202.47L300.24 203.34L300.65 204.07L301.32 205.3C304.93 211.86 308.32 218.48 311.73 225.05C317 235.28 322.18 245.3 327.39 255.41L330.79 262.07C334.96 270.45 336.07 273.23 336.18 275.41C336.234 275.888 336.25 276.369 336.23 276.85C336.03 277.95 333.88 274.76 330.69 268.69C325.97 259.69 321.2 250.41 316.38 241C311.56 231.59 306.7 222 301.66 212.56C300.75 210.86 299.84 209.15 298.9 207.48L297.69 205.29C297.69 205.24 297.63 205.39 297.61 205.43L297.55 205.54L297.08 206.32L295.54 208.91C294.99 209.75 294.4 210.57 293.84 211.41C291.494 214.751 288.728 217.776 285.61 220.41C284.85 221.09 283.98 221.66 283.16 222.29C282.34 222.92 281.44 223.44 280.51 223.93C279.597 224.453 278.652 224.917 277.68 225.32L277.31 225.47L277.12 225.55C277.06 225.55 277.17 225.55 277.12 225.55H277.04C277.04 225.55 277.04 225.55 277.04 225.61L277 225.62Z" fill="#221F1F"/>
<path d="M259.909 177C258.517 176.432 257.083 175.974 255.619 175.63C254.961 175.501 254.291 175.438 253.619 175.44C253.269 175.44 252.909 175.44 252.549 175.44L251.459 175.57C248.451 176.067 245.542 177.039 242.839 178.45C240.82 179.509 238.869 180.695 236.999 182C236.169 182.56 235.349 183.15 234.569 183.74L234.449 183.84L234.379 183.9L234.099 184.15L233.529 184.67L232.389 185.67C230.889 187.06 229.389 188.47 227.959 189.92C227.239 190.64 226.519 191.37 225.829 192.11L224.829 193.24L223.969 194.24C223.659 194.585 223.384 194.96 223.149 195.36C223.01 195.563 222.94 195.805 222.949 196.05C222.949 196.32 223.309 196.33 223.519 196.33C223.949 196.276 224.364 196.136 224.739 195.92L225.369 195.56C225.743 195.333 226.113 195.093 226.479 194.84C227.949 193.84 229.359 192.68 230.729 191.51C231.349 190.97 231.949 190.43 232.549 189.87L233.439 189.04L234.439 188.04L236.739 187.04L238.849 186.14C240.259 185.55 241.679 185 243.129 184.5C245.899 183.5 243.709 187.85 238.739 190.01L236.389 191.01L235.149 192.15L233.589 193.5C232.589 194.39 231.469 195.26 230.349 196.1C229.789 196.51 229.219 196.92 228.629 197.32L227.739 197.91L227.279 198.19L227.039 198.33L226.659 198.55C226.149 198.86 225.569 199.14 224.989 199.42C224.454 199.663 223.898 199.861 223.329 200.01C222.433 200.26 221.486 200.26 220.589 200.01C220.11 199.847 219.68 199.565 219.339 199.19C219.009 198.806 218.809 198.326 218.769 197.82C218.74 196.666 219.091 195.534 219.769 194.6C220.472 193.545 221.25 192.542 222.099 191.6C222.673 190.973 223.253 190.363 223.839 189.77C225.919 187.67 228.043 185.583 230.209 183.51L231.839 181.96L232.259 181.58C232.499 181.36 232.609 181.28 232.769 181.15L233.689 180.44C234.919 179.53 236.169 178.66 237.469 177.87C240.32 176.075 243.366 174.612 246.549 173.51C248.174 172.97 249.849 172.595 251.549 172.39C252.415 172.283 253.287 172.236 254.159 172.25C255.053 172.298 255.941 172.432 256.809 172.65C260.762 173.765 264.578 175.315 268.189 177.27C270.929 178.65 273.589 180.17 276.189 181.77C278.832 183.347 281.373 185.087 283.799 186.98C284.269 187.34 284.729 187.8 285.189 188.22C285.438 188.478 285.666 188.755 285.869 189.05C286.054 189.3 286.218 189.564 286.359 189.84C286.929 190.84 287.519 191.84 288.119 192.84C289.309 194.84 290.539 196.75 291.779 198.69L293.429 201.23C295.429 204.43 295.929 205.55 295.659 206.7C295.624 206.964 295.557 207.222 295.459 207.47C295.109 208.14 293.789 207.13 292.139 204.85C289.689 201.46 287.369 197.85 285.139 194.12C284.589 193.18 284.039 192.24 283.509 191.27C283.379 191.04 283.229 190.74 283.159 190.72C283.117 190.682 283.08 190.638 283.049 190.59C283.007 190.521 282.953 190.461 282.889 190.41C282.539 190.11 282.289 189.8 281.889 189.49C280.253 188.19 278.544 186.985 276.769 185.88C271.422 182.413 265.761 179.456 259.859 177.05L259.909 177Z" fill="#221F1F"/>
<path d="M253.69 196.56C252.511 196.053 251.363 195.479 250.25 194.84C249.69 194.53 249.15 194.19 248.61 193.84C248.36 193.69 248.03 193.45 247.86 193.33L247.71 193.19C247.66 193.19 247.59 193.19 247.53 193.19H247.44L247.29 193.27C247.09 193.37 246.9 193.47 246.7 193.59L245.48 194.29C242.48 195.95 239.48 197.8 236.22 199.29C234.723 200.061 233.123 200.613 231.47 200.93C230.17 201.11 228.851 200.788 227.78 200.03C227.099 199.562 226.631 198.843 226.48 198.03C226.416 197.56 226.486 197.082 226.68 196.65C226.77 196.467 226.877 196.293 227 196.13C227.12 195.99 227.24 195.85 227.36 195.73C228.04 195.18 228.36 196.01 228.69 196.85C228.771 197.055 228.875 197.249 229 197.43C229.053 197.506 229.121 197.57 229.2 197.62C229.2 197.62 229.34 197.67 229.26 197.62H229.14C229.01 197.62 229.06 197.62 229.24 197.56L229.43 197.48L229.64 197.34L229.76 197.25V197.2C229.921 197.322 230.1 197.42 230.29 197.49C230.487 197.568 230.698 197.606 230.91 197.6C231.661 197.543 232.399 197.375 233.1 197.1C234.78 196.52 236.55 195.66 238.35 194.82C240.53 193.82 242.51 192.28 244.77 191.03L245.4 190.7C245.64 190.58 245.78 190.51 246.12 190.36C246.77 190.063 247.461 189.864 248.17 189.77L249.09 190.44L249.78 190.92L250.89 191.63L252.03 192.29L253.2 192.89C254.64 193.607 256.143 194.19 257.69 194.63C260.015 195.327 262.451 195.578 264.87 195.37L266.22 195.11C266.45 195.05 266.67 195.02 266.89 194.95L267.53 194.71L268.79 194.21C269.2 194.04 269.58 193.78 269.98 193.58C270.38 193.38 270.65 193.18 270.98 193C272.19 192.16 272.7 192.11 273.48 192.62C273.666 192.726 273.843 192.846 274.01 192.98C274.54 193.42 274.29 194.23 273.32 195.07C270.175 197.591 266.202 198.846 262.18 198.59C259.211 198.434 256.294 197.757 253.56 196.59L253.69 196.56Z" fill="#221F1F"/>
<path d="M271 200.35C275.445 206.402 279.083 213.007 281.82 220C282.31 221.32 285.19 220.51 284.71 219.22C281.936 212.047 278.238 205.266 273.71 199.05C272.94 197.97 270.18 199.1 271.05 200.33L271 200.35Z" fill="#221F1F"/>
<path d="M524 288.58C522.07 282.2 519.72 275.89 517.21 269.66C514.7 263.43 512.01 257.24 509.21 251.1C507.21 246.62 504.99 242.2 502.87 237.77C495.377 222.123 487.48 206.67 479.18 191.41C477.33 188.03 475.44 184.66 473.5 181.34C472.5 179.68 471.55 178.02 470.55 176.4C470.05 175.6 469.55 174.76 469.02 174.07C468.49 173.38 467.9 172.58 467.27 171.91C464.176 168.312 460.258 165.516 455.85 163.76C451.361 162.076 446.638 161.101 441.85 160.87C438.85 160.69 439.22 159.87 441.85 159.13C443.664 158.678 445.53 158.466 447.4 158.5C450.101 158.507 452.782 158.953 455.34 159.82C460.454 161.57 465.057 164.555 468.74 168.51L470.06 170.01C470.49 170.52 470.88 171.06 471.29 171.58C471.715 172.117 472.109 172.678 472.47 173.26L473.47 174.91C474.78 177.09 476.03 179.28 477.27 181.48C482.22 190.28 486.93 199.21 491.49 208.27C496.94 219.1 502.79 230.27 508.1 241.5C513.92 253.84 519.48 266.33 524.1 279.21C525.51 283.21 526.85 287.21 527.94 291.27C528.5 293.32 528.99 295.39 529.39 297.48C529.804 299.594 530.051 301.737 530.13 303.89C530.212 305.608 529.992 307.328 529.48 308.97C529.315 309.4 529.121 309.817 528.9 310.22C528.659 310.613 528.385 310.984 528.08 311.33L527.22 312.26C526.92 312.55 526.61 312.83 526.3 313.11C523.791 315.234 520.967 316.954 517.93 318.21C512.002 320.633 505.839 322.432 499.54 323.58C489.87 325.5 480.31 326.77 470.67 327.83C468.55 328.06 466.47 328.31 464.33 328.51C456.39 329.25 453.85 329.24 452.07 328.51C451.665 328.381 451.27 328.221 450.89 328.03C450.07 327.44 453.26 326.6 459.06 325.91C467.66 324.91 476.48 323.97 485.35 322.73C489.78 322.1 494.23 321.41 498.64 320.52C503.037 319.681 507.379 318.573 511.64 317.2C514.738 316.206 517.724 314.892 520.55 313.28C521.26 312.9 521.87 312.43 522.55 312.01C523.169 311.556 523.763 311.069 524.33 310.55C524.918 310.069 525.476 309.551 526 309C526.143 308.794 526.27 308.576 526.38 308.35L526.56 307.96L526.69 307.5C527.018 306.065 527.122 304.587 527 303.12C526.899 301.505 526.692 299.898 526.38 298.31C525.745 295.04 524.927 291.808 523.93 288.63L524 288.58Z" fill="#221F1F"/>
<path d="M372.56 342.69C372.803 342.588 373.071 342.564 373.329 342.619C373.586 342.675 373.82 342.807 374 343C374.16 343.12 374.26 343.58 374.13 343.69C373.882 343.893 373.617 344.077 373.34 344.24C372.03 344.698 370.695 345.079 369.34 345.38C369.1 345.44 368.85 345.48 368.6 345.52C368.35 345.56 367.71 345.61 367.28 345.63C366.485 345.689 365.688 345.562 364.95 345.26C364.643 345.12 364.37 344.915 364.15 344.66C363.952 344.373 363.787 344.065 363.66 343.74L363.76 343.24L363.82 342.98L364.02 342.69C364.2 342.3 364.83 341.89 365.27 341.49C365.71 341.09 366.27 340.77 366.83 340.4L367.75 339.82C368.12 339.587 368.504 339.376 368.9 339.19C370.26 338.55 371.55 337.83 372.82 337.08C373.041 336.967 373.246 336.826 373.43 336.66C374.814 335.781 376.25 334.986 377.73 334.28C378.94 333.8 380.12 333.28 381.31 332.79C381.47 332.695 381.646 332.63 381.83 332.6C382.235 332.564 382.625 332.434 382.97 332.22C383.47 331.99 383.97 331.77 384.49 331.58C384.76 331.496 385.038 331.442 385.32 331.42C385.58 331.42 385.59 331.7 385.53 331.77C385.47 331.84 385.59 332 385.67 332.1C385.703 332.128 385.725 332.167 385.73 332.21C384.814 332.974 383.856 333.685 382.86 334.34L380.73 335.55C379.66 336.15 378.56 336.8 378.34 336.95C378.098 337.079 377.847 337.193 377.59 337.29C377.46 337.29 374.32 339.24 374.19 339.29C373.557 339.686 372.887 340.021 372.19 340.29C372.05 340.346 371.916 340.416 371.79 340.5C370.68 341.18 369.53 341.79 368.42 342.45C368.267 342.53 368.122 342.628 367.99 342.74H367.88C367.832 342.747 367.787 342.768 367.75 342.8L367.7 342.86C367.7 343 367.89 343.02 368.02 343.04H368.24L368.94 342.93C369.28 342.88 370.99 342.81 371.39 342.68C371.56 342.64 372.37 342.79 372.56 342.69Z" fill="#221F1F"/>
<path d="M444.59 310C437.39 312.18 430.16 314.28 422.85 316.2C420.19 316.9 417.53 317.64 414.85 318.2C412.48 318.73 410.09 319.2 407.7 319.67L404.11 320.31L402.31 320.6L401.41 320.74L400.6 320.89C398.332 321.456 396.112 322.199 393.96 323.11C391.75 324 389.56 324.97 387.39 325.99C383.556 327.821 379.824 329.857 376.21 332.09C373.91 333.52 371.67 335.09 369.56 336.66C368.525 337.437 367.54 338.279 366.61 339.18C366.228 339.559 365.892 339.982 365.61 340.44C365.56 340.54 365.54 340.6 365.52 340.64C365.447 340.629 365.373 340.629 365.3 340.64C365.24 340.64 365.3 340.64 365.43 340.53C365.56 340.42 365.43 340.53 365.51 340.61C365.91 340.84 366.3 341.11 366.2 341.43C366.1 341.75 365.72 342.15 364.74 342.16C364.424 342.136 364.121 342.029 363.86 341.85C363.473 341.553 363.213 341.121 363.13 340.64C363.024 339.768 363.188 338.885 363.6 338.11C364.337 336.682 365.378 335.433 366.65 334.45C368.921 332.678 371.303 331.051 373.78 329.58C376.21 328.11 378.69 326.74 381.21 325.45C386.255 322.794 391.509 320.557 396.92 318.76C397.76 318.5 398.6 318.26 399.49 318.05C399.93 317.94 400.4 317.85 400.87 317.77L402.13 317.57C403.8 317.3 405.48 316.98 407.13 316.64C410.49 315.96 413.84 315.16 417.13 314.36C424.44 312.58 431.7 310.49 438.93 308.36L452.28 304.27L472.48 298.01C477.68 296.39 482.75 294.68 487.94 293.16C489.08 292.83 490.19 292.46 491.36 292.16C495.66 291.02 497.12 290.99 498.22 291.6C498.485 291.713 498.734 291.861 498.96 292.04C499.51 292.59 497.86 293.5 494.78 294.41C485.63 297.19 476 300.18 466.3 303.23L444.61 310.02L444.59 310Z" fill="#221F1F"/>
<path d="M444.88 308.5C454.33 313.97 452.52 326.5 448.67 334.78C447.76 336.78 451.56 336.78 452.28 335.25C456.56 326.02 458.17 312.31 447.77 306.25C446.31 305.4 443.03 307.39 444.88 308.46V308.5Z" fill="#221F1F"/>
<path d="M483.92 262.5L486.86 268.33C487.22 269.04 487.66 269.7 488.01 270.41C489.243 272.93 490.47 275.45 491.69 277.97C492.24 279.08 492.87 280.16 493.49 281.23C494.418 282.552 495.153 284 495.67 285.53C495.8 286.05 495.07 286.26 494.22 286.19C493.785 286.162 493.358 286.057 492.96 285.88C492.541 285.711 492.19 285.409 491.96 285.02C490.396 282.2 488.997 279.292 487.77 276.31C487.04 274.49 485.94 272.79 485.02 271.02L482.02 265.19L480.15 261.6C479.15 259.81 478.25 257.98 477.21 256.24C476.41 254.89 475.46 253.65 474.58 252.37C474.39 252.08 474.17 251.82 473.99 251.53C473.31 250.44 473.28 249.99 473.82 249.36C473.939 249.213 474.066 249.073 474.2 248.94C474.66 248.53 475.35 248.73 475.97 249.46C477.799 251.713 479.416 254.13 480.8 256.68C481.88 258.59 482.9 260.53 483.95 262.46L483.92 262.5Z" fill="#221F1F"/>
<path d="M232.63 204.2C232.63 211.2 222.93 212.76 221.16 205.79C218.94 197.09 232.63 195 232.63 204.2Z" fill="#221F1F"/>
<path d="M223.87 201.74C223.409 202.196 223.075 202.764 222.899 203.388C222.724 204.012 222.714 204.671 222.87 205.3C223.003 205.793 223.198 206.267 223.45 206.71C223.815 207.498 224.44 208.137 225.22 208.52C226.077 208.938 227.053 209.044 227.98 208.82C228.821 208.613 229.572 208.14 230.12 207.47C230.674 206.539 231.079 205.527 231.32 204.47C231.47 204.14 232.32 204.12 233.2 204.55C233.649 204.779 234.029 205.125 234.3 205.55C234.436 205.78 234.522 206.036 234.553 206.301C234.584 206.566 234.559 206.835 234.48 207.09C234.178 208.046 233.687 208.932 233.036 209.695C232.385 210.458 231.587 211.082 230.69 211.53C229.828 211.974 228.885 212.24 227.918 212.312C226.95 212.384 225.979 212.261 225.06 211.95C224.522 211.764 224 211.533 223.5 211.26C223.25 211.12 223 210.99 222.76 210.84L222.08 210.31C221.639 209.946 221.24 209.533 220.89 209.08C220.58 208.618 220.306 208.133 220.07 207.63C219.869 207.078 219.705 206.514 219.58 205.94C219.471 205.373 219.417 204.797 219.42 204.22C219.42 203.011 219.734 201.822 220.33 200.77C221.057 199.511 222.163 198.513 223.49 197.92C224.447 197.482 225.481 197.237 226.533 197.199C227.585 197.161 228.634 197.332 229.62 197.7C230.407 197.988 231.143 198.4 231.8 198.92C232.473 199.469 233.028 200.15 233.43 200.92C233.619 201.236 233.773 201.571 233.89 201.92C234.26 203.27 233.96 203.74 233.06 204.01C232.857 204.081 232.65 204.137 232.44 204.18C232.11 204.217 231.777 204.147 231.491 203.979C231.204 203.811 230.979 203.556 230.85 203.25C230.517 202.484 229.99 201.819 229.32 201.32C228.707 200.884 227.982 200.633 227.23 200.6C226.622 200.549 226.01 200.629 225.436 200.834C224.862 201.039 224.338 201.365 223.9 201.79L223.87 201.74Z" fill="#221F1F"/>
<path d="M168.94 312.66C168.575 313.153 168.327 313.722 168.212 314.325C168.098 314.927 168.121 315.548 168.28 316.14C168.428 316.563 168.651 316.956 168.94 317.3C169.82 318.63 171.81 319.39 173.94 319.46C174.888 319.486 175.835 319.371 176.75 319.12C177.921 318.7 179.13 318.392 180.36 318.2C181.18 318.2 181.25 321.41 179.68 321.9C178.293 322.328 176.859 322.584 175.41 322.66C173.871 322.748 172.331 322.527 170.88 322.01C169.957 321.674 169.067 321.255 168.22 320.76C167.322 320.218 166.562 319.475 166 318.59C165.44 317.632 165.112 316.555 165.042 315.448C164.973 314.34 165.164 313.231 165.6 312.21C166.115 310.944 167.042 309.887 168.23 309.21C168.696 308.95 169.203 308.77 169.73 308.68C170.254 308.605 170.786 308.605 171.31 308.68C171.872 308.77 172.408 308.982 172.88 309.3C173.342 309.638 173.719 310.08 173.98 310.59C174.372 311.342 174.561 312.183 174.53 313.03C174.513 313.948 174.185 314.833 173.6 315.54C173.323 315.881 172.984 316.167 172.6 316.38C172.346 316.539 172.059 316.638 171.761 316.671C171.464 316.704 171.162 316.669 170.88 316.57C170.715 316.485 170.577 316.356 170.482 316.197C170.387 316.038 170.337 315.855 170.34 315.67C170.325 315.47 170.325 315.27 170.34 315.07C170.445 314.535 170.744 314.058 171.18 313.73C171.317 313.591 171.399 313.406 171.41 313.21C171.433 312.997 171.433 312.783 171.41 312.57C171.393 312.369 171.331 312.174 171.23 312C171.186 311.941 171.131 311.89 171.07 311.85C170.947 311.837 170.823 311.837 170.7 311.85C170.499 311.846 170.3 311.876 170.11 311.94C169.67 312.095 169.297 312.395 169.05 312.79L168.94 312.66Z" fill="#221F1F"/>
<path d="M285.49 317.37C285.964 316.306 286.275 315.177 286.41 314.02C286.47 313.58 286.41 313.14 286.41 312.71C286.44 312.157 286.44 311.603 286.41 311.05C286.41 310.79 286.41 310.53 286.32 310.3C286.296 310.144 286.259 309.99 286.21 309.84C286.105 309.639 285.931 309.483 285.72 309.4C285.497 309.311 285.256 309.278 285.018 309.302C284.779 309.327 284.55 309.408 284.35 309.54C283.8 309.89 283.62 310.45 283.05 311.01C282.86 311.17 282.05 310.94 281.42 310.39C281.057 310.157 280.797 309.794 280.693 309.376C280.589 308.958 280.649 308.516 280.86 308.14C282.47 305.8 286.53 305.03 288.62 307.9C288.818 308.235 288.973 308.595 289.08 308.97C289.26 309.81 289.34 310.47 289.43 311.17C289.525 311.832 289.561 312.501 289.54 313.17C289.473 314.634 289.214 316.083 288.77 317.48C288.482 318.357 288.096 319.199 287.62 319.99C286.861 321.29 285.678 322.29 284.27 322.82C283.183 323.248 282.014 323.426 280.85 323.34C280.605 323.334 280.36 323.307 280.12 323.26C279.22 323.06 279.05 322.7 279.21 321.86C279.242 321.668 279.286 321.477 279.34 321.29C279.414 321.017 279.571 320.774 279.79 320.595C280.009 320.416 280.278 320.309 280.56 320.29C281.23 320.273 281.898 320.21 282.56 320.1C283.021 320.017 283.458 319.833 283.84 319.56C284.551 318.987 285.085 318.224 285.38 317.36L285.49 317.37Z" fill="#221F1F"/>
<path d="M245.86 282.18C247.04 278.18 250.08 273.18 253.51 270.74C253.844 270.502 254.195 270.288 254.56 270.1C254.23 270.26 253.84 269.73 254.17 269.96C254.486 270.201 254.754 270.5 254.96 270.84C256.34 273.06 255.52 276.22 254.87 278.5C254.45 279.98 258.26 279.5 258.65 278.08C259.8 274.02 260.02 265.97 253.58 268.16C248.09 270.03 243.58 277.3 242.08 282.6C241.65 284.06 245.46 283.6 245.86 282.18Z" fill="#221F1F"/>
<path d="M218.43 296.49C224.43 298.95 231.17 298.32 237.29 296.71C237.78 296.58 240.29 295.86 239.94 295C239.59 294.14 237.32 294.7 236.79 294.84C232.311 296.138 227.527 295.913 223.19 294.2C221.89 293.67 216.67 295.77 218.43 296.49Z" fill="#221F1F"/>
<path d="M268.999 304.58C266.869 305.87 265.799 302.7 265.949 301.23C266.024 300.639 266.274 300.084 266.666 299.635C267.057 299.186 267.574 298.864 268.149 298.71C270.919 298.21 270.519 303.66 268.999 304.58Z" fill="#221F1F"/>
<path d="M522 321.74H610C611.27 321.74 616.57 319.31 613.74 319.31H525.74C524.47 319.31 519.17 321.74 522 321.74Z" fill="#221F1F"/>
<path d="M292.4 322.19H382.64C384.84 322.19 388.09 318.87 384.57 318.87H294.33C292.13 318.87 288.89 322.19 292.4 322.19Z" fill="#221F1F"/>
<path d="M121.18 322.1H159C161.08 322.1 164.49 318.96 161 318.96H123.16C121.08 318.96 117.67 322.1 121.16 322.1H121.18Z" fill="#221F1F"/>
<path d="M418.47 143.18C414.109 145.656 409.203 147.013 404.19 147.13C401.638 147.137 399.103 146.7 396.7 145.84C394.324 144.942 392.114 143.654 390.16 142.03C387.38 139.678 385.093 136.799 383.43 133.56C382.021 130.75 380.963 127.778 380.28 124.71C379.586 121.687 379.197 118.601 379.12 115.5C379.03 113.96 379.12 112.43 379.12 110.89C379.12 109.35 379.29 107.82 379.51 106.3C379.61 105.54 379.69 104.78 379.8 104.02L380.2 101.76C380.31 101.01 380.48 100.26 380.65 99.51C380.82 98.76 380.98 98.0201 381.18 97.28C382.52 92.04 384.18 86.93 385.84 81.8901C386.84 78.6501 387.9 75.41 388.84 72.17C389.83 69.0107 390.598 65.7862 391.14 62.5201C391.3 60.6101 392.14 60.68 392.88 62.59C393.62 64.5 393.68 68.1301 392.57 71.9701C390.57 78.7601 388.18 85.2601 386.1 91.8201C385.029 95.05 384.131 98.3346 383.41 101.66C382.74 104.992 382.309 108.367 382.12 111.76C381.908 115.881 382.279 120.012 383.22 124.03C384.141 128.047 385.807 131.856 388.13 135.26C389.409 137.069 390.933 138.692 392.66 140.08C394.395 141.413 396.352 142.429 398.44 143.08C402.73 144.363 407.319 144.233 411.53 142.71C416.853 140.818 421.73 137.854 425.86 134C432.309 128.188 437.693 121.295 441.77 113.63C442.36 112.5 442.93 111.36 443.45 110.21C443.71 109.63 443.97 109.05 444.2 108.47L444.39 108.02L444.64 107.38L445.13 106.06L447.39 105.98C447.886 105.975 448.38 105.935 448.87 105.86C449.84 105.744 450.802 105.567 451.75 105.33C453.593 104.843 455.332 104.023 456.88 102.91C457.407 102.52 457.902 102.089 458.36 101.62C458.798 101.143 459.196 100.632 459.55 100.09C460.493 98.6711 461.126 97.0698 461.41 95.39C461.56 94.84 461.61 94.39 461.74 94C461.855 93.6584 461.992 93.3243 462.15 93.0001C462.277 92.6989 462.428 92.408 462.6 92.1301C462.88 91.7901 463.24 92.1301 463.66 93.1901C464.181 94.8458 464.213 96.6169 463.75 98.29C463.229 100.129 462.333 101.84 461.118 103.315C459.903 104.79 458.395 105.997 456.69 106.86C455.016 107.744 453.22 108.374 451.36 108.73C450.442 108.921 449.514 109.058 448.58 109.14C448.35 109.155 448.12 109.155 447.89 109.14H447.38H447.31C447.316 109.166 447.316 109.194 447.31 109.22V109.34L447.1 109.84C446.82 110.51 446.51 111.17 446.21 111.84C445.59 113.15 444.94 114.46 444.21 115.73C442.81 118.291 441.278 120.778 439.62 123.18C436.849 127.163 433.712 130.88 430.25 134.28C426.766 137.751 422.839 140.747 418.57 143.19L418.47 143.18Z" fill="#221F1F"/>
<path d="M426.7 185.66C424.921 186.391 423.089 186.986 421.22 187.44C420.565 187.65 419.896 187.817 419.22 187.94C416.807 188.331 414.357 188.438 411.92 188.26L408.71 188.13C407.309 188.183 405.914 187.92 404.63 187.36C404.19 187.12 404.56 186.36 405.09 185.68C405.62 185 406.36 184.37 407.04 184.48C409.48 184.86 411.97 185.12 414.56 185.32C415.345 185.37 416.133 185.329 416.91 185.2C417.69 185.1 418.46 184.85 419.24 184.73C420.944 184.373 422.616 183.878 424.24 183.25L425 183L425.74 182.65L427.2 181.93C427.576 181.762 427.938 181.561 428.28 181.33L429.33 180.67L430.38 180C430.712 179.756 431.029 179.492 431.33 179.21C432.285 178.375 433.143 177.436 433.89 176.41C434.07 176.19 434.21 175.95 434.4 175.74C435.08 174.97 435.47 174.89 436.26 175.3C436.44 175.4 436.63 175.48 436.8 175.59C436.937 175.685 437.052 175.809 437.139 175.951C437.226 176.094 437.282 176.253 437.304 176.419C437.325 176.585 437.312 176.753 437.265 176.913C437.218 177.074 437.138 177.222 437.03 177.35C436.71 177.87 436.36 178.35 436.03 178.9C435.669 179.42 435.253 179.899 434.79 180.33C434.33 180.78 433.85 181.21 433.37 181.64C432.89 182.081 432.375 182.482 431.83 182.84C431.03 183.39 430.22 183.92 429.39 184.43L426.78 185.76L426.7 185.66Z" fill="#221F1F"/>
<path d="M379.84 281.1C380.36 278.72 380.71 276.3 381.14 273.9C381.57 271.5 381.91 269.07 382.26 266.65C382.52 264.89 382.67 263.11 382.88 261.34C383.72 255.11 384.36 248.84 384.88 242.56C385.07 239.78 385.19 236.97 385.22 234.19C385.28 230.63 385.11 227.05 385.46 223.51C385.66 221.29 388.8 224.08 388.76 228.26C388.69 235.618 388.176 242.964 387.22 250.26C386.91 252.45 386.7 254.7 386.5 256.95C386.3 259.2 386.03 261.48 385.79 263.72L384.79 271.11C384.42 273.57 383.97 276.01 383.57 278.47C383.05 281.47 382.39 284.47 381.83 287.47C381.323 289.73 380.807 291.99 380.28 294.25C379.78 296.52 379.11 298.74 378.57 300.97C378.36 301.84 378.16 302.71 377.95 303.57C377.74 304.43 377.48 305.29 377.25 306.14C376.78 307.85 376.37 309.57 375.86 311.28C375.61 312.02 375.4 312.76 375.13 313.5C374.13 316.26 373.59 317.06 372.58 317.31C372.36 317.39 372.132 317.443 371.9 317.47C371.19 317.47 371.11 316.16 371.67 314.14C372.08 312.64 372.56 311.14 373.01 309.62C373.46 308.1 373.82 306.53 374.26 304.97C374.48 304.2 374.71 303.42 374.93 302.64C375.15 301.86 375.33 301.06 375.52 300.26C375.93 298.68 376.33 297.08 376.74 295.49C377.31 293.11 377.81 290.71 378.36 288.32C378.91 285.93 379.31 283.49 379.79 281.08L379.84 281.1Z" fill="#221F1F"/>
<path d="M463.79 272.92L464.05 267.86L464.22 262.79C464.22 261.56 464.22 260.33 464.22 259.1C464.31 254.75 464.37 250.4 464.28 246.05C464.28 244.12 464.1 242.18 463.94 240.28C463.602 237.835 463.428 235.369 463.42 232.9C463.42 231.98 464.23 232.21 465 232.76C465.489 233.136 465.896 233.609 466.194 234.149C466.491 234.689 466.674 235.286 466.73 235.9C467.19 240.966 467.311 246.058 467.09 251.14C466.95 254.2 467.14 257.37 467.09 260.49C467.05 263.917 466.95 267.347 466.79 270.78C466.71 272.89 466.58 274.99 466.46 277.1C466.32 280.29 466.01 283.49 465.87 286.65C465.7 289.11 465.77 291.54 465.65 293.98C465.65 294.52 465.65 295.05 465.59 295.59C465.45 297.59 465.19 298.21 464.37 298.59C464.189 298.678 464.002 298.752 463.81 298.81C463.19 298.94 462.81 298.07 462.74 296.61C462.64 292.25 462.93 287.72 463.18 283.15C463.38 279.76 463.57 276.35 463.72 272.95L463.79 272.92Z" fill="#221F1F"/>
<path d="M395.329 80.2C396.139 80.79 396.57 81.25 396.19 81.55C395.97 81.72 396.06 82.01 395.98 82.24C395.444 83.6437 395.186 85.1379 395.22 86.64C395.29 87.17 395.509 87.4 395.649 87.45C395.666 87.4457 395.683 87.4457 395.7 87.45H395.79C395.86 87.45 395.88 87.5 395.98 87.45C396.08 87.4 396.32 87.45 396.48 87.45C396.841 87.3794 397.183 87.2291 397.48 87.0099C397.891 86.729 398.261 86.3925 398.579 86.0099C399.247 85.0889 399.782 84.0792 400.17 83.0099C400.38 82.4599 400.669 81.9299 400.839 81.3699C400.879 81.1622 400.899 80.9514 400.899 80.74C400.898 80.6948 400.91 80.6501 400.933 80.6112C400.956 80.5723 400.989 80.5407 401.03 80.52C401.641 80.353 402.29 80.3881 402.88 80.6199C403.43 80.8199 403.79 81.08 403.73 81.33C403.463 82.4422 403.102 83.5295 402.649 84.58C402.479 85 402.35 85.4499 402.14 85.8699C401.775 86.5211 401.346 87.1342 400.859 87.7C400.112 88.6922 399.129 89.4827 398 90C397.647 90.1589 397.273 90.2666 396.89 90.32C396.498 90.3798 396.101 90.3798 395.709 90.32C395.28 90.2912 394.858 90.1933 394.459 90.03C394.024 89.8299 393.636 89.5402 393.32 89.1799C393.117 88.9709 392.948 88.7314 392.82 88.47C392.69 88.2372 392.593 87.9884 392.53 87.73C392.328 87.0493 392.246 86.3386 392.29 85.63C392.317 85.0092 392.387 84.391 392.5 83.78C392.716 82.5835 393.016 81.4038 393.399 80.25C393.42 80.1634 393.457 80.0817 393.51 80.0099C393.79 79.7799 393.999 79.8 395.329 80.2Z" fill="black"/>
<path d="M414.67 83.2199C415.49 83.8099 415.96 84.1599 415.62 84.4699C415.28 84.7799 415.54 84.9199 415.49 85.1399C415.179 86.6928 415.085 88.2812 415.21 89.8599C415.26 90.3702 415.417 90.8643 415.67 91.3099C415.67 91.3099 415.67 91.3099 415.73 91.3099C415.79 91.3099 415.9 91.3099 416.01 91.3099C416.12 91.3001 416.23 91.3001 416.34 91.3099C416.448 91.2673 416.558 91.2306 416.67 91.1999C416.786 91.1253 416.906 91.0585 417.03 90.9999C417.443 90.7375 417.817 90.4176 418.14 90.0499C418.841 89.1178 419.438 88.1118 419.92 87.0499C420.21 86.4899 420.57 85.9499 420.92 85.3599C421.03 85.1399 421.08 84.8699 421.19 84.6299C421.208 84.5739 421.238 84.5225 421.277 84.4793C421.317 84.4361 421.366 84.4022 421.42 84.3799C421.8 84.2499 422.54 84.6199 423.12 85.1399C423.7 85.6599 423.83 85.8399 423.73 86.0099C423.26 86.8599 422.8 87.8499 422.3 88.8199C422.1 89.2099 421.96 89.6599 421.73 90.0499C421.346 90.6834 420.908 91.2823 420.42 91.8399C419.637 92.8216 418.599 93.5689 417.42 93.9999L416.8 94.1699H416.15C415.938 94.2003 415.722 94.2003 415.51 94.1699H415.19L414.8 94.0999C414.367 93.9343 413.973 93.6796 413.644 93.3524C413.315 93.0251 413.058 92.6325 412.89 92.1999C412.719 91.7844 412.591 91.3521 412.51 90.9099C412.302 89.6951 412.235 88.4602 412.31 87.2299C412.346 85.9743 412.503 84.7251 412.78 83.4999C412.798 83.4001 412.835 83.3049 412.89 83.2199C413.13 82.8199 413.32 82.8199 414.67 83.2199Z" fill="black"/>
<path d="M401.409 90.83C398.019 92.59 393.629 94.94 391.689 98.37C388.689 103.71 397.539 103.25 400.399 103C402.249 102.84 403.169 100.5 400.779 100.71C399.239 100.85 397.109 101.21 395.629 100.71C393.969 100.15 394.839 98.65 395.709 97.71C397.789 95.622 400.215 93.91 402.879 92.65C404.989 91.55 403.079 89.99 401.409 90.86V90.83Z" fill="black"/>
<path d="M398.69 119.7C398.315 119.797 397.934 119.871 397.55 119.92C397.137 119.95 396.723 119.95 396.31 119.92C395.989 119.897 395.671 119.843 395.36 119.76C394.85 119.554 394.388 119.246 394.002 118.854C393.617 118.461 393.317 117.994 393.12 117.48C392.961 117.112 392.833 116.73 392.74 116.34C392.628 115.856 392.652 115.351 392.81 114.88C392.87 114.73 392.81 114.76 392.88 114.88C393.078 115.029 393.285 115.166 393.5 115.29C394.142 115.618 394.732 116.039 395.25 116.54C395.292 116.601 395.347 116.651 395.411 116.687C395.475 116.724 395.547 116.745 395.62 116.75H395.83C395.909 116.735 395.991 116.735 396.07 116.75C396.26 116.799 396.454 116.829 396.65 116.84C396.886 116.86 397.124 116.86 397.36 116.84C397.697 116.835 398.032 116.795 398.36 116.72C398.889 116.635 399.406 116.488 399.9 116.28C400.092 116.202 400.277 116.104 400.45 115.99C400.639 115.891 400.837 115.807 401.04 115.74L401.32 115.65C401.525 115.612 401.732 115.592 401.94 115.59H401.99C401.919 115.716 401.865 115.85 401.83 115.99C401.65 116.4 401.51 116.89 401.33 117.37C401.126 117.808 400.853 118.21 400.52 118.56C400.021 119.089 399.414 119.505 398.74 119.78L398.69 119.7Z" fill="black"/>
<path d="M399.36 69.4C400.002 69.3492 400.64 69.2556 401.27 69.12C401.527 69.0748 401.781 69.0113 402.03 68.93C402.242 68.8471 402.459 68.777 402.68 68.72C402.965 68.6332 403.262 68.5894 403.56 68.59C403.995 68.5646 404.432 68.5949 404.86 68.68C405.112 68.7912 405.384 68.8491 405.66 68.85C405.91 68.85 406.12 68.85 406.19 68.91C406.549 68.8072 406.93 68.8072 407.29 68.91C407.695 69.0468 408.045 69.3096 408.29 69.66C408.61 70.19 409.08 69.95 409.5 69.66C410.35 69.02 410.36 69.04 410.66 68.53C410.96 68.02 410.94 68.01 410.94 68.01C410.515 67.8088 410.126 67.5385 409.79 67.21L408.47 66.45C407.906 66.1901 407.324 65.9696 406.73 65.79C405.4 65.4397 404.018 65.3279 402.65 65.46C401.424 65.5924 400.219 65.871 399.06 66.29C398.363 66.4694 397.691 66.7348 397.06 67.08C396.6 67.17 396.17 67.8 395.74 67.92C395 68.11 394.82 68.2 395.4 69.1C395.63 69.58 395.99 70.01 396.11 69.98C396.5 70.47 396.59 70.45 396.95 70.21C397.665 69.7274 398.498 69.4475 399.36 69.4Z" fill="#161616"/>
<path d="M421.46 71.7401C422.39 71.9101 423.2 72.0201 423.78 72.1101L424.71 72.2201C424.71 72.2201 424.98 72.2201 425.52 72.3001C426.38 72.4589 427.185 72.834 427.86 73.3901C428.28 73.9201 429.01 74.2401 429.11 74.4501C429.565 74.6571 429.961 74.977 430.258 75.3795C430.556 75.7819 430.746 76.2537 430.81 76.7501C430.9 77.5201 431.41 77.6101 431.94 77.5601C432.99 77.4501 432.99 77.4601 433.5 77.1401C434.01 76.8201 434 76.8001 434 76.8001C433.736 76.3298 433.511 75.8381 433.33 75.3301C432.79 74.1008 432.046 72.9716 431.13 71.9901C429.951 70.7518 428.479 69.8302 426.85 69.3101C425.391 68.8548 423.867 68.6453 422.34 68.6901C421.464 68.6316 420.584 68.682 419.72 68.8401C419.18 68.7901 418.44 69.2801 417.93 69.2601C417.42 69.2401 417.25 69.2601 417.28 69.3101C417.31 69.3601 417.21 69.6601 417.18 70.1701C417.15 70.6801 416.99 71.3201 417.29 71.3301C417.47 71.9501 417.74 71.9501 418.29 71.8301C419.327 71.5701 420.409 71.5394 421.46 71.7401Z" fill="#161616"/>
<path d="M366.69 33.28C366.826 36.2299 367.529 39.1259 368.76 41.81C369.876 44.4696 371.281 46.9981 372.95 49.35C374.592 51.6861 376.581 53.7568 378.85 55.49C381.226 57.2409 383.839 58.6449 386.61 59.66C383.466 59.7596 380.354 58.9989 377.61 57.46C374.802 55.9073 372.387 53.7316 370.55 51.1C368.693 48.522 367.336 45.6184 366.55 42.54C366.155 41.016 365.927 39.4535 365.87 37.88C365.811 36.3057 366.09 34.7369 366.69 33.28Z" fill="#221F1F"/>
<path d="M446.68 49.75C446.507 48.9012 446.63 48.0186 447.03 47.25C447.23 46.8554 447.471 46.4833 447.75 46.14C448.03 45.8082 448.334 45.4973 448.66 45.21C449.991 44.1169 451.565 43.359 453.25 43C454.91 42.6286 456.629 42.6014 458.3 42.92C459.959 43.1981 461.505 43.94 462.76 45.06C461.248 44.6827 459.698 44.4846 458.14 44.47C456.647 44.4682 455.158 44.6291 453.7 44.95C452.256 45.2566 450.865 45.772 449.57 46.48C448.221 47.1565 447.185 48.3281 446.68 49.75Z" fill="#221F1F"/>
<path d="M191.52 367C187.66 364.24 196.11 361.9 199.37 361.13C200.37 364.18 202.01 366.81 204.89 366.81C205.865 367.076 206.895 367.06 207.862 366.764C208.828 366.469 209.691 365.906 210.35 365.14C212.09 370 194.68 369.25 191.52 367Z" fill="#221F1F"/>
<path d="M251.05 364.62C251.51 368.98 235.17 368.17 232.12 366C228.12 363.18 237.12 360.79 240.12 360.07C241.03 362.83 242.78 365.57 246.12 365.94C246.986 366.154 247.893 366.145 248.755 365.914C249.617 365.683 250.406 365.238 251.05 364.62Z" fill="#221F1F"/>
<path d="M180.45 314C180.45 312.84 180.71 311.69 180.83 310.54C180.95 309.39 181.19 308.25 181.49 307.13C181.998 304.863 182.683 302.64 183.54 300.48C184.405 298.309 185.452 296.215 186.67 294.22C187.925 292.218 189.375 290.346 191 288.63C192.676 286.925 194.573 285.452 196.64 284.25C197.17 283.97 197.64 283.66 198.23 283.4L200.23 282.56C200.341 282.504 200.458 282.46 200.58 282.43L200.95 282.5L201.69 282.65L202.51 282.81L204.13 283.11C208.47 283.88 212.84 284.49 217.21 284.98C223.592 285.667 230.01 285.981 236.43 285.92H239.06C239.94 285.92 240.81 285.83 241.69 285.78C242.57 285.73 243.44 285.7 244.31 285.63L246.91 285.35C248.66 285.22 250.36 284.86 252.08 284.59C252.935 284.456 253.783 284.276 254.62 284.05L256.62 283.56L257.92 281.65C258.48 280.85 259.04 280.07 259.63 279.3C260.8 277.75 262.01 276.23 263.32 274.78C264.633 273.297 266.061 271.92 267.59 270.66C269.218 269.217 271.216 268.255 273.36 267.88C273.989 267.82 274.624 267.864 275.24 268.01C275.55 268.09 275.83 268.25 276.24 268.36C276.596 268.459 276.911 268.67 277.14 268.96C277.384 269.243 277.58 269.564 277.72 269.91C277.79 270.07 277.84 270.28 277.9 270.47C277.947 270.62 277.98 270.774 278 270.93C278 271.21 278.09 271.5 278.12 271.77V272.57C278.091 274.561 277.863 276.544 277.44 278.49C277.07 280.4 276.62 282.28 276.11 284.13C275.85 285.06 275.61 285.99 275.33 286.91L274.62 289.26L275.02 290.34C276.766 295.168 278.183 300.11 279.26 305.13C280.37 310.142 280.999 315.249 281.14 320.38C281.223 323.706 280.952 327.032 280.33 330.3C279.709 333.631 278.529 336.833 276.84 339.77C275.084 342.734 272.693 345.271 269.84 347.2C266.98 349.019 263.816 350.31 260.5 351.01C256.38 351.76 256.91 350.81 260.01 349.33C261.55 348.57 263.66 347.47 266.01 346.02C268.555 344.304 270.798 342.179 272.65 339.73C272.973 339.34 273.261 338.922 273.51 338.48L274.3 337.19L274.96 335.81L275.3 335.12L275.56 334.39L276.1 332.94L276.52 331.44C276.83 330.44 276.97 329.39 277.19 328.37C277.829 324.13 277.943 319.828 277.53 315.56C277.13 311.21 276.411 306.895 275.38 302.65C274.86 300.51 274.283 298.387 273.65 296.28C273.33 295.23 272.99 294.18 272.65 293.14L272.11 291.59L271.83 290.82L271.28 289.42L272.4 285.71C272.71 284.71 272.97 283.71 273.26 282.71C273.8 280.71 274.26 278.65 274.64 276.63C274.828 275.639 274.955 274.637 275.02 273.63V272.9V272.23C275.011 272.023 274.991 271.816 274.96 271.61C274.967 271.524 274.967 271.437 274.96 271.35C274.949 271.295 274.923 271.243 274.884 271.202C274.845 271.161 274.795 271.133 274.74 271.12C274.622 271.066 274.497 271.029 274.37 271.01C274.223 270.972 274.071 270.955 273.92 270.96C273.112 271.006 272.328 271.243 271.63 271.65C268.986 273.29 266.645 275.374 264.71 277.81C263.65 279.04 262.64 280.33 261.71 281.65C261.22 282.32 260.71 282.99 260.27 283.65L259.58 284.65L259.15 285.3L258.59 286.19L254.49 287.19C253.898 287.352 253.297 287.479 252.69 287.57L250.88 287.88L249.07 288.2L247.25 288.4C246.03 288.52 244.82 288.71 243.6 288.77C238.751 289.123 233.886 289.196 229.03 288.99C220.013 288.58 211.035 287.551 202.16 285.91L201.33 285.75L201.1 285.7C201.05 285.7 200.99 285.7 200.94 285.7L199.79 286.19C199.31 286.39 198.87 286.69 198.4 286.93C197.934 287.174 197.486 287.452 197.06 287.76C195.257 288.942 193.628 290.369 192.22 292C189.413 295.3 187.261 299.104 185.88 303.21C185.018 305.744 184.389 308.352 184 311C183.62 313.649 183.463 316.325 183.53 319C183.607 321.693 183.942 324.371 184.53 327C185.066 329.632 185.871 332.202 186.93 334.67C188.219 337.715 189.878 340.59 191.87 343.23C192.356 343.897 192.877 344.538 193.43 345.15C193.98 345.76 194.49 346.41 195.1 346.97C195.71 347.53 196.25 348.14 196.88 348.68L199 350.59C199 351.1 199 351.72 199 352.11L199.07 353.18C199.07 353.89 199.19 354.61 199.28 355.31C199.455 356.713 199.736 358.1 200.12 359.46C200.462 360.767 201.027 362.005 201.79 363.12C202.103 363.624 202.532 364.045 203.042 364.347C203.552 364.65 204.127 364.826 204.72 364.86C204.884 364.873 205.048 364.896 205.21 364.93C206.011 365.114 206.848 365.076 207.63 364.82C208.41 364.557 209.102 364.083 209.63 363.45C209.892 363.11 210.136 362.757 210.36 362.39C210.54 361.98 210.75 361.6 210.91 361.18L211.31 359.87L211.57 358.5C211.653 358.064 211.706 357.623 211.73 357.18L211.85 355.76C211.85 355.09 211.85 354.43 211.85 353.76V351.91V351.85C212.63 352.13 213.45 352.44 214.24 352.67C214.64 352.79 215.03 352.93 215.43 353.02L216.32 353.25C217.39 353.49 218.47 353.7 219.55 353.86C221.703 354.188 223.881 354.332 226.06 354.29C228.219 354.272 230.372 354.051 232.49 353.63C233.556 353.431 234.611 353.174 235.65 352.86C236.04 352.78 237 352.42 237.81 352.14L239.06 351.7L239.69 351.48L240 351.37L240.16 351.32H240.27L240.38 353.79C240.38 354.21 240.46 354.58 240.5 354.98C240.5 355.17 240.5 355.4 240.57 355.55L240.63 355.9C240.788 356.803 241.015 357.692 241.31 358.56C241.676 359.728 242.263 360.814 243.04 361.76C243.734 362.59 244.689 363.161 245.75 363.38L246.2 363.48H246.26H246.44C246.634 363.519 246.831 363.542 247.03 363.55C247.249 363.57 247.47 363.57 247.69 363.55C247.9 363.55 248.09 363.47 248.29 363.45L248.83 363.26C249.463 362.962 250.01 362.508 250.42 361.94C250.607 361.662 250.781 361.375 250.94 361.08C251.08 360.78 251.21 360.48 251.33 360.21C251.5 359.59 251.73 359.06 251.83 358.53C251.93 358 252.05 357.53 252.17 357.09C252.29 356.65 252.31 356.24 252.39 355.88C252.58 355.14 252.73 354.54 252.9 353.99C253.037 353.475 253.211 352.971 253.42 352.48C253.72 351.95 254.06 352.73 254.42 354.69C254.499 355.25 254.542 355.815 254.55 356.38C254.55 356.7 254.55 357.04 254.55 357.38C254.55 357.72 254.55 358.12 254.47 358.51C254.384 360.471 253.739 362.365 252.61 363.97C251.83 365.02 250.759 365.816 249.53 366.26C249.229 366.389 248.913 366.48 248.59 366.53C248.261 366.605 247.926 366.648 247.59 366.66C247.257 366.681 246.923 366.681 246.59 366.66C246.229 366.633 245.872 366.58 245.52 366.5L245.8 366.55C244.223 366.372 242.733 365.739 241.51 364.73C240.398 363.739 239.505 362.526 238.89 361.17C238.292 359.915 237.849 358.592 237.57 357.23C237.47 356.7 237.37 356.18 237.26 355.65C237.26 355.65 237.13 355.7 237.08 355.72C237.03 355.74 237.2 355.72 236.42 355.92C235.314 356.249 234.193 356.519 233.06 356.73C230.753 357.183 228.41 357.418 226.06 357.43C223.717 357.464 221.375 357.3 219.06 356.94C217.9 356.76 216.73 356.53 215.57 356.26L214.91 356.1V356.01V356.12V356.41L214.8 357.58C214.646 359.208 214.29 360.81 213.74 362.35C213.086 364.145 211.908 365.702 210.36 366.82C209.926 367.108 209.468 367.355 208.99 367.56C208.502 367.738 208 367.872 207.49 367.96C206.473 368.136 205.432 368.102 204.43 367.86H204.28H204.03C203.861 367.844 203.694 367.817 203.53 367.78C203.187 367.717 202.852 367.62 202.53 367.49C201.897 367.246 201.304 366.909 200.77 366.49C199.839 365.728 199.068 364.79 198.5 363.73C197.451 361.73 196.738 359.571 196.39 357.34C196.2 356.28 196.06 355.23 195.96 354.17C195.9 353.64 195.86 353.11 195.83 352.58V351.98L195.58 351.77L194.58 350.88C193.89 350.27 193.26 349.61 192.58 348.98C191.299 347.666 190.107 346.27 189.01 344.8C186.813 341.867 185.002 338.664 183.62 335.27C180.931 328.52 179.819 321.245 180.37 314H180.45Z" fill="#221F1F"/>
<path d="M490.16 322.2C494.77 321.54 499.36 320.76 503.88 319.73C508.363 318.76 512.748 317.381 516.98 315.61L518.53 314.92L520.01 314.13C520.98 313.604 521.921 313.027 522.83 312.4C523.29 312.1 523.68 311.73 524.11 311.4C524.541 311.083 524.939 310.725 525.3 310.33C525.66 309.95 526.06 309.55 526.38 309.19L526.69 308.72C526.78 308.52 526.86 308.33 526.96 308.13C527.52 306.113 527.659 304.003 527.37 301.93C527.132 299.668 526.748 297.423 526.22 295.21C524.528 288.634 522.424 282.171 519.92 275.86C515.64 264.62 510.73 253.59 505.6 242.67C500.47 231.75 495 221 489.45 210.24C484.45 200.74 479.29 191.29 473.94 182.11C473.08 180.64 472.21 179.17 471.33 177.72C470.5 176.273 469.578 174.88 468.57 173.55C464.593 168.222 458.969 164.355 452.57 162.55C449.362 161.657 446.072 161.094 442.75 160.87C438.59 160.63 439.08 159.87 442.75 159.13C445.304 158.726 447.901 158.673 450.47 158.97C454.238 159.365 457.883 160.533 461.18 162.4C464.427 164.272 467.332 166.683 469.77 169.53C470.4 170.21 470.93 170.96 471.51 171.69C471.65 171.88 471.79 172.04 471.93 172.25C472.07 172.46 472.23 172.67 472.35 172.86L473.08 174.02C474.02 175.54 474.91 177.02 475.79 178.57C479.32 184.64 482.7 190.77 486.03 196.95C492.66 209.3 499.03 221.83 505.03 234.58C508.63 242.22 512.29 250.01 515.8 257.94C519.31 265.87 522.69 273.94 525.51 282.13C527.119 286.652 528.455 291.267 529.51 295.95C530.032 298.34 530.367 300.768 530.51 303.21C530.585 304.482 530.531 305.759 530.35 307.02C530.185 308.422 529.676 309.762 528.87 310.92C528.678 311.197 528.457 311.451 528.21 311.68L527.55 312.37L526.89 313.06L526.16 313.65C525.67 314.05 525.16 314.46 524.69 314.83L523.13 315.83C522.619 316.176 522.088 316.489 521.54 316.77L519.91 317.63C518.8 318.13 517.7 318.63 516.57 319.1C512.076 320.807 507.451 322.145 502.74 323.1C491.22 325.54 479.55 326.68 467.93 327.71C459.13 328.49 450.29 329.08 441.54 330.05C437.201 330.466 432.899 331.205 428.67 332.26C427.664 332.539 426.683 332.903 425.74 333.35C424.79 333.78 423.74 334.35 422.79 334.83C420.79 335.83 418.79 336.69 416.69 337.51C410.318 339.946 403.769 341.889 397.1 343.32C395.45 343.69 393.79 344.04 392.1 344.32C390.41 344.6 388.85 345.03 387.2 345.39C385.55 345.75 383.89 346.1 382.2 346.39C381.36 346.55 380.52 346.69 379.67 346.82L378.39 347H378.06L377.56 347.05C377.23 347.05 376.88 347.13 376.56 347.14C375.467 347.245 374.367 347.221 373.28 347.07C372.474 346.976 371.705 346.684 371.04 346.22C370.721 345.984 370.472 345.666 370.32 345.3C370.235 345.09 370.194 344.866 370.2 344.64C370.185 344.537 370.185 344.433 370.2 344.33C370.223 344.262 370.25 344.195 370.28 344.13C370.406 343.861 370.571 343.611 370.77 343.39C371 343.071 371.277 342.788 371.59 342.55C372.447 341.98 373.347 341.475 374.28 341.04L376.66 339.9L379.57 338.57C381.34 337.79 382.78 337.19 383.99 336.74C385.626 336.041 387.359 335.592 389.13 335.41C389.687 335.338 390.249 335.311 390.81 335.33C392.04 335.53 388.09 337.74 380.81 341.33L378.81 342.33C378.2 342.63 377.23 343.11 377.29 343.1C377.012 343.255 376.744 343.429 376.49 343.62C376.35 343.7 376.49 343.93 376.7 343.93C376.866 343.955 377.034 343.955 377.2 343.93L377.61 343.87H377.7L378.06 343.82L379.16 343.66C382.16 343.2 385.16 342.55 388.16 341.88C391.16 341.21 394.29 340.65 397.32 339.94C403.386 338.639 409.346 336.884 415.15 334.69C418.03 333.578 420.842 332.296 423.57 330.85C423.87 330.68 424.36 330.47 424.77 330.28C425.178 330.079 425.599 329.905 426.03 329.76C426.85 329.48 427.69 329.19 428.5 329C429.31 328.81 430.13 328.58 430.93 328.42C431.73 328.26 432.55 328.08 433.36 327.95C438.14 327.13 442.89 326.64 447.63 326.18C452.37 325.72 457.11 325.36 461.84 324.96C471.29 324.17 480.73 323.35 490.04 321.96L490.16 322.2Z" fill="#221F1F"/>
</svg>
