<svg width="520" height="520" viewBox="0 0 520 520" fill="none" xmlns="http://www.w3.org/2000/svg">
<g clip-path="url(#clip0_411_1078)">
<rect width="520" height="520" fill="white"/>
<circle cx="260" cy="260" r="249" fill="#EBF7F0"/>
<mask id="mask0_411_1078" style="mask-type:alpha" maskUnits="userSpaceOnUse" x="11" y="11" width="498" height="498">
<circle cx="260" cy="260" r="249" fill="#EBF7F0"/>
</mask>
<g mask="url(#mask0_411_1078)">
</g>
<path d="M297.699 71.135C298.331 71.2653 298.999 71.3841 299.503 71.82C300.369 72.5685 300.98 74.1275 301.11 75.2454C301.323 77.0782 301.261 78.3176 300.11 79.7817C299.573 79.7027 298.816 79.6418 298.371 79.3112C297.629 78.7605 297.101 77.2831 296.915 76.4135C296.509 74.5157 296.606 72.7338 297.699 71.135Z" fill="#231F20"/>
<path d="M311.603 67.6167C312.595 67.6112 313.276 67.5728 314.161 68.1054C314.475 68.549 314.75 68.7524 314.758 69.3233C314.795 72.1091 307.827 78.7628 305.744 81.0836C305.637 81.1315 305.534 81.1924 305.422 81.2279C304.609 81.4825 303.977 81.5693 303.227 81.2094C303.104 80.8385 303.081 80.8414 303.062 80.3849C302.936 77.3496 309.465 69.9187 311.603 67.6167Z" fill="#231F20"/>
<path d="M243.988 209.901C244.668 209.969 245.486 210.144 246.015 210.626C246.371 210.952 246.692 211.249 246.704 211.748C246.733 212.985 245.584 214.165 244.74 214.953C240.889 218.551 236.305 220.394 231.027 220.229C230.443 220.025 229.771 219.794 229.282 219.401C228.653 218.896 228.352 218.208 228.24 217.43C229.641 214.495 234.884 215.66 237.585 214.698C240.189 213.77 242.164 211.896 243.988 209.901Z" fill="#231F20"/>
<path d="M239.743 150.181C242.912 150.014 247.188 150.883 249.605 153.055C249.899 153.761 249.869 153.745 249.626 154.476C248.453 155.543 241.06 154.86 238.103 155.965L237.733 156.107C236.628 156.77 235.801 157.776 234.733 158.496C233.842 159.098 232.836 159.391 231.766 159.046C231.138 158.844 230.664 158.297 230.492 157.667C230.191 156.569 230.637 155.451 231.271 154.568C233.195 151.887 236.643 150.778 239.743 150.181Z" fill="#231F20"/>
<path d="M248.672 164.605C249.577 164.978 250.097 165.186 250.48 166.134C251.188 167.888 250.313 170.698 249.641 172.347C248.459 175.251 246.464 178.057 243.454 179.249C241.848 179.885 240.01 180.002 238.438 179.201C235.964 177.941 234.515 175.1 233.741 172.566C233.498 171.15 233.064 169.301 233.415 167.882C233.635 166.988 233.861 166.895 234.575 166.398L235.276 166.533C236.983 168.464 236.871 171.819 238.401 174.023C239.026 174.925 239.881 175.685 241.025 175.791C247.746 176.413 245.911 167.061 248.263 164.95C248.396 164.83 248.536 164.72 248.672 164.605Z" fill="#231F20"/>
<path d="M90.5797 219.15C90.7381 219.137 90.8962 219.123 91.055 219.113C91.9889 219.053 93.0544 219.143 93.7128 219.891C94.5947 220.892 94.8507 223.288 95.0183 224.607C96.7917 238.56 83.6212 242.487 82.2496 255.02C81.6063 260.896 84.6841 264.178 88.9968 267.542C89.8739 268.226 91.2149 269.061 91.8423 269.963C92.3095 270.635 92.0835 271.163 91.9867 271.92C90.3662 271.75 89.1449 270.925 87.8368 270.018C84.0581 267.397 80.2207 263.316 79.4968 258.626C78.2286 250.408 84.2191 243.911 88.6105 237.798C93.2383 231.355 90.545 228.747 89.5977 221.984C89.4245 220.747 89.8466 220.098 90.5797 219.15Z" fill="#231F20"/>
<path d="M71.997 186.862C72.7079 186.863 73.6844 186.791 74.3207 187.153C76.9291 188.637 79.2044 193.398 80.3699 196.152C82.2452 200.581 83.3757 205.421 82.8302 210.244C81.0125 226.311 60.0714 242.398 64.1412 258.719C65.4086 263.802 69.7018 267.95 74.1346 270.504C75.8079 271.468 77.753 272.249 79.3333 273.338C80.1317 273.888 80.1324 274.291 80.2432 275.21C80.1298 275.23 80.0176 275.264 79.9024 275.27C76.1495 275.493 69.047 270.49 66.4242 268.002C47.973 250.501 76.2104 227.255 78.0595 210.793C79.2195 200.465 70.5335 191.881 70.7203 189.068C70.7857 188.088 71.3603 187.524 71.997 186.862Z" fill="#231F20"/>
<path d="M249.482 277.402C250.509 276.628 251.395 276.015 252.736 276.239C253.359 276.342 253.864 276.755 254.187 277.292C255.538 279.537 255.131 283.165 255.03 285.701C254.512 298.646 251.929 311.497 248.164 323.869C244.087 337.266 237.55 354.292 229.616 365.81C227.274 369.25 224.004 375.281 219.765 376.525C219.565 376.071 219.247 375.318 219.377 374.834C220.018 372.457 224.321 369.309 225.868 366.943C238.604 347.464 245.637 318.801 248.553 295.96C248.925 292.926 249.131 289.88 249.171 286.823C249.193 283.928 248.753 280.46 249.417 277.651C249.436 277.568 249.46 277.485 249.482 277.402Z" fill="#231F20"/>
<path d="M216.471 169.419C217.502 169.76 217.941 170.098 218.453 171.068C219.742 173.508 219.741 176.479 218.854 179.057C218.019 181.486 216.705 182.97 214.423 184.094C214.451 185.952 214.457 187.718 214.248 189.571C213.909 192.586 212.316 197.238 212.986 200.084C215.453 203.035 218.26 201.109 221.328 201.553C221.781 202.133 221.66 202.088 221.625 202.773C221.078 203.709 220.375 204.218 219.521 204.869C222.528 215.5 225.965 227.499 233.724 235.704C237.453 239.648 242.229 242.554 247.81 242.578C254.554 242.607 261.474 238.242 266.199 233.737C267.32 232.668 268.261 231.418 269.363 230.325C270.247 229.448 270.787 229.389 271.961 229.385L272.43 230.113L272.371 229.477C273.101 229.961 273.083 229.943 273.318 230.789C272.597 234.176 268.437 237.105 265.929 239.341C261.722 242.836 257.135 245.824 251.708 246.979C246.256 248.141 240.935 247.036 236.303 243.965C224.834 236.361 218.871 218.543 216.216 205.74C214.521 205.446 212.862 204.999 211.421 204.022C210.357 203.301 209.533 202.263 209.156 201.026C208.229 197.985 211.069 188.521 210.124 183.609C209.749 181.661 206.838 172.933 206.972 172.025C207.024 171.675 207.285 171.391 207.442 171.074C207.767 170.9 208.017 170.646 208.401 170.741C212.031 171.63 212.468 178.054 213.918 180.688L214.368 180.646C218.467 177.987 214.755 172.82 216.471 169.419Z" fill="#231F20"/>
<path d="M169.642 371.14C164.116 368.615 158.48 365.984 153.439 362.57C151.07 360.968 149.026 358.945 146.595 357.425C145.889 357.473 144.818 357.654 144.269 357.133C143.337 356.244 143.457 354.446 143.347 353.251C143.123 350.811 142.933 347.877 142.154 345.544C141.631 343.979 140.478 342.765 140.335 341.086C140.644 340.289 140.903 339.964 141.558 339.421C142.261 339.377 142.426 339.292 142.99 339.779C145.762 342.167 147.069 349.803 147.415 353.284C149.489 354.713 151.599 356.089 153.744 357.41C155.889 358.731 158.067 359.996 160.278 361.204C162.488 362.412 164.729 363.561 166.999 364.651C169.269 365.744 171.566 366.777 173.89 367.752C174.049 366.427 173.931 364.788 174.748 363.688C175.645 363.282 176.296 363.489 177.206 363.821C181.045 365.223 184.69 367.837 188.406 369.619C198.281 374.358 208.65 377.241 219.482 378.728C223.278 379.097 227.047 379.315 230.862 379.108C233.121 378.983 235.501 378.521 237.748 378.554C238.493 378.566 239.011 378.828 239.644 379.171C240.147 379.876 240.137 379.905 240.111 380.773C239.568 381.791 238.914 382.537 237.785 382.928C235.957 383.563 233.432 383.474 231.496 383.585C215.376 384.526 196.043 378.459 181.973 370.83C180.588 370.077 179.217 369.301 177.859 368.501C175.679 381.743 167.218 395.392 156.306 403.242C152.819 405.752 148.944 407.586 144.541 407.346C143.621 406.981 142.571 406.623 141.769 406.032C139.781 404.574 138.838 402.415 138.45 400.057C137.899 396.709 138.03 391.417 140.208 388.682C140.584 388.213 140.599 388.173 141.217 388.125C142.833 389.856 141.348 395.281 141.409 397.617C141.451 399.208 141.832 400.695 142.231 402.223C142.463 397.304 143.257 392.266 145.794 387.962C141.549 383.504 136.995 380.042 132.046 376.414C125.833 376.381 115.892 375.676 111.172 371.077L111.508 369.922C114.855 369.475 118.333 370.793 121.611 371.402C123.036 371.68 124.472 371.882 125.919 372.007C127.365 372.135 128.815 372.185 130.267 372.158C132.356 372.103 134.466 371.882 136.503 371.409C138.476 370.948 141.265 369.15 143.258 369.405C143.948 369.494 144.539 369.874 144.883 370.49C145.215 371.081 145.159 371.771 144.824 372.343C143.784 374.126 139.721 375.052 137.835 375.683C145.435 380.507 150.791 386.456 156.161 393.587C162.748 385.811 166.397 380.906 169.642 371.14Z" fill="#231F20"/>
<path d="M82.9776 302.337C86.3574 301.93 92.0584 301.514 95.3175 302.664C96.1462 302.957 96.7002 303.324 97.1001 304.101C96.7131 304.855 96.2766 305.17 95.4335 305.358C92.6234 305.984 89.0711 305.528 86.151 305.708C76.3486 306.314 63.1747 308.379 55.6594 315.288C69.1253 307.849 85.5457 304.918 100.659 308.172C101.79 307.594 102.75 307.213 104.026 307.028C108.731 306.345 113.812 307.779 117.607 310.6C120.387 312.667 122.515 315.384 123.029 318.868C126.899 319.034 131.695 318.783 135.332 320.163C136.826 320.732 138.155 321.684 138.736 323.227C139.259 324.618 139.079 326.449 138.413 327.762C137.073 330.409 133.782 331.213 131.199 332.07C131.021 333.741 130.537 334.941 129.602 336.34C131.496 337.384 133.005 338.336 133.836 340.44C134.425 341.931 134.404 343.54 133.703 344.991C132.605 347.261 130.605 348.316 128.319 349.091C129.324 349.844 129.991 350.59 130.428 351.789C130.8 352.808 130.765 353.786 130.291 354.768C127.678 360.167 114.375 364.434 108.772 366.228C108.42 368.675 108.324 372.432 106.853 374.465C103.903 378.551 96.5358 380.33 91.835 380.968C87.8701 381.504 67.8186 382.676 64.5 380C60 374.465 55.4605 349.639 54.5 339.23C52.9323 333.852 53.7907 326.995 53.0421 321.451C51.9139 320.348 52.2592 318.189 51.9859 316.587C51.7351 315.122 52.1429 313.867 53.0421 312.697C58.1969 305.984 74.7532 303.18 82.9776 302.337ZM110.289 338.813C110.351 342.304 110.412 345.788 110.329 349.28C114.686 348.006 119.339 347.526 123.872 347.552C124.664 346.714 125.422 346.161 126.42 345.585C128.101 344.873 129.397 344.349 130.366 342.725C130.409 341.898 130.463 341.717 129.832 341.086C127.294 338.554 118.04 339.403 114.333 339.23C112.976 339.163 111.642 338.916 110.289 338.813ZM109.09 326.172C109.409 329.634 109.85 333.096 110.097 336.558C115.272 335.605 120.486 335.107 125.681 334.306C126.575 333.882 126.94 333.553 127.564 332.789C127.61 332.025 127.545 331.723 126.993 331.154C123.487 327.563 113.88 326.371 109.09 326.172ZM118.777 351.324C115.892 351.536 113.013 351.811 110.14 352.151C110.017 355.277 109.771 358.355 109.448 361.466C111.346 360.669 113.278 359.913 115.151 359.06C117.857 358.196 124.665 356.019 126.069 353.354C126.321 352.878 126.197 352.83 126.065 352.35C124.339 350.992 120.881 351.195 118.777 351.324ZM104.46 311.051C107.744 313.527 107.705 317.661 108.301 321.451C111.277 320.831 114.251 320.163 117.246 319.639L118.048 319.362L118.159 318.993L117.964 319.263C118.183 318.296 117.988 317.916 117.481 317.044C115.874 314.287 111.933 311.778 108.815 311.147C107.445 310.87 105.849 310.969 104.46 311.051ZM123.056 322.374L115.084 323.747C120.206 324.684 124.676 325.518 129.14 328.36C130.711 328.124 133.559 326.869 134.827 325.924L135.124 325.264C134.437 324.046 133.355 323.636 132.04 323.274C129.434 322.558 125.705 322.038 123.056 322.374Z" fill="#231F20"/>
<path d="M103.207 314C103.262 314.048 103.327 314.085 103.371 314.144C104.162 315.228 104.242 319.787 104.426 321.359C105.847 333.54 106.533 345.173 105.512 357.428C105.123 362.105 104.158 366.697 103.799 371.37C98.057 376.406 77.9894 377.5 70.8665 376.816C66.5109 376.397 66.1285 366.475 63.7798 355.261C60.9449 341.727 60 335.712 60 321.359C72.9537 323.909 91.9886 321.493 103.207 314Z" fill="#63615D"/>
<path d="M83.0779 334.454C83.3527 334.527 83.8166 334.638 84.0596 334.764C84.7612 335.133 84.8321 335.457 85.0389 336.151C84.7993 336.89 84.735 337.155 84.1113 337.665C81.1273 340.086 73.8416 339.971 70.1914 339.584C69.3236 339.414 68.8235 339.181 68.0812 338.739C67.6853 337.975 67.6805 337.952 67.8294 337.104C69.4484 335.528 75.7642 336.31 78.274 335.945C79.9791 335.694 81.4918 335.096 83.0779 334.454Z" fill="#231F20"/>
<path d="M229.243 66.5881L229.969 66.5681C248.058 66.1049 266.449 70.2726 282.947 77.622C288.293 80.0032 293.526 82.5846 297.807 86.6518C302.524 85.5925 307.629 85.1282 312.447 85.6386C320.151 86.4539 327.101 89.5914 332.002 95.7133C346.722 114.097 338.405 149.19 331.994 169.814C330.018 176.17 326.296 184.434 325.229 190.692C323.759 199.287 322.721 208.165 322.835 216.895C322.883 220.442 324.213 224.664 323.711 228.102C323.57 229.067 323.131 229.8 322.285 230.324C321.632 230.73 320.956 230.709 320.247 230.493C317.143 228.114 317.695 215.379 317.961 211.449C318.111 209.247 318.898 205.657 318.265 203.636C318.125 203.187 317.44 203.014 317.031 202.816C316.508 201.956 316.855 201.06 317.012 200.085C315.162 198.686 312.196 199.535 309.626 197.267C306.049 194.111 305.552 189.375 305.296 184.928C303.807 185.548 301.996 186.318 300.383 186.437C299.487 186.502 298.575 186.34 297.941 185.646C297.404 185.058 297.279 184.34 297.454 183.58C297.951 181.419 301.908 181.717 303.546 180.744C307.25 178.541 309.6 174.23 310.466 170.103C311.382 165.737 310.733 161.666 308.296 157.904C306.781 156.288 304.963 155.118 302.684 155.01C295.4 154.666 292.563 163.542 287.819 167.457C286.394 168.633 284.483 169.807 282.552 169.579C280.655 169.356 279.174 167.951 278.07 166.494C273.045 159.862 275.405 148.582 275.028 140.717C274.862 137.28 273.875 133.66 274.192 130.234C274.381 128.191 275.953 126.447 276.166 124.421C276.282 123.311 275.983 122.065 275.193 121.245C273.466 119.45 269.822 119.764 267.542 119.835C267.392 118.579 267.269 116.462 266.097 115.695C263.356 113.903 260.467 117.254 258.049 118.055C255.674 118.84 252.758 118.766 250.277 119.189C246.007 119.917 241.886 121.383 237.865 122.948C233.56 124.624 229.308 126.315 225.198 128.435C219.655 131.294 214.911 134.696 208.783 136.298C206.54 142.936 205.992 149.738 207.427 156.603C209.683 156.095 211.946 155.381 214.065 156.765C214.912 157.318 215.708 158.248 215.755 159.304C215.791 160.128 215.557 160.415 215.093 161.026C212.734 162.246 209.515 161.1 206.839 161.428L206.291 161.498C205.311 160.726 204.426 159.813 203.523 158.953C201.644 152.209 202.322 145.63 204.067 138.941C203.04 138.908 202.008 138.879 200.983 138.796C195.375 138.34 190.165 135.087 186.579 130.869C182.413 125.97 180.098 119.516 180.677 113.069C181.492 103.993 188.023 96.102 194.704 90.4603C195.309 85.6449 196.49 81.7098 199.673 77.9678C206.806 69.5805 218.845 67.3845 229.243 66.5881ZM305.114 88.4599L304.619 88.8002C307.113 89.4246 309.823 89.9694 312.153 91.0851C317.295 93.5472 323.072 99.5606 326.026 104.423C337.006 122.492 331.536 148.317 328.955 168.149L329.786 165.673C334.993 147.03 341.836 118.837 331.714 101.042C328.419 95.2501 323.249 91.2899 316.811 89.5752C313.055 88.5746 308.986 88.3222 305.114 88.4599ZM232.353 70.246C222.575 70.7977 210.387 72.3298 203.404 80.0294C201.512 82.1158 200.391 84.3834 199.524 87.0445C201.008 86.1028 202.52 85.2097 204.062 84.365C205.603 83.5203 207.17 82.7258 208.762 81.9815C210.355 81.2374 211.969 80.545 213.606 79.9043C215.243 79.2639 216.899 78.6764 218.573 78.142C231.97 74.1017 245.196 72.2205 259.192 73.1384C250.558 71.0675 241.245 69.7931 232.353 70.246Z" fill="#231F20"/>
<path d="M265.577 256.446C265.933 258.975 264.993 261.711 264.526 264.2C263.919 267.44 263.32 271.885 265.436 274.695C266.034 275.487 266.908 275.982 267.894 276.103C279.295 277.505 301.287 252.887 308.328 244.675C310.313 242.36 313.145 237.582 315.523 236.002C316.827 235.136 317.971 235.494 319.404 235.745C324.213 237.034 328.563 239.207 332.984 241.448C346.352 246.219 357.022 254.649 367.979 263.398C378.74 271.988 389.181 280.826 398.724 290.783C403.24 295.496 407.376 300.516 411.638 305.455C416.384 310.958 421.214 316.373 425.398 322.326C429.682 328.419 433.324 335.018 437.187 341.389C441.84 349.069 446.526 356.609 450.378 364.74C458.784 382.481 470.361 411.86 463.596 431.148C460.549 439.832 449.056 446.763 441.168 450.476C422.666 459.186 402.461 463.866 382.43 467.461C376.576 468.513 370.756 469.672 364.844 470.369C364.873 472.048 364.878 473.727 364.858 475.407C365.966 480.988 365.002 491.067 364.958 497.15C364.928 501.608 365.357 506.041 365.505 510.492C365.519 510.96 365.416 511.274 365.202 511.684C364.784 511.994 364.374 512.308 363.931 512.581C363.702 512.85 363.643 512.935 363.414 513.164C361.302 515.234 355.6 515.721 352.764 516.227C347.889 517.098 342.994 517.839 338.08 518.449C333.166 519.059 328.238 519.539 323.297 519.888C318.357 520.235 313.411 520.451 308.46 520.534C303.508 520.618 298.558 520.57 293.609 520.39C274.683 519.826 254.366 517.604 236.557 510.82C232.964 509.451 228.791 507.838 226.102 504.985C225.547 504.653 225.106 504.439 224.731 503.896C223.414 501.984 233.306 443.298 234.449 436.706C226.35 440.234 218.022 441.836 209.184 441.685C188.302 441.32 167.705 433.222 150.675 421.408C147.835 419.437 144.284 417.392 141.932 414.857C141.076 413.934 140.793 413.336 140.854 412.081C141.491 411.251 141.768 411.181 142.704 410.782C143.132 409.549 143.873 408.461 144.541 407.346C148.944 407.586 152.819 405.752 156.306 403.242C167.218 395.392 175.679 381.743 177.859 368.501C179.217 369.3 180.588 370.077 181.973 370.83C196.043 378.458 215.376 384.526 231.497 383.585C233.432 383.474 235.957 383.563 237.785 382.928C238.914 382.537 239.568 381.791 240.111 380.773C240.137 379.905 240.147 379.876 239.644 379.171C239.011 378.828 238.493 378.566 237.748 378.554C235.501 378.521 233.121 378.983 230.862 379.108C227.047 379.315 223.278 379.097 219.482 378.728C219.535 377.993 219.662 377.259 219.765 376.525C224.004 375.281 227.274 369.25 229.616 365.81C237.55 354.291 244.087 337.266 248.164 323.868C251.929 311.497 254.512 298.645 255.03 285.7C255.131 283.165 255.538 279.537 254.187 277.292C253.864 276.754 253.359 276.342 252.736 276.238C251.395 276.015 250.509 276.628 249.482 277.402C249.528 270.737 253.565 263.522 257.649 258.493C258.872 256.986 260.67 254.813 262.793 254.815C264.081 254.816 264.8 255.524 265.577 256.446ZM332.984 241.448C332.046 241.688 331.65 241.82 330.938 242.527C330.679 243.295 330.76 243.346 331.037 244.122C333.693 246.786 338.047 247.802 341.256 249.751C345.488 252.325 349.602 255.389 353.539 258.396C368.234 269.615 382.696 282.048 395.396 295.517C402.051 302.574 408.248 310.128 414.515 317.528C416.066 319.358 423.098 327.493 422.858 329.279C422.817 329.582 422.714 329.829 422.61 330.113L423.404 329.873C424.83 330.815 428.434 337.919 429.649 339.986C433.678 346.84 437.944 353.642 441.718 360.632C442.673 362.362 443.596 364.109 444.488 365.873C445.377 367.635 446.233 369.414 447.058 371.21C447.88 373.006 448.669 374.817 449.425 376.643C450.181 378.468 450.901 380.308 451.586 382.16C452.273 384.013 452.924 385.878 453.539 387.756C454.157 389.63 454.738 391.518 455.283 393.417C455.827 395.317 456.336 397.225 456.811 399.141C457.284 401.061 457.721 402.987 458.122 404.921C459.954 413.923 461.036 426.442 455.534 434.499C452.151 439.445 445.212 442.895 439.945 445.39C418.06 455.765 394.495 460.611 370.76 464.538C369.443 464.752 368.12 464.933 366.793 465.081C366.797 454.938 360.275 445.372 353.388 438.437C350.308 435.337 347.084 432.572 343.516 430.052C354.348 424.966 366.158 421.234 377.496 417.411C385.842 414.595 398.284 410.014 406.874 408.992C411.25 408.468 415.531 409.247 419.818 410C421.794 410.343 423.711 410.908 425.203 409.232C425.443 408.391 425.413 408.295 425.155 407.453C422.798 404.836 415.885 404.054 412.447 403.855C401.157 403.198 384.468 409.343 373.688 413.277C373.655 407.176 373.526 401.024 373.858 394.93C374.095 390.59 374.974 385.899 374.671 381.588C374.571 380.153 374.272 378.381 373.164 377.359C372.772 377.001 372.665 377.089 372.182 377.071C370.782 378.156 370.435 380.005 370.232 381.677C369.552 387.208 369.095 392.758 368.862 398.326C368.63 403.894 368.62 409.462 368.832 415.03C361.675 417.699 338.689 424.855 335.872 430.83C335.166 432.325 335 434.004 335 435.632C330.502 437.204 325.963 438.245 321.439 439.659C303.821 445.158 288.874 452.318 280.509 469.749C279.85 471.122 278.882 473.112 279.358 474.669C279.857 476.301 281.699 477.013 283.135 477.589C283.602 477.777 284.075 477.936 284.552 478.094C283.483 479.777 281.99 482.221 282.644 484.284C282.922 485.158 283.676 485.749 284.515 486.044C285.821 486.505 287.584 486.325 288.965 486.31C290.582 484.97 292.178 483.575 293.904 482.379C294.394 483.855 294.984 484.553 296.223 485.468C296.973 485.251 297.831 485.347 298.614 485.18C301.277 484.619 303.755 483.206 306.048 481.8L307.509 481.028C308.507 481.338 308.715 482.235 309.29 483.069C310.35 484.184 311.483 484.992 313.089 485.025C316.646 485.099 326.325 479.633 330.373 478.079C334.298 476.577 338.582 475.828 342.327 473.883C345.071 472.455 347.387 470.436 349.695 468.41C355.112 471.927 358.961 471.148 364.844 470.369C370.756 469.672 376.576 468.513 382.43 467.461C402.461 463.866 422.666 459.186 441.168 450.476C449.056 446.763 460.549 439.832 463.596 431.148C470.361 411.86 458.784 382.481 450.378 364.74C446.526 356.609 441.84 349.069 437.187 341.389C433.324 335.018 429.682 328.419 425.398 322.326C421.214 316.373 416.384 310.958 411.638 305.455C407.376 300.516 403.24 295.496 398.724 290.783C389.181 280.826 378.74 271.988 367.979 263.398C357.022 254.649 346.352 246.219 332.984 241.448Z" fill="#FEFEFE"/>
<path d="M363.931 512.581C362.602 511.348 362.587 510.126 362.424 508.388C362.026 504.147 360.91 477.633 362.919 475.201C363.772 474.965 364.035 475.145 364.858 475.407C365.966 480.988 365.002 491.067 364.958 497.15C364.928 501.608 365.357 506.041 365.504 510.492C365.519 510.96 365.416 511.274 365.202 511.684C364.784 511.994 364.374 512.308 363.931 512.581Z" fill="#231F20"/>
<path d="M362.31 345.666C361.852 344.987 361.79 344.67 361.959 343.891C362.661 343.5 362.897 343.363 363.739 343.459C367.983 343.954 381.082 358.875 384.295 362.551C387.907 366.659 391.197 370.9 394.314 375.399C397.675 380.256 403.177 390.524 407.554 393.864C408.617 394.676 410.198 394.864 411.487 394.971C413.714 395.152 415.978 394.964 418.201 395.178C421.104 395.455 427.282 397.174 429.18 399.522C429.745 400.223 429.778 400.673 429.804 401.552C429.398 402.308 429.332 402.482 428.608 402.921C426.337 403.094 423.847 400.972 421.591 400.308C417.152 399.005 408.089 399.592 404.946 397.101C398.65 392.114 394.004 382.363 389.373 375.698C381.675 364.61 369.602 356.479 362.31 345.666Z" fill="#231F20"/>
<path d="M142.704 410.782C148.183 414.093 153.212 418.042 158.778 421.282C177.96 432.436 202.637 440.574 224.769 435.023C228.455 434.097 232.2 432.775 235.544 430.96C235.86 428.697 235.834 425.102 237.876 423.608C238.404 423.22 238.6 423.113 239.234 423.168C239.865 423.608 240.091 424.268 240.198 425.006C240.668 428.225 228.729 501.663 226.827 504.206C226.578 504.542 226.388 504.708 226.102 504.985C225.547 504.653 225.106 504.439 224.731 503.896C223.414 501.985 233.306 443.298 234.449 436.706C226.35 440.234 218.022 441.836 209.184 441.685C188.302 441.32 167.705 433.222 150.675 421.408C147.835 419.437 144.284 417.392 141.932 414.857C141.076 413.934 140.793 413.336 140.854 412.081C141.491 411.251 141.768 411.181 142.704 410.782Z" fill="#231F20"/>
<path d="M332.983 241.448C346.352 246.22 357.021 254.649 367.978 263.398C378.74 271.988 389.18 280.827 398.723 290.783C403.24 295.496 407.376 300.516 411.638 305.455C416.383 310.958 421.214 316.373 425.398 322.326C429.682 328.419 433.323 335.018 437.186 341.389C441.839 349.069 446.526 356.609 450.378 364.74C458.783 382.482 470.361 411.86 463.595 431.148C460.548 439.832 449.056 446.764 441.167 450.476C422.665 459.187 402.46 463.867 382.429 467.461C376.576 468.513 370.756 469.672 364.843 470.37C358.96 471.148 355.112 471.927 349.694 468.41C347.386 470.436 345.07 472.455 342.327 473.883C338.582 475.828 334.298 476.577 330.372 478.08C326.325 479.633 316.645 485.099 313.089 485.026C311.483 484.992 310.349 484.184 309.289 483.07C308.714 482.235 308.507 481.339 307.509 481.029L306.048 481.8C303.754 483.206 301.276 484.62 298.613 485.181C297.831 485.347 296.973 485.251 296.222 485.469C294.984 484.553 294.394 483.856 293.904 482.379C292.177 483.575 290.581 484.97 288.965 486.31C287.583 486.325 285.82 486.506 284.514 486.044C283.676 485.749 282.921 485.159 282.644 484.284C281.989 482.221 283.482 479.777 284.552 478.094C284.074 477.936 283.602 477.777 283.134 477.589C281.699 477.013 279.856 476.301 279.357 474.669C278.882 473.112 279.85 471.123 280.509 469.75C288.873 452.318 303.821 445.158 321.439 439.659C325.963 438.245 330.501 437.204 335 435.632C335 434.005 335.166 432.325 335.871 430.831C338.689 424.855 361.674 417.699 368.832 415.03C368.62 409.462 368.63 403.894 368.861 398.326C369.095 392.758 369.552 387.208 370.231 381.677C370.434 380.005 370.781 378.156 372.181 377.071C372.665 377.089 372.772 377.001 373.163 377.359C374.271 378.381 374.571 380.153 374.67 381.588C374.973 385.899 374.094 390.59 373.858 394.931C373.525 401.024 373.655 407.176 373.688 413.277C384.468 409.343 401.157 403.198 412.446 403.855C415.885 404.054 422.798 404.837 425.154 407.453C425.413 408.295 425.442 408.391 425.202 409.232C423.71 410.908 421.794 410.343 419.818 410C415.53 409.247 411.25 408.468 406.874 408.992C398.284 410.015 385.842 414.595 377.495 417.411C366.158 421.235 354.347 424.966 343.516 430.052C347.083 432.573 350.307 435.337 353.387 438.437C360.275 445.372 366.797 454.939 366.793 465.081C368.12 464.933 369.442 464.752 370.759 464.538C394.494 460.611 418.06 455.765 439.945 445.391C445.211 442.896 452.15 439.445 455.533 434.499C461.036 426.442 459.954 413.923 458.122 404.921C457.721 402.987 457.284 401.061 456.811 399.142C456.336 397.225 455.826 395.317 455.282 393.417C454.738 391.518 454.157 389.631 453.539 387.756C452.923 385.878 452.272 384.013 451.585 382.16C450.901 380.308 450.181 378.469 449.425 376.643C448.669 374.817 447.88 373.006 447.058 371.21C446.233 369.414 445.376 367.635 444.487 365.873C443.596 364.109 442.673 362.362 441.717 360.632C437.943 353.642 433.678 346.84 429.649 339.986C428.434 337.919 424.829 330.815 423.404 329.874L422.61 330.113C422.713 329.829 422.816 329.582 422.857 329.279C423.097 327.493 416.066 319.359 414.515 317.528C408.247 310.128 402.051 302.574 395.396 295.517C382.695 282.048 368.233 269.616 353.539 258.396C349.602 255.39 345.488 252.325 341.256 249.751C338.046 247.802 333.692 246.786 331.037 244.122C330.76 243.346 330.679 243.295 330.937 242.528C331.65 241.82 332.045 241.688 332.983 241.448ZM293.904 482.379C294.394 483.856 294.984 484.553 296.222 485.469C296.973 485.251 297.831 485.347 298.613 485.181C301.276 484.62 303.754 483.206 306.048 481.8L307.509 481.029C308.507 481.339 308.714 482.235 309.289 483.07C309.509 482.56 309.691 482.287 310.029 481.859C311.209 481.257 312.316 481.685 313.563 481.575C315.731 481.379 320.796 478.379 323.167 477.393C340.92 470.012 342.53 472.518 355.418 456.278C351.655 449.395 345.794 443.829 340.199 438.43C339.018 439.441 337.91 440.419 336.421 440.951C333.29 442.069 329.755 442.375 326.506 443.099C318.448 444.903 310.722 447.612 303.529 451.698C295.804 456.083 291.32 461.109 286.304 468.281C285.152 469.93 283.48 471.827 282.936 473.78L283.362 474.179C284.568 474.374 285.394 473.913 286.328 473.189C288.74 471.322 290.829 468.635 292.978 466.45C293.639 465.788 294.321 465.147 295.021 464.527C295.722 463.907 296.44 463.308 297.177 462.73C297.914 462.154 298.667 461.6 299.438 461.069C300.208 460.537 300.994 460.031 301.795 459.548C302.597 459.064 303.412 458.605 304.241 458.172C305.07 457.736 305.911 457.326 306.765 456.943C307.619 456.561 308.484 456.204 309.359 455.872C310.235 455.543 311.119 455.239 312.013 454.961C313.423 454.529 316.588 453.322 317.935 454.042C317.647 454.839 317.194 455.142 316.487 455.599C314.149 457.109 311.511 458.205 309.139 459.689C302.566 463.796 289.85 473.175 286.328 479.984C285.776 481.051 284.881 482.697 285.27 483.922C286.318 484.247 287.354 483.523 288.191 482.918C291.687 480.394 294.745 477.054 298.105 474.315C302.656 470.61 315.929 461.493 321.509 461.154C322.436 461.098 323.053 461.18 323.758 461.789C323.411 463.985 319.684 465.147 317.857 466.015C309.051 470.192 301.256 476.057 293.904 482.379Z" fill="#231F20"/>
<path d="M296.222 485.469C296.669 485.339 297.031 485.192 297.438 484.963C297.402 484.465 297.362 483.881 297.602 483.42C298.332 482.029 314.012 472.226 316.207 471.1C319.493 469.417 323.134 467.882 326.672 466.793C327.869 466.424 328.881 466.121 330.029 466.719C329.623 467.384 329.147 467.764 328.485 468.155C326.657 469.225 324.597 469.978 322.698 470.942C318.678 472.983 309.247 478.345 306.394 481.416C306.277 481.541 306.163 481.671 306.048 481.8C303.754 483.206 301.276 484.62 298.613 485.181C297.831 485.347 296.973 485.251 296.222 485.469Z" fill="#231F20"/>
<path d="M265.577 256.446C265.934 258.975 264.993 261.711 264.527 264.2C263.92 267.44 263.32 271.885 265.437 274.695C266.034 275.487 266.909 275.982 267.894 276.103C279.296 277.505 301.287 252.887 308.328 244.675C310.313 242.36 313.146 237.582 315.523 236.002C316.827 235.136 317.972 235.494 319.405 235.745C319.992 236.593 320.428 237.217 320.18 238.307C319.49 241.351 315.062 245.257 312.972 247.594C303.356 258.34 293.379 270.209 280.702 277.48C277.09 279.552 272.032 281.788 267.824 280.646C265.503 280.016 263.721 278.308 262.64 276.201C260.401 271.832 261.327 267.132 262.124 262.565C262.395 261.011 262.469 259.24 263.02 257.76C263.233 257.187 263.54 256.813 263.984 256.391C264.589 256.261 264.975 256.319 265.577 256.446Z" fill="#231F20"/>
</g>
<defs>
<clipPath id="clip0_411_1078">
<rect width="520" height="520" fill="white"/>
</clipPath>
</defs>
</svg>
