<svg width="520" height="520" viewBox="0 0 520 520" fill="none" xmlns="http://www.w3.org/2000/svg">
<rect width="520" height="520" fill="white"/>
<circle cx="260" cy="260" r="249" fill="#EBF7F0"/>
<mask id="mask0_383_2491" style="mask-type:alpha" maskUnits="userSpaceOnUse" x="11" y="11" width="498" height="498">
<circle cx="260" cy="260" r="249" fill="#EBF7F0"/>
</mask>
<g mask="url(#mask0_383_2491)">
<path d="M358.299 409.204V398.489C358.299 398.489 342.579 409.531 326.79 410.184C311.002 410.838 282.709 415.602 276.535 412.042C270.343 408.482 255.363 402.359 255.363 402.359C255.363 402.359 252.474 430.789 251.493 439.388C250.513 447.988 239.024 520.189 237.338 528.083C214.193 636.488 261.434 550.963 191.176 652.243C183.23 663.697 148.488 710.066 141.454 717.891C134.42 725.717 129.449 732.235 129.449 732.235C129.449 732.235 132.941 742.228 143.466 750.225C153.992 758.223 169.592 770.503 185.931 775.233C202.27 779.962 221.257 781.442 229.565 774.201C237.872 766.96 280.061 701.14 285.891 686.245C291.722 671.351 321.579 620.7 329.301 593.749C337.024 566.798 349.097 530.629 349.097 530.629L352.434 459.459C352.434 459.459 336.147 462.469 330.437 448.59L320.908 447.747C320.908 447.747 306.048 463.14 304.311 462.59C302.574 462.039 303.056 458.066 305.326 454.867C307.596 451.668 308.559 446.457 308.559 446.457C308.559 446.457 283.931 463.26 282.95 461.558C281.97 459.855 281.884 458.617 281.884 458.617C281.884 458.617 270.773 467.147 270.945 464.482C271.117 461.816 270.653 456.811 270.653 456.811C270.653 456.811 263.068 461.231 263.326 457.963C263.584 454.695 260.746 454.592 268.279 446.44C275.813 438.287 278.134 432.285 287.835 430.084C297.535 427.882 308.68 428.88 311.569 428.57C314.459 428.26 330.437 426.007 330.437 426.007C330.437 426.007 327.461 422.172 339.397 417.064C351.333 411.956 358.299 409.17 358.299 409.17V409.204Z" fill="#231F20"/>
<path d="M386.436 399.59C388.362 399.452 390.288 399.366 392.215 399.332C392.92 399.314 393.625 399.246 394.33 399.263C396.824 399.332 399.318 399.555 401.794 400.002C402.895 400.157 404.013 400.381 405.097 400.707C406.49 401.069 407.952 401.671 408.88 402.943C409.19 403.305 408.949 403.425 408.451 403.511C407.917 403.597 407.212 403.648 406.438 403.631C405.286 403.253 403.979 403.15 402.706 402.943C401.433 402.685 400.109 402.479 398.733 402.255C397.099 401.98 395.362 402.169 393.677 402.221C391.802 402.29 389.927 402.341 388.035 402.479C386.883 402.582 385.713 402.651 384.561 402.806C382.807 403.012 381.035 403.201 379.315 403.562C377.974 403.838 376.701 404.302 375.411 404.698C375.119 404.784 374.844 404.887 374.568 404.956C373.485 405.196 373.107 405.059 372.694 404.354C372.608 404.182 372.487 404.027 372.419 403.855C372.195 403.287 372.522 402.703 373.296 402.324C375.549 401.206 378.094 400.707 380.657 400.26C382.566 399.934 384.492 399.727 386.419 399.538V399.607L386.436 399.59Z" fill="#231F20"/>
<path d="M341.031 436.499C340.309 435.57 339.604 434.589 338.813 433.661C338.52 433.334 338.142 433.093 337.85 432.766C336.801 431.597 335.648 430.496 334.393 429.481C333.842 429.034 333.24 428.621 332.621 428.295C331.796 427.933 331.073 427.331 330.403 426.575C330.196 426.334 330.334 426.128 330.712 425.887C331.073 425.663 331.761 425.302 332.38 425.268C332.948 425.216 333.43 425.388 333.894 425.56C334.375 425.715 334.84 425.904 335.287 426.128C336.233 426.506 337.024 427.142 337.746 427.882C338.589 428.776 339.724 429.344 340.653 430.152C341.668 431.046 342.631 432.01 343.474 433.076C343.99 433.73 344.488 434.4 344.97 435.071C345.727 436.069 346.329 437.169 347.051 438.167C347.584 438.958 348.358 439.594 348.84 440.437C348.96 440.609 349.098 440.781 349.184 440.97C349.511 441.693 349.373 442.037 348.702 442.553C348.547 442.673 348.41 442.793 348.255 442.897C347.739 443.223 347.086 443.206 346.587 442.862C345.916 442.329 345.108 441.882 344.626 441.245C344.11 440.643 343.629 440.007 343.147 439.371C342.407 438.442 341.754 437.462 340.963 436.585L341.031 436.516V436.499Z" fill="#231F20"/>
<path d="M338.503 446.44C338.503 446.44 344.815 459.425 349.098 456.329C352.056 454.197 347.997 440.884 346.518 440.231C345.039 439.577 338.503 446.44 338.503 446.44Z" fill="#231F20"/>
<path d="M224.611 430.152C223.166 430.445 221.739 430.754 220.277 430.909C218.832 431.133 217.37 431.27 215.908 431.373C214.842 431.494 213.793 431.597 212.727 431.614C208.96 431.7 205.211 431.253 201.564 430.462C199.931 430.204 198.331 429.739 196.732 429.413C195.734 429.103 194.685 428.897 193.705 428.467C192.741 428.037 191.795 427.521 190.953 426.85C190.419 426.437 190.505 426.489 191.107 426.454C191.417 426.437 191.847 426.368 192.38 426.265C192.896 426.196 193.447 426.231 194.031 426.334C194.53 426.437 195.08 426.42 195.562 426.558L197.041 426.919C198.021 427.16 199.036 427.297 200.034 427.521C202.046 427.865 204.058 428.192 206.122 428.415C208.582 428.742 211.161 428.57 213.69 428.432C215.083 428.381 216.476 428.192 217.869 428.071C219.245 427.83 220.638 427.693 222.014 427.383L224.542 426.833L227.036 426.128C229.547 425.388 232.024 424.459 234.363 423.307C235.24 422.825 236.1 422.292 236.943 421.759C237.768 421.209 238.542 420.572 239.351 420.005L240.383 419.214C241.69 418.268 242.257 418.164 243.083 418.68C243.272 418.801 243.478 418.887 243.633 419.024C244.184 419.472 243.96 420.314 243.048 421.243C240.365 423.978 236.822 425.99 233.125 427.504C231.766 428.088 230.338 428.535 228.928 429.034C227.483 429.413 226.073 429.894 224.628 430.204V430.118L224.611 430.152Z" fill="#231F20"/>
<path d="M224.354 376.87C224.354 376.87 232.919 374.307 234.553 373.241C236.186 372.175 242.43 374.909 237.889 375.804C233.865 376.595 224.354 376.87 224.354 376.87Z" fill="#231F20"/>
<path opacity="0.2" d="M70.8867 318.187C70.8867 318.187 76.7516 337.811 80.3978 347.047C84.0439 356.265 91.5427 370.351 94.9653 372.622C98.3879 374.892 115.484 370.42 116.137 368.356C116.791 366.292 117.1 331.654 116.378 325.135C115.656 318.617 114.847 311.823 114.847 311.823C114.847 311.823 106.385 317.636 100.314 318.737C94.2429 319.838 73.7589 320.664 70.8867 318.187Z" fill="#231F20"/>
<path d="M87.2762 364.813C85.1263 361.133 83.3204 357.332 81.6349 353.479C81.0158 352.069 80.3622 350.693 79.7946 349.265C77.7823 344.26 76.114 339.118 74.7381 333.907C74.1362 331.585 73.4482 329.28 73.001 326.958C72.7086 325.462 72.399 323.965 72.1927 322.435C71.9691 320.921 71.8315 319.391 71.9691 317.843C72.0379 316.88 72.0379 317.017 72.2959 317.791C72.4335 318.187 72.6398 318.72 72.9494 319.373C73.2246 320.027 73.4138 320.801 73.6374 321.626C75.1509 327.543 76.802 333.408 78.6079 339.341C79.7086 342.884 81.1533 346.462 82.6153 349.953C84.232 353.789 85.9519 357.589 87.9297 361.253C89.1509 363.489 90.4408 365.707 91.9715 367.685C92.5563 368.408 93.1754 369.13 93.8634 369.629C94.4998 370.093 95.4457 370.368 96.34 370.626C98.1803 371.108 100.089 371.383 101.981 371.486C104.922 371.555 107.863 371.142 110.46 370.093C111.028 369.87 111.578 369.612 112.112 369.319C114.141 368.373 114.674 367.995 115.586 368.27C115.792 368.339 116.033 368.356 116.188 368.442C116.48 368.58 116.497 368.889 116.274 369.371C116.033 369.835 115.551 370.489 114.726 371.039C112.318 372.811 109.274 373.464 106.367 373.671C104.905 373.808 103.426 373.705 101.964 373.619C100.502 373.55 99.0231 373.43 97.5784 373.155C96.4948 372.965 95.4113 372.725 94.2934 372.346C93.7602 372.174 93.0894 371.882 92.5047 371.469C91.9543 371.056 91.5071 370.644 91.1115 370.214C89.5292 368.494 88.3597 366.688 87.2418 364.847L87.2934 364.813H87.2762Z" fill="#231F20"/>
<path d="M110.995 310.602C108.243 306.767 73.5353 310.688 72.125 317.172C72.125 317.172 73.6729 318.651 81.2921 319.133C88.894 319.597 114.71 315.762 110.995 310.602Z" fill="#231F20"/>
<path d="M133.491 322.039C133.285 322.366 133.061 322.693 132.872 323.002C132.803 323.123 132.821 323.243 132.735 323.364C132.459 323.759 132.012 324.086 131.72 324.43C131.582 324.585 131.513 324.757 131.445 324.929C131.342 325.152 131.307 325.393 130.808 325.428C130.654 325.428 130.447 325.342 130.138 325.135C129.828 324.929 129.295 324.585 129.243 324.447C129.071 324.155 129.106 323.966 129.157 323.776C129.209 323.587 129.312 323.415 129.484 323.26C129.708 323.071 129.587 322.779 129.69 322.555C129.794 322.315 129.914 322.039 130.017 321.781C130.086 321.627 130.155 321.455 130.189 321.283C130.258 321.025 130.361 320.767 130.292 320.509C130.241 320.302 129.948 320.113 129.776 319.924C129.742 319.889 129.673 319.838 129.673 319.803C129.673 319.649 130.069 319.58 130.946 319.494L131.548 319.425C132.201 319.356 132.786 319.408 133.182 319.528C133.681 319.735 133.835 319.975 133.921 320.216C134.007 320.457 133.99 320.715 133.956 320.956C133.887 321.317 133.732 321.678 133.595 322.022H133.509L133.491 322.039Z" fill="#231F20"/>
<path d="M118.372 347.924C118.544 346.084 118.699 344.209 118.682 342.334C118.682 341.646 118.596 340.975 118.579 340.288C118.579 337.862 118.475 335.42 118.338 332.978C118.269 331.894 118.08 330.811 117.873 329.745C117.753 328.351 117.306 327.027 117.77 325.514C117.873 325.049 118.011 325.084 118.424 325.376C118.733 325.6 119.043 325.806 119.284 325.995C119.456 326.133 119.679 326.253 119.817 326.425C119.937 326.597 120.04 326.769 120.109 326.958L120.849 329.022C121.055 329.71 121.124 330.432 121.244 331.155C121.451 332.582 121.588 334.044 121.571 335.506C121.52 337.278 121.829 339.066 121.881 340.855C121.932 342.833 121.881 344.811 121.743 346.789C121.674 348.01 121.537 349.214 121.399 350.418C121.193 352.258 120.832 354.064 120.522 355.87C120.384 356.575 120.298 357.263 120.23 357.985L119.903 360.101C119.851 360.41 119.817 360.72 119.731 361.03C119.387 362.165 119.06 362.44 118.131 362.354C117.925 362.337 117.701 362.337 117.512 362.285C116.859 362.147 116.429 361.494 116.497 360.686C116.721 358.278 117.237 355.904 117.598 353.445C117.891 351.639 118.149 349.799 118.269 347.941H118.355L118.372 347.924Z" fill="#231F20"/>
<path d="M146.838 372.622C146.838 372.622 147.646 369.629 149.916 368.649C152.187 367.669 142.624 369.664 142.624 369.664L146.838 372.622Z" fill="#231F20"/>
<path d="M174.133 378.091C173.256 379.398 172.378 380.688 171.415 381.943C171.071 382.408 170.813 382.906 170.435 383.354C169.145 384.919 167.735 386.398 166.135 387.671C165.43 388.255 164.759 388.823 164.071 389.39C163.194 390.147 162.111 390.612 160.976 390.904C160.632 390.99 160.58 390.766 160.683 390.354C160.804 389.941 161.01 389.27 161.405 388.823C161.749 388.376 162.059 387.946 162.472 387.636L163.59 386.553C164.329 385.813 165.034 385.039 165.86 384.334C166.84 383.474 167.511 382.27 168.251 381.169C169.059 379.948 169.885 378.693 170.624 377.403C171.089 376.612 171.536 375.803 171.966 374.978C172.602 373.722 173.307 372.501 173.823 371.194C174.219 370.179 174.425 369.096 174.7 368.047C174.769 367.806 174.786 367.565 174.872 367.341C175.13 366.481 175.629 366.395 176.523 366.567C176.73 366.619 176.936 366.636 177.143 366.705C177.796 366.894 178.209 367.479 178.26 368.201C178.089 370.231 177.332 372.14 176.455 374.032C175.818 375.442 175.01 376.784 174.202 378.142L174.133 378.108V378.091Z" fill="#231F20"/>
<path d="M153.873 380.344C153.167 381.445 145.841 397.302 150.244 397.302C155.592 397.302 163.556 390.956 163.556 390.956L153.855 380.344H153.873Z" fill="#231F20"/>
<path d="M246.144 318.703C247.073 315.71 247.916 312.7 248.655 309.656C248.931 308.538 249.12 307.42 249.361 306.302C250.272 302.381 251.046 298.408 251.631 294.418C251.906 292.646 252.044 290.858 252.198 289.086C252.336 286.799 252.37 284.529 252.766 282.241C252.886 281.536 253.093 281.622 253.385 282.241C253.643 282.843 254.159 283.978 254.228 285.32C254.193 290.049 253.781 294.779 252.921 299.457C252.388 302.261 252.044 305.185 251.51 308.057C250.908 311.204 250.203 314.317 249.412 317.413C248.931 319.322 248.397 321.214 247.83 323.106C247.004 325.961 246.024 328.799 245.112 331.619C244.39 333.804 243.805 335.988 243.049 338.155C242.877 338.637 242.773 339.118 242.567 339.582C241.845 341.337 241.432 341.801 240.572 341.836C240.383 341.836 240.176 341.887 239.987 341.853C239.385 341.767 239.23 340.872 239.609 339.565C240.727 335.713 242.103 331.774 243.375 327.75C244.304 324.757 245.233 321.747 246.058 318.703H246.127H246.144Z" fill="#231F20"/>
<path d="M367.053 283.548C363.888 280.246 360.655 276.995 357.181 274.003C355.925 272.902 354.584 271.887 353.276 270.855C348.753 267.089 344.075 263.443 339.018 260.33C336.834 258.868 334.495 257.612 332.19 256.374C330.677 255.634 329.198 254.826 327.736 253.983C326.24 253.192 324.761 252.366 323.299 251.524C322.387 250.991 322.593 250.87 323.522 250.922C324.451 251.008 326.205 251.128 328.132 251.661C328.991 251.885 329.8 252.195 330.643 252.47L331.898 252.882L333.119 253.381C334.753 254.018 336.318 254.826 337.918 255.566C339.534 256.288 341.048 257.199 342.527 258.128C344.041 259.04 345.485 260.072 346.913 261.104C350.353 263.58 354.05 265.971 357.421 268.688C361.068 271.75 364.628 274.897 367.947 278.285C370.045 280.315 371.989 282.482 374.001 284.58C376.977 287.831 379.849 291.185 382.704 294.47C384.974 296.981 387.227 299.44 389.48 301.917C389.979 302.467 390.461 303 390.942 303.568C392.679 305.718 392.972 306.595 392.438 307.747C392.318 308.005 392.215 308.298 392.06 308.521C391.527 309.261 390.271 308.814 388.827 307.42C384.544 303.241 380.399 298.615 376.323 293.902C373.296 290.393 370.183 286.971 366.967 283.651L367.036 283.565L367.053 283.548Z" fill="#231F20"/>
<path d="M284.24 264.371C267.127 280.297 264.822 268.258 264.082 262.307C264.082 262.307 262.156 274.467 263.962 277.236C265.768 280.005 268.313 280.624 272.39 278.079C276.466 275.55 282.795 268.671 282.795 268.671L284.24 264.371Z" fill="#231F20"/>
<path d="M252.903 149.155C253.986 148.467 255.104 147.9 256.257 147.349C256.566 147.212 256.549 147.212 256.257 147.349C256.411 147.28 256.566 147.229 256.721 147.16C257.031 147.04 257.34 146.919 257.667 146.816C258.303 146.592 258.94 146.403 259.593 146.248C260.247 146.094 260.883 145.956 261.537 145.87C260.866 145.956 261.881 145.853 262.001 145.836C262.328 145.818 262.637 145.801 262.964 145.801C263.291 145.801 263.601 145.801 263.91 145.836C264.048 145.836 265.045 145.99 264.34 145.87C264.959 145.99 265.544 146.128 266.129 146.317C267.522 146.782 269.242 145.784 269.569 144.374C269.913 142.826 269.104 141.433 267.625 140.934C261.795 138.991 255.053 141.209 250.065 144.357C248.827 145.131 248.225 146.885 249.067 148.175C249.91 149.465 251.561 150.015 252.886 149.172L252.903 149.155Z" fill="#231F20"/>
<path d="M240.555 146.352C239.592 145.354 238.457 144.46 237.219 143.823C235.98 143.187 234.639 142.671 233.263 142.465C232.884 142.344 232.523 142.327 232.145 142.413C231.766 142.413 231.422 142.534 231.113 142.74C230.528 143.084 229.978 143.737 229.823 144.408C229.668 145.131 229.703 145.922 230.098 146.558C230.459 147.126 231.061 147.728 231.766 147.848C232.644 147.986 233.486 148.226 234.312 148.57L233.641 148.295C234.484 148.656 235.275 149.121 235.997 149.688L235.43 149.258C235.843 149.585 236.221 149.929 236.582 150.307C237.064 150.823 237.855 151.133 238.56 151.133C239.265 151.133 240.056 150.823 240.538 150.307C241.587 149.172 241.621 147.487 240.538 146.352H240.555Z" fill="#231F20"/>
<path d="M302.075 90.8336C302.075 90.8336 280.938 68.3029 251.493 73.9098C217.577 80.3594 201.393 96.3201 196.542 104.472C191.967 112.16 201.255 117.544 200.756 118.077C186.515 132.644 187.685 149.121 205.314 152.561C227.776 156.929 272.992 125.49 272.992 125.49C272.992 125.49 264.926 140.831 268.83 144.873C272.717 148.915 281.695 151.632 288.505 148.33C295.299 145.028 302.093 139.937 302.093 139.937C302.093 139.937 298.859 159.096 295.712 163.207C292.564 167.317 287.25 186.58 290.862 186.873C294.473 187.165 301.301 183.364 306.805 175.109C312.309 166.87 311.965 166.973 316.867 169.708C321.768 172.443 323.385 178.6 322.456 183.175C321.527 187.75 314.459 196.005 314.459 196.005C314.459 196.005 324.675 216.696 341.444 203.195C341.444 203.195 329.8 193.58 331.382 189.212C332.965 184.843 340.584 196.281 346.965 192.118C353.346 187.956 353.827 183.657 353.827 183.657C353.827 183.657 343.783 180.543 342.854 167.885C341.925 155.227 349.871 128.19 348.375 119.074C346.879 109.942 343.886 100.517 337.952 97.5584C332.019 94.6174 325.036 92.5019 319.034 94.497C313.031 96.492 307.115 99.4159 307.115 99.4159L302.093 90.8508L302.075 90.8336Z" fill="#231F20"/>
<path d="M348.874 617.982L348.512 577.565C348.461 572.646 348.323 567.727 348.323 562.825C348.323 545.506 348.512 528.169 348.856 510.85C349.097 503.162 349.046 495.44 349.269 487.786C349.39 482.884 349.476 477.965 349.837 473.047C350.009 470.587 350.129 468.128 350.422 465.685C350.817 463.226 351.213 460.784 351.729 458.359C352.606 455.383 352.571 455.813 353.07 458.479C353.345 459.803 353.552 461.678 353.793 463.879C353.844 464.43 353.896 465.015 353.965 465.599C354.033 466.201 354.154 466.821 354.171 467.474C354.24 468.747 354.274 470.106 354.24 471.499C354.205 473.975 354.119 476.452 354.102 478.946C354.102 481.44 354.137 483.934 354.102 486.427C353.965 491.398 353.879 496.386 353.827 501.39C353.603 511.383 353.569 521.41 353.208 531.472C352.881 543.511 353.208 556.066 353.311 568.381C353.414 581.933 353.517 595.503 353.741 609.056C353.896 617.398 354.033 625.756 354.188 634.081C354.48 646.722 354.738 659.415 355.289 671.936C355.719 681.67 356.458 691.216 357.181 700.813C357.353 702.928 357.508 704.992 357.679 707.125C357.972 711.063 358.058 713.678 357.955 715.501C357.886 717.307 357.542 718.373 356.94 719.302C356.665 719.714 356.424 720.265 356.132 720.54C355.667 720.987 355.151 720.437 354.601 719.026C354.05 717.616 353.535 715.294 353.225 712.422C351.247 695.189 350.49 677.027 349.82 658.761C349.372 645.208 349.097 631.587 348.805 617.982H348.925H348.874Z" fill="#231F20"/>
<path d="M294.439 410.322C300.012 410.563 305.636 410.442 311.243 409.995C313.289 409.875 315.319 409.531 317.365 409.341C324.555 408.602 331.761 407.467 338.744 405.506C341.84 404.646 344.867 403.494 347.773 402.255L350.525 400.931L353.174 399.469C354.825 398.351 356.717 397.543 358.23 396.236C359.228 395.479 359.417 395.789 359.004 396.958C358.798 397.526 358.471 398.386 357.886 399.228C357.301 400.088 356.648 401.189 355.582 401.877C351.918 404.491 347.962 406.486 343.886 408.034C339.776 409.531 335.562 410.649 331.297 411.474C326.189 412.42 320.926 413.658 315.663 414.364C309.884 415.155 304.036 415.43 298.206 415.481C294.611 415.499 291.017 415.361 287.439 415.086C282.004 414.673 276.569 413.813 271.255 412.454C267.144 411.371 262.999 410.201 259.181 407.69C258.321 407.192 257.547 406.538 256.773 405.85C254.004 403.081 253.953 401.43 254.916 400.209C255.139 399.916 255.346 399.59 255.621 399.383C256.068 399.022 256.687 399.074 257.307 399.366C257.96 399.641 258.493 400.243 259.302 400.897C263.739 404.99 270.722 407.157 277.877 408.567C283.243 409.548 288.832 410.098 294.456 410.219V410.339L294.439 410.322Z" fill="#231F20"/>
<path d="M141.334 323.966C139.786 323.467 137.602 323.346 135.556 323.346C134.799 323.346 134.042 323.484 133.268 323.518C130.551 323.604 127.799 323.794 125.081 324.189C123.877 324.344 122.691 324.654 121.504 324.929C119.973 325.221 118.529 325.84 116.843 325.565C116.327 325.514 116.327 325.29 116.602 324.774C116.74 324.516 116.946 324.155 117.221 323.759C117.359 323.57 117.497 323.329 117.669 323.174C117.841 323.037 118.047 322.916 118.253 322.831C121.246 321.472 124.462 320.853 127.747 320.577C129.708 320.44 131.686 319.907 133.715 319.683C135.934 319.442 138.17 319.305 140.526 319.511C141.283 319.58 141.936 319.666 142.865 319.907C143.828 320.182 144.74 320.663 145.325 321.472L145.376 321.558C146.219 322.779 146.305 324.447 145.909 325.651C145.548 326.907 144.826 327.956 143.966 328.816C142.641 330.157 140.732 331.189 138.583 331.138C138.135 331.086 137.654 331.103 137.224 330.948C135.642 330.329 135.452 329.659 135.762 328.661C135.831 328.437 135.899 328.197 136.003 327.99C136.347 327.319 137.172 326.993 137.877 326.975C138.995 326.838 139.597 326.631 140.165 326.27C140.715 325.944 141.197 325.342 141.438 324.808C141.524 324.585 141.575 324.378 141.558 324.275C141.627 324.241 141.558 324.275 141.644 324.206C141.61 324.206 141.644 324.172 141.627 324.155V324.12C141.627 324.12 141.541 324.086 141.369 324.034V323.931L141.334 323.966Z" fill="#231F20"/>
<path d="M125.665 309.931C126.353 310.344 126.955 310.946 127.574 311.445C128.142 312.064 128.727 312.597 129.191 313.285C129.518 313.784 130.017 314.162 130.24 314.73C131.203 316.622 131.599 318.772 131.341 320.75C131.255 321.197 131.186 321.627 131.135 322.057C131.066 322.487 130.945 322.899 130.859 323.312C130.773 323.863 130.533 324.361 130.343 324.877C130.24 325.135 129.982 325.307 129.793 325.514C129.587 325.703 129.346 325.875 129.036 325.995C128.641 326.133 128.572 325.995 128.28 325.531C127.953 325.032 127.42 324.258 127.299 323.742C127.282 323.312 127.42 322.968 127.437 322.573C127.437 322.194 127.54 321.833 127.506 321.472C127.488 321.111 127.557 320.75 127.506 320.388C127.54 320.027 127.626 319.649 127.626 319.253C127.746 318.273 127.058 317.465 126.56 316.656C125.941 315.779 125.201 314.936 124.238 314.266C123.963 314.025 123.653 313.853 123.326 313.664C122.999 313.492 122.707 313.251 122.363 313.13C121.83 312.924 121.314 312.666 120.764 312.494C120.196 312.339 119.629 312.202 119.061 312.116C118.149 312.081 117.238 312.236 116.343 312.442C116.154 312.494 115.948 312.511 115.759 312.511C115.036 312.46 114.796 312.133 114.606 311.084C114.555 310.843 114.503 310.602 114.469 310.361C114.366 309.57 114.675 308.882 115.277 308.538C115.724 308.315 116.206 308.005 116.687 307.919C117.169 307.781 117.668 307.781 118.167 307.747C118.665 307.747 119.181 307.747 119.68 307.781C120.196 307.867 120.712 307.953 121.211 308.074C122.724 308.401 124.238 309.037 125.648 309.845L125.597 309.949L125.665 309.931Z" fill="#231F20"/>
<path d="M135.211 332.755C135.572 332.6 135.899 332.411 136.054 332.273C136.208 332.135 136.243 332.101 136.294 331.998C136.329 331.929 136.38 331.602 136.226 331.361C136.157 331.241 136.191 331.086 136.054 330.949C135.933 330.811 135.83 330.673 135.727 330.519C135.52 330.312 135.228 330.123 134.987 329.934C134.695 329.762 134.351 329.607 134.058 329.401C131.754 328.111 128.796 327.354 125.872 326.924C124.565 326.735 123.223 326.718 121.933 326.804C121.09 326.838 120.265 327.01 119.457 327.044C119.044 327.01 118.631 327.044 118.201 326.976C117.754 326.873 117.324 326.804 116.894 326.787C116.326 326.718 116.326 326.597 116.636 326.064C116.791 325.806 117.031 325.359 117.358 324.912C117.53 324.688 117.702 324.413 117.926 324.207C118.149 324.017 118.39 323.863 118.648 323.742C118.872 323.656 119.113 323.536 119.353 323.45C119.594 323.398 119.835 323.364 120.076 323.347C120.557 323.295 121.039 323.226 121.503 323.192C122.449 323.14 123.395 323.106 124.341 323.14C126.233 323.226 128.108 323.433 129.948 324.069C132.132 324.774 134.488 325.187 136.724 326.546C137.877 327.371 139.184 328.334 139.769 330.037C140.061 330.811 140.233 331.705 140.027 332.669C139.837 333.615 139.27 334.44 138.668 334.99C137.137 336.332 135.52 336.71 133.99 337.106C131.651 337.639 129.346 337.759 127.076 337.966C125.321 338.121 123.601 338.413 121.847 338.585C121.469 338.619 121.09 338.688 120.695 338.705C119.25 338.774 118.803 338.396 118.545 337.398C118.476 337.175 118.407 336.951 118.373 336.728C118.27 336.04 118.855 335.3 119.886 335.076C122.914 334.44 126.044 334.268 129.088 333.907C131.289 333.649 133.628 333.357 135.176 332.617L135.228 332.703L135.211 332.755Z" fill="#231F20"/>
<path d="M136.673 334.612C137.843 334.905 138.978 335.249 140.371 336.126C141.833 337.14 142.779 338.671 143.002 340.288C143.14 341.251 142.916 342.214 142.4 343.023C142.005 343.676 141.454 344.261 140.852 344.777L140.388 345.138C140.268 345.224 140.165 345.31 140.044 345.379C139.821 345.516 139.58 345.671 139.356 345.792C136.088 347.408 132.907 348.096 129.725 348.887C128.314 349.231 126.921 349.558 125.511 349.902C123.739 350.367 121.951 350.848 120.024 350.642C119.354 350.195 119.457 350.246 119.784 349.472C120.128 348.715 120.816 347.821 121.762 347.357C123.464 346.652 125.219 346.136 126.938 345.568C128.658 345.018 130.464 344.725 132.236 344.33C134.334 343.9 136.432 342.833 137.946 341.801C138.255 341.629 138.668 341.32 138.651 340.873C138.617 340.615 138.513 340.339 138.324 340.133C138.221 340.03 138.118 339.927 137.98 339.858C137.808 339.738 137.55 339.652 137.309 339.566C136.157 339.204 134.712 338.981 133.251 338.946C131.015 338.878 128.676 338.964 126.388 339.256C124.599 339.462 122.862 340.047 120.97 340.15C120.558 340.185 120.145 340.236 119.698 340.219C118.064 340.167 117.376 339.6 117.341 338.534C117.341 338.293 117.307 338.052 117.341 337.846C117.548 337.14 118.098 336.659 118.958 336.384C120.317 336.057 121.813 335.386 123.413 335.128C125.012 334.836 126.681 334.595 128.418 334.423C130.997 334.182 133.663 334.045 136.69 334.475V334.595L136.673 334.612Z" fill="#231F20"/>
<path d="M135.487 345.808C136.416 345.963 137.19 346.428 137.929 346.84L138.841 347.718C139.099 348.044 139.322 348.406 139.563 348.749C140.509 350.607 139.838 352.808 138.307 354.27L137.534 354.993L136.863 355.526C136.484 355.801 136.106 356.076 135.71 356.283C132.907 357.745 130.121 358.536 127.317 359.327C126.062 359.619 124.841 359.998 123.602 360.324C122.037 360.754 120.455 361.322 118.683 360.909C118.099 360.514 118.202 360.565 118.546 359.946C118.701 359.619 118.941 359.31 119.234 358.931C119.526 358.622 119.819 358.123 120.249 358.02C123.207 356.936 126.096 355.629 129.226 354.976C131.067 354.511 132.787 353.462 134.214 352.482C134.369 352.378 134.507 352.275 134.644 352.172C134.73 352.12 134.782 352.086 134.85 352.034C134.971 351.949 135.108 351.845 135.212 351.708C135.452 351.467 135.573 351.071 135.435 350.745C135.349 350.538 135.194 350.383 135.022 350.246C134.747 350.091 134.489 349.988 134.111 349.953C133.595 349.902 132.941 349.919 132.322 349.953C130.396 350.125 128.315 350.418 126.251 350.796C124.651 351.089 123.052 351.587 121.28 351.725C120.902 351.759 120.507 351.828 120.094 351.794C118.58 351.725 118.099 351.14 118.167 349.988C118.167 349.713 118.167 349.437 118.236 349.179C118.425 348.285 119.131 347.683 119.87 347.58C122.519 347.064 125.064 346.565 127.679 346.049C128.762 345.843 129.88 345.671 131.101 345.585C131.686 345.516 132.357 345.516 132.993 345.482C133.32 345.482 133.698 345.499 134.042 345.516C134.403 345.516 134.988 345.619 135.487 345.705V345.808Z" fill="#231F20"/>
<path d="M345.623 203.452C345.675 203.951 345.399 204.295 345.21 204.708L344.574 205.877C343.852 206.531 343.043 207.133 342.286 207.752C341.891 208.045 341.444 208.303 340.997 208.543L340.446 208.836L340.016 209.042C338.864 209.541 337.712 210.005 336.525 210.298C335.424 210.642 334.323 210.917 333.188 211.089C331.176 211.261 329.146 211.261 327.169 210.865C326.171 210.728 325.208 210.366 324.262 210.091C323.35 209.627 322.387 209.317 321.579 208.715C320.839 208.234 320.065 207.804 319.412 207.185L318.397 206.342C318.07 206.049 317.812 205.705 317.503 205.396C317.159 204.949 316.746 204.57 316.454 204.089L315.611 202.661C314.957 201.75 314.888 200.58 314.665 199.531C314.562 198.86 314.785 198.895 315.387 199.239C315.783 199.479 316.196 199.703 316.54 199.927C316.763 200.064 317.021 200.202 317.228 200.374C317.417 200.58 317.606 200.769 317.795 200.941C318.466 201.629 319.016 202.403 319.773 202.919C320.151 203.194 320.409 203.556 320.753 203.831L321.82 204.622C323.299 205.585 324.864 206.359 326.653 206.892C328.802 207.597 331.262 207.305 333.532 206.806C334.168 206.703 334.788 206.531 335.407 206.325C336.043 206.153 336.628 205.912 337.213 205.654C337.505 205.533 337.815 205.413 338.09 205.258L338.503 205.035L338.709 204.949C338.984 204.811 339.225 204.622 339.552 204.45L340.051 204.02C340.291 203.882 340.205 203.607 340.051 203.487C339.775 203.212 339.414 202.988 339.036 202.747L337.643 201.887C337.058 201.509 336.473 201.131 335.906 200.718C334.77 199.892 333.67 198.963 332.655 197.914C331.09 196.298 329.645 194.32 329.043 191.912C328.94 191.396 328.751 190.863 328.751 190.33C328.648 188.317 329.181 187.75 330.454 187.595C330.746 187.561 331.038 187.509 331.331 187.526C332.328 187.578 332.947 188.369 333.154 189.366C333.807 192.342 335.114 194.303 337.729 196.332C338.675 197.072 339.758 197.742 340.911 198.465C342.011 199.153 343.37 199.858 344.264 200.666C345.176 201.526 345.623 202.283 345.709 203.401H345.606L345.623 203.452Z" fill="#231F20"/>
<path d="M324.074 183.553C323.747 185.119 323.128 186.649 322.405 188.042C321.649 189.384 320.84 190.674 319.843 191.826C319.155 192.686 318.45 193.546 317.641 194.286C314.717 196.865 311.14 198.637 307.391 199.325C306.548 199.428 305.722 199.617 304.88 199.635C304.45 199.652 304.037 199.721 303.624 199.721L302.369 199.652C300.27 199.428 298.017 199.101 296.383 197.605C295.85 197.192 296.091 196.951 296.779 196.693C297.123 196.556 297.57 196.418 298.086 196.264C298.602 196.109 299.135 195.988 299.634 196.074C301.457 196.367 303.229 196.178 304.966 196.074C306.72 195.902 308.457 195.49 310.194 194.87C312.292 194.096 314.064 192.445 315.595 190.76C317.246 188.902 318.828 186.718 319.602 184.396C320.118 182.952 320.393 181.404 320.376 179.838C320.393 177.499 319.826 175.074 318.501 173.2C317.469 171.738 315.921 170.878 314.373 170.448C314.047 170.327 313.685 170.293 313.324 170.241C312.998 170.173 312.74 170.104 312.516 170.018C312.292 169.966 312.103 169.88 311.966 169.76C311.673 169.519 311.518 169.124 311.381 168.522C311.329 168.246 311.226 167.971 311.192 167.696C311.054 166.784 311.794 166.096 313.238 166.01C315.354 166.01 317.658 166.784 319.516 168.246C321.391 169.691 322.732 171.721 323.541 173.836C324.727 177.018 324.865 180.389 324.211 183.571H324.108L324.074 183.553Z" fill="#231F20"/>
<path d="M295.024 169.226C294.216 171.187 293.425 173.131 292.702 175.091C291.945 177.104 291.326 178.91 291.068 180.715C290.862 182.005 291.068 183.261 291.361 183.932C291.533 184.534 291.997 184.964 292.633 185.153C293.27 185.342 294.302 185.17 295.351 184.688C297.466 183.725 299.513 181.937 301.336 180.027C302.953 178.308 304.432 176.416 305.739 174.438C306.582 173.165 307.339 171.841 308.095 170.534C308.869 169.226 309.643 167.937 310.434 166.612C311.174 165.89 311.122 165.959 311.415 166.939C311.673 167.919 311.742 169.674 311.14 171.48C308.508 177.516 305.103 183.364 299.031 187.354C298.103 187.922 297.14 188.507 295.987 188.937C294.852 189.367 293.511 189.693 292.031 189.521C290.535 189.332 289.142 188.627 288.11 187.492C287.061 186.357 286.597 184.929 286.425 183.708C286.098 180.956 286.683 178.652 287.319 176.45C288.007 174.266 288.781 172.288 289.555 170.224C290.518 167.73 291.55 165.271 292.547 162.794C294.061 159.062 295.678 155.381 296.95 151.632C297.948 148.725 298.584 145.767 299.203 142.826C299.341 142.172 299.427 141.536 299.599 140.9C300.253 138.526 300.7 137.838 301.99 137.563C302.282 137.494 302.574 137.391 302.85 137.374C303.778 137.305 304.312 138.475 304.243 140.418C303.933 146.163 301.955 151.804 299.926 157.273C298.395 161.332 296.692 165.305 295.145 169.278L295.024 169.244V169.226Z" fill="#231F20"/>
<path d="M270.963 144.838C272.356 146.627 275.211 147.401 278.221 147.28C279.322 147.246 280.422 146.988 281.557 146.799C285.53 146.128 289.589 144.786 293.356 142.895C295.041 142.069 296.589 140.985 298.12 139.953C300.081 138.595 301.749 136.961 303.675 135.551C304.381 135.172 304.449 135.293 304.484 136.153C304.518 136.6 304.432 137.15 304.277 137.804C304.123 138.457 303.813 139.162 303.297 139.695C299.771 143.754 295.162 146.438 290.226 148.209C287.268 149.241 284.241 150.548 280.973 151.03C279.184 151.305 277.327 151.408 275.452 151.219C273.577 151.03 271.634 150.496 269.931 149.396C267.833 148.037 266.285 145.973 265.683 143.565C264.806 139.936 265.769 136.565 266.801 133.487C267.661 131.096 268.589 128.74 269.931 126.538C270.206 126.04 270.516 125.575 270.843 125.111C272.15 123.425 272.924 123.15 273.956 123.632C274.196 123.735 274.454 123.838 274.661 123.976C275.366 124.474 275.245 125.489 274.575 126.641C272.58 130.081 270.739 133.917 269.931 137.735C269.673 139.145 269.553 140.521 269.69 141.725C269.759 142.327 269.897 142.86 270.103 143.324C270.309 143.823 270.671 144.339 271.032 144.752L270.963 144.821V144.838Z" fill="#231F20"/>
<path d="M220.965 78.6911C224.938 76.9712 228.979 75.4749 233.09 74.2021C235.154 73.5658 237.218 72.981 239.316 72.4478C241.449 72.0007 243.564 71.4331 245.731 71.1407C248.861 70.6075 252.026 70.1776 255.191 70.04C260.78 69.8164 266.404 70.3496 271.874 71.4331C273.232 71.7599 274.625 71.9491 275.95 72.3962L279.957 73.6346C282.554 74.6837 285.186 75.664 287.611 77.0572C289.864 78.1063 291.876 79.6198 293.991 80.9097C295.901 82.5092 297.999 83.8852 299.684 85.7083C302.058 87.8409 303.984 90.4208 305.756 93.035C306.547 94.4109 307.355 95.7869 308.06 97.1972C308.593 98.6935 309.109 100.19 309.539 101.703C309.952 103.647 309.488 103.492 308.06 102.34C307.338 101.772 306.461 100.929 305.498 99.9318C305.257 99.6738 305.016 99.4158 304.775 99.1407C304.517 98.8655 304.19 98.6247 303.95 98.3323C303.434 97.7475 302.935 97.1284 302.471 96.4404C299.031 91.7107 295.006 87.5141 290.19 84.1947C285.392 80.8753 279.923 78.4331 274.127 76.7648C267.178 74.7181 259.439 74.5805 252.043 75.2341C249.996 75.3545 247.967 75.7328 245.937 76.0252C243.925 76.4036 241.93 76.8336 239.918 77.3495C235.893 78.4159 231.92 79.6714 228.033 81.1677C223.235 83.008 218.557 85.1579 214.068 87.6345C207.291 91.4011 200.739 95.8385 195.321 101.273C193.24 103.389 191.382 105.693 189.869 108.119C188.338 110.526 187.203 113.141 186.756 115.669C186.601 116.77 186.601 117.819 186.807 118.782C186.945 119.676 187.255 120.313 187.495 120.88C187.616 121.155 187.805 121.396 187.891 121.603C187.96 121.792 187.994 121.895 188.046 122.033C188.269 122.514 188.493 122.978 188.974 123.77C189.164 124.114 189.456 124.458 189.559 124.784C189.731 125.335 189.37 125.833 188.269 126.091C187.702 126.212 186.67 126.212 185.655 125.765C185.156 125.541 184.606 125.163 184.21 124.698C183.815 124.234 183.454 123.89 183.127 123.374C182.129 121.895 181.596 120.106 181.39 118.369C181.235 116.615 181.441 114.912 181.82 113.313C182.611 110.114 184.124 107.362 185.827 104.834C189.284 99.7942 193.67 95.6665 198.296 91.9687C205.227 86.5166 212.898 82.1653 220.861 78.6051L220.93 78.7083L220.965 78.6911Z" fill="#231F20"/>
<path d="M291.343 220.686C294.25 241.943 280.886 251.799 272.613 251.369C264.616 250.956 263.446 241.582 263.446 241.582C263.446 241.582 279.837 235.528 280.009 233.172C280.181 230.816 291.343 220.686 291.343 220.686Z" fill="#231F20"/>
<path d="M221.274 219.843C225.643 226.396 231.611 231.934 238.697 235.391C241.276 236.646 244.028 237.472 246.797 238.108C256.583 240.379 267.419 238.005 276.087 232.415C279.974 229.956 283.362 226.705 286.149 223.094C289.778 218.415 292.065 213.032 294.628 207.58C295.488 205.877 295.556 206.118 295.677 207.821C295.694 208.664 296.055 209.971 295.918 211.433C295.763 212.877 295.436 214.563 294.868 216.334C294.249 217.848 293.579 219.361 292.805 220.789C291.927 222.182 291.136 223.627 290.156 224.951C288.195 227.6 286.08 230.162 283.534 232.295C278.529 236.612 272.579 239.828 266.198 241.548C262.362 242.511 258.407 243.182 254.348 243.337C250.306 243.388 246.161 242.907 242.308 241.737C233.795 239.106 226.382 233.774 220.724 227.17C217.249 223.042 214.48 218.536 212.055 213.823C210.249 210.246 208.719 206.514 207.566 202.661C206.38 198.843 205.502 194.939 204.901 191.017C203.92 184.946 203.318 178.909 203.284 172.821C203.284 171.479 203.249 170.172 203.284 168.814C203.507 163.826 204.092 162.278 205.468 161.349C205.778 161.143 206.104 160.85 206.397 160.747C207.394 160.386 208.048 162.467 208.065 166.027C208.117 176.588 208.461 187.578 211.264 198.035C213.294 205.791 216.699 213.17 221.343 219.774L221.257 219.86L221.274 219.843Z" fill="#231F20"/>
<path d="M201.924 150.772C203.558 150.961 205.089 151.081 206.792 150.944C208.46 150.875 210.128 150.823 211.831 150.531L214.359 150.204L216.887 149.706L219.416 149.19L221.927 148.536C224.386 147.951 226.76 146.971 229.202 146.249C237.767 143.514 246.143 139.954 254.158 135.706C257.718 133.831 261.158 131.698 264.46 129.48C266.541 128 268.605 126.487 270.566 124.87C271.597 124.113 272.578 123.322 273.558 122.514C274.04 122.118 274.573 121.74 275.037 121.31C275.502 120.897 275.932 120.433 276.465 120.072C277.858 119.212 277.892 119.435 277.531 120.949C277.187 122.48 275.983 125.008 273.816 127.261C265.715 134.639 256.411 140.263 246.418 144.477C240.467 147.023 234.362 149.878 228.015 151.907C221.05 154.091 213.843 155.777 206.345 156.035C201.684 156.19 197.023 155.416 192.637 153.73C189.352 152.406 186.119 150.411 183.883 147.366C181.578 144.357 180.752 140.452 181.096 136.823C181.716 131.148 184.399 126.246 187.718 122.05C188.492 121.155 189.197 120.226 190.057 119.384C191.622 117.819 192.843 116.959 193.806 116.546C194.752 116.099 195.509 116.15 196.249 116.408C196.593 116.529 196.971 116.632 197.246 116.804C198.123 117.44 197.16 119.005 195.2 121.121C192.259 124.251 189.541 127.777 187.821 131.561C186.101 135.327 185.465 139.266 186.961 142.465C188.905 147.194 195.526 150.067 201.924 150.686V150.806V150.772Z" fill="#231F20"/>
<path d="M340.343 161.057C340.825 152.337 342.957 144.133 344.471 136.05C345.039 133.092 345.365 130.151 345.709 127.21C345.967 124.63 346.191 122.05 346.139 119.487C346.191 118.197 346.07 116.925 346.002 115.635C345.881 114.379 345.761 113.21 345.417 111.988C344.832 109.581 343.903 107.207 342.596 105.075C342.012 103.957 341.186 103.011 340.464 101.996C340.051 101.532 339.604 101.084 339.174 100.637L338.52 99.9492L337.798 99.3644C334.41 96.5094 329.955 95.0475 325.518 95.0991C324.813 95.0131 324.09 95.1335 323.385 95.2195L321.235 95.4603C319.825 95.7699 318.415 96.1482 317.004 96.475C315.628 96.991 314.252 97.4898 312.859 97.9541C311.501 98.5217 310.09 99.0205 308.663 99.502C306.805 99.9664 306.943 99.76 308.044 98.4357C308.594 97.7649 309.437 96.8878 310.503 95.8387C311.019 95.2883 311.707 94.9099 312.446 94.5143C313.186 94.1188 313.977 93.7232 314.82 93.3792C315.198 93.2244 315.577 93.0524 315.955 92.9148L317.142 92.5708L319.532 91.9001C320.324 91.6421 321.166 91.5733 321.992 91.4529L324.503 91.1261C325.346 91.1089 326.223 91.1261 327.066 91.1605C327.926 91.1605 328.785 91.2121 329.628 91.4185L332.191 91.9345C333.016 92.2097 333.842 92.5193 334.65 92.8288C337.849 94.1876 340.825 96.1998 343.078 98.8141C345.348 101.394 347.102 104.352 348.289 107.5C348.977 109.391 349.579 111.335 349.889 113.399C350.095 114.431 350.164 115.428 350.25 116.409C350.353 117.406 350.422 118.387 350.439 119.384C350.594 123.357 350.319 127.33 349.785 131.183C348.599 139.662 346.397 147.762 345.4 155.932C345.125 158.443 344.867 160.954 344.867 163.465C344.781 165.976 345.021 168.35 345.64 170.706C346.26 173.011 347.171 175.246 348.564 177.069C349.218 178.015 350.061 178.772 350.938 179.46C351.402 179.735 351.849 180.096 352.365 180.303C352.64 180.423 352.795 180.544 353.174 180.664L354.498 181.008C354.739 181.077 355.031 181.111 355.203 181.197L355.719 181.438L356.235 181.679L356.493 181.799L356.613 181.868H356.648V181.885C356.613 181.902 356.734 181.834 356.562 181.937C356.562 181.937 356.613 181.971 356.613 182.006C356.992 182.694 356.751 183.622 356.545 184.499C356.287 185.394 355.891 186.271 355.427 187.131C355.014 187.853 354.636 188.438 354.154 189.023C352.09 191.689 348.908 193.46 345.64 193.993C342.39 194.544 339.053 194.268 335.923 193.116C334.547 192.617 333.257 192.033 332.036 191.241C329.766 189.78 328.562 188.507 327.857 187.526C327.152 186.529 326.997 185.755 327.1 184.947C327.152 184.585 327.134 184.155 327.255 183.88C327.65 182.917 329.508 183.983 332.156 185.961C334.152 187.389 336.267 188.524 338.503 189.126C340.687 189.728 343.129 189.848 345.279 189.418C347.429 188.988 349.201 187.939 350.508 186.34C350.835 185.944 351.127 185.514 351.385 185.05C351.437 184.947 351.385 185.015 351.402 184.981H351.385L350.628 184.637C349.992 184.379 349.39 184.052 348.822 183.674C347.653 182.969 346.655 182.057 345.778 181.111C344.007 179.185 342.803 176.966 341.943 174.73C341.083 172.477 340.567 170.173 340.292 167.851C340.016 165.46 340.102 163.241 340.154 161.057H340.274H340.343Z" fill="#231F20"/>
<path d="M274.54 272.988C277.584 270.339 280.508 267.244 283.226 263.993C284.223 262.806 285.083 261.516 286.063 260.312C287.783 258.18 289.469 255.995 291.085 253.794L291.705 252.951L292.53 251.971C293.098 251.352 293.7 250.836 294.336 250.354C295.592 249.425 296.899 248.686 298.223 248.05C300.597 246.966 303.022 246.072 305.464 245.401C307.046 245.005 308.628 244.541 310.314 244.455C311.14 244.403 311.999 244.438 312.859 244.524C313.289 244.593 313.702 244.627 314.149 244.747C314.597 244.902 314.992 245.04 315.405 245.315C316.402 245.986 315.99 246.123 315.078 246.502C314.132 246.983 312.842 247.826 311.277 248.256C309.884 248.703 308.422 248.892 307.012 249.357C305.601 249.804 304.174 250.268 302.832 250.853C301.456 251.403 300.167 252.074 298.911 252.71C297.638 253.364 296.538 254.155 295.695 254.981L295.316 255.359L294.886 255.944L294.027 257.165C293.459 257.991 292.891 258.816 292.324 259.642C291.189 261.31 290.054 262.978 288.85 264.578C286.167 268.086 283.312 271.475 280.164 274.656C278.203 276.6 276.122 278.457 273.663 280.022C272.717 280.59 271.737 281.158 270.567 281.519C269.432 281.932 267.97 282 266.835 281.777C265.631 281.656 264.358 281.123 263.292 280.263C262.312 279.334 261.606 278.148 261.297 277.013C260.746 275.241 260.574 273.556 260.488 271.939C260.385 270.322 260.351 268.74 260.299 267.226C260.299 266.538 260.196 265.919 260.196 265.266C260.127 262.875 260.265 262.428 261.469 261.585C261.744 261.396 262.002 261.155 262.277 261C262.742 260.725 263.24 260.777 263.739 261.224C264.255 261.688 264.651 262.497 264.891 263.546C265.476 266.607 265.373 269.548 265.528 272.145C265.579 273.452 265.734 274.674 266.009 275.465C266.319 276.325 266.491 276.428 266.783 276.6C266.887 276.6 266.973 276.634 267.076 276.669C267.145 276.72 267.248 276.755 267.437 276.755C267.592 276.755 267.746 276.772 267.901 276.806L268.142 276.841H268.262C268.589 276.823 269.26 276.617 269.982 276.256C271.444 275.465 273.044 274.261 274.506 272.885L274.592 272.971L274.54 272.988Z" fill="#231F20"/>
<path d="M248.862 318.135C248.26 320.681 247.709 323.226 247.004 325.754L245.989 329.538L244.837 333.288L244.046 336.039C243.754 336.951 243.444 337.863 243.117 338.757C242.017 341.939 240.589 345.017 239.23 348.096L236.908 352.602C236.169 354.116 235.189 355.509 234.363 356.971L233.228 358.897L231.955 360.754C231.112 361.993 230.321 363.265 229.444 364.469C228.275 365.983 227.053 367.462 225.798 368.924C224.456 370.3 222.96 371.521 221.361 372.604C220.208 373.103 220.277 372.914 220.518 371.727C220.621 371.125 220.879 370.386 221.189 369.526C221.498 368.649 221.962 367.772 222.65 366.998C223.82 365.553 224.749 363.936 225.97 362.56C227.139 361.133 228.085 359.533 229.186 358.037C231.233 354.941 233.176 351.759 234.948 348.405C237.149 344.433 238.577 339.892 240.039 335.489C240.83 333.047 241.518 330.587 242.24 328.111C242.842 325.617 243.564 323.14 244.08 320.612L245.078 315.951L245.938 311.256C246.763 306.509 247.537 301.71 248.053 296.946C248.432 293.231 248.552 289.568 248.759 285.87C248.81 285.062 248.81 284.253 248.879 283.445C249.12 280.401 249.618 279.489 250.822 278.973C251.098 278.853 251.373 278.698 251.648 278.629C252.542 278.44 253.161 279.764 253.23 282C253.265 288.639 252.628 295.587 251.665 302.57C251.321 305.167 250.891 307.747 250.461 310.344C249.962 312.924 249.515 315.521 248.965 318.101H248.862V318.135Z" fill="#231F20"/>
<path d="M203.422 370.437C206.346 371.675 209.39 372.621 212.486 373.447C213.604 373.774 214.791 373.843 215.926 374.118C219.951 374.96 224.061 375.7 228.223 375.752C230.064 375.872 231.904 375.614 233.744 375.562L237.253 375.15C238.405 374.943 239.592 374.823 240.796 374.737C241.552 374.685 241.484 374.806 240.933 375.201C240.383 375.528 239.385 376.422 238.027 376.87C235.619 377.523 233.177 378.194 230.683 378.4C228.189 378.589 225.678 378.658 223.167 378.4C221.653 378.28 220.14 378.177 218.609 378.056C217.061 377.988 215.53 377.764 214.017 377.523C210.68 376.99 207.43 376.096 204.196 375.133C202.236 374.427 200.258 373.808 198.366 372.983L196.199 372.054L194.083 371.005C192.656 370.351 191.297 369.543 189.921 368.803C187.806 367.617 185.621 366.567 183.592 365.157C183.145 364.848 182.646 364.607 182.233 364.246C180.685 362.904 180.479 362.164 181.012 361.081C181.132 360.823 181.236 360.565 181.39 360.341C181.906 359.619 183.024 359.619 184.194 360.29C187.582 362.388 191.056 364.59 194.806 366.533C197.626 367.909 200.481 369.285 203.474 370.386L203.439 370.489L203.422 370.437Z" fill="#231F20"/>
<path d="M187.117 422.98C192.449 425.01 197.918 426.73 203.49 428.037C205.503 428.501 207.635 428.845 209.596 429.172C216.493 430.359 223.82 429.086 230.304 425.904C233.193 424.511 235.911 422.671 238.37 420.624C239.969 419.317 241.449 417.872 242.893 416.393C243.254 416.032 243.633 415.671 243.977 415.275L245.164 414.26C245.955 413.572 246.763 412.884 247.554 412.179C248.603 411.336 248.672 411.594 248.414 412.816C248.139 414.019 247.778 416.445 246.23 418.508C243.254 421.897 239.849 424.958 236.014 427.435C232.127 429.843 227.81 431.666 223.286 432.612C217.92 433.73 211.987 434.211 206.535 433.059C200.67 431.975 194.908 430.445 189.267 428.587C185.793 427.435 182.37 426.162 178.999 424.734C173.891 422.602 168.92 420.056 164.156 417.287C160.424 415.189 156.83 412.936 153.355 410.391C152.616 409.789 151.859 409.238 151.137 408.619C148.471 406.263 148.024 405.076 148.436 403.7C148.54 403.373 148.608 403.029 148.763 402.754C149.279 401.877 150.879 402.29 152.753 403.803C158.412 408.258 164.775 412.282 171.5 415.894C176.522 418.543 181.768 420.899 187.169 422.86L187.134 422.98H187.117Z" fill="#231F20"/>
<path d="M163.539 362.302L157.553 357.882C156.831 357.332 156.023 356.902 155.317 356.317C154.681 355.818 154.045 355.285 153.408 354.7C152.841 354.202 151.706 352.912 151.654 351.794C151.327 350.211 151.018 348.698 150.639 347.167C150.33 345.808 149.779 344.536 149.435 343.211C148.954 341.509 148.214 339.926 148.025 338.086C147.956 337.519 148.128 337.501 148.679 337.759C148.954 337.897 149.349 338.086 149.779 338.327C150.192 338.585 150.571 338.963 150.863 339.41C151.379 340.202 151.878 341.01 152.359 341.835C152.6 342.248 152.841 342.644 153.03 343.074L153.512 344.381C154.131 346.135 154.612 347.924 154.991 349.713C155.077 350.194 155.3 350.934 155.266 350.951C155.266 351.054 155.335 351.106 155.386 351.175L155.868 351.57L158.534 353.41C160.512 354.804 162.541 356.197 164.588 357.555C165.843 358.398 167.099 359.241 168.372 360.049C170.298 361.27 172.241 362.526 174.236 363.627C175.801 364.469 177.47 365.037 179.086 365.69C179.448 365.828 179.809 365.931 180.17 366.103C181.426 366.774 181.666 367.273 181.34 368.528C181.271 368.821 181.219 369.113 181.116 369.371C180.789 370.283 179.895 370.713 178.794 370.489C175.561 369.784 172.62 368.219 169.73 366.516C167.615 365.209 165.568 363.799 163.487 362.405L163.539 362.302Z" fill="#231F20"/>
<path d="M151.447 374.806C152.669 376.01 153.855 377.248 155.042 378.487C155.472 378.934 155.988 379.312 156.401 379.777C157.863 381.428 159.273 383.113 160.546 384.919C161.13 385.693 161.784 386.433 162.438 387.138C163.263 388.049 164.175 388.909 164.501 390.234C164.57 390.681 164.226 390.87 163.538 391.025C162.799 391.214 161.818 391.266 161.285 390.836C160.288 390.096 159.479 389.202 158.619 388.342C157.794 387.465 156.968 386.57 156.28 385.521C155.472 384.248 154.216 383.337 153.167 382.27C151.998 381.101 150.811 379.914 149.607 378.779C148.85 378.074 148.111 377.369 147.337 376.698C146.167 375.666 144.963 374.651 143.725 373.74C142.745 373.035 141.644 372.553 140.595 371.968C140.371 371.848 140.113 371.745 139.89 371.607C139.099 371.04 139.013 370.627 139.391 369.698C139.477 369.492 139.563 369.268 139.666 369.079C140.01 368.408 140.715 368.133 141.472 368.305C143.708 368.89 145.737 370.008 147.595 371.383C148.954 372.433 150.226 373.602 151.516 374.754L151.447 374.84V374.806Z" fill="#231F20"/>
<path d="M87.6224 234.17C84.7846 238.263 81.7748 241.875 79.6077 245.831C78.7993 247.276 78.2318 248.789 77.6642 250.285C76.6495 252.917 76.0819 255.669 76.2883 258.403C76.5291 261.138 77.4578 263.873 79.0573 266.281C80.4504 268.448 82.3423 270.322 84.4062 271.922C87.0549 273.986 89.9443 275.809 92.9197 277.563C93.8484 278.113 93.5733 278.44 92.5241 278.526C91.475 278.612 89.6003 278.526 87.6396 277.735C85.9369 276.978 84.2342 276.187 82.6347 275.138C81.0868 274.037 79.5905 272.851 78.2318 271.423C76.8902 270.013 75.6347 268.482 74.6716 266.728C73.7084 264.973 72.9689 263.064 72.5905 261.069C71.6102 256.305 72.2121 251.197 73.932 246.846C75.8067 242.047 78.6789 237.902 81.3276 233.912C82.9443 231.435 84.561 229.045 85.8165 226.499C87.76 222.681 88.9123 218.536 88.4996 214.357C88.362 212.74 87.9664 211.175 87.416 209.696C86.8313 208.217 86.1089 206.824 85.3349 205.482C84.991 204.88 84.5782 204.364 84.217 203.779C82.7723 201.716 82.6347 200.821 83.2023 199.462C83.3399 199.153 83.4259 198.826 83.5634 198.568C83.8042 198.138 84.2686 198.001 84.9566 198.104C85.6617 198.19 86.5045 198.637 87.416 199.394C89.8755 201.802 91.9566 204.88 92.9885 208.406C94.072 211.915 94.416 215.715 93.9 219.482C93.1605 225.158 90.4602 230.008 87.7944 234.222L87.674 234.153L87.6224 234.17Z" fill="#231F20"/>
<path d="M100.589 249.167C99.0922 251.317 97.7163 253.433 96.8564 255.668C96.5468 256.477 96.4264 257.32 96.22 258.128C95.3944 260.966 95.8416 264.113 97.5099 266.934C98.2495 268.172 99.161 269.342 100.193 270.408C101.517 271.767 102.996 273.005 104.372 274.415C104.802 274.862 104.51 275.12 103.822 275.172C103.151 275.224 102.016 275.12 101.001 274.501C99.2126 273.418 97.4755 272.145 95.9276 270.58C94.4485 268.963 93.2274 266.951 92.591 264.698C91.817 262.049 91.3699 259.039 91.9374 256.288C92.6082 253.278 93.9325 250.646 95.36 248.238C96.2372 246.742 97.1831 245.315 98.0431 243.904C99.3502 241.789 100.64 239.673 101.397 237.42C101.964 235.666 102.05 233.86 101.844 232.243C101.81 231.882 101.689 231.538 101.724 231.194C101.81 229.904 102.136 229.406 103.117 228.786C103.34 228.649 103.564 228.477 103.77 228.374C104.475 227.995 105.439 228.408 106.213 229.715C107.451 231.659 107.313 233.998 107.038 236.079C106.711 238.194 105.989 240.172 105.129 241.995C103.839 244.695 102.085 247.017 100.709 249.219L100.606 249.167H100.589Z" fill="#231F20"/>
<path d="M377.304 365.484C379.901 369.182 382.464 372.88 384.992 376.577C385.921 377.919 386.953 379.192 387.881 380.516C389.206 382.442 390.53 384.368 391.923 386.192C392.611 387.103 393.316 387.997 394.039 388.789C394.383 389.167 394.778 389.58 395.071 389.821C395.277 390.01 395.483 390.147 395.741 390.165H395.931H396.326H397.134L398.768 390.251C401.417 390.388 404.066 390.577 406.714 391.093C408.4 391.454 410.12 391.936 411.736 392.762C413.405 393.45 414.832 394.997 415.331 396.838C415.4 397.474 415.4 397.732 415.365 397.732C415.314 397.749 415.142 397.56 414.591 397.457C414.282 397.44 414.041 397.337 413.68 397.285C413.319 397.251 412.906 397.268 412.476 397.285C412.235 397.337 412.098 397.251 411.891 397.251L411.289 397.216C411.083 397.216 410.911 397.165 410.705 397.165C410.55 397.096 410.378 397.027 410.189 396.958C408.159 396.081 405.786 395.651 403.343 395.255C402.122 395.066 400.849 394.946 399.577 394.843L397.65 394.739L396.67 394.705H395.346L394.933 394.619C394.813 394.516 394.658 394.533 394.537 394.482C394.262 394.413 393.987 394.378 393.746 394.224C393.248 393.966 392.732 393.708 392.37 393.346C392.026 393.071 391.751 392.796 391.51 392.538C391.252 392.28 391.012 392.005 390.805 391.747C388.071 388.359 385.474 385.16 383.014 381.806C380.348 378.125 377.837 374.376 375.257 370.678C373.675 368.408 372.076 366.138 370.424 363.902C367.931 360.531 365.402 357.16 362.651 354.064C360.501 351.673 358.179 349.523 355.823 347.459C355.307 346.995 354.756 346.6 354.24 346.135C352.348 344.415 351.97 343.624 352.108 342.506C352.142 342.248 352.142 341.973 352.211 341.749C352.417 341.027 353.707 341.147 355.513 342.128C360.673 345.292 365.093 349.781 369.014 354.511C371.972 358.02 374.69 361.7 377.407 365.364L377.321 365.432L377.304 365.484Z" fill="#231F20"/>
<path d="M378.008 404.749C373.674 406.039 369.357 407.398 365.058 408.86C363.492 409.376 361.979 410.047 360.414 410.58C354.893 412.472 349.406 414.467 343.954 416.548C341.547 417.494 339.156 418.526 336.851 419.644C335.355 420.349 333.893 421.106 332.431 421.845C330.9 422.482 329.387 423.118 327.805 423.634C326.704 423.771 326.773 423.634 327.254 422.688C327.736 421.794 328.768 420.229 330.367 419.076C331.846 418.182 333.377 417.408 334.89 416.651C336.421 415.877 337.952 415.138 339.517 414.45C342.63 413.022 345.795 411.749 349.08 410.717C352.984 409.428 356.871 407.708 360.827 406.28C365.161 404.715 369.529 403.236 373.915 401.843C376.615 400.983 379.333 400.157 382.067 399.366C384.131 398.764 386.229 398.214 388.362 397.732C390.443 397.251 392.885 396.907 395.035 397.044C398.441 397.165 401.812 397.526 405.131 398.455C405.854 398.661 406.576 398.85 407.298 399.125C409.93 400.192 410.6 400.966 410.566 402.17C410.566 402.445 410.583 402.737 410.532 402.978C410.325 403.786 409.07 403.821 407.315 403.236C404.701 402.393 401.967 401.774 399.163 401.413C397.77 401.224 396.36 401.12 394.949 401.069C394.244 401.052 393.539 401.069 392.851 401.069C392.215 401.155 391.716 401.172 391.011 401.327C386.849 402.17 382.394 403.477 378.077 404.818L378.043 404.732L378.008 404.749Z" fill="#231F20"/>
<path d="M304.982 459.906C304.879 459.975 304.724 460.25 304.913 460.354C305.068 460.457 305.188 460.543 305.945 460.25C306.599 460.01 307.218 459.528 307.889 459.132C310.245 457.584 312.498 455.538 314.527 453.336C315.422 452.356 316.265 451.307 317.107 450.258C318.156 448.916 319.188 447.54 320.392 446.285C320.771 445.889 320.908 446.096 320.84 446.612C320.771 447.127 320.582 448.005 320.083 448.865C318.346 451.926 316.402 454.936 313.857 457.516C312.326 459.046 310.916 460.835 308.989 462.245C308.491 462.658 307.854 462.968 307.27 463.295C306.943 463.449 306.461 463.604 306.066 463.742C305.859 463.811 305.653 463.897 305.446 463.948L304.741 463.983C303.813 464.086 302.901 463.983 302.179 463.553C301.439 463.157 300.94 462.349 300.871 461.523C300.751 460.526 301.147 459.373 301.594 458.462C301.817 457.997 302.024 457.653 302.213 457.327L302.832 456.346C304.088 454.42 305.515 452.7 306.736 450.877C307.699 449.467 308.439 447.953 309.127 446.508C309.265 446.182 309.368 445.855 309.574 445.597C310.262 444.548 310.52 444.496 311.363 444.341C311.552 444.307 311.741 444.221 311.913 444.187C312.206 444.118 312.481 444.221 312.704 444.616C312.928 445.012 312.997 445.58 312.928 446.216C312.79 448.142 311.862 449.518 311.07 450.946C310.228 452.339 309.299 453.646 308.387 454.936L306.392 457.739C306.083 458.204 305.773 458.651 305.515 459.115C305.223 459.597 305.051 459.941 305.068 459.872H304.965L304.982 459.906Z" fill="#231F20"/>
<path d="M285.22 459.27C285.22 459.27 285.272 459.322 285.306 459.339C285.323 459.339 285.34 459.356 285.34 459.374C285.289 459.374 285.53 459.408 285.616 459.391C286.114 459.374 286.648 459.322 287.198 459.167C288.299 458.875 289.485 458.307 290.621 457.585C291.463 457.052 292.203 456.364 293.046 455.762C296.004 453.629 298.911 451.101 301.955 448.71C303.313 447.644 304.707 446.595 306.151 445.614C307.08 444.978 308.095 444.445 309.178 444.049C310.262 443.688 311.397 443.293 312.601 443.499C313.34 443.602 313.237 443.774 312.756 444.307C312.274 444.875 311.569 445.821 310.675 446.457C307.544 448.865 304.483 451.651 300.923 454.317C298.79 455.917 296.933 458.015 294.662 459.735C293.407 460.664 292.065 461.541 290.569 462.263C289.073 462.951 287.387 463.536 285.564 463.519C284.154 463.553 282.795 463.123 281.712 462.538C281.196 462.194 280.8 461.644 280.662 461.025C280.525 460.406 280.559 459.769 280.714 459.15C280.938 458.221 281.522 457.189 281.935 456.553C282.348 455.917 282.795 455.332 283.259 454.764C284.188 453.646 285.169 452.597 286.149 451.582C287.68 450 289.124 448.383 290.793 446.922C291.154 446.595 291.515 446.268 291.911 445.976C293.493 445.012 294.198 445.012 294.955 445.614C295.127 445.752 295.333 445.872 295.471 446.027C295.935 446.543 295.591 447.369 294.783 448.315C292.34 451.015 289.537 453.578 287.215 456.45C286.785 456.983 286.39 457.499 286.011 458.032L285.495 458.806L285.358 458.995L285.323 459.03C285.272 459.03 285.203 459.15 285.289 459.184L285.22 459.288V459.27Z" fill="#231F20"/>
<path d="M272.459 461.42C272.424 461.901 272.39 461.747 272.39 461.884C272.39 461.953 272.39 462.056 272.459 462.125C272.579 462.28 272.717 462.349 273.078 462.194C273.835 461.85 274.729 461.162 275.555 460.457C276.466 459.666 277.275 458.685 278.152 457.756C279.7 456.123 281.213 454.403 282.727 452.631C283.501 451.754 284.24 450.86 285.083 449.948C285.289 449.725 285.513 449.484 285.771 449.243C285.891 449.123 286.029 449.002 286.235 448.847C286.442 448.675 286.51 448.658 286.648 448.555L288.144 447.592C289.916 446.474 291.704 445.322 293.51 444.255C294.68 443.602 295.867 442.948 297.088 442.398C298.326 441.865 299.547 441.28 300.992 441.28C302.041 441.658 301.835 441.503 301.491 442.501C301.336 443.034 301.009 443.533 300.648 444.152C300.252 444.702 299.736 445.184 299.1 445.545C297.965 446.182 296.864 446.835 295.763 447.506L292.427 449.467C291.326 450.155 290.225 450.842 289.107 451.53L288.54 451.892C288.385 451.995 288.161 452.218 287.955 452.442L286.614 453.852C284.412 456.209 282.537 459.081 280.198 461.592C279.046 462.813 277.842 464.017 276.346 465.066C275.985 465.341 275.572 465.582 275.142 465.823C274.695 466.081 274.007 466.356 273.422 466.494C272.218 466.786 270.877 466.597 269.931 465.771C269.466 465.324 269.053 464.842 268.778 464.258C268.383 463.484 268.331 462.607 268.331 461.747C268.434 460.955 268.555 460.371 268.744 459.734C269.122 458.513 269.655 457.43 270.223 456.398C271.977 453.285 274.127 450.55 276.329 447.936C278.048 445.889 279.717 443.86 281.677 442.002C282.107 441.589 282.52 441.177 283.002 440.798C284.859 439.474 285.822 439.526 286.579 440.042C286.751 440.162 286.94 440.248 287.061 440.368C287.267 440.575 287.198 440.884 287.009 441.28C286.803 441.675 286.493 442.226 285.977 442.725C282.95 445.82 279.7 449.26 276.896 452.975C275.881 454.368 274.849 455.761 274.076 457.241C273.319 458.702 272.682 460.268 272.545 461.454H272.442L272.459 461.42Z" fill="#231F20"/>
<path d="M264.977 445.7C268.692 440.265 273.508 435.604 279.269 432.337C281.368 431.15 283.535 430.032 285.839 429.292C287.869 428.622 289.984 428.243 292.1 428.02C294.267 427.83 296.193 427.813 298.205 427.727C302.196 427.607 306.186 427.487 310.141 427.246C313.65 427.039 317.159 426.627 320.564 426.042C324.967 425.251 329.198 424.081 333.704 423.479C335.132 423.359 334.994 423.479 334.048 424.391C333.154 425.405 331.296 427.005 328.768 427.951C326.549 428.862 324.193 429.241 321.888 429.74C319.567 430.204 317.245 430.531 314.906 430.823C310.245 431.373 305.584 431.58 300.94 431.683C299.547 431.7 298.154 431.769 296.743 431.855C295.333 431.941 293.923 432.044 292.633 432.233C290.001 432.629 287.404 433.351 284.945 434.349C279.493 436.516 274.608 440.265 270.721 444.857C268.365 447.678 266.232 450.877 264.891 454.179C264.753 454.541 264.633 454.902 264.547 455.28C264.478 455.641 264.392 456.088 264.616 456.432C264.908 456.725 265.372 456.639 265.716 456.484C266.078 456.329 266.404 456.106 266.731 455.848C267.006 455.641 267.626 455.142 268.142 454.661C268.658 454.179 269.173 453.681 269.689 453.182L272.734 450.086C275.881 446.87 278.857 443.516 282.64 440.73C283.483 440.128 284.309 439.526 285.289 439.027C287.078 438.098 288.488 437.823 289.468 437.857C290.483 437.978 291.051 438.287 291.463 438.803C291.653 439.027 291.876 439.251 291.962 439.474C292.1 439.835 291.79 440.179 291.223 440.489C290.638 440.816 289.847 441.228 288.78 441.658C285.633 442.983 282.606 445.494 279.648 448.142C276.689 450.86 273.869 453.887 270.67 456.845L269.758 457.688L269.294 458.118L268.451 458.806C267.918 459.287 267.23 459.666 266.611 460.096C265.992 460.354 265.338 460.663 264.771 460.715C263.601 460.921 262.517 460.577 261.572 459.752C260.763 458.892 260.402 457.894 260.488 456.501C260.591 455.796 260.557 455.125 260.832 454.386C261.038 453.698 261.279 452.769 261.4 452.494C261.692 451.668 262.036 450.877 262.38 450.103C263.085 448.555 263.911 447.093 264.839 445.717L264.925 445.769L264.977 445.7Z" fill="#231F20"/>
<path d="M339.621 446.973C337.953 447.97 336.164 448.693 334.375 449.192C333.722 449.363 333.103 449.639 332.432 449.725C330.075 450.12 327.702 450.069 325.415 449.811C324.4 449.673 323.368 449.501 322.37 449.26C321.115 448.951 319.722 448.676 318.827 447.54C318.535 447.231 318.776 446.938 319.292 446.646C319.55 446.491 319.876 446.336 320.22 446.182C320.564 446.01 320.926 445.889 321.235 445.958C322.336 446.147 323.419 446.216 324.52 446.268C325.621 446.285 326.722 446.491 327.891 446.594C329.302 446.732 330.712 446.268 332.071 445.889C333.584 445.477 335.063 444.978 336.439 444.238C337.282 443.791 338.09 443.258 338.881 442.639C340.068 441.71 341.272 440.626 342.614 439.543C343.663 438.717 344.884 437.789 346.363 437.359C346.69 437.255 346.999 437.135 347.326 437.101C347.945 436.997 348.341 437.169 348.599 437.41C348.857 437.651 348.977 438.012 349.029 438.545C349.046 438.786 349.098 439.027 349.098 439.268C349.098 440.059 348.616 440.73 348.048 441.039C346.363 441.882 345.623 442.329 343.955 443.757C342.786 444.771 341.358 446.027 339.707 447.093L339.638 447.007L339.621 446.973Z" fill="#231F20"/>
<path d="M243.719 475.919C245.989 461.386 248.087 446.801 249.704 432.164L250.564 424.15L251.286 416.135C252.284 406.727 253.006 397.285 253.763 387.843C254.348 378.4 254.967 368.941 255.242 359.464C255.655 351.071 255.603 342.609 255.672 334.268C255.603 328.902 255.448 323.536 255.431 318.17L255.38 310.12V306.096C255.397 304.754 255.534 303.413 255.603 302.071C255.861 298.717 256.033 299.147 256.756 301.951C257.598 304.754 258.751 309.931 259.198 316.123C260.281 338.086 260.058 360.118 258.338 382.219C257.392 395.445 256.566 409.204 255.311 422.705C254.52 430.118 253.78 437.531 252.817 444.926C251.802 452.304 250.925 459.717 249.721 467.061C249.016 471.585 248.38 476.142 247.606 480.648L245.284 494.201C244.08 501.029 242.704 507.857 241.431 514.685C240.021 521.479 238.593 528.272 237.2 535.014C236.048 540.243 234.964 545.437 233.898 550.614C232.729 555.774 231.576 560.916 230.424 566.093C229.925 568.38 229.426 570.599 228.79 572.869C226.52 581.297 225.488 583.894 223.923 585.39C223.562 585.734 223.183 586.199 222.874 586.371C221.842 586.938 222.065 583.326 223.407 577.1C225.453 567.882 227.534 558.439 229.667 548.86C230.699 544.061 231.731 539.228 232.78 534.378C233.846 529.528 234.758 524.626 235.756 519.759C237.303 512.518 238.507 505.191 239.918 497.899C241.208 490.589 242.429 483.245 243.598 475.919H243.719Z" fill="#231F20"/>
<path d="M357.8 396.03C358.144 394.155 358.47 392.263 358.746 390.371C358.866 389.683 358.866 388.978 358.969 388.29C359.382 385.848 359.76 383.406 360.018 380.946C360.156 379.863 360.19 378.762 360.225 377.678C360.276 376.285 360.156 374.892 360.517 373.499C360.655 373.069 360.964 373.103 361.429 373.465C361.927 373.826 362.495 374.496 362.615 375.305C362.994 378.194 363.234 381.084 362.736 383.973C362.478 385.693 362.598 387.516 362.495 389.288C362.392 391.231 362.117 393.175 361.893 395.118L361.429 398.695C361.205 400.501 360.878 402.307 360.723 404.113C360.603 405.523 360.672 406.917 360.62 408.344C360.62 408.654 360.637 408.963 360.603 409.273C360.448 410.425 360.087 410.735 358.935 410.752C358.677 410.752 358.402 410.769 358.144 410.752C357.266 410.683 356.647 410.081 356.544 409.238C356.217 406.745 356.424 404.216 356.836 401.688C357.129 399.796 357.421 397.904 357.731 396.012H357.834L357.8 396.03Z" fill="#231F20"/>
<path d="M312.017 86.8948C310.761 87.3248 300.132 73.3936 303.847 70.057C306.909 67.3052 311.277 70.3322 312.774 74.4772C314.631 79.6541 315.611 85.6737 312.034 86.8948H312.017Z" fill="#231F20"/>
<path d="M315.335 88.4776C316.04 89.4064 331.812 85.2442 329.559 81.6496C324.898 74.2025 313.289 85.829 315.335 88.4776Z" fill="#231F20"/>
<path d="M172.326 386.071C169.883 388.909 167.217 391.54 164.328 393.983C163.262 394.86 162.264 395.823 161.077 396.597C159.014 397.938 156.795 399.228 154.198 399.865C152.891 400.157 151.515 400.363 150.053 400.174C148.66 399.985 147.06 399.417 145.977 398.145C144.996 397.044 144.652 395.685 144.532 394.516C144.394 393.312 144.463 392.194 144.601 391.11C144.756 389.717 145.048 388.359 145.53 387.086C145.977 385.796 146.544 384.575 147.37 383.491C147.869 382.803 148.144 383.027 148.436 383.87C148.574 384.3 148.763 384.867 148.935 385.555C149.073 386.209 149.107 386.931 149.004 387.636C148.832 388.909 148.711 390.13 148.522 391.282C148.385 392.435 148.35 393.57 148.522 394.361C148.729 395.221 148.901 395.393 149.313 395.668C149.778 395.943 150.758 396.15 151.756 396.029C154.284 395.754 157.001 393.879 159.392 392.005C162.092 389.906 164.638 387.464 166.977 384.833C168.421 383.216 169.797 381.531 171.07 379.759C173.014 377.093 174.819 374.29 176.23 371.349C177.313 369.061 177.95 366.636 178.397 364.28C178.466 363.764 178.552 363.248 178.62 362.732C178.913 360.84 179.326 360.376 180.581 359.963C180.873 359.877 181.166 359.739 181.441 359.688C181.923 359.585 182.353 359.757 182.697 360.187C183.058 360.634 183.333 361.339 183.385 362.233C183.471 367.513 181.389 372.415 178.93 376.87C177.021 380.155 174.785 383.233 172.394 386.14L172.291 386.071H172.326Z" fill="#231F20"/>
<path d="M90.6824 366.671C91.1123 367.531 91.5595 368.322 92.0067 369.13C92.2303 369.543 92.4539 369.921 92.6947 370.283C92.901 370.627 93.245 371.16 93.2106 371.091C93.2966 371.263 93.8126 371.573 94.4489 371.779C95.1025 371.985 95.8937 372.123 96.7192 372.192C100.073 372.45 103.822 371.865 107.279 370.867C108.552 370.489 109.756 369.99 110.908 369.491C112.044 368.975 113.144 368.339 113.815 367.737C113.935 367.617 114.073 367.496 114.125 367.41C114.211 367.359 114.279 367.049 114.365 366.894C114.451 366.688 114.555 366.516 114.623 366.275L114.813 365.467C115.088 364.418 115.191 363.162 115.363 362.01C115.604 359.602 115.758 357.143 115.844 354.683C116.016 349.747 115.982 344.776 115.844 339.806C115.707 335.403 115.397 330.966 114.967 326.614C114.744 323.811 114.417 321.007 114.142 318.221C114.021 316.811 113.832 315.435 113.781 314.025L113.729 311.909C113.729 311.204 113.609 310.516 113.729 309.777C114.262 307.919 113.97 308.194 114.95 309.57C115.466 310.241 115.982 311.256 116.567 312.477C116.842 313.096 117.169 313.75 117.392 314.472C117.599 315.194 117.771 315.968 117.874 316.777C118.287 319.649 118.648 322.538 118.958 325.428C119.25 328.317 119.422 331.206 119.577 334.113C119.869 339.909 119.989 345.74 119.766 351.622C119.611 355.13 119.559 358.708 119.284 362.371L118.975 365.157L118.7 366.602L118.579 367.324C118.528 367.582 118.424 367.858 118.338 368.133C118.115 368.7 118.063 369.182 117.633 369.818C117.255 370.403 116.842 370.833 116.429 371.229C115.604 372.002 114.744 372.553 113.884 373.034C111.992 374.118 110.031 374.823 108.036 375.373C106.058 375.941 104.029 376.337 101.982 376.595C99.9354 376.835 97.8371 376.939 95.6873 376.698C94.6037 376.577 93.503 376.354 92.3679 375.907C91.8003 375.683 91.2327 375.373 90.6824 374.978C90.4072 374.737 90.132 374.531 89.8912 374.256C89.6504 373.98 89.3924 373.654 89.2892 373.464C86.589 369.165 84.6111 364.831 82.53 360.428C79.4686 353.754 76.734 346.926 74.1885 340.098C72.2279 334.784 70.2328 329.573 68.7021 324.121C68.3925 322.917 67.9625 321.764 67.7389 320.509C66.7242 315.917 67.3433 314.265 68.4269 313.182C68.6677 312.941 68.8569 312.614 69.046 312.477C69.3728 312.236 69.734 312.563 70.3016 313.32C70.9207 314.076 71.3851 315.28 71.8151 316.863C74.2917 326.184 77.5079 335.953 81.3261 345.602C84.1296 352.757 87.2426 359.912 90.82 366.654L90.7168 366.722L90.6824 366.671Z" fill="#231F20"/>
<path d="M81.6019 321.541C79.7272 321.403 77.8181 321.145 75.8919 320.646C75.4103 320.526 74.9287 320.406 74.4299 320.216L73.6904 319.959L72.6757 319.477C71.2825 318.875 70.0958 317.843 69.2015 316.828C69.0123 316.502 68.8747 316.14 68.7027 315.796C68.4963 315.47 68.4619 315.057 68.5135 314.644C68.5995 313.853 68.9607 313.199 69.511 312.546C70.3366 311.565 71.6609 310.688 72.8476 309.983C73.6388 309.519 74.4127 309.106 75.2211 308.762C80.8968 306.32 86.7272 304.789 92.6609 303.74C95.2923 303.275 97.9582 302.897 100.641 302.725C102.361 302.622 104.098 302.553 105.852 302.725C107.59 302.932 109.327 303.482 110.857 304.393C111.803 304.995 111.563 305.133 110.582 305.374C110.083 305.511 109.413 305.701 108.639 305.993C107.865 306.234 107.022 306.423 106.128 306.526C102.997 306.492 99.7812 306.836 96.5822 307.386C93.3488 307.799 90.0982 308.418 86.8132 309.123C82.909 309.983 79.0049 311.669 75.5135 313.492L74.7051 313.922C74.5503 314.008 74.3783 314.111 74.2236 314.231C74.0688 314.352 73.8968 314.472 73.828 314.661C73.7592 314.868 73.9828 314.988 74.086 315.143C74.2408 315.315 74.4299 315.452 74.6363 315.59C74.7395 315.659 74.8771 315.71 74.9975 315.779L75.2039 315.882L75.5995 316.02C76.6142 316.416 77.7665 316.639 78.9189 316.811C81.5675 317.172 84.3366 317.189 87.1056 316.966C91.285 316.639 95.5159 315.968 99.5405 314.799C102.653 313.887 105.612 312.529 108.278 310.981C108.862 310.654 109.43 310.327 110.015 310C110.531 309.708 110.978 309.484 111.339 309.278C111.717 309.106 112.027 309.02 112.337 308.951C112.87 308.779 113.351 308.796 113.833 308.796C114.056 308.796 114.297 308.728 114.452 308.728C114.744 308.728 114.848 308.986 114.813 309.708C114.762 310.396 114.366 311.342 113.661 312.288C113.076 312.924 112.457 313.492 111.821 314.042L110.84 314.833C110.496 315.057 110.152 315.263 109.808 315.487C108.398 316.295 106.936 317.017 105.44 317.619C102.447 318.841 99.3341 319.735 96.1695 320.44C91.4569 321.455 86.6068 321.85 81.6363 321.644V321.524L81.6019 321.541Z" fill="#231F20"/>
<path d="M133.318 367.324C134.797 367.582 136.294 367.789 137.824 367.806C138.375 367.84 138.942 367.771 139.493 367.771C141.471 367.84 143.483 367.72 145.444 367.376C146.321 367.238 147.163 366.929 147.989 366.619C149.038 366.172 150.053 365.759 151.222 365.553C151.584 365.501 151.807 366 151.773 366.654C151.756 367.307 151.498 368.167 150.878 368.563C150.328 368.855 149.795 369.251 149.193 369.457C148.591 369.663 147.989 369.853 147.387 370.042C146.166 370.351 144.91 370.558 143.638 370.609C142.124 370.661 140.611 371.022 139.063 371.108C137.377 371.16 135.675 371.039 134.006 370.816C132.974 370.695 131.96 370.472 130.945 370.265C130.171 370.093 129.431 369.87 128.675 369.663C127.935 369.423 127.178 369.182 126.439 368.941C125.871 368.735 125.286 368.58 124.702 368.425C124.134 368.219 123.566 367.995 122.999 367.771C122.741 367.668 122.5 367.582 122.259 367.427C121.399 366.894 121.245 366.533 121.52 365.759C121.589 365.587 121.64 365.398 121.709 365.243C121.984 364.693 122.603 364.486 123.257 364.624C124.22 364.899 125.218 365.071 126.146 365.346C127.092 365.622 128.004 365.966 128.967 366.224C130.377 366.654 131.839 366.98 133.318 367.204V367.29V367.324Z" fill="#231F20"/>
<path d="M349.665 453.887C350.043 452.89 350.043 451.376 349.768 449.846C349.493 448.298 348.96 446.715 348.306 445.167C347.842 444.032 347.154 442.983 346.569 441.882C344.453 438.013 341.736 434.384 338.589 431.202C337.178 429.792 335.544 428.639 333.91 427.573C332.878 426.851 331.761 426.3 330.66 425.715C329.507 425.285 328.493 424.374 327.272 423.927C326.532 423.566 326.635 423.445 327.392 423.204C327.77 423.084 328.338 422.895 329.026 422.757C329.697 422.671 330.608 422.344 331.382 422.637C334.237 423.376 336.955 424.615 339.156 426.455C341.409 428.226 343.439 430.256 345.107 432.543C347.085 435.278 349.286 437.995 350.92 441.074C352.64 444.462 354.136 448.108 354.154 452.288C354.102 453.578 353.878 454.936 353.208 456.226C352.589 457.516 351.333 458.583 350.181 459.116C348.409 460.045 346.397 460.32 344.522 460.165C342.63 460.01 340.842 459.425 339.191 458.651C336.662 457.413 334.358 455.865 332.363 453.973C331.898 453.561 331.468 453.165 331.09 452.683C329.576 450.998 329.679 450.052 330.23 449.123C330.367 448.917 330.471 448.676 330.608 448.504C330.849 448.212 331.227 448.177 331.726 448.28C332.225 448.401 332.878 448.642 333.394 449.175C335.114 450.602 336.679 452.099 338.417 453.285C340.119 454.455 341.942 455.452 343.731 455.779C346.294 456.364 349.321 455.435 349.596 453.836L349.699 453.87L349.665 453.887Z" fill="#231F20"/>
<path d="M217.147 196.504C217.766 192.961 219.056 190.054 220.329 187.13C220.793 186.064 221.189 184.98 221.705 183.966C222.616 182.16 223.58 180.388 224.577 178.651L227.69 173.509C228.619 171.995 229.462 170.43 230.322 168.899C231.543 166.99 232.557 164.961 234.277 163.361C234.81 162.863 234.896 163.035 234.931 163.74C234.931 164.221 234.965 164.737 234.965 165.184C234.948 165.752 234.81 166.354 234.57 166.973L233.297 170.155C232.85 171.204 232.282 172.184 231.783 173.199C230.734 175.211 229.651 177.224 228.498 179.184C227.105 181.541 226.022 184.172 224.938 186.718C223.717 189.504 222.548 192.324 221.791 195.162C221.584 196.022 221.378 196.899 221.309 197.708C221.24 198.516 221.292 199.324 221.498 199.737C221.946 200.477 222.909 201.285 224.044 201.578C225.196 201.921 226.538 201.973 227.862 201.784C229.943 201.526 231.921 200.683 233.95 199.892C234.398 199.72 234.828 199.496 235.292 199.342C237.012 198.722 237.82 198.946 238.439 199.961C238.577 200.202 238.749 200.425 238.835 200.666C239.11 201.492 238.663 202.317 237.545 202.988C235.808 203.899 233.882 204.742 231.749 205.361C229.616 205.946 227.26 206.359 224.577 206.066C222.634 205.86 220.26 205 218.661 203.177C218.471 202.953 218.248 202.73 218.059 202.472C217.852 202.145 217.663 201.818 217.491 201.474C217.199 200.769 217.044 200.116 216.975 199.548C216.82 198.378 216.906 197.415 217.027 196.487H217.13L217.147 196.504Z" fill="#231F20"/>
<path d="M217.68 166.01C216.7 170.344 216.511 175.005 218.351 179.15C219.383 181.472 221.602 184.121 224.422 183.914C225.575 183.828 226.572 182.986 226.572 181.764C226.572 180.664 225.592 179.529 224.422 179.615C224.336 179.615 224.268 179.615 224.182 179.615C223.752 179.649 224.474 179.701 224.371 179.649C224.302 179.615 224.199 179.597 224.113 179.58C223.769 179.511 224.096 179.529 224.061 179.58C224.268 179.666 224.285 179.683 224.147 179.615C224.096 179.58 224.027 179.563 223.975 179.529C223.889 179.477 223.803 179.425 223.717 179.374C223.339 179.167 223.872 179.374 223.803 179.46C223.803 179.46 223.562 179.253 223.545 179.236C223.373 179.081 223.218 178.892 223.046 178.72C222.926 178.6 222.771 178.29 223.046 178.755C222.978 178.634 222.892 178.531 222.823 178.428C222.668 178.187 222.513 177.946 222.393 177.688C222.324 177.551 222.255 177.413 222.186 177.293C222.135 177.207 222.1 177.104 222.049 177.018C222.152 177.258 222.169 177.31 222.118 177.155C221.911 176.45 221.653 175.779 221.499 175.057C221.464 174.868 221.43 174.678 221.395 174.489C221.395 174.403 221.292 173.819 221.361 174.266C221.309 173.853 221.275 173.423 221.258 173.01C221.155 170.912 221.378 169.072 221.825 167.094C222.083 165.959 221.481 164.772 220.329 164.445C219.245 164.153 217.938 164.806 217.68 165.941V166.01Z" fill="#231F20"/>
<path d="M241.414 166.01C240.881 169.192 240.537 172.46 240.881 175.676C241.174 178.479 241.862 181.386 243.839 183.484C245.817 185.583 248.793 186.253 251.459 185.531C254.382 184.74 256.653 182.504 258.424 180.148C260.574 177.293 262.105 173.939 263.12 170.516C263.911 167.85 259.766 166.715 258.975 169.381C258.183 172.047 257.186 174.266 255.758 176.484C254.503 178.445 253.024 180.01 251.132 181.094C251.08 181.128 250.753 181.266 251.08 181.128C250.994 181.162 250.891 181.197 250.788 181.231C250.564 181.3 250.341 181.386 250.117 181.438C249.98 181.472 249.859 181.489 249.722 181.524C249.825 181.506 250.117 181.524 249.704 181.524C249.429 181.524 249.171 181.524 248.913 181.524C249.309 181.541 248.707 181.489 248.586 181.455C248.346 181.403 248.105 181.317 247.881 181.231C248.225 181.369 247.606 181.076 247.52 181.025C247.434 180.973 247.365 180.922 247.296 180.87C247.107 180.75 247.503 181.076 247.228 180.801C247.073 180.647 246.918 180.492 246.763 180.337C246.437 179.993 246.763 180.389 246.574 180.079C246.437 179.855 246.299 179.632 246.179 179.391C246.127 179.288 245.852 178.634 245.972 178.961C245.783 178.479 245.628 177.981 245.508 177.482C245.439 177.172 245.37 176.88 245.319 176.57C245.301 176.433 245.198 175.779 245.215 175.934C244.854 173.027 245.095 169.983 245.577 167.163C245.766 166.027 245.267 164.841 244.08 164.514C243.048 164.239 241.638 164.858 241.432 166.01H241.414Z" fill="#231F20"/>
<path d="M257.89 202.627C257.77 203.487 257.615 204.33 257.34 205.155C257.46 204.794 257.34 205.121 257.271 205.293C257.202 205.465 257.082 205.637 256.996 205.809C256.875 206.015 256.72 206.204 256.617 206.411C256.583 206.48 256.978 206.05 256.617 206.394C256.531 206.48 256.445 206.566 256.359 206.652C256.308 206.703 255.878 207.013 256.17 206.824C256.462 206.634 255.998 206.944 255.947 206.978C255.826 207.064 255.706 207.133 255.585 207.202C255.276 207.374 254.966 207.546 254.657 207.701C254.519 207.769 254.364 207.838 254.227 207.89C254.743 207.649 254.175 207.89 254.072 207.941C252.713 208.457 251.303 208.836 249.858 209.077C249.703 209.111 249.548 209.128 249.394 209.145C248.998 209.214 249.858 209.094 249.222 209.163C248.947 209.197 248.671 209.214 248.396 209.231C248.121 209.249 247.811 209.266 247.519 209.249C247.278 209.249 246.418 209.145 247.261 209.249C246.16 209.094 244.905 209.524 244.612 210.745C244.389 211.76 244.922 213.222 246.109 213.394C249.222 213.824 252.61 213.101 255.499 211.932C257.03 211.312 258.612 210.556 259.73 209.3C261.123 207.735 261.743 205.774 262.035 203.745C262.19 202.644 261.76 201.389 260.539 201.096C259.524 200.873 258.062 201.406 257.89 202.593V202.627Z" fill="#231F20"/>
<path d="M89.9071 332.875C88.9955 332.875 88.084 332.875 87.1725 332.841C86.8457 332.841 86.5189 332.858 86.1749 332.841C85.0054 332.737 83.8359 332.565 82.6835 332.376C82.1504 332.307 81.6688 332.239 81.1528 332.17C80.4992 332.049 79.8457 331.895 79.2437 331.585C79.0545 331.499 79.1233 331.379 79.3297 331.258C79.5361 331.138 79.8801 330.983 80.2413 330.983C81.5312 330.897 82.7695 330.983 84.0766 331.103C84.8506 331.189 85.6589 331.052 86.4501 331C87.3272 330.966 88.2044 330.914 89.0815 330.88C89.6147 330.845 90.1651 330.811 90.6982 330.759C91.5238 330.673 92.3493 330.605 93.1405 330.416C93.7597 330.278 94.3444 329.986 94.9292 329.745C95.0668 329.693 95.1872 329.624 95.3076 329.573C95.8063 329.418 95.9955 329.538 96.2363 330.158C96.2879 330.295 96.3567 330.433 96.4083 330.57C96.5631 331.052 96.4599 331.499 96.0987 331.723C95.0496 332.376 93.8457 332.617 92.6245 332.772C91.713 332.875 90.8014 332.927 89.8727 332.978V332.927L89.9071 332.875Z" fill="#231F20"/>
<path d="M319.636 320.457C320.857 320.578 322.079 320.664 323.3 320.836C323.747 320.904 324.177 320.836 324.624 320.922C326.172 321.214 327.754 321.489 329.285 321.781C329.973 321.885 330.661 321.919 331.332 321.936C332.209 321.936 333.086 321.902 333.946 322.229C334.221 322.332 334.169 322.831 333.929 323.364C333.688 323.88 333.258 324.482 332.759 324.585C331.005 324.895 329.268 325.135 327.513 324.895C326.464 324.705 325.364 324.998 324.297 325.067C323.111 325.153 321.924 325.067 320.737 325.067C319.998 325.067 319.275 325.049 318.536 325.067C317.435 325.101 316.317 325.084 315.233 325.29C314.391 325.445 313.6 325.858 312.791 326.167C312.619 326.236 312.447 326.339 312.258 326.391C311.587 326.546 311.329 326.253 310.985 325.015C310.916 324.74 310.83 324.447 310.762 324.172C310.555 323.209 310.727 322.366 311.209 321.988C312.619 320.904 314.236 320.44 315.887 320.388C317.108 320.302 318.346 320.354 319.585 320.371V320.492L319.636 320.457Z" fill="#231F20"/>
</g>
<path d="M439.113 401.569C437.155 393.707 434.374 385.948 431.231 378.344C428.072 370.74 424.518 363.291 420.654 355.997C417.872 350.646 414.713 345.503 411.657 340.324C400.701 322.123 388.046 304.885 373.451 289.419C366.961 282.572 359.989 276.121 352.709 270.289C350.339 268.466 348.021 266.539 345.531 264.853C343.093 263.098 340.655 261.343 338.113 259.743C333.185 256.303 327.931 253.464 323.003 249.937C321.526 248.733 320.908 248.131 321.011 248.028C321.131 247.907 322.007 248.2 323.655 248.492C324.497 248.596 325.458 248.871 326.592 249.094C326.883 249.146 327.158 249.232 327.484 249.266C327.776 249.352 328.068 249.438 328.377 249.542C328.996 249.714 329.631 249.955 330.283 250.213C331.588 250.729 332.996 251.314 334.456 252.002C335.194 252.346 335.933 252.707 336.705 253.068C337.444 253.498 338.165 253.963 338.92 254.445C360.126 268.018 378.259 285.841 393.404 305.866C397.988 311.835 402.453 318.046 406.866 324.36C411.193 330.725 415.4 337.245 419.263 343.886C427.66 358.526 435.112 373.768 440.607 389.819C442.29 394.756 443.766 399.797 444.797 404.958C445.106 406.231 445.277 407.556 445.483 408.863C445.724 410.17 445.81 411.512 445.913 412.854C446.084 414.179 445.947 415.572 445.964 416.949C445.775 418.342 445.707 419.787 445.209 421.129C443.972 425.275 441.345 428.785 438.323 431.537C435.284 434.307 431.867 436.526 428.347 438.419C421.272 442.169 413.82 444.835 406.385 447.175C394.795 450.771 383.273 453.678 371.631 456.327C369.073 456.912 366.566 457.48 363.99 458.065C354.409 460.095 351.369 460.439 348.983 459.51C348.45 459.304 347.746 459.132 347.403 458.873C346.201 458.031 349.91 456.069 356.898 454.297C367.252 451.631 377.898 449.308 388.562 446.573C399.19 443.838 409.922 440.827 419.881 436.475C423.556 434.84 427.128 433.051 430.39 430.918C433.635 428.802 436.537 426.29 438.46 423.366C439.508 421.938 440.075 420.355 440.572 418.755C440.658 417.912 440.899 417.155 440.899 416.226C440.899 415.297 441.019 414.403 440.899 413.422C440.744 409.586 439.972 405.56 438.976 401.62L439.096 401.569H439.113Z" fill="#231F20"/>
</svg>
