<svg width="520" height="520" viewBox="0 0 520 520" fill="none" xmlns="http://www.w3.org/2000/svg">
<g clip-path="url(#clip0_432_126)">
<rect width="520" height="520" fill="white"/>
<circle cx="260" cy="260" r="249" fill="#EBF7F0"/>
<mask id="mask0_432_126" style="mask-type:alpha" maskUnits="userSpaceOnUse" x="11" y="11" width="498" height="498">
<circle cx="260" cy="260" r="249" fill="#EBF7F0"/>
</mask>
<g mask="url(#mask0_432_126)">
</g>
<path d="M450.334 34.033C450.785 34.7433 451.325 35.5153 451.559 36.3299C452.211 38.5929 451.241 42.2137 450.37 44.293C449.3 46.8315 448.408 48.4373 445.785 49.4308C444.979 45.7233 445.058 38.9227 447.114 35.6809C447.859 34.4976 449.07 34.3331 450.334 34.033Z" fill="#231F20"/>
<path d="M484.656 62.2318C484.552 62.4328 484.476 62.6546 484.347 62.8402C482.484 65.6048 468.471 69.9465 465.138 70.4707C463.442 70.7382 462.826 69.9682 461.572 68.9879C462.064 67.8519 462.685 66.9674 463.694 66.2513C468.291 63.0049 479.142 61.3555 484.656 62.2318Z" fill="#231F20"/>
<path d="M476.821 33.08C476.98 33.5271 477.091 33.7862 477.167 34.2813C477.491 36.4049 475.822 38.2169 474.527 39.8001C471.528 43.4778 460.679 55.9049 456.604 56.4864C457.299 51.0331 467.959 38.1022 472.373 34.3549C473.906 33.0587 474.899 32.9433 476.821 33.08Z" fill="#231F20"/>
<path d="M347.415 189.952L348.528 190.141C349.015 190.493 349.335 190.787 349.651 191.295C349.748 191.453 349.846 191.613 349.943 191.772C350.482 191.2 350.962 190.732 351.633 190.304L352.158 190.498L352.513 191.419C352.433 192.677 351.692 193.775 351.112 194.87C351.842 194.552 352.822 194.016 353.608 193.972C354.203 193.938 354.331 194.084 354.731 194.457C354.676 194.739 354.665 194.889 354.512 195.159C353.977 196.097 352.534 196.497 351.584 196.877C351.675 196.922 351.765 196.969 351.856 197.013C352.45 197.3 353.24 197.593 353.768 197.992C354.366 198.443 354.474 198.905 354.544 199.609C354.258 200.01 354.269 200.152 353.754 200.289C352.436 200.638 351.39 199.861 350.287 199.241C350.235 199.625 350.225 199.457 350.308 199.851C350.36 200.111 350.427 200.369 350.472 200.631C350.614 201.436 350.614 202.059 350.124 202.723C349.154 202.633 348.215 201.631 347.474 201.033C347.349 201.114 347.227 201.207 347.095 201.275C346.466 201.593 346.302 201.516 345.666 201.319C345.2 200.522 345.318 200.335 345.541 199.427L345.645 199.01C345.03 198.942 345.273 198.948 344.665 198.959L344.244 198.971L343.82 198.427C343.785 197.742 343.66 197.822 344.143 197.261C344.804 197.047 345.273 196.963 345.777 196.461C345.353 196.01 344.779 195.501 344.453 194.977C344.035 194.302 344.129 194.101 344.345 193.412C345.892 192.207 345.802 193.946 347.12 194.083C347.116 192.66 347.179 191.362 347.415 189.952Z" fill="#231F20"/>
<path d="M331.749 95.7871C332.118 95.8751 332.429 96.0145 332.777 96.1648C333.291 98.6039 330.949 100.209 332.138 103.393C332.36 103.987 332.367 104.249 332.949 104.527C333.857 102.463 334.845 100.374 337.101 99.5063C337.932 99.1864 338.809 99.1311 339.608 99.5932C340.408 100.054 340.846 100.863 340.975 101.75C341.166 103.045 340.697 104.329 339.901 105.34C338.551 107.056 336.858 107.606 334.768 107.866C335.126 109.328 335.582 110.718 336.083 112.135C337.477 114.87 339.817 115.473 341.559 117.63L340.94 117.826C339.643 117.632 338.294 117.21 337.199 116.471C334.052 114.34 333.201 110.615 332.547 107.129C331.282 106.096 330.592 105.086 330.142 103.502C329.336 100.669 330.339 98.2207 331.749 95.7871ZM337.752 101.319C336.639 102.26 335.467 103.41 335.311 104.933L335.63 105.453L336.761 105.413C337.939 104.526 339.042 103.664 339.344 102.147L339.118 101.606C338.614 101.401 338.298 101.292 337.752 101.319Z" fill="#231F20"/>
<path d="M170.026 217.073C170.406 217.067 170.786 217.053 171.164 217.109C172.592 217.321 173.617 218.225 174.419 219.372C176.345 222.131 177.475 226.435 176.802 229.73C175.963 233.832 173.707 236.82 170.285 239.083C170.96 236.78 172.249 234.662 173.369 232.55C174.218 230.34 174.491 228.232 174.692 225.893C173.502 227.042 172.367 228.163 170.7 228.559C169.696 228.797 168.743 228.689 167.873 228.096C167.114 227.58 166.661 226.597 166.567 225.708C166.551 225.557 166.543 225.406 166.543 225.254C166.543 225.102 166.551 224.951 166.568 224.799C166.584 224.649 166.609 224.499 166.641 224.351C166.674 224.202 166.715 224.056 166.763 223.912C166.812 223.769 166.868 223.628 166.932 223.49C166.996 223.352 167.067 223.218 167.145 223.088C167.224 222.958 167.309 222.833 167.401 222.712C167.493 222.591 167.591 222.476 167.696 222.366C168.8 221.191 170.152 221.008 171.69 220.933L172.084 220.917L172.272 220.588C171.132 219.201 168.895 220.055 167.258 219.656L167.119 219.166C167.862 217.79 168.564 217.514 170.026 217.073ZM170.136 223.547C169.449 224.196 168.941 224.61 168.716 225.574L168.979 226.157C169.777 226.454 170.165 226.32 170.962 226.127C171.604 225.559 172.308 225.092 172.512 224.218C171.922 223.59 171.354 223.578 170.513 223.55C170.387 223.546 170.262 223.548 170.136 223.547Z" fill="#231F20"/>
<path d="M143.311 93.9736C143.975 94.0783 144.677 94.1562 145.223 94.586C146.392 95.5062 146.591 97.4546 146.897 98.8199C147.387 98.0701 147.867 97.2428 148.434 96.5501C148.968 95.8974 149.216 95.7172 150.047 95.6275L150.467 95.9833C150.588 97.1541 149.888 98.2349 149.561 99.3401C150.012 99.3783 149.837 99.4148 150.262 99.2441C150.998 98.9475 151.843 98.4836 152.656 98.4582C153.323 98.437 153.778 98.6599 154.256 99.0904C154.352 99.5637 154.514 99.8475 154.305 100.312C153.666 101.727 151.097 102.374 149.739 102.917C151.405 103.804 154.772 105.718 155.423 107.553C155.651 108.197 155.654 108.306 155.323 108.881C152.006 110.976 151.09 106.826 148.401 106.64C148.095 107.521 148.357 108.206 148.513 109.116C148.561 109.425 148.62 109.733 148.642 110.044C148.714 111.033 148.471 111.706 147.86 112.442C147.049 112.521 146.886 112.533 146.186 112.03C144.715 110.973 144.642 109.094 144.404 107.466C144.059 108.028 143.711 108.587 143.358 109.144C143.167 109.451 142.985 109.773 142.767 110.061C142.248 110.741 141.658 110.966 140.84 111.043L140.403 110.573C140.111 108.61 141.27 107.345 142.309 105.809C141.294 105.996 139.988 106.349 138.999 105.907C138.357 105.619 138.329 105.515 138.077 104.903C138.19 104.589 138.237 104.406 138.44 104.116C139.114 103.151 140.784 102.891 141.857 102.59C141.443 102.267 141.033 101.938 140.627 101.605C139.582 100.731 139.154 100.152 139.045 98.7806C139.274 98.4001 139.255 98.2308 139.718 98.1045C140.974 97.7634 142.171 98.6783 143.225 99.2685C142.792 97.2825 142.161 95.8452 143.311 93.9736Z" fill="#231F20"/>
<path d="M429.645 151.503C430.34 151.096 430.435 150.914 431.22 151.039C433.568 153.66 433.052 202.963 432.666 209.761C431.975 222.024 430.596 234.252 429.757 246.502C429.098 256.106 429.529 266.278 427.47 275.705C426.498 280.144 424.414 286.042 421.035 289.269C420.719 289.571 420.375 289.777 420 290C420.435 287.383 421.6 284.957 422.459 282.462C423.033 280.819 423.514 279.151 423.905 277.457C424.298 275.762 424.597 274.052 424.803 272.326C425.842 264.268 425.849 256.064 426.382 247.96C427.115 236.895 428 226.362 428.298 215.22C428.501 207.593 428.157 199.951 428.396 192.322C428.621 185.088 429.301 177.879 429.512 170.654C429.698 164.274 429.252 157.873 429.645 151.503Z" fill="#231F20"/>
<path d="M396.914 59.8065C397.315 56.2644 396.994 52.5214 397.043 48.9473C397.158 40.3438 396.691 28.4421 400.885 20.9893C401.477 19.9365 401.834 18.2222 403.123 18.0146C404.111 17.8556 405.088 19.0062 406.203 20.9894C408.781 27.9304 409.674 44.0318 411.531 49.6928L414.146 51.2859C416.173 51.2681 418.259 51.1482 420.276 51.3013C424.463 53.9223 438.731 74.8376 439.828 79.5883C441.281 85.8901 433.095 103.64 431.409 110.194C429.953 115.86 428.769 124.114 427.842 130.059C427.184 134.264 426.724 138.549 427.511 142.753C427.706 143.803 428.385 145.796 427.748 146.672C427.448 147.083 427.166 147.33 426.769 147.637C419.423 150.327 411.094 150.068 403.438 149.153C402.327 149.02 401.494 149.228 400.428 149.546C400.282 156.144 399.244 162.543 398.857 169.11C398.655 172.549 398.708 176.025 398.443 179.451C398.157 183.123 397.614 186.764 397.37 190.452C396.255 207.252 395.364 220.103 391.372 236.63C389.794 243.169 387.815 249.976 384.757 255.99C381.939 261.524 376.16 267.627 371.653 271.954C368.911 274.584 365.999 277.121 363.052 279.515C357.674 283.891 351.989 287.864 346.419 291.989C344.316 293.547 342.389 295.464 340.202 296.885C339.373 297.424 338.579 297.865 337.593 298L337.349 297.674C338.822 293.482 343.87 289.666 347.21 286.896C343.946 287.393 329.818 289.094 327.648 287.253C327.592 287.207 327.049 286.637 327 286.586C327.411 286.222 327.669 285.955 328.216 285.812C330.765 285.14 336.37 285.415 339.244 285.267C343.082 285.069 346.872 284.641 350.701 284.306C353.909 281.869 357.162 279.461 360.276 276.903C366.773 271.562 377.48 262.035 381.566 254.701C390.369 238.902 392.162 202.776 393.789 184.048L397.415 145.281C397.931 144.502 398.572 143.865 399.216 143.195C405.625 138.718 416.215 141.135 423.338 142.274C423.488 135.491 424.756 128.903 425.836 122.236C426.609 117.472 427.198 112.509 428.532 107.863C431.395 97.8867 435.15 90.5954 435.972 79.9189C432.29 73.8212 423.885 58.2745 417.935 55.1159C416.277 54.2348 413.801 54.204 411.941 53.6126L411.575 53.4928L409.492 55.5731C410.157 56.2403 410.83 56.9548 411.3 57.7779C416.448 66.7826 397.955 69.9282 396.168 79.9451C395.994 80.9241 396.436 82.2565 397.088 83.0143C397.952 84.0198 399.429 83.9688 400.637 84.0566L400.724 83.5602C401.494 79.366 404.504 72.0446 408.046 69.6168C408.767 69.4917 408.781 69.4854 409.429 69.83C409.638 70.1886 409.868 70.3158 409.715 70.7405C409.238 72.0907 407.987 73.4046 407.203 74.624C405.403 77.4314 403.396 81.978 403.25 85.311C403.191 86.6364 403.421 87.5706 404.291 88.5657C405.068 88.9243 405.382 89.0211 406.263 88.8988C407.743 87.8922 409.868 78.3076 410.767 75.925C411.516 73.9446 412.435 72.0736 413.449 70.2166C414.428 68.4169 416.009 64.6341 418.103 64.0252C418.813 64.2604 418.792 64.2356 419.165 64.8857C419.088 66.6053 415.407 72.5797 414.431 74.6649C412.899 77.9431 411.885 81.3554 410.976 84.8478C410.589 86.3441 410.321 87.9834 409.781 89.4252C409.506 90.1574 408.729 90.7282 408.032 91.0344C401.585 93.8641 401.459 86.1019 399.885 85.7849C398.551 85.5161 397.248 86.11 395.869 85.4969C395.015 85.1191 394.472 84.4753 394.165 83.6053C393.622 82.0734 393.8 80.0853 394.127 78.5264C396.241 68.4159 406.5 66.2827 409.091 60.3828C408.959 59.9211 409.032 59.7583 408.531 59.509C407.649 59.0697 406.312 59.2074 405.389 59.4129C403.487 59.8369 395.653 63.9375 393.876 65.2233C393.565 65.4475 393.267 65.6863 392.981 65.9399C392.693 66.1934 392.418 66.4603 392.155 66.7406C391.895 67.0209 391.648 67.3134 391.413 67.6179C391.181 67.9225 390.964 68.2376 390.762 68.5634C388.526 72.0977 386.802 76.1881 387.24 80.4509C387.857 86.4445 392.95 93.3961 395.28 99.1838C397.99 105.927 400.042 113.178 401.543 120.277L398.192 120.738C397.001 117.983 395.966 112.424 394.747 109.034C392.918 103.951 391.055 98.85 389.024 93.8466C387.571 90.2717 385.603 86.6318 384.75 82.8643C384.659 82.4731 384.58 82.0797 384.513 81.684C384.443 81.2883 384.386 80.8909 384.342 80.4918C384.296 80.0929 384.262 79.6929 384.241 79.2919C384.218 78.8909 384.208 78.4896 384.21 78.0881C384.21 77.6864 384.222 77.2852 384.245 76.8844C384.27 76.4834 384.306 76.0835 384.353 75.6848C384.399 75.2859 384.457 74.8887 384.527 74.4933C384.597 74.0979 384.678 73.7048 384.771 73.314C386.279 67.0678 391.487 63.0762 396.914 59.8065Z" fill="#231F20"/>
<path d="M408 51.5C408 51.5 407.952 51.4775 407.795 51.4873C406.657 51.5581 406.614 53.3734 405.757 54.5145C403.385 54.4955 401.576 58.0393 400 57.9997C400.293 57.4367 400.367 57.1084 400.415 56.3453C400.527 54.5421 400.477 52.6032 400.538 50.7785C400.83 42.0281 400.953 32.0738 402.57 23.7283C402.754 22.7782 403.231 20.5736 403.638 21.0725L403.871 21.2889C405.716 24.0667 406.183 37.8431 406.48 42.4619C406.62 44.6323 406.535 46.9442 406.933 49C407.062 49.6634 407.129 50.21 407.467 50.5C407.717 50.715 407.795 50.9815 407.795 50.9815L407.88 51.1865L408 51.5Z" fill="#B5B9B8"/>
<path d="M409.411 55.0872L411.503 53L411.87 53.1203C413.738 53.7136 416.225 53.7445 417.89 54.6286C423.863 57.7976 432.303 73.3958 436 79.5138C435.175 90.2256 431.404 97.5411 428.529 107.551C427.19 112.212 426.599 117.191 425.822 121.972C424.738 128.66 423.465 135.27 423.314 142.075C416.162 140.933 405.529 138.507 399.094 143C399.499 135.561 399.58 127.808 398.065 120.469L401.43 120.006C399.923 112.883 397.862 105.608 395.141 98.8425C392.801 93.0356 387.688 86.061 387.069 80.0475C386.628 75.7706 388.36 71.6666 390.605 68.1206C390.808 67.7937 391.026 67.4775 391.259 67.172C391.494 66.8664 391.743 66.573 392.004 66.2918C392.267 66.0105 392.544 65.7427 392.833 65.4884C393.12 65.234 393.419 64.9944 393.732 64.7695C395.516 63.4793 403.382 59.3652 405.291 58.9398C406.218 58.7336 407.561 58.5954 408.446 59.0362C408.95 59.2863 408.876 59.4497 409.009 59.9129C406.407 65.8324 396.107 67.9726 393.984 78.1167C393.655 79.6807 393.476 81.6754 394.022 83.2124C394.33 84.0852 394.875 84.7312 395.732 85.1103C397.117 85.7254 398.426 85.1296 399.765 85.3992C401.346 85.7173 401.472 93.5052 407.946 90.6661C408.645 90.3589 409.425 89.7862 409.702 89.0515C410.244 87.605 410.513 85.9603 410.901 84.4591C411.814 80.9551 412.832 77.5314 414.371 74.2424C415.35 72.1502 419.047 66.1561 419.124 64.4307C418.75 63.7785 418.771 63.8034 418.057 63.5674C415.955 64.1782 414.367 67.9736 413.385 69.7793C412.367 71.6424 411.444 73.5196 410.692 75.5066C409.789 77.8972 407.656 87.5135 406.169 88.5234C405.284 88.6462 404.97 88.549 404.19 88.1892C403.315 87.1909 403.084 86.2535 403.144 84.9237C403.291 81.5796 405.305 77.018 407.114 74.2014C407.9 72.9778 409.156 71.6596 409.635 70.3049C409.789 69.8789 409.558 69.7512 409.348 69.3914C408.698 69.0457 408.684 69.052 407.96 69.1775C404.403 71.6133 401.381 78.959 400.608 83.1672L400.521 83.6651C399.307 83.5771 397.824 83.6283 396.957 82.6194C396.303 81.8591 395.858 80.5223 396.033 79.5401C397.827 69.49 416.396 66.3339 411.227 57.2993C410.755 56.4735 410.079 55.7567 409.411 55.0872Z" fill="#B5B9B8"/>
<path d="M435.842 79.004C436.592 78.9668 437.166 79.192 437.839 79.5326C437.993 80.0251 438.063 79.938 437.929 80.3478C436.812 83.8394 431.7 87.6442 428.742 89C428.279 88.9505 427.889 88.7916 427.449 88.6365C426.965 87.9564 426.955 88.0172 427.042 87.1684C428.039 85.5165 434.051 80.5401 435.842 79.004Z" fill="#231F20"/>
<path d="M428.225 74L428.943 74.6232C429 74.9673 429.023 74.99 428.97 75.3936C428.527 78.6298 419.973 89.0292 416.946 91L416.05 90.2602L416 89.6951C417.898 87.11 420.165 84.7638 422.123 82.2097C424.168 79.5449 425.898 76.3974 428.225 74Z" fill="#231F20"/>
<path d="M401.266 150.817C402.332 150.514 403.165 150.316 404.276 150.442C411.934 151.313 420.265 151.56 427.613 149C427.885 150.373 427.993 151.602 428 152.994C427.61 159.064 428.052 165.164 427.868 171.244C427.659 178.129 426.983 184.999 426.76 191.892C426.523 199.163 426.864 206.444 426.662 213.713C426.366 224.33 425.488 234.367 424.76 244.912C424.23 252.635 424.223 260.452 423.192 268.131C422.987 269.776 422.69 271.406 422.3 273.02C421.912 274.635 421.433 276.225 420.864 277.79C420.011 280.168 419.5 282.888 418.422 284.973C418 286.398 416 289.407 414 293.419C413 294.923 411 297.932 410.5 298.935C408.128 303.518 401.91 308.703 398.771 312.27C390.702 321.55 382.455 330.684 374.03 339.67C368.999 345.08 363.762 350.27 358.974 355.888C358.023 358.38 356.741 360.762 355.975 363.314C354.323 365.094 349.205 368.487 349.093 370.729C349.557 371.198 349.773 371.348 350.511 371.351C351.717 371.361 352.922 370.5 353.898 369.908C353.647 379.582 353.156 389.373 354.065 399.024C354.637 405.102 355.797 411.047 357.009 417.035C357.421 419.054 357.64 421.127 358.145 423.123C359.069 426.792 360.375 430.359 361.288 434.051L369.152 466.98C371.329 475.896 374.629 484.382 375.977 493.511C368.089 493.664 358.772 493.398 351.083 494C351.578 491.498 352.368 489.033 352.912 486.538C355.002 476.924 356.048 467.725 354.658 457.958C354.02 453.476 351.713 449.241 351.602 444.72C351.421 437.168 353.48 429.593 351.936 422.072C349.759 411.449 345.174 402.726 344.191 391.332C343.438 382.586 344.459 373.787 343.707 365.074C342.766 354.195 340.062 343.636 339.083 332.737C338.466 325.898 339.331 318.468 337.777 311.811C335.289 301.14 329.01 291.495 325 281.271C325.92 281.271 326.906 281.341 327.819 281.254C327.868 281.302 328.411 281.845 328.467 281.888C330.637 283.641 329.235 287.373 332.5 286.9C330.498 288.479 342 287.401 346.5 286.9C347.529 286.917 348.715 286.682 348.5 286.9C348.108 287.296 346 288.906 345 289.908L338.17 297.43C339.156 297.301 339.671 297.943 340.5 297.43C342.688 296.078 348.896 290.89 351 289.407C356.571 285.481 360.62 281.954 366 277.79C368.948 275.511 375.258 269.345 378 266.842C382.509 262.723 383.681 259.572 386.5 254.305C389.559 248.581 390.922 242.476 392.5 236.253C396.493 220.522 397.092 205.742 398.207 189.751C398.45 186.241 398.994 182.776 399.28 179.281C399.545 176.019 399.492 172.711 399.694 169.438C400.081 163.188 401.119 157.097 401.266 150.817Z" fill="white"/>
<path d="M393.169 257.435C393.305 257.446 393.44 257.451 393.576 257.467C394.622 257.592 394.984 257.801 395.603 258.602C396.278 261.524 389.372 272.35 387.713 275.164C387.15 275.205 386.788 275.148 386.242 275.041C385.759 274.553 385.519 274.416 385.568 273.665C385.644 272.542 392.397 258.248 393.169 257.435Z" fill="#231F20"/>
<path d="M407.477 307C407.866 307.884 407.894 308.501 407.574 309.399C406.041 313.739 399.629 320.207 396.496 323.936C388.443 333.637 380.212 343.184 371.804 352.578C366.783 358.232 361.557 363.657 356.779 369.53C355.068 370.925 352.763 375.275 350.624 375.585L350.103 375.126C349.887 374.302 350.026 373.78 350.374 373.025C352.634 368.105 365.649 355.005 369.787 350.31C375.514 343.818 381.054 337.134 386.68 330.553C392.191 324.109 397.139 317.194 402.838 310.9C404.187 309.412 405.564 307.743 407.477 307Z" fill="#231F20"/>
<path d="M217.405 69.7746C215.595 68.9949 213.715 68.0778 212.902 66.1956C212.754 63.6847 215.541 62.4684 216.524 60.4101C217.395 58.5874 216.888 56.8168 218.301 55.04C220.253 52.5837 222.263 51.4272 225.446 51.1284C233.145 50.405 239.55 45.6156 247.524 46.0247C249.32 46.1166 251.688 46.2446 252.918 47.7115C253.457 48.3527 253.798 49.3846 253.636 50.2123C253.41 51.3601 252.36 52.0716 251.49 52.7437L251.16 52.9949L251.2 53.6862C251.684 54.5258 252.057 55.0268 252.846 55.6095C253.954 55.0369 255.013 54.4962 256.279 54.3723C256.291 54.3709 263.792 55.5772 263.944 55.6193C264.689 55.8252 265.383 56.2246 265.695 56.9525C266.345 58.4645 265.622 60.5854 265.159 62.0804C269.342 61.9663 273.156 60.5921 277.337 61.7242C280.674 62.6274 283.618 64.6404 285.273 67.6642C287.071 70.9471 286.799 73.9396 285.712 77.3464C285.927 78.0283 286.135 78.7627 286.439 79.414C287.084 80.7942 289.216 85.3777 290.05 86.3341C290.399 86.7339 291.733 86.8261 292.245 87.1381C294.727 88.6509 295.546 95.1931 296.142 97.8777L294.589 101.856C295.599 107.033 296.241 112.641 294.526 117.691C296.556 118.472 298.661 118.946 300.743 119.565C302.848 120.191 304.865 121.269 305.875 123.278C306.877 125.271 306.591 127.323 305.883 129.334C309.026 132.938 312.46 136.281 315.593 139.869C317.231 141.743 318.671 143.952 319.538 146.276C320.366 148.497 320.251 151.012 320.798 153.31C322.24 159.364 325.714 165.224 325.059 171.643C324.912 173.085 324.545 174.49 323.78 175.741C322.07 178.536 318.966 180.152 317.103 182.796C314.323 186.74 315.089 191.306 310.907 194.601C310.52 199.358 310.449 207.162 311.23 211.808C311.857 215.543 314.756 218.774 316.371 222.165C317.725 225.005 318.608 228.2 319.355 231.239C321.188 238.686 321.22 246.52 321.9 254.12C322.625 262.227 324.397 269.924 327.135 277.596C331.221 288.289 337.619 298.375 340.154 309.535C341.738 316.497 340.857 324.267 341.485 331.42C342.483 342.818 345.238 353.861 346.197 365.238C346.964 374.35 345.923 383.552 346.69 392.699C347.692 404.615 352.364 413.737 354.583 424.846C356.156 432.713 354.057 440.635 354.242 448.533C354.356 453.261 356.706 457.69 357.356 462.376C358.772 472.591 357.707 482.211 355.577 492.266C355.023 494.875 354.217 497.453 353.713 500.07C353.305 500.675 353.195 501.068 352.481 501.346C351.924 500.943 351.874 500.751 351.59 500.118L347.464 500.181C347.535 503.18 349.211 510.984 348.231 513.381C347.954 514.056 347.66 514.198 347.035 514.449C346.864 514.365 346.676 514.31 346.516 514.202C344.773 513.054 343.481 502.731 343.051 500.181C340.204 500.237 337.328 500.212 334.484 500.414C334.402 506.269 334.484 500.414 334.99 506.496C335.501 508.997 336.658 510.143 335.501 512.499C334.936 512.788 333.616 510.675 332.948 510.498C331.417 505.996 331.967 507.435 331.417 504.495C330.973 502.129 330.906 501.994 330.412 500.72C330.359 500.609 330.238 499.264 330.238 500.386L327.511 500.529C327.575 502.797 329.375 507.496 327.843 509.998H326.822C325.801 509.619 325.098 505.062 324.814 500.459L323.956 500.271C323.218 505.219 322.227 512.296 322.738 515L321.717 514C318.356 509.296 320.895 506.266 320.666 500.56L317.191 500.675C317.663 505.789 318.143 503.995 318.143 508.997C317.721 510.834 319.236 511.514 317.633 512.499L317.122 512.999C316.134 510.999 315.326 510.762 315.591 508.497C315.08 503.995 315.462 505.198 314.28 500.675L311.753 500.804C311.455 505.111 311.829 507.981 308.954 510.977C307.223 509.105 309.271 504.631 307.992 501.437C307.749 500.828 307.575 499.737 307 499.5C305.578 501.368 306.532 498.121 305.5 500.118C304.622 501.82 306.189 500.024 304.727 501.346C306.123 497.721 302.993 504.624 304.027 500.866L225.221 502.268C211.596 502.515 197.855 503.156 184.237 502.992C183.667 505.062 183.593 508.416 182.157 510.037C181.62 510.643 180.93 511.001 180.096 510.977C179.423 510.952 178.711 510.709 178.276 510.18C176.886 508.489 178.136 504.92 178.564 503.076C172.261 503.382 165.928 503.333 159.617 503.493L122.613 479.483C121.592 478.983 122.613 479.483 121.592 478.983C121.082 478.482 121.592 478.983 121.081 478.482C120.571 478.482 122.605 471.886 123.124 468.978C124.933 458.829 124.112 465.177 125.17 454.934C126.225 444.716 127.865 434.386 128.364 424.13C128.914 412.826 128.359 401.452 128.867 390.131C129.291 380.685 130.705 371.295 131.961 361.929C134.547 342.644 136.512 320.179 149.959 304.787C158.704 294.778 171.986 291.775 183.405 285.694C190.746 281.785 197.036 276.599 202.61 270.553C202.746 265.737 203.795 261.163 206.726 257.211C210.141 252.607 215.469 250.509 221.04 249.6C221.724 246.845 222.68 244.401 224.023 241.889C223.137 239.226 222.308 236.546 221.536 233.848C221.053 234.445 220.534 235.009 219.978 235.541C219.863 235.649 219.746 235.754 219.627 235.856C219.507 235.958 219.385 236.057 219.26 236.153C219.135 236.25 219.008 236.343 218.879 236.433C218.75 236.523 218.618 236.609 218.484 236.693C218.351 236.777 218.215 236.857 218.077 236.935C217.939 237.012 217.8 237.085 217.658 237.156C217.517 237.226 217.374 237.293 217.229 237.357C217.084 237.42 216.938 237.48 216.79 237.536C216.642 237.593 216.493 237.646 216.342 237.695C216.192 237.744 216.04 237.79 215.887 237.831C215.734 237.873 215.581 237.911 215.426 237.946C215.271 237.98 215.115 238.011 214.959 238.038C214.803 238.064 214.646 238.088 214.489 238.107C214.331 238.126 214.173 238.141 214.015 238.153C213.857 238.165 213.699 238.173 213.54 238.177C213.381 238.181 213.223 238.181 213.064 238.177C210.037 238.105 207.107 236.634 205.121 234.421C203.136 232.207 202.066 229.306 202.356 226.352C202.652 223.353 204.163 221.209 206.439 219.297C205.934 218.23 205.45 217.158 205.038 216.052C203.062 210.73 202.154 203.825 204.782 198.55C205.962 196.18 207.715 194.665 210.226 193.779C209.48 188.021 207.395 182.967 205.698 177.482C204.141 172.45 203.024 166.08 205.674 161.23C205.284 160.543 204.906 159.85 204.541 159.151C203.364 156.88 201.727 152.525 202.54 150.057C203.382 149.316 203.854 149.312 204.943 149.082C204.952 147.027 204.728 144.122 205.742 142.256C206.149 141.507 206.592 141.315 207.377 141.08C207.839 140.942 208.306 140.835 208.714 140.569C209.009 140.376 209.392 140.092 209.476 139.721C209.977 137.516 209.016 135.093 209.698 132.695C210.518 129.809 212.752 129.818 215.103 128.559C215.805 127.265 215.273 125.408 215.57 123.948C216.03 121.688 217.391 120.695 219.211 119.472C218.244 119.161 217.256 118.855 216.33 118.439C208.657 114.986 214.151 112.464 212.088 109.982C211.174 108.882 209.154 109.032 208.747 107.269C208.316 105.401 210.23 103.131 211.379 101.794C211.152 100.964 210.937 99.6774 211.146 98.8344C212.163 94.7207 218.373 90.5317 219.328 85.1254C219.495 84.1798 219.162 83.771 218.609 83.0529C218.047 82.323 217.509 81.6484 217.336 80.7257C216.87 78.2412 218.751 75.6642 220.035 73.6776C218.682 72.5455 218.085 71.359 217.405 69.7746ZM213.22 152.417L214.995 153.772C217.3 149.179 219.947 143.872 221.173 138.899L222.889 137.16C223.757 134.833 226.935 132.987 228.926 131.509C229.271 131.251 229.73 131.058 230.113 130.85C232.902 129.463 235.75 128.202 238.655 127.066C241.561 125.931 244.512 124.926 247.51 124.051L248.929 123.329C252.75 122.012 256.613 120.667 260.539 119.683L274.069 116.319C278.674 115.218 288.503 113.918 290.814 109.092C291.122 108.448 291.228 107.652 290.931 106.983C290.655 106.359 290.068 105.907 289.392 105.756C286.357 105.081 277.742 110.403 274.678 111.846C266.169 115.851 256.597 118.405 247.565 121.119C240.735 123.172 233.658 124.407 227.797 128.713C219.949 134.478 217.743 144.351 213.22 152.417ZM256.195 56.0441C255.279 56.3168 254.416 56.4675 253.771 57.2124C253.6 57.7889 253.553 58.2561 253.528 58.8469C253.368 62.6521 245.495 69.0266 242.636 71.5476C238.011 75.627 232.131 78.6326 228.399 83.5925C225.855 86.9725 224.51 91.2251 221.741 94.3877C221.511 94.6504 221.293 94.9252 221.066 95.1907L221.226 95.5671L221.61 95.5191C222.044 95.4683 222.471 95.4402 222.908 95.42C223.778 95.4649 224.162 95.5644 224.822 94.9607C226.444 93.4772 227.854 91.3699 229.19 89.6278C231.684 86.3752 234.166 83.0651 237.039 80.1179C240.731 76.3322 245.423 72.9911 250.008 70.3365C252.286 69.0172 254.816 67.8538 256.938 66.3181C257.518 62.89 257.394 59.9307 258.732 56.6101C257.886 56.2587 257.095 56.1582 256.195 56.0441ZM242.931 48.3036C239.155 50.6086 238.93 53.5794 236.484 56.7785C231.294 63.5657 223.689 69.6636 221.71 78.3393C221.136 80.8582 221.211 83.5386 220.485 86.0158C219.568 89.1481 217.776 91.9725 216.739 95.0536C216.232 96.5632 216.025 98.1964 215.761 99.7627C217.082 97.6428 218.346 95.5685 220.057 93.7176C221.969 91.4047 221.608 85.5833 222.212 82.5961C223.068 78.371 224.723 74.2882 227.404 70.857C229.547 68.114 240.424 56.003 243.135 54.6242C245.4 53.4719 251.284 52.4414 251.929 49.8919C251.282 48.9699 250.416 48.8063 249.332 48.5959C247.184 48.1791 245.107 48.1533 242.931 48.3036ZM249.32 96.1757C245.553 96.9136 242.558 97.9744 239.108 99.6249C251.164 99.2071 263.211 99.3838 274.236 104.71L278.276 106.609L282.538 104.038C276.043 100.284 262.825 96.9494 255.226 96.1812C253.269 95.9836 251.282 96.0991 249.32 96.1757ZM277.062 68.1499C264.134 69.3707 261.949 73.0663 252.252 80.0859C248.292 82.952 244.081 85.5109 240.488 88.8363L240.675 89.0573L241.556 88.7904C253.62 85.3391 257.831 79.0365 268.132 73.5815C271.259 71.9251 275.281 71.6523 278.169 69.7938C278.276 69.3707 278.398 69.3008 278.161 68.8923C277.913 68.4647 277.718 68.3569 277.296 68.1252L277.062 68.1499ZM207.861 221.888C206.299 223.49 205.328 225.03 205.347 227.313C205.365 229.544 206.452 231.684 208.124 233.175C209.821 234.688 212.05 235.505 214.349 235.34C215.8 235.237 217.14 234.707 218.324 233.889C219.169 233.011 219.999 232.112 220.873 231.262C220.664 230.223 220.561 228.691 219.945 227.825L219.522 228.778L219.188 227.777L218.647 227.797C215.098 227.902 213.101 226.944 210.572 224.585C209.703 223.775 208.842 222.501 207.861 221.888ZM276.74 73.4991C267.995 75.4446 265.199 83.2502 259.027 88.487C257.113 90.1108 251.298 92.9105 250.227 94.3745C250.18 94.4392 250.149 94.5137 250.109 94.5829C250.57 94.6295 250.831 94.6643 251.285 94.5477C252.737 94.4378 255.833 94.7648 256.738 93.7242C257.099 93.3099 257.306 92.9025 257.573 92.431C259.375 89.2556 266.376 85.7684 269.555 83.3222C270.689 82.4552 271.78 81.54 272.83 80.5768C273.879 79.6135 274.883 78.6062 275.84 77.5548C276.812 76.5037 278.344 75.0953 278.077 73.6115C277.618 73.5478 277.206 73.4845 276.74 73.4991ZM318.978 157.473L316.986 160.263C318.388 163.432 319.682 167.147 318.394 170.568C317.138 173.903 314.147 175.182 311.116 176.585C311.173 177.918 310.895 180.731 311.485 181.781L311.889 181.642C315.539 180.023 319.522 178.504 321.091 174.539C323.142 169.356 319.806 162.735 318.978 157.473ZM253.02 101.844C247.913 105.351 242.423 107.429 236.83 109.99C235.279 110.7 233.418 111.285 232.011 112.218C231.199 112.756 230.407 113.521 230.121 114.44C231.872 114.614 234.804 112.664 236.515 112.034C245 109.01 253.545 107.301 261.438 102.789C258.659 102.312 255.847 101.883 253.02 101.844ZM310.944 227.361C310.645 230.939 312.105 235.336 312.701 238.928C313.721 245.07 316.535 266.677 319.659 270.472C319.935 270.807 320.031 270.888 320.319 271.168C318.697 263.093 317.465 254.94 316.221 246.801C315.841 244.322 315.718 241.755 315.2 239.303C314.704 236.953 312.266 229.057 310.944 227.361ZM284.821 118.842C281.386 119.487 279.101 120.85 276.388 122.923C283.532 120.18 286.096 122.512 292.841 123.505C295.092 123.836 297.169 123.477 299.338 124.335C299.426 124.37 299.511 124.412 299.597 124.45C299.686 124.505 299.776 124.558 299.863 124.613C301.152 125.435 302.316 127.361 303.618 127.834C304.158 127.376 304.09 127.284 304.152 126.612C304.313 124.885 303.23 123.625 302.155 122.38C296.352 120.969 290.883 118.424 284.821 118.842ZM284.735 79.3824C283.51 81.3248 282.223 83.0233 280.466 84.5402C278.56 86.1855 268.063 92.5277 267.861 94.2868C272.847 93.2006 281.186 91.1103 283.983 86.6521C285.148 84.7953 285.369 81.9883 284.895 79.8667C284.858 79.7007 284.788 79.5438 284.735 79.3824ZM286.722 95.2721C283.951 96.2292 280.559 97.0761 278.162 98.7301L278.076 99.0665C280.38 99.922 282.311 100.635 284.12 102.35L284.472 102.965C285.165 103.083 284.822 103.106 285.43 102.927C287.081 102.442 289.153 103.714 290.236 101.593C290.949 100.197 290.28 98.5029 289.652 97.2124C289.285 96.4575 288.918 95.564 288.039 95.2742C287.598 95.1288 287.167 95.2109 286.722 95.2721ZM308.673 235.954C306.364 241.858 308.278 256.064 310.924 261.962C311.507 263.261 311.748 263.826 313.072 264.52L313.511 264.015C312.366 258.598 311.004 253.109 310.192 247.639C309.627 243.831 309.816 239.638 308.673 235.954ZM235.185 101.368C231.266 103.402 227.311 105.681 223.194 107.296C221.873 109.037 219.837 111.69 220.458 114.01C220.578 114.462 220.631 114.528 220.819 114.909L220.994 114.947C220.995 114.827 220.99 114.708 220.996 114.588C221.1 112.416 221.886 111.122 223.546 109.728C230.129 105.837 237.73 104.612 244.632 101.438C242.02 101.545 237.595 102.273 235.185 101.368ZM229.852 116.902C227.28 116.958 222.608 116.412 220.738 118.329C220.466 118.608 220.477 118.639 220.287 118.975L220.36 119.457C222.327 120.249 232.916 119.435 235.448 119.18C238.104 118.98 241.854 118.864 244.162 117.515C242.69 116.4 232.412 117.074 229.852 116.902ZM225.644 57.4225C222.749 58.8911 216.163 62.0453 215.052 65.2949C215.191 66.0043 215.264 66.4183 215.87 66.9172C215.97 66.9996 216.101 67.0376 216.216 67.0978C216.906 67.3904 217.722 67.9658 218.439 67.731C218.504 67.6221 218.568 67.5121 218.634 67.4039C219.997 65.1724 225.759 59.4516 225.644 57.4225ZM269.755 105.025C267.782 106.109 265.812 107.175 263.709 108C259.013 109.843 250.675 111.454 247.129 114.802L247.078 115.286C247.808 115.551 248.183 115.482 248.935 115.322C253.715 112.914 258.83 111.634 263.733 109.569C265.675 108.751 267.426 107.5 269.334 106.605C269.676 106.445 271.452 105.794 271.548 105.541C271.586 105.442 271.587 105.332 271.607 105.228C270.985 105.129 270.385 105.057 269.755 105.025ZM221.868 97.5725C218.934 99.5665 212.024 103.008 211.267 106.294C211.414 106.958 211.565 107.383 211.947 107.952C212.849 107.888 213.31 107.969 213.918 107.212C214.848 106.053 215.48 104.678 216.361 103.488C217.956 101.331 220.101 99.5762 222.054 97.7465L221.868 97.5725ZM210.087 142.779C208.408 144.952 208.079 146.667 207.812 149.332C208.985 149.8 210.143 150.243 211.24 150.87C211.955 150.458 212.066 149.812 212.398 149.087C211.78 147.361 211.209 144.08 210.087 142.779ZM292.962 109.549C292.924 109.646 292.889 109.743 292.85 109.839C292.045 111.778 289.137 113.952 289.308 115.95C289.943 116.468 290.327 116.464 291.127 116.61C291.564 116.718 292.359 117.058 292.758 116.843C293.526 116.43 294.025 115.404 294.193 114.592C294.542 112.908 294.169 111.059 293.099 109.691C293.059 109.639 293.008 109.596 292.962 109.549ZM225.207 53.3575C222.867 54.1643 220.337 55.669 219.366 58.061C219.204 58.4579 219.219 58.4809 219.165 58.842L219.4 59.0821L219.828 58.8392C221.437 58.0397 225.948 56.4143 226.341 54.5769C226.413 54.2408 226.376 53.8772 226.359 53.5384C225.797 53.2353 225.806 53.3077 225.207 53.3575ZM265.255 63.7724C264.761 64.2584 264.425 64.3979 264.451 65.1348C264.48 65.9371 264.953 66.9339 265.234 67.6983C266.958 66.6521 268.627 65.6845 270.575 65.0774C271.173 64.9918 271.756 64.9229 272.359 64.8707C272.795 64.8328 272.965 64.7177 273.307 64.4692C272.029 63.3201 266.973 63.7024 265.255 63.7724ZM306.592 262.491L306.752 262.454C305.525 256.745 304.729 251.387 304.809 245.521C304.623 245.929 304.443 246.34 304.271 246.753C302.327 251.432 304.71 258.072 306.592 262.491ZM274.235 119.107C271.325 119.872 268.36 120.813 265.369 121.21C265.502 121.948 266.167 122.401 266.697 122.895C267.652 123.241 268.379 122.85 269.294 122.444C271.116 121.636 272.975 120.502 274.515 119.253L274.235 119.107ZM297.382 260.844L300.053 261.405C300.049 260.499 300.125 259.495 299.799 258.634C299.577 258.048 299.739 258.252 299.129 257.987C298.173 258.687 297.841 259.8 297.382 260.844Z" fill="#231F20"/>
<path d="M306.21 131.889C307.36 132.654 308.457 134.363 309.348 135.456C309.142 137.062 308.914 138.664 308.665 140.264L308.429 140.042C307.829 137.501 306.796 135.077 305.832 132.657L306.21 131.889Z" fill="#B5B9B8"/>
<path d="M312.187 389.048C312.529 391.726 313.333 398.271 312.954 400.614L312.442 400.663C311.127 398.719 311.096 394.285 310.816 391.91L312.187 389.048Z" fill="white"/>
<path d="M323.792 405.938C325.34 408.745 326.743 414.469 327.914 417.796C326.312 416.75 325.185 414.948 324.038 413.443C323.627 410.925 323.579 408.48 323.792 405.938Z" fill="white"/>
<path d="M349.351 423.375C349.428 423.482 349.518 423.583 349.584 423.701C351.351 426.855 350.13 437.215 349.508 440.786L349.428 440.957C348.371 437.114 349.111 427.631 349.351 423.375Z" fill="white"/>
<path d="M329.208 486.254C329.479 488.55 330 499.5 330.5 501L328 501.5L327.5 500.5C327.5 496 328.676 490.859 329.208 486.254Z" fill="white"/>
<path d="M340.683 355.41C342.651 362.271 342.095 370.075 341.924 377.152C339.915 373.104 340.008 360.237 340.683 355.41Z" fill="white"/>
<path d="M319.336 326.704C321.13 328.985 323.877 346.06 323.627 349.269C320.762 346.216 319.995 331.371 319.336 326.704Z" fill="white"/>
<path d="M310.117 320.757C311.188 323.511 312.587 347.642 312.781 352.399C311.938 346.133 309.903 338.023 309.51 332.087C309.261 328.328 309.612 324.485 310.117 320.757Z" fill="white"/>
<path d="M306.551 432.218C308.468 437.465 309.882 443.718 310.891 449.205C311.27 451.267 311.253 454.286 311.973 456.178C312 456.247 312.036 456.31 312.068 456.379L311.788 456.585L311.75 456.915C310.247 452.912 308.92 448.84 306.275 445.425C307.219 440.911 306.787 436.766 306.551 432.218Z" fill="white"/>
<path d="M302.91 399.015C303.931 400.291 304.365 403.803 304.795 405.49C307.125 414.643 310.064 424.087 310.605 433.577C309.531 430.914 308.883 427.972 308.123 425.197C305.75 416.541 303.759 407.966 302.91 399.015Z" fill="white"/>
<path d="M317.792 301.557C318.636 302.416 319.033 305.766 319.328 307.039C320.558 312.339 322.63 317.364 323.86 322.625C324.454 325.167 324.904 327.723 325.088 330.324C324.076 329.354 323.759 326.53 323.156 325.153C322.306 323.212 320.966 321.508 320.176 319.528C318.274 314.765 318.121 306.782 317.792 301.557Z" fill="white"/>
<path d="M320.283 455.653C323.015 462.479 325.62 470.14 326.077 477.516C326.244 480.2 325.92 482.937 325.795 485.618C325.692 487.816 325.773 490.014 325.68 492.208C325.57 494.792 324.5 500.5 325 503L324 501C323.5 487 323.998 470.06 320.283 455.653Z" fill="white"/>
<path d="M305.485 448.565C305.561 448.638 305.646 448.708 305.714 448.788C306.609 449.873 307.092 451.907 307.565 453.236C308.348 455.444 309.2 457.711 309.417 460.062C309.81 464.315 307.666 471.59 307.053 476.204L306.998 477.098C304.71 475.085 307.055 457.419 306.609 453.451C306.484 452.338 306.116 451.956 305.285 451.288C305.21 451.226 305.133 451.167 305.057 451.107C304.799 450.162 305.196 449.487 305.485 448.565Z" fill="white"/>
<path d="M316.078 382.928C316.812 384.451 317.05 386.513 317.558 388.154C318.382 390.811 319.395 393.378 320.444 395.951C319.701 399.745 319.533 403.751 319.309 407.607C319.277 407.941 319.339 407.767 319.028 408.08C315.426 402.857 315.973 389.441 316.078 382.928Z" fill="white"/>
<path d="M294.846 265.944C295.128 266.208 295.2 266.247 295.435 266.623C296.058 267.617 296.506 269.122 296.924 270.245C300.323 279.398 299.28 288.75 297.691 298.116L297.476 298.532C297.276 288.827 296.828 279.778 294.561 270.293C294.085 268.305 293.751 267.731 294.846 265.944Z" fill="white"/>
<path d="M311.39 468.098C312.133 472.153 313.218 476.35 313.52 480.454C314.02 487.232 313.207 495.212 314.5 502L311.5 506.5C312 503.5 311.253 490.636 310.776 485.788C310.192 479.852 310.665 473.993 311.39 468.098Z" fill="white"/>
<path d="M326.073 380.626C329.778 390.874 332.083 404.36 331.475 415.23C330.522 413.279 329.91 411.002 329.239 408.932C325.855 398.51 325.663 391.399 326.073 380.626Z" fill="white"/>
<path d="M314.674 452.572C319.165 463.453 319.992 478.016 320.637 489.722C320.825 493.133 320.825 498.319 320.637 501.734L317.157 501C317 498.941 317.008 495.15 317.157 492.636C317.404 488.452 318.326 484.471 318.131 480.242C317.915 475.575 316.832 470.853 316.142 466.231C315.466 461.714 315.118 457.117 314.674 452.572Z" fill="white"/>
<path d="M325.357 290.606C326.837 293.067 327.439 296.467 328.69 299.128C331.309 304.691 334.459 310.047 336.066 316.034C336.872 319.033 336.667 322.59 336.855 325.685C337.095 329.677 337.606 333.728 337.602 337.724C337.599 340.961 337.293 344.206 337.192 347.44C336.956 354.899 336.806 362.445 337.025 369.905C335.916 366.911 335.631 363.562 335.353 360.404C334.998 356.374 334.556 352.239 334.744 348.191C335.12 340.096 336.549 332.421 335.801 324.235C335.422 320.072 334.588 315.689 333.186 311.742C330.662 304.621 326.931 298.086 325.357 290.606Z" fill="white"/>
<path d="M315.675 409.906C317.067 411.454 318.198 413.238 319.638 414.782C322.128 417.452 325.128 419.761 327.233 422.752C331.615 428.977 332.62 438.529 331.354 445.846L331.017 445.777C330.012 435.876 321.037 425.937 317.374 416.555C316.536 414.41 316.08 412.167 315.675 409.906Z" fill="white"/>
<path d="M316.864 424.254C320.425 429.961 326.082 440.324 327.171 446.757C327.911 451.146 327.866 455.503 328.2 459.916C328.475 463.578 329.261 467.052 329.382 470.776C328.391 469.622 327.265 463.807 326.747 462.086C322.949 449.414 318.387 437.518 316.864 424.254Z" fill="white"/>
<path d="M306.418 315.861C306.774 319.666 305.697 324.11 305.494 327.987C305.224 333.148 305.413 338.409 305.443 343.584C305.492 351.829 306.552 359.945 306.979 368.166C307.352 375.347 306.608 382.528 306.969 389.692C307.266 395.568 308.638 401.157 309.291 406.95L309.155 407.041L308.613 405.208C308.262 402.343 307.115 399.269 306.443 396.427C305.331 391.594 304.513 386.711 303.988 381.78C303.67 378.957 303.499 376.124 303.472 373.281C303.446 370.439 303.565 367.603 303.831 364.772C304.181 361.235 304.898 357.733 304.975 354.169C305.05 350.678 304.4 347.113 304.118 343.629C303.382 334.542 303.704 324.586 306.418 315.861Z" fill="white"/>
<path d="M307.187 262.114L307.343 262.076C308.785 265.02 313.878 279.476 314.409 282.699C315.559 289.676 314.703 297.462 314.836 304.551C314.938 309.924 315.87 315.173 316.113 320.504C316.211 322.66 316.021 324.823 316.077 326.979C316.194 331.565 316.488 336.368 316.942 340.927C317.414 345.656 319.712 350.052 320.785 354.652C322.133 360.432 321.879 366.754 322.021 372.669C320.804 369.498 319.518 366.299 318.718 362.988C316.724 354.75 316.118 346.293 315.278 337.891C314.207 327.173 313.093 316.559 312.907 305.779C312.833 301.492 314.672 297.511 314.27 293.114C314.03 290.49 313.336 287.929 312.788 285.357C311.121 277.54 308.911 269.908 307.187 262.114Z" fill="white"/>
<path d="M298.167 260.467L300.783 261.028C300.983 269.35 303.118 276.589 304.322 284.684C304.756 287.599 304.83 290.607 304.942 293.551C305.209 300.578 304.019 307.707 302.596 314.574C301.661 319.088 300.538 323.418 300.206 328.039C299.857 332.623 299.816 337.209 300.085 341.8C300.634 350.625 301.695 353.157 300.228 362.254C296.314 346.745 296.662 325.921 299.063 310.132C300.342 301.718 302.435 292.992 302.301 284.45C302.223 279.437 301.328 273.677 300.153 268.802C299.625 266.61 297.668 262.576 298.167 260.467Z" fill="white"/>
<path d="M340.078 388.429C341.448 394.435 342.735 400.416 343.938 406.46C344.769 410.612 345.774 414.705 345.937 418.958C346.222 426.226 344.807 433.643 345.596 440.88C346.076 445.276 346.688 449.887 347.801 454.168C348.663 457.485 349.943 460.81 350.513 464.19C351.581 470.501 352.266 477.672 352.154 484.05C352.064 489.221 351.695 495.815 351.5 501H347.5C346.516 488.592 348.649 474.98 347.731 462.601C347.06 453.521 345.214 444.671 344.206 435.657C343.621 430.462 344.105 425.197 343.434 419.967C342.94 416.1 342.091 412.288 341.546 408.432C340.621 401.918 340.155 395.005 340.078 388.429Z" fill="white"/>
<path d="M334.5 501C334.424 495.398 335.547 488.609 334.89 483.024C334.333 478.298 331.746 473.892 331.704 469.173C331.649 462.708 333.401 455.931 334.271 449.508L334.552 449.216L334.493 448.736C336.687 452.401 339.858 476.59 340.787 482.318C341.208 484.936 341.694 488.864 342 491.5C342.365 494.64 343.5 500.5 343.5 503.5C343 504 337.285 500.798 334.5 501Z" fill="white"/>
<path d="M319.811 287.233C319.881 287.302 319.964 287.36 320.021 287.439C321.102 288.95 322.266 295.565 322.951 297.719C325.578 305.983 329.789 313.746 331.173 322.361C332.946 333.381 329.25 344.342 330.161 355.47C330.484 359.42 330.79 363.506 331.524 367.404C332.577 373.038 334.215 378.362 334.869 384.114C335.728 391.629 335.669 399.234 336.482 406.763C337.06 412.069 338.492 417.23 338.976 422.554C339.396 427.172 339.003 431.881 339.577 436.464C340.464 443.568 341.858 450.579 342.609 457.715C342.877 460.278 343.287 462.924 343.127 465.501L342.96 465.372L342.971 464.579L342.731 464.774C341.006 454.742 337.814 444.921 336.851 434.795C335.731 422.999 336.788 411.071 335.133 399.335C333.367 386.788 329.072 374.919 328.088 362.213C327.188 350.605 330.481 339.046 329.118 327.552C328.394 321.456 326.306 316.077 324.656 310.231C322.572 302.843 320.723 294.86 319.811 287.233Z" fill="white"/>
<path d="M250.712 123.018C253.208 129.092 254.97 135.081 258.347 140.81C259.936 140.304 261.535 139.78 263.173 139.459C264.76 139.147 267.941 139.132 269.198 138.585C269.397 138.498 269.533 138.307 269.7 138.168C270.542 136.094 268.881 132.198 268.037 130.234C266.935 127.666 265.48 125.342 264.001 122.981C268.069 126.681 270.519 130.948 273.011 135.792C273.372 136.495 274.059 138.284 274.658 138.709C274.99 138.946 275.934 138.929 276.308 138.916C277.633 138.87 278.97 138.688 280.284 138.511C279.868 137.242 279.405 136.05 279.387 134.7L279.649 134.259L280.145 134.329C280.914 135.597 280.615 137.326 281.482 138.441L284.959 138.863C284.481 135.765 283.603 132.173 283.869 129.066L284.131 129.156C285.508 132.183 285.97 135.972 286.908 139.212L287.222 139.208C287.734 136.719 287.057 133.804 288.386 131.526C289.282 132.722 289.03 137.912 288.844 139.541C292.537 141.548 295.331 143.24 298.185 146.394L298.366 146.027C300.623 141.344 299.601 134.589 297.883 129.846C297.513 128.825 297.038 127.991 296.458 127.083L296.015 126.374C296.574 125.997 296.677 126.074 297.319 126.197C298.572 126.438 300.037 127.338 300.77 128.395C303.077 131.726 301.485 139.241 300.615 142.842C300.291 144.138 299.947 145.429 299.583 146.714C301.09 149.024 303.436 150.673 305.039 152.986C310.837 146.963 309.876 145.762 312.149 138.491C312.791 138.768 313.37 139.334 313.661 139.984C314.298 141.411 313.362 144.414 312.687 145.755C309.66 151.764 303.331 154.893 305.806 162.693C306.054 163.476 306.195 164.09 306.896 164.584L307.315 164.528C308.529 162.69 309.062 160.54 310.215 158.696C312.285 155.383 315.498 153.986 318.201 151.42L318.566 151.533C318.861 152.179 318.825 152.661 318.59 153.317C316.288 159.736 310.811 161.139 309.328 169.233C308.292 174.887 308.531 183.262 308.497 189.155C308.461 195.173 308.381 201.217 308.678 207.23C308.874 211.187 309.524 215.191 309.451 219.15C309.14 235.988 299.614 251.521 290.6 265.123C287.765 269.401 284.188 277.668 279.522 279.739C273.616 282.359 266.439 281.839 260.546 279.488C246.534 273.896 237.152 259.305 231.504 245.95C229.753 241.811 228.384 237.611 227.22 233.273C226.523 230.669 226.054 227.584 224.989 225.141C224.656 224.379 224.21 223.915 223.426 223.603C222.795 223.351 221.9 223.375 221.225 223.322C218.015 223.069 216.815 222.306 214.619 219.935C216.57 220.438 218.299 221.177 220.255 220.376L220.344 219.858C219.204 218.438 217.316 217.614 215.525 217.42C214.669 217.328 213.798 217.354 212.939 217.376C210.616 212.339 208.743 205.805 210.889 200.362C211.413 199.032 212.254 197.903 213.604 197.346C214.269 197.072 215.085 196.881 215.781 197.152C217.657 197.883 217.051 201.475 219.185 201.117C219.545 200.706 220.095 200.167 220.286 199.654C220.858 198.119 220.097 190.389 219.952 188.092C219.435 179.877 213.65 172.63 211.291 164.802C213.101 166.691 214.982 168.523 216.308 170.8C217.359 172.606 218.262 177.633 220.007 178.384C220.927 178.327 221.402 178.239 222.012 177.505C223.931 175.195 225.098 170.855 225.267 167.914C224.03 168.653 222.812 169.566 221.353 169.719L220.907 169.437C221.361 168.037 223.741 166.79 225.031 166.124C226.123 165.561 227.073 165.109 228.016 164.286L228.122 163.858C225.634 162.452 217.365 163.964 215.735 162.194L215.657 161.608C216.688 160.64 218.316 160.843 219.659 160.883C223.022 160.982 226.41 161.461 229.728 162.012L231.174 160.117C229.415 158.517 225.337 155.414 225.141 152.972C225.133 152.877 225.151 152.781 225.156 152.685C225.933 152.637 226.32 153.018 226.913 153.514C228.829 155.118 230.394 156.91 232.442 158.421C234.651 156.035 236.919 153.684 239.482 151.672C235.345 146.654 230.991 140.542 224.578 138.36L223.528 138.581L225.209 136.843C226.059 134.518 229.172 132.672 231.121 131.195C231.459 130.937 231.908 130.744 232.284 130.536C235.016 129.15 237.804 127.889 240.65 126.754C243.496 125.619 246.387 124.615 249.323 123.741L250.712 123.018Z" fill="#B5B9B8"/>
<path d="M289.447 177.829C292.545 177.736 296.053 177.342 298.934 178.662C301.229 179.713 305.362 182.125 306.215 184.558C306.07 185.383 306.004 185.362 305.353 185.908C305.278 185.889 305.203 185.871 305.128 185.851C305.003 185.815 304.88 185.776 304.756 185.741C301.729 184.869 299.293 182.701 296.234 181.835C294.019 181.209 290.969 182.188 289.024 181.058C288.373 180.679 288.262 180.166 288.127 179.488C288.417 178.656 288.785 178.352 289.447 177.829Z" fill="#231F20"/>
<path d="M280.511 219.015C280.731 219.093 281.139 219.225 281.329 219.353C281.376 219.384 281.806 219.802 281.848 219.915C282.08 220.529 284.548 229.306 284.676 230.677C284.864 232.693 284.821 234.914 283.653 236.621C281.981 239.063 279.294 242.167 276.893 242.599C276.197 242.451 275.334 242.149 274.907 241.484L275.049 240.851C277.626 238.461 278.307 239.428 280.542 236.301C282.329 233.799 279.333 228.018 279.106 225.227C278.919 222.927 279.224 220.896 280.511 219.015Z" fill="#231F20"/>
<path d="M248.296 178.49C249.467 178.311 251.912 178.152 252.891 178.869C253.648 179.423 253.945 180.143 253.99 181.037C252.343 183.683 246.754 182.817 244.045 183.586C242.182 184.116 240.092 185.772 238.438 186.82C237.647 187.511 236.695 188.48 235.584 188.522C235.105 188.54 235.012 188.324 234.671 188.038C234.603 187.712 234.525 187.424 234.545 187.083C234.614 185.878 235.598 184.561 236.371 183.705C239.675 180.044 243.511 178.816 248.296 178.49Z" fill="#231F20"/>
<path d="M284.102 197.947C284.38 198.01 284.899 198.085 285.163 198.235C286.372 198.922 286.367 201.844 286.671 203.173C287.28 205.843 288.732 209.344 291.181 210.772C291.956 211.224 292.81 211.333 293.672 211.066C295.547 210.486 298.181 207.908 298.961 206.061C299.626 204.491 299.797 202.387 300.752 200.988C301.181 200.358 301.513 200.195 302.231 200.029L302.814 200.529C303.234 201.639 303.239 201.907 303.066 203.085C302.81 204.021 302.51 204.972 302.165 205.88C301.009 208.922 298.923 211.989 295.828 213.271C295.714 213.319 295.599 213.364 295.484 213.406C295.368 213.448 295.251 213.488 295.133 213.524C295.015 213.56 294.896 213.594 294.777 213.624C294.657 213.655 294.537 213.682 294.416 213.706C294.295 213.73 294.174 213.752 294.052 213.77C293.93 213.788 293.807 213.803 293.684 213.815C293.562 213.827 293.439 213.836 293.315 213.841C293.192 213.847 293.069 213.85 292.946 213.849C292.822 213.849 292.699 213.845 292.576 213.838C292.453 213.831 292.33 213.822 292.207 213.809C292.084 213.795 291.962 213.779 291.84 213.76C291.719 213.741 291.597 213.719 291.477 213.693C291.356 213.668 291.236 213.64 291.117 213.608C290.997 213.577 290.879 213.542 290.761 213.505C290.644 213.467 290.527 213.427 290.412 213.384C290.296 213.341 290.182 213.294 290.069 213.245C287.301 212.049 285.454 209.389 284.455 206.632C283.551 204.14 282.954 200.416 284.102 197.947Z" fill="#231F20"/>
<path d="M263.035 250.413C263.227 250.398 263.42 250.386 263.612 250.367C266.426 250.082 270.451 250.308 273.124 251.292C273.924 251.586 274.29 251.869 274.614 252.65L274.298 253.311C272.785 254.471 271.607 254.29 269.815 254.2C269.625 255.37 269.107 257.079 269.539 258.193C270.337 258.676 271.171 259.113 271.681 259.923C271.782 260.083 271.874 260.25 271.971 260.413C271.498 261.069 271.097 261.61 270.293 261.86C268.209 262.507 265.814 261.577 264.018 260.553C261.944 259.373 259.689 257.551 259.122 255.109C258.896 254.134 258.997 253.147 259.561 252.305C260.399 251.053 261.636 250.71 263.035 250.413Z" fill="#231F20"/>
<path d="M257.773 197.829C258.097 197.913 258.524 197.997 258.83 198.152C259.609 198.545 260.012 199.313 260.208 200.133C261.095 203.851 260.233 209.032 258.296 212.284C256.868 214.683 254.628 216.679 251.87 217.348C249.512 217.921 247.063 217.407 245.052 216.075C241.647 213.819 240.256 210.083 239.493 206.258C239.375 205.029 239.207 203.672 239.546 202.462C239.764 201.685 240.036 201.457 240.702 201.049C240.964 201.091 241.279 201.01 241.488 201.174C242.45 201.934 243.418 209.199 245.179 211.26C246.291 212.562 247.824 213.769 249.6 213.84C251.235 213.906 253.06 213.154 254.196 211.982C257.548 208.522 256.295 203.793 256.538 199.589C256.582 198.841 257.049 198.485 257.566 198.014C257.634 197.951 257.704 197.89 257.773 197.829Z" fill="#231F20"/>
<path d="M249.323 123.741C250.874 127.325 252.309 131.033 254.025 134.537C251.488 132.496 247.369 128.273 244.043 128.073C243.749 128.204 243.473 128.272 243.268 128.527L243.709 128.812L243.648 128.852C248.294 132.441 252.8 135.444 255.443 140.855C250.115 143.498 245.634 146.037 241.243 150.133C236.377 144.117 232.428 139.963 225.209 136.843C226.06 134.518 229.172 132.672 231.122 131.195C231.459 130.937 231.909 130.744 232.284 130.536C235.016 129.15 237.805 127.889 240.65 126.754C243.496 125.619 246.387 124.615 249.323 123.741Z" fill="#231F20"/>
<path d="M232.284 130.536C236.522 135.946 241.781 141.904 244.49 148.256C239.717 144.939 234.757 136.131 231.121 131.195C231.459 130.936 231.908 130.743 232.284 130.536Z" fill="#B5B9B8"/>
<path d="M216.354 294.571L216.194 294.129C212.543 284.201 204.354 273.393 209.592 262.532C211.365 258.856 214.41 256.296 218.366 254.977C219.596 254.567 220.895 254.286 222.162 254C222.505 264.921 227.144 274.348 235.369 281.874C242.748 288.626 252.88 292.788 263.114 292.499C271.429 292.264 279.77 289.128 285.481 283.187C287.851 280.722 289.561 277.923 291.238 274.995C292.559 279.999 293.798 285.433 294.053 290.596C294.288 295.368 293.708 300.163 293.311 304.915C292.528 314.275 291.506 323.498 291.688 332.909C291.899 343.792 293.533 354.578 295.156 365.332C295.875 370.091 296.915 374.955 297.25 379.753C297.701 386.192 297.204 393.119 296.67 399.551C296.298 404.023 295.757 408.522 295.974 413.015C296.203 417.761 297.088 422.888 298.059 427.557C298.991 432.043 300.191 436.251 300.315 440.858C300.481 447.05 298.729 452.823 298.326 458.918C297.705 468.309 304.982 493.59 307 499.316L307.5 500L308 501.5V502L307.5 505L267.212 509.474L224.323 507.796C210.532 508.042 199.422 504.927 185.639 504.764C185.062 506.828 186.87 508.652 185.417 510.268C184.874 510.872 182.504 511.795 181.66 511.771C180.978 511.747 178.12 512.298 177.681 511.771C176.273 510.085 175.258 507.603 175.691 505.765C169.311 506.07 165.665 505.605 159.277 505.765L117 503.809C117.521 501.117 118.204 498.477 118.906 495.823C119.79 496.222 120.744 496.701 121.716 496.229C123.412 495.403 123.994 491.584 124.322 489.915C125.319 484.86 126.006 479.737 126.86 474.654C129.552 458.648 131.889 442.638 133.147 426.451C134.079 414.475 133.211 402.24 133.676 390.209C134.031 381.012 135.389 371.847 136.515 362.716C138.628 345.572 141.483 314.266 157.492 303.649C166.444 297.712 176.977 294.29 186.427 289.206C193.007 285.667 198.413 280.232 205.539 277.612C208.253 283.339 211.117 290.611 216.354 294.571Z" fill="white"/>
<path d="M211.137 328.112C211.735 328.241 212.11 328.436 212.625 328.763C212.932 329.236 213.071 329.594 213.085 330.154C213.236 336.389 200.697 357.16 197.334 363.694C195.45 367.356 191.58 376.449 189.204 379.096C188.438 378.845 188.019 378.64 187.39 378.105C187.164 377.642 187.034 377.322 187.048 376.794C187.139 373.25 200.174 349.374 202.657 344.283C204.926 339.63 206.796 334.72 209.35 330.216C209.837 329.357 210.372 328.731 211.137 328.112Z" fill="#231F20"/>
<path d="M175.891 492.894L175.954 492.64C176.952 488.52 177.412 484.202 178.118 480.028C178.705 476.558 179.514 473.114 179.998 469.628C181.754 456.978 182.393 444.044 182.763 431.304C182.941 426.344 182.944 421.384 182.772 416.423C182.689 413.589 182.179 410.413 182.551 407.607C182.683 406.615 182.908 405.883 183.615 405.119C184.243 404.972 184.564 404.91 185.177 405.241C186.728 406.083 186.915 408.542 187.076 410.006C188.656 424.349 187.966 438.969 186.823 453.324C186.36 459.14 185.952 464.997 185.128 470.786C184.079 478.151 182.243 485.422 181.345 492.818C180.797 494.68 180.725 497.696 179.345 499.154C178.829 499.699 178.166 500.021 177.364 499.999C176.716 499.977 176.032 499.758 175.614 499.282C174.277 497.762 175.479 494.552 175.891 492.894Z" fill="#231F20"/>
<path d="M358.792 370.133C360.029 369.147 361.628 367.842 363.389 367.887C363.65 367.895 363.749 367.959 363.958 368.051C364.252 368.671 364.269 369.026 364.029 369.68C363.375 371.479 361.583 372.62 360.058 373.791L360.09 374.105C360.704 380.828 360.08 387.8 359.988 394.545C359.954 397.481 360.054 400.414 360.287 403.343C360.52 406.275 360.884 409.193 361.38 412.097C362.59 419.253 364.799 426.222 366.331 433.312C367.537 438.885 368.421 444.546 369.582 450.134C370.864 456.308 372.46 462.536 374.001 468.667C375.925 476.314 378.774 483.733 379.911 491.545C380.104 492.849 380.361 494.515 379.357 495.595C378.965 496.016 378.451 496.332 377.83 496.383C377.07 496.441 376.368 496.211 375.784 495.768C375.376 495.458 375.083 494.93 374.874 494.502C373.8 485.784 370.762 477.615 368.855 469.073L361.991 437.531C361.19 433.993 359.994 430.563 359.182 427.047C358.737 425.134 358.58 423.157 358.23 421.225C357.198 415.496 356.218 409.809 355.829 404.014C355.208 394.813 355.988 385.523 356.526 376.336C355.535 376.868 354.308 377.65 353.106 377.603C352.369 377.577 352.159 377.428 351.71 376.967C351.888 374.84 357.092 371.774 358.792 370.133Z" fill="#231F20"/>
</g>
<defs>
<clipPath id="clip0_432_126">
<rect width="520" height="520" fill="white"/>
</clipPath>
</defs>
</svg>
