<svg width="520" height="520" viewBox="0 0 520 520" fill="none" xmlns="http://www.w3.org/2000/svg">
<rect width="520" height="520" fill="white"/>
<circle cx="260" cy="260" r="249" fill="#EBF7F0"/>
<mask id="mask0_383_2274" style="mask-type:alpha" maskUnits="userSpaceOnUse" x="11" y="11" width="498" height="498">
<circle cx="260" cy="260" r="249" fill="#EBF7F0"/>
</mask>
<g mask="url(#mask0_383_2274)">
<path d="M186.5 512L121.5 473.5L124 458L147 353.5L156 322L177 290.5L202 269.5L236.5 255.5L251 262.5L266.5 276L264.5 286L266.5 295L271 310.5L273 323.5V335L271 359V368.5L296 380L297 363.5L308.5 366L316 373L320.5 387L321.5 404V430.5L316.5 451.5L309 463.5L298.5 468.5L290.5 471.5L270 468V487V514.5L186.5 512Z" fill="white"/>
</g>
<path opacity="0.25" d="M218.093 192.085C218.093 192.085 200.476 180.768 194.413 195.335C188.35 209.901 197.364 218.641 201.809 219.973C206.253 221.305 209.59 223.459 214.906 222.077C214.906 222.077 222.451 242.719 236.955 249.754C251.459 256.788 273.857 263.063 287.103 258.742C300.363 254.422 306.115 235.934 305.33 231.054C304.546 226.186 303.201 204.759 303.201 204.759C303.201 204.759 311.667 200.862 311.667 192.085C311.667 183.308 299.529 185.586 292.992 175.34C288.012 164.135 289.158 145.871 290.502 142.347C291.859 138.824 247.388 134.902 247.388 134.902C247.388 134.902 248.894 162.516 243.217 165.579C237.54 168.642 218.068 192.085 218.068 192.085H218.093Z" fill="#231F20"/>
<path opacity="0.25" d="M269.649 362.937C269.649 362.937 275.139 330.405 274.592 325.661C274.044 320.93 261.644 293.379 263.138 288.971C264.632 284.564 274.853 266.673 274.853 266.673C274.853 266.673 304.359 245.956 307.161 245.857C309.962 245.757 309.564 252.107 307.783 254.149C305.99 256.19 295.333 266.673 295.333 266.673C295.333 266.673 307.559 259.44 311.929 261.756C316.299 264.059 318.764 271.056 318.702 274.093C318.64 277.131 320.843 284.091 320.843 284.091C320.843 284.091 323.918 294.262 322.748 297.425C321.578 300.587 316.374 299.529 315.465 294.262C314.556 288.996 310.261 288.648 307.783 291.797C305.318 294.947 303.874 297.773 305.343 309.377C306.812 320.98 302.704 324.753 299.193 328.114C295.682 331.476 297.674 379.333 297.674 379.333L269.649 362.937Z" fill="#231F20"/>
<path d="M226.758 241.786C226.758 241.786 235.274 263.088 250.562 265.204C263.535 267.01 265.602 260.648 265.602 260.648L243.229 252.543L226.758 241.786Z" fill="#231F20"/>
<path d="M221.281 434.225C218.803 431.536 216.463 428.722 214.184 425.871C213.35 424.838 212.503 423.805 211.694 422.746C208.93 418.949 206.366 415.015 204 410.981C202.954 409.188 201.896 407.395 200.9 405.59C200.265 404.432 199.593 403.287 198.983 402.117L198.547 401.22L198.211 400.274C197.999 399.639 197.763 399.017 197.588 398.382C197.439 397.548 197.563 397.61 198.223 398.058C198.559 398.282 198.983 398.618 199.468 399.029C199.705 399.241 199.966 399.465 200.215 399.726C200.352 399.851 200.464 399.988 200.601 400.112C200.701 400.262 200.8 400.423 200.888 400.585C202.232 402.876 203.564 405.167 204.971 407.42C205.32 407.981 205.644 408.566 205.967 409.151L206.988 410.869C207.66 412.014 208.32 413.185 209.017 414.318C209.839 415.687 210.748 417.057 211.756 418.351C212.728 419.684 213.761 420.966 214.782 422.248C216.985 425.099 219.326 427.838 221.754 430.528C223.26 432.159 224.779 433.789 226.36 435.358C228.726 437.761 231.166 440.114 233.706 442.305C235.698 443.986 237.777 445.492 239.732 447.148C240.167 447.509 240.603 447.858 241.039 448.219C242.657 449.589 243.068 450.161 243.13 450.821C243.143 450.97 243.193 451.132 243.18 451.257C243.143 451.643 242.259 451.369 240.889 450.56C238.897 449.352 236.818 448.107 234.851 446.675C232.921 445.194 231.029 443.613 229.174 441.982C227.792 440.774 226.447 439.504 225.103 438.247C223.783 436.952 222.488 435.645 221.231 434.287L221.281 434.238V434.225Z" fill="#231F20"/>
<path d="M168.94 298.757C171.48 295.408 174.331 292.295 177.22 289.27L180.469 286.021C184.441 282.373 188.773 279.136 193.268 276.185C195.26 274.878 197.252 273.558 199.306 272.388C201.945 270.906 204.61 269.412 207.461 268.366C208.357 268.055 208.282 268.205 207.697 268.79C207.124 269.412 206.004 270.433 204.535 271.33L200.7 273.832L198.82 275.139L196.891 276.359C195.633 277.206 194.376 278.065 193.106 278.912C191.861 279.796 190.616 280.679 189.371 281.576C186.457 283.792 183.594 286.332 180.942 288.984L178.738 291.162L176.634 293.428C175.19 294.91 173.933 296.553 172.576 298.122C171.766 299.106 171.019 300.139 170.248 301.147L169.09 302.666L168.019 304.247C166.923 305.841 165.828 307.435 164.844 309.103L163.338 311.58C162.877 312.427 162.417 313.274 161.956 314.12C160.499 316.722 159.441 319.474 158.233 322.15C157.997 322.761 157.76 323.346 157.524 323.956C156.59 326.197 156.129 326.832 155.332 327.068C155.158 327.118 154.959 327.218 154.797 327.218C154.249 327.255 154.274 326.184 154.847 324.466C156.478 319.349 158.931 314.22 161.744 309.265C162.84 307.459 163.911 305.617 165.143 303.886L166.936 301.259L168.853 298.707L168.903 298.744L168.94 298.757Z" fill="#231F20"/>
<path d="M236.507 297.649C234.95 295.283 233.332 292.93 231.415 290.839L230.356 289.693L229.236 288.622C226.696 286.008 223.882 283.568 220.72 281.663C220.035 281.202 219.313 280.816 218.579 280.443C217.844 280.082 217.122 279.671 216.375 279.36L213.499 278.065C212.515 277.691 211.544 277.293 210.561 276.895C209.951 276.633 210.063 276.558 210.635 276.583C211.208 276.608 212.279 276.658 213.499 276.92C214.57 277.181 215.615 277.53 216.674 277.853C217.732 278.177 218.691 278.737 219.712 279.185C220.732 279.621 221.654 280.231 222.625 280.791C223.596 281.327 224.48 281.999 225.376 282.659C227.518 284.24 229.721 285.908 231.676 287.813C233.755 289.955 235.722 292.221 237.415 294.673C238.511 296.142 239.432 297.723 240.416 299.267C241.088 300.475 241.773 301.683 242.395 302.915C242.968 304.173 243.628 305.38 244.176 306.638C244.612 307.609 245.085 308.555 245.545 309.501L246.828 312.39C247.014 312.813 247.189 313.236 247.338 313.684C247.898 315.328 247.911 315.913 247.4 316.448C247.288 316.573 247.176 316.722 247.052 316.809C246.628 317.108 246.006 316.573 245.471 315.44C243.865 312.103 242.371 308.58 240.628 305.144C239.358 302.591 237.976 300.089 236.444 297.661L236.494 297.624L236.507 297.649Z" fill="#231F20"/>
<path d="M266.972 490.039C266.997 489.279 267.022 488.532 267.047 487.785C267.047 487.511 266.997 487.237 267.009 486.963C267.009 486.005 267.109 485.034 267.159 484.063C267.171 483.639 267.159 483.204 267.121 482.793C267.034 482.257 267.121 481.71 267.233 481.162C267.271 480.988 267.345 481.012 267.482 481.149C267.607 481.286 267.881 481.535 268.055 481.834C268.217 482.096 268.279 482.369 268.329 482.643C268.391 482.917 268.441 483.191 268.491 483.465C268.578 484.013 268.64 484.561 268.628 485.108C268.628 485.768 268.752 486.453 268.814 487.125C268.852 487.872 268.902 488.619 268.939 489.366C268.964 489.827 268.976 490.288 269.001 490.748C269.026 491.445 269.026 492.143 269.126 492.827C269.213 493.363 269.375 493.861 269.449 494.396C269.474 494.508 269.499 494.62 269.512 494.745C269.537 495.18 269.424 495.33 269.001 495.479C268.902 495.517 268.814 495.554 268.715 495.579C268.391 495.666 268.092 495.517 267.93 495.218C267.681 494.77 267.47 494.297 267.308 493.823C267.196 493.338 267.134 492.827 267.084 492.329C267.022 491.582 266.947 490.823 266.959 490.064H267.009L266.972 490.039Z" fill="#231F20"/>
<path d="M293.453 470.866C291.971 471.04 290.502 471.264 289.021 471.252C288.274 471.252 287.539 471.326 286.805 471.289L284.601 471.14C283.53 471.115 282.472 470.94 281.414 470.791C277.704 470.119 274.106 469.035 270.707 467.554C269.935 467.268 269.213 466.869 268.466 466.533C267.731 466.172 266.972 465.861 266.275 465.45C265.366 464.939 264.432 464.466 263.548 463.919C262.689 463.333 261.842 462.698 261.008 462.088C260.485 461.702 260.61 461.69 261.145 461.852C261.68 462.026 262.689 462.3 263.772 462.786C265.677 463.645 267.569 464.516 269.524 465.188C270.01 465.363 270.483 465.574 270.956 465.774L272.412 466.284C273.384 466.645 274.355 467.006 275.351 467.292C275.948 467.479 276.546 467.654 277.156 467.815C277.766 467.965 278.401 468.039 279.023 468.152C279.658 468.239 280.281 468.376 280.916 468.425L282.808 468.575L283.841 468.674H284.887L286.966 468.724L289.046 468.612C289.743 468.575 290.44 468.55 291.125 468.425C291.971 468.288 292.818 468.201 293.665 468.039L296.167 467.429C297.412 467.081 298.645 466.62 299.865 466.184C301.035 465.624 302.255 465.151 303.363 464.479C304.222 463.943 305.056 463.408 305.853 462.81L308.131 460.906C308.48 460.644 308.754 460.308 309.078 460.022C310.285 458.939 310.821 458.777 311.655 459.175C311.842 459.262 312.053 459.337 312.215 459.449C312.775 459.822 312.601 460.669 311.754 461.628C310.534 463.097 309.003 464.329 307.409 465.512C305.729 466.57 303.998 467.616 302.106 468.388C300.761 469.06 299.28 469.446 297.86 469.944C297.151 470.181 296.391 470.305 295.657 470.492C294.922 470.642 294.2 470.878 293.44 470.953V470.891L293.453 470.866Z" fill="#231F20"/>
<path d="M264.034 424.091C263.722 423.157 258.17 411.143 259.577 407.919C260.983 404.694 260.884 390.464 260.884 390.464L264.034 424.091Z" fill="#231F20"/>
<path d="M274.84 372.212C274.84 372.212 267.32 368.315 265.59 380.528C264.469 388.496 263.162 365.974 265.59 365.75C268.018 365.526 274.84 372.224 274.84 372.224V372.212Z" fill="#231F20"/>
<path d="M296.627 369.299C296.627 369.299 310.982 372.212 313.721 377.217C316.659 382.583 299.155 379.794 299.155 379.794L296.627 369.299Z" fill="#231F20"/>
<path d="M288.46 376.644C286.668 375.847 284.912 374.951 283.157 374.067C282.522 373.743 281.837 373.506 281.215 373.145C278.998 371.9 276.795 370.63 274.753 369.087C273.832 368.414 272.898 367.767 272.002 367.057C271.416 366.609 270.881 366.074 270.396 365.489C270.159 365.202 269.922 364.879 269.761 364.53C269.624 364.144 269.487 363.783 269.424 363.385C269.35 362.887 269.524 362.924 269.972 363.111C270.184 363.198 270.495 363.31 270.856 363.397C271.03 363.447 271.217 363.484 271.404 363.546C271.566 363.621 271.728 363.708 271.852 363.808C272.375 364.181 272.923 364.505 273.496 364.841C274.031 365.215 274.591 365.576 275.164 365.937C276.297 366.671 277.504 367.344 278.637 368.215C280.019 369.211 281.688 369.834 283.256 370.581C284.987 371.402 286.742 372.212 288.51 372.984C289.593 373.469 290.689 373.942 291.797 374.378C293.478 375.05 295.146 375.735 296.864 376.258C298.196 376.669 299.578 376.831 300.923 377.104C301.222 377.167 301.521 377.192 301.819 377.279C302.915 377.578 303.189 377.901 303.164 378.823C303.164 379.034 303.164 379.246 303.151 379.458C303.064 380.142 302.454 380.566 301.583 380.541C298.981 380.516 296.453 379.731 293.951 378.872C292.096 378.225 290.253 377.466 288.436 376.719L288.46 376.644Z" fill="#231F20"/>
<path d="M294.399 258.469C293.416 259.178 292.395 259.838 291.336 260.423C290.963 260.647 290.589 260.871 290.191 261.058C288.772 261.693 287.328 262.216 285.858 262.627C285.211 262.826 284.576 263.025 283.929 263.224C283.107 263.449 282.248 263.623 281.389 263.61C281.115 263.61 281.115 263.386 281.289 263.112C281.464 262.838 281.8 262.453 282.236 262.278C283.007 261.93 283.779 261.656 284.564 261.394C285.336 261.133 286.107 260.859 286.917 260.585C287.875 260.274 288.747 259.676 289.618 259.153C290.577 258.581 291.548 257.995 292.445 257.311C293.005 256.9 293.553 256.464 294.075 256.003C294.86 255.306 295.619 254.559 296.267 253.725C296.752 253.065 297.101 252.331 297.449 251.621C297.524 251.459 297.599 251.297 297.674 251.148C297.985 250.575 298.221 250.476 298.831 250.662C298.968 250.7 299.105 250.737 299.242 250.787C299.678 250.961 299.865 251.397 299.715 251.92C299.292 253.476 298.296 254.846 297.176 256.053C296.341 256.962 295.408 257.771 294.437 258.531L294.399 258.493V258.469Z" fill="#231F20"/>
<path d="M304.347 141.7C331.413 130.445 331.625 87.306 316.996 74.2086C308.517 66.6141 302.479 65.0703 291.66 63.0409C291.66 63.0409 266.362 58.3846 254.074 67.5229C241.785 76.6612 234.539 81.9525 230.941 86.9076C227.343 91.8627 220.496 101.524 220.21 106.666C219.923 111.808 218.193 118.892 218.193 118.892C218.193 118.892 205.83 113.202 194.314 113.414C174.979 113.762 148.996 129.138 147.215 160.973C147.215 160.973 146.755 180.345 157.661 192.484C168.554 204.622 180.93 213.213 185.885 214.781C190.852 216.35 194.675 214.781 194.675 214.781C194.675 214.781 189.396 205.158 192.396 199.269C195.397 193.38 197.961 187.155 203.688 187.279C209.415 187.404 218.068 192.085 218.068 192.085C218.068 192.085 234.166 186.532 237.839 181.652C241.511 176.772 246.877 165.841 247.637 160.973C248.409 156.105 249.206 142.895 247.475 138.662C245.744 134.429 261.73 143.343 264.345 143.991C266.959 144.638 286.929 146.17 292.519 145.609C298.109 145.049 304.322 141.688 304.322 141.688L304.347 141.7Z" fill="#231F20"/>
<path d="M314.195 272.774C313.112 272.313 311.306 272.213 309.576 272.649C308.928 272.761 308.318 273.122 307.671 273.297C305.368 274.081 303.052 275.214 300.848 276.534C299.852 277.094 298.919 277.791 298.01 278.476C296.864 279.397 295.719 280.356 294.076 280.704C293.49 280.679 293.528 280.58 293.565 279.945C293.578 279.609 293.64 279.248 293.715 278.8C293.789 278.339 293.939 277.916 294.225 277.592C294.686 276.969 295.271 276.484 295.868 275.998C296.466 275.513 297.064 275.04 297.699 274.579C298.931 273.645 300.338 272.898 301.795 272.251C303.538 271.479 305.206 270.383 307.098 269.699C309.165 268.964 311.481 268.441 313.896 268.852C315.39 269.064 316.909 269.898 317.905 270.981C319.474 272.637 320.196 274.629 320.831 276.521C321.316 278.003 321.839 279.434 322.163 280.953C322.238 281.29 322.325 281.613 322.374 281.949C322.499 283.219 322.15 283.643 321.291 283.916C321.092 283.979 320.893 284.053 320.694 284.091C320.021 284.203 319.461 283.73 319.113 282.933C318.254 280.555 317.731 278.065 316.784 275.973C316.436 275.201 316.025 274.542 315.602 273.981C315.153 273.434 314.68 273.097 314.17 272.873L314.195 272.786V272.774Z" fill="#231F20"/>
<path d="M311.443 263.947C309.563 263.287 307.459 263.374 305.218 264.158C304.409 264.407 303.637 264.843 302.828 265.179C299.976 266.437 297.2 268.055 294.548 269.86C293.366 270.67 292.27 271.591 291.212 272.525C289.767 273.645 288.522 274.952 286.916 275.936C286.381 276.21 286.381 276.123 286.481 275.563C286.543 275.289 286.543 274.815 286.705 274.38C286.867 273.944 287.091 273.458 287.414 273.01C288 272.238 288.61 271.479 289.245 270.744C289.904 270.035 290.639 269.412 291.386 268.79C292.868 267.557 294.436 266.412 296.129 265.441C298.159 264.295 300.138 262.876 302.354 261.855C303.562 261.27 304.857 260.822 306.189 260.461C306.886 260.336 307.571 260.149 308.306 260.137L309.389 260.075C309.75 260.087 310.111 260.137 310.472 260.162C312.227 260.349 313.958 260.934 315.414 261.917C317.68 263.324 319.274 265.54 320.295 267.893C321.079 269.736 321.627 271.74 321.465 273.882C321.428 274.342 321.44 274.815 321.278 275.276C321.154 275.699 321.042 276.048 320.917 276.334C320.768 276.608 320.594 276.795 320.432 276.932C320.083 277.206 319.71 277.256 319.212 277.156C318.988 277.106 318.739 277.081 318.527 276.994C317.817 276.695 317.543 275.861 317.718 275.015C318.066 272.388 317.543 269.773 316.049 267.507C314.904 265.901 313.323 264.519 311.418 263.996L311.443 263.909V263.947Z" fill="#231F20"/>
<path d="M263.996 298.147C263.299 295.769 262.589 293.378 262.216 290.776C262.091 290.141 262.042 289.469 261.992 288.784L261.917 287.776C261.917 287.427 261.942 287.066 261.954 286.705C261.979 285.983 262.017 285.273 262.178 284.589L262.378 283.555L262.664 282.572C263.448 279.945 264.681 277.629 266.05 275.475C267.432 273.321 268.989 271.342 270.644 269.474C273.047 266.735 275.562 264.146 278.289 261.793C279.447 260.784 280.642 259.826 281.862 258.879C282.111 258.68 282.609 258.294 283.045 258.058C283.493 257.809 283.941 257.61 284.352 257.448C285.186 257.124 285.908 256.937 286.543 256.713C287.825 256.277 288.734 255.767 289.842 254.871C290.926 254.012 292.009 253.016 293.142 252.007C294.275 250.999 295.445 249.953 296.839 249.007C297.175 248.77 297.574 248.534 297.922 248.334L298.918 247.774L300.948 246.691C302.317 245.994 303.712 245.321 305.193 244.736L305.766 244.525L306.052 244.425L306.463 244.301C307.011 244.114 307.571 243.989 308.119 243.89C309.227 243.728 310.298 243.852 311.119 244.562C311.306 244.774 311.493 244.973 311.667 245.197L312.115 245.894C312.526 246.791 312.626 247.787 312.501 248.795C312.364 249.293 312.29 249.803 312.078 250.289C311.842 250.837 311.717 251.123 311.518 251.472C310.771 252.841 309.887 253.987 308.978 255.095C307.148 257.286 305.193 259.265 303.239 261.208C298.234 266.2 293.166 270.919 288.087 275.6C286.369 276.982 286.63 276.882 287.203 274.99C287.713 273.06 289.158 269.586 291.909 266.524C293.602 264.706 295.295 262.901 297.038 261.183C298.781 259.477 300.524 257.784 302.193 256.066C303.836 254.36 305.48 252.617 306.725 250.862C307.048 250.426 307.322 249.99 307.559 249.579C307.671 249.38 307.808 249.156 307.87 248.982C307.895 248.944 307.895 248.969 307.907 248.932C307.957 248.87 307.994 248.733 307.932 248.633C307.87 248.521 307.758 248.546 307.609 248.546C307.658 248.521 307.272 248.658 307.086 248.72C306.849 248.795 306.613 248.895 306.376 248.982C305.89 249.168 305.405 249.368 304.919 249.592C303.936 250.028 302.952 250.488 301.969 250.986C301.01 251.484 299.914 252.02 299.192 252.468C297.624 253.464 296.042 254.945 294.374 256.414C293.528 257.161 292.669 257.921 291.673 258.655C290.677 259.402 289.419 260.075 288.274 260.486C287.116 260.921 286.045 261.208 285.373 261.556C284.875 261.78 283.891 262.664 283.082 263.312C281.414 264.694 279.795 266.138 278.226 267.619C274.79 270.856 271.616 274.405 269.15 278.302C267.943 280.256 266.934 282.323 266.411 284.427C266.324 284.95 266.2 285.485 266.125 286.008L266.05 287.602L266.175 289.27C266.237 289.83 266.349 290.403 266.436 290.963C267.532 296.591 269.686 302.205 271.628 307.845C273.097 312.141 274.566 316.486 275.388 321.092C275.575 322.25 275.761 323.408 275.799 324.603C275.936 325.773 275.836 327.031 275.761 328.151C275.587 330.442 275.338 332.683 275.102 334.924C274.355 341.871 273.608 348.681 272.873 355.554C272.699 357.06 272.562 358.542 272.363 360.061C271.64 365.688 271.006 367.419 269.773 368.477C269.499 368.713 269.213 369.05 268.976 369.174C268.204 369.61 267.694 367.207 267.993 363.049C268.466 356.886 269.126 350.599 269.835 344.224C270.209 341.049 270.582 337.85 270.956 334.638C271.13 333.044 271.292 331.451 271.466 329.857C271.591 328.288 271.777 326.67 271.703 325.375C271.503 321.117 270.146 316.535 268.665 312.016C267.183 307.472 265.453 302.915 263.934 298.172L264.034 298.134L263.996 298.147Z" fill="#231F20"/>
<path d="M197.152 228.203C196.716 228.788 196.131 229.311 195.621 229.846C195.048 230.344 194.475 230.83 193.828 231.228C193.355 231.515 193.006 231.95 192.496 232.162C190.765 233.058 188.873 233.419 187.105 233.519C186.707 233.531 186.321 233.581 185.935 233.631C185.549 233.681 185.175 233.681 184.789 233.718C183.806 233.818 182.835 233.656 181.913 233.245C181.627 233.108 181.714 232.635 181.988 232.087C182.262 231.552 182.71 230.842 183.183 230.656C183.607 230.531 184.017 230.332 184.403 230.182C184.789 230.095 185.213 230.083 185.586 229.983C185.96 229.896 186.346 229.834 186.744 229.809C187.117 229.734 187.491 229.66 187.914 229.66C188.4 229.635 188.836 229.411 189.259 229.211L190.429 228.39C191.276 227.792 192.097 227.082 192.844 226.261C193.293 225.738 193.753 225.202 194.102 224.58C194.675 223.671 195.185 222.675 195.484 221.617C195.683 220.783 195.583 219.886 195.559 219.015C195.559 218.828 195.509 218.629 195.521 218.442C195.546 218.093 195.633 217.882 195.907 217.77C196.206 217.658 196.629 217.645 197.252 217.67C197.538 217.683 197.824 217.683 198.098 217.708C198.559 217.757 198.97 217.882 199.318 218.081C199.655 218.28 199.966 218.567 200.028 218.865C200.539 220.696 200.153 222.575 199.455 224.381C198.883 225.713 198.173 227.008 197.264 228.228L197.165 228.166L197.152 228.203Z" fill="#231F20"/>
<path d="M264.507 257.161C271.205 258.219 278.177 257.958 284.402 255.493C286.68 254.621 288.709 253.264 290.714 251.907C292.407 250.588 294.051 249.231 295.432 247.575C296.814 245.944 298.022 244.138 299.03 242.209C301.072 238.349 302.292 234.017 303.014 229.584C303.649 225.65 303.724 221.591 303.537 217.607C303.4 215.043 303.127 212.491 302.89 209.913C302.79 208.631 302.579 207.349 302.566 206.041V204.074C302.579 203.415 302.653 202.742 302.691 202.07C302.89 200.364 302.965 200.626 303.674 201.908C304.023 202.555 304.683 203.439 305.28 204.547C305.579 205.108 305.953 205.705 306.202 206.365C306.413 207.037 306.588 207.747 306.712 208.507C307.683 213.848 307.907 219.363 307.596 224.878C307.247 230.394 306.177 235.996 303.836 241.188C302.429 244.275 300.724 247.338 298.508 250.09C296.267 252.816 293.577 255.157 290.602 256.999C284.003 261.046 276.16 262.353 268.74 261.929C264.146 261.705 259.639 260.809 255.281 259.527C248.67 257.597 242.433 254.584 236.619 251.061C232.112 248.297 227.804 245.321 224.019 241.536C223.21 240.677 222.363 239.881 221.629 238.922C220.272 237.154 219.599 235.785 219.288 234.776C218.94 233.78 219.064 233.046 219.326 232.423C219.45 232.137 219.55 231.8 219.712 231.614C219.985 231.29 220.459 231.464 221.031 232C221.591 232.535 222.338 233.407 223.247 234.515C228.763 241.101 236.482 246.628 244.823 250.749C251.023 253.812 257.697 256.053 264.482 257.049V257.161H264.507Z" fill="#231F20"/>
<path d="M237.403 176.697C239.806 173.921 241.761 170.659 243.267 167.173C243.566 166.538 243.765 165.878 243.977 165.218C244.201 164.558 244.412 163.899 244.612 163.239C246.205 158.582 247.052 153.627 247.263 148.635C247.338 146.419 247.139 144.19 246.803 142.024C246.429 139.198 245.533 136.621 245.097 133.72C244.935 132.811 245.06 132.848 245.782 133.346C246.143 133.595 246.716 133.944 247.338 134.429C247.936 134.927 248.484 135.612 248.894 136.421C250.189 139.347 251.036 142.447 251.21 145.585C251.447 148.71 251.36 151.859 250.749 154.935C250.077 158.607 249.529 162.442 248.309 166.077C246.965 170.049 245.097 173.883 242.682 177.345C241.175 179.461 239.445 181.416 237.565 183.209C234.677 185.898 231.265 187.989 227.729 189.595C227.032 189.894 226.347 190.205 225.663 190.529L223.559 191.338C222.861 191.637 222.139 191.836 221.43 192.06C220.708 192.272 219.986 192.534 219.251 192.633C218.604 192.745 217.969 192.907 217.296 192.994C214.831 193.293 214.01 192.807 213.474 191.737C213.35 191.5 213.188 191.301 213.126 191.102C213.001 190.766 213.188 190.454 213.586 190.019C213.985 189.57 214.62 189.222 215.416 189.01C220.172 187.603 224.853 186.234 229.049 183.731C232.149 181.876 234.95 179.486 237.291 176.635L237.391 176.697H237.403Z" fill="#231F20"/>
<path d="M145.472 169.638C143.754 159.416 144.613 148.884 147.9 139.111C149.033 135.525 150.614 132.076 152.444 128.777C155.868 123.062 160.387 118.02 165.716 114.074C166.998 113.028 168.43 112.181 169.837 111.31C171.206 110.376 172.738 109.741 174.194 108.957C177.182 107.525 180.407 106.392 183.669 105.844C184.391 105.682 185.113 105.558 185.847 105.483L188.039 105.209C189.508 105.147 190.964 104.998 192.433 105.06L194.625 105.11C195.359 105.134 196.081 105.234 196.803 105.284C198.26 105.371 199.692 105.67 201.136 105.881C204.796 106.604 208.407 107.774 211.756 109.542C212.59 109.99 213.437 110.426 214.196 110.998C214.956 111.571 215.827 111.994 216.45 112.766C217.134 113.451 217.807 114.123 218.317 114.945C218.865 115.729 219.425 116.489 219.848 117.348C220.932 119.44 220.595 119.178 219.052 118.008C218.329 117.385 217.022 116.775 215.553 116.165C213.997 115.642 212.441 114.908 210.785 113.999C207.822 112.43 204.547 111.397 201.198 110.725C197.862 110.015 194.438 109.691 191.014 109.753C187.59 109.816 184.192 110.289 180.93 111.223C180.519 111.335 180.108 111.434 179.697 111.571L178.514 112.019C177.718 112.306 176.921 112.592 176.136 113.003L173.758 114.136C172.949 114.497 172.24 115.007 171.455 115.431C169.588 116.427 167.919 117.771 166.226 119.078C165.429 119.801 164.633 120.535 163.836 121.257C163.039 121.992 162.367 122.838 161.62 123.635C158.769 126.922 156.391 130.62 154.461 134.516C150.303 143.144 148.56 152.942 149.045 162.629C149.369 168.592 150.589 174.469 152.855 180.021C154.635 184.18 156.789 188.201 159.441 191.911C160.076 192.857 160.835 193.704 161.52 194.613L162.578 195.945C162.939 196.381 163.35 196.779 163.724 197.202L166.052 199.68L168.567 201.958C173.871 206.565 179.934 210.038 186.383 212.404C187.827 212.877 189.246 213.288 190.678 213.786C196.119 215.267 197.862 215.578 198.907 216.998C199.144 217.297 199.493 217.595 199.617 217.857C199.841 218.293 199.356 218.566 198.235 218.766C197.675 218.878 196.965 218.89 196.106 218.865C195.26 218.84 194.264 218.778 193.193 218.529C186.731 217.371 180.282 214.906 174.393 211.345C168.492 207.797 163.114 203.178 158.619 197.787C155.208 193.841 152.444 189.334 150.166 184.628C147.85 179.922 146.281 174.842 145.36 169.663L145.472 169.625V169.638Z" fill="#231F20"/>
<path d="M133.608 399.975C136.546 386.679 139.596 373.407 142.958 360.197L144.788 352.964C145.41 350.549 146.095 348.146 146.767 345.755C151.735 328.935 158.172 312.215 168.306 297.611C172.788 291.162 177.967 285.099 183.831 279.92C191.363 273.321 200.028 267.582 209.739 264.918C211.283 264.594 211.968 264.519 211.968 264.656C211.968 264.793 211.321 265.204 210.262 266.088C209.217 266.984 207.66 268.005 205.868 269.362C204.112 270.781 201.896 272.064 199.58 273.583C191.152 278.6 183.657 285.012 177.257 292.457C170.871 299.939 165.691 308.48 161.247 317.469C160.55 318.801 159.927 320.171 159.342 321.577C158.744 322.972 158.109 324.354 157.549 325.786C156.466 328.649 155.321 331.513 154.374 334.463C152.333 340.315 150.702 346.341 149.033 352.304C145.473 365.464 142.385 378.798 139.397 392.144C137.554 400.361 135.786 408.603 134.093 416.845C131.504 429.332 128.951 441.894 126.685 454.344C124.905 464.03 123.448 473.567 121.93 483.178C121.606 485.295 121.282 487.362 120.946 489.503C119.639 497.396 118.967 499.861 117.585 501.368C117.286 501.717 116.975 502.19 116.713 502.389C115.904 503.061 115.518 499.65 116.302 493.823C118.556 476.53 121.793 458.453 125.279 440.35C127.868 426.904 130.632 413.421 133.521 399.988H133.62L133.608 399.975Z" fill="#231F20"/>
<path d="M241.573 294.972C244.35 299.454 246.441 304.222 248.234 308.991C248.869 310.746 249.591 312.502 250.102 314.307C251.882 320.681 252.928 327.118 253.749 333.517C254.135 336.356 254.609 339.182 255.107 341.958C255.418 343.739 255.741 345.532 256.053 347.312L256.277 348.656L256.401 350.014C256.476 350.922 256.563 351.831 256.576 352.753C256.576 353.91 256.302 353.823 255.58 353.002C254.87 352.18 253.513 350.648 252.866 348.619C252.392 346.801 251.932 344.984 251.521 343.166C251.123 341.348 250.786 339.518 250.45 337.688C249.803 334.028 249.18 330.392 248.657 326.744C248.047 322.362 246.665 317.98 245.234 313.772C243.59 309.165 241.735 304.534 239.382 300.263C237.901 297.649 236.307 295.084 234.352 292.806C231.489 289.282 228.028 286.195 224.206 283.73C221.242 281.775 217.993 280.455 214.756 279.111C214.034 278.824 213.312 278.6 212.615 278.264C211.967 277.953 211.419 277.704 210.971 277.455C210.535 277.193 210.224 276.882 209.975 276.621C209.465 276.085 209.253 275.587 209.154 275.002C209.104 274.728 209.017 274.454 209.017 274.23C209.017 273.483 210.386 273.284 212.664 273.546C215.889 274.293 219.026 275.625 222.126 277.194C225.227 278.737 228.214 280.729 231.028 282.958C235.186 286.307 238.847 290.415 241.698 294.91L241.611 294.985L241.573 294.972Z" fill="#231F20"/>
<path d="M294.735 364.132L294.947 357.11C294.971 356.263 294.909 355.404 294.959 354.558C295.108 351.557 295.519 348.569 295.793 345.594C295.893 344.274 295.992 342.942 296.092 341.635L296.328 339.107C296.391 338.261 296.702 337.439 296.901 336.617C297.051 336.107 297.175 336.182 297.399 336.642C297.511 336.879 297.661 337.202 297.822 337.588C297.897 337.788 297.984 337.999 298.059 338.223C298.096 338.335 298.121 338.447 298.171 338.572L298.196 338.933C298.432 342.369 298.408 345.756 298.134 349.179C297.972 351.234 298.196 353.375 298.196 355.467C298.221 357.77 298.233 360.086 298.308 362.401C298.345 363.821 298.395 365.252 298.47 366.672C298.607 368.825 298.657 371.004 298.943 373.133C299.155 374.789 299.615 376.383 299.964 378.001C300.039 378.362 300.151 378.698 300.2 379.059C300.25 379.396 300.275 379.669 300.275 379.918C300.25 380.155 300.163 380.367 300.076 380.528C299.889 380.865 299.59 381.089 299.155 381.288C298.955 381.375 298.769 381.487 298.569 381.562C297.934 381.773 297.25 381.3 296.702 380.354C295.544 377.503 295.195 374.366 294.909 371.216C294.685 368.875 294.673 366.51 294.635 364.144H294.722L294.735 364.132Z" fill="#231F20"/>
<path d="M265.192 388.123C264.88 391.223 264.606 394.348 264.519 397.473C264.469 398.618 264.544 399.751 264.507 400.897C264.357 404.931 264.308 408.989 264.507 413.035C264.569 414.841 264.743 416.633 264.918 418.414C265.042 419.559 265.179 420.692 265.304 421.838C265.391 422.983 265.366 424.153 265.353 425.311C265.328 426.033 265.079 425.971 264.656 425.423C264.245 424.863 263.523 423.83 263.1 422.547C262.116 417.916 261.357 413.222 261.344 408.429C261.307 405.565 260.934 402.615 260.834 399.689C260.759 396.477 260.834 393.252 261.008 390.028C261.095 388.048 261.27 386.069 261.419 384.102C261.531 382.608 261.718 381.114 261.867 379.62C262.042 378.126 262.216 376.644 262.39 375.163C262.527 374.017 262.602 372.872 262.664 371.714L262.913 368.278C262.951 367.767 262.963 367.269 263.05 366.771C263.361 364.904 263.81 364.381 264.98 364.207C265.241 364.169 265.515 364.107 265.777 364.107C266.648 364.107 267.208 365.003 267.258 366.373C267.283 370.444 266.773 374.59 266.362 378.773C265.951 381.861 265.565 384.986 265.316 388.111H265.216L265.192 388.123Z" fill="#231F20"/>
<path d="M255.319 458.416C260.125 461.491 265.229 464.08 270.57 465.985C275.911 467.89 281.539 468.961 287.216 469.098C288.249 469.098 289.295 469.172 290.328 469.098L293.428 468.886L296.354 468.4L299.155 467.554C302.392 466.371 305.268 464.292 307.621 461.64C309.987 458.988 311.842 455.826 313.336 452.489C316.336 445.766 317.893 438.359 318.889 430.926C319.748 424.303 320.059 417.567 320.021 410.906C320.021 406.636 319.797 402.353 319.698 398.058L319.486 391.621L319.386 388.397C319.374 387.326 319.523 386.23 319.573 385.147C319.835 382.433 319.698 382.819 320.308 385.048C320.582 386.168 321.316 387.724 321.665 389.654C322.088 391.584 322.499 393.85 322.748 396.327C323.234 400.722 323.445 405.142 323.532 409.574C323.619 414.006 323.57 418.451 323.321 422.908C323.084 427.365 322.636 431.822 321.852 436.255C321.08 440.687 320.034 445.107 318.49 449.414C316.623 454.531 314.195 459.71 310.447 464.143C308.518 466.296 306.302 468.276 303.737 469.757C301.147 471.152 298.358 472.272 295.458 472.633C283.12 474.476 270.595 471.687 259.751 466.184C256.427 464.454 253.19 462.561 250.152 460.395C247.077 458.291 244.164 455.963 241.35 453.548C232.834 446.177 225.489 437.587 218.828 428.722C213.674 421.813 208.818 414.878 204.373 407.582C203.402 405.976 202.419 404.42 201.497 402.764C198.074 396.626 197.414 394.447 197.825 392.567C197.924 392.144 197.974 391.609 198.124 391.31C198.684 390.289 200.614 392.505 203.203 396.85C210.935 409.711 219.438 423.045 229.622 435.034C237.179 443.886 245.62 452.141 255.369 458.303L255.319 458.403V458.416Z" fill="#231F20"/>
<path d="M271.304 489.727C271.08 490.985 270.869 492.242 270.744 493.512C270.694 493.973 270.744 494.433 270.707 494.907C270.532 496.55 270.383 498.193 270.383 499.849C270.358 500.584 270.508 501.306 270.545 502.028C270.62 502.962 270.819 503.871 270.595 504.854C270.495 505.165 270.209 505.178 269.748 504.991C269.263 504.817 268.653 504.443 268.453 503.92C267.681 502.053 267.507 500.086 267.657 498.094C267.756 496.911 267.507 495.691 267.47 494.483C267.445 493.164 267.47 491.831 267.544 490.512C267.594 489.702 267.632 488.881 267.706 488.072C267.806 486.839 267.993 485.619 268.018 484.386C268.055 483.44 267.818 482.481 267.793 481.523C267.793 481.311 267.756 481.1 267.781 480.9C267.868 480.128 268.179 479.917 269.188 479.879C269.412 479.879 269.649 479.855 269.873 479.867C270.632 479.904 271.23 480.29 271.441 480.863C272.163 482.581 271.939 484.237 271.84 485.943C271.715 487.2 271.591 488.457 271.416 489.727H271.317H271.304Z" fill="#231F20"/>
<path d="M198.547 330.89C198.36 330.729 198.235 330.505 198.061 330.318C197.986 330.243 197.949 330.131 197.812 330.119C197.563 330.119 197.625 329.347 197.476 329.446C197.177 329.633 195.845 328.002 195.658 327.977C195.571 327.965 195.534 327.902 195.459 327.865C195.384 327.84 195.297 327.828 195.235 327.79C195.185 327.766 195.148 327.716 195.11 327.666C195.073 327.616 195.061 327.516 195.011 327.492C194.899 327.429 194.413 327.018 194.251 327.018C194.214 327.018 194.226 326.944 194.214 326.906C194.152 326.583 192.832 325.774 192.595 325.525C192.558 325.487 192.508 325.45 192.446 325.475C192.197 325.537 190.603 324.08 190.429 324.329C190.379 324.404 190.33 324.392 190.305 324.379C190.242 324.354 190.193 324.317 190.155 324.255C190.118 324.205 190.068 324.205 190.006 324.217C189.856 324.267 189.782 324.093 189.72 323.894C189.707 323.856 189.732 323.682 189.769 323.57L190.504 321.043L190.529 320.993C190.765 320.333 191.114 319.698 191.251 319.972C191.363 320.183 192.409 320.445 192.483 320.545C192.608 320.694 193.604 320.881 193.915 320.968C193.953 320.98 194.513 321.242 195.085 321.553C195.646 321.877 196.243 322.225 196.418 322.263C196.704 322.3 197.227 322.673 197.264 322.698C197.326 322.698 199.493 323.906 199.667 324.006C199.717 324.031 199.742 324.08 199.792 324.093C200.215 324.242 200.601 324.454 200.887 324.778C200.887 324.778 200.887 324.802 200.912 324.802C201.298 324.852 201.46 325.151 201.734 325.338C202.145 325.649 202.543 325.973 202.917 326.321C203.029 326.421 203.078 326.57 203.153 326.695C203.253 326.844 203.327 327.019 203.601 327.006C203.651 327.006 203.676 327.018 203.676 327.068C203.676 327.28 203.95 327.268 204.049 327.392C204.186 327.554 204.323 327.716 204.46 327.878C204.473 327.902 204.485 327.927 204.51 327.94C204.747 328.114 205.008 328.276 205.232 328.475C205.294 328.537 205.294 328.649 205.282 328.762C205.27 328.923 205.319 329.023 205.469 329.048C205.668 329.098 205.556 329.297 205.083 329.708C204.796 329.969 204.485 330.218 204.124 330.455C203.688 330.753 203.228 331.065 202.78 331.364C202.282 331.7 200.763 332.758 200.539 332.795C200.476 332.795 200.427 332.795 200.439 332.77C200.514 332.447 200.252 332.384 200.14 332.223C200.041 332.061 199.854 331.986 199.816 331.762C199.792 331.625 199.692 331.538 199.493 331.55C199.318 331.55 198.684 330.953 198.584 330.878L198.547 330.89Z" fill="#231F20"/>
<g opacity="0.55">
<path d="M170.434 406.213C170.235 406.35 169.986 406.4 169.762 406.499C169.662 406.537 169.55 406.549 169.513 406.674C169.451 406.91 168.691 406.636 168.766 406.811C168.915 407.172 166.998 407.993 166.923 408.155C166.886 408.23 166.811 408.255 166.774 408.317C166.724 408.379 166.699 408.454 166.649 408.516C166.612 408.554 166.55 408.578 166.488 408.603C166.425 408.616 166.326 408.603 166.288 408.641C166.214 408.74 165.653 409.039 165.591 409.176C165.591 409.201 165.517 409.176 165.467 409.176C165.131 409.114 163.861 409.96 163.537 410.085C163.487 410.097 163.437 410.135 163.437 410.197C163.412 410.446 161.47 411.342 161.62 411.566C161.657 411.629 161.632 411.666 161.62 411.691C161.57 411.728 161.52 411.766 161.445 411.778C161.383 411.79 161.358 411.828 161.358 411.89C161.333 412.027 161.147 412.027 160.96 412.027C160.922 412.027 160.786 411.94 160.711 411.878L158.943 410.458L158.906 410.421C158.457 410.01 158.071 409.512 158.32 409.487C158.532 409.462 159.055 408.641 159.155 408.603C159.316 408.541 159.752 407.719 159.914 407.47C159.939 407.396 161.458 405.877 161.607 405.566C161.694 405.317 162.118 404.918 162.155 404.893C162.155 404.831 163.699 403.188 163.798 403.026C163.823 402.988 163.873 402.976 163.898 402.939C164.097 402.565 164.359 402.266 164.695 402.079C164.695 402.079 164.72 402.079 164.72 402.067C164.807 401.706 165.118 401.631 165.33 401.42C165.666 401.096 165.99 400.76 166.351 400.449C166.45 400.361 166.6 400.336 166.712 400.287C166.861 400.224 167.023 400.175 167.023 399.888C167.023 399.838 167.035 399.814 167.073 399.814C167.272 399.851 167.272 399.577 167.396 399.49C167.558 399.378 167.708 399.278 167.87 399.166C167.894 399.154 167.919 399.154 167.932 399.129C168.081 398.88 168.293 398.718 168.529 398.606C168.592 398.569 168.716 398.618 168.828 398.668C168.99 398.743 169.102 398.73 169.152 398.606C169.214 398.432 169.413 398.606 169.799 399.191C170.036 399.552 170.26 399.901 170.459 400.312C170.721 400.81 170.995 401.345 171.256 401.855C171.542 402.428 172.489 404.196 172.526 404.47C172.526 404.532 172.526 404.607 172.501 404.594C172.215 404.495 172.165 404.819 172.003 404.943C171.878 405.08 171.742 405.204 171.517 405.204C171.368 405.192 171.268 405.279 171.256 405.478C171.256 405.678 170.521 406.126 170.434 406.188V406.213Z" fill="#231F20"/>
</g>
<path d="M195.023 479.282C194.837 479.17 194.687 479.008 194.538 478.858C194.476 478.796 194.426 478.697 194.314 478.721C194.102 478.759 194.09 478.037 193.965 478.149C193.691 478.41 192.484 477.016 192.347 476.991C192.272 476.991 192.235 476.916 192.185 476.891C192.123 476.866 192.048 476.866 191.986 476.829C191.936 476.804 191.911 476.754 191.886 476.717C191.861 476.667 191.861 476.58 191.811 476.555C191.712 476.505 191.351 476.107 191.201 476.095C191.176 476.095 191.189 476.032 191.189 475.995C191.151 475.721 190.243 474.8 190.118 474.526C190.093 474.489 190.068 474.451 190.006 474.464C189.745 474.501 188.91 472.907 188.711 473.069C188.649 473.119 188.612 473.094 188.599 473.069C188.562 473.032 188.537 472.982 188.524 472.92C188.524 472.87 188.475 472.845 188.425 472.845C188.288 472.845 188.3 472.671 188.325 472.496C188.325 472.459 188.412 472.322 188.487 472.248L189.969 470.43L190.006 470.392C190.429 469.919 190.902 469.508 190.89 469.733C190.878 469.919 191.475 470.28 191.5 470.355C191.525 470.504 192.16 470.729 192.347 470.828C192.396 470.853 193.567 471.824 193.828 471.849C194.015 471.874 194.326 472.135 194.351 472.148C194.376 472.173 195.795 472.87 195.932 472.882C195.97 472.882 195.982 472.932 196.007 472.932C196.318 472.957 196.567 473.044 196.766 473.244C196.766 473.244 196.766 473.256 196.779 473.256C197.065 473.181 197.165 473.393 197.352 473.468C197.65 473.58 197.962 473.692 198.248 473.829C198.335 473.866 198.372 473.966 198.435 474.04C198.509 474.127 198.572 474.227 198.783 474.103C198.821 474.078 198.846 474.078 198.846 474.103C198.858 474.264 199.057 474.14 199.144 474.19C199.244 474.264 199.368 474.314 199.48 474.376C199.493 474.376 199.505 474.401 199.518 474.401C199.717 474.414 199.916 474.426 200.091 474.451C200.14 474.451 200.153 474.551 200.153 474.638C200.153 474.762 200.215 474.812 200.327 474.762C200.476 474.688 200.414 474.899 200.128 475.484C199.941 475.846 199.754 476.219 199.518 476.593C199.231 477.066 198.933 477.551 198.646 478.037C198.323 478.56 197.327 480.215 197.14 480.352C197.09 480.39 197.04 480.415 197.04 480.365C197.028 480.041 196.779 480.103 196.642 479.979C196.517 479.867 196.343 479.867 196.256 479.68C196.206 479.556 196.094 479.518 195.932 479.593C195.783 479.668 195.111 479.282 195.023 479.232V479.282Z" fill="#231F20"/>
<g opacity="0.45">
<path d="M292.743 440.649C292.556 440.786 292.332 440.861 292.12 440.973C292.033 441.023 291.921 441.035 291.896 441.16C291.847 441.384 291.137 441.16 291.199 441.334C291.349 441.683 289.531 442.48 289.456 442.629C289.419 442.691 289.344 442.716 289.307 442.778C289.257 442.828 289.232 442.915 289.182 442.965C289.145 443.002 289.083 443.027 289.033 443.04C288.971 443.052 288.883 443.04 288.846 443.065C288.759 443.152 288.236 443.426 288.186 443.563C288.186 443.588 288.112 443.563 288.074 443.563C287.775 443.513 286.605 444.297 286.294 444.372C286.244 444.384 286.207 444.409 286.194 444.484C286.194 444.633 285.721 444.845 285.273 445.069C284.85 445.318 284.314 445.405 284.389 445.542C284.426 445.617 284.389 445.642 284.364 445.654C284.314 445.679 284.252 445.692 284.177 445.679C284.115 445.679 284.09 445.704 284.065 445.754C284.015 445.878 283.841 445.829 283.654 445.754C283.617 445.741 283.493 445.629 283.43 445.542L281.899 443.675L281.862 443.637C281.476 443.127 281.152 442.529 281.389 442.567C281.575 442.604 282.086 441.919 282.173 441.907C282.31 441.869 282.808 441.284 282.982 441.098C283.019 441.048 284.551 440.077 284.688 439.803C284.787 439.604 285.186 439.33 285.211 439.305C285.248 439.28 286.568 437.935 286.642 437.811C286.667 437.773 286.717 437.773 286.73 437.736C286.891 437.425 287.103 437.163 287.389 437.026C287.389 437.026 287.414 437.026 287.414 437.014C287.464 436.69 287.738 436.64 287.9 436.466C288.161 436.18 288.423 435.893 288.697 435.632C288.771 435.557 288.896 435.532 288.995 435.495C289.12 435.433 289.257 435.395 289.22 435.146C289.22 435.109 289.22 435.072 289.257 435.084C289.431 435.122 289.394 434.86 289.493 434.798C289.618 434.711 289.73 434.599 289.842 434.499C289.855 434.487 289.879 434.487 289.892 434.462C290.004 434.263 290.104 434.038 290.228 433.852C290.265 433.802 290.353 433.827 290.452 433.852C290.589 433.889 290.664 433.852 290.664 433.702C290.664 433.503 290.851 433.652 291.299 434.163C291.573 434.487 291.847 434.823 292.12 435.209C292.457 435.682 292.805 436.167 293.141 436.653C293.515 437.188 294.698 438.819 294.747 439.043C294.747 439.106 294.76 439.155 294.722 439.143C294.386 439.031 294.349 439.292 294.175 439.379C294.013 439.454 293.926 439.628 293.714 439.628C293.577 439.628 293.49 439.716 293.49 439.915C293.49 440.089 292.843 440.587 292.755 440.662L292.743 440.649Z" fill="#231F20"/>
</g>
<path d="M303.201 62.7422C310.298 65.282 316.996 68.8801 322.885 73.636C328.724 78.4043 333.853 84.3679 336.829 91.5391C337.887 94.1411 338.734 96.8677 339.182 99.6565C339.381 101.051 339.58 102.47 339.58 103.852L339.642 105.931L339.667 106.965L339.58 108.01C339.456 109.231 339.418 110.463 339.232 111.671L338.534 115.294L337.439 118.829C337.003 119.975 336.468 121.095 335.982 122.228C333.816 126.661 330.716 130.57 327.08 133.745C319.747 140.131 310.671 143.792 301.508 145.821C293.328 147.552 284.887 148.112 276.645 147.427C271.342 147.004 266.063 146.02 260.971 144.327C255.941 142.597 250.899 140.293 247.039 136.496C245.944 135.201 245.52 134.629 245.633 134.579C245.745 134.516 246.442 134.965 247.712 135.575C250.251 136.807 254.833 138.65 260.299 140.48C265.179 142.111 270.308 142.933 275.438 143.48C280.58 143.978 285.784 143.966 290.938 143.48C301.209 142.46 311.493 139.683 320.108 134.081L321.079 133.458L321.988 132.761L323.819 131.354L325.512 129.773L326.358 128.976L327.118 128.105C329.259 125.864 330.853 123.175 332.21 120.411C334.712 114.758 335.534 108.359 334.774 102.159C334.027 95.4359 330.903 89.0989 326.433 83.8574C321.951 78.5911 316.199 74.3581 309.987 71.1211C302.292 67.1993 293.764 64.6346 285.161 64.3109C272.101 64.1491 258.68 67.772 247.525 74.6444C238.847 79.9855 231.726 87.4181 227.231 96.2203C226.223 98.15 225.451 100.13 224.679 102.171C223.297 105.981 222.774 108.596 222.164 110.388C221.853 111.285 221.554 112.007 221.243 112.592C220.969 113.19 220.658 113.65 220.322 114.074C220.01 114.46 219.699 114.982 219.425 115.194C218.965 115.568 218.641 114.895 218.392 113.277C218.13 111.671 218.081 109.106 218.728 105.906C219.712 101.175 221.417 96.5066 223.808 92.1242C226.235 87.7792 229.261 83.6831 232.809 80.0975C239.906 72.8641 248.807 67.411 258.356 63.8752C265.453 61.2482 272.948 59.6297 280.555 59.194C284.389 58.9574 288.361 59.1815 292.133 59.804C295.93 60.4141 299.653 61.3603 303.251 62.6053L303.226 62.7298L303.201 62.7422Z" fill="#231F20"/>
<path d="M191.351 210.299C189.683 205.88 189.533 200.738 191.314 196.243C191.973 194.612 192.758 193.019 193.878 191.649C195.908 189.284 198.51 187.479 201.361 186.508C202.083 186.271 202.805 186.01 203.577 185.897C204.324 185.711 205.096 185.661 205.868 185.624C207.411 185.586 208.968 185.798 210.399 186.296C212.964 187.142 215.292 188.624 217.01 190.591C219.301 193.056 220.484 196.343 220.621 199.505C220.409 200.551 220.471 200.377 219.787 199.717C219.139 199.045 218.106 197.849 217.122 196.58C216.288 195.409 215.342 194.413 214.421 193.492C213.96 193.019 213.437 192.658 212.977 192.21C212.466 191.849 211.981 191.438 211.42 191.164C209.279 189.881 206.814 189.545 204.212 189.869C202.668 190.106 201.049 190.828 199.692 191.811C198.323 192.795 197.178 194.065 196.281 195.459C194.277 198.547 193.667 202.568 194.501 206.34C194.999 208.656 195.995 210.984 197.339 212.989C199.369 216.039 202.344 218.579 205.818 219.774C208.507 220.733 211.383 220.82 214.085 220.347C214.67 220.21 215.255 220.085 215.853 219.948C218.044 219.45 218.816 219.5 219.675 220.297C219.874 220.484 220.11 220.645 220.26 220.832C220.77 221.455 220.073 222.488 218.255 223.409C215.541 224.629 212.354 225.065 209.167 224.754C205.98 224.443 202.817 223.31 200.066 221.517C198.024 220.197 196.194 218.529 194.737 216.599C193.268 214.682 192.061 212.565 191.251 210.337L191.351 210.287V210.299Z" fill="#231F20"/>
<path d="M317.083 298.807C315.763 297.45 315.14 295.881 314.642 294.574L314.032 292.831C314.032 292.731 313.983 292.607 313.87 292.569C313.821 292.557 313.758 292.544 313.709 292.544H313.621L313.285 292.632C312.775 292.781 312.227 292.993 311.679 293.242C310.571 293.74 309.463 294.375 308.38 295.047C307.596 295.545 306.824 296.093 306.102 296.665C305.766 296.927 305.33 297.275 305.106 297.475C305.031 297.549 304.894 297.612 304.894 297.736C304.894 297.786 304.894 297.836 304.894 297.898C304.894 297.948 304.894 297.985 304.931 298.222C304.994 298.608 305.068 299.006 305.155 299.417L305.691 301.932C306.052 303.637 306.388 305.38 306.612 307.148C307.085 310.672 307.16 314.32 306.5 317.893C305.902 321.043 304.72 324.155 302.927 326.819C301.819 328.55 300.387 330.081 298.781 331.339C297.2 332.621 295.42 333.642 293.552 334.339C292.332 334.688 292.481 334.588 293.154 333.704C293.477 333.244 293.988 332.696 294.511 331.949C295.059 331.227 295.669 330.417 296.428 329.683C297.063 328.998 297.698 328.326 298.233 327.579C298.507 327.218 298.794 326.857 299.018 326.471C299.279 326.11 299.59 325.773 299.814 325.388C300.823 323.918 301.632 322.325 302.205 320.632C303.338 317.258 303.761 313.548 303.562 309.713C303.462 307.422 303.014 305.082 302.441 302.716C302.167 301.521 301.844 300.338 301.582 299.043L301.483 298.508C301.433 298.271 301.42 297.998 301.408 297.749C301.396 297.5 301.358 297.238 301.408 296.989L301.458 296.616C301.545 296.516 301.545 296.379 301.607 296.279C301.806 295.831 302.18 295.47 302.553 295.122L302.84 294.873L303.039 294.698L303.425 294.387C305.691 292.656 307.994 291.15 310.658 289.967C311.343 289.681 312.015 289.407 312.837 289.22C313.883 288.984 314.991 288.946 315.887 289.469C316.336 289.731 316.672 290.129 316.883 290.602L317.195 291.324L317.419 291.922C317.643 292.557 317.867 293.192 318.103 293.777C318.427 294.611 318.788 295.346 319.236 295.943C319.361 296.08 319.473 296.23 319.597 296.367C319.734 296.504 319.871 296.628 319.946 296.69C320.12 296.84 320.32 296.952 320.531 297.064C320.693 297.138 320.855 297.226 321.042 297.263C321.228 297.288 321.403 297.201 321.515 297.051C321.726 296.765 321.789 296.392 321.839 296.03L321.863 295.769L321.888 295.333C321.901 295.047 321.901 294.748 321.901 294.449C321.901 293.852 321.876 293.242 321.826 292.644C321.739 291.436 321.577 290.204 321.365 289.009C321.253 288.411 321.129 287.813 320.967 287.266C320.83 286.743 320.519 286.257 320.307 285.747C320.058 285.261 319.685 284.863 319.373 284.44C318.95 284.141 318.626 283.693 318.116 283.506C316.684 282.697 314.904 282.609 313.173 282.896C311.443 283.182 309.737 283.792 308.106 284.589C307.396 284.95 306.712 285.323 306.027 285.747C303.462 287.253 302.665 287.689 301.57 287.428C301.321 287.365 301.035 287.353 300.823 287.253C300.138 286.992 300.698 285.56 302.641 283.979C304.06 282.809 305.666 281.85 307.409 281.053C309.152 280.269 311.007 279.609 313.086 279.372C315.14 279.136 317.506 279.273 319.685 280.455C319.959 280.605 320.232 280.742 320.481 280.904L321.204 281.489L321.901 282.099C322.1 282.323 322.274 282.572 322.461 282.809C323.27 283.755 323.669 284.801 324.154 285.871C324.627 287.303 324.814 288.448 325.013 289.706C325.2 290.938 325.337 292.183 325.399 293.453C325.424 294.088 325.437 294.736 325.412 295.408L325.387 295.918C325.387 296.068 325.349 296.441 325.312 296.703C325.25 297.275 325.138 297.836 324.963 298.346C324.627 299.392 324.055 300.214 323.196 300.712C322.76 300.973 322.262 301.098 321.801 301.123C321.328 301.135 320.83 300.998 320.332 300.911L319.411 300.525L318.514 300.027C318.216 299.853 317.942 299.641 317.668 299.429C317.406 299.218 317.269 299.081 317.07 298.894L317.12 298.819L317.083 298.807Z" fill="#231F20"/>
<path d="M288.61 375.324C291.897 376.644 295.295 377.677 298.732 378.424C299.989 378.698 301.259 378.798 302.516 378.96C304.72 379.259 306.949 379.371 309.078 379.097C310.111 378.91 311.169 378.723 312.066 378.287C312.315 378.2 312.526 378.088 312.725 377.951C312.912 377.827 313.198 377.702 313.323 377.59C313.647 377.366 313.883 377.117 314.02 376.818C314.269 376.295 314.219 375.474 313.883 374.64C313.584 373.805 313.024 372.996 312.489 372.187C311.792 371.129 310.858 370.232 310.111 369.149C309.314 368.103 308.492 367.033 307.546 366.086C306.973 365.489 307.086 365.489 307.808 365.713C308.169 365.837 308.667 366.012 309.277 366.248C309.887 366.472 310.646 366.734 311.356 367.145C311.978 367.518 312.663 367.854 313.211 368.34C313.759 368.825 314.294 369.336 314.817 369.884C315.875 370.979 316.759 372.287 317.369 374.03C317.656 374.901 317.855 375.947 317.668 377.117C317.506 378.287 316.821 379.445 316.025 380.167C315.838 380.342 315.614 380.528 315.415 380.665L314.867 381.014C314.493 381.251 314.132 381.475 313.746 381.624C312.987 381.998 312.215 382.222 311.443 382.433C307.77 383.243 304.135 383.454 300.612 383.081C296.752 382.682 293.042 381.649 289.444 380.454C287.228 379.707 285.061 378.835 282.92 377.914C279.683 376.52 276.571 374.826 273.52 373.071C271.167 371.689 268.74 370.444 266.548 368.664C266.063 368.265 265.552 367.929 265.117 367.456C263.411 365.8 263.398 364.742 264.046 363.758C264.195 363.522 264.332 363.273 264.519 363.086C265.166 362.463 266.187 362.775 267.407 363.584C269.076 364.916 270.956 366.099 272.873 367.331C274.803 368.552 276.82 369.747 278.924 370.855C282.036 372.498 285.273 374.017 288.635 375.237L288.597 375.349L288.61 375.324Z" fill="#231F20"/>
<path d="M262.465 176.61C263.997 179.274 265.677 181.938 267.881 184.117C269.562 185.785 271.753 187.404 274.143 187.852C277.517 188.487 281.377 187.454 282.883 184.08C284.141 181.266 283.63 178.079 282.759 175.228C282.41 174.107 281.24 173.385 280.082 173.709C278.924 174.033 278.215 175.265 278.563 176.386C278.762 177.033 278.949 177.68 279.086 178.353C279.148 178.651 279.198 178.938 279.248 179.237C279.198 178.863 279.273 179.535 279.285 179.672C279.323 180.158 279.285 180.631 279.285 181.104C279.285 181.241 279.198 181.503 279.31 181.005C279.285 181.104 279.285 181.204 279.26 181.303C279.211 181.49 279.173 181.677 279.123 181.864C279.049 182.113 278.887 182.399 279.111 181.976C279.036 182.125 278.962 182.287 278.874 182.424C278.787 182.561 278.7 182.698 278.601 182.835C278.825 182.486 278.762 182.635 278.563 182.835C278.538 182.86 278.239 183.158 278.227 183.146C278.227 183.146 278.7 182.822 278.227 183.133C278.103 183.208 277.978 183.283 277.841 183.358C277.38 183.619 278.215 183.246 277.816 183.382C277.555 183.47 277.306 183.557 277.032 183.607C276.945 183.619 276.683 183.719 276.609 183.681C276.584 183.681 277.231 183.644 276.87 183.644C276.783 183.644 276.696 183.656 276.609 183.669C276.347 183.681 276.086 183.694 275.824 183.669C275.687 183.669 275.563 183.644 275.426 183.644C274.89 183.619 275.886 183.744 275.476 183.644C275.251 183.594 275.04 183.557 274.816 183.507C274.704 183.482 274.604 183.445 274.504 183.407C274.255 183.32 274.392 183.37 274.255 183.308C273.06 182.772 272.201 182.137 271.355 181.341C269.213 179.336 267.757 176.971 266.275 174.381C264.881 171.953 261.108 174.145 262.515 176.585L262.465 176.61Z" fill="#231F20"/>
<path d="M281.464 221.679C282.783 224.293 285.348 226.335 288.199 227.02C291.498 227.804 294.847 226.883 297.437 224.754C298.383 223.97 298.308 222.252 297.437 221.455C296.429 220.533 295.146 220.621 294.138 221.455C293.976 221.567 293.963 221.604 294.138 221.455C294.001 221.542 293.864 221.641 293.727 221.729C293.503 221.866 293.279 221.99 293.042 222.115C292.843 222.214 292.669 222.276 292.98 222.164C292.855 222.214 292.731 222.252 292.619 222.301C292.345 222.401 292.059 222.476 291.772 222.538C291.648 222.563 291.511 222.588 291.386 222.613C291.05 222.7 291.934 222.575 291.324 222.613C291.063 222.637 290.801 222.65 290.54 222.65C290.415 222.65 290.278 222.65 290.154 222.65C290.154 222.65 289.544 222.6 289.88 222.637C290.179 222.675 289.768 222.613 289.706 222.6C289.556 222.575 289.407 222.538 289.257 222.501C289.021 222.438 288.797 222.364 288.573 222.289C288.149 222.152 288.797 222.413 288.548 222.289C288.436 222.239 288.324 222.189 288.224 222.127C287.987 222.003 287.751 221.866 287.514 221.716C287.415 221.654 287.315 221.579 287.216 221.517C286.991 221.368 287.116 221.43 287.253 221.554C286.842 221.181 286.481 220.807 286.095 220.409C286.22 220.546 286.282 220.67 286.132 220.446C286.07 220.347 285.995 220.247 285.933 220.147C285.771 219.898 285.622 219.625 285.485 219.363C284.937 218.268 283.306 217.869 282.285 218.529C281.165 219.251 280.854 220.558 281.451 221.729L281.464 221.679Z" fill="#231F20"/>
<path d="M258.942 159.217C259.004 159.03 259.066 158.856 259.141 158.682C259.315 158.209 258.992 158.993 259.141 158.694C259.303 158.383 259.452 158.059 259.627 157.761C259.788 157.487 259.95 157.213 260.137 156.951C260.224 156.814 260.324 156.69 260.411 156.565C260.598 156.304 260.087 156.951 260.411 156.565C260.872 156.03 261.345 155.52 261.88 155.059C262.004 154.959 262.129 154.86 262.241 154.748C262.478 154.536 261.83 155.034 262.241 154.748C262.527 154.536 262.814 154.337 263.113 154.15C263.386 153.976 263.66 153.826 263.947 153.664C264.171 153.552 264.756 153.391 264.893 153.204C264.768 153.378 264.47 153.378 264.893 153.216C265.042 153.154 265.192 153.104 265.341 153.054C265.677 152.942 266.013 152.843 266.35 152.756C266.686 152.668 267.034 152.606 267.383 152.544C267.756 152.482 267.37 152.606 267.246 152.556C267.358 152.594 267.694 152.519 267.819 152.507C268.516 152.457 269.225 152.482 269.923 152.556C271.305 152.706 272.624 151.237 272.575 149.905C272.5 148.336 271.404 147.427 269.923 147.253C262.938 146.493 256.116 151.237 253.887 157.761C253.439 159.068 254.398 160.711 255.73 161.01C257.199 161.346 258.506 160.562 258.979 159.167L258.942 159.217Z" fill="#231F20"/>
<path d="M289.756 152.018C287.752 155.053 287.45 169.073 293.649 177.462C299.025 184.737 308.478 182.799 310.134 190.794C311.79 198.789 304.547 203.596 304.547 203.596" stroke="#231F20" stroke-width="4"/>
</svg>
