<svg width="520" height="520" viewBox="0 0 520 520" fill="none" xmlns="http://www.w3.org/2000/svg">
<g clip-path="url(#clip0_421_99)">
<rect width="520" height="520" fill="white"/>
<circle cx="260" cy="260" r="249" fill="#EBF7F0"/>
<mask id="mask0_421_99" style="mask-type:alpha" maskUnits="userSpaceOnUse" x="11" y="11" width="498" height="498">
<circle cx="260" cy="260" r="249" fill="#EBF7F0"/>
</mask>
<g mask="url(#mask0_421_99)">
</g>
<path d="M123.243 374.939C102.764 363.974 92.4275 352.397 85.3574 343.018C109.262 343.018 120.086 352.941 129.106 362.8L123.243 374.939Z" fill="white"/>
<path d="M381.853 17.3057C382.203 17.4631 382.521 17.6201 382.826 17.8552C384.76 19.3441 387.733 30.2196 388.067 32.8681C388.216 34.0317 388.051 34.6474 387.323 35.5703C386.721 35.7708 386.037 35.9285 385.423 35.6738C384.948 35.4778 384.63 35.1042 384.445 34.6394C383.867 33.1698 381.435 20.741 381.387 19.0574C381.368 18.4038 381.578 17.8864 381.853 17.3057Z" fill="black"/>
<path d="M419.826 22.2433C420.332 22.2007 420.836 22.2132 421.342 22.2174C421.421 22.5743 421.371 22.5802 421.209 22.9054C420.513 24.2992 410.83 35.2486 409.378 36.5124C408.938 36.8955 408.44 37.0892 407.891 37.2665C407.61 37.1708 407.25 37.0717 406.985 36.9222C406.5 36.6455 406.195 36.255 406.084 35.6996C405.941 34.9865 406.333 34.1791 406.688 33.5803C408.45 30.6071 416.625 23.1242 419.826 22.2433Z" fill="black"/>
<path d="M223.978 11.6382C225.259 11.6374 257.16 19.0981 257.834 19.4849C258.516 19.876 258.963 20.2583 259.221 21.0161C259.187 21.7189 258.927 21.9958 258.494 22.5049C256.019 22.8685 238.367 17.8309 234.599 16.8834C232.041 16.2406 229.451 15.7684 226.889 15.1541C225.533 14.8289 224.307 14.6688 223.53 13.4037C223.429 12.6488 223.64 12.2805 223.978 11.6382Z" fill="black"/>
<path d="M418.245 267.535C422.532 267.479 427.689 267.069 431.476 269.334C427.424 270.319 423.311 270.074 419.175 270.245C412.412 270.523 405.594 270.779 398.882 271.651C396.648 271.899 389.348 273.678 387.856 273.276C387.347 272.903 387.117 272.74 386.87 272.132C386.936 271.823 386.915 271.709 387.151 271.466C390.479 268.023 413.332 267.611 418.245 267.535Z" fill="black"/>
<path d="M63.9802 365.211C66.3798 365.118 68.9051 365.802 71.1928 366.466C74.3737 367.415 77.4871 368.549 80.5331 369.866C84.7474 371.665 107.657 382.438 109.098 385.357C109.314 385.796 109.264 385.867 109.102 386.293C106.44 385.944 101.864 383.175 99.3157 381.936C89.9226 377.367 76.6277 370.072 66.6002 368.032C65.4836 367.808 64.2128 367.631 63.5453 366.621C63.5381 365.927 63.6458 365.795 63.9802 365.211Z" fill="black"/>
<path d="M145.574 338.852C145.91 339.349 146.129 339.531 146.067 340.152C146.007 340.762 145.5 341.497 145.153 341.98C142.248 346.02 138.622 349.476 135.81 353.651C129.919 362.397 125.13 372.381 121.125 382.107C120.458 383.727 119.813 385.36 119.283 387.032C118.73 388.779 118.403 391.305 117.396 392.8C117.006 392.494 117.046 392.317 116.984 391.83C116.223 385.83 124.11 369.382 126.916 363.718C127.89 361.829 128.889 359.955 129.913 358.095C131.224 355.71 132.646 353.392 134.179 351.141C135.893 348.665 142.964 339.592 145.574 338.852Z" fill="black"/>
<path d="M72.1545 344.739C69.5592 349.127 67.1237 353.831 65.1405 358.528C64.1158 360.956 63.6079 364.045 62.1764 366.214L61.8497 366.082C61.5817 365.475 61.5109 364.978 61.5181 364.309C61.5524 361.136 63.0757 357.712 64.265 354.803C69.7784 341.315 77.5507 329.467 86.2076 317.818C88.3214 314.975 90.4472 311.688 93.0814 309.307C93.9805 308.493 94.3213 308.404 95.4949 308.459C95.6966 309.088 95.8799 309.616 95.5577 310.245C93.79 313.688 89.4609 318.848 87.0349 322.13C81.671 329.385 76.4409 336.781 72.1545 344.739Z" fill="black"/>
<path d="M397.297 328.246C406.495 325.491 439.237 319.506 447.303 323.615C446.845 324.09 446.407 324.532 445.777 324.769C442.843 325.887 437.09 325.689 433.876 325.866C427.638 326.207 421.668 327.126 415.507 328.093C411.837 328.669 408.119 329.153 404.494 329.969C402.39 330.442 400.262 330.939 398.209 331.586C396.038 332.268 393.317 333.985 391.065 333.998C390.662 333.998 390.248 333.887 389.946 333.605C389.507 333.195 389.541 333.016 389.597 332.477C391.03 330.294 394.973 329.203 397.297 328.246Z" fill="black"/>
<path d="M439.629 268.216C439.635 268.15 439.64 268.084 439.645 268.018C439.825 264.676 438.429 260.057 439.348 256.953C439.759 256.665 439.757 256.699 440.263 256.76C440.427 256.902 440.501 256.953 440.636 257.108C440.811 257.312 440.933 257.531 441.044 257.774C442.42 260.81 442.499 267.133 443.029 270.589C443.549 273.971 444.333 277.363 445.038 280.711C445.857 284.59 447.054 288.373 448.006 292.22C449.36 297.7 450.457 303.238 451.898 308.702C453.125 313.347 455.272 319.041 455.582 323.723C455.621 324.318 455.664 324.812 455.287 325.308C454.752 325.34 454.556 325.152 454.188 324.788C453.859 324.463 453.578 324.061 453.327 323.678C449.172 314.259 446.993 303.764 444.834 293.745C444.033 290.033 442.947 286.386 442.173 282.666C441.18 277.873 440.509 273.03 439.629 268.216Z" fill="black"/>
<path d="M278.891 52.0176L278.976 51.625C279.931 46.9737 280.13 27.2289 283.646 24.847C284.01 24.6005 284.008 24.6605 284.41 24.6797C285.135 25.5128 284.975 27.3174 284.902 28.373C284.614 32.5257 283.797 36.6478 283.423 40.7968C282.918 46.3927 282.785 52.0091 282.451 57.6143C282.172 62.2848 281.699 66.947 281.525 71.6234C281.389 75.3013 281.518 79.0024 281.548 82.6822C281.557 83.8213 281.785 85.4002 281.571 86.4875C281.502 86.8368 281.282 87.1271 281.1 87.4233C280.679 87.2149 280.327 87.0355 279.973 86.7192C274.835 82.1313 279.145 59.1129 278.891 52.0176Z" fill="black"/>
<path d="M278.57 88.7408C278.385 88.8526 278.201 88.9678 278.008 89.065C277.54 89.3007 277.06 89.4061 276.534 89.3887C274.841 89.3321 272.99 88.7817 271.318 88.4697C268.544 87.9407 265.754 87.522 262.947 87.2134C251.511 85.9596 240.045 85.0873 228.551 84.5965C226.313 84.5038 214.927 84.4681 213.839 84.0456C213.329 83.8472 212.874 83.5161 212.701 82.9727C212.513 82.3869 212.654 82.1182 212.907 81.6167C215.723 79.5125 234.581 81.0026 239.31 80.9968L239.541 81.0351C247.697 82.3121 273.593 81.8259 278.387 88.4771C278.449 88.564 278.509 88.6528 278.57 88.7408Z" fill="black"/>
<path d="M406.691 256.857C411.125 256.099 428.041 253.28 431.616 255.227C431.807 255.33 431.828 255.375 431.955 255.52C431.756 256.044 431.574 256.231 431.06 256.482C428.942 257.518 424.353 257.486 421.854 257.83C418.208 258.325 414.572 258.892 410.947 259.531C399.894 261.486 387.909 263.901 377.309 267.593C378.83 271.696 380.044 275.913 381.414 280.069C386.836 296.493 388.37 303.682 386.671 321.012C386.221 325.599 385.816 330.384 383.889 334.627C383.825 334.765 383.761 334.901 383.696 335.037C382.996 325.628 385.198 316.203 384.035 306.692C384.469 299.875 379.578 285.546 377.545 278.79C376.703 275.987 376.016 273.141 375.182 270.335C374.747 268.879 373.332 266.657 373.417 265.241C373.456 264.623 373.552 264.536 373.981 264.15C374.826 264.139 375.009 264.403 375.685 264.884C377.121 264.691 378.42 263.912 379.787 263.447C381.509 262.863 383.274 262.382 385.023 261.888C392.183 259.943 399.406 258.267 406.691 256.857Z" fill="black"/>
<path d="M377.158 119.088C379.774 121.054 382.477 126.701 384.082 129.668C397.329 154.132 406.047 182.051 409.913 209.554C411.7 222.252 412.248 235.005 410.568 247.736C410.335 249.499 410.303 252.252 409.15 253.658C408.628 254.297 408.074 254.376 407.285 254.458C406.938 253.988 406.691 253.533 406.649 252.936C406.53 251.253 407.118 249.155 407.37 247.47C407.702 245.314 407.946 243.147 408.101 240.97C408.724 232.679 408.207 224.082 407.317 215.817C405.014 194.458 399.415 173.232 391.711 153.2C390.24 149.35 388.656 145.545 386.96 141.786C385.266 138.027 383.463 134.321 381.552 130.668C380.471 128.619 376.287 121.849 376.151 120.218C376.427 119.543 376.578 119.492 377.158 119.088Z" fill="black"/>
<path d="M239.31 80.9967C240.94 80.4609 242.618 80.0781 244.262 79.5832C255.783 76.1143 268.201 68.7772 275.194 58.8109C276.633 56.759 277.521 54.525 278.705 52.3545L278.891 52.0176C279.144 59.1129 274.835 82.1313 279.973 86.7192C280.327 87.0354 280.679 87.2149 281.1 87.4233C280.262 88.2979 279.775 88.593 278.569 88.7407C278.508 88.6527 278.449 88.5639 278.387 88.477C273.593 81.8259 247.697 82.312 239.541 81.0351L239.31 80.9967Z" fill="#B7BBB7"/>
<path d="M212.138 13.2175C211.911 11.7077 209.975 4.20817 210.532 3.45066C210.871 2.98907 211.263 2.73516 211.835 2.69552C214.372 2.52008 222.517 5.18736 225.695 5.85927C232.925 7.3883 240.294 8.75827 247.591 9.92876C254.119 10.9759 260.937 11.3888 267.54 11.5701C269.612 11.6269 275.427 11.2263 276.963 11.6155C277.451 11.7392 277.85 11.898 278.209 12.2615C278.465 12.5205 278.454 12.7744 278.53 13.1142C278.33 13.7993 278.171 14.231 277.499 14.6028C275.158 15.8966 270.673 15.2337 268.018 15.1135C264.443 14.951 260.855 14.8662 257.29 14.5301C250.698 13.9087 244.389 12.7575 237.897 11.5286C233.721 10.7381 229.517 10.0088 225.38 9.03861C221.631 8.15955 217.939 7.03081 214.199 6.10949C218.553 23.5883 216.802 47.5481 213.775 65.2188C213.042 69.4972 212.128 75.6644 209.877 79.3882C209.456 80.0837 208.923 80.7794 208.09 80.9699C207.729 81.0528 207.555 80.9249 207.22 80.8068C206.709 80.2665 206.614 79.9798 206.458 79.2527C207.501 76.6805 208.544 74.0981 209.297 71.4239C211.326 64.22 212.449 54.5673 212.786 47.0445C211.407 48.8882 209.731 50.9967 207.611 52.0205C206.901 52.3638 206.332 52.5022 205.582 52.2295L205.503 51.7991C206.121 49.9435 208.645 48.1106 210.183 46.9705C212.153 45.5105 211.528 46.4944 213.165 46.7179L212.845 46.8543C213.245 44.1862 213.412 41.1947 213.314 38.4934C214.069 34.7333 213.142 24.7347 213.025 20.4589C212.972 18.0165 212.56 15.6168 212.138 13.2175Z" fill="black"/>
<path d="M439.629 268.216C440.508 273.03 441.179 277.873 442.173 282.666C442.946 286.386 444.033 290.033 444.833 293.745C446.993 303.764 449.171 314.259 453.326 323.678C451.344 323.62 449.261 323.287 447.303 323.615C439.237 319.506 406.495 325.491 397.297 328.246C399.279 326.45 401.68 325.012 403.802 323.366C405.85 321.777 407.835 320.116 409.759 318.381C411.685 316.645 413.543 314.843 415.335 312.972C424.257 303.64 436.817 287.01 439.366 274.216C439.78 272.134 439.679 270.319 439.629 268.216Z" fill="#B7BBB7"/>
<path d="M95.4947 308.459L97.3303 308.945C102.088 309.447 107.132 312.192 111.417 314.232C121.846 319.194 135.098 325.512 142.581 334.601C143.966 335.771 144.931 337.156 145.574 338.852C142.964 339.592 135.893 348.665 134.179 351.141C132.646 353.392 131.224 355.71 129.913 358.095C128.889 359.955 127.89 361.829 126.916 363.718C125.142 359.694 122.198 356.94 118.599 354.496C105.724 345.756 87.3969 341.795 72.1543 344.739C76.4407 336.78 81.6708 329.385 87.0347 322.13C89.4607 318.848 93.7898 313.688 95.5575 310.245C95.8797 309.616 95.6964 309.088 95.4947 308.459Z" fill="#B7BBB7"/>
<path d="M95.0481 320.729C100.647 320.753 110.042 325.33 115.172 327.885C118.535 329.56 132.772 336.427 133.842 339.626L133.597 340.065C129.948 339.079 126.352 336.733 123.008 335C118.638 332.742 114.23 330.56 109.784 328.455C107.803 327.517 105.822 326.595 103.772 325.816C101.954 325.126 96.1062 323.607 94.9946 322.764C94.83 322.64 94.7315 322.447 94.5998 322.288C94.546 321.562 94.6909 321.329 95.0481 320.729Z" fill="black"/>
<path d="M97.3298 308.945C102.088 309.447 107.132 312.193 111.417 314.232C121.845 319.194 135.098 325.512 142.58 334.601C142.592 334.852 142.541 335.05 142.489 335.296C142.232 335.33 142.217 335.349 141.92 335.288C141.249 335.153 131.613 328.17 129.602 326.96C122.605 322.745 115.117 319.218 107.79 315.606C105.565 314.488 103.303 313.449 101.005 312.491C99.8743 312.026 98.4968 311.691 97.4475 311.085C97.1825 310.935 97.0423 310.729 96.8902 310.473C96.8454 309.725 96.9782 309.585 97.3298 308.945Z" fill="black"/>
<path d="M185.997 33.9927C186.09 31.165 186.251 28.3416 186.273 25.5116C186.305 21.4783 185.521 9.11421 187.077 6.23846C187.389 5.66088 187.838 5.27617 188.49 5.15041C189.26 5.00165 190.133 5.44765 190.685 5.9457C194.332 9.2331 194.5 17.7798 194.993 22.3457C195.462 26.6887 195.893 30.9922 196.184 35.3534C198.523 31.0953 204.779 15.9403 207.705 13.6307C208.787 12.7768 210.053 12.8236 211.357 12.9602L212.138 13.2175C212.56 15.6169 212.972 18.0165 213.025 20.4589C213.142 24.7348 214.069 34.7333 213.314 38.4934C213.411 41.1948 213.245 44.1862 212.844 46.8543L213.165 46.718C211.528 46.4944 212.152 45.5105 210.183 46.9706C208.645 48.1107 206.121 49.9435 205.503 51.7991L205.582 52.2296C206.331 52.5022 206.901 52.3638 207.611 52.0206C209.731 50.9967 211.407 48.8883 212.786 47.0445C212.449 54.5674 211.325 64.22 209.297 71.4239C208.543 74.0981 207.501 76.6806 206.458 79.2527L205.133 82.0125C205.325 82.5266 205.5 83.0324 205.444 83.5888C205.023 87.7524 201.139 97.1379 199.542 101.575C201.928 103.075 214.709 110.335 215.233 112.093C215.373 112.564 215.247 113.008 214.885 113.342C214.838 113.386 214.789 113.426 214.738 113.464C214.686 113.501 214.632 113.536 214.577 113.567C214.521 113.598 214.463 113.625 214.404 113.649C214.345 113.673 214.285 113.694 214.224 113.71C214.162 113.727 214.099 113.74 214.036 113.749C213.973 113.758 213.91 113.763 213.846 113.765C213.782 113.766 213.718 113.764 213.655 113.757C213.591 113.751 213.528 113.741 213.466 113.727C213.043 113.633 212.614 113.442 212.21 113.285C209.555 111.765 206.59 111.005 203.809 109.777C191.62 104.395 179.815 98.5829 166.566 96.2232L166.449 96.5426C165.026 100.327 162.022 104.867 160.095 108.613C157.093 114.446 154.413 120.413 151.518 126.293C150.056 129.26 148.356 132.11 146.919 135.088C144.456 140.191 142.347 145.526 140.186 150.765C134.437 164.703 129.297 178.899 125.715 193.564C124.599 198.131 123.853 202.749 123.134 207.39C120.708 223.052 119.343 240.642 125.937 255.523C130.711 266.298 137.852 276.013 144.864 285.417C148.421 290.213 152.012 294.986 155.634 299.735C160.94 306.575 166.496 313.242 171.951 319.963C175.783 324.685 179.563 329.14 182.974 334.199C185.637 338.221 188.057 342.382 190.234 346.684C191.953 350.002 193.778 352.88 194.006 356.703C193.022 356.259 192.297 355.633 191.592 354.822C189.719 352.663 188.275 350.023 186.792 347.593C184.154 343.265 181.619 338.855 178.725 334.693C172.553 325.816 165.246 317.691 158.467 309.265C149.739 298.399 141.372 287.262 133.367 275.855C132.148 274.124 130.792 272.491 129.59 270.75C128.046 268.512 127.048 265.888 125.749 263.502C122.946 258.358 120.291 253.32 118.669 247.655C114.474 233.002 117.265 213.232 120.049 198.374C123.235 181.369 129.69 164.153 136.292 148.21C138.151 143.721 139.924 139.171 141.949 134.754C143.823 130.666 146.238 126.855 148.091 122.755C151.201 115.875 158.622 99.3816 163.237 94.1776C163.792 93.5527 164.56 93.0719 165.247 92.6018C168.683 92.8164 171.985 93.6991 175.319 94.5013C178.463 88.1791 183.15 81.9903 184.803 75.0622C185.694 71.3286 184.63 67.2794 183.861 63.6055C182.982 59.4041 182.42 54.8913 181.015 50.839C179.255 45.7647 177.119 40.7311 175.066 35.7648C172.979 30.7143 169.576 24.6925 169.409 19.1629C169.378 18.147 169.424 16.6864 170.29 15.9786C170.762 15.5931 171.384 15.6005 171.948 15.7331C175.642 16.6016 183.682 30.2427 185.997 33.9927ZM189.38 9.00825C189.03 15.4689 189.14 21.9777 188.699 28.4167C188.569 30.3143 187.494 36.6933 188.169 38.0389C189.382 39.118 190.087 39.0992 190.244 40.9356C190.308 41.687 190.248 42.7106 189.658 43.2649C189.299 43.6021 188.664 43.745 188.188 43.6525C186.723 43.3685 185.623 40.8497 185.002 39.6383C181.749 33.2904 177.242 25.4962 172.601 20.0753C175.335 30.2186 180.779 40.2039 184.187 50.3031C185.535 54.2997 186.148 58.6487 187.042 62.7721C187.871 66.5893 188.926 70.7177 188.247 74.6326C187.246 80.3992 183.91 85.9916 181.136 91.0675C184.447 93.0394 187.832 94.8165 191.191 96.6961C193.276 97.8627 195.286 99.1639 197.403 100.274C198.356 96.7022 201.328 83.988 203.335 82.0312C203.989 81.7311 204.462 81.8772 205.133 82.0125L206.458 79.2527C207.501 76.6806 208.543 74.0981 209.297 71.4239C211.325 64.22 212.449 54.5674 212.786 47.0445C211.407 48.8883 209.731 50.9967 207.611 52.0206C206.901 52.3638 206.331 52.5022 205.582 52.2296L205.503 51.7991C206.121 49.9435 208.645 48.1107 210.183 46.9706C212.152 45.5105 211.528 46.4944 213.165 46.718L212.844 46.8543C213.245 44.1862 213.411 41.1948 213.314 38.4934C214.069 34.7333 213.142 24.7348 213.025 20.4589C212.972 18.0165 212.56 15.6169 212.138 13.2175L211.357 12.9602C211.299 13.6165 211.337 13.8524 210.936 14.3922C209.548 14.7782 209.436 15.025 208.737 16.2592C206.225 20.7683 203.854 25.3503 201.625 30.0051C200.393 32.549 199.378 35.2644 197.877 37.6653C197.405 38.4202 196.739 39.4385 195.83 39.698C195.497 39.7933 195.252 39.6554 194.933 39.5645C193.908 38.7188 193.832 37.3174 193.706 36.0692C193.48 33.8107 193.38 31.5368 193.114 29.2822C192.861 27.1363 192.43 25.0138 192.179 22.8675C191.624 18.1153 191.458 13.4218 189.38 9.00825Z" fill="black"/>
<path d="M189.381 9.00806C191.459 13.4216 191.624 18.1151 192.179 22.8673C192.43 25.0136 192.862 27.1361 193.115 29.282C193.38 31.5366 193.481 33.8105 193.707 36.069C193.832 37.3172 193.908 38.7186 194.934 39.5643C195.252 39.6552 195.497 39.7932 195.83 39.6978C196.739 39.4383 197.405 38.42 197.877 37.6651C199.378 35.2642 200.393 32.5488 201.626 30.0049C203.855 25.3501 206.225 20.7681 208.737 16.259C209.437 15.0248 209.548 14.778 210.936 14.392C211.338 13.8522 211.3 13.6163 211.358 12.96L212.138 13.2173C212.56 15.6167 212.973 18.0163 213.026 20.4587C213.142 24.7346 214.07 34.7331 213.314 38.4932C213.412 41.1946 213.245 44.186 212.845 46.8541L213.165 46.7178C211.529 46.4942 212.153 45.5103 210.183 46.9704C208.645 48.1105 206.121 49.9433 205.503 51.799L205.583 52.2294C206.332 52.502 206.901 52.3636 207.612 52.0204C209.731 50.9965 211.408 48.8881 212.787 47.0443C212.45 54.5672 211.326 64.2198 209.297 71.4238C208.544 74.0979 207.501 76.6804 206.459 79.2525L205.134 82.0123C204.463 81.877 203.989 81.7309 203.335 82.031C201.328 83.9878 198.357 96.702 197.403 100.274C195.287 99.1637 193.277 97.8625 191.192 96.6959C187.833 94.8163 184.447 93.0392 181.137 91.0673C183.911 85.9914 187.246 80.399 188.247 74.6324C188.926 70.7175 187.871 66.5891 187.043 62.7719C186.148 58.6485 185.536 54.2995 184.187 50.303C180.78 40.2037 175.336 30.2184 172.602 20.0751C177.242 25.4961 181.749 33.2902 185.002 39.6381C185.623 40.8495 186.723 43.3683 188.188 43.6523C188.665 43.7448 189.3 43.6019 189.659 43.2647C190.249 42.7104 190.309 41.6868 190.244 40.9354C190.088 39.099 189.382 39.1178 188.169 38.0387C187.495 36.6931 188.57 30.3141 188.7 28.4165C189.141 21.9775 189.031 15.4687 189.381 9.00806ZM213.026 20.4587L212.531 22.1318C212.065 24.8759 210.406 27.4547 209.161 29.9206C207.261 33.6813 205.097 37.6038 203.582 41.5304L203.549 43.1791C203.752 42.7928 203.97 42.3978 204.28 42.0847C205.851 40.4989 209.49 38.9442 211.708 38.9685L213.314 38.4932C214.07 34.7331 213.142 24.7346 213.026 20.4587Z" fill="#B7BBB7"/>
<path d="M203.549 43.1791C203.753 42.7928 203.97 42.3978 204.28 42.0847C205.851 40.4989 209.49 38.9442 211.708 38.9685C211.77 39.5836 211.849 39.8907 211.434 40.3884C210.22 41.8446 206.914 44.2281 205.017 44.4083C204.646 44.4434 204.343 44.2859 204.021 44.1324C203.73 43.7472 203.576 43.6745 203.549 43.1791Z" fill="black"/>
<rect x="277.041" y="111.476" width="25.2571" height="30.5726" fill="#B7BBB7"/>
<path d="M203.582 41.5305C203.04 42.0259 202.511 42.3322 201.768 42.3826C201.373 42.1287 201.316 42.0571 201.241 41.577C200.979 39.8887 209.324 23.0897 210.759 20.8444L211.278 20.7815C211.958 21.0499 212.176 21.5385 212.531 22.1319C212.065 24.8761 210.406 27.4548 209.16 29.9208C207.261 33.6814 205.097 37.604 203.582 41.5305Z" fill="black"/>
<path d="M336.965 50.4567C335.113 49.0262 333.724 46.8623 332.089 45.1855C330.007 43.0501 327.436 41.088 325.653 38.7111C324.964 37.7938 324.41 36.7908 324.246 35.643C324.097 34.6118 324.315 33.5779 324.945 32.7374C325.65 31.8018 326.702 31.2723 327.855 31.1371C330.529 30.824 333.112 32.3942 335.086 34.0406C338.038 36.5054 346.77 47.2285 348.617 50.6292C349.298 51.8848 349.621 53.1905 349.878 54.5851C351.182 55.6665 352.698 56.748 353.848 57.9814C357.761 62.1814 364.99 71.559 365.441 77.2648C365.677 80.2288 364.225 82.6606 362.314 84.7857C359.063 88.4013 353.76 92.1704 354.11 97.5575C354.497 103.51 359.648 108.729 361.712 114.196C364.251 113.815 371.212 112.503 373.2 113.946C373.626 114.255 373.846 114.585 374.077 115.047C375.648 115.868 376.128 117.715 377.159 119.088C376.578 119.492 376.427 119.543 376.152 120.218C376.287 121.849 380.471 128.619 381.552 130.668C383.464 134.322 385.266 138.028 386.961 141.786C388.656 145.545 390.24 149.35 391.712 153.201C399.415 173.233 405.014 194.459 407.317 215.817C408.207 224.083 408.724 232.679 408.101 240.97C407.946 243.147 407.702 245.314 407.37 247.47C407.118 249.156 406.53 251.253 406.649 252.936C406.692 253.534 406.938 253.988 407.285 254.458L406.692 256.857C399.406 258.267 392.183 259.944 385.023 261.888C383.274 262.382 381.51 262.863 379.787 263.447C378.42 263.912 377.121 264.691 375.685 264.884C375.01 264.403 374.827 264.139 373.981 264.15C373.552 264.536 373.457 264.623 373.417 265.241C373.332 266.657 374.747 268.879 375.182 270.335C376.016 273.141 376.703 275.987 377.545 278.79C379.578 285.546 384.47 299.875 384.035 306.692C381.764 309.437 379.414 312.024 376.867 314.52C376.748 315.155 376.65 315.884 376.35 316.465C375.002 319.068 369.161 324.973 366.957 327.649C359.677 336.482 352.912 346.242 347.867 356.531C346.953 358.396 340.625 372.395 340.074 372.736C339.514 373.079 339.056 373.029 338.431 372.939C337.808 375.053 337.259 377.151 336.822 379.312C336.441 381.191 330.717 382.779 330.004 384.552C329.766 385.141 329.395 385.564 328.947 386C332.127 395.921 321.448 405.625 326.811 414.614C327.492 415.758 328.245 417.436 329.14 418.403C329.074 418.435 329.013 418.474 328.947 418.501C327.847 418.934 325.643 418.828 324.556 418.398C324.246 418.524 323.939 418.643 323.6 418.67C320.144 418.953 326.482 418.704 323 418.704L311.052 419.008H274.652C268.444 419.008 262.208 419.13 256.003 418.992C255.389 418.979 254.977 418.929 254.406 418.704C253.495 419.124 252.898 419.027 251.981 418.739C250.008 419.463 227.533 419.013 223.986 419.013C214.034 419.013 223.97 419.33 214.029 418.982C213.571 418.966 213.257 418.879 212.835 418.715C212.767 418.746 212.702 418.783 212.633 418.81C211.521 419.214 209.692 419.164 208.646 418.633C208.62 417.571 209.035 416.334 209.274 415.298C211.182 407.063 214.511 399.223 217.827 391.482C220.117 386.021 202.493 380.598 204.954 375.211C202.269 369.663 199.564 364.444 196.038 359.366C195.454 358.523 194.804 357.334 194.007 356.703C193.778 352.88 191.954 350.002 190.235 346.684C188.058 342.382 185.638 338.221 182.974 334.199C179.563 329.14 175.784 324.685 171.951 319.963C166.496 313.242 160.941 306.575 155.635 299.735C152.012 294.986 148.422 290.213 144.864 285.417C137.852 276.013 130.712 266.298 125.938 255.523C119.344 240.642 120.709 223.052 123.135 207.39C123.854 202.749 124.6 198.131 125.715 193.564C129.297 178.899 134.438 164.703 140.187 150.765C142.348 145.526 144.456 140.191 146.919 135.088C148.356 132.11 150.057 129.26 151.518 126.293C154.414 120.413 157.094 114.446 160.095 108.613C162.022 104.867 165.026 100.327 166.45 96.5426L166.567 96.2232C179.815 98.5829 191.62 104.395 203.81 109.777C206.59 111.005 209.556 111.765 212.211 113.285C211.879 114.253 211.276 115.529 211.15 116.523C211.449 117.588 211.187 118.816 210.839 119.844C210.031 122.233 208.897 124.575 207.906 126.897C206.288 130.636 204.74 134.405 203.262 138.202C199.567 147.697 196.494 157.37 193.238 167.016L193.428 166.756C195.175 164.344 196.424 161.449 197.836 158.827C199.92 154.927 202.135 151.102 204.478 147.351C217.688 126.202 237.538 104.267 263.36 99.75C276.397 97.4695 289.78 100.517 301.087 107.185C306.863 106.977 311.301 109.641 315.453 113.458C319.887 117.533 324.513 123.589 325.722 129.612C328.594 127.579 331.498 125.513 334.541 123.741C336.841 122.401 339.393 121.278 341.592 119.801L341.515 119.63C341.377 119.588 341.213 119.552 341.094 119.466C340.49 119.035 338.982 115.453 338.497 114.606C336.653 111.389 334.631 108.199 332.495 105.168C328.61 99.6554 323.435 93.6479 318.466 89.0877C315.104 86.0004 311.023 83.1167 308.174 79.5672C306.937 78.0281 306.107 76.3257 305.853 74.356C305.641 72.6964 305.856 70.9109 306.966 69.5871C307.703 68.7065 308.786 68.1236 309.944 68.0806C314.462 67.913 318.787 75.3357 321.935 78.068C323.695 78.1016 327.895 74.774 329.455 73.5953C328.501 73.1118 327.638 72.7028 326.996 71.8076C326.183 70.671 325.926 69.3491 326.204 67.9838C327.015 63.968 335.007 56.2938 338.468 53.9687C338.001 52.7802 337.493 51.619 336.965 50.4567ZM341.589 270.34C345.739 265.497 348.988 260.496 351.765 254.773C353.087 252.046 354.234 249.124 355.785 246.527C355.488 244.503 355.435 241.786 355.869 239.789C354.121 232.961 354.274 225.571 353.018 218.599C351.595 210.69 348.646 200.457 345.805 192.919C343.895 187.848 341.666 182.889 339.562 177.895C345.951 205.518 346.791 242.373 341.589 270.34ZM210.111 258.144C207.501 260.842 207.811 266.562 207.877 270.042C207.916 272.116 208.089 274.195 208.268 276.264C213.232 281.21 223.537 286.659 230.68 286.526C231.506 286.511 232.251 286.297 233.044 286.098C233.252 286.048 233.46 286.003 233.668 285.953C237.357 280.508 239.286 273.469 240.007 266.998L240.109 266.171C238.807 265.238 237.339 264.533 235.984 263.674C233.714 262.24 231.646 260.567 229.654 258.773C230.617 260.829 231.692 262.823 232.881 264.758C234.074 266.697 235.803 268.795 236.521 270.956C236.68 271.437 236.688 271.915 236.471 272.383C236.222 272.917 235.742 273.231 235.185 273.371C231.105 274.404 226.02 271.405 222.747 269.297C221.334 268.381 219.964 267.405 218.637 266.369C217.309 265.334 216.03 264.242 214.798 263.096C213.298 261.677 211.844 259.114 210.111 258.144ZM318.175 229.205C316.858 231.366 316.702 234.862 315.978 237.35C315.324 239.604 314.492 241.802 313.654 243.995C311.691 249.113 309.42 254.221 306.775 259.029C305.633 261.106 303.579 264.079 302.673 266.031C302.553 266.29 302.546 266.417 302.505 266.67C302.765 267.077 302.597 266.945 302.966 267.112C307.695 261.603 319.275 236.6 318.686 229.739C318.681 229.653 318.662 229.569 318.649 229.484L318.175 229.205ZM201.577 212.53L201.597 212.719C201.958 216.519 201.694 220.419 201.834 224.239C202.062 230.435 203.239 236.303 204.879 242.254C205.376 244.061 205.813 246.471 206.969 247.948L207.771 248.186C207.608 245.549 206.35 242.595 205.607 240.043C205.129 238.456 204.716 236.851 204.368 235.229C204.021 233.608 203.74 231.976 203.527 230.332C203.148 227.312 203.151 215.016 202.464 213.56C202.299 213.21 202.062 212.89 201.76 212.646C201.704 212.6 201.638 212.568 201.577 212.53ZM279.603 133.883L280.656 134.423C282.301 132.743 283.623 130.407 285.093 128.537C287.443 125.548 290.028 122.835 292.695 120.13C293.709 119.102 297.251 116.096 297.59 114.89C297.343 114.412 297.312 114.466 296.792 114.293C295.281 114.782 293.978 116.782 292.901 117.892C288.132 122.806 282.95 127.835 279.603 133.883Z" fill="black"/>
<path d="M336.964 50.4565C337.452 50.0596 337.794 49.9127 337.831 49.2281C338.038 45.6414 326.648 37.8794 327.123 34.6272C327.544 34.1304 327.889 33.8427 328.572 33.8128C330.817 33.7148 333.477 36.2302 334.951 37.7433C337.261 40.1126 339.143 42.8169 341.199 45.3964C343.255 47.9739 345.46 50.4839 347.376 53.1642C345.036 52.3229 343.057 51.6893 340.664 52.8257C339.922 53.1774 339.214 53.6411 338.467 53.9685C338.001 52.78 337.492 51.6188 336.964 50.4565Z" fill="#B7BBB7"/>
<path d="M342.267 55.3586C342.9 55.3734 343.542 55.417 344.164 55.542C348.028 56.317 351.457 59.7576 353.643 62.8276C352.119 62.2008 350.659 61.7662 349.022 61.5564C343.746 60.8805 340.16 62.9348 336.148 66.0674C334.254 67.7462 332.59 69.377 331.09 71.422C330.21 71.0669 329.338 70.7192 329.007 69.7382C328.644 68.6604 329.219 67.38 329.786 66.4804C331.371 63.9632 336.829 58.25 339.315 56.6089C340.25 55.9922 341.178 55.6081 342.267 55.3586Z" fill="#B7BBB7"/>
<path d="M337.468 76.384C336.445 76.7296 334.349 77.7336 333.379 77.2557C332.958 77.0477 332.637 76.7965 332.446 76.3473C332.02 75.3441 332.566 74.0679 333.061 73.1965C335.168 69.4908 339.961 65.5675 344.111 64.4445C347.935 63.4101 351.761 64.6472 355.042 66.6003C356.91 67.7126 358.746 68.8786 360.005 70.6803C360.498 71.3861 360.951 71.9858 361.598 72.5568C362.326 75.2016 363.434 77.8325 361.982 80.4403C361.232 81.786 360.077 82.8962 359.017 83.9969C354.53 88.6546 349.668 92.7019 351.565 99.9565C352.628 104.02 355.548 107.177 356.878 111.096C351.282 113.435 345.979 115.37 341.591 119.801L341.514 119.63C342.256 118.179 342.005 117.001 341.509 115.489C338.181 105.346 327.844 93.5051 319.987 86.3109C316.897 83.4843 313.036 80.8469 310.495 77.5238C309.305 75.9695 308.009 73.6433 308.984 71.6889C309.173 71.3092 309.408 71.0611 309.732 70.7863C310.572 70.6912 311.027 70.878 311.687 71.4003C315.031 74.042 321.02 84.4514 325.549 84.1792C326.005 84.1518 325.861 84.1753 326.259 83.9816C326.439 83.4323 326.352 83.1229 326.108 82.5958C325.599 81.4839 324.378 80.6511 323.453 79.891C325.734 78.6135 327.687 76.9405 329.691 75.273C329.884 76.6073 330.006 78.043 331.193 78.9039C332.089 79.5528 333.379 79.7129 334.442 79.9235L336.482 78.8323C336.262 79.9042 336.026 80.9626 335.944 82.0557C336.53 83.4341 337.108 84.9201 338.607 85.531C339.726 85.9865 340.926 85.6927 341.97 85.1793C345.277 83.5541 347.021 79.7961 350.542 78.6447C352.517 77.9992 356.64 79.2701 357.342 77.9477C357.088 77.1566 356.833 76.9769 356.099 76.5972C354.372 75.705 352.713 75.3522 350.81 75.952C346.785 77.2216 343.433 83.0045 339.871 83.1094C339.341 82.6613 339.188 82.2705 339.121 81.5775C338.894 79.2146 340.786 75.757 342.328 73.996C344.042 72.0368 346.194 71.0003 348.812 70.8946C351.621 70.781 357.013 73.652 358.288 72.3423C358.264 71.8072 358.238 71.5538 357.806 71.1895C355.498 69.2351 350.556 67.9121 347.58 68.42C344.008 69.0298 340.727 71.3232 338.735 74.2843C338.279 74.962 337.873 75.6754 337.468 76.384Z" fill="#B7BBB7"/>
<path d="M297.991 251.716C298.166 252.714 296.981 254.453 296.506 255.327C293.335 261.169 289.502 267.038 284.617 271.601C283.338 272.792 275.554 278.193 275.37 279.075C275.266 279.572 275.453 280.156 275.732 280.563C276.467 281.633 278.098 282.153 279.325 282.264C286.321 282.901 293.22 277.479 298.312 273.44C295.15 287.137 284.506 310.026 275.811 321.081C274.884 322.259 273.875 323.477 272.727 324.452C272.036 325.039 271.216 325.528 270.599 326.188C269.916 326.92 269.067 328.394 269.24 329.438C269.332 329.993 269.764 330.453 270.229 330.738C274.527 333.375 290.059 329.811 295.158 328.439C293.04 332.091 290.49 334.992 287.162 337.594C282.688 340.82 277.531 342.675 271.992 342.81C263.178 343.024 254.849 339.005 248.608 332.963C239.545 324.185 234.586 311.344 234.888 298.805C234.923 296.927 235.075 295.058 235.343 293.198C235.599 291.451 236.066 289.583 236.022 287.818C236.021 287.758 236.017 287.694 236.014 287.633C240.283 281.678 242.34 274.56 242.974 267.323C247.94 269.188 253.077 270.195 258.395 270.195C273.952 270.187 287.308 262.453 297.991 251.716Z" fill="#B7BBB7"/>
<path d="M224.091 155.283C228.213 154.219 232.568 153.875 236.735 152.878C238.329 152.51 239.914 152.111 241.493 151.682C243.071 151.254 244.64 150.795 246.201 150.306C247.762 149.816 249.312 149.297 250.853 148.749C252.393 148.2 253.922 147.622 255.441 147.014C256.959 146.407 258.465 145.77 259.958 145.105C261.452 144.439 262.932 143.746 264.399 143.023C265.865 142.301 267.318 141.551 268.755 140.773C270.193 139.995 271.615 139.189 273.022 138.357C275.255 137.006 277.639 135.603 279.603 133.883L280.655 134.423C280.626 134.662 280.623 134.642 280.623 134.929C280.639 142.818 291.693 159.857 297.006 166.062C298.916 168.292 301.094 170.145 303.231 172.137C304.289 173.122 305.195 174.189 305.794 175.519C308.094 180.627 309.027 191.455 309.22 197.189C309.562 207.39 307.911 228.385 303.746 237.458C301.72 241.871 298.285 246.061 294.968 249.57C284.821 260.303 272.427 266.219 257.615 266.53C247.729 266.739 237.795 262.416 230.719 255.666C217.008 242.587 213.765 226.65 213.362 208.529C213.295 205.751 213.322 202.975 213.443 200.199C213.563 197.423 213.778 194.655 214.086 191.893C214.943 183.865 218.792 160.816 224.091 155.283Z" fill="#B7BBB7"/>
<path d="M253.736 208.366C254.311 208.333 254.983 208.28 255.541 208.441C256.149 208.617 256.859 209.154 257.138 209.728C257.421 210.309 257.483 210.86 257.298 211.474C257.004 212.45 256.388 212.825 255.556 213.315C254.641 213.431 253.699 213.356 252.985 212.697C252.547 212.293 252.356 211.722 252.342 211.141C252.313 209.932 252.932 209.188 253.736 208.366Z" fill="black"/>
<path d="M234.456 165.562C235.227 165.474 236.027 165.35 236.794 165.527C237.464 165.682 237.977 166.058 238.324 166.659C238.592 167.122 238.675 167.704 238.459 168.203C237.591 170.214 232.33 170.17 230.368 170.585C229.033 170.868 227.809 171.32 226.546 171.83C225.703 172.192 224.744 172.66 223.815 172.704C223.241 172.731 223.019 172.632 222.623 172.24C222.597 171.693 222.734 171.366 223.03 170.921C225.242 167.594 230.8 166.282 234.456 165.562Z" fill="black"/>
<path d="M270.822 234.076C271.213 234.183 271.631 234.311 271.966 234.551C272.485 234.923 272.626 235.17 272.739 235.78C272.172 237.34 270.366 238.309 268.951 239.038C264.337 241.416 258.476 242.492 253.463 240.885C252.616 240.41 251.759 239.884 251.546 238.864C251.468 238.491 251.624 238.415 251.815 238.122C253.185 237.4 254.364 238.288 255.765 238.481C261.385 239.258 266.442 237.49 270.822 234.076Z" fill="black"/>
<path d="M277.71 169.679C280.297 169.553 282.66 169.999 285.08 170.9C287.888 171.944 293.754 174.503 294.881 177.538C295.068 178.043 295.037 178.298 294.825 178.776C294.229 178.979 294.057 178.931 293.427 178.821C290.022 176.664 286.448 175.288 282.583 174.209C280.854 173.726 278.962 174.292 277.344 173.788C276.62 173.562 276.239 173.085 275.881 172.455C275.816 172.003 275.79 171.73 275.938 171.286C276.227 170.417 276.943 170.047 277.71 169.679Z" fill="black"/>
<path d="M224.843 183.515C225.374 183.527 225.658 183.555 226.123 183.82C226.72 185.033 225.733 186.701 225.433 187.952C224.687 191.07 225.06 195.2 226.804 197.927C228.004 199.805 229.386 200.59 231.488 201.073C231.984 200.968 232.474 200.851 232.954 200.686C238.618 198.744 239.127 192.148 241.437 187.656C241.809 186.933 242.154 186.409 242.94 186.146L243.35 186.449C244.021 187.789 244.013 188.416 243.757 189.908C243.194 192.485 242.265 194.855 240.879 197.106C239.13 199.948 236.527 202.857 233.128 203.599C231.047 204.053 228.975 203.642 227.207 202.457C224.76 200.817 223.297 198.05 222.735 195.219C221.953 191.287 222.587 186.868 224.843 183.515Z" fill="black"/>
<path d="M267.968 188.898C268.481 189.118 268.916 189.186 269.125 189.767C269.485 190.767 268.504 194.126 268.433 195.451C268.314 197.645 268.796 200.185 269.677 202.197C270.616 204.344 272.226 206.276 274.482 207.096C276.503 207.831 278.564 207.518 280.49 206.663C284.63 204.826 286.945 200.924 288.55 196.89C289.163 195.349 288.844 191.749 290.105 190.873C290.594 190.533 290.9 190.592 291.448 190.648C291.772 190.859 292.054 191.033 292.241 191.387C292.653 192.165 292.43 193.07 292.232 193.871C291.441 197.289 290.383 200.482 288.365 203.394C286.08 206.692 282.67 209.547 278.603 210.209C278.442 210.237 278.281 210.26 278.119 210.28C277.957 210.3 277.795 210.315 277.632 210.327C277.47 210.339 277.307 210.346 277.144 210.35C276.981 210.354 276.818 210.353 276.655 210.349C276.493 210.344 276.33 210.335 276.167 210.323C276.005 210.31 275.843 210.294 275.681 210.273C275.519 210.252 275.358 210.228 275.198 210.199C275.038 210.17 274.878 210.138 274.719 210.101C274.56 210.064 274.402 210.024 274.246 209.979C274.089 209.935 273.933 209.887 273.779 209.835C273.625 209.782 273.472 209.727 273.32 209.667C273.168 209.607 273.018 209.543 272.87 209.476C272.722 209.409 272.575 209.338 272.43 209.264C272.286 209.189 272.143 209.111 272.002 209.03C271.861 208.948 271.722 208.863 271.585 208.775C271.448 208.686 271.314 208.594 271.182 208.499C268.21 206.335 266.684 202.703 266.225 199.157C265.819 196.024 265.967 191.495 267.968 188.898Z" fill="black"/>
<path d="M245.371 172.783C246.82 173.174 247.507 174.208 248.288 175.412C250.403 178.672 251.603 181.785 252.009 185.645C252.936 194.469 248.581 198.584 244.044 205.608C242.783 207.559 241.148 209.823 240.711 212.138C240.48 213.366 240.708 214.532 241.448 215.547C244.61 219.892 251.797 217.423 255.361 218.278C255.956 218.421 256.097 218.625 256.399 219.128C256.429 219.817 256.243 220.132 255.901 220.696C252.768 221.347 246.729 221.143 243.623 220.122C241.569 219.447 239.565 218.139 238.616 216.136C235.392 209.33 247.07 198.625 249.227 192.091C250.402 188.531 249.556 182.781 247.829 179.458C246.985 177.835 245.561 175.94 244.975 174.23C244.778 173.657 245.12 173.279 245.371 172.783Z" fill="black"/>
<path d="M166.567 96.2231C179.815 98.5829 191.62 104.395 203.81 109.777C206.59 111.005 209.556 111.765 212.211 113.285C211.879 114.253 211.276 115.529 211.15 116.523C210.266 117.233 209.393 117.923 208.7 118.83C204.481 124.347 199.608 136.74 197.003 143.439C186.861 137.472 165.062 130.712 153.29 132.836C157.281 135.013 161.752 135.318 166.119 136.331C170.474 137.359 174.787 138.538 179.059 139.869C182.331 140.907 185.597 142.032 188.749 143.394C191.12 144.417 193.463 145.708 195.902 146.533C191.938 158.69 188.28 171.067 183.801 183.043C181.75 188.526 178.977 193.763 176.882 199.258C170.006 217.296 162.15 244.407 163.805 263.867C163.881 264.79 163.98 265.71 164.1 266.628C164.22 267.546 164.363 268.46 164.528 269.371C164.692 270.281 164.879 271.188 165.088 272.09C165.296 272.991 165.526 273.888 165.778 274.779C166.03 275.671 166.304 276.555 166.598 277.432C166.893 278.311 167.209 279.181 167.546 280.043C167.883 280.906 168.24 281.76 168.618 282.605C168.996 283.451 169.395 284.287 169.813 285.113C176.592 298.432 188.551 310.433 202.955 315.128C206.615 316.322 212.643 317.963 216.262 316.069C217.443 315.448 218.621 314.28 218.944 312.948C219.528 310.544 218.105 308.433 217.058 306.377C212.883 298.186 210.519 289.568 208.845 280.571C215.676 285.639 223.806 289.922 232.515 289.864C229.569 302.345 232.064 315.752 238.781 326.64C244.432 335.8 253.355 343.37 264.011 345.843C272.25 347.754 280.453 346.33 287.601 341.846C292.301 338.894 295.847 334.627 298.744 329.967C299.209 329.221 298.769 328.003 299.206 327.517C299.928 326.714 306.68 324.891 308.217 324.283C312.928 322.415 318.358 320.36 322.256 317.083C332.127 308.784 338.282 287.285 340.784 275.004C347.297 268.943 352.888 261.449 355.732 252.958C356.23 251.47 356.826 249.816 356.908 248.236C356.932 247.781 356.847 247.427 356.704 247.002C356.315 246.598 356.336 246.574 355.785 246.526C355.488 244.503 355.435 241.786 355.869 239.789C356.129 239.805 355.952 239.807 356.389 239.667C356.527 239.438 356.641 239.234 356.723 238.978C357.549 236.453 357.11 232.899 357.046 230.246C356.556 209.308 348.058 186.906 338.29 168.59C344.671 165.809 350.972 163.493 357.814 162.094C361.175 161.407 364.603 161.038 367.958 160.337C368.902 160.14 370.203 159.831 370.682 158.889C370.926 158.412 370.979 157.868 370.749 157.376C370.526 156.902 370.097 156.55 369.604 156.386C368.17 155.907 365.125 156.908 363.591 157.228C354.15 159.197 345.437 161.233 336.92 165.949C335.19 162.787 333.067 159.846 331.287 156.713C328.009 150.956 324.211 142.067 319.744 137.497C331.342 127.96 345.662 120.396 360.496 117.681C363.954 117.048 367.328 116.699 370.847 116.759C371.414 116.769 372.174 116.84 372.712 116.627C373.523 116.308 373.761 115.791 374.077 115.047C375.648 115.868 376.128 117.715 377.159 119.088C376.578 119.492 376.427 119.543 376.152 120.218C376.287 121.849 380.471 128.619 381.552 130.668C383.464 134.322 385.266 138.028 386.96 141.786C388.656 145.545 390.24 149.35 391.712 153.2C399.415 173.233 405.014 194.459 407.317 215.817C408.207 224.082 408.724 232.679 408.101 240.97C407.946 243.147 407.702 245.314 407.37 247.47C407.118 249.155 406.53 251.253 406.649 252.936C406.692 253.534 406.938 253.988 407.285 254.458L406.691 256.857C399.406 258.267 392.183 259.943 385.023 261.888C383.274 262.382 381.51 262.863 379.787 263.447C378.42 263.912 377.121 264.691 375.685 264.884C375.01 264.403 374.827 264.139 373.981 264.15C373.552 264.536 373.457 264.623 373.417 265.241C373.332 266.657 374.747 268.879 375.182 270.335C376.016 273.141 376.703 275.987 377.545 278.79C379.578 285.546 384.47 299.875 384.035 306.692C381.764 309.437 379.414 312.023 376.867 314.52C376.748 315.154 376.65 315.884 376.35 316.465C375.002 319.068 369.161 324.973 366.957 327.649C359.677 336.482 352.912 346.242 347.867 356.531C346.953 358.396 337.471 380.659 336.92 381C336.361 381.343 349.056 463.029 348.431 462.939C349.5 482 353.187 484.5 356.399 504.915C357.08 506.059 357.832 507.737 358.728 508.704C358.662 508.736 358.601 508.775 358.535 508.802C357.435 509.235 355.23 509.13 354.144 508.699C353.834 508.826 353.526 508.945 353.187 508.971C349.732 509.254 336.07 509.005 332.588 509.005L311.052 509.008H274.652C268.444 509.008 262.208 509.13 256.003 508.992C255.389 508.979 254.977 508.929 254.406 508.704C253.495 509.124 252.898 509.026 251.981 508.738C250.008 509.462 227.533 509.013 223.986 509.013C214.034 509.013 203.97 509.33 194.029 508.982C193.571 508.966 193.257 508.879 192.835 508.715C192.767 508.746 192.702 508.783 192.633 508.81C191.521 509.214 189.692 509.164 188.646 508.633C188.62 507.571 189.035 506.334 189.274 505.298C191.182 497.063 189.318 492.242 192.633 484.5C194.923 479.039 194.541 474.698 197.003 469.312C194.318 463.763 212.371 395.078 208.845 390C208.261 389.157 194.804 357.334 194.007 356.703C193.778 352.879 191.954 350.002 190.235 346.684C188.058 342.382 185.638 338.221 182.974 334.199C179.563 329.14 175.784 324.685 171.951 319.963C166.496 313.242 160.941 306.575 155.635 299.735C152.012 294.986 148.422 290.213 144.864 285.417C137.852 276.013 130.712 266.298 125.938 255.523C119.344 240.642 120.709 223.052 123.135 207.39C123.854 202.749 124.6 198.131 125.715 193.564C129.297 178.899 134.438 164.703 140.187 150.765C142.348 145.526 144.456 140.191 146.919 135.088C148.356 132.11 150.057 129.26 151.518 126.293C154.414 120.413 157.094 114.446 160.095 108.613C162.022 104.867 165.026 100.327 166.45 96.5426L166.567 96.2231Z" fill="#FEFEFE"/>
<path d="M190.681 121.118C190.949 121.1 191.218 121.094 191.486 121.1C191.755 121.107 192.023 121.127 192.29 121.159C192.558 121.192 192.822 121.237 193.085 121.294C193.348 121.352 193.607 121.422 193.863 121.504C194.938 121.858 195.88 122.748 196.383 123.746C196.42 123.821 196.455 123.897 196.488 123.973C196.522 124.05 196.553 124.127 196.582 124.205C196.612 124.283 196.639 124.362 196.665 124.442C196.69 124.521 196.713 124.601 196.735 124.682C196.756 124.762 196.775 124.844 196.792 124.925C196.809 125.007 196.824 125.089 196.837 125.171C196.85 125.254 196.861 125.336 196.87 125.419C196.879 125.502 196.885 125.585 196.89 125.669C196.895 125.752 196.897 125.835 196.897 125.919C196.898 126.002 196.896 126.085 196.892 126.169C196.888 126.252 196.882 126.335 196.874 126.418C196.865 126.501 196.855 126.584 196.843 126.667C196.831 126.749 196.816 126.831 196.799 126.913C196.783 126.995 196.764 127.076 196.744 127.157C196.723 127.238 196.7 127.318 196.675 127.397C196.65 127.477 196.624 127.556 196.595 127.634C196.015 129.172 194.926 129.955 193.494 130.649C192.688 130.721 191.875 130.819 191.084 130.597C190.998 130.572 190.912 130.545 190.828 130.516C190.743 130.487 190.659 130.455 190.576 130.422C190.493 130.388 190.41 130.353 190.329 130.315C190.248 130.277 190.168 130.237 190.088 130.195C190.009 130.153 189.931 130.109 189.854 130.063C189.778 130.016 189.702 129.968 189.628 129.918C189.553 129.868 189.48 129.816 189.409 129.762C189.337 129.709 189.267 129.653 189.198 129.595C189.13 129.538 189.062 129.479 188.997 129.418C188.931 129.357 188.867 129.294 188.805 129.23C188.743 129.165 188.682 129.099 188.623 129.032C188.564 128.964 188.507 128.895 188.452 128.825C188.397 128.754 188.344 128.682 188.292 128.609C188.241 128.536 188.191 128.461 188.144 128.385C188.096 128.31 188.051 128.233 188.007 128.154C187.964 128.076 187.923 127.997 187.883 127.916C187.81 127.768 187.745 127.617 187.687 127.463C187.629 127.308 187.579 127.152 187.537 126.992C187.495 126.833 187.46 126.672 187.434 126.509C187.408 126.346 187.389 126.183 187.379 126.018C187.369 125.854 187.367 125.689 187.374 125.524C187.38 125.36 187.395 125.195 187.417 125.032C187.44 124.869 187.47 124.707 187.509 124.547C187.548 124.387 187.594 124.229 187.649 124.073C188.21 122.51 189.236 121.809 190.681 121.118Z" fill="black"/>
<path d="M341.03 140.042C341.95 140.027 342.835 140.121 343.696 140.468C345.347 141.134 346.703 142.529 347.4 144.154C347.991 145.532 348.14 147.158 347.543 148.56C346.905 150.055 345.797 150.765 344.337 151.342C343.574 151.379 342.798 151.377 342.061 151.166C340.434 150.701 339.014 149.496 338.245 147.998C337.532 146.603 337.339 144.968 337.863 143.476C338.378 142.018 339.66 140.731 341.03 140.042Z" fill="black"/>
<path d="M338.43 372.939C338.269 372.691 338.001 372.347 337.921 372.048C336.952 368.41 347.646 349.397 349.957 345.352C350.625 344.198 351.312 343.056 352.019 341.925C352.724 340.794 353.447 339.675 354.189 338.567C354.931 337.459 355.691 336.364 356.471 335.283C357.25 334.199 358.045 333.129 358.858 332.072C359.672 331.017 360.503 329.974 361.349 328.944C362.197 327.915 363.062 326.9 363.943 325.898C364.825 324.897 365.722 323.911 366.635 322.938C367.549 321.968 368.478 321.011 369.423 320.069C371.585 317.931 373.87 315.342 376.867 314.52C376.747 315.154 376.649 315.884 376.35 316.465C375.001 319.067 369.161 324.973 366.956 327.649C359.677 336.482 352.912 346.242 347.866 356.531C346.952 358.396 340.624 372.395 340.073 372.735C339.514 373.079 339.056 373.029 338.43 372.939Z" fill="black"/>
<path d="M356.384 504.209C356.312 504.1 356.23 504.012 356.168 503.88C355.171 501.814 354.221 497.523 353.479 494.952C347.354 473.768 341.938 439.003 339.264 415.017C338.429 407.507 337.949 399.837 337.253 392.272C336.911 388.547 336.116 384.658 336.004 380.911C335.967 379.592 336.18 378.285 336.644 377.362C336.925 376.796 337.061 377.043 337.415 377.12C340.881 381.999 342.242 406.249 343.36 414.94C344.328 422.483 345.531 429.933 346.668 437.377C349.869 458.006 353.255 477.652 358.655 496.342C359.341 498.721 360.098 502.21 361 504.22C360.933 504.286 360.872 504.369 360.805 504.424C359.698 505.325 357.478 505.105 356.384 504.209Z" fill="black"/>
<path d="M205.279 411.005C208.115 396.837 210.846 382.005 212.296 366.916C212.757 362.121 213.041 357.073 213.256 352.195C213.365 349.745 213.345 347.015 213.607 344.631C213.743 343.387 213.901 343.096 214.325 342.236C214.839 341.94 215.21 341.841 215.696 342.428C216.494 343.387 216.766 345.925 216.879 347.662C217.144 351.685 216.916 355.96 216.74 359.994C215.048 398.782 204.33 433.904 197.74 469.656C196.525 476.25 195.501 483.145 194.607 489.952C194.143 493.487 193.949 497.992 193.182 501.248C193.115 501.314 193.05 501.39 192.98 501.445C191.871 502.284 190.045 502.18 189.001 501.078C188.975 498.875 189.389 496.31 189.628 494.161C191.532 477.077 194.856 460.815 198.165 444.756C200.451 433.429 202.822 422.179 205.279 411.005Z" fill="black"/>
<path d="M256.415 360.555C256.981 358.563 257.895 353.873 259.671 352.816C260.184 352.808 260.481 352.869 260.851 353.265C261.288 353.736 261.442 354.232 261.38 354.861C261.115 357.546 259.303 363.173 258.596 366.175C256.555 374.839 254.592 383.716 253.666 392.576C252.961 399.316 253.45 465.784 254.182 472.49C254.354 474.062 254.692 475.637 254.822 477.203C254.869 477.769 254.822 478.273 254.405 478.704C253.495 479.124 252.897 479.026 251.981 478.738C250.654 477.494 249.969 404.846 249.894 402.412C249.82 400.024 249.806 397.556 250.039 395.178C247.41 395.276 244.86 395.006 242.875 393.078C241.478 391.72 240.895 389.838 240.951 387.923C241.008 385.962 241.775 384.097 243.255 382.784C244.799 381.41 246.909 380.778 248.958 380.913C249.953 380.976 250.851 381.275 251.777 381.621C252.382 378.572 253.146 375.568 253.812 372.532C251.42 372.564 249.296 372.482 247.454 370.722C247.384 370.655 247.315 370.587 247.249 370.519C247.182 370.45 247.117 370.379 247.054 370.305C246.99 370.232 246.929 370.158 246.869 370.083C246.81 370.007 246.752 369.93 246.696 369.853C246.64 369.774 246.586 369.693 246.535 369.612C246.483 369.531 246.433 369.449 246.385 369.367C246.337 369.282 246.291 369.198 246.248 369.113C246.204 369.027 246.162 368.94 246.123 368.851C246.083 368.763 246.046 368.674 246.011 368.585C245.976 368.495 245.943 368.405 245.912 368.315C245.882 368.224 245.853 368.131 245.827 368.038C245.801 367.946 245.777 367.854 245.756 367.76C245.734 367.665 245.715 367.571 245.698 367.478C245.681 367.382 245.666 367.287 245.654 367.192C245.641 367.095 245.632 366.999 245.624 366.904C245.616 366.809 245.611 366.713 245.608 366.616C245.571 364.92 246.366 363.295 247.536 362.095C248.994 360.6 250.933 359.897 253.01 359.963C254.154 360 255.316 360.256 256.415 360.555Z" fill="black"/>
</g>
<defs>
<clipPath id="clip0_421_99">
<rect width="520" height="520" fill="white"/>
</clipPath>
</defs>
</svg>
